<svg xmlns="http://www.w3.org/2000/svg" viewBox="0 0 865 239"><g stroke-width="2" fill="none"></g><path d="M0 0h865v239H0V0zm199 81.87q.66-.58 1.58-.15.57.27.77-.33.52-1.56 2.25-1.09.69.19.38.83l-1.3 2.72q-.19.4-.62.3l-.94-.22q-.82-.2-.48.57.96 2.11 3.27 1.68.54-.1.82-.58.94-1.61 2.71-1.09.65.19.82-.46l3.84-14.53q.14-.53-.25-.93-1.34-1.36.15-2.45.44-.32.05-.71l-.97-.97q-.42-.43-.02-.87l.44-.49q.33-.37.2-.85l-.8-3.11q-.17-.64.49-.64h.61q.8 0 .63-.78l-3.37-15.59q-.12-.56-.58-.89c-1.71-1.2-1.58-2.82-2.2-4.16q-1.62-3.46-3.93-7.02a1.62 1.61-35.9 00-2.37-.37c-.59.48-1.74 1.92-2.6.75q-.48-.65.24-1l2-.99q.59-.3.21-.83c-2.2-3.1-8.97-10.48-12.93-10.63q-.51-.02-.82-.42-1.37-1.77-3.47-2.72-.5-.22-.79.24l-.58.9q-.53.81-.96-.06l-.96-1.95q-.26-.52-.81-.7l-6.09-1.98q-.62-.2-.87.41-.46 1.12-1.68 1.06-.61-.04-.58-.64l.05-.93q.02-.47-.43-.61c-4.48-1.4-11.88-.85-19.35-.06-2.66.29-4.19 1.46-6.11 3.11q-.47.41-.68-.17l-.27-.72q-.22-.6-.82-.39c-35.48 12.43-46.85 54.42-24.59 83.88 7.01 9.29 17.65 15.59 28.94 18.23 2.1.49 3.58-.51 4.83-2.04q.37-.46-.21-.43-.29.01-.41-.19-.37-.59.06-.57.14.01.28 0 .32-.02.43.28l1.26 3.39q.17.46.66.52 9.74 1.21 19.25-.89.59-.13 1-.58 1.32-1.45 3.25-.82a.41.41 0 00.46-.64l-.28-.38q-.44-.59.22-.92 1.94-.98 2.52-3.02.33-1.16-.63-.43l-1.83 1.42q-.42.32-.8-.04l-1.02-.96q-.33-.3-.72-.08l-.98.57q-.43.24-.89.07-.55-.21-.41-.83.12-.58.71-.6 1.73-.08 1.78-1.83.04-1.19.84-.3l1.79 2q.36.4.89.38c1.29-.05 3.8-2.29 4.3-1.51q.31.49-.21.75-2.4 1.21-1.17 3.94a.8.8 0 001.16.34c3.1-1.98 6.42-2.83 8.86-5.67q.37-.44-.04-.84l-1.16-1.17q-1.01-1 .35-.59 1.14.35 1.87 1.32.39.51.9.13 4.29-3.19 7.53-7.44.29-.39.29-.87-.02-1.84 1.95-2.33 1.3-.32.12-.94l-1.46-.77q-.53-.28-.13-.72 1.14-1.26 2.19-2.67 1.39-1.87-.45-.44-.71.55-1.46 1.2-.59.52-.89-.21-.93-2.29-2.91-.73-.51.4-1.02.02l-.66-.5q-.68-.5.16-.64 1.47-.25 1.89-1.57.2-.62.85-.63 1.22-.02.8-1.38-.04-.13-.18-.13h-.52q-.95 0-.24-.63zm481.07 22.66q-.96-.36-2.02-.29-1.03.07-.22.7 1.43 1.12 1.97 2.85.25.83-.61.73-1.3-.15-2-1.25-.3-.47-.75-.14l-1.06.76a1.12 1.12 0 01-1.49-.17c-1.54-1.75-2.82-2.2-3.77.04q-.62 1.5.68.25.75-.72 1.62-.13.75.5.04 1.05l-1.74 1.35q-.39.3-.42.79l-.08 1.6a1.27 1.26-10.1 001.76 1.22l4.54-1.92q.44-.19.7.22l.81 1.27q.33.54.88.22l.8-.46q.78-.45.1-1.04l-1.05-.9q-.76-.66.18-1.02l.84-.32q.44-.17.48-.64.3-3.33 3.3-4.57.48-.2.85.17.61.61.12 1.23-.36.46-.91.28l-.53-.17q-.98-.31-.78.7l1.02 4.98q.11.53.56.84 2 1.34 4.27.75.57-.15.42-.72-.61-2.28-2.89-2.04-1.01.1-.24-.56 1.27-1.09 2.97-.77.58.11.46-.47l-.07-.36q-.11-.54-.66-.61-1.53-.18-1.1-1.84.1-.39.5-.39h.4q.38 0 .49-.37 1.1-3.61-.74-6.56-.28-.46.04-.89l.89-1.2q.28-.37-.04-.72l-1.45-1.6q-.5-.54.13-.92 1.7-1.04 1.09-3.17-.27-.96-.76-.1-.34.6-1.16.85-.52.15-.84-.29l-.66-.91q-.43-.59.29-.7c2.43-.38-.08-3.77-.37-5.35a1.12 1.11 84.8 011.09-1.32h2.21q.98 0 .46-.83l-.92-1.48q-.25-.41.15-.68 1.91-1.3.42-3.67-.46-.73-.18.09.57 1.65-1.23 1.34-.46-.07-.5-.53c-.19-2.45 2.76-3.02-.42-5.98q-.58-.54.2-.72 1.02-.22 1.73.48.63.6.63-.27v-2.72q0-.61-.6-.48c-3.86.83-3.67-3.19-1.63-5.15q1.02-.99.55.35l-.68 1.93q-.24.66.45.83l1.23.3q.72.18.7-.56c-.04-1.44.98-10.84-1.3-10.22q-.5.13-.36.64l.25.91q.18.61-.43.82l-.74.25q-.59.2-.6-.43-.09-3.21 2.67-4.09.56-.17.57-.76.22-18.92.4-37.85c.01-.88.31-3.48-.4-4.34q-.87-1.05-1.74 0l-45.72 55.1a.89.88 44.8 01-1.35 0q-22.67-27.09-45.18-54.11-1.09-1.31-2.12-1.47-.72-.1-.72.63v103.36a.56.56 0 00.56.56h17.34q.4 0 .41-.4l.36-27.71q.01-.41-.32-.65l-1.02-.74q-.41-.29-.05-.65l1.13-1.13q.38-.38.37-.93l-.44-23.56a.33.33 0 01.6-.18q4.97 7.82 10.8 14.95c7.6 9.3 11.56 14.43 17.63 21.22a1.58 1.58 0 002.44-.1c1.27-1.68 9.3-10.21 8.14-11.51q-.21-.23-.37.03l-.32.54q-.32.53-.87.26l-.64-.3q-1.21-.58.12-.7 1.99-.17 2.14-2.1.08-1.02.89-.4l1.29 1.01q.14.1.31.05.13-.04.25-.09.22-.08.15-.31-.74-2.24.71-4.15.49-.65.6.15l.06.49q.15 1.09.93.3 4.29-4.4 7.97-9.37.29-.4.45-.87.37-1.07-.13-1.94-.47-.83.47-.65l1.01.2q.61.11.97-.4l3.93-5.67q.45-.64.69.11.6 1.88.37 4.19c-.55 5.39-.92 11.8-.3 17.87q.21 2.05-.59 4.08a.86.85-89.4 001.09 1.12l1.95-.73q.31-.11.51.15l.19.26q.26.36-.14.55l-1.72.84q-.42.2-.3.66c.53 1.9.67 5.86 2.94 6.32q.62.13.67.76l.36 4.5q.04.51.42.85.78.7 1.21 1.63.2.45.66.64.8.33 1.44-.19.54-.44-.01-.87-.68-.55-1.58-.42-3.13.45.08-.71 2.41-.86 3.19-3.3.88-2.76-.59-.32-.68 1.12-2.05.78-.99-.24-.19-.87 1.23-.97 2.82-1.32.56-.13.58.44l.11 2.55q.03.67.7.72l.28.03q.5.03.66-.44.65-1.87 2.33-3.01a.26.25 71.5 01.39.2q.24 3.87-3.36 4.39-.72.1-.74.84-.03 1.3-1.09 1.87-.5.26-.36.82l.2.77q.14.52-.37.33zm-420.52 7.54a.37.37 0 01-.31-.67q2.14-1.12 4.5-1.16.57-.01.28.48l-.86 1.44q-.64 1.08.6.86l7.75-1.42q.68-.12.5-.79-.06-.24.03-.46.27-.63.91-.38l1.67.63q.42.17.84-.02c4.77-2.18 10.18-4.09 14.13-7.62q.42-.37.02-.77-1.36-1.3-3.32-.9-.29.06-.29-.24 0-.15-.01-.32-.02-.36.34-.3 3.53.6 5.89-2.07 1.16-1.33.43.28-.65 1.43-2.21 1.81-.63.15-.35.74l.18.38q.32.66.9.22 5.93-4.54 9.74-10.93.27-.45.71-.76.59-.4.93-1.03c7.63-13.62 9.62-31.28 4.09-45.65q-2.05-5.33-2.82-7.2-.27-.65-.76-.16l-.36.37q-.56.55-1.11 0l-.61-.61q-.57-.57.24-.57h1.29a.6.6 0 00.5-.94Q286.79 9.82 257 9.34q-16.56-.27-33.17.11-.71.02-.73.72l-.29 9.52q-.01.58.57.55.74-.04 1.15.77.32.62-.32.9l-1.07.45q-.49.22-.48.75.68 34.15.47 68.29c0 .47.25.79.7.86q.8.12.66-.67-.1-.57.26-.98.43-.49.62.14l1.38 4.54q.16.5-.36.6l-2.99.59q-.39.08-.44.47-.28 2.03.6 3.76.19.37-.03.73c-.86 1.39-.27 9.46-.3 11.61a.74.73 0 00.75.74l17.82-.39a.78.77 71 00.6-1.24c-1.55-2.06.03-6.24 1.58-5.08q.45.34-.05.59l-1.05.52q-.49.24-.46.77.25 4.86 5.12 4.58.66-.04.53-.69-.28-1.44-1.87-1.98-.43-.15.02-.08 2.11.31 3.46 2.09.31.41.81.45c1.03.1 3.69.67 3.53-1.17q-.04-.42.34-.62l2.28-1.15q.28-.14.46.11l.21.28q.26.36-.12.58l-1.07.63q-.41.24-.32.71l.05.25q.12.64.77.58l5.64-.48a.44.43-32.6 00.18-.81q-1.35-.76-2.89-.17zm253.7-11.82q3.65-.44 6.53-2.69.46-.36.12-.84l-.79-1.09q-.45-.63.17-.16 1.43 1.05 1.13 3.07-.08.55-.63.67-.47.1-.93.34-.71.37.09.35l9.26-.22q.51-.01.93-.29 1.58-1.07 3.01.03.51.4.84-.16l.18-.3q.25-.43.64-.13 1.64 1.26 3.46-.03.45-.32.97-.15 5.67 1.88 11.54.75.49-.1.98-.02l2.87.43q.5.08.75-.35 1-1.72 2.87-2.23 2.8-.77.21.72-.69.4-.71 1.15-.02.79.75.67l1.53-.22q.58-.09.47.49c-.1.52-3.06 1.35-3.86 2.26q-.38.42-.12.93l1.69 3.39q.3.6.94.8l.49.16q.51.16.41.68-.52 2.72 1.04 5.15.2.31.57.3l20.26-.28q.6 0 .35-.55l-28.95-63.66q-.1-.22-.42-.53-.27-.27-.77-.52-.38-.18-.36-.61.06-1.28-.36-2.23-4.47-10.26-12.18-26.99c-1.07-2.32-3.25-5.75-4.27-9.04a.34.34 0 00-.64-.03l-45.58 103.94a.4.39-83.1 00.43.55c5.96-1.08 12.29.16 18.4-.08q.46-.02.67-.43l4.13-8.43q.24-.49.14-1.03l-.15-.76q-.13-.63.45-.91 1.21-.59 1.45-1.87zm329.52 2.68q1.5.51 2.28-.66c8.53-12.8 7.41-29.05-4.26-39.35-8.42-7.42-22.03-11.88-30.47-16.21-6.47-3.32-9.3-10.62-5.58-17.21q1.34-2.37 2.8-2.99 13.77-5.74 21.64 6.25.31.46.77.16l12.87-8.37a.74.74 0 00.24-.99c-6.87-11.83-18.27-15.02-31.24-14.21-20.19 1.26-31.8 18.92-24.73 38.01q.17.44.56.69 1.16.71 1.13 2.06-.01.5.25.94c4.46 7.61 12.84 12.72 20.87 15.77 1.16.44 2.18 1.37 3.42 1.86 4.56 1.79 16.42 6.79 17.98 11.79 2.56 8.18-1.09 14.4-9.19 16.44q-16.02 4.05-27.25-10.43-.8-1.04-1.94-.39l-13.13 7.5q-.39.22-.16.6c8.45 14.36 23.01 19.89 39.18 19.23q13.14-.52 23.13-7.98 1.03-.77.49-2.15-.21-.55.34-.36zM18.25 73q-1.02 1.68.04 3.31.28.43-.01.85-1.24 1.86.82 2.77 1.39.61-.32.39l-5.79-.74q-.67-.08-.4.54 3.39 7.85 4.84 9.94 17.49 25.36 48.89 23.47 19.13-1.15 32.19-14.83.5-.51-.2-.65l-.94-.19q-.86-.16-.19-.72.81-.69 1.85-.29.4.16.75-.09c2.2-1.55 3.84-5.16 1.11-7.12q-4.84-3.48-9.83-6.78-.48-.32-.99-.03l-.82.47q-.66.38-.52-.37.21-1.1-.23-2.11-.33-.73-.8-.08c-1.21 1.72-2.18 3.67-3.58 5.09-17.07 17.31-44.62 10.64-51.64-12.34q-3.66-11.98.02-23.98 2.58-8.44 9.21-14.16c.86-.74.97-1.49.68-2.53q-.16-.6.39-.31l.81.42q.59.31 1.16-.04 5.74-3.47 12.35-4.64.94-.17.22-.8-.45-.39-.76-.87-2.61-4.03.94-.34.61.63.95 1.43.19.44.67.41 17.33-1.2 27.03 12.69a.72.72 0 001.01.17l14.49-10.51q.73-.52.22-1.26Q91.5 13.93 74.69 10.48C38.91 3.12 7.62 27.78 9.64 64.83q.03.6.63.67.41.05.43.78.01.44-.13.86-.94 2.88-.09 6.01.12.43.49.69 1.29.92.53 2.44-.38.76.43 1.03l4.38 1.46q.59.19.85-.37l.73-1.57q.25-.53-.25-.83l-.67-.41q-.51-.31-.95.09-1.21 1.11-2.63.25-.54-.32-.11-.78l.82-.9q.37-.4.76-.01l.56.55q.43.44.79-.06.83-1.14 2.04-1.73zm329.72 36.14l2.17 4.44q.21.43.69.43l32.62-.34q.51-.01.88-.37l.77-.77q.47-.48.89.05l.82 1.04q.36.47.84.11l1.29-.96q.64-.49-.12-.76-1.21-.44-.57-1.53c2.58-4.38 2.05-9.35 1.99-14.24q-.01-.49-.5-.49H359.5q-.53 0-.99.26-.8.45-1.47-.11-.36-.3-.83-.31c-3.26-.06-13.42.69-15.75-.76q-.53-.33-.35-.93 1.65-5.66.34-11.34-.12-.51.13-.96c1.19-2.22.67-10.88.72-13.69q.01-.63.64-.64l39.28-.39q1.29-.01 1.39-1.3.49-5.87-.15-12.85-.14-1.58.06-1.98a1.55 1.2 10.1 00-1.58-1.75h-39.19q-.5 0-.5-.5V29.14q0-.6.61-.62l15.68-.35q.5-.01.84-.37.91-.97 1.55-.08.34.48.92.45l4.45-.24q.43-.02.45-.45.05-1.02.91-1.24.72-.18.62.56l-.13.98q-.05.35.3.34l15.22-.45q.8-.03.15-.5l-.87-.63q-.29-.21-.64-.85-.29-.55.71-.64.5-.04.97.12 1.32.46 2.75.44 1.22-.02.29.76l-1.5 1.27q-.75.63.23.55l2.9-.23q.58-.05.58-.63l.02-17q0-.62-.61-.62h-66.24a1.38 1.37 90 00-1.37 1.38l.11 102.1a.57.56.5 00.56.56q11.35.01 22.79-.01 2.79-.01 4.41-3.11.22-.42-.14-.73c-.44-.39-1.05-.14-1.34.36q-.43.73-.43-.11v-.6q0-.4.37-.55.21-.08.37-.19.81-.53 1.23.33zm60.99-25.29l-5.29 3.86q-.52.39-.3 1l.97 2.67q.16.45.01.9l-.63 1.8q-.16.46.22.77l1.85 1.51q.67.55-.19.44l-4.06-.48q-.52-.06-.69.44-.75 2.18-.55 4.49.45 5.36.14 10.3a.89.89 0 00.89.95h16.16q.75 0 .75-.75.03-23.22-.01-46.25c0-3.62-.82-8.62-.65-12.98q.03-.85.54-.17c.95 1.25 8.92 12.55 9.79 11.52q.37-.44.52.12.21.84.55 1.29 4.7 6.21 10.29 11.64.47.46.94 0l.5-.5q.65-.66.78.26.09.65-.45.8a.61.61 0 00-.27 1.02l16 15.64q.5.5.98-.02.82-.9 2.04-1.04 1.1-.12.43.76-.67.87-1.77 1.12-.82.18-.23.77l16.82 17.07a1.24 1.24 0 002.12-.87l.45-100.12q.01-1.56-1.55-1.56h-15.78q-.65 0-.66.65-.57 29.93.53 59.83.02.59-.35.13-12.42-15.44-26.91-28.98c-1.44-1.35-2.58-3.42-4.07-4.95q-12.84-13.18-26.3-27.07a1.35 1.34-69.2 00-2.3 1.04q.15 2 1.67 3.06.57.4-.08.63l-1.1.41q-.51.19-.5.72.17 18.65-.12 37.3c-.01.75.3 1.09 1.01 1.24q.6.13.27.66l-.89 1.44q-.27.43-.27.94l.13 30.96q0 1.45 1.24.69c2.84-1.76 2.49-4.71 7.31-5.27q.35-.04.07.17zm316.22 26.33q.68-1.79 1.7-3.44.23-.37.25.06.11 3.68 2.05 6.74.33.52.95.51l32.6-.38q.48-.01.82-.35l.72-.72q.52-.52 1.01.04l.68.78q.4.47.97.24 1.32-.55 2.23-1.75 1.19-1.57-.17-.43-.67.55-1.33.06-.48-.36-.17-.87c2.71-4.51 2.02-9.26 2.01-13.96q-.01-.91-.92-.91l-46.52-.16a2.41 2.4-82.9 01-2.32-2.99q.77-3.06.52-7.38c-.08-1.44-1.17-2.54-.21-4.12q.24-.39.25-.85l.28-12.31q.01-.68.69-.69l40.21-.45q.56 0 .55-.57c-.06-2.24.17-11.64-.85-12.97q-.31-.4-.11-.87l.93-2.15q.42-.99-.65-1l-40.25-.35q-.6 0-.6-.6V28.98q0-.52.52-.53l23.76-.56q.46-.01.46-.47.01-.7.47-1.28.7-.87.76.25l.06 1.12q.03.69.72.66l11.95-.51q.46-.02.88.15.79.31 1.66.19.62-.08.28-.61c-.48-.74-2.24-1.17-1.38-2.4q.33-.47.83-.17 1.45.92 3.14.95.71.02.42.66-.33.72-1.04 1.05-2.44 1.15.26.79l2.58-.35q.67-.08.67-.76V10.25q0-.49-.5-.49l-66.65-.03a1.16 1.16 0 00-1.16 1.17l.21 101.79a1.04 1.04 0 001.03 1.04q10.8.09 22-.04 3.36-.04 4.77-3.43.39-.93-.5-.46-.49.26-.89.78-1.59 2.12-.63-.4zM205.462 87.967a.92.48 107.6 00.736-.732.92.48 107.6 00-.18-1.022.92.48 107.6 00-.736.732.92.48 107.6 00.18 1.022zM402.6 90.08c-1.74.33-3.31 2.37-1.84 4.04q.41.47.98.21 1.72-.79 2.21-2.83a1.17 1.16-88.7 00-1.35-1.42zm-178.24 3.25q-1.58-.56-1.34 1.28.08.68.66.32l.8-.48q1.13-.68-.12-1.12zm446.87 2.29l.66-1.48q.62-1.39-.56-.44-1.74 1.4-1.18 3.51a1.39 1.39 0 001.64 1q.92-.2 1.19-1.25.19-.71-.54-.71h-.8q-.69 0-.41-.63zm1.22 9.46l.83 1.12q.35.48.91.28c4.07-1.42-1.94-5.95-3.53-6.53q-.58-.22-.56.41l.11 4.12q.01.25.23.13.38-.19 1.17-.05.52.1.84.52zm-407.74 38.17l-1.71.04c-22.11 5.67-33.33 27.81-29.89 49.55q.99 6.22 4.14 11.7 8.51 17.59 27.71 22.06 3.56.83 4.44-2.38.26-.95.42.03l.48 2.74q.08.47.56.5c5.27.35 13.35.99 17.27-1.56q.44-.29.95-.19 1.25.24 2.05-.52.34-.32.45-.77l.43-1.69q.17-.67.63-.16l.89.97q.37.41.89.21 12.08-4.82 18.58-16 .17-.3-.14-.51-.46-.32-.68.19-.44 1.02-1.33.61-.59-.27-.12-.71l1.56-1.5q.26-.26.48.04l.29.39q.42.56.82-.01l.86-1.24q.55-.77-.4-.76l-2.09.01 3.14-1.54q.41-.2.59-.62 3.04-7.16 2.87-14.93-.01-.34-.2-.61-.23-.33-.01-.62.3-.39.24-.88-.18-1.32-.88-2.38l.25-.5q.44.39 1.02.28a.49.48 80.8 00.39-.55q-1.04-7.23-3.2-14.19-1.95-6.38-6.92-10.75-3.93-5.39-9.66-8.8-.46-.27-1-.31-.75-.06-1.15-.88-.2-.42-.66-.53-.87-.21-1.4-.95-.33-.46-.87-.29l-1.2.38q-.4.12-.53-.28l-.14-.44q-.15-.48-.63-.66-13.11-4.84-26.88-1.58-.5.12-.71.59zM471.29 197v30.1q0 .44.45.44l15.53-.06q.5 0 .53-.51.72-13.63.41-27.22l.29-56.7q0-.47-.46-.58c-5.53-1.27-10.67-.54-16.2-1q-.57-.05-.57.52l.02 55.01zM331 179.54l-.25.42-.23.25q-.16.17-.16.41-.47 13.44.38 27.29l-.5 3.01q-.1.6.49.75 1.23.3 2.52.04 1.09.4 1.68 1.96-2.22-1.07-4.22-.57-.48.11-.47.61l.34 12.09a.72.72 0 00.72.7h13.67q.45 0 .45-.45l.04-15.8-.25-22.75-.17-4-.52-5.7q-.07-.69.35-.14 7.46 9.92 16.32 18.56c10.5 10.23 20.75 20.69 31.01 31.18a.68.67-55.6 001.1-.21q.18-.41.18-1.14.53-41.4.41-82.89 0-.63-.63-.64l-13.79-.07q-.59 0-.58.58l.39 48.52q0 .34-.19.06-4.78-7.07-8.82-11.13-18.52-18.61-37.83-38.27a1.28 1.27-59.2 00-2.13.54q-.6 2.08 1.22 2.85 1.06.45-.05.74-.3.08-.59-.04-.68-.28-.68.45c.03 4.54-.93 30.71.79 32.79zm171.79-.29l-.04.71c-1.23.61-.2 24.94 0 27.83l-.5 3.17q-.11.7.59.71l2.66.04q1.42.78.61 1.18-.6.29-1.26.21c-1.93-.23-2.73-.4-2.58 2.04q.31 5.26.23 10.74-.01.62.6.62h13.87q.48 0 .49-.48.17-19.34-.09-38.68c-.04-2.97-.66-6.34-.85-9.56q-.04-.73.4-.15c13.75 17.76 31.3 33.63 47.17 49.62a.72.72 0 00.92.09c.41-.27.65-.73.66-1.25q.48-41.61.3-82.23 0-1.41-1.42-1.41l-12.98.02q-.7.01-.7.71l.43 48.62q0 .24-.13.04-5.07-7.51-7.65-10.1-19.56-19.64-39.26-39.73a1.14 1.13 31.4 00-1.89.45q-.74 2.36 1.25 3.3.77.36-.05.58-.32.08-.66-.05-.66-.25-.66.45v31.22q0 .43.23.79l.31.5zm77.5 10.75v37.27q0 .48.48.48h17.74q.56 0 1.05-.26.63-.32 1.14-.04.39.21.84.21 19.7.35 31.96-.18 1.09-.04 1.72-1.26.24-.47-.28-.47h-.4q-.45 0-.31-.43 1.89-5.67 1.18-11.65-.05-.4-.45-.4l-37.45-.05q-.7 0-.72-.7l-.11-2.89q.47-7.99.29-15.81c-.03-1.3.53-2.64.55-4.08q0-.66.67-.67l30.82-.37q.46-.01.46-.46l.09-13.2q.01-.52-.51-.52l-31.16-.21q-.42 0-.41-.42l.03-17.69q0-.67.67-.69l34.96-.78q.61-.02.61-.63v-11.35q0-.5-.5-.5l-52.48-.03q-.5 0-.5.51l.02 47.27zm-172 34.25l-.02 2.76q-.01.51.51.51l43.61.03a.63.63 0 00.63-.71l-.18-1.32q-.04-.26.23-.28.14-.01.27.03.41.13.45.55.19 2.04 2.21 1.64.55-.11.99-.45 1.91-1.5 3.65.58.86 1.03.86-.31v-13.29q0-.7-.7-.72l-36.06-.61.02-69.75q0-.45-.46-.45l-15.63.01q-.4.01-.4.41l.02 81.37z"/><path d="M192.06 26.56q-.05.52-.47.58-.47.08-.37-.39.18-.83.98-1.21a.27.27 0 01.36.37q-.21.43-.5.65zM170.99 28.31q.09-.93.68-1.63 1.88-2.23.58.32l-.73 1.46a.28.28 0 01-.53-.15zM276.68 96.28c.58.43 4.26 2.12 3.24-.44q-.18-.45.16-.8l1.05-1.04q.38-.39.92-.27l3.39.78q.42.09.05.31-1.28.74-2.67-.22-.48-.33-.75.18l-1.56 2.88q-.32.59-.96.39l-1.13-.36q-.55-.17-1.05.09-2.48 1.28-4.52-1-.39-.43.15-.67l1.24-.53q.56-.24.47-.85c-.29-1.95-2.27-1.38-3.46-.95q-3.51 1.26-.33-.6.61-.36.59-1.03-.01-.39-.38-.28l-10.16 2.97a.35.35 0 00-.04.66q2.51 1.1 1.81 3.75-.1.37.14.68l.85 1.07a.57.57 0 01-.36.91q-3.01.47-4.29-2.08-.29-.58.36-.58h1.28q.72 0 .44-.66-1.11-2.64-3.52-1.51-1.04.49-.53-.55l.51-1.05q.47-.94-.48-.49l-1.05.48q-.48.22-.99.12-4.85-.97-9.75-.34-.57.07-.92-.38c-1.77-2.26 1.52-6.71-2.83-7.28q-.31-.04-.14-.31.88-1.36 2.19-2.35.53-.4.53-1.06l.01-55.19q0-.64.64-.73 12.43-1.75 24.04 2.4c1.32.47 2.78.05 3.68 1.72q.23.44.68.66c9.62 4.84 12.03 13.18 14.34 22.96q.07.28.37.54.26.23.24.58l-.68 9.7a.51.51 0 00.88.38q.99-1.07 2.4-1.07 1.61.01.11.6-3.78 1.52-4.08 5.31-.04.49-.25.94c-1 2.11-1.29 4.45-2.55 6.4q-1.5 2.33-2.46 4.96-.16.43-.62.47-.42.04-.81.36-.65.54.19.6l.59.04q.6.05.6.65v.63q0 .63-.62.72-.93.12-1.29-.57-.31-.58-.84-.19l-4.39 3.17a.97.97 0 00-.01 1.57l3.25 2.39q.64.48.03 1l-.97.84q-.34.3.02.57zM185.54 87.7l-.99-1.45q-.24-.34.03-.66c.74-.88 2.46-1.95 1.56-3.28q-.51-.77-.97.04l-1.24 2.22q-.25.44-.65.73c-2.86 2.06-4.78 4.94-7.45 6.55q-5 3.01-12.23 3.97-19.48 2.57-30.13-13.24c-9.25-13.72-8.01-34.79 4.71-46.68q12.11-11.33 30.07-7.18c.31.08.48.04.74-.07q.24-.11.45.04 2.1 1.43 4.39 2.52c1.63.79 3.72.04 4.55 2.67q.17.51.58.85 5.03 4.1 7.92 9.92.23.47.71.69.69.32.62 1.08-.04.4.08.78 4.62 14.91.16 29.86-.11.37-.4.61-1.4 1.14-1.97 2.9-.2.65.48.69 1.35.07 2.11-1.14.32-.51.74-.08l.26.26q.28.27-.05.48c-3.28 2.01-.83 7.15.04 9.98q.16.52-.37.39-1.15-.29-1.42-1.41-.17-.72-.76-.29l-1.55 1.13q-.43.3-.91.11-.41-.16-.65-.66-.25-.51.25-.77l1.03-.54q.7-.36.26-1.02zM185 30.37l.97-1.28q.43-.58.75.07c.41.84-.39 2.85-1.64 1.84a.46.45-52.9 01-.08-.63z"/><ellipse transform="rotate(29.4 -41.31 76.798)" rx=".99" ry=".57"/><ellipse transform="rotate(67.2 316.476 526.687)" rx="1.27" ry=".71"/><path d="M193.65 32.37l-.25.1q-.07.03-.09-.04-.96-2.74.46-.43.16.26-.12.37zM416.75 32.5l.69 1.36q.41.82-.4.4-1.08-.55-1.31-1.77-.56-3.1 1.02.01zM795.99 35.75h-1.02q-.57 0-.44-.55c.28-1.19 2.45-.9 3.57-1.64q.41-.27.36.22l-.3 3.19q-.08.79-.8.49-.83-.34-.87-1.23-.02-.48-.5-.48zM198.29 33.72q.33-.21.71-.25 1.94-.21.13.6c-.93.42-3.57 1.94-4.31 1.13q-.36-.39-.03-.81 1.01-1.29 2.49-.61.52.23 1.01-.06zM192.19 36.18l.24.77q.27.86-.57.55l-.33-.13q-.42-.15-.62-.56-1.13-2.3.69-2.9.71-.24.87.5.08.38-.14.73-.31.49-.14 1.04zM22.24 36.2a.26.24 79.7 01.23.17c.2.67-.34.96-.9.89a.62.46 40 01-.26-1.06h.93zM409.67 37.44h-1.07a.56.55-61.6 01-.3-1.02q.91-.6 1.66.45a.36.36 0 01-.29.57zM194.22 38.99q-.22.29-.48.55-.3.28-.04-.04 2.1-2.61.52-.51zM203.3 42.05l-1.57-.34q-1.08-.24-.7.8l.46 1.28q.26.72-.5.82l-1.34.18q-.37.06-.26-.31l.82-2.63q.17-.53.67-.75l1.6-.7q.67-.3.83.42l.21 1.01a.19.19 0 01-.22.22zM667.83 42.56l.46 1.56q.18.62-.45.75-1.47.3-2.81.28-3.01-.04-.12-.28 2.16-.19 1.83-2.42-.07-.46.25-.8 1.04-1.1 2.63-.99.62.05.37.62-.43.96-1.6.69-.79-.19-.56.59zM20.2 44.78l-.11-3.29q-.02-.61.46-.23 1.89 1.5.48 3.75-.78 1.25-.83-.23zM304.62 40.63q.87-1.14.57.27-.46 2.19-1.46 4.16-.47.93-.51-.11-.1-2.37 1.4-4.32zM683.81 45.83l1.79-1.05q.86-.5.54.44l-.62 1.82q-.24.68-.91.42-1.46-.56-2.69.53-.3.27-.64.06l-.46-.27q-.16-.1-.06-.26l2.28-3.99q.31-.53-.31-.53h-.48q-.35 0-.44-.33-.27-.97.28-1.85.47-.77.87.04l.67 1.34q.31.6.85.21l1.24-.88q.81-.59.51.37l-.3.97q-.15.47-.61.63-1.54.54-1.98 1.96-.24.79.47.37zM24.42 43q-.33 1.21-.81 2.26-.35.78-.42-.07-.1-1.47.85-2.41.61-.6.38.22zM206.25 42.69v-.48q0-.62.58-.4.99.38.09 1.18-.67.59-.67-.3zM406.58 43.13a.2.2 0 01.32-.17q3.46 2.74.26 6.15-.14.16-.16-.05l-.42-5.93zM681.02 43.69q-.68 1.5-2.1.6-1.1-.71.19-.88l1.55-.21a.35.34-81.5 01.36.49zM410.96 49.5c-1.64-.8.33-5.48 1.83-5.84q.83-.2.36.5-1.56 2.35-1.72 5.07-.03.48-.47.27zM17.11 45.61q-.12-.73 1.06-.95a.33.32 21.2 01.26.58l-.78.59q-.45.33-.54-.22zM678.48 48.89q.3.15.27.47-.05.39-.44.39h-.37q-.54-.02-.67-.55-.35-1.46.57-2.49a.41.41 0 01.71.34l-.23 1.54q-.03.2.16.3zM191.66 48.68a.25.25 0 01-.39-.01l-.29-.4q-.37-.51.08-.95l.22-.22q.13-.14.27-.01.79.78.11 1.59zM204.48 48.3l-.54-.54q-.33-.32.09-.51 1.37-.59 1.13.83-.12.78-.68.22zM658.88 48.65q-.84-.4-.63-1.39a.41.41 0 01.68-.21q.49.48.57 1.17.08.76-.62.43zM528.73 83.65c-.96-1.9-3.8-1.63-4.83-.11q-.27.38-.69.18l-2.77-1.32q-.69-.33-.14-.86 2.9-2.75 1.56-6.28-.18-.47.27-.7c3.08-1.56 5.02-8.89 6.87-14.41q.16-.47.07-.95-.13-.7.41-1.1.41-.31.59-.79l3.46-9.01a.22.22 0 01.42 0l12.36 33.41q.22.59-.41.6l-15.12.22q-.34 0-.54.29l-.59.88q-.5.76-.92-.05zM197.56 48.69q.8.1.59.84a.44.43 21.8 01-.61.26l-.85-.43a.44.43 48.6 01.05-.8q.55-.19.82.13zM664.84 49.32q.08.63-.5.36-.76-.35-.4-1.08a.44.44 0 01.84.14l.06.58zM296.32 49.8q.55.27.82.88.16.36-.21.5-.12.05-.24.09-.1.03-.16-.06l-1.47-1.87q-.28-.37.17-.3.45.07.71.44.15.21.38.32z"/><ellipse transform="rotate(-37.4 415.624 -980.273)" rx="1.31" ry=".45"/><path d="M431.51 52.3c.43-.93 3.18 1.36 3.72 2.1q.54.73-.26.29l-3.26-1.79q-.38-.2-.2-.6zM203.38 55.75a.8.8 0 01-1.13-1.12l.97-1.29q.48-.65.72.13.46 1.49-.56 2.28zM669.33 53.82q.6-1.24.85.11l.33 1.75q.29 1.55-.81.42-.98-1-.37-2.28zM344.19 54.19q-.01-.2.12-.33a.26.26 0 01.45.17q.05.93-.81 1.24a.31.31 0 01-.35-.48q.22-.3.59-.6z"/><ellipse transform="rotate(130 349.043 195.937)" rx=".97" ry=".44"/><path d="M727.84 56.7q-.14.84-.74.24l-.59-.59a.44.44 0 01.3-.75q1.2-.02 1.03 1.1zM299.58 59.19q-1.26-.63-1.57-2.86-.1-.71.46-.27 1.35 1.05 1.7 2.67.18.85-.59.46z"/><ellipse transform="rotate(14.7 -44.505 1377.126)" rx=".78" ry=".59"/><path d="M403.16 56.31l.34.52q.64.93-.47.73-1.13-.21-1.59-1.18-.2-.41.26-.38.24.01.49-.06.61-.15.97.37zM430.7 59.88l1.59.71q.95.43.01.87-1.17.56-.81 1.61.31.9-.51.42c-1.43-.85.8-2.73-1.59-3.58q-.59-.21-.2-.7 1.2-1.46 2.59-2.66.85-.72.18.17l-1.54 2.04a.74.74 0 00.28 1.12zM621.65 58.99l.86.87a.44.44 0 01-.49.72l-.94-.41q-.61-.26-.14-.73l.44-.45a.2.19 43.9 01.27 0zM676.96 59.8q1.73-1.37 1.74 2.53.01.93-.38.08-.41-.88-1.24-1.32-1.05-.55-.12-1.29zM433.55 62.35c.63-.91.86-2.72 1.91-3.04q.64-.19.35.41l-1.52 3.12q-.19.39-.5.08l-.21-.21q-.16-.17-.03-.36zM196.81 62.76c-.67-.37-.74-1.71-.42-2.2q.42-.66.84.01.74 1.16.45 2.5-.09.4-.38.11l-.21-.21q-.12-.13-.28-.21zM683.12 62.68l-.65-1.04q-.4-.64.35-.64h.47q.24 0 .44.14.92.63.29 1.55a.54.54 0 01-.9-.01zM306.81 62.56q.19-.19.38 0l.38.39q.8.8-.33.8h-.69q-.92 0-.27-.65l.53-.54z"/><circle cx="26.88" cy="63.37" r=".64"/><path d="M679.02 63.12q.75-.54 1.72-.33.75.16.5.88l-.45 1.3q-.22.63-.78.26-1.1-.73-2.5-.5-1.34.23-.77-1 .34-.74 1.38-.45.49.14.9-.16zM404.88 67.13q.6-1.54-1.04-2.57-.32-.21-.05-.47l.37-.38q.39-.39.52.15.28 1.27 1.62 1.42.9.11.27.76l-1.32 1.37q-.47.49.15.76 2.3.99 3.01 3.12.16.47-.19.11l-3.15-3.28q-.41-.43-.19-.99z"/><ellipse transform="rotate(136.1 86.683 72.48)" rx=".69" ry=".62"/><path d="M197.04 65.66l-.68-.41q-.26-.16-.13-.43l.12-.25q.27-.58.72-.12l.51.51a.45.44 82.7 01-.54.7zM434.01 66.73q1.86-2.23 1 .6-.5 1.66-.96-.17l-.08-.24q-.04-.11.04-.19zM413.2 68.72q.22.82-.53 1.15-.89.39-.82-.57.11-1.36 1.28-2.25.59-.46.33.24l-.22.6q-.15.41-.04.83zM677.91 66.99q1.07.02 1.49 1.05.51 1.23-.62.52l-1.12-.71a.47.46 61.5 01.25-.86zM512.23 69h-.4q-.53 0-.25-.45.4-.64 1.18-.55.7.08.2.58l-.2.2q-.22.22-.53.22zM198.85 71.89l-2.14-2.82a.32.32 0 01.25-.51l2.72-.06a.32.32 0 01.32.23l1.25 4.48a.32.32 0 01-.26.4l-3.14.48a.32.32 0 01-.27-.55l1.24-1.23a.32.32 0 00.03-.42zM24.38 69.06a.41.41 0 01.58-.14c.88.58-.02 1.35-.65 1.55q-.87.27-.43-.52l.5-.89zM304.94 69.28q.26.67-.41.99-.48.22-.53-.3-.03-.24.06-.4.57-1.06.88-.29zM18.25 73c.25-.47 1.56-3.02 2.33-2.04q.29.36.03.74-.78 1.19-2.36 1.3zM298.6 72.84l.87-1.93a.27.27 0 01.52.08q.14 1.4-1.22 2.02-.3.13-.17-.17zM684.43 74.11q-.26.44-.72.23l-.86-.4q-.8-.36-.18-.98l1.14-1.14q.44-.44.73.11.57 1.07-.11 2.18zM13.06 73.06q-.03.35-.29.53-.5.32-.5-.27v-1.08q0-1.36.88-.33.66.76-.09 1.15zM243.13 72.63l.51.37q.27.21.04.46c-.59.64-1.92.95-1.67-.61q.06-.36.43-.35h.26q.24-.01.43.13zM411.26 73.57q-.11-.58.42-.81a.39.38-2.1 01.52.48l-.86 2.43q-.28.79-.51-.01-.22-.75.28-1.44.22-.29.15-.65z"/><ellipse transform="rotate(25.1 42.628 969.413)" rx="1.07" ry=".72"/><path d="M295.7 75.11q.74-1.39 1.96-2.31 1.68-1.26.4.4-1.46 1.88.2 3.16.53.41.12.94-1.34 1.72.59 2.7 3.49 1.78-.29.58l-1.6-.5q-.43-.14-.86-.02c-1 .26-4.69-.03-4.12-1.71q.17-.48.65-.31l2.53.93q.47.17.92-.04 1.33-.61 1.37-2.32.04-2.15-1.61-.76-1.31 1.11-2.86.33-.52-.25-.16-.7l1.03-1.26q.29-.35.51.04l.5.86q.37.64.72-.01zM288.18 74q-.34 1.21-1.48 1.58-.8.27-.23-.36l1.67-1.83q.45-.5.52.17.04.29-.24.27-.19-.01-.24.17zM511.6 75.51c-.66.9-1.72.62-2.14-.37q-.35-.81.54-.86l2.17-.11q.29-.01.33.28.03.3-.26.3-.08 0-.64.76zM289.26 78.69c-.19-1.64-.63-4.6 1.54-4.47q.63.04.37.61-1.1 2.37-.15 4.94.15.42 0 .83-.4 1.09-1.33 1.36-1.45.4-.27-.54.6-.47.6-1.06.01-.67-.59-.38-1.61.74-3.37-.25-.43-.23-.21-.67l.47-.98q.3-.6.59.01.54 1.17 1.84 1.17.57-.01.51-.57zM506.94 76.07q-.19-.55.16-1.05.36-.49.88-.17c.88.54-.61 1.31.68 2.18q.53.35.01.73l-.94.67q-.79.57-.74-.4l.05-1.17q.02-.41-.1-.79zM194.26 76.14q-.37 1.51-2 1.35-.63-.06-.51-.69l.1-.48q.13-.69.82-.57.92.14 1.52-.46.4-.4.86-.08.75.52.64 1.33-.13.88-.5.08l-.27-.55q-.43-.91-.66.07zM515.27 77.06q.76-.6 1-1.39.16-.51.68-.44l.49.07q.7.09-.26.89-.55.45-.46 1.11.07.49.5.75l.99.6q.53.32-.06.49c-2.72.79-5.7-1.76-7 1.79q-.25.67-.88.35l-.81-.41q-.78-.39-.13-.97 2.19-1.95 5.07-2.46.48-.09.87-.38zM337.7 75.86l1.14-.4q.7-.24.67.5-.03.92-1.09 1.13-.53.1-.8-.36l-.15-.25a.43.43 0 01.23-.62zM718.28 76.44q-.27.82-1.21.5a.47.47 0 01-.1-.84l.84-.52q.52-.33.67.26.07.25-.09.41-.07.08-.11.19zM683.86 78.66a.49.49 0 01-.64.66q-1.56-.65-2.33-2.14-.26-.49.2-.8.55-.38 1.09-.33.5.04.71.5l.97 2.11zM25.06 77.82q-.12.17-.37.19-.37.02-.45-.34-.16-.75.74-1.04 1.09-.36.08 1.19zM196.81 77.66a.13.13 0 01-.06-.2l.22-.3q.34-.47.75-.06l2.09 2.09q.32.31 0 .62-.09.09-.18.19-.12.12-.2-.04-.87-1.7-2.62-2.3zM305.52 77.19q.57.95-.57 1.15-.33.06-.51-.24l-.15-.25q-.19-.33.14-.53l.48-.28q.38-.23.61.15zM333.94 77.11q.68.61-.47 1.27-.98.56-.44-.44.2-.37.4-.75.2-.36.51-.08z"/><ellipse transform="rotate(105.7 326.94 308.832)" rx=".64" ry=".51"/><path d="M301.77 77.58q1.12.09.57 1.3a.56.56 0 01-1.07-.2l-.03-.59q-.03-.56.53-.51zM194.69 78.69q.25-.47.77-.45.65.03.19.49l-1.44 1.43q-.77.77-.73-.32.03-1 1.21-1.15zM606.38 79.16q.58-1.26 1.2-.1.37.69-.42.69h-.41a.42.41-77.5 01-.37-.59zM337.76 80.25q.14-.4.56-.6.14-.07.25.04.09.1.18.18.09.09.01.18-.83 1.01-1.97 1.51-2.64 1.17-.25-.27l.75-.46q.34-.2.47-.58zM678.46 83.24a.72.72 0 01-.15 1.06l-1.14.77q-1.16.79-.5-.45.3-.55.77-.93.38-.32.12-.74-.55-.89-1.63-.68-.68.13-.68-.57v-.26q0-.21.19-.31l2.44-1.26q.41-.21.73.11l.21.22q.81.8-.33.8h-.91q-.96 0-.35.74l1.23 1.5zM716.75 80.6q.09-.66.76-.72.57-.06.24.41-.52.77-1.44 1.02-1.41.38-.24-.24.18-.1.35-.13.29-.05.33-.34zM17.17 81.29a.72.72 0 01-.07 1.42q-1.23.11-1.63-1.09-.23-.7.49-.56l1.21.23z"/><ellipse transform="rotate(127.4 185.715 143.069)" rx="1.51" ry=".74"/><path d="M682.63 82.41q-.82 1.48-2.24.36a.53.53 0 01.25-.94l1.45-.2q1.04-.14.54.78zM296.55 81.73q.63.06.72.74a.46.46 0 01-.47.53q-1.04-.03-1.41-.97-.23-.61.42-.56.13.02.26.07.44.19.48.19zM514.18 82.66a.94.89 37.7 00.48-.05l3.14-1.16q1.03-.39.58.62c-.9 2.01-5.2 2.08-6.97 1.84q-1-.14-.13-.66 1.39-.83 2.9-.59zM506.09 86.29c1.37-1.63.12-2.94 1.23-4.29a.58.58 0 01.98.14q.78 1.77-.47 3.08-.33.34-.33.82v.48q0 .53-.53.49l-.59-.05q-.8-.06-.29-.67zM289 92q-2.3-1.3-3.48.57a.56.56 0 01-1.03-.4l1.04-5.41q.07-.33-.27-.29l-.26.04q-.14.02-.14-.13-.03-1.96.78-3.67.7-1.48.54.14l-.24 2.43q-.06.65.59.72.5.06.34 1.1-.06.35-.27.64-.18.24-.4.45-.46.42-.02.86l.36.36q.37.38.78.03 1.5-1.28 1.73-3.2.14-1.2.54-.05.6 1.74-.46 3.14-.25.33-.23.75L289 92z"/><ellipse transform="rotate(-13.9 492.995 -1160.078)" rx=".94" ry=".54"/><path d="M511 87.29l.05.37q.01.12.12.18.91.44 1.71-.35.45-.45 1.01-.17l1.58.78q.65.33.84-.38l.23-.91q.16-.62-.47-.57-.84.07-1.07-.64-.2-.59.42-.59l3.31-.03q.42 0 .26.39-1.29 2.97-3.95 4.53-.63.37-.22.97.56.83-.47 1.19-.68.24-.17.75l.93.92q1.82 1.83-.45.6-1.16-.64-2.2-1.43-.63-.49-.21-1.16l.94-1.48a.77.77 0 00-.56-1.18l-3.66-.43q-.41-.05-.73-.3-.38-.28-.18-.54.57-.68.61-.68 1.52-.09 1.39-1.55-.06-.64.58-.59c1.47.12 2.23 1.93.54 2.07q-.21.02-.18.23z"/><ellipse fill="#fff" transform="rotate(107.6 71 118.834)" rx=".92" ry=".48"/><path d="M292.69 87.57l-.25-.25q-.77-.77.31-.65l2.66.3q.71.08.06.38-1.91.88-2.94 3.11-.72 1.56-.61-.15.06-1.04.77-1.73.52-.5 0-1.01z"/><ellipse transform="rotate(48.9 225.092 751.759)" rx=".98" ry=".78"/><path d="M682.69 88.06q-.29-.17-.11-.54a.52.52 0 01.68-.26q1.11.47.57 1.58a.47.47 0 01-.74.14q-.41-.37-.4-.92zM680.4 89.61l-.17-.92q-.18-.95.69-.55c.83.39 1.64 1.97-.07 1.85q-.38-.02-.45-.38zM278.4 90.52q-.78-.24-1.21-.72a.32.31-.8 01.44-.45q2.17 1.86 4.92.58.2-.09.2.13v.41q0 .42-.4.32-1.4-.35-2.09.92-.54.99-1.01-.03l-.33-.71q-.16-.34-.52-.45z"/><path fill="#fff" d="M400.76 94.12c-1.47-1.67.1-3.71 1.84-4.04a1.17 1.16-88.7 011.35 1.42q-.49 2.04-2.21 2.83-.57.26-.98-.21z"/><path d="M519.08 90.94q-.12-.07-.19-.19-.09-.14.08-.2 1.65-.5 2.02.99.13.52-.38.37-.51-.14-.92-.55-.05-.05-.61-.42zM527.93 91.61l.58 2.19q.36 1.33-.67.41-1.07-.96-1.1-2.37-.02-.48.33-.79.72-.65 1.63-.56.44.04.05.25l-.58.31q-.34.18-.24.56z"/><ellipse transform="rotate(131.7 320.8 198.923)" rx="1.33" ry=".65"/><path d="M531.12 91.23c.36.13 1.5 1.08 1.57 1.44a.35.34 4.4 01-.46.39q-1-.38-1.51-1.37-.39-.74.4-.46zM200.16 93.54l-.98-.28q-.82-.24-.21-.85l.37-.37q.22-.23.41.03l.73 1.02a.29.29 0 01-.32.45zM289 92q.82.45-.51 3.41a.53.52-54 01-.87.14l-.93-1.01q-.44-.47.14-.77 1.35-.68 2.17-1.77z"/><ellipse transform="rotate(-37.4 343.363 -563.127)" rx="1.02" ry=".72"/><path d="M519.49 93.89l-.45.44q-.4.4-.89.14-.73-.38-.66-1.18.06-.69.74-.56l.96.19q1.06.2.3.97z"/><path fill="#fff" d="M224.48 94.45l-.8.48q-.58.36-.66-.32-.24-1.84 1.34-1.28 1.25.44.12 1.12z"/><path d="M295.66 95.28a.25.25 0 01-.35.13l-.71-.4q-.74-.42.02-.81l.87-.45q.94-.49.56.5l-.39 1.03z"/><path fill="#fff" d="M671.64 96.25h.8q.73 0 .54.71-.27 1.05-1.19 1.25a1.39 1.39 0 01-1.64-1q-.56-2.11 1.18-3.51 1.18-.95.56.44l-.66 1.48q-.28.63.41.63z"/><path d="M190.16 95.09q.54.37-.06.64l-.56.26a.37.37 0 01-.51-.43q.26-1.07 1.13-.47zM199.24 96.59q-.06.2-.38.15-.83-.15-.6-.96.26-.9 1.52-.41.63.24.09.64l-.46.34q-.13.09-.17.24zM290.25 97.2c-.56-2.87 4.13-1.63 3.97-.19q-.09.84-.72.26-1.31-1.21-2.55.13-.55.59-.7-.2zM136.95 97.25q.03-.17-.09-.33-.15-.2.07-.31 1.28-.62.94.66-3.57 13.55-.92-.02z"/><ellipse transform="rotate(-10.5 698.152 -1795.64)" rx=".88" ry=".64"/><path d="M381.02 97.11l.29-.3q.19-.18.38 0l.37.37q.57.57-.24.56-1.71-.04-2.57 1.51-.76 1.37-.59-.19.15-1.35 1.63-1.58.43-.07.73-.37z"/><ellipse transform="rotate(8.3 -365.925 4243.412)" rx=".93" ry=".53"/><path d="M759.85 97.28l.27-.28q.51-.5 1.01 0l.46.46q.94.94-.35.59-1.6-.45-2.51.87-.34.49-.68 0c-.42-.63.64-1.07 1.05-1.19q.43-.14.75-.45zM38.66 97.95l-.26-.26q-.18-.18.06-.28 2.71-1.11.58.57-.2.16-.38-.03zM266.78 104.05q.58-.31.85-.9.35-.76.93-.17 2.17 2.17 4.31.05 2.47-2.44.32.29-2.03 2.59-4.49.8-.57-.43-.71.27c-.16.77-2.29 4.67-3.31 3.42q-.31-.38.16-.52 1.82-.57 1.25-2.44-.15-.53-.65-.77l-.5-.24q-.86-.41 0-.82 1.67-.8.97-2.33-.2-.45.23-.71.88-.54 1.06-1.49.13-.71-.56-.49l-.86.27q-.29.09-.51-.13l-.18-.18q-.12-.12-.01-.25.92-1.11 2.47-.65.61.18.44.79-.22.8.54 1.01.48.13.79-.26l1.01-1.29q.47-.59.56.16c.25 2.11-3.73 3.56-4.56 6.2q-.23.74.45.38zM281.91 100.16q.96-2.91 2.7-3.04 4.83-.36.09.78-2.47.59-1.47 2.66.21.44-.28.44h-.44a.64.63-80.7 01-.6-.84z"/><ellipse transform="rotate(111.4 342.234 305.946)" rx="1.49" ry=".53"/><path d="M162.08 97.99q.95-.15.83 1.14-.1 1.05-.99.48-.91-.57-.63-1.73.06-.23.27-.11l.3.18q.1.06.22.04z"/><ellipse transform="rotate(127.4 97.25 109.518)" rx="1.37" ry=".35"/><path d="M333.76 99.01q-.42-.25-.32-.8c.07-.38.85-.68 1.2-.21q.2.28.07.61-.33.77-.95.4zM372.26 98.2l.15-.25q.13-.22.19.03.73 3.52-.38.78-.12-.29.04-.56zM712.54 98.92a.33.33 0 01-.03-.53l.6-.48q.97-.76.67.44-.3 1.18-1.24.57z"/><ellipse transform="rotate(8.9 -434.305 2634.4)" rx="1.39" ry=".91"/><path d="M513.25 100.25c-.97.21-1.19-.58-.84-1.36a.33.33 0 01.62.08l.22 1.28z"/><ellipse transform="rotate(-10.5 616.786 -720.232)" rx=".88" ry=".64"/><ellipse transform="rotate(131.8 167.928 135.555)" rx="1.19" ry=".39"/><path fill="#fff" d="M671.61 104.56q-.79-.14-1.17.05-.22.12-.23-.13l-.11-4.12q-.02-.63.56-.41c1.59.58 7.6 5.11 3.53 6.53q-.56.2-.91-.28l-.83-1.12q-.32-.42-.84-.52z"/><path d="M761.02 100.26q-.38.78-1.3 1.11-.62.23-.27-.33.5-.81 1.24-1.12.61-.25.33.34zM185 101.9c-.48-1.06 2.07-1.53 3.14-1.76q.31-.07.52.15l.23.23q.29.29-.09.44l-3.09 1.23q-.49.2-.71-.29zM338.55 100.27q.2-.16.47-.26.89-.3.47.54-.67 1.38-2.12 1.99-1.75.75-.31-.49.69-.59 1.16-1.39.13-.23.33-.39zM276.06 100.97a.36.35 42.7 01.03.69l-2.07.6q-.7.2-.87-.51l-.18-.81q-.14-.62.49-.49l2.6.52zM683.23 101.68l4.26-1.31q.49-.15.52.35c.13 1.74-3.31 1.77-4.52 2a.54.54 0 01-.26-1.04zM178.47 100.75a.45.45 0 01.84.29l-.45 2.16q-.13.6-.74.55l-.49-.04q-.59-.04-.33-.57l1.17-2.39zM256.71 101.04l.5-.27q.72-.38.28.31l-.65 1.04a.34.34 0 01-.62-.2q.01-.24.07-.4.12-.32.42-.48zM244.82 101.22a.2.2 0 01.26.13l.19.59q.19.63-.46.58l-.81-.07a.46.45 36.7 01-.13-.88l.95-.35zM270.75 102.25q-.34 0-.43-.55-.07-.38.3-.48.68-.18 1.08.61.22.42-.95.42zM370.3 102.25h-.32q-.27 0-.24-.27l.05-.33q.08-.65.62-.27 1.4 1 1.19 2.57-.12.95-.84.32-.82-.72-.25-1.68.2-.35-.21-.34zM374.17 109.6q-.88.5-1.19 1.47-.17.53-.65.24l-.33-.19q-.61-.36-.1-.85l2.82-2.7q.52-.5-.11-.84-.79-.43-1.51.22-.49.45-.83-.12c-.28-.49 1.5-1.18 1.23-2.78q-.09-.49.27-.84l1.8-1.73q.4-.39.79 0l.23.23q.54.55-.2.76c-3.27.96-.71 5.77-.3 7.8q1.17 5.8-.61.27-.16-.49-.45-.81-.38-.41-.86-.13zM606.69 102.61l.47-1.19a.47.47 0 01.75-.17c.91.8-.02 2.05-1.07 1.68a.24.24 0 01-.15-.32zM751.26 103.74a.79.79 0 01-1.56.21l-.43-2.14q-.07-.35.25-.23 1.63.59 1.74 2.16zM764.66 107.31l-1.69.79q-.37.18-.43-.23l-.05-.35q-.04-.29.23-.39 2.42-.9 1.71-3.61-.2-.78.55-.51l1.07.39q.66.24.87-.44l.38-1.29q.11-.38.51-.43.41-.05.74.49a1.18 1.11-64.4 01.17.53q.16 2.5-2.35 2.18-.91-.12-.49.7l1.21 2.34q.18.34-.06.65c-.68.86-1.37.06-1.68-.58q-.23-.46-.69-.24zM384.67 106.16l.33-2.57q.06-.47.53-.43 2.03.19 3.32-1.52 1.39-1.84.92.41-.46 2.19-2.73 2.59-.67.12-.3.7l1.28 2.03q.26.41.01.82l-.29.47q-.49.81-.97 0-1.14-1.85-2.9-.52-4.48 3.39-.89-.42.54-.58 1.29-.98.35-.19.4-.58zM753.44 109.52q-.86.44-.73 1.5.1.9-.71.49l-1.08-.56q-.58-.3-.07-.71l3.06-2.42q.34-.27.15-.67l-.21-.44q-.31-.66-.91-.23-.44.33-.93.5-4.04 1.42-.33-.56l.6-.32q.44-.24.44-.74 0-2.73 2.42-3.95.51-.25.6.31.08.45-.21.56c-3.33 1.22-.99 5.35-.23 7.48q.14.4-.06.77l-.25.48q-.44.82-.66-.09l-.26-1.12q-.13-.54-.63-.28zM241.55 104.29q-.46 1.29-1.25 2.33-.5.65-.33-.15l.35-1.62q.1-.5-.32-.79l-1.17-.79q-.43-.29-.07-.66.15-.14.29-.28.47-.47.59.18l.16.82q.12.6.73.54 1.99-.2 3.94.47 4.27 1.48.02.7-1.17-.21-2.03-.98-.63-.56-.91.23zM188.94 103.47l-1.83 1.94q-.28.29-.57 0l-.22-.22q-.3-.29-.03-.61 1.24-1.46 3.16-1.73.34-.05.12.21-.11.14-.31.21-.18.06-.32.2zM159.24 103.4l.86.86q.61.62-.26.54-.94-.07-1.15-1.1-.22-1.07.55-.3zM260.86 104.27q.67-.08 1.3.03 1.12.19.14.77l-1.73 1.01q-.62.36-.8-.33l-.54-2.01q-.19-.72.4-.28.22.17.37.4.3.48.86.41z"/><ellipse transform="rotate(-16.9 493.854 -896.217)" rx=".86" ry=".63"/><path d="M275.31 106.56l.25-.25q.2-.2.45-.06.82.45 1.16 1.38.27.77-.55.81l-1.43.06q-.67.03-.48-.62.09-.3.22-.57.36-.73.38-.75zM269.16 107.96l-.27.28q-.15.14-.08.34l.67 1.95q.18.52-.36.59c-3.47.46.61-6.18 1.74-3.78q.38.8-.5.68l-.97-.13q-.13-.02-.23.07zM251.52 110.82c.65-.63 2.22-3.6 2.6-3.75q.52-.19.34.33-.78 2.32-2.55 3.88-.22.19-.33-.07-.06-.13-.1-.26-.02-.08.04-.13z"/><ellipse transform="rotate(34.9 -34.936 489.199)" rx=".71" ry=".53"/><path d="M77.62 110.28a.1.09 8.3 01.05.06c.59 1.26-1.62.46-1.91.18q-.64-.63.26-.6.87.02 1.6.36zM162.81 112.19q.31-.06.54.15.4.37-.13.47-1.31.25-2.36-.57-.92-.71.25-.65.95.04 1.7.6z"/><path fill="#fdd203" d="M309.54 157l-2.62 1.82q-.43.3-.06.67l.19.19q.27.26.59.07l2.16-1.31q.59-.36.93.25l4.22 7.57q.26.47.67.8l.84.69q2.16 6.96 3.2 14.19a.49.48 80.8 01-.39.55q-.58.11-1.02-.28l-1.63-1.01q-.45-.28-.3.24.28.98 1.68 1.27.7 1.06.88 2.38.06.49-.24.88-.22.29.01.62.19.27.2.61.17 7.77-2.87 14.93-.18.42-.59.62l-3.14 1.54h-1.5q-1.22-1.61-2.55-1.24-.7.19-.24.75l.54.66q-.86.79-1.83.89-.76.07-.46-.63l2.57-6q.21-.49-.23-.79l-3.55-2.39q-1.79-.21-2.25 1.42 0 .63.4 1.08.27.31-.11.46l-2.54 1.04q-1.25-.23-2 1l-1.21-.04c6.66-12.77 5.39-27.82-5.79-37.76q-.43-.39-.52-.95-.18-1.08-1.16-1.06-.51.02-.96-.23c-11.16-6.05-25.58-3.42-33.08 7.09-6.71 9.41-6.47 22.32-1.49 32.41l-.7 2.31q-.11.39-.51.39c-.87-.01-6.77.57-7.12 1.7q-.11.35-.47.35h-5.7q-.47 0-.8-.33l-.58-.58q-.44-.45-.78.09l-.38.61q-3.15-5.48-4.14-11.7c-3.44-21.74 7.78-43.88 29.89-49.55v.95q-.01.57.55.46 1.06-.22 1.16-1.45.21-.47.71-.59 13.77-3.26 26.88 1.58.48.18.63.66l.14.44q.13.4.53.28l1.2-.38q.54-.17.87.29.53.74 1.4.95.46.11.66.53.4.82 1.15.88.54.04 1 .31 5.73 3.41 9.66 8.8zm-25.13-13.73a.44.43 17 00.38.71l.64-.07a.5.49 66.6 00.32-.82q-.6-.68-1.34.18zm-17.22 1.67c-.59.45.27 1.01.87.69a.49.49 0 00.15-.74l-.3-.36q-.35-.44-.61.06-.08.16-.11.35zm2.575 4.847a1.55.47 10.3 00-1.441-.74 1.55.47 10.3 00-1.609.186 1.55.47 10.3 001.441.74 1.55.47 10.3 001.609-.186zm31.825 4.573l1.11-.42q1.22-.47-.01-.9l-1.72-.6q-.28-.09-.58-.12-.82-.06-1.05.2-.31.35.04.66.95.84.55 2.01-.15.45-.5.78-1.67 1.51-2.6 3.56-.13.3.18.39.19.06.36.12.5.19.62-.34.42-1.93 2.23-2.48.6-.18.7-.81l.22-1.49q.06-.41.45-.56zm-14.63-1.88l-1.77.84a.49.49 0 00.17.94q1.54.13 2.08-1.34.3-.8-.48-.44zm-5.54.24l-2.22 1.2q-1.43.78.2.84 1.73.06 2.67-1.32a.5.5 0 00-.65-.72zm16.64 1.22q-.6-.17-.97.36-.2.3.08.51.76.58 1.49-.35a.37.37 0 00-.01-.45q-.28-.34-.59-.07zm4.803 3.022a.99.63 76.4 00.38-1.11.99.63 76.4 00-.846-.814.99.63 76.4 00-.38 1.11.99.63 76.4 00.846.814zm.748 4.03a.87.49 82.7 00.375-.924.87.49 82.7 00-.596-.8.87.49 82.7 00-.376.924.87.49 82.7 00.596.8zm4.659.518c-.83-.13-3.02.49-3.71.92q-1.01.62.18.73 2.08.2 3.64-1.28.33-.31-.11-.37zm-4.49 4.08l-.63.63q-1.01 1.01.4.81 1.35-.19 2.24-1.19a.46.46 0 00-.23-.76l-2.05-.53q-.72-.18-.55-.89.17-.71-.06-1.35-.33-.93-.96-.18l-1.82 2.17q-.59.7.33.7h3.09q.84 0 .24.59zm6.89 3.06q.98.41 1.15-.75a.53.53 0 00-.58-.6l-.98.1q-.51.05-.72.52l-1.15 2.49q-.3.65.41.6l.37-.03q.67-.05.76-.72l.17-1.28q.07-.53.57-.33zm1.52 3.79c-.52.66 0 1.64.85 1.28q.54-.23.21-.73l-.57-.86q-.21-.31-.4 0-.1.15-.09.31zm-10.24.08a.42.41 77.5 00-.4.63l.45.76q.5.81.73-.11.3-1.15-.78-1.28zm3.25 2.47q-.2-.01-.39.07-1.3.61.22.35 1.12-.19 2.16-.64.37-.16.17-.51c-.42-.74-1.13.1-1.43.44q-.29.33-.73.29zm6.24 2.7q-.76.89-.23 2.07a.46.46 0 00.88-.2l-.07-2.11q-.02-.59-.42-.16-.18.19-.16.4zm-5.22 7.35q.15.47.75-.17a.18.18 0 00.06-.17l-.13-.65a.41.41 0 00-.72-.17q-.31.42-.12.81.15.29.16.35zm1.72 2.52q.86.29 1.49-.66.62-.92-.47-.71-1.36.25-2.61.94-.88.49.13.55.72.05 1.46-.12zm-.35 5.98l-.27.56q-.25.52.32.42l1.94-.36q.76-.14.35-.8-.58-.91-.43-2 .08-.56-.37-.88-1.05-.75-2.31-.41-.82.22-.15.74.95.73 1.07 1.89.04.44-.15.84zm3.85 7.82l.75-1.19q.14-.22-.04-.4l-.27-.27q-.37-.36-.63.08-.81 1.36-2.35 1.78-1.65.44.03.74l2.51.43q.16.03.11-.12-.08-.25-.17-.49-.1-.3.06-.56zM488.21 199.75q-1.84-.09-2.95 1.49-.45.66-.86-.02-.43-.71-1.31-.75-.51-.02-.91.3l-1.16.91q-.4.31-.89.2-4.78-1.13-7.94-4.64-.22-.24-.54-.24h-.36l-.02-55.01q0-.57.57-.52c5.53.46 10.67-.27 16.2 1q.46.11.46.58l-.29 56.7zm-2.66-37.09q.93-.86-.03-1.47-.5-.32-.89.13c-.31.37-.21 1.22.36 1.45q.31.13.56-.11zM345.04 183.5q-.65 2.06.17 4l.25 22.75q-1.93-2.05-4.46-1.34-.4.12-.65-.22l-1.39-1.87q-.91-1.23-.91.3.01 4.1-3.12 6.55-.59-1.56-1.68-1.96.74-2.13-.14-4.35-.19-.5.11-.94 2.32-3.43 6.54-3.91.4-.04.68-.33l.74-.73q.5-.5-.19-.35-6.43 1.37-10.25 6.81-.85-13.85-.38-27.29 0-.24.16-.41l.23-.25q1.03.47 1.71 1.44.11.15.24.02l.23-.22q.32-.32.01-.65-.8-.83-1.94-1.01c-1.72-2.08-.76-28.25-.79-32.79q0-.73.68-.45.29.12.59.04 1.11-.29.05-.74-1.82-.77-1.22-2.85a1.28 1.27-59.2 012.13-.54q19.31 19.66 37.83 38.27 4.04 4.06 8.82 11.13.19.28.19-.06l-.39-48.52q-.01-.58.58-.58l13.79.07q.63.01.63.64.12 41.49-.41 82.89 0 .73-.18 1.14a.68.67-55.6 01-1.1.21c-10.26-10.49-20.51-20.95-31.01-31.18q-8.86-8.64-16.32-18.56-.42-.55-.35.14l.52 5.7zm-.65-20.98q.97.23.37-.57l-1.11-1.48q-.6-.8-.65.2-.07 1.51 1.39 1.85zm-7.47 2.32q.62.27 1.35.16 2.53-.38-.09-.95-.32-.07-.68-.05-2.24.11-.58.84zm9.4 3.35q-.7.8.35 1.23.89.37.44-.48l-.38-.71q-.17-.32-.41-.04zm-10.96 5.29c-.47-.02-3.63.25-3.11 1.3q.25.5.7.16 1.32-.98 2.83-.48.55.18.92-.26c.89-1.1 1.15-5.43-1.06-4.96q-.53.11-.42.65l.63 3.01q.13.61-.49.58zm4.69-3.1q-1.63 1.89-1.11 4.33.33 1.53.74.02l1.09-3.97a.42.42 0 00-.72-.38zm19.64 8.88c-.15-1.08-2.16-2.35-3.16-2.51q-.51-.09-.52.42-.01.15-.01.29-.01.46.45.49 1.8.1 2.81 1.49.56.78.43-.18zm-4.42 2.91l1.04-1.43q.8-1.1-.37-.4-1.25.74-1.71 2.08-.16.44.02.87l1.17 2.91q.13.32.31.03l.92-1.51q.32-.53-.16-.9l-1.1-.83q-.45-.35-.12-.82zm4.07.64q-.97 1.16-1.36 2.6a.38.37 81.4 00.56.42q1.53-.99 1.58-2.73.04-1.27-.78-.29zm-23.89 5.84q.48-1.74-1.27-2.62a.67.67 0 00-.95.75c.28 1.15 3.1 7.18 4.51 6.47q.35-.18.06-.45-1.52-1.39-2.29-3.22-.19-.46-.06-.93zm24.2 1.05c.46-.49.42-1.18-.06-1.67a.57.57 0 00-.94.16q-.46 1.03.53 1.59.27.15.47-.08zm-18.13.29q-.03-.16-.02-.31.01-.54-.53-.45c-1.15.18-1.5 1.42-1.04 2.43a.6.59-44.8 001.08 0l.39-.84q.19-.4.12-.83zm1.55 5q.39-.01.23-.36-.31-.73-1-1.11-.8-.43-.59.45.24 1.05 1.36 1.02zm-3.78-1.11q-.32.91-.05 1.84.19.67.49.04.47-.96.1-1.9-.29-.71-.54.02zm39.854 18.087a.8.66 65.3 00.266-1.003.8.66 65.3 00-.934-.45.8.66 65.3 00-.266 1.002.8.66 65.3 00.934.45zM505.5 211.71l-.25-5.21q-.03-.58.44-.91l4.12-2.9q.76-.54-.16-.37c-4.04.77-4.68 5-6.9 5.47-.2-2.89-1.23-27.22 0-27.83l1.75 1.33q.98.75.5-.39-.57-1.32-2.21-1.65l-.31-.5q-.23-.36-.23-.79v-31.22q0-.7.66-.45.34.13.66.05.82-.22.05-.58-1.99-.94-1.25-3.3a1.14 1.13 31.4 011.89-.45q19.7 20.09 39.26 39.73 2.58 2.59 7.65 10.1.13.2.13-.04l-.43-48.62q0-.7.7-.71l12.98-.02q1.42 0 1.42 1.41.18 40.62-.3 82.23c-.01.52-.25.98-.66 1.25a.72.72 0 01-.92-.09c-15.87-15.99-33.42-31.86-47.17-49.62q-.44-.58-.4.15c.19 3.22.81 6.59.85 9.56q.26 19.34.09 38.68-.01.48-.49.48H503.1q-.61 0-.6-.62.08-5.48-.23-10.74c-.15-2.44.65-2.27 2.58-2.04q.66.08 1.26-.21.81-.4-.61-1.18zm10.43-49.4q.26.29.65.18.66-.19.22-.71l-.93-1.08q-.47-.54-.79.1c-.21.41-.14.87.28 1.14q.56.36.57.37zm-4.87-1.14q-.47.6-.06 1.16.32.43.59-.03.4-.68-.05-1.15a.33.32 41.7 00-.48.02zm-2.08 3.69q.5.37 1.22-.06.51-.31.04-.68-.4-.32-1.19.05-.62.28-.07.69zm9.21 4.46l.1.3q.16.46.23-.02.51-3.04-.33-.3v.02zm-10.93 4.58l-.22-.31q-.34-.46-.88-.28-.97.33-1.73 1.03t.26.51l3.64-.68q.51-.09.79-.53c.88-1.33.52-4.08-1.31-4.38q-.57-.09-.47.48l.62 3.87q.25 1.57-.7.29zm5.07-3.85q-1.82 2.01-1.38 4.59.18 1.11.57.06l1.54-4.2a.44.43 76.4 00-.73-.45zm19.59 9.11c-.35-1.23-2.35-1.94-3.46-2.29q-.37-.11-.42.27l-.04.26q-.01.12.1.18l3.62 1.74q.28.13.2-.16zM508 178.13l-.46.45q-.99.99.37.62 1.26-.34.55-1.07-.23-.23-.46 0zm18.91 3.34q-1.35 1.95.49 3.94.39.43.79.02l.46-.46q.43-.43-.06-.77-1.15-.82-.92-2.43.27-1.79-.76-.3zm3.474 4.007a1.5.5 119.4 001.172-1.061 1.5.5 119.4 00.3-1.553 1.5.5 119.4 00-1.172 1.061 1.5.5 119.4 00-.3 1.553zm7.426-1.287q-.6-.38-1.36-.08a.38.38 0 00.15.74l1.61-.05q.58-.01.18-.43-.23-.23-.58-.18zm-29.73 7.49q.21.51.6.89 1.38 1.37.58-.33-.64-1.36-2.06-2-.65-.28-.18-.82l.64-.74q.35-.41.02-.84l-1.1-1.43q-.37-.49-.91-.19c-.65.35-.56 1.15.06 1.61q.36.27.3.73-.25 1.9 1.39 2.48.48.17.66.64zm23.48-2.62q.32-.23-.12-.91a.33.32 31.6 00-.6.14l-.08.82a.35.34-80.4 00.26.37q.54.13.54-.42zm-19.199 2.685a1.28.6 103.5 00.882-1.105 1.28.6 103.5 00-.284-1.385 1.28.6 103.5 00-.882 1.105 1.28.6 103.5 00.284 1.385zm-.211 8.975l-.62 1.42q-.35.82.47.48 1.15-.46.98-1.78a.44.43-36.7 00-.83-.12zm0 10.237a1.27.82 124.5 001.396-.582 1.27.82 124.5 00.043-1.512 1.27.82 124.5 00-1.395.583 1.27.82 124.5 00-.043 1.51zm-2.79-1.017l-.41 1.38q-.3 1.04.66.54 1.52-.78.17-2.03-.3-.28-.42.11zm42.14 1.31v-.62q0-.57-.46-.24l-1.13.81a.44.44 0 00.25.8h.59q.75 0 .75-.75zm-47.73 3.13q-.63 1.39.89 1.69a.55.55 0 00.52-.9l-.76-.89q-.4-.45-.65.1zM596.68 209.63q-1.82-2.73-1.17-7.14.26-1.75-1.23-3.32-.31-.33-.07-.72l.85-1.35q.34-.55-.28-.71-.71-.19-.53-.81.09-.35.44-.46 1.69-.49.96-2.2a.46.46 0 00-.87.04c-.79 2.49-2.48 1.35-4.04 1.51q-4.02.41-8.39 2.57a.59.59 0 01-.85-.53v-6.01q0-.36-.2-.06-.07.11-.19.24-.32.36-.53-.07l-.29-.61-.02-47.27q0-.51.5-.51l52.48.03q.5 0 .5.5v11.35q0 .61-.61.63l-34.96.78q-.67.02-.67.69l-.03 17.69q-.01.42.41.42l31.16.21q.52 0 .51.52l-.09 13.2q0 .45-.46.46l-30.82.37q-.67.01-.67.67c-.02 1.44-.58 2.78-.55 4.08q.18 7.82-.29 15.81zm.28-62.73l-.85.41q-.97.48.1.61c.97.12 3.66-1.28 2.44-2.38q-.45-.4-.73.13l-.33.61q-.22.41-.63.62zm19.29-.06q.48-1.34-1.11-.62-.47.2-.06.51l.45.32q.51.38.72-.21zm-4.68.43a.33.33 0 00.15.57l.81.16a.32.31 80.3 00.33-.47q-.53-.92-1.29-.26zm11.27 1.05l-.08.71a.54.54 0 00.91.44q.74-.73-.02-1.46a.49.48-65.6 00-.81.31zm-20.829 2.902a1.02.89 17.8 00-.699-1.16 1.02.89 17.8 00-1.243.536 1.02.89 17.8 00.699 1.16 1.02.89 17.8 001.243-.536zm-3.571 28.968q-.24.15-.18.5a.44.44 0 00.66.3q.94-.55.82-1.75-.04-.46-.42-.18-.3.23-.47.53-.31.53-.41.6zm3.16.8q-.35.31.04.57l.67.44a.44.43-67 00.66-.27c.24-1-.77-1.28-1.37-.74zM424.74 212.66q-.76-1.41-.79-2.77-.01-.42.15-.82.84-2.15.21-4.34a.46.45 61.5 00-.73-.22l-2.26 1.96q-.48.42-.84-.11c-1.4-2.08-3.69-.22-4.1 1.59q-.11.49-.49.8-2.41 2-5.47 2.4-.47.06-.43-.41.15-1.77-.21-3.49-.2-.92-.28.02-.29 3.64-.45 7.23c-.17 3.7 1.87 5.92-.76 9.75l-.02-81.37q0-.4.4-.41l15.63-.01q.46 0 .46.45l-.02 69.75zm-1.83-31.1c-1.52.23-1.22 2.12-.6 3q.21.29.29-.05l.64-2.6q.1-.42-.33-.35z"/><path fill="#fbb102" d="M284.41 143.27q.74-.86 1.34-.18a.5.49 66.6 01-.32.82l-.64.07a.44.43 17 01-.38-.71zM263 143.29l1.71-.04q-.1 1.23-1.16 1.45-.56.11-.55-.46v-.95zM267.19 144.94q.03-.19.11-.35.26-.5.61-.06l.3.36a.49.49 0 01-.15.74c-.6.32-1.46-.24-.87-.69zM597.59 146.28l.33-.61q.28-.53.73-.13c1.22 1.1-1.47 2.5-2.44 2.38q-1.07-.13-.1-.61l.85-.41q.41-.21.63-.62zM615.53 147.05l-.45-.32q-.41-.31.06-.51 1.59-.72 1.11.62-.21.59-.72.21zM611.57 147.27q.76-.66 1.29.26a.32.31 80.3 01-.33.47l-.81-.16a.33.33 0 01-.15-.57zM622.84 148.32a.49.48-65.6 01.81-.31q.76.73.02 1.46a.54.54 0 01-.91-.44l.08-.71z"/><ellipse fill="#fbb102" transform="rotate(10.3 -695.318 1562.872)" rx="1.55" ry=".47"/><ellipse fill="#fbb102" transform="rotate(17.8 -181.326 1994.536)" rx="1.02" ry=".89"/><path fill="#fbb102" d="M301.14 154.92l-.22 1.49q-.1.63-.7.81-1.81.55-2.23 2.48-.12.53-.62.34-.17-.06-.36-.12-.31-.09-.18-.39.93-2.05 2.6-3.56.35-.33.5-.78.4-1.17-.55-2.01-.35-.31-.04-.66.23-.26 1.05-.2.3.03.58.12l1.72.6q1.23.43.01.9l-1.11.42q-.39.15-.45.56zM287.44 152.92q-.54 1.47-2.08 1.34a.49.49 0 01-.17-.94l1.77-.84q.78-.36.48.44zM281.42 152.72a.5.5 0 01.65.72q-.94 1.38-2.67 1.32-1.63-.06-.2-.84l2.22-1.2z"/><path fill="#fbb102" d="M298.06 153.94q.31-.27.59.07a.37.37 0 01.01.45q-.73.93-1.49.35-.28-.21-.08-.51.37-.53.97-.36z"/><ellipse fill="#fbb102" transform="rotate(76.4 52.195 270.287)" rx=".99" ry=".63"/><path fill="#fbb102" d="M309.54 157q4.97 4.37 6.92 10.75l-.84-.69q-.41-.33-.67-.8l-4.22-7.57q-.34-.61-.93-.25l-2.16 1.31q-.32.19-.59-.07l-.19-.19q-.37-.37.06-.67l2.62-1.82z"/><path d="M297.29 200.5c-5.11 6.59-8.4 9.75-16.55 11.07q-17.34 2.8-26.45-11.57c-4.98-10.09-5.22-23 1.49-32.41 7.5-10.51 21.92-13.14 33.08-7.09q.45.25.96.23.98-.02 1.16 1.06.09.56.52.95c11.18 9.94 12.45 24.99 5.79 37.76z"/><ellipse fill="#fbb102" transform="rotate(82.7 60.774 252.495)" rx=".87" ry=".49"/><path fill="#fbb102" d="M344.39 162.52q-1.46-.34-1.39-1.85.05-1 .65-.2l1.11 1.48q.6.8-.37.57zM515.36 161.94c-.42-.27-.49-.73-.28-1.14q.32-.64.79-.1l.93 1.08q.44.52-.22.71-.39.11-.65-.18-.01-.01-.57-.37zM485.55 162.66q-.25.24-.56.11c-.57-.23-.67-1.08-.36-1.45q.39-.45.89-.13.96.61.03 1.47zM511.06 161.17a.33.32 41.7 01.48-.02q.45.47.05 1.15-.27.46-.59.03-.41-.56.06-1.16zM304.56 162.43c.69-.43 2.88-1.05 3.71-.92q.44.06.11.37-1.56 1.48-3.64 1.28-1.19-.11-.18-.73z"/><path fill="#fbb102" d="M303.54 165h-3.09q-.92 0-.33-.7l1.82-2.17q.63-.75.96.18.23.64.06 1.35-.17.71.55.89l2.05.53a.46.46 0 01.23.76q-.89 1-2.24 1.19-1.41.2-.4-.81l.63-.63q.6-.59-.24-.59zM337.5 164q.36-.02.68.05 2.62.57.09.95-.73.11-1.35-.16-1.66-.73.58-.84zM509.05 164.17q.79-.37 1.19-.05.47.37-.04.68-.72.43-1.22.06-.55-.41.07-.69zM310.1 168.98l-.17 1.28q-.09.67-.76.72l-.37.03q-.71.05-.41-.6l1.15-2.49q.21-.47.72-.52l.98-.1a.53.53 0 01.58.6q-.17 1.16-1.15.75-.5-.2-.57.33zM346.32 168.19q.24-.28.41.04l.38.71q.45.85-.44.48-1.05-.43-.35-1.23zM518.19 169.3q.84-2.74.33.3-.07.48-.23.02l-.1-.3v-.02zM335.85 172.9l-.63-3.01q-.11-.54.42-.65c2.21-.47 1.95 3.86 1.06 4.96q-.37.44-.92.26-1.51-.5-2.83.48-.45.34-.7-.16c-.52-1.05 2.64-1.32 3.11-1.3q.62.03.49-.58zM507.96 173.61l-.62-3.87q-.1-.57.47-.48c1.83.3 2.19 3.05 1.31 4.38q-.28.44-.79.53l-3.64.68q-1.02.19-.26-.51t1.73-1.03q.54-.18.88.28l.22.31q.95 1.28.7-.29zM512.33 170.05a.44.43 76.4 01.73.45l-1.54 4.2q-.39 1.05-.57-.06-.44-2.58 1.38-4.59zM340.05 170.38a.42.42 0 01.72.38l-1.09 3.97q-.41 1.51-.74-.02-.52-2.44 1.11-4.33zM312.19 172.44q-.01-.16.09-.31.19-.31.4 0l.57.86q.33.5-.21.73c-.85.36-1.37-.62-.85-1.28zM301.95 172.52q1.08.13.78 1.28-.23.92-.73.11l-.45-.76a.42.41 77.5 01.4-.63zM305.93 174.7c.3-.34 1.01-1.18 1.43-.44q.2.35-.17.51-1.04.45-2.16.64-1.52.26-.22-.35.19-.08.39-.07.44.04.73-.29zM356.53 176.75c1 .16 3.01 1.43 3.16 2.51q.13.96-.43.18-1.01-1.39-2.81-1.49-.46-.03-.45-.49 0-.14.01-.29.01-.51.52-.42zM528.46 176.87c1.11.35 3.11 1.06 3.46 2.29q.08.29-.2.16l-3.62-1.74q-.11-.06-.1-.18l.04-.26q.05-.38.42-.27zM311.44 177.69q-.02-.21.16-.4.4-.43.42.16l.07 2.11a.46.46 0 01-.88.2q-.53-1.18.23-2.07zM508.46 178.13q.71.73-.55 1.07-1.36.37-.37-.62l.46-.45q.23-.23.46 0zM598.85 179.59q.17-.3.47-.53.38-.28.42.18.12 1.2-.82 1.75a.44.44 0 01-.66-.3q-.06-.35.18-.5.1-.07.41-.6zM502.79 179.25q1.64.33 2.21 1.65.48 1.14-.5.39l-1.75-1.33.04-.71zM331 179.54q1.14.18 1.94 1.01.31.33-.01.65l-.23.22q-.13.13-.24-.02-.68-.97-1.71-1.44l.25-.42zM355.39 182.99l1.1.83q.48.37.16.9l-.92 1.51q-.18.29-.31-.03l-1.17-2.91q-.18-.43-.02-.87.46-1.34 1.71-2.08 1.17-.7.37.4l-1.04 1.43q-.33.47.12.82zM527.67 181.77q-.23 1.61.92 2.43.49.34.06.77l-.46.46q-.4.41-.79-.02-1.84-1.99-.49-3.94 1.03-1.49.76.3zM318.25 182.21l-.25.5q-1.4-.29-1.68-1.27-.15-.52.3-.24l1.63 1.01zM601.6 180.99c.6-.54 1.61-.26 1.37.74a.44.43-67 01-.66.27l-.67-.44q-.39-.26-.04-.57z"/><path d="M422.31 184.56c-.62-.88-.92-2.77.6-3q.43-.07.33.35l-.64 2.6q-.08.34-.29.05z"/><path fill="#fbb102" d="M359.34 182.81q.82-.98.78.29-.05 1.74-1.58 2.73a.38.37 81.4 01-.56-.42q.39-1.44 1.36-2.6z"/><ellipse fill="#fbb102" transform="rotate(119.4 211.75 247.266)" rx="1.5" ry=".5"/><path fill="#fbb102" d="M345.04 183.5l.17 4q-.82-1.94-.17-4zM306.06 184.69q-.19-.39.12-.81a.41.41 0 01.72.17l.13.65a.18.18 0 01-.06.17q-.6.64-.75.17-.01-.06-.16-.35zM537.81 184.19q.35-.05.58.18.4.42-.18.43l-1.61.05a.38.38 0 01-.15-.74q.76-.3 1.36.08zM335.51 189.58q.77 1.83 2.29 3.22.29.27-.06.45c-1.41.71-4.23-5.32-4.51-6.47a.67.67 0 01.95-.75q1.75.88 1.27 2.62-.13.47.06.93zM507.42 191.04q-1.64-.58-1.39-2.48.06-.46-.3-.73c-.62-.46-.71-1.26-.06-1.61q.54-.3.91.19l1.1 1.43q.33.43-.02.84l-.64.74q-.47.54.18.82 1.42.64 2.06 2 .8 1.7-.58.33-.39-.38-.6-.89-.18-.47-.66-.64zM307.94 187.56q-.74.17-1.46.12-1.01-.06-.13-.55 1.25-.69 2.61-.94 1.09-.21.47.71-.63.95-1.49.66zM359.59 188.03c.48.49.52 1.18.06 1.67q-.2.23-.47.08-.99-.56-.53-1.59a.57.57 0 01.94-.16zM531.56 189.06q0 .55-.54.42a.35.34-80.4 01-.26-.37l.08-.82a.33.32 31.6 01.6-.14q.44.68.12.91zM341.4 190.82l-.39.84a.6.59-44.8 01-1.08 0c-.46-1.01-.11-2.25 1.04-2.43q.54-.09.53.45-.01.15.02.31.07.43-.12.83z"/><ellipse fill="#fbb102" transform="rotate(103.5 181.241 297.324)" rx="1.28" ry=".6"/><path fill="#fbb102" d="M307.74 192.7q-.12-1.16-1.07-1.89-.67-.52.15-.74 1.26-.34 2.31.41.45.32.37.88-.15 1.09.43 2 .41.66-.35.8l-1.94.36q-.57.1-.32-.42l.27-.56q.19-.4.15-.84zM580.29 190l.29.61q.21.43.53.07.12-.13.19-.24.2-.3.2.06v6.01a.59.59 0 00.85.53q4.37-2.16 8.39-2.57c1.56-.16 3.25.98 4.04-1.51a.46.46 0 01.87-.04q.73 1.71-.96 2.2-.35.11-.44.46-.18.62.53.81.62.16.28.71l-.85 1.35q-.24.39.07.72 1.49 1.57 1.23 3.32-.65 4.41 1.17 7.14l.11 2.89q.02.7.72.7l37.45.05q.4 0 .45.4.71 5.98-1.18 11.65-.14.43.31.43h.4q.52 0 .28.47-.63 1.22-1.72 1.26-12.26.53-31.96.18-.45 0-.84-.21-.51-.28-1.14.04-.49.26-1.05.26h-17.74q-.48 0-.48-.48V190zM343.07 194.99q-1.12.03-1.36-1.02-.21-.88.59-.45.69.38 1 1.11.16.35-.23.36zM339.29 193.88q.25-.73.54-.02.37.94-.1 1.9-.3.63-.49-.04-.27-.93.05-1.84z"/><path d="M305 195.54q-.82 1.47-2.25 1.42.46-1.63 2.25-1.42z"/><path fill="#fbb102" d="M305 195.54l3.55 2.39q.44.3.23.79l-2.57 6q-.3.7.46.63.97-.1 1.83-.89.56.87 1.44 1.19.62.23.7-.44l.11-.92h1.5l2.09-.01q.95-.01.4.76l-.86 1.24q-.4.57-.82.01l-.29-.39q-.22-.3-.48-.04l-1.56 1.5q-.47.44.12.71.89.41 1.33-.61.22-.51.68-.19.31.21.14.51-6.5 11.18-18.58 16-.52.2-.89-.21l-.89-.97q-.46-.51-.63.16l-.43 1.69q-.11.45-.45.77-.8.76-2.05.52-.51-.1-.95.19c-3.92 2.55-12 1.91-17.27 1.56q-.48-.03-.56-.5l-.48-2.74q-.16-.98-.42-.03-.88 3.21-4.44 2.38-19.2-4.47-27.71-22.06l.38-.61q.34-.54.78-.09l.58.58q.33.33.8.33h5.7q.36 0 .47-.35c.35-1.13 6.25-1.71 7.12-1.7q.4 0 .51-.39l.7-2.31q9.11 14.37 26.45 11.57c8.15-1.32 11.44-4.48 16.55-11.07l1.21.04q-.76 1.41-.74 2.99.01.45.47.47h.26q.51.01.51-.5v-2.01q0-.6.58-.77.89-.27.92-1.18l2.54-1.04q.38-.15.11-.46-.4-.45-.4-1.08 1.43.05 2.25-1.42zm-16.29 23.61q-.58 2.01 1.44 2.75 1.3.48.67-.75-.63-1.21-1.68-2.13-.32-.27-.43.13zM471.29 197h.36q.32 0 .54.24 3.16 3.51 7.94 4.64.49.11.89-.2l1.16-.91q.4-.32.91-.3.88.04 1.31.75.41.68.86.02 1.11-1.58 2.95-1.49.31 13.59-.41 27.22-.03.51-.53.51l-15.53.06q-.45 0-.45-.44V197z"/><path d="M300.5 199.54q-.03.91-.92 1.18-.58.17-.58.77v2.01q0 .51-.51.5h-.26q-.46-.02-.47-.47-.02-1.58.74-2.99.75-1.23 2-1zM311.38 201.92q.09.24.17.49.05.15-.11.12l-2.51-.43q-1.68-.3-.03-.74 1.54-.42 2.35-1.78.26-.44.63-.08l.27.27q.18.18.04.4l-.75 1.19q-.16.26-.06.56z"/><path fill="#fbb102" d="M511.53 202.14l.62-1.42a.44.43-36.7 01.83.12q.17 1.32-.98 1.78-.82.34-.47-.48zM333.25 211.71q-1.29.26-2.52-.04-.59-.15-.49-.75l.5-3.01q3.82-5.44 10.25-6.81.69-.15.19.35l-.74.73q-.28.29-.68.33-4.22.48-6.54 3.91-.3.44-.11.94.88 2.22.14 4.35zM505.5 211.71l-2.66-.04q-.7-.01-.59-.71l.5-3.17c2.22-.47 2.86-4.7 6.9-5.47q.92-.17.16.37l-4.12 2.9q-.47.33-.44.91l.25 5.21z"/><path d="M310.75 204.29l-.11.92q-.08.67-.7.44-.88-.32-1.44-1.19l-.54-.66q-.46-.56.24-.75 1.33-.37 2.55 1.24z"/><path fill="#fbb102" d="M424.74 212.66l36.06.61q.7.02.7.72v13.29q0 1.34-.86.31-1.74-2.08-3.65-.58-.44.34-.99.45-2.02.4-2.21-1.64-.04-.42-.45-.55-.13-.04-.27-.03-.27.02-.23.28l.18 1.32a.63.63 0 01-.63.71l-43.61-.03q-.52 0-.51-.51l.02-2.76c2.63-3.83.59-6.05.76-9.75q.16-3.59.45-7.23.08-.94.28-.02.36 1.72.21 3.49-.04.47.43.41 3.06-.4 5.47-2.4.38-.31.49-.8c.41-1.81 2.7-3.67 4.1-1.59q.36.53.84.11l2.26-1.96a.46.45 61.5 01.73.22q.63 2.19-.21 4.34-.16.4-.15.82.03 1.36.79 2.77zm10.55 13.16q2.8.8 2.54-1.66-.13-1.17-.86-.25-.7.87-1.69 1.16-1.28.37.01.75zM345.46 210.25l-.04 15.8q0 .45-.45.45H331.3a.72.72 0 01-.72-.7l-.34-12.09q-.01-.5.47-.61 2-.5 4.22.57 3.13-2.45 3.12-6.55 0-1.53.91-.3l1.39 1.87q.25.34.65.22 2.53-.71 4.46 1.34z"/><ellipse fill="#fbb102" transform="rotate(124.5 201.216 239.872)" rx="1.27" ry=".82"/><path fill="#fbb102" d="M509.78 209.83q1.35 1.25-.17 2.03-.96.5-.66-.54l.41-1.38q.12-.39.42-.11z"/><ellipse fill="#fbb102" transform="rotate(65.3 24.569 401.216)" rx=".8" ry=".66"/><path fill="#fbb102" d="M550.75 212h-.59a.44.44 0 01-.25-.8l1.13-.81q.46-.33.46.24v.62q0 .75-.75.75zM503.77 214.38q.25-.55.65-.1l.76.89a.55.55 0 01-.52.9q-1.52-.3-.89-1.69z"/><path d="M288.71 219.15q.11-.4.43-.13 1.05.92 1.68 2.13.63 1.23-.67.75-2.02-.74-1.44-2.75zM435.28 225.07q.99-.29 1.69-1.16.73-.92.86.25.26 2.46-2.54 1.66-1.29-.38-.01-.75z"/></svg>
