<svg xmlns="http://www.w3.org/2000/svg" viewBox="0 0 591 591"><g stroke-width="2" fill="none"><path stroke="gray" vector-effect="non-scaling-stroke" d="M0 590.19l585.75.01a.5.49 0 00.5-.49V1.03a.51.51 0 00-.51-.51L0 .44"/><path stroke="#7e7f71" vector-effect="non-scaling-stroke" d="M581.5 5.84a.58.58 0 00-.58-.58H1.58a.58.58 0 00-.58.58v579.08a.58.58 0 00.58.58h579.34a.58.58 0 00.58-.58V5.84"/><path stroke="#fbf1c6" vector-effect="non-scaling-stroke" d="M49.8 21.37c-12.5-.15-24.24 4.08-24.5 18.64q-.4 22.76-.32 44.9a1.07 1.07 0 001.78.79c20.81-18.87 40.17-39.53 60.17-59.27q1.73-1.7 3.06-3.79a.61.61 0 00-.5-.94c-13.25-.4-26.46-.16-39.69-.33"/><path stroke="#7e7f71" vector-effect="non-scaling-stroke" d="M187.53 259.6q-2.59 4.94-4.25 10.95-3.92 14.19-11.64 27.27c-2.63 4.46-4.5 12.39-8.64 15.31q-.4.28-.63.72-3.64 7.17-4.18 10.89-3.34 23.28-5.27 34.25-.17.96-1.54 2.6"/><path stroke="#8f9080" vector-effect="non-scaling-stroke" d="M151.38 361.59q-5.81 8.89-6.43 20.02a.25.25 0 00.49.08q1.06-3.76 4.95-4.13a.6.6 0 01.65.54q1.79 20.07-4.2 39.2a.52.51-79.2 00.45.67l1.81.14a.52.52 0 01.44.69l-.95 2.51a1.16 1.12 44 00.03.86q1.2 2.75.89 5.76a.68.68 0 001.19.51l2.4-2.79a.49.49 0 01.86.26q1.41 12.53 4.18 24.76c.89 3.89 3.05 7.41 4.19 10.71 5.81 16.86 20.12 38.57 37.72 44.92a.64.64 0 01-.01 1.21q-5.94 1.96-11.55 4.94c-5.72 3.03-11.45 7.99-17.09 12.38-5.75 4.46-13.66 12.32-16.96 18.8q-1.57 3.1-3.12 6.25a1.29 1.29 0 001.12 1.86q7.88.25 15.7.42c2.51.05 4.83 1.54 7.54 1.68 29.48 1.51 59.7.42 89.26.39q10.09-.01 13.25-9.97a1.67 1.61-46 000-.97c-2.37-7.73-6.55-13.05-7.67-21.6q-.35-2.69-1.21-5.54a.6.6 0 01.96-.64l1.58 1.32a.46.46 0 00.74-.24c.95-3.53-4.39-11.63-6.09-13.76q-.46-.58.28-.58h4.52q1.04.01.3-.72-2.11-2.1-2.55-5.11a1.17 1.16-76.8 00-.49-.8l-1.01-.69q-.5-.35.08-.53l1.54-.51a.57.57 0 00.31-.82c-2.31-4.1-6.72-6.31-10.55-8.8a.25.24 47 01.01-.41l11.29-6.65a.46.45-38.4 00.09-.72q-3.76-3.63-8.79-6.52-.25-.15-.29-.45a.44.44 0 01.42-.49l2.72-.11q.72-.03.29-.6l-3.46-4.61a.65.64-27.4 01.32-1l1.46-.49a.43.43 0 00.2-.67c-3.22-4.12-3.94-8.71-6.83-13.14a.93.9-50.3 01-.07-.87c2.67-5.85 4.02-12.81 6.33-17.87q3.71-8.11 8.88-15.91a.77.76 32.8 011.05-.22l6.22 4.11a.8.79-41.8 00.81.04l1.06-.55a.97.96-44.1 01.93.01q2.04 1.19 4.35.82a.59.58 71.4 00.42-.85l-.9-1.73q-.56-1.06.47-.44c5.54 3.35 13.44 2.4 19.64 2.19a.92.91-4.6 01.93.79c1.63 12.09-2.01 24.21-8.56 34.17a.86.85-70 00.61 1.32l3.13.36a.65.64 4.4 01.57.66q-.19 5.17 3.12 9.17.52.64.57-.19l.11-2.18a.32.32 0 01.56-.19c1.24 1.49 1.78 3.41 2.78 4.77q7 9.49 11.94 20.16c2.29 4.95 5.84 8.11 5.06 14.45-1.36 11.02-15.03 18.8-21.67 26.52q-10.14 11.8-14.55 26.89a1.12 1.12 0 001.03 1.44c6.52.23 15.43 1.2 21.65-.5 4.12-1.13 5.04 1.38 8.44 1.7q3.75.35 7.45-.27c5.78-.98 11.98-1.3 17.91-.31q7.27 1.21 14.54-.03 3.74-.64 6.61-.51 16.36.72 32.65-.8c7.03-.66 8.6-3.75 8.99-10.4q.13-2.21-.86-4.69-6.1-15.28-9.34-31.48a1.22 1.19-35 01.17-.9c9.87-15.83 22.3-28.34 22.4-49.02q.01-1.63 1.2-2.75a.5.5 0 01.72.05l2.86 3.41a.49.49 0 00.83-.14q3.29-8.84 2.1-18.1-.07-.57.37-.21l1.94 1.58a.74.74 0 001.2-.48c1.14-8.93 2.58-17 5-26.34q4.99-19.3 6-27.59c2.34-19.09.66-37.46-.06-56.1q-.02-.69.48-.22l2.68 2.43q.78.71.61-.33l-.91-5.38a.81.81 0 01.73-.94q3.73-.33 6.9-2.27a.7.7 0 00.27-.9q-.63-1.32-1.8-2.22a1.71 1.62-81.1 01-.58-.84c-1.92-6.3-3.62-7.08-8.48-10.94q-.62-.48.16-.55l3.22-.28q.83-.07.29-.71l-4.92-5.83a1.29 1.29 0 01-.31-.81c-.19-7.37-4.2-7.33-9.83-8.92a1.34 1.31 81.6 01-.75-.57c-3.28-5.21-6.9-10.1-9.94-15.4q-4.92-8.58-7.81-12.17c-2.33-2.89-3.27-4.04-3.53-8.05q-.5-7.82-5.95-13.6a1.83 1.74 19.7 01-.45-.9q-1.77-10.41-9.25-17.84a.32.31-57.7 01-.07-.33l.11-.27a.39.39 0 01.49-.23q2.25.78 4.5.23a.52.52 0 00.35-.72q-5.21-11.1-17.2-13.53a.73.73 0 01.12-1.44l5.75-.17a.46.46 0 00.3-.8q-6.56-6.05-15.47-7.14a.42.42 0 01-.2-.75q1.57-1.19 2.3-2.96a.49.48-80.9 00-.48-.67c-4.61.32-9.92.78-14.16-1.46-3.27-1.73-9.42-4.4-11.76-7.05a1.15 1.13-20.1 00-.83-.38c-5.28-.12-8.59-5.52-12.41-8.78a.47.46-51.6 01-.07-.63l1.2-1.68q.47-.65-.33-.71-3.46-.25-5.83-2.72a1.16 1.15 26.7 01-.32-.95c.46-4.04 8.26-5.89 6.51-9.81-2.29-5.17-3.61-10.38-5.69-15.17q-1.5-3.43-3.92-9.46-6.93-17.24-21.99-28.27a.91.91 0 01.15-1.56l2.03-.95a.58.58 0 00.24-.83c-1.9-2.98-.29-5.92 1-9.26a1.24 1.2-48.1 00-.04-.99q-1.39-2.85 1.08-4.81a1.08 1.08 0 00.04-1.65c-1.69-1.5-2.66-2.5-3.75-4.65q-4.36-8.63-14.35-9.53a1 .99-12.5 01-.79-.5l-.46-.83a.55.54-31.9 00-.79-.18c-2.7 1.9-4.92 2.42-8.22 1.95-5.25-.75-12.23 8.22-14.52 12.74q-2.43 4.8.1 9.4a1.5 1.49-54.3 01.16 1l-.52 2.87a1.05 1.04 28.4 00.28.92l1.44 1.45a.79.79 0 01-.27 1.29c-18.93 7.45-35 25.52-44.78 42.88a1.8 1.78 2.6 01-.83.75q-7.55 3.37-6.87 10.91c.45 5 .52 7.29.2 11.27a1.42 1.36 30.5 00.26.92c1.47 2.03 7.37 6.24 6.49 8.51q-1.09 2.79-.96 6.86a.69.68-1.2 01-.69.71h-2.44a.49.49 0 00-.44.69q1.72 3.65.64 7.64a.93.93 0 01-.68.67l-5.18 1.28a1.83 1.8-73.9 00-.85.48l-1.35 1.36a1.83 1.83 0 01-.95.49q-6.39 1.18-11.24 5.57a.88.88 0 00.18 1.43l1.58.82a.45.44-54.3 01.11.7c-3.41 3.59-9.17 8.71-10.28 14.58a.28.28 0 00.36.32l1.84-.59q.76-.25.41.47-2.63 5.36-2.85 10.08-.72 15.67-2.64 26.61"/><path stroke="#111110" vector-effect="non-scaling-stroke" d="M151.38 361.59q3.29.6 3.9-2.83.67-3.69.22-10.42c-.08-1.3.95-2.55 1.16-3.99 1.38-9.18 1.54-20.13 6.27-28.42 1.19-2.08 3.5-3.1 4.37-5.73 3.36-10.06 10.27-19.31 13.9-28.89q4.02-10.59 6.33-21.71"/><path stroke="#cbcec1" vector-effect="non-scaling-stroke" d="M531.27 368.34q.05 1.33.25 2.67.42 2.75.48-.03.03-1.33-.05-2.67a.34.34 0 00-.68.03"/><path stroke="#5f6060" vector-effect="non-scaling-stroke" d="M301.77 99.97q1.91-.21 2.89-1.7a1.35 1.33-35.2 00.18-1.01l-1.21-5.16a1.08 1.05-35.9 01.14-.81l1.12-1.78a.72.71 40.6 00-.07-.87c-2.79-3.03-7.61-7.93-11.74-8.74q-1.79-.35-3.57-.92a1.53 1.5-45.6 00-.96.02q-4.33 1.61-8.82.5a1 .98-61.2 00-.96.29l-2.58 2.87a2.04 2.03 13 01-.95.59q-1.65.48-2.11 2.27a.69.68-9.5 001.04.74l5.11-3.38a.35.35 0 01.55.27l.09 1.28a.57.57 0 00.75.5c3.35-1.13 13.28-1.5 15.9 1.06a.57.57 0 010 .81l-.96.96a.92.92 0 00.13 1.41l3.8 2.65a.74.73 32.9 01.21.97l-1.05 1.8a1.1 1.04-38 00-.12.79c1.31 5.56-.85 6.45-4.02 10.12a1 .98 23.1 01-.87.34q-4.93-.52-9.77.52a.53.52 49.7 00-.08 1c16.67 6.73 26.17 21.28 32.74 38.08q.55 1.38 1.12 4.49a.42.42 0 00.63.28l6.3-3.71a.66.66 0 00.29-.78q-3.08-9.56-7.96-18.29c-3.62-6.49-10.01-11.55-15.79-16.12q-1.4-1.1-1.85-4.18a.92.91 67.1 01.35-.88l1.89-1.44a.64.62 67 00.24-.62l-.62-3.43a.68.67-8.4 01.59-.79M228.45 153.4a.18.18 0 00.21-.06q4.83-6.07 6.76-13.57.21-.84-.22-.1-.86 1.44-1.93 2.71c-2.52 3-4.41 6.31-6.27 9.74a.59.58-65.1 00.3.83l1.15.45M321.78 168.06c-4.26 4.85-12.3 6.46-19.81 8.84q-.49.15.02.16c8.66.2 25.33-3.52 29.27-12.54a1.47 1.4 50.9 00.07-.92l-3.58-13.81a1.16 1.16 0 00-1.81-.64q-7.95 5.8-17.66 7.25a.38.38 0 00.02.76q5.39.48 10.62-.86a1.34 1.34 0 011.67 1.1l1.43 9.83a1.04 1.04 0 01-.24.83M224.81 160.34q3.95.24 7.73 1.38c4.36 1.31 8.32 1.5 12.57 2.47a.51.51 0 00.62-.41c.11-.58-.48-.99-1.05-1.1q-11.28-2.05-20.53-7.58a1.65 1.64-78.7 00-2.47 1.65q.91 6.5-.2 13.04a1.43 1.42 35.1 00.17.96c2.18 3.75 3.88 2.96 7.22 4.73 4.45 2.35 10.14 3.23 15.09 3.93q.55.07.23-.38-.56-.78-1.51-1.02-9.21-2.36-17.06-6.04c-3.21-1.51-1.63-3.54-1.65-5.88q-.03-2.64.28-5.28a.53.53 0 01.56-.47"/><path stroke="#111110" vector-effect="non-scaling-stroke" d="M423 398.54q-.6-.24-1.2.08a.91.89-12.6 00-.48.74l-1.04 19.42a.44.44 0 00.44.46l.74.01"/><path stroke="#5f6060" vector-effect="non-scaling-stroke" d="M421.46 419.25q-.75 5.66-4.2 11.19-1.77 2.83-1.25-.46.4-2.56 1.21-4.99a.38.37-7.3 00-.56-.43c-7.25 4.63-13.76 9.18-15.1 18.35q-.08.53.36.23 5.67-3.77 9.39-9.41.36-.54.49.09c.89 4.3-4.98 18.85-3.54 20.16a.36.36 0 00.57-.13q1.06-2.53 3.58-3.55.61-.25.48.39-3.71 18.26-13.81 33.88-4.76 7.35-9.44 14.79c-4.25 6.77-11.4 11.29-18.46 14.86a.61.61 0 00.38 1.15c12.81-2.07 22.49-8.94 29.76-19.51 5.97-8.69 13.36-18.72 14.79-29.42.77-5.82.37-11.32 5.03-16.04a1.23 1.22 20.8 01.83-.37l2.19-.11a.79.79 0 00.74-.69q.63-5.16-.34-10.3a1.32 1.28 54.8 01.14-.88q1.16-2.14 3.61-2.65a.71.71 0 00.53-.53c1.97-8.97 3.56-16.59 6.23-26.76q6.16-23.35 5.04-47.67-.37-8-.79-25.94c-.15-6.37.84-11.31 8.14-11.35a.46.45-3.5 00.45-.5c-.83-7.56-6.13-6.18-8.78-11.45-1.12-2.21.11-4.79-.81-7.33q-.78-2.16-1.14-4.52a.81.8-85.9 00-.55-.64c-3.32-1.13-7.76-2.4-9.8-5.5-5.31-8.04-10.05-16.33-15.69-24.15q-3.5-4.85-4.66-10.75c-1.1-5.54-3.12-9.22-6.18-13.56-.94-1.33-.73-2.07-.94-3.57-.62-4.57-4.94-10.73-7.83-14.25-1.94-2.36-3.21-5.16-.14-7.1a1.01 1.01 0 00-.01-1.72q-6.2-3.79-13.25-5.77a1.05 1.04 87 01-.7-.64q-1.13-3.07-.57-6.28a.48.47-86.5 00-.48-.55q-4.26.13-6.68-3.09c-1.95-2.61-4.49-1.53-6.77-1.98-5.35-1.08-6.92-4.25-11.44-5.95q-13-4.9-21.74-15.82a.57.57 0 01.14-.84l1.83-1.13a.08.07 75.1 00.03-.06v-.25a.12.12 0 00-.07-.11l-4.97-2.14a1.03 1.01 43.9 00-.85.01l-5.8 2.65a1.49 1.49 0 00-.73.73c-1.13 2.53 1.15 6.25 3.01 9.75 1 1.89 2.7 2.62 4 4.4 1.65 2.25 3.41 3.49 5.06 5.49q.34.4-.16.21l-9.38-3.64a.49.49 0 00-.64.63q2.35 6 6.75 10.4c.3.31.54 1.25.47 1.65a.52.51-79.9 01-.59.42l-2.78-.48q-.98-.18-.56.73 1.5 3.24 4.53 5.15a.6.59 37.8 01.12.92l-.36.38a.92.92 0 01-.89.26q-.76-.2-1.6-.17-1.35.03-.28.86l5.3 4.1a.57.57 0 00.89-.63l-1.99-5.86a.49.48 87.9 01.58-.63q7.4 1.98 15.07.51a.56.55 66.7 00.34-.87l-1.06-1.48q-.32-.43-.75-.75l-3.83-2.83q-.36-.27.08-.33l3.68-.51q.47-.07.95.02c2.44.48 6.63-1.02 8.57.33q.43.3-.09.41l-2.52.58a.74.74 0 00-.15 1.39c3.93 1.85 7.5 3.77 11.7 5.15q10.18 3.33 19.66 8.47.88.47-.08.73l-1.49.4a.35.34 62.2 00-.17.56q1.24 1.46 2.22 3.86 7.02 17.14 9.99 34.82a.5.5 0 001-.09l-.09-11.96q0-.25.17-.07 2.9 3 6.01 8.54 6.7 11.94 9.57 25.94a.65.64 59.9 001.12.3l.9-1.04a.43.42 43.3 01.63-.01c2.98 3.1 4.71 13.85 7.08 15.17a.37.36-73.6 00.54-.3l.18-3a.53.52 28.4 01.95-.28q3.69 5 8.24 9.23 1.44 1.34-.4.66l-3.68-1.36a.48.47-71.9 00-.62.32q-.18.62.21 1.15c2.94 4 5.61 7.13 6.88 11.7.46 1.69 2.06 5.25.97 6.73a.65.64 38 01-.92.11l-1.78-1.44a.43.42 18.4 00-.69.34c.15 4.68 2.11 9.15 2.22 13.57q.21 8.42.29 24.76c.07 13.83-1.75 25.83-4.56 38.83a.52.52 0 01-1.02-.07l-.36-4.32a.49.49 0 00-.94-.17l-1.83 4.01"/><path stroke="#4e4f50" vector-effect="non-scaling-stroke" d="M421.46 419.25c1.24-6.87.69-13.79 1.54-20.71"/><path stroke="#5f6060" vector-effect="non-scaling-stroke" d="M211.08 211.3q4.8-.89 7.61-4.88a.52.52 0 01.89.07l3.33 6.84q.24.51.32-.05 1.1-8.48 5.17-16c.53-.98.61-2.25.66-3.33a.37.37 0 00-.49-.36l-1.45.49q-.73.26-.53-.5l2.32-8.61a.62.61 22 01.89-.37l.87.48a.18.18 0 00.25-.1l.09-.25a.53.53 0 00-.26-.66l-3.8-1.84a.31.31 0 00-.45.31c.3 3.53-2.15 8.66-3.22 11.93a1.69 1.66-44.4 00-.02.98q.42 1.52-.22 2.95a1.11 1.1-87.9 01-.62.58c-4.67 1.76-9.38 3.75-14.14 5.27q-3.21 1.03-3.21 4.47a1.26 1.25 66.4 01-.33.85c-3.74 4.12-8.22 8.06-7.32 13.4a1.97 1.91-40.2 01-.1 1.02q-2.43 6.49-2.6 13.43a.26.25 54 00.5.08c.6-2.11 6.03-18.31 7.99-18.11a.63.62 1.1 01.55.57l.31 3.33q.12 1.31.69.13l5.58-11.55a1.05 1.05 0 01.74-.57M317.664 187.969a2.77 1.06 57.6 00-.589-2.907 2.77 1.06 57.6 00-2.38-1.77 2.77 1.06 57.6 00.59 2.906 2.77 1.06 57.6 002.38 1.77M319.514 210.353a4.74 1.01 39 00-3.048-3.768 4.74 1.01 39 00-4.32-2.198 4.74 1.01 39 003.048 3.768 4.74 1.01 39 004.32 2.198M229.22 205.53c-1.58 3.67-4.22 13.41-1.5 16.44q.81.91 1.03-.29 1.48-8 .71-16.11a.13.13 0 00-.24-.04M329.05 220.3a.32.32 0 00.27-.57l-5.67-4.15a.32.32 0 00-.46.43l2.01 3.2a.32.32 0 00.19.14l3.66.95M325.25 223.42a2.23.72 52.1 00-.802-2.202 2.23.72 52.1 00-1.938-1.318 2.23.72 52.1 00.802 2.202 2.23.72 52.1 001.938 1.318M345.58 393.3q-1.21-1.57-1.09-3.51a.41.4-9.1 00-.56-.4c-1.36.58 1.18 14.44 1.42 16.43.38 3.12 3.89 1.31 5.07-.2a1.14 1.14 0 00.22-.9c-.35-1.9-1.5-8.14-.68-8.76a1.35 1.33 79.4 00.5-.74q2.5-9.17 5.09-18.32c1.66-5.84 1.75-11.44 1.38-17.09-1.2-18.25.97-36.08 2.18-53.98a1.35 1.33-21.3 01.36-.8l4.43-4.47a1.22 1.21 64.7 00.34-.96c-.46-4.62-7.8-9.2-11.9-9.5-3.92-.28-.72 2.73.17 3.49a.61.6-53.5 01.11.79q-2.91 4.54-2.76 10.13.03 1.1.52.12l1.18-2.4a.3.29 55.8 01.56.11c.4 4.75.2 8.4-1.51 13.04-1.78 4.81-5.15 10.45-4.6 15.59a.52.52 0 00.7.44l1.48-.54a.23.23 0 01.3.25q-1.28 7.54-1.03 15.2.07 2.13-.74 4.19-2.64 6.71-3.12 14.01-.07.99-.47.08l-1.91-4.38a.5.5 0 00-.95.18q-.22 6.13 1.22 12.09a1.09 1.09 0 002.12-.04l1.38-6.62q.12-.56.37-.05c2.18 4.43 4.15 10.98 2.42 15.8q-.67 1.87-1.35 3.74-.17.47-.19.97l-.2 6.86q-.02.7-.46.15M409.73 292.71c-.16 5.07 3.3 9.2 8.28 10.13q.62.11.32-.44-3.13-5.7-8.06-9.93-.52-.44-.54.24M385.76 325.3q.07-1.32-.97-3.12-2.69-4.64-4.44-7.52c-3.74-6.13-6.46-12.68-10.66-18.68a.32.32 0 00-.57.24c2.2 11.59 8.65 20.49 16.24 29.22q.37.42.4-.14"/><path stroke="#8f9080" vector-effect="non-scaling-stroke" d="M375.77 347.42c1.58-.64 2.22-10.15 2.58-12.26a1.4 1.38 75.9 01.51-.86l3.22-2.5a2.24 2.23 47.6 00.15-3.4q-6.67-6.21-11-14.69c-1.23-2.39-2.23-6-3.9-8.85a.62.62 0 00-.74-.27q-2.23.84-2.32 2.91-.72 16.21-1.98 32.38c-.79 10.05-.16 19.59.2 29.51.11 3.05-.75 5.95-1.83 9.22-.69 2.07-.26 4.06-.86 6.11q-1.96 6.77-2.33 13.88a.54.53 71.5 00.88.44l3.15-2.67a.96.95 66.6 00.33-.84c-.54-4.44.66-8.91 1.11-12.91q.44-3.87 1.85-6.07c5.31-8.27 12.63-18.8 10.63-28.49a.56.56 0 01.35-.64"/><path stroke="#5f6060" vector-effect="non-scaling-stroke" d="M207 366.69a1.1 1.1 0 01-1.62 1.36l-6.67-4.5q-.43-.29-.39.23.35 4.27 2.67 7.24c5.72 7.32 9.69 12.32 10.34 22.09a.39.39 0 00.73.15q2.9-5.69 6.67-10.83a1.14 1.12 55.4 00.17-.97q-5.38-18.3-11.18-36.47c-1.85-5.8 4.01-11.78 8.22-17.55 3.16-4.36 5.74-12.2 9.51-18.97q.25-.45-.2-.21-4.33 2.28-6.02 5.49-7.63 14.47-19.35 22.95a1.14 1.12-15.5 00-.46.8c-.92 8.65 4.12 21.49 7.58 29.19"/><path stroke="#8f9080" vector-effect="non-scaling-stroke" d="M227.25 314.9q-1.53 3.87-3.14 7.73c-2.53 6.09-6.45 10.99-10.53 16.01-1.15 1.41-1.81 3.78-1.29 5.31q3.97 11.57 7.44 23.31 1.1 3.74 3.3 7.13a.31.3-46.8 00.52-.02q6.28-11.43 8.19-14.63 2.21-3.72-.4-6.93a.69.68 44.7 01-.01-.84l3.39-4.39a1.29 1.27-32.2 00.24-1.02c-.55-2.76.74-5.07.85-7.19q.5-9.66-3.48-18.41-1.64-3.63-4.51-6.19a.36.36 0 00-.57.13"/><path stroke="#5f6060" vector-effect="non-scaling-stroke" d="M240.62 334.43c-.13 3.82.75 7.97-.16 11.86-.54 2.29-2.65 3.81-2.06 6.78a.59.59 0 001.07.21c3.44-5.19 6.97-13.85 4.7-20.01-1.94-5.29-3.38-11.37-7.01-15.88q-.33-.41-.23.1c1.11 5.56 3.93 9.86 3.69 16.94M388.28 334.98q-.54 1.75.33 3.29.7 1.22.9-.17l1.74-12.18a.24.24 0 00-.45-.13q-2.75 6.13-7.15 11.24a1.45 1.4-23 00-.34.8c-.61 7.23-2.86 13.57-4.25 20.74q-.93 4.74-2.85 7.88c-6.04 9.86-9.83 15.36-9.56 26.4q.08 3.33-1.59 6.27-.31.56.31.41l2.55-.61a.88.87-3 00.67-.73q1.04-7.85 2.18-15.69c.44-3.03 7.1-10.94 9.17-13.78 5.75-7.89 6.02-18.79 5.82-27.96q-.06-3.19 2.08-6.01.85-1.13.44.23M247.16 480.5l-4.06-2.36a.46.46 0 00-.69.34q-.44 3.16 1.26 5.62 5.31 7.66 7.33 15.98.13.53-.01 1.05-.51 1.97.16 3.91a.54.54 0 01-.51.71h-1a.63.62-1.7 00-.63.66q.25 4.83 3.11 8.43c4.38 5.51 5.6 13.05 3.37 19.39q-.41 1.15.52 1.8a.73.72 41.5 00.91-.05l2.69-2.42a.61.61 0 011 .34c1.11 5.79 2.06 11.15-3.26 15.13q-.39.3.1.32c6.84.33 13.01 1.06 15.95-5.66a.96.94-49.4 00-.06-.88q-5.9-9.47-7.51-20.44c-.64-4.38-3.13-6.73-.24-11.47a.69.68-49.7 00-.06-.79c-2.8-3.28-5.05-5.76-4.45-9.61a1.47 1.47 0 011.65-1.23l3.11.43q.65.08.36-.51-1.32-2.7-3.72-4.55a1.13 1.13 0 01-.45-.88l-.04-1.96a.81.8-79.5 00-.5-.73q-6.61-2.61-10.49-8.55a.36.35-25.9 01.19-.53c5.3-1.71 9.03-3.13 12-5.96a.42.42 0 00-.05-.65q-4.03-2.71-5.83-7.22a.46.46 0 01.41-.63l1.84-.04q1.53-.04.3-.95l-2.17-1.6q-.41-.31-.64-.77-.76-1.57-1.14-3.3c-.82-3.67-2.94-6.77-4.45-10.2a.98.98 0 00-.68-.56q-1.55-.33-1.66-1.46c-.22-2.08 4.72-6.3 5.28-9.32 1.46-7.86 5.58-14.84 9.11-21.91 1.91-3.84 5.21-10.17 10.54-8.83a1.7 1.67-11.9 01.86.55q3.81 4.7 8.6 1.14a2.4 2.4 0 012.38-.27c6.67 2.9 12.09 2 19.08 1.74a1.07 1.07 0 00.96-1.44l-1.96-5.32a.54.54 0 00-.79-.27l-4.89 3.02a.66.66 0 00-.22.9l.8 1.36a.6.59-37.7 01-.1.73c-1.68 1.63-6.05-6.58-7.6-5.92a1.2 1.19-3.3 00-.67.75l-.15.47a.67.66 15.1 01-.8.45q-4.1-1.07-7.52-3.57a.94.92 56.4 00-.77-.16q-1.3.3-1.26 1.71a.63.62 86.1 01-.56.65c-8 .95-11.94-5.97-16.85-10.79q-.36-.36-.41.14c-.58 5.57 4.37 9.25 1 14.67q-7.86 12.61-19.62 33.13-2.7 4.7-3.93 7.82a.83.82-54.6 00.14.85c3.22 3.83 7.26 7.58 8.97 12.11q1.37 3.63 1.91 7.55a.77.77 0 01-.46.81l-1.01.42a.59.58 70.6 00-.33.71c.23.79 1.71 4.72 1.16 5.18a.53.53 0 01-.7-.02l-1.59-1.49a.77.77 0 00-1.25.81l1.11 3.14q.27.75-.42.35M361.72 408.69c-5.93.01-11.53 3.63-16.34 6.74-5.66 3.67-7.02 13.48-6.73 19.82q.07 1.58.46 2.37a.78.77 40.9 001.43-.1c1.51-4.56 3.93-15.88 7.29-18.67q6.67-5.54 14.04-9.6a.3.3 0 00-.15-.56M407.1 414.8c-2.6 3.24-9.41 10.07-9.1 13.59a.56.56 0 00.92.39c4.65-3.83 9.89-6.67 8.79-13.81q-.12-.78-.61-.17M371.75 499.87q5.92 1.66 10.57-1.36c2.16-1.41 2.54-12.05 2.78-14.71a.26.26 0 00-.5-.13c-3.1 7.15-5.19 12.58-12.88 15.39a.43.43 0 00.03.81M390.52 532.42c1.4 6.23-1.8 12.7-5.48 17.45a.51.51 0 00.38.83q6.12.35 12.5-.55c5.56-.79 5.98-3.96 5.1-8.91q-2.56-14.35-8.25-27.86a.57.57 0 00-.83-.26l-5.91 3.66a.79.77-20.8 00-.37.8q1.22 7.51 2.86 14.84"/></g><path fill="#fff" d="M0 0h591v591H0v-.81l585.75.01a.5.49 0 00.5-.49V1.03a.51.51 0 00-.51-.51L0 .44V0z"/><path d="M0 .44l585.74.08a.51.51 0 01.51.51v588.68a.5.49 0 01-.5.49L0 590.19V.44zm581.5 5.4a.58.58 0 00-.58-.58H1.58a.58.58 0 00-.58.58v579.08a.58.58 0 00.58.58h579.34a.58.58 0 00.58-.58V5.84z"/><path fill="#fbfee1" d="M581.5 584.92a.58.58 0 01-.58.58H1.58a.58.58 0 01-.58-.58V5.84a.58.58 0 01.58-.58h579.34a.58.58 0 01.58.58v579.08zM49.8 21.37c-12.5-.15-24.24 4.08-24.5 18.64q-.4 22.76-.32 44.9a1.07 1.07 0 001.78.79c20.81-18.87 40.17-39.53 60.17-59.27q1.73-1.7 3.06-3.79a.61.61 0 00-.5-.94c-13.25-.4-26.46-.16-39.69-.33zM187.53 259.6q-2.59 4.94-4.25 10.95-3.92 14.19-11.64 27.27c-2.63 4.46-4.5 12.39-8.64 15.31q-.4.28-.63.72-3.64 7.17-4.18 10.89-3.34 23.28-5.27 34.25-.17.96-1.54 2.6-5.81 8.89-6.43 20.02a.25.25 0 00.49.08q1.06-3.76 4.95-4.13a.6.6 0 01.65.54q1.79 20.07-4.2 39.2a.52.51-79.2 00.45.67l1.81.14a.52.52 0 01.44.69l-.95 2.51a1.16 1.12 44 00.03.86q1.2 2.75.89 5.76a.68.68 0 001.19.51l2.4-2.79a.49.49 0 01.86.26q1.41 12.53 4.18 24.76c.89 3.89 3.05 7.41 4.19 10.71 5.81 16.86 20.12 38.57 37.72 44.92a.64.64 0 01-.01 1.21q-5.94 1.96-11.55 4.94c-5.72 3.03-11.45 7.99-17.09 12.38-5.75 4.46-13.66 12.32-16.96 18.8q-1.57 3.1-3.12 6.25a1.29 1.29 0 001.12 1.86q7.88.25 15.7.42c2.51.05 4.83 1.54 7.54 1.68 29.48 1.51 59.7.42 89.26.39q10.09-.01 13.25-9.97a1.67 1.61-46 000-.97c-2.37-7.73-6.55-13.05-7.67-21.6q-.35-2.69-1.21-5.54a.6.6 0 01.96-.64l1.58 1.32a.46.46 0 00.74-.24c.95-3.53-4.39-11.63-6.09-13.76q-.46-.58.28-.58h4.52q1.04.01.3-.72-2.11-2.1-2.55-5.11a1.17 1.16-76.8 00-.49-.8l-1.01-.69q-.5-.35.08-.53l1.54-.51a.57.57 0 00.31-.82c-2.31-4.1-6.72-6.31-10.55-8.8a.25.24 47 01.01-.41l11.29-6.65a.46.45-38.4 00.09-.72q-3.76-3.63-8.79-6.52-.25-.15-.29-.45a.44.44 0 01.42-.49l2.72-.11q.72-.03.29-.6l-3.46-4.61a.65.64-27.4 01.32-1l1.46-.49a.43.43 0 00.2-.67c-3.22-4.12-3.94-8.71-6.83-13.14a.93.9-50.3 01-.07-.87c2.67-5.85 4.02-12.81 6.33-17.87q3.71-8.11 8.88-15.91a.77.76 32.8 011.05-.22l6.22 4.11a.8.79-41.8 00.81.04l1.06-.55a.97.96-44.1 01.93.01q2.04 1.19 4.35.82a.59.58 71.4 00.42-.85l-.9-1.73q-.56-1.06.47-.44c5.54 3.35 13.44 2.4 19.64 2.19a.92.91-4.6 01.93.79c1.63 12.09-2.01 24.21-8.56 34.17a.86.85-70 00.61 1.32l3.13.36a.65.64 4.4 01.57.66q-.19 5.17 3.12 9.17.52.64.57-.19l.11-2.18a.32.32 0 01.56-.19c1.24 1.49 1.78 3.41 2.78 4.77q7 9.49 11.94 20.16c2.29 4.95 5.84 8.11 5.06 14.45-1.36 11.02-15.03 18.8-21.67 26.52q-10.14 11.8-14.55 26.89a1.12 1.12 0 001.03 1.44c6.52.23 15.43 1.2 21.65-.5 4.12-1.13 5.04 1.38 8.44 1.7q3.75.35 7.45-.27c5.78-.98 11.98-1.3 17.91-.31q7.27 1.21 14.54-.03 3.74-.64 6.61-.51 16.36.72 32.65-.8c7.03-.66 8.6-3.75 8.99-10.4q.13-2.21-.86-4.69-6.1-15.28-9.34-31.48a1.22 1.19-35 01.17-.9c9.87-15.83 22.3-28.34 22.4-49.02q.01-1.63 1.2-2.75a.5.5 0 01.72.05l2.86 3.41a.49.49 0 00.83-.14q3.29-8.84 2.1-18.1-.07-.57.37-.21l1.94 1.58a.74.74 0 001.2-.48c1.14-8.93 2.58-17 5-26.34q4.99-19.3 6-27.59c2.34-19.09.66-37.46-.06-56.1q-.02-.69.48-.22l2.68 2.43q.78.71.61-.33l-.91-5.38a.81.81 0 01.73-.94q3.73-.33 6.9-2.27a.7.7 0 00.27-.9q-.63-1.32-1.8-2.22a1.71 1.62-81.1 01-.58-.84c-1.92-6.3-3.62-7.08-8.48-10.94q-.62-.48.16-.55l3.22-.28q.83-.07.29-.71l-4.92-5.83a1.29 1.29 0 01-.31-.81c-.19-7.37-4.2-7.33-9.83-8.92a1.34 1.31 81.6 01-.75-.57c-3.28-5.21-6.9-10.1-9.94-15.4q-4.92-8.58-7.81-12.17c-2.33-2.89-3.27-4.04-3.53-8.05q-.5-7.82-5.95-13.6a1.83 1.74 19.7 01-.45-.9q-1.77-10.41-9.25-17.84a.32.31-57.7 01-.07-.33l.11-.27a.39.39 0 01.49-.23q2.25.78 4.5.23a.52.52 0 00.35-.72q-5.21-11.1-17.2-13.53a.73.73 0 01.12-1.44l5.75-.17a.46.46 0 00.3-.8q-6.56-6.05-15.47-7.14a.42.42 0 01-.2-.75q1.57-1.19 2.3-2.96a.49.48-80.9 00-.48-.67c-4.61.32-9.92.78-14.16-1.46-3.27-1.73-9.42-4.4-11.76-7.05a1.15 1.13-20.1 00-.83-.38c-5.28-.12-8.59-5.52-12.41-8.78a.47.46-51.6 01-.07-.63l1.2-1.68q.47-.65-.33-.71-3.46-.25-5.83-2.72a1.16 1.15 26.7 01-.32-.95c.46-4.04 8.26-5.89 6.51-9.81-2.29-5.17-3.61-10.38-5.69-15.17q-1.5-3.43-3.92-9.46-6.93-17.24-21.99-28.27a.91.91 0 01.15-1.56l2.03-.95a.58.58 0 00.24-.83c-1.9-2.98-.29-5.92 1-9.26a1.24 1.2-48.1 00-.04-.99q-1.39-2.85 1.08-4.81a1.08 1.08 0 00.04-1.65c-1.69-1.5-2.66-2.5-3.75-4.65q-4.36-8.63-14.35-9.53a1 .99-12.5 01-.79-.5l-.46-.83a.55.54-31.9 00-.79-.18c-2.7 1.9-4.92 2.42-8.22 1.95-5.25-.75-12.23 8.22-14.52 12.74q-2.43 4.8.1 9.4a1.5 1.49-54.3 01.16 1l-.52 2.87a1.05 1.04 28.4 00.28.92l1.44 1.45a.79.79 0 01-.27 1.29c-18.93 7.45-35 25.52-44.78 42.88a1.8 1.78 2.6 01-.83.75q-7.55 3.37-6.87 10.91c.45 5 .52 7.29.2 11.27a1.42 1.36 30.5 00.26.92c1.47 2.03 7.37 6.24 6.49 8.51q-1.09 2.79-.96 6.86a.69.68-1.2 01-.69.71h-2.44a.49.49 0 00-.44.69q1.72 3.65.64 7.64a.93.93 0 01-.68.67l-5.18 1.28a1.83 1.8-73.9 00-.85.48l-1.35 1.36a1.83 1.83 0 01-.95.49q-6.39 1.18-11.24 5.57a.88.88 0 00.18 1.43l1.58.82a.45.44-54.3 01.11.7c-3.41 3.59-9.17 8.71-10.28 14.58a.28.28 0 00.36.32l1.84-.59q.76-.25.41.47-2.63 5.36-2.85 10.08-.72 15.67-2.64 26.61zm343.74 108.74q.05 1.33.25 2.67.42 2.75.48-.03.03-1.33-.05-2.67a.34.34 0 00-.68.03z"/><path fill="#fae4ab" d="M25.3 40.01c.26-14.56 12-18.79 24.5-18.64 13.23.17 26.44-.07 39.69.33a.61.61 0 01.5.94q-1.33 2.09-3.06 3.79c-20 19.74-39.36 40.4-60.17 59.27a1.07 1.07 0 01-1.78-.79q-.08-22.14.32-44.9z"/><path fill="#22211f" d="M151.38 361.59q3.29.6 3.9-2.83.67-3.69.22-10.42c-.08-1.3.95-2.55 1.16-3.99 1.38-9.18 1.54-20.13 6.27-28.42 1.19-2.08 3.5-3.1 4.37-5.73 3.36-10.06 10.27-19.31 13.9-28.89q4.02-10.59 6.33-21.71 1.92-10.94 2.64-26.61.22-4.72 2.85-10.08.35-.72-.41-.47l-1.84.59a.28.28 0 01-.36-.32c1.11-5.87 6.87-10.99 10.28-14.58a.45.44-54.3 00-.11-.7l-1.58-.82a.88.88 0 01-.18-1.43q4.85-4.39 11.24-5.57a1.83 1.83 0 00.95-.49l1.35-1.36a1.83 1.8-73.9 01.85-.48l5.18-1.28a.93.93 0 00.68-.67q1.08-3.99-.64-7.64a.49.49 0 01.44-.69h2.44a.69.68-1.2 00.69-.71q-.13-4.07.96-6.86c.88-2.27-5.02-6.48-6.49-8.51a1.42 1.36 30.5 01-.26-.92c.32-3.98.25-6.27-.2-11.27q-.68-7.54 6.87-10.91a1.8 1.78 2.6 00.83-.75c9.78-17.36 25.85-35.43 44.78-42.88a.79.79 0 00.27-1.29l-1.44-1.45a1.05 1.04 28.4 01-.28-.92l.52-2.87a1.5 1.49-54.3 00-.16-1q-2.53-4.6-.1-9.4c2.29-4.52 9.27-13.49 14.52-12.74 3.3.47 5.52-.05 8.22-1.95a.55.54-31.9 01.79.18l.46.83a1 .99-12.5 00.79.5q9.99.9 14.35 9.53c1.09 2.15 2.06 3.15 3.75 4.65a1.08 1.08 0 01-.04 1.65q-2.47 1.96-1.08 4.81a1.24 1.2-48.1 01.04.99c-1.29 3.34-2.9 6.28-1 9.26a.58.58 0 01-.24.83l-2.03.95a.91.91 0 00-.15 1.56q15.06 11.03 21.99 28.27 2.42 6.03 3.92 9.46c2.08 4.79 3.4 10 5.69 15.17 1.75 3.92-6.05 5.77-6.51 9.81a1.16 1.15 26.7 00.32.95q2.37 2.47 5.83 2.72.8.06.33.71l-1.2 1.68a.47.46-51.6 00.07.63c3.82 3.26 7.13 8.66 12.41 8.78a1.15 1.13-20.1 01.83.38c2.34 2.65 8.49 5.32 11.76 7.05 4.24 2.24 9.55 1.78 14.16 1.46a.49.48-80.9 01.48.67q-.73 1.77-2.3 2.96a.42.42 0 00.2.75q8.91 1.09 15.47 7.14a.46.46 0 01-.3.8l-5.75.17a.73.73 0 00-.12 1.44q11.99 2.43 17.2 13.53a.52.52 0 01-.35.72q-2.25.55-4.5-.23a.39.39 0 00-.49.23l-.11.27a.32.31-57.7 00.07.33q7.48 7.43 9.25 17.84a1.83 1.74 19.7 00.45.9q5.45 5.78 5.95 13.6c.26 4.01 1.2 5.16 3.53 8.05q2.89 3.59 7.81 12.17c3.04 5.3 6.66 10.19 9.94 15.4a1.34 1.31 81.6 00.75.57c5.63 1.59 9.64 1.55 9.83 8.92a1.29 1.29 0 00.31.81l4.92 5.83q.54.64-.29.71l-3.22.28q-.78.07-.16.55c4.86 3.86 6.56 4.64 8.48 10.94a1.71 1.62-81.1 00.58.84q1.17.9 1.8 2.22a.7.7 0 01-.27.9q-3.17 1.94-6.9 2.27a.81.81 0 00-.73.94l.91 5.38q.17 1.04-.61.33l-2.68-2.43q-.5-.47-.48.22c.72 18.64 2.4 37.01.06 56.1q-1.01 8.29-6 27.59c-2.42 9.34-3.86 17.41-5 26.34a.74.74 0 01-1.2.48l-1.94-1.58q-.44-.36-.37.21 1.19 9.26-2.1 18.1a.49.49 0 01-.83.14l-2.86-3.41a.5.5 0 00-.72-.05q-1.19 1.12-1.2 2.75c-.1 20.68-12.53 33.19-22.4 49.02a1.22 1.19-35 00-.17.9q3.24 16.2 9.34 31.48.99 2.48.86 4.69c-.39 6.65-1.96 9.74-8.99 10.4q-16.29 1.52-32.65.8-2.87-.13-6.61.51-7.27 1.24-14.54.03c-5.93-.99-12.13-.67-17.91.31q-3.7.62-7.45.27c-3.4-.32-4.32-2.83-8.44-1.7-6.22 1.7-15.13.73-21.65.5a1.12 1.12 0 01-1.03-1.44q4.41-15.09 14.55-26.89c6.64-7.72 20.31-15.5 21.67-26.52.78-6.34-2.77-9.5-5.06-14.45q-4.94-10.67-11.94-20.16c-1-1.36-1.54-3.28-2.78-4.77a.32.32 0 00-.56.19l-.11 2.18q-.05.83-.57.19-3.31-4-3.12-9.17a.65.64 4.4 00-.57-.66l-3.13-.36a.86.85-70 01-.61-1.32c6.55-9.96 10.19-22.08 8.56-34.17a.92.91-4.6 00-.93-.79c-6.2.21-14.1 1.16-19.64-2.19q-1.03-.62-.47.44l.9 1.73a.59.58 71.4 01-.42.85q-2.31.37-4.35-.82a.97.96-44.1 00-.93-.01l-1.06.55a.8.79-41.8 01-.81-.04l-6.22-4.11a.77.76 32.8 00-1.05.22q-5.17 7.8-8.88 15.91c-2.31 5.06-3.66 12.02-6.33 17.87a.93.9-50.3 00.07.87c2.89 4.43 3.61 9.02 6.83 13.14a.43.43 0 01-.2.67l-1.46.49a.65.64-27.4 00-.32 1l3.46 4.61q.43.57-.29.6l-2.72.11a.44.44 0 00-.42.49q.04.3.29.45 5.03 2.89 8.79 6.52a.46.45-38.4 01-.09.72l-11.29 6.65a.25.24 47 00-.01.41c3.83 2.49 8.24 4.7 10.55 8.8a.57.57 0 01-.31.82l-1.54.51q-.58.18-.08.53l1.01.69a1.17 1.16-76.8 01.49.8q.44 3.01 2.55 5.11.74.73-.3.72h-4.52q-.74 0-.28.58c1.7 2.13 7.04 10.23 6.09 13.76a.46.46 0 01-.74.24l-1.58-1.32a.6.6 0 00-.96.64q.86 2.85 1.21 5.54c1.12 8.55 5.3 13.87 7.67 21.6a1.67 1.61-46 010 .97q-3.16 9.96-13.25 9.97c-29.56.03-59.78 1.12-89.26-.39-2.71-.14-5.03-1.63-7.54-1.68q-7.82-.17-15.7-.42a1.29 1.29 0 01-1.12-1.86q1.55-3.15 3.12-6.25c3.3-6.48 11.21-14.34 16.96-18.8 5.64-4.39 11.37-9.35 17.09-12.38q5.61-2.98 11.55-4.94a.64.64 0 00.01-1.21c-17.6-6.35-31.91-28.06-37.72-44.92-1.14-3.3-3.3-6.82-4.19-10.71q-2.77-12.23-4.18-24.76a.49.49 0 00-.86-.26l-2.4 2.79a.68.68 0 01-1.19-.51q.31-3.01-.89-5.76a1.16 1.12 44 01-.03-.86l.95-2.51a.52.52 0 00-.44-.69l-1.81-.14a.52.51-79.2 01-.45-.67q5.99-19.13 4.2-39.2a.6.6 0 00-.65-.54q-3.89.37-4.95 4.13a.25.25 0 01-.49-.08q.62-11.13 6.43-20.02zM301.77 99.97q1.91-.21 2.89-1.7a1.35 1.33-35.2 00.18-1.01l-1.21-5.16a1.08 1.05-35.9 01.14-.81l1.12-1.78a.72.71 40.6 00-.07-.87c-2.79-3.03-7.61-7.93-11.74-8.74q-1.79-.35-3.57-.92a1.53 1.5-45.6 00-.96.02q-4.33 1.61-8.82.5a1 .98-61.2 00-.96.29l-2.58 2.87a2.04 2.03 13 01-.95.59q-1.65.48-2.11 2.27a.69.68-9.5 001.04.74l5.11-3.38a.35.35 0 01.55.27l.09 1.28a.57.57 0 00.75.5c3.35-1.13 13.28-1.5 15.9 1.06a.57.57 0 010 .81l-.96.96a.92.92 0 00.13 1.41l3.8 2.65a.74.73 32.9 01.21.97l-1.05 1.8a1.1 1.04-38 00-.12.79c1.31 5.56-.85 6.45-4.02 10.12a1 .98 23.1 01-.87.34q-4.93-.52-9.77.52a.53.52 49.7 00-.08 1c16.67 6.73 26.17 21.28 32.74 38.08q.55 1.38 1.12 4.49a.42.42 0 00.63.28l6.3-3.71a.66.66 0 00.29-.78q-3.08-9.56-7.96-18.29c-3.62-6.49-10.01-11.55-15.79-16.12q-1.4-1.1-1.85-4.18a.92.91 67.1 01.35-.88l1.89-1.44a.64.62 67 00.24-.62l-.62-3.43a.68.67-8.4 01.59-.79zm-73.32 53.43a.18.18 0 00.21-.06q4.83-6.07 6.76-13.57.21-.84-.22-.1-.86 1.44-1.93 2.71c-2.52 3-4.41 6.31-6.27 9.74a.59.58-65.1 00.3.83l1.15.45zm93.33 14.66c-4.26 4.85-12.3 6.46-19.81 8.84q-.49.15.02.16c8.66.2 25.33-3.52 29.27-12.54a1.47 1.4 50.9 00.07-.92l-3.58-13.81a1.16 1.16 0 00-1.81-.64q-7.95 5.8-17.66 7.25a.38.38 0 00.02.76q5.39.48 10.62-.86a1.34 1.34 0 011.67 1.1l1.43 9.83a1.04 1.04 0 01-.24.83zm-96.97-7.72q3.95.24 7.73 1.38c4.36 1.31 8.32 1.5 12.57 2.47a.51.51 0 00.62-.41c.11-.58-.48-.99-1.05-1.1q-11.28-2.05-20.53-7.58a1.65 1.64-78.7 00-2.47 1.65q.91 6.5-.2 13.04a1.43 1.42 35.1 00.17.96c2.18 3.75 3.88 2.96 7.22 4.73 4.45 2.35 10.14 3.23 15.09 3.93q.55.07.23-.38-.56-.78-1.51-1.02-9.21-2.36-17.06-6.04c-3.21-1.51-1.63-3.54-1.65-5.88q-.03-2.64.28-5.28a.53.53 0 01.56-.47zM423 398.54q-.6-.24-1.2.08a.91.89-12.6 00-.48.74l-1.04 19.42a.44.44 0 00.44.46l.74.01q-.75 5.66-4.2 11.19-1.77 2.83-1.25-.46.4-2.56 1.21-4.99a.38.37-7.3 00-.56-.43c-7.25 4.63-13.76 9.18-15.1 18.35q-.08.53.36.23 5.67-3.77 9.39-9.41.36-.54.49.09c.89 4.3-4.98 18.85-3.54 20.16a.36.36 0 00.57-.13q1.06-2.53 3.58-3.55.61-.25.48.39-3.71 18.26-13.81 33.88-4.76 7.35-9.44 14.79c-4.25 6.77-11.4 11.29-18.46 14.86a.61.61 0 00.38 1.15c12.81-2.07 22.49-8.94 29.76-19.51 5.97-8.69 13.36-18.72 14.79-29.42.77-5.82.37-11.32 5.03-16.04a1.23 1.22 20.8 01.83-.37l2.19-.11a.79.79 0 00.74-.69q.63-5.16-.34-10.3a1.32 1.28 54.8 01.14-.88q1.16-2.14 3.61-2.65a.71.71 0 00.53-.53c1.97-8.97 3.56-16.59 6.23-26.76q6.16-23.35 5.04-47.67-.37-8-.79-25.94c-.15-6.37.84-11.31 8.14-11.35a.46.45-3.5 00.45-.5c-.83-7.56-6.13-6.18-8.78-11.45-1.12-2.21.11-4.79-.81-7.33q-.78-2.16-1.14-4.52a.81.8-85.9 00-.55-.64c-3.32-1.13-7.76-2.4-9.8-5.5-5.31-8.04-10.05-16.33-15.69-24.15q-3.5-4.85-4.66-10.75c-1.1-5.54-3.12-9.22-6.18-13.56-.94-1.33-.73-2.07-.94-3.57-.62-4.57-4.94-10.73-7.83-14.25-1.94-2.36-3.21-5.16-.14-7.1a1.01 1.01 0 00-.01-1.72q-6.2-3.79-13.25-5.77a1.05 1.04 87 01-.7-.64q-1.13-3.07-.57-6.28a.48.47-86.5 00-.48-.55q-4.26.13-6.68-3.09c-1.95-2.61-4.49-1.53-6.77-1.98-5.35-1.08-6.92-4.25-11.44-5.95q-13-4.9-21.74-15.82a.57.57 0 01.14-.84l1.83-1.13a.08.07 75.1 00.03-.06v-.25a.12.12 0 00-.07-.11l-4.97-2.14a1.03 1.01 43.9 00-.85.01l-5.8 2.65a1.49 1.49 0 00-.73.73c-1.13 2.53 1.15 6.25 3.01 9.75 1 1.89 2.7 2.62 4 4.4 1.65 2.25 3.41 3.49 5.06 5.49q.34.4-.16.21l-9.38-3.64a.49.49 0 00-.64.63q2.35 6 6.75 10.4c.3.31.54 1.25.47 1.65a.52.51-79.9 01-.59.42l-2.78-.48q-.98-.18-.56.73 1.5 3.24 4.53 5.15a.6.59 37.8 01.12.92l-.36.38a.92.92 0 01-.89.26q-.76-.2-1.6-.17-1.35.03-.28.86l5.3 4.1a.57.57 0 00.89-.63l-1.99-5.86a.49.48 87.9 01.58-.63q7.4 1.98 15.07.51a.56.55 66.7 00.34-.87l-1.06-1.48q-.32-.43-.75-.75l-3.83-2.83q-.36-.27.08-.33l3.68-.51q.47-.07.95.02c2.44.48 6.63-1.02 8.57.33q.43.3-.09.41l-2.52.58a.74.74 0 00-.15 1.39c3.93 1.85 7.5 3.77 11.7 5.15q10.18 3.33 19.66 8.47.88.47-.08.73l-1.49.4a.35.34 62.2 00-.17.56q1.24 1.46 2.22 3.86 7.02 17.14 9.99 34.82a.5.5 0 001-.09l-.09-11.96q0-.25.17-.07 2.9 3 6.01 8.54 6.7 11.94 9.57 25.94a.65.64 59.9 001.12.3l.9-1.04a.43.42 43.3 01.63-.01c2.98 3.1 4.71 13.85 7.08 15.17a.37.36-73.6 00.54-.3l.18-3a.53.52 28.4 01.95-.28q3.69 5 8.24 9.23 1.44 1.34-.4.66l-3.68-1.36a.48.47-71.9 00-.62.32q-.18.62.21 1.15c2.94 4 5.61 7.13 6.88 11.7.46 1.69 2.06 5.25.97 6.73a.65.64 38 01-.92.11l-1.78-1.44a.43.42 18.4 00-.69.34c.15 4.68 2.11 9.15 2.22 13.57q.21 8.42.29 24.76c.07 13.83-1.75 25.83-4.56 38.83a.52.52 0 01-1.02-.07l-.36-4.32a.49.49 0 00-.94-.17l-1.83 4.01zM211.08 211.3q4.8-.89 7.61-4.88a.52.52 0 01.89.07l3.33 6.84q.24.51.32-.05 1.1-8.48 5.17-16c.53-.98.61-2.25.66-3.33a.37.37 0 00-.49-.36l-1.45.49q-.73.26-.53-.5l2.32-8.61a.62.61 22 01.89-.37l.87.48a.18.18 0 00.25-.1l.09-.25a.53.53 0 00-.26-.66l-3.8-1.84a.31.31 0 00-.45.31c.3 3.53-2.15 8.66-3.22 11.93a1.69 1.66-44.4 00-.02.98q.42 1.52-.22 2.95a1.11 1.1-87.9 01-.62.58c-4.67 1.76-9.38 3.75-14.14 5.27q-3.21 1.03-3.21 4.47a1.26 1.25 66.4 01-.33.85c-3.74 4.12-8.22 8.06-7.32 13.4a1.97 1.91-40.2 01-.1 1.02q-2.43 6.49-2.6 13.43a.26.25 54 00.5.08c.6-2.11 6.03-18.31 7.99-18.11a.63.62 1.1 01.55.57l.31 3.33q.12 1.31.69.13l5.58-11.55a1.05 1.05 0 01.74-.57zm106.584-23.331a2.77 1.06 57.6 00-.589-2.907 2.77 1.06 57.6 00-2.38-1.77 2.77 1.06 57.6 00.59 2.906 2.77 1.06 57.6 002.38 1.77zm1.85 22.384a4.74 1.01 39 00-3.048-3.768 4.74 1.01 39 00-4.32-2.198 4.74 1.01 39 003.048 3.768 4.74 1.01 39 004.32 2.198zm-90.294-4.823c-1.58 3.67-4.22 13.41-1.5 16.44q.81.91 1.03-.29 1.48-8 .71-16.11a.13.13 0 00-.24-.04zm99.83 14.77a.32.32 0 00.27-.57l-5.67-4.15a.32.32 0 00-.46.43l2.01 3.2a.32.32 0 00.19.14l3.66.95zm-3.8 3.12a2.23.72 52.1 00-.802-2.202 2.23.72 52.1 00-1.938-1.318 2.23.72 52.1 00.802 2.202 2.23.72 52.1 001.938 1.318zm20.33 169.88q-1.21-1.57-1.09-3.51a.41.4-9.1 00-.56-.4c-1.36.58 1.18 14.44 1.42 16.43.38 3.12 3.89 1.31 5.07-.2a1.14 1.14 0 00.22-.9c-.35-1.9-1.5-8.14-.68-8.76a1.35 1.33 79.4 00.5-.74q2.5-9.17 5.09-18.32c1.66-5.84 1.75-11.44 1.38-17.09-1.2-18.25.97-36.08 2.18-53.98a1.35 1.33-21.3 01.36-.8l4.43-4.47a1.22 1.21 64.7 00.34-.96c-.46-4.62-7.8-9.2-11.9-9.5-3.92-.28-.72 2.73.17 3.49a.61.6-53.5 01.11.79q-2.91 4.54-2.76 10.13.03 1.1.52.12l1.18-2.4a.3.29 55.8 01.56.11c.4 4.75.2 8.4-1.51 13.04-1.78 4.81-5.15 10.45-4.6 15.59a.52.52 0 00.7.44l1.48-.54a.23.23 0 01.3.25q-1.28 7.54-1.03 15.2.07 2.13-.74 4.19-2.64 6.71-3.12 14.01-.07.99-.47.08l-1.91-4.38a.5.5 0 00-.95.18q-.22 6.13 1.22 12.09a1.09 1.09 0 002.12-.04l1.38-6.62q.12-.56.37-.05c2.18 4.43 4.15 10.98 2.42 15.8q-.67 1.87-1.35 3.74-.17.47-.19.97l-.2 6.86q-.02.7-.46.15zm64.15-100.59c-.16 5.07 3.3 9.2 8.28 10.13q.62.11.32-.44-3.13-5.7-8.06-9.93-.52-.44-.54.24zm-23.97 32.59q.07-1.32-.97-3.12-2.69-4.64-4.44-7.52c-3.74-6.13-6.46-12.68-10.66-18.68a.32.32 0 00-.57.24c2.2 11.59 8.65 20.49 16.24 29.22q.37.42.4-.14zm-9.99 22.12c1.58-.64 2.22-10.15 2.58-12.26a1.4 1.38 75.9 01.51-.86l3.22-2.5a2.24 2.23 47.6 00.15-3.4q-6.67-6.21-11-14.69c-1.23-2.39-2.23-6-3.9-8.85a.62.62 0 00-.74-.27q-2.23.84-2.32 2.91-.72 16.21-1.98 32.38c-.79 10.05-.16 19.59.2 29.51.11 3.05-.75 5.95-1.83 9.22-.69 2.07-.26 4.06-.86 6.11q-1.96 6.77-2.33 13.88a.54.53 71.5 00.88.44l3.15-2.67a.96.95 66.6 00.33-.84c-.54-4.44.66-8.91 1.11-12.91q.44-3.87 1.85-6.07c5.31-8.27 12.63-18.8 10.63-28.49a.56.56 0 01.35-.64zM207 366.69a1.1 1.1 0 01-1.62 1.36l-6.67-4.5q-.43-.29-.39.23.35 4.27 2.67 7.24c5.72 7.32 9.69 12.32 10.34 22.09a.39.39 0 00.73.15q2.9-5.69 6.67-10.83a1.14 1.12 55.4 00.17-.97q-5.38-18.3-11.18-36.47c-1.85-5.8 4.01-11.78 8.22-17.55 3.16-4.36 5.74-12.2 9.51-18.97q.25-.45-.2-.21-4.33 2.28-6.02 5.49-7.63 14.47-19.35 22.95a1.14 1.12-15.5 00-.46.8c-.92 8.65 4.12 21.49 7.58 29.19zm20.25-51.79q-1.53 3.87-3.14 7.73c-2.53 6.09-6.45 10.99-10.53 16.01-1.15 1.41-1.81 3.78-1.29 5.31q3.97 11.57 7.44 23.31 1.1 3.74 3.3 7.13a.31.3-46.8 00.52-.02q6.28-11.43 8.19-14.63 2.21-3.72-.4-6.93a.69.68 44.7 01-.01-.84l3.39-4.39a1.29 1.27-32.2 00.24-1.02c-.55-2.76.74-5.07.85-7.19q.5-9.66-3.48-18.41-1.64-3.63-4.51-6.19a.36.36 0 00-.57.13zm13.37 19.53c-.13 3.82.75 7.97-.16 11.86-.54 2.29-2.65 3.81-2.06 6.78a.59.59 0 001.07.21c3.44-5.19 6.97-13.85 4.7-20.01-1.94-5.29-3.38-11.37-7.01-15.88q-.33-.41-.23.1c1.11 5.56 3.93 9.86 3.69 16.94zm147.66.55q-.54 1.75.33 3.29.7 1.22.9-.17l1.74-12.18a.24.24 0 00-.45-.13q-2.75 6.13-7.15 11.24a1.45 1.4-23 00-.34.8c-.61 7.23-2.86 13.57-4.25 20.74q-.93 4.74-2.85 7.88c-6.04 9.86-9.83 15.36-9.56 26.4q.08 3.33-1.59 6.27-.31.56.31.41l2.55-.61a.88.87-3 00.67-.73q1.04-7.85 2.18-15.69c.44-3.03 7.1-10.94 9.17-13.78 5.75-7.89 6.02-18.79 5.82-27.96q-.06-3.19 2.08-6.01.85-1.13.44.23zM247.16 480.5l-4.06-2.36a.46.46 0 00-.69.34q-.44 3.16 1.26 5.62 5.31 7.66 7.33 15.98.13.53-.01 1.05-.51 1.97.16 3.91a.54.54 0 01-.51.71h-1a.63.62-1.7 00-.63.66q.25 4.83 3.11 8.43c4.38 5.51 5.6 13.05 3.37 19.39q-.41 1.15.52 1.8a.73.72 41.5 00.91-.05l2.69-2.42a.61.61 0 011 .34c1.11 5.79 2.06 11.15-3.26 15.13q-.39.3.1.32c6.84.33 13.01 1.06 15.95-5.66a.96.94-49.4 00-.06-.88q-5.9-9.47-7.51-20.44c-.64-4.38-3.13-6.73-.24-11.47a.69.68-49.7 00-.06-.79c-2.8-3.28-5.05-5.76-4.45-9.61a1.47 1.47 0 011.65-1.23l3.11.43q.65.08.36-.51-1.32-2.7-3.72-4.55a1.13 1.13 0 01-.45-.88l-.04-1.96a.81.8-79.5 00-.5-.73q-6.61-2.61-10.49-8.55a.36.35-25.9 01.19-.53c5.3-1.71 9.03-3.13 12-5.96a.42.42 0 00-.05-.65q-4.03-2.71-5.83-7.22a.46.46 0 01.41-.63l1.84-.04q1.53-.04.3-.95l-2.17-1.6q-.41-.31-.64-.77-.76-1.57-1.14-3.3c-.82-3.67-2.94-6.77-4.45-10.2a.98.98 0 00-.68-.56q-1.55-.33-1.66-1.46c-.22-2.08 4.72-6.3 5.28-9.32 1.46-7.86 5.58-14.84 9.11-21.91 1.91-3.84 5.21-10.17 10.54-8.83a1.7 1.67-11.9 01.86.55q3.81 4.7 8.6 1.14a2.4 2.4 0 012.38-.27c6.67 2.9 12.09 2 19.08 1.74a1.07 1.07 0 00.96-1.44l-1.96-5.32a.54.54 0 00-.79-.27l-4.89 3.02a.66.66 0 00-.22.9l.8 1.36a.6.59-37.7 01-.1.73c-1.68 1.63-6.05-6.58-7.6-5.92a1.2 1.19-3.3 00-.67.75l-.15.47a.67.66 15.1 01-.8.45q-4.1-1.07-7.52-3.57a.94.92 56.4 00-.77-.16q-1.3.3-1.26 1.71a.63.62 86.1 01-.56.65c-8 .95-11.94-5.97-16.85-10.79q-.36-.36-.41.14c-.58 5.57 4.37 9.25 1 14.67q-7.86 12.61-19.62 33.13-2.7 4.7-3.93 7.82a.83.82-54.6 00.14.85c3.22 3.83 7.26 7.58 8.97 12.11q1.37 3.63 1.91 7.55a.77.77 0 01-.46.81l-1.01.42a.59.58 70.6 00-.33.71c.23.79 1.71 4.72 1.16 5.18a.53.53 0 01-.7-.02l-1.59-1.49a.77.77 0 00-1.25.81l1.11 3.14q.27.75-.42.35zm114.56-71.81c-5.93.01-11.53 3.63-16.34 6.74-5.66 3.67-7.02 13.48-6.73 19.82q.07 1.58.46 2.37a.78.77 40.9 001.43-.1c1.51-4.56 3.93-15.88 7.29-18.67q6.67-5.54 14.04-9.6a.3.3 0 00-.15-.56zm45.38 6.11c-2.6 3.24-9.41 10.07-9.1 13.59a.56.56 0 00.92.39c4.65-3.83 9.89-6.67 8.79-13.81q-.12-.78-.61-.17zm-35.35 85.07q5.92 1.66 10.57-1.36c2.16-1.41 2.54-12.05 2.78-14.71a.26.26 0 00-.5-.13c-3.1 7.15-5.19 12.58-12.88 15.39a.43.43 0 00.03.81zm18.77 32.55c1.4 6.23-1.8 12.7-5.48 17.45a.51.51 0 00.38.83q6.12.35 12.5-.55c5.56-.79 5.98-3.96 5.1-8.91q-2.56-14.35-8.25-27.86a.57.57 0 00-.83-.26l-5.91 3.66a.79.77-20.8 00-.37.8q1.22 7.51 2.86 14.84z"/><path fill="#9b9ea0" d="M301.18 100.76l.62 3.43a.64.62 67 01-.24.62l-1.89 1.44a.92.91 67.1 00-.35.88q.45 3.08 1.85 4.18c5.78 4.57 12.17 9.63 15.79 16.12q4.88 8.73 7.96 18.29a.66.66 0 01-.29.78l-6.3 3.71a.42.42 0 01-.63-.28q-.57-3.11-1.12-4.49c-6.57-16.8-16.07-31.35-32.74-38.08a.53.52 49.7 01.08-1q4.84-1.04 9.77-.52a1 .98 23.1 00.87-.34c3.17-3.67 5.33-4.56 4.02-10.12a1.1 1.04-38 01.12-.79l1.05-1.8a.74.73 32.9 00-.21-.97l-3.8-2.65a.92.92 0 01-.13-1.41l.96-.96a.57.57 0 000-.81c-2.62-2.56-12.55-2.19-15.9-1.06a.57.57 0 01-.75-.5l-.09-1.28a.35.35 0 00-.55-.27l-5.11 3.38a.69.68-9.5 01-1.04-.74q.46-1.79 2.11-2.27a2.04 2.03 13 00.95-.59l2.58-2.87a1 .98-61.2 01.96-.29q4.49 1.11 8.82-.5a1.53 1.5-45.6 01.96-.02q1.78.57 3.57.92c4.13.81 8.95 5.71 11.74 8.74a.72.71 40.6 01.07.87l-1.12 1.78a1.08 1.05-35.9 00-.14.81l1.21 5.16a1.35 1.33-35.2 01-.18 1.01q-.98 1.49-2.89 1.7a.68.67-8.4 00-.59.79zM228.45 153.4l-1.15-.45a.59.58-65.1 01-.3-.83c1.86-3.43 3.75-6.74 6.27-9.74q1.07-1.27 1.93-2.71.43-.74.22.1-1.93 7.5-6.76 13.57a.18.18 0 01-.21.06zM322.02 167.23l-1.43-9.83a1.34 1.34 0 00-1.67-1.1q-5.23 1.34-10.62.86a.38.38 0 01-.02-.76q9.71-1.45 17.66-7.25a1.16 1.16 0 011.81.64l3.58 13.81a1.47 1.4 50.9 01-.07.92c-3.94 9.02-20.61 12.74-29.27 12.54q-.51-.01-.02-.16c7.51-2.38 15.55-3.99 19.81-8.84a1.04 1.04 0 00.24-.83zM224.25 160.81q-.31 2.64-.28 5.28c.02 2.34-1.56 4.37 1.65 5.88q7.85 3.68 17.06 6.04.95.24 1.51 1.02.32.45-.23.38c-4.95-.7-10.64-1.58-15.09-3.93-3.34-1.77-5.04-.98-7.22-4.73a1.43 1.42 35.1 01-.17-.96q1.11-6.54.2-13.04a1.65 1.64-78.7 012.47-1.65q9.25 5.53 20.53 7.58c.57.11 1.16.52 1.05 1.1a.51.51 0 01-.62.41c-4.25-.97-8.21-1.16-12.57-2.47q-3.78-1.14-7.73-1.38a.53.53 0 00-.56.47zM421.46 419.25c1.24-6.87.69-13.79 1.54-20.71l1.83-4.01a.49.49 0 01.94.17l.36 4.32a.52.52 0 001.02.07c2.81-13 4.63-25 4.56-38.83q-.08-16.34-.29-24.76c-.11-4.42-2.07-8.89-2.22-13.57a.43.42 18.4 01.69-.34l1.78 1.44a.65.64 38 00.92-.11c1.09-1.48-.51-5.04-.97-6.73-1.27-4.57-3.94-7.7-6.88-11.7q-.39-.53-.21-1.15a.48.47-71.9 01.62-.32l3.68 1.36q1.84.68.4-.66-4.55-4.23-8.24-9.23a.53.52 28.4 00-.95.28l-.18 3a.37.36-73.6 01-.54.3c-2.37-1.32-4.1-12.07-7.08-15.17a.43.42 43.3 00-.63.01l-.9 1.04a.65.64 59.9 01-1.12-.3q-2.87-14-9.57-25.94-3.11-5.54-6.01-8.54-.17-.18-.17.07l.09 11.96a.5.5 0 01-1 .09q-2.97-17.68-9.99-34.82-.98-2.4-2.22-3.86a.35.34 62.2 01.17-.56l1.49-.4q.96-.26.08-.73-9.48-5.14-19.66-8.47c-4.2-1.38-7.77-3.3-11.7-5.15a.74.74 0 01.15-1.39l2.52-.58q.52-.11.09-.41c-1.94-1.35-6.13.15-8.57-.33q-.48-.09-.95-.02l-3.68.51q-.44.06-.08.33l3.83 2.83q.43.32.75.75l1.06 1.48a.56.55 66.7 01-.34.87q-7.67 1.47-15.07-.51a.49.48 87.9 00-.58.63l1.99 5.86a.57.57 0 01-.89.63l-5.3-4.1q-1.07-.83.28-.86.84-.03 1.6.17a.92.92 0 00.89-.26l.36-.38a.6.59 37.8 00-.12-.92q-3.03-1.91-4.53-5.15-.42-.91.56-.73l2.78.48a.52.51-79.9 00.59-.42c.07-.4-.17-1.34-.47-1.65q-4.4-4.4-6.75-10.4a.49.49 0 01.64-.63l9.38 3.64q.5.19.16-.21c-1.65-2-3.41-3.24-5.06-5.49-1.3-1.78-3-2.51-4-4.4-1.86-3.5-4.14-7.22-3.01-9.75a1.49 1.49 0 01.73-.73l5.8-2.65a1.03 1.01 43.9 01.85-.01l4.97 2.14a.12.12 0 01.07.11v.25a.08.07 75.1 01-.03.06l-1.83 1.13a.57.57 0 00-.14.84q8.74 10.92 21.74 15.82c4.52 1.7 6.09 4.87 11.44 5.95 2.28.45 4.82-.63 6.77 1.98q2.42 3.22 6.68 3.09a.48.47-86.5 01.48.55q-.56 3.21.57 6.28a1.05 1.04 87 00.7.64q7.05 1.98 13.25 5.77a1.01 1.01 0 01.01 1.72c-3.07 1.94-1.8 4.74.14 7.1 2.89 3.52 7.21 9.68 7.83 14.25.21 1.5 0 2.24.94 3.57 3.06 4.34 5.08 8.02 6.18 13.56q1.16 5.9 4.66 10.75c5.64 7.82 10.38 16.11 15.69 24.15 2.04 3.1 6.48 4.37 9.8 5.5a.81.8-85.9 01.55.64q.36 2.36 1.14 4.52c.92 2.54-.31 5.12.81 7.33 2.65 5.27 7.95 3.89 8.78 11.45a.46.45-3.5 01-.45.5c-7.3.04-8.29 4.98-8.14 11.35q.42 17.94.79 25.94 1.12 24.32-5.04 47.67c-2.67 10.17-4.26 17.79-6.23 26.76a.71.71 0 01-.53.53q-2.45.51-3.61 2.65a1.32 1.28 54.8 00-.14.88q.97 5.14.34 10.3a.79.79 0 01-.74.69l-2.19.11a1.23 1.22 20.8 00-.83.37c-4.66 4.72-4.26 10.22-5.03 16.04-1.43 10.7-8.82 20.73-14.79 29.42-7.27 10.57-16.95 17.44-29.76 19.51a.61.61 0 01-.38-1.15c7.06-3.57 14.21-8.09 18.46-14.86q4.68-7.44 9.44-14.79 10.1-15.62 13.81-33.88.13-.64-.48-.39-2.52 1.02-3.58 3.55a.36.36 0 01-.57.13c-1.44-1.31 4.43-15.86 3.54-20.16q-.13-.63-.49-.09-3.72 5.64-9.39 9.41-.44.3-.36-.23c1.34-9.17 7.85-13.72 15.1-18.35a.38.37-7.3 01.56.43q-.81 2.43-1.21 4.99-.52 3.29 1.25.46 3.45-5.53 4.2-11.19zM210.34 211.87l-5.58 11.55q-.57 1.18-.69-.13l-.31-3.33a.63.62 1.1 00-.55-.57c-1.96-.2-7.39 16-7.99 18.11a.26.25 54 01-.5-.08q.17-6.94 2.6-13.43a1.97 1.91-40.2 00.1-1.02c-.9-5.34 3.58-9.28 7.32-13.4a1.26 1.25 66.4 00.33-.85q0-3.44 3.21-4.47c4.76-1.52 9.47-3.51 14.14-5.27a1.11 1.1-87.9 00.62-.58q.64-1.43.22-2.95a1.69 1.66-44.4 01.02-.98c1.07-3.27 3.52-8.4 3.22-11.93a.31.31 0 01.45-.31l3.8 1.84a.53.53 0 01.26.66l-.09.25a.18.18 0 01-.25.1l-.87-.48a.62.61 22 00-.89.37l-2.32 8.61q-.2.76.53.5l1.45-.49a.37.37 0 01.49.36c-.05 1.08-.13 2.35-.66 3.33q-4.07 7.52-5.17 16-.08.56-.32.05l-3.33-6.84a.52.52 0 00-.89-.07q-2.81 3.99-7.61 4.88a1.05 1.05 0 00-.74.57z"/><ellipse fill="#9b9ea0" transform="rotate(57.6 -10.74 380.38)" rx="2.77" ry="1.06"/><ellipse fill="#9b9ea0" transform="rotate(39 -134.882 549.623)" rx="4.74" ry="1.01"/><path fill="#9b9ea0" d="M229.22 205.53a.13.13 0 01.24.04q.77 8.11-.71 16.11-.22 1.2-1.03.29c-2.72-3.03-.08-12.77 1.5-16.44zM329.05 220.3l-3.66-.95a.32.32 0 01-.19-.14l-2.01-3.2a.32.32 0 01.46-.43l5.67 4.15a.32.32 0 01-.27.57z"/><ellipse fill="#9b9ea0" transform="rotate(52.1 -64.793 442.122)" rx="2.23" ry=".72"/><path d="M187.53 259.6q-2.31 11.12-6.33 21.71c-3.63 9.58-10.54 18.83-13.9 28.89-.87 2.63-3.18 3.65-4.37 5.73-4.73 8.29-4.89 19.24-6.27 28.42-.21 1.44-1.24 2.69-1.16 3.99q.45 6.73-.22 10.42-.61 3.43-3.9 2.83 1.37-1.64 1.54-2.6 1.93-10.97 5.27-34.25.54-3.72 4.18-10.89.23-.44.63-.72c4.14-2.92 6.01-10.85 8.64-15.31q7.72-13.08 11.64-27.27 1.66-6.01 4.25-10.95z"/><path fill="#9b9ea0" d="M346.04 393.15l.2-6.86q.02-.5.19-.97.68-1.87 1.35-3.74c1.73-4.82-.24-11.37-2.42-15.8q-.25-.51-.37.05l-1.38 6.62a1.09 1.09 0 01-2.12.04q-1.44-5.96-1.22-12.09a.5.5 0 01.95-.18l1.91 4.38q.4.91.47-.08.48-7.3 3.12-14.01.81-2.06.74-4.19-.25-7.66 1.03-15.2a.23.23 0 00-.3-.25l-1.48.54a.52.52 0 01-.7-.44c-.55-5.14 2.82-10.78 4.6-15.59 1.71-4.64 1.91-8.29 1.51-13.04a.3.29 55.8 00-.56-.11l-1.18 2.4q-.49.98-.52-.12-.15-5.59 2.76-10.13a.61.6-53.5 00-.11-.79c-.89-.76-4.09-3.77-.17-3.49 4.1.3 11.44 4.88 11.9 9.5a1.22 1.21 64.7 01-.34.96l-4.43 4.47a1.35 1.33-21.3 00-.36.8c-1.21 17.9-3.38 35.73-2.18 53.98.37 5.65.28 11.25-1.38 17.09q-2.59 9.15-5.09 18.32a1.35 1.33 79.4 01-.5.74c-.82.62.33 6.86.68 8.76a1.14 1.14 0 01-.22.9c-1.18 1.51-4.69 3.32-5.07.2-.24-1.99-2.78-15.85-1.42-16.43a.41.4-9.1 01.56.4q-.12 1.94 1.09 3.51.44.55.46-.15zM418.01 302.84c-4.98-.93-8.44-5.06-8.28-10.13q.02-.68.54-.24 4.93 4.23 8.06 9.93.3.55-.32.44zM385.36 325.44c-7.59-8.73-14.04-17.63-16.24-29.22a.32.32 0 01.57-.24c4.2 6 6.92 12.55 10.66 18.68q1.75 2.88 4.44 7.52 1.04 1.8.97 3.12-.03.56-.4.14z"/><path fill="#fbfee1" d="M375.42 348.06c2 9.69-5.32 20.22-10.63 28.49q-1.41 2.2-1.85 6.07c-.45 4-1.65 8.47-1.11 12.91a.96.95 66.6 01-.33.84l-3.15 2.67a.54.53 71.5 01-.88-.44q.37-7.11 2.33-13.88c.6-2.05.17-4.04.86-6.11 1.08-3.27 1.94-6.17 1.83-9.22-.36-9.92-.99-19.46-.2-29.51q1.26-16.17 1.98-32.38.09-2.07 2.32-2.91a.62.62 0 01.74.27c1.67 2.85 2.67 6.46 3.9 8.85q4.33 8.48 11 14.69a2.24 2.23 47.6 01-.15 3.4l-3.22 2.5a1.4 1.38 75.9 00-.51.86c-.36 2.11-1 11.62-2.58 12.26a.56.56 0 00-.35.64z"/><path fill="#9b9ea0" d="M207 366.69c-3.46-7.7-8.5-20.54-7.58-29.19a1.14 1.12-15.5 01.46-.8q11.72-8.48 19.35-22.95 1.69-3.21 6.02-5.49.45-.24.2.21c-3.77 6.77-6.35 14.61-9.51 18.97-4.21 5.77-10.07 11.75-8.22 17.55q5.8 18.17 11.18 36.47a1.14 1.12 55.4 01-.17.97q-3.77 5.14-6.67 10.83a.39.39 0 01-.73-.15c-.65-9.77-4.62-14.77-10.34-22.09q-2.32-2.97-2.67-7.24-.04-.52.39-.23l6.67 4.5a1.1 1.1 0 001.62-1.36z"/><path fill="#fbfee1" d="M227.82 314.77q2.87 2.56 4.51 6.19 3.98 8.75 3.48 18.41c-.11 2.12-1.4 4.43-.85 7.19a1.29 1.27-32.2 01-.24 1.02l-3.39 4.39a.69.68 44.7 00.01.84q2.61 3.21.4 6.93-1.91 3.2-8.19 14.63a.31.3-46.8 01-.52.02q-2.2-3.39-3.3-7.13-3.47-11.74-7.44-23.31c-.52-1.53.14-3.9 1.29-5.31 4.08-5.02 8-9.92 10.53-16.01q1.61-3.86 3.14-7.73a.36.36 0 01.57-.13z"/><path fill="#9b9ea0" d="M240.46 346.29c.91-3.89.03-8.04.16-11.86.24-7.08-2.58-11.38-3.69-16.94q-.1-.51.23-.1c3.63 4.51 5.07 10.59 7.01 15.88 2.27 6.16-1.26 14.82-4.7 20.01a.59.59 0 01-1.07-.21c-.59-2.97 1.52-4.49 2.06-6.78zM387.84 334.75q-2.14 2.82-2.08 6.01c.2 9.17-.07 20.07-5.82 27.96-2.07 2.84-8.73 10.75-9.17 13.78q-1.14 7.84-2.18 15.69a.88.87-3 01-.67.73l-2.55.61q-.62.15-.31-.41 1.67-2.94 1.59-6.27c-.27-11.04 3.52-16.54 9.56-26.4q1.92-3.14 2.85-7.88c1.39-7.17 3.64-13.51 4.25-20.74a1.45 1.4-23 01.34-.8q4.4-5.11 7.15-11.24a.24.24 0 01.45.13l-1.74 12.18q-.2 1.39-.9.17-.87-1.54-.33-3.29.41-1.36-.44-.23zM531.27 368.34a.34.34 0 01.68-.03q.08 1.34.05 2.67-.06 2.78-.48.03-.2-1.34-.25-2.67zM247.58 480.15l-1.11-3.14a.77.77 0 011.25-.81l1.59 1.49a.53.53 0 00.7.02c.55-.46-.93-4.39-1.16-5.18a.59.58 70.6 01.33-.71l1.01-.42a.77.77 0 00.46-.81q-.54-3.92-1.91-7.55c-1.71-4.53-5.75-8.28-8.97-12.11a.83.82-54.6 01-.14-.85q1.23-3.12 3.93-7.82 11.76-20.52 19.62-33.13c3.37-5.42-1.58-9.1-1-14.67q.05-.5.41-.14c4.91 4.82 8.85 11.74 16.85 10.79a.63.62 86.1 00.56-.65q-.04-1.41 1.26-1.71a.94.92 56.4 01.77.16q3.42 2.5 7.52 3.57a.67.66 15.1 00.8-.45l.15-.47a1.2 1.19-3.3 01.67-.75c1.55-.66 5.92 7.55 7.6 5.92a.6.59-37.7 00.1-.73l-.8-1.36a.66.66 0 01.22-.9l4.89-3.02a.54.54 0 01.79.27l1.96 5.32a1.07 1.07 0 01-.96 1.44c-6.99.26-12.41 1.16-19.08-1.74a2.4 2.4 0 00-2.38.27q-4.79 3.56-8.6-1.14a1.7 1.67-11.9 00-.86-.55c-5.33-1.34-8.63 4.99-10.54 8.83-3.53 7.07-7.65 14.05-9.11 21.91-.56 3.02-5.5 7.24-5.28 9.32q.11 1.13 1.66 1.46a.98.98 0 01.68.56c1.51 3.43 3.63 6.53 4.45 10.2q.38 1.73 1.14 3.3.23.46.64.77l2.17 1.6q1.23.91-.3.95l-1.84.04a.46.46 0 00-.41.63q1.8 4.51 5.83 7.22a.42.42 0 01.05.65c-2.97 2.83-6.7 4.25-12 5.96a.36.35-25.9 00-.19.53q3.88 5.94 10.49 8.55a.81.8-79.5 01.5.73l.04 1.96a1.13 1.13 0 00.45.88q2.4 1.85 3.72 4.55.29.59-.36.51l-3.11-.43a1.47 1.47 0 00-1.65 1.23c-.6 3.85 1.65 6.33 4.45 9.61a.69.68-49.7 01.06.79c-2.89 4.74-.4 7.09.24 11.47q1.61 10.97 7.51 20.44a.96.94-49.4 01.06.88c-2.94 6.72-9.11 5.99-15.95 5.66q-.49-.02-.1-.32c5.32-3.98 4.37-9.34 3.26-15.13a.61.61 0 00-1-.34l-2.69 2.42a.73.72 41.5 01-.91.05q-.93-.65-.52-1.8c2.23-6.34 1.01-13.88-3.37-19.39q-2.86-3.6-3.11-8.43a.63.62-1.7 01.63-.66h1a.54.54 0 00.51-.71q-.67-1.94-.16-3.91.14-.52.01-1.05-2.02-8.32-7.33-15.98-1.7-2.46-1.26-5.62a.46.46 0 01.69-.34l4.06 2.36q.69.4.42-.35z"/><path d="M423 398.54c-.85 6.92-.3 13.84-1.54 20.71l-.74-.01a.44.44 0 01-.44-.46l1.04-19.42a.91.89-12.6 01.48-.74q.6-.32 1.2-.08z"/><path fill="#9b9ea0" d="M361.72 408.69a.3.3 0 01.15.56q-7.37 4.06-14.04 9.6c-3.36 2.79-5.78 14.11-7.29 18.67a.78.77 40.9 01-1.43.1q-.39-.79-.46-2.37c-.29-6.34 1.07-16.15 6.73-19.82 4.81-3.11 10.41-6.73 16.34-6.74zM407.1 414.8q.49-.61.61.17c1.1 7.14-4.14 9.98-8.79 13.81a.56.56 0 01-.92-.39c-.31-3.52 6.5-10.35 9.1-13.59zM371.75 499.87a.43.43 0 01-.03-.81c7.69-2.81 9.78-8.24 12.88-15.39a.26.26 0 01.5.13c-.24 2.66-.62 13.3-2.78 14.71q-4.65 3.02-10.57 1.36zM385.04 549.87c3.68-4.75 6.88-11.22 5.48-17.45q-1.64-7.33-2.86-14.84a.79.77-20.8 01.37-.8l5.91-3.66a.57.57 0 01.83.26q5.69 13.51 8.25 27.86c.88 4.95.46 8.12-5.1 8.91q-6.38.9-12.5.55a.51.51 0 01-.38-.83z"/></svg>