<svg xmlns="http://www.w3.org/2000/svg" viewBox="0 0 591 591"><g stroke-width="2" fill="none"><path stroke="#111110" vector-effect="non-scaling-stroke" d="M590.06 0l.19.29"/><path stroke="gray" vector-effect="non-scaling-stroke" d="M590.25.29V589.8a.46.45 0 01-.46.45L.66 590.24q-.68 0-.21.5l.24.26"/><path stroke="#7e7f70" vector-effect="non-scaling-stroke" d="M586.25 4.51a.26.26 0 00-.26-.26H4.51a.26.26 0 00-.26.26v581.48a.26.26 0 00.26.26h581.48a.26.26 0 00.26-.26V4.51"/><path stroke="#919090" vector-effect="non-scaling-stroke" d="M591 587.31c-.84-.45-.25-537.06-.25-586.81a.25.24-86.1 00-.21-.25q-.17-.02-.29.04M576.44 591q-2.88-.63-5.75 0M12.44 591q-5.63-.63-11.25 0"/><path stroke="#fbf1c6" vector-effect="non-scaling-stroke" d="M93.39 37.36c-1.04-.55-2.08-1.18-3.27-1.21q-19.69-.41-39.37 0c-14.98.32-23.05 7.39-23.31 22.46q-.37 21.67-.12 43.54a1.11 1.11 0 001.56 1q.29-.13 1.22-1.05 32.14-31.49 63.5-63.37a.86.86 0 00-.21-1.37"/><path stroke="#8f8f80" vector-effect="non-scaling-stroke" d="M216.24 180.8q-9.79 5.3-19.72 10.77c-32.83 18.1-63.03 44.49-81.56 78.04-12.13 21.97-18.92 43.55-21.06 69.36-.92 11.05-.91 23.32.46 34.3q.89 7.02 1.86 14.04c7.95 57.24 42.52 103.03 95.59 125.94a1.65 1.64 7.2 01.98 1.26l1.43 8.82a1.69 1.66 19.8 00.4.83c8.34 9.17 22.1 14.88 34.14 18.31q29.1 8.3 58.49 9.07c19.48.51 38.3.86 57.74-.52 26.52-1.87 57.97-7.61 79.85-24.04 4.13-3.11 5.07-7.95 4.86-12.83a1 .99 76.4 01.57-.95c12.24-5.83 24.69-12.5 35.18-20.45q32.72-24.79 49.2-63.15 8.27-19.23 10.82-35.35c4.84-30.58 5.93-64.33-3.7-94.15-18.11-56.08-61.96-94.44-114.02-118.9a.87.87 0 01.14-1.63c4.26-1.15 21.91-5.02 21.81-11.04-.21-13.51-7.43-19.66-19.57-23.86-12.12-4.19-25.88-5.48-38.51-5.89q-23.68-.77-47.37-1.52c-23.93-.77-48.23.63-72.15 1.61-8.85.36-17.66 1.68-26.53 2.72-4.81.57-21.66 5.28-25.99 11.34-2.59 3.62-8.32 15.03-4.16 18.89 4.93 4.57 14.17 6.48 20.72 8.19a.43.43 0 01.1.79"/><path stroke="#919090" vector-effect="non-scaling-stroke" d="M200.3 166.74c-.12 3.18 8.78 4.97 11.2 5.54 41.36 9.67 80.73 9.06 126.3 8.44q24.97-.34 49.69-3.94c12.3-1.79 25.6-4.19 35.25-8.88a.76.74-14.7 00.43-.72c-.41-7.63-4.1-12.41-11.25-15.45-10.46-4.46-21.91-6.14-33.22-6.46-5.35-.15-11.26-1.35-15.7-1.3-28.86.33-56.9-.76-92.64.05-8.24.18-17.8.92-27.67 1.38-11.85.56-41.69 3.74-42.39 21.34"/><path stroke="#5b5c5c" vector-effect="non-scaling-stroke" d="M260.04 186.25q-1.72-.91-3.54.12"/><path stroke="#919090" vector-effect="non-scaling-stroke" d="M256.5 186.37q-7.63-1.25-15.18-2.47c-3-.48-8.21-.96-10.38-.3q-28.11 8.56-51.72 26.24"/><path stroke="#5b5c5c" vector-effect="non-scaling-stroke" d="M179.22 209.84q-6.66 4.18-12.72 9.37"/><path stroke="#919090" vector-effect="non-scaling-stroke" d="M166.5 219.21c-17.68 14.01-34.25 31.72-45.27 51.47-11.62 20.82-19.86 44.63-21.42 68.57-4.19 64.14 19.19 126.93 77.15 159.77q13.5 7.64 33.04 15.02"/><path stroke="#5b5c5c" vector-effect="non-scaling-stroke" d="M210 514.04q44.03 15.38 90.76 15.33c21.45-.02 42.77.03 63.99-3.58M364.75 525.79c57.5-9.05 110.56-34.27 138.65-87.03 10.88-20.44 16.15-43.03 18.88-64.25 3.97-30.84-1.33-60.51-12.12-88.09a.43.42 63.5 00-.61-.21c-1.72 1.02-7.85 2.71-8.46 3.62a.53.52 19.6 00.39.81l3.19.35a1 1 0 01.79.56q2.45 5.23.1 10.3a.6.6 0 01-.82.28l-1.56-.79a.73.73 0 00-.87.17l-2.62 2.96a.77.77 0 01-1.27-.19l-.62-1.35a.64.64 0 00-.91-.28l-1.7 1.03q-.76.46-.72-.43l.13-2.87q.04-.71-.56-.33-3.95 2.52-8.51 2.78c-1.6.1-2.91.48-3.75 1.71-5.24 7.59-19.95 25.67-29.28 27.24q-17.63 2.97-34.53-3.04a.34.34 0 00-.46.32q.15 8.75-6.88 12.79c-5 2.87-10.15 13.58-12.5 18.79-4.33 9.58-5.16 19.73-6.63 30.86-2.51 18.95-8.38 42.74-19.03 59.4-7.13 11.15-15.12 21.56-24.72 28.35-14.33 10.14-31.64 18.05-49.3 21.53-19.55 3.85-33.9 5.84-51.45-1.49"/><path stroke="#5b5c5c" vector-effect="non-scaling-stroke" d="M247 499.29q-8.82-3.91-16.4-10.03a.93.93 0 00-.87-.17c-6.4 1.86-18.44 8.97-12.16 17.35q4.24 5.66 10.49 9.72a.89.89 0 01-.33 1.62c-5.5.99-13.6-5.72-16.69-9.84-8.28-11.06 6.71-18.49 14.31-21.93a.36.36 0 00.11-.57c-6.93-7.54-16.3-10.41-26.43-8.24q-19.61 4.21-39.28-.41"/><path stroke="#919090" vector-effect="non-scaling-stroke" d="M159.75 476.79q-11-3.23-18.46-11.79"/><path stroke="#111110" vector-effect="non-scaling-stroke" d="M141.29 465q.67-.09.88-.57a.98.98 0 00-.1-.91c-2.81-4.09-5.45-7.64-7.12-12.47-1.68-4.88-4.35-10.78-4.94-15.81q-.56-4.74-4.56-18.02c-1.64-5.47-5.17-9.43-8.79-13.62a.76.74-29.5 00-.82-.22q-.52.2-.88.87"/><path stroke="#919090" vector-effect="non-scaling-stroke" d="M114.96 404.25q-1.29-.48-1.6-1.67a.57.56 73.3 01.36-.68q8.36-2.89 10.77-3.19 12.91-1.59 25.91-.63a.74.74 0 01.65.52l1.88 6.04q.34 1.08-.42.25l-.32-.35a1.44 1.43 72.5 00-.86-.45l-11.58-1.8"/><path stroke="#5b5c5c" vector-effect="non-scaling-stroke" d="M139.75 402.29l-3.03-.56a.43.42 20.5 00-.45.2c-.47.79 2.61 1.02 2.98 1.03"/><path stroke="#919090" vector-effect="non-scaling-stroke" d="M139.25 402.96c5.12 1.32 14.97 2.03 15.71 8.54"/><path stroke="#5b5c5c" vector-effect="non-scaling-stroke" d="M154.96 411.5l-1.16-1.74a1.68 1.67-4.6 00-.72-.61q-12.8-5.71-26.86-5.51-.51.01-.02.14 17.59 4.72 31.8 16.18"/><path stroke="#919090" vector-effect="non-scaling-stroke" d="M158 419.96q1.82 1.44 2.25 3.75"/><path stroke="#5b5c5c" vector-effect="non-scaling-stroke" d="M160.25 423.71l-.27.18a.32.32 0 01-.41-.04q-9.44-9.65-22.06-14.64a.13.13 0 00-.13.23q12.97 9.37 21.16 23.08c3.98 6.67 7 16.41 8.98 23.23q3.23 11.1 14.73 15.93 2.98 1.25 5.08.91.46-.07.14-.41l-3.26-3.5"/><path stroke="#111110" vector-effect="non-scaling-stroke" d="M184.21 468.68q-2.09-4.31-5.08-7.93c-3.54-4.29-6.67-8.53-6.34-13.5"/><path stroke="#919090" vector-effect="non-scaling-stroke" d="M172.79 447.25q.4.63.93.63a.45.45 0 00.45-.54q-2.95-15.69-4.46-31.59"/><path stroke="#5b5c5c" vector-effect="non-scaling-stroke" d="M169.71 415.75c.41-4.42-.47-8.41.24-12.62q2.4-14.28 4.45-28.61 1.3-9.01 1.33-14.23c.03-6.42-1.4-12.58-1.5-18.99a1.37 1.36 6.2 011.68-1.34c13.67 3.23 27.65 8.08 38.87 16.74 13.43 10.37 13.77 37.4 10.97 52.55-2.86 15.44-6.42 29.51-6.37 45.7.05 12.7 7.05 18.53 19.02 21.31 28.67 6.67 58.34-3.29 68.67-33q4.18-12 6.9-24.41c.96-4.4 2.72-8.72 3.98-13.12 3.68-12.87 10.6-24.42 19.06-34.72 6.05-7.38 12.4-10.5 19.49-15.34 8.77-5.99 3.44-22.72 1.95-31.36-.63-3.66-.32-7.5-.62-11.32q-.04-.49-.43-.19-9.49 7.29-20.07 12.88c-2.47 1.3-4.97 3.44-8.33 3.32-14.27-.51-27.34-9.49-40.61-14.27-7.27-2.62-18.67-1.49-22.82 6.08q-.71 1.29-2.01.68a.85.84 20 01-.46-.98l1.64-6.35a.42.41 30 00-.11-.4l-.21-.23a.41.41 0 00-.68.14l-2.25 6.5a.68.68 0 01-1.32-.11q-.79-4.75.91-9.3a.5.5 0 00-.84-.5l-5.56 6.47a.44.44 0 01-.78-.28q-.14-6.66 5.68-9.82a.45.45 0 00-.19-.85c-2.54-.1-8.54-.85-9.26-4.05a.44.44 0 01.4-.53q11.46-.73 22.81.94c5.78.86 11.13-.17 16.98 1.22 10.27 2.45 19.79 4.13 30.39 2.87 4.51-.54 7.45 1.09 11.83-1.91q7.54-5.16 13.43-10.61c6.39-5.92 9.04-19.38 21.37-18.45a.97.96 76.1 00.89-1.48c-2.7-4.3-6.75-9.73-7.41-14.57-.91-6.65 2.26-14.62 5.75-20.33q4.65-7.61 13.48-8.81c2.7-.37 6.15.7 9-1.12q2.42-1.55 4.21-4.12"/><path stroke="#919090" vector-effect="non-scaling-stroke" d="M393.26 224.83q3-.89 6.03-1.97c7.78-2.79 15.41-2.6 23.21.18"/><path stroke="#5b5c5c" vector-effect="non-scaling-stroke" d="M422.5 223.04c3.45 3.41 6.41 4.55 7.67 10.18.93 4.15 1.41 9.4 3.85 12.92a1.55 1.53-8.1 00.77.57c8.77 2.95 15.1-7.96 7.01-10.93q-.45-.17.02-.1c6.21.83 6.94 6.13 6.58 11.07-.61 8.29-11.21 8.05-16.82 7.62a.62.62 0 00-.58.93c5.9 10.1 21.27-6.1 29.39 9.36 3.82 7.26-5.19 17.16-13.06 15.19a.49.48-42.3 01.05-.95c3.12-.5 7.05-.74 6.9-5.19q-.22-6.56-6.52-5.79a.63.63 0 00-.55.56c-.42 3.9-3.95 8.81-8.49 7.68a.59.59 0 01-.38-.84l.16-.31a.28.27 32.6 01.42-.09c3.04 2.55 5.13-3.37 4.77-5.57a.53.53 0 00-.82-.35q-5.23 3.67-11.69 4.15-.89.07-.35.78l4.88 6.41q.32.42.39.94c.58 3.95-1.48 9.51-1.6 12.87a1.09 1.07 20.8 00.42.91q2.25 1.75 4.89.7a1.46 1.45-87 00.75-.68c2.13-4.1 2.19-8.8 8.18-9.57q5.82-.74 9.16 1.59c5.18 3.61.77 9.77-4.16 9.92a.24.23 0 01-.24-.23v-.31a.38.38 0 01.29-.37c2.77-.64 3.84-2.12 2.85-4.95a1.05 1.03-.4 00-.65-.63c-3.61-1.19-11.05-1.42-11.48 3.49q-.53 6.1-1.84 10.51a1.29 1.25-7.6 01-.59.75q-3.06 1.79-7.05 1.03-9.68-1.86-10.88-11.4a.21.21 0 00-.42.02c-.32 6.11 4.19 10.21 7.41 14.8a1.16 1.15 76.4 00.79.49l14.95 2.29a1.55 1.52-54.3 00.97-.17c10.97-6.12 22.51-11.21 32.64-18.59 6.89-5.02 18.07-10.46 26.68-10.1a1.1 1.09-11.9 001.03-1.57c-13.7-27.82-33.89-51.62-58.86-69.37"/><path stroke="#919090" vector-effect="non-scaling-stroke" d="M449.34 212.71q-19.51-14.21-41.33-24.42-3.97-1.87-8.61-6.75a.92.91-26.8 00-.83-.27c-41.63 7.36-83.91 7.02-125.89 5.59-2.96-.1-8.2-1.5-12.64-.61"/><path stroke="#cacbcc" vector-effect="non-scaling-stroke" d="M449.34 212.71q-2.62-.55-5.09-1.49-3.18-1.21-5.03-1.61-23.37-5.02-47.22-6.87c-49.97-3.87-100.65-4.5-152.37-.61a.38.38 0 01-.24-.69c2.32-1.59 20.85-13.83 20.65-15.19"/><path stroke="#cacbcc" vector-effect="non-scaling-stroke" d="M422.5 223.04c3.07-1.4 6.86-1.5 9.33-2.06q5.23-1.21 11.12-2.36a.81.81 0 00.26-1.49q-.87-.52-2.51-.95c-20.93-5.45-42.79-7.8-64.35-8.87-22.33-1.12-46.77-2.85-65.04-2.48-15.5.31-30.89.15-46.48 1.15q-13.51.87-27.03 1.46-6.03.26-10.96 4.65-23.06 20.51-41.07 42.27-1.8 2.18-4.18 3.51c-4.5 2.51-8.46 4.42-12.27 8.83-6.35 7.34-10.59 17.59-12.93 26.92-1.28 5.1-1.29 10.44-1.56 15.85-.45 8.7-3.03 17.5-4.52 25.54-3.83 20.57-4.02 41.79.85 62.39a.3.3 0 01-.52.26q-.49-.56-1.32-.68-14.47-2.19-28.58 1.75a.78.77 76.1 01-.97-.59c-5.36-26.62-5.82-55.32 1.18-81.6 5.77-21.67 15.75-40.68 28.85-58.74 6.58-9.07 15.77-18.41 23.77-27.48q2.06-2.35 4.72-3.76a.35.35 0 00-.04-.63l-10.14-4.07a1.31 1.3 88.1 01-.7-.66l-.91-1.99"/><path stroke="#cacbcc" vector-effect="non-scaling-stroke" d="M393.26 224.83q-21.47 1.51-54.2 2.05-52.62.87-94.91-.8c-2.06-.08-2.74.35-4.14 1.68q-21.63 20.48-37.97 43.76c-.54.77-2.05 2.31-1.97 3.56q1.78 25.36-14.4 44.64-3.87 4.62-9.31 7.18-1.62.76-1.85 1.84c-4.7 21.89-6.49 43.95-6.26 66.13.03 2.52.67 5.61.55 8.47q-.21 4.81-.05 6.22.34 3.1.96 6.19"/><path stroke="gray" vector-effect="non-scaling-stroke" d="M172.79 447.25l-5.14-8.27"/><path stroke="#cacbcc" vector-effect="non-scaling-stroke" d="M167.65 438.98l-7.4-15.27M158 419.96l.13-.48a1.44 1.43-50.1 00-.08-.93l-3.09-7.05M139.25 402.96l.5-.67"/><path stroke="gray" vector-effect="non-scaling-stroke" d="M114.96 404.25c6.63 6.18 9.3 12.05 11.06 21.44 2.49 13.31 6.37 28.63 15.27 39.31"/><path stroke="#cacbcc" vector-effect="non-scaling-stroke" d="M159.75 476.79l-.07.5a1.15 1.12 29.9 00.25.88q12.17 14.71 28 25.41c3.34 2.26 8.86 2.94 12.96 5.37q4.22 2.5 9.1 3.6a.72.71 15.7 01.52.91q-.13.42-.51.58M256.5 186.37q-7.86.14-15.51-1.8a1.46 1.45-50.3 00-.95.09q-15.92 7.24-30.38 17.06-4.13 2.8-7.25 3.8c-4.66 1.47-9.29 1.47-14.03 2.87q-4.47 1.33-9.16 1.45"/><path stroke="#4a4b4c" vector-effect="non-scaling-stroke" d="M167.65 438.98q2.87 17.95 16.56 29.7"/><path stroke="#5b5c5c" vector-effect="non-scaling-stroke" d="M349.29 479.75c12.94.56 86.5 9.57 43.92 37.18"/><path stroke="#949698" vector-effect="non-scaling-stroke" d="M364.75 525.79q-.59-.67-.16-1.34a1.16 1.14-77.7 01.78-.51q14.29-2.37 27.84-7.01"/><path stroke="#5b5c5c" vector-effect="non-scaling-stroke" d="M393.21 516.93q12.24.27 19.04-10.44c7.39-11.65-11.98-20.06-20.26-22.5q-19.28-5.69-37.92-5.4c-1.94.03-3.25-.53-4.78 1.16"/><path stroke="#949698" vector-effect="non-scaling-stroke" d="M349.29 479.75l-.9 1.16q-.3.39-.74.61-5.59 2.88-10.89 6.24c-3.85 2.44-8.38 3.8-12.61 5.95-7.03 3.56-13.7 6.06-21.86 7.66-8.52 1.68-17.64 3.77-25.83 4.1q-7.64.32-15.27-.36c-5.43-.49-9.57-2.6-14.71-3.83a.56.56 0 01-.42-.64q.13-.83.94-1.35"/><path stroke="#5b5c5c" vector-effect="non-scaling-stroke" d="M399.25 235.26l-.01-.26a.37.33-28 01.08-.22l2.06-2.62q.61-.76-.36-.68-1.3.11-2.22 1.09a.72.72 0 01-.94.1l-.23-.17a.37.37 0 01-.09-.53q2.11-2.93 5.66-3.54a.73.72 89 00.59-.62l.05-.37a.64.63-84.4 00-.58-.71c-5.15-.39-9.88-.09-12.08 4.88q-.51 1.14.55.49l2.77-1.7a.17.16 61.3 01.23.07c.19.42-1.83 3.74-2.12 4.48a.7.7 0 00.18.79c.41.37 2.72-1.59 4.66-.75a.43.43 0 01.17.65l-1.67 2.18q-.92 1.21.43.51 6.94-3.55 14.76-2.64a.34.34 0 00.16-.66q-6.18-2.43-11.86.35a.14.13 75.9 01-.19-.12M385.7 240.18l.21 1.15q.2 1.11.99.31 1.87-1.88 2.69-4.41a.63.62-83.8 00-.65-.82l-4.17.43a.32.31-87.3 01-.34-.38q.12-.57.69-.95a.98.97 75.7 00.43-.73q.22-2.48-2.29-2.56-6.45-.22-9.32 5.76-.52 1.08.23 1.53a.57.56 31 00.79-.19q2.28-3.87 6.86-3a.29.28-74.5 01.21.38l-2.02 5.39q-.39 1.07.5.37c1.09-.86 3.04-3.96 4.71-2.97a1 .98-80.3 01.48.69"/><path stroke="#111110" vector-effect="non-scaling-stroke" d="M410.24 263.65q.65.05 1.05-.43a.86.85 54.5 00.14-.87c-.85-2.07-1.59-3.79-1.35-6.17.21-2.02 1.02-14.9-2.87-12.93"/><path stroke="#5b5c5c" vector-effect="non-scaling-stroke" d="M407.21 243.25q-4.95-4.47-11.29-1.82a.72.72 0 00-.44.68q.05 1.7 1.41 2.63a.39.39 0 01-.03.67q-4.43 2.43-7.16 6.61c-4.96 7.59 5.17 19.09 10.41 24.95 1.76 1.97 3.34 2.54 5.67 1.24 3.4-1.9.09-5.13-1.25-7.01a.6.6 0 01.17-.86l2.38-1.51a.96.95-13.9 00.46-.76q.21-2.71 2.7-4.42"/><path stroke="#4a4b4c" vector-effect="non-scaling-stroke" d="M407.21 243.25q2.88 7.17.68 14.55a1.32 1.27-50.4 00.07.92l2.28 4.93"/><path stroke="#5b5c5c" vector-effect="non-scaling-stroke" d="M325.23 313.08q-3.9 1.63-6.66 3.99a1.27 1.26 48.5 00-.11 1.82c6.53 7.21 12.09 6 19.9 1.09 7.3-4.58 14.5-9.07 20.5-15.15q4.68-4.74 9.3-10.22a.54.53 73.5 01.92.5l-1.18 3.86"/><path stroke="#919090" vector-effect="non-scaling-stroke" d="M367.9 298.97q-4.87 8.67-5.2 18.34c-.23 6.98 2.54 15.6 3.38 23.34.28 2.53-.34 5.56.05 8.42a.33.33 0 00.5.24l3.37-2.02"/><path stroke="#111110" vector-effect="non-scaling-stroke" d="M370 347.29c.55 2.76 4.73-1.69 4.98-2.09 1.2-1.88 4.09-9.03 3.41-11.85q-.39-1.63-2.01-.85"/><path stroke="#919090" vector-effect="non-scaling-stroke" d="M376.38 332.5c-7.26-6.59-6.54-16.63-3.88-25.21"/><path stroke="#5b5c5c" vector-effect="non-scaling-stroke" d="M372.5 307.29l.27-.29q.24-.26.28.09l.53 4.51"/><path stroke="#919090" vector-effect="non-scaling-stroke" d="M373.58 311.6q-1.24 7.3 2.71 12.96a.39.39 0 00.64 0l1.57-2.27"/><path stroke="#5b5c5c" vector-effect="non-scaling-stroke" d="M378.5 322.29c3.9-4.77 8.5-11.84 15.89-10.72 5.43.82 7.93 9.93 8.21 14.34a.84.84 0 001.02.77l7.14-1.59a.3.29-18.4 00.21-.41q-3.46-7.91-4.72-18.93c-.31-2.75-7.57-4.24-10-5.05"/><path stroke="#919090" vector-effect="non-scaling-stroke" d="M396.25 300.7q-10.74-6.46-17.16-16.95c-1.16-1.88-2.81-2.94-4.84-3.27-3.19-.52-12.23-.94-14.59 1.93-3.12 3.8-5.52 9.31-9.08 13.02q-10.83 11.29-25.35 17.65"/><path stroke="#cacbcc" vector-effect="non-scaling-stroke" d="M396.25 300.7q-2.95 1.25-5.98-1.24-7.75-6.39-11.98-15.26a2.06 2.04 81.8 00-1.49-1.13q-14.23-2.52-21.5 9.18c-4.73 7.62-19.51 22.86-30.07 20.83M378.5 322.29q-1.49-.81-1.82-2.49-.88-4.39-3.1-8.2"/><path stroke="#cacbcc" vector-effect="non-scaling-stroke" d="M372.5 307.29c-2.96-.31-1.55 3.27-3.73 4.65a1.89 1.87-2.9 00-.65.71c-2.49 4.75 2.51 13.98 5.05 19.39 1.91 4.09.69 8.02-1.97 11.31q-.34.41-.45.94-.37 1.76-1.96 2.43a.84.84 0 01-1.17-.71c-.35-4.31-.17-7.99-1.23-12.15-2.1-8.26-.72-17.01.75-25.8q.75-4.49.76-9.09"/><path stroke="gray" vector-effect="non-scaling-stroke" d="M376.38 332.5q1.12 9.31-6.38 14.79"/><path stroke="#5b5c5c" vector-effect="non-scaling-stroke" d="M400.68 297.26c.99 3.69 5.46 4.79 6.66 8.8q2.52 8.43 7.28 15.86a1.81 1.74-2.6 00.73.64q10.88 5.34 20.4 5.22c5.08-.07 12.42.89 17.02-1.06 6.17-2.61 11.68-7.25 12.21-14.4a.48.48 0 00-.46-.52q-4.7-.17-8.96 1.62c-3.98 1.67-4.11 4.51-9.8 3.8-6.68-.84-27.04-3.57-30.03-8.96-1.12-2.02-1.84-3.82-3.92-5.11q-5.27-3.27-10.8-6.16-.47-.24-.33.27M198 449.51c1.47 2.87 13.43 18.87 16.83 18.74a.29.29 0 00.21-.47c-4.87-5.85-7.14-15.37-7.55-21.78-.53-8.2 1.5-19.57 2.03-26 .66-7.9 1.71-16.05 1.24-23.8-1.3-21.42-13.77-36.19-29.02-49.82a.41.4-44.4 00-.53 0c-.34.29-.21.47.04.78 4.22 5.27 6.38 11.22 8.97 17.36 5.76 13.68 6.3 31.54 4.54 46.04-1.52 12.47-2.12 28.45 3.24 38.95"/><path stroke="#919090" vector-effect="non-scaling-stroke" d="M209.02 440.21l.33 5.34"/><path stroke="#5b5c5c" vector-effect="non-scaling-stroke" d="M209.35 445.55q.27 10.08 4.92 19.14a.11.09-5.7 00.06.04l.29.03a.19.19 0 00.2-.25c-2.26-7.57-1.93-15.32-1.28-22.66q1.74-19.75 3.51-39.51c1.07-11.97.07-25.39-7.12-35.4-5.62-7.82-14.61-15.31-23.81-19.41a.34.33-12.5 00-.36.56q13.61 11.77 21.34 27.68c5.92 12.18 6.01 25.53 4.39 39.53q-1.44 12.47-2.47 24.91"/><path stroke="#cacbcc" vector-effect="non-scaling-stroke" d="M209.35 445.55q2.24-2.86-.33-5.34"/><path stroke="#5b5c5c" vector-effect="non-scaling-stroke" d="M187.66 448.27c5.12 10.32 13.42 16.19 23.49 20.8a.54.53-86.1 00.73-.64q-.17-.55-1.04-1.26c-10.41-8.43-16.65-19.42-18.37-32.63-1.7-13.02 1.13-27.09 1.48-37.78q.57-17.15-6.35-33.75c-1.8-4.32-5.22-9.45-7.29-14.57a.31.3 78.2 00-.28-.19h-.31a.25.25 0 00-.25.31c1.91 6.98 4.14 13.18 4.95 21.06 1.81 17.6-4.65 35.32-3.7 52.43q.77 13.79 6.94 26.22M216.48 431.57c1.53-.6 1.87-4.08 2-5.3 1.35-12.88 3.87-23.4 4.27-30.52q.5-8.76-2.29-20c-3.3-13.32-10.12-17.63-21.34-23.28q-.49-.24-.33.28.32 1.01 1.27 1.67c27.36 19.06 18.72 49.83 15.98 76.82a.32.32 0 00.44.33M362.29 358.53c-11.44 4.86-22.17 14.21-27.65 25.51q-.22.46.16.11 3.55-3.23 6.91-6.66c6.77-6.91 14.49-12.56 22.53-17.98a.67.67 0 00-.2-1.2q-.74-.21-1.75.22"/><path stroke="#5b5c5c" vector-effect="non-scaling-stroke" d="M175.59 436.75c5.89 13.62 14.93 23.11 27.38 31.04q.29.18.59-.08a.4.39 39.8 00-.06-.64c-17.1-10.08-22.12-25.16-24.65-43.87q-.88-6.55-.39-9.21 3.33-18.11 4.29-36.49.46-8.87-1.7-17.53-.13-.49-.12.01c.04 16.19-4.61 29.92-7.16 45.02-1.71 10.13-2.32 22.14 1.82 31.75M297.49 545.68c32.77.91 65.76-.21 97.34-10.27 10.76-3.43 19.28-7.59 27.33-14.49q.75-.65.18-1.41a.69.68-28.8 00-.8-.23c-3.11 1.16-6.25 2.72-9.2 3.72q-37.49 12.63-76.93 15.26-5.51.37-12.95.2c-14.09-.32-27.6-.72-41.57-1.88-5.29-.44-10.95-1.51-16.45-2.2-22.43-2.81-43.88-8.61-64.68-17.46q-.58-.25-.48.37l.58 3.57a1.42 1.41-75.9 00.53.89c10.33 8.09 23.62 13.59 36.11 16.52 8.91 2.09 19.69 4.5 29.54 5.46q15.69 1.51 31.45 1.95"/><path stroke="#919090" vector-effect="non-scaling-stroke" d="M236.58 152.19a.28.27-43.4 01.02-.54q14.98-2.25 30-3.4c1.35-.11 2.36-.79 2.02-2.23a.62.61-7.2 00-.63-.48c-8.25.33-16.07 1.36-24.74.87q-2.62-.15-5.4.56c-2.87.73-12.22 1.29-13.63 3.1-3.81 4.86 7.78 7.67 10.38 8.15 34.11 6.28 69.87 6.26 101.16 5.34 15.39-.45 29.8-1.76 44.24-3.84q8.85-1.27 17.84-4.61a1.59 1.53-82.9 00.79-.64l1.38-2.19a1.15 1.13 51.6 00.11-1c-1.35-3.83-7.57-3.08-10.99-4q-3.3-.88-5.81-.91-12.97-.16-27.38-1.02a.96.96 0 00-.99 1.19c.62 2.46 3.4 1.92 5.36 1.95 8.62.14 17.93 1.75 26.32 2.83a.47.46 43.8 01.02.92c-35.8 5.77-68.87 6.14-107.9 5.01-2.06-.06-5.11-.99-7.69-1.08q-17.4-.59-34.48-3.98"/><path stroke="#cacbcc" vector-effect="non-scaling-stroke" d="M174.27 218.47c2.74.35 5.93 1.54 8.58 2.68a.97.95-52.5 00.97-.14l9.77-7.88q.29-.24-.08-.16c-1.96.44-19.18 4.44-19.46 5.12a.27.27 0 00.22.38M344.61 232.99c-7.48-3.47-13.55 5.42-8.18 11.02 8.72 9.08 16.38-8.27 10-9.77q-.5-.12-.32.36c1.17 2.96.58 5.88-2.7 6.97-4.7 1.56-7.19-5.34-2.87-8.38a1.48 1.45 31.2 011.07-.25l2.88.43q1.4.21.12-.38M321.82 257.39c-5.56 5.15 4.28 11.12 6.54 3.6a1.06 1.05-53.9 00-.14-.91q-1.5-2.15-3.97-3.14c-.49-.2-.97-.05-1.38-.53a1.32 1.3-15 00-.79-.45q-7.22-1.18-11 4.09c-7.77 10.85 4.52 23.13 15.23 16.35 4.27-2.7 6.78-10.03 3.43-14.79q-.3-.43-.34.09c-.17 2.04.33 4.13-.15 5.88-2.54 9.2-20.31 3.48-13.07-6.9q2.27-3.25 5.51-3.58.5-.06.13.29"/><path stroke="#4a4b4c" vector-effect="non-scaling-stroke" d="M407.85 252.54c-.05-1.36-1.14-1.82-2.05-2.61a.87.86-34.8 00-.88-.15l-6.13 2.36a.52.51-32.5 00-.19.84l.26.25a.72.71 57.3 00.77.17c1.75-.67 5.61-1.91 7.82-.61q.43.25.4-.25M398.47 256.63l4.28 2.57a.61.6 34.7 00.79-.14l1.63-2.1a.88.88 0 00-1.1-1.33q-2.26 1.15-4.55.13a.75.73 33.4 00-.82.16l-.28.29a.27.26 38.5 00.05.42"/><path stroke="#cacbcc" vector-effect="non-scaling-stroke" d="M439.889 381.607a10.99 10.99 0 00-.272-15.54l-1.352-1.306a10.99 10.99 0 00-15.54.271l-1.334 1.381a10.99 10.99 0 00.272 15.54l1.352 1.306a10.99 10.99 0 0015.54-.271l1.334-1.381M446.67 407.81a.42.42 0 01.2.75c-7.86 5.76 7.41 11.62 6.33 2.08a1.51 1.51 0 00-.39-.87c-5.25-5.78-15.29-3.95-18.91 2.07-6.45 10.71 4.95 22.73 15.96 17.31 6.69-3.3 8.26-10.78 5.33-17.38a.46.45 77.8 00-.41-.27l-.29-.01a.29.29 0 00-.29.33c.3 1.87.89 3.64.7 5.44-1.06 10.05-16.18 8.44-15.92-1.61.1-3.84 3.3-8.35 7.69-7.84M430.58 460.14a8.4 8.4 0 00-8.4-8.4 8.4 8.4 0 00-8.4 8.4 8.4 8.4 0 008.4 8.4 8.4 8.4 0 008.4-8.4"/><path stroke="#cacbcc" vector-effect="non-scaling-stroke" d="M439.46 367.01q-.28-.31-.29.1c-.13 5.54-7.67 6.23-8.14.04a1.36 1.33 63.2 01.29-.92l1.36-1.65a.7.7 0 00-.79-1.1q-4.7 1.77-6.15 5.46c-4.56 11.59 15.93 16.04 15.61 2.07q-.05-1.94-1.89-4M428.1 460.13a6 6 0 00-6-6 6 6 0 00-6 6 6 6 0 006 6 6 6 0 006-6"/></g><path d="M0 0h590.06l.19.29V589.8a.46.45 0 01-.46.45L.66 590.24q-.68 0-.21.5l.24.26H0V0zm586.25 4.51a.26.26 0 00-.26-.26H4.51a.26.26 0 00-.26.26v581.48a.26.26 0 00.26.26h581.48a.26.26 0 00.26-.26V4.51z"/><path fill="#222120" d="M590.06 0h.94v587.31c-.84-.45-.25-537.06-.25-586.81a.25.24-86.1 00-.21-.25q-.17-.02-.29.04l-.19-.29z"/><path fill="#fff" d="M590.25.29q.12-.06.29-.04a.25.24-86.1 01.21.25c0 49.75-.59 586.36.25 586.81V591h-14.56q-2.88-.63-5.75 0H12.44q-5.63-.63-11.25 0h-.5l-.24-.26q-.47-.5.21-.5l589.13.01a.46.45 0 00.46-.45V.29z"/><path fill="#fcfde0" d="M586.25 585.99a.26.26 0 01-.26.26H4.51a.26.26 0 01-.26-.26V4.51a.26.26 0 01.26-.26h581.48a.26.26 0 01.26.26v581.48zM93.39 37.36c-1.04-.55-2.08-1.18-3.27-1.21q-19.69-.41-39.37 0c-14.98.32-23.05 7.39-23.31 22.46q-.37 21.67-.12 43.54a1.11 1.11 0 001.56 1q.29-.13 1.22-1.05 32.14-31.49 63.5-63.37a.86.86 0 00-.21-1.37zM216.24 180.8q-9.79 5.3-19.72 10.77c-32.83 18.1-63.03 44.49-81.56 78.04-12.13 21.97-18.92 43.55-21.06 69.36-.92 11.05-.91 23.32.46 34.3q.89 7.02 1.86 14.04c7.95 57.24 42.52 103.03 95.59 125.94a1.65 1.64 7.2 01.98 1.26l1.43 8.82a1.69 1.66 19.8 00.4.83c8.34 9.17 22.1 14.88 34.14 18.31q29.1 8.3 58.49 9.07c19.48.51 38.3.86 57.74-.52 26.52-1.87 57.97-7.61 79.85-24.04 4.13-3.11 5.07-7.95 4.86-12.83a1 .99 76.4 01.57-.95c12.24-5.83 24.69-12.5 35.18-20.45q32.72-24.79 49.2-63.15 8.27-19.23 10.82-35.35c4.84-30.58 5.93-64.33-3.7-94.15-18.11-56.08-61.96-94.44-114.02-118.9a.87.87 0 01.14-1.63c4.26-1.15 21.91-5.02 21.81-11.04-.21-13.51-7.43-19.66-19.57-23.86-12.12-4.19-25.88-5.48-38.51-5.89q-23.68-.77-47.37-1.52c-23.93-.77-48.23.63-72.15 1.61-8.85.36-17.66 1.68-26.53 2.72-4.81.57-21.66 5.28-25.99 11.34-2.59 3.62-8.32 15.03-4.16 18.89 4.93 4.57 14.17 6.48 20.72 8.19a.43.43 0 01.1.79z"/><path fill="#fae4ac" d="M93.39 37.36a.86.86 0 01.21 1.37Q62.24 70.61 30.1 102.1q-.93.92-1.22 1.05a1.11 1.11 0 01-1.56-1q-.25-21.87.12-43.54c.26-15.07 8.33-22.14 23.31-22.46q19.68-.41 39.37 0c1.19.03 2.23.66 3.27 1.21z"/><path fill="#222120" d="M216.24 180.8a.43.43 0 00-.1-.79c-6.55-1.71-15.79-3.62-20.72-8.19-4.16-3.86 1.57-15.27 4.16-18.89 4.33-6.06 21.18-10.77 25.99-11.34 8.87-1.04 17.68-2.36 26.53-2.72 23.92-.98 48.22-2.38 72.15-1.61q23.69.75 47.37 1.52c12.63.41 26.39 1.7 38.51 5.89 12.14 4.2 19.36 10.35 19.57 23.86.1 6.02-17.55 9.89-21.81 11.04a.87.87 0 00-.14 1.63c52.06 24.46 95.91 62.82 114.02 118.9 9.63 29.82 8.54 63.57 3.7 94.15q-2.55 16.12-10.82 35.35-16.48 38.36-49.2 63.15c-10.49 7.95-22.94 14.62-35.18 20.45a1 .99 76.4 00-.57.95c.21 4.88-.73 9.72-4.86 12.83-21.88 16.43-53.33 22.17-79.85 24.04-19.44 1.38-38.26 1.03-57.74.52q-29.39-.77-58.49-9.07c-12.04-3.43-25.8-9.14-34.14-18.31a1.69 1.66 19.8 01-.4-.83l-1.43-8.82a1.65 1.64 7.2 00-.98-1.26c-53.07-22.91-87.64-68.7-95.59-125.94q-.97-7.02-1.86-14.04c-1.37-10.98-1.38-23.25-.46-34.3 2.14-25.81 8.93-47.39 21.06-69.36 18.53-33.55 48.73-59.94 81.56-78.04q9.93-5.47 19.72-10.77zm-15.94-14.06c-.12 3.18 8.78 4.97 11.2 5.54 41.36 9.67 80.73 9.06 126.3 8.44q24.97-.34 49.69-3.94c12.3-1.79 25.6-4.19 35.25-8.88a.76.74-14.7 00.43-.72c-.41-7.63-4.1-12.41-11.25-15.45-10.46-4.46-21.91-6.14-33.22-6.46-5.35-.15-11.26-1.35-15.7-1.3-28.86.33-56.9-.76-92.64.05-8.24.18-17.8.92-27.67 1.38-11.85.56-41.69 3.74-42.39 21.34zm59.74 19.51q-1.72-.91-3.54.12-7.63-1.25-15.18-2.47c-3-.48-8.21-.96-10.38-.3q-28.11 8.56-51.72 26.24-6.66 4.18-12.72 9.37c-17.68 14.01-34.25 31.72-45.27 51.47-11.62 20.82-19.86 44.63-21.42 68.57-4.19 64.14 19.19 126.93 77.15 159.77q13.5 7.64 33.04 15.02 44.03 15.38 90.76 15.33c21.45-.02 42.77.03 63.99-3.58 57.5-9.05 110.56-34.27 138.65-87.03 10.88-20.44 16.15-43.03 18.88-64.25 3.97-30.84-1.33-60.51-12.12-88.09a.43.42 63.5 00-.61-.21c-1.72 1.02-7.85 2.71-8.46 3.62a.53.52 19.6 00.39.81l3.19.35a1 1 0 01.79.56q2.45 5.23.1 10.3a.6.6 0 01-.82.28l-1.56-.79a.73.73 0 00-.87.17l-2.62 2.96a.77.77 0 01-1.27-.19l-.62-1.35a.64.64 0 00-.91-.28l-1.7 1.03q-.76.46-.72-.43l.13-2.87q.04-.71-.56-.33-3.95 2.52-8.51 2.78c-1.6.1-2.91.48-3.75 1.71-5.24 7.59-19.95 25.67-29.28 27.24q-17.63 2.97-34.53-3.04a.34.34 0 00-.46.32q.15 8.75-6.88 12.79c-5 2.87-10.15 13.58-12.5 18.79-4.33 9.58-5.16 19.73-6.63 30.86-2.51 18.95-8.38 42.74-19.03 59.4-7.13 11.15-15.12 21.56-24.72 28.35-14.33 10.14-31.64 18.05-49.3 21.53-19.55 3.85-33.9 5.84-51.45-1.49q-8.82-3.91-16.4-10.03a.93.93 0 00-.87-.17c-6.4 1.86-18.44 8.97-12.16 17.35q4.24 5.66 10.49 9.72a.89.89 0 01-.33 1.62c-5.5.99-13.6-5.72-16.69-9.84-8.28-11.06 6.71-18.49 14.31-21.93a.36.36 0 00.11-.57c-6.93-7.54-16.3-10.41-26.43-8.24q-19.61 4.21-39.28-.41-11-3.23-18.46-11.79.67-.09.88-.57a.98.98 0 00-.1-.91c-2.81-4.09-5.45-7.64-7.12-12.47-1.68-4.88-4.35-10.78-4.94-15.81q-.56-4.74-4.56-18.02c-1.64-5.47-5.17-9.43-8.79-13.62a.76.74-29.5 00-.82-.22q-.52.2-.88.87-1.29-.48-1.6-1.67a.57.56 73.3 01.36-.68q8.36-2.89 10.77-3.19 12.91-1.59 25.91-.63a.74.74 0 01.65.52l1.88 6.04q.34 1.08-.42.25l-.32-.35a1.44 1.43 72.5 00-.86-.45l-11.58-1.8-3.03-.56a.43.42 20.5 00-.45.2c-.47.79 2.61 1.02 2.98 1.03 5.12 1.32 14.97 2.03 15.71 8.54l-1.16-1.74a1.68 1.67-4.6 00-.72-.61q-12.8-5.71-26.86-5.51-.51.01-.02.14 17.59 4.72 31.8 16.18 1.82 1.44 2.25 3.75l-.27.18a.32.32 0 01-.41-.04q-9.44-9.65-22.06-14.64a.13.13 0 00-.13.23q12.97 9.37 21.16 23.08c3.98 6.67 7 16.41 8.98 23.23q3.23 11.1 14.73 15.93 2.98 1.25 5.08.91.46-.07.14-.41l-3.26-3.5q-2.09-4.31-5.08-7.93c-3.54-4.29-6.67-8.53-6.34-13.5q.4.63.93.63a.45.45 0 00.45-.54q-2.95-15.69-4.46-31.59c.41-4.42-.47-8.41.24-12.62q2.4-14.28 4.45-28.61 1.3-9.01 1.33-14.23c.03-6.42-1.4-12.58-1.5-18.99a1.37 1.36 6.2 011.68-1.34c13.67 3.23 27.65 8.08 38.87 16.74 13.43 10.37 13.77 37.4 10.97 52.55-2.86 15.44-6.42 29.51-6.37 45.7.05 12.7 7.05 18.53 19.02 21.31 28.67 6.67 58.34-3.29 68.67-33q4.18-12 6.9-24.41c.96-4.4 2.72-8.72 3.98-13.12 3.68-12.87 10.6-24.42 19.06-34.72 6.05-7.38 12.4-10.5 19.49-15.34 8.77-5.99 3.44-22.72 1.95-31.36-.63-3.66-.32-7.5-.62-11.32q-.04-.49-.43-.19-9.49 7.29-20.07 12.88c-2.47 1.3-4.97 3.44-8.33 3.32-14.27-.51-27.34-9.49-40.61-14.27-7.27-2.62-18.67-1.49-22.82 6.08q-.71 1.29-2.01.68a.85.84 20 01-.46-.98l1.64-6.35a.42.41 30 00-.11-.4l-.21-.23a.41.41 0 00-.68.14l-2.25 6.5a.68.68 0 01-1.32-.11q-.79-4.75.91-9.3a.5.5 0 00-.84-.5l-5.56 6.47a.44.44 0 01-.78-.28q-.14-6.66 5.68-9.82a.45.45 0 00-.19-.85c-2.54-.1-8.54-.85-9.26-4.05a.44.44 0 01.4-.53q11.46-.73 22.81.94c5.78.86 11.13-.17 16.98 1.22 10.27 2.45 19.79 4.13 30.39 2.87 4.51-.54 7.45 1.09 11.83-1.91q7.54-5.16 13.43-10.61c6.39-5.92 9.04-19.38 21.37-18.45a.97.96 76.1 00.89-1.48c-2.7-4.3-6.75-9.73-7.41-14.57-.91-6.65 2.26-14.62 5.75-20.33q4.65-7.61 13.48-8.81c2.7-.37 6.15.7 9-1.12q2.42-1.55 4.21-4.12 3-.89 6.03-1.97c7.78-2.79 15.41-2.6 23.21.18 3.45 3.41 6.41 4.55 7.67 10.18.93 4.15 1.41 9.4 3.85 12.92a1.55 1.53-8.1 00.77.57c8.77 2.95 15.1-7.96 7.01-10.93q-.45-.17.02-.1c6.21.83 6.94 6.13 6.58 11.07-.61 8.29-11.21 8.05-16.82 7.62a.62.62 0 00-.58.93c5.9 10.1 21.27-6.1 29.39 9.36 3.82 7.26-5.19 17.16-13.06 15.19a.49.48-42.3 01.05-.95c3.12-.5 7.05-.74 6.9-5.19q-.22-6.56-6.52-5.79a.63.63 0 00-.55.56c-.42 3.9-3.95 8.81-8.49 7.68a.59.59 0 01-.38-.84l.16-.31a.28.27 32.6 01.42-.09c3.04 2.55 5.13-3.37 4.77-5.57a.53.53 0 00-.82-.35q-5.23 3.67-11.69 4.15-.89.07-.35.78l4.88 6.41q.32.42.39.94c.58 3.95-1.48 9.51-1.6 12.87a1.09 1.07 20.8 00.42.91q2.25 1.75 4.89.7a1.46 1.45-87 00.75-.68c2.13-4.1 2.19-8.8 8.18-9.57q5.82-.74 9.16 1.59c5.18 3.61.77 9.77-4.16 9.92a.24.23 0 01-.24-.23v-.31a.38.38 0 01.29-.37c2.77-.64 3.84-2.12 2.85-4.95a1.05 1.03-.4 00-.65-.63c-3.61-1.19-11.05-1.42-11.48 3.49q-.53 6.1-1.84 10.51a1.29 1.25-7.6 01-.59.75q-3.06 1.79-7.05 1.03-9.68-1.86-10.88-11.4a.21.21 0 00-.42.02c-.32 6.11 4.19 10.21 7.41 14.8a1.16 1.15 76.4 00.79.49l14.95 2.29a1.55 1.52-54.3 00.97-.17c10.97-6.12 22.51-11.21 32.64-18.59 6.89-5.02 18.07-10.46 26.68-10.1a1.1 1.09-11.9 001.03-1.57c-13.7-27.82-33.89-51.62-58.86-69.37q-19.51-14.21-41.33-24.42-3.97-1.87-8.61-6.75a.92.91-26.8 00-.83-.27c-41.63 7.36-83.91 7.02-125.89 5.59-2.96-.1-8.2-1.5-12.64-.61zm139.21 49.01l-.01-.26a.37.33-28 01.08-.22l2.06-2.62q.61-.76-.36-.68-1.3.11-2.22 1.09a.72.72 0 01-.94.1l-.23-.17a.37.37 0 01-.09-.53q2.11-2.93 5.66-3.54a.73.72 89 00.59-.62l.05-.37a.64.63-84.4 00-.58-.71c-5.15-.39-9.88-.09-12.08 4.88q-.51 1.14.55.49l2.77-1.7a.17.16 61.3 01.23.07c.19.42-1.83 3.74-2.12 4.48a.7.7 0 00.18.79c.41.37 2.72-1.59 4.66-.75a.43.43 0 01.17.65l-1.67 2.18q-.92 1.21.43.51 6.94-3.55 14.76-2.64a.34.34 0 00.16-.66q-6.18-2.43-11.86.35a.14.13 75.9 01-.19-.12zm-13.55 4.92l.21 1.15q.2 1.11.99.31 1.87-1.88 2.69-4.41a.63.62-83.8 00-.65-.82l-4.17.43a.32.31-87.3 01-.34-.38q.12-.57.69-.95a.98.97 75.7 00.43-.73q.22-2.48-2.29-2.56-6.45-.22-9.32 5.76-.52 1.08.23 1.53a.57.56 31 00.79-.19q2.28-3.87 6.86-3a.29.28-74.5 01.21.38l-2.02 5.39q-.39 1.07.5.37c1.09-.86 3.04-3.96 4.71-2.97a1 .98-80.3 01.48.69zm24.54 23.47q.65.05 1.05-.43a.86.85 54.5 00.14-.87c-.85-2.07-1.59-3.79-1.35-6.17.21-2.02 1.02-14.9-2.87-12.93q-4.95-4.47-11.29-1.82a.72.72 0 00-.44.68q.05 1.7 1.41 2.63a.39.39 0 01-.03.67q-4.43 2.43-7.16 6.61c-4.96 7.59 5.17 19.09 10.41 24.95 1.76 1.97 3.34 2.54 5.67 1.24 3.4-1.9.09-5.13-1.25-7.01a.6.6 0 01.17-.86l2.38-1.51a.96.95-13.9 00.46-.76q.21-2.71 2.7-4.42zm-85.01 49.43q-3.9 1.63-6.66 3.99a1.27 1.26 48.5 00-.11 1.82c6.53 7.21 12.09 6 19.9 1.09 7.3-4.58 14.5-9.07 20.5-15.15q4.68-4.74 9.3-10.22a.54.53 73.5 01.92.5l-1.18 3.86q-4.87 8.67-5.2 18.34c-.23 6.98 2.54 15.6 3.38 23.34.28 2.53-.34 5.56.05 8.42a.33.33 0 00.5.24l3.37-2.02c.55 2.76 4.73-1.69 4.98-2.09 1.2-1.88 4.09-9.03 3.41-11.85q-.39-1.63-2.01-.85c-7.26-6.59-6.54-16.63-3.88-25.21l.27-.29q.24-.26.28.09l.53 4.51q-1.24 7.3 2.71 12.96a.39.39 0 00.64 0l1.57-2.27c3.9-4.77 8.5-11.84 15.89-10.72 5.43.82 7.93 9.93 8.21 14.34a.84.84 0 001.02.77l7.14-1.59a.3.29-18.4 00.21-.41q-3.46-7.91-4.72-18.93c-.31-2.75-7.57-4.24-10-5.05q-10.74-6.46-17.16-16.95c-1.16-1.88-2.81-2.94-4.84-3.27-3.19-.52-12.23-.94-14.59 1.93-3.12 3.8-5.52 9.31-9.08 13.02q-10.83 11.29-25.35 17.65zm75.45-15.82c.99 3.69 5.46 4.79 6.66 8.8q2.52 8.43 7.28 15.86a1.81 1.74-2.6 00.73.64q10.88 5.34 20.4 5.22c5.08-.07 12.42.89 17.02-1.06 6.17-2.61 11.68-7.25 12.21-14.4a.48.48 0 00-.46-.52q-4.7-.17-8.96 1.62c-3.98 1.67-4.11 4.51-9.8 3.8-6.68-.84-27.04-3.57-30.03-8.96-1.12-2.02-1.84-3.82-3.92-5.11q-5.27-3.27-10.8-6.16-.47-.24-.33.27zM198 449.51c1.47 2.87 13.43 18.87 16.83 18.74a.29.29 0 00.21-.47c-4.87-5.85-7.14-15.37-7.55-21.78-.53-8.2 1.5-19.57 2.03-26 .66-7.9 1.71-16.05 1.24-23.8-1.3-21.42-13.77-36.19-29.02-49.82a.41.4-44.4 00-.53 0c-.34.29-.21.47.04.78 4.22 5.27 6.38 11.22 8.97 17.36 5.76 13.68 6.3 31.54 4.54 46.04-1.52 12.47-2.12 28.45 3.24 38.95zm11.02-9.3l.33 5.34q.27 10.08 4.92 19.14a.11.09-5.7 00.06.04l.29.03a.19.19 0 00.2-.25c-2.26-7.57-1.93-15.32-1.28-22.66q1.74-19.75 3.51-39.51c1.07-11.97.07-25.39-7.12-35.4-5.62-7.82-14.61-15.31-23.81-19.41a.34.33-12.5 00-.36.56q13.61 11.77 21.34 27.68c5.92 12.18 6.01 25.53 4.39 39.53q-1.44 12.47-2.47 24.91zm-21.36 8.06c5.12 10.32 13.42 16.19 23.49 20.8a.54.53-86.1 00.73-.64q-.17-.55-1.04-1.26c-10.41-8.43-16.65-19.42-18.37-32.63-1.7-13.02 1.13-27.09 1.48-37.78q.57-17.15-6.35-33.75c-1.8-4.32-5.22-9.45-7.29-14.57a.31.3 78.2 00-.28-.19h-.31a.25.25 0 00-.25.31c1.91 6.98 4.14 13.18 4.95 21.06 1.81 17.6-4.65 35.32-3.7 52.43q.77 13.79 6.94 26.22zm28.82-16.7c1.53-.6 1.87-4.08 2-5.3 1.35-12.88 3.87-23.4 4.27-30.52q.5-8.76-2.29-20c-3.3-13.32-10.12-17.63-21.34-23.28q-.49-.24-.33.28.32 1.01 1.27 1.67c27.36 19.06 18.72 49.83 15.98 76.82a.32.32 0 00.44.33zm145.81-73.04c-11.44 4.86-22.17 14.21-27.65 25.51q-.22.46.16.11 3.55-3.23 6.91-6.66c6.77-6.91 14.49-12.56 22.53-17.98a.67.67 0 00-.2-1.2q-.74-.21-1.75.22zm-186.7 78.22c5.89 13.62 14.93 23.11 27.38 31.04q.29.18.59-.08a.4.39 39.8 00-.06-.64c-17.1-10.08-22.12-25.16-24.65-43.87q-.88-6.55-.39-9.21 3.33-18.11 4.29-36.49.46-8.87-1.7-17.53-.13-.49-.12.01c.04 16.19-4.61 29.92-7.16 45.02-1.71 10.13-2.32 22.14 1.82 31.75zm121.9 108.93c32.77.91 65.76-.21 97.34-10.27 10.76-3.43 19.28-7.59 27.33-14.49q.75-.65.18-1.41a.69.68-28.8 00-.8-.23c-3.11 1.16-6.25 2.72-9.2 3.72q-37.49 12.63-76.93 15.26-5.51.37-12.95.2c-14.09-.32-27.6-.72-41.57-1.88-5.29-.44-10.95-1.51-16.45-2.2-22.43-2.81-43.88-8.61-64.68-17.46q-.58-.25-.48.37l.58 3.57a1.42 1.41-75.9 00.53.89c10.33 8.09 23.62 13.59 36.11 16.52 8.91 2.09 19.69 4.5 29.54 5.46q15.69 1.51 31.45 1.95z"/><path fill="#fff" d="M211.5 172.28c-2.42-.57-11.32-2.36-11.2-5.54.7-17.6 30.54-20.78 42.39-21.34 9.87-.46 19.43-1.2 27.67-1.38 35.74-.81 63.78.28 92.64-.05 4.44-.05 10.35 1.15 15.7 1.3 11.31.32 22.76 2 33.22 6.46 7.15 3.04 10.84 7.82 11.25 15.45a.76.74-14.7 01-.43.72c-9.65 4.69-22.95 7.09-35.25 8.88q-24.72 3.6-49.69 3.94c-45.57.62-84.94 1.23-126.3-8.44zm25.08-20.09a.28.27-43.4 01.02-.54q14.98-2.25 30-3.4c1.35-.11 2.36-.79 2.02-2.23a.62.61-7.2 00-.63-.48c-8.25.33-16.07 1.36-24.74.87q-2.62-.15-5.4.56c-2.87.73-12.22 1.29-13.63 3.1-3.81 4.86 7.78 7.67 10.38 8.15 34.11 6.28 69.87 6.26 101.16 5.34 15.39-.45 29.8-1.76 44.24-3.84q8.85-1.27 17.84-4.61a1.59 1.53-82.9 00.79-.64l1.38-2.19a1.15 1.13 51.6 00.11-1c-1.35-3.83-7.57-3.08-10.99-4q-3.3-.88-5.81-.91-12.97-.16-27.38-1.02a.96.96 0 00-.99 1.19c.62 2.46 3.4 1.92 5.36 1.95 8.62.14 17.93 1.75 26.32 2.83a.47.46 43.8 01.02.92c-35.8 5.77-68.87 6.14-107.9 5.01-2.06-.06-5.11-.99-7.69-1.08q-17.4-.59-34.48-3.98z"/><path fill="#222120" d="M236.58 152.19q17.08 3.39 34.48 3.98c2.58.09 5.63 1.02 7.69 1.08 39.03 1.13 72.1.76 107.9-5.01a.47.46 43.8 00-.02-.92c-8.39-1.08-17.7-2.69-26.32-2.83-1.96-.03-4.74.51-5.36-1.95a.96.96 0 01.99-1.19q14.41.86 27.38 1.02 2.51.03 5.81.91c3.42.92 9.64.17 10.99 4a1.15 1.13 51.6 01-.11 1l-1.38 2.19a1.59 1.53-82.9 01-.79.64q-8.99 3.34-17.84 4.61c-14.44 2.08-28.85 3.39-44.24 3.84-31.29.92-67.05.94-101.16-5.34-2.6-.48-14.19-3.29-10.38-8.15 1.41-1.81 10.76-2.37 13.63-3.1q2.78-.71 5.4-.56c8.67.49 16.49-.54 24.74-.87a.62.61-7.2 01.63.48c.34 1.44-.67 2.12-2.02 2.23q-15.02 1.15-30 3.4a.28.27-43.4 00-.02.54z"/><path fill="#fff" d="M449.34 212.71q-2.62-.55-5.09-1.49-3.18-1.21-5.03-1.61-23.37-5.02-47.22-6.87c-49.97-3.87-100.65-4.5-152.37-.61a.38.38 0 01-.24-.69c2.32-1.59 20.85-13.83 20.65-15.19 4.44-.89 9.68.51 12.64.61 41.98 1.43 84.26 1.77 125.89-5.59a.92.91-26.8 01.83.27q4.64 4.88 8.61 6.75 21.82 10.21 41.33 24.42zM256.5 186.37q-7.86.14-15.51-1.8a1.46 1.45-50.3 00-.95.09q-15.92 7.24-30.38 17.06-4.13 2.8-7.25 3.8c-4.66 1.47-9.29 1.47-14.03 2.87q-4.47 1.33-9.16 1.45 23.61-17.68 51.72-26.24c2.17-.66 7.38-.18 10.38.3q7.55 1.22 15.18 2.47z"/><path fill="#949698" d="M256.5 186.37q1.82-1.03 3.54-.12c.2 1.36-18.33 13.6-20.65 15.19a.38.38 0 00.24.69c51.72-3.89 102.4-3.26 152.37.61q23.85 1.85 47.22 6.87 1.85.4 5.03 1.61 2.47.94 5.09 1.49c24.97 17.75 45.16 41.55 58.86 69.37a1.1 1.09-11.9 01-1.03 1.57c-8.61-.36-19.79 5.08-26.68 10.1-10.13 7.38-21.67 12.47-32.64 18.59a1.55 1.52-54.3 01-.97.17l-14.95-2.29a1.16 1.15 76.4 01-.79-.49c-3.22-4.59-7.73-8.69-7.41-14.8a.21.21 0 01.42-.02q1.2 9.54 10.88 11.4 3.99.76 7.05-1.03a1.29 1.25-7.6 00.59-.75q1.31-4.41 1.84-10.51c.43-4.91 7.87-4.68 11.48-3.49a1.05 1.03-.4 01.65.63c.99 2.83-.08 4.31-2.85 4.95a.38.38 0 00-.29.37v.31a.24.23 0 00.24.23c4.93-.15 9.34-6.31 4.16-9.92q-3.34-2.33-9.16-1.59c-5.99.77-6.05 5.47-8.18 9.57a1.46 1.45-87 01-.75.68q-2.64 1.05-4.89-.7a1.09 1.07 20.8 01-.42-.91c.12-3.36 2.18-8.92 1.6-12.87q-.07-.52-.39-.94l-4.88-6.41q-.54-.71.35-.78 6.46-.48 11.69-4.15a.53.53 0 01.82.35c.36 2.2-1.73 8.12-4.77 5.57a.28.27 32.6 00-.42.09l-.16.31a.59.59 0 00.38.84c4.54 1.13 8.07-3.78 8.49-7.68a.63.63 0 01.55-.56q6.3-.77 6.52 5.79c.15 4.45-3.78 4.69-6.9 5.19a.49.48-42.3 00-.05.95c7.87 1.97 16.88-7.93 13.06-15.19-8.12-15.46-23.49.74-29.39-9.36a.62.62 0 01.58-.93c5.61.43 16.21.67 16.82-7.62.36-4.94-.37-10.24-6.58-11.07q-.47-.07-.02.1c8.09 2.97 1.76 13.88-7.01 10.93a1.55 1.53-8.1 01-.77-.57c-2.44-3.52-2.92-8.77-3.85-12.92-1.26-5.63-4.22-6.77-7.67-10.18 3.07-1.4 6.86-1.5 9.33-2.06q5.23-1.21 11.12-2.36a.81.81 0 00.26-1.49q-.87-.52-2.51-.95c-20.93-5.45-42.79-7.8-64.35-8.87-22.33-1.12-46.77-2.85-65.04-2.48-15.5.31-30.89.15-46.48 1.15q-13.51.87-27.03 1.46-6.03.26-10.96 4.65-23.06 20.51-41.07 42.27-1.8 2.18-4.18 3.51c-4.5 2.51-8.46 4.42-12.27 8.83-6.35 7.34-10.59 17.59-12.93 26.92-1.28 5.1-1.29 10.44-1.56 15.85-.45 8.7-3.03 17.5-4.52 25.54-3.83 20.57-4.02 41.79.85 62.39a.3.3 0 01-.52.26q-.49-.56-1.32-.68-14.47-2.19-28.58 1.75a.78.77 76.1 01-.97-.59c-5.36-26.62-5.82-55.32 1.18-81.6 5.77-21.67 15.75-40.68 28.85-58.74 6.58-9.07 15.77-18.41 23.77-27.48q2.06-2.35 4.72-3.76a.35.35 0 00-.04-.63l-10.14-4.07a1.31 1.3 88.1 01-.7-.66l-.91-1.99q6.06-5.19 12.72-9.37 4.69-.12 9.16-1.45c4.74-1.4 9.37-1.4 14.03-2.87q3.12-1 7.25-3.8 14.46-9.82 30.38-17.06a1.46 1.45-50.3 01.95-.09q7.65 1.94 15.51 1.8zm-82.23 32.1c2.74.35 5.93 1.54 8.58 2.68a.97.95-52.5 00.97-.14l9.77-7.88q.29-.24-.08-.16c-1.96.44-19.18 4.44-19.46 5.12a.27.27 0 00.22.38z"/><path fill="#fff" d="M422.5 223.04c-7.8-2.78-15.43-2.97-23.21-.18q-3.03 1.08-6.03 1.97-21.47 1.51-54.2 2.05-52.62.87-94.91-.8c-2.06-.08-2.74.35-4.14 1.68q-21.63 20.48-37.97 43.76c-.54.77-2.05 2.31-1.97 3.56q1.78 25.36-14.4 44.64-3.87 4.62-9.31 7.18-1.62.76-1.85 1.84c-4.7 21.89-6.49 43.95-6.26 66.13.03 2.52.67 5.61.55 8.47q-.21 4.81-.05 6.22.34 3.1.96 6.19 1.51 15.9 4.46 31.59a.45.45 0 01-.45.54q-.53 0-.93-.63l-5.14-8.27-7.4-15.27q-.43-2.31-2.25-3.75l.13-.48a1.44 1.43-50.1 00-.08-.93l-3.09-7.05c-.74-6.51-10.59-7.22-15.71-8.54l.5-.67 11.58 1.8a1.44 1.43 72.5 01.86.45l.32.35q.76.83.42-.25l-1.88-6.04a.74.74 0 00-.65-.52q-13-.96-25.91.63-2.41.3-10.77 3.19a.57.56 73.3 00-.36.68q.31 1.19 1.6 1.67c6.63 6.18 9.3 12.05 11.06 21.44 2.49 13.31 6.37 28.63 15.27 39.31q7.46 8.56 18.46 11.79l-.07.5a1.15 1.12 29.9 00.25.88q12.17 14.71 28 25.41c3.34 2.26 8.86 2.94 12.96 5.37q4.22 2.5 9.1 3.6a.72.71 15.7 01.52.91q-.13.42-.51.58-19.54-7.38-33.04-15.02C119 466.18 95.62 403.39 99.81 339.25c1.56-23.94 9.8-47.75 21.42-68.57 11.02-19.75 27.59-37.46 45.27-51.47l.91 1.99a1.31 1.3 88.1 00.7.66l10.14 4.07a.35.35 0 01.04.63q-2.66 1.41-4.72 3.76c-8 9.07-17.19 18.41-23.77 27.48-13.1 18.06-23.08 37.07-28.85 58.74-7 26.28-6.54 54.98-1.18 81.6a.78.77 76.1 00.97.59q14.11-3.94 28.58-1.75.83.12 1.32.68a.3.3 0 00.52-.26c-4.87-20.6-4.68-41.82-.85-62.39 1.49-8.04 4.07-16.84 4.52-25.54.27-5.41.28-10.75 1.56-15.85 2.34-9.33 6.58-19.58 12.93-26.92 3.81-4.41 7.77-6.32 12.27-8.83q2.38-1.33 4.18-3.51 18.01-21.76 41.07-42.27 4.93-4.39 10.96-4.65 13.52-.59 27.03-1.46c15.59-1 30.98-.84 46.48-1.15 18.27-.37 42.71 1.36 65.04 2.48 21.56 1.07 43.42 3.42 64.35 8.87q1.64.43 2.51.95a.81.81 0 01-.26 1.49q-5.89 1.15-11.12 2.36c-2.47.56-6.26.66-9.33 2.06z"/><path fill="#fff" d="M182.85 221.15c-2.65-1.14-5.84-2.33-8.58-2.68a.27.27 0 01-.22-.38c.28-.68 17.5-4.68 19.46-5.12q.37-.08.08.16l-9.77 7.88a.97.95-52.5 01-.97.14z"/><path fill="#949698" d="M393.26 224.83q-1.79 2.57-4.21 4.12c-2.85 1.82-6.3.75-9 1.12q-8.83 1.2-13.48 8.81c-3.49 5.71-6.66 13.68-5.75 20.33.66 4.84 4.71 10.27 7.41 14.57a.97.96 76.1 01-.89 1.48c-12.33-.93-14.98 12.53-21.37 18.45q-5.89 5.45-13.43 10.61c-4.38 3-7.32 1.37-11.83 1.91-10.6 1.26-20.12-.42-30.39-2.87-5.85-1.39-11.2-.36-16.98-1.22q-11.35-1.67-22.81-.94a.44.44 0 00-.4.53c.72 3.2 6.72 3.95 9.26 4.05a.45.45 0 01.19.85q-5.82 3.16-5.68 9.82a.44.44 0 00.78.28l5.56-6.47a.5.5 0 01.84.5q-1.7 4.55-.91 9.3a.68.68 0 001.32.11l2.25-6.5a.41.41 0 01.68-.14l.21.23a.42.41 30 01.11.4l-1.64 6.35a.85.84 20 00.46.98q1.3.61 2.01-.68c4.15-7.57 15.55-8.7 22.82-6.08 13.27 4.78 26.34 13.76 40.61 14.27 3.36.12 5.86-2.02 8.33-3.32q10.58-5.59 20.07-12.88.39-.3.43.19c.3 3.82-.01 7.66.62 11.32 1.49 8.64 6.82 25.37-1.95 31.36-7.09 4.84-13.44 7.96-19.49 15.34-8.46 10.3-15.38 21.85-19.06 34.72-1.26 4.4-3.02 8.72-3.98 13.12q-2.72 12.41-6.9 24.41c-10.33 29.71-40 39.67-68.67 33-11.97-2.78-18.97-8.61-19.02-21.31-.05-16.19 3.51-30.26 6.37-45.7 2.8-15.15 2.46-42.18-10.97-52.55-11.22-8.66-25.2-13.51-38.87-16.74a1.37 1.36 6.2 00-1.68 1.34c.1 6.41 1.53 12.57 1.5 18.99q-.03 5.22-1.33 14.23-2.05 14.33-4.45 28.61c-.71 4.21.17 8.2-.24 12.62q-.62-3.09-.96-6.19-.16-1.41.05-6.22c.12-2.86-.52-5.95-.55-8.47-.23-22.18 1.56-44.24 6.26-66.13q.23-1.08 1.85-1.84 5.44-2.56 9.31-7.18 16.18-19.28 14.4-44.64c-.08-1.25 1.43-2.79 1.97-3.56q16.34-23.28 37.97-43.76c1.4-1.33 2.08-1.76 4.14-1.68q42.29 1.67 94.91.8 32.73-.54 54.2-2.05zm-48.65 8.16c-7.48-3.47-13.55 5.42-8.18 11.02 8.72 9.08 16.38-8.27 10-9.77q-.5-.12-.32.36c1.17 2.96.58 5.88-2.7 6.97-4.7 1.56-7.19-5.34-2.87-8.38a1.48 1.45 31.2 011.07-.25l2.88.43q1.4.21.12-.38zm-22.79 24.4c-5.56 5.15 4.28 11.12 6.54 3.6a1.06 1.05-53.9 00-.14-.91q-1.5-2.15-3.97-3.14c-.49-.2-.97-.05-1.38-.53a1.32 1.3-15 00-.79-.45q-7.22-1.18-11 4.09c-7.77 10.85 4.52 23.13 15.23 16.35 4.27-2.7 6.78-10.03 3.43-14.79q-.3-.43-.34.09c-.17 2.04.33 4.13-.15 5.88-2.54 9.2-20.31 3.48-13.07-6.9q2.27-3.25 5.51-3.58.5-.06.13.29z"/><path fill="#949698" d="M399.44 235.38q5.68-2.78 11.86-.35a.34.34 0 01-.16.66q-7.82-.91-14.76 2.64-1.35.7-.43-.51l1.67-2.18a.43.43 0 00-.17-.65c-1.94-.84-4.25 1.12-4.66.75a.7.7 0 01-.18-.79c.29-.74 2.31-4.06 2.12-4.48a.17.16 61.3 00-.23-.07l-2.77 1.7q-1.06.65-.55-.49c2.2-4.97 6.93-5.27 12.08-4.88a.64.63-84.4 01.58.71l-.05.37a.73.72 89 01-.59.62q-3.55.61-5.66 3.54a.37.37 0 00.09.53l.23.17a.72.72 0 00.94-.1q.92-.98 2.22-1.09.97-.08.36.68l-2.06 2.62a.37.33-28 00-.08.22l.01.26a.14.13 75.9 00.19.12z"/><path fill="#fff" d="M336.43 244.01c-5.37-5.6.7-14.49 8.18-11.02q1.28.59-.12.38l-2.88-.43a1.48 1.45 31.2 00-1.07.25c-4.32 3.04-1.83 9.94 2.87 8.38 3.28-1.09 3.87-4.01 2.7-6.97q-.18-.48.32-.36c6.38 1.5-1.28 18.85-10 9.77z"/><path fill="#949698" d="M385.22 239.49c-1.67-.99-3.62 2.11-4.71 2.97q-.89.7-.5-.37l2.02-5.39a.29.28-74.5 00-.21-.38q-4.58-.87-6.86 3a.57.56 31 01-.79.19q-.75-.45-.23-1.53 2.87-5.98 9.32-5.76 2.51.08 2.29 2.56a.98.97 75.7 01-.43.73q-.57.38-.69.95a.32.31-87.3 00.34.38l4.17-.43a.63.62-83.8 01.65.82q-.82 2.53-2.69 4.41-.79.8-.99-.31l-.21-1.15a1 .98-80.3 00-.48-.69zM407.21 243.25q2.88 7.17.68 14.55a1.32 1.27-50.4 00.07.92l2.28 4.93q-2.49 1.71-2.7 4.42a.96.95-13.9 01-.46.76l-2.38 1.51a.6.6 0 00-.17.86c1.34 1.88 4.65 5.11 1.25 7.01-2.33 1.3-3.91.73-5.67-1.24-5.24-5.86-15.37-17.36-10.41-24.95q2.73-4.18 7.16-6.61a.39.39 0 00.03-.67q-1.36-.93-1.41-2.63a.72.72 0 01.44-.68q6.34-2.65 11.29 1.82zm.64 9.29c-.05-1.36-1.14-1.82-2.05-2.61a.87.86-34.8 00-.88-.15l-6.13 2.36a.52.51-32.5 00-.19.84l.26.25a.72.71 57.3 00.77.17c1.75-.67 5.61-1.91 7.82-.61q.43.25.4-.25zm-9.38 4.09l4.28 2.57a.61.6 34.7 00.79-.14l1.63-2.1a.88.88 0 00-1.1-1.33q-2.26 1.15-4.55.13a.75.73 33.4 00-.82.16l-.28.29a.27.26 38.5 00.05.42z"/><path d="M410.24 263.65l-2.28-4.93a1.32 1.27-50.4 01-.07-.92q2.2-7.38-.68-14.55c3.89-1.97 3.08 10.91 2.87 12.93-.24 2.38.5 4.1 1.35 6.17a.86.85 54.5 01-.14.87q-.4.48-1.05.43z"/><path d="M405.8 249.93c.91.79 2 1.25 2.05 2.61q.03.5-.4.25c-2.21-1.3-6.07-.06-7.82.61a.72.71 57.3 01-.77-.17l-.26-.25a.52.51-32.5 01.19-.84l6.13-2.36a.87.86-34.8 01.88.15z"/><path fill="#fff" d="M321.69 257.1q-3.24.33-5.51 3.58c-7.24 10.38 10.53 16.1 13.07 6.9.48-1.75-.02-3.84.15-5.88q.04-.52.34-.09c3.35 4.76.84 12.09-3.43 14.79-10.71 6.78-23-5.5-15.23-16.35q3.78-5.27 11-4.09a1.32 1.3-15 01.79.45c.41.48.89.33 1.38.53q2.47.99 3.97 3.14a1.06 1.05-53.9 01.14.91c-2.26 7.52-12.1 1.55-6.54-3.6q.37-.35-.13-.29z"/><path d="M398.47 256.63a.27.26 38.5 01-.05-.42l.28-.29a.75.73 33.4 01.82-.16q2.29 1.02 4.55-.13a.88.88 0 011.1 1.33l-1.63 2.1a.61.6 34.7 01-.79.14l-4.28-2.57z"/><path fill="#fff" d="M396.25 300.7q-2.95 1.25-5.98-1.24-7.75-6.39-11.98-15.26a2.06 2.04 81.8 00-1.49-1.13q-14.23-2.52-21.5 9.18c-4.73 7.62-19.51 22.86-30.07 20.83q14.52-6.36 25.35-17.65c3.56-3.71 5.96-9.22 9.08-13.02 2.36-2.87 11.4-2.45 14.59-1.93 2.03.33 3.68 1.39 4.84 3.27q6.42 10.49 17.16 16.95z"/><path fill="#949698" d="M396.25 300.7c2.43.81 9.69 2.3 10 5.05q1.26 11.02 4.72 18.93a.3.29-18.4 01-.21.41l-7.14 1.59a.84.84 0 01-1.02-.77c-.28-4.41-2.78-13.52-8.21-14.34-7.39-1.12-11.99 5.95-15.89 10.72q-1.49-.81-1.82-2.49-.88-4.39-3.1-8.2l-.53-4.51q-.04-.35-.28-.09l-.27.29c-2.96-.31-1.55 3.27-3.73 4.65a1.89 1.87-2.9 00-.65.71c-2.49 4.75 2.51 13.98 5.05 19.39 1.91 4.09.69 8.02-1.97 11.31q-.34.41-.45.94-.37 1.76-1.96 2.43a.84.84 0 01-1.17-.71c-.35-4.31-.17-7.99-1.23-12.15-2.1-8.26-.72-17.01.75-25.8q.75-4.49.76-9.09l1.18-3.86a.54.53 73.5 00-.92-.5q-4.62 5.48-9.3 10.22c-6 6.08-13.2 10.57-20.5 15.15-7.81 4.91-13.37 6.12-19.9-1.09a1.27 1.26 48.5 01.11-1.82q2.76-2.36 6.66-3.99c10.56 2.03 25.34-13.21 30.07-20.83q7.27-11.7 21.5-9.18a2.06 2.04 81.8 011.49 1.13q4.23 8.87 11.98 15.26 3.03 2.49 5.98 1.24zM364.75 525.79q-.59-.67-.16-1.34a1.16 1.14-77.7 01.78-.51q14.29-2.37 27.84-7.01 12.24.27 19.04-10.44c7.39-11.65-11.98-20.06-20.26-22.5q-19.28-5.69-37.92-5.4c-1.94.03-3.25-.53-4.78 1.16l-.9 1.16q-.3.39-.74.61-5.59 2.88-10.89 6.24c-3.85 2.44-8.38 3.8-12.61 5.95-7.03 3.56-13.7 6.06-21.86 7.66-8.52 1.68-17.64 3.77-25.83 4.1q-7.64.32-15.27-.36c-5.43-.49-9.57-2.6-14.71-3.83a.56.56 0 01-.42-.64q.13-.83.94-1.35c17.55 7.33 31.9 5.34 51.45 1.49 17.66-3.48 34.97-11.39 49.3-21.53 9.6-6.79 17.59-17.2 24.72-28.35 10.65-16.66 16.52-40.45 19.03-59.4 1.47-11.13 2.3-21.28 6.63-30.86 2.35-5.21 7.5-15.92 12.5-18.79q7.03-4.04 6.88-12.79a.34.34 0 01.46-.32q16.9 6.01 34.53 3.04c9.33-1.57 24.04-19.65 29.28-27.24.84-1.23 2.15-1.61 3.75-1.71q4.56-.26 8.51-2.78.6-.38.56.33l-.13 2.87q-.04.89.72.43l1.7-1.03a.64.64 0 01.91.28l.62 1.35a.77.77 0 001.27.19l2.62-2.96a.73.73 0 01.87-.17l1.56.79a.6.6 0 00.82-.28q2.35-5.07-.1-10.3a1 1 0 00-.79-.56l-3.19-.35a.53.52 19.6 01-.39-.81c.61-.91 6.74-2.6 8.46-3.62a.43.42 63.5 01.61.21c10.79 27.58 16.09 57.25 12.12 88.09-2.73 21.22-8 43.81-18.88 64.25-28.09 52.76-81.15 77.98-138.65 87.03zm75.139-144.183a10.99 10.99 0 00-.272-15.54l-1.352-1.306a10.99 10.99 0 00-15.54.271l-1.334 1.381a10.99 10.99 0 00.272 15.54l1.352 1.306a10.99 10.99 0 0015.54-.271l1.334-1.381zm6.781 26.203a.42.42 0 01.2.75c-7.86 5.76 7.41 11.62 6.33 2.08a1.51 1.51 0 00-.39-.87c-5.25-5.78-15.29-3.95-18.91 2.07-6.45 10.71 4.95 22.73 15.96 17.31 6.69-3.3 8.26-10.78 5.33-17.38a.46.45 77.8 00-.41-.27l-.29-.01a.29.29 0 00-.29.33c.3 1.87.89 3.64.7 5.44-1.06 10.05-16.18 8.44-15.92-1.61.1-3.84 3.3-8.35 7.69-7.84zm-16.09 52.33a8.4 8.4 0 00-8.4-8.4 8.4 8.4 0 00-8.4 8.4 8.4 8.4 0 008.4 8.4 8.4 8.4 0 008.4-8.4z"/><path fill="#949698" d="M407.34 306.06c-1.2-4.01-5.67-5.11-6.66-8.8q-.14-.51.33-.27 5.53 2.89 10.8 6.16c2.08 1.29 2.8 3.09 3.92 5.11 2.99 5.39 23.35 8.12 30.03 8.96 5.69.71 5.82-2.13 9.8-3.8q4.26-1.79 8.96-1.62a.48.48 0 01.46.52c-.53 7.15-6.04 11.79-12.21 14.4-4.6 1.95-11.94.99-17.02 1.06q-9.52.12-20.4-5.22a1.81 1.74-2.6 01-.73-.64q-4.76-7.43-7.28-15.86z"/><path fill="#fff" d="M367.9 298.97q-.01 4.6-.76 9.09c-1.47 8.79-2.85 17.54-.75 25.8 1.06 4.16.88 7.84 1.23 12.15a.84.84 0 001.17.71q1.59-.67 1.96-2.43.11-.53.45-.94c2.66-3.29 3.88-7.22 1.97-11.31-2.54-5.41-7.54-14.64-5.05-19.39a1.89 1.87-2.9 01.65-.71c2.18-1.38.77-4.96 3.73-4.65-2.66 8.58-3.38 18.62 3.88 25.21q1.12 9.31-6.38 14.79l-3.37 2.02a.33.33 0 01-.5-.24c-.39-2.86.23-5.89-.05-8.42-.84-7.74-3.61-16.36-3.38-23.34q.33-9.67 5.2-18.34z"/><path fill="#fff" d="M373.58 311.6q2.22 3.81 3.1 8.2.33 1.68 1.82 2.49l-1.57 2.27a.39.39 0 01-.64 0q-3.95-5.66-2.71-12.96z"/><path d="M370 347.29q7.5-5.48 6.38-14.79 1.62-.78 2.01.85c.68 2.82-2.21 9.97-3.41 11.85-.25.4-4.43 4.85-4.98 2.09z"/><path fill="#949698" d="M214.83 468.25c-3.4.13-15.36-15.87-16.83-18.74-5.36-10.5-4.76-26.48-3.24-38.95 1.76-14.5 1.22-32.36-4.54-46.04-2.59-6.14-4.75-12.09-8.97-17.36-.25-.31-.38-.49-.04-.78a.41.4-44.4 01.53 0c15.25 13.63 27.72 28.4 29.02 49.82.47 7.75-.58 15.9-1.24 23.8-.53 6.43-2.56 17.8-2.03 26 .41 6.41 2.68 15.93 7.55 21.78a.29.29 0 01-.21.47z"/><path fill="#949698" d="M209.35 445.55q2.24-2.86-.33-5.34 1.03-12.44 2.47-24.91c1.62-14 1.53-27.35-4.39-39.53q-7.73-15.91-21.34-27.68a.34.33-12.5 01.36-.56c9.2 4.1 18.19 11.59 23.81 19.41 7.19 10.01 8.19 23.43 7.12 35.4q-1.77 19.76-3.51 39.51c-.65 7.34-.98 15.09 1.28 22.66a.19.19 0 01-.2.25l-.29-.03a.11.09-5.7 01-.06-.04q-4.65-9.06-4.92-19.14z"/><path fill="#949698" d="M211.15 469.07c-10.07-4.61-18.37-10.48-23.49-20.8q-6.17-12.43-6.94-26.22c-.95-17.11 5.51-34.83 3.7-52.43-.81-7.88-3.04-14.08-4.95-21.06a.25.25 0 01.25-.31h.31a.31.3 78.2 01.28.19c2.07 5.12 5.49 10.25 7.29 14.57q6.92 16.6 6.35 33.75c-.35 10.69-3.18 24.76-1.48 37.78 1.72 13.21 7.96 24.2 18.37 32.63q.87.71 1.04 1.26a.54.53-86.1 01-.73.64zM218.48 426.27c-.13 1.22-.47 4.7-2 5.3a.32.32 0 01-.44-.33c2.74-26.99 11.38-57.76-15.98-76.82q-.95-.66-1.27-1.67-.16-.52.33-.28c11.22 5.65 18.04 9.96 21.34 23.28q2.79 11.24 2.29 20c-.4 7.12-2.92 17.64-4.27 30.52zM334.64 384.04c5.48-11.3 16.21-20.65 27.65-25.51q1.01-.43 1.75-.22a.67.67 0 01.2 1.2c-8.04 5.42-15.76 11.07-22.53 17.98q-3.36 3.43-6.91 6.66-.38.35-.16-.11z"/><path fill="#949698" d="M202.97 467.79c-12.45-7.93-21.49-17.42-27.38-31.04-4.14-9.61-3.53-21.62-1.82-31.75 2.55-15.1 7.2-28.83 7.16-45.02q-.01-.5.12-.01 2.16 8.66 1.7 17.53-.96 18.38-4.29 36.49-.49 2.66.39 9.21c2.53 18.71 7.55 33.79 24.65 43.87a.4.39 39.8 01.06.64q-.3.26-.59.08z"/><path fill="#fff" d="M438.555 382.988a10.99 10.99 0 01-15.54.271l-1.352-1.306a10.99 10.99 0 01-.272-15.54l1.334-1.38a10.99 10.99 0 0115.54-.272l1.352 1.306a10.99 10.99 0 01.272 15.54l-1.334 1.38zm.905-15.978q-.28-.31-.29.1c-.13 5.54-7.67 6.23-8.14.04a1.36 1.33 63.2 01.29-.92l1.36-1.65a.7.7 0 00-.79-1.1q-4.7 1.77-6.15 5.46c-4.56 11.59 15.93 16.04 15.61 2.07q-.05-1.94-1.89-4z"/><path fill="#949698" d="M439.46 367.01q1.84 2.06 1.89 4c.32 13.97-20.17 9.52-15.61-2.07q1.45-3.69 6.15-5.46a.7.7 0 01.79 1.1l-1.36 1.65a1.36 1.33 63.2 00-.29.92c.47 6.19 8.01 5.5 8.14-.04q.01-.41.29-.1zM139.75 402.29l-.5.67c-.37-.01-3.45-.24-2.98-1.03a.43.42 20.5 01.45-.2l3.03.56z"/><path d="M141.29 465c-8.9-10.68-12.78-26-15.27-39.31-1.76-9.39-4.43-15.26-11.06-21.44q.36-.67.88-.87a.76.74-29.5 01.82.22c3.62 4.19 7.15 8.15 8.79 13.62q4 13.28 4.56 18.02c.59 5.03 3.26 10.93 4.94 15.81 1.67 4.83 4.31 8.38 7.12 12.47a.98.98 0 01.1.91q-.21.48-.88.57z"/><path fill="#949698" d="M154.96 411.5l3.09 7.05a1.44 1.43-50.1 01.08.93l-.13.48q-14.21-11.46-31.8-16.18-.49-.13.02-.14 14.06-.2 26.86 5.51a1.68 1.67-4.6 01.72.61l1.16 1.74z"/><path fill="#fff" d="M446.67 407.81c-4.39-.51-7.59 4-7.69 7.84-.26 10.05 14.86 11.66 15.92 1.61.19-1.8-.4-3.57-.7-5.44a.29.29 0 01.29-.33l.29.01a.46.45 77.8 01.41.27c2.93 6.6 1.36 14.08-5.33 17.38-11.01 5.42-22.41-6.6-15.96-17.31 3.62-6.02 13.66-7.85 18.91-2.07a1.51 1.51 0 01.39.87c1.08 9.54-14.19 3.68-6.33-2.08a.42.42 0 00-.2-.75z"/><path fill="#949698" d="M160.25 423.71l7.4 15.27q2.87 17.95 16.56 29.7l3.26 3.5q.32.34-.14.41-2.1.34-5.08-.91-11.5-4.83-14.73-15.93c-1.98-6.82-5-16.56-8.98-23.23q-8.19-13.71-21.16-23.08a.13.13 0 01.13-.23q12.62 4.99 22.06 14.64a.32.32 0 00.41.04l.27-.18z"/><path d="M167.65 438.98l5.14 8.27c-.33 4.97 2.8 9.21 6.34 13.5q2.99 3.62 5.08 7.93-13.69-11.75-16.56-29.7z"/><path fill="#fff" d="M209.02 440.21q2.57 2.48.33 5.34l-.33-5.34zM430.58 460.14a8.4 8.4 0 01-8.4 8.4 8.4 8.4 0 01-8.4-8.4 8.4 8.4 0 018.4-8.4 8.4 8.4 0 018.4 8.4zm-2.48-.01a6 6 0 00-6-6 6 6 0 00-6 6 6 6 0 006 6 6 6 0 006-6z"/><circle fill="#949698" cx="422.1" cy="460.13" r="6"/><path fill="#949698" d="M247 499.29q-.81.52-.94 1.35a.56.56 0 00.42.64c5.14 1.23 9.28 3.34 14.71 3.83q7.63.68 15.27.36c8.19-.33 17.31-2.42 25.83-4.1 8.16-1.6 14.83-4.1 21.86-7.66 4.23-2.15 8.76-3.51 12.61-5.95q5.3-3.36 10.89-6.24.44-.22.74-.61l.9-1.16c12.94.56 86.5 9.57 43.92 37.18q-13.55 4.64-27.84 7.01a1.16 1.14-77.7 00-.78.51q-.43.67.16 1.34c-21.22 3.61-42.54 3.56-63.99 3.58q-46.73.05-90.76-15.33.38-.16.51-.58a.72.71 15.7 00-.52-.91q-4.88-1.1-9.1-3.6c-4.1-2.43-9.62-3.11-12.96-5.37q-15.83-10.7-28-25.41a1.15 1.12 29.9 01-.25-.88l.07-.5q19.67 4.62 39.28.41c10.13-2.17 19.5.7 26.43 8.24a.36.36 0 01-.11.57c-7.6 3.44-22.59 10.87-14.31 21.93 3.09 4.12 11.19 10.83 16.69 9.84a.89.89 0 00.33-1.62q-6.25-4.06-10.49-9.72c-6.28-8.38 5.76-15.49 12.16-17.35a.93.93 0 01.87.17q7.58 6.12 16.4 10.03z"/><path fill="#222120" d="M393.21 516.93c42.58-27.61-30.98-36.62-43.92-37.18 1.53-1.69 2.84-1.13 4.78-1.16q18.64-.29 37.92 5.4c8.28 2.44 27.65 10.85 20.26 22.5q-6.8 10.71-19.04 10.44z"/><path fill="#949698" d="M297.49 545.68q-15.76-.44-31.45-1.95c-9.85-.96-20.63-3.37-29.54-5.46-12.49-2.93-25.78-8.43-36.11-16.52a1.42 1.41-75.9 01-.53-.89l-.58-3.57q-.1-.62.48-.37c20.8 8.85 42.25 14.65 64.68 17.46 5.5.69 11.16 1.76 16.45 2.2 13.97 1.16 27.48 1.56 41.57 1.88q7.44.17 12.95-.2 39.44-2.63 76.93-15.26c2.95-1 6.09-2.56 9.2-3.72a.69.68-28.8 01.8.23q.57.76-.18 1.41c-8.05 6.9-16.57 11.06-27.33 14.49-31.58 10.06-64.57 11.18-97.34 10.27z"/><path fill="#222120" d="M12.44 591H1.19q5.62-.63 11.25 0zM576.44 591h-5.75q2.87-.63 5.75 0z"/></svg>