<svg xmlns="http://www.w3.org/2000/svg" viewBox="0 0 591 591"><g stroke-width="2" fill="none"><path stroke="#111010" vector-effect="non-scaling-stroke" d="M590.06 0l.19.29"/><path stroke="#7f7e6f" vector-effect="non-scaling-stroke" d="M590.25.29v589.45a.5.49-90 01-.49.5l-588.51-.03"/><path stroke="#111010" vector-effect="non-scaling-stroke" d="M1.25 590.21L0 589.94"/><path stroke="#7f7e6f" vector-effect="non-scaling-stroke" d="M586.25 4.51a.26.26 0 00-.26-.26H4.51a.26.26 0 00-.26.26v581.48a.26.26 0 00.26.26h581.48a.26.26 0 00.26-.26V4.51"/><path stroke="#8f8e7e" vector-effect="non-scaling-stroke" d="M591 587.56c-.84-.45-.25-537.29-.25-587.06a.25.24-86.1 00-.21-.25q-.17-.02-.29.04M31.19 591q-2.75-.63-5.5 0M25.19 591l-23.94-.79"/><path stroke="#fbefc3" vector-effect="non-scaling-stroke" d="M51.22 28.69c-12.17.02-21.47 6.35-21.63 19.07-.2 16.15.49 30.07.69 44.83a1.05 1.05 0 001.79.73Q62.9 62.63 91.8 31.55q1.5-1.61 1.65-3.64a.45.45 0 00-.47-.49q-31.39 1.25-41.76 1.27"/><path stroke="#8f8e7e" vector-effect="non-scaling-stroke" d="M442.99 91.2a.15.15 0 00-.16-.15q-15.2.79-30.52.77c-6.5 0-15.41.81-22.83.92q-26.33.36-52.66.7c-22.78.29-45.57 1.35-68.34 1.95-9.87.27-21.77 1.2-32.66 1.41-22.07.44-44.23 1.16-66.29 2.42a.52.52 0 00-.49.53c.34 24.48.49 48.97 1.06 73.44.46 19.94.19 39.79 1.25 59.71.54 10.07.39 21.08.77 31.65 1.31 36.1 1.69 72.27 2.72 108.39.3 10.54.36 23.72.9 35.98q1.26 28.1 1.07 48.89c-.31 35.83 1.04 61.56.96 92.45a.51.51 0 00.49.51c5.31.22 11.72-.42 15.91-.49q80.17-1.34 145.39-3.19c16-.46 34.41-1.56 51.5-2.04q28.74-.82 58.66-2.01a1.27 1.26-1.8 001.22-1.29c-.41-15.83-.19-32.21-.89-47.74-.91-19.98-2.4-40.02-2.73-60.01q-.96-59.1-2.22-118.19c-.91-43.04-.19-86.08-.82-129.12q-.7-47.42-1.29-95.49"/><path stroke="#c7c7b9" vector-effect="non-scaling-stroke" d="M117.79 278.25c-.43 5.76 2.75 7.98 8.26 7.97q12.73-.02 25.46-.42c4.24-.14 7.1.82 10.44-2.67a1.5 1.47-20.9 00.4-.87l.49-5.02"/><path stroke="#8f8e7e" vector-effect="non-scaling-stroke" d="M162.84 277.24c.23-.71.59-1.31.6-2.09q.37-24.93-.14-33.88-.25-4.45-4.63-7.49a1.7 1.69 62.8 00-.93-.3q-21.44-.43-36.56 2.15c-2.6.44-4.21 3.39-4.27 6.08q-.39 18.28.88 36.54"/><path stroke="#59595a" vector-effect="non-scaling-stroke" d="M162.84 277.24q-3.08 2.95-4.59 3.01l-25.75 1.04"/><path stroke="#707070" vector-effect="non-scaling-stroke" d="M132.5 281.29l-9.44.14a1.74 1.72 59.8 01-.93-.25l-2.88-1.72"/><path stroke="#59595a" vector-effect="non-scaling-stroke" d="M119.25 279.46l-1.46-1.21"/><path stroke="#a7a9aa" vector-effect="non-scaling-stroke" d="M119.25 279.46q-.15-.01-.29.04a.37.37 0 00-.22.47q1.3 3.72 5.14 4.29a1.53 1.51 34.4 00.94-.17q1.63-.89 3.27.26 1.04.73.66-.48l-.43-1.37a.29.27 59.5 01.06-.26l.21-.21a.26.26 0 01.39.02q1.59 1.97 3.93 1.77a.48.47 76.3 00.4-.66l-.81-1.87"/><path stroke="#dedecf" vector-effect="non-scaling-stroke" d="M7.515 581.926a1.5.4 85.6 00.284-1.527 1.5.4 85.6 00-.514-1.465A1.5.4 85.6 007 580.461a1.5.4 85.6 00.514 1.465"/><path stroke="#707070" vector-effect="non-scaling-stroke" d="M373 98.71l-28.28.76"/><path stroke="#59595a" vector-effect="non-scaling-stroke" d="M344.72 99.47q-7.57-.64-15.17-.28c-22.23 1.04-44.47 1.23-66.71 1.99-7.54.25-16.87 1.32-23.59 1.33q-32.11.07-63.85 1.52a1.45 1.45 0 00-1.39 1.47c.21 18.9 1.07 37.56 1.34 56.25q.5 33.76 2.11 67.5"/><path stroke="#707070" vector-effect="non-scaling-stroke" d="M177.46 229.25q1.07 30.28 1.79 60.58c.18 7.53 1.09 21.24.79 31.92"/><path stroke="#59595a" vector-effect="non-scaling-stroke" d="M180.04 321.75l1.75 90.25"/><path stroke="#707070" vector-effect="non-scaling-stroke" d="M181.79 412q.74 11.64.71 15.5-.43 57.13.96 114.25"/><path stroke="#59595a" vector-effect="non-scaling-stroke" d="M183.46 541.75l-.67 2.68a.49.49 0 00.48.61l7.97-.2a.58.58 0 00.56-.56c.1-1.94.31-3.99.27-5.87-.64-26.1-1.1-52.18-2.23-78.27-.59-13.75-.38-27.56-.84-41.34-.58-17.48-.7-34.73-1.5-52.09"/><path stroke="#8f8e7e" vector-effect="non-scaling-stroke" d="M187.5 366.71l-.71-42.96"/><path stroke="#59595a" vector-effect="non-scaling-stroke" d="M186.79 323.75q.25-.48.21-1.5-.67-15.73-.79-38.25"/><path stroke="#707070" vector-effect="non-scaling-stroke" d="M186.21 284l-.46-29.21"/><path stroke="#59595a" vector-effect="non-scaling-stroke" d="M185.75 254.79l-.79-25.04"/><path stroke="#707070" vector-effect="non-scaling-stroke" d="M184.96 229.75V210"/><path stroke="#59595a" vector-effect="non-scaling-stroke" d="M184.96 210q-1.01-47.57-1.75-95.15c-.02-1.31-.6-2.86-.3-4.41a.63.63 0 01.61-.51c11.47-.3 22.22-.45 34.37-1.06 13.28-.67 26.63-.32 39.86-1.41"/><path stroke="#707070" vector-effect="non-scaling-stroke" d="M257.75 107.46q35.01-.13 70-1.5"/><path stroke="#59595a" vector-effect="non-scaling-stroke" d="M327.75 105.96c28.85.01 58.38-1.36 86.43-1.11q5.8.05 12.05-.71a1.4 1.39 86.2 011.57 1.38c.12 21.4.95 43.01 1.2 64.54.33 28.48 1.15 54.64 1.61 90.38q.08 6.38.93 16.81"/><path stroke="#707070" vector-effect="non-scaling-stroke" d="M431.54 277.25l.5 32"/><path stroke="#59595a" vector-effect="non-scaling-stroke" d="M432.04 309.25l1.25 63.5"/><path stroke="#707070" vector-effect="non-scaling-stroke" d="M433.29 372.75l.75 40.75"/><path stroke="#59595a" vector-effect="non-scaling-stroke" d="M434.04 413.5l3.04 123.15a.35.34-25.1 01-.09.23l-.18.18q-.44.47.2.42l7.42-.55a.91.9 87.4 00.84-.93c-.43-18.83-.45-37.78-1.4-56.55-.81-16.21-1.97-32.64-2.33-48.69q-.72-32.1-1.03-64.2c-.35-36.54-2.01-72.44-1.82-109.72q.39-79.18-.65-158.42a.87.86 89.7 00-.86-.86q-30.5.16-60.99.83-1.62.03-3.19.32"/><path stroke="#a7a9aa" vector-effect="non-scaling-stroke" d="M434.04 413.5l.28.51a.15.15 0 00.18.07l.29-.1a.56.55 80.5 00.37-.53l-.44-40.17a.52.52 0 00-.52-.52l-.91-.01M432.04 309.25q1.17.27 1.2-.75.24-8.57-.48-19.51c-.23-3.41.13-7.16-.05-10.77a.93.92 13.3 00-.47-.75q-.32-.17-.7-.22M327.75 105.96c-.23-1.53-1.63-.94-2.64-.95q-17.57-.1-23.11.27-18.19 1.24-27.48.67c-4.7-.28-9.92.37-16.02.08a.71.7-78.3 00-.7.47q-.18.47-.05.96M184.96 210q-.23-.64-.92-.51a.73.72-.6 00-.59.6c-.27 1.85.04 22.42.82 22.47a.4.4 0 00.42-.36l.27-2.45M185.75 254.79q-.49-.16-.83-.01a.73.72 75.4 00-.42.73q.34 3.83.08 5.31c-.38 2.09.13 2.95.23 4.6q.6 9.4.15 15.57-.15 2.21 1.25 3.01"/><path stroke="#c7c7b9" vector-effect="non-scaling-stroke" d="M186.79 323.75q-1.32 21.25-.31 42.52a.5.5 0 00.55.48l.47-.04"/><path stroke="#a7a9aa" vector-effect="non-scaling-stroke" d="M183.46 541.75q.39.38.8.26a.71.71 0 00.52-.66q.55-17.34-.46-34.65c-.34-5.83.16-12.5-.38-18.83q-.51-6.06-.36-10.25.41-11.39.17-22.78c-.14-6.95.59-15.55.03-23.36-.46-6.39.16-12.65-.22-19.06a.73.73 0 00-.53-.66q-.65-.19-1.24.24M180.04 321.75h.36a.43.41-86 00.41-.37q1.35-12.11-.54-24.12-.14-.85.38-2.71a1.62 1.62 0 00-.06-1.02q-.81-2.04-.16-4.16a1.17 1.17 0 00-.07-.87q-.77-1.59-.08-3.29a1.36 1.36 0 00.03-.97q-.21-.57-.23-1.18-.54-13.63-.3-27.29a1.47 1.47 0 00-.31-.93q-.75-.96-.13-1.92a1.67 1.64 60.2 00.26-.99q-.48-9.08-1.14-18.16c-.11-1.62.38-3.63-.62-5.52q-.29-.55-.32.06l-.06.94M344.72 99.47q14.01 1.47 28.27.07a.51.5-13.9 00.42-.69q-.08-.2-.41-.14"/><path stroke="#707070" vector-effect="non-scaling-stroke" d="M237.01 117.42l-45.95.89a.5.5 0 00-.49.51l1.47 68.43"/><path stroke="#59595a" vector-effect="non-scaling-stroke" d="M192.04 187.25l2 97M194.04 284.25l.86 44.09a1.12 1.12 0 00.34.78q.61.59.01 1.15a1.12 1.11 70.5 00-.35.74q-.21 4.47.3 8.9c.27 2.36-.03 4.75.01 7.4q.31 21.19.92 42.37.08 2.55.41 5.07"/><path stroke="#707070" vector-effect="non-scaling-stroke" d="M196.54 394.75q.41 38.48 1.73 76.93.04 1.19.17 2.48a.86.85 8.9 00.52.7q.62.26 1.18-.27"/><path stroke="#59595a" vector-effect="non-scaling-stroke" d="M200.14 474.59c36.18-10.29 72.9-20.46 109.08-31.47q.48-.15-.02-.15-23.7-.01-47.4.81c-13.08.46-26.99.49-40.51 1a.64.64 0 01-.64-.46c-.41-1.35-1.03-3.25-1.09-4.64q-2.23-50.45-2.3-100.95c0-2.2-.69-4.65-.29-7.22a.76.75 16.9 00-.43-.79l-.92-.42a.59.59 0 00-.84.51q-.25 6.74-.09 13.45c.31 12.52-16.35 13.36-16.88-.13-.42-10.62-.27-18.59-.85-32.06-.2-4.89.65-8.02 4.59-10.66"/><path stroke="#59595a" vector-effect="non-scaling-stroke" d="M201.55 301.41q5.33-2.15 9.24 1.07c4.51 3.7 3.71 13.41 3.51 18.61a.63.63 0 00.59.65l.99.08a.56.56 0 00.6-.54q.33-8.69.01-17.37c-.9-24.19-1.01-48.4-1.52-72.6q-.5-23.79-1.51-47.56"/><path stroke="#707070" vector-effect="non-scaling-stroke" d="M213.46 183.75l-.75-36"/><path stroke="#59595a" vector-effect="non-scaling-stroke" d="M212.71 147.75l-.09-8.69a.47.47 0 01.44-.47l4.67-.23"/><path stroke="#707070" vector-effect="non-scaling-stroke" d="M217.73 138.36l38.52-.65"/><path stroke="#59595a" vector-effect="non-scaling-stroke" d="M256.25 137.71c12.25.17 27-.66 36.67-.83 41.04-.7 68.71-1.3 107.22-2.69a.56.55 81.7 01.56.42l.61 2.36"/><path stroke="#707070" vector-effect="non-scaling-stroke" d="M401.31 136.97l.98 70.03"/><path stroke="#59595a" vector-effect="non-scaling-stroke" d="M402.29 207l.42 22.75"/><path stroke="#707070" vector-effect="non-scaling-stroke" d="M402.71 229.75l.58 19.5"/><path stroke="#59595a" vector-effect="non-scaling-stroke" d="M403.29 249.25q.21 37.61 1.67 75.19c1.01 26.08 1.36 52.21 2 78.31q.14 5.6-.16 10.32a1.18 1.18 0 001.49 1.21l18.9-5.06a.71.7-7.9 00.53-.69c-1.95-77.19-3.24-154.39-5.27-231.58"/><path stroke="#707070" vector-effect="non-scaling-stroke" d="M422.45 176.95l-1.02-24.49"/><path stroke="#59595a" vector-effect="non-scaling-stroke" d="M421.43 152.46q.63-18.91-.3-38.33a.92.91-.7 00-.9-.87q-15.24-.3-31.04.64c-13.81.81-35.39.47-53.25 1.09-32.79 1.12-65.97 1.32-98.93 2.43"/><path stroke="#a7a9aa" vector-effect="non-scaling-stroke" d="M421.43 152.46q-1.04 11.99-.15 23.98a.59.58-3.5 00.62.54l.55-.03M403.29 249.25q.4.11.79-.01a.64.63 80 00.46-.66c-.41-6.71-.14-13.4-.48-20.12a.48.48 0 00-.49-.46h-.27a.54.53.6 00-.53.51l-.06 1.24M402.29 207q1.87-.27 1.54-2.27-1.13-6.73-.64-13.49c.4-5.63-.55-10.95-.28-16.74q.88-18.37-1.6-37.53M256.25 137.71q.08-.33.02-.59a.66.65 82.5 00-.66-.51c-4.93.15-9.83-.14-14.66.2q-11.06.78-22.14.59-2.56-.04-1.08.96M212.71 147.75l-.31-1.12a.5.49-11.5 00-.56-.36l-.32.05a.32.32 0 00-.25.4c.89 3.12.23 7.15.5 10.48.78 9.74.31 19.53.29 29.3a.54.53-90 00.53.54c.81.01.74-2.87.87-3.29"/><path stroke="#909294" vector-effect="non-scaling-stroke" d="M201.55 301.41l-4.93.35a.55.55 0 01-.59-.52l-.91-18.05a.36.36 0 00-.48-.32q-.71.25-.6 1.38"/><path stroke="#a7a9aa" vector-effect="non-scaling-stroke" d="M192.04 187.25q.86 0 .87-.75.19-21.79-.37-43.57c-.21-7.76-.89-14.46-.78-21.92a.85.84-13.1 01.46-.73c2.06-1.06 4.21-.56 5.93-.66q7.45-.44 14.89-.38c1.74.01 3.94-.48 5.79-.45 4.54.09 9.13.14 13.64-.36.99-.11 6.23 1.5 4.54-1.01M200.14 474.59q-1.75-10.57-1.59-21.08c.3-20.02-.7-39-1.15-58.06a.64.64 0 00-.48-.61l-.38-.09"/><path stroke="#707070" vector-effect="non-scaling-stroke" d="M271.75 141.46c-14.44.04-29.39-.32-43.75 1.08"/><path stroke="#59595a" vector-effect="non-scaling-stroke" d="M228 142.54l-10.56-.02a.51.51 0 00-.51.51q-.09 28.76.86 57.22"/><path stroke="#707070" vector-effect="non-scaling-stroke" d="M217.79 200.25l.25 35.75"/><path stroke="#59595a" vector-effect="non-scaling-stroke" d="M218.04 236l1.99 85.12a.64.64 0 00.64.63h3.78a.5.5 0 00.5-.51c-.55-54.58-2.64-109.17-3.61-163.74q-.08-4.42.35-8.71a.58.57 1.7 01.55-.51q12.97-.42 25.95-.88c5.56-.19 11.01-1.19 16.42-1.15q9.46.06 18.87-.55"/><path stroke="#707070" vector-effect="non-scaling-stroke" d="M283.48 145.7l35.77-.74"/><path stroke="#59595a" vector-effect="non-scaling-stroke" d="M319.25 144.96l73.43-1.82a.52.52 0 01.53.5c1 31.33.6 62.73 1.66 94.06 1.08 32.2 1.19 64.51 1.8 96.73.26 14.07 1.52 30.72 1.74 42.89.33 18.6.62 36.18 1.17 53.89a.54.54 0 01-.53.56c-19.09.44-38.02.5-57.24 1.27q-12 .49-24.02.66c-5.2.07-10.72.68-16.1.91q-36.21 1.53-72.34 1.51a.52.52 0 01-.52-.5L225.21 341"/><path stroke="#707070" vector-effect="non-scaling-stroke" d="M225.21 341l-.42-8.07"/><path stroke="#59595a" vector-effect="non-scaling-stroke" d="M224.79 332.93q.39-.97.18-2.07a.77.76-5.5 00-.75-.61h-3.07a.64.63-89.5 00-.63.63q-.06 9.13.01 18.27c.01 1.08.59 10.29 1.15 10.79a.84.81 27.9 01.26.8q-.81 3.73-.74 6.01c.37 11.21.61 22.3 1.26 33.5"/><path stroke="#707070" vector-effect="non-scaling-stroke" d="M222.46 400.25q.67 19.74 1.27 39.47c.04 1.03.59 1.31 1.52.99"/><path stroke="#59595a" vector-effect="non-scaling-stroke" d="M225.25 440.71q48.9-.36 97.76-2.3c15.9-.63 32.94-.07 49.49-1.12"/><path stroke="#707070" vector-effect="non-scaling-stroke" d="M372.5 437.29q12.35.08 24.79-.89"/><path stroke="#59595a" vector-effect="non-scaling-stroke" d="M397.29 436.4q3.06.8 6.33.29a.64.63-2.8 00.54-.59q.21-3.14.15-4.35c-1.05-23.42-.95-46.78-1.69-70.19q-1.7-53.85-2.65-107.71c-.27-15.7-1.4-32.38-1.49-47.1-.09-16.18-.83-32.48-1.07-48.47q-.15-9.74-.44-19.47a.5.5 0 00-.51-.49c-38.67.42-77.44 2.18-115.94 2.48-2.76.03-5.84.55-8.77.66"/><path stroke="#a7a9aa" vector-effect="non-scaling-stroke" d="M397.29 436.4q-12.59-1.27-25.2-.11a.3.29 6.1 00-.25.2l-.11.32a.33.33 0 00.28.43l.49.05M225.25 440.71l-.23-9.78a1.26 1.24 69 01.42-.96q.58-.51-.1-1.24-.33-.36-.47-.84c-.64-2.13-.22-4.51-.3-5.98q-.55-10.81-.63-21.65a.5.5 0 00-.54-.5q-.55.03-.94.49M224.79 332.93q-1.21 3.68-.64 7.5a.73.71 89.9 00.6.61q.22.04.46-.04M319.25 144.96q.26-.29.27-.73a.71.7 87.2 00-.79-.72c-5.79.69-11.48-.04-16.97.47q-8.55.8-16.26.23-2.17-.16-2.02 1.49M218.04 236q.26.4.27.87a.4.4 0 00.54.37l.55-.19a.71.7 77.9 00.47-.73q-.88-9.4-.37-18.82.17-3.23-.46-15.04-.1-1.88-1.25-2.21M228 142.54c-.31 1.1.26 1.59 1.32 1.53q13.42-.83 26.87-1.19 2.85-.07 4.33.3.48.13.97.04 3.83-.66 7.57.29a.74.74 0 00.78-.29q.66-.94 1.66-.46a1.92 1.87 53.7 001.02.17c.22-.03 5.31.03 5.27-.87a.55.55 0 00-.54-.53l-5.5-.07"/><path stroke="#59595a" vector-effect="non-scaling-stroke" d="M232.34 359.83l.18 16.04"/><path stroke="#90908f" vector-effect="non-scaling-stroke" d="M232.52 375.87l.23 7.84"/><path stroke="#59595a" vector-effect="non-scaling-stroke" d="M232.75 383.71q-.47 3.56.46 7.04"/><path stroke="#707070" vector-effect="non-scaling-stroke" d="M233.21 390.75l1.64 39.12a.36.36 0 00.37.35l19.03-.26"/><path stroke="#59595a" vector-effect="non-scaling-stroke" d="M254.25 429.96q27.76-.76 55.51-1.88 12.36-.5 24.63-1.66a1.21 1.19-1.1 001.09-1.12c.54-8.51-11.27-7.06-8.77-16.8"/><path stroke="#707070" vector-effect="non-scaling-stroke" d="M326.71 408.5l.87-7.08"/><path stroke="#59595a" vector-effect="non-scaling-stroke" d="M327.58 401.42q2.09-7.84 3.64-15.92.49-2.61.46-3.92a.93.93 0 00-.47-.79q-4.66-2.67-7.86-7.06-.7-.96-.56.22.9 7.17 5.97 12.25a1.01 1.01 0 01.27.95l-.18.7a.43.43 0 01-.68.24l-3.64-2.8a.52.52 0 00-.79.64q2.15 4.52 2.7 9.54.06.51-.36.23c-1.17-.79-2.47-1.48-3.18-2.75-2.36-4.19-10.67-22.21-7.12-26.17 2.81-3.14 3.93-6.5 6.11-9.98q.96-1.54 1.51-3.5"/><path stroke="#90908f" vector-effect="non-scaling-stroke" d="M323.4 353.3c6.14-4 .29-8.21-2.65-11.09"/><path stroke="#8f8e7e" vector-effect="non-scaling-stroke" d="M320.75 342.21c-3.04-2.36-.53-5.09.75-7.42"/><path stroke="#59595a" vector-effect="non-scaling-stroke" d="M321.5 334.79q3.85-4.81 6.13-11.05"/><path stroke="#90908f" vector-effect="non-scaling-stroke" d="M327.63 323.74q3.29-3.01 3.57-4.55c.4-2.24-3.51-9.07-4.54-11.42a.7.7 0 00-.97-.34l-46.2 25.06a.63.63 0 01-.84-.21l-.8-1.24a.68.68 0 00-.67-.32q-4.61.64-9.12-.53a1.24 1.23 35.1 00-1 .17c-9.06 6.29-11.57 10.69-15.96 21.4"/><path stroke="#59595a" vector-effect="non-scaling-stroke" d="M251.1 351.76q-.72.09-1.31.49"/><path stroke="#90908f" vector-effect="non-scaling-stroke" d="M249.79 352.25c.62-4.85 2.37-8.84 3.8-13.23 1.64-5.03 1.99-8.4 7.17-11.09a.53.53 0 00-.1-.98c-5.38-1.43-12.51 5.5-13.73 10.51q-1.74 7.13.82 15.75"/><path stroke="#59595a" vector-effect="non-scaling-stroke" d="M247.75 353.21l-.71.04"/><path stroke="#90908f" vector-effect="non-scaling-stroke" d="M247.04 353.25c-3.5-3.2-3.85-7.5-4.47-12.33q-.89-6.92 3.68-12.04.34-.39-.17-.42c-3.93-.24-7.03 10.31-7.81 13.37a.64.64 0 01-1.25-.04c-1.51-7.57 6.48-20.52 11.42-27.34 4.08-5.63 8.34-4.89 14.61-5.12a1.91 1.91 0 00.99-.32q2.44-1.63 5.35-1.24a.78.77 88.9 00.87-.91l-.36-1.98a.54.54 0 01.41-.63q22.3-5.19 40.17-19.45a.65.64-35.4 00.15-.84q-2.09-3.31-5.39-5.42a.88.86-71.5 01-.39-.8q1.06-11.67-2.48-22.81-.34-1.09-1.11-.24c-4.46 4.96-8.06 2.41-8.95-3.43a1.26 1.23-76.5 00-.48-.8c-3.33-2.51-6.26-1.5-7.73-6.44a.43.43 0 00-.67-.22l-4.58 3.47a1.52 1.52 0 01-2.32-.64q-3.77-9.32.04-18.51a.83.83 0 00-.26-.98l-4.42-3.37a1.12 1.11 16.9 01-.42-.78q-.26-3.21-.26-6.43c.01-5.91-1.53-11.62-1.78-17.56-.25-5.64 3.05-9.45 6.78-13.13 9.13-9 22.71-9.8 31.08.82a.43.42-47.1 00.69-.03l1.33-1.93a.93.9-73.1 01.74-.41c4.03-.12 7.51.01 11.84-.56 8.46-1.1 16.37.15 22.25 6.87q15.04 17.19 32.55 40.89a.97.94-55.9 01.15.85l-1.98 6.88a1.19 1.17 35.5 00.18 1.02q7.11 9.99 13.09 20.72.4.72.42-.1c.51-19.06-.67-38.03-.84-57.07-.16-18.49-.7-35.52-1.28-53.27a.51.5 88.3 00-.51-.49q-37.44.28-74.86 1.61c-26.01.93-54.68 1.54-72.5 2.17q-3.3.12-9.82.89a.56.55-4 00-.49.56c.39 54.13 1.74 108.33 2.89 162.46q.05 2.19.26 3.22a.68.66 86.5 00.6.54c5.9.43 5.15 6.86-.15 8.22a.74.74 0 00-.55.74l1.04 29.36"/><path stroke="#c8c9ca" vector-effect="non-scaling-stroke" d="M247.04 353.25l-.08.31a.75.75 0 01-.54.54q-7.41 1.96-14.08 5.73"/><path stroke="#c7c7b9" vector-effect="non-scaling-stroke" d="M321.5 334.79c-2.81 1.19-4.31 5.63-1.46 7.71"/><path stroke="#c8c9ca" vector-effect="non-scaling-stroke" d="M320.04 342.5c-.63 1.1-20.62 8.8-22.72 9.54q-32.57 11.47-64.8 23.83M247.75 353.21l.49.25a.6.59 31.9 00.75-.17l.8-1.04"/><path stroke="#fefeee" vector-effect="non-scaling-stroke" d="M320.75 342.21l-.71.29"/><path stroke="#c8c9ca" vector-effect="non-scaling-stroke" d="M323.4 353.3c-8.58 2.77-17.73 6.71-25.35 9.3q-31.9 10.87-63.69 22.04a1.16 1.15 49.2 01-.93-.07q-.5-.28-.68-.86M327.63 323.74q-32.25 12.12-64.65 23.69c-3.06 1.09-7.82 3.25-11.88 4.33"/><path stroke="#a7a9aa" vector-effect="non-scaling-stroke" d="M327.58 401.42q-1.82 3.55-2.01 7.56-.03.57.45.27.43-.27.69-.75M254.25 429.96q.48-.25.94-1.01a.52.52 0 00-.47-.78l-17.46.65a1.47 1.47 0 01-1.46-1.89q.51-1.73.36-3.42-1.43-16.43-1.38-32.93a.54.54 0 00-.5-.54l-.54-.05a.48.48 0 00-.52.46l-.01.3"/><path stroke="#90908f" vector-effect="non-scaling-stroke" d="M201.51 342.34c-.04 5.09 6.19 8.16 7.29 2.25q1.25-6.75-.39-13.51a.75.75 0 00-.74-.58l-1.36.01a1.43 1.39-24.3 01-.91-.33q-4.26-3.56-.34-7.64a1.31 1.28 19 01.84-.4l2.01-.18a.55.54-1.8 00.51-.53q.2-5.73.03-11.4c-.2-6.6-7.33-4.93-7.2.45q.37 15.93.26 31.86"/><path stroke="#59595a" vector-effect="non-scaling-stroke" d="M330.58 359.75c-6.15 4.61-6.23 13.73.67 18.21a.35.35 0 00.53-.22c1.44-6.85 2.58-12.39-.54-17.86a.45.44-33.4 00-.66-.13M416.75 418.54q-5.74.08-9.78 3.87"/><path stroke="#707070" vector-effect="non-scaling-stroke" d="M406.97 422.41l1.06 15.79a.41.4 79.2 00.52.36l7.72-2.28"/><path stroke="#59595a" vector-effect="non-scaling-stroke" d="M416.27 436.28l10.87-2.94"/><path stroke="#707070" vector-effect="non-scaling-stroke" d="M427.14 433.34q1.35-8.48.59-17.1a.45.44 80 00-.55-.39l-10.43 2.69"/><path stroke="#a7a9aa" vector-effect="non-scaling-stroke" d="M427.14 433.34q.02-7.84-1.41-15.61a.49.48 78.6 00-.58-.39c-1.34.3-8.42 3.08-8.4 1.2M416.27 436.28q-3.37-.47-5.7.53a1.22 1.22 0 01-1.7-1.12l-.05-12.2a.65.65 0 00-.43-.6l-1.42-.48"/><path stroke="#59595a" vector-effect="non-scaling-stroke" d="M374.16 441.35c-13.98.72-26.27.82-39.41 1.1q-2.08.04-5.97 1.16-65.02 18.59-129.76 36.19a1.44 1.44 0 00-1.06 1.43l.61 19.77a.64.64 0 00.84.59q21.66-7.08 43.15-14.26c15.1-5.05 41.97-11.71 64.48-18.81 35.49-11.2 62.25-18 93.5-27.25a.35.35 0 00-.1-.68q-13.02.08-26.28.76M428.54 455.3l-.25-3.19a.51.5 79.1 00-.65-.45c-50.77 15.12-101.69 29.59-152.59 44.25-25 7.21-50.35 13.5-75.5 20.23a.79.78 81.1 00-.58.81l.23 3.61a.62.62 0 00.79.56c39.04-11 77.96-22.38 117.09-33.08 33.47-9.16 67.87-19.7 100.18-28q6-1.54 10.76-3.83a.94.93-15.4 00.52-.91M394.98 173.54l.01.4a.43.43 0 00.82.18q.5-1.03-.12-1.98-.19-.3-.34.03l-.14.31q-.23.5-.23 1.06"/><path stroke="#90908f" vector-effect="non-scaling-stroke" d="M156.48 238.93c-11.17-.56-21.75 1.06-32.68 1.54a1.76 1.76 0 00-1.67 1.7q-.52 15.93.39 31.85a1.5 1.45-68.3 00.37.9c1.92 2.17 28.09.16 32.43-.26 3.89-.38 3.54-2.39 3.48-5.44q-.28-14.08-.34-28.22a2.09 2.08 1.3 00-1.98-2.07"/><path stroke="#90908f" vector-effect="non-scaling-stroke" d="M135.62 267.45l7.87-.21a.75.75 0 00.73-.73q.31-9.45-1.02-18.8a.56.55 85.3 00-.56-.48l-7.14.03a.49.49 0 00-.49.54c.57 6.43 1.78 12.91.29 19.25a.32.32 0 00.32.4"/><path stroke="gray" vector-effect="non-scaling-stroke" d="M205.69 311.83l.52-2.27a.93.93 0 00-1.54-.89q-1.85 1.67-.09 3.48.85.87 1.11-.32M205.45 343.91a.57.57 0 001.07-.29c0-2.65 1.91-10.03-1.01-10.81a.99.99 0 00-.89.18c-2.29 1.82-.17 9.21.83 10.92"/></g><path d="M0 0h590.06l.19.29v589.45a.5.49-90 01-.49.5l-588.51-.03-1.25-.27V0zm586.25 4.51a.26.26 0 00-.26-.26H4.51a.26.26 0 00-.26.26v581.48a.26.26 0 00.26.26h581.48a.26.26 0 00.26-.26V4.51z"/><path fill="#21201f" d="M590.06 0h.94v587.56c-.84-.45-.25-537.29-.25-587.06a.25.24-86.1 00-.21-.25q-.17-.02-.29.04l-.19-.29z"/><path fill="#fdfcdd" d="M590.25.29q.12-.06.29-.04a.25.24-86.1 01.21.25c0 49.77-.59 586.61.25 587.06V591H31.19q-2.75-.63-5.5 0h-.5l-23.94-.79 588.51.03a.5.49-90 00.49-.5V.29z"/><path fill="#fdfcdd" d="M586.25 585.99a.26.26 0 01-.26.26H4.51a.26.26 0 01-.26-.26V4.51a.26.26 0 01.26-.26h581.48a.26.26 0 01.26.26v581.48zM51.22 28.69c-12.17.02-21.47 6.35-21.63 19.07-.2 16.15.49 30.07.69 44.83a1.05 1.05 0 001.79.73Q62.9 62.63 91.8 31.55q1.5-1.61 1.65-3.64a.45.45 0 00-.47-.49q-31.39 1.25-41.76 1.27zM442.99 91.2a.15.15 0 00-.16-.15q-15.2.79-30.52.77c-6.5 0-15.41.81-22.83.92q-26.33.36-52.66.7c-22.78.29-45.57 1.35-68.34 1.95-9.87.27-21.77 1.2-32.66 1.41-22.07.44-44.23 1.16-66.29 2.42a.52.52 0 00-.49.53c.34 24.48.49 48.97 1.06 73.44.46 19.94.19 39.79 1.25 59.71.54 10.07.39 21.08.77 31.65 1.31 36.1 1.69 72.27 2.72 108.39.3 10.54.36 23.72.9 35.98q1.26 28.1 1.07 48.89c-.31 35.83 1.04 61.56.96 92.45a.51.51 0 00.49.51c5.31.22 11.72-.42 15.91-.49q80.17-1.34 145.39-3.19c16-.46 34.41-1.56 51.5-2.04q28.74-.82 58.66-2.01a1.27 1.26-1.8 001.22-1.29c-.41-15.83-.19-32.21-.89-47.74-.91-19.98-2.4-40.02-2.73-60.01q-.96-59.1-2.22-118.19c-.91-43.04-.19-86.08-.82-129.12q-.7-47.42-1.29-95.49zm-325.2 187.05c-.43 5.76 2.75 7.98 8.26 7.97q12.73-.02 25.46-.42c4.24-.14 7.1.82 10.44-2.67a1.5 1.47-20.9 00.4-.87l.49-5.02c.23-.71.59-1.31.6-2.09q.37-24.93-.14-33.88-.25-4.45-4.63-7.49a1.7 1.69 62.8 00-.93-.3q-21.44-.43-36.56 2.15c-2.6.44-4.21 3.39-4.27 6.08q-.39 18.28.88 36.54zM7.515 581.926a1.5.4 85.6 00.284-1.527 1.5.4 85.6 00-.514-1.465A1.5.4 85.6 007 580.461a1.5.4 85.6 00.514 1.465z"/><path fill="#f9e1a9" d="M29.59 47.76c.16-12.72 9.46-19.05 21.63-19.07q10.37-.02 41.76-1.27a.45.45 0 01.47.49q-.15 2.03-1.65 3.64-28.9 31.08-59.73 61.77a1.05 1.05 0 01-1.79-.73c-.2-14.76-.89-28.68-.69-44.83z"/><path fill="#21201f" d="M442.99 91.2q.59 48.07 1.29 95.49c.63 43.04-.09 86.08.82 129.12q1.26 59.09 2.22 118.19c.33 19.99 1.82 40.03 2.73 60.01.7 15.53.48 31.91.89 47.74a1.27 1.26-1.8 01-1.22 1.29q-29.92 1.19-58.66 2.01c-17.09.48-35.5 1.58-51.5 2.04q-65.22 1.85-145.39 3.19c-4.19.07-10.6.71-15.91.49a.51.51 0 01-.49-.51c.08-30.89-1.27-56.62-.96-92.45q.19-20.79-1.07-48.89c-.54-12.26-.6-25.44-.9-35.98-1.03-36.12-1.41-72.29-2.72-108.39-.38-10.57-.23-21.58-.77-31.65-1.06-19.92-.79-39.77-1.25-59.71-.57-24.47-.72-48.96-1.06-73.44a.52.52 0 01.49-.53c22.06-1.26 44.22-1.98 66.29-2.42 10.89-.21 22.79-1.14 32.66-1.41 22.77-.6 45.56-1.66 68.34-1.95q26.33-.34 52.66-.7c7.42-.11 16.33-.92 22.83-.92q15.32.02 30.52-.77a.15.15 0 01.16.15zM373 98.71l-28.28.76q-7.57-.64-15.17-.28c-22.23 1.04-44.47 1.23-66.71 1.99-7.54.25-16.87 1.32-23.59 1.33q-32.11.07-63.85 1.52a1.45 1.45 0 00-1.39 1.47c.21 18.9 1.07 37.56 1.34 56.25q.5 33.76 2.11 67.5 1.07 30.28 1.79 60.58c.18 7.53 1.09 21.24.79 31.92l1.75 90.25q.74 11.64.71 15.5-.43 57.13.96 114.25l-.67 2.68a.49.49 0 00.48.61l7.97-.2a.58.58 0 00.56-.56c.1-1.94.31-3.99.27-5.87-.64-26.1-1.1-52.18-2.23-78.27-.59-13.75-.38-27.56-.84-41.34-.58-17.48-.7-34.73-1.5-52.09l-.71-42.96q.25-.48.21-1.5-.67-15.73-.79-38.25l-.46-29.21-.79-25.04V210q-1.01-47.57-1.75-95.15c-.02-1.31-.6-2.86-.3-4.41a.63.63 0 01.61-.51c11.47-.3 22.22-.45 34.37-1.06 13.28-.67 26.63-.32 39.86-1.41q35.01-.13 70-1.5c28.85.01 58.38-1.36 86.43-1.11q5.8.05 12.05-.71a1.4 1.39 86.2 011.57 1.38c.12 21.4.95 43.01 1.2 64.54.33 28.48 1.15 54.64 1.61 90.38q.08 6.38.93 16.81l.5 32 1.25 63.5.75 40.75 3.04 123.15a.35.34-25.1 01-.09.23l-.18.18q-.44.47.2.42l7.42-.55a.91.9 87.4 00.84-.93c-.43-18.83-.45-37.78-1.4-56.55-.81-16.21-1.97-32.64-2.33-48.69q-.72-32.1-1.03-64.2c-.35-36.54-2.01-72.44-1.82-109.72q.39-79.18-.65-158.42a.87.86 89.7 00-.86-.86q-30.5.16-60.99.83-1.62.03-3.19.32zm-135.99 18.71l-45.95.89a.5.5 0 00-.49.51l1.47 68.43 2 97 .86 44.09a1.12 1.12 0 00.34.78q.61.59.01 1.15a1.12 1.11 70.5 00-.35.74q-.21 4.47.3 8.9c.27 2.36-.03 4.75.01 7.4q.31 21.19.92 42.37.08 2.55.41 5.07.41 38.48 1.73 76.93.04 1.19.17 2.48a.86.85 8.9 00.52.7q.62.26 1.18-.27c36.18-10.29 72.9-20.46 109.08-31.47q.48-.15-.02-.15-23.7-.01-47.4.81c-13.08.46-26.99.49-40.51 1a.64.64 0 01-.64-.46c-.41-1.35-1.03-3.25-1.09-4.64q-2.23-50.45-2.3-100.95c0-2.2-.69-4.65-.29-7.22a.76.75 16.9 00-.43-.79l-.92-.42a.59.59 0 00-.84.51q-.25 6.74-.09 13.45c.31 12.52-16.35 13.36-16.88-.13-.42-10.62-.27-18.59-.85-32.06-.2-4.89.65-8.02 4.59-10.66q5.33-2.15 9.24 1.07c4.51 3.7 3.71 13.41 3.51 18.61a.63.63 0 00.59.65l.99.08a.56.56 0 00.6-.54q.33-8.69.01-17.37c-.9-24.19-1.01-48.4-1.52-72.6q-.5-23.79-1.51-47.56l-.75-36-.09-8.69a.47.47 0 01.44-.47l4.67-.23 38.52-.65c12.25.17 27-.66 36.67-.83 41.04-.7 68.71-1.3 107.22-2.69a.56.55 81.7 01.56.42l.61 2.36.98 70.03.42 22.75.58 19.5q.21 37.61 1.67 75.19c1.01 26.08 1.36 52.21 2 78.31q.14 5.6-.16 10.32a1.18 1.18 0 001.49 1.21l18.9-5.06a.71.7-7.9 00.53-.69c-1.95-77.19-3.24-154.39-5.27-231.58l-1.02-24.49q.63-18.91-.3-38.33a.92.91-.7 00-.9-.87q-15.24-.3-31.04.64c-13.81.81-35.39.47-53.25 1.09-32.79 1.12-65.97 1.32-98.93 2.43zm34.74 24.04c-14.44.04-29.39-.32-43.75 1.08l-10.56-.02a.51.51 0 00-.51.51q-.09 28.76.86 57.22l.25 35.75 1.99 85.12a.64.64 0 00.64.63h3.78a.5.5 0 00.5-.51c-.55-54.58-2.64-109.17-3.61-163.74q-.08-4.42.35-8.71a.58.57 1.7 01.55-.51q12.97-.42 25.95-.88c5.56-.19 11.01-1.19 16.42-1.15q9.46.06 18.87-.55l35.77-.74 73.43-1.82a.52.52 0 01.53.5c1 31.33.6 62.73 1.66 94.06 1.08 32.2 1.19 64.51 1.8 96.73.26 14.07 1.52 30.72 1.74 42.89.33 18.6.62 36.18 1.17 53.89a.54.54 0 01-.53.56c-19.09.44-38.02.5-57.24 1.27q-12 .49-24.02.66c-5.2.07-10.72.68-16.1.91q-36.21 1.53-72.34 1.51a.52.52 0 01-.52-.5L225.21 341l-.42-8.07q.39-.97.18-2.07a.77.76-5.5 00-.75-.61h-3.07a.64.63-89.5 00-.63.63q-.06 9.13.01 18.27c.01 1.08.59 10.29 1.15 10.79a.84.81 27.9 01.26.8q-.81 3.73-.74 6.01c.37 11.21.61 22.3 1.26 33.5q.67 19.74 1.27 39.47c.04 1.03.59 1.31 1.52.99q48.9-.36 97.76-2.3c15.9-.63 32.94-.07 49.49-1.12q12.35.08 24.79-.89 3.06.8 6.33.29a.64.63-2.8 00.54-.59q.21-3.14.15-4.35c-1.05-23.42-.95-46.78-1.69-70.19q-1.7-53.85-2.65-107.71c-.27-15.7-1.4-32.38-1.49-47.1-.09-16.18-.83-32.48-1.07-48.47q-.15-9.74-.44-19.47a.5.5 0 00-.51-.49c-38.67.42-77.44 2.18-115.94 2.48-2.76.03-5.84.55-8.77.66zm-39.41 218.37l.18 16.04.23 7.84q-.47 3.56.46 7.04l1.64 39.12a.36.36 0 00.37.35l19.03-.26q27.76-.76 55.51-1.88 12.36-.5 24.63-1.66a1.21 1.19-1.1 001.09-1.12c.54-8.51-11.27-7.06-8.77-16.8l.87-7.08q2.09-7.84 3.64-15.92.49-2.61.46-3.92a.93.93 0 00-.47-.79q-4.66-2.67-7.86-7.06-.7-.96-.56.22.9 7.17 5.97 12.25a1.01 1.01 0 01.27.95l-.18.7a.43.43 0 01-.68.24l-3.64-2.8a.52.52 0 00-.79.64q2.15 4.52 2.7 9.54.06.51-.36.23c-1.17-.79-2.47-1.48-3.18-2.75-2.36-4.19-10.67-22.21-7.12-26.17 2.81-3.14 3.93-6.5 6.11-9.98q.96-1.54 1.51-3.5c6.14-4 .29-8.21-2.65-11.09-3.04-2.36-.53-5.09.75-7.42q3.85-4.81 6.13-11.05 3.29-3.01 3.57-4.55c.4-2.24-3.51-9.07-4.54-11.42a.7.7 0 00-.97-.34l-46.2 25.06a.63.63 0 01-.84-.21l-.8-1.24a.68.68 0 00-.67-.32q-4.61.64-9.12-.53a1.24 1.23 35.1 00-1 .17c-9.06 6.29-11.57 10.69-15.96 21.4q-.72.09-1.31.49c.62-4.85 2.37-8.84 3.8-13.23 1.64-5.03 1.99-8.4 7.17-11.09a.53.53 0 00-.1-.98c-5.38-1.43-12.51 5.5-13.73 10.51q-1.74 7.13.82 15.75l-.71.04c-3.5-3.2-3.85-7.5-4.47-12.33q-.89-6.92 3.68-12.04.34-.39-.17-.42c-3.93-.24-7.03 10.31-7.81 13.37a.64.64 0 01-1.25-.04c-1.51-7.57 6.48-20.52 11.42-27.34 4.08-5.63 8.34-4.89 14.61-5.12a1.91 1.91 0 00.99-.32q2.44-1.63 5.35-1.24a.78.77 88.9 00.87-.91l-.36-1.98a.54.54 0 01.41-.63q22.3-5.19 40.17-19.45a.65.64-35.4 00.15-.84q-2.09-3.31-5.39-5.42a.88.86-71.5 01-.39-.8q1.06-11.67-2.48-22.81-.34-1.09-1.11-.24c-4.46 4.96-8.06 2.41-8.95-3.43a1.26 1.23-76.5 00-.48-.8c-3.33-2.51-6.26-1.5-7.73-6.44a.43.43 0 00-.67-.22l-4.58 3.47a1.52 1.52 0 01-2.32-.64q-3.77-9.32.04-18.51a.83.83 0 00-.26-.98l-4.42-3.37a1.12 1.11 16.9 01-.42-.78q-.26-3.21-.26-6.43c.01-5.91-1.53-11.62-1.78-17.56-.25-5.64 3.05-9.45 6.78-13.13 9.13-9 22.71-9.8 31.08.82a.43.42-47.1 00.69-.03l1.33-1.93a.93.9-73.1 01.74-.41c4.03-.12 7.51.01 11.84-.56 8.46-1.1 16.37.15 22.25 6.87q15.04 17.19 32.55 40.89a.97.94-55.9 01.15.85l-1.98 6.88a1.19 1.17 35.5 00.18 1.02q7.11 9.99 13.09 20.72.4.72.42-.1c.51-19.06-.67-38.03-.84-57.07-.16-18.49-.7-35.52-1.28-53.27a.51.5 88.3 00-.51-.49q-37.44.28-74.86 1.61c-26.01.93-54.68 1.54-72.5 2.17q-3.3.12-9.82.89a.56.55-4 00-.49.56c.39 54.13 1.74 108.33 2.89 162.46q.05 2.19.26 3.22a.68.66 86.5 00.6.54c5.9.43 5.15 6.86-.15 8.22a.74.74 0 00-.55.74l1.04 29.36zm-30.83-17.49c-.04 5.09 6.19 8.16 7.29 2.25q1.25-6.75-.39-13.51a.75.75 0 00-.74-.58l-1.36.01a1.43 1.39-24.3 01-.91-.33q-4.26-3.56-.34-7.64a1.31 1.28 19 01.84-.4l2.01-.18a.55.54-1.8 00.51-.53q.2-5.73.03-11.4c-.2-6.6-7.33-4.93-7.2.45q.37 15.93.26 31.86zm129.07 17.41c-6.15 4.61-6.23 13.73.67 18.21a.35.35 0 00.53-.22c1.44-6.85 2.58-12.39-.54-17.86a.45.44-33.4 00-.66-.13zm86.17 58.79q-5.74.08-9.78 3.87l1.06 15.79a.41.4 79.2 00.52.36l7.72-2.28 10.87-2.94q1.35-8.48.59-17.1a.45.44 80 00-.55-.39l-10.43 2.69zm-42.59 22.81c-13.98.72-26.27.82-39.41 1.1q-2.08.04-5.97 1.16-65.02 18.59-129.76 36.19a1.44 1.44 0 00-1.06 1.43l.61 19.77a.64.64 0 00.84.59q21.66-7.08 43.15-14.26c15.1-5.05 41.97-11.71 64.48-18.81 35.49-11.2 62.25-18 93.5-27.25a.35.35 0 00-.1-.68q-13.02.08-26.28.76zm54.38 13.95l-.25-3.19a.51.5 79.1 00-.65-.45c-50.77 15.12-101.69 29.59-152.59 44.25-25 7.21-50.35 13.5-75.5 20.23a.79.78 81.1 00-.58.81l.23 3.61a.62.62 0 00.79.56c39.04-11 77.96-22.38 117.09-33.08 33.47-9.16 67.87-19.7 100.18-28q6-1.54 10.76-3.83a.94.93-15.4 00.52-.91z"/><path fill="#909294" d="M434.04 413.5l.28.51a.15.15 0 00.18.07l.29-.1a.56.55 80.5 00.37-.53l-.44-40.17a.52.52 0 00-.52-.52l-.91-.01-1.25-63.5q1.17.27 1.2-.75.24-8.57-.48-19.51c-.23-3.41.13-7.16-.05-10.77a.93.92 13.3 00-.47-.75q-.32-.17-.7-.22-.85-10.43-.93-16.81c-.46-35.74-1.28-61.9-1.61-90.38-.25-21.53-1.08-43.14-1.2-64.54a1.4 1.39 86.2 00-1.57-1.38q-6.25.76-12.05.71c-28.05-.25-57.58 1.12-86.43 1.11-.23-1.53-1.63-.94-2.64-.95q-17.57-.1-23.11.27-18.19 1.24-27.48.67c-4.7-.28-9.92.37-16.02.08a.71.7-78.3 00-.7.47q-.18.47-.05.96c-13.23 1.09-26.58.74-39.86 1.41-12.15.61-22.9.76-34.37 1.06a.63.63 0 00-.61.51c-.3 1.55.28 3.1.3 4.41q.74 47.58 1.75 95.15-.23-.64-.92-.51a.73.72-.6 00-.59.6c-.27 1.85.04 22.42.82 22.47a.4.4 0 00.42-.36l.27-2.45.79 25.04q-.49-.16-.83-.01a.73.72 75.4 00-.42.73q.34 3.83.08 5.31c-.38 2.09.13 2.95.23 4.6q.6 9.4.15 15.57-.15 2.21 1.25 3.01.12 22.52.79 38.25.04 1.02-.21 1.5-1.32 21.25-.31 42.52a.5.5 0 00.55.48l.47-.04c.8 17.36.92 34.61 1.5 52.09.46 13.78.25 27.59.84 41.34 1.13 26.09 1.59 52.17 2.23 78.27.04 1.88-.17 3.93-.27 5.87a.58.58 0 01-.56.56l-7.97.2a.49.49 0 01-.48-.61l.67-2.68q.39.38.8.26a.71.71 0 00.52-.66q.55-17.34-.46-34.65c-.34-5.83.16-12.5-.38-18.83q-.51-6.06-.36-10.25.41-11.39.17-22.78c-.14-6.95.59-15.55.03-23.36-.46-6.39.16-12.65-.22-19.06a.73.73 0 00-.53-.66q-.65-.19-1.24.24l-1.75-90.25h.36a.43.41-86 00.41-.37q1.35-12.11-.54-24.12-.14-.85.38-2.71a1.62 1.62 0 00-.06-1.02q-.81-2.04-.16-4.16a1.17 1.17 0 00-.07-.87q-.77-1.59-.08-3.29a1.36 1.36 0 00.03-.97q-.21-.57-.23-1.18-.54-13.63-.3-27.29a1.47 1.47 0 00-.31-.93q-.75-.96-.13-1.92a1.67 1.64 60.2 00.26-.99q-.48-9.08-1.14-18.16c-.11-1.62.38-3.63-.62-5.52q-.29-.55-.32.06l-.06.94q-1.61-33.74-2.11-67.5c-.27-18.69-1.13-37.35-1.34-56.25a1.45 1.45 0 011.39-1.47q31.74-1.45 63.85-1.52c6.72-.01 16.05-1.08 23.59-1.33 22.24-.76 44.48-.95 66.71-1.99q7.6-.36 15.17.28 14.01 1.47 28.27.07a.51.5-13.9 00.42-.69q-.08-.2-.41-.14 1.57-.29 3.19-.32 30.49-.67 60.99-.83a.87.86 89.7 01.86.86q1.04 79.24.65 158.42c-.19 37.28 1.47 73.18 1.82 109.72q.31 32.1 1.03 64.2c.36 16.05 1.52 32.48 2.33 48.69.95 18.77.97 37.72 1.4 56.55a.91.9 87.4 01-.84.93l-7.42.55q-.64.05-.2-.42l.18-.18a.35.34-25.1 00.09-.23l-3.04-123.15z"/><path fill="#bebfc0" d="M373 98.71q.33-.06.41.14a.51.5-13.9 01-.42.69q-14.26 1.4-28.27-.07l28.28-.76zM327.75 105.96q-34.99 1.37-70 1.5-.13-.49.05-.96a.71.7-78.3 01.7-.47c6.1.29 11.32-.36 16.02-.08q9.29.57 27.48-.67 5.54-.37 23.11-.27c1.01.01 2.41-.58 2.64.95z"/><path fill="#909294" d="M421.43 152.46q-1.04 11.99-.15 23.98a.59.58-3.5 00.62.54l.55-.03c2.03 77.19 3.32 154.39 5.27 231.58a.71.7-7.9 01-.53.69l-18.9 5.06a1.18 1.18 0 01-1.49-1.21q.3-4.72.16-10.32c-.64-26.1-.99-52.23-2-78.31q-1.46-37.58-1.67-75.19.4.11.79-.01a.64.63 80 00.46-.66c-.41-6.71-.14-13.4-.48-20.12a.48.48 0 00-.49-.46h-.27a.54.53.6 00-.53.51l-.06 1.24-.42-22.75q1.87-.27 1.54-2.27-1.13-6.73-.64-13.49c.4-5.63-.55-10.95-.28-16.74q.88-18.37-1.6-37.53l-.61-2.36a.56.55 81.7 00-.56-.42c-38.51 1.39-66.18 1.99-107.22 2.69-9.67.17-24.42 1-36.67.83q.08-.33.02-.59a.66.65 82.5 00-.66-.51c-4.93.15-9.83-.14-14.66.2q-11.06.78-22.14.59-2.56-.04-1.08.96l-4.67.23a.47.47 0 00-.44.47l.09 8.69-.31-1.12a.5.49-11.5 00-.56-.36l-.32.05a.32.32 0 00-.25.4c.89 3.12.23 7.15.5 10.48.78 9.74.31 19.53.29 29.3a.54.53-90 00.53.54c.81.01.74-2.87.87-3.29q1.01 23.77 1.51 47.56c.51 24.2.62 48.41 1.52 72.6q.32 8.68-.01 17.37a.56.56 0 01-.6.54l-.99-.08a.63.63 0 01-.59-.65c.2-5.2 1-14.91-3.51-18.61q-3.91-3.22-9.24-1.07l-4.93.35a.55.55 0 01-.59-.52l-.91-18.05a.36.36 0 00-.48-.32q-.71.25-.6 1.38l-2-97q.86 0 .87-.75.19-21.79-.37-43.57c-.21-7.76-.89-14.46-.78-21.92a.85.84-13.1 01.46-.73c2.06-1.06 4.21-.56 5.93-.66q7.45-.44 14.89-.38c1.74.01 3.94-.48 5.79-.45 4.54.09 9.13.14 13.64-.36.99-.11 6.23 1.5 4.54-1.01 32.96-1.11 66.14-1.31 98.93-2.43 17.86-.62 39.44-.28 53.25-1.09q15.8-.94 31.04-.64a.92.91-.7 01.9.87q.93 19.42.3 38.33z"/><path fill="#bebfc0" d="M237.01 117.42c1.69 2.51-3.55.9-4.54 1.01-4.51.5-9.1.45-13.64.36-1.85-.03-4.05.46-5.79.45q-7.44-.06-14.89.38c-1.72.1-3.87-.4-5.93.66a.85.84-13.1 00-.46.73c-.11 7.46.57 14.16.78 21.92q.56 21.78.37 43.57-.01.75-.87.75l-1.47-68.43a.5.5 0 01.49-.51l45.95-.89z"/><path fill="#bebfc0" d="M256.25 137.71l-38.52.65q-1.48-1 1.08-.96 11.08.19 22.14-.59c4.83-.34 9.73-.05 14.66-.2a.66.65 82.5 01.66.51q.06.26-.02.59zM401.31 136.97q2.48 19.16 1.6 37.53c-.27 5.79.68 11.11.28 16.74q-.49 6.76.64 13.49.33 2-1.54 2.27l-.98-70.03z"/><path fill="#909294" d="M397.29 436.4q-12.59-1.27-25.2-.11a.3.29 6.1 00-.25.2l-.11.32a.33.33 0 00.28.43l.49.05c-16.55 1.05-33.59.49-49.49 1.12q-48.86 1.94-97.76 2.3l-.23-9.78a1.26 1.24 69 01.42-.96q.58-.51-.1-1.24-.33-.36-.47-.84c-.64-2.13-.22-4.51-.3-5.98q-.55-10.81-.63-21.65a.5.5 0 00-.54-.5q-.55.03-.94.49c-.65-11.2-.89-22.29-1.26-33.5q-.07-2.28.74-6.01a.84.81 27.9 00-.26-.8c-.56-.5-1.14-9.71-1.15-10.79q-.07-9.14-.01-18.27a.64.63-89.5 01.63-.63h3.07a.77.76-5.5 01.75.61q.21 1.1-.18 2.07-1.21 3.68-.64 7.5a.73.71 89.9 00.6.61q.22.04.46-.04l3.62 94.62a.52.52 0 00.52.5q36.13.02 72.34-1.51c5.38-.23 10.9-.84 16.1-.91q12.02-.17 24.02-.66c19.22-.77 38.15-.83 57.24-1.27a.54.54 0 00.53-.56c-.55-17.71-.84-35.29-1.17-53.89-.22-12.17-1.48-28.82-1.74-42.89-.61-32.22-.72-64.53-1.8-96.73-1.06-31.33-.66-62.73-1.66-94.06a.52.52 0 00-.53-.5l-73.43 1.82q.26-.29.27-.73a.71.7 87.2 00-.79-.72c-5.79.69-11.48-.04-16.97.47q-8.55.8-16.26.23-2.17-.16-2.02 1.49-9.41.61-18.87.55c-5.41-.04-10.86.96-16.42 1.15q-12.98.46-25.95.88a.58.57 1.7 00-.55.51q-.43 4.29-.35 8.71c.97 54.57 3.06 109.16 3.61 163.74a.5.5 0 01-.5.51h-3.78a.64.64 0 01-.64-.63L218.04 236q.26.4.27.87a.4.4 0 00.54.37l.55-.19a.71.7 77.9 00.47-.73q-.88-9.4-.37-18.82.17-3.23-.46-15.04-.1-1.88-1.25-2.21-.95-28.46-.86-57.22a.51.51 0 01.51-.51l10.56.02c-.31 1.1.26 1.59 1.32 1.53q13.42-.83 26.87-1.19 2.85-.07 4.33.3.48.13.97.04 3.83-.66 7.57.29a.74.74 0 00.78-.29q.66-.94 1.66-.46a1.92 1.87 53.7 001.02.17c.22-.03 5.31.03 5.27-.87a.55.55 0 00-.54-.53l-5.5-.07c2.93-.11 6.01-.63 8.77-.66 38.5-.3 77.27-2.06 115.94-2.48a.5.5 0 01.51.49q.29 9.73.44 19.47c.24 15.99.98 32.29 1.07 48.47.09 14.72 1.22 31.4 1.49 47.1q.95 53.86 2.65 107.71c.74 23.41.64 46.77 1.69 70.19q.06 1.21-.15 4.35a.64.63-2.8 01-.54.59q-3.27.51-6.33-.29zm-2.31-262.86l.01.4a.43.43 0 00.82.18q.5-1.03-.12-1.98-.19-.3-.34.03l-.14.31q-.23.5-.23 1.06z"/><path fill="#bebfc0" d="M271.75 141.46l5.5.07a.55.55 0 01.54.53c.04.9-5.05.84-5.27.87a1.92 1.87 53.7 01-1.02-.17q-1-.48-1.66.46a.74.74 0 01-.78.29q-3.74-.95-7.57-.29-.49.09-.97-.04-1.48-.37-4.33-.3-13.45.36-26.87 1.19c-1.06.06-1.63-.43-1.32-1.53 14.36-1.4 29.31-1.04 43.75-1.08zM319.25 144.96l-35.77.74q-.15-1.65 2.02-1.49 7.71.57 16.26-.23c5.49-.51 11.18.22 16.97-.47a.71.7 87.2 01.79.72q-.01.44-.27.73zM212.71 147.75l.75 36c-.13.42-.06 3.3-.87 3.29a.54.53-90 01-.53-.54c.02-9.77.49-19.56-.29-29.3-.27-3.33.39-7.36-.5-10.48a.32.32 0 01.25-.4l.32-.05a.5.49-11.5 01.56.36l.31 1.12z"/><path fill="#fff" d="M247.04 353.25l-.08.31a.75.75 0 01-.54.54q-7.41 1.96-14.08 5.73l-1.04-29.36a.74.74 0 01.55-.74c5.3-1.36 6.05-7.79.15-8.22a.68.66 86.5 01-.6-.54q-.21-1.03-.26-3.22c-1.15-54.13-2.5-108.33-2.89-162.46a.56.55-4 01.49-.56q6.52-.77 9.82-.89c17.82-.63 46.49-1.24 72.5-2.17q37.42-1.33 74.86-1.61a.51.5 88.3 01.51.49c.58 17.75 1.12 34.78 1.28 53.27.17 19.04 1.35 38.01.84 57.07q-.02.82-.42.1-5.98-10.73-13.09-20.72a1.19 1.17 35.5 01-.18-1.02l1.98-6.88a.97.94-55.9 00-.15-.85q-17.51-23.7-32.55-40.89c-5.88-6.72-13.79-7.97-22.25-6.87-4.33.57-7.81.44-11.84.56a.93.9-73.1 00-.74.41l-1.33 1.93a.43.42-47.1 01-.69.03c-8.37-10.62-21.95-9.82-31.08-.82-3.73 3.68-7.03 7.49-6.78 13.13.25 5.94 1.79 11.65 1.78 17.56q0 3.22.26 6.43a1.12 1.11 16.9 00.42.78l4.42 3.37a.83.83 0 01.26.98q-3.81 9.19-.04 18.51a1.52 1.52 0 002.32.64l4.58-3.47a.43.43 0 01.67.22c1.47 4.94 4.4 3.93 7.73 6.44a1.26 1.23-76.5 01.48.8c.89 5.84 4.49 8.39 8.95 3.43q.77-.85 1.11.24 3.54 11.14 2.48 22.81a.88.86-71.5 00.39.8q3.3 2.11 5.39 5.42a.65.64-35.4 01-.15.84q-17.87 14.26-40.17 19.45a.54.54 0 00-.41.63l.36 1.98a.78.77 88.9 01-.87.91q-2.91-.39-5.35 1.24a1.91 1.91 0 01-.99.32c-6.27.23-10.53-.51-14.61 5.12-4.94 6.82-12.93 19.77-11.42 27.34a.64.64 0 001.25.04c.78-3.06 3.88-13.61 7.81-13.37q.51.03.17.42-4.57 5.12-3.68 12.04c.62 4.83.97 9.13 4.47 12.33z"/><path fill="#bebfc0" d="M421.43 152.46l1.02 24.49-.55.03a.59.58-3.5 01-.62-.54q-.89-11.99.15-23.98z"/><path fill="#21201f" d="M395.21 172.48l.14-.31q.15-.33.34-.03.62.95.12 1.98a.43.43 0 01-.82-.18l-.01-.4q0-.56.23-1.06z"/><path fill="#bebfc0" d="M217.79 200.25q1.15.33 1.25 2.21.63 11.81.46 15.04-.51 9.42.37 18.82a.71.7 77.9 01-.47.73l-.55.19a.4.4 0 01-.54-.37q-.01-.47-.27-.87l-.25-35.75zM184.96 210v19.75l-.27 2.45a.4.4 0 01-.42.36c-.78-.05-1.09-20.62-.82-22.47a.73.72-.6 01.59-.6q.69-.13.92.51zM180.04 321.75c.3-10.68-.61-24.39-.79-31.92q-.72-30.3-1.79-60.58l.06-.94q.03-.61.32-.06c1 1.89.51 3.9.62 5.52q.66 9.08 1.14 18.16a1.67 1.64 60.2 01-.26.99q-.62.96.13 1.92a1.47 1.47 0 01.31.93q-.24 13.66.3 27.29.02.61.23 1.18a1.36 1.36 0 01-.03.97q-.69 1.7.08 3.29a1.17 1.17 0 01.07.87q-.65 2.12.16 4.16a1.62 1.62 0 01.06 1.02q-.52 1.86-.38 2.71 1.89 12.01.54 24.12a.43.41-86 01-.41.37h-.36zM403.29 249.25l-.58-19.5.06-1.24a.54.53.6 01.53-.51h.27a.48.48 0 01.49.46c.34 6.72.07 13.41.48 20.12a.64.63 80 01-.46.66q-.39.12-.79.01z"/><path fill="#21201f" d="M162.84 277.24q-3.08 2.95-4.59 3.01l-25.75 1.04-9.44.14a1.74 1.72 59.8 01-.93-.25l-2.88-1.72-1.46-1.21q-1.27-18.26-.88-36.54c.06-2.69 1.67-5.64 4.27-6.08q15.12-2.58 36.56-2.15a1.7 1.69 62.8 01.93.3q4.38 3.04 4.63 7.49.51 8.95.14 33.88c-.01.78-.37 1.38-.6 2.09zm-6.36-38.31c-11.17-.56-21.75 1.06-32.68 1.54a1.76 1.76 0 00-1.67 1.7q-.52 15.93.39 31.85a1.5 1.45-68.3 00.37.9c1.92 2.17 28.09.16 32.43-.26 3.89-.38 3.54-2.39 3.48-5.44q-.28-14.08-.34-28.22a2.09 2.08 1.3 00-1.98-2.07z"/><path fill="#fff" d="M156.48 238.93a2.09 2.08 1.3 011.98 2.07q.06 14.14.34 28.22c.06 3.05.41 5.06-3.48 5.44-4.34.42-30.51 2.43-32.43.26a1.5 1.45-68.3 01-.37-.9q-.91-15.92-.39-31.85a1.76 1.76 0 011.67-1.7c10.93-.48 21.51-2.1 32.68-1.54zm-20.86 28.52l7.87-.21a.75.75 0 00.73-.73q.31-9.45-1.02-18.8a.56.55 85.3 00-.56-.48l-7.14.03a.49.49 0 00-.49.54c.57 6.43 1.78 12.91.29 19.25a.32.32 0 00.32.4z"/><path fill="#21201f" d="M135.62 267.45a.32.32 0 01-.32-.4c1.49-6.34.28-12.82-.29-19.25a.49.49 0 01.49-.54l7.14-.03a.56.55 85.3 01.56.48q1.33 9.35 1.02 18.8a.75.75 0 01-.73.73l-7.87.21z"/><path fill="#bebfc0" d="M185.75 254.79l.46 29.21q-1.4-.8-1.25-3.01.45-6.17-.15-15.57c-.1-1.65-.61-2.51-.23-4.6q.26-1.48-.08-5.31a.73.72 75.4 01.42-.73q.34-.15.83.01z"/><path fill="#909294" d="M162.84 277.24l-.49 5.02a1.5 1.47-20.9 01-.4.87c-3.34 3.49-6.2 2.53-10.44 2.67q-12.73.4-25.46.42c-5.51.01-8.69-2.21-8.26-7.97l1.46 1.21q-.15-.01-.29.04a.37.37 0 00-.22.47q1.3 3.72 5.14 4.29a1.53 1.51 34.4 00.94-.17q1.63-.89 3.27.26 1.04.73.66-.48l-.43-1.37a.29.27 59.5 01.06-.26l.21-.21a.26.26 0 01.39.02q1.59 1.97 3.93 1.77a.48.47 76.3 00.4-.66l-.81-1.87 25.75-1.04q1.51-.06 4.59-3.01z"/><path fill="#bebfc0" d="M431.54 277.25q.38.05.7.22a.93.92 13.3 01.47.75c.18 3.61-.18 7.36.05 10.77q.72 10.94.48 19.51-.03 1.02-1.2.75l-.5-32zM119.25 279.46l2.88 1.72a1.74 1.72 59.8 00.93.25l9.44-.14.81 1.87a.48.47 76.3 01-.4.66q-2.34.2-3.93-1.77a.26.26 0 00-.39-.02l-.21.21a.29.27 59.5 00-.06.26l.43 1.37q.38 1.21-.66.48-1.64-1.15-3.27-.26a1.53 1.51 34.4 01-.94.17q-3.84-.57-5.14-4.29a.37.37 0 01.22-.47q.14-.05.29-.04z"/><path fill="#909294" d="M201.55 301.41c-3.94 2.64-4.79 5.77-4.59 10.66.58 13.47.43 21.44.85 32.06.53 13.49 17.19 12.65 16.88.13q-.16-6.71.09-13.45a.59.59 0 01.84-.51l.92.42a.76.75 16.9 01.43.79c-.4 2.57.29 5.02.29 7.22q.07 50.5 2.3 100.95c.06 1.39.68 3.29 1.09 4.64a.64.64 0 00.64.46c13.52-.51 27.43-.54 40.51-1q23.7-.82 47.4-.81.5 0 .02.15c-36.18 11.01-72.9 21.18-109.08 31.47q-1.75-10.57-1.59-21.08c.3-20.02-.7-39-1.15-58.06a.64.64 0 00-.48-.61l-.38-.09q-.33-2.52-.41-5.07-.61-21.18-.92-42.37c-.04-2.65.26-5.04-.01-7.4q-.51-4.43-.3-8.9a1.12 1.11 70.5 01.35-.74q.6-.56-.01-1.15a1.12 1.12 0 01-.34-.78l-.86-44.09q-.11-1.13.6-1.38a.36.36 0 01.48.32l.91 18.05a.55.55 0 00.59.52l4.93-.35z"/><path fill="#fff" d="M208.8 344.59c-1.1 5.91-7.33 2.84-7.29-2.25q.11-15.93-.26-31.86c-.13-5.38 7-7.05 7.2-.45q.17 5.67-.03 11.4a.55.54-1.8 01-.51.53l-2.01.18a1.31 1.28 19 00-.84.4q-3.92 4.08.34 7.64a1.43 1.39-24.3 00.91.33l1.36-.01a.75.75 0 01.74.58q1.64 6.76.39 13.51zm-3.11-32.76l.52-2.27a.93.93 0 00-1.54-.89q-1.85 1.67-.09 3.48.85.87 1.11-.32zm-.24 32.08a.57.57 0 001.07-.29c0-2.65 1.91-10.03-1.01-10.81a.99.99 0 00-.89.18c-2.29 1.82-.17 9.21.83 10.92zM327.63 323.74q-32.25 12.12-64.65 23.69c-3.06 1.09-7.82 3.25-11.88 4.33 4.39-10.71 6.9-15.11 15.96-21.4a1.24 1.23 35.1 011-.17q4.51 1.17 9.12.53a.68.68 0 01.67.32l.8 1.24a.63.63 0 00.84.21l46.2-25.06a.7.7 0 01.97.34c1.03 2.35 4.94 9.18 4.54 11.42q-.28 1.54-3.57 4.55z"/><path d="M204.58 312.15q-1.76-1.81.09-3.48a.93.93 0 011.54.89l-.52 2.27q-.26 1.19-1.11.32z"/><path fill="#fdfcdd" d="M186.79 323.75l.71 42.96-.47.04a.5.5 0 01-.55-.48q-1.01-21.27.31-42.52z"/><path fill="#909294" d="M327.63 323.74q-2.28 6.24-6.13 11.05c-2.81 1.19-4.31 5.63-1.46 7.71-.63 1.1-20.62 8.8-22.72 9.54q-32.57 11.47-64.8 23.83l-.18-16.04q6.67-3.77 14.08-5.73a.75.75 0 00.54-.54l.08-.31.71-.04.49.25a.6.59 31.9 00.75-.17l.8-1.04q.59-.4 1.31-.49c4.06-1.08 8.82-3.24 11.88-4.33q32.4-11.57 64.65-23.69z"/><path fill="#fff" d="M249.79 352.25l-.8 1.04a.6.59 31.9 01-.75.17l-.49-.25q-2.56-8.62-.82-15.75c1.22-5.01 8.35-11.94 13.73-10.51a.53.53 0 01.1.98c-5.18 2.69-5.53 6.06-7.17 11.09-1.43 4.39-3.18 8.38-3.8 13.23z"/><path d="M205.45 343.91c-1-1.71-3.12-9.1-.83-10.92a.99.99 0 01.89-.18c2.92.78 1.01 8.16 1.01 10.81a.57.57 0 01-1.07.29z"/><path fill="#bebfc0" d="M224.79 332.93l.42 8.07q-.24.08-.46.04a.73.71 89.9 01-.6-.61q-.57-3.82.64-7.5z"/><path fill="#fdfcdd" d="M321.5 334.79c-1.28 2.33-3.79 5.06-.75 7.42l-.71.29c-2.85-2.08-1.35-6.52 1.46-7.71z"/><path fill="#fff" d="M320.75 342.21c2.94 2.88 8.79 7.09 2.65 11.09-8.58 2.77-17.73 6.71-25.35 9.3q-31.9 10.87-63.69 22.04a1.16 1.15 49.2 01-.93-.07q-.5-.28-.68-.86l-.23-7.84q32.23-12.36 64.8-23.83c2.1-.74 22.09-8.44 22.72-9.54l.71-.29z"/><path fill="#909294" d="M323.4 353.3q-.55 1.96-1.51 3.5c-2.18 3.48-3.3 6.84-6.11 9.98-3.55 3.96 4.76 21.98 7.12 26.17.71 1.27 2.01 1.96 3.18 2.75q.42.28.36-.23-.55-5.02-2.7-9.54a.52.52 0 01.79-.64l3.64 2.8a.43.43 0 00.68-.24l.18-.7a1.01 1.01 0 00-.27-.95q-5.07-5.08-5.97-12.25-.14-1.18.56-.22 3.2 4.39 7.86 7.06a.93.93 0 01.47.79q.03 1.31-.46 3.92-1.55 8.08-3.64 15.92-1.82 3.55-2.01 7.56-.03.57.45.27.43-.27.69-.75c-2.5 9.74 9.31 8.29 8.77 16.8a1.21 1.19-1.1 01-1.09 1.12q-12.27 1.16-24.63 1.66-27.75 1.12-55.51 1.88.48-.25.94-1.01a.52.52 0 00-.47-.78l-17.46.65a1.47 1.47 0 01-1.46-1.89q.51-1.73.36-3.42-1.43-16.43-1.38-32.93a.54.54 0 00-.5-.54l-.54-.05a.48.48 0 00-.52.46l-.01.3q-.93-3.48-.46-7.04.18.58.68.86a1.16 1.15 49.2 00.93.07q31.79-11.17 63.69-22.04c7.62-2.59 16.77-6.53 25.35-9.3z"/><path fill="#909294" d="M331.25 377.96c-6.9-4.48-6.82-13.6-.67-18.21a.45.44-33.4 01.66.13c3.12 5.47 1.98 11.01.54 17.86a.35.35 0 01-.53.22z"/><path fill="#bebfc0" d="M433.29 372.75l.91.01a.52.52 0 01.52.52l.44 40.17a.56.55 80.5 01-.37.53l-.29.1a.15.15 0 01-.18-.07l-.28-.51-.75-40.75zM254.25 429.96l-19.03.26a.36.36 0 01-.37-.35l-1.64-39.12.01-.3a.48.48 0 01.52-.46l.54.05a.54.54 0 01.5.54q-.05 16.5 1.38 32.93.15 1.69-.36 3.42a1.47 1.47 0 001.46 1.89l17.46-.65a.52.52 0 01.47.78q-.46.76-.94 1.01zM196.54 394.75l.38.09a.64.64 0 01.48.61c.45 19.06 1.45 38.04 1.15 58.06q-.16 10.51 1.59 21.08-.56.53-1.18.27a.86.85 8.9 01-.52-.7q-.13-1.29-.17-2.48-1.32-38.45-1.73-76.93zM225.25 440.71c-.93.32-1.48.04-1.52-.99q-.6-19.73-1.27-39.47.39-.46.94-.49a.5.5 0 01.54.5q.08 10.84.63 21.65c.08 1.47-.34 3.85.3 5.98q.14.48.47.84.68.73.1 1.24a1.26 1.24 69 00-.42.96l.23 9.78zM327.58 401.42l-.87 7.08q-.26.48-.69.75-.48.3-.45-.27.19-4.01 2.01-7.56zM183.46 541.75q-1.39-57.12-.96-114.25.03-3.86-.71-15.5.59-.43 1.24-.24a.73.73 0 01.53.66c.38 6.41-.24 12.67.22 19.06.56 7.81-.17 16.41-.03 23.36q.24 11.39-.17 22.78-.15 4.19.36 10.25c.54 6.33.04 13 .38 18.83q1.01 17.31.46 34.65a.71.71 0 01-.52.66q-.41.12-.8-.26zM427.14 433.34q.02-7.84-1.41-15.61a.49.48 78.6 00-.58-.39c-1.34.3-8.42 3.08-8.4 1.2l10.43-2.69a.45.44 80 01.55.39q.76 8.62-.59 17.1z"/><path fill="#909294" d="M427.14 433.34l-10.87 2.94q-3.37-.47-5.7.53a1.22 1.22 0 01-1.7-1.12l-.05-12.2a.65.65 0 00-.43-.6l-1.42-.48q4.04-3.79 9.78-3.87c-.02 1.88 7.06-.9 8.4-1.2a.49.48 78.6 01.58.39q1.43 7.77 1.41 15.61z"/><path fill="#bebfc0" d="M406.97 422.41l1.42.48a.65.65 0 01.43.6l.05 12.2a1.22 1.22 0 001.7 1.12q2.33-1 5.7-.53l-7.72 2.28a.41.4 79.2 01-.52-.36l-1.06-15.79zM397.29 436.4q-12.44.97-24.79.89l-.49-.05a.33.33 0 01-.28-.43l.11-.32a.3.29 6.1 01.25-.2q12.61-1.16 25.2.11z"/><path fill="#909294" d="M374.16 441.35q13.26-.68 26.28-.76a.35.35 0 01.1.68c-31.25 9.25-58.01 16.05-93.5 27.25-22.51 7.1-49.38 13.76-64.48 18.81q-21.49 7.18-43.15 14.26a.64.64 0 01-.84-.59l-.61-19.77a1.44 1.44 0 011.06-1.43q64.74-17.6 129.76-36.19 3.89-1.12 5.97-1.16c13.14-.28 25.43-.38 39.41-1.1zM428.02 456.21q-4.76 2.29-10.76 3.83c-32.31 8.3-66.71 18.84-100.18 28-39.13 10.7-78.05 22.08-117.09 33.08a.62.62 0 01-.79-.56l-.23-3.61a.79.78 81.1 01.58-.81c25.15-6.73 50.5-13.02 75.5-20.23 50.9-14.66 101.82-29.13 152.59-44.25a.51.5 79.1 01.65.45l.25 3.19a.94.93-15.4 01-.52.91z"/><ellipse fill="#bebfc0" transform="rotate(85.6 -309.704 294.21)" rx="1.5" ry=".4"/><path fill="#21201f" d="M0 589.94l1.25.27 23.94.79H0v-1.06zM31.19 591h-5.5q2.75-.63 5.5 0z"/></svg>