<svg xmlns="http://www.w3.org/2000/svg" viewBox="0 0 591 591"><g stroke-width="2" fill="none"><path stroke="#111110" vector-effect="non-scaling-stroke" d="M590.06 0l.19.29"/><path stroke="#5e5e5e" vector-effect="non-scaling-stroke" d="M590.25.29v589.23a.81.8-89.7 01-.81.81l-51.33-.34a1.2 1.19-60.7 00-.63.18q-.21.12-.48.12-264.47-.04-528.94-.26-3.78 0-7.56.01"/><path stroke="#111110" vector-effect="non-scaling-stroke" d="M.5 590.04l-.5-.1"/><path stroke="#7e7e70" vector-effect="non-scaling-stroke" d="M586.25 4.52a.27.27 0 00-.27-.27H4.52a.27.27 0 00-.27.27V586a.27.27 0 00.27.27h581.46a.27.27 0 00.27-.27V4.52"/><path stroke="#6f6f6e" vector-effect="non-scaling-stroke" d="M591 587.56c-.84-.45-.25-537.29-.25-587.06a.25.24-86.1 00-.21-.25q-.17-.02-.29.04M564.44 591q-25.88-.63-51.75 0M512.44 591q-14.38-.63-28.75 0M31.44 591q-2.75-.63-5.5 0M24.44 591q-3.38-.63-6.75 0M15.19 591l-14.55-.31a.26.25-81 01-.23-.33l.09-.32"/><path stroke="#faefc5" vector-effect="non-scaling-stroke" d="M15.23 39.25c.01 14.02-.22 28.28.3 42.28a1.12 1.12 0 001.69.92q1.2-.72 2.24-1.75 30.96-30.66 61.31-61.93 1.29-1.33 1.94-3.17a.66.66 0 00-.61-.88q-24.39-.55-48.65.63c-13.29.64-18.22 11.94-18.22 23.9"/><path stroke="#cacbbe" vector-effect="non-scaling-stroke" d="M145.25 80.04l.05 1.13"/><path stroke="#8f8f80" vector-effect="non-scaling-stroke" d="M145.3 81.17c-13.85 4.27-23.12 14.09-33.42 23.75a.73.73 0 01-1.21-.34l-.32-1.13a.83.83 0 00-.74-.6l-6.28-.42a.56.56 0 00-.59.54l-.28 9.03"/><path stroke="#cacbbe" vector-effect="non-scaling-stroke" d="M102.46 112l-.92.5"/><path stroke="#7e7e70" vector-effect="non-scaling-stroke" d="M101.54 112.5c-12.15 10.47-27.96 11.62-42.48 13.27q-1.4.16-2.2 1.06-.37.41.18.35 14.58-1.6 29.05-3.69c3.59-.52 6.82-2.54 10.63-3.29"/><path stroke="#cacbbe" vector-effect="non-scaling-stroke" d="M96.72 120.2q-3.96 2.95-7.39 4.17-9.03 3.21-15.77 7.13a.81.8 77.8 00-.41.65l-.26 4.15a1.31 1.31 0 01-.51.95c-9.52 7.38-19.67 13.64-29.06 21.33q-1.73 1.42-2.27 2.4-.96 1.73.98 1.34c15.51-3.06 31.32-6.42 46.97-7.2q.5-.03.17.35-3.5 4-6.64 8.31-4.71 6.45-15.59 14.4-2.19 1.6-3.68 4.52a.72.72 0 00.22.9l.75.55a.65.65 0 01.23.75c-2.04 5.86-16.43 11.66-22.28 18.77a.93.93 0 00-.17.87q.32 1.04 1.6.95a.88.87-22 01.75.31q1.46 1.72 3.38.95 5.69-2.27 12.71-6.54c14.88-9.04 30.61-16.7 44.86-26.87q7.04-5.02 7.54-13.36a1.1 1.09 24.5 00-.32-.84l-.95-.93a.47.46 52.8 01.1-.74l26.26-14.49a1.08 1.07-45.3 011.02-.01c5.02 2.63-4.63 8.35-6.1 9.37a.88.88 0 00.3 1.57c7.38 1.79 9.25-1.87 15.16-4.86 3.13-1.59 7.7-1.02 10.37-2.35 10.34-5.16 18.4-9.92 31.03-13.72 2.27-.68 3.89-.31 5.16 1.66a1.17 1.17 0 01.15.97q-.52 1.9-1.97 3.25a1.7 1.7 0 00-.49.8l-1.6 5.71a1.57 1.57 0 01-1.4 1.14l-12.04.89a1.65 1.62-64 00-.84.3c-4.54 3.25-8.69 6.69-13.49 9.48q-28.3 16.47-54.72 35.8c-10.85 7.94-22.47 15.58-33.44 23.78-6.47 4.83-11.17 10.61-18.35 14.83q-10.09 5.94-19.13 13.11a.42.41-65.2 00.27.74q3.34-.11 6.39-.59 27.55-4.32 53-15.68.25-.11.49.04.45.29-.02.54l-4.91 2.52a.9.9 0 00-.33 1.32c1.1 1.6 2.99 1.43 4.64.54q19.21-10.31 37.73-21.79c16.74-10.37 33.89-19.69 51.08-29.11 3-1.64 5.71-3.98 8.26-6.52q6.32-6.28 14.39-10.29a.42.41 69.7 01.59.28l.32 1.3"/><path stroke="#8f8f80" vector-effect="non-scaling-stroke" d="M209.46 168l-.17 8.5"/><path stroke="#7e7e70" vector-effect="non-scaling-stroke" d="M209.29 176.5c-.5 17.15-2.93 34.03-5.04 51.05-.28 2.19-.91 5.22-1.11 7.88a.44.44 0 00.45.47l13.4-.34a.48.48 0 01.49.47q.04 14.04.02 28.07c-.03 14.47 39.52 36.76 51.5 43.19"/><path stroke="#8f8f80" vector-effect="non-scaling-stroke" d="M269 307.29q17.94 10.24 36.3 19.7c23.2 11.94 45.71 25.47 67.95 39.14a1 .99 21.9 01.46 1.06q-4.28 19.6-7.53 39.59c-.2 1.24.73 3.49 1.38 4.59q17.84 30.58 35.61 61.2 2.6 4.47 5.69 8.94a2.01 2.01 0 002.43.71c1.47-.61 3.05-1.23 4.77-1.22q18.45.15 36.28-.58a1.92 1.92 0 011.98 1.65q3.73 26.06 8 51.87c.58 3.5.4 6.64 2.15 9.8q6.4 11.54 14.86 21.67c5.77 6.91 15.1 9.6 23.33 12.27 8.77 2.86 18.86 4.59 28.35 6.39 4.63.88 7.26-2.88 7.72-7.14q3.03-28.37 6.49-56.68 1.3-10.68.93-21.38"/><path stroke="#fefef0" vector-effect="non-scaling-stroke" d="M546.15 498.87q.43-3.31.66-6.57c.36-5.21 2.45-9.41 4.88-13.61q5.24-9.02 8.4-15.55 5.97-12.3 12.23-24.48"/><path stroke="#8f8f80" vector-effect="non-scaling-stroke" d="M572.32 438.66q5.22-7.64 4.39-16.13c-.41-4.23-2.88-4.49-5.6-6.87a1.35 1.34-73.6 01-.45-.83c-2.05-14.61-4.48-29.13-5.08-44.08q-1.21-30.29-2.35-60.57c-.86-22.94-2.17-45.81-2.66-68.77-.05-2.13.67-5.05.08-7.66a.99.99 0 00-.57-.69q-4.68-2.07-9.72-2.8-2.39-.35-4.48-1.39c-6.15-3.09-13.07-5.28-20.05-4.04a.75.75 0 00-.62.73l-.19 7.53a.62.62 0 01-.61.6l-4.51.09a.62.62 0 01-.63-.62l-.06-11.67a.87.86-76.5 00-.47-.77c-2.65-1.41-9.01-4.29-12.78-3.85a.64.63-2.2 00-.57.6l-.65 14.44a.68.68 0 01-.9.61l-4.24-1.4a1.71 1.7-79.3 01-1.16-1.71c.17-3.03 1.11-12.88-.17-15.12-2.44-4.27-17.39-2.98-20.97-3a.47.47 0 00-.48.46l-.34 15.02a.75.74.4 01-.75.73h-8.1a.63.63 0 01-.63-.63v-15.01a.65.64 90 00-.64-.65l-21.57.12a.63.62-89.5 00-.62.62l-.24 14.94a.59.58-90 01-.57.58l-8.28.23a.61.6 89.6 01-.62-.62l.14-15.28a.55.55 0 00-.55-.55h-20.78a.75.75 0 00-.75.72l-.38 11.14a.54.54 0 01-.75.48c-2.94-1.25-7.7-2.3-7.13-6.34q.28-1.94-.21-6.01a.54.54 0 00-.55-.47l-19.86.62a1.88 1.88 0 00-1.71 1.25q-.47 1.37-.57 3.6-.92 20.72-.89 42.62a1.26 1.26 0 01-1.68 1.19q-9.14-3.29-19.25-6.89c-4.26-1.52-8.83-9.58-10.97-13.46q-.24-.45.24-.28 10.24 3.53 14.75 4.33 4.56.8 5.66-3.9a1.55 1.53-51 00-.1-1.02l-15.67-34.4a1.36 1.36 0 00-1.6-.75q-17.63 4.89-35.44 8.66c-1.79.37-2.64 1.21-3.18 2.85-1.72 5.26 9.99 11.69 13.7 13.14a1.14 1.11.3 01.64.63l3.02 7.37q.24.57-.36.44l-12.26-2.7a1.56 1.54-12.6 01-.88-.55c-2.43-3.16-9.25-8.85-7.41-12.91.76-1.68 1.92-7.89-1.01-8.24a.51.51 0 00-.57.45c-.1.8.03 2.52-1.24 2.48a.91.89 75.8 01-.74-.45l-2.7-4.74a1 1 0 00-1.84.23q-.5 1.84.73 3.16a.1.1 0 01-.05.16l-.28.1a.41.39-29.4 01-.42-.11q-1.78-1.91-2.6-2.35-.67-.37-1.12-.17a.7.68 75.4 00-.4.7l.12 1.22a.59.58 80.4 01-.44.63l-1.12.28a.74.73-10.2 00-.55.78l.31 3.71a1.19 1.18 18 00.42.81q8.98 7.42 14.91 17.48.07.11-.06.07l-25.37-8.48a.49.49 0 01-.34-.52l.14-1.81"/><path stroke="#7e7e70" vector-effect="non-scaling-stroke" d="M285.46 226c.43-1.19.85-2.39.64-3.7q-2.84-17.66-5.02-35.43c-.77-6.24-.83-13.04-1.32-19.59a1.44 1.37 62.5 01.26-.91q5.45-7.39 13.04-12.69"/><path stroke="#cacbbe" vector-effect="non-scaling-stroke" d="M293.06 153.68l.74 2.01a1.13 1.13 0 00.65.65c4.49 1.67 8.65 3.35 12.7 6.15 7.09 4.9 16.07 12.51 24.35 14.26q10.58 2.23 21.2 4.33c5 .99 8.14 2.6 12.35 5.13 9.45 5.67 22.41 7.77 33.25 9.95 1.19.24 2.45.81 3.6-.06q.42-.33-.08-.5c-4.25-1.52-8.46-4.57-11.46-6.12q-30.1-15.65-59.72-32.2c-6.75-3.77-12.63-9.1-18.81-13.84-3.44-2.64-10.14-5.1-13.79-1.69"/><path stroke="#7e7e70" vector-effect="non-scaling-stroke" d="M298.04 141.75c.04-3.12.72-8.04-1.18-10.63-3.68-5.01-11.82-7.54-16.86-9.41"/><path stroke="#8f8f80" vector-effect="non-scaling-stroke" d="M280 121.71c-3.32-.89-1.46-5.69-2.61-8.56a.87.87 0 00-.68-.53q-4.41-.66-8.86-.3a1.38 1.38 0 00-.96.51q-2.38 2.92-2.31 6.64a.51.51 0 01-.56.52l-.37-.03a.57.56 6.4 01-.51-.63q.39-3.51-1.63-6.42a1.12 1.1 74.1 00-.85-.48c-5.18-.36-11.24.68-16.15-.75q-13.59-3.95-27.22-7.78c-2.22-.63-3.29.39-3.48-2.9q-.66-11.83-.99-23.7a.78.78 0 00-.48-.69c-2.46-1.02-4.72-2.77-7.07-.28a.5.5 0 01-.68.04q-3.42-2.94-6.23.31a.48.46-45.8 01-.7.02q-2.02-2.14-5.1-1.54a1.67 1.65 16.3 00-.87.47q-1.15 1.15-2.19-.08a1.27 1.25-18.1 00-.9-.45l-2.16-.12a.66.65 4 00-.7.6l-1.21 16.1a.47.47 0 01-.65.4q-9.79-4.09-19.68-7.95c-1.81-.7-3.24-.6-3.37-3.2q-.31-6.25-.43-12.48a.6.59 0 00-.59-.58l-12.27-.13a1.92 1.92 0 00-1.93 1.78l-.7 10.17a.22.22 0 00.1.2l.24.15"/><path stroke="#111110" vector-effect="non-scaling-stroke" d="M280 121.71l-.5 1"/><path stroke="#91908f" vector-effect="non-scaling-stroke" d="M279.5 122.71c-1.77-1.3-1.19 3.14-1.03 3.64a.97.95.2 00.63.62c2.26.67 7.87 3.16 7.69 6.05-.33 5.17-4.42 5.85-7.65 8.62a.96.95-23.1 00-.33.8l.53 6.61a.35.34-15.2 00.5.28l1.16-.54"/><path stroke="#111110" vector-effect="non-scaling-stroke" d="M281 148.79c1.7 2.07 10.17-3.88 11.62-5.41q1.27-1.35 2.92-2.11a.72.71-19.9 01.99.46q.88 3.18 0 6.35a1.56 1.52-9.9 01-.62.86q-8.15 5.45-13.41 12.29c-1.32 1.72-3.6 3.42-4.06 5.14-.57 2.18.32 4.63.32 6.52.01 5.38.06 10.61.93 16.02.99 6.2 1.97 11.62 2.64 18.5.59 6.08 1.94 11.49 2.23 18.03q.04.74.9.56"/><path stroke="#91908f" vector-effect="non-scaling-stroke" d="M572.32 438.66q-1.87-.19-2.81-.45c-22.31-6.39-46.58-16.12-52.55-41.71"/><path stroke="#6f6f6e" vector-effect="non-scaling-stroke" d="M516.96 396.5q-2.7-17.45-3.73-21.75c-5.33-22.3-19.14-43.95-38.36-58.45a.84.83 49.9 00-.86-.08c-9.59 4.77-8.92 20.91-8.89 32.79"/><path stroke="#5d5e5d" vector-effect="non-scaling-stroke" d="M465.12 349.01q.37 33.07.45 66.18.01 2.5.68 4.85"/><path stroke="#91908f" vector-effect="non-scaling-stroke" d="M466.25 420.04c8.82 41.63 38.33 69.99 79.9 78.83"/><path stroke="#111110" vector-effect="non-scaling-stroke" d="M269 307.29l.87-.14a.32.31 55.2 00.1-.58c-17.79-10.6-39.17-22.06-50.24-39.63a1.7 1.7 0 01-.27-.92c-.01-2.56-.58-5.08-.44-7.52q.61-11.43-.09-22.52a1.2 1.2 0 00-1.13-1.12l-11.13-.58a1.79 1.78 5.3 01-1.67-2q2.53-20.18 5.03-39.07c.3-2.25-.83-4.77 1.25-7.07a1.1 1.09 63.6 00.28-.85c-.26-2.73-.51-9.99-2.27-8.79"/><path stroke="#5d5e5d" vector-effect="non-scaling-stroke" d="M209.46 168l.75-26"/><path stroke="#6f6f6e" vector-effect="non-scaling-stroke" d="M210.21 142l.25-16.5"/><path stroke="#5d5e5d" vector-effect="non-scaling-stroke" d="M210.46 125.5l.01-4.71a.52.52 0 00-.51-.52q-11.45-.07-22.9.03-2.69.02-3.96-.46a.74.73 12.9 01-.47-.74l.81-9.97a1.58 1.56-77.6 00-1.02-1.61Q170 102.9 158.81 95.94q-2.43-1.51-8-4.02-.46-.2-.95-.17l-2.66.19a.56.56 0 01-.59-.62c.22-2.06 1.91-20.98.82-21.1a.39.39 0 00-.42.41c.07 1.75.2 8.7-1.76 9.41"/><path stroke="#cbcdcd" vector-effect="non-scaling-stroke" d="M515.79 396.25q-.67 1.34-2.08 1.99-22.71 10.5-45.15 21.58-.61.31-2.31.22"/><path stroke="#4c4d4e" vector-effect="non-scaling-stroke" d="M298.04 141.75q.63 3.54-.16 6.98a1.76 1.74 75 01-.48.84l-4.34 4.11"/><path stroke="gray" vector-effect="non-scaling-stroke" d="M281 148.79c6.28-3.09 12.48-7.01 15.55-13.34a1.14 1.12-43 00.04-.91c-2.31-5.88-10.85-9.08-17.09-11.83"/><path stroke="#aaabac" vector-effect="non-scaling-stroke" d="M210.46 125.5l-.35-1.4a.41.4-12 00-.47-.3c-.34.06-.46.37-.46.72l-.06 16.81a.71.7-81.8 00.5.68q.32.09.59-.01"/><path stroke="#4c4d4e" vector-effect="non-scaling-stroke" d="M96.72 120.2l4.21-2.91a1.02 1.01 74.7 00.44-.78l.17-4.01"/><path stroke="#5d5e5d" vector-effect="non-scaling-stroke" d="M102.46 112l.96 3.21a.44.43-20.4 00.6.27l1.48-.69"/><path stroke="#aaabac" vector-effect="non-scaling-stroke" d="M105.5 114.79c.38 3.81 16.78-10.78 17.52-11.34 6.5-4.89 11.98-9.97 20.73-11.7"/><path stroke="#5d5e5d" vector-effect="non-scaling-stroke" d="M143.75 91.75q.29.17.61.16a.6.6 0 00.57-.58l.37-10.16"/><path stroke="#dedede" vector-effect="non-scaling-stroke" d="M516.96 396.5l-1.17-.25"/><path stroke="#aaabac" vector-effect="non-scaling-stroke" d="M515.79 396.25c-.52-4.68-1.91-9.16-2.48-13.72-2.32-18.53-12-36.16-23.66-50.44-4.02-4.91-9.65-9.1-14.5-13.45a2.11 2.11 0 00-3.12.32c-5.36 7.37-4.96 14.84-5.42 24.89q-.01.06.17 2.13.16 1.91-1.66 3.03"/><path stroke="#6f6f6e" vector-effect="non-scaling-stroke" d="M143.75 91.75l-.07-1.5a.67.67 0 00-.99-.56c-6.7 3.65-13.38 6.23-19.78 11.24-4.93 3.86-10.68 9.91-17.41 13.86"/><path stroke="#7e7e70" vector-effect="non-scaling-stroke" d="M164.75 415.04q2.34 8.17 6.05 15.78c1.97 4.06 1.74 7.94 1.94 12.26q.11 2.58 2.33 3.63a.66.65 19.6 01.36.75l-1.03 4a1 .99 29.9 00.27.97c6.78 6.64 17.04 2.78 20.08-5.39"/><path stroke="#8f8f80" vector-effect="non-scaling-stroke" d="M194.75 447.04c4.59-10.03 2.59-20.14 1.72-30.29a1.88 1.85-35.3 01.17-.94c1.57-3.26 3-7.8.41-10.96a1.03 1 31.9 01-.21-.85q3.28-15.23 4.45-30.81.13-1.63 1.11-3.68c2.8-5.88-.4-16.37-1.08-22.92-1.15-11.07-2.35-18.87-3.81-28.34-.56-3.63-1.13-7.8-3.98-10.44-4.14-3.83-9.22-6.62-13.24-9.81"/><path stroke="#7e7e70" vector-effect="non-scaling-stroke" d="M180.29 298c.14-4.16 1.37-6.63 5.14-8.88 6.22-3.73 19.29-12.9 21.11-20.12"/><path stroke="#8f8f80" vector-effect="non-scaling-stroke" d="M206.54 269c1.66-6.87-2.13-9.09-8.28-10.06q-27.88-4.42-55.85-8.31c-1.1-.15-2.89.32-3.36 1.17q-8.65 15.44-22.76 44.39-.34.69-2.46 4.36c-3.45 5.98-2.3 13.82 5.68 13.94q10.43.17 24.27-4.8a.34.34 0 01.45.33c-.46 10.4-.2 22.25-2.94 32.29-2.66 9.76-4.92 18.64-9.6 27.67q-.73 1.41-2.44 2.79a1.45 1.44 79.2 00-.48.71q-7.3 24.33-12.25 49.24a1.02 1.01-9.4 01-.49.68q-4.78 2.72-9.96 4.44c-4.07 1.35-9 4.81-11.79 7.02q-5.55 4.39-6.28 11.85a1.29 1.27 72.4 01-.42.83c-3.18 2.9-6.68 5.33-9.36 8.83-4.62 5.99-10.33 7.01-8.78 16.4.42 2.52.58 4.48 3.06 5.24q11.4 3.49 30.27 8.58c4.29 1.15 12.85 3.98 16.24.07a.5.5 0 01.78.02q.37.47.52 1.08.12.48.46.84 1.86 1.96 4.44 1.75c5.8-.47 6.48-8.26 7.4-12.34a1.21 1.2-8.1 01.59-.78q7.15-4.02 13.49-9.25a1.01 1.01 0 011.35.05c6.59 6.36 11.78-2.75 12.32-8.22q1.02-10.35 1.63-13.32c1.75-8.49 1.92-13.87-6.01-19a.57.57 0 01-.19-.76l7.1-13.03a.58.57-59.1 01.82-.21q.82.54 1.04 1.55"/><path stroke="#111110" vector-effect="non-scaling-stroke" d="M206.54 269l-.04-.36a.27.27 0 00-.41-.2c-1.41.89-1.7 2.41-2.45 3.41-4.8 6.33-10.97 10.58-17.22 15.3q-2.18 1.64-4.9 2.21a.35.35 0 01-.41-.4c.22-1.45 1.75-10.39.25-12.17a.51.51 0 00-.77-.01l-.59.68"/><path stroke="#91908f" vector-effect="non-scaling-stroke" d="M180 277.46q-8.28 1.14-16.39 3.61"/><path stroke="#5d5e5d" vector-effect="non-scaling-stroke" d="M163.61 281.07q-2.29 3.55-6.36 4.14"/><path stroke="#91908f" vector-effect="non-scaling-stroke" d="M157.25 285.21q-3.79.19-6.96 2.8"/><path stroke="#5d5e5d" vector-effect="non-scaling-stroke" d="M150.29 288.01c-1.56.24-2.29 1.12-2.2 2.76q.45 8.43 8.58 9.96"/><path stroke="#91908f" vector-effect="non-scaling-stroke" d="M156.67 300.73q7.81 1.8 15.08-.94"/><path stroke="#111110" vector-effect="non-scaling-stroke" d="M171.75 299.79l.12.48a.46.46 0 00.59.31l7.83-2.58M194.75 447.04l-1.04-.4a.48.48 0 00-.63.28q-3.42 8.86-12.84 6.64-2.43-.58-3.42-3.06a.83.81 54.7 01.13-.83c1.58-1.89.65-3-.9-4.65-2.7-2.88-1.2-10.07-3.26-14.45q-3.48-7.43-6.23-15.19a.99.99 0 00-.66-.62q-.58-.18-1.15.28"/><path stroke="#4c4d4e" vector-effect="non-scaling-stroke" d="M165.25 288.71q-1.42.04-1.75 1.25"/><path stroke="#aaabac" vector-effect="non-scaling-stroke" d="M163.5 289.96q-1.5.92-2.29 2.54"/><path stroke="#4c4d4e" vector-effect="non-scaling-stroke" d="M161.21 292.5l-.75-.5"/><path stroke="#cbcdcd" vector-effect="non-scaling-stroke" d="M160.46 292q.68-2.18 2.56-3.29a.32.32 0 00-.05-.58c-2.11-.8-3.57-2.74-5.72-2.92"/><path stroke="gray" vector-effect="non-scaling-stroke" d="M171.75 299.79q4.15-1.24 5.4-5.3c1.73-5.63 3.79-11.03 2.85-17.03"/><path stroke="#cbcdcd" vector-effect="non-scaling-stroke" d="M156.67 300.73q4.9-1.63 10.06-.87a.98.96 25.3 00.84-.29l1.43-1.53"/><path stroke="#91908f" vector-effect="non-scaling-stroke" d="M169 298.04q2.19-.24 2.8-1.99a.44.44 0 00-.36-.58q-1.78-.21-3.23 1.03"/><path stroke="#dedede" vector-effect="non-scaling-stroke" d="M168.21 296.5q-2.46.38-2.71-1.96"/><path stroke="gray" vector-effect="non-scaling-stroke" d="M165.5 294.54l6.3-2.48a1.55 1.55 0 00.75-.63q1.18-1.91 3.46-1.7a.54.54 0 00.42-.92l-1.95-1.87a.58.58 0 00-.9.11q-1.83 2.94-5.33 3.41"/><path stroke="#dedede" vector-effect="non-scaling-stroke" d="M168.25 290.46l-.25-.42"/><path stroke="gray" vector-effect="non-scaling-stroke" d="M168 290.04q2.57-.75 2.47-3.12a.71.7-84 00-.53-.66c-1.2-.32-2.26 2.42-4.69 2.45"/><path stroke="#cbcdcd" vector-effect="non-scaling-stroke" d="M165.25 288.71q.58-2.17-.62-3.96-.27-.39-.37-.86l-.65-2.82"/><path stroke="#aaabac" vector-effect="non-scaling-stroke" d="M159.55 296.49q2.31 2.79 4.66.01a.8.79-59.9 01.88-.24q.98.34 1.68 1.16a.99.96-22.7 00.81.32l.42-.03"/><path stroke="#5d5e5d" vector-effect="non-scaling-stroke" d="M168 297.71l1 .33"/><path stroke="gray" vector-effect="non-scaling-stroke" d="M160.46 292q-1.5 1.4-1.25 3.5"/><path stroke="#cbcdcd" vector-effect="non-scaling-stroke" d="M159.21 295.5l-4.47-.09a1.45 1.4 64.9 01-.89-.34q-3.25-2.77-3.56-7.06"/><path stroke="#5e5e5e" vector-effect="non-scaling-stroke" d="M168 290.04q-2.3.54-4.5-.08M165.5 294.54l-5.95 1.95"/><path stroke="#4c4d4e" vector-effect="non-scaling-stroke" d="M159.55 296.49l-.34-.99"/><path stroke="#5e5e5e" vector-effect="non-scaling-stroke" d="M161.21 292.5l.28.37a.64.63-30.1 00.77.2l5.99-2.61"/><path stroke="#6f6f6e" vector-effect="non-scaling-stroke" d="M168.21 296.5l-.21 1.21"/><path stroke="#dcdcce" vector-effect="non-scaling-stroke" d="M107.95 285.75c-1.12 1.2-.92 3.59-.54 4.83q.18.61.24-.02l.45-4.74q.02-.26-.15-.07"/><path stroke="#6f6f6e" vector-effect="non-scaling-stroke" d="M154.37 78.37l-.15.69a.56.56 0 00.54.69l1.18.01a.51.51 0 00.49-.65c-.33-1.13-.34-4.53-2.26-3.99a.56.55-16.8 00-.38.7l.56 1.84q.1.35.02.71"/><path stroke="#91908f" vector-effect="non-scaling-stroke" d="M152.655 80.106a1.94.72 86.3 00.594-1.982 1.94.72 86.3 00-.844-1.89 1.94.72 86.3 00-.594 1.983 1.94.72 86.3 00.844 1.889"/><path stroke="#5d5e5d" vector-effect="non-scaling-stroke" d="M207.95 76.53a.87.87 0 00-1.21.81l.01 1.62a.81.8 8.2 00.58.77c2.72.78 2.92-2.24.62-3.2"/><path stroke="#6f6f6e" vector-effect="non-scaling-stroke" d="M191.72 78.76q1.06 1.5 2.58.79a.63.63 0 00.29-.86l-.78-1.52a.63.63 0 00-.89-.25l-.94.57a.89.88-33.6 00-.26 1.27M184.21 119.03l1.22.18a.66.66 0 00.74-.55c1.98-12.95 1.77-25.85 2.32-38.9q.07-1.66-.62-2.45a.53.52 23.4 00-.92.36q.24 7.4-.43 14.7c-.71 7.75-.93 17.4-2.81 25.93a.61.6-79.8 00.5.73M202.22 78.51a1.51 1.51 0 00-1.51-1.51 1.51 1.51 0 00-1.51 1.51 1.51 1.51 0 001.51 1.51 1.51 1.51 0 001.51-1.51"/><path stroke="#91908f" vector-effect="non-scaling-stroke" d="M183.85 93.92a4.99.74 40.1 00-1.83-1.13q-9.29-4.08-19.2-8.28c-2.43-1.04-4.8-2.69-8.09-3.02a.38.37 60.9 00-.2.71l28.75 14.33a.6.59-56.6 00.71-.15q1.24-1.46-.14-2.46M199.77 99.21a1.27 1.27 0 001.79-1.35l-1.17-7.17a1.02 1.02 0 00-1.81-.47q-1.85 2.33-1.93 5.28-.06 2.21 3.12 3.71M203.43 99.67c2.01.94 1.2-7.7-.82-9.38q-.52-.43-.33.21 1.17 4.01.62 8.22a.93.92-74.3 00.53.95M239.81 111.59c-14.1-4.16-28.23-7.39-42.13-12.11a.73.73 0 00-.9.98l.31.73a1.17 1.16-3.9 00.73.63q16.49 4.87 33.11 9.27c2.98.79 5.92 1.09 8.8 1.07q1.97-.02.08-.57M245.755 116.225a1.93 1.33 85.7 001.181-2.025 1.93 1.33 85.7 00-1.47-1.825 1.93 1.33 85.7 00-1.182 2.025 1.93 1.33 85.7 001.47 1.825"/><path stroke="#6f6f6e" vector-effect="non-scaling-stroke" d="M219.92 117.23a1.56 1.55 87.1 011.65 1.5l.25 6.54a.71.7 2.4 00.63.67l1.78.18a.63.62-82.4 00.69-.53c.27-1.85-.7-7.02-1.24-8.88a.62.61 79.6 00-.64-.45c-1.1.08-7.14.08-7.41.75a.34.33 9.2 00.34.46l3.95-.24"/><path stroke="#5d5e5d" vector-effect="non-scaling-stroke" d="M275.42 116.943a3.49.87-1.1 00-3.507-.803 3.49.87-1.1 00-3.472.937 3.49.87-1.1 003.506.803 3.49.87-1.1 003.472-.937M244.279 124.58a1.65.45 2.1 00-1.632-.51 1.65.45 2.1 00-1.666.39 1.65.45 2.1 001.632.51 1.65.45 2.1 001.666-.39"/><path stroke="#6f6f6e" vector-effect="non-scaling-stroke" d="M264.2 124.39a1.61.45-1.4 00-1.621-.41 1.61.45-1.4 00-1.599.49 1.61.45-1.4 001.621.41 1.61.45-1.4 001.599-.49"/><path stroke="#91908f" vector-effect="non-scaling-stroke" d="M246.9 154.04q-4.71-2.71-8.35 1.05a1.13 1.13 0 00-.33.82l.14 9.96q.02.76.5.18L247.4 156a1.22 1.21 39.7 00-.17-1.74q-.14-.11-.33-.22"/><path stroke="#6f6f6e" vector-effect="non-scaling-stroke" d="M235.6 157.74c-3.93 4.31-2.82 15.41-2.04 20.79q.3 2.05.57-.01.34-2.6 2.05-4.6a1.5 1.49 65 00.36-1l-.35-14.95a.34.34 0 00-.59-.23"/><path stroke="#111110" vector-effect="non-scaling-stroke" d="M229.83 193.47q-1.47-.26-1.88 1.07c-2.86 9.24-10.13 21.75-5.95 31.71q1.82 4.33 5.86 7.27a.58.57-51.1 00.77-.09q.16-.19.16-.43"/><path stroke="#91908f" vector-effect="non-scaling-stroke" d="M228.79 233c12.86 9.9 28.18 16.2 43.81 22.1 35.65 13.47 73.02 24.41 106.49 40.97a.39.39 0 00.56-.34l.66-28.66a.72.71 11.1 00-.46-.68c-41.64-16.18-83.78-30.31-117.81-42.87q-3.2-1.18-6.7-3.95"/><path stroke="#111110" vector-effect="non-scaling-stroke" d="M255.34 219.57q-.26-2.74-.79-5.4-.57-2.95-.5-5.39.28-9.82.19-19.99a.33.33 0 00-.57-.22l-.63.68"/><path stroke="#91908f" vector-effect="non-scaling-stroke" d="M253.04 189.25q-.01-12.78-.12-25.57-.02-3.34-1.42-5.77a.49.49 0 00-.69-.16q-1.38.89-2.32 2.27c-7.28 10.6-12.65 22.16-18.66 33.45"/><path stroke="gray" vector-effect="non-scaling-stroke" d="M253.04 189.25q-.2 12.45-.79 21-.38 5.52 3.09 9.32M228.79 233c-12.04-10.41-4.42-26.03 1.04-39.53"/><path stroke="#5d5e5d" vector-effect="non-scaling-stroke" d="M342 220.29q6.94 3.96 13.77 8.11c2.49 1.51 4.51 3.81 6.99 5.63a.54.54 0 00.81-.67l-10.02-20.71"/><path stroke="#91908f" vector-effect="non-scaling-stroke" d="M353.55 212.65l-2.2-4.67a.55.55 0 00-.62-.3l-27.5 6.58q-.61.15 0 .3 9.6 2.28 18.77 5.73"/><path stroke="#cbcdcd" vector-effect="non-scaling-stroke" d="M353.55 212.65q-3.92 3.05-6.37 6.67a1.1 1.09-75.5 01-.8.48l-4.38.49"/><path stroke="#91908f" vector-effect="non-scaling-stroke" d="M489.5 242.71q-1.39-.49-2.77-.08a.68.68 0 00-.48.65V252a.5.5 0 00.5.5h9.96a.65.65 0 00.64-.56l.51-3.68"/><path stroke="#5d5e5d" vector-effect="non-scaling-stroke" d="M497.86 248.26l-.47-13.88a.93.93 0 00-.5-.79l-1.18-.61a1.07 1.04 14.2 01-.57-.93l-.19-13.89a.69.69 0 00-.54-.67l-4.31-1a.47.46 6.5 00-.57.45l-.03 25.77"/><path stroke="#cbcdcd" vector-effect="non-scaling-stroke" d="M497.86 248.26q-3.03-4.28-8.36-5.55"/><path stroke="#5d5e5d" vector-effect="non-scaling-stroke" d="M386.34 267.03c-2.24 34.17 2.42 64.65-6.82 96.22q-.67 2.27-1.23 6"/><path stroke="#6f6f6e" vector-effect="non-scaling-stroke" d="M378.29 369.25l-3.33 19.25"/><path stroke="#5d5e5d" vector-effect="non-scaling-stroke" d="M374.96 388.5l-1.17 7.5"/><path stroke="#6f6f6e" vector-effect="non-scaling-stroke" d="M373.79 396c-.71 3.88-3.02 10.65-.5 14"/><path stroke="#5d5e5d" vector-effect="non-scaling-stroke" d="M373.29 410l4.81 8.16"/><path stroke="#6f6f6e" vector-effect="non-scaling-stroke" d="M378.1 418.16c10.39 17.27 20.15 34.91 30.46 52.24a.53.53 0 00.83.1l.42-.44a.58.58 0 00.03-.79q-.73-.86-.52-1.59"/><path stroke="#5d5e5d" vector-effect="non-scaling-stroke" d="M409.32 467.68q2.63-10.5 3.39-20.93"/><path stroke="#6f6f6e" vector-effect="non-scaling-stroke" d="M412.71 446.75l3.58-28.75"/><path stroke="#5d5e5d" vector-effect="non-scaling-stroke" d="M416.29 418l1.67-12.75"/><path stroke="#6f6f6e" vector-effect="non-scaling-stroke" d="M417.96 405.25q2.49-15.15 2.75-30.5"/><path stroke="#5d5e5d" vector-effect="non-scaling-stroke" d="M420.71 374.75q1.99-35.72 2.25-71.5"/><path stroke="#6f6f6e" vector-effect="non-scaling-stroke" d="M422.96 303.25q.3-32.6 1.37-65.2c.07-2.13-.91-3.25-2.96-3.42a.89.88 2.1 00-.96.89l.3 14.73"/><path stroke="#5d5e5d" vector-effect="non-scaling-stroke" d="M420.71 250.25l-.24.44a.49.48-60.5 01-.66.19l-4.17-2.42a.85.84-74.4 01-.42-.75q.18-7.18-.14-14.36c-.14-3.09-6.44-5.05-8.93-5.76a.41.41 0 00-.52.39l-.09 4.77"/><path stroke="#6f6f6e" vector-effect="non-scaling-stroke" d="M405.54 232.75V240"/><path stroke="#5d5e5d" vector-effect="non-scaling-stroke" d="M405.54 240l-.12 2.04a.43.42-78.6 01-.56.38q-4.77-1.66-4.4-7.17"/><path stroke="#6f6f6e" vector-effect="non-scaling-stroke" d="M400.46 235.25l.11-9.83a.84.82 14.6 00-.45-.75l-4.58-2.42"/><path stroke="#5d5e5d" vector-effect="non-scaling-stroke" d="M395.54 222.25l-1.04-.46"/><path stroke="#91908f" vector-effect="non-scaling-stroke" d="M394.5 221.79q-.32-.47-.69-.49a.53.53 0 00-.57.51l-.49 13.65"/><path stroke="#5d5e5d" vector-effect="non-scaling-stroke" d="M392.75 235.46l-4.43-1.73"/><path stroke="#6f6f6e" vector-effect="non-scaling-stroke" d="M388.32 233.73c-.09-1.43-.51-15.97-.71-16.03a.65.65 0 00-.85.61l-.42 48.72"/><path stroke="#aaabac" vector-effect="non-scaling-stroke" d="M388.32 233.73q-1.38 11.96-.76 18.21.88 8.91-1.22 15.09M395.54 222.25l-.03.32a.51.5-69.1 00.2.46l3.03 2.2a1.27 1.26 18.2 01.52 1.02l.08 10.04a.33.33 0 00.46.31q.75-.29.66-1.35M405.54 240c2.52 1.44 1.51-5.57 1.3-6.56a.89.88 3.5 00-.6-.67q-.34-.12-.7-.02M420.71 250.25q1.3 1.7 1.36 3.81c.48 16.38-.45 32.8-.48 49.19a.45.45 0 00.54.44q.43-.08.83-.44M420.71 374.75q-.29-.57-.27-1.21a.28.28 0 00-.27-.29l-.35-.01a.46.45-88.1 00-.46.44q-.58 15.34-2.7 30.54a.64.64 0 00.41.69l.89.34M416.29 418l-1-3.99q-.18-.72-.29.02-.59 3.99-1.05 11.97-.4 6.98-2.67 20.05a.6.59-76.8 00.41.67q.5.16 1.02.03M409.32 467.68q-4.44-4.22-6.97-9.76c-.97-2.11-2.55-3.8-3.53-5.95q-1.76-3.87-2.21-4.62c-4.42-7.44-9.02-14.81-12.78-22.61q-1.95-4.02-5.73-6.58M373.29 410l.57-.98a.94.94 0 00.03-.9c-1.45-2.95.39-8.32.76-11.64a.44.44 0 00-.45-.49l-.41.01M374.96 388.5q.2.59.71.58a.7.69 6.6 00.66-.52c1.7-6.13 1.89-13.17 2.87-18.16.14-.74-.16-1.17-.91-1.15"/><path stroke="#cbcdcd" vector-effect="non-scaling-stroke" d="M394.5 221.79l-.56 13.76a.49.49 0 01-.55.46q-.43-.06-.64-.55"/><path stroke="#5d5e5d" vector-effect="non-scaling-stroke" d="M508.53 222.78c.41 4.56-.22 7.55-.05 10.61a.67.67 0 00.69.64l4.9-.12a.58.58 0 00.56-.6c-.21-6.09 1.9-9.31-5.65-10.93a.38.38 0 00-.45.4"/><path stroke="#6f6f6e" vector-effect="non-scaling-stroke" d="M344.54 232q.15 1.2-.59 1.85a1.27 1.26-64.2 01-.88.31q-1.52-.07-2.86.59"/><path stroke="#91908f" vector-effect="non-scaling-stroke" d="M340.21 234.75l-4.42.03a1.33 1.33 0 01-.94-.39l-2.41-2.47q-.52-.53-.56.21c-.28 4.65 4.3 6.54 8.16 5.62"/><path stroke="#6f6f6e" vector-effect="non-scaling-stroke" d="M340.04 237.75q5.13.1 7.67-4.25"/><path stroke="#91908f" vector-effect="non-scaling-stroke" d="M347.71 233.5l.96-3.19a.7.69 19.5 00-.4-.83q-5.06-2.12-9.48-5.4a1.79 1.77 63.8 00-.98-.34c-2.94-.13-6.44-2.3-8.38.83a.65.63-52.3 00.09.79c1.98 1.93 3.78 4.83 6.65 5.29q.89.14.27-.52-.51-.55-1.27-.79a.93.92 89.3 01-.6-.59c-.84-2.58 3.49-.53 4.14.02a.56.56 0 01.17.59l-.68 2.11a.64.64 0 00.63.83q2-.04 2.79-1.84a.56.56 0 01.77-.27q1.34.71 2.15 1.81"/><path stroke="#dedede" vector-effect="non-scaling-stroke" d="M347.71 233.5l-3.17-1.5M340.21 234.75q.72.31.94.93a.7.7 0 01-.23.79q-.63.5-.88 1.28"/><path stroke="#5d5e5d" vector-effect="non-scaling-stroke" d="M528.9 229.87l-.63 22.23a.56.56 0 00.58.58l5.74-.23a.38.38 0 00.37-.45q-1.8-9.81-1.14-19.8a2.44 2.43-86.4 00-2.28-2.59l-2.2-.14a.41.41 0 00-.44.4"/><path stroke="#91908f" vector-effect="non-scaling-stroke" d="M457.243 243.4a.67.67 0 00-.672-.67l-10.54.02a.67.67 0 00-.668.67l.014 8.52a.67.67 0 00.672.67l10.54-.02a.67.67 0 00.668-.67l-.014-8.52"/><path stroke="#6f6f6e" vector-effect="non-scaling-stroke" d="M515.71 352.5c.11-15.49 3.52-32-12.96-40.54"/><path stroke="#5d5e5d" vector-effect="non-scaling-stroke" d="M502.75 311.96q-11.84-6.74-23.49.04a.36.36 0 00-.05.58c16.78 14.24 28.85 30.16 35.89 51.2q.16.48.22-.02.72-5.61.39-11.26"/><path stroke="#aaabac" vector-effect="non-scaling-stroke" d="M502.75 311.96c-.83.29-.66 1.08-.08 1.51 7.29 5.35 11.82 9.33 11.36 18.67q-.02.51.16 1 .73 1.9-.12 3.7a1.29 1.29 0 00-.08.93l.69 2.33a1.71 1.67 46.3 01-.01.97c-1.09 3.32-.64 7.27-.93 10.8a.78.76-74.7 00.42.75q.72.37 1.55-.12"/><path stroke="#6f6f6e" vector-effect="non-scaling-stroke" d="M107.41 106.34c-1.92-.79-2.91 1.09-1.82 2.4a.65.65 0 001.01-.01l1.08-1.35a.67.67 0 00-.27-1.04"/><path stroke="#cbcdcd" vector-effect="non-scaling-stroke" d="M251.81 190.81q-.16-8.83.44-17.54a.72.71-6.1 00-.91-.73l-10.92 3.15a1.08 1.06 3.3 00-.7.61q-5.02 11.88-7.19 15.26-3.2 4.99-4.82 10.47a.6.6 0 00.77.73l22.57-7.98a.94.93-5.8 00.62-.75q.18-1.14.14-3.22"/><path stroke="#5d5e5d" vector-effect="non-scaling-stroke" d="M138.96 264q-7.15 12.23-13.28 24.99c-.79 1.65-2.53 3.46-3 5.76q-.11.51.3.18 8.32-6.79 17.73-11.93"/><path stroke="#111110" vector-effect="non-scaling-stroke" d="M140.71 283q-.07.22.02.44a.54.54 0 00.68.31q2.95-.99 9.28-4.55 12.4-6.96 32.02-14.43a.87.85-7.6 00.55-.7q.04-.3-.05-.57"/><path stroke="#91908f" vector-effect="non-scaling-stroke" d="M183.21 263.5l1.57-.69q.41-.18.03-.42-.84-.53-1.62-.63-20.06-2.72-40.15-5.68a.77.76 19.5 00-.76.36q-2.13 3.62-3.32 7.56"/><path stroke="gray" vector-effect="non-scaling-stroke" d="M183.21 263.5q-22.16 7.17-42.21 19.04"/><path stroke="#cbcdcd" vector-effect="non-scaling-stroke" d="M141 282.54c-2.93-2.84-.58-13.96-2.04-18.54"/><path stroke="#4c4d4e" vector-effect="non-scaling-stroke" d="M140.71 283l.29-.46"/><path stroke="#91908f" vector-effect="non-scaling-stroke" d="M190.93 345.24l-1.06.26a.43.41-9.8 00-.32.44l.31 4.71a.94.93 70.3 01-.38.81c-3.84 2.75-8.44 4.59-9.84 9.81a.54.53-71.2 00.3.62l8.79 3.88a.5.5 0 00.65-.24c2.87-5.87 6.2-12.6 6.34-19.25.2-9.68-1.85-19.17-4.19-31.69-.85-4.6-7.72-8.4-11.67-10.08a.48.47 84.9 00-.58.7q2.52 3.88 6.09 6.97c5.49 4.75 7.34 18.76 9.13 26.89a1.47 1.46-36.4 01-.16 1.04l-2.59 4.52a1.3 1.3 0 01-.82.61M151.95 370.96l8.94 1.01a.57.56 14.2 00.59-.35q.99-2.5-1.37-2.81a.72.71-86.4 01-.62-.71c.06-11.55 1.2-20.75-1.94-28.12q-.2-.46-.37.01c-1.56 4.34-.81 8.54-2.15 12.62q-2.62 7.95-4.43 16.46a1.57 1.57 0 001.35 1.89M199.132 366.135a4.14.67 87.2 00.467-4.168 4.14.67 87.2 00-.871-4.102 4.14.67 87.2 00-.467 4.168 4.14.67 87.2 00.871 4.102M166.85 375.55c4.01.67 18.52 2.04 18.62-4.49a1.2 1.2 0 00-.35-.87q-3.63-3.51-8.69-2.28c-1.97.49-10.38 3.43-10.84 5.82a1.55 1.55 0 001.26 1.82M189.93 403.69l2.29.25a.5.49-81.1 00.54-.4q3.37-16.64 4.92-33.55a.79.79 0 00-.37-.75q-2.27-1.45-4.08.52-5.49 5.98-12.2 15.86-.29.43-.33.94l-1.47 20a.5.49-18.3 00.82.41c6.33-5.39 9.79 4.18 11.6 8.25q.38.86.72-.02.88-2.23 1.28-4.61a1.5 1.47 74.7 01.47-.85q.14-.13.32-.24.43-.25-.05-.39-3.83-1.12-5.01-4.74a.52.52 0 01.55-.68"/><path stroke="#8f8f80" vector-effect="non-scaling-stroke" d="M121.8 423.5l27.66 3.05a.74.73-74.6 00.75-.43c3.3-7.37 7.76-13.92 11.19-21.18q.9-1.9.78-4.07c-.28-5.1-.2-10.29-.74-15.36-.28-2.58.64-4.78-.84-7.43a1.08 1.08 0 00-.74-.52c-2.46-.4-9.71-1.86-11.33.48-3.93 5.69-10.2 4.85-15.42 1.71a.79.79 0 00-1.18.49l-10.44 42.81a.36.36 0 00.31.45"/><path stroke="#6f6f6e" vector-effect="non-scaling-stroke" d="M121.71 460q.34.31.31.88a.53.53 0 01-.54.5q-3.13-.07-3.69 3.11a.56.56 0 00.4.64q1.26.36 2.12-1.1 2-3.41 6.14-5.63a1.91 1.85.8 00.7-.66q1.15-1.91 3.21-3.36 3.37-2.37 5.57-6.36"/><path stroke="#5d5e5d" vector-effect="non-scaling-stroke" d="M135.93 448.02l-1.18-1.57a.76.76 0 01-.05-.86c1.97-3.2 5.45-7.34 8.43-3.46a.43.43 0 00.64.04q2.31-2.23 7.46-5.93 1.8-1.29.82-3.38a1 .99-8.6 00-.78-.57l-19.23-2.38q-.65-.08-.33.49c6.99 12.53-10.03 23.63-19.24 27.78q-8.23 3.7-14.86 10-.36.34.13.4 2.69.31 10.74 1.73 3.08.54 4.36-2.09a.95.92-45.4 00.01-.81l-1.25-2.74a1.11 1.11 0 010-.94c1.58-3.4 6.49-6.41 10.11-3.73"/><path stroke="#aaabac" vector-effect="non-scaling-stroke" d="M135.93 448.02q-3.32 1.17-4.98 4.14a1.63 1.61 1.7 01-.71.66q-3.02 1.43-3.98 4.64a1.79 1.79 0 01-2.06 1.25q-1.9-.36-2.49 1.29"/><path stroke="#91908f" vector-effect="non-scaling-stroke" d="M114.25 430.65c2.52.57 6.47 1.08 4.44 5.11-1.75 3.46-5.67 5.39-9.41 6.6-.75.25-1.04.8-1.32 1.47a.34.34 0 00.46.43c4.64-2.32 14.71-3.44 15.77-10.48a.97.96 25.2 00-.32-.87q-4.07-3.64-9.62-2.53-.64.13 0 .27"/><path stroke="#5d5e5d" vector-effect="non-scaling-stroke" d="M95.99 438.45c4.84-2.1 7.2-5.54 12.26-7.32q.52-.18-.02-.24c-3.2-.37-10.03 5.28-12.34 7.41a.09.09 0 00.1.15M126.71 438.5l-4.31 3.77a.67.67 0 00-.07.94l1.68 1.98a.72.71-36.9 00.94.13q2.85-1.91 4.51-4.82"/><path stroke="#91908f" vector-effect="non-scaling-stroke" d="M129.46 440.5q2.48-3.1-.32-5.67a.38.38 0 00-.59.11l-1.84 3.56"/><path stroke="#cbcdcd" vector-effect="non-scaling-stroke" d="M129.46 440.5q-1.79-.41-2.75-2"/><path stroke="#91908f" vector-effect="non-scaling-stroke" d="M123.98 471.43c2.31-1.81 4.69-.57 7.39.65a.99.99 0 00.98-.1l12.4-8.77a1.59 1.55 81.6 00.61-.84c1.38-4.47 4.84-13.43 10.46-13.67a.74.73-82 00.67-.51q1.7-5.14 1.22-10.72-.26-3.02-2.55-1.03c-6.42 5.56-11.82 11.46-18.58 16.79-8.73 6.89-16.25 15.1-21.64 24.92a1.2 1.17 51.9 00-.1.91l.99 3.45a.42.42 0 00.68.21l3.4-2.84a1.13 1.13 0 00.41-.87q-.01-4.68 3.66-7.58"/><path stroke="#6f6f6e" vector-effect="non-scaling-stroke" d="M139.91 442.97q-1.54 1.86-1.9 4.21-.17 1.11.62.32l2.92-2.93a.7.7 0 00.08-.89l-.45-.66a.8.79-42.7 00-1.27-.05"/><path stroke="#91908f" vector-effect="non-scaling-stroke" d="M153.91 463.16a4.63 2.22 108.9 003.6-3.66 4.63 2.22 108.9 00-.6-5.1 4.63 2.22 108.9 00-3.6 3.66 4.63 2.22 108.9 00.6 5.1M127.15 484.754a3.74 1.95 100.8 002.615-3.309 3.74 1.95 100.8 00-1.214-4.039 3.74 1.95 100.8 00-2.616 3.309 3.74 1.95 100.8 001.214 4.039"/></g><path d="M0 0h590.06l.19.29v589.23a.81.8-89.7 01-.81.81l-51.33-.34a1.2 1.19-60.7 00-.63.18q-.21.12-.48.12-264.47-.04-528.94-.26-3.78 0-7.56.01l-.5-.1V0zm586.25 4.52a.27.27 0 00-.27-.27H4.52a.27.27 0 00-.27.27V586a.27.27 0 00.27.27h581.46a.27.27 0 00.27-.27V4.52z"/><path fill="#22211f" d="M590.06 0h.94v587.56c-.84-.45-.25-537.29-.25-587.06a.25.24-86.1 00-.21-.25q-.17-.02-.29.04l-.19-.29z"/><path fill="#bcbcbc" d="M590.25.29q.12-.06.29-.04a.25.24-86.1 01.21.25c0 49.77-.59 586.61.25 587.06V591h-26.56q-25.88-.63-51.75 0h-.25q-14.38-.63-28.75 0H31.44q-2.75-.63-5.5 0h-1.5q-3.38-.63-6.75 0h-2.5l-14.55-.31a.26.25-81 01-.23-.33l.09-.32q3.78-.01 7.56-.01 264.47.22 528.94.26.27 0 .48-.12a1.2 1.19-60.7 01.63-.18l51.33.34a.81.8-89.7 00.81-.81V.29z"/><path fill="#fcfce0" d="M586.25 586a.27.27 0 01-.27.27H4.52a.27.27 0 01-.27-.27V4.52a.27.27 0 01.27-.27h581.46a.27.27 0 01.27.27V586zM15.23 39.25c.01 14.02-.22 28.28.3 42.28a1.12 1.12 0 001.69.92q1.2-.72 2.24-1.75 30.96-30.66 61.31-61.93 1.29-1.33 1.94-3.17a.66.66 0 00-.61-.88q-24.39-.55-48.65.63c-13.29.64-18.22 11.94-18.22 23.9zm130.02 40.79l.05 1.13c-13.85 4.27-23.12 14.09-33.42 23.75a.73.73 0 01-1.21-.34l-.32-1.13a.83.83 0 00-.74-.6l-6.28-.42a.56.56 0 00-.59.54l-.28 9.03-.92.5c-12.15 10.47-27.96 11.62-42.48 13.27q-1.4.16-2.2 1.06-.37.41.18.35 14.58-1.6 29.05-3.69c3.59-.52 6.82-2.54 10.63-3.29q-3.96 2.95-7.39 4.17-9.03 3.21-15.77 7.13a.81.8 77.8 00-.41.65l-.26 4.15a1.31 1.31 0 01-.51.95c-9.52 7.38-19.67 13.64-29.06 21.33q-1.73 1.42-2.27 2.4-.96 1.73.98 1.34c15.51-3.06 31.32-6.42 46.97-7.2q.5-.03.17.35-3.5 4-6.64 8.31-4.71 6.45-15.59 14.4-2.19 1.6-3.68 4.52a.72.72 0 00.22.9l.75.55a.65.65 0 01.23.75c-2.04 5.86-16.43 11.66-22.28 18.77a.93.93 0 00-.17.87q.32 1.04 1.6.95a.88.87-22 01.75.31q1.46 1.72 3.38.95 5.69-2.27 12.71-6.54c14.88-9.04 30.61-16.7 44.86-26.87q7.04-5.02 7.54-13.36a1.1 1.09 24.5 00-.32-.84l-.95-.93a.47.46 52.8 01.1-.74l26.26-14.49a1.08 1.07-45.3 011.02-.01c5.02 2.63-4.63 8.35-6.1 9.37a.88.88 0 00.3 1.57c7.38 1.79 9.25-1.87 15.16-4.86 3.13-1.59 7.7-1.02 10.37-2.35 10.34-5.16 18.4-9.92 31.03-13.72 2.27-.68 3.89-.31 5.16 1.66a1.17 1.17 0 01.15.97q-.52 1.9-1.97 3.25a1.7 1.7 0 00-.49.8l-1.6 5.71a1.57 1.57 0 01-1.4 1.14l-12.04.89a1.65 1.62-64 00-.84.3c-4.54 3.25-8.69 6.69-13.49 9.48q-28.3 16.47-54.72 35.8c-10.85 7.94-22.47 15.58-33.44 23.78-6.47 4.83-11.17 10.61-18.35 14.83q-10.09 5.94-19.13 13.11a.42.41-65.2 00.27.74q3.34-.11 6.39-.59 27.55-4.32 53-15.68.25-.11.49.04.45.29-.02.54l-4.91 2.52a.9.9 0 00-.33 1.32c1.1 1.6 2.99 1.43 4.64.54q19.21-10.31 37.73-21.79c16.74-10.37 33.89-19.69 51.08-29.11 3-1.64 5.71-3.98 8.26-6.52q6.32-6.28 14.39-10.29a.42.41 69.7 01.59.28l.32 1.3-.17 8.5c-.5 17.15-2.93 34.03-5.04 51.05-.28 2.19-.91 5.22-1.11 7.88a.44.44 0 00.45.47l13.4-.34a.48.48 0 01.49.47q.04 14.04.02 28.07c-.03 14.47 39.52 36.76 51.5 43.19q17.94 10.24 36.3 19.7c23.2 11.94 45.71 25.47 67.95 39.14a1 .99 21.9 01.46 1.06q-4.28 19.6-7.53 39.59c-.2 1.24.73 3.49 1.38 4.59q17.84 30.58 35.61 61.2 2.6 4.47 5.69 8.94a2.01 2.01 0 002.43.71c1.47-.61 3.05-1.23 4.77-1.22q18.45.15 36.28-.58a1.92 1.92 0 011.98 1.65q3.73 26.06 8 51.87c.58 3.5.4 6.64 2.15 9.8q6.4 11.54 14.86 21.67c5.77 6.91 15.1 9.6 23.33 12.27 8.77 2.86 18.86 4.59 28.35 6.39 4.63.88 7.26-2.88 7.72-7.14q3.03-28.37 6.49-56.68 1.3-10.68.93-21.38.43-3.31.66-6.57c.36-5.21 2.45-9.41 4.88-13.61q5.24-9.02 8.4-15.55 5.97-12.3 12.23-24.48 5.22-7.64 4.39-16.13c-.41-4.23-2.88-4.49-5.6-6.87a1.35 1.34-73.6 01-.45-.83c-2.05-14.61-4.48-29.13-5.08-44.08q-1.21-30.29-2.35-60.57c-.86-22.94-2.17-45.81-2.66-68.77-.05-2.13.67-5.05.08-7.66a.99.99 0 00-.57-.69q-4.68-2.07-9.72-2.8-2.39-.35-4.48-1.39c-6.15-3.09-13.07-5.28-20.05-4.04a.75.75 0 00-.62.73l-.19 7.53a.62.62 0 01-.61.6l-4.51.09a.62.62 0 01-.63-.62l-.06-11.67a.87.86-76.5 00-.47-.77c-2.65-1.41-9.01-4.29-12.78-3.85a.64.63-2.2 00-.57.6l-.65 14.44a.68.68 0 01-.9.61l-4.24-1.4a1.71 1.7-79.3 01-1.16-1.71c.17-3.03 1.11-12.88-.17-15.12-2.44-4.27-17.39-2.98-20.97-3a.47.47 0 00-.48.46l-.34 15.02a.75.74.4 01-.75.73h-8.1a.63.63 0 01-.63-.63v-15.01a.65.64 90 00-.64-.65l-21.57.12a.63.62-89.5 00-.62.62l-.24 14.94a.59.58-90 01-.57.58l-8.28.23a.61.6 89.6 01-.62-.62l.14-15.28a.55.55 0 00-.55-.55h-20.78a.75.75 0 00-.75.72l-.38 11.14a.54.54 0 01-.75.48c-2.94-1.25-7.7-2.3-7.13-6.34q.28-1.94-.21-6.01a.54.54 0 00-.55-.47l-19.86.62a1.88 1.88 0 00-1.71 1.25q-.47 1.37-.57 3.6-.92 20.72-.89 42.62a1.26 1.26 0 01-1.68 1.19q-9.14-3.29-19.25-6.89c-4.26-1.52-8.83-9.58-10.97-13.46q-.24-.45.24-.28 10.24 3.53 14.75 4.33 4.56.8 5.66-3.9a1.55 1.53-51 00-.1-1.02l-15.67-34.4a1.36 1.36 0 00-1.6-.75q-17.63 4.89-35.44 8.66c-1.79.37-2.64 1.21-3.18 2.85-1.72 5.26 9.99 11.69 13.7 13.14a1.14 1.11.3 01.64.63l3.02 7.37q.24.57-.36.44l-12.26-2.7a1.56 1.54-12.6 01-.88-.55c-2.43-3.16-9.25-8.85-7.41-12.91.76-1.68 1.92-7.89-1.01-8.24a.51.51 0 00-.57.45c-.1.8.03 2.52-1.24 2.48a.91.89 75.8 01-.74-.45l-2.7-4.74a1 1 0 00-1.84.23q-.5 1.84.73 3.16a.1.1 0 01-.05.16l-.28.1a.41.39-29.4 01-.42-.11q-1.78-1.91-2.6-2.35-.67-.37-1.12-.17a.7.68 75.4 00-.4.7l.12 1.22a.59.58 80.4 01-.44.63l-1.12.28a.74.73-10.2 00-.55.78l.31 3.71a1.19 1.18 18 00.42.81q8.98 7.42 14.91 17.48.07.11-.06.07l-25.37-8.48a.49.49 0 01-.34-.52l.14-1.81c.43-1.19.85-2.39.64-3.7q-2.84-17.66-5.02-35.43c-.77-6.24-.83-13.04-1.32-19.59a1.44 1.37 62.5 01.26-.91q5.45-7.39 13.04-12.69l.74 2.01a1.13 1.13 0 00.65.65c4.49 1.67 8.65 3.35 12.7 6.15 7.09 4.9 16.07 12.51 24.35 14.26q10.58 2.23 21.2 4.33c5 .99 8.14 2.6 12.35 5.13 9.45 5.67 22.41 7.77 33.25 9.95 1.19.24 2.45.81 3.6-.06q.42-.33-.08-.5c-4.25-1.52-8.46-4.57-11.46-6.12q-30.1-15.65-59.72-32.2c-6.75-3.77-12.63-9.1-18.81-13.84-3.44-2.64-10.14-5.1-13.79-1.69.04-3.12.72-8.04-1.18-10.63-3.68-5.01-11.82-7.54-16.86-9.41-3.32-.89-1.46-5.69-2.61-8.56a.87.87 0 00-.68-.53q-4.41-.66-8.86-.3a1.38 1.38 0 00-.96.51q-2.38 2.92-2.31 6.64a.51.51 0 01-.56.52l-.37-.03a.57.56 6.4 01-.51-.63q.39-3.51-1.63-6.42a1.12 1.1 74.1 00-.85-.48c-5.18-.36-11.24.68-16.15-.75q-13.59-3.95-27.22-7.78c-2.22-.63-3.29.39-3.48-2.9q-.66-11.83-.99-23.7a.78.78 0 00-.48-.69c-2.46-1.02-4.72-2.77-7.07-.28a.5.5 0 01-.68.04q-3.42-2.94-6.23.31a.48.46-45.8 01-.7.02q-2.02-2.14-5.1-1.54a1.67 1.65 16.3 00-.87.47q-1.15 1.15-2.19-.08a1.27 1.25-18.1 00-.9-.45l-2.16-.12a.66.65 4 00-.7.6l-1.21 16.1a.47.47 0 01-.65.4q-9.79-4.09-19.68-7.95c-1.81-.7-3.24-.6-3.37-3.2q-.31-6.25-.43-12.48a.6.59 0 00-.59-.58l-12.27-.13a1.92 1.92 0 00-1.93 1.78l-.7 10.17a.22.22 0 00.1.2l.24.15zm19.5 335q2.34 8.17 6.05 15.78c1.97 4.06 1.74 7.94 1.94 12.26q.11 2.58 2.33 3.63a.66.65 19.6 01.36.75l-1.03 4a1 .99 29.9 00.27.97c6.78 6.64 17.04 2.78 20.08-5.39 4.59-10.03 2.59-20.14 1.72-30.29a1.88 1.85-35.3 01.17-.94c1.57-3.26 3-7.8.41-10.96a1.03 1 31.9 01-.21-.85q3.28-15.23 4.45-30.81.13-1.63 1.11-3.68c2.8-5.88-.4-16.37-1.08-22.92-1.15-11.07-2.35-18.87-3.81-28.34-.56-3.63-1.13-7.8-3.98-10.44-4.14-3.83-9.22-6.62-13.24-9.81.14-4.16 1.37-6.63 5.14-8.88 6.22-3.73 19.29-12.9 21.11-20.12 1.66-6.87-2.13-9.09-8.28-10.06q-27.88-4.42-55.85-8.31c-1.1-.15-2.89.32-3.36 1.17q-8.65 15.44-22.76 44.39-.34.69-2.46 4.36c-3.45 5.98-2.3 13.82 5.68 13.94q10.43.17 24.27-4.8a.34.34 0 01.45.33c-.46 10.4-.2 22.25-2.94 32.29-2.66 9.76-4.92 18.64-9.6 27.67q-.73 1.41-2.44 2.79a1.45 1.44 79.2 00-.48.71q-7.3 24.33-12.25 49.24a1.02 1.01-9.4 01-.49.68q-4.78 2.72-9.96 4.44c-4.07 1.35-9 4.81-11.79 7.02q-5.55 4.39-6.28 11.85a1.29 1.27 72.4 01-.42.83c-3.18 2.9-6.68 5.33-9.36 8.83-4.62 5.99-10.33 7.01-8.78 16.4.42 2.52.58 4.48 3.06 5.24q11.4 3.49 30.27 8.58c4.29 1.15 12.85 3.98 16.24.07a.5.5 0 01.78.02q.37.47.52 1.08.12.48.46.84 1.86 1.96 4.44 1.75c5.8-.47 6.48-8.26 7.4-12.34a1.21 1.2-8.1 01.59-.78q7.15-4.02 13.49-9.25a1.01 1.01 0 011.35.05c6.59 6.36 11.78-2.75 12.32-8.22q1.02-10.35 1.63-13.32c1.75-8.49 1.92-13.87-6.01-19a.57.57 0 01-.19-.76l7.1-13.03a.58.57-59.1 01.82-.21q.82.54 1.04 1.55zm-56.8-129.29c-1.12 1.2-.92 3.59-.54 4.83q.18.61.24-.02l.45-4.74q.02-.26-.15-.07z"/><path fill="#f8e2aa" d="M15.53 81.53c-.52-14-.29-28.26-.3-42.28 0-11.96 4.93-23.26 18.22-23.9q24.26-1.18 48.65-.63a.66.66 0 01.61.88q-.65 1.84-1.94 3.17Q50.42 50.04 19.46 80.7q-1.04 1.03-2.24 1.75a1.12 1.12 0 01-1.69-.92z"/><path fill="#22211f" d="M280 121.71l-.5 1c-1.77-1.3-1.19 3.14-1.03 3.64a.97.95.2 00.63.62c2.26.67 7.87 3.16 7.69 6.05-.33 5.17-4.42 5.85-7.65 8.62a.96.95-23.1 00-.33.8l.53 6.61a.35.34-15.2 00.5.28l1.16-.54c1.7 2.07 10.17-3.88 11.62-5.41q1.27-1.35 2.92-2.11a.72.71-19.9 01.99.46q.88 3.18 0 6.35a1.56 1.52-9.9 01-.62.86q-8.15 5.45-13.41 12.29c-1.32 1.72-3.6 3.42-4.06 5.14-.57 2.18.32 4.63.32 6.52.01 5.38.06 10.61.93 16.02.99 6.2 1.97 11.62 2.64 18.5.59 6.08 1.94 11.49 2.23 18.03q.04.74.9.56l-.14 1.81a.49.49 0 00.34.52l25.37 8.48q.13.04.06-.07-5.93-10.06-14.91-17.48a1.19 1.18 18 01-.42-.81l-.31-3.71a.74.73-10.2 01.55-.78l1.12-.28a.59.58 80.4 00.44-.63l-.12-1.22a.7.68 75.4 01.4-.7q.45-.2 1.12.17.82.44 2.6 2.35a.41.39-29.4 00.42.11l.28-.1a.1.1 0 00.05-.16q-1.23-1.32-.73-3.16a1 1 0 011.84-.23l2.7 4.74a.91.89 75.8 00.74.45c1.27.04 1.14-1.68 1.24-2.48a.51.51 0 01.57-.45c2.93.35 1.77 6.56 1.01 8.24-1.84 4.06 4.98 9.75 7.41 12.91a1.56 1.54-12.6 00.88.55l12.26 2.7q.6.13.36-.44l-3.02-7.37a1.14 1.11.3 00-.64-.63c-3.71-1.45-15.42-7.88-13.7-13.14.54-1.64 1.39-2.48 3.18-2.85q17.81-3.77 35.44-8.66a1.36 1.36 0 011.6.75l15.67 34.4a1.55 1.53-51 01.1 1.02q-1.1 4.7-5.66 3.9-4.51-.8-14.75-4.33-.48-.17-.24.28c2.14 3.88 6.71 11.94 10.97 13.46q10.11 3.6 19.25 6.89a1.26 1.26 0 001.68-1.19q-.03-21.9.89-42.62.1-2.23.57-3.6a1.88 1.88 0 011.71-1.25l19.86-.62a.54.54 0 01.55.47q.49 4.07.21 6.01c-.57 4.04 4.19 5.09 7.13 6.34a.54.54 0 00.75-.48l.38-11.14a.75.75 0 01.75-.72h20.78a.55.55 0 01.55.55l-.14 15.28a.61.6 89.6 00.62.62l8.28-.23a.59.58-90 00.57-.58l.24-14.94a.63.62-89.5 01.62-.62l21.57-.12a.65.64-90 01.64.65v15.01a.63.63 0 00.63.63h8.1a.75.74.4 00.75-.73l.34-15.02a.47.47 0 01.48-.46c3.58.02 18.53-1.27 20.97 3 1.28 2.24.34 12.09.17 15.12a1.71 1.7-79.3 001.16 1.71l4.24 1.4a.68.68 0 00.9-.61l.65-14.44a.64.63-2.2 01.57-.6c3.77-.44 10.13 2.44 12.78 3.85a.87.86-76.5 01.47.77l.06 11.67a.62.62 0 00.63.62l4.51-.09a.62.62 0 00.61-.6l.19-7.53a.75.75 0 01.62-.73c6.98-1.24 13.9.95 20.05 4.04q2.09 1.04 4.48 1.39 5.04.73 9.72 2.8a.99.99 0 01.57.69c.59 2.61-.13 5.53-.08 7.66.49 22.96 1.8 45.83 2.66 68.77q1.14 30.28 2.35 60.57c.6 14.95 3.03 29.47 5.08 44.08a1.35 1.34-73.6 00.45.83c2.72 2.38 5.19 2.64 5.6 6.87q.83 8.49-4.39 16.13-1.87-.19-2.81-.45c-22.31-6.39-46.58-16.12-52.55-41.71q-2.7-17.45-3.73-21.75c-5.33-22.3-19.14-43.95-38.36-58.45a.84.83 49.9 00-.86-.08c-9.59 4.77-8.92 20.91-8.89 32.79q.37 33.07.45 66.18.01 2.5.68 4.85c8.82 41.63 38.33 69.99 79.9 78.83q.37 10.7-.93 21.38-3.46 28.31-6.49 56.68c-.46 4.26-3.09 8.02-7.72 7.14-9.49-1.8-19.58-3.53-28.35-6.39-8.23-2.67-17.56-5.36-23.33-12.27q-8.46-10.13-14.86-21.67c-1.75-3.16-1.57-6.3-2.15-9.8q-4.27-25.81-8-51.87a1.92 1.92 0 00-1.98-1.65q-17.83.73-36.28.58c-1.72-.01-3.3.61-4.77 1.22a2.01 2.01 0 01-2.43-.71q-3.09-4.47-5.69-8.94-17.77-30.62-35.61-61.2c-.65-1.1-1.58-3.35-1.38-4.59q3.25-19.99 7.53-39.59a1 .99 21.9 00-.46-1.06c-22.24-13.67-44.75-27.2-67.95-39.14q-18.36-9.46-36.3-19.7l.87-.14a.32.31 55.2 00.1-.58c-17.79-10.6-39.17-22.06-50.24-39.63a1.7 1.7 0 01-.27-.92c-.01-2.56-.58-5.08-.44-7.52q.61-11.43-.09-22.52a1.2 1.2 0 00-1.13-1.12l-11.13-.58a1.79 1.78 5.3 01-1.67-2q2.53-20.18 5.03-39.07c.3-2.25-.83-4.77 1.25-7.07a1.1 1.09 63.6 00.28-.85c-.26-2.73-.51-9.99-2.27-8.79l.17-8.5.75-26 .25-16.5.01-4.71a.52.52 0 00-.51-.52q-11.45-.07-22.9.03-2.69.02-3.96-.46a.74.73 12.9 01-.47-.74l.81-9.97a1.58 1.56-77.6 00-1.02-1.61Q170 102.9 158.81 95.94q-2.43-1.51-8-4.02-.46-.2-.95-.17l-2.66.19a.56.56 0 01-.59-.62c.22-2.06 1.91-20.98.82-21.1a.39.39 0 00-.42.41c.07 1.75.2 8.7-1.76 9.41l-.24-.15a.22.22 0 01-.1-.2l.7-10.17a1.92 1.92 0 011.93-1.78l12.27.13a.6.59 0 01.59.58q.12 6.23.43 12.48c.13 2.6 1.56 2.5 3.37 3.2q9.89 3.86 19.68 7.95a.47.47 0 00.65-.4l1.21-16.1a.66.65 4 01.7-.6l2.16.12a1.27 1.25-18.1 01.9.45q1.04 1.23 2.19.08a1.67 1.65 16.3 01.87-.47q3.08-.6 5.1 1.54a.48.46-45.8 00.7-.02q2.81-3.25 6.23-.31a.5.5 0 00.68-.04c2.35-2.49 4.61-.74 7.07.28a.78.78 0 01.48.69q.33 11.87.99 23.7c.19 3.29 1.26 2.27 3.48 2.9q13.63 3.83 27.22 7.78c4.91 1.43 10.97.39 16.15.75a1.12 1.1 74.1 01.85.48q2.02 2.91 1.63 6.42a.57.56 6.4 00.51.63l.37.03a.51.51 0 00.56-.52q-.07-3.72 2.31-6.64a1.38 1.38 0 01.96-.51q4.45-.36 8.86.3a.87.87 0 01.68.53c1.15 2.87-.71 7.67 2.61 8.56zM154.37 78.37l-.15.69a.56.56 0 00.54.69l1.18.01a.51.51 0 00.49-.65c-.33-1.13-.34-4.53-2.26-3.99a.56.55-16.8 00-.38.7l.56 1.84q.1.35.02.71zm-1.715 1.736a1.94.72 86.3 00.594-1.982 1.94.72 86.3 00-.844-1.89 1.94.72 86.3 00-.594 1.983 1.94.72 86.3 00.844 1.889zm55.295-3.576a.87.87 0 00-1.21.81l.01 1.62a.81.8 8.2 00.58.77c2.72.78 2.92-2.24.62-3.2zm-16.23 2.23q1.06 1.5 2.58.79a.63.63 0 00.29-.86l-.78-1.52a.63.63 0 00-.89-.25l-.94.57a.89.88-33.6 00-.26 1.27zm-7.51 40.27l1.22.18a.66.66 0 00.74-.55c1.98-12.95 1.77-25.85 2.32-38.9q.07-1.66-.62-2.45a.53.52 23.4 00-.92.36q.24 7.4-.43 14.7c-.71 7.75-.93 17.4-2.81 25.93a.61.6-79.8 00.5.73zm18.01-40.52a1.51 1.51 0 00-1.51-1.51 1.51 1.51 0 00-1.51 1.51 1.51 1.51 0 001.51 1.51 1.51 1.51 0 001.51-1.51zm-18.37 15.41a4.99.74 40.1 00-1.83-1.13q-9.29-4.08-19.2-8.28c-2.43-1.04-4.8-2.69-8.09-3.02a.38.37 60.9 00-.2.71l28.75 14.33a.6.59-56.6 00.71-.15q1.24-1.46-.14-2.46zm15.92 5.29a1.27 1.27 0 001.79-1.35l-1.17-7.17a1.02 1.02 0 00-1.81-.47q-1.85 2.33-1.93 5.28-.06 2.21 3.12 3.71zm3.66.46c2.01.94 1.2-7.7-.82-9.38q-.52-.43-.33.21 1.17 4.01.62 8.22a.93.92-74.3 00.53.95zm36.38 11.92c-14.1-4.16-28.23-7.39-42.13-12.11a.73.73 0 00-.9.98l.31.73a1.17 1.16-3.9 00.73.63q16.49 4.87 33.11 9.27c2.98.79 5.92 1.09 8.8 1.07q1.97-.02.08-.57zm5.945 4.635a1.93 1.33 85.7 001.181-2.025 1.93 1.33 85.7 00-1.47-1.825 1.93 1.33 85.7 00-1.182 2.025 1.93 1.33 85.7 001.47 1.825zm-25.835 1.005a1.56 1.55 87.1 011.65 1.5l.25 6.54a.71.7 2.4 00.63.67l1.78.18a.63.62-82.4 00.69-.53c.27-1.85-.7-7.02-1.24-8.88a.62.61 79.6 00-.64-.45c-1.1.08-7.14.08-7.41.75a.34.33 9.2 00.34.46l3.95-.24zm55.5-.287a3.49.87-1.1 00-3.507-.803 3.49.87-1.1 00-3.472.937 3.49.87-1.1 003.506.803 3.49.87-1.1 003.472-.937zm-31.141 7.638a1.65.45 2.1 00-1.632-.51 1.65.45 2.1 00-1.666.389 1.65.45 2.1 001.632.51 1.65.45 2.1 001.666-.39zm19.92-.19a1.61.45-1.4 00-1.62-.41 1.61.45-1.4 00-1.599.488 1.61.45-1.4 001.621.41 1.61.45-1.4 001.599-.488zM246.9 154.04q-4.71-2.71-8.35 1.05a1.13 1.13 0 00-.33.82l.14 9.96q.02.76.5.18L247.4 156a1.22 1.21 39.7 00-.17-1.74q-.14-.11-.33-.22zm-11.3 3.7c-3.93 4.31-2.82 15.41-2.04 20.79q.3 2.05.57-.01.34-2.6 2.05-4.6a1.5 1.49 65 00.36-1l-.35-14.95a.34.34 0 00-.59-.23zm-5.77 35.73q-1.47-.26-1.88 1.07c-2.86 9.24-10.13 21.75-5.95 31.71q1.82 4.33 5.86 7.27a.58.57-51.1 00.77-.09q.16-.19.16-.43c12.86 9.9 28.18 16.2 43.81 22.1 35.65 13.47 73.02 24.41 106.49 40.97a.39.39 0 00.56-.34l.66-28.66a.72.71 11.1 00-.46-.68c-41.64-16.18-83.78-30.31-117.81-42.87q-3.2-1.18-6.7-3.95-.26-2.74-.79-5.4-.57-2.95-.5-5.39.28-9.82.19-19.99a.33.33 0 00-.57-.22l-.63.68q-.01-12.78-.12-25.57-.02-3.34-1.42-5.77a.49.49 0 00-.69-.16q-1.38.89-2.32 2.27c-7.28 10.6-12.65 22.16-18.66 33.45zM342 220.29q6.94 3.96 13.77 8.11c2.49 1.51 4.51 3.81 6.99 5.63a.54.54 0 00.81-.67l-10.02-20.71-2.2-4.67a.55.55 0 00-.62-.3l-27.5 6.58q-.61.15 0 .3 9.6 2.28 18.77 5.73zm147.5 22.42q-1.39-.49-2.77-.08a.68.68 0 00-.48.65V252a.5.5 0 00.5.5h9.96a.65.65 0 00.64-.56l.51-3.68-.47-13.88a.93.93 0 00-.5-.79l-1.18-.61a1.07 1.04 14.2 01-.57-.93l-.19-13.89a.69.69 0 00-.54-.67l-4.31-1a.47.46 6.5 00-.57.45l-.03 25.77zm-103.16 24.32c-2.24 34.17 2.42 64.65-6.82 96.22q-.67 2.27-1.23 6l-3.33 19.25-1.17 7.5c-.71 3.88-3.02 10.65-.5 14l4.81 8.16c10.39 17.27 20.15 34.91 30.46 52.24a.53.53 0 00.83.1l.42-.44a.58.58 0 00.03-.79q-.73-.86-.52-1.59 2.63-10.5 3.39-20.93l3.58-28.75 1.67-12.75q2.49-15.15 2.75-30.5 1.99-35.72 2.25-71.5.3-32.6 1.37-65.2c.07-2.13-.91-3.25-2.96-3.42a.89.88 2.1 00-.96.89l.3 14.73-.24.44a.49.48-60.5 01-.66.19l-4.17-2.42a.85.84-74.4 01-.42-.75q.18-7.18-.14-14.36c-.14-3.09-6.44-5.05-8.93-5.76a.41.41 0 00-.52.39l-.09 4.77V240l-.12 2.04a.43.42-78.6 01-.56.38q-4.77-1.66-4.4-7.17l.11-9.83a.84.82 14.6 00-.45-.75l-4.58-2.42-1.04-.46q-.32-.47-.69-.49a.53.53 0 00-.57.51l-.49 13.65-4.43-1.73c-.09-1.43-.51-15.97-.71-16.03a.65.65 0 00-.85.61l-.42 48.72zm122.19-44.25c.41 4.56-.22 7.55-.05 10.61a.67.67 0 00.69.64l4.9-.12a.58.58 0 00.56-.6c-.21-6.09 1.9-9.31-5.65-10.93a.38.38 0 00-.45.4zM344.54 232q.15 1.2-.59 1.85a1.27 1.26-64.2 01-.88.31q-1.52-.07-2.86.59l-4.42.03a1.33 1.33 0 01-.94-.39l-2.41-2.47q-.52-.53-.56.21c-.28 4.65 4.3 6.54 8.16 5.62q5.13.1 7.67-4.25l.96-3.19a.7.69 19.5 00-.4-.83q-5.06-2.12-9.48-5.4a1.79 1.77 63.8 00-.98-.34c-2.94-.13-6.44-2.3-8.38.83a.65.63-52.3 00.09.79c1.98 1.93 3.78 4.83 6.65 5.29q.89.14.27-.52-.51-.55-1.27-.79a.93.92 89.3 01-.6-.59c-.84-2.58 3.49-.53 4.14.02a.56.56 0 01.17.59l-.68 2.11a.64.64 0 00.63.83q2-.04 2.79-1.84a.56.56 0 01.77-.27q1.34.71 2.15 1.81zm184.36-2.13l-.63 22.23a.56.56 0 00.58.58l5.74-.23a.38.38 0 00.37-.45q-1.8-9.81-1.14-19.8a2.44 2.43-86.4 00-2.28-2.59l-2.2-.14a.41.41 0 00-.44.4zm-71.657 13.53a.67.67 0 00-.672-.67l-10.54.02a.67.67 0 00-.668.67l.014 8.52a.67.67 0 00.672.67l10.54-.02a.67.67 0 00.668-.67l-.014-8.52zm58.467 109.1c.11-15.49 3.52-32-12.96-40.54q-11.84-6.74-23.49.04a.36.36 0 00-.05.58c16.78 14.24 28.85 30.16 35.89 51.2q.16.48.22-.02.72-5.61.39-11.26z"/><path fill="#979a9b" d="M210.46 125.5l-.35-1.4a.41.4-12 00-.47-.3c-.34.06-.46.37-.46.72l-.06 16.81a.71.7-81.8 00.5.68q.32.09.59-.01l-.75 26-.32-1.3a.42.41 69.7 00-.59-.28q-8.07 4.01-14.39 10.29c-2.55 2.54-5.26 4.88-8.26 6.52-17.19 9.42-34.34 18.74-51.08 29.11q-18.52 11.48-37.73 21.79c-1.65.89-3.54 1.06-4.64-.54a.9.9 0 01.33-1.32l4.91-2.52q.47-.25.02-.54-.24-.15-.49-.04-25.45 11.36-53 15.68-3.05.48-6.39.59a.42.41-65.2 01-.27-.74q9.04-7.17 19.13-13.11c7.18-4.22 11.88-10 18.35-14.83 10.97-8.2 22.59-15.84 33.44-23.78q26.42-19.33 54.72-35.8c4.8-2.79 8.95-6.23 13.49-9.48a1.65 1.62-64 01.84-.3l12.04-.89a1.57 1.57 0 001.4-1.14l1.6-5.71a1.7 1.7 0 01.49-.8q1.45-1.35 1.97-3.25a1.17 1.17 0 00-.15-.97c-1.27-1.97-2.89-2.34-5.16-1.66-12.63 3.8-20.69 8.56-31.03 13.72-2.67 1.33-7.24.76-10.37 2.35-5.91 2.99-7.78 6.65-15.16 4.86a.88.88 0 01-.3-1.57c1.47-1.02 11.12-6.74 6.1-9.37a1.08 1.07-45.3 00-1.02.01l-26.26 14.49a.47.46 52.8 00-.1.74l.95.93a1.1 1.09 24.5 01.32.84q-.5 8.34-7.54 13.36c-14.25 10.17-29.98 17.83-44.86 26.87q-7.02 4.27-12.71 6.54-1.92.77-3.38-.95a.88.87-22 00-.75-.31q-1.28.09-1.6-.95a.93.93 0 01.17-.87c5.85-7.11 20.24-12.91 22.28-18.77a.65.65 0 00-.23-.75l-.75-.55a.72.72 0 01-.22-.9q1.49-2.92 3.68-4.52 10.88-7.95 15.59-14.4 3.14-4.31 6.64-8.31.33-.38-.17-.35c-15.65.78-31.46 4.14-46.97 7.2q-1.94.39-.98-1.34.54-.98 2.27-2.4c9.39-7.69 19.54-13.95 29.06-21.33a1.31 1.31 0 00.51-.95l.26-4.15a.81.8 77.8 01.41-.65q6.74-3.92 15.77-7.13 3.43-1.22 7.39-4.17l4.21-2.91a1.02 1.01 74.7 00.44-.78l.17-4.01.92-.5.96 3.21a.44.43-20.4 00.6.27l1.48-.69c.38 3.81 16.78-10.78 17.52-11.34 6.5-4.89 11.98-9.97 20.73-11.7q.29.17.61.16a.6.6 0 00.57-.58l.37-10.16-.05-1.13c1.96-.71 1.83-7.66 1.76-9.41a.39.39 0 01.42-.41c1.09.12-.6 19.04-.82 21.1a.56.56 0 00.59.62l2.66-.19q.49-.03.95.17 5.57 2.51 8 4.02 11.19 6.96 23.61 11.58a1.58 1.56-77.6 011.02 1.61l-.81 9.97a.74.73 12.9 00.47.74q1.27.48 3.96.46 11.45-.1 22.9-.03a.52.52 0 01.51.52l-.01 4.71z"/><path fill="#bcbcbc" d="M154.35 77.66l-.56-1.84a.56.55-16.8 01.38-.7c1.92-.54 1.93 2.86 2.26 3.99a.51.51 0 01-.49.65l-1.18-.01a.56.56 0 01-.54-.69l.15-.69q.08-.36-.02-.71z"/><ellipse fill="#fff" transform="rotate(86.3 34.57 120.441)" rx="1.94" ry=".72"/><path fill="#979a9b" d="M207.95 76.53c2.3.96 2.1 3.98-.62 3.2a.81.8 8.2 01-.58-.77l-.01-1.62a.87.87 0 011.21-.81z"/><path fill="#bcbcbc" d="M191.72 78.76a.89.88-33.6 01.26-1.27l.94-.57a.63.63 0 01.89.25l.78 1.52a.63.63 0 01-.29.86q-1.52.71-2.58-.79zM184.21 119.03a.61.6-79.8 01-.5-.73c1.88-8.53 2.1-18.18 2.81-25.93q.67-7.3.43-14.7a.53.52 23.4 01.92-.36q.69.79.62 2.45c-.55 13.05-.34 25.95-2.32 38.9a.66.66 0 01-.74.55l-1.22-.18z"/><circle fill="#bcbcbc" cx="200.71" cy="78.51" r="1.51"/><path fill="#22211f" d="M145.3 81.17l-.37 10.16a.6.6 0 01-.57.58q-.32.01-.61-.16l-.07-1.5a.67.67 0 00-.99-.56c-6.7 3.65-13.38 6.23-19.78 11.24-4.93 3.86-10.68 9.91-17.41 13.86l-1.48.69a.44.43-20.4 01-.6-.27l-.96-3.21.28-9.03a.56.56 0 01.59-.54l6.28.42a.83.83 0 01.74.6l.32 1.13a.73.73 0 001.21.34c10.3-9.66 19.57-19.48 33.42-23.75zm-37.89 25.17c-1.92-.79-2.91 1.09-1.82 2.4a.65.65 0 001.01-.01l1.08-1.35a.67.67 0 00-.27-1.04z"/><path fill="#fff" d="M183.85 93.92q1.38 1 .14 2.46a.6.59-56.6 01-.71.15L154.53 82.2a.38.37 60.9 01.2-.71c3.29.33 5.66 1.98 8.09 3.02q9.91 4.2 19.2 8.28a4.99.74 40.1 011.83 1.13z"/><path fill="#bcbcbc" d="M143.75 91.75c-8.75 1.73-14.23 6.81-20.73 11.7-.74.56-17.14 15.15-17.52 11.34 6.73-3.95 12.48-10 17.41-13.86 6.4-5.01 13.08-7.59 19.78-11.24a.67.67 0 01.99.56l.07 1.5z"/><path fill="#fff" d="M199.77 99.21q-3.18-1.5-3.12-3.71.08-2.95 1.93-5.28a1.02 1.02 0 011.81.47l1.17 7.17a1.27 1.27 0 01-1.79 1.35zM202.61 90.29c2.02 1.68 2.83 10.32.82 9.38a.93.92-74.3 01-.53-.95q.55-4.21-.62-8.22-.19-.64.33-.21zM239.81 111.59q1.89.55-.08.57c-2.88.02-5.82-.28-8.8-1.07q-16.62-4.4-33.11-9.27a1.17 1.16-3.9 01-.73-.63l-.31-.73a.73.73 0 01.9-.98c13.9 4.72 28.03 7.95 42.13 12.11z"/><path fill="#bcbcbc" d="M105.59 108.74c-1.09-1.31-.1-3.19 1.82-2.4a.67.67 0 01.27 1.04l-1.08 1.35a.65.65 0 01-1.01.01z"/><path d="M101.54 112.5l-.17 4.01a1.02 1.01 74.7 01-.44.78l-4.21 2.91c-3.81.75-7.04 2.77-10.63 3.29q-14.47 2.09-29.05 3.69-.55.06-.18-.35.8-.9 2.2-1.06c14.52-1.65 30.33-2.8 42.48-13.27z"/><ellipse fill="#fff" transform="rotate(85.7 61.197 189.535)" rx="1.93" ry="1.33"/><path fill="#bcbcbc" d="M219.92 117.23l-3.95.24a.34.33 9.2 01-.34-.46c.27-.67 6.31-.67 7.41-.75a.62.61 79.6 01.64.45c.54 1.86 1.51 7.03 1.24 8.88a.63.62-82.4 01-.69.53l-1.78-.18a.71.7 2.4 01-.63-.67l-.25-6.54a1.56 1.55 87.1 00-1.65-1.5z"/><ellipse fill="#979a9b" transform="rotate(-1.1 6230.486 -14105.098)" rx="3.49" ry=".87"/><path d="M280 121.71c5.04 1.87 13.18 4.4 16.86 9.41 1.9 2.59 1.22 7.51 1.18 10.63q.63 3.54-.16 6.98a1.76 1.74 75 01-.48.84l-4.34 4.11q-7.59 5.3-13.04 12.69a1.44 1.37 62.5 00-.26.91c.49 6.55.55 13.35 1.32 19.59q2.18 17.77 5.02 35.43c.21 1.31-.21 2.51-.64 3.7q-.86.18-.9-.56c-.29-6.54-1.64-11.95-2.23-18.03-.67-6.88-1.65-12.3-2.64-18.5-.87-5.41-.92-10.64-.93-16.02 0-1.89-.89-4.34-.32-6.52.46-1.72 2.74-3.42 4.06-5.14q5.26-6.84 13.41-12.29a1.56 1.52-9.9 00.62-.86q.88-3.17 0-6.35a.72.71-19.9 00-.99-.46q-1.65.76-2.92 2.11c-1.45 1.53-9.92 7.48-11.62 5.41 6.28-3.09 12.48-7.01 15.55-13.34a1.14 1.12-43 00.04-.91c-2.31-5.88-10.85-9.08-17.09-11.83l.5-1z"/><path fill="#fff" d="M279.5 122.71c6.24 2.75 14.78 5.95 17.09 11.83a1.14 1.12-43 01-.04.91c-3.07 6.33-9.27 10.25-15.55 13.34l-1.16.54a.35.34-15.2 01-.5-.28l-.53-6.61a.96.95-23.1 01.33-.8c3.23-2.77 7.32-3.45 7.65-8.62.18-2.89-5.43-5.38-7.69-6.05a.97.95.2 01-.63-.62c-.16-.5-.74-4.94 1.03-3.64z"/><path fill="#bcbcbc" d="M210.46 125.5l-.25 16.5q-.27.1-.59.01a.71.7-81.8 01-.5-.68l.06-16.81c0-.35.12-.66.46-.72a.41.4-12 01.47.3l.35 1.4z"/><ellipse fill="#979a9b" transform="rotate(2.1 -3275.672 6681.364)" rx="1.65" ry=".45"/><ellipse fill="#bcbcbc" transform="rotate(-1.4 5223.409 -10683.892)" rx="1.61" ry=".45"/><path fill="#979a9b" d="M293.06 153.68l4.34-4.11a1.76 1.74 75 00.48-.84q.79-3.44.16-6.98c3.65-3.41 10.35-.95 13.79 1.69 6.18 4.74 12.06 10.07 18.81 13.84q29.62 16.55 59.72 32.2c3 1.55 7.21 4.6 11.46 6.12q.5.17.08.5c-1.15.87-2.41.3-3.6.06-10.84-2.18-23.8-4.28-33.25-9.95-4.21-2.53-7.35-4.14-12.35-5.13q-10.62-2.1-21.2-4.33c-8.28-1.75-17.26-9.36-24.35-14.26-4.05-2.8-8.21-4.48-12.7-6.15a1.13 1.13 0 01-.65-.65l-.74-2.01z"/><path fill="#fff" d="M246.9 154.04q.19.11.33.22a1.22 1.21 39.7 01.17 1.74l-8.54 10.05q-.48.58-.5-.18l-.14-9.96a1.13 1.13 0 01.33-.82q3.64-3.76 8.35-1.05z"/><path fill="#bcbcbc" d="M235.6 157.74a.34.34 0 01.59.23l.35 14.95a1.5 1.49 65 01-.36 1q-1.71 2-2.05 4.6-.27 2.06-.57.01c-.78-5.38-1.89-16.48 2.04-20.79z"/><path fill="#fff" d="M253.04 189.25q-.2 12.45-.79 21-.38 5.52 3.09 9.32 3.5 2.77 6.7 3.95c34.03 12.56 76.17 26.69 117.81 42.87a.72.71 11.1 01.46.68l-.66 28.66a.39.39 0 01-.56.34c-33.47-16.56-70.84-27.5-106.49-40.97-15.63-5.9-30.95-12.2-43.81-22.1-12.04-10.41-4.42-26.03 1.04-39.53 6.01-11.29 11.38-22.85 18.66-33.45q.94-1.38 2.32-2.27a.49.49 0 01.69.16q1.4 2.43 1.42 5.77.11 12.79.12 25.57zm-1.23 1.56q-.16-8.83.44-17.54a.72.71-6.1 00-.91-.73l-10.92 3.15a1.08 1.06 3.3 00-.7.61q-5.02 11.88-7.19 15.26-3.2 4.99-4.82 10.47a.6.6 0 00.77.73l22.57-7.98a.94.93-5.8 00.62-.75q.18-1.14.14-3.22z"/><path fill="#979a9b" d="M251.81 190.81q.04 2.08-.14 3.22a.94.93-5.8 01-.62.75l-22.57 7.98a.6.6 0 01-.77-.73q1.62-5.48 4.82-10.47 2.17-3.38 7.19-15.26a1.08 1.06 3.3 01.7-.61l10.92-3.15a.72.71-6.1 01.91.73q-.6 8.71-.44 17.54z"/><path d="M269 307.29c-11.98-6.43-51.53-28.72-51.5-43.19q.02-14.03-.02-28.07a.48.48 0 00-.49-.47l-13.4.34a.44.44 0 01-.45-.47c.2-2.66.83-5.69 1.11-7.88 2.11-17.02 4.54-33.9 5.04-51.05 1.76-1.2 2.01 6.06 2.27 8.79a1.1 1.09 63.6 01-.28.85c-2.08 2.3-.95 4.82-1.25 7.07q-2.5 18.89-5.03 39.07a1.79 1.78 5.3 001.67 2l11.13.58a1.2 1.2 0 011.13 1.12q.7 11.09.09 22.52c-.14 2.44.43 4.96.44 7.52a1.7 1.7 0 00.27.92c11.07 17.57 32.45 29.03 50.24 39.63a.32.31 55.2 01-.1.58l-.87.14zM255.34 219.57q-3.47-3.8-3.09-9.32.59-8.55.79-21l.63-.68a.33.33 0 01.57.22q.09 10.17-.19 19.99-.07 2.44.5 5.39.53 2.66.79 5.4z"/><path d="M229.83 193.47c-5.46 13.5-13.08 29.12-1.04 39.53q0 .24-.16.43a.58.57-51.1 01-.77.09q-4.04-2.94-5.86-7.27c-4.18-9.96 3.09-22.47 5.95-31.71q.41-1.33 1.88-1.07z"/><path fill="#fff" d="M353.55 212.65q-3.92 3.05-6.37 6.67a1.1 1.09-75.5 01-.8.48l-4.38.49q-9.17-3.45-18.77-5.73-.61-.15 0-.3l27.5-6.58a.55.55 0 01.62.3l2.2 4.67z"/><path fill="#979a9b" d="M353.55 212.65l10.02 20.71a.54.54 0 01-.81.67c-2.48-1.82-4.5-4.12-6.99-5.63q-6.83-4.15-13.77-8.11l4.38-.49a1.1 1.09-75.5 00.8-.48q2.45-3.62 6.37-6.67zM497.86 248.26q-3.03-4.28-8.36-5.55l.03-25.77a.47.46 6.5 01.57-.45l4.31 1a.69.69 0 01.54.67l.19 13.89a1.07 1.04 14.2 00.57.93l1.18.61a.93.93 0 01.5.79l.47 13.88z"/><path fill="#bcbcbc" d="M388.32 233.73q-1.38 11.96-.76 18.21.88 8.91-1.22 15.09l.42-48.72a.65.65 0 01.85-.61c.2.06.62 14.6.71 16.03z"/><path fill="#fff" d="M394.5 221.79l-.56 13.76a.49.49 0 01-.55.46q-.43-.06-.64-.55l.49-13.65a.53.53 0 01.57-.51q.37.02.69.49z"/><path fill="#979a9b" d="M394.5 221.79l1.04.46-.03.32a.51.5-69.1 00.2.46l3.03 2.2a1.27 1.26 18.2 01.52 1.02l.08 10.04a.33.33 0 00.46.31q.75-.29.66-1.35-.37 5.51 4.4 7.17a.43.42-78.6 00.56-.38l.12-2.04c2.52 1.44 1.51-5.57 1.3-6.56a.89.88 3.5 00-.6-.67q-.34-.12-.7-.02l.09-4.77a.41.41 0 01.52-.39c2.49.71 8.79 2.67 8.93 5.76q.32 7.18.14 14.36a.85.84-74.4 00.42.75l4.17 2.42a.49.48-60.5 00.66-.19l.24-.44q1.3 1.7 1.36 3.81c.48 16.38-.45 32.8-.48 49.19a.45.45 0 00.54.44q.43-.08.83-.44-.26 35.78-2.25 71.5-.29-.57-.27-1.21a.28.28 0 00-.27-.29l-.35-.01a.46.45-88.1 00-.46.44q-.58 15.34-2.7 30.54a.64.64 0 00.41.69l.89.34-1.67 12.75-1-3.99q-.18-.72-.29.02-.59 3.99-1.05 11.97-.4 6.98-2.67 20.05a.6.59-76.8 00.41.67q.5.16 1.02.03-.76 10.43-3.39 20.93-4.44-4.22-6.97-9.76c-.97-2.11-2.55-3.8-3.53-5.95q-1.76-3.87-2.21-4.62c-4.42-7.44-9.02-14.81-12.78-22.61q-1.95-4.02-5.73-6.58l-4.81-8.16.57-.98a.94.94 0 00.03-.9c-1.45-2.95.39-8.32.76-11.64a.44.44 0 00-.45-.49l-.41.01 1.17-7.5q.2.59.71.58a.7.69 6.6 00.66-.52c1.7-6.13 1.89-13.17 2.87-18.16.14-.74-.16-1.17-.91-1.15q.56-3.73 1.23-6c9.24-31.57 4.58-62.05 6.82-96.22q2.1-6.18 1.22-15.09-.62-6.25.76-18.21l4.43 1.73q.21.49.64.55a.49.49 0 00.55-.46l.56-13.76z"/><path fill="#bcbcbc" d="M395.54 222.25l4.58 2.42a.84.82 14.6 01.45.75l-.11 9.83q.09 1.06-.66 1.35a.33.33 0 01-.46-.31l-.08-10.04a1.27 1.26 18.2 00-.52-1.02l-3.03-2.2a.51.5-69.1 01-.2-.46l.03-.32z"/><path fill="#979a9b" d="M508.48 233.39c-.17-3.06.46-6.05.05-10.61a.38.38 0 01.45-.4c7.55 1.62 5.44 4.84 5.65 10.93a.58.58 0 01-.56.6l-4.9.12a.67.67 0 01-.69-.64z"/><path fill="#fff" d="M347.71 233.5l-3.17-1.5q-.81-1.1-2.15-1.81a.56.56 0 00-.77.27q-.79 1.8-2.79 1.84a.64.64 0 01-.63-.83l.68-2.11a.56.56 0 00-.17-.59c-.65-.55-4.98-2.6-4.14-.02a.93.92 89.3 00.6.59q.76.24 1.27.79.62.66-.27.52c-2.87-.46-4.67-3.36-6.65-5.29a.65.63-52.3 01-.09-.79c1.94-3.13 5.44-.96 8.38-.83a1.79 1.77 63.8 01.98.34q4.42 3.28 9.48 5.4a.7.69 19.5 01.4.83l-.96 3.19z"/><path fill="#979a9b" d="M528.9 229.87a.41.41 0 01.44-.4l2.2.14a2.44 2.43-86.4 012.28 2.59q-.66 9.99 1.14 19.8a.38.38 0 01-.37.45l-5.74.23a.56.56 0 01-.58-.58l.63-22.23z"/><path fill="#fff" d="M340.21 234.75q.72.31.94.93a.7.7 0 01-.23.79q-.63.5-.88 1.28c-3.86.92-8.44-.97-8.16-5.62q.04-.74.56-.21l2.41 2.47a1.33 1.33 0 00.94.39l4.42-.03z"/><path fill="#bcbcbc" d="M344.54 232l3.17 1.5q-2.54 4.35-7.67 4.25.25-.78.88-1.28a.7.7 0 00.23-.79q-.22-.62-.94-.93 1.34-.66 2.86-.59a1.27 1.26-64.2 00.88-.31q.74-.65.59-1.85zM405.54 232.75q.36-.1.7.02a.89.88 3.5 01.6.67c.21.99 1.22 8-1.3 6.56v-7.25zM422.96 303.25q-.4.36-.83.44a.45.45 0 01-.54-.44c.03-16.39.96-32.81.48-49.19q-.06-2.11-1.36-3.81l-.3-14.73a.89.88 2.1 01.96-.89c2.05.17 3.03 1.29 2.96 3.42q-1.07 32.6-1.37 65.2z"/><path fill="#fff" d="M489.5 242.71q5.33 1.27 8.36 5.55l-.51 3.68a.65.65 0 01-.64.56h-9.96a.5.5 0 01-.5-.5v-8.72a.68.68 0 01.48-.65q1.38-.41 2.77.08z"/><rect fill="#fff" x="-5.94" y="-4.93" transform="rotate(-.1 142130.076 -258457.682)" width="11.88" height="9.86" rx=".67"/><path fill="#22211f" d="M206.54 269l-.04-.36a.27.27 0 00-.41-.2c-1.41.89-1.7 2.41-2.45 3.41-4.8 6.33-10.97 10.58-17.22 15.3q-2.18 1.64-4.9 2.21a.35.35 0 01-.41-.4c.22-1.45 1.75-10.39.25-12.17a.51.51 0 00-.77-.01l-.59.68q-8.28 1.14-16.39 3.61-2.29 3.55-6.36 4.14-3.79.19-6.96 2.8c-1.56.24-2.29 1.12-2.2 2.76q.45 8.43 8.58 9.96 7.81 1.8 15.08-.94l.12.48a.46.46 0 00.59.31l7.83-2.58c4.02 3.19 9.1 5.98 13.24 9.81 2.85 2.64 3.42 6.81 3.98 10.44 1.46 9.47 2.66 17.27 3.81 28.34.68 6.55 3.88 17.04 1.08 22.92q-.98 2.05-1.11 3.68-1.17 15.58-4.45 30.81a1.03 1 31.9 00.21.85c2.59 3.16 1.16 7.7-.41 10.96a1.88 1.85-35.3 00-.17.94c.87 10.15 2.87 20.26-1.72 30.29l-1.04-.4a.48.48 0 00-.63.28q-3.42 8.86-12.84 6.64-2.43-.58-3.42-3.06a.83.81 54.7 01.13-.83c1.58-1.89.65-3-.9-4.65-2.7-2.88-1.2-10.07-3.26-14.45q-3.48-7.43-6.23-15.19a.99.99 0 00-.66-.62q-.58-.18-1.15.28-.22-1.01-1.04-1.55a.58.57-59.1 00-.82.21l-7.1 13.03a.57.57 0 00.19.76c7.93 5.13 7.76 10.51 6.01 19q-.61 2.97-1.63 13.32c-.54 5.47-5.73 14.58-12.32 8.22a1.01 1.01 0 00-1.35-.05q-6.34 5.23-13.49 9.25a1.21 1.2-8.1 00-.59.78c-.92 4.08-1.6 11.87-7.4 12.34q-2.58.21-4.44-1.75-.34-.36-.46-.84-.15-.61-.52-1.08a.5.5 0 00-.78-.02c-3.39 3.91-11.95 1.08-16.24-.07q-18.87-5.09-30.27-8.58c-2.48-.76-2.64-2.72-3.06-5.24-1.55-9.39 4.16-10.41 8.78-16.4 2.68-3.5 6.18-5.93 9.36-8.83a1.29 1.27 72.4 00.42-.83q.73-7.46 6.28-11.85c2.79-2.21 7.72-5.67 11.79-7.02q5.18-1.72 9.96-4.44a1.02 1.01-9.4 00.49-.68q4.95-24.91 12.25-49.24a1.45 1.44 79.2 01.48-.71q1.71-1.38 2.44-2.79c4.68-9.03 6.94-17.91 9.6-27.67 2.74-10.04 2.48-21.89 2.94-32.29a.34.34 0 00-.45-.33q-13.84 4.97-24.27 4.8c-7.98-.12-9.13-7.96-5.68-13.94q2.12-3.67 2.46-4.36 14.11-28.95 22.76-44.39c.47-.85 2.26-1.32 3.36-1.17q27.97 3.89 55.85 8.31c6.15.97 9.94 3.19 8.28 10.06zm-67.58-5q-7.15 12.23-13.28 24.99c-.79 1.65-2.53 3.46-3 5.76q-.11.51.3.18 8.32-6.79 17.73-11.93-.07.22.02.44a.54.54 0 00.68.31q2.95-.99 9.28-4.55 12.4-6.96 32.02-14.43a.87.85-7.6 00.55-.7q.04-.3-.05-.57l1.57-.69q.41-.18.03-.42-.84-.53-1.62-.63-20.06-2.72-40.15-5.68a.77.76 19.5 00-.76.36q-2.13 3.62-3.32 7.56zm51.97 81.24l-1.06.26a.43.41-9.8 00-.32.44l.31 4.71a.94.93 70.3 01-.38.81c-3.84 2.75-8.44 4.59-9.84 9.81a.54.53-71.2 00.3.62l8.79 3.88a.5.5 0 00.65-.24c2.87-5.87 6.2-12.6 6.34-19.25.2-9.68-1.85-19.17-4.19-31.69-.85-4.6-7.72-8.4-11.67-10.08a.48.47 84.9 00-.58.7q2.52 3.88 6.09 6.97c5.49 4.75 7.34 18.76 9.13 26.89a1.47 1.46-36.4 01-.16 1.04l-2.59 4.52a1.3 1.3 0 01-.82.61zm-38.98 25.72l8.94 1.01a.57.56 14.2 00.59-.35q.99-2.5-1.37-2.81a.72.71-86.4 01-.62-.71c.06-11.55 1.2-20.75-1.94-28.12q-.2-.46-.37.01c-1.56 4.34-.81 8.54-2.15 12.62q-2.62 7.95-4.43 16.46a1.57 1.57 0 001.35 1.89zm47.182-4.825a4.14.67 87.2 00.467-4.168 4.14.67 87.2 00-.871-4.102 4.14.67 87.2 00-.467 4.168 4.14.67 87.2 00.871 4.102zm-32.282 9.415c4.01.67 18.52 2.04 18.62-4.49a1.2 1.2 0 00-.35-.87q-3.63-3.51-8.69-2.28c-1.97.49-10.38 3.43-10.84 5.82a1.55 1.55 0 001.26 1.82zm23.08 28.14l2.29.25a.5.49-81.1 00.54-.4q3.37-16.64 4.92-33.55a.79.79 0 00-.37-.75q-2.27-1.45-4.08.52-5.49 5.98-12.2 15.86-.29.43-.33.94l-1.47 20a.5.49-18.3 00.82.41c6.33-5.39 9.79 4.18 11.6 8.25q.38.86.72-.02.88-2.23 1.28-4.61a1.5 1.47 74.7 01.47-.85q.14-.13.32-.24.43-.25-.05-.39-3.83-1.12-5.01-4.74a.52.52 0 01.55-.68zM121.8 423.5l27.66 3.05a.74.73-74.6 00.75-.43c3.3-7.37 7.76-13.92 11.19-21.18q.9-1.9.78-4.07c-.28-5.1-.2-10.29-.74-15.36-.28-2.58.64-4.78-.84-7.43a1.08 1.08 0 00-.74-.52c-2.46-.4-9.71-1.86-11.33.48-3.93 5.69-10.2 4.85-15.42 1.71a.79.79 0 00-1.18.49l-10.44 42.81a.36.36 0 00.31.45zm-.09 36.5q.34.31.31.88a.53.53 0 01-.54.5q-3.13-.07-3.69 3.11a.56.56 0 00.4.64q1.26.36 2.12-1.1 2-3.41 6.14-5.63a1.91 1.85.8 00.7-.66q1.15-1.91 3.21-3.36 3.37-2.37 5.57-6.36l-1.18-1.57a.76.76 0 01-.05-.86c1.97-3.2 5.45-7.34 8.43-3.46a.43.43 0 00.64.04q2.31-2.23 7.46-5.93 1.8-1.29.82-3.38a1 .99-8.6 00-.78-.57l-19.23-2.38q-.65-.08-.33.49c6.99 12.53-10.03 23.63-19.24 27.78q-8.23 3.7-14.86 10-.36.34.13.4 2.69.31 10.74 1.73 3.08.54 4.36-2.09a.95.92-45.4 00.01-.81l-1.25-2.74a1.11 1.11 0 010-.94c1.58-3.4 6.49-6.41 10.11-3.73zm-7.46-29.35c2.52.57 6.47 1.08 4.44 5.11-1.75 3.46-5.67 5.39-9.41 6.6-.75.25-1.04.8-1.32 1.47a.34.34 0 00.46.43c4.64-2.32 14.71-3.44 15.77-10.48a.97.96 25.2 00-.32-.87q-4.07-3.64-9.62-2.53-.64.13 0 .27zm-18.26 7.8c4.84-2.1 7.2-5.54 12.26-7.32q.52-.18-.02-.24c-3.2-.37-10.03 5.28-12.34 7.41a.09.09 0 00.1.15zm30.72.05l-4.31 3.77a.67.67 0 00-.07.94l1.68 1.98a.72.71-36.9 00.94.13q2.85-1.91 4.51-4.82 2.48-3.1-.32-5.67a.38.38 0 00-.59.11l-1.84 3.56zm-2.73 32.93c2.31-1.81 4.69-.57 7.39.65a.99.99 0 00.98-.1l12.4-8.77a1.59 1.55 81.6 00.61-.84c1.38-4.47 4.84-13.43 10.46-13.67a.74.73-82 00.67-.51q1.7-5.14 1.22-10.72-.26-3.02-2.55-1.03c-6.42 5.56-11.82 11.46-18.58 16.79-8.73 6.89-16.25 15.1-21.64 24.92a1.2 1.17 51.9 00-.1.91l.99 3.45a.42.42 0 00.68.21l3.4-2.84a1.13 1.13 0 00.41-.87q-.01-4.68 3.66-7.58zm15.93-28.46q-1.54 1.86-1.9 4.21-.17 1.11.62.32l2.92-2.93a.7.7 0 00.08-.89l-.45-.66a.8.79-42.7 00-1.27-.05zm14 20.19a4.63 2.22 108.9 003.6-3.66 4.63 2.22 108.9 00-.6-5.1 4.63 2.22 108.9 00-3.6 3.66 4.63 2.22 108.9 00.6 5.1zm-26.76 21.594a3.74 1.95 100.8 002.615-3.309 3.74 1.95 100.8 00-1.214-4.039 3.74 1.95 100.8 00-2.616 3.309 3.74 1.95 100.8 001.214 4.039z"/><path fill="#fff" d="M183.21 263.5q-22.16 7.17-42.21 19.04c-2.93-2.84-.58-13.96-2.04-18.54q1.19-3.94 3.32-7.56a.77.76 19.5 01.76-.36q20.09 2.96 40.15 5.68.78.1 1.62.63.38.24-.03.42l-1.57.69z"/><path d="M183.21 263.5q.09.27.05.57a.87.85-7.6 01-.55.7q-19.62 7.47-32.02 14.43-6.33 3.56-9.28 4.55a.54.54 0 01-.68-.31q-.09-.22-.02-.44l.29-.46q20.05-11.87 42.21-19.04z"/><path fill="#979a9b" d="M138.96 264c1.46 4.58-.89 15.7 2.04 18.54l-.29.46q-9.41 5.14-17.73 11.93-.41.33-.3-.18c.47-2.3 2.21-4.11 3-5.76q6.13-12.76 13.28-24.99z"/><path d="M206.54 269c-1.82 7.22-14.89 16.39-21.11 20.12-3.77 2.25-5 4.72-5.14 8.88l-7.83 2.58a.46.46 0 01-.59-.31l-.12-.48q4.15-1.24 5.4-5.3c1.73-5.63 3.79-11.03 2.85-17.03l.59-.68a.51.51 0 01.77.01c1.5 1.78-.03 10.72-.25 12.17a.35.35 0 00.41.4q2.72-.57 4.9-2.21c6.25-4.72 12.42-8.97 17.22-15.3.75-1 1.04-2.52 2.45-3.41a.27.27 0 01.41.2l.04.36z"/><path fill="#fff" d="M180 277.46c.94 6-1.12 11.4-2.85 17.03q-1.25 4.06-5.4 5.3-7.27 2.74-15.08.94 4.9-1.63 10.06-.87a.98.96 25.3 00.84-.29l1.43-1.53q2.19-.24 2.8-1.99a.44.44 0 00-.36-.58q-1.78-.21-3.23 1.03-2.46.38-2.71-1.96l6.3-2.48a1.55 1.55 0 00.75-.63q1.18-1.91 3.46-1.7a.54.54 0 00.42-.92l-1.95-1.87a.58.58 0 00-.9.11q-1.83 2.94-5.33 3.41l-.25-.42q2.57-.75 2.47-3.12a.71.7-84 00-.53-.66c-1.2-.32-2.26 2.42-4.69 2.45q.58-2.17-.62-3.96-.27-.39-.37-.86l-.65-2.82q8.11-2.47 16.39-3.61z"/><path fill="#979a9b" d="M163.61 281.07l.65 2.82q.1.47.37.86 1.2 1.79.62 3.96-1.42.04-1.75 1.25-1.5.92-2.29 2.54l-.75-.5q.68-2.18 2.56-3.29a.32.32 0 00-.05-.58c-2.11-.8-3.57-2.74-5.72-2.92q4.07-.59 6.36-4.14z"/><path fill="#fff" d="M157.25 285.21c2.15.18 3.61 2.12 5.72 2.92a.32.32 0 01.05.58q-1.88 1.11-2.56 3.29-1.5 1.4-1.25 3.5l-4.47-.09a1.45 1.4 64.9 01-.89-.34q-3.25-2.77-3.56-7.06 3.17-2.61 6.96-2.8z"/><path fill="#bcbcbc" d="M107.41 290.58c-.38-1.24-.58-3.63.54-4.83q.17-.19.15.07l-.45 4.74q-.06.63-.24.02z"/><path d="M168 290.04q-2.3.54-4.5-.08.33-1.21 1.75-1.25c2.43-.03 3.49-2.77 4.69-2.45a.71.7-84 01.53.66q.1 2.37-2.47 3.12z"/><path d="M165.5 294.54l-5.95 1.95-.34-.99q-.25-2.1 1.25-3.5l.75.5.28.37a.64.63-30.1 00.77.2l5.99-2.61q3.5-.47 5.33-3.41a.58.58 0 01.9-.11l1.95 1.87a.54.54 0 01-.42.92q-2.28-.21-3.46 1.7a1.55 1.55 0 01-.75.63l-6.3 2.48z"/><path fill="#979a9b" d="M150.29 288.01q.31 4.29 3.56 7.06a1.45 1.4 64.9 00.89.34l4.47.09.34.99q2.31 2.79 4.66.01a.8.79-59.9 01.88-.24q.98.34 1.68 1.16a.99.96-22.7 00.81.32l.42-.03 1 .33-1.43 1.53a.98.96 25.3 01-.84.29q-5.16-.76-10.06.87-8.13-1.53-8.58-9.96c-.09-1.64.64-2.52 2.2-2.76z"/><path fill="#bcbcbc" d="M163.5 289.96q2.2.62 4.5.08l.25.42-5.99 2.61a.64.63-30.1 01-.77-.2l-.28-.37q.79-1.62 2.29-2.54zM165.5 294.54q.25 2.34 2.71 1.96l-.21 1.21-.42.03a.99.96-22.7 01-.81-.32q-.7-.82-1.68-1.16a.8.79-59.9 00-.88.24q-2.35 2.78-4.66-.01l5.95-1.95z"/><path fill="#22211f" d="M169 298.04l-1-.33.21-1.21q1.45-1.24 3.23-1.03a.44.44 0 01.36.58q-.61 1.75-2.8 1.99z"/><path fill="#fff" d="M191.75 344.63l2.59-4.52a1.47 1.46-36.4 00.16-1.04c-1.79-8.13-3.64-22.14-9.13-26.89q-3.57-3.09-6.09-6.97a.48.47 84.9 01.58-.7c3.95 1.68 10.82 5.48 11.67 10.08 2.34 12.52 4.39 22.01 4.19 31.69-.14 6.65-3.47 13.38-6.34 19.25a.5.5 0 01-.65.24l-8.79-3.88a.54.53-71.2 01-.3-.62c1.4-5.22 6-7.06 9.84-9.81a.94.93 70.3 00.38-.81l-.31-4.71a.43.41-9.8 01.32-.44l1.06-.26a1.3 1.3 0 00.82-.61z"/><path fill="#979a9b" d="M502.75 311.96c-.83.29-.66 1.08-.08 1.51 7.29 5.35 11.82 9.33 11.36 18.67q-.02.51.16 1 .73 1.9-.12 3.7a1.29 1.29 0 00-.08.93l.69 2.33a1.71 1.67 46.3 01-.01.97c-1.09 3.32-.64 7.27-.93 10.8a.78.76-74.7 00.42.75q.72.37 1.55-.12.33 5.65-.39 11.26-.06.5-.22.02c-7.04-21.04-19.11-36.96-35.89-51.2a.36.36 0 01.05-.58q11.65-6.78 23.49-.04z"/><path fill="#bcbcbc" d="M502.75 311.96c16.48 8.54 13.07 25.05 12.96 40.54q-.83.49-1.55.12a.78.76-74.7 01-.42-.75c.29-3.53-.16-7.48.93-10.8a1.71 1.67 46.3 00.01-.97l-.69-2.33a1.29 1.29 0 01.08-.93q.85-1.8.12-3.7-.18-.49-.16-1c.46-9.34-4.07-13.32-11.36-18.67-.58-.43-.75-1.22.08-1.51zM516.96 396.5l-1.17-.25c-.52-4.68-1.91-9.16-2.48-13.72-2.32-18.53-12-36.16-23.66-50.44-4.02-4.91-9.65-9.1-14.5-13.45a2.11 2.11 0 00-3.12.32c-5.36 7.37-4.96 14.84-5.42 24.89q-.01.06.17 2.13.16 1.91-1.66 3.03c-.03-11.88-.7-28.02 8.89-32.79a.84.83 49.9 01.86.08c19.22 14.5 33.03 36.15 38.36 58.45q1.03 4.3 3.73 21.75z"/><path fill="#979a9b" d="M515.79 396.25q-.67 1.34-2.08 1.99-22.71 10.5-45.15 21.58-.61.31-2.31.22-.67-2.35-.68-4.85-.08-33.11-.45-66.18 1.82-1.12 1.66-3.03-.18-2.07-.17-2.13c.46-10.05.06-17.52 5.42-24.89a2.11 2.11 0 013.12-.32c4.85 4.35 10.48 8.54 14.5 13.45 11.66 14.28 21.34 31.91 23.66 50.44.57 4.56 1.96 9.04 2.48 13.72z"/><path fill="#fff" d="M151.95 370.96a1.57 1.57 0 01-1.35-1.89q1.81-8.51 4.43-16.46c1.34-4.08.59-8.28 2.15-12.62q.17-.47.37-.01c3.14 7.37 2 16.57 1.94 28.12a.72.71-86.4 00.62.71q2.36.31 1.37 2.81a.57.56 14.2 01-.59.35l-8.94-1.01z"/><ellipse fill="#fff" transform="rotate(87.2 -90.604 285.449)" rx="4.14" ry=".67"/><path fill="#fff" d="M166.85 375.55a1.55 1.55 0 01-1.26-1.82c.46-2.39 8.87-5.33 10.84-5.82q5.06-1.23 8.69 2.28a1.2 1.2 0 01.35.87c-.1 6.53-14.61 5.16-18.62 4.49zM189.38 404.37q1.18 3.62 5.01 4.74.48.14.05.39-.18.11-.32.24a1.5 1.47 74.7 00-.47.85q-.4 2.38-1.28 4.61-.34.88-.72.02c-1.81-4.07-5.27-13.64-11.6-8.25a.5.49-18.3 01-.82-.41l1.47-20q.04-.51.33-.94 6.71-9.88 12.2-15.86 1.81-1.97 4.08-.52a.79.79 0 01.37.75q-1.55 16.91-4.92 33.55a.5.49-81.1 01-.54.4l-2.29-.25a.52.52 0 00-.55.68z"/><path fill="#bcbcbc" d="M378.29 369.25c.75-.02 1.05.41.91 1.15-.98 4.99-1.17 12.03-2.87 18.16a.7.69 6.6 01-.66.52q-.51.01-.71-.58l3.33-19.25zM420.71 374.75q-.26 15.35-2.75 30.5l-.89-.34a.64.64 0 01-.41-.69q2.12-15.2 2.7-30.54a.46.45-88.1 01.46-.44l.35.01a.28.28 0 01.27.29q-.02.64.27 1.21z"/><path fill="#fcfce0" d="M121.8 423.5a.36.36 0 01-.31-.45l10.44-42.81a.79.79 0 011.18-.49c5.22 3.14 11.49 3.98 15.42-1.71 1.62-2.34 8.87-.88 11.33-.48a1.08 1.08 0 01.74.52c1.48 2.65.56 4.85.84 7.43.54 5.07.46 10.26.74 15.36q.12 2.17-.78 4.07c-3.43 7.26-7.89 13.81-11.19 21.18a.74.73-74.6 01-.75.43l-27.66-3.05z"/><path fill="#bcbcbc" d="M373.79 396l.41-.01a.44.44 0 01.45.49c-.37 3.32-2.21 8.69-.76 11.64a.94.94 0 01-.03.9l-.57.98c-2.52-3.35-.21-10.12.5-14z"/><path fill="#fff" d="M515.79 396.25l1.17.25c5.97 25.59 30.24 35.32 52.55 41.71q.94.26 2.81.45-6.26 12.18-12.23 24.48-3.16 6.53-8.4 15.55c-2.43 4.2-4.52 8.4-4.88 13.61q-.23 3.26-.66 6.57c-41.57-8.84-71.08-37.2-79.9-78.83q1.7.09 2.31-.22 22.44-11.08 45.15-21.58 1.41-.65 2.08-1.99z"/><path fill="#bcbcbc" d="M416.29 418l-3.58 28.75q-.52.13-1.02-.03a.6.59-76.8 01-.41-.67q2.27-13.07 2.67-20.05.46-7.98 1.05-11.97.11-.74.29-.02l1 3.99z"/><path d="M194.75 447.04c-3.04 8.17-13.3 12.03-20.08 5.39a1 .99 29.9 01-.27-.97l1.03-4a.66.65 19.6 00-.36-.75q-2.22-1.05-2.33-3.63c-.2-4.32.03-8.2-1.94-12.26q-3.71-7.61-6.05-15.78.57-.46 1.15-.28a.99.99 0 01.66.62q2.75 7.76 6.23 15.19c2.06 4.38.56 11.57 3.26 14.45 1.55 1.65 2.48 2.76.9 4.65a.83.81 54.7 00-.13.83q.99 2.48 3.42 3.06 9.42 2.22 12.84-6.64a.48.48 0 01.63-.28l1.04.4z"/><path fill="#bcbcbc" d="M378.1 418.16q3.78 2.56 5.73 6.58c3.76 7.8 8.36 15.17 12.78 22.61q.45.75 2.21 4.62c.98 2.15 2.56 3.84 3.53 5.95q2.53 5.54 6.97 9.76-.21.73.52 1.59a.58.58 0 01-.03.79l-.42.44a.53.53 0 01-.83-.1c-10.31-17.33-20.07-34.97-30.46-52.24z"/><path fill="#979a9b" d="M135.93 448.02q-3.32 1.17-4.98 4.14a1.63 1.61 1.7 01-.71.66q-3.02 1.43-3.98 4.64a1.79 1.79 0 01-2.06 1.25q-1.9-.36-2.49 1.29c-3.62-2.68-8.53.33-10.11 3.73a1.11 1.11 0 000 .94l1.25 2.74a.95.92-45.4 01-.01.81q-1.28 2.63-4.36 2.09-8.05-1.42-10.74-1.73-.49-.06-.13-.4 6.63-6.3 14.86-10c9.21-4.15 26.23-15.25 19.24-27.78q-.32-.57.33-.49l19.23 2.38a1 .99-8.6 01.78.57q.98 2.09-.82 3.38-5.15 3.7-7.46 5.93a.43.43 0 01-.64-.04c-2.98-3.88-6.46.26-8.43 3.46a.76.76 0 00.05.86l1.18 1.57z"/><path fill="#fff" d="M118.69 435.76c2.03-4.03-1.92-4.54-4.44-5.11q-.64-.14 0-.27 5.55-1.11 9.62 2.53a.97.96 25.2 01.32.87c-1.06 7.04-11.13 8.16-15.77 10.48a.34.34 0 01-.46-.43c.28-.67.57-1.22 1.32-1.47 3.74-1.21 7.66-3.14 9.41-6.6z"/><path fill="#979a9b" d="M95.99 438.45a.09.09 0 01-.1-.15c2.31-2.13 9.14-7.78 12.34-7.41q.54.06.02.24c-5.06 1.78-7.42 5.22-12.26 7.32z"/><path fill="#fff" d="M129.46 440.5q-1.79-.41-2.75-2l1.84-3.56a.38.38 0 01.59-.11q2.8 2.57.32 5.67zM131.37 472.08c-2.7-1.22-5.08-2.46-7.39-.65q-3.67 2.9-3.66 7.58a1.13 1.13 0 01-.41.87l-3.4 2.84a.42.42 0 01-.68-.21l-.99-3.45a1.2 1.17 51.9 01.1-.91c5.39-9.82 12.91-18.03 21.64-24.92 6.76-5.33 12.16-11.23 18.58-16.79q2.29-1.99 2.55 1.03.48 5.58-1.22 10.72a.74.73-82 01-.67.51c-5.62.24-9.08 9.2-10.46 13.67a1.59 1.55 81.6 01-.61.84l-12.4 8.77a.99.99 0 01-.98.1z"/><path fill="#979a9b" d="M126.71 438.5q.96 1.59 2.75 2-1.66 2.91-4.51 4.82a.72.71-36.9 01-.94-.13l-1.68-1.98a.67.67 0 01.07-.94l4.31-3.77z"/><path fill="#bcbcbc" d="M139.91 442.97a.8.79-42.7 011.27.05l.45.66a.7.7 0 01-.08.89l-2.92 2.93q-.79.79-.62-.32.36-2.35 1.9-4.21zM135.93 448.02q-2.2 3.99-5.57 6.36-2.06 1.45-3.21 3.36a1.91 1.85.8 01-.7.66q-4.14 2.22-6.14 5.63-.86 1.46-2.12 1.1a.56.56 0 01-.4-.64q.56-3.18 3.69-3.11a.53.53 0 00.54-.5q.03-.57-.31-.88.59-1.65 2.49-1.29a1.79 1.79 0 002.06-1.25q.96-3.21 3.98-4.64a1.63 1.61 1.7 00.71-.66q1.66-2.97 4.98-4.14z"/><ellipse fill="#fff" transform="rotate(108.9 -86.22 284.919)" rx="4.63" ry="2.22"/><ellipse fill="#fff" transform="rotate(100.8 -135.067 293.423)" rx="3.74" ry="1.95"/><path fill="#22211f" d="M0 589.94l.5.1-.09.32a.26.25-81 00.23.33l14.55.31H0v-1.06zM24.44 591h-6.75q3.37-.63 6.75 0zM31.44 591h-5.5q2.75-.63 5.5 0zM512.44 591h-28.75q14.37-.63 28.75 0zM564.44 591h-51.75q25.87-.63 51.75 0z"/></svg>