<svg xmlns="http://www.w3.org/2000/svg" viewBox="0 0 591 591"><g stroke-width="2" fill="none"><path stroke="#7e7f70" vector-effect="non-scaling-stroke" d="M585.49 5.52a.27.27 0 00-.27-.27H5.52a.27.27 0 00-.27.27v579.7a.27.27 0 00.27.27h579.7a.27.27 0 00.27-.27V5.52"/><path stroke="#4a4c4e" vector-effect="non-scaling-stroke" d="M.38 590.25a.12.12 0 00-.12.11l-.01.26a.12.12 0 00.12.13h590.04a.12.12 0 00.1-.05l.17-.26a.12.12 0 00-.1-.19H.38"/><path stroke="#fcf2c5" vector-effect="non-scaling-stroke" d="M63.06 32.41C49.69 32.19 42.08 42.07 42 54.75q-.13 21.38.17 42.79a.72.72 0 001.23.49Q68.27 72.6 93.38 47.54c4.59-4.59 8.51-9.22 12.44-14.11a.7.7 0 00-.6-1.14c-1.13.1-2.25-.33-3.3-.29q-19.43.73-38.86.41"/><path stroke="#8e8f7f" vector-effect="non-scaling-stroke" d="M293.18 483.06q2.64-.37 1.93 2.19c-2.02 7.39-4.17 17.16.91 23.78 4.01 5.21 7.21 8.87 7.52 15.14.05 1.15.97 1.99 1 3.32.22 8.16 2.41 15.46 8.38 21.33 4.23 4.15 13.41 11.09 19.76 8.06 7.25-3.47 16.79-10.84 18.35-19.37q3.27-17.95 16.78-29.71 7.88-6.85 13.85-18.58c4.33-8.53 3.99-19.3 3.68-28.84-.1-3.11.5-8.25 2.11-10.2 9.74-11.82 12.11-24.59 10.77-39.7a1.53 1.44 59.5 01.21-.93c5.71-9.46 10.2-19.51 12-30.62 6.32-39.02.85-82.2-24-112.53a.77.77 0 01-.03-.92c20.41-28.92 39.87-57.69 60.66-85.89 11.76-15.93 27.5-28.86 38.65-43.64q4.38-5.81 5.07-13.48c1.76-19.6-22.13-28.44-36.01-17.47q-12.65 10.01-26.09 25.93c-29.15 34.55-54.85 71.68-79.56 109.75a.7.69 32.3 01-.96.21c-26.47-16.53-59.54-17.8-89.23-11.14q-9.34 2.09-19.02 6.09c-24.52 10.14-45.39 23.83-61.73 45.13-14.44 18.83-26.63 40.01-31.97 63.72-8.6 38.16-1.41 76.08 27.29 104.07 30.27 29.52 78.62 40.14 119.68 34.3"/><path stroke="#fcf2c5" vector-effect="non-scaling-stroke" d="M437.86 362.535a.82.69 39.8 00-.188-1.055.82.69 39.8 00-1.072.005.82.69 39.8 00.188 1.055.82.69 39.8 001.072-.005"/><path stroke="#8f8f8f" vector-effect="non-scaling-stroke" d="M475.13 129.43l-3.67 5.82"/><path stroke="#5a5c5d" vector-effect="non-scaling-stroke" d="M471.46 135.25c-4 4.45-7.79 8.73-12.16 12.8q-6.32 5.89-11.85 12.5c-3.88 4.63-8.37 9.1-11.44 13.21q-19.82 26.58-37.67 54.53c-4.21 6.59-9.15 11.69-13.14 18.86q-2.77 4.97-5.82 9.77c-1.52 2.39 1.24 4.21 2.71 5.31a.51.5 36.6 00.71-.1q5.73-7.86 11.21-15.9c10.38-15.22 21.08-29.79 31.26-44.96q8.18-12.19 27.27-36.49c4.81-6.11 10.44-10.09 14.92-15.28"/><path stroke="#8f8f8f" vector-effect="non-scaling-stroke" d="M467.46 149.5q7.06-7.05 13.08-15"/><path stroke="#5a5c5d" vector-effect="non-scaling-stroke" d="M480.54 134.5c5.38-7.6 7.39-17.86.28-24.93a.36.36 0 00-.58.12c-.51 1.22.04 2.8-.09 3.89q-.98 8.39-5.02 15.85"/><path stroke="#cacccd" vector-effect="non-scaling-stroke" d="M480.54 134.5q-1.36-.57-1.32-1.88a1.3 1.28 69.7 01.4-.89q1.09-1.03 1.15-2.49a1.08 1.05-69.3 00-.39-.89l-1.14-.95a.74.73 48.3 00-.87-.06l-3.24 2.09M467.46 149.5l-3.24 1.19a1.17 1.16-.6 00-.71.72q-.6 1.72-2.44 1.54a.46.45 20.4 01-.33-.72l.43-.57a1.05 1.04-33.9 00.17-.83c-.98-4.33 2.3-4.14 4.12-6.62q2.71-3.69 5.74-7.12a1.27 1.26-25.8 00.31-.88l-.05-.96"/><path stroke="#5a5c5d" vector-effect="non-scaling-stroke" d="M469.337 114.24a9.27 4.97-40.9 00-10.261 2.313 9.27 4.97-40.9 00-3.753 9.826 9.27 4.97-40.9 0010.261-2.312 9.27 4.97-40.9 003.753-9.826"/><path stroke="#8f8f8f" vector-effect="non-scaling-stroke" d="M162.79 412.25q-4.72-12.57-5.58-26"/><path stroke="#5a5c5d" vector-effect="non-scaling-stroke" d="M157.21 386.25c.54-3.72.19-7.82-.23-11.54"/><path stroke="#8f8f8f" vector-effect="non-scaling-stroke" d="M156.98 374.71l.95-7.75"/><path stroke="#5a5c5d" vector-effect="non-scaling-stroke" d="M157.93 366.96l2.37 19.56q.06.46.14 0 1.54-8.82 2.15-17.75c.04-.67.66-1.34 1.29-1.46a.62.62 0 01.71.39q.61 1.7.52 4.37c-.33 9.9 4.92 19.48 8.59 28.45q.18.46.13-.04c-1.21-10.78-2.9-21.16-1.56-32.07a.44.44 0 01.65-.33l3.72 2.11a.7.69 20.6 01.34.73c-.24 1.34.43 3.03.51 4.02 1.6 19.35 6.14 39.71 19.5 54.62a.03.03 0 00.04 0l.2-.17a.27.27 0 00.04-.35q-7.66-11.5-9.71-24.54c-1.53-9.63-4.03-19-3.81-27.79.45-17.23 4-36.1 12.22-51.48.96-1.78 1.4-3.1.48-5.13-4.6-10.21 1.94-22.08 9.66-29.22q5.32-4.93 9.43-11.11a.34.34 0 00-.5-.46l-9.15 7.43a.4.4 0 01-.62-.16c-.81-2.08 17.23-18.79 21.07-22.17q1.01-.89-.16-.23-11.77 6.54-21.85 15.47-.38.34-.38-.17-.01-1.33.73-2.06 3.15-3.09 3.84-6.9"/><path stroke="#8f8f8f" vector-effect="non-scaling-stroke" d="M208.52 270.52q10.15-10.01 22.77-16.77"/><path stroke="#5a5c5d" vector-effect="non-scaling-stroke" d="M231.29 253.75c31.53-18.82 70.61-24.66 105.85-12.15a.47.46 8.4 00.63-.46l-.02-.38a.33.33 0 00-.2-.29c-36.37-16.47-77.92-10.09-111.64 9.25-9.4 5.39-17.41 10.15-25.9 18.02q-20.89 19.38-34.06 43.02c-3.48 6.27-6.38 13.78-9.35 20.74-10.17 23.81-12.5 49.5-3.1 74.03 6.52 17.02 15.63 31.73 30.16 43.18 6.48 5.11 14.73 8.31 22.53 11.59 3.84 1.62 8.8 2.07 11.84 2.79q8.55 2.02 14.72 2.42c13.47.86 32.78 1.2 49.08-.24a2.57 2.56-5.5 002.33-2.82c-.27-2.57-15.41-.66-15.97-.65-15.25.28-33.21.18-49.19-3.34-1.68-.37-2.85-1.45-4.39-1.84-24.93-6.24-41.73-19.99-51.82-44.37"/><path stroke="#cacccd" vector-effect="non-scaling-stroke" d="M231.29 253.75c-.23-1.18-1.09-1.19-1.97-.61-3.32 2.18-7.14 3.64-10.13 5.91q-12.09 9.14-23.45 19.18c-5.32 4.7-10.48 11.11-14.21 15.82-9.21 11.66-15.18 25.83-20.35 40.13-5.7 15.78-7.03 29.9-7.18 46.96-.1 10.65 4.24 21.51 7.67 31.49a.63.62 63 00.95.31q.26-.18.17-.69"/><path stroke="#cacccd" vector-effect="non-scaling-stroke" d="M208.52 270.52q-15.59 12.04-26.63 28.4c-13.28 19.67-21.46 44.68-23.96 68.04M156.98 374.71c-.42 2.5-1.28 9.53.23 11.54"/><path stroke="#5a5c5d" vector-effect="non-scaling-stroke" d="M268.69 271.7c28.94-6.87 68.86-10.24 95.39 5.7q.35.2.62.1.37-.16.05-.4c-4.77-3.6-9.49-7.15-15.21-9.07-17.35-5.8-35.1-6.53-53.73-5.96-9.98.3-23.86 3.97-33.05 6.76q-16.7 5.08-31.98 16.38-1.09.81.21 1.19l3.4.99a.89.89 0 00.79-.14q14.8-11.11 33.51-15.55"/><path stroke="#8f8f8f" vector-effect="non-scaling-stroke" d="M384.25 377.9q-.19 1.75.6 3.57"/><path stroke="#5a5c5d" vector-effect="non-scaling-stroke" d="M384.85 381.47c2.75 7.51 7.66 13.89 11.71 20.67q.25.42.48-.01c6.52-12.35 8.29-21.2 10.47-36.13q.1-.71-.16-1.14-.32-.51-.5.07l-2.85 8.9q-.3.91-.73.05-1.43-2.79-.46-5.93a.1.09-70.6 00-.05-.12l-.27-.08a.26.26 0 00-.31.11l-1.47 2.38a.52.51-43.4 01-.89-.02c-1.64-3-.41-12.02-1.19-16.28q-.18-.96-.44-.01l-2.37 8.77a1.21 1.17-5.7 01-.66.78q-.48.22-1.14.14"/><path stroke="#8f8f8f" vector-effect="non-scaling-stroke" d="M394.02 363.62c2.63-10.74 3.68-20.08 2.41-30.91"/><path stroke="#5a5c5d" vector-effect="non-scaling-stroke" d="M396.43 332.71c-.31-9.47-.38-19.36-3.38-28.26-3.78-11.2-8.82-25.24-16.89-34.47a.35.35 0 00-.56.4q4.05 7.12 6.5 15.09c4.59 14.97 9.19 31.08 8.97 46.78q-.12 8.59-2.39 25.68-.9 6.68-5.25 15.53a1.4 1.38 51.4 00-.1.94l.92 3.5"/><path stroke="#cacccd" vector-effect="non-scaling-stroke" d="M396.43 332.71q-1.03 1.26-.96 2.87c.29 6.62-.76 14.73-2.48 21.13q-1.32 4.91-2.68 9.81-1.53 5.49-6.06 11.38M394.02 363.62q-3.83 9.29-9.17 17.85"/><path stroke="#8f8f8f" vector-effect="non-scaling-stroke" d="M288.71 457l5.33 4.75"/><path stroke="#5a5c5d" vector-effect="non-scaling-stroke" d="M294.04 461.75q6.59 8.85 5.83 19.61c-.29 4.12-1.83 8.79-2.8 13.28-2.14 9.93 3.8 12.47 7.62 18.92 4.4 7.43 2.37 16.85 6.3 24.53 2.81 5.48 8.98 11.77 14.29 13.81 8.39 3.23 17.18-6.53 20.54-13.34 2.19-4.43 3.19-11.05 5.3-15.57 7.37-15.75 25.05-25.61 29.46-43.01 2.65-10.49-1.77-23.25 4.14-32.49 5.81-9.09 13.23-24.85 9.49-34.94q-3.95-10.65-11.17-23.55"/><path stroke="#8f8f8f" vector-effect="non-scaling-stroke" d="M383.04 389q-2.56-5.18-4.08-10.75"/><path stroke="#5a5c5d" vector-effect="non-scaling-stroke" d="M378.96 378.25c-.83-7.63-.16-14.29-.47-21.51-.74-17.52-9.47-28.38-22.79-39.3-21.67-17.77-50.04-21.22-77.35-19.26-12.98.94-27.23 3.75-39.1 9.77a.56.55-26.8 01-.75-.24q-.55-1.06.27-2.01a.81.81 0 00.17-.77c-2.05-6.87-3.47-13.13-11.33-15.04q-3.61-.87-8.15.62c-11.29 3.71-23.63 15.2-18.95 28.38 2.32 6.53 7.2 7.04 12.7 9.45a.47.47 0 01.22.65c-8.82 16.06-9.76 32.29-10.37 50.16-.39 11.54 3.01 26.53 9.16 36.4 10.22 16.39 27.98 27.25 46.28 31.96q17.67 4.55 30.21 9.49"/><path stroke="#cacccd" vector-effect="non-scaling-stroke" d="M378.96 378.25l-.24-.29a.29.28-49.5 00-.47.04q-.17.3.01.77c1.58 4.16-2.92 11.99-5.38 16.28"/><path stroke="#5a5c5d" vector-effect="non-scaling-stroke" d="M372.88 395.05q-2.16-12.29-3.1-24.75c-1.63-21.37-10-36.48-29.15-46.15q-12.37-6.25-16.3-7.77c-9.83-3.82-26.37-7.28-38.39-6.21-10.18.92-19.32 1.5-28.28 4.84q-9.37 3.5-17.73 9.14c-11.77 7.94-18.45 25.73-20.18 39.08-1.6 12.4.23 29.37 4.84 40.2 8.83 20.76 33.53 31.11 54.66 37.05q8.29 2.34 18.25 8.23"/><path stroke="#cacccd" vector-effect="non-scaling-stroke" d="M297.5 448.71q-7.6.74-8.79 8.29M383.04 389q-2.84 6.01-7.41 11.01"/><path stroke="#8f8f8f" vector-effect="non-scaling-stroke" d="M372.88 395.05l2.75 4.96"/><path stroke="#5a5c5d" vector-effect="non-scaling-stroke" d="M375.63 400.01c5.34 10.86 10.83 21.23 4.09 32.73-6.62 11.3-9.43 17.76-8.38 30.45 1.63 19.77-12.06 32.13-26.94 46.89-7.62 7.55-2.37 17.95-7.98 25.34-4.03 5.32-11.79 2.92-15.32-1.35-4.31-5.22-5.16-17.13-6.55-23.46-1.62-7.4-6.98-11.35-5.49-19.79 2-11.33 4.01-21.86-1.77-32.57"/><path stroke="#8f8f8f" vector-effect="non-scaling-stroke" d="M307.29 458.25q-2.9-6.81-9.79-9.54"/><path stroke="#cacccd" vector-effect="non-scaling-stroke" d="M294.04 461.75q6.99-.45 13.25-3.5"/><path stroke="#5a5c5d" vector-effect="non-scaling-stroke" d="M228.9 298.72c-1.88-1.63-4.88-3.81-7.61-4.78q-.61-.22-.17.25 5.49 5.8 8.7 13.12.3.69.6 0 2.28-5.28-1.52-8.59M210.01 301.81c5.05 2.91 9.31 7.56 14.24 9.75q.48.21.4-.31c-.53-3.7-12.4-12.38-14.72-9.97a.34.34 0 00.08.53"/><path stroke="#cacccd" vector-effect="non-scaling-stroke" d="M259.46 304.69c-4.06.11-21.01 3.38-19.94 9.54a.67.67 0 00.88.52c5.41-1.87 15.69-4.7 19.7-8.49a.91.91 0 00-.64-1.57"/><path stroke="#5a5c5d" vector-effect="non-scaling-stroke" d="M208.94 319.31q3.87 2.94 8.03 1.28.48-.19 0-.4-6.72-2.83-12.61-7.44-.4-.31-.24.17 1.27 3.7 4.82 6.39"/><path stroke="#cacccd" vector-effect="non-scaling-stroke" d="M209.17 371.43c3.86.75 5.26-3.49 5.41-6.68q.75-15.49 8.22-29.01.36-.64.4-2.84a1.33 1.32 24.8 00-.34-.91q-1.47-1.63-3.69-1.2a1.4 1.4 0 00-.88.55c-7.21 9.56-10.26 21.03-10.94 32.87-.15 2.5-.61 4.62 1.02 6.72a1.37 1.34 76.5 00.8.5"/><path stroke="#8f8f8f" vector-effect="non-scaling-stroke" d="M311.85 456.26c4.37 11.56 3.69 21.91 2.14 33.75-.94 7.2 2.9 14.32 5.09 21.62 1.94 6.44 2.22 13.06 4.7 18.31 1.45 3.09 8.8 7.59 9.9.97 1.68-10.01 2.53-16.6 8.36-24.86 1.05-1.48 3.76-2.91 5.21-4.49 5.91-6.4 13.29-13.82 16.4-21.44 3.22-7.9 3.06-15.5 3.11-23.9.06-7.35 2.57-13.9 6.15-20.05q3.82-6.57 4.39-8.26 3.22-9.57-1.59-19.16"/><path stroke="#5a5c5d" vector-effect="non-scaling-stroke" d="M375.71 408.75c-8.09-13.17-9.29-25.06-11-41.12q-.96-8.98-2.69-13.43c-6.51-16.73-22.7-26.75-39.22-32.72-10.28-3.71-21.04-7.26-31.88-7.17q-11.51.1-22.83 2.38c-5.33 1.07-10.41 3.38-15.59 5.41q-11.82 4.63-18.35 15.48c-10.13 16.82-12.71 31.97-8.87 51.41 6.45 32.62 32.72 38.58 59.48 48.59 10.84 4.05 20.41 9.29 27.09 18.68"/><path stroke="#cacccd" vector-effect="non-scaling-stroke" d="M375.71 408.75c-3.22 1.23-4.36 4.02-6.49 6.12q-2.42 2.39-3.98 5.5"/><path stroke="#5a5c5d" vector-effect="non-scaling-stroke" d="M365.24 420.37c-1.95 1.14-6.23.58-4.99 4.59"/><path stroke="#cacccd" vector-effect="non-scaling-stroke" d="M360.25 424.96q-1.19.27-1.49.53-21.45 18.47-46.91 30.77"/><path stroke="#8f8f8f" vector-effect="non-scaling-stroke" d="M360.25 424.96c2.64.21 10.07.06 12.54-2.18a.82.82 0 00.19-.96l-.79-1.7a.7.69 74.5 00-.7-.4l-6.25.65"/><path stroke="#5a5c5d" vector-effect="non-scaling-stroke" d="M306.927 335.53a6.12 1.82 89 001.713-6.152 6.12 1.82 89 00-1.927-6.087 6.12 1.82 89 00-1.713 6.15 6.12 1.82 89 001.927 6.088M257.02 330.99c3.99 1.75 4.49 9.01 4.83 12.8a.48.48 0 00.72.37c2.53-1.51 10.77-6.58 10.74-9.81-.02-2.01-2.94-4.64-4.95-2.72a1.05 1.04 65.6 00-.32.86c.14 1.57-.04 4.81-2.16 4.7a.67.66 86 01-.61-.54q-1.19-6.1-2.56-8.83c-4.27-8.58-12.98.9-7.07 6.95q.39.39.45-.15l.43-3.35a.36.36 0 01.5-.28M250.18 341.48l5.65 6.34a.91.9-33.7 001.06.21q1.81-.87 2.76-2.64a.77.76 37.7 00-.12-.9l-11.86-12.68a.75.73 56.5 00-.83-.18c-6.17 2.51-1.84 10.56-.13 14.77a.9.89 82.3 00.7.54c3.5.48 2.51-3.39 2.42-5.32q-.02-.56.35-.14M339.75 340.75a.53.52-52 00-.64.08c-1.6 1.68-9.91 8.57-6.73 10.95a1.47 1.46 48.9 001.59.11c2.63-1.44 10.9-8.15 5.78-11.14M244.809 367.892a1.79 1.79 0 00-1.704-1.873l-9.63-.454a1.79 1.79 0 00-1.872 1.704l-.032.68a1.79 1.79 0 001.704 1.872l9.63.454a1.79 1.79 0 001.872-1.704l.032-.68M343.55 373.91q.2-2.18 2.13-2.97a.76.75 68.3 01.99.43l3.47 9.05a.54.53-39.4 00.95.09q1.53-2.47 4.35-.77a1.58 1.57 3.9 01.63.72c1.63 3.77 3.55 10.58-3.4 10.24a.68.68 0 01-.63-.86c1.11-4.04-4.23-4.33-5.88-1.57a1.47 1.43 56.6 00-.18.93c.85 5.67 7.82 6.36 11.7 3.18 5.28-4.32 4.64-18.8-5.1-16.82a.4.4 0 01-.48-.39c.14-11.07-14.27-12-10.85 1.29a1.06 1.04-.4 00.76.74l2.35.57a.71.7-76.9 00.84-.53q.44-2-1.33-2.79a.54.52 15.3 01-.32-.54M312.48 399.55q.61 5.24 5.45 6.99c1.66.6 1 1.99 1.03 3.17q.23 9.46 1.46 18.86.19 1.38.06 3.99a.79.78 82.1 01-.54.72l-2.43.8a1.14 1.14 0 00-.57 1.75l8.3 11.52q.32.46.52-.07l4.57-12.4a1.4 1.4 0 00-1.19-1.88l-2.78-.26a.62.62 0 01-.56-.58q-.7-9.74-2.29-24.91-.12-1.19 1.17-1.43.49-.1.87-.41c6.35-5.16 1.21-16.11-7.13-13.79-1.55.43-2.94 1.4-4.47 2.17a1.75 1.71 33 01-.94.19c-8.83-.72-18.99-2.5-26.27-3.34q-15.77-1.82-31.57-3.62a.64.63-89.5 01-.55-.57l-.37-3.61a.62.62 0 00-.66-.55q-8.49.7-16.01 4.8-2.38 1.3.15 2.26l14.64 5.54a.69.69 0 00.85-.33l1.13-2.24a.75.73 13.9 01.7-.41c7.29.38 15.8 2.04 21.55 2.7q17.69 2.05 35.34 4.39a.62.62 0 01.54.55M270.562 415.24a1.85 1.85 0 00-2.445-.934l-7.941 3.552a1.85 1.85 0 00-.934 2.445l.196.438a1.85 1.85 0 002.445.933l7.941-3.552a1.85 1.85 0 00.934-2.445l-.196-.438"/><path stroke="#5a5c5d" vector-effect="non-scaling-stroke" d="M324.441 399.528a3.98 3.31 5.6 00-3.638-3.682 3.98 3.31 5.6 00-4.284 2.906 3.98 3.31 5.6 003.638 3.682 3.98 3.31 5.6 004.284-2.906"/><path stroke="#8f8f8f" vector-effect="non-scaling-stroke" d="M357.231 473.989a5.62 2.15 52.5 00-1.715-5.768 5.62 2.15 52.5 00-5.127-3.15 5.62 2.15 52.5 001.715 5.768 5.62 2.15 52.5 005.127 3.15M327.15 498.11q-.58-4.19 1.69-7.72a.46.45-48.6 01.74-.05l1.25 1.48a1.18 1.17 66.9 001.01.41c3.7-.38 2.4-5.44.16-6.83a1.04 1.02 50.8 00-.9-.1c-7.81 2.81-9.44 13.16-8.35 20.19 1.76 11.29 16.17 5.93 14.98-5.03-.12-1.05.06-2.86-1.32-3.45q-4.37-1.86-8.7 1.33a.35.35 0 01-.56-.23"/><path stroke="#8f8f8f" vector-effect="non-scaling-stroke" d="M328.16 506.98c1.07.29 1.83.51 2.95.29a.69.69 0 00.55-.66l.13-5.39q.02-.96-.73-.37-2.82 2.22-3.1 5.84a.28.27-80 00.2.29"/></g><path d="M0 0h591v591H0V0zm585.49 5.52a.27.27 0 00-.27-.27H5.52a.27.27 0 00-.27.27v579.7a.27.27 0 00.27.27h579.7a.27.27 0 00.27-.27V5.52zM.38 590.25a.12.12 0 00-.12.11l-.01.26a.12.12 0 00.12.13h590.04a.12.12 0 00.1-.05l.17-.26a.12.12 0 00-.1-.19H.38z"/><path fill="#fcfee0" d="M585.49 585.22a.27.27 0 01-.27.27H5.52a.27.27 0 01-.27-.27V5.52a.27.27 0 01.27-.27h579.7a.27.27 0 01.27.27v579.7zM63.06 32.41C49.69 32.19 42.08 42.07 42 54.75q-.13 21.38.17 42.79a.72.72 0 001.23.49Q68.27 72.6 93.38 47.54c4.59-4.59 8.51-9.22 12.44-14.11a.7.7 0 00-.6-1.14c-1.13.1-2.25-.33-3.3-.29q-19.43.73-38.86.41zm230.12 450.65q2.64-.37 1.93 2.19c-2.02 7.39-4.17 17.16.91 23.78 4.01 5.21 7.21 8.87 7.52 15.14.05 1.15.97 1.99 1 3.32.22 8.16 2.41 15.46 8.38 21.33 4.23 4.15 13.41 11.09 19.76 8.06 7.25-3.47 16.79-10.84 18.35-19.37q3.27-17.95 16.78-29.71 7.88-6.85 13.85-18.58c4.33-8.53 3.99-19.3 3.68-28.84-.1-3.11.5-8.25 2.11-10.2 9.74-11.82 12.11-24.59 10.77-39.7a1.53 1.44 59.5 01.21-.93c5.71-9.46 10.2-19.51 12-30.62 6.32-39.02.85-82.2-24-112.53a.77.77 0 01-.03-.92c20.41-28.92 39.87-57.69 60.66-85.89 11.76-15.93 27.5-28.86 38.65-43.64q4.38-5.81 5.07-13.48c1.76-19.6-22.13-28.44-36.01-17.47q-12.65 10.01-26.09 25.93c-29.15 34.55-54.85 71.68-79.56 109.75a.7.69 32.3 01-.96.21c-26.47-16.53-59.54-17.8-89.23-11.14q-9.34 2.09-19.02 6.09c-24.52 10.14-45.39 23.83-61.73 45.13-14.44 18.83-26.63 40.01-31.97 63.72-8.6 38.16-1.41 76.08 27.29 104.07 30.27 29.52 78.62 40.14 119.68 34.3zm144.68-120.525a.82.69 39.8 00-.188-1.055.82.69 39.8 00-1.072.005.82.69 39.8 00.188 1.055.82.69 39.8 001.072-.005z"/><path fill="#fce6aa" d="M63.06 32.41q19.43.32 38.86-.41c1.05-.04 2.17.39 3.3.29a.7.7 0 01.6 1.14c-3.93 4.89-7.85 9.52-12.44 14.11Q68.27 72.6 43.4 98.03a.72.72 0 01-1.23-.49q-.3-21.41-.17-42.79c.08-12.68 7.69-22.56 21.06-22.34z"/><path fill="#1f1f1e" d="M293.18 483.06c-41.06 5.84-89.41-4.78-119.68-34.3-28.7-27.99-35.89-65.91-27.29-104.07 5.34-23.71 17.53-44.89 31.97-63.72 16.34-21.3 37.21-34.99 61.73-45.13q9.68-4 19.02-6.09c29.69-6.66 62.76-5.39 89.23 11.14a.7.69 32.3 00.96-.21c24.71-38.07 50.41-75.2 79.56-109.75q13.44-15.92 26.09-25.93c13.88-10.97 37.77-2.13 36.01 17.47q-.69 7.67-5.07 13.48c-11.15 14.78-26.89 27.71-38.65 43.64-20.79 28.2-40.25 56.97-60.66 85.89a.77.77 0 00.03.92c24.85 30.33 30.32 73.51 24 112.53-1.8 11.11-6.29 21.16-12 30.62a1.53 1.44 59.5 00-.21.93c1.34 15.11-1.03 27.88-10.77 39.7-1.61 1.95-2.21 7.09-2.11 10.2.31 9.54.65 20.31-3.68 28.84q-5.97 11.73-13.85 18.58-13.51 11.76-16.78 29.71c-1.56 8.53-11.1 15.9-18.35 19.37-6.35 3.03-15.53-3.91-19.76-8.06-5.97-5.87-8.16-13.17-8.38-21.33-.03-1.33-.95-2.17-1-3.32-.31-6.27-3.51-9.93-7.52-15.14-5.08-6.62-2.93-16.39-.91-23.78q.71-2.56-1.93-2.19zm181.95-353.63l-3.67 5.82c-4 4.45-7.79 8.73-12.16 12.8q-6.32 5.89-11.85 12.5c-3.88 4.63-8.37 9.1-11.44 13.21q-19.82 26.58-37.67 54.53c-4.21 6.59-9.15 11.69-13.14 18.86q-2.77 4.97-5.82 9.77c-1.52 2.39 1.24 4.21 2.71 5.31a.51.5 36.6 00.71-.1q5.73-7.86 11.21-15.9c10.38-15.22 21.08-29.79 31.26-44.96q8.18-12.19 27.27-36.49c4.81-6.11 10.44-10.09 14.92-15.28q7.06-7.05 13.08-15c5.38-7.6 7.39-17.86.28-24.93a.36.36 0 00-.58.12c-.51 1.22.04 2.8-.09 3.89q-.98 8.39-5.02 15.85zm-5.793-15.19a9.27 4.97-40.9 00-10.261 2.313 9.27 4.97-40.9 00-3.753 9.826 9.27 4.97-40.9 0010.261-2.312 9.27 4.97-40.9 003.753-9.826zM162.79 412.25q-4.72-12.57-5.58-26c.54-3.72.19-7.82-.23-11.54l.95-7.75 2.37 19.56q.06.46.14 0 1.54-8.82 2.15-17.75c.04-.67.66-1.34 1.29-1.46a.62.62 0 01.71.39q.61 1.7.52 4.37c-.33 9.9 4.92 19.48 8.59 28.45q.18.46.13-.04c-1.21-10.78-2.9-21.16-1.56-32.07a.44.44 0 01.65-.33l3.72 2.11a.7.69 20.6 01.34.73c-.24 1.34.43 3.03.51 4.02 1.6 19.35 6.14 39.71 19.5 54.62a.03.03 0 00.04 0l.2-.17a.27.27 0 00.04-.35q-7.66-11.5-9.71-24.54c-1.53-9.63-4.03-19-3.81-27.79.45-17.23 4-36.1 12.22-51.48.96-1.78 1.4-3.1.48-5.13-4.6-10.21 1.94-22.08 9.66-29.22q5.32-4.93 9.43-11.11a.34.34 0 00-.5-.46l-9.15 7.43a.4.4 0 01-.62-.16c-.81-2.08 17.23-18.79 21.07-22.17q1.01-.89-.16-.23-11.77 6.54-21.85 15.47-.38.34-.38-.17-.01-1.33.73-2.06 3.15-3.09 3.84-6.9 10.15-10.01 22.77-16.77c31.53-18.82 70.61-24.66 105.85-12.15a.47.46 8.4 00.63-.46l-.02-.38a.33.33 0 00-.2-.29c-36.37-16.47-77.92-10.09-111.64 9.25-9.4 5.39-17.41 10.15-25.9 18.02q-20.89 19.38-34.06 43.02c-3.48 6.27-6.38 13.78-9.35 20.74-10.17 23.81-12.5 49.5-3.1 74.03 6.52 17.02 15.63 31.73 30.16 43.18 6.48 5.11 14.73 8.31 22.53 11.59 3.84 1.62 8.8 2.07 11.84 2.79q8.55 2.02 14.72 2.42c13.47.86 32.78 1.2 49.08-.24a2.57 2.56-5.5 002.33-2.82c-.27-2.57-15.41-.66-15.97-.65-15.25.28-33.21.18-49.19-3.34-1.68-.37-2.85-1.45-4.39-1.84-24.93-6.24-41.73-19.99-51.82-44.37zm105.9-140.55c28.94-6.87 68.86-10.24 95.39 5.7q.35.2.62.1.37-.16.05-.4c-4.77-3.6-9.49-7.15-15.21-9.07-17.35-5.8-35.1-6.53-53.73-5.96-9.98.3-23.86 3.97-33.05 6.76q-16.7 5.08-31.98 16.38-1.09.81.21 1.19l3.4.99a.89.89 0 00.79-.14q14.8-11.11 33.51-15.55zm115.56 106.2q-.19 1.75.6 3.57c2.75 7.51 7.66 13.89 11.71 20.67q.25.42.48-.01c6.52-12.35 8.29-21.2 10.47-36.13q.1-.71-.16-1.14-.32-.51-.5.07l-2.85 8.9q-.3.91-.73.05-1.43-2.79-.46-5.93a.1.09-70.6 00-.05-.12l-.27-.08a.26.26 0 00-.31.11l-1.47 2.38a.52.51-43.4 01-.89-.02c-1.64-3-.41-12.02-1.19-16.28q-.18-.96-.44-.01l-2.37 8.77a1.21 1.17-5.7 01-.66.78q-.48.22-1.14.14c2.63-10.74 3.68-20.08 2.41-30.91-.31-9.47-.38-19.36-3.38-28.26-3.78-11.2-8.82-25.24-16.89-34.47a.35.35 0 00-.56.4q4.05 7.12 6.5 15.09c4.59 14.97 9.19 31.08 8.97 46.78q-.12 8.59-2.39 25.68-.9 6.68-5.25 15.53a1.4 1.38 51.4 00-.1.94l.92 3.5zM288.71 457l5.33 4.75q6.59 8.85 5.83 19.61c-.29 4.12-1.83 8.79-2.8 13.28-2.14 9.93 3.8 12.47 7.62 18.92 4.4 7.43 2.37 16.85 6.3 24.53 2.81 5.48 8.98 11.77 14.29 13.81 8.39 3.23 17.18-6.53 20.54-13.34 2.19-4.43 3.19-11.05 5.3-15.57 7.37-15.75 25.05-25.61 29.46-43.01 2.65-10.49-1.77-23.25 4.14-32.49 5.81-9.09 13.23-24.85 9.49-34.94q-3.95-10.65-11.17-23.55-2.56-5.18-4.08-10.75c-.83-7.63-.16-14.29-.47-21.51-.74-17.52-9.47-28.38-22.79-39.3-21.67-17.77-50.04-21.22-77.35-19.26-12.98.94-27.23 3.75-39.1 9.77a.56.55-26.8 01-.75-.24q-.55-1.06.27-2.01a.81.81 0 00.17-.77c-2.05-6.87-3.47-13.13-11.33-15.04q-3.61-.87-8.15.62c-11.29 3.71-23.63 15.2-18.95 28.38 2.32 6.53 7.2 7.04 12.7 9.45a.47.47 0 01.22.65c-8.82 16.06-9.76 32.29-10.37 50.16-.39 11.54 3.01 26.53 9.16 36.4 10.22 16.39 27.98 27.25 46.28 31.96q17.67 4.55 30.21 9.49z"/><path fill="#94989b" d="M480.54 134.5q-1.36-.57-1.32-1.88a1.3 1.28 69.7 01.4-.89q1.09-1.03 1.15-2.49a1.08 1.05-69.3 00-.39-.89l-1.14-.95a.74.73 48.3 00-.87-.06l-3.24 2.09q4.04-7.46 5.02-15.85c.13-1.09-.42-2.67.09-3.89a.36.36 0 01.58-.12c7.11 7.07 5.1 17.33-.28 24.93z"/><ellipse fill="#94989b" transform="rotate(-40.9 392.486 -559.773)" rx="9.27" ry="4.97"/><path fill="#fff" d="M480.54 134.5q-6.02 7.95-13.08 15l-3.24 1.19a1.17 1.16-.6 00-.71.72q-.6 1.72-2.44 1.54a.46.45 20.4 01-.33-.72l.43-.57a1.05 1.04-33.9 00.17-.83c-.98-4.33 2.3-4.14 4.12-6.62q2.71-3.69 5.74-7.12a1.27 1.26-25.8 00.31-.88l-.05-.96 3.67-5.82 3.24-2.09a.74.73 48.3 01.87.06l1.14.95a1.08 1.05-69.3 01.39.89q-.06 1.46-1.15 2.49a1.3 1.28 69.7 00-.4.89q-.04 1.31 1.32 1.88z"/><path fill="#94989b" d="M471.46 135.25l.05.96a1.27 1.26-25.8 01-.31.88q-3.03 3.43-5.74 7.12c-1.82 2.48-5.1 2.29-4.12 6.62a1.05 1.04-33.9 01-.17.83l-.43.57a.46.45 20.4 00.33.72q1.84.18 2.44-1.54a1.17 1.16-.6 01.71-.72l3.24-1.19c-4.48 5.19-10.11 9.17-14.92 15.28q-19.09 24.3-27.27 36.49c-10.18 15.17-20.88 29.74-31.26 44.96q-5.48 8.04-11.21 15.9a.51.5 36.6 01-.71.1c-1.47-1.1-4.23-2.92-2.71-5.31q3.05-4.8 5.82-9.77c3.99-7.17 8.93-12.27 13.14-18.86q17.85-27.95 37.67-54.53c3.07-4.11 7.56-8.58 11.44-13.21q5.53-6.61 11.85-12.5c4.37-4.07 8.16-8.35 12.16-12.8zM231.29 253.75c-.23-1.18-1.09-1.19-1.97-.61-3.32 2.18-7.14 3.64-10.13 5.91q-12.09 9.14-23.45 19.18c-5.32 4.7-10.48 11.11-14.21 15.82-9.21 11.66-15.18 25.83-20.35 40.13-5.7 15.78-7.03 29.9-7.18 46.96-.1 10.65 4.24 21.51 7.67 31.49a.63.62 63 00.95.31q.26-.18.17-.69c10.09 24.38 26.89 38.13 51.82 44.37 1.54.39 2.71 1.47 4.39 1.84 15.98 3.52 33.94 3.62 49.19 3.34.56-.01 15.7-1.92 15.97.65a2.57 2.56-5.5 01-2.33 2.82c-16.3 1.44-35.61 1.1-49.08.24q-6.17-.4-14.72-2.42c-3.04-.72-8-1.17-11.84-2.79-7.8-3.28-16.05-6.48-22.53-11.59-14.53-11.45-23.64-26.16-30.16-43.18-9.4-24.53-7.07-50.22 3.1-74.03 2.97-6.96 5.87-14.47 9.35-20.74q13.17-23.64 34.06-43.02c8.49-7.87 16.5-12.63 25.9-18.02 33.72-19.34 75.27-25.72 111.64-9.25a.33.33 0 01.2.29l.02.38a.47.46 8.4 01-.63.46c-35.24-12.51-74.32-6.67-105.85 12.15z"/><path fill="#fff" d="M231.29 253.75q-12.62 6.76-22.77 16.77-15.59 12.04-26.63 28.4c-13.28 19.67-21.46 44.68-23.96 68.04l-.95 7.75c-.42 2.5-1.28 9.53.23 11.54q.86 13.43 5.58 26 .09.51-.17.69a.63.62 63 01-.95-.31c-3.43-9.98-7.77-20.84-7.67-31.49.15-17.06 1.48-31.18 7.18-46.96 5.17-14.3 11.14-28.47 20.35-40.13 3.73-4.71 8.89-11.12 14.21-15.82q11.36-10.04 23.45-19.18c2.99-2.27 6.81-3.73 10.13-5.91.88-.58 1.74-.57 1.97.61z"/><path fill="#94989b" d="M364.08 277.4c-26.53-15.94-66.45-12.57-95.39-5.7q-18.71 4.44-33.51 15.55a.89.89 0 01-.79.14l-3.4-.99q-1.3-.38-.21-1.19 15.28-11.3 31.98-16.38c9.19-2.79 23.07-6.46 33.05-6.76 18.63-.57 36.38.16 53.73 5.96 5.72 1.92 10.44 5.47 15.21 9.07q.32.24-.05.4-.27.1-.62-.1zM157.93 366.96c2.5-23.36 10.68-48.37 23.96-68.04q11.04-16.36 26.63-28.4-.69 3.81-3.84 6.9-.74.73-.73 2.06 0 .51.38.17 10.08-8.93 21.85-15.47 1.17-.66.16.23c-3.84 3.38-21.88 20.09-21.07 22.17a.4.4 0 00.62.16l9.15-7.43a.34.34 0 01.5.46q-4.11 6.18-9.43 11.11c-7.72 7.14-14.26 19.01-9.66 29.22.92 2.03.48 3.35-.48 5.13-8.22 15.38-11.77 34.25-12.22 51.48-.22 8.79 2.28 18.16 3.81 27.79q2.05 13.04 9.71 24.54a.27.27 0 01-.04.35l-.2.17a.03.03 0 01-.04 0c-13.36-14.91-17.9-35.27-19.5-54.62-.08-.99-.75-2.68-.51-4.02a.7.69 20.6 00-.34-.73l-3.72-2.11a.44.44 0 00-.65.33c-1.34 10.91.35 21.29 1.56 32.07q.05.5-.13.04c-3.67-8.97-8.92-18.55-8.59-28.45q.09-2.67-.52-4.37a.62.62 0 00-.71-.39c-.63.12-1.25.79-1.29 1.46q-.61 8.93-2.15 17.75-.08.46-.14 0l-2.37-19.56zM396.43 332.71q-1.03 1.26-.96 2.87c.29 6.62-.76 14.73-2.48 21.13q-1.32 4.91-2.68 9.81-1.53 5.49-6.06 11.38l-.92-3.5a1.4 1.38 51.4 01.1-.94q4.35-8.85 5.25-15.53 2.27-17.09 2.39-25.68c.22-15.7-4.38-31.81-8.97-46.78q-2.45-7.97-6.5-15.09a.35.35 0 01.56-.4c8.07 9.23 13.11 23.27 16.89 34.47 3 8.9 3.07 18.79 3.38 28.26z"/><path fill="#94989b" d="M378.96 378.25l-.24-.29a.29.28-49.5 00-.47.04q-.17.3.01.77c1.58 4.16-2.92 11.99-5.38 16.28q-2.16-12.29-3.1-24.75c-1.63-21.37-10-36.48-29.15-46.15q-12.37-6.25-16.3-7.77c-9.83-3.82-26.37-7.28-38.39-6.21-10.18.92-19.32 1.5-28.28 4.84q-9.37 3.5-17.73 9.14c-11.77 7.94-18.45 25.73-20.18 39.08-1.6 12.4.23 29.37 4.84 40.2 8.83 20.76 33.53 31.11 54.66 37.05q8.29 2.34 18.25 8.23-7.6.74-8.79 8.29-12.54-4.94-30.21-9.49c-18.3-4.71-36.06-15.57-46.28-31.96-6.15-9.87-9.55-24.86-9.16-36.4.61-17.87 1.55-34.1 10.37-50.16a.47.47 0 00-.22-.65c-5.5-2.41-10.38-2.92-12.7-9.45-4.68-13.18 7.66-24.67 18.95-28.38q4.54-1.49 8.15-.62c7.86 1.91 9.28 8.17 11.33 15.04a.81.81 0 01-.17.77q-.82.95-.27 2.01a.56.55-26.8 00.75.24c11.87-6.02 26.12-8.83 39.1-9.77 27.31-1.96 55.68 1.49 77.35 19.26 13.32 10.92 22.05 21.78 22.79 39.3.31 7.22-.36 13.88.47 21.51zM228.9 298.72c-1.88-1.63-4.88-3.81-7.61-4.78q-.61-.22-.17.25 5.49 5.8 8.7 13.12.3.69.6 0 2.28-5.28-1.52-8.59zm-18.89 3.09c5.05 2.91 9.31 7.56 14.24 9.75q.48.21.4-.31c-.53-3.7-12.4-12.38-14.72-9.97a.34.34 0 00.08.53zm49.45 2.88c-4.06.11-21.01 3.38-19.94 9.54a.67.67 0 00.88.52c5.41-1.87 15.69-4.7 19.7-8.49a.91.91 0 00-.64-1.57zm-50.52 14.62q3.87 2.94 8.03 1.28.48-.19 0-.4-6.72-2.83-12.61-7.44-.4-.31-.24.17 1.27 3.7 4.82 6.39zm.23 52.12c3.86.75 5.26-3.49 5.41-6.68q.75-15.49 8.22-29.01.36-.64.4-2.84a1.33 1.32 24.8 00-.34-.91q-1.47-1.63-3.69-1.2a1.4 1.4 0 00-.88.55c-7.21 9.56-10.26 21.03-10.94 32.87-.15 2.5-.61 4.62 1.02 6.72a1.37 1.34 76.5 00.8.5z"/><path fill="#1f1f1e" d="M228.9 298.72q3.8 3.31 1.52 8.59-.3.69-.6 0-3.21-7.32-8.7-13.12-.44-.47.17-.25c2.73.97 5.73 3.15 7.61 4.78zM210.01 301.81a.34.34 0 01-.08-.53c2.32-2.41 14.19 6.27 14.72 9.97q.08.52-.4.31c-4.93-2.19-9.19-6.84-14.24-9.75z"/><path fill="#fff" d="M259.46 304.69a.91.91 0 01.64 1.57c-4.01 3.79-14.29 6.62-19.7 8.49a.67.67 0 01-.88-.52c-1.07-6.16 15.88-9.43 19.94-9.54z"/><path fill="#1f1f1e" d="M372.88 395.05l2.75 4.96c5.34 10.86 10.83 21.23 4.09 32.73-6.62 11.3-9.43 17.76-8.38 30.45 1.63 19.77-12.06 32.13-26.94 46.89-7.62 7.55-2.37 17.95-7.98 25.34-4.03 5.32-11.79 2.92-15.32-1.35-4.31-5.22-5.16-17.13-6.55-23.46-1.62-7.4-6.98-11.35-5.49-19.79 2-11.33 4.01-21.86-1.77-32.57q-2.9-6.81-9.79-9.54-9.96-5.89-18.25-8.23c-21.13-5.94-45.83-16.29-54.66-37.05-4.61-10.83-6.44-27.8-4.84-40.2 1.73-13.35 8.41-31.14 20.18-39.08q8.36-5.64 17.73-9.14c8.96-3.34 18.1-3.92 28.28-4.84 12.02-1.07 28.56 2.39 38.39 6.21q3.93 1.52 16.3 7.77c19.15 9.67 27.52 24.78 29.15 46.15q.94 12.46 3.1 24.75zm-61.03 61.21c4.37 11.56 3.69 21.91 2.14 33.75-.94 7.2 2.9 14.32 5.09 21.62 1.94 6.44 2.22 13.06 4.7 18.31 1.45 3.09 8.8 7.59 9.9.97 1.68-10.01 2.53-16.6 8.36-24.86 1.05-1.48 3.76-2.91 5.21-4.49 5.91-6.4 13.29-13.82 16.4-21.44 3.22-7.9 3.06-15.5 3.11-23.9.06-7.35 2.57-13.9 6.15-20.05q3.82-6.57 4.39-8.26 3.22-9.57-1.59-19.16c-8.09-13.17-9.29-25.06-11-41.12q-.96-8.98-2.69-13.43c-6.51-16.73-22.7-26.75-39.22-32.72-10.28-3.71-21.04-7.26-31.88-7.17q-11.51.1-22.83 2.38c-5.33 1.07-10.41 3.38-15.59 5.41q-11.82 4.63-18.35 15.48c-10.13 16.82-12.71 31.97-8.87 51.41 6.45 32.62 32.72 38.58 59.48 48.59 10.84 4.05 20.41 9.29 27.09 18.68zM208.94 319.31q-3.55-2.69-4.82-6.39-.16-.48.24-.17 5.89 4.61 12.61 7.44.48.21 0 .4-4.16 1.66-8.03-1.28z"/><path fill="#94989b" d="M375.71 408.75c-3.22 1.23-4.36 4.02-6.49 6.12q-2.42 2.39-3.98 5.5c-1.95 1.14-6.23.58-4.99 4.59q-1.19.27-1.49.53-21.45 18.47-46.91 30.77c-6.68-9.39-16.25-14.63-27.09-18.68-26.76-10.01-53.03-15.97-59.48-48.59-3.84-19.44-1.26-34.59 8.87-51.41q6.53-10.85 18.35-15.48c5.18-2.03 10.26-4.34 15.59-5.41q11.32-2.28 22.83-2.38c10.84-.09 21.6 3.46 31.88 7.17 16.52 5.97 32.71 15.99 39.22 32.72q1.73 4.45 2.69 13.43c1.71 16.06 2.91 27.95 11 41.12zm-68.783-73.22a6.12 1.82 89 001.713-6.152 6.12 1.82 89 00-1.927-6.087 6.12 1.82 89 00-1.713 6.15 6.12 1.82 89 001.927 6.088zm-49.907-4.54c3.99 1.75 4.49 9.01 4.83 12.8a.48.48 0 00.72.37c2.53-1.51 10.77-6.58 10.74-9.81-.02-2.01-2.94-4.64-4.95-2.72a1.05 1.04 65.6 00-.32.86c.14 1.57-.04 4.81-2.16 4.7a.67.66 86 01-.61-.54q-1.19-6.1-2.56-8.83c-4.27-8.58-12.98.9-7.07 6.95q.39.39.45-.15l.43-3.35a.36.36 0 01.5-.28zm-6.84 10.49l5.65 6.34a.91.9-33.7 001.06.21q1.81-.87 2.76-2.64a.77.76 37.7 00-.12-.9l-11.86-12.68a.75.73 56.5 00-.83-.18c-6.17 2.51-1.84 10.56-.13 14.77a.9.89 82.3 00.7.54c3.5.48 2.51-3.39 2.42-5.32q-.02-.56.35-.14zm89.57-.73a.53.52-52 00-.64.08c-1.6 1.68-9.91 8.57-6.73 10.95a1.47 1.46 48.9 001.59.11c2.63-1.44 10.9-8.15 5.78-11.14zm-94.941 27.142a1.79 1.79 0 00-1.704-1.873l-9.63-.454a1.79 1.79 0 00-1.872 1.704l-.032.68a1.79 1.79 0 001.704 1.872l9.63.454a1.79 1.79 0 001.872-1.704l.032-.68zm98.741 6.018q.2-2.18 2.13-2.97a.76.75 68.3 01.99.43l3.47 9.05a.54.53-39.4 00.95.09q1.53-2.47 4.35-.77a1.58 1.57 3.9 01.63.72c1.63 3.77 3.55 10.58-3.4 10.24a.68.68 0 01-.63-.86c1.11-4.04-4.23-4.33-5.88-1.57a1.47 1.43 56.6 00-.18.93c.85 5.67 7.82 6.36 11.7 3.18 5.28-4.32 4.64-18.8-5.1-16.82a.4.4 0 01-.48-.39c.14-11.07-14.27-12-10.85 1.29a1.06 1.04-.4 00.76.74l2.35.57a.71.7-76.9 00.84-.53q.44-2-1.33-2.79a.54.52 15.3 01-.32-.54zm-31.07 25.64q.61 5.24 5.45 6.99c1.66.6 1 1.99 1.03 3.17q.23 9.46 1.46 18.86.19 1.38.06 3.99a.79.78 82.1 01-.54.72l-2.43.8a1.14 1.14 0 00-.57 1.75l8.3 11.52q.32.46.52-.07l4.57-12.4a1.4 1.4 0 00-1.19-1.88l-2.78-.26a.62.62 0 01-.56-.58q-.7-9.74-2.29-24.91-.12-1.19 1.17-1.43.49-.1.87-.41c6.35-5.16 1.21-16.11-7.13-13.79-1.55.43-2.94 1.4-4.47 2.17a1.75 1.71 33 01-.94.19c-8.83-.72-18.99-2.5-26.27-3.34q-15.77-1.82-31.57-3.62a.64.63-89.5 01-.55-.57l-.37-3.61a.62.62 0 00-.66-.55q-8.49.7-16.01 4.8-2.38 1.3.15 2.26l14.64 5.54a.69.69 0 00.85-.33l1.13-2.24a.75.73 13.9 01.7-.41c7.29.38 15.8 2.04 21.55 2.7q17.69 2.05 35.34 4.39a.62.62 0 01.54.55zm-41.918 15.69a1.85 1.85 0 00-2.445-.934l-7.941 3.552a1.85 1.85 0 00-.934 2.445l.196.438a1.85 1.85 0 002.445.933l7.941-3.552a1.85 1.85 0 00.934-2.445l-.196-.438z"/><ellipse fill="#1f1f1e" transform="rotate(89 -14.195 320.816)" rx="6.12" ry="1.82"/><path fill="#1f1f1e" d="M256.52 331.27l-.43 3.35q-.06.54-.45.15c-5.91-6.05 2.8-15.53 7.07-6.95q1.37 2.73 2.56 8.83a.67.66 86 00.61.54c2.12.11 2.3-3.13 2.16-4.7a1.05 1.04 65.6 01.32-.86c2.01-1.92 4.93.71 4.95 2.72.03 3.23-8.21 8.3-10.74 9.81a.48.48 0 01-.72-.37c-.34-3.79-.84-11.05-4.83-12.8a.36.36 0 00-.5.28z"/><path fill="#fff" d="M208.37 370.93c-1.63-2.1-1.17-4.22-1.02-6.72.68-11.84 3.73-23.31 10.94-32.87a1.4 1.4 0 01.88-.55q2.22-.43 3.69 1.2a1.33 1.32 24.8 01.34.91q-.04 2.2-.4 2.84-7.47 13.52-8.22 29.01c-.15 3.19-1.55 7.43-5.41 6.68a1.37 1.34 76.5 01-.8-.5z"/><path fill="#1f1f1e" d="M249.83 341.62c.09 1.93 1.08 5.8-2.42 5.32a.9.89 82.3 01-.7-.54c-1.71-4.21-6.04-12.26.13-14.77a.75.73 56.5 01.83.18l11.86 12.68a.77.76 37.7 01.12.9q-.95 1.77-2.76 2.64a.91.9-33.7 01-1.06-.21l-5.65-6.34q-.37-.42-.35.14z"/><path fill="#fff" d="M396.43 332.71c1.27 10.83.22 20.17-2.41 30.91q-3.83 9.29-9.17 17.85-.79-1.82-.6-3.57 4.53-5.89 6.06-11.38 1.36-4.9 2.68-9.81c1.72-6.4 2.77-14.51 2.48-21.13q-.07-1.61.96-2.87z"/><path fill="#1f1f1e" d="M339.75 340.75c5.12 2.99-3.15 9.7-5.78 11.14a1.47 1.46 48.9 01-1.59-.11c-3.18-2.38 5.13-9.27 6.73-10.95a.53.52-52 01.64-.08z"/><path fill="#94989b" d="M384.85 381.47q5.34-8.56 9.17-17.85.66.08 1.14-.14a1.21 1.17-5.7 00.66-.78l2.37-8.77q.26-.95.44.01c.78 4.26-.45 13.28 1.19 16.28a.52.51-43.4 00.89.02l1.47-2.38a.26.26 0 01.31-.11l.27.08a.1.09-70.6 01.05.12q-.97 3.14.46 5.93.43.86.73-.05l2.85-8.9q.18-.58.5-.07.26.43.16 1.14c-2.18 14.93-3.95 23.78-10.47 36.13q-.23.43-.48.01c-4.05-6.78-8.96-13.16-11.71-20.67z"/><ellipse fill="#fce6aa" transform="rotate(39.8 -281.406 784.922)" rx=".82" ry=".69"/><rect fill="#1f1f1e" x="-6.61" y="-2.13" transform="rotate(2.7 -7686.965 5237.573)" width="13.22" height="4.26" rx="1.79"/><path fill="#1f1f1e" d="M343.87 374.45q1.77.79 1.33 2.79a.71.7-76.9 01-.84.53l-2.35-.57a1.06 1.04-.4 01-.76-.74c-3.42-13.29 10.99-12.36 10.85-1.29a.4.4 0 00.48.39c9.74-1.98 10.38 12.5 5.1 16.82-3.88 3.18-10.85 2.49-11.7-3.18a1.47 1.43 56.6 01.18-.93c1.65-2.76 6.99-2.47 5.88 1.57a.68.68 0 00.63.86c6.95.34 5.03-6.47 3.4-10.24a1.58 1.57 3.9 00-.63-.72q-2.82-1.7-4.35.77a.54.53-39.4 01-.95-.09l-3.47-9.05a.76.75 68.3 00-.99-.43q-1.93.79-2.13 2.97a.54.52 15.3 00.32.54z"/><path fill="#94989b" d="M156.98 374.71c.42 3.72.77 7.82.23 11.54-1.51-2.01-.65-9.04-.23-11.54z"/><path fill="#fff" d="M378.96 378.25q1.52 5.57 4.08 10.75-2.84 6.01-7.41 11.01l-2.75-4.96c2.46-4.29 6.96-12.12 5.38-16.28q-.18-.47-.01-.77a.29.28-49.5 01.47-.04l.24.29z"/><path fill="#1f1f1e" d="M311.94 399q-17.65-2.34-35.34-4.39c-5.75-.66-14.26-2.32-21.55-2.7a.75.73 13.9 00-.7.41l-1.13 2.24a.69.69 0 01-.85.33l-14.64-5.54q-2.53-.96-.15-2.26 7.52-4.1 16.01-4.8a.62.62 0 01.66.55l.37 3.61a.64.63-89.5 00.55.57q15.8 1.8 31.57 3.62c7.28.84 17.44 2.62 26.27 3.34a1.75 1.71 33 00.94-.19c1.53-.77 2.92-1.74 4.47-2.17 8.34-2.32 13.48 8.63 7.13 13.79q-.38.31-.87.41-1.29.24-1.17 1.43 1.59 15.17 2.29 24.91a.62.62 0 00.56.58l2.78.26a1.4 1.4 0 011.19 1.88l-4.57 12.4q-.2.53-.52.07l-8.3-11.52a1.14 1.14 0 01.57-1.75l2.43-.8a.79.78 82.1 00.54-.72q.13-2.61-.06-3.99-1.23-9.4-1.46-18.86c-.03-1.18.63-2.57-1.03-3.17q-4.84-1.75-5.45-6.99a.62.62 0 00-.54-.55zm12.501.528a3.98 3.31 5.6 00-3.638-3.682 3.98 3.31 5.6 00-4.284 2.906 3.98 3.31 5.6 003.638 3.682 3.98 3.31 5.6 004.284-2.906z"/><path fill="#94989b" d="M383.04 389q7.22 12.9 11.17 23.55c3.74 10.09-3.68 25.85-9.49 34.94-5.91 9.24-1.49 22-4.14 32.49-4.41 17.4-22.09 27.26-29.46 43.01-2.11 4.52-3.11 11.14-5.3 15.57-3.36 6.81-12.15 16.57-20.54 13.34-5.31-2.04-11.48-8.33-14.29-13.81-3.93-7.68-1.9-17.1-6.3-24.53-3.82-6.45-9.76-8.99-7.62-18.92.97-4.49 2.51-9.16 2.8-13.28q.76-10.76-5.83-19.61 6.99-.45 13.25-3.5c5.78 10.71 3.77 21.24 1.77 32.57-1.49 8.44 3.87 12.39 5.49 19.79 1.39 6.33 2.24 18.24 6.55 23.46 3.53 4.27 11.29 6.67 15.32 1.35 5.61-7.39.36-17.79 7.98-25.34 14.88-14.76 28.57-27.12 26.94-46.89-1.05-12.69 1.76-19.15 8.38-30.45 6.74-11.5 1.25-21.87-4.09-32.73q4.57-5 7.41-11.01z"/><ellipse fill="#94989b" transform="rotate(5.6 -3920.265 3475.915)" rx="3.98" ry="3.31"/><path fill="#fff" d="M375.71 408.75q4.81 9.59 1.59 19.16-.57 1.69-4.39 8.26c-3.58 6.15-6.09 12.7-6.15 20.05-.05 8.4.11 16-3.11 23.9-3.11 7.62-10.49 15.04-16.4 21.44-1.45 1.58-4.16 3.01-5.21 4.49-5.83 8.26-6.68 14.85-8.36 24.86-1.1 6.62-8.45 2.12-9.9-.97-2.48-5.25-2.76-11.87-4.7-18.31-2.19-7.3-6.03-14.42-5.09-21.62 1.55-11.84 2.23-22.19-2.14-33.75q25.46-12.3 46.91-30.77.3-.26 1.49-.53c2.64.21 10.07.06 12.54-2.18a.82.82 0 00.19-.96l-.79-1.7a.7.69 74.5 00-.7-.4l-6.25.65q1.56-3.11 3.98-5.5c2.13-2.1 3.27-4.89 6.49-6.12zm-18.479 65.239a5.62 2.15 52.5 00-1.715-5.768 5.62 2.15 52.5 00-5.127-3.15 5.62 2.15 52.5 001.715 5.768 5.62 2.15 52.5 005.127 3.15zM327.15 498.11q-.58-4.19 1.69-7.72a.46.45-48.6 01.74-.05l1.25 1.48a1.18 1.17 66.9 001.01.41c3.7-.38 2.4-5.44.16-6.83a1.04 1.02 50.8 00-.9-.1c-7.81 2.81-9.44 13.16-8.35 20.19 1.76 11.29 16.17 5.93 14.98-5.03-.12-1.05.06-2.86-1.32-3.45q-4.37-1.86-8.7 1.33a.35.35 0 01-.56-.23z"/><rect fill="#1f1f1e" x="-6.2" y="-2.09" transform="rotate(-24.1 1111.542 -411.705)" width="12.4" height="4.18" rx="1.85"/><path fill="#1f1f1e" d="M360.25 424.96c-1.24-4.01 3.04-3.45 4.99-4.59l6.25-.65a.7.69 74.5 01.7.4l.79 1.7a.82.82 0 01-.19.96c-2.47 2.24-9.9 2.39-12.54 2.18z"/><path fill="#fff" d="M297.5 448.71q6.89 2.73 9.79 9.54-6.26 3.05-13.25 3.5l-5.33-4.75q1.19-7.55 8.79-8.29z"/><ellipse fill="#1f1f1e" transform="rotate(52.5 -299.151 593.493)" rx="5.62" ry="2.15"/><path fill="#1f1f1e" d="M327.71 498.34q4.33-3.19 8.7-1.33c1.38.59 1.2 2.4 1.32 3.45 1.19 10.96-13.22 16.32-14.98 5.03-1.09-7.03.54-17.38 8.35-20.19a1.04 1.02 50.8 01.9.1c2.24 1.39 3.54 6.45-.16 6.83a1.18 1.17 66.9 01-1.01-.41l-1.25-1.48a.46.45-48.6 00-.74.05q-2.27 3.53-1.69 7.72a.35.35 0 00.56.23zm.45 8.64c1.07.29 1.83.51 2.95.29a.69.69 0 00.55-.66l.13-5.39q.02-.96-.73-.37-2.82 2.22-3.1 5.84a.28.27-80 00.2.29z"/><path fill="#fff" d="M331.11 507.27c-1.12.22-1.88 0-2.95-.29a.28.27-80 01-.2-.29q.28-3.62 3.1-5.84.75-.59.73.37l-.13 5.39a.69.69 0 01-.55.66z"/><path fill="#94989b" d="M.38 590.25h590.2a.12.12 0 01.1.19l-.17.26a.12.12 0 01-.1.05H.37a.12.12 0 01-.12-.13l.01-.26a.12.12 0 01.12-.11z"/></svg>