<svg xmlns="http://www.w3.org/2000/svg" viewBox="0 0 591 591"><g stroke-width="2" fill="none"><path stroke="#100f0f" vector-effect="non-scaling-stroke" d="M590.06 0l.19.29"/><path stroke="#7d7f71" vector-effect="non-scaling-stroke" d="M590.25.29l.04 589.46"/><path stroke="gray" vector-effect="non-scaling-stroke" d="M590.29 589.75l-.54.54"/><path stroke="#7d7f71" vector-effect="non-scaling-stroke" d="M589.75 590.29q-291.28-.02-582.56-.16-3.35 0-6.69-.09"/><path stroke="#100f0f" vector-effect="non-scaling-stroke" d="M.5 590.04l-.5-.1"/><path stroke="#7d7f71" vector-effect="non-scaling-stroke" d="M586.25 4.52a.27.27 0 00-.27-.27H4.52a.27.27 0 00-.27.27v581.46a.27.27 0 00.27.27h581.46a.27.27 0 00.27-.27V4.52"/><path stroke="#8d8e7f" vector-effect="non-scaling-stroke" d="M591 587.31c-.84-.45-.25-537.06-.25-586.81a.25.24-86.1 00-.21-.25q-.17-.02-.29.04"/><path stroke="#fdfef0" vector-effect="non-scaling-stroke" d="M591 590.06l-.71-.31"/><path stroke="#f9f1c8" vector-effect="non-scaling-stroke" d="M40.78 25.72c-9.65.5-17.13 7.41-17.14 17.28q-.03 21.5-.39 44.32a1.18 1.18 0 001.6 1.13q.66-.24 1.81-1.3c20.07-18.4 39.12-37.76 58.6-56.9q1.83-1.8 3.46-3.86a.54.53-69.2 00-.39-.87q-23.85-1.04-47.55.2"/><path stroke="#7d7f71" vector-effect="non-scaling-stroke" d="M112.46 303.72q-10.47 29.55-14.5 51.02-5.22 27.89-2.31 61.58.75 8.65 2.14 15.43"/><path stroke="#8d8e7f" vector-effect="non-scaling-stroke" d="M97.79 431.75l1.42 6"/><path stroke="#7d7f71" vector-effect="non-scaling-stroke" d="M99.21 437.75q6.06 24.77 17.58 47.5"/><path stroke="#8d8e7f" vector-effect="non-scaling-stroke" d="M116.79 485.25c6.63 12.36 8.26 24.77 11.18 39.7q1.67 8.49 3.74 11.58c8.46 12.6 21.68 14.02 32.65 3.82q10.85-10.08 23.22-18.39a.6.59-38.4 01.76.08q5.46 5.85 12.31 9.9c5.48 3.23 9.3 8.8 15.07 10.92 9.35 3.43 14.47 1.68 19.35-7.12a.98.97 10.8 01.74-.5c2.21-.28 5.52.1 6.69-2.25q2.77-5.53 6.29-10.65c1.22-1.77 1.93-1.74 3.96-1.6q5.5.39 18.08.68c5.57.13 11.68 1.11 17.6 1.34 3.56.14 8.69-3.4 11.93-5.01a1.32 1.31-40.8 011.32.09q7.12 4.87 12.82 11.29a1.5 1.5 0 001.66.41l4.05-1.52a1.13 1.13 0 011.44.62c1.45 3.43 3.49 5.94 7.37 6.66 9.34 1.72 13.28-2.78 17.73-9.84 2.04-3.24 5.73-5.54 8.8-7.76 3.03-2.19 5.24-4.53 7.64-7.2a.71.71 0 01.81-.18c19.82 8.5 41.57 13.38 62.63 17.7 8.3 1.71 16.38 2.09 24.77 2.47q8.29.37 11.94-1.17c9.24-3.9 9.66-15.94 6.72-24.36-2.11-6.04-.71-13.38 3.75-18.06 4.47-4.68 7.74-8.52 7.74-15.63a.76.75-12 01.45-.69c6.62-2.97 13.08-6.4 10.36-15.09a1.95 1.85-48.2 01-.03-.96c1.01-4.39.52-7.93-3.5-10.47a.72.71 21.3 01-.33-.74q1.54-8.45-5.7-11.39c-1.77-.72-4.26-.36-6.25-.45a1.18 1.17-19.5 01-.83-.39q-1.22-1.36-1.51-2.06-5.77-13.59-19.25-6.67c-1.32.68-2.28 2.77-2.2 4.43.24 4.56.43 8.41-.29 13.24q-.64 4.21-.72 8.49c-.17 8.99-11.81 20.01-18.89 24.31-3.69 2.23-8.19 3.36-12.44 4.43a2.46 2.44 63.5 01-2.52-.85q-14.81-18.68-26.7-40.11-19-34.25-39.8-82.38c-5.97-13.8-11.88-28.82-13.14-43.92q-2.25-26.95-.52-53.94 1.05-16.32 3.75-27.07c4.03-16.09 6.48-25.09 6.83-38.88a1.09 1.09 0 01.41-.81c8.35-6.57 26.09-22.32 27.82-33.06q2.04-12.63 6.52-24.75a.45.45 0 00-.31-.59q-10.73-2.64-13.75-2.38c-15.77 1.39-28.16 9.49-39.2 20.58a.59.59 0 01-.76.07c-8.9-6.14-25.88-8.68-34.56-8.76q-8.13-.09-23.69 2.76a.51.51 0 01-.59-.4c-4.08-20.44-17.22-37.91-39.2-40.37a.82.82 0 00-.78.36q-2.95 4.4-3.74 9.99c-2.18 15.33-2.04 31.3 3.06 45.93a.67.65 65.5 01-.28.78c-20.36 12.41-38.64 28.51-55.28 45.52q-5.16 5.27-10.71 12.7c-7.57 10.14-15.99 19.91-22.35 30.57-10.38 17.38-21.32 36.25-28.47 55.47"/><path stroke="#100f0f" vector-effect="non-scaling-stroke" d="M116.79 485.25q1.22-1.46.29-3.33-5.65-11.32-9.64-23.32-.15-.46-.5-.8-.4-.4-.61-1.12-2.82-9.87-5.88-20.02a.42.42 0 00-.74-.13q-.53.75-.5 1.22M97.79 431.75q.28-.43.71-.65a.58.57 69 00.29-.66c-1.06-3.77-1.01-8.51-1.33-11.26q-1.06-9.14-1.14-15.43c-.05-4.78-.64-9.18-.23-13.65.54-5.74.45-11.85 1.05-17.2.92-8.32 1.59-16.83 3.45-24.76q1.8-7.63 4.02-15.14c2.29-7.76 5.17-18.87 8.55-28.03q.54-1.49-.7-1.25"/><path stroke="#595a5a" vector-effect="non-scaling-stroke" d="M248.29 134.13q-3.84-3.74-9.3-3.88-1-.02-.22.61c5.25 4.22 12.56 12.6 13.36 19.58a1.2 1.2 0 01-1.5 1.3q-8.26-2.25-14.28-8.27-.51-.51-.41.2c.42 3.03 2.1 4.68 4.51 7.41q6.79 7.67 17.46 7.62a.92.91 16.3 00.77-.42q.87-1.37 1.07-3.29c.97-8.9-1.22-15.87-6.31-24-2.57-4.1-8.68-10.2-13.94-9.83q-.68.05-.16.49 5.98 5.07 9.34 12.2a.24.24 0 01-.39.28M351.58 150.27c3.34-5.13 10.76-8.04 15.91-11.09a.48.48 0 00-.16-.89c-11.7-2.04-25.28 11.56-29.98 21.3-1.29 2.69.76 4.23 1.73 6.12q1.77 3.43 3.28 7.06a.64.64 0 00.69.39c7.72-1.18 10.47-4.08 16.26-8.76a.41.41 0 00-.39-.71l-9.02 2.89a2.13 2.13 0 01-2.78-2.04q0-1.3 1.1-2.82c4.42-6.1 7.67-10.12 14.94-13.37a.81.81 0 00-.4-1.54q-6 .53-10.99 3.66-.54.34-.19-.2"/><path stroke="#8f8f8e" vector-effect="non-scaling-stroke" d="M272.29 223.99a6.73 6.73 0 00-6.73-6.73 6.73 6.73 0 00-6.73 6.73 6.73 6.73 0 006.73 6.73 6.73 6.73 0 006.73-6.73M313.04 225.68a6.73 6.42-8.8 00-7.632-5.314 6.73 6.42-8.8 00-5.669 7.374 6.73 6.42-8.8 007.633 5.314 6.73 6.42-8.8 005.669-7.374"/><path stroke="#595a5a" vector-effect="non-scaling-stroke" d="M259.07 387.05q-3.38 14.37-2.41 28.64a1.29 1.28-41.5 002.54.15l3.29-16.75a.11.1 49.4 01.21.02q.68 8.55.15 17.13a.7.7 0 00.7.75q6.21.07 12-2.07a.81.79-8.1 00.51-.66c.84-8.14-1.88-18.53-5.41-26.05a.77.77 0 01.78-1.1c.33.04.91 1.28 1.1 1.48q8.95 9.62 9.37 22.9a.56.56 0 00.75.51l5.3-1.87a.68.67-15.9 00.44-.77q-2.85-14.06-12.57-24.41a.12.12 0 01.15-.18q12.82 7.81 16.08 22.39.06.27.38.3a.4.4 0 00.43-.44q-1.04-10.71-6-20.23a.51.51 0 01.76-.64q2.87 2.26 4.46 5.51.37.76.51-.08c1.1-6.82-5.97-17.58-10.41-22.47-4.48-4.94-11.42-6.4-18.19-6.8-3.85-.22-8.34-.95-11.67-.84-24.32.84-37.98 33.03-22.19 51.31a1.15 1.15 0 001.68.07c4.52-4.42 3.01-10.72 6.69-16.24q.28-.42.25.09-.33 6.02-.59 12.05c-.1 2.37 4.47 3.75 6.38 4.14a.45.44 6.1 00.53-.42q.23-9.51 3.09-18.58a.39.39 0 01.75.05q.16.91 0 2.05-1.2 8.77-.22 17.57.23 2.06 2.74 1.61a.76.76 0 00.62-.71q.63-14.37 6.92-27.45.22-.45.1.04M157.73 412.25c-8.01 4.53-8.69 26.72 6.69 23.28 10.04-2.25 6.25-15.77 2.38-21.49-2.18-3.22-5.97-3.53-9.07-1.79"/><path stroke="#8d8e7f" vector-effect="non-scaling-stroke" d="M280.96 431.5l.37-2.01a.67.67 0 00-.42-.75q-.88-.34-1.91.05"/><path stroke="#595a5a" vector-effect="non-scaling-stroke" d="M279 428.79q-3.5.48-6.21-1.51a.32.32 0 01.1-.57c3.05-.87 5.78-1.36 8.29-3.52q3.13-2.7 6.44-5.37a.59.59 0 00-.35-1.05q-.73-.03-1.84.43c-7.18 3-15.19 5.74-22.85 5.41-8.88-.4-17.65-3.88-26.04-6.66a.54.54 0 00-.67.29c-1.71 3.76-3.96 7.18.21 10.36 1.3.99 2.94.71 4.44.46a1.04 1.02 61.4 01.86.26q2.48 2.26 4.32 5.03c2.84 4.27 8.24 6.37 13.04 7.5a.4.4 0 00.47-.24l1.93-5.04a.59.58-64.4 01.83-.3c3.64 2.05 10.81 4.38 12.48-1.54q.26-.94.4.02l.48 3.26a.36.35 78.3 00.44.29q3.92-1.01 5.19-4.8"/><path stroke="#c7c9bc" vector-effect="non-scaling-stroke" d="M279 428.79q-.32 2.27 1.96 2.71"/><path stroke="#595a5a" vector-effect="non-scaling-stroke" d="M136.09 430.57c1.93 4.84 6.33 8.11 11.62 5.57a1.29 1.26-2.8 00.63-.68q3.25-8.68-2.1-14.94c-2.99-3.49-8.29-4.09-10.71.32-1.09 1.99-.2 7.81.56 9.73M204.22 457.56l8.52 6.06a.84.84 0 00.98 0l3.78-2.77a.69.67-26.7 00.26-.75c-.81-2.62-2.29-4.92-2.93-7.43q-1.22-4.76-2.15-9.66-.27-1.41.46-.17 1.29 2.21 3.8 3.08a1.26 1.26 0 01.79.79l1.63 4.79a.45.45 0 00.85.01q2.21-5.68 2.65-11.77.21-2.87.7-.03l1.92 11.29a.38.38 0 00.51.29q4.1-1.64 2.67-5.95-3.26-9.84-6.98-19.38a1.6 1.6 0 00-2.28-.8c-4.23 2.45-4.56 7.35-8.22 10.53-4.68 4.08-7.75 9.2-11.81 13.63-3.76 4.1-5.91 14.84-7.4 20.35a.41.41 0 00.47.51l16.31-2.9a.2.19 71.7 00.14-.29l-5.03-9.12q-.51-.93.36-.31M133.52 442.179a8.91 5.79 64.9 001.463-10.525 8.91 5.79 64.9 00-9.023-5.613 8.91 5.79 64.9 00-1.463 10.525 8.91 5.79 64.9 009.023 5.613M465.38 427.75q-1.95-1.98-3.21.49c-1.99 3.92-1.44 8.89-2.39 13.35-.61 2.86-1.87 7.19.7 9.55a.52.52 0 00.73-.03c5.63-6.26 12.36-15.06 4.17-23.36M291.96 438.55q2.9 9.48 3.19 12.38.34 3.51-.9 10.83-.51 3.02 2.54 4.72a1.12 1.11-39.8 00.92.08q6.95-2.5 9.67-9.29.2-.49.57-.85 2.24-2.17 3.9-4.79a.44.44 0 00-.29-.67c-2.94-.55-7.55.78-9.3-2.25-3.6-6.23-4.35-16.96-11.76-20.15a.62.61 14.7 00-.85.49q-1.13 10.55-6.01 19.95a2.62 2.62 0 00-.08 2.24l4.63 10.77a.53.52-48.9 00.99-.07q3.14-11.28 2.65-23.37-.02-.5.13-.02M240.17 444.76l7.95 2.16a.57.57 0 00.64-.84q-4.79-8.31-12.03-14.59-.72-.63-.46.29l3.7 12.79a.29.29 0 00.2.19M117.16 440.96c-.23 4.96 8.44 11.83 10.42 5.63a1.37 1.35 42.9 00-.04-.93c-1.38-3.18-3.98-5.71-5.91-8.65a2.16 2.15-33.9 00-3.03-.59c-1.17.82-1.37 3.01-1.44 4.54M469.33 449.66q3.14.97 5.77 2.91a.64.64 0 00.78-.02c2.94-2.41 7.95-8.76 6.21-12.85q-1.11-2.65-4.75-2.29a1.39 1.38-84.3 00-1.19.98q-1.96 6.47-6.85 11.17a.06.06 0 00.03.1M139.07 498.65a.3.3 0 01-.18-.56c16.69-8.94 24.2-23.29 24.54-42.1.07-4.08-1.59-12.07-5.82-14.15-5.33-2.61-14.38-.26-19.46 1.97q-4.3 1.89-7.11 5.45c-9.18 11.6-9.44 29.08-1.56 41.41a1.26 1.26 0 01.18.91c-.28 1.62-.6 2.68-.2 4.39q2.6 11.01 3.02 16.78c.73 10.1 3.52 28.6 18.29 27.42 15.47-1.24 17.94-18.81 12.2-29.93q-2.61-5.05-4.32-10.7a.41.41 0 00-.74-.11q-7.01 10.75-18.84 16a.55.55 0 01-.63-.86c7.87-8.98 16.68-14.24 20.24-26.27a.43.42 75.5 00-.71-.42c-2.37 2.4-4.13 5.2-6.96 6.77q-5.65 3.13-11.94 4M114.33 449.5c.32 12.03 13.84 5.29 6.67.74q-1.98-1.26-4.05-2.53a.83.83 0 00-.92.03l-1.3.94a.97.96 71.3 00-.4.82M485.86 449.98q-2.31 4.22-6.98 5.83a.6.59 64.8 00-.31.87l1.23 1.98a.54.53 51.6 00.84.1c2.49-2.57 5.41-3.58 6.72-7.51.23-.72-.01-1.92-.96-1.69a.86.84-82.4 00-.54.42M460.25 493.73a.95.94 17.1 01-.88-1.66c4.82-3.3 9.74-6.87 12.3-12.2 5.03-10.49 3.01-15.6-1.68-25.44-2.73-5.7-8.19-3.16-11.03.77-7.56 10.42-11.97 19.34-9.97 32.43.46 2.97 2.64 4.02 2.39 7.28q-.35 4.69-3.18 9.51c-2.72 4.62-3.47 14.04.78 18.57a1.46 1.44 72 00.85.44c2.23.31 4.44 1.2 6.52 1.12 8.93-.33 9.92-9.51 8.08-16.35q-.98-3.63-1.13-5.51c-.31-3.97.55-6.83.33-9.94a.23.23 0 00-.32-.2l-3.06 1.18M319.94 461.08q3.81 3.55 8.74 4.91a1.11 1.08 35.1 00.92-.15c6.45-4.41-6.21-11.69-9.44-13.61a.79.77 34.5 00-1.01.18l-6.99 8.54a.63.63 0 00.6 1.02l6.43-1.12a.89.88 61.8 01.75.23M488.908 460.136a4.46.75-34 00-4.117 1.872 4.46.75-34 00-3.279 3.116 4.46.75-34 004.117-1.872 4.46.75-34 003.279-3.116M274.21 486.25q-1.65 1.11-3.67 1.25"/><path stroke="#8f8f8e" vector-effect="non-scaling-stroke" d="M270.54 487.5l-.25-.32a1.38 1.34-14.6 00-.86-.49l-45.16-6.7a.74.74 0 00-.81.98c2.11 5.9 4.05 14.39-5.97 13.56q-5.24-.44-7.3-5.01a.63.62-14.3 00-.63-.37q-3.48.33-3.3 3.8a.97.95-80.6 00.57.82c7.23 3.19 12.41 12.14 17.07 18.28q1.25 1.63 3.35 1.59 16.04-.33 33.17.82c9.03.6 18.89.57 28.37 1.34a1.76 1.76 0 00.93-.18q22.09-11.1 44.41-21.79c4.17-1.99 7.68-7.08 11.79-9.89 2.57-1.76 5.78-1.82 8.68-3.9a.65.65 0 00-.11-1.12q-9.84-4.45-18.85-10.37a1.02 1.02 0 00-1.21.07c-4.68 3.89-14.89 1.16-19.28-2.76a.77.76 53.8 00-.82-.13q-20.58 9.34-40.12 20.52"/><path stroke="#c9cacb" vector-effect="non-scaling-stroke" d="M270.54 487.5c3.62 8.15 9.14 15.38 13.62 23.07q.85 1.45 2.99 2.41a.49.48-70.2 00.67-.32q.23-.85-.58-1.49-.41-.33-.61-.82-4.75-11.12-10.31-21.86c-.5-.99-1.31-1.54-2.11-2.24"/><path stroke="#595a5a" vector-effect="non-scaling-stroke" d="M212.41 484.51c2.91 2.61 3.1 5.97 8.07 5.11a.93.93 0 00.74-1.15q-2.67-10.18-11.97-15.03a1.07 1.05 44.4 00-.99 0c-3.58 1.84-7.63 2.17-11.58 4.05a.51.51 0 00-.28.56l2.51 13.07a1.02 1.02 0 001.46.72q.43-.21.77-.69 2.24-3.12 4.59-6.22a1.28 1.24 16.7 01.94-.49l4.87-.24a1.18 1.18 0 01.87.31M330.38 528.54q7.22.41 9.86-5.21c5.2-11.04 22.35-12.14 18.06-29.15-1.98-7.82-10.58-5.7-13.55-.64q-7.81 13.27-14.43 21.76-4.35 5.59-1.81 11.9a2.14 2.13 80.5 001.87 1.34M197.19 520.81q16.17 12.11 20.8 15.73 1.39 1.09 4.66 1.1c4.41.01 7.19-3.58 5.95-7.78q-.55-1.87-3.13-5.03-11.02-13.48-16.31-20.5-4.05-5.37-10.51-4.85c-1.74.14-4.39 1.46-5.13 2.82q-6.08 11.22 3.67 18.51M247.69 424.98c2.53 4.07 14.08 10.28 15.88 3.03a1.16 1.16 0 00-1.34-1.42q-7.33 1.37-13.55-2.58a.71.71 0 00-.99.97"/><path stroke="#fdfef0" vector-effect="non-scaling-stroke" d="M589.94 591l-.19-.71"/><path stroke="#8d8e7f" vector-effect="non-scaling-stroke" d="M.5 590.04l-.09.32a.25.24-81.8 00.23.32l11.8.32M576.44 591q-3.38-.63-6.75 0"/><path stroke="#c7c9bc" vector-effect="non-scaling-stroke" d="M24.44 591q-3.38-.63-6.75 0"/></g><path d="M0 0h590.06l.19.29.04 589.46-.54.54q-291.28-.02-582.56-.16-3.35 0-6.69-.09l-.5-.1V0zm586.25 4.52a.27.27 0 00-.27-.27H4.52a.27.27 0 00-.27.27v581.46a.27.27 0 00.27.27h581.46a.27.27 0 00.27-.27V4.52z"/><path fill="#1f1e1d" d="M590.06 0h.94v587.31c-.84-.45-.25-537.06-.25-586.81a.25.24-86.1 00-.21-.25q-.17-.02-.29.04l-.19-.29z"/><path fill="#fafde1" d="M590.25.29q.12-.06.29-.04a.25.24-86.1 01.21.25c0 49.75-.59 586.36.25 586.81v2.75l-.71-.31L590.25.29zM586.25 585.98a.27.27 0 01-.27.27H4.52a.27.27 0 01-.27-.27V4.52a.27.27 0 01.27-.27h581.46a.27.27 0 01.27.27v581.46zM40.78 25.72c-9.65.5-17.13 7.41-17.14 17.28q-.03 21.5-.39 44.32a1.18 1.18 0 001.6 1.13q.66-.24 1.81-1.3c20.07-18.4 39.12-37.76 58.6-56.9q1.83-1.8 3.46-3.86a.54.53-69.2 00-.39-.87q-23.85-1.04-47.55.2zm71.68 278q-10.47 29.55-14.5 51.02-5.22 27.89-2.31 61.58.75 8.65 2.14 15.43l1.42 6q6.06 24.77 17.58 47.5c6.63 12.36 8.26 24.77 11.18 39.7q1.67 8.49 3.74 11.58c8.46 12.6 21.68 14.02 32.65 3.82q10.85-10.08 23.22-18.39a.6.59-38.4 01.76.08q5.46 5.85 12.31 9.9c5.48 3.23 9.3 8.8 15.07 10.92 9.35 3.43 14.47 1.68 19.35-7.12a.98.97 10.8 01.74-.5c2.21-.28 5.52.1 6.69-2.25q2.77-5.53 6.29-10.65c1.22-1.77 1.93-1.74 3.96-1.6q5.5.39 18.08.68c5.57.13 11.68 1.11 17.6 1.34 3.56.14 8.69-3.4 11.93-5.01a1.32 1.31-40.8 011.32.09q7.12 4.87 12.82 11.29a1.5 1.5 0 001.66.41l4.05-1.52a1.13 1.13 0 011.44.62c1.45 3.43 3.49 5.94 7.37 6.66 9.34 1.72 13.28-2.78 17.73-9.84 2.04-3.24 5.73-5.54 8.8-7.76 3.03-2.19 5.24-4.53 7.64-7.2a.71.71 0 01.81-.18c19.82 8.5 41.57 13.38 62.63 17.7 8.3 1.71 16.38 2.09 24.77 2.47q8.29.37 11.94-1.17c9.24-3.9 9.66-15.94 6.72-24.36-2.11-6.04-.71-13.38 3.75-18.06 4.47-4.68 7.74-8.52 7.74-15.63a.76.75-12 01.45-.69c6.62-2.97 13.08-6.4 10.36-15.09a1.95 1.85-48.2 01-.03-.96c1.01-4.39.52-7.93-3.5-10.47a.72.71 21.3 01-.33-.74q1.54-8.45-5.7-11.39c-1.77-.72-4.26-.36-6.25-.45a1.18 1.17-19.5 01-.83-.39q-1.22-1.36-1.51-2.06-5.77-13.59-19.25-6.67c-1.32.68-2.28 2.77-2.2 4.43.24 4.56.43 8.41-.29 13.24q-.64 4.21-.72 8.49c-.17 8.99-11.81 20.01-18.89 24.31-3.69 2.23-8.19 3.36-12.44 4.43a2.46 2.44 63.5 01-2.52-.85q-14.81-18.68-26.7-40.11-19-34.25-39.8-82.38c-5.97-13.8-11.88-28.82-13.14-43.92q-2.25-26.95-.52-53.94 1.05-16.32 3.75-27.07c4.03-16.09 6.48-25.09 6.83-38.88a1.09 1.09 0 01.41-.81c8.35-6.57 26.09-22.32 27.82-33.06q2.04-12.63 6.52-24.75a.45.45 0 00-.31-.59q-10.73-2.64-13.75-2.38c-15.77 1.39-28.16 9.49-39.2 20.58a.59.59 0 01-.76.07c-8.9-6.14-25.88-8.68-34.56-8.76q-8.13-.09-23.69 2.76a.51.51 0 01-.59-.4c-4.08-20.44-17.22-37.91-39.2-40.37a.82.82 0 00-.78.36q-2.95 4.4-3.74 9.99c-2.18 15.33-2.04 31.3 3.06 45.93a.67.65 65.5 01-.28.78c-20.36 12.41-38.64 28.51-55.28 45.52q-5.16 5.27-10.71 12.7c-7.57 10.14-15.99 19.91-22.35 30.57-10.38 17.38-21.32 36.25-28.47 55.47z"/><path fill="#f8e4ae" d="M23.64 43c.01-9.87 7.49-16.78 17.14-17.28q23.7-1.24 47.55-.2a.54.53-69.2 01.39.87q-1.63 2.06-3.46 3.86c-19.48 19.14-38.53 38.5-58.6 56.9q-1.15 1.06-1.81 1.3a1.18 1.18 0 01-1.6-1.13q.36-22.82.39-44.32z"/><path fill="#1f1e1d" d="M116.79 485.25q1.22-1.46.29-3.33-5.65-11.32-9.64-23.32-.15-.46-.5-.8-.4-.4-.61-1.12-2.82-9.87-5.88-20.02a.42.42 0 00-.74-.13q-.53.75-.5 1.22l-1.42-6q.28-.43.71-.65a.58.57 69 00.29-.66c-1.06-3.77-1.01-8.51-1.33-11.26q-1.06-9.14-1.14-15.43c-.05-4.78-.64-9.18-.23-13.65.54-5.74.45-11.85 1.05-17.2.92-8.32 1.59-16.83 3.45-24.76q1.8-7.63 4.02-15.14c2.29-7.76 5.17-18.87 8.55-28.03q.54-1.49-.7-1.25c7.15-19.22 18.09-38.09 28.47-55.47 6.36-10.66 14.78-20.43 22.35-30.57q5.55-7.43 10.71-12.7c16.64-17.01 34.92-33.11 55.28-45.52a.67.65 65.5 00.28-.78c-5.1-14.63-5.24-30.6-3.06-45.93q.79-5.59 3.74-9.99a.82.82 0 01.78-.36c21.98 2.46 35.12 19.93 39.2 40.37a.51.51 0 00.59.4q15.56-2.85 23.69-2.76c8.68.08 25.66 2.62 34.56 8.76a.59.59 0 00.76-.07c11.04-11.09 23.43-19.19 39.2-20.58q3.02-.26 13.75 2.38a.45.45 0 01.31.59q-4.48 12.12-6.52 24.75c-1.73 10.74-19.47 26.49-27.82 33.06a1.09 1.09 0 00-.41.81c-.35 13.79-2.8 22.79-6.83 38.88q-2.7 10.75-3.75 27.07-1.73 26.99.52 53.94c1.26 15.1 7.17 30.12 13.14 43.92q20.8 48.13 39.8 82.38 11.89 21.43 26.7 40.11a2.46 2.44 63.5 002.52.85c4.25-1.07 8.75-2.2 12.44-4.43 7.08-4.3 18.72-15.32 18.89-24.31q.08-4.28.72-8.49c.72-4.83.53-8.68.29-13.24-.08-1.66.88-3.75 2.2-4.43q13.48-6.92 19.25 6.67.29.7 1.51 2.06a1.18 1.17-19.5 00.83.39c1.99.09 4.48-.27 6.25.45q7.24 2.94 5.7 11.39a.72.71 21.3 00.33.74c4.02 2.54 4.51 6.08 3.5 10.47a1.95 1.85-48.2 00.03.96c2.72 8.69-3.74 12.12-10.36 15.09a.76.75-12 00-.45.69c0 7.11-3.27 10.95-7.74 15.63-4.46 4.68-5.86 12.02-3.75 18.06 2.94 8.42 2.52 20.46-6.72 24.36q-3.65 1.54-11.94 1.17c-8.39-.38-16.47-.76-24.77-2.47-21.06-4.32-42.81-9.2-62.63-17.7a.71.71 0 00-.81.18c-2.4 2.67-4.61 5.01-7.64 7.2-3.07 2.22-6.76 4.52-8.8 7.76-4.45 7.06-8.39 11.56-17.73 9.84-3.88-.72-5.92-3.23-7.37-6.66a1.13 1.13 0 00-1.44-.62l-4.05 1.52a1.5 1.5 0 01-1.66-.41q-5.7-6.42-12.82-11.29a1.32 1.31-40.8 00-1.32-.09c-3.24 1.61-8.37 5.15-11.93 5.01-5.92-.23-12.03-1.21-17.6-1.34q-12.58-.29-18.08-.68c-2.03-.14-2.74-.17-3.96 1.6q-3.52 5.12-6.29 10.65c-1.17 2.35-4.48 1.97-6.69 2.25a.98.97 10.8 00-.74.5c-4.88 8.8-10 10.55-19.35 7.12-5.77-2.12-9.59-7.69-15.07-10.92q-6.85-4.05-12.31-9.9a.6.59-38.4 00-.76-.08q-12.37 8.31-23.22 18.39c-10.97 10.2-24.19 8.78-32.65-3.82q-2.07-3.09-3.74-11.58c-2.92-14.93-4.55-27.34-11.18-39.7zm131.5-351.12q-3.84-3.74-9.3-3.88-1-.02-.22.61c5.25 4.22 12.56 12.6 13.36 19.58a1.2 1.2 0 01-1.5 1.3q-8.26-2.25-14.28-8.27-.51-.51-.41.2c.42 3.03 2.1 4.68 4.51 7.41q6.79 7.67 17.46 7.62a.92.91 16.3 00.77-.42q.87-1.37 1.07-3.29c.97-8.9-1.22-15.87-6.31-24-2.57-4.1-8.68-10.2-13.94-9.83q-.68.05-.16.49 5.98 5.07 9.34 12.2a.24.24 0 01-.39.28zm103.29 16.14c3.34-5.13 10.76-8.04 15.91-11.09a.48.48 0 00-.16-.89c-11.7-2.04-25.28 11.56-29.98 21.3-1.29 2.69.76 4.23 1.73 6.12q1.77 3.43 3.28 7.06a.64.64 0 00.69.39c7.72-1.18 10.47-4.08 16.26-8.76a.41.41 0 00-.39-.71l-9.02 2.89a2.13 2.13 0 01-2.78-2.04q0-1.3 1.1-2.82c4.42-6.1 7.67-10.12 14.94-13.37a.81.81 0 00-.4-1.54q-6 .53-10.99 3.66-.54.34-.19-.2zm-79.29 73.72a6.73 6.73 0 00-6.73-6.73 6.73 6.73 0 00-6.73 6.73 6.73 6.73 0 006.73 6.73 6.73 6.73 0 006.73-6.73zm40.75 1.69a6.73 6.42-8.8 00-7.632-5.314 6.73 6.42-8.8 00-5.669 7.374 6.73 6.42-8.8 007.633 5.314 6.73 6.42-8.8 005.669-7.374zm-53.97 161.37q-3.38 14.37-2.41 28.64a1.29 1.28-41.5 002.54.15l3.29-16.75a.11.1 49.4 01.21.02q.68 8.55.15 17.13a.7.7 0 00.7.75q6.21.07 12-2.07a.81.79-8.1 00.51-.66c.84-8.14-1.88-18.53-5.41-26.05a.77.77 0 01.78-1.1c.33.04.91 1.28 1.1 1.48q8.95 9.62 9.37 22.9a.56.56 0 00.75.51l5.3-1.87a.68.67-15.9 00.44-.77q-2.85-14.06-12.57-24.41a.12.12 0 01.15-.18q12.82 7.81 16.08 22.39.06.27.38.3a.4.4 0 00.43-.44q-1.04-10.71-6-20.23a.51.51 0 01.76-.64q2.87 2.26 4.46 5.51.37.76.51-.08c1.1-6.82-5.97-17.58-10.41-22.47-4.48-4.94-11.42-6.4-18.19-6.8-3.85-.22-8.34-.95-11.67-.84-24.32.84-37.98 33.03-22.19 51.31a1.15 1.15 0 001.68.07c4.52-4.42 3.01-10.72 6.69-16.24q.28-.42.25.09-.33 6.02-.59 12.05c-.1 2.37 4.47 3.75 6.38 4.14a.45.44 6.1 00.53-.42q.23-9.51 3.09-18.58a.39.39 0 01.75.05q.16.91 0 2.05-1.2 8.77-.22 17.57.23 2.06 2.74 1.61a.76.76 0 00.62-.71q.63-14.37 6.92-27.45.22-.45.1.04zm-101.34 25.2c-8.01 4.53-8.69 26.72 6.69 23.28 10.04-2.25 6.25-15.77 2.38-21.49-2.18-3.22-5.97-3.53-9.07-1.79zm123.23 19.25l.37-2.01a.67.67 0 00-.42-.75q-.88-.34-1.91.05-3.5.48-6.21-1.51a.32.32 0 01.1-.57c3.05-.87 5.78-1.36 8.29-3.52q3.13-2.7 6.44-5.37a.59.59 0 00-.35-1.05q-.73-.03-1.84.43c-7.18 3-15.19 5.74-22.85 5.41-8.88-.4-17.65-3.88-26.04-6.66a.54.54 0 00-.67.29c-1.71 3.76-3.96 7.18.21 10.36 1.3.99 2.94.71 4.44.46a1.04 1.02 61.4 01.86.26q2.48 2.26 4.32 5.03c2.84 4.27 8.24 6.37 13.04 7.5a.4.4 0 00.47-.24l1.93-5.04a.59.58-64.4 01.83-.3c3.64 2.05 10.81 4.38 12.48-1.54q.26-.94.4.02l.48 3.26a.36.35 78.3 00.44.29q3.92-1.01 5.19-4.8zm-144.87-.93c1.93 4.84 6.33 8.11 11.62 5.57a1.29 1.26-2.8 00.63-.68q3.25-8.68-2.1-14.94c-2.99-3.49-8.29-4.09-10.71.32-1.09 1.99-.2 7.81.56 9.73zm68.13 26.99l8.52 6.06a.84.84 0 00.98 0l3.78-2.77a.69.67-26.7 00.26-.75c-.81-2.62-2.29-4.92-2.93-7.43q-1.22-4.76-2.15-9.66-.27-1.41.46-.17 1.29 2.21 3.8 3.08a1.26 1.26 0 01.79.79l1.63 4.79a.45.45 0 00.85.01q2.21-5.68 2.65-11.77.21-2.87.7-.03l1.92 11.29a.38.38 0 00.51.29q4.1-1.64 2.67-5.95-3.26-9.84-6.98-19.38a1.6 1.6 0 00-2.28-.8c-4.23 2.45-4.56 7.35-8.22 10.53-4.68 4.08-7.75 9.2-11.81 13.63-3.76 4.1-5.91 14.84-7.4 20.35a.41.41 0 00.47.51l16.31-2.9a.2.19 71.7 00.14-.29l-5.03-9.12q-.51-.93.36-.31zm-70.7-15.381a8.91 5.79 64.9 001.463-10.525 8.91 5.79 64.9 00-9.023-5.613 8.91 5.79 64.9 00-1.463 10.525 8.91 5.79 64.9 009.023 5.613zm331.86-14.429q-1.95-1.98-3.21.49c-1.99 3.92-1.44 8.89-2.39 13.35-.61 2.86-1.87 7.19.7 9.55a.52.52 0 00.73-.03c5.63-6.26 12.36-15.06 4.17-23.36zm-173.42 10.8q2.9 9.48 3.19 12.38.34 3.51-.9 10.83-.51 3.02 2.54 4.72a1.12 1.11-39.8 00.92.08q6.95-2.5 9.67-9.29.2-.49.57-.85 2.24-2.17 3.9-4.79a.44.44 0 00-.29-.67c-2.94-.55-7.55.78-9.3-2.25-3.6-6.23-4.35-16.96-11.76-20.15a.62.61 14.7 00-.85.49q-1.13 10.55-6.01 19.95a2.62 2.62 0 00-.08 2.24l4.63 10.77a.53.52-48.9 00.99-.07q3.14-11.28 2.65-23.37-.02-.5.13-.02zm-51.79 6.21l7.95 2.16a.57.57 0 00.64-.84q-4.79-8.31-12.03-14.59-.72-.63-.46.29l3.7 12.79a.29.29 0 00.2.19zm-123.01-3.8c-.23 4.96 8.44 11.83 10.42 5.63a1.37 1.35 42.9 00-.04-.93c-1.38-3.18-3.98-5.71-5.91-8.65a2.16 2.15-33.9 00-3.03-.59c-1.17.82-1.37 3.01-1.44 4.54zm352.17 8.7q3.14.97 5.77 2.91a.64.64 0 00.78-.02c2.94-2.41 7.95-8.76 6.21-12.85q-1.11-2.65-4.75-2.29a1.39 1.38-84.3 00-1.19.98q-1.96 6.47-6.85 11.17a.06.06 0 00.03.1zm-330.26 48.99a.3.3 0 01-.18-.56c16.69-8.94 24.2-23.29 24.54-42.1.07-4.08-1.59-12.07-5.82-14.15-5.33-2.61-14.38-.26-19.46 1.97q-4.3 1.89-7.11 5.45c-9.18 11.6-9.44 29.08-1.56 41.41a1.26 1.26 0 01.18.91c-.28 1.62-.6 2.68-.2 4.39q2.6 11.01 3.02 16.78c.73 10.1 3.52 28.6 18.29 27.42 15.47-1.24 17.94-18.81 12.2-29.93q-2.61-5.05-4.32-10.7a.41.41 0 00-.74-.11q-7.01 10.75-18.84 16a.55.55 0 01-.63-.86c7.87-8.98 16.68-14.24 20.24-26.27a.43.42 75.5 00-.71-.42c-2.37 2.4-4.13 5.2-6.96 6.77q-5.65 3.13-11.94 4zm-24.74-49.15c.32 12.03 13.84 5.29 6.67.74q-1.98-1.26-4.05-2.53a.83.83 0 00-.92.03l-1.3.94a.97.96 71.3 00-.4.82zm371.53.48q-2.31 4.22-6.98 5.83a.6.59 64.8 00-.31.87l1.23 1.98a.54.53 51.6 00.84.1c2.49-2.57 5.41-3.58 6.72-7.51.23-.72-.01-1.92-.96-1.69a.86.84-82.4 00-.54.42zm-25.61 43.75a.95.94 17.1 01-.88-1.66c4.82-3.3 9.74-6.87 12.3-12.2 5.03-10.49 3.01-15.6-1.68-25.44-2.73-5.7-8.19-3.16-11.03.77-7.56 10.42-11.97 19.34-9.97 32.43.46 2.97 2.64 4.02 2.39 7.28q-.35 4.69-3.18 9.51c-2.72 4.62-3.47 14.04.78 18.57a1.46 1.44 72 00.85.44c2.23.31 4.44 1.2 6.52 1.12 8.93-.33 9.92-9.51 8.08-16.35q-.98-3.63-1.13-5.51c-.31-3.97.55-6.83.33-9.94a.23.23 0 00-.32-.2l-3.06 1.18zm-140.31-32.65q3.81 3.55 8.74 4.91a1.11 1.08 35.1 00.92-.15c6.45-4.41-6.21-11.69-9.44-13.61a.79.77 34.5 00-1.01.18l-6.99 8.54a.63.63 0 00.6 1.02l6.43-1.12a.89.88 61.8 01.75.23zm168.968-.944a4.46.75-34 00-4.117 1.872 4.46.75-34 00-3.279 3.116 4.46.75-34 004.117-1.872 4.46.75-34 003.279-3.116zM274.21 486.25q-1.65 1.11-3.67 1.25l-.25-.32a1.38 1.34-14.6 00-.86-.49l-45.16-6.7a.74.74 0 00-.81.98c2.11 5.9 4.05 14.39-5.97 13.56q-5.24-.44-7.3-5.01a.63.62-14.3 00-.63-.37q-3.48.33-3.3 3.8a.97.95-80.6 00.57.82c7.23 3.19 12.41 12.14 17.07 18.28q1.25 1.63 3.35 1.59 16.04-.33 33.17.82c9.03.6 18.89.57 28.37 1.34a1.76 1.76 0 00.93-.18q22.09-11.1 44.41-21.79c4.17-1.99 7.68-7.08 11.79-9.89 2.57-1.76 5.78-1.82 8.68-3.9a.65.65 0 00-.11-1.12q-9.84-4.45-18.85-10.37a1.02 1.02 0 00-1.21.07c-4.68 3.89-14.89 1.16-19.28-2.76a.77.76 53.8 00-.82-.13q-20.58 9.34-40.12 20.52zm-61.8-1.74c2.91 2.61 3.1 5.97 8.07 5.11a.93.93 0 00.74-1.15q-2.67-10.18-11.97-15.03a1.07 1.05 44.4 00-.99 0c-3.58 1.84-7.63 2.17-11.58 4.05a.51.51 0 00-.28.56l2.51 13.07a1.02 1.02 0 001.46.72q.43-.21.77-.69 2.24-3.12 4.59-6.22a1.28 1.24 16.7 01.94-.49l4.87-.24a1.18 1.18 0 01.87.31zm117.97 44.03q7.22.41 9.86-5.21c5.2-11.04 22.35-12.14 18.06-29.15-1.98-7.82-10.58-5.7-13.55-.64q-7.81 13.27-14.43 21.76-4.35 5.59-1.81 11.9a2.14 2.13 80.5 001.87 1.34zm-133.19-7.73q16.17 12.11 20.8 15.73 1.39 1.09 4.66 1.1c4.41.01 7.19-3.58 5.95-7.78q-.55-1.87-3.13-5.03-11.02-13.48-16.31-20.5-4.05-5.37-10.51-4.85c-1.74.14-4.39 1.46-5.13 2.82q-6.08 11.22 3.67 18.51z"/><path fill="#939597" d="M248.29 134.13a.24.24 0 00.39-.28q-3.36-7.13-9.34-12.2-.52-.44.16-.49c5.26-.37 11.37 5.73 13.94 9.83 5.09 8.13 7.28 15.1 6.31 24q-.2 1.92-1.07 3.29a.92.91 16.3 01-.77.42q-10.67.05-17.46-7.62c-2.41-2.73-4.09-4.38-4.51-7.41q-.1-.71.41-.2 6.02 6.02 14.28 8.27a1.2 1.2 0 001.5-1.3c-.8-6.98-8.11-15.36-13.36-19.58q-.78-.63.22-.61 5.46.14 9.3 3.88zM351.77 150.47q4.99-3.13 10.99-3.66a.81.81 0 01.4 1.54c-7.27 3.25-10.52 7.27-14.94 13.37q-1.1 1.52-1.1 2.82a2.13 2.13 0 002.78 2.04l9.02-2.89a.41.41 0 01.39.71c-5.79 4.68-8.54 7.58-16.26 8.76a.64.64 0 01-.69-.39q-1.51-3.63-3.28-7.06c-.97-1.89-3.02-3.43-1.73-6.12 4.7-9.74 18.28-23.34 29.98-21.3a.48.48 0 01.16.89c-5.15 3.05-12.57 5.96-15.91 11.09q-.35.54.19.2z"/><circle fill="#fff" cx="265.56" cy="223.99" r="6.73"/><ellipse fill="#fff" transform="rotate(-8.8 1626.375 -1877.592)" rx="6.73" ry="6.42"/><path d="M97.79 431.75q-1.39-6.78-2.14-15.43-2.91-33.69 2.31-61.58 4.03-21.47 14.5-51.02 1.24-.24.7 1.25c-3.38 9.16-6.26 20.27-8.55 28.03q-2.22 7.51-4.02 15.14c-1.86 7.93-2.53 16.44-3.45 24.76-.6 5.35-.51 11.46-1.05 17.2-.41 4.47.18 8.87.23 13.65q.08 6.29 1.14 15.43c.32 2.75.27 7.49 1.33 11.26a.58.57 69 01-.29.66q-.43.22-.71.65z"/><path fill="#939597" d="M258.97 387.01q-6.29 13.08-6.92 27.45a.76.76 0 01-.62.71q-2.51.45-2.74-1.61-.98-8.8.22-17.57.16-1.14 0-2.05a.39.39 0 00-.75-.05q-2.86 9.07-3.09 18.58a.45.44 6.1 01-.53.42c-1.91-.39-6.48-1.77-6.38-4.14q.26-6.03.59-12.05.03-.51-.25-.09c-3.68 5.52-2.17 11.82-6.69 16.24a1.15 1.15 0 01-1.68-.07c-15.79-18.28-2.13-50.47 22.19-51.31 3.33-.11 7.82.62 11.67.84 6.77.4 13.71 1.86 18.19 6.8 4.44 4.89 11.51 15.65 10.41 22.47q-.14.84-.51.08-1.59-3.25-4.46-5.51a.51.51 0 00-.76.64q4.96 9.52 6 20.23a.4.4 0 01-.43.44q-.32-.03-.38-.3-3.26-14.58-16.08-22.39a.12.12 0 00-.15.18q9.72 10.35 12.57 24.41a.68.67-15.9 01-.44.77l-5.3 1.87a.56.56 0 01-.75-.51q-.42-13.28-9.37-22.9c-.19-.2-.77-1.44-1.1-1.48a.77.77 0 00-.78 1.1c3.53 7.52 6.25 17.91 5.41 26.05a.81.79-8.1 01-.51.66q-5.79 2.14-12 2.07a.7.7 0 01-.7-.75q.53-8.58-.15-17.13a.11.1 49.4 00-.21-.02l-3.29 16.75a1.29 1.28-41.5 01-2.54-.15q-.97-14.27 2.41-28.64.12-.49-.1-.04zM164.42 435.53c-15.38 3.44-14.7-18.75-6.69-23.28 3.1-1.74 6.89-1.43 9.07 1.79 3.87 5.72 7.66 19.24-2.38 21.49z"/><path fill="#939597" d="M279 428.79q-.32 2.27 1.96 2.71-1.27 3.79-5.19 4.8a.36.35 78.3 01-.44-.29l-.48-3.26q-.14-.96-.4-.02c-1.67 5.92-8.84 3.59-12.48 1.54a.59.58-64.4 00-.83.3l-1.93 5.04a.4.4 0 01-.47.24c-4.8-1.13-10.2-3.23-13.04-7.5q-1.84-2.77-4.32-5.03a1.04 1.02 61.4 00-.86-.26c-1.5.25-3.14.53-4.44-.46-4.17-3.18-1.92-6.6-.21-10.36a.54.54 0 01.67-.29c8.39 2.78 17.16 6.26 26.04 6.66 7.66.33 15.67-2.41 22.85-5.41q1.11-.46 1.84-.43a.59.59 0 01.35 1.05q-3.31 2.67-6.44 5.37c-2.51 2.16-5.24 2.65-8.29 3.52a.32.32 0 00-.1.57q2.71 1.99 6.21 1.51zm-31.31-3.81c2.53 4.07 14.08 10.28 15.88 3.03a1.16 1.16 0 00-1.34-1.42q-7.33 1.37-13.55-2.58a.71.71 0 00-.99.97zM147.71 436.14c-5.29 2.54-9.69-.73-11.62-5.57-.76-1.92-1.65-7.74-.56-9.73 2.42-4.41 7.72-3.81 10.71-.32q5.35 6.26 2.1 14.94a1.29 1.26-2.8 01-.63.68z"/><path fill="#1f1e1d" d="M263.57 428.01c-1.8 7.25-13.35 1.04-15.88-3.03a.71.71 0 01.99-.97q6.22 3.95 13.55 2.58a1.16 1.16 0 011.34 1.42z"/><path fill="#939597" d="M203.86 457.87l5.03 9.12a.2.19 71.7 01-.14.29l-16.31 2.9a.41.41 0 01-.47-.51c1.49-5.51 3.64-16.25 7.4-20.35 4.06-4.43 7.13-9.55 11.81-13.63 3.66-3.18 3.99-8.08 8.22-10.53a1.6 1.6 0 012.28.8q3.72 9.54 6.98 19.38 1.43 4.31-2.67 5.95a.38.38 0 01-.51-.29l-1.92-11.29q-.49-2.84-.7.03-.44 6.09-2.65 11.77a.45.45 0 01-.85-.01l-1.63-4.79a1.26 1.26 0 00-.79-.79q-2.51-.87-3.8-3.08-.73-1.24-.46.17.93 4.9 2.15 9.66c.64 2.51 2.12 4.81 2.93 7.43a.69.67-26.7 01-.26.75l-3.78 2.77a.84.84 0 01-.98 0l-8.52-6.06q-.87-.62-.36.31z"/><ellipse fill="#939597" transform="rotate(64.9 -276.495 319.077)" rx="8.91" ry="5.79"/><path fill="#939597" d="M465.38 427.75c8.19 8.3 1.46 17.1-4.17 23.36a.52.52 0 01-.73.03c-2.57-2.36-1.31-6.69-.7-9.55.95-4.46.4-9.43 2.39-13.35q1.26-2.47 3.21-.49z"/><path fill="#fafde1" d="M280.96 431.5q-2.28-.44-1.96-2.71 1.03-.39 1.91-.05a.67.67 0 01.42.75l-.37 2.01z"/><path fill="#939597" d="M291.83 438.57q.49 12.09-2.65 23.37a.53.52-48.9 01-.99.07l-4.63-10.77a2.62 2.62 0 01.08-2.24q4.88-9.4 6.01-19.95a.62.61 14.7 01.85-.49c7.41 3.19 8.16 13.92 11.76 20.15 1.75 3.03 6.36 1.7 9.3 2.25a.44.44 0 01.29.67q-1.66 2.62-3.9 4.79-.37.36-.57.85-2.72 6.79-9.67 9.29a1.12 1.11-39.8 01-.92-.08q-3.05-1.7-2.54-4.72 1.24-7.32.9-10.83-.29-2.9-3.19-12.38-.15-.48-.13.02zM240.17 444.76a.29.29 0 01-.2-.19l-3.7-12.79q-.26-.92.46-.29 7.24 6.28 12.03 14.59a.57.57 0 01-.64.84l-7.95-2.16zM127.58 446.59c-1.98 6.2-10.65-.67-10.42-5.63.07-1.53.27-3.72 1.44-4.54a2.16 2.15-33.9 013.03.59c1.93 2.94 4.53 5.47 5.91 8.65a1.37 1.35 42.9 01.04.93z"/><path d="M116.79 485.25q-11.52-22.73-17.58-47.5-.03-.47.5-1.22a.42.42 0 01.74.13q3.06 10.15 5.88 20.02.21.72.61 1.12.35.34.5.8 3.99 12 9.64 23.32.93 1.87-.29 3.33z"/><path fill="#939597" d="M469.33 449.66a.06.06 0 01-.03-.1q4.89-4.7 6.85-11.17a1.39 1.38-84.3 011.19-.98q3.64-.36 4.75 2.29c1.74 4.09-3.27 10.44-6.21 12.85a.64.64 0 01-.78.02q-2.63-1.94-5.77-2.91zM139.07 498.65q6.29-.87 11.94-4c2.83-1.57 4.59-4.37 6.96-6.77a.43.42 75.5 01.71.42c-3.56 12.03-12.37 17.29-20.24 26.27a.55.55 0 00.63.86q11.83-5.25 18.84-16a.41.41 0 01.74.11q1.71 5.65 4.32 10.7c5.74 11.12 3.27 28.69-12.2 29.93-14.77 1.18-17.56-17.32-18.29-27.42q-.42-5.77-3.02-16.78c-.4-1.71-.08-2.77.2-4.39a1.26 1.26 0 00-.18-.91c-7.88-12.33-7.62-29.81 1.56-41.41q2.81-3.56 7.11-5.45c5.08-2.23 14.13-4.58 19.46-1.97 4.23 2.08 5.89 10.07 5.82 14.15-.34 18.81-7.85 33.16-24.54 42.1a.3.3 0 00.18.56zM121 450.24c7.17 4.55-6.35 11.29-6.67-.74a.97.96 71.3 01.4-.82l1.3-.94a.83.83 0 01.92-.03q2.07 1.27 4.05 2.53zM485.86 449.98a.86.84-82.4 01.54-.42c.95-.23 1.19.97.96 1.69-1.31 3.93-4.23 4.94-6.72 7.51a.54.53 51.6 01-.84-.1l-1.23-1.98a.6.59 64.8 01.31-.87q4.67-1.61 6.98-5.83zM460.25 493.73l3.06-1.18a.23.23 0 01.32.2c.22 3.11-.64 5.97-.33 9.94q.15 1.88 1.13 5.51c1.84 6.84.85 16.02-8.08 16.35-2.08.08-4.29-.81-6.52-1.12a1.46 1.44 72 01-.85-.44c-4.25-4.53-3.5-13.95-.78-18.57q2.83-4.82 3.18-9.51c.25-3.26-1.93-4.31-2.39-7.28-2-13.09 2.41-22.01 9.97-32.43 2.84-3.93 8.3-6.47 11.03-.77 4.69 9.84 6.71 14.95 1.68 25.44-2.56 5.33-7.48 8.9-12.3 12.2a.95.94 17.1 00.88 1.66zM319.19 460.85l-6.43 1.12a.63.63 0 01-.6-1.02l6.99-8.54a.79.77 34.5 011.01-.18c3.23 1.92 15.89 9.2 9.44 13.61a1.11 1.08 35.1 01-.92.15q-4.93-1.36-8.74-4.91a.89.88 61.8 00-.75-.23z"/><ellipse fill="#939597" transform="rotate(-34 999.202 -562.21)" rx="4.46" ry=".75"/><path fill="#fff" d="M270.54 487.5c3.62 8.15 9.14 15.38 13.62 23.07q.85 1.45 2.99 2.41a.49.48-70.2 00.67-.32q.23-.85-.58-1.49-.41-.33-.61-.82-4.75-11.12-10.31-21.86c-.5-.99-1.31-1.54-2.11-2.24q19.54-11.18 40.12-20.52a.77.76 53.8 01.82.13c4.39 3.92 14.6 6.65 19.28 2.76a1.02 1.02 0 011.21-.07q9.01 5.92 18.85 10.37a.65.65 0 01.11 1.12c-2.9 2.08-6.11 2.14-8.68 3.9-4.11 2.81-7.62 7.9-11.79 9.89q-22.32 10.69-44.41 21.79a1.76 1.76 0 01-.93.18c-9.48-.77-19.34-.74-28.37-1.34q-17.13-1.15-33.17-.82-2.1.04-3.35-1.59c-4.66-6.14-9.84-15.09-17.07-18.28a.97.95-80.6 01-.57-.82q-.18-3.47 3.3-3.8a.63.62-14.3 01.63.37q2.06 4.57 7.3 5.01c10.02.83 8.08-7.66 5.97-13.56a.74.74 0 01.81-.98l45.16 6.7a1.38 1.34-14.6 01.86.49l.25.32z"/><path fill="#939597" d="M211.54 484.2l-4.87.24a1.28 1.24 16.7 00-.94.49q-2.35 3.1-4.59 6.22-.34.48-.77.69a1.02 1.02 0 01-1.46-.72l-2.51-13.07a.51.51 0 01.28-.56c3.95-1.88 8-2.21 11.58-4.05a1.07 1.05 44.4 01.99 0q9.3 4.85 11.97 15.03a.93.93 0 01-.74 1.15c-4.97.86-5.16-2.5-8.07-5.11a1.18 1.18 0 00-.87-.31zM274.21 486.25c.8.7 1.61 1.25 2.11 2.24q5.56 10.74 10.31 21.86.2.49.61.82.81.64.58 1.49a.49.48-70.2 01-.67.32q-2.14-.96-2.99-2.41c-4.48-7.69-10-14.92-13.62-23.07q2.02-.14 3.67-1.25zM330.38 528.54a2.14 2.13 80.5 01-1.87-1.34q-2.54-6.31 1.81-11.9 6.62-8.49 14.43-21.76c2.97-5.06 11.57-7.18 13.55.64 4.29 17.01-12.86 18.11-18.06 29.15q-2.64 5.62-9.86 5.21zM197.19 520.81q-9.75-7.29-3.67-18.51c.74-1.36 3.39-2.68 5.13-2.82q6.46-.52 10.51 4.85 5.29 7.02 16.31 20.5 2.58 3.16 3.13 5.03c1.24 4.2-1.54 7.79-5.95 7.78q-3.27-.01-4.66-1.1-4.63-3.62-20.8-15.73z"/><path fill="#fff" d="M590.29 589.75l.71.31v.94h-1.06l-.19-.71.54-.54z"/><path fill="#1f1e1d" d="M0 589.94l.5.1-.09.32a.25.24-81.8 00.23.32l11.8.32H0v-1.06z"/><path fill="#fafde1" d="M.5 590.04q3.34.09 6.69.09 291.28.14 582.56.16l.19.71h-13.5q-3.38-.63-6.75 0H24.44q-3.38-.63-6.75 0h-5.25l-11.8-.32a.25.24-81.8 01-.23-.32l.09-.32z"/><path fill="#939597" d="M24.44 591h-6.75q3.37-.63 6.75 0z"/><path fill="#1f1e1d" d="M576.44 591h-6.75q3.37-.63 6.75 0z"/></svg>