<svg xmlns="http://www.w3.org/2000/svg" viewBox="0 0 591 591"><g stroke-width="2" fill="none"><path stroke="#111010" vector-effect="non-scaling-stroke" d="M590.06 0l.19.29"/><path stroke="#7e7f70" vector-effect="non-scaling-stroke" d="M590.25.29l.04 589.46"/><path stroke="gray" vector-effect="non-scaling-stroke" d="M590.29 589.75l-.54.54"/><path stroke="#7e7f70" vector-effect="non-scaling-stroke" d="M589.75 590.29L.82 590.06a.34.34 0 00-.32.47l.19.47M586.25 4.51a.26.26 0 00-.26-.26H4.51a.26.26 0 00-.26.26v581.48a.26.26 0 00.26.26h581.48a.26.26 0 00.26-.26V4.51"/><path stroke="#8f8f7f" vector-effect="non-scaling-stroke" d="M591 587.31c-.84-.45-.25-537.06-.25-586.81a.25.24-86.1 00-.21-.25q-.17-.02-.29.04"/><path stroke="#fefeef" vector-effect="non-scaling-stroke" d="M591 590.06l-.71-.31"/><path stroke="#fcf2c6" vector-effect="non-scaling-stroke" d="M36.95 93.22c-.01 2.34-.42 5.45-.24 7.85q.2 2.83 2.3.91c20.95-19.2 40.92-39.65 61.24-59.55a1.18 1.18 0 00-.78-2.02q-21.84-.68-43.97-.18C42 40.53 36.98 51.18 37 63q.03 15.11-.05 30.22"/><path stroke="#8f8f7f" vector-effect="non-scaling-stroke" d="M216.52 356.6q-19.58-5.81-39.91-6.44c-8.06-.25-16.74.94-25.11 1.83q-7.13.75-22.28 6c-25.59 8.85-49.34 27.77-55.17 55.08-2.29 10.73-1.28 25.59-1.31 37.97-.09 32.58 28.7 56.75 57.01 66.49q46.18 15.88 92.13-.47c28.47-10.12 54.7-33.44 55.48-65.49q.43-17.62.37-26.07c-.11-18.68-8.8-35.19-22.62-47.39a1.41 1.4 34.2 01-.33-1.68l2.32-4.61a.93.92-78.2 01.77-.51c18.76-1.03 33.08.6 52.63 3.69q7.91 1.25 37.43 2.82c8.91.47 16.78.04 23.71-5.28q7.35-5.64 14.92-10.99c6.24-4.41 11.21-9.45 16.64-14.61q8.56-8.15 23.27-13.75c25.54-9.73 50.24-21.35 75.34-32.13q4.84-2.08 12.58-6.59c6.02-3.52 8.41-7.78 10.34-14.24q4.41-14.74 6-27.49c2.22-17.67-3.98-28.53-14.77-42.93-10.55-14.08-21.08-27.19-37.35-35.09-12.72-6.18-23.31-14.6-37.1-18.75-13.81-4.15-28.06-8.11-42.55-5.03-24.79 5.26-54.49 4.39-80.73-.8q-3.3-.65-11.56-1.68c-7.83-.97-15.71-3.94-22.61-5.12-12.13-2.09-26.2-4.54-37.87-3.45-23.07 2.15-44.84 3.45-66.04 14.01q-6.45 3.21-13.73 8.31c-10.94 7.66-8.92 15.11-5.57 25.85 2.84 9.11 6.6 16.87 13.1 24.2 3.81 4.29 13.09 6 18.55 6.79q14.9 2.18 29.9 3.33c15.48 1.19 27.44 4.13 43.84 7.7q4.93 1.07 7.15 2.03.47.2 0 .41c-11.3 5-20.49 7.74-29.93 16.44-3.59 3.31-7.16 8.11-10.73 12.14-2.09 2.35-3.23 5.13-5.38 7.54-10.12 11.36-13.78 23.35-14.13 39.1-.36 15.84 2.23 27.52 8.08 43.42a1.23 1.18-41.6 01-.08 1.02q-1.41 2.55-3.77 4.26a1.08 1.06-54.2 01-.93.16"/><path stroke="#c6c8ba" vector-effect="non-scaling-stroke" d="M165.97 342.09l-5.5 1.94q-.49.17-.09.49c.93.74 4.75-.5 5.86-.86a.75.74 82.2 00.51-.68l.01-.32a.59.59 0 00-.79-.57"/><path stroke="#8f8f7f" vector-effect="non-scaling-stroke" d="M283.25 163.21l13.41.89"/><path stroke="#58595a" vector-effect="non-scaling-stroke" d="M296.66 164.1q7.44 1.66 10.03 1.94c20.82 2.27 35.97 4.55 53.81-.22 5.71-1.53 11.74-4.31 17.49-6.74q.47-.19-.03-.21c-5.03-.13-10.27.9-14.79.8-10.86-.25-21.56-.6-32.43-2.46q-5.78-.99-11.59-1.71c-3.37-.42-6.74-1.5-10.22-2.06q-5.38-.86-7.68-1.39c-25.2-5.84-50.11-9.01-75.95-5.32a.86.85 6.4 00-.68.54c-2.39 6.08-3.32 12.54-5.72 18.4a1.05 1.05 0 001.11 1.44c21.41-2.88 40.45-4.62 63.24-3.9"/><path stroke="#c6c8ba" vector-effect="non-scaling-stroke" d="M296.66 164.1q-6.34-1.95-12.78-1.93a.67.67 0 00-.65.5q-.07.27.02.54"/><path stroke="#58595a" vector-effect="non-scaling-stroke" d="M446.63 171.44q-10.18-5.76-20.72-10.82c-7.1-3.41-15 .02-24.74 3.27q-.48.16.02.24c13.47 2.45 27.46 3.45 40.72 6.91q2.29.6 4.65.64.52.01.07-.24"/><path stroke="#8f8f7f" vector-effect="non-scaling-stroke" d="M188.31 187.32c15.24 4.21 29.59 4.87 44.99 6.38 10.62 1.04 20.99 3.34 31.5 5.34 12.82 2.45 27.4 6.23 38.69 12.94 7.22 4.3 9.95 13.96 11.61 22.61.82 4.23-.26 6.39-3.78 8.5-6.8 4.08-11.95 6.57-20 9.18-6.61 2.14-32.83 9.87-33.55 17.54q-1.76 18.71-8.54 35.04-5.29 12.75-6.33 16.07-3.04 9.7-3.86 26.28a.41.4 87.7 00.46.43c5.83-.77 10.61 4.88 14.39 7.6a.84.82 49 00.85.07c4.08-2.03 7.58-4.31 12.17-5.12 4.41-.78 8.59-1.78 13.17-2.2q4.35-.39 8.64-1.15c9.25-1.63 18.7-2.06 28.04-3.02q12.47-1.27 24.99-.63 2.73.13 4.76-1.68c7.73-6.89 17.86-16.91 25.19-21.28q6.01-3.57 14.04-4.98 19.41-3.41 41.27-12.93c4.26-1.86 11.47-4.16 15.94-7.86q11.37-9.4 22.82-18.72c11.27-9.17 23.56-14.95 36.78-20.72a2.54 2.54 0 001.49-2c.98-7.99-3.37-19.02-7.31-25.8-4.84-8.32-14.87-18.86-21.89-28.3-2.05-2.76-3.46-8.28-6.98-11.23-3.38-2.84-8.34-8-12.65-8.96q-29.69-6.59-54.46-9.46c-12.18-1.41-21.72-.23-36.46 1.94-9.62 1.42-19.18 1.49-28.88 1.87q-5.05.2-10.29-.4c-7.35-.83-14.81-1.29-22.05-2.2q-12.49-1.57-25.04-2.46c-19.34-1.37-38.46 1.93-57.6 4.12q-11.51 1.32-23.08 7.46c-3.4 1.81-6.23 4.67-9.16 7.21a.3.3 0 00.12.52"/><path stroke="#58595a" vector-effect="non-scaling-stroke" d="M255.03 202.43q-4.55-.69-9.05-1.65c-10.31-2.2-21.05-2.92-31.54-3.72-15.85-1.2-35.65-5.03-49.03-14.11a.76.75 22.1 00-1.17.49c-.72 3.98 8.28 19.06 10.77 22.76 2.56 3.79 4.74 4.74 9 5.77q18.06 4.4 35.16 5.09c15.29.61 30.88 4.19 45.8 7.51 4.05.9 15.96 5.57 19.37 4.07q9.33-4.09 16.11-12a.45.44 36.8 00-.1-.66q-6.63-4.33-15.09-6.76-16.27-4.68-30.23-6.79M509.5 251.75c4.17-2.35 17.97-13.91 14.38-19.34-3.86-5.82-6.16-12.04-12.2-16.34q-15.1-10.75-31.86-19.84a.31.31 0 00-.4.45c12.34 16.95 29.95 32.62 29.65 54.82q-.01.5.43.25M249.19 290.69c4.12-14.2 3.77-31.65 12.22-46.55.07-.11.1-.68.09-.77a.53.53 0 00-.76-.39c-16.61 8.13-25.27 22.4-35.83 37.32-6.92 9.77-7.7 23.31-6.72 35.01 1.07 12.79 2.17 23.52 8.09 34a.61.59-21.3 00.67.28l7.07-1.81a.61.6 81.7 00.45-.61c-.38-7.96 1.29-15.62 3.05-23.34 2.56-11.21 8.94-23.72 11.67-33.14"/><path stroke="#8f8f7f" vector-effect="non-scaling-stroke" d="M362.79 369l-5.04-19.04"/><path stroke="#58595a" vector-effect="non-scaling-stroke" d="M357.75 349.96q-.15-1.02.09-1.96a.5.5 0 01.62-.35l11.75 3.41"/><path stroke="#8f8f7f" vector-effect="non-scaling-stroke" d="M370.21 351.06q6.73 2.48 13.79 2.73"/><path stroke="#58595a" vector-effect="non-scaling-stroke" d="M384 353.79q3.91 1.16 5.95-.82c10.68-10.37 19.78-18.35 33.3-23.74 17.34-6.91 30.45-12.05 46.35-19.42q14.51-6.72 29.26-12.91c4.44-1.86 17.85-7.71 19.15-12.39 3.69-13.2 8.26-25.86 8.46-39.38a.66.66 0 00-1.14-.46c-11.63 12.62-24.92 16.27-39.32 23.6-4.85 2.46-8.67 6.08-11.52 10.24q-4.99 7.28-12.97 20.73-2.72 4.59-4.54 5.73c-4.58 2.87-11.13-.77-15.5-2.98a1.09 1.08-43.7 00-.91-.02q-13.75 5.98-27.72 11.43-3.18 1.24-6.53 1.97-11.41 2.49-22.79 5.18c-3.77.89-7.79 2.4-10.5 4.49q-8.03 6.16-21.76 18.74c-5.27 4.83-7.65 4.18-13.99 4.16q-23.79-.06-47.26 3.66c-11.36 1.8-21.35 2.79-32.16 7.33a2.17 2.16 73.9 00-1.29 2.35l.82 5a.46.45 85 00.46.39q4.11-.07 8.15-.71c1.73-.27 3.19.34 5 .29q10.41-.28 20.74 1.09 28.41 3.8 57.02 5.54 6.54.4 13.06-.59a1.74 1.73 86.3 001.47-1.68q.01-.57-.5-1.61"/><path stroke="#c6c8ba" vector-effect="non-scaling-stroke" d="M384 353.79q.9.22 1.25-.29a.36.36 0 00-.25-.56l-14.79-1.88M357.75 349.96q-.45-.14-.75.06a.7.7 0 00-.3.79c.54 1.94 5.01 18.87 5.61 18.96a.38.38 0 00.44-.33l.04-.44"/><path stroke="#58595a" vector-effect="non-scaling-stroke" d="M241.52 356.86l4.76-1q3.06-.65-.02-.95-2.71-.27-4.05-2.58a.56.55 46.7 00-.94-.03q-1.15 1.75-.74 3.9a.83.83 0 00.99.66M226.18 355.7c-.32 1.86.99 2.49 2.34 3.42a.74.72 48.4 00.72.05l5.31-2.55a.77.76-10.7 00.42-.61l.24-2.84a.39.38-5.3 00-.49-.4l-7.84 2.16a.96.96 0 00-.7.77M123.75 366.29q-10.36 4.32-19.25 11.17"/><path stroke="#90908f" vector-effect="non-scaling-stroke" d="M104.5 377.46c-8.01 5.66-12.84 12.17-18.69 19.09q-.4.48-1.1 2.7"/><path stroke="#58595a" vector-effect="non-scaling-stroke" d="M84.71 399.25l-2.21 5.21"/><path stroke="#90908f" vector-effect="non-scaling-stroke" d="M82.5 404.46q-4.46 13.05-5 17.04-.79 5.79.14 21.22"/><path stroke="#58595a" vector-effect="non-scaling-stroke" d="M77.64 442.72c-.57 14.18 3.04 30.03 12.53 40.86 6.35 7.26 11.44 13.11 20.61 18.66 14.98 9.05 28.9 12.41 46.32 16.25a.5.49-83.4 00.6-.48l.3-20.97"/><path stroke="#90908f" vector-effect="non-scaling-stroke" d="M158 497.04l14.29 1.21"/><path stroke="#58595a" vector-effect="non-scaling-stroke" d="M172.29 498.25l-.04.71"/><path stroke="#8f8f7f" vector-effect="non-scaling-stroke" d="M172.25 498.96l-.02 20.31a.45.45 0 00.54.44l1.23-.25"/><path stroke="#58595a" vector-effect="non-scaling-stroke" d="M174 519.46q5.34.62 10.37 0a1.27 1.27 0 001.11-1.26l.02-20.16"/><path stroke="#90908f" vector-effect="non-scaling-stroke" d="M185.5 498.04q29.11-2.51 54.49-16.23c25.35-13.69 39.9-37.74 30.94-66.81"/><path stroke="#58595a" vector-effect="non-scaling-stroke" d="M270.93 415c-3.99-19.1-18.28-34.49-35.19-43.66-20.8-11.28-40.54-15.45-64.24-15.3"/><path stroke="#90908f" vector-effect="non-scaling-stroke" d="M171.5 356.04q-24.98.18-47.75 10.25"/><path stroke="#c7c9ca" vector-effect="non-scaling-stroke" d="M171.5 356.04q.89 12.95 4.11 25.45"/><path stroke="#90908f" vector-effect="non-scaling-stroke" d="M175.61 381.49c-14.21-4.25-32.4.87-44.25 9.98a1.57 1.56 62.3 00-.53 1.72c.17.51 14.02-.47 15.68-.54q11.54-.49 23.03 3.29a.52.51-52.6 01.12.92q-13.06 8.49-27.37 15.4-6.14 2.96-10.54 3.95"/><path stroke="#c7c9ca" vector-effect="non-scaling-stroke" d="M131.75 416.21q-2.97-25.13-8-49.92"/><path stroke="#58595a" vector-effect="non-scaling-stroke" d="M131.75 416.21l-2.29.79"/><path stroke="#48494a" vector-effect="non-scaling-stroke" d="M129.46 417q-9.2 1.39-18.46.71"/><path stroke="#c7c9ca" vector-effect="non-scaling-stroke" d="M111 417.71c-.26-1.63-.89-3.2-1.11-4.72q-2.62-17.52-4.7-35.12a.45.43 88.2 00-.39-.38l-.3-.03"/><path stroke="#90908f" vector-effect="non-scaling-stroke" d="M244.25 415.79c-3 13.68-20.15 12.73-29.52 6.94q-2.57-1.58-5.35-3.4a.93.92 50 00-.88-.08q-6.72 2.96-12.75 6.96"/><path stroke="#111010" vector-effect="non-scaling-stroke" d="M195.75 426.21l-.67-.66a.62.62 0 00-.78-.08q-12.66 8.37-16.9 12.18c-3.89 3.5-10.81 9.49-7.68 15.34q1.27 2.39 4.03 1.97"/><path stroke="#90908f" vector-effect="non-scaling-stroke" d="M173.75 454.96c5.96 2.47 10.67 1.49 16.5 1.5"/><path stroke="#58595a" vector-effect="non-scaling-stroke" d="M184 420.96l4.36-2.4"/><path stroke="#8f8f7f" vector-effect="non-scaling-stroke" d="M188.36 418.56q3.39-1 6.45-3.04"/><path stroke="#58595a" vector-effect="non-scaling-stroke" d="M194.81 415.52q2.3-.1 4.27-1.82"/><path stroke="#111010" vector-effect="non-scaling-stroke" d="M102.94 421.7q4.73-2.39 9.06-2.46 9.78-.16 16.95-1.15a.69.69 0 00.59-.59q.03-.24-.08-.5"/><path stroke="#c7c9ca" vector-effect="non-scaling-stroke" d="M270.93 415q1.65 15.47-3.61 29.47c-9.31 24.81-35.71 37.19-59.3 44.09q-5.38 1.57-10.93 1.66a.6.59 84.3 01-.59-.49q-1.79-10.25-3.76-20.48-.16-.82.09-1.99a1.4 1.36-13.6 01.52-.83q2.95-2.28 4.32-5.73a1.25 1.23 44.7 00-.01-.9q-.59-1.45-2.02-.71"/><path stroke="#58595a" vector-effect="non-scaling-stroke" d="M195.64 459.09q-1.57-3.74-5.39-2.63"/><path stroke="#c7c9ca" vector-effect="non-scaling-stroke" d="M190.25 456.46l-4.09-18.42a.76.73 67 01.3-.78c6.77-4.69 15.87-11.83 23.55-14.44a.83.82 56.3 01.84.17c10.78 9.77 31.62 11.96 36.68-5.22a1 .97-57.4 00-.18-.89q-1.24-1.51-3.1-1.09"/><path stroke="#58595a" vector-effect="non-scaling-stroke" d="M244.25 415.79q-2.65-4.1-8.73-6.52-12.72-5.06-30.78-15.49-8.92-5.16-29.13-12.29"/><path stroke="gray" vector-effect="non-scaling-stroke" d="M111 417.71c-2.89.71-6.6.8-8.06 3.99"/><path stroke="#90908f" vector-effect="non-scaling-stroke" d="M102.94 421.7q-2.47 4.75.33 8.33c4.37 5.59 14.69 5.56 20.98 4.01 8.82-2.18 15.36-4.56 24.01-8.87q18.99-9.47 37.96-19.04a1.21 1.2-48.3 01.94-.06q6.83 2.46 12.94 6.38a.58.58 0 01.18.8q-.38.61-1.2.45"/><path stroke="#c7c9ca" vector-effect="non-scaling-stroke" d="M199.08 413.7l-10.89-3.94a1.2 1.16-47.6 00-.93.06l-5.25 2.72a.53.52-21.9 00-.27.61l2.26 7.81"/><path stroke="#90908f" vector-effect="non-scaling-stroke" d="M184 420.96c-12.13 5.03-34.18 19.94-31.48 34.52q1.97 10.66 13.23 12.83c11.47 2.22 21.66-1.02 29.89-9.22"/><path stroke="#c7c9ca" vector-effect="non-scaling-stroke" d="M185.5 498.04l-13.21.21M158 497.04q-27.72-3.93-49.48-16.82c-9.15-5.42-20.72-15.23-25.92-25.16q-3.08-5.89-4.96-12.34"/><path stroke="#c7c9ca" vector-effect="non-scaling-stroke" d="M82.5 404.46q1.01.48.74 1.28c-2.95 8.99-5.59 18.89-3.59 28.11q1.74 8.07 5.51 15.47c1.89 3.72 5.49 6.91 7.76 10.94q.26.46.2-.07c-2.38-20.36-4.84-40.72-8.41-60.94"/><path stroke="gray" vector-effect="non-scaling-stroke" d="M173.75 454.96c-12.49-7.72 16.78-25.36 22-28.75"/><path stroke="#c6c8ba" vector-effect="non-scaling-stroke" d="M194.81 415.52q-4.06-.18-6.45 3.04M174 519.46l-.53-1.1q-.22-.45-.23-.96-.19-8.95.06-17.91.02-.8-1.05-.53"/><path stroke="#58595a" vector-effect="non-scaling-stroke" d="M250.27 365.2a1.05 1.05 0 001.44-.8q.23-1.45-.5-2.64a1.01 1 73.9 00-.88-.49l-4.67.08a.53.53 0 00-.51.66l.71 3a.41.4-19.4 00.58.27q1.84-.91 3.83-.08"/><path stroke="#90908f" vector-effect="non-scaling-stroke" d="M234.78 363.99l4.97 2.7a.87.87 0 001.29-.85c-.34-3.4-3.61-6.21-6.48-3.55a1.06 1.06 0 00.22 1.7"/><path stroke="#58595a" vector-effect="non-scaling-stroke" d="M246.16 369.98a.33.33 0 00-.23.6l4.5 3.08a.33.33 0 00.49-.14l1.02-2.39a.33.33 0 00-.26-.45l-5.52-.7"/><path stroke="#c7c9ca" vector-effect="non-scaling-stroke" d="M118.29 477.83c.41 3.59 20.51 9.36 24.25 10.6a.58.58 0 00.76-.63l-7.76-51.61a.98.98 0 00-1.32-.77c-5 1.93-12.34 4.01-17.8 3.43q-1.31-.13-2.69-.09a.45.45 0 00-.43.51q2.8 19.3 4.99 38.56"/><path stroke="#fefeef" vector-effect="non-scaling-stroke" d="M589.94 591l-.19-.71"/><path stroke="#8f8f7f" vector-effect="non-scaling-stroke" d="M13.19 591q-6-.63-12 0"/></g><path d="M0 0h590.06l.19.29.04 589.46-.54.54-588.93-.23a.34.34 0 00-.32.47l.19.47H0V0zm586.25 4.51a.26.26 0 00-.26-.26H4.51a.26.26 0 00-.26.26v581.48a.26.26 0 00.26.26h581.48a.26.26 0 00.26-.26V4.51z"/><path fill="#21201f" d="M590.06 0h.94v587.31c-.84-.45-.25-537.06-.25-586.81a.25.24-86.1 00-.21-.25q-.17-.02-.29.04l-.19-.29z"/><path fill="#fcfddf" d="M590.25.29q.12-.06.29-.04a.25.24-86.1 01.21.25c0 49.75-.59 586.36.25 586.81v2.75l-.71-.31L590.25.29zM586.25 585.99a.26.26 0 01-.26.26H4.51a.26.26 0 01-.26-.26V4.51a.26.26 0 01.26-.26h581.48a.26.26 0 01.26.26v581.48zM36.95 93.22c-.01 2.34-.42 5.45-.24 7.85q.2 2.83 2.3.91c20.95-19.2 40.92-39.65 61.24-59.55a1.18 1.18 0 00-.78-2.02q-21.84-.68-43.97-.18C42 40.53 36.98 51.18 37 63q.03 15.11-.05 30.22zM216.52 356.6q-19.58-5.81-39.91-6.44c-8.06-.25-16.74.94-25.11 1.83q-7.13.75-22.28 6c-25.59 8.85-49.34 27.77-55.17 55.08-2.29 10.73-1.28 25.59-1.31 37.97-.09 32.58 28.7 56.75 57.01 66.49q46.18 15.88 92.13-.47c28.47-10.12 54.7-33.44 55.48-65.49q.43-17.62.37-26.07c-.11-18.68-8.8-35.19-22.62-47.39a1.41 1.4 34.2 01-.33-1.68l2.32-4.61a.93.92-78.2 01.77-.51c18.76-1.03 33.08.6 52.63 3.69q7.91 1.25 37.43 2.82c8.91.47 16.78.04 23.71-5.28q7.35-5.64 14.92-10.99c6.24-4.41 11.21-9.45 16.64-14.61q8.56-8.15 23.27-13.75c25.54-9.73 50.24-21.35 75.34-32.13q4.84-2.08 12.58-6.59c6.02-3.52 8.41-7.78 10.34-14.24q4.41-14.74 6-27.49c2.22-17.67-3.98-28.53-14.77-42.93-10.55-14.08-21.08-27.19-37.35-35.09-12.72-6.18-23.31-14.6-37.1-18.75-13.81-4.15-28.06-8.11-42.55-5.03-24.79 5.26-54.49 4.39-80.73-.8q-3.3-.65-11.56-1.68c-7.83-.97-15.71-3.94-22.61-5.12-12.13-2.09-26.2-4.54-37.87-3.45-23.07 2.15-44.84 3.45-66.04 14.01q-6.45 3.21-13.73 8.31c-10.94 7.66-8.92 15.11-5.57 25.85 2.84 9.11 6.6 16.87 13.1 24.2 3.81 4.29 13.09 6 18.55 6.79q14.9 2.18 29.9 3.33c15.48 1.19 27.44 4.13 43.84 7.7q4.93 1.07 7.15 2.03.47.2 0 .41c-11.3 5-20.49 7.74-29.93 16.44-3.59 3.31-7.16 8.11-10.73 12.14-2.09 2.35-3.23 5.13-5.38 7.54-10.12 11.36-13.78 23.35-14.13 39.1-.36 15.84 2.23 27.52 8.08 43.42a1.23 1.18-41.6 01-.08 1.02q-1.41 2.55-3.77 4.26a1.08 1.06-54.2 01-.93.16zm-50.55-14.51l-5.5 1.94q-.49.17-.09.49c.93.74 4.75-.5 5.86-.86a.75.74 82.2 00.51-.68l.01-.32a.59.59 0 00-.79-.57z"/><path fill="#fbe6ad" d="M36.95 93.22Q37.03 78.11 37 63c-.02-11.82 5-22.47 18.5-22.77q22.13-.5 43.97.18a1.18 1.18 0 01.78 2.02c-20.32 19.9-40.29 40.35-61.24 59.55q-2.1 1.92-2.3-.91c-.18-2.4.23-5.51.24-7.85z"/><path fill="#21201f" d="M217.45 356.44q2.36-1.71 3.77-4.26a1.23 1.18-41.6 00.08-1.02c-5.85-15.9-8.44-27.58-8.08-43.42.35-15.75 4.01-27.74 14.13-39.1 2.15-2.41 3.29-5.19 5.38-7.54 3.57-4.03 7.14-8.83 10.73-12.14 9.44-8.7 18.63-11.44 29.93-16.44q.47-.21 0-.41-2.22-.96-7.15-2.03c-16.4-3.57-28.36-6.51-43.84-7.7q-15-1.15-29.9-3.33c-5.46-.79-14.74-2.5-18.55-6.79-6.5-7.33-10.26-15.09-13.1-24.2-3.35-10.74-5.37-18.19 5.57-25.85q7.28-5.1 13.73-8.31c21.2-10.56 42.97-11.86 66.04-14.01 11.67-1.09 25.74 1.36 37.87 3.45 6.9 1.18 14.78 4.15 22.61 5.12q8.26 1.03 11.56 1.68c26.24 5.19 55.94 6.06 80.73.8 14.49-3.08 28.74.88 42.55 5.03 13.79 4.15 24.38 12.57 37.1 18.75 16.27 7.9 26.8 21.01 37.35 35.09 10.79 14.4 16.99 25.26 14.77 42.93q-1.59 12.75-6 27.49c-1.93 6.46-4.32 10.72-10.34 14.24q-7.74 4.51-12.58 6.59c-25.1 10.78-49.8 22.4-75.34 32.13q-14.71 5.6-23.27 13.75c-5.43 5.16-10.4 10.2-16.64 14.61q-7.57 5.35-14.92 10.99c-6.93 5.32-14.8 5.75-23.71 5.28q-29.52-1.57-37.43-2.82c-19.55-3.09-33.87-4.72-52.63-3.69a.93.92-78.2 00-.77.51l-2.32 4.61a1.41 1.4 34.2 00.33 1.68c13.82 12.2 22.51 28.71 22.62 47.39q.06 8.45-.37 26.07c-.78 32.05-27.01 55.37-55.48 65.49q-45.95 16.35-92.13.47c-28.31-9.74-57.1-33.91-57.01-66.49.03-12.38-.98-27.24 1.31-37.97 5.83-27.31 29.58-46.23 55.17-55.08q15.15-5.25 22.28-6c8.37-.89 17.05-2.08 25.11-1.83q20.33.63 39.91 6.44a1.08 1.06-54.2 00.93-.16zm65.8-193.23l13.41.89q7.44 1.66 10.03 1.94c20.82 2.27 35.97 4.55 53.81-.22 5.71-1.53 11.74-4.31 17.49-6.74q.47-.19-.03-.21c-5.03-.13-10.27.9-14.79.8-10.86-.25-21.56-.6-32.43-2.46q-5.78-.99-11.59-1.71c-3.37-.42-6.74-1.5-10.22-2.06q-5.38-.86-7.68-1.39c-25.2-5.84-50.11-9.01-75.95-5.32a.86.85 6.4 00-.68.54c-2.39 6.08-3.32 12.54-5.72 18.4a1.05 1.05 0 001.11 1.44c21.41-2.88 40.45-4.62 63.24-3.9zm163.38 8.23q-10.18-5.76-20.72-10.82c-7.1-3.41-15 .02-24.74 3.27q-.48.16.02.24c13.47 2.45 27.46 3.45 40.72 6.91q2.29.6 4.65.64.52.01.07-.24zm-258.32 15.88c15.24 4.21 29.59 4.87 44.99 6.38 10.62 1.04 20.99 3.34 31.5 5.34 12.82 2.45 27.4 6.23 38.69 12.94 7.22 4.3 9.95 13.96 11.61 22.61.82 4.23-.26 6.39-3.78 8.5-6.8 4.08-11.95 6.57-20 9.18-6.61 2.14-32.83 9.87-33.55 17.54q-1.76 18.71-8.54 35.04-5.29 12.75-6.33 16.07-3.04 9.7-3.86 26.28a.41.4 87.7 00.46.43c5.83-.77 10.61 4.88 14.39 7.6a.84.82 49 00.85.07c4.08-2.03 7.58-4.31 12.17-5.12 4.41-.78 8.59-1.78 13.17-2.2q4.35-.39 8.64-1.15c9.25-1.63 18.7-2.06 28.04-3.02q12.47-1.27 24.99-.63 2.73.13 4.76-1.68c7.73-6.89 17.86-16.91 25.19-21.28q6.01-3.57 14.04-4.98 19.41-3.41 41.27-12.93c4.26-1.86 11.47-4.16 15.94-7.86q11.37-9.4 22.82-18.72c11.27-9.17 23.56-14.95 36.78-20.72a2.54 2.54 0 001.49-2c.98-7.99-3.37-19.02-7.31-25.8-4.84-8.32-14.87-18.86-21.89-28.3-2.05-2.76-3.46-8.28-6.98-11.23-3.38-2.84-8.34-8-12.65-8.96q-29.69-6.59-54.46-9.46c-12.18-1.41-21.72-.23-36.46 1.94-9.62 1.42-19.18 1.49-28.88 1.87q-5.05.2-10.29-.4c-7.35-.83-14.81-1.29-22.05-2.2q-12.49-1.57-25.04-2.46c-19.34-1.37-38.46 1.93-57.6 4.12q-11.51 1.32-23.08 7.46c-3.4 1.81-6.23 4.67-9.16 7.21a.3.3 0 00.12.52zm66.72 15.11q-4.55-.69-9.05-1.65c-10.31-2.2-21.05-2.92-31.54-3.72-15.85-1.2-35.65-5.03-49.03-14.11a.76.75 22.1 00-1.17.49c-.72 3.98 8.28 19.06 10.77 22.76 2.56 3.79 4.74 4.74 9 5.77q18.06 4.4 35.16 5.09c15.29.61 30.88 4.19 45.8 7.51 4.05.9 15.96 5.57 19.37 4.07q9.33-4.09 16.11-12a.45.44 36.8 00-.1-.66q-6.63-4.33-15.09-6.76-16.27-4.68-30.23-6.79zm254.47 49.32c4.17-2.35 17.97-13.91 14.38-19.34-3.86-5.82-6.16-12.04-12.2-16.34q-15.1-10.75-31.86-19.84a.31.31 0 00-.4.45c12.34 16.95 29.95 32.62 29.65 54.82q-.01.5.43.25zm-260.31 38.94c4.12-14.2 3.77-31.65 12.22-46.55.07-.11.1-.68.09-.77a.53.53 0 00-.76-.39c-16.61 8.13-25.27 22.4-35.83 37.32-6.92 9.77-7.7 23.31-6.72 35.01 1.07 12.79 2.17 23.52 8.09 34a.61.59-21.3 00.67.28l7.07-1.81a.61.6 81.7 00.45-.61c-.38-7.96 1.29-15.62 3.05-23.34 2.56-11.21 8.94-23.72 11.67-33.14zM362.79 369l-5.04-19.04q-.15-1.02.09-1.96a.5.5 0 01.62-.35l11.75 3.41q6.73 2.48 13.79 2.73 3.91 1.16 5.95-.82c10.68-10.37 19.78-18.35 33.3-23.74 17.34-6.91 30.45-12.05 46.35-19.42q14.51-6.72 29.26-12.91c4.44-1.86 17.85-7.71 19.15-12.39 3.69-13.2 8.26-25.86 8.46-39.38a.66.66 0 00-1.14-.46c-11.63 12.62-24.92 16.27-39.32 23.6-4.85 2.46-8.67 6.08-11.52 10.24q-4.99 7.28-12.97 20.73-2.72 4.59-4.54 5.73c-4.58 2.87-11.13-.77-15.5-2.98a1.09 1.08-43.7 00-.91-.02q-13.75 5.98-27.72 11.43-3.18 1.24-6.53 1.97-11.41 2.49-22.79 5.18c-3.77.89-7.79 2.4-10.5 4.49q-8.03 6.16-21.76 18.74c-5.27 4.83-7.65 4.18-13.99 4.16q-23.79-.06-47.26 3.66c-11.36 1.8-21.35 2.79-32.16 7.33a2.17 2.16 73.9 00-1.29 2.35l.82 5a.46.45 85 00.46.39q4.11-.07 8.15-.71c1.73-.27 3.19.34 5 .29q10.41-.28 20.74 1.09 28.41 3.8 57.02 5.54 6.54.4 13.06-.59a1.74 1.73 86.3 001.47-1.68q.01-.57-.5-1.61zm-121.27-12.14l4.76-1q3.06-.65-.02-.95-2.71-.27-4.05-2.58a.56.55 46.7 00-.94-.03q-1.15 1.75-.74 3.9a.83.83 0 00.99.66zm-15.34-1.16c-.32 1.86.99 2.49 2.34 3.42a.74.72 48.4 00.72.05l5.31-2.55a.77.76-10.7 00.42-.61l.24-2.84a.39.38-5.3 00-.49-.4l-7.84 2.16a.96.96 0 00-.7.77zm-102.43 10.59q-10.36 4.32-19.25 11.17c-8.01 5.66-12.84 12.17-18.69 19.09q-.4.48-1.1 2.7l-2.21 5.21q-4.46 13.05-5 17.04-.79 5.79.14 21.22c-.57 14.18 3.04 30.03 12.53 40.86 6.35 7.26 11.44 13.11 20.61 18.66 14.98 9.05 28.9 12.41 46.32 16.25a.5.49-83.4 00.6-.48l.3-20.97 14.29 1.21-.04.71-.02 20.31a.45.45 0 00.54.44l1.23-.25q5.34.62 10.37 0a1.27 1.27 0 001.11-1.26l.02-20.16q29.11-2.51 54.49-16.23c25.35-13.69 39.9-37.74 30.94-66.81-3.99-19.1-18.28-34.49-35.19-43.66-20.8-11.28-40.54-15.45-64.24-15.3q-24.98.18-47.75 10.25zm126.52-1.09a1.05 1.05 0 001.44-.8q.23-1.45-.5-2.64a1.01 1 73.9 00-.88-.49l-4.67.08a.53.53 0 00-.51.66l.71 3a.41.4-19.4 00.58.27q1.84-.91 3.83-.08zm-15.49-1.21l4.97 2.7a.87.87 0 001.29-.85c-.34-3.4-3.61-6.21-6.48-3.55a1.06 1.06 0 00.22 1.7zm11.38 5.99a.33.33 0 00-.23.6l4.5 3.08a.33.33 0 00.49-.14l1.02-2.39a.33.33 0 00-.26-.45l-5.52-.7z"/><path fill="#8f9294" d="M296.66 164.1q-6.34-1.95-12.78-1.93a.67.67 0 00-.65.5q-.07.27.02.54c-22.79-.72-41.83 1.02-63.24 3.9a1.05 1.05 0 01-1.11-1.44c2.4-5.86 3.33-12.32 5.72-18.4a.86.85 6.4 01.68-.54c25.84-3.69 50.75-.52 75.95 5.32q2.3.53 7.68 1.39c3.48.56 6.85 1.64 10.22 2.06q5.81.72 11.59 1.71c10.87 1.86 21.57 2.21 32.43 2.46 4.52.1 9.76-.93 14.79-.8q.5.02.03.21c-5.75 2.43-11.78 5.21-17.49 6.74-17.84 4.77-32.99 2.49-53.81.22q-2.59-.28-10.03-1.94zM446.56 171.68q-2.36-.04-4.65-.64c-13.26-3.46-27.25-4.46-40.72-6.91q-.5-.08-.02-.24c9.74-3.25 17.64-6.68 24.74-3.27q10.54 5.06 20.72 10.82.45.25-.07.24z"/><path fill="#fcfddf" d="M296.66 164.1l-13.41-.89q-.09-.27-.02-.54a.67.67 0 01.65-.5q6.44-.02 12.78 1.93zM188.31 187.32a.3.3 0 01-.12-.52c2.93-2.54 5.76-5.4 9.16-7.21q11.57-6.14 23.08-7.46c19.14-2.19 38.26-5.49 57.6-4.12q12.55.89 25.04 2.46c7.24.91 14.7 1.37 22.05 2.2q5.24.6 10.29.4c9.7-.38 19.26-.45 28.88-1.87 14.74-2.17 24.28-3.35 36.46-1.94q24.77 2.87 54.46 9.46c4.31.96 9.27 6.12 12.65 8.96 3.52 2.95 4.93 8.47 6.98 11.23 7.02 9.44 17.05 19.98 21.89 28.3 3.94 6.78 8.29 17.81 7.31 25.8a2.54 2.54 0 01-1.49 2c-13.22 5.77-25.51 11.55-36.78 20.72q-11.45 9.32-22.82 18.72c-4.47 3.7-11.68 6-15.94 7.86q-21.86 9.52-41.27 12.93-8.03 1.41-14.04 4.98c-7.33 4.37-17.46 14.39-25.19 21.28q-2.03 1.81-4.76 1.68-12.52-.64-24.99.63c-9.34.96-18.79 1.39-28.04 3.02q-4.29.76-8.64 1.15c-4.58.42-8.76 1.42-13.17 2.2-4.59.81-8.09 3.09-12.17 5.12a.84.82 49 01-.85-.07c-3.78-2.72-8.56-8.37-14.39-7.6a.41.4 87.7 01-.46-.43q.82-16.58 3.86-26.28 1.04-3.32 6.33-16.07 6.78-16.33 8.54-35.04c.72-7.67 26.94-15.4 33.55-17.54 8.05-2.61 13.2-5.1 20-9.18 3.52-2.11 4.6-4.27 3.78-8.5-1.66-8.65-4.39-18.31-11.61-22.61-11.29-6.71-25.87-10.49-38.69-12.94-10.51-2-20.88-4.3-31.5-5.34-15.4-1.51-29.75-2.17-44.99-6.38z"/><path fill="#8f9294" d="M255.03 202.43q13.96 2.11 30.23 6.79 8.46 2.43 15.09 6.76a.45.44 36.8 01.1.66q-6.78 7.91-16.11 12c-3.41 1.5-15.32-3.17-19.37-4.07-14.92-3.32-30.51-6.9-45.8-7.51q-17.1-.69-35.16-5.09c-4.26-1.03-6.44-1.98-9-5.77-2.49-3.7-11.49-18.78-10.77-22.76a.76.75 22.1 011.17-.49c13.38 9.08 33.18 12.91 49.03 14.11 10.49.8 21.23 1.52 31.54 3.72q4.5.96 9.05 1.65zM523.88 232.41c3.59 5.43-10.21 16.99-14.38 19.34q-.44.25-.43-.25c.3-22.2-17.31-37.87-29.65-54.82a.31.31 0 01.4-.45q16.76 9.09 31.86 19.84c6.04 4.3 8.34 10.52 12.2 16.34zM261.41 244.14c-8.45 14.9-8.1 32.35-12.22 46.55-2.73 9.42-9.11 21.93-11.67 33.14-1.76 7.72-3.43 15.38-3.05 23.34a.61.6 81.7 01-.45.61l-7.07 1.81a.61.59-21.3 01-.67-.28c-5.92-10.48-7.02-21.21-8.09-34-.98-11.7-.2-25.24 6.72-35.01 10.56-14.92 19.22-29.19 35.83-37.32a.53.53 0 01.76.39c.01.09-.02.66-.09.77z"/><path fill="#8f9294" d="M384 353.79q.9.22 1.25-.29a.36.36 0 00-.25-.56l-14.79-1.88-11.75-3.41a.5.5 0 00-.62.35q-.24.94-.09 1.96-.45-.14-.75.06a.7.7 0 00-.3.79c.54 1.94 5.01 18.87 5.61 18.96a.38.38 0 00.44-.33l.04-.44q.51 1.04.5 1.61a1.74 1.73 86.3 01-1.47 1.68q-6.52.99-13.06.59-28.61-1.74-57.02-5.54-10.33-1.37-20.74-1.09c-1.81.05-3.27-.56-5-.29q-4.04.64-8.15.71a.46.45 85 01-.46-.39l-.82-5a2.17 2.16 73.9 011.29-2.35c10.81-4.54 20.8-5.53 32.16-7.33q23.47-3.72 47.26-3.66c6.34.02 8.72.67 13.99-4.16q13.73-12.58 21.76-18.74c2.71-2.09 6.73-3.6 10.5-4.49q11.38-2.69 22.79-5.18 3.35-.73 6.53-1.97 13.97-5.45 27.72-11.43a1.09 1.08-43.7 01.91.02c4.37 2.21 10.92 5.85 15.5 2.98q1.82-1.14 4.54-5.73 7.98-13.45 12.97-20.73c2.85-4.16 6.67-7.78 11.52-10.24 14.4-7.33 27.69-10.98 39.32-23.6a.66.66 0 011.14.46c-.2 13.52-4.77 26.18-8.46 39.38-1.3 4.68-14.71 10.53-19.15 12.39q-14.75 6.19-29.26 12.91c-15.9 7.37-29.01 12.51-46.35 19.42-13.52 5.39-22.62 13.37-33.3 23.74q-2.04 1.98-5.95.82zM166.76 342.66l-.01.32a.75.74 82.2 01-.51.68c-1.11.36-4.93 1.6-5.86.86q-.4-.32.09-.49l5.5-1.94a.59.59 0 01.79.57z"/><path fill="#fcfddf" d="M357.75 349.96l5.04 19.04-.04.44a.38.38 0 01-.44.33c-.6-.09-5.07-17.02-5.61-18.96a.7.7 0 01.3-.79q.3-.2.75-.06zM384 353.79q-7.06-.25-13.79-2.73l14.79 1.88a.36.36 0 01.25.56q-.35.51-1.25.29z"/><path fill="#8f9294" d="M240.53 356.2q-.41-2.15.74-3.9a.56.55 46.7 01.94.03q1.34 2.31 4.05 2.58 3.08.3.02.95l-4.76 1a.83.83 0 01-.99-.66zM228.52 359.12c-1.35-.93-2.66-1.56-2.34-3.42a.96.96 0 01.7-.77l7.84-2.16a.39.38-5.3 01.49.4l-.24 2.84a.77.76-10.7 01-.42.61l-5.31 2.55a.74.72 48.4 01-.72-.05z"/><path fill="#fff" d="M171.5 356.04q.89 12.95 4.11 25.45c-14.21-4.25-32.4.87-44.25 9.98a1.57 1.56 62.3 00-.53 1.72c.17.51 14.02-.47 15.68-.54q11.54-.49 23.03 3.29a.52.51-52.6 01.12.92q-13.06 8.49-27.37 15.4-6.14 2.96-10.54 3.95-2.97-25.13-8-49.92 22.77-10.07 47.75-10.25z"/><path fill="#8f9294" d="M171.5 356.04c23.7-.15 43.44 4.02 64.24 15.3 16.91 9.17 31.2 24.56 35.19 43.66q1.65 15.47-3.61 29.47c-9.31 24.81-35.71 37.19-59.3 44.09q-5.38 1.57-10.93 1.66a.6.59 84.3 01-.59-.49q-1.79-10.25-3.76-20.48-.16-.82.09-1.99a1.4 1.36-13.6 01.52-.83q2.95-2.28 4.32-5.73a1.25 1.23 44.7 00-.01-.9q-.59-1.45-2.02-.71-1.57-3.74-5.39-2.63l-4.09-18.42a.76.73 67 01.3-.78c6.77-4.69 15.87-11.83 23.55-14.44a.83.82 56.3 01.84.17c10.78 9.77 31.62 11.96 36.68-5.22a1 .97-57.4 00-.18-.89q-1.24-1.51-3.1-1.09-2.65-4.1-8.73-6.52-12.72-5.06-30.78-15.49-8.92-5.16-29.13-12.29-3.22-12.5-4.11-25.45zM250.27 365.2q-1.99-.83-3.83.08a.41.4-19.4 01-.58-.27l-.71-3a.53.53 0 01.51-.66l4.67-.08a1.01 1 73.9 01.88.49q.73 1.19.5 2.64a1.05 1.05 0 01-1.44.8z"/><path fill="#fff" d="M234.78 363.99a1.06 1.06 0 01-.22-1.7c2.87-2.66 6.14.15 6.48 3.55a.87.87 0 01-1.29.85l-4.97-2.7z"/><path fill="#8f9294" d="M123.75 366.29q5.03 24.79 8 49.92l-2.29.79q-9.2 1.39-18.46.71c-.26-1.63-.89-3.2-1.11-4.72q-2.62-17.52-4.7-35.12a.45.43 88.2 00-.39-.38l-.3-.03q8.89-6.85 19.25-11.17zM246.16 369.98l5.52.7a.33.33 0 01.26.45l-1.02 2.39a.33.33 0 01-.49.14l-4.5-3.08a.33.33 0 01.23-.6z"/><path fill="#fff" d="M104.5 377.46l.3.03a.45.43 88.2 01.39.38q2.08 17.6 4.7 35.12c.22 1.52.85 3.09 1.11 4.72-2.89.71-6.6.8-8.06 3.99q-2.47 4.75.33 8.33c4.37 5.59 14.69 5.56 20.98 4.01 8.82-2.18 15.36-4.56 24.01-8.87q18.99-9.47 37.96-19.04a1.21 1.2-48.3 01.94-.06q6.83 2.46 12.94 6.38a.58.58 0 01.18.8q-.38.61-1.2.45l-10.89-3.94a1.2 1.16-47.6 00-.93.06l-5.25 2.72a.53.52-21.9 00-.27.61l2.26 7.81c-12.13 5.03-34.18 19.94-31.48 34.52q1.97 10.66 13.23 12.83c11.47 2.22 21.66-1.02 29.89-9.22q1.43-.74 2.02.71a1.25 1.23 44.7 01.01.9q-1.37 3.45-4.32 5.73a1.4 1.36-13.6 00-.52.83q-.25 1.17-.09 1.99 1.97 10.23 3.76 20.48a.6.59 84.3 00.59.49q5.55-.09 10.93-1.66c23.59-6.9 49.99-19.28 59.3-44.09q5.26-14 3.61-29.47c8.96 29.07-5.59 53.12-30.94 66.81q-25.38 13.72-54.49 16.23l-13.21.21-14.29-1.21q-27.72-3.93-49.48-16.82c-9.15-5.42-20.72-15.23-25.92-25.16q-3.08-5.89-4.96-12.34-.93-15.43-.14-21.22.54-3.99 5-17.04 1.01.48.74 1.28c-2.95 8.99-5.59 18.89-3.59 28.11q1.74 8.07 5.51 15.47c1.89 3.72 5.49 6.91 7.76 10.94q.26.46.2-.07c-2.38-20.36-4.84-40.72-8.41-60.94q.7-2.22 1.1-2.7c5.85-6.92 10.68-13.43 18.69-19.09zm13.79 100.37c.41 3.59 20.51 9.36 24.25 10.6a.58.58 0 00.76-.63l-7.76-51.61a.98.98 0 00-1.32-.77c-5 1.93-12.34 4.01-17.8 3.43q-1.31-.13-2.69-.09a.45.45 0 00-.43.51q2.8 19.3 4.99 38.56z"/><path fill="#21201f" d="M175.61 381.49q20.21 7.13 29.13 12.29 18.06 10.43 30.78 15.49 6.08 2.42 8.73 6.52c-3 13.68-20.15 12.73-29.52 6.94q-2.57-1.58-5.35-3.4a.93.92 50 00-.88-.08q-6.72 2.96-12.75 6.96l-.67-.66a.62.62 0 00-.78-.08q-12.66 8.37-16.9 12.18c-3.89 3.5-10.81 9.49-7.68 15.34q1.27 2.39 4.03 1.97c5.96 2.47 10.67 1.49 16.5 1.5q3.82-1.11 5.39 2.63c-8.23 8.2-18.42 11.44-29.89 9.22q-11.26-2.17-13.23-12.83c-2.7-14.58 19.35-29.49 31.48-34.52l4.36-2.4q3.39-1 6.45-3.04 2.3-.1 4.27-1.82.82.16 1.2-.45a.58.58 0 00-.18-.8q-6.11-3.92-12.94-6.38a1.21 1.2-48.3 00-.94.06q-18.97 9.57-37.96 19.04c-8.65 4.31-15.19 6.69-24.01 8.87-6.29 1.55-16.61 1.58-20.98-4.01q-2.8-3.58-.33-8.33 4.73-2.39 9.06-2.46 9.78-.16 16.95-1.15a.69.69 0 00.59-.59q.03-.24-.08-.5l2.29-.79q4.4-.99 10.54-3.95 14.31-6.91 27.37-15.4a.52.51-52.6 00-.12-.92q-11.49-3.78-23.03-3.29c-1.66.07-15.51 1.05-15.68.54a1.57 1.56 62.3 01.53-1.72c11.85-9.11 30.04-14.23 44.25-9.98z"/><path fill="#8f9294" d="M84.71 399.25c3.57 20.22 6.03 40.58 8.41 60.94q.06.53-.2.07c-2.27-4.03-5.87-7.22-7.76-10.94q-3.77-7.4-5.51-15.47c-2-9.22.64-19.12 3.59-28.11q.27-.8-.74-1.28l2.21-5.21zM199.08 413.7q-1.97 1.72-4.27 1.82-4.06-.18-6.45 3.04l-4.36 2.4-2.26-7.81a.53.52-21.9 01.27-.61l5.25-2.72a1.2 1.16-47.6 01.93-.06l10.89 3.94z"/><path fill="#fcfddf" d="M194.81 415.52q-3.06 2.04-6.45 3.04 2.39-3.22 6.45-3.04z"/><path fill="#fff" d="M244.25 415.79q1.86-.42 3.1 1.09a1 .97-57.4 01.18.89c-5.06 17.18-25.9 14.99-36.68 5.22a.83.82 56.3 00-.84-.17c-7.68 2.61-16.78 9.75-23.55 14.44a.76.73 67 00-.3.78l4.09 18.42c-5.83-.01-10.54.97-16.5-1.5-12.49-7.72 16.78-25.36 22-28.75q6.03-4 12.75-6.96a.93.92 50 01.88.08q2.78 1.82 5.35 3.4c9.37 5.79 26.52 6.74 29.52-6.94z"/><path d="M129.46 417q.11.26.08.5a.69.69 0 01-.59.59q-7.17.99-16.95 1.15-4.33.07-9.06 2.46c1.46-3.19 5.17-3.28 8.06-3.99q9.26.68 18.46-.71zM195.75 426.21c-5.22 3.39-34.49 21.03-22 28.75q-2.76.42-4.03-1.97c-3.13-5.85 3.79-11.84 7.68-15.34q4.24-3.81 16.9-12.18a.62.62 0 01.78.08l.67.66z"/><path fill="#8f9294" d="M142.54 488.43c-3.74-1.24-23.84-7.01-24.25-10.6q-2.19-19.26-4.99-38.56a.45.45 0 01.43-.51q1.38-.04 2.69.09c5.46.58 12.8-1.5 17.8-3.43a.98.98 0 011.32.77l7.76 51.61a.58.58 0 01-.76.63z"/><path fill="#8f9294" d="M77.64 442.72q1.88 6.45 4.96 12.34c5.2 9.93 16.77 19.74 25.92 25.16q21.76 12.89 49.48 16.82l-.3 20.97a.5.49-83.4 01-.6.48c-17.42-3.84-31.34-7.2-46.32-16.25-9.17-5.55-14.26-11.4-20.61-18.66-9.49-10.83-13.1-26.68-12.53-40.86zM185.5 498.04l-.02 20.16a1.27 1.27 0 01-1.11 1.26q-5.03.62-10.37 0l-.53-1.1q-.22-.45-.23-.96-.19-8.95.06-17.91.02-.8-1.05-.53l.04-.71 13.21-.21z"/><path fill="#fcfddf" d="M172.25 498.96q1.07-.27 1.05.53-.25 8.96-.06 17.91.01.51.23.96l.53 1.1-1.23.25a.45.45 0 01-.54-.44l.02-20.31z"/><path fill="#fff" d="M590.29 589.75l.71.31v.94h-1.06l-.19-.71.54-.54z"/><path fill="#fcfddf" d="M589.75 590.29l.19.71H13.19q-6-.63-12 0h-.5l-.19-.47a.34.34 0 01.32-.47l588.93.23z"/><path fill="#21201f" d="M13.19 591h-12q6-.63 12 0z"/></svg>