<svg xmlns="http://www.w3.org/2000/svg" viewBox="0 0 591 591"><g stroke-width="2" fill="none"><path stroke="#100f0f" vector-effect="non-scaling-stroke" d="M590.06 0l.19.29"/><path stroke="gray" vector-effect="non-scaling-stroke" d="M590.25.29v589.45a.5.49-90 01-.49.5l-588.51-.03"/><path stroke="#100f0f" vector-effect="non-scaling-stroke" d="M1.25 590.21L0 589.94"/><path stroke="#7d7f71" vector-effect="non-scaling-stroke" d="M586.25 4.52a.27.27 0 00-.27-.27H4.52a.27.27 0 00-.27.27v581.46a.27.27 0 00.27.27h581.46a.27.27 0 00.27-.27V4.52"/><path stroke="#908f8f" vector-effect="non-scaling-stroke" d="M591 587.31c-.84-.45-.25-537.06-.25-586.81a.25.24-86.1 00-.21-.25q-.17-.02-.29.04"/><path stroke="#c8cacb" vector-effect="non-scaling-stroke" d="M576.19 591q-3.25-.63-6.5 0M365.19 591q-4.13-.63-8.25 0"/><path stroke="#908f8f" vector-effect="non-scaling-stroke" d="M318.44 591q-2.38-.63-4.75 0M13.19 591l-11.94-.79"/><path stroke="#faf2c9" vector-effect="non-scaling-stroke" d="M17.29 33.78c-.3 16.43-.56 32.7.56 49.4a1.19 1.19 0 001.51 1.07q1.53-.44 3.23-2.16 31.15-31.5 61.25-64.13a.6.59-65.6 00-.37-1q-2.71-.27-5.47-.24c-13.57.11-27.21-.33-40.76.54-9.72.62-19.74 5.29-19.95 16.52"/><path stroke="#7d7f71" vector-effect="non-scaling-stroke" d="M182.21 427q5.54 30.5 10.14 61.17c.61 4.07-.8 7.02-2.48 10.52a1.57 1.55-.8 01-.71.72l-2.83 1.42a1.51 1.5 88.8 00-.7.73c-2 4.38 1.3 10.76 6.56 8.63q2.96-1.2 6.78-4.74"/><path stroke="#8d8e80" vector-effect="non-scaling-stroke" d="M198.97 505.45l2.82-.96a.39.39 0 01.51.32q1.85 13.34 3.71 26.67c.51 3.66-1.39 8.36-4.4 10.52-8.36 6-2.3 19.05 8.74 11.65 3.92-2.62 5.76-8.07 7.41-12.5q.86-2.29 2.66-5.48c5.46-9.69 3.28-20.32 3.36-31.04a.49.49 0 01.5-.49c5.67.07 11.33.43 16.95.02 16.26-1.19 28.28-1.97 48.22-5.17a.46.45-6.3 01.53.42l.73 13.09"/><path stroke="#7d7f71" vector-effect="non-scaling-stroke" d="M290.71 512.5l2.54 32.4a1.11 1.11 0 00.44.8l15.97 11.78a1 .98 52.5 00.92.13l4.42-1.65"/><path stroke="#8d8e80" vector-effect="non-scaling-stroke" d="M315 555.96l6.83-2.21a.79.78-9.3 011.03.73l.2 12.74a.88.86 17.2 00.39.72l12.67 8.38a1.42 1.37-31.6 00.95.21c2.95-.42 12.18-2.78 12.18-6.52q-.01-13.22.01-26.28a.57.56-10.5 01.37-.53q28.64-10.42 56.97-21.48c1.47-.57 3.31-.92 4.88-1.35a1.15 1.14 52.3 01.91.12q3.84 2.35 7.66 4.73c2.01 1.25 4.98-.54 7.02-1.14a.54.53-6.6 01.69.54l-.1 2.52a1.52 1.5 16.2 00.77 1.38l10.49 5.92a1.21 1.2 48.7 001.03.07l12.58-5.1a.78.78 0 00.48-.72q-.11-11.13 1.31-22.17a1.35 1.34 70.4 01.37-.79c2.18-2.35 2.09-17.74 2.06-21.47a.8.79 11.8 00-.47-.71q-11.79-5.16-23.4-10.77-1.46-.7-.95-3.12 1.06-5.05 2.41-18.38a.77.77 0 01.67-.69l2.87-.33a.43.43 0 00.38-.4l1.15-18.28a.56.56 0 00-.38-.57l-1.69-.58a.57.56 18.1 01-.36-.7c1.06-3.46 1.01-7.28 1.62-10.32q3.27-16.49 5.53-33.22a.67.65-89.3 01.57-.57l7.2-.81a.98.98 0 00.82-.7l4.07-14.43a1.03 1.02 18.1 00-.63-1.23c-21.06-7.96-42.4-15.51-63.53-23.46-1.01-.38-1.63-.27-2.64-.11a.42.41 86 01-.48-.42c.15-8.11.47-15.79-6.94-20.45-2.13-1.34-5.36-1.75-7.96-2.44a.6.6 0 01-.41-.8c2.98-7.57 6.91-15.98 8.35-23.24q3.36-17.03-3.29-33.58c-7.32-18.19-8.6-34.95-8.49-54.39a.83.82 76.3 01.44-.73c6.61-3.56 10-10.9 5.09-17.25-4.6-5.95-12.77-2.6-14.75 3.82a.4.39 50.1 01-.77-.07q-.36-2.84-.26-6.08.61-19.82 1.26-39.64c.71-21.97 9.17-54.9-25.21-56.65-6.13-.31-14.02-1.95-18.7-6.24-8.55-7.85-26.46-9.88-37.78-9.81-11.74.07-21.67.79-31.75 6.5-4.17 2.36-9.42 1.74-14.46 1.05-17.4-2.37-35.56 10.76-36.11 28.77q-.17 5.39 1.2 10.6c1.72 6.49 2.68 11.18 3 16.18q1.47 22.47.9 45a.34.33-78.3 01-.46.31c-16.96-7.08-20.28 18.53-7.2 20.4a.66.66 0 01.56.56q2.63 17.62-1.34 34.95-3.64 15.88-7.22 31.75c-4.84 21.49-3.57 42.26 7.31 61.6a.37.37 0 01-.26.55c-9.93 1.8-19.39 4.06-22.46 15.2q-2.09 7.62 1.17 14.77a.43.42-17.1 01-.32.6l-5.07.84a.57.56-9.2 00-.47.64q1.14 7.15 2.36 10.82c5.37 16.15 8.58 33.01 12.74 49"/><path stroke="#100f0f" vector-effect="non-scaling-stroke" d="M315 555.96q-1.54-1.63-3.13.1a1.86 1.86 0 01-2.75-.01c-3.72-4.09-8.43-6.59-12.45-10.32-3.16-2.93-2.49-5.29-2.21-9.3q.15-2.2-.78-7.99c-.96-5.98-.71-12.06-1.36-18.14a.71.7 5.9 00-.49-.59l-.33-.11a.52.52 0 00-.68.47l-.11 2.43M198.97 505.45q-3.56.7-6.52 2.89c-4.03 2.98-6.48-.83-6.1-4.63a1.35 1.32 71.7 01.41-.84c2.36-2.17 5-4.08 6.3-6.95 2.57-5.65-.09-14.6-1.96-23.49q-.58-2.76-1.43-11.32c-.71-7.21-2.47-14.28-3.7-21.52-.36-2.16-.36-12.91-3.76-12.59"/><path stroke="#59595b" vector-effect="non-scaling-stroke" d="M237.25 90.54q-14.2-2.75-25.29 7.2c-9.02 8.11-9.39 16.9-6.75 28.01"/><path stroke="#676667" vector-effect="non-scaling-stroke" d="M205.21 125.75q2.68 13.12 3.08 26.5"/><path stroke="#59595b" vector-effect="non-scaling-stroke" d="M208.29 152.25q1.2 30.47 1.21 60.97c0 4.41.96 8.97 1.2 13.03q.63 10.39.59 25.5"/><path stroke="#676667" vector-effect="non-scaling-stroke" d="M211.29 251.75q-.97 15.22-.54 20.75 1.28 16.54 8.25 31.54"/><path stroke="#59595b" vector-effect="non-scaling-stroke" d="M219 304.04q7.76 17.48 25.3 24.68c7.64 3.14 19.16-.23 24.06 3.96a.91.91 0 00.83.2c.98-.23 1.04-.2 1.86.43q2.87 2.17 6.45 2.9"/><path stroke="#676667" vector-effect="non-scaling-stroke" d="M277.5 336.21c3.37 2.68 6.5 7.4 11.37 3.38a1.24 1.22 73.1 00.43-.82c.31-2.97-1.71-7.66-5.51-5.24a1.08 1.08 0 00-.49.99l.27 3.48q.03.4-.32.22l-2.54-1.31a.66.66 0 01-.34-.76l1.28-4.62"/><path stroke="#59595b" vector-effect="non-scaling-stroke" d="M281.65 331.53q4.01-2.46 8.35-.57"/><path stroke="#676667" vector-effect="non-scaling-stroke" d="M290 330.96l3.3 3.94a.44.43 45.8 00.65.01q.4-.44.34-1.16"/><path stroke="#59595b" vector-effect="non-scaling-stroke" d="M294.29 333.75l3.46-3.79"/><path stroke="#676667" vector-effect="non-scaling-stroke" d="M297.75 329.96q4.52-1.75 6.75 2.08"/><path stroke="#59595b" vector-effect="non-scaling-stroke" d="M304.5 332.04l-.75 3.92"/><path stroke="#676667" vector-effect="non-scaling-stroke" d="M303.75 335.96q-.78.97-2 1"/><path stroke="#59595b" vector-effect="non-scaling-stroke" d="M301.75 336.96v-.92"/><path stroke="#676667" vector-effect="non-scaling-stroke" d="M301.75 336.04q1.62-1.22.59-3.14a.89.89 0 00-.88-.45l-2.71.35a.79.78-87.9 00-.67.63l-.88 4.49a1.35 1.32-54.3 00.14.92c2.27 4.3 8.5-.59 10.5-2.74 5.86-6.3 14.08-6 20.45-10.6"/><path stroke="#59595b" vector-effect="non-scaling-stroke" d="M328.29 325.5q15.33-8.97 22.92-25"/><path stroke="#676667" vector-effect="non-scaling-stroke" d="M351.21 300.5q3.27-3.71 4.54-8.46"/><path stroke="#59595b" vector-effect="non-scaling-stroke" d="M355.75 292.04q1.51-2.96 1.71-6.29"/><path stroke="#676667" vector-effect="non-scaling-stroke" d="M357.46 285.75q2.15-8.86 2.37-18.01"/><path stroke="#59595b" vector-effect="non-scaling-stroke" d="M359.83 267.74q.84-7.75-.29-15.49"/><path stroke="#676667" vector-effect="non-scaling-stroke" d="M359.54 252.25q.16-22.1-2.54-44.04"/><path stroke="#59595b" vector-effect="non-scaling-stroke" d="M357 208.21c-.23-5.3-1.5-10.75-1.61-15.64q-.64-28.72 2.32-57.32"/><path stroke="#676667" vector-effect="non-scaling-stroke" d="M357.71 135.25c.62-13.4.85-25.17-10.49-33.49q-2.33-1.71-6.97-2.3"/><path stroke="#59595b" vector-effect="non-scaling-stroke" d="M340.25 99.46q-9.1-.59-17.85-2.96c-3.98-1.07-6.98-3.77-10.86-5.5"/><path stroke="#676667" vector-effect="non-scaling-stroke" d="M311.54 91c-16.76-8.76-34.82-9.16-53.04-5.02q-2.09.48-5.41 2.15-7.3 3.7-15.84 2.41"/><path stroke="#a0a1a3" vector-effect="non-scaling-stroke" d="M311.54 91q.25.69-.13 1.29a.59.59 0 01-.76.2c-5.57-2.76-11.54-6-17.84-6.58-10.11-.93-16.94-1.55-25.97.06-4.78.85-9.08.61-13.73 3.93a1.43 1.41-61.5 01-.89.27q-1.14-.06-2.16.38c-1.27.54-12.6 2.92-12.81-.01M340.25 99.46l-.44.1q-1.83.44-.03.98l6.83 2.03q.49.15.87.5 6.66 6.18 7.78 14.98c.74 5.69 1.86 10.42 1.28 16.6a.53.52-86.5 00.51.58l.66.02M357 208.21q-.52-1.11-1.37-.65a1.37 1.36-19.8 00-.7 1.47q1.28 6.29 2.16 11.45c.24 1.43-.09 3.36.77 5.08a1.58 1.55 37 01.14.94c-.94 5.61.34 11.63.36 16.12q.03 6.15.04 12.38 0 .55.42.2 1.16-.99.72-2.95M359.83 267.74c-1.07-1.72-1.74-.11-1.71.85q.28 7.94-1.61 15.65-.34 1.37.95 1.51M355.75 292.04q-.33-.28-.67-.32a.75.73 16.4 00-.75.4l-3.9 7.82a.42.42 0 00.25.59q.28.1.53-.03M328.29 325.5q.11-1.31-.99-1.52a1.33 1.31-55.1 00-.92.17c-5.53 3.49-11.11 4.16-15.12 7.57q-2.3 1.96-7.51 4.24M304.5 332.04q1.03.27 1.52-.3a.63.63 0 000-.82q-2.63-3.05-6.72-2.86c-.9.04-1.64.54-2.68.32a.64.63 12.6 00-.75.47l-.14.59q-.2.8.57.48.85-.35 1.45.04M294.29 333.75q-.68-2.46-2.85-3.52a.93.92 40.8 00-.9.06q-.36.24-.54.67M281.65 331.53q-2.63 1.7-4.15 4.68M219 304.04l.23-.26a.72.71 57.6 00.15-.69q-1.94-6.2-2.98-12.62c-.56-3.45-2.7-6.28-3.34-9.48q-2.18-10.88-.63-23.55.37-2.94.04-4.88a.81.79 3.6 00-.58-.64l-.6-.17M208.29 152.25q.98.22 1.74-.34a.62.61-31 00.19-.75c-.7-1.51-.43-3.37-.56-4.54q-1.24-10.74-2.8-21.55a.51.51 0 00-.79-.35q-.86.59-.86 1.03M301.75 336.04l-1.81.26a.76.76 0 00-.64.67l-.05.43q-.09.84.59.35.87-.63 1.91-.79"/><path stroke="#676667" vector-effect="non-scaling-stroke" d="M199.49 190.91c-3.68-1.45-6.24.26-6.17 4.1.08 4.09 4.97 6.59 8.32 7.72a.55.55 0 00.72-.46q.54-5.74-2.07-10.65a1.57 1.56-3.3 00-.8-.71M369.81 193.57c-5.41 1.06-5.8 7.65-5.31 12.21a.41.4 77.3 00.53.34c4.78-1.64 11.18-7.93 5.68-12.33a1.1 1.09 58.6 00-.9-.22M198.54 251.75q-3.71 14.45-6.01 29.33"/><path stroke="#59595b" vector-effect="non-scaling-stroke" d="M192.53 281.08l-.99 7.67"/><path stroke="#676667" vector-effect="non-scaling-stroke" d="M191.54 288.75c-.61 15.38.55 27.81 7.68 41.13a.34.34 0 00.61-.02q1.03-2.22.58-5.31"/><path stroke="#59595b" vector-effect="non-scaling-stroke" d="M200.41 324.55q1.28-2.27 2.13 1.7"/><path stroke="#676667" vector-effect="non-scaling-stroke" d="M202.54 326.25c.93 6.08 2 13.52-6.06 15.27-5.89 1.27-12.27 2.03-15.82 5.8-4.01 4.26-3.09 11.94-1.09 17a.72.72 0 00.76.44l2.55-.34a1.19 1.15 15.5 00.75-.41l4.83-5.69a.95.94 20.3 01.71-.32l5.81.01q.75 0 .23-.54c-2.62-2.69-6.8-2.22-10.45-1.29a.35.34 87.8 01-.42-.39c.21-1.19.6-1.88 1.74-2.45 8.09-4.01 10.76.56 16.85 4.1q.61.35.4-.31-2.38-7.9-10.17-10.79a.46.45-32.9 01.19-.88c9.39.59 13.77 6.89 15.94 15.29"/><path stroke="#59595b" vector-effect="non-scaling-stroke" d="M209.29 360.75q-.02.26.05.47a.64.64 0 00.69.44q25.83-3.19 51.81-4.7a.34.34 0 00.07-.66q-5.95-1.7-12.12-4.55"/><path stroke="#676667" vector-effect="non-scaling-stroke" d="M249.79 351.75l-6.5-3.25"/><path stroke="#59595b" vector-effect="non-scaling-stroke" d="M243.29 348.5l-2-.75"/><path stroke="#676667" vector-effect="non-scaling-stroke" d="M241.29 347.75c-20.38-12.78-40.1-29.73-38.58-56.5"/><path stroke="#59595b" vector-effect="non-scaling-stroke" d="M202.71 291.25q.34-4.79-.32-9.45"/><path stroke="#908f8f" vector-effect="non-scaling-stroke" d="M202.39 281.8c.96-8.45 2.42-16.89 1.91-25.57"/><path stroke="#59595b" vector-effect="non-scaling-stroke" d="M204.3 256.23q.87-5.92.58-11.93c-.62-12.72-.92-25.36-2.24-38.06a.3.3 0 00-.47-.21c-.49.35-.79 1.09-.74 1.72.7 9.52 1.8 19.51.44 28.64q-1.15 7.76-3.33 15.36"/><path stroke="#c8cacb" vector-effect="non-scaling-stroke" d="M204.3 256.23q-1.47 4.58-1.25 9.37.11 2.43-.4 4.73-1.28 5.69-.26 11.47"/><path stroke="#a0a1a3" vector-effect="non-scaling-stroke" d="M202.71 291.25l-.41-.01a.5.49.6 00-.5.48c-.17 4.31-.58 9.57.95 13.66 1.39 3.72.63 6.89 3.21 10.42q5.49 7.53 10.61 15.37c1.96 3 5.1 4.22 7.73 6.69 2.37 2.22 5.03 3.82 7.38 6.07a1.17 1.17 0 00.84.33l.39-.01a1.27 1.24-25.7 01.86.29c1.51 1.28 5.54 4.56 7.52 3.21M243.29 348.5q-.08 3.2 2.89 3.1a1.29 1.29 0 01.87.29q1.46 1.15 2.74-.14M209.29 360.75q.77.2 1.13-.08a.68.66-33 00.18-.81c-1.76-3.62-3.05-7.52-5.49-10.61q-2.41-3.04-5.09-5.87a.98.97 46.1 01.02-1.37l3.47-3.38a1.93 1.92-16.6 00.52-.95q1.3-5.62-.54-11.09a.49.49 0 00-.47-.34h-.48M200.41 324.55q-.64-.62-2.06-.67a.73.71 80.4 01-.66-.48c-2.04-5.47-4.37-10.57-4.74-16.42q-.55-8.75.14-17.52a.64.64 0 00-.45-.66q-.59-.19-1.1-.05M192.53 281.08q2.22-3.99 2.62-8.48c.24-2.64 1.52-4.5 1.87-7.15q.67-5.13.74-5.42c.42-1.72 2.43-7.21.78-8.28"/><path stroke="#59595b" vector-effect="non-scaling-stroke" d="M368.29 265c1.39 10.74 3.57 20.52.46 31.26q-4.37 15.12-15.21 28.99"/><path stroke="#676667" vector-effect="non-scaling-stroke" d="M353.54 325.25q-5.43 7.31-12.08 13.5"/><path stroke="#59595b" vector-effect="non-scaling-stroke" d="M341.46 338.75q-8.21 6.81-17.96 11.29a.31.3 35.5 00.1.58q3.02.34 5.97.09 11.37-.94 22.78-2.8a1.95 1.95 0 001.51-1.23c2.86-7.64 8.28-15.78 17.42-16.25.38-.02 1.3.37 1.56.61a.51.51 0 01-.18.87q-7.86 2.57-10.25 10.54-.22.73.33.21c1.83-1.72 3.35-3.98 5.19-5.25 3.45-2.38 8.4-4.04 11.93-.72a.91.91 0 01-.67 1.57l-3.83-.21a1.54 1.53 30.2 00-.92.24c-1.99 1.27-7.07 4.55-7.18 6.38q-.04.54.43.28c4.73-2.63 9.19-4.61 12.41.41a1.52 1.52 0 002.78-.55q.94-5.05-.51-10.55c-2-7.64-13.31-5.17-16.67-12.21q-1.72-3.59 1.66-8.48.9-1.31 1.47.17.28.74.17 1.48a.41.41 0 00.78.24q1.65-3.39 2.03-6.39"/><path stroke="#676667" vector-effect="non-scaling-stroke" d="M371.81 309.07c3.94-11.79 6.27-22.26 3.4-34.57"/><path stroke="#59595b" vector-effect="non-scaling-stroke" d="M375.21 274.5l-.46-3.29"/><path stroke="#676667" vector-effect="non-scaling-stroke" d="M374.75 271.21c-2.48-11.6-6.62-24.43-7.89-34.75q-1.67-13.58-.15-27.31a.72.72 0 00-.46-.75l-1.61-.63a.44.44 0 00-.6.4c-.47 21.52-.4 37.27 4.25 56.83"/><path stroke="#a0a1a3" vector-effect="non-scaling-stroke" d="M374.75 271.21c-2.11.37-2.12-4.89-2.36-6.22q-.09-.52-.42-.92-2.33-2.83-2.82-6.45a.43.42 77.7 00-.54-.35l-.28.09a.59.58 72.8 00-.38.74c.32 1.01 2.43 6.97.34 6.9M375.21 274.5q-.48-.4-1.01-.25a.64.64 0 00-.48.66c.26 4.58-.11 8.8.42 13.55.58 5.11-1.6 10.7-2.9 14.28q-1.29 3.57.57 6.33M341.46 338.75q.36.83 1.27 1.13a.84.83-57.8 00.86-.2c.81-.79 13.56-14.41 9.95-14.43"/><path stroke="#59595b" vector-effect="non-scaling-stroke" d="M302.5 345.04l-4.71-.29"/><path stroke="#908f8f" vector-effect="non-scaling-stroke" d="M297.79 344.75q-2.2-.33-3.72-1.88a.51.5-43.7 00-.7-.01q-8.11 7.37-15.96 1.4c-8.16-6.21-15.15-9.39-25.71-8.79q-4.75.28-6.33-.04c-16.1-3.21-28.34-18.22-33.4-32.44-.68-1.91-1.67-3.74-2.51-5.52a.29.29 0 00-.55.18q4.23 20.67 20.13 33.81c12.57 10.4 30.13 19.69 46.62 20.65q7.91.46 10.82.41c22.17-.39 48.88-11.66 61.91-30.21 9.57-13.61 16.18-22.43 15.94-39.05q-.01-.52-.17-.02-.8 2.43-1.16 5.02c-1.47 10.66-6.23 16.68-12.87 25.09-8.87 11.24-17.66 16.36-30.5 21.87-6.34 2.71-9.93 8.26-17.13 9.82"/><path stroke="#c8cacb" vector-effect="non-scaling-stroke" d="M297.79 344.75q2.28 1 4.71.29"/><path stroke="#59595b" vector-effect="non-scaling-stroke" d="M385.75 352.29c-14.21.51-29.65 2.95-42.23 3.92q-25.89 2-72.02 6.01-20.04 1.75-32.28 3.5"/><path stroke="#676667" vector-effect="non-scaling-stroke" d="M239.22 365.72q-32.84 2.64-65.47 7.01a.38.38 0 00-.31.51q5.58 15.35 9.2 31.3a1.12 1.12 0 001.27.86l22.34-3.69"/><path stroke="#59595b" vector-effect="non-scaling-stroke" d="M206.25 401.71l8-1.31"/><path stroke="#676667" vector-effect="non-scaling-stroke" d="M214.25 400.4q13.79-2.62 27.75-3.44"/><path stroke="#59595b" vector-effect="non-scaling-stroke" d="M242 396.96l22.75-2"/><path stroke="#676667" vector-effect="non-scaling-stroke" d="M264.75 394.96l38.52-3.44"/><path stroke="#59595b" vector-effect="non-scaling-stroke" d="M303.27 391.52c34.3-3.72 65.93-8.03 99.29-14.95 2.71-.56 6.22-.83 9.51-1.76 9.28-2.6 19.55-2.82 29.13-4.34q.49-.08.03-.27-17.13-7.38-34.98-12.91"/><path stroke="#676667" vector-effect="non-scaling-stroke" d="M406.25 357.29c-6.88-2.73-12.78-6.06-20.5-5"/><path stroke="#a0a1a3" vector-effect="non-scaling-stroke" d="M406.25 357.29q.1.44-.27.92a.83.83 0 01-1.16.16c-2.61-1.98-5.47-1.98-7.63-2.76q-2.87-1.04-5.68-2.28a1.57 1.53-38.2 00-.94-.1c-.85.17-5.03 1.05-4.82-.94M303.27 391.52c.19-2.65-2.27-1.44-3.64-1.27q-17.44 2.15-35.01 2.87a.77.76 14 00-.62.37l-.22.39a.49.49 0 00.2.67l.77.41M242 396.96q.34-.87-.27-1.41a1 1 0 00-.88-.23q-4.41.96-8.92.94c-3.91-.01-7.44 1.06-11.72 1.24-1.07.05-9.05.76-5.96 2.9M206.25 401.71c-.4-1.99-1.68-1.29-3.13-1.12-4.13.5-14.77 1.15-17.96 3.36a.63.63 0 01-.78-.05c-2.29-2.06-2.32-9.24-3.2-12.06q-2.59-8.3-4.57-16.43a1.36 1.35 82.9 011.3-1.68c5.31-.04 10.45-1.25 15.57-1.51q6.04-.3 11.99-1.63a.79.78-24.2 01.8.3l.46.62a.46.46 0 00.75-.02l.82-1.23a.75.75 0 01.85-.3q3 .93 6.09.25c5.87-1.29 11.81-2.28 17.81-2.52q3.31-.13 6.17-1.97"/><path stroke="#676667" vector-effect="non-scaling-stroke" d="M448.895 376.58a.27.27 0 00-.309-.225l-25.114 3.932a.27.27 0 00-.225.309l.198 1.264a.27.27 0 00.309.225l25.114-3.932a.27.27 0 00.225-.309l-.198-1.264M234.86 407.8q69.77-4.07 138.72-15.24 7.58-1.23 19.62-3.81c7.99-1.71 16.11-2.86 24.05-4.82a.83.83 0 00.63-.83l-.09-2.01a.57.57 0 00-.7-.53c-32.72 7.47-67.82 12.06-100.63 16.04-6.97.84-15.28 1.18-22.91 2.05-19.56 2.21-39.21 2.9-58.56 5.86a.78.78 0 00-.66.73l-.1 1.93a.6.6 0 00.63.63M426.42 425.33l4.08 2.1a.66.66 0 00.95-.48q2.93-17.94 6.07-35.7.26-1.45.19-3.02a.43.43 0 00-.47-.41l-6.01.55a.77.76-88.5 00-.69.67l-4.42 35.72a.56.56 0 00.3.57"/><path stroke="#59595b" vector-effect="non-scaling-stroke" d="M401.46 396.75c-6.75 1.45-13.28 3.44-20.04 4.53q-5.5.89-10.96 1.97"/><path stroke="#676667" vector-effect="non-scaling-stroke" d="M370.46 403.25l-23.96 4.04"/><path stroke="#59595b" vector-effect="non-scaling-stroke" d="M346.5 407.29l-3.54.46"/><path stroke="#676667" vector-effect="non-scaling-stroke" d="M342.96 407.75q-1.27-.16-2.25.53a.92.9-18.4 00-.39.76l.22 15.11a.43.43 0 00.51.42l35.07-6.76a1.12 1.12 0 00.72-.48q2.48-3.79-.79-6.39a1.16 1.14 19.4 01-.43-.87l-.03-3.07"/><path stroke="#59595b" vector-effect="non-scaling-stroke" d="M375.59 407q2.13-1.95 5.24-1.33a1.43 1.41-12.1 01.85.54q2.63 3.42 1.99 7.84a.53.52 1.7 00.57.6q8.3-.71 16.03-3.92a1.13 1.12-43.3 00.06-2.05q-3.75-1.82-2.89-4.09 1.12-2.97 3.35-3.23a2.54 2.53 76.6 012.67 1.65l2.46 6.73a.94.93 87 00.66.6l1.63.41"/><path stroke="#676667" vector-effect="non-scaling-stroke" d="M408.21 410.75q.92 4.52-2.78 5.36a.39.38-40.6 00-.06.73l6.88 2.7"/><path stroke="#59595b" vector-effect="non-scaling-stroke" d="M412.25 419.54q3.24 1.2 5.42-1.18"/><path stroke="#676667" vector-effect="non-scaling-stroke" d="M417.67 418.36q1.91-.23 3.15-1.15a1.15 1.13 74.9 00.46-.81l2.84-25.41a.36.35 1.3 00-.38-.39c-1.84.1-3.56.96-4.83 1.31q-8.74 2.4-17.45 4.84"/><path stroke="#a0a1a3" vector-effect="non-scaling-stroke" d="M417.67 418.36q2.07-3.12 2.37-6.74c.53-6.29 1.67-12.36 2.61-18.6a.59.58 13.1 00-.41-.65c-2.17-.66-5.35 2.18-8.12 2.66-4.26.74-7.67 2.08-11.64 3.08a.75.74-20.7 01-.85-.38q-.21-.4-.17-.98M412.25 419.54q-.98-2.33-3.83-2.72a.31.31 0 01-.23-.47c1.1-1.84 3.14-6.62.54-8.16a.31.31 0 00-.46.26l-.06 2.3M375.59 407q-.54-1.24-1.61-.72a.81.8 78.2 00-.45.69q-.17 3.62 1.76 6.61a1.44 1.43-56.6 01.2 1c-.48 2.83-7.39 3.29-9.51 3.8-7.72 1.84-15.36 3.3-23.25 4.5a.51.5 81.3 01-.57-.42q-.92-5.99-.92-8.73 0-2.8 1.72-5.98"/><path stroke="#a0a1a3" vector-effect="non-scaling-stroke" d="M346.5 407.29q-.38.41-.2.86a.62.61-15 00.66.38q10.97-1.7 21.85-3.36 2.01-.31 1.65-1.92"/><path stroke="#676667" vector-effect="non-scaling-stroke" d="M229.012 405.851a.62.62 0 00-.706-.52l-42.636 6.448a.62.62 0 00-.52.706l.219 1.443a.62.62 0 00.705.52l42.635-6.447a.62.62 0 00.52-.706l-.218-1.444M215.29 426.75l2.13 20.07a.4.4 0 00.4.36l20.18-.22"/><path stroke="#59595b" vector-effect="non-scaling-stroke" d="M238 446.96q20.44.1 40.83-1.36a.62.61 1.1 00.57-.54q.24-1.78-.78-3.15"/><path stroke="#676667" vector-effect="non-scaling-stroke" d="M278.62 441.91l-.96-5.39a.63.63 0 00-.7-.51q-12.38 1.8-25.11-.44"/><path stroke="#59595b" vector-effect="non-scaling-stroke" d="M251.85 435.57q-3.3-2.01-1.74-5.76a1.52 1.49 87.1 01.64-.72l1.89-1.1a.54.54 0 00.2-.74l-1.43-2.56a1.43 1.41 35.2 01-.16-.89q.82-5.2 5.99-4.32c5.83.99 1.57 6.94.26 9.35a.39.39 0 00.29.58q9.11 1.24 18.24.05a.49.48-15.9 00.38-.67l-2.37-5.25a1.78 1.74 37.9 01-.13-.95q.2-1.33.8-2.46c1.49-2.75 5.11-2.25 6.75.12"/><path stroke="#676667" vector-effect="non-scaling-stroke" d="M281.46 420.25q1.14 2.9-.85 5.29a1.08 1.07-49.7 00.12 1.51l3.85 3.31a.9.89 25.9 01.3.85l-.45 2.41a.69.69 0 00.54.8q1.35.29 2.45-.51.41-.29.91-.38l45.47-7.81a.69.69 0 00.58-.67l.08-6.55"/><path stroke="#59595b" vector-effect="non-scaling-stroke" d="M334.46 418.5l.25-8.5a.46.46 0 00-.51-.47c-19.1 2.05-34.77 4.54-58.5 6.99q-2.9.3-9.45.41-17.25.29-34.5.61-7.88.15-16.37 2.45a.7.7 0 00-.51.57q-.48 3.08.42 6.19"/><path stroke="#a0a1a3" vector-effect="non-scaling-stroke" d="M334.46 418.5q.02-2.65-.98-5.11-.2-.5-.48-.05-1.17 1.89.05 3.77a1.59 1.58-60.3 01.25.92l-.24 6.16a.67.65-3.8 01-.56.62q-14.55 2.43-29.09 4.93-1.94.34-4.97.55c-3.97.29-6.68 2.17-10.18 1.92a1.25 1.25 0 01-1.14-1.45c.6-3.72-4.92-.87-3.83-6.63q.41-2.2-.76-4.17a.58.58 0 00-.7-.24q-.43.15-.37.53M251.85 435.57q6.36 3.37 13.46 3.12c3.09-.11 7.1-1.15 10.66-1.63a.53.52-8.8 01.58.42q.48 2.53 2.07 4.43M238 446.96q.3-.55.12-1.01a.76.73-10.1 00-.7-.47l-17.42.14a1.22 1.22 0 01-1.22-1.06q-1.07-8.15-1.83-16.24-.15-1.63-1.66-1.57"/><path stroke="#676667" vector-effect="non-scaling-stroke" d="M206.5 419.29l-10.88 1.59a.33.33 0 00-.28.38q3.55 22.58 7.33 45.09c.75 4.42 1.09 9.69 1.8 13.66q2.52 14.03 4.52 28.15c.71 5.02 2.11 10.09 3.18 15.17"/><path stroke="#59595b" vector-effect="non-scaling-stroke" d="M212.17 523.33q-.75 2.16.54 3.92"/><path stroke="#908f8f" vector-effect="non-scaling-stroke" d="M212.71 527.25l.46 9.66a.22.22 0 00.43.04l1.94-7.95"/><path stroke="#59595b" vector-effect="non-scaling-stroke" d="M215.54 529c3.37-12.03 2.14-21.85.67-35.25"/><path stroke="#676667" vector-effect="non-scaling-stroke" d="M216.21 493.75q-1.97-17.55-3.35-35.15c-.86-10.92-2.58-21.46-4.06-32.25"/><path stroke="#59595b" vector-effect="non-scaling-stroke" d="M208.8 426.35l-.62-6.93a.6.59-3.1 00-.61-.54q-.57 0-1.07.41"/><path stroke="#a0a1a3" vector-effect="non-scaling-stroke" d="M208.8 426.35q-1.29 2.44-.78 4.99c1.14 5.79 1.29 11.63 1.95 17.49.3 2.66 1.61 4.69 1.78 7.52q.32 5.54.81 11.07c.73 8.31.88 17.73 2.47 26.68a.41.4 60.6 00.7.2l.48-.55"/><path stroke="#c8cacb" vector-effect="non-scaling-stroke" d="M215.54 529q-.7-2.13-2.83-1.75"/><path stroke="#a0a1a3" vector-effect="non-scaling-stroke" d="M212.17 523.33q1.32-.9.91-2.66c-.34-1.41-1.17-1.75-.94-3.74q.27-2.18-.96-4.99a1.57 1.53-51.8 01-.1-.94c.34-1.63.68-2.4-.03-4.08-2.95-6.92-3.1-14.12-4.16-21.45-.64-4.47-.79-10.68-2.04-15.96-1.35-5.7-1.97-11.62-2.82-17.8-.65-4.74-2.36-9.27-2.87-13.76q-.86-7.47-1.91-14.89a1.48 1.47 1 011.73-1.66c1.03.19 9.44.83 7.52-2.11"/><path stroke="#908f8f" vector-effect="non-scaling-stroke" d="M291.23 440.49l24.06 16.99a1.57 1.52-28 00.94.27c.71-.03 1.5.04 2.17-.12q29.29-7.25 58.62-14.36 1.46-.35 4.5-.79c3.73-.54 8.58-2.22 11.06-2.75q16.44-3.52 32.65-7.35a.4.4 0 00.06-.75q-13.1-5.54-26.02-10.68c-1.28-.5-4.28.56-5.43.77-34.16 6.2-68.25 12.86-102.51 18.33a.24.24 0 00-.1.44"/><path stroke="#59595b" vector-effect="non-scaling-stroke" d="M431.75 436.79l-11.5 2.67"/><path stroke="#676667" vector-effect="non-scaling-stroke" d="M420.25 439.46q-35.49 8.56-70.97 17.17-1.65.4-3.28.91"/><path stroke="#59595b" vector-effect="non-scaling-stroke" d="M346 457.54c-5.41.82-11.18 2.76-15.79 3.71q-5.9 1.21-11.83 2.47a.73.73 0 00-.57.81l1.19 8.09a.65.64-11.5 00.81.53l57.94-15.36"/><path stroke="#908f8f" vector-effect="non-scaling-stroke" d="M377.75 457.79c8.91-.99 18.72-4.44 27.5-6.71"/><path stroke="#59595b" vector-effect="non-scaling-stroke" d="M405.25 451.08c6.74-.96 13.24-3.05 19.66-4.36q3.95-.8 7.81-1.68"/><path stroke="#908f8f" vector-effect="non-scaling-stroke" d="M432.72 445.04l.49-7.9a.58.58 0 00-.49-.61q-.47-.07-.97.26"/><path stroke="#c8cacb" vector-effect="non-scaling-stroke" d="M432.72 445.04q-1.75-4.29-.97-8.25M405.25 451.08q-10.25.39-16.26 2.66-5.73 2.16-9.77 2.46-.51.04-.96.27l-1.37.72q-.61.32.04.55.39.13.82.05"/><path stroke="#a0a1a3" vector-effect="non-scaling-stroke" d="M346 457.54q-.07.32.02.55a.61.61 0 00.72.35c6.38-1.71 13.17-2.87 19.21-4.46 17.31-4.56 34.87-7.93 52.17-12.59.82-.22 1.74-.1 2.6-.16a.46.46 0 00.42-.55q-.18-.79-.89-1.22"/><path stroke="#59595b" vector-effect="non-scaling-stroke" d="M278.5 452.29c-6.25.16-12.87.94-18.67 1.02-13.55.17-28.1 1.13-41.55.05a.41.4-1.1 00-.44.45l2.2 19.19"/><path stroke="#908f8f" vector-effect="non-scaling-stroke" d="M220.04 473l3.09 24.09a.56.56 0 00.58.49l8.1-.34"/><path stroke="#59595b" vector-effect="non-scaling-stroke" d="M231.81 497.24q.79.41 1.69.47"/><path stroke="#908f8f" vector-effect="non-scaling-stroke" d="M233.5 497.71l18.26-1.25"/><path stroke="#59595b" vector-effect="non-scaling-stroke" d="M251.76 496.46c12.46-.15 24.15-3.03 36.5-3.88"/><path stroke="#676667" vector-effect="non-scaling-stroke" d="M288.26 492.58q.88-2.54.65-5.9-.58-8.71-1.45-14.73"/><path stroke="#59595b" vector-effect="non-scaling-stroke" d="M287.46 471.95q.67-3.7-.25-7.45"/><path stroke="#676667" vector-effect="non-scaling-stroke" d="M287.21 464.5c-.65-3.15-4-2.39-4.81-5.61q-.75-2.97-1.26-5.97a1.03 1.02-81.7 00-.54-.73q-1.05-.54-2.1.1"/><path stroke="#a0a1a3" vector-effect="non-scaling-stroke" d="M287.21 464.5q-1.48 1.68-2.72.24-2.5-2.91-4.91-3.77a.77.77 0 01-.52-.73l.04-4.52a1.59 1.57 29 00-.25-.85q-.78-1.17-.35-2.58M287.46 471.95q-1.32 6.14-.1 12.33c.21 1.05 1.12 1.97.19 3.22a1.09 1.08 57.7 00-.19.87l.9 4.21"/><path stroke="#c8cacb" vector-effect="non-scaling-stroke" d="M251.76 496.46q-9.45-.54-17.45.35-.73.09-.81.9M231.81 497.24q-3.54-1.11-6.29-.95a1.74 1.73-4.9 01-1.82-1.53c-.6-5.24-1.04-9.99-1.89-15.32-.13-.82-.35-7.54-.96-7.5a.59.59 0 00-.55.5q-.05.33-.26.56"/><path stroke="#676667" vector-effect="non-scaling-stroke" d="M417.04 461.61c-.13 2.34-.51 4.7.08 7.02a.45.44-14.6 00.55.32l4.03-1.02a1.31 1.29 84.6 00.98-1.2l.38-7.46a.57.57 0 00-.8-.54l-4.7 2.13a.88.87-10.6 00-.52.75M383.5 466.21q-1.44-2.3-4.75-1.47-21.93 5.47-43.71 11.51c-3.28.91-7.09 1.51-10.61 2.43a.66.65 80.7 00-.48.67l.31 4.85a.57.57 0 00.69.52q29.74-6.61 58.8-15.68"/><path stroke="#908f8f" vector-effect="non-scaling-stroke" d="M383.75 469.04l9.86-3.42a.8.79-7.3 00.54-.69l.07-.91q.06-.87-.68-.4-4.63 2.88-10.04 2.59"/><path stroke="#d7d6d7" vector-effect="non-scaling-stroke" d="M383.75 469.04q-1.33-1.26-.25-2.83"/><path stroke="#908f8f" vector-effect="non-scaling-stroke" d="M324.61 492.9c1.75.94 17.76-4.3 19.33-4.73 13.11-3.62 26.11-7.82 39.36-10.85 1.41-.32 11.46-2.35 11.43-3.88a.55.55 0 00-.75-.5c-7.85 3.06-18.06 5.36-23.96 7.11q-22.32 6.65-45.26 11.77a.58.58 0 00-.15 1.08M312.84 505.18l23.08 16.57a1.04 1.02-36.7 00.96.13q52.65-19.23 105.87-36.78.5-.16.03-.38c-3.89-1.83-19.76-10.31-23.04-9.51-16.56 4.03-33.18 7.8-49.62 12.5q-28.78 8.22-57.03 16.04-1.62.45-.25 1.43"/><path stroke="#676667" vector-effect="non-scaling-stroke" d="M318.81 485.1c-6.85 1.09-6.3 5.66-5.62 11.07a.43.42 78.5 00.54.36l5.21-1.46a.83.83 0 00.61-.81l-.17-8.68a.49.49 0 00-.57-.48"/><path stroke="#59595b" vector-effect="non-scaling-stroke" d="M412.5 502.54l-5.5 1.92"/><path stroke="#676667" vector-effect="non-scaling-stroke" d="M407 504.46l-37.5 13.08"/><path stroke="#59595b" vector-effect="non-scaling-stroke" d="M369.5 517.54l-28.25 10.07a.6.6 0 00-.4.64l1.09 9.99a.48.47-7 00.54.42q1.57-.22 2.95-.74 16.46-6.31 32.82-12.88"/><path stroke="#676667" vector-effect="non-scaling-stroke" d="M378.25 525.04q20.4-7.54 40.76-15.18c6.13-2.29 13.01-4.17 19.49-6.4"/><path stroke="#59595b" vector-effect="non-scaling-stroke" d="M438.5 503.46l10.31-3.28"/><path stroke="#676667" vector-effect="non-scaling-stroke" d="M448.81 500.18q1.5-4.71.93-9.43a.43.43 0 00-.55-.36q-18.56 5.45-36.69 12.15"/><path stroke="#a0a1a3" vector-effect="non-scaling-stroke" d="M448.81 500.18q-1.06-3.85-.73-7.12a1.12 1.12 0 00-1.66-1.08q-3.1 1.76-6.36 2.84-13 4.31-26.05 8.44-1.09.35-1.51-.72M438.5 503.46q.02-.7-.24-1.04a1.47 1.46-28.1 00-1.69-.51q-3.3 1.2-6.4 2.47c-5.06 2.06-10.53 3.38-15.65 5.89-3.96 1.95-8.24 2.27-12.34 4.15q-9.7 4.46-19.93 7.49c-.98.29-5.13 1.78-4 3.13M369.5 517.54q.68 1.47 1.98.96 17.61-6.88 35.57-12.87a.53.53 0 00.33-.68q-.11-.3-.38-.49"/><path stroke="#59595b" vector-effect="non-scaling-stroke" d="M330.535 495a.88.64 10.5 00-.748-.79.88.64 10.5 00-.982.47.88.64 10.5 00.748.79.88.64 10.5 00.982-.47"/><path stroke="#676667" vector-effect="non-scaling-stroke" d="M312.28 521.07c-.14-2.26-1.74-12.51-4.44-12.99a.53.53 0 00-.61.62q.97 5.13 1.56 10.22.32 2.8 3.01 2.69a.5.5 0 00.48-.54M443.23 515.49a.43.43 0 00-.23.38v9.49a.43.43 0 00.58.41l3.84-1.42a.43.43 0 00.28-.4l.16-10.18a.43.43 0 00-.63-.39l-4 2.11M426.225 519.32a2.48.95 97.3 001.257-2.34 2.48.95 97.3 00-.627-2.58 2.48.95 97.3 00-1.257 2.34 2.48.95 97.3 00.627 2.58"/><path stroke="#59595b" vector-effect="non-scaling-stroke" d="M318.028 543.595a.98.76-9.1 00-1.088-.595.98.76-9.1 00-.848.905.98.76-9.1 001.088.595.98.76-9.1 00.848-.905"/><path stroke="#676667" vector-effect="non-scaling-stroke" d="M317.59 548.51a.62.62 0 00.09-1.09l-2.48-1.61a.62.62 0 00-.96.52l.03 2.67a.62.62 0 00.86.57l2.46-1.06"/><path stroke="#59595b" vector-effect="non-scaling-stroke" d="M339.54 568.5l.75-.25"/><path stroke="#676667" vector-effect="non-scaling-stroke" d="M340.29 568.25c2.43.19 3.74-.82 3.73-3.38q-.01-5.13-.12-10.33a1.02 1.02 0 00-.5-.86q-1.77-1.03-3.03.52a.72.71 26.8 01-.74.24q-1.61-.42-1.62.81-.04 6.86.02 13.8a.5.49-3.1 00.55.49q.67-.08.96-1.04"/><path stroke="#a0a1a3" vector-effect="non-scaling-stroke" d="M340.29 568.25q.01-1.22 1.18-1.29a1.23 1.23 0 001.05-1.72q-1.54-3.52-.91-7.4a1.08 1.08 0 00-.42-1.03l-1.35-1q-.79-.59-.75.39l.45 12.3"/><path stroke="#59595b" vector-effect="non-scaling-stroke" d="M261.38 94.91q-8.66 2.69-17.88 3.88c-3.99.52-10.61-1.26-16.61-.51-5.93.73-9.89 3.36-12.94 8.27"/><path stroke="#a0a1a3" vector-effect="non-scaling-stroke" d="M213.95 106.55q-3.66 1.05-3.43 4.98a.69.69 0 01-.5.7l-.91.25a1 .98-.2 00-.69.68c-1.86 6.52 3.61 7.89 3.32 13.1-.44 8.04 1.4 14.22 1.6 22.97q.01.54.46.25 1.53-.97.99-3.23"/><path stroke="#59595b" vector-effect="non-scaling-stroke" d="M214.79 146.25q2.07 15.08 1.97 23.75c-.27 24.57 1.04 49.16.95 73.75"/><path stroke="#a0a1a3" vector-effect="non-scaling-stroke" d="M217.71 243.75q-.19-.06-.36-.03a.53.53 0 00-.43.51q-.55 17.18 1.28 34.28.11 1.02-.13 2.04a1.82 1.73 43.5 00.05.96c1.04 3.14 1.02 6.31 2.29 9.2q3.53 8.01 6.97 13.14.62.91 1.87.11"/><path stroke="#59595b" vector-effect="non-scaling-stroke" d="M229.25 303.96q10.53 14.03 28 16.5"/><path stroke="#a0a1a3" vector-effect="non-scaling-stroke" d="M257.25 320.46q-.47-.04-.98.33a.37.37 0 00.15.66c8.22 1.7 15.6.11 24.84-.08.31-.01.42-.02.49-.35a.41.41 0 00-.38-.49l-1.37-.07"/><path stroke="#59595b" vector-effect="non-scaling-stroke" d="M280 320.46q11.59-.61 23.19-.3c17.14.46 37.18-5.78 43.5-23.44 1.69-4.72 2.29-11.71 3.77-17.47"/><path stroke="#a0a1a3" vector-effect="non-scaling-stroke" d="M350.46 279.25q.32 1.14 1.21 1.41a.42.41 11.1 00.53-.35l1.25-11.25q.05-.52-.09-1.02c-.56-1.97.34-4.12.32-5.69-.11-9.51 0-15.85-1.32-23.76-.71-4.25-.27-8.3-.65-12.64a.64.64 0 00-.57-.59q-.64-.07-1.1.64"/><path stroke="#59595b" vector-effect="non-scaling-stroke" d="M350.04 226q-2.53-38.4-1.69-64.82c.47-14.56 2.77-29.75-.62-44.68q-1.42-6.23-7.65-9.51"/><path stroke="#a0a1a3" vector-effect="non-scaling-stroke" d="M340.08 106.99q-3.89-1.68-8.1-2.05c-2.02-.18-3.13-1.15-4.71-2.21a1.74 1.69-25.2 00-.87-.3q-6.14-.34-12.1-1.85a.77.77 0 00-.79.27l-.3.4"/><path stroke="#59595b" vector-effect="non-scaling-stroke" d="M313.21 101.25q-10.48-5.96-22.21-8.79"/><path stroke="#a0a1a3" vector-effect="non-scaling-stroke" d="M291 92.46q.25-.28.27-.69a.58.57 5.4 00-.5-.6q-9.29-1.25-18.5.29-.64.1-4.61.27-3.77.16-6.28 3.18"/><path stroke="#676667" vector-effect="non-scaling-stroke" d="M291 92.46q-14.92-1.24-29.62 2.45M313.21 101.25c8.11 4.68 17.47 5.9 26.87 5.74M350.04 226c2.02 19.5 3.77 36.2.42 53.25M280 320.46q-11.38.51-22.75 0M229.25 303.96c-11.69-16.71-11.89-40.96-11.54-60.21M214.79 146.25q-1.34-15.27-3.04-30.5-.33-2.94 2.2-9.2"/><path stroke="#59595b" vector-effect="non-scaling-stroke" d="M231.63 155.438a.27.27 0 00-.303-.232l-9.775 1.287a.27.27 0 00-.233.303l1.13 8.586a.27.27 0 00.304.232l9.775-1.287a.27.27 0 00.233-.303l-1.13-8.586M241.86 167.68a.27.27 0 00-.291-.248l-19.238 1.548a.27.27 0 00-.248.29l.757 9.41a.27.27 0 00.291.248l19.238-1.548a.27.27 0 00.248-.29l-.757-9.41M253.62 182.11a.73.72-2 00-.76-.7l-29.49 1.45a.33.32-3.5 00-.31.34l.5 11.92a.53.52 87.3 00.55.51q14.82-.77 29.53-2.77a.41.41 0 00.35-.43l-.37-10.32M248.5 197.29q-12.18.7-24.43 2.55a.67.66-1.7 00-.56.59q-.73 7.36.24 14.68a.81.8 83.7 00.87.7l42.63-3.75a.7.7 0 00.63-.71l-.34-13.85"/><path stroke="#908f8f" vector-effect="non-scaling-stroke" d="M267.54 197.5q.22-.7-.01-1.21a.73.72 75.7 00-.72-.43l-18.31 1.43"/><path stroke="#c8cacb" vector-effect="non-scaling-stroke" d="M267.54 197.5q-9.07.93-18.17.58a.79.78-12.6 01-.66-.41l-.21-.38"/><path stroke="#59595b" vector-effect="non-scaling-stroke" d="M258 217.29l-33.52 2.81a.88.87 86.6 00-.8.91l.53 13.76a.61.6 85.6 00.67.58l5.62-.64"/><path stroke="#676667" vector-effect="non-scaling-stroke" d="M230.5 234.71q9.4-.02 18.77-1.77"/><path stroke="#59595b" vector-effect="non-scaling-stroke" d="M249.27 232.94q5.65.82 11.19-.68"/><path stroke="#676667" vector-effect="non-scaling-stroke" d="M260.46 232.26q7.93.13 15.83-1.39"/><path stroke="#59595b" vector-effect="non-scaling-stroke" d="M276.29 230.87l9.44-.38a.51.5 84.9 00.48-.58l-.67-4.66"/><path stroke="#908f8f" vector-effect="non-scaling-stroke" d="M285.54 225.25l-.34-9.42a.63.62-3.1 00-.68-.6L258 217.29"/><path stroke="#c8cacb" vector-effect="non-scaling-stroke" d="M285.54 225.25q-1.99-2.63-1.13-5.86a1.77 1.77 0 00-1.83-2.22q-8.53.6-16.81.36c-2.37-.06-4.75.59-7.18.72a.59.59 0 01-.63-.5q-.03-.22.04-.46"/><path stroke="#a0a1a3" vector-effect="non-scaling-stroke" d="M276.29 230.87q-8.08-1.05-15.83 1.39M249.27 232.94q-9.46-.87-18.95.76a.41.41 0 00-.19.71l.37.3"/><path stroke="#59595b" vector-effect="non-scaling-stroke" d="M244.47 239.01l-19.77 1.21a.76.76 0 00-.71.71q-.47 7.67.64 15.22c.24 1.68-.67 5.01 2.36 4.84q31.64-1.81 63.26-3.53"/><path stroke="#908f8f" vector-effect="non-scaling-stroke" d="M290.25 257.46l9.93-.26a.45.44 89.3 00.43-.45l-.16-20.55a.59.59 0 00-.55-.59q-3.55-.24-9.2.1-30.03 1.83-46.23 3.3"/><path stroke="#c8cacb" vector-effect="non-scaling-stroke" d="M290.25 257.46q4.08-1.98 8.66-.63a.8.8 0 001.03-.86q-.95-7.96-.38-15.99.15-2.02-1.88-2.01c-12.61.08-24.86.17-37.35 1.29q-7.92.71-15.86-.25"/><path stroke="#59595b" vector-effect="non-scaling-stroke" d="M229.5 266.79l-3.16.13"/><path stroke="#676667" vector-effect="non-scaling-stroke" d="M226.34 266.92q-1.53 9.87 1.7 19.33"/><path stroke="#59595b" vector-effect="non-scaling-stroke" d="M228.04 286.25l.72 2.73a.64.64 0 00.67.48l23.82-1.92"/><path stroke="#676667" vector-effect="non-scaling-stroke" d="M253.25 287.54l21-1.33"/><path stroke="#59595b" vector-effect="non-scaling-stroke" d="M274.25 286.21l14.75-1.17"/><path stroke="#676667" vector-effect="non-scaling-stroke" d="M289 285.04l23.94-.59a.46.46 0 00.45-.51q-.61-7.21.07-14.44"/><path stroke="#59595b" vector-effect="non-scaling-stroke" d="M313.46 269.5l.25-3.25"/><path stroke="#908f8f" vector-effect="non-scaling-stroke" d="M313.71 266.25q.53-1.6.13-3.27a.63.62 82.5 00-.62-.48c-32.74.74-55.82 2.26-83.72 4.29"/><path stroke="#c8cacb" vector-effect="non-scaling-stroke" d="M313.71 266.25c-13.39-.56-30.7.18-40.06.29q-19.73.23-39.46.86-1.99.06-4.69-.61"/><path stroke="#a0a1a3" vector-effect="non-scaling-stroke" d="M313.46 269.5q-.17-.09-.24-.25a.22.22 0 00-.29-.12c-1.26.54-.84 12.14-.7 13.93a.48.48 0 01-.51.51q-11.75-.68-23.49-.12a.76.76 0 00-.72.76q.01 1.2 1.49.83M274.25 286.21c.47-1.08-.36-1.57-1.33-1.48q-10.15.91-20.29 1.86a.15.15 0 00-.13.16l.02.39a.4.39.8 00.36.37l.37.03M228.04 286.25c2.1-.41.45-1.7.37-2.43q-.98-8.24-2.07-16.9"/><path stroke="#59595b" vector-effect="non-scaling-stroke" d="M242.17 294.34l-10.41 1.18a.31.31 0 00-.22.48c4.14 6.02 10.31 12.54 17.46 14.96"/><path stroke="#676667" vector-effect="non-scaling-stroke" d="M249 310.96c8.24 1.91 16.35 1.52 24.12 1.66q15.08.26 30.14-1.38"/><path stroke="#59595b" vector-effect="non-scaling-stroke" d="M303.26 311.24q12.07 0 24.05-1.85a.63.62-2.9 00.53-.58l.12-2.06"/><path stroke="#908f8f" vector-effect="non-scaling-stroke" d="M327.96 306.75l-.21-16.13a.5.49 88.8 00-.5-.49q-35.75.9-71.3 2.83-6.83.37-13.78 1.38"/><path stroke="#c8cacb" vector-effect="non-scaling-stroke" d="M327.96 306.75q-.36.23-.72.27a.4.39 86.1 01-.44-.39l-.12-10.16a1.18 1.16 67.2 01.34-.85l.26-.28a.47.47 0 00-.35-.8q-40.19.63-80.28.72-.39 0-2.23.4-1.65.35-2.25-1.32"/><path stroke="#a0a1a3" vector-effect="non-scaling-stroke" d="M303.26 311.24q-11-.2-22-.08-.78.01-3 .3c-2.5.32-5.42-.35-7.52-.22q-10.12.64-20.15-.76a1.58 1.54 34.5 00-.94.16l-.65.32M252.14 471.64q-3.06 1.57-1.79 4.9a1.39 1.38-44.7 01-.01.98l-1.24 3.05a1.46 1.41 50.8 00-.07.83q.71 3.22 3.99 2.64"/><path stroke="#59595b" vector-effect="non-scaling-stroke" d="M253.02 484.04l4.65 1.87"/><path stroke="#a0a1a3" vector-effect="non-scaling-stroke" d="M257.67 485.91q11.13 2.71 21.89-1.18a.73.73 0 00.48-.7q-.02-.64-.54-.82"/><path stroke="#59595b" vector-effect="non-scaling-stroke" d="M279.5 483.21q3.09-.58 4.61-3.12a.99.97-42.3 00.05-.92l-2.1-4.44a1.37 1.35-47.1 01-.03-1.06l.72-1.81a1.71 1.67 49.5 00.07-1.03c-1.07-4.51-8.26-5-7.26.08q.53 2.69 1.1 5.05a1.01 1 75.8 01-.72 1.22q-8.94 2.37-18.09 1.08a.68.67 13.9 01-.54-.89l1.88-5.38a1.24 1.22-49.1 00-.06-.93c-2.02-4.13-5.23-2.66-6.99.58"/><path stroke="#676667" vector-effect="non-scaling-stroke" d="M279.5 483.21q-10.49 3.53-21.83 2.7M253.02 484.04c-4.31-3.54-1.39-3.97-.41-7.55q.13-.48.06-.96l-.53-3.89"/></g><path d="M0 0h590.06l.19.29v589.45a.5.49-90 01-.49.5l-588.51-.03-1.25-.27V0zm586.25 4.52a.27.27 0 00-.27-.27H4.52a.27.27 0 00-.27.27v581.46a.27.27 0 00.27.27h581.46a.27.27 0 00.27-.27V4.52z"/><path fill="#201e1e" d="M590.06 0h.94v587.31c-.84-.45-.25-537.06-.25-586.81a.25.24-86.1 00-.21-.25q-.17-.02-.29.04l-.19-.29z"/><path fill="#fff" d="M590.25.29q.12-.06.29-.04a.25.24-86.1 01.21.25c0 49.75-.59 586.36.25 586.81V591h-14.81q-3.25-.63-6.5 0h-204.5q-4.13-.63-8.25 0h-38.5q-2.38-.63-4.75 0H13.19l-11.94-.79 588.51.03a.5.49-90 00.49-.5V.29z"/><path fill="#fafde2" d="M586.25 585.98a.27.27 0 01-.27.27H4.52a.27.27 0 01-.27-.27V4.52a.27.27 0 01.27-.27h581.46a.27.27 0 01.27.27v581.46zM17.29 33.78c-.3 16.43-.56 32.7.56 49.4a1.19 1.19 0 001.51 1.07q1.53-.44 3.23-2.16 31.15-31.5 61.25-64.13a.6.59-65.6 00-.37-1q-2.71-.27-5.47-.24c-13.57.11-27.21-.33-40.76.54-9.72.62-19.74 5.29-19.95 16.52zM182.21 427q5.54 30.5 10.14 61.17c.61 4.07-.8 7.02-2.48 10.52a1.57 1.55-.8 01-.71.72l-2.83 1.42a1.51 1.5 88.8 00-.7.73c-2 4.38 1.3 10.76 6.56 8.63q2.96-1.2 6.78-4.74l2.82-.96a.39.39 0 01.51.32q1.85 13.34 3.71 26.67c.51 3.66-1.39 8.36-4.4 10.52-8.36 6-2.3 19.05 8.74 11.65 3.92-2.62 5.76-8.07 7.41-12.5q.86-2.29 2.66-5.48c5.46-9.69 3.28-20.32 3.36-31.04a.49.49 0 01.5-.49c5.67.07 11.33.43 16.95.02 16.26-1.19 28.28-1.97 48.22-5.17a.46.45-6.3 01.53.42l.73 13.09 2.54 32.4a1.11 1.11 0 00.44.8l15.97 11.78a1 .98 52.5 00.92.13l4.42-1.65 6.83-2.21a.79.78-9.3 011.03.73l.2 12.74a.88.86 17.2 00.39.72l12.67 8.38a1.42 1.37-31.6 00.95.21c2.95-.42 12.18-2.78 12.18-6.52q-.01-13.22.01-26.28a.57.56-10.5 01.37-.53q28.64-10.42 56.97-21.48c1.47-.57 3.31-.92 4.88-1.35a1.15 1.14 52.3 01.91.12q3.84 2.35 7.66 4.73c2.01 1.25 4.98-.54 7.02-1.14a.54.53-6.6 01.69.54l-.1 2.52a1.52 1.5 16.2 00.77 1.38l10.49 5.92a1.21 1.2 48.7 001.03.07l12.58-5.1a.78.78 0 00.48-.72q-.11-11.13 1.31-22.17a1.35 1.34 70.4 01.37-.79c2.18-2.35 2.09-17.74 2.06-21.47a.8.79 11.8 00-.47-.71q-11.79-5.16-23.4-10.77-1.46-.7-.95-3.12 1.06-5.05 2.41-18.38a.77.77 0 01.67-.69l2.87-.33a.43.43 0 00.38-.4l1.15-18.28a.56.56 0 00-.38-.57l-1.69-.58a.57.56 18.1 01-.36-.7c1.06-3.46 1.01-7.28 1.62-10.32q3.27-16.49 5.53-33.22a.67.65-89.3 01.57-.57l7.2-.81a.98.98 0 00.82-.7l4.07-14.43a1.03 1.02 18.1 00-.63-1.23c-21.06-7.96-42.4-15.51-63.53-23.46-1.01-.38-1.63-.27-2.64-.11a.42.41 86 01-.48-.42c.15-8.11.47-15.79-6.94-20.45-2.13-1.34-5.36-1.75-7.96-2.44a.6.6 0 01-.41-.8c2.98-7.57 6.91-15.98 8.35-23.24q3.36-17.03-3.29-33.58c-7.32-18.19-8.6-34.95-8.49-54.39a.83.82 76.3 01.44-.73c6.61-3.56 10-10.9 5.09-17.25-4.6-5.95-12.77-2.6-14.75 3.82a.4.39 50.1 01-.77-.07q-.36-2.84-.26-6.08.61-19.82 1.26-39.64c.71-21.97 9.17-54.9-25.21-56.65-6.13-.31-14.02-1.95-18.7-6.24-8.55-7.85-26.46-9.88-37.78-9.81-11.74.07-21.67.79-31.75 6.5-4.17 2.36-9.42 1.74-14.46 1.05-17.4-2.37-35.56 10.76-36.11 28.77q-.17 5.39 1.2 10.6c1.72 6.49 2.68 11.18 3 16.18q1.47 22.47.9 45a.34.33-78.3 01-.46.31c-16.96-7.08-20.28 18.53-7.2 20.4a.66.66 0 01.56.56q2.63 17.62-1.34 34.95-3.64 15.88-7.22 31.75c-4.84 21.49-3.57 42.26 7.31 61.6a.37.37 0 01-.26.55c-9.93 1.8-19.39 4.06-22.46 15.2q-2.09 7.62 1.17 14.77a.43.42-17.1 01-.32.6l-5.07.84a.57.56-9.2 00-.47.64q1.14 7.15 2.36 10.82c5.37 16.15 8.58 33.01 12.74 49z"/><path fill="#fae6af" d="M17.85 83.18c-1.12-16.7-.86-32.97-.56-49.4.21-11.23 10.23-15.9 19.95-16.52 13.55-.87 27.19-.43 40.76-.54q2.76-.03 5.47.24a.6.59-65.6 01.37 1q-30.1 32.63-61.25 64.13-1.7 1.72-3.23 2.16a1.19 1.19 0 01-1.51-1.07z"/><path fill="#201e1e" d="M315 555.96q-1.54-1.63-3.13.1a1.86 1.86 0 01-2.75-.01c-3.72-4.09-8.43-6.59-12.45-10.32-3.16-2.93-2.49-5.29-2.21-9.3q.15-2.2-.78-7.99c-.96-5.98-.71-12.06-1.36-18.14a.71.7 5.9 00-.49-.59l-.33-.11a.52.52 0 00-.68.47l-.11 2.43-.73-13.09a.46.45-6.3 00-.53-.42c-19.94 3.2-31.96 3.98-48.22 5.17-5.62.41-11.28.05-16.95-.02a.49.49 0 00-.5.49c-.08 10.72 2.1 21.35-3.36 31.04q-1.8 3.19-2.66 5.48c-1.65 4.43-3.49 9.88-7.41 12.5-11.04 7.4-17.1-5.65-8.74-11.65 3.01-2.16 4.91-6.86 4.4-10.52q-1.86-13.33-3.71-26.67a.39.39 0 00-.51-.32l-2.82.96q-3.56.7-6.52 2.89c-4.03 2.98-6.48-.83-6.1-4.63a1.35 1.32 71.7 01.41-.84c2.36-2.17 5-4.08 6.3-6.95 2.57-5.65-.09-14.6-1.96-23.49q-.58-2.76-1.43-11.32c-.71-7.21-2.47-14.28-3.7-21.52-.36-2.16-.36-12.91-3.76-12.59-4.16-15.99-7.37-32.85-12.74-49q-1.22-3.67-2.36-10.82a.57.56-9.2 01.47-.64l5.07-.84a.43.42-17.1 00.32-.6q-3.26-7.15-1.17-14.77c3.07-11.14 12.53-13.4 22.46-15.2a.37.37 0 00.26-.55c-10.88-19.34-12.15-40.11-7.31-61.6q3.58-15.87 7.22-31.75 3.97-17.33 1.34-34.95a.66.66 0 00-.56-.56c-13.08-1.87-9.76-27.48 7.2-20.4a.34.33-78.3 00.46-.31q.57-22.53-.9-45c-.32-5-1.28-9.69-3-16.18q-1.37-5.21-1.2-10.6c.55-18.01 18.71-31.14 36.11-28.77 5.04.69 10.29 1.31 14.46-1.05 10.08-5.71 20.01-6.43 31.75-6.5 11.32-.07 29.23 1.96 37.78 9.81 4.68 4.29 12.57 5.93 18.7 6.24 34.38 1.75 25.92 34.68 25.21 56.65q-.65 19.82-1.26 39.64-.1 3.24.26 6.08a.4.39 50.1 00.77.07c1.98-6.42 10.15-9.77 14.75-3.82 4.91 6.35 1.52 13.69-5.09 17.25a.83.82 76.3 00-.44.73c-.11 19.44 1.17 36.2 8.49 54.39q6.65 16.55 3.29 33.58c-1.44 7.26-5.37 15.67-8.35 23.24a.6.6 0 00.41.8c2.6.69 5.83 1.1 7.96 2.44 7.41 4.66 7.09 12.34 6.94 20.45a.42.41 86 00.48.42c1.01-.16 1.63-.27 2.64.11 21.13 7.95 42.47 15.5 63.53 23.46a1.03 1.02 18.1 01.63 1.23l-4.07 14.43a.98.98 0 01-.82.7l-7.2.81a.67.65-89.3 00-.57.57q-2.26 16.73-5.53 33.22c-.61 3.04-.56 6.86-1.62 10.32a.57.56 18.1 00.36.7l1.69.58a.56.56 0 01.38.57l-1.15 18.28a.43.43 0 01-.38.4l-2.87.33a.77.77 0 00-.67.69q-1.35 13.33-2.41 18.38-.51 2.42.95 3.12 11.61 5.61 23.4 10.77a.8.79 11.8 01.47.71c.03 3.73.12 19.12-2.06 21.47a1.35 1.34 70.4 00-.37.79q-1.42 11.04-1.31 22.17a.78.78 0 01-.48.72l-12.58 5.1a1.21 1.2 48.7 01-1.03-.07l-10.49-5.92a1.52 1.5 16.2 01-.77-1.38l.1-2.52a.54.53-6.6 00-.69-.54c-2.04.6-5.01 2.39-7.02 1.14q-3.82-2.38-7.66-4.73a1.15 1.14 52.3 00-.91-.12c-1.57.43-3.41.78-4.88 1.35q-28.33 11.06-56.97 21.48a.57.56-10.5 00-.37.53q-.02 13.06-.01 26.28c0 3.74-9.23 6.1-12.18 6.52a1.42 1.37-31.6 01-.95-.21l-12.67-8.38a.88.86 17.2 01-.39-.72l-.2-12.74a.79.78-9.3 00-1.03-.73l-6.83 2.21zM237.25 90.54q-14.2-2.75-25.29 7.2c-9.02 8.11-9.39 16.9-6.75 28.01q2.68 13.12 3.08 26.5 1.2 30.47 1.21 60.97c0 4.41.96 8.97 1.2 13.03q.63 10.39.59 25.5-.97 15.22-.54 20.75 1.28 16.54 8.25 31.54 7.76 17.48 25.3 24.68c7.64 3.14 19.16-.23 24.06 3.96a.91.91 0 00.83.2c.98-.23 1.04-.2 1.86.43q2.87 2.17 6.45 2.9c3.37 2.68 6.5 7.4 11.37 3.38a1.24 1.22 73.1 00.43-.82c.31-2.97-1.71-7.66-5.51-5.24a1.08 1.08 0 00-.49.99l.27 3.48q.03.4-.32.22l-2.54-1.31a.66.66 0 01-.34-.76l1.28-4.62q4.01-2.46 8.35-.57l3.3 3.94a.44.43 45.8 00.65.01q.4-.44.34-1.16l3.46-3.79q4.52-1.75 6.75 2.08l-.75 3.92q-.78.97-2 1v-.92q1.62-1.22.59-3.14a.89.89 0 00-.88-.45l-2.71.35a.79.78-87.9 00-.67.63l-.88 4.49a1.35 1.32-54.3 00.14.92c2.27 4.3 8.5-.59 10.5-2.74 5.86-6.3 14.08-6 20.45-10.6q15.33-8.97 22.92-25 3.27-3.71 4.54-8.46 1.51-2.96 1.71-6.29 2.15-8.86 2.37-18.01.84-7.75-.29-15.49.16-22.1-2.54-44.04c-.23-5.3-1.5-10.75-1.61-15.64q-.64-28.72 2.32-57.32c.62-13.4.85-25.17-10.49-33.49q-2.33-1.71-6.97-2.3-9.1-.59-17.85-2.96c-3.98-1.07-6.98-3.77-10.86-5.5-16.76-8.76-34.82-9.16-53.04-5.02q-2.09.48-5.41 2.15-7.3 3.7-15.84 2.41zm-37.76 100.37c-3.68-1.45-6.24.26-6.17 4.1.08 4.09 4.97 6.59 8.32 7.72a.55.55 0 00.72-.46q.54-5.74-2.07-10.65a1.57 1.56-3.3 00-.8-.71zm170.32 2.66c-5.41 1.06-5.8 7.65-5.31 12.21a.41.4 77.3 00.53.34c4.78-1.64 11.18-7.93 5.68-12.33a1.1 1.09 58.6 00-.9-.22zm-171.27 58.18q-3.71 14.45-6.01 29.33l-.99 7.67c-.61 15.38.55 27.81 7.68 41.13a.34.34 0 00.61-.02q1.03-2.22.58-5.31 1.28-2.27 2.13 1.7c.93 6.08 2 13.52-6.06 15.27-5.89 1.27-12.27 2.03-15.82 5.8-4.01 4.26-3.09 11.94-1.09 17a.72.72 0 00.76.44l2.55-.34a1.19 1.15 15.5 00.75-.41l4.83-5.69a.95.94 20.3 01.71-.32l5.81.01q.75 0 .23-.54c-2.62-2.69-6.8-2.22-10.45-1.29a.35.34 87.8 01-.42-.39c.21-1.19.6-1.88 1.74-2.45 8.09-4.01 10.76.56 16.85 4.1q.61.35.4-.31-2.38-7.9-10.17-10.79a.46.45-32.9 01.19-.88c9.39.59 13.77 6.89 15.94 15.29q-.02.26.05.47a.64.64 0 00.69.44q25.83-3.19 51.81-4.7a.34.34 0 00.07-.66q-5.95-1.7-12.12-4.55l-6.5-3.25-2-.75c-20.38-12.78-40.1-29.73-38.58-56.5q.34-4.79-.32-9.45c.96-8.45 2.42-16.89 1.91-25.57q.87-5.92.58-11.93c-.62-12.72-.92-25.36-2.24-38.06a.3.3 0 00-.47-.21c-.49.35-.79 1.09-.74 1.72.7 9.52 1.8 19.51.44 28.64q-1.15 7.76-3.33 15.36zM368.29 265c1.39 10.74 3.57 20.52.46 31.26q-4.37 15.12-15.21 28.99-5.43 7.31-12.08 13.5-8.21 6.81-17.96 11.29a.31.3 35.5 00.1.58q3.02.34 5.97.09 11.37-.94 22.78-2.8a1.95 1.95 0 001.51-1.23c2.86-7.64 8.28-15.78 17.42-16.25.38-.02 1.3.37 1.56.61a.51.51 0 01-.18.87q-7.86 2.57-10.25 10.54-.22.73.33.21c1.83-1.72 3.35-3.98 5.19-5.25 3.45-2.38 8.4-4.04 11.93-.72a.91.91 0 01-.67 1.57l-3.83-.21a1.54 1.53 30.2 00-.92.24c-1.99 1.27-7.07 4.55-7.18 6.38q-.04.54.43.28c4.73-2.63 9.19-4.61 12.41.41a1.52 1.52 0 002.78-.55q.94-5.05-.51-10.55c-2-7.64-13.31-5.17-16.67-12.21q-1.72-3.59 1.66-8.48.9-1.31 1.47.17.28.74.17 1.48a.41.41 0 00.78.24q1.65-3.39 2.03-6.39c3.94-11.79 6.27-22.26 3.4-34.57l-.46-3.29c-2.48-11.6-6.62-24.43-7.89-34.75q-1.67-13.58-.15-27.31a.72.72 0 00-.46-.75l-1.61-.63a.44.44 0 00-.6.4c-.47 21.52-.4 37.27 4.25 56.83zm-65.79 80.04l-4.71-.29q-2.2-.33-3.72-1.88a.51.5-43.7 00-.7-.01q-8.11 7.37-15.96 1.4c-8.16-6.21-15.15-9.39-25.71-8.79q-4.75.28-6.33-.04c-16.1-3.21-28.34-18.22-33.4-32.44-.68-1.91-1.67-3.74-2.51-5.52a.29.29 0 00-.55.18q4.23 20.67 20.13 33.81c12.57 10.4 30.13 19.69 46.62 20.65q7.91.46 10.82.41c22.17-.39 48.88-11.66 61.91-30.21 9.57-13.61 16.18-22.43 15.94-39.05q-.01-.52-.17-.02-.8 2.43-1.16 5.02c-1.47 10.66-6.23 16.68-12.87 25.09-8.87 11.24-17.66 16.36-30.5 21.87-6.34 2.71-9.93 8.26-17.13 9.82zm83.25 7.25c-14.21.51-29.65 2.95-42.23 3.92q-25.89 2-72.02 6.01-20.04 1.75-32.28 3.5-32.84 2.64-65.47 7.01a.38.38 0 00-.31.51q5.58 15.35 9.2 31.3a1.12 1.12 0 001.27.86l22.34-3.69 8-1.31q13.79-2.62 27.75-3.44l22.75-2 38.52-3.44c34.3-3.72 65.93-8.03 99.29-14.95 2.71-.56 6.22-.83 9.51-1.76 9.28-2.6 19.55-2.82 29.13-4.34q.49-.08.03-.27-17.13-7.38-34.98-12.91c-6.88-2.73-12.78-6.06-20.5-5zm63.145 24.29a.27.27 0 00-.309-.225l-25.114 3.932a.27.27 0 00-.225.309l.198 1.264a.27.27 0 00.309.225l25.114-3.932a.27.27 0 00.225-.309l-.198-1.264zM234.86 407.8q69.77-4.07 138.72-15.24 7.58-1.23 19.62-3.81c7.99-1.71 16.11-2.86 24.05-4.82a.83.83 0 00.63-.83l-.09-2.01a.57.57 0 00-.7-.53c-32.72 7.47-67.82 12.06-100.63 16.04-6.97.84-15.28 1.18-22.91 2.05-19.56 2.21-39.21 2.9-58.56 5.86a.78.78 0 00-.66.73l-.1 1.93a.6.6 0 00.63.63zm191.56 17.53l4.08 2.1a.66.66 0 00.95-.48q2.93-17.94 6.07-35.7.26-1.45.19-3.02a.43.43 0 00-.47-.41l-6.01.55a.77.76-88.5 00-.69.67l-4.42 35.72a.56.56 0 00.3.57zm-24.96-28.58c-6.75 1.45-13.28 3.44-20.04 4.53q-5.5.89-10.96 1.97l-23.96 4.04-3.54.46q-1.27-.16-2.25.53a.92.9-18.4 00-.39.76l.22 15.11a.43.43 0 00.51.42l35.07-6.76a1.12 1.12 0 00.72-.48q2.48-3.79-.79-6.39a1.16 1.14 19.4 01-.43-.87l-.03-3.07q2.13-1.95 5.24-1.33a1.43 1.41-12.1 01.85.54q2.63 3.42 1.99 7.84a.53.52 1.7 00.57.6q8.3-.71 16.03-3.92a1.13 1.12-43.3 00.06-2.05q-3.75-1.82-2.89-4.09 1.12-2.97 3.35-3.23a2.54 2.53 76.6 012.67 1.65l2.46 6.73a.94.93 87 00.66.6l1.63.41q.92 4.52-2.78 5.36a.39.38-40.6 00-.06.73l6.88 2.7q3.24 1.2 5.42-1.18 1.91-.23 3.15-1.15a1.15 1.13 74.9 00.46-.81l2.84-25.41a.36.35 1.3 00-.38-.39c-1.84.1-3.56.96-4.83 1.31q-8.74 2.4-17.45 4.84zm-172.448 9.101a.62.62 0 00-.706-.52l-42.636 6.448a.62.62 0 00-.52.706l.219 1.443a.62.62 0 00.705.52l42.635-6.447a.62.62 0 00.52-.706l-.218-1.444zM215.29 426.75l2.13 20.07a.4.4 0 00.4.36l20.18-.22q20.44.1 40.83-1.36a.62.61 1.1 00.57-.54q.24-1.78-.78-3.15l-.96-5.39a.63.63 0 00-.7-.51q-12.38 1.8-25.11-.44-3.3-2.01-1.74-5.76a1.52 1.49 87.1 01.64-.72l1.89-1.1a.54.54 0 00.2-.74l-1.43-2.56a1.43 1.41 35.2 01-.16-.89q.82-5.2 5.99-4.32c5.83.99 1.57 6.94.26 9.35a.39.39 0 00.29.58q9.11 1.24 18.24.05a.49.48-15.9 00.38-.67l-2.37-5.25a1.78 1.74 37.9 01-.13-.95q.2-1.33.8-2.46c1.49-2.75 5.11-2.25 6.75.12q1.14 2.9-.85 5.29a1.08 1.07-49.7 00.12 1.51l3.85 3.31a.9.89 25.9 01.3.85l-.45 2.41a.69.69 0 00.54.8q1.35.29 2.45-.51.41-.29.91-.38l45.47-7.81a.69.69 0 00.58-.67l.08-6.55.25-8.5a.46.46 0 00-.51-.47c-19.1 2.05-34.77 4.54-58.5 6.99q-2.9.3-9.45.41-17.25.29-34.5.61-7.88.15-16.37 2.45a.7.7 0 00-.51.57q-.48 3.08.42 6.19zm-8.79-7.46l-10.88 1.59a.33.33 0 00-.28.38q3.55 22.58 7.33 45.09c.75 4.42 1.09 9.69 1.8 13.66q2.52 14.03 4.52 28.15c.71 5.02 2.11 10.09 3.18 15.17q-.75 2.16.54 3.92l.46 9.66a.22.22 0 00.43.04l1.94-7.95c3.37-12.03 2.14-21.85.67-35.25q-1.97-17.55-3.35-35.15c-.86-10.92-2.58-21.46-4.06-32.25l-.62-6.93a.6.59-3.1 00-.61-.54q-.57 0-1.07.41zm84.73 21.2l24.06 16.99a1.57 1.52-28 00.94.27c.71-.03 1.5.04 2.17-.12q29.29-7.25 58.62-14.36 1.46-.35 4.5-.79c3.73-.54 8.58-2.22 11.06-2.75q16.44-3.52 32.65-7.35a.4.4 0 00.06-.75q-13.1-5.54-26.02-10.68c-1.28-.5-4.28.56-5.43.77-34.16 6.2-68.25 12.86-102.51 18.33a.24.24 0 00-.1.44zm140.52-3.7l-11.5 2.67q-35.49 8.56-70.97 17.17-1.65.4-3.28.91c-5.41.82-11.18 2.76-15.79 3.71q-5.9 1.21-11.83 2.47a.73.73 0 00-.57.81l1.19 8.09a.65.64-11.5 00.81.53l57.94-15.36c8.91-.99 18.72-4.44 27.5-6.71 6.74-.96 13.24-3.05 19.66-4.36q3.95-.8 7.81-1.68l.49-7.9a.58.58 0 00-.49-.61q-.47-.07-.97.26zm-153.25 15.5c-6.25.16-12.87.94-18.67 1.02-13.55.17-28.1 1.13-41.55.05a.41.4-1.1 00-.44.45l2.2 19.19 3.09 24.09a.56.56 0 00.58.49l8.1-.34q.79.41 1.69.47l18.26-1.25c12.46-.15 24.15-3.03 36.5-3.88q.88-2.54.65-5.9-.58-8.71-1.45-14.73.67-3.7-.25-7.45c-.65-3.15-4-2.39-4.81-5.61q-.75-2.97-1.26-5.97a1.03 1.02-81.7 00-.54-.73q-1.05-.54-2.1.1zm138.54 9.32c-.13 2.34-.51 4.7.08 7.02a.45.44-14.6 00.55.32l4.03-1.02a1.31 1.29 84.6 00.98-1.2l.38-7.46a.57.57 0 00-.8-.54l-4.7 2.13a.88.87-10.6 00-.52.75zm-33.54 4.6q-1.44-2.3-4.75-1.47-21.93 5.47-43.71 11.51c-3.28.91-7.09 1.51-10.61 2.43a.66.65 80.7 00-.48.67l.31 4.85a.57.57 0 00.69.52q29.74-6.61 58.8-15.68l9.86-3.42a.8.79-7.3 00.54-.69l.07-.91q.06-.87-.68-.4-4.63 2.88-10.04 2.59zm-58.89 26.69c1.75.94 17.76-4.3 19.33-4.73 13.11-3.62 26.11-7.82 39.36-10.85 1.41-.32 11.46-2.35 11.43-3.88a.55.55 0 00-.75-.5c-7.85 3.06-18.06 5.36-23.96 7.11q-22.32 6.65-45.26 11.77a.58.58 0 00-.15 1.08zm-11.77 12.28l23.08 16.57a1.04 1.02-36.7 00.96.13q52.65-19.23 105.87-36.78.5-.16.03-.38c-3.89-1.83-19.76-10.31-23.04-9.51-16.56 4.03-33.18 7.8-49.62 12.5q-28.78 8.22-57.03 16.04-1.62.45-.25 1.43zm5.97-20.08c-6.85 1.09-6.3 5.66-5.62 11.07a.43.42 78.5 00.54.36l5.21-1.46a.83.83 0 00.61-.81l-.17-8.68a.49.49 0 00-.57-.48zm93.69 17.44l-5.5 1.92-37.5 13.08-28.25 10.07a.6.6 0 00-.4.64l1.09 9.99a.48.47-7 00.54.42q1.57-.22 2.95-.74 16.46-6.31 32.82-12.88 20.4-7.54 40.76-15.18c6.13-2.29 13.01-4.17 19.49-6.4l10.31-3.28q1.5-4.71.93-9.43a.43.43 0 00-.55-.36q-18.56 5.45-36.69 12.15zM330.535 495a.88.64 10.5 00-.748-.79.88.64 10.5 00-.982.47.88.64 10.5 00.748.79.88.64 10.5 00.982-.47zm-18.255 26.07c-.14-2.26-1.74-12.51-4.44-12.99a.53.53 0 00-.61.62q.97 5.13 1.56 10.22.32 2.8 3.01 2.69a.5.5 0 00.48-.54zm130.95-5.58a.43.43 0 00-.23.38v9.49a.43.43 0 00.58.41l3.84-1.42a.43.43 0 00.28-.4l.16-10.18a.43.43 0 00-.63-.39l-4 2.11zm-17.005 3.83a2.48.95 97.3 001.257-2.34 2.48.95 97.3 00-.627-2.58 2.48.95 97.3 00-1.257 2.34 2.48.95 97.3 00.627 2.58zm-108.197 24.275a.98.76-9.1 00-1.088-.595.98.76-9.1 00-.848.905.98.76-9.1 001.088.595.98.76-9.1 00.848-.905zm-.438 4.915a.62.62 0 00.09-1.09l-2.48-1.61a.62.62 0 00-.96.52l.03 2.67a.62.62 0 00.86.57l2.46-1.06zm21.95 19.99l.75-.25c2.43.19 3.74-.82 3.73-3.38q-.01-5.13-.12-10.33a1.02 1.02 0 00-.5-.86q-1.77-1.03-3.03.52a.72.71 26.8 01-.74.24q-1.61-.42-1.62.81-.04 6.86.02 13.8a.5.49-3.1 00.55.49q.67-.08.96-1.04z"/><path fill="#aeadaf" d="M311.54 91q.25.69-.13 1.29a.59.59 0 01-.76.2c-5.57-2.76-11.54-6-17.84-6.58-10.11-.93-16.94-1.55-25.97.06-4.78.85-9.08.61-13.73 3.93a1.43 1.41-61.5 01-.89.27q-1.14-.06-2.16.38c-1.27.54-12.6 2.92-12.81-.01q8.54 1.29 15.84-2.41 3.32-1.67 5.41-2.15c18.22-4.14 36.28-3.74 53.04 5.02z"/><path fill="#919497" d="M311.54 91c3.88 1.73 6.88 4.43 10.86 5.5q8.75 2.37 17.85 2.96l-.44.1q-1.83.44-.03.98l6.83 2.03q.49.15.87.5 6.66 6.18 7.78 14.98c.74 5.69 1.86 10.42 1.28 16.6a.53.52-86.5 00.51.58l.66.02q-2.96 28.6-2.32 57.32c.11 4.89 1.38 10.34 1.61 15.64q-.52-1.11-1.37-.65a1.37 1.36-19.8 00-.7 1.47q1.28 6.29 2.16 11.45c.24 1.43-.09 3.36.77 5.08a1.58 1.55 37 01.14.94c-.94 5.61.34 11.63.36 16.12q.03 6.15.04 12.38 0 .55.42.2 1.16-.99.72-2.95 1.13 7.74.29 15.49c-1.07-1.72-1.74-.11-1.71.85q.28 7.94-1.61 15.65-.34 1.37.95 1.51-.2 3.33-1.71 6.29-.33-.28-.67-.32a.75.73 16.4 00-.75.4l-3.9 7.82a.42.42 0 00.25.59q.28.1.53-.03-7.59 16.03-22.92 25 .11-1.31-.99-1.52a1.33 1.31-55.1 00-.92.17c-5.53 3.49-11.11 4.16-15.12 7.57q-2.3 1.96-7.51 4.24l.75-3.92q1.03.27 1.52-.3a.63.63 0 000-.82q-2.63-3.05-6.72-2.86c-.9.04-1.64.54-2.68.32a.64.63 12.6 00-.75.47l-.14.59q-.2.8.57.48.85-.35 1.45.04l-3.46 3.79q-.68-2.46-2.85-3.52a.93.92 40.8 00-.9.06q-.36.24-.54.67-4.34-1.89-8.35.57-2.63 1.7-4.15 4.68-3.58-.73-6.45-2.9c-.82-.63-.88-.66-1.86-.43a.91.91 0 01-.83-.2c-4.9-4.19-16.42-.82-24.06-3.96q-17.54-7.2-25.3-24.68l.23-.26a.72.71 57.6 00.15-.69q-1.94-6.2-2.98-12.62c-.56-3.45-2.7-6.28-3.34-9.48q-2.18-10.88-.63-23.55.37-2.94.04-4.88a.81.79 3.6 00-.58-.64l-.6-.17q.04-15.11-.59-25.5c-.24-4.06-1.2-8.62-1.2-13.03q-.01-30.5-1.21-60.97.98.22 1.74-.34a.62.61-31 00.19-.75c-.7-1.51-.43-3.37-.56-4.54q-1.24-10.74-2.8-21.55a.51.51 0 00-.79-.35q-.86.59-.86 1.03c-2.64-11.11-2.27-19.9 6.75-28.01q11.09-9.95 25.29-7.2c.21 2.93 11.54.55 12.81.01q1.02-.44 2.16-.38a1.43 1.41-61.5 00.89-.27c4.65-3.32 8.95-3.08 13.73-3.93 9.03-1.61 15.86-.99 25.97-.06 6.3.58 12.27 3.82 17.84 6.58a.59.59 0 00.76-.2q.38-.6.13-1.29zm-50.16 3.91q-8.66 2.69-17.88 3.88c-3.99.52-10.61-1.26-16.61-.51-5.93.73-9.89 3.36-12.94 8.27q-3.66 1.05-3.43 4.98a.69.69 0 01-.5.7l-.91.25a1 .98-.2 00-.69.68c-1.86 6.52 3.61 7.89 3.32 13.1-.44 8.04 1.4 14.22 1.6 22.97q.01.54.46.25 1.53-.97.99-3.23 2.07 15.08 1.97 23.75c-.27 24.57 1.04 49.16.95 73.75q-.19-.06-.36-.03a.53.53 0 00-.43.51q-.55 17.18 1.28 34.28.11 1.02-.13 2.04a1.82 1.73 43.5 00.05.96c1.04 3.14 1.02 6.31 2.29 9.2q3.53 8.01 6.97 13.14.62.91 1.87.11 10.53 14.03 28 16.5-.47-.04-.98.33a.37.37 0 00.15.66c8.22 1.7 15.6.11 24.84-.08.31-.01.42-.02.49-.35a.41.41 0 00-.38-.49l-1.37-.07q11.59-.61 23.19-.3c17.14.46 37.18-5.78 43.5-23.44 1.69-4.72 2.29-11.71 3.77-17.47q.32 1.14 1.21 1.41a.42.41 11.1 00.53-.35l1.25-11.25q.05-.52-.09-1.02c-.56-1.97.34-4.12.32-5.69-.11-9.51 0-15.85-1.32-23.76-.71-4.25-.27-8.3-.65-12.64a.64.64 0 00-.57-.59q-.64-.07-1.1.64-2.53-38.4-1.69-64.82c.47-14.56 2.77-29.75-.62-44.68q-1.42-6.23-7.65-9.51-3.89-1.68-8.1-2.05c-2.02-.18-3.13-1.15-4.71-2.21a1.74 1.69-25.2 00-.87-.3q-6.14-.34-12.1-1.85a.77.77 0 00-.79.27l-.3.4q-10.48-5.96-22.21-8.79.25-.28.27-.69a.58.57 5.4 00-.5-.6q-9.29-1.25-18.5.29-.64.1-4.61.27-3.77.16-6.28 3.18z"/><path fill="#aeadaf" d="M291 92.46q-14.92-1.24-29.62 2.45 2.51-3.02 6.28-3.18 3.97-.17 4.61-.27 9.21-1.54 18.5-.29a.58.57 5.4 01.5.6q-.02.41-.27.69z"/><path fill="#201e1e" d="M291 92.46q11.73 2.83 22.21 8.79c8.11 4.68 17.47 5.9 26.87 5.74q6.23 3.28 7.65 9.51c3.39 14.93 1.09 30.12.62 44.68q-.84 26.42 1.69 64.82c2.02 19.5 3.77 36.2.42 53.25-1.48 5.76-2.08 12.75-3.77 17.47-6.32 17.66-26.36 23.9-43.5 23.44q-11.6-.31-23.19.3-11.38.51-22.75 0-17.47-2.47-28-16.5c-11.69-16.71-11.89-40.96-11.54-60.21.09-24.59-1.22-49.18-.95-73.75q.1-8.67-1.97-23.75-1.34-15.27-3.04-30.5-.33-2.94 2.2-9.2c3.05-4.91 7.01-7.54 12.94-8.27 6-.75 12.62 1.03 16.61.51q9.22-1.19 17.88-3.88 14.7-3.69 29.62-2.45zm-59.37 62.978a.27.27 0 00-.303-.232l-9.775 1.287a.27.27 0 00-.233.303l1.13 8.586a.27.27 0 00.304.232l9.775-1.287a.27.27 0 00.233-.303l-1.13-8.586zm10.23 12.242a.27.27 0 00-.291-.248l-19.238 1.548a.27.27 0 00-.248.29l.757 9.41a.27.27 0 00.291.248l19.238-1.548a.27.27 0 00.248-.29l-.757-9.41zm11.76 14.43a.73.72-2 00-.76-.7l-29.49 1.45a.33.32-3.5 00-.31.34l.5 11.92a.53.52 87.3 00.55.51q14.82-.77 29.53-2.77a.41.41 0 00.35-.43l-.37-10.32zm-5.12 15.18q-12.18.7-24.43 2.55a.67.66-1.7 00-.56.59q-.73 7.36.24 14.68a.81.8 83.7 00.87.7l42.63-3.75a.7.7 0 00.63-.71l-.34-13.85q.22-.7-.01-1.21a.73.72 75.7 00-.72-.43l-18.31 1.43zm9.5 20l-33.52 2.81a.88.87 86.6 00-.8.91l.53 13.76a.61.6 85.6 00.67.58l5.62-.64q9.4-.02 18.77-1.77 5.65.82 11.19-.68 7.93.13 15.83-1.39l9.44-.38a.51.5 84.9 00.48-.58l-.67-4.66-.34-9.42a.63.62-3.1 00-.68-.6L258 217.29zm-13.53 21.72l-19.77 1.21a.76.76 0 00-.71.71q-.47 7.67.64 15.22c.24 1.68-.67 5.01 2.36 4.84q31.64-1.81 63.26-3.53l9.93-.26a.45.44 89.3 00.43-.45l-.16-20.55a.59.59 0 00-.55-.59q-3.55-.24-9.2.1-30.03 1.83-46.23 3.3zm-14.97 27.78l-3.16.13q-1.53 9.87 1.7 19.33l.72 2.73a.64.64 0 00.67.48l23.82-1.92 21-1.33 14.75-1.17 23.94-.59a.46.46 0 00.45-.51q-.61-7.21.07-14.44l.25-3.25q.53-1.6.13-3.27a.63.62 82.5 00-.62-.48c-32.74.74-55.82 2.26-83.72 4.29zm12.67 27.55l-10.41 1.18a.31.31 0 00-.22.48c4.14 6.02 10.31 12.54 17.46 14.96 8.24 1.91 16.35 1.52 24.12 1.66q15.08.26 30.14-1.38 12.07 0 24.05-1.85a.63.62-2.9 00.53-.58l.12-2.06-.21-16.13a.5.49 88.8 00-.5-.49q-35.75.9-71.3 2.83-6.83.37-13.78 1.38z"/><path fill="#aeadaf" d="M340.25 99.46q4.64.59 6.97 2.3c11.34 8.32 11.11 20.09 10.49 33.49l-.66-.02a.53.52-86.5 01-.51-.58c.58-6.18-.54-10.91-1.28-16.6q-1.12-8.8-7.78-14.98-.38-.35-.87-.5l-6.83-2.03q-1.8-.54.03-.98l.44-.1zM340.08 106.99c-9.4.16-18.76-1.06-26.87-5.74l.3-.4a.77.77 0 01.79-.27q5.96 1.51 12.1 1.85a1.74 1.69-25.2 01.87.3c1.58 1.06 2.69 2.03 4.71 2.21q4.21.37 8.1 2.05zM213.95 106.55q-2.53 6.26-2.2 9.2 1.7 15.23 3.04 30.5.54 2.26-.99 3.23-.45.29-.46-.25c-.2-8.75-2.04-14.93-1.6-22.97.29-5.21-5.18-6.58-3.32-13.1a1 .98-.2 01.69-.68l.91-.25a.69.69 0 00.5-.7q-.23-3.93 3.43-4.98zM208.29 152.25q-.4-13.38-3.08-26.5 0-.44.86-1.03a.51.51 0 01.79.35q1.56 10.81 2.8 21.55c.13 1.17-.14 3.03.56 4.54a.62.61-31 01-.19.75q-.76.56-1.74.34z"/><rect fill="#919497" x="-5.2" y="-4.6" transform="rotate(-7.5 1337.212 -1651.776)" width="10.4" height="9.2" rx=".27"/><rect fill="#919497" x="-9.92" y="-4.99" transform="rotate(-4.6 2272.078 -2805.915)" width="19.84" height="9.98" rx=".27"/><path fill="#919497" d="M253.62 182.11l.37 10.32a.41.41 0 01-.35.43q-14.71 2-29.53 2.77a.53.52 87.3 01-.55-.51l-.5-11.92a.33.32-3.5 01.31-.34l29.49-1.45a.73.72-2 01.76.7z"/><path fill="#aeadaf" d="M200.29 191.62q2.61 4.91 2.07 10.65a.55.55 0 01-.72.46c-3.35-1.13-8.24-3.63-8.32-7.72-.07-3.84 2.49-5.55 6.17-4.1a1.57 1.56-3.3 01.8.71zM364.5 205.78c-.49-4.56-.1-11.15 5.31-12.21a1.1 1.09 58.6 01.9.22c5.5 4.4-.9 10.69-5.68 12.33a.41.4 77.3 01-.53-.34z"/><path fill="#fff" d="M267.54 197.5q-9.07.93-18.17.58a.79.78-12.6 01-.66-.41l-.21-.38 18.31-1.43a.73.72 75.7 01.72.43q.23.51.01 1.21z"/><path fill="#919497" d="M248.5 197.29l.21.38a.79.78-12.6 00.66.41q9.1.35 18.17-.58l.34 13.85a.7.7 0 01-.63.71l-42.63 3.75a.81.8 83.7 01-.87-.7q-.97-7.32-.24-14.68a.67.66-1.7 01.56-.59q12.25-1.85 24.43-2.55zM204.3 256.23q-1.47 4.58-1.25 9.37.11 2.43-.4 4.73-1.28 5.69-.26 11.47.66 4.66.32 9.45l-.41-.01a.5.49.6 00-.5.48c-.17 4.31-.58 9.57.95 13.66 1.39 3.72.63 6.89 3.21 10.42q5.49 7.53 10.61 15.37c1.96 3 5.1 4.22 7.73 6.69 2.37 2.22 5.03 3.82 7.38 6.07a1.17 1.17 0 00.84.33l.39-.01a1.27 1.24-25.7 01.86.29c1.51 1.28 5.54 4.56 7.52 3.21l2 .75q-.08 3.2 2.89 3.1a1.29 1.29 0 01.87.29q1.46 1.15 2.74-.14 6.17 2.85 12.12 4.55a.34.34 0 01-.07.66q-25.98 1.51-51.81 4.7a.64.64 0 01-.69-.44q-.07-.21-.05-.47.77.2 1.13-.08a.68.66-33 00.18-.81c-1.76-3.62-3.05-7.52-5.49-10.61q-2.41-3.04-5.09-5.87a.98.97 46.1 01.02-1.37l3.47-3.38a1.93 1.92-16.6 00.52-.95q1.3-5.62-.54-11.09a.49.49 0 00-.47-.34h-.48q-.85-3.97-2.13-1.7-.64-.62-2.06-.67a.73.71 80.4 01-.66-.48c-2.04-5.47-4.37-10.57-4.74-16.42q-.55-8.75.14-17.52a.64.64 0 00-.45-.66q-.59-.19-1.1-.05l.99-7.67q2.22-3.99 2.62-8.48c.24-2.64 1.52-4.5 1.87-7.15q.67-5.13.74-5.42c.42-1.72 2.43-7.21.78-8.28q2.18-7.6 3.33-15.36c1.36-9.13.26-19.12-.44-28.64-.05-.63.25-1.37.74-1.72a.3.3 0 01.47.21c1.32 12.7 1.62 25.34 2.24 38.06q.29 6.01-.58 11.93z"/><path fill="#aeadaf" d="M357 208.21q2.7 21.94 2.54 44.04.44 1.96-.72 2.95-.42.35-.42-.2-.01-6.23-.04-12.38c-.02-4.49-1.3-10.51-.36-16.12a1.58 1.55 37 00-.14-.94c-.86-1.72-.53-3.65-.77-5.08q-.88-5.16-2.16-11.45a1.37 1.36-19.8 01.7-1.47q.85-.46 1.37.65zM374.75 271.21c-2.11.37-2.12-4.89-2.36-6.22q-.09-.52-.42-.92-2.33-2.83-2.82-6.45a.43.42 77.7 00-.54-.35l-.28.09a.59.58 72.8 00-.38.74c.32 1.01 2.43 6.97.34 6.9-4.65-19.56-4.72-35.31-4.25-56.83a.44.44 0 01.6-.4l1.61.63a.72.72 0 01.46.75q-1.52 13.73.15 27.31c1.27 10.32 5.41 23.15 7.89 34.75z"/><path fill="#fff" d="M285.54 225.25q-1.99-2.63-1.13-5.86a1.77 1.77 0 00-1.83-2.22q-8.53.6-16.81.36c-2.37-.06-4.75.59-7.18.72a.59.59 0 01-.63-.5q-.03-.22.04-.46l26.52-2.06a.63.62-3.1 01.68.6l.34 9.42z"/><path fill="#919497" d="M258 217.29q-.07.24-.04.46a.59.59 0 00.63.5c2.43-.13 4.81-.78 7.18-.72q8.28.24 16.81-.36a1.77 1.77 0 011.83 2.22q-.86 3.23 1.13 5.86l.67 4.66a.51.5 84.9 01-.48.58l-9.44.38q-8.08-1.05-15.83 1.39-5.54 1.5-11.19.68-9.46-.87-18.95.76a.41.41 0 00-.19.71l.37.3-5.62.64a.61.6 85.6 01-.67-.58l-.53-13.76a.88.87 86.6 01.8-.91l33.52-2.81z"/><path fill="#aeadaf" d="M350.46 279.25c3.35-17.05 1.6-33.75-.42-53.25q.46-.71 1.1-.64a.64.64 0 01.57.59c.38 4.34-.06 8.39.65 12.64 1.32 7.91 1.21 14.25 1.32 23.76.02 1.57-.88 3.72-.32 5.69q.14.5.09 1.02l-1.25 11.25a.42.41 11.1 01-.53.35q-.89-.27-1.21-1.41zM276.29 230.87q-7.9 1.52-15.83 1.39 7.75-2.44 15.83-1.39zM249.27 232.94q-9.37 1.75-18.77 1.77l-.37-.3a.41.41 0 01.19-.71q9.49-1.63 18.95-.76z"/><path fill="#fff" d="M290.25 257.46q4.08-1.98 8.66-.63a.8.8 0 001.03-.86q-.95-7.96-.38-15.99.15-2.02-1.88-2.01c-12.61.08-24.86.17-37.35 1.29q-7.92.71-15.86-.25 16.2-1.47 46.23-3.3 5.65-.34 9.2-.1a.59.59 0 01.55.59l.16 20.55a.45.44 89.3 01-.43.45l-9.93.26z"/><path fill="#919497" d="M290.25 257.46q-31.62 1.72-63.26 3.53c-3.03.17-2.12-3.16-2.36-4.84q-1.11-7.55-.64-15.22a.76.76 0 01.71-.71l19.77-1.21q7.94.96 15.86.25c12.49-1.12 24.74-1.21 37.35-1.29q2.03-.01 1.88 2.01-.57 8.03.38 15.99a.8.8 0 01-1.03.86q-4.58-1.35-8.66.63z"/><path fill="#aeadaf" d="M217.71 243.75c-.35 19.25-.15 43.5 11.54 60.21q-1.25.8-1.87-.11-3.44-5.13-6.97-13.14c-1.27-2.89-1.25-6.06-2.29-9.2a1.82 1.73 43.5 01-.05-.96q.24-1.02.13-2.04-1.83-17.1-1.28-34.28a.53.53 0 01.43-.51q.17-.03.36.03zM198.54 251.75c1.65 1.07-.36 6.56-.78 8.28q-.07.29-.74 5.42c-.35 2.65-1.63 4.51-1.87 7.15q-.4 4.49-2.62 8.48 2.3-14.88 6.01-29.33zM211.29 251.75l.6.17a.81.79 3.6 01.58.64q.33 1.94-.04 4.88-1.55 12.67.63 23.55c.64 3.2 2.78 6.03 3.34 9.48q1.04 6.42 2.98 12.62a.72.71 57.6 01-.15.69l-.23.26q-6.97-15-8.25-31.54-.43-5.53.54-20.75z"/><path fill="#fff" d="M204.3 256.23c.51 8.68-.95 17.12-1.91 25.57q-1.02-5.78.26-11.47.51-2.3.4-4.73-.22-4.79 1.25-9.37z"/><path fill="#919497" d="M374.75 271.21l.46 3.29q-.48-.4-1.01-.25a.64.64 0 00-.48.66c.26 4.58-.11 8.8.42 13.55.58 5.11-1.6 10.7-2.9 14.28q-1.29 3.57.57 6.33-.38 3-2.03 6.39a.41.41 0 01-.78-.24q.11-.74-.17-1.48-.57-1.48-1.47-.17-3.38 4.89-1.66 8.48c3.36 7.04 14.67 4.57 16.67 12.21q1.45 5.5.51 10.55a1.52 1.52 0 01-2.78.55c-3.22-5.02-7.68-3.04-12.41-.41q-.47.26-.43-.28c.11-1.83 5.19-5.11 7.18-6.38a1.54 1.53 30.2 01.92-.24l3.83.21a.91.91 0 00.67-1.57c-3.53-3.32-8.48-1.66-11.93.72-1.84 1.27-3.36 3.53-5.19 5.25q-.55.52-.33-.21 2.39-7.97 10.25-10.54a.51.51 0 00.18-.87c-.26-.24-1.18-.63-1.56-.61-9.14.47-14.56 8.61-17.42 16.25a1.95 1.95 0 01-1.51 1.23q-11.41 1.86-22.78 2.8-2.95.25-5.97-.09a.31.3 35.5 01-.1-.58q9.75-4.48 17.96-11.29.36.83 1.27 1.13a.84.83-57.8 00.86-.2c.81-.79 13.56-14.41 9.95-14.43q10.84-13.87 15.21-28.99c3.11-10.74.93-20.52-.46-31.26 2.09.07-.02-5.89-.34-6.9a.59.58 72.8 01.38-.74l.28-.09a.43.42 77.7 01.54.35q.49 3.62 2.82 6.45.33.4.42.92c.24 1.33.25 6.59 2.36 6.22z"/><path fill="#fff" d="M313.71 266.25c-13.39-.56-30.7.18-40.06.29q-19.73.23-39.46.86-1.99.06-4.69-.61c27.9-2.03 50.98-3.55 83.72-4.29a.63.62 82.5 01.62.48q.4 1.67-.13 3.27z"/><path fill="#919497" d="M313.71 266.25l-.25 3.25q-.17-.09-.24-.25a.22.22 0 00-.29-.12c-1.26.54-.84 12.14-.7 13.93a.48.48 0 01-.51.51q-11.75-.68-23.49-.12a.76.76 0 00-.72.76q.01 1.2 1.49.83l-14.75 1.17c.47-1.08-.36-1.57-1.33-1.48q-10.15.91-20.29 1.86a.15.15 0 00-.13.16l.02.39a.4.39.8 00.36.37l.37.03-23.82 1.92a.64.64 0 01-.67-.48l-.72-2.73c2.1-.41.45-1.7.37-2.43q-.98-8.24-2.07-16.9l3.16-.13q2.7.67 4.69.61 19.73-.63 39.46-.86c9.36-.11 26.67-.85 40.06-.29z"/><path fill="#aeadaf" d="M226.34 266.92q1.09 8.66 2.07 16.9c.08.73 1.73 2.02-.37 2.43q-3.23-9.46-1.7-19.33zM359.83 267.74q-.22 9.15-2.37 18.01-1.29-.14-.95-1.51 1.89-7.71 1.61-15.65c-.03-.96.64-2.57 1.71-.85zM313.46 269.5q-.68 7.23-.07 14.44a.46.46 0 01-.45.51l-23.94.59q-1.48.37-1.49-.83a.76.76 0 01.72-.76q11.74-.56 23.49.12a.48.48 0 00.51-.51c-.14-1.79-.56-13.39.7-13.93a.22.22 0 01.29.12q.07.16.24.25zM375.21 274.5c2.87 12.31.54 22.78-3.4 34.57q-1.86-2.76-.57-6.33c1.3-3.58 3.48-9.17 2.9-14.28-.53-4.75-.16-8.97-.42-13.55a.64.64 0 01.48-.66q.53-.15 1.01.25z"/><path fill="#fff" d="M297.79 344.75q2.28 1 4.71.29c7.2-1.56 10.79-7.11 17.13-9.82 12.84-5.51 21.63-10.63 30.5-21.87 6.64-8.41 11.4-14.43 12.87-25.09q.36-2.59 1.16-5.02.16-.5.17.02c.24 16.62-6.37 25.44-15.94 39.05-13.03 18.55-39.74 29.82-61.91 30.21q-2.91.05-10.82-.41c-16.49-.96-34.05-10.25-46.62-20.65q-15.9-13.14-20.13-33.81a.29.29 0 01.55-.18c.84 1.78 1.83 3.61 2.51 5.52 5.06 14.22 17.3 29.23 33.4 32.44q1.58.32 6.33.04c10.56-.6 17.55 2.58 25.71 8.79q7.85 5.97 15.96-1.4a.51.5-43.7 01.7.01q1.52 1.55 3.72 1.88z"/><path fill="#aeadaf" d="M274.25 286.21l-21 1.33-.37-.03a.4.39.8 01-.36-.37l-.02-.39a.15.15 0 01.13-.16q10.14-.95 20.29-1.86c.97-.09 1.8.4 1.33 1.48zM191.54 288.75q.51-.14 1.1.05a.64.64 0 01.45.66q-.69 8.77-.14 17.52c.37 5.85 2.7 10.95 4.74 16.42a.73.71 80.4 00.66.48q1.42.05 2.06.67.45 3.09-.58 5.31a.34.34 0 01-.61.02c-7.13-13.32-8.29-25.75-7.68-41.13z"/><path fill="#fff" d="M327.96 306.75q-.36.23-.72.27a.4.39 86.1 01-.44-.39l-.12-10.16a1.18 1.16 67.2 01.34-.85l.26-.28a.47.47 0 00-.35-.8q-40.19.63-80.28.72-.39 0-2.23.4-1.65.35-2.25-1.32 6.95-1.01 13.78-1.38 35.55-1.93 71.3-2.83a.5.49 88.8 01.5.49l.21 16.13z"/><path fill="#aeadaf" d="M202.71 291.25c-1.52 26.77 18.2 43.72 38.58 56.5-1.98 1.35-6.01-1.93-7.52-3.21a1.27 1.24-25.7 00-.86-.29l-.39.01a1.17 1.17 0 01-.84-.33c-2.35-2.25-5.01-3.85-7.38-6.07-2.63-2.47-5.77-3.69-7.73-6.69q-5.12-7.84-10.61-15.37c-2.58-3.53-1.82-6.7-3.21-10.42-1.53-4.09-1.12-9.35-.95-13.66a.5.49.6 01.5-.48l.41.01zM355.75 292.04q-1.27 4.75-4.54 8.46-.25.13-.53.03a.42.42 0 01-.25-.59l3.9-7.82a.75.73 16.4 01.75-.4q.34.04.67.32z"/><path fill="#919497" d="M242.17 294.34q.6 1.67 2.25 1.32 1.84-.4 2.23-.4 40.09-.09 80.28-.72a.47.47 0 01.35.8l-.26.28a1.18 1.16 67.2 00-.34.85l.12 10.16a.4.39 86.1 00.44.39q.36-.04.72-.27l-.12 2.06a.63.62-2.9 01-.53.58q-11.98 1.85-24.05 1.85-11-.2-22-.08-.78.01-3 .3c-2.5.32-5.42-.35-7.52-.22q-10.12.64-20.15-.76a1.58 1.54 34.5 00-.94.16l-.65.32c-7.15-2.42-13.32-8.94-17.46-14.96a.31.31 0 01.22-.48l10.41-1.18z"/><path fill="#aeadaf" d="M303.26 311.24q-15.06 1.64-30.14 1.38c-7.77-.14-15.88.25-24.12-1.66l.65-.32a1.58 1.54 34.5 01.94-.16q10.03 1.4 20.15.76c2.1-.13 5.02.54 7.52.22q2.22-.29 3-.3 11-.12 22 .08zM257.25 320.46q11.37.51 22.75 0l1.37.07a.41.41 0 01.38.49c-.07.33-.18.34-.49.35-9.24.19-16.62 1.78-24.84.08a.37.37 0 01-.15-.66q.51-.37.98-.33zM328.29 325.5c-6.37 4.6-14.59 4.3-20.45 10.6-2 2.15-8.23 7.04-10.5 2.74a1.35 1.32-54.3 01-.14-.92l.88-4.49a.79.78-87.9 01.67-.63l2.71-.35a.89.89 0 01.88.45q1.03 1.92-.59 3.14l-1.81.26a.76.76 0 00-.64.67l-.05.43q-.09.84.59.35.87-.63 1.91-.79 1.22-.03 2-1 5.21-2.28 7.51-4.24c4.01-3.41 9.59-4.08 15.12-7.57a1.33 1.31-55.1 01.92-.17q1.1.21.99 1.52zM353.54 325.25c3.61.02-9.14 13.64-9.95 14.43a.84.83-57.8 01-.86.2q-.91-.3-1.27-1.13 6.65-6.19 12.08-13.5zM202.54 326.25h.48a.49.49 0 01.47.34q1.84 5.47.54 11.09a1.93 1.92-16.6 01-.52.95l-3.47 3.38a.98.97 46.1 00-.02 1.37q2.68 2.83 5.09 5.87c2.44 3.09 3.73 6.99 5.49 10.61a.68.66-33 01-.18.81q-.36.28-1.13.08c-2.17-8.4-6.55-14.7-15.94-15.29a.46.45-32.9 00-.19.88q7.79 2.89 10.17 10.79.21.66-.4.31c-6.09-3.54-8.76-8.11-16.85-4.1-1.14.57-1.53 1.26-1.74 2.45a.35.34 87.8 00.42.39c3.65-.93 7.83-1.4 10.45 1.29q.52.54-.23.54l-5.81-.01a.95.94 20.3 00-.71.32l-4.83 5.69a1.19 1.15 15.5 01-.75.41l-2.55.34a.72.72 0 01-.76-.44c-2-5.06-2.92-12.74 1.09-17 3.55-3.77 9.93-4.53 15.82-5.8 8.06-1.75 6.99-9.19 6.06-15.27z"/><path fill="#aeadaf" d="M304.5 332.04q-2.23-3.83-6.75-2.08-.6-.39-1.45-.04-.77.32-.57-.48l.14-.59a.64.63 12.6 01.75-.47c1.04.22 1.78-.28 2.68-.32q4.09-.19 6.72 2.86a.63.63 0 010 .82q-.49.57-1.52.3zM294.29 333.75q.06.72-.34 1.16a.44.43 45.8 01-.65-.01l-3.3-3.94q.18-.43.54-.67a.93.92 40.8 01.9-.06q2.17 1.06 2.85 3.52zM281.65 331.53l-1.28 4.62a.66.66 0 00.34.76l2.54 1.31q.35.18.32-.22l-.27-3.48a1.08 1.08 0 01.49-.99c3.8-2.42 5.82 2.27 5.51 5.24a1.24 1.22 73.1 01-.43.82c-4.87 4.02-8-.7-11.37-3.38q1.52-2.98 4.15-4.68z"/><path fill="#919497" d="M301.75 336.04v.92q-1.04.16-1.91.79-.68.49-.59-.35l.05-.43a.76.76 0 01.64-.67l1.81-.26zM297.79 344.75l4.71.29q-2.43.71-4.71-.29z"/><path fill="#aeadaf" d="M243.29 348.5l6.5 3.25q-1.28 1.29-2.74.14a1.29 1.29 0 00-.87-.29q-2.97.1-2.89-3.1zM406.25 357.29q.1.44-.27.92a.83.83 0 01-1.16.16c-2.61-1.98-5.47-1.98-7.63-2.76q-2.87-1.04-5.68-2.28a1.57 1.53-38.2 00-.94-.1c-.85.17-5.03 1.05-4.82-.94 7.72-1.06 13.62 2.27 20.5 5z"/><path fill="#919497" d="M385.75 352.29c-.21 1.99 3.97 1.11 4.82.94a1.57 1.53-38.2 01.94.1q2.81 1.24 5.68 2.28c2.16.78 5.02.78 7.63 2.76a.83.83 0 001.16-.16q.37-.48.27-.92 17.85 5.53 34.98 12.91.46.19-.03.27c-9.58 1.52-19.85 1.74-29.13 4.34-3.29.93-6.8 1.2-9.51 1.76-33.36 6.92-64.99 11.23-99.29 14.95.19-2.65-2.27-1.44-3.64-1.27q-17.44 2.15-35.01 2.87a.77.76 14 00-.62.37l-.22.39a.49.49 0 00.2.67l.77.41-22.75 2q.34-.87-.27-1.41a1 1 0 00-.88-.23q-4.41.96-8.92.94c-3.91-.01-7.44 1.06-11.72 1.24-1.07.05-9.05.76-5.96 2.9l-8 1.31c-.4-1.99-1.68-1.29-3.13-1.12-4.13.5-14.77 1.15-17.96 3.36a.63.63 0 01-.78-.05c-2.29-2.06-2.32-9.24-3.2-12.06q-2.59-8.3-4.57-16.43a1.36 1.35 82.9 011.3-1.68c5.31-.04 10.45-1.25 15.57-1.51q6.04-.3 11.99-1.63a.79.78-24.2 01.8.3l.46.62a.46.46 0 00.75-.02l.82-1.23a.75.75 0 01.85-.3q3 .93 6.09.25c5.87-1.29 11.81-2.28 17.81-2.52q3.31-.13 6.17-1.97 12.24-1.75 32.28-3.5 46.13-4.01 72.02-6.01c12.58-.97 28.02-3.41 42.23-3.92z"/><path fill="#aeadaf" d="M239.22 365.72q-2.86 1.84-6.17 1.97c-6 .24-11.94 1.23-17.81 2.52q-3.09.68-6.09-.25a.75.75 0 00-.85.3l-.82 1.23a.46.46 0 01-.75.02l-.46-.62a.79.78-24.2 00-.8-.3q-5.95 1.33-11.99 1.63c-5.12.26-10.26 1.47-15.57 1.51a1.36 1.35 82.9 00-1.3 1.68q1.98 8.13 4.57 16.43c.88 2.82.91 10 3.2 12.06a.63.63 0 00.78.05c3.19-2.21 13.83-2.86 17.96-3.36 1.45-.17 2.73-.87 3.13 1.12l-22.34 3.69a1.12 1.12 0 01-1.27-.86q-3.62-15.95-9.2-31.3a.38.38 0 01.31-.51q32.63-4.37 65.47-7.01z"/><rect fill="#aeadaf" x="-12.98" y="-.91" transform="rotate(-8.9 2654.49 -2612.686)" width="25.96" height="1.82" rx=".27"/><path fill="#aeadaf" d="M234.23 407.17l.1-1.93a.78.78 0 01.66-.73c19.35-2.96 39-3.65 58.56-5.86 7.63-.87 15.94-1.21 22.91-2.05 32.81-3.98 67.91-8.57 100.63-16.04a.57.57 0 01.7.53l.09 2.01a.83.83 0 01-.63.83c-7.94 1.96-16.06 3.11-24.05 4.82q-12.04 2.58-19.62 3.81-68.95 11.17-138.72 15.24a.6.6 0 01-.63-.63zM426.42 425.33a.56.56 0 01-.3-.57l4.42-35.72a.77.76-88.5 01.69-.67l6.01-.55a.43.43 0 01.47.41q.07 1.57-.19 3.02-3.14 17.76-6.07 35.7a.66.66 0 01-.95.48l-4.08-2.1zM303.27 391.52l-38.52 3.44-.77-.41a.49.49 0 01-.2-.67l.22-.39a.77.76 14 01.62-.37q17.57-.72 35.01-2.87c1.37-.17 3.83-1.38 3.64 1.27zM417.67 418.36q2.07-3.12 2.37-6.74c.53-6.29 1.67-12.36 2.61-18.6a.59.58 13.1 00-.41-.65c-2.17-.66-5.35 2.18-8.12 2.66-4.26.74-7.67 2.08-11.64 3.08a.75.74-20.7 01-.85-.38q-.21-.4-.17-.98 8.71-2.44 17.45-4.84c1.27-.35 2.99-1.21 4.83-1.31a.36.35 1.3 01.38.39l-2.84 25.41a1.15 1.13 74.9 01-.46.81q-1.24.92-3.15 1.15z"/><path fill="#919497" d="M417.67 418.36q-2.18 2.38-5.42 1.18-.98-2.33-3.83-2.72a.31.31 0 01-.23-.47c1.1-1.84 3.14-6.62.54-8.16a.31.31 0 00-.46.26l-.06 2.3-1.63-.41a.94.93 87 01-.66-.6l-2.46-6.73a2.54 2.53 76.6 00-2.67-1.65q-2.23.26-3.35 3.23-.86 2.27 2.89 4.09a1.13 1.12-43.3 01-.06 2.05q-7.73 3.21-16.03 3.92a.53.52 1.7 01-.57-.6q.64-4.42-1.99-7.84a1.43 1.41-12.1 00-.85-.54q-3.11-.62-5.24 1.33-.54-1.24-1.61-.72a.81.8 78.2 00-.45.69q-.17 3.62 1.76 6.61a1.44 1.43-56.6 01.2 1c-.48 2.83-7.39 3.29-9.51 3.8-7.72 1.84-15.36 3.3-23.25 4.5a.51.5 81.3 01-.57-.42q-.92-5.99-.92-8.73 0-2.8 1.72-5.98l3.54-.46q-.38.41-.2.86a.62.61-15 00.66.38q10.97-1.7 21.85-3.36 2.01-.31 1.65-1.92 5.46-1.08 10.96-1.97c6.76-1.09 13.29-3.08 20.04-4.53q-.04.58.17.98a.75.74-20.7 00.85.38c3.97-1 7.38-2.34 11.64-3.08 2.77-.48 5.95-3.32 8.12-2.66a.59.58 13.1 01.41.65c-.94 6.24-2.08 12.31-2.61 18.6q-.3 3.62-2.37 6.74z"/><path fill="#aeadaf" d="M242 396.96q-13.96.82-27.75 3.44c-3.09-2.14 4.89-2.85 5.96-2.9 4.28-.18 7.81-1.25 11.72-1.24q4.51.02 8.92-.94a1 1 0 01.88.23q.61.54.27 1.41zM370.46 403.25q.36 1.61-1.65 1.92-10.88 1.66-21.85 3.36a.62.61-15 01-.66-.38q-.18-.45.2-.86l23.96-4.04z"/><rect fill="#aeadaf" x="-22.18" y="-1.35" transform="rotate(-8.6 2829.276 -1172.824)" width="44.36" height="2.7" rx=".62"/><path fill="#aeadaf" d="M375.59 407l.03 3.07a1.16 1.14 19.4 00.43.87q3.27 2.6.79 6.39a1.12 1.12 0 01-.72.48l-35.07 6.76a.43.43 0 01-.51-.42l-.22-15.11a.92.9-18.4 01.39-.76q.98-.69 2.25-.53-1.72 3.18-1.72 5.98 0 2.74.92 8.73a.51.5 81.3 00.57.42c7.89-1.2 15.53-2.66 23.25-4.5 2.12-.51 9.03-.97 9.51-3.8a1.44 1.43-56.6 00-.2-1q-1.93-2.99-1.76-6.61a.81.8 78.2 01.45-.69q1.07-.52 1.61.72zM412.25 419.54l-6.88-2.7a.39.38-40.6 01.06-.73q3.7-.84 2.78-5.36l.06-2.3a.31.31 0 01.46-.26c2.6 1.54.56 6.32-.54 8.16a.31.31 0 00.23.47q2.85.39 3.83 2.72z"/><path fill="#919497" d="M334.46 418.5q.02-2.65-.98-5.11-.2-.5-.48-.05-1.17 1.89.05 3.77a1.59 1.58-60.3 01.25.92l-.24 6.16a.67.65-3.8 01-.56.62q-14.55 2.43-29.09 4.93-1.94.34-4.97.55c-3.97.29-6.68 2.17-10.18 1.92a1.25 1.25 0 01-1.14-1.45c.6-3.72-4.92-.87-3.83-6.63q.41-2.2-.76-4.17a.58.58 0 00-.7-.24q-.43.15-.37.53c-1.64-2.37-5.26-2.87-6.75-.12q-.6 1.13-.8 2.46a1.78 1.74 37.9 00.13.95l2.37 5.25a.49.48-15.9 01-.38.67q-9.13 1.19-18.24-.05a.39.39 0 01-.29-.58c1.31-2.41 5.57-8.36-.26-9.35q-5.17-.88-5.99 4.32a1.43 1.41 35.2 00.16.89l1.43 2.56a.54.54 0 01-.2.74l-1.89 1.1a1.52 1.49 87.1 00-.64.72q-1.56 3.75 1.74 5.76 6.36 3.37 13.46 3.12c3.09-.11 7.1-1.15 10.66-1.63a.53.52-8.8 01.58.42q.48 2.53 2.07 4.43 1.02 1.37.78 3.15a.62.61 1.1 01-.57.54q-20.39 1.46-40.83 1.36.3-.55.12-1.01a.76.73-10.1 00-.7-.47l-17.42.14a1.22 1.22 0 01-1.22-1.06q-1.07-8.15-1.83-16.24-.15-1.63-1.66-1.57-.9-3.11-.42-6.19a.7.7 0 01.51-.57q8.49-2.3 16.37-2.45 17.25-.32 34.5-.61 6.55-.11 9.45-.41c23.73-2.45 39.4-4.94 58.5-6.99a.46.46 0 01.51.47l-.25 8.5z"/><path fill="#aeadaf" d="M334.46 418.5l-.08 6.55a.69.69 0 01-.58.67l-45.47 7.81q-.5.09-.91.38-1.1.8-2.45.51a.69.69 0 01-.54-.8l.45-2.41a.9.89 25.9 00-.3-.85l-3.85-3.31a1.08 1.07-49.7 01-.12-1.51q1.99-2.39.85-5.29-.06-.38.37-.53a.58.58 0 01.7.24q1.17 1.97.76 4.17c-1.09 5.76 4.43 2.91 3.83 6.63a1.25 1.25 0 001.14 1.45c3.5.25 6.21-1.63 10.18-1.92q3.03-.21 4.97-.55 14.54-2.5 29.09-4.93a.67.65-3.8 00.56-.62l.24-6.16a1.59 1.58-60.3 00-.25-.92q-1.22-1.88-.05-3.77.28-.45.48.05 1 2.46.98 5.11z"/><path fill="#919497" d="M208.8 426.35q-1.29 2.44-.78 4.99c1.14 5.79 1.29 11.63 1.95 17.49.3 2.66 1.61 4.69 1.78 7.52q.32 5.54.81 11.07c.73 8.31.88 17.73 2.47 26.68a.41.4 60.6 00.7.2l.48-.55c1.47 13.4 2.7 23.22-.67 35.25q-.7-2.13-2.83-1.75-1.29-1.76-.54-3.92 1.32-.9.91-2.66c-.34-1.41-1.17-1.75-.94-3.74q.27-2.18-.96-4.99a1.57 1.53-51.8 01-.1-.94c.34-1.63.68-2.4-.03-4.08-2.95-6.92-3.1-14.12-4.16-21.45-.64-4.47-.79-10.68-2.04-15.96-1.35-5.7-1.97-11.62-2.82-17.8-.65-4.74-2.36-9.27-2.87-13.76q-.86-7.47-1.91-14.89a1.48 1.47 1 011.73-1.66c1.03.19 9.44.83 7.52-2.11q.5-.41 1.07-.41a.6.59-3.1 01.61.54l.62 6.93z"/><path fill="#aeadaf" d="M206.5 419.29c1.92 2.94-6.49 2.3-7.52 2.11a1.48 1.47 1 00-1.73 1.66q1.05 7.42 1.91 14.89c.51 4.49 2.22 9.02 2.87 13.76.85 6.18 1.47 12.1 2.82 17.8 1.25 5.28 1.4 11.49 2.04 15.96 1.06 7.33 1.21 14.53 4.16 21.45.71 1.68.37 2.45.03 4.08a1.57 1.53-51.8 00.1.94q1.23 2.81.96 4.99c-.23 1.99.6 2.33.94 3.74q.41 1.76-.91 2.66c-1.07-5.08-2.47-10.15-3.18-15.17q-2-14.12-4.52-28.15c-.71-3.97-1.05-9.24-1.8-13.66q-3.78-22.51-7.33-45.09a.33.33 0 01.28-.38l10.88-1.59z"/><path fill="#fff" d="M291.23 440.49a.24.24 0 01.1-.44c34.26-5.47 68.35-12.13 102.51-18.33 1.15-.21 4.15-1.27 5.43-.77q12.92 5.14 26.02 10.68a.4.4 0 01-.06.75q-16.21 3.83-32.65 7.35c-2.48.53-7.33 2.21-11.06 2.75q-3.04.44-4.5.79-29.33 7.11-58.62 14.36c-.67.16-1.46.09-2.17.12a1.57 1.52-28 01-.94-.27l-24.06-16.99z"/><path fill="#aeadaf" d="M208.8 426.35c1.48 10.79 3.2 21.33 4.06 32.25q1.38 17.6 3.35 35.15l-.48.55a.41.4 60.6 01-.7-.2c-1.59-8.95-1.74-18.37-2.47-26.68q-.49-5.53-.81-11.07c-.17-2.83-1.48-4.86-1.78-7.52-.66-5.86-.81-11.7-1.95-17.49q-.51-2.55.78-4.99z"/><path d="M198.97 505.45q-3.82 3.54-6.78 4.74c-5.26 2.13-8.56-4.25-6.56-8.63a1.51 1.5 88.8 01.7-.73l2.83-1.42a1.57 1.55-.8 00.71-.72c1.68-3.5 3.09-6.45 2.48-10.52q-4.6-30.67-10.14-61.17c3.4-.32 3.4 10.43 3.76 12.59 1.23 7.24 2.99 14.31 3.7 21.52q.85 8.56 1.43 11.32c1.87 8.89 4.53 17.84 1.96 23.49-1.3 2.87-3.94 4.78-6.3 6.95a1.35 1.32 71.7 00-.41.84c-.38 3.8 2.07 7.61 6.1 4.63q2.96-2.19 6.52-2.89z"/><path fill="#aeadaf" d="M215.29 426.75q1.51-.06 1.66 1.57.76 8.09 1.83 16.24a1.22 1.22 0 001.22 1.06l17.42-.14a.76.73-10.1 01.7.47q.18.46-.12 1.01l-20.18.22a.4.4 0 01-.4-.36l-2.13-20.07zM251.85 435.57q12.73 2.24 25.11.44a.63.63 0 01.7.51l.96 5.39q-1.59-1.9-2.07-4.43a.53.52-8.8 00-.58-.42c-3.56.48-7.57 1.52-10.66 1.63q-7.1.25-13.46-3.12z"/><path fill="#fff" d="M432.72 445.04q-1.75-4.29-.97-8.25.5-.33.97-.26a.58.58 0 01.49.61l-.49 7.9z"/><path fill="#919497" d="M431.75 436.79q-.78 3.96.97 8.25-3.86.88-7.81 1.68c-6.42 1.31-12.92 3.4-19.66 4.36q-10.25.39-16.26 2.66-5.73 2.16-9.77 2.46-.51.04-.96.27l-1.37.72q-.61.32.04.55.39.13.82.05l-57.94 15.36a.65.64-11.5 01-.81-.53l-1.19-8.09a.73.73 0 01.57-.81q5.93-1.26 11.83-2.47c4.61-.95 10.38-2.89 15.79-3.71q-.07.32.02.55a.61.61 0 00.72.35c6.38-1.71 13.17-2.87 19.21-4.46 17.31-4.56 34.87-7.93 52.17-12.59.82-.22 1.74-.1 2.6-.16a.46.46 0 00.42-.55q-.18-.79-.89-1.22l11.5-2.67z"/><path fill="#aeadaf" d="M420.25 439.46q.71.43.89 1.22a.46.46 0 01-.42.55c-.86.06-1.78-.06-2.6.16-17.3 4.66-34.86 8.03-52.17 12.59-6.04 1.59-12.83 2.75-19.21 4.46a.61.61 0 01-.72-.35q-.09-.23-.02-.55 1.63-.51 3.28-.91 35.48-8.61 70.97-17.17z"/><path fill="#fff" d="M405.25 451.08c-8.78 2.27-18.59 5.72-27.5 6.71q-.43.08-.82-.05-.65-.23-.04-.55l1.37-.72q.45-.23.96-.27 4.04-.3 9.77-2.46 6.01-2.27 16.26-2.66z"/><path fill="#aeadaf" d="M287.21 464.5q-1.48 1.68-2.72.24-2.5-2.91-4.91-3.77a.77.77 0 01-.52-.73l.04-4.52a1.59 1.57 29 00-.25-.85q-.78-1.17-.35-2.58 1.05-.64 2.1-.1a1.03 1.02-81.7 01.54.73q.51 3 1.26 5.97c.81 3.22 4.16 2.46 4.81 5.61z"/><path fill="#919497" d="M278.5 452.29q-.43 1.41.35 2.58a1.59 1.57 29 01.25.85l-.04 4.52a.77.77 0 00.52.73q2.41.86 4.91 3.77 1.24 1.44 2.72-.24.92 3.75.25 7.45-1.32 6.14-.1 12.33c.21 1.05 1.12 1.97.19 3.22a1.09 1.08 57.7 00-.19.87l.9 4.21c-12.35.85-24.04 3.73-36.5 3.88q-9.45-.54-17.45.35-.73.09-.81.9-.9-.06-1.69-.47-3.54-1.11-6.29-.95a1.74 1.73-4.9 01-1.82-1.53c-.6-5.24-1.04-9.99-1.89-15.32-.13-.82-.35-7.54-.96-7.5a.59.59 0 00-.55.5q-.05.33-.26.56l-2.2-19.19a.41.4-1.1 01.44-.45c13.45 1.08 28 .12 41.55-.05 5.8-.08 12.42-.86 18.67-1.02zm-26.36 19.35q-3.06 1.57-1.79 4.9a1.39 1.38-44.7 01-.01.98l-1.24 3.05a1.46 1.41 50.8 00-.07.83q.71 3.22 3.99 2.64l4.65 1.87q11.13 2.71 21.89-1.18a.73.73 0 00.48-.7q-.02-.64-.54-.82 3.09-.58 4.61-3.12a.99.97-42.3 00.05-.92l-2.1-4.44a1.37 1.35-47.1 01-.03-1.06l.72-1.81a1.71 1.67 49.5 00.07-1.03c-1.07-4.51-8.26-5-7.26.08q.53 2.69 1.1 5.05a1.01 1 75.8 01-.72 1.22q-8.94 2.37-18.09 1.08a.68.67 13.9 01-.54-.89l1.88-5.38a1.24 1.22-49.1 00-.06-.93c-2.02-4.13-5.23-2.66-6.99.58z"/><path fill="#aeadaf" d="M417.12 468.63c-.59-2.32-.21-4.68-.08-7.02a.88.87-10.6 01.52-.75l4.7-2.13a.57.57 0 01.8.54l-.38 7.46a1.31 1.29 84.6 01-.98 1.2l-4.03 1.02a.45.44-14.6 01-.55-.32z"/><path fill="#fff" d="M383.75 469.04q-1.33-1.26-.25-2.83 5.41.29 10.04-2.59.74-.47.68.4l-.07.91a.8.79-7.3 01-.54.69l-9.86 3.42z"/><path fill="#aeadaf" d="M383.5 466.21q-1.08 1.57.25 2.83-29.06 9.07-58.8 15.68a.57.57 0 01-.69-.52l-.31-4.85a.66.65 80.7 01.48-.67c3.52-.92 7.33-1.52 10.61-2.43q21.78-6.04 43.71-11.51 3.31-.83 4.75 1.47z"/><path fill="#201e1e" d="M279.5 483.21q-10.49 3.53-21.83 2.7l-4.65-1.87c-4.31-3.54-1.39-3.97-.41-7.55q.13-.48.06-.96l-.53-3.89c1.76-3.24 4.97-4.71 6.99-.58a1.24 1.22-49.1 01.06.93l-1.88 5.38a.68.67 13.9 00.54.89q9.15 1.29 18.09-1.08a1.01 1 75.8 00.72-1.22q-.57-2.36-1.1-5.05c-1-5.08 6.19-4.59 7.26-.08a1.71 1.67 49.5 01-.07 1.03l-.72 1.81a1.37 1.35-47.1 00.03 1.06l2.1 4.44a.99.97-42.3 01-.05.92q-1.52 2.54-4.61 3.12z"/><path fill="#aeadaf" d="M252.14 471.64l.53 3.89q.07.48-.06.96c-.98 3.58-3.9 4.01.41 7.55q-3.28.58-3.99-2.64a1.46 1.41 50.8 01.07-.83l1.24-3.05a1.39 1.38-44.7 00.01-.98q-1.27-3.33 1.79-4.9z"/><path fill="#fff" d="M231.81 497.24l-8.1.34a.56.56 0 01-.58-.49L220.04 473q.21-.23.26-.56a.59.59 0 01.55-.5c.61-.04.83 6.68.96 7.5.85 5.33 1.29 10.08 1.89 15.32a1.74 1.73-4.9 001.82 1.53q2.75-.16 6.29.95z"/><path fill="#aeadaf" d="M287.46 471.95q.87 6.02 1.45 14.73.23 3.36-.65 5.9l-.9-4.21a1.09 1.08 57.7 01.19-.87c.93-1.25.02-2.17-.19-3.22q-1.22-6.19.1-12.33z"/><path fill="#fff" d="M343.94 488.17c-1.57.43-17.58 5.67-19.33 4.73a.58.58 0 01.15-1.08q22.94-5.12 45.26-11.77c5.9-1.75 16.11-4.05 23.96-7.11a.55.55 0 01.75.5c.03 1.53-10.02 3.56-11.43 3.88-13.25 3.03-26.25 7.23-39.36 10.85zM312.84 505.18q-1.37-.98.25-1.43 28.25-7.82 57.03-16.04c16.44-4.7 33.06-8.47 49.62-12.5 3.28-.8 19.15 7.68 23.04 9.51q.47.22-.03.38-53.22 17.55-105.87 36.78a1.04 1.02-36.7 01-.96-.13l-23.08-16.57z"/><path fill="#aeadaf" d="M279.5 483.21q.52.18.54.82a.73.73 0 01-.48.7q-10.76 3.89-21.89 1.18 11.34.83 21.83-2.7zM313.19 496.17c-.68-5.41-1.23-9.98 5.62-11.07a.49.49 0 01.57.48l.17 8.68a.83.83 0 01-.61.81l-5.21 1.46a.43.42 78.5 01-.54-.36zM448.81 500.18q-1.06-3.85-.73-7.12a1.12 1.12 0 00-1.66-1.08q-3.1 1.76-6.36 2.84-13 4.31-26.05 8.44-1.09.35-1.51-.72 18.13-6.7 36.69-12.15a.43.43 0 01.55.36q.57 4.72-.93 9.43z"/><path fill="#919497" d="M448.81 500.18l-10.31 3.28q.02-.7-.24-1.04a1.47 1.46-28.1 00-1.69-.51q-3.3 1.2-6.4 2.47c-5.06 2.06-10.53 3.38-15.65 5.89-3.96 1.95-8.24 2.27-12.34 4.15q-9.7 4.46-19.93 7.49c-.98.29-5.13 1.78-4 3.13q-16.36 6.57-32.82 12.88-1.38.52-2.95.74a.48.47-7 01-.54-.42l-1.09-9.99a.6.6 0 01.4-.64l28.25-10.07q.68 1.47 1.98.96 17.61-6.88 35.57-12.87a.53.53 0 00.33-.68q-.11-.3-.38-.49l5.5-1.92q.42 1.07 1.51.72 13.05-4.13 26.05-8.44 3.26-1.08 6.36-2.84a1.12 1.12 0 011.66 1.08q-.33 3.27.73 7.12z"/><ellipse fill="#919497" transform="rotate(10.5 -2527.817 2041.306)" rx=".88" ry=".64"/><path fill="#fff" d="M251.76 496.46l-18.26 1.25q.08-.81.81-.9 8-.89 17.45-.35z"/><path fill="#aeadaf" d="M438.5 503.46c-6.48 2.23-13.36 4.11-19.49 6.4q-20.36 7.64-40.76 15.18c-1.13-1.35 3.02-2.84 4-3.13q10.23-3.03 19.93-7.49c4.1-1.88 8.38-2.2 12.34-4.15 5.12-2.51 10.59-3.83 15.65-5.89q3.1-1.27 6.4-2.47a1.47 1.46-28.1 011.69.51q.26.34.24 1.04zM407 504.46q.27.19.38.49a.53.53 0 01-.33.68q-17.96 5.99-35.57 12.87-1.3.51-1.98-.96l37.5-13.08zM311.8 521.61q-2.69.11-3.01-2.69-.59-5.09-1.56-10.22a.53.53 0 01.61-.62c2.7.48 4.3 10.73 4.44 12.99a.5.5 0 01-.48.54z"/><path d="M315 555.96l-4.42 1.65a1 .98 52.5 01-.92-.13l-15.97-11.78a1.11 1.11 0 01-.44-.8l-2.54-32.4.11-2.43a.52.52 0 01.68-.47l.33.11a.71.7 5.9 01.49.59c.65 6.08.4 12.16 1.36 18.14q.93 5.79.78 7.99c-.28 4.01-.95 6.37 2.21 9.3 4.02 3.73 8.73 6.23 12.45 10.32a1.86 1.86 0 002.75.01q1.59-1.73 3.13-.1z"/><path fill="#aeadaf" d="M443.23 515.49l4-2.11a.43.43 0 01.63.39l-.16 10.18a.43.43 0 01-.28.4l-3.84 1.42a.43.43 0 01-.58-.41v-9.49a.43.43 0 01.23-.38z"/><ellipse fill="#aeadaf" transform="rotate(97.3 -14.166 446.122)" rx="2.48" ry=".95"/><path fill="#fff" d="M215.54 529l-1.94 7.95a.22.22 0 01-.43-.04l-.46-9.66q2.13-.38 2.83 1.75z"/><ellipse fill="#919497" transform="rotate(-9.1 3574.91 -1720.213)" rx=".98" ry=".76"/><path fill="#aeadaf" d="M317.59 548.51l-2.46 1.06a.62.62 0 01-.86-.57l-.03-2.67a.62.62 0 01.96-.52l2.48 1.61a.62.62 0 01-.09 1.09zM340.29 568.25q.01-1.22 1.18-1.29a1.23 1.23 0 001.05-1.72q-1.54-3.52-.91-7.4a1.08 1.08 0 00-.42-1.03l-1.35-1q-.79-.59-.75.39l.45 12.3q-.29.96-.96 1.04a.5.49-3.1 01-.55-.49q-.06-6.94-.02-13.8.01-1.23 1.62-.81a.72.71 26.8 00.74-.24q1.26-1.55 3.03-.52a1.02 1.02 0 01.5.86q.11 5.2.12 10.33c.01 2.56-1.3 3.57-3.73 3.38z"/><path fill="#919497" d="M340.29 568.25l-.75.25-.45-12.3q-.04-.98.75-.39l1.35 1a1.08 1.08 0 01.42 1.03q-.63 3.88.91 7.4a1.23 1.23 0 01-1.05 1.72q-1.17.07-1.18 1.29z"/><path fill="#201e1e" d="M0 589.94l1.25.27 11.94.79H0v-1.06zM318.44 591h-4.75q2.37-.63 4.75 0z"/><path fill="#919497" d="M365.19 591h-8.25q4.12-.63 8.25 0zM576.19 591h-6.5q3.25-.63 6.5 0z"/></svg>