<svg xmlns="http://www.w3.org/2000/svg" viewBox="0 0 591 591"><g stroke-width="2" fill="none"><path stroke="#0f0e0e" vector-effect="non-scaling-stroke" d="M590.06 0l.19.29"/><path stroke="#7d7f71" vector-effect="non-scaling-stroke" d="M590.25.29l.04 589.46"/><path stroke="gray" vector-effect="non-scaling-stroke" d="M590.29 589.75l-.54.54"/><path stroke="#7d7f71" vector-effect="non-scaling-stroke" d="M589.75 590.29L.82 590.06a.34.34 0 00-.32.47l.19.47M4.29 29.75v556a.5.5 0 00.5.5h580.96a.5.5 0 00.5-.5V4.79a.5.49 90 00-.49-.5H110.5"/><path stroke="gray" vector-effect="non-scaling-stroke" d="M110.5 4.29L4.81 4.31a.5.5 0 00-.5.5l-.02 24.94"/><path stroke="#fdfef1" vector-effect="non-scaling-stroke" d="M110.5 4.29l-.27.24q-.27.24.09.22l.37-.01q.28-.01.06.16l-3.12 2.43a1.34 1.33 25.7 01-.82.28Q74.1 7.81 41.4 8.9c-3.61.12-12.25 1.86-15.03 4.21-6.01 5.09-12.73 9.79-18 15.63a1.44 1.42-73.9 01-.78.44l-3.3.57"/><path stroke="#8c8d7f" vector-effect="non-scaling-stroke" d="M591 587.31c-.84-.45-.25-537.06-.25-586.81a.25.24-86.1 00-.21-.25q-.17-.02-.29.04"/><path stroke="#fdfef1" vector-effect="non-scaling-stroke" d="M591 590.06l-.71-.31"/><path stroke="#faf2c9" vector-effect="non-scaling-stroke" d="M94.82 48.17q-21.05-.61-42.01 1.05c-12.17.96-19.87 6.17-19.83 19.21q.07 22.04.76 44.12a.53.53 0 00.83.42q1.93-1.32 3.6-3.04 25.3-26.1 50.66-52.09 3.99-4.09 6.28-9.19a.34.34 0 00-.29-.48"/><path stroke="#8c8d7f" vector-effect="non-scaling-stroke" d="M158.71 261.3c-8.13 1.93-15.85 5.32-21.28 11.76-10.61 12.57-10.55 29.5-6.77 44.94 1.4 5.72 6.62 15.49 12.03 18.17a.93.92 15.7 01.51.9c-2.43 26.09-1.29 49.8 3.96 76.69 5.62 28.79 16.74 54.53 34.89 77.6 27.7 35.23 71.36 53.41 114.99 57.38 59.48 5.4 126.68-21.81 160.71-71.75 31.5-46.24 31.54-101.22 21.1-154a1.16 1.15-33.2 01.19-.9c7.04-9.89 8.34-21.05 7.16-31.83q-2.42-22.02-7.71-43.54a2 2 0 01.27-1.58c4.46-6.95 2.2-22.99-9.26-22.85q-16.23.21-32.48.87a1.02 1.01-17.1 01-.89-.46c-25.1-38.96-64.01-81.56-110.21-94.57-12.88-3.63-27.08-4.19-40.58-3.18-38.68 2.87-72.72 35.8-92.42 66.71-2.51 3.93-6.15 8.39-8.68 13.42-2.95 5.86-6.57 11.88-9.14 17.32q-8.87 18.75-15.75 38.32a.92.9 2.3 01-.64.58"/><path stroke="#575859" vector-effect="non-scaling-stroke" d="M276.99 133.64c-7.39 1.18-10.19 4.95-15.97 11.35q-11.22 12.41-18.03 24.73c-4.56 8.25-9.76 15.76-13.13 23.32-1.82 4.09-7.19 14.78-6.05 18.5 3.31 10.74 1.87 25.16-9.98 30.09"/><path stroke="#666" vector-effect="non-scaling-stroke" d="M213.83 241.63q-4.25 4.2-3.58 10.71a.61.6-1.6 00.58.54q.54.01.92-.17"/><path stroke="#575859" vector-effect="non-scaling-stroke" d="M211.75 252.71c7.77-1.25 16.23-3.59 23.04-4.77q13.03-2.27 23.47-3.64 7.3-.95 13.15-2.79"/><path stroke="#666" vector-effect="non-scaling-stroke" d="M271.41 241.51q5.02.13 9.91-1.17"/><path stroke="#575859" vector-effect="non-scaling-stroke" d="M281.32 240.34q9.7-1.26 19.43-3.55"/><path stroke="#666" vector-effect="non-scaling-stroke" d="M300.75 236.79l25.5-3.77"/><path stroke="#575859" vector-effect="non-scaling-stroke" d="M326.25 233.02c19.91-2.52 35.35-4.11 56.8-6.27 14.33-1.45 29.3-2.26 43.98-3.42a.37.36-13.4 00.31-.5q-.78-1.91-2.54-4.38-16.54-23.28-35.19-42.06-2.55-2.57-5.32-4.89"/><path stroke="#666" vector-effect="non-scaling-stroke" d="M384.29 171.5q-21.32-20.33-48.07-31.97c-18.86-8.21-39-9.99-59.23-5.89"/><path stroke="#a0a2a4" vector-effect="non-scaling-stroke" d="M384.29 171.5q-.04.58-.52.76a.88.86 54.1 01-.88-.15q-6.16-5.3-12.34-10.6c-3.34-2.86-7.08-5.16-11.04-7.97q-10.04-7.12-22.12-11.73c-5.19-1.98-9.64-4.88-15.02-6.19-10-2.44-18.5-3.31-29.56-2.68q-7.89.45-15.82.7M326.25 233.02q-5.99-.57-11.86.61c-5.02 1-9.17 1.26-13.84 2.01a.52.52 0 00-.38.75q.23.47.58.4M281.32 240.34q-5.24-1.58-9.91 1.17M211.75 252.71q-.05-5.83 2.08-11.08"/><path stroke="#666" vector-effect="non-scaling-stroke" d="M342.43 237.04c-2.76.5-5.51.61-8.21 1.16q-4.62.93-10.21 1.58-17.04 1.96-35.09 5.53c-18.54 3.67-37.39 5.73-55.89 9.71-7.85 1.69-17.17 4.83-25.9 6.85-6.91 1.61-5.1 16.78-.76 20.8a1.57 1.53 69.1 00.86.4q4.8.63 9.56 1.51c5.26.96 13.7 32.28 15.55 38.1q1.25 3.94 3.84 7.48"/><path stroke="#575859" vector-effect="non-scaling-stroke" d="M236.18 330.16q4.48 12.49 13.1 22.81 5.32 6.38 13.72 6.49"/><path stroke="#666" vector-effect="non-scaling-stroke" d="M263 359.46q21.13 2.15 42.25 0"/><path stroke="#575859" vector-effect="non-scaling-stroke" d="M305.25 359.46q14.91-2.17 28.5-8.67"/><path stroke="#666" vector-effect="non-scaling-stroke" d="M333.75 350.79q5.46-2.5 10.32-8.23c8.11-9.58 9.15-16.82 9.3-30.34q.15-13.14.44-26.26c.24-10.76 4.37-18.69 17.23-15.33"/><path stroke="#575859" vector-effect="non-scaling-stroke" d="M371.04 270.63q6.82 3.94 8.17 11.87"/><path stroke="#666" vector-effect="non-scaling-stroke" d="M379.21 282.5q3.13 15.56 8.72 30.37c7.13 18.89 17.55 20.78 36.57 20.67 15.68-.09 44.19-4.25 53.33-20.2 4.28-7.46 3.61-19.41 2.5-27.65q-2.76-20.59-9.05-40.46"/><path stroke="#575859" vector-effect="non-scaling-stroke" d="M471.28 245.23l.97-1.69"/><path stroke="#666" vector-effect="non-scaling-stroke" d="M472.25 243.54c3.92-4.09 3.93-12.71-2.5-14.5"/><path stroke="#575859" vector-effect="non-scaling-stroke" d="M469.75 229.04q-2.07-.76-5-.76c-41.29-.03-81.75 4.17-122.32 8.76"/><path stroke="#a0a2a4" vector-effect="non-scaling-stroke" d="M469.75 229.04l-.23.41a.44.44 0 00.24.63c6.16 2.18 1.46 12.95 2.49 13.46M471.28 245.23q1.9 11.23 3.18 22.53c.76 6.66 5.49 14.77 5.12 23.77q-.29 7.21-.3 7.31c-.08 6.13.17 10.17-3.36 14.79q-6.44 8.44-15.79 11.62-17.72 6.02-36.35 7.38c-2.29.17-4.69-.37-7.11-.31-17.05.4-26.87-12.91-30.43-28.01q-1.5-6.37-3.67-12.53c-1.03-2.95-1.12-6.29-2.36-9.41a.58.57-20.4 00-.73-.33q-.33.12-.27.46M371.04 270.63q-1.73-2.6-4.55-2.45-2.08.11-6.04 1.46c-5.39 1.84-7.71 9.3-7.83 14.39q-.01.5-.22.96-.9 1.95.25 3.64a1.1 1.08 34.5 01.16.82c-2.99 13.41 1.63 27.73-3.18 40.84-2.32 6.33-8.83 16.46-15.76 18.96a.95.94 87.2 00-.6.67q-.13.51.48.87M305.25 359.46q-.37-1.62-2.28-1.32-8.57 1.35-17.22 1.12c-1.06-.03-2.08.41-2.93.34q-9.57-.74-19.16-1.19a.69.67 9.3 00-.68.48q-.08.3.02.57M236.18 330.16q-1.79-6.48-4.22-12.77c-1.2-3.09-1.83-6.59-3-9.83-2.48-6.91-4.48-14.94-6.9-20.37-2.03-4.52-9.62-4.53-13.78-5.14a1.55 1.53-18.7 01-.86-.42q-2.87-2.72-3.48-5.59c-.64-3.07-.7-12.06 4.09-13.04 3.31-.68 6.57-1.08 9.8-2.06q17.01-5.22 34.59-7.97c10.69-1.68 20.23-3.6 31.97-5.42 7.8-1.2 15.52-3.03 23.19-4.13q7.31-1.04 14.56-2.4c3.17-.59 7.03-.5 10.53-1.24 1.65-.35 10.44-.16 9.76-2.74"/><path stroke="#666" vector-effect="non-scaling-stroke" d="M178.5 265.46c-13.54.81-27.13 1.99-36.61 10.68-6.54 6-8.03 19.81-7.35 27.86"/><path stroke="#575859" vector-effect="non-scaling-stroke" d="M134.54 304q-.14 10.9 4.83 20.23"/><path stroke="#666" vector-effect="non-scaling-stroke" d="M139.37 324.23q2.59 5.03 7.9 6.83a1.18 1.18 0 001.42-.57c3.89-7.53.92-15.89 2.28-24.35 1.26-7.85 5.02-12.93 11.57-16.89"/><path stroke="#575859" vector-effect="non-scaling-stroke" d="M162.54 289.25l9.71-3.46"/><path stroke="#666" vector-effect="non-scaling-stroke" d="M172.25 285.79c8.75-.91 17.53-.91 26.32-1.62a.39.39 0 00.34-.51l-2.2-6.73"/><path stroke="#575859" vector-effect="non-scaling-stroke" d="M196.71 276.93q-.88-6.42.84-12.64a.35.35 0 00-.37-.44l-18.68 1.61"/><path stroke="#a0a2a4" vector-effect="non-scaling-stroke" d="M196.71 276.93q-.78 2.68.27 5.12a.97.96 77.4 01-.85 1.35c-2.78.08-24.63.41-23.88 2.39M162.54 289.25q.28-.46.25-.59a.65.64-20.5 00-.91-.41c-14.07 6.94-13.57 22.67-12.58 36.11.22 3-.92 5.81-4.49 4.6a1.42 1.41 83 01-.75-.59q-1.71-2.67-4.69-4.14M134.54 304q1.28-.89 1.25-2.44c-.1-7.46 1.44-18.96 7.05-24.45 7.07-6.93 16.93-8.72 27.36-9.68q5.67-.53 8.25-1.15a.42.42 0 00.31-.52q-.04-.19-.26-.3"/><path stroke="#575859" vector-effect="non-scaling-stroke" d="M348 503.29q22.49 5.01 45.25 1.5"/><path stroke="#666" vector-effect="non-scaling-stroke" d="M393.25 504.79c15.61-2.33 36.79-8.26 48.53-19.32 6.14-5.78 10.68-13.26 15.11-20.4q2.14-3.45 4-7.57c2.67-5.91 6.01-11.78 7.98-17.59 12.51-36.72 11.18-74.41 3.66-111.96a.46.46 0 00-.85-.14q-2.04 3.43-5.35 5.71-21.3 14.67-47.34 14.36-13.55-.16-22.5-3.4c-17.05-6.18-24.08-27.29-28.78-42.98"/><path stroke="#575859" vector-effect="non-scaling-stroke" d="M367.71 301.5q-1.71-11.23-4.46-19.5-.28-.84-1.92-.98"/><path stroke="#666" vector-effect="non-scaling-stroke" d="M361.33 281.02q-.41-.48-1.12-.21a.83.82 81.4 00-.51.7q-1.06 16.8-.01 31.47 1.23 17.22-7.38 30.99c-2.97 4.74-8 8.58-12.71 11.56q-4.06 2.57-11.72 5.43c-31.96 11.92-61.73 27.7-91.81 43.69a.59.58-24.1 00-.28.72q3.74 9.96 8.65 19.4a2.29 2.29 0 001.97 1.24q13.55.43 22.04 11.28c4.29 5.47 8.05 11.32 7.76 18.1q-.11 2.65-.2 5.34a.85.85 0 00.41.76c2.5 1.53 5.46 1.97 7.65 3.55q6.18 4.46 10.27 9.64c1.77 2.24 1.17 5.78 3.88 7.46 13.73 8.56 33.28 17.9 49.78 21.15"/><path stroke="#a0a2a4" vector-effect="non-scaling-stroke" d="M361.33 281.02q-1.71 7.21-1.28 14.04c1.03 16.4 2.96 29.22-3.07 43.85-3.89 9.44-15.48 19.1-24.99 22.05-6.93 2.15-14.92 5.84-19.49 7.61q-16.21 6.3-21.3 9.13c-4.43 2.47-9.2 4.37-12.56 6.2q-4.51 2.48-9.12 4.75c-3.07 1.52-6.05 4.07-9.33 5.55q-11.55 5.2-21.25 11.54a.77.76 69.3 00-.34.77q.86 5.4 3.68 10.07c2.92 4.83 1.66 9.77 9.94 8.66q.5-.07.97.12c11.84 4.66 18.72 11.94 23.54 23.54 1.56 3.76.95 7.23.72 11.18a.64.62 9.8 00.46.64l4.83 1.4q.52.15.9.54c2.43 2.51 5.64 3.73 7.68 6.42 2.56 3.39 5.64 5.33 5.88 10.01a2.2 2.19-76.1 001.06 1.77c4.16 2.5 7.72 4.72 12.54 6.72 6.7 2.77 13.47 6.27 22.27 9.3 4.35 1.5 8.26 4.3 14.06 4.24a1.14 1.14 0 01.85.38q.7.77.02 1.79M367.71 301.5l-.22-.27a.39.38 52.3 00-.52-.07c-2.15 1.52 1.83 7.21 1.98 9.36q.04.5.31.92 1.62 2.54 2.39 5.44c1.34 5.06 3.84 9.15 6.11 13.71 2.31 4.68 5.49 7.29 9.39 10.36 10.9 8.56 30.91 9.33 44.27 7.42 15.12-2.16 28.55-6.62 39.68-17.14a.39.39 0 01.65.21c1.69 8.47 2.72 15.87 3.22 25.32.41 7.7 1.53 14 .7 22.69-.23 2.34.78 4.43.65 6.84-.75 14.06-1.08 28.95-5.86 42.39-3.54 9.94-6.1 19.2-11.15 28.6-1.03 1.92-1.23 4.26-2.97 6.18-6.92 7.59-10.04 16.92-18.8 23.28-12.87 9.33-28.25 13.87-43.74 16.63a.98.98 0 00-.79.79q-.09.53.24.63"/><path stroke="#575859" vector-effect="non-scaling-stroke" d="M166.16 412.25l1.32.31a.62.61-83.9 00.76-.62l-.06-2.53a1.23 1.23 0 00-1.87-1.02q-1.86 1.12-1.01 3.13a1.26 1.22 84.5 00.86.73"/><path stroke="#a0a2a4" vector-effect="non-scaling-stroke" d="M257.79 189.25c-1.01-2.75-3.98 4.34-4.12 4.76-1.24 3.46.53 6.31 3.43 8.02a.55.55 0 00.75-.19q.16-.26.19-.59"/><path stroke="#575859" vector-effect="non-scaling-stroke" d="M258.04 201.25l2.81.24a1.23 1.22-63 00.9-.3c3.9-3.42 6.34-14.54-1.83-13.06-.85.15-1.34.79-2.13 1.12"/><path stroke="#666" vector-effect="non-scaling-stroke" d="M258.04 201.25c-5.47-3.45-3.54-8-.25-12"/><path stroke="#575859" vector-effect="non-scaling-stroke" d="M236.024 227.979a11.89 8.08 110.2 0011.689-8.369 11.89 8.08 110.2 00-3.477-13.949 11.89 8.08 110.2 00-11.689 8.369 11.89 8.08 110.2 003.477 13.949M392.21 279l1 4.25"/><path stroke="#a0a2a4" vector-effect="non-scaling-stroke" d="M393.21 283.25q-.52-.15-.89.09a.72.72 0 00-.32.79c1.65 6.34 3.58 12.58 5.25 18.91q1.23 4.64 3.82 8.74a.72.71-21.5 00.75.32l.47-.1"/><path stroke="#575859" vector-effect="non-scaling-stroke" d="M402.29 312c3.79 7 9.79 8.96 17.45 8.48q11.32-.7 22.5-1.61"/><path stroke="#a0a2a4" vector-effect="non-scaling-stroke" d="M442.24 318.87q10.4.03 19.14-6.5 6.42-4.8 7.4-12.26a.8.79-67.1 00-.29-.73l-.5-.41q-.43-.35-.44.21-.01.6-.51.82"/><path stroke="#575859" vector-effect="non-scaling-stroke" d="M467.04 300c1.43-18.45-1.74-34.66-6.85-52.67-.74-2.62-2.24-4.9-4.94-5.13q-13.26-1.15-31.5.26"/><path stroke="#a0a2a4" vector-effect="non-scaling-stroke" d="M423.75 242.46c.6-3.19-24.78 2.56-27.22 3.29-5.23 1.54-7.84 1.78-7.73 7.73.08 4.12.01 23.32 3.41 25.52"/><path stroke="#666" vector-effect="non-scaling-stroke" d="M423.75 242.46q-15.62 1.28-29.75 5.26-1.72.48-3.52 1.93a1.17 1.15 72.3 00-.42.83q-.62 14.4 2.15 28.52M467.04 300q-1.49 9.4-9.35 13.44-5.94 3.05-15.45 5.43M402.29 312c-4.52-8.61-7.22-20.88-9.08-28.75"/><path stroke="#575859" vector-effect="non-scaling-stroke" d="M300.44 257.66l-24.14 3.52"/><path stroke="#a0a2a4" vector-effect="non-scaling-stroke" d="M276.3 261.18q-3.47-.82-5.5.15c-1.55.74-1.77.33-3.13.54-3.49.53-16.16 2.62-16.17 5.42"/><path stroke="#575859" vector-effect="non-scaling-stroke" d="M251.5 267.29c-5.88 1.86-11.7 3.71-12.18 10.89q-.39 5.81.39 11.57"/><path stroke="#a0a2a4" vector-effect="non-scaling-stroke" d="M239.71 289.75c-.82-.18-1.15-.03-1.01.82q2.17 13.02 4.5 19.49c1.51 4.18 2.01 8.37 3.42 11.84 3.83 9.45 7.84 23.11 18.5 23.37 2.72.07 5.95 1.06 8.07 1.2 2.8.19 44.16.95 40.02-3.97"/><path stroke="#575859" vector-effect="non-scaling-stroke" d="M313.21 342.5l9.77-3.34"/><path stroke="#a0a2a4" vector-effect="non-scaling-stroke" d="M322.98 339.16q5.5-.51 8.26-3.42 1.34-1.4 4.45-6.44c6.5-10.53 4.95-25.17 5.55-36.3q.42-7.85-1.54-20.59c-.44-2.84-1.63-5.71-2.18-8.72-.53-2.94-2.11-4.37-3.76-6.64a.42.41-44.7 00-.67 0q-.2.28-.13.7"/><path stroke="#575859" vector-effect="non-scaling-stroke" d="M332.96 257.75l-.96-.46"/><path stroke="#a0a2a4" vector-effect="non-scaling-stroke" d="M332 257.29q.24-.08.28-.37a.56.55 11.5 00-.41-.6c-8.99-2.44-17.25-.6-26.57-.23q-2.6.1-4.86 1.57"/><path stroke="#666" vector-effect="non-scaling-stroke" d="M332 257.29q-11.94-2.4-23.85-.17c-2.7.5-5.12.55-7.71.54M332.96 257.75q4.89 7.4 5.8 16.24 1.48 14.44.96 28.94c-.54 15.16-1.86 29.75-16.74 36.23M313.21 342.5q-21.65 5.29-43.65 2.3c-7.99-1.09-12.56-3.33-15.89-10.49q-10.14-21.83-13.96-44.56M251.5 267.29l24.8-6.11"/><path stroke="#8e8e8d" vector-effect="non-scaling-stroke" d="M453.88 249.08c-1.59-2.6-23.48-.94-25.89-.66q-.59.07-.19.52l33.12 37.17q.39.45.37-.15c-.44-11.85-1.07-26.48-7.41-36.88M452.16 309.74c3.49-.52 8.16-3.88 8.1-7.95a1.33 1.32 23.3 00-.35-.87c-15.62-16.62-30.41-34.16-46.37-50.39a1 .99 65.5 00-.77-.29q-6.39.45-12.36 2.73a.41.4 58.3 00-.15.65l50.43 55.59a1.67 1.64 64.3 001.47.53M316.81 262.23q-14.53.64-28.81 3.34a.41.41 0 00-.22.67l44.5 49.95a.22.22 0 00.39-.12c.8-5.97 3.65-33 .35-36.84q-3.33-3.89-15.33-16.64a1.16 1.15 67 00-.88-.36M272.07 268.57l-13.38 3.77a.47.47 0 00-.22.77q27.55 31.45 55.93 62.15a.81.8-33.5 00.92.18q5.22-2.34 9.98-5.66 1.61-1.13.29-2.59l-52.56-58.35a.96.95 60.4 00-.96-.27"/><path stroke="#a0a2a4" vector-effect="non-scaling-stroke" d="M297.37 444.66q-.21-.31-1.17-.02a1.02 1.01-87.5 00-.66.61c-2.16 5.52-1.36 11.63 3.79 15.06 5.11 3.41 11.62 6.84 16.64 1.74 3.36-3.42 1.98-8.59-.34-12.13a.69.68 64.1 00-.79-.28q-.55.2-.88.86"/><path stroke="#575859" vector-effect="non-scaling-stroke" d="M313.96 450.5q-6-8.93-16.59-5.84"/><path stroke="#666" vector-effect="non-scaling-stroke" d="M313.96 450.5c11.9 17.49-16.71 14.7-18.16 1.23q-.38-3.56 1.57-7.07"/><path stroke="#a0a2a4" vector-effect="non-scaling-stroke" d="M396.13 465.46c-.17 4.92 1.49 8.08 6.57 8.39q2.32.14 3.89-1.03c9.48-7.05-10.04-19.35-10.46-7.36M332.61 469.22c-12.46 18.04 31.22 28.42 28.29 9.86-.46-2.88-.99-5.65-3.38-7.6-5.02-4.1-20-9.38-24.91-2.26"/><path stroke="#666" vector-effect="non-scaling-stroke" d="M405.67 472.12a6.09 4.8 54.7 00.397-7.744 6.09 4.8 54.7 00-7.436-2.196 6.09 4.8 54.7 00-.398 7.744 6.09 4.8 54.7 007.436 2.196M359.954 482.034a14.85 9.61 19.2 00-10.864-13.96 14.85 9.61 19.2 00-17.184 4.192 14.85 9.61 19.2 0010.864 13.96 14.85 9.61 19.2 0017.184-4.192"/><path stroke="#fdfef1" vector-effect="non-scaling-stroke" d="M589.94 591l-.19-.71"/><path stroke="#8c8d7f" vector-effect="non-scaling-stroke" d="M576.44 591q-3.38-.63-6.75 0M25.19 591q-5.75-.63-11.5 0M11.19 591q-4.88-.63-9.75 0"/></g><path d="M0 0h590.06l.19.29.04 589.46-.54.54-588.93-.23a.34.34 0 00-.32.47l.19.47H0V0zm4.29 29.75v556a.5.5 0 00.5.5h580.96a.5.5 0 00.5-.5V4.79a.5.49 90 00-.49-.5H110.5L4.81 4.31a.5.5 0 00-.5.5l-.02 24.94z"/><path fill="#1d1c1b" d="M590.06 0h.94v587.31c-.84-.45-.25-537.06-.25-586.81a.25.24-86.1 00-.21-.25q-.17-.02-.29.04l-.19-.29z"/><path fill="#fafde2" d="M590.25.29q.12-.06.29-.04a.25.24-86.1 01.21.25c0 49.75-.59 586.36.25 586.81v2.75l-.71-.31L590.25.29z"/><path fill="#fff" d="M110.5 4.29l-.27.24q-.27.24.09.22l.37-.01q.28-.01.06.16l-3.12 2.43a1.34 1.33 25.7 01-.82.28Q74.1 7.81 41.4 8.9c-3.61.12-12.25 1.86-15.03 4.21-6.01 5.09-12.73 9.79-18 15.63a1.44 1.42-73.9 01-.78.44l-3.3.57.02-24.94a.5.5 0 01.5-.5l105.69-.02z"/><path fill="#fafde2" d="M110.5 4.29h475.26a.5.49 90 01.49.5v580.96a.5.5 0 01-.5.5H4.79a.5.5 0 01-.5-.5v-556l3.3-.57a1.44 1.42-73.9 00.78-.44c5.27-5.84 11.99-10.54 18-15.63 2.78-2.35 11.42-4.09 15.03-4.21q32.7-1.09 65.41-1.29a1.34 1.33 25.7 00.82-.28l3.12-2.43q.22-.17-.06-.16l-.37.01q-.36.02-.09-.22l.27-.24zM94.82 48.17q-21.05-.61-42.01 1.05c-12.17.96-19.87 6.17-19.83 19.21q.07 22.04.76 44.12a.53.53 0 00.83.42q1.93-1.32 3.6-3.04 25.3-26.1 50.66-52.09 3.99-4.09 6.28-9.19a.34.34 0 00-.29-.48zm63.89 213.13c-8.13 1.93-15.85 5.32-21.28 11.76-10.61 12.57-10.55 29.5-6.77 44.94 1.4 5.72 6.62 15.49 12.03 18.17a.93.92 15.7 01.51.9c-2.43 26.09-1.29 49.8 3.96 76.69 5.62 28.79 16.74 54.53 34.89 77.6 27.7 35.23 71.36 53.41 114.99 57.38 59.48 5.4 126.68-21.81 160.71-71.75 31.5-46.24 31.54-101.22 21.1-154a1.16 1.15-33.2 01.19-.9c7.04-9.89 8.34-21.05 7.16-31.83q-2.42-22.02-7.71-43.54a2 2 0 01.27-1.58c4.46-6.95 2.2-22.99-9.26-22.85q-16.23.21-32.48.87a1.02 1.01-17.1 01-.89-.46c-25.1-38.96-64.01-81.56-110.21-94.57-12.88-3.63-27.08-4.19-40.58-3.18-38.68 2.87-72.72 35.8-92.42 66.71-2.51 3.93-6.15 8.39-8.68 13.42-2.95 5.86-6.57 11.88-9.14 17.32q-8.87 18.75-15.75 38.32a.92.9 2.3 01-.64.58z"/><path fill="#fae6b0" d="M95.11 48.65q-2.29 5.1-6.28 9.19-25.36 25.99-50.66 52.09-1.67 1.72-3.6 3.04a.53.53 0 01-.83-.42q-.69-22.08-.76-44.12c-.04-13.04 7.66-18.25 19.83-19.21q20.96-1.66 42.01-1.05a.34.34 0 01.29.48z"/><path fill="#1d1c1b" d="M159.35 260.72q6.88-19.57 15.75-38.32c2.57-5.44 6.19-11.46 9.14-17.32 2.53-5.03 6.17-9.49 8.68-13.42 19.7-30.91 53.74-63.84 92.42-66.71 13.5-1.01 27.7-.45 40.58 3.18 46.2 13.01 85.11 55.61 110.21 94.57a1.02 1.01-17.1 00.89.46q16.25-.66 32.48-.87c11.46-.14 13.72 15.9 9.26 22.85a2 2 0 00-.27 1.58q5.29 21.52 7.71 43.54c1.18 10.78-.12 21.94-7.16 31.83a1.16 1.15-33.2 00-.19.9c10.44 52.78 10.4 107.76-21.1 154-34.03 49.94-101.23 77.15-160.71 71.75-43.63-3.97-87.29-22.15-114.99-57.38-18.15-23.07-29.27-48.81-34.89-77.6-5.25-26.89-6.39-50.6-3.96-76.69a.93.92 15.7 00-.51-.9c-5.41-2.68-10.63-12.45-12.03-18.17-3.78-15.44-3.84-32.37 6.77-44.94 5.43-6.44 13.15-9.83 21.28-11.76a.92.9 2.3 00.64-.58zm117.64-127.08c-7.39 1.18-10.19 4.95-15.97 11.35q-11.22 12.41-18.03 24.73c-4.56 8.25-9.76 15.76-13.13 23.32-1.82 4.09-7.19 14.78-6.05 18.5 3.31 10.74 1.87 25.16-9.98 30.09q-4.25 4.2-3.58 10.71a.61.6-1.6 00.58.54q.54.01.92-.17c7.77-1.25 16.23-3.59 23.04-4.77q13.03-2.27 23.47-3.64 7.3-.95 13.15-2.79 5.02.13 9.91-1.17 9.7-1.26 19.43-3.55l25.5-3.77c19.91-2.52 35.35-4.11 56.8-6.27 14.33-1.45 29.3-2.26 43.98-3.42a.37.36-13.4 00.31-.5q-.78-1.91-2.54-4.38-16.54-23.28-35.19-42.06-2.55-2.57-5.32-4.89-21.32-20.33-48.07-31.97c-18.86-8.21-39-9.99-59.23-5.89zm65.44 103.4c-2.76.5-5.51.61-8.21 1.16q-4.62.93-10.21 1.58-17.04 1.96-35.09 5.53c-18.54 3.67-37.39 5.73-55.89 9.71-7.85 1.69-17.17 4.83-25.9 6.85-6.91 1.61-5.1 16.78-.76 20.8a1.57 1.53 69.1 00.86.4q4.8.63 9.56 1.51c5.26.96 13.7 32.28 15.55 38.1q1.25 3.94 3.84 7.48 4.48 12.49 13.1 22.81 5.32 6.38 13.72 6.49 21.13 2.15 42.25 0 14.91-2.17 28.5-8.67 5.46-2.5 10.32-8.23c8.11-9.58 9.15-16.82 9.3-30.34q.15-13.14.44-26.26c.24-10.76 4.37-18.69 17.23-15.33q6.82 3.94 8.17 11.87 3.13 15.56 8.72 30.37c7.13 18.89 17.55 20.78 36.57 20.67 15.68-.09 44.19-4.25 53.33-20.2 4.28-7.46 3.61-19.41 2.5-27.65q-2.76-20.59-9.05-40.46l.97-1.69c3.92-4.09 3.93-12.71-2.5-14.5q-2.07-.76-5-.76c-41.29-.03-81.75 4.17-122.32 8.76zM178.5 265.46c-13.54.81-27.13 1.99-36.61 10.68-6.54 6-8.03 19.81-7.35 27.86q-.14 10.9 4.83 20.23 2.59 5.03 7.9 6.83a1.18 1.18 0 001.42-.57c3.89-7.53.92-15.89 2.28-24.35 1.26-7.85 5.02-12.93 11.57-16.89l9.71-3.46c8.75-.91 17.53-.91 26.32-1.62a.39.39 0 00.34-.51l-2.2-6.73q-.88-6.42.84-12.64a.35.35 0 00-.37-.44l-18.68 1.61zM348 503.29q22.49 5.01 45.25 1.5c15.61-2.33 36.79-8.26 48.53-19.32 6.14-5.78 10.68-13.26 15.11-20.4q2.14-3.45 4-7.57c2.67-5.91 6.01-11.78 7.98-17.59 12.51-36.72 11.18-74.41 3.66-111.96a.46.46 0 00-.85-.14q-2.04 3.43-5.35 5.71-21.3 14.67-47.34 14.36-13.55-.16-22.5-3.4c-17.05-6.18-24.08-27.29-28.78-42.98q-1.71-11.23-4.46-19.5-.28-.84-1.92-.98-.41-.48-1.12-.21a.83.82 81.4 00-.51.7q-1.06 16.8-.01 31.47 1.23 17.22-7.38 30.99c-2.97 4.74-8 8.58-12.71 11.56q-4.06 2.57-11.72 5.43c-31.96 11.92-61.73 27.7-91.81 43.69a.59.58-24.1 00-.28.72q3.74 9.96 8.65 19.4a2.29 2.29 0 001.97 1.24q13.55.43 22.04 11.28c4.29 5.47 8.05 11.32 7.76 18.1q-.11 2.65-.2 5.34a.85.85 0 00.41.76c2.5 1.53 5.46 1.97 7.65 3.55q6.18 4.46 10.27 9.64c1.77 2.24 1.17 5.78 3.88 7.46 13.73 8.56 33.28 17.9 49.78 21.15zm-181.84-91.04l1.32.31a.62.61-83.9 00.76-.62l-.06-2.53a1.23 1.23 0 00-1.87-1.02q-1.86 1.12-1.01 3.13a1.26 1.22 84.5 00.86.73z"/><path fill="#afafb1" d="M384.29 171.5q-.04.58-.52.76a.88.86 54.1 01-.88-.15q-6.16-5.3-12.34-10.6c-3.34-2.86-7.08-5.16-11.04-7.97q-10.04-7.12-22.12-11.73c-5.19-1.98-9.64-4.88-15.02-6.19-10-2.44-18.5-3.31-29.56-2.68q-7.89.45-15.82.7c20.23-4.1 40.37-2.32 59.23 5.89q26.75 11.64 48.07 31.97z"/><path fill="#919497" d="M384.29 171.5q2.77 2.32 5.32 4.89 18.65 18.78 35.19 42.06 1.76 2.47 2.54 4.38a.37.36-13.4 01-.31.5c-14.68 1.16-29.65 1.97-43.98 3.42-21.45 2.16-36.89 3.75-56.8 6.27q-5.99-.57-11.86.61c-5.02 1-9.17 1.26-13.84 2.01a.52.52 0 00-.38.75q.23.47.58.4-9.73 2.29-19.43 3.55-5.24-1.58-9.91 1.17-5.85 1.84-13.15 2.79-10.44 1.37-23.47 3.64c-6.81 1.18-15.27 3.52-23.04 4.77q-.05-5.83 2.08-11.08c11.85-4.93 13.29-19.35 9.98-30.09-1.14-3.72 4.23-14.41 6.05-18.5 3.37-7.56 8.57-15.07 13.13-23.32q6.81-12.32 18.03-24.73c5.78-6.4 8.58-10.17 15.97-11.35q7.93-.25 15.82-.7c11.06-.63 19.56.24 29.56 2.68 5.38 1.31 9.83 4.21 15.02 6.19q12.08 4.61 22.12 11.73c3.96 2.81 7.7 5.11 11.04 7.97q6.18 5.3 12.34 10.6a.88.86 54.1 00.88.15q.48-.18.52-.76zm-126.5 17.75c-1.01-2.75-3.98 4.34-4.12 4.76-1.24 3.46.53 6.31 3.43 8.02a.55.55 0 00.75-.19q.16-.26.19-.59l2.81.24a1.23 1.22-63 00.9-.3c3.9-3.42 6.34-14.54-1.83-13.06-.85.15-1.34.79-2.13 1.12zm-21.766 38.729a11.89 8.08 110.2 0011.689-8.369 11.89 8.08 110.2 00-3.477-13.949 11.89 8.08 110.2 00-11.689 8.369 11.89 8.08 110.2 003.477 13.949z"/><path fill="#1d1c1b" d="M258.04 201.25c-5.47-3.45-3.54-8-.25-12 .79-.33 1.28-.97 2.13-1.12 8.17-1.48 5.73 9.64 1.83 13.06a1.23 1.22-63 01-.9.3l-2.81-.24z"/><path fill="#afafb1" d="M257.79 189.25c-3.29 4-5.22 8.55.25 12q-.03.33-.19.59a.55.55 0 01-.75.19c-2.9-1.71-4.67-4.56-3.43-8.02.14-.42 3.11-7.51 4.12-4.76z"/><ellipse fill="#1d1c1b" transform="rotate(110.2 44.437 192.169)" rx="11.89" ry="8.08"/><path fill="#919497" d="M469.75 229.04l-.23.41a.44.44 0 00.24.63c6.16 2.18 1.46 12.95 2.49 13.46l-.97 1.69q1.9 11.23 3.18 22.53c.76 6.66 5.49 14.77 5.12 23.77q-.29 7.21-.3 7.31c-.08 6.13.17 10.17-3.36 14.79q-6.44 8.44-15.79 11.62-17.72 6.02-36.35 7.38c-2.29.17-4.69-.37-7.11-.31-17.05.4-26.87-12.91-30.43-28.01q-1.5-6.37-3.67-12.53c-1.03-2.95-1.12-6.29-2.36-9.41a.58.57-20.4 00-.73-.33q-.33.12-.27.46-1.35-7.93-8.17-11.87-1.73-2.6-4.55-2.45-2.08.11-6.04 1.46c-5.39 1.84-7.71 9.3-7.83 14.39q-.01.5-.22.96-.9 1.95.25 3.64a1.1 1.08 34.5 01.16.82c-2.99 13.41 1.63 27.73-3.18 40.84-2.32 6.33-8.83 16.46-15.76 18.96a.95.94 87.2 00-.6.67q-.13.51.48.87-13.59 6.5-28.5 8.67-.37-1.62-2.28-1.32-8.57 1.35-17.22 1.12c-1.06-.03-2.08.41-2.93.34q-9.57-.74-19.16-1.19a.69.67 9.3 00-.68.48q-.08.3.02.57-8.4-.11-13.72-6.49-8.62-10.32-13.1-22.81-1.79-6.48-4.22-12.77c-1.2-3.09-1.83-6.59-3-9.83-2.48-6.91-4.48-14.94-6.9-20.37-2.03-4.52-9.62-4.53-13.78-5.14a1.55 1.53-18.7 01-.86-.42q-2.87-2.72-3.48-5.59c-.64-3.07-.7-12.06 4.09-13.04 3.31-.68 6.57-1.08 9.8-2.06q17.01-5.22 34.59-7.97c10.69-1.68 20.23-3.6 31.97-5.42 7.8-1.2 15.52-3.03 23.19-4.13q7.31-1.04 14.56-2.4c3.17-.59 7.03-.5 10.53-1.24 1.65-.35 10.44-.16 9.76-2.74 40.57-4.59 81.03-8.79 122.32-8.76q2.93 0 5 .76zM392.21 279l1 4.25q-.52-.15-.89.09a.72.72 0 00-.32.79c1.65 6.34 3.58 12.58 5.25 18.91q1.23 4.64 3.82 8.74a.72.71-21.5 00.75.32l.47-.1c3.79 7 9.79 8.96 17.45 8.48q11.32-.7 22.5-1.61 10.4.03 19.14-6.5 6.42-4.8 7.4-12.26a.8.79-67.1 00-.29-.73l-.5-.41q-.43-.35-.44.21-.01.6-.51.82c1.43-18.45-1.74-34.66-6.85-52.67-.74-2.62-2.24-4.9-4.94-5.13q-13.26-1.15-31.5.26c.6-3.19-24.78 2.56-27.22 3.29-5.23 1.54-7.84 1.78-7.73 7.73.08 4.12.01 23.32 3.41 25.52zm-91.77-21.34l-24.14 3.52q-3.47-.82-5.5.15c-1.55.74-1.77.33-3.13.54-3.49.53-16.16 2.62-16.17 5.42-5.88 1.86-11.7 3.71-12.18 10.89q-.39 5.81.39 11.57c-.82-.18-1.15-.03-1.01.82q2.17 13.02 4.5 19.49c1.51 4.18 2.01 8.37 3.42 11.84 3.83 9.45 7.84 23.11 18.5 23.37 2.72.07 5.95 1.06 8.07 1.2 2.8.19 44.16.95 40.02-3.97l9.77-3.34q5.5-.51 8.26-3.42 1.34-1.4 4.45-6.44c6.5-10.53 4.95-25.17 5.55-36.3q.42-7.85-1.54-20.59c-.44-2.84-1.63-5.71-2.18-8.72-.53-2.94-2.11-4.37-3.76-6.64a.42.41-44.7 00-.67 0q-.2.28-.13.7l-.96-.46q.24-.08.28-.37a.56.55 11.5 00-.41-.6c-8.99-2.44-17.25-.6-26.57-.23q-2.6.1-4.86 1.57z"/><path fill="#afafb1" d="M469.75 229.04c6.43 1.79 6.42 10.41 2.5 14.5-1.03-.51 3.67-11.28-2.49-13.46a.44.44 0 01-.24-.63l.23-.41zM326.25 233.02l-25.5 3.77q-.35.07-.58-.4a.52.52 0 01.38-.75c4.67-.75 8.82-1.01 13.84-2.01q5.87-1.18 11.86-.61zM342.43 237.04c.68 2.58-8.11 2.39-9.76 2.74-3.5.74-7.36.65-10.53 1.24q-7.25 1.36-14.56 2.4c-7.67 1.1-15.39 2.93-23.19 4.13-11.74 1.82-21.28 3.74-31.97 5.42q-17.58 2.75-34.59 7.97c-3.23.98-6.49 1.38-9.8 2.06-4.79.98-4.73 9.97-4.09 13.04q.61 2.87 3.48 5.59a1.55 1.53-18.7 00.86.42c4.16.61 11.75.62 13.78 5.14 2.42 5.43 4.42 13.46 6.9 20.37 1.17 3.24 1.8 6.74 3 9.83q2.43 6.29 4.22 12.77-2.59-3.54-3.84-7.48c-1.85-5.82-10.29-37.14-15.55-38.1q-4.76-.88-9.56-1.51a1.57 1.53 69.1 01-.86-.4c-4.34-4.02-6.15-19.19.76-20.8 8.73-2.02 18.05-5.16 25.9-6.85 18.5-3.98 37.35-6.04 55.89-9.71q18.05-3.57 35.09-5.53 5.59-.65 10.21-1.58c2.7-.55 5.45-.66 8.21-1.16zM281.32 240.34q-4.89 1.3-9.91 1.17 4.67-2.75 9.91-1.17zM423.75 242.46q-15.62 1.28-29.75 5.26-1.72.48-3.52 1.93a1.17 1.15 72.3 00-.42.83q-.62 14.4 2.15 28.52c-3.4-2.2-3.33-21.4-3.41-25.52-.11-5.95 2.5-6.19 7.73-7.73 2.44-.73 27.82-6.48 27.22-3.29zM213.83 241.63q-2.13 5.25-2.08 11.08-.38.18-.92.17a.61.6-1.6 01-.58-.54q-.67-6.51 3.58-10.71z"/><path fill="#1d1c1b" d="M467.04 300q-1.49 9.4-9.35 13.44-5.94 3.05-15.45 5.43-11.18.91-22.5 1.61c-7.66.48-13.66-1.48-17.45-8.48-4.52-8.61-7.22-20.88-9.08-28.75l-1-4.25q-2.77-14.12-2.15-28.52a1.17 1.15 72.3 01.42-.83q1.8-1.45 3.52-1.93 14.13-3.98 29.75-5.26 18.24-1.41 31.5-.26c2.7.23 4.2 2.51 4.94 5.13 5.11 18.01 8.28 34.22 6.85 52.67zm-13.16-50.92c-1.59-2.6-23.48-.94-25.89-.66q-.59.07-.19.52l33.12 37.17q.39.45.37-.15c-.44-11.85-1.07-26.48-7.41-36.88zm-1.72 60.66c3.49-.52 8.16-3.88 8.1-7.95a1.33 1.32 23.3 00-.35-.87c-15.62-16.62-30.41-34.16-46.37-50.39a1 .99 65.5 00-.77-.29q-6.39.45-12.36 2.73a.41.4 58.3 00-.15.65l50.43 55.59a1.67 1.64 64.3 001.47.53z"/><path fill="#afafb1" d="M471.28 245.23q6.29 19.87 9.05 40.46c1.11 8.24 1.78 20.19-2.5 27.65-9.14 15.95-37.65 20.11-53.33 20.2-19.02.11-29.44-1.78-36.57-20.67q-5.59-14.81-8.72-30.37-.06-.34.27-.46a.58.57-20.4 01.73.33c1.24 3.12 1.33 6.46 2.36 9.41q2.17 6.16 3.67 12.53c3.56 15.1 13.38 28.41 30.43 28.01 2.42-.06 4.82.48 7.11.31q18.63-1.36 36.35-7.38 9.35-3.18 15.79-11.62c3.53-4.62 3.28-8.66 3.36-14.79q.01-.1.3-7.31c.37-9-4.36-17.11-5.12-23.77q-1.28-11.3-3.18-22.53z"/><path fill="#fff" d="M427.99 248.42c2.41-.28 24.3-1.94 25.89.66 6.34 10.4 6.97 25.03 7.41 36.88q.02.6-.37.15l-33.12-37.17q-.4-.45.19-.52zM452.16 309.74a1.67 1.64 64.3 01-1.47-.53l-50.43-55.59a.41.4 58.3 01.15-.65q5.97-2.28 12.36-2.73a1 .99 65.5 01.77.29c15.96 16.23 30.75 33.77 46.37 50.39a1.33 1.32 23.3 01.35.87c.06 4.07-4.61 7.43-8.1 7.95z"/><path fill="#afafb1" d="M332 257.29q-11.94-2.4-23.85-.17c-2.7.5-5.12.55-7.71.54q2.26-1.47 4.86-1.57c9.32-.37 17.58-2.21 26.57.23a.56.55 11.5 01.41.6q-.04.29-.28.37z"/><path fill="#1d1c1b" d="M332 257.29l.96.46q4.89 7.4 5.8 16.24 1.48 14.44.96 28.94c-.54 15.16-1.86 29.75-16.74 36.23l-9.77 3.34q-21.65 5.29-43.65 2.3c-7.99-1.09-12.56-3.33-15.89-10.49q-10.14-21.83-13.96-44.56-.78-5.76-.39-11.57c.48-7.18 6.3-9.03 12.18-10.89l24.8-6.11 24.14-3.52c2.59.01 5.01-.04 7.71-.54q11.91-2.23 23.85.17zm-15.19 4.94q-14.53.64-28.81 3.34a.41.41 0 00-.22.67l44.5 49.95a.22.22 0 00.39-.12c.8-5.97 3.65-33 .35-36.84q-3.33-3.89-15.33-16.64a1.16 1.15 67 00-.88-.36zm-44.74 6.34l-13.38 3.77a.47.47 0 00-.22.77q27.55 31.45 55.93 62.15a.81.8-33.5 00.92.18q5.22-2.34 9.98-5.66 1.61-1.13.29-2.59l-52.56-58.35a.96.95 60.4 00-.96-.27z"/><path fill="#afafb1" d="M322.98 339.16c14.88-6.48 16.2-21.07 16.74-36.23q.52-14.5-.96-28.94-.91-8.84-5.8-16.24-.07-.42.13-.7a.42.41-44.7 01.67 0c1.65 2.27 3.23 3.7 3.76 6.64.55 3.01 1.74 5.88 2.18 8.72q1.96 12.74 1.54 20.59c-.6 11.13.95 25.77-5.55 36.3q-3.11 5.04-4.45 6.44-2.76 2.91-8.26 3.42zM276.3 261.18l-24.8 6.11c.01-2.8 12.68-4.89 16.17-5.42 1.36-.21 1.58.2 3.13-.54q2.03-.97 5.5-.15z"/><path fill="#fff" d="M317.69 262.59q12 12.75 15.33 16.64c3.3 3.84.45 30.87-.35 36.84a.22.22 0 01-.39.12l-44.5-49.95a.41.41 0 01.22-.67q14.28-2.7 28.81-3.34a1.16 1.15 67 01.88.36z"/><path fill="#919497" d="M196.71 276.93q-.78 2.68.27 5.12a.97.96 77.4 01-.85 1.35c-2.78.08-24.63.41-23.88 2.39l-9.71 3.46q.28-.46.25-.59a.65.64-20.5 00-.91-.41c-14.07 6.94-13.57 22.67-12.58 36.11.22 3-.92 5.81-4.49 4.6a1.42 1.41 83 01-.75-.59q-1.71-2.67-4.69-4.14-4.97-9.33-4.83-20.23 1.28-.89 1.25-2.44c-.1-7.46 1.44-18.96 7.05-24.45 7.07-6.93 16.93-8.72 27.36-9.68q5.67-.53 8.25-1.15a.42.42 0 00.31-.52q-.04-.19-.26-.3l18.68-1.61a.35.35 0 01.37.44q-1.72 6.22-.84 12.64z"/><path fill="#afafb1" d="M178.5 265.46q.22.11.26.3a.42.42 0 01-.31.52q-2.58.62-8.25 1.15c-10.43.96-20.29 2.75-27.36 9.68-5.61 5.49-7.15 16.99-7.05 24.45q.03 1.55-1.25 2.44c-.68-8.05.81-21.86 7.35-27.86 9.48-8.69 23.07-9.87 36.61-10.68zM371.04 270.63c-12.86-3.36-16.99 4.57-17.23 15.33q-.29 13.12-.44 26.26c-.15 13.52-1.19 20.76-9.3 30.34q-4.86 5.73-10.32 8.23-.61-.36-.48-.87a.95.94 87.2 01.6-.67c6.93-2.5 13.44-12.63 15.76-18.96 4.81-13.11.19-27.43 3.18-40.84a1.1 1.08 34.5 00-.16-.82q-1.15-1.69-.25-3.64.21-.46.22-.96c.12-5.09 2.44-12.55 7.83-14.39q3.96-1.35 6.04-1.46 2.82-.15 4.55 2.45z"/><path fill="#fff" d="M273.03 268.84l52.56 58.35q1.32 1.46-.29 2.59-4.76 3.32-9.98 5.66a.81.8-33.5 01-.92-.18q-28.38-30.7-55.93-62.15a.47.47 0 01.22-.77l13.38-3.77a.96.95 60.4 01.96.27z"/><path fill="#afafb1" d="M196.71 276.93l2.2 6.73a.39.39 0 01-.34.51c-8.79.71-17.57.71-26.32 1.62-.75-1.98 21.1-2.31 23.88-2.39a.97.96 77.4 00.85-1.35q-1.05-2.44-.27-5.12zM361.33 281.02q-1.71 7.21-1.28 14.04c1.03 16.4 2.96 29.22-3.07 43.85-3.89 9.44-15.48 19.1-24.99 22.05-6.93 2.15-14.92 5.84-19.49 7.61q-16.21 6.3-21.3 9.13c-4.43 2.47-9.2 4.37-12.56 6.2q-4.51 2.48-9.12 4.75c-3.07 1.52-6.05 4.07-9.33 5.55q-11.55 5.2-21.25 11.54a.77.76 69.3 00-.34.77q.86 5.4 3.68 10.07c2.92 4.83 1.66 9.77 9.94 8.66q.5-.07.97.12c11.84 4.66 18.72 11.94 23.54 23.54 1.56 3.76.95 7.23.72 11.18a.64.62 9.8 00.46.64l4.83 1.4q.52.15.9.54c2.43 2.51 5.64 3.73 7.68 6.42 2.56 3.39 5.64 5.33 5.88 10.01a2.2 2.19-76.1 001.06 1.77c4.16 2.5 7.72 4.72 12.54 6.72 6.7 2.77 13.47 6.27 22.27 9.3 4.35 1.5 8.26 4.3 14.06 4.24a1.14 1.14 0 01.85.38q.7.77.02 1.79c-16.5-3.25-36.05-12.59-49.78-21.15-2.71-1.68-2.11-5.22-3.88-7.46q-4.09-5.18-10.27-9.64c-2.19-1.58-5.15-2.02-7.65-3.55a.85.85 0 01-.41-.76q.09-2.69.2-5.34c.29-6.78-3.47-12.63-7.76-18.1q-8.49-10.85-22.04-11.28a2.29 2.29 0 01-1.97-1.24q-4.91-9.44-8.65-19.4a.59.58-24.1 01.28-.72c30.08-15.99 59.85-31.77 91.81-43.69q7.66-2.86 11.72-5.43c4.71-2.98 9.74-6.82 12.71-11.56q8.61-13.77 7.38-30.99-1.05-14.67.01-31.47a.83.82 81.4 01.51-.7q.71-.27 1.12.21z"/><path fill="#919497" d="M361.33 281.02q1.64.14 1.92.98 2.75 8.27 4.46 19.5l-.22-.27a.39.38 52.3 00-.52-.07c-2.15 1.52 1.83 7.21 1.98 9.36q.04.5.31.92 1.62 2.54 2.39 5.44c1.34 5.06 3.84 9.15 6.11 13.71 2.31 4.68 5.49 7.29 9.39 10.36 10.9 8.56 30.91 9.33 44.27 7.42 15.12-2.16 28.55-6.62 39.68-17.14a.39.39 0 01.65.21c1.69 8.47 2.72 15.87 3.22 25.32.41 7.7 1.53 14 .7 22.69-.23 2.34.78 4.43.65 6.84-.75 14.06-1.08 28.95-5.86 42.39-3.54 9.94-6.1 19.2-11.15 28.6-1.03 1.92-1.23 4.26-2.97 6.18-6.92 7.59-10.04 16.92-18.8 23.28-12.87 9.33-28.25 13.87-43.74 16.63a.98.98 0 00-.79.79q-.09.53.24.63-22.76 3.51-45.25-1.5.68-1.02-.02-1.79a1.14 1.14 0 00-.85-.38c-5.8.06-9.71-2.74-14.06-4.24-8.8-3.03-15.57-6.53-22.27-9.3-4.82-2-8.38-4.22-12.54-6.72a2.2 2.19-76.1 01-1.06-1.77c-.24-4.68-3.32-6.62-5.88-10.01-2.04-2.69-5.25-3.91-7.68-6.42q-.38-.39-.9-.54l-4.83-1.4a.64.62 9.8 01-.46-.64c.23-3.95.84-7.42-.72-11.18-4.82-11.6-11.7-18.88-23.54-23.54q-.47-.19-.97-.12c-8.28 1.11-7.02-3.83-9.94-8.66q-2.82-4.67-3.68-10.07a.77.76 69.3 01.34-.77q9.7-6.34 21.25-11.54c3.28-1.48 6.26-4.03 9.33-5.55q4.61-2.27 9.12-4.75c3.36-1.83 8.13-3.73 12.56-6.2q5.09-2.83 21.3-9.13c4.57-1.77 12.56-5.46 19.49-7.61 9.51-2.95 21.1-12.61 24.99-22.05 6.03-14.63 4.1-27.45 3.07-43.85q-.43-6.83 1.28-14.04zm-63.96 163.64q-.21-.31-1.17-.02a1.02 1.01-87.5 00-.66.61c-2.16 5.52-1.36 11.63 3.79 15.06 5.11 3.41 11.62 6.84 16.64 1.74 3.36-3.42 1.98-8.59-.34-12.13a.69.68 64.1 00-.79-.28q-.55.2-.88.86-6-8.93-16.59-5.84zm98.76 20.8c-.17 4.92 1.49 8.08 6.57 8.39q2.32.14 3.89-1.03c9.48-7.05-10.04-19.35-10.46-7.36zm-63.52 3.76c-12.46 18.04 31.22 28.42 28.29 9.86-.46-2.88-.99-5.65-3.38-7.6-5.02-4.1-20-9.38-24.91-2.26z"/><path fill="#afafb1" d="M393.21 283.25c1.86 7.87 4.56 20.14 9.08 28.75l-.47.1a.72.71-21.5 01-.75-.32q-2.59-4.1-3.82-8.74c-1.67-6.33-3.6-12.57-5.25-18.91a.72.72 0 01.32-.79q.37-.24.89-.09zM162.54 289.25c-6.55 3.96-10.31 9.04-11.57 16.89-1.36 8.46 1.61 16.82-2.28 24.35a1.18 1.18 0 01-1.42.57q-5.31-1.8-7.9-6.83 2.98 1.47 4.69 4.14a1.42 1.41 83 00.75.59c3.57 1.21 4.71-1.6 4.49-4.6-.99-13.44-1.49-29.17 12.58-36.11a.65.64-20.5 01.91.41q.03.13-.25.59zM239.71 289.75q3.82 22.73 13.96 44.56c3.33 7.16 7.9 9.4 15.89 10.49q22 2.99 43.65-2.3c4.14 4.92-37.22 4.16-40.02 3.97-2.12-.14-5.35-1.13-8.07-1.2-10.66-.26-14.67-13.92-18.5-23.37-1.41-3.47-1.91-7.66-3.42-11.84q-2.33-6.47-4.5-19.49c-.14-.85.19-1 1.01-.82zM442.24 318.87q9.51-2.38 15.45-5.43 7.86-4.04 9.35-13.44.5-.22.51-.82.01-.56.44-.21l.5.41a.8.79-67.1 01.29.73q-.98 7.46-7.4 12.26-8.74 6.53-19.14 6.5z"/><path fill="#afafb1" d="M367.71 301.5c4.7 15.69 11.73 36.8 28.78 42.98q8.95 3.24 22.5 3.4 26.04.31 47.34-14.36 3.31-2.28 5.35-5.71a.46.46 0 01.85.14c7.52 37.55 8.85 75.24-3.66 111.96-1.97 5.81-5.31 11.68-7.98 17.59q-1.86 4.12-4 7.57c-4.43 7.14-8.97 14.62-15.11 20.4-11.74 11.06-32.92 16.99-48.53 19.32q-.33-.1-.24-.63a.98.98 0 01.79-.79c15.49-2.76 30.87-7.3 43.74-16.63 8.76-6.36 11.88-15.69 18.8-23.28 1.74-1.92 1.94-4.26 2.97-6.18 5.05-9.4 7.61-18.66 11.15-28.6 4.78-13.44 5.11-28.33 5.86-42.39.13-2.41-.88-4.5-.65-6.84.83-8.69-.29-14.99-.7-22.69-.5-9.45-1.53-16.85-3.22-25.32a.39.39 0 00-.65-.21c-11.13 10.52-24.56 14.98-39.68 17.14-13.36 1.91-33.37 1.14-44.27-7.42-3.9-3.07-7.08-5.68-9.39-10.36-2.27-4.56-4.77-8.65-6.11-13.71q-.77-2.9-2.39-5.44-.27-.42-.31-.92c-.15-2.15-4.13-7.84-1.98-9.36a.39.38 52.3 01.52.07l.22.27zM305.25 359.46q-21.12 2.15-42.25 0-.1-.27-.02-.57a.69.67 9.3 01.68-.48q9.59.45 19.16 1.19c.85.07 1.87-.37 2.93-.34q8.65.23 17.22-1.12 1.91-.3 2.28 1.32z"/><path fill="#919497" d="M166.16 412.25a1.26 1.22 84.5 01-.86-.73q-.85-2.01 1.01-3.13a1.23 1.23 0 011.87 1.02l.06 2.53a.62.61-83.9 01-.76.62l-1.32-.31z"/><path fill="#1d1c1b" d="M313.96 450.5c11.9 17.49-16.71 14.7-18.16 1.23q-.38-3.56 1.57-7.07 10.59-3.09 16.59 5.84z"/><path fill="#afafb1" d="M297.37 444.66q-1.95 3.51-1.57 7.07c1.45 13.47 30.06 16.26 18.16-1.23q.33-.66.88-.86a.69.68 64.1 01.79.28c2.32 3.54 3.7 8.71.34 12.13-5.02 5.1-11.53 1.67-16.64-1.74-5.15-3.43-5.95-9.54-3.79-15.06a1.02 1.01-87.5 01.66-.61q.96-.29 1.17.02zM402.7 473.85c-5.08-.31-6.74-3.47-6.57-8.39.42-11.99 19.94.31 10.46 7.36q-1.57 1.17-3.89 1.03zm2.97-1.73a6.09 4.8 54.7 00.397-7.744 6.09 4.8 54.7 00-7.436-2.196 6.09 4.8 54.7 00-.398 7.744 6.09 4.8 54.7 007.436 2.196z"/><ellipse fill="#1d1c1b" transform="rotate(54.7 -250.5 622.318)" rx="6.09" ry="4.8"/><path fill="#afafb1" d="M360.9 479.08c2.93 18.56-40.75 8.18-28.29-9.86 4.91-7.12 19.89-1.84 24.91 2.26 2.39 1.95 2.92 4.72 3.38 7.6zm-.946 2.954a14.85 9.61 19.2 00-10.864-13.96 14.85 9.61 19.2 00-17.184 4.192 14.85 9.61 19.2 0010.864 13.96 14.85 9.61 19.2 0017.184-4.192z"/><ellipse fill="#1d1c1b" transform="rotate(19.2 -1237.575 1261.205)" rx="14.85" ry="9.61"/><path fill="#fff" d="M590.29 589.75l.71.31v.94h-1.06l-.19-.71.54-.54z"/><path fill="#fafde2" d="M589.75 590.29l.19.71h-13.5q-3.38-.63-6.75 0H25.19q-5.75-.63-11.5 0h-2.5q-4.88-.63-9.75 0H.69l-.19-.47a.34.34 0 01.32-.47l588.93.23z"/><path fill="#1d1c1b" d="M11.19 591H1.44q4.87-.63 9.75 0zM25.19 591h-11.5q5.75-.63 11.5 0zM576.44 591h-6.75q3.37-.63 6.75 0z"/></svg>