<svg xmlns="http://www.w3.org/2000/svg" viewBox="0 0 591 591"><g stroke-width="2" fill="none"><path stroke="#cbcdcf" vector-effect="non-scaling-stroke" d="M591 2.56q-.28-2.76-.76-1.81"/><path stroke="#4c4e4f" vector-effect="non-scaling-stroke" d="M590.24.75q-1.47.03-2.24.03Q294 .97 0 .94"/><path stroke="#cbcdcf" vector-effect="non-scaling-stroke" d="M8.19 591q-2.38-.63-4.75 0"/><path stroke="gray" vector-effect="non-scaling-stroke" d="M0 589.94q4.12.14 8.25.15 290.72.16 581.33.16a.68.67 90 00.67-.68L590.24.75"/><path stroke="#7e7f70" vector-effect="non-scaling-stroke" d="M585.5 5.52a.26.26 0 00-.26-.26H5.5a.26.26 0 00-.26.26v579.72a.26.26 0 00.26.26h579.74a.26.26 0 00.26-.26V5.52"/><path stroke="#fbf1c6" vector-effect="non-scaling-stroke" d="M101.41 40.93q-1.75-.5-2.66-.51-19.24-.19-38.48-.15c-12.9.03-23.25 5.91-23.15 19.8q.15 21.68.21 43.26a.98.97-21.9 001.65.7q31.94-30.31 62.79-61.76a.81.81 0 00-.36-1.34"/><path stroke="#c9ccbf" vector-effect="non-scaling-stroke" d="M246.04 72.91a1.9.79.3 00-1.896-.8 1.9.79.3 00-1.904.78 1.9.79.3 001.896.8 1.9.79.3 001.904-.78"/><path stroke="#8f9080" vector-effect="non-scaling-stroke" d="M375.31 365.88c2.74.44 5.6 2.3 7.99-.1 2.72-2.73 5.86-8.02 5.82-12.37q-.1-12.46 1.42-24.88.06-.52.44-.16c1.36 1.27 1.61 3.17 2.97 4.17 2.18 1.6 5.51.74 5.84-2.29q1.89-17.32 2.46-34.74c.04-1.1-.13-1.62.6-2.59 15.02-20.12 21.5-51.6 17.7-75.82q-7.77-49.56-49.06-77.12c-28.67-19.14-66.59-22.72-98.68-10.49-64.31 24.51-91.7 100.81-55.43 160.59 3.27 5.39 7.06 9.03 9.07 15.32 8.16 25.65 17.14 51 25.37 76.62 11.38 35.38 23.82 69.77 35.12 105.84 5.02 16.04 11.12 32.19 18.79 56.06 1.02 3.16 2.35 6.14 3.72 9.09q.2.45.34-.03c3.39-11.65 8.68-24.17 11.97-34.12 16.96-51.24 35.53-101.64 52.89-152.58a.6.6 0 01.66-.4"/><path stroke="#c9ccbf" vector-effect="non-scaling-stroke" d="M54.264 359.752a1.39.64 62.4 00-.077-1.529 1.39.64 62.4 00-1.211-.935 1.39.64 62.4 00.077 1.529 1.39.64 62.4 001.211.935"/><path stroke="#8f9080" vector-effect="non-scaling-stroke" d="M374.01 414.97c8.87 4.44 7.59-7.56 5.26-11.61a2.2 2.19 63.6 00-2.75-.93c-2.99 1.26-4.13 7.97-3.86 10.6a2.45 2.45 0 001.35 1.94"/><path stroke="#5d5f5f" vector-effect="non-scaling-stroke" d="M347.67 140.78l-.15.66a.46.46 0 00.82.38l.38-.49a.48.48 0 00-.22-.74l-.29-.11a.41.41 0 00-.54.3M234.83 185.3c.5 4.76 4.51 9.79 9.19 10.27 15.37 1.59 24.54-7.86 31.55-20 3.5-6.05 6.41-20.2-3.33-22.58q-16.66-4.07-27.87 9.14c-5.96 7.02-10.55 13.38-9.54 23.17"/><path stroke="#111110" vector-effect="non-scaling-stroke" d="M374.46 248.25q.56.69 1.57.61a1.11 1.09-73.9 00.8-.45c1.81-2.61 4.03-4.82 5.51-7.47 3.44-6.2 6.81-12.5 7.47-19.62 1.09-11.83.75-23.96-5.91-34.23q-.83-1.27-1.69-.59"/><path stroke="#919190" vector-effect="non-scaling-stroke" d="M382.21 186.5c-17.16-29.5-56.39-37.64-82.14-13.86-18.27 16.87-22.91 43.05-10.07 65.06 18.04 30.95 59.3 35.87 84.46 10.55"/><path stroke="gray" vector-effect="non-scaling-stroke" d="M382.21 186.5c10.86 20.12 8.29 44.76-7.75 61.75"/><path stroke="#5d5f5f" vector-effect="non-scaling-stroke" d="M229.39 222.543a8.41 7.14 123 0010.568-3.164 8.41 7.14 123 00-1.408-10.942 8.41 7.14 123 00-10.568 3.164 8.41 7.14 123 001.408 10.942"/><path stroke="#919190" vector-effect="non-scaling-stroke" d="M257.85 350.78q-12.99-17.3-21.29-37.27-.5-1.22-2.33-1.45a.35.34 84.6 00-.37.45l15.32 45.11a.61.61 0 00.96.28l7.6-6.19a.68.68 0 00.11-.93M270.68 335.02q-13.12-5.27-24.53-13.61a.46.46 0 00-.69.58q6.53 13.3 15.85 24.85a.44.43-41.7 00.65.03q5.14-5.14 8.88-11.37a.34.33 26.9 00-.16-.48"/><path stroke="#5d5f5f" vector-effect="non-scaling-stroke" d="M353.79 358.91l16.08 3.98a.7.69-70.8 00.81-.4c.93-2.1 1.86-4.2 1.95-6.57q.61-15.27 1.24-31.49.07-1.68-1.33-.75c-2.17 1.46-7.48 3.94-8.47 6.86q-4.66 13.86-10.98 26.89a1.06 1.05 19.7 00.7 1.48"/><path stroke="#919190" vector-effect="non-scaling-stroke" d="M325.21 341.5l-3.64.4q-.6.06-.22.53 1.58 1.99 3.9 3.11"/><path stroke="#5d5f5f" vector-effect="non-scaling-stroke" d="M325.25 345.54q10.64 6.75 22.52 11.17a.58.58 0 00.71-.27c4.15-7.85 6.8-15.85 9.75-24.28q.17-.47-.28-.25-15.53 7.68-32.74 9.59"/><path stroke="#cbcdcf" vector-effect="non-scaling-stroke" d="M325.25 345.54q.49-2.03-.04-4.04"/><path stroke="#919190" vector-effect="non-scaling-stroke" d="M265.02 351.46c6.79 8.7 15.31 16.69 23.56 23.02a.57.57 0 00.75-.04q8.5-8.25 15.6-17.72c2.97-3.95 5.63-8.91 8.57-13.39q.28-.41-.22-.44c-9.36-.53-18.14-.86-27.24-3.3a.53.53 0 00-.64.34c-2.53 7.38-5.64 1.55-6.74-1.95a1.01 1.01 0 00-.62-.65q-2.03-.78-3 .68-4.5 6.78-9.99 12.77a.53.53 0 00-.03.68"/><path stroke="#5d5f5f" vector-effect="non-scaling-stroke" d="M321.75 391.79q.92.69 2.06.79a1 .98-67.2 00.83-.35q10.5-12.66 19.14-27.68 1.18-2.05 1.74-3.69a.54.54 0 00-.29-.67L324.79 351"/><path stroke="#919190" vector-effect="non-scaling-stroke" d="M324.79 351l-6.9-4.98a.5.49 34.2 00-.71.13q-10.79 16.67-24.43 31.08a.5.5 0 00.09.77q13.54 9.01 28.91 13.79"/><path stroke="#cbcdcf" vector-effect="non-scaling-stroke" d="M324.79 351l-3.04 40.79"/><path stroke="#919190" vector-effect="non-scaling-stroke" d="M284.84 377.18c-1.09-1.9-7.56-5.95-9.48-7.82q-7.04-6.91-13.96-14.12a.55.55 0 00-.73-.05l-9.15 6.87a.98.98 0 00-.39.8q0 1.22.55 2.96c3.04 9.65 5.22 18.51 10.55 25.54a.88.86 67.2 00.81.34c5.62-.78 16.17-9.06 21.41-12.76a1.34 1.33-32.8 00.39-1.76"/><path stroke="#5d5f5f" vector-effect="non-scaling-stroke" d="M329.52 394.31q12.99 4.71 26.71 6.33a.7.69 15.8 00.71-.39c4.91-10.53 8.38-22.12 12.19-33.09a.38.37-73.1 00-.26-.49l-17.29-4.31a1.49 1.49 0 00-1.67.73q-8.75 16.05-20.75 29.85a.86.86 0 00.36 1.37"/><path stroke="#919190" vector-effect="non-scaling-stroke" d="M266.31 395.46c7.23 8.1 18.13 18.58 27.71 22.9a.85.84 38.7 00.86-.09c5.44-3.99 10.51-7.35 15.52-12.42 2.96-2.99 6.9-5.37 9.33-8.76a.41.4 26.5 00-.21-.62q-16.73-5.38-30.51-16.2a.4.4 0 00-.48 0q-10.48 8.12-22.1 14.5a.45.45 0 00-.12.69M288.62 421.17q-13.77-10.02-25.67-22.25a.29.29 0 00-.48.3l10.9 30.43a.35.34-20.7 00.45.2q7.98-3.25 14.8-8.5a.11.11 0 000-.18M320.75 403.21q-5.38 4.27-10.55 8.77c-3.6 3.13-7.95 5.7-11.79 8.87a.36.36 0 00.04.58q9.4 5.78 19.89 9.7"/><path stroke="#5d5f5f" vector-effect="non-scaling-stroke" d="M318.34 431.13l8.71 3.47a.84.83-53.3 00.85-.13c10.34-8.51 19.78-17.28 26.6-28.95a.34.33 18.9 00-.25-.5q-14.13-2.01-27.68-6.44a1.91 1.89 30.4 00-1.97.5l-3.85 4.13"/><path stroke="#cbcdcf" vector-effect="non-scaling-stroke" d="M318.34 431.13q.84-6.29.91-7.88c.22-5.45-.05-14.7 2.1-19.59a.29.29 0 00-.24-.41l-.36-.04"/><path stroke="#5d5f5f" vector-effect="non-scaling-stroke" d="M332.9 436.48l10.39 2.61a.69.68-73 00.82-.44l6.61-18.96a.39.39 0 00-.66-.39q-7.11 7.87-15.32 14.46-1.28 1.03-2.07 2.11a.4.39 24.7 00.23.61"/><path stroke="#919190" vector-effect="non-scaling-stroke" d="M289.18 454.74a1.73 1.72 59.6 001.83.48c5.07-1.69 9.54-4.53 14.63-6.79q2.8-1.24 5.27-3.03c2.74-1.99 6.12-3.48 8.66-6.04q.39-.39.9-.57l.78-.27a.26.26 0 00.02-.48q-13.92-5.92-27.04-13.43a.88.87-44 00-.83-.01l-18.21 9.76a.33.33 0 00-.14.45q5.87 10.81 14.13 19.93M294.34 459.15q12.54 9.82 26.63 14.58 2.37.8 3.78.98a1.37 1.36-58.3 00.92-.22c10.19-7 12.42-18.92 16.24-30.24a.6.6 0 00-.45-.78q-6.57-1.22-12.81-3.73a.99.98-50.9 00-.93.1q-4.61 3.2-9.34 6.26c-2.39 1.55-5.31 2.38-7.88 4.01-5.51 3.5-10.56 6.01-16.11 8.61a.26.25-38.8 00-.05.43M283.6 458.06l1.61-.89a.53.53 0 00.13-.82l-4.26-4.73q-.71-.79-.4.22l1.76 5.75a.81.81 0 001.16.47"/><path stroke="#5d5f5f" vector-effect="non-scaling-stroke" d="M314.75 481.21q2.74-.57 4.99-2.35a.61.6-57.8 00-.24-1.06l-4.46-1.05"/><path stroke="#919190" vector-effect="non-scaling-stroke" d="M315.04 476.75q-13.59-7.05-26.09-15.89a1.1 1.09 53.2 00-.99-.15l-3.37 1.12a.64.63-16.6 00-.42.76q3.41 13.01 8.57 25.43a.61.61 0 00.66.36q11.3-1.87 21.35-7.17"/><path stroke="#cbcdcf" vector-effect="non-scaling-stroke" d="M315.04 476.75q-.72 2.21-.29 4.46"/><path stroke="#919190" vector-effect="non-scaling-stroke" d="M313.35 486.4q-8.53 4.12-17.55 5.82a.3.3 0 00-.17.48q7.12 8.43 17.26 12.34"/><path stroke="#5d5f5f" vector-effect="non-scaling-stroke" d="M312.89 505.04l6.67 2.17a.65.64 23.8 00.76-.29c.84-1.4 1.19-3.65 1.6-4.72q3.63-9.78 6.83-19.77a1.49 1.49 0 00-1.43-1.95c-4.64.04-9.31 4.58-13.97 5.92"/><path stroke="#cbcdcf" vector-effect="non-scaling-stroke" d="M312.89 505.04q-.37-9.31.46-18.64"/><path stroke="#919190" vector-effect="non-scaling-stroke" d="M302.79 517.39q5.88-1.04 10.01-5.37.38-.4.89-.61l1.13-.48q.72-.3-.01-.58-9.74-3.8-17.83-10.38a.25.25 0 00-.39.28l5.55 16.75a.58.57-13.7 00.65.39M312.25 517.71q-4.06 2.1-8.37 3a.68.67 73.7 00-.49.9l5.97 16.1a.47.47 0 00.9-.08l1.03-6.38"/><path stroke="#5d5f5f" vector-effect="non-scaling-stroke" d="M311.29 531.25c1.54-2.87 1.94-6.08 3.25-8.83q1.69-3.6 2.99-7.44.16-.47-.27-.22l-5.01 2.95"/><path stroke="#cbcdcf" vector-effect="non-scaling-stroke" d="M311.29 531.25q-1.32-6.94.96-13.54"/><path stroke="#919190" vector-effect="non-scaling-stroke" d="M327.62 210.78a.41.41 0 01.04.74q-9.65 5.2-8.15 16.31c2.89 21.31 42.36 15.73 39.85-6.28-.91-7.95-5.49-10.38-12.17-13.43a.29.29 0 01-.06-.5c8.68-6.47 9.69-19.43-.87-24.48-10.51-5.01-25.24-.75-28.57 11.04-2.09 7.39 3.25 14.02 9.93 16.6"/><path stroke="#919190" vector-effect="non-scaling-stroke" d="M343.26 197.81a7.38 7.38 0 00-7.38-7.38 7.38 7.38 0 00-7.38 7.38 7.38 7.38 0 007.38 7.38 7.38 7.38 0 007.38-7.38M347.727 221.358a8.94 8.67-13.4 00-10.706-6.362 8.94 8.67-13.4 00-6.688 10.506 8.94 8.67-13.4 0010.706 6.362 8.94 8.67-13.4 006.688-10.506"/><path stroke="#cbcdcf" vector-effect="non-scaling-stroke" d="M326.98 441.79c-2.03 1.62-8.91 4.69-9.24 6.96q-1.53 10.7-2.08 21.95a.75.75 0 00.98.75l.52-.16a1.05 1.04 53.8 01.93.15c12.89 9.31 19.81-19.06 22.24-26.51a.48.48 0 00-.4-.63q-2.34-.28-4.64-.78c-2.48-.54-5.72-3.78-8.31-1.73"/></g><path fill="#979b9e" d="M0 0h591v2.56q-.28-2.76-.76-1.81-1.47.03-2.24.03Q294 .97 0 .94V0z"/><path fill="#fff" d="M591 2.56V591H8.19q-2.38-.63-4.75 0H0v-1.06q4.12.14 8.25.15 290.72.16 581.33.16a.68.67 90 00.67-.68L590.24.75q.48-.95.76 1.81z"/><path d="M590.24.75l.01 588.82a.68.67-90 01-.67.68q-290.61 0-581.33-.16-4.13-.01-8.25-.15V.94q294 .03 588-.16.77 0 2.24-.03zm-4.74 4.77a.26.26 0 00-.26-.26H5.5a.26.26 0 00-.26.26v579.72a.26.26 0 00.26.26h579.74a.26.26 0 00.26-.26V5.52z"/><path fill="#fbfde0" d="M585.5 585.24a.26.26 0 01-.26.26H5.5a.26.26 0 01-.26-.26V5.52a.26.26 0 01.26-.26h579.74a.26.26 0 01.26.26v579.72zM101.41 40.93q-1.75-.5-2.66-.51-19.24-.19-38.48-.15c-12.9.03-23.25 5.91-23.15 19.8q.15 21.68.21 43.26a.98.97-21.9 001.65.7q31.94-30.31 62.79-61.76a.81.81 0 00-.36-1.34zm144.63 31.98a1.9.79.3 00-1.896-.8 1.9.79.3 00-1.904.78 1.9.79.3 001.896.8 1.9.79.3 001.904-.78zm129.27 292.97c2.74.44 5.6 2.3 7.99-.1 2.72-2.73 5.86-8.02 5.82-12.37q-.1-12.46 1.42-24.88.06-.52.44-.16c1.36 1.27 1.61 3.17 2.97 4.17 2.18 1.6 5.51.74 5.84-2.29q1.89-17.32 2.46-34.74c.04-1.1-.13-1.62.6-2.59 15.02-20.12 21.5-51.6 17.7-75.82q-7.77-49.56-49.06-77.12c-28.67-19.14-66.59-22.72-98.68-10.49-64.31 24.51-91.7 100.81-55.43 160.59 3.27 5.39 7.06 9.03 9.07 15.32 8.16 25.65 17.14 51 25.37 76.62 11.38 35.38 23.82 69.77 35.12 105.84 5.02 16.04 11.12 32.19 18.79 56.06 1.02 3.16 2.35 6.14 3.72 9.09q.2.45.34-.03c3.39-11.65 8.68-24.17 11.97-34.12 16.96-51.24 35.53-101.64 52.89-152.58a.6.6 0 01.66-.4zm-321.046-6.128a1.39.64 62.4 00-.077-1.529 1.39.64 62.4 00-1.211-.935 1.39.64 62.4 00.077 1.529 1.39.64 62.4 001.211.935zM374.01 414.97c8.87 4.44 7.59-7.56 5.26-11.61a2.2 2.19 63.6 00-2.75-.93c-2.99 1.26-4.13 7.97-3.86 10.6a2.45 2.45 0 001.35 1.94z"/><path fill="#fbe5ab" d="M101.41 40.93a.81.81 0 01.36 1.34q-30.85 31.45-62.79 61.76a.98.97-21.9 01-1.65-.7q-.06-21.58-.21-43.26c-.1-13.89 10.25-19.77 23.15-19.8q19.24-.04 38.48.15.91.01 2.66.51z"/><ellipse fill="#979b9e" transform="rotate(.3 -13800.773 46663.649)" rx="1.9" ry=".79"/><path fill="#222220" d="M374.65 366.28c-17.36 50.94-35.93 101.34-52.89 152.58-3.29 9.95-8.58 22.47-11.97 34.12q-.14.48-.34.03c-1.37-2.95-2.7-5.93-3.72-9.09-7.67-23.87-13.77-40.02-18.79-56.06-11.3-36.07-23.74-70.46-35.12-105.84-8.23-25.62-17.21-50.97-25.37-76.62-2.01-6.29-5.8-9.93-9.07-15.32-36.27-59.78-8.88-136.08 55.43-160.59 32.09-12.23 70.01-8.65 98.68 10.49q41.29 27.56 49.06 77.12c3.8 24.22-2.68 55.7-17.7 75.82-.73.97-.56 1.49-.6 2.59q-.57 17.42-2.46 34.74c-.33 3.03-3.66 3.89-5.84 2.29-1.36-1-1.61-2.9-2.97-4.17q-.38-.36-.44.16-1.52 12.42-1.42 24.88c.04 4.35-3.1 9.64-5.82 12.37-2.39 2.4-5.25.54-7.99.1a.6.6 0 00-.66.4zm-26.98-225.5l-.15.66a.46.46 0 00.82.38l.38-.49a.48.48 0 00-.22-.74l-.29-.11a.41.41 0 00-.54.3zM234.83 185.3c.5 4.76 4.51 9.79 9.19 10.27 15.37 1.59 24.54-7.86 31.55-20 3.5-6.05 6.41-20.2-3.33-22.58q-16.66-4.07-27.87 9.14c-5.96 7.02-10.55 13.38-9.54 23.17zm139.63 62.95q.56.69 1.57.61a1.11 1.09-73.9 00.8-.45c1.81-2.61 4.03-4.82 5.51-7.47 3.44-6.2 6.81-12.5 7.47-19.62 1.09-11.83.75-23.96-5.91-34.23q-.83-1.27-1.69-.59c-17.16-29.5-56.39-37.64-82.14-13.86-18.27 16.87-22.91 43.05-10.07 65.06 18.04 30.95 59.3 35.87 84.46 10.55zm-145.07-25.707a8.41 7.14 123 0010.568-3.164 8.41 7.14 123 00-1.408-10.942 8.41 7.14 123 00-10.568 3.164 8.41 7.14 123 001.408 10.942zm28.46 128.237q-12.99-17.3-21.29-37.27-.5-1.22-2.33-1.45a.35.34 84.6 00-.37.45l15.32 45.11a.61.61 0 00.96.28l7.6-6.19a.68.68 0 00.11-.93zm12.83-15.76q-13.12-5.27-24.53-13.61a.46.46 0 00-.69.58q6.53 13.3 15.85 24.85a.44.43-41.7 00.65.03q5.14-5.14 8.88-11.37a.34.33 26.9 00-.16-.48zm83.11 23.89l16.08 3.98a.7.69-70.8 00.81-.4c.93-2.1 1.86-4.2 1.95-6.57q.61-15.27 1.24-31.49.07-1.68-1.33-.75c-2.17 1.46-7.48 3.94-8.47 6.86q-4.66 13.86-10.98 26.89a1.06 1.05 19.7 00.7 1.48zm-28.58-17.41l-3.64.4q-.6.06-.22.53 1.58 1.99 3.9 3.11 10.64 6.75 22.52 11.17a.58.58 0 00.71-.27c4.15-7.85 6.8-15.85 9.75-24.28q.17-.47-.28-.25-15.53 7.68-32.74 9.59zm-60.19 9.96c6.79 8.7 15.31 16.69 23.56 23.02a.57.57 0 00.75-.04q8.5-8.25 15.6-17.72c2.97-3.95 5.63-8.91 8.57-13.39q.28-.41-.22-.44c-9.36-.53-18.14-.86-27.24-3.3a.53.53 0 00-.64.34c-2.53 7.38-5.64 1.55-6.74-1.95a1.01 1.01 0 00-.62-.65q-2.03-.78-3 .68-4.5 6.78-9.99 12.77a.53.53 0 00-.03.68zm56.73 40.33q.92.69 2.06.79a1 .98-67.2 00.83-.35q10.5-12.66 19.14-27.68 1.18-2.05 1.74-3.69a.54.54 0 00-.29-.67L324.79 351l-6.9-4.98a.5.49 34.2 00-.71.13q-10.79 16.67-24.43 31.08a.5.5 0 00.09.77q13.54 9.01 28.91 13.79zm-36.91-14.61c-1.09-1.9-7.56-5.95-9.48-7.82q-7.04-6.91-13.96-14.12a.55.55 0 00-.73-.05l-9.15 6.87a.98.98 0 00-.39.8q0 1.22.55 2.96c3.04 9.65 5.22 18.51 10.55 25.54a.88.86 67.2 00.81.34c5.62-.78 16.17-9.06 21.41-12.76a1.34 1.33-32.8 00.39-1.76zm44.68 17.13q12.99 4.71 26.71 6.33a.7.69 15.8 00.71-.39c4.91-10.53 8.38-22.12 12.19-33.09a.38.37-73.1 00-.26-.49l-17.29-4.31a1.49 1.49 0 00-1.67.73q-8.75 16.05-20.75 29.85a.86.86 0 00.36 1.37zm-63.21 1.15c7.23 8.1 18.13 18.58 27.71 22.9a.85.84 38.7 00.86-.09c5.44-3.99 10.51-7.35 15.52-12.42 2.96-2.99 6.9-5.37 9.33-8.76a.41.4 26.5 00-.21-.62q-16.73-5.38-30.51-16.2a.4.4 0 00-.48 0q-10.48 8.12-22.1 14.5a.45.45 0 00-.12.69zm22.31 25.71q-13.77-10.02-25.67-22.25a.29.29 0 00-.48.3l10.9 30.43a.35.34-20.7 00.45.2q7.98-3.25 14.8-8.5a.11.11 0 000-.18zm32.13-17.96q-5.38 4.27-10.55 8.77c-3.6 3.13-7.95 5.7-11.79 8.87a.36.36 0 00.04.58q9.4 5.78 19.89 9.7l8.71 3.47a.84.83-53.3 00.85-.13c10.34-8.51 19.78-17.28 26.6-28.95a.34.33 18.9 00-.25-.5q-14.13-2.01-27.68-6.44a1.91 1.89 30.4 00-1.97.5l-3.85 4.13zm12.15 33.27l10.39 2.61a.69.68-73 00.82-.44l6.61-18.96a.39.39 0 00-.66-.39q-7.11 7.87-15.32 14.46-1.28 1.03-2.07 2.11a.4.39 24.7 00.23.61zm-43.72 18.26a1.73 1.72 59.6 001.83.48c5.07-1.69 9.54-4.53 14.63-6.79q2.8-1.24 5.27-3.03c2.74-1.99 6.12-3.48 8.66-6.04q.39-.39.9-.57l.78-.27a.26.26 0 00.02-.48q-13.92-5.92-27.04-13.43a.88.87-44 00-.83-.01l-18.21 9.76a.33.33 0 00-.14.45q5.87 10.81 14.13 19.93zm5.16 4.41q12.54 9.82 26.63 14.58 2.37.8 3.78.98a1.37 1.36-58.3 00.92-.22c10.19-7 12.42-18.92 16.24-30.24a.6.6 0 00-.45-.78q-6.57-1.22-12.81-3.73a.99.98-50.9 00-.93.1q-4.61 3.2-9.34 6.26c-2.39 1.55-5.31 2.38-7.88 4.01-5.51 3.5-10.56 6.01-16.11 8.61a.26.25-38.8 00-.05.43zm-10.74-1.09l1.61-.89a.53.53 0 00.13-.82l-4.26-4.73q-.71-.79-.4.22l1.76 5.75a.81.81 0 001.16.47zm31.15 23.15q2.74-.57 4.99-2.35a.61.6-57.8 00-.24-1.06l-4.46-1.05q-13.59-7.05-26.09-15.89a1.1 1.09 53.2 00-.99-.15l-3.37 1.12a.64.63-16.6 00-.42.76q3.41 13.01 8.57 25.43a.61.61 0 00.66.36q11.3-1.87 21.35-7.17zm-1.4 5.19q-8.53 4.12-17.55 5.82a.3.3 0 00-.17.48q7.12 8.43 17.26 12.34l6.67 2.17a.65.64 23.8 00.76-.29c.84-1.4 1.19-3.65 1.6-4.72q3.63-9.78 6.83-19.77a1.49 1.49 0 00-1.43-1.95c-4.64.04-9.31 4.58-13.97 5.92zm-10.56 30.99q5.88-1.04 10.01-5.37.38-.4.89-.61l1.13-.48q.72-.3-.01-.58-9.74-3.8-17.83-10.38a.25.25 0 00-.39.28l5.55 16.75a.58.57-13.7 00.65.39zm9.46.32q-4.06 2.1-8.37 3a.68.67 73.7 00-.49.9l5.97 16.1a.47.47 0 00.9-.08l1.03-6.38c1.54-2.87 1.94-6.08 3.25-8.83q1.69-3.6 2.99-7.44.16-.47-.27-.22l-5.01 2.95z"/><path fill="#979b9e" d="M348.21 140.48l.29.11a.48.48 0 01.22.74l-.38.49a.46.46 0 01-.82-.38l.15-.66a.41.41 0 01.54-.3zM244.02 195.57c-4.68-.48-8.69-5.51-9.19-10.27-1.01-9.79 3.58-16.15 9.54-23.17q11.21-13.21 27.87-9.14c9.74 2.38 6.83 16.53 3.33 22.58-7.01 12.14-16.18 21.59-31.55 20z"/><path fill="#fff" d="M382.21 186.5c10.86 20.12 8.29 44.76-7.75 61.75-25.16 25.32-66.42 20.4-84.46-10.55-12.84-22.01-8.2-48.19 10.07-65.06 25.75-23.78 64.98-15.64 82.14 13.86zm-54.59 24.28a.41.41 0 01.04.74q-9.65 5.2-8.15 16.31c2.89 21.31 42.36 15.73 39.85-6.28-.91-7.95-5.49-10.38-12.17-13.43a.29.29 0 01-.06-.5c8.68-6.47 9.69-19.43-.87-24.48-10.51-5.01-25.24-.75-28.57 11.04-2.09 7.39 3.25 14.02 9.93 16.6z"/><path fill="#222220" d="M327.62 210.78c-6.68-2.58-12.02-9.21-9.93-16.6 3.33-11.79 18.06-16.05 28.57-11.04 10.56 5.05 9.55 18.01.87 24.48a.29.29 0 00.06.5c6.68 3.05 11.26 5.48 12.17 13.43 2.51 22.01-36.96 27.59-39.85 6.28q-1.5-11.11 8.15-16.31a.41.41 0 00-.04-.74zm15.64-12.97a7.38 7.38 0 00-7.38-7.38 7.38 7.38 0 00-7.38 7.38 7.38 7.38 0 007.38 7.38 7.38 7.38 0 007.38-7.38zm4.467 23.548a8.94 8.67-13.4 00-10.706-6.362 8.94 8.67-13.4 00-6.688 10.506 8.94 8.67-13.4 0010.706 6.362 8.94 8.67-13.4 006.688-10.506z"/><path d="M374.46 248.25c16.04-16.99 18.61-41.63 7.75-61.75q.86-.68 1.69.59c6.66 10.27 7 22.4 5.91 34.23-.66 7.12-4.03 13.42-7.47 19.62-1.48 2.65-3.7 4.86-5.51 7.47a1.11 1.09-73.9 01-.8.45q-1.01.08-1.57-.61z"/><circle fill="#fff" cx="335.88" cy="197.81" r="7.38"/><ellipse fill="#979b9e" transform="rotate(123 58.484 171.263)" rx="8.41" ry="7.14"/><ellipse fill="#fff" transform="rotate(-13.4 1120.5 -1331.297)" rx="8.94" ry="8.67"/><path fill="#fff" d="M257.74 351.71l-7.6 6.19a.61.61 0 01-.96-.28l-15.32-45.11a.35.34 84.6 01.37-.45q1.83.23 2.33 1.45 8.3 19.97 21.29 37.27a.68.68 0 01-.11.93zM270.68 335.02a.34.33 26.9 01.16.48q-3.74 6.23-8.88 11.37a.44.43-41.7 01-.65-.03q-9.32-11.55-15.85-24.85a.46.46 0 01.69-.58q11.41 8.34 24.53 13.61z"/><path fill="#979b9e" d="M353.79 358.91a1.06 1.05 19.7 01-.7-1.48q6.32-13.03 10.98-26.89c.99-2.92 6.3-5.4 8.47-6.86q1.4-.93 1.33.75-.63 16.22-1.24 31.49c-.09 2.37-1.02 4.47-1.95 6.57a.7.69-70.8 01-.81.4l-16.08-3.98zM325.25 345.54q.49-2.03-.04-4.04 17.21-1.91 32.74-9.59.45-.22.28.25c-2.95 8.43-5.6 16.43-9.75 24.28a.58.58 0 01-.71.27q-11.88-4.42-22.52-11.17z"/><path fill="#fff" d="M288.58 374.48c-8.25-6.33-16.77-14.32-23.56-23.02a.53.53 0 01.03-.68q5.49-5.99 9.99-12.77.97-1.46 3-.68a1.01 1.01 0 01.62.65c1.1 3.5 4.21 9.33 6.74 1.95a.53.53 0 01.64-.34c9.1 2.44 17.88 2.77 27.24 3.3q.5.03.22.44c-2.94 4.48-5.6 9.44-8.57 13.39q-7.1 9.47-15.6 17.72a.57.57 0 01-.75.04zM325.21 341.5q.53 2.01.04 4.04-2.32-1.12-3.9-3.11-.38-.47.22-.53l3.64-.4zM324.79 351l-3.04 40.79q-15.37-4.78-28.91-13.79a.5.5 0 01-.09-.77q13.64-14.41 24.43-31.08a.5.49 34.2 01.71-.13l6.9 4.98z"/><path fill="#979b9e" d="M324.79 351l20.44 9.19a.54.54 0 01.29.67q-.56 1.64-1.74 3.69-8.64 15.02-19.14 27.68a1 .98-67.2 01-.83.35q-1.14-.1-2.06-.79l3.04-40.79z"/><path fill="#fff" d="M275.36 369.36c1.92 1.87 8.39 5.92 9.48 7.82a1.34 1.33-32.8 01-.39 1.76c-5.24 3.7-15.79 11.98-21.41 12.76a.88.86 67.2 01-.81-.34c-5.33-7.03-7.51-15.89-10.55-25.54q-.55-1.74-.55-2.96a.98.98 0 01.39-.8l9.15-6.87a.55.55 0 01.73.05q6.92 7.21 13.96 14.12z"/><ellipse fill="#979b9e" transform="rotate(62.4 -269.183 223.529)" rx="1.39" ry=".64"/><path fill="#979b9e" d="M329.52 394.31a.86.86 0 01-.36-1.37q12-13.8 20.75-29.85a1.49 1.49 0 011.67-.73l17.29 4.31a.38.37-73.1 01.26.49c-3.81 10.97-7.28 22.56-12.19 33.09a.7.69 15.8 01-.71.39q-13.72-1.62-26.71-6.33z"/><path fill="#fff" d="M294.02 418.36c-9.58-4.32-20.48-14.8-27.71-22.9a.45.45 0 01.12-.69q11.62-6.38 22.1-14.5a.4.4 0 01.48 0q13.78 10.82 30.51 16.2a.41.4 26.5 01.21.62c-2.43 3.39-6.37 5.77-9.33 8.76-5.01 5.07-10.08 8.43-15.52 12.42a.85.84 38.7 01-.86.09zM288.62 421.17a.11.11 0 010 .18q-6.82 5.25-14.8 8.5a.35.34-20.7 01-.45-.2l-10.9-30.43a.29.29 0 01.48-.3q11.9 12.23 25.67 22.25z"/><path fill="#979b9e" d="M318.34 431.13q.84-6.29.91-7.88c.22-5.45-.05-14.7 2.1-19.59a.29.29 0 00-.24-.41l-.36-.04 3.85-4.13a1.91 1.89 30.4 011.97-.5q13.55 4.43 27.68 6.44a.34.33 18.9 01.25.5c-6.82 11.67-16.26 20.44-26.6 28.95a.84.83-53.3 01-.85.13l-8.71-3.47z"/><path fill="#222220" d="M374.01 414.97a2.45 2.45 0 01-1.35-1.94c-.27-2.63.87-9.34 3.86-10.6a2.2 2.19 63.6 012.75.93c2.33 4.05 3.61 16.05-5.26 11.61z"/><path fill="#fff" d="M320.75 403.21l.36.04a.29.29 0 01.24.41c-2.15 4.89-1.88 14.14-2.1 19.59q-.07 1.59-.91 7.88-10.49-3.92-19.89-9.7a.36.36 0 01-.04-.58c3.84-3.17 8.19-5.74 11.79-8.87q5.17-4.5 10.55-8.77z"/><path fill="#979b9e" d="M332.9 436.48a.4.39 24.7 01-.23-.61q.79-1.08 2.07-2.11 8.21-6.59 15.32-14.46a.39.39 0 01.66.39l-6.61 18.96a.69.68-73 01-.82.44l-10.39-2.61z"/><path fill="#fff" d="M289.18 454.74q-8.26-9.12-14.13-19.93a.33.33 0 01.14-.45l18.21-9.76a.88.87-44 01.83.01q13.12 7.51 27.04 13.43a.26.26 0 01-.02.48l-.78.27q-.51.18-.9.57c-2.54 2.56-5.92 4.05-8.66 6.04q-2.47 1.79-5.27 3.03c-5.09 2.26-9.56 5.1-14.63 6.79a1.73 1.72 59.6 01-1.83-.48zM294.34 459.15a.26.25-38.8 01.05-.43c5.55-2.6 10.6-5.11 16.11-8.61 2.57-1.63 5.49-2.46 7.88-4.01q4.73-3.06 9.34-6.26a.99.98-50.9 01.93-.1q6.24 2.51 12.81 3.73a.6.6 0 01.45.78c-3.82 11.32-6.05 23.24-16.24 30.24a1.37 1.36-58.3 01-.92.22q-1.41-.18-3.78-.98-14.09-4.76-26.63-14.58zm32.64-17.36c-2.03 1.62-8.91 4.69-9.24 6.96q-1.53 10.7-2.08 21.95a.75.75 0 00.98.75l.52-.16a1.05 1.04 53.8 01.93.15c12.89 9.31 19.81-19.06 22.24-26.51a.48.48 0 00-.4-.63q-2.34-.28-4.64-.78c-2.48-.54-5.72-3.78-8.31-1.73z"/><path fill="#979b9e" d="M326.98 441.79c2.59-2.05 5.83 1.19 8.31 1.73q2.3.5 4.64.78a.48.48 0 01.4.63c-2.43 7.45-9.35 35.82-22.24 26.51a1.05 1.04 53.8 00-.93-.15l-.52.16a.75.75 0 01-.98-.75q.55-11.25 2.08-21.95c.33-2.27 7.21-5.34 9.24-6.96z"/><path fill="#fff" d="M283.6 458.06a.81.81 0 01-1.16-.47l-1.76-5.75q-.31-1.01.4-.22l4.26 4.73a.53.53 0 01-.13.82l-1.61.89zM315.04 476.75q-.72 2.21-.29 4.46-10.05 5.3-21.35 7.17a.61.61 0 01-.66-.36q-5.16-12.42-8.57-25.43a.64.63-16.6 01.42-.76l3.37-1.12a1.1 1.09 53.2 01.99.15q12.5 8.84 26.09 15.89z"/><path fill="#979b9e" d="M315.04 476.75l4.46 1.05a.61.6-57.8 01.24 1.06q-2.25 1.78-4.99 2.35-.43-2.25.29-4.46zM312.89 505.04q-.37-9.31.46-18.64c4.66-1.34 9.33-5.88 13.97-5.92a1.49 1.49 0 011.43 1.95q-3.2 9.99-6.83 19.77c-.41 1.07-.76 3.32-1.6 4.72a.65.64 23.8 01-.76.29l-6.67-2.17z"/><path fill="#fff" d="M313.35 486.4q-.83 9.33-.46 18.64-10.14-3.91-17.26-12.34a.3.3 0 01.17-.48q9.02-1.7 17.55-5.82zM302.79 517.39a.58.57-13.7 01-.65-.39l-5.55-16.75a.25.25 0 01.39-.28q8.09 6.58 17.83 10.38.73.28.01.58l-1.13.48q-.51.21-.89.61-4.13 4.33-10.01 5.37z"/><path fill="#979b9e" d="M311.29 531.25q-1.32-6.94.96-13.54l5.01-2.95q.43-.25.27.22-1.3 3.84-2.99 7.44c-1.31 2.75-1.71 5.96-3.25 8.83z"/><path fill="#fff" d="M312.25 517.71q-2.28 6.6-.96 13.54l-1.03 6.38a.47.47 0 01-.9.08l-5.97-16.1a.68.67 73.7 01.49-.9q4.31-.9 8.37-3z"/><path fill="#979b9e" d="M8.19 591H3.44q2.37-.63 4.75 0z"/></svg>