<svg xmlns="http://www.w3.org/2000/svg" viewBox="0 0 591 591"><g stroke-width="2" fill="none"><path stroke="#7e7f71" vector-effect="non-scaling-stroke" d="M576.19 591l14.11-.2a.17.14-78.4 00.14-.11l.08-.26a.14.14 0 00-.13-.18H.5a.21.08 2.1 00-.19.06l-.08.26a.14.14 0 00.13.18h575.39a.19.12 0 01.19.12v.13M585.49 5.53a.27.27 0 00-.27-.27H5.52a.27.27 0 00-.27.27v579.7a.27.27 0 00.27.27h579.7a.27.27 0 00.27-.27V5.53"/><path stroke="#fbf2c8" vector-effect="non-scaling-stroke" d="M45.63 78.13q25.96-26.03 51-50.8 2.02-2-.83-2.02-18.81-.15-37.52-.01-10.28.07-13.99 1.41c-6.25 2.25-11.2 7.68-11.85 14.71-1.49 15.99.85 31.91-.5 47.73a.72.71 81.5 00.98.73c3.4-1.37 9.87-8.9 12.71-11.75"/><path stroke="#8d8e7f" vector-effect="non-scaling-stroke" d="M204.8 119.65c16.96 2.99 17.11 17.57 14.36 31.04a.41.41 0 00.71.35c2.59-3.09 3.43-7.32 4.25-11.18 4.92-23.32-19.62-23.74-23.15-42.85a.56.55-7.5 00-.59-.45l-3.06.24a.49.49 0 00-.43.61q.25.93.38 1.87 2.02 13.85 3.79 27.74c.28 2.17-.13 4.95 1.23 7.54q.23.44.21.93c-.13 3.61 1.03 6.87 1.22 10.39.13 2.43 1.17 4.44 1.03 7.1a.81.8-9.3 01-.51.7c-1.48.57-3.12.18-4.45.66q-6.56 2.36-10.4 8.34c-3.83 5.97.17 12.33 7.46 10.92 7.66-1.47 13.09-7.78 12.03-15.79q-1.23-9.32-2.5-18.63c-.39-2.82-.33-7.14-1.31-10.74q-.46-1.7-.74-8.38a.4.4 0 01.47-.41M172.37 338.68q-11.18.09-22.23 1.83a1.13 1.13 0 00-.73.46c-1.45 2.02-2.08 7.43 2.1 6.78q9.08-1.42 18.26-2.45a.67.67 0 01.73.52l2.36 10.69a1.18 1.18 0 001.87.69c1-.76 1.84-1.34 3.16-1.62q10.43-2.19 20.86-4.32c4.82-.98 8.88-2.16 13.39-3 9.19-1.71 16.19-3.73 28.51-6.13a.28.28 0 01.33.34l-3.48 14.55a.56.55 8.3 00.51.68c10.09.6 16.12 1.81 18.68 12.83q3.01 12.97-1.21 23.66c-3.97 10.04-14.66 10.91-23.92 10.85a.52.51.6 00-.52.5c-.08 6.16.18 12.12-1.27 18.24q-4.1 17.2-4.77 30.24c-2.25 43.6 33.75 64.59 72.62 64.44a.55.55 0 01.56.52l.25 3.77q.03.48.29.89c1.9 3.12 2.77 5.74 1.7 9.52q-1.93 6.77-4.17 13.63a.78.78 0 00.52 1q6.96 2.02 13.99.11a1.25 1.24 73.3 00.86-1.6l-5.27-15.91a1.42 1.42 0 010-.9c1.22-3.74 3.1-6.3 3.89-10.71a.59.58 4.6 01.58-.49c18.18.04 39.38-5.28 53-17.75 7.7-7.05 16.23-18.75 17.42-29.55q2.66-24.32-3.59-47.81c-1.61-6.05-.8-12.72-1.23-19a.6.6 0 00-.53-.56c-2.84-.33-5.69.77-8.04.63-9.24-.53-15.5-5.95-17.72-14.96-2.21-8.95-1.87-23.93 7.05-29.38 3.41-2.08 8.06-2.31 12.19-2.95a.55.54-6.9 00.46-.58q-.17-2.23-.73-4.4-4.35-17.1-9.28-34.04-2.72-9.34-7.46-16.23-.28-.4.19-.24c7.76 2.76 18.2 2.68 27.39 2.18 10.47-.57 36.85-7.99 34.41-23.46q-1.45-9.12-3.82-16.71c-5.51-17.64-18.5-27.22-33.49-37.02q-5.18-3.39-10.56-8.54a1.16 1.15-68.6 01-.36-.84c.11-7.88-.85-16.93-11.21-16.69a.54.53 86.5 01-.54-.49c-1.25-12.18-8.66-25.02-16.95-33.66-3.61-3.77-8.61-6.96-13.01-10.41-2.98-2.34-6.43-2.03-9.88-1.43a.45.45 0 01-.53-.44v-6.37a.7.7 0 01.61-.69c3.08-.41 5.04 3.36 7.85 2.07 5.2-2.39 2.56-11.73-3.71-7.75q-2.02 1.28-4.46 1.44a.49.49 0 01-.53-.49v-11.38a.48.48 0 01.86-.3q2.16 2.71 5.37 2.07c5.36-1.07 1.84-12.12-5.31-4.93a.65.65 0 01-1.11-.42q-.15-2.55-1.89-4.43a.72.71-48.5 01-.05-.91l3.04-4.07a1.5 1.49-25.8 00.31-.88c.11-3.49 1.5-11.59-1.59-13.89a1.34 1.31-78.6 01-.5-.77c-.55-2.4-1.67-3.45-4.29-3.51q-4.89-.1-9.79-.26-3.99-.13-4.15 3.59a.83.83 0 01-.47.7c-4.37 2.1-2.65 10.04-2.47 13.99a1.37 1.36 22.7 00.36.87c5.09 5.48 1.36 4.18 1.42 9.53a.72.72 0 01-1.13.61l-3.61-2.47a.98.98 0 00-.95-.09q-4.82 2.13-2.51 6.07c1.96 3.35 5.23.51 7.37-.62a.4.39 76 01.58.35v10.65a.91.9 84.2 01-.72.89l-1.79.36a1.02 1.01-27 01-.96-.31q-2.69-2.94-5.84-1.63c-6.65 2.76-.33 11.43 4.83 7.08 1.45-1.22 2.21-1.25 3.98-1.06a.54.53-86 01.48.56q-.39 10.46-.17 20.94.07 3.28 3.16 3.54a.5.5 0 01.46.52c-1.1 26.27-.41 60.43-1.7 90.74a1.53 1.52 80.1 01-.94 1.35q-26.29 10.87-54.72 13.48-4.42.4-10.1-.21-13.16-1.4-24.16-.84c-5.94.3-10.66 2.54-15.37 6.85-7.32 6.7-16.67 13.15-14.05 24.83a1.18 1.17-34.6 01-.17.91c-4.86 7.46-4.04 19.98-2.59 28.41a.52.51-5.2 01-.51.6M421.28 124.49c15.37 6.01 15.11 21.37 7.68 33.42a.43.42 25.8 00.22.62q1.23.43 2.09-.8c4.09-5.83 8.83-17.28 6.45-24.72-3.73-11.69-14.96-17.75-14.73-31.29a.67.66-83 00-.51-.66l-2.35-.55a.61.61 0 00-.75.55q-.67 9.48-1.58 18.94c-.73 7.55-1.64 20.03-3 30.02q-.35 2.58-.36 8.02a.4.39 6.9 01-.49.38q-7.62-1.92-14.22 2.26c-4.51 2.86-7.46 10.07-2.42 13.43 6.4 4.28 18.77-1.36 19.94-9.02q.89-5.86.98-11.8c.03-1.86.75-3.63.83-5.47q.52-11.53 1.7-23.01a.38.38 0 01.52-.32"/><path stroke="#7e7f71" vector-effect="non-scaling-stroke" d="M116 258.54c-6.08-1.72-17.86 6.24-16.36 13.14 1.56 7.17 11.7 5.27 16.17 1.85"/><path stroke="#8d8e7f" vector-effect="non-scaling-stroke" d="M115.81 273.53c4.05-1.7 5.87-4.57 6.13-9.15q1.13-19.78 1.24-39.36a.59.59 0 01.89-.51c4.82 2.79 10.65 5.64 11.97 11.5q2.54 11.35-3.07 22-.24.45.24.26c3.75-1.5 3.71-4.99 4.91-7.61q7.5-16.3-4.93-29.58c-6.14-6.56-9.09-9.87-9.64-19.31a.72.72 0 00-.7-.69l-2.79-.11a.53.53 0 00-.55.54c.35 18.92-.95 37.69-1.27 56.47a.54.53-.6 01-.53.53l-1.71.03"/><path stroke="#0f0f0e" vector-effect="non-scaling-stroke" d="M115.81 273.53q-4 .25-7.88 1.21c-6.43 1.61-7.67-5.68-4.1-9.58q4.28-4.66 10.85-5.48.85-.11 1.32-1.14"/><path stroke="#8d8e7f" vector-effect="non-scaling-stroke" d="M488.44 271.6c-1.67-.29-3.12-.97-4.8-.75q-7.06.91-12.33 7.23c-4.96 5.96 1.01 11.93 7.21 11.18 8.19-.99 13.69-6.19 14.27-14.39q1.25-17.66 3.16-35.69a.75.74 14.4 011.03-.6c14.09 6 14.44 21.32 6.74 32.77q-.29.44.23.47 1.84.12 2.94-1.49c6.91-10.19 8.75-23.29.57-33.56-2.44-3.07-5.53-6.34-7.3-9.84-1.84-3.64-1.77-7.56-2.04-11.55a.68.68 0 00-.68-.64l-2.64.01a.68.67 1.8 00-.68.63c-1.37 18.06-3.89 37.17-5.15 55.81a.45.44 6.9 01-.53.41"/><path stroke="#d3d6c8" vector-effect="non-scaling-stroke" d="M102.588 324.55a1.2.81 2.9 00-1.157-.869 1.2.81 2.9 00-1.24.748 1.2.81 2.9 001.158.87 1.2.81 2.9 001.24-.748"/><path stroke="#8d8e7f" vector-effect="non-scaling-stroke" d="M455.14 422.94c-7.56-3.75-25.4 7-17.53 14.96 6.35 6.42 19.74.27 20.84-8.06 1.48-11.18 2.19-22.37 3.42-33.59.22-1.96-.17-4.7.51-7.05a.37.37 0 01.56-.21q3.37 2.11 6.58 4.5c8.76 6.52 6.24 21.7.36 29.56q-.31.42.2.35 2.75-.38 4.13-3.17c5.02-10.12 8.27-19.5 1.51-29.88-5.61-8.64-12.5-12.42-11.36-24.33a.59.59 0 00-.55-.65l-2.4-.15a.68.68 0 00-.73.62l-5.16 56.89a.26.26 0 01-.38.21M172.42 414.28c4.48 7.92 3.8 13.84 2.1 22.61q-.11.52.39.35 2.04-.71 2.55-3.02c2.87-12.85 3.09-23.7-8.6-32.11-7.48-5.38-12.59-9.22-14.8-17.82a.77.76-9.5 00-.8-.57l-2.05.16a.56.55 83.4 00-.51.65q1.54 8.85 2.92 17.72c1.98 12.74 4.8 25.48 7.02 38.29a.6.59-5.3 01-.58.69c-2.4.01-4.64-.35-6.82.83q-7.51 4.07-8.72 11.95c-.69 4.53 3.21 7.47 7.56 6.87 6.83-.96 15.15-8.01 13.13-15.82-3-11.63-4.55-24.46-6.61-36.68a1.4 1.39-89 011.65-1.6c4.49.88 9.76 3.22 12.17 7.5"/><path stroke="#8f8e8e" vector-effect="non-scaling-stroke" d="M298.54 101.73l-.06-1.22a.56.55-10.9 00-.73-.49l-.89.29a.78.76 81.5 00-.52.72q-.14 9.28-.17 18.57c-.01 1.12.73 1.63 1.78 1.38a.72.71 83.4 00.55-.7v-14.49a.55.54 5.3 01.65-.53q.45.08.74.49.31.45.8.68 3.31 1.56 6.93 1.61a.61.61 0 01.6.6l.11 11.45a.6.6 0 00.72.59l1.48-.3a.85.84-18.1 00.6-1.17c-1.12-2.52.55-17.58-1.23-18.13a.82.82 0 00-.87.26l-.75.9a1.12 1.11 20.8 01-.9.4l-8.31-.38a.56.56 0 01-.53-.53"/><path stroke="#8d8e7f" vector-effect="non-scaling-stroke" d="M319.71 128.85l.54-1.08q.45-.91-.55-.74l-1.62.26q-1.11.18-.25.9l1.01.84a.57.57 0 00.87-.18"/><path stroke="#8f8e8e" vector-effect="non-scaling-stroke" d="M322.13 144.286a1.26.99 81.3 00.789-1.396 1.26.99 81.3 00-1.17-1.095 1.26.99 81.3 00-.788 1.395 1.26.99 81.3 001.17 1.096"/><path stroke="#595a5b" vector-effect="non-scaling-stroke" d="M305.96 164.25q-2.91 1.74-4.39 4.23"/><path stroke="#656565" vector-effect="non-scaling-stroke" d="M301.57 168.48c-2.34 2.75-3.34 9.05 1.68 9.23"/><path stroke="#595a5b" vector-effect="non-scaling-stroke" d="M303.25 177.71c4.54-1.45 8.23-3.61 13.04-5.04q5.21-1.56 9.5-5.02"/><path stroke="#8f8e8e" vector-effect="non-scaling-stroke" d="M325.79 167.65q.2-5.05-2.67-8.53a1.41 1.4 76.2 00-.82-.5c-6-1.29-12.12 1.79-16.34 5.63"/><path stroke="#c9cbcc" vector-effect="non-scaling-stroke" d="M325.79 167.65c-7.07-1.36-11.76 1.59-17.06 4.84a1.29 1.29 0 01-1.96-.95l-.81-7.29"/><path stroke="#9fa2a4" vector-effect="non-scaling-stroke" d="M303.25 177.71q-1.79-4.42-1.68-9.23"/><path stroke="#595a5b" vector-effect="non-scaling-stroke" d="M332.53 185.66q-1.27-1.19-.93-2.45"/><path stroke="#8f8e8e" vector-effect="non-scaling-stroke" d="M331.6 183.21q.51-8.87-7.6-10.42"/><path stroke="#656565" vector-effect="non-scaling-stroke" d="M324 172.79q-2.03-.7-4 .17"/><path stroke="#8f8e8e" vector-effect="non-scaling-stroke" d="M320 172.96c-3.71.98-7.48 3.66-10.96 5.26"/><path stroke="#595a5b" vector-effect="non-scaling-stroke" d="M309.04 178.22c-4.28 1.6-9.01 4.01-7 9.12 2.49 6.36 15.09 2.44 19.52 1.54 1.86-.37 4.23-4.36 5.54-2.5"/><path stroke="#8f8e8e" vector-effect="non-scaling-stroke" d="M327.1 186.38c-1.9 4.24-7.92 5.54-12.1 5.91"/><path stroke="#595a5b" vector-effect="non-scaling-stroke" d="M315 192.29q-4.04 1.34-8.33 1.02a.79.78-75.4 00-.79.47l-1.17 2.6a1.16 1.15 43.6 00.03 1.01c4.29 8.18 16.27 5.93 23.75 3.33q5.26-1.83 7.6-5.4"/><path stroke="#8f8e8e" vector-effect="non-scaling-stroke" d="M336.09 195.32q1.05-4.4-2.25-7.41-.37-.34.09-.14 2.32 1.01 3.67 2.96c4.53 6.52-6.59 12.56-10.83 13.92"/><path stroke="#656565" vector-effect="non-scaling-stroke" d="M326.77 204.65l-11.27 1.81"/><path stroke="#8f8e8e" vector-effect="non-scaling-stroke" d="M315.5 206.46h-.5"/><path stroke="#595a5b" vector-effect="non-scaling-stroke" d="M315 206.46l-6-.92"/><path stroke="#656565" vector-effect="non-scaling-stroke" d="M309 205.54l-1-.21a.53.52-76.2 00-.62.38q-.85 3.19.05 6.35a1.2 1.19-85.6 00.65.76q6.79 3.12 14.17 2.64"/><path stroke="#595a5b" vector-effect="non-scaling-stroke" d="M322.25 215.46l1.79-.21"/><path stroke="#656565" vector-effect="non-scaling-stroke" d="M324.04 215.25q6.58.52 11.53-3.8a.5.5 0 01.78.61l-2.57 4.92a.72.71-52 00.09.79q1.69 1.98 4.38 2.02"/><path stroke="#595a5b" vector-effect="non-scaling-stroke" d="M338.25 219.79q1.7.89 3.5 0"/><path stroke="#656565" vector-effect="non-scaling-stroke" d="M341.75 219.79q6.62-.11 8.79-6.04"/><path stroke="#595a5b" vector-effect="non-scaling-stroke" d="M350.54 213.75c1.25-4.11.57-13.02-1.25-16.75"/><path stroke="#8f8e8e" vector-effect="non-scaling-stroke" d="M349.29 197q-3.82-20.04-19.41-33.01-.67-.56-.58.3l.55 5.23a.87.85-84.3 00.59.73c4.2 1.32 10.65 7.79 7.74 12.89q-.38.66-.42-.1-.27-4.24-3.46-7.1-.69-.62-.39.26 1.75 5.15-1.38 9.46"/><path stroke="#c9cbcc" vector-effect="non-scaling-stroke" d="M349.29 197q1.25 6.69 1 13.5"/><path stroke="#d5d6d7" vector-effect="non-scaling-stroke" d="M350.29 210.5q-4.71 6.66-12.98 5.06a1.08 1.07 16.5 01-.8-1.46l2.25-5.56q.32-.77-.49-.57-1.87.46-2.18 2.31a.79.78 5.7 01-.81.66l-6.42-.25a1.06 1.02-61.3 00-.64.2l-.22.15"/><path stroke="#c9cbcc" vector-effect="non-scaling-stroke" d="M328 211.04q-5.8-.57-11.67-.29c-2.34.11-3.58-1.01-3.75-3.26a.79.78-15.9 01.43-.76q.85-.46 1.99-.27"/><path stroke="#d5d6d7" vector-effect="non-scaling-stroke" d="M315.5 206.46q6.1 1.11 11.27-1.81"/><path stroke="#c9cbcc" vector-effect="non-scaling-stroke" d="M336.09 195.32q-5.41.7-10.54 1.91c-5.27 1.24-9.98 1.74-10.55-4.94M327.1 186.38q2.74.29 5.43-.72"/><path stroke="#9fa2a4" vector-effect="non-scaling-stroke" d="M328 211.04q.11 1.43-1.08 2.27a.87.86-51.5 01-.83.1l-1.49-.62a.5.5 0 00-.69.38q-.17 1.05.13 2.08M341.75 219.79q-1.77-.39-3.5 0M350.54 213.75l-.25-3.25"/><path stroke="#c9cbcc" vector-effect="non-scaling-stroke" d="M331.6 183.21q-8.92.6-17.41 3.3a.52.52 0 01-.66-.36q-1.16-4.56-4.49-7.93"/><path stroke="#9fa2a4" vector-effect="non-scaling-stroke" d="M309 205.54q2.01 1.89.72 3.84a.69.69 0 00.07.86q2 2.18 5 2.67a1.52 1.49-53.1 00.92-.14q1.36-.73 2.18.22a1.49 1.49 0 00.9.49q1.57.24 2.42-1.05a.55.54-28.8 011 .29l.04 2.74"/><path stroke="#d5d6d7" vector-effect="non-scaling-stroke" d="M324 172.79l-4 .17"/><path stroke="#656565" vector-effect="non-scaling-stroke" d="M344 224.29l-3.17.29a.39.39 0 00-.35.46c1.45 7.56 14.12 5.67 18.57 1.9"/><path stroke="#8f8e8e" vector-effect="non-scaling-stroke" d="M359.05 226.94q5.33-8.32 3.02-18.2-1.2-5.13-6.35-4.64a.42.42 0 00-.38.48c1.01 7.49-2.82 18.17-11.34 19.71"/><path stroke="#d5d6d7" vector-effect="non-scaling-stroke" d="M359.05 226.94l-1.52-.37a1.38 1.33 36.2 00-.94.13c-3.91 2.12-8.72.3-12.38-1.78a.43.42-75.7 01-.21-.37v-.26"/><path stroke="#8d8e7f" vector-effect="non-scaling-stroke" d="M315.59 266.82c13.28 6.87 29.22 12.67 44.41 13.07 9.69.25 20.81.93 29.84-2.71a1.22 1.21 59.6 00.49-1.89c-11.52-14.22-24.04-28.81-37.95-40.47a1.14 1.14 0 00-.88-.27c-8.57.95-16.12-.05-17.74-10.15a.73.72.6 00-.59-.6q-4.91-.84-7.79-4.82a.81.81 0 00-.82-.31q-5.84 1.26-11.61-.51a1.31 1.31 0 00-1.7 1.26q.05 19.19.61 39.39c.1 3.88-.02 6.08 3.73 8.01"/><path stroke="#656565" vector-effect="non-scaling-stroke" d="M324.56 314.25q1.93 3.59 3.39 6.91c1.74 3.94-4.82 4.75-7.12 4.82a1.47 1.44 60.6 01-.83-.24q-2.5-1.7-5.42-.66a.67.67 0 00-.45.65q.19 17.56.79 35.09c.06 1.78-.23 3.67-.46 5.43"/><path stroke="#595a5b" vector-effect="non-scaling-stroke" d="M314.46 366.25q-.83 2.07-.9 3.31-.53 10.22-.02 20.44"/><path stroke="#656565" vector-effect="non-scaling-stroke" d="M313.54 390l.25 9.5"/><path stroke="#595a5b" vector-effect="non-scaling-stroke" d="M313.79 399.5l-.16 4.05a.4.4 0 00.44.42l6.35-.69a.61.61 0 01.67.65l-.37 5.14a.86.86 0 01-.75.79l-5.73.76a.58.57-2.5 00-.49.53l-.67 13.04"/><path stroke="#656565" vector-effect="non-scaling-stroke" d="M313.08 424.19l-1.48 17.48a1.2 1.2 0 001.55 1.25l3.29-1.03"/><path stroke="#595a5b" vector-effect="non-scaling-stroke" d="M316.44 441.89q.73 1.89-.15 3.86"/><path stroke="#656565" vector-effect="non-scaling-stroke" d="M316.29 445.75q-6.93 27.52-8.24 37.56-1.45 11.21.46 29.27a.56.55 87.1 00.55.5q10.44.07 20.48-1.94"/><path stroke="#595a5b" vector-effect="non-scaling-stroke" d="M329.54 511.14q15.25-2.63 27.96-11.6"/><path stroke="#656565" vector-effect="non-scaling-stroke" d="M357.5 499.54c19.35-14.84 22.46-36.82 18.36-59.35q-2.07-11.33-4.69-19.4"/><path stroke="#595a5b" vector-effect="non-scaling-stroke" d="M371.17 420.79q1.26-4.43.45-8.75a.49.48 77.5 00-.59-.38c-6.29 1.5-10.95-.3-16.78-2.12"/><path stroke="#656565" vector-effect="non-scaling-stroke" d="M354.25 409.54q-10.26-5.16-12.8-14.98c-4.86-18.86-3.29-35.43 17.81-41.47"/><path stroke="#595a5b" vector-effect="non-scaling-stroke" d="M359.26 353.09l3.72-.33a.51.51 0 00.46-.61l-.65-3.4"/><path stroke="#656565" vector-effect="non-scaling-stroke" d="M362.79 348.75c-3.56-17.44-7.45-38.64-21.29-51.29"/><path stroke="#595a5b" vector-effect="non-scaling-stroke" d="M341.5 297.46c-8.13-8.96-18.83-12.11-28-19.33q-.79-.63-.77.39l.88 34.46a.76.76 0 001.09.67q3.52-1.69 7.38-1.66a1.04 1.04 0 01.77.34l1.71 1.92"/><path stroke="#9fa2a4" vector-effect="non-scaling-stroke" d="M341.5 297.46q-.53-.07-.77.17a.54.53-45 00-.01.77c6.95 6.88 9.06 12.62 12.67 20.31 2.29 4.84 2.54 10.2 4.94 15.3q.21.46.18.96c-.05.86 3.19 14.49 3.65 14.66a.44.43 12.5 00.59-.37l.04-.51M359.26 353.09q-4.48-1.09-7.56 1.12c-1.94 1.39-4.06 1.97-5.46 3.26-6.76 6.27-10.06 16.06-10.02 25.28a.35.35 0 01-.66.16q-1.53-3.05-4.85-2.69"/><path stroke="#595a5b" vector-effect="non-scaling-stroke" d="M330.71 380.22q-2.34-1.26-5-1.52c-5.96-.6-12.07 10.48-3.71 13.23a1.3 1.28-47 00.93-.04l3.78-1.64"/><path stroke="#9fa2a4" vector-effect="non-scaling-stroke" d="M326.71 390.25l.74 1a1.91 1.91 0 01.35.89c.89 7.95-.88 14.24.87 23.01a.19.18 70.2 00.27.13l.31-.15a.95.94-12.4 00.5-.78l.04-.6"/><path stroke="#595a5b" vector-effect="non-scaling-stroke" d="M329.79 413.75c1.58 8.9 6.13 20.56 17.71 17.54"/><path stroke="#9fa2a4" vector-effect="non-scaling-stroke" d="M347.5 431.29q.12.66.6.85a.92.91-52.8 00.91-.13c5.39-4.15 6.82-13.24-1.72-15.07a.75.73-64.4 00-.74.27q-.48.62-.05 1.33"/><path stroke="#595a5b" vector-effect="non-scaling-stroke" d="M346.5 418.54q-5.01 1.74-2.75 6.67"/><path stroke="#9fa2a4" vector-effect="non-scaling-stroke" d="M343.75 425.21l-.89.04a1.12 1.12 0 01-.86-.35c-6.6-7.1-4.85-20.81-3.48-29.74a.53.53 0 011-.14l3.79 8.29q.23.52.66.88 4.23 3.55 9.14 6.18a.83.82 38.8 00.93-.1q.3-.26.21-.73M371.17 420.79q3.59 20.94 4.16 28.64.36 4.94-.45 18.35c-.54 9.05-6.83 18.18-12.31 24.77-1.6 1.92-4.27 3.74-5.96 6.25a.46.46 0 00.19.67q.38.18.7.07M329.54 511.14q-3.88-1.05-7.72-.28c-4.65.94-7.27 1.34-11.21 1.12a1.25 1.24-1.6 01-1.17-1.1q-1.36-11.94-.14-23.77c.85-8.3 3.7-18.8 5.36-28.2.68-3.86 2.01-8.41 2.61-12.73a.59.59 0 00-.45-.65q-.3-.08-.53.22M316.44 441.89q-.91-1.11-2.14-.67a.95.95 0 01-1.25-1.09q1.73-8.34.03-15.94M313.79 399.5q.22.27.26.59a.5.5 0 00.53.44c.97-.06.38-8.83.41-10.07a.65.64 8.3 00-.49-.65q-.48-.12-.96.19M314.46 366.25q-.24 1.01.46 1.26a.97.96-80.7 001.29-.93c-.07-3.7-.44-7.38-.28-11.05q.46-10.49-.1-20.97-.03-.55.11-1.97c.25-2.54-1.63-4.83 1.55-6.45a.92.92 0 01.88.04c3.4 2.05 6.15.56 9.12-.56a2.59 2.59 0 001.6-1.77q1.83-7.04-4.53-9.6"/><path stroke="#656565" vector-effect="non-scaling-stroke" d="M343.75 425.21q1.17.95 2.59 1.06a.53.52-70.6 01.39.82c-2.47 3.56-6.22-.19-7.85-2.94-7.18-12.11-.46-26.15-4.91-39.93q-.14-.45-.46-.81l-2.8-3.19M346.5 418.54c7.9-.47 5.43 9.6 1 12.75M329.79 413.75c-.47-3.72-1.08-7.18-.84-11.01.35-5.64 2.05-16.64-3.3-20.3a.92.9 48.8 00-.91-.07l-1.66.79q-.89.43.03.79 4.46 1.74 3.6 6.3M259.43 304.83c-5.14 6.61-7.35 13.77-9.19 21.85a.38.37.9 00.44.45l41.67-8.53a1.5 1.49 84.9 001.19-1.43l.89-36.94a.29.29 0 00-.4-.27c-15.07 6.52-25.13 12.71-34.6 24.87M183.46 294.25q-4.67 3.45-4.19 9.21.04.58.47.18l2.26-2.1"/><path stroke="#8f8e8e" vector-effect="non-scaling-stroke" d="M182 301.54c11.26-8.97 21.23-6.1 32.77.24.95.52 1.71.53 2.73.51"/><path stroke="#656565" vector-effect="non-scaling-stroke" d="M217.5 302.29l1.15 1.12q.36.34.44-.15.99-6.25-4.23-9.92"/><path stroke="#8f8e8e" vector-effect="non-scaling-stroke" d="M214.86 293.34q-12.06-9.74-26.6-3.34-1.92.84-4.8 4.25"/><path stroke="#d5d6d7" vector-effect="non-scaling-stroke" d="M214.86 293.34q.89 4.03 2.89 8.16.23.47-.25.79M182 301.54l-.43-.38a.52.52 0 01-.16-.55l.09-.32"/><path stroke="#c9cbcc" vector-effect="non-scaling-stroke" d="M181.5 300.29q1.23-.79.7-2.57"/><path stroke="#d5d6d7" vector-effect="non-scaling-stroke" d="M182.2 297.72q1.6-1.33 1.26-3.47"/><path stroke="#9fa2a4" vector-effect="non-scaling-stroke" d="M182.2 297.72q-1.94.85-.7 2.57"/><path stroke="#8d8e7f" vector-effect="non-scaling-stroke" d="M225.02 307.79c1.9 2.49 5.65 2.06 5.96 5.95.23 2.96 1.22 5.85.93 8.73q-.39 3.87-1.08 7.82a.38.38 0 00.44.45l12.53-2.09a.8.78-86.3 00.63-.57c2.32-8.35 6.02-21.74 11.75-28.05q2.04-2.24-.83-1.29c-10.42 3.47-20.9 3.05-31.53 2.31a.5.5 0 00-.54.46q-.28 3.64 1.74 6.28"/><path stroke="#595a5b" vector-effect="non-scaling-stroke" d="M187.04 333.25c1.11 5.33 6.56 12.32 12.57 7.77a.74.73 64.9 00.27-.77l-2.16-8.64"/><path stroke="#8f8e8e" vector-effect="non-scaling-stroke" d="M197.72 331.61c.01-1.83-.81-12.87 1.48-12.88a.44.44 0 01.44.51q-1.03 6.65.9 13.01"/><path stroke="#656565" vector-effect="non-scaling-stroke" d="M200.54 332.25q.54 4.87 3.58 8.7a1.48 1.45-11.9 00.8.51c5.67 1.29 8.24-2.2 8.46-7.37a.36.35 83 00-.45-.36q-5.25 1.46-9.93-1.69"/><path stroke="#8f8e8e" vector-effect="non-scaling-stroke" d="M203 332.04q5.89.21 11.05-2.56a1.05 1.04 82.1 00.54-.72c1.9-9.65-2.65-21.58-14.92-13.74a.39.38 65.3 01-.58-.22q-.85-2.92 2.31-4.66c7.35-4.05 14.31 1 15.86 8.12q1.41 6.5.24 14.45"/><path stroke="#656565" vector-effect="non-scaling-stroke" d="M217.5 332.71l-1.09 5.42a.69.69 0 00.37.76l2.26 1.12a1.39 1.37 47.7 001.12.06q4.69-1.77 6.33-6.53a.27.27 0 00-.38-.33q-3.71 1.95-7.36-.17"/><path stroke="#8f8e8e" vector-effect="non-scaling-stroke" d="M218.75 333.04c10.2-.82 12.74-12.46 7.42-19.52a1.5 1.43-9.1 00-.77-.53l-8.44-2.44a.58.58 0 01-.3-.91l1.25-1.63a.57.56 36.1 00-.13-.81c-1.57-1.05-3.29-1.43-4.81-2.52-15.46-11.04-31.05-5.37-37.05 12.25q-.18.54.35.31 3.51-1.55 6.36 1.12a.48.47 21.9 00.8-.34c.17-13.77 15.18-6.36 12.96-3.61a.46.45-44.7 01-.71 0q-3.14-3.96-7.81-1.81a1.33 1.31-89.2 00-.66.65q-4.76 9.86-.17 20"/><path stroke="#d5d6d7" vector-effect="non-scaling-stroke" d="M218.75 333.04l-1.25-.33M203 332.04l-2.46.21"/><path stroke="#c9cbcc" vector-effect="non-scaling-stroke" d="M197.72 331.61q-3.18 1.87-6.61 2.31a1.57 1.53 55.2 01-.93-.18q-1.48-.84-3.14-.49"/><path stroke="#656565" vector-effect="non-scaling-stroke" d="M176.31 338.55q2.28 6.26 8.52 7.52a1.16 1.15-59.4 00.98-.26l3.4-2.94a.59.59 0 00-.01-.9q-3.43-2.82-5.16-6.97"/><path stroke="#8f8e8e" vector-effect="non-scaling-stroke" d="M184.04 335q-2.33-7.39-1.69-15.07a.91.9 20.6 00-.37-.8q-2.98-2.14-4.48.9-4.16 8.45-1.19 18.52"/><path stroke="#d5d6d7" vector-effect="non-scaling-stroke" d="M184.04 335q-2.79 3.46-7.73 3.55"/><path stroke="#595a5b" vector-effect="non-scaling-stroke" d="M317.625 319.77a2.02.87-14.6 00-2.174-.332 2.02.87-14.6 00-1.736 1.351 2.02.87-14.6 002.174.333 2.02.87-14.6 001.736-1.351"/><path stroke="#656565" vector-effect="non-scaling-stroke" d="M247.77 334.68a.92.92 0 00.65 1.7c5.07-1.08 43.51-8.67 45.05-10.85a.57.57 0 00-.57-.89q-16.27 2.99-31.18 6.51c-4.59 1.08-9.02.68-13.95 3.53M272.25 334.79l-24.99 5.64a.97.96-87.3 00-.71.65q-1.78 5.57-2.55 11.36a.41.41 0 00.46.46q1.16-.16 1.63-.03c22.39 5.7 25.23 21.93 20 41.85-2.19 8.32-7.71 13.45-15.59 16.32"/><path stroke="#595a5b" vector-effect="non-scaling-stroke" d="M250.5 411.04l-5.75 1.42"/><path stroke="#656565" vector-effect="non-scaling-stroke" d="M244.75 412.46l-8.35.03a.53.52-86.9 00-.52.47c-.3 2.86.08 5.81-.54 8.52-3.49 15.15-6.09 29.69-4.44 45.29 2.03 19.2 15.17 33.25 32.6 40.27"/><path stroke="#595a5b" vector-effect="non-scaling-stroke" d="M263.5 507.04q5.27 2.38 10.96 3.46"/><path stroke="#656565" vector-effect="non-scaling-stroke" d="M274.46 510.5q12 2.71 24.29 2.71a.58.57 2.9 00.56-.5c1.75-13.84 1.56-26.69-1.7-40.76q-3.46-14.88-7.36-29.66"/><path stroke="#595a5b" vector-effect="non-scaling-stroke" d="M290.25 442.29q1.88.03 3.64.96a.89.89 0 001.3-.78l.02-4.97"/><path stroke="#656565" vector-effect="non-scaling-stroke" d="M295.21 437.5l-1.25-19.75"/><path stroke="#595a5b" vector-effect="non-scaling-stroke" d="M293.96 417.75l-.44-6.47a.63.62-88.3 00-.53-.57c-4.07-.58-6.26-.4-6.14-5.47a1.05 1.05 0 011.12-1.03l4.69.32a.67.66 2.5 00.71-.64q.47-15.65.36-31.29c-.02-4.22-1.06-9.09-1.02-13.1q.16-14.51.86-28.49a.69.69 0 00-.84-.71l-20.48 4.49"/><path stroke="#9fa2a4" vector-effect="non-scaling-stroke" d="M293.96 417.75c-1.02-.52-1.66.01-1.75 1.07-.19 2.23-1.01 19.19 3 18.68M290.25 442.29q-.41-.2-.95 0a.54.53 70.5 00-.32.68c1.54 4.57 2.09 9.74 3.3 13.9q3.89 13.3 6.13 25.57c.47 2.53-.1 5.81-.16 7.66q-.36 10.62-.01 20.92a1.01 1.01 0 01-.96 1.04q-11.04.57-21.56-2.88a.97.95 34.8 00-.89.15q-.56.42-.37 1.17M263.5 507.04q.78-.86 0-1.29c-5.58-3.08-11.78-6.19-16.22-10.35-8.58-8.03-14.39-18.42-15.24-30.39q-1.43-20.23 4.81-39.65c1.26-3.9 1.46-6.99 1.6-10.9a.53.53 0 01.51-.51c1-.05 6.87.3 6.58-1.05a.54.54 0 00-.47-.41l-.32-.03M250.5 411.04q.07.72.48 1.12a.81.8-33 00.86.18q10.83-4.29 15.39-14.94c.62-1.45.74-3.52 2.22-5.08q.36-.37.39.14c.41 5.71.32 10.96.49 17.19q.17 6.22-2.15 12.13a1.17 1.15 89.6 01-.64.66l-2.5 1.06"/><path stroke="#595a5b" vector-effect="non-scaling-stroke" d="M265.04 423.5l-1.04-2.46"/><path stroke="#9fa2a4" vector-effect="non-scaling-stroke" d="M264 421.04q.47-.21.63-.6.78-1.84-1.16-2.32-7.13-1.78-10.12 4.05a1.64 1.6 53.6 00-.15 1.06c1.08 5.49 2.31 9.17 8.38 10.47 1.63.35 3.64-.29 5.36-.53 8.3-1.18 12.18-12.34 11.83-19.65a.66.65 3.2 00-.56-.62q-.31-.04-.67.1"/><path stroke="#595a5b" vector-effect="non-scaling-stroke" d="M277.54 413q1.18-8.22.65-13.43c-.39-3.86-2.5-21.3 6.56-16.03a.57.57 0 01-.16 1.04l-2.65.63a1.9 1.89-5.3 00-1.46 1.75c-.43 8.51 12.07 6.27 8.04-3.5-1.83-4.43-6.05-5.7-10.48-3.91"/><path stroke="#9fa2a4" vector-effect="non-scaling-stroke" d="M278.04 379.55c.98-1.69-.75-1.49-1.52-1q-4.28 2.76-5.15 7.86a.68.68 0 01-.6.56l-.32.03a.54.53 85.9 01-.58-.51c-.48-12.15 1.45-20.59-9.66-28.02-4.35-2.9-8.16-5.56-13.55-6.22a1.56 1.56 0 01-1.22-2.23c.83-1.73.66-3.64 1.13-5 1.55-4.42 4.37-3.93 8.19-4.63q8.31-1.52 16.49-3.67 1.39-.37 1-1.93"/><path stroke="#656565" vector-effect="non-scaling-stroke" d="M277.54 413q-.56 4.62-2.08 8.97c-2.45 7.04-11.91 15.65-18.55 6.89-4.64-6.13 2.12-13.64 7.09-7.82"/><path stroke="#656565" vector-effect="non-scaling-stroke" d="M278.04 379.55c-5.98 4.05-7.04 12.57-6.4 19.29q.94 9.96-.39 18.89c-.49 3.26-5.68 15.03-10.72 9.97a.55.55 0 01.39-.94q3.36.03 4.12-3.26"/><path stroke="#8f8e8e" vector-effect="non-scaling-stroke" d="M227.45 337.63q-1.53 2.83-4.4 4.17a.55.52-12.1 00-.3.44l-.01.3a.17.17 0 00.22.17q10.93-3.47 15.27-3.82 4.36-.34 4.25-3.91a.42.42 0 00-.54-.39q-6.54 1.81-13.33 2.29a1.46 1.45-77.6 00-1.16.75M214.41 340.61c-3.37 4.55-7.87 4.8-12.51 2.04a.75.74 37.9 00-.91.11q-4.04 4.1-9.22 1.46a.62.6 29 00-.8.22c-4.63 7.49-10.67 2.59-15.87-.31a1.13 1.13 0 00-1.64 1.26l2.09 8.35a.53.53 0 00.66.38c13.48-3.62 26.92-7.16 40.56-10.16 1.28-.28 2.66-.02 3.98-.41q.87-.25-.03-.35-3.29-.35-5.63-2.64a.45.45 0 00-.68.05"/><path stroke="#595a5b" vector-effect="non-scaling-stroke" d="M305.04 401.75q.64-1.82-.25-3.5"/><path stroke="#656565" vector-effect="non-scaling-stroke" d="M304.79 398.25c-.06-3.95.27-30.37-.88-31.63a.76.76 0 00-1.24.16c-.15.29-.46.97-.46 1.32q-.25 17.86-.44 35.73a.65.65 0 00.58.65l1.99.23a.56.56 0 00.61-.7q-.31-1.19.09-2.26"/><path stroke="#9fa2a4" vector-effect="non-scaling-stroke" d="M304.79 398.25q-.48 1.74.25 3.5"/><path stroke="#656565" vector-effect="non-scaling-stroke" d="M311.06 367.696a1 1 0 00-1.012-.988l-2.22.027a1 1 0 00-.987 1.012l.439 35.937a1 1 0 001.012.988l2.22-.027a1 1 0 00.987-1.012l-.439-35.937M299.795 368.068a1.15 1.15 0 00-1.14-1.16l-1.62-.014a1.15 1.15 0 00-1.16 1.14l-.31 35.438a1.15 1.15 0 001.14 1.16l1.62.014a1.15 1.15 0 001.16-1.14l.31-35.438"/><path stroke="#595a5b" vector-effect="non-scaling-stroke" d="M348.41 400.62c.55.8 5.57 5.45 6.34 5.12q.46-.19.05-.47c-8.14-5.63-9.72-13.7-10.13-23.27a.31.31 0 00-.47-.25c-4.34 2.75 2.18 15.89 4.21 18.87"/><path stroke="#656565" vector-effect="non-scaling-stroke" d="M263.38 383.69c-1.26 10.77-2.87 14.93-10.76 22.01q-.39.35.07.1 4.99-2.67 7.82-6.93 4.69-7.06 3.03-15.19-.1-.51-.16.01M288.94 407.33c.47 1.48 4.84 1.68 4.53-.21a.73.72-4.1 00-.72-.62h-3.2a.64.64 0 00-.61.83M318.567 407.08a2.47.97-7.9 00-2.58-.62 2.47.97-7.9 00-2.314 1.3 2.47.97-7.9 002.58.62 2.47.97-7.9 002.314-1.3M299.763 407.707a.83.83 0 00-.768-.887l-2.714-.194a.83.83 0 00-.887.768l-.037.519a.83.83 0 00.768.887l2.714.194a.83.83 0 00.887-.768l.037-.519"/><path stroke="#8d8e7f" vector-effect="non-scaling-stroke" d="M302.41 406.88a.95.93-10.7 00-.7 1.01q.18 1.62 2.34.94a.98.97-31 00.41-1.62q-.69-.7-2.05-.33"/><path stroke="#656565" vector-effect="non-scaling-stroke" d="M311.68 407.56q-2.75-2-4.79.33-.74.85.39.86l4 .01a.67.66-26.7 00.4-1.2M298.76 443.47c.98.52 1.55-.01 1.55-1q-.03-15.34-.9-30.67a.67.67 0 00-.67-.64l-2.38-.01a.69.68-2.3 00-.69.74l2.07 30.02a1.92 1.9 12.2 001.02 1.56M304.33 411.48l-1.68-.34a.66.66 0 00-.79.66l.77 31.19a.74.74 0 00.81.72c1.08-.11.72-1.82.73-2.33q.4-14.85.46-29.53a.37.36 6.5 00-.3-.37M307.28 412.01c-.06 10.11-.38 20.21-.32 30.33 0 1.09.76 1.76 1.73.79a1.51 1.5-20.2 00.45-.97l2.36-29.76a.85.84-88.1 00-.85-.91l-2.87.01a.51.51 0 00-.5.51"/><path stroke="#9fa2a4" vector-effect="non-scaling-stroke" d="M290.62 282.63q-3.41 2.44-6.96 4.1c-6.1 2.85-11.31 7.49-16.51 11.69-5.56 4.48-11.2 12.94-12.97 20.41-.49 2.07-2.02 3.43-1.92 5.86a.52.51-1.7 00.53.49q6.59-.11 12.58-2.65c2.38-1.02 4.81-.96 7.13-1.56q12.85-3.36 16.69-3.58 3.07-.18 3-3.2-.22-9.43.23-18.87c.09-1.95.08-11.38-1.25-12.65a.43.43 0 00-.55-.04"/></g><path d="M0 0h591v591h-14.81l14.11-.2a.17.14-78.4 00.14-.11l.08-.26a.14.14 0 00-.13-.18H.5a.21.08 2.1 00-.19.06l-.08.26a.14.14 0 00.13.18h575.39a.19.12 0 01.19.12v.13H0V0zm585.49 5.53a.27.27 0 00-.27-.27H5.52a.27.27 0 00-.27.27v579.7a.27.27 0 00.27.27h579.7a.27.27 0 00.27-.27V5.53z"/><path fill="#fbfee1" d="M585.49 585.23a.27.27 0 01-.27.27H5.52a.27.27 0 01-.27-.27V5.53a.27.27 0 01.27-.27h579.7a.27.27 0 01.27.27v579.7zM45.63 78.13q25.96-26.03 51-50.8 2.02-2-.83-2.02-18.81-.15-37.52-.01-10.28.07-13.99 1.41c-6.25 2.25-11.2 7.68-11.85 14.71-1.49 15.99.85 31.91-.5 47.73a.72.71 81.5 00.98.73c3.4-1.37 9.87-8.9 12.71-11.75zm159.17 41.52c16.96 2.99 17.11 17.57 14.36 31.04a.41.41 0 00.71.35c2.59-3.09 3.43-7.32 4.25-11.18 4.92-23.32-19.62-23.74-23.15-42.85a.56.55-7.5 00-.59-.45l-3.06.24a.49.49 0 00-.43.61q.25.93.38 1.87 2.02 13.85 3.79 27.74c.28 2.17-.13 4.95 1.23 7.54q.23.44.21.93c-.13 3.61 1.03 6.87 1.22 10.39.13 2.43 1.17 4.44 1.03 7.1a.81.8-9.3 01-.51.7c-1.48.57-3.12.18-4.45.66q-6.56 2.36-10.4 8.34c-3.83 5.97.17 12.33 7.46 10.92 7.66-1.47 13.09-7.78 12.03-15.79q-1.23-9.32-2.5-18.63c-.39-2.82-.33-7.14-1.31-10.74q-.46-1.7-.74-8.38a.4.4 0 01.47-.41zm-32.43 219.03q-11.18.09-22.23 1.83a1.13 1.13 0 00-.73.46c-1.45 2.02-2.08 7.43 2.1 6.78q9.08-1.42 18.26-2.45a.67.67 0 01.73.52l2.36 10.69a1.18 1.18 0 001.87.69c1-.76 1.84-1.34 3.16-1.62q10.43-2.19 20.86-4.32c4.82-.98 8.88-2.16 13.39-3 9.19-1.71 16.19-3.73 28.51-6.13a.28.28 0 01.33.34l-3.48 14.55a.56.55 8.3 00.51.68c10.09.6 16.12 1.81 18.68 12.83q3.01 12.97-1.21 23.66c-3.97 10.04-14.66 10.91-23.92 10.85a.52.51.6 00-.52.5c-.08 6.16.18 12.12-1.27 18.24q-4.1 17.2-4.77 30.24c-2.25 43.6 33.75 64.59 72.62 64.44a.55.55 0 01.56.52l.25 3.77q.03.48.29.89c1.9 3.12 2.77 5.74 1.7 9.52q-1.93 6.77-4.17 13.63a.78.78 0 00.52 1q6.96 2.02 13.99.11a1.25 1.24 73.3 00.86-1.6l-5.27-15.91a1.42 1.42 0 010-.9c1.22-3.74 3.1-6.3 3.89-10.71a.59.58 4.6 01.58-.49c18.18.04 39.38-5.28 53-17.75 7.7-7.05 16.23-18.75 17.42-29.55q2.66-24.32-3.59-47.81c-1.61-6.05-.8-12.72-1.23-19a.6.6 0 00-.53-.56c-2.84-.33-5.69.77-8.04.63-9.24-.53-15.5-5.95-17.72-14.96-2.21-8.95-1.87-23.93 7.05-29.38 3.41-2.08 8.06-2.31 12.19-2.95a.55.54-6.9 00.46-.58q-.17-2.23-.73-4.4-4.35-17.1-9.28-34.04-2.72-9.34-7.46-16.23-.28-.4.19-.24c7.76 2.76 18.2 2.68 27.39 2.18 10.47-.57 36.85-7.99 34.41-23.46q-1.45-9.12-3.82-16.71c-5.51-17.64-18.5-27.22-33.49-37.02q-5.18-3.39-10.56-8.54a1.16 1.15-68.6 01-.36-.84c.11-7.88-.85-16.93-11.21-16.69a.54.53 86.5 01-.54-.49c-1.25-12.18-8.66-25.02-16.95-33.66-3.61-3.77-8.61-6.96-13.01-10.41-2.98-2.34-6.43-2.03-9.88-1.43a.45.45 0 01-.53-.44v-6.37a.7.7 0 01.61-.69c3.08-.41 5.04 3.36 7.85 2.07 5.2-2.39 2.56-11.73-3.71-7.75q-2.02 1.28-4.46 1.44a.49.49 0 01-.53-.49v-11.38a.48.48 0 01.86-.3q2.16 2.71 5.37 2.07c5.36-1.07 1.84-12.12-5.31-4.93a.65.65 0 01-1.11-.42q-.15-2.55-1.89-4.43a.72.71-48.5 01-.05-.91l3.04-4.07a1.5 1.49-25.8 00.31-.88c.11-3.49 1.5-11.59-1.59-13.89a1.34 1.31-78.6 01-.5-.77c-.55-2.4-1.67-3.45-4.29-3.51q-4.89-.1-9.79-.26-3.99-.13-4.15 3.59a.83.83 0 01-.47.7c-4.37 2.1-2.65 10.04-2.47 13.99a1.37 1.36 22.7 00.36.87c5.09 5.48 1.36 4.18 1.42 9.53a.72.72 0 01-1.13.61l-3.61-2.47a.98.98 0 00-.95-.09q-4.82 2.13-2.51 6.07c1.96 3.35 5.23.51 7.37-.62a.4.39 76 01.58.35v10.65a.91.9 84.2 01-.72.89l-1.79.36a1.02 1.01-27 01-.96-.31q-2.69-2.94-5.84-1.63c-6.65 2.76-.33 11.43 4.83 7.08 1.45-1.22 2.21-1.25 3.98-1.06a.54.53-86 01.48.56q-.39 10.46-.17 20.94.07 3.28 3.16 3.54a.5.5 0 01.46.52c-1.1 26.27-.41 60.43-1.7 90.74a1.53 1.52 80.1 01-.94 1.35q-26.29 10.87-54.72 13.48-4.42.4-10.1-.21-13.16-1.4-24.16-.84c-5.94.3-10.66 2.54-15.37 6.85-7.32 6.7-16.67 13.15-14.05 24.83a1.18 1.17-34.6 01-.17.91c-4.86 7.46-4.04 19.98-2.59 28.41a.52.51-5.2 01-.51.6zm248.91-214.19c15.37 6.01 15.11 21.37 7.68 33.42a.43.42 25.8 00.22.62q1.23.43 2.09-.8c4.09-5.83 8.83-17.28 6.45-24.72-3.73-11.69-14.96-17.75-14.73-31.29a.67.66-83 00-.51-.66l-2.35-.55a.61.61 0 00-.75.55q-.67 9.48-1.58 18.94c-.73 7.55-1.64 20.03-3 30.02q-.35 2.58-.36 8.02a.4.39 6.9 01-.49.38q-7.62-1.92-14.22 2.26c-4.51 2.86-7.46 10.07-2.42 13.43 6.4 4.28 18.77-1.36 19.94-9.02q.89-5.86.98-11.8c.03-1.86.75-3.63.83-5.47q.52-11.53 1.7-23.01a.38.38 0 01.52-.32zM116 258.54c-6.08-1.72-17.86 6.24-16.36 13.14 1.56 7.17 11.7 5.27 16.17 1.85 4.05-1.7 5.87-4.57 6.13-9.15q1.13-19.78 1.24-39.36a.59.59 0 01.89-.51c4.82 2.79 10.65 5.64 11.97 11.5q2.54 11.35-3.07 22-.24.45.24.26c3.75-1.5 3.71-4.99 4.91-7.61q7.5-16.3-4.93-29.58c-6.14-6.56-9.09-9.87-9.64-19.31a.72.72 0 00-.7-.69l-2.79-.11a.53.53 0 00-.55.54c.35 18.92-.95 37.69-1.27 56.47a.54.53-.6 01-.53.53l-1.71.03zm372.44 13.06c-1.67-.29-3.12-.97-4.8-.75q-7.06.91-12.33 7.23c-4.96 5.96 1.01 11.93 7.21 11.18 8.19-.99 13.69-6.19 14.27-14.39q1.25-17.66 3.16-35.69a.75.74 14.4 011.03-.6c14.09 6 14.44 21.32 6.74 32.77q-.29.44.23.47 1.84.12 2.94-1.49c6.91-10.19 8.75-23.29.57-33.56-2.44-3.07-5.53-6.34-7.3-9.84-1.84-3.64-1.77-7.56-2.04-11.55a.68.68 0 00-.68-.64l-2.64.01a.68.67 1.8 00-.68.63c-1.37 18.06-3.89 37.17-5.15 55.81a.45.44 6.9 01-.53.41zm-385.851 52.95a1.2.81 2.9 00-1.158-.869 1.2.81 2.9 00-1.24.748 1.2.81 2.9 001.158.87 1.2.81 2.9 001.24-.748zm352.551 98.39c-7.56-3.75-25.4 7-17.53 14.96 6.35 6.42 19.74.27 20.84-8.06 1.48-11.18 2.19-22.37 3.42-33.59.22-1.96-.17-4.7.51-7.05a.37.37 0 01.56-.21q3.37 2.11 6.58 4.5c8.76 6.52 6.24 21.7.36 29.56q-.31.42.2.35 2.75-.38 4.13-3.17c5.02-10.12 8.27-19.5 1.51-29.88-5.61-8.64-12.5-12.42-11.36-24.33a.59.59 0 00-.55-.65l-2.4-.15a.68.68 0 00-.73.62l-5.16 56.89a.26.26 0 01-.38.21zm-282.72-8.66c4.48 7.92 3.8 13.84 2.1 22.61q-.11.52.39.35 2.04-.71 2.55-3.02c2.87-12.85 3.09-23.7-8.6-32.11-7.48-5.38-12.59-9.22-14.8-17.82a.77.76-9.5 00-.8-.57l-2.05.16a.56.55 83.4 00-.51.65q1.54 8.85 2.92 17.72c1.98 12.74 4.8 25.48 7.02 38.29a.6.59-5.3 01-.58.69c-2.4.01-4.64-.35-6.82.83q-7.51 4.07-8.72 11.95c-.69 4.53 3.21 7.47 7.56 6.87 6.83-.96 15.15-8.01 13.13-15.82-3-11.63-4.55-24.46-6.61-36.68a1.4 1.39-89 011.65-1.6c4.49.88 9.76 3.22 12.17 7.5z"/><path fill="#fae5af" d="M45.63 78.13c-2.84 2.85-9.31 10.38-12.71 11.75a.72.71 81.5 01-.98-.73c1.35-15.82-.99-31.74.5-47.73.65-7.03 5.6-12.46 11.85-14.71Q48 25.37 58.28 25.3q18.71-.14 37.52.01 2.85.02.83 2.02-25.04 24.77-51 50.8z"/><path fill="#1e1d1c" d="M204.33 120.06q.28 6.68.74 8.38c.98 3.6.92 7.92 1.31 10.74q1.27 9.31 2.5 18.63c1.06 8.01-4.37 14.32-12.03 15.79-7.29 1.41-11.29-4.95-7.46-10.92q3.84-5.98 10.4-8.34c1.33-.48 2.97-.09 4.45-.66a.81.8-9.3 00.51-.7c.14-2.66-.9-4.67-1.03-7.1-.19-3.52-1.35-6.78-1.22-10.39q.02-.49-.21-.93c-1.36-2.59-.95-5.37-1.23-7.54q-1.77-13.89-3.79-27.74-.13-.94-.38-1.87a.49.49 0 01.43-.61l3.06-.24a.56.55-7.5 01.59.45c3.53 19.11 28.07 19.53 23.15 42.85-.82 3.86-1.66 8.09-4.25 11.18a.41.41 0 01-.71-.35c2.75-13.47 2.6-28.05-14.36-31.04a.4.4 0 00-.47.41zM172.88 338.08c-1.45-8.43-2.27-20.95 2.59-28.41a1.18 1.17-34.6 00.17-.91c-2.62-11.68 6.73-18.13 14.05-24.83 4.71-4.31 9.43-6.55 15.37-6.85q11-.56 24.16.84 5.68.61 10.1.21 28.43-2.61 54.72-13.48a1.53 1.52 80.1 00.94-1.35c1.29-30.31.6-64.47 1.7-90.74a.5.5 0 00-.46-.52q-3.09-.26-3.16-3.54-.22-10.48.17-20.94a.54.53-86 00-.48-.56c-1.77-.19-2.53-.16-3.98 1.06-5.16 4.35-11.48-4.32-4.83-7.08q3.15-1.31 5.84 1.63a1.02 1.01-27 00.96.31l1.79-.36a.91.9 84.2 00.72-.89v-10.65a.4.39 76 00-.58-.35c-2.14 1.13-5.41 3.97-7.37.62q-2.31-3.94 2.51-6.07a.98.98 0 01.95.09l3.61 2.47a.72.72 0 001.13-.61c-.06-5.35 3.67-4.05-1.42-9.53a1.37 1.36 22.7 01-.36-.87c-.18-3.95-1.9-11.89 2.47-13.99a.83.83 0 00.47-.7q.16-3.72 4.15-3.59 4.9.16 9.79.26c2.62.06 3.74 1.11 4.29 3.51a1.34 1.31-78.6 00.5.77c3.09 2.3 1.7 10.4 1.59 13.89a1.5 1.49-25.8 01-.31.88l-3.04 4.07a.72.71-48.5 00.05.91q1.74 1.88 1.89 4.43a.65.65 0 001.11.42c7.15-7.19 10.67 3.86 5.31 4.93q-3.21.64-5.37-2.07a.48.48 0 00-.86.3v11.38a.49.49 0 00.53.49q2.44-.16 4.46-1.44c6.27-3.98 8.91 5.36 3.71 7.75-2.81 1.29-4.77-2.48-7.85-2.07a.7.7 0 00-.61.69v6.37a.45.45 0 00.53.44c3.45-.6 6.9-.91 9.88 1.43 4.4 3.45 9.4 6.64 13.01 10.41 8.29 8.64 15.7 21.48 16.95 33.66a.54.53 86.5 00.54.49c10.36-.24 11.32 8.81 11.21 16.69a1.16 1.15-68.6 00.36.84q5.38 5.15 10.56 8.54c14.99 9.8 27.98 19.38 33.49 37.02q2.37 7.59 3.82 16.71c2.44 15.47-23.94 22.89-34.41 23.46-9.19.5-19.63.58-27.39-2.18q-.47-.16-.19.24 4.74 6.89 7.46 16.23 4.93 16.94 9.28 34.04.56 2.17.73 4.4a.55.54-6.9 01-.46.58c-4.13.64-8.78.87-12.19 2.95-8.92 5.45-9.26 20.43-7.05 29.38 2.22 9.01 8.48 14.43 17.72 14.96 2.35.14 5.2-.96 8.04-.63a.6.6 0 01.53.56c.43 6.28-.38 12.95 1.23 19q6.25 23.49 3.59 47.81c-1.19 10.8-9.72 22.5-17.42 29.55-13.62 12.47-34.82 17.79-53 17.75a.59.58 4.6 00-.58.49c-.79 4.41-2.67 6.97-3.89 10.71a1.42 1.42 0 000 .9l5.27 15.91a1.25 1.24 73.3 01-.86 1.6q-7.03 1.91-13.99-.11a.78.78 0 01-.52-1q2.24-6.86 4.17-13.63c1.07-3.78.2-6.4-1.7-9.52q-.26-.41-.29-.89l-.25-3.77a.55.55 0 00-.56-.52c-38.87.15-74.87-20.84-72.62-64.44q.67-13.04 4.77-30.24c1.45-6.12 1.19-12.08 1.27-18.24a.52.51.6 01.52-.5c9.26.06 19.95-.81 23.92-10.85q4.22-10.69 1.21-23.66c-2.56-11.02-8.59-12.23-18.68-12.83a.56.55 8.3 01-.51-.68l3.48-14.55a.28.28 0 00-.33-.34c-12.32 2.4-19.32 4.42-28.51 6.13-4.51.84-8.57 2.02-13.39 3q-10.43 2.13-20.86 4.32c-1.32.28-2.16.86-3.16 1.62a1.18 1.18 0 01-1.87-.69l-2.36-10.69a.67.67 0 00-.73-.52q-9.18 1.03-18.26 2.45c-4.18.65-3.55-4.76-2.1-6.78a1.13 1.13 0 01.73-.46q11.05-1.74 22.23-1.83a.52.51-5.2 00.51-.6zm125.66-236.35l-.06-1.22a.56.55-10.9 00-.73-.49l-.89.29a.78.76 81.5 00-.52.72q-.14 9.28-.17 18.57c-.01 1.12.73 1.63 1.78 1.38a.72.71 83.4 00.55-.7v-14.49a.55.54 5.3 01.65-.53q.45.08.74.49.31.45.8.68 3.31 1.56 6.93 1.61a.61.61 0 01.6.6l.11 11.45a.6.6 0 00.72.59l1.48-.3a.85.84-18.1 00.6-1.17c-1.12-2.52.55-17.58-1.23-18.13a.82.82 0 00-.87.26l-.75.9a1.12 1.11 20.8 01-.9.4l-8.31-.38a.56.56 0 01-.53-.53zm21.17 27.12l.54-1.08q.45-.91-.55-.74l-1.62.26q-1.11.18-.25.9l1.01.84a.57.57 0 00.87-.18zm2.42 15.436a1.26.99 81.3 00.789-1.396 1.26.99 81.3 00-1.17-1.095 1.26.99 81.3 00-.788 1.395 1.26.99 81.3 001.17 1.096zm-16.17 19.964q-2.91 1.74-4.39 4.23c-2.34 2.75-3.34 9.05 1.68 9.23 4.54-1.45 8.23-3.61 13.04-5.04q5.21-1.56 9.5-5.02.2-5.05-2.67-8.53a1.41 1.4 76.2 00-.82-.5c-6-1.29-12.12 1.79-16.34 5.63zm26.57 21.41q-1.27-1.19-.93-2.45.51-8.87-7.6-10.42-2.03-.7-4 .17c-3.71.98-7.48 3.66-10.96 5.26-4.28 1.6-9.01 4.01-7 9.12 2.49 6.36 15.09 2.44 19.52 1.54 1.86-.37 4.23-4.36 5.54-2.5-1.9 4.24-7.92 5.54-12.1 5.91q-4.04 1.34-8.33 1.02a.79.78-75.4 00-.79.47l-1.17 2.6a1.16 1.15 43.6 00.03 1.01c4.29 8.18 16.27 5.93 23.75 3.33q5.26-1.83 7.6-5.4 1.05-4.4-2.25-7.41-.37-.34.09-.14 2.32 1.01 3.67 2.96c4.53 6.52-6.59 12.56-10.83 13.92l-11.27 1.81h-.5l-6-.92-1-.21a.53.52-76.2 00-.62.38q-.85 3.19.05 6.35a1.2 1.19-85.6 00.65.76q6.79 3.12 14.17 2.64l1.79-.21q6.58.52 11.53-3.8a.5.5 0 01.78.61l-2.57 4.92a.72.71-52 00.09.79q1.69 1.98 4.38 2.02 1.7.89 3.5 0 6.62-.11 8.79-6.04c1.25-4.11.57-13.02-1.25-16.75q-3.82-20.04-19.41-33.01-.67-.56-.58.3l.55 5.23a.87.85-84.3 00.59.73c4.2 1.32 10.65 7.79 7.74 12.89q-.38.66-.42-.1-.27-4.24-3.46-7.1-.69-.62-.39.26 1.75 5.15-1.38 9.46zM344 224.29l-3.17.29a.39.39 0 00-.35.46c1.45 7.56 14.12 5.67 18.57 1.9q5.33-8.32 3.02-18.2-1.2-5.13-6.35-4.64a.42.42 0 00-.38.48c1.01 7.49-2.82 18.17-11.34 19.71zm-28.41 42.53c13.28 6.87 29.22 12.67 44.41 13.07 9.69.25 20.81.93 29.84-2.71a1.22 1.21 59.6 00.49-1.89c-11.52-14.22-24.04-28.81-37.95-40.47a1.14 1.14 0 00-.88-.27c-8.57.95-16.12-.05-17.74-10.15a.73.72.6 00-.59-.6q-4.91-.84-7.79-4.82a.81.81 0 00-.82-.31q-5.84 1.26-11.61-.51a1.31 1.31 0 00-1.7 1.26q.05 19.19.61 39.39c.1 3.88-.02 6.08 3.73 8.01zm8.97 47.43q1.93 3.59 3.39 6.91c1.74 3.94-4.82 4.75-7.12 4.82a1.47 1.44 60.6 01-.83-.24q-2.5-1.7-5.42-.66a.67.67 0 00-.45.65q.19 17.56.79 35.09c.06 1.78-.23 3.67-.46 5.43q-.83 2.07-.9 3.31-.53 10.22-.02 20.44l.25 9.5-.16 4.05a.4.4 0 00.44.42l6.35-.69a.61.61 0 01.67.65l-.37 5.14a.86.86 0 01-.75.79l-5.73.76a.58.57-2.5 00-.49.53l-.67 13.04-1.48 17.48a1.2 1.2 0 001.55 1.25l3.29-1.03q.73 1.89-.15 3.86-6.93 27.52-8.24 37.56-1.45 11.21.46 29.27a.56.55 87.1 00.55.5q10.44.07 20.48-1.94 15.25-2.63 27.96-11.6c19.35-14.84 22.46-36.82 18.36-59.35q-2.07-11.33-4.69-19.4 1.26-4.43.45-8.75a.49.48 77.5 00-.59-.38c-6.29 1.5-10.95-.3-16.78-2.12q-10.26-5.16-12.8-14.98c-4.86-18.86-3.29-35.43 17.81-41.47l3.72-.33a.51.51 0 00.46-.61l-.65-3.4c-3.56-17.44-7.45-38.64-21.29-51.29-8.13-8.96-18.83-12.11-28-19.33q-.79-.63-.77.39l.88 34.46a.76.76 0 001.09.67q3.52-1.69 7.38-1.66a1.04 1.04 0 01.77.34l1.71 1.92zm-65.13-9.42c-5.14 6.61-7.35 13.77-9.19 21.85a.38.37.9 00.44.45l41.67-8.53a1.5 1.49 84.9 001.19-1.43l.89-36.94a.29.29 0 00-.4-.27c-15.07 6.52-25.13 12.71-34.6 24.87zm-75.97-10.58q-4.67 3.45-4.19 9.21.04.58.47.18l2.26-2.1c11.26-8.97 21.23-6.1 32.77.24.95.52 1.71.53 2.73.51l1.15 1.12q.36.34.44-.15.99-6.25-4.23-9.92-12.06-9.74-26.6-3.34-1.92.84-4.8 4.25zm41.56 13.54c1.9 2.49 5.65 2.06 5.96 5.95.23 2.96 1.22 5.85.93 8.73q-.39 3.87-1.08 7.82a.38.38 0 00.44.45l12.53-2.09a.8.78-86.3 00.63-.57c2.32-8.35 6.02-21.74 11.75-28.05q2.04-2.24-.83-1.29c-10.42 3.47-20.9 3.05-31.53 2.31a.5.5 0 00-.54.46q-.28 3.64 1.74 6.28zm-37.98 25.46c1.11 5.33 6.56 12.32 12.57 7.77a.74.73 64.9 00.27-.77l-2.16-8.64c.01-1.83-.81-12.87 1.48-12.88a.44.44 0 01.44.51q-1.03 6.65.9 13.01.54 4.87 3.58 8.7a1.48 1.45-11.9 00.8.51c5.67 1.29 8.24-2.2 8.46-7.37a.36.35 83 00-.45-.36q-5.25 1.46-9.93-1.69 5.89.21 11.05-2.56a1.05 1.04 82.1 00.54-.72c1.9-9.65-2.65-21.58-14.92-13.74a.39.38 65.3 01-.58-.22q-.85-2.92 2.31-4.66c7.35-4.05 14.31 1 15.86 8.12q1.41 6.5.24 14.45l-1.09 5.42a.69.69 0 00.37.76l2.26 1.12a1.39 1.37 47.7 001.12.06q4.69-1.77 6.33-6.53a.27.27 0 00-.38-.33q-3.71 1.95-7.36-.17c10.2-.82 12.74-12.46 7.42-19.52a1.5 1.43-9.1 00-.77-.53l-8.44-2.44a.58.58 0 01-.3-.91l1.25-1.63a.57.56 36.1 00-.13-.81c-1.57-1.05-3.29-1.43-4.81-2.52-15.46-11.04-31.05-5.37-37.05 12.25q-.18.54.35.31 3.51-1.55 6.36 1.12a.48.47 21.9 00.8-.34c.17-13.77 15.18-6.36 12.96-3.61a.46.45-44.7 01-.71 0q-3.14-3.96-7.81-1.81a1.33 1.31-89.2 00-.66.65q-4.76 9.86-.17 20zm-10.73 5.3q2.28 6.26 8.52 7.52a1.16 1.15-59.4 00.98-.26l3.4-2.94a.59.59 0 00-.01-.9q-3.43-2.82-5.16-6.97-2.33-7.39-1.69-15.07a.91.9 20.6 00-.37-.8q-2.98-2.14-4.48.9-4.16 8.45-1.19 18.52zm141.315-18.78a2.02.87-14.6 00-2.174-.332 2.02.87-14.6 00-1.736 1.351 2.02.87-14.6 002.174.333 2.02.87-14.6 001.736-1.351zm-69.855 14.91a.92.92 0 00.65 1.7c5.07-1.08 43.51-8.67 45.05-10.85a.57.57 0 00-.57-.89q-16.27 2.99-31.18 6.51c-4.59 1.08-9.02.68-13.95 3.53zm24.48.11l-24.99 5.64a.97.96-87.3 00-.71.65q-1.78 5.57-2.55 11.36a.41.41 0 00.46.46q1.16-.16 1.63-.03c22.39 5.7 25.23 21.93 20 41.85-2.19 8.32-7.71 13.45-15.59 16.32l-5.75 1.42-8.35.03a.53.52-86.9 00-.52.47c-.3 2.86.08 5.81-.54 8.52-3.49 15.15-6.09 29.69-4.44 45.29 2.03 19.2 15.17 33.25 32.6 40.27q5.27 2.38 10.96 3.46 12 2.71 24.29 2.71a.58.57 2.9 00.56-.5c1.75-13.84 1.56-26.69-1.7-40.76q-3.46-14.88-7.36-29.66 1.88.03 3.64.96a.89.89 0 001.3-.78l.02-4.97-1.25-19.75-.44-6.47a.63.62-88.3 00-.53-.57c-4.07-.58-6.26-.4-6.14-5.47a1.05 1.05 0 011.12-1.03l4.69.32a.67.66 2.5 00.71-.64q.47-15.65.36-31.29c-.02-4.22-1.06-9.09-1.02-13.1q.16-14.51.86-28.49a.69.69 0 00-.84-.71l-20.48 4.49zm-44.8 2.84q-1.53 2.83-4.4 4.17a.55.52-12.1 00-.3.44l-.01.3a.17.17 0 00.22.17q10.93-3.47 15.27-3.82 4.36-.34 4.25-3.91a.42.42 0 00-.54-.39q-6.54 1.81-13.33 2.29a1.46 1.45-77.6 00-1.16.75zm-13.04 2.98c-3.37 4.55-7.87 4.8-12.51 2.04a.75.74 37.9 00-.91.11q-4.04 4.1-9.22 1.46a.62.6 29 00-.8.22c-4.63 7.49-10.67 2.59-15.87-.31a1.13 1.13 0 00-1.64 1.26l2.09 8.35a.53.53 0 00.66.38c13.48-3.62 26.92-7.16 40.56-10.16 1.28-.28 2.66-.02 3.98-.41q.87-.25-.03-.35-3.29-.35-5.63-2.64a.45.45 0 00-.68.05zm90.63 61.14q.64-1.82-.25-3.5c-.06-3.95.27-30.37-.88-31.63a.76.76 0 00-1.24.16c-.15.29-.46.97-.46 1.32q-.25 17.86-.44 35.73a.65.65 0 00.58.65l1.99.23a.56.56 0 00.61-.7q-.31-1.19.09-2.26zm6.02-34.054a1 1 0 00-1.012-.988l-2.22.027a1 1 0 00-.987 1.012l.439 35.937a1 1 0 001.012.988l2.22-.027a1 1 0 00.987-1.012l-.439-35.937zm-11.265.372a1.15 1.15 0 00-1.14-1.16l-1.62-.014a1.15 1.15 0 00-1.16 1.14l-.31 35.438a1.15 1.15 0 001.14 1.16l1.62.014a1.15 1.15 0 001.16-1.14l.31-35.438zm48.615 32.552c.55.8 5.57 5.45 6.34 5.12q.46-.19.05-.47c-8.14-5.63-9.72-13.7-10.13-23.27a.31.31 0 00-.47-.25c-4.34 2.75 2.18 15.89 4.21 18.87zm-85.03-16.93c-1.26 10.77-2.87 14.93-10.76 22.01q-.39.35.07.1 4.99-2.67 7.82-6.93 4.69-7.06 3.03-15.19-.1-.51-.16.01zm25.56 23.64c.47 1.48 4.84 1.68 4.53-.21a.73.72-4.1 00-.72-.62h-3.2a.64.64 0 00-.61.83zm29.627-.25a2.47.97-7.9 00-2.58-.62 2.47.97-7.9 00-2.314 1.3 2.47.97-7.9 002.58.62 2.47.97-7.9 002.314-1.3zm-18.804.627a.83.83 0 00-.768-.887l-2.714-.194a.83.83 0 00-.887.768l-.037.519a.83.83 0 00.768.887l2.714.194a.83.83 0 00.887-.768l.037-.519zm2.647-.827a.95.93-10.7 00-.7 1.01q.18 1.62 2.34.94a.98.97-31 00.41-1.62q-.69-.7-2.05-.33zm9.27.68q-2.75-2-4.79.33-.74.85.39.86l4 .01a.67.66-26.7 00.4-1.2zm-12.92 35.91c.98.52 1.55-.01 1.55-1q-.03-15.34-.9-30.67a.67.67 0 00-.67-.64l-2.38-.01a.69.68-2.3 00-.69.74l2.07 30.02a1.92 1.9 12.2 001.02 1.56zm5.57-31.99l-1.68-.34a.66.66 0 00-.79.66l.77 31.19a.74.74 0 00.81.72c1.08-.11.72-1.82.73-2.33q.4-14.85.46-29.53a.37.36 6.5 00-.3-.37zm2.95.53c-.06 10.11-.38 20.21-.32 30.33 0 1.09.76 1.76 1.73.79a1.51 1.5-20.2 00.45-.97l2.36-29.76a.85.84-88.1 00-.85-.91l-2.87.01a.51.51 0 00-.5.51z"/><path fill="#fff" d="M299.07 102.26l8.31.38a1.12 1.11 20.8 00.9-.4l.75-.9a.82.82 0 01.87-.26c1.78.55.11 15.61 1.23 18.13a.85.84-18.1 01-.6 1.17l-1.48.3a.6.6 0 01-.72-.59l-.11-11.45a.61.61 0 00-.6-.6q-3.62-.05-6.93-1.61-.49-.23-.8-.68-.29-.41-.74-.49a.55.54 5.3 00-.65.53v14.49a.72.71 83.4 01-.55.7c-1.05.25-1.79-.26-1.78-1.38q.03-9.29.17-18.57a.78.76 81.5 01.52-.72l.89-.29a.56.55-10.9 01.73.49l.06 1.22a.56.56 0 00.53.53z"/><path fill="#1e1d1c" d="M420.76 124.81q-1.18 11.48-1.7 23.01c-.08 1.84-.8 3.61-.83 5.47q-.09 5.94-.98 11.8c-1.17 7.66-13.54 13.3-19.94 9.02-5.04-3.36-2.09-10.57 2.42-13.43q6.6-4.18 14.22-2.26a.4.39 6.9 00.49-.38q.01-5.44.36-8.02c1.36-9.99 2.27-22.47 3-30.02q.91-9.46 1.58-18.94a.61.61 0 01.75-.55l2.35.55a.67.66-83 01.51.66c-.23 13.54 11 19.6 14.73 31.29 2.38 7.44-2.36 18.89-6.45 24.72q-.86 1.23-2.09.8a.43.42 25.8 01-.22-.62c7.43-12.05 7.69-27.41-7.68-33.42a.38.38 0 00-.52.32z"/><path fill="#fbfee1" d="M319.71 128.85a.57.57 0 01-.87.18l-1.01-.84q-.86-.72.25-.9l1.62-.26q1-.17.55.74l-.54 1.08z"/><ellipse fill="#fff" transform="rotate(81.3 77.673 258.996)" rx="1.26" ry=".99"/><path fill="#fff" d="M325.79 167.65c-7.07-1.36-11.76 1.59-17.06 4.84a1.29 1.29 0 01-1.96-.95l-.81-7.29c4.22-3.84 10.34-6.92 16.34-5.63a1.41 1.4 76.2 01.82.5q2.87 3.48 2.67 8.53zM349.29 197q1.25 6.69 1 13.5-4.71 6.66-12.98 5.06a1.08 1.07 16.5 01-.8-1.46l2.25-5.56q.32-.77-.49-.57-1.87.46-2.18 2.31a.79.78 5.7 01-.81.66l-6.42-.25a1.06 1.02-61.3 00-.64.2l-.22.15q-5.8-.57-11.67-.29c-2.34.11-3.58-1.01-3.75-3.26a.79.78-15.9 01.43-.76q.85-.46 1.99-.27h.5q6.1 1.11 11.27-1.81c4.24-1.36 15.36-7.4 10.83-13.92q-1.35-1.95-3.67-2.96-.46-.2-.09.14 3.3 3.01 2.25 7.41-5.41.7-10.54 1.91c-5.27 1.24-9.98 1.74-10.55-4.94 4.18-.37 10.2-1.67 12.1-5.91q2.74.29 5.43-.72 3.13-4.31 1.38-9.46-.3-.88.39-.26 3.19 2.86 3.46 7.1.04.76.42.1c2.91-5.1-3.54-11.57-7.74-12.89a.87.85-84.3 01-.59-.73l-.55-5.23q-.09-.86.58-.3 15.59 12.97 19.41 33.01z"/><path fill="#939699" d="M305.96 164.25l.81 7.29a1.29 1.29 0 001.96.95c5.3-3.25 9.99-6.2 17.06-4.84q-4.29 3.46-9.5 5.02c-4.81 1.43-8.5 3.59-13.04 5.04q-1.79-4.42-1.68-9.23 1.48-2.49 4.39-4.23z"/><path fill="#abadae" d="M301.57 168.48q-.11 4.81 1.68 9.23c-5.02-.18-4.02-6.48-1.68-9.23zM324 172.79l-4 .17q1.97-.87 4-.17z"/><path fill="#fff" d="M324 172.79q8.11 1.55 7.6 10.42-8.92.6-17.41 3.3a.52.52 0 01-.66-.36q-1.16-4.56-4.49-7.93c3.48-1.6 7.25-4.28 10.96-5.26l4-.17z"/><path fill="#939699" d="M309.04 178.22q3.33 3.37 4.49 7.93a.52.52 0 00.66.36q8.49-2.7 17.41-3.3-.34 1.26.93 2.45-2.69 1.01-5.43.72c-1.31-1.86-3.68 2.13-5.54 2.5-4.43.9-17.03 4.82-19.52-1.54-2.01-5.11 2.72-7.52 7-9.12zM315 192.29c.57 6.68 5.28 6.18 10.55 4.94q5.13-1.21 10.54-1.91-2.34 3.57-7.6 5.4c-7.48 2.6-19.46 4.85-23.75-3.33a1.16 1.15 43.6 01-.03-1.01l1.17-2.6a.79.78-75.4 01.79-.47q4.29.32 8.33-1.02zM349.29 197c1.82 3.73 2.5 12.64 1.25 16.75l-.25-3.25q.25-6.81-1-13.5z"/><path fill="#1e1d1c" d="M115.81 273.53q-4 .25-7.88 1.21c-6.43 1.61-7.67-5.68-4.1-9.58q4.28-4.66 10.85-5.48.85-.11 1.32-1.14l1.71-.03a.54.53-.6 00.53-.53c.32-18.78 1.62-37.55 1.27-56.47a.53.53 0 01.55-.54l2.79.11a.72.72 0 01.7.69c.55 9.44 3.5 12.75 9.64 19.31q12.43 13.28 4.93 29.58c-1.2 2.62-1.16 6.11-4.91 7.61q-.48.19-.24-.26 5.61-10.65 3.07-22c-1.32-5.86-7.15-8.71-11.97-11.5a.59.59 0 00-.89.51q-.11 19.58-1.24 39.36c-.26 4.58-2.08 7.45-6.13 9.15z"/><path fill="#fff" d="M359.05 226.94l-1.52-.37a1.38 1.33 36.2 00-.94.13c-3.91 2.12-8.72.3-12.38-1.78a.43.42-75.7 01-.21-.37v-.26c8.52-1.54 12.35-12.22 11.34-19.71a.42.42 0 01.38-.48q5.15-.49 6.35 4.64 2.31 9.88-3.02 18.2z"/><path fill="#abadae" d="M326.77 204.65q-5.17 2.92-11.27 1.81l11.27-1.81zM309 205.54q2.01 1.89.72 3.84a.69.69 0 00.07.86q2 2.18 5 2.67a1.52 1.49-53.1 00.92-.14q1.36-.73 2.18.22a1.49 1.49 0 00.9.49q1.57.24 2.42-1.05a.55.54-28.8 011 .29l.04 2.74q-7.38.48-14.17-2.64a1.2 1.19-85.6 01-.65-.76q-.9-3.16-.05-6.35a.53.52-76.2 01.62-.38l1 .21z"/><path fill="#939699" d="M309 205.54l6 .92q-1.14-.19-1.99.27a.79.78-15.9 00-.43.76c.17 2.25 1.41 3.37 3.75 3.26q5.87-.28 11.67.29.11 1.43-1.08 2.27a.87.86-51.5 01-.83.1l-1.49-.62a.5.5 0 00-.69.38q-.17 1.05.13 2.08l-1.79.21-.04-2.74a.55.54-28.8 00-1-.29q-.85 1.29-2.42 1.05a1.49 1.49 0 01-.9-.49q-.82-.95-2.18-.22a1.52 1.49-53.1 01-.92.14q-3-.49-5-2.67a.69.69 0 01-.07-.86q1.29-1.95-.72-3.84z"/><path fill="#abadae" d="M350.29 210.5l.25 3.25q-2.17 5.93-8.79 6.04-1.77-.39-3.5 0-2.69-.04-4.38-2.02a.72.71-52 01-.09-.79l2.57-4.92a.5.5 0 00-.78-.61q-4.95 4.32-11.53 3.8-.3-1.03-.13-2.08a.5.5 0 01.69-.38l1.49.62a.87.86-51.5 00.83-.1q1.19-.84 1.08-2.27l.22-.15a1.06 1.02-61.3 01.64-.2l6.42.25a.79.78 5.7 00.81-.66q.31-1.85 2.18-2.31.81-.2.49.57l-2.25 5.56a1.08 1.07 16.5 00.8 1.46q8.27 1.6 12.98-5.06z"/><path fill="#1e1d1c" d="M488.97 271.19c1.26-18.64 3.78-37.75 5.15-55.81a.68.67 1.8 01.68-.63l2.64-.01a.68.68 0 01.68.64c.27 3.99.2 7.91 2.04 11.55 1.77 3.5 4.86 6.77 7.3 9.84 8.18 10.27 6.34 23.37-.57 33.56q-1.1 1.61-2.94 1.49-.52-.03-.23-.47c7.7-11.45 7.35-26.77-6.74-32.77a.75.74 14.4 00-1.03.6q-1.91 18.03-3.16 35.69c-.58 8.2-6.08 13.4-14.27 14.39-6.2.75-12.17-5.22-7.21-11.18q5.27-6.32 12.33-7.23c1.68-.22 3.13.46 4.8.75a.45.44 6.9 00.53-.41z"/><path fill="#fbfee1" d="M315.59 266.82c-3.75-1.93-3.63-4.13-3.73-8.01q-.56-20.2-.61-39.39a1.31 1.31 0 011.7-1.26q5.77 1.77 11.61.51a.81.81 0 01.82.31q2.88 3.98 7.79 4.82a.73.72.6 01.59.6c1.62 10.1 9.17 11.1 17.74 10.15a1.14 1.14 0 01.88.27c13.91 11.66 26.43 26.25 37.95 40.47a1.22 1.21 59.6 01-.49 1.89c-9.03 3.64-20.15 2.96-29.84 2.71-15.19-.4-31.13-6.2-44.41-13.07z"/><path fill="#939699" d="M341.75 219.79q-1.8.89-3.5 0 1.73-.39 3.5 0z"/><path fill="#abadae" d="M344 224.29v.26a.43.42-75.7 00.21.37c3.66 2.08 8.47 3.9 12.38 1.78a1.38 1.33 36.2 01.94-.13l1.52.37c-4.45 3.77-17.12 5.66-18.57-1.9a.39.39 0 01.35-.46l3.17-.29z"/><path d="M116 258.54q-.47 1.03-1.32 1.14-6.57.82-10.85 5.48c-3.57 3.9-2.33 11.19 4.1 9.58q3.88-.96 7.88-1.21c-4.47 3.42-14.61 5.32-16.17-1.85-1.5-6.9 10.28-14.86 16.36-13.14z"/><path fill="#939699" d="M341.5 297.46q-.53-.07-.77.17a.54.53-45 00-.01.77c6.95 6.88 9.06 12.62 12.67 20.31 2.29 4.84 2.54 10.2 4.94 15.3q.21.46.18.96c-.05.86 3.19 14.49 3.65 14.66a.44.43 12.5 00.59-.37l.04-.51.65 3.4a.51.51 0 01-.46.61l-3.72.33q-4.48-1.09-7.56 1.12c-1.94 1.39-4.06 1.97-5.46 3.26-6.76 6.27-10.06 16.06-10.02 25.28a.35.35 0 01-.66.16q-1.53-3.05-4.85-2.69-2.34-1.26-5-1.52c-5.96-.6-12.07 10.48-3.71 13.23a1.3 1.28-47 00.93-.04l3.78-1.64.74 1a1.91 1.91 0 01.35.89c.89 7.95-.88 14.24.87 23.01a.19.18 70.2 00.27.13l.31-.15a.95.94-12.4 00.5-.78l.04-.6c1.58 8.9 6.13 20.56 17.71 17.54q.12.66.6.85a.92.91-52.8 00.91-.13c5.39-4.15 6.82-13.24-1.72-15.07a.75.73-64.4 00-.74.27q-.48.62-.05 1.33-5.01 1.74-2.75 6.67l-.89.04a1.12 1.12 0 01-.86-.35c-6.6-7.1-4.85-20.81-3.48-29.74a.53.53 0 011-.14l3.79 8.29q.23.52.66.88 4.23 3.55 9.14 6.18a.83.82 38.8 00.93-.1q.3-.26.21-.73c5.83 1.82 10.49 3.62 16.78 2.12a.49.48 77.5 01.59.38q.81 4.32-.45 8.75 3.59 20.94 4.16 28.64.36 4.94-.45 18.35c-.54 9.05-6.83 18.18-12.31 24.77-1.6 1.92-4.27 3.74-5.96 6.25a.46.46 0 00.19.67q.38.18.7.07-12.71 8.97-27.96 11.6-3.88-1.05-7.72-.28c-4.65.94-7.27 1.34-11.21 1.12a1.25 1.24-1.6 01-1.17-1.1q-1.36-11.94-.14-23.77c.85-8.3 3.7-18.8 5.36-28.2.68-3.86 2.01-8.41 2.61-12.73a.59.59 0 00-.45-.65q-.3-.08-.53.22.88-1.97.15-3.86-.91-1.11-2.14-.67a.95.95 0 01-1.25-1.09q1.73-8.34.03-15.94l.67-13.04a.58.57-2.5 01.49-.53l5.73-.76a.86.86 0 00.75-.79l.37-5.14a.61.61 0 00-.67-.65l-6.35.69a.4.4 0 01-.44-.42l.16-4.05q.22.27.26.59a.5.5 0 00.53.44c.97-.06.38-8.83.41-10.07a.65.64 8.3 00-.49-.65q-.48-.12-.96.19-.51-10.22.02-20.44.07-1.24.9-3.31-.24 1.01.46 1.26a.97.96-80.7 001.29-.93c-.07-3.7-.44-7.38-.28-11.05q.46-10.49-.1-20.97-.03-.55.11-1.97c.25-2.54-1.63-4.83 1.55-6.45a.92.92 0 01.88.04c3.4 2.05 6.15.56 9.12-.56a2.59 2.59 0 001.6-1.77q1.83-7.04-4.53-9.6l-1.71-1.92a1.04 1.04 0 00-.77-.34q-3.86-.03-7.38 1.66a.76.76 0 01-1.09-.67l-.88-34.46q-.02-1.02.77-.39c9.17 7.22 19.87 10.37 28 19.33z"/><path fill="#abadae" d="M259.43 304.83c9.47-12.16 19.53-18.35 34.6-24.87a.29.29 0 01.4.27l-.89 36.94a1.5 1.49 84.9 01-1.19 1.43l-41.67 8.53a.38.37.9 01-.44-.45c1.84-8.08 4.05-15.24 9.19-21.85zm31.19-22.2q-3.41 2.44-6.96 4.1c-6.1 2.85-11.31 7.49-16.51 11.69-5.56 4.48-11.2 12.94-12.97 20.41-.49 2.07-2.02 3.43-1.92 5.86a.52.51-1.7 00.53.49q6.59-.11 12.58-2.65c2.38-1.02 4.81-.96 7.13-1.56q12.85-3.36 16.69-3.58 3.07-.18 3-3.2-.22-9.43.23-18.87c.09-1.95.08-11.38-1.25-12.65a.43.43 0 00-.55-.04z"/><path fill="#939699" d="M290.62 282.63a.43.43 0 01.55.04c1.33 1.27 1.34 10.7 1.25 12.65q-.45 9.44-.23 18.87.07 3.02-3 3.2-3.84.22-16.69 3.58c-2.32.6-4.75.54-7.13 1.56q-5.99 2.54-12.58 2.65a.52.51-1.7 01-.53-.49c-.1-2.43 1.43-3.79 1.92-5.86 1.77-7.47 7.41-15.93 12.97-20.41 5.2-4.2 10.41-8.84 16.51-11.69q3.55-1.66 6.96-4.1z"/><path fill="#fff" d="M214.86 293.34q.89 4.03 2.89 8.16.23.47-.25.79c-1.02.02-1.78.01-2.73-.51-11.54-6.34-21.51-9.21-32.77-.24l-.43-.38a.52.52 0 01-.16-.55l.09-.32q1.23-.79.7-2.57 1.6-1.33 1.26-3.47 2.88-3.41 4.8-4.25 14.54-6.4 26.6 3.34z"/><path fill="#abadae" d="M214.86 293.34q5.22 3.67 4.23 9.92-.08.49-.44.15l-1.15-1.12q.48-.32.25-.79-2-4.13-2.89-8.16zM183.46 294.25q.34 2.14-1.26 3.47-1.94.85-.7 2.57l-.09.32a.52.52 0 00.16.55l.43.38-2.26 2.1q-.43.4-.47-.18-.48-5.76 4.19-9.21zM341.5 297.46c13.84 12.65 17.73 33.85 21.29 51.29l-.04.51a.44.43 12.5 01-.59.37c-.46-.17-3.7-13.8-3.65-14.66q.03-.5-.18-.96c-2.4-5.1-2.65-10.46-4.94-15.3-3.61-7.69-5.72-13.43-12.67-20.31a.54.53-45 01.01-.77q.24-.24.77-.17z"/><path fill="#939699" d="M182.2 297.72q.53 1.78-.7 2.57-1.24-1.72.7-2.57z"/><path fill="#fbfee1" d="M225.02 307.79q-2.02-2.64-1.74-6.28a.5.5 0 01.54-.46c10.63.74 21.11 1.16 31.53-2.31q2.87-.95.83 1.29c-5.73 6.31-9.43 19.7-11.75 28.05a.8.78-86.3 01-.63.57l-12.53 2.09a.38.38 0 01-.44-.45q.69-3.95 1.08-7.82c.29-2.88-.7-5.77-.93-8.73-.31-3.89-4.06-3.46-5.96-5.95z"/><path fill="#fff" d="M218.75 333.04l-1.25-.33q1.17-7.95-.24-14.45c-1.55-7.12-8.51-12.17-15.86-8.12q-3.16 1.74-2.31 4.66a.39.38 65.3 00.58.22c12.27-7.84 16.82 4.09 14.92 13.74a1.05 1.04 82.1 01-.54.72q-5.16 2.77-11.05 2.56l-2.46.21q-1.93-6.36-.9-13.01a.44.44 0 00-.44-.51c-2.29.01-1.47 11.05-1.48 12.88q-3.18 1.87-6.61 2.31a1.57 1.53 55.2 01-.93-.18q-1.48-.84-3.14-.49-4.59-10.14.17-20a1.33 1.31-89.2 01.66-.65q4.67-2.15 7.81 1.81a.46.45-44.7 00.71 0c2.22-2.75-12.79-10.16-12.96 3.61a.48.47 21.9 01-.8.34q-2.85-2.67-6.36-1.12-.53.23-.35-.31c6-17.62 21.59-23.29 37.05-12.25 1.52 1.09 3.24 1.47 4.81 2.52a.57.56 36.1 01.13.81l-1.25 1.63a.58.58 0 00.3.91l8.44 2.44a1.5 1.43-9.1 01.77.53c5.32 7.06 2.78 18.7-7.42 19.52z"/><path fill="#abadae" d="M314.46 366.25c.23-1.76.52-3.65.46-5.43q-.6-17.53-.79-35.09a.67.67 0 01.45-.65q2.92-1.04 5.42.66a1.47 1.44 60.6 00.83.24c2.3-.07 8.86-.88 7.12-4.82q-1.46-3.32-3.39-6.91 6.36 2.56 4.53 9.6a2.59 2.59 0 01-1.6 1.77c-2.97 1.12-5.72 2.61-9.12.56a.92.92 0 00-.88-.04c-3.18 1.62-1.3 3.91-1.55 6.45q-.14 1.42-.11 1.97.56 10.48.1 20.97c-.16 3.67.21 7.35.28 11.05a.97.96-80.7 01-1.29.93q-.7-.25-.46-1.26z"/><path fill="#fff" d="M184.04 335q-2.79 3.46-7.73 3.55-2.97-10.07 1.19-18.52 1.5-3.04 4.48-.9a.91.9 20.6 01.37.8q-.64 7.68 1.69 15.07z"/><ellipse fill="#939699" transform="rotate(-14.6 1407.923 -1071.955)" rx="2.02" ry=".87"/><ellipse fill="#abadae" transform="rotate(2.9 -6358.939 2164.996)" rx="1.2" ry=".81"/><path fill="#abadae" d="M247.77 334.68c4.93-2.85 9.36-2.45 13.95-3.53q14.91-3.52 31.18-6.51a.57.57 0 01.57.89c-1.54 2.18-39.98 9.77-45.05 10.85a.92.92 0 01-.65-1.7z"/><path fill="#939699" d="M293.96 417.75c-1.02-.52-1.66.01-1.75 1.07-.19 2.23-1.01 19.19 3 18.68l-.02 4.97a.89.89 0 01-1.3.78q-1.76-.93-3.64-.96-.41-.2-.95 0a.54.53 70.5 00-.32.68c1.54 4.57 2.09 9.74 3.3 13.9q3.89 13.3 6.13 25.57c.47 2.53-.1 5.81-.16 7.66q-.36 10.62-.01 20.92a1.01 1.01 0 01-.96 1.04q-11.04.57-21.56-2.88a.97.95 34.8 00-.89.15q-.56.42-.37 1.17-5.69-1.08-10.96-3.46.78-.86 0-1.29c-5.58-3.08-11.78-6.19-16.22-10.35-8.58-8.03-14.39-18.42-15.24-30.39q-1.43-20.23 4.81-39.65c1.26-3.9 1.46-6.99 1.6-10.9a.53.53 0 01.51-.51c1-.05 6.87.3 6.58-1.05a.54.54 0 00-.47-.41l-.32-.03 5.75-1.42q.07.72.48 1.12a.81.8-33 00.86.18q10.83-4.29 15.39-14.94c.62-1.45.74-3.52 2.22-5.08q.36-.37.39.14c.41 5.71.32 10.96.49 17.19q.17 6.22-2.15 12.13a1.17 1.15 89.6 01-.64.66l-2.5 1.06-1.04-2.46q.47-.21.63-.6.78-1.84-1.16-2.32-7.13-1.78-10.12 4.05a1.64 1.6 53.6 00-.15 1.06c1.08 5.49 2.31 9.17 8.38 10.47 1.63.35 3.64-.29 5.36-.53 8.3-1.18 12.18-12.34 11.83-19.65a.66.65 3.2 00-.56-.62q-.31-.04-.67.1 1.18-8.22.65-13.43c-.39-3.86-2.5-21.3 6.56-16.03a.57.57 0 01-.16 1.04l-2.65.63a1.9 1.89-5.3 00-1.46 1.75c-.43 8.51 12.07 6.27 8.04-3.5-1.83-4.43-6.05-5.7-10.48-3.91.98-1.69-.75-1.49-1.52-1q-4.28 2.76-5.15 7.86a.68.68 0 01-.6.56l-.32.03a.54.53 85.9 01-.58-.51c-.48-12.15 1.45-20.59-9.66-28.02-4.35-2.9-8.16-5.56-13.55-6.22a1.56 1.56 0 01-1.22-2.23c.83-1.73.66-3.64 1.13-5 1.55-4.42 4.37-3.93 8.19-4.63q8.31-1.52 16.49-3.67 1.39-.37 1-1.93l20.48-4.49a.69.69 0 01.84.71q-.7 13.98-.86 28.49c-.04 4.01 1 8.88 1.02 13.1q.11 15.64-.36 31.29a.67.66 2.5 01-.71.64l-4.69-.32a1.05 1.05 0 00-1.12 1.03c-.12 5.07 2.07 4.89 6.14 5.47a.63.62-88.3 01.53.57l.44 6.47zM197.72 331.61l2.16 8.64a.74.73 64.9 01-.27.77c-6.01 4.55-11.46-2.44-12.57-7.77q1.66-.35 3.14.49a1.57 1.53 55.2 00.93.18q3.43-.44 6.61-2.31z"/><path fill="#abadae" d="M203 332.04q4.68 3.15 9.93 1.69a.36.35 83 01.45.36c-.22 5.17-2.79 8.66-8.46 7.37a1.48 1.45-11.9 01-.8-.51q-3.04-3.83-3.58-8.7l2.46-.21zM217.5 332.71l1.25.33q3.65 2.12 7.36.17a.27.27 0 01.38.33q-1.64 4.76-6.33 6.53a1.39 1.37 47.7 01-1.12-.06l-2.26-1.12a.69.69 0 01-.37-.76l1.09-5.42z"/><path fill="#fff" d="M227.45 337.63a1.46 1.45-77.6 011.16-.75q6.79-.48 13.33-2.29a.42.42 0 01.54.39q.11 3.57-4.25 3.91-4.34.35-15.27 3.82a.17.17 0 01-.22-.17l.01-.3a.55.52-12.1 01.3-.44q2.87-1.34 4.4-4.17z"/><path fill="#abadae" d="M272.25 334.79q.39 1.56-1 1.93-8.18 2.15-16.49 3.67c-3.82.7-6.64.21-8.19 4.63-.47 1.36-.3 3.27-1.13 5a1.56 1.56 0 001.22 2.23c5.39.66 9.2 3.32 13.55 6.22 11.11 7.43 9.18 15.87 9.66 28.02a.54.53 85.9 00.58.51l.32-.03a.68.68 0 00.6-.56q.87-5.1 5.15-7.86c.77-.49 2.5-.69 1.52 1-5.98 4.05-7.04 12.57-6.4 19.29q.94 9.96-.39 18.89c-.49 3.26-5.68 15.03-10.72 9.97a.55.55 0 01.39-.94q3.36.03 4.12-3.26l2.5-1.06a1.17 1.15 89.6 00.64-.66q2.32-5.91 2.15-12.13c-.17-6.23-.08-11.48-.49-17.19q-.03-.51-.39-.14c-1.48 1.56-1.6 3.63-2.22 5.08q-4.56 10.65-15.39 14.94a.81.8-33 01-.86-.18q-.41-.4-.48-1.12c7.88-2.87 13.4-8 15.59-16.32 5.23-19.92 2.39-36.15-20-41.85q-.47-.13-1.63.03a.41.41 0 01-.46-.46q.77-5.79 2.55-11.36a.97.96-87.3 01.71-.65l24.99-5.64zM184.04 335q1.73 4.15 5.16 6.97a.59.59 0 01.01.9l-3.4 2.94a1.16 1.15-59.4 01-.98.26q-6.24-1.26-8.52-7.52 4.94-.09 7.73-3.55z"/><path fill="#fff" d="M201.9 342.65c4.64 2.76 9.14 2.51 12.51-2.04a.45.45 0 01.68-.05q2.34 2.29 5.63 2.64.9.1.03.35c-1.32.39-2.7.13-3.98.41-13.64 3-27.08 6.54-40.56 10.16a.53.53 0 01-.66-.38l-2.09-8.35a1.13 1.13 0 011.64-1.26c5.2 2.9 11.24 7.8 15.87.31a.62.6 29 01.8-.22q5.18 2.64 9.22-1.46a.75.74 37.9 01.91-.11z"/><path fill="#abadae" d="M359.26 353.09c-21.1 6.04-22.67 22.61-17.81 41.47q2.54 9.82 12.8 14.98.09.47-.21.73a.83.82 38.8 01-.93.1q-4.91-2.63-9.14-6.18-.43-.36-.66-.88l-3.79-8.29a.53.53 0 00-1 .14c-1.37 8.93-3.12 22.64 3.48 29.74a1.12 1.12 0 00.86.35l.89-.04q1.17.95 2.59 1.06a.53.52-70.6 01.39.82c-2.47 3.56-6.22-.19-7.85-2.94-7.18-12.11-.46-26.15-4.91-39.93q-.14-.45-.46-.81l-2.8-3.19q3.32-.36 4.85 2.69a.35.35 0 00.66-.16c-.04-9.22 3.26-19.01 10.02-25.28 1.4-1.29 3.52-1.87 5.46-3.26q3.08-2.21 7.56-1.12z"/><path fill="#1e1d1c" d="M455.14 422.94a.26.26 0 00.38-.21l5.16-56.89a.68.68 0 01.73-.62l2.4.15a.59.59 0 01.55.65c-1.14 11.91 5.75 15.69 11.36 24.33 6.76 10.38 3.51 19.76-1.51 29.88q-1.38 2.79-4.13 3.17-.51.07-.2-.35c5.88-7.86 8.4-23.04-.36-29.56q-3.21-2.39-6.58-4.5a.37.37 0 00-.56.21c-.68 2.35-.29 5.09-.51 7.05-1.23 11.22-1.94 22.41-3.42 33.59-1.1 8.33-14.49 14.48-20.84 8.06-7.87-7.96 9.97-18.71 17.53-14.96z"/><path fill="#abadae" d="M304.79 398.25q-.48 1.74.25 3.5-.4 1.07-.09 2.26a.56.56 0 01-.61.7l-1.99-.23a.65.65 0 01-.58-.65q.19-17.87.44-35.73c0-.35.31-1.03.46-1.32a.76.76 0 011.24-.16c1.15 1.26.82 27.68.88 31.63z"/><rect fill="#abadae" x="-2.11" y="-18.97" transform="rotate(-.7 31723.348 -25112.749)" width="4.22" height="37.94" rx="1"/><rect fill="#abadae" x="-1.96" y="-18.87" transform="rotate(.5 -44056.865 34304.284)" width="3.92" height="37.74" rx="1.15"/><path fill="#1e1d1c" d="M330.71 380.22l2.8 3.19q.32.36.46.81c4.45 13.78-2.27 27.82 4.91 39.93 1.63 2.75 5.38 6.5 7.85 2.94a.53.52-70.6 00-.39-.82q-1.42-.11-2.59-1.06-2.26-4.93 2.75-6.67c7.9-.47 5.43 9.6 1 12.75-11.58 3.02-16.13-8.64-17.71-17.54-.47-3.72-1.08-7.18-.84-11.01.35-5.64 2.05-16.64-3.3-20.3a.92.9 48.8 00-.91-.07l-1.66.79q-.89.43.03.79 4.46 1.74 3.6 6.3l-3.78 1.64a1.3 1.28-47 01-.93.04c-8.36-2.75-2.25-13.83 3.71-13.23q2.66.26 5 1.52zM277.54 413q-.56 4.62-2.08 8.97c-2.45 7.04-11.91 15.65-18.55 6.89-4.64-6.13 2.12-13.64 7.09-7.82l1.04 2.46q-.76 3.29-4.12 3.26a.55.55 0 00-.39.94c5.04 5.06 10.23-6.71 10.72-9.97q1.33-8.93.39-18.89c-.64-6.72.42-15.24 6.4-19.29 4.43-1.79 8.65-.52 10.48 3.91 4.03 9.77-8.47 12.01-8.04 3.5a1.9 1.89-5.3 011.46-1.75l2.65-.63a.57.57 0 00.16-1.04c-9.06-5.27-6.95 12.17-6.56 16.03q.53 5.21-.65 13.43z"/><path fill="#939699" d="M354.75 405.74c-.77.33-5.79-4.32-6.34-5.12-2.03-2.98-8.55-16.12-4.21-18.87a.31.31 0 01.47.25c.41 9.57 1.99 17.64 10.13 23.27q.41.28-.05.47z"/><path fill="#abadae" d="M329.79 413.75l-.04.6a.95.94-12.4 01-.5.78l-.31.15a.19.18 70.2 01-.27-.13c-1.75-8.77.02-15.06-.87-23.01a1.91 1.91 0 00-.35-.89l-.74-1q.86-4.56-3.6-6.3-.92-.36-.03-.79l1.66-.79a.92.9 48.8 01.91.07c5.35 3.66 3.65 14.66 3.3 20.3-.24 3.83.37 7.29.84 11.01zM263.54 383.68q1.66 8.13-3.03 15.19-2.83 4.26-7.82 6.93-.46.25-.07-.1c7.89-7.08 9.5-11.24 10.76-22.01q.06-.52.16-.01z"/><path fill="#1e1d1c" d="M172.42 414.28c-2.41-4.28-7.68-6.62-12.17-7.5a1.4 1.39-89 00-1.65 1.6c2.06 12.22 3.61 25.05 6.61 36.68 2.02 7.81-6.3 14.86-13.13 15.82-4.35.6-8.25-2.34-7.56-6.87q1.21-7.88 8.72-11.95c2.18-1.18 4.42-.82 6.82-.83a.6.59-5.3 00.58-.69c-2.22-12.81-5.04-25.55-7.02-38.29q-1.38-8.87-2.92-17.72a.56.55 83.4 01.51-.65l2.05-.16a.77.76-9.5 01.8.57c2.21 8.6 7.32 12.44 14.8 17.82 11.69 8.41 11.47 19.26 8.6 32.11q-.51 2.31-2.55 3.02-.5.17-.39-.35c1.7-8.77 2.38-14.69-2.1-22.61z"/><path fill="#abadae" d="M313.79 399.5l-.25-9.5q.48-.31.96-.19a.65.64 8.3 01.49.65c-.03 1.24.56 10.01-.41 10.07a.5.5 0 01-.53-.44q-.04-.32-.26-.59z"/><path fill="#939699" d="M304.79 398.25q.89 1.68.25 3.5-.73-1.76-.25-3.5z"/><path fill="#abadae" d="M293.47 407.12c.31 1.89-4.06 1.69-4.53.21a.64.64 0 01.61-.83h3.2a.73.72-4.1 01.72.62z"/><ellipse fill="#abadae" transform="rotate(-7.9 3108.244 -2085.358)" rx="2.47" ry=".97"/><rect fill="#abadae" x="-2.19" y="-1.09" transform="rotate(4.1 -5547.762 4360.407)" width="4.38" height="2.18" rx=".83"/><path fill="#fbfee1" d="M302.41 406.88q1.36-.37 2.05.33a.98.97-31 01-.41 1.62q-2.16.68-2.34-.94a.95.93-10.7 01.7-1.01z"/><path fill="#abadae" d="M311.68 407.56a.67.66-26.7 01-.4 1.2l-4-.01q-1.13-.01-.39-.86 2.04-2.33 4.79-.33zM298.76 443.47a1.92 1.9 12.2 01-1.02-1.56l-2.07-30.02a.69.68-2.3 01.69-.74l2.38.01a.67.67 0 01.67.64q.87 15.33.9 30.67c0 .99-.57 1.52-1.55 1zM304.33 411.48a.37.36 6.5 01.3.37q-.06 14.68-.46 29.53c-.01.51.35 2.22-.73 2.33a.74.74 0 01-.81-.72l-.77-31.19a.66.66 0 01.79-.66l1.68.34zM306.96 442.34c-.06-10.12.26-20.22.32-30.33a.51.51 0 01.5-.51l2.87-.01a.85.84-88.1 01.85.91l-2.36 29.76a1.51 1.5-20.2 01-.45.97c-.97.97-1.73.3-1.73-.79zM244.75 412.46l.32.03a.54.54 0 01.47.41c.29 1.35-5.58 1-6.58 1.05a.53.53 0 00-.51.51c-.14 3.91-.34 7-1.6 10.9q-6.24 19.42-4.81 39.65c.85 11.97 6.66 22.36 15.24 30.39 4.44 4.16 10.64 7.27 16.22 10.35q.78.43 0 1.29c-17.43-7.02-30.57-21.07-32.6-40.27-1.65-15.6.95-30.14 4.44-45.29.62-2.71.24-5.66.54-8.52a.53.52-86.9 01.52-.47l8.35-.03zM264 421.04c-4.97-5.82-11.73 1.69-7.09 7.82 6.64 8.76 16.1.15 18.55-6.89q1.52-4.35 2.08-8.97.36-.14.67-.1a.66.65 3.2 01.56.62c.35 7.31-3.53 18.47-11.83 19.65-1.72.24-3.73.88-5.36.53-6.07-1.3-7.3-4.98-8.38-10.47a1.64 1.6 53.6 01.15-1.06q2.99-5.83 10.12-4.05 1.94.48 1.16 2.32-.16.39-.63.6zM347.5 431.29c4.43-3.15 6.9-13.22-1-12.75q-.43-.71.05-1.33a.75.73-64.4 01.74-.27c8.54 1.83 7.11 10.92 1.72 15.07a.92.91-52.8 01-.91.13q-.48-.19-.6-.85zM293.96 417.75l1.25 19.75c-4.01.51-3.19-16.45-3-18.68.09-1.06.73-1.59 1.75-1.07zM371.17 420.79q2.62 8.07 4.69 19.4c4.1 22.53.99 44.51-18.36 59.35q-.32.11-.7-.07a.46.46 0 01-.19-.67c1.69-2.51 4.36-4.33 5.96-6.25 5.48-6.59 11.77-15.72 12.31-24.77q.81-13.41.45-18.35-.57-7.7-4.16-28.64zM313.08 424.19q1.7 7.6-.03 15.94a.95.95 0 001.25 1.09q1.23-.44 2.14.67l-3.29 1.03a1.2 1.2 0 01-1.55-1.25l1.48-17.48zM290.25 442.29q3.9 14.78 7.36 29.66c3.26 14.07 3.45 26.92 1.7 40.76a.58.57 2.9 01-.56.5q-12.29 0-24.29-2.71-.19-.75.37-1.17a.97.95 34.8 01.89-.15q10.52 3.45 21.56 2.88a1.01 1.01 0 00.96-1.04q-.35-10.3.01-20.92c.06-1.85.63-5.13.16-7.66q-2.24-12.27-6.13-25.57c-1.21-4.16-1.76-9.33-3.3-13.9a.54.53 70.5 01.32-.68q.54-.2.95 0zM329.54 511.14q-10.04 2.01-20.48 1.94a.56.55 87.1 01-.55-.5q-1.91-18.06-.46-29.27 1.31-10.04 8.24-37.56.23-.3.53-.22a.59.59 0 01.45.65c-.6 4.32-1.93 8.87-2.61 12.73-1.66 9.4-4.51 19.9-5.36 28.2q-1.22 11.83.14 23.77a1.25 1.24-1.6 001.17 1.1c3.94.22 6.56-.18 11.21-1.12q3.84-.77 7.72.28z"/><path fill="#fbfee1" d="M576.19 591h-.25v-.13a.19.12 0 00-.19-.12H.36a.14.14 0 01-.13-.18l.08-.26a.21.08 2.1 01.19-.06h589.89a.14.14 0 01.13.18l-.08.26a.17.14-78.4 01-.14.11l-14.11.2z"/></svg>