<svg xmlns="http://www.w3.org/2000/svg" viewBox="0 0 591 591"><g stroke-width="2" fill="none"><path stroke="#100f0f" vector-effect="non-scaling-stroke" d="M590.06 0l.19.29"/><path stroke="#7e7f70" vector-effect="non-scaling-stroke" d="M590.25.29V589.8a.46.46 0 01-.46.46L.63 590.24q-.65 0-.21.47l.27.29"/><path stroke="#7e7f70" vector-effect="non-scaling-stroke" d="M586.25 4.51a.26.26 0 00-.26-.26H4.51a.26.26 0 00-.26.26v581.48a.26.26 0 00.26.26h581.48a.26.26 0 00.26-.26V4.51"/><path stroke="#8d8e7f" vector-effect="non-scaling-stroke" d="M591 587.56c-.84-.45-.25-537.29-.25-587.06a.25.24-86.1 00-.21-.25q-.17-.02-.29.04M576.44 591q-2.38-.63-4.75 0M342.19 591q-2.75-.63-5.5 0M24.44 591q-3.38-.63-6.75 0M11.19 591q-5-.63-10 0"/><path stroke="#fbf2c4" vector-effect="non-scaling-stroke" d="M48.94 24.91c-12.01.25-20.92 5.71-21.95 18.61q-1.75 21.65.06 46.95a.41.4 78.5 00.53.36q1.35-.46 2.95-2.05 31.73-31.4 62.12-62.56a.9.9 0 00-.63-1.53q-21.8-.23-43.08.22"/><path stroke="#c7cabc" vector-effect="non-scaling-stroke" d="M318.46 129.5l.46-.97a.72.72 0 011.22-.13l2.78 3.68q.38.51.37-.12l-.05-3.43a1.17 1.15 20.2 00-.42-.89q-28.98-24.2-65.57-11.38-14 4.9-20.35 17.73a.9.9 0 01-.72.5c-13.73 1.44-25.29 5.18-31.76 18.56a.63.63 0 01-.7.35q-23.35-4.71-40.45 9.36c-11.09 9.11-14.28 20.71-14 34.6a.38.38 0 01-.7.2c-4.63-7.8-3.76-15.13-.5-24.04a.37.37 0 00-.34-.5q-.99-.02-3.19.28c-18.49 2.5-30.15 13.12-33.72 30.97-.88 4.42-1.61 8.34-.31 12.42.35 1.07.41 2.38-.05 3.28-6.74 13.12-1.59 22.15 7.42 31.41a.61.61 0 01.07.77q-12.33 17.99 2.02 34.39 2.21 2.53 10.32 7.96"/><path stroke="#8d8e7f" vector-effect="non-scaling-stroke" d="M130.29 294.5c-2.46 4.54-5.32 10.29-4.82 15.24a.73.73 0 00.54.63c6.51 1.71 19.3-2.99 25.24-5.91"/><path stroke="#d6d7c8" vector-effect="non-scaling-stroke" d="M151.25 304.46q.69.6.29 1.54"/><path stroke="#c7cabc" vector-effect="non-scaling-stroke" d="M151.54 306c3.6 17.13 19.23 29.38 36.94 27.82q28.86-2.53 45.31-26.05 6.91-9.88 6.3-21.57-.02-.49.4-.25 23.12 12.97 44.72-.45 9.66-6 12.97-18.44a.56.55-77.9 01.62-.41q14.15 2.27 28.23-.51c9.95-1.97 27.67-10.95 32.66-19.92q1.05-1.88 1.09.27.27 11.9-9.52 18.35a.63.63 0 00-.25.74q2.91 8.21 5.56 12.35c4.07 6.35 9.87 7.56 16.5 8.78a1.43 1.42 1.2 011.14 1.18c.34 2.42.1 5.29.68 7.45 2.69 10.03 12.01 14.09 21.85 12.5a.48.48 0 01.55.42c1.08 8.86 6.79 17.06 13.92 22.26 5.61 4.08-2.13 8.91-4.41 11.76q-2.3 2.86-2.3 6.68"/><path stroke="#d6d7c8" vector-effect="non-scaling-stroke" d="M404.5 348.96l-.75.33"/><path stroke="#8d8e7f" vector-effect="non-scaling-stroke" d="M403.75 349.29q-11.11-4.03-23.51-4.78-26.39-1.6-39.23-2.22c-4.12-.2-19.3-5.49-13.5-12.02 4.41-4.96 13.4-15.38 12.41-21.18-3.66-21.29-38.09-23.24-50.37-9.99-7.21 7.78-6.69 21.13 2.52 27.34q5.16 3.48 6.38 5.1c2.75 3.68-.48 8.39-3.96 10.03q-4.81 2.26-9.24 2.7-9.06.9-35.23 2.97-3.89.31-17.26 2.76c-8.86 1.62-14.77 4.74-21.29 10.89-6.97 6.57-9.61 12.65-13.2 23.28a.75.74 7.6 01-.66.5q-31.04 1.38-61.86 5.3c-6.55.83-20.63 3.33-25.51 7.29-24.38 19.81-9.27 53.42 9.31 70.45q16.26 14.9 37.73 27.54c6.37 3.75 12.86 5.23 19.93 6.9a1.14 1.13-7.3 01.73.56c7.51 13.28 17.74 21.46 30.55 30.04 3.76 2.52 6.6 6.78 9.55 8.76q24.45 16.5 53.71 19.94c29.37 3.45 60.22 1.11 89.48-2.62 15.47-1.98 27.28-5.54 39.1-15.07 13.98-11.28 36.24-23.64 41.57-41.42 2.6-8.67 5.07-17.71 5.12-26.84a1.51 1.5-15.6 01.73-1.29c12.91-7.81 26.78-21.85 30.32-36.45q4.73-19.46 10.19-38.72c4.59-16.2 21.05-30.87 36.1-38.3a1.3 1.28-5.3 00.65-.77q.54-1.77-.39-3.36a1.11 1.07 77.3 00-.81-.53q-12.75-1.61-25.56-1.1c-9.72.39-15.15 2.03-21.91 8.37q-7.73 7.25-9.44 9.8-6.56 9.8-13.99 28.46c-2.74 6.88-10.57 12.54-16.4 16.75a.49.49 0 01-.74-.22l-17.03-43.81"/><path stroke="#c7cabc" vector-effect="non-scaling-stroke" d="M418.74 374.33c13.5-2.5 22.02-9.39 28.23-21.46 5.9-11.43 4.19-22.9 7.63-34.76q2.67-9.23 4.73-18.66"/><path stroke="#d6d7c8" vector-effect="non-scaling-stroke" d="M459.33 299.45l.38-.2"/><path stroke="#c7cabc" vector-effect="non-scaling-stroke" d="M459.71 299.25l.36.22a.42.42 0 00.58-.15l.6-1.03"/><path stroke="#d6d7c8" vector-effect="non-scaling-stroke" d="M461.25 298.29l1.25-.33"/><path stroke="#8d8e7f" vector-effect="non-scaling-stroke" d="M462.5 297.96c8.07 2.05 4.86-4.31 6.5-8.17"/><path stroke="#c7cabc" vector-effect="non-scaling-stroke" d="M469 289.79c8.99-2.34 7.13-10.71 10.3-17.26 4.7-9.75-1.25-18-4.3-26.89-1.26-3.67-3.19-5.68-6.58-7.03a1.9 1.89 11.6 01-1.19-1.8q.31-15.06-4.91-28.9c-4.23-11.2-12.66-18.65-21.7-26.24-2.61-2.18-6.22-4.41-9.07-7.02a1.33 1.32 18.9 01-.41-.83c-2.07-24.59-21.37-31.76-42.95-29.37a.79.79 0 01-.75-.37c-6.51-11.03-17.86-10.61-28.81-7.09a.54.54 0 00-.3.79c1.83 3.08 3.45 5.58 3.56 9.22q.19 6.32-1.09 13.31-.47 2.55 1.85 1.4 1.8-.9 5.62-.57 9.55.82 16.97 6.57"/><path stroke="#8d8e7f" vector-effect="non-scaling-stroke" d="M385.24 167.71q-7.92-3.64-15.49-5.24-3.98-.85-7.94.86a1.83 1.78-84.1 00-.79.66l-3.79 5.74q-.72 1.1-.33-.16 2.81-9.11 4.13-18.57.77-5.49-2.23-10.55-6.32-10.65-12.15-23.72c-1.59-3.57-5.14-10.99-10.2-7.01q-11.32 8.9-12.35 23.36a.98.98 0 01-1.69.61l-3.95-4.19"/><path stroke="#595a5c" vector-effect="non-scaling-stroke" d="M385.24 167.71q2.3 2.45 5.22 4.04"/><path stroke="#686768" vector-effect="non-scaling-stroke" d="M390.46 171.75c7 4.7 15.44 12.02 16.83 20.8a1.35 1.35 0 01-1.15 1.55q-8.16 1.12-16.49.41c-7.23-.62-15.43-3.52-23.15-5.3"/><path stroke="#595a5c" vector-effect="non-scaling-stroke" d="M366.5 189.21l-6.88-1.41a.35.35 0 00-.31.61l15.83 14.38a1.02 1.01 70.6 01-.84 1.76l-8.76-1.42"/><path stroke="#686768" vector-effect="non-scaling-stroke" d="M365.54 203.13c-8.84-2.43-15.85-11.29-22.78-18.37q-1.37-1.4-5.26-2.45"/><path stroke="#595a5c" vector-effect="non-scaling-stroke" d="M337.5 182.31c-1.81-2.03-9.4-2.26-12.96-2.55-4.25-.35-6.49-2.27-7.44-6.23a.72.72 0 00-.6-.55q-6.43-.91-12.93-4.59-6.81-3.84-5.62-11.44.08-.52.26-.03.78 2.21 1.61 4.38c2.83 7.37 10.14 8.04 16.25 10.65a.32.31 26.5 00.41-.13c.18-.31-.02-.45-.26-.58q-12.27-6.46-16.49-19.73-.33-1.03-.14-2.28.08-.48.35-.08l.54.79"/><path stroke="#686768" vector-effect="non-scaling-stroke" d="M300.48 149.94c1.99 3.99 3.64 8.46 6.23 11.71q6.58 8.26 16.93 10.85c3.43.85 6.48 2.37 9.92 3.16q.46.11.13-.23l-9.22-9.47"/><path stroke="#595a5c" vector-effect="non-scaling-stroke" d="M324.47 165.96l-13.18-22.21"/><path stroke="#8d8e7f" vector-effect="non-scaling-stroke" d="M311.29 143.75l-7.1-14.9"/><path stroke="#595a5c" vector-effect="non-scaling-stroke" d="M304.19 128.85q.39-2.67-.57-5.35a.76.76 0 01.99-.97q7.15 2.67 13.85 6.97"/><path stroke="#c7cabc" vector-effect="non-scaling-stroke" d="M304.19 128.85q1.7 7.88 5.88 14.82a.77.77 0 00.79.36q.27-.05.43-.28"/><path stroke="#a2a3a5" vector-effect="non-scaling-stroke" d="M324.47 165.96q-.37 2.42 1.37 4.29a.49.49 0 01-.17.78q-.93.38-1.73-.35a1.54 1.51-19 00-.8-.38c-9.88-1.56-18.16-10.52-20.75-19.79q-.63-2.25-1.91-.57M337.5 182.31q.98 1.92 2.68 3.08c8.2 5.6 14.6 13.3 18.85 16.84q2.53 2.12 6.51.9M366.5 189.21l-.66.18a.3.3 0 00-.06.55c3.36 1.76 6.34.81 9.5 2.89 1.97 1.3 3.64 1.61 5.8 2.14a1.43 1.35 37.9 00.93-.09q1.25-.6 2.49.13.47.28 1.01.3c7.27.27 14.39 1.6 21.77-.68a.94.94 0 00.63-.64c2.17-7.7-9.53-17.5-15.48-22.16q-1.15-.9-1.97-.08"/><path stroke="#595a5c" vector-effect="non-scaling-stroke" d="M469 289.79l-1.96-12.54"/><path stroke="#c7cabc" vector-effect="non-scaling-stroke" d="M467.04 277.25l.43.01a.43.42-5.1 00.42-.5c-1.32-7.43-3.94-16.02-13.01-16.33a.57.57 0 01-.52-.72l.56-1.91a.27.26-68.3 00-.13-.31q-.15-.09-.29-.03"/><path stroke="#595a5c" vector-effect="non-scaling-stroke" d="M454.5 257.46c2.48-2.78 3.23-5.21 2.6-9.11-.79-4.98-2.14-10.78-1.62-15.8"/><path stroke="#a2a3a5" vector-effect="non-scaling-stroke" d="M455.48 232.55q3.12-.47 2.09-3.39a1.35 1.3 47.3 01.02-.92q2.02-5.01.75-10.07c-.55-2.21-2.15-4.7-2.8-7.44q-1.19-4.96-6.06-4.01"/><path stroke="#595a5c" vector-effect="non-scaling-stroke" d="M449.48 206.72c-11.55-.29-18.95 17.79-22.3 26.24"/><path stroke="#c7cabc" vector-effect="non-scaling-stroke" d="M427.18 232.96q-2.19 2.25-2.64 5.39a.6.6 0 00.45.67q.33.08.72-.02"/><path stroke="#595a5c" vector-effect="non-scaling-stroke" d="M425.71 239l-2.33 10.43a.79.78-45.7 01-1.53.02c-.68-2.72-1.65-5.24-1.91-7.9q-1.35-13.67 2.71-27.24a.51.5 81.7 00-.76-.57c-3.65 2.37-3.28 24.74-2.82 29.35a.94.94 0 01-1.71.61q-8.32-12.39-20.32-21.21a.53.53 0 00-.8.23l-.22.54a.71.71 0 00.26.86c10.15 6.8 18.41 15.04 23.14 26.64a.61.61 0 01-.9.73c-12.6-8.38-31.65-17.96-46.73-11.24"/><path stroke="#a2a3a5" vector-effect="non-scaling-stroke" d="M371.79 240.25c-4.31-1.43-3.38 2.83-4.17 5.07a1.59 1.53 47.7 00-.03.96c.42 1.39 1.34 2.44 1.79 3.81 1.55 4.68 5.73 8.65 9.45 11.59q3.97 3.14 5.18 4.42 5.77 6.09 7.87 9.25 3.06 4.63 6.78 6.63c1.07.57 2.05.12 1.84-1.19"/><path stroke="#595a5c" vector-effect="non-scaling-stroke" d="M400.5 280.79h2.25"/><path stroke="#a2a3a5" vector-effect="non-scaling-stroke" d="M402.75 280.79q.68 2.87.14 5.68c-.79 4.07-.62 6.41-.25 10.06a1.81 1.76 24.4 00.35.89c3.44 4.52 5.81 9.86 9.45 13.78 2.24 2.41 6.66 7.61 9.74 8.12 4.46.74 7.13-6.14 7.28-9.75q.34-8.21 1.07-16.4.55-6.16 1.36-12.27"/><path stroke="#595a5c" vector-effect="non-scaling-stroke" d="M431.89 280.9q1.63.39 2.27-.35a.53.53 0 00-.02-.72q-.34-.34-.35-.83"/><path stroke="#a2a3a5" vector-effect="non-scaling-stroke" d="M433.79 279l2.49.42a1.21 1.2-13.2 01.78.48c2.32 3.14 5.54 4.93 7.98 6.88 3.94 3.15 7.69 6.53 12.11 8.97q2.01 1.11 2.18 3.7"/><path stroke="#595a5c" vector-effect="non-scaling-stroke" d="M418.74 374.33q-1.54 1.22-3.86 1.79a.79.79 0 00-.54 1.09q9.11 21.17 17.12 43.04"/><path stroke="#a2a3a5" vector-effect="non-scaling-stroke" d="M431.46 420.25c-2.82.75.31 5.99 1.06 7.54 4.38 9.1 5.95 21.26 6.54 31.71.48 8.63 1.33 15.33.1 25.22q-.02.09-.48 6.57c-.72 10.04-6.86 16.1-12.61 23.56-3.64 4.73-10.41 8.25-15.26 11.73-3.37 2.42-8.18 4.85-12.22 5.67-21.38 4.3-45.94 3.75-65.84.55q-3.12-.5-4.51.62"/><path stroke="#595a5c" vector-effect="non-scaling-stroke" d="M328.24 533.42q-17.68-2.43-34.46-8.38"/><path stroke="#a2a3a5" vector-effect="non-scaling-stroke" d="M293.78 525.04q-2.82-2.69-6.42-3.9-2.96-1.01-4.45-1.99-5.58-3.72-10.98-7.71c-8.98-6.65-13.92-15.63-19.66-25.42-6.14-10.51-10.6-20.28-12.97-31.63q-.89-4.26-2.04-8.46"/><path stroke="#595a5c" vector-effect="non-scaling-stroke" d="M237.26 445.93q-1.28-3.13 0-6.4"/><path stroke="#a2a3a5" vector-effect="non-scaling-stroke" d="M237.26 439.53q1.9-13.54 2.4-27.21c.28-7.84 2.73-15.19 2.07-23.11-.13-1.46-1.03-3.15-.48-5.17"/><path stroke="#595a5c" vector-effect="non-scaling-stroke" d="M241.25 384.04q19.28 5.04 41.25 6.68 48.62 3.63 94.99-1.29c8.86-.94 26.18-3.24 31.77-11.1a.7.7 0 00-.01-.83q-.77-1.03-2.25-.29"/><path stroke="#a2a3a5" vector-effect="non-scaling-stroke" d="M407 377.21l.11-.55a.52.5-69.1 00-.22-.52c-.27-.18-14.95 1.16-16.71 1.16q-6.72-.03-13.66 1.46a.53.53 0 00-.24.92q.53.46 1.22.36"/><path stroke="#595a5c" vector-effect="non-scaling-stroke" d="M377.5 380.04l-6.71 2.96"/><path stroke="#a2a3a5" vector-effect="non-scaling-stroke" d="M370.79 383q-3.4-.22-4.04 3.21"/><path stroke="#595a5c" vector-effect="non-scaling-stroke" d="M366.75 386.21h-.5"/><path stroke="#a2a3a5" vector-effect="non-scaling-stroke" d="M366.25 386.21q-1.79-1.55-3.83-.98a1.17 1.16-.5 01-1.44-1.41c1.48-5.78 7.29-9.97 12.35-12.32q2.41-1.11 10.05-2.69c5.67-1.17 24.54-6.38 27.2-12.8a1.17 1.14 44.4 00-.02-.92q-1.93-4.19-6.06-6.13M151.54 306q2.63-.9 4.93-2.43c2.73-1.83 5.24-2.54 8.03-3.86a1 .98-43.1 01.9.02q1.2.66 2.56.52"/><path stroke="#595a5c" vector-effect="non-scaling-stroke" d="M167.96 300.25c-2.32 3.09-9.36 10.06-9.66 13.48a.42.42 0 00.47.46l2.91-.32"/><path stroke="#a2a3a5" vector-effect="non-scaling-stroke" d="M161.68 313.87q3.69.62 6.82-1.6 3.8-2.69 7.57-5.48a1.46 1.44-11.1 00.53-.78c.64-2.54 2.74-4.13 3.74-5.95 5.06-9.25 10-16.81 20.01-19.97 3.19-1 8.06-3.8 9.35-5.89q1.67-2.71-.45-4.66"/><path stroke="#595a5c" vector-effect="non-scaling-stroke" d="M209.25 269.54q-.39-.68-.27-1.7a1.14 1.1-15.6 01.47-.8c5.96-4.22 11.38-16.38 10.61-23.53a.46.46 0 00-.56-.4q-1.04.23-1.4 1.22"/><path stroke="#a2a3a5" vector-effect="non-scaling-stroke" d="M218.1 244.33q-1.49 1.93-1.41 4.43a.52.51 85.9 00.57.5q.23-.02.45-.26"/><path stroke="#595a5c" vector-effect="non-scaling-stroke" d="M217.71 249c-1.92 16.27-14.88 19.73-25.86 28.81q-.55.45-.2-.17c3.44-6.21 6.92-10.69 9.35-18.43"/><path stroke="#a2a3a5" vector-effect="non-scaling-stroke" d="M201 259.21l1.11.23a.88.87-79.7 001.04-.73c1.27-8.77 3.2-17.07 5.08-25.52.54-2.42 4.25-11.95 2.31-14.19"/><path stroke="#595a5c" vector-effect="non-scaling-stroke" d="M210.54 219l.16-1.94a.34.33-6.3 00-.44-.35c-7.09 2.33-13.2 9.34-16.47 15.79"/><path stroke="#c7cabc" vector-effect="non-scaling-stroke" d="M193.79 232.5l-.03-.44a.62.62 0 00-.48-.55c-1.23-.29-2.54-5.22-3.74-7.48-2.19-4.12-5.62-6.72-9.13-9.67q-2.77-2.32-6.21-2.09"/><path stroke="#595a5c" vector-effect="non-scaling-stroke" d="M174.2 212.27l-4.99.09"/><path stroke="#c7cabc" vector-effect="non-scaling-stroke" d="M169.21 212.36q-2.32-.72-3.09 2.22-3.1 11.8-4.7 23.94-.08.59.45.32.33-.18.59-.59"/><path stroke="#595a5c" vector-effect="non-scaling-stroke" d="M162.46 238.25c-1.24 6.84-5.53 14.04-2.29 20.92q3.98 8.48 8.73 16.67.24.41-.1.08-7.71-7.57-16.96-2.35-12.96 7.3-21.55 20.93"/><path stroke="#a2a3a5" vector-effect="non-scaling-stroke" d="M461.25 298.29l-.52-.15a.57.57 0 00-.68.32l-.34.79"/><path stroke="#8d8e7f" vector-effect="non-scaling-stroke" d="M193.79 232.5q-.19 1.57-1.25 2.88-.33.39-.41-.11c-1.8-11.09-7.84-18.43-17.93-23"/><path stroke="#686768" vector-effect="non-scaling-stroke" d="M455.48 232.55c.57-6.55 1.41-17.28-2.29-22.99q-.66-1.03-3.71-2.84"/><path stroke="#8d8e7f" vector-effect="non-scaling-stroke" d="M454.5 257.46c-2.93 2.22-5.77 2.49-8.32 3.64q-.49.22.04.22c7.47.02 14.97-1.39 18.2 7.05.78 2.04 1.98 5.93 2.62 8.88"/><path stroke="#686768" vector-effect="non-scaling-stroke" d="M462.5 297.96c-5.9-3.4-10.08-8.21-15.61-12.16q-6.47-4.61-12.72-9.57a.36.36 0 00-.56.18q-.4 1.36.18 2.59M431.89 280.9q.35-1.91-1.45-3.43a.29.28 18.6 00-.47.23q.16 3.71-.16 7.36-1.09 12.35-2.31 24.69c-.35 3.58-2.62 12.13-8.14 6.62-4.64-4.62-9.57-9.84-12.68-15.47-5.52-9.99-3.35-15.75 4.2-23.17a.33.33 0 00-.37-.54l-7.76 3.6M400.5 280.79q-4.71-1.63-7.22-5.33-5.98-8.78-13.7-14.89c-6.37-5.05-9.77-8.99-10.23-16.85a1.31 1.3-26.7 01.31-.92l2.13-2.55"/><path stroke="#8d8e7f" vector-effect="non-scaling-stroke" d="M425.71 239l1.47-6.04"/><path stroke="#686768" vector-effect="non-scaling-stroke" d="M210.54 219c-2.08 7.13-4.4 13.73-5.68 21.15q-1.67 9.58-3.86 19.06M217.71 249l.39-4.67M209.25 269.54c-.36 8.5-8.69 8.49-14.26 11.49-9.22 4.95-13.33 13.04-18.26 21.68-3.06 5.37-9.51 8.8-15.05 11.16M167.96 300.25l4.09-5.58a.34.34 0 00-.4-.52q-10.72 4.32-20.4 10.31"/><path stroke="#8d8e7f" vector-effect="non-scaling-stroke" d="M169.21 212.36q-4.27 8.14-5 17.12a1.5 1.47 68.6 01-.37.87c-.52.6-1.02 6.49-1.38 7.9"/><path stroke="#686768" vector-effect="non-scaling-stroke" d="M403.75 349.29c13 7.69-6.28 13.88-11.5 15.47-12.17 3.71-31.3 5.12-32.44 21.53a.47.46 89.5 00.5.5l5.94-.58"/><path stroke="#686768" vector-effect="non-scaling-stroke" d="M366.75 386.21q.18.22.4.34a.47.47 0 00.67-.25q.85-2.18 2.97-3.3M377.5 380.04c9.93-2.32 19.54-1.91 29.5-2.83M241.25 384.04q-13.16-3.24-22.17-8.87-6.4-4.01-3.5-10.68a.48.48 0 00-.83-.47c-9.12 13.03 13.6 18.63 21.42 21.44 5.61 2.01 4.67 8.29 4.12 12.83q-2.51 20.53-3.03 41.24M237.26 445.93q.07 8.52 3.64 19.25c8.79 26.51 25.55 50.86 52.88 59.86M328.24 533.42c20.14 2.76 39.25 4.27 58.96 1.85 9.23-1.14 15.42-2.08 22.48-6.34 13.55-8.19 29.24-20.79 31.08-37.91q3.94-36.61-9.3-70.77"/><path stroke="#d6d7c8" vector-effect="non-scaling-stroke" d="M36.422 462.369a1.33.7 39.1 00-.59-1.382 1.33.7 39.1 00-1.474-.296 1.33.7 39.1 00.59 1.382 1.33.7 39.1 001.474.296"/><path stroke="#7e7f70" vector-effect="non-scaling-stroke" d="M18.735 509.773a.72.72 0 00-1.017-.067l-.06.052a.72.72 0 00-.067 1.016l2.095 2.393a.72.72 0 001.015.067l.06-.052a.72.72 0 00.068-1.016l-2.095-2.393"/><path stroke="#8f8f8f" vector-effect="non-scaling-stroke" d="M344.137 148.335a13.69 6.96 69.4 001.698-15.264 13.69 6.96 69.4 00-11.332-10.366 13.69 6.96 69.4 00-1.698 15.264 13.69 6.96 69.4 0011.332 10.366M400.098 189.535a9.03 4.79 32 00-5.12-8.847 9.03 4.79 32 00-10.196-.723 9.03 4.79 32 005.12 8.847 9.03 4.79 32 0010.196.723"/><path stroke="#c9cbcc" vector-effect="non-scaling-stroke" d="M247.23 159.73c-16.55-7.29-38.27-6.85-50.19 8.27-5.54 7.04-6.93 14.71-1.25 22.02a.23.22-68.9 00.4-.18q-2.08-12.76 8.2-20.21c18.17-13.16 41.56-7.87 57.28 6.53q.43.4.31-.18-1.52-7.35-7.07-12.17a.89.88 26.4 01-.29-.84c2.87-14.38 13.19-27.41 28.36-29.69q.54-.09.02-.27c-1.9-.66-4.17-.01-5.7.02-14.63.24-24.72 14.16-29.43 26.43a.48.48 0 01-.64.27"/><path stroke="#c7cabc" vector-effect="non-scaling-stroke" d="M271.71 208l-3.34-2.18a.57.56 42 00-.67.03l-.49.4"/><path stroke="#595a5c" vector-effect="non-scaling-stroke" d="M267.21 206.25q-9.28-10.41-21.25-17.5"/><path stroke="#a2a3a5" vector-effect="non-scaling-stroke" d="M245.96 188.75q.41-.19.56-.51a.56.55 25.4 00-.27-.73c-4.58-2.2-8.02-4.2-13.64-4.07a.66.66 0 00-.63.52q-.08.41.27.75"/><path stroke="#595a5c" vector-effect="non-scaling-stroke" d="M232.25 184.71c-10.53-.15-8.62 10.05-6.21 16.81"/><path stroke="#a2a3a5" vector-effect="non-scaling-stroke" d="M226.04 201.52q-.17 2.58 1.54 5.17 3.86 5.84 6.21 9.25c2.6 3.74 3.29 9.38 5.05 13.71.6 1.47 1.87 2.35 2.86 3.56a.56.55-38.2 00.77.09q.27-.2.32-.55"/><path stroke="#595a5c" vector-effect="non-scaling-stroke" d="M242.79 232.75c4.2 4.68 11.73-.76 13.18.63a.38.38 0 01-.1.62c-6.09 3.03-12.47 6.29-12.15 13.93q.65 15.4 9.55 28.04c1.14 1.61 2.91 2.68 4.53 1.07q2.12-2.1 3.15-2.68"/><path stroke="#a2a3a5" vector-effect="non-scaling-stroke" d="M260.95 274.36q2.57-.22 3.61-3.38c1.81-5.48 6.15-20.24 9.23-22.48"/><path stroke="#595a5c" vector-effect="non-scaling-stroke" d="M273.79 248.5c1.19 1.71 2.18-2.14 2.42-2.75"/><path stroke="#a2a3a5" vector-effect="non-scaling-stroke" d="M276.21 245.75q3.02 1.99 3.98 5.5a.76.75 86 00.64.56q.36.04.71-.31"/><path stroke="#595a5c" vector-effect="non-scaling-stroke" d="M281.54 251.5q2.6 4.17 3.68 8.75"/><path stroke="#a2a3a5" vector-effect="non-scaling-stroke" d="M285.22 260.25q.1 5.61 3.65 9.92a.74.73-28.9 00.8.23q.59-.2.59-.45"/><path stroke="#595a5c" vector-effect="non-scaling-stroke" d="M290.26 269.95q3.9 2.04 4.2-3.2"/><path stroke="#a2a3a5" vector-effect="non-scaling-stroke" d="M294.46 266.75q.21.88.97.82a.79.78-82.5 00.68-.53c1.54-4.38 1.71-8.64 2.57-12.78 1.04-4.94.81-8.33.16-12.92-.61-4.28-.26-7.29-4.36-9.94a1.29 1.25 9.1 01-.53-.71l-.74-2.44"/><path stroke="#595a5c" vector-effect="non-scaling-stroke" d="M293.21 228.25q1.12-.67 2.27-.76"/><path stroke="#a2a3a5" vector-effect="non-scaling-stroke" d="M295.48 227.49q2.28.45 2.63-1.83c.98-6.47 2.69-12.78 3.57-19.31.47-3.56 6.25-31.02-.18-30.06"/><path stroke="#595a5c" vector-effect="non-scaling-stroke" d="M301.5 176.29c-8.28-9.01-23.63 29.54-25.5 34.06q-.19.46-.26-.04-1.12-8.51.47-16.81"/><path stroke="#a2a3a5" vector-effect="non-scaling-stroke" d="M276.21 193.5q.08 1.13 1.2 1.02a.74.73-1 00.67-.68q.76-10.51-1-20.87a.82.82 0 00-.54-.64q-1.01-.34-1.58.67"/><path stroke="#595a5c" vector-effect="non-scaling-stroke" d="M274.96 173l-.43-.65a.42.42 0 00-.67-.04c-.29.34-.43.83-.33 1.3q2.97 13.46.98 27.15-.26 1.81-2.6 1.09a1.92 1.89 84.1 01-1.1-.91c-4.5-8.25-8.47-15.5-15.87-22.86a.46.46 0 00-.64 0l-.23.22a.56.55 49.9 00-.06.74c3.15 4.09 7.34 7.4 9.92 11.45 2.53 3.98 8.06 12.88 7.78 17.51"/><path stroke="#686768" vector-effect="non-scaling-stroke" d="M274.96 173q2.38 10.12 1.25 20.5M301.5 176.29c2.47 5.1 1.86 12.06.75 17.71q-2.87 14.64-5.04 29.4c-.23 1.53-1.07 2.66-1.73 4.09M293.21 228.25q-2.59.08-4.84 1.52-.43.28.07.4c8.13 2.01 9.22 6 9.22 13.83q0 12.74-3.2 22.75M290.26 269.95q-3.34-4.47-5.04-9.7M281.54 251.5l-4.56-8.8q-.23-.45-.31.05l-.46 3M273.79 248.5q.6-2.33-.05-4.53-.15-.5-.36-.02-6.84 14.93-12.43 30.41M242.79 232.75c-3.31-3.65-4.66-9.03-6.41-13.57-2.38-6.14-7.18-11.7-10.34-17.66M232.25 184.71q7.33.43 13.71 4.04"/><path stroke="#8d8e7f" vector-effect="non-scaling-stroke" d="M267.21 206.25l3.78 4.57a.38.38 0 00.62-.05q.72-1.23.1-2.77"/><path stroke="#595a5c" vector-effect="non-scaling-stroke" d="M222.26 248.72a.13.13 0 00-.17.14c1.71 9.07-3.38 14.85-11.21 18.15-.76.31-1.01.63-.93 1.45a.4.39 76.3 00.54.33c7.64-3.16 14.45-9.22 13.65-18.05-.12-1.31-.81-1.6-1.88-2.02"/><path stroke="#c9cbcc" vector-effect="non-scaling-stroke" d="M389.4 470.13a1.1 1.1 0 001.7-.35q1.62-3.26 2.77-7.37c6.87-24.55 9.65-46.48 5.11-71.39a.53.52-12.3 00-.65-.41q-12.84 3.35-26.05 4.45a.88.88 0 00-.8.82c-1.3 22.97 2.11 47.67 12.87 68.28q1.56 3 5.05 5.97"/><path stroke="#8f8f8f" vector-effect="non-scaling-stroke" d="M290.523 208.672a11.25 5.34 102.3 007.614-9.854 11.25 5.34 102.3 00-2.82-12.13 11.25 5.34 102.3 00-7.614 9.854 11.25 5.34 102.3 002.82 12.13M248.578 211.498a11.39 8.08 52.6 00-.5-13.956 11.39 8.08 52.6 00-13.336-4.14 11.39 8.08 52.6 00.5 13.956 11.39 8.08 52.6 0013.336 4.14M290.66 259.36a7.33 3.44 87.1 003.066-7.494 7.33 3.44 87.1 00-3.807-7.147 7.33 3.44 87.1 00-3.065 7.495 7.33 3.44 87.1 003.807 7.147M255.625 265.375a7.87 5.27 92 005.542-7.681 7.87 5.27 92 00-4.992-8.05 7.87 5.27 92 00-5.542 7.682 7.87 5.27 92 004.992 8.05M441.495 240.382a10.97 8.01 101.7 0010.069-9.118 10.97 8.01 101.7 00-5.62-12.366 10.97 8.01 101.7 00-10.068 9.118 10.97 8.01 101.7 005.62 12.366M397.836 259.038a10.93 7.89 37.2 00-3.936-12.893 10.93 7.89 37.2 00-13.476-.323 10.93 7.89 37.2 003.936 12.893 10.93 7.89 37.2 0013.476.323M461.358 288.104a7.5 4.96 62.2 00.89-8.947 7.5 4.96 62.2 00-7.886-4.321 7.5 4.96 62.2 00-.89 8.947 7.5 4.96 62.2 007.886 4.321M419.85 306.985a7.68 4.99 74.9 002.818-8.715 7.68 4.99 74.9 00-6.819-6.115 7.68 4.99 74.9 00-2.817 8.715 7.68 4.99 74.9 006.819 6.115M175.04 252.25q3.15.64 4.65-1.08 8.05-9.24 4.24-21.5c-.92-2.96-2.88-4.59-5.86-4.94"/><path stroke="#100f0f" vector-effect="non-scaling-stroke" d="M178.07 224.73c-3.89-1.26-4.84 1.17-6.53 4.34-3.34 6.25-6.18 20.53 2.45 24.16a.54.53-64.7 00.69-.25l.36-.73"/><path stroke="gray" vector-effect="non-scaling-stroke" d="M178.07 224.73c-8.49 3.31-11.13 22.28-3.03 27.52"/><path stroke="#8f8f8f" vector-effect="non-scaling-stroke" d="M144.045 293.3a8.97 4.94-44.8 00-9.846 2.815 8.97 4.94-44.8 00-2.884 9.826 8.97 4.94-44.8 009.846-2.816 8.97 4.94-44.8 002.884-9.826"/><path stroke="#686768" vector-effect="non-scaling-stroke" d="M293.25 306.25q9.47.86 16.76 6.02c5.77 4.08 9.53 10.27 6.52 17.11-4.32 9.84-22.93 18.35-32.77 20.48-18.81 4.07-39.53 6.66-57.13 14.77a.47.47 0 00.11.89q11.61 2.22 23.76 2.44"/><path stroke="#595a5c" vector-effect="non-scaling-stroke" d="M250.5 367.96q17.27 1.1 34.49-.12"/><path stroke="#686768" vector-effect="non-scaling-stroke" d="M284.99 367.84l55.76-3.13"/><path stroke="#595a5c" vector-effect="non-scaling-stroke" d="M340.75 364.71q11.25-1.05 22.42-2.7c17.12-2.52 26.26-3.62 39.08-7.35a.29.29 0 00.03-.55c-13.24-5.49-28.29-5.55-46.27-6.04"/><path stroke="#686768" vector-effect="non-scaling-stroke" d="M356.01 348.07q-13.43-.04-19.99-1.33c-8.37-1.65-20.18-11.3-11.73-20.69 3.31-3.67 12.76-13.02 10.94-18.03q-2.5-6.88-10.23-9.73"/><path stroke="#595a5c" vector-effect="non-scaling-stroke" d="M325 298.29c-8.93-5.57-28.51-2.54-34.36 7.26a.6.6 0 00.14.78q1.13.92 2.47-.08"/><path stroke="#a2a3a5" vector-effect="non-scaling-stroke" d="M325 298.29q-.2.21-.29.45a.63.62 23.3 00.31.77q7.07 3.46 8.68 11.14a1.51 1.47 51.9 01-.1.92q-2.62 5.82-7.26 10.15c-2.44 2.28-6.33 7.46-6.34 10.86-.02 8.05 8.07 14.26 15.31 15.33q7.34 1.08 19.18 1.39 1.79.05 1.52-1.23M340.75 364.71q.3-.56.13-.99a.71.7 76 00-.72-.44c-7.68.78-15.52 1.85-23.27 2.01q-14.37.29-28.7 1.39c-.7.05-4.98-.89-3.2 1.16M250.5 367.96q.43-.49.2-1.04a.72.71-11.1 00-.68-.45q-7.74.07-15.44-1.14a.52.52 0 01-.1-1c3.69-1.37 6.7-3.81 10.42-4.6 5.59-1.2 11.13-2.19 16.72-3.65q11.36-2.98 20.4-4.5 9.15-1.54 16.63-5.91c7.61-4.45 13.83-6.93 19.02-14.67 2.97-4.44.78-14-2.77-17.4q-8.6-8.22-21.65-7.35"/><path stroke="#686768" vector-effect="non-scaling-stroke" d="M224.1 360.31q10.65-4.95 22.18-7.45.49-.11-.01-.07-12.96.94-24.82 6.26a.69.69 0 00-.4.72c.12.95 1.39 2.07 2.27 1.11q.33-.36.78-.57"/><path stroke="#8f8f8f" vector-effect="non-scaling-stroke" d="M491.25 364.54l-1.75-.58"/><path stroke="#595a5c" vector-effect="non-scaling-stroke" d="M489.5 363.96q-1.35-1.13-3.01-1.59a1.26 1.23-50.5 00-.91.1q-7.99 4.33-12.54 12.28"/><path stroke="#8d8e7f" vector-effect="non-scaling-stroke" d="M473.04 374.75q-2.89 3.65-3.58 8.25"/><path stroke="#595a5c" vector-effect="non-scaling-stroke" d="M469.46 383l-2.67 11.75"/><path stroke="#686768" vector-effect="non-scaling-stroke" d="M466.79 394.75q-.99 3.81-2.11 7.58c-3.02 10.15-17.24 13.66-25.58 19.72a2.04 2.03-26.1 00-.76 2.2q4.94 17.42 7.61 35.34a.67.67 0 00.64.57q2.53.1 4.45-1.91"/><path stroke="#595a5c" vector-effect="non-scaling-stroke" d="M451.04 458.25c9.26-6.31 13.45-12.6 20.09-22.96"/><path stroke="#686768" vector-effect="non-scaling-stroke" d="M471.13 435.29c5.63-8.34 7.33-18.39 9.44-27.98q1.31-5.9 6.74-18.47c4.92-11.4 16.53-21.45 26.8-28.09q.43-.28-.08-.36c-2.94-.45-4.05 1.75-6.2 2.62q-7.97 3.21-16.58 1.53"/><path stroke="#a2a3a5" vector-effect="non-scaling-stroke" d="M471.13 435.29q-1.66-1.89.46-3.33a1.49 1.49 0 00.57-.75c2.12-6.22 4.37-11.98 5.66-18.57 2.12-10.85 6.52-24.6 13.33-33.6 2.89-3.81 7.11-7.2 10.65-10.95a1.11 1.1 23.6 00-.73-1.86q-2.48-.18-5.77-.12c-1.49.03-2.37-.49-3.76-.86"/><path stroke="#d8d8d8" vector-effect="non-scaling-stroke" d="M491.54 365.25l-.29-.71"/><path stroke="#c9cbcc" vector-effect="non-scaling-stroke" d="M489.5 363.96c-8.78 2.2-12.58 13.7-12.11 21.72a.5.5 0 00.96.18c1.97-4.41 3.86-8.15 7.02-12.18q3.23-4.11 6.17-8.43"/><path stroke="#a2a3a5" vector-effect="non-scaling-stroke" d="M451.04 458.25q-1.01-1.02-1.99.11a.84.84 0 01-.82.27q-1.11-.24-1.18-1.46-.42-6.76-1.04-9.68c-.24-1.13-1.24-1.95-1.48-3.41q-1.71-10.1-4.26-20.11a.72.71-25.3 01.28-.77c3.74-2.61 6.63-4.47 11.31-6.58 9.16-4.13 15.08-11.02 15.97-21.36a.47.46-87.8 00-.47-.51h-.57"/><path stroke="#c7cabc" vector-effect="non-scaling-stroke" d="M469.46 383l.03.31a.5.48 87.2 00.47.44h.34a.31.31 0 00.31-.26q.66-4.38 3.28-7.98a.5.49 29 00-.22-.75q-.33-.14-.63-.01"/><path stroke="#686768" vector-effect="non-scaling-stroke" d="M159.25 392.46q-12.94.94-25.77 2.93c-9.65 1.49-23.14 3.64-25.98 14.65"/><path stroke="#100f0f" vector-effect="non-scaling-stroke" d="M107.5 410.04q-.56-.29-.78-.27a1.41 1.3-85.9 00-1.22 1.15q-3.62 20.56 6.81 38.55a.93.87-38.7 001.43.11q.18-.2.3-1.08"/><path stroke="#686768" vector-effect="non-scaling-stroke" d="M114.04 448.5q5.22 10.57 13.3 19.28"/><path stroke="#595a5c" vector-effect="non-scaling-stroke" d="M127.34 467.78c8.59 8.91 19.29 14.68 29.71 21.18q10.25 6.41 20.68 7.95a.37.36 89.3 00.41-.43c-1.23-6.64-6.86-9.8-13.02-13.38-10.27-5.94-19.62-13.09-28.58-20.85"/><path stroke="#686768" vector-effect="non-scaling-stroke" d="M136.54 462.25q-9.02-9.73-14.04-22.04"/><path stroke="#595a5c" vector-effect="non-scaling-stroke" d="M122.5 440.21c-2.8-8.42-4.27-16.72 1-24.42"/><path stroke="#686768" vector-effect="non-scaling-stroke" d="M123.5 415.79c6.56-7.71 23.83-9.66 33.75-10.33"/><path stroke="#595a5c" vector-effect="non-scaling-stroke" d="M157.25 405.46q20.41-1.17 40.75-3.24c6.03-.61 5.93-7.57 5.48-11.8a1.22 1.21 85.5 00-1.27-1.09q-21.87.96-42.96 3.13"/><path stroke="#a2a3a5" vector-effect="non-scaling-stroke" d="M157.25 405.46c.61-2.37-6.3-.74-7.6-.42q-2.71.68-5.39.75c-7.14.19-11.72 2.57-18.16 4.93-1.21.44-5.13 3.69-2.6 5.07M122.5 440.21c-5.3-.58 11.8 21.94 12.68 23a.59.57 53.1 00.77.12q.56-.36.59-1.08"/><path stroke="#a2a3a5" vector-effect="non-scaling-stroke" d="M127.34 467.78q-1.85-4.46-4.57-8.37-4.42-6.37-5.1-7.59c-3.19-5.69-6.13-11.35-7.64-17.77q-1.53-6.5-1.66-9.8c-.14-3.67.49-15.13 3.25-19.07 3.9-5.57 15.33-7.34 21.72-8.25q13.39-1.92 26.81-3.57a.11.11 0 00.1-.11v-.34a.41.41 0 00-.38-.4l-.62-.05"/><path stroke="#585859" vector-effect="non-scaling-stroke" d="M114.04 448.5q-10.28-17.93-6.54-38.46"/><path stroke="#8d8e7f" vector-effect="non-scaling-stroke" d="M125.06 431.93c6.14 24.43 24.95 35.63 44.38 48.76a.71.7-71.4 001.1-.55c.33-6.5-.06-13.33.84-19.48q3.97-27.01 15.44-51.61a.41.41 0 00-.39-.59c-15.89.92-31.62 1.76-47.18 4.79-10.18 1.99-17.06 7.29-14.19 18.68"/><path stroke="#c9cbcc" vector-effect="non-scaling-stroke" d="M322.327 305.237a5.06 4.26 19.6 00-3.338-5.71 5.06 4.26 19.6 00-6.196 2.316 5.06 4.26 19.6 003.338 5.71 5.06 4.26 19.6 006.196-2.316"/></g><path d="M0 0h590.06l.19.29V589.8a.46.46 0 01-.46.46L.63 590.24q-.65 0-.21.47l.27.29H0V0zm586.25 4.51a.26.26 0 00-.26-.26H4.51a.26.26 0 00-.26.26v581.48a.26.26 0 00.26.26h581.48a.26.26 0 00.26-.26V4.51z"/><path fill="#1f1e1e" d="M590.06 0h.94v587.56c-.84-.45-.25-537.29-.25-587.06a.25.24-86.1 00-.21-.25q-.17-.02-.29.04l-.19-.29z"/><path fill="#fbfddf" d="M590.25.29q.12-.06.29-.04a.25.24-86.1 01.21.25c0 49.77-.59 586.61.25 587.06V591h-14.56q-2.38-.63-4.75 0h-229.5q-2.75-.63-5.5 0H24.44q-3.38-.63-6.75 0h-6.5q-5-.63-10 0h-.5l-.27-.29q-.44-.47.21-.47l589.16.02a.46.46 0 00.46-.46V.29z"/><path fill="#fbfddf" d="M586.25 585.99a.26.26 0 01-.26.26H4.51a.26.26 0 01-.26-.26V4.51a.26.26 0 01.26-.26h581.48a.26.26 0 01.26.26v581.48zM48.94 24.91c-12.01.25-20.92 5.71-21.95 18.61q-1.75 21.65.06 46.95a.41.4 78.5 00.53.36q1.35-.46 2.95-2.05 31.73-31.4 62.12-62.56a.9.9 0 00-.63-1.53q-21.8-.23-43.08.22zM318.46 129.5l.46-.97a.72.72 0 011.22-.13l2.78 3.68q.38.51.37-.12l-.05-3.43a1.17 1.15 20.2 00-.42-.89q-28.98-24.2-65.57-11.38-14 4.9-20.35 17.73a.9.9 0 01-.72.5c-13.73 1.44-25.29 5.18-31.76 18.56a.63.63 0 01-.7.35q-23.35-4.71-40.45 9.36c-11.09 9.11-14.28 20.71-14 34.6a.38.38 0 01-.7.2c-4.63-7.8-3.76-15.13-.5-24.04a.37.37 0 00-.34-.5q-.99-.02-3.19.28c-18.49 2.5-30.15 13.12-33.72 30.97-.88 4.42-1.61 8.34-.31 12.42.35 1.07.41 2.38-.05 3.28-6.74 13.12-1.59 22.15 7.42 31.41a.61.61 0 01.07.77q-12.33 17.99 2.02 34.39 2.21 2.53 10.32 7.96c-2.46 4.54-5.32 10.29-4.82 15.24a.73.73 0 00.54.63c6.51 1.71 19.3-2.99 25.24-5.91q.69.6.29 1.54c3.6 17.13 19.23 29.38 36.94 27.82q28.86-2.53 45.31-26.05 6.91-9.88 6.3-21.57-.02-.49.4-.25 23.12 12.97 44.72-.45 9.66-6 12.97-18.44a.56.55-77.9 01.62-.41q14.15 2.27 28.23-.51c9.95-1.97 27.67-10.95 32.66-19.92q1.05-1.88 1.09.27.27 11.9-9.52 18.35a.63.63 0 00-.25.74q2.91 8.21 5.56 12.35c4.07 6.35 9.87 7.56 16.5 8.78a1.43 1.42 1.2 011.14 1.18c.34 2.42.1 5.29.68 7.45 2.69 10.03 12.01 14.09 21.85 12.5a.48.48 0 01.55.42c1.08 8.86 6.79 17.06 13.92 22.26 5.61 4.08-2.13 8.91-4.41 11.76q-2.3 2.86-2.3 6.68l-.75.33q-11.11-4.03-23.51-4.78-26.39-1.6-39.23-2.22c-4.12-.2-19.3-5.49-13.5-12.02 4.41-4.96 13.4-15.38 12.41-21.18-3.66-21.29-38.09-23.24-50.37-9.99-7.21 7.78-6.69 21.13 2.52 27.34q5.16 3.48 6.38 5.1c2.75 3.68-.48 8.39-3.96 10.03q-4.81 2.26-9.24 2.7-9.06.9-35.23 2.97-3.89.31-17.26 2.76c-8.86 1.62-14.77 4.74-21.29 10.89-6.97 6.57-9.61 12.65-13.2 23.28a.75.74 7.6 01-.66.5q-31.04 1.38-61.86 5.3c-6.55.83-20.63 3.33-25.51 7.29-24.38 19.81-9.27 53.42 9.31 70.45q16.26 14.9 37.73 27.54c6.37 3.75 12.86 5.23 19.93 6.9a1.14 1.13-7.3 01.73.56c7.51 13.28 17.74 21.46 30.55 30.04 3.76 2.52 6.6 6.78 9.55 8.76q24.45 16.5 53.71 19.94c29.37 3.45 60.22 1.11 89.48-2.62 15.47-1.98 27.28-5.54 39.1-15.07 13.98-11.28 36.24-23.64 41.57-41.42 2.6-8.67 5.07-17.71 5.12-26.84a1.51 1.5-15.6 01.73-1.29c12.91-7.81 26.78-21.85 30.32-36.45q4.73-19.46 10.19-38.72c4.59-16.2 21.05-30.87 36.1-38.3a1.3 1.28-5.3 00.65-.77q.54-1.77-.39-3.36a1.11 1.07 77.3 00-.81-.53q-12.75-1.61-25.56-1.1c-9.72.39-15.15 2.03-21.91 8.37q-7.73 7.25-9.44 9.8-6.56 9.8-13.99 28.46c-2.74 6.88-10.57 12.54-16.4 16.75a.49.49 0 01-.74-.22l-17.03-43.81c13.5-2.5 22.02-9.39 28.23-21.46 5.9-11.43 4.19-22.9 7.63-34.76q2.67-9.23 4.73-18.66l.38-.2.36.22a.42.42 0 00.58-.15l.6-1.03 1.25-.33c8.07 2.05 4.86-4.31 6.5-8.17 8.99-2.34 7.13-10.71 10.3-17.26 4.7-9.75-1.25-18-4.3-26.89-1.26-3.67-3.19-5.68-6.58-7.03a1.9 1.89 11.6 01-1.19-1.8q.31-15.06-4.91-28.9c-4.23-11.2-12.66-18.65-21.7-26.24-2.61-2.18-6.22-4.41-9.07-7.02a1.33 1.32 18.9 01-.41-.83c-2.07-24.59-21.37-31.76-42.95-29.37a.79.79 0 01-.75-.37c-6.51-11.03-17.86-10.61-28.81-7.09a.54.54 0 00-.3.79c1.83 3.08 3.45 5.58 3.56 9.22q.19 6.32-1.09 13.31-.47 2.55 1.85 1.4 1.8-.9 5.62-.57 9.55.82 16.97 6.57-7.92-3.64-15.49-5.24-3.98-.85-7.94.86a1.83 1.78-84.1 00-.79.66l-3.79 5.74q-.72 1.1-.33-.16 2.81-9.11 4.13-18.57.77-5.49-2.23-10.55-6.32-10.65-12.15-23.72c-1.59-3.57-5.14-10.99-10.2-7.01q-11.32 8.9-12.35 23.36a.98.98 0 01-1.69.61l-3.95-4.19zM36.422 462.369a1.33.7 39.1 00-.59-1.382 1.33.7 39.1 00-1.474-.296 1.33.7 39.1 00.59 1.382 1.33.7 39.1 001.474.296zm-17.687 47.404a.72.72 0 00-1.017-.067l-.06.052a.72.72 0 00-.067 1.016l2.095 2.393a.72.72 0 001.015.067l.06-.052a.72.72 0 00.068-1.016l-2.095-2.393z"/><path fill="#fbe6a9" d="M26.99 43.52c1.03-12.9 9.94-18.36 21.95-18.61q21.28-.45 43.08-.22a.9.9 0 01.63 1.53Q62.26 57.38 30.53 88.78q-1.6 1.59-2.95 2.05a.41.4 78.5 01-.53-.36q-1.81-25.3-.06-46.95z"/><path fill="#1f1e1e" d="M385.24 167.71q2.3 2.45 5.22 4.04c7 4.7 15.44 12.02 16.83 20.8a1.35 1.35 0 01-1.15 1.55q-8.16 1.12-16.49.41c-7.23-.62-15.43-3.52-23.15-5.3l-6.88-1.41a.35.35 0 00-.31.61l15.83 14.38a1.02 1.01 70.6 01-.84 1.76l-8.76-1.42c-8.84-2.43-15.85-11.29-22.78-18.37q-1.37-1.4-5.26-2.45c-1.81-2.03-9.4-2.26-12.96-2.55-4.25-.35-6.49-2.27-7.44-6.23a.72.72 0 00-.6-.55q-6.43-.91-12.93-4.59-6.81-3.84-5.62-11.44.08-.52.26-.03.78 2.21 1.61 4.38c2.83 7.37 10.14 8.04 16.25 10.65a.32.31 26.5 00.41-.13c.18-.31-.02-.45-.26-.58q-12.27-6.46-16.49-19.73-.33-1.03-.14-2.28.08-.48.35-.08l.54.79c1.99 3.99 3.64 8.46 6.23 11.71q6.58 8.26 16.93 10.85c3.43.85 6.48 2.37 9.92 3.16q.46.11.13-.23l-9.22-9.47-13.18-22.21-7.1-14.9q.39-2.67-.57-5.35a.76.76 0 01.99-.97q7.15 2.67 13.85 6.97l3.95 4.19a.98.98 0 001.69-.61q1.03-14.46 12.35-23.36c5.06-3.98 8.61 3.44 10.2 7.01q5.83 13.07 12.15 23.72 3 5.06 2.23 10.55-1.32 9.46-4.13 18.57-.39 1.26.33.16l3.79-5.74a1.83 1.78-84.1 01.79-.66q3.96-1.71 7.94-.86 7.57 1.6 15.49 5.24zm-41.103-19.375a13.69 6.96 69.4 001.698-15.264 13.69 6.96 69.4 00-11.332-10.366 13.69 6.96 69.4 00-1.698 15.264 13.69 6.96 69.4 0011.332 10.366zm55.96 41.2a9.03 4.79 32 00-5.119-8.847 9.03 4.79 32 00-10.196-.723 9.03 4.79 32 005.12 8.847 9.03 4.79 32 0010.196.723z"/><path fill="#939699" d="M318.46 129.5q-6.7-4.3-13.85-6.97a.76.76 0 00-.99.97q.96 2.68.57 5.35 1.7 7.88 5.88 14.82a.77.77 0 00.79.36q.27-.05.43-.28l13.18 22.21q-.37 2.42 1.37 4.29a.49.49 0 01-.17.78q-.93.38-1.73-.35a1.54 1.51-19 00-.8-.38c-9.88-1.56-18.16-10.52-20.75-19.79q-.63-2.25-1.91-.57l-.54-.79q-.27-.4-.35.08-.19 1.25.14 2.28 4.22 13.27 16.49 19.73c.24.13.44.27.26.58a.32.31 26.5 01-.41.13c-6.11-2.61-13.42-3.28-16.25-10.65q-.83-2.17-1.61-4.38-.18-.49-.26.03-1.19 7.6 5.62 11.44 6.5 3.68 12.93 4.59a.72.72 0 01.6.55c.95 3.96 3.19 5.88 7.44 6.23 3.56.29 11.15.52 12.96 2.55q.98 1.92 2.68 3.08c8.2 5.6 14.6 13.3 18.85 16.84q2.53 2.12 6.51.9l8.76 1.42a1.02 1.01 70.6 00.84-1.76l-15.83-14.38a.35.35 0 01.31-.61l6.88 1.41-.66.18a.3.3 0 00-.06.55c3.36 1.76 6.34.81 9.5 2.89 1.97 1.3 3.64 1.61 5.8 2.14a1.43 1.35 37.9 00.93-.09q1.25-.6 2.49.13.47.28 1.01.3c7.27.27 14.39 1.6 21.77-.68a.94.94 0 00.63-.64c2.17-7.7-9.53-17.5-15.48-22.16q-1.15-.9-1.97-.08-2.92-1.59-5.22-4.04-7.42-5.75-16.97-6.57-3.82-.33-5.62.57-2.32 1.15-1.85-1.4 1.28-6.99 1.09-13.31c-.11-3.64-1.73-6.14-3.56-9.22a.54.54 0 01.3-.79c10.95-3.52 22.3-3.94 28.81 7.09a.79.79 0 00.75.37c21.58-2.39 40.88 4.78 42.95 29.37a1.33 1.32 18.9 00.41.83c2.85 2.61 6.46 4.84 9.07 7.02 9.04 7.59 17.47 15.04 21.7 26.24q5.22 13.84 4.91 28.9a1.9 1.89 11.6 001.19 1.8c3.39 1.35 5.32 3.36 6.58 7.03 3.05 8.89 9 17.14 4.3 26.89-3.17 6.55-1.31 14.92-10.3 17.26l-1.96-12.54.43.01a.43.42-5.1 00.42-.5c-1.32-7.43-3.94-16.02-13.01-16.33a.57.57 0 01-.52-.72l.56-1.91a.27.26-68.3 00-.13-.31q-.15-.09-.29-.03c2.48-2.78 3.23-5.21 2.6-9.11-.79-4.98-2.14-10.78-1.62-15.8q3.12-.47 2.09-3.39a1.35 1.3 47.3 01.02-.92q2.02-5.01.75-10.07c-.55-2.21-2.15-4.7-2.8-7.44q-1.19-4.96-6.06-4.01c-11.55-.29-18.95 17.79-22.3 26.24q-2.19 2.25-2.64 5.39a.6.6 0 00.45.67q.33.08.72-.02l-2.33 10.43a.79.78-45.7 01-1.53.02c-.68-2.72-1.65-5.24-1.91-7.9q-1.35-13.67 2.71-27.24a.51.5 81.7 00-.76-.57c-3.65 2.37-3.28 24.74-2.82 29.35a.94.94 0 01-1.71.61q-8.32-12.39-20.32-21.21a.53.53 0 00-.8.23l-.22.54a.71.71 0 00.26.86c10.15 6.8 18.41 15.04 23.14 26.64a.61.61 0 01-.9.73c-12.6-8.38-31.65-17.96-46.73-11.24-4.31-1.43-3.38 2.83-4.17 5.07a1.59 1.53 47.7 00-.03.96c.42 1.39 1.34 2.44 1.79 3.81 1.55 4.68 5.73 8.65 9.45 11.59q3.97 3.14 5.18 4.42 5.77 6.09 7.87 9.25 3.06 4.63 6.78 6.63c1.07.57 2.05.12 1.84-1.19h2.25q.68 2.87.14 5.68c-.79 4.07-.62 6.41-.25 10.06a1.81 1.76 24.4 00.35.89c3.44 4.52 5.81 9.86 9.45 13.78 2.24 2.41 6.66 7.61 9.74 8.12 4.46.74 7.13-6.14 7.28-9.75q.34-8.21 1.07-16.4.55-6.16 1.36-12.27 1.63.39 2.27-.35a.53.53 0 00-.02-.72q-.34-.34-.35-.83l2.49.42a1.21 1.2-13.2 01.78.48c2.32 3.14 5.54 4.93 7.98 6.88 3.94 3.15 7.69 6.53 12.11 8.97q2.01 1.11 2.18 3.7-2.06 9.43-4.73 18.66c-3.44 11.86-1.73 23.33-7.63 34.76-6.21 12.07-14.73 18.96-28.23 21.46q-1.54 1.22-3.86 1.79a.79.79 0 00-.54 1.09q9.11 21.17 17.12 43.04c-2.82.75.31 5.99 1.06 7.54 4.38 9.1 5.95 21.26 6.54 31.71.48 8.63 1.33 15.33.1 25.22q-.02.09-.48 6.57c-.72 10.04-6.86 16.1-12.61 23.56-3.64 4.73-10.41 8.25-15.26 11.73-3.37 2.42-8.18 4.85-12.22 5.67-21.38 4.3-45.94 3.75-65.84.55q-3.12-.5-4.51.62-17.68-2.43-34.46-8.38-2.82-2.69-6.42-3.9-2.96-1.01-4.45-1.99-5.58-3.72-10.98-7.71c-8.98-6.65-13.92-15.63-19.66-25.42-6.14-10.51-10.6-20.28-12.97-31.63q-.89-4.26-2.04-8.46-1.28-3.13 0-6.4 1.9-13.54 2.4-27.21c.28-7.84 2.73-15.19 2.07-23.11-.13-1.46-1.03-3.15-.48-5.17q19.28 5.04 41.25 6.68 48.62 3.63 94.99-1.29c8.86-.94 26.18-3.24 31.77-11.1a.7.7 0 00-.01-.83q-.77-1.03-2.25-.29l.11-.55a.52.5-69.1 00-.22-.52c-.27-.18-14.95 1.16-16.71 1.16q-6.72-.03-13.66 1.46a.53.53 0 00-.24.92q.53.46 1.22.36l-6.71 2.96q-3.4-.22-4.04 3.21h-.5q-1.79-1.55-3.83-.98a1.17 1.16-.5 01-1.44-1.41c1.48-5.78 7.29-9.97 12.35-12.32q2.41-1.11 10.05-2.69c5.67-1.17 24.54-6.38 27.2-12.8a1.17 1.14 44.4 00-.02-.92q-1.93-4.19-6.06-6.13 0-3.82 2.3-6.68c2.28-2.85 10.02-7.68 4.41-11.76-7.13-5.2-12.84-13.4-13.92-22.26a.48.48 0 00-.55-.42c-9.84 1.59-19.16-2.47-21.85-12.5-.58-2.16-.34-5.03-.68-7.45a1.43 1.42 1.2 00-1.14-1.18c-6.63-1.22-12.43-2.43-16.5-8.78q-2.65-4.14-5.56-12.35a.63.63 0 01.25-.74q9.79-6.45 9.52-18.35-.04-2.15-1.09-.27c-4.99 8.97-22.71 17.95-32.66 19.92q-14.08 2.78-28.23.51a.56.55-77.9 00-.62.41q-3.31 12.44-12.97 18.44-21.6 13.42-44.72.45-.42-.24-.4.25.61 11.69-6.3 21.57-16.45 23.52-45.31 26.05c-17.71 1.56-33.34-10.69-36.94-27.82q2.63-.9 4.93-2.43c2.73-1.83 5.24-2.54 8.03-3.86a1 .98-43.1 01.9.02q1.2.66 2.56.52c-2.32 3.09-9.36 10.06-9.66 13.48a.42.42 0 00.47.46l2.91-.32q3.69.62 6.82-1.6 3.8-2.69 7.57-5.48a1.46 1.44-11.1 00.53-.78c.64-2.54 2.74-4.13 3.74-5.95 5.06-9.25 10-16.81 20.01-19.97 3.19-1 8.06-3.8 9.35-5.89q1.67-2.71-.45-4.66-.39-.68-.27-1.7a1.14 1.1-15.6 01.47-.8c5.96-4.22 11.38-16.38 10.61-23.53a.46.46 0 00-.56-.4q-1.04.23-1.4 1.22-1.49 1.93-1.41 4.43a.52.51 85.9 00.57.5q.23-.02.45-.26c-1.92 16.27-14.88 19.73-25.86 28.81q-.55.45-.2-.17c3.44-6.21 6.92-10.69 9.35-18.43l1.11.23a.88.87-79.7 001.04-.73c1.27-8.77 3.2-17.07 5.08-25.52.54-2.42 4.25-11.95 2.31-14.19l.16-1.94a.34.33-6.3 00-.44-.35c-7.09 2.33-13.2 9.34-16.47 15.79l-.03-.44a.62.62 0 00-.48-.55c-1.23-.29-2.54-5.22-3.74-7.48-2.19-4.12-5.62-6.72-9.13-9.67q-2.77-2.32-6.21-2.09l-4.99.09q-2.32-.72-3.09 2.22-3.1 11.8-4.7 23.94-.08.59.45.32.33-.18.59-.59c-1.24 6.84-5.53 14.04-2.29 20.92q3.98 8.48 8.73 16.67.24.41-.1.08-7.71-7.57-16.96-2.35-12.96 7.3-21.55 20.93-8.11-5.43-10.32-7.96-14.35-16.4-2.02-34.39a.61.61 0 00-.07-.77c-9.01-9.26-14.16-18.29-7.42-31.41.46-.9.4-2.21.05-3.28-1.3-4.08-.57-8 .31-12.42 3.57-17.85 15.23-28.47 33.72-30.97q2.2-.3 3.19-.28a.37.37 0 01.34.5c-3.26 8.91-4.13 16.24.5 24.04a.38.38 0 00.7-.2c-.28-13.89 2.91-25.49 14-34.6q17.1-14.07 40.45-9.36a.63.63 0 00.7-.35c6.47-13.38 18.03-17.12 31.76-18.56a.9.9 0 00.72-.5q6.35-12.83 20.35-17.73 36.59-12.82 65.57 11.38a1.17 1.15 20.2 01.42.89l.05 3.43q.01.63-.37.12l-2.78-3.68a.72.72 0 00-1.22.13l-.46.97zm-71.23 30.23c-16.55-7.29-38.27-6.85-50.19 8.27-5.54 7.04-6.93 14.71-1.25 22.02a.23.22-68.9 00.4-.18q-2.08-12.76 8.2-20.21c18.17-13.16 41.56-7.87 57.28 6.53q.43.4.31-.18-1.52-7.35-7.07-12.17a.89.88 26.4 01-.29-.84c2.87-14.38 13.19-27.41 28.36-29.69q.54-.09.02-.27c-1.9-.66-4.17-.01-5.7.02-14.63.24-24.72 14.16-29.43 26.43a.48.48 0 01-.64.27zM271.71 208l-3.34-2.18a.57.56 42 00-.67.03l-.49.4q-9.28-10.41-21.25-17.5.41-.19.56-.51a.56.55 25.4 00-.27-.73c-4.58-2.2-8.02-4.2-13.64-4.07a.66.66 0 00-.63.52q-.08.41.27.75c-10.53-.15-8.62 10.05-6.21 16.81q-.17 2.58 1.54 5.17 3.86 5.84 6.21 9.25c2.6 3.74 3.29 9.38 5.05 13.71.6 1.47 1.87 2.35 2.86 3.56a.56.55-38.2 00.77.09q.27-.2.32-.55c4.2 4.68 11.73-.76 13.18.63a.38.38 0 01-.1.62c-6.09 3.03-12.47 6.29-12.15 13.93q.65 15.4 9.55 28.04c1.14 1.61 2.91 2.68 4.53 1.07q2.12-2.1 3.15-2.68 2.57-.22 3.61-3.38c1.81-5.48 6.15-20.24 9.23-22.48 1.19 1.71 2.18-2.14 2.42-2.75q3.02 1.99 3.98 5.5a.76.75 86 00.64.56q.36.04.71-.31 2.6 4.17 3.68 8.75.1 5.61 3.65 9.92a.74.73-28.9 00.8.23q.59-.2.59-.45 3.9 2.04 4.2-3.2.21.88.97.82a.79.78-82.5 00.68-.53c1.54-4.38 1.71-8.64 2.57-12.78 1.04-4.94.81-8.33.16-12.92-.61-4.28-.26-7.29-4.36-9.94a1.29 1.25 9.1 01-.53-.71l-.74-2.44q1.12-.67 2.27-.76 2.28.45 2.63-1.83c.98-6.47 2.69-12.78 3.57-19.31.47-3.56 6.25-31.02-.18-30.06-8.28-9.01-23.63 29.54-25.5 34.06q-.19.46-.26-.04-1.12-8.51.47-16.81.08 1.13 1.2 1.02a.74.73-1 00.67-.68q.76-10.51-1-20.87a.82.82 0 00-.54-.64q-1.01-.34-1.58.67l-.43-.65a.42.42 0 00-.67-.04c-.29.34-.43.83-.33 1.3q2.97 13.46.98 27.15-.26 1.81-2.6 1.09a1.92 1.89 84.1 01-1.1-.91c-4.5-8.25-8.47-15.5-15.87-22.86a.46.46 0 00-.64 0l-.23.22a.56.55 49.9 00-.06.74c3.15 4.09 7.34 7.4 9.92 11.45 2.53 3.98 8.06 12.88 7.78 17.51zm-49.45 40.72a.13.13 0 00-.17.14c1.71 9.07-3.38 14.85-11.21 18.15-.76.31-1.01.63-.93 1.45a.4.39 76.3 00.54.33c7.64-3.16 14.45-9.22 13.65-18.05-.12-1.31-.81-1.6-1.88-2.02zM389.4 470.13a1.1 1.1 0 001.7-.35q1.62-3.26 2.77-7.37c6.87-24.55 9.65-46.48 5.11-71.39a.53.52-12.3 00-.65-.41q-12.84 3.35-26.05 4.45a.88.88 0 00-.8.82c-1.3 22.97 2.11 47.67 12.87 68.28q1.56 3 5.05 5.97z"/><ellipse fill="#fff" transform="rotate(69.4 71.802 312.78)" rx="13.69" ry="6.96"/><path fill="#fbfddf" d="M304.19 128.85l7.1 14.9q-.16.23-.43.28a.77.77 0 01-.79-.36q-4.18-6.94-5.88-14.82z"/><path fill="#fff" d="M247.87 159.46c4.71-12.27 14.8-26.19 29.43-26.43 1.53-.03 3.8-.68 5.7-.02q.52.18-.02.27c-15.17 2.28-25.49 15.31-28.36 29.69a.89.88 26.4 00.29.84q5.55 4.82 7.07 12.17.12.58-.31.18c-15.72-14.4-39.11-19.69-57.28-6.53q-10.28 7.45-8.2 20.21a.23.22-68.9 01-.4.18c-5.68-7.31-4.29-14.98 1.25-22.02 11.92-15.12 33.64-15.56 50.19-8.27a.48.48 0 00.64-.27z"/><path fill="#b0b0b1" d="M324.47 165.96l9.22 9.47q.33.34-.13.23c-3.44-.79-6.49-2.31-9.92-3.16q-10.35-2.59-16.93-10.85c-2.59-3.25-4.24-7.72-6.23-11.71q1.28-1.68 1.91.57c2.59 9.27 10.87 18.23 20.75 19.79a1.54 1.51-19 01.8.38q.8.73 1.73.35a.49.49 0 00.17-.78q-1.74-1.87-1.37-4.29zM366.5 189.21c7.72 1.78 15.92 4.68 23.15 5.3q8.33.71 16.49-.41a1.35 1.35 0 001.15-1.55c-1.39-8.78-9.83-16.1-16.83-20.8q.82-.82 1.97.08c5.95 4.66 17.65 14.46 15.48 22.16a.94.94 0 01-.63.64c-7.38 2.28-14.5.95-21.77.68q-.54-.02-1.01-.3-1.24-.73-2.49-.13a1.43 1.35 37.9 01-.93.09c-2.16-.53-3.83-.84-5.8-2.14-3.16-2.08-6.14-1.13-9.5-2.89a.3.3 0 01.06-.55l.66-.18z"/><path fill="#1f1e1e" d="M274.96 173q2.38 10.12 1.25 20.5-1.59 8.3-.47 16.81.07.5.26.04c1.87-4.52 17.22-43.07 25.5-34.06 2.47 5.1 1.86 12.06.75 17.71q-2.87 14.64-5.04 29.4c-.23 1.53-1.07 2.66-1.73 4.09q-1.15.09-2.27.76-2.59.08-4.84 1.52-.43.28.07.4c8.13 2.01 9.22 6 9.22 13.83q0 12.74-3.2 22.75-.3 5.24-4.2 3.2-3.34-4.47-5.04-9.7-1.08-4.58-3.68-8.75l-4.56-8.8q-.23-.45-.31.05l-.46 3c-.24.61-1.23 4.46-2.42 2.75q.6-2.33-.05-4.53-.15-.5-.36-.02-6.84 14.93-12.43 30.41-1.03.58-3.15 2.68c-1.62 1.61-3.39.54-4.53-1.07q-8.9-12.64-9.55-28.04c-.32-7.64 6.06-10.9 12.15-13.93a.38.38 0 00.1-.62c-1.45-1.39-8.98 4.05-13.18-.63-3.31-3.65-4.66-9.03-6.41-13.57-2.38-6.14-7.18-11.7-10.34-17.66-2.41-6.76-4.32-16.96 6.21-16.81q7.33.43 13.71 4.04 11.97 7.09 21.25 17.5l3.78 4.57a.38.38 0 00.62-.05q.72-1.23.1-2.77c.28-4.63-5.25-13.53-7.78-17.51-2.58-4.05-6.77-7.36-9.92-11.45a.56.55 49.9 01.06-.74l.23-.22a.46.46 0 01.64 0c7.4 7.36 11.37 14.61 15.87 22.86a1.92 1.89 84.1 001.1.91q2.34.72 2.6-1.09 1.99-13.69-.98-27.15c-.1-.47.04-.96.33-1.3a.42.42 0 01.67.04l.43.65zm15.563 35.672a11.25 5.34 102.3 007.614-9.854 11.25 5.34 102.3 00-2.82-12.13 11.25 5.34 102.3 00-7.614 9.854 11.25 5.34 102.3 002.82 12.13zm-41.945 2.826a11.39 8.08 52.6 00-.5-13.956 11.39 8.08 52.6 00-13.336-4.14 11.39 8.08 52.6 00.5 13.956 11.39 8.08 52.6 0013.336 4.14zm42.083 47.863a7.33 3.44 87.1 003.065-7.495 7.33 3.44 87.1 00-3.807-7.147 7.33 3.44 87.1 00-3.065 7.495 7.33 3.44 87.1 003.807 7.147zm-35.036 6.014a7.87 5.27 92 005.542-7.681 7.87 5.27 92 00-4.992-8.05 7.87 5.27 92 00-5.542 7.682 7.87 5.27 92 004.992 8.05z"/><path fill="#b0b0b1" d="M276.21 193.5q1.13-10.38-1.25-20.5.57-1.01 1.58-.67a.82.82 0 01.54.64q1.76 10.36 1 20.87a.74.73-1 01-.67.68q-1.12.11-1.2-1.02zM301.5 176.29c6.43-.96.65 26.5.18 30.06-.88 6.53-2.59 12.84-3.57 19.31q-.35 2.28-2.63 1.83c.66-1.43 1.5-2.56 1.73-4.09q2.17-14.76 5.04-29.4c1.11-5.65 1.72-12.61-.75-17.71z"/><ellipse fill="#fff" transform="rotate(32 -125.93 776.675)" rx="9.03" ry="4.79"/><path fill="#b0b0b1" d="M337.5 182.31q3.89 1.05 5.26 2.45c6.93 7.08 13.94 15.94 22.78 18.37q-3.98 1.22-6.51-.9c-4.25-3.54-10.65-11.24-18.85-16.84q-1.7-1.16-2.68-3.08zM245.96 188.75q-6.38-3.61-13.71-4.04-.35-.34-.27-.75a.66.66 0 01.63-.52c5.62-.13 9.06 1.87 13.64 4.07a.56.55 25.4 01.27.73q-.15.32-.56.51z"/><ellipse fill="#fff" transform="rotate(102.3 66.848 216.807)" rx="11.25" ry="5.34"/><ellipse fill="#fff" transform="rotate(52.6 -83.983 345.706)" rx="11.39" ry="8.08"/><path fill="#b0b0b1" d="M226.04 201.52c3.16 5.96 7.96 11.52 10.34 17.66 1.75 4.54 3.1 9.92 6.41 13.57q-.05.35-.32.55a.56.55-38.2 01-.77-.09c-.99-1.21-2.26-2.09-2.86-3.56-1.76-4.33-2.45-9.97-5.05-13.71q-2.35-3.41-6.21-9.25-1.71-2.59-1.54-5.17z"/><path fill="#fbfddf" d="M271.71 208q.62 1.54-.1 2.77a.38.38 0 01-.62.05l-3.78-4.57.49-.4a.57.56 42 01.67-.03l3.34 2.18z"/><path fill="#b0b0b1" d="M455.48 232.55c.57-6.55 1.41-17.28-2.29-22.99q-.66-1.03-3.71-2.84 4.87-.95 6.06 4.01c.65 2.74 2.25 5.23 2.8 7.44q1.27 5.06-.75 10.07a1.35 1.3 47.3 00-.02.92q1.03 2.92-2.09 3.39z"/><path fill="#1f1e1e" d="M449.48 206.72q3.05 1.81 3.71 2.84c3.7 5.71 2.86 16.44 2.29 22.99-.52 5.02.83 10.82 1.62 15.8.63 3.9-.12 6.33-2.6 9.11-2.93 2.22-5.77 2.49-8.32 3.64q-.49.22.04.22c7.47.02 14.97-1.39 18.2 7.05.78 2.04 1.98 5.93 2.62 8.88l1.96 12.54c-1.64 3.86 1.57 10.22-6.5 8.17-5.9-3.4-10.08-8.21-15.61-12.16q-6.47-4.61-12.72-9.57a.36.36 0 00-.56.18q-.4 1.36.18 2.59.01.49.35.83a.53.53 0 01.02.72q-.64.74-2.27.35.35-1.91-1.45-3.43a.29.28 18.6 00-.47.23q.16 3.71-.16 7.36-1.09 12.35-2.31 24.69c-.35 3.58-2.62 12.13-8.14 6.62-4.64-4.62-9.57-9.84-12.68-15.47-5.52-9.99-3.35-15.75 4.2-23.17a.33.33 0 00-.37-.54l-7.76 3.6h-2.25q-4.71-1.63-7.22-5.33-5.98-8.78-13.7-14.89c-6.37-5.05-9.77-8.99-10.23-16.85a1.31 1.3-26.7 01.31-.92l2.13-2.55c15.08-6.72 34.13 2.86 46.73 11.24a.61.61 0 00.9-.73c-4.73-11.6-12.99-19.84-23.14-26.64a.71.71 0 01-.26-.86l.22-.54a.53.53 0 01.8-.23q12 8.82 20.32 21.21a.94.94 0 001.71-.61c-.46-4.61-.83-26.98 2.82-29.35a.51.5 81.7 01.76.57q-4.06 13.57-2.71 27.24c.26 2.66 1.23 5.18 1.91 7.9a.79.78-45.7 001.53-.02l2.33-10.43 1.47-6.04c3.35-8.45 10.75-26.53 22.3-26.24zm-7.985 33.662a10.97 8.01 101.7 0010.069-9.118 10.97 8.01 101.7 00-5.62-12.366 10.97 8.01 101.7 00-10.068 9.118 10.97 8.01 101.7 005.62 12.366zm-43.659 18.656a10.93 7.89 37.2 00-3.936-12.893 10.93 7.89 37.2 00-13.476-.323 10.93 7.89 37.2 003.936 12.893 10.93 7.89 37.2 0013.476.323zm63.522 29.066a7.5 4.96 62.2 00.89-8.947 7.5 4.96 62.2 00-7.886-4.321 7.5 4.96 62.2 00-.89 8.947 7.5 4.96 62.2 007.886 4.321zm-41.507 18.88a7.68 4.99 74.9 002.817-8.714 7.68 4.99 74.9 00-6.819-6.115 7.68 4.99 74.9 00-2.817 8.715 7.68 4.99 74.9 006.819 6.115z"/><path fill="#fbfddf" d="M169.21 212.36q-4.27 8.14-5 17.12a1.5 1.47 68.6 01-.37.87c-.52.6-1.02 6.49-1.38 7.9q-.26.41-.59.59-.53.27-.45-.32 1.6-12.14 4.7-23.94.77-2.94 3.09-2.22zM193.79 232.5q-.19 1.57-1.25 2.88-.33.39-.41-.11c-1.8-11.09-7.84-18.43-17.93-23q3.44-.23 6.21 2.09c3.51 2.95 6.94 5.55 9.13 9.67 1.2 2.26 2.51 7.19 3.74 7.48a.62.62 0 01.48.55l.03.44z"/><path fill="#1f1e1e" d="M174.2 212.27c10.09 4.57 16.13 11.91 17.93 23q.08.5.41.11 1.06-1.31 1.25-2.88c3.27-6.45 9.38-13.46 16.47-15.79a.34.33-6.3 01.44.35l-.16 1.94c-2.08 7.13-4.4 13.73-5.68 21.15q-1.67 9.58-3.86 19.06c-2.43 7.74-5.91 12.22-9.35 18.43q-.35.62.2.17c10.98-9.08 23.94-12.54 25.86-28.81l.39-4.67q.36-.99 1.4-1.22a.46.46 0 01.56.4c.77 7.15-4.65 19.31-10.61 23.53a1.14 1.1-15.6 00-.47.8q-.12 1.02.27 1.7c-.36 8.5-8.69 8.49-14.26 11.49-9.22 4.95-13.33 13.04-18.26 21.68-3.06 5.37-9.51 8.8-15.05 11.16l-2.91.32a.42.42 0 01-.47-.46c.3-3.42 7.34-10.39 9.66-13.48l4.09-5.58a.34.34 0 00-.4-.52q-10.72 4.32-20.4 10.31c-5.94 2.92-18.73 7.62-25.24 5.91a.73.73 0 01-.54-.63c-.5-4.95 2.36-10.7 4.82-15.24q8.59-13.63 21.55-20.93 9.25-5.22 16.96 2.35.34.33.1-.08-4.75-8.19-8.73-16.67c-3.24-6.88 1.05-14.08 2.29-20.92.36-1.41.86-7.3 1.38-7.9a1.5 1.47 68.6 00.37-.87q.73-8.98 5-17.12l4.99-.09zm.84 39.98q3.15.64 4.65-1.08 8.05-9.24 4.24-21.5c-.92-2.96-2.88-4.59-5.86-4.94-3.89-1.26-4.84 1.17-6.53 4.34-3.34 6.25-6.18 20.53 2.45 24.16a.54.53-64.7 00.69-.25l.36-.73zm-30.995 41.05a8.97 4.94-44.8 00-9.846 2.815 8.97 4.94-44.8 00-2.884 9.826 8.97 4.94-44.8 009.846-2.816 8.97 4.94-44.8 002.884-9.826z"/><ellipse fill="#fff" transform="rotate(101.7 128.382 295.442)" rx="10.97" ry="8.01"/><path fill="#b0b0b1" d="M210.54 219c1.94 2.24-1.77 11.77-2.31 14.19-1.88 8.45-3.81 16.75-5.08 25.52a.88.87-79.7 01-1.04.73l-1.11-.23q2.19-9.48 3.86-19.06c1.28-7.42 3.6-14.02 5.68-21.15z"/><path d="M178.07 224.73c-8.49 3.31-11.13 22.28-3.03 27.52l-.36.73a.54.53-64.7 01-.69.25c-8.63-3.63-5.79-17.91-2.45-24.16 1.69-3.17 2.64-5.6 6.53-4.34z"/><path fill="#fff" d="M178.07 224.73c2.98.35 4.94 1.98 5.86 4.94q3.81 12.26-4.24 21.5-1.5 1.72-4.65 1.08c-8.1-5.24-5.46-24.21 3.03-27.52z"/><path fill="#b0b0b1" d="M293.21 228.25l.74 2.44a1.29 1.25 9.1 00.53.71c4.1 2.65 3.75 5.66 4.36 9.94.65 4.59.88 7.98-.16 12.92-.86 4.14-1.03 8.4-2.57 12.78a.79.78-82.5 01-.68.53q-.76.06-.97-.82 3.2-10.01 3.2-22.75c0-7.83-1.09-11.82-9.22-13.83q-.5-.12-.07-.4 2.25-1.44 4.84-1.52z"/><path fill="#fbfddf" d="M427.18 232.96l-1.47 6.04q-.39.1-.72.02a.6.6 0 01-.45-.67q.45-3.14 2.64-5.39z"/><path fill="#b0b0b1" d="M371.79 240.25l-2.13 2.55a1.31 1.3-26.7 00-.31.92c.46 7.86 3.86 11.8 10.23 16.85q7.72 6.11 13.7 14.89 2.51 3.7 7.22 5.33c.21 1.31-.77 1.76-1.84 1.19q-3.72-2-6.78-6.63-2.1-3.16-7.87-9.25-1.21-1.28-5.18-4.42c-3.72-2.94-7.9-6.91-9.45-11.59-.45-1.37-1.37-2.42-1.79-3.81a1.59 1.53 47.7 01.03-.96c.79-2.24-.14-6.5 4.17-5.07zM281.54 251.5q-.35.35-.71.31a.76.75 86 01-.64-.56q-.96-3.51-3.98-5.5l.46-3q.08-.5.31-.05l4.56 8.8z"/><ellipse fill="#fff" transform="rotate(37.2 -180.475 704.353)" rx="10.93" ry="7.89"/><path fill="#b0b0b1" d="M273.79 248.5c-3.08 2.24-7.42 17-9.23 22.48q-1.04 3.16-3.61 3.38 5.59-15.48 12.43-30.41.21-.48.36.02.65 2.2.05 4.53zM218.1 244.33l-.39 4.67q-.22.24-.45.26a.52.51 85.9 01-.57-.5q-.08-2.5 1.41-4.43z"/><ellipse fill="#fff" transform="rotate(87.1 12.58 278.704)" rx="7.33" ry="3.44"/><path fill="#1f1e1e" d="M222.26 248.72c1.07.42 1.76.71 1.88 2.02.8 8.83-6.01 14.89-13.65 18.05a.4.39 76.3 01-.54-.33c-.08-.82.17-1.14.93-1.45 7.83-3.3 12.92-9.08 11.21-18.15a.13.13 0 01.17-.14z"/><ellipse fill="#fff" transform="rotate(92 3.613 252.315)" rx="7.87" ry="5.27"/><path fill="#fbfddf" d="M454.5 257.46q.14-.06.29.03a.27.26-68.3 01.13.31l-.56 1.91a.57.57 0 00.52.72c9.07.31 11.69 8.9 13.01 16.33a.43.42-5.1 01-.42.5l-.43-.01c-.64-2.95-1.84-6.84-2.62-8.88-3.23-8.44-10.73-7.03-18.2-7.05q-.53 0-.04-.22c2.55-1.15 5.39-1.42 8.32-3.64z"/><path fill="#b0b0b1" d="M285.22 260.25q1.7 5.23 5.04 9.7 0 .25-.59.45a.74.73-28.9 01-.8-.23q-3.55-4.31-3.65-9.92zM161.68 313.87c5.54-2.36 11.99-5.79 15.05-11.16 4.93-8.64 9.04-16.73 18.26-21.68 5.57-3 13.9-2.99 14.26-11.49q2.12 1.95.45 4.66c-1.29 2.09-6.16 4.89-9.35 5.89-10.01 3.16-14.95 10.72-20.01 19.97-1 1.82-3.1 3.41-3.74 5.95a1.46 1.44-11.1 01-.53.78q-3.77 2.79-7.57 5.48-3.13 2.22-6.82 1.6z"/><ellipse fill="#fff" transform="rotate(62.2 -4.37 520.237)" rx="7.5" ry="4.96"/><path fill="#b0b0b1" d="M462.5 297.96l-1.25.33-.52-.15a.57.57 0 00-.68.32l-.34.79-.38.2q-.17-2.59-2.18-3.7c-4.42-2.44-8.17-5.82-12.11-8.97-2.44-1.95-5.66-3.74-7.98-6.88a1.21 1.2-13.2 00-.78-.48l-2.49-.42q-.58-1.23-.18-2.59a.36.36 0 01.56-.18q6.25 4.96 12.72 9.57c5.53 3.95 9.71 8.76 15.61 12.16zM431.89 280.9q-.81 6.11-1.36 12.27-.73 8.19-1.07 16.4c-.15 3.61-2.82 10.49-7.28 9.75-3.08-.51-7.5-5.71-9.74-8.12-3.64-3.92-6.01-9.26-9.45-13.78a1.81 1.76 24.4 01-.35-.89c-.37-3.65-.54-5.99.25-10.06q.54-2.81-.14-5.68l7.76-3.6a.33.33 0 01.37.54c-7.55 7.42-9.72 13.18-4.2 23.17 3.11 5.63 8.04 10.85 12.68 15.47 5.52 5.51 7.79-3.04 8.14-6.62q1.22-12.34 2.31-24.69.32-3.65.16-7.36a.29.28 18.6 01.47-.23q1.8 1.52 1.45 3.43z"/><path fill="#1f1e1e" d="M403.75 349.29c13 7.69-6.28 13.88-11.5 15.47-12.17 3.71-31.3 5.12-32.44 21.53a.47.46 89.5 00.5.5l5.94-.58h.5q.18.22.4.34a.47.47 0 00.67-.25q.85-2.18 2.97-3.3l6.71-2.96c9.93-2.32 19.54-1.91 29.5-2.83q1.48-.74 2.25.29a.7.7 0 01.01.83c-5.59 7.86-22.91 10.16-31.77 11.1q-46.37 4.92-94.99 1.29-21.97-1.64-41.25-6.68-13.16-3.24-22.17-8.87-6.4-4.01-3.5-10.68a.48.48 0 00-.83-.47c-9.12 13.03 13.6 18.63 21.42 21.44 5.61 2.01 4.67 8.29 4.12 12.83q-2.51 20.53-3.03 41.24-1.28 3.27 0 6.4.07 8.52 3.64 19.25c8.79 26.51 25.55 50.86 52.88 59.86q16.78 5.95 34.46 8.38c20.14 2.76 39.25 4.27 58.96 1.85 9.23-1.14 15.42-2.08 22.48-6.34 13.55-8.19 29.24-20.79 31.08-37.91q3.94-36.61-9.3-70.77-8.01-21.87-17.12-43.04a.79.79 0 01.54-1.09q2.32-.57 3.86-1.79l17.03 43.81a.49.49 0 00.74.22c5.83-4.21 13.66-9.87 16.4-16.75q7.43-18.66 13.99-28.46 1.71-2.55 9.44-9.8c6.76-6.34 12.19-7.98 21.91-8.37q12.81-.51 25.56 1.1a1.11 1.07 77.3 01.81.53q.93 1.59.39 3.36a1.3 1.28-5.3 01-.65.77c-15.05 7.43-31.51 22.1-36.1 38.3q-5.46 19.26-10.19 38.72c-3.54 14.6-17.41 28.64-30.32 36.45a1.51 1.5-15.6 00-.73 1.29c-.05 9.13-2.52 18.17-5.12 26.84-5.33 17.78-27.59 30.14-41.57 41.42-11.82 9.53-23.63 13.09-39.1 15.07-29.26 3.73-60.11 6.07-89.48 2.62q-29.26-3.44-53.71-19.94c-2.95-1.98-5.79-6.24-9.55-8.76-12.81-8.58-23.04-16.76-30.55-30.04a1.14 1.13-7.3 00-.73-.56c-7.07-1.67-13.56-3.15-19.93-6.9q-21.47-12.64-37.73-27.54c-18.58-17.03-33.69-50.64-9.31-70.45 4.88-3.96 18.96-6.46 25.51-7.29q30.82-3.92 61.86-5.3a.75.74 7.6 00.66-.5c3.59-10.63 6.23-16.71 13.2-23.28 6.52-6.15 12.43-9.27 21.29-10.89q13.37-2.45 17.26-2.76 26.17-2.07 35.23-2.97 4.43-.44 9.24-2.7c3.48-1.64 6.71-6.35 3.96-10.03q-1.22-1.62-6.38-5.1c-9.21-6.21-9.73-19.56-2.52-27.34 12.28-13.25 46.71-11.3 50.37 9.99.99 5.8-8 16.22-12.41 21.18-5.8 6.53 9.38 11.82 13.5 12.02q12.84.62 39.23 2.22 12.4.75 23.51 4.78zm-110.5-43.04q9.47.86 16.76 6.02c5.77 4.08 9.53 10.27 6.52 17.11-4.32 9.84-22.93 18.35-32.77 20.48-18.81 4.07-39.53 6.66-57.13 14.77a.47.47 0 00.11.89q11.61 2.22 23.76 2.44 17.27 1.1 34.49-.12l55.76-3.13q11.25-1.05 22.42-2.7c17.12-2.52 26.26-3.62 39.08-7.35a.29.29 0 00.03-.55c-13.24-5.49-28.29-5.55-46.27-6.04q-13.43-.04-19.99-1.33c-8.37-1.65-20.18-11.3-11.73-20.69 3.31-3.67 12.76-13.02 10.94-18.03q-2.5-6.88-10.23-9.73c-8.93-5.57-28.51-2.54-34.36 7.26a.6.6 0 00.14.78q1.13.92 2.47-.08zm-69.15 54.06q10.65-4.95 22.18-7.45.49-.11-.01-.07-12.96.94-24.82 6.26a.69.69 0 00-.4.72c.12.95 1.39 2.07 2.27 1.11q.33-.36.78-.57zm267.15 4.23l-1.75-.58q-1.35-1.13-3.01-1.59a1.26 1.23-50.5 00-.91.1q-7.99 4.33-12.54 12.28-2.89 3.65-3.58 8.25l-2.67 11.75q-.99 3.81-2.11 7.58c-3.02 10.15-17.24 13.66-25.58 19.72a2.04 2.03-26.1 00-.76 2.2q4.94 17.42 7.61 35.34a.67.67 0 00.64.57q2.53.1 4.45-1.91c9.26-6.31 13.45-12.6 20.09-22.96 5.63-8.34 7.33-18.39 9.44-27.98q1.31-5.9 6.74-18.47c4.92-11.4 16.53-21.45 26.8-28.09q.43-.28-.08-.36c-2.94-.45-4.05 1.75-6.2 2.62q-7.97 3.21-16.58 1.53zm-332 27.92q-12.94.94-25.77 2.93c-9.65 1.49-23.14 3.64-25.98 14.65q-.56-.29-.78-.27a1.41 1.3-85.9 00-1.22 1.15q-3.62 20.56 6.81 38.55a.93.87-38.7 001.43.11q.18-.2.3-1.08 5.22 10.57 13.3 19.28c8.59 8.91 19.29 14.68 29.71 21.18q10.25 6.41 20.68 7.95a.37.36 89.3 00.41-.43c-1.23-6.64-6.86-9.8-13.02-13.38-10.27-5.94-19.62-13.09-28.58-20.85q-9.02-9.73-14.04-22.04c-2.8-8.42-4.27-16.72 1-24.42 6.56-7.71 23.83-9.66 33.75-10.33q20.41-1.17 40.75-3.24c6.03-.61 5.93-7.57 5.48-11.8a1.22 1.21 85.5 00-1.27-1.09q-21.87.96-42.96 3.13zm-34.19 39.47c6.14 24.43 24.95 35.63 44.38 48.76a.71.7-71.4 001.1-.55c.33-6.5-.06-13.33.84-19.48q3.97-27.01 15.44-51.61a.41.41 0 00-.39-.59c-15.89.92-31.62 1.76-47.18 4.79-10.18 1.99-17.06 7.29-14.19 18.68z"/><ellipse fill="#fff" transform="rotate(74.9 13.368 422.554)" rx="7.68" ry="4.99"/><ellipse fill="#fff" transform="rotate(-44.8 432.306 -17.208)" rx="8.97" ry="4.94"/><path fill="#b0b0b1" d="M167.96 300.25q-1.36.14-2.56-.52a1 .98-43.1 00-.9-.02c-2.79 1.32-5.3 2.03-8.03 3.86q-2.3 1.53-4.93 2.43.4-.94-.29-1.54 9.68-5.99 20.4-10.31a.34.34 0 01.4.52l-4.09 5.58z"/><path fill="#939699" d="M325 298.29q-.2.21-.29.45a.63.62 23.3 00.31.77q7.07 3.46 8.68 11.14a1.51 1.47 51.9 01-.1.92q-2.62 5.82-7.26 10.15c-2.44 2.28-6.33 7.46-6.34 10.86-.02 8.05 8.07 14.26 15.31 15.33q7.34 1.08 19.18 1.39 1.79.05 1.52-1.23c17.98.49 33.03.55 46.27 6.04a.29.29 0 01-.03.55c-12.82 3.73-21.96 4.83-39.08 7.35q-11.17 1.65-22.42 2.7.3-.56.13-.99a.71.7 76 00-.72-.44c-7.68.78-15.52 1.85-23.27 2.01q-14.37.29-28.7 1.39c-.7.05-4.98-.89-3.2 1.16q-17.22 1.22-34.49.12.43-.49.2-1.04a.72.71-11.1 00-.68-.45q-7.74.07-15.44-1.14a.52.52 0 01-.1-1c3.69-1.37 6.7-3.81 10.42-4.6 5.59-1.2 11.13-2.19 16.72-3.65q11.36-2.98 20.4-4.5 9.15-1.54 16.63-5.91c7.61-4.45 13.83-6.93 19.02-14.67 2.97-4.44.78-14-2.77-17.4q-8.6-8.22-21.65-7.35-1.34 1-2.47.08a.6.6 0 01-.14-.78c5.85-9.8 25.43-12.83 34.36-7.26zm-2.673 6.947a5.06 4.26 19.6 00-3.338-5.71 5.06 4.26 19.6 00-6.196 2.316 5.06 4.26 19.6 003.338 5.71 5.06 4.26 19.6 006.196-2.316zM461.25 298.29l-.6 1.03a.42.42 0 01-.58.15l-.36-.22.34-.79a.57.57 0 01.68-.32l.52.15z"/><path fill="#b0b0b1" d="M325 298.29q7.73 2.85 10.23 9.73c1.82 5.01-7.63 14.36-10.94 18.03-8.45 9.39 3.36 19.04 11.73 20.69q6.56 1.29 19.99 1.33.27 1.28-1.52 1.23-11.84-.31-19.18-1.39c-7.24-1.07-15.33-7.28-15.31-15.33.01-3.4 3.9-8.58 6.34-10.86q4.64-4.33 7.26-10.15a1.51 1.47 51.9 00.1-.92q-1.61-7.68-8.68-11.14a.63.62 23.3 01-.31-.77q.09-.24.29-.45z"/><ellipse fill="#fff" transform="rotate(19.6 -719.875 1071.008)" rx="5.06" ry="4.26"/><path fill="#b0b0b1" d="M250.5 367.96q-12.15-.22-23.76-2.44a.47.47 0 01-.11-.89c17.6-8.11 38.32-10.7 57.13-14.77 9.84-2.13 28.45-10.64 32.77-20.48 3.01-6.84-.75-13.03-6.52-17.11q-7.29-5.16-16.76-6.02 13.05-.87 21.65 7.35c3.55 3.4 5.74 12.96 2.77 17.4-5.19 7.74-11.41 10.22-19.02 14.67q-7.48 4.37-16.63 5.91-9.04 1.52-20.4 4.5c-5.59 1.46-11.13 2.45-16.72 3.65-3.72.79-6.73 3.23-10.42 4.6a.52.52 0 00.1 1q7.7 1.21 15.44 1.14a.72.71-11.1 01.68.45q.23.55-.2 1.04zM404.5 348.96q4.13 1.94 6.06 6.13a1.17 1.14 44.4 01.02.92c-2.66 6.42-21.53 11.63-27.2 12.8q-7.64 1.58-10.05 2.69c-5.06 2.35-10.87 6.54-12.35 12.32a1.17 1.16-.5 001.44 1.41q2.04-.57 3.83.98l-5.94.58a.47.46 89.5 01-.5-.5c1.14-16.41 20.27-17.82 32.44-21.53 5.22-1.59 24.5-7.78 11.5-15.47l.75-.33z"/><path fill="#b0b0b1" d="M223.32 360.88c-.88.96-2.15-.16-2.27-1.11a.69.69 0 01.4-.72q11.86-5.32 24.82-6.26.5-.04.01.07-11.53 2.5-22.18 7.45-.45.21-.78.57zM471.13 435.29q-1.66-1.89.46-3.33a1.49 1.49 0 00.57-.75c2.12-6.22 4.37-11.98 5.66-18.57 2.12-10.85 6.52-24.6 13.33-33.6 2.89-3.81 7.11-7.2 10.65-10.95a1.11 1.1 23.6 00-.73-1.86q-2.48-.18-5.77-.12c-1.49.03-2.37-.49-3.76-.86l-.29-.71q8.61 1.68 16.58-1.53c2.15-.87 3.26-3.07 6.2-2.62q.51.08.08.36c-10.27 6.64-21.88 16.69-26.8 28.09q-5.43 12.57-6.74 18.47c-2.11 9.59-3.81 19.64-9.44 27.98z"/><path fill="#939699" d="M489.5 363.96c-8.78 2.2-12.58 13.7-12.11 21.72a.5.5 0 00.96.18c1.97-4.41 3.86-8.15 7.02-12.18q3.23-4.11 6.17-8.43c1.39.37 2.27.89 3.76.86q3.29-.06 5.77.12a1.11 1.1 23.6 01.73 1.86c-3.54 3.75-7.76 7.14-10.65 10.95-6.81 9-11.21 22.75-13.33 33.6-1.29 6.59-3.54 12.35-5.66 18.57a1.49 1.49 0 01-.57.75q-2.12 1.44-.46 3.33c-6.64 10.36-10.83 16.65-20.09 22.96q-1.01-1.02-1.99.11a.84.84 0 01-.82.27q-1.11-.24-1.18-1.46-.42-6.76-1.04-9.68c-.24-1.13-1.24-1.95-1.48-3.41q-1.71-10.1-4.26-20.11a.72.71-25.3 01.28-.77c3.74-2.61 6.63-4.47 11.31-6.58 9.16-4.13 15.08-11.02 15.97-21.36a.47.46-87.8 00-.47-.51h-.57l2.67-11.75.03.31a.5.48 87.2 00.47.44h.34a.31.31 0 00.31-.26q.66-4.38 3.28-7.98a.5.49 29 00-.22-.75q-.33-.14-.63-.01 4.55-7.95 12.54-12.28a1.26 1.23-50.5 01.91-.1q1.66.46 3.01 1.59z"/><path fill="#b0b0b1" d="M340.75 364.71l-55.76 3.13c-1.78-2.05 2.5-1.11 3.2-1.16q14.33-1.1 28.7-1.39c7.75-.16 15.59-1.23 23.27-2.01a.71.7 76 01.72.44q.17.43-.13.99zM241.25 384.04c-.55 2.02.35 3.71.48 5.17.66 7.92-1.79 15.27-2.07 23.11q-.5 13.67-2.4 27.21.52-20.71 3.03-41.24c.55-4.54 1.49-10.82-4.12-12.83-7.82-2.81-30.54-8.41-21.42-21.44a.48.48 0 01.83.47q-2.9 6.67 3.5 10.68 9.01 5.63 22.17 8.87z"/><path fill="#fff" d="M489.5 363.96l1.75.58.29.71q-2.94 4.32-6.17 8.43c-3.16 4.03-5.05 7.77-7.02 12.18a.5.5 0 01-.96-.18c-.47-8.02 3.33-19.52 12.11-21.72z"/><path fill="#fbfddf" d="M473.04 374.75q.3-.13.63.01a.5.49 29 01.22.75q-2.62 3.6-3.28 7.98a.31.31 0 01-.31.26h-.34a.5.48 87.2 01-.47-.44l-.03-.31q.69-4.6 3.58-8.25z"/><path fill="#b0b0b1" d="M407 377.21c-9.96.92-19.57.51-29.5 2.83q-.69.1-1.22-.36a.53.53 0 01.24-.92q6.94-1.49 13.66-1.46c1.76 0 16.44-1.34 16.71-1.16a.52.5-69.1 01.22.52l-.11.55zM370.79 383q-2.12 1.12-2.97 3.3a.47.47 0 01-.67.25q-.22-.12-.4-.34.64-3.43 4.04-3.21z"/><path fill="#939699" d="M157.25 405.46c.61-2.37-6.3-.74-7.6-.42q-2.71.68-5.39.75c-7.14.19-11.72 2.57-18.16 4.93-1.21.44-5.13 3.69-2.6 5.07-5.27 7.7-3.8 16-1 24.42-5.3-.58 11.8 21.94 12.68 23a.59.57 53.1 00.77.12q.56-.36.59-1.08c8.96 7.76 18.31 14.91 28.58 20.85 6.16 3.58 11.79 6.74 13.02 13.38a.37.36 89.3 01-.41.43q-10.43-1.54-20.68-7.95c-10.42-6.5-21.12-12.27-29.71-21.18q-1.85-4.46-4.57-8.37-4.42-6.37-5.1-7.59c-3.19-5.69-6.13-11.35-7.64-17.77q-1.53-6.5-1.66-9.8c-.14-3.67.49-15.13 3.25-19.07 3.9-5.57 15.33-7.34 21.72-8.25q13.39-1.92 26.81-3.57a.11.11 0 00.1-.11v-.34a.41.41 0 00-.38-.4l-.62-.05q21.09-2.17 42.96-3.13a1.22 1.21 85.5 011.27 1.09c.45 4.23.55 11.19-5.48 11.8q-20.34 2.07-40.75 3.24z"/><path fill="#fff" d="M389.4 470.13q-3.49-2.97-5.05-5.97c-10.76-20.61-14.17-45.31-12.87-68.28a.88.88 0 01.8-.82q13.21-1.1 26.05-4.45a.53.52-12.3 01.65.41c4.54 24.91 1.76 46.84-5.11 71.39q-1.15 4.11-2.77 7.37a1.1 1.1 0 01-1.7.35z"/><path fill="#b0b0b1" d="M159.25 392.46l.62.05a.41.41 0 01.38.4v.34a.11.11 0 01-.1.11q-13.42 1.65-26.81 3.57c-6.39.91-17.82 2.68-21.72 8.25-2.76 3.94-3.39 15.4-3.25 19.07q.13 3.3 1.66 9.8c1.51 6.42 4.45 12.08 7.64 17.77q.68 1.22 5.1 7.59 2.72 3.91 4.57 8.37-8.08-8.71-13.3-19.28-10.28-17.93-6.54-38.46c2.84-11.01 16.33-13.16 25.98-14.65q12.83-1.99 25.77-2.93zM466.79 394.75h.57a.47.46-87.8 01.47.51c-.89 10.34-6.81 17.23-15.97 21.36-4.68 2.11-7.57 3.97-11.31 6.58a.72.71-25.3 00-.28.77q2.55 10.01 4.26 20.11c.24 1.46 1.24 2.28 1.48 3.41q.62 2.92 1.04 9.68.07 1.22 1.18 1.46a.84.84 0 00.82-.27q.98-1.13 1.99-.11-1.92 2.01-4.45 1.91a.67.67 0 01-.64-.57q-2.67-17.92-7.61-35.34a2.04 2.03-26.1 01.76-2.2c8.34-6.06 22.56-9.57 25.58-19.72q1.12-3.77 2.11-7.58z"/><path fill="#b0b0b1" d="M157.25 405.46c-9.92.67-27.19 2.62-33.75 10.33-2.53-1.38 1.39-4.63 2.6-5.07 6.44-2.36 11.02-4.74 18.16-4.93q2.68-.07 5.39-.75c1.3-.32 8.21-1.95 7.6.42z"/><path fill="#fbfddf" d="M169.44 480.69c-19.43-13.13-38.24-24.33-44.38-48.76-2.87-11.39 4.01-16.69 14.19-18.68 15.56-3.03 31.29-3.87 47.18-4.79a.41.41 0 01.39.59q-11.47 24.6-15.44 51.61c-.9 6.15-.51 12.98-.84 19.48a.71.7-71.4 01-1.1.55z"/><path d="M107.5 410.04q-3.74 20.53 6.54 38.46-.12.88-.3 1.08a.93.87-38.7 01-1.43-.11q-10.43-17.99-6.81-38.55a1.41 1.3-85.9 011.22-1.15q.22-.02.78.27z"/><path fill="#b0b0b1" d="M431.46 420.25q13.24 34.16 9.3 70.77c-1.84 17.12-17.53 29.72-31.08 37.91-7.06 4.26-13.25 5.2-22.48 6.34-19.71 2.42-38.82.91-58.96-1.85q1.39-1.12 4.51-.62c19.9 3.2 44.46 3.75 65.84-.55 4.04-.82 8.85-3.25 12.22-5.67 4.85-3.48 11.62-7 15.26-11.73 5.75-7.46 11.89-13.52 12.61-23.56q.46-6.48.48-6.57c1.23-9.89.38-16.59-.1-25.22-.59-10.45-2.16-22.61-6.54-31.71-.75-1.55-3.88-6.79-1.06-7.54zM122.5 440.21q5.02 12.31 14.04 22.04-.03.72-.59 1.08a.59.57 53.1 01-.77-.12c-.88-1.06-17.98-23.58-12.68-23zM237.26 445.93q1.15 4.2 2.04 8.46c2.37 11.35 6.83 21.12 12.97 31.63 5.74 9.79 10.68 18.77 19.66 25.42q5.4 3.99 10.98 7.71 1.49.98 4.45 1.99 3.6 1.21 6.42 3.9c-27.33-9-44.09-33.35-52.88-59.86q-3.57-10.73-3.64-19.25z"/><ellipse fill="#b0b0b1" transform="rotate(39.1 -632.162 280.596)" rx="1.33" ry=".7"/><rect x="-.76" y="-2.31" transform="rotate(-41.2 689.977 230.181)" width="1.52" height="4.62" rx=".72"/><path fill="#1f1e1e" d="M11.19 591h-10q5-.63 10 0zM24.44 591h-6.75q3.37-.63 6.75 0zM342.19 591h-5.5q2.75-.63 5.5 0zM576.44 591h-4.75q2.37-.63 4.75 0z"/></svg>