<svg xmlns="http://www.w3.org/2000/svg" viewBox="0 0 591 591"><g stroke-width="2" fill="none"><path stroke="#4a4b4c" vector-effect="non-scaling-stroke" d="M590.06 0l.23 4"/><path stroke="#111110" vector-effect="non-scaling-stroke" d="M590.29 4v1"/><path stroke="#4a4b4c" vector-effect="non-scaling-stroke" d="M590.29 5l-.03 584.57a.67.67 0 01-.67.67q-292.28.02-584.65.02-2.5 0-4.94-.32"/><path stroke="#7d7f71" vector-effect="non-scaling-stroke" d="M585.49 5.52a.27.27 0 00-.27-.27H5.52a.27.27 0 00-.27.27v579.7a.27.27 0 00.27.27h579.7a.27.27 0 00.27-.27V5.52"/><path stroke="#5b5c5c" vector-effect="non-scaling-stroke" d="M590.81 0q.25 2.1-.52 4M591 590.31c-.83-.45-.25-535.49-.25-585.1a.22.21 1.4 00-.21-.21h-.25M589.94 591q-4.88-.63-9.75 0M549.94 591q-14.38-.63-28.75 0M502.94 591q-6.88-.63-13.75 0M423.94 591q-11.38-.63-22.75 0M372.94 591q-17.13-.63-34.25 0M334.44 591q-13.88-.63-27.75 0M303.94 591q-3.38-.63-6.75 0M292.44 591l-39.69-.21M252.75 590.79l-18.56.21M230.94 591q-2.88-.63-5.75 0M223.94 591q-11.38-.63-22.75 0M200.94 591q-3.88-.63-7.75 0M192.94 591q-16.38-.63-32.75 0M135.94 591q-6.63-.63-13.25 0M121.94 591q-7.88-.63-15.75 0M87.94 591q-2.88-.63-5.75 0M77.94 591q-14.88-.63-29.75 0M39.94 591q-2.88-.63-5.75 0M23.94 591q-3.38-.63-6.75 0M13.94 591L0 590.44"/><path stroke="#faf2c9" vector-effect="non-scaling-stroke" d="M35.49 67.62Q58.38 44.57 81.04 21.3q1.2-1.23 1.79-2.42a1.05 1.05 0 00-.92-1.52q-19.76-.34-39.41-.06c-12.38.18-23.48 5.42-23.5 19.31-.01 14.27-1.14 29.98.62 44.06a1.05 1.04-22.1 001.67.7c5.36-4.07 10.41-9.94 14.2-13.75"/><path stroke="#c7cabd" vector-effect="non-scaling-stroke" d="M294.16 121.04l1.32-2.42a1.45 1.43 3.1 01.69-.61l1.5-.59q.75-.3-.03-.52l-6.51-1.84a.59.59 0 00-.66.89l3.25 5.1a.26.25 43.6 00.44-.01"/><path stroke="#7d7f71" vector-effect="non-scaling-stroke" d="M73.79 238.75q-1.97 6.65-3.75 13.35c-1.28 4.8-3.74 9.31-5.45 14.12-2.47 6.9-7.4 11.2-11.88 18.28"/><path stroke="#8e8f81" vector-effect="non-scaling-stroke" d="M52.71 284.5c-6.29 8.92-12.78 17.76-18.15 27.28-4.96 8.8-6.96 19.02-8.38 28.89a.28.28 0 00.28.32c.04 0 4.35-11.44 4.86-12.62.59-1.37 9.81-19.1 10.56-18.84a.13.12-70.9 01.07.16c-4.28 10.78-7.25 17.18-8.64 26.36-1.03 6.82-3.44 13.22-3.65 19.99q-.36 11.47 3.2 22.5.15.49.18-.02c.38-7.95-.37-16.72 1.12-23.89q1.66-7.95 5.08-15.42.3-.65.16.05-4.59 22.6.23 45.11a.29.29 0 00.58-.06c0-17.32.4-37.64 8.66-53.32q.24-.45.12.04-7.98 32.49-2.04 64.98.19 1.03 1.01 1.23a.4.4 0 00.49-.42q-2.87-42.71 10.85-83.18c.07-.18.2-.17.35-.11a.13.12 17.7 01.08.15q-3.57 14.13-4.3 18-3.71 19.84-.71 39.83c.08.48 1.86 9.75 4 8.34a.77.77 0 00.34-.78q-1.33-7.9-1.05-14.83.82-20.52 5.72-41.16c2.35-9.92 6.21-20.62 9.7-30.83 3.26-9.53 2.51-20.18 6.48-29.13q4.57-10.31 9.22-20.78a.28.28 0 01.54.15q-.61 4.58.62 8.94"/><path stroke="#7d7f71" vector-effect="non-scaling-stroke" d="M90.29 251.43c-.37 6.29 7.64 23.7 11.7 28.71q8.13 10.04 13.85 21.56"/><path stroke="#8e8f81" vector-effect="non-scaling-stroke" d="M115.84 301.7q5.33 15.17-.59 29.76"/><path stroke="#7d7f71" vector-effect="non-scaling-stroke" d="M115.25 331.46q-2.58 5.41-4.5 7.29-7.99 7.79-13.62 17.62"/><path stroke="#8e8f81" vector-effect="non-scaling-stroke" d="M97.13 356.37q-2.68 2.9-4.38 6.59"/><path stroke="#7d7f71" vector-effect="non-scaling-stroke" d="M92.75 362.96l-3.24 7.29a1.14 1.12-45.7 000 .93l7.3 16.02"/><path stroke="#8e8f81" vector-effect="non-scaling-stroke" d="M96.81 387.2q.89 7.99 1.63 16.06c1.42 15.61.69 30.56.1 46.15q-.29 7.37-2.22 14.5c-.97 3.6-1.63 8.79 1.89 11.36 2.24 1.63 5.3 1.05 8.01 3.46a1.24 1.24 0 01.41.85l.42 8.27a1.49 1.48-75.4 00.69 1.18c8.05 5.12 27.07 10.77 36.23 4.07a.77.76-25.1 00.29-.78c-2.04-8.89-5.27-20.88-14.89-23.84a1.13 1.13 0 01-.7-.59q-4.85-9.99-5.16-22.39c-.51-20.13-.77-39.03 7.63-56.56 3.22-6.72 4.91-12.53 10.64-17.73a.36.36 0 01.58.39c-1.37 3.58-3.94 10.55-.94 13.74 6.67 7.07 14.08 15.62 18.09 24.72 2.34 5.31 5.39 10.68 7.28 15.82q5.67 15.4 8.01 26.61c1.09 5.18-2.46 16.2 5.99 17.56q2.85.46 5.62 1.38a.82.82 0 01.54.64l1.59 9.48a1.24 1.21-78.4 00.52.81q6.96 4.78 14.99 7.06c8.33 2.37 14.26-.82 21.35-4.59a.77.76-16.9 00.4-.73c-.63-7.43-3.85-13.05-8.18-19.15-2.75-3.87-7.28-6.24-11.08-8.93a1.63 1.61 8.1 01-.57-.75c-2.47-6.72-6.51-12.52-8.75-19.16-3.68-10.89-9.83-21.31-13.16-32.57-3.9-13.22.89-28.03 4.68-42.16 1.83-6.85 1.06-15.82 1.48-21.15q1.46-18.59 11.57-34.31a.47.47 0 01.67-.13q12 8.71 20.1 13.42c23.62 13.73 50.64 18.69 77.95 19.49 14.54.42 29.38-2.32 43.68-5.67a.63.63 0 01.77.62c-.07 17.77-6.87 32.81-13.18 49.13a1.35 1.34-44.7 00-.01.94c3.13 8.71 7.22 17.27 7.19 26.95-.02 10.94-5.65 24.59-9.8 34.91q-2.19 5.46-1.97 8.15c.53 6.64 5.69 7.77 11.12 9.59a1.08 1.08 0 01.74 1.1c-.22 3.43-.54 11.43 3.04 13.35 3.33 1.79 5.26 4.11 9.48 5.17 7.33 1.86 18.1.59 25.04-1.88a.59.59 0 00.34-.81q-3.69-7.65-6.57-15.67c-1.53-4.25-3.9-5.83-6.98-8.32-4.16-3.36-6.22-12.92-6.03-18.03q.56-14.53 4.24-28.58c1.82-6.95 6.24-12.62 7.23-19.77q.79-5.76 1.4-11.55c1.05-9.96 4.22-15.37 8.35-22.93q.6-1.09 1.07.06c1.83 4.47 3.87 8.68 5.03 13.2q2.69 10.51 4.08 21.28a1.42 1.42 0 00.42.85c1.68 1.65 4.47 5.08 6.64 5.85q.46.16.82.51c4.7 4.65 7.11 9.01 8.58 15.87q3.3 15.54 6.04 31.19c.96 5.47.74 11.46 1.42 17.28a1.57 1.56 87.4 001.5 1.38l8.61.26a.65.64 1.4 01.63.65q-.08 8.26 2.42 16.12a1.2 1.17 6.4 00.55.67c10.04 5.43 20.53 4.34 31.08.72a.76.76 0 00.48-.9q-2.42-9.81-7.78-18.66c-3.08-5.08-8.42-6.41-10.66-12.53q-7.11-19.41-9.24-26.46-5.62-18.59-4.68-40.27a1.7 1.63-60.3 00-.23-.92q-5.85-10-7.52-14.37-2.36-6.17-6.39-22.18"/><path stroke="#7d7f71" vector-effect="non-scaling-stroke" d="M411.46 345q-1.32-11.06-.96-22.21"/><path stroke="#8e8f81" vector-effect="non-scaling-stroke" d="M410.5 322.79q11-6.72 19.4-16.41a.76.75 29.6 01.81-.22q11.9 3.83 20.25 13.12c5.44 6.07 25.81 31.79 22.57 39.57q-7.94 19-6.6 39.5c.3 4.69 1.65 9.61 2.76 14.35a1.41 1.39 11.8 00.52.78c5.66 4.08 11.95 9.02 15.46 15.07 6.12 10.56 8.82 25.23 9.81 37.66a1.43 1.4-69.4 00.38.86q2.97 3.1 4.08 7.18c1.86 6.78 13.5 6.47 19.62 6.09q8.45-.52 12.76-6.07c4.99-6.42 12.59-4.87 13.71-15.08 2.02-18.48 5.1-40.06-1.57-59.35a1.49 1.45-46.2 01-.01-.93c1.15-3.62.93-8.68 1.56-12.59q.2-1.31 1.8-6.88c3.14-10.9-3.12-25.22-7.22-35.3a.72.71-8.9 01.72-.98q12.85 1.04 22.16 9.92a.52.52 0 00.87-.5c-12.8-55.04-40.44-106.26-82.05-144.6q-29.6-27.28-69.52-36.6a1.24 1.24 0 00-1.52 1.21l.01 3.28q0 1.02-.62.21-15.48-20.16-41.38-20.09c-16.92.05-33.69.34-50.58-.4-12.01-.53-24.21-3.21-36.25-4.72-16.82-2.12-43.59-9.07-65.2-13.71q-12.03-2.57-19.75-3.03c-31.12-1.82-63.81 8.19-86.32 30.41-6.88 6.8-12.14 15.88-17.54 24.39q-2.18 3.43-4.21 8.36c-5.69 13.84-11.14 25.16-15.62 41.46"/><path stroke="#111110" vector-effect="non-scaling-stroke" d="M410.5 322.79q-.62-.44-1.12-.3a.68.68 0 00-.5.67c.12 6.62-1.09 15.79 1.4 21.92a.53.53 0 00.68.29q.33-.13.5-.37M96.81 387.2q-.15-8.29-5.07-15.3a1.11 1.1-55.9 01-.17-.9c.35-1.44 2.82-7.61 1.18-8.04M97.13 356.37q3.46-1.9 5.72-5.07c3.25-4.54 5.52-7.25 8.69-10.74 1.97-2.18 3.08-4.66 4.65-7.13a.7.69 42.5 00-.04-.8l-.9-1.17M115.84 301.7l.36-.06a.43.43 0 00.35-.54c-2.13-7.82-6.92-13.68-12.51-19.98-1.71-1.94-3.89-4.98-4.54-6.87-2.28-6.59-5.7-13.81-7.06-20.57q-.35-1.69-2.15-2.25M52.71 284.5c.85.54 1.62.41 2.24-.43 3.29-4.53 7.61-8.97 9.67-14.2 2.26-5.76 4.94-11 6.46-17.07q1.67-6.67 3.84-13.2a.68.67-65.9 00-.29-.78q-.35-.22-.84-.07"/><path stroke="#919090" vector-effect="non-scaling-stroke" d="M213.99 177.1c-9.14-11.15-21.15-23.65-31.52-31.17a.55.54-61.2 00-.82.24q-7.88 19.08-12.32 39.26a.97.96-60.6 00.24.87q14.88 15.63 27.56 33.07.3.42.47-.07c5.8-16.07 11.95-28.19 16.54-41.36a.88.87 35.1 00-.15-.84M242.38 152.19c-3.08-3.03-6.85-3.3-10.91-3.3a.88.86 9.9 00-.8.55q-4.88 12.35-10.67 24.31c-.94 1.95-1.16 3.19.35 5q13.03 15.69 22.93 33.55.24.44.47-.01 9.08-18.39 16.32-37.59a1.06 1.06 0 00-.1-.95q-7.63-11.75-17.59-21.56M132.22 157.53c2.84 3.31 4.04-.55 5-2.82q.32-.76-.39-.35l-4.51 2.6a.38.38 0 00-.1.57M269.68 156.95q-1.95 8.21-5.34 15.94a.96.93-50.5 00.07.87l6.64 10.32c4.54 7.05 7.91 14.63 11.65 22.12a.51.51 0 00.92-.01q7.99-17.75 14.98-35.91a2.61 2.6 38.8 00-.26-2.37l-5.08-7.66a1.06 1.05 77.3 00-.72-.46l-21.99-3.43a.78.77-78.7 00-.87.59M303.83 163.72l-1.26 4.3a1.1 1.09 37.6 00.12.89q12.48 20.48 19.85 43.31.19.59.45.02c6.41-13.84 13.22-29.58 16.78-44.86.3-1.28-.2-2.16-.76-3.25a.75.74 77.2 00-.62-.39l-32.6-1.42a1.97 1.95 9.3 00-1.96 1.4M366.57 196.82c2.98-8.82 4.85-18.42 7.82-27.67a.84.84 0 00-.23-.87l-5.04-4.63a1.29 1.25-23 00-.86-.33l-24 .22a.39.39 0 00-.36.53q.88 2.3 1.91 3.62 10.33 13.29 18.49 29.29 1.33 2.61 2.27-.16M403.76 195.78q1.85-9.12 1.66-18.44a1.03 1.01-75.2 00-.49-.86c-7.82-4.75-16.11-10.73-25.32-11.73a1.17 1.17 0 00-.86 2.08c9.85 7.79 17.36 18.82 24.02 29.14q.73 1.12.99-.19M160.83 183.79q-11.47-10.05-23.86-18.53a.48.48 0 00-.72.22q-6.38 16.12-9.97 33.04a.76.74 23.8 00.31.78c12.11 8.45 20.51 17.34 30.36 26.9q.36.35.45-.14c2.25-12.59 3.22-23.25 7.08-37.37a1.59 1.57 42.8 00-.04-.95c-.72-2-2.22-2.73-3.61-3.95M416.75 177.45a.31.31 0 00-.42.24l-.85 4.81a.31.31 0 00.08.27l7.33 7.63a.31.31 0 00.53-.2l.32-9.84a.31.31 0 00-.2-.3l-6.79-2.61M427.36 180.99a.44.44 0 00-.55.42l-.07 10.46a.44.44 0 00.87.06l1.34-10.12a.44.44 0 00-.32-.48l-1.27-.34M440.6 187.62l-.43 2.5q-.19 1.11.58.29l1.53-1.63a.75.75 0 00-.01-1.03l-.46-.49a.71.7 28.3 00-1.21.36M106.46 192.17l-4.73-1.97a.66.66 0 00-.85.32c-5.2 11.01-10.89 21.32-14.63 33.27a.75.75 0 00.41.92l1.6.7a.67.67 0 00.87-.32c5.32-11.21 10.61-21.92 17.58-32.08a.57.56 28.6 00-.25-.84M446.49 190.59c-2.2 2.19-4.32 6.07-5.37 9.04a.81.8 28.8 00.27.91l7.74 5.81a.57.57 0 00.81-.13l6.34-8.93a.64.63 34.3 00-.17-.89l-8.83-5.88a.63.62-49.7 00-.79.07"/><path stroke="#5b5c5c" vector-effect="non-scaling-stroke" d="M111.54 196.25l-.52.18a.89.84 5.6 00-.45.35q-9 14.18-13.19 30.47a1.36 1.36 0 00.74 1.57l8.88 4.14"/><path stroke="#919090" vector-effect="non-scaling-stroke" d="M107 232.96l10.74 6.05a.33.32-74.8 00.48-.28q.05-18.71 3.58-37.08a.73.72-68.9 00-.33-.76l-9.21-5.69a.51.5 21.9 00-.76.32q-.06.3.04.73"/><path stroke="#cacbcc" vector-effect="non-scaling-stroke" d="M107 232.96q.68-1.4.7-2.21c.23-10.67-.42-21.89 3.54-31.99q.27-.69.3-2.51"/><path stroke="#919090" vector-effect="non-scaling-stroke" d="M470.78 206.61c-1.58-.64-5.89 3.63-7 4.76a.12.11 60.7 00-.03.13l.08.25a.1.1 0 00.16.04q3.03-2.77 6.8-4.43a.41.41 0 00-.01-.75"/><path stroke="#111110" vector-effect="non-scaling-stroke" d="M386.76 301.87q4.02-2.08 6.36-5.79 2.72-4.33 3.15-4.89c.53-.69 8.04-9.52 4.48-9.23"/><path stroke="#919090" vector-effect="non-scaling-stroke" d="M400.75 281.96q5.64-8.7 10.88-17.7c2.12-3.64 4.85-5.96 4.89-11q.01-1.27-1.51-9.12c-2.13-10.94-5-24.73-10.3-34.23q-.25-.45-.43.02-8.52 21.64-16.58 36.01c-2.72 4.84-4.89 7.59-4.52 13.16q1.54 23.17.53 46.41-.03.5.27.1l2.78-3.74"/><path stroke="gray" vector-effect="non-scaling-stroke" d="M400.75 281.96l-13.99 19.91"/><path stroke="#5b5c5c" vector-effect="non-scaling-stroke" d="M335.46 276.5q.57 20.79-1.32 43.51a.58.58 0 001.07.37c3.58-5.39 11.02-13.12 10.44-20.1q-.92-10.98 1.07-21.79c.6-3.28 2.32-6.26 3.49-9.49"/><path stroke="#919090" vector-effect="non-scaling-stroke" d="M350.21 269c3.77-7.6 8.18-17.2 14.31-23.14a.44.43-8.4 01.69.51l-1.75 3.38"/><path stroke="#5b5c5c" vector-effect="non-scaling-stroke" d="M363.46 249.75q-2.75 3.17-4.09 7.17c-2.63 7.85-5.86 16.35-6.75 24.1q-.78 6.7-.39 13.54.03.57.4.13l3.33-3.94"/><path stroke="#111110" vector-effect="non-scaling-stroke" d="M355.96 290.75q1.18.06 2.26-1.5 9.06-13.13 16.04-25.02 1.12-1.91 2.27-3.18a.82.81-35.2 00.15-.85q-.24-.57-.93-.74"/><path stroke="#919090" vector-effect="non-scaling-stroke" d="M375.75 259.46q3.55-3.62 2.48-9.18c-2.66-13.75-6.93-26.43-11.71-39.56a.53.52 46 00-.98-.02q-6.66 16.43-14.93 32.28c-4.24 8.12-9.41 19.75-15.22 29.12a1.56 1.56 0 00-.22.93l.29 3.47"/><path stroke="gray" vector-effect="non-scaling-stroke" d="M375.75 259.46c-3.96 4.46-7.04 10.92-9.46 14.61q-4.65 7.1-9.23 14.45"/><path stroke="#cacbcc" vector-effect="non-scaling-stroke" d="M357.06 288.52q.43-5.02.76-9.96.88-12.82 5.38-24.83c.48-1.27.28-2.67.26-3.98M350.21 269l-2.02.14a1.36 1.31-69.5 00-.9.43q-4.74 5.08-11.12 7.87a.54.53-21.4 01-.72-.31q-.09-.24.01-.63"/><path stroke="#4a4b4c" vector-effect="non-scaling-stroke" d="M357.06 288.52q-.25 1.15-1.1 2.23"/><path stroke="#919090" vector-effect="non-scaling-stroke" d="M463.84 219.26a.57.56 41.5 00.05.76l6.51 6.48a.46.46 0 00.77-.21q1.72-6.36 7.31-9.89a.89.88 65.4 00.37-1.01q-.88-2.9-3.56-4.38a1.1 1.09-43 00-.98-.03q-6.2 2.93-10.47 8.28"/><path stroke="#5b5c5c" vector-effect="non-scaling-stroke" d="M265.29 284.25q1.64 13.32 1.02 26.55a.33.33 0 00.62.19q7.77-12.66 16.24-24.79.44-.63.58-1.41"/><path stroke="#919090" vector-effect="non-scaling-stroke" d="M283.75 284.79q1.61-1.87 2.76-4.06c2.22-4.21 4.82-7.93 7.09-12.04a1.95 1.9-32.5 00.22-.93c-.63-17.8-5.86-33.93-11.27-50.67a.36.36 0 00-.66-.07c-3.47 6.06-6.51 12.25-10.37 17.97q-5.97 8.85-11.77 17.87a1.13 1.12-36.3 00-.14.9q3.78 13.57 4.94 27.68.08.92.74 2.81"/><path stroke="#cacbcc" vector-effect="non-scaling-stroke" d="M283.75 284.79c-5.38-.9-11.95-.04-18.46-.54"/><path stroke="#5b5c5c" vector-effect="non-scaling-stroke" d="M417.94 300.78l-2.05 9.67q-.11.53.25.13 3.23-3.57 10.68-9.76 5.83-4.85 17.84-17.84c2.64-2.85 2.84-6.39 2.84-10.02"/><path stroke="#919090" vector-effect="non-scaling-stroke" d="M447.5 272.96q.92-14.09-.4-28.09c-.82-8.72-3.37-18.11-5.42-27.07a.21.21 0 00-.4-.03q-8.53 20.1-20.07 38.63a1.61 1.57-32.9 00-.23 1.01q2.66 21.97-3.04 43.37"/><path stroke="#cacbcc" vector-effect="non-scaling-stroke" d="M447.5 272.96q-5.89-3.45-13.21-5.35a.69.68 9 00-.86.62c-.65 11.08-5.07 20.23-11.96 28.76q-1.6 1.98-3.53 3.79"/><path stroke="#111110" vector-effect="non-scaling-stroke" d="M227.75 251.54q-.63-.46-1.28-.37a1.12 1.1-78.6 00-.78.53l-4.56 7.7a.87.87 0 01-.93.41l-1.59-.33a1.15 1.15 0 01-.8-.64q-5.28-11.11-12.08-21.31-.89-1.32-2.27-.78"/><path stroke="#919090" vector-effect="non-scaling-stroke" d="M203.46 236.75l-5.07-6.91q-.32-.44-.48.08-6.06 18.9-11.63 37.96-.49 1.68.84 3.74 2.17 3.36 6.52 15.5a.4.4 0 00.57.21l8.97-5.02q.43-.24.72-.64l3.56-4.92"/><path stroke="#111110" vector-effect="non-scaling-stroke" d="M207.46 276.75q-.09.67.15.9a1.12.98-45.5 001.44-.11q5.74-5.62 8.92-13.01a.94.94 0 01.74-.56l3.54-.51"/><path stroke="#919090" vector-effect="non-scaling-stroke" d="M222.25 263.46q5.21 10.16 9.18 21.08a.3.29-34.6 00.5.09c8.08-9.32 17.05-20.45 22.39-31.61a1.36 1.35 49.2 00.07-.99q-4.55-14.69-10.69-28.8-.18-.41-.37 0-6.99 14.59-15.58 28.31"/><path stroke="gray" vector-effect="non-scaling-stroke" d="M222.25 263.46l-.51-1.03a.96.93-43.2 01.04-.91l5.97-9.98M203.46 236.75q7.46 11.95 13.5 24.21a1.58 1.57 46.8 01-.04 1.49q-4.45 7.9-9.46 14.3"/><path stroke="#5b5c5c" vector-effect="non-scaling-stroke" d="M299.13 311.52l-1.23 13.72q-.05.54.21.07c2.27-4.04 3.78-7.29 7.02-11.1q2.78-3.26 4.58-7.21"/><path stroke="#111110" vector-effect="non-scaling-stroke" d="M309.71 307l.06.83a.45.45 0 00.46.42l.29-.01a.91.9 14.2 00.74-.44q9.22-15.21 13.76-24.03.55-1.07-.48-2.02"/><path stroke="#5b5c5c" vector-effect="non-scaling-stroke" d="M324.54 281.75l.17-.75"/><path stroke="#919090" vector-effect="non-scaling-stroke" d="M324.71 281q2.72-3.35 5.06-7c2.59-4.02 1.01-12 .24-15.5q-3.44-15.59-7.01-32.19-.67-3.09-2.13-.29c-6.16 11.83-11.49 24.15-19.65 36.21-1.39 2.05-2.76 4.75-2.67 7.57.24 7.59 1.31 15.3 1.1 22.62q-.27 9.54-.52 19.1"/><path stroke="#cacbcc" vector-effect="non-scaling-stroke" d="M324.71 281q-8.09.83-16.11 2.2c-2.41.41-4.97.2-7.5.42a.5.5 0 00-.46.53q.96 13.78-1.51 27.37"/><path stroke="#4a4b4c" vector-effect="non-scaling-stroke" d="M324.54 281.75L309.71 307"/><path stroke="#919090" vector-effect="non-scaling-stroke" d="M491.74 228.69c-1.85 1.44-5.88 4.8-6.4 7.61q-.18 1 .38.16 2.99-4.42 8.34-5.08.77-.09.27-.68l-1.63-1.91a.7.7 0 00-.96-.1M500.31 237.51l-3.03-3.58a.83.82 59.7 00-.9-.24q-6.58 2.32-11.46 7.34a.77.76-35.9 00-.14.85l1.99 4.28a.5.5 0 00.74.19q6.22-4.5 13.33-7.41a.51.51 0 00.25-.72q-.14-.24-.39-.39-.22-.12-.39-.32"/><path stroke="#5b5c5c" vector-effect="non-scaling-stroke" d="M171.75 313.79l4.96-23.79"/><path stroke="#919090" vector-effect="non-scaling-stroke" d="M176.71 290l4.5-19.52a1.49 1.46 37.2 00-.15-1.03q-9.28-16.48-20.76-31.51a.55.55 0 00-.99.31c-.64 15.18-1.5 30.09-1.58 45.26-.05 9.97 6 16.89 9.25 25.62q1.59 4.29 2.92 8.93a.46.45 43.5 00.88-.02l.97-4.25"/><path stroke="#cacbcc" vector-effect="non-scaling-stroke" d="M176.71 290l-12.9 9.76a.51.51 0 00-.1.72c3.31 4.33 3.98 9.23 8.04 13.31"/><path stroke="#5b5c5c" vector-effect="non-scaling-stroke" d="M168.65 237.76q-.75.47-.15 1.15a.41.41 0 00.72-.25l.04-.54a.4.4 0 00-.61-.36M132.04 298.75q1.77 8.17 6.17 15.25"/><path stroke="#919090" vector-effect="non-scaling-stroke" d="M138.21 314q4.51 9.05 11.79 16.04"/><path stroke="#5b5c5c" vector-effect="non-scaling-stroke" d="M150 330.04q3.23 4.01 7.74 6.42.46.24.38-.27L154.29 312"/><path stroke="#919090" vector-effect="non-scaling-stroke" d="M154.29 312q-.21-9.72-.71-19.44-.19-3.7-1.97-6.96c-7.03-12.93-17.06-28.28-28.78-37.39a.35.35 0 00-.56.3c1.19 16.13 3.21 31.74 8.18 47.18.35 1.08 1.04 2.05 1.59 3.06"/><path stroke="#cacbcc" vector-effect="non-scaling-stroke" d="M154.29 312q-2.25 5.66-5.08 11.1c-1.3 2.5-1.69 4.38 1 5.97a.49.48-59.1 01.17.68q-.14.22-.38.29M138.21 314l1.43-4.09a.48.48 0 01.69-.26q3.1 1.7 6.63 1.63a.38.38 0 00.17-.71q-8.6-4.65-15.09-11.82"/><path stroke="#5b5c5c" vector-effect="non-scaling-stroke" d="M455.01 278.19q-3.69 3.29-4.08 5.79-1.88 11.94-4.38 23.09a.7.7 0 001.04.76l23.47-13.69"/><path stroke="#919090" vector-effect="non-scaling-stroke" d="M471.06 294.14q3.96-16.6 4.48-33.64.14-4.49-.24-9.02-.04-.5-.34-.1l-19.95 26.81"/><path stroke="#cacbcc" vector-effect="non-scaling-stroke" d="M471.06 294.14q-7.65-8.88-16.05-15.95"/><path stroke="#919090" vector-effect="non-scaling-stroke" d="M497.94 259.9a.69.69 0 00.82 1.11q6.34-4.01 13.55-6.02a.65.65 0 00.44-.82l-.11-.34a.67.66-13.3 00-.75-.46q-7.89 1.33-13.95 6.53M516.59 260.19q-8.29-.1-15.62 3.69a.51.5-29.4 00-.2.71l6.41 10.67a.63.63 0 00.8.25l14.14-6.21a.54.53-27.6 00.25-.77l-4.76-7.76a1.22 1.22 0 00-1.02-.58M528.593 278.688a.87.87 0 00-1.034-.666l-15.365 3.322a.87.87 0 00-.666 1.034l.059.274a.87.87 0 001.034.666l15.365-3.322a.87.87 0 00.666-1.034l-.059-.274"/><path stroke="#5b5c5c" vector-effect="non-scaling-stroke" d="M474.79 298.5l-.43 3.18"/><path stroke="#919090" vector-effect="non-scaling-stroke" d="M474.36 301.68l-2.9 9.57"/><path stroke="#5b5c5c" vector-effect="non-scaling-stroke" d="M471.46 311.25l-5.72 14.83a.33.32 8.5 00.33.44q2.97-.22 5.41-1.81"/><path stroke="#919090" vector-effect="non-scaling-stroke" d="M471.48 324.71l12.02-4.5"/><path stroke="#5b5c5c" vector-effect="non-scaling-stroke" d="M483.5 320.21q3.41-.85 5.64-3.6"/><path stroke="#919090" vector-effect="non-scaling-stroke" d="M489.14 316.61q5.57-17.77 8.38-36.14a.31.31 0 00-.5-.29q-10.32 8.09-20.96 15.63-1.31.93-1.27 2.69"/><path stroke="#cacbcc" vector-effect="non-scaling-stroke" d="M489.14 316.61q-2.66-5.35-6.43-9.57-3.89-4.34-7.92-8.54M483.5 320.21q-3.92-4.15-7-9-.26-.41-.68-.66c-2.53-1.47-2.23-2.96-1.46-5.69q.44-1.57 0-3.18M471.48 324.71q1.75-2.34 4.55-2.77a.5.49 72.6 00.37-.71c-1.11-2.29-3.17-8.76-4.94-9.98"/><path stroke="#919090" vector-effect="non-scaling-stroke" d="M514.55 288.31a.61.6-25.4 00.7.24q6.32-2.21 13.03-2.55a.48.47 53.3 00.13-.92c-4.25-1.53-10.18.24-14.69.79a.44.44 0 00-.31.68l1.14 1.76M518.38 293.72l10.88-3.08q1.14-.32-.05-.38-5.91-.28-11.69.91a.69.69 0 00-.52.86l.31 1.09a.86.86 0 001.07.6"/><path stroke="#5b5c5c" vector-effect="non-scaling-stroke" d="M218.54 309.25q7.08 4.64 14.86 8.04 1.97.86 1.43-1.22l-5.48-21.22a.27.27 0 00-.48-.09q-4.79 6.51-10.17 12.42-.51.57-.61.9a1.07 1.06-66.1 00.45 1.17M192.25 298.47c-4.78 2.68-9.53 11.38-12.35 16.11q-1.17 1.96 1.02 1.35c3.46-.96 8.12-.54 9.74-4.51q1.09-2.67 4.89-8.85a1.27 1.26 53.7 00.14-.94q-.51-2.1-2.57-3.17a.92.91 44.1 00-.87.01"/><path stroke="#919090" vector-effect="non-scaling-stroke" d="M539.54 300.92a.33.33 0 00-.3-.21l-15.96-.49a.33.33 0 00-.29.5l7.16 11.68a.33.33 0 00.32.15l12.66-1.52a.33.33 0 00.27-.45l-3.86-9.66"/><path stroke="#5b5c5c" vector-effect="non-scaling-stroke" d="M506.5 331.54c.64 2.21 4.54 10.75 4 12.17"/><path stroke="#919090" vector-effect="non-scaling-stroke" d="M510.5 343.71q-10.96 12.83-19.27 27.64-.24.45.23.29 5.07-1.68 10.16-3.31c3.17-1.02 7.16-1.58 10.69-2.8 2.28-.8 4.58-.52 6.93-1.28a.64.64 0 00.44-.69l-.23-1.82q-.15-1.21.64-.29l1.67 1.95a.96.95 67.6 00.78.33l6.59-.43a1.46 1.45-70 00.95-.45q1.9-1.97 3.84-3.91c1.42-1.43 3.51-2.34 4.95-4.07a1.09 1.08-30.1 00.24-.89q-.83-4.85-2.45-9.46c-1.29-3.66-1.6-6.9-2.14-10.57a.47.46 86.4 01.47-.54c1.01.03 2.01 2.57 2.36 3.35a1 .98 83.3 00.7.56q1.33.28 2.7.19 6.19-.39 12.18 1.11.49.13.34-.36c-1.02-3.3-1.89-8.25-6.09-8.66q-6.88-.67-15.18-.56-.64.01-.31.55l1.82 2.9a.63.62-24.4 01-.35.92l-2.53.8a.75.75 0 00-.53.59c-.66 3.81-2.77 6.1-4.34 9.48q-.21.47-.35-.03-.3-1.08-.19-2.25 1.01-10.63-.02-21.21c-.78-7.91-5.66-13.95-12.24-18.05a.43.42 27.1 00-.62.2c-3.91 9.86-7.65 19.09-5.84 28.6"/><path stroke="#cacbcc" vector-effect="non-scaling-stroke" d="M510.5 343.71l.78 1.08a.73.72-25 00.78.28q5.29-1.34 5.4-6.33"/><path stroke="gray" vector-effect="non-scaling-stroke" d="M517.46 338.74q2.06-3.94 2.21-9.24c.26-8.63.68-15.03-5.73-21.16a.56.55 45.4 00-.76-.01c-.76.72-.78 1.46-.45 2.51q1.08 3.42-1.02 6.66"/><path stroke="#cacbcc" vector-effect="non-scaling-stroke" d="M511.71 317.5q-3.26 4.29-3.84 9.63-.06.5.13.97.95 2.34-1.5 3.44"/><path stroke="#4a4b4c" vector-effect="non-scaling-stroke" d="M517.46 338.74q-6.1-.27-6.66-6.06-.47-4.72.91-15.18"/><path stroke="#5b5c5c" vector-effect="non-scaling-stroke" d="M124.46 345.5q9.48 6.51 20.26 10.51a.33.32-81.4 00.44-.33q-.47-8.64-3.66-16.72"/><path stroke="#919090" vector-effect="non-scaling-stroke" d="M141.5 338.96q-1.42-6.03-4.59-11.5"/><path stroke="#5b5c5c" vector-effect="non-scaling-stroke" d="M136.91 327.46q-.52-3.23-2.37-5.96"/><path stroke="#919090" vector-effect="non-scaling-stroke" d="M134.54 321.5c-1.34-5.28-6.15-10.56-9.07-15.27a.42.42 0 00-.76.33c2.95 11.61-.28 24.35-6.25 34.47a.51.51 0 00.16.69l5.84 3.78"/><path stroke="#cacbcc" vector-effect="non-scaling-stroke" d="M134.54 321.5c-3.17 7.97-7.43 15.91-10.08 24M136.91 327.46q-1.31 9.67-5.06 19.03a.38.38 0 00.64.4c2.91-3.19 4.6-6.42 9.01-7.93"/><path stroke="#5b5c5c" vector-effect="non-scaling-stroke" d="M491.57 323.17q-.51 4.25-2.28 7.58"/><path stroke="#919090" vector-effect="non-scaling-stroke" d="M489.29 330.75q-1.38 3.88-2.58 7.82c-.79 2.61-.99 5.99-3 9a.25.25 0 00.33.35q4.21-2.53 8.87-4.21c3.88-1.39 7.28-3.25 11.09-4.68a.8.79 83 00.52-.67q.24-2.3-1.27-4.15"/><path stroke="#5b5c5c" vector-effect="non-scaling-stroke" d="M503.25 334.21q-.34-3.41-1.71-6.46"/><path stroke="#919090" vector-effect="non-scaling-stroke" d="M501.54 327.75q-.77-5.24-.26-10.57a.65.65 0 00-.91-.66q-5.16 2.3-8.8 6.65"/><path stroke="#cacbcc" vector-effect="non-scaling-stroke" d="M501.54 327.75l.59 4.21a.52.51 82.8 01-.44.58q-2.94.38-5.25 2.41-.67.59-.78-.29l-.25-1.97q-.06-.48-.31-.89c-1.8-2.96-.78-5.19-3.53-8.63"/><path stroke="#cacbcc" vector-effect="non-scaling-stroke" d="M503.25 334.21q-2.17-1.45-3.59.5c-2.78 3.82-4.18 6.93-8.41 8.67q-2.17.89-4.42 1.79a.4.4 0 01-.54-.43q.77-5.35 5.86-6.99a.8.79-21.6 00.48-1.1l-2.62-5.64a.47.47 0 00-.42-.26h-.3"/><path stroke="#5b5c5c" vector-effect="non-scaling-stroke" d="M372.22 325.36a.33.33 0 00-.04.43l2.76 3.7a.33.33 0 00.59-.13l1.77-8.08a.33.33 0 00-.55-.31l-4.53 4.39M549.496 324.096a.27.27 0 00-.267-.273l-17.799-.186a.27.27 0 00-.273.267l-.013 1.28a.27.27 0 00.267.273l17.799.186a.27.27 0 00.273-.267l.013-1.28M352.33 331.56c-.18 4.72-.66 9.54-.54 14.19a.4.4 0 00.6.33l16.85-10.06a.73.72-31.3 00.25-1l-4.58-7.47a.7.69 65 00-.81-.3l-11.27 3.64a.74.73 82 00-.5.67M391.21 337.25l-8.18 6.21a.7.7 0 00-.22.83l5.63 13.47a.43.43 0 00.7.14q1.38-1.37 1.19-3.17"/><path stroke="#919090" vector-effect="non-scaling-stroke" d="M390.33 354.73q1.25-2.81 3.01-5.06c4.68-6.01 7.78-13.97 10.88-20.99q.22-.5-.23-.19l-12.78 8.76"/><path stroke="#cacbcc" vector-effect="non-scaling-stroke" d="M390.33 354.73q.4-4.03 3.12-7.16a.94.93-31.9 00.2-.84c-.72-2.61-1.12-7.51-2.44-9.48"/><path stroke="#5b5c5c" vector-effect="non-scaling-stroke" d="M178.92 344.48l-8.71-3.24a.84.84 0 00-.89.2c-5.07 5.28-15.24 13.08-16.61 18.9q-.14.61.45.41 14.65-4.88 25.92-15.48a.48.47 33.7 00-.16-.79M107.25 371.29q8.96 5.78 18.59 10.47a.21.21 0 00.28-.27q-4.29-10.45-10.18-20.67"/><path stroke="#919090" vector-effect="non-scaling-stroke" d="M115.94 360.82l-6.59-9.78a.32.32 0 00-.53 0l-9.1 13.84a.52.51 35.2 00.12.69l7.41 5.72"/><path stroke="#cacbcc" vector-effect="non-scaling-stroke" d="M115.94 360.82q-5.49 4.27-8.69 10.47"/><path stroke="#5b5c5c" vector-effect="non-scaling-stroke" d="M343.89 370.38a.64.64 0 00.89.79l23.74-11.78a.64.64 0 00-.1-1.18l-17.54-5.55a.64.64 0 00-.8.39l-6.19 17.33M400.5 368.04l-7.14 1.38a1.26 1.25-17.4 00-.91 1.74q2.48 5.55 2.83 11.63a.36.36 0 00.63.21l6.74-7.93"/><path stroke="#919090" vector-effect="non-scaling-stroke" d="M402.65 375.07l6.1-8.37a.41.41 0 00-.43-.64l-7.82 1.98"/><path stroke="#cacbcc" vector-effect="non-scaling-stroke" d="M402.65 375.07l-2.14-5.41q-.18-.45-.11-.92l.1-.7"/><path stroke="#919090" vector-effect="non-scaling-stroke" d="M526.99 371.17c-2.9 4.37 1.89 6.72 5.24 7.95a1.68 1.63 81.1 01.77.58c1.41 1.94 2.82 3.16 3.35 5.6q1.48 6.92.64 14.01a.59.58 1.2 00.63.65l.77-.06a.68.68 0 00.61-.65q.45-13.2 1.54-16.99c1.25-4.31 3.91-12.13 1.66-14.73a1.04 1.02-21.8 00-.84-.35c-5.71.36-10.57-1.73-14.37 3.99"/><path stroke="#5b5c5c" vector-effect="non-scaling-stroke" d="M148.2 381.03c2.21.94 9.24 11.54 11.13 14.08a.45.45 0 00.67.06q8.75-8.04 16.03-17.45a.38.38 0 00-.23-.61q-13.12-2.42-25.33-7.83a.54.54 0 00-.74.35l-2.7 9.3a1.93 1.67 20.1 001.17 2.1M472.95 384.78l.3 13.62a.42.42 0 00.81.14q3.49-9.43 8.1-18.35.45-.85-.42-.43l-8.13 3.93a1.18 1.17 76.4 00-.66 1.09"/><path stroke="#919090" vector-effect="non-scaling-stroke" d="M514.75 383.96q-4.28 4.62-7.54 10.04"/><path stroke="#5b5c5c" vector-effect="non-scaling-stroke" d="M507.21 394l-1.21 1.71"/><path stroke="#919090" vector-effect="non-scaling-stroke" d="M506 395.71q-2.76 3.3-4.32 7.37-.18.47.32.38c13.22-2.28 21.2-2.94 32.02-3.72a.32.32 0 00.26-.47q-1-1.95-1.07-4.02"/><path stroke="#5b5c5c" vector-effect="non-scaling-stroke" d="M533.21 395.25l-.36-2.48a.39.39 0 00-.55-.3c-8.09 3.47-13.55-5.07-13.22-12.21a.24.24 0 00-.44-.14q-1.44 2.28-3.89 3.84"/><path stroke="#cacbcc" vector-effect="non-scaling-stroke" d="M533.21 395.25q-13.04 1.96-17.83-9.76c-.22-.53-.13-.59-.01-1.09a.32.32 0 00-.28-.4l-.34-.04M506 395.71q.2.07.33.22a.75.75 0 01.08.9q-1.25 2.05.03 4.16a1.09 1.06 73.6 00.91.51h2.54a.63.62-1.7 00.63-.66q-.22-4.18-3.31-6.84"/><path stroke="#5b5c5c" vector-effect="non-scaling-stroke" d="M358.99 393.37c-6.19-2.59-14.83-6.26-19.02-11.47q-.32-.39-.47.09-.42 1.32-.05 2 4.71 8.57 5.98 18.24a.3.3 0 00.48.19q6.21-4.74 13.11-8.4a.36.36 0 00-.03-.65M417.82 398.37q-5.66.06-11.05-1.53a.37.36-88.2 00-.45.43q.15.68.93 1.08a1.4 1.38-88.4 01.66.71l3.17 7.58q.67 1.61 1.71.21l5.54-7.49q.74-1-.51-.99M107 414.65c.26 1.67 7.09 7.2 8.67 8.54a.36.36 0 00.6-.3c-.38-6.79-6.4-17.45-9.88-23.38a.38.37 29.5 00-.7.19q.14 7.56 1.31 14.95M176.26 405.29c-4.1-.07-7.78-.05-11.5-1.84a.22.22 0 00-.28.32q3.94 6.24 6.46 13.21a.28.28 0 00.49.05c1.4-2.12 7.23-9.09 5.64-11.32a1.03 1.03 0 00-.81-.42"/><path stroke="#919090" vector-effect="non-scaling-stroke" d="M522.08 423.73c6.61-.02 12.65.41 19 1.07a.57.57 0 00.63-.55q.24-9.63-2.63-18.81a.41.41 0 00-.68-.17q-8.72 8.6-16.51 18.08-.31.38.19.38"/><path stroke="#5b5c5c" vector-effect="non-scaling-stroke" d="M482.04 411.93a.48.48 0 00-.24.8l6.23 6.73a.48.48 0 00.78-.11l4.84-9.47a.48.48 0 00-.54-.69l-11.07 2.74M352.43 414.91l-5.82-1.48a.35.34-79.2 00-.43.3q-1.1 9.55-3.92 18.76a.32.31 76.4 00.52.32q3.43-3.37 7.59-5.74a1.06 1.05 80 00.53-.76l1.89-10.84a.49.49 0 00-.36-.56M422.75 423.07q-3.9-.88-7.21-3.14-.69-.48-.58.36l1.78 13q.15 1.1.83.23l6.14-7.71a1.72 1.71-64.4 00-.96-2.74M184.05 427.66l-7.79-.83a.83.83 0 00-.88 1.07l4.07 13.36q.15.5.47.09 4.24-5.39 5.25-12.24a1.27 1.27 0 00-1.12-1.45M495.81 431.09q2.53 7.52 3.53 14.51a.24.24 0 00.44.11l5.41-7.63"/><path stroke="#919090" vector-effect="non-scaling-stroke" d="M505.19 438.08l6.21-8.82q.31-.44-.23-.46-7.85-.34-15.36 2.29"/><path stroke="#cacbcc" vector-effect="non-scaling-stroke" d="M505.19 438.08q-.02-4.1-2.19-7.39a.68.67 64.4 00-.75-.27q-2.99.88-6.44.67"/><path stroke="#5b5c5c" vector-effect="non-scaling-stroke" d="M106.79 435.22c-.68 3.58-.78 7.87-1.01 11.45a.33.33 0 00.59.22l9.61-12.63a.48.48 0 00-.45-.77l-8.11 1.13a.75.74-88.3 00-.63.6"/><path stroke="#cacbcc" vector-effect="non-scaling-stroke" d="M232.81 281.81q.64-.41 1.26-.89a.31.3-49.9 00-.04-.52l-2.15-1.09a.46.46 0 00-.66.32c-.34 1.68 1.57 3.55 1.59 2.18M202.75 280.9c1.57-2.65 4.89-7.44 7.55-8.99a.87.86 43.2 00-.05-1.52l-6.48-3.28a.49.49 0 01-.26-.55q2.39-9.64.26-19.32-.47-2.15-1.02-.02c-1.12 4.31-1.27 9.2-2.85 13.25q-3.38 8.66-9.05 16.07a1 .99-37.6 00-.13.97l3.12 7.61a1.01 1.01 0 001.45.49l6.76-4q.44-.27.7-.71"/><path stroke="#111110" vector-effect="non-scaling-stroke" d="M513.85 317.76c-.92 6.32-2.38 11.56.04 17.82a1.28 1.27-37.5 002.22.29c2.82-3.87 1.62-11.77 1.61-16.38-.01-2.39-.59-4.42-3.43-4a.66.65-2.7 00-.56.61q-.02.35.07.69.12.48.05.97"/><path stroke="#222120" vector-effect="non-scaling-stroke" d="M252.75 590.79l-.06.21"/></g><path d="M0 0h590.06l.23 4v1l-.03 584.57a.67.67 0 01-.67.67q-292.28.02-584.65.02-2.5 0-4.94-.32V0zm585.49 5.52a.27.27 0 00-.27-.27H5.52a.27.27 0 00-.27.27v579.7a.27.27 0 00.27.27h579.7a.27.27 0 00.27-.27V5.52z"/><path fill="#949698" d="M590.06 0h.75q.25 2.1-.52 4l-.23-4z"/><path fill="#222120" d="M590.81 0h.19v590.31c-.83-.45-.25-535.49-.25-585.1a.22.21 1.4 00-.21-.21h-.25V4q.77-1.9.52-4z"/><path fill="#949698" d="M590.29 5h.25a.22.21 1.4 01.21.21c0 49.61-.58 584.65.25 585.1v.69h-1.06q-4.88-.63-9.75 0h-30.25q-14.38-.63-28.75 0h-18.25q-6.88-.63-13.75 0h-65.25q-11.38-.63-22.75 0h-28.25q-17.13-.63-34.25 0h-4.25q-13.88-.63-27.75 0h-2.75q-3.38-.63-6.75 0h-4.75l-39.69-.21-18.56.21h-3.25q-2.88-.63-5.75 0h-1.25q-11.38-.63-22.75 0h-.25q-3.88-.63-7.75 0h-.25q-16.38-.63-32.75 0h-24.25q-6.63-.63-13.25 0h-.75q-7.88-.63-15.75 0H87.94q-2.88-.63-5.75 0h-4.25q-14.88-.63-29.75 0h-8.25q-2.88-.63-5.75 0H23.94q-3.38-.63-6.75 0h-3.25L0 590.44v-.5q2.44.32 4.94.32 292.37 0 584.65-.02a.67.67 0 00.67-.67L590.29 5z"/><path fill="#fafde2" d="M585.49 585.22a.27.27 0 01-.27.27H5.52a.27.27 0 01-.27-.27V5.52a.27.27 0 01.27-.27h579.7a.27.27 0 01.27.27v579.7zm-550-517.6Q58.38 44.57 81.04 21.3q1.2-1.23 1.79-2.42a1.05 1.05 0 00-.92-1.52q-19.76-.34-39.41-.06c-12.38.18-23.48 5.42-23.5 19.31-.01 14.27-1.14 29.98.62 44.06a1.05 1.04-22.1 001.67.7c5.36-4.07 10.41-9.94 14.2-13.75zm258.67 53.42l1.32-2.42a1.45 1.43 3.1 01.69-.61l1.5-.59q.75-.3-.03-.52l-6.51-1.84a.59.59 0 00-.66.89l3.25 5.1a.26.25 43.6 00.44-.01zM73.79 238.75q-1.97 6.65-3.75 13.35c-1.28 4.8-3.74 9.31-5.45 14.12-2.47 6.9-7.4 11.2-11.88 18.28-6.29 8.92-12.78 17.76-18.15 27.28-4.96 8.8-6.96 19.02-8.38 28.89a.28.28 0 00.28.32c.04 0 4.35-11.44 4.86-12.62.59-1.37 9.81-19.1 10.56-18.84a.13.12-70.9 01.07.16c-4.28 10.78-7.25 17.18-8.64 26.36-1.03 6.82-3.44 13.22-3.65 19.99q-.36 11.47 3.2 22.5.15.49.18-.02c.38-7.95-.37-16.72 1.12-23.89q1.66-7.95 5.08-15.42.3-.65.16.05-4.59 22.6.23 45.11a.29.29 0 00.58-.06c0-17.32.4-37.64 8.66-53.32q.24-.45.12.04-7.98 32.49-2.04 64.98.19 1.03 1.01 1.23a.4.4 0 00.49-.42q-2.87-42.71 10.85-83.18c.07-.18.2-.17.35-.11a.13.12 17.7 01.08.15q-3.57 14.13-4.3 18-3.71 19.84-.71 39.83c.08.48 1.86 9.75 4 8.34a.77.77 0 00.34-.78q-1.33-7.9-1.05-14.83.82-20.52 5.72-41.16c2.35-9.92 6.21-20.62 9.7-30.83 3.26-9.53 2.51-20.18 6.48-29.13q4.57-10.31 9.22-20.78a.28.28 0 01.54.15q-.61 4.58.62 8.94c-.37 6.29 7.64 23.7 11.7 28.71q8.13 10.04 13.85 21.56 5.33 15.17-.59 29.76-2.58 5.41-4.5 7.29-7.99 7.79-13.62 17.62-2.68 2.9-4.38 6.59l-3.24 7.29a1.14 1.12-45.7 000 .93l7.3 16.02q.89 7.99 1.63 16.06c1.42 15.61.69 30.56.1 46.15q-.29 7.37-2.22 14.5c-.97 3.6-1.63 8.79 1.89 11.36 2.24 1.63 5.3 1.05 8.01 3.46a1.24 1.24 0 01.41.85l.42 8.27a1.49 1.48-75.4 00.69 1.18c8.05 5.12 27.07 10.77 36.23 4.07a.77.76-25.1 00.29-.78c-2.04-8.89-5.27-20.88-14.89-23.84a1.13 1.13 0 01-.7-.59q-4.85-9.99-5.16-22.39c-.51-20.13-.77-39.03 7.63-56.56 3.22-6.72 4.91-12.53 10.64-17.73a.36.36 0 01.58.39c-1.37 3.58-3.94 10.55-.94 13.74 6.67 7.07 14.08 15.62 18.09 24.72 2.34 5.31 5.39 10.68 7.28 15.82q5.67 15.4 8.01 26.61c1.09 5.18-2.46 16.2 5.99 17.56q2.85.46 5.62 1.38a.82.82 0 01.54.64l1.59 9.48a1.24 1.21-78.4 00.52.81q6.96 4.78 14.99 7.06c8.33 2.37 14.26-.82 21.35-4.59a.77.76-16.9 00.4-.73c-.63-7.43-3.85-13.05-8.18-19.15-2.75-3.87-7.28-6.24-11.08-8.93a1.63 1.61 8.1 01-.57-.75c-2.47-6.72-6.51-12.52-8.75-19.16-3.68-10.89-9.83-21.31-13.16-32.57-3.9-13.22.89-28.03 4.68-42.16 1.83-6.85 1.06-15.82 1.48-21.15q1.46-18.59 11.57-34.31a.47.47 0 01.67-.13q12 8.71 20.1 13.42c23.62 13.73 50.64 18.69 77.95 19.49 14.54.42 29.38-2.32 43.68-5.67a.63.63 0 01.77.62c-.07 17.77-6.87 32.81-13.18 49.13a1.35 1.34-44.7 00-.01.94c3.13 8.71 7.22 17.27 7.19 26.95-.02 10.94-5.65 24.59-9.8 34.91q-2.19 5.46-1.97 8.15c.53 6.64 5.69 7.77 11.12 9.59a1.08 1.08 0 01.74 1.1c-.22 3.43-.54 11.43 3.04 13.35 3.33 1.79 5.26 4.11 9.48 5.17 7.33 1.86 18.1.59 25.04-1.88a.59.59 0 00.34-.81q-3.69-7.65-6.57-15.67c-1.53-4.25-3.9-5.83-6.98-8.32-4.16-3.36-6.22-12.92-6.03-18.03q.56-14.53 4.24-28.58c1.82-6.95 6.24-12.62 7.23-19.77q.79-5.76 1.4-11.55c1.05-9.96 4.22-15.37 8.35-22.93q.6-1.09 1.07.06c1.83 4.47 3.87 8.68 5.03 13.2q2.69 10.51 4.08 21.28a1.42 1.42 0 00.42.85c1.68 1.65 4.47 5.08 6.64 5.85q.46.16.82.51c4.7 4.65 7.11 9.01 8.58 15.87q3.3 15.54 6.04 31.19c.96 5.47.74 11.46 1.42 17.28a1.57 1.56 87.4 001.5 1.38l8.61.26a.65.64 1.4 01.63.65q-.08 8.26 2.42 16.12a1.2 1.17 6.4 00.55.67c10.04 5.43 20.53 4.34 31.08.72a.76.76 0 00.48-.9q-2.42-9.81-7.78-18.66c-3.08-5.08-8.42-6.41-10.66-12.53q-7.11-19.41-9.24-26.46-5.62-18.59-4.68-40.27a1.7 1.63-60.3 00-.23-.92q-5.85-10-7.52-14.37-2.36-6.17-6.39-22.18-1.32-11.06-.96-22.21 11-6.72 19.4-16.41a.76.75 29.6 01.81-.22q11.9 3.83 20.25 13.12c5.44 6.07 25.81 31.79 22.57 39.57q-7.94 19-6.6 39.5c.3 4.69 1.65 9.61 2.76 14.35a1.41 1.39 11.8 00.52.78c5.66 4.08 11.95 9.02 15.46 15.07 6.12 10.56 8.82 25.23 9.81 37.66a1.43 1.4-69.4 00.38.86q2.97 3.1 4.08 7.18c1.86 6.78 13.5 6.47 19.62 6.09q8.45-.52 12.76-6.07c4.99-6.42 12.59-4.87 13.71-15.08 2.02-18.48 5.1-40.06-1.57-59.35a1.49 1.45-46.2 01-.01-.93c1.15-3.62.93-8.68 1.56-12.59q.2-1.31 1.8-6.88c3.14-10.9-3.12-25.22-7.22-35.3a.72.71-8.9 01.72-.98q12.85 1.04 22.16 9.92a.52.52 0 00.87-.5c-12.8-55.04-40.44-106.26-82.05-144.6q-29.6-27.28-69.52-36.6a1.24 1.24 0 00-1.52 1.21l.01 3.28q0 1.02-.62.21-15.48-20.16-41.38-20.09c-16.92.05-33.69.34-50.58-.4-12.01-.53-24.21-3.21-36.25-4.72-16.82-2.12-43.59-9.07-65.2-13.71q-12.03-2.57-19.75-3.03c-31.12-1.82-63.81 8.19-86.32 30.41-6.88 6.8-12.14 15.88-17.54 24.39q-2.18 3.43-4.21 8.36c-5.69 13.84-11.14 25.16-15.62 41.46z"/><path fill="#fae6b0" d="M35.49 67.62c-3.79 3.81-8.84 9.68-14.2 13.75a1.05 1.04-22.1 01-1.67-.7c-1.76-14.08-.63-29.79-.62-44.06.02-13.89 11.12-19.13 23.5-19.31q19.65-.28 39.41.06a1.05 1.05 0 01.92 1.52q-.59 1.19-1.79 2.42-22.66 23.27-45.55 46.32z"/><path fill="#949698" d="M294.16 121.04a.26.25 43.6 01-.44.01l-3.25-5.1a.59.59 0 01.66-.89l6.51 1.84q.78.22.03.52l-1.5.59a1.45 1.43 3.1 00-.69.61l-1.32 2.42z"/><path fill="#222120" d="M410.5 322.79q-.62-.44-1.12-.3a.68.68 0 00-.5.67c.12 6.62-1.09 15.79 1.4 21.92a.53.53 0 00.68.29q.33-.13.5-.37 4.03 16.01 6.39 22.18 1.67 4.37 7.52 14.37a1.7 1.63-60.3 01.23.92q-.94 21.68 4.68 40.27 2.13 7.05 9.24 26.46c2.24 6.12 7.58 7.45 10.66 12.53q5.36 8.85 7.78 18.66a.76.76 0 01-.48.9c-10.55 3.62-21.04 4.71-31.08-.72a1.2 1.17 6.4 01-.55-.67q-2.5-7.86-2.42-16.12a.65.64 1.4 00-.63-.65l-8.61-.26a1.57 1.56 87.4 01-1.5-1.38c-.68-5.82-.46-11.81-1.42-17.28q-2.74-15.65-6.04-31.19c-1.47-6.86-3.88-11.22-8.58-15.87q-.36-.35-.82-.51c-2.17-.77-4.96-4.2-6.64-5.85a1.42 1.42 0 01-.42-.85q-1.39-10.77-4.08-21.28c-1.16-4.52-3.2-8.73-5.03-13.2q-.47-1.15-1.07-.06c-4.13 7.56-7.3 12.97-8.35 22.93q-.61 5.79-1.4 11.55c-.99 7.15-5.41 12.82-7.23 19.77q-3.68 14.05-4.24 28.58c-.19 5.11 1.87 14.67 6.03 18.03 3.08 2.49 5.45 4.07 6.98 8.32q2.88 8.02 6.57 15.67a.59.59 0 01-.34.81c-6.94 2.47-17.71 3.74-25.04 1.88-4.22-1.06-6.15-3.38-9.48-5.17-3.58-1.92-3.26-9.92-3.04-13.35a1.08 1.08 0 00-.74-1.1c-5.43-1.82-10.59-2.95-11.12-9.59q-.22-2.69 1.97-8.15c4.15-10.32 9.78-23.97 9.8-34.91.03-9.68-4.06-18.24-7.19-26.95a1.35 1.34-44.7 01.01-.94c6.31-16.32 13.11-31.36 13.18-49.13a.63.63 0 00-.77-.62c-14.3 3.35-29.14 6.09-43.68 5.67-27.31-.8-54.33-5.76-77.95-19.49q-8.1-4.71-20.1-13.42a.47.47 0 00-.67.13q-10.11 15.72-11.57 34.31c-.42 5.33.35 14.3-1.48 21.15-3.79 14.13-8.58 28.94-4.68 42.16 3.33 11.26 9.48 21.68 13.16 32.57 2.24 6.64 6.28 12.44 8.75 19.16a1.63 1.61 8.1 00.57.75c3.8 2.69 8.33 5.06 11.08 8.93 4.33 6.1 7.55 11.72 8.18 19.15a.77.76-16.9 01-.4.73c-7.09 3.77-13.02 6.96-21.35 4.59q-8.03-2.28-14.99-7.06a1.24 1.21-78.4 01-.52-.81l-1.59-9.48a.82.82 0 00-.54-.64q-2.77-.92-5.62-1.38c-8.45-1.36-4.9-12.38-5.99-17.56q-2.34-11.21-8.01-26.61c-1.89-5.14-4.94-10.51-7.28-15.82-4.01-9.1-11.42-17.65-18.09-24.72-3-3.19-.43-10.16.94-13.74a.36.36 0 00-.58-.39c-5.73 5.2-7.42 11.01-10.64 17.73-8.4 17.53-8.14 36.43-7.63 56.56q.31 12.4 5.16 22.39a1.13 1.13 0 00.7.59c9.62 2.96 12.85 14.95 14.89 23.84a.77.76-25.1 01-.29.78c-9.16 6.7-28.18 1.05-36.23-4.07a1.49 1.48-75.4 01-.69-1.18l-.42-8.27a1.24 1.24 0 00-.41-.85c-2.71-2.41-5.77-1.83-8.01-3.46-3.52-2.57-2.86-7.76-1.89-11.36q1.93-7.13 2.22-14.5c.59-15.59 1.32-30.54-.1-46.15q-.74-8.07-1.63-16.06-.15-8.29-5.07-15.3a1.11 1.1-55.9 01-.17-.9c.35-1.44 2.82-7.61 1.18-8.04q1.7-3.69 4.38-6.59 3.46-1.9 5.72-5.07c3.25-4.54 5.52-7.25 8.69-10.74 1.97-2.18 3.08-4.66 4.65-7.13a.7.69 42.5 00-.04-.8l-.9-1.17q5.92-14.59.59-29.76l.36-.06a.43.43 0 00.35-.54c-2.13-7.82-6.92-13.68-12.51-19.98-1.71-1.94-3.89-4.98-4.54-6.87-2.28-6.59-5.7-13.81-7.06-20.57q-.35-1.69-2.15-2.25-1.23-4.36-.62-8.94a.28.28 0 00-.54-.15q-4.65 10.47-9.22 20.78c-3.97 8.95-3.22 19.6-6.48 29.13-3.49 10.21-7.35 20.91-9.7 30.83q-4.9 20.64-5.72 41.16-.28 6.93 1.05 14.83a.77.77 0 01-.34.78c-2.14 1.41-3.92-7.86-4-8.34q-3-19.99.71-39.83.73-3.87 4.3-18a.13.12 17.7 00-.08-.15c-.15-.06-.28-.07-.35.11q-13.72 40.47-10.85 83.18a.4.4 0 01-.49.42q-.82-.2-1.01-1.23-5.94-32.49 2.04-64.98.12-.49-.12-.04c-8.26 15.68-8.66 36-8.66 53.32a.29.29 0 01-.58.06q-4.82-22.51-.23-45.11.14-.7-.16-.05-3.42 7.47-5.08 15.42c-1.49 7.17-.74 15.94-1.12 23.89q-.03.51-.18.02-3.56-11.03-3.2-22.5c.21-6.77 2.62-13.17 3.65-19.99 1.39-9.18 4.36-15.58 8.64-26.36a.13.12-70.9 00-.07-.16c-.75-.26-9.97 17.47-10.56 18.84-.51 1.18-4.82 12.62-4.86 12.62a.28.28 0 01-.28-.32c1.42-9.87 3.42-20.09 8.38-28.89 5.37-9.52 11.86-18.36 18.15-27.28.85.54 1.62.41 2.24-.43 3.29-4.53 7.61-8.97 9.67-14.2 2.26-5.76 4.94-11 6.46-17.07q1.67-6.67 3.84-13.2a.68.67-65.9 00-.29-.78q-.35-.22-.84-.07c4.48-16.3 9.93-27.62 15.62-41.46q2.03-4.93 4.21-8.36c5.4-8.51 10.66-17.59 17.54-24.39 22.51-22.22 55.2-32.23 86.32-30.41q7.72.46 19.75 3.03c21.61 4.64 48.38 11.59 65.2 13.71 12.04 1.51 24.24 4.19 36.25 4.72 16.89.74 33.66.45 50.58.4q25.9-.07 41.38 20.09.62.81.62-.21l-.01-3.28a1.24 1.24 0 011.52-1.21q39.92 9.32 69.52 36.6c41.61 38.34 69.25 89.56 82.05 144.6a.52.52 0 01-.87.5q-9.31-8.88-22.16-9.92a.72.71-8.9 00-.72.98c4.1 10.08 10.36 24.4 7.22 35.3q-1.6 5.57-1.8 6.88c-.63 3.91-.41 8.97-1.56 12.59a1.49 1.45-46.2 00.01.93c6.67 19.29 3.59 40.87 1.57 59.35-1.12 10.21-8.72 8.66-13.71 15.08q-4.31 5.55-12.76 6.07c-6.12.38-17.76.69-19.62-6.09q-1.11-4.08-4.08-7.18a1.43 1.4-69.4 01-.38-.86c-.99-12.43-3.69-27.1-9.81-37.66-3.51-6.05-9.8-10.99-15.46-15.07a1.41 1.39 11.8 01-.52-.78c-1.11-4.74-2.46-9.66-2.76-14.35q-1.34-20.5 6.6-39.5c3.24-7.78-17.13-33.5-22.57-39.57q-8.35-9.29-20.25-13.12a.76.75 29.6 00-.81.22q-8.4 9.69-19.4 16.41zM213.99 177.1c-9.14-11.15-21.15-23.65-31.52-31.17a.55.54-61.2 00-.82.24q-7.88 19.08-12.32 39.26a.97.96-60.6 00.24.87q14.88 15.63 27.56 33.07.3.42.47-.07c5.8-16.07 11.95-28.19 16.54-41.36a.88.87 35.1 00-.15-.84zm28.39-24.91c-3.08-3.03-6.85-3.3-10.91-3.3a.88.86 9.9 00-.8.55q-4.88 12.35-10.67 24.31c-.94 1.95-1.16 3.19.35 5q13.03 15.69 22.93 33.55.24.44.47-.01 9.08-18.39 16.32-37.59a1.06 1.06 0 00-.1-.95q-7.63-11.75-17.59-21.56zm-110.16 5.34c2.84 3.31 4.04-.55 5-2.82q.32-.76-.39-.35l-4.51 2.6a.38.38 0 00-.1.57zm137.46-.58q-1.95 8.21-5.34 15.94a.96.93-50.5 00.07.87l6.64 10.32c4.54 7.05 7.91 14.63 11.65 22.12a.51.51 0 00.92-.01q7.99-17.75 14.98-35.91a2.61 2.6 38.8 00-.26-2.37l-5.08-7.66a1.06 1.05 77.3 00-.72-.46l-21.99-3.43a.78.77-78.7 00-.87.59zm34.15 6.77l-1.26 4.3a1.1 1.09 37.6 00.12.89q12.48 20.48 19.85 43.31.19.59.45.02c6.41-13.84 13.22-29.58 16.78-44.86.3-1.28-.2-2.16-.76-3.25a.75.74 77.2 00-.62-.39l-32.6-1.42a1.97 1.95 9.3 00-1.96 1.4zm62.74 33.1c2.98-8.82 4.85-18.42 7.82-27.67a.84.84 0 00-.23-.87l-5.04-4.63a1.29 1.25-23 00-.86-.33l-24 .22a.39.39 0 00-.36.53q.88 2.3 1.91 3.62 10.33 13.29 18.49 29.29 1.33 2.61 2.27-.16zm37.19-1.04q1.85-9.12 1.66-18.44a1.03 1.01-75.2 00-.49-.86c-7.82-4.75-16.11-10.73-25.32-11.73a1.17 1.17 0 00-.86 2.08c9.85 7.79 17.36 18.82 24.02 29.14q.73 1.12.99-.19zm-242.93-11.99q-11.47-10.05-23.86-18.53a.48.48 0 00-.72.22q-6.38 16.12-9.97 33.04a.76.74 23.8 00.31.78c12.11 8.45 20.51 17.34 30.36 26.9q.36.35.45-.14c2.25-12.59 3.22-23.25 7.08-37.37a1.59 1.57 42.8 00-.04-.95c-.72-2-2.22-2.73-3.61-3.95zm255.92-6.34a.31.31 0 00-.42.24l-.85 4.81a.31.31 0 00.08.27l7.33 7.63a.31.31 0 00.53-.2l.32-9.84a.31.31 0 00-.2-.3l-6.79-2.61zm10.61 3.54a.44.44 0 00-.55.42l-.07 10.46a.44.44 0 00.87.06l1.34-10.12a.44.44 0 00-.32-.48l-1.27-.34zm13.24 6.63l-.43 2.5q-.19 1.11.58.29l1.53-1.63a.75.75 0 00-.01-1.03l-.46-.49a.71.7 28.3 00-1.21.36zm-334.14 4.55l-4.73-1.97a.66.66 0 00-.85.32c-5.2 11.01-10.89 21.32-14.63 33.27a.75.75 0 00.41.92l1.6.7a.67.67 0 00.87-.32c5.32-11.21 10.61-21.92 17.58-32.08a.57.56 28.6 00-.25-.84zm340.03-1.58c-2.2 2.19-4.32 6.07-5.37 9.04a.81.8 28.8 00.27.91l7.74 5.81a.57.57 0 00.81-.13l6.34-8.93a.64.63 34.3 00-.17-.89l-8.83-5.88a.63.62-49.7 00-.79.07zm-334.95 5.66l-.52.18a.89.84 5.6 00-.45.35q-9 14.18-13.19 30.47a1.36 1.36 0 00.74 1.57l8.88 4.14 10.74 6.05a.33.32-74.8 00.48-.28q.05-18.71 3.58-37.08a.73.72-68.9 00-.33-.76l-9.21-5.69a.51.5 21.9 00-.76.32q-.06.3.04.73zm359.24 10.36c-1.58-.64-5.89 3.63-7 4.76a.12.11 60.7 00-.03.13l.08.25a.1.1 0 00.16.04q3.03-2.77 6.8-4.43a.41.41 0 00-.01-.75zm-84.02 95.26q4.02-2.08 6.36-5.79 2.72-4.33 3.15-4.89c.53-.69 8.04-9.52 4.48-9.23q5.64-8.7 10.88-17.7c2.12-3.64 4.85-5.96 4.89-11q.01-1.27-1.51-9.12c-2.13-10.94-5-24.73-10.3-34.23q-.25-.45-.43.02-8.52 21.64-16.58 36.01c-2.72 4.84-4.89 7.59-4.52 13.16q1.54 23.17.53 46.41-.03.5.27.1l2.78-3.74zm-51.3-25.37q.57 20.79-1.32 43.51a.58.58 0 001.07.37c3.58-5.39 11.02-13.12 10.44-20.1q-.92-10.98 1.07-21.79c.6-3.28 2.32-6.26 3.49-9.49 3.77-7.6 8.18-17.2 14.31-23.14a.44.43-8.4 01.69.51l-1.75 3.38q-2.75 3.17-4.09 7.17c-2.63 7.85-5.86 16.35-6.75 24.1q-.78 6.7-.39 13.54.03.57.4.13l3.33-3.94q1.18.06 2.26-1.5 9.06-13.13 16.04-25.02 1.12-1.91 2.27-3.18a.82.81-35.2 00.15-.85q-.24-.57-.93-.74 3.55-3.62 2.48-9.18c-2.66-13.75-6.93-26.43-11.71-39.56a.53.52 46 00-.98-.02q-6.66 16.43-14.93 32.28c-4.24 8.12-9.41 19.75-15.22 29.12a1.56 1.56 0 00-.22.93l.29 3.47zm128.38-57.24a.57.56 41.5 00.05.76l6.51 6.48a.46.46 0 00.77-.21q1.72-6.36 7.31-9.89a.89.88 65.4 00.37-1.01q-.88-2.9-3.56-4.38a1.1 1.09-43 00-.98-.03q-6.2 2.93-10.47 8.28zm-198.55 64.99q1.64 13.32 1.02 26.55a.33.33 0 00.62.19q7.77-12.66 16.24-24.79.44-.63.58-1.41 1.61-1.87 2.76-4.06c2.22-4.21 4.82-7.93 7.09-12.04a1.95 1.9-32.5 00.22-.93c-.63-17.8-5.86-33.93-11.27-50.67a.36.36 0 00-.66-.07c-3.47 6.06-6.51 12.25-10.37 17.97q-5.97 8.85-11.77 17.87a1.13 1.12-36.3 00-.14.9q3.78 13.57 4.94 27.68.08.92.74 2.81zm152.65 16.53l-2.05 9.67q-.11.53.25.13 3.23-3.57 10.68-9.76 5.83-4.85 17.84-17.84c2.64-2.85 2.84-6.39 2.84-10.02q.92-14.09-.4-28.09c-.82-8.72-3.37-18.11-5.42-27.07a.21.21 0 00-.4-.03q-8.53 20.1-20.07 38.63a1.61 1.57-32.9 00-.23 1.01q2.66 21.97-3.04 43.37zm-190.19-49.24q-.63-.46-1.28-.37a1.12 1.1-78.6 00-.78.53l-4.56 7.7a.87.87 0 01-.93.41l-1.59-.33a1.15 1.15 0 01-.8-.64q-5.28-11.11-12.08-21.31-.89-1.32-2.27-.78l-5.07-6.91q-.32-.44-.48.08-6.06 18.9-11.63 37.96-.49 1.68.84 3.74 2.17 3.36 6.52 15.5a.4.4 0 00.57.21l8.97-5.02q.43-.24.72-.64l3.56-4.92q-.09.67.15.9a1.12.98-45.5 001.44-.11q5.74-5.62 8.92-13.01a.94.94 0 01.74-.56l3.54-.51q5.21 10.16 9.18 21.08a.3.29-34.6 00.5.09c8.08-9.32 17.05-20.45 22.39-31.61a1.36 1.35 49.2 00.07-.99q-4.55-14.69-10.69-28.8-.18-.41-.37 0-6.99 14.59-15.58 28.31zm71.38 59.98l-1.23 13.72q-.05.54.21.07c2.27-4.04 3.78-7.29 7.02-11.1q2.78-3.26 4.58-7.21l.06.83a.45.45 0 00.46.42l.29-.01a.91.9 14.2 00.74-.44q9.22-15.21 13.76-24.03.55-1.07-.48-2.02l.17-.75q2.72-3.35 5.06-7c2.59-4.02 1.01-12 .24-15.5q-3.44-15.59-7.01-32.19-.67-3.09-2.13-.29c-6.16 11.83-11.49 24.15-19.65 36.21-1.39 2.05-2.76 4.75-2.67 7.57.24 7.59 1.31 15.3 1.1 22.62q-.27 9.54-.52 19.1zm192.61-82.83c-1.85 1.44-5.88 4.8-6.4 7.61q-.18 1 .38.16 2.99-4.42 8.34-5.08.77-.09.27-.68l-1.63-1.91a.7.7 0 00-.96-.1zm8.57 8.82l-3.03-3.58a.83.82 59.7 00-.9-.24q-6.58 2.32-11.46 7.34a.77.76-35.9 00-.14.85l1.99 4.28a.5.5 0 00.74.19q6.22-4.5 13.33-7.41a.51.51 0 00.25-.72q-.14-.24-.39-.39-.22-.12-.39-.32zm-328.56 76.28l4.96-23.79 4.5-19.52a1.49 1.46 37.2 00-.15-1.03q-9.28-16.48-20.76-31.51a.55.55 0 00-.99.31c-.64 15.18-1.5 30.09-1.58 45.26-.05 9.97 6 16.89 9.25 25.62q1.59 4.29 2.92 8.93a.46.45 43.5 00.88-.02l.97-4.25zm-3.1-76.03q-.75.47-.15 1.15a.41.41 0 00.72-.25l.04-.54a.4.4 0 00-.61-.36zm-36.61 60.99q1.77 8.17 6.17 15.25 4.51 9.05 11.79 16.04 3.23 4.01 7.74 6.42.46.24.38-.27L154.29 312q-.21-9.72-.71-19.44-.19-3.7-1.97-6.96c-7.03-12.93-17.06-28.28-28.78-37.39a.35.35 0 00-.56.3c1.19 16.13 3.21 31.74 8.18 47.18.35 1.08 1.04 2.05 1.59 3.06zm322.97-20.56q-3.69 3.29-4.08 5.79-1.88 11.94-4.38 23.09a.7.7 0 001.04.76l23.47-13.69q3.96-16.6 4.48-33.64.14-4.49-.24-9.02-.04-.5-.34-.1l-19.95 26.81zm42.93-18.29a.69.69 0 00.82 1.11q6.34-4.01 13.55-6.02a.65.65 0 00.44-.82l-.11-.34a.67.66-13.3 00-.75-.46q-7.89 1.33-13.95 6.53zm18.65.29q-8.29-.1-15.62 3.69a.51.5-29.4 00-.2.71l6.41 10.67a.63.63 0 00.8.25l14.14-6.21a.54.53-27.6 00.25-.77l-4.76-7.76a1.22 1.22 0 00-1.02-.58zm12.003 18.498a.87.87 0 00-1.034-.666l-15.365 3.322a.87.87 0 00-.666 1.034l.059.274a.87.87 0 001.034.666l15.365-3.322a.87.87 0 00.666-1.034l-.059-.274zM474.79 298.5l-.43 3.18-2.9 9.57-5.72 14.83a.33.32 8.5 00.33.44q2.97-.22 5.41-1.81l12.02-4.5q3.41-.85 5.64-3.6 5.57-17.77 8.38-36.14a.31.31 0 00-.5-.29q-10.32 8.09-20.96 15.63-1.31.93-1.27 2.69zm39.76-10.19a.61.6-25.4 00.7.24q6.32-2.21 13.03-2.55a.48.47 53.3 00.13-.92c-4.25-1.53-10.18.24-14.69.79a.44.44 0 00-.31.68l1.14 1.76zm3.83 5.41l10.88-3.08q1.14-.32-.05-.38-5.91-.28-11.69.91a.69.69 0 00-.52.86l.31 1.09a.86.86 0 001.07.6zm-299.84 15.53q7.08 4.64 14.86 8.04 1.97.86 1.43-1.22l-5.48-21.22a.27.27 0 00-.48-.09q-4.79 6.51-10.17 12.42-.51.57-.61.9a1.07 1.06-66.1 00.45 1.17zm-26.29-10.78c-4.78 2.68-9.53 11.38-12.35 16.11q-1.17 1.96 1.02 1.35c3.46-.96 8.12-.54 9.74-4.51q1.09-2.67 4.89-8.85a1.27 1.26 53.7 00.14-.94q-.51-2.1-2.57-3.17a.92.91 44.1 00-.87.01zm347.29 2.45a.33.33 0 00-.3-.21l-15.96-.49a.33.33 0 00-.29.5l7.16 11.68a.33.33 0 00.32.15l12.66-1.52a.33.33 0 00.27-.45l-3.86-9.66zm-33.04 30.62c.64 2.21 4.54 10.75 4 12.17q-10.96 12.83-19.27 27.64-.24.45.23.29 5.07-1.68 10.16-3.31c3.17-1.02 7.16-1.58 10.69-2.8 2.28-.8 4.58-.52 6.93-1.28a.64.64 0 00.44-.69l-.23-1.82q-.15-1.21.64-.29l1.67 1.95a.96.95 67.6 00.78.33l6.59-.43a1.46 1.45-70 00.95-.45q1.9-1.97 3.84-3.91c1.42-1.43 3.51-2.34 4.95-4.07a1.09 1.08-30.1 00.24-.89q-.83-4.85-2.45-9.46c-1.29-3.66-1.6-6.9-2.14-10.57a.47.46 86.4 01.47-.54c1.01.03 2.01 2.57 2.36 3.35a1 .98 83.3 00.7.56q1.33.28 2.7.19 6.19-.39 12.18 1.11.49.13.34-.36c-1.02-3.3-1.89-8.25-6.09-8.66q-6.88-.67-15.18-.56-.64.01-.31.55l1.82 2.9a.63.62-24.4 01-.35.92l-2.53.8a.75.75 0 00-.53.59c-.66 3.81-2.77 6.1-4.34 9.48q-.21.47-.35-.03-.3-1.08-.19-2.25 1.01-10.63-.02-21.21c-.78-7.91-5.66-13.95-12.24-18.05a.43.42 27.1 00-.62.2c-3.91 9.86-7.65 19.09-5.84 28.6zM124.46 345.5q9.48 6.51 20.26 10.51a.33.32-81.4 00.44-.33q-.47-8.64-3.66-16.72-1.42-6.03-4.59-11.5-.52-3.23-2.37-5.96c-1.34-5.28-6.15-10.56-9.07-15.27a.42.42 0 00-.76.33c2.95 11.61-.28 24.35-6.25 34.47a.51.51 0 00.16.69l5.84 3.78zm367.11-22.33q-.51 4.25-2.28 7.58-1.38 3.88-2.58 7.82c-.79 2.61-.99 5.99-3 9a.25.25 0 00.33.35q4.21-2.53 8.87-4.21c3.88-1.39 7.28-3.25 11.09-4.68a.8.79 83 00.52-.67q.24-2.3-1.27-4.15-.34-3.41-1.71-6.46-.77-5.24-.26-10.57a.65.65 0 00-.91-.66q-5.16 2.3-8.8 6.65zm-119.35 2.19a.33.33 0 00-.04.43l2.76 3.7a.33.33 0 00.59-.13l1.77-8.08a.33.33 0 00-.55-.31l-4.53 4.39zm177.276-1.264a.27.27 0 00-.267-.273l-17.799-.186a.27.27 0 00-.273.267l-.013 1.28a.27.27 0 00.267.273l17.799.186a.27.27 0 00.273-.267l.013-1.28zM352.33 331.56c-.18 4.72-.66 9.54-.54 14.19a.4.4 0 00.6.33l16.85-10.06a.73.72-31.3 00.25-1l-4.58-7.47a.7.69 65 00-.81-.3l-11.27 3.64a.74.73 82 00-.5.67zm38.88 5.69l-8.18 6.21a.7.7 0 00-.22.83l5.63 13.47a.43.43 0 00.7.14q1.38-1.37 1.19-3.17 1.25-2.81 3.01-5.06c4.68-6.01 7.78-13.97 10.88-20.99q.22-.5-.23-.19l-12.78 8.76zm-212.29 7.23l-8.71-3.24a.84.84 0 00-.89.2c-5.07 5.28-15.24 13.08-16.61 18.9q-.14.61.45.41 14.65-4.88 25.92-15.48a.48.47 33.7 00-.16-.79zm-71.67 26.81q8.96 5.78 18.59 10.47a.21.21 0 00.28-.27q-4.29-10.45-10.18-20.67l-6.59-9.78a.32.32 0 00-.53 0l-9.1 13.84a.52.51 35.2 00.12.69l7.41 5.72zm236.64-.91a.64.64 0 00.89.79l23.74-11.78a.64.64 0 00-.1-1.18l-17.54-5.55a.64.64 0 00-.8.39l-6.19 17.33zm56.61-2.34l-7.14 1.38a1.26 1.25-17.4 00-.91 1.74q2.48 5.55 2.83 11.63a.36.36 0 00.63.21l6.74-7.93 6.1-8.37a.41.41 0 00-.43-.64l-7.82 1.98zm126.49 3.13c-2.9 4.37 1.89 6.72 5.24 7.95a1.68 1.63 81.1 01.77.58c1.41 1.94 2.82 3.16 3.35 5.6q1.48 6.92.64 14.01a.59.58 1.2 00.63.65l.77-.06a.68.68 0 00.61-.65q.45-13.2 1.54-16.99c1.25-4.31 3.91-12.13 1.66-14.73a1.04 1.02-21.8 00-.84-.35c-5.71.36-10.57-1.73-14.37 3.99zm-378.79 9.86c2.21.94 9.24 11.54 11.13 14.08a.45.45 0 00.67.06q8.75-8.04 16.03-17.45a.38.38 0 00-.23-.61q-13.12-2.42-25.33-7.83a.54.54 0 00-.74.35l-2.7 9.3a1.93 1.67 20.1 001.17 2.1zm324.75 3.75l.3 13.62a.42.42 0 00.81.14q3.49-9.43 8.1-18.35.45-.85-.42-.43l-8.13 3.93a1.18 1.17 76.4 00-.66 1.09zm41.8-.82q-4.28 4.62-7.54 10.04l-1.21 1.71q-2.76 3.3-4.32 7.37-.18.47.32.38c13.22-2.28 21.2-2.94 32.02-3.72a.32.32 0 00.26-.47q-1-1.95-1.07-4.02l-.36-2.48a.39.39 0 00-.55-.3c-8.09 3.47-13.55-5.07-13.22-12.21a.24.24 0 00-.44-.14q-1.44 2.28-3.89 3.84zm-155.76 9.41c-6.19-2.59-14.83-6.26-19.02-11.47q-.32-.39-.47.09-.42 1.32-.05 2 4.71 8.57 5.98 18.24a.3.3 0 00.48.19q6.21-4.74 13.11-8.4a.36.36 0 00-.03-.65zm58.83 5q-5.66.06-11.05-1.53a.37.36-88.2 00-.45.43q.15.68.93 1.08a1.4 1.38-88.4 01.66.71l3.17 7.58q.67 1.61 1.71.21l5.54-7.49q.74-1-.51-.99zM107 414.65c.26 1.67 7.09 7.2 8.67 8.54a.36.36 0 00.6-.3c-.38-6.79-6.4-17.45-9.88-23.38a.38.37 29.5 00-.7.19q.14 7.56 1.31 14.95zm69.26-9.36c-4.1-.07-7.78-.05-11.5-1.84a.22.22 0 00-.28.32q3.94 6.24 6.46 13.21a.28.28 0 00.49.05c1.4-2.12 7.23-9.09 5.64-11.32a1.03 1.03 0 00-.81-.42zm345.82 18.44c6.61-.02 12.65.41 19 1.07a.57.57 0 00.63-.55q.24-9.63-2.63-18.81a.41.41 0 00-.68-.17q-8.72 8.6-16.51 18.08-.31.38.19.38zm-40.04-11.8a.48.48 0 00-.24.8l6.23 6.73a.48.48 0 00.78-.11l4.84-9.47a.48.48 0 00-.54-.69l-11.07 2.74zm-129.61 2.98l-5.82-1.48a.35.34-79.2 00-.43.3q-1.1 9.55-3.92 18.76a.32.31 76.4 00.52.32q3.43-3.37 7.59-5.74a1.06 1.05 80 00.53-.76l1.89-10.84a.49.49 0 00-.36-.56zm70.32 8.16q-3.9-.88-7.21-3.14-.69-.48-.58.36l1.78 13q.15 1.1.83.23l6.14-7.71a1.72 1.71-64.4 00-.96-2.74zm-238.7 4.59l-7.79-.83a.83.83 0 00-.88 1.07l4.07 13.36q.15.5.47.09 4.24-5.39 5.25-12.24a1.27 1.27 0 00-1.12-1.45zm311.76 3.43q2.53 7.52 3.53 14.51a.24.24 0 00.44.11l5.41-7.63 6.21-8.82q.31-.44-.23-.46-7.85-.34-15.36 2.29zm-389.02 4.13c-.68 3.58-.78 7.87-1.01 11.45a.33.33 0 00.59.22l9.61-12.63a.48.48 0 00-.45-.77l-8.11 1.13a.75.74-88.3 00-.63.6z"/><path fill="#fff" d="M182.47 145.93c10.37 7.52 22.38 20.02 31.52 31.17a.88.87 35.1 01.15.84c-4.59 13.17-10.74 25.29-16.54 41.36q-.17.49-.47.07-12.68-17.44-27.56-33.07a.97.96-60.6 01-.24-.87q4.44-20.18 12.32-39.26a.55.54-61.2 01.82-.24zM242.38 152.19q9.96 9.81 17.59 21.56a1.06 1.06 0 01.1.95q-7.24 19.2-16.32 37.59-.23.45-.47.01-9.9-17.86-22.93-33.55c-1.51-1.81-1.29-3.05-.35-5q5.79-11.96 10.67-24.31a.88.86 9.9 01.8-.55c4.06 0 7.83.27 10.91 3.3zM132.22 157.53a.38.38 0 01.1-.57l4.51-2.6q.71-.41.39.35c-.96 2.27-2.16 6.13-5 2.82zM269.68 156.95a.78.77-78.7 01.87-.59l21.99 3.43a1.06 1.05 77.3 01.72.46l5.08 7.66a2.61 2.6 38.8 01.26 2.37q-6.99 18.16-14.98 35.91a.51.51 0 01-.92.01c-3.74-7.49-7.11-15.07-11.65-22.12l-6.64-10.32a.96.93-50.5 01-.07-.87q3.39-7.73 5.34-15.94zM303.83 163.72a1.97 1.95 9.3 011.96-1.4l32.6 1.42a.75.74 77.2 01.62.39c.56 1.09 1.06 1.97.76 3.25-3.56 15.28-10.37 31.02-16.78 44.86q-.26.57-.45-.02-7.37-22.83-19.85-43.31a1.1 1.09 37.6 01-.12-.89l1.26-4.3zM366.57 196.82q-.94 2.77-2.27.16-8.16-16-18.49-29.29-1.03-1.32-1.91-3.62a.39.39 0 01.36-.53l24-.22a1.29 1.25-23 01.86.33l5.04 4.63a.84.84 0 01.23.87c-2.97 9.25-4.84 18.85-7.82 27.67zM403.76 195.78q-.26 1.31-.99.19c-6.66-10.32-14.17-21.35-24.02-29.14a1.17 1.17 0 01.86-2.08c9.21 1 17.5 6.98 25.32 11.73a1.03 1.01-75.2 01.49.86q.19 9.32-1.66 18.44zM160.83 183.79c1.39 1.22 2.89 1.95 3.61 3.95a1.59 1.57 42.8 01.04.95c-3.86 14.12-4.83 24.78-7.08 37.37q-.09.49-.45.14c-9.85-9.56-18.25-18.45-30.36-26.9a.76.74 23.8 01-.31-.78q3.59-16.92 9.97-33.04a.48.48 0 01.72-.22q12.39 8.48 23.86 18.53zM416.75 177.45l6.79 2.61a.31.31 0 01.2.3l-.32 9.84a.31.31 0 01-.53.2l-7.33-7.63a.31.31 0 01-.08-.27l.85-4.81a.31.31 0 01.42-.24zM427.36 180.99l1.27.34a.44.44 0 01.32.48l-1.34 10.12a.44.44 0 01-.87-.06l.07-10.46a.44.44 0 01.55-.42zM440.6 187.62a.71.7 28.3 011.21-.36l.46.49a.75.75 0 01.01 1.03l-1.53 1.63q-.77.82-.58-.29l.43-2.5zM106.46 192.17a.57.56 28.6 01.25.84c-6.97 10.16-12.26 20.87-17.58 32.08a.67.67 0 01-.87.32l-1.6-.7a.75.75 0 01-.41-.92c3.74-11.95 9.43-22.26 14.63-33.27a.66.66 0 01.85-.32l4.73 1.97zM441.12 199.63c1.05-2.97 3.17-6.85 5.37-9.04a.63.62-49.7 01.79-.07l8.83 5.88a.64.63 34.3 01.17.89l-6.34 8.93a.57.57 0 01-.81.13l-7.74-5.81a.81.8 28.8 01-.27-.91zM107 232.96q.68-1.4.7-2.21c.23-10.67-.42-21.89 3.54-31.99q.27-.69.3-2.51-.1-.43-.04-.73a.51.5 21.9 01.76-.32l9.21 5.69a.73.72-68.9 01.33.76q-3.53 18.37-3.58 37.08a.33.32-74.8 01-.48.28L107 232.96z"/><path fill="#949698" d="M111.54 196.25q-.03 1.82-.3 2.51c-3.96 10.1-3.31 21.32-3.54 31.99q-.02.81-.7 2.21l-8.88-4.14a1.36 1.36 0 01-.74-1.57q4.19-16.29 13.19-30.47a.89.84 5.6 01.45-.35l.52-.18z"/><path fill="#fff" d="M463.78 211.37c1.11-1.13 5.42-5.4 7-4.76a.41.41 0 01.01.75q-3.77 1.66-6.8 4.43a.1.1 0 01-.16-.04l-.08-.25a.12.11 60.7 01.03-.13zM400.75 281.96l-13.99 19.91-2.78 3.74q-.3.4-.27-.1 1.01-23.24-.53-46.41c-.37-5.57 1.8-8.32 4.52-13.16q8.06-14.37 16.58-36.01.18-.47.43-.02c5.3 9.5 8.17 23.29 10.3 34.23q1.52 7.85 1.51 9.12c-.04 5.04-2.77 7.36-4.89 11q-5.24 9-10.88 17.7zM375.75 259.46c-3.96 4.46-7.04 10.92-9.46 14.61q-4.65 7.1-9.23 14.45.43-5.02.76-9.96.88-12.82 5.38-24.83c.48-1.27.28-2.67.26-3.98l1.75-3.38a.44.43-8.4 00-.69-.51c-6.13 5.94-10.54 15.54-14.31 23.14l-2.02.14a1.36 1.31-69.5 00-.9.43q-4.74 5.08-11.12 7.87a.54.53-21.4 01-.72-.31q-.09-.24.01-.63l-.29-3.47a1.56 1.56 0 01.22-.93c5.81-9.37 10.98-21 15.22-29.12q8.27-15.85 14.93-32.28a.53.52 46 01.98.02c4.78 13.13 9.05 25.81 11.71 39.56q1.07 5.56-2.48 9.18zM463.84 219.26q4.27-5.35 10.47-8.28a1.1 1.09-43 01.98.03q2.68 1.48 3.56 4.38a.89.88 65.4 01-.37 1.01q-5.59 3.53-7.31 9.89a.46.46 0 01-.77.21l-6.51-6.48a.57.56 41.5 01-.05-.76zM283.75 284.79c-5.38-.9-11.95-.04-18.46-.54q-.66-1.89-.74-2.81-1.16-14.11-4.94-27.68a1.13 1.12-36.3 01.14-.9q5.8-9.02 11.77-17.87c3.86-5.72 6.9-11.91 10.37-17.97a.36.36 0 01.66.07c5.41 16.74 10.64 32.87 11.27 50.67a1.95 1.9-32.5 01-.22.93c-2.27 4.11-4.87 7.83-7.09 12.04q-1.15 2.19-2.76 4.06zM447.5 272.96q-5.89-3.45-13.21-5.35a.69.68 9 00-.86.62c-.65 11.08-5.07 20.23-11.96 28.76q-1.6 1.98-3.53 3.79 5.7-21.4 3.04-43.37a1.61 1.57-32.9 01.23-1.01q11.54-18.53 20.07-38.63a.21.21 0 01.4.03c2.05 8.96 4.6 18.35 5.42 27.07q1.32 14 .4 28.09zM222.25 263.46l-.51-1.03a.96.93-43.2 01.04-.91l5.97-9.98q8.59-13.72 15.58-28.31.19-.41.37 0 6.14 14.11 10.69 28.8a1.36 1.35 49.2 01-.07.99c-5.34 11.16-14.31 22.29-22.39 31.61a.3.29-34.6 01-.5-.09q-3.97-10.92-9.18-21.08zm10.56 18.35q.64-.41 1.26-.89a.31.3-49.9 00-.04-.52l-2.15-1.09a.46.46 0 00-.66.32c-.34 1.68 1.57 3.55 1.59 2.18zM324.71 281q-8.09.83-16.11 2.2c-2.41.41-4.97.2-7.5.42a.5.5 0 00-.46.53q.96 13.78-1.51 27.37.25-9.56.52-19.1c.21-7.32-.86-15.03-1.1-22.62-.09-2.82 1.28-5.52 2.67-7.57 8.16-12.06 13.49-24.38 19.65-36.21q1.46-2.8 2.13.29 3.57 16.6 7.01 32.19c.77 3.5 2.35 11.48-.24 15.5q-2.34 3.65-5.06 7zM485.34 236.3c.52-2.81 4.55-6.17 6.4-7.61a.7.7 0 01.96.1l1.63 1.91q.5.59-.27.68-5.35.66-8.34 5.08-.56.84-.38-.16zM203.46 236.75q7.46 11.95 13.5 24.21a1.58 1.57 46.8 01-.04 1.49q-4.45 7.9-9.46 14.3l-3.56 4.92q-.29.4-.72.64l-8.97 5.02a.4.4 0 01-.57-.21q-4.35-12.14-6.52-15.5-1.33-2.06-.84-3.74 5.57-19.06 11.63-37.96.16-.52.48-.08l5.07 6.91zm-.71 44.15c1.57-2.65 4.89-7.44 7.55-8.99a.87.86 43.2 00-.05-1.52l-6.48-3.28a.49.49 0 01-.26-.55q2.39-9.64.26-19.32-.47-2.15-1.02-.02c-1.12 4.31-1.27 9.2-2.85 13.25q-3.38 8.66-9.05 16.07a1 .99-37.6 00-.13.97l3.12 7.61a1.01 1.01 0 001.45.49l6.76-4q.44-.27.7-.71zM500.7 237.83q.25.15.39.39a.51.51 0 01-.25.72q-7.11 2.91-13.33 7.41a.5.5 0 01-.74-.19l-1.99-4.28a.77.76-35.9 01.14-.85q4.88-5.02 11.46-7.34a.83.82 59.7 01.9.24l3.03 3.58q.17.2.39.32z"/><path d="M227.75 251.54l-5.97 9.98a.96.93-43.2 00-.04.91l.51 1.03-3.54.51a.94.94 0 00-.74.56q-3.18 7.39-8.92 13.01a1.12.98-45.5 01-1.44.11q-.24-.23-.15-.9 5.01-6.4 9.46-14.3a1.58 1.57 46.8 00.04-1.49q-6.04-12.26-13.5-24.21 1.38-.54 2.27.78 6.8 10.2 12.08 21.31a1.15 1.15 0 00.8.64l1.59.33a.87.87 0 00.93-.41l4.56-7.7a1.12 1.1-78.6 01.78-.53q.65-.09 1.28.37z"/><path fill="#fff" d="M176.71 290l-12.9 9.76a.51.51 0 00-.1.72c3.31 4.33 3.98 9.23 8.04 13.31l-.97 4.25a.46.45 43.5 01-.88.02q-1.33-4.64-2.92-8.93c-3.25-8.73-9.3-15.65-9.25-25.62.08-15.17.94-30.08 1.58-45.26a.55.55 0 01.99-.31q11.48 15.03 20.76 31.51a1.49 1.46 37.2 01.15 1.03l-4.5 19.52z"/><path fill="#949698" d="M168.65 237.76a.4.4 0 01.61.36l-.04.54a.41.41 0 01-.72.25q-.6-.68.15-1.15z"/><path d="M73.79 238.75q.49-.15.84.07a.68.67-65.9 01.29.78q-2.17 6.53-3.84 13.2c-1.52 6.07-4.2 11.31-6.46 17.07-2.06 5.23-6.38 9.67-9.67 14.2-.62.84-1.39.97-2.24.43 4.48-7.08 9.41-11.38 11.88-18.28 1.71-4.81 4.17-9.32 5.45-14.12q1.78-6.7 3.75-13.35z"/><path fill="#949698" d="M210.3 271.91c-2.66 1.55-5.98 6.34-7.55 8.99q-.26.44-.7.71l-6.76 4a1.01 1.01 0 01-1.45-.49l-3.12-7.61a1 .99-37.6 01.13-.97q5.67-7.41 9.05-16.07c1.58-4.05 1.73-8.94 2.85-13.25q.55-2.13 1.02.02 2.13 9.68-.26 19.32a.49.49 0 00.26.55l6.48 3.28a.87.86 43.2 01.05 1.52z"/><path fill="#fff" d="M154.29 312q-2.25 5.66-5.08 11.1c-1.3 2.5-1.69 4.38 1 5.97a.49.48-59.1 01.17.68q-.14.22-.38.29-7.28-6.99-11.79-16.04l1.43-4.09a.48.48 0 01.69-.26q3.1 1.7 6.63 1.63a.38.38 0 00.17-.71q-8.6-4.65-15.09-11.82c-.55-1.01-1.24-1.98-1.59-3.06-4.97-15.44-6.99-31.05-8.18-47.18a.35.35 0 01.56-.3c11.72 9.11 21.75 24.46 28.78 37.39q1.78 3.26 1.97 6.96.5 9.72.71 19.44z"/><path fill="#949698" d="M363.46 249.75c.02 1.31.22 2.71-.26 3.98q-4.5 12.01-5.38 24.83-.33 4.94-.76 9.96-.25 1.15-1.1 2.23l-3.33 3.94q-.37.44-.4-.13-.39-6.84.39-13.54c.89-7.75 4.12-16.25 6.75-24.1q1.34-4 4.09-7.17z"/><path fill="#fff" d="M471.06 294.14q-7.65-8.88-16.05-15.95l19.95-26.81q.3-.4.34.1.38 4.53.24 9.02-.52 17.04-4.48 33.64z"/><path d="M115.84 301.7q-5.72-11.52-13.85-21.56c-4.06-5.01-12.07-22.42-11.7-28.71q1.8.56 2.15 2.25c1.36 6.76 4.78 13.98 7.06 20.57.65 1.89 2.83 4.93 4.54 6.87 5.59 6.3 10.38 12.16 12.51 19.98a.43.43 0 01-.35.54l-.36.06z"/><path fill="#fff" d="M497.94 259.9q6.06-5.2 13.95-6.53a.67.66-13.3 01.75.46l.11.34a.65.65 0 01-.44.82q-7.21 2.01-13.55 6.02a.69.69 0 01-.82-1.11z"/><path d="M375.75 259.46q.69.17.93.74a.82.81-35.2 01-.15.85q-1.15 1.27-2.27 3.18-6.98 11.89-16.04 25.02-1.08 1.56-2.26 1.5.85-1.08 1.1-2.23 4.58-7.35 9.23-14.45c2.42-3.69 5.5-10.15 9.46-14.61z"/><path fill="#fff" d="M517.61 260.77l4.76 7.76a.54.53-27.6 01-.25.77l-14.14 6.21a.63.63 0 01-.8-.25l-6.41-10.67a.51.5-29.4 01.2-.71q7.33-3.79 15.62-3.69a1.22 1.22 0 011.02.58z"/><path fill="#949698" d="M447.5 272.96c0 3.63-.2 7.17-2.84 10.02q-12.01 12.99-17.84 17.84-7.45 6.19-10.68 9.76-.36.4-.25-.13l2.05-9.67q1.93-1.81 3.53-3.79c6.89-8.53 11.31-17.68 11.96-28.76a.69.68 9 01.86-.62q7.32 1.9 13.21 5.35zM350.21 269c-1.17 3.23-2.89 6.21-3.49 9.49q-1.99 10.81-1.07 21.79c.58 6.98-6.86 14.71-10.44 20.1a.58.58 0 01-1.07-.37q1.89-22.72 1.32-43.51-.1.39-.01.63a.54.53-21.4 00.72.31q6.38-2.79 11.12-7.87a1.36 1.31-69.5 01.9-.43l2.02-.14z"/><rect fill="#fff" x="-8.73" y="-1.01" transform="rotate(-12.2 1573.193 -2292.967)" width="17.46" height="2.02" rx=".87"/><path fill="#949698" d="M455.01 278.19q8.4 7.07 16.05 15.95l-23.47 13.69a.7.7 0 01-1.04-.76q2.5-11.15 4.38-23.09.39-2.5 4.08-5.79zM232.81 281.81c-.02 1.37-1.93-.5-1.59-2.18a.46.46 0 01.66-.32l2.15 1.09a.31.3-49.9 01.04.52q-.62.48-1.26.89z"/><path fill="#fff" d="M489.14 316.61q-2.66-5.35-6.43-9.57-3.89-4.34-7.92-8.54-.04-1.76 1.27-2.69 10.64-7.54 20.96-15.63a.31.31 0 01.5.29q-2.81 18.37-8.38 36.14z"/><path fill="#949698" d="M324.71 281l-.17.75L309.71 307q-1.8 3.95-4.58 7.21c-3.24 3.81-4.75 7.06-7.02 11.1q-.26.47-.21-.07l1.23-13.72q2.47-13.59 1.51-27.37a.5.5 0 01.46-.53c2.53-.22 5.09-.01 7.5-.42q8.02-1.37 16.11-2.2z"/><path d="M324.54 281.75q1.03.95.48 2.02-4.54 8.82-13.76 24.03a.91.9 14.2 01-.74.44l-.29.01a.45.45 0 01-.46-.42l-.06-.83 14.83-25.25zM400.75 281.96c3.56-.29-3.95 8.54-4.48 9.23q-.43.56-3.15 4.89-2.34 3.71-6.36 5.79l13.99-19.91z"/><path fill="#949698" d="M265.29 284.25c6.51.5 13.08-.36 18.46.54q-.14.78-.58 1.41-8.47 12.13-16.24 24.79a.33.33 0 01-.62-.19q.62-13.23-1.02-26.55z"/><path fill="#fff" d="M514.55 288.31l-1.14-1.76a.44.44 0 01.31-.68c4.51-.55 10.44-2.32 14.69-.79a.48.47 53.3 01-.13.92q-6.71.34-13.03 2.55a.61.6-25.4 01-.7-.24z"/><path fill="#949698" d="M176.71 290l-4.96 23.79c-4.06-4.08-4.73-8.98-8.04-13.31a.51.51 0 01.1-.72l12.9-9.76z"/><path fill="#fff" d="M517.31 293.12l-.31-1.09a.69.69 0 01.52-.86q5.78-1.19 11.69-.91 1.19.06.05.38l-10.88 3.08a.86.86 0 01-1.07-.6z"/><path fill="#949698" d="M218.54 309.25a1.07 1.06-66.1 01-.45-1.17q.1-.33.61-.9 5.38-5.91 10.17-12.42a.27.27 0 01.48.09l5.48 21.22q.54 2.08-1.43 1.22-7.78-3.4-14.86-8.04zM193.12 298.46q2.06 1.07 2.57 3.17a1.27 1.26 53.7 01-.14.94q-3.8 6.18-4.89 8.85c-1.62 3.97-6.28 3.55-9.74 4.51q-2.19.61-1.02-1.35c2.82-4.73 7.57-13.43 12.35-16.11a.92.91 44.1 01.87-.01zM474.79 298.5q4.03 4.2 7.92 8.54 3.77 4.22 6.43 9.57-2.23 2.75-5.64 3.6-3.92-4.15-7-9-.26-.41-.68-.66c-2.53-1.47-2.23-2.96-1.46-5.69q.44-1.57 0-3.18l.43-3.18zM132.04 298.75q6.49 7.17 15.09 11.82a.38.38 0 01-.17.71q-3.53.07-6.63-1.63a.48.48 0 00-.69.26l-1.43 4.09q-4.4-7.08-6.17-15.25z"/><path fill="#fff" d="M539.54 300.92l3.86 9.66a.33.33 0 01-.27.45l-12.66 1.52a.33.33 0 01-.32-.15l-7.16-11.68a.33.33 0 01.29-.5l15.96.49a.33.33 0 01.3.21zM474.36 301.68q.44 1.61 0 3.18c-.77 2.73-1.07 4.22 1.46 5.69q.42.25.68.66 3.08 4.85 7 9l-12.02 4.5q1.75-2.34 4.55-2.77a.5.49 72.6 00.37-.71c-1.11-2.29-3.17-8.76-4.94-9.98l2.9-9.57zM510.5 343.71l.78 1.08a.73.72-25 00.78.28q5.29-1.34 5.4-6.33 2.06-3.94 2.21-9.24c.26-8.63.68-15.03-5.73-21.16a.56.55 45.4 00-.76-.01c-.76.72-.78 1.46-.45 2.51q1.08 3.42-1.02 6.66-3.26 4.29-3.84 9.63-.06.5.13.97.95 2.34-1.5 3.44c-1.81-9.51 1.93-18.74 5.84-28.6a.43.42 27.1 01.62-.2c6.58 4.1 11.46 10.14 12.24 18.05q1.03 10.58.02 21.21-.11 1.17.19 2.25.14.5.35.03c1.57-3.38 3.68-5.67 4.34-9.48a.75.75 0 01.53-.59l2.53-.8a.63.62-24.4 00.35-.92l-1.82-2.9q-.33-.54.31-.55 8.3-.11 15.18.56c4.2.41 5.07 5.36 6.09 8.66q.15.49-.34.36-5.99-1.5-12.18-1.11-1.37.09-2.7-.19a1 .98 83.3 01-.7-.56c-.35-.78-1.35-3.32-2.36-3.35a.47.46 86.4 00-.47.54c.54 3.67.85 6.91 2.14 10.57q1.62 4.61 2.45 9.46a1.09 1.08-30.1 01-.24.89c-1.44 1.73-3.53 2.64-4.95 4.07q-1.94 1.94-3.84 3.91a1.46 1.45-70 01-.95.45l-6.59.43a.96.95 67.6 01-.78-.33l-1.67-1.95q-.79-.92-.64.29l.23 1.82a.64.64 0 01-.44.69c-2.35.76-4.65.48-6.93 1.28-3.53 1.22-7.52 1.78-10.69 2.8q-5.09 1.63-10.16 3.31-.47.16-.23-.29 8.31-14.81 19.27-27.64zM134.54 321.5c-3.17 7.97-7.43 15.91-10.08 24l-5.84-3.78a.51.51 0 01-.16-.69c5.97-10.12 9.2-22.86 6.25-34.47a.42.42 0 01.76-.33c2.92 4.71 7.73 9.99 9.07 15.27z"/><path d="M517.46 338.74q-6.1-.27-6.66-6.06-.47-4.72.91-15.18 2.1-3.24 1.02-6.66c-.33-1.05-.31-1.79.45-2.51a.56.55 45.4 01.76.01c6.41 6.13 5.99 12.53 5.73 21.16q-.15 5.3-2.21 9.24zm-3.61-20.98c-.92 6.32-2.38 11.56.04 17.82a1.28 1.27-37.5 002.22.29c2.82-3.87 1.62-11.77 1.61-16.38-.01-2.39-.59-4.42-3.43-4a.66.65-2.7 00-.56.61q-.02.35.07.69.12.48.05.97z"/><path fill="#949698" d="M471.46 311.25c1.77 1.22 3.83 7.69 4.94 9.98a.5.49 72.6 01-.37.71q-2.8.43-4.55 2.77-2.44 1.59-5.41 1.81a.33.32 8.5 01-.33-.44l5.72-14.83zM154.29 312l3.83 24.19q.08.51-.38.27-4.51-2.41-7.74-6.42.24-.07.38-.29a.49.48-59.1 00-.17-.68c-2.69-1.59-2.3-3.47-1-5.97q2.83-5.44 5.08-11.1z"/><path fill="#222120" d="M513.8 316.79q-.09-.34-.07-.69a.66.65-2.7 01.56-.61c2.84-.42 3.42 1.61 3.43 4 .01 4.61 1.21 12.51-1.61 16.38a1.28 1.27-37.5 01-2.22-.29c-2.42-6.26-.96-11.5-.04-17.82q.07-.49-.05-.97z"/><path fill="#fff" d="M501.54 327.75l.59 4.21a.52.51 82.8 01-.44.58q-2.94.38-5.25 2.41-.67.59-.78-.29l-.25-1.97q-.06-.48-.31-.89c-1.8-2.96-.78-5.19-3.53-8.63q3.64-4.35 8.8-6.65a.65.65 0 01.91.66q-.51 5.33.26 10.57z"/><path fill="#949698" d="M511.71 317.5q-1.38 10.46-.91 15.18.56 5.79 6.66 6.06-.11 4.99-5.4 6.33a.73.72-25 01-.78-.28l-.78-1.08c.54-1.42-3.36-9.96-4-12.17q2.45-1.1 1.5-3.44-.19-.47-.13-.97.58-5.34 3.84-9.63zM372.22 325.36l4.53-4.39a.33.33 0 01.55.31l-1.77 8.08a.33.33 0 01-.59.13l-2.76-3.7a.33.33 0 01.04-.43zM134.54 321.5q1.85 2.73 2.37 5.96-1.31 9.67-5.06 19.03a.38.38 0 00.64.4c2.91-3.19 4.6-6.42 9.01-7.93q3.19 8.08 3.66 16.72a.33.32-81.4 01-.44.33q-10.78-4-20.26-10.51c2.65-8.09 6.91-16.03 10.08-24z"/><path d="M410.5 322.79q-.36 11.15.96 22.21-.17.24-.5.37a.53.53 0 01-.68-.29c-2.49-6.13-1.28-15.3-1.4-21.92a.68.68 0 01.5-.67q.5-.14 1.12.3z"/><path fill="#949698" d="M491.57 323.17c2.75 3.44 1.73 5.67 3.53 8.63q.25.41.31.89l.25 1.97q.11.88.78.29 2.31-2.03 5.25-2.41a.52.51 82.8 00.44-.58l-.59-4.21q1.37 3.05 1.71 6.46-2.17-1.45-3.59.5c-2.78 3.82-4.18 6.93-8.41 8.67q-2.17.89-4.42 1.79a.4.4 0 01-.54-.43q.77-5.35 5.86-6.99a.8.79-21.6 00.48-1.1l-2.62-5.64a.47.47 0 00-.42-.26h-.3q1.77-3.33 2.28-7.58z"/><rect fill="#949698" x="-9.17" y="-.91" transform="rotate(.6 -30730.393 51758.608)" width="18.34" height="1.82" rx=".27"/><path fill="#949698" d="M351.79 345.75c-.12-4.65.36-9.47.54-14.19a.74.73 82 01.5-.67l11.27-3.64a.7.69 65 01.81.3l4.58 7.47a.73.72-31.3 01-.25 1l-16.85 10.06a.4.4 0 01-.6-.33z"/><path fill="#fff" d="M136.91 327.46q3.17 5.47 4.59 11.5c-4.41 1.51-6.1 4.74-9.01 7.93a.38.38 0 01-.64-.4q3.75-9.36 5.06-19.03zM390.33 354.73q.4-4.03 3.12-7.16a.94.93-31.9 00.2-.84c-.72-2.61-1.12-7.51-2.44-9.48l12.78-8.76q.45-.31.23.19c-3.1 7.02-6.2 14.98-10.88 20.99q-1.76 2.25-3.01 5.06zM489.29 330.75h.3a.47.47 0 01.42.26l2.62 5.64a.8.79-21.6 01-.48 1.1q-5.09 1.64-5.86 6.99a.4.4 0 00.54.43q2.25-.9 4.42-1.79c4.23-1.74 5.63-4.85 8.41-8.67q1.42-1.95 3.59-.5 1.51 1.85 1.27 4.15a.8.79 83 01-.52.67c-3.81 1.43-7.21 3.29-11.09 4.68q-4.66 1.68-8.87 4.21a.25.25 0 01-.33-.35c2.01-3.01 2.21-6.39 3-9q1.2-3.94 2.58-7.82z"/><path d="M115.25 331.46l.9 1.17a.7.69 42.5 01.04.8c-1.57 2.47-2.68 4.95-4.65 7.13-3.17 3.49-5.44 6.2-8.69 10.74q-2.26 3.17-5.72 5.07 5.63-9.83 13.62-17.62 1.92-1.88 4.5-7.29z"/><path fill="#949698" d="M391.21 337.25c1.32 1.97 1.72 6.87 2.44 9.48a.94.93-31.9 01-.2.84q-2.72 3.13-3.12 7.16.19 1.8-1.19 3.17a.43.43 0 01-.7-.14l-5.63-13.47a.7.7 0 01.22-.83l8.18-6.21zM178.92 344.48a.48.47 33.7 01.16.79q-11.27 10.6-25.92 15.48-.59.2-.45-.41c1.37-5.82 11.54-13.62 16.61-18.9a.84.84 0 01.89-.2l8.71 3.24z"/><path fill="#fff" d="M115.94 360.82q-5.49 4.27-8.69 10.47l-7.41-5.72a.52.51 35.2 01-.12-.69l9.1-13.84a.32.32 0 01.53 0l6.59 9.78z"/><path fill="#949698" d="M343.89 370.38l6.19-17.33a.64.64 0 01.8-.39l17.54 5.55a.64.64 0 01.1 1.18l-23.74 11.78a.64.64 0 01-.89-.79zM115.94 360.82q5.89 10.22 10.18 20.67a.21.21 0 01-.28.27q-9.63-4.69-18.59-10.47 3.2-6.2 8.69-10.47z"/><path d="M92.75 362.96c1.64.43-.83 6.6-1.18 8.04a1.11 1.1-55.9 00.17.9q4.92 7.01 5.07 15.3l-7.3-16.02a1.14 1.12-45.7 010-.93l3.24-7.29z"/><path fill="#fff" d="M402.65 375.07l-2.14-5.41q-.18-.45-.11-.92l.1-.7 7.82-1.98a.41.41 0 01.43.64l-6.1 8.37zM532.23 379.12c-3.35-1.23-8.14-3.58-5.24-7.95 3.8-5.72 8.66-3.63 14.37-3.99a1.04 1.02-21.8 01.84.35c2.25 2.6-.41 10.42-1.66 14.73q-1.09 3.79-1.54 16.99a.68.68 0 01-.61.65l-.77.06a.59.58 1.2 01-.63-.65q.84-7.09-.64-14.01c-.53-2.44-1.94-3.66-3.35-5.6a1.68 1.63 81.1 00-.77-.58z"/><path fill="#949698" d="M400.5 368.04l-.1.7q-.07.47.11.92l2.14 5.41-6.74 7.93a.36.36 0 01-.63-.21q-.35-6.08-2.83-11.63a1.26 1.25-17.4 01.91-1.74l7.14-1.38zM148.2 381.03a1.93 1.67 20.1 01-1.17-2.1l2.7-9.3a.54.54 0 01.74-.35q12.21 5.41 25.33 7.83a.38.38 0 01.23.61q-7.28 9.41-16.03 17.45a.45.45 0 01-.67-.06c-1.89-2.54-8.92-13.14-11.13-14.08zM473.61 383.69l8.13-3.93q.87-.42.42.43-4.61 8.92-8.1 18.35a.42.42 0 01-.81-.14l-.3-13.62a1.18 1.17 76.4 01.66-1.09zM533.21 395.25q-13.04 1.96-17.83-9.76c-.22-.53-.13-.59-.01-1.09a.32.32 0 00-.28-.4l-.34-.04q2.45-1.56 3.89-3.84a.24.24 0 01.44.14c-.33 7.14 5.13 15.68 13.22 12.21a.39.39 0 01.55.3l.36 2.48zM358.99 393.37a.36.36 0 01.03.65q-6.9 3.66-13.11 8.4a.3.3 0 01-.48-.19q-1.27-9.67-5.98-18.24-.37-.68.05-2 .15-.48.47-.09c4.19 5.21 12.83 8.88 19.02 11.47z"/><path fill="#fff" d="M514.75 383.96l.34.04a.32.32 0 01.28.4c-.12.5-.21.56.01 1.09q4.79 11.72 17.83 9.76.07 2.07 1.07 4.02a.32.32 0 01-.26.47c-10.82.78-18.8 1.44-32.02 3.72q-.5.09-.32-.38 1.56-4.07 4.32-7.37.2.07.33.22a.75.75 0 01.08.9q-1.25 2.05.03 4.16a1.09 1.06 73.6 00.91.51h2.54a.63.62-1.7 00.63-.66q-.22-4.18-3.31-6.84 3.26-5.42 7.54-10.04z"/><path fill="#949698" d="M507.21 394q3.09 2.66 3.31 6.84a.63.62-1.7 01-.63.66h-2.54a1.09 1.06 73.6 01-.91-.51q-1.28-2.11-.03-4.16a.75.75 0 00-.08-.9q-.13-.15-.33-.22l1.21-1.71zM417.82 398.37q1.25-.01.51.99l-5.54 7.49q-1.04 1.4-1.71-.21l-3.17-7.58a1.4 1.38-88.4 00-.66-.71q-.78-.4-.93-1.08a.37.36-88.2 01.45-.43q5.39 1.59 11.05 1.53zM115.67 423.19c-1.58-1.34-8.41-6.87-8.67-8.54q-1.17-7.39-1.31-14.95a.38.37 29.5 01.7-.19c3.48 5.93 9.5 16.59 9.88 23.38a.36.36 0 01-.6.3zM164.76 403.45c3.72 1.79 7.4 1.77 11.5 1.84a1.03 1.03 0 01.81.42c1.59 2.23-4.24 9.2-5.64 11.32a.28.28 0 01-.49-.05q-2.52-6.97-6.46-13.21a.22.22 0 01.28-.32z"/><path fill="#fff" d="M541.08 424.8c-6.35-.66-12.39-1.09-19-1.07q-.5 0-.19-.38 7.79-9.48 16.51-18.08a.41.41 0 01.68.17q2.87 9.18 2.63 18.81a.57.57 0 01-.63.55z"/><path fill="#949698" d="M482.04 411.93l11.07-2.74a.48.48 0 01.54.69l-4.84 9.47a.48.48 0 01-.78.11l-6.23-6.73a.48.48 0 01.24-.8zM352.43 414.91a.49.49 0 01.36.56l-1.89 10.84a1.06 1.05 80 01-.53.76q-4.16 2.37-7.59 5.74a.32.31 76.4 01-.52-.32q2.82-9.21 3.92-18.76a.35.34-79.2 01.43-.3l5.82 1.48zM422.75 423.07a1.72 1.71-64.4 01.96 2.74l-6.14 7.71q-.68.87-.83-.23l-1.78-13q-.11-.84.58-.36 3.31 2.26 7.21 3.14zM184.05 427.66a1.27 1.27 0 011.12 1.45q-1.01 6.85-5.25 12.24-.32.41-.47-.09l-4.07-13.36a.83.83 0 01.88-1.07l7.79.83z"/><path fill="#fff" d="M505.19 438.08q-.02-4.1-2.19-7.39a.68.67 64.4 00-.75-.27q-2.99.88-6.44.67 7.51-2.63 15.36-2.29.54.02.23.46l-6.21 8.82z"/><path fill="#949698" d="M505.19 438.08l-5.41 7.63a.24.24 0 01-.44-.11q-1-6.99-3.53-14.51 3.45.21 6.44-.67a.68.67 64.4 01.75.27q2.17 3.29 2.19 7.39zM105.78 446.67c.23-3.58.33-7.87 1.01-11.45a.75.74-88.3 01.63-.6l8.11-1.13a.48.48 0 01.45.77l-9.61 12.63a.33.33 0 01-.59-.22z"/><path fill="#222120" d="M0 590.44l13.94.56H0v-.56zM23.94 591h-6.75q3.37-.63 6.75 0zM39.94 591h-5.75q2.87-.63 5.75 0zM77.94 591H48.19q14.87-.63 29.75 0zM87.94 591h-5.75q2.87-.63 5.75 0zM121.94 591h-15.75q7.87-.63 15.75 0zM135.94 591h-13.25q6.62-.63 13.25 0zM192.94 591h-32.75q16.37-.63 32.75 0zM200.94 591h-7.75q3.87-.63 7.75 0zM223.94 591h-22.75q11.37-.63 22.75 0zM230.94 591h-5.75q2.87-.63 5.75 0zM252.75 590.79l-.06.21h-18.5l18.56-.21z"/><path fill="#222120" d="M252.75 590.79l39.69.21h-39.75l.06-.21zM303.94 591h-6.75q3.37-.63 6.75 0zM334.44 591h-27.75q13.87-.63 27.75 0zM372.94 591h-34.25q17.12-.63 34.25 0zM423.94 591h-22.75q11.37-.63 22.75 0zM502.94 591h-13.75q6.87-.63 13.75 0zM549.94 591h-28.75q14.37-.63 28.75 0zM589.94 591h-9.75q4.87-.63 9.75 0z"/></svg>