<svg xmlns="http://www.w3.org/2000/svg" viewBox="0 0 591 591"><g stroke-width="2" fill="none"><path stroke="#100f0f" vector-effect="non-scaling-stroke" d="M590.06 0l.19.29"/><path stroke="#7d7f71" vector-effect="non-scaling-stroke" d="M590.25.29l.04 589.46"/><path stroke="gray" vector-effect="non-scaling-stroke" d="M590.29 589.75l-.54.54"/><path stroke="#7d7f71" vector-effect="non-scaling-stroke" d="M589.75 590.29L.82 590.06a.34.34 0 00-.32.47l.19.47M586.25 4.51a.26.26 0 00-.26-.26H4.51a.26.26 0 00-.26.26v581.48a.26.26 0 00.26.26h581.48a.26.26 0 00.26-.26V4.51"/><path stroke="#8d8e80" vector-effect="non-scaling-stroke" d="M591 587.31c-.84-.45-.25-537.06-.25-586.81a.25.24-86.1 00-.21-.25q-.17-.02-.29.04"/><path stroke="#fdfef0" vector-effect="non-scaling-stroke" d="M591 590.06l-.71-.31"/><path stroke="#faf2c8" vector-effect="non-scaling-stroke" d="M38.44 56.44q-1.25 22.52 0 45.16a.91.91 0 001.18.81q.44-.13 1.06-.73 30.35-29.15 59.76-59.6a1.04 1.04 0 00-.73-1.76q-21.6-.47-43.63 1.02c-8.07.54-17.15 6.15-17.64 15.1"/><path stroke="#c6c9bc" vector-effect="non-scaling-stroke" d="M422.24 118.23l.01.77a.57.57 0 00.51.56c.82.07.54-1.52.18-1.73q-.71-.42-.7.4"/><path stroke="#8d8e80" vector-effect="non-scaling-stroke" d="M454.08 440.77c4.74 1.89 19.84-3.82 23.6-5.83 14.62-7.82 28.03-20.54 34.61-34.92q5.75-12.59 10.38-27.76c.71-2.33.24-3.26-1.45-4.75q-4.91-4.34-9.84-8.66c-11.43-10.02-23.53-18.48-34.75-29.14q-8.2-7.78-17.06-14.85a1.12 1.12 0 01-.42-.81c-.28-4.16.42-9.4-.94-12.81-2.32-5.8-6.99-6.95-12.28-8.79a.78.76 7.8 01-.51-.66c-.27-3.81-.9-7.74-1.07-11.4-.54-12.26-.62-25.42-5.76-34.43-1.22-2.15.78-5.85 1.48-7.99 1.44-4.37.5-11.77.08-16.39-1.93-21.53.05-42.7-1.55-63.72-.59-7.87-2.47-15.63-4.25-23.42a.67.67 0 00-.61-.52q-16.26-.79-34.74-.47c-15 .25-31.4-.4-46.07-.4-30.93-.02-62.06-.02-92.93-1.93-3.88-.24-3.3 6.26-3.75 9.09q-2.97 18.94-7.03 37.68c-.46 2.13-.83 4.08-1.94 6.04q-8.36 14.75-16.39 29.68c-1.39 2.58-3.49 8.04-5.69 10.36-5.2 5.51-8.9 12.85-12.46 17.86-14.1 19.83-22.34 30.73-31.23 48.1-1.8 3.49-4.78 6.21-6.8 9.79-3.53 6.22-7.36 11.92-10.56 18.33-2.26 4.53-6.38 10.99-9.86 14.76-3.67 3.99-6.2 9.32-8.96 13.05-3.62 4.89-6.9 10-10.89 14.46q-7.52 8.41-15.11 16.75c-2.08 2.29.34 3.17 1.66 4.26q11.41 9.42 22.21 19.53c15.32 14.34 33.18 25.53 49.1 39.1q3.65 3.11 7.24 4.95a.72.72 0 00.82-.12q2.17-2.01 2.67-3.05c4.48-9.32 11.65-19.54 15.55-26.37 5.44-9.5 10.18-19.17 16.57-28.32q10.06-14.4 17.75-30.18c6.23-12.79 14.9-23.64 20.45-36.43q2.75-6.35 5.5-11.47c4.52-8.45 6.62-14.59 10.35-21.45 4.78-8.78 8.54-18.03 14.28-26.23q1.83-2.62 3.41-6.02c2.62-5.63 8.51-16.41 13.6-20a1.54 1.51 27.2 01.87-.27h11.47a.72.72 0 01.67.46q14.59 38.49 24.36 70.97c2.02 6.72 4.69 12.29 6.03 18.57q1.36 6.38 4.96 11.9c13.82 21.18 32.14 38.63 48.13 58.11q18.4 22.4 36.12 45.03a2.31 2.3 81.6 00.98.73M470.69 518.81c7.07 4.45 18.75 4.68 26.69 2.7q14.48-3.62 25.04-13.09c25.32-22.71 39.2-58.58 38.27-92.6-.36-13.06-8.79-27.51-24.1-24.59-9.07 1.73-13.5 9.65-18.27 16.28q-2.63 3.66-4.72 8.55c-5.11 11.94-10.27 24.29-17.54 31.98-4.76 5.04-8.28 9.46-12.16 14.56a1.05 1.05 0 01-1.54.15c-2.64-2.38-4.05-5.92-6.52-8.3a1.54 1.53 38.1 00-2.36.28q-4.53 7.13-6.36 14.86c-.29 1.23-.75 2.09-1.25 3.21a.98.97 43.2 00.03.83l2.89 5.59a1.39 1.36-51.4 01.1 1.01c-.8 2.78-1.07 5.71-1.84 8.38-2.19 7.67-5.04 24.75 3.64 30.2M50.56 426.3c8.6 11.33 18.63 19.64 29.33 28.5 8.07 6.69 18.28 12.91 27.3 19.69q7.59 5.7 13.48 9.5c14.26 9.21 27.02 18.15 43.44 25.86 2.31 1.08 5.3 1.55 6.62-.89q2.94-5.45 3.54-13.72a.77.77 0 00-.41-.73q-12.67-6.63-21.54-12.08c-1.53-.94-3.41-2.56-5.28-3.67q-11.49-6.77-21.92-15.19a1.38 1.36 14.9 01-.48-.81c-.87-4.51-.9-9.87-1.48-13.48q-2.52-15.57-10.67-29.06c-4.57-7.56-12.09-8.1-20.17-7.44-5.22.43-25.4 2.52-28.92-.01a1.16 1.15 56.8 00-.9-.19c-5.37 1.13-9.39 7.28-12.04 11.46a1.98 1.97 42.6 00.1 2.26"/><path stroke="#59595a" vector-effect="non-scaling-stroke" d="M265.42 262.52a.26.26 0 01-.2-.47q9.84-5.74 18.45-12.16c10.21-7.6 21.35-16.36 34.04-20.8a.99.97-2.1 00.61-.64c.81-2.76 1.57-5.77-.22-8.15a1.12 1.11-15.7 00-.81-.45c-9.98-.79-18.09.77-27.53 2.05a.35.35 0 01-.17-.67q5.48-2.13 11.34-4.55c3.3-1.36 6.26-1.36 9.71-1.5q.55-.02.12-.36-8.22-6.26-3.16-15.75a1.51 1.5-53.3 00-.25-1.75q-3.15-3.23-6.42-6.71c-7.51-7.99-1.95-21.81-1.13-31.48q.86-10.19 1.94-20.35a.48.48 0 00-.48-.53h-18.05a1.28 1.28 0 00-.88.35c-6.27 6.02-3.63 13.07-1.25 20.89q.15.49-.33.32c-7.59-2.63-7.52-15.55-3.93-21.08a.62.62 0 00-.44-.95c-2.45-.32-6.01 4.01-6.96 5.76-2.05 3.74.44 9.83 2.19 13.38a.5.5 0 01-.73.64c-6.41-4.32-9.09-14.25-2.04-19.6q.53-.41-.13-.47l-5.51-.49a.61.61 0 00-.67.55q-1.15 11.61-3.93 22.93c-2.98 12.18-3.76 24.31-10.89 35.03-4.43 6.67-7.36 12.49-11.07 18.83-1.12 1.9-1.9 4.74-3.37 6.76-.92 1.28-6.45 10.23-6.29 10.91a.52.52 0 00.49.4l3.99.1a1.01 1.01 0 00.77-.33l2.38-2.71a.94.93-54.6 011.15-.2l1.65.91a.59.59 0 01.2.86l-1.47 2.12q-.67.97.51 1.04l2.74.16a.98.96 19.5 00.84-.39l1.83-2.54a.69.69 0 011-.13l1.44 1.19a.83.83 0 01.14 1.14l-1.14 1.55a.53.52-60.7 00.22.8l3.21 1.31a.61.61 0 01.28.9l-1.95 3.01a1.02 1.02 0 00.72 1.57c2.24.29 4.37-.11 4.07 3.24a1.08 1.07-79.8 01-1.36.95l-4.68-1.31a.92.91-65.3 00-1.01.38l-1.85 2.81a.43.43 0 00.28.66q2.8.55 4.92 2.41a1.23 1.19-71.2 01.41.87c.14 3.31-4.52.72-5.82.19a1.22 1.17-46.2 00-.96.04q-2.44 1.19-3.27 3.91a.72.72 0 00.34.84l4.83 2.63a.84.84 0 01.42.91l-.24 1.17a.8.79 8.4 01-.86.63q-3.28-.33-5.92-2.25a.58.57-57.3 00-.84.19l-2.21 3.97a.51.51 0 00.29.74l4.03 1.26a1.57 1.56 6.7 011.09 1.37c.28 3.67-6.37.76-8.02.38a.74.74 0 00-.83.39l-2.49 5.01a.43.43 0 00.32.62q2.91.4 4.88 2.61a1.03 1.01-61.4 01.25.87q-.25 1.33-1.49 1.88a.83.82 54.8 01-.9-.16q-2.33-2.21-5.8-1.89a1.05 1.04 12.5 00-.8.5q-3.77 6.16-10.24 1.98a.62.61 38.8 00-.77.08c-1.45 1.46-3.71 6-6.37 4.63a.85.84 22.6 01-.42-1.01l1.1-3.56a1.08 1.07 15.1 00-.8-1.37q-4.86-1.08-9.73-.2a1.31 1.31 0 00-.88.59q-8.89 13.9-17.71 27.84c-1.87 2.96-4.71 6.71-6.45 10.68-1.74 3.96-4.65 6.82-6.5 10.77-2.49 5.33-6 9.27-9.58 13.65-5.57 6.84-9.5 14.96-15 21.37q-5.88 6.85-12.68 13.03a.81.8 45.4 000 1.18c13.63 12.61 27.2 25.16 42.36 36.37q14.61 10.8 28.54 22.59a.61.61 0 00.92-.15l9.49-15.67a.96.95 43.1 00-.04-1.04l-2.46-3.42a.59.58 46.1 00-.94-.02l-2.55 3.26a.97.97 0 01-.89.37q-1.78-.23-2.84-1.67a.73.73 0 01.09-.98l4.23-3.94a.55.55 0 00.01-.8l-4.87-4.71a.46.46 0 00-.63-.01l-4.76 4.31a.87.86 45.7 01-1.19-.02l-1.72-1.65a.81.8-41.5 01.08-1.22l4.75-3.56a.82.82 0 00.09-1.24l-4.72-4.73a.49.49 0 00-.77.09q-1.87 3.16-5.04 4.89c-1.72.93-2.63-.94-1.77-2.34q1.48-2.4 3.59-4.4a.61.61 0 00.09-.77c-1.43-2.18-5.13-5.16-5.25-8.08a1.49 1.46-27.4 01.32-.97l4.53-5.71a.81.81 0 00-.47-1.3q-3.2-.67-2.55-3.81a.7.69 6.6 01.69-.54q3.12.06 5.44 2.15a.61.61 0 00.81.02l5.52-4.61a.78.78 0 00-.07-1.25c-1.23-.83-4.98-3.22-3.96-5.14q1.04-2 2.79-.57l3.65 2.98a.69.69 0 00.91-.02l3.64-3.33a.62.61 46.6 00.02-.89c-.88-.88-6.34-4-2.71-5.34q3.06-1.13 5.15 1.62a.53.53 0 00.87-.04l1.85-3.01a.59.58 26.7 00-.29-.86q-2.9-1.11-2.87-4.32a.69.69 0 01.6-.67q3.35-.42 5.31 2.2a.65.65 0 00.96.09l5.03-4.61a.59.58 51.5 00.08-.76l-2.06-2.96a1.28 1.28 0 01.82-1.99q2.94-.52 3.7 2.23a.4.4 0 00.61.23l7.45-5.12a.96.95 43.6 011.04-.02q3.36 2.08 6.51 4.51 1.56 1.21 2.5-.36a.72.7-66.5 01.78-.32q1.4.37 1.81 1.74a.97.94 51.4 01-.07.74l-.82 1.54a.76.75-55.8 00.17.93q3.49 2.99 5.91 6.9a.43.43 0 00.73-.01q8.56-14.01 16.46-28.18c5.35-9.59 10.56-21.71 16.32-32.36q2.99-5.54 5.35-11.51c5.35-13.53 13.35-24.73 20.69-36.82q.27-.43-.2-.24-6.11 2.48-12.22 4.84c-8.26 3.19-17.22 5.33-25.84 7.73"/><path stroke="#59595a" vector-effect="non-scaling-stroke" d="M306.29 138.69c-.31 9.5-1.01 19.62-2.58 28.99-1.42 8.46-4.23 15.84 3.38 22.57a.25.25 0 00.42-.22q-.48-3.24.04-6.43 3.2-19.33 6.46-38.65c.32-1.85.29-3.95.44-5.88a.49.48-87.1 00-.46-.52l-7.18-.34a.5.5 0 00-.52.48"/><path stroke="#8d8e80" vector-effect="non-scaling-stroke" d="M476 355.04q1.62-.84 1.1-2.34a1.01.98-86.3 00-.47-.55l-.38-.19"/><path stroke="#59595a" vector-effect="non-scaling-stroke" d="M476.25 351.96q-2.08-2.08-.74-4.36a.85.85 0 01.9-.4q1.54.34 2.31 1.79 1.03 1.95 1.66-.16l1.56-5.14a1.12 1.11-60.5 00-.31-1.14L465.6 328q-.48-.43-.56.21-1.14 8.6-2.24 17.2c-.57 4.4-.53 11.57-2.08 17.36q-.13.49-.28.01c-1.46-4.59-3.55-8.95-4.56-13.31q-4.78-20.49-2.05-41.45.27-2.03-1.06-5.88a1.4 1.38 3.4 00-.71-.79l-5.87-2.83a.86.86 0 00-1.23.83q.5 7.98-1.72 15.67-.25.88-.31-.03c-.58-9.81-2.61-19.27-3.67-28.89q-.64-5.84-1.63-11.69a.89.88-22.5 00-1.39-.57l-.79.57a1.06 1.04-19 00-.44.89c.06 1.38 1.17 7.17-1.42 6.92a1.13 1.13 0 01-1-.91l-1.15-5.8a.71.7-7.4 00-.74-.56l-4.7.33a.49.48 80.2 00-.43.62l1.18 4.06a1.72 1.71 73.8 01-1.16 2.12c-3.09.91-3.23-3.67-3.64-5.52a.78.77-7.2 00-.78-.6l-4.32.14a.53.53 0 00-.51.54q.03 2.04.94 3.82a1.75 1.74 35.6 01.17 1.01c-.19 1.32-.74 4.58-2.98 2.99a1.23 1.22 12.3 01-.51-.79l-1.09-5.88a.66.65 84.3 00-.65-.54l-5.47.01a1.11 1.11 0 01-.92-.49q-1.19-1.72-1.04-3.99a2.35 2.34-86.9 00-2.24-2.5l-4.95-.21a.83.83 0 01-.79-.9l.2-2.21a.56.55-85.3 01.59-.51l5.04.36a.61.61 0 00.64-.71l-1.06-6.13a.63.62 82.9 00-.66-.52l-5.68.36a1.03 1.03 0 01-.81-.32q-1.28-1.33-.06-3.18a1.09 1.06 13.4 01.8-.48l4.85-.46a.82.81-11.2 00.7-1.04l-1.45-4.78a.56.56 0 00-.66-.39c-2 .39-9.57 1.59-9-2.28a1.95 1.94 7.6 012.16-1.65l4.28.52a.62.6-81.2 00.68-.51l1.2-7.1a.51.5-83 00-.45-.58l-6.94-.57a.75.75 0 01-.66-.96l.44-1.45a1.31 1.31 0 011.25-.93l5.99-.04a.56.56 0 00.55-.56v-5.93a.6.59 87.4 01.54-.6l3.69-.39a.81.81 0 00.72-.93l-1-6.25a.74.73 77.5 01.52-.82l2.12-.61a.76.75 75.3 01.95.56l1.6 7.15a.49.48-11.2 00.56.37l3.93-.76a.73.73 0 00.6-.72l.02-7.27a1.56 1.56 0 011.99-1.49l.85.24a.7.7 0 01.51.66l.08 6.31a.66.66 0 00.71.65l3.48-.25a.77.75-86.5 00.69-.62c.33-1.78-.81-6.55 1.03-7.02a1.4 1.39-10 011.74 1.21l.53 5.55a.17.17 0 00.16.16l.3.02a.38.38 0 00.41-.36q.41-7.7-.4-15.39a.87.86 8.7 00-.53-.71c-20.2-8.29-29.59-21.34-32.38-42.84-.92-7.09.01-15.33.25-22.92a.55.55 0 00-.53-.56l-28.62-.93a1.41 1.4-89.2 00-1.45 1.42q.1 11.7-1.81 23.24-.09.56-.38.08c-3.12-5.27-2.42-17.7-2.14-23.89a.62.62 0 00-.59-.65l-6.07-.31a.9.89 88.3 00-.93.99q1.29 11.56-.34 23.08-.28 1.98-.89.08-.82-2.54-1.18-6.35-.79-8.47-1.26-16.97a.45.45 0 00-.5-.42q-12.67 1.4-25.32-.22a.63.62 8 00-.7.52c-1.9 12.19-3.48 23.84-5.87 36.44q-2.13 11.19-1.25 22.66.04.49-.17.94c-1.03 2.27-3.27 7.02-1.06 9.18 3.48 3.42 8.08 7.27 13.1 7.24q8.25-.04 16.02 2.8.5.18 1.03.09.96-.15 1.74.34.91.59-.17.57c-6.44-.13-12.66.74-19.17.43a.46.45-1.6 00-.48.5q.41 4.18-.36 8.3a.36.35 3.8 00.37.41q6.89-.4 13.63 1.08a1.15 1.15 0 01.8.64c3.33 7.33 5.66 16.73 7.67 22.47q6.81 19.41 13.64 38.81.57 1.63 1.24 2.72a.36.35 53.2 00.54.09l3.74-3.33a.66.65 46 01.89.02l2.64 2.52a.45.45 0 00.73-.17q1.17-3.02 4.59-2.04a.68.67-81.4 01.49.68q-.11 2.58-1.7 4.64a.55.54-50.4 00.06.73l2.68 2.5a.58.57-44.6 00.79 0c1.39-1.27 5-2.44 4.82.87a1.22 1.22 0 01-.45.88l-1.84 1.52a.51.5-42 00-.04.74l6.67 6.85a1.1 1.1 0 01-.01 1.54l-4.13 4.18a1.38 1.38 0 00-.01 1.93q2.27 2.35 2.69 5.56a.66.65-11.5 01-.48.72c-2.33.66-3.4-1.29-4.77-2.71a.57.57 0 00-.75-.06c-3.15 2.34-.61 5.19 1.22 7.11a.92.91 30.1 01.22.81q-.36 1.56-1.82 1.66a1.1 1.08 64.8 01-.86-.32l-1.37-1.36a.92.91-29.1 00-.86-.24c-3.86.91 4.61 11.37 5.95 13.12q14 18.25 28.96 33.52 7.67 7.83 16.7 20.56a.94.94 0 00.77.4q4.1-.03 7.32-2.55a.61.61 0 00.05-.92l-1.31-1.32a.76.74-54.2 01-.13-.87c1.34-2.59 4.29-1.05 5.41.96a.61.61 0 00.81.26l5.17-2.55a.75.74 58.2 00.26-1.12l-1.98-2.6a.59.59 0 01.07-.78l1.35-1.26a.81.8-45.8 011.09-.02l2.54 2.26a.76.76 0 00.93.06l3.71-2.46a.58.58 0 00.19-.75l-1.83-3.49a.65.64 66.8 01.36-.92l2.08-.71a.9.9 0 011.11.48l.99 2.19a.73.72 52.8 001.22.17l3.11-3.71a.51.51 0 00-.23-.81q-3.32-1.1-2.07-4.44a.74.72 7.7 01.65-.48q2.93-.15 3.94 2.64a.52.51-33 00.86.18l3.09-3.28a.47.47 0 00-.04-.68l-2.89-2.41a.88.87 30.4 01-.26-.98q.8-2.12 2.9-2.16a.97.97 0 01.76.37l1.34 1.78a.61.61 0 001.02-.07l2.85-5.02a.64.63 30.3 00-.23-.86l-1.89-1.1a1.69 1.64-87 01-.71-.81q-.67-1.63.3-3.18a.69.69 0 01.95-.21l3.65 2.29a.47.47 0 00.63-.14l2.38-3.64"/><path stroke="#c6c9bc" vector-effect="non-scaling-stroke" d="M476.25 351.96q-1.49 1.49-.25 3.08"/><path stroke="#59595a" vector-effect="non-scaling-stroke" d="M429.45 203.63q1.03 8.9.71 17.85a.53.53 0 00.58.55l2.07-.2a.61.61 0 00.55-.58c1.37-30.57 1.92-53.36-2.65-80.67a.69.69 0 00-.59-.58l-4.04-.58a.41.4 84.3 00-.44.54q2.86 7.64 2.72 10.05-.28 5-.66 10.28a.45.45 0 01-.87.1c-2.18-6.63-3.02-13.42-4.62-20.14a1.78 1.77 85.2 00-1.62-1.37q-11.41-.67-22.81-.23a.6.59-89.4 00-.57.57c-.46 8.08-1.69 16.54-.64 24.14.88 6.43 2.25 13.52 5.56 19.02q9.15 15.19 26.77 20.6a.79.77 5.3 01.55.65M475 365.96q-.1-.28-.31-.44a.46.46 0 00-.65.09l-3.52 4.61a.76.76 0 00-.11.72q.44 1.28 1.5 2.18c2.63 2.26-.36 5.43-3.17 1.87a1.01 1 43.7 00-1.6.03l-2.21 3.07a.52.52 0 00.18.77c1.97.99 3.64 3.77.66 4.7a1.09 1.09 0 01-1-.19l-2.86-2.3a.53.53 0 00-.77.11l-2.72 3.82a.59.58 39.1 00.08.77c4.23 3.88-1.46 5.16-2.69 2.82a1.16 1.15-26.9 00-1.53-.49q-3.97 1.95-2.46 4.53a1.43 1.39-55.2 01.16.97q-.4 2.09-2.73 1.57-.49-.11-.86-.44l-1.45-1.29a.74.73-41.1 00-.91-.06l-4.63 3.09q-.74.5.11.75 1.28.38 1.2 1.91a.76.75-9.6 01-.48.67q-2.95 1.24-5.03-.95a.82.81 57.4 00-.89-.2l-5.81 2.26a.57.56 61.6 00-.25.86c8.14 11.25 17.34 21.65 25.74 32.66a1.98 1.97-23 001.87.75c18.63-2.93 36.38-16.13 46.2-32.37q7.23-11.97 12.22-29.8a1.43 1.39-49.3 00-.06-.95q-.91-2.14-2.51-3.53-10.45-9.13-25.36-21.39-.62-.51-2.64-1.65a.36.36 0 00-.52.21l-1.91 5.9a1.15 1.14 32.1 00.27 1.16q1.93 1.95-.06 3.63a.82.81-51 01-.9.1l-1.94-1.01a.71.71 0 00-.97.32l-2.77 5.72a.92.91-53.3 00.14 1l1.76 1.99a1.01 1-56.8 01.2.98l-.35 1.1a.77.77 0 01-.92.51l-2.04-.52a1.01.98-2.6 01-.7-.62M212.72 364.36l-2.22-1.06a.71.7-54.3 00-.81.14l-2.37 2.37a.59.58 46.8 00-.02.81c1.25 1.34 3.16 3.46.85 4.64a1.07 1.05 46.6 01-1.05-.04l-2.15-1.32a.45.45 0 00-.59.12l-2.37 3.16a1.12 1.12 0 00.41 1.68q2.74 1.31.49 3.53a1.54 1.54 0 01-1.96.17l-2.27-1.6a.75.75 0 00-.97.08l-5.08 5.1a.49.49 0 00.05.73l2.58 1.98a.77.75-59.7 01.23.92c-1.33 2.92-4.03.96-5.85-.56a.6.59-48.6 00-.82.06l-4.25 4.55a.72.72 0 00.09 1.06l4.37 3.32a.7.69-46.1 00.87-.02l1.9-1.61a1.24 1.2-61.7 01.91-.29c3.61.29 1.63 3.59.14 4.9a.49.49 0 00-.01.73l3.66 3.37a.57.57 0 00.81-.04c1.2-1.32 3.61-4.32 5.13-1.18a1.41 1.38-41 01-.11 1.41l-2.3 3.34a.6.59 34.9 00.15.82l3.34 2.37a1.76 1.74 7.4 01.63.81l.28.73q.2.54.53.06c1.17-1.72 4.3-3.44 5.27-.71a1.03 1.02-33.9 01-.21 1.04l-2.53 2.81a.58.58 0 00.01.78l2.26 2.39a.93.93 0 001.43-.09c5.27-7.24 8.06-15.29 13.49-22.3 3.84-4.96 6.59-10.59 9.45-16.11 2.36-4.57 6.06-9.1 8.49-14.16a.8.8 0 00-.14-.9l-7.63-8.11a.48.48 0 00-.76.07c-.89 1.4-3.83 4.43-5.08 1.55a1.12 1.11 48.3 01.05-.97q.89-1.54 2.4-2.6a.64.63 51.7 00.11-.95l-3.76-4.18a.69.68 47.7 00-.96-.05l-4.77 4.28a.78.77 52 00-.12 1.01l1.67 2.46a1.06 1.06 0 01-.85 1.66q-2.22.07-3.54-1.71a.64.63-39.1 00-.93-.09l-5.08 4.56a.72.72 0 00.01 1.08l1.14.98a1.27 1.26 19 01.43.88q.08 1.27-1.01 2.05a1.05 1.03-49.2 01-1.06.09M535.71 471.75q-3.7 7.38-9.5 13.25"/><path stroke="#908f8f" vector-effect="non-scaling-stroke" d="M526.21 485l-.22.13a.4.4 0 01-.42 0c-11.68-6.98-29.53-7.67-40.11 1.6q-8.95 7.84-6.34 19.54c.56 2.51.78 4.38-.95 6.09a1.65 1.64-36.9 01-2.59-.36c-2.89-5.19-2.69-10.78-1.89-17.18q.19-1.5-1.44-4.41-.25-.45-.38.05c-1.4 5.47-3.36 16.63.13 21.36 4.39 5.94 16.51 5.69 22.53 4.65"/><path stroke="#59595a" vector-effect="non-scaling-stroke" d="M494.53 516.47c18.83-4.35 35.99-20.51 43.21-36.53q.92-2.03 3.03-5.03 2.65-3.76 4.96-9.62c7.2-18.24 11.63-37.49 8.26-56q-1.3-7.18-7.55-11.26"/><path stroke="#908f8f" vector-effect="non-scaling-stroke" d="M546.44 398.03q-8.95-3.57-15.88 2.19c-3.47 2.89-7.68 9.26-9.78 13.33-5.01 9.69-10.14 19.26-14.84 29.1q-3.23 6.76-7.99 11.8-2.63 2.8-3.87 4.61-.29.42.2.27c14.86-4.52 28.02-1.92 41.34 5.6 2.5 1.42.95 4.86.09 6.82"/><path stroke="#c9cacb" vector-effect="non-scaling-stroke" d="M546.44 398.03q3.79 11.54 3 23.46-.85 13.05-4.11 25.69c-1.67 6.47-6.29 12.05-7.14 18.6-.06.47-.98 7.76-2.48 5.97M494.53 516.47q-.1-1.59-2.53-1.27c-3.14.42-9.7.89-13.16-1.4a.62.62 0 01.26-1.13c5.92-.8 12.37-1.36 17.72-3.27 10.95-3.93 24.8-13.04 29.67-23.44q.22-.47-.28-.96"/><path stroke="#59595a" vector-effect="non-scaling-stroke" d="M481.68 471.12l-5.98-8.15a.6.59-48.8 00-1 .07q-2.45 4.41-3.22 9.44a.81.78 22.3 00.34.78c2.83 1.99 5.37 11.28 5.87 13.03q.14.47.44.09c9.61-12.19 26.1-14.6 40.66-10.54 2.34.65 4.28 1.89 6.44 3.07a.64.64 0 00.85-.22l5.51-8.73a.62.62 0 00-.22-.87q-16.5-9.31-34.43-4.58c-5.1 1.35-9.66 4.11-14.36 6.8a.69.68-32.8 01-.9-.19"/><path stroke="#8d8e80" vector-effect="non-scaling-stroke" d="M109.25 443.79c.54 3.41.21 9.58 3.4 11.45"/><path stroke="#59595a" vector-effect="non-scaling-stroke" d="M112.65 455.24q.99 2.01 3.17 2.32a1.34 1.34 0 01.75.39l.74.76q.81.85.81-.33-.07-19.14-10.5-34.71c-3.24-4.84-7.08-6.45-12.66-5.1q-.48.12-.08.42c8.74 6.4 11.28 14.75 14.37 24.8"/><path stroke="#c6c9bc" vector-effect="non-scaling-stroke" d="M112.65 455.24q-1.1-3.95-1.89-10.74-.14-1.19-1.51-.71"/><path stroke="#8d8e80" vector-effect="non-scaling-stroke" d="M71.67 420.58q6.65 6.29 12.97 12.12c5.32 4.91 12.75 10.13 18.68 15.88a.43.43 0 00.72-.37c-1.79-13.99-8.25-27.5-24.31-28.41q-4.31-.25-7.45-.56-2.27-.22-.61 1.34"/><path stroke="#59595a" vector-effect="non-scaling-stroke" d="M66.44 435.56q13.66 12.46 25.17 21.07 3.82 2.86 15 11.06c8.76 6.44 18.19 11.97 26.94 18.2 8.86 6.31 17.67 12.29 27.95 16.1q1.74.65 4.18 2.09a.63.63 0 00.84-.18q1.88-2.71 2.28-5.99a.71.71 0 00-.43-.75q-10.05-4.21-14.32-7.2c-8.26-5.77-16.23-9.91-25.14-16.6-10.09-7.56-22.58-14.14-30.99-21.79q-6.81-6.2-11.61-9.78c-7.29-5.43-13.25-12.58-20.52-18.28-1.46-1.14-2.36-2.45-3.4-3.93a.67.67 0 00-.88-.2q-2.9 1.64-4.32 4.64a1.15 1.13 42.4 00.06 1.06q2.82 4.68 9.19 10.48"/><path stroke="#fdfef0" vector-effect="non-scaling-stroke" d="M589.94 591l-.19-.71"/><path stroke="#8d8e80" vector-effect="non-scaling-stroke" d="M588.19 591q-2.63-.63-5.25 0M12.44 591q-5.63-.63-11.25 0"/></g><path d="M0 0h590.06l.19.29.04 589.46-.54.54-588.93-.23a.34.34 0 00-.32.47l.19.47H0V0zm586.25 4.51a.26.26 0 00-.26-.26H4.51a.26.26 0 00-.26.26v581.48a.26.26 0 00.26.26h581.48a.26.26 0 00.26-.26V4.51z"/><path fill="#201e1e" d="M590.06 0h.94v587.31c-.84-.45-.25-537.06-.25-586.81a.25.24-86.1 00-.21-.25q-.17-.02-.29.04l-.19-.29z"/><path fill="#fafde1" d="M590.25.29q.12-.06.29-.04a.25.24-86.1 01.21.25c0 49.75-.59 586.36.25 586.81v2.75l-.71-.31L590.25.29zM586.25 585.99a.26.26 0 01-.26.26H4.51a.26.26 0 01-.26-.26V4.51a.26.26 0 01.26-.26h581.48a.26.26 0 01.26.26v581.48zM38.44 56.44q-1.25 22.52 0 45.16a.91.91 0 001.18.81q.44-.13 1.06-.73 30.35-29.15 59.76-59.6a1.04 1.04 0 00-.73-1.76q-21.6-.47-43.63 1.02c-8.07.54-17.15 6.15-17.64 15.1zm383.8 61.79l.01.77a.57.57 0 00.51.56c.82.07.54-1.52.18-1.73q-.71-.42-.7.4zm31.84 322.54c4.74 1.89 19.84-3.82 23.6-5.83 14.62-7.82 28.03-20.54 34.61-34.92q5.75-12.59 10.38-27.76c.71-2.33.24-3.26-1.45-4.75q-4.91-4.34-9.84-8.66c-11.43-10.02-23.53-18.48-34.75-29.14q-8.2-7.78-17.06-14.85a1.12 1.12 0 01-.42-.81c-.28-4.16.42-9.4-.94-12.81-2.32-5.8-6.99-6.95-12.28-8.79a.78.76 7.8 01-.51-.66c-.27-3.81-.9-7.74-1.07-11.4-.54-12.26-.62-25.42-5.76-34.43-1.22-2.15.78-5.85 1.48-7.99 1.44-4.37.5-11.77.08-16.39-1.93-21.53.05-42.7-1.55-63.72-.59-7.87-2.47-15.63-4.25-23.42a.67.67 0 00-.61-.52q-16.26-.79-34.74-.47c-15 .25-31.4-.4-46.07-.4-30.93-.02-62.06-.02-92.93-1.93-3.88-.24-3.3 6.26-3.75 9.09q-2.97 18.94-7.03 37.68c-.46 2.13-.83 4.08-1.94 6.04q-8.36 14.75-16.39 29.68c-1.39 2.58-3.49 8.04-5.69 10.36-5.2 5.51-8.9 12.85-12.46 17.86-14.1 19.83-22.34 30.73-31.23 48.1-1.8 3.49-4.78 6.21-6.8 9.79-3.53 6.22-7.36 11.92-10.56 18.33-2.26 4.53-6.38 10.99-9.86 14.76-3.67 3.99-6.2 9.32-8.96 13.05-3.62 4.89-6.9 10-10.89 14.46q-7.52 8.41-15.11 16.75c-2.08 2.29.34 3.17 1.66 4.26q11.41 9.42 22.21 19.53c15.32 14.34 33.18 25.53 49.1 39.1q3.65 3.11 7.24 4.95a.72.72 0 00.82-.12q2.17-2.01 2.67-3.05c4.48-9.32 11.65-19.54 15.55-26.37 5.44-9.5 10.18-19.17 16.57-28.32q10.06-14.4 17.75-30.18c6.23-12.79 14.9-23.64 20.45-36.43q2.75-6.35 5.5-11.47c4.52-8.45 6.62-14.59 10.35-21.45 4.78-8.78 8.54-18.03 14.28-26.23q1.83-2.62 3.41-6.02c2.62-5.63 8.51-16.41 13.6-20a1.54 1.51 27.2 01.87-.27h11.47a.72.72 0 01.67.46q14.59 38.49 24.36 70.97c2.02 6.72 4.69 12.29 6.03 18.57q1.36 6.38 4.96 11.9c13.82 21.18 32.14 38.63 48.13 58.11q18.4 22.4 36.12 45.03a2.31 2.3 81.6 00.98.73zm16.61 78.04c7.07 4.45 18.75 4.68 26.69 2.7q14.48-3.62 25.04-13.09c25.32-22.71 39.2-58.58 38.27-92.6-.36-13.06-8.79-27.51-24.1-24.59-9.07 1.73-13.5 9.65-18.27 16.28q-2.63 3.66-4.72 8.55c-5.11 11.94-10.27 24.29-17.54 31.98-4.76 5.04-8.28 9.46-12.16 14.56a1.05 1.05 0 01-1.54.15c-2.64-2.38-4.05-5.92-6.52-8.3a1.54 1.53 38.1 00-2.36.28q-4.53 7.13-6.36 14.86c-.29 1.23-.75 2.09-1.25 3.21a.98.97 43.2 00.03.83l2.89 5.59a1.39 1.36-51.4 01.1 1.01c-.8 2.78-1.07 5.71-1.84 8.38-2.19 7.67-5.04 24.75 3.64 30.2zM50.56 426.3c8.6 11.33 18.63 19.64 29.33 28.5 8.07 6.69 18.28 12.91 27.3 19.69q7.59 5.7 13.48 9.5c14.26 9.21 27.02 18.15 43.44 25.86 2.31 1.08 5.3 1.55 6.62-.89q2.94-5.45 3.54-13.72a.77.77 0 00-.41-.73q-12.67-6.63-21.54-12.08c-1.53-.94-3.41-2.56-5.28-3.67q-11.49-6.77-21.92-15.19a1.38 1.36 14.9 01-.48-.81c-.87-4.51-.9-9.87-1.48-13.48q-2.52-15.57-10.67-29.06c-4.57-7.56-12.09-8.1-20.17-7.44-5.22.43-25.4 2.52-28.92-.01a1.16 1.15 56.8 00-.9-.19c-5.37 1.13-9.39 7.28-12.04 11.46a1.98 1.97 42.6 00.1 2.26z"/><path fill="#f9e6af" d="M38.44 56.44c.49-8.95 9.57-14.56 17.64-15.1q22.03-1.49 43.63-1.02a1.04 1.04 0 01.73 1.76q-29.41 30.45-59.76 59.6-.62.6-1.06.73a.91.91 0 01-1.18-.81q-1.25-22.64 0-45.16z"/><path fill="#929496" d="M422.94 117.83c.36.21.64 1.8-.18 1.73a.57.57 0 01-.51-.56l-.01-.77q-.01-.82.7-.4z"/><path fill="#201e1e" d="M454.08 440.77a2.31 2.3 81.6 01-.98-.73q-17.72-22.63-36.12-45.03c-15.99-19.48-34.31-36.93-48.13-58.11q-3.6-5.52-4.96-11.9c-1.34-6.28-4.01-11.85-6.03-18.57q-9.77-32.48-24.36-70.97a.72.72 0 00-.67-.46h-11.47a1.54 1.51 27.2 00-.87.27c-5.09 3.59-10.98 14.37-13.6 20q-1.58 3.4-3.41 6.02c-5.74 8.2-9.5 17.45-14.28 26.23-3.73 6.86-5.83 13-10.35 21.45q-2.75 5.12-5.5 11.47c-5.55 12.79-14.22 23.64-20.45 36.43q-7.69 15.78-17.75 30.18c-6.39 9.15-11.13 18.82-16.57 28.32-3.9 6.83-11.07 17.05-15.55 26.37q-.5 1.04-2.67 3.05a.72.72 0 01-.82.12q-3.59-1.84-7.24-4.95c-15.92-13.57-33.78-24.76-49.1-39.1q-10.8-10.11-22.21-19.53c-1.32-1.09-3.74-1.97-1.66-4.26q7.59-8.34 15.11-16.75c3.99-4.46 7.27-9.57 10.89-14.46 2.76-3.73 5.29-9.06 8.96-13.05 3.48-3.77 7.6-10.23 9.86-14.76 3.2-6.41 7.03-12.11 10.56-18.33 2.02-3.58 5-6.3 6.8-9.79 8.89-17.37 17.13-28.27 31.23-48.1 3.56-5.01 7.26-12.35 12.46-17.86 2.2-2.32 4.3-7.78 5.69-10.36q8.03-14.93 16.39-29.68c1.11-1.96 1.48-3.91 1.94-6.04q4.06-18.74 7.03-37.68c.45-2.83-.13-9.33 3.75-9.09 30.87 1.91 62 1.91 92.93 1.93 14.67 0 31.07.65 46.07.4q18.48-.32 34.74.47a.67.67 0 01.61.52c1.78 7.79 3.66 15.55 4.25 23.42 1.6 21.02-.38 42.19 1.55 63.72.42 4.62 1.36 12.02-.08 16.39-.7 2.14-2.7 5.84-1.48 7.99 5.14 9.01 5.22 22.17 5.76 34.43.17 3.66.8 7.59 1.07 11.4a.78.76 7.8 00.51.66c5.29 1.84 9.96 2.99 12.28 8.79 1.36 3.41.66 8.65.94 12.81a1.12 1.12 0 00.42.81q8.86 7.07 17.06 14.85c11.22 10.66 23.32 19.12 34.75 29.14q4.93 4.32 9.84 8.66c1.69 1.49 2.16 2.42 1.45 4.75q-4.63 15.17-10.38 27.76c-6.58 14.38-19.99 27.1-34.61 34.92-3.76 2.01-18.86 7.72-23.6 5.83zM265.42 262.52a.26.26 0 01-.2-.47q9.84-5.74 18.45-12.16c10.21-7.6 21.35-16.36 34.04-20.8a.99.97-2.1 00.61-.64c.81-2.76 1.57-5.77-.22-8.15a1.12 1.11-15.7 00-.81-.45c-9.98-.79-18.09.77-27.53 2.05a.35.35 0 01-.17-.67q5.48-2.13 11.34-4.55c3.3-1.36 6.26-1.36 9.71-1.5q.55-.02.12-.36-8.22-6.26-3.16-15.75a1.51 1.5-53.3 00-.25-1.75q-3.15-3.23-6.42-6.71c-7.51-7.99-1.95-21.81-1.13-31.48q.86-10.19 1.94-20.35a.48.48 0 00-.48-.53h-18.05a1.28 1.28 0 00-.88.35c-6.27 6.02-3.63 13.07-1.25 20.89q.15.49-.33.32c-7.59-2.63-7.52-15.55-3.93-21.08a.62.62 0 00-.44-.95c-2.45-.32-6.01 4.01-6.96 5.76-2.05 3.74.44 9.83 2.19 13.38a.5.5 0 01-.73.64c-6.41-4.32-9.09-14.25-2.04-19.6q.53-.41-.13-.47l-5.51-.49a.61.61 0 00-.67.55q-1.15 11.61-3.93 22.93c-2.98 12.18-3.76 24.31-10.89 35.03-4.43 6.67-7.36 12.49-11.07 18.83-1.12 1.9-1.9 4.74-3.37 6.76-.92 1.28-6.45 10.23-6.29 10.91a.52.52 0 00.49.4l3.99.1a1.01 1.01 0 00.77-.33l2.38-2.71a.94.93-54.6 011.15-.2l1.65.91a.59.59 0 01.2.86l-1.47 2.12q-.67.97.51 1.04l2.74.16a.98.96 19.5 00.84-.39l1.83-2.54a.69.69 0 011-.13l1.44 1.19a.83.83 0 01.14 1.14l-1.14 1.55a.53.52-60.7 00.22.8l3.21 1.31a.61.61 0 01.28.9l-1.95 3.01a1.02 1.02 0 00.72 1.57c2.24.29 4.37-.11 4.07 3.24a1.08 1.07-79.8 01-1.36.95l-4.68-1.31a.92.91-65.3 00-1.01.38l-1.85 2.81a.43.43 0 00.28.66q2.8.55 4.92 2.41a1.23 1.19-71.2 01.41.87c.14 3.31-4.52.72-5.82.19a1.22 1.17-46.2 00-.96.04q-2.44 1.19-3.27 3.91a.72.72 0 00.34.84l4.83 2.63a.84.84 0 01.42.91l-.24 1.17a.8.79 8.4 01-.86.63q-3.28-.33-5.92-2.25a.58.57-57.3 00-.84.19l-2.21 3.97a.51.51 0 00.29.74l4.03 1.26a1.57 1.56 6.7 011.09 1.37c.28 3.67-6.37.76-8.02.38a.74.74 0 00-.83.39l-2.49 5.01a.43.43 0 00.32.62q2.91.4 4.88 2.61a1.03 1.01-61.4 01.25.87q-.25 1.33-1.49 1.88a.83.82 54.8 01-.9-.16q-2.33-2.21-5.8-1.89a1.05 1.04 12.5 00-.8.5q-3.77 6.16-10.24 1.98a.62.61 38.8 00-.77.08c-1.45 1.46-3.71 6-6.37 4.63a.85.84 22.6 01-.42-1.01l1.1-3.56a1.08 1.07 15.1 00-.8-1.37q-4.86-1.08-9.73-.2a1.31 1.31 0 00-.88.59q-8.89 13.9-17.71 27.84c-1.87 2.96-4.71 6.71-6.45 10.68-1.74 3.96-4.65 6.82-6.5 10.77-2.49 5.33-6 9.27-9.58 13.65-5.57 6.84-9.5 14.96-15 21.37q-5.88 6.85-12.68 13.03a.81.8 45.4 000 1.18c13.63 12.61 27.2 25.16 42.36 36.37q14.61 10.8 28.54 22.59a.61.61 0 00.92-.15l9.49-15.67a.96.95 43.1 00-.04-1.04l-2.46-3.42a.59.58 46.1 00-.94-.02l-2.55 3.26a.97.97 0 01-.89.37q-1.78-.23-2.84-1.67a.73.73 0 01.09-.98l4.23-3.94a.55.55 0 00.01-.8l-4.87-4.71a.46.46 0 00-.63-.01l-4.76 4.31a.87.86 45.7 01-1.19-.02l-1.72-1.65a.81.8-41.5 01.08-1.22l4.75-3.56a.82.82 0 00.09-1.24l-4.72-4.73a.49.49 0 00-.77.09q-1.87 3.16-5.04 4.89c-1.72.93-2.63-.94-1.77-2.34q1.48-2.4 3.59-4.4a.61.61 0 00.09-.77c-1.43-2.18-5.13-5.16-5.25-8.08a1.49 1.46-27.4 01.32-.97l4.53-5.71a.81.81 0 00-.47-1.3q-3.2-.67-2.55-3.81a.7.69 6.6 01.69-.54q3.12.06 5.44 2.15a.61.61 0 00.81.02l5.52-4.61a.78.78 0 00-.07-1.25c-1.23-.83-4.98-3.22-3.96-5.14q1.04-2 2.79-.57l3.65 2.98a.69.69 0 00.91-.02l3.64-3.33a.62.61 46.6 00.02-.89c-.88-.88-6.34-4-2.71-5.34q3.06-1.13 5.15 1.62a.53.53 0 00.87-.04l1.85-3.01a.59.58 26.7 00-.29-.86q-2.9-1.11-2.87-4.32a.69.69 0 01.6-.67q3.35-.42 5.31 2.2a.65.65 0 00.96.09l5.03-4.61a.59.58 51.5 00.08-.76l-2.06-2.96a1.28 1.28 0 01.82-1.99q2.94-.52 3.7 2.23a.4.4 0 00.61.23l7.45-5.12a.96.95 43.6 011.04-.02q3.36 2.08 6.51 4.51 1.56 1.21 2.5-.36a.72.7-66.5 01.78-.32q1.4.37 1.81 1.74a.97.94 51.4 01-.07.74l-.82 1.54a.76.75-55.8 00.17.93q3.49 2.99 5.91 6.9a.43.43 0 00.73-.01q8.56-14.01 16.46-28.18c5.35-9.59 10.56-21.71 16.32-32.36q2.99-5.54 5.35-11.51c5.35-13.53 13.35-24.73 20.69-36.82q.27-.43-.2-.24-6.11 2.48-12.22 4.84c-8.26 3.19-17.22 5.33-25.84 7.73zm40.87-123.83c-.31 9.5-1.01 19.62-2.58 28.99-1.42 8.46-4.23 15.84 3.38 22.57a.25.25 0 00.42-.22q-.48-3.24.04-6.43 3.2-19.33 6.46-38.65c.32-1.85.29-3.95.44-5.88a.49.48-87.1 00-.46-.52l-7.18-.34a.5.5 0 00-.52.48zM476 355.04q1.62-.84 1.1-2.34a1.01.98-86.3 00-.47-.55l-.38-.19q-2.08-2.08-.74-4.36a.85.85 0 01.9-.4q1.54.34 2.31 1.79 1.03 1.95 1.66-.16l1.56-5.14a1.12 1.11-60.5 00-.31-1.14L465.6 328q-.48-.43-.56.21-1.14 8.6-2.24 17.2c-.57 4.4-.53 11.57-2.08 17.36q-.13.49-.28.01c-1.46-4.59-3.55-8.95-4.56-13.31q-4.78-20.49-2.05-41.45.27-2.03-1.06-5.88a1.4 1.38 3.4 00-.71-.79l-5.87-2.83a.86.86 0 00-1.23.83q.5 7.98-1.72 15.67-.25.88-.31-.03c-.58-9.81-2.61-19.27-3.67-28.89q-.64-5.84-1.63-11.69a.89.88-22.5 00-1.39-.57l-.79.57a1.06 1.04-19 00-.44.89c.06 1.38 1.17 7.17-1.42 6.92a1.13 1.13 0 01-1-.91l-1.15-5.8a.71.7-7.4 00-.74-.56l-4.7.33a.49.48 80.2 00-.43.62l1.18 4.06a1.72 1.71 73.8 01-1.16 2.12c-3.09.91-3.23-3.67-3.64-5.52a.78.77-7.2 00-.78-.6l-4.32.14a.53.53 0 00-.51.54q.03 2.04.94 3.82a1.75 1.74 35.6 01.17 1.01c-.19 1.32-.74 4.58-2.98 2.99a1.23 1.22 12.3 01-.51-.79l-1.09-5.88a.66.65 84.3 00-.65-.54l-5.47.01a1.11 1.11 0 01-.92-.49q-1.19-1.72-1.04-3.99a2.35 2.34-86.9 00-2.24-2.5l-4.95-.21a.83.83 0 01-.79-.9l.2-2.21a.56.55-85.3 01.59-.51l5.04.36a.61.61 0 00.64-.71l-1.06-6.13a.63.62 82.9 00-.66-.52l-5.68.36a1.03 1.03 0 01-.81-.32q-1.28-1.33-.06-3.18a1.09 1.06 13.4 01.8-.48l4.85-.46a.82.81-11.2 00.7-1.04l-1.45-4.78a.56.56 0 00-.66-.39c-2 .39-9.57 1.59-9-2.28a1.95 1.94 7.6 012.16-1.65l4.28.52a.62.6-81.2 00.68-.51l1.2-7.1a.51.5-83 00-.45-.58l-6.94-.57a.75.75 0 01-.66-.96l.44-1.45a1.31 1.31 0 011.25-.93l5.99-.04a.56.56 0 00.55-.56v-5.93a.6.59 87.4 01.54-.6l3.69-.39a.81.81 0 00.72-.93l-1-6.25a.74.73 77.5 01.52-.82l2.12-.61a.76.75 75.3 01.95.56l1.6 7.15a.49.48-11.2 00.56.37l3.93-.76a.73.73 0 00.6-.72l.02-7.27a1.56 1.56 0 011.99-1.49l.85.24a.7.7 0 01.51.66l.08 6.31a.66.66 0 00.71.65l3.48-.25a.77.75-86.5 00.69-.62c.33-1.78-.81-6.55 1.03-7.02a1.4 1.39-10 011.74 1.21l.53 5.55a.17.17 0 00.16.16l.3.02a.38.38 0 00.41-.36q.41-7.7-.4-15.39a.87.86 8.7 00-.53-.71c-20.2-8.29-29.59-21.34-32.38-42.84-.92-7.09.01-15.33.25-22.92a.55.55 0 00-.53-.56l-28.62-.93a1.41 1.4-89.2 00-1.45 1.42q.1 11.7-1.81 23.24-.09.56-.38.08c-3.12-5.27-2.42-17.7-2.14-23.89a.62.62 0 00-.59-.65l-6.07-.31a.9.89 88.3 00-.93.99q1.29 11.56-.34 23.08-.28 1.98-.89.08-.82-2.54-1.18-6.35-.79-8.47-1.26-16.97a.45.45 0 00-.5-.42q-12.67 1.4-25.32-.22a.63.62 8 00-.7.52c-1.9 12.19-3.48 23.84-5.87 36.44q-2.13 11.19-1.25 22.66.04.49-.17.94c-1.03 2.27-3.27 7.02-1.06 9.18 3.48 3.42 8.08 7.27 13.1 7.24q8.25-.04 16.02 2.8.5.18 1.03.09.96-.15 1.74.34.91.59-.17.57c-6.44-.13-12.66.74-19.17.43a.46.45-1.6 00-.48.5q.41 4.18-.36 8.3a.36.35 3.8 00.37.41q6.89-.4 13.63 1.08a1.15 1.15 0 01.8.64c3.33 7.33 5.66 16.73 7.67 22.47q6.81 19.41 13.64 38.81.57 1.63 1.24 2.72a.36.35 53.2 00.54.09l3.74-3.33a.66.65 46 01.89.02l2.64 2.52a.45.45 0 00.73-.17q1.17-3.02 4.59-2.04a.68.67-81.4 01.49.68q-.11 2.58-1.7 4.64a.55.54-50.4 00.06.73l2.68 2.5a.58.57-44.6 00.79 0c1.39-1.27 5-2.44 4.82.87a1.22 1.22 0 01-.45.88l-1.84 1.52a.51.5-42 00-.04.74l6.67 6.85a1.1 1.1 0 01-.01 1.54l-4.13 4.18a1.38 1.38 0 00-.01 1.93q2.27 2.35 2.69 5.56a.66.65-11.5 01-.48.72c-2.33.66-3.4-1.29-4.77-2.71a.57.57 0 00-.75-.06c-3.15 2.34-.61 5.19 1.22 7.11a.92.91 30.1 01.22.81q-.36 1.56-1.82 1.66a1.1 1.08 64.8 01-.86-.32l-1.37-1.36a.92.91-29.1 00-.86-.24c-3.86.91 4.61 11.37 5.95 13.12q14 18.25 28.96 33.52 7.67 7.83 16.7 20.56a.94.94 0 00.77.4q4.1-.03 7.32-2.55a.61.61 0 00.05-.92l-1.31-1.32a.76.74-54.2 01-.13-.87c1.34-2.59 4.29-1.05 5.41.96a.61.61 0 00.81.26l5.17-2.55a.75.74 58.2 00.26-1.12l-1.98-2.6a.59.59 0 01.07-.78l1.35-1.26a.81.8-45.8 011.09-.02l2.54 2.26a.76.76 0 00.93.06l3.71-2.46a.58.58 0 00.19-.75l-1.83-3.49a.65.64 66.8 01.36-.92l2.08-.71a.9.9 0 011.11.48l.99 2.19a.73.72 52.8 001.22.17l3.11-3.71a.51.51 0 00-.23-.81q-3.32-1.1-2.07-4.44a.74.72 7.7 01.65-.48q2.93-.15 3.94 2.64a.52.51-33 00.86.18l3.09-3.28a.47.47 0 00-.04-.68l-2.89-2.41a.88.87 30.4 01-.26-.98q.8-2.12 2.9-2.16a.97.97 0 01.76.37l1.34 1.78a.61.61 0 001.02-.07l2.85-5.02a.64.63 30.3 00-.23-.86l-1.89-1.1a1.69 1.64-87 01-.71-.81q-.67-1.63.3-3.18a.69.69 0 01.95-.21l3.65 2.29a.47.47 0 00.63-.14l2.38-3.64zm-46.55-151.41q1.03 8.9.71 17.85a.53.53 0 00.58.55l2.07-.2a.61.61 0 00.55-.58c1.37-30.57 1.92-53.36-2.65-80.67a.69.69 0 00-.59-.58l-4.04-.58a.41.4 84.3 00-.44.54q2.86 7.64 2.72 10.05-.28 5-.66 10.28a.45.45 0 01-.87.1c-2.18-6.63-3.02-13.42-4.62-20.14a1.78 1.77 85.2 00-1.62-1.37q-11.41-.67-22.81-.23a.6.59-89.4 00-.57.57c-.46 8.08-1.69 16.54-.64 24.14.88 6.43 2.25 13.52 5.56 19.02q9.15 15.19 26.77 20.6a.79.77 5.3 01.55.65zM475 365.96q-.1-.28-.31-.44a.46.46 0 00-.65.09l-3.52 4.61a.76.76 0 00-.11.72q.44 1.28 1.5 2.18c2.63 2.26-.36 5.43-3.17 1.87a1.01 1 43.7 00-1.6.03l-2.21 3.07a.52.52 0 00.18.77c1.97.99 3.64 3.77.66 4.7a1.09 1.09 0 01-1-.19l-2.86-2.3a.53.53 0 00-.77.11l-2.72 3.82a.59.58 39.1 00.08.77c4.23 3.88-1.46 5.16-2.69 2.82a1.16 1.15-26.9 00-1.53-.49q-3.97 1.95-2.46 4.53a1.43 1.39-55.2 01.16.97q-.4 2.09-2.73 1.57-.49-.11-.86-.44l-1.45-1.29a.74.73-41.1 00-.91-.06l-4.63 3.09q-.74.5.11.75 1.28.38 1.2 1.91a.76.75-9.6 01-.48.67q-2.95 1.24-5.03-.95a.82.81 57.4 00-.89-.2l-5.81 2.26a.57.56 61.6 00-.25.86c8.14 11.25 17.34 21.65 25.74 32.66a1.98 1.97-23 001.87.75c18.63-2.93 36.38-16.13 46.2-32.37q7.23-11.97 12.22-29.8a1.43 1.39-49.3 00-.06-.95q-.91-2.14-2.51-3.53-10.45-9.13-25.36-21.39-.62-.51-2.64-1.65a.36.36 0 00-.52.21l-1.91 5.9a1.15 1.14 32.1 00.27 1.16q1.93 1.95-.06 3.63a.82.81-51 01-.9.1l-1.94-1.01a.71.71 0 00-.97.32l-2.77 5.72a.92.91-53.3 00.14 1l1.76 1.99a1.01 1-56.8 01.2.98l-.35 1.1a.77.77 0 01-.92.51l-2.04-.52a1.01.98-2.6 01-.7-.62zm-262.28-1.6l-2.22-1.06a.71.7-54.3 00-.81.14l-2.37 2.37a.59.58 46.8 00-.02.81c1.25 1.34 3.16 3.46.85 4.64a1.07 1.05 46.6 01-1.05-.04l-2.15-1.32a.45.45 0 00-.59.12l-2.37 3.16a1.12 1.12 0 00.41 1.68q2.74 1.31.49 3.53a1.54 1.54 0 01-1.96.17l-2.27-1.6a.75.75 0 00-.97.08l-5.08 5.1a.49.49 0 00.05.73l2.58 1.98a.77.75-59.7 01.23.92c-1.33 2.92-4.03.96-5.85-.56a.6.59-48.6 00-.82.06l-4.25 4.55a.72.72 0 00.09 1.06l4.37 3.32a.7.69-46.1 00.87-.02l1.9-1.61a1.24 1.2-61.7 01.91-.29c3.61.29 1.63 3.59.14 4.9a.49.49 0 00-.01.73l3.66 3.37a.57.57 0 00.81-.04c1.2-1.32 3.61-4.32 5.13-1.18a1.41 1.38-41 01-.11 1.41l-2.3 3.34a.6.59 34.9 00.15.82l3.34 2.37a1.76 1.74 7.4 01.63.81l.28.73q.2.54.53.06c1.17-1.72 4.3-3.44 5.27-.71a1.03 1.02-33.9 01-.21 1.04l-2.53 2.81a.58.58 0 00.01.78l2.26 2.39a.93.93 0 001.43-.09c5.27-7.24 8.06-15.29 13.49-22.3 3.84-4.96 6.59-10.59 9.45-16.11 2.36-4.57 6.06-9.1 8.49-14.16a.8.8 0 00-.14-.9l-7.63-8.11a.48.48 0 00-.76.07c-.89 1.4-3.83 4.43-5.08 1.55a1.12 1.11 48.3 01.05-.97q.89-1.54 2.4-2.6a.64.63 51.7 00.11-.95l-3.76-4.18a.69.68 47.7 00-.96-.05l-4.77 4.28a.78.77 52 00-.12 1.01l1.67 2.46a1.06 1.06 0 01-.85 1.66q-2.22.07-3.54-1.71a.64.63-39.1 00-.93-.09l-5.08 4.56a.72.72 0 00.01 1.08l1.14.98a1.27 1.26 19 01.43.88q.08 1.27-1.01 2.05a1.05 1.03-49.2 01-1.06.09z"/><path fill="#929496" d="M265.42 262.52c8.62-2.4 17.58-4.54 25.84-7.73q6.11-2.36 12.22-4.84.47-.19.2.24c-7.34 12.09-15.34 23.29-20.69 36.82q-2.36 5.97-5.35 11.51c-5.76 10.65-10.97 22.77-16.32 32.36q-7.9 14.17-16.46 28.18a.43.43 0 01-.73.01q-2.42-3.91-5.91-6.9a.76.75-55.8 01-.17-.93l.82-1.54a.97.94 51.4 00.07-.74q-.41-1.37-1.81-1.74a.72.7-66.5 00-.78.32q-.94 1.57-2.5.36-3.15-2.43-6.51-4.51a.96.95 43.6 00-1.04.02l-7.45 5.12a.4.4 0 01-.61-.23q-.76-2.75-3.7-2.23a1.28 1.28 0 00-.82 1.99l2.06 2.96a.59.58 51.5 01-.08.76l-5.03 4.61a.65.65 0 01-.96-.09q-1.96-2.62-5.31-2.2a.69.69 0 00-.6.67q-.03 3.21 2.87 4.32a.59.58 26.7 01.29.86l-1.85 3.01a.53.53 0 01-.87.04q-2.09-2.75-5.15-1.62c-3.63 1.34 1.83 4.46 2.71 5.34a.62.61 46.6 01-.02.89l-3.64 3.33a.69.69 0 01-.91.02l-3.65-2.98q-1.75-1.43-2.79.57c-1.02 1.92 2.73 4.31 3.96 5.14a.78.78 0 01.07 1.25l-5.52 4.61a.61.61 0 01-.81-.02q-2.32-2.09-5.44-2.15a.7.69 6.6 00-.69.54q-.65 3.14 2.55 3.81a.81.81 0 01.47 1.3l-4.53 5.71a1.49 1.46-27.4 00-.32.97c.12 2.92 3.82 5.9 5.25 8.08a.61.61 0 01-.09.77q-2.11 2-3.59 4.4c-.86 1.4.05 3.27 1.77 2.34q3.17-1.73 5.04-4.89a.49.49 0 01.77-.09l4.72 4.73a.82.82 0 01-.09 1.24l-4.75 3.56a.81.8-41.5 00-.08 1.22l1.72 1.65a.87.86 45.7 001.19.02l4.76-4.31a.46.46 0 01.63.01l4.87 4.71a.55.55 0 01-.01.8l-4.23 3.94a.73.73 0 00-.09.98q1.06 1.44 2.84 1.67a.97.97 0 00.89-.37l2.55-3.26a.59.58 46.1 01.94.02l2.46 3.42a.96.95 43.1 01.04 1.04l-9.49 15.67a.61.61 0 01-.92.15q-13.93-11.79-28.54-22.59c-15.16-11.21-28.73-23.76-42.36-36.37a.81.8 45.4 010-1.18q6.8-6.18 12.68-13.03c5.5-6.41 9.43-14.53 15-21.37 3.58-4.38 7.09-8.32 9.58-13.65 1.85-3.95 4.76-6.81 6.5-10.77 1.74-3.97 4.58-7.72 6.45-10.68q8.82-13.94 17.71-27.84a1.31 1.31 0 01.88-.59q4.87-.88 9.73.2a1.08 1.07 15.1 01.8 1.37l-1.1 3.56a.85.84 22.6 00.42 1.01c2.66 1.37 4.92-3.17 6.37-4.63a.62.61 38.8 01.77-.08q6.47 4.18 10.24-1.98a1.05 1.04 12.5 01.8-.5q3.47-.32 5.8 1.89a.83.82 54.8 00.9.16q1.24-.55 1.49-1.88a1.03 1.01-61.4 00-.25-.87q-1.97-2.21-4.88-2.61a.43.43 0 01-.32-.62l2.49-5.01a.74.74 0 01.83-.39c1.65.38 8.3 3.29 8.02-.38a1.57 1.56 6.7 00-1.09-1.37l-4.03-1.26a.51.51 0 01-.29-.74l2.21-3.97a.58.57-57.3 01.84-.19q2.64 1.92 5.92 2.25a.8.79 8.4 00.86-.63l.24-1.17a.84.84 0 00-.42-.91l-4.83-2.63a.72.72 0 01-.34-.84q.83-2.72 3.27-3.91a1.22 1.17-46.2 01.96-.04c1.3.53 5.96 3.12 5.82-.19a1.23 1.19-71.2 00-.41-.87q-2.12-1.86-4.92-2.41a.43.43 0 01-.28-.66l1.85-2.81a.92.91-65.3 011.01-.38l4.68 1.31a1.08 1.07-79.8 001.36-.95c.3-3.35-1.83-2.95-4.07-3.24a1.02 1.02 0 01-.72-1.57l1.95-3.01a.61.61 0 00-.28-.9l-3.21-1.31a.53.52-60.7 01-.22-.8l1.14-1.55a.83.83 0 00-.14-1.14l-1.44-1.19a.69.69 0 00-1 .13l-1.83 2.54a.98.96 19.5 01-.84.39l-2.74-.16q-1.18-.07-.51-1.04l1.47-2.12a.59.59 0 00-.2-.86l-1.65-.91a.94.93-54.6 00-1.15.2l-2.38 2.71a1.01 1.01 0 01-.77.33l-3.99-.1a.52.52 0 01-.49-.4c-.16-.68 5.37-9.63 6.29-10.91 1.47-2.02 2.25-4.86 3.37-6.76 3.71-6.34 6.64-12.16 11.07-18.83 7.13-10.72 7.91-22.85 10.89-35.03q2.78-11.32 3.93-22.93a.61.61 0 01.67-.55l5.51.49q.66.06.13.47c-7.05 5.35-4.37 15.28 2.04 19.6a.5.5 0 00.73-.64c-1.75-3.55-4.24-9.64-2.19-13.38.95-1.75 4.51-6.08 6.96-5.76a.62.62 0 01.44.95c-3.59 5.53-3.66 18.45 3.93 21.08q.48.17.33-.32c-2.38-7.82-5.02-14.87 1.25-20.89a1.28 1.28 0 01.88-.35h18.05a.48.48 0 01.48.53q-1.08 10.16-1.94 20.35c-.82 9.67-6.38 23.49 1.13 31.48q3.27 3.48 6.42 6.71a1.51 1.5-53.3 01.25 1.75q-5.06 9.49 3.16 15.75.43.34-.12.36c-3.45.14-6.41.14-9.71 1.5q-5.86 2.42-11.34 4.55a.35.35 0 00.17.67c9.44-1.28 17.55-2.84 27.53-2.05a1.12 1.11-15.7 01.81.45c1.79 2.38 1.03 5.39.22 8.15a.99.97-2.1 01-.61.64c-12.69 4.44-23.83 13.2-34.04 20.8q-8.61 6.42-18.45 12.16a.26.26 0 00.2.47z"/><path fill="#929496" d="M303.71 167.68c1.57-9.37 2.27-19.49 2.58-28.99a.5.5 0 01.52-.48l7.18.34a.49.48-87.1 01.46.52c-.15 1.93-.12 4.03-.44 5.88q-3.26 19.32-6.46 38.65-.52 3.19-.04 6.43a.25.25 0 01-.42.22c-7.61-6.73-4.8-14.11-3.38-22.57zM476.25 351.96q-1.49 1.49-.25 3.08l-2.38 3.64a.47.47 0 01-.63.14l-3.65-2.29a.69.69 0 00-.95.21q-.97 1.55-.3 3.18a1.69 1.64-87 00.71.81l1.89 1.1a.64.63 30.3 01.23.86l-2.85 5.02a.61.61 0 01-1.02.07l-1.34-1.78a.97.97 0 00-.76-.37q-2.1.04-2.9 2.16a.88.87 30.4 00.26.98l2.89 2.41a.47.47 0 01.04.68l-3.09 3.28a.52.51-33 01-.86-.18q-1.01-2.79-3.94-2.64a.74.72 7.7 00-.65.48q-1.25 3.34 2.07 4.44a.51.51 0 01.23.81l-3.11 3.71a.73.72 52.8 01-1.22-.17l-.99-2.19a.9.9 0 00-1.11-.48l-2.08.71a.65.64 66.8 00-.36.92l1.83 3.49a.58.58 0 01-.19.75l-3.71 2.46a.76.76 0 01-.93-.06l-2.54-2.26a.81.8-45.8 00-1.09.02l-1.35 1.26a.59.59 0 00-.07.78l1.98 2.6a.75.74 58.2 01-.26 1.12l-5.17 2.55a.61.61 0 01-.81-.26c-1.12-2.01-4.07-3.55-5.41-.96a.76.74-54.2 00.13.87l1.31 1.32a.61.61 0 01-.05.92q-3.22 2.52-7.32 2.55a.94.94 0 01-.77-.4q-9.03-12.73-16.7-20.56-14.96-15.27-28.96-33.52c-1.34-1.75-9.81-12.21-5.95-13.12a.92.91-29.1 01.86.24l1.37 1.36a1.1 1.08 64.8 00.86.32q1.46-.1 1.82-1.66a.92.91 30.1 00-.22-.81c-1.83-1.92-4.37-4.77-1.22-7.11a.57.57 0 01.75.06c1.37 1.42 2.44 3.37 4.77 2.71a.66.65-11.5 00.48-.72q-.42-3.21-2.69-5.56a1.38 1.38 0 01.01-1.93l4.13-4.18a1.1 1.1 0 00.01-1.54l-6.67-6.85a.51.5-42 01.04-.74l1.84-1.52a1.22 1.22 0 00.45-.88c.18-3.31-3.43-2.14-4.82-.87a.58.57-44.6 01-.79 0l-2.68-2.5a.55.54-50.4 01-.06-.73q1.59-2.06 1.7-4.64a.68.67-81.4 00-.49-.68q-3.42-.98-4.59 2.04a.45.45 0 01-.73.17l-2.64-2.52a.66.65 46 00-.89-.02l-3.74 3.33a.36.35 53.2 01-.54-.09q-.67-1.09-1.24-2.72-6.83-19.4-13.64-38.81c-2.01-5.74-4.34-15.14-7.67-22.47a1.15 1.15 0 00-.8-.64q-6.74-1.48-13.63-1.08a.36.35 3.8 01-.37-.41q.77-4.12.36-8.3a.46.45-1.6 01.48-.5c6.51.31 12.73-.56 19.17-.43q1.08.02.17-.57-.78-.49-1.74-.34-.53.09-1.03-.09-7.77-2.84-16.02-2.8c-5.02.03-9.62-3.82-13.1-7.24-2.21-2.16.03-6.91 1.06-9.18q.21-.45.17-.94-.88-11.47 1.25-22.66c2.39-12.6 3.97-24.25 5.87-36.44a.63.62 8 01.7-.52q12.65 1.62 25.32.22a.45.45 0 01.5.42q.47 8.5 1.26 16.97.36 3.81 1.18 6.35.61 1.9.89-.08 1.63-11.52.34-23.08a.9.89 88.3 01.93-.99l6.07.31a.62.62 0 01.59.65c-.28 6.19-.98 18.62 2.14 23.89q.29.48.38-.08 1.91-11.54 1.81-23.24a1.41 1.4-89.2 011.45-1.42l28.62.93a.55.55 0 01.53.56c-.24 7.59-1.17 15.83-.25 22.92 2.79 21.5 12.18 34.55 32.38 42.84a.87.86 8.7 01.53.71q.81 7.69.4 15.39a.38.38 0 01-.41.36l-.3-.02a.17.17 0 01-.16-.16l-.53-5.55a1.4 1.39-10 00-1.74-1.21c-1.84.47-.7 5.24-1.03 7.02a.77.75-86.5 01-.69.62l-3.48.25a.66.66 0 01-.71-.65l-.08-6.31a.7.7 0 00-.51-.66l-.85-.24a1.56 1.56 0 00-1.99 1.49l-.02 7.27a.73.73 0 01-.6.72l-3.93.76a.49.48-11.2 01-.56-.37l-1.6-7.15a.76.75 75.3 00-.95-.56l-2.12.61a.74.73 77.5 00-.52.82l1 6.25a.81.81 0 01-.72.93l-3.69.39a.6.59 87.4 00-.54.6v5.93a.56.56 0 01-.55.56l-5.99.04a1.31 1.31 0 00-1.25.93l-.44 1.45a.75.75 0 00.66.96l6.94.57a.51.5-83 01.45.58l-1.2 7.1a.62.6-81.2 01-.68.51l-4.28-.52a1.95 1.94 7.6 00-2.16 1.65c-.57 3.87 7 2.67 9 2.28a.56.56 0 01.66.39l1.45 4.78a.82.81-11.2 01-.7 1.04l-4.85.46a1.09 1.06 13.4 00-.8.48q-1.22 1.85.06 3.18a1.03 1.03 0 00.81.32l5.68-.36a.63.62 82.9 01.66.52l1.06 6.13a.61.61 0 01-.64.71l-5.04-.36a.56.55-85.3 00-.59.51l-.2 2.21a.83.83 0 00.79.9l4.95.21a2.35 2.34-86.9 012.24 2.5q-.15 2.27 1.04 3.99a1.11 1.11 0 00.92.49l5.47-.01a.66.65 84.3 01.65.54l1.09 5.88a1.23 1.22 12.3 00.51.79c2.24 1.59 2.79-1.67 2.98-2.99a1.75 1.74 35.6 00-.17-1.01q-.91-1.78-.94-3.82a.53.53 0 01.51-.54l4.32-.14a.78.77-7.2 01.78.6c.41 1.85.55 6.43 3.64 5.52a1.72 1.71 73.8 001.16-2.12l-1.18-4.06a.49.48 80.2 01.43-.62l4.7-.33a.71.7-7.4 01.74.56l1.15 5.8a1.13 1.13 0 001 .91c2.59.25 1.48-5.54 1.42-6.92a1.06 1.04-19 01.44-.89l.79-.57a.89.88-22.5 011.39.57q.99 5.85 1.63 11.69c1.06 9.62 3.09 19.08 3.67 28.89q.06.91.31.03 2.22-7.69 1.72-15.67a.86.86 0 011.23-.83l5.87 2.83a1.4 1.38 3.4 01.71.79q1.33 3.85 1.06 5.88-2.73 20.96 2.05 41.45c1.01 4.36 3.1 8.72 4.56 13.31q.15.48.28-.01c1.55-5.79 1.51-12.96 2.08-17.36q1.1-8.6 2.24-17.2.08-.64.56-.21l16.03 14.55a1.12 1.11-60.5 01.31 1.14l-1.56 5.14q-.63 2.11-1.66.16-.77-1.45-2.31-1.79a.85.85 0 00-.9.4q-1.34 2.28.74 4.36z"/><path fill="#929496" d="M428.9 202.98q-17.62-5.41-26.77-20.6c-3.31-5.5-4.68-12.59-5.56-19.02-1.05-7.6.18-16.06.64-24.14a.6.59-89.4 01.57-.57q11.4-.44 22.81.23a1.78 1.77 85.2 011.62 1.37c1.6 6.72 2.44 13.51 4.62 20.14a.45.45 0 00.87-.1q.38-5.28.66-10.28.14-2.41-2.72-10.05a.41.4 84.3 01.44-.54l4.04.58a.69.69 0 01.59.58c4.57 27.31 4.02 50.1 2.65 80.67a.61.61 0 01-.55.58l-2.07.2a.53.53 0 01-.58-.55q.32-8.95-.71-17.85a.79.77 5.3 00-.55-.65zM475.7 366.58l2.04.52a.77.77 0 00.92-.51l.35-1.1a1.01 1-56.8 00-.2-.98l-1.76-1.99a.92.91-53.3 01-.14-1l2.77-5.72a.71.71 0 01.97-.32l1.94 1.01a.82.81-51 00.9-.1q1.99-1.68.06-3.63a1.15 1.14 32.1 01-.27-1.16l1.91-5.9a.36.36 0 01.52-.21q2.02 1.14 2.64 1.65 14.91 12.26 25.36 21.39 1.6 1.39 2.51 3.53a1.43 1.39-49.3 01.06.95q-4.99 17.83-12.22 29.8c-9.82 16.24-27.57 29.44-46.2 32.37a1.98 1.97-23 01-1.87-.75c-8.4-11.01-17.6-21.41-25.74-32.66a.57.56 61.6 01.25-.86l5.81-2.26a.82.81 57.4 01.89.2q2.08 2.19 5.03.95a.76.75-9.6 00.48-.67q.08-1.53-1.2-1.91-.85-.25-.11-.75l4.63-3.09a.74.73-41.1 01.91.06l1.45 1.29q.37.33.86.44 2.33.52 2.73-1.57a1.43 1.39-55.2 00-.16-.97q-1.51-2.58 2.46-4.53a1.16 1.15-26.9 011.53.49c1.23 2.34 6.92 1.06 2.69-2.82a.59.58 39.1 01-.08-.77l2.72-3.82a.53.53 0 01.77-.11l2.86 2.3a1.09 1.09 0 001 .19c2.98-.93 1.31-3.71-.66-4.7a.52.52 0 01-.18-.77l2.21-3.07a1.01 1 43.7 011.6-.03c2.81 3.56 5.8.39 3.17-1.87q-1.06-.9-1.5-2.18a.76.76 0 01.11-.72l3.52-4.61a.46.46 0 01.65-.09q.21.16.31.44a1.01.98-2.6 00.7.62zM213.78 364.27q1.09-.78 1.01-2.05a1.27 1.26 19 00-.43-.88l-1.14-.98a.72.72 0 01-.01-1.08l5.08-4.56a.64.63-39.1 01.93.09q1.32 1.78 3.54 1.71a1.06 1.06 0 00.85-1.66l-1.67-2.46a.78.77 52 01.12-1.01l4.77-4.28a.69.68 47.7 01.96.05l3.76 4.18a.64.63 51.7 01-.11.95q-1.51 1.06-2.4 2.6a1.12 1.11 48.3 00-.05.97c1.25 2.88 4.19-.15 5.08-1.55a.48.48 0 01.76-.07l7.63 8.11a.8.8 0 01.14.9c-2.43 5.06-6.13 9.59-8.49 14.16-2.86 5.52-5.61 11.15-9.45 16.11-5.43 7.01-8.22 15.06-13.49 22.3a.93.93 0 01-1.43.09l-2.26-2.39a.58.58 0 01-.01-.78l2.53-2.81a1.03 1.02-33.9 00.21-1.04c-.97-2.73-4.1-1.01-5.27.71q-.33.48-.53-.06l-.28-.73a1.76 1.74 7.4 00-.63-.81l-3.34-2.37a.6.59 34.9 01-.15-.82l2.3-3.34a1.41 1.38-41 00.11-1.41c-1.52-3.14-3.93-.14-5.13 1.18a.57.57 0 01-.81.04l-3.66-3.37a.49.49 0 01.01-.73c1.49-1.31 3.47-4.61-.14-4.9a1.24 1.2-61.7 00-.91.29l-1.9 1.61a.7.69-46.1 01-.87.02l-4.37-3.32a.72.72 0 01-.09-1.06l4.25-4.55a.6.59-48.6 01.82-.06c1.82 1.52 4.52 3.48 5.85.56a.77.75-59.7 00-.23-.92l-2.58-1.98a.49.49 0 01-.05-.73l5.08-5.1a.75.75 0 01.97-.08l2.27 1.6a1.54 1.54 0 001.96-.17q2.25-2.22-.49-3.53a1.12 1.12 0 01-.41-1.68l2.37-3.16a.45.45 0 01.59-.12l2.15 1.32a1.07 1.05 46.6 001.05.04c2.31-1.18.4-3.3-.85-4.64a.59.58 46.8 01.02-.81l2.37-2.37a.71.7-54.3 01.81-.14l2.22 1.06a1.05 1.03-49.2 001.06-.09z"/><path fill="#fafde1" d="M476.25 351.96l.38.19a1.01.98-86.3 01.47.55q.52 1.5-1.1 2.34-1.24-1.59.25-3.08z"/><path fill="#201e1e" d="M470.69 518.81c-8.68-5.45-5.83-22.53-3.64-30.2.77-2.67 1.04-5.6 1.84-8.38a1.39 1.36-51.4 00-.1-1.01l-2.89-5.59a.98.97 43.2 01-.03-.83c.5-1.12.96-1.98 1.25-3.21q1.83-7.73 6.36-14.86a1.54 1.53 38.1 012.36-.28c2.47 2.38 3.88 5.92 6.52 8.3a1.05 1.05 0 001.54-.15c3.88-5.1 7.4-9.52 12.16-14.56 7.27-7.69 12.43-20.04 17.54-31.98q2.09-4.89 4.72-8.55c4.77-6.63 9.2-14.55 18.27-16.28 15.31-2.92 23.74 11.53 24.1 24.59.93 34.02-12.95 69.89-38.27 92.6q-10.56 9.47-25.04 13.09c-7.94 1.98-19.62 1.75-26.69-2.7zm65.02-47.06q-3.7 7.38-9.5 13.25l-.22.13a.4.4 0 01-.42 0c-11.68-6.98-29.53-7.67-40.11 1.6q-8.95 7.84-6.34 19.54c.56 2.51.78 4.38-.95 6.09a1.65 1.64-36.9 01-2.59-.36c-2.89-5.19-2.69-10.78-1.89-17.18q.19-1.5-1.44-4.41-.25-.45-.38.05c-1.4 5.47-3.36 16.63.13 21.36 4.39 5.94 16.51 5.69 22.53 4.65 18.83-4.35 35.99-20.51 43.21-36.53q.92-2.03 3.03-5.03 2.65-3.76 4.96-9.62c7.2-18.24 11.63-37.49 8.26-56q-1.3-7.18-7.55-11.26-8.95-3.57-15.88 2.19c-3.47 2.89-7.68 9.26-9.78 13.33-5.01 9.69-10.14 19.26-14.84 29.1q-3.23 6.76-7.99 11.8-2.63 2.8-3.87 4.61-.29.42.2.27c14.86-4.52 28.02-1.92 41.34 5.6 2.5 1.42.95 4.86.09 6.82zm-54.03-.63l-5.98-8.15a.6.59-48.8 00-1 .07q-2.45 4.41-3.22 9.44a.81.78 22.3 00.34.78c2.83 1.99 5.37 11.28 5.87 13.03q.14.47.44.09c9.61-12.19 26.1-14.6 40.66-10.54 2.34.65 4.28 1.89 6.44 3.07a.64.64 0 00.85-.22l5.51-8.73a.62.62 0 00-.22-.87q-16.5-9.31-34.43-4.58c-5.1 1.35-9.66 4.11-14.36 6.8a.69.68-32.8 01-.9-.19z"/><path fill="#fff" d="M546.44 398.03q3.79 11.54 3 23.46-.85 13.05-4.11 25.69c-1.67 6.47-6.29 12.05-7.14 18.6-.06.47-.98 7.76-2.48 5.97.86-1.96 2.41-5.4-.09-6.82-13.32-7.52-26.48-10.12-41.34-5.6q-.49.15-.2-.27 1.24-1.81 3.87-4.61 4.76-5.04 7.99-11.8c4.7-9.84 9.83-19.41 14.84-29.1 2.1-4.07 6.31-10.44 9.78-13.33q6.93-5.76 15.88-2.19z"/><path fill="#929496" d="M546.44 398.03q6.25 4.08 7.55 11.26c3.37 18.51-1.06 37.76-8.26 56q-2.31 5.86-4.96 9.62-2.11 3-3.03 5.03c-7.22 16.02-24.38 32.18-43.21 36.53q-.1-1.59-2.53-1.27c-3.14.42-9.7.89-13.16-1.4a.62.62 0 01.26-1.13c5.92-.8 12.37-1.36 17.72-3.27 10.95-3.93 24.8-13.04 29.67-23.44q.22-.47-.28-.96 5.8-5.87 9.5-13.25c1.5 1.79 2.42-5.5 2.48-5.97.85-6.55 5.47-12.13 7.14-18.6q3.26-12.64 4.11-25.69.79-11.92-3-23.46z"/><path fill="#201e1e" d="M79.89 454.8c-10.7-8.86-20.73-17.17-29.33-28.5a1.98 1.97 42.6 01-.1-2.26c2.65-4.18 6.67-10.33 12.04-11.46a1.16 1.15 56.8 01.9.19c3.52 2.53 23.7.44 28.92.01 8.08-.66 15.6-.12 20.17 7.44q8.15 13.49 10.67 29.06c.58 3.61.61 8.97 1.48 13.48a1.38 1.36 14.9 00.48.81q10.43 8.42 21.92 15.19c1.87 1.11 3.75 2.73 5.28 3.67q8.87 5.45 21.54 12.08a.77.77 0 01.41.73q-.6 8.27-3.54 13.72c-1.32 2.44-4.31 1.97-6.62.89-16.42-7.71-29.18-16.65-43.44-25.86q-5.89-3.8-13.48-9.5c-9.02-6.78-19.23-13-27.3-19.69zm29.36-11.01c.54 3.41.21 9.58 3.4 11.45q.99 2.01 3.17 2.32a1.34 1.34 0 01.75.39l.74.76q.81.85.81-.33-.07-19.14-10.5-34.71c-3.24-4.84-7.08-6.45-12.66-5.1q-.48.12-.08.42c8.74 6.4 11.28 14.75 14.37 24.8zm-37.58-23.21q6.65 6.29 12.97 12.12c5.32 4.91 12.75 10.13 18.68 15.88a.43.43 0 00.72-.37c-1.79-13.99-8.25-27.5-24.31-28.41q-4.31-.25-7.45-.56-2.27-.22-.61 1.34zm-5.23 14.98q13.66 12.46 25.17 21.07 3.82 2.86 15 11.06c8.76 6.44 18.19 11.97 26.94 18.2 8.86 6.31 17.67 12.29 27.95 16.1q1.74.65 4.18 2.09a.63.63 0 00.84-.18q1.88-2.71 2.28-5.99a.71.71 0 00-.43-.75q-10.05-4.21-14.32-7.2c-8.26-5.77-16.23-9.91-25.14-16.6-10.09-7.56-22.58-14.14-30.99-21.79q-6.81-6.2-11.61-9.78c-7.29-5.43-13.25-12.58-20.52-18.28-1.46-1.14-2.36-2.45-3.4-3.93a.67.67 0 00-.88-.2q-2.9 1.64-4.32 4.64a1.15 1.13 42.4 00.06 1.06q2.82 4.68 9.19 10.48z"/><path fill="#929496" d="M112.65 455.24q-1.1-3.95-1.89-10.74-.14-1.19-1.51-.71c-3.09-10.05-5.63-18.4-14.37-24.8q-.4-.3.08-.42c5.58-1.35 9.42.26 12.66 5.1q10.43 15.57 10.5 34.71 0 1.18-.81.33l-.74-.76a1.34 1.34 0 00-.75-.39q-2.18-.31-3.17-2.32z"/><path fill="#fafde1" d="M71.67 420.58q-1.66-1.56.61-1.34 3.14.31 7.45.56c16.06.91 22.52 14.42 24.31 28.41a.43.43 0 01-.72.37c-5.93-5.75-13.36-10.97-18.68-15.88q-6.32-5.83-12.97-12.12z"/><path fill="#929496" d="M66.44 435.56q-6.37-5.8-9.19-10.48a1.15 1.13 42.4 01-.06-1.06q1.42-3 4.32-4.64a.67.67 0 01.88.2c1.04 1.48 1.94 2.79 3.4 3.93 7.27 5.7 13.23 12.85 20.52 18.28q4.8 3.58 11.61 9.78c8.41 7.65 20.9 14.23 30.99 21.79 8.91 6.69 16.88 10.83 25.14 16.6q4.27 2.99 14.32 7.2a.71.71 0 01.43.75q-.4 3.28-2.28 5.99a.63.63 0 01-.84.18q-2.44-1.44-4.18-2.09c-10.28-3.81-19.09-9.79-27.95-16.1-8.75-6.23-18.18-11.76-26.94-18.2q-11.18-8.2-15-11.06-11.51-8.61-25.17-21.07z"/><path fill="#fafde1" d="M109.25 443.79q1.37-.48 1.51.71.79 6.79 1.89 10.74c-3.19-1.87-2.86-8.04-3.4-11.45z"/><path fill="#929496" d="M482.58 471.31c4.7-2.69 9.26-5.45 14.36-6.8q17.93-4.73 34.43 4.58a.62.62 0 01.22.87l-5.51 8.73a.64.64 0 01-.85.22c-2.16-1.18-4.1-2.42-6.44-3.07-14.56-4.06-31.05-1.65-40.66 10.54q-.3.38-.44-.09c-.5-1.75-3.04-11.04-5.87-13.03a.81.78 22.3 01-.34-.78q.77-5.03 3.22-9.44a.6.59-48.8 011-.07l5.98 8.15a.69.68-32.8 00.9.19z"/><path fill="#fff" d="M526.21 485q.5.49.28.96c-4.87 10.4-18.72 19.51-29.67 23.44-5.35 1.91-11.8 2.47-17.72 3.27a.62.62 0 00-.26 1.13c3.46 2.29 10.02 1.82 13.16 1.4q2.43-.32 2.53 1.27c-6.02 1.04-18.14 1.29-22.53-4.65-3.49-4.73-1.53-15.89-.13-21.36q.13-.5.38-.05 1.63 2.91 1.44 4.41c-.8 6.4-1 11.99 1.89 17.18a1.65 1.64-36.9 002.59.36c1.73-1.71 1.51-3.58.95-6.09q-2.61-11.7 6.34-19.54c10.58-9.27 28.43-8.58 40.11-1.6a.4.4 0 00.42 0l.22-.13zM590.29 589.75l.71.31v.94h-1.06l-.19-.71.54-.54z"/><path fill="#fafde1" d="M589.75 590.29l.19.71h-1.75q-2.63-.63-5.25 0H12.44q-5.63-.63-11.25 0h-.5l-.19-.47a.34.34 0 01.32-.47l588.93.23z"/><path fill="#201e1e" d="M12.44 591H1.19q5.62-.63 11.25 0zM588.19 591h-5.25q2.62-.63 5.25 0z"/></svg>