<svg xmlns="http://www.w3.org/2000/svg" viewBox="0 0 591 591"><g stroke-width="2" fill="none"><path stroke="#c8cacb" vector-effect="non-scaling-stroke" d="M591 2.56q-.28-2.76-.76-1.81"/><path stroke="#494a4b" vector-effect="non-scaling-stroke" d="M590.24.75q-1.47.03-2.24.03Q294 .97 0 .94"/><path stroke="#c8cacb" vector-effect="non-scaling-stroke" d="M8.19 591q-2.38-.63-4.75 0"/><path stroke="gray" vector-effect="non-scaling-stroke" d="M0 589.94q4.12.13 8.25.14 290.72.17 581.33.17a.68.67 90 00.67-.68L590.24.75"/><path stroke="#7d7f70" vector-effect="non-scaling-stroke" d="M585.5 5.52a.26.26 0 00-.26-.26H5.5a.26.26 0 00-.26.26v579.72a.26.26 0 00.26.26h579.74a.26.26 0 00.26-.26V5.52"/><path stroke="#faf2c7" vector-effect="non-scaling-stroke" d="M31.71 29.44q-1.65 7.06-1.67 14.31c-.02 3.91-1.2 39.28.17 39.88a.82.82 0 00.89-.17q28.32-28.1 56.43-56.08c2.03-2.03 3.97-4.38 5.88-6.51a.94.94 0 00-.65-1.56c-13.82-.81-27.51-.47-41.34-.33q-5.89.06-9.17 1.27c-4.09 1.52-9.46 4.55-10.54 9.19"/><path stroke="#8a8c7d" vector-effect="non-scaling-stroke" d="M273.47 176c2.01 22.95 3.42 46.15 7.67 68.8a.4.4 0 00.79-.02c.28-2.03.44-3.91 1.14-5.87q4.03-11.34 5.45-23.32c.71-5.98 2.61-12 3.5-17.44q1.03-6.33 2.09-12.79a.65.65 0 011.06-.4c5.73 4.76 5.79 9.4 5.85 16.37.07 6.85 1.52 13.3 1.43 20.28q-.04 2.64.76.13 3.27-10.21 5.33-20.75.12-.62.48-.1 1.03 1.47 2.02 3.85c5.82 13.9 8.73 25.64 10.5 41.71 1.46 13.22 2.47 28.37 6.52 41.03 1.96 6.14 5 10.27 6.47 15.29a.44.43-79.4 01-.68.47c-11.13-8.61-28.76-9.03-41.98-7.3-12.12 1.58-20.72 5.26-30.55 12.13q-17.18 11.99-31.6 27.22a.8.79 35.1 01-.95.16q-20.79-10.75-44.52-11.18c-18.19-.34-38.86.77-56.13 6.43q-26.81 8.78-46.42 29.73c-4.71 5.03-3.76 10.66-3.42 17.23q.19 3.72 1.09 7.59 7.45 31.92 11.8 64.43c3.35 25.07 1.9 51.58-.66 76.7q-.05.56.42.26 17.84-11.16 33.18-25.58.68-.64.34.22l-5.71 14.77a.53.53 0 00.57.72c14.14-1.93 28.38-3.03 42.65-4.34q10-.91 20.05-.03c6.32.56 12.26-1.12 15.51-6.4 8.9-14.42 13.14-21.73 24.28-30.94 3.18-2.63 15.26-.07 19.12.99a.71.69 89 01.49.49c2 7.46 2.65 15.7 4.16 22.54q1.84 8.38 3.24 16.86.37 2.22 1.46 3.8a.42.42 0 00.76-.2q1.78-19.67 6.52-38.83a.59.58-80 01.63-.45q12.62 1.43 25.16 3.44c4.2.67 8.48.74 12.78 1.12a.96.95 77.3 01.75.48q3.01 5.29 4.83 11.2.14.47.29 0 2.04-6.37 2.56-8.23.58-2.1 1.89-3.62a1.13 1.09 19.3 01.82-.38c6.06-.01 12.51-1.29 18-1.89 11.67-1.27 21.17-4.97 31.97-9.2a.46.45 71.2 01.6.3c1.46 5.08 2.5 10.17 4.39 15.14q4.1 10.74 6.88 21.87.13.49.22-.01 3.38-17.2 7.04-34.35c.76-3.51.84-7.79 1.8-11.67a1.26 1.25-9.6 01.54-.75q21.18-13.52 42.97-26.02a.44.44 0 01.65.26q6.82 23.38 12.04 47.17c2.09 9.52 5.02 18.51 7.66 27.83q.47 1.67 1.73 1.35a1.87 1.86-1.8 001.38-1.46c2.52-13.41 4.32-23 7.85-40.09 2.46-11.96 3.93-24.28 5.52-36.39.34-2.54 1.33-5.43 1.59-8.32q.23-2.54 1.02-4.98 1.46-4.55 1.26-9.49a.66.66 0 01.45-.65q3.91-1.34 6.66-4.48a.78.78 0 011.29.17c.66 1.32 1.51 2.8 1.72 4.3q2.31 16 6.36 31.65c.21.78.24 3.01.96 3.63a.78.78 0 001.27-.4c4.4-17.63 7.53-36.36 10.52-53.33a1.16 1.15 77.8 01.5-.78c14.37-9.82 25.16-19.17 34.1-33.95 3.9-6.43 2.32-12.37-1.22-18.57-3.97-6.96-9.23-14.7-11.82-21.98-2.35-6.63-3.94-14.7-5.75-20.2q-11.24-34.05-36.49-58.98c-17.85-17.62-35.66-29.9-58.17-43.96-13.24-8.26-28.37-18.92-38.58-25.46q-18.12-11.6-32.61-27.3c-6.57-7.12-14.32-18.35-22.21-27.03-3.33-3.67-7.05-6.38-11.6-7-21.18-2.9-43.4-1.83-67.04-.05-13.74 1.03-28.14 2.99-42.2 4.67q-7.4.88-15.42 2.4c-8.92 1.69-14.97 2.24-21.74 3.67-6.73 1.42-14.67-.36-18.06 6.52-4.81 9.77-5.79 18.17-2.4 28.33 2.18 6.51 5.76 15.29 5.89 20.71q.13 6.01.53 12.06c.4 6.16 3.94 7.98 9.74 8.7q5.11.63 9.63 3.46a.41.41 0 01.02.68c-6.7 4.88-11.66 13.96-9.97 22.08 2.38 11.42 19.95 11.22 27.56 5.42 6-4.57 10.36-8.51 18.22-12.37 9.16-4.49 19.16-7.84 28.77-11.39a1.57 1.55 41.7 01.96-.05c3.13.83 6.04 1.75 9.26 1.61q10.88-.49 20.42-5.95c4.8-2.75 4.46-9.49 5.54-14.2.74-3.25.48-6.25.63-9.54a.53.53 0 01.53-.51h4.31a.54.54 0 01.54.5M423.13 152.17c-.24 2.37 2.92 2.92 3.82 1.28q.54-.98 1.07.01 1.44 2.67 3.6.55a1.31 1.3 50.5 00.16-1.68l-3.7-5.29a1.05 1.04 33.9 01-.17-.83l1.27-6.08a.54.54 0 01.88-.3l3.5 3.03a1.07 1.05-68.7 01.36.84l-.21 7.24a1.8 1.79 4.8 001.55 1.83q1.84.26 2.74-1.3a1.8 1.79-30.4 00.25-.95l-.01-.53q-.02-1.05.75-.34l1.61 1.52a.87.85-30.8 00.82.2q1.86-.52 1.89-2.57a1.32 1.31-66.4 00-.36-.93l-1.26-1.32a.41.41 0 01.15-.67l1.67-.64a1.08 1.08 0 00.69-.84q.34-2.11-1.62-3.08-.39-.2-.82-.22-3.75-.15-6.88-2.21a.82.81 49.9 01.12-1.43l4.99-2.18a.85.83 54.3 01.91.16c1.65 1.52 2.71 3.7 5.58 3.25a.74.74 0 00.6-.53q.57-2.16-.93-3.93a1.39 1.38-65.7 01-.34-.91c.02-1.75 1.77-2.98-.16-4.51a1.41 1.34 63.1 00-.85-.3l-2.3-.04a.54.54 0 01-.5-.73l1.06-2.75a.77.76 25.8 00-.33-.93l-1.52-.9a1.18 1.18 0 00-1.72.64c-1.74 5.24-1.97 9.19-8.69 9.87a.48.47 84.7 01-.52-.44q-.28-3.42 1.02-6.58.2-.48.2-1.01v-2.02a.99.99 0 01.48-.85l3.72-2.15a.83.82-21.9 00.39-.9q-.71-3.15-3.7-2.25a.61.61 0 01-.78-.51l-.15-1.29a.73.73 0 00-.5-.6c-2.69-.87-2.52 1.45-3.24 3.03a.34.34 0 01-.56.09c-1.63-1.75-6.1-3.14-5.65.91a1.37 1.35-88.4 001.12 1.2c5.47.94 3.86 5.88 3.59 9.56q-.04.5-.44.2l-6.59-4.81a.56.56 0 01-.13-.77q1.17-1.67-.1-3.07a1.54 1.53-67.8 01-.39-.94l-.24-4.38a.82.81-81 00-.51-.71c-3.73-1.51-3.05 4.62-3.25 6.56a.35.35 0 01-.51.27l-3.98-2.16a.96.96 0 00-1.38 1.09c.88 3.27-2.32 3.8-.86 6.48a.92.91 69.4 001 .46l4.53-1.03a.66.65-34.5 01.5.09l9.87 6.9a.65.65 0 01-.09 1.11l-4.87 2.42q-.47.23-1 .21-.71-.03-1.43-.13c-2.99-.43-6.83-6.57-8.89-1.78a1.41 1.4-73.6 001.06 1.95c.42.07 2.94.47 2.72 1.5a.64.64 0 01-.76.48q-2.44-.53-2.83 1.72a1.11 1.09-67.2 00.43 1.08q2.15 1.6 4.76.41a.59.59 0 01.76.22c.49.75-.83 2.49-1 3.49a.94.94 0 00.28.85c3.42 3.19 4.85-1.71 4.83-4.18a.98.97-13.4 01.54-.87l5.38-2.67a.44.44 0 01.63.39l-.03 5.52a.82.79 77 01-.42.7c-2.19 1.14-6.05 3.73-3.77 6.17a.85.84 54.2 001.03.17l1.65-.91q.47-.25.41.28M485.31 185.35l-.2-1.62a1 .98 4.5 00-.72-.83q-2.8-.8-3.27 1.64a.47.46-83.2 01-.46.37l-2.65-.05a1.2 1.2 0 00-1.13 1.67q.96 2.27 3.32 2.96a1.2 1.19 87.9 01.77.72q1.77 4.75 1.49 9.86a.49.49 0 01-.53.46q-3.15-.27-5.68-2.13a1.61 1.59-81.1 01-.59-.82c-.71-2.23-1.04-7.06-3.69-7.54a1.05 1.04 28.6 00-.89.26c-1.99 1.83-.29 2.86-.66 4.76a.58.57 10.4 01-.66.45q-2.94-.5-3.61 2.23a.95.94 34.8 00.14.76l.9 1.33a.74.73 45.8 01-.01.83l-1.84 2.62a1.18 1.16-35.6 00-.17.97q.51 1.85 2.29 2.05a1.15 1.12 24.5 00.97-.35l3.32-3.55a.76.75 33.6 01.87-.17l4.3 2.01a1.21 1.21 0 01-.13 2.25l-7.02 2.34q-2.27.76-1.18 2.89.5.99 1.49 1.51a.48.48 0 01.19.67l-1.37 2.35a.83.82-61.1 00.33 1.15l2.08 1.07a.85.85 0 001-.16l1.89-1.89a.43.42-30.6 01.71.18l.64 2.28a1.53 1.52-22.5 002.22.91c1.88-1.07 1.28-6.58.88-8.41a.85.84 62.4 01.25-.81l3.84-3.58a.28.28 0 01.44.06q1.86 3.28 1.57 7.05a1.78 1.76 68.2 01-.42 1l-3.05 3.53a2.1 2.1 0 00.38 3.09q1.75 1.24 3.02-.57a.64.64 0 01.88-.17q3.04 2.05 3.99-1.29a.42.42 0 01.65-.23l1.58 1.1a.59.58 30.5 00.86-.22l1.06-2.15a.77.77 0 00-.19-.92l-4.37-3.68a1.4 1.39-70.9 01-.49-1.02l-.15-5.56q-.03-1.04.74-.34 2.17 1.97 5.04 2.65a.97.96.1 01.71.7q.41 1.58.61 3.2c.51 4.15 6.2 3.57 4.13-.78q-.45-.94-.52-2.03-.05-.67.52-.32 2.12 1.31 4.61.77a.93.92 1.6 00.69-.65q.85-2.99-2.15-3.42a.45.45 0 01-.38-.43l-.01-.27a.44.43-9.7 01.31-.43l2.42-.71a.8.8 0 00.55-.98l-.49-1.74a.77.77 0 00-.79-.56l-3.09.15a1.13 1.1-71.7 00-.79.41c-3.82 4.9-7.05 2.1-11.27.2a.31.31 0 01-.07-.53l6.07-5.04a1.33 1.33 0 01.91-.29c2.01.11 5.61 1.78 6.93-.76a1.08 1.05-46.4 00-.01-.98l-.96-1.81a.98.97 43.3 01-.03-.85q1.07-2.42-.54-4.4a.69.69 0 00-1.05-.02q-1.77 1.97-2.94-.23a1.14 1.14 0 00-.77-.58c-3.4-.76-3.93 2.87-3.91 5.8a1.05 1.04 70.9 01-.41.85l-4.8 3.7a.38.38 0 01-.61-.24l-.88-5.67a1.76 1.76 0 01.16-1.03q1.35-2.72 4.44-2.88a.95.94 8.2 00.85-.63q.51-1.44-.33-2.71a.95.93 74.3 00-.71-.41q-2.81-.18-4.72 1.84-.55.59-.65-.21"/><path stroke="#fdfef0" vector-effect="non-scaling-stroke" d="M296.69 237.52q.41-3.11-.35-.17a.1.09 17.5 00.07.12l.24.08a.03.03 0 00.04-.03"/><path stroke="#8a8c7d" vector-effect="non-scaling-stroke" d="M123.19 272.05a.59.59 0 01-1.09.28q-1.85-2.97-5.04-1.58a.57.57 0 00-.23.85q1.76 2.44-.9 3.69a.67.66-28.4 00-.29.95l.85 1.41a.83.82-20.5 00.85.38l4.4-.76a1.22 1.21 58 01.93.22l9.56 6.85a.63.62-34.9 01-.2 1.11c-2.09.57-4.5 2.47-6.63 2.32-3.66-.26-3.87-4.14-8.57-3.23a.83.83 0 00-.66.72l-.19 1.67a.67.67 0 00.47.71l2.19.67q1.08.34.07.84l-1.7.86a1.33 1.33 0 00-.61.61c-1.71 3.61 3.88 3.16 5.58 2.18q.54-.31.54.31 0 1.35-1.14 2.09a.89.89 0 00-.39.84q.23 2.04 2.1 2.71a1.02 1-55.8 001.01-.2q2.29-2.04 1.55-5.17a.68.68 0 01.4-.79l6.83-2.91q.76-.32.63.49l-.9 5.79a1.02.99 81.6 01-.54.75c-1.54.78-6.81 4.17-3.64 6.21a.86.84 52.3 00.72.1l2.75-.85q.89-.28.65.63-.31 1.19.6 1.65a1.09 1.06-48.5 001.07-.08q1.99-1.37 3.52.7a.67.67 0 001.08 0l1.33-1.79a.85.85 0 000-1.02l-3.6-4.88a1.43 1.42-57.2 01-.24-1.13l1.37-6.16q.2-.88.85-.26l3.31 3.15a1.02.99 22.8 01.31.72v7.67a.82.81-88.1 00.76.82l2.12.16a.82.82 0 00.88-.71l.34-2.58q.12-.87.48-.07c1.98 4.34 7.93 1.25 3.47-2.45a.59.59 0 01.15-.99l1.65-.7a.91.88 82.3 00.54-.73c.38-3.85-7.27-3.28-9.28-6.15a.43.43 0 01.24-.67q2.69-.73 4.65-2.67a.46.46 0 01.68.04c1.4 1.74 5.14 7.28 7.5 2.97a.96.95-47.6 00-.04-.99l-1.84-2.78a1.1 1.08 34.9 01-.16-.84q.17-.82.94-1.35a.64.64 0 00.21-.83l-.89-1.67a1.03 1.02 78.5 00-.81-.54l-2.7-.25a.6.6 0 01-.54-.54q-.1-1.07.56-1.91a1.21 1.19 58.2 00.23-1.02q-.39-1.61-2.07-1.94a1.71 1.7-77.8 00-1.98 1.28l-1.62 6.96a.89.89 0 01-.6.64l-4.93 1.45a1.32 1.32 0 01-1.67-1.49l1.44-8.27a1.25 1.24 81.7 01.66-.89l3.6-1.8a1.06 1.03 79.5 00.57-.85q.19-2.21-1.93-2.73a1.43 1.41-48.9 00-.94.07l-.98.41a.5.49-16.7 01-.68-.36l-.26-1.38a.67.66-6.7 00-.7-.55l-1.85.12a.91.89-86.3 00-.83.74l-.32 1.75q-.12.66-.63.23l-1.51-1.3a1.76 1.71-20.2 00-.88-.39c-1.35-.19-4 .72-3.16 2.56a1.3 1.28-1.5 00.73.68q6.68 2.48 3.87 9.65a.45.45 0 01-.68.21l-6.33-4.4a.9.89-71.4 01-.38-.77q.18-4.31-.86-8.55a.66.66 0 00-.63-.5l-1.57-.01a.69.69 0 00-.69.65l-.29 5.91"/><path stroke="#fdfef0" vector-effect="non-scaling-stroke" d="M497.645 413.78a3 .66 36.4 00-2.023-2.311 3 .66 36.4 00-2.807-1.25 3 .66 36.4 002.023 2.312 3 .66 36.4 002.807 1.25M341.03 488.47q1.54.83 2.51.36.47-.22-.04-.29l-1.52-.22a.55.55 0 01-.42-.78c.47-1.01.75-4.96-1.42-4.23a.44.43-32.1 00-.17.72q1.58 1.52.76 3.62a.66.65 25.3 00.3.82"/><path stroke="#565758" vector-effect="non-scaling-stroke" d="M246.46 163c.14-1.5-.23-4.18 1.67-4.52a.7.67 70.5 01.74.37l1.34 2.65"/><path stroke="#626263" vector-effect="non-scaling-stroke" d="M250.21 161.5l1.31 3.69a.91.9-5 00.7.58c3.85.63 3.63-3.27 5.07-5.52"/><path stroke="#565758" vector-effect="non-scaling-stroke" d="M257.29 160.25q1.05-.52 1.58.19a1 1 0 01.18.8q-.59 3.01 2.57 3.32a2.02 1.99 13.7 002.05-1.23q.86-2.07 3.04-2.83"/><path stroke="#626263" vector-effect="non-scaling-stroke" d="M266.71 160.5l1.61 5.35a.83.82 86 00.66.58l5.94.98a1.65 1.58 36.3 00.93-.12q6.33-2.93 8.88-9.57"/><path stroke="#565758" vector-effect="non-scaling-stroke" d="M284.73 157.72q2.47-4.94 2.48-10.56a.35.35 0 01.6-.24c.47.49.2 8.01.28 9.37a.5.49 81.5 00.6.45l2.22-.5a.79.79 0 00.6-.6l1.23-5.17a.45.45 0 01.59-.32l.42.14"/><path stroke="#8d8d8d" vector-effect="non-scaling-stroke" d="M293.75 150.29v2.42"/><path stroke="#565758" vector-effect="non-scaling-stroke" d="M293.75 152.71l.25 1.08"/><path stroke="#8d8d8d" vector-effect="non-scaling-stroke" d="M294 153.79l.42 4.22a.56.56 0 00.67.49q.44-.09.7-.75"/><path stroke="#565758" vector-effect="non-scaling-stroke" d="M295.79 157.75l2.88-2.84a.49.49 0 01.84.37c-.04.89-.68 1.41-.52 2.33 1.02 6.1 13.17-4.49 14.56-6a.36.36 0 01.58.07l.91 1.57"/><path stroke="#626263" vector-effect="non-scaling-stroke" d="M315.04 153.25l6.25 12.66a1.65 1.63-88.2 00.65.7l3.31 1.93"/><path stroke="#565758" vector-effect="non-scaling-stroke" d="M325.25 168.54l2 2.5"/><path stroke="#626263" vector-effect="non-scaling-stroke" d="M327.25 171.04q2.71 3.73 7.06 7.4 11.69 9.84 23.44 19.6"/><path stroke="#565758" vector-effect="non-scaling-stroke" d="M357.75 198.04l5.75 4.92"/><path stroke="#626263" vector-effect="non-scaling-stroke" d="M363.5 202.96q20.55 14.97 41.59 29.25 11.81 8.01 21.12 18.82c5.84 6.77 8.29 13.13 11.3 21.96.67 1.94.03 3.57-.2 5.54a1.81 1.73 70.3 01-.42.94q-3.66 4.13-5.14 9.47a1.16 1.14 36 00.16.97q.95 1.36 2.8 1.59"/><path stroke="#565758" vector-effect="non-scaling-stroke" d="M434.71 291.5l12.04 3.96"/><path stroke="#626263" vector-effect="non-scaling-stroke" d="M446.75 295.46q3.72 1.27 6.32 4.25a1.13 1.12-60.5 01.26.95q-.6 3.31-3.85 4.28a.34.34 0 00.03.66c9.92 1.99 19.89 2.35 29.84 3.72q5.32.73 10.75 1.23"/><path stroke="#565758" vector-effect="non-scaling-stroke" d="M490.1 310.55q4.01 1.3 8.33 1.16a.47.47 0 00.45-.53q-.49-4.35-2.09-8.43"/><path stroke="#626263" vector-effect="non-scaling-stroke" d="M496.79 302.75c-2.41-7.85-6.11-21.71-11.6-27.68-1.56-1.69-2.17-3.39-3.43-5.34-18.92-29.49-46.15-48.53-73.68-68.93-14.76-10.93-31.93-19.01-45.5-31.14q-7.96-7.12-14.33-11.45"/><path stroke="#565758" vector-effect="non-scaling-stroke" d="M348.25 158.21q-12.96-9.88-19.69-17.27-8.14-8.95-13.8-13.28"/><path stroke="#626263" vector-effect="non-scaling-stroke" d="M314.76 127.66c-5.31-5.29-15.73-3.61-22.22-1.92q-18.98 4.95-26.79 7.26c-8.86 2.6-22.09 7.48-27.54 13.91-2.24 2.63-2.69 5.68-3.69 8.99-1.27 4.19 1.06 8.88 3.33 12.3a.81.8 73 00.67.36l5.66-.08a1.68 1.66 26.4 00.94-.31q2.32-1.67 1.34-5.17"/><path stroke="#9d9fa1" vector-effect="non-scaling-stroke" d="M314.76 127.66q-4.54-1.53-9.16-2.2c-2.23-.33-4.1.53-6.44.59q-3.18.09-4.77.48c-7.88 1.96-15.54 4.53-23.41 6.46q-4.26 1.04-8.48 2.21c-5.38 1.5-10.33 4.86-15.72 6.98-2.58 1.01-4.28 2.9-6.53 4.45-4.29 2.95-3.19 6.83-5.1 11.24a1.5 1.49 50.1 00-.08.95q.99 4.28 3.39 7.95a1.03 1.03 0 00.83.45c2.82.05 6.48.98 5.99-3.58a.75.75 0 01.39-.75q.39-.21.79.11M348.25 158.21q-.31.05-.55.21a.51.51 0 00-.11.74c1.96 2.41 4.95 4 6.72 5.37 3.33 2.58 6.3 4.77 9.74 7.85 6.05 5.41 13.49 10.27 20.74 14.72q5.42 3.34 7.83 5.04c8.65 6.12 17.91 11.91 25.96 18.35q5.74 4.59 11.42 9.26c3.76 3.09 9.01 5.91 12.89 9.53q5.92 5.53 18.12 17.21 3.72 3.56 6.09 7.04c1.29 1.91 3.05 3.3 4.44 5.18 3.3 4.45 8.37 10.33 10.07 15.56a1.29 1.28-85.1 00.59.71c2.26 1.23 3.72 2.64 4.44 5.32q1.43 5.29 4.05 10.05c2.17 3.95 2.68 8.38 4.66 12.49a.88.87-12 00.75.48q.57.03.69-.57M490.1 310.55q-5.5-2.08-13.1-2.81-9.9-.94-19.82-1.61-2.62-.18-3.29-2.53a1.28 1.26-39.9 01.09-.93c2.07-3.98-3-6.29-6.02-7.99a.79.78 40.6 00-.87.06q-.3.23-.34.72M434.71 291.5c-5.07-7.86 10.31-12.71 3.17-22.12-2.98-3.92-3.28-9.73-5.4-12.61q-11.54-15.65-27.59-26.59c-1.83-1.25-2.61-3.29-5.02-4.37-6.52-2.94-9.48-6.41-15.3-9.63-2.05-1.12-5.05-3.58-8.02-5.44-.31-.2-12.36-11.34-13.05-7.78M357.75 198.04q.34-.03.65-.22a.66.66 0 00.27-.78c-.64-1.68-5.17-4.2-6.71-5.57-7.8-6.93-15.87-13.4-23.53-20.49a.82.81-34.2 00-.87-.16q-.17.07-.31.22M325.25 168.54q.4.01.58-.22a.52.51 37.5 00-.1-.74c-4.71-3.31-6.23-8.78-7.87-14.03a1.54 1.54 0 00-1.89-1.02q-.62.18-.93.72"/><path stroke="#c8cacb" vector-effect="non-scaling-stroke" d="M295.79 157.75q-.89-1.54-.56-3.21a.67.66-71.9 00-.37-.73q-.37-.18-.86-.02M293.75 152.71q1.01.33 1.52-.79a1.19 1.19 0 00-.68-1.62q-.42-.15-.84-.01"/><path stroke="#9d9fa1" vector-effect="non-scaling-stroke" d="M284.73 157.72l.02-.59a.88.86 16.9 00-.44-.8q-.89-.51-1.23.43c-.8 2.24-4.14 10.53-7.63 7.98a.38.38 0 00-.49.03l-.45.42a.9.88-65.8 01-.64.25l-3.91-.16a.82.8-7.5 01-.75-.56l-1.38-4.33a.55.55 0 00-.68-.37q-.29.08-.44.48M257.29 160.25q.04-.51-.47-.53a.56.55 12.8 00-.54.33l-2.05 4.78q-.59 1.38-.99-.07l-1.21-4.34a.63.63 0 00-.97-.34q-.8.58-.85 1.42"/><path stroke="#626263" vector-effect="non-scaling-stroke" d="M185.9 131.37c-6.33-3.52-15.05-2.53-15.59 6.23a.74.73 80.7 001.01.73l14.51-5.87a.61.61 0 00.07-1.09M198.35 133.71c-1.96 1.92-3.34 4.33-3.76 7a.66.66 0 00.96.68l14.91-7.97a.32.32 0 00-.16-.6l-11.2.56a1.21 1.17 20.3 00-.75.33"/><path stroke="#565758" vector-effect="non-scaling-stroke" d="M233.75 139.71l5.54-3.6a.46.46 0 00-.19-.85q-4.43-.61-8.47.02"/><path stroke="#626263" vector-effect="non-scaling-stroke" d="M230.63 135.28q-2.19-.48-4.14.12a1.17 1.15-87 00-.72.66q-2.22 5.3-2.86 11.01a1.31 1.3 29.9 00.26.94l2.59 3.33q1.86 2.39 2.3-.6 1.06-7.13 5.69-11.03"/><path stroke="#9d9fa1" vector-effect="non-scaling-stroke" d="M230.63 135.28q-7.01 3.77-6.01 12.02a.58.58 0 00.63.51l1.54-.11a.8.79 2.3 00.72-.66q.88-5.31 5.56-8.09a.45.45 0 01.68.39v.37"/><path stroke="#626263" vector-effect="non-scaling-stroke" d="M205.4 194.5h4.48q2.25.01 1.43-2.09l-12.15-30.89a.4.4 0 00-.78.17c.69 10.95-.64 23.03 6.1 32.34a1.14 1.14 0 00.92.47M176.45 194.16l6.66 3.08q.74.34.35-.37l-3.23-6.04q-.22-.4-.27-.85-1.38-11.29-.92-22.67.13-3.21-.75-.12-3.67 12.82-2.42 26.14a1.01.99-80.5 00.58.83M347.06 203.19c-5.07-5.5-25.1-27.51-32.18-26.64a1.08 1.08 0 00-.84 1.55q.9 1.8 2.46 2.9c2.73 1.93 30.82 22.74 30.88 22.69a.27.26-45.7 000-.39q-.12-.11-.32-.11M252.18 182.87q-1.42-1.68-1.15-3.89.12-.98-.5-.21l-3.59 4.36a.67.66 51.5 00-.08.74l3.53 6.77a.98.96 79.1 00.74.51c8.22.91 11.04-5.42 8.33-12.21a.75.74-13 00-.76-.47l-1.47.12a1.13 1.11 16.4 00-.79.42l-3.03 3.84a.8.79 44 01-1.23.02"/><path stroke="#8d8d8d" vector-effect="non-scaling-stroke" d="M282.21 190.75l.79 1.54"/><path stroke="#626263" vector-effect="non-scaling-stroke" d="M283 192.29l-.43 2.87q-.08.48.08.94.67 2.03.91 4.13c.18 1.59-.67 2.95-.11 4.84q.15.48.04.98-.65 3.14 1.6 5.41a.35.35 0 00.6-.22l1.52-16.24"/><path stroke="#8d8d8d" vector-effect="non-scaling-stroke" d="M287.21 195l.79-3.71"/><path stroke="#565758" vector-effect="non-scaling-stroke" d="M288 191.29l.46-.79"/><path stroke="#626263" vector-effect="non-scaling-stroke" d="M288.46 190.5q.72-.89.77-2.01a.59.58-82.3 00-.45-.6l-.79-.17a.59.59 0 01-.44-.73l.39-1.47a.51.5 10.9 00-.43-.63l-4.65-.56a.99.98-65.8 00-.88.34l-1.56 1.83a.73.73 0 00-.08.82l1.87 3.43"/><path stroke="#9d9fa1" vector-effect="non-scaling-stroke" d="M288.46 190.5q-1-.71-1.75 0"/><path stroke="#d4d5d5" vector-effect="non-scaling-stroke" d="M286.71 190.5q-2.4-.96-4.5.25"/><path stroke="#c8cacb" vector-effect="non-scaling-stroke" d="M286.71 190.5l1.29.79"/><path stroke="#d4d5d5" vector-effect="non-scaling-stroke" d="M287.21 195q-2.92.17-3.47-2.42a.43.42 79.5 00-.47-.33l-.27.04"/><path stroke="#626263" vector-effect="non-scaling-stroke" d="M400.63 250.34q-17.24-11.23-34.48-22.44-3.62-2.35-7.3-4.14a.26.26 0 00-.28.43c12.96 11.19 26.35 24.48 43.18 29.2a.56.56 0 00.69-.68q-.37-1.43-1.81-2.37M397.146 258.049a1.49.65 72.2 00.163-1.618 1.49.65 72.2 00-1.075-1.22 1.49.65 72.2 00-.163 1.618 1.49.65 72.2 001.075 1.22M360.96 262.16q-.78.59.2.59h1.35a.24.24 0 00.24-.24v-.26a.52.51.6 00-.5-.5q-.71-.03-1.29.41M290.25 303.96c-19.93 2.65-34.4 13.29-48.75 26.75-4.23 3.96-8.15 9.23-12.29 13.79"/><path stroke="#565758" vector-effect="non-scaling-stroke" d="M229.21 344.5q-5.04 6.01-9.1 12.88-.38.63.23.22 13.08-8.87 27.19-15.99a.36.36 0 01.42.56l-8.7 9.29"/><path stroke="#626263" vector-effect="non-scaling-stroke" d="M239.25 351.46c-4 4.53-7.66 9.61-11.69 13.72-7.7 7.82-14.67 12.96-21.27 20.29"/><path stroke="#565758" vector-effect="non-scaling-stroke" d="M206.29 385.47q-3.24 2.3-5.74 5.63a.34.34 0 00.18.53q12.47 3.41 25.27 5.08"/><path stroke="#626263" vector-effect="non-scaling-stroke" d="M226 396.71l11 1.58"/><path stroke="#565758" vector-effect="non-scaling-stroke" d="M237 398.29l-3.79 2.71"/><path stroke="#626263" vector-effect="non-scaling-stroke" d="M233.21 401l-8.03 2.37q-.54.16.01.27 3.51.72 5.32.67 11.3-.31 32.81-1.91"/><path stroke="#565758" vector-effect="non-scaling-stroke" d="M263.32 402.4c14.29-1.43 29.7-9.03 43.48-15.12q4.8-2.12 7.67-4.7a.44.43-48.7 00-.04-.68q-3.08-2.16-6.92-2.11-1.05.02-.05-.3 2.9-.93 5.64-2.23c6.15-2.93 11.73-1.22 17.25-6.48"/><path stroke="#626263" vector-effect="non-scaling-stroke" d="M330.35 370.78c3.16-2.61 5.02-8.84 6.29-12.33a1 .99 38.3 00-.11-.89q-1.52-2.3-4.28-1.27"/><path stroke="#565758" vector-effect="non-scaling-stroke" d="M332.25 356.29q-1.12-.69-.25-2"/><path stroke="#626263" vector-effect="non-scaling-stroke" d="M332 354.29c1.69-3.18 6.59-10.29.29-11.79"/><path stroke="#565758" vector-effect="non-scaling-stroke" d="M332.29 342.5q-8.47-2.65-17.39-2.59a.86.86 0 01-.77-.45c-.74-1.36 1.24-1.98 2.12-2.42"/><path stroke="#626263" vector-effect="non-scaling-stroke" d="M316.25 337.04c7.39-4.15 14.96-13.43 4.5-19.58"/><path stroke="#565758" vector-effect="non-scaling-stroke" d="M320.75 317.46l-.25-.36a.46.45-37 01.09-.62l1.2-.98"/><path stroke="#626263" vector-effect="non-scaling-stroke" d="M321.79 315.5q2.24-.8 2.99-1.31 2.18-1.47-.08-2.82-9.64-5.72-19.7-7.41"/><path stroke="#565758" vector-effect="non-scaling-stroke" d="M305 303.96q-7.37-1.28-14.75 0"/><path stroke="#9d9fa1" vector-effect="non-scaling-stroke" d="M305 303.96l-.38.04a.46.45-.1 00-.41.4c-.06.53 8.28 2.63 9.49 3.09 2.69 1.01 5.74 3.27 9.27 4.25a.75.75 0 01.13 1.4q-1.28.63-1.31 2.36M320.75 317.46q-.57-.12-.88.08a.61.6 59.6 00-.2.8q1.17 2.2 3.42 3.2a1.18 1.14 4.2 01.66.74c1.89 6.73-8.29 13.01-7.5 14.76M332.29 342.5q-.21 1.91 1.55 3.25a.61.61 0 01.17.74c-1.13 2.26-3.91 7.3-2.01 7.8M332.25 356.29l.98 5.29a1.43 1.41 53.6 01-.13.91q-2 3.93-2.75 8.29M263.32 402.4q-1.67-1.8-4.22-1.33c-7.19 1.32-15.04 1.62-22.34 2.23q-2.32.2-3.55-2.3M237 398.29q.67.11 1.34-.12.52-.18.05-.47c-2.38-1.5-9.56-1.62-12.02-1.68a.36.36 0 00-.37.37v.32M206.29 385.47q2.98-1.64 5.86-3.4 2.81-1.72 5.3-4.13 12.14-11.79 23.04-24.92a.74.74 0 00.05-.88q-.45-.67-1.29-.68M229.21 344.5q.2.59.67.72a.8.8 0 00.83-.26q11.4-13.91 25.79-24.71c1.71-1.28 3.72-1.03 5.14-1.99 1.34-.92 1.61-2.04 2.88-2.91q5.22-3.54 10.88-6.22c4.64-2.19 10.14-2.92 15.29-3.93a.57.57 0 00.38-.86q-.3-.47-.82-.38"/><path stroke="#626263" vector-effect="non-scaling-stroke" d="M448.25 333.29c-9.88-.68-13.72-2.95-21.25-5.5"/><path stroke="#565758" vector-effect="non-scaling-stroke" d="M427 327.79l-9.49-2.34a.36.36 0 00-.45.37c.1 1.8 1.25 2.88 1.91 4.05 3.71 6.54 11.88 14.34 20.02 13.58 8.81-.81 13.99-4.35 20.78-9.87a.36.35-65.3 00-.23-.63l-11.29.34"/><path stroke="#9d9fa1" vector-effect="non-scaling-stroke" d="M427 327.79q-.35.88.02 1.64a1.11 1.09-5.3 00.71.58c6.98 1.79 12.01 3.74 21.24 4.58q.53.05.25-.41l-.16-.25a1.07 1.04-4.4 00-.5-.42q-.18-.06-.31-.22"/><path stroke="#565758" vector-effect="non-scaling-stroke" d="M100.32 366.6q.98-.47 2.18-.41a.3.29 17.4 01.24.45q-2.67 4.37-4.1 9.3a.56.55-85.5 00.6.71q8.11-1.03 15.86-3.53a.48.48 0 01.62.39q.13.95-1.05 1.85"/><path stroke="#626263" vector-effect="non-scaling-stroke" d="M114.67 375.36q-9.09 4.19-16.26 10.86c-9.47 8.8 6.61 11.8 12.17 12.92q2.28.46 4.77 2.5a1.35 1.31-76.5 01.48.81l.87 5.13a1.6 1.57 18.7 00.43.85q4.13 4.16 10.12 4.36"/><path stroke="#565758" vector-effect="non-scaling-stroke" d="M127.25 412.79q2.5.52 5 0"/><path stroke="#626263" vector-effect="non-scaling-stroke" d="M132.25 412.79q9.85-1.94 19-6.08"/><path stroke="#565758" vector-effect="non-scaling-stroke" d="M151.25 406.71q18.24-6.49 30.03-21.64c1.13-1.45 2.08-3.83-.02-4.8q-5.63-2.6-11.77-3.86a.16.16 0 01-.01-.32l15.2-3.85"/><path stroke="#626263" vector-effect="non-scaling-stroke" d="M184.68 372.24c4 .17 11.69 0 13.81-2.26q6.5-6.94 11.42-15.01c3.14-5.16 6.35-9.3 9.55-13.97a.46.45 32.4 00-.15-.66q-12.99-7.14-26.37-8.98c-11.46-1.58-24.14-1.53-36.17.37-5.77.92-12.08 1.38-17.07 2.69q-7.62 2.01-14.86 5.2c-7.34 3.24-12.27 7.85-19.45 13.68-4.8 3.9-7.36 7.88-9.72 13.26a.44.43-71.3 00.29.6q2.18.51 4.36-.56"/><path stroke="#9d9fa1" vector-effect="non-scaling-stroke" d="M184.68 372.24q5.15-1.71 10.58-2.15a1.7 1.68-65.8 00.9-.35q5.29-4.09 9.05-10.79 1.2-2.14 3.89-4.41a1.89 1.8 80.9 00.55-.8c1.29-3.78 5.11-7.88 7.27-11.31a1.42 1.41 30.3 00-.53-1.99c-13.77-7.43-27.88-9.54-43.51-9.09-1.99.06-4.79.14-6.51.36-14.6 1.91-29.45 2.64-42.89 9.88-2.42 1.31-33.59 21.31-23.16 25.01M151.25 406.71q-1.91-.99-3.61-.12c-4.6 2.35-10.2 3.75-15.2 5.03a.64.63-8.9 00-.48.65q.02.36.29.52M127.25 412.79l.64-.05a.4.39-6 00.37-.45l-.05-.35a.6.6 0 00-.57-.52q-5.46-.19-9.6-3.68a1.27 1.23 19.9 01-.44-.9l-.14-3.97a1.55 1.54 25.2 00-.32-.88c-3.61-4.67-9.92-5.46-15.33-6.41-2.92-.51-6.44-4.09-3.52-7.05q4.85-4.92 8.15-6.86 5.69-3.34 8.23-6.31"/><path stroke="#626263" vector-effect="non-scaling-stroke" d="M461.04 361.34c4.76-.03 10.26-1.93 15.1-2.56 3.08-.39 4.56-2.21 4.93-5.09a.47.46 2.6 00-.48-.52q-12.13.6-24.08 2.77a.55.55 0 00-.44.55c.1 3.19 1.74 4.88 4.97 4.85"/><path stroke="#8d8d8d" vector-effect="non-scaling-stroke" d="M478.14 411.86q1.43 4.63 2.02 9.31.06.48.32.66.44.31.47-.23l.34-5.1"/><path stroke="#626263" vector-effect="non-scaling-stroke" d="M481.29 416.5q1.71-3.15 1.68-6.75a1.82 1.73-30.6 01.26-.92c2.19-3.56-2.76-5.67-5.58-5.17a1.12 1.1-80.3 00-.79.57q-.95 1.81.58 2.88a.53.52 37.8 01.1.76q-1.94 2.3.6 3.99"/><path stroke="#d4d5d5" vector-effect="non-scaling-stroke" d="M481.29 416.5l-1.37-2.11a.78.77-35 01.19-1.05l1.09-.8a1.16 1.14 82.1 00.41-.55l.24-.7a.48.48 0 00-.37-.63q-2.38-.46-3.34 1.2"/><path stroke="#565758" vector-effect="non-scaling-stroke" d="M174.3 440.47l3.2-1.43"/><path stroke="#626263" vector-effect="non-scaling-stroke" d="M177.5 439.04q7.03-3.5 33.18-17.16 4-2.09 1.84-5.93a1.34 1.3-4 00-.72-.61q-10.6-3.79-21.14-7.7-1.8-.66-2.68.81-10 16.75-16.55 29.26-.73 1.4-1.32 3.75-.14.55.39.36l3.8-1.35"/><path stroke="#9d9fa1" vector-effect="non-scaling-stroke" d="M177.5 439.04q-.41-.46-.24-1.06a1.05 1.04 86 01.6-.7q4.07-1.71 9.02-4.6 9.83-5.74 22.42-11.89a1.22 1.21 87.4 00.59-.65l1.26-3.21a.44.43 16.6 00-.32-.58c-3.76-.81-6.75-2.7-10.29-3.68-4-1.12-6.53-3.44-10.33-3.47a.85.83 14.3 00-.76.44c-1.65 2.98-3.99 5.82-5.48 8.52q-4.65 8.46-9.06 17.06c-.61 1.2-1.92 2.08-2.12 3.7a.42.42 0 00.43.47q1.12-.02 1.08 1.08"/><path stroke="#626263" vector-effect="non-scaling-stroke" d="M369.882 419.544a3.89 2.65 18.8 00-2.828-3.763 3.89 2.65 18.8 00-4.536 1.255 3.89 2.65 18.8 002.828 3.763 3.89 2.65 18.8 004.536-1.255M136.75 420.71q-6.81 1.5-13.29 4.04"/><path stroke="#565758" vector-effect="non-scaling-stroke" d="M123.46 424.75c-4.29 1.14-9.92 3.67-11.61 8.07a1.08 1.08 0 00.64 1.39c9.6 3.48 32.76-3.94 37.77-13.22a.39.39 0 00-.26-.56q-6.7-1.53-13.25.28"/><path stroke="#9d9fa1" vector-effect="non-scaling-stroke" d="M123.46 424.75q-.11.85.19 1.26a.95.95 0 001.26.26c3.12-1.85 5.55-2.84 9.09-3.51q1.86-.35 2.75-2.05"/><path stroke="#8d8d8d" vector-effect="non-scaling-stroke" d="M440.43 440.24l.37.9q.2.45.22.94l.52 11.42"/><path stroke="#626263" vector-effect="non-scaling-stroke" d="M441.54 453.5c-.19 12.07 1.55 22.87 2.71 34.31a.44.43 68 00.7.3c.38-.31.26-1.17.31-1.51q2.87-17.88 3.68-35.97.01-.12-.15-2.74c-.24-3.77 2.21-4.18 3.34-7.06a.8.79-64.4 00-.34-.99l-2.56-1.49a.5.49-37.7 01.12-.9c1.81-.5 4.33-.09 4.41-2.79a1.47 1.47 0 00-.31-.93q-1.39-1.79-3.51-2.62-.79-.3.02-.53 1.15-.33 2.31.1a1.21 1.2-46.7 00.93-.03q2.01-.9 1.81-3.17a1.71 1.69 9.7 00-1-1.39c-3.07-1.39-15.18-6.46-17.41-3.23a.79.79 0 00-.1.71l.42 1.3q.21.62-.43.47l-1.4-.32a.83.82-69.3 00-.91.42c-1.31 2.47-.15 4.13 2.34 4.89q3.66 1.11 7.34 2.58a.51.51 0 01.18.83c-1.21 1.24-10.28-1.06-9.1 3.82q.95 3.96 5.49 2.68"/><path stroke="#d4d5d5" vector-effect="non-scaling-stroke" d="M441.54 453.5l.19.34q.19.34.2-.04.03-.7.36-1.3"/><path stroke="#9d9fa1" vector-effect="non-scaling-stroke" d="M442.29 452.5q.73 1.72.29 3.53a1.6 1.59 40.9 00.07.94c.69 1.7-.24 6.24 2.06 5.78"/><path stroke="#d4d5d5" vector-effect="non-scaling-stroke" d="M444.71 462.75q.83.8 1.68.1a1.33 1.32-16.1 00.47-.84c.88-6.2.14-13.26.37-20.65.08-2.56 2.19-5.3-1.84-6.92a.4.39 15 00-.54.31c-.33 2.7-1.34 5.14-4.42 5.49"/><path stroke="#c8cacb" vector-effect="non-scaling-stroke" d="M444.71 462.75q-.19-8.61-.19-17.28c0-1.35-.35-2.01-1.9-1.42a.6.6 0 00-.38.68q.71 3.87.05 7.77"/><path stroke="#565758" vector-effect="non-scaling-stroke" d="M305.75 436.79c10.12 4.48 22.95 6.7 33.3 2.78 5.71-2.16 13.52-7.13 16.05-13.16a.69.67 32 00-.19-.79q-1.36-1.16-3.16-1.58"/><path stroke="#626263" vector-effect="non-scaling-stroke" d="M351.75 424.04c-15.02-2.61-36.58-2.49-49.07 6.62q-1.81 1.32-1.28 3.61a1.05 1.04 6.6 00.58.72l3.77 1.8"/><path stroke="#9d9fa1" vector-effect="non-scaling-stroke" d="M351.75 424.04q.04.32.27.53a.53.53 0 01.12.65c-.27.5-.71.61-1.27.46-7.65-1.91-14-1.57-22.89-1.09-5.75.3-11.53.85-16.56 3.36-2.39 1.2-5.87 1.69-8.06 4.38a1.26 1.26 0 00.59 1.99q2.24.72 1.8 2.47"/><path stroke="#626263" vector-effect="non-scaling-stroke" d="M244.42 436.39c4.4-1.99 12.34-6.62 15.74-11.45q.31-.45-.19-.26-22.22 8.35-44.97 15.05c-9.17 2.7-19.05 9.68-27.53 15.68q-.41.29.07.14c18.95-5.96 38.93-11.04 56.88-19.16"/><path stroke="#8d8d8d" vector-effect="non-scaling-stroke" d="M367.46 472.75l-.25.75"/><path stroke="#626263" vector-effect="non-scaling-stroke" d="M367.21 473.5q-1.08.94-.31 2.09.25.37.3.82l1.2 10.87a.39.39 0 00.78-.02q.37-5.52 1.8-11.02.1-.41-.08-1.32a.98.94-30.8 01.23-.84l1.77-2.02a.82.8-40.2 00.09-.95q-2.67-4.45 1.49-7.59a.59.59 0 00.18-.72c-1.23-2.73-6.66-2.8-9.21-2.79a.53.53 0 00-.53.51l-.03.71a.7.69-3.8 01-.57.64l-2.57.48a.47.46-17.2 00-.34.64q.81 1.94 2.88 1.7a.65.65 0 01.72.65l-.01 1.65q-.01.5.21.95l2.25 4.81"/><path stroke="#d4d5d5" vector-effect="non-scaling-stroke" d="M367.21 473.5l.06.79a.76.75-85.3 00.57.68c3.53.92 2.14-9.1 2.06-10.88a1.12 1.12 0 00-1.23-1.06c-2.37.23-1.75 3.55-.82 5.24a1.43 1.41-55.2 01.16.92l-.55 3.56"/><path stroke="#565758" vector-effect="non-scaling-stroke" d="M193.25 480.79l-1.46.36q-.59.15-.41-.43.07-.23.37-.43"/><path stroke="#626263" vector-effect="non-scaling-stroke" d="M191.75 480.29l8.91-16.67a.52.52 0 00-.72-.69q-13.75 8.23-27.9 15.34c-6.86 3.45-9.52 10.08-13.1 16.44a.68.68 0 00.65 1.01q10.93-.9 22.46.14.69.06 1.37.29a.83.83 0 00.91-.28l12.32-16.01a.42.42 0 00-.54-.63l-2.86 1.56"/><path stroke="#9d9fa1" vector-effect="non-scaling-stroke" d="M191.75 480.29c-3.37-.75 3.9-10.63 4.68-11.54a.84.82-35.8 00.15-.86c-.45-1.13-1.9-.71-2.78-.17q-9.5 5.82-19.39 11.03c-6.35 3.35-10.18 7.9-13.24 14.05a1.02 1.02 0 00.93 1.48c6.81-.12 13.82-1.2 20.6.56a.88.87-59.4 00.84-.22c1.96-1.88 3.35-4.18 5.18-6.15q3.07-3.32 4.53-7.68"/><path stroke="#565758" vector-effect="non-scaling-stroke" d="M296.24 465.66q1.57 1.36 3.58 1.65a.59.59 0 00.46-1.03l-3.93-3.32q-.89-.75-.98.41l-.15 1.85a.26.26 0 00.26.28h.32a.69.68-24.7 01.44.16"/><path stroke="#626263" vector-effect="non-scaling-stroke" d="M253.24 481.22q-2.72-.61-3.35-3.35a.42.42 0 00-.59-.28c-.67.33.12 14.34.35 17.54q.04.51.44.19c2.1-1.65 1.52-4.2 1.58-6.41.05-2.31 1.99-4.33 2.04-7.1a.59.59 0 00-.47-.59"/><path stroke="#565758" vector-effect="non-scaling-stroke" d="M108.83 481.23a1.12.39 76.6 00.12-1.18 1.12.39 76.6 00-.64-1 1.12.39 76.6 00-.12 1.18 1.12.39 76.6 00.64 1"/><path stroke="#c8cacb" vector-effect="non-scaling-stroke" d="M301.85 146.41l.83.91a.41.41 0 00.61-.01q1.06-1.26 1.25-2.92a1.41 1.38 70.1 01.37-.81c2.15-2.25 5.34-5.52 2.23-7.8a1.05 1.01-32.4 00-.83-.17l-2.86.66a1.38 1.35 56.2 01-1.14-.24l-1.51-1.13a.39.39 0 00-.57.1l-1.43 2.24a.61.61 0 01-.77.23l-2.56-1.21q-.92-.44-.6.53.95 2.87 1.9 5.78c.77 2.33-.03 4.66 1.56 7.07a.4.4 0 00.67-.01l1.99-3.14a.55.55 0 01.86-.08"/><path stroke="#c8cacb" vector-effect="non-scaling-stroke" d="M294.638 146.267a3.95 1.17 78.2 00.337-4.106 3.95 1.17 78.2 00-1.953-3.627 3.95 1.17 78.2 00-.337 4.105 3.95 1.17 78.2 001.953 3.627M273.26 152.5l.57 1.68q.4 1.18.67-.04c.51-2.4 1.3-12.81-.95-14.35q-.34-.23-.27.17l.7 4.59a.59.59 0 01-1.04.47c-1.19-1.45-1.63-4.51-3.85-4.72a.52.51-81.5 00-.56.42l-.58 3.13a.52.51 12.3 01-.63.4q-3.78-.89-4.29-4.48a.39.38 41 00-.77.05c.02 4.93 2.64 7.99 3.4 13.31a.62.61-3.2 00.6.53c1.41.02 1.74-3.48 1.99-4.33q.33-1.14.73-.02l.89 2.51a.6.6 0 00.59.39l2.17-.13a.63.62 78.3 01.63.42M261.8 153.58q.44-4.55-2.44-8.12-.55-.68-.47.18c.11 1.19.53 9.06 2.21 8.72a.88.88 0 00.7-.78"/><path stroke="#9d9fa1" vector-effect="non-scaling-stroke" d="M204.4 190.37l1.04 2.75a.63.63 0 00.71.39l3.12-.6a.38.37-16.1 00.28-.49c-1.37-3.88-3.79-7.5-4.85-11.18q-1.25-4.31-2.29-8.71a.56.55-45.3 00-1.08.01q-.42 1.8.5 3.37a.71.71 0 01.02.67l-.14.29a1.2 1.19-43.6 00-.03 1.03c.46 1.05 2.06 5.87.88 6.6a.78.77 74.9 00-.36.64q-.08 2.63 1.75 4.52.29.31.45.71"/><path stroke="#c8cacb" vector-effect="non-scaling-stroke" d="M257.2 336.52l3.58-.03a.75.75 0 01.7 1.02l-.7 1.82a.59.59 0 00.3.75c2.37 1.13 5.02 1.02 7.16 1.63 5.5 1.56 10.61 3.62 16.43 2.21 10.05-2.42 18.59-7.01 21.88-17.25 2.2-6.85.78-14.27-7.78-14.67-15.19-.7-37.23 6.21-43.02 22.49a1.52 1.52 0 001.45 2.03M307.94 353.2a8.91 3.15-13.9 00-9.407-.918 8.91 3.15-13.9 00-7.892 5.198 8.91 3.15-13.9 009.406.918 8.91 3.15-13.9 007.892-5.198"/><path stroke="#c8cacb" vector-effect="non-scaling-stroke" d="M292.572 338.652a1.15.96 30.4 00-.506-1.41 1.15.96 30.4 00-1.478.246 1.15.96 30.4 00.506 1.41 1.15.96 30.4 001.478-.246M141.6 351.3c2.65 9.94 40.42 3.85 47.94 2.06 3.31-.79 10.59-4.75 5.88-9.15-5.82-5.44-13.36-4.98-22.67-5.19-9.87-.23-23.99 3.39-30.94 11.4a.96.95 58.9 00-.21.88M127.96 359.607a6.69 4.87-4.4 00-7.044-4.343 6.69 4.87-4.4 00-6.296 5.37 6.69 4.87-4.4 007.044 4.342 6.69 4.87-4.4 006.296-5.37"/><path stroke="#d4d5d5" vector-effect="non-scaling-stroke" d="M447.946 429.325a2.46 1.26 24.1 00-1.732-2.155 2.46 1.26 24.1 00-2.76.145 2.46 1.26 24.1 001.731 2.155 2.46 1.26 24.1 002.76-.146"/></g><path fill="#919496" d="M0 0h591v2.56q-.28-2.76-.76-1.81-1.47.03-2.24.03Q294 .97 0 .94V0z"/><path fill="#fff" d="M591 2.56V591H8.19q-2.38-.63-4.75 0H0v-1.06q4.12.13 8.25.14 290.72.17 581.33.17a.68.67 90 00.67-.68L590.24.75q.48-.95.76 1.81z"/><path d="M590.24.75l.01 588.82a.68.67-90 01-.67.68q-290.61 0-581.33-.17-4.13-.01-8.25-.14V.94q294 .03 588-.16.77 0 2.24-.03zm-4.74 4.77a.26.26 0 00-.26-.26H5.5a.26.26 0 00-.26.26v579.72a.26.26 0 00.26.26h579.74a.26.26 0 00.26-.26V5.52z"/><path fill="#fafde0" d="M585.5 585.24a.26.26 0 01-.26.26H5.5a.26.26 0 01-.26-.26V5.52a.26.26 0 01.26-.26h579.74a.26.26 0 01.26.26v579.72zM31.71 29.44q-1.65 7.06-1.67 14.31c-.02 3.91-1.2 39.28.17 39.88a.82.82 0 00.89-.17q28.32-28.1 56.43-56.08c2.03-2.03 3.97-4.38 5.88-6.51a.94.94 0 00-.65-1.56c-13.82-.81-27.51-.47-41.34-.33q-5.89.06-9.17 1.27c-4.09 1.52-9.46 4.55-10.54 9.19zM273.47 176c2.01 22.95 3.42 46.15 7.67 68.8a.4.4 0 00.79-.02c.28-2.03.44-3.91 1.14-5.87q4.03-11.34 5.45-23.32c.71-5.98 2.61-12 3.5-17.44q1.03-6.33 2.09-12.79a.65.65 0 011.06-.4c5.73 4.76 5.79 9.4 5.85 16.37.07 6.85 1.52 13.3 1.43 20.28q-.04 2.64.76.13 3.27-10.21 5.33-20.75.12-.62.48-.1 1.03 1.47 2.02 3.85c5.82 13.9 8.73 25.64 10.5 41.71 1.46 13.22 2.47 28.37 6.52 41.03 1.96 6.14 5 10.27 6.47 15.29a.44.43-79.4 01-.68.47c-11.13-8.61-28.76-9.03-41.98-7.3-12.12 1.58-20.72 5.26-30.55 12.13q-17.18 11.99-31.6 27.22a.8.79 35.1 01-.95.16q-20.79-10.75-44.52-11.18c-18.19-.34-38.86.77-56.13 6.43q-26.81 8.78-46.42 29.73c-4.71 5.03-3.76 10.66-3.42 17.23q.19 3.72 1.09 7.59 7.45 31.92 11.8 64.43c3.35 25.07 1.9 51.58-.66 76.7q-.05.56.42.26 17.84-11.16 33.18-25.58.68-.64.34.22l-5.71 14.77a.53.53 0 00.57.72c14.14-1.93 28.38-3.03 42.65-4.34q10-.91 20.05-.03c6.32.56 12.26-1.12 15.51-6.4 8.9-14.42 13.14-21.73 24.28-30.94 3.18-2.63 15.26-.07 19.12.99a.71.69 89 01.49.49c2 7.46 2.65 15.7 4.16 22.54q1.84 8.38 3.24 16.86.37 2.22 1.46 3.8a.42.42 0 00.76-.2q1.78-19.67 6.52-38.83a.59.58-80 01.63-.45q12.62 1.43 25.16 3.44c4.2.67 8.48.74 12.78 1.12a.96.95 77.3 01.75.48q3.01 5.29 4.83 11.2.14.47.29 0 2.04-6.37 2.56-8.23.58-2.1 1.89-3.62a1.13 1.09 19.3 01.82-.38c6.06-.01 12.51-1.29 18-1.89 11.67-1.27 21.17-4.97 31.97-9.2a.46.45 71.2 01.6.3c1.46 5.08 2.5 10.17 4.39 15.14q4.1 10.74 6.88 21.87.13.49.22-.01 3.38-17.2 7.04-34.35c.76-3.51.84-7.79 1.8-11.67a1.26 1.25-9.6 01.54-.75q21.18-13.52 42.97-26.02a.44.44 0 01.65.26q6.82 23.38 12.04 47.17c2.09 9.52 5.02 18.51 7.66 27.83q.47 1.67 1.73 1.35a1.87 1.86-1.8 001.38-1.46c2.52-13.41 4.32-23 7.85-40.09 2.46-11.96 3.93-24.28 5.52-36.39.34-2.54 1.33-5.43 1.59-8.32q.23-2.54 1.02-4.98 1.46-4.55 1.26-9.49a.66.66 0 01.45-.65q3.91-1.34 6.66-4.48a.78.78 0 011.29.17c.66 1.32 1.51 2.8 1.72 4.3q2.31 16 6.36 31.65c.21.78.24 3.01.96 3.63a.78.78 0 001.27-.4c4.4-17.63 7.53-36.36 10.52-53.33a1.16 1.15 77.8 01.5-.78c14.37-9.82 25.16-19.17 34.1-33.95 3.9-6.43 2.32-12.37-1.22-18.57-3.97-6.96-9.23-14.7-11.82-21.98-2.35-6.63-3.94-14.7-5.75-20.2q-11.24-34.05-36.49-58.98c-17.85-17.62-35.66-29.9-58.17-43.96-13.24-8.26-28.37-18.92-38.58-25.46q-18.12-11.6-32.61-27.3c-6.57-7.12-14.32-18.35-22.21-27.03-3.33-3.67-7.05-6.38-11.6-7-21.18-2.9-43.4-1.83-67.04-.05-13.74 1.03-28.14 2.99-42.2 4.67q-7.4.88-15.42 2.4c-8.92 1.69-14.97 2.24-21.74 3.67-6.73 1.42-14.67-.36-18.06 6.52-4.81 9.77-5.79 18.17-2.4 28.33 2.18 6.51 5.76 15.29 5.89 20.71q.13 6.01.53 12.06c.4 6.16 3.94 7.98 9.74 8.7q5.11.63 9.63 3.46a.41.41 0 01.02.68c-6.7 4.88-11.66 13.96-9.97 22.08 2.38 11.42 19.95 11.22 27.56 5.42 6-4.57 10.36-8.51 18.22-12.37 9.16-4.49 19.16-7.84 28.77-11.39a1.57 1.55 41.7 01.96-.05c3.13.83 6.04 1.75 9.26 1.61q10.88-.49 20.42-5.95c4.8-2.75 4.46-9.49 5.54-14.2.74-3.25.48-6.25.63-9.54a.53.53 0 01.53-.51h4.31a.54.54 0 01.54.5zm149.66-23.83c-.24 2.37 2.92 2.92 3.82 1.28q.54-.98 1.07.01 1.44 2.67 3.6.55a1.31 1.3 50.5 00.16-1.68l-3.7-5.29a1.05 1.04 33.9 01-.17-.83l1.27-6.08a.54.54 0 01.88-.3l3.5 3.03a1.07 1.05-68.7 01.36.84l-.21 7.24a1.8 1.79 4.8 001.55 1.83q1.84.26 2.74-1.3a1.8 1.79-30.4 00.25-.95l-.01-.53q-.02-1.05.75-.34l1.61 1.52a.87.85-30.8 00.82.2q1.86-.52 1.89-2.57a1.32 1.31-66.4 00-.36-.93l-1.26-1.32a.41.41 0 01.15-.67l1.67-.64a1.08 1.08 0 00.69-.84q.34-2.11-1.62-3.08-.39-.2-.82-.22-3.75-.15-6.88-2.21a.82.81 49.9 01.12-1.43l4.99-2.18a.85.83 54.3 01.91.16c1.65 1.52 2.71 3.7 5.58 3.25a.74.74 0 00.6-.53q.57-2.16-.93-3.93a1.39 1.38-65.7 01-.34-.91c.02-1.75 1.77-2.98-.16-4.51a1.41 1.34 63.1 00-.85-.3l-2.3-.04a.54.54 0 01-.5-.73l1.06-2.75a.77.76 25.8 00-.33-.93l-1.52-.9a1.18 1.18 0 00-1.72.64c-1.74 5.24-1.97 9.19-8.69 9.87a.48.47 84.7 01-.52-.44q-.28-3.42 1.02-6.58.2-.48.2-1.01v-2.02a.99.99 0 01.48-.85l3.72-2.15a.83.82-21.9 00.39-.9q-.71-3.15-3.7-2.25a.61.61 0 01-.78-.51l-.15-1.29a.73.73 0 00-.5-.6c-2.69-.87-2.52 1.45-3.24 3.03a.34.34 0 01-.56.09c-1.63-1.75-6.1-3.14-5.65.91a1.37 1.35-88.4 001.12 1.2c5.47.94 3.86 5.88 3.59 9.56q-.04.5-.44.2l-6.59-4.81a.56.56 0 01-.13-.77q1.17-1.67-.1-3.07a1.54 1.53-67.8 01-.39-.94l-.24-4.38a.82.81-81 00-.51-.71c-3.73-1.51-3.05 4.62-3.25 6.56a.35.35 0 01-.51.27l-3.98-2.16a.96.96 0 00-1.38 1.09c.88 3.27-2.32 3.8-.86 6.48a.92.91 69.4 001 .46l4.53-1.03a.66.65-34.5 01.5.09l9.87 6.9a.65.65 0 01-.09 1.11l-4.87 2.42q-.47.23-1 .21-.71-.03-1.43-.13c-2.99-.43-6.83-6.57-8.89-1.78a1.41 1.4-73.6 001.06 1.95c.42.07 2.94.47 2.72 1.5a.64.64 0 01-.76.48q-2.44-.53-2.83 1.72a1.11 1.09-67.2 00.43 1.08q2.15 1.6 4.76.41a.59.59 0 01.76.22c.49.75-.83 2.49-1 3.49a.94.94 0 00.28.85c3.42 3.19 4.85-1.71 4.83-4.18a.98.97-13.4 01.54-.87l5.38-2.67a.44.44 0 01.63.39l-.03 5.52a.82.79 77 01-.42.7c-2.19 1.14-6.05 3.73-3.77 6.17a.85.84 54.2 001.03.17l1.65-.91q.47-.25.41.28zm62.18 33.18l-.2-1.62a1 .98 4.5 00-.72-.83q-2.8-.8-3.27 1.64a.47.46-83.2 01-.46.37l-2.65-.05a1.2 1.2 0 00-1.13 1.67q.96 2.27 3.32 2.96a1.2 1.19 87.9 01.77.72q1.77 4.75 1.49 9.86a.49.49 0 01-.53.46q-3.15-.27-5.68-2.13a1.61 1.59-81.1 01-.59-.82c-.71-2.23-1.04-7.06-3.69-7.54a1.05 1.04 28.6 00-.89.26c-1.99 1.83-.29 2.86-.66 4.76a.58.57 10.4 01-.66.45q-2.94-.5-3.61 2.23a.95.94 34.8 00.14.76l.9 1.33a.74.73 45.8 01-.01.83l-1.84 2.62a1.18 1.16-35.6 00-.17.97q.51 1.85 2.29 2.05a1.15 1.12 24.5 00.97-.35l3.32-3.55a.76.75 33.6 01.87-.17l4.3 2.01a1.21 1.21 0 01-.13 2.25l-7.02 2.34q-2.27.76-1.18 2.89.5.99 1.49 1.51a.48.48 0 01.19.67l-1.37 2.35a.83.82-61.1 00.33 1.15l2.08 1.07a.85.85 0 001-.16l1.89-1.89a.43.42-30.6 01.71.18l.64 2.28a1.53 1.52-22.5 002.22.91c1.88-1.07 1.28-6.58.88-8.41a.85.84 62.4 01.25-.81l3.84-3.58a.28.28 0 01.44.06q1.86 3.28 1.57 7.05a1.78 1.76 68.2 01-.42 1l-3.05 3.53a2.1 2.1 0 00.38 3.09q1.75 1.24 3.02-.57a.64.64 0 01.88-.17q3.04 2.05 3.99-1.29a.42.42 0 01.65-.23l1.58 1.1a.59.58 30.5 00.86-.22l1.06-2.15a.77.77 0 00-.19-.92l-4.37-3.68a1.4 1.39-70.9 01-.49-1.02l-.15-5.56q-.03-1.04.74-.34 2.17 1.97 5.04 2.65a.97.96.1 01.71.7q.41 1.58.61 3.2c.51 4.15 6.2 3.57 4.13-.78q-.45-.94-.52-2.03-.05-.67.52-.32 2.12 1.31 4.61.77a.93.92 1.6 00.69-.65q.85-2.99-2.15-3.42a.45.45 0 01-.38-.43l-.01-.27a.44.43-9.7 01.31-.43l2.42-.71a.8.8 0 00.55-.98l-.49-1.74a.77.77 0 00-.79-.56l-3.09.15a1.13 1.1-71.7 00-.79.41c-3.82 4.9-7.05 2.1-11.27.2a.31.31 0 01-.07-.53l6.07-5.04a1.33 1.33 0 01.91-.29c2.01.11 5.61 1.78 6.93-.76a1.08 1.05-46.4 00-.01-.98l-.96-1.81a.98.97 43.3 01-.03-.85q1.07-2.42-.54-4.4a.69.69 0 00-1.05-.02q-1.77 1.97-2.94-.23a1.14 1.14 0 00-.77-.58c-3.4-.76-3.93 2.87-3.91 5.8a1.05 1.04 70.9 01-.41.85l-4.8 3.7a.38.38 0 01-.61-.24l-.88-5.67a1.76 1.76 0 01.16-1.03q1.35-2.72 4.44-2.88a.95.94 8.2 00.85-.63q.51-1.44-.33-2.71a.95.93 74.3 00-.71-.41q-2.81-.18-4.72 1.84-.55.59-.65-.21zm-188.62 52.17q.41-3.11-.35-.17a.1.09 17.5 00.07.12l.24.08a.03.03 0 00.04-.03zm-173.5 34.53a.59.59 0 01-1.09.28q-1.85-2.97-5.04-1.58a.57.57 0 00-.23.85q1.76 2.44-.9 3.69a.67.66-28.4 00-.29.95l.85 1.41a.83.82-20.5 00.85.38l4.4-.76a1.22 1.21 58 01.93.22l9.56 6.85a.63.62-34.9 01-.2 1.11c-2.09.57-4.5 2.47-6.63 2.32-3.66-.26-3.87-4.14-8.57-3.23a.83.83 0 00-.66.72l-.19 1.67a.67.67 0 00.47.71l2.19.67q1.08.34.07.84l-1.7.86a1.33 1.33 0 00-.61.61c-1.71 3.61 3.88 3.16 5.58 2.18q.54-.31.54.31 0 1.35-1.14 2.09a.89.89 0 00-.39.84q.23 2.04 2.1 2.71a1.02 1-55.8 001.01-.2q2.29-2.04 1.55-5.17a.68.68 0 01.4-.79l6.83-2.91q.76-.32.63.49l-.9 5.79a1.02.99 81.6 01-.54.75c-1.54.78-6.81 4.17-3.64 6.21a.86.84 52.3 00.72.1l2.75-.85q.89-.28.65.63-.31 1.19.6 1.65a1.09 1.06-48.5 001.07-.08q1.99-1.37 3.52.7a.67.67 0 001.08 0l1.33-1.79a.85.85 0 000-1.02l-3.6-4.88a1.43 1.42-57.2 01-.24-1.13l1.37-6.16q.2-.88.85-.26l3.31 3.15a1.02.99 22.8 01.31.72v7.67a.82.81-88.1 00.76.82l2.12.16a.82.82 0 00.88-.71l.34-2.58q.12-.87.48-.07c1.98 4.34 7.93 1.25 3.47-2.45a.59.59 0 01.15-.99l1.65-.7a.91.88 82.3 00.54-.73c.38-3.85-7.27-3.28-9.28-6.15a.43.43 0 01.24-.67q2.69-.73 4.65-2.67a.46.46 0 01.68.04c1.4 1.74 5.14 7.28 7.5 2.97a.96.95-47.6 00-.04-.99l-1.84-2.78a1.1 1.08 34.9 01-.16-.84q.17-.82.94-1.35a.64.64 0 00.21-.83l-.89-1.67a1.03 1.02 78.5 00-.81-.54l-2.7-.25a.6.6 0 01-.54-.54q-.1-1.07.56-1.91a1.21 1.19 58.2 00.23-1.02q-.39-1.61-2.07-1.94a1.71 1.7-77.8 00-1.98 1.28l-1.62 6.96a.89.89 0 01-.6.64l-4.93 1.45a1.32 1.32 0 01-1.67-1.49l1.44-8.27a1.25 1.24 81.7 01.66-.89l3.6-1.8a1.06 1.03 79.5 00.57-.85q.19-2.21-1.93-2.73a1.43 1.41-48.9 00-.94.07l-.98.41a.5.49-16.7 01-.68-.36l-.26-1.38a.67.66-6.7 00-.7-.55l-1.85.12a.91.89-86.3 00-.83.74l-.32 1.75q-.12.66-.63.23l-1.51-1.3a1.76 1.71-20.2 00-.88-.39c-1.35-.19-4 .72-3.16 2.56a1.3 1.28-1.5 00.73.68q6.68 2.48 3.87 9.65a.45.45 0 01-.68.21l-6.33-4.4a.9.89-71.4 01-.38-.77q.18-4.31-.86-8.55a.66.66 0 00-.63-.5l-1.57-.01a.69.69 0 00-.69.65l-.29 5.91zm374.455 141.73a3 .66 36.4 00-2.023-2.311 3 .66 36.4 00-2.807-1.25 3 .66 36.4 002.023 2.312 3 .66 36.4 002.807 1.25zM341.03 488.47q1.54.83 2.51.36.47-.22-.04-.29l-1.52-.22a.55.55 0 01-.42-.78c.47-1.01.75-4.96-1.42-4.23a.44.43-32.1 00-.17.72q1.58 1.52.76 3.62a.66.65 25.3 00.3.82z"/><path fill="#fae6ad" d="M31.71 29.44c1.08-4.64 6.45-7.67 10.54-9.19q3.28-1.21 9.17-1.27c13.83-.14 27.52-.48 41.34.33a.94.94 0 01.65 1.56c-1.91 2.13-3.85 4.48-5.88 6.51Q59.42 55.36 31.1 83.46a.82.82 0 01-.89.17c-1.37-.6-.19-35.97-.17-39.88q.02-7.25 1.67-14.31z"/><path fill="#1a1a1a" d="M272.93 175.5h-4.31a.53.53 0 00-.53.51c-.15 3.29.11 6.29-.63 9.54-1.08 4.71-.74 11.45-5.54 14.2q-9.54 5.46-20.42 5.95c-3.22.14-6.13-.78-9.26-1.61a1.57 1.55 41.7 00-.96.05c-9.61 3.55-19.61 6.9-28.77 11.39-7.86 3.86-12.22 7.8-18.22 12.37-7.61 5.8-25.18 6-27.56-5.42-1.69-8.12 3.27-17.2 9.97-22.08a.41.41 0 00-.02-.68q-4.52-2.83-9.63-3.46c-5.8-.72-9.34-2.54-9.74-8.7q-.4-6.05-.53-12.06c-.13-5.42-3.71-14.2-5.89-20.71-3.39-10.16-2.41-18.56 2.4-28.33 3.39-6.88 11.33-5.1 18.06-6.52 6.77-1.43 12.82-1.98 21.74-3.67q8.02-1.52 15.42-2.4c14.06-1.68 28.46-3.64 42.2-4.67 23.64-1.78 45.86-2.85 67.04.05 4.55.62 8.27 3.33 11.6 7 7.89 8.68 15.64 19.91 22.21 27.03q14.49 15.7 32.61 27.3c10.21 6.54 25.34 17.2 38.58 25.46 22.51 14.06 40.32 26.34 58.17 43.96q25.25 24.93 36.49 58.98c1.81 5.5 3.4 13.57 5.75 20.2 2.59 7.28 7.85 15.02 11.82 21.98 3.54 6.2 5.12 12.14 1.22 18.57-8.94 14.78-19.73 24.13-34.1 33.95a1.16 1.15 77.8 00-.5.78c-2.99 16.97-6.12 35.7-10.52 53.33a.78.78 0 01-1.27.4c-.72-.62-.75-2.85-.96-3.63q-4.05-15.65-6.36-31.65c-.21-1.5-1.06-2.98-1.72-4.3a.78.78 0 00-1.29-.17q-2.75 3.14-6.66 4.48a.66.66 0 00-.45.65q.2 4.94-1.26 9.49-.79 2.44-1.02 4.98c-.26 2.89-1.25 5.78-1.59 8.32-1.59 12.11-3.06 24.43-5.52 36.39-3.53 17.09-5.33 26.68-7.85 40.09a1.87 1.86-1.8 01-1.38 1.46q-1.26.32-1.73-1.35c-2.64-9.32-5.57-18.31-7.66-27.83q-5.22-23.79-12.04-47.17a.44.44 0 00-.65-.26q-21.79 12.5-42.97 26.02a1.26 1.25-9.6 00-.54.75c-.96 3.88-1.04 8.16-1.8 11.67q-3.66 17.15-7.04 34.35-.09.5-.22.01-2.78-11.13-6.88-21.87c-1.89-4.97-2.93-10.06-4.39-15.14a.46.45 71.2 00-.6-.3c-10.8 4.23-20.3 7.93-31.97 9.2-5.49.6-11.94 1.88-18 1.89a1.13 1.09 19.3 00-.82.38q-1.31 1.52-1.89 3.62-.52 1.86-2.56 8.23-.15.47-.29 0-1.82-5.91-4.83-11.2a.96.95 77.3 00-.75-.48c-4.3-.38-8.58-.45-12.78-1.12q-12.54-2.01-25.16-3.44a.59.58-80 00-.63.45q-4.74 19.16-6.52 38.83a.42.42 0 01-.76.2q-1.09-1.58-1.46-3.8-1.4-8.48-3.24-16.86c-1.51-6.84-2.16-15.08-4.16-22.54a.71.69 89 00-.49-.49c-3.86-1.06-15.94-3.62-19.12-.99-11.14 9.21-15.38 16.52-24.28 30.94-3.25 5.28-9.19 6.96-15.51 6.4q-10.05-.88-20.05.03c-14.27 1.31-28.51 2.41-42.65 4.34a.53.53 0 01-.57-.72l5.71-14.77q.34-.86-.34-.22-15.34 14.42-33.18 25.58-.47.3-.42-.26c2.56-25.12 4.01-51.63.66-76.7q-4.35-32.51-11.8-64.43-.9-3.87-1.09-7.59c-.34-6.57-1.29-12.2 3.42-17.23q19.61-20.95 46.42-29.73c17.27-5.66 37.94-6.77 56.13-6.43q23.73.43 44.52 11.18a.8.79 35.1 00.95-.16q14.42-15.23 31.6-27.22c9.83-6.87 18.43-10.55 30.55-12.13 13.22-1.73 30.85-1.31 41.98 7.3a.44.43-79.4 00.68-.47c-1.47-5.02-4.51-9.15-6.47-15.29-4.05-12.66-5.06-27.81-6.52-41.03-1.77-16.07-4.68-27.81-10.5-41.71q-.99-2.38-2.02-3.85-.36-.52-.48.1-2.06 10.54-5.33 20.75-.8 2.51-.76-.13c.09-6.98-1.36-13.43-1.43-20.28-.06-6.97-.12-11.61-5.85-16.37a.65.65 0 00-1.06.4q-1.06 6.46-2.09 12.79c-.89 5.44-2.79 11.46-3.5 17.44q-1.42 11.98-5.45 23.32c-.7 1.96-.86 3.84-1.14 5.87a.4.4 0 01-.79.02c-4.25-22.65-5.66-45.85-7.67-68.8a.54.54 0 00-.54-.5zM246.46 163c.14-1.5-.23-4.18 1.67-4.52a.7.67 70.5 01.74.37l1.34 2.65 1.31 3.69a.91.9-5 00.7.58c3.85.63 3.63-3.27 5.07-5.52q1.05-.52 1.58.19a1 1 0 01.18.8q-.59 3.01 2.57 3.32a2.02 1.99 13.7 002.05-1.23q.86-2.07 3.04-2.83l1.61 5.35a.83.82 86 00.66.58l5.94.98a1.65 1.58 36.3 00.93-.12q6.33-2.93 8.88-9.57 2.47-4.94 2.48-10.56a.35.35 0 01.6-.24c.47.49.2 8.01.28 9.37a.5.49 81.5 00.6.45l2.22-.5a.79.79 0 00.6-.6l1.23-5.17a.45.45 0 01.59-.32l.42.14v2.42l.25 1.08.42 4.22a.56.56 0 00.67.49q.44-.09.7-.75l2.88-2.84a.49.49 0 01.84.37c-.04.89-.68 1.41-.52 2.33 1.02 6.1 13.17-4.49 14.56-6a.36.36 0 01.58.07l.91 1.57 6.25 12.66a1.65 1.63-88.2 00.65.7l3.31 1.93 2 2.5q2.71 3.73 7.06 7.4 11.69 9.84 23.44 19.6l5.75 4.92q20.55 14.97 41.59 29.25 11.81 8.01 21.12 18.82c5.84 6.77 8.29 13.13 11.3 21.96.67 1.94.03 3.57-.2 5.54a1.81 1.73 70.3 01-.42.94q-3.66 4.13-5.14 9.47a1.16 1.14 36 00.16.97q.95 1.36 2.8 1.59l12.04 3.96q3.72 1.27 6.32 4.25a1.13 1.12-60.5 01.26.95q-.6 3.31-3.85 4.28a.34.34 0 00.03.66c9.92 1.99 19.89 2.35 29.84 3.72q5.32.73 10.75 1.23 4.01 1.3 8.33 1.16a.47.47 0 00.45-.53q-.49-4.35-2.09-8.43c-2.41-7.85-6.11-21.71-11.6-27.68-1.56-1.69-2.17-3.39-3.43-5.34-18.92-29.49-46.15-48.53-73.68-68.93-14.76-10.93-31.93-19.01-45.5-31.14q-7.96-7.12-14.33-11.45-12.96-9.88-19.69-17.27-8.14-8.95-13.8-13.28c-5.31-5.29-15.73-3.61-22.22-1.92q-18.98 4.95-26.79 7.26c-8.86 2.6-22.09 7.48-27.54 13.91-2.24 2.63-2.69 5.68-3.69 8.99-1.27 4.19 1.06 8.88 3.33 12.3a.81.8 73 00.67.36l5.66-.08a1.68 1.66 26.4 00.94-.31q2.32-1.67 1.34-5.17zm-60.56-31.63c-6.33-3.52-15.05-2.53-15.59 6.23a.74.73 80.7 001.01.73l14.51-5.87a.61.61 0 00.07-1.09zm12.45 2.34c-1.96 1.92-3.34 4.33-3.76 7a.66.66 0 00.96.68l14.91-7.97a.32.32 0 00-.16-.6l-11.2.56a1.21 1.17 20.3 00-.75.33zm35.4 6l5.54-3.6a.46.46 0 00-.19-.85q-4.43-.61-8.47.02-2.19-.48-4.14.12a1.17 1.15-87 00-.72.66q-2.22 5.3-2.86 11.01a1.31 1.3 29.9 00.26.94l2.59 3.33q1.86 2.39 2.3-.6 1.06-7.13 5.69-11.03zM205.4 194.5h4.48q2.25.01 1.43-2.09l-12.15-30.89a.4.4 0 00-.78.17c.69 10.95-.64 23.03 6.1 32.34a1.14 1.14 0 00.92.47zm-28.95-.34l6.66 3.08q.74.34.35-.37l-3.23-6.04q-.22-.4-.27-.85-1.38-11.29-.92-22.67.13-3.21-.75-.12-3.67 12.82-2.42 26.14a1.01.99-80.5 00.58.83zm170.61 9.03c-5.07-5.5-25.1-27.51-32.18-26.64a1.08 1.08 0 00-.84 1.55q.9 1.8 2.46 2.9c2.73 1.93 30.82 22.74 30.88 22.69a.27.26-45.7 000-.39q-.12-.11-.32-.11zm-94.88-20.32q-1.42-1.68-1.15-3.89.12-.98-.5-.21l-3.59 4.36a.67.66 51.5 00-.08.74l3.53 6.77a.98.96 79.1 00.74.51c8.22.91 11.04-5.42 8.33-12.21a.75.74-13 00-.76-.47l-1.47.12a1.13 1.11 16.4 00-.79.42l-3.03 3.84a.8.79 44 01-1.23.02zm30.03 7.88l.79 1.54-.43 2.87q-.08.48.08.94.67 2.03.91 4.13c.18 1.59-.67 2.95-.11 4.84q.15.48.04.98-.65 3.14 1.6 5.41a.35.35 0 00.6-.22l1.52-16.24.79-3.71.46-.79q.72-.89.77-2.01a.59.58-82.3 00-.45-.6l-.79-.17a.59.59 0 01-.44-.73l.39-1.47a.51.5 10.9 00-.43-.63l-4.65-.56a.99.98-65.8 00-.88.34l-1.56 1.83a.73.73 0 00-.08.82l1.87 3.43zm118.42 59.59q-17.24-11.23-34.48-22.44-3.62-2.35-7.3-4.14a.26.26 0 00-.28.43c12.96 11.19 26.35 24.48 43.18 29.2a.56.56 0 00.69-.68q-.37-1.43-1.81-2.37zm-3.484 7.709a1.49.65 72.2 00.163-1.618 1.49.65 72.2 00-1.075-1.22 1.49.65 72.2 00-.163 1.618 1.49.65 72.2 001.075 1.22zm-36.186 4.111q-.78.59.2.59h1.35a.24.24 0 00.24-.24v-.26a.52.51.6 00-.5-.5q-.71-.03-1.29.41zm-70.71 41.8c-19.93 2.65-34.4 13.29-48.75 26.75-4.23 3.96-8.15 9.23-12.29 13.79q-5.04 6.01-9.1 12.88-.38.63.23.22 13.08-8.87 27.19-15.99a.36.36 0 01.42.56l-8.7 9.29c-4 4.53-7.66 9.61-11.69 13.72-7.7 7.82-14.67 12.96-21.27 20.29q-3.24 2.3-5.74 5.63a.34.34 0 00.18.53q12.47 3.41 25.27 5.08l11 1.58-3.79 2.71-8.03 2.37q-.54.16.01.27 3.51.72 5.32.67 11.3-.31 32.81-1.91c14.29-1.43 29.7-9.03 43.48-15.12q4.8-2.12 7.67-4.7a.44.43-48.7 00-.04-.68q-3.08-2.16-6.92-2.11-1.05.02-.05-.3 2.9-.93 5.64-2.23c6.15-2.93 11.73-1.22 17.25-6.48 3.16-2.61 5.02-8.84 6.29-12.33a1 .99 38.3 00-.11-.89q-1.52-2.3-4.28-1.27-1.12-.69-.25-2c1.69-3.18 6.59-10.29.29-11.79q-8.47-2.65-17.39-2.59a.86.86 0 01-.77-.45c-.74-1.36 1.24-1.98 2.12-2.42 7.39-4.15 14.96-13.43 4.5-19.58l-.25-.36a.46.45-37 01.09-.62l1.2-.98q2.24-.8 2.99-1.31 2.18-1.47-.08-2.82-9.64-5.72-19.7-7.41-7.37-1.28-14.75 0zm158 29.33c-9.88-.68-13.72-2.95-21.25-5.5l-9.49-2.34a.36.36 0 00-.45.37c.1 1.8 1.25 2.88 1.91 4.05 3.71 6.54 11.88 14.34 20.02 13.58 8.81-.81 13.99-4.35 20.78-9.87a.36.35-65.3 00-.23-.63l-11.29.34zM100.32 366.6q.98-.47 2.18-.41a.3.29 17.4 01.24.45q-2.67 4.37-4.1 9.3a.56.55-85.5 00.6.71q8.11-1.03 15.86-3.53a.48.48 0 01.62.39q.13.95-1.05 1.85-9.09 4.19-16.26 10.86c-9.47 8.8 6.61 11.8 12.17 12.92q2.28.46 4.77 2.5a1.35 1.31-76.5 01.48.81l.87 5.13a1.6 1.57 18.7 00.43.85q4.13 4.16 10.12 4.36 2.5.52 5 0 9.85-1.94 19-6.08 18.24-6.49 30.03-21.64c1.13-1.45 2.08-3.83-.02-4.8q-5.63-2.6-11.77-3.86a.16.16 0 01-.01-.32l15.2-3.85c4 .17 11.69 0 13.81-2.26q6.5-6.94 11.42-15.01c3.14-5.16 6.35-9.3 9.55-13.97a.46.45 32.4 00-.15-.66q-12.99-7.14-26.37-8.98c-11.46-1.58-24.14-1.53-36.17.37-5.77.92-12.08 1.38-17.07 2.69q-7.62 2.01-14.86 5.2c-7.34 3.24-12.27 7.85-19.45 13.68-4.8 3.9-7.36 7.88-9.72 13.26a.44.43-71.3 00.29.6q2.18.51 4.36-.56zm360.72-5.26c4.76-.03 10.26-1.93 15.1-2.56 3.08-.39 4.56-2.21 4.93-5.09a.47.46 2.6 00-.48-.52q-12.13.6-24.08 2.77a.55.55 0 00-.44.55c.1 3.19 1.74 4.88 4.97 4.85zm17.1 50.52q1.43 4.63 2.02 9.31.06.48.32.66.44.31.47-.23l.34-5.1q1.71-3.15 1.68-6.75a1.82 1.73-30.6 01.26-.92c2.19-3.56-2.76-5.67-5.58-5.17a1.12 1.1-80.3 00-.79.57q-.95 1.81.58 2.88a.53.52 37.8 01.1.76q-1.94 2.3.6 3.99zM174.3 440.47l3.2-1.43q7.03-3.5 33.18-17.16 4-2.09 1.84-5.93a1.34 1.3-4 00-.72-.61q-10.6-3.79-21.14-7.7-1.8-.66-2.68.81-10 16.75-16.55 29.26-.73 1.4-1.32 3.75-.14.55.39.36l3.8-1.35zm195.582-20.926a3.89 2.65 18.8 00-2.828-3.763 3.89 2.65 18.8 00-4.536 1.255 3.89 2.65 18.8 002.828 3.763 3.89 2.65 18.8 004.536-1.255zM136.75 420.71q-6.81 1.5-13.29 4.04c-4.29 1.14-9.92 3.67-11.61 8.07a1.08 1.08 0 00.64 1.39c9.6 3.48 32.76-3.94 37.77-13.22a.39.39 0 00-.26-.56q-6.7-1.53-13.25.28zm303.68 19.53l.37.9q.2.45.22.94l.52 11.42c-.19 12.07 1.55 22.87 2.71 34.31a.44.43 68 00.7.3c.38-.31.26-1.17.31-1.51q2.87-17.88 3.68-35.97.01-.12-.15-2.74c-.24-3.77 2.21-4.18 3.34-7.06a.8.79-64.4 00-.34-.99l-2.56-1.49a.5.49-37.7 01.12-.9c1.81-.5 4.33-.09 4.41-2.79a1.47 1.47 0 00-.31-.93q-1.39-1.79-3.51-2.62-.79-.3.02-.53 1.15-.33 2.31.1a1.21 1.2-46.7 00.93-.03q2.01-.9 1.81-3.17a1.71 1.69 9.7 00-1-1.39c-3.07-1.39-15.18-6.46-17.41-3.23a.79.79 0 00-.1.71l.42 1.3q.21.62-.43.47l-1.4-.32a.83.82-69.3 00-.91.42c-1.31 2.47-.15 4.13 2.34 4.89q3.66 1.11 7.34 2.58a.51.51 0 01.18.83c-1.21 1.24-10.28-1.06-9.1 3.82q.95 3.96 5.49 2.68zm-134.68-3.45c10.12 4.48 22.95 6.7 33.3 2.78 5.71-2.16 13.52-7.13 16.05-13.16a.69.67 32 00-.19-.79q-1.36-1.16-3.16-1.58c-15.02-2.61-36.58-2.49-49.07 6.62q-1.81 1.32-1.28 3.61a1.05 1.04 6.6 00.58.72l3.77 1.8zm-61.33-.4c4.4-1.99 12.34-6.62 15.74-11.45q.31-.45-.19-.26-22.22 8.35-44.97 15.05c-9.17 2.7-19.05 9.68-27.53 15.68q-.41.29.07.14c18.95-5.96 38.93-11.04 56.88-19.16zm123.04 36.36l-.25.75q-1.08.94-.31 2.09.25.37.3.82l1.2 10.87a.39.39 0 00.78-.02q.37-5.52 1.8-11.02.1-.41-.08-1.32a.98.94-30.8 01.23-.84l1.77-2.02a.82.8-40.2 00.09-.95q-2.67-4.45 1.49-7.59a.59.59 0 00.18-.72c-1.23-2.73-6.66-2.8-9.21-2.79a.53.53 0 00-.53.51l-.03.71a.7.69-3.8 01-.57.64l-2.57.48a.47.46-17.2 00-.34.64q.81 1.94 2.88 1.7a.65.65 0 01.72.65l-.01 1.65q-.01.5.21.95l2.25 4.81zm-174.21 8.04l-1.46.36q-.59.15-.41-.43.07-.23.37-.43l8.91-16.67a.52.52 0 00-.72-.69q-13.75 8.23-27.9 15.34c-6.86 3.45-9.52 10.08-13.1 16.44a.68.68 0 00.65 1.01q10.93-.9 22.46.14.69.06 1.37.29a.83.83 0 00.91-.28l12.32-16.01a.42.42 0 00-.54-.63l-2.86 1.56zm102.99-15.13q1.57 1.36 3.58 1.65a.59.59 0 00.46-1.03l-3.93-3.32q-.89-.75-.98.41l-.15 1.85a.26.26 0 00.26.28h.32a.69.68-24.7 01.44.16zm-43 15.56q-2.72-.61-3.35-3.35a.42.42 0 00-.59-.28c-.67.33.12 14.34.35 17.54q.04.51.44.19c2.1-1.65 1.52-4.2 1.58-6.41.05-2.31 1.99-4.33 2.04-7.1a.59.59 0 00-.47-.59zm-144.41.01a1.12.39 76.6 00.12-1.18 1.12.39 76.6 00-.64-1 1.12.39 76.6 00-.12 1.18 1.12.39 76.6 00.64 1zM422.72 151.89l-1.65.91a.85.84 54.2 01-1.03-.17c-2.28-2.44 1.58-5.03 3.77-6.17a.82.79 77 00.42-.7l.03-5.52a.44.44 0 00-.63-.39l-5.38 2.67a.98.97-13.4 00-.54.87c.02 2.47-1.41 7.37-4.83 4.18a.94.94 0 01-.28-.85c.17-1 1.49-2.74 1-3.49a.59.59 0 00-.76-.22q-2.61 1.19-4.76-.41a1.11 1.09-67.2 01-.43-1.08q.39-2.25 2.83-1.72a.64.64 0 00.76-.48c.22-1.03-2.3-1.43-2.72-1.5a1.41 1.4-73.6 01-1.06-1.95c2.06-4.79 5.9 1.35 8.89 1.78q.72.1 1.43.13.53.02 1-.21l4.87-2.42a.65.65 0 00.09-1.11l-9.87-6.9a.66.65-34.5 00-.5-.09l-4.53 1.03a.92.91 69.4 01-1-.46c-1.46-2.68 1.74-3.21.86-6.48a.96.96 0 011.38-1.09l3.98 2.16a.35.35 0 00.51-.27c.2-1.94-.48-8.07 3.25-6.56a.82.81-81 01.51.71l.24 4.38a1.54 1.53-67.8 00.39.94q1.27 1.4.1 3.07a.56.56 0 00.13.77l6.59 4.81q.4.3.44-.2c.27-3.68 1.88-8.62-3.59-9.56a1.37 1.35-88.4 01-1.12-1.2c-.45-4.05 4.02-2.66 5.65-.91a.34.34 0 00.56-.09c.72-1.58.55-3.9 3.24-3.03a.73.73 0 01.5.6l.15 1.29a.61.61 0 00.78.51q2.99-.9 3.7 2.25a.83.82-21.9 01-.39.9l-3.72 2.15a.99.99 0 00-.48.85v2.02q0 .53-.2 1.01-1.3 3.16-1.02 6.58a.48.47 84.7 00.52.44c6.72-.68 6.95-4.63 8.69-9.87a1.18 1.18 0 011.72-.64l1.52.9a.77.76 25.8 01.33.93l-1.06 2.75a.54.54 0 00.5.73l2.3.04a1.41 1.34 63.1 01.85.3c1.93 1.53.18 2.76.16 4.51a1.39 1.38-65.7 00.34.91q1.5 1.77.93 3.93a.74.74 0 01-.6.53c-2.87.45-3.93-1.73-5.58-3.25a.85.83 54.3 00-.91-.16l-4.99 2.18a.82.81 49.9 00-.12 1.43q3.13 2.06 6.88 2.21.43.02.82.22 1.96.97 1.62 3.08a1.08 1.08 0 01-.69.84l-1.67.64a.41.41 0 00-.15.67l1.26 1.32a1.32 1.31-66.4 01.36.93q-.03 2.05-1.89 2.57a.87.85-30.8 01-.82-.2l-1.61-1.52q-.77-.71-.75.34l.01.53a1.8 1.79-30.4 01-.25.95q-.9 1.56-2.74 1.3a1.8 1.79 4.8 01-1.55-1.83l.21-7.24a1.07 1.05-68.7 00-.36-.84l-3.5-3.03a.54.54 0 00-.88.3l-1.27 6.08a1.05 1.04 33.9 00.17.83l3.7 5.29a1.31 1.3 50.5 01-.16 1.68q-2.16 2.12-3.6-.55-.53-.99-1.07-.01c-.9 1.64-4.06 1.09-3.82-1.28q.06-.53-.41-.28z"/><path fill="#a9aaab" d="M314.76 127.66q-4.54-1.53-9.16-2.2c-2.23-.33-4.1.53-6.44.59q-3.18.09-4.77.48c-7.88 1.96-15.54 4.53-23.41 6.46q-4.26 1.04-8.48 2.21c-5.38 1.5-10.33 4.86-15.72 6.98-2.58 1.01-4.28 2.9-6.53 4.45-4.29 2.95-3.19 6.83-5.1 11.24a1.5 1.49 50.1 00-.08.95q.99 4.28 3.39 7.95a1.03 1.03 0 00.83.45c2.82.05 6.48.98 5.99-3.58a.75.75 0 01.39-.75q.39-.21.79.11.98 3.5-1.34 5.17a1.68 1.66 26.4 01-.94.31l-5.66.08a.81.8 73 01-.67-.36c-2.27-3.42-4.6-8.11-3.33-12.3 1-3.31 1.45-6.36 3.69-8.99 5.45-6.43 18.68-11.31 27.54-13.91q7.81-2.31 26.79-7.26c6.49-1.69 16.91-3.37 22.22 1.92z"/><path fill="#919496" d="M314.76 127.66q5.66 4.33 13.8 13.28 6.73 7.39 19.69 17.27-.31.05-.55.21a.51.51 0 00-.11.74c1.96 2.41 4.95 4 6.72 5.37 3.33 2.58 6.3 4.77 9.74 7.85 6.05 5.41 13.49 10.27 20.74 14.72q5.42 3.34 7.83 5.04c8.65 6.12 17.91 11.91 25.96 18.35q5.74 4.59 11.42 9.26c3.76 3.09 9.01 5.91 12.89 9.53q5.92 5.53 18.12 17.21 3.72 3.56 6.09 7.04c1.29 1.91 3.05 3.3 4.44 5.18 3.3 4.45 8.37 10.33 10.07 15.56a1.29 1.28-85.1 00.59.71c2.26 1.23 3.72 2.64 4.44 5.32q1.43 5.29 4.05 10.05c2.17 3.95 2.68 8.38 4.66 12.49a.88.87-12 00.75.48q.57.03.69-.57 1.6 4.08 2.09 8.43a.47.47 0 01-.45.53q-4.32.14-8.33-1.16-5.5-2.08-13.1-2.81-9.9-.94-19.82-1.61-2.62-.18-3.29-2.53a1.28 1.26-39.9 01.09-.93c2.07-3.98-3-6.29-6.02-7.99a.79.78 40.6 00-.87.06q-.3.23-.34.72l-12.04-3.96c-5.07-7.86 10.31-12.71 3.17-22.12-2.98-3.92-3.28-9.73-5.4-12.61q-11.54-15.65-27.59-26.59c-1.83-1.25-2.61-3.29-5.02-4.37-6.52-2.94-9.48-6.41-15.3-9.63-2.05-1.12-5.05-3.58-8.02-5.44-.31-.2-12.36-11.34-13.05-7.78l-5.75-4.92q.34-.03.65-.22a.66.66 0 00.27-.78c-.64-1.68-5.17-4.2-6.71-5.57-7.8-6.93-15.87-13.4-23.53-20.49a.82.81-34.2 00-.87-.16q-.17.07-.31.22l-2-2.5q.4.01.58-.22a.52.51 37.5 00-.1-.74c-4.71-3.31-6.23-8.78-7.87-14.03a1.54 1.54 0 00-1.89-1.02q-.62.18-.93.72l-.91-1.57a.36.36 0 00-.58-.07c-1.39 1.51-13.54 12.1-14.56 6-.16-.92.48-1.44.52-2.33a.49.49 0 00-.84-.37l-2.88 2.84q-.89-1.54-.56-3.21a.67.66-71.9 00-.37-.73q-.37-.18-.86-.02l-.25-1.08q1.01.33 1.52-.79a1.19 1.19 0 00-.68-1.62q-.42-.15-.84-.01l-.42-.14a.45.45 0 00-.59.32l-1.23 5.17a.79.79 0 01-.6.6l-2.22.5a.5.49 81.5 01-.6-.45c-.08-1.36.19-8.88-.28-9.37a.35.35 0 00-.6.24q-.01 5.62-2.48 10.56l.02-.59a.88.86 16.9 00-.44-.8q-.89-.51-1.23.43c-.8 2.24-4.14 10.53-7.63 7.98a.38.38 0 00-.49.03l-.45.42a.9.88-65.8 01-.64.25l-3.91-.16a.82.8-7.5 01-.75-.56l-1.38-4.33a.55.55 0 00-.68-.37q-.29.08-.44.48-2.18.76-3.04 2.83a2.02 1.99 13.7 01-2.05 1.23q-3.16-.31-2.57-3.32a1 1 0 00-.18-.8q-.53-.71-1.58-.19.04-.51-.47-.53a.56.55 12.8 00-.54.33l-2.05 4.78q-.59 1.38-.99-.07l-1.21-4.34a.63.63 0 00-.97-.34q-.8.58-.85 1.42l-1.34-2.65a.7.67 70.5 00-.74-.37c-1.9.34-1.53 3.02-1.67 4.52q-.4-.32-.79-.11a.75.75 0 00-.39.75c.49 4.56-3.17 3.63-5.99 3.58a1.03 1.03 0 01-.83-.45q-2.4-3.67-3.39-7.95a1.5 1.49 50.1 01.08-.95c1.91-4.41.81-8.29 5.1-11.24 2.25-1.55 3.95-3.44 6.53-4.45 5.39-2.12 10.34-5.48 15.72-6.98q4.22-1.17 8.48-2.21c7.87-1.93 15.53-4.5 23.41-6.46q1.59-.39 4.77-.48c2.34-.06 4.21-.92 6.44-.59q4.62.67 9.16 2.2zm-12.91 18.75l.83.91a.41.41 0 00.61-.01q1.06-1.26 1.25-2.92a1.41 1.38 70.1 01.37-.81c2.15-2.25 5.34-5.52 2.23-7.8a1.05 1.01-32.4 00-.83-.17l-2.86.66a1.38 1.35 56.2 01-1.14-.24l-1.51-1.13a.39.39 0 00-.57.1l-1.43 2.24a.61.61 0 01-.77.23l-2.56-1.21q-.92-.44-.6.53.95 2.87 1.9 5.78c.77 2.33-.03 4.66 1.56 7.07a.4.4 0 00.67-.01l1.99-3.14a.55.55 0 01.86-.08zm-7.212-.143a3.95 1.17 78.2 00.337-4.106 3.95 1.17 78.2 00-1.953-3.627 3.95 1.17 78.2 00-.337 4.105 3.95 1.17 78.2 001.953 3.627zM273.26 152.5l.57 1.68q.4 1.18.67-.04c.51-2.4 1.3-12.81-.95-14.35q-.34-.23-.27.17l.7 4.59a.59.59 0 01-1.04.47c-1.19-1.45-1.63-4.51-3.85-4.72a.52.51-81.5 00-.56.42l-.58 3.13a.52.51 12.3 01-.63.4q-3.78-.89-4.29-4.48a.39.38 41 00-.77.05c.02 4.93 2.64 7.99 3.4 13.31a.62.61-3.2 00.6.53c1.41.02 1.74-3.48 1.99-4.33q.33-1.14.73-.02l.89 2.51a.6.6 0 00.59.39l2.17-.13a.63.62 78.3 01.63.42zm-11.46 1.08q.44-4.55-2.44-8.12-.55-.68-.47.18c.11 1.19.53 9.06 2.21 8.72a.88.88 0 00.7-.78z"/><path fill="#a9aaab" d="M185.9 131.37a.61.61 0 01-.07 1.09l-14.51 5.87a.74.73 80.7 01-1.01-.73c.54-8.76 9.26-9.75 15.59-6.23zM194.59 140.71c.42-2.67 1.8-5.08 3.76-7a1.21 1.17 20.3 01.75-.33l11.2-.56a.32.32 0 01.16.6l-14.91 7.97a.66.66 0 01-.96-.68z"/><path fill="#fff" d="M300.99 146.49l-1.99 3.14a.4.4 0 01-.67.01c-1.59-2.41-.79-4.74-1.56-7.07q-.95-2.91-1.9-5.78-.32-.97.6-.53l2.56 1.21a.61.61 0 00.77-.23l1.43-2.24a.39.39 0 01.57-.1l1.51 1.13a1.38 1.35 56.2 001.14.24l2.86-.66a1.05 1.01-32.4 01.83.17c3.11 2.28-.08 5.55-2.23 7.8a1.41 1.38 70.1 00-.37.81q-.19 1.66-1.25 2.92a.41.41 0 01-.61.01l-.83-.91a.55.55 0 00-.86.08z"/><path fill="#a9aaab" d="M230.63 135.28q-7.01 3.77-6.01 12.02a.58.58 0 00.63.51l1.54-.11a.8.79 2.3 00.72-.66q.88-5.31 5.56-8.09a.45.45 0 01.68.39v.37q-4.63 3.9-5.69 11.03-.44 2.99-2.3.6l-2.59-3.33a1.31 1.3 29.9 01-.26-.94q.64-5.71 2.86-11.01a1.17 1.15-87 01.72-.66q1.95-.6 4.14-.12z"/><path fill="#919496" d="M230.63 135.28q4.04-.63 8.47-.02a.46.46 0 01.19.85l-5.54 3.6v-.37a.45.45 0 00-.68-.39q-4.68 2.78-5.56 8.09a.8.79 2.3 01-.72.66l-1.54.11a.58.58 0 01-.63-.51q-1-8.25 6.01-12.02z"/><ellipse fill="#fff" transform="rotate(78.2 59.303 251.979)" rx="3.95" ry="1.17"/><path fill="#fff" d="M272.63 152.08l-2.17.13a.6.6 0 01-.59-.39l-.89-2.51q-.4-1.12-.73.02c-.25.85-.58 4.35-1.99 4.33a.62.61-3.2 01-.6-.53c-.76-5.32-3.38-8.38-3.4-13.31a.39.38 41 01.77-.05q.51 3.59 4.29 4.48a.52.51 12.3 00.63-.4l.58-3.13a.52.51-81.5 01.56-.42c2.22.21 2.66 3.27 3.85 4.72a.59.59 0 001.04-.47l-.7-4.59q-.07-.4.27-.17c2.25 1.54 1.46 11.95.95 14.35q-.27 1.22-.67.04l-.57-1.68a.63.62 78.3 00-.63-.42zM261.8 153.58a.88.88 0 01-.7.78c-1.68.34-2.1-7.53-2.21-8.72q-.08-.86.47-.18 2.88 3.57 2.44 8.12zM293.75 150.29q.42-.14.84.01a1.19 1.19 0 01.68 1.62q-.51 1.12-1.52.79v-2.42z"/><path fill="#a9aaab" d="M325.25 168.54l-3.31-1.93a1.65 1.63-88.2 01-.65-.7l-6.25-12.66q.31-.54.93-.72a1.54 1.54 0 011.89 1.02c1.64 5.25 3.16 10.72 7.87 14.03a.52.51 37.5 01.1.74q-.18.23-.58.22z"/><path fill="#fff" d="M294 153.79q.49-.16.86.02a.67.66-71.9 01.37.73q-.33 1.67.56 3.21-.26.66-.7.75a.56.56 0 01-.67-.49l-.42-4.22z"/><path fill="#a9aaab" d="M284.73 157.72q-2.55 6.64-8.88 9.57a1.65 1.58 36.3 01-.93.12l-5.94-.98a.83.82 86 01-.66-.58l-1.61-5.35q.15-.4.44-.48a.55.55 0 01.68.37l1.38 4.33a.82.8-7.5 00.75.56l3.91.16a.9.88-65.8 00.64-.25l.45-.42a.38.38 0 01.49-.03c3.49 2.55 6.83-5.74 7.63-7.98q.34-.94 1.23-.43a.88.86 16.9 01.44.8l-.02.59zM348.25 158.21q6.37 4.33 14.33 11.45c13.57 12.13 30.74 20.21 45.5 31.14 27.53 20.4 54.76 39.44 73.68 68.93 1.26 1.95 1.87 3.65 3.43 5.34 5.49 5.97 9.19 19.83 11.6 27.68q-.12.6-.69.57a.88.87-12 01-.75-.48c-1.98-4.11-2.49-8.54-4.66-12.49q-2.62-4.76-4.05-10.05c-.72-2.68-2.18-4.09-4.44-5.32a1.29 1.28-85.1 01-.59-.71c-1.7-5.23-6.77-11.11-10.07-15.56-1.39-1.88-3.15-3.27-4.44-5.18q-2.37-3.48-6.09-7.04-12.2-11.68-18.12-17.21c-3.88-3.62-9.13-6.44-12.89-9.53q-5.68-4.67-11.42-9.26c-8.05-6.44-17.31-12.23-25.96-18.35q-2.41-1.7-7.83-5.04c-7.25-4.45-14.69-9.31-20.74-14.72-3.44-3.08-6.41-5.27-9.74-7.85-1.77-1.37-4.76-2.96-6.72-5.37a.51.51 0 01.11-.74q.24-.16.55-.21zM257.29 160.25c-1.44 2.25-1.22 6.15-5.07 5.52a.91.9-5 01-.7-.58l-1.31-3.69q.05-.84.85-1.42a.63.63 0 01.97.34l1.21 4.34q.4 1.45.99.07l2.05-4.78a.56.55 12.8 01.54-.33q.51.02.47.53zM204.48 194.03c-6.74-9.31-5.41-21.39-6.1-32.34a.4.4 0 01.78-.17l12.15 30.89q.82 2.1-1.43 2.09h-4.48a1.14 1.14 0 01-.92-.47zm-.08-3.66l1.04 2.75a.63.63 0 00.71.39l3.12-.6a.38.37-16.1 00.28-.49c-1.37-3.88-3.79-7.5-4.85-11.18q-1.25-4.31-2.29-8.71a.56.55-45.3 00-1.08.01q-.42 1.8.5 3.37a.71.71 0 01.02.67l-.14.29a1.2 1.19-43.6 00-.03 1.03c.46 1.05 2.06 5.87.88 6.6a.78.77 74.9 00-.36.64q-.08 2.63 1.75 4.52.29.31.45.71zM176.45 194.16a1.01.99-80.5 01-.58-.83q-1.25-13.32 2.42-26.14.88-3.09.75.12-.46 11.38.92 22.67.05.45.27.85l3.23 6.04q.39.71-.35.37l-6.66-3.08zM357.75 198.04q-11.75-9.76-23.44-19.6-4.35-3.67-7.06-7.4.14-.15.31-.22a.82.81-34.2 01.87.16c7.66 7.09 15.73 13.56 23.53 20.49 1.54 1.37 6.07 3.89 6.71 5.57a.66.66 0 01-.27.78q-.31.19-.65.22z"/><path fill="#919496" d="M203.95 189.66q-1.83-1.89-1.75-4.52a.78.77 74.9 01.36-.64c1.18-.73-.42-5.55-.88-6.6a1.2 1.19-43.6 01.03-1.03l.14-.29a.71.71 0 00-.02-.67q-.92-1.57-.5-3.37a.56.55-45.3 011.08-.01q1.04 4.4 2.29 8.71c1.06 3.68 3.48 7.3 4.85 11.18a.38.37-16.1 01-.28.49l-3.12.6a.63.63 0 01-.71-.39l-1.04-2.75q-.16-.4-.45-.71z"/><path fill="#a9aaab" d="M347.06 203.19q.2 0 .32.11a.27.26-45.7 010 .39c-.06.05-28.15-20.76-30.88-22.69q-1.56-1.1-2.46-2.9a1.08 1.08 0 01.84-1.55c7.08-.87 27.11 21.14 32.18 26.64zM252.18 182.87a.8.79 44 001.23-.02l3.03-3.84a1.13 1.11 16.4 01.79-.42l1.47-.12a.75.74-13 01.76.47c2.71 6.79-.11 13.12-8.33 12.21a.98.96 79.1 01-.74-.51l-3.53-6.77a.67.66 51.5 01.08-.74l3.59-4.36q.62-.77.5.21-.27 2.21 1.15 3.89z"/><path fill="#1a1a1a" d="M485.96 185.56q1.91-2.02 4.72-1.84a.95.93 74.3 01.71.41q.84 1.27.33 2.71a.95.94 8.2 01-.85.63q-3.09.16-4.44 2.88a1.76 1.76 0 00-.16 1.03l.88 5.67a.38.38 0 00.61.24l4.8-3.7a1.05 1.04 70.9 00.41-.85c-.02-2.93.51-6.56 3.91-5.8a1.14 1.14 0 01.77.58q1.17 2.2 2.94.23a.69.69 0 011.05.02q1.61 1.98.54 4.4a.98.97 43.3 00.03.85l.96 1.81a1.08 1.05-46.4 01.01.98c-1.32 2.54-4.92.87-6.93.76a1.33 1.33 0 00-.91.29l-6.07 5.04a.31.31 0 00.07.53c4.22 1.9 7.45 4.7 11.27-.2a1.13 1.1-71.7 01.79-.41l3.09-.15a.77.77 0 01.79.56l.49 1.74a.8.8 0 01-.55.98l-2.42.71a.44.43-9.7 00-.31.43l.01.27a.45.45 0 00.38.43q3 .43 2.15 3.42a.93.92 1.6 01-.69.65q-2.49.54-4.61-.77-.57-.35-.52.32.07 1.09.52 2.03c2.07 4.35-3.62 4.93-4.13.78q-.2-1.62-.61-3.2a.97.96.1 00-.71-.7q-2.87-.68-5.04-2.65-.77-.7-.74.34l.15 5.56a1.4 1.39-70.9 00.49 1.02l4.37 3.68a.77.77 0 01.19.92l-1.06 2.15a.59.58 30.5 01-.86.22l-1.58-1.1a.42.42 0 00-.65.23q-.95 3.34-3.99 1.29a.64.64 0 00-.88.17q-1.27 1.81-3.02.57a2.1 2.1 0 01-.38-3.09l3.05-3.53a1.78 1.76 68.2 00.42-1q.29-3.77-1.57-7.05a.28.28 0 00-.44-.06l-3.84 3.58a.85.84 62.4 00-.25.81c.4 1.83 1 7.34-.88 8.41a1.53 1.52-22.5 01-2.22-.91l-.64-2.28a.43.42-30.6 00-.71-.18l-1.89 1.89a.85.85 0 01-1 .16l-2.08-1.07a.83.82-61.1 01-.33-1.15l1.37-2.35a.48.48 0 00-.19-.67q-.99-.52-1.49-1.51-1.09-2.13 1.18-2.89l7.02-2.34a1.21 1.21 0 00.13-2.25l-4.3-2.01a.76.75 33.6 00-.87.17l-3.32 3.55a1.15 1.12 24.5 01-.97.35q-1.78-.2-2.29-2.05a1.18 1.16-35.6 01.17-.97l1.84-2.62a.74.73 45.8 00.01-.83l-.9-1.33a.95.94 34.8 01-.14-.76q.67-2.73 3.61-2.23a.58.57 10.4 00.66-.45c.37-1.9-1.33-2.93.66-4.76a1.05 1.04 28.6 01.89-.26c2.65.48 2.98 5.31 3.69 7.54a1.61 1.59-81.1 00.59.82q2.53 1.86 5.68 2.13a.49.49 0 00.53-.46q.28-5.11-1.49-9.86a1.2 1.19 87.9 00-.77-.72q-2.36-.69-3.32-2.96a1.2 1.2 0 011.13-1.67l2.65.05a.47.46-83.2 00.46-.37q.47-2.44 3.27-1.64a1 .98 4.5 01.72.83l.2 1.62q.1.8.65.21z"/><path fill="#a9aaab" d="M288.46 190.5q-1-.71-1.75 0-2.4-.96-4.5.25l-1.87-3.43a.73.73 0 01.08-.82l1.56-1.83a.99.98-65.8 01.88-.34l4.65.56a.51.5 10.9 01.43.63l-.39 1.47a.59.59 0 00.44.73l.79.17a.59.58-82.3 01.45.6q-.05 1.12-.77 2.01z"/><path fill="#fff" d="M286.71 190.5l1.29.79-.79 3.71q-2.92.17-3.47-2.42a.43.42 79.5 00-.47-.33l-.27.04-.79-1.54q2.1-1.21 4.5-.25z"/><path fill="#919496" d="M288.46 190.5l-.46.79-1.29-.79q.75-.71 1.75 0z"/><path fill="#a9aaab" d="M283 192.29l.27-.04a.43.42 79.5 01.47.33q.55 2.59 3.47 2.42l-1.52 16.24a.35.35 0 01-.6.22q-2.25-2.27-1.6-5.41.11-.5-.04-.98c-.56-1.89.29-3.25.11-4.84q-.24-2.1-.91-4.13-.16-.46-.08-.94l.43-2.87zM434.71 291.5q-1.85-.23-2.8-1.59a1.16 1.14 36 01-.16-.97q1.48-5.34 5.14-9.47a1.81 1.73 70.3 00.42-.94c.23-1.97.87-3.6.2-5.54-3.01-8.83-5.46-15.19-11.3-21.96q-9.31-10.81-21.12-18.82-21.04-14.28-41.59-29.25c.69-3.56 12.74 7.58 13.05 7.78 2.97 1.86 5.97 4.32 8.02 5.44 5.82 3.22 8.78 6.69 15.3 9.63 2.41 1.08 3.19 3.12 5.02 4.37q16.05 10.94 27.59 26.59c2.12 2.88 2.42 8.69 5.4 12.61 7.14 9.41-8.24 14.26-3.17 22.12z"/><path fill="#a9aaab" d="M400.63 250.34q1.44.94 1.81 2.37a.56.56 0 01-.69.68c-16.83-4.72-30.22-18.01-43.18-29.2a.26.26 0 01.28-.43q3.68 1.79 7.3 4.14 17.24 11.21 34.48 22.44z"/><path fill="#fff" d="M296.65 237.55l-.24-.08a.1.09 17.5 01-.07-.12q.76-2.94.35.17a.03.03 0 01-.04.03z"/><ellipse fill="#a9aaab" transform="rotate(72.2 22.381 400.314)" rx="1.49" ry=".65"/><path fill="#a9aaab" d="M360.96 262.16q.58-.44 1.29-.41a.52.51.6 01.5.5v.26a.24.24 0 01-.24.24h-1.35q-.98 0-.2-.59z"/><path fill="#1a1a1a" d="M123.19 272.05l.29-5.91a.69.69 0 01.69-.65l1.57.01a.66.66 0 01.63.5q1.04 4.24.86 8.55a.9.89-71.4 00.38.77l6.33 4.4a.45.45 0 00.68-.21q2.81-7.17-3.87-9.65a1.3 1.28-1.5 01-.73-.68c-.84-1.84 1.81-2.75 3.16-2.56a1.76 1.71-20.2 01.88.39l1.51 1.3q.51.43.63-.23l.32-1.75a.91.89-86.3 01.83-.74l1.85-.12a.67.66-6.7 01.7.55l.26 1.38a.5.49-16.7 00.68.36l.98-.41a1.43 1.41-48.9 01.94-.07q2.12.52 1.93 2.73a1.06 1.03 79.5 01-.57.85l-3.6 1.8a1.25 1.24 81.7 00-.66.89l-1.44 8.27a1.32 1.32 0 001.67 1.49l4.93-1.45a.89.89 0 00.6-.64l1.62-6.96a1.71 1.7-77.8 011.98-1.28q1.68.33 2.07 1.94a1.21 1.19 58.2 01-.23 1.02q-.66.84-.56 1.91a.6.6 0 00.54.54l2.7.25a1.03 1.02 78.5 01.81.54l.89 1.67a.64.64 0 01-.21.83q-.77.53-.94 1.35a1.1 1.08 34.9 00.16.84l1.84 2.78a.96.95-47.6 01.04.99c-2.36 4.31-6.1-1.23-7.5-2.97a.46.46 0 00-.68-.04q-1.96 1.94-4.65 2.67a.43.43 0 00-.24.67c2.01 2.87 9.66 2.3 9.28 6.15a.91.88 82.3 01-.54.73l-1.65.7a.59.59 0 00-.15.99c4.46 3.7-1.49 6.79-3.47 2.45q-.36-.8-.48.07l-.34 2.58a.82.82 0 01-.88.71l-2.12-.16a.82.81-88.1 01-.76-.82v-7.67a1.02.99 22.8 00-.31-.72l-3.31-3.15q-.65-.62-.85.26l-1.37 6.16a1.43 1.42-57.2 00.24 1.13l3.6 4.88a.85.85 0 010 1.02l-1.33 1.79a.67.67 0 01-1.08 0q-1.53-2.07-3.52-.7a1.09 1.06-48.5 01-1.07.08q-.91-.46-.6-1.65.24-.91-.65-.63l-2.75.85a.86.84 52.3 01-.72-.1c-3.17-2.04 2.1-5.43 3.64-6.21a1.02.99 81.6 00.54-.75l.9-5.79q.13-.81-.63-.49l-6.83 2.91a.68.68 0 00-.4.79q.74 3.13-1.55 5.17a1.02 1-55.8 01-1.01.2q-1.87-.67-2.1-2.71a.89.89 0 01.39-.84q1.14-.74 1.14-2.09 0-.62-.54-.31c-1.7.98-7.29 1.43-5.58-2.18a1.33 1.33 0 01.61-.61l1.7-.86q1.01-.5-.07-.84l-2.19-.67a.67.67 0 01-.47-.71l.19-1.67a.83.83 0 01.66-.72c4.7-.91 4.91 2.97 8.57 3.23 2.13.15 4.54-1.75 6.63-2.32a.63.62-34.9 00.2-1.11l-9.56-6.85a1.22 1.21 58 00-.93-.22l-4.4.76a.83.82-20.5 01-.85-.38l-.85-1.41a.67.66-28.4 01.29-.95q2.66-1.25.9-3.69a.57.57 0 01.23-.85q3.19-1.39 5.04 1.58a.59.59 0 001.09-.28z"/><path fill="#a9aaab" d="M490.1 310.55q-5.43-.5-10.75-1.23c-9.95-1.37-19.92-1.73-29.84-3.72a.34.34 0 01-.03-.66q3.25-.97 3.85-4.28a1.13 1.12-60.5 00-.26-.95q-2.6-2.98-6.32-4.25.04-.49.34-.72a.79.78 40.6 01.87-.06c3.02 1.7 8.09 4.01 6.02 7.99a1.28 1.26-39.9 00-.09.93q.67 2.35 3.29 2.53 9.92.67 19.82 1.61 7.6.73 13.1 2.81z"/><path fill="#919496" d="M305 303.96l-.38.04a.46.45-.1 00-.41.4c-.06.53 8.28 2.63 9.49 3.09 2.69 1.01 5.74 3.27 9.27 4.25a.75.75 0 01.13 1.4q-1.28.63-1.31 2.36l-1.2.98a.46.45-37 00-.09.62l.25.36q-.57-.12-.88.08a.61.6 59.6 00-.2.8q1.17 2.2 3.42 3.2a1.18 1.14 4.2 01.66.74c1.89 6.73-8.29 13.01-7.5 14.76-.88.44-2.86 1.06-2.12 2.42a.86.86 0 00.77.45q8.92-.06 17.39 2.59-.21 1.91 1.55 3.25a.61.61 0 01.17.74c-1.13 2.26-3.91 7.3-2.01 7.8q-.87 1.31.25 2l.98 5.29a1.43 1.41 53.6 01-.13.91q-2 3.93-2.75 8.29c-5.52 5.26-11.1 3.55-17.25 6.48q-2.74 1.3-5.64 2.23-1 .32.05.3 3.84-.05 6.92 2.11a.44.43-48.7 01.04.68q-2.87 2.58-7.67 4.7c-13.78 6.09-29.19 13.69-43.48 15.12q-1.67-1.8-4.22-1.33c-7.19 1.32-15.04 1.62-22.34 2.23q-2.32.2-3.55-2.3l3.79-2.71q.67.11 1.34-.12.52-.18.05-.47c-2.38-1.5-9.56-1.62-12.02-1.68a.36.36 0 00-.37.37v.32q-12.8-1.67-25.27-5.08a.34.34 0 01-.18-.53q2.5-3.33 5.74-5.63 2.98-1.64 5.86-3.4 2.81-1.72 5.3-4.13 12.14-11.79 23.04-24.92a.74.74 0 00.05-.88q-.45-.67-1.29-.68l8.7-9.29a.36.36 0 00-.42-.56q-14.11 7.12-27.19 15.99-.61.41-.23-.22 4.06-6.87 9.1-12.88.2.59.67.72a.8.8 0 00.83-.26q11.4-13.91 25.79-24.71c1.71-1.28 3.72-1.03 5.14-1.99 1.34-.92 1.61-2.04 2.88-2.91q5.22-3.54 10.88-6.22c4.64-2.19 10.14-2.92 15.29-3.93a.57.57 0 00.38-.86q-.3-.47-.82-.38 7.38-1.28 14.75 0zm-47.8 32.56l3.58-.03a.75.75 0 01.7 1.02l-.7 1.82a.59.59 0 00.3.75c2.37 1.13 5.02 1.02 7.16 1.63 5.5 1.56 10.61 3.62 16.43 2.21 10.05-2.42 18.59-7.01 21.88-17.25 2.2-6.85.78-14.27-7.78-14.67-15.19-.7-37.23 6.21-43.02 22.49a1.52 1.52 0 001.45 2.03zm50.74 16.68a8.91 3.15-13.9 00-9.407-.918 8.91 3.15-13.9 00-7.892 5.198 8.91 3.15-13.9 009.406.918 8.91 3.15-13.9 007.892-5.198z"/><path fill="#a9aaab" d="M290.25 303.96q.52-.09.82.38a.57.57 0 01-.38.86c-5.15 1.01-10.65 1.74-15.29 3.93q-5.66 2.68-10.88 6.22c-1.27.87-1.54 1.99-2.88 2.91-1.42.96-3.43.71-5.14 1.99q-14.39 10.8-25.79 24.71a.8.8 0 01-.83.26q-.47-.13-.67-.72c4.14-4.56 8.06-9.83 12.29-13.79 14.35-13.46 28.82-24.1 48.75-26.75zM305 303.96q10.06 1.69 19.7 7.41 2.26 1.35.08 2.82-.75.51-2.99 1.31.03-1.73 1.31-2.36a.75.75 0 00-.13-1.4c-3.53-.98-6.58-3.24-9.27-4.25-1.21-.46-9.55-2.56-9.49-3.09a.46.45-.1 01.41-.4l.38-.04z"/><path fill="#fff" d="M257.2 336.52a1.52 1.52 0 01-1.45-2.03c5.79-16.28 27.83-23.19 43.02-22.49 8.56.4 9.98 7.82 7.78 14.67-3.29 10.24-11.83 14.83-21.88 17.25-5.82 1.41-10.93-.65-16.43-2.21-2.14-.61-4.79-.5-7.16-1.63a.59.59 0 01-.3-.75l.7-1.82a.75.75 0 00-.7-1.02l-3.58.03zm35.372 2.132a1.15.96 30.4 00-.506-1.41 1.15.96 30.4 00-1.478.246 1.15.96 30.4 00.506 1.41 1.15.96 30.4 001.478-.246z"/><path fill="#a9aaab" d="M320.75 317.46c10.46 6.15 2.89 15.43-4.5 19.58-.79-1.75 9.39-8.03 7.5-14.76a1.18 1.14 4.2 00-.66-.74q-2.25-1-3.42-3.2a.61.6 59.6 01.2-.8q.31-.2.88-.08z"/><path fill="#919496" d="M427 327.79q-.35.88.02 1.64a1.11 1.09-5.3 00.71.58c6.98 1.79 12.01 3.74 21.24 4.58q.53.05.25-.41l-.16-.25a1.07 1.04-4.4 00-.5-.42q-.18-.06-.31-.22l11.29-.34a.36.35-65.3 01.23.63c-6.79 5.52-11.97 9.06-20.78 9.87-8.14.76-16.31-7.04-20.02-13.58-.66-1.17-1.81-2.25-1.91-4.05a.36.36 0 01.45-.37l9.49 2.34z"/><path fill="#a9aaab" d="M427 327.79c7.53 2.55 11.37 4.82 21.25 5.5q.13.16.31.22a1.07 1.04-4.4 01.5.42l.16.25q.28.46-.25.41c-9.23-.84-14.26-2.79-21.24-4.58a1.11 1.09-5.3 01-.71-.58q-.37-.76-.02-1.64zM184.68 372.24q5.15-1.71 10.58-2.15a1.7 1.68-65.8 00.9-.35q5.29-4.09 9.05-10.79 1.2-2.14 3.89-4.41a1.89 1.8 80.9 00.55-.8c1.29-3.78 5.11-7.88 7.27-11.31a1.42 1.41 30.3 00-.53-1.99c-13.77-7.43-27.88-9.54-43.51-9.09-1.99.06-4.79.14-6.51.36-14.6 1.91-29.45 2.64-42.89 9.88-2.42 1.31-33.59 21.31-23.16 25.01q-2.18 1.07-4.36.56a.44.43-71.3 01-.29-.6c2.36-5.38 4.92-9.36 9.72-13.26 7.18-5.83 12.11-10.44 19.45-13.68q7.24-3.19 14.86-5.2c4.99-1.31 11.3-1.77 17.07-2.69 12.03-1.9 24.71-1.95 36.17-.37q13.38 1.84 26.37 8.98a.46.45 32.4 01.15.66c-3.2 4.67-6.41 8.81-9.55 13.97q-4.92 8.07-11.42 15.01c-2.12 2.26-9.81 2.43-13.81 2.26z"/><path fill="#919496" d="M184.68 372.24l-15.2 3.85a.16.16 0 00.01.32q6.14 1.26 11.77 3.86c2.1.97 1.15 3.35.02 4.8q-11.79 15.15-30.03 21.64-1.91-.99-3.61-.12c-4.6 2.35-10.2 3.75-15.2 5.03a.64.63-8.9 00-.48.65q.02.36.29.52-2.5.52-5 0l.64-.05a.4.39-6 00.37-.45l-.05-.35a.6.6 0 00-.57-.52q-5.46-.19-9.6-3.68a1.27 1.23 19.9 01-.44-.9l-.14-3.97a1.55 1.54 25.2 00-.32-.88c-3.61-4.67-9.92-5.46-15.33-6.41-2.92-.51-6.44-4.09-3.52-7.05q4.85-4.92 8.15-6.86 5.69-3.34 8.23-6.31 1.18-.9 1.05-1.85a.48.48 0 00-.62-.39q-7.75 2.5-15.86 3.53a.56.55-85.5 01-.6-.71q1.43-4.93 4.1-9.3a.3.29 17.4 00-.24-.45q-1.2-.06-2.18.41c-10.43-3.7 20.74-23.7 23.16-25.01 13.44-7.24 28.29-7.97 42.89-9.88 1.72-.22 4.52-.3 6.51-.36 15.63-.45 29.74 1.66 43.51 9.09a1.42 1.41 30.3 01.53 1.99c-2.16 3.43-5.98 7.53-7.27 11.31a1.89 1.8 80.9 01-.55.8q-2.69 2.27-3.89 4.41-3.76 6.7-9.05 10.79a1.7 1.68-65.8 01-.9.35q-5.43.44-10.58 2.15zM141.6 351.3c2.65 9.94 40.42 3.85 47.94 2.06 3.31-.79 10.59-4.75 5.88-9.15-5.82-5.44-13.36-4.98-22.67-5.19-9.87-.23-23.99 3.39-30.94 11.4a.96.95 58.9 00-.21.88zm-13.64 8.307a6.69 4.87-4.4 00-7.044-4.343 6.69 4.87-4.4 00-6.296 5.37 6.69 4.87-4.4 007.044 4.342 6.69 4.87-4.4 006.296-5.37z"/><ellipse fill="#919496" transform="rotate(30.4 -476.362 705.631)" rx="1.15" ry=".96"/><path fill="#fff" d="M189.54 353.36c-7.52 1.79-45.29 7.88-47.94-2.06a.96.95 58.9 01.21-.88c6.95-8.01 21.07-11.63 30.94-11.4 9.31.21 16.85-.25 22.67 5.19 4.71 4.4-2.57 8.36-5.88 9.15z"/><path fill="#a9aaab" d="M332.29 342.5c6.3 1.5 1.4 8.61-.29 11.79-1.9-.5.88-5.54 2.01-7.8a.61.61 0 00-.17-.74q-1.76-1.34-1.55-3.25zM239.25 351.46q.84.01 1.29.68a.74.74 0 01-.05.88q-10.9 13.13-23.04 24.92-2.49 2.41-5.3 4.13-2.88 1.76-5.86 3.4c6.6-7.33 13.57-12.47 21.27-20.29 4.03-4.11 7.69-9.19 11.69-13.72z"/><ellipse fill="#fff" transform="rotate(-13.9 1607.165 -1049.946)" rx="8.91" ry="3.15"/><path fill="#a9aaab" d="M461.04 361.34c-3.23.03-4.87-1.66-4.97-4.85a.55.55 0 01.44-.55q11.95-2.17 24.08-2.77a.47.46 2.6 01.48.52c-.37 2.88-1.85 4.7-4.93 5.09-4.84.63-10.34 2.53-15.1 2.56z"/><ellipse fill="#fff" transform="rotate(-4.4 4747.74 -1398.574)" rx="6.69" ry="4.87"/><path fill="#a9aaab" d="M330.35 370.78q.75-4.36 2.75-8.29a1.43 1.41 53.6 00.13-.91l-.98-5.29q2.76-1.03 4.28 1.27a1 .99 38.3 01.11.89c-1.27 3.49-3.13 9.72-6.29 12.33zM114.67 375.36q-2.54 2.97-8.23 6.31-3.3 1.94-8.15 6.86c-2.92 2.96.6 6.54 3.52 7.05 5.41.95 11.72 1.74 15.33 6.41a1.55 1.54 25.2 01.32.88l.14 3.97a1.27 1.23 19.9 00.44.9q4.14 3.49 9.6 3.68a.6.6 0 01.57.52l.05.35a.4.39-6 01-.37.45l-.64.05q-5.99-.2-10.12-4.36a1.6 1.57 18.7 01-.43-.85l-.87-5.13a1.35 1.31-76.5 00-.48-.81q-2.49-2.04-4.77-2.5c-5.56-1.12-21.64-4.12-12.17-12.92q7.17-6.67 16.26-10.86zM237 398.29l-11-1.58v-.32a.36.36 0 01.37-.37c2.46.06 9.64.18 12.02 1.68q.47.29-.05.47-.67.23-1.34.12zM233.21 401q1.23 2.5 3.55 2.3c7.3-.61 15.15-.91 22.34-2.23q2.55-.47 4.22 1.33-21.51 1.6-32.81 1.91-1.81.05-5.32-.67-.55-.11-.01-.27l8.03-2.37zM481.29 416.5l-1.37-2.11a.78.77-35 01.19-1.05l1.09-.8a1.16 1.14 82.1 00.41-.55l.24-.7a.48.48 0 00-.37-.63q-2.38-.46-3.34 1.2-2.54-1.69-.6-3.99a.53.52 37.8 00-.1-.76q-1.53-1.07-.58-2.88a1.12 1.1-80.3 01.79-.57c2.82-.5 7.77 1.61 5.58 5.17a1.82 1.73-30.6 00-.26.92q.03 3.6-1.68 6.75zM151.25 406.71q-9.15 4.14-19 6.08-.27-.16-.29-.52a.64.63-8.9 01.48-.65c5-1.28 10.6-2.68 15.2-5.03q1.7-.87 3.61.12zM177.5 439.04q-.41-.46-.24-1.06a1.05 1.04 86 01.6-.7q4.07-1.71 9.02-4.6 9.83-5.74 22.42-11.89a1.22 1.21 87.4 00.59-.65l1.26-3.21a.44.43 16.6 00-.32-.58c-3.76-.81-6.75-2.7-10.29-3.68-4-1.12-6.53-3.44-10.33-3.47a.85.83 14.3 00-.76.44c-1.65 2.98-3.99 5.82-5.48 8.52q-4.65 8.46-9.06 17.06c-.61 1.2-1.92 2.08-2.12 3.7a.42.42 0 00.43.47q1.12-.02 1.08 1.08l-3.8 1.35q-.53.19-.39-.36.59-2.35 1.32-3.75 6.55-12.51 16.55-29.26.88-1.47 2.68-.81 10.54 3.91 21.14 7.7a1.34 1.3-4 01.72.61q2.16 3.84-1.84 5.93-26.15 13.66-33.18 17.16z"/><path fill="#919496" d="M177.5 439.04l-3.2 1.43q.04-1.1-1.08-1.08a.42.42 0 01-.43-.47c.2-1.62 1.51-2.5 2.12-3.7q4.41-8.6 9.06-17.06c1.49-2.7 3.83-5.54 5.48-8.52a.85.83 14.3 01.76-.44c3.8.03 6.33 2.35 10.33 3.47 3.54.98 6.53 2.87 10.29 3.68a.44.43 16.6 01.32.58l-1.26 3.21a1.22 1.21 87.4 01-.59.65q-12.59 6.15-22.42 11.89-4.95 2.89-9.02 4.6a1.05 1.04 86 00-.6.7q-.17.6.24 1.06z"/><ellipse fill="#fff" transform="rotate(36.4 -378.938 959.125)" rx="3" ry=".66"/><path fill="#fff" d="M481.29 416.5l-.34 5.1q-.03.54-.47.23-.26-.18-.32-.66-.59-4.68-2.02-9.31.96-1.66 3.34-1.2a.48.48 0 01.37.63l-.24.7a1.16 1.14 82.1 01-.41.55l-1.09.8a.78.77-35 00-.19 1.05l1.37 2.11z"/><ellipse fill="#a9aaab" transform="rotate(18.8 -1080.243 1315.162)" rx="3.89" ry="2.65"/><path fill="#919496" d="M123.46 424.75q-.11.85.19 1.26a.95.95 0 001.26.26c3.12-1.85 5.55-2.84 9.09-3.51q1.86-.35 2.75-2.05 6.55-1.81 13.25-.28a.39.39 0 01.26.56c-5.01 9.28-28.17 16.7-37.77 13.22a1.08 1.08 0 01-.64-1.39c1.69-4.4 7.32-6.93 11.61-8.07z"/><path fill="#a9aaab" d="M136.75 420.71q-.89 1.7-2.75 2.05c-3.54.67-5.97 1.66-9.09 3.51a.95.95 0 01-1.26-.26q-.3-.41-.19-1.26 6.48-2.54 13.29-4.04zM441.54 453.5l.19.34q.19.34.2-.04.03-.7.36-1.3.73 1.72.29 3.53a1.6 1.59 40.9 00.07.94c.69 1.7-.24 6.24 2.06 5.78q.83.8 1.68.1a1.33 1.32-16.1 00.47-.84c.88-6.2.14-13.26.37-20.65.08-2.56 2.19-5.3-1.84-6.92a.4.39 15 00-.54.31c-.33 2.7-1.34 5.14-4.42 5.49q-4.54 1.28-5.49-2.68c-1.18-4.88 7.89-2.58 9.1-3.82a.51.51 0 00-.18-.83q-3.68-1.47-7.34-2.58c-2.49-.76-3.65-2.42-2.34-4.89a.83.82-69.3 01.91-.42l1.4.32q.64.15.43-.47l-.42-1.3a.79.79 0 01.1-.71c2.23-3.23 14.34 1.84 17.41 3.23a1.71 1.69 9.7 011 1.39q.2 2.27-1.81 3.17a1.21 1.2-46.7 01-.93.03q-1.16-.43-2.31-.1-.81.23-.02.53 2.12.83 3.51 2.62a1.47 1.47 0 01.31.93c-.08 2.7-2.6 2.29-4.41 2.79a.5.49-37.7 00-.12.9l2.56 1.49a.8.79-64.4 01.34.99c-1.13 2.88-3.58 3.29-3.34 7.06q.16 2.62.15 2.74-.81 18.09-3.68 35.97c-.05.34.07 1.2-.31 1.51a.44.43 68 01-.7-.3c-1.16-11.44-2.9-22.24-2.71-34.31zm6.406-24.175a2.46 1.26 24.1 00-1.732-2.155 2.46 1.26 24.1 00-2.76.145 2.46 1.26 24.1 001.731 2.155 2.46 1.26 24.1 002.76-.146zM351.75 424.04q.04.32.27.53a.53.53 0 01.12.65c-.27.5-.71.61-1.27.46-7.65-1.91-14-1.57-22.89-1.09-5.75.3-11.53.85-16.56 3.36-2.39 1.2-5.87 1.69-8.06 4.38a1.26 1.26 0 00.59 1.99q2.24.72 1.8 2.47l-3.77-1.8a1.05 1.04 6.6 01-.58-.72q-.53-2.29 1.28-3.61c12.49-9.11 34.05-9.23 49.07-6.62z"/><path fill="#919496" d="M351.75 424.04q1.8.42 3.16 1.58a.69.67 32 01.19.79c-2.53 6.03-10.34 11-16.05 13.16-10.35 3.92-23.18 1.7-33.3-2.78q.44-1.75-1.8-2.47a1.26 1.26 0 01-.59-1.99c2.19-2.69 5.67-3.18 8.06-4.38 5.03-2.51 10.81-3.06 16.56-3.36 8.89-.48 15.24-.82 22.89 1.09.56.15 1 .04 1.27-.46a.53.53 0 00-.12-.65q-.23-.21-.27-.53z"/><path fill="#a9aaab" d="M260.16 424.94c-3.4 4.83-11.34 9.46-15.74 11.45-17.95 8.12-37.93 13.2-56.88 19.16q-.48.15-.07-.14c8.48-6 18.36-12.98 27.53-15.68q22.75-6.7 44.97-15.05.5-.19.19.26z"/><ellipse fill="#fff" transform="rotate(24.1 -780.388 1258.106)" rx="2.46" ry="1.26"/><path fill="#fff" d="M444.71 462.75q-.19-8.61-.19-17.28c0-1.35-.35-2.01-1.9-1.42a.6.6 0 00-.38.68q.71 3.87.05 7.77-.33.6-.36 1.3-.01.38-.2.04l-.19-.34-.52-11.42q-.02-.49-.22-.94l-.37-.9c3.08-.35 4.09-2.79 4.42-5.49a.4.39 15 01.54-.31c4.03 1.62 1.92 4.36 1.84 6.92-.23 7.39.51 14.45-.37 20.65a1.33 1.32-16.1 01-.47.84q-.85.7-1.68-.1z"/><path fill="#919496" d="M444.71 462.75c-2.3.46-1.37-4.08-2.06-5.78a1.6 1.59 40.9 01-.07-.94q.44-1.81-.29-3.53.66-3.9-.05-7.77a.6.6 0 01.38-.68c1.55-.59 1.9.07 1.9 1.42q0 8.67.19 17.28z"/><path fill="#a9aaab" d="M367.21 473.5l.06.79a.76.75-85.3 00.57.68c3.53.92 2.14-9.1 2.06-10.88a1.12 1.12 0 00-1.23-1.06c-2.37.23-1.75 3.55-.82 5.24a1.43 1.41-55.2 01.16.92l-.55 3.56-2.25-4.81q-.22-.45-.21-.95l.01-1.65a.65.65 0 00-.72-.65q-2.07.24-2.88-1.7a.47.46-17.2 01.34-.64l2.57-.48a.7.69-3.8 00.57-.64l.03-.71a.53.53 0 01.53-.51c2.55-.01 7.98.06 9.21 2.79a.59.59 0 01-.18.72q-4.16 3.14-1.49 7.59a.82.8-40.2 01-.09.95l-1.77 2.02a.98.94-30.8 00-.23.84q.18.91.08 1.32-1.43 5.5-1.8 11.02a.39.39 0 01-.78.02l-1.2-10.87q-.05-.45-.3-.82-.77-1.15.31-2.09zM191.75 480.29c-3.37-.75 3.9-10.63 4.68-11.54a.84.82-35.8 00.15-.86c-.45-1.13-1.9-.71-2.78-.17q-9.5 5.82-19.39 11.03c-6.35 3.35-10.18 7.9-13.24 14.05a1.02 1.02 0 00.93 1.48c6.81-.12 13.82-1.2 20.6.56a.88.87-59.4 00.84-.22c1.96-1.88 3.35-4.18 5.18-6.15q3.07-3.32 4.53-7.68l2.86-1.56a.42.42 0 01.54.63l-12.32 16.01a.83.83 0 01-.91.28q-.68-.23-1.37-.29-11.53-1.04-22.46-.14a.68.68 0 01-.65-1.01c3.58-6.36 6.24-12.99 13.1-16.44q14.15-7.11 27.9-15.34a.52.52 0 01.72.69l-8.91 16.67z"/><path fill="#919496" d="M295.8 465.5h-.32a.26.26 0 01-.26-.28l.15-1.85q.09-1.16.98-.41l3.93 3.32a.59.59 0 01-.46 1.03q-2.01-.29-3.58-1.65a.69.68-24.7 00-.44-.16z"/><path fill="#fff" d="M367.21 473.5l.25-.75.55-3.56a1.43 1.41-55.2 00-.16-.92c-.93-1.69-1.55-5.01.82-5.24a1.12 1.12 0 011.23 1.06c.08 1.78 1.47 11.8-2.06 10.88a.76.75-85.3 01-.57-.68l-.06-.79z"/><path fill="#919496" d="M191.75 480.29q-.3.2-.37.43-.18.58.41.43l1.46-.36q-1.46 4.36-4.53 7.68c-1.83 1.97-3.22 4.27-5.18 6.15a.88.87-59.4 01-.84.22c-6.78-1.76-13.79-.68-20.6-.56a1.02 1.02 0 01-.93-1.48c3.06-6.15 6.89-10.7 13.24-14.05q9.89-5.21 19.39-11.03c.88-.54 2.33-.96 2.78.17a.84.82-35.8 01-.15.86c-.78.91-8.05 10.79-4.68 11.54z"/><path fill="#a9aaab" d="M253.24 481.22a.59.59 0 01.47.59c-.05 2.77-1.99 4.79-2.04 7.1-.06 2.21.52 4.76-1.58 6.41q-.4.32-.44-.19c-.23-3.2-1.02-17.21-.35-17.54a.42.42 0 01.59.28q.63 2.74 3.35 3.35z"/><ellipse fill="#919496" transform="rotate(76.6 -249.696 308.807)" rx="1.12" ry=".39"/><path fill="#fff" d="M341.03 488.47a.66.65 25.3 01-.3-.82q.82-2.1-.76-3.62a.44.43-32.1 01.17-.72c2.17-.73 1.89 3.22 1.42 4.23a.55.55 0 00.42.78l1.52.22q.51.07.04.29-.97.47-2.51-.36z"/><path fill="#919496" d="M8.19 591H3.44q2.37-.63 4.75 0z"/></svg>