<svg xmlns="http://www.w3.org/2000/svg" viewBox="0 0 591 591"><g stroke-width="2" fill="none"><path stroke="gray" vector-effect="non-scaling-stroke" d="M0 590.19l585.75.01a.5.49 0 00.5-.49V1.03a.51.51 0 00-.51-.51L0 .44"/><path stroke="#7e7f70" vector-effect="non-scaling-stroke" d="M581.5 5.84a.58.58 0 00-.58-.58H1.58a.58.58 0 00-.58.58v579.08a.58.58 0 00.58.58h579.34a.58.58 0 00.58-.58V5.84"/><path stroke="#fbf2c6" vector-effect="non-scaling-stroke" d="M42.45 28.68c-11.29.3-19.96 6.09-20.23 18.09q-.42 19.1-.45 45.59a.4.39-7.4 00.5.38q1.68-.43 3-1.73 29.47-28.9 59.09-57.65 1.42-1.37 1.76-2.26a1.55 1.54-78.5 00-1.38-2.09q-21.52-.89-42.29-.33"/><path stroke="#8d8e7f" vector-effect="non-scaling-stroke" d="M229.96 162q2.89-10.29 5.86-20.59 1.2-4.18.51-6.44c-2-6.49-12.52-5.01-14.58 1.31q-2.45 7.47-4.89 14.23"/><path stroke="#cacdc0" vector-effect="non-scaling-stroke" d="M216.86 150.51q-18.85-5.76-38.03 1.59c-20.57 7.89-35.92 27.61-34.58 50.14a.69.68 77.7 01-.43.68c-2.52.94-5.24 1.39-7.51 2.42-23.84 10.82-35.1 32.62-32.47 58.15q3.24 31.52 33.93 43.89c4.63 1.86 9.14 1.07 13.54 4.02 4.91 3.31 8.14 5.68 13.65 7.85"/><path stroke="#8d8e7f" vector-effect="non-scaling-stroke" d="M164.96 319.25q-11.74 39.61-24.13 79.03c-6.46 20.54-12.33 41.23-18.94 61.73-8.28 25.66-14.89 51.9-24.07 77.25a1.35 1.34-46.4 00.02.95c2.25 5.48 8.22 5.33 13.14 4.95 6.96-.54 7.45-4.47 9.34-10.95q3.61-12.43 7.79-24.72a.69.68 9.5 01.65-.46q25.94.12 51.76 2.62a.51.51 0 01.44.62l-7.83 33.48a1.6 1.59 40.9 00.07.94c1.04 2.61 2.2 4.53 5.21 5.14q7.29 1.48 13.7-2.54a1.35 1.32-8.7 00.56-.74q2.76-9.62 5.53-22.06 9.73-43.72 21.89-92.78c6.5-26.19 12.65-54.79 17.03-72.88q11.46-47.38 15.42-64.83"/><path stroke="#cacdc0" vector-effect="non-scaling-stroke" d="M252.54 294c4.19.48 13.51-3.64 16.67-6.36 10.27-8.81 13.56-18.84 17.48-31.73a.53.52-38.7 011.03.11c.48 7.57-1.86 15.69-4.8 21.92-5.64 12-16.82 18.34-29.27 21.26a1.55 1.55 0 00-1.15 1.11l-3.62 13.91a1.57 1.57 0 001.63 1.96c18.64-1.36 29.54-10.64 42.58-22.62q2.1-1.93 4.73-.32.4.25.88.28l7.52.51a.77.77 0 01.7.61c3.94 18.45 19.32 31.27 37.5 34 7.86 1.17 16.13-.37 23.86-2.57a1.02.99 55.2 01.87.17q12.05 9.09 24.12 12c49.48 11.9 118.73-32.42 114.8-87.52-1.89-26.41-21.4-45.14-47.4-48.15-4.71-.54-10.43-.08-15.72-.2a.61.6 86 01-.58-.51q-3.39-22.83-22.77-34.03c-2.77-1.6-6.59-2.85-9.81-4.5a.89.87-79.3 01-.48-.72c-2.63-39.4-39.5-58.33-74.72-57.34-26.32.75-57.61 9.68-74.91 31-2.82 3.48-4.71 7.97-7.13 12.05q-3.2 5.37-3.71 14.4a.47.47 0 01-.52.44c-6.2-.61-10.1 1.27-15.5 2.5a.67.67 0 01-.72-.33q-1.36-2.56-4.14-3.33"/><path stroke="#5c5d5f" vector-effect="non-scaling-stroke" d="M252.54 294l.5-1.75"/><path stroke="#a3a5a7" vector-effect="non-scaling-stroke" d="M253.04 292.25q2.13-.26 1.74-2.3a.86.85 64.1 01.27-.8c1.9-1.76 2.36-7.63 2.92-10.27.86-4.01 3.09-8.61 3.75-13.39q1.83-13.36 5.99-26.18a1.87 1.8 48.4 00.04-.96c-.23-.92 1.58-4.85 1.79-6.27 1.81-11.72 5.11-23.51 7.89-35.05q.4-1.65 1.98-6.02c1.41-3.92 1.15-7.97 1.84-11.47"/><path stroke="#cccecf" vector-effect="non-scaling-stroke" d="M281.25 179.54c2.72-2.44 10.89-2.98 14.32-2.74 12.97.91 20.81 9.75 27.61 19.73a.36.36 0 00.64-.34c-5.19-13.22-12.78-23.22-28.25-23.57a.3.3 0 01-.26-.45c7.85-14.9 29.24-22.49 44.95-23.24a.15.14 47.4 00.01-.29c-10.24-1.47-19.83.95-29.21 5.28-7.46 3.43-16.91 10.49-20.37 18.38a.87.87 0 01-.69.51l-7.25.9"/><path stroke="#a3a5a7" vector-effect="non-scaling-stroke" d="M282.75 173.71c.82-2.33 4.99-16.41 2.29-16.96"/><path stroke="#5c5d5f" vector-effect="non-scaling-stroke" d="M285.04 156.75l1.17-3.75"/><path stroke="#cccecf" vector-effect="non-scaling-stroke" d="M286.21 153c.58.29.93 0 1.16-.57q.84-2.05 3.62-4.13c18.08-13.47 40.72-20.11 62.56-13.85 13.08 3.75 22.74 16.1 24.91 29.14 2.92 17.57-7.67 43.72-23.35 53.28q-2.34 1.43-4.44 3.27-.39.34.1.16c15.4-5.68 25.44-20.81 30.34-35.83a.73.72-81.8 01.66-.5c16.02-.83 29.41 2.75 35.74 18.88q5.36 13.64-5.53 26.25a.39.39 0 00.49.59q9.01-5.22 10.72-15.46a.77.76-.6 01.61-.62q10.07-1.78 13.7-2.02c19.6-1.34 44.45 8.25 44.05 31.69q-.18 10.26-5.27 18.79a.28.27-2.8 00.4.36q2.84-2.03 4.02-4.79c11.49-26.8-7.82-47.32-33.97-49.12q-11.52-.79-22.76 2.08a.79.78 84.3 01-.97-.8q.22-4.73-1.59-9.06c-7.1-16.99-20.37-22.57-38.38-21.15a.66.66 0 01-.7-.79q4.33-20.76-9.46-36.95c-19.91-23.38-57.57-15.49-79.76-.71q-1.22.82-3.82.61"/><path stroke="#5c5d5f" vector-effect="non-scaling-stroke" d="M289.29 141.75c.47-3 2.33-10-1.09-11.72q-5.5-2.77-11.64.51"/><path stroke="#a3a5a7" vector-effect="non-scaling-stroke" d="M276.56 130.54q-3.53-1.46-4.77 2.98-2.65 9.43-2.45 19.25"/><path stroke="#5c5d5f" vector-effect="non-scaling-stroke" d="M269.34 152.77q-.97 7.38-3.26 14.76a.7.69-81.8 01-.65.49c-12.49.32-24.93 2.33-37.54 2.79a.41.41 0 01-.42-.47q.66-4.37 2.49-8.34"/><path stroke="#8f8f8f" vector-effect="non-scaling-stroke" d="M286.21 153l3.08-11.25"/><path stroke="#d6d6d7" vector-effect="non-scaling-stroke" d="M281.25 179.54l-.34-.05a.46.46 0 01-.39-.4l-.06-.59M281.79 173.75l.96-.04"/><path stroke="#666" vector-effect="non-scaling-stroke" d="M285.04 156.75l-3.25 17"/><path stroke="#8f8f8f" vector-effect="non-scaling-stroke" d="M281.79 173.75l-1.33 4.75"/><path stroke="#666" vector-effect="non-scaling-stroke" d="M280.46 178.5c-6.91 26.85-12.9 53.9-19.68 80.79-2.34 9.28-4.44 22.08-7.74 32.96"/><path stroke="#5c5d5f" vector-effect="non-scaling-stroke" d="M164.96 319.25l1.5-6"/><path stroke="#666" vector-effect="non-scaling-stroke" d="M166.46 313.25l10.33-32.75"/><path stroke="#5c5d5f" vector-effect="non-scaling-stroke" d="M176.79 280.5l1.92-6"/><path stroke="#8f8f8f" vector-effect="non-scaling-stroke" d="M178.71 274.5l1.79-5.71"/><path stroke="#666" vector-effect="non-scaling-stroke" d="M180.5 268.79q7.27-25.15 15.37-50.04c3.7-11.37 7.2-25.11 11.42-37.5"/><path stroke="#5c5d5f" vector-effect="non-scaling-stroke" d="M207.29 181.25l2.21-6.71"/><path stroke="#8f8f8f" vector-effect="non-scaling-stroke" d="M209.5 174.54l1.29-5.04"/><path stroke="#5c5d5f" vector-effect="non-scaling-stroke" d="M210.79 169.5l.92-3"/><path stroke="#666" vector-effect="non-scaling-stroke" d="M211.71 166.5l2.65-9.97"/><path stroke="#5c5d5f" vector-effect="non-scaling-stroke" d="M214.36 156.53q1.74-2.33 2.5-6.02"/><path stroke="#666" vector-effect="non-scaling-stroke" d="M269.34 152.77c2.52-10.03 4.2-17.27 7.22-22.23"/><path stroke="#a3a5a7" vector-effect="non-scaling-stroke" d="M207.29 181.25q.03-.45-.42-.52a.4.39-75.7 00-.43.26c-1.66 5.1-3.96 9.97-5.31 15.05q-3.29 12.32-7.43 24.39c-1.03 3.03-1.87 7.65-3.7 11.31q-.93 1.85-2.49 9.06-2.34 10.76-6.44 20.97c-.97 2.4-1.13 4.5-1.28 6.98M214.36 156.53q-2.95 3.95-3.59 9.01a.71.7-74.8 00.41.73l.53.23"/><path stroke="#cccecf" vector-effect="non-scaling-stroke" d="M210.79 169.5c-25.87-3.05-47.29 20.72-51.23 44.25a.76.74-2.5 01-.56.6q-25.27 6.16-30.45 30.42c-3.7 17.32 3.08 36.97 20.72 42.61 7.14 2.27 15.67 1.49 23.24.25a.59.58 82.2 00.48-.64l-.03-.3a.5.5 0 00-.56-.44c-10.29 1.25-19.18.62-27.61-4.95-11.95-7.9-15.65-25.4-11.81-38.16 3.39-11.29 10.69-18.23 21.5-22.65q2.6-1.06 4.29-.97a.52.52 0 01.49.54q-.21 5.3 2.05 10.08a1.16 1.15-33.6 01-.28 1.36c-7.95 7.02-11.98 18.53-7.55 28.55 4.31 9.75 14.73 14.43 25.23 14.45"/><path stroke="#a3a5a7" vector-effect="non-scaling-stroke" d="M176.79 280.5q-1.71.65-1.96 2.49c-.75 5.39-3.06 11.4-5.03 16.49-1.64 4.27-2.85 8.95-4.62 13.39a.44.44 0 00.34.6q.44.07.94-.22"/><path stroke="#cccecf" vector-effect="non-scaling-stroke" d="M209.5 174.54c-15.51-2.85-28.58 7.63-37.36 19.06-7.54 9.81-10.06 21.33-9.89 33.6q.03 2.03 1.66.82 4.56-3.39 10.02-4.12 1.57-.21.13.44-9.44 4.26-15.11 13.57c-9.66 15.86.7 31.48 18.22 32.05q1.75.06 2.62-1.21"/><path stroke="#d6d6d7" vector-effect="non-scaling-stroke" d="M179.79 268.75l.71.04"/><path stroke="#d4d6c7" vector-effect="non-scaling-stroke" d="M539.55 290.51q-.49.55-.27 1.29.22.7.54.05l1.07-2.12q.27-.54-.31-.35-.3.1-.46.34-.46.67-.57.79"/><path stroke="#5c5d5f" vector-effect="non-scaling-stroke" d="M209.46 422l-4.17 16"/><path stroke="#666" vector-effect="non-scaling-stroke" d="M205.29 438q-6.63 29.09-14.35 57.91c-3.81 14.23-6.95 29.89-11.17 44.73q-.84 2.96 2.23 3.07l2.98.11a1.98 1.96 8.3 001.97-1.46l2.84-10.86"/><path stroke="#5c5d5f" vector-effect="non-scaling-stroke" d="M189.79 531.5q6.07-22.2 10.67-44.75"/><path stroke="#666" vector-effect="non-scaling-stroke" d="M200.46 486.75l1.33-6.75"/><path stroke="#5c5d5f" vector-effect="non-scaling-stroke" d="M201.79 480l2.71-11.21"/><path stroke="#666" vector-effect="non-scaling-stroke" d="M204.5 468.79l5.29-20.79"/><path stroke="#5c5d5f" vector-effect="non-scaling-stroke" d="M209.79 448l7.17-31"/><path stroke="#666" vector-effect="non-scaling-stroke" d="M216.96 417c4.76-17.82 8.35-35.97 12.74-53.7 8.93-36.06 17.06-72.22 25.91-108.25 1.65-6.71 3.05-14.96 4.96-22.37 3.31-12.85 5.1-20.32 7.62-30.49 1.37-5.53 2.44-12.43 4.09-18.59q2.43-9.06 3.43-13.83c2.39-11.45 6.28-22.58 7.63-34.22a.63.63 0 00-1.01-.58c-3.67 2.84-6.09 16.71-7.06 21.4-1.31 6.32-3.33 12.63-4.83 19.32q-3.09 13.8-7.52 29.95c-2.86 10.45-5.15 21.13-7.84 31.69-5.04 19.75-9.39 39.65-14.73 59.32-9.42 34.74-16.25 69.16-25.63 103.41-1.95 7.1-3.46 14.63-5.26 21.94"/><path stroke="#a3a5a7" vector-effect="non-scaling-stroke" d="M216.96 417q-.69.31-1.44.2a.47.46 23 01-.3-.74c1.23-1.61 1-3.62 1.34-4.96q2.76-11.02 4.37-22.26c.23-1.54 1.92-3.14 2.33-4.89 1.97-8.45 3.18-17.02 5.7-25.37q1.49-4.91 2.82-9.99a.96.96 0 00-.94-1.2c-.95.01-1.69 3.91-1.81 4.64q-.09.49-.38.9c-2.07 2.85-1.94 5.81-2.57 8.48q-2.03 8.65-3.36 17.44-.53 3.53-2.23 6.64c-1.98 3.6-1.85 7.47-2.49 11.41-.24 1.42.04 3.4-1.01 5.04q-1.56 2.47-1.59 2.53c-1.35 3.24-1.53 6.73-2.42 9.79q-1.05 3.59-1.57 7.33a.82.82 0 01-.92.7q-.56-.08-1.03-.69M209.79 448l-.04-.64a.91.89-81.1 00-.55-.77l-.32-.13a.32.31-67.9 00-.41.18c-1.66 4.05-1.54 8.19-2.97 12.16q-1.64 4.52-1.85 9.34a.65.64-79.9 00.44.64q.2.06.41.01M201.79 480q.04-.3.01-.53a.61.61 0 00-1.2-.05l-1.99 7.71q-.17.63.42.34l1.43-.72M189.79 531.5q.26-1.28-.78-1.6a.47.47 0 00-.6.37q-.85 4.77-1.92 9.47-.82 3.59-4.31 2.47a.94.92 14.8 01-.63-1.06q1-5.13 2.88-9.9c1.81-4.6 1.67-9.93 3.07-14.75 2.98-10.23 5.42-20.49 8.07-30.8 2.19-8.55 4.05-18.89 8.2-28.21 1.84-4.13.66-8.37 1.59-12.68q.65-3.02 1.13-6.09a.72.71 17.3 00-.4-.75q-.31-.15-.8.03"/><path stroke="#666" vector-effect="non-scaling-stroke" d="M190.69 256.44c-4.73 14.59-11.69 39.54-19.76 64.48-5.49 16.97-10.99 34.36-15.61 51.58-3.87 14.46-9.08 27.78-13.29 42.36q-2.12 7.36-3.09 10.36c-4.61 14.41-8.63 29.26-13.22 43.35-7.38 22.63-14.2 45.51-20.84 68.37a.48.48 0 00.34.6q5.75 1.48 7.91-3.06c2.25-4.72 3.19-12 5.11-17.56 1.01-2.94 4.14-10.21 3.23-12.61q-1.12-2.93-.56-6a1.16 1.13-11.4 01.52-.76q2.74-1.72 3.25-2.87c3.55-7.97 5.41-16.61 7.75-24.99.59-2.13-.13-5.06.52-7.22.93-3.12 3.06-5.23 4.05-8.11q4.44-12.9 6.23-22.11c.45-2.33-1.06-4.6-.49-7.03q.7-2.93 2.89-4.96c3.57-3.3 3.11-6.86 4.51-10.63q3.06-8.25 5.1-16.81c1-4.23.7-8.93 1.46-13.51a1.05 1.03 82.5 01.59-.78l1.9-.9a1.3 1.28-4.1 00.67-.76q3.9-12.16 7.2-24.54c1.41-5.28-1.01-8.19 3.84-12.66a1.95 1.93 76.9 00.57-.93l6.32-22.73a1.72 1.66-47.7 00-.03-1c-2.17-6.33 2.04-7.49 3.93-12.99 2.59-7.57 6.48-16.56 5.63-22.55-.61-4.33 3.37-6.27 4.16-9.02q3.13-10.95 6.51-21.85c.76-2.43.08-5.08 1.36-7.61 2.45-4.8 3.63-10.12 5.26-15.24.94-2.94 1.63-7.41 3.32-11.04a1.14 1.12 47.4 00.03-.9c-2.17-5.52 2.65-7.29 3.74-12.21q2.2-9.92 6.01-19.37a1.61 1.59-41.3 00.07-1q-1.46-5.75 2.83-9.67a1.7 1.67-13.6 00.46-.74l9.26-32.72a.74.74 0 00-.49-.91c-1.97-.6-2.61.33-3.1 2.07q-4.72 16.78-10.23 33.3c-4.15 12.43-7.52 24.98-11.43 37.43-4.71 15-9.01 29.86-14.39 46.45"/><path stroke="#5c5d5f" vector-effect="non-scaling-stroke" d="M256.25 179.29c-3.47.33-29.59 2-30.5 2.92"/><path stroke="#8d8e7f" vector-effect="non-scaling-stroke" d="M225.75 182.21q-1.69-.39-1.79 1.04"/><path stroke="#666" vector-effect="non-scaling-stroke" d="M223.96 183.25c-1.69 5.35-3.07 10.73-4.97 16.02q-.85 2.39-1.18 4.95a.5.49-83.8 00.44.56q1.38.14 2.34-.38"/><path stroke="#5c5d5f" vector-effect="non-scaling-stroke" d="M220.59 204.4c11.51-1.33 23.92-.29 35.64-.83a.85.83-78.1 00.72-.48q.82-1.78.61-3.58"/><path stroke="#8f8f8f" vector-effect="non-scaling-stroke" d="M257.56 199.51l2.73-10.26"/><path stroke="#5c5d5f" vector-effect="non-scaling-stroke" d="M260.29 189.25l.77-3.46"/><path stroke="#8f8f8f" vector-effect="non-scaling-stroke" d="M261.06 185.79l1.76-5.3a1.23 1.22 7.1 00-1.26-1.61l-5.31.41"/><path stroke="#cccecf" vector-effect="non-scaling-stroke" d="M261.06 185.79q-1-3.93-4.69-5.44a.58.57 18.3 01-.34-.67q.05-.22.22-.39M260.29 189.25q.12-.8-.14-1.58-.17-.5-.41-.03c0 .01-5.57 9.29-5.26 9.7a.39.38-43.4 00.61.01l1.55-1.87q.8-.97.6.27-.33 1.99.32 3.76"/><path stroke="#a3a5a7" vector-effect="non-scaling-stroke" d="M220.59 204.4q-1.61-5.06 1.86-9.31a1.46 1.45 66.5 00.34-.88q.2-4.7 2.09-9.13"/><path stroke="#cacdc0" vector-effect="non-scaling-stroke" d="M224.88 185.08l2.25 5.4a.42.42 0 00.38.27l.29.01a.41.41 0 00.42-.52q-1.1-3.91.85-7.18a.42.42 0 00-.33-.63l-2.99-.22"/><path stroke="#d4d6c7" vector-effect="non-scaling-stroke" d="M224.88 185.08l-.92-1.83"/><path stroke="#666" vector-effect="non-scaling-stroke" d="M213 219.21l-5.4 19.47a.36.35-84.8 00.37.45c1.34-.11 2.6-.37 3.88-.38q18.28-.13 36.54-1.97a.45.45 0 00.4-.35l3.8-17.55"/><path stroke="#5c5d5f" vector-effect="non-scaling-stroke" d="M252.59 218.88l1.31-3.59a.69.68 26.8 00-.27-.81c-1.26-.8-3.02 0-4 .03q-9.31.27-18.63.29c-5.27.01-11.13.89-16.76.96a.65.64-83.9 00-.63.51l-.61 2.94"/><path stroke="#a3a5a7" vector-effect="non-scaling-stroke" d="M252.59 218.88q-2.73 4.72-3.07 8.37-.46 4.81-2.28 7.82a1.16 1.14 9.8 01-.75.52c-6.92 1.34-13.11.84-21 1.71-4.93.54-9.94-.17-15.04-.08a.41.41 0 01-.41-.48q.31-1.74.5-3.5c.35-3.37 1.61-6.28 1.93-9.75a.89.87 79.3 01.48-.72c5.44-2.77 9.47-2.36 14.93-3.43a.49.48 41 00-.07-.96q-3.63-.22-7.72-.14c-2.34.05-4.35 1.35-7.09.97"/><path stroke="#5c5d5f" vector-effect="non-scaling-stroke" d="M203.79 250.5l-1.25 3.25"/><path stroke="#666" vector-effect="non-scaling-stroke" d="M202.54 253.75l-4.44 17.87a.54.54 0 00.39.65q.35.09.76-.06"/><path stroke="#5c5d5f" vector-effect="non-scaling-stroke" d="M199.25 272.21l8.5-.17"/><path stroke="#666" vector-effect="non-scaling-stroke" d="M207.75 272.04l31.5-.3a.77.75 7.8 00.72-.53q3.37-10.82 5.62-21.92a.52.51-84.4 00-.5-.62q-18.84-.24-37.67.54c-1.02.04-4.42-1.16-3.63 1.29"/><path stroke="#a3a5a7" vector-effect="non-scaling-stroke" d="M207.75 272.04l-1.26-.06a.52.51 4.3 01-.49-.56l.03-.33a.72.72 0 01.64-.64c4.43-.45 9.38.11 13.11.02q8.49-.2 17.06-.5a1.54 1.53-84.6 001.44-1.2l2.09-9.21a1.36 1.34-10.5 01.58-.83c2.39-1.55 2.45-5.2 3.2-7.6a1.12 1.11-80.5 00-1.03-1.45q-14.16-.36-27.6.64c-1.1.08-11.02.67-11.73.18"/><path stroke="#a3a5a7" vector-effect="non-scaling-stroke" d="M199.25 272.21c1.54-7.11 4.06-12.29 4.68-17.92a.48.47-86.7 00-.47-.53l-.92-.01"/><path stroke="#8f8f8f" vector-effect="non-scaling-stroke" d="M203.75 282.54l-5.25-.25"/><path stroke="#666" vector-effect="non-scaling-stroke" d="M198.5 282.29l-3.49-.05a.68.68 0 00-.65.48l-4.9 15.78"/><path stroke="#5c5d5f" vector-effect="non-scaling-stroke" d="M189.46 298.5q-1.61 3.43-1.87 7.19a.48.48 0 00.47.51l29.69.51"/><path stroke="#666" vector-effect="non-scaling-stroke" d="M217.75 306.71l8.6.27"/><path stroke="#5c5d5f" vector-effect="non-scaling-stroke" d="M226.35 306.98c1 .33 4.56 1.25 4.9-.44"/><path stroke="#666" vector-effect="non-scaling-stroke" d="M231.25 306.54l1.46-5.04"/><path stroke="#8f8f8f" vector-effect="non-scaling-stroke" d="M232.71 301.5l1.33-5.5"/><path stroke="#5c5d5f" vector-effect="non-scaling-stroke" d="M234.04 296l3.19-12.77a1.01 1-85.5 00-1.06-1.25q-12.92 1.17-26.41.25-3.04-.21-6.01.31"/><path stroke="#cccecf" vector-effect="non-scaling-stroke" d="M234.04 296c-1.47-.03-2.6.38-4.06.17-10.9-1.58-19.5-5.04-26.23-13.63"/><path stroke="#d6d6d7" vector-effect="non-scaling-stroke" d="M232.71 301.5l-.92-.25"/><path stroke="#cccecf" vector-effect="non-scaling-stroke" d="M231.79 301.25l-.15-.24a.52.51-12.6 00-.37-.23q-12.71-1.39-23.23-8.3c-3.72-2.44-6.75-6-10.04-9.27"/><path stroke="#d6d6d7" vector-effect="non-scaling-stroke" d="M198.5 282.29l-.5.92"/><path stroke="#a3a5a7" vector-effect="non-scaling-stroke" d="M198 283.21c-2.88-.43-6.2 13.41-6.77 15.87a.88.88 0 01-1.4.49q-.49-.39-.37-1.07M231.79 301.25l-1.18 4.83a.35.35 0 00.29.43l.35.03M226.35 306.98q-3.71-1.77-7.86-1.24a.74.74 0 00-.63.56l-.11.41"/><path stroke="#8d8e7f" vector-effect="non-scaling-stroke" d="M182.71 321.65l-5.21 17.36a1.26 1.26 0 001.28 1.62q21.96-1.4 43.87.27a.68.68 0 00.72-.53l5.05-22.17a.5.5 0 00-.46-.61l-19.46-.98"/><path stroke="#5c5d5f" vector-effect="non-scaling-stroke" d="M208.5 316.61l-23.13-.22a1.62 1.61 7.6 00-1.58 1.2l-1.08 4.06"/><path stroke="#cacdc0" vector-effect="non-scaling-stroke" d="M208.5 316.61q-5.28 1.06-10.28 2.85-7.5 2.68-15.51 2.19"/><path stroke="#8d8e7f" vector-effect="non-scaling-stroke" d="M219.94 351.16q-22.46-.91-44.94-.61a.78.77-81.3 00-.74.55c-2.68 8.41-6.8 18.04-8.15 26.65a.44.43-86 00.43.5h46.45a.7.69 7.7 00.67-.51l6.85-25.81a.61.61 0 00-.57-.77M155.17 418.26c15.86-.05 31.87-.34 47.84.43a.61.6-80.6 00.62-.45q1.76-6.43 6.16-23.49.71-2.75.89-5.04a.49.48 4 00-.46-.52c-15.08-.73-29.49.35-46.96-.18a.69.69 0 00-.69.5l-8.18 27.71a.81.81 0 00.78 1.04M143.34 457.13l49.35.75a1.73 1.72-81.4 001.68-1.24q3.73-12.68 6.36-25.64a.59.58-75.4 00-.39-.67c-1.83-.6-3.71-.09-5.07-.09q-22.01.03-44.17 0a.68.68 0 00-.65.48l-7.66 25.67a.58.57 8.7 00.55.74M188.75 472c-16.35-1.32-32.9-1.47-49.51-2.13a.68.68 0 00-.68.49l-7.02 24.11a.56.55 10.9 00.48.7q25.38 2.57 50.91 2.68a1.68 1.68 0 001.65-1.31l5.37-23.94a.66.65 12.2 00-.51-.78q-.36-.08-.69.18"/><path stroke="#a3a5a7" vector-effect="non-scaling-stroke" d="M128.59 477.75c1.75-4.94 2.36-9.18 2.34-14.48a.77.77 0 00-1.45-.35q-1.8 3.47-1.96 7.67c-.1 2.86-9.03 23.96-7.36 24.65a1.24 1.23 29.2 001.47-.41q3.74-5.13 5.17-10.97.85-3.48 1.79-6.11"/></g><path fill="#fff" d="M0 0h591v591H0v-.81l585.75.01a.5.49 0 00.5-.49V1.03a.51.51 0 00-.51-.51L0 .44V0z"/><path d="M0 .44l585.74.08a.51.51 0 01.51.51v588.68a.5.49 0 01-.5.49L0 590.19V.44zm581.5 5.4a.58.58 0 00-.58-.58H1.58a.58.58 0 00-.58.58v579.08a.58.58 0 00.58.58h579.34a.58.58 0 00.58-.58V5.84z"/><path fill="#fbfee0" d="M581.5 584.92a.58.58 0 01-.58.58H1.58a.58.58 0 01-.58-.58V5.84a.58.58 0 01.58-.58h579.34a.58.58 0 01.58.58v579.08zM42.45 28.68c-11.29.3-19.96 6.09-20.23 18.09q-.42 19.1-.45 45.59a.4.39-7.4 00.5.38q1.68-.43 3-1.73 29.47-28.9 59.09-57.65 1.42-1.37 1.76-2.26a1.55 1.54-78.5 00-1.38-2.09q-21.52-.89-42.29-.33zM229.96 162q2.89-10.29 5.86-20.59 1.2-4.18.51-6.44c-2-6.49-12.52-5.01-14.58 1.31q-2.45 7.47-4.89 14.23-18.85-5.76-38.03 1.59c-20.57 7.89-35.92 27.61-34.58 50.14a.69.68 77.7 01-.43.68c-2.52.94-5.24 1.39-7.51 2.42-23.84 10.82-35.1 32.62-32.47 58.15q3.24 31.52 33.93 43.89c4.63 1.86 9.14 1.07 13.54 4.02 4.91 3.31 8.14 5.68 13.65 7.85q-11.74 39.61-24.13 79.03c-6.46 20.54-12.33 41.23-18.94 61.73-8.28 25.66-14.89 51.9-24.07 77.25a1.35 1.34-46.4 00.02.95c2.25 5.48 8.22 5.33 13.14 4.95 6.96-.54 7.45-4.47 9.34-10.95q3.61-12.43 7.79-24.72a.69.68 9.5 01.65-.46q25.94.12 51.76 2.62a.51.51 0 01.44.62l-7.83 33.48a1.6 1.59 40.9 00.07.94c1.04 2.61 2.2 4.53 5.21 5.14q7.29 1.48 13.7-2.54a1.35 1.32-8.7 00.56-.74q2.76-9.62 5.53-22.06 9.73-43.72 21.89-92.78c6.5-26.19 12.65-54.79 17.03-72.88q11.46-47.38 15.42-64.83c4.19.48 13.51-3.64 16.67-6.36 10.27-8.81 13.56-18.84 17.48-31.73a.53.52-38.7 011.03.11c.48 7.57-1.86 15.69-4.8 21.92-5.64 12-16.82 18.34-29.27 21.26a1.55 1.55 0 00-1.15 1.11l-3.62 13.91a1.57 1.57 0 001.63 1.96c18.64-1.36 29.54-10.64 42.58-22.62q2.1-1.93 4.73-.32.4.25.88.28l7.52.51a.77.77 0 01.7.61c3.94 18.45 19.32 31.27 37.5 34 7.86 1.17 16.13-.37 23.86-2.57a1.02.99 55.2 01.87.17q12.05 9.09 24.12 12c49.48 11.9 118.73-32.42 114.8-87.52-1.89-26.41-21.4-45.14-47.4-48.15-4.71-.54-10.43-.08-15.72-.2a.61.6 86 01-.58-.51q-3.39-22.83-22.77-34.03c-2.77-1.6-6.59-2.85-9.81-4.5a.89.87-79.3 01-.48-.72c-2.63-39.4-39.5-58.33-74.72-57.34-26.32.75-57.61 9.68-74.91 31-2.82 3.48-4.71 7.97-7.13 12.05q-3.2 5.37-3.71 14.4a.47.47 0 01-.52.44c-6.2-.61-10.1 1.27-15.5 2.5a.67.67 0 01-.72-.33q-1.36-2.56-4.14-3.33zm309.59 128.51q-.49.55-.27 1.29.22.7.54.05l1.07-2.12q.27-.54-.31-.35-.3.1-.46.34-.46.67-.57.79z"/><path fill="#fbe6ac" d="M22.22 46.77c.27-12 8.94-17.79 20.23-18.09q20.77-.56 42.29.33a1.55 1.54-78.5 011.38 2.09q-.34.89-1.76 2.26-29.62 28.75-59.09 57.65-1.32 1.3-3 1.73a.4.39-7.4 01-.5-.38q.03-26.49.45-45.59z"/><path fill="#999c9f" d="M252.54 294l.5-1.75q2.13-.26 1.74-2.3a.86.85 64.1 01.27-.8c1.9-1.76 2.36-7.63 2.92-10.27.86-4.01 3.09-8.61 3.75-13.39q1.83-13.36 5.99-26.18a1.87 1.8 48.4 00.04-.96c-.23-.92 1.58-4.85 1.79-6.27 1.81-11.72 5.11-23.51 7.89-35.05q.4-1.65 1.98-6.02c1.41-3.92 1.15-7.97 1.84-11.47 2.72-2.44 10.89-2.98 14.32-2.74 12.97.91 20.81 9.75 27.61 19.73a.36.36 0 00.64-.34c-5.19-13.22-12.78-23.22-28.25-23.57a.3.3 0 01-.26-.45c7.85-14.9 29.24-22.49 44.95-23.24a.15.14 47.4 00.01-.29c-10.24-1.47-19.83.95-29.21 5.28-7.46 3.43-16.91 10.49-20.37 18.38a.87.87 0 01-.69.51l-7.25.9c.82-2.33 4.99-16.41 2.29-16.96l1.17-3.75c.58.29.93 0 1.16-.57q.84-2.05 3.62-4.13c18.08-13.47 40.72-20.11 62.56-13.85 13.08 3.75 22.74 16.1 24.91 29.14 2.92 17.57-7.67 43.72-23.35 53.28q-2.34 1.43-4.44 3.27-.39.34.1.16c15.4-5.68 25.44-20.81 30.34-35.83a.73.72-81.8 01.66-.5c16.02-.83 29.41 2.75 35.74 18.88q5.36 13.64-5.53 26.25a.39.39 0 00.49.59q9.01-5.22 10.72-15.46a.77.76-.6 01.61-.62q10.07-1.78 13.7-2.02c19.6-1.34 44.45 8.25 44.05 31.69q-.18 10.26-5.27 18.79a.28.27-2.8 00.4.36q2.84-2.03 4.02-4.79c11.49-26.8-7.82-47.32-33.97-49.12q-11.52-.79-22.76 2.08a.79.78 84.3 01-.97-.8q.22-4.73-1.59-9.06c-7.1-16.99-20.37-22.57-38.38-21.15a.66.66 0 01-.7-.79q4.33-20.76-9.46-36.95c-19.91-23.38-57.57-15.49-79.76-.71q-1.22.82-3.82.61c.47-3 2.33-10-1.09-11.72q-5.5-2.77-11.64.51-3.53-1.46-4.77 2.98-2.65 9.43-2.45 19.25-.97 7.38-3.26 14.76a.7.69-81.8 01-.65.49c-12.49.32-24.93 2.33-37.54 2.79a.41.41 0 01-.42-.47q.66-4.37 2.49-8.34 2.78.77 4.14 3.33a.67.67 0 00.72.33c5.4-1.23 9.3-3.11 15.5-2.5a.47.47 0 00.52-.44q.51-9.03 3.71-14.4c2.42-4.08 4.31-8.57 7.13-12.05 17.3-21.32 48.59-30.25 74.91-31 35.22-.99 72.09 17.94 74.72 57.34a.89.87-79.3 00.48.72c3.22 1.65 7.04 2.9 9.81 4.5q19.38 11.2 22.77 34.03a.61.6 86 00.58.51c5.29.12 11.01-.34 15.72.2 26 3.01 45.51 21.74 47.4 48.15 3.93 55.1-65.32 99.42-114.8 87.52q-12.07-2.91-24.12-12a1.02.99 55.2 00-.87-.17c-7.73 2.2-16 3.74-23.86 2.57-18.18-2.73-33.56-15.55-37.5-34a.77.77 0 00-.7-.61l-7.52-.51q-.48-.03-.88-.28-2.63-1.61-4.73.32c-13.04 11.98-23.94 21.26-42.58 22.62a1.57 1.57 0 01-1.63-1.96l3.62-13.91a1.55 1.55 0 011.15-1.11c12.45-2.92 23.63-9.26 29.27-21.26 2.94-6.23 5.28-14.35 4.8-21.92a.53.52-38.7 00-1.03-.11c-3.92 12.89-7.21 22.92-17.48 31.73-3.16 2.72-12.48 6.84-16.67 6.36z"/><path fill="#fff" d="M286.21 153l3.08-11.25q2.6.21 3.82-.61c22.19-14.78 59.85-22.67 79.76.71q13.79 16.19 9.46 36.95a.66.66 0 00.7.79c18.01-1.42 31.28 4.16 38.38 21.15q1.81 4.33 1.59 9.06a.79.78 84.3 00.97.8q11.24-2.87 22.76-2.08c26.15 1.8 45.46 22.32 33.97 49.12q-1.18 2.76-4.02 4.79a.28.27-2.8 01-.4-.36q5.09-8.53 5.27-18.79c.4-23.44-24.45-33.03-44.05-31.69q-3.63.24-13.7 2.02a.77.76-.6 00-.61.62q-1.71 10.24-10.72 15.46a.39.39 0 01-.49-.59q10.89-12.61 5.53-26.25c-6.33-16.13-19.72-19.71-35.74-18.88a.73.72-81.8 00-.66.5c-4.9 15.02-14.94 30.15-30.34 35.83q-.49.18-.1-.16 2.1-1.84 4.44-3.27c15.68-9.56 26.27-35.71 23.35-53.28-2.17-13.04-11.83-25.39-24.91-29.14-21.84-6.26-44.48.38-62.56 13.85q-2.78 2.08-3.62 4.13c-.23.57-.58.86-1.16.57z"/><path fill="#1f1e1e" d="M289.29 141.75L286.21 153l-1.17 3.75-3.25 17-1.33 4.75c-6.91 26.85-12.9 53.9-19.68 80.79-2.34 9.28-4.44 22.08-7.74 32.96l-.5 1.75q-3.96 17.45-15.42 64.83c-4.38 18.09-10.53 46.69-17.03 72.88q-12.16 49.06-21.89 92.78-2.77 12.44-5.53 22.06a1.35 1.32-8.7 01-.56.74q-6.41 4.02-13.7 2.54c-3.01-.61-4.17-2.53-5.21-5.14a1.6 1.59 40.9 01-.07-.94l7.83-33.48a.51.51 0 00-.44-.62q-25.82-2.5-51.76-2.62a.69.68 9.5 00-.65.46q-4.18 12.29-7.79 24.72c-1.89 6.48-2.38 10.41-9.34 10.95-4.92.38-10.89.53-13.14-4.95a1.35 1.34-46.4 01-.02-.95c9.18-25.35 15.79-51.59 24.07-77.25 6.61-20.5 12.48-41.19 18.94-61.73q12.39-39.42 24.13-79.03l1.5-6 10.33-32.75 1.92-6 1.79-5.71q7.27-25.15 15.37-50.04c3.7-11.37 7.2-25.11 11.42-37.5l2.21-6.71 1.29-5.04.92-3 2.65-9.97q1.74-2.33 2.5-6.02 2.44-6.76 4.89-14.23c2.06-6.32 12.58-7.8 14.58-1.31q.69 2.26-.51 6.44-2.97 10.3-5.86 20.59-1.83 3.97-2.49 8.34a.41.41 0 00.42.47c12.61-.46 25.05-2.47 37.54-2.79a.7.69-81.8 00.65-.49q2.29-7.38 3.26-14.76c2.52-10.03 4.2-17.27 7.22-22.23q6.14-3.28 11.64-.51c3.42 1.72 1.56 8.72 1.09 11.72zM209.46 422l-4.17 16q-6.63 29.09-14.35 57.91c-3.81 14.23-6.95 29.89-11.17 44.73q-.84 2.96 2.23 3.07l2.98.11a1.98 1.96 8.3 001.97-1.46l2.84-10.86q6.07-22.2 10.67-44.75l1.33-6.75 2.71-11.21 5.29-20.79 7.17-31c4.76-17.82 8.35-35.97 12.74-53.7 8.93-36.06 17.06-72.22 25.91-108.25 1.65-6.71 3.05-14.96 4.96-22.37 3.31-12.85 5.1-20.32 7.62-30.49 1.37-5.53 2.44-12.43 4.09-18.59q2.43-9.06 3.43-13.83c2.39-11.45 6.28-22.58 7.63-34.22a.63.63 0 00-1.01-.58c-3.67 2.84-6.09 16.71-7.06 21.4-1.31 6.32-3.33 12.63-4.83 19.32q-3.09 13.8-7.52 29.95c-2.86 10.45-5.15 21.13-7.84 31.69-5.04 19.75-9.39 39.65-14.73 59.32-9.42 34.74-16.25 69.16-25.63 103.41-1.95 7.1-3.46 14.63-5.26 21.94zm-18.77-165.56c-4.73 14.59-11.69 39.54-19.76 64.48-5.49 16.97-10.99 34.36-15.61 51.58-3.87 14.46-9.08 27.78-13.29 42.36q-2.12 7.36-3.09 10.36c-4.61 14.41-8.63 29.26-13.22 43.35-7.38 22.63-14.2 45.51-20.84 68.37a.48.48 0 00.34.6q5.75 1.48 7.91-3.06c2.25-4.72 3.19-12 5.11-17.56 1.01-2.94 4.14-10.21 3.23-12.61q-1.12-2.93-.56-6a1.16 1.13-11.4 01.52-.76q2.74-1.72 3.25-2.87c3.55-7.97 5.41-16.61 7.75-24.99.59-2.13-.13-5.06.52-7.22.93-3.12 3.06-5.23 4.05-8.11q4.44-12.9 6.23-22.11c.45-2.33-1.06-4.6-.49-7.03q.7-2.93 2.89-4.96c3.57-3.3 3.11-6.86 4.51-10.63q3.06-8.25 5.1-16.81c1-4.23.7-8.93 1.46-13.51a1.05 1.03 82.5 01.59-.78l1.9-.9a1.3 1.28-4.1 00.67-.76q3.9-12.16 7.2-24.54c1.41-5.28-1.01-8.19 3.84-12.66a1.95 1.93 76.9 00.57-.93l6.32-22.73a1.72 1.66-47.7 00-.03-1c-2.17-6.33 2.04-7.49 3.93-12.99 2.59-7.57 6.48-16.56 5.63-22.55-.61-4.33 3.37-6.27 4.16-9.02q3.13-10.95 6.51-21.85c.76-2.43.08-5.08 1.36-7.61 2.45-4.8 3.63-10.12 5.26-15.24.94-2.94 1.63-7.41 3.32-11.04a1.14 1.12 47.4 00.03-.9c-2.17-5.52 2.65-7.29 3.74-12.21q2.2-9.92 6.01-19.37a1.61 1.59-41.3 00.07-1q-1.46-5.75 2.83-9.67a1.7 1.67-13.6 00.46-.74l9.26-32.72a.74.74 0 00-.49-.91c-1.97-.6-2.61.33-3.1 2.07q-4.72 16.78-10.23 33.3c-4.15 12.43-7.52 24.98-11.43 37.43-4.71 15-9.01 29.86-14.39 46.45zm65.56-77.15c-3.47.33-29.59 2-30.5 2.92q-1.69-.39-1.79 1.04c-1.69 5.35-3.07 10.73-4.97 16.02q-.85 2.39-1.18 4.95a.5.49-83.8 00.44.56q1.38.14 2.34-.38c11.51-1.33 23.92-.29 35.64-.83a.85.83-78.1 00.72-.48q.82-1.78.61-3.58l2.73-10.26.77-3.46 1.76-5.3a1.23 1.22 7.1 00-1.26-1.61l-5.31.41zM213 219.21l-5.4 19.47a.36.35-84.8 00.37.45c1.34-.11 2.6-.37 3.88-.38q18.28-.13 36.54-1.97a.45.45 0 00.4-.35l3.8-17.55 1.31-3.59a.69.68 26.8 00-.27-.81c-1.26-.8-3.02 0-4 .03q-9.31.27-18.63.29c-5.27.01-11.13.89-16.76.96a.65.64-83.9 00-.63.51l-.61 2.94zm-9.21 31.29l-1.25 3.25-4.44 17.87a.54.54 0 00.39.65q.35.09.76-.06l8.5-.17 31.5-.3a.77.75 7.8 00.72-.53q3.37-10.82 5.62-21.92a.52.51-84.4 00-.5-.62q-18.84-.24-37.67.54c-1.02.04-4.42-1.16-3.63 1.29zm-.04 32.04l-5.25-.25-3.49-.05a.68.68 0 00-.65.48l-4.9 15.78q-1.61 3.43-1.87 7.19a.48.48 0 00.47.51l29.69.51 8.6.27c1 .33 4.56 1.25 4.9-.44l1.46-5.04 1.33-5.5 3.19-12.77a1.01 1-85.5 00-1.06-1.25q-12.92 1.17-26.41.25-3.04-.21-6.01.31zm-21.04 39.11l-5.21 17.36a1.26 1.26 0 001.28 1.62q21.96-1.4 43.87.27a.68.68 0 00.72-.53l5.05-22.17a.5.5 0 00-.46-.61l-19.46-.98-23.13-.22a1.62 1.61 7.6 00-1.58 1.2l-1.08 4.06zm37.23 29.51q-22.46-.91-44.94-.61a.78.77-81.3 00-.74.55c-2.68 8.41-6.8 18.04-8.15 26.65a.44.43-86 00.43.5h46.45a.7.69 7.7 00.67-.51l6.85-25.81a.61.61 0 00-.57-.77zm-64.77 67.1c15.86-.05 31.87-.34 47.84.43a.61.6-80.6 00.62-.45q1.76-6.43 6.16-23.49.71-2.75.89-5.04a.49.48 4 00-.46-.52c-15.08-.73-29.49.35-46.96-.18a.69.69 0 00-.69.5l-8.18 27.71a.81.81 0 00.78 1.04zm-11.83 38.87l49.35.75a1.73 1.72-81.4 001.68-1.24q3.73-12.68 6.36-25.64a.59.58-75.4 00-.39-.67c-1.83-.6-3.71-.09-5.07-.09q-22.01.03-44.17 0a.68.68 0 00-.65.48l-7.66 25.67a.58.57 8.7 00.55.74zM188.75 472c-16.35-1.32-32.9-1.47-49.51-2.13a.68.68 0 00-.68.49l-7.02 24.11a.56.55 10.9 00.48.7q25.38 2.57 50.91 2.68a1.68 1.68 0 001.65-1.31l5.37-23.94a.66.65 12.2 00-.51-.78q-.36-.08-.69.18z"/><path fill="#acadae" d="M276.56 130.54c-3.02 4.96-4.7 12.2-7.22 22.23q-.2-9.82 2.45-19.25 1.24-4.44 4.77-2.98zM216.96 417q-.69.31-1.44.2a.47.46 23 01-.3-.74c1.23-1.61 1-3.62 1.34-4.96q2.76-11.02 4.37-22.26c.23-1.54 1.92-3.14 2.33-4.89 1.97-8.45 3.18-17.02 5.7-25.37q1.49-4.91 2.82-9.99a.96.96 0 00-.94-1.2c-.95.01-1.69 3.91-1.81 4.64q-.09.49-.38.9c-2.07 2.85-1.94 5.81-2.57 8.48q-2.03 8.65-3.36 17.44-.53 3.53-2.23 6.64c-1.98 3.6-1.85 7.47-2.49 11.41-.24 1.42.04 3.4-1.01 5.04q-1.56 2.47-1.59 2.53c-1.35 3.24-1.53 6.73-2.42 9.79q-1.05 3.59-1.57 7.33a.82.82 0 01-.92.7q-.56-.08-1.03-.69c1.8-7.31 3.31-14.84 5.26-21.94 9.38-34.25 16.21-68.67 25.63-103.41 5.34-19.67 9.69-39.57 14.73-59.32 2.69-10.56 4.98-21.24 7.84-31.69q4.43-16.15 7.52-29.95c1.5-6.69 3.52-13 4.83-19.32.97-4.69 3.39-18.56 7.06-21.4a.63.63 0 011.01.58c-1.35 11.64-5.24 22.77-7.63 34.22q-1 4.77-3.43 13.83c-1.65 6.16-2.72 13.06-4.09 18.59-2.52 10.17-4.31 17.64-7.62 30.49-1.91 7.41-3.31 15.66-4.96 22.37-8.85 36.03-16.98 72.19-25.91 108.25-4.39 17.73-7.98 35.88-12.74 53.7zM190.69 256.44c5.38-16.59 9.68-31.45 14.39-46.45 3.91-12.45 7.28-25 11.43-37.43q5.51-16.52 10.23-33.3c.49-1.74 1.13-2.67 3.1-2.07a.74.74 0 01.49.91l-9.26 32.72a1.7 1.67-13.6 01-.46.74q-4.29 3.92-2.83 9.67a1.61 1.59-41.3 01-.07 1q-3.81 9.45-6.01 19.37c-1.09 4.92-5.91 6.69-3.74 12.21a1.14 1.12 47.4 01-.03.9c-1.69 3.63-2.38 8.1-3.32 11.04-1.63 5.12-2.81 10.44-5.26 15.24-1.28 2.53-.6 5.18-1.36 7.61q-3.38 10.9-6.51 21.85c-.79 2.75-4.77 4.69-4.16 9.02.85 5.99-3.04 14.98-5.63 22.55-1.89 5.5-6.1 6.66-3.93 12.99a1.72 1.66-47.7 01.03 1l-6.32 22.73a1.95 1.93 76.9 01-.57.93c-4.85 4.47-2.43 7.38-3.84 12.66q-3.3 12.38-7.2 24.54a1.3 1.28-4.1 01-.67.76l-1.9.9a1.05 1.03 82.5 00-.59.78c-.76 4.58-.46 9.28-1.46 13.51q-2.04 8.56-5.1 16.81c-1.4 3.77-.94 7.33-4.51 10.63q-2.19 2.03-2.89 4.96c-.57 2.43.94 4.7.49 7.03q-1.79 9.21-6.23 22.11c-.99 2.88-3.12 4.99-4.05 8.11-.65 2.16.07 5.09-.52 7.22-2.34 8.38-4.2 17.02-7.75 24.99q-.51 1.15-3.25 2.87a1.16 1.13-11.4 00-.52.76q-.56 3.07.56 6c.91 2.4-2.22 9.67-3.23 12.61-1.92 5.56-2.86 12.84-5.11 17.56q-2.16 4.54-7.91 3.06a.48.48 0 01-.34-.6c6.64-22.86 13.46-45.74 20.84-68.37 4.59-14.09 8.61-28.94 13.22-43.35q.97-3 3.09-10.36c4.21-14.58 9.42-27.9 13.29-42.36 4.62-17.22 10.12-34.61 15.61-51.58 8.07-24.94 15.03-49.89 19.76-64.48zm-62.1 221.31c1.75-4.94 2.36-9.18 2.34-14.48a.77.77 0 00-1.45-.35q-1.8 3.47-1.96 7.67c-.1 2.86-9.03 23.96-7.36 24.65a1.24 1.23 29.2 001.47-.41q3.74-5.13 5.17-10.97.85-3.48 1.79-6.11z"/><path fill="#999c9f" d="M216.86 150.51q-.76 3.69-2.5 6.02-2.95 3.95-3.59 9.01a.71.7-74.8 00.41.73l.53.23-.92 3c-25.87-3.05-47.29 20.72-51.23 44.25a.76.74-2.5 01-.56.6q-25.27 6.16-30.45 30.42c-3.7 17.32 3.08 36.97 20.72 42.61 7.14 2.27 15.67 1.49 23.24.25a.59.58 82.2 00.48-.64l-.03-.3a.5.5 0 00-.56-.44c-10.29 1.25-19.18.62-27.61-4.95-11.95-7.9-15.65-25.4-11.81-38.16 3.39-11.29 10.69-18.23 21.5-22.65q2.6-1.06 4.29-.97a.52.52 0 01.49.54q-.21 5.3 2.05 10.08a1.16 1.15-33.6 01-.28 1.36c-7.95 7.02-11.98 18.53-7.55 28.55 4.31 9.75 14.73 14.43 25.23 14.45l-1.92 6q-1.71.65-1.96 2.49c-.75 5.39-3.06 11.4-5.03 16.49-1.64 4.27-2.85 8.95-4.62 13.39a.44.44 0 00.34.6q.44.07.94-.22l-1.5 6c-5.51-2.17-8.74-4.54-13.65-7.85-4.4-2.95-8.91-2.16-13.54-4.02q-30.69-12.37-33.93-43.89c-2.63-25.53 8.63-47.33 32.47-58.15 2.27-1.03 4.99-1.48 7.51-2.42a.69.68 77.7 00.43-.68c-1.34-22.53 14.01-42.25 34.58-50.14q19.18-7.35 38.03-1.59z"/><path fill="#fff" d="M281.25 179.54l-.34-.05a.46.46 0 01-.39-.4l-.06-.59 1.33-4.75.96-.04 7.25-.9a.87.87 0 00.69-.51c3.46-7.89 12.91-14.95 20.37-18.38 9.38-4.33 18.97-6.75 29.21-5.28a.15.14 47.4 01-.01.29c-15.71.75-37.1 8.34-44.95 23.24a.3.3 0 00.26.45c15.47.35 23.06 10.35 28.25 23.57a.36.36 0 01-.64.34c-6.8-9.98-14.64-18.82-27.61-19.73-3.43-.24-11.6.3-14.32 2.74z"/><path fill="#acadae" d="M214.36 156.53l-2.65 9.97-.53-.23a.71.7-74.8 01-.41-.73q.64-5.06 3.59-9.01zM285.04 156.75c2.7.55-1.47 14.63-2.29 16.96l-.96.04 3.25-17z"/><path fill="#fff" d="M210.79 169.5l-1.29 5.04c-15.51-2.85-28.58 7.63-37.36 19.06-7.54 9.81-10.06 21.33-9.89 33.6q.03 2.03 1.66.82 4.56-3.39 10.02-4.12 1.57-.21.13.44-9.44 4.26-15.11 13.57c-9.66 15.86.7 31.48 18.22 32.05q1.75.06 2.62-1.21l.71.04-1.79 5.71c-10.5-.02-20.92-4.7-25.23-14.45-4.43-10.02-.4-21.53 7.55-28.55a1.16 1.15-33.6 00.28-1.36q-2.26-4.78-2.05-10.08a.52.52 0 00-.49-.54q-1.69-.09-4.29.97c-10.81 4.42-18.11 11.36-21.5 22.65-3.84 12.76-.14 30.26 11.81 38.16 8.43 5.57 17.32 6.2 27.61 4.95a.5.5 0 01.56.44l.03.3a.59.58 82.2 01-.48.64c-7.57 1.24-16.1 2.02-23.24-.25-17.64-5.64-24.42-25.29-20.72-42.61q5.18-24.26 30.45-30.42a.76.74-2.5 00.56-.6c3.94-23.53 25.36-47.3 51.23-44.25z"/><path fill="#999c9f" d="M209.5 174.54l-2.21 6.71q.03-.45-.42-.52a.4.39-75.7 00-.43.26c-1.66 5.1-3.96 9.97-5.31 15.05q-3.29 12.32-7.43 24.39c-1.03 3.03-1.87 7.65-3.7 11.31q-.93 1.85-2.49 9.06-2.34 10.76-6.44 20.97c-.97 2.4-1.13 4.5-1.28 6.98q-.87 1.27-2.62 1.21c-17.52-.57-27.88-16.19-18.22-32.05q5.67-9.31 15.11-13.57 1.44-.65-.13-.44-5.46.73-10.02 4.12-1.63 1.21-1.66-.82c-.17-12.27 2.35-23.79 9.89-33.6 8.78-11.43 21.85-21.91 37.36-19.06z"/><path fill="#acadae" d="M280.46 178.5l.06.59a.46.46 0 00.39.4l.34.05c-.69 3.5-.43 7.55-1.84 11.47q-1.58 4.37-1.98 6.02c-2.78 11.54-6.08 23.33-7.89 35.05-.21 1.42-2.02 5.35-1.79 6.27a1.87 1.8 48.4 01-.04.96q-4.16 12.82-5.99 26.18c-.66 4.78-2.89 9.38-3.75 13.39-.56 2.64-1.02 8.51-2.92 10.27a.86.85 64.1 00-.27.8q.39 2.04-1.74 2.3c3.3-10.88 5.4-23.68 7.74-32.96 6.78-26.89 12.77-53.94 19.68-80.79z"/><path fill="#fff" d="M261.06 185.79q-1-3.93-4.69-5.44a.58.57 18.3 01-.34-.67q.05-.22.22-.39l5.31-.41a1.23 1.22 7.1 011.26 1.61l-1.76 5.3z"/><path fill="#999c9f" d="M256.25 179.29q-.17.17-.22.39a.58.57 18.3 00.34.67q3.69 1.51 4.69 5.44l-.77 3.46q.12-.8-.14-1.58-.17-.5-.41-.03c0 .01-5.57 9.29-5.26 9.7a.39.38-43.4 00.61.01l1.55-1.87q.8-.97.6.27-.33 1.99.32 3.76.21 1.8-.61 3.58a.85.83-78.1 01-.72.48c-11.72.54-24.13-.5-35.64.83q-1.61-5.06 1.86-9.31a1.46 1.45 66.5 00.34-.88q.2-4.7 2.09-9.13l2.25 5.4a.42.42 0 00.38.27l.29.01a.41.41 0 00.42-.52q-1.1-3.91.85-7.18a.42.42 0 00-.33-.63l-2.99-.22c.91-.92 27.03-2.59 30.5-2.92z"/><path fill="#acadae" d="M207.29 181.25c-4.22 12.39-7.72 26.13-11.42 37.5q-8.1 24.89-15.37 50.04l-.71-.04c.15-2.48.31-4.58 1.28-6.98q4.1-10.21 6.44-20.97 1.56-7.21 2.49-9.06c1.83-3.66 2.67-8.28 3.7-11.31q4.14-12.07 7.43-24.39c1.35-5.08 3.65-9.95 5.31-15.05a.4.39-75.7 01.43-.26q.45.07.42.52z"/><path fill="#fbfee0" d="M225.75 182.21l2.99.22a.42.42 0 01.33.63q-1.95 3.27-.85 7.18a.41.41 0 01-.42.52l-.29-.01a.42.42 0 01-.38-.27l-2.25-5.4-.92-1.83q.1-1.43 1.79-1.04z"/><path fill="#acadae" d="M223.96 183.25l.92 1.83q-1.89 4.43-2.09 9.13a1.46 1.45 66.5 01-.34.88q-3.47 4.25-1.86 9.31-.96.52-2.34.38a.5.49-83.8 01-.44-.56q.33-2.56 1.18-4.95c1.9-5.29 3.28-10.67 4.97-16.02z"/><path fill="#fff" d="M260.29 189.25l-2.73 10.26q-.65-1.77-.32-3.76.2-1.24-.6-.27l-1.55 1.87a.39.38-43.4 01-.61-.01c-.31-.41 5.26-9.69 5.26-9.7q.24-.47.41.03.26.78.14 1.58z"/><path fill="#999c9f" d="M252.59 218.88q-2.73 4.72-3.07 8.37-.46 4.81-2.28 7.82a1.16 1.14 9.8 01-.75.52c-6.92 1.34-13.11.84-21 1.71-4.93.54-9.94-.17-15.04-.08a.41.41 0 01-.41-.48q.31-1.74.5-3.5c.35-3.37 1.61-6.28 1.93-9.75a.89.87 79.3 01.48-.72c5.44-2.77 9.47-2.36 14.93-3.43a.49.48 41 00-.07-.96q-3.63-.22-7.72-.14c-2.34.05-4.35 1.35-7.09.97l.61-2.94a.65.64-83.9 01.63-.51c5.63-.07 11.49-.95 16.76-.96q9.32-.02 18.63-.29c.98-.03 2.74-.83 4-.03a.69.68 26.8 01.27.81l-1.31 3.59z"/><path fill="#acadae" d="M252.59 218.88l-3.8 17.55a.45.45 0 01-.4.35q-18.26 1.84-36.54 1.97c-1.28.01-2.54.27-3.88.38a.36.35-84.8 01-.37-.45l5.4-19.47c2.74.38 4.75-.92 7.09-.97q4.09-.08 7.72.14a.49.48 41 01.07.96c-5.46 1.07-9.49.66-14.93 3.43a.89.87 79.3 00-.48.72c-.32 3.47-1.58 6.38-1.93 9.75q-.19 1.76-.5 3.5a.41.41 0 00.41.48c5.1-.09 10.11.62 15.04.08 7.89-.87 14.08-.37 21-1.71a1.16 1.14 9.8 00.75-.52q1.82-3.01 2.28-7.82.34-3.65 3.07-8.37zM207.75 272.04l-1.26-.06a.52.51 4.3 01-.49-.56l.03-.33a.72.72 0 01.64-.64c4.43-.45 9.38.11 13.11.02q8.49-.2 17.06-.5a1.54 1.53-84.6 001.44-1.2l2.09-9.21a1.36 1.34-10.5 01.58-.83c2.39-1.55 2.45-5.2 3.2-7.6a1.12 1.11-80.5 00-1.03-1.45q-14.16-.36-27.6.64c-1.1.08-11.02.67-11.73.18-.79-2.45 2.61-1.25 3.63-1.29q18.83-.78 37.67-.54a.52.51-84.4 01.5.62q-2.25 11.1-5.62 21.92a.77.75 7.8 01-.72.53l-31.5.3z"/><path fill="#999c9f" d="M207.75 272.04l-8.5.17c1.54-7.11 4.06-12.29 4.68-17.92a.48.47-86.7 00-.47-.53l-.92-.01 1.25-3.25c.71.49 10.63-.1 11.73-.18q13.44-1 27.6-.64a1.12 1.11-80.5 011.03 1.45c-.75 2.4-.81 6.05-3.2 7.6a1.36 1.34-10.5 00-.58.83l-2.09 9.21a1.54 1.53-84.6 01-1.44 1.2q-8.57.3-17.06.5c-3.73.09-8.68-.47-13.11-.02a.72.72 0 00-.64.64l-.03.33a.52.51 4.3 00.49.56l1.26.06z"/><path fill="#acadae" d="M202.54 253.75l.92.01a.48.47-86.7 01.47.53c-.62 5.63-3.14 10.81-4.68 17.92q-.41.15-.76.06a.54.54 0 01-.39-.65l4.44-17.87zM176.79 280.5l-10.33 32.75q-.5.29-.94.22a.44.44 0 01-.34-.6c1.77-4.44 2.98-9.12 4.62-13.39 1.97-5.09 4.28-11.1 5.03-16.49q.25-1.84 1.96-2.49z"/><path fill="#999c9f" d="M234.04 296c-1.47-.03-2.6.38-4.06.17-10.9-1.58-19.5-5.04-26.23-13.63q2.97-.52 6.01-.31 13.49.92 26.41-.25a1.01 1-85.5 011.06 1.25L234.04 296z"/><path fill="#acadae" d="M198.5 282.29l-.5.92c-2.88-.43-6.2 13.41-6.77 15.87a.88.88 0 01-1.4.49q-.49-.39-.37-1.07l4.9-15.78a.68.68 0 01.65-.48l3.49.05z"/><path fill="#fff" d="M198.5 282.29l5.25.25c6.73 8.59 15.33 12.05 26.23 13.63 1.46.21 2.59-.2 4.06-.17l-1.33 5.5-.92-.25-.15-.24a.52.51-12.6 00-.37-.23q-12.71-1.39-23.23-8.3c-3.72-2.44-6.75-6-10.04-9.27l.5-.92z"/><path fill="#999c9f" d="M198 283.21c3.29 3.27 6.32 6.83 10.04 9.27q10.52 6.91 23.23 8.3a.52.51-12.6 01.37.23l.15.24-1.18 4.83a.35.35 0 00.29.43l.35.03c-.34 1.69-3.9.77-4.9.44q-3.71-1.77-7.86-1.24a.74.74 0 00-.63.56l-.11.41-29.69-.51a.48.48 0 01-.47-.51q.26-3.76 1.87-7.19-.12.68.37 1.07a.88.88 0 001.4-.49c.57-2.46 3.89-16.3 6.77-15.87z"/><path fill="#acadae" d="M540.12 289.72q.16-.24.46-.34.58-.19.31.35l-1.07 2.12q-.32.65-.54-.05-.22-.74.27-1.29.11-.12.57-.79zM231.79 301.25l.92.25-1.46 5.04-.35-.03a.35.35 0 01-.29-.43l1.18-4.83zM226.35 306.98l-8.6-.27.11-.41a.74.74 0 01.63-.56q4.15-.53 7.86 1.24z"/><path fill="#999c9f" d="M208.5 316.61q-5.28 1.06-10.28 2.85-7.5 2.68-15.51 2.19l1.08-4.06a1.62 1.61 7.6 011.58-1.2l23.13.22z"/><path fill="#fbfee0" d="M208.5 316.61l19.46.98a.5.5 0 01.46.61l-5.05 22.17a.68.68 0 01-.72.53q-21.91-1.67-43.87-.27a1.26 1.26 0 01-1.28-1.62l5.21-17.36q8.01.49 15.51-2.19 5-1.79 10.28-2.85z"/><path fill="#999c9f" d="M216.96 417l-7.17 31-.04-.64a.91.89-81.1 00-.55-.77l-.32-.13a.32.31-67.9 00-.41.18c-1.66 4.05-1.54 8.19-2.97 12.16q-1.64 4.52-1.85 9.34a.65.64-79.9 00.44.64q.2.06.41.01L201.79 480q.04-.3.01-.53a.61.61 0 00-1.2-.05l-1.99 7.71q-.17.63.42.34l1.43-.72q-4.6 22.55-10.67 44.75.26-1.28-.78-1.6a.47.47 0 00-.6.37q-.85 4.77-1.92 9.47-.82 3.59-4.31 2.47a.94.92 14.8 01-.63-1.06q1-5.13 2.88-9.9c1.81-4.6 1.67-9.93 3.07-14.75 2.98-10.23 5.42-20.49 8.07-30.8 2.19-8.55 4.05-18.89 8.2-28.21 1.84-4.13.66-8.37 1.59-12.68q.65-3.02 1.13-6.09a.72.71 17.3 00-.4-.75q-.31-.15-.8.03l4.17-16q.47.61 1.03.69a.82.82 0 00.92-.7q.52-3.74 1.57-7.33c.89-3.06 1.07-6.55 2.42-9.79q.03-.06 1.59-2.53c1.05-1.64.77-3.62 1.01-5.04.64-3.94.51-7.81 2.49-11.41q1.7-3.11 2.23-6.64 1.33-8.79 3.36-17.44c.63-2.67.5-5.63 2.57-8.48q.29-.41.38-.9c.12-.73.86-4.63 1.81-4.64a.96.96 0 01.94 1.2q-1.33 5.08-2.82 9.99c-2.52 8.35-3.73 16.92-5.7 25.37-.41 1.75-2.1 3.35-2.33 4.89q-1.61 11.24-4.37 22.26c-.34 1.34-.11 3.35-1.34 4.96a.47.46 23 00.3.74q.75.11 1.44-.2z"/><path fill="#fbfee0" d="M219.94 351.16a.61.61 0 01.57.77l-6.85 25.81a.7.69 7.7 01-.67.51h-46.45a.44.43-86 01-.43-.5c1.35-8.61 5.47-18.24 8.15-26.65a.78.77-81.3 01.74-.55q22.48-.3 44.94.61zM203.01 418.69c-15.97-.77-31.98-.48-47.84-.43a.81.81 0 01-.78-1.04l8.18-27.71a.69.69 0 01.69-.5c17.47.53 31.88-.55 46.96.18a.49.48 4 01.46.52q-.18 2.29-.89 5.04-4.4 17.06-6.16 23.49a.61.6-80.6 01-.62.45zM143.34 457.13a.58.57 8.7 01-.55-.74l7.66-25.67a.68.68 0 01.65-.48q22.16.03 44.17 0c1.36 0 3.24-.51 5.07.09a.59.58-75.4 01.39.67q-2.63 12.96-6.36 25.64a1.73 1.72-81.4 01-1.68 1.24l-49.35-.75z"/><path fill="#acadae" d="M205.29 438q.49-.18.8-.03a.72.71 17.3 01.4.75q-.48 3.07-1.13 6.09c-.93 4.31.25 8.55-1.59 12.68-4.15 9.32-6.01 19.66-8.2 28.21-2.65 10.31-5.09 20.57-8.07 30.8-1.4 4.82-1.26 10.15-3.07 14.75q-1.88 4.77-2.88 9.9a.94.92 14.8 00.63 1.06q3.49 1.12 4.31-2.47 1.07-4.7 1.92-9.47a.47.47 0 01.6-.37q1.04.32.78 1.6l-2.84 10.86a1.98 1.96 8.3 01-1.97 1.46l-2.98-.11q-3.07-.11-2.23-3.07c4.22-14.84 7.36-30.5 11.17-44.73q7.72-28.82 14.35-57.91zM209.79 448l-5.29 20.79q-.21.05-.41-.01a.65.64-79.9 01-.44-.64q.21-4.82 1.85-9.34c1.43-3.97 1.31-8.11 2.97-12.16a.32.31-67.9 01.41-.18l.32.13a.91.89-81.1 01.55.77l.04.64z"/><path fill="#999c9f" d="M130.93 463.27c.02 5.3-.59 9.54-2.34 14.48q-.94 2.63-1.79 6.11-1.43 5.84-5.17 10.97a1.24 1.23 29.2 01-1.47.41c-1.67-.69 7.26-21.79 7.36-24.65q.16-4.2 1.96-7.67a.77.77 0 011.45.35z"/><path fill="#fbfee0" d="M188.75 472q.33-.26.69-.18a.66.65 12.2 01.51.78l-5.37 23.94a1.68 1.68 0 01-1.65 1.31q-25.53-.11-50.91-2.68a.56.55 10.9 01-.48-.7l7.02-24.11a.68.68 0 01.68-.49c16.61.66 33.16.81 49.51 2.13z"/><path fill="#acadae" d="M201.79 480l-1.33 6.75-1.43.72q-.59.29-.42-.34l1.99-7.71a.61.61 0 011.2.05q.03.23-.01.53z"/></svg>