<svg xmlns="http://www.w3.org/2000/svg" viewBox="0 0 591 591"><g stroke-width="2" fill="none"><path stroke="#111010" vector-effect="non-scaling-stroke" d="M590.06 0l.19.29"/><path stroke="#7f7e70" vector-effect="non-scaling-stroke" d="M590.25.29l.04 589.46"/><path stroke="gray" vector-effect="non-scaling-stroke" d="M590.29 589.75l-.54.54"/><path stroke="#7f7e70" vector-effect="non-scaling-stroke" d="M589.75 590.29q-291.53-.05-583.06-.17-3.22-.01-6.44-.08"/><path stroke="#111010" vector-effect="non-scaling-stroke" d="M.25 590.04l-.25-.1"/><path stroke="#7f7e70" vector-effect="non-scaling-stroke" d="M586.25 4.52a.27.27 0 00-.27-.27H4.52a.27.27 0 00-.27.27v581.46a.27.27 0 00.27.27h581.46a.27.27 0 00.27-.27V4.52"/><path stroke="#8f8e7f" vector-effect="non-scaling-stroke" d="M591 586.81c-.84-.45-.25-536.6-.25-586.31a.25.24-86.1 00-.21-.25q-.17-.02-.29.04"/><path stroke="#fefeef" vector-effect="non-scaling-stroke" d="M591 590.06l-.71-.31"/><path stroke="#fbf0c6" vector-effect="non-scaling-stroke" d="M64.31 36.9c-3.04.11-7.18-.25-10.26.17Q35.56 39.62 35.84 58.5q.3 19.25.61 38.5.03 1.8-.11 3.8a.36.35 84.5 00.45.38q2-.56 4.03-2.62 29.59-30.15 58.83-59.95a1.09 1.09 0 00-.75-1.85q-17.49-.5-34.59.14"/><path stroke="#c8c8ba" vector-effect="non-scaling-stroke" d="M218.76 99.5l-1.57-3.57a.73.72 66.7 00-.94-.38c-4.05 1.68 0 5.75 1 7.89a.96.95 50.2 01-.08.93l-3.42 5.09a.53.52-43.5 01-.88-.02l-3.25-5.29a.83.82-45.9 01-.01-.85l2.91-5.17a1.47 1.46-81.9 00-1.61-2.15l-1.55.36a.82.82 0 00-.63.8l.02 1.85a.46.46 0 01-.54.46c-1.72-.28-1.69-3.5-4.67-4.17a.74.73-73.6 00-.86.47l-.78 2.18a.76.74 25.4 00.33.9q1.33.76 1.99 2.09a.41.41 0 01-.37.59l-3.09-.03a1 1 0 00-.97.77l-.52 2.22a.79.79 0 00.68.97l2.72.3a1.6 1.54-55.2 00.95-.19c2.74-1.55 5.48 3.79 6.01 5.88a.39.39 0 01-.35.48l-6.13.39a.58.58 0 01-.57-.33l-2.51-5.29a.92.92 0 00-1.08-.49l-2.44.69a.63.63 0 00-.43.83l1.6 4.39a.49.49 0 01-.58.65l-3.05-.79a.77.77 0 00-.87.39l-.93 1.85a.78.78 0 00.38 1.07q2.4 1.08 4.83.2.95-.35.54.57l-1.58 3.56a1.44 1.43-43.5 00-.03 1.07l.32.87a.68.68 0 00.82.42c3.64-.99 3.95-3.05 5.67-5.98a.96.95 15.5 01.84-.47l5.55.09a.39.39 0 01.34.57l-3 5.77a.82.81 14 01-.74.44l-5.37-.16a1.53 1.52 86.7 00-1.55 1.75c.55 3.75 2.34 1.86 4.75 2.38a.28.28 0 01.19.41l-2.04 3.61a1.39 1.39 0 001.29 2.07l1.63-.09a1 .99-79.3 00.86-.59l1.62-3.66q.23-.52.5-.02l1.95 3.65a1.01 1.01 0 001.69.15c2-2.54-.3-4.95-1.83-7.05a.75.75 0 01-.04-.81l3.32-6q.73-1.31 1.24.09c.39 1.07.66 2.16 1.44 3.25 3.88 5.4-3.98 7.51-.54 10.8a.65.64 41.3 00.95-.06l2.56-3.19a.56.56 0 01.73-.12q1.24.77 1.67 2.22a1.72 1.67 10.6 00.62.88q1.42 1.03 2.73.13a1.05 1.04 72.8 00.45-.86c-.01-2.07-2.41-4.91-2.26-5.71a.36.35 24 01.56-.21c1.95 1.42 6.42.73 4.79-2.14a1 .99 76.3 00-.8-.49l-6.73-.43a1.02 1.01 77.6 01-.85-.55l-2.94-5.56a.46.45 76.6 01.41-.67l5.96.14a1.45 1.44 67.5 01.98.41q2.13 2.1 3.32 4.93a1.23 1.23 0 002.12.27l1.11-1.47a.84.83-47.9 00-.05-1.07l-2.13-2.38q-.41-.45.19-.56c1.84-.33 6.69.71 5.85-2.89a.97.97 0 00-.66-.7q-2.18-.66-4.4-.01-.7.21-.46-.48c.69-2.02 3.64-3.62-.13-5.13a1.19 1.19 0 00-1.47.52l-2.25 4a1.15 1.15 0 01-.9.57l-6.94.52a.54.54 0 01-.52-.8l3.24-5.88a.66.66 0 01.8-.3q3.04 1.1 6.26.19a1.7 1.7 0 00.9-2.66q-1.88-2.51-4.5-.61a.52.52 0 01-.79-.63c.81-1.8 4.53-4.8 1.12-6.25a2.03 2.02-63 00-2.54.83l-2.1 3.57q-.27.44-.48-.03M89.7 125.28c-.39-1.36-2.33-5.51-4.08-3.98a.63.63 0 00-.16.74l1.34 2.93a.77.77 0 01-.79 1.08l-2.36-.29a1.14 1.1 27.2 00-.87.26c-2.03 1.76.96 3.79 3.19 2.16a.68.68 0 011.03.79l-1.12 3.06a.61.6 16 00.45.8l.81.16a.79.79 0 00.88-.48l1.7-4.28a.31.31 0 01.53-.08c.95 1.19 3.33-.27 5.12.25a.57.57 0 01.4.64q-1.08 6.11-7.26 5.16a.58.58 0 00-.67.56l-.02 1.58a.62.62 0 00.71.62l2.47-.34a.56.55 6.5 01.6.75l-1.36 3.48a.89.88 15.7 00.67 1.19c1.89.36 2.5-3.41 2.9-4.77q.12-.38.29-.02l2.05 4.15a.65.65 0 001.03.19l1.28-1.21a.63.62 45 00-.01-.91q-1.82-1.69-2.28-4.22a1.01 1-27.1 01.29-.89q1.89-1.82 1.8-4.47-.04-1.25.64-.2l3.39 5.32a.93.92 44.7 01.01.98l-2.41 3.91a.79.79 0 00.5 1.19l.72.16a.72.72 0 00.8-.39l1.31-2.65a.39.38 42 01.67-.03l2.03 3.19a.89.88-27.6 001.1.34c1.77-.77-.07-3.27-.43-4.12q-.68-1.59.98-1.11 2.21.65 3.1-.98a1.02 1.02 0 00-.97-1.51l-4.69.33a.88.86 74.8 01-.84-.49l-1.96-3.81a1.22 1.22 0 01.79-1.74c8-2.03 4.85 6.42 9.53 4.27a.94.94 0 00.55-.79q.09-1.29-.99-2.34a.57.56 51.5 01.1-.9q1.38-.81 3.04-.59a.49.48-2.8 00.54-.59l-.33-1.48a.62.62 0 00-.89-.42l-1.84.95a.43.43 0 01-.62-.32q-.29-2.08 1-3.82a.59.59 0 00-.27-.91l-1.59-.58a.77.77 0 00-.96.39l-1.52 3.21a1.14 1.13 9.4 01-.9.64l-5.28.6a.59.59 0 01-.61-.82l1.71-4.06a1.05 1.04 10.5 01.93-.63l5.66-.13a.53.53 0 00.48-.73l-.6-1.53a.77.76-15.8 00-.85-.47l-6.06 1a1.28 1.28 0 00-.9.6l-2.88 4.7a.48.47 44.8 01-.81 0l-2.29-3.66a.91.88 39.3 01-.09-.77l1.77-5.06a.97.97 0 00-.2-.96c-1.38-1.48-2.82.98-3.21 1.99a.69.68 9.1 01-.61.43l-.28.01a.31.31 0 01-.29-.17l-1.3-2.61a.77.76 69.2 00-.88-.4c-2.41.64.25 3.91.9 4.95q.47.75-.41.67l-3.09-.29a.77.76 10.1 00-.8.55l-.42 1.53q-.25.92.66.66 5.9-1.7 7.57 3.98a1.06 1.06 0 01-1.02 1.37h-4.33a.66.64 81.5 01-.62-.47M276.66 142.3l-5.28.57a1.08 1.07-74 00-.73.41c-4.99 6.44 7.14 4.98 9.22 4.99a.96.96 0 01.85.51l3.63 6.86a1.11 1.09-44.5 01-.02 1.06c-.76 1.36-3.3-.77-5.24.28a1.03 1.02-45.3 01-.96.01q-1-.54-1.68.34a.56.56 0 01-.88 0q-2.36-3.07-4.2-6.5c-1.03-1.94-2.28-2.36-4.33-2.09a1.35 1.34 16.4 00-.83.45c-1.88 2.12.44 5.2 1.4 6.84q.92 1.58-.88 1.28c-2.53-.44-7.23-.27-6.27 3.24q.25.92.99 1.61a1.19 1.16 64.6 00.84.31l5.29-.12q.91-.02.42.75l-2.6 4.07a.85.82-41.6 00-.06.8q1.44 3.21 4.73 2.34a1.32 1.31 7.6 00.78-.59l3.81-6.45a1.15 1.12-76.6 01.87-.55l8.31-.75a.45.45 0 01.49.48q-.18 1.9-.9 3.67c-.69 1.7-2.52 2.56-3.03 4.41a1.77 1.77 0 01-2.09 1.25q-4.3-.97-8.24.94a.79.77-13.9 00-.44.71q.07 3.01 3.1 3.86a1.25 1.22 38.2 00.93-.1q1.08-.56 2.27-.44a.52.52 0 01.44.69c-.94 2.59-4.91 7.99.92 8.56a.92.91-72.6 00.87-.46l3.57-6.3a.52.52 0 01.94.08l1.76 4.75a.71.69 76.7 00.73.46l2.78-.28a.85.85 0 00.76-.75l.35-2.92a1.16 1.13 26.6 00-.33-.95l-3.23-3.26a2.35 2.33 37.3 01-.39-2.8l4.42-7.87q.45-.8.9-.01l4.33 7.65a1.3 1.29-51.4 01.11 1.01q-1.05 3.53-3.62 6.22a2.06 2.06 0 00.14 2.97q1.62 1.4 3.68.87a1.13 1.11 8.6 00.69-.5l2.14-3.57a.9.9 0 011.58.08l1.65 3.47a1.37 1.35.9 00.62.63q3.12 1.52 4.88-1.58a.73.73 0 00-.01-.75l-3.07-5.11q-.45-.75.42-.68l4.42.38a1 .98-72.2 00.95-.5l1.1-1.95a2.06 2.05 13.9 00-1.85-3.06l-8.03.23a.81.79-13.1 01-.74-.45l-4.11-8.35a.39.39 0 01.36-.55l8.91.21a.91.9-11 01.82.55q1.71 3.99 4.87 7.03a.81.78 60.3 00.72.21q2.02-.45 2.97-2.37a.85.84-47.4 00-.03-.8l-2.63-4.36q-.29-.49.28-.48l6.12.05a.86.85-74.8 00.76-.44q1.39-2.53-.13-4.94a1 1 0 00-.97-.46q-3.16.38-6.32-.39a.28.27-64 01-.15-.44l3-3.7a.82.8 51.3 00.09-.89q-1.28-2.45-3.88-2.45a.91.9-76.7 00-.83.52c-1.22 2.56-3.18 4.53-4.22 6.98a.75.74 9.6 01-.64.45l-7.75.54a1.03 1.03 0 01-1.01-1.45l2.77-6.15a1.48 1.48 0 01.86-.79q3.98-1.38 8.09-.34a1.2 1.18-53.7 00.94-.15c1.76-1.13 2.49-3.73.79-5.23q-1.49-1.32-4.79-.48a.96.96 0 01-1.04-1.45l2.87-4.4a.95.94-37.5 00.11-.81c-.62-1.97-3-2.64-4.8-1.88-1.56.66-2.38 3.83-2.98 5.3a.66.65 52.4 01-1.26-.17q-.52-3.86-3.67-4.57c-6.95-1.57-.48 8.21.5 9.55a2.3 2.29-47.4 01.1 2.56l-4.42 7.21a.21.21 0 01-.36 0l-4.51-7.73a1.17 1.16 39 01-.1-.92c.75-2.35 6.21-10.05 1.56-10.9-2.53-.47-3.57 3.23-4.7 4.96a.38.38 0 01-.61.04c-2.06-2.41-3.02-7.69-7.42-4.39a1.53 1.52-34.4 00-.38 2.02l3.21 5.21a.19.19 0 01-.14.29M190.85 180.95l7.91.21a1.56 1.53-59.6 00.89-.24c3.26-2.07 2.14-7.38-1.91-6.98q-3.28.33-6.52-.26a.39.38 17.7 01-.28-.54c1.12-2.47 3.28-5.86 2.26-8.41q-1.05-2.6-4.69-2.08a1.14 1.14 0 00-.86.61l-5.44 10.52a.76.76 0 01-.65.4l-12.95.09a.61.6 13.6 01-.55-.89l5.65-10.7a2.24 2.23-65.2 012.79-1.03c2.03.79 4.45.05 6.65.22 3.27.26 6.18-.59 5.8-4.61-.43-4.57-7.13-3.53-10.21-2.73q-.5.13-.13-.23 3.81-3.66 4.69-8.96a1.5 1.46 35.6 00-.17-.95q-1.71-3.05-5.23-2.52a1.22 1.2-77.7 00-.85.56l-4.59 7.47a.38.37 48 01-.65-.04l-2.72-5.69a1.13 1.12 79.5 00-.93-.64l-3.81-.34a.81.81 0 00-.81.47l-1.44 3.19a1.09 1.08-48 00.05 1.01l5.87 10.13a.79.78-38.4 01-.11.94l-1.94 1.99q-.38.4-.55.93-1.23 4.07-3.85 7.4a.45.45 0 01-.71-.01q-3.78-5.08-6.39-10.85a1.08 1.08 0 01.04-.98l5.23-9.48a1.75 1.71-34.6 00.19-.97q-.28-2.43-2.08-3.3c-4.47-2.17-6.77 3.84-8.17 6.73q-.31.62-.61.01l-3.85-7.71a1.05 1.04-11.5 00-.89-.58l-2.73-.15a1.15 1.13-71.6 00-1 .51l-2.05 3.16a.94.94 0 00-.03.96l4.22 7.45a.49.49 0 01-.44.73c-2.45-.07-7.81-.85-8.7 2.31-1.84 6.59 9.89 5.3 13.39 5.19a.92.91-15.9 01.8.44l6.32 10.78q.43.74-.43.75l-13.01.04a.97.96-13.6 01-.86-.52l-4.94-9.68a1.22 1.18 84.6 00-.7-.6c-1.85-.56-3.82-.59-5.09 1.07q-.75.97-1.01 2.24a1.43 1.42 36.6 00.14.95l3.12 6a.49.49 0 01-.44.72l-7.96-.03a1.16 1.15 22 00-.83.35c-2.65 2.75-1.86 6.84 2.48 6.7q2.97-.09 6.1.18a.5.49 14.9 01.41.7l-2.89 6.26a1.29 1.28 47.4 00-.04 1.02q1.69 4.5 6.51 2.81c.55-.19 4.77-9.29 5.4-10.64a.83.83 0 01.76-.49l13.16-.1a.65.64 17 01.54 1.01q-3.65 5.39-6.17 11.39a.8.78 11.1 01-.73.48q-5.07 0-10.16-.11c-2.38-.05-4.33 2.01-3.74 4.44 1.05 4.29 5.83 2.49 9.32 2.97a.29.28-70.4 01.2.43l-4.02 6.74a1.56 1.53-34.3 00-.21 1.05c.66 4.07 5.41 6.09 7.59 1.4q1.16-2.5 2.08-4.32a1.35 1.35 0 012.4-.04l2.78 5.06a.88.87 75.6 00.77.46l3.89.02a.72.71 9 00.68-.49l.89-2.76a1.26 1.24 42.9 00-.04-.89q-2.22-5-5.48-9.54a.89.89 0 01-.06-.96l6.29-11.49a.8.8 0 011.44.09q2.31 5.91 6.05 10.98a.76.76 0 01-.02.91q-3.63 4.65-5.81 10.17a.98.95 41.2 00.07.84l1.75 2.86a1.03 1.02-14 00.82.49c4.57.28 5.45-4.24 7.55-7.3q.41-.6.59.11.43 1.79 1.83 2.99a1.53 1.53 0 01.49.82q.47 2.05 1.75 3.67a.85.84-29.5 00.96.26q1.28-.49 2.27.43a.7.69 45.3 00.94.01c4.25-3.78.64-8.44-1.98-11.8q-.3-.39.19-.45c2.56-.27 8.19.88 9.23-2.24q.96-2.87-1.48-4.93a1.45 1.44-25.1 00-.92-.33h-11.19a1.01 1 75.3 01-.88-.52l-6.56-11.58a.22.22 0 01.19-.33l13.55.07a.78.77 77.3 01.7.45c2.08 4.43 4.89 11.69 9.15 10.36 1.44-.46 2.02-1.94 2.41-3.26a1.46 1.44 40.5 00-.09-1.05l-3.22-6.44a.28.28 0 01.26-.4M259.26 201.96c2.65-1.51 3.87-7-.17-6.64a1.99 1.98-77 00-1.52.95l-3.35 5.52a.97.96-75.5 01-.79.47l-6.86.33a.51.5-79.9 01-.48-.7l2.47-5.85a1.06 1.04 3.8 01.72-.62q3.37-.83 6.8-.18a.99.99 0 00.99-.39l1.65-2.25a1.29 1.29 0 00-.98-2.06l-5.11-.22a.5.5 0 01-.4-.76l2.56-4.13a.91.89-42.1 00.05-.86q-.87-1.82-2.7-1.98a.75.74-73.9 00-.74.42l-2.3 4.78q-.44.92-.97.04l-2.43-4.01a1.31 1.3-38.8 00-2.06-.22l-1.38 1.45a.97.96 52.4 00-.14 1.13l2.93 5.24a1.57 1.55-54.3 01.17 1.09q-.83 4.09-3.83 6.8a.63.63 0 01-.98-.18l-3.14-6.03a.92.92 0 01-.02-.83l3.09-6.57a.88.87 33.7 00-.21-1.03l-1.65-1.48a.74.73-56.1 00-1.15.23l-2.1 4.29a.8.8 0 01-1.44-.01l-2.02-4.17a.83.83 0 00-.73-.47q-2.01-.06-3.36 1.33a.65.65 0 00-.09.77l2.77 4.96a.49.49 0 01-.33.72c-1.54.28-3-.59-4.26-.03-1.36.6-1.74 2.42-.79 3.53 1.43 1.67 6.26.83 7.79.56a.68.67 77 01.76.48q.9 3.22 3.41 5.34a1 1 0 01-.63 1.76l-6.91.1a.83.82 72.9 01-.71-.38l-3.67-5.89a1.59 1.59 0 00-1.81-.69c-3.47 1.01-1.64 4.25.02 6.1q.53.6-.27.63l-5.23.21a.69.69 0 00-.66.73l.23 3.28a.78.78 0 00.81.73l4.62-.17a.35.34-77.7 01.32.5c-.96 1.9-3.22 4.63-.51 6.4 2.63 1.71 5.44-5.1 5.98-6.21a.91.88 11.3 01.78-.5l7.27-.26a.56.56 0 01.52.81l-3.11 6.25a1.26 1.25-70.3 01-1.39.66q-3.81-.86-7.31.77a1.04 1.03 82.4 00-.58.77c-.53 3.41 2.22 3.57 4.61 2.85a.39.39 0 01.5.41q-.27 2.75-2 4.99a.64.64 0 00.02.81q1.4 1.7 3.59 1.35a.85.85 0 00.64-.51l1.67-3.98q.39-.94.97-.11l2.58 3.69a1.35 1.35 0 002.18.06q.73-.93.94-1.92c.69-3.18-4.68-5.82-2.52-9.08q1.62-2.43 3.36-4.9a.42.41-42.2 01.7.03l3.38 6.1a1.01.99-48.4 01.04.87l-3 6.97a1.48 1.47-78.5 001.36 2.06l1.47-.01a.82.82 0 00.69-.38l2.31-3.68a.55.55 0 01.94.03l2.05 3.7a1.51 1.51 0 00.83.7q1.77.59 2.84-.91a1.28 1.25-34.8 00.2-1.04q-.65-2.52-2.74-4.14-.97-.76.25-.89l4.91-.55a.73.73 0 00.64-.61l.41-2.41a.77.76-75.1 00-.48-.84q-3.37-1.27-6.87-.41a1.08 1.08 0 01-1.05-.32q-2.61-2.88-3.87-6.57a.53.52-8.9 01.51-.69l6.98.13a.96.95 75.5 01.81.48l3.33 5.69a.83.83 0 00.88.39l2.32-.51a.79.78 82.9 00.61-.79q-.08-3.17-2.66-4.76-.56-.35.09-.46c2.23-.39 7.25 1.04 6.62-2.94-.5-3.15-4.02-1.72-6.42-1.97q-.48-.06-.06-.29"/><path stroke="#8f8e7f" vector-effect="non-scaling-stroke" d="M321.94 218.94c-8.4 8.42-12.09 16.69-13.51 28.27-1.73 14.04 4.32 22.79 15.85 29.39q33.03 18.89 66.07 37.91a.46.45-57.3 01.14.66c-18.89 27.15-24.44 69.38 2.12 94.13a1.33 1.29 19 01.42.83q1.05 9.5 5.94 17.67a1.12 1.11 39.2 01.1.92q-4.02 11.66-7.6 23.48c-2.59 8.52-9.91 16.89-12.1 26.99-2.29 10.55-3.75 18.79-6.79 25.41-2.28 4.99-7.23 8.16-12.11 12.34-4.53 3.87-12.34 14.83-10.93 21.48q.8 3.76 4.56 6.46 20.08 14.37 40.68 20.7a1.61 1.61 0 00.96 0c9.88-2.99 19.23-15.6 24.69-24.17 6.32-9.92 13.18-19.65 18-30.23 8.23-18.1 12.14-33.14 17.82-50.07a1.44 1.41 83.3 01.58-.75q10.86-7.16 22.61-12.69c7.32-3.45 11.23-6.66 17.29-11.69 2.3-1.91 6.08-3.42 8.72-5.72 22.73-19.73 36.93-53.18 28.96-83.29-2.11-7.96-3.57-17.04-6.84-23.45-5.99-11.76-16.25-19.6-27.87-26.22q-33.52-19.11-140.54-80.81c-13.32-7.68-25.14-9.66-37.22 2.45"/><path stroke="#c8c8ba" vector-effect="non-scaling-stroke" d="M283.3 228.16q-1.04 3.03 1.27 5.54a.9.88 64.1 00.81.29l2.59-.43q.57-.09.19.34c-.65.73-3.68 3-1.76 4.04a.66.65 33.7 00.82-.16l1.68-2.13q.48-.6.74.12c.27.75.68 2.81 2.04 1.84a.83.83 0 00.33-.86q-.19-.9-.85-1.59a1.56 1.55 22.4 01-.43-1.02q-.11-2.87 1.85-4.94a.47.47 0 01.74.09q1.3 2.24 1.69 4.8a1 .96 59.4 01-.17.72l-1.32 1.92a.49.49 0 00.3.75c3.02.63 1.95-1.8 3.02-2.16a.26.26 0 01.35.23q.1 1.62 1.28 2.7a.56.56 0 00.88-.16q.97-1.9-.77-3.23-.65-.49.16-.66l2.26-.45a.74.74 0 00.6-.75l-.03-.79a.56.55-8.8 00-.7-.51q-4.07 1.14-5.24-3a.37.36-12.3 01.3-.46l3.2-.43a.63.63 0 01.67.43q.6 1.9 2.1 3.16a.54.54 0 00.85-.25q.55-1.72-.93-2.91-.51-.41.14-.44l3.12-.17a.74.72-.5 00.69-.69c.1-1.76-2.71-1.09-3.84-1.3q-.59-.11-.15-.51 1.85-1.73-.12-3.34a1.1 1.1 0 01-.4-.85q.01-2.01-1.91-2.2a.24.24 0 01-.21-.31l.72-2.35q.26-.86-.61-.65-1.41.34-1.82 1.81a.71.71 0 01-1.3.17c-.28-.48-1.9-2.53-2.53-1.37a.83.82 39.8 00.09.91q3.12 3.77-.67 7.03a.58.58 0 01-.87-.14l-1.91-3.11a.84.83-47.2 01-.03-.84l1.54-2.97q.49-.93-.54-.71-1.35.28-1.86 1.6-.38.95-.61-.05-.47-1.98-2.39-2.05a.48.48 0 00-.44.71l1.17 2.22a.53.53 0 01-.42.77l-1.9.14a.73.73 0 00-.66.61l-.09.58a.52.52 0 00.55.6l2.91-.21a1.05 1.04 70.5 01.93.45l2.71 3.98a.5.5 0 01-.47.77l-3.96-.48a1.34 1.3-14.8 01-.87-.49q-.94-1.21-1.05-2.88a.58.58 0 00-.75-.51l-1.19.4a.64.63-19.6 00-.4.83l.84 2.19a.45.44 79.2 01-.41.61h-2.11a.76.75-79.1 00-.7.48c-.51 1.34 2.08 1.89 2.94 1.41q.51-.29.32.27M144.54 245.75q1.1-3.27-1.04-6.16a.77.77 0 00-1.29.07l-.71 1.2a.77.76-54.3 00.15.95q1.24 1.11 1.87 2.59a.37.36-8.1 01-.38.5c-1.17-.13-4.18-.63-4.29 1.2a.63.61 9.5 00.47.64q2.52.66 4.97.01M144.29 246.75q3.76 2.02 2.74 6.01M147.03 252.76l-5.31-.05a.89.89 0 01-.79-.48l-1.96-3.68a1.2.9 27.9 00-2.1.33l1.53 3.72a.21.2-14 01-.17.28c-1.44.13-4.75-.93-4.21 2a.74.74 0 00.86.59l2.82-.53a.33.33 0 01.39.33c-.04 1.38-1.53 3.96-.1 4.78a.79.78 37.9 00.93-.11q2.55-2.44 1.54-5.86a.29.29 0 01.5-.26q2.08 2.62 5.35.71a1.08 1.08 0 011.53 1.38l-2.23 4.83a.89.88-77.3 01-.8.51h-5.02a.58.58 0 00-.56.73l.31 1.08a.83.82-4.3 00.69.59q1.82.22 2.97-.78a.23.22 46 01.3.01l.23.22a.26.25 48.3 01-.02.39q-2.68 2.09-1.89 5.21a.61.61 0 00.84.41q3.02-1.36 1.66-4.23a.91.91 0 01.07-.88l.88-1.35q.38-.57.51.11l.9 4.6a.8.8 0 00.62.63l.98.22a1.01 1.01 0 001.16-1.36l-1.92-4.74a1.23 1.21 47.2 01.03-.98l2.47-5.1"/><path stroke="#c8c8ba" vector-effect="non-scaling-stroke" d="M150.02 256.03l3.56 5.04a.92.91-50.4 01.08.89c-.56 1.27-3.66 5.52-1.61 6.32a1.08 1.05 40.4 00.9-.06q2.51-1.4 2.63-4.14.08-1.82.4.15c.17 1.04 1.89 6.61 3.81 3.9a.85.85 0 00.04-.95l-1.74-2.9a.5.48-37.9 01.09-.61l.23-.22a.68.67 39.8 01.82-.07c1.16.76 3.31-.08 2.78-1.49a.73.73 0 00-.62-.47l-4.61-.41a1.13 1.1 77.7 01-.88-.58l-2.78-5.12q-.3-.54.32-.51l5.42.28a.96.92 72.8 01.72.4c.99 1.38 1.59 4.79 3.69 4.2a.83.83 0 00.51-1.19l-1.56-3a.49.49 0 01.4-.71c1.51-.12 5.01 1.22 4.64-1.73a.6.59 85.7 00-.6-.52l-4.08.1a.37.37 0 01-.34-.54l1.67-3.13a.63.62 32.5 00-.18-.78c-.97-.72-1.7-.01-2.08.97q-2.13 5.59-8.08 3.46a.83.82 29.1 01-.37-1.28l3.06-3.87a1.08 1.04 16.7 01.77-.4l4.08-.24a.64.64 0 00.59-.75l-.23-1.4a.47.46 79.3 00-.55-.38l-5.43 1.09a.2.2 0 01-.23-.25l.07-.28a.47.46 7.2 01.45-.34l1.16-.01a.88.86-75.3 00.76-.46l1.9-3.61a.97.96-69.3 00-.62-1.39l-1.18-.28a.54.54 0 00-.64.66q.52 2.04-.98 3.36a.64.63-37.1 01-.96-.13l-1.49-2.35a.8.79-22.7 00-.84-.34l-1.56.36q-.95.21-.28.93 4.79 5.04-.49 9.67a.47.47 0 01-.69-.07c-2.32-3.11-4.01-6.61-.18-9.6a.56.56 0 00-.21-.99c-3.28-.77-3.49 2.91-4.14 5.13a.49.49 0 01-.47.36h-.33"/><path stroke="#929395" vector-effect="non-scaling-stroke" d="M150.02 256.03q-.73-2.59-2.99-3.27M144.29 246.75l.25-1"/><path stroke="#c8c8ba" vector-effect="non-scaling-stroke" d="M235.63 274.21a.77.77 0 01-1.35.02c-2.4-4.13-6.29-7.41-2.99-12.31q1.23-1.83 2.29-3.78a1.08 1.06-41.6 00.06-.88l-.93-2.5a1.01 1-3.7 00-.72-.62c-3.31-.78-4.54 3.07-5.92 5.22q-.27.42-.46-.04c-4.6-10.71-12.71-4.26-4.74 2.87q1.72 1.53-.12.59-.19-.1-.35-.24a1 .98-29.2 00-.84-.23l-4.99.94a.81.81 0 00-.63.61l-.77 3.34a.69.69 0 00.55.83q3.48.61 7 .34c5.13-.4 6.19 5.63 8.9 8.99a.57.56-19 01-.45.92l-10.66-.17a.91.9 76.5 01-.78-.48c-1.4-2.7-3.01-8.7-6.72-8.35a1.17 1.15-76.1 00-.88.54l-1.31 2.04a.94.93-42.7 00-.04.92l2.63 5.15a.39.39 0 01-.35.57l-6.21-.05a.64.64 0 00-.59.4l-.94 2.43a1.29 1.28 44.7 00.01.94l.77 1.84a.76.75-10.9 00.7.47l5.98-.04a.45.44-76 01.39.66l-2.19 4.08a2.28 2.28 0 001.17 3.2c6.97 2.77 6.24-11.42 11.06-8.14a1.37 1.35 60.3 00.86.24l7.19-.34a.65.65 0 01.52 1.08q-3.22 3.65-4.75 8.26a.66.64-80.5 01-.61.45l-9.47-.03a1.8 1.79-5.8 00-1.76 2.15l.64 3.08a.78.78 0 00.82.62l5.07-.34a.39.39 0 01.39.53q-1.03 2.67-2.13 5.28c-1.56 3.7 2.81 4.57 5.14 2.97a1.4 1.39-11.1 00.57-.84q.51-2.33 2.14-4.07a.47.47 0 01.75.1l2.43 4.41a1.09 1.08-9.6 00.75.53q3.44.59 4.43-2.53a1.39 1.35 40.3 00-.1-1.05l-4.44-8.23a1.06 1.05-40.1 01.11-1.16q3.17-3.96 4.81-8.81a.36.35 43.8 01.67-.01q1.9 4.89 4.89 9.2a.9.87-51.2 01.08.86c-1.34 3-5.22 7.86-3.19 10.93a1.3 1.3 0 00.77.54c3.25.83 5.14-3.3 6.29-5.63a.29.29 0 01.54.07c.63 2.97 3.47 10.49 7.69 5a1.07 1.07 0 00.17-1.01l-1.62-4.71a1.07 1.06-88.8 00-.61-.64q-.76-.3-1.21-.85-.52-.64.3-.67l5.11-.23a.96.95 13 00.81-.5l1.65-2.89a.71.7-55.8 00-.16-.89l-1.46-1.23a1.03 1.02-25 00-.7-.25l-8.33.25a1.04 1.03-14.6 01-.95-.55l-2.63-4.9q-.22-.41-.59-.68-1.92-1.42-2.04-3.97a.54.54 0 01.6-.56l7.02.71q.48.05.94-.1l1.26-.39a.85.84-28.6 01.9.26q1.65 1.96 2.6 4.33c.7 1.75 1.86 2.66 2.7 4.33a.65.65 0 00.73.34l.34-.08a.4.4 0 00.28-.55l-.76-1.84a.15.14-21.1 01.09-.2l.3-.09a.32.31-20.2 01.4.18l.73 1.72a.62.62 0 00.72.36c4.08-1.02.63-5.92-.66-7.57a.88.88 0 01.72-1.43l5.22.14a.88.88 0 00.83-.52l1.29-2.78a.92.91 40.4 00-.08-.92c-1.73-2.48-5.02-1.22-7.6-1.01a.42.42 0 01-.45-.53q.64-2.3 2.24-4.12a1.5 1.5 0 00.37-.93q.07-2.01-1.3-3.42a1.11 1.09 64.2 00-.91-.33c-4.54.46-4.67 5.76-7.69 8.81a1.43 1.4-69.9 01-.86.41c-3.44.37-6.51-.38-10.04.42a.4.4 0 01-.42-.61l5.28-7.83a1.01.99-42.3 00.06-1l-.23-.45q-.29-.56.35-.53 2.04.13 4.08.34c1.82.19 3.68-.47 5.68.14a.6.59-72.6 00.74-.39l1.03-3.28a1.02 1.01 30.8 00-.27-1.04q-2.77-2.65-6.58-1.54a.41.4 6.8 01-.47-.59l2.91-4.93a1.24 1.22-41.1 00.08-1.05l-.87-2.16a1.06 1.05-6 00-.8-.64c-4.52-.76-4.9 3.41-6.48 6.31a.7.7 0 01-1.21.04c-1.32-2.12-2.09-6.29-5.59-5.09q-2.3.79-1.36 3.03 1.31 3.13 2.64 6.24.36.84 1.64 1.34a.42.42 0 01.22.59l-4.78 8.84M111.25 310.92l-3.5-.52a.72.72 0 00-.82.6l-.23 1.49a.74.74 0 00.87.84l4.15-.76a.91.89-20.7 01.93.41l2.7 4.35a.66.66 0 01-.51 1.01l-5.28.38a.76.76 0 01-.79-.62q-.6-3.48-3.93-4.12a.76.76 0 00-.87.96q.9 2.94 3.8 3.89a.45.45 0 01.21.71l-3.23 3.99a1.18 1.18 0 00-.27.9l.12.92a.85.84 61.2 001.49.44l3.91-4.81a.87.86-60.8 01.94-.27q2.06.68 3.96-.15.54-.23.44.35c-.83 4.59-2.34 7.27-7.66 6.2a1.08 1.07 86.3 00-1.22 1.4c.56 1.67 2.56 1.29 3.73.46a.4.39-26.4 01.61.2c.06.17-1.75 3.79-1.85 4.07a.72.71-61 00.23.81c2.16 1.69 2.93-1.28 4.04-2.22a.86.85 66.7 011.4.56q.19 1.7 1.67 2.14a.58.57 6.5 00.74-.58q-.17-2.9-2.22-4.84a.71.71 0 01-.16-.81l2.49-5.64q.3-.68.71-.06l3.38 5.22a.77.77 0 01-.03.88c-.74.96-3.43 4.47-1.58 5.44a.69.68 30.4 00.9-.23l1.7-2.64a.76.76 0 011.35.13l1.29 3.14a.59.59 0 001.01.15q1.97-2.45-.52-4.15a.72.72 0 01-.27-.85c.45-1.23 2.32-.22 3.27-.22a.69.69 0 00.69-.66l.05-1.12a.66.65 1.7 00-.65-.68l-4.1-.04a.97.95 71 01-.76-.38l-4.33-5.68a.37.36-14.1 01.35-.58l6.45 1a1.33 1.31-14.3 01.84.49c1.29 1.56 1.8 3.44 3.89 4.07a.65.65 0 00.77-.92l-1.98-3.86a.36.36 0 01.34-.53l4.71.18a.88.88 0 00.76-1.38c-1.3-1.88-3.44-.24-5.2-1.05a.45.45 0 01-.23-.57l1.08-2.68a.79.78 30.3 00-.25-.92c-1.05-.82-1.75-.1-2.14.95q-1.93 5.22-7.93 3.07a.97.97 0 01-.4-1.54l3.37-3.84a.9.88-64.1 01.81-.29l3.27.58a.78.77-79.6 00.9-.63l.44-2.36q.23-1.27-.78-.47-1.72 1.37-4.02 1.04-.37-.06-.13-.34 1.75-2.05 2.37-4.73a.67.66-70.7 00-.36-.75c-1.72-.79-2.17 2.84-3.66 3.89a.52.51-32.9 01-.74-.15q-.78-1.29-.53-2.88.58-3.6-1.67-.73-2.14 2.74.34 4.83a.89.88 41 001.23-.08l.25-.28q.55-.6.51.21-.04 1-.58 1.67-2.61 3.23-3.21 7.15-.18 1.16-.34-.01-.46-3.39-2.77-5.97a1.07 1.07 0 01-.25-.95c.33-1.42 2.71-4.88 1.94-5.9a.66.66 0 00-1.07.01l-1.75 2.52a.79.78 50.3 01-1.36-.13l-1.11-2.44a.68.68 0 00-.83-.37l-1.04.35a.74.74 0 00-.4 1.09l2.38 3.83q.32.5-.27.41"/><path stroke="#c8c8ba" vector-effect="non-scaling-stroke" d="M106.99 319.73a3.12 1.33-.2 00-3.125-1.32 3.12 1.33-.2 00-3.115 1.34 3.12 1.33-.2 003.125 1.32 3.12 1.33-.2 003.115-1.34"/><path stroke="#8f8e7f" vector-effect="non-scaling-stroke" d="M564.094 388.421a.77.5 132.1 00.887-.236.77.5 132.1 00.145-.906.77.5 132.1 00-.887.236.77.5 132.1 00-.145.906"/><path stroke="#c8c8ba" vector-effect="non-scaling-stroke" d="M182.364 545.34a.97.65 24.3 00-.617-.992.97.65 24.3 00-1.151.193.97.65 24.3 00.617.991.97.65 24.3 001.151-.193M192.68 548.75l1 .32q.74.24.56-.51l-.22-.85a.56.56 0 00-.89-.3l-.61.51q-.7.56.16.83M220.54 124.88q.28-.77-.43-1.36-.51-.43-.6.23-.17 1.32.39 2.55.36.78.44-.08l.07-.76q.03-.3.13-.58"/><path stroke="#5a5a5a" vector-effect="non-scaling-stroke" d="M336.46 266.5q1.08 2.09 1.09 3.9a1.75 1.73 13.9 00.94 1.54q42.99 22.65 85.85 45.42c6.08 3.23 10.42 1.56 16.27 3.33a1.15 1.14-55 001.03-.19q3.06-2.37 5.36-5.55.43-.59-.29-.49l-1.97.28a1.61 1.59 53.4 01-.92-.14c-29.73-14.36-58.96-30.89-93.12-49.55-2.71-1.48-5.56-2.09-8.49-2.55"/><path stroke="#90908f" vector-effect="non-scaling-stroke" d="M342.21 262.5q5.69-4.75 9.33-11.25"/><path stroke="#5a5a5a" vector-effect="non-scaling-stroke" d="M351.54 251.25q2.98.77 4.72 1.72 33.57 18.36 84.58 47.17 6.23 3.52 8.87 6.61"/><path stroke="#8f8e7f" vector-effect="non-scaling-stroke" d="M449.71 306.75q-.05 1.03.48 1.84a.37.36 46.6 00.6.02q3.66-4.88 5-10.86"/><path stroke="#5a5a5a" vector-effect="non-scaling-stroke" d="M455.79 297.75l.92-6.75"/><path stroke="#90908f" vector-effect="non-scaling-stroke" d="M456.71 291l-.84-8.24q-.04-.45.17-.05 3.77 7.32 1.72 15.79-1.53 6.31-4.05 10.75"/><path stroke="#5a5a5a" vector-effect="non-scaling-stroke" d="M453.71 309.25c-4.29 8.23-9 11.03-15.96 16.96"/><path stroke="#90908f" vector-effect="non-scaling-stroke" d="M437.75 326.21q-9.14 4.53-19.25 2.83"/><path stroke="#5a5a5a" vector-effect="non-scaling-stroke" d="M418.5 329.04l-1.75-.5"/><path stroke="#90908f" vector-effect="non-scaling-stroke" d="M416.75 328.54q-2.62-1.24-3.9.75c-6.15 9.59-8.35 18.37-11.6 29"/><path stroke="#111010" vector-effect="non-scaling-stroke" d="M401.25 358.29q-.72-.68-1.55-.49a.82.81 88.4 00-.62.66l-3.9 23.98a1.24 1.22-58.6 00.22.94q.72.99 1.81.37"/><path stroke="#5a5a5a" vector-effect="non-scaling-stroke" d="M397.21 383.75q-.47 8.1.17 16.45a.27.27 0 00.53.01q1.72-16.2 5.8-32.21"/><path stroke="#8f8e7f" vector-effect="non-scaling-stroke" d="M403.71 368l.74-3.63"/><path stroke="#5a5a5a" vector-effect="non-scaling-stroke" d="M404.45 364.37l2.8-6.83"/><path stroke="#90908f" vector-effect="non-scaling-stroke" d="M407.25 357.54c1.44-3 4.4-9.38 8.5-9.54a.74.74 0 01.71.45c1.65 3.91.81 8.08 4.8 10.28 7.21 3.98 18.48 11.26 21.28 20.02"/><path stroke="#8f8e7f" vector-effect="non-scaling-stroke" d="M442.54 378.75q1.64 8.49 1.71 18 .01.9 1 1.04"/><path stroke="#5a5a5a" vector-effect="non-scaling-stroke" d="M445.25 397.79q1.78.9 1.94 2.28c1.54 12.97 3.24 24.13 12.93 33.86q10.31 10.36 24.58 5.95.48-.14-.02-.1-17.08 1.66-26.5-12.23c-7.62-11.24-8.1-23.61-7.04-36.84.66-8.21 5.07-20.59 7.63-26.2 10.6-23.25 31.94-46.79 60.48-38.3"/><path stroke="#90908f" vector-effect="non-scaling-stroke" d="M519.25 326.21l3.41 2.29q.45.31.24-.19c-5.02-11.69-14.68-18.97-25.86-25.4q-70.5-40.52-140.96-81.13-7.67-4.42-11.85-5.13-8.58-1.48-15.92 3.89-15.14 11.06-15.16 30.25c-.01 7.74 5.12 17.18 13.62 17.53 2.94.12 6.53-1.11 9.69-1.82"/><path stroke="#c9c9ca" vector-effect="non-scaling-stroke" d="M519.25 326.21q-1.51-3.55-4.31-5.17-25.64-14.87-51.37-29.53a.51.51 0 00-.76.43q-.27 9.87-5.96 17.75a1.06 1.05 16.5 01-.82.44q-1.33.05-2.32-.88M456.71 291l-1.49-3.32a1.75 1.71-85.1 00-.61-.74q-2.59-1.84-5.34-3.43-42.42-24.54-85.07-48.68-3.15-1.79-6.04-3.21a.75.75 0 00-1.07.57c-.74 5.55-2.17 10.43-4.4 15.5q-.76 1.72-1.15 3.56M342.21 262.5q-3.25 1.45-5.75 4"/><path stroke="#c8c8ba" vector-effect="non-scaling-stroke" d="M445.25 397.79q1.12.03.99-.79c-.76-4.91-.81-10.21-1.97-14.98q-.42-1.72-.64-3.5"/><path stroke="#c9c9ca" vector-effect="non-scaling-stroke" d="M443.63 378.52q4.63-1.62 6.58-7.05c3.83-10.69 11.87-22.31 19.01-32.27q1.74-2.43.07-5.3a1.41 1.4 85.5 00-.72-.62q-2.77-1.1-4.56-.93-14.27 1.36-26.26-6.14"/><path stroke="#c8c8ba" vector-effect="non-scaling-stroke" d="M455.79 297.75q-.3-.65-.92-.58a.78.77 5.5 00-.67.54c-.93 3.07-1.7 7.15-4.49 9.04"/><path stroke="#fefeef" vector-effect="non-scaling-stroke" d="M443.63 378.52l-1.09.23"/><path stroke="#c9c9ca" vector-effect="non-scaling-stroke" d="M407.25 357.54q-.43.12-.92-.09a.47.46 27 01-.22-.66c1.78-2.98 4.04-5.65 5.47-8.64 2.17-4.54 7.14-14.27 6.92-19.11"/><path stroke="#c8c8ba" vector-effect="non-scaling-stroke" d="M404.45 364.37q-1.84.96-1.68 3.16a.52.51-1.8 00.52.48l.42-.01"/><path stroke="#494a4b" vector-effect="non-scaling-stroke" d="M397.21 383.75q.5-10.35 2.92-20.17"/><path stroke="#c9c9ca" vector-effect="non-scaling-stroke" d="M416.75 328.54c-5.46 9.49-11.65 22.18-13.38 33.01q-.4 2.45-3.24 2.03"/><path stroke="gray" vector-effect="non-scaling-stroke" d="M400.13 363.58l1.12-5.29"/><path stroke="#90908f" vector-effect="non-scaling-stroke" d="M385.5 345.54c5.66-2.84 8.85.62 11.85 4.9q.25.37.41-.04l9.77-25.02a.64.62-62.2 00-.22-.75q-5.29-3.7-11.15-6.41a.52.52 0 00-.67.22c-3.72 6.87-10.23 19.43-10.42 26.82a.3.3 0 00.43.28"/><path stroke="#5a5a5a" vector-effect="non-scaling-stroke" d="M457.54 410.25c2.37 12.97 9.3 23.82 23.96 23.73 11.65-.07 23.71-9.39 30.52-18.22 9.88-12.81 19.15-31.1 18.73-47.72"/><path stroke="#8f8e7f" vector-effect="non-scaling-stroke" d="M530.75 368.04q.75-7.74-.45-15.59"/><path stroke="#5a5a5a" vector-effect="non-scaling-stroke" d="M530.3 352.45q-1.37-7.47-6.03-13.63"/><path stroke="#90908f" vector-effect="non-scaling-stroke" d="M524.27 338.82c-5.61-9.08-17.36-11.34-26.73-7.42-28.69 11.99-44.79 49.55-40 78.85"/><path stroke="#c9c9ca" vector-effect="non-scaling-stroke" d="M524.27 338.82q-1.58-.91-2.99-2.06c-2.21-1.82-6.68-3.91-9.51-4.22-13.13-1.45-20.71 4.03-29.94 12.61-11.88 11.02-19.38 27.62-22.99 43.97-1.48 6.68-.93 13.3-.39 20.1a.8.8 0 01-.41.76l-.5.27"/><path stroke="#c8c8ba" vector-effect="non-scaling-stroke" d="M530.3 352.45q-1.22 2.67-.59 5.8"/><path stroke="#5a5a5a" vector-effect="non-scaling-stroke" d="M529.71 358.25q-3.2 1.1-3.98 1.72-4.81 3.76-21.23 18.02a.71.7 74.3 00-.24.43l-.05.36q-.08.6.43.28 12.1-7.35 24.82-13.56"/><path stroke="#c8c8ba" vector-effect="non-scaling-stroke" d="M529.46 365.5q.14 1.55 1.29 2.54"/><path stroke="#8f8e7f" vector-effect="non-scaling-stroke" d="M529.46 365.5q1.07-3.58.25-7.25"/><path stroke="#5a5a5a" vector-effect="non-scaling-stroke" d="M385.54 389.25q2.08 4.92 5.38 9.23.29.38.29-.1l.24-15.93a.59.59 0 00-.45-.57l-6.5-1.59"/><path stroke="#8f8e7f" vector-effect="non-scaling-stroke" d="M384.5 380.29l-1.45-.36a.34.33-87.7 00-.41.38q.73 4.7 2.9 8.94"/><path stroke="#c8c8ba" vector-effect="non-scaling-stroke" d="M384.5 380.29c-.63 1.56-.68 2.58.32 4.08.75 1.12 2.97 4.64.72 4.88"/><path stroke="#5a5a5a" vector-effect="non-scaling-stroke" d="M406.31 407.26l31.22 17.17a.3.29-72.9 00.44-.24c1.06-14.76-19.29-28.46-31.81-32.76a.49.49 0 00-.64.37q-1.31 6.91-.32 13.86a2.2 2.18-80 001.11 1.6M356.38 540.9l15.81 9.55a.45.44-64.9 00.65-.24q2.07-6.27 6.85-12.52 10.16-13.3 16.8-21.22c2.35-2.79 4.1-6.24 4.56-9.46 1.78-12.58 4.76-22.91 10.16-35.42q6.26-14.54 12.54-29.12a.62.61-63.7 00-.26-.78l-17.91-9.83a.92.91 22.2 00-1.32.55c-3.3 11.58-8.79 22.24-13.29 33.33-1.85 4.57-5.23 9.34-6.84 13.94-3.48 9.92-3.65 21.74-8.66 30.76-6.25 11.24-21.22 14.23-19.63 29.6a1.16 1.16 0 00.54.86"/><path stroke="#c8c8ba" vector-effect="non-scaling-stroke" d="M298.06 221.45a.18.18 0 01-.2-.12l-.18-.53a.18.18 0 00-.33-.03l-2.73 5.06a.18.18 0 00.18.26l5.1-.65a.18.18 0 00.15-.14l.92-3.97a.18.18 0 00-.2-.22l-2.71.34M285.36 228c-.76 1.36-1.43 2.47-.47 3.85a.96.95-19.2 00.86.41q3.8-.29 4.66-4.03a.38.38 0 00-.38-.47l-4.4.08a.31.31 0 00-.27.16"/><path stroke="#90908f" vector-effect="non-scaling-stroke" d="M322.644 263.892a24.67 16.1 115.9 0025.259-15.16 24.67 16.1 115.9 00-3.707-29.224 24.67 16.1 115.9 00-25.259 15.16 24.67 16.1 115.9 003.707 29.224"/><path stroke="#c8c8ba" vector-effect="non-scaling-stroke" d="M485.16 318.75q.59-1.78-.56-2.83c-1.49-1.37-11-1.8-13.46-2.04-3.39-.33-5.87-1.47-8.94-2.68a.55.55 0 00-.7.28q-.12.28 0 .48"/><path stroke="#5a5a5a" vector-effect="non-scaling-stroke" d="M461.5 311.96l-3.29-1.52a.51.51 0 00-.64.19q-3.34 5.26-7.91 9.57a.8.8 0 00.11 1.25c10.64 6.89 18.34 2.54 28.96-.38q.48-.14.97-.01 4.27 1.09 5.46-2.31"/><path stroke="#8f8e7f" vector-effect="non-scaling-stroke" d="M461.5 311.96q2.52 1.19 5.13 2.14c5.43 1.99 14.38-.38 18.53 4.65"/><path stroke="#5a5a5a" vector-effect="non-scaling-stroke" d="M507.23 338.5c1.02-5.17-4.77-4.2-5.37-.81q-1.33 7.51-1.59 19.11c-.1 4.96-.98 10.49-1 15.71a.44.44 0 00.87.09q3.74-17.1 7.09-34.1M517.66 336.43c-1.59-1.74-3.03-.61-3.62 1.14q-6.1 18.12-12.47 36.16a.31.3 5.1 00.34.4c.59-.1 9.06-18.54 10-20.56 1.35-2.91 8.77-13.82 5.75-17.14M493.46 340.5q-1.25-1.54-2.88-.36-4.22 3.04-2.51 8.34 3.25 10.13 6.42 20.29c.59 1.91 1.22 5.26 2.35 7.66a.32.32 0 00.6-.18c-1.53-11.5-2.92-23.18-3.65-34.75"/><path stroke="#c8c8ba" vector-effect="non-scaling-stroke" d="M493.79 341.5q1.38.66 1.98-.86a.73.73 0 00-.39-.93q-1.33-.59-1.92.79"/><path stroke="#8f8e7f" vector-effect="non-scaling-stroke" d="M493.79 341.5l-.33-1"/><path stroke="#5a5a5a" vector-effect="non-scaling-stroke" d="M524.04 344.75q-2.68 2.88-3.93 4.82-8.64 13.36-17.4 26.85a.2.2 0 00.32.25q7.5-8.47 14.91-17.37c2.52-3.02 11.68-10.22 7.43-14.56a.92.92 0 00-1.33.01M478.19 365.56q8.53 6.75 16.2 13.43a.34.34 0 00.51-.45q-7.38-11.15-14.05-22.61c-2.48-4.26-5.74-1.16-6.71 1.87-1.06 3.3 1.62 5.84 4.05 7.76M465.69 381.56q13.12 1.28 26.52.39.5-.04.03-.22-10.75-4.23-21.51-8.47c-4.83-1.89-6.22 4.05-5.89 7.45a.94.94 0 00.85.85M521.75 376.54l-16.56 4.8q-.48.14-.06.42c1.54 1.01 3.75.21 4.99.29q7.43.49 14.93.76a1.33 1.31-63.3 00.89-.3c2.12-1.77 4.49-8.84-1.44-6.8"/><path stroke="#c8c8ba" vector-effect="non-scaling-stroke" d="M524.5 375.71q-.15-1.24-1.49-.92-1.78.42-1.26 1.75"/><path stroke="#8f8e7f" vector-effect="non-scaling-stroke" d="M524.5 375.71l-2.75.83"/><path stroke="#5a5a5a" vector-effect="non-scaling-stroke" d="M497.044 388.197a5.1 3.3 110.5 004.877-3.621 5.1 3.3 110.5 00-1.305-5.933 5.1 3.3 110.5 00-4.877 3.621 5.1 3.3 110.5 001.305 5.933M464.57 393.08c-3.53 1.06-3.55 4.41-2.67 7.24a1.82 1.82 0 002.63 1.04l28.53-16.07a.27.27 0 00-.21-.49q-14.22 4.06-28.28 8.28"/><path stroke="#5a5a5a" vector-effect="non-scaling-stroke" d="M503.44 386.1c5.23 4.59 9.09 9 15.53 13.07a.69.68-50 00.83-.08q2.38-2.25 3.02-5.52a1.23 1.23 0 00-.78-1.38l-18.18-6.78q-2.09-.78-.42.69M465.44 417.35a1.77 1.75 37.4 001.64-.21c4.94-3.5 9.24-10.2 13.56-14.71 4.11-4.29 7.53-9.75 12.41-13.96a.57.56-20.4 00.2-.43l.01-.29q0-.55-.41-.18-13.23 11.65-27.01 22.65c-1.97 1.57-4.28 5.65-.4 7.13"/><path stroke="#c8c8ba" vector-effect="non-scaling-stroke" d="M511.5 404.79l.35-.43a.83.82-38.7 00.1-.88l-2.43-5.06a.72.72 0 00-.81-.39q-.43.11-.75.47"/><path stroke="#5a5a5a" vector-effect="non-scaling-stroke" d="M507.96 398.5l-6.8-10.28a.34.34 0 00-.6.29l7.91 24.73q.96 3.01 2.78.43 1.54-2.21 2.43-4.64a1.1 1.09-52.1 00-.11-.94l-2.07-3.3"/><path stroke="#8f8e7f" vector-effect="non-scaling-stroke" d="M507.96 398.5l3.54 6.29"/><path stroke="#5a5a5a" vector-effect="non-scaling-stroke" d="M496.44 424.3l.98.55a.8.79-48.2 00.87-.05c1.63-1.21 3-2.51 3.14-4.71.43-7.08-1.1-14.84-2.71-25.83q-.36-2.44-.91-3.56-.32-.64-.33.07-.22 16.17-1.71 32.26a1.34 1.31-73.4 00.67 1.27M472.81 422.75c-2.93 4.4 1.71 7.75 4.72 2.38 4.15-7.42 7.41-15.79 10.86-22.87q2.56-5.26 4.94-10.71a.24.24 0 00-.42-.24q-2.05 2.7-3.94 5.85-7.79 12.98-16.16 25.59"/><path stroke="#c8c8ba" vector-effect="non-scaling-stroke" d="M486.04 418.75l-.06-1.01a.52.52 0 00-.56-.49l-.35.03a.59.59 0 00-.53.48l-1.36 7.82a.37.36 5.2 00.36.43l.42-.01"/><path stroke="#5a5a5a" vector-effect="non-scaling-stroke" d="M483.96 426q-.96 1.99.15 3.65a.75.74 66.2 00.79.31c2.57-.58 4.08-1.64 4.64-4.42q1.81-9.02 3.37-18.1c.64-3.71 2.47-9.6 2.63-14.71q.02-.53-.23-.07-1.21 2.31-2.25 5.9-2.43 8.47-7.02 20.19"/><path stroke="#8f8e7f" vector-effect="non-scaling-stroke" d="M483.96 426l2.08-7.25"/><path stroke="#fefeef" vector-effect="non-scaling-stroke" d="M589.94 591l-.19-.71"/><path stroke="#8f8e7f" vector-effect="non-scaling-stroke" d="M.25 590.04c-.15.47-.01.72.51.7q5.85-.17 11.68.26"/></g><path d="M0 0h590.06l.19.29.04 589.46-.54.54q-291.53-.05-583.06-.17-3.22-.01-6.44-.08l-.25-.1V0zm586.25 4.52a.27.27 0 00-.27-.27H4.52a.27.27 0 00-.27.27v581.46a.27.27 0 00.27.27h581.46a.27.27 0 00.27-.27V4.52z"/><path fill="#21201f" d="M590.06 0h.94v586.81c-.84-.45-.25-536.6-.25-586.31a.25.24-86.1 00-.21-.25q-.17-.02-.29.04l-.19-.29z"/><path fill="#fdfcdf" d="M590.25.29q.12-.06.29-.04a.25.24-86.1 01.21.25c0 49.71-.59 585.86.25 586.31v3.25l-.71-.31L590.25.29zM586.25 585.98a.27.27 0 01-.27.27H4.52a.27.27 0 01-.27-.27V4.52a.27.27 0 01.27-.27h581.46a.27.27 0 01.27.27v581.46zM64.31 36.9c-3.04.11-7.18-.25-10.26.17Q35.56 39.62 35.84 58.5q.3 19.25.61 38.5.03 1.8-.11 3.8a.36.35 84.5 00.45.38q2-.56 4.03-2.62 29.59-30.15 58.83-59.95a1.09 1.09 0 00-.75-1.85q-17.49-.5-34.59.14zm154.45 62.6l-1.57-3.57a.73.72 66.7 00-.94-.38c-4.05 1.68 0 5.75 1 7.89a.96.95 50.2 01-.08.93l-3.42 5.09a.53.52-43.5 01-.88-.02l-3.25-5.29a.83.82-45.9 01-.01-.85l2.91-5.17a1.47 1.46-81.9 00-1.61-2.15l-1.55.36a.82.82 0 00-.63.8l.02 1.85a.46.46 0 01-.54.46c-1.72-.28-1.69-3.5-4.67-4.17a.74.73-73.6 00-.86.47l-.78 2.18a.76.74 25.4 00.33.9q1.33.76 1.99 2.09a.41.41 0 01-.37.59l-3.09-.03a1 1 0 00-.97.77l-.52 2.22a.79.79 0 00.68.97l2.72.3a1.6 1.54-55.2 00.95-.19c2.74-1.55 5.48 3.79 6.01 5.88a.39.39 0 01-.35.48l-6.13.39a.58.58 0 01-.57-.33l-2.51-5.29a.92.92 0 00-1.08-.49l-2.44.69a.63.63 0 00-.43.83l1.6 4.39a.49.49 0 01-.58.65l-3.05-.79a.77.77 0 00-.87.39l-.93 1.85a.78.78 0 00.38 1.07q2.4 1.08 4.83.2.95-.35.54.57l-1.58 3.56a1.44 1.43-43.5 00-.03 1.07l.32.87a.68.68 0 00.82.42c3.64-.99 3.95-3.05 5.67-5.98a.96.95 15.5 01.84-.47l5.55.09a.39.39 0 01.34.57l-3 5.77a.82.81 14 01-.74.44l-5.37-.16a1.53 1.52 86.7 00-1.55 1.75c.55 3.75 2.34 1.86 4.75 2.38a.28.28 0 01.19.41l-2.04 3.61a1.39 1.39 0 001.29 2.07l1.63-.09a1 .99-79.3 00.86-.59l1.62-3.66q.23-.52.5-.02l1.95 3.65a1.01 1.01 0 001.69.15c2-2.54-.3-4.95-1.83-7.05a.75.75 0 01-.04-.81l3.32-6q.73-1.31 1.24.09c.39 1.07.66 2.16 1.44 3.25 3.88 5.4-3.98 7.51-.54 10.8a.65.64 41.3 00.95-.06l2.56-3.19a.56.56 0 01.73-.12q1.24.77 1.67 2.22a1.72 1.67 10.6 00.62.88q1.42 1.03 2.73.13a1.05 1.04 72.8 00.45-.86c-.01-2.07-2.41-4.91-2.26-5.71a.36.35 24 01.56-.21c1.95 1.42 6.42.73 4.79-2.14a1 .99 76.3 00-.8-.49l-6.73-.43a1.02 1.01 77.6 01-.85-.55l-2.94-5.56a.46.45 76.6 01.41-.67l5.96.14a1.45 1.44 67.5 01.98.41q2.13 2.1 3.32 4.93a1.23 1.23 0 002.12.27l1.11-1.47a.84.83-47.9 00-.05-1.07l-2.13-2.38q-.41-.45.19-.56c1.84-.33 6.69.71 5.85-2.89a.97.97 0 00-.66-.7q-2.18-.66-4.4-.01-.7.21-.46-.48c.69-2.02 3.64-3.62-.13-5.13a1.19 1.19 0 00-1.47.52l-2.25 4a1.15 1.15 0 01-.9.57l-6.94.52a.54.54 0 01-.52-.8l3.24-5.88a.66.66 0 01.8-.3q3.04 1.1 6.26.19a1.7 1.7 0 00.9-2.66q-1.88-2.51-4.5-.61a.52.52 0 01-.79-.63c.81-1.8 4.53-4.8 1.12-6.25a2.03 2.02-63 00-2.54.83l-2.1 3.57q-.27.44-.48-.03zM89.7 125.28c-.39-1.36-2.33-5.51-4.08-3.98a.63.63 0 00-.16.74l1.34 2.93a.77.77 0 01-.79 1.08l-2.36-.29a1.14 1.1 27.2 00-.87.26c-2.03 1.76.96 3.79 3.19 2.16a.68.68 0 011.03.79l-1.12 3.06a.61.6 16 00.45.8l.81.16a.79.79 0 00.88-.48l1.7-4.28a.31.31 0 01.53-.08c.95 1.19 3.33-.27 5.12.25a.57.57 0 01.4.64q-1.08 6.11-7.26 5.16a.58.58 0 00-.67.56l-.02 1.58a.62.62 0 00.71.62l2.47-.34a.56.55 6.5 01.6.75l-1.36 3.48a.89.88 15.7 00.67 1.19c1.89.36 2.5-3.41 2.9-4.77q.12-.38.29-.02l2.05 4.15a.65.65 0 001.03.19l1.28-1.21a.63.62 45 00-.01-.91q-1.82-1.69-2.28-4.22a1.01 1-27.1 01.29-.89q1.89-1.82 1.8-4.47-.04-1.25.64-.2l3.39 5.32a.93.92 44.7 01.01.98l-2.41 3.91a.79.79 0 00.5 1.19l.72.16a.72.72 0 00.8-.39l1.31-2.65a.39.38 42 01.67-.03l2.03 3.19a.89.88-27.6 001.1.34c1.77-.77-.07-3.27-.43-4.12q-.68-1.59.98-1.11 2.21.65 3.1-.98a1.02 1.02 0 00-.97-1.51l-4.69.33a.88.86 74.8 01-.84-.49l-1.96-3.81a1.22 1.22 0 01.79-1.74c8-2.03 4.85 6.42 9.53 4.27a.94.94 0 00.55-.79q.09-1.29-.99-2.34a.57.56 51.5 01.1-.9q1.38-.81 3.04-.59a.49.48-2.8 00.54-.59l-.33-1.48a.62.62 0 00-.89-.42l-1.84.95a.43.43 0 01-.62-.32q-.29-2.08 1-3.82a.59.59 0 00-.27-.91l-1.59-.58a.77.77 0 00-.96.39l-1.52 3.21a1.14 1.13 9.4 01-.9.64l-5.28.6a.59.59 0 01-.61-.82l1.71-4.06a1.05 1.04 10.5 01.93-.63l5.66-.13a.53.53 0 00.48-.73l-.6-1.53a.77.76-15.8 00-.85-.47l-6.06 1a1.28 1.28 0 00-.9.6l-2.88 4.7a.48.47 44.8 01-.81 0l-2.29-3.66a.91.88 39.3 01-.09-.77l1.77-5.06a.97.97 0 00-.2-.96c-1.38-1.48-2.82.98-3.21 1.99a.69.68 9.1 01-.61.43l-.28.01a.31.31 0 01-.29-.17l-1.3-2.61a.77.76 69.2 00-.88-.4c-2.41.64.25 3.91.9 4.95q.47.75-.41.67l-3.09-.29a.77.76 10.1 00-.8.55l-.42 1.53q-.25.92.66.66 5.9-1.7 7.57 3.98a1.06 1.06 0 01-1.02 1.37h-4.33a.66.64 81.5 01-.62-.47zm186.96 17.02l-5.28.57a1.08 1.07-74 00-.73.41c-4.99 6.44 7.14 4.98 9.22 4.99a.96.96 0 01.85.51l3.63 6.86a1.11 1.09-44.5 01-.02 1.06c-.76 1.36-3.3-.77-5.24.28a1.03 1.02-45.3 01-.96.01q-1-.54-1.68.34a.56.56 0 01-.88 0q-2.36-3.07-4.2-6.5c-1.03-1.94-2.28-2.36-4.33-2.09a1.35 1.34 16.4 00-.83.45c-1.88 2.12.44 5.2 1.4 6.84q.92 1.58-.88 1.28c-2.53-.44-7.23-.27-6.27 3.24q.25.92.99 1.61a1.19 1.16 64.6 00.84.31l5.29-.12q.91-.02.42.75l-2.6 4.07a.85.82-41.6 00-.06.8q1.44 3.21 4.73 2.34a1.32 1.31 7.6 00.78-.59l3.81-6.45a1.15 1.12-76.6 01.87-.55l8.31-.75a.45.45 0 01.49.48q-.18 1.9-.9 3.67c-.69 1.7-2.52 2.56-3.03 4.41a1.77 1.77 0 01-2.09 1.25q-4.3-.97-8.24.94a.79.77-13.9 00-.44.71q.07 3.01 3.1 3.86a1.25 1.22 38.2 00.93-.1q1.08-.56 2.27-.44a.52.52 0 01.44.69c-.94 2.59-4.91 7.99.92 8.56a.92.91-72.6 00.87-.46l3.57-6.3a.52.52 0 01.94.08l1.76 4.75a.71.69 76.7 00.73.46l2.78-.28a.85.85 0 00.76-.75l.35-2.92a1.16 1.13 26.6 00-.33-.95l-3.23-3.26a2.35 2.33 37.3 01-.39-2.8l4.42-7.87q.45-.8.9-.01l4.33 7.65a1.3 1.29-51.4 01.11 1.01q-1.05 3.53-3.62 6.22a2.06 2.06 0 00.14 2.97q1.62 1.4 3.68.87a1.13 1.11 8.6 00.69-.5l2.14-3.57a.9.9 0 011.58.08l1.65 3.47a1.37 1.35.9 00.62.63q3.12 1.52 4.88-1.58a.73.73 0 00-.01-.75l-3.07-5.11q-.45-.75.42-.68l4.42.38a1 .98-72.2 00.95-.5l1.1-1.95a2.06 2.05 13.9 00-1.85-3.06l-8.03.23a.81.79-13.1 01-.74-.45l-4.11-8.35a.39.39 0 01.36-.55l8.91.21a.91.9-11 01.82.55q1.71 3.99 4.87 7.03a.81.78 60.3 00.72.21q2.02-.45 2.97-2.37a.85.84-47.4 00-.03-.8l-2.63-4.36q-.29-.49.28-.48l6.12.05a.86.85-74.8 00.76-.44q1.39-2.53-.13-4.94a1 1 0 00-.97-.46q-3.16.38-6.32-.39a.28.27-64 01-.15-.44l3-3.7a.82.8 51.3 00.09-.89q-1.28-2.45-3.88-2.45a.91.9-76.7 00-.83.52c-1.22 2.56-3.18 4.53-4.22 6.98a.75.74 9.6 01-.64.45l-7.75.54a1.03 1.03 0 01-1.01-1.45l2.77-6.15a1.48 1.48 0 01.86-.79q3.98-1.38 8.09-.34a1.2 1.18-53.7 00.94-.15c1.76-1.13 2.49-3.73.79-5.23q-1.49-1.32-4.79-.48a.96.96 0 01-1.04-1.45l2.87-4.4a.95.94-37.5 00.11-.81c-.62-1.97-3-2.64-4.8-1.88-1.56.66-2.38 3.83-2.98 5.3a.66.65 52.4 01-1.26-.17q-.52-3.86-3.67-4.57c-6.95-1.57-.48 8.21.5 9.55a2.3 2.29-47.4 01.1 2.56l-4.42 7.21a.21.21 0 01-.36 0l-4.51-7.73a1.17 1.16 39 01-.1-.92c.75-2.35 6.21-10.05 1.56-10.9-2.53-.47-3.57 3.23-4.7 4.96a.38.38 0 01-.61.04c-2.06-2.41-3.02-7.69-7.42-4.39a1.53 1.52-34.4 00-.38 2.02l3.21 5.21a.19.19 0 01-.14.29zm-85.81 38.65l7.91.21a1.56 1.53-59.6 00.89-.24c3.26-2.07 2.14-7.38-1.91-6.98q-3.28.33-6.52-.26a.39.38 17.7 01-.28-.54c1.12-2.47 3.28-5.86 2.26-8.41q-1.05-2.6-4.69-2.08a1.14 1.14 0 00-.86.61l-5.44 10.52a.76.76 0 01-.65.4l-12.95.09a.61.6 13.6 01-.55-.89l5.65-10.7a2.24 2.23-65.2 012.79-1.03c2.03.79 4.45.05 6.65.22 3.27.26 6.18-.59 5.8-4.61-.43-4.57-7.13-3.53-10.21-2.73q-.5.13-.13-.23 3.81-3.66 4.69-8.96a1.5 1.46 35.6 00-.17-.95q-1.71-3.05-5.23-2.52a1.22 1.2-77.7 00-.85.56l-4.59 7.47a.38.37 48 01-.65-.04l-2.72-5.69a1.13 1.12 79.5 00-.93-.64l-3.81-.34a.81.81 0 00-.81.47l-1.44 3.19a1.09 1.08-48 00.05 1.01l5.87 10.13a.79.78-38.4 01-.11.94l-1.94 1.99q-.38.4-.55.93-1.23 4.07-3.85 7.4a.45.45 0 01-.71-.01q-3.78-5.08-6.39-10.85a1.08 1.08 0 01.04-.98l5.23-9.48a1.75 1.71-34.6 00.19-.97q-.28-2.43-2.08-3.3c-4.47-2.17-6.77 3.84-8.17 6.73q-.31.62-.61.01l-3.85-7.71a1.05 1.04-11.5 00-.89-.58l-2.73-.15a1.15 1.13-71.6 00-1 .51l-2.05 3.16a.94.94 0 00-.03.96l4.22 7.45a.49.49 0 01-.44.73c-2.45-.07-7.81-.85-8.7 2.31-1.84 6.59 9.89 5.3 13.39 5.19a.92.91-15.9 01.8.44l6.32 10.78q.43.74-.43.75l-13.01.04a.97.96-13.6 01-.86-.52l-4.94-9.68a1.22 1.18 84.6 00-.7-.6c-1.85-.56-3.82-.59-5.09 1.07q-.75.97-1.01 2.24a1.43 1.42 36.6 00.14.95l3.12 6a.49.49 0 01-.44.72l-7.96-.03a1.16 1.15 22 00-.83.35c-2.65 2.75-1.86 6.84 2.48 6.7q2.97-.09 6.1.18a.5.49 14.9 01.41.7l-2.89 6.26a1.29 1.28 47.4 00-.04 1.02q1.69 4.5 6.51 2.81c.55-.19 4.77-9.29 5.4-10.64a.83.83 0 01.76-.49l13.16-.1a.65.64 17 01.54 1.01q-3.65 5.39-6.17 11.39a.8.78 11.1 01-.73.48q-5.07 0-10.16-.11c-2.38-.05-4.33 2.01-3.74 4.44 1.05 4.29 5.83 2.49 9.32 2.97a.29.28-70.4 01.2.43l-4.02 6.74a1.56 1.53-34.3 00-.21 1.05c.66 4.07 5.41 6.09 7.59 1.4q1.16-2.5 2.08-4.32a1.35 1.35 0 012.4-.04l2.78 5.06a.88.87 75.6 00.77.46l3.89.02a.72.71 9 00.68-.49l.89-2.76a1.26 1.24 42.9 00-.04-.89q-2.22-5-5.48-9.54a.89.89 0 01-.06-.96l6.29-11.49a.8.8 0 011.44.09q2.31 5.91 6.05 10.98a.76.76 0 01-.02.91q-3.63 4.65-5.81 10.17a.98.95 41.2 00.07.84l1.75 2.86a1.03 1.02-14 00.82.49c4.57.28 5.45-4.24 7.55-7.3q.41-.6.59.11.43 1.79 1.83 2.99a1.53 1.53 0 01.49.82q.47 2.05 1.75 3.67a.85.84-29.5 00.96.26q1.28-.49 2.27.43a.7.69 45.3 00.94.01c4.25-3.78.64-8.44-1.98-11.8q-.3-.39.19-.45c2.56-.27 8.19.88 9.23-2.24q.96-2.87-1.48-4.93a1.45 1.44-25.1 00-.92-.33h-11.19a1.01 1 75.3 01-.88-.52l-6.56-11.58a.22.22 0 01.19-.33l13.55.07a.78.77 77.3 01.7.45c2.08 4.43 4.89 11.69 9.15 10.36 1.44-.46 2.02-1.94 2.41-3.26a1.46 1.44 40.5 00-.09-1.05l-3.22-6.44a.28.28 0 01.26-.4zm68.41 21.01c2.65-1.51 3.87-7-.17-6.64a1.99 1.98-77 00-1.52.95l-3.35 5.52a.97.96-75.5 01-.79.47l-6.86.33a.51.5-79.9 01-.48-.7l2.47-5.85a1.06 1.04 3.8 01.72-.62q3.37-.83 6.8-.18a.99.99 0 00.99-.39l1.65-2.25a1.29 1.29 0 00-.98-2.06l-5.11-.22a.5.5 0 01-.4-.76l2.56-4.13a.91.89-42.1 00.05-.86q-.87-1.82-2.7-1.98a.75.74-73.9 00-.74.42l-2.3 4.78q-.44.92-.97.04l-2.43-4.01a1.31 1.3-38.8 00-2.06-.22l-1.38 1.45a.97.96 52.4 00-.14 1.13l2.93 5.24a1.57 1.55-54.3 01.17 1.09q-.83 4.09-3.83 6.8a.63.63 0 01-.98-.18l-3.14-6.03a.92.92 0 01-.02-.83l3.09-6.57a.88.87 33.7 00-.21-1.03l-1.65-1.48a.74.73-56.1 00-1.15.23l-2.1 4.29a.8.8 0 01-1.44-.01l-2.02-4.17a.83.83 0 00-.73-.47q-2.01-.06-3.36 1.33a.65.65 0 00-.09.77l2.77 4.96a.49.49 0 01-.33.72c-1.54.28-3-.59-4.26-.03-1.36.6-1.74 2.42-.79 3.53 1.43 1.67 6.26.83 7.79.56a.68.67 77 01.76.48q.9 3.22 3.41 5.34a1 1 0 01-.63 1.76l-6.91.1a.83.82 72.9 01-.71-.38l-3.67-5.89a1.59 1.59 0 00-1.81-.69c-3.47 1.01-1.64 4.25.02 6.1q.53.6-.27.63l-5.23.21a.69.69 0 00-.66.73l.23 3.28a.78.78 0 00.81.73l4.62-.17a.35.34-77.7 01.32.5c-.96 1.9-3.22 4.63-.51 6.4 2.63 1.71 5.44-5.1 5.98-6.21a.91.88 11.3 01.78-.5l7.27-.26a.56.56 0 01.52.81l-3.11 6.25a1.26 1.25-70.3 01-1.39.66q-3.81-.86-7.31.77a1.04 1.03 82.4 00-.58.77c-.53 3.41 2.22 3.57 4.61 2.85a.39.39 0 01.5.41q-.27 2.75-2 4.99a.64.64 0 00.02.81q1.4 1.7 3.59 1.35a.85.85 0 00.64-.51l1.67-3.98q.39-.94.97-.11l2.58 3.69a1.35 1.35 0 002.18.06q.73-.93.94-1.92c.69-3.18-4.68-5.82-2.52-9.08q1.62-2.43 3.36-4.9a.42.41-42.2 01.7.03l3.38 6.1a1.01.99-48.4 01.04.87l-3 6.97a1.48 1.47-78.5 001.36 2.06l1.47-.01a.82.82 0 00.69-.38l2.31-3.68a.55.55 0 01.94.03l2.05 3.7a1.51 1.51 0 00.83.7q1.77.59 2.84-.91a1.28 1.25-34.8 00.2-1.04q-.65-2.52-2.74-4.14-.97-.76.25-.89l4.91-.55a.73.73 0 00.64-.61l.41-2.41a.77.76-75.1 00-.48-.84q-3.37-1.27-6.87-.41a1.08 1.08 0 01-1.05-.32q-2.61-2.88-3.87-6.57a.53.52-8.9 01.51-.69l6.98.13a.96.95 75.5 01.81.48l3.33 5.69a.83.83 0 00.88.39l2.32-.51a.79.78 82.9 00.61-.79q-.08-3.17-2.66-4.76-.56-.35.09-.46c2.23-.39 7.25 1.04 6.62-2.94-.5-3.15-4.02-1.72-6.42-1.97q-.48-.06-.06-.29zm62.68 16.98c-8.4 8.42-12.09 16.69-13.51 28.27-1.73 14.04 4.32 22.79 15.85 29.39q33.03 18.89 66.07 37.91a.46.45-57.3 01.14.66c-18.89 27.15-24.44 69.38 2.12 94.13a1.33 1.29 19 01.42.83q1.05 9.5 5.94 17.67a1.12 1.11 39.2 01.1.92q-4.02 11.66-7.6 23.48c-2.59 8.52-9.91 16.89-12.1 26.99-2.29 10.55-3.75 18.79-6.79 25.41-2.28 4.99-7.23 8.16-12.11 12.34-4.53 3.87-12.34 14.83-10.93 21.48q.8 3.76 4.56 6.46 20.08 14.37 40.68 20.7a1.61 1.61 0 00.96 0c9.88-2.99 19.23-15.6 24.69-24.17 6.32-9.92 13.18-19.65 18-30.23 8.23-18.1 12.14-33.14 17.82-50.07a1.44 1.41 83.3 01.58-.75q10.86-7.16 22.61-12.69c7.32-3.45 11.23-6.66 17.29-11.69 2.3-1.91 6.08-3.42 8.72-5.72 22.73-19.73 36.93-53.18 28.96-83.29-2.11-7.96-3.57-17.04-6.84-23.45-5.99-11.76-16.25-19.6-27.87-26.22q-33.52-19.11-140.54-80.81c-13.32-7.68-25.14-9.66-37.22 2.45zm-38.64 9.22q-1.04 3.03 1.27 5.54a.9.88 64.1 00.81.29l2.59-.43q.57-.09.19.34c-.65.73-3.68 3-1.76 4.04a.66.65 33.7 00.82-.16l1.68-2.13q.48-.6.74.12c.27.75.68 2.81 2.04 1.84a.83.83 0 00.33-.86q-.19-.9-.85-1.59a1.56 1.55 22.4 01-.43-1.02q-.11-2.87 1.85-4.94a.47.47 0 01.74.09q1.3 2.24 1.69 4.8a1 .96 59.4 01-.17.72l-1.32 1.92a.49.49 0 00.3.75c3.02.63 1.95-1.8 3.02-2.16a.26.26 0 01.35.23q.1 1.62 1.28 2.7a.56.56 0 00.88-.16q.97-1.9-.77-3.23-.65-.49.16-.66l2.26-.45a.74.74 0 00.6-.75l-.03-.79a.56.55-8.8 00-.7-.51q-4.07 1.14-5.24-3a.37.36-12.3 01.3-.46l3.2-.43a.63.63 0 01.67.43q.6 1.9 2.1 3.16a.54.54 0 00.85-.25q.55-1.72-.93-2.91-.51-.41.14-.44l3.12-.17a.74.72-.5 00.69-.69c.1-1.76-2.71-1.09-3.84-1.3q-.59-.11-.15-.51 1.85-1.73-.12-3.34a1.1 1.1 0 01-.4-.85q.01-2.01-1.91-2.2a.24.24 0 01-.21-.31l.72-2.35q.26-.86-.61-.65-1.41.34-1.82 1.81a.71.71 0 01-1.3.17c-.28-.48-1.9-2.53-2.53-1.37a.83.82 39.8 00.09.91q3.12 3.77-.67 7.03a.58.58 0 01-.87-.14l-1.91-3.11a.84.83-47.2 01-.03-.84l1.54-2.97q.49-.93-.54-.71-1.35.28-1.86 1.6-.38.95-.61-.05-.47-1.98-2.39-2.05a.48.48 0 00-.44.71l1.17 2.22a.53.53 0 01-.42.77l-1.9.14a.73.73 0 00-.66.61l-.09.58a.52.52 0 00.55.6l2.91-.21a1.05 1.04 70.5 01.93.45l2.71 3.98a.5.5 0 01-.47.77l-3.96-.48a1.34 1.3-14.8 01-.87-.49q-.94-1.21-1.05-2.88a.58.58 0 00-.75-.51l-1.19.4a.64.63-19.6 00-.4.83l.84 2.19a.45.44 79.2 01-.41.61h-2.11a.76.75-79.1 00-.7.48c-.51 1.34 2.08 1.89 2.94 1.41q.51-.29.32.27zm-138.76 17.59q1.1-3.27-1.04-6.16a.77.77 0 00-1.29.07l-.71 1.2a.77.76-54.3 00.15.95q1.24 1.11 1.87 2.59a.37.36-8.1 01-.38.5c-1.17-.13-4.18-.63-4.29 1.2a.63.61 9.5 00.47.64q2.52.66 4.97.01 3.76 2.02 2.74 6.01l-5.31-.05a.89.89 0 01-.79-.48l-1.96-3.68a1.2.9 27.9 00-2.1.33l1.53 3.72a.21.2-14 01-.17.28c-1.44.13-4.75-.93-4.21 2a.74.74 0 00.86.59l2.82-.53a.33.33 0 01.39.33c-.04 1.38-1.53 3.96-.1 4.78a.79.78 37.9 00.93-.11q2.55-2.44 1.54-5.86a.29.29 0 01.5-.26q2.08 2.62 5.35.71a1.08 1.08 0 011.53 1.38l-2.23 4.83a.89.88-77.3 01-.8.51h-5.02a.58.58 0 00-.56.73l.31 1.08a.83.82-4.3 00.69.59q1.82.22 2.97-.78a.23.22 46 01.3.01l.23.22a.26.25 48.3 01-.02.39q-2.68 2.09-1.89 5.21a.61.61 0 00.84.41q3.02-1.36 1.66-4.23a.91.91 0 01.07-.88l.88-1.35q.38-.57.51.11l.9 4.6a.8.8 0 00.62.63l.98.22a1.01 1.01 0 001.16-1.36l-1.92-4.74a1.23 1.21 47.2 01.03-.98l2.47-5.1 3.56 5.04a.92.91-50.4 01.08.89c-.56 1.27-3.66 5.52-1.61 6.32a1.08 1.05 40.4 00.9-.06q2.51-1.4 2.63-4.14.08-1.82.4.15c.17 1.04 1.89 6.61 3.81 3.9a.85.85 0 00.04-.95l-1.74-2.9a.5.48-37.9 01.09-.61l.23-.22a.68.67 39.8 01.82-.07c1.16.76 3.31-.08 2.78-1.49a.73.73 0 00-.62-.47l-4.61-.41a1.13 1.1 77.7 01-.88-.58l-2.78-5.12q-.3-.54.32-.51l5.42.28a.96.92 72.8 01.72.4c.99 1.38 1.59 4.79 3.69 4.2a.83.83 0 00.51-1.19l-1.56-3a.49.49 0 01.4-.71c1.51-.12 5.01 1.22 4.64-1.73a.6.59 85.7 00-.6-.52l-4.08.1a.37.37 0 01-.34-.54l1.67-3.13a.63.62 32.5 00-.18-.78c-.97-.72-1.7-.01-2.08.97q-2.13 5.59-8.08 3.46a.83.82 29.1 01-.37-1.28l3.06-3.87a1.08 1.04 16.7 01.77-.4l4.08-.24a.64.64 0 00.59-.75l-.23-1.4a.47.46 79.3 00-.55-.38l-5.43 1.09a.2.2 0 01-.23-.25l.07-.28a.47.46 7.2 01.45-.34l1.16-.01a.88.86-75.3 00.76-.46l1.9-3.61a.97.96-69.3 00-.62-1.39l-1.18-.28a.54.54 0 00-.64.66q.52 2.04-.98 3.36a.64.63-37.1 01-.96-.13l-1.49-2.35a.8.79-22.7 00-.84-.34l-1.56.36q-.95.21-.28.93 4.79 5.04-.49 9.67a.47.47 0 01-.69-.07c-2.32-3.11-4.01-6.61-.18-9.6a.56.56 0 00-.21-.99c-3.28-.77-3.49 2.91-4.14 5.13a.49.49 0 01-.47.36h-.33zm91.09 28.46a.77.77 0 01-1.35.02c-2.4-4.13-6.29-7.41-2.99-12.31q1.23-1.83 2.29-3.78a1.08 1.06-41.6 00.06-.88l-.93-2.5a1.01 1-3.7 00-.72-.62c-3.31-.78-4.54 3.07-5.92 5.22q-.27.42-.46-.04c-4.6-10.71-12.71-4.26-4.74 2.87q1.72 1.53-.12.59-.19-.1-.35-.24a1 .98-29.2 00-.84-.23l-4.99.94a.81.81 0 00-.63.61l-.77 3.34a.69.69 0 00.55.83q3.48.61 7 .34c5.13-.4 6.19 5.63 8.9 8.99a.57.56-19 01-.45.92l-10.66-.17a.91.9 76.5 01-.78-.48c-1.4-2.7-3.01-8.7-6.72-8.35a1.17 1.15-76.1 00-.88.54l-1.31 2.04a.94.93-42.7 00-.04.92l2.63 5.15a.39.39 0 01-.35.57l-6.21-.05a.64.64 0 00-.59.4l-.94 2.43a1.29 1.28 44.7 00.01.94l.77 1.84a.76.75-10.9 00.7.47l5.98-.04a.45.44-76 01.39.66l-2.19 4.08a2.28 2.28 0 001.17 3.2c6.97 2.77 6.24-11.42 11.06-8.14a1.37 1.35 60.3 00.86.24l7.19-.34a.65.65 0 01.52 1.08q-3.22 3.65-4.75 8.26a.66.64-80.5 01-.61.45l-9.47-.03a1.8 1.79-5.8 00-1.76 2.15l.64 3.08a.78.78 0 00.82.62l5.07-.34a.39.39 0 01.39.53q-1.03 2.67-2.13 5.28c-1.56 3.7 2.81 4.57 5.14 2.97a1.4 1.39-11.1 00.57-.84q.51-2.33 2.14-4.07a.47.47 0 01.75.1l2.43 4.41a1.09 1.08-9.6 00.75.53q3.44.59 4.43-2.53a1.39 1.35 40.3 00-.1-1.05l-4.44-8.23a1.06 1.05-40.1 01.11-1.16q3.17-3.96 4.81-8.81a.36.35 43.8 01.67-.01q1.9 4.89 4.89 9.2a.9.87-51.2 01.08.86c-1.34 3-5.22 7.86-3.19 10.93a1.3 1.3 0 00.77.54c3.25.83 5.14-3.3 6.29-5.63a.29.29 0 01.54.07c.63 2.97 3.47 10.49 7.69 5a1.07 1.07 0 00.17-1.01l-1.62-4.71a1.07 1.06-88.8 00-.61-.64q-.76-.3-1.21-.85-.52-.64.3-.67l5.11-.23a.96.95 13 00.81-.5l1.65-2.89a.71.7-55.8 00-.16-.89l-1.46-1.23a1.03 1.02-25 00-.7-.25l-8.33.25a1.04 1.03-14.6 01-.95-.55l-2.63-4.9q-.22-.41-.59-.68-1.92-1.42-2.04-3.97a.54.54 0 01.6-.56l7.02.71q.48.05.94-.1l1.26-.39a.85.84-28.6 01.9.26q1.65 1.96 2.6 4.33c.7 1.75 1.86 2.66 2.7 4.33a.65.65 0 00.73.34l.34-.08a.4.4 0 00.28-.55l-.76-1.84a.15.14-21.1 01.09-.2l.3-.09a.32.31-20.2 01.4.18l.73 1.72a.62.62 0 00.72.36c4.08-1.02.63-5.92-.66-7.57a.88.88 0 01.72-1.43l5.22.14a.88.88 0 00.83-.52l1.29-2.78a.92.91 40.4 00-.08-.92c-1.73-2.48-5.02-1.22-7.6-1.01a.42.42 0 01-.45-.53q.64-2.3 2.24-4.12a1.5 1.5 0 00.37-.93q.07-2.01-1.3-3.42a1.11 1.09 64.2 00-.91-.33c-4.54.46-4.67 5.76-7.69 8.81a1.43 1.4-69.9 01-.86.41c-3.44.37-6.51-.38-10.04.42a.4.4 0 01-.42-.61l5.28-7.83a1.01.99-42.3 00.06-1l-.23-.45q-.29-.56.35-.53 2.04.13 4.08.34c1.82.19 3.68-.47 5.68.14a.6.59-72.6 00.74-.39l1.03-3.28a1.02 1.01 30.8 00-.27-1.04q-2.77-2.65-6.58-1.54a.41.4 6.8 01-.47-.59l2.91-4.93a1.24 1.22-41.1 00.08-1.05l-.87-2.16a1.06 1.05-6 00-.8-.64c-4.52-.76-4.9 3.41-6.48 6.31a.7.7 0 01-1.21.04c-1.32-2.12-2.09-6.29-5.59-5.09q-2.3.79-1.36 3.03 1.31 3.13 2.64 6.24.36.84 1.64 1.34a.42.42 0 01.22.59l-4.78 8.84zm-124.38 36.71l-3.5-.52a.72.72 0 00-.82.6l-.23 1.49a.74.74 0 00.87.84l4.15-.76a.91.89-20.7 01.93.41l2.7 4.35a.66.66 0 01-.51 1.01l-5.28.38a.76.76 0 01-.79-.62q-.6-3.48-3.93-4.12a.76.76 0 00-.87.96q.9 2.94 3.8 3.89a.45.45 0 01.21.71l-3.23 3.99a1.18 1.18 0 00-.27.9l.12.92a.85.84 61.2 001.49.44l3.91-4.81a.87.86-60.8 01.94-.27q2.06.68 3.96-.15.54-.23.44.35c-.83 4.59-2.34 7.27-7.66 6.2a1.08 1.07 86.3 00-1.22 1.4c.56 1.67 2.56 1.29 3.73.46a.4.39-26.4 01.61.2c.06.17-1.75 3.79-1.85 4.07a.72.71-61 00.23.81c2.16 1.69 2.93-1.28 4.04-2.22a.86.85 66.7 011.4.56q.19 1.7 1.67 2.14a.58.57 6.5 00.74-.58q-.17-2.9-2.22-4.84a.71.71 0 01-.16-.81l2.49-5.64q.3-.68.71-.06l3.38 5.22a.77.77 0 01-.03.88c-.74.96-3.43 4.47-1.58 5.44a.69.68 30.4 00.9-.23l1.7-2.64a.76.76 0 011.35.13l1.29 3.14a.59.59 0 001.01.15q1.97-2.45-.52-4.15a.72.72 0 01-.27-.85c.45-1.23 2.32-.22 3.27-.22a.69.69 0 00.69-.66l.05-1.12a.66.65 1.7 00-.65-.68l-4.1-.04a.97.95 71 01-.76-.38l-4.33-5.68a.37.36-14.1 01.35-.58l6.45 1a1.33 1.31-14.3 01.84.49c1.29 1.56 1.8 3.44 3.89 4.07a.65.65 0 00.77-.92l-1.98-3.86a.36.36 0 01.34-.53l4.71.18a.88.88 0 00.76-1.38c-1.3-1.88-3.44-.24-5.2-1.05a.45.45 0 01-.23-.57l1.08-2.68a.79.78 30.3 00-.25-.92c-1.05-.82-1.75-.1-2.14.95q-1.93 5.22-7.93 3.07a.97.97 0 01-.4-1.54l3.37-3.84a.9.88-64.1 01.81-.29l3.27.58a.78.77-79.6 00.9-.63l.44-2.36q.23-1.27-.78-.47-1.72 1.37-4.02 1.04-.37-.06-.13-.34 1.75-2.05 2.37-4.73a.67.66-70.7 00-.36-.75c-1.72-.79-2.17 2.84-3.66 3.89a.52.51-32.9 01-.74-.15q-.78-1.29-.53-2.88.58-3.6-1.67-.73-2.14 2.74.34 4.83a.89.88 41 001.23-.08l.25-.28q.55-.6.51.21-.04 1-.58 1.67-2.61 3.23-3.21 7.15-.18 1.16-.34-.01-.46-3.39-2.77-5.97a1.07 1.07 0 01-.25-.95c.33-1.42 2.71-4.88 1.94-5.9a.66.66 0 00-1.07.01l-1.75 2.52a.79.78 50.3 01-1.36-.13l-1.11-2.44a.68.68 0 00-.83-.37l-1.04.35a.74.74 0 00-.4 1.09l2.38 3.83q.32.5-.27.41zm-4.26 8.81a3.12 1.33-.2 00-3.125-1.32 3.12 1.33-.2 00-3.115 1.34 3.12 1.33-.2 003.125 1.32 3.12 1.33-.2 003.115-1.34zm457.104 68.691a.77.5 132.1 00.887-.236.77.5 132.1 00.145-.906.77.5 132.1 00-.887.236.77.5 132.1 00-.145.906zM182.364 545.34a.97.65 24.3 00-.617-.991.97.65 24.3 00-1.151.193.97.65 24.3 00.617.991.97.65 24.3 001.151-.193zm10.316 3.411l1 .32q.74.24.56-.51l-.22-.85a.56.56 0 00-.89-.3l-.61.51q-.7.56.16.83z"/><path fill="#f9e3ad" d="M64.31 36.9q17.1-.64 34.59-.14a1.09 1.09 0 01.75 1.85q-29.24 29.8-58.83 59.95-2.03 2.06-4.03 2.62a.36.35 84.5 01-.45-.38q.14-2 .11-3.8-.31-19.25-.61-38.5-.28-18.88 18.21-21.43c3.08-.42 7.22-.06 10.26-.17z"/><path fill="#929395" d="M219.24 99.53l2.1-3.57a2.03 2.02-63 012.54-.83c3.41 1.45-.31 4.45-1.12 6.25a.52.52 0 00.79.63q2.62-1.9 4.5.61a1.7 1.7 0 01-.9 2.66q-3.22.91-6.26-.19a.66.66 0 00-.8.3l-3.24 5.88a.54.54 0 00.52.8l6.94-.52a1.15 1.15 0 00.9-.57l2.25-4a1.19 1.19 0 011.47-.52c3.77 1.51.82 3.11.13 5.13q-.24.69.46.48 2.22-.65 4.4.01a.97.97 0 01.66.7c.84 3.6-4.01 2.56-5.85 2.89q-.6.11-.19.56l2.13 2.38a.84.83-47.9 01.05 1.07l-1.11 1.47a1.23 1.23 0 01-2.12-.27q-1.19-2.83-3.32-4.93a1.45 1.44 67.5 00-.98-.41l-5.96-.14a.46.45 76.6 00-.41.67l2.94 5.56a1.02 1.01 77.6 00.85.55l6.73.43a1 .99 76.3 01.8.49c1.63 2.87-2.84 3.56-4.79 2.14a.36.35 24 00-.56.21c-.15.8 2.25 3.64 2.26 5.71a1.05 1.04 72.8 01-.45.86q-1.31.9-2.73-.13a1.72 1.67 10.6 01-.62-.88q-.43-1.45-1.67-2.22a.56.56 0 00-.73.12l-2.56 3.19a.65.64 41.3 01-.95.06c-3.44-3.29 4.42-5.4.54-10.8-.78-1.09-1.05-2.18-1.44-3.25q-.51-1.4-1.24-.09l-3.32 6a.75.75 0 00.04.81c1.53 2.1 3.83 4.51 1.83 7.05a1.01 1.01 0 01-1.69-.15l-1.95-3.65q-.27-.5-.5.02l-1.62 3.66a1 .99-79.3 01-.86.59l-1.63.09a1.39 1.39 0 01-1.29-2.07l2.04-3.61a.28.28 0 00-.19-.41c-2.41-.52-4.2 1.37-4.75-2.38a1.53 1.52 86.7 011.55-1.75l5.37.16a.82.81 14 00.74-.44l3-5.77a.39.39 0 00-.34-.57l-5.55-.09a.96.95 15.5 00-.84.47c-1.72 2.93-2.03 4.99-5.67 5.98a.68.68 0 01-.82-.42l-.32-.87a1.44 1.43-43.5 01.03-1.07l1.58-3.56q.41-.92-.54-.57-2.43.88-4.83-.2a.78.78 0 01-.38-1.07l.93-1.85a.77.77 0 01.87-.39l3.05.79a.49.49 0 00.58-.65l-1.6-4.39a.63.63 0 01.43-.83l2.44-.69a.92.92 0 011.08.49l2.51 5.29a.58.58 0 00.57.33l6.13-.39a.39.39 0 00.35-.48c-.53-2.09-3.27-7.43-6.01-5.88a1.6 1.54-55.2 01-.95.19l-2.72-.3a.79.79 0 01-.68-.97l.52-2.22a1 1 0 01.97-.77l3.09.03a.41.41 0 00.37-.59q-.66-1.33-1.99-2.09a.76.74 25.4 01-.33-.9l.78-2.18a.74.73-73.6 01.86-.47c2.98.67 2.95 3.89 4.67 4.17a.46.46 0 00.54-.46l-.02-1.85a.82.82 0 01.63-.8l1.55-.36a1.47 1.46-81.9 011.61 2.15l-2.91 5.17a.83.82-45.9 00.01.85l3.25 5.29a.53.52-43.5 00.88.02l3.42-5.09a.96.95 50.2 00.08-.93c-1-2.14-5.05-6.21-1-7.89a.73.72 66.7 01.94.38l1.57 3.57q.21.47.48.03zm1.3 25.35q.28-.77-.43-1.36-.51-.43-.6.23-.17 1.32.39 2.55.36.78.44-.08l.07-.76q.03-.3.13-.58zM90.32 125.75h4.33a1.06 1.06 0 001.02-1.37Q94 118.7 88.1 120.4q-.91.26-.66-.66l.42-1.53a.77.76 10.1 01.8-.55l3.09.29q.88.08.41-.67c-.65-1.04-3.31-4.31-.9-4.95a.77.76 69.2 01.88.4l1.3 2.61a.31.31 0 00.29.17l.28-.01a.69.68 9.1 00.61-.43c.39-1.01 1.83-3.47 3.21-1.99a.97.97 0 01.2.96l-1.77 5.06a.91.88 39.3 00.09.77l2.29 3.66a.48.47 44.8 00.81 0l2.88-4.7a1.28 1.28 0 01.9-.6l6.06-1a.77.76-15.8 01.85.47l.6 1.53a.53.53 0 01-.48.73l-5.66.13a1.05 1.04 10.5 00-.93.63l-1.71 4.06a.59.59 0 00.61.82l5.28-.6a1.14 1.13 9.4 00.9-.64l1.52-3.21a.77.77 0 01.96-.39l1.59.58a.59.59 0 01.27.91q-1.29 1.74-1 3.82a.43.43 0 00.62.32l1.84-.95a.62.62 0 01.89.42l.33 1.48a.49.48-2.8 01-.54.59q-1.66-.22-3.04.59a.57.56 51.5 00-.1.9q1.08 1.05.99 2.34a.94.94 0 01-.55.79c-4.68 2.15-1.53-6.3-9.53-4.27a1.22 1.22 0 00-.79 1.74l1.96 3.81a.88.86 74.8 00.84.49l4.69-.33a1.02 1.02 0 01.97 1.51q-.89 1.63-3.1.98-1.66-.48-.98 1.11c.36.85 2.2 3.35.43 4.12a.89.88-27.6 01-1.1-.34l-2.03-3.19a.39.38 42 00-.67.03l-1.31 2.65a.72.72 0 01-.8.39l-.72-.16a.79.79 0 01-.5-1.19l2.41-3.91a.93.92 44.7 00-.01-.98l-3.39-5.32q-.68-1.05-.64.2.09 2.65-1.8 4.47a1.01 1-27.1 00-.29.89q.46 2.53 2.28 4.22a.63.62 45 01.01.91l-1.28 1.21a.65.65 0 01-1.03-.19l-2.05-4.15q-.17-.36-.29.02c-.4 1.36-1.01 5.13-2.9 4.77a.89.88 15.7 01-.67-1.19l1.36-3.48a.56.55 6.5 00-.6-.75l-2.47.34a.62.62 0 01-.71-.62l.02-1.58a.58.58 0 01.67-.56q6.18.95 7.26-5.16a.57.57 0 00-.4-.64c-1.79-.52-4.17.94-5.12-.25a.31.31 0 00-.53.08l-1.7 4.28a.79.79 0 01-.88.48l-.81-.16a.61.6 16 01-.45-.8l1.12-3.06a.68.68 0 00-1.03-.79c-2.23 1.63-5.22-.4-3.19-2.16a1.14 1.1 27.2 01.87-.26l2.36.29a.77.77 0 00.79-1.08l-1.34-2.93a.63.63 0 01.16-.74c1.75-1.53 3.69 2.62 4.08 3.98a.66.64 81.5 00.62.47z"/><path fill="#fdfcdf" d="M220.41 125.46l-.07.76q-.08.86-.44.08-.56-1.23-.39-2.55.09-.66.6-.23.71.59.43 1.36-.1.28-.13.58z"/><path fill="#929395" d="M276.8 142.01l-3.21-5.21a1.53 1.52-34.4 01.38-2.02c4.4-3.3 5.36 1.98 7.42 4.39a.38.38 0 00.61-.04c1.13-1.73 2.17-5.43 4.7-4.96 4.65.85-.81 8.55-1.56 10.9a1.17 1.16 39 00.1.92l4.51 7.73a.21.21 0 00.36 0l4.42-7.21a2.3 2.29-47.4 00-.1-2.56c-.98-1.34-7.45-11.12-.5-9.55q3.15.71 3.67 4.57a.66.65 52.4 001.26.17c.6-1.47 1.42-4.64 2.98-5.3 1.8-.76 4.18-.09 4.8 1.88a.95.94-37.5 01-.11.81l-2.87 4.4a.96.96 0 001.04 1.45q3.3-.84 4.79.48c1.7 1.5.97 4.1-.79 5.23a1.2 1.18-53.7 01-.94.15q-4.11-1.04-8.09.34a1.48 1.48 0 00-.86.79l-2.77 6.15a1.03 1.03 0 001.01 1.45l7.75-.54a.75.74 9.6 00.64-.45c1.04-2.45 3-4.42 4.22-6.98a.91.9-76.7 01.83-.52q2.6 0 3.88 2.45a.82.8 51.3 01-.09.89l-3 3.7a.28.27-64 00.15.44q3.16.77 6.32.39a1 1 0 01.97.46q1.52 2.41.13 4.94a.86.85-74.8 01-.76.44l-6.12-.05q-.57-.01-.28.48l2.63 4.36a.85.84-47.4 01.03.8q-.95 1.92-2.97 2.37a.81.78 60.3 01-.72-.21q-3.16-3.04-4.87-7.03a.91.9-11 00-.82-.55l-8.91-.21a.39.39 0 00-.36.55l4.11 8.35a.81.79-13.1 00.74.45l8.03-.23a2.06 2.05 13.9 011.85 3.06l-1.1 1.95a1 .98-72.2 01-.95.5l-4.42-.38q-.87-.07-.42.68l3.07 5.11a.73.73 0 01.01.75q-1.76 3.1-4.88 1.58a1.37 1.35.9 01-.62-.63l-1.65-3.47a.9.9 0 00-1.58-.08l-2.14 3.57a1.13 1.11 8.6 01-.69.5q-2.06.53-3.68-.87a2.06 2.06 0 01-.14-2.97q2.57-2.69 3.62-6.22a1.3 1.29-51.4 00-.11-1.01l-4.33-7.65q-.45-.79-.9.01l-4.42 7.87a2.35 2.33 37.3 00.39 2.8l3.23 3.26a1.16 1.13 26.6 01.33.95l-.35 2.92a.85.85 0 01-.76.75l-2.78.28a.71.69 76.7 01-.73-.46l-1.76-4.75a.52.52 0 00-.94-.08l-3.57 6.3a.92.91-72.6 01-.87.46c-5.83-.57-1.86-5.97-.92-8.56a.52.52 0 00-.44-.69q-1.19-.12-2.27.44a1.25 1.22 38.2 01-.93.1q-3.03-.85-3.1-3.86a.79.77-13.9 01.44-.71q3.94-1.91 8.24-.94a1.77 1.77 0 002.09-1.25c.51-1.85 2.34-2.71 3.03-4.41q.72-1.77.9-3.67a.45.45 0 00-.49-.48l-8.31.75a1.15 1.12-76.6 00-.87.55l-3.81 6.45a1.32 1.31 7.6 01-.78.59q-3.29.87-4.73-2.34a.85.82-41.6 01.06-.8l2.6-4.07q.49-.77-.42-.75l-5.29.12a1.19 1.16 64.6 01-.84-.31q-.74-.69-.99-1.61c-.96-3.51 3.74-3.68 6.27-3.24q1.8.3.88-1.28c-.96-1.64-3.28-4.72-1.4-6.84a1.35 1.34 16.4 01.83-.45c2.05-.27 3.3.15 4.33 2.09q1.84 3.43 4.2 6.5a.56.56 0 00.88 0q.68-.88 1.68-.34a1.03 1.02-45.3 00.96-.01c1.94-1.05 4.48 1.08 5.24-.28a1.11 1.09-44.5 00.02-1.06l-3.63-6.86a.96.96 0 00-.85-.51c-2.08-.01-14.21 1.45-9.22-4.99a1.08 1.07-74 01.73-.41l5.28-.57a.19.19 0 00.14-.29zM190.59 181.35l3.22 6.44a1.46 1.44 40.5 01.09 1.05c-.39 1.32-.97 2.8-2.41 3.26-4.26 1.33-7.07-5.93-9.15-10.36a.78.77 77.3 00-.7-.45l-13.55-.07a.22.22 0 00-.19.33l6.56 11.58a1.01 1 75.3 00.88.52h11.19a1.45 1.44-25.1 01.92.33q2.44 2.06 1.48 4.93c-1.04 3.12-6.67 1.97-9.23 2.24q-.49.06-.19.45c2.62 3.36 6.23 8.02 1.98 11.8a.7.69 45.3 01-.94-.01q-.99-.92-2.27-.43a.85.84-29.5 01-.96-.26q-1.28-1.62-1.75-3.67a1.53 1.53 0 00-.49-.82q-1.4-1.2-1.83-2.99-.18-.71-.59-.11c-2.1 3.06-2.98 7.58-7.55 7.3a1.03 1.02-14 01-.82-.49l-1.75-2.86a.98.95 41.2 01-.07-.84q2.18-5.52 5.81-10.17a.76.76 0 00.02-.91q-3.74-5.07-6.05-10.98a.8.8 0 00-1.44-.09l-6.29 11.49a.89.89 0 00.06.96q3.26 4.54 5.48 9.54a1.26 1.24 42.9 01.04.89l-.89 2.76a.72.71 9 01-.68.49l-3.89-.02a.88.87 75.6 01-.77-.46l-2.78-5.06a1.35 1.35 0 00-2.4.04q-.92 1.82-2.08 4.32c-2.18 4.69-6.93 2.67-7.59-1.4a1.56 1.53-34.3 01.21-1.05l4.02-6.74a.29.28-70.4 00-.2-.43c-3.49-.48-8.27 1.32-9.32-2.97-.59-2.43 1.36-4.49 3.74-4.44q5.09.11 10.16.11a.8.78 11.1 00.73-.48q2.52-6 6.17-11.39a.65.64 17 00-.54-1.01l-13.16.1a.83.83 0 00-.76.49c-.63 1.35-4.85 10.45-5.4 10.64q-4.82 1.69-6.51-2.81a1.29 1.28 47.4 01.04-1.02l2.89-6.26a.5.49 14.9 00-.41-.7q-3.13-.27-6.1-.18c-4.34.14-5.13-3.95-2.48-6.7a1.16 1.15 22 01.83-.35l7.96.03a.49.49 0 00.44-.72l-3.12-6a1.43 1.42 36.6 01-.14-.95q.26-1.27 1.01-2.24c1.27-1.66 3.24-1.63 5.09-1.07a1.22 1.18 84.6 01.7.6l4.94 9.68a.97.96-13.6 00.86.52l13.01-.04q.86-.01.43-.75l-6.32-10.78a.92.91-15.9 00-.8-.44c-3.5.11-15.23 1.4-13.39-5.19.89-3.16 6.25-2.38 8.7-2.31a.49.49 0 00.44-.73l-4.22-7.45a.94.94 0 01.03-.96l2.05-3.16a1.15 1.13-71.6 011-.51l2.73.15a1.05 1.04-11.5 01.89.58l3.85 7.71q.3.61.61-.01c1.4-2.89 3.7-8.9 8.17-6.73q1.8.87 2.08 3.3a1.75 1.71-34.6 01-.19.97l-5.23 9.48a1.08 1.08 0 00-.04.98q2.61 5.77 6.39 10.85a.45.45 0 00.71.01q2.62-3.33 3.85-7.4.17-.53.55-.93l1.94-1.99a.79.78-38.4 00.11-.94l-5.87-10.13a1.09 1.08-48 01-.05-1.01l1.44-3.19a.81.81 0 01.81-.47l3.81.34a1.13 1.12 79.5 01.93.64l2.72 5.69a.38.37 48 00.65.04l4.59-7.47a1.22 1.2-77.7 01.85-.56q3.52-.53 5.23 2.52a1.5 1.46 35.6 01.17.95q-.88 5.3-4.69 8.96-.37.36.13.23c3.08-.8 9.78-1.84 10.21 2.73.38 4.02-2.53 4.87-5.8 4.61-2.2-.17-4.62.57-6.65-.22a2.24 2.23-65.2 00-2.79 1.03l-5.65 10.7a.61.6 13.6 00.55.89l12.95-.09a.76.76 0 00.65-.4l5.44-10.52a1.14 1.14 0 01.86-.61q3.64-.52 4.69 2.08c1.02 2.55-1.14 5.94-2.26 8.41a.39.38 17.7 00.28.54q3.24.59 6.52.26c4.05-.4 5.17 4.91 1.91 6.98a1.56 1.53-59.6 01-.89.24l-7.91-.21a.28.28 0 00-.26.4zM259.32 202.25c2.4.25 5.92-1.18 6.42 1.97.63 3.98-4.39 2.55-6.62 2.94q-.65.11-.09.46 2.58 1.59 2.66 4.76a.79.78 82.9 01-.61.79l-2.32.51a.83.83 0 01-.88-.39l-3.33-5.69a.96.95 75.5 00-.81-.48l-6.98-.13a.53.52-8.9 00-.51.69q1.26 3.69 3.87 6.57a1.08 1.08 0 001.05.32q3.5-.86 6.87.41a.77.76-75.1 01.48.84l-.41 2.41a.73.73 0 01-.64.61l-4.91.55q-1.22.13-.25.89 2.09 1.62 2.74 4.14a1.28 1.25-34.8 01-.2 1.04q-1.07 1.5-2.84.91a1.51 1.51 0 01-.83-.7l-2.05-3.7a.55.55 0 00-.94-.03l-2.31 3.68a.82.82 0 01-.69.38l-1.47.01a1.48 1.47-78.5 01-1.36-2.06l3-6.97a1.01.99-48.4 00-.04-.87l-3.38-6.1a.42.41-42.2 00-.7-.03q-1.74 2.47-3.36 4.9c-2.16 3.26 3.21 5.9 2.52 9.08q-.21.99-.94 1.92a1.35 1.35 0 01-2.18-.06l-2.58-3.69q-.58-.83-.97.11l-1.67 3.98a.85.85 0 01-.64.51q-2.19.35-3.59-1.35a.64.64 0 01-.02-.81q1.73-2.24 2-4.99a.39.39 0 00-.5-.41c-2.39.72-5.14.56-4.61-2.85a1.04 1.03 82.4 01.58-.77q3.5-1.63 7.31-.77a1.26 1.25-70.3 001.39-.66l3.11-6.25a.56.56 0 00-.52-.81l-7.27.26a.91.88 11.3 00-.78.5c-.54 1.11-3.35 7.92-5.98 6.21-2.71-1.77-.45-4.5.51-6.4a.35.34-77.7 00-.32-.5l-4.62.17a.78.78 0 01-.81-.73l-.23-3.28a.69.69 0 01.66-.73l5.23-.21q.8-.03.27-.63c-1.66-1.85-3.49-5.09-.02-6.1a1.59 1.59 0 011.81.69l3.67 5.89a.83.82 72.9 00.71.38l6.91-.1a1 1 0 00.63-1.76q-2.51-2.12-3.41-5.34a.68.67 77 00-.76-.48c-1.53.27-6.36 1.11-7.79-.56-.95-1.11-.57-2.93.79-3.53 1.26-.56 2.72.31 4.26.03a.49.49 0 00.33-.72l-2.77-4.96a.65.65 0 01.09-.77q1.35-1.39 3.36-1.33a.83.83 0 01.73.47l2.02 4.17a.8.8 0 001.44.01l2.1-4.29a.74.73-56.1 011.15-.23l1.65 1.48a.88.87 33.7 01.21 1.03l-3.09 6.57a.92.92 0 00.02.83l3.14 6.03a.63.63 0 00.98.18q3-2.71 3.83-6.8a1.57 1.55-54.3 00-.17-1.09l-2.93-5.24a.97.96 52.4 01.14-1.13l1.38-1.45a1.31 1.3-38.8 012.06.22l2.43 4.01q.53.88.97-.04l2.3-4.78a.75.74-73.9 01.74-.42q1.83.16 2.7 1.98a.91.89-42.1 01-.05.86l-2.56 4.13a.5.5 0 00.4.76l5.11.22a1.29 1.29 0 01.98 2.06l-1.65 2.25a.99.99 0 01-.99.39q-3.43-.65-6.8.18a1.06 1.04 3.8 00-.72.62l-2.47 5.85a.51.5-79.9 00.48.7l6.86-.33a.97.96-75.5 00.79-.47l3.35-5.52a1.99 1.98-77 011.52-.95c4.04-.36 2.82 5.13.17 6.64q-.42.23.06.29z"/><path fill="#21201f" d="M321.94 218.94c12.08-12.11 23.9-10.13 37.22-2.45q107.02 61.7 140.54 80.81c11.62 6.62 21.88 14.46 27.87 26.22 3.27 6.41 4.73 15.49 6.84 23.45 7.97 30.11-6.23 63.56-28.96 83.29-2.64 2.3-6.42 3.81-8.72 5.72-6.06 5.03-9.97 8.24-17.29 11.69q-11.75 5.53-22.61 12.69a1.44 1.41 83.3 00-.58.75c-5.68 16.93-9.59 31.97-17.82 50.07-4.82 10.58-11.68 20.31-18 30.23-5.46 8.57-14.81 21.18-24.69 24.17a1.61 1.61 0 01-.96 0q-20.6-6.33-40.68-20.7-3.76-2.7-4.56-6.46c-1.41-6.65 6.4-17.61 10.93-21.48 4.88-4.18 9.83-7.35 12.11-12.34 3.04-6.62 4.5-14.86 6.79-25.41 2.19-10.1 9.51-18.47 12.1-26.99q3.58-11.82 7.6-23.48a1.12 1.11 39.2 00-.1-.92q-4.89-8.17-5.94-17.67a1.33 1.29 19 00-.42-.83c-26.56-24.75-21.01-66.98-2.12-94.13a.46.45-57.3 00-.14-.66q-33.04-19.02-66.07-37.91c-11.53-6.6-17.58-15.35-15.85-29.39 1.42-11.58 5.11-19.85 13.51-28.27zm14.52 47.56q1.08 2.09 1.09 3.9a1.75 1.73 13.9 00.94 1.54q42.99 22.65 85.85 45.42c6.08 3.23 10.42 1.56 16.27 3.33a1.15 1.14-55 001.03-.19q3.06-2.37 5.36-5.55.43-.59-.29-.49l-1.97.28a1.61 1.59 53.4 01-.92-.14c-29.73-14.36-58.96-30.89-93.12-49.55-2.71-1.48-5.56-2.09-8.49-2.55q5.69-4.75 9.33-11.25 2.98.77 4.72 1.72 33.57 18.36 84.58 47.17 6.23 3.52 8.87 6.61-.05 1.03.48 1.84a.37.36 46.6 00.6.02q3.66-4.88 5-10.86l.92-6.75-.84-8.24q-.04-.45.17-.05 3.77 7.32 1.72 15.79-1.53 6.31-4.05 10.75c-4.29 8.23-9 11.03-15.96 16.96q-9.14 4.53-19.25 2.83l-1.75-.5q-2.62-1.24-3.9.75c-6.15 9.59-8.35 18.37-11.6 29q-.72-.68-1.55-.49a.82.81 88.4 00-.62.66l-3.9 23.98a1.24 1.22-58.6 00.22.94q.72.99 1.81.37-.47 8.1.17 16.45a.27.27 0 00.53.01q1.72-16.2 5.8-32.21l.74-3.63 2.8-6.83c1.44-3 4.4-9.38 8.5-9.54a.74.74 0 01.71.45c1.65 3.91.81 8.08 4.8 10.28 7.21 3.98 18.48 11.26 21.28 20.02q1.64 8.49 1.71 18 .01.9 1 1.04 1.78.9 1.94 2.28c1.54 12.97 3.24 24.13 12.93 33.86q10.31 10.36 24.58 5.95.48-.14-.02-.1-17.08 1.66-26.5-12.23c-7.62-11.24-8.1-23.61-7.04-36.84.66-8.21 5.07-20.59 7.63-26.2 10.6-23.25 31.94-46.79 60.48-38.3l3.41 2.29q.45.31.24-.19c-5.02-11.69-14.68-18.97-25.86-25.4q-70.5-40.52-140.96-81.13-7.67-4.42-11.85-5.13-8.58-1.48-15.92 3.89-15.14 11.06-15.16 30.25c-.01 7.74 5.12 17.18 13.62 17.53 2.94.12 6.53-1.11 9.69-1.82zm49.04 79.04c5.66-2.84 8.85.62 11.85 4.9q.25.37.41-.04l9.77-25.02a.64.62-62.2 00-.22-.75q-5.29-3.7-11.15-6.41a.52.52 0 00-.67.22c-3.72 6.87-10.23 19.43-10.42 26.82a.3.3 0 00.43.28zm72.04 64.71c2.37 12.97 9.3 23.82 23.96 23.73 11.65-.07 23.71-9.39 30.52-18.22 9.88-12.81 19.15-31.1 18.73-47.72q.75-7.74-.45-15.59-1.37-7.47-6.03-13.63c-5.61-9.08-17.36-11.34-26.73-7.42-28.69 11.99-44.79 49.55-40 78.85zm-72-21q2.08 4.92 5.38 9.23.29.38.29-.1l.24-15.93a.59.59 0 00-.45-.57l-6.5-1.59-1.45-.36a.34.33-87.7 00-.41.38q.73 4.7 2.9 8.94zm20.77 18.01l31.22 17.17a.3.29-72.9 00.44-.24c1.06-14.76-19.29-28.46-31.81-32.76a.49.49 0 00-.64.37q-1.31 6.91-.32 13.86a2.2 2.18-80 001.11 1.6zM356.38 540.9l15.81 9.55a.45.44-64.9 00.65-.24q2.07-6.27 6.85-12.52 10.16-13.3 16.8-21.22c2.35-2.79 4.1-6.24 4.56-9.46 1.78-12.58 4.76-22.91 10.16-35.42q6.26-14.54 12.54-29.12a.62.61-63.7 00-.26-.78l-17.91-9.83a.92.91 22.2 00-1.32.55c-3.3 11.58-8.79 22.24-13.29 33.33-1.85 4.57-5.23 9.34-6.84 13.94-3.48 9.92-3.65 21.74-8.66 30.76-6.25 11.24-21.22 14.23-19.63 29.6a1.16 1.16 0 00.54.86z"/><path fill="#929395" d="M282.98 227.89c-.86.48-3.45-.07-2.94-1.41a.76.75-79.1 01.7-.48h2.11a.45.44 79.2 00.41-.61l-.84-2.19a.64.63-19.6 01.4-.83l1.19-.4a.58.58 0 01.75.51q.11 1.67 1.05 2.88a1.34 1.3-14.8 00.87.49l3.96.48a.5.5 0 00.47-.77l-2.71-3.98a1.05 1.04 70.5 00-.93-.45l-2.91.21a.52.52 0 01-.55-.6l.09-.58a.73.73 0 01.66-.61l1.9-.14a.53.53 0 00.42-.77l-1.17-2.22a.48.48 0 01.44-.71q1.92.07 2.39 2.05.23 1 .61.05.51-1.32 1.86-1.6 1.03-.22.54.71l-1.54 2.97a.84.83-47.2 00.03.84l1.91 3.11a.58.58 0 00.87.14q3.79-3.26.67-7.03a.83.82 39.8 01-.09-.91c.63-1.16 2.25.89 2.53 1.37a.71.71 0 001.3-.17q.41-1.47 1.82-1.81.87-.21.61.65l-.72 2.35a.24.24 0 00.21.31q1.92.19 1.91 2.2a1.1 1.1 0 00.4.85q1.97 1.61.12 3.34-.44.4.15.51c1.13.21 3.94-.46 3.84 1.3a.74.72-.5 01-.69.69l-3.12.17q-.65.03-.14.44 1.48 1.19.93 2.91a.54.54 0 01-.85.25q-1.5-1.26-2.1-3.16a.63.63 0 00-.67-.43l-3.2.43a.37.36-12.3 00-.3.46q1.17 4.14 5.24 3a.56.55-8.8 01.7.51l.03.79a.74.74 0 01-.6.75l-2.26.45q-.81.17-.16.66 1.74 1.33.77 3.23a.56.56 0 01-.88.16q-1.18-1.08-1.28-2.7a.26.26 0 00-.35-.23c-1.07.36 0 2.79-3.02 2.16a.49.49 0 01-.3-.75l1.32-1.92a1 .96 59.4 00.17-.72q-.39-2.56-1.69-4.8a.47.47 0 00-.74-.09q-1.96 2.07-1.85 4.94a1.56 1.55 22.4 00.43 1.02q.66.69.85 1.59a.83.83 0 01-.33.86c-1.36.97-1.77-1.09-2.04-1.84q-.26-.72-.74-.12l-1.68 2.13a.66.65 33.7 01-.82.16c-1.92-1.04 1.11-3.31 1.76-4.04q.38-.43-.19-.34l-2.59.43a.9.88 64.1 01-.81-.29q-2.31-2.51-1.27-5.54.19-.56-.32-.27zm15.08-6.44a.18.18 0 01-.2-.12l-.18-.53a.18.18 0 00-.33-.03l-2.73 5.06a.18.18 0 00.18.26l5.1-.65a.18.18 0 00.15-.14l.92-3.97a.18.18 0 00-.2-.22l-2.71.34zm-12.7 6.55c-.76 1.36-1.43 2.47-.47 3.85a.96.95-19.2 00.86.41q3.8-.29 4.66-4.03a.38.38 0 00-.38-.47l-4.4.08a.31.31 0 00-.27.16z"/><path fill="#fff" d="M519.25 326.21q-1.51-3.55-4.31-5.17-25.64-14.87-51.37-29.53a.51.51 0 00-.76.43q-.27 9.87-5.96 17.75a1.06 1.05 16.5 01-.82.44q-1.33.05-2.32-.88 2.52-4.44 4.05-10.75 2.05-8.47-1.72-15.79-.21-.4-.17.05l.84 8.24-1.49-3.32a1.75 1.71-85.1 00-.61-.74q-2.59-1.84-5.34-3.43-42.42-24.54-85.07-48.68-3.15-1.79-6.04-3.21a.75.75 0 00-1.07.57c-.74 5.55-2.17 10.43-4.4 15.5q-.76 1.72-1.15 3.56-3.64 6.5-9.33 11.25-3.25 1.45-5.75 4c-3.16.71-6.75 1.94-9.69 1.82-8.5-.35-13.63-9.79-13.62-17.53q.02-19.19 15.16-30.25 7.34-5.37 15.92-3.89 4.18.71 11.85 5.13 70.46 40.61 140.96 81.13c11.18 6.43 20.84 13.71 25.86 25.4q.21.5-.24.19l-3.41-2.29zm-196.606-62.318a24.67 16.1 115.9 0025.259-15.16 24.67 16.1 115.9 00-3.707-29.224 24.67 16.1 115.9 00-25.259 15.16 24.67 16.1 115.9 003.707 29.224z"/><ellipse fill="#21201f" transform="rotate(115.9 91.048 225.224)" rx="24.67" ry="16.1"/><path fill="#fdfcdf" d="M298.06 221.45l2.71-.34a.18.18 0 01.2.22l-.92 3.97a.18.18 0 01-.15.14l-5.1.65a.18.18 0 01-.18-.26l2.73-5.06a.18.18 0 01.33.03l.18.53a.18.18 0 00.2.12zM284.89 231.85c-.96-1.38-.29-2.49.47-3.85a.31.31 0 01.27-.16l4.4-.08a.38.38 0 01.38.47q-.86 3.74-4.66 4.03a.96.95-19.2 01-.86-.41z"/><path fill="#929395" d="M456.71 291l-.92 6.75q-.3-.65-.92-.58a.78.77 5.5 00-.67.54c-.93 3.07-1.7 7.15-4.49 9.04q-2.64-3.09-8.87-6.61-51.01-28.81-84.58-47.17-1.74-.95-4.72-1.72.39-1.84 1.15-3.56c2.23-5.07 3.66-9.95 4.4-15.5a.75.75 0 011.07-.57q2.89 1.42 6.04 3.21 42.65 24.14 85.07 48.68 2.75 1.59 5.34 3.43a1.75 1.71-85.1 01.61.74l1.49 3.32zM150.02 256.03q-.73-2.59-2.99-3.27 1.02-3.99-2.74-6.01l.25-1h.33a.49.49 0 00.47-.36c.65-2.22.86-5.9 4.14-5.13a.56.56 0 01.21.99c-3.83 2.99-2.14 6.49.18 9.6a.47.47 0 00.69.07q5.28-4.63.49-9.67-.67-.72.28-.93l1.56-.36a.8.79-22.7 01.84.34l1.49 2.35a.64.63-37.1 00.96.13q1.5-1.32.98-3.36a.54.54 0 01.64-.66l1.18.28a.97.96-69.3 01.62 1.39l-1.9 3.61a.88.86-75.3 01-.76.46l-1.16.01a.47.46 7.2 00-.45.34l-.07.28a.2.2 0 00.23.25l5.43-1.09a.47.46 79.3 01.55.38l.23 1.4a.64.64 0 01-.59.75l-4.08.24a1.08 1.04 16.7 00-.77.4l-3.06 3.87a.83.82 29.1 00.37 1.28q5.95 2.13 8.08-3.46c.38-.98 1.11-1.69 2.08-.97a.63.62 32.5 01.18.78l-1.67 3.13a.37.37 0 00.34.54l4.08-.1a.6.59 85.7 01.6.52c.37 2.95-3.13 1.61-4.64 1.73a.49.49 0 00-.4.71l1.56 3a.83.83 0 01-.51 1.19c-2.1.59-2.7-2.82-3.69-4.2a.96.92 72.8 00-.72-.4l-5.42-.28q-.62-.03-.32.51l2.78 5.12a1.13 1.1 77.7 00.88.58l4.61.41a.73.73 0 01.62.47c.53 1.41-1.62 2.25-2.78 1.49a.68.67 39.8 00-.82.07l-.23.22a.5.48-37.9 00-.09.61l1.74 2.9a.85.85 0 01-.04.95c-1.92 2.71-3.64-2.86-3.81-3.9q-.32-1.97-.4-.15-.12 2.74-2.63 4.14a1.08 1.05 40.4 01-.9.06c-2.05-.8 1.05-5.05 1.61-6.32a.92.91-50.4 00-.08-.89l-3.56-5.04z"/><path fill="#929395" d="M144.54 245.75l-.25 1q-2.45.65-4.97-.01a.63.61 9.5 01-.47-.64c.11-1.83 3.12-1.33 4.29-1.2a.37.36-8.1 00.38-.5q-.63-1.48-1.87-2.59a.77.76-54.3 01-.15-.95l.71-1.2a.77.77 0 011.29-.07q2.14 2.89 1.04 6.16zM147.03 252.76q2.26.68 2.99 3.27l-2.47 5.1a1.23 1.21 47.2 00-.03.98l1.92 4.74a1.01 1.01 0 01-1.16 1.36l-.98-.22a.8.8 0 01-.62-.63l-.9-4.6q-.13-.68-.51-.11l-.88 1.35a.91.91 0 00-.07.88q1.36 2.87-1.66 4.23a.61.61 0 01-.84-.41q-.79-3.12 1.89-5.21a.26.25 48.3 00.02-.39l-.23-.22a.23.22 46 00-.3-.01q-1.15 1-2.97.78a.83.82-4.3 01-.69-.59l-.31-1.08a.58.58 0 01.56-.73h5.02a.89.88-77.3 00.8-.51l2.23-4.83a1.08 1.08 0 00-1.53-1.38q-3.27 1.91-5.35-.71a.29.29 0 00-.5.26q1.01 3.42-1.54 5.86a.79.78 37.9 01-.93.11c-1.43-.82.06-3.4.1-4.78a.33.33 0 00-.39-.33l-2.82.53a.74.74 0 01-.86-.59c-.54-2.93 2.77-1.87 4.21-2a.21.2-14 00.17-.28l-1.53-3.72a1.2.9 27.9 012.1-.33l1.96 3.68a.89.89 0 00.79.48l5.31.05zM235.63 274.21l4.78-8.84a.42.42 0 00-.22-.59q-1.28-.5-1.64-1.34-1.33-3.11-2.64-6.24-.94-2.24 1.36-3.03c3.5-1.2 4.27 2.97 5.59 5.09a.7.7 0 001.21-.04c1.58-2.9 1.96-7.07 6.48-6.31a1.06 1.05-6 01.8.64l.87 2.16a1.24 1.22-41.1 01-.08 1.05l-2.91 4.93a.41.4 6.8 00.47.59q3.81-1.11 6.58 1.54a1.02 1.01 30.8 01.27 1.04l-1.03 3.28a.6.59-72.6 01-.74.39c-2-.61-3.86.05-5.68-.14q-2.04-.21-4.08-.34-.64-.03-.35.53l.23.45a1.01.99-42.3 01-.06 1l-5.28 7.83a.4.4 0 00.42.61c3.53-.8 6.6-.05 10.04-.42a1.43 1.4-69.9 00.86-.41c3.02-3.05 3.15-8.35 7.69-8.81a1.11 1.09 64.2 01.91.33q1.37 1.41 1.3 3.42a1.5 1.5 0 01-.37.93q-1.6 1.82-2.24 4.12a.42.42 0 00.45.53c2.58-.21 5.87-1.47 7.6 1.01a.92.91 40.4 01.08.92l-1.29 2.78a.88.88 0 01-.83.52l-5.22-.14a.88.88 0 00-.72 1.43c1.29 1.65 4.74 6.55.66 7.57a.62.62 0 01-.72-.36l-.73-1.72a.32.31-20.2 00-.4-.18l-.3.09a.15.14-21.1 00-.09.2l.76 1.84a.4.4 0 01-.28.55l-.34.08a.65.65 0 01-.73-.34c-.84-1.67-2-2.58-2.7-4.33q-.95-2.37-2.6-4.33a.85.84-28.6 00-.9-.26l-1.26.39q-.46.15-.94.1l-7.02-.71a.54.54 0 00-.6.56q.12 2.55 2.04 3.97.37.27.59.68l2.63 4.9a1.04 1.03-14.6 00.95.55l8.33-.25a1.03 1.02-25 01.7.25l1.46 1.23a.71.7-55.8 01.16.89l-1.65 2.89a.96.95 13 01-.81.5l-5.11.23q-.82.03-.3.67.45.55 1.21.85a1.07 1.06-88.8 01.61.64l1.62 4.71a1.07 1.07 0 01-.17 1.01c-4.22 5.49-7.06-2.03-7.69-5a.29.29 0 00-.54-.07c-1.15 2.33-3.04 6.46-6.29 5.63a1.3 1.3 0 01-.77-.54c-2.03-3.07 1.85-7.93 3.19-10.93a.9.87-51.2 00-.08-.86q-2.99-4.31-4.89-9.2a.36.35 43.8 00-.67.01q-1.64 4.85-4.81 8.81a1.06 1.05-40.1 00-.11 1.16l4.44 8.23a1.39 1.35 40.3 01.1 1.05q-.99 3.12-4.43 2.53a1.09 1.08-9.6 01-.75-.53l-2.43-4.41a.47.47 0 00-.75-.1q-1.63 1.74-2.14 4.07a1.4 1.39-11.1 01-.57.84c-2.33 1.6-6.7.73-5.14-2.97q1.1-2.61 2.13-5.28a.39.39 0 00-.39-.53l-5.07.34a.78.78 0 01-.82-.62l-.64-3.08a1.8 1.79-5.8 011.76-2.15l9.47.03a.66.64-80.5 00.61-.45q1.53-4.61 4.75-8.26a.65.65 0 00-.52-1.08l-7.19.34a1.37 1.35 60.3 01-.86-.24c-4.82-3.28-4.09 10.91-11.06 8.14a2.28 2.28 0 01-1.17-3.2l2.19-4.08a.45.44-76 00-.39-.66l-5.98.04a.76.75-10.9 01-.7-.47l-.77-1.84a1.29 1.28 44.7 01-.01-.94l.94-2.43a.64.64 0 01.59-.4l6.21.05a.39.39 0 00.35-.57l-2.63-5.15a.94.93-42.7 01.04-.92l1.31-2.04a1.17 1.15-76.1 01.88-.54c3.71-.35 5.32 5.65 6.72 8.35a.91.9 76.5 00.78.48l10.66.17a.57.56-19 00.45-.92c-2.71-3.36-3.77-9.39-8.9-8.99q-3.52.27-7-.34a.69.69 0 01-.55-.83l.77-3.34a.81.81 0 01.63-.61l4.99-.94a1 .98-29.2 01.84.23q.16.14.35.24 1.84.94.12-.59c-7.97-7.13.14-13.58 4.74-2.87q.19.46.46.04c1.38-2.15 2.61-6 5.92-5.22a1.01 1-3.7 01.72.62l.93 2.5a1.08 1.06-41.6 01-.06.88q-1.06 1.95-2.29 3.78c-3.3 4.9.59 8.18 2.99 12.31a.77.77 0 001.35-.02zM342.21 262.5c2.93.46 5.78 1.07 8.49 2.55 34.16 18.66 63.39 35.19 93.12 49.55a1.61 1.59 53.4 00.92.14l1.97-.28q.72-.1.29.49-2.3 3.18-5.36 5.55a1.15 1.14-55 01-1.03.19c-5.85-1.77-10.19-.1-16.27-3.33q-42.86-22.77-85.85-45.42a1.75 1.73 13.9 01-.94-1.54q-.01-1.81-1.09-3.9 2.5-2.55 5.75-4z"/><path fill="#929395" d="M519.25 326.21c-28.54-8.49-49.88 15.05-60.48 38.3-2.56 5.61-6.97 17.99-7.63 26.2-1.06 13.23-.58 25.6 7.04 36.84q9.42 13.89 26.5 12.23.5-.04.02.1-14.27 4.41-24.58-5.95c-9.69-9.73-11.39-20.89-12.93-33.86q-.16-1.38-1.94-2.28 1.12.03.99-.79c-.76-4.91-.81-10.21-1.97-14.98q-.42-1.72-.64-3.5 4.63-1.62 6.58-7.05c3.83-10.69 11.87-22.31 19.01-32.27q1.74-2.43.07-5.3a1.41 1.4 85.5 00-.72-.62q-2.77-1.1-4.56-.93-14.27 1.36-26.26-6.14c6.96-5.93 11.67-8.73 15.96-16.96q.99.93 2.32.88a1.06 1.05 16.5 00.82-.44q5.69-7.88 5.96-17.75a.51.51 0 01.76-.43q25.73 14.66 51.37 29.53 2.8 1.62 4.31 5.17zm-34.09-7.46q.59-1.78-.56-2.83c-1.49-1.37-11-1.8-13.46-2.04-3.39-.33-5.87-1.47-8.94-2.68a.55.55 0 00-.7.28q-.12.28 0 .48l-3.29-1.52a.51.51 0 00-.64.19q-3.34 5.26-7.91 9.57a.8.8 0 00.11 1.25c10.64 6.89 18.34 2.54 28.96-.38q.48-.14.97-.01 4.27 1.09 5.46-2.31z"/><path fill="#fdfcdf" d="M455.79 297.75q-1.34 5.98-5 10.86a.37.36 46.6 01-.6-.02q-.53-.81-.48-1.84c2.79-1.89 3.56-5.97 4.49-9.04a.78.77 5.5 01.67-.54q.62-.07.92.58z"/><path fill="#929395" d="M111.52 310.51l-2.38-3.83a.74.74 0 01.4-1.09l1.04-.35a.68.68 0 01.83.37l1.11 2.44a.79.78 50.3 001.36.13l1.75-2.52a.66.66 0 011.07-.01c.77 1.02-1.61 4.48-1.94 5.9a1.07 1.07 0 00.25.95q2.31 2.58 2.77 5.97.16 1.17.34.01.6-3.92 3.21-7.15.54-.67.58-1.67.04-.81-.51-.21l-.25.28a.89.88 41 01-1.23.08q-2.48-2.09-.34-4.83 2.25-2.87 1.67.73-.25 1.59.53 2.88a.52.51-32.9 00.74.15c1.49-1.05 1.94-4.68 3.66-3.89a.67.66-70.7 01.36.75q-.62 2.68-2.37 4.73-.24.28.13.34 2.3.33 4.02-1.04 1.01-.8.78.47l-.44 2.36a.78.77-79.6 01-.9.63l-3.27-.58a.9.88-64.1 00-.81.29l-3.37 3.84a.97.97 0 00.4 1.54q6 2.15 7.93-3.07c.39-1.05 1.09-1.77 2.14-.95a.79.78 30.3 01.25.92l-1.08 2.68a.45.45 0 00.23.57c1.76.81 3.9-.83 5.2 1.05a.88.88 0 01-.76 1.38l-4.71-.18a.36.36 0 00-.34.53l1.98 3.86a.65.65 0 01-.77.92c-2.09-.63-2.6-2.51-3.89-4.07a1.33 1.31-14.3 00-.84-.49l-6.45-1a.37.36-14.1 00-.35.58l4.33 5.68a.97.95 71 00.76.38l4.1.04a.66.65 1.7 01.65.68l-.05 1.12a.69.69 0 01-.69.66c-.95 0-2.82-1.01-3.27.22a.72.72 0 00.27.85q2.49 1.7.52 4.15a.59.59 0 01-1.01-.15l-1.29-3.14a.76.76 0 00-1.35-.13l-1.7 2.64a.69.68 30.4 01-.9.23c-1.85-.97.84-4.48 1.58-5.44a.77.77 0 00.03-.88l-3.38-5.22q-.41-.62-.71.06l-2.49 5.64a.71.71 0 00.16.81q2.05 1.94 2.22 4.84a.58.57 6.5 01-.74.58q-1.48-.44-1.67-2.14a.86.85 66.7 00-1.4-.56c-1.11.94-1.88 3.91-4.04 2.22a.72.71-61 01-.23-.81c.1-.28 1.91-3.9 1.85-4.07a.4.39-26.4 00-.61-.2c-1.17.83-3.17 1.21-3.73-.46a1.08 1.07 86.3 011.22-1.4c5.32 1.07 6.83-1.61 7.66-6.2q.1-.58-.44-.35-1.9.83-3.96.15a.87.86-60.8 00-.94.27l-3.91 4.81a.85.84 61.2 01-1.49-.44l-.12-.92a1.18 1.18 0 01.27-.9l3.23-3.99a.45.45 0 00-.21-.71q-2.9-.95-3.8-3.89a.76.76 0 01.87-.96q3.33.64 3.93 4.12a.76.76 0 00.79.62l5.28-.38a.66.66 0 00.51-1.01l-2.7-4.35a.91.89-20.7 00-.93-.41l-4.15.76a.74.74 0 01-.87-.84l.23-1.49a.72.72 0 01.82-.6l3.5.52q.59.09.27-.41z"/><path fill="#21201f" d="M461.5 311.96q2.52 1.19 5.13 2.14c5.43 1.99 14.38-.38 18.53 4.65q-1.19 3.4-5.46 2.31-.49-.13-.97.01c-10.62 2.92-18.32 7.27-28.96.38a.8.8 0 01-.11-1.25q4.57-4.31 7.91-9.57a.51.51 0 01.64-.19l3.29 1.52z"/><path fill="#fdfcdf" d="M485.16 318.75c-4.15-5.03-13.1-2.66-18.53-4.65q-2.61-.95-5.13-2.14-.12-.2 0-.48a.55.55 0 01.7-.28c3.07 1.21 5.55 2.35 8.94 2.68 2.46.24 11.97.67 13.46 2.04q1.15 1.05.56 2.83z"/><path fill="#fff" d="M397.35 350.44c-3-4.28-6.19-7.74-11.85-4.9a.3.3 0 01-.43-.28c.19-7.39 6.7-19.95 10.42-26.82a.52.52 0 01.67-.22q5.86 2.71 11.15 6.41a.64.62-62.2 01.22.75l-9.77 25.02q-.16.41-.41.04z"/><ellipse fill="#929395" transform="rotate(-.2 91650.605 -29596.663)" rx="3.12" ry="1.33"/><path fill="#fff" d="M437.75 326.21q11.99 7.5 26.26 6.14 1.79-.17 4.56.93a1.41 1.4 85.5 01.72.62q1.67 2.87-.07 5.3c-7.14 9.96-15.18 21.58-19.01 32.27q-1.95 5.43-6.58 7.05l-1.09.23c-2.8-8.76-14.07-16.04-21.28-20.02-3.99-2.2-3.15-6.37-4.8-10.28a.74.74 0 00-.71-.45c-4.1.16-7.06 6.54-8.5 9.54q-.43.12-.92-.09a.47.46 27 01-.22-.66c1.78-2.98 4.04-5.65 5.47-8.64 2.17-4.54 7.14-14.27 6.92-19.11q10.11 1.7 19.25-2.83zM416.75 328.54c-5.46 9.49-11.65 22.18-13.38 33.01q-.4 2.45-3.24 2.03l1.12-5.29c3.25-10.63 5.45-19.41 11.6-29q1.28-1.99 3.9-.75z"/><path fill="#929395" d="M416.75 328.54l1.75.5c.22 4.84-4.75 14.57-6.92 19.11-1.43 2.99-3.69 5.66-5.47 8.64a.47.46 27 00.22.66q.49.21.92.09l-2.8 6.83q-1.84.96-1.68 3.16a.52.51-1.8 00.52.48l.42-.01q-4.08 16.01-5.8 32.21a.27.27 0 01-.53-.01q-.64-8.35-.17-16.45.5-10.35 2.92-20.17 2.84.42 3.24-2.03c1.73-10.83 7.92-23.52 13.38-33.01z"/><path fill="#fff" d="M524.27 338.82q-1.58-.91-2.99-2.06c-2.21-1.82-6.68-3.91-9.51-4.22-13.13-1.45-20.71 4.03-29.94 12.61-11.88 11.02-19.38 27.62-22.99 43.97-1.48 6.68-.93 13.3-.39 20.1a.8.8 0 01-.41.76l-.5.27c-4.79-29.3 11.31-66.86 40-78.85 9.37-3.92 21.12-1.66 26.73 7.42z"/><path fill="#929395" d="M524.27 338.82q4.66 6.16 6.03 13.63-1.22 2.67-.59 5.8-3.2 1.1-3.98 1.72-4.81 3.76-21.23 18.02a.71.7 74.3 00-.24.43l-.05.36q-.08.6.43.28 12.1-7.35 24.82-13.56.14 1.55 1.29 2.54c.42 16.62-8.85 34.91-18.73 47.72-6.81 8.83-18.87 18.15-30.52 18.22-14.66.09-21.59-10.76-23.96-23.73l.5-.27a.8.8 0 00.41-.76c-.54-6.8-1.09-13.42.39-20.1 3.61-16.35 11.11-32.95 22.99-43.97 9.23-8.58 16.81-14.06 29.94-12.61 2.83.31 7.3 2.4 9.51 4.22q1.41 1.15 2.99 2.06zm-17.04-.32c1.02-5.17-4.77-4.2-5.37-.81q-1.33 7.51-1.59 19.11c-.1 4.96-.98 10.49-1 15.71a.44.44 0 00.87.09q3.74-17.1 7.09-34.1zm10.43-2.07c-1.59-1.74-3.03-.61-3.62 1.14q-6.1 18.12-12.47 36.16a.31.3 5.1 00.34.4c.59-.1 9.06-18.54 10-20.56 1.35-2.91 8.77-13.82 5.75-17.14zm-24.2 4.07q-1.25-1.54-2.88-.36-4.22 3.04-2.51 8.34 3.25 10.13 6.42 20.29c.59 1.91 1.22 5.26 2.35 7.66a.32.32 0 00.6-.18c-1.53-11.5-2.92-23.18-3.65-34.75q1.38.66 1.98-.86a.73.73 0 00-.39-.93q-1.33-.59-1.92.79zm30.58 4.25q-2.68 2.88-3.93 4.82-8.64 13.36-17.4 26.85a.2.2 0 00.32.25q7.5-8.47 14.91-17.37c2.52-3.02 11.68-10.22 7.43-14.56a.92.92 0 00-1.33.01zm-45.85 20.81q8.53 6.75 16.2 13.43a.34.34 0 00.51-.45q-7.38-11.15-14.05-22.61c-2.48-4.26-5.74-1.16-6.71 1.87-1.06 3.3 1.62 5.84 4.05 7.76zm-12.5 16q13.12 1.28 26.52.39.5-.04.03-.22-10.75-4.23-21.51-8.47c-4.83-1.89-6.22 4.05-5.89 7.45a.94.94 0 00.85.85zm56.06-5.02l-16.56 4.8q-.48.14-.06.42c1.54 1.01 3.75.21 4.99.29q7.43.49 14.93.76a1.33 1.31-63.3 00.89-.3c2.12-1.77 4.49-8.84-1.44-6.8q-.15-1.24-1.49-.92-1.78.42-1.26 1.75zm-24.706 11.657a5.1 3.3 110.5 004.877-3.621 5.1 3.3 110.5 00-1.305-5.933 5.1 3.3 110.5 00-4.877 3.621 5.1 3.3 110.5 001.305 5.933zm-32.474 4.883c-3.53 1.06-3.55 4.41-2.67 7.24a1.82 1.82 0 002.63 1.04l28.53-16.07a.27.27 0 00-.21-.49q-14.22 4.06-28.28 8.28zm38.87-6.98c5.23 4.59 9.09 9 15.53 13.07a.69.68-50 00.83-.08q2.38-2.25 3.02-5.52a1.23 1.23 0 00-.78-1.38l-18.18-6.78q-2.09-.78-.42.69zm-38 31.25a1.77 1.75 37.4 001.64-.21c4.94-3.5 9.24-10.2 13.56-14.71 4.11-4.29 7.53-9.75 12.41-13.96a.57.56-20.4 00.2-.43l.01-.29q0-.55-.41-.18-13.23 11.65-27.01 22.65c-1.97 1.57-4.28 5.65-.4 7.13zm46.06-12.56l.35-.43a.83.82-38.7 00.1-.88l-2.43-5.06a.72.72 0 00-.81-.39q-.43.11-.75.47l-6.8-10.28a.34.34 0 00-.6.29l7.91 24.73q.96 3.01 2.78.43 1.54-2.21 2.43-4.64a1.1 1.09-52.1 00-.11-.94l-2.07-3.3zm-15.06 19.51l.98.55a.8.79-48.2 00.87-.05c1.63-1.21 3-2.51 3.14-4.71.43-7.08-1.1-14.84-2.71-25.83q-.36-2.44-.91-3.56-.32-.64-.33.07-.22 16.17-1.71 32.26a1.34 1.31-73.4 00.67 1.27zm-23.63-1.55c-2.93 4.4 1.71 7.75 4.72 2.38 4.15-7.42 7.41-15.79 10.86-22.87q2.56-5.26 4.94-10.71a.24.24 0 00-.42-.24q-2.05 2.7-3.94 5.85-7.79 12.98-16.16 25.59zm13.23-4l-.06-1.01a.52.52 0 00-.56-.49l-.35.03a.59.59 0 00-.53.48l-1.36 7.82a.37.36 5.2 00.36.43l.42-.01q-.96 1.99.15 3.65a.75.74 66.2 00.79.31c2.57-.58 4.08-1.64 4.64-4.42q1.81-9.02 3.37-18.1c.64-3.71 2.47-9.6 2.63-14.71q.02-.53-.23-.07-1.21 2.31-2.25 5.9-2.43 8.47-7.02 20.19z"/><path fill="#21201f" d="M501.86 337.69c.6-3.39 6.39-4.36 5.37.81q-3.35 17-7.09 34.1a.44.44 0 01-.87-.09c.02-5.22.9-10.75 1-15.71q.26-11.6 1.59-19.11zM517.66 336.43c3.02 3.32-4.4 14.23-5.75 17.14-.94 2.02-9.41 20.46-10 20.56a.31.3 5.1 01-.34-.4q6.37-18.04 12.47-36.16c.59-1.75 2.03-2.88 3.62-1.14z"/><path fill="#fdfcdf" d="M493.79 341.5l-.33-1q.59-1.38 1.92-.79a.73.73 0 01.39.93q-.6 1.52-1.98.86z"/><path fill="#21201f" d="M493.46 340.5l.33 1c.73 11.57 2.12 23.25 3.65 34.75a.32.32 0 01-.6.18c-1.13-2.4-1.76-5.75-2.35-7.66q-3.17-10.16-6.42-20.29-1.71-5.3 2.51-8.34 1.63-1.18 2.88.36zM524.04 344.75a.92.92 0 011.33-.01c4.25 4.34-4.91 11.54-7.43 14.56q-7.41 8.9-14.91 17.37a.2.2 0 01-.32-.25q8.76-13.49 17.4-26.85 1.25-1.94 3.93-4.82z"/><path fill="#fdfcdf" d="M530.3 352.45q1.2 7.85.45 15.59-1.15-.99-1.29-2.54 1.07-3.58.25-7.25-.63-3.13.59-5.8z"/><path fill="#21201f" d="M478.19 365.56c-2.43-1.92-5.11-4.46-4.05-7.76.97-3.03 4.23-6.13 6.71-1.87q6.67 11.46 14.05 22.61a.34.34 0 01-.51.45q-7.67-6.68-16.2-13.43z"/><path d="M401.25 358.29l-1.12 5.29q-2.42 9.82-2.92 20.17-1.09.62-1.81-.37a1.24 1.22-58.6 01-.22-.94l3.9-23.98a.82.81 88.4 01.62-.66q.83-.19 1.55.49z"/><path fill="#21201f" d="M529.71 358.25q.82 3.67-.25 7.25-12.72 6.21-24.82 13.56-.51.32-.43-.28l.05-.36a.71.7 74.3 01.24-.43q16.42-14.26 21.23-18.02.78-.62 3.98-1.72z"/><path fill="#fdfcdf" d="M404.45 364.37l-.74 3.63-.42.01a.52.51-1.8 01-.52-.48q-.16-2.2 1.68-3.16z"/><path fill="#21201f" d="M465.69 381.56a.94.94 0 01-.85-.85c-.33-3.4 1.06-9.34 5.89-7.45q10.76 4.24 21.51 8.47.47.18-.03.22-13.4.89-26.52-.39z"/><path fill="#fdfcdf" d="M524.5 375.71l-2.75.83q-.52-1.33 1.26-1.75 1.34-.32 1.49.92z"/><path fill="#21201f" d="M521.75 376.54l2.75-.83c5.93-2.04 3.56 5.03 1.44 6.8a1.33 1.31-63.3 01-.89.3q-7.5-.27-14.93-.76c-1.24-.08-3.45.72-4.99-.29q-.42-.28.06-.42l16.56-4.8z"/><path fill="#fdfcdf" d="M443.63 378.52q.22 1.78.64 3.5c1.16 4.77 1.21 10.07 1.97 14.98q.13.82-.99.79-.99-.14-1-1.04-.07-9.51-1.71-18l1.09-.23z"/><ellipse fill="#21201f" transform="rotate(110.5 116.421 364.735)" rx="5.1" ry="3.3"/><path fill="#fdfcdf" d="M384.5 380.29c-.63 1.56-.68 2.58.32 4.08.75 1.12 2.97 4.64.72 4.88q-2.17-4.24-2.9-8.94a.34.33-87.7 01.41-.38l1.45.36z"/><path fill="#929395" d="M384.5 380.29l6.5 1.59a.59.59 0 01.45.57l-.24 15.93q0 .48-.29.1-3.3-4.31-5.38-9.23c2.25-.24.03-3.76-.72-4.88-1-1.5-.95-2.52-.32-4.08z"/><path fill="#21201f" d="M461.9 400.32c-.88-2.83-.86-6.18 2.67-7.24q14.06-4.22 28.28-8.28a.27.27 0 01.21.49l-28.53 16.07a1.82 1.82 0 01-2.63-1.04zM503.44 386.1q-1.67-1.47.42-.69l18.18 6.78a1.23 1.23 0 01.78 1.38q-.64 3.27-3.02 5.52a.69.68-50 01-.83.08c-6.44-4.07-10.3-8.48-15.53-13.07z"/><ellipse fill="#21201f" transform="rotate(132.1 196.167 319.32)" rx=".77" ry=".5"/><path fill="#21201f" d="M465.44 417.35c-3.88-1.48-1.57-5.56.4-7.13q13.78-11 27.01-22.65.41-.37.41.18l-.01.29a.57.56-20.4 01-.2.43c-4.88 4.21-8.3 9.67-12.41 13.96-4.32 4.51-8.62 11.21-13.56 14.71a1.77 1.75 37.4 01-1.64.21zM507.96 398.5l3.54 6.29 2.07 3.3a1.1 1.09-52.1 01.11.94q-.89 2.43-2.43 4.64-1.82 2.58-2.78-.43l-7.91-24.73a.34.34 0 01.6-.29l6.8 10.28zM496.44 424.3a1.34 1.31-73.4 01-.67-1.27q1.49-16.09 1.71-32.26.01-.71.33-.07.55 1.12.91 3.56c1.61 10.99 3.14 18.75 2.71 25.83-.14 2.2-1.51 3.5-3.14 4.71a.8.79-48.2 01-.87.05l-.98-.55zM477.53 425.13c-3.01 5.37-7.65 2.02-4.72-2.38q8.37-12.61 16.16-25.59 1.89-3.15 3.94-5.85a.24.24 0 01.42.24q-2.38 5.45-4.94 10.71c-3.45 7.08-6.71 15.45-10.86 22.87z"/><path fill="#929395" d="M406.31 407.26a2.2 2.18-80 01-1.11-1.6q-.99-6.95.32-13.86a.49.49 0 01.64-.37c12.52 4.3 32.87 18 31.81 32.76a.3.29-72.9 01-.44.24l-31.22-17.17z"/><path fill="#21201f" d="M483.96 426l2.08-7.25q4.59-11.72 7.02-20.19 1.04-3.59 2.25-5.9.25-.46.23.07c-.16 5.11-1.99 11-2.63 14.71q-1.56 9.08-3.37 18.1c-.56 2.78-2.07 3.84-4.64 4.42a.75.74 66.2 01-.79-.31q-1.11-1.66-.15-3.65z"/><path fill="#fdfcdf" d="M511.5 404.79l-3.54-6.29q.32-.36.75-.47a.72.72 0 01.81.39l2.43 5.06a.83.82-38.7 01-.1.88l-.35.43zM486.04 418.75l-2.08 7.25-.42.01a.37.36 5.2 01-.36-.43l1.36-7.82a.59.59 0 01.53-.48l.35-.03a.52.52 0 01.56.49l.06 1.01z"/><path fill="#929395" d="M356.38 540.9a1.16 1.16 0 01-.54-.86c-1.59-15.37 13.38-18.36 19.63-29.6 5.01-9.02 5.18-20.84 8.66-30.76 1.61-4.6 4.99-9.37 6.84-13.94 4.5-11.09 9.99-21.75 13.29-33.33a.92.91 22.2 011.32-.55l17.91 9.83a.62.61-63.7 01.26.78q-6.28 14.58-12.54 29.12c-5.4 12.51-8.38 22.84-10.16 35.42-.46 3.22-2.21 6.67-4.56 9.46q-6.64 7.92-16.8 21.22-4.78 6.25-6.85 12.52a.45.44-64.9 01-.65.24l-15.81-9.55z"/><ellipse fill="#929395" transform="rotate(24.3 -1174.83 693.94)" rx=".97" ry=".65"/><path fill="#929395" d="M192.68 548.75q-.86-.27-.16-.83l.61-.51a.56.56 0 01.89.3l.22.85q.18.75-.56.51l-1-.32z"/><path fill="#fff" d="M590.29 589.75l.71.31v.94h-1.06l-.19-.71.54-.54z"/><path fill="#21201f" d="M0 589.94l.25.1c-.15.47-.01.72.51.7q5.85-.17 11.68.26H0v-1.06z"/><path fill="#fdfcdf" d="M.25 590.04q3.22.07 6.44.08 291.53.12 583.06.17l.19.71H12.44q-5.83-.43-11.68-.26c-.52.02-.66-.23-.51-.7z"/></svg>