<svg xmlns="http://www.w3.org/2000/svg" viewBox="0 0 591 591"><g stroke-width="2" fill="none"><path stroke="#10100f" vector-effect="non-scaling-stroke" d="M590.06 0l.19.29"/><path stroke="#7d7f71" vector-effect="non-scaling-stroke" d="M590.25.29l.04 589.46"/><path stroke="gray" vector-effect="non-scaling-stroke" d="M590.29 589.75l-.54.54"/><path stroke="#7d7f71" vector-effect="non-scaling-stroke" d="M589.75 590.29l-588.5-.08"/><path stroke="#10100f" vector-effect="non-scaling-stroke" d="M1.25 590.21L0 589.94"/><path stroke="#7d7f71" vector-effect="non-scaling-stroke" d="M4.29 23.75v562a.5.5 0 00.5.5h580.96a.5.5 0 00.5-.5V5.31a1.05 1.05 0 00-1.05-1.05l-559.7.03"/><path stroke="gray" vector-effect="non-scaling-stroke" d="M25.5 4.29l-20.69.02a.5.5 0 00-.5.5l-.02 18.94"/><path stroke="#fdfef0" vector-effect="non-scaling-stroke" d="M25.5 4.29l.45 2.52a.66.66 0 01-.36.71q-8.36 4.21-15.35 10.47c-1.29 1.16-1.92 4.2-3.58 5.25q-1.09.68-2.37.51"/><path stroke="#8d8e80" vector-effect="non-scaling-stroke" d="M591 587.31c-.84-.45-.25-537.06-.25-586.81a.25.24-86.1 00-.21-.25q-.17-.02-.29.04"/><path stroke="#fdfef0" vector-effect="non-scaling-stroke" d="M591 590.06l-.71-.31"/><path stroke="#cbcdc0" vector-effect="non-scaling-stroke" d="M213.94 23.157a.92.62 18.8 00-.67-.884.92.62 18.8 00-1.07.29.92.62 18.8 00.67.884.92.62 18.8 001.07-.29"/><path stroke="#8d8e80" vector-effect="non-scaling-stroke" d="M421.099 27.875a2.23.25-44.2 00-1.773 1.376 2.23.25-44.2 00-1.425 1.734 2.23.25-44.2 001.773-1.376 2.23.25-44.2 001.425-1.734"/><path stroke="#faf1c7" vector-effect="non-scaling-stroke" d="M97.82 37.71q-.96-.51-1.51-.52-19.1-.09-38.21.89c-18.16.94-21.45 8.59-21.28 26.03q.17 18.01.06 34.87-.03 2.98 2.1.88 24.75-24.51 48.89-49.24 5.4-5.52 10.2-11.74a.78.78 0 00-.25-1.17"/><path stroke="#7d7f71" vector-effect="non-scaling-stroke" d="M551.79 543q2.99-.71 5.7-2.58a1.87 1.86-23.1 00.77-1.9q-1.45-7.13-1.16-14.45c.45-11.43-.13-19.79-4.35-30.28q-1.77-4.4-2.87-8.37-3.79-13.76-12.09-27.22-.78-1.26-3.02-6.53a.99.98-39.1 01.1-.93l3.73-5.41a.53.52-49.7 01.82-.07c.64.68 3.06 4.46 3.88 3.83a.77.76 52.8 00.14-1.07l-3.71-4.77a.86.84-52.1 01-.1-.87l.74-1.65a.9.9 0 01.89-.53c4.55.36 10.38 6.12 13.92 8.91a.29.29 0 00.41-.41q-5.58-6.9-13.58-10.72a.91.9 13.3 01-.52-.83l.04-2.34a.56.55-90 01.54-.55q8.87-.2 15.97 4.89.46.33.24-.19c-1.91-4.54-11.38-6.5-15.81-6.62a.67.66 84.2 01-.62-.51c-.22-.95-.22-1.27-.77-2.14q-3.49-5.53-4.94-11.93-.11-.5-.44-.88c-.98-1.18-1.27-1.75-1.13-3.4.52-5.89 1.09-19.79-3.67-24.14a1.88 1.88 0 00-3.02.72q-3.14 8.28-7.69 15.9a.82.8-73.2 01-.73.4l-9.84-.32a1.04 1-19.4 01-.7-.32c-4.08-4.47-9.27-12.6-14.73-14.91a1.18 1.17-45.3 00-.94.01c-4.87 2.22-4.5 17.48-3.95 21.43.71 5.17-3.04 10.91-3.97 15.83q-.63 3.34-1.04 6.74c-.57 4.69 3.75 10.77 5.9 14.78 2.03 3.79-2.73 9.14-2.62 11.98q.14 3.42-1.81 6.2a.45.45 0 00.27.7l.58.13a.63.63 0 01.49.67q-1.52 18.2-7.71 35.38-.18.48-.13.99.08.93-.45 1.77a.61.61 0 01-.75.25l-19.18-7.62a1.94 1.93 17.1 01-1.18-2.21q.57-2.63 1.19-5.18c1.83-7.55 6.3-14.44 7.1-22.06q.55-5.27-.39-10.56c-.95-5.36-5.44-9.84-11.02-8.26-2.87.81-4.97 3.91-4.56 6.74 1.15 7.97.46 11.48-2.82 19.5q-3.13 7.65-4.99 15.73"/><path stroke="#8d8e80" vector-effect="non-scaling-stroke" d="M442.21 493.75c-28.14-12-56.92-22.56-85.38-33.87a.83.82 8.7 01-.52-.7q-1.17-14.71-7.1-28.21-.63-1.42.65-.53l3.23 2.26a.33.33 0 00.51-.24c.74-7.95-2.87-15.35-8.7-20.49-9.83-8.67-17.18-19.2-11.19-31.77a.24.24 0 01.46.1q.14 3.29 2.59 5.52a.49.49 0 00.76-.14l1.1-2.07a.27.26 22 01.32-.13l.25.08a.24.24 0 01.17.23l.04 4.75a.55.55 0 00.65.53l6.02-1.14a.76.75 67.3 01.76.32l.24.37a.99.98 71 00.89.44c8.46-.65 16.81-1.41 25.32.12 14.4 2.57 26.26 4.94 42.6 3.84q2.39-.16 5.54.46c3.09.61 7.75-1.01 9.34 1.37q3.58 5.36 10.2 5.65"/><path stroke="#7d7f71" vector-effect="non-scaling-stroke" d="M440.96 400.5q1.97 2.14 1.85 5.02a.7.7 0 00.46.7c2.01.75 2.53-6.15 2.46-7.69a1.64 1.6 60.3 01.24-.92l2.56-4.06"/><path stroke="#8d8e80" vector-effect="non-scaling-stroke" d="M448.53 393.55q4.42-.17 8.72.91"/><path stroke="#7d7f71" vector-effect="non-scaling-stroke" d="M457.25 394.46l3.25 4.43a.3.3 0 00.49-.02c2-3.19 1.76-7.3 2.29-10.09q1.12-6 .3-12.15a.75.74 72.5 01.39-.76l4.09-2.15a1.07 1.05 45.6 011.02.02l3.69 2.13a.71.71 0 001.05-.78c-.84-3.43-2.59-5.81-3.22-9.2q-.94-5.02-4.14-9.14"/><path stroke="#8d8e80" vector-effect="non-scaling-stroke" d="M466.46 356.75q-1.67-1.65-.07-2.42"/><path stroke="#7d7f71" vector-effect="non-scaling-stroke" d="M466.39 354.33l3.47 2.12a.35.34 17.3 00.53-.27c.15-3.3-5.58-7.9-7.52-10.81-4.65-6.98-18.24-7.49-25.34-6.06q-6.9 1.39-13.94 1.51-3.26.06-6.25.55c-7.62 1.26-16.16-.45-23.84-1.16"/><path stroke="#8d8e80" vector-effect="non-scaling-stroke" d="M393.5 340.21q-11.55-1.51-22.81-4.48c-2.58-.68-3.76-4.04-4.92-6.54-3.77-8.06-12.57-14.44-12.09-23.25.14-2.51-.53-4.34-.84-6.71a.42.41-2.9 01.43-.47q9.8.35 12.51-.44 12.53-3.68 25.57-3.22a.94.93 76.1 01.8.49l.53.97q.32.57.65 0 1.61-2.77 4.62-4.07a.72.71 59.4 01.84.22l.89 1.15a.51.5-33.7 00.66.13q5.41-3.13 9.37-4.24"/><path stroke="#7d7f71" vector-effect="non-scaling-stroke" d="M409.71 289.75l.07 2.7a.49.49 0 00.92.22q4.42-8.57 4.75-18.25a1.73 1.68 64.5 01.31-.92c12.18-17.81 10.47-40.29 19.77-59.71 2.17-4.53 2.74-9.51 4.04-14.33a.92.91-1.3 01.61-.63q7.09-2.2 8.34-9.52"/><path stroke="#8d8e80" vector-effect="non-scaling-stroke" d="M448.52 189.31q3.3-.12 5.05 1.52a.31.31 0 00.5-.14c1.24-3.99-2.75-7.8-6.32-8.9"/><path stroke="#7d7f71" vector-effect="non-scaling-stroke" d="M447.75 181.79l-2.04-.86a.53.53 0 01-.31-.51l.24-5.66a1.59 1.59 0 011.6-1.53l2.48.03a.43.43 0 00.41-.54q-.47-1.69-1.88-2.76"/><path stroke="#8d8e80" vector-effect="non-scaling-stroke" d="M448.25 169.96q-5.92-3.86-13.1-3.75a.39.39 0 01-.37-.54q.51-1.13 1.61-1.76a.83.83 0 00.41-.81c-.22-2.03-10.3-1.58-12.35-1.37-3.62.35-5.85 3.99-9.8 5.09-5.82 1.62-8.52 4.39-11.86 9.6q-1.66 2.58-3.88 4.68c-2.87 2.7-3.97 5.09-5.08 8.47q-4.1 12.5-8.65 22.86-.63 1.43-1.57 2.67-8.88 11.72-17.57 23.59c-4.2 5.74-14.08 5.21-20.46 5.11a1.37 1.36 76.4 01-1.19-.73q-3.25-6.1-9.4-9.03-1.1-.53.12-.54l6.59-.06q.86-.01.13-.45c-3.4-2.05-7.77-2.42-10.75-3.35-3.2-.99-6.51-1.49-9.41-2.76-5.05-2.21-20.43-11.67-20.38-17.62q0-.62.52-.29l1.66 1.04a1.5 1.45 59.6 00.82.23c9.02-.2 19.4-.2 25.43 7.58a.34.34 0 00.54 0l1.79-2.25q.73-.93.98.23l.27 1.3q.19.91.66.1c3.64-6.39 7.7-8.08 5.46-16.8-.29-1.16.08-1.75.45-2.81a1.03 1.02 35.2 00-.17-.97q-2.14-2.64-5.67-2.07a.54.54 0 01-.63-.51q-.2-5.85-1.7-11.58a.79.79 0 00-1.44-.22c-1.13 1.83-7.48 12.03-9.44 11.22q-3.59-1.49-6.2-1.82-2.54-.32-2.01-2.83 2.71-12.83 9.38-23.58c2.36-3.81 5.26-4.49 9.33-3.03a1.03 1.02-85.2 01.67.8l1.41 8.27a.8.8 0 001.37.41q3.61-3.84 4.31-9.12a.69.68 86.9 01.52-.58c9.05-2.32 7.97-13.33 7.22-21q-.05-.55-.37-1-1.97-2.76-.7-6.09a.93.93 0 00-.13-.89c-4.58-6.11-8.59-11.92-16.17-8.66a1.5 1.49 39.9 01-.95.08q-4.27-.98-8.63-.47c-1.82.21-4.95 1.52-7.56.97q-3.94-.84-7.23-.94c-3.23-.09-5.91 1.7-9.59 1.52a1.23 1.22-83.3 01-1.15-1.46c.96-4.94 1.36-9.47-1.11-14.08q-7.13-13.3-23.13-14.33-.53-.04-.14.33l6.12 5.72a.51.51 0 01-.55.84q-7.07-2.91-14.54-5.11c-4.32-1.27-8.69-1.71-13.23-2.4-10.27-1.56-23.72-1.91-33.23 3.02-1.89.98-8.13 4.64-8.12 6.72q0 .53.44.24 7.65-5.04 16.83-4.8.5.02.07.27-11.09 6.56-22.74 12.05-7.79 3.67-12.14 3.67c-8.64 0-15.4-6.06-18.3-13.97a.61.61 0 00-1.18.12c-1.37 8.74 2.36 19.86 10.63 24.35a.45.45 0 01-.22.84c-3.37-.07-5.59-1.51-8.8-2.15q-.43-.08-.27.33 2.7 6.78 9.74 8.59.76.19.03.5c-16.02 6.72-34.1 17.87-38.06 36.56q-3.61 17.06 3.09 33.73 1.19 2.96 3.78 5a.29.29 0 00.46-.31c-2.38-8.73-3.07-19.53 3.5-26.86q.34-.38.19.11-3.82 12.7-.35 25.15c1.77 6.36 13.17 25.67.72 28.17q-5.03 1-9.34-2.25-.4-.3-.28.18c2.04 8.43 12.44 13.5 20.28 14.16a.59.59 0 01.54.53c2.13 21.4 19 37.69 37.76 46.81a1.37 1.34 1.6 01.66.68c5.73 13.37 11.24 30.4 11.04 45.05-.2 14.79-2.07 30.9-6.97 44.92-2.94 8.43-6.98 13.36-11.45 19.87-2.44 3.55-5.55 6.1-8.59 9.12q-1.94 1.93.8 2.05l1.18.05a.47.47 0 01.43.61l-3.26 10.85a.77.77 0 01-.66.54c-11.35 1.22-20.78 1.73-31.23-.49-27.6-5.86-42.7-30.86-42.45-58.35.07-8.25 3.16-21.76 6.51-28.86 8.72-18.49 16.85-42.62 2.14-60.81q-.32-.39-.48.09c-.46 1.45.25 6.57-.51 6.84a.5.5 0 01-.65-.34c-7.25-25.73-44.93-21.6-59.77-6.64-3 3.02-7.71 7.88-7.96 12.33a.36.36 0 00.42.37l4.44-.75q1.66-.29.33.75-5.67 4.42-6.77 11.55-.1.69.47.29 3.16-2.26 6.93-3.36a.29.29 0 01.33.42c-2.43 4.39-5.2 8.8-6.11 13.62q-3.1 16.54 6.65 30.6 1.27 1.83 1.37-.39.88-19.8 18.31-31.48c4.1-2.75 12-3.97 16.54-1.03 8.52 5.53-.06 27.96-2.65 35.67-2.31 6.87-3.29 12.07-3.33 18.71-.06 10.72-.54 20.66 2.98 31.01 2.89 8.53 5 16.34 10.68 24.32 14.44 20.27 38.9 29.44 62.85 31.15 5.13.37 17.68.01 17.18 7.91-.17 2.86-.12 5 .18 7.67a.92.92 0 00.5.71q2.39 1.2 3.63 1.49c82.66 19.11 148.34 35.81 242.94 60.06 27.3 6.99 46.4 12.12 70.74 14.55 1.1.11 2.21 1.05 3.08 1.09q9.18.44 14.99-.95 1.94-.46 3.1-.21c4.99 1.07 15.47 2.79 19.81-2.51a.94.93-66.9 01.81-.33q5.08.5 9.82-1.21"/><path stroke="#10100f" vector-effect="non-scaling-stroke" d="M448.25 169.96q-2.69 1.34-4.05 3.91-.25.47-.24 1.01l.08 5.71a1.25 1.23 23.6 00.34.85q1.62 1.72 3.37.35M448.52 189.31q-3.05 6.45-9.76 8.78a.9.88 87.1 00-.58.65q-.83 3.56-1.65 7.12c-1.75 7.55-6.15 15.88-7.55 21.88-3.36 14.49-5.63 28.66-12.53 42.48q-.22.44-.63.72c-1.08.74-1.38 1.1-1.56 2.49q-.81 6.37-2.04 12.69-.09.47-.39.86l-2.12 2.77M393.5 340.21l-.71-.06a.56.34 38.1 00.32.87c6.83.98 14.49 2.74 21.29 1.78q5.74-.82 11.54-.85c6.6-.03 12.75-2.72 19-2.33q8.01.51 15.21 4.39a1.92 1.88 89.1 01.75.74q2.29 4.1 5.76 7.29a1.07 1.06 23.9 01.35.89q-.07.92-.62 1.4M466.46 356.75q-1.24.48-.71 1.55 3.41 6.94 4.09 13.37a.71.71 0 01-.53.76q-3.53.94-6.61 2.83a.97.96 72.1 00-.46.91q.78 8.65-1.38 17.07c-.39 1.51-1.16 1.92-2.54 1.04a.7.68-42.9 00-.72-.02l-.35.2M448.53 393.55q-5.13 1.33-4.59 6.82a.48.48 0 01-.84.37q-1.12-1.25-2.14-.24M442.21 493.75l1.32 1.81a1.42 1.38 29.1 01.27.91c-.75 12.45 2.06 23.46 12.02 31.58.99.81 1.83.45 1.97-.8"/><path stroke="#5e5e5f" vector-effect="non-scaling-stroke" d="M457.79 527.25q8.29 5.94 18.87 7.45"/><path stroke="#10100f" vector-effect="non-scaling-stroke" d="M476.66 534.7l4.8 2.05"/><path stroke="#5e5e5f" vector-effect="non-scaling-stroke" d="M481.46 536.75q.14 1.89 1.75 2.6a.39.39 0 00.54-.36v-1.85a.7.7 0 01.61-.69l1.2-.16a.47.46-.1 01.52.51l-.29 2.73a.84.84 0 00.61.89c2.14.62 2.37-2.09 2.63-3.51a.74.74 0 01.72-.62h.54a.59.59 0 01.6.57l.14 3.76a.83.83 0 00.56.74c2.12.71 2.54-2.34 2.21-3.76a.45.45 0 01.42-.55c2.32-.11.23 4.48 2.56 4.41a.71.7-87.1 00.67-.61l.31-2.36q.07-.47.33-.87c2.84-4.26 1.74-9.13.89-14.48-1.67-10.41-5.15-20.62-6.18-31.03q-.55-5.58-.53-11.34a.31.31 0 01.61-.07c.91 3.95 1.4 8.27 2.36 12.02 4.15 16.22 6.99 26.79 7.53 41.08.09 2.31-3.18 7.51-.93 8.73a.37.36-65.3 00.51-.19l.59-1.52q.31-.8.83-.11.8 1.06.41 2.45a.57.56 14 00.43.7l1.39.28a.54.53 14.3 00.62-.36l.75-2.36q.49-1.54 1.03-.02l.86 2.39a.71.7-12.1 00.73.47l1.27-.12a.64.63-12.8 00.54-.84l-.37-1.01a.33.33 0 01.36-.44q.93.13 1.67.65"/><path stroke="#8d8e80" vector-effect="non-scaling-stroke" d="M513.46 542.5l.66.8a.54.54 0 00.73.1l1.69-1.15"/><path stroke="#5e5e5f" vector-effect="non-scaling-stroke" d="M516.54 542.25q.8-2.18.75-3.76-.35-11.75-1.72-23.41c-1.22-10.45-4.23-23.16-6.05-34.84"/><path stroke="#908f8f" vector-effect="non-scaling-stroke" d="M509.52 480.24l3.48 2.23a.68.68 0 00.89-.15l1.2-1.49a.37.37 0 01.58 0l1.09 1.34a.57.56-39.9 00.82.07l5.36-4.95"/><path stroke="#5e5e5f" vector-effect="non-scaling-stroke" d="M522.94 477.29c.32 11.15-2.59 23.21-2.5 31.96q.14 13.25.41 26.5.07 3.32.82 6.56a.76.75-1.1 00.6.57l3.83.66a.33.33 0 00.38-.39l-.48-2.47a.59.59 0 011.11-.36c.48 1 1.96 4.11 3.34 3.62a.67.67 0 00.44-.67l-.15-2.87a.55.55 0 011.01-.33c.47.73 1.8 3.71 2.55 3.66a.52.52 0 00.47-.64l-.78-3.18a.39.38 13.7 01.63-.38l2.36 2.05q1.16 1.01.8-.49-.68-2.78-2.32-5.16a1.58 1.5-64.9 01-.27-.81c-.21-4.94-.48-9.74.36-14.75 2.31-13.84 4.24-27.75 4.21-41.82a.33.33 0 01.31-.33c.62-.05 1.21 11.73 1.31 13.02.56 6.84.29 11.73-.89 18.01q-2.22 11.79-1.72 24.56c.09 2.25.99 3.34 2.43 4.88a.5.5 0 00.76-.03l.49-.62q.55-.7.8.15l.54 1.79a1.06 1.05.6 00.69.7c1.49.47 1.47-1.72 1.34-2.52a.63.61 76.1 01.39-.67l.67-.24a.55.54 70.6 01.71.35l.58 1.76a.91.89-5.8 00.77.61q.83.07 1.31-.76"/><path stroke="#10100f" vector-effect="non-scaling-stroke" d="M550.25 539.21l1.54 3.79"/><path stroke="#5e5e5f" vector-effect="non-scaling-stroke" d="M549 494.29l.25-.08"/><path stroke="#cdcecf" vector-effect="non-scaling-stroke" d="M522.94 477.29q4.32-5.42 6.02-12.28a.76.74-60.5 00-.19-.72l-1.39-1.41a.86.86 0 01-.17-.98q1.84-3.96.7-8.3"/><path stroke="#4e4f50" vector-effect="non-scaling-stroke" d="M527.91 453.6q.03-.98.76-2.08a.39.39 0 00-.14-.56q-.23-.11-.46.09c-3.88 3.42-11.72 2.12-16.75.66"/><path stroke="#cdcecf" vector-effect="non-scaling-stroke" d="M511.32 451.71q-1.92-.18-2.24 1.64"/><path stroke="#4e4f50" vector-effect="non-scaling-stroke" d="M509.08 453.35q-1.69-2.03-3.79-2.66-.51-.16-.28.33.61 1.27 1.74 2.19"/><path stroke="#cdcecf" vector-effect="non-scaling-stroke" d="M506.75 453.21q-1.37.7-2.96.15a.43.43 0 00-.57.45l.43 5.35a.42.42 0 01-.53.44l-1.64-.43a.41.4 15.6 00-.49.27c-.36 1.24 3.62 6.04 3.27 6.95a.47.46 34.6 01-.78.14l-1.52-1.73a.55.54-43.3 00-.79-.02c-1.58 1.61 3.74 8.36 5.14 9.54q.38.31.6.75l2.61 5.17"/><path stroke="#cbcdc0" vector-effect="non-scaling-stroke" d="M516.54 542.25q.04-.18.01-.33a.49.48 81.8 00-.53-.4q-1.4.13-2.56.98"/><path stroke="#5e5e5f" vector-effect="non-scaling-stroke" d="M511.5 440.04q-4.94 3.1-8.91 7.34-.38.41.1.14l9.27-5.27"/><path stroke="#4e4f50" vector-effect="non-scaling-stroke" d="M550.25 539.21q.1-1.23-.46-2.42a.33.33 0 01.47-.43l2.97 1.75a.56.56 0 00.78-.2q.96-1.65.28-3.48a.81.8-12.4 00-.82-.52c-1.62.16-12.83 2.17-12.94.74a.59.58 82.3 01.47-.62c19.3-3.89 13.02-27.75 8.25-39.82"/><path stroke="#10100f" vector-effect="non-scaling-stroke" d="M549.25 494.21q.04-1.15-.37-2.2-.21-.55-.3.04-.17 1.15.42 2.24"/><path stroke="#4e4f50" vector-effect="non-scaling-stroke" d="M549 494.29q.31 6.73-1.89 14.46-.94 3.31-.73-.12.65-10.27-.95-21.67c-.89-6.33-3.3-11.97-5.81-17.83-2.15-5.02-6.26-11.02-8.41-17.28a1.47 1.44 53.6 01.19-1.33l4.62-6.56a1.39 1.39 0 00-.36-1.95l-2.69-1.81q-1.18-.79.23-.94 2.06-.23 3.31 1.42.69.9.87-.22l.38-2.34a.81.81 0 00-.71-.94l-2.24-.22a.49.49 0 01-.44-.53l.17-2.43M534.54 434q.23-.75.7-1.32a1.11 1.09 18.4 01.84-.41q1.16-.01 1.95-.74a.72.71-35.4 00.15-.84c-2.5-4.9-3.87-10.78-6.73-15.3a1.33 1.3-57.3 01-.19-.92q1.78-10.92-.86-21.66a.39.39 0 00-.74-.06l-5.16 11.96"/><path stroke="#7d7f71" vector-effect="non-scaling-stroke" d="M524.5 404.71q-2.02 1.77-.25 3.33"/><path stroke="#4e4f50" vector-effect="non-scaling-stroke" d="M524.25 408.04q1.12.72 1.37 2.05a.35.34 3.2 01-.44.39q-8.44-2.41-17.1-.93a.74.74 0 01-.73-.3q-5.7-8.12-12.95-14.81a.39.38-57.9 00-.62.15q-2.76 7.27-1.63 14.37c.55 3.51 1.42 5.34.05 8.7-3.25 8-5.19 17.77-.71 25.5a.54.54 0 00.71.21q9.51-4.69 19.8-6.91"/><path stroke="gray" vector-effect="non-scaling-stroke" d="M512 436.46q1.04-.13 1.48.51a.47.46 62.3 01-.21.69l-2.27.88"/><path stroke="#4e4f50" vector-effect="non-scaling-stroke" d="M511 438.54c-6.41 1.01-11.52 3.36-17.5 5.66a1.07 1.07 0 00-.5 1.61l4.01 5.82a.5.5 0 01-.21.74q-.32.15-.66.15a1.12 1.1 20.2 00-.84.38q-3.83 4.45-4.09 10.22c-.42 9.48-1.19 20.23-4.03 29.33-3.92 12.57-9.25 24.65-4.91 38a.72.72 0 00.76.49q6.93-.78 12.79 3.04a.4.4 0 01-.18.73c-3.2.25-12.81-1.83-14.18 2.04M476.66 534.7q2.5-3.42.3-7.16a1.19 1.17-7.8 00-.74-.55c-18.03-4.69-26.33-21.29-19.61-38.81 2.22-5.78 5.37-12.23 6.13-17.77.72-5.32.59-18.07-8.27-15.59a1.11 1.09-85.6 00-.69.6c-1.15 2.46-.14 4.35.03 6.46q.78 9.3-4.08 18.85c-7.78 15.25-6.09 35.4 8.06 46.52"/><path stroke="#9b9d9f" vector-effect="non-scaling-stroke" d="M534.54 434q-.46-.68-1.03-.53a.66.65 82.2 00-.49.65q.03 1.8-.77 3.42"/><path stroke="#cdcecf" vector-effect="non-scaling-stroke" d="M532.25 437.54q-.81-.3-1.43-.91a.53.53 0 01-.03-.73c3.64-4.14-.7-8.54-5.04-9.36"/><path stroke="#4e4f50" vector-effect="non-scaling-stroke" d="M525.75 426.54c6.88 1.6 6.98-7.77.14-7.88a1.04 1.03-70 00-.83.39q-2.37 2.86-1.35 6.7"/><path stroke="#cdcecf" vector-effect="non-scaling-stroke" d="M523.71 425.75l-2.29-2.25a.47.47 0 00-.73.09q-2.63 4.19-7.75 4.64a.84.84 0 00-.74.62l-.99 3.65"/><path stroke="#5e5e5f" vector-effect="non-scaling-stroke" d="M511.21 432.5q-10.25-.09-19.72 3.66a.38.38 0 00-.24.34l-.01.3a.29.29 0 00.35.29c6.72-1.31 12.94-3.24 20.2-2.34"/><path stroke="#cdcecf" vector-effect="non-scaling-stroke" d="M511.79 434.75l.21 1.71"/><path stroke="#cbcdc0" vector-effect="non-scaling-stroke" d="M524.25 408.04q1.09-1.17 1.18-2.75a.5.49-85.2 00-.44-.53l-.49-.05"/><path stroke="#cdcecf" vector-effect="non-scaling-stroke" d="M532.25 437.54l.14.52a1.34 1.32-39.1 01-.11 1q-3.19 5.94-9.38 8.77a.94.93 46.7 01-.83-.03c-3.24-1.82-6.9-2.49-10.11-5.55"/><path stroke="#908f8f" vector-effect="non-scaling-stroke" d="M511.96 442.25l5.11-3.53a.33.32 17.5 00-.3-.57l-5.27 1.89"/><path stroke="#cdcecf" vector-effect="non-scaling-stroke" d="M511.5 440.04l-.5-1.5"/><path stroke="#908f8f" vector-effect="non-scaling-stroke" d="M511.79 434.75q1.37.28 2.55-.29a.64.64 0 00.33-.76c-.23-.78-2.67-.93-3.46-1.2"/><path stroke="gray" vector-effect="non-scaling-stroke" d="M527.91 453.6q-2.75 3.43-5.99 5.62a.7.69 46.2 01-.81-.02l-9.79-7.49M509.08 453.35q.73 3.17-2.33-.14M525.75 426.54q-1.56.74-2.04-.79"/><path stroke="#cbcdc0" vector-effect="non-scaling-stroke" d="M446.11 308.26c-1.07-.19-2.06 2.91-2.19 3.69q-.12.73.3.12l2.17-3.13a.44.43-67.7 00-.28-.68"/><path stroke="#8d8e80" vector-effect="non-scaling-stroke" d="M386.47 345.95l1.04 1.09a.64.63-50.4 00.99-.1c.96-1.49-.98-2.19-2-1.37a.26.26 0 00-.03.38"/><path stroke="#4e4f50" vector-effect="non-scaling-stroke" d="M538.49 434.62a.8.8 0 00-.764-.834l-2.038-.09a.8.8 0 00-.834.765l-.024.56a.8.8 0 00.764.833l2.038.09a.8.8 0 00.834-.765l.024-.56M505.69 426.31q3.57 2.58 7.73.19a.77.76 71.6 00.37-.75c-1.56-11.6-14.24-3.87-8.1.56"/><path stroke="gray" vector-effect="non-scaling-stroke" d="M525.41 421.41c-.69 1.63.16 5.25 1.92 2.97a.83.82 44.1 00-.02-1.03l-1.6-1.99a.18.18 0 00-.3.05"/><path stroke="#7d7f71" vector-effect="non-scaling-stroke" d="M507.86 426.12q2.19.72 1.18-1.35-.87-1.77-2.94-2.52a.47.46-77.6 00-.62.4q-.21 2.61 2.38 3.47"/><path stroke="gray" vector-effect="non-scaling-stroke" d="M524.03 439.34a.88.88 0 011.25-.04q1.26 1.19 2.64 2.22 2.61 1.97.51-.54l-2.47-2.95a1.28 1.22 28.4 01-.3-.93q.28-3.3 1.83-6.08a.5.5 0 00-.23-.7c-1.35-.61-4.64-1.27-5.56.41a.56.56 0 00.31.79l.86.29a1.76 1.71-7.6 01.81.6c2.93 4.06-.91 6.89-3.64 9.27q-.43.38.11.56c1.04.35 3.21-2.16 3.88-2.9"/><path stroke="#cdcecf" vector-effect="non-scaling-stroke" d="M529.6 435.73l.29.29q.58.58.39-.22l-.47-2a.71.69 82.8 00-.69-.55h-.62a.58.57 80.3 00-.54.77q.38 1.04 1.41 1.54.13.07.23.17"/><path stroke="#908f8f" vector-effect="non-scaling-stroke" d="M518.44 436.28a.65.65 0 00.6-1l-.9-1.36q-.49-.74-.89.06-1.01 2.07 1.19 2.3"/><path stroke="#fdfef0" vector-effect="non-scaling-stroke" d="M589.94 591l-.19-.71"/><path stroke="#8d8e80" vector-effect="non-scaling-stroke" d="M1.25 590.21q7.88.9 15.84.6a.1.1 0 01.1.1v.09M576.44 591q-3.38-.63-6.75 0M24.44 591q-3.38-.63-6.75 0"/></g><path d="M0 0h590.06l.19.29.04 589.46-.54.54-588.5-.08-1.25-.27V0zm4.29 23.75v562a.5.5 0 00.5.5h580.96a.5.5 0 00.5-.5V5.31a1.05 1.05 0 00-1.05-1.05l-559.7.03-20.69.02a.5.5 0 00-.5.5l-.02 18.94z"/><path fill="#201f1e" d="M590.06 0h.94v587.31c-.84-.45-.25-537.06-.25-586.81a.25.24-86.1 00-.21-.25q-.17-.02-.29.04l-.19-.29z"/><path fill="#fafde1" d="M590.25.29q.12-.06.29-.04a.25.24-86.1 01.21.25c0 49.75-.59 586.36.25 586.81v2.75l-.71-.31L590.25.29z"/><path fill="#fff" d="M25.5 4.29l.45 2.52a.66.66 0 01-.36.71q-8.36 4.21-15.35 10.47c-1.29 1.16-1.92 4.2-3.58 5.25q-1.09.68-2.37.51l.02-18.94a.5.5 0 01.5-.5l20.69-.02z"/><path fill="#fafde1" d="M25.5 4.29l559.7-.03a1.05 1.05 0 011.05 1.05v580.44a.5.5 0 01-.5.5H4.79a.5.5 0 01-.5-.5v-562q1.28.17 2.37-.51c1.66-1.05 2.29-4.09 3.58-5.25q6.99-6.26 15.35-10.47a.66.66 0 00.36-.71l-.45-2.52zm188.44 18.867a.92.62 18.8 00-.67-.884.92.62 18.8 00-1.07.29.92.62 18.8 00.67.884.92.62 18.8 001.07-.29zM421.1 27.875a2.23.25-44.2 00-1.773 1.376 2.23.25-44.2 00-1.425 1.734 2.23.25-44.2 001.773-1.376 2.23.25-44.2 001.425-1.734zM97.82 37.71q-.96-.51-1.51-.52-19.1-.09-38.21.89c-18.16.94-21.45 8.59-21.28 26.03q.17 18.01.06 34.87-.03 2.98 2.1.88 24.75-24.51 48.89-49.24 5.4-5.52 10.2-11.74a.78.78 0 00-.25-1.17zM551.79 543q2.99-.71 5.7-2.58a1.87 1.86-23.1 00.77-1.9q-1.45-7.13-1.16-14.45c.45-11.43-.13-19.79-4.35-30.28q-1.77-4.4-2.87-8.37-3.79-13.76-12.09-27.22-.78-1.26-3.02-6.53a.99.98-39.1 01.1-.93l3.73-5.41a.53.52-49.7 01.82-.07c.64.68 3.06 4.46 3.88 3.83a.77.76 52.8 00.14-1.07l-3.71-4.77a.86.84-52.1 01-.1-.87l.74-1.65a.9.9 0 01.89-.53c4.55.36 10.38 6.12 13.92 8.91a.29.29 0 00.41-.41q-5.58-6.9-13.58-10.72a.91.9 13.3 01-.52-.83l.04-2.34a.56.55-90 01.54-.55q8.87-.2 15.97 4.89.46.33.24-.19c-1.91-4.54-11.38-6.5-15.81-6.62a.67.66 84.2 01-.62-.51c-.22-.95-.22-1.27-.77-2.14q-3.49-5.53-4.94-11.93-.11-.5-.44-.88c-.98-1.18-1.27-1.75-1.13-3.4.52-5.89 1.09-19.79-3.67-24.14a1.88 1.88 0 00-3.02.72q-3.14 8.28-7.69 15.9a.82.8-73.2 01-.73.4l-9.84-.32a1.04 1-19.4 01-.7-.32c-4.08-4.47-9.27-12.6-14.73-14.91a1.18 1.17-45.3 00-.94.01c-4.87 2.22-4.5 17.48-3.95 21.43.71 5.17-3.04 10.91-3.97 15.83q-.63 3.34-1.04 6.74c-.57 4.69 3.75 10.77 5.9 14.78 2.03 3.79-2.73 9.14-2.62 11.98q.14 3.42-1.81 6.2a.45.45 0 00.27.7l.58.13a.63.63 0 01.49.67q-1.52 18.2-7.71 35.38-.18.48-.13.99.08.93-.45 1.77a.61.61 0 01-.75.25l-19.18-7.62a1.94 1.93 17.1 01-1.18-2.21q.57-2.63 1.19-5.18c1.83-7.55 6.3-14.44 7.1-22.06q.55-5.27-.39-10.56c-.95-5.36-5.44-9.84-11.02-8.26-2.87.81-4.97 3.91-4.56 6.74 1.15 7.97.46 11.48-2.82 19.5q-3.13 7.65-4.99 15.73c-28.14-12-56.92-22.56-85.38-33.87a.83.82 8.7 01-.52-.7q-1.17-14.71-7.1-28.21-.63-1.42.65-.53l3.23 2.26a.33.33 0 00.51-.24c.74-7.95-2.87-15.35-8.7-20.49-9.83-8.67-17.18-19.2-11.19-31.77a.24.24 0 01.46.1q.14 3.29 2.59 5.52a.49.49 0 00.76-.14l1.1-2.07a.27.26 22 01.32-.13l.25.08a.24.24 0 01.17.23l.04 4.75a.55.55 0 00.65.53l6.02-1.14a.76.75 67.3 01.76.32l.24.37a.99.98 71 00.89.44c8.46-.65 16.81-1.41 25.32.12 14.4 2.57 26.26 4.94 42.6 3.84q2.39-.16 5.54.46c3.09.61 7.75-1.01 9.34 1.37q3.58 5.36 10.2 5.65 1.97 2.14 1.85 5.02a.7.7 0 00.46.7c2.01.75 2.53-6.15 2.46-7.69a1.64 1.6 60.3 01.24-.92l2.56-4.06q4.42-.17 8.72.91l3.25 4.43a.3.3 0 00.49-.02c2-3.19 1.76-7.3 2.29-10.09q1.12-6 .3-12.15a.75.74 72.5 01.39-.76l4.09-2.15a1.07 1.05 45.6 011.02.02l3.69 2.13a.71.71 0 001.05-.78c-.84-3.43-2.59-5.81-3.22-9.2q-.94-5.02-4.14-9.14-1.67-1.65-.07-2.42l3.47 2.12a.35.34 17.3 00.53-.27c.15-3.3-5.58-7.9-7.52-10.81-4.65-6.98-18.24-7.49-25.34-6.06q-6.9 1.39-13.94 1.51-3.26.06-6.25.55c-7.62 1.26-16.16-.45-23.84-1.16q-11.55-1.51-22.81-4.48c-2.58-.68-3.76-4.04-4.92-6.54-3.77-8.06-12.57-14.44-12.09-23.25.14-2.51-.53-4.34-.84-6.71a.42.41-2.9 01.43-.47q9.8.35 12.51-.44 12.53-3.68 25.57-3.22a.94.93 76.1 01.8.49l.53.97q.32.57.65 0 1.61-2.77 4.62-4.07a.72.71 59.4 01.84.22l.89 1.15a.51.5-33.7 00.66.13q5.41-3.13 9.37-4.24l.07 2.7a.49.49 0 00.92.22q4.42-8.57 4.75-18.25a1.73 1.68 64.5 01.31-.92c12.18-17.81 10.47-40.29 19.77-59.71 2.17-4.53 2.74-9.51 4.04-14.33a.92.91-1.3 01.61-.63q7.09-2.2 8.34-9.52 3.3-.12 5.05 1.52a.31.31 0 00.5-.14c1.24-3.99-2.75-7.8-6.32-8.9l-2.04-.86a.53.53 0 01-.31-.51l.24-5.66a1.59 1.59 0 011.6-1.53l2.48.03a.43.43 0 00.41-.54q-.47-1.69-1.88-2.76-5.92-3.86-13.1-3.75a.39.39 0 01-.37-.54q.51-1.13 1.61-1.76a.83.83 0 00.41-.81c-.22-2.03-10.3-1.58-12.35-1.37-3.62.35-5.85 3.99-9.8 5.09-5.82 1.62-8.52 4.39-11.86 9.6q-1.66 2.58-3.88 4.68c-2.87 2.7-3.97 5.09-5.08 8.47q-4.1 12.5-8.65 22.86-.63 1.43-1.57 2.67-8.88 11.72-17.57 23.59c-4.2 5.74-14.08 5.21-20.46 5.11a1.37 1.36 76.4 01-1.19-.73q-3.25-6.1-9.4-9.03-1.1-.53.12-.54l6.59-.06q.86-.01.13-.45c-3.4-2.05-7.77-2.42-10.75-3.35-3.2-.99-6.51-1.49-9.41-2.76-5.05-2.21-20.43-11.67-20.38-17.62q0-.62.52-.29l1.66 1.04a1.5 1.45 59.6 00.82.23c9.02-.2 19.4-.2 25.43 7.58a.34.34 0 00.54 0l1.79-2.25q.73-.93.98.23l.27 1.3q.19.91.66.1c3.64-6.39 7.7-8.08 5.46-16.8-.29-1.16.08-1.75.45-2.81a1.03 1.02 35.2 00-.17-.97q-2.14-2.64-5.67-2.07a.54.54 0 01-.63-.51q-.2-5.85-1.7-11.58a.79.79 0 00-1.44-.22c-1.13 1.83-7.48 12.03-9.44 11.22q-3.59-1.49-6.2-1.82-2.54-.32-2.01-2.83 2.71-12.83 9.38-23.58c2.36-3.81 5.26-4.49 9.33-3.03a1.03 1.02-85.2 01.67.8l1.41 8.27a.8.8 0 001.37.41q3.61-3.84 4.31-9.12a.69.68 86.9 01.52-.58c9.05-2.32 7.97-13.33 7.22-21q-.05-.55-.37-1-1.97-2.76-.7-6.09a.93.93 0 00-.13-.89c-4.58-6.11-8.59-11.92-16.17-8.66a1.5 1.49 39.9 01-.95.08q-4.27-.98-8.63-.47c-1.82.21-4.95 1.52-7.56.97q-3.94-.84-7.23-.94c-3.23-.09-5.91 1.7-9.59 1.52a1.23 1.22-83.3 01-1.15-1.46c.96-4.94 1.36-9.47-1.11-14.08q-7.13-13.3-23.13-14.33-.53-.04-.14.33l6.12 5.72a.51.51 0 01-.55.84q-7.07-2.91-14.54-5.11c-4.32-1.27-8.69-1.71-13.23-2.4-10.27-1.56-23.72-1.91-33.23 3.02-1.89.98-8.13 4.64-8.12 6.72q0 .53.44.24 7.65-5.04 16.83-4.8.5.02.07.27-11.09 6.56-22.74 12.05-7.79 3.67-12.14 3.67c-8.64 0-15.4-6.06-18.3-13.97a.61.61 0 00-1.18.12c-1.37 8.74 2.36 19.86 10.63 24.35a.45.45 0 01-.22.84c-3.37-.07-5.59-1.51-8.8-2.15q-.43-.08-.27.33 2.7 6.78 9.74 8.59.76.19.03.5c-16.02 6.72-34.1 17.87-38.06 36.56q-3.61 17.06 3.09 33.73 1.19 2.96 3.78 5a.29.29 0 00.46-.31c-2.38-8.73-3.07-19.53 3.5-26.86q.34-.38.19.11-3.82 12.7-.35 25.15c1.77 6.36 13.17 25.67.72 28.17q-5.03 1-9.34-2.25-.4-.3-.28.18c2.04 8.43 12.44 13.5 20.28 14.16a.59.59 0 01.54.53c2.13 21.4 19 37.69 37.76 46.81a1.37 1.34 1.6 01.66.68c5.73 13.37 11.24 30.4 11.04 45.05-.2 14.79-2.07 30.9-6.97 44.92-2.94 8.43-6.98 13.36-11.45 19.87-2.44 3.55-5.55 6.1-8.59 9.12q-1.94 1.93.8 2.05l1.18.05a.47.47 0 01.43.61l-3.26 10.85a.77.77 0 01-.66.54c-11.35 1.22-20.78 1.73-31.23-.49-27.6-5.86-42.7-30.86-42.45-58.35.07-8.25 3.16-21.76 6.51-28.86 8.72-18.49 16.85-42.62 2.14-60.81q-.32-.39-.48.09c-.46 1.45.25 6.57-.51 6.84a.5.5 0 01-.65-.34c-7.25-25.73-44.93-21.6-59.77-6.64-3 3.02-7.71 7.88-7.96 12.33a.36.36 0 00.42.37l4.44-.75q1.66-.29.33.75-5.67 4.42-6.77 11.55-.1.69.47.29 3.16-2.26 6.93-3.36a.29.29 0 01.33.42c-2.43 4.39-5.2 8.8-6.11 13.62q-3.1 16.54 6.65 30.6 1.27 1.83 1.37-.39.88-19.8 18.31-31.48c4.1-2.75 12-3.97 16.54-1.03 8.52 5.53-.06 27.96-2.65 35.67-2.31 6.87-3.29 12.07-3.33 18.71-.06 10.72-.54 20.66 2.98 31.01 2.89 8.53 5 16.34 10.68 24.32 14.44 20.27 38.9 29.44 62.85 31.15 5.13.37 17.68.01 17.18 7.91-.17 2.86-.12 5 .18 7.67a.92.92 0 00.5.71q2.39 1.2 3.63 1.49c82.66 19.11 148.34 35.81 242.94 60.06 27.3 6.99 46.4 12.12 70.74 14.55 1.1.11 2.21 1.05 3.08 1.09q9.18.44 14.99-.95 1.94-.46 3.1-.21c4.99 1.07 15.47 2.79 19.81-2.51a.94.93-66.9 01.81-.33q5.08.5 9.82-1.21zM446.11 308.26c-1.07-.19-2.06 2.91-2.19 3.69q-.12.73.3.12l2.17-3.13a.44.43-67.7 00-.28-.68z"/><ellipse fill="#9b9d9f" transform="rotate(18.8 37.492 654.956)" rx=".92" ry=".62"/><ellipse fill="#201f1e" transform="rotate(-44.2 245.989 -501.837)" rx="2.23" ry=".25"/><path fill="#fae5ad" d="M97.82 37.71a.78.78 0 01.25 1.17q-4.8 6.22-10.2 11.74-24.14 24.73-48.89 49.24-2.13 2.1-2.1-.88.11-16.86-.06-34.87c-.17-17.44 3.12-25.09 21.28-26.03q19.11-.98 38.21-.89.55.01 1.51.52z"/><path fill="#201f1e" d="M448.25 169.96q-2.69 1.34-4.05 3.91-.25.47-.24 1.01l.08 5.71a1.25 1.23 23.6 00.34.85q1.62 1.72 3.37.35c3.57 1.1 7.56 4.91 6.32 8.9a.31.31 0 01-.5.14q-1.75-1.64-5.05-1.52-3.05 6.45-9.76 8.78a.9.88 87.1 00-.58.65q-.83 3.56-1.65 7.12c-1.75 7.55-6.15 15.88-7.55 21.88-3.36 14.49-5.63 28.66-12.53 42.48q-.22.44-.63.72c-1.08.74-1.38 1.1-1.56 2.49q-.81 6.37-2.04 12.69-.09.47-.39.86l-2.12 2.77q-3.96 1.11-9.37 4.24a.51.5-33.7 01-.66-.13l-.89-1.15a.72.71 59.4 00-.84-.22q-3.01 1.3-4.62 4.07-.33.57-.65 0l-.53-.97a.94.93 76.1 00-.8-.49q-13.04-.46-25.57 3.22-2.71.79-12.51.44a.42.41-2.9 00-.43.47c.31 2.37.98 4.2.84 6.71-.48 8.81 8.32 15.19 12.09 23.25 1.16 2.5 2.34 5.86 4.92 6.54q11.26 2.97 22.81 4.48l-.71-.06a.56.34 38.1 00.32.87c6.83.98 14.49 2.74 21.29 1.78q5.74-.82 11.54-.85c6.6-.03 12.75-2.72 19-2.33q8.01.51 15.21 4.39a1.92 1.88 89.1 01.75.74q2.29 4.1 5.76 7.29a1.07 1.06 23.9 01.35.89q-.07.92-.62 1.4-1.6.77.07 2.42-1.24.48-.71 1.55 3.41 6.94 4.09 13.37a.71.71 0 01-.53.76q-3.53.94-6.61 2.83a.97.96 72.1 00-.46.91q.78 8.65-1.38 17.07c-.39 1.51-1.16 1.92-2.54 1.04a.7.68-42.9 00-.72-.02l-.35.2q-4.3-1.08-8.72-.91-5.13 1.33-4.59 6.82a.48.48 0 01-.84.37q-1.12-1.25-2.14-.24-6.62-.29-10.2-5.65c-1.59-2.38-6.25-.76-9.34-1.37q-3.15-.62-5.54-.46c-16.34 1.1-28.2-1.27-42.6-3.84-8.51-1.53-16.86-.77-25.32-.12a.99.98 71 01-.89-.44l-.24-.37a.76.75 67.3 00-.76-.32l-6.02 1.14a.55.55 0 01-.65-.53l-.04-4.75a.24.24 0 00-.17-.23l-.25-.08a.27.26 22 00-.32.13l-1.1 2.07a.49.49 0 01-.76.14q-2.45-2.23-2.59-5.52a.24.24 0 00-.46-.1c-5.99 12.57 1.36 23.1 11.19 31.77 5.83 5.14 9.44 12.54 8.7 20.49a.33.33 0 01-.51.24l-3.23-2.26q-1.28-.89-.65.53 5.93 13.5 7.1 28.21a.83.82 8.7 00.52.7c28.46 11.31 57.24 21.87 85.38 33.87l1.32 1.81a1.42 1.38 29.1 01.27.91c-.75 12.45 2.06 23.46 12.02 31.58.99.81 1.83.45 1.97-.8q8.29 5.94 18.87 7.45l4.8 2.05q.14 1.89 1.75 2.6a.39.39 0 00.54-.36v-1.85a.7.7 0 01.61-.69l1.2-.16a.47.46-.1 01.52.51l-.29 2.73a.84.84 0 00.61.89c2.14.62 2.37-2.09 2.63-3.51a.74.74 0 01.72-.62h.54a.59.59 0 01.6.57l.14 3.76a.83.83 0 00.56.74c2.12.71 2.54-2.34 2.21-3.76a.45.45 0 01.42-.55c2.32-.11.23 4.48 2.56 4.41a.71.7-87.1 00.67-.61l.31-2.36q.07-.47.33-.87c2.84-4.26 1.74-9.13.89-14.48-1.67-10.41-5.15-20.62-6.18-31.03q-.55-5.58-.53-11.34a.31.31 0 01.61-.07c.91 3.95 1.4 8.27 2.36 12.02 4.15 16.22 6.99 26.79 7.53 41.08.09 2.31-3.18 7.51-.93 8.73a.37.36-65.3 00.51-.19l.59-1.52q.31-.8.83-.11.8 1.06.41 2.45a.57.56 14 00.43.7l1.39.28a.54.53 14.3 00.62-.36l.75-2.36q.49-1.54 1.03-.02l.86 2.39a.71.7-12.1 00.73.47l1.27-.12a.64.63-12.8 00.54-.84l-.37-1.01a.33.33 0 01.36-.44q.93.13 1.67.65l.66.8a.54.54 0 00.73.1l1.69-1.15q.8-2.18.75-3.76-.35-11.75-1.72-23.41c-1.22-10.45-4.23-23.16-6.05-34.84l3.48 2.23a.68.68 0 00.89-.15l1.2-1.49a.37.37 0 01.58 0l1.09 1.34a.57.56-39.9 00.82.07l5.36-4.95c.32 11.15-2.59 23.21-2.5 31.96q.14 13.25.41 26.5.07 3.32.82 6.56a.76.75-1.1 00.6.57l3.83.66a.33.33 0 00.38-.39l-.48-2.47a.59.59 0 011.11-.36c.48 1 1.96 4.11 3.34 3.62a.67.67 0 00.44-.67l-.15-2.87a.55.55 0 011.01-.33c.47.73 1.8 3.71 2.55 3.66a.52.52 0 00.47-.64l-.78-3.18a.39.38 13.7 01.63-.38l2.36 2.05q1.16 1.01.8-.49-.68-2.78-2.32-5.16a1.58 1.5-64.9 01-.27-.81c-.21-4.94-.48-9.74.36-14.75 2.31-13.84 4.24-27.75 4.21-41.82a.33.33 0 01.31-.33c.62-.05 1.21 11.73 1.31 13.02.56 6.84.29 11.73-.89 18.01q-2.22 11.79-1.72 24.56c.09 2.25.99 3.34 2.43 4.88a.5.5 0 00.76-.03l.49-.62q.55-.7.8.15l.54 1.79a1.06 1.05.6 00.69.7c1.49.47 1.47-1.72 1.34-2.52a.63.61 76.1 01.39-.67l.67-.24a.55.54 70.6 01.71.35l.58 1.76a.91.89-5.8 00.77.61q.83.07 1.31-.76l1.54 3.79q-4.74 1.71-9.82 1.21a.94.93-66.9 00-.81.33c-4.34 5.3-14.82 3.58-19.81 2.51q-1.16-.25-3.1.21-5.81 1.39-14.99.95c-.87-.04-1.98-.98-3.08-1.09-24.34-2.43-43.44-7.56-70.74-14.55-94.6-24.25-160.28-40.95-242.94-60.06q-1.24-.29-3.63-1.49a.92.92 0 01-.5-.71c-.3-2.67-.35-4.81-.18-7.67.5-7.9-12.05-7.54-17.18-7.91-23.95-1.71-48.41-10.88-62.85-31.15-5.68-7.98-7.79-15.79-10.68-24.32-3.52-10.35-3.04-20.29-2.98-31.01.04-6.64 1.02-11.84 3.33-18.71 2.59-7.71 11.17-30.14 2.65-35.67-4.54-2.94-12.44-1.72-16.54 1.03q-17.43 11.68-18.31 31.48-.1 2.22-1.37.39-9.75-14.06-6.65-30.6c.91-4.82 3.68-9.23 6.11-13.62a.29.29 0 00-.33-.42q-3.77 1.1-6.93 3.36-.57.4-.47-.29 1.1-7.13 6.77-11.55 1.33-1.04-.33-.75l-4.44.75a.36.36 0 01-.42-.37c.25-4.45 4.96-9.31 7.96-12.33 14.84-14.96 52.52-19.09 59.77 6.64a.5.5 0 00.65.34c.76-.27.05-5.39.51-6.84q.16-.48.48-.09c14.71 18.19 6.58 42.32-2.14 60.81-3.35 7.1-6.44 20.61-6.51 28.86-.25 27.49 14.85 52.49 42.45 58.35 10.45 2.22 19.88 1.71 31.23.49a.77.77 0 00.66-.54l3.26-10.85a.47.47 0 00-.43-.61l-1.18-.05q-2.74-.12-.8-2.05c3.04-3.02 6.15-5.57 8.59-9.12 4.47-6.51 8.51-11.44 11.45-19.87 4.9-14.02 6.77-30.13 6.97-44.92.2-14.65-5.31-31.68-11.04-45.05a1.37 1.34 1.6 00-.66-.68c-18.76-9.12-35.63-25.41-37.76-46.81a.59.59 0 00-.54-.53c-7.84-.66-18.24-5.73-20.28-14.16q-.12-.48.28-.18 4.31 3.25 9.34 2.25c12.45-2.5 1.05-21.81-.72-28.17q-3.47-12.45.35-25.15.15-.49-.19-.11c-6.57 7.33-5.88 18.13-3.5 26.86a.29.29 0 01-.46.31q-2.59-2.04-3.78-5-6.7-16.67-3.09-33.73c3.96-18.69 22.04-29.84 38.06-36.56q.73-.31-.03-.5-7.04-1.81-9.74-8.59-.16-.41.27-.33c3.21.64 5.43 2.08 8.8 2.15a.45.45 0 00.22-.84c-8.27-4.49-12-15.61-10.63-24.35a.61.61 0 011.18-.12c2.9 7.91 9.66 13.97 18.3 13.97q4.35 0 12.14-3.67 11.65-5.49 22.74-12.05.43-.25-.07-.27-9.18-.24-16.83 4.8-.44.29-.44-.24c-.01-2.08 6.23-5.74 8.12-6.72 9.51-4.93 22.96-4.58 33.23-3.02 4.54.69 8.91 1.13 13.23 2.4q7.47 2.2 14.54 5.11a.51.51 0 00.55-.84l-6.12-5.72q-.39-.37.14-.33 16 1.03 23.13 14.33c2.47 4.61 2.07 9.14 1.11 14.08a1.23 1.22-83.3 001.15 1.46c3.68.18 6.36-1.61 9.59-1.52q3.29.1 7.23.94c2.61.55 5.74-.76 7.56-.97q4.36-.51 8.63.47a1.5 1.49 39.9 00.95-.08c7.58-3.26 11.59 2.55 16.17 8.66a.93.93 0 01.13.89q-1.27 3.33.7 6.09.32.45.37 1c.75 7.67 1.83 18.68-7.22 21a.69.68 86.9 00-.52.58q-.7 5.28-4.31 9.12a.8.8 0 01-1.37-.41l-1.41-8.27a1.03 1.02-85.2 00-.67-.8c-4.07-1.46-6.97-.78-9.33 3.03q-6.67 10.75-9.38 23.58-.53 2.51 2.01 2.83 2.61.33 6.2 1.82c1.96.81 8.31-9.39 9.44-11.22a.79.79 0 011.44.22q1.5 5.73 1.7 11.58a.54.54 0 00.63.51q3.53-.57 5.67 2.07a1.03 1.02 35.2 01.17.97c-.37 1.06-.74 1.65-.45 2.81 2.24 8.72-1.82 10.41-5.46 16.8q-.47.81-.66-.1l-.27-1.3q-.25-1.16-.98-.23l-1.79 2.25a.34.34 0 01-.54 0c-6.03-7.78-16.41-7.78-25.43-7.58a1.5 1.45 59.6 01-.82-.23l-1.66-1.04q-.52-.33-.52.29c-.05 5.95 15.33 15.41 20.38 17.62 2.9 1.27 6.21 1.77 9.41 2.76 2.98.93 7.35 1.3 10.75 3.35q.73.44-.13.45l-6.59.06q-1.22.01-.12.54 6.15 2.93 9.4 9.03a1.37 1.36 76.4 001.19.73c6.38.1 16.26.63 20.46-5.11q8.69-11.87 17.57-23.59.94-1.24 1.57-2.67 4.55-10.36 8.65-22.86c1.11-3.38 2.21-5.77 5.08-8.47q2.22-2.1 3.88-4.68c3.34-5.21 6.04-7.98 11.86-9.6 3.95-1.1 6.18-4.74 9.8-5.09 2.05-.21 12.13-.66 12.35 1.37a.83.83 0 01-.41.81q-1.1.63-1.61 1.76a.39.39 0 00.37.54q7.18-.11 13.1 3.75zm-61.78 175.99l1.04 1.09a.64.63-50.4 00.99-.1c.96-1.49-.98-2.19-2-1.37a.26.26 0 00-.03.38z"/><path d="M448.25 169.96q1.41 1.07 1.88 2.76a.43.43 0 01-.41.54l-2.48-.03a1.59 1.59 0 00-1.6 1.53l-.24 5.66a.53.53 0 00.31.51l2.04.86q-1.75 1.37-3.37-.35a1.25 1.23 23.6 01-.34-.85l-.08-5.71q-.01-.54.24-1.01 1.36-2.57 4.05-3.91zM448.52 189.31q-1.25 7.32-8.34 9.52a.92.91-1.3 00-.61.63c-1.3 4.82-1.87 9.8-4.04 14.33-9.3 19.42-7.59 41.9-19.77 59.71a1.73 1.68 64.5 00-.31.92q-.33 9.68-4.75 18.25a.49.49 0 01-.92-.22l-.07-2.7 2.12-2.77q.3-.39.39-.86 1.23-6.32 2.04-12.69c.18-1.39.48-1.75 1.56-2.49q.41-.28.63-.72c6.9-13.82 9.17-27.99 12.53-42.48 1.4-6 5.8-14.33 7.55-21.88q.82-3.56 1.65-7.12a.9.88 87.1 01.58-.65q6.71-2.33 9.76-8.78z"/><path fill="#9b9d9f" d="M443.92 311.95c.13-.78 1.12-3.88 2.19-3.69a.44.43-67.7 01.28.68l-2.17 3.13q-.42.61-.3-.12z"/><path d="M466.39 354.33q.55-.48.62-1.4a1.07 1.06 23.9 00-.35-.89q-3.47-3.19-5.76-7.29a1.92 1.88 89.1 00-.75-.74q-7.2-3.88-15.21-4.39c-6.25-.39-12.4 2.3-19 2.33q-5.8.03-11.54.85c-6.8.96-14.46-.8-21.29-1.78a.56.34 38.1 01-.32-.87l.71.06c7.68.71 16.22 2.42 23.84 1.16q2.99-.49 6.25-.55 7.04-.12 13.94-1.51c7.1-1.43 20.69-.92 25.34 6.06 1.94 2.91 7.67 7.51 7.52 10.81a.35.34 17.3 01-.53.27l-3.47-2.12z"/><path fill="#fafde1" d="M386.47 345.95a.26.26 0 01.03-.38c1.02-.82 2.96-.12 2 1.37a.64.63-50.4 01-.99.1l-1.04-1.09z"/><path d="M466.46 356.75q3.2 4.12 4.14 9.14c.63 3.39 2.38 5.77 3.22 9.2a.71.71 0 01-1.05.78l-3.69-2.13a1.07 1.05 45.6 00-1.02-.02l-4.09 2.15a.75.74 72.5 00-.39.76q.82 6.15-.3 12.15c-.53 2.79-.29 6.9-2.29 10.09a.3.3 0 01-.49.02l-3.25-4.43.35-.2a.7.68-42.9 01.72.02c1.38.88 2.15.47 2.54-1.04q2.16-8.42 1.38-17.07a.97.96 72.1 01.46-.91q3.08-1.89 6.61-2.83a.71.71 0 00.53-.76q-.68-6.43-4.09-13.37-.53-1.07.71-1.55zM551.79 543l-1.54-3.79q.1-1.23-.46-2.42a.33.33 0 01.47-.43l2.97 1.75a.56.56 0 00.78-.2q.96-1.65.28-3.48a.81.8-12.4 00-.82-.52c-1.62.16-12.83 2.17-12.94.74a.59.58 82.3 01.47-.62c19.3-3.89 13.02-27.75 8.25-39.82q.04-1.15-.37-2.2-.21-.55-.3.04-.17 1.15.42 2.24.31 6.73-1.89 14.46-.94 3.31-.73-.12.65-10.27-.95-21.67c-.89-6.33-3.3-11.97-5.81-17.83-2.15-5.02-6.26-11.02-8.41-17.28a1.47 1.44 53.6 01.19-1.33l4.62-6.56a1.39 1.39 0 00-.36-1.95l-2.69-1.81q-1.18-.79.23-.94 2.06-.23 3.31 1.42.69.9.87-.22l.38-2.34a.81.81 0 00-.71-.94l-2.24-.22a.49.49 0 01-.44-.53l.17-2.43q.23-.75.7-1.32a1.11 1.09 18.4 01.84-.41q1.16-.01 1.95-.74a.72.71-35.4 00.15-.84c-2.5-4.9-3.87-10.78-6.73-15.3a1.33 1.3-57.3 01-.19-.92q1.78-10.92-.86-21.66a.39.39 0 00-.74-.06l-5.16 11.96q-2.02 1.77-.25 3.33 1.12.72 1.37 2.05a.35.34 3.2 01-.44.39q-8.44-2.41-17.1-.93a.74.74 0 01-.73-.3q-5.7-8.12-12.95-14.81a.39.38-57.9 00-.62.15q-2.76 7.27-1.63 14.37c.55 3.51 1.42 5.34.05 8.7-3.25 8-5.19 17.77-.71 25.5a.54.54 0 00.71.21q9.51-4.69 19.8-6.91 1.04-.13 1.48.51a.47.46 62.3 01-.21.69l-2.27.88c-6.41 1.01-11.52 3.36-17.5 5.66a1.07 1.07 0 00-.5 1.61l4.01 5.82a.5.5 0 01-.21.74q-.32.15-.66.15a1.12 1.1 20.2 00-.84.38q-3.83 4.45-4.09 10.22c-.42 9.48-1.19 20.23-4.03 29.33-3.92 12.57-9.25 24.65-4.91 38a.72.72 0 00.76.49q6.93-.78 12.79 3.04a.4.4 0 01-.18.73c-3.2.25-12.81-1.83-14.18 2.04l-4.8-2.05q2.5-3.42.3-7.16a1.19 1.17-7.8 00-.74-.55c-18.03-4.69-26.33-21.29-19.61-38.81 2.22-5.78 5.37-12.23 6.13-17.77.72-5.32.59-18.07-8.27-15.59a1.11 1.09-85.6 00-.69.6c-1.15 2.46-.14 4.35.03 6.46q.78 9.3-4.08 18.85c-7.78 15.25-6.09 35.4 8.06 46.52-.14 1.25-.98 1.61-1.97.8-9.96-8.12-12.77-19.13-12.02-31.58a1.42 1.38 29.1 00-.27-.91l-1.32-1.81q1.86-8.08 4.99-15.73c3.28-8.02 3.97-11.53 2.82-19.5-.41-2.83 1.69-5.93 4.56-6.74 5.58-1.58 10.07 2.9 11.02 8.26q.94 5.29.39 10.56c-.8 7.62-5.27 14.51-7.1 22.06q-.62 2.55-1.19 5.18a1.94 1.93 17.1 001.18 2.21l19.18 7.62a.61.61 0 00.75-.25q.53-.84.45-1.77-.05-.51.13-.99 6.19-17.18 7.71-35.38a.63.63 0 00-.49-.67l-.58-.13a.45.45 0 01-.27-.7q1.95-2.78 1.81-6.2c-.11-2.84 4.65-8.19 2.62-11.98-2.15-4.01-6.47-10.09-5.9-14.78q.41-3.4 1.04-6.74c.93-4.92 4.68-10.66 3.97-15.83-.55-3.95-.92-19.21 3.95-21.43a1.18 1.17-45.3 01.94-.01c5.46 2.31 10.65 10.44 14.73 14.91a1.04 1-19.4 00.7.32l9.84.32a.82.8-73.2 00.73-.4q4.55-7.62 7.69-15.9a1.88 1.88 0 013.02-.72c4.76 4.35 4.19 18.25 3.67 24.14-.14 1.65.15 2.22 1.13 3.4q.33.38.44.88 1.45 6.4 4.94 11.93c.55.87.55 1.19.77 2.14a.67.66 84.2 00.62.51c4.43.12 13.9 2.08 15.81 6.62q.22.52-.24.19-7.1-5.09-15.97-4.89a.56.55-90 00-.54.55l-.04 2.34a.91.9 13.3 00.52.83q8 3.82 13.58 10.72a.29.29 0 01-.41.41c-3.54-2.79-9.37-8.55-13.92-8.91a.9.9 0 00-.89.53l-.74 1.65a.86.84-52.1 00.1.87l3.71 4.77a.77.76 52.8 01-.14 1.07c-.82.63-3.24-3.15-3.88-3.83a.53.52-49.7 00-.82.07l-3.73 5.41a.99.98-39.1 00-.1.93q2.24 5.27 3.02 6.53 8.3 13.46 12.09 27.22 1.1 3.97 2.87 8.37c4.22 10.49 4.8 18.85 4.35 30.28q-.29 7.32 1.16 14.45a1.87 1.86-23.1 01-.77 1.9q-2.71 1.87-5.7 2.58zm-13.3-108.38a.8.8 0 00-.764-.834l-2.038-.09a.8.8 0 00-.834.765l-.024.56a.8.8 0 00.764.833l2.038.09a.8.8 0 00.834-.765l.024-.56z"/><path fill="#9b9d9f" d="M534.54 434q-.46-.68-1.03-.53a.66.65 82.2 00-.49.65q.03 1.8-.77 3.42-.81-.3-1.43-.91a.53.53 0 01-.03-.73c3.64-4.14-.7-8.54-5.04-9.36 6.88 1.6 6.98-7.77.14-7.88a1.04 1.03-70 00-.83.39q-2.37 2.86-1.35 6.7l-2.29-2.25a.47.47 0 00-.73.09q-2.63 4.19-7.75 4.64a.84.84 0 00-.74.62l-.99 3.65q-10.25-.09-19.72 3.66a.38.38 0 00-.24.34l-.01.3a.29.29 0 00.35.29c6.72-1.31 12.94-3.24 20.2-2.34l.21 1.71q-10.29 2.22-19.8 6.91a.54.54 0 01-.71-.21c-4.48-7.73-2.54-17.5.71-25.5 1.37-3.36.5-5.19-.05-8.7q-1.13-7.1 1.63-14.37a.39.38-57.9 01.62-.15q7.25 6.69 12.95 14.81a.74.74 0 00.73.3q8.66-1.48 17.1.93a.35.34 3.2 00.44-.39q-.25-1.33-1.37-2.05 1.09-1.17 1.18-2.75a.5.49-85.2 00-.44-.53l-.49-.05 5.16-11.96a.39.39 0 01.74.06q2.64 10.74.86 21.66a1.33 1.3-57.3 00.19.92c2.86 4.52 4.23 10.4 6.73 15.3a.72.71-35.4 01-.15.84q-.79.73-1.95.74a1.11 1.09 18.4 00-.84.41q-.47.57-.7 1.32zm-28.85-7.69q3.57 2.58 7.73.19a.77.76 71.6 00.37-.75c-1.56-11.6-14.24-3.87-8.1.56z"/><path d="M448.53 393.55l-2.56 4.06a1.64 1.6 60.3 00-.24.92c.07 1.54-.45 8.44-2.46 7.69a.7.7 0 01-.46-.7q.12-2.88-1.85-5.02 1.02-1.01 2.14.24a.48.48 0 00.84-.37q-.54-5.49 4.59-6.82z"/><path fill="#fafde1" d="M524.5 404.71l.49.05a.5.49-85.2 01.44.53q-.09 1.58-1.18 2.75-1.77-1.56.25-3.33z"/><path d="M525.75 426.54q-1.56.74-2.04-.79-1.02-3.84 1.35-6.7a1.04 1.03-70 01.83-.39c6.84.11 6.74 9.48-.14 7.88zm-.34-5.13c-.69 1.63.16 5.25 1.92 2.97a.83.82 44.1 00-.02-1.03l-1.6-1.99a.18.18 0 00-.3.05zM505.69 426.31c-6.14-4.43 6.54-12.16 8.1-.56a.77.76 71.6 01-.37.75q-4.16 2.39-7.73-.19zm2.17-.19q2.19.72 1.18-1.35-.87-1.77-2.94-2.52a.47.46-77.6 00-.62.4q-.21 2.61 2.38 3.47z"/><path fill="#fff" d="M525.41 421.41a.18.18 0 01.3-.05l1.6 1.99a.83.82 44.1 01.02 1.03c-1.76 2.28-2.61-1.34-1.92-2.97z"/><path fill="#fafde1" d="M507.86 426.12q-2.59-.86-2.38-3.47a.47.46-77.6 01.62-.4q2.07.75 2.94 2.52 1.01 2.07-1.18 1.35z"/><path fill="#fff" d="M523.71 425.75q.48 1.53 2.04.79c4.34.82 8.68 5.22 5.04 9.36a.53.53 0 00.03.73q.62.61 1.43.91l.14.52a1.34 1.32-39.1 01-.11 1q-3.19 5.94-9.38 8.77a.94.93 46.7 01-.83-.03c-3.24-1.82-6.9-2.49-10.11-5.55l5.11-3.53a.33.32 17.5 00-.3-.57l-5.27 1.89-.5-1.5 2.27-.88a.47.46 62.3 00.21-.69q-.44-.64-1.48-.51l-.21-1.71q1.37.28 2.55-.29a.64.64 0 00.33-.76c-.23-.78-2.67-.93-3.46-1.2l.99-3.65a.84.84 0 01.74-.62q5.12-.45 7.75-4.64a.47.47 0 01.73-.09l2.29 2.25zm.32 13.59a.88.88 0 011.25-.04q1.26 1.19 2.64 2.22 2.61 1.97.51-.54l-2.47-2.95a1.28 1.22 28.4 01-.3-.93q.28-3.3 1.83-6.08a.5.5 0 00-.23-.7c-1.35-.61-4.64-1.27-5.56.41a.56.56 0 00.31.79l.86.29a1.76 1.71-7.6 01.81.6c2.93 4.06-.91 6.89-3.64 9.27q-.43.38.11.56c1.04.35 3.21-2.16 3.88-2.9zm5.57-3.61l.29.29q.58.58.39-.22l-.47-2a.71.69 82.8 00-.69-.55h-.62a.58.57 80.3 00-.54.77q.38 1.04 1.41 1.54.13.07.23.17zm-11.16.55a.65.65 0 00.6-1l-.9-1.36q-.49-.74-.89.06-1.01 2.07 1.19 2.3z"/><path d="M524.03 439.34c-.67.74-2.84 3.25-3.88 2.9q-.54-.18-.11-.56c2.73-2.38 6.57-5.21 3.64-9.27a1.76 1.71-7.6 00-.81-.6l-.86-.29a.56.56 0 01-.31-.79c.92-1.68 4.21-1.02 5.56-.41a.5.5 0 01.23.7q-1.55 2.78-1.83 6.08a1.28 1.22 28.4 00.3.93l2.47 2.95q2.1 2.51-.51.54-1.38-1.03-2.64-2.22a.88.88 0 00-1.25.04z"/><path fill="#201f1e" d="M511.21 432.5c.79.27 3.23.42 3.46 1.2a.64.64 0 01-.33.76q-1.18.57-2.55.29c-7.26-.9-13.48 1.03-20.2 2.34a.29.29 0 01-.35-.29l.01-.3a.38.38 0 01.24-.34q9.47-3.75 19.72-3.66z"/><path fill="#9b9d9f" d="M529.37 435.56q-1.03-.5-1.41-1.54a.58.57 80.3 01.54-.77h.62a.71.69 82.8 01.69.55l.47 2q.19.8-.39.22l-.29-.29q-.1-.1-.23-.17z"/><path fill="#9b9d9f" d="M534.54 434l-.17 2.43a.49.49 0 00.44.53l2.24.22a.81.81 0 01.71.94l-.38 2.34q-.18 1.12-.87.22-1.25-1.65-3.31-1.42-1.41.15-.23.94l2.69 1.81a1.39 1.39 0 01.36 1.95l-4.62 6.56a1.47 1.44 53.6 00-.19 1.33c2.15 6.26 6.26 12.26 8.41 17.28 2.51 5.86 4.92 11.5 5.81 17.83q1.6 11.4.95 21.67-.21 3.43.73.12 2.2-7.73 1.89-14.46l.25-.08c4.77 12.07 11.05 35.93-8.25 39.82a.59.58 82.3 00-.47.62c.11 1.43 11.32-.58 12.94-.74a.81.8-12.4 01.82.52q.68 1.83-.28 3.48a.56.56 0 01-.78.2l-2.97-1.75a.33.33 0 00-.47.43q.56 1.19.46 2.42-.48.83-1.31.76a.91.89-5.8 01-.77-.61l-.58-1.76a.55.54 70.6 00-.71-.35l-.67.24a.63.61 76.1 00-.39.67c.13.8.15 2.99-1.34 2.52a1.06 1.05.6 01-.69-.7l-.54-1.79q-.25-.85-.8-.15l-.49.62a.5.5 0 01-.76.03c-1.44-1.54-2.34-2.63-2.43-4.88q-.5-12.77 1.72-24.56c1.18-6.28 1.45-11.17.89-18.01-.1-1.29-.69-13.07-1.31-13.02a.33.33 0 00-.31.33c.03 14.07-1.9 27.98-4.21 41.82-.84 5.01-.57 9.81-.36 14.75a1.58 1.5-64.9 00.27.81q1.64 2.38 2.32 5.16.36 1.5-.8.49l-2.36-2.05a.39.38 13.7 00-.63.38l.78 3.18a.52.52 0 01-.47.64c-.75.05-2.08-2.93-2.55-3.66a.55.55 0 00-1.01.33l.15 2.87a.67.67 0 01-.44.67c-1.38.49-2.86-2.62-3.34-3.62a.59.59 0 00-1.11.36l.48 2.47a.33.33 0 01-.38.39l-3.83-.66a.76.75-1.1 01-.6-.57q-.75-3.24-.82-6.56-.27-13.25-.41-26.5c-.09-8.75 2.82-20.81 2.5-31.96q4.32-5.42 6.02-12.28a.76.74-60.5 00-.19-.72l-1.39-1.41a.86.86 0 01-.17-.98q1.84-3.96.7-8.3.03-.98.76-2.08a.39.39 0 00-.14-.56q-.23-.11-.46.09c-3.88 3.42-11.72 2.12-16.75.66q-1.92-.18-2.24 1.64-1.69-2.03-3.79-2.66-.51-.16-.28.33.61 1.27 1.74 2.19-1.37.7-2.96.15a.43.43 0 00-.57.45l.43 5.35a.42.42 0 01-.53.44l-1.64-.43a.41.4 15.6 00-.49.27c-.36 1.24 3.62 6.04 3.27 6.95a.47.46 34.6 01-.78.14l-1.52-1.73a.55.54-43.3 00-.79-.02c-1.58 1.61 3.74 8.36 5.14 9.54q.38.31.6.75l2.61 5.17c1.82 11.68 4.83 24.39 6.05 34.84q1.37 11.66 1.72 23.41.05 1.58-.75 3.76.04-.18.01-.33a.49.48 81.8 00-.53-.4q-1.4.13-2.56.98-.74-.52-1.67-.65a.33.33 0 00-.36.44l.37 1.01a.64.63-12.8 01-.54.84l-1.27.12a.71.7-12.1 01-.73-.47l-.86-2.39q-.54-1.52-1.03.02l-.75 2.36a.54.53 14.3 01-.62.36l-1.39-.28a.57.56 14 01-.43-.7q.39-1.39-.41-2.45-.52-.69-.83.11l-.59 1.52a.37.36-65.3 01-.51.19c-2.25-1.22 1.02-6.42.93-8.73-.54-14.29-3.38-24.86-7.53-41.08-.96-3.75-1.45-8.07-2.36-12.02a.31.31 0 00-.61.07q-.02 5.76.53 11.34c1.03 10.41 4.51 20.62 6.18 31.03.85 5.35 1.95 10.22-.89 14.48q-.26.4-.33.87l-.31 2.36a.71.7-87.1 01-.67.61c-2.33.07-.24-4.52-2.56-4.41a.45.45 0 00-.42.55c.33 1.42-.09 4.47-2.21 3.76a.83.83 0 01-.56-.74l-.14-3.76a.59.59 0 00-.6-.57h-.54a.74.74 0 00-.72.62c-.26 1.42-.49 4.13-2.63 3.51a.84.84 0 01-.61-.89l.29-2.73a.47.46-.1 00-.52-.51l-1.2.16a.7.7 0 00-.61.69v1.85a.39.39 0 01-.54.36q-1.61-.71-1.75-2.6c1.37-3.87 10.98-1.79 14.18-2.04a.4.4 0 00.18-.73q-5.86-3.82-12.79-3.04a.72.72 0 01-.76-.49c-4.34-13.35.99-25.43 4.91-38 2.84-9.1 3.61-19.85 4.03-29.33q.26-5.77 4.09-10.22a1.12 1.1 20.2 01.84-.38q.34 0 .66-.15a.5.5 0 00.21-.74l-4.01-5.82a1.07 1.07 0 01.5-1.61c5.98-2.3 11.09-4.65 17.5-5.66l.5 1.5q-4.94 3.1-8.91 7.34-.38.41.1.14l9.27-5.27c3.21 3.06 6.87 3.73 10.11 5.55a.94.93 46.7 00.83.03q6.19-2.83 9.38-8.77a1.34 1.32-39.1 00.11-1l-.14-.52q.8-1.62.77-3.42a.66.65 82.2 01.49-.65q.57-.15 1.03.53z"/><path fill="#201f1e" d="M518.44 436.28q-2.2-.23-1.19-2.3.4-.8.89-.06l.9 1.36a.65.65 0 01-.6 1z"/><rect fill="#9b9d9f" x="-1.82" y="-1.08" transform="rotate(2.5 -9695.43 12514.8)" width="3.64" height="2.16" rx=".8"/><path fill="#201f1e" d="M511.96 442.25l-9.27 5.27q-.48.27-.1-.14 3.97-4.24 8.91-7.34l5.27-1.89a.33.32 17.5 01.3.57l-5.11 3.53z"/><path d="M509.08 453.35q.73 3.17-2.33-.14-1.13-.92-1.74-2.19-.23-.49.28-.33 2.1.63 3.79 2.66zM527.91 453.6q-2.75 3.43-5.99 5.62a.7.69 46.2 01-.81-.02l-9.79-7.49c5.03 1.46 12.87 2.76 16.75-.66q.23-.2.46-.09a.39.39 0 01.14.56q-.73 1.1-.76 2.08z"/><path fill="#fff" d="M511.32 451.71l9.79 7.49a.7.69 46.2 00.81.02q3.24-2.19 5.99-5.62 1.14 4.34-.7 8.3a.86.86 0 00.17.98l1.39 1.41a.76.74-60.5 01.19.72q-1.7 6.86-6.02 12.28l-5.36 4.95a.57.56-39.9 01-.82-.07l-1.09-1.34a.37.37 0 00-.58 0l-1.2 1.49a.68.68 0 01-.89.15l-3.48-2.23-2.61-5.17q-.22-.44-.6-.75c-1.4-1.18-6.72-7.93-5.14-9.54a.55.54-43.3 01.79.02l1.52 1.73a.47.46 34.6 00.78-.14c.35-.91-3.63-5.71-3.27-6.95a.41.4 15.6 01.49-.27l1.64.43a.42.42 0 00.53-.44l-.43-5.35a.43.43 0 01.57-.45q1.59.55 2.96-.15 3.06 3.31 2.33.14.32-1.82 2.24-1.64z"/><path fill="#9b9d9f" d="M476.66 534.7q-10.58-1.51-18.87-7.45c-14.15-11.12-15.84-31.27-8.06-46.52q4.86-9.55 4.08-18.85c-.17-2.11-1.18-4-.03-6.46a1.11 1.09-85.6 01.69-.6c8.86-2.48 8.99 10.27 8.27 15.59-.76 5.54-3.91 11.99-6.13 17.77-6.72 17.52 1.58 34.12 19.61 38.81a1.19 1.17-7.8 01.74.55q2.2 3.74-.3 7.16z"/><path fill="#201f1e" d="M549.25 494.21l-.25.08q-.59-1.09-.42-2.24.09-.59.3-.04.41 1.05.37 2.2z"/><path fill="#fafde1" d="M516.54 542.25l-1.69 1.15a.54.54 0 01-.73-.1l-.66-.8q1.16-.85 2.56-.98a.49.48 81.8 01.53.4q.03.15-.01.33z"/><path fill="#fff" d="M590.29 589.75l.71.31v.94h-1.06l-.19-.71.54-.54z"/><path fill="#201f1e" d="M0 589.94l1.25.27q7.88.9 15.84.6a.1.1 0 01.1.1v.09H0v-1.06z"/><path fill="#fafde1" d="M589.75 590.29l.19.71h-13.5q-3.38-.63-6.75 0H24.44q-3.38-.63-6.75 0h-.5v-.09a.1.1 0 00-.1-.1q-7.96.3-15.84-.6l588.5.08z"/><path fill="#201f1e" d="M24.44 591h-6.75q3.37-.63 6.75 0zM576.44 591h-6.75q3.37-.63 6.75 0z"/></svg>