<svg xmlns="http://www.w3.org/2000/svg" viewBox="0 0 591 591"><g stroke-width="2" fill="none"><path stroke="#111010" vector-effect="non-scaling-stroke" d="M590.06 0l-.02.25"/><path stroke="#4c4d4e" vector-effect="non-scaling-stroke" d="M590.04.25l.25 3.75"/><path stroke="#111010" vector-effect="non-scaling-stroke" d="M590.29 4v1"/><path stroke="#4c4d4e" vector-effect="non-scaling-stroke" d="M590.29 5l-.03 584.57a.67.67 0 01-.67.67q-291.71.02-583.53 0-3.03 0-6.06-.3"/><path stroke="#7d7f70" vector-effect="non-scaling-stroke" d="M585.5 5.52a.26.26 0 00-.26-.26H5.5a.26.26 0 00-.26.26v579.72a.26.26 0 00.26.26h579.74a.26.26 0 00.26-.26V5.52"/><path stroke="#5c5d5e" vector-effect="non-scaling-stroke" d="M591 590.06c-.83-.45-.25-535.26-.25-584.85a.22.21 1.4 00-.21-.21h-.25M590.29 4q1.37-2.04-.25-3.75M589.94 591q-4.63-.63-9.25 0M572.94 591q-2.38-.63-4.75 0M556.44 591q-9.63-.63-19.25 0M536.94 591q-7.88-.63-15.75 0M480.94 591q-7.38-.63-14.75 0M447.94 591q-2.88-.63-5.75 0M441.94 591q-3.88-.63-7.75 0"/><path stroke="#979a9c" vector-effect="non-scaling-stroke" d="M431.94 591q-5.88-.63-11.75 0"/><path stroke="#5c5d5e" vector-effect="non-scaling-stroke" d="M393.94 591q-4.38-.63-8.75 0M384.94 591q-3.88-.63-7.75 0M376.94 591q-5.88-.63-11.75 0M335.94 591q-3.38-.63-6.75 0M328.94 591q-3.38-.63-6.75 0M271.94 591q-2.63-.63-5.25 0M224.94 591q-9.38-.63-18.75 0M191.94 591q-3.38-.63-6.75 0M184.94 591q-8.38-.63-16.75 0M144.94 591q-3.38-.63-6.75 0M111.94 591q-2.88-.63-5.75 0M103.94 591q-2.88-.63-5.75 0M95.94 591q-3.38-.63-6.75 0M87.94 591q-2.88-.63-5.75 0M71.94 591q-5.88-.63-11.75 0M40.44 591q-3.63-.63-7.25 0M25.94 591c-5.16-.18-24.88.26-25.94-.56"/><path stroke="#fbf2c5" vector-effect="non-scaling-stroke" d="M34.35 84.77q28.83-28.89 57.4-58.09a.4.4 0 00-.08-.63q-1.66-.97-4.17-1-16.85-.15-33.68.1c-12.14.17-25.11 2.26-26.34 17.1q-1.19 14.38-.35 43.26.07 2.39.62 4.74a.45.44-24.2 00.69.26c2.38-1.68 4.36-4.19 5.91-5.74"/><path stroke="#c9ccbe" vector-effect="non-scaling-stroke" d="M224.25 138.54c-8.99-1.47-13.57-.59-19.54 6.46"/><path stroke="#7d7f70" vector-effect="non-scaling-stroke" d="M204.71 145l-5.12 1.64"/><path stroke="#c9ccbe" vector-effect="non-scaling-stroke" d="M199.59 146.64q-1.4-6.34-6.01-10.07c-7.6-6.16-15.27-1.02-20.98 4.54a1.44 1.44 0 01-.86.4c-4.51.43-12.42 4.09-13.27 9.23q-.44 2.72.78 10.22"/><path stroke="#7d7f70" vector-effect="non-scaling-stroke" d="M159.25 160.96l-5 1.83"/><path stroke="#c9ccbe" vector-effect="non-scaling-stroke" d="M154.25 162.79q-.73-.05-2.2-1.1-15.12-10.81-24.52-24.79a.68.68 0 00-.87-.23l-4.67 2.34a.67.66-22.6 00-.34.8c2.76 8.32 17.58 21.04 24.59 26.36"/><path stroke="#8e8f80" vector-effect="non-scaling-stroke" d="M146.24 166.17c-9.83 3.85-46.16 17.55-39.68 32.23q37.65 85.42 74.66 171.11 5.6 12.98 11.38 25.88c4.31 9.61 8.7 19.51 12.55 29.27 2.79 7.07 6.81 14.99 9.29 20.67q13.68 31.31 27.22 62.67c2.9 6.7 20.3 3.91 25.82 2.28q11.52-3.41 17.96-6.1 34.55-14.45 69.72-27.31c4.8-1.75 9.7-4.06 14.27-5.59q31.84-10.71 63.12-21.02a.79.78-4.1 011.02.88c-2.08 11.51-3.79 23.15-6.03 34.42q-2.94 14.75-5.54 29.56c-.79 4.5-4.18 13.18-1.37 17.74q5.75 9.32 17.63 6.8c6.27-1.34 8.48-8.44 9.39-14.18q6.69-42.01 14.12-83.78a1.04 1.04 0 01.78-.83q11.88-2.88 23.49-6.75a.71.71 0 00.41-.99c-1.01-2.02-2.31-3.72-2-6.08.8-5.9 3.84-13.33 9.72-15.84q2.9-1.24 5.83-2.5a1.04 1.04 0 00.52-1.41l-24.51-49.84a1.86 1.81-55.1 01-.17-1.04c.72-5.26 2-10.25 1.86-15.46q-.25-9.45-1.08-18.87c-.48-5.34-.36-10.95-.71-16.46a.83.8 10.1 00-.51-.7q-2.67-1.1-4.16 1.78-5.01 9.71-9.76 19.52a.29.29 0 01-.52.01l-16.99-34.39a.98.97 48.1 01.05-.95q7.11-11.77 14.16-23.56c9.88-16.55 13.46-32.75 20.54-49.39a.67.67 0 00-.3-.86l-2.5-1.34a.83.83 0 00-.96.13q-12.16 11.48-25.54 21.52c-2.19 1.65-4.39 4.2-5.96 6.45q-6.31 9.07-11.93 19.01a.97.97 0 01-1.71-.06q-31.32-64.31-63.27-129.07-9.9-20.08-15.4-32.19a.58.58 0 00-.69-.32c-47.63 13.24-84.04 25.29-126.21 37.32"/><path stroke="#5c5d5e" vector-effect="non-scaling-stroke" d="M146.24 166.17q5.41 2.43 10.15 6.57a.45.44 45.4 010 .67c-4.73 4.28-8.21 7.53-8.84 13.46-.61 5.74 1.86 10.13 7.6 11.46a.62.61-83.2 01.48.62c-.1 5.72-1.11 9.81 5.44 12.52 12.01 4.97 20.08-.96 23.39-12.45q1.63-5.68 4.85-10.21a.58.58 0 011.05.44c-1.17 6.48-2.88 11.77-2.54 18.23"/><path stroke="#90908f" vector-effect="non-scaling-stroke" d="M187.82 207.48q7.06 14.24 19.7 5.04"/><path stroke="#5c5d5e" vector-effect="non-scaling-stroke" d="M207.52 212.52l1.05-.99"/><path stroke="#90908f" vector-effect="non-scaling-stroke" d="M208.57 211.53l2.56-2.73a1.18 1.17-68.6 01.83-.37q8.2-.29 10.85-8.19"/><path stroke="#5c5d5e" vector-effect="non-scaling-stroke" d="M222.81 200.24c5-13.55-13.73-16.65-21.93-20.19a.49.49 0 01.25-.93c11.24 1.36 22.73 6.57 32.84-1.52 11.36-9.11.32-15.25-6.88-19.57a.53.53 0 01-.2-.7q5.53-10.56-2.64-18.79"/><path stroke="#4c4d4e" vector-effect="non-scaling-stroke" d="M199.59 146.64q-.31 2.12-.17 4.59c.28 4.82-2.41 10.61-4.23 15.1a.28.28 0 00.5.24c2.76-4.6 4.68-8.65 6.42-14.28q1.15-3.69 2.6-7.29"/><path stroke="#cbcdce" vector-effect="non-scaling-stroke" d="M222.81 200.24q-.22-.55-.65-.54a.7.7 0 00-.67.5q-2.03 6.41-8.29 7.16c-2.8.33-4.59 1.27-4.63 4.17M207.52 212.52q-3.58 1.2-7.23 2.24c-5.03 1.43-8.34-2.86-10.92-6.71a1.38 1.38 0 01-.21-.94l.11-.7a.36.36 0 00-.36-.41h-.29a.57.56-83.6 00-.55.44l-.25 1.04"/><path stroke="#4c4d4e" vector-effect="non-scaling-stroke" d="M154.25 162.79c-.34 2.22 12.9 8.1 15.04 8.89q.47.18.07-.13-5.89-4.5-10.11-10.59"/><path stroke="#90908f" vector-effect="non-scaling-stroke" d="M238.65 284.56c6.43-3.03 13.58-.37 18.23 4.49a.7.69-33.5 00.8.16c30.84-13.94 65.27-26.12 97.25-35.87a.63.61 82 00.44-.6q.06-10.38 8.76-15.85a.9.89 62.8 00.35-1.1q-10.08-23.98-21.91-47.13a1.01 1-9.7 00-.76-.53c-5.42-.76-9.78-1.14-13.8-5.97a.93.92-23.2 00-.82-.32q-3.75.5-11.52 2.78c-33.05 9.68-60.32 19.33-90.3 30.57a1.97 1.97 0 00-1.27 1.83c-.02 7.38-2.72 9.95-6.66 15.59a.94.94 0 00-.11.88q9.69 25.66 20.64 50.81a.51.51 0 00.68.26"/><path stroke="#5c5d5e" vector-effect="non-scaling-stroke" d="M117.96 188c-5.58 2.86-5.23 8.46-2.86 13.6 11.52 24.97 21.99 50.33 33.38 75.35"/><path stroke="#90908f" vector-effect="non-scaling-stroke" d="M148.48 276.95l3.56 8.8"/><path stroke="#5c5d5e" vector-effect="non-scaling-stroke" d="M152.04 285.75q12.42 28.45 25.04 56.82c3.23 7.27 6.9 17.58 11.12 26.1 3.95 7.96 6.76 16.26 10.55 24.44 4.43 9.56 8.49 19.64 12.71 28.88q3.35 7.33 6.53 14.73c8.58 19.94 18.04 39.56 26.26 59.64a.43.43 0 00.64.2l4.35-2.83"/><path stroke="#90908f" vector-effect="non-scaling-stroke" d="M249.24 493.73l4.91-2.74a.56.55 64.2 00.24-.71c-11.71-27.74-24.53-54.33-37.21-83.21-3.48-7.93-8.13-16.26-11.54-24.27-10.82-25.45-22.75-49.5-33.68-75.8"/><path stroke="#5c5d5e" vector-effect="non-scaling-stroke" d="M171.96 307l-23.67-54.25"/><path stroke="#90908f" vector-effect="non-scaling-stroke" d="M148.29 252.75c-9.25-21.96-19.1-43.66-28.53-65.55a.46.46 0 00-.65-.21q-.77.44-1.15 1.01"/><path stroke="#cbcdce" vector-effect="non-scaling-stroke" d="M148.29 252.75q.03.45-.56.53a.74.74 0 01-.81-.49c-1.65-4.78-3.04-7.87-6.01-13.16q-2.05-3.65-3.81-8.71-3.04-8.72-17.69-41.09a1.46 1.4 3.9 00-.62-.68q-.62-.35-.83-1.15M171.96 307c-.75-.09-1.01.44-.78 1.06q7.17 19.43 12.36 28.67 3.31 5.88 4.73 10.19c.8 2.43 2.33 4.19 3.17 6.65 1.49 4.4 3.85 8.11 5.44 12.44 2.08 5.67 5.39 11.89 9.19 21.25 1.16 2.85 3.49 5.27 4.64 8.36 3.86 10.3 8.88 20.25 13.35 30.31 4.71 10.62 10.95 22.17 15.97 33.53q.2.45.2.94 0 .46.2.89 6.52 14.02 12.7 28.23a.55.55 0 01-.22.7q-2.23 1.34-3.67 3.51M152.04 285.75q.66.21 1.13-.12a.56.54 56.2 00.14-.75q-1.62-2.5-2.3-6.61-.41-2.48-2.53-1.32"/><path stroke="#90908f" vector-effect="non-scaling-stroke" d="M448.27 247.47c.03 2.4-.36 4.41.09 6.95a.47.46 69.6 00.69.32l1.77-1.07a.67.67 0 01.82.1l.89.87a.87.86-29 00.81.23l5.45-1.3a.9.89-88.1 00.64-.61l3.79-12.92a.7.7 0 00-.33-.8c-3.83-2.16-11.43 4.53-14.28 7.39a1.16 1.15-23.4 00-.34.84"/><path stroke="#5c5d5e" vector-effect="non-scaling-stroke" d="M342.15 418.7l5.51 1.53a.76.76 0 00.82-.29q4.71-6.44 5.87-8.36c29.96-49.74 55.82-90.73 83.51-136.23q1.69-2.78 3.15-5.7c1.74-3.47 4.51-6.15 6.39-9.73a.62.62 0 00-.12-.73l-3.59-3.52a.34.33 36.8 00-.52.07c-7.8 12.98-15.28 25.62-23.76 38.75q-11.87 18.36-23.15 37.1c-2.05 3.4-5.12 6.92-6.94 9.98q-7.57 12.81-15.57 25.36-10.62 16.66-21.09 33.42c-3.04 4.87-7.88 11.32-10.69 17.99a.27.26 19 00.18.36"/><path stroke="#111010" vector-effect="non-scaling-stroke" d="M404.96 341.75q-.1.65.12.87a.84.84 0 001.27-.11c2.29-3.22 9.99-13.62 8.61-16.76"/><path stroke="#90908f" vector-effect="non-scaling-stroke" d="M414.96 325.75q8.49-14.65 17.46-29.01c1.25-2.01 2.4-4.95 4.11-7.19 2.85-3.72 4.29-7.55 6.89-11.19 4.36-6.1 7.64-12.21 11.51-18.4a.44.43-64.4 00-.22-.64c-1.06-.39-1.76-.08-2.37.9-5.36 8.7-10.81 17.54-16.18 26.38-5.53 9.1-10.97 18.62-16.47 27.33-9.52 15.09-18.96 29.97-28.25 45.47-4.6 7.68-39.91 63.11-38.44 65.02a.9.9 0 001.51-.14c4.16-8.03 8.9-15.36 13.54-22.9q18.35-29.88 36.91-59.63"/><path stroke="gray" vector-effect="non-scaling-stroke" d="M414.96 325.75l-10 16"/><path stroke="#90908f" vector-effect="non-scaling-stroke" d="M462.11 344.66q2.98.95 3.63 3.84a.8.8 0 00.54.59c3.09 1.01 5.28-3.26 5.28-5.66q-.01-5.6-.45-11.31a.67.67 0 00-.67-.62h-3.75a.9.88-73.4 00-.72.4q-3.22 4.99-4.97 10.66a1.69 1.68 17.2 001.11 2.1"/><path stroke="#5c5d5e" vector-effect="non-scaling-stroke" d="M459.96 350.09c-4.32 16.85-6.73 34.48-9.92 50.72-6.81 34.69-16.87 86.57-22.71 123.03q-.13.82.57.38l2.7-1.71a1.11 1.1-14.1 00.52-.86c.35-4.61 2.08-9.28 2.72-13.18q2.66-16.21 5.58-32.38c2.88-15.96 5.35-33.13 8.71-49.62 2.9-14.2 4.73-27.61 6.95-41.48 1.63-10.16 4.93-23.06 6.52-34.82.09-.64-.21-1.2-.95-.89a1.23 1.23 0 00-.69.81"/><path stroke="#111010" vector-effect="non-scaling-stroke" d="M462.04 400.5q.56.09.98-.12a.93.93 0 00.51-.74c.37-4.02 1.81-8.29 2.39-11.61 1.7-9.78 2.82-19.36 5.5-29.03a.97.97 0 00-.75-1.21q-.85-.17-1.38.21"/><path stroke="#5c5d5e" vector-effect="non-scaling-stroke" d="M469.29 358l.42-3.2a.52.52 0 00-.46-.59l-3.98-.49a.63.63 0 00-.69.49c-2.24 11-3.39 22.84-5.45 32.99-5.06 24.97-7.18 44.44-11.58 66.51-4.05 20.26-7.14 40.72-10.75 61.06-.42 2.39-.54 5.32-.97 7.94a.45.45 0 00.4.52l3.34.35q1.84.19 2.1-1.64c2.56-18.76 6.58-37.2 9.34-55.94 3.24-21.91 7.44-43.65 11.03-65.5"/><path stroke="#4c4d4e" vector-effect="non-scaling-stroke" d="M469.29 358q-4.15 21.16-7.25 42.5"/><path stroke="#5c5d5e" vector-effect="non-scaling-stroke" d="M419.635 381.638a2.71.59 81.2 00.168-2.768 2.71.59 81.2 00-.998-2.588 2.71.59 81.2 00-.168 2.768 2.71.59 81.2 00.998 2.588M407.894 386.577a1.08.67 108.1 00.973-.819 1.08.67 108.1 00-.302-1.235 1.08.67 108.1 00-.972.819 1.08.67 108.1 00.301 1.235M464.79 423.5l-.29 2.21"/><path stroke="#90908f" vector-effect="non-scaling-stroke" d="M464.5 425.71c-.54 1.72-.36 5.83-1.41 6.91a.44.44 0 00.4.74l7.76-1.65"/><path stroke="#5c5d5e" vector-effect="non-scaling-stroke" d="M471.25 431.71q3.53-.42 6.5-2.25"/><path stroke="#111010" vector-effect="non-scaling-stroke" d="M477.75 429.46q2.18-1.23 1.96-3.8-.04-.5.17-.95c.49-1.08 2.64-5.35 1.61-6.22a.43.42-54.8 00-.65.12q-.43.77-1.05 1.14"/><path stroke="#5c5d5e" vector-effect="non-scaling-stroke" d="M479.79 419.75l.42-2"/><path stroke="#90908f" vector-effect="non-scaling-stroke" d="M480.21 417.75q.95-1.03.87-2.35a.35.35 0 00-.48-.3q-7.02 3-14.42 4.87a1.6 1.56 10.7 00-.87.58q-.94 1.29-.52 2.95"/><path stroke="#cbcdce" vector-effect="non-scaling-stroke" d="M480.21 417.75q-6.16 2.39-12.64 3.71a1.24 1.23 11.5 00-.76.5q-.78 1.09-2.02 1.54"/><path stroke="#4c4d4e" vector-effect="non-scaling-stroke" d="M479.79 419.75q-1.34 1.76-1.55 3.61"/><path stroke="#cbcdce" vector-effect="non-scaling-stroke" d="M478.24 423.36l-11.3 2.97a1.54 1.52-41.5 01-.92-.05l-1.52-.57"/><path stroke="#4c4d4e" vector-effect="non-scaling-stroke" d="M477.75 429.46l.21-3.96"/><path stroke="gray" vector-effect="non-scaling-stroke" d="M477.96 425.5l.28-2.14"/><path stroke="#cbcdce" vector-effect="non-scaling-stroke" d="M477.96 425.5q-5.6 1.58-11.29 2.6c-1.64.3-2.26 1.35-1.81 2.9a.9.87.8 00.61.61q2.59.73 5-.8a.53.52 62.7 01.77.25q.14.35.01.65"/><path stroke="#5c5d5e" vector-effect="non-scaling-stroke" d="M342.25 428.79q.54.85 1.44 1.07.61.15.21-.33-.54-.66-1.36-1.03"/><path stroke="#90908f" vector-effect="non-scaling-stroke" d="M342.54 428.5q-1.25-1.16-.98-2.92a.98.97 24.1 011.58-.6q1.53 1.24 3.38 1.93 1.49.55.29-.49-3.99-3.5-9.28-2.21-.67.16-.13.6l4.85 3.98"/><path stroke="#cbcdce" vector-effect="non-scaling-stroke" d="M342.54 428.5l-.29.29"/><path stroke="#90908f" vector-effect="non-scaling-stroke" d="M348.53 428.56c-.13 1.13-.26 1.41-.7 2.43a.52.52 0 00.42.73l.4.04a1.07 1.07 0 001.13-.73q.63-1.93-.63-2.76a.4.4 0 00-.62.29"/><path stroke="#5c5d5e" vector-effect="non-scaling-stroke" d="M435.71 438.75l.5-1.75"/><path stroke="#90908f" vector-effect="non-scaling-stroke" d="M436.21 437l.33-1.75"/><path stroke="#5c5d5e" vector-effect="non-scaling-stroke" d="M436.54 435.25l.46-3.21"/><path stroke="#90908f" vector-effect="non-scaling-stroke" d="M437 432.04q.61-.77.49-1.46a.47.47 0 00-.62-.37q-62.06 21.35-122.37 43.01c-21.14 7.6-42.85 15.91-61.9 26.56q-2.9 1.63-3.8 2.46-2.73 2.56.96 3.2 7.99 1.4 15.48-.99 9.25-2.96 27.77-10.62c21.68-8.97 42.46-16.5 62.69-24.39 25.84-10.08 52.66-18.3 79.03-26.9a.82.8-5.8 00.56-.67l.42-3.12"/><path stroke="#cbcdce" vector-effect="non-scaling-stroke" d="M437 432.04c-8.29 3.57-17.15 5.84-25.65 9.3a.35.34 26.6 00.22.65q11.91-2.98 23.96-7.16.7-.25 1.01.42M436.21 437c-5.61.98-11.6 3.26-16.35 4.63-16.05 4.62-31.94 10.08-47.81 15.28-22.04 7.23-43.68 17.26-65.01 26.39q-.46.2.03.09c8.34-1.87 14.44-4.26 21.14-6.22q6.59-1.93 10.37-3.49 21.83-8.96 39.42-14.19c18.21-5.42 36.41-11.47 54.44-17.49 1.24-.41 1.79-1.33 1.84-2.55a.76.75-7.5 01.52-.67q.43-.14.91-.03"/><path stroke="#90908f" vector-effect="non-scaling-stroke" d="M430.25 527.96l-3.03.93a.49.49 0 00-.31.64c1.72 4.68 7.62 3.56 11.55 3.45a1.38 1.37-2.2 001.34-1.44q-.12-2.75-2.8-3.33"/><path stroke="#5c5d5e" vector-effect="non-scaling-stroke" d="M437 528.21q-3.34-1.37-6.75-.25"/><path stroke="#cbcdce" vector-effect="non-scaling-stroke" d="M437 528.21l-.75.08"/><path stroke="#4c4d4e" vector-effect="non-scaling-stroke" d="M436.25 528.29l-5.71.21"/><path stroke="#cbcdce" vector-effect="non-scaling-stroke" d="M430.54 528.5l-.29-.54"/><path stroke="gray" vector-effect="non-scaling-stroke" d="M430.54 528.5q-.69 1.36-.24 2.78a.93.93 0 00.89.66h4.56a.67.67 0 00.67-.71l-.17-2.94"/><path stroke="#cbcdce" vector-effect="non-scaling-stroke" d="M238.58 241.55c35.64-14.12 63.13-24.77 95.54-34.53a.63.63 0 00.42-.82l-1.53-4.23a.81.81 0 00-.97-.51c-28.94 7.71-56.55 18.8-84.39 29.62q-5.79 2.25-11.45 4.9a.7.7 0 00-.34.9l1.82 4.29a.69.69 0 00.9.38M248.43 265.71c31.65-12.71 62.78-25.43 95.74-35.03a.55.55 0 00.35-.75l-2.15-4.97a.69.69 0 00-.79-.4q-4.32.97-6.58 1.69c-32.7 10.36-53.8 18.71-89.68 33.44a.58.58 0 00-.3.8l2.5 4.89a.72.71-24.8 00.91.33"/></g><path d="M0 0h590.06l-.02.25.25 3.75v1l-.03 584.57a.67.67 0 01-.67.67q-291.71.02-583.53 0-3.03 0-6.06-.3V0zm585.5 5.52a.26.26 0 00-.26-.26H5.5a.26.26 0 00-.26.26v579.72a.26.26 0 00.26.26h579.74a.26.26 0 00.26-.26V5.52z"/><path fill="#21201f" d="M590.06 0h.94v590.06c-.83-.45-.25-535.26-.25-584.85a.22.21 1.4 00-.21-.21h-.25V4q1.37-2.04-.25-3.75l.02-.25z"/><path fill="#979a9c" d="M590.04.25q1.62 1.71.25 3.75l-.25-3.75zM590.29 5h.25a.22.21 1.4 01.21.21c0 49.59-.58 584.4.25 584.85v.94h-1.06q-4.63-.63-9.25 0h-7.75q-2.38-.63-4.75 0h-11.75q-9.63-.63-19.25 0h-.25q-7.88-.63-15.75 0h-40.25q-7.38-.63-14.75 0h-18.25q-2.88-.63-5.75 0h-.25q-3.88-.63-7.75 0h-2.25q-5.88-.63-11.75 0h-26.25q-4.38-.63-8.75 0h-.25q-3.88-.63-7.75 0h-.25q-5.88-.63-11.75 0h-29.25q-3.38-.63-6.75 0h-.25q-3.38-.63-6.75 0h-50.25q-2.63-.63-5.25 0h-41.75q-9.38-.63-18.75 0h-14.25q-3.38-.63-6.75 0h-.25q-8.38-.63-16.75 0h-23.25q-3.38-.63-6.75 0h-26.25q-2.88-.63-5.75 0h-2.25q-2.88-.63-5.75 0h-2.25q-3.38-.63-6.75 0h-1.25q-2.88-.63-5.75 0H71.94q-5.88-.63-11.75 0H40.44q-3.63-.63-7.25 0h-7.25c-5.16-.18-24.88.26-25.94-.56v-.5q3.03.3 6.06.3 291.82.02 583.53 0a.67.67 0 00.67-.67L590.29 5z"/><path fill="#fafde0" d="M585.5 585.24a.26.26 0 01-.26.26H5.5a.26.26 0 01-.26-.26V5.52a.26.26 0 01.26-.26h579.74a.26.26 0 01.26.26v579.72zM34.35 84.77q28.83-28.89 57.4-58.09a.4.4 0 00-.08-.63q-1.66-.97-4.17-1-16.85-.15-33.68.1c-12.14.17-25.11 2.26-26.34 17.1q-1.19 14.38-.35 43.26.07 2.39.62 4.74a.45.44-24.2 00.69.26c2.38-1.68 4.36-4.19 5.91-5.74zm189.9 53.77c-8.99-1.47-13.57-.59-19.54 6.46l-5.12 1.64q-1.4-6.34-6.01-10.07c-7.6-6.16-15.27-1.02-20.98 4.54a1.44 1.44 0 01-.86.4c-4.51.43-12.42 4.09-13.27 9.23q-.44 2.72.78 10.22l-5 1.83q-.73-.05-2.2-1.1-15.12-10.81-24.52-24.79a.68.68 0 00-.87-.23l-4.67 2.34a.67.66-22.6 00-.34.8c2.76 8.32 17.58 21.04 24.59 26.36-9.83 3.85-46.16 17.55-39.68 32.23q37.65 85.42 74.66 171.11 5.6 12.98 11.38 25.88c4.31 9.61 8.7 19.51 12.55 29.27 2.79 7.07 6.81 14.99 9.29 20.67q13.68 31.31 27.22 62.67c2.9 6.7 20.3 3.91 25.82 2.28q11.52-3.41 17.96-6.1 34.55-14.45 69.72-27.31c4.8-1.75 9.7-4.06 14.27-5.59q31.84-10.71 63.12-21.02a.79.78-4.1 011.02.88c-2.08 11.51-3.79 23.15-6.03 34.42q-2.94 14.75-5.54 29.56c-.79 4.5-4.18 13.18-1.37 17.74q5.75 9.32 17.63 6.8c6.27-1.34 8.48-8.44 9.39-14.18q6.69-42.01 14.12-83.78a1.04 1.04 0 01.78-.83q11.88-2.88 23.49-6.75a.71.71 0 00.41-.99c-1.01-2.02-2.31-3.72-2-6.08.8-5.9 3.84-13.33 9.72-15.84q2.9-1.24 5.83-2.5a1.04 1.04 0 00.52-1.41l-24.51-49.84a1.86 1.81-55.1 01-.17-1.04c.72-5.26 2-10.25 1.86-15.46q-.25-9.45-1.08-18.87c-.48-5.34-.36-10.95-.71-16.46a.83.8 10.1 00-.51-.7q-2.67-1.1-4.16 1.78-5.01 9.71-9.76 19.52a.29.29 0 01-.52.01l-16.99-34.39a.98.97 48.1 01.05-.95q7.11-11.77 14.16-23.56c9.88-16.55 13.46-32.75 20.54-49.39a.67.67 0 00-.3-.86l-2.5-1.34a.83.83 0 00-.96.13q-12.16 11.48-25.54 21.52c-2.19 1.65-4.39 4.2-5.96 6.45q-6.31 9.07-11.93 19.01a.97.97 0 01-1.71-.06q-31.32-64.31-63.27-129.07-9.9-20.08-15.4-32.19a.58.58 0 00-.69-.32c-47.63 13.24-84.04 25.29-126.21 37.32z"/><path fill="#fbe6aa" d="M34.35 84.77c-1.55 1.55-3.53 4.06-5.91 5.74a.45.44-24.2 01-.69-.26q-.55-2.35-.62-4.74-.84-28.88.35-43.26c1.23-14.84 14.2-16.93 26.34-17.1q16.83-.25 33.68-.1 2.51.03 4.17 1a.4.4 0 01.08.63q-28.57 29.2-57.4 58.09z"/><path fill="#21201f" d="M146.24 166.17q5.41 2.43 10.15 6.57a.45.44 45.4 010 .67c-4.73 4.28-8.21 7.53-8.84 13.46-.61 5.74 1.86 10.13 7.6 11.46a.62.61-83.2 01.48.62c-.1 5.72-1.11 9.81 5.44 12.52 12.01 4.97 20.08-.96 23.39-12.45q1.63-5.68 4.85-10.21a.58.58 0 011.05.44c-1.17 6.48-2.88 11.77-2.54 18.23q7.06 14.24 19.7 5.04l1.05-.99 2.56-2.73a1.18 1.17-68.6 01.83-.37q8.2-.29 10.85-8.19c5-13.55-13.73-16.65-21.93-20.19a.49.49 0 01.25-.93c11.24 1.36 22.73 6.57 32.84-1.52 11.36-9.11.32-15.25-6.88-19.57a.53.53 0 01-.2-.7q5.53-10.56-2.64-18.79c42.17-12.03 78.58-24.08 126.21-37.32a.58.58 0 01.69.32q5.5 12.11 15.4 32.19 31.95 64.76 63.27 129.07a.97.97 0 001.71.06q5.62-9.94 11.93-19.01c1.57-2.25 3.77-4.8 5.96-6.45q13.38-10.04 25.54-21.52a.83.83 0 01.96-.13l2.5 1.34a.67.67 0 01.3.86c-7.08 16.64-10.66 32.84-20.54 49.39q-7.05 11.79-14.16 23.56a.98.97 48.1 00-.05.95l16.99 34.39a.29.29 0 00.52-.01q4.75-9.81 9.76-19.52 1.49-2.88 4.16-1.78a.83.8 10.1 01.51.7c.35 5.51.23 11.12.71 16.46q.83 9.42 1.08 18.87c.14 5.21-1.14 10.2-1.86 15.46a1.86 1.81-55.1 00.17 1.04l24.51 49.84a1.04 1.04 0 01-.52 1.41q-2.93 1.26-5.83 2.5c-5.88 2.51-8.92 9.94-9.72 15.84-.31 2.36.99 4.06 2 6.08a.71.71 0 01-.41.99q-11.61 3.87-23.49 6.75a1.04 1.04 0 00-.78.83q-7.43 41.77-14.12 83.78c-.91 5.74-3.12 12.84-9.39 14.18q-11.88 2.52-17.63-6.8c-2.81-4.56.58-13.24 1.37-17.74q2.6-14.81 5.54-29.56c2.24-11.27 3.95-22.91 6.03-34.42a.79.78-4.1 00-1.02-.88q-31.28 10.31-63.12 21.02c-4.57 1.53-9.47 3.84-14.27 5.59q-35.17 12.86-69.72 27.31-6.44 2.69-17.96 6.1c-5.52 1.63-22.92 4.42-25.82-2.28q-13.54-31.36-27.22-62.67c-2.48-5.68-6.5-13.6-9.29-20.67-3.85-9.76-8.24-19.66-12.55-29.27q-5.78-12.9-11.38-25.88-37.01-85.69-74.66-171.11c-6.48-14.68 29.85-28.38 39.68-32.23zm92.41 118.39c6.43-3.03 13.58-.37 18.23 4.49a.7.69-33.5 00.8.16c30.84-13.94 65.27-26.12 97.25-35.87a.63.61 82 00.44-.6q.06-10.38 8.76-15.85a.9.89 62.8 00.35-1.1q-10.08-23.98-21.91-47.13a1.01 1-9.7 00-.76-.53c-5.42-.76-9.78-1.14-13.8-5.97a.93.92-23.2 00-.82-.32q-3.75.5-11.52 2.78c-33.05 9.68-60.32 19.33-90.3 30.57a1.97 1.97 0 00-1.27 1.83c-.02 7.38-2.72 9.95-6.66 15.59a.94.94 0 00-.11.88q9.69 25.66 20.64 50.81a.51.51 0 00.68.26zM117.96 188c-5.58 2.86-5.23 8.46-2.86 13.6 11.52 24.97 21.99 50.33 33.38 75.35l3.56 8.8q12.42 28.45 25.04 56.82c3.23 7.27 6.9 17.58 11.12 26.1 3.95 7.96 6.76 16.26 10.55 24.44 4.43 9.56 8.49 19.64 12.71 28.88q3.35 7.33 6.53 14.73c8.58 19.94 18.04 39.56 26.26 59.64a.43.43 0 00.64.2l4.35-2.83 4.91-2.74a.56.55 64.2 00.24-.71c-11.71-27.74-24.53-54.33-37.21-83.21-3.48-7.93-8.13-16.26-11.54-24.27-10.82-25.45-22.75-49.5-33.68-75.8l-23.67-54.25c-9.25-21.96-19.1-43.66-28.53-65.55a.46.46 0 00-.65-.21q-.77.44-1.15 1.01zm330.31 59.47c.03 2.4-.36 4.41.09 6.95a.47.46 69.6 00.69.32l1.77-1.07a.67.67 0 01.82.1l.89.87a.87.86-29 00.81.23l5.45-1.3a.9.89-88.1 00.64-.61l3.79-12.92a.7.7 0 00-.33-.8c-3.83-2.16-11.43 4.53-14.28 7.39a1.16 1.15-23.4 00-.34.84zM342.15 418.7l5.51 1.53a.76.76 0 00.82-.29q4.71-6.44 5.87-8.36c29.96-49.74 55.82-90.73 83.51-136.23q1.69-2.78 3.15-5.7c1.74-3.47 4.51-6.15 6.39-9.73a.62.62 0 00-.12-.73l-3.59-3.52a.34.33 36.8 00-.52.07c-7.8 12.98-15.28 25.62-23.76 38.75q-11.87 18.36-23.15 37.1c-2.05 3.4-5.12 6.92-6.94 9.98q-7.57 12.81-15.57 25.36-10.62 16.66-21.09 33.42c-3.04 4.87-7.88 11.32-10.69 17.99a.27.26 19 00.18.36zm62.81-76.95q-.1.65.12.87a.84.84 0 001.27-.11c2.29-3.22 9.99-13.62 8.61-16.76q8.49-14.65 17.46-29.01c1.25-2.01 2.4-4.95 4.11-7.19 2.85-3.72 4.29-7.55 6.89-11.19 4.36-6.1 7.64-12.21 11.51-18.4a.44.43-64.4 00-.22-.64c-1.06-.39-1.76-.08-2.37.9-5.36 8.7-10.81 17.54-16.18 26.38-5.53 9.1-10.97 18.62-16.47 27.33-9.52 15.09-18.96 29.97-28.25 45.47-4.6 7.68-39.91 63.11-38.44 65.02a.9.9 0 001.51-.14c4.16-8.03 8.9-15.36 13.54-22.9q18.35-29.88 36.91-59.63zm57.15 2.91q2.98.95 3.63 3.84a.8.8 0 00.54.59c3.09 1.01 5.28-3.26 5.28-5.66q-.01-5.6-.45-11.31a.67.67 0 00-.67-.62h-3.75a.9.88-73.4 00-.72.4q-3.22 4.99-4.97 10.66a1.69 1.68 17.2 001.11 2.1zm-2.15 5.43c-4.32 16.85-6.73 34.48-9.92 50.72-6.81 34.69-16.87 86.57-22.71 123.03q-.13.82.57.38l2.7-1.71a1.11 1.1-14.1 00.52-.86c.35-4.61 2.08-9.28 2.72-13.18q2.66-16.21 5.58-32.38c2.88-15.96 5.35-33.13 8.71-49.62 2.9-14.2 4.73-27.61 6.95-41.48 1.63-10.16 4.93-23.06 6.52-34.82.09-.64-.21-1.2-.95-.89a1.23 1.23 0 00-.69.81zm2.08 50.41q.56.09.98-.12a.93.93 0 00.51-.74c.37-4.02 1.81-8.29 2.39-11.61 1.7-9.78 2.82-19.36 5.5-29.03a.97.97 0 00-.75-1.21q-.85-.17-1.38.21l.42-3.2a.52.52 0 00-.46-.59l-3.98-.49a.63.63 0 00-.69.49c-2.24 11-3.39 22.84-5.45 32.99-5.06 24.97-7.18 44.44-11.58 66.51-4.05 20.26-7.14 40.72-10.75 61.06-.42 2.39-.54 5.32-.97 7.94a.45.45 0 00.4.52l3.34.35q1.84.19 2.1-1.64c2.56-18.76 6.58-37.2 9.34-55.94 3.24-21.91 7.44-43.65 11.03-65.5zm-42.405-18.862a2.71.59 81.2 00.168-2.768 2.71.59 81.2 00-.998-2.588 2.71.59 81.2 00-.168 2.768 2.71.59 81.2 00.998 2.588zm-11.74 4.939a1.08.67 108.1 00.972-.819 1.08.67 108.1 00-.302-1.235 1.08.67 108.1 00-.972.819 1.08.67 108.1 00.301 1.235zM464.79 423.5l-.29 2.21c-.54 1.72-.36 5.83-1.41 6.91a.44.44 0 00.4.74l7.76-1.65q3.53-.42 6.5-2.25 2.18-1.23 1.96-3.8-.04-.5.17-.95c.49-1.08 2.64-5.35 1.61-6.22a.43.42-54.8 00-.65.12q-.43.77-1.05 1.14l.42-2q.95-1.03.87-2.35a.35.35 0 00-.48-.3q-7.02 3-14.42 4.87a1.6 1.56 10.7 00-.87.58q-.94 1.29-.52 2.95zm-122.54 5.29q.54.85 1.44 1.07.61.15.21-.33-.54-.66-1.36-1.03-1.25-1.16-.98-2.92a.98.97 24.1 011.58-.6q1.53 1.24 3.38 1.93 1.49.55.29-.49-3.99-3.5-9.28-2.21-.67.16-.13.6l4.85 3.98zm6.28-.23c-.13 1.13-.26 1.41-.7 2.43a.52.52 0 00.42.73l.4.04a1.07 1.07 0 001.13-.73q.63-1.93-.63-2.76a.4.4 0 00-.62.29zm87.18 10.19l.5-1.75.33-1.75.46-3.21q.61-.77.49-1.46a.47.47 0 00-.62-.37q-62.06 21.35-122.37 43.01c-21.14 7.6-42.85 15.91-61.9 26.56q-2.9 1.63-3.8 2.46-2.73 2.56.96 3.2 7.99 1.4 15.48-.99 9.25-2.96 27.77-10.62c21.68-8.97 42.46-16.5 62.69-24.39 25.84-10.08 52.66-18.3 79.03-26.9a.82.8-5.8 00.56-.67l.42-3.12zm-5.46 89.21l-3.03.93a.49.49 0 00-.31.64c1.72 4.68 7.62 3.56 11.55 3.45a1.38 1.37-2.2 001.34-1.44q-.12-2.75-2.8-3.33-3.34-1.37-6.75-.25z"/><path fill="#979a9c" d="M199.59 146.64q-.31 2.12-.17 4.59c.28 4.82-2.41 10.61-4.23 15.1a.28.28 0 00.5.24c2.76-4.6 4.68-8.65 6.42-14.28q1.15-3.69 2.6-7.29c5.97-7.05 10.55-7.93 19.54-6.46q8.17 8.23 2.64 18.79a.53.53 0 00.2.7c7.2 4.32 18.24 10.46 6.88 19.57-10.11 8.09-21.6 2.88-32.84 1.52a.49.49 0 00-.25.93c8.2 3.54 26.93 6.64 21.93 20.19q-.22-.55-.65-.54a.7.7 0 00-.67.5q-2.03 6.41-8.29 7.16c-2.8.33-4.59 1.27-4.63 4.17l-1.05.99q-3.58 1.2-7.23 2.24c-5.03 1.43-8.34-2.86-10.92-6.71a1.38 1.38 0 01-.21-.94l.11-.7a.36.36 0 00-.36-.41h-.29a.57.56-83.6 00-.55.44l-.25 1.04c-.34-6.46 1.37-11.75 2.54-18.23a.58.58 0 00-1.05-.44q-3.22 4.53-4.85 10.21c-3.31 11.49-11.38 17.42-23.39 12.45-6.55-2.71-5.54-6.8-5.44-12.52a.62.61-83.2 00-.48-.62c-5.74-1.33-8.21-5.72-7.6-11.46.63-5.93 4.11-9.18 8.84-13.46a.45.44 45.4 000-.67q-4.74-4.14-10.15-6.57c-7.01-5.32-21.83-18.04-24.59-26.36a.67.66-22.6 01.34-.8l4.67-2.34a.68.68 0 01.87.23q9.4 13.98 24.52 24.79 1.47 1.05 2.2 1.1c-.34 2.22 12.9 8.1 15.04 8.89q.47.18.07-.13-5.89-4.5-10.11-10.59-1.22-7.5-.78-10.22c.85-5.14 8.76-8.8 13.27-9.23a1.44 1.44 0 00.86-.4c5.71-5.56 13.38-10.7 20.98-4.54q4.61 3.73 6.01 10.07z"/><path d="M204.71 145q-1.45 3.6-2.6 7.29c-1.74 5.63-3.66 9.68-6.42 14.28a.28.28 0 01-.5-.24c1.82-4.49 4.51-10.28 4.23-15.1q-.14-2.47.17-4.59l5.12-1.64zM159.25 160.96q4.22 6.09 10.11 10.59.4.31-.07.13c-2.14-.79-15.38-6.67-15.04-8.89l5-1.83z"/><path fill="#fff" d="M256.88 289.05c-4.65-4.86-11.8-7.52-18.23-4.49a.51.51 0 01-.68-.26q-10.95-25.15-20.64-50.81a.94.94 0 01.11-.88c3.94-5.64 6.64-8.21 6.66-15.59a1.97 1.97 0 011.27-1.83c29.98-11.24 57.25-20.89 90.3-30.57q7.77-2.28 11.52-2.78a.93.92-23.2 01.82.32c4.02 4.83 8.38 5.21 13.8 5.97a1.01 1-9.7 01.76.53q11.83 23.15 21.91 47.13a.9.89 62.8 01-.35 1.1q-8.7 5.47-8.76 15.85a.63.61 82 01-.44.6c-31.98 9.75-66.41 21.93-97.25 35.87a.7.69-33.5 01-.8-.16zm-18.3-47.5c35.64-14.12 63.13-24.77 95.54-34.53a.63.63 0 00.42-.82l-1.53-4.23a.81.81 0 00-.97-.51c-28.94 7.71-56.55 18.8-84.39 29.62q-5.79 2.25-11.45 4.9a.7.7 0 00-.34.9l1.82 4.29a.69.69 0 00.9.38zm9.85 24.16c31.65-12.71 62.78-25.43 95.74-35.03a.55.55 0 00.35-.75l-2.15-4.97a.69.69 0 00-.79-.4q-4.32.97-6.58 1.69c-32.7 10.36-53.8 18.71-89.68 33.44a.58.58 0 00-.3.8l2.5 4.89a.72.71-24.8 00.91.33zM148.29 252.75q.03.45-.56.53a.74.74 0 01-.81-.49c-1.65-4.78-3.04-7.87-6.01-13.16q-2.05-3.65-3.81-8.71-3.04-8.72-17.69-41.09a1.46 1.4 3.9 00-.62-.68q-.62-.35-.83-1.15.38-.57 1.15-1.01a.46.46 0 01.65.21c9.43 21.89 19.28 43.59 28.53 65.55z"/><path fill="#979a9c" d="M117.96 188q.21.8.83 1.15a1.46 1.4 3.9 01.62.68q14.65 32.37 17.69 41.09 1.76 5.06 3.81 8.71c2.97 5.29 4.36 8.38 6.01 13.16a.74.74 0 00.81.49q.59-.08.56-.53L171.96 307c-.75-.09-1.01.44-.78 1.06q7.17 19.43 12.36 28.67 3.31 5.88 4.73 10.19c.8 2.43 2.33 4.19 3.17 6.65 1.49 4.4 3.85 8.11 5.44 12.44 2.08 5.67 5.39 11.89 9.19 21.25 1.16 2.85 3.49 5.27 4.64 8.36 3.86 10.3 8.88 20.25 13.35 30.31 4.71 10.62 10.95 22.17 15.97 33.53q.2.45.2.94 0 .46.2.89 6.52 14.02 12.7 28.23a.55.55 0 01-.22.7q-2.23 1.34-3.67 3.51l-4.35 2.83a.43.43 0 01-.64-.2c-8.22-20.08-17.68-39.7-26.26-59.64q-3.18-7.4-6.53-14.73c-4.22-9.24-8.28-19.32-12.71-28.88-3.79-8.18-6.6-16.48-10.55-24.44-4.22-8.52-7.89-18.83-11.12-26.1q-12.62-28.37-25.04-56.82.66.21 1.13-.12a.56.54 56.2 00.14-.75q-1.62-2.5-2.3-6.61-.41-2.48-2.53-1.32c-11.39-25.02-21.86-50.38-33.38-75.35-2.37-5.14-2.72-10.74 2.86-13.6z"/><path fill="#fff" d="M222.81 200.24q-2.65 7.9-10.85 8.19a1.18 1.17-68.6 00-.83.37l-2.56 2.73c.04-2.9 1.83-3.84 4.63-4.17q6.26-.75 8.29-7.16a.7.7 0 01.67-.5q.43-.01.65.54z"/><path fill="#979a9c" d="M237.68 241.17l-1.82-4.29a.7.7 0 01.34-.9q5.66-2.65 11.45-4.9c27.84-10.82 55.45-21.91 84.39-29.62a.81.81 0 01.97.51l1.53 4.23a.63.63 0 01-.42.82c-32.41 9.76-59.9 20.41-95.54 34.53a.69.69 0 01-.9-.38z"/><path fill="#fff" d="M207.52 212.52q-12.64 9.2-19.7-5.04l.25-1.04a.57.56-83.6 01.55-.44h.29a.36.36 0 01.36.41l-.11.7a1.38 1.38 0 00.21.94c2.58 3.85 5.89 8.14 10.92 6.71q3.65-1.04 7.23-2.24z"/><path fill="#979a9c" d="M247.52 265.38l-2.5-4.89a.58.58 0 01.3-.8c35.88-14.73 56.98-23.08 89.68-33.44q2.26-.72 6.58-1.69a.69.69 0 01.79.4l2.15 4.97a.55.55 0 01-.35.75c-32.96 9.6-64.09 22.32-95.74 35.03a.72.71-24.8 01-.91-.33z"/><path fill="#fff" d="M448.36 254.42c-.45-2.54-.06-4.55-.09-6.95a1.16 1.15-23.4 01.34-.84c2.85-2.86 10.45-9.55 14.28-7.39a.7.7 0 01.33.8l-3.79 12.92a.9.89-88.1 01-.64.61l-5.45 1.3a.87.86-29 01-.81-.23l-.89-.87a.67.67 0 00-.82-.1l-1.77 1.07a.47.46 69.6 01-.69-.32z"/><path fill="#979a9c" d="M342.15 418.7a.27.26 19 01-.18-.36c2.81-6.67 7.65-13.12 10.69-17.99q10.47-16.76 21.09-33.42 8-12.55 15.57-25.36c1.82-3.06 4.89-6.58 6.94-9.98q11.28-18.74 23.15-37.1c8.48-13.13 15.96-25.77 23.76-38.75a.34.33 36.8 01.52-.07l3.59 3.52a.62.62 0 01.12.73c-1.88 3.58-4.65 6.26-6.39 9.73q-1.46 2.92-3.15 5.7c-27.69 45.5-53.55 86.49-83.51 136.23q-1.16 1.92-5.87 8.36a.76.76 0 01-.82.29l-5.51-1.53z"/><path fill="#fff" d="M414.96 325.75l-10 16q-18.56 29.75-36.91 59.63c-4.64 7.54-9.38 14.87-13.54 22.9a.9.9 0 01-1.51.14c-1.47-1.91 33.84-57.34 38.44-65.02 9.29-15.5 18.73-30.38 28.25-45.47 5.5-8.71 10.94-18.23 16.47-27.33 5.37-8.84 10.82-17.68 16.18-26.38.61-.98 1.31-1.29 2.37-.9a.44.43-64.4 01.22.64c-3.87 6.19-7.15 12.3-11.51 18.4-2.6 3.64-4.04 7.47-6.89 11.19-1.71 2.24-2.86 5.18-4.11 7.19q-8.97 14.36-17.46 29.01zM152.04 285.75l-3.56-8.8q2.12-1.16 2.53 1.32.68 4.11 2.3 6.61a.56.54 56.2 01-.14.75q-.47.33-1.13.12zM171.96 307c10.93 26.3 22.86 50.35 33.68 75.8 3.41 8.01 8.06 16.34 11.54 24.27 12.68 28.88 25.5 55.47 37.21 83.21a.56.55 64.2 01-.24.71l-4.91 2.74q1.44-2.17 3.67-3.51a.55.55 0 00.22-.7q-6.18-14.21-12.7-28.23-.2-.43-.2-.89 0-.49-.2-.94c-5.02-11.36-11.26-22.91-15.97-33.53-4.47-10.06-9.49-20.01-13.35-30.31-1.15-3.09-3.48-5.51-4.64-8.36-3.8-9.36-7.11-15.58-9.19-21.25-1.59-4.33-3.95-8.04-5.44-12.44-.84-2.46-2.37-4.22-3.17-6.65q-1.42-4.31-4.73-10.19-5.19-9.24-12.36-28.67c-.23-.62.03-1.15.78-1.06z"/><path d="M414.96 325.75c1.38 3.14-6.32 13.54-8.61 16.76a.84.84 0 01-1.27.11q-.22-.22-.12-.87l10-16z"/><path fill="#fff" d="M462.11 344.66a1.69 1.68 17.2 01-1.11-2.1q1.75-5.67 4.97-10.66a.9.88-73.4 01.72-.4h3.75a.67.67 0 01.67.62q.44 5.71.45 11.31c0 2.4-2.19 6.67-5.28 5.66a.8.8 0 01-.54-.59q-.65-2.89-3.63-3.84z"/><path fill="#979a9c" d="M459.96 350.09a1.23 1.23 0 01.69-.81c.74-.31 1.04.25.95.89-1.59 11.76-4.89 24.66-6.52 34.82-2.22 13.87-4.05 27.28-6.95 41.48-3.36 16.49-5.83 33.66-8.71 49.62q-2.92 16.17-5.58 32.38c-.64 3.9-2.37 8.57-2.72 13.18a1.11 1.1-14.1 01-.52.86l-2.7 1.71q-.7.44-.57-.38c5.84-36.46 15.9-88.34 22.71-123.03 3.19-16.24 5.6-33.87 9.92-50.72zM469.29 358q-4.15 21.16-7.25 42.5c-3.59 21.85-7.79 43.59-11.03 65.5-2.76 18.74-6.78 37.18-9.34 55.94q-.26 1.83-2.1 1.64l-3.34-.35a.45.45 0 01-.4-.52c.43-2.62.55-5.55.97-7.94 3.61-20.34 6.7-40.8 10.75-61.06 4.4-22.07 6.52-41.54 11.58-66.51 2.06-10.15 3.21-21.99 5.45-32.99a.63.63 0 01.69-.49l3.98.49a.52.52 0 01.46.59l-.42 3.2z"/><path d="M462.04 400.5q3.1-21.34 7.25-42.5.53-.38 1.38-.21a.97.97 0 01.75 1.21c-2.68 9.67-3.8 19.25-5.5 29.03-.58 3.32-2.02 7.59-2.39 11.61a.93.93 0 01-.51.74q-.42.21-.98.12z"/><ellipse fill="#979a9c" transform="rotate(81.2 -11.46 434.036)" rx="2.71" ry=".59"/><ellipse fill="#979a9c" transform="rotate(108.1 64.313 340.801)" rx="1.08" ry=".67"/><path fill="#fff" d="M480.21 417.75q-6.16 2.39-12.64 3.71a1.24 1.23 11.5 00-.76.5q-.78 1.09-2.02 1.54-.42-1.66.52-2.95a1.6 1.56 10.7 01.87-.58q7.4-1.87 14.42-4.87a.35.35 0 01.48.3q.08 1.32-.87 2.35z"/><path fill="#979a9c" d="M480.21 417.75l-.42 2q-1.34 1.76-1.55 3.61l-11.3 2.97a1.54 1.52-41.5 01-.92-.05l-1.52-.57.29-2.21q1.24-.45 2.02-1.54a1.24 1.23 11.5 01.76-.5q6.48-1.32 12.64-3.71z"/><path d="M477.75 429.46l.21-3.96.28-2.14q.21-1.85 1.55-3.61.62-.37 1.05-1.14a.43.42-54.8 01.65-.12c1.03.87-1.12 5.14-1.61 6.22q-.21.45-.17.95.22 2.57-1.96 3.8z"/><path fill="#fff" d="M478.24 423.36l-.28 2.14q-5.6 1.58-11.29 2.6c-1.64.3-2.26 1.35-1.81 2.9a.9.87.8 00.61.61q2.59.73 5-.8a.53.52 62.7 01.77.25q.14.35.01.65l-7.76 1.65a.44.44 0 01-.4-.74c1.05-1.08.87-5.19 1.41-6.91l1.52.57a1.54 1.52-41.5 00.92.05l11.3-2.97zM342.54 428.5l-.29.29-4.85-3.98q-.54-.44.13-.6 5.29-1.29 9.28 2.21 1.2 1.04-.29.49-1.85-.69-3.38-1.93a.98.97 24.1 00-1.58.6q-.27 1.76.98 2.92z"/><path fill="#979a9c" d="M477.96 425.5l-.21 3.96q-2.97 1.83-6.5 2.25.13-.3-.01-.65a.53.52 62.7 00-.77-.25q-2.41 1.53-5 .8a.9.87.8 01-.61-.61c-.45-1.55.17-2.6 1.81-2.9q5.69-1.02 11.29-2.6z"/><path fill="#fff" d="M347.83 430.99c.44-1.02.57-1.3.7-2.43a.4.4 0 01.62-.29q1.26.83.63 2.76a1.07 1.07 0 01-1.13.73l-.4-.04a.52.52 0 01-.42-.73z"/><path fill="#979a9c" d="M342.54 428.5q.82.37 1.36 1.03.4.48-.21.33-.9-.22-1.44-1.07l.29-.29z"/><path fill="#fff" d="M437 432.04c-8.29 3.57-17.15 5.84-25.65 9.3a.35.34 26.6 00.22.65q11.91-2.98 23.96-7.16.7-.25 1.01.42l-.33 1.75c-5.61.98-11.6 3.26-16.35 4.63-16.05 4.62-31.94 10.08-47.81 15.28-22.04 7.23-43.68 17.26-65.01 26.39q-.46.2.03.09c8.34-1.87 14.44-4.26 21.14-6.22q6.59-1.93 10.37-3.49 21.83-8.96 39.42-14.19c18.21-5.42 36.41-11.47 54.44-17.49 1.24-.41 1.79-1.33 1.84-2.55a.76.75-7.5 01.52-.67q.43-.14.91-.03l-.42 3.12a.82.8-5.8 01-.56.67c-26.37 8.6-53.19 16.82-79.03 26.9-20.23 7.89-41.01 15.42-62.69 24.39q-18.52 7.66-27.77 10.62-7.49 2.39-15.48.99-3.69-.64-.96-3.2.9-.83 3.8-2.46c19.05-10.65 40.76-18.96 61.9-26.56q60.31-21.66 122.37-43.01a.47.47 0 01.62.37q.12.69-.49 1.46z"/><path fill="#979a9c" d="M437 432.04l-.46 3.21q-.31-.67-1.01-.42-12.05 4.18-23.96 7.16a.35.34 26.6 01-.22-.65c8.5-3.46 17.36-5.73 25.65-9.3zM436.21 437l-.5 1.75q-.48-.11-.91.03a.76.75-7.5 00-.52.67c-.05 1.22-.6 2.14-1.84 2.55-18.03 6.02-36.23 12.07-54.44 17.49q-17.59 5.23-39.42 14.19-3.78 1.56-10.37 3.49c-6.7 1.96-12.8 4.35-21.14 6.22q-.49.11-.03-.09c21.33-9.13 42.97-19.16 65.01-26.39 15.87-5.2 31.76-10.66 47.81-15.28 4.75-1.37 10.74-3.65 16.35-4.63zM437 528.21l-.75.08-5.71.21-.29-.54q3.41-1.12 6.75.25z"/><path fill="#fff" d="M430.25 527.96l.29.54q-.69 1.36-.24 2.78a.93.93 0 00.89.66h4.56a.67.67 0 00.67-.71l-.17-2.94.75-.08q2.68.58 2.8 3.33a1.38 1.37-2.2 01-1.34 1.44c-3.93.11-9.83 1.23-11.55-3.45a.49.49 0 01.31-.64l3.03-.93z"/><path d="M436.25 528.29l.17 2.94a.67.67 0 01-.67.71h-4.56a.93.93 0 01-.89-.66q-.45-1.42.24-2.78l5.71-.21z"/><path fill="#21201f" d="M0 590.44c1.06.82 20.78.38 25.94.56H0v-.56zM40.44 591h-7.25q3.62-.63 7.25 0zM71.94 591H60.19q5.87-.63 11.75 0zM87.94 591h-5.75q2.87-.63 5.75 0zM95.94 591h-6.75q3.37-.63 6.75 0zM103.94 591h-5.75q2.87-.63 5.75 0zM111.94 591h-5.75q2.87-.63 5.75 0zM144.94 591h-6.75q3.37-.63 6.75 0zM184.94 591h-16.75q8.37-.63 16.75 0zM191.94 591h-6.75q3.37-.63 6.75 0zM224.94 591h-18.75q9.37-.63 18.75 0zM271.94 591h-5.25q2.62-.63 5.25 0zM328.94 591h-6.75q3.37-.63 6.75 0zM335.94 591h-6.75q3.37-.63 6.75 0zM376.94 591h-11.75q5.87-.63 11.75 0zM384.94 591h-7.75q3.87-.63 7.75 0zM393.94 591h-8.75q4.37-.63 8.75 0z"/><path fill="#979a9c" d="M431.94 591h-11.75q5.87-.63 11.75 0z"/><path fill="#21201f" d="M441.94 591h-7.75q3.87-.63 7.75 0zM447.94 591h-5.75q2.87-.63 5.75 0zM480.94 591h-14.75q7.37-.63 14.75 0zM536.94 591h-15.75q7.87-.63 15.75 0zM556.44 591h-19.25q9.62-.63 19.25 0zM572.94 591h-4.75q2.37-.63 4.75 0zM589.94 591h-9.25q4.62-.63 9.25 0z"/></svg>