<svg xmlns="http://www.w3.org/2000/svg" viewBox="0 0 591 591"><g stroke-width="2" fill="none"><path stroke="#4c4d4e" vector-effect="non-scaling-stroke" d="M590.06 0l.23 4.25"/><path stroke="#10100f" vector-effect="non-scaling-stroke" d="M590.29 4.25V5"/><path stroke="#4c4d4e" vector-effect="non-scaling-stroke" d="M590.29 5l-.04 584.71"/><path stroke="#5b5b5b" vector-effect="non-scaling-stroke" d="M590.25 589.71q-1.63.53-4.56.53-290.5.02-581-.19-2.34 0-4.69-.11"/><path stroke="#7e7f71" vector-effect="non-scaling-stroke" d="M585.49 5.52a.27.27 0 00-.27-.27H5.52a.27.27 0 00-.27.27v579.7a.27.27 0 00.27.27h579.7a.27.27 0 00.27-.27V5.52"/><path stroke="#5c5d5d" vector-effect="non-scaling-stroke" d="M590.81 0q.24 2.23-.52 4.25"/><path stroke="#6b6b6a" vector-effect="non-scaling-stroke" d="M591 590.31l-.29-.56"/><path stroke="#5c5d5d" vector-effect="non-scaling-stroke" d="M590.71 589.75l-.02-584.56a.15.15 0 00-.13-.15l-.27-.04"/><path stroke="#a6a7a9" vector-effect="non-scaling-stroke" d="M590.71 589.75l-.46-.04"/><path stroke="#fbf1c7" vector-effect="non-scaling-stroke" d="M83.78 35.78q-5.78-.53-10.6-.37-16.93.56-33.86.95c-9.47.22-19.25 7.66-18.84 17.9.65 16.07-.05 30.52.94 45.84a.73.72-18.3 001.12.56q2.1-1.34 3.93-3.2c13.39-13.59 26.19-26.88 40.1-40.85q8.93-8.98 17.04-18.74.59-.71.76-1.15a.7.7 0 00-.59-.94"/><path stroke="#7e7f71" vector-effect="non-scaling-stroke" d="M302.79 402.5q-6.97 22.67-4 46.25"/><path stroke="#8e8f80" vector-effect="non-scaling-stroke" d="M298.79 448.75c4.13 27.92 17.25 55.35 39.5 73.21 47.17 37.84 113.75 25.38 146.32-24.71 9.63-14.81 15.85-29.19 18.57-48.26 5.29-37.09-5.76-73.91-32.76-100.17q-.96-.93-1.27-1.78a1.18 1.17-42.1 01.05-.94q5.1-10.28 5.52-21.85c.79-21.54.51-43.55-2.66-64.9q-2.32-15.56-3.56-22.1c-3-15.77-8.73-29.44-16.05-44.52-19.91-41.06-55.56-63.51-98.35-75.2q-7.61-2.08-16.6-2.77c-16.52-1.28-26.4-2.43-39.78-1.11q-10.68 1.05-10.95 1.08-28.57 2.45-55.76 11.32c-31.78 10.36-54.66 31.26-74.91 57.03q-5.39 6.86-9.48 14.67c-13.04 24.94-19.76 50.13-23.34 77q-3.31 24.91-3.76 31.5-.63 9.17-.51 37.33c0 1.82.43 1.57-.72 3.48-2.69 4.46-6.16 8.88-8.36 13.19-25.46 49.99-13.56 111.66 32.43 145.22 21.52 15.7 53.23 19.67 78.8 16.47 21.2-2.65 38.41-13.38 50.01-31.58q6.78-10.64 9.58-17.36c13.7-32.82 11.69-73.55-1.66-106.57-1.94-4.78-4.77-9.58-7.34-14.25-12.68-22.95-33.6-42.32-60.45-46-18.27-2.5-35.72.02-52.26 7.46q-1.03.46-.88-.66 4.8-35.25 17.27-66.92c3.72-9.46 7.33-14.44 14.5-24.38q.95-1.32 2.38-2.33a1.33 1.29 29.3 01.9-.24c24.31 2.55 42.77-15.36 60.65-29.77 12.39-9.98 28.3-17.97 44.54-13.97 12.5 3.08 27.7 9.66 37.79 17.92 8.38 6.86 17.77 17.38 26.48 24.6 10.54 8.72 20.02 17.29 34.84 16.54a.74.73 75.9 01.71.43c1.31 3.01 1.85 6.71 2.8 9.34q10.56 29.31 18.46 61.06 2.29 9.17 3.17 17.44a.38.37-87.7 01-.44.41c-55.88-10.28-104.86 26.33-119.42 79.39"/><path stroke="#10100f" vector-effect="non-scaling-stroke" d="M298.79 448.75q1.08-1.16.98-2.75-1.47-21.75 3.94-42.87a.55.55 0 00-.4-.66q-.25-.06-.52.03"/><path stroke="#d8dacc" vector-effect="non-scaling-stroke" d="M31.8 277.15a1.43.46-6.8 00-1.474-.287 1.43.46-6.8 00-1.366.626 1.43.46-6.8 001.474.288 1.43.46-6.8 001.366-.626M262.495 315.201a.27.27 0 00-.308-.226l-6.584 1.007a.27.27 0 00-.226.308l.148.969a.27.27 0 00.308.226l6.584-1.007a.27.27 0 00.226-.308l-.148-.969"/><path stroke="#6b6b6a" vector-effect="non-scaling-stroke" d="M320.84 122.7q-11.5 4.5-21.16 12.14c-1.13.89-2.13 1.07-3.45 1.55"/><path stroke="#5c5d5d" vector-effect="non-scaling-stroke" d="M296.23 136.39q-17.16-.81-34.23 1.32"/><path stroke="#6b6b6a" vector-effect="non-scaling-stroke" d="M262 137.71q-2.77-.03-5.25 1.08"/><path stroke="#5c5d5d" vector-effect="non-scaling-stroke" d="M256.75 138.79l-.25-.14a.22.22 0 01-.04-.35q6.04-5.96 13.04-10.76"/><path stroke="#6b6b6a" vector-effect="non-scaling-stroke" d="M269.5 127.54l11.79-5.58a.18.18 0 00-.1-.34c-27 4.19-54.07 10.35-77.44 25.17"/><path stroke="#5c5d5d" vector-effect="non-scaling-stroke" d="M203.75 146.79c-20.05 13.02-35.52 30.03-48.73 49.83-4.15 6.21-7.65 14.13-10.19 21.19-2.76 7.66-5.89 15.15-7.79 23.12-2.07 8.71-4.51 17.56-5.83 25.95q-2.38 15.24-4 30.58c-1.33 12.59-1.23 26.17-1.62 39.33a.47.47 0 00.82.32l3.26-3.84q.33-.39.8-.61c1.91-.9 2.54-1.45 2.56-3.77q.02-5.49.43-10.89"/><path stroke="#6b6b6a" vector-effect="non-scaling-stroke" d="M133.46 318v-10.86"/><path stroke="#5c5d5d" vector-effect="non-scaling-stroke" d="M133.46 307.14q1.33-6.59 1.54-13.6"/><path stroke="#6b6b6a" vector-effect="non-scaling-stroke" d="M135 293.54l1.75-11.33"/><path stroke="#10100f" vector-effect="non-scaling-stroke" d="M136.75 282.21l.29.48a.53.53 0 00.73.19l.23-.14a.42.41-15 00.21-.36q.02-2.01.31-3.12 2.35-9.02 3.81-18.21c.66-4.14 1.98-8.49 2.68-12.83.4-2.52 1.51-4.88 1.89-7.53a.5.5 0 00-.46-.57q-.48-.04-.69.34"/><path stroke="#6b6b6a" vector-effect="non-scaling-stroke" d="M145.75 240.46q4.67-13.91 6.47-17.76 3.24-6.9 10.82-17.92c7.49-10.89 15.12-18.87 25.38-26.12 10.1-7.14 20.86-14.65 32.57-18.43 10.64-3.45 25.51-8.19 40.55-10.48"/><path stroke="#5c5d5d" vector-effect="non-scaling-stroke" d="M261.54 149.75l14.46-1.21"/><path stroke="#6b6b6a" vector-effect="non-scaling-stroke" d="M276 148.54l18.11-.52"/><path stroke="#5c5d5d" vector-effect="non-scaling-stroke" d="M294.11 148.02q15.71 3.34 30.89 8.69"/><path stroke="#6b6b6a" vector-effect="non-scaling-stroke" d="M325 156.71c19.23 7.31 33.65 16.66 49.65 30.21"/><path stroke="#5c5d5d" vector-effect="non-scaling-stroke" d="M374.65 186.92q.81 1.49 2.31 2.58"/><path stroke="#6b6b6a" vector-effect="non-scaling-stroke" d="M376.96 189.5q11.85 13.06 20.83 28.25"/><path stroke="#5c5d5d" vector-effect="non-scaling-stroke" d="M397.79 217.75l1.21 2.54"/><path stroke="#6b6b6a" vector-effect="non-scaling-stroke" d="M399 220.29q4.73 11.96 9.25 24c3.19 8.47 5.71 17.64 8.5 26.5"/><path stroke="#5c5d5d" vector-effect="non-scaling-stroke" d="M416.75 270.79l2.25 6"/><path stroke="#6b6b6a" vector-effect="non-scaling-stroke" d="M419 276.79q2.4 8.28 4.62 16.62c3.11 11.7 5.13 24.14 7.42 36.28 1.55 8.2 4.82 16.88 11.83 21.96q1.92 1.39 3.23 1.36a1.25 1.25 0 001.03-1.93c-2.78-4.32-3.82-7.51-4.72-13.01-1.3-8.01-3.3-15.48-4-23.78-.76-9.12-2.84-18.28-4.51-27.28q-1.49-8.05-3.68-15.28c-7.21-23.81-13.62-45.36-26.74-65.82"/><path stroke="#5c5d5d" vector-effect="non-scaling-stroke" d="M403.48 205.91c-10.79-20.34-28.19-34.42-47.54-46.31-9.79-6.01-17.1-10.42-26.62-13.76"/><path stroke="#6b6b6a" vector-effect="non-scaling-stroke" d="M329.32 145.84q-3.95-1.94-8.45-2.45"/><path stroke="#5c5d5d" vector-effect="non-scaling-stroke" d="M320.87 143.39l-6.92-2.44a.43.43 0 01-.16-.7q2.4-2.5 5.38-4.36c8.34-5.21 16.32-9.95 25.82-12.98q.48-.15-.01-.26c-8.21-1.9-17.03-3.97-24.14.05"/><path stroke="#a6a7a9" vector-effect="non-scaling-stroke" d="M320.87 143.39q3.57 3.67 8.45 2.45M403.48 205.91q-1.09 2.55 1.08 5.29c8.86 11.18 12.53 26.79 17.61 39.98q2.43 6.29 3.69 10.31c1.71 5.45 4.1 10.81 5.09 16.44.68 3.87 1.9 6.7 2.45 11.55.39 3.43 1.76 7.61 1.84 12.27q0 .53.76 1.98a1.9 1.9 0 01.19.95c-.26 3.5.98 6.69 1.11 9.78q.23 5.53 1.12 11a.24.23 77 01-.16.26q-.21.06-.15.25 3.47 10.44 3.99 20.58a.85.84 28.7 01-1.58.46l-6.24-10.97q-.26-.46-.32-.99c-.43-4.2-2.19-8.4-2.74-12.03-.83-5.43-1.65-10.52-3.07-15.93q-3.9-14.81-7.97-29.57-.25-.89-1.18-.73"/><path stroke="#a6a7a9" vector-effect="non-scaling-stroke" d="M416.75 270.79c2.44-3.13-12.42-41.15-15.34-48.24q-.9-2.19-2.41-2.26M397.79 217.75q.21-.19.33-.45a1.07 1.07 0 000-.92q-2.26-4.65-5.42-8.72c-1.75-2.27-2.45-5.25-5.06-7.38q-.39-.31-.59-.78c-1.8-4.18-5.71-7.05-8.54-10.67a.86.85 65.4 00-.82-.31q-.75.14-.73.98M374.65 186.92q.09-3.04-2.34-4.5-3.15-1.9-3.22-1.95c-8.25-6.64-16.89-13.65-26.7-17.91q-9.84-4.27-16.14-6.56-.79-.29-1.25.71M294.11 148.02q-9.88-1.82-19.84-.55a.36.36 0 00-.26.54q.58.95 1.99.53M261.54 149.75c.06-1.46-1.01-2.01-2.35-1.69-8.88 2.1-17.94 3.72-26.4 6.56-13.11 4.4-24.18 8.09-34.95 15.8-8.55 6.11-18.31 11.85-25.17 19.98-3.42 4.06-7.03 7.55-9.87 12.04q-3.3 5.22-6.67 10.4c-5.13 7.87-8.2 15.06-11.43 23.61q-1.73 4.58-1 9.08"/><path stroke="#4c4d4e" vector-effect="non-scaling-stroke" d="M143.7 245.53l-3.7 19.76"/><path stroke="#a6a7a9" vector-effect="non-scaling-stroke" d="M140 265.29q-.74-.49-1.47-.28a.91.89 89.5 00-.62.64q-2.03 7.73-3.4 15.6c-.21 1.2.39 2.21.06 3.65q-1 4.37-.79 8.88a.44.43-10 00.56.39q.42-.14.66-.63M133.46 307.14q-2.29 4.86-1.26 10.2a.83.82 2.9 00.59.65q.32.1.67.01M203.75 146.79c.16 1.02.93 1.12 1.65.62q7.33-5.1 15.68-8.3c12.39-4.74 23.41-9.53 37.54-11.78 2.76-.44 5.86-1.89 9.11-2.08a.62.61-8.9 01.62.45q.32 1.14 1.15 1.84M256.75 138.79q3.02 1.1 5.76-.63.36-.23-.03-.41-.19-.09-.48-.04M296.23 136.39c-.63 3.03 5.22-.95 5.96-1.44q9.24-6.24 18.65-12.25"/><path stroke="#5b5b5b" vector-effect="non-scaling-stroke" d="M145.75 240.46l-2.05 5.07M136.75 282.21l3.25-16.92"/><path stroke="#5c5d5d" vector-effect="non-scaling-stroke" d="M313.5 172.04q15.29 6.57 28.87 16.24"/><path stroke="#6b6b6a" vector-effect="non-scaling-stroke" d="M342.37 188.28c11.83 11.06 27.16 30.06 42.84 34.72"/><path stroke="#5c5d5d" vector-effect="non-scaling-stroke" d="M385.21 223l4.79.96"/><path stroke="#6b6b6a" vector-effect="non-scaling-stroke" d="M390 223.96q1.34.77 2.66.06a.51.51 0 00.2-.7c-7.56-13.08-15.86-25.82-27.59-35.59q-16.58-13.82-36.48-22.23"/><path stroke="#5c5d5d" vector-effect="non-scaling-stroke" d="M328.79 165.5q-17.02-6.91-35.29-8.96"/><path stroke="#6b6b6a" vector-effect="non-scaling-stroke" d="M293.5 156.54c-10.27-.64-20.08.45-30.14 1.3-14.46 1.22-27.25 4.63-40.93 10.2-16.19 6.59-30.84 17.73-43.57 29.54q-1.78 1.65-3.47 5.5a.74.73-55.9 00.15.81c10.31 10.34 24.67 5.08 34.4-2.79 8.11-6.55 16.39-12.26 24.97-18.15 17.52-12.01 41.07-17.32 61.83-15.49q5.19.46 16.76 4.58"/><path stroke="#a6a7a9" vector-effect="non-scaling-stroke" d="M293.5 156.54l-.01.9a.54.53 89.5 01-.52.54c-3.6.06-7.31.22-10.87-.29-1.87-.27-4.55.27-5.74.31q-6.92.23-13.74 1.58c-1.54.3-2.97-.12-4.56.24-4.82 1.07-9.63 1.5-12.38 2.31-2.51.74-4.99.69-7.05 1.65q-11.25 5.21-16.89 6.68-4.46 1.17-8.31 3.73c-1.63 1.08-41.89 25.63-34.76 29.52q.43.24.74.62c3.68 4.51 9.86 4.6 15.02 2.92 5.48-1.77 12.32-5.93 16.73-9.73q3.38-2.91 6.06-4.54c7.87-4.77 16.05-11.29 23.08-15.08q14.81-7.99 31.46-11.37c2.48-.5 6.36-.03 9.32-.32q16.72-1.62 32.63 4.42a.66.66 0 01.14 1.17l-.35.24M328.79 165.5l-.04.69a.83.83 0 00.41.78q5.35 3.12 11 5.64 4.29 1.92 16.85 10.86c6 4.26 12.72 9.9 16.45 15.07 1.84 2.55 4.06 4.72 5.45 6.84q5.15 7.86 10.56 15.53c.72 1.02.58 1.88.53 3.05M385.21 223q.51-.79-.45-1.26c-8.13-4.06-14.53-8.71-21.42-15.8q-9.59-9.86-20.97-17.66"/><path stroke="#90908f" vector-effect="non-scaling-stroke" d="M194.72 313.8c-49.35 11.04-63.97 79.46-53.24 120.2q3.15 11.95 4.06 14.98c7.84 25.96 28.56 54.58 55.96 62.99 30.72 9.43 57.89-10.36 69.91-37.47q6.12-13.82 7.38-18.74 8.26-32.37.62-64.43c-2.13-8.93-6.19-19.41-9.87-27.63q-7.39-16.53-21.04-30.16"/><path stroke="#10100f" vector-effect="non-scaling-stroke" d="M248.5 333.54q.62-.01.84-.38a.78.77 44.7 00-.01-.86c-4.57-6.74-14.29-12.96-21.92-15.59-10.33-3.56-20.15-5.56-31.14-4.66q-2.65.22-1.55 1.75"/><path stroke="gray" vector-effect="non-scaling-stroke" d="M248.5 333.54c-14.68-14.86-32.81-22.39-53.78-19.74"/><path stroke="#5c5d5d" vector-effect="non-scaling-stroke" d="M136.05 489.61l2.66 2.89"/><path stroke="#6b6b6a" vector-effect="non-scaling-stroke" d="M138.71 492.5c6.11 7.03 17.79 13.03 26.35 16.5"/><path stroke="#5c5d5d" vector-effect="non-scaling-stroke" d="M165.06 509q9.87 4.68 20.87 5.29.51.02.08-.24-7.08-4.3-13.47-9.55"/><path stroke="#90908f" vector-effect="non-scaling-stroke" d="M172.54 504.5c-23.85-20.66-37.78-53.72-40.57-84.51-2.62-28.86 1.47-54.8 16.11-79.91q6.87-11.78 17.6-20.21.41-.32-.11-.26-2.33.29-5.03 1.63c-30 14.88-49.71 42.81-55.2 75.49-1.74 10.36-1.5 22.79-.22 33.2 2.59 20.95 14.48 46.87 30.93 59.68"/><path stroke="#cbcccd" vector-effect="non-scaling-stroke" d="M172.54 504.5q-.2.8-.94.96a1.02 1 60.4 01-.88-.25c-1.87-1.79-9.22-10.96-10.96-11.06q-12.16-.66-23.71-4.54"/><path stroke="#a6a7a9" vector-effect="non-scaling-stroke" d="M165.06 509q-2.35-3.69-7.52-5.06c-5.03-1.33-8.2-5.2-12.76-7.79q-2.56-1.45-4.59-3.63a1.02 1.01-24.9 00-.86-.31q-.35.04-.62.29"/><path stroke="#5c5d5d" vector-effect="non-scaling-stroke" d="M341 513.54q1.27 1.94 3.21 3.21"/><path stroke="#6b6b6a" vector-effect="non-scaling-stroke" d="M344.21 516.75q9 7.31 19.84 11.7"/><path stroke="#5c5d5d" vector-effect="non-scaling-stroke" d="M364.05 528.45q5.57 3.24 11.95 4.76"/><path stroke="#6b6b6a" vector-effect="non-scaling-stroke" d="M376 533.21q47.14 11.37 83.53-19.15 13.76-11.54 20.67-23.62c7.46-13.04 13.7-26.38 15.8-41.69q6.07-44.29-18.75-80.29"/><path stroke="#5c5d5d" vector-effect="non-scaling-stroke" d="M477.25 368.46q-4.71-6.89-9.46-11.55-1.97-1.94-1.84.82 1.21 26.56-1.55 52.99a.83.83 0 00.41.81q4.04 2.32 8.77 1.93a.6.59-87.3 01.63.7c-.76 4.29-1.77 9.44-5.11 12.6q-3.61 3.41-7.41 6.92a.54.54 0 00-.06.73c6.73 8.34 2.98 14.94 2.53 24.33a.3.29-80.1 01-.38.27q-.26-.07-.49-.01"/><path stroke="#6b6b6a" vector-effect="non-scaling-stroke" d="M463.29 459q-8.23-1.91-14.02-8.04a.3.3 0 00-.5.1c-3.31 8.73-9.75 11.96-15.31 18.69"/><path stroke="#5c5d5d" vector-effect="non-scaling-stroke" d="M433.46 469.75q-.99 1.55-2.17.5"/><path stroke="#90908f" vector-effect="non-scaling-stroke" d="M431.29 470.25q-4.01-14.03-2.98-28.78a.63.62-81.8 00-.48-.65q-15.34-3.57-22.3-17.6a1.02 1.02 0 01.97-1.47c3.01.17 5.58.24 8.52-1.15q4.04-1.91 8.35-3.65a.59.59 0 00.36-.67q-1.9-8.92 2.52-16.57"/><path stroke="#10100f" vector-effect="non-scaling-stroke" d="M426.25 399.71q1.16.86 1.73-.25c2.29-4.49 5.3-8.83 5.52-13.97a.86.83-74.5 00-.42-.77q-1.08-.62-1.79.28"/><path stroke="#90908f" vector-effect="non-scaling-stroke" d="M431.29 385q1.58-16.32.04-32.63c-.13-1.38-.71-2.03-1.33-3.16"/><path stroke="#5c5d5d" vector-effect="non-scaling-stroke" d="M430 349.21l-4.84-10.92"/><path stroke="#6b6b6a" vector-effect="non-scaling-stroke" d="M425.16 338.29l-1.97-6.92"/><path stroke="#5c5d5d" vector-effect="non-scaling-stroke" d="M423.19 331.37l-9.44-1.58"/><path stroke="#90908f" vector-effect="non-scaling-stroke" d="M413.75 329.79c-8.55-1.51-20.24-.97-28.72.94-43.8 9.88-74.56 48.06-78.75 92.23q-3.59 37.87 15.82 69.62c4.66 7.61 11.75 15.64 18.9 20.96"/><path stroke="#cbcccd" vector-effect="non-scaling-stroke" d="M413.75 329.79q.59 2.74 1.49 3.47 7.75 6.34 13.14 14.75.26.41.68.66l.94.54"/><path stroke="gray" vector-effect="non-scaling-stroke" d="M431.29 385c-.16 2.33-.07 4.61-1.12 6.75l-3.92 7.96"/><path stroke="#cbcccd" vector-effect="non-scaling-stroke" d="M431.29 470.25c-.22.47-.58 1.99-.8 2.31-20.31 29.06-52.04 45.69-87.9 40.06a.65.64 17.8 00-.67.34q-.29.56-.92.58"/><path stroke="#a6a7a9" vector-effect="non-scaling-stroke" d="M423.19 331.37q-1.27 4.26 1.97 6.92M477.25 368.46q-.31 0-.49.13a.61.61 0 00-.17.79c4.83 8.64 10.17 17.35 13.14 26.47q2.47 7.6 4.12 15.41c1.42 6.71.82 12.77 1.87 20.24q.68 4.9-.55 13.93c-.19 1.36-3.39 15.72-4.22 16.2a.85.83-13.4 00-.44.7q-.18 3.05-1.51 6.16c-5.13 12-11.03 23.62-19.07 33.5q-2.59 3.18-5.94 5.94-11.65 9.6-15.98 12.55c-19.88 13.51-41.92 17.29-65.44 13.22-2.06-.35-4.05-1.96-6.57-.49M364.05 528.45q-1-2.12-3.38-2.53a1.13 1.11 77.8 01-.75-.49c-.92-1.36-2.62-1.22-3.6-1.72q-5.21-2.68-8.7-6.07-1.69-1.65-3.41-.89"/><path stroke="#a6a7a9" vector-effect="non-scaling-stroke" d="M433.46 469.75q.21.42.62.52a.93.92 29.6 00.88-.24l12.26-12.14a1.67 1.65-16 00.44-.78q.36-1.55 1.82-2.23a.81.8 51.7 01.84.1q.79.65 1.77.52a1.23 1.23 0 01.9.25q4.23 3.3 9.41 4.66a.89.86 27.6 00.88-.26q.4-.44.01-1.15"/><path stroke="#6b6b6a" vector-effect="non-scaling-stroke" d="M438.29 378l-.64 9.05"/><path stroke="#5c5d5d" vector-effect="non-scaling-stroke" d="M437.65 387.05q-2.52 26.35-2.07 34.45.36 6.48 4.03 12.32a.33.33 0 00.61-.17l.07-2.65"/><path stroke="#10100f" vector-effect="non-scaling-stroke" d="M440.29 431q.52.13 1.06-.03a.61.59 77.2 00.41-.67c-1.19-7.33.01-14.91.7-22.24.25-2.68 4.65-26.39 2.81-27.49a.53.53 0 00-.72.16l-.51.77"/><path stroke="#5c5d5d" vector-effect="non-scaling-stroke" d="M444.04 381.5c.02-7.12.67-14.44-.23-21.46a1.13 1.12-78 00-.52-.81l-4.68-2.92q-.6-.37-.59.33l.27 21.36"/><path stroke="#4c4d4e" vector-effect="non-scaling-stroke" d="M444.04 381.5l-.33 4.75"/><path stroke="#a6a7a9" vector-effect="non-scaling-stroke" d="M443.71 386.25l-.46-.81a.4.4 0 00-.73.09q-1.77 5.9-.01 10.77"/><path stroke="#4c4d4e" vector-effect="non-scaling-stroke" d="M442.51 396.3q-1.93 14.37-2.76 24.95-.35 4.45.54 9.75"/><path stroke="#a6a7a9" vector-effect="non-scaling-stroke" d="M437.65 387.05q1.76.18 1.51-2.13c-.13-1.16.73-7.35-.87-6.92"/><path stroke="#5b5b5b" vector-effect="non-scaling-stroke" d="M442.51 396.3l1.2-10.05"/><path stroke="#90908f" vector-effect="non-scaling-stroke" d="M183.78 491.21q9.49 8.71 22.83 11.97c37.34 9.13 59.6-28.83 64.9-59.67 5.67-33.01-1.84-67.52-22.19-94.57-14.47-19.22-39-33.69-62.5-22.94-19.21 8.8-31.94 33.04-36.07 53.01q-4.31 20.86-2.17 41.49c1.15 11.04 5.02 23.99 9.15 34.02q8.45 20.52 26.05 36.69"/><path stroke="#cbcccd" vector-effect="non-scaling-stroke" d="M134.397 457.034a4.72 3.91 35.4 00-1.582-5.921 4.72 3.91 35.4 00-6.112.453 4.72 3.91 35.4 001.582 5.921 4.72 3.91 35.4 006.112-.453M139.114 472.79a8.02 5.43 31 00-4.077-8.784 8.02 5.43 31 00-9.672.523 8.02 5.43 31 004.078 8.785 8.02 5.43 31 009.671-.523"/><path stroke="#90908f" vector-effect="non-scaling-stroke" d="M198.25 328.29c-13.32 2.9-21.93 10.86-29.82 21.65q-2.24 3.07-2.58 4.68"/><path stroke="#5c5d5d" vector-effect="non-scaling-stroke" d="M165.85 354.62q-4.73 7.52-7.19 15.63"/><path stroke="#6b6b6a" vector-effect="non-scaling-stroke" d="M158.66 370.25c-4.99 13.01-5.41 30.77-5.12 43.5"/><path stroke="#90908f" vector-effect="non-scaling-stroke" d="M153.54 413.75l.5 4.75"/><path stroke="#6b6b6a" vector-effect="non-scaling-stroke" d="M154.04 418.5q.77 9.03 3.25 17.75"/><path stroke="#5c5d5d" vector-effect="non-scaling-stroke" d="M157.29 436.25q.94 6.41 4.27 11.79"/><path stroke="#90908f" vector-effect="non-scaling-stroke" d="M161.56 448.04q2.94 8.92 7.33 17.05 2.88 5.36 6.86 9.95"/><path stroke="#5c5d5d" vector-effect="non-scaling-stroke" d="M175.75 475.04c8.15 11.45 24.33 24.31 39.25 23.67"/><path stroke="#90908f" vector-effect="non-scaling-stroke" d="M215 498.71q2.99.61 6 0"/><path stroke="#5c5d5d" vector-effect="non-scaling-stroke" d="M221 498.71l2-.17"/><path stroke="#90908f" vector-effect="non-scaling-stroke" d="M223 498.54c19.89-2.91 34.21-23.78 39.8-41.54q7.2-22.89 5.15-47.3"/><path stroke="#5c5d5d" vector-effect="non-scaling-stroke" d="M267.95 409.7l-1.27-5.3"/><path stroke="#6b6b6a" vector-effect="non-scaling-stroke" d="M266.68 404.4q-3.38-23.18-15.39-42.9"/><path stroke="#90908f" vector-effect="non-scaling-stroke" d="M251.29 361.5c-8.71-15.04-21.57-27.66-38.1-32.63"/><path stroke="#5c5d5d" vector-effect="non-scaling-stroke" d="M213.19 328.87q-2.5-1.16-5.44-1.08"/><path stroke="#90908f" vector-effect="non-scaling-stroke" d="M207.75 327.79l-4.94-.25"/><path stroke="#5c5d5d" vector-effect="non-scaling-stroke" d="M202.81 327.54l-4.56.75"/><path stroke="#cbcccd" vector-effect="non-scaling-stroke" d="M202.81 327.54q1.19 17.42 2.72 34.81c1.17 13.19 1.73 28.17 3.15 42.43a.57.57 0 01-1.06.36q-2.18-3.54-5.02-7.52-16.69-23.34-33-46.71a.96.96 0 01.04-1.15c7.96-9.85 15.36-17.29 28.07-20.37a.75.75 0 00.57-.63q.03-.23-.03-.47M207.75 327.79c1.25 1.34 1.24 13.7 1.36 15.03q2.74 31.15 4.76 63.24a.59.59 0 001.1.27c10-16.5 21.51-32.21 31.78-48.31a1.87 1.87 0 00-.15-2.21q-2.66-3.14-5.21-6.23c-6.33-7.66-12.67-12.58-21.64-16.79q-3.47-1.62-6.56-3.92"/><path stroke="#dadadb" vector-effect="non-scaling-stroke" d="M251.29 361.5l-1.04 1.21"/><path stroke="#cbcccd" vector-effect="non-scaling-stroke" d="M250.25 362.71c-7.82 10.66-14.5 22.16-22.03 32.76q-5.31 7.47-10.24 15.16a.43.43 0 00.38.66q20.52-.75 40.97-1.02c2.59-.03 5.66-.55 8.62-.57M223 498.54l-.37-.04a.46.45.8 01-.41-.41c-.04-.64 5.98-2 6.79-2.22 9.09-2.48 17.58-11.09 22.74-18.72a.79.79 0 00.03-.84q-2.52-4.32-5.43-8.4-15.19-21.31-30.47-42.63a.39.38 25 00-.7.25q2.6 33.59 4.78 67.22.09 1.37 1.04 5.96M215 498.71c.21-11.38-1.29-24.47-1.95-33.67q-1.46-20.23-3.22-39.52-.21-2.39-1.5-.36c-10.65 16.86-21.89 33.16-32.58 49.88M161.56 448.04l10.62 20.6a.86.86 0 001.49.07c7.65-11.89 14.83-22.26 23.25-35.45q5.33-8.33 11.18-16.36.29-.4-.2-.38l-52.65 2.02"/><path stroke="#dadadb" vector-effect="non-scaling-stroke" d="M155.25 418.54l-1.21-.04M153.54 413.75l1.46-.29"/><path stroke="#cbcccd" vector-effect="non-scaling-stroke" d="M155 413.46q24.69-1.67 49.7-1.7a.86.85-83.6 00.83-.67c.23-1.02-35.95-51.16-39.68-56.47"/><path stroke="#a6a7a9" vector-effect="non-scaling-stroke" d="M155 413.46c-1.19-8.11.05-17.93.9-26.08q.27-2.65 1.51-8.51.89-4.26 1.25-8.62M266.68 404.4q-2.15-.94-2.15-3.22c.01-6.07-2.32-12.58-4.26-18.3-2.21-6.52-5.96-13.03-9.09-19.58a.92.91-4.8 00-.6-.5l-.33-.09M157.29 436.25l.41-.24a.61.6-19.9 00.29-.61l-2.28-13.5a1.65 1.6-73.2 00-.45-.87q-1.05-1.04-.01-2.49"/><path stroke="#cbcccd" vector-effect="non-scaling-stroke" d="M266.49 415.1c-.41-.44-44.32.89-48.99.99q-1.53.03-.7 1.31 1.49 2.33 3.67 5.39 17.06 23.83 34.17 48.11a.72.72 0 001.24-.1c8.09-16.88 11.73-35.52 11.51-54.56q-.01-.97-.7-1.05a.33.3-18 01-.2-.09M414.71 364.064a8.33 6.74 49.5 00-.285-10.711 8.33 6.74 49.5 00-10.535-1.957 8.33 6.74 49.5 00.285 10.711 8.33 6.74 49.5 0010.535 1.957M423.535 396.54a8.72 8.3 69 004.624-11.115 8.72 8.3 69 00-10.874-5.166 8.72 8.3 69 00-4.624 11.115 8.72 8.3 69 0010.874 5.167M372.51 450.294a7.72 7.37 57.4 002.049-10.475 7.72 7.37 57.4 00-10.368-2.533 7.72 7.37 57.4 00-2.05 10.475 7.72 7.37 57.4 0010.368 2.533M382.597 487.28a9.32 8.74 129.7 0012.678-1.587 9.32 8.74 129.7 00-.772-12.754 9.32 8.74 129.7 00-12.678 1.588 9.32 8.74 129.7 00.772 12.754M376.567 492.547a4.12 3.78-4.5 00-4.404-3.445 4.12 3.78-4.5 00-3.81 4.091 4.12 3.78-4.5 004.404 3.445 4.12 3.78-4.5 003.81-4.091"/><path stroke="#6b6b6a" vector-effect="non-scaling-stroke" d="M589.94 591q-5.13-.63-10.25 0M565.94 591q-2.88-.63-5.75 0M559.94 591l-13.69-.21M546.25 590.79l-33.06.21M511.94 591q-3.88-.63-7.75 0M501.94 591q-2.38-.63-4.75 0M493.94 591q-6.38-.63-12.75 0M480.44 591q-3.63-.63-7.25 0M472.94 591q-2.38-.63-4.75 0M437.94 591q-2.88-.63-5.75 0M431.94 591q-6.88-.63-13.75 0M408.94 591l-30.69-.21M378.25 590.79h-69.5M308.75 590.79l-58.56.21M247.94 591q-27.38-.63-54.75 0M192.94 591q-15.88-.63-31.75 0M159.94 591q-2.88-.63-5.75 0M142.94 591q-14.38-.63-28.75 0M111.94 591q-6.88-.63-13.75 0M93.94 591q-30.38-.63-60.75 0M28.94 591q-6.38-.63-12.75 0M15.94 591L0 590.44"/><path stroke="#20201e" vector-effect="non-scaling-stroke" d="M308.75 590.79l-.06.21M378.25 590.79l-.06.21M546.25 590.79l-.06.21"/></g><path d="M0 0h590.06l.23 4.25V5l-.04 584.71q-1.63.53-4.56.53-290.5.02-581-.19-2.34 0-4.69-.11V0zm585.49 5.52a.27.27 0 00-.27-.27H5.52a.27.27 0 00-.27.27v579.7a.27.27 0 00.27.27h579.7a.27.27 0 00.27-.27V5.52z"/><path fill="#97999b" d="M590.06 0h.75q.24 2.23-.52 4.25L590.06 0z"/><path fill="#20201e" d="M590.81 0h.19v590.31l-.29-.56-.02-584.56a.15.15 0 00-.13-.15l-.27-.04v-.75q.76-2.02.52-4.25z"/><path fill="#97999b" d="M590.29 5l.27.04a.15.15 0 01.13.15l.02 584.56-.46-.04L590.29 5z"/><path fill="#fbfee1" d="M585.49 585.22a.27.27 0 01-.27.27H5.52a.27.27 0 01-.27-.27V5.52a.27.27 0 01.27-.27h579.7a.27.27 0 01.27.27v579.7zM83.78 35.78q-5.78-.53-10.6-.37-16.93.56-33.86.95c-9.47.22-19.25 7.66-18.84 17.9.65 16.07-.05 30.52.94 45.84a.73.72-18.3 001.12.56q2.1-1.34 3.93-3.2c13.39-13.59 26.19-26.88 40.1-40.85q8.93-8.98 17.04-18.74.59-.71.76-1.15a.7.7 0 00-.59-.94zM302.79 402.5q-6.97 22.67-4 46.25c4.13 27.92 17.25 55.35 39.5 73.21 47.17 37.84 113.75 25.38 146.32-24.71 9.63-14.81 15.85-29.19 18.57-48.26 5.29-37.09-5.76-73.91-32.76-100.17q-.96-.93-1.27-1.78a1.18 1.17-42.1 01.05-.94q5.1-10.28 5.52-21.85c.79-21.54.51-43.55-2.66-64.9q-2.32-15.56-3.56-22.1c-3-15.77-8.73-29.44-16.05-44.52-19.91-41.06-55.56-63.51-98.35-75.2q-7.61-2.08-16.6-2.77c-16.52-1.28-26.4-2.43-39.78-1.11q-10.68 1.05-10.95 1.08-28.57 2.45-55.76 11.32c-31.78 10.36-54.66 31.26-74.91 57.03q-5.39 6.86-9.48 14.67c-13.04 24.94-19.76 50.13-23.34 77q-3.31 24.91-3.76 31.5-.63 9.17-.51 37.33c0 1.82.43 1.57-.72 3.48-2.69 4.46-6.16 8.88-8.36 13.19-25.46 49.99-13.56 111.66 32.43 145.22 21.52 15.7 53.23 19.67 78.8 16.47 21.2-2.65 38.41-13.38 50.01-31.58q6.78-10.64 9.58-17.36c13.7-32.82 11.69-73.55-1.66-106.57-1.94-4.78-4.77-9.58-7.34-14.25-12.68-22.95-33.6-42.32-60.45-46-18.27-2.5-35.72.02-52.26 7.46q-1.03.46-.88-.66 4.8-35.25 17.27-66.92c3.72-9.46 7.33-14.44 14.5-24.38q.95-1.32 2.38-2.33a1.33 1.29 29.3 01.9-.24c24.31 2.55 42.77-15.36 60.65-29.77 12.39-9.98 28.3-17.97 44.54-13.97 12.5 3.08 27.7 9.66 37.79 17.92 8.38 6.86 17.77 17.38 26.48 24.6 10.54 8.72 20.02 17.29 34.84 16.54a.74.73 75.9 01.71.43c1.31 3.01 1.85 6.71 2.8 9.34q10.56 29.31 18.46 61.06 2.29 9.17 3.17 17.44a.38.37-87.7 01-.44.41c-55.88-10.28-104.86 26.33-119.42 79.39zM31.8 277.15a1.43.46-6.8 00-1.474-.287 1.43.46-6.8 00-1.366.626 1.43.46-6.8 001.474.288 1.43.46-6.8 001.366-.626zm230.695 38.051a.27.27 0 00-.308-.226l-6.584 1.007a.27.27 0 00-.226.308l.148.969a.27.27 0 00.308.226l6.584-1.007a.27.27 0 00.226-.308l-.148-.969z"/><path fill="#fae4ac" d="M83.78 35.78a.7.7 0 01.59.94q-.17.44-.76 1.15-8.11 9.76-17.04 18.74c-13.91 13.97-26.71 27.26-40.1 40.85q-1.83 1.86-3.93 3.2a.73.72-18.3 01-1.12-.56c-.99-15.32-.29-29.77-.94-45.84-.41-10.24 9.37-17.68 18.84-17.9q16.93-.39 33.86-.95 4.82-.16 10.6.37z"/><path fill="#20201e" d="M298.79 448.75q1.08-1.16.98-2.75-1.47-21.75 3.94-42.87a.55.55 0 00-.4-.66q-.25-.06-.52.03c14.56-53.06 63.54-89.67 119.42-79.39a.38.37-87.7 00.44-.41q-.88-8.27-3.17-17.44-7.9-31.75-18.46-61.06c-.95-2.63-1.49-6.33-2.8-9.34a.74.73 75.9 00-.71-.43c-14.82.75-24.3-7.82-34.84-16.54-8.71-7.22-18.1-17.74-26.48-24.6-10.09-8.26-25.29-14.84-37.79-17.92-16.24-4-32.15 3.99-44.54 13.97-17.88 14.41-36.34 32.32-60.65 29.77a1.33 1.29 29.3 00-.9.24q-1.43 1.01-2.38 2.33c-7.17 9.94-10.78 14.92-14.5 24.38q-12.47 31.67-17.27 66.92-.15 1.12.88.66c16.54-7.44 33.99-9.96 52.26-7.46 26.85 3.68 47.77 23.05 60.45 46 2.57 4.67 5.4 9.47 7.34 14.25 13.35 33.02 15.36 73.75 1.66 106.57q-2.8 6.72-9.58 17.36c-11.6 18.2-28.81 28.93-50.01 31.58-25.57 3.2-57.28-.77-78.8-16.47-45.99-33.56-57.89-95.23-32.43-145.22 2.2-4.31 5.67-8.73 8.36-13.19 1.15-1.91.72-1.66.72-3.48q-.12-28.16.51-37.33.45-6.59 3.76-31.5c3.58-26.87 10.3-52.06 23.34-77q4.09-7.81 9.48-14.67c20.25-25.77 43.13-46.67 74.91-57.03q27.19-8.87 55.76-11.32.27-.03 10.95-1.08c13.38-1.32 23.26-.17 39.78 1.11q8.99.69 16.6 2.77c42.79 11.69 78.44 34.14 98.35 75.2 7.32 15.08 13.05 28.75 16.05 44.52q1.24 6.54 3.56 22.1c3.17 21.35 3.45 43.36 2.66 64.9q-.42 11.57-5.52 21.85a1.18 1.17-42.1 00-.05.94q.31.85 1.27 1.78c27 26.26 38.05 63.08 32.76 100.17-2.72 19.07-8.94 33.45-18.57 48.26-32.57 50.09-99.15 62.55-146.32 24.71-22.25-17.86-35.37-45.29-39.5-73.21zm22.05-326.05q-11.5 4.5-21.16 12.14c-1.13.89-2.13 1.07-3.45 1.55q-17.16-.81-34.23 1.32-2.77-.03-5.25 1.08l-.25-.14a.22.22 0 01-.04-.35q6.04-5.96 13.04-10.76l11.79-5.58a.18.18 0 00-.1-.34c-27 4.19-54.07 10.35-77.44 25.17-20.05 13.02-35.52 30.03-48.73 49.83-4.15 6.21-7.65 14.13-10.19 21.19-2.76 7.66-5.89 15.15-7.79 23.12-2.07 8.71-4.51 17.56-5.83 25.95q-2.38 15.24-4 30.58c-1.33 12.59-1.23 26.17-1.62 39.33a.47.47 0 00.82.32l3.26-3.84q.33-.39.8-.61c1.91-.9 2.54-1.45 2.56-3.77q.02-5.49.43-10.89v-10.86q1.33-6.59 1.54-13.6l1.75-11.33.29.48a.53.53 0 00.73.19l.23-.14a.42.41-15 00.21-.36q.02-2.01.31-3.12 2.35-9.02 3.81-18.21c.66-4.14 1.98-8.49 2.68-12.83.4-2.52 1.51-4.88 1.89-7.53a.5.5 0 00-.46-.57q-.48-.04-.69.34 4.67-13.91 6.47-17.76 3.24-6.9 10.82-17.92c7.49-10.89 15.12-18.87 25.38-26.12 10.1-7.14 20.86-14.65 32.57-18.43 10.64-3.45 25.51-8.19 40.55-10.48l14.46-1.21 18.11-.52q15.71 3.34 30.89 8.69c19.23 7.31 33.65 16.66 49.65 30.21q.81 1.49 2.31 2.58 11.85 13.06 20.83 28.25l1.21 2.54q4.73 11.96 9.25 24c3.19 8.47 5.71 17.64 8.5 26.5l2.25 6q2.4 8.28 4.62 16.62c3.11 11.7 5.13 24.14 7.42 36.28 1.55 8.2 4.82 16.88 11.83 21.96q1.92 1.39 3.23 1.36a1.25 1.25 0 001.03-1.93c-2.78-4.32-3.82-7.51-4.72-13.01-1.3-8.01-3.3-15.48-4-23.78-.76-9.12-2.84-18.28-4.51-27.28q-1.49-8.05-3.68-15.28c-7.21-23.81-13.62-45.36-26.74-65.82-10.79-20.34-28.19-34.42-47.54-46.31-9.79-6.01-17.1-10.42-26.62-13.76q-3.95-1.94-8.45-2.45l-6.92-2.44a.43.43 0 01-.16-.7q2.4-2.5 5.38-4.36c8.34-5.21 16.32-9.95 25.82-12.98q.48-.15-.01-.26c-8.21-1.9-17.03-3.97-24.14.05zm-7.34 49.34q15.29 6.57 28.87 16.24c11.83 11.06 27.16 30.06 42.84 34.72l4.79.96q1.34.77 2.66.06a.51.51 0 00.2-.7c-7.56-13.08-15.86-25.82-27.59-35.59q-16.58-13.82-36.48-22.23-17.02-6.91-35.29-8.96c-10.27-.64-20.08.45-30.14 1.3-14.46 1.22-27.25 4.63-40.93 10.2-16.19 6.59-30.84 17.73-43.57 29.54q-1.78 1.65-3.47 5.5a.74.73-55.9 00.15.81c10.31 10.34 24.67 5.08 34.4-2.79 8.11-6.55 16.39-12.26 24.97-18.15 17.52-12.01 41.07-17.32 61.83-15.49q5.19.46 16.76 4.58zM194.72 313.8c-49.35 11.04-63.97 79.46-53.24 120.2q3.15 11.95 4.06 14.98c7.84 25.96 28.56 54.58 55.96 62.99 30.72 9.43 57.89-10.36 69.91-37.47q6.12-13.82 7.38-18.74 8.26-32.37.62-64.43c-2.13-8.93-6.19-19.41-9.87-27.63q-7.39-16.53-21.04-30.16.62-.01.84-.38a.78.77 44.7 00-.01-.86c-4.57-6.74-14.29-12.96-21.92-15.59-10.33-3.56-20.15-5.56-31.14-4.66q-2.65.22-1.55 1.75zm-58.67 175.81l2.66 2.89c6.11 7.03 17.79 13.03 26.35 16.5q9.87 4.68 20.87 5.29.51.02.08-.24-7.08-4.3-13.47-9.55c-23.85-20.66-37.78-53.72-40.57-84.51-2.62-28.86 1.47-54.8 16.11-79.91q6.87-11.78 17.6-20.21.41-.32-.11-.26-2.33.29-5.03 1.63c-30 14.88-49.71 42.81-55.2 75.49-1.74 10.36-1.5 22.79-.22 33.2 2.59 20.95 14.48 46.87 30.93 59.68zM341 513.54q1.27 1.94 3.21 3.21 9 7.31 19.84 11.7 5.57 3.24 11.95 4.76 47.14 11.37 83.53-19.15 13.76-11.54 20.67-23.62c7.46-13.04 13.7-26.38 15.8-41.69q6.07-44.29-18.75-80.29-4.71-6.89-9.46-11.55-1.97-1.94-1.84.82 1.21 26.56-1.55 52.99a.83.83 0 00.41.81q4.04 2.32 8.77 1.93a.6.59-87.3 01.63.7c-.76 4.29-1.77 9.44-5.11 12.6q-3.61 3.41-7.41 6.92a.54.54 0 00-.06.73c6.73 8.34 2.98 14.94 2.53 24.33a.3.29-80.1 01-.38.27q-.26-.07-.49-.01-8.23-1.91-14.02-8.04a.3.3 0 00-.5.1c-3.31 8.73-9.75 11.96-15.31 18.69q-.99 1.55-2.17.5-4.01-14.03-2.98-28.78a.63.62-81.8 00-.48-.65q-15.34-3.57-22.3-17.6a1.02 1.02 0 01.97-1.47c3.01.17 5.58.24 8.52-1.15q4.04-1.91 8.35-3.65a.59.59 0 00.36-.67q-1.9-8.92 2.52-16.57 1.16.86 1.73-.25c2.29-4.49 5.3-8.83 5.52-13.97a.86.83-74.5 00-.42-.77q-1.08-.62-1.79.28 1.58-16.32.04-32.63c-.13-1.38-.71-2.03-1.33-3.16l-4.84-10.92-1.97-6.92-9.44-1.58c-8.55-1.51-20.24-.97-28.72.94-43.8 9.88-74.56 48.06-78.75 92.23q-3.59 37.87 15.82 69.62c4.66 7.61 11.75 15.64 18.9 20.96zM438.29 378l-.64 9.05q-2.52 26.35-2.07 34.45.36 6.48 4.03 12.32a.33.33 0 00.61-.17l.07-2.65q.52.13 1.06-.03a.61.59 77.2 00.41-.67c-1.19-7.33.01-14.91.7-22.24.25-2.68 4.65-26.39 2.81-27.49a.53.53 0 00-.72.16l-.51.77c.02-7.12.67-14.44-.23-21.46a1.13 1.12-78 00-.52-.81l-4.68-2.92q-.6-.37-.59.33l.27 21.36z"/><path fill="#97999b" d="M320.87 143.39q3.57 3.67 8.45 2.45c9.52 3.34 16.83 7.75 26.62 13.76 19.35 11.89 36.75 25.97 47.54 46.31q-1.09 2.55 1.08 5.29c8.86 11.18 12.53 26.79 17.61 39.98q2.43 6.29 3.69 10.31c1.71 5.45 4.1 10.81 5.09 16.44.68 3.87 1.9 6.7 2.45 11.55.39 3.43 1.76 7.61 1.84 12.27q0 .53.76 1.98a1.9 1.9 0 01.19.95c-.26 3.5.98 6.69 1.11 9.78q.23 5.53 1.12 11a.24.23 77 01-.16.26q-.21.06-.15.25 3.47 10.44 3.99 20.58a.85.84 28.7 01-1.58.46l-6.24-10.97q-.26-.46-.32-.99c-.43-4.2-2.19-8.4-2.74-12.03-.83-5.43-1.65-10.52-3.07-15.93q-3.9-14.81-7.97-29.57-.25-.89-1.18-.73l-2.25-6c2.44-3.13-12.42-41.15-15.34-48.24q-.9-2.19-2.41-2.26l-1.21-2.54q.21-.19.33-.45a1.07 1.07 0 000-.92q-2.26-4.65-5.42-8.72c-1.75-2.27-2.45-5.25-5.06-7.38q-.39-.31-.59-.78c-1.8-4.18-5.71-7.05-8.54-10.67a.86.85 65.4 00-.82-.31q-.75.14-.73.98-1.5-1.09-2.31-2.58.09-3.04-2.34-4.5-3.15-1.9-3.22-1.95c-8.25-6.64-16.89-13.65-26.7-17.91q-9.84-4.27-16.14-6.56-.79-.29-1.25.71-15.18-5.35-30.89-8.69-9.88-1.82-19.84-.55a.36.36 0 00-.26.54q.58.95 1.99.53l-14.46 1.21c.06-1.46-1.01-2.01-2.35-1.69-8.88 2.1-17.94 3.72-26.4 6.56-13.11 4.4-24.18 8.09-34.95 15.8-8.55 6.11-18.31 11.85-25.17 19.98-3.42 4.06-7.03 7.55-9.87 12.04q-3.3 5.22-6.67 10.4c-5.13 7.87-8.2 15.06-11.43 23.61q-1.73 4.58-1 9.08l-3.7 19.76q-.74-.49-1.47-.28a.91.89 89.5 00-.62.64q-2.03 7.73-3.4 15.6c-.21 1.2.39 2.21.06 3.65q-1 4.37-.79 8.88a.44.43-10 00.56.39q.42-.14.66-.63-.21 7.01-1.54 13.6-2.29 4.86-1.26 10.2a.83.82 2.9 00.59.65q.32.1.67.01-.41 5.4-.43 10.89c-.02 2.32-.65 2.87-2.56 3.77q-.47.22-.8.61l-3.26 3.84a.47.47 0 01-.82-.32c.39-13.16.29-26.74 1.62-39.33q1.62-15.34 4-30.58c1.32-8.39 3.76-17.24 5.83-25.95 1.9-7.97 5.03-15.46 7.79-23.12 2.54-7.06 6.04-14.98 10.19-21.19 13.21-19.8 28.68-36.81 48.73-49.83.16 1.02.93 1.12 1.65.62q7.33-5.1 15.68-8.3c12.39-4.74 23.41-9.53 37.54-11.78 2.76-.44 5.86-1.89 9.11-2.08a.62.61-8.9 01.62.45q.32 1.14 1.15 1.84-7 4.8-13.04 10.76a.22.22 0 00.04.35l.25.14q3.02 1.1 5.76-.63.36-.23-.03-.41-.19-.09-.48-.04 17.07-2.13 34.23-1.32c-.63 3.03 5.22-.95 5.96-1.44q9.24-6.24 18.65-12.25c7.11-4.02 15.93-1.95 24.14-.05q.49.11.01.26c-9.5 3.03-17.48 7.77-25.82 12.98q-2.98 1.86-5.38 4.36a.43.43 0 00.16.7l6.92 2.44z"/><path fill="#b5b5b6" d="M269.5 127.54q-.83-.7-1.15-1.84a.62.61-8.9 00-.62-.45c-3.25.19-6.35 1.64-9.11 2.08-14.13 2.25-25.15 7.04-37.54 11.78q-8.35 3.2-15.68 8.3c-.72.5-1.49.4-1.65-.62 23.37-14.82 50.44-20.98 77.44-25.17a.18.18 0 01.1.34l-11.79 5.58zM320.84 122.7q-9.41 6.01-18.65 12.25c-.74.49-6.59 4.47-5.96 1.44 1.32-.48 2.32-.66 3.45-1.55q9.66-7.64 21.16-12.14zM262 137.71q.29-.05.48.04.39.18.03.41-2.74 1.73-5.76.63 2.48-1.11 5.25-1.08zM320.87 143.39q4.5.51 8.45 2.45-4.88 1.22-8.45-2.45zM294.11 148.02l-18.11.52q-1.41.42-1.99-.53a.36.36 0 01.26-.54q9.96-1.27 19.84.55zM261.54 149.75c-15.04 2.29-29.91 7.03-40.55 10.48-11.71 3.78-22.47 11.29-32.57 18.43-10.26 7.25-17.89 15.23-25.38 26.12q-7.58 11.02-10.82 17.92-1.8 3.85-6.47 17.76l-2.05 5.07q-.73-4.5 1-9.08c3.23-8.55 6.3-15.74 11.43-23.61q3.37-5.18 6.67-10.4c2.84-4.49 6.45-7.98 9.87-12.04 6.86-8.13 16.62-13.87 25.17-19.98 10.77-7.71 21.84-11.4 34.95-15.8 8.46-2.84 17.52-4.46 26.4-6.56 1.34-.32 2.41.23 2.35 1.69zM374.65 186.92c-16-13.55-30.42-22.9-49.65-30.21q.46-1 1.25-.71 6.3 2.29 16.14 6.56c9.81 4.26 18.45 11.27 26.7 17.91q.07.05 3.22 1.95 2.43 1.46 2.34 4.5z"/><path fill="#b5b5b6" d="M293.5 156.54l-.01.9a.54.53 89.5 01-.52.54c-3.6.06-7.31.22-10.87-.29-1.87-.27-4.55.27-5.74.31q-6.92.23-13.74 1.58c-1.54.3-2.97-.12-4.56.24-4.82 1.07-9.63 1.5-12.38 2.31-2.51.74-4.99.69-7.05 1.65q-11.25 5.21-16.89 6.68-4.46 1.17-8.31 3.73c-1.63 1.08-41.89 25.63-34.76 29.52q.43.24.74.62c3.68 4.51 9.86 4.6 15.02 2.92 5.48-1.77 12.32-5.93 16.73-9.73q3.38-2.91 6.06-4.54c7.87-4.77 16.05-11.29 23.08-15.08q14.81-7.99 31.46-11.37c2.48-.5 6.36-.03 9.32-.32q16.72-1.62 32.63 4.42a.66.66 0 01.14 1.17l-.35.24q-11.57-4.12-16.76-4.58c-20.76-1.83-44.31 3.48-61.83 15.49-8.58 5.89-16.86 11.6-24.97 18.15-9.73 7.87-24.09 13.13-34.4 2.79a.74.73-55.9 01-.15-.81q1.69-3.85 3.47-5.5c12.73-11.81 27.38-22.95 43.57-29.54 13.68-5.57 26.47-8.98 40.93-10.2 10.06-.85 19.87-1.94 30.14-1.3z"/><path fill="#97999b" d="M293.5 156.54q18.27 2.05 35.29 8.96l-.04.69a.83.83 0 00.41.78q5.35 3.12 11 5.64 4.29 1.92 16.85 10.86c6 4.26 12.72 9.9 16.45 15.07 1.84 2.55 4.06 4.72 5.45 6.84q5.15 7.86 10.56 15.53c.72 1.02.58 1.88.53 3.05l-4.79-.96q.51-.79-.45-1.26c-8.13-4.06-14.53-8.71-21.42-15.8q-9.59-9.86-20.97-17.66-13.58-9.67-28.87-16.24l.35-.24a.66.66 0 00-.14-1.17q-15.91-6.04-32.63-4.42c-2.96.29-6.84-.18-9.32.32q-16.65 3.38-31.46 11.37c-7.03 3.79-15.21 10.31-23.08 15.08q-2.68 1.63-6.06 4.54c-4.41 3.8-11.25 7.96-16.73 9.73-5.16 1.68-11.34 1.59-15.02-2.92q-.31-.38-.74-.62c-7.13-3.89 33.13-28.44 34.76-29.52q3.85-2.56 8.31-3.73 5.64-1.47 16.89-6.68c2.06-.96 4.54-.91 7.05-1.65 2.75-.81 7.56-1.24 12.38-2.31 1.59-.36 3.02.06 4.56-.24q6.82-1.35 13.74-1.58c1.19-.04 3.87-.58 5.74-.31 3.56.51 7.27.35 10.87.29a.54.53 89.5 00.52-.54l.01-.9z"/><path fill="#b5b5b6" d="M328.79 165.5q19.9 8.41 36.48 22.23c11.73 9.77 20.03 22.51 27.59 35.59a.51.51 0 01-.2.7q-1.32.71-2.66-.06c.05-1.17.19-2.03-.53-3.05q-5.41-7.67-10.56-15.53c-1.39-2.12-3.61-4.29-5.45-6.84-3.73-5.17-10.45-10.81-16.45-15.07q-12.56-8.94-16.85-10.86-5.65-2.52-11-5.64a.83.83 0 01-.41-.78l.04-.69zM385.21 223c-15.68-4.66-31.01-23.66-42.84-34.72q11.38 7.8 20.97 17.66c6.89 7.09 13.29 11.74 21.42 15.8q.96.47.45 1.26zM397.79 217.75q-8.98-15.19-20.83-28.25-.02-.84.73-.98a.86.85 65.4 01.82.31c2.83 3.62 6.74 6.49 8.54 10.67q.2.47.59.78c2.61 2.13 3.31 5.11 5.06 7.38q3.16 4.07 5.42 8.72a1.07 1.07 0 010 .92q-.12.26-.33.45zM403.48 205.91c13.12 20.46 19.53 42.01 26.74 65.82q2.19 7.23 3.68 15.28c1.67 9 3.75 18.16 4.51 27.28.7 8.3 2.7 15.77 4 23.78.9 5.5 1.94 8.69 4.72 13.01a1.25 1.25 0 01-1.03 1.93q-1.31.03-3.23-1.36c-7.01-5.08-10.28-13.76-11.83-21.96-2.29-12.14-4.31-24.58-7.42-36.28q-2.22-8.34-4.62-16.62.93-.16 1.18.73 4.07 14.76 7.97 29.57c1.42 5.41 2.24 10.5 3.07 15.93.55 3.63 2.31 7.83 2.74 12.03q.06.53.32.99l6.24 10.97a.85.84 28.7 001.58-.46q-.52-10.14-3.99-20.58-.06-.19.15-.25a.24.23 77 00.16-.26q-.89-5.47-1.12-11c-.13-3.09-1.37-6.28-1.11-9.78a1.9 1.9 0 00-.19-.95q-.76-1.45-.76-1.98c-.08-4.66-1.45-8.84-1.84-12.27-.55-4.85-1.77-7.68-2.45-11.55-.99-5.63-3.38-10.99-5.09-16.44q-1.26-4.02-3.69-10.31c-5.08-13.19-8.75-28.8-17.61-39.98q-2.17-2.74-1.08-5.29z"/><path fill="#b5b5b6" d="M399 220.29q1.51.07 2.41 2.26c2.92 7.09 17.78 45.11 15.34 48.24-2.79-8.86-5.31-18.03-8.5-26.5q-4.52-12.04-9.25-24z"/><path d="M136.75 282.21l3.25-16.92 3.7-19.76 2.05-5.07q.21-.38.69-.34a.5.5 0 01.46.57c-.38 2.65-1.49 5.01-1.89 7.53-.7 4.34-2.02 8.69-2.68 12.83q-1.46 9.19-3.81 18.21-.29 1.11-.31 3.12a.42.41-15 01-.21.36l-.23.14a.53.53 0 01-.73-.19l-.29-.48z"/><path fill="#b5b5b6" d="M140 265.29l-3.25 16.92-1.75 11.33q-.24.49-.66.63a.44.43-10 01-.56-.39q-.21-4.51.79-8.88c.33-1.44-.27-2.45-.06-3.65q1.37-7.87 3.4-15.6a.91.89 89.5 01.62-.64q.73-.21 1.47.28z"/><ellipse fill="#b5b5b6" transform="rotate(-6.8 2349.103 -117.017)" rx="1.43" ry=".46"/><path fill="#b5b5b6" d="M133.46 307.14V318q-.35.09-.67-.01a.83.82 2.9 01-.59-.65q-1.03-5.34 1.26-10.2z"/><path d="M248.5 333.54c-14.68-14.86-32.81-22.39-53.78-19.74q-1.1-1.53 1.55-1.75c10.99-.9 20.81 1.1 31.14 4.66 7.63 2.63 17.35 8.85 21.92 15.59a.78.77 44.7 01.01.86q-.22.37-.84.38z"/><path fill="#fff" d="M248.5 333.54q13.65 13.63 21.04 30.16c3.68 8.22 7.74 18.7 9.87 27.63q7.64 32.06-.62 64.43-1.26 4.92-7.38 18.74c-12.02 27.11-39.19 46.9-69.91 37.47-27.4-8.41-48.12-37.03-55.96-62.99q-.91-3.03-4.06-14.98c-10.73-40.74 3.89-109.16 53.24-120.2 20.97-2.65 39.1 4.88 53.78 19.74zm-64.72 157.67q9.49 8.71 22.83 11.97c37.34 9.13 59.6-28.83 64.9-59.67 5.67-33.01-1.84-67.52-22.19-94.57-14.47-19.22-39-33.69-62.5-22.94-19.21 8.8-31.94 33.04-36.07 53.01q-4.31 20.86-2.17 41.49c1.15 11.04 5.02 23.99 9.15 34.02q8.45 20.52 26.05 36.69z"/><rect fill="#b5b5b6" x="-3.6" y="-.76" transform="rotate(-8.7 2208.105 -1544.374)" width="7.2" height="1.52" rx=".27"/><path fill="#fff" d="M172.54 504.5q-.2.8-.94.96a1.02 1 60.4 01-.88-.25c-1.87-1.79-9.22-10.96-10.96-11.06q-12.16-.66-23.71-4.54c-16.45-12.81-28.34-38.73-30.93-59.68-1.28-10.41-1.52-22.84.22-33.2 5.49-32.68 25.2-60.61 55.2-75.49q2.7-1.34 5.03-1.63.52-.06.11.26-10.73 8.43-17.6 20.21c-14.64 25.11-18.73 51.05-16.11 79.91 2.79 30.79 16.72 63.85 40.57 84.51zm-38.143-47.466a4.72 3.91 35.4 00-1.582-5.921 4.72 3.91 35.4 00-6.112.453 4.72 3.91 35.4 001.582 5.921 4.72 3.91 35.4 006.112-.453zm4.718 15.757a8.02 5.43 31 00-4.078-8.785 8.02 5.43 31 00-9.672.523 8.02 5.43 31 004.078 8.785 8.02 5.43 31 009.671-.523z"/><path fill="#20201e" d="M183.78 491.21q-17.6-16.17-26.05-36.69c-4.13-10.03-8-22.98-9.15-34.02q-2.14-20.63 2.17-41.49c4.13-19.97 16.86-44.21 36.07-53.01 23.5-10.75 48.03 3.72 62.5 22.94 20.35 27.05 27.86 61.56 22.19 94.57-5.3 30.84-27.56 68.8-64.9 59.67q-13.34-3.26-22.83-11.97zm14.47-162.92c-13.32 2.9-21.93 10.86-29.82 21.65q-2.24 3.07-2.58 4.68-4.73 7.52-7.19 15.63c-4.99 13.01-5.41 30.77-5.12 43.5l.5 4.75q.77 9.03 3.25 17.75.94 6.41 4.27 11.79 2.94 8.92 7.33 17.05 2.88 5.36 6.86 9.95c8.15 11.45 24.33 24.31 39.25 23.67q2.99.61 6 0l2-.17c19.89-2.91 34.21-23.78 39.8-41.54q7.2-22.89 5.15-47.3l-1.27-5.3q-3.38-23.18-15.39-42.9c-8.71-15.04-21.57-27.66-38.1-32.63q-2.5-1.16-5.44-1.08l-4.94-.25-4.56.75z"/><path fill="#97999b" d="M202.81 327.54q1.19 17.42 2.72 34.81c1.17 13.19 1.73 28.17 3.15 42.43a.57.57 0 01-1.06.36q-2.18-3.54-5.02-7.52-16.69-23.34-33-46.71a.96.96 0 01.04-1.15c7.96-9.85 15.36-17.29 28.07-20.37a.75.75 0 00.57-.63q.03-.23-.03-.47l4.56-.75z"/><path fill="#fff" d="M202.81 327.54l4.94.25c1.25 1.34 1.24 13.7 1.36 15.03q2.74 31.15 4.76 63.24a.59.59 0 001.1.27c10-16.5 21.51-32.21 31.78-48.31a1.87 1.87 0 00-.15-2.21q-2.66-3.14-5.21-6.23c-6.33-7.66-12.67-12.58-21.64-16.79q-3.47-1.62-6.56-3.92c16.53 4.97 29.39 17.59 38.1 32.63l-1.04 1.21c-7.82 10.66-14.5 22.16-22.03 32.76q-5.31 7.47-10.24 15.16a.43.43 0 00.38.66q20.52-.75 40.97-1.02c2.59-.03 5.66-.55 8.62-.57q2.05 24.41-5.15 47.3c-5.59 17.76-19.91 38.63-39.8 41.54l-.37-.04a.46.45.8 01-.41-.41c-.04-.64 5.98-2 6.79-2.22 9.09-2.48 17.58-11.09 22.74-18.72a.79.79 0 00.03-.84q-2.52-4.32-5.43-8.4-15.19-21.31-30.47-42.63a.39.38 25 00-.7.25q2.6 33.59 4.78 67.22.09 1.37 1.04 5.96-3.01.61-6 0c.21-11.38-1.29-24.47-1.95-33.67q-1.46-20.23-3.22-39.52-.21-2.39-1.5-.36c-10.65 16.86-21.89 33.16-32.58 49.88q-3.98-4.59-6.86-9.95-4.39-8.13-7.33-17.05l10.62 20.6a.86.86 0 001.49.07c7.65-11.89 14.83-22.26 23.25-35.45q5.33-8.33 11.18-16.36.29-.4-.2-.38l-52.65 2.02-1.21-.04-.5-4.75 1.46-.29q24.69-1.67 49.7-1.7a.86.85-83.6 00.83-.67c.23-1.02-35.95-51.16-39.68-56.47q.34-1.61 2.58-4.68c7.89-10.79 16.5-18.75 29.82-21.65q.06.24.03.47a.75.75 0 01-.57.63c-12.71 3.08-20.11 10.52-28.07 20.37a.96.96 0 00-.04 1.15q16.31 23.37 33 46.71 2.84 3.98 5.02 7.52a.57.57 0 001.06-.36c-1.42-14.26-1.98-29.24-3.15-42.43q-1.53-17.39-2.72-34.81zm63.68 87.56c-.41-.44-44.32.89-48.99.99q-1.53.03-.7 1.31 1.49 2.33 3.67 5.39 17.06 23.83 34.17 48.11a.72.72 0 001.24-.1c8.09-16.88 11.73-35.52 11.51-54.56q-.01-.97-.7-1.05a.33.3-18 01-.2-.09z"/><path fill="#97999b" d="M207.75 327.79q2.94-.08 5.44 1.08 3.09 2.3 6.56 3.92c8.97 4.21 15.31 9.13 21.64 16.79q2.55 3.09 5.21 6.23a1.87 1.87 0 01.15 2.21c-10.27 16.1-21.78 31.81-31.78 48.31a.59.59 0 01-1.1-.27q-2.02-32.09-4.76-63.24c-.12-1.33-.11-13.69-1.36-15.03z"/><path fill="#fff" d="M413.75 329.79q.59 2.74 1.49 3.47 7.75 6.34 13.14 14.75.26.41.68.66l.94.54c.62 1.13 1.2 1.78 1.33 3.16q1.54 16.31-.04 32.63c-.16 2.33-.07 4.61-1.12 6.75l-3.92 7.96q-4.42 7.65-2.52 16.57a.59.59 0 01-.36.67q-4.31 1.74-8.35 3.65c-2.94 1.39-5.51 1.32-8.52 1.15a1.02 1.02 0 00-.97 1.47q6.96 14.03 22.3 17.6a.63.62-81.8 01.48.65q-1.03 14.75 2.98 28.78c-.22.47-.58 1.99-.8 2.31-20.31 29.06-52.04 45.69-87.9 40.06a.65.64 17.8 00-.67.34q-.29.56-.92.58c-7.15-5.32-14.24-13.35-18.9-20.96q-19.41-31.75-15.82-69.62c4.19-44.17 34.95-82.35 78.75-92.23 8.48-1.91 20.17-2.45 28.72-.94zm.96 34.274a8.33 6.74 49.5 00-.285-10.711 8.33 6.74 49.5 00-10.535-1.957 8.33 6.74 49.5 00.285 10.711 8.33 6.74 49.5 0010.535 1.957zm8.825 32.477a8.72 8.3 69 004.624-11.115 8.72 8.3 69 00-10.874-5.167 8.72 8.3 69 00-4.624 11.115 8.72 8.3 69 0010.874 5.167zm-51.026 53.753a7.72 7.37 57.4 002.05-10.475 7.72 7.37 57.4 00-10.368-2.533 7.72 7.37 57.4 00-2.05 10.475 7.72 7.37 57.4 0010.368 2.533zm10.088 36.987a9.32 8.74 129.7 0012.678-1.588 9.32 8.74 129.7 00-.772-12.754 9.32 8.74 129.7 00-12.678 1.588 9.32 8.74 129.7 00.772 12.754zm-6.03 5.266a4.12 3.78-4.5 00-4.404-3.445 4.12 3.78-4.5 00-3.81 4.091 4.12 3.78-4.5 004.404 3.445 4.12 3.78-4.5 003.81-4.091z"/><path fill="#97999b" d="M413.75 329.79l9.44 1.58q-1.27 4.26 1.97 6.92l4.84 10.92-.94-.54q-.42-.25-.68-.66-5.39-8.41-13.14-14.75-.9-.73-1.49-3.47z"/><path fill="#b5b5b6" d="M423.19 331.37l1.97 6.92q-3.24-2.66-1.97-6.92z"/><ellipse fill="#97999b" transform="rotate(49.5 -183.338 622.785)" rx="8.33" ry="6.74"/><path fill="#97999b" d="M165.85 354.62c3.73 5.31 39.91 55.45 39.68 56.47a.86.85-83.6 01-.83.67q-25.01.03-49.7 1.7c-1.19-8.11.05-17.93.9-26.08q.27-2.65 1.51-8.51.89-4.26 1.25-8.62 2.46-8.11 7.19-15.63zM477.25 368.46q-.31 0-.49.13a.61.61 0 00-.17.79c4.83 8.64 10.17 17.35 13.14 26.47q2.47 7.6 4.12 15.41c1.42 6.71.82 12.77 1.87 20.24q.68 4.9-.55 13.93c-.19 1.36-3.39 15.72-4.22 16.2a.85.83-13.4 00-.44.7q-.18 3.05-1.51 6.16c-5.13 12-11.03 23.62-19.07 33.5q-2.59 3.18-5.94 5.94-11.65 9.6-15.98 12.55c-19.88 13.51-41.92 17.29-65.44 13.22-2.06-.35-4.05-1.96-6.57-.49q-6.38-1.52-11.95-4.76-1-2.12-3.38-2.53a1.13 1.11 77.8 01-.75-.49c-.92-1.36-2.62-1.22-3.6-1.72q-5.21-2.68-8.7-6.07-1.69-1.65-3.41-.89-1.94-1.27-3.21-3.21.63-.02.92-.58a.65.64 17.8 01.67-.34c35.86 5.63 67.59-11 87.9-40.06.22-.32.58-1.84.8-2.31q1.18 1.05 2.17-.5.21.42.62.52a.93.92 29.6 00.88-.24l12.26-12.14a1.67 1.65-16 00.44-.78q.36-1.55 1.82-2.23a.81.8 51.7 01.84.1q.79.65 1.77.52a1.23 1.23 0 01.9.25q4.23 3.3 9.41 4.66a.89.86 27.6 00.88-.26q.4-.44.01-1.15.23-.06.49.01a.3.29-80.1 00.38-.27c.45-9.39 4.2-15.99-2.53-24.33a.54.54 0 01.06-.73q3.8-3.51 7.41-6.92c3.34-3.16 4.35-8.31 5.11-12.6a.6.59-87.3 00-.63-.7q-4.73.39-8.77-1.93a.83.83 0 01-.41-.81q2.76-26.43 1.55-52.99-.13-2.76 1.84-.82 4.75 4.66 9.46 11.55z"/><path fill="#97999b" d="M444.04 381.5l-.33 4.75-.46-.81a.4.4 0 00-.73.09q-1.77 5.9-.01 10.77-1.93 14.37-2.76 24.95-.35 4.45.54 9.75l-.07 2.65a.33.33 0 01-.61.17q-3.67-5.84-4.03-12.32-.45-8.1 2.07-34.45 1.76.18 1.51-2.13c-.13-1.16.73-7.35-.87-6.92l-.27-21.36q-.01-.7.59-.33l4.68 2.92a1.13 1.12-78 01.52.81c.9 7.02.25 14.34.23 21.46z"/><path fill="#b5b5b6" d="M251.29 361.5q12.01 19.72 15.39 42.9-2.15-.94-2.15-3.22c.01-6.07-2.32-12.58-4.26-18.3-2.21-6.52-5.96-13.03-9.09-19.58a.92.91-4.8 00-.6-.5l-.33-.09 1.04-1.21z"/><path fill="#97999b" d="M250.25 362.71l.33.09a.92.91-4.8 01.6.5c3.13 6.55 6.88 13.06 9.09 19.58 1.94 5.72 4.27 12.23 4.26 18.3q0 2.28 2.15 3.22l1.27 5.3c-2.96.02-6.03.54-8.62.57q-20.45.27-40.97 1.02a.43.43 0 01-.38-.66q4.93-7.69 10.24-15.16c7.53-10.6 14.21-22.1 22.03-32.76z"/><path fill="#b5b5b6" d="M477.25 368.46q24.82 36 18.75 80.29c-2.1 15.31-8.34 28.65-15.8 41.69q-6.91 12.08-20.67 23.62-36.39 30.52-83.53 19.15c2.52-1.47 4.51.14 6.57.49 23.52 4.07 45.56.29 65.44-13.22q4.33-2.95 15.98-12.55 3.35-2.76 5.94-5.94c8.04-9.88 13.94-21.5 19.07-33.5q1.33-3.11 1.51-6.16a.85.83-13.4 01.44-.7c.83-.48 4.03-14.84 4.22-16.2q1.23-9.03.55-13.93c-1.05-7.47-.45-13.53-1.87-20.24q-1.65-7.81-4.12-15.41c-2.97-9.12-8.31-17.83-13.14-26.47a.61.61 0 01.17-.79q.18-.13.49-.13zM158.66 370.25q-.36 4.36-1.25 8.62-1.24 5.86-1.51 8.51c-.85 8.15-2.09 17.97-.9 26.08l-1.46.29c-.29-12.73.13-30.49 5.12-43.5zM438.29 378c1.6-.43.74 5.76.87 6.92q.25 2.31-1.51 2.13l.64-9.05z"/><ellipse fill="#97999b" transform="rotate(69 -72.358 500.05)" rx="8.72" ry="8.3"/><path d="M440.29 431q-.89-5.3-.54-9.75.83-10.58 2.76-24.95l1.2-10.05.33-4.75.51-.77a.53.53 0 01.72-.16c1.84 1.1-2.56 24.81-2.81 27.49-.69 7.33-1.89 14.91-.7 22.24a.61.59 77.2 01-.41.67q-.54.16-1.06.03zM426.25 399.71l3.92-7.96c1.05-2.14.96-4.42 1.12-6.75q.71-.9 1.79-.28a.86.83-74.5 01.42.77c-.22 5.14-3.23 9.48-5.52 13.97q-.57 1.11-1.73.25z"/><path fill="#b5b5b6" d="M443.71 386.25l-1.2 10.05q-1.76-4.87.01-10.77a.4.4 0 01.73-.09l.46.81z"/><path d="M302.79 402.5q.27-.09.52-.03a.55.55 0 01.4.66q-5.41 21.12-3.94 42.87.1 1.59-.98 2.75-2.97-23.58 4-46.25z"/><path fill="#97999b" d="M266.69 415.19q.69.08.7 1.05c.22 19.04-3.42 37.68-11.51 54.56a.72.72 0 01-1.24.1q-17.11-24.28-34.17-48.11-2.18-3.06-3.67-5.39-.83-1.28.7-1.31c4.67-.1 48.58-1.43 48.99-.99a.33.3-18 00.2.09zM161.56 448.04q-3.33-5.38-4.27-11.79l.41-.24a.61.6-19.9 00.29-.61l-2.28-13.5a1.65 1.6-73.2 00-.45-.87q-1.05-1.04-.01-2.49l52.65-2.02q.49-.02.2.38-5.85 8.03-11.18 16.36c-8.42 13.19-15.6 23.56-23.25 35.45a.86.86 0 01-1.49-.07l-10.62-20.6z"/><path fill="#b5b5b6" d="M154.04 418.5l1.21.04q-1.04 1.45.01 2.49a1.65 1.6-73.2 01.45.87l2.28 13.5a.61.6-19.9 01-.29.61l-.41.24q-2.48-8.72-3.25-17.75z"/><path fill="#97999b" d="M215 498.71c-14.92.64-31.1-12.22-39.25-23.67 10.69-16.72 21.93-33.02 32.58-49.88q1.29-2.03 1.5.36 1.76 19.29 3.22 39.52c.66 9.2 2.16 22.29 1.95 33.67zM223 498.54l-2 .17q-.95-4.59-1.04-5.96-2.18-33.63-4.78-67.22a.39.38 25 01.7-.25q15.28 21.32 30.47 42.63 2.91 4.08 5.43 8.4a.79.79 0 01-.03.84c-5.16 7.63-13.65 16.24-22.74 18.72-.81.22-6.83 1.58-6.79 2.22a.46.45.8 00.41.41l.37.04z"/><ellipse fill="#97999b" transform="rotate(57.4 -221.125 558.298)" rx="7.72" ry="7.37"/><ellipse fill="#97999b" transform="rotate(35.4 -646.48 431.684)" rx="4.72" ry="3.91"/><path fill="#b5b5b6" d="M463.29 459q.39.71-.01 1.15a.89.86 27.6 01-.88.26q-5.18-1.36-9.41-4.66a1.23 1.23 0 00-.9-.25q-.98.13-1.77-.52a.81.8 51.7 00-.84-.1q-1.46.68-1.82 2.23a1.67 1.65-16 01-.44.78l-12.26 12.14a.93.92 29.6 01-.88.24q-.41-.1-.62-.52c5.56-6.73 12-9.96 15.31-18.69a.3.3 0 01.5-.1q5.79 6.13 14.02 8.04z"/><ellipse fill="#97999b" transform="rotate(31 -778.847 472.751)" rx="8.02" ry="5.43"/><ellipse fill="#97999b" transform="rotate(129.7 81.57 331.267)" rx="9.32" ry="8.74"/><ellipse fill="#97999b" transform="rotate(-4.5 6458.42 -4493.435)" rx="4.12" ry="3.78"/><path fill="#97999b" d="M172.54 504.5q6.39 5.25 13.47 9.55.43.26-.08.24-11-.61-20.87-5.29-2.35-3.69-7.52-5.06c-5.03-1.33-8.2-5.2-12.76-7.79q-2.56-1.45-4.59-3.63a1.02 1.01-24.9 00-.86-.31q-.35.04-.62.29l-2.66-2.89q11.55 3.88 23.71 4.54c1.74.1 9.09 9.27 10.96 11.06a1.02 1 60.4 00.88.25q.74-.16.94-.96z"/><path fill="#b5b5b6" d="M165.06 509c-8.56-3.47-20.24-9.47-26.35-16.5q.27-.25.62-.29a1.02 1.01-24.9 01.86.31q2.03 2.18 4.59 3.63c4.56 2.59 7.73 6.46 12.76 7.79q5.17 1.37 7.52 5.06zM364.05 528.45q-10.84-4.39-19.84-11.7 1.72-.76 3.41.89 3.49 3.39 8.7 6.07c.98.5 2.68.36 3.6 1.72a1.13 1.11 77.8 00.75.49q2.38.41 3.38 2.53zM590.25 589.71l.46.04.29.56v.69h-1.06q-5.13-.63-10.25 0h-13.75q-2.88-.63-5.75 0h-.25l-13.69-.21-33.06.21h-1.25q-3.88-.63-7.75 0h-2.25q-2.38-.63-4.75 0h-3.25q-6.38-.63-12.75 0h-.75q-3.63-.63-7.25 0h-.25q-2.38-.63-4.75 0h-30.25q-2.88-.63-5.75 0h-.25q-6.88-.63-13.75 0h-9.25l-30.69-.21h-69.5l-58.56.21h-2.25q-27.38-.63-54.75 0h-.25q-15.88-.63-31.75 0h-1.25q-2.88-.63-5.75 0h-11.25q-14.38-.63-28.75 0h-2.25q-6.88-.63-13.75 0h-4.25q-30.38-.63-60.75 0h-4.25q-6.38-.63-12.75 0h-.25L0 590.44v-.5q2.35.11 4.69.11 290.5.21 581 .19 2.93 0 4.56-.53z"/><path fill="#20201e" d="M0 590.44l15.94.56H0v-.56zM28.94 591H16.19q6.37-.63 12.75 0zM93.94 591H33.19q30.37-.63 60.75 0zM111.94 591H98.19q6.87-.63 13.75 0zM142.94 591h-28.75q14.37-.63 28.75 0zM159.94 591h-5.75q2.87-.63 5.75 0zM192.94 591h-31.75q15.87-.63 31.75 0zM247.94 591h-54.75q27.37-.63 54.75 0zM308.75 590.79l-.06.21h-58.5l58.56-.21z"/><path fill="#20201e" d="M308.75 590.79h69.5l-.06.21h-69.5l.06-.21z"/><path fill="#20201e" d="M378.25 590.79l30.69.21h-30.75l.06-.21zM431.94 591h-13.75q6.87-.63 13.75 0zM437.94 591h-5.75q2.87-.63 5.75 0zM472.94 591h-4.75q2.37-.63 4.75 0zM480.44 591h-7.25q3.62-.63 7.25 0zM493.94 591h-12.75q6.37-.63 12.75 0zM501.94 591h-4.75q2.37-.63 4.75 0zM511.94 591h-7.75q3.87-.63 7.75 0zM546.25 590.79l-.06.21h-33l33.06-.21z"/><path fill="#20201e" d="M546.25 590.79l13.69.21h-13.75l.06-.21zM565.94 591h-5.75q2.87-.63 5.75 0zM589.94 591h-10.25q5.12-.63 10.25 0z"/></svg>