<svg xmlns="http://www.w3.org/2000/svg" viewBox="0 0 591 591"><g stroke-width="2" fill="none"><path stroke="#7d7f70" vector-effect="non-scaling-stroke" d="M585.49 5.53a.27.27 0 00-.27-.27H5.52a.27.27 0 00-.27.27v579.7a.27.27 0 00.27.27h579.7a.27.27 0 00.27-.27V5.53"/><path stroke="#565657" vector-effect="non-scaling-stroke" d="M.38 590.25a.12.12 0 00-.12.11l-.01.26a.12.12 0 00.12.13h590.21a.12.12 0 00.12-.08l.08-.26a.12.12 0 00-.11-.16H.38"/><path stroke="#faf1c7" vector-effect="non-scaling-stroke" d="M41.15 27.51c-7.14 2.9-11.61 10.9-11.81 18.49q-.56 21.5-.06 43.77a.47.47 0 00.45.46c2.55.12 50.37-48.42 56.05-54.07 1.7-1.69 5.73-5.03 7.65-7.84q1.54-2.26-1.19-2.28-19.4-.11-38.56 0-9.04.05-12.53 1.47"/><path stroke="#7d7f70" vector-effect="non-scaling-stroke" d="M294.5 126.46q-6.64 4.84-10.82 11.99c-8.89 15.18-15.59 29.08-18.47 47.8"/><path stroke="#8f8f80" vector-effect="non-scaling-stroke" d="M265.21 186.25l-1.2 8.53a1.14 1.11-14.6 01-.47.78c-14.97 10.64-34.21 19.8-43.44 36.17"/><path stroke="#7d7f70" vector-effect="non-scaling-stroke" d="M220.1 231.73q-13.68 18.05-19.79 37.33-4.38 13.85-8.77 27.69"/><path stroke="#8f8f80" vector-effect="non-scaling-stroke" d="M191.54 296.75c-2.81 8.23-5.51 16.92-9.58 24.26q-10.2 18.39-25.59 32.94c-1.54 1.45-2.19 3.03-4.68 3.03q-6.19.02-12.43.05a2.7 2.69 10.4 00-2.5 1.72c-1.58 4.11-1.43 7.92-2.06 12.29-1.22 8.48-13.24 16.3-21.05 22.34-8.75 6.77-14.85 15.59-6.86 26.24a1.14 1.13-42.8 01-.06 1.42c-4.77 5.41-4.17 11.5.93 16.52 7.39 7.28 15.07 7.99 26.37 6.66a.61.6 83.6 01.68.55l.47 5.02a.44.43 1.1 01-.49.46q-5.63-.83-6.96 3.98-4.04 14.58.26 30.75c.72 2.73.78 4.13 3.85 5.02q4.14 1.21 8.15 2.81a.37.36-60 01.15.57c-8.9 10.83-5.1 32.41-.98 43.81 1.78 4.93 15.43 2.53 19.76 2.56q126.77.82 253.54.42 2.68 0 4.06-1.27c5.55-5.05-5.64-15.82-8.66-20.19-2.44-3.55-5.22-7.11-9.82-6.75a.9.87-25.1 01-.67-.23l-.29-.26a.53.52 63.4 01.3-.91q5.48-.57 10.94-.86c6.77-.37 11.53-3.41 8.49-11.06a.43.43 0 01.39-.59q6.89-.17 13.74-.41 6.01-.2 7.47-5.41a1.19 1.19 0 00-.12-.91c-3.8-6.69-13.77-6.14-21.43-6.8a.74.73 86.7 01-.65-.59q-1.31-6.45.93-12.6a.73.73 0 01.65-.47c4.97-.21 18.11 1.11 18.54-6.01.53-8.8-15.39-8.18-20.83-8.7a2.33 2.3-12.6 01-1.77-1.11l-5.69-9.46a1.39 1.39 0 00-1.17-.67l-10.39-.22a.48.47 89.3 01-.46-.46q-.45-13.29 2.48-26.25a.58.57 5.8 01.55-.44c3.29-.02 14.92 1.1 15.9-2.81q1.36-5.49-2.62-9.45a.61.61 0 01.46-1.04c4.41.19 11.99 2.08 12.05-4.98.08-8.61-10.51-7.11-16.11-7.14a.68.67-8 01-.65-.48q-1.72-5.57-1.62-11.37c.05-2.78 1.23-5.65 1.57-8.71a.86.85 82.4 01.52-.69c4.5-1.94 11.41 1.69 15.3-1.93 3.35-3.1 1.22-10.01-3.85-9.97-29.27.25-58.53-.87-87.83-1.01a2.63 2.58 67.3 01-1.85-.78c-5.32-5.39-10.66-4.51-17.56-5.27a1.52 1.47 68.4 01-.86-.39c-4.28-3.93-7.53-2.4-12.05-3.41-5.67-1.25-11.12-3.79-16.55-5.85a.73.72 37.5 01-.17-1.26l7.18-5.21a.42.41 65 01.65.24l.7 2.83q.21.85.81.21c2.97-3.18 7.28-8.06 7.38-12.61.11-4.78-.12-10.24.81-14.48 3.72-16.9 19.28-21.61 28.63-33.93q8.21-10.84 13.26-22.07c1.83-4.06 5.24-6.78 6.82-10.79 3.39-8.62 3.12-16.79 2.42-25.95a1.41 1.38-30.5 01.24-.9c4.37-6.41-4.33-18.25-8.68-22.46a.67.66-53.2 01-.11-.82l4.57-7.77a.55.54-63.9 01.67-.24c4.52 1.74 9.14 4.67 13.27 5.75 8.65 2.26 17.36-.41 26.09-.67q31.05-.92 61.99 1.93c14.13 1.3 28.27 3.8 41.27 9.73a.92.89-49.4 00.87-.08q.95-.67 1.9-2.08c7.47-11.1 6.34-23.45.75-35.42a.99.98-43.4 01.03-.89q6.16-11.42 3.56-25.3c-1.18-6.26-5.91-14.92-13.34-13.83-6.8.99-10.49 10.64-11.37 16.55a.36.36 0 01-.53.26c-.82-.45-1.16-1.07-1.16-2.08q.01-4.9-2.36-11.13c-4.1-10.76-14.91-12.84-20.83-2.08a.83.82-62.4 01-1.08.34c-32.94-15.88-72.63-20.17-109.04-17.31q-6.91.55-13.36 3.99-.45.24-.95.23c-10.45-.18-21.52 5.33-29.69 11.5"/><path stroke="#121110" vector-effect="non-scaling-stroke" d="M191.54 296.75q.18.19.46.24a.63.62-73.8 00.7-.39c1.28-3.34 2.07-6.99 3.21-10.11 2.8-7.75 4.83-16.2 7.94-23.2 3.91-8.78 8.26-17.62 13.89-25.43q1.96-2.71 2.36-6.13M265.21 186.25q.37.35.76.27a.79.79 0 00.62-.61c3.42-15.54 6.81-27.43 15.14-40.56 3.94-6.21 6.99-12.1 13.34-17.31a.43.42 47.1 00.02-.63q-.41-.41-.59-.95"/><path stroke="#5e5e5e" vector-effect="non-scaling-stroke" d="M346 116.79q-4.96-.95-9.55 1.01a.45.43 63.6 00-.2.63l2.79 4.82"/><path stroke="#686767" vector-effect="non-scaling-stroke" d="M339.04 123.25q7.28 16.82 1.35 34.1a.67.66-64.5 00.27.78q.64.42 1.59.08"/><path stroke="#5e5e5e" vector-effect="non-scaling-stroke" d="M342.25 158.21c19.52-2.44 36.1-3.14 55.25-.21q22.9 3.5 36.82 7.43 5.41 1.52 10.95 2.8.49.11.15-.25-3.97-4.25-6.63-9.23"/><path stroke="#919090" vector-effect="non-scaling-stroke" d="M438.79 158.75l-.37-3.82a.83.83 0 01.6-.87l5.67-1.62a1.47 1.47 0 001.06-1.62q-1.16-8.17.12-16.35a.64.64 0 00-.37-.69c-30.71-13.88-64.61-19.25-99.5-16.99"/><path stroke="#cccdce" vector-effect="non-scaling-stroke" d="M438.79 158.75q-1.56.69-2.11-.92c-2.52-7.39 10.78-2.99 6.88-11.81q-.18-.4-.16-.84l.55-10.44a.63.63 0 00-.55-.66q-.99-.12-1.8-.84-.37-.34-.86-.47-2.86-.78-5.55-1.99c-4.33-1.95-7.7-3.04-11.71-4.4q-.47-.16-.96-.07-1.84.36-2.53.22c-7.57-1.61-16.38-2.08-22.88-2.89-16.33-2.04-31.63-1.55-49.28-1.11-5.14.12-6.01-3.25-1.83-5.74"/><path stroke="#a2a3a5" vector-effect="non-scaling-stroke" d="M342.25 158.21c1.57-5.99 3.19-13.43 2.03-19.57-.65-3.42-.21-6.37-1.45-9.66q-1.05-2.77-1.96-5.55a.95.93 88.1 00-.65-.62q-.69-.18-1.18.44"/><path stroke="#121110" vector-effect="non-scaling-stroke" d="M335.64 232.08q4.98-2.56 8.05-7c3.67-5.33 4.04-17.74-1.56-22.09q-.42-.33-.64-.8-1.23-2.59-3.53-4.32a1.65 1.64-80.6 01-.57-.8q-.51-1.53-1.64-2.61"/><path stroke="#919090" vector-effect="non-scaling-stroke" d="M335.75 194.46q4.23-4.51 5.78-10.34a1.23 1.22-69.7 00-.65-1.42c-2.37-1.15-3.93-2.47-4.33-5.28q-.97-6.81-.03-13.69a.99.99 0 00-.28-.84c-7.78-7.81 1.01-17.62.13-26.64q-.6-6.13-5.02-10.87a1.29 1.28-19.9 00-.86-.4q-9.68-.69-17.88 4.3c-5.54 3.37-6.2 7.27-6.49 13.78a1.36 1.3 69.7 01-.37.85c-4.33 4.45-9.61 8.95-12.75 13.66q-5.77 8.67-7.06 19.28a.55.55 0 00.53.61l3.38.09a.87.87 0 01.69 1.37q-15.54 22.04-3.52 46.71a.88.88 0 001.48.17l2.06-2.56a.45.45 0 01.75.07c5.07 9.92 15.95 15.71 26.67 16.9q.78.08.42-.61l-2.06-3.94a.3.3 0 01.35-.43c4.88 1.45 11.62 1.89 15.84-1.39q1.44-1.12 3.11-1.76"/><path stroke="gray" vector-effect="non-scaling-stroke" d="M335.75 194.46q-1.34.85-2.03 2.27a.51.51 0 00.22.68c7.43 3.8 13.69 15.43 9.83 23.56q-2.94 6.18-8.13 11.11"/><path stroke="#919090" vector-effect="non-scaling-stroke" d="M452.2 134.06q-2.5 2.25-1.66 6.19"/><path stroke="#5e5e5e" vector-effect="non-scaling-stroke" d="M450.54 140.25q-.61 2.28-.04 4.54"/><path stroke="#919090" vector-effect="non-scaling-stroke" d="M450.5 144.79q-.48 6.75 3.75 12"/><path stroke="#686767" vector-effect="non-scaling-stroke" d="M454.25 156.79c2.77 4.97 8.34 2.22 9.96-1.79"/><path stroke="#919090" vector-effect="non-scaling-stroke" d="M464.21 155q3.84-7.26 2.5-15.5"/><path stroke="#5e5e5e" vector-effect="non-scaling-stroke" d="M466.71 139.5q.24-2.48-.3-3.92"/><path stroke="#919090" vector-effect="non-scaling-stroke" d="M466.41 135.58l-.95-2.83"/><path stroke="#5e5e5e" vector-effect="non-scaling-stroke" d="M465.46 132.75c-3.69-8.09-12.06-9.11-13.26 1.31"/><path stroke="#cccdce" vector-effect="non-scaling-stroke" d="M465.46 132.75c-2.25-2.29-3.22-.59-5.2-.05q-3.92 1.07-8.06 1.36M466.41 135.58q-7.3 1.48-14.06 4.39c-.63.27-1.13.15-1.81.28M466.71 139.5q-1.22.89-1.71 1-7.4 1.63-14.5 4.29"/><path stroke="#d6d6d7" vector-effect="non-scaling-stroke" d="M464.21 155q-2.28-.53-4.48.1-.47.13-.96.07-2.68-.34-4.52 1.62"/><path stroke="#919090" vector-effect="non-scaling-stroke" d="M480.54 135.75q-1.86 4.86-2.26 10.09a1.14 1.13 25.4 00.32.88l3.9 4.07"/><path stroke="#5e5e5e" vector-effect="non-scaling-stroke" d="M482.5 150.79q5.09 4.06 8.98 9.15a.3.3 0 00.54-.13l1.69-10.56"/><path stroke="#919090" vector-effect="non-scaling-stroke" d="M493.71 149.25q.59-7.96-3-15"/><path stroke="#5e5e5e" vector-effect="non-scaling-stroke" d="M490.71 134.25c-2.71-4.23-8.73-3.12-10.17 1.5"/><path stroke="#cccdce" vector-effect="non-scaling-stroke" d="M490.71 134.25l-10.17 1.5M493.71 149.25c-3.46-.7-5.14.81-8.21 1.14q-1.5.16-3 .4"/><path stroke="#686767" vector-effect="non-scaling-stroke" d="M471.5 150.59l-.94 1.47a.47.47 0 00.29.71l6.14 1.45q.74.17.12-.28l-4.83-3.5a.55.54 34.1 00-.78.15M356 163.04q-5.8.08-11.24 2a.79.78-26.9 00-.39 1.19c4.91 7.1 8.8 13.62 16.23 18.52 6.4 4.23 16.88 1.6 23.46 1.34q36.92-1.42 73.72 2.56"/><path stroke="#5e5e5e" vector-effect="non-scaling-stroke" d="M457.78 188.65c7.78 1.37 16.92 2.22 24.19 5.36a.3.3 0 00.34-.47q-5.75-6.37-13.52-9.79"/><path stroke="#686767" vector-effect="non-scaling-stroke" d="M468.79 183.75q-19.82-8.89-41.04-13.54"/><path stroke="#5e5e5e" vector-effect="non-scaling-stroke" d="M427.75 170.21l-3.75-.92"/><path stroke="#686767" vector-effect="non-scaling-stroke" d="M424 169.29q-17.52-4.4-35.5-6.25"/><path stroke="#5e5e5e" vector-effect="non-scaling-stroke" d="M388.5 163.04q-16.25-1.55-32.5 0"/><path stroke="#a2a3a5" vector-effect="non-scaling-stroke" d="M388.5 163.04q-.49.26-.67.56a.58.58 0 00.42.89q11.31 1.37 21.99 3.21c3.24.56 8.38 2.3 12.94 2.39a.63.63 0 00.58-.35l.24-.45M427.75 170.21q-.36.11-.47.43a.51.5-73.3 00.34.64l14.06 4.11q.53.16 1.09.13 1.38-.06 2.46.91.38.34.87.49 7.75 2.47 15.36 5.32c1.51.56 3.62.65 5.38 1.89.7.5 1.75.73 1.95-.38M457.78 188.65q-3.23-2.3-7.1-2.34-4.78-.04-4.88-.05-18.14-1.75-36.36-1.69c-5.61.02-15.67-.47-23.58.34-1.47.15-2.7-.39-4.26 0q-7.75 1.95-15.65.77c-3.42-.51-5.38-2.84-8.03-4.8-5.07-3.75-8.46-8.7-11.88-13.82a.58.58 0 01.21-.83q4.34-2.29 9.25-1.68a.69.68 1.8 00.77-.72q-.03-.52-.27-.79"/><path stroke="#686767" vector-effect="non-scaling-stroke" d="M164.21 356.53l5.66.68a1.4 1.39-58 00.89-.21q.98-.64 1.6-1.66 6.89-11.3 11.34-23.81.31-.87-.2-.1-8.69 13.1-19.5 24.53-.47.49.21.57M322.68 360.55l-.19-.17a.17.17 0 01-.03-.22l1.48-2.08a.59.58-57.3 00-.18-.85q-3.4-1.94-7.2-2.05c-4.21-.12-7-1.47-10.58-3.1a1.74 1.67 52.2 00-.95-.14q-5.42.79-10.53-1.18-11.1-4.26-21.7-9.61a.73.72 30.8 00-.93.23l-1.67 2.37a.65.65 0 00.26.97q9.52 4.39 19.51 7.52a1.54 1.49-44 00.93 0c2.76-.9 10.2.38 7.54 4.51a1.32 1.32 0 00.59 1.93q6.77 2.89 12.73 6.37c2.26 1.32 3.43 3.72 6.23 4.84a.47.46 15.1 00.63-.36q.23-1.42 1.33-2.35a.9.89-25.9 00.3-.85q-.76-3.94-4.74-4.45a1.4 1.32-16.1 01-.8-.41c-1.68-1.76-8.02-3.48-7.37-5.45a.52.52 0 01.65-.33c5.18 1.68 10.82 3.2 14.68 6.9q4.29 4.11 6.57 9.8a.72.71-22.3 00.94.39l1.64-.68a.67.66-15.4 00.4-.69q-.81-6.55-5.06-11.61a.96.95-30 00-1.06-.28l-3.04 1.11a.39.38 56.1 01-.38-.08"/><path stroke="#121110" vector-effect="non-scaling-stroke" d="M210.61 354.91q1.86 4.51 1.54 9.65a.65.65 0 00.76.68q.41-.07.8-.49"/><path stroke="#686767" vector-effect="non-scaling-stroke" d="M213.71 364.75l1.61 4.89q.27.8.81.16l1.65-1.94a.63.62-51.3 01.84-.1l2.27 1.67a.49.49 0 00.75-.57c-1.09-2.86-3.52-10.46-2.11-13.05a.21.21 0 01.37 0q6.07 11.63 6.27 24.71a.47.47 0 00.62.44l1.31-.44a.73.72-23.7 01.86.33l1.18 2.13q.47.85.6-.11c.44-3.32 1.74-7.63.52-10.84a.79.79 0 00-.59-.49q-2.22-.41-3.96.87-.58.43-.24-.2 1.16-2.08 3.06-3.51a1.14 1.14 0 00.41-1.28c-2.04-6.17-3.82-12.48-7.37-17.93-3.07-4.7-6.44 0-9.81-3.27a.91.9-50.7 00-1.38.14q-3.16 4.62-.77 8.55"/><path stroke="#565657" vector-effect="non-scaling-stroke" d="M213.71 364.75l-.61-11.26a.71.71 0 00-.22-.49l-.24-.23a.36.36 0 00-.54.05l-1.49 2.09"/><path stroke="#919090" vector-effect="non-scaling-stroke" d="M264.27 357.75h19.01a1.07 1.04-70.6 00.83-.41l1.8-2.31a.45.44 36.6 00-.1-.63c-2.29-1.59-5.17-1.74-7.41-2.67q-1.91-.79-3.93-1.39a.86.84 30.6 00-.83.2c-2.08 2.02-3.29 2.98-6.39 4.16q-2 .76-3.28 2.46-.44.59.3.59M237.67 357.78c4.98-.47 9.95.13 14.96-.22q1-.07.06-.43-3.2-1.22-5.49-3.77a.67.65 56 00-.76-.16l-8.89 4.16a.22.22 0 00.12.42"/><path stroke="#686767" vector-effect="non-scaling-stroke" d="M291.31 359.39c.99.57 3.11-1.6 3.93-2.19a.59.59 0 00.13-.82l-1.18-1.65a.71.7-42.5 00-1.11-.04l-2.75 3.19a.58.57 51.2 00-.07.65l.17.3a1.13.06 29.5 00.88.56M234.09 366.47c1.03-1.29 1.66-1.84.66-3.54q-2.42-4.12-5.61-7.5a.28.28 0 00-.45.33q2.63 5 4.15 10.46a.72.72 0 001.25.25"/><path stroke="#919090" vector-effect="non-scaling-stroke" d="M248.5 363.6q-4.97-.01-9.99-.2-.54-.02-.21.4.91 1.16 2.71 1.15 9.69-.08 42.99-.01 3.99.01 6.77-.32.53-.06.02-.2c-6.37-1.68-15.46-.67-25.86-.82a.95.93-22.6 01-.65-.26c-.44-.43-.54-.41-1.11-.14-2.87 1.36-8.99.4-14.67.4"/><path stroke="#686767" vector-effect="non-scaling-stroke" d="M303.509 364.462a4.88.63 1.2 00-4.866-.732 4.88.63 1.2 00-4.892.528 4.88.63 1.2 004.866.732 4.88.63 1.2 004.892-.528M419.86 364.47a.33.33 0 00-.33-.33h-85.6a.33.33 0 00-.33.33v.04a.33.33 0 00.33.33h85.6a.33.33 0 00.33-.33v-.04M236.44 378.16l1.49-2.4q.28-.46.3-.99.13-3.79-1.34-7.24a.94.94 0 00-.74-.56c-4.38-.62-.19 11.2.06 11.27a.22.2 23.6 00.23-.08M222.4 379.11a.47.46 87.6 00.5-.55q-.9-4.87-4-8.72a.45.44 45.8 00-.69-.01c-2.43 2.92-1.27 5.33-.05 8.46a.69.68 82.5 00.58.45l3.66.37M214.91 400.38a.58.58 0 00.5-.9c-2.44-3.62-2.41-10.6-2.64-14.87-.3-5.7 1.64-8.92-2.01-14.68q-.27-.42-.35.07-2.51 14.76.98 29.45.2.84 3.52.93"/><path stroke="#919090" vector-effect="non-scaling-stroke" d="M402.43 370.35c-16.95 1.19-34.74 0-51.81.24-3.63.05-8.98-.36-13.54.02a.53.52 82.5 00-.47.62q.49 2.77-1.05 5.03-.31.47.25.47c21.82.03 43.65-.75 65.46-1.15a.76.75-84.1 00.72-.59l.89-4.12a.43.43 0 00-.45-.52"/><path stroke="#919090" vector-effect="non-scaling-stroke" d="M328.71 382.53l.65-1.71a1.08 1.06-46.2 00-.01-.81l-3.46-8.49a.33.32-47.6 00-.61.03c-1.1 3.46.15 5.15-3.13 7.87q-.39.32-.44-.17-.22-1.87-.96-3.54c-1.14-2.59-6.84-5.02-9.49-5q-34.9.25-69.85.35a.55.55 0 00-.55.49c-.49 4.72.75 11.39-3.84 14.45a.49.49 0 01-.74-.26l-1.96-6.33a.48.48 0 00-.94.1q-.7 8-5.57 14.3a.56.56 0 00.44.9q17.79.22 35.52-.48c23.86-.94 47.77-.4 71.58-1.47 7.7-.35 17.45.01 23.07-.11q21.73-.45 43.51-.43a.39.39 0 00.39-.42l-1.01-12.59a.43.42-1.5 00-.42-.39q-32.57-.41-65.14-.89-.94-.02-1.81.32a1.75 1.75 0 00-.78.61l-2.63 3.71a1.06 1.05 17.9 01-.88.44l-.62-.01a.35.35 0 01-.32-.47M220.72 388.59l-2.31-3.05a.29.28-65.4 00-.51.19l.38 8.26a.48.48 0 00.47.46l6.98.2a.55.55 0 00.56-.59q-.03-.53-.42-.97a1.74 1.67 19.3 01-.42-.83l-1.61-7.65q-.24-1.14-.67-.06l-1.59 3.92q-.33.81-.86.12"/><path stroke="#686767" vector-effect="non-scaling-stroke" d="M311.22 400.15c12.63-1.21 25.27-.49 38.08-.72 22.75-.42 45.52-.15 68.28-.46q.03 0 .58.25.16.08.42 0a.59.58-7.9 00.43-.56c0-1.19-5.88-1.43-6.79-1.41q-34.84.85-59.72.82-3.77-.01-5.82.33c-1.03.16-2.85-.4-4-.39q-15.94.11-31.89.28a.53.52-8.1 00-.5.66l.19.69a.71.71 0 00.74.51"/><path stroke="#5e5e5e" vector-effect="non-scaling-stroke" d="M309.368 398.83a.27.27 0 00-.252-.286l-3.573-.224a.27.27 0 00-.287.252l-.084 1.337a.27.27 0 00.252.287l3.573.224a.27.27 0 00.287-.252l.084-1.337"/><path stroke="#919090" vector-effect="non-scaling-stroke" d="M183.5 410.96l103 .33"/><path stroke="#686767" vector-effect="non-scaling-stroke" d="M286.5 411.29l58 .25"/><path stroke="#5e5e5e" vector-effect="non-scaling-stroke" d="M344.5 411.54l2-.08"/><path stroke="#686767" vector-effect="non-scaling-stroke" d="M346.5 411.46l21.25.5"/><path stroke="#5e5e5e" vector-effect="non-scaling-stroke" d="M367.75 411.96l40.98.26a.73.72 9.9 00.7-.49c.82-2.4-3.67-5.82-5.21-6.95a1.59 1.5-25.8 00-.91-.29l-43.81.3"/><path stroke="#686767" vector-effect="non-scaling-stroke" d="M359.5 404.79l-52.45.59q-.05 0-.95-.13-.32-.05-.79-.05c-17.41.09-35.35-.54-52.68.99a1.37 1.35-29.6 01-.89-.24q-.82-.58-1.65 0a.8.79-46.5 01-.87.03q-1.6-.98-3.14.26a.73.72-51.2 01-.77.09c-2.09-1.06-4.03-.11-5.69-.07-13.65.33-26.27.36-40.66-.74q-16.36-1.24-32.78-1.91c-8.11-.34-16.78 2.92-24.21 5.95a1.08 1.05-3.9 00-.61.68c-4.44 15.14-2.94 32.97.77 48.04a.65.64 83.5 00.61.49c15.68.18 31.58.7 47.02.7 35.34-.01 70.84-.35 106.17.65 38.42 1.09 80.31.89 113.4 1.35a.73.73 0 00.7-.96q-1.82-5.53-5.59-10a1.24 1.2 69.6 00-.9-.43l-5.81-.12a.77.77 0 00-.78.82l.26 4.32q.14 2.2-2.01 2.68c-2.37.53-5.59-.21-7.7-.2-78.11.49-156.32.01-234.43-1.13-2.11-.03-7.51.89-7.9-2.2q-2.64-20.65.92-41.39a2.64 2.64 0 012.61-2.19l34.8.29"/><path stroke="#a2a3a5" vector-effect="non-scaling-stroke" d="M359.5 404.79l-.02.97q-.01.35-.25.1l-.26-.27q-.46-.49-.6.17-.47 2.19-2.12 3.46a.75.75 0 00-.25.83c.52 1.46 2.23-.07 2.31-1.16q.06-.99.4-.06l.54 1.47q.18.5.45.04.63-1.09 1.78-.35a.68.67-46.6 00.79-.03q.78-.59 1.43-.1a1.6 1.59 63.6 00.97.33l6.51.02a.88.87 75.3 01.76.45l.19.35a.47.46 74.2 01-.38.69l-4 .26M346.5 411.46q-.25-.94-.94-1.26a.31.31 0 00-.44.29q.01.72-.62 1.05"/><path stroke="#d6d6d7" vector-effect="non-scaling-stroke" d="M286.5 411.29q.45.03.52-.41a.46.46 0 00-.46-.53c-2.1.05-7.56.54-9.62-.44a.99.98 44 00-.87.01c-1.8.92-3.45.11-4.85.13q-9.58.1-19.16-.11c-6.24-.13-13.44.62-20.21.36-13.03-.52-25.58-.04-38.41-.75-.73-.05-10.48.29-10.6.48a.46.46 0 00.16.65l.5.28"/><path stroke="#5e5e5e" vector-effect="non-scaling-stroke" d="M304 426.71q-1.18-1.13 0-2.17"/><path stroke="#919090" vector-effect="non-scaling-stroke" d="M304 424.54q24.37-.64 35.75-.45c17.19.28 34.38-.69 51.55-.24a.63.62 5.3 00.63-.51l.88-4.75a1.19 1.18-84.8 00-1.17-1.41q-55.72.32-111.38-.29c-43.06-.47-86.13-.12-129.19-.55a.53.53 0 00-.53.47q-1.89 16.75-.62 33.58a.97.96 87.7 00.96.89l239.62.98a.54.54 0 00.55-.58l-.23-3.01a.61.61 0 00-.58-.55q-18.41-.63-36.82-1.16c-5.45-.15-11.8-.87-16.92-.93q-18.28-.22-36.57-1.04-.5-.02 0-.04c19.45-.75 38.84-.38 58.31-1.18q15.58-.64 31.22-.53a.61.61 0 00.62-.65q-.38-6.9.8-13.67a.52.52 0 00-.5-.61c-28.83-.43-57.73-1.39-86.38-1.6"/><path stroke="#cccdce" vector-effect="non-scaling-stroke" d="M304 424.54c-11.45-.7-23.09.34-32.56.3q-2.04-.01-3.54.8-.47.25.07.29 18.02 1.27 36.03.78"/><path stroke="#686767" vector-effect="non-scaling-stroke" d="M417.18 465.17q6.72-.55 13.33-.73a.39.39 0 00.08-.76q-7.2-1.73-14.61-1.68a1.01 1 15 00-.87.5l-1.55 2.66q-.36.63.35.49 1.66-.35 3.27-.48M352.19 465.93c-38.07-.11-75.76.08-113.63.02-6.53-.01-14.66-.81-23.25-.82-11.35 0-19.43-.49-34.03-.35a1.08 1.07 19.9 00-.82.38q-1.03 1.18-1.24 2.35-2.73 15.39.54 30.72a.71.71 0 00.6.56q2.18.28 6.46.06c30.4-1.56 60.76-1.87 91.18-2.57 3.6-.09 7.28-.77 10.67-.8 10.05-.11 20.87-.7 30.1-.84q26.5-.41 52.99-1.29c19.54-.65 39.13-.51 58.7-.95q.5-.01.04-.23c-4.53-2.15-12.75-2.02-17.67-1.91-44.62 1.04-79.39 2.7-117.17 3.03-7.47.07-15.53.77-23.35.95-26.69.6-53.45 1.29-80.14 2.21q-3.46.12-7.06-.04a.75.75 0 01-.66-.49c-2.3-6.25-2.41-14.77-1.72-21.23.32-3.04.24-5.29 3.76-5.33 33.67-.37 88.68-1.44 133.26-2.54q15.97-.4 32.11-.07a.63.62 6.7 00.63-.49q.08-.33-.3-.33"/><path stroke="#5e5e5e" vector-effect="non-scaling-stroke" d="M388 477.21q4.98.98 9.75-.67"/><path stroke="#919090" vector-effect="non-scaling-stroke" d="M397.75 476.54l11.57-.3a.79.78 7.9 00.72-.54l1.26-3.84a.53.52-81.7 00-.51-.69c-24.01.63-48.24.79-72.04 1.28q-42.75.9-85.5 1.58c-21.57.35-43.17.24-64.63.91a1.32 1.31 89.6 00-1.28 1.31l-.13 15.19a.55.55 0 00.6.55c25.8-2.4 51.97-1.65 77.87-2.75 29-1.23 58-1.79 87-3.02q18.85-.8 37.72-.72c5.65.02 12.73-.99 19.43-.66a.99.99 0 001.02-1.16l-.53-2.85a.82.81 88 00-.7-.66q-16.26-1.68-29.37-1.54-.93.01-1.32-.33-.41-.36.14-.4l8.93-.69"/><path stroke="#cccdce" vector-effect="non-scaling-stroke" d="M397.75 476.54q-4.95-.57-9.75.67"/><path stroke="#5e5e5e" vector-effect="non-scaling-stroke" d="M402.71 521q-.67-1.5-1.96-2.48a1.28 1.24 59.5 00-.91-.25l-4.63.57a.41.41 0 00-.34.53l.67 2.13"/><path stroke="#686767" vector-effect="non-scaling-stroke" d="M395.54 521.5q-.29 5 1.43 10.04"/><path stroke="#5e5e5e" vector-effect="non-scaling-stroke" d="M396.97 531.54l-.97 1.25"/><path stroke="#686767" vector-effect="non-scaling-stroke" d="M396 532.79c-2.14.03-4.4-.32-6.34-.32-76.82.22-153.66.02-230.49.02-2.97 0-6.33-.32-9.47-.41a1.75 1.72-26.3 01-.91-.3c-4.15-2.89-2.4-22.46-1.72-27.35q.49-3.59 4.44-2.91c2.51.44 4.98-.09 7.62.33q2.99.48 6 .15a1.51 1.47 55.3 01.91.18q1.1.59 2.09-.14.43-.32-.08-.48-8.45-2.71-16.94-5.5c-3.42-1.13-5.89-.08-8.04 2.44-4.66 5.48-2.13 28.17.03 34.95a1.59 1.58-9.5 001.55 1.1c7.4-.17 14.87-.91 22.14-.7 17.69.51 35.77.05 52.96.23 53.37.57 105.75.11 158.59.23 6.87.01 19.23.63 28.91.13q2.25-.12 3.77.62a.73.73 0 00.95-1.03q-4.13-7.09-9.26-13.03"/><path stroke="#a2a3a5" vector-effect="non-scaling-stroke" d="M396 532.79c2.44 1.15 5.26.53 7.11.66q2.89.2 4.8.11 3.09-.13 1.14-2.54l-7.08-8.76a.49.48-40.2 01.06-.67l.68-.59"/><path stroke="#a2a3a5" vector-effect="non-scaling-stroke" d="M396.97 531.54l-.18-9.19a.59.58-86.6 00-.5-.57q-.43-.06-.75-.28"/><path stroke="#686767" vector-effect="non-scaling-stroke" d="M232.58 503.21c.13 1.06 160.15 1.56 174.67 1.48 8.72-.05 3.01-7-2.02-6.4q-3.6.43-7.23.49-39.67.68-79.33 1.62c-4.29.1-9.68.76-14.67.8-21.77.19-47.06 1.49-70.79 1.29a.64.64 0 00-.63.72"/><path stroke="#5e5e5e" vector-effect="non-scaling-stroke" d="M313.5 516.71l-.22-.14a.26.25 33.1 01-.08-.35q.82-1.25 2.3-1.68"/><path stroke="#919090" vector-effect="non-scaling-stroke" d="M315.5 514.54q36.12-.67 72.23-1.17c1.72-.02 3.11-.61 2.7-2.59a.86.85 72.3 00-1.17-.61q-1.07.45-2.76.42c-66.58-1.39-138.35-.52-199.57-2.51q-24.91-.81-33.79-.69a.57.57 0 00-.56.63q.91 8.92-.22 17.83a.55.55 0 00.55.62c78.96.15 157.97.29 236.93-.01a.45.45 0 00.42-.62l-.65-1.58a.95.95 0 00-.86-.58l-14.22-.25a.25.25 0 01-.12-.46q.49-.28 1.1-.3c4.26-.12 8.24-1.37 12.45-1.26a.74.73-83.3 00.73-.58l.34-1.58a1.09 1.08 5.4 00-1.09-1.31q-8.14.21-15.01-.07-29.7-1.21-59.43-1.16"/><path stroke="#cccdce" vector-effect="non-scaling-stroke" d="M315.5 514.54q-18.5.44-37 .95-.66.02-1.77.55-.46.22.05.29c10.25 1.45 22.11.69 36.72.38"/><path stroke="gray" vector-effect="non-scaling-stroke" d="M324.751 150.48a10.18 8.58 85.6 007.774-10.808 10.18 8.58 85.6 00-9.336-9.492 10.18 8.58 85.6 00-7.774 10.808 10.18 8.58 85.6 009.336 9.492"/><path stroke="#565657" vector-effect="non-scaling-stroke" d="M320.31 136q-.83 1.22.64 1.24l8.07.13a.35.34-6 00.34-.41c-1.05-5.19-6.4-4.83-9.05-.96"/><path stroke="gray" vector-effect="non-scaling-stroke" d="M326.07 144.53c-4.25.97-4.76-2.21-6.12-5.06a.62.61-56.6 00-1.17.24q-.26 6.75 5.96 7.79c3.96.66 4.59-4.32 5.84-6.77a.69.68-74.5 00-.56-1q-1.34-.09-1.72 1.03a.8.78-84.1 01-.62.52l-1.89.28a.57.57 0 00-.36.9l.94 1.23a.53.53 0 01-.3.84"/><path stroke="#a2a3a5" vector-effect="non-scaling-stroke" d="M142.34 412.62c-1.87 3.72-1.91 10.71-1.84 14.81a.4.39-9.9 00.52.36l.85-.29a.71.71 0 00.48-.66c.06-3.72.13-12.47 2.75-15.68q.59-.72-.34-.76l-1.94-.1a.64.63-8.4 00-.63.84l.21.6a1.12 1.1-41.5 01-.06.88M141.84 440.22l.02-5.52q.01-1.21-.49-.11-.77 1.7-.49 3.49.08.46-.01.92l-.47 2.59a.58.58 0 00.71.67l.75-.19a.42.41 72.5 00.29-.56l-.14-.36q-.18-.45-.17-.93"/><path stroke="#d6d6d7" vector-effect="non-scaling-stroke" d="M265.2 426.29l.61-.2a.36.36 0 00.02-.67l-.87-.33a.35.35 0 00-.47.38l.06.42a.5.5 0 00.65.4"/></g><path d="M0 0h591v591H0V0zm585.49 5.53a.27.27 0 00-.27-.27H5.52a.27.27 0 00-.27.27v579.7a.27.27 0 00.27.27h579.7a.27.27 0 00.27-.27V5.53zM.38 590.25a.12.12 0 00-.12.11l-.01.26a.12.12 0 00.12.13h590.21a.12.12 0 00.12-.08l.08-.26a.12.12 0 00-.11-.16H.38z"/><path fill="#fafde0" d="M585.49 585.23a.27.27 0 01-.27.27H5.52a.27.27 0 01-.27-.27V5.53a.27.27 0 01.27-.27h579.7a.27.27 0 01.27.27v579.7zM41.15 27.51c-7.14 2.9-11.61 10.9-11.81 18.49q-.56 21.5-.06 43.77a.47.47 0 00.45.46c2.55.12 50.37-48.42 56.05-54.07 1.7-1.69 5.73-5.03 7.65-7.84q1.54-2.26-1.19-2.28-19.4-.11-38.56 0-9.04.05-12.53 1.47zm253.35 98.95q-6.64 4.84-10.82 11.99c-8.89 15.18-15.59 29.08-18.47 47.8l-1.2 8.53a1.14 1.11-14.6 01-.47.78c-14.97 10.64-34.21 19.8-43.44 36.17q-13.68 18.05-19.79 37.33-4.38 13.85-8.77 27.69c-2.81 8.23-5.51 16.92-9.58 24.26q-10.2 18.39-25.59 32.94c-1.54 1.45-2.19 3.03-4.68 3.03q-6.19.02-12.43.05a2.7 2.69 10.4 00-2.5 1.72c-1.58 4.11-1.43 7.92-2.06 12.29-1.22 8.48-13.24 16.3-21.05 22.34-8.75 6.77-14.85 15.59-6.86 26.24a1.14 1.13-42.8 01-.06 1.42c-4.77 5.41-4.17 11.5.93 16.52 7.39 7.28 15.07 7.99 26.37 6.66a.61.6 83.6 01.68.55l.47 5.02a.44.43 1.1 01-.49.46q-5.63-.83-6.96 3.98-4.04 14.58.26 30.75c.72 2.73.78 4.13 3.85 5.02q4.14 1.21 8.15 2.81a.37.36-60 01.15.57c-8.9 10.83-5.1 32.41-.98 43.81 1.78 4.93 15.43 2.53 19.76 2.56q126.77.82 253.54.42 2.68 0 4.06-1.27c5.55-5.05-5.64-15.82-8.66-20.19-2.44-3.55-5.22-7.11-9.82-6.75a.9.87-25.1 01-.67-.23l-.29-.26a.53.52 63.4 01.3-.91q5.48-.57 10.94-.86c6.77-.37 11.53-3.41 8.49-11.06a.43.43 0 01.39-.59q6.89-.17 13.74-.41 6.01-.2 7.47-5.41a1.19 1.19 0 00-.12-.91c-3.8-6.69-13.77-6.14-21.43-6.8a.74.73 86.7 01-.65-.59q-1.31-6.45.93-12.6a.73.73 0 01.65-.47c4.97-.21 18.11 1.11 18.54-6.01.53-8.8-15.39-8.18-20.83-8.7a2.33 2.3-12.6 01-1.77-1.11l-5.69-9.46a1.39 1.39 0 00-1.17-.67l-10.39-.22a.48.47 89.3 01-.46-.46q-.45-13.29 2.48-26.25a.58.57 5.8 01.55-.44c3.29-.02 14.92 1.1 15.9-2.81q1.36-5.49-2.62-9.45a.61.61 0 01.46-1.04c4.41.19 11.99 2.08 12.05-4.98.08-8.61-10.51-7.11-16.11-7.14a.68.67-8 01-.65-.48q-1.72-5.57-1.62-11.37c.05-2.78 1.23-5.65 1.57-8.71a.86.85 82.4 01.52-.69c4.5-1.94 11.41 1.69 15.3-1.93 3.35-3.1 1.22-10.01-3.85-9.97-29.27.25-58.53-.87-87.83-1.01a2.63 2.58 67.3 01-1.85-.78c-5.32-5.39-10.66-4.51-17.56-5.27a1.52 1.47 68.4 01-.86-.39c-4.28-3.93-7.53-2.4-12.05-3.41-5.67-1.25-11.12-3.79-16.55-5.85a.73.72 37.5 01-.17-1.26l7.18-5.21a.42.41 65 01.65.24l.7 2.83q.21.85.81.21c2.97-3.18 7.28-8.06 7.38-12.61.11-4.78-.12-10.24.81-14.48 3.72-16.9 19.28-21.61 28.63-33.93q8.21-10.84 13.26-22.07c1.83-4.06 5.24-6.78 6.82-10.79 3.39-8.62 3.12-16.79 2.42-25.95a1.41 1.38-30.5 01.24-.9c4.37-6.41-4.33-18.25-8.68-22.46a.67.66-53.2 01-.11-.82l4.57-7.77a.55.54-63.9 01.67-.24c4.52 1.74 9.14 4.67 13.27 5.75 8.65 2.26 17.36-.41 26.09-.67q31.05-.92 61.99 1.93c14.13 1.3 28.27 3.8 41.27 9.73a.92.89-49.4 00.87-.08q.95-.67 1.9-2.08c7.47-11.1 6.34-23.45.75-35.42a.99.98-43.4 01.03-.89q6.16-11.42 3.56-25.3c-1.18-6.26-5.91-14.92-13.34-13.83-6.8.99-10.49 10.64-11.37 16.55a.36.36 0 01-.53.26c-.82-.45-1.16-1.07-1.16-2.08q.01-4.9-2.36-11.13c-4.1-10.76-14.91-12.84-20.83-2.08a.83.82-62.4 01-1.08.34c-32.94-15.88-72.63-20.17-109.04-17.31q-6.91.55-13.36 3.99-.45.24-.95.23c-10.45-.18-21.52 5.33-29.69 11.5z"/><path fill="#fae5ad" d="M29.34 46c.2-7.59 4.67-15.59 11.81-18.49q3.49-1.42 12.53-1.47 19.16-.11 38.56 0 2.73.02 1.19 2.28c-1.92 2.81-5.95 6.15-7.65 7.84-5.68 5.65-53.5 54.19-56.05 54.07a.47.47 0 01-.45-.46q-.5-22.27.06-43.77z"/><path fill="#232120" d="M191.54 296.75q.18.19.46.24a.63.62-73.8 00.7-.39c1.28-3.34 2.07-6.99 3.21-10.11 2.8-7.75 4.83-16.2 7.94-23.2 3.91-8.78 8.26-17.62 13.89-25.43q1.96-2.71 2.36-6.13c9.23-16.37 28.47-25.53 43.44-36.17a1.14 1.11-14.6 00.47-.78l1.2-8.53q.37.35.76.27a.79.79 0 00.62-.61c3.42-15.54 6.81-27.43 15.14-40.56 3.94-6.21 6.99-12.1 13.34-17.31a.43.42 47.1 00.02-.63q-.41-.41-.59-.95c8.17-6.17 19.24-11.68 29.69-11.5q.5.01.95-.23 6.45-3.44 13.36-3.99c36.41-2.86 76.1 1.43 109.04 17.31a.83.82-62.4 001.08-.34c5.92-10.76 16.73-8.68 20.83 2.08q2.37 6.23 2.36 11.13c0 1.01.34 1.63 1.16 2.08a.36.36 0 00.53-.26c.88-5.91 4.57-15.56 11.37-16.55 7.43-1.09 12.16 7.57 13.34 13.83q2.6 13.88-3.56 25.3a.99.98-43.4 00-.03.89c5.59 11.97 6.72 24.32-.75 35.42q-.95 1.41-1.9 2.08a.92.89-49.4 01-.87.08c-13-5.93-27.14-8.43-41.27-9.73q-30.94-2.85-61.99-1.93c-8.73.26-17.44 2.93-26.09.67-4.13-1.08-8.75-4.01-13.27-5.75a.55.54-63.9 00-.67.24l-4.57 7.77a.67.66-53.2 00.11.82c4.35 4.21 13.05 16.05 8.68 22.46a1.41 1.38-30.5 00-.24.9c.7 9.16.97 17.33-2.42 25.95-1.58 4.01-4.99 6.73-6.82 10.79q-5.05 11.23-13.26 22.07c-9.35 12.32-24.91 17.03-28.63 33.93-.93 4.24-.7 9.7-.81 14.48-.1 4.55-4.41 9.43-7.38 12.61q-.6.64-.81-.21l-.7-2.83a.42.41 65 00-.65-.24l-7.18 5.21a.73.72 37.5 00.17 1.26c5.43 2.06 10.88 4.6 16.55 5.85 4.52 1.01 7.77-.52 12.05 3.41a1.52 1.47 68.4 00.86.39c6.9.76 12.24-.12 17.56 5.27a2.63 2.58 67.3 001.85.78c29.3.14 58.56 1.26 87.83 1.01 5.07-.04 7.2 6.87 3.85 9.97-3.89 3.62-10.8-.01-15.3 1.93a.86.85 82.4 00-.52.69c-.34 3.06-1.52 5.93-1.57 8.71q-.1 5.8 1.62 11.37a.68.67-8 00.65.48c5.6.03 16.19-1.47 16.11 7.14-.06 7.06-7.64 5.17-12.05 4.98a.61.61 0 00-.46 1.04q3.98 3.96 2.62 9.45c-.98 3.91-12.61 2.79-15.9 2.81a.58.57 5.8 00-.55.44q-2.93 12.96-2.48 26.25a.48.47 89.3 00.46.46l10.39.22a1.39 1.39 0 011.17.67l5.69 9.46a2.33 2.3-12.6 001.77 1.11c5.44.52 21.36-.1 20.83 8.7-.43 7.12-13.57 5.8-18.54 6.01a.73.73 0 00-.65.47q-2.24 6.15-.93 12.6a.74.73 86.7 00.65.59c7.66.66 17.63.11 21.43 6.8a1.19 1.19 0 01.12.91q-1.46 5.21-7.47 5.41-6.85.24-13.74.41a.43.43 0 00-.39.59c3.04 7.65-1.72 10.69-8.49 11.06q-5.46.29-10.94.86a.53.52 63.4 00-.3.91l.29.26a.9.87-25.1 00.67.23c4.6-.36 7.38 3.2 9.82 6.75 3.02 4.37 14.21 15.14 8.66 20.19q-1.38 1.27-4.06 1.27-126.77.4-253.54-.42c-4.33-.03-17.98 2.37-19.76-2.56-4.12-11.4-7.92-32.98.98-43.81a.37.36-60 00-.15-.57q-4.01-1.6-8.15-2.81c-3.07-.89-3.13-2.29-3.85-5.02q-4.3-16.17-.26-30.75 1.33-4.81 6.96-3.98a.44.43 1.1 00.49-.46l-.47-5.02a.61.6 83.6 00-.68-.55c-11.3 1.33-18.98.62-26.37-6.66-5.1-5.02-5.7-11.11-.93-16.52a1.14 1.13-42.8 00.06-1.42c-7.99-10.65-1.89-19.47 6.86-26.24 7.81-6.04 19.83-13.86 21.05-22.34.63-4.37.48-8.18 2.06-12.29a2.7 2.69 10.4 012.5-1.72q6.24-.03 12.43-.05c2.49 0 3.14-1.58 4.68-3.03q15.39-14.55 25.59-32.94c4.07-7.34 6.77-16.03 9.58-24.26zM346 116.79q-4.96-.95-9.55 1.01a.45.43 63.6 00-.2.63l2.79 4.82q7.28 16.82 1.35 34.1a.67.66-64.5 00.27.78q.64.42 1.59.08c19.52-2.44 36.1-3.14 55.25-.21q22.9 3.5 36.82 7.43 5.41 1.52 10.95 2.8.49.11.15-.25-3.97-4.25-6.63-9.23l-.37-3.82a.83.83 0 01.6-.87l5.67-1.62a1.47 1.47 0 001.06-1.62q-1.16-8.17.12-16.35a.64.64 0 00-.37-.69c-30.71-13.88-64.61-19.25-99.5-16.99zm-10.36 115.29q4.98-2.56 8.05-7c3.67-5.33 4.04-17.74-1.56-22.09q-.42-.33-.64-.8-1.23-2.59-3.53-4.32a1.65 1.64-80.6 01-.57-.8q-.51-1.53-1.64-2.61 4.23-4.51 5.78-10.34a1.23 1.22-69.7 00-.65-1.42c-2.37-1.15-3.93-2.47-4.33-5.28q-.97-6.81-.03-13.69a.99.99 0 00-.28-.84c-7.78-7.81 1.01-17.62.13-26.64q-.6-6.13-5.02-10.87a1.29 1.28-19.9 00-.86-.4q-9.68-.69-17.88 4.3c-5.54 3.37-6.2 7.27-6.49 13.78a1.36 1.3 69.7 01-.37.85c-4.33 4.45-9.61 8.95-12.75 13.66q-5.77 8.67-7.06 19.28a.55.55 0 00.53.61l3.38.09a.87.87 0 01.69 1.37q-15.54 22.04-3.52 46.71a.88.88 0 001.48.17l2.06-2.56a.45.45 0 01.75.07c5.07 9.92 15.95 15.71 26.67 16.9q.78.08.42-.61l-2.06-3.94a.3.3 0 01.35-.43c4.88 1.45 11.62 1.89 15.84-1.39q1.44-1.12 3.11-1.76zm116.56-98.02q-2.5 2.25-1.66 6.19-.61 2.28-.04 4.54-.48 6.75 3.75 12c2.77 4.97 8.34 2.22 9.96-1.79q3.84-7.26 2.5-15.5.24-2.48-.3-3.92l-.95-2.83c-3.69-8.09-12.06-9.11-13.26 1.31zm28.34 1.69q-1.86 4.86-2.26 10.09a1.14 1.13 25.4 00.32.88l3.9 4.07q5.09 4.06 8.98 9.15a.3.3 0 00.54-.13l1.69-10.56q.59-7.96-3-15c-2.71-4.23-8.73-3.12-10.17 1.5zm-9.04 14.84l-.94 1.47a.47.47 0 00.29.71l6.14 1.45q.74.17.12-.28l-4.83-3.5a.55.54 34.1 00-.78.15zM356 163.04q-5.8.08-11.24 2a.79.78-26.9 00-.39 1.19c4.91 7.1 8.8 13.62 16.23 18.52 6.4 4.23 16.88 1.6 23.46 1.34q36.92-1.42 73.72 2.56c7.78 1.37 16.92 2.22 24.19 5.36a.3.3 0 00.34-.47q-5.75-6.37-13.52-9.79-19.82-8.89-41.04-13.54l-3.75-.92q-17.52-4.4-35.5-6.25-16.25-1.55-32.5 0zM164.21 356.53l5.66.68a1.4 1.39-58 00.89-.21q.98-.64 1.6-1.66 6.89-11.3 11.34-23.81.31-.87-.2-.1-8.69 13.1-19.5 24.53-.47.49.21.57zm158.47 4.02l-.19-.17a.17.17 0 01-.03-.22l1.48-2.08a.59.58-57.3 00-.18-.85q-3.4-1.94-7.2-2.05c-4.21-.12-7-1.47-10.58-3.1a1.74 1.67 52.2 00-.95-.14q-5.42.79-10.53-1.18-11.1-4.26-21.7-9.61a.73.72 30.8 00-.93.23l-1.67 2.37a.65.65 0 00.26.97q9.52 4.39 19.51 7.52a1.54 1.49-44 00.93 0c2.76-.9 10.2.38 7.54 4.51a1.32 1.32 0 00.59 1.93q6.77 2.89 12.73 6.37c2.26 1.32 3.43 3.72 6.23 4.84a.47.46 15.1 00.63-.36q.23-1.42 1.33-2.35a.9.89-25.9 00.3-.85q-.76-3.94-4.74-4.45a1.4 1.32-16.1 01-.8-.41c-1.68-1.76-8.02-3.48-7.37-5.45a.52.52 0 01.65-.33c5.18 1.68 10.82 3.2 14.68 6.9q4.29 4.11 6.57 9.8a.72.71-22.3 00.94.39l1.64-.68a.67.66-15.4 00.4-.69q-.81-6.55-5.06-11.61a.96.95-30 00-1.06-.28l-3.04 1.11a.39.38 56.1 01-.38-.08zm-112.07-5.64q1.86 4.51 1.54 9.65a.65.65 0 00.76.68q.41-.07.8-.49l1.61 4.89q.27.8.81.16l1.65-1.94a.63.62-51.3 01.84-.1l2.27 1.67a.49.49 0 00.75-.57c-1.09-2.86-3.52-10.46-2.11-13.05a.21.21 0 01.37 0q6.07 11.63 6.27 24.71a.47.47 0 00.62.44l1.31-.44a.73.72-23.7 01.86.33l1.18 2.13q.47.85.6-.11c.44-3.32 1.74-7.63.52-10.84a.79.79 0 00-.59-.49q-2.22-.41-3.96.87-.58.43-.24-.2 1.16-2.08 3.06-3.51a1.14 1.14 0 00.41-1.28c-2.04-6.17-3.82-12.48-7.37-17.93-3.07-4.7-6.44 0-9.81-3.27a.91.9-50.7 00-1.38.14q-3.16 4.62-.77 8.55zm53.66 2.84h19.01a1.07 1.04-70.6 00.83-.41l1.8-2.31a.45.44 36.6 00-.1-.63c-2.29-1.59-5.17-1.74-7.41-2.67q-1.91-.79-3.93-1.39a.86.84 30.6 00-.83.2c-2.08 2.02-3.29 2.98-6.39 4.16q-2 .76-3.28 2.46-.44.59.3.59zm-26.6.03c4.98-.47 9.95.13 14.96-.22q1-.07.06-.43-3.2-1.22-5.49-3.77a.67.65 56 00-.76-.16l-8.89 4.16a.22.22 0 00.12.42zm53.64 1.61c.99.57 3.11-1.6 3.93-2.19a.59.59 0 00.13-.82l-1.18-1.65a.71.7-42.5 00-1.11-.04l-2.75 3.19a.58.57 51.2 00-.07.65l.17.3a1.13.06 29.5 00.88.56zm-57.22 7.08c1.03-1.29 1.66-1.84.66-3.54q-2.42-4.12-5.61-7.5a.28.28 0 00-.45.33q2.63 5 4.15 10.46a.72.72 0 001.25.25zm14.41-2.87q-4.97-.01-9.99-.2-.54-.02-.21.4.91 1.16 2.71 1.15 9.69-.08 42.99-.01 3.99.01 6.77-.32.53-.06.02-.2c-6.37-1.68-15.46-.67-25.86-.82a.95.93-22.6 01-.65-.26c-.44-.43-.54-.41-1.11-.14-2.87 1.36-8.99.4-14.67.4zm55.009.862a4.88.63 1.2 00-4.866-.732 4.88.63 1.2 00-4.892.528 4.88.63 1.2 004.866.732 4.88.63 1.2 004.892-.528zm116.351.008a.33.33 0 00-.33-.33h-85.6a.33.33 0 00-.33.33v.04a.33.33 0 00.33.33h85.6a.33.33 0 00.33-.33v-.04zm-183.42 13.69l1.49-2.4q.28-.46.3-.99.13-3.79-1.34-7.24a.94.94 0 00-.74-.56c-4.38-.62-.19 11.2.06 11.27a.22.2 23.6 00.23-.08zm-14.04.95a.47.46 87.6 00.5-.55q-.9-4.87-4-8.72a.45.44 45.8 00-.69-.01c-2.43 2.92-1.27 5.33-.05 8.46a.69.68 82.5 00.58.45l3.66.37zm-7.49 21.27a.58.58 0 00.5-.9c-2.44-3.62-2.41-10.6-2.64-14.87-.3-5.7 1.64-8.92-2.01-14.68q-.27-.42-.35.07-2.51 14.76.98 29.45.2.84 3.52.93zm187.52-30.03c-16.95 1.19-34.74 0-51.81.24-3.63.05-8.98-.36-13.54.02a.53.52 82.5 00-.47.62q.49 2.77-1.05 5.03-.31.47.25.47c21.82.03 43.65-.75 65.46-1.15a.76.75-84.1 00.72-.59l.89-4.12a.43.43 0 00-.45-.52zm-73.72 12.18l.65-1.71a1.08 1.06-46.2 00-.01-.81l-3.46-8.49a.33.32-47.6 00-.61.03c-1.1 3.46.15 5.15-3.13 7.87q-.39.32-.44-.17-.22-1.87-.96-3.54c-1.14-2.59-6.84-5.02-9.49-5q-34.9.25-69.85.35a.55.55 0 00-.55.49c-.49 4.72.75 11.39-3.84 14.45a.49.49 0 01-.74-.26l-1.96-6.33a.48.48 0 00-.94.1q-.7 8-5.57 14.3a.56.56 0 00.44.9q17.79.22 35.52-.48c23.86-.94 47.77-.4 71.58-1.47 7.7-.35 17.45.01 23.07-.11q21.73-.45 43.51-.43a.39.39 0 00.39-.42l-1.01-12.59a.43.42-1.5 00-.42-.39q-32.57-.41-65.14-.89-.94-.02-1.81.32a1.75 1.75 0 00-.78.61l-2.63 3.71a1.06 1.05 17.9 01-.88.44l-.62-.01a.35.35 0 01-.32-.47zm-107.99 6.06l-2.31-3.05a.29.28-65.4 00-.51.19l.38 8.26a.48.48 0 00.47.46l6.98.2a.55.55 0 00.56-.59q-.03-.53-.42-.97a1.74 1.67 19.3 01-.42-.83l-1.61-7.65q-.24-1.14-.67-.06l-1.59 3.92q-.33.81-.86.12zm90.5 11.56c12.63-1.21 25.27-.49 38.08-.72 22.75-.42 45.52-.15 68.28-.46q.03 0 .58.25.16.08.42 0a.59.58-7.9 00.43-.56c0-1.19-5.88-1.43-6.79-1.41q-34.84.85-59.72.82-3.77-.01-5.82.33c-1.03.16-2.85-.4-4-.39q-15.94.11-31.89.28a.53.52-8.1 00-.5.66l.19.69a.71.71 0 00.74.51zm-1.852-1.32a.27.27 0 00-.252-.286l-3.573-.224a.27.27 0 00-.287.252l-.084 1.337a.27.27 0 00.252.287l3.573.224a.27.27 0 00.287-.252l.084-1.337zM183.5 410.96l103 .33 58 .25 2-.08 21.25.5 40.98.26a.73.72 9.9 00.7-.49c.82-2.4-3.67-5.82-5.21-6.95a1.59 1.5-25.8 00-.91-.29l-43.81.3-52.45.59q-.05 0-.95-.13-.32-.05-.79-.05c-17.41.09-35.35-.54-52.68.99a1.37 1.35-29.6 01-.89-.24q-.82-.58-1.65 0a.8.79-46.5 01-.87.03q-1.6-.98-3.14.26a.73.72-51.2 01-.77.09c-2.09-1.06-4.03-.11-5.69-.07-13.65.33-26.27.36-40.66-.74q-16.36-1.24-32.78-1.91c-8.11-.34-16.78 2.92-24.21 5.95a1.08 1.05-3.9 00-.61.68c-4.44 15.14-2.94 32.97.77 48.04a.65.64 83.5 00.61.49c15.68.18 31.58.7 47.02.7 35.34-.01 70.84-.35 106.17.65 38.42 1.09 80.31.89 113.4 1.35a.73.73 0 00.7-.96q-1.82-5.53-5.59-10a1.24 1.2 69.6 00-.9-.43l-5.81-.12a.77.77 0 00-.78.82l.26 4.32q.14 2.2-2.01 2.68c-2.37.53-5.59-.21-7.7-.2-78.11.49-156.32.01-234.43-1.13-2.11-.03-7.51.89-7.9-2.2q-2.64-20.65.92-41.39a2.64 2.64 0 012.61-2.19l34.8.29zM304 426.71q-1.18-1.13 0-2.17 24.37-.64 35.75-.45c17.19.28 34.38-.69 51.55-.24a.63.62 5.3 00.63-.51l.88-4.75a1.19 1.18-84.8 00-1.17-1.41q-55.72.32-111.38-.29c-43.06-.47-86.13-.12-129.19-.55a.53.53 0 00-.53.47q-1.89 16.75-.62 33.58a.97.96 87.7 00.96.89l239.62.98a.54.54 0 00.55-.58l-.23-3.01a.61.61 0 00-.58-.55q-18.41-.63-36.82-1.16c-5.45-.15-11.8-.87-16.92-.93q-18.28-.22-36.57-1.04-.5-.02 0-.04c19.45-.75 38.84-.38 58.31-1.18q15.58-.64 31.22-.53a.61.61 0 00.62-.65q-.38-6.9.8-13.67a.52.52 0 00-.5-.61c-28.83-.43-57.73-1.39-86.38-1.6zm113.18 38.46q6.72-.55 13.33-.73a.39.39 0 00.08-.76q-7.2-1.73-14.61-1.68a1.01 1 15 00-.87.5l-1.55 2.66q-.36.63.35.49 1.66-.35 3.27-.48zm-64.99.76c-38.07-.11-75.76.08-113.63.02-6.53-.01-14.66-.81-23.25-.82-11.35 0-19.43-.49-34.03-.35a1.08 1.07 19.9 00-.82.38q-1.03 1.18-1.24 2.35-2.73 15.39.54 30.72a.71.71 0 00.6.56q2.18.28 6.46.06c30.4-1.56 60.76-1.87 91.18-2.57 3.6-.09 7.28-.77 10.67-.8 10.05-.11 20.87-.7 30.1-.84q26.5-.41 52.99-1.29c19.54-.65 39.13-.51 58.7-.95q.5-.01.04-.23c-4.53-2.15-12.75-2.02-17.67-1.91-44.62 1.04-79.39 2.7-117.17 3.03-7.47.07-15.53.77-23.35.95-26.69.6-53.45 1.29-80.14 2.21q-3.46.12-7.06-.04a.75.75 0 01-.66-.49c-2.3-6.25-2.41-14.77-1.72-21.23.32-3.04.24-5.29 3.76-5.33 33.67-.37 88.68-1.44 133.26-2.54q15.97-.4 32.11-.07a.63.62 6.7 00.63-.49q.08-.33-.3-.33zM388 477.21q4.98.98 9.75-.67l11.57-.3a.79.78 7.9 00.72-.54l1.26-3.84a.53.52-81.7 00-.51-.69c-24.01.63-48.24.79-72.04 1.28q-42.75.9-85.5 1.58c-21.57.35-43.17.24-64.63.91a1.32 1.31 89.6 00-1.28 1.31l-.13 15.19a.55.55 0 00.6.55c25.8-2.4 51.97-1.65 77.87-2.75 29-1.23 58-1.79 87-3.02q18.85-.8 37.72-.72c5.65.02 12.73-.99 19.43-.66a.99.99 0 001.02-1.16l-.53-2.85a.82.81 88 00-.7-.66q-16.26-1.68-29.37-1.54-.93.01-1.32-.33-.41-.36.14-.4l8.93-.69zM402.71 521q-.67-1.5-1.96-2.48a1.28 1.24 59.5 00-.91-.25l-4.63.57a.41.41 0 00-.34.53l.67 2.13q-.29 5 1.43 10.04l-.97 1.25c-2.14.03-4.4-.32-6.34-.32-76.82.22-153.66.02-230.49.02-2.97 0-6.33-.32-9.47-.41a1.75 1.72-26.3 01-.91-.3c-4.15-2.89-2.4-22.46-1.72-27.35q.49-3.59 4.44-2.91c2.51.44 4.98-.09 7.62.33q2.99.48 6 .15a1.51 1.47 55.3 01.91.18q1.1.59 2.09-.14.43-.32-.08-.48-8.45-2.71-16.94-5.5c-3.42-1.13-5.89-.08-8.04 2.44-4.66 5.48-2.13 28.17.03 34.95a1.59 1.58-9.5 001.55 1.1c7.4-.17 14.87-.91 22.14-.7 17.69.51 35.77.05 52.96.23 53.37.57 105.75.11 158.59.23 6.87.01 19.23.63 28.91.13q2.25-.12 3.77.62a.73.73 0 00.95-1.03q-4.13-7.09-9.26-13.03zm-170.13-17.79c.13 1.06 160.15 1.56 174.67 1.48 8.72-.05 3.01-7-2.02-6.4q-3.6.43-7.23.49-39.67.68-79.33 1.62c-4.29.1-9.68.76-14.67.8-21.77.19-47.06 1.49-70.79 1.29a.64.64 0 00-.63.72zm80.92 13.5l-.22-.14a.26.25 33.1 01-.08-.35q.82-1.25 2.3-1.68 36.12-.67 72.23-1.17c1.72-.02 3.11-.61 2.7-2.59a.86.85 72.3 00-1.17-.61q-1.07.45-2.76.42c-66.58-1.39-138.35-.52-199.57-2.51q-24.91-.81-33.79-.69a.57.57 0 00-.56.63q.91 8.92-.22 17.83a.55.55 0 00.55.62c78.96.15 157.97.29 236.93-.01a.45.45 0 00.42-.62l-.65-1.58a.95.95 0 00-.86-.58l-14.22-.25a.25.25 0 01-.12-.46q.49-.28 1.1-.3c4.26-.12 8.24-1.37 12.45-1.26a.74.73-83.3 00.73-.58l.34-1.58a1.09 1.08 5.4 00-1.09-1.31q-8.14.21-15.01-.07-29.7-1.21-59.43-1.16z"/><path fill="#fff" d="M438.79 158.75q-1.56.69-2.11-.92c-2.52-7.39 10.78-2.99 6.88-11.81q-.18-.4-.16-.84l.55-10.44a.63.63 0 00-.55-.66q-.99-.12-1.8-.84-.37-.34-.86-.47-2.86-.78-5.55-1.99c-4.33-1.95-7.7-3.04-11.71-4.4q-.47-.16-.96-.07-1.84.36-2.53.22c-7.57-1.61-16.38-2.08-22.88-2.89-16.33-2.04-31.63-1.55-49.28-1.11-5.14.12-6.01-3.25-1.83-5.74 34.89-2.26 68.79 3.11 99.5 16.99a.64.64 0 01.37.69q-1.28 8.18-.12 16.35a1.47 1.47 0 01-1.06 1.62l-5.67 1.62a.83.83 0 00-.6.87l.37 3.82z"/><path fill="#989a9c" d="M346 116.79c-4.18 2.49-3.31 5.86 1.83 5.74 17.65-.44 32.95-.93 49.28 1.11 6.5.81 15.31 1.28 22.88 2.89q.69.14 2.53-.22.49-.09.96.07c4.01 1.36 7.38 2.45 11.71 4.4q2.69 1.21 5.55 1.99.49.13.86.47.81.72 1.8.84a.63.63 0 01.55.66l-.55 10.44q-.02.44.16.84c3.9 8.82-9.4 4.42-6.88 11.81q.55 1.61 2.11.92 2.66 4.98 6.63 9.23.34.36-.15.25-5.54-1.28-10.95-2.8-13.92-3.93-36.82-7.43c-19.15-2.93-35.73-2.23-55.25.21 1.57-5.99 3.19-13.43 2.03-19.57-.65-3.42-.21-6.37-1.45-9.66q-1.05-2.77-1.96-5.55a.95.93 88.1 00-.65-.62q-.69-.18-1.18.44l-2.79-4.82a.45.43 63.6 01.2-.63q4.59-1.96 9.55-1.01z"/><path fill="#acacae" d="M342.25 158.21q-.95.34-1.59-.08a.67.66-64.5 01-.27-.78q5.93-17.28-1.35-34.1.49-.62 1.18-.44a.95.93 88.1 01.65.62q.91 2.78 1.96 5.55c1.24 3.29.8 6.24 1.45 9.66 1.16 6.14-.46 13.58-2.03 19.57z"/><path fill="#fff" d="M335.75 194.46q-1.34.85-2.03 2.27a.51.51 0 00.22.68c7.43 3.8 13.69 15.43 9.83 23.56q-2.94 6.18-8.13 11.11-1.67.64-3.11 1.76c-4.22 3.28-10.96 2.84-15.84 1.39a.3.3 0 00-.35.43l2.06 3.94q.36.69-.42.61c-10.72-1.19-21.6-6.98-26.67-16.9a.45.45 0 00-.75-.07l-2.06 2.56a.88.88 0 01-1.48-.17q-12.02-24.67 3.52-46.71a.87.87 0 00-.69-1.37l-3.38-.09a.55.55 0 01-.53-.61q1.29-10.61 7.06-19.28c3.14-4.71 8.42-9.21 12.75-13.66a1.36 1.3 69.7 00.37-.85c.29-6.51.95-10.41 6.49-13.78q8.2-4.99 17.88-4.3a1.29 1.28-19.9 01.86.4q4.42 4.74 5.02 10.87c.88 9.02-7.91 18.83-.13 26.64a.99.99 0 01.28.84q-.94 6.88.03 13.69c.4 2.81 1.96 4.13 4.33 5.28a1.23 1.22-69.7 01.65 1.42q-1.55 5.83-5.78 10.34zm-10.999-43.98a10.18 8.58 85.6 007.774-10.808 10.18 8.58 85.6 00-9.336-9.492 10.18 8.58 85.6 00-7.774 10.808 10.18 8.58 85.6 009.336 9.492z"/><path fill="#989a9c" d="M465.46 132.75c-2.25-2.29-3.22-.59-5.2-.05q-3.92 1.07-8.06 1.36c1.2-10.42 9.57-9.4 13.26-1.31z"/><path d="M294.5 126.46q.18.54.59.95a.43.42 47.1 01-.02.63c-6.35 5.21-9.4 11.1-13.34 17.31-8.33 13.13-11.72 25.02-15.14 40.56a.79.79 0 01-.62.61q-.39.08-.76-.27c2.88-18.72 9.58-32.62 18.47-47.8q4.18-7.15 10.82-11.99zM324.751 150.48a10.18 8.58 85.6 01-9.336-9.492 10.18 8.58 85.6 017.774-10.808 10.18 8.58 85.6 019.336 9.492 10.18 8.58 85.6 01-7.774 10.808zM320.31 136q-.83 1.22.64 1.24l8.07.13a.35.34-6 00.34-.41c-1.05-5.19-6.4-4.83-9.05-.96zm5.76 8.53c-4.25.97-4.76-2.21-6.12-5.06a.62.61-56.6 00-1.17.24q-.26 6.75 5.96 7.79c3.96.66 4.59-4.32 5.84-6.77a.69.68-74.5 00-.56-1q-1.34-.09-1.72 1.03a.8.78-84.1 01-.62.52l-1.89.28a.57.57 0 00-.36.9l.94 1.23a.53.53 0 01-.3.84z"/><path fill="#fff" d="M465.46 132.75l.95 2.83q-7.3 1.48-14.06 4.39c-.63.27-1.13.15-1.81.28q-.84-3.94 1.66-6.19 4.14-.29 8.06-1.36c1.98-.54 2.95-2.24 5.2.05z"/><path fill="#989a9c" d="M490.71 134.25l-10.17 1.5c1.44-4.62 7.46-5.73 10.17-1.5z"/><path fill="#acacae" d="M320.31 136c2.65-3.87 8-4.23 9.05.96a.35.34-6 01-.34.41l-8.07-.13q-1.47-.02-.64-1.24z"/><path fill="#fff" d="M490.71 134.25q3.59 7.04 3 15c-3.46-.7-5.14.81-8.21 1.14q-1.5.16-3 .4l-3.9-4.07a1.14 1.13 25.4 01-.32-.88q.4-5.23 2.26-10.09l10.17-1.5z"/><path fill="#989a9c" d="M466.41 135.58q.54 1.44.3 3.92-1.22.89-1.71 1-7.4 1.63-14.5 4.29-.57-2.26.04-4.54c.68-.13 1.18-.01 1.81-.28q6.76-2.91 14.06-4.39z"/><path fill="#fff" d="M326.37 143.69l-.94-1.23a.57.57 0 01.36-.9l1.89-.28a.8.78-84.1 00.62-.52q.38-1.12 1.72-1.03a.69.68-74.5 01.56 1c-1.25 2.45-1.88 7.43-5.84 6.77q-6.22-1.04-5.96-7.79a.62.61-56.6 011.17-.24c1.36 2.85 1.87 6.03 6.12 5.06a.53.53 0 00.3-.84zM466.71 139.5q1.34 8.24-2.5 15.5-2.28-.53-4.48.1-.47.13-.96.07-2.68-.34-4.52 1.62-4.23-5.25-3.75-12 7.1-2.66 14.5-4.29.49-.11 1.71-1z"/><path fill="#989a9c" d="M493.71 149.25l-1.69 10.56a.3.3 0 01-.54.13q-3.89-5.09-8.98-9.15 1.5-.24 3-.4c3.07-.33 4.75-1.84 8.21-1.14z"/><path fill="#acacae" d="M471.5 150.59a.55.54 34.1 01.78-.15l4.83 3.5q.62.45-.12.28l-6.14-1.45a.47.47 0 01-.29-.71l.94-1.47zM464.21 155c-1.62 4.01-7.19 6.76-9.96 1.79q1.84-1.96 4.52-1.62.49.06.96-.07 2.2-.63 4.48-.1z"/><path fill="#989a9c" d="M388.5 163.04q-.49.26-.67.56a.58.58 0 00.42.89q11.31 1.37 21.99 3.21c3.24.56 8.38 2.3 12.94 2.39a.63.63 0 00.58-.35l.24-.45 3.75.92q-.36.11-.47.43a.51.5-73.3 00.34.64l14.06 4.11q.53.16 1.09.13 1.38-.06 2.46.91.38.34.87.49 7.75 2.47 15.36 5.32c1.51.56 3.62.65 5.38 1.89.7.5 1.75.73 1.95-.38q7.77 3.42 13.52 9.79a.3.3 0 01-.34.47c-7.27-3.14-16.41-3.99-24.19-5.36q-3.23-2.3-7.1-2.34-4.78-.04-4.88-.05-18.14-1.75-36.36-1.69c-5.61.02-15.67-.47-23.58.34-1.47.15-2.7-.39-4.26 0q-7.75 1.95-15.65.77c-3.42-.51-5.38-2.84-8.03-4.8-5.07-3.75-8.46-8.7-11.88-13.82a.58.58 0 01.21-.83q4.34-2.29 9.25-1.68a.69.68 1.8 00.77-.72q-.03-.52-.27-.79 16.25-1.55 32.5 0z"/><path fill="#acacae" d="M356 163.04q.24.27.27.79a.69.68 1.8 01-.77.72q-4.91-.61-9.25 1.68a.58.58 0 00-.21.83c3.42 5.12 6.81 10.07 11.88 13.82 2.65 1.96 4.61 4.29 8.03 4.8q7.9 1.18 15.65-.77c1.56-.39 2.79.15 4.26 0 7.91-.81 17.97-.32 23.58-.34q18.22-.06 36.36 1.69.1.01 4.88.05 3.87.04 7.1 2.34-36.8-3.98-73.72-2.56c-6.58.26-17.06 2.89-23.46-1.34-7.43-4.9-11.32-11.42-16.23-18.52a.79.78-26.9 01.39-1.19q5.44-1.92 11.24-2zM388.5 163.04q17.98 1.85 35.5 6.25l-.24.45a.63.63 0 01-.58.35c-4.56-.09-9.7-1.83-12.94-2.39q-10.68-1.84-21.99-3.21a.58.58 0 01-.42-.89q.18-.3.67-.56zM427.75 170.21q21.22 4.65 41.04 13.54c-.2 1.11-1.25.88-1.95.38-1.76-1.24-3.87-1.33-5.38-1.89q-7.61-2.85-15.36-5.32-.49-.15-.87-.49-1.08-.97-2.46-.91-.56.03-1.09-.13l-14.06-4.11a.51.5-73.3 01-.34-.64q.11-.32.47-.43z"/><path d="M335.75 194.46q1.13 1.08 1.64 2.61a1.65 1.64-80.6 00.57.8q2.3 1.73 3.53 4.32.22.47.64.8c5.6 4.35 5.23 16.76 1.56 22.09q-3.07 4.44-8.05 7 5.19-4.93 8.13-11.11c3.86-8.13-2.4-19.76-9.83-23.56a.51.51 0 01-.22-.68q.69-1.42 2.03-2.27zM220.1 231.73q-.4 3.42-2.36 6.13c-5.63 7.81-9.98 16.65-13.89 25.43-3.11 7-5.14 15.45-7.94 23.2-1.14 3.12-1.93 6.77-3.21 10.11a.63.62-73.8 01-.7.39q-.28-.05-.46-.24 4.39-13.84 8.77-27.69 6.11-19.28 19.79-37.33z"/><path fill="#acacae" d="M164.21 356.53q-.68-.08-.21-.57 10.81-11.43 19.5-24.53.51-.77.2.1-4.45 12.51-11.34 23.81-.62 1.02-1.6 1.66a1.4 1.39-58 01-.89.21l-5.66-.68zM323.06 360.63l3.04-1.11a.96.95-30 011.06.28q4.25 5.06 5.06 11.61a.67.66-15.4 01-.4.69l-1.64.68a.72.71-22.3 01-.94-.39q-2.28-5.69-6.57-9.8c-3.86-3.7-9.5-5.22-14.68-6.9a.52.52 0 00-.65.33c-.65 1.97 5.69 3.69 7.37 5.45a1.4 1.32-16.1 00.8.41q3.98.51 4.74 4.45a.9.89-25.9 01-.3.85q-1.1.93-1.33 2.35a.47.46 15.1 01-.63.36c-2.8-1.12-3.97-3.52-6.23-4.84q-5.96-3.48-12.73-6.37a1.32 1.32 0 01-.59-1.93c2.66-4.13-4.78-5.41-7.54-4.51a1.54 1.49-44 01-.93 0q-9.99-3.13-19.51-7.52a.65.65 0 01-.26-.97l1.67-2.37a.73.72 30.8 01.93-.23q10.6 5.35 21.7 9.61 5.11 1.97 10.53 1.18a1.74 1.67 52.2 01.95.14c3.58 1.63 6.37 2.98 10.58 3.1q3.8.11 7.2 2.05a.59.58-57.3 01.18.85l-1.48 2.08a.17.17 0 00.03.22l.19.17a.39.38 56.1 00.38.08zM213.71 364.75l-.61-11.26a.71.71 0 00-.22-.49l-.24-.23a.36.36 0 00-.54.05l-1.49 2.09q-2.39-3.93.77-8.55a.91.9-50.7 011.38-.14c3.37 3.27 6.74-1.43 9.81 3.27 3.55 5.45 5.33 11.76 7.37 17.93a1.14 1.14 0 01-.41 1.28q-1.9 1.43-3.06 3.51-.34.63.24.2 1.74-1.28 3.96-.87a.79.79 0 01.59.49c1.22 3.21-.08 7.52-.52 10.84q-.13.96-.6.11l-1.18-2.13a.73.72-23.7 00-.86-.33l-1.31.44a.47.47 0 01-.62-.44q-.2-13.08-6.27-24.71a.21.21 0 00-.37 0c-1.41 2.59 1.02 10.19 2.11 13.05a.49.49 0 01-.75.57l-2.27-1.67a.63.62-51.3 00-.84.1l-1.65 1.94q-.54.64-.81-.16l-1.61-4.89z"/><path fill="#fff" d="M263.97 357.16q1.28-1.7 3.28-2.46c3.1-1.18 4.31-2.14 6.39-4.16a.86.84 30.6 01.83-.2q2.02.6 3.93 1.39c2.24.93 5.12 1.08 7.41 2.67a.45.44 36.6 01.1.63l-1.8 2.31a1.07 1.04-70.6 01-.83.41h-19.01q-.74 0-.3-.59z"/><path d="M213.71 364.75q-.39.42-.8.49a.65.65 0 01-.76-.68q.32-5.14-1.54-9.65l1.49-2.09a.36.36 0 01.54-.05l.24.23a.71.71 0 01.22.49l.61 11.26z"/><path fill="#fff" d="M252.63 357.56c-5.01.35-9.98-.25-14.96.22a.22.22 0 01-.12-.42l8.89-4.16a.67.65 56 01.76.16q2.29 2.55 5.49 3.77.94.36-.06.43z"/><path fill="#acacae" d="M290.43 358.83l-.17-.3a.58.57 51.2 01.07-.65l2.75-3.19a.71.7-42.5 011.11.04l1.18 1.65a.59.59 0 01-.13.82c-.82.59-2.94 2.76-3.93 2.19a1.13.06 29.5 01-.88-.56zM234.09 366.47a.72.72 0 01-1.25-.25q-1.52-5.46-4.15-10.46a.28.28 0 01.45-.33q3.19 3.38 5.61 7.5c1 1.7.37 2.25-.66 3.54z"/><path fill="#fff" d="M248.5 363.6c5.68 0 11.8.96 14.67-.4.57-.27.67-.29 1.11.14a.95.93-22.6 00.65.26c10.4.15 19.49-.86 25.86.82q.51.14-.02.2-2.78.33-6.77.32-33.3-.07-42.99.01-1.8.01-2.71-1.15-.33-.42.21-.4 5.02.19 9.99.2z"/><ellipse fill="#acacae" transform="rotate(1.2 -17246.958 14440.191)" rx="4.88" ry=".63"/><rect fill="#acacae" x="333.6" y="364.14" width="86.26" height=".7" rx=".33"/><path fill="#acacae" d="M236.44 378.16a.22.2 23.6 01-.23.08c-.25-.07-4.44-11.89-.06-11.27a.94.94 0 01.74.56q1.47 3.45 1.34 7.24-.02.53-.3.99l-1.49 2.4zM222.4 379.11l-3.66-.37a.69.68 82.5 01-.58-.45c-1.22-3.13-2.38-5.54.05-8.46a.45.44 45.8 01.69.01q3.1 3.85 4 8.72a.47.46 87.6 01-.5.55zM214.91 400.38q-3.32-.09-3.52-.93-3.49-14.69-.98-29.45.08-.49.35-.07c3.65 5.76 1.71 8.98 2.01 14.68.23 4.27.2 11.25 2.64 14.87a.58.58 0 01-.5.9z"/><path fill="#fff" d="M350.62 370.59c17.07-.24 34.86.95 51.81-.24a.43.43 0 01.45.52l-.89 4.12a.76.75-84.1 01-.72.59c-21.81.4-43.64 1.18-65.46 1.15q-.56 0-.25-.47 1.54-2.26 1.05-5.03a.53.52 82.5 01.47-.62c4.56-.38 9.91.03 13.54-.02z"/><path fill="#fff" d="M329.03 383l.62.01a1.06 1.05 17.9 00.88-.44l2.63-3.71a1.75 1.75 0 01.78-.61q.87-.34 1.81-.32 32.57.48 65.14.89a.43.42-1.5 01.42.39l1.01 12.59a.39.39 0 01-.39.42q-21.78-.02-43.51.43c-5.62.12-15.37-.24-23.07.11-23.81 1.07-47.72.53-71.58 1.47q-17.73.7-35.52.48a.56.56 0 01-.44-.9q4.87-6.3 5.57-14.3a.48.48 0 01.94-.1l1.96 6.33a.49.49 0 00.74.26c4.59-3.06 3.35-9.73 3.84-14.45a.55.55 0 01.55-.49q34.95-.1 69.85-.35c2.65-.02 8.35 2.41 9.49 5q.74 1.67.96 3.54.05.49.44.17c3.28-2.72 2.03-4.41 3.13-7.87a.33.32-47.6 01.61-.03l3.46 8.49a1.08 1.06-46.2 01.01.81l-.65 1.71a.35.35 0 00.32.47zM221.58 388.47l1.59-3.92q.43-1.08.67.06l1.61 7.65a1.74 1.67 19.3 00.42.83q.39.44.42.97a.55.55 0 01-.56.59l-6.98-.2a.48.48 0 01-.47-.46l-.38-8.26a.29.28-65.4 01.51-.19l2.31 3.05q.53.69.86-.12z"/><path fill="#acacae" d="M349.3 399.43c-12.81.23-25.45-.49-38.08.72a.71.71 0 01-.74-.51l-.19-.69a.53.52-8.1 01.5-.66q15.95-.17 31.89-.28c1.15-.01 2.97.55 4 .39q2.05-.34 5.82-.33 24.88.03 59.72-.82c.91-.02 6.79.22 6.79 1.41a.59.58-7.9 01-.43.56q-.26.08-.42 0-.55-.25-.58-.25c-22.76.31-45.53.04-68.28.46z"/><rect fill="#989a9c" x="-2.06" y="-.94" transform="rotate(3.6 -6200.445 5088.43)" width="4.12" height="1.88" rx=".27"/><path fill="#acacae" d="M359.5 404.79l-.02.97q-.01.35-.25.1l-.26-.27q-.46-.49-.6.17-.47 2.19-2.12 3.46a.75.75 0 00-.25.83c.52 1.46 2.23-.07 2.31-1.16q.06-.99.4-.06l.54 1.47q.18.5.45.04.63-1.09 1.78-.35a.68.67-46.6 00.79-.03q.78-.59 1.43-.1a1.6 1.59 63.6 00.97.33l6.51.02a.88.87 75.3 01.76.45l.19.35a.47.46 74.2 01-.38.69l-4 .26-21.25-.5q-.25-.94-.94-1.26a.31.31 0 00-.44.29q.01.72-.62 1.05l-58-.25q.45.03.52-.41a.46.46 0 00-.46-.53c-2.1.05-7.56.54-9.62-.44a.99.98 44 00-.87.01c-1.8.92-3.45.11-4.85.13q-9.58.1-19.16-.11c-6.24-.13-13.44.62-20.21.36-13.03-.52-25.58-.04-38.41-.75-.73-.05-10.48.29-10.6.48a.46.46 0 00.16.65l.5.28-34.8-.29a2.64 2.64 0 00-2.61 2.19q-3.56 20.74-.92 41.39c.39 3.09 5.79 2.17 7.9 2.2 78.11 1.14 156.32 1.62 234.43 1.13 2.11-.01 5.33.73 7.7.2q2.15-.48 2.01-2.68l-.26-4.32a.77.77 0 01.78-.82l5.81.12a1.24 1.2 69.6 01.9.43q3.77 4.47 5.59 10a.73.73 0 01-.7.96c-33.09-.46-74.98-.26-113.4-1.35-35.33-1-70.83-.66-106.17-.65-15.44 0-31.34-.52-47.02-.7a.65.64 83.5 01-.61-.49c-3.71-15.07-5.21-32.9-.77-48.04a1.08 1.05-3.9 01.61-.68c7.43-3.03 16.1-6.29 24.21-5.95q16.42.67 32.78 1.91c14.39 1.1 27.01 1.07 40.66.74 1.66-.04 3.6-.99 5.69.07a.73.72-51.2 00.77-.09q1.54-1.24 3.14-.26a.8.79-46.5 00.87-.03q.83-.58 1.65 0a1.37 1.35-29.6 00.89.24c17.33-1.53 35.27-.9 52.68-.99q.47 0 .79.05.9.13.95.13l52.45-.59zm-217.16 7.83c-1.87 3.72-1.91 10.71-1.84 14.81a.4.39-9.9 00.52.36l.85-.29a.71.71 0 00.48-.66c.06-3.72.13-12.47 2.75-15.68q.59-.72-.34-.76l-1.94-.1a.64.63-8.4 00-.63.84l.21.6a1.12 1.1-41.5 01-.06.88zm-.5 27.6l.02-5.52q.01-1.21-.49-.11-.77 1.7-.49 3.49.08.46-.01.92l-.47 2.59a.58.58 0 00.71.67l.75-.19a.42.41 72.5 00.29-.56l-.14-.36q-.18-.45-.17-.93z"/><path fill="#989a9c" d="M367.75 411.96l4-.26a.47.46 74.2 00.38-.69l-.19-.35a.88.87 75.3 00-.76-.45l-6.51-.02a1.6 1.59 63.6 01-.97-.33q-.65-.49-1.43.1a.68.67-46.6 01-.79.03q-1.15-.74-1.78.35-.27.46-.45-.04l-.54-1.47q-.34-.93-.4.06c-.08 1.09-1.79 2.62-2.31 1.16a.75.75 0 01.25-.83q1.65-1.27 2.12-3.46.14-.66.6-.17l.26.27q.24.25.25-.1l.02-.97 43.81-.3a1.59 1.5-25.8 01.91.29c1.54 1.13 6.03 4.55 5.21 6.95a.73.72 9.9 01-.7.49l-40.98-.26z"/><path fill="#fff" d="M286.5 411.29l-103-.33-.5-.28a.46.46 0 01-.16-.65c.12-.19 9.87-.53 10.6-.48 12.83.71 25.38.23 38.41.75 6.77.26 13.97-.49 20.21-.36q9.58.21 19.16.11c1.4-.02 3.05.79 4.85-.13a.99.98 44 01.87-.01c2.06.98 7.52.49 9.62.44a.46.46 0 01.46.53q-.07.44-.52.41z"/><path fill="#989a9c" d="M346.5 411.46l-2 .08q.63-.33.62-1.05a.31.31 0 01.44-.29q.69.32.94 1.26zM142.4 411.74l-.21-.6a.64.63-8.4 01.63-.84l1.94.1q.93.04.34.76c-2.62 3.21-2.69 11.96-2.75 15.68a.71.71 0 01-.48.66l-.85.29a.4.39-9.9 01-.52-.36c-.07-4.1-.03-11.09 1.84-14.81a1.12 1.1-41.5 00.06-.88z"/><path fill="#fff" d="M304 424.54c-11.45-.7-23.09.34-32.56.3q-2.04-.01-3.54.8-.47.25.07.29 18.02 1.27 36.03.78c28.65.21 57.55 1.17 86.38 1.6a.52.52 0 01.5.61q-1.18 6.77-.8 13.67a.61.61 0 01-.62.65q-15.64-.11-31.22.53c-19.47.8-38.86.43-58.31 1.18q-.5.02 0 .04 18.29.82 36.57 1.04c5.12.06 11.47.78 16.92.93q18.41.53 36.82 1.16a.61.61 0 01.58.55l.23 3.01a.54.54 0 01-.55.58l-239.62-.98a.97.96 87.7 01-.96-.89q-1.27-16.83.62-33.58a.53.53 0 01.53-.47c43.06.43 86.13.08 129.19.55q55.66.61 111.38.29a1.19 1.18-84.8 011.17 1.41l-.88 4.75a.63.62 5.3 01-.63.51c-17.17-.45-34.36.52-51.55.24q-11.38-.19-35.75.45zm-38.8 1.75l.61-.2a.36.36 0 00.02-.67l-.87-.33a.35.35 0 00-.47.38l.06.42a.5.5 0 00.65.4z"/><path fill="#989a9c" d="M304 424.54q-1.18 1.04 0 2.17-18.01.49-36.03-.78-.54-.04-.07-.29 1.5-.81 3.54-.8c9.47.04 21.11-1 32.56-.3z"/><path fill="#acacae" d="M264.55 425.89l-.06-.42a.35.35 0 01.47-.38l.87.33a.36.36 0 01-.02.67l-.61.2a.5.5 0 01-.65-.4z"/><path fill="#989a9c" d="M142.01 441.15l.14.36a.42.41 72.5 01-.29.56l-.75.19a.58.58 0 01-.71-.67l.47-2.59q.09-.46.01-.92-.28-1.79.49-3.49.5-1.1.49.11l-.02 5.52q-.01.48.17.93z"/><path fill="#acacae" d="M417.18 465.17q-1.61.13-3.27.48-.71.14-.35-.49l1.55-2.66a1.01 1 15 01.87-.5q7.41-.05 14.61 1.68a.39.39 0 01-.08.76q-6.61.18-13.33.73zM238.56 465.95c37.87.06 75.56-.13 113.63-.02q.38 0 .3.33a.63.62 6.7 01-.63.49q-16.14-.33-32.11.07c-44.58 1.1-99.59 2.17-133.26 2.54-3.52.04-3.44 2.29-3.76 5.33-.69 6.46-.58 14.98 1.72 21.23a.75.75 0 00.66.49q3.6.16 7.06.04c26.69-.92 53.45-1.61 80.14-2.21 7.82-.18 15.88-.88 23.35-.95 37.78-.33 72.55-1.99 117.17-3.03 4.92-.11 13.14-.24 17.67 1.91q.46.22-.04.23c-19.57.44-39.16.3-58.7.95q-26.49.88-52.99 1.29c-9.23.14-20.05.73-30.1.84-3.39.03-7.07.71-10.67.8-30.42.7-60.78 1.01-91.18 2.57q-4.28.22-6.46-.06a.71.71 0 01-.6-.56q-3.27-15.33-.54-30.72.21-1.17 1.24-2.35a1.08 1.07 19.9 01.82-.38c14.6-.14 22.68.35 34.03.35 8.59.01 16.72.81 23.25.82z"/><path fill="#fff" d="M397.75 476.54q-4.95-.57-9.75.67l-8.93.69q-.55.04-.14.4.39.34 1.32.33 13.11-.14 29.37 1.54a.82.81 88 01.7.66l.53 2.85a.99.99 0 01-1.02 1.16c-6.7-.33-13.78.68-19.43.66q-18.87-.08-37.72.72c-29 1.23-58 1.79-87 3.02-25.9 1.1-52.07.35-77.87 2.75a.55.55 0 01-.6-.55l.13-15.19a1.32 1.31 89.6 011.28-1.31c21.46-.67 43.06-.56 64.63-.91q42.75-.68 85.5-1.58c23.8-.49 48.03-.65 72.04-1.28a.53.52-81.7 01.51.69l-1.26 3.84a.79.78 7.9 01-.72.54l-11.57.3z"/><path fill="#989a9c" d="M397.75 476.54q-4.77 1.65-9.75.67 4.8-1.24 9.75-.67z"/><path fill="#acacae" d="M396 532.79c2.44 1.15 5.26.53 7.11.66q2.89.2 4.8.11 3.09-.13 1.14-2.54l-7.08-8.76a.49.48-40.2 01.06-.67l.68-.59q5.13 5.94 9.26 13.03a.73.73 0 01-.95 1.03q-1.52-.74-3.77-.62c-9.68.5-22.04-.12-28.91-.13-52.84-.12-105.22.34-158.59-.23-17.19-.18-35.27.28-52.96-.23-7.27-.21-14.74.53-22.14.7a1.59 1.58-9.5 01-1.55-1.1c-2.16-6.78-4.69-29.47-.03-34.95 2.15-2.52 4.62-3.57 8.04-2.44q8.49 2.79 16.94 5.5.51.16.08.48-.99.73-2.09.14a1.51 1.47 55.3 00-.91-.18q-3.01.33-6-.15c-2.64-.42-5.11.11-7.62-.33q-3.95-.68-4.44 2.91c-.68 4.89-2.43 24.46 1.72 27.35a1.75 1.72-26.3 00.91.3c3.14.09 6.5.41 9.47.41 76.83 0 153.67.2 230.49-.02 1.94 0 4.2.35 6.34.32zM407.25 504.69c-14.52.08-174.54-.42-174.67-1.48a.64.64 0 01.63-.72c23.73.2 49.02-1.1 70.79-1.29 4.99-.04 10.38-.7 14.67-.8q39.66-.94 79.33-1.62 3.63-.06 7.23-.49c5.03-.6 10.74 6.35 2.02 6.4z"/><path fill="#fff" d="M315.5 514.54q-18.5.44-37 .95-.66.02-1.77.55-.46.22.05.29c10.25 1.45 22.11.69 36.72.38q29.73-.05 59.43 1.16 6.87.28 15.01.07a1.09 1.08 5.4 011.09 1.31l-.34 1.58a.74.73-83.3 01-.73.58c-4.21-.11-8.19 1.14-12.45 1.26q-.61.02-1.1.3a.25.25 0 00.12.46l14.22.25a.95.95 0 01.86.58l.65 1.58a.45.45 0 01-.42.62c-78.96.3-157.97.16-236.93.01a.55.55 0 01-.55-.62q1.13-8.91.22-17.83a.57.57 0 01.56-.63q8.88-.12 33.79.69c61.22 1.99 132.99 1.12 199.57 2.51q1.69.03 2.76-.42a.86.85 72.3 011.17.61c.41 1.98-.98 2.57-2.7 2.59q-36.11.5-72.23 1.17z"/><path fill="#989a9c" d="M315.5 514.54q-1.48.43-2.3 1.68a.26.25 33.1 00.08.35l.22.14c-14.61.31-26.47 1.07-36.72-.38q-.51-.07-.05-.29 1.11-.53 1.77-.55 18.5-.51 37-.95zM402.71 521l-.68.59a.49.48-40.2 00-.06.67l7.08 8.76q1.95 2.41-1.14 2.54-1.91.09-4.8-.11c-1.85-.13-4.67.49-7.11-.66l.97-1.25-.18-9.19a.59.58-86.6 00-.5-.57q-.43-.06-.75-.28l-.67-2.13a.41.41 0 01.34-.53l4.63-.57a1.28 1.24 59.5 01.91.25q1.29.98 1.96 2.48z"/><path fill="#acacae" d="M395.54 521.5q.32.22.75.28a.59.58-86.6 01.5.57l.18 9.19q-1.72-5.04-1.43-10.04zM.38 590.25h590.29a.12.12 0 01.11.16l-.08.26a.12.12 0 01-.12.08H.37a.12.12 0 01-.12-.13l.01-.26a.12.12 0 01.12-.11z"/></svg>