<svg xmlns="http://www.w3.org/2000/svg" viewBox="0 0 591 591"><g stroke-width="2" fill="none"><path stroke="#100f0f" vector-effect="non-scaling-stroke" d="M590.06 0l.19.29"/><path stroke="#7d7f71" vector-effect="non-scaling-stroke" d="M590.25.29v589.46a.5.5 0 01-.5.5q-292.91.01-585.81-.22-1.85 0-3.69.01"/><path stroke="#100f0f" vector-effect="non-scaling-stroke" d="M.25 590.04l-.25-.1"/><path stroke="#7d7f71" vector-effect="non-scaling-stroke" d="M586.25 4.51a.26.26 0 00-.26-.26H4.51a.26.26 0 00-.26.26v581.48a.26.26 0 00.26.26h581.48a.26.26 0 00.26-.26V4.51"/><path stroke="#8d8e80" vector-effect="non-scaling-stroke" d="M591 587.31c-.84-.45-.25-537.06-.25-586.81a.25.24-86.1 00-.21-.25q-.17-.02-.29.04M576.44 591q-3.38-.63-6.75 0"/><path stroke="#c6c9bd" vector-effect="non-scaling-stroke" d="M32.44 591q-3.38-.63-6.75 0M24.44 591q-3.38-.63-6.75 0"/><path stroke="#8d8e80" vector-effect="non-scaling-stroke" d="M12.19 591q-5.71-.43-11.44-.26c-.51.02-.65-.23-.5-.7"/><path stroke="#faf2c8" vector-effect="non-scaling-stroke" d="M102.99 30.2q-22.2-.52-43.75.15c-16.67.52-19.38 9.91-19.75 24.49-.26 10.15.24 20.31-.14 30.45-.09 2.15.15 4.67.59 6.54q.43 1.82 1.78.52c20.17-19.46 39.81-39.42 59.73-59.14.61-.6 1.14-1.6 1.83-2.2a.46.46 0 00-.29-.81"/><path stroke="#7d7f71" vector-effect="non-scaling-stroke" d="M427.373 109.236a2.01 1.65 86.5 001.524-2.107 2.01 1.65 86.5 00-1.77-1.905 2.01 1.65 86.5 00-1.524 2.107 2.01 1.65 86.5 001.77 1.905"/><path stroke="#8d8e80" vector-effect="non-scaling-stroke" d="M407.21 136.72a4.03 4.03 0 00-4.03-4.03 4.03 4.03 0 00-4.03 4.03 4.03 4.03 0 004.03 4.03 4.03 4.03 0 004.03-4.03"/><path stroke="#7d7f71" vector-effect="non-scaling-stroke" d="M372.29 311.75l-9 26.5"/><path stroke="#8d8e80" vector-effect="non-scaling-stroke" d="M363.29 338.25q-7.84 20.62-14.76 41.55c-2.25 6.83-5.48 14.15-7.93 21.36q-6.6 19.44-15.79 39.54a.47.47 0 01-.81.08c-9.56-13.46-19.44-27.4-27.72-41.8q-4.97-8.65-6.93-13.31-10.85-25.82-22.15-51.48a1.31 1.26-48.6 01-.04-.93c2.97-9.06 6.86-14.2 13.25-21.98 2.6-3.16 3.89-6.58 5.41-10.26 3.58-8.64 4.25-20.6 11.99-26.71q9.22-7.26 21.54-13.55c10.37-5.28 8.83-9.05 2.9-17.28q-.3-.41-.74-.64-3.2-1.63-2.49-4.84 1.18-5.35.97-8.11a1.36 1.34-73.4 00-.5-.94l-5.42-4.35a.92.91 23.7 01-.32-.81l.98-7.07a1.1 1.08 26.9 00-.31-.93l-3.38-3.37a1.36 1.35 31.7 01-.33-1.38c1.12-3.46 5.02-14.05 1.17-16.42-7.45-4.58-18.45-3.89-22.33-12.76-1.21-2.77-1.2-6.56-1.54-9.81a1.69 1.65-69.1 00-.38-.88c-2.05-2.4-10.82-9.94-11.27-12.08-1.04-4.96-4.82-13.6-10.88-14.11q-9.59-.82-16.37-7.38a1.81 1.74 72.6 00-.84-.46q-4.47-1.01-5.83-1.06c-24.79-.87-52.61 3.2-71.92 20.8-6.37 5.8-11.43 7.54-14.28 16.69q-.15.47-.47.09c-7.13-8.35-20.79-10.87-29.29-2.67q-16.7 16.08-15.61 38.91c.49 10.2 3.32 17.43 11.41 23.36q11.47 8.4 23.91.97a.58.58 0 01.88.58q-.76 5.54 3.79 8.41a1.81 1.8-85.8 01.67.78c4.2 9.16 8.09 15.43 15.06 19.66q4.33 2.63 6.12 3.96a1.3 1.27-77.2 01.49.8q1.17 6.4 7.51 8.37c8.83 2.75 14.9 4.85 23.46.26a.42.41-19 01.6.29c1.2 6.71 2.26 14.31-.32 20.68-2.38 5.9-9.76 11.75-14.7 16.2q-5.57 4.99-8.64 8.91c-12.31 15.72-22.08 35.32-24.54 55.29-2.25 18.22-1.02 37.94 2.3 56.19 6.16 33.8 18.98 68.06 37.36 96.16a.92.89 72 00.77.41q20.26-.48 26.75.32 28.79 3.55 44.06 5.18 10.98 1.18 21.98-1.13c4.03-.85 7.46-3.31 10.91-5.37a1.87 1.87 0 00.85-2.07q-1.99-7.83-2.45-15.81c-.27-4.6-2.3-7.86-2.04-12.83a.31.31 0 01.46-.26c7 3.93 14.31 8.3 21.23 11.21 9.22 3.89 20.63 8.08 30.75 8.24 6.58.1 10.04-6.63 12.35-11.58 4.74-10.12 9.53-20.9 12.08-32.26 5.89-26.26 10.71-53.08 17.59-79.06q3.92-14.82 9.35-43.68 1.04-5.55 4.58-14.37c2.3-5.75 6.87-9.01 12.31-11.44 11.62-5.18 23.77-8.71 34.75-14.29q23.55-11.98 46.87-24.42c3.28-1.75 5.8-4.11 8.37-6.64a.48.48 0 00-.24-.81c-3.07-.63-5.91-2.27-8.48-2.89-11.31-2.75-25 3.88-37.36 7.46a1.04 1.01 53.8 01-.88-.15q-6.89-4.96-15.77-3.53-9.8 1.57-23.4 2.77c-5.59.49-12.31.01-18.48.52-10.99.92-21.39 5.99-26.8 16.04q-1.17 2.16-4.05 11.42"/><path stroke="#100f0f" vector-effect="non-scaling-stroke" d="M363.29 338.25c1.41-.8 2.53-1.72 3.09-3.35q3.5-10.06 6.93-20.12.64-1.87-1.02-3.03"/><path stroke="#8d8e80" vector-effect="non-scaling-stroke" d="M451.85 166.49a6.26 6.26 0 00-6.26-6.26 6.26 6.26 0 00-6.26 6.26 6.26 6.26 0 006.26 6.26 6.26 6.26 0 006.26-6.26M420.43 169.54a2.91 2.91 0 00-2.91-2.91 2.91 2.91 0 00-2.91 2.91 2.91 2.91 0 002.91 2.91 2.91 2.91 0 002.91-2.91M425.87 182.89c-17.47 3.19-28.48 19.83-25.2 37.41a.82.81 65 01-.29.8c-4.59 3.78-10.68 8.02-14.01 12.84-1.94 2.82-7.04 10.39-1.41 11.86 9.12 2.39 20.23-1.59 29.62-5.35a1 .98 49.2 01.89.07c20.76 12.5 46.33-2.47 47.37-26.21a1.53 1.51 73.9 01.65-1.19c5.93-4.2 20.98-17.83 19.94-25.67a.79.78-86.1 00-.56-.65c-6.18-1.79-21.91.62-27.97 4.39a1.17 1.15 49.3 01-1.37-.11c-7.75-6.66-17.51-10.05-27.66-8.19M369.348 201.267a7.01 6.65 88.3 006.44-7.204 7.01 6.65 88.3 00-6.856-6.81 7.01 6.65 88.3 00-6.44 7.204 7.01 6.65 88.3 006.856 6.81"/><path stroke="#7d7f71" vector-effect="non-scaling-stroke" d="M492.809 219.458a1.22 1.22 0 00-1.246-1.194l-.58.012a1.22 1.22 0 00-1.194 1.246l.022 1.06a1.22 1.22 0 001.246 1.194l.58-.013a1.22 1.22 0 001.194-1.245l-.022-1.06"/><path stroke="#8d8e80" vector-effect="non-scaling-stroke" d="M477.27 255.54a8.21 8.21 0 00-8.21-8.21 8.21 8.21 0 00-8.21 8.21 8.21 8.21 0 008.21 8.21 8.21 8.21 0 008.21-8.21M213 146.71q10.74-.94 21.5-.17"/><path stroke="#59595a" vector-effect="non-scaling-stroke" d="M234.5 146.54l4.49 1.38q1.23.38-.01.71-.86.23-1.73.11a.36.35 83.6 00-.38.48q.19.48.66.55 17.27 2.45 25.56 17.58.57 1.03.37-.13l-.48-2.72q-.19-1.05.64-.38 3.88 3.15 4.66 8a.81.79 67.9 01-.33.8c-4.85 3.42-7.97 11.4-10.28 16.09-2.31 4.69-2.99 9.83-4.11 15.02a.75.75 0 00.3.78c6.26 4.49 13.26 9.17 18.37 14.18q12.93 12.68 19.28 29.97c1.11 3.01 12.42 6.17 15.29 7.19a1.62 1.61-55.2 01.49 2.76q-3.82 3.21-6.91 7.19-.77.99.32.37 8.73-4.97 17.62-9.64 1.7-.9 3.85-2.92a1.18 1.16-21.7 00.38-.86c.04-4.13-3.09-7.6-6.76-9.8"/><path stroke="#8d8e80" vector-effect="non-scaling-stroke" d="M315.79 243.25q-1.34-4.86.46-9.48.18-.46-.3-.37l-3.7.64"/><path stroke="#59595a" vector-effect="non-scaling-stroke" d="M312.25 234.04q-5.1 1.78-10.57 1.69-1-.02-.29-.72l7.09-6.96q.4-.39.56-.92 1.48-4.65 1.64-9.54a.8.8 0 00-.5-.77q-2.44-1.01-3.51-3.45a1.51 1.51 0 01-.08-1.01l3.18-12.09a.45.45 0 00-.7-.47l-9.32 7.06a.87.86 37.5 01-.87.11c-9.97-4.05-17.17-10.68-15.91-22.51a.33.33 0 01.6-.15q2.16 3.23 5.9 4.61 1.1.41.26-.41-5.95-5.82-5.7-14.22a1.46 1.44 27.2 00-.31-.95q-5.09-6.58-8.01-8.3c-2.17-1.27-2.95-1.47-3.49-4.2q-1.1-5.58-4.23-10.41a1.43 1.42 82.8 00-.74-.58q-5.3-1.82-10.79-3.01c-4.73-1.03-7.68-5.82-11.64-6.15q-13.17-1.07-26.23.39c-6.53.73-13.43 2.74-19.99 4.52-10.51 2.85-19.01 8.45-26.82 15.63-1.94 1.78-6.95 4.76-7.8 6.27q-3.67 6.57-6.28 13.27a.39.39 0 00.69.35c2.64-4.28 4.93-8.3 8.7-11.71 6.95-6.3 15.36-14.46 24.34-17.49q11.62-3.92 21.57-5.21"/><path stroke="#c6c9bd" vector-effect="non-scaling-stroke" d="M312.25 234.04l1.38 2.15a1.53 1.5-60.6 01.25.93q-.2 3.43.81 6.7a.44.44 0 00.62.25q.42-.22.48-.82M234.5 146.54q.45.03.52-.37a.66.66 0 00-.57-.77c-2.36-.28-21.71-1.77-21.45 1.31"/><path stroke="#59595a" vector-effect="non-scaling-stroke" d="M253.08 165.8c-.56-6-7.38-11.31-13.21-7.62q-.62.39.09.54 7.53 1.58 12.47 7.36a.37.37 0 00.65-.28M248.87 174.15c3.37-8.8-8.87-11.05-14.68-9.7q-2.29.53.01 1.02 8.59 1.85 14.08 8.77.37.47.59-.09M146.01 228.09c-15.09 3.63-23.44-7.85-23.73-21.23-.31-14.48 10.36-41.57 29.89-30.35a.27.27 0 00.34-.4c-4.28-5.12-9.48-6.14-15.76-5.69-11.56.82-18.7 19.62-20.66 29.07-2.92 14.02 1.8 33.86 19.62 33.84 4.28 0 7.38-1.73 10.8-4.14a.62.61 20.6 00-.5-1.1M155.08 240.9c1.74 6.75 4.77 10.21 8.49 14.89 2.81 3.53 7.33 5.77 11.37 7.61a1.24 1.23.8 01.65.66c1.52 3.56 3.21 8.11 7.45 9.26 8.03 2.18 14.07 3.31 21.55-1.09q.44-.26-.07-.32-5.29-.61-10.52-1.66c-1.99-.4-3.57-2.26-5.72-2.14-2.53.15-3.87-.46-5.88-1.63a1.43 1.41-84.4 01-.64-.79l-2.3-6.65a1.06 1.05-1.6 00-.71-.67c-8.93-2.53-15.38-9.82-17.49-18.23a1.52 1.45-78.4 00-.5-.8c-3.24-2.63-5.69-4.63-6.93-8.79a.89.89 0 00-1.56-.27q-2.44 3.31-1.3 7.58a1.05 1.04-84 00.52.65l3.02 1.65a1.14 1.13-82.9 01.57.74M183.207 238.22a.96.71-12.6 00-1.092-.483.96.71-12.6 00-.782.902.96.71-12.6 001.092.484.96.71-12.6 00.782-.902M255.31 278.96c-1.77 14.13-1.29 27.48-1.46 41.56a1.08 1.07-69.8 00.39.85l9.35 7.83a.23.22 31.8 00.35-.08c3.19-7 5.77-12.65 11.2-18.24 2.25-2.32 3.09-5.24 5.01-7.69a1.63 1.63 0 00-.18-2.2l-24.17-22.21q-.42-.39-.49.18"/><path stroke="#8d8e80" vector-effect="non-scaling-stroke" d="M499.85 282.62a.33.33 0 00.12-.65c-6.12-2.07-16.19-.21-22.19 2.09q-7.78 2.99-15.26 6.72a.06.06 0 00-.01.1l.19.2a.29.29 0 00.3.07c12.11-3.81 23.61-8.96 36.85-8.53"/><path stroke="#59595a" vector-effect="non-scaling-stroke" d="M450.44 287.81c.97.16 6.9 1.41 7.26.6a.81.8-59.8 00-.25-.96c-4.94-3.78-8.77-3.58-15.24-2.36q-10.5 1.98-21.14 2.99c-6.36.61-14.24-.33-21.33.91q-15.53 2.71-20.96 17.51-.18.48.14.09 2.48-3.01 5.29-5.78c6.24-6.14 19.29-8.13 27.6-8.38 11.61-.34 21.88-1.41 33.01-4.03q3.8-.89 5.62-.59"/><path stroke="#8d8e80" vector-effect="non-scaling-stroke" d="M284.54 385.75q-3.96-10.45-9.39-20.43"/><path stroke="#59595a" vector-effect="non-scaling-stroke" d="M275.15 365.32q-5.55-14.27-10.33-23.63c-10.78-21.1-41.16-15.52-55.52-2.18q-1.34 1.25.49 1.32c3.32.14 6.58.19 9.84 1.12 33.04 9.44 49.69 40.67 67.28 67 10.22 15.3 20.59 27.36 34.39 38.58a.64.63 13.2 001.02-.63q-.54-2.43-2.25-4.72-19.99-26.81-35.53-56.43"/><path stroke="#c6c9bd" vector-effect="non-scaling-stroke" d="M275.15 365.32q3.01 10.61 8.01 20.44a.72.72 0 00.77.37q.31-.07.61-.38"/><path stroke="#8d8e80" vector-effect="non-scaling-stroke" d="M160.04 396.75q-.17 9.41 1 18.75"/><path stroke="#59595a" vector-effect="non-scaling-stroke" d="M161.04 415.5q1.88 26.64 10.17 52"/><path stroke="#8d8e80" vector-effect="non-scaling-stroke" d="M171.21 467.5l4.33 11.25"/><path stroke="#59595a" vector-effect="non-scaling-stroke" d="M175.54 478.75c3.31 8.83 6.39 17.88 10.6 26.05q5.52 10.69 11.82 21a2.07 2.06-15.1 001.73.99l6.1.12a.58.57 74 00.49-.89c-7.55-11.54-13.39-23.68-19.5-36.05q-3.78-7.66-6.23-15.19c-5.33-16.44-10.29-33.01-12.71-50.22-3.51-24.95-4.87-44.99 0-69.35q.1-.49-.1-.03-8.37 19.91-7.7 41.57"/><path stroke="#c6c9bd" vector-effect="non-scaling-stroke" d="M175.54 478.75q.39.03.66-.09a.58.58 0 00.31-.7l-3.36-10.33a.89.88 73.4 00-1.08-.59q-.4.11-.86.46M161.04 415.5c.91.06 1.43-.72 1.29-1.58q-1.28-8.03-1.11-16.14a.78.77 12.7 00-.46-.72l-.72-.31"/><path stroke="#59595a" vector-effect="non-scaling-stroke" d="M210.19 428.44c-.91.14-.93 1.16-.22 1.61a.44.44 0 00.67-.33l.13-1.13a.3.3 0 00-.31-.33q-.16 0-.27.18M242.69 448.1c20.51 23.54 47.27 42.66 75.01 56.72 7.31 3.71 16.53 6.62 25.11 8.53 12.1 2.7 14.2-5.42 18.29-14.43 4.11-9.08 6.57-19.32 9.3-28.9a.24.24 0 00-.44-.17c-4.47 8.7-7.42 17.77-12.28 26.06-4.43 7.56-6.76 12.65-15.85 11.01-13.51-2.42-24.45-7.15-37.01-14.67q-27.76-16.62-52.61-37.36c-2.06-1.72-5.79-5.31-8.93-7.45a.45.45 0 00-.59.66M273.03 185.03c-4.92 2.39-10.38 7.35-12.35 12.79a.38.37-76.8 00.31.51l15.95 1.82a.37.36 86.5 00.39-.45q-1.55-6.23-4.59-11.93-.58-1.08.44-2.55.27-.39-.15-.19M437.56 193.48q2.83 5.45 8.99 5.12a.96.94 68.7 01.8.36l1.8 2.37a.32.31 64.4 01-.17.5c-3.06.73-1.26 5.25 2.26 4.38a.6.59-13.7 01.72.43l1.42 5.69a.55.55 0 00.88.3l2.83-2.28a1.15 1.14-22.5 00.42-1c-.79-9.14-7.75-16.8-15.77-20.23-13.07-5.59-29.71.95-35.02 14.38-3.42 8.68-2 19.61 4.23 26.78q1.55 1.79 2.97 3.71a.68.67 62.6 00.75.24l4.48-1.41a.76.76 0 00.15-1.39c-3.91-2.18-5.64-5.14-7.12-9.71-1-3.1-2.59-5.94-2.44-9.16.62-13.11 14.26-23.02 27.09-19.66a1.15 1.12-5.7 01.73.58"/><path stroke="#8d8e80" vector-effect="non-scaling-stroke" d="M462.74 206.57c3.48-2.64 8.84-6.53 8.57-11.16a.61.61 0 00-.6-.58q-6.47-.08-12.76 1.59a.35.35 0 00-.2.53q2.92 4.33 4.23 9.36a.49.48 63.8 00.76.26"/><path stroke="#59595a" vector-effect="non-scaling-stroke" d="M443.793 207.397a3.27 2.29 52 00-.209-3.987 3.27 2.29 52 00-3.817-1.167 3.27 2.29 52 00.209 3.987 3.27 2.29 52 003.817 1.167M450.51 224.01c-3.52 7.62-13.82 12.05-21.92 11.08-1.97-.23-4.92 1.75-6.54 2.82a.37.37 0 00.09.66c15.92 5.03 33.11-3.6 35.43-20.8q.07-.5-.38-.25c-2.99 1.69-5.13 3.12-6.68 6.49"/><path stroke="#8d8e80" vector-effect="non-scaling-stroke" d="M402.05 226.57c-2.23 1.95-7.5 6.37-8.48 9.07a2.06 2.05 10 001.93 2.75q6.87.03 13.56-1.79a.34.34 0 00.16-.56q-3.85-4.05-6.05-9.21a.71.71 0 00-1.12-.26"/></g><path d="M0 0h590.06l.19.29v589.46a.5.5 0 01-.5.5q-292.91.01-585.81-.22-1.85 0-3.69.01l-.25-.1V0zm586.25 4.51a.26.26 0 00-.26-.26H4.51a.26.26 0 00-.26.26v581.48a.26.26 0 00.26.26h581.48a.26.26 0 00.26-.26V4.51z"/><path fill="#1f1e1d" d="M590.06 0h.94v587.31c-.84-.45-.25-537.06-.25-586.81a.25.24-86.1 00-.21-.25q-.17-.02-.29.04l-.19-.29z"/><path fill="#fafde2" d="M590.25.29q.12-.06.29-.04a.25.24-86.1 01.21.25c0 49.75-.59 586.36.25 586.81V591h-14.56q-3.38-.63-6.75 0H32.44q-3.38-.63-6.75 0h-1.25q-3.38-.63-6.75 0h-5.5q-5.71-.43-11.44-.26c-.51.02-.65-.23-.5-.7q1.84-.01 3.69-.01 292.9.23 585.81.22a.5.5 0 00.5-.5V.29z"/><path fill="#fafde2" d="M586.25 585.99a.26.26 0 01-.26.26H4.51a.26.26 0 01-.26-.26V4.51a.26.26 0 01.26-.26h581.48a.26.26 0 01.26.26v581.48zM102.99 30.2q-22.2-.52-43.75.15c-16.67.52-19.38 9.91-19.75 24.49-.26 10.15.24 20.31-.14 30.45-.09 2.15.15 4.67.59 6.54q.43 1.82 1.78.52c20.17-19.46 39.81-39.42 59.73-59.14.61-.6 1.14-1.6 1.83-2.2a.46.46 0 00-.29-.81zm324.383 79.036a2.01 1.65 86.5 001.524-2.107 2.01 1.65 86.5 00-1.77-1.905 2.01 1.65 86.5 00-1.524 2.107 2.01 1.65 86.5 001.77 1.905zM407.21 136.72a4.03 4.03 0 00-4.03-4.03 4.03 4.03 0 00-4.03 4.03 4.03 4.03 0 004.03 4.03 4.03 4.03 0 004.03-4.03zm-34.92 175.03l-9 26.5q-7.84 20.62-14.76 41.55c-2.25 6.83-5.48 14.15-7.93 21.36q-6.6 19.44-15.79 39.54a.47.47 0 01-.81.08c-9.56-13.46-19.44-27.4-27.72-41.8q-4.97-8.65-6.93-13.31-10.85-25.82-22.15-51.48a1.31 1.26-48.6 01-.04-.93c2.97-9.06 6.86-14.2 13.25-21.98 2.6-3.16 3.89-6.58 5.41-10.26 3.58-8.64 4.25-20.6 11.99-26.71q9.22-7.26 21.54-13.55c10.37-5.28 8.83-9.05 2.9-17.28q-.3-.41-.74-.64-3.2-1.63-2.49-4.84 1.18-5.35.97-8.11a1.36 1.34-73.4 00-.5-.94l-5.42-4.35a.92.91 23.7 01-.32-.81l.98-7.07a1.1 1.08 26.9 00-.31-.93l-3.38-3.37a1.36 1.35 31.7 01-.33-1.38c1.12-3.46 5.02-14.05 1.17-16.42-7.45-4.58-18.45-3.89-22.33-12.76-1.21-2.77-1.2-6.56-1.54-9.81a1.69 1.65-69.1 00-.38-.88c-2.05-2.4-10.82-9.94-11.27-12.08-1.04-4.96-4.82-13.6-10.88-14.11q-9.59-.82-16.37-7.38a1.81 1.74 72.6 00-.84-.46q-4.47-1.01-5.83-1.06c-24.79-.87-52.61 3.2-71.92 20.8-6.37 5.8-11.43 7.54-14.28 16.69q-.15.47-.47.09c-7.13-8.35-20.79-10.87-29.29-2.67q-16.7 16.08-15.61 38.91c.49 10.2 3.32 17.43 11.41 23.36q11.47 8.4 23.91.97a.58.58 0 01.88.58q-.76 5.54 3.79 8.41a1.81 1.8-85.8 01.67.78c4.2 9.16 8.09 15.43 15.06 19.66q4.33 2.63 6.12 3.96a1.3 1.27-77.2 01.49.8q1.17 6.4 7.51 8.37c8.83 2.75 14.9 4.85 23.46.26a.42.41-19 01.6.29c1.2 6.71 2.26 14.31-.32 20.68-2.38 5.9-9.76 11.75-14.7 16.2q-5.57 4.99-8.64 8.91c-12.31 15.72-22.08 35.32-24.54 55.29-2.25 18.22-1.02 37.94 2.3 56.19 6.16 33.8 18.98 68.06 37.36 96.16a.92.89 72 00.77.41q20.26-.48 26.75.32 28.79 3.55 44.06 5.18 10.98 1.18 21.98-1.13c4.03-.85 7.46-3.31 10.91-5.37a1.87 1.87 0 00.85-2.07q-1.99-7.83-2.45-15.81c-.27-4.6-2.3-7.86-2.04-12.83a.31.31 0 01.46-.26c7 3.93 14.31 8.3 21.23 11.21 9.22 3.89 20.63 8.08 30.75 8.24 6.58.1 10.04-6.63 12.35-11.58 4.74-10.12 9.53-20.9 12.08-32.26 5.89-26.26 10.71-53.08 17.59-79.06q3.92-14.82 9.35-43.68 1.04-5.55 4.58-14.37c2.3-5.75 6.87-9.01 12.31-11.44 11.62-5.18 23.77-8.71 34.75-14.29q23.55-11.98 46.87-24.42c3.28-1.75 5.8-4.11 8.37-6.64a.48.48 0 00-.24-.81c-3.07-.63-5.91-2.27-8.48-2.89-11.31-2.75-25 3.88-37.36 7.46a1.04 1.01 53.8 01-.88-.15q-6.89-4.96-15.77-3.53-9.8 1.57-23.4 2.77c-5.59.49-12.31.01-18.48.52-10.99.92-21.39 5.99-26.8 16.04q-1.17 2.16-4.05 11.42zm79.56-145.26a6.26 6.26 0 00-6.26-6.26 6.26 6.26 0 00-6.26 6.26 6.26 6.26 0 006.26 6.26 6.26 6.26 0 006.26-6.26zm-31.42 3.05a2.91 2.91 0 00-2.91-2.91 2.91 2.91 0 00-2.91 2.91 2.91 2.91 0 002.91 2.91 2.91 2.91 0 002.91-2.91zm5.44 13.35c-17.47 3.19-28.48 19.83-25.2 37.41a.82.81 65 01-.29.8c-4.59 3.78-10.68 8.02-14.01 12.84-1.94 2.82-7.04 10.39-1.41 11.86 9.12 2.39 20.23-1.59 29.62-5.35a1 .98 49.2 01.89.07c20.76 12.5 46.33-2.47 47.37-26.21a1.53 1.51 73.9 01.65-1.19c5.93-4.2 20.98-17.83 19.94-25.67a.79.78-86.1 00-.56-.65c-6.18-1.79-21.91.62-27.97 4.39a1.17 1.15 49.3 01-1.37-.11c-7.75-6.66-17.51-10.05-27.66-8.19zm-56.522 18.377a7.01 6.65 88.3 006.44-7.204 7.01 6.65 88.3 00-6.856-6.81 7.01 6.65 88.3 00-6.44 7.204 7.01 6.65 88.3 006.856 6.81zm123.46 18.191a1.22 1.22 0 00-1.245-1.194l-.58.012a1.22 1.22 0 00-1.194 1.246l.022 1.06a1.22 1.22 0 001.246 1.194l.58-.013a1.22 1.22 0 001.194-1.245l-.022-1.06zM477.27 255.54a8.21 8.21 0 00-8.21-8.21 8.21 8.21 0 00-8.21 8.21 8.21 8.21 0 008.21 8.21 8.21 8.21 0 008.21-8.21z"/><path fill="#f9e6ae" d="M102.99 30.2a.46.46 0 01.29.81c-.69.6-1.22 1.6-1.83 2.2-19.92 19.72-39.56 39.68-59.73 59.14q-1.35 1.3-1.78-.52c-.44-1.87-.68-4.39-.59-6.54.38-10.14-.12-20.3.14-30.45.37-14.58 3.08-23.97 19.75-24.49q21.55-.67 43.75-.15z"/><ellipse transform="rotate(86.5 156.63 280.705)" rx="2.01" ry="1.65"/><circle fill="#1f1e1d" cx="403.18" cy="136.72" r="4.03"/><path fill="#1f1e1d" d="M363.29 338.25c1.41-.8 2.53-1.72 3.09-3.35q3.5-10.06 6.93-20.12.64-1.87-1.02-3.03 2.88-9.26 4.05-11.42c5.41-10.05 15.81-15.12 26.8-16.04 6.17-.51 12.89-.03 18.48-.52q13.6-1.2 23.4-2.77 8.88-1.43 15.77 3.53a1.04 1.01 53.8 00.88.15c12.36-3.58 26.05-10.21 37.36-7.46 2.57.62 5.41 2.26 8.48 2.89a.48.48 0 01.24.81c-2.57 2.53-5.09 4.89-8.37 6.64q-23.32 12.44-46.87 24.42c-10.98 5.58-23.13 9.11-34.75 14.29-5.44 2.43-10.01 5.69-12.31 11.44q-3.54 8.82-4.58 14.37-5.43 28.86-9.35 43.68c-6.88 25.98-11.7 52.8-17.59 79.06-2.55 11.36-7.34 22.14-12.08 32.26-2.31 4.95-5.77 11.68-12.35 11.58-10.12-.16-21.53-4.35-30.75-8.24-6.92-2.91-14.23-7.28-21.23-11.21a.31.31 0 00-.46.26c-.26 4.97 1.77 8.23 2.04 12.83q.46 7.98 2.45 15.81a1.87 1.87 0 01-.85 2.07c-3.45 2.06-6.88 4.52-10.91 5.37q-11 2.31-21.98 1.13-15.27-1.63-44.06-5.18-6.49-.8-26.75-.32a.92.89 72 01-.77-.41c-18.38-28.1-31.2-62.36-37.36-96.16-3.32-18.25-4.55-37.97-2.3-56.19 2.46-19.97 12.23-39.57 24.54-55.29q3.07-3.92 8.64-8.91c4.94-4.45 12.32-10.3 14.7-16.2 2.58-6.37 1.52-13.97.32-20.68a.42.41-19 00-.6-.29c-8.56 4.59-14.63 2.49-23.46-.26q-6.34-1.97-7.51-8.37a1.3 1.27-77.2 00-.49-.8q-1.79-1.33-6.12-3.96c-6.97-4.23-10.86-10.5-15.06-19.66a1.81 1.8-85.8 00-.67-.78q-4.55-2.87-3.79-8.41a.58.58 0 00-.88-.58q-12.44 7.43-23.91-.97c-8.09-5.93-10.92-13.16-11.41-23.36q-1.09-22.83 15.61-38.91c8.5-8.2 22.16-5.68 29.29 2.67q.32.38.47-.09c2.85-9.15 7.91-10.89 14.28-16.69 19.31-17.6 47.13-21.67 71.92-20.8q1.36.05 5.83 1.06a1.81 1.74 72.6 01.84.46q6.78 6.56 16.37 7.38c6.06.51 9.84 9.15 10.88 14.11.45 2.14 9.22 9.68 11.27 12.08a1.69 1.65-69.1 01.38.88c.34 3.25.33 7.04 1.54 9.81 3.88 8.87 14.88 8.18 22.33 12.76 3.85 2.37-.05 12.96-1.17 16.42a1.36 1.35 31.7 00.33 1.38l3.38 3.37a1.1 1.08 26.9 01.31.93l-.98 7.07a.92.91 23.7 00.32.81l5.42 4.35a1.36 1.34-73.4 01.5.94q.21 2.76-.97 8.11-.71 3.21 2.49 4.84.44.23.74.64c5.93 8.23 7.47 12-2.9 17.28q-12.32 6.29-21.54 13.55c-7.74 6.11-8.41 18.07-11.99 26.71-1.52 3.68-2.81 7.1-5.41 10.26-6.39 7.78-10.28 12.92-13.25 21.98a1.31 1.26-48.6 00.04.93q11.3 25.66 22.15 51.48 1.96 4.66 6.93 13.31c8.28 14.4 18.16 28.34 27.72 41.8a.47.47 0 00.81-.08q9.19-20.1 15.79-39.54c2.45-7.21 5.68-14.53 7.93-21.36q6.92-20.93 14.76-41.55zM213 146.71q10.74-.94 21.5-.17l4.49 1.38q1.23.38-.01.71-.86.23-1.73.11a.36.35 83.6 00-.38.48q.19.48.66.55 17.27 2.45 25.56 17.58.57 1.03.37-.13l-.48-2.72q-.19-1.05.64-.38 3.88 3.15 4.66 8a.81.79 67.9 01-.33.8c-4.85 3.42-7.97 11.4-10.28 16.09-2.31 4.69-2.99 9.83-4.11 15.02a.75.75 0 00.3.78c6.26 4.49 13.26 9.17 18.37 14.18q12.93 12.68 19.28 29.97c1.11 3.01 12.42 6.17 15.29 7.19a1.62 1.61-55.2 01.49 2.76q-3.82 3.21-6.91 7.19-.77.99.32.37 8.73-4.97 17.62-9.64 1.7-.9 3.85-2.92a1.18 1.16-21.7 00.38-.86c.04-4.13-3.09-7.6-6.76-9.8q-1.34-4.86.46-9.48.18-.46-.3-.37l-3.7.64q-5.1 1.78-10.57 1.69-1-.02-.29-.72l7.09-6.96q.4-.39.56-.92 1.48-4.65 1.64-9.54a.8.8 0 00-.5-.77q-2.44-1.01-3.51-3.45a1.51 1.51 0 01-.08-1.01l3.18-12.09a.45.45 0 00-.7-.47l-9.32 7.06a.87.86 37.5 01-.87.11c-9.97-4.05-17.17-10.68-15.91-22.51a.33.33 0 01.6-.15q2.16 3.23 5.9 4.61 1.1.41.26-.41-5.95-5.82-5.7-14.22a1.46 1.44 27.2 00-.31-.95q-5.09-6.58-8.01-8.3c-2.17-1.27-2.95-1.47-3.49-4.2q-1.1-5.58-4.23-10.41a1.43 1.42 82.8 00-.74-.58q-5.3-1.82-10.79-3.01c-4.73-1.03-7.68-5.82-11.64-6.15q-13.17-1.07-26.23.39c-6.53.73-13.43 2.74-19.99 4.52-10.51 2.85-19.01 8.45-26.82 15.63-1.94 1.78-6.95 4.76-7.8 6.27q-3.67 6.57-6.28 13.27a.39.39 0 00.69.35c2.64-4.28 4.93-8.3 8.7-11.71 6.95-6.3 15.36-14.46 24.34-17.49q11.62-3.92 21.57-5.21zm40.08 19.09c-.56-6-7.38-11.31-13.21-7.62q-.62.39.09.54 7.53 1.58 12.47 7.36a.37.37 0 00.65-.28zm-4.21 8.35c3.37-8.8-8.87-11.05-14.68-9.7q-2.29.53.01 1.02 8.59 1.85 14.08 8.77.37.47.59-.09zm-102.86 53.94c-15.09 3.63-23.44-7.85-23.73-21.23-.31-14.48 10.36-41.57 29.89-30.35a.27.27 0 00.34-.4c-4.28-5.12-9.48-6.14-15.76-5.69-11.56.82-18.7 19.62-20.66 29.07-2.92 14.02 1.8 33.86 19.62 33.84 4.28 0 7.38-1.73 10.8-4.14a.62.61 20.6 00-.5-1.1zm9.07 12.81c1.74 6.75 4.77 10.21 8.49 14.89 2.81 3.53 7.33 5.77 11.37 7.61a1.24 1.23.8 01.65.66c1.52 3.56 3.21 8.11 7.45 9.26 8.03 2.18 14.07 3.31 21.55-1.09q.44-.26-.07-.32-5.29-.61-10.52-1.66c-1.99-.4-3.57-2.26-5.72-2.14-2.53.15-3.87-.46-5.88-1.63a1.43 1.41-84.4 01-.64-.79l-2.3-6.65a1.06 1.05-1.6 00-.71-.67c-8.93-2.53-15.38-9.82-17.49-18.23a1.52 1.45-78.4 00-.5-.8c-3.24-2.63-5.69-4.63-6.93-8.79a.89.89 0 00-1.56-.27q-2.44 3.31-1.3 7.58a1.05 1.04-84 00.52.65l3.02 1.65a1.14 1.13-82.9 01.57.74zm28.127-2.68a.96.71-12.6 00-1.092-.483.96.71-12.6 00-.782.902.96.71-12.6 001.092.484.96.71-12.6 00.782-.902zm72.103 40.74c-1.77 14.13-1.29 27.48-1.46 41.56a1.08 1.07-69.8 00.39.85l9.35 7.83a.23.22 31.8 00.35-.08c3.19-7 5.77-12.65 11.2-18.24 2.25-2.32 3.09-5.24 5.01-7.69a1.63 1.63 0 00-.18-2.2l-24.17-22.21q-.42-.39-.49.18zm244.54 3.66a.33.33 0 00.12-.65c-6.12-2.07-16.19-.21-22.19 2.09q-7.78 2.99-15.26 6.72a.06.06 0 00-.01.1l.19.2a.29.29 0 00.3.07c12.11-3.81 23.61-8.96 36.85-8.53zm-49.41 5.19c.97.16 6.9 1.41 7.26.6a.81.8-59.8 00-.25-.96c-4.94-3.78-8.77-3.58-15.24-2.36q-10.5 1.98-21.14 2.99c-6.36.61-14.24-.33-21.33.91q-15.53 2.71-20.96 17.51-.18.48.14.09 2.48-3.01 5.29-5.78c6.24-6.14 19.29-8.13 27.6-8.38 11.61-.34 21.88-1.41 33.01-4.03q3.8-.89 5.62-.59zm-165.9 97.94q-3.96-10.45-9.39-20.43-5.55-14.27-10.33-23.63c-10.78-21.1-41.16-15.52-55.52-2.18q-1.34 1.25.49 1.32c3.32.14 6.58.19 9.84 1.12 33.04 9.44 49.69 40.67 67.28 67 10.22 15.3 20.59 27.36 34.39 38.58a.64.63 13.2 001.02-.63q-.54-2.43-2.25-4.72-19.99-26.81-35.53-56.43zm-124.5 11q-.17 9.41 1 18.75 1.88 26.64 10.17 52l4.33 11.25c3.31 8.83 6.39 17.88 10.6 26.05q5.52 10.69 11.82 21a2.07 2.06-15.1 001.73.99l6.1.12a.58.57 74 00.49-.89c-7.55-11.54-13.39-23.68-19.5-36.05q-3.78-7.66-6.23-15.19c-5.33-16.44-10.29-33.01-12.71-50.22-3.51-24.95-4.87-44.99 0-69.35q.1-.49-.1-.03-8.37 19.91-7.7 41.57zm50.15 31.69c-.91.14-.93 1.16-.22 1.61a.44.44 0 00.67-.33l.13-1.13a.3.3 0 00-.31-.33q-.16 0-.27.18zm32.5 19.66c20.51 23.54 47.27 42.66 75.01 56.72 7.31 3.71 16.53 6.62 25.11 8.53 12.1 2.7 14.2-5.42 18.29-14.43 4.11-9.08 6.57-19.32 9.3-28.9a.24.24 0 00-.44-.17c-4.47 8.7-7.42 17.77-12.28 26.06-4.43 7.56-6.76 12.65-15.85 11.01-13.51-2.42-24.45-7.15-37.01-14.67q-27.76-16.62-52.61-37.36c-2.06-1.72-5.79-5.31-8.93-7.45a.45.45 0 00-.59.66z"/><path fill="#929497" d="M312.25 234.04l1.38 2.15a1.53 1.5-60.6 01.25.93q-.2 3.43.81 6.7a.44.44 0 00.62.25q.42-.22.48-.82c3.67 2.2 6.8 5.67 6.76 9.8a1.18 1.16-21.7 01-.38.86q-2.15 2.02-3.85 2.92-8.89 4.67-17.62 9.64-1.09.62-.32-.37 3.09-3.98 6.91-7.19a1.62 1.61-55.2 00-.49-2.76c-2.87-1.02-14.18-4.18-15.29-7.19q-6.35-17.29-19.28-29.97c-5.11-5.01-12.11-9.69-18.37-14.18a.75.75 0 01-.3-.78c1.12-5.19 1.8-10.33 4.11-15.02 2.31-4.69 5.43-12.67 10.28-16.09a.81.79 67.9 00.33-.8q-.78-4.85-4.66-8-.83-.67-.64.38l.48 2.72q.2 1.16-.37.13-8.29-15.13-25.56-17.58-.47-.07-.66-.55a.36.35 83.6 01.38-.48q.87.12 1.73-.11 1.24-.33.01-.71l-4.49-1.38q.45.03.52-.37a.66.66 0 00-.57-.77c-2.36-.28-21.71-1.77-21.45 1.31q-9.95 1.29-21.57 5.21c-8.98 3.03-17.39 11.19-24.34 17.49-3.77 3.41-6.06 7.43-8.7 11.71a.39.39 0 01-.69-.35q2.61-6.7 6.28-13.27c.85-1.51 5.86-4.49 7.8-6.27 7.81-7.18 16.31-12.78 26.82-15.63 6.56-1.78 13.46-3.79 19.99-4.52q13.06-1.46 26.23-.39c3.96.33 6.91 5.12 11.64 6.15q5.49 1.19 10.79 3.01a1.43 1.42 82.8 01.74.58q3.13 4.83 4.23 10.41c.54 2.73 1.32 2.93 3.49 4.2q2.92 1.72 8.01 8.3a1.46 1.44 27.2 01.31.95q-.25 8.4 5.7 14.22.84.82-.26.41-3.74-1.38-5.9-4.61a.33.33 0 00-.6.15c-1.26 11.83 5.94 18.46 15.91 22.51a.87.86 37.5 00.87-.11l9.32-7.06a.45.45 0 01.7.47l-3.18 12.09a1.51 1.51 0 00.08 1.01q1.07 2.44 3.51 3.45a.8.8 0 01.5.77q-.16 4.89-1.64 9.54-.16.53-.56.92l-7.09 6.96q-.71.7.29.72 5.47.09 10.57-1.69zm-39.22-49.01c-4.92 2.39-10.38 7.35-12.35 12.79a.38.37-76.8 00.31.51l15.95 1.82a.37.36 86.5 00.39-.45q-1.55-6.23-4.59-11.93-.58-1.08.44-2.55.27-.39-.15-.19z"/><path fill="#fafde2" d="M234.5 146.54q-10.76-.77-21.5.17c-.26-3.08 19.09-1.59 21.45-1.31a.66.66 0 01.57.77q-.07.4-.52.37z"/><path fill="#929497" d="M239.87 158.18c5.83-3.69 12.65 1.62 13.21 7.62a.37.37 0 01-.65.28q-4.94-5.78-12.47-7.36-.71-.15-.09-.54z"/><circle fill="#1f1e1d" cx="445.59" cy="166.49" r="6.26"/><path fill="#929497" d="M234.19 164.45c5.81-1.35 18.05.9 14.68 9.7q-.22.56-.59.09-5.49-6.92-14.08-8.77-2.3-.49-.01-1.02z"/><circle fill="#1f1e1d" cx="417.52" cy="169.54" r="2.91"/><path fill="#929497" d="M122.28 206.86c.29 13.38 8.64 24.86 23.73 21.23a.62.61 20.6 01.5 1.1c-3.42 2.41-6.52 4.14-10.8 4.14-17.82.02-22.54-19.82-19.62-33.84 1.96-9.45 9.1-28.25 20.66-29.07 6.28-.45 11.48.57 15.76 5.69a.27.27 0 01-.34.4c-19.53-11.22-30.2 15.87-29.89 30.35z"/><path fill="#1f1e1d" d="M400.67 220.3c-3.28-17.58 7.73-34.22 25.2-37.41 10.15-1.86 19.91 1.53 27.66 8.19a1.17 1.15 49.3 001.37.11c6.06-3.77 21.79-6.18 27.97-4.39a.79.78-86.1 01.56.65c1.04 7.84-14.01 21.47-19.94 25.67a1.53 1.51 73.9 00-.65 1.19c-1.04 23.74-26.61 38.71-47.37 26.21a1 .98 49.2 00-.89-.07c-9.39 3.76-20.5 7.74-29.62 5.35-5.63-1.47-.53-9.04 1.41-11.86 3.33-4.82 9.42-9.06 14.01-12.84a.82.81 65 00.29-.8zm36.89-26.82q2.83 5.45 8.99 5.12a.96.94 68.7 01.8.36l1.8 2.37a.32.31 64.4 01-.17.5c-3.06.73-1.26 5.25 2.26 4.38a.6.59-13.7 01.72.43l1.42 5.69a.55.55 0 00.88.3l2.83-2.28a1.15 1.14-22.5 00.42-1c-.79-9.14-7.75-16.8-15.77-20.23-13.07-5.59-29.71.95-35.02 14.38-3.42 8.68-2 19.61 4.23 26.78q1.55 1.79 2.97 3.71a.68.67 62.6 00.75.24l4.48-1.41a.76.76 0 00.15-1.39c-3.91-2.18-5.64-5.14-7.12-9.71-1-3.1-2.59-5.94-2.44-9.16.62-13.11 14.26-23.02 27.09-19.66a1.15 1.12-5.7 01.73.58zm25.18 13.09c3.48-2.64 8.84-6.53 8.57-11.16a.61.61 0 00-.6-.58q-6.47-.08-12.76 1.59a.35.35 0 00-.2.53q2.92 4.33 4.23 9.36a.49.48 63.8 00.76.26zm-18.947.827a3.27 2.29 52 00-.209-3.987 3.27 2.29 52 00-3.817-1.167 3.27 2.29 52 00.209 3.987 3.27 2.29 52 003.817 1.167zm6.717 16.613c-3.52 7.62-13.82 12.05-21.92 11.08-1.97-.23-4.92 1.75-6.54 2.82a.37.37 0 00.09.66c15.92 5.03 33.11-3.6 35.43-20.8q.07-.5-.38-.25c-2.99 1.69-5.13 3.12-6.68 6.49zm-48.46 2.56c-2.23 1.95-7.5 6.37-8.48 9.07a2.06 2.05 10 001.93 2.75q6.87.03 13.56-1.79a.34.34 0 00.16-.56q-3.85-4.05-6.05-9.21a.71.71 0 00-1.12-.26zM260.68 197.82c1.97-5.44 7.43-10.4 12.35-12.79q.42-.2.15.19-1.02 1.47-.44 2.55 3.04 5.7 4.59 11.93a.37.36 86.5 01-.39.45l-15.95-1.82a.38.37-76.8 01-.31-.51z"/><path fill="#929497" d="M436.83 192.9c-12.83-3.36-26.47 6.55-27.09 19.66-.15 3.22 1.44 6.06 2.44 9.16 1.48 4.57 3.21 7.53 7.12 9.71a.76.76 0 01-.15 1.39l-4.48 1.41a.68.67 62.6 01-.75-.24q-1.42-1.92-2.97-3.71c-6.23-7.17-7.65-18.1-4.23-26.78 5.31-13.43 21.95-19.97 35.02-14.38 8.02 3.43 14.98 11.09 15.77 20.23a1.15 1.14-22.5 01-.42 1l-2.83 2.28a.55.55 0 01-.88-.3l-1.42-5.69a.6.59-13.7 00-.72-.43c-3.52.87-5.32-3.65-2.26-4.38a.32.31 64.4 00.17-.5l-1.8-2.37a.96.94 68.7 00-.8-.36q-6.16.33-8.99-5.12a1.15 1.12-5.7 00-.73-.58z"/><ellipse fill="#1f1e1d" transform="rotate(88.3 84.514 287.26)" rx="7.01" ry="6.65"/><path fill="#fafde2" d="M471.31 195.41c.27 4.63-5.09 8.52-8.57 11.16a.49.48 63.8 01-.76-.26q-1.31-5.03-4.23-9.36a.35.35 0 01.2-.53q6.29-1.67 12.76-1.59a.61.61 0 01.6.58z"/><ellipse fill="#929497" transform="rotate(52 10.918 555.302)" rx="3.27" ry="2.29"/><path fill="#929497" d="M428.59 235.09c8.1.97 18.4-3.46 21.92-11.08 1.55-3.37 3.69-4.8 6.68-6.49q.45-.25.38.25c-2.32 17.2-19.51 25.83-35.43 20.8a.37.37 0 01-.09-.66c1.62-1.07 4.57-3.05 6.54-2.82z"/><rect x="-1.51" y="-1.75" transform="rotate(-1.2 10750.452 -23347.457)" width="3.02" height="3.5" rx="1.22"/><path fill="#fafde2" d="M393.57 235.64c.98-2.7 6.25-7.12 8.48-9.07a.71.71 0 011.12.26q2.2 5.16 6.05 9.21a.34.34 0 01-.16.56q-6.69 1.82-13.56 1.79a2.06 2.05 10 01-1.93-2.75z"/><path fill="#929497" d="M154.51 240.16l-3.02-1.65a1.05 1.04-84 01-.52-.65q-1.14-4.27 1.3-7.58a.89.89 0 011.56.27c1.24 4.16 3.69 6.16 6.93 8.79a1.52 1.45-78.4 01.5.8c2.11 8.41 8.56 15.7 17.49 18.23a1.06 1.05-1.6 01.71.67l2.3 6.65a1.43 1.41-84.4 00.64.79c2.01 1.17 3.35 1.78 5.88 1.63 2.15-.12 3.73 1.74 5.72 2.14q5.23 1.05 10.52 1.66.51.06.07.32c-7.48 4.4-13.52 3.27-21.55 1.09-4.24-1.15-5.93-5.7-7.45-9.26a1.24 1.23.8 00-.65-.66c-4.04-1.84-8.56-4.08-11.37-7.61-3.72-4.68-6.75-8.14-8.49-14.89a1.14 1.13-82.9 00-.57-.74z"/><path fill="#fafde2" d="M315.79 243.25q-.06.6-.48.82a.44.44 0 01-.62-.25q-1.01-3.27-.81-6.7a1.53 1.5-60.6 00-.25-.93l-1.38-2.15 3.7-.64q.48-.09.3.37-1.8 4.62-.46 9.48z"/><ellipse fill="#929497" transform="rotate(-12.6 1170.971 -706.276)" rx=".96" ry=".71"/><circle fill="#1f1e1d" cx="469.06" cy="255.54" r="8.21"/><path fill="#929497" d="M253.85 320.52c.17-14.08-.31-27.43 1.46-41.56q.07-.57.49-.18l24.17 22.21a1.63 1.63 0 01.18 2.2c-1.92 2.45-2.76 5.37-5.01 7.69-5.43 5.59-8.01 11.24-11.2 18.24a.23.22 31.8 01-.35.08l-9.35-7.83a1.08 1.07-69.8 01-.39-.85z"/><path fill="#fafde2" d="M499.85 282.62c-13.24-.43-24.74 4.72-36.85 8.53a.29.29 0 01-.3-.07l-.19-.2a.06.06 0 01.01-.1q7.48-3.73 15.26-6.72c6-2.3 16.07-4.16 22.19-2.09a.33.33 0 01-.12.65z"/><path fill="#929497" d="M450.44 287.81q-1.82-.3-5.62.59c-11.13 2.62-21.4 3.69-33.01 4.03-8.31.25-21.36 2.24-27.6 8.38q-2.81 2.77-5.29 5.78-.32.39-.14-.09 5.43-14.8 20.96-17.51c7.09-1.24 14.97-.3 21.33-.91q10.64-1.01 21.14-2.99c6.47-1.22 10.3-1.42 15.24 2.36a.81.8-59.8 01.25.96c-.36.81-6.29-.44-7.26-.6z"/><path d="M372.29 311.75q1.66 1.16 1.02 3.03-3.43 10.06-6.93 20.12c-.56 1.63-1.68 2.55-3.09 3.35l9-26.5z"/><path fill="#929497" d="M275.15 365.32q3.01 10.61 8.01 20.44a.72.72 0 00.77.37q.31-.07.61-.38 15.54 29.62 35.53 56.43 1.71 2.29 2.25 4.72a.64.63 13.2 01-1.02.63c-13.8-11.22-24.17-23.28-34.39-38.58-17.59-26.33-34.24-57.56-67.28-67-3.26-.93-6.52-.98-9.84-1.12q-1.83-.07-.49-1.32c14.36-13.34 44.74-18.92 55.52 2.18q4.78 9.36 10.33 23.63zM175.54 478.75q.39.03.66-.09a.58.58 0 00.31-.7l-3.36-10.33a.89.88 73.4 00-1.08-.59q-.4.11-.86.46-8.29-25.36-10.17-52c.91.06 1.43-.72 1.29-1.58q-1.28-8.03-1.11-16.14a.78.77 12.7 00-.46-.72l-.72-.31q-.67-21.66 7.7-41.57.2-.46.1.03c-4.87 24.36-3.51 44.4 0 69.35 2.42 17.21 7.38 33.78 12.71 50.22q2.45 7.53 6.23 15.19c6.11 12.37 11.95 24.51 19.5 36.05a.58.57 74 01-.49.89l-6.1-.12a2.07 2.06-15.1 01-1.73-.99q-6.3-10.31-11.82-21c-4.21-8.17-7.29-17.22-10.6-26.05z"/><path fill="#fafde2" d="M275.15 365.32q5.43 9.98 9.39 20.43-.3.31-.61.38a.72.72 0 01-.77-.37q-5-9.83-8.01-20.44zM160.04 396.75l.72.31a.78.77 12.7 01.46.72q-.17 8.11 1.11 16.14c.14.86-.38 1.64-1.29 1.58q-1.17-9.34-1-18.75z"/><path fill="#929497" d="M210.19 428.44q.11-.18.27-.18a.3.3 0 01.31.33l-.13 1.13a.44.44 0 01-.67.33c-.71-.45-.69-1.47.22-1.61zM317.7 504.82c-27.74-14.06-54.5-33.18-75.01-56.72a.45.45 0 01.59-.66c3.14 2.14 6.87 5.73 8.93 7.45q24.85 20.74 52.61 37.36c12.56 7.52 23.5 12.25 37.01 14.67 9.09 1.64 11.42-3.45 15.85-11.01 4.86-8.29 7.81-17.36 12.28-26.06a.24.24 0 01.44.17c-2.73 9.58-5.19 19.82-9.3 28.9-4.09 9.01-6.19 17.13-18.29 14.43-8.58-1.91-17.8-4.82-25.11-8.53z"/><path fill="#fafde2" d="M175.54 478.75l-4.33-11.25q.46-.35.86-.46a.89.88 73.4 011.08.59l3.36 10.33a.58.58 0 01-.31.7q-.27.12-.66.09z"/><path fill="#1f1e1d" d="M0 589.94l.25.1c-.15.47-.01.72.5.7q5.73-.17 11.44.26H0v-1.06z"/><path fill="#929497" d="M24.44 591h-6.75q3.37-.63 6.75 0zM32.44 591h-6.75q3.37-.63 6.75 0z"/><path fill="#1f1e1d" d="M576.44 591h-6.75q3.37-.63 6.75 0z"/></svg>