<svg xmlns="http://www.w3.org/2000/svg" viewBox="0 0 591 591"><g stroke-width="2" fill="none"><path stroke="#111110" vector-effect="non-scaling-stroke" d="M590.06 0l.19.29"/><path stroke="#7f7f70" vector-effect="non-scaling-stroke" d="M590.25.29V589.8a.46.45 0 01-.46.45L.66 590.24q-.68 0-.21.5l.24.26"/><path stroke="#7f7f70" vector-effect="non-scaling-stroke" d="M586.25 4.51a.26.26 0 00-.26-.26H4.51a.26.26 0 00-.26.26v581.48a.26.26 0 00.26.26h581.48a.26.26 0 00.26-.26V4.51"/><path stroke="#908f80" vector-effect="non-scaling-stroke" d="M591 587.31c-.84-.45-.25-537.06-.25-586.81a.25.24-86.1 00-.21-.25q-.17-.02-.29.04M576.44 591q-3.38-.63-6.75 0M33.44 591q-7.88-.63-15.75 0M13.19 591q-5.88-.63-11.75 0"/><path stroke="#fdf1c4" vector-effect="non-scaling-stroke" d="M94.12 39.7q-3.8-.73-7.62-.74-16.5-.03-33 .3c-15.89.31-20.55 6.67-20.88 21.92q-.42 20.04.19 40.16a.57.57 0 00.92.43c2.91-2.27 5.85-4.59 8.47-7.29q26.09-26.8 52.31-53.54a.74.73 27.7 00-.39-1.24"/><path stroke="#908f80" vector-effect="non-scaling-stroke" d="M202.73 132.7l.54 40.32q0 .56-.44.22c-3.6-2.7-22.07-17.03-22.87-3.82q-.47 7.76 1.28 15.3a.95.94 72.6 01-.56 1.09q-7.6 3.14-13.5 7.88c-6.14 4.94-3.55 10.42 2.56 13.14q5.83 2.59 12.29 3.57a.56.55 5.2 01.48.57q-.3 10.7 6.74 18.48c3.82 4.21 9.08-1.04 12.19-3.54 2.79-2.23 3.65-5.3 5.13-8.44a.66.66 0 01.64-.38l10.03.66a.51.5-88.8 01.47.5l.38 33.51a1.21 1.2-19.1 01-.48.98l-1.74 1.3a.41.4-50.3 00.06.69l1.59.77a1.02 1.01 9.4 01.56.78q.29 2.24.37 7.23.61 38.83.55 54.21a1.68 1.6-29.4 01-.28.91q-1.73 2.54-6.19 7.41c-3.09 3.38-5.54 8.02-7.87 13.17q-1.21 2.67-3.17 5.03a.69.68-60.5 01-.73.21q-20.4-6.39-41.75-8.01a.73.73 0 00-.49 1.31q16.89 12.73 36.78 19.96a1.22 1.22 0 01.77 1.43c-2.47 10.52-5.34 18.86-4.6 30.66.18 3-.55 5.41 2.01 7.73 2.75 2.5 5.02 4.3 8.52 6.41 4.23 2.55 2.15 5.97-.38 9.03-3.79 4.56-7.61 9.94-11.6 13.65-9.97 9.29-27.8 19.33-41.83 14.8a.37.36-89.2 00-.46.45c5.21 17.44 25.16 34.03 40.49 42.29 8.07 4.35 21.81 8.83 30.28 9.7 19.75 2.02 42.27-6.54 58.11-17.22.58-.39 1.77-1.61 2.75-1.45a1.26 1.25 3.9 011.05 1.2q.24 9.93.32 18.91c.02 1.78-.76 3.81-2.92 2.99q-9.74-3.73-19.62-1.15a2.01 2-1.7 00-1.45 1.53c-1.49 7.2 2.27 13.93 6.05 18.96a.62.62 0 01-.01.75q-6.61 8.66-7.3 19.65a1.08 1.06-66.7 00.34.87c4.75 4.42 14.48 3.7 20.41 2.25a.55.55 0 01.65.35q3.38 9.53 12.78 13.4 2.58 1.06 4.43-1.33 6.74-8.7 6.51-19.44a.55.55 0 01.48-.56c4.46-.57 23.35-5.12 17.5-13.5-3.38-4.84-11.44-8.87-16.69-10.72a.55.54-73.8 01-.35-.65c1.23-4.87 4.67-22.35-5.23-20.86q-7.72 1.15-13.19 6.73a.33.32-23.3 01-.56-.22l-.24-17.28a.44.43-79 01.6-.41q18.48 7.94 34.09 9.5c16.65 1.66 34.77-.76 50.99-4.49 24.97-5.73 48.67-21.31 65.47-40.92 2.72-3.18 2.52-6.31 2.07-10.25-1.78-15.99-4.3-32.19-10.67-46.34q-6.26-13.92-16.27-25.69a1.44 1.44 0 01-.34-.9l-1.17-57.79a1.13 1.13 0 011.51-1.09q3.91 1.38 7.72.42c1.81-.45 3.75-.73 4.66.92 2.12 3.88 10.28 13.94 14.82 7.52q4.09-5.77 5.52-10.66a.74.74 0 01.64-.53c3.8-.37 16.5-3.18 14.25-9.34-2.24-6.15-5.79-8.2-10.62-12.46a.95.93-66 01-.31-.84q1-7.33-1.88-14.15c-2.92-6.9-11.58 1.1-13.76 4.25a.76.76 0 01-1.39-.42q-.72-53.87-1.41-107.59-.24-18.2-.04-36.28a1.59 1.58 81.5 011.09-1.48l2.97-.98a.63.63 0 00.43-.66l-1.74-15.38a.66.64.7 00-.56-.56q-23.01-2.9-46.07-5.4c-1.4-.15-2.56-1.18-4.41-.47q-20.05 7.7-40.08 15.42c-3.83 1.47-6.69 2.98-10.87 2.19q-39.94-7.6-79.92-15.03c-1.77-.33-6.72-2.04-8.65-1.22q-19.4 8.3-38.97 16.17a.8.78-9.7 00-.5.68c-.38 5.91 1.09 12.48 1.19 18.55a.64.63-88.5 00.59.63l.83.07a.66.65 1.9 01.6.64"/><path stroke="#c7c8ba" vector-effect="non-scaling-stroke" d="M476.53 153.91l-1.65.27q-1.23.21 0 .38 3.12.44 4.47-2.34.56-1.16-.37-.27l-1.64 1.56a1.59 1.53 17.6 01-.81.4"/><path stroke="#595a5b" vector-effect="non-scaling-stroke" d="M230.22 165.79q12.27 2.05 23.36 2.92a.87.86 18.9 00.79-.38l1.35-2.02q.55-.84.77.14l.39 1.73a.78.78 0 00.63.61c5.92 1.07 11.14 1.62 16.97-.62 21.54-8.31 48.34-17.4 73.41-26.9 18.15-6.87 36.72-12.75 54.93-19.71a.82.81-10.3 00.52-.74l.13-7.29a.51.51 0 01.74-.45l.95.47a.9.89 12.6 01.49.76l.3 5.91a.49.49 0 00.67.42c3.97-1.65 6.87-2.87 11.77-4.47q2.99-.97 5.36-3.13"/><path stroke="#919090" vector-effect="non-scaling-stroke" d="M423.75 113.04q.77-.07 1.27-.51a.92.91-26.1 00.28-.8l-.95-6.45a.58.57 88.6 00-.5-.48q-21.2-2.93-42.55-4.91-2.31-.21-4.46.61c-29.8 11.45-59.54 23.13-89.48 34.2-18.1 6.7-36.07 14.18-54.08 20.26q-2.14.73-4.03 1.8a.83.8-16.4 00-.42.74q.16 5.04 1.39 8.29"/><path stroke="#c8c9ca" vector-effect="non-scaling-stroke" d="M423.75 113.04c-6.65-1.23-13.98-1.17-19.97-2-8.58-1.18-19.87-3.35-26.48-.72q-31.99 12.77-64.46 24.23-10.58 3.73-18.79 6.86-31.88 12.15-63.83 24.38"/><path stroke="#595a5b" vector-effect="non-scaling-stroke" d="M205.54 125.25q-.47 1.14.17 2.2a1.27 1.24-10.8 00.88.58l10.16 1.51a.55.54-85.1 00.63-.54l.04-5.7a.45.45 0 01.57-.43c1.55.43 1.3 5.37 1.38 6.73a.64.64 0 00.52.59c9.4 1.61 18.82 2.58 28.17 4.44 7.46 1.48 15.68 4.41 23.09 1.1 10.92-4.9 22.27-7.88 33.2-13.08"/><path stroke="#919090" vector-effect="non-scaling-stroke" d="M304.35 122.65l15.79-5.55q2.35-.83-.09-1.29l-79.32-14.99a1.65 1.59-49.9 00-.96.1l-33.55 13.89a1.8 1.79 77.5 00-1.11 1.75l.43 8.69"/><path stroke="#c8c9ca" vector-effect="non-scaling-stroke" d="M304.35 122.65q-28.52-5.88-57.1-10.9c-2.24-.39-5.12-.26-7.49.7q-16.24 6.58-32.5 13.06-.5.2-1.72-.26"/><path stroke="#908f80" vector-effect="non-scaling-stroke" d="M419.41 149.29l-12.52 3.57a1.57 1.57 0 00-1.14 1.52l1.39 129.19q.01 1.27.86.33l3.22-3.54a.9.89 54 00.15-.99c-2.58-5.49-5.2-12.43-.73-17.49a1.13 1.13 0 01.83-.39q2.52-.07 5.03.1c2.84.19 5.44 1.75 8.43 2.28a.43.43 0 00.5-.42q.41-36.61-.6-73.2c-.65-23.51-.44-47.1-.64-70.6a.28.27 79.8 00-.37-.26l-17.32 6.47a.79.79 0 00.18 1.52l11.1 1.37a.6.59 1.2 01.52.54l1.75 19.06a.89.88 79.5 01-.64.94"/><path stroke="#595a5b" vector-effect="non-scaling-stroke" d="M346.71 147.25l-9.01 3.5q-.51.2.03.29 16.28 2.65 32.56 5.23c1.49.24 2.38.34 3.93.01q14.75-3.12 29.19-7.76a.68.67 79.7 00.46-.67l-.16-4.85"/><path stroke="#919090" vector-effect="non-scaling-stroke" d="M403.71 143l-.02-10.75a1.19 1.18-87 00-1.06-1.18q-3.57-.36-7.63-.9c-1.38-.19-5.68 1.98-7.6 2.47-7.75 2-15.74 5.76-22.31 7.95q-9.28 3.1-18.38 6.66"/><path stroke="#c8c9ca" vector-effect="non-scaling-stroke" d="M403.71 143q-16.83-2.96-22.45-4.28c-3.32-.78-4.81-1.57-8.15-.15q-12.3 5.21-24.94 9.47c-.82.27-1.19-.05-1.46-.79"/><path stroke="#595a5b" vector-effect="non-scaling-stroke" d="M407.29 147.25q3.07.18 5.91-1.65"/><path stroke="#919090" vector-effect="non-scaling-stroke" d="M413.2 145.6q.3-6.15-.48-12.21a.65.65 0 00-.58-.56l-5.53-.5a.56.56 0 00-.61.56v14.61a.46.45-5.3 00.54.44q.51-.11.75-.69"/><path stroke="#c8c9ca" vector-effect="non-scaling-stroke" d="M413.2 145.6q-2.72-1.26-5.25-1.19a.55.55 0 00-.54.52l-.12 2.32"/><path stroke="#908f80" vector-effect="non-scaling-stroke" d="M216.4 133.81l-11.09-1.14a.58.57 2.2 00-.63.58l.63 40.28a.4.4 0 00.57.36q5.4-2.43 11.35-2.35a.53.52-89.5 00.53-.53l-.44-36.19a1.03 1.02-87.5 00-.92-1.01M254.32 173.75q-13.18-1.62-25.89-2.3-1.62-.08-3.23-.48a.84.84 0 01-.62-.66q-1.37-7.72-1.16-15.57a.67.67 0 01.4-.6c10.06-4.21 20.35-7.77 30.35-12.07q2.08-.89-.14-1.28l-34.35-6.15a.41.41 0 00-.48.41l.46 35.76a.8.79-84.6 00.63.77l4.39.86a1.13 1.1 78.5 01.72.49c3.75 5.83-1.27 15.17-5.01 19.61a1.27 1.27 0 00-.02 1.6c5.01 6.28 6.34 11.01 7.77 18.35.6 3.14-5.23 4.46-7.37 4.58a.71.71 0 00-.67.71l.13 33.19a.35.35 0 00.49.32q15.94-6.79 33.3-6.25a1.49 1.49 0 001.54-1.55q-1.28-34.75-1.05-69.52a.21.21 0 00-.19-.22M372.98 325.16q18.02 12.86 32.51 29.61a.14.14 0 00.24-.09l-.46-55.53a1.58 1.58 0 00-.34-.98l-1.39-1.8a1.65 1.65 0 01-.33-.99c.02-3.46 1.79-5.7 1.8-8.9.14-44.18-1.23-88.62-1.3-132.48a.43.43 0 00-.56-.41q-15.91 4.95-32.14 8.8a.66.65 82.9 00-.5.65q1.02 40.07 1.05 80.15c.03 27.13.74 54.29 1.1 81.35a.8.79-72.7 00.32.62M281.04 248.76c9.65 2.15 19.94 6.62 27.39 13.31 14.41 12.93 24.11 30.5 30.26 48.72a.88.88 0 00.62.58q15.95 4.01 30.22 12.11a.42.42 0 00.61-.27q.42-1.82.41-3.21c-.14-19.16-1.01-40.8-1-61.31 0-32.2-.49-64.33-.83-96.53a.85.84-85.2 00-.7-.84q-19.2-3.43-38.53-7.04-3.12-.59-6.84 1.55a.84.83 75 00-.41.72l.04 34.68q0 2.24 1.52.6 4.31-4.62 9.75-7.83a1.84 1.84 0 011.89.01c7.42 4.49 7.72 15.46 6.9 22.48a.82.81 20.7 00.35.77c5.77 3.88 10.21 6.8 13.82 13.01 4.13 7.08-12.83 11.32-17.17 11.61a.58.58 0 00-.52.44q-2.45 10.44-9.55 18.54a1.7 1.69 27.9 01-1.71.52c-6.33-1.73-11.76-8.85-15.06-14.19a.51.5 57.7 00-.69-.16c-4.73 3.03-12.17 2.24-17.04.32-8.51-3.36 2.58-18.88 6.42-22.48a.63.62 53.3 00.11-.77q-3.4-5.83-4.47-8.67c-7.89-20.87 15.14-11.99 22.44-8.27a.73.73 0 001.06-.65l-.37-38.39a.92.92 0 00-1.23-.86l-38.29 13.73a.75.73-10.3 00-.49.69c-.36 25.31-.01 50.74.35 76.17a.95.94-84.2 00.74.91"/><path stroke="#919090" vector-effect="non-scaling-stroke" d="M203.58 209.14q6.42 3.37 13.69 3.13a.5.5 0 00.48-.5q-.01-5.39.01-10.77c0-2.95-3.62-4.76-5.3-6.63a.45.45 0 01.06-.67c6.38-4.91 5.43-8.85 5.12-16.15a.52.52 0 00-.52-.5c-6.45-.06-10.18 1.88-15.57 3.36a.79.78 63.1 01-.81-.27c-3.9-4.92-9.05-9.45-15.38-10.68a.42.42 0 00-.5.37q-.93 9.21 2.63 17.71a.51.5 67.8 01-.27.66c-7.36 3.04-12.49 5.44-18.31 10.98a.68.67-48.8 00.06 1.03q8.02 5.96 18.06 5.42a.62.62 0 01.65.53c1.01 7.42-.37 11.88 3.94 18.35a1.36 1.36 0 001.73.47c5.76-2.8 8.77-9.53 9.66-15.56a.39.39 0 01.57-.28"/><path stroke="#908f80" vector-effect="non-scaling-stroke" d="M256.84 174.33l.51 70.35a.55.55 0 00.59.55q9.64-.59 18.82 2.36a.81.81 0 001.06-.78q-.53-34.78-.27-70.01c.01-1.3-.29-2.82-.46-4.17a.36.36 0 00-.51-.28c-6.44 3.05-12.4 2.39-19.18 1.48a.5.49-86.5 00-.56.5M220.1 177.76a.17.17 0 00-.27.09q-.61 2.17-.39 4.53.07.78.37.06l1.28-3.15a.84.84 0 00-.28-1l-.71-.53"/><path stroke="#919090" vector-effect="non-scaling-stroke" d="M316.24 229.53q2.02 9.97 10.39 15.81a.48.47 32.9 00.68-.14c3.9-6.4 5.81-10.68 6.09-18.34a.44.44 0 01.5-.42q8.77 1.12 16.47-3.19a1.2 1.2 0 00.44-1.67q-4.98-8.19-13.76-11.91a.68.68 0 01-.42-.72c.64-5.29 1.4-13.96-2.25-18.55a.56.55 51.2 00-.78-.09q-7.1 5.64-11.74 13.48a.51.5 32.2 01-.71.16q-8.78-5.95-19.45-6.71a1.15 1.15 0 00-1.22 1.31q1.36 9.55 7.86 16.63a.57.56 50.8 01-.08.84q-7.66 5.58-11.25 14.3a1.77 1.77 0 001.15 2.38c7.15 2.05 11.42-.25 17.58-3.41a.35.35 0 01.5.24M220.25 211.44a.3.3 0 00.45.26l1.35-.8a.3.3 0 00.14-.35l-1.36-4.32a.3.3 0 00-.59.09l.01 5.12"/><path stroke="#595a5b" vector-effect="non-scaling-stroke" d="M261.07 309.06c22.95-2.93 45.84-3.7 68.78-.27a.42.41 2.8 00.48-.43q-.11-2.1-1.06-3.92c-5.55-10.62-9.72-20.53-15.58-28.37-10.98-14.72-25.51-20.27-42.92-23.76-15.2-3.06-29.23-1.8-43.6 2.98a.34.34 0 00-.15.54q2 2.36 4.01 4.71c3.31 3.84 5.37 8.36 7.79 12.77 4.28 7.8 5.48 17.31 5.8 26.06.12 3.49-.37 7.77-.27 11.56a1.49 1.49 0 001.9 1.39c4.94-1.42 9.65-2.6 14.82-3.26M220.54 288.5q-.33 8.39.42 16.75"/><path stroke="#908f80" vector-effect="non-scaling-stroke" d="M220.96 305.25l.17 11.17a.6.59-1 00.61.58l14.42-.31a2.19 2.18-89.6 002.13-2.1c.37-9.6 1.17-20.4-1.34-29.5-2.46-8.9-7.37-21.95-15.75-26.96a.48.48 0 00-.72.41l.06 29.96"/><path stroke="#c7c8ba" vector-effect="non-scaling-stroke" d="M220.96 305.25q.94-8.41-.42-16.75"/><path stroke="#919090" vector-effect="non-scaling-stroke" d="M429.17 272.68q-2.81-1.39-5.5-3c-3-1.79-6.01-1.59-8.99-2.9a1.21 1.2 10 00-1.69 1.18q.47 7.27 5.28 12.71a.49.49 0 01-.06.71c-2.31 1.79-9.36 8.45-8.73 11.57.76 3.73 11 .99 13.92-.17a.43.43 0 01.58.32q1.39 6.98 7.59 10.67a.61.61 0 00.84-.21l4.31-7.17a1.99 1.93 61.5 00.29-1.03l-.02-4.33a.67.67 0 01.73-.67q6.99.65 13.4-2.21a.48.48 0 00.21-.7q-4.16-6.4-10.83-10.13a.69.68-66.9 01-.32-.81q2.2-7-.69-13.76a.51.51 0 00-.76-.23q-5.64 3.89-8.88 9.95a.52.51-62.1 01-.68.21"/><path stroke="#595a5b" vector-effect="non-scaling-stroke" d="M367.35 357.95l-2.05.15a1.72 1.65 23.5 00-.86.32q-4.49 3.3-3.68 9.06 1.42 10.2 7.25 18.14c4.04 5.5 16.93 18.17 23.89 12.35 4.22-3.54 3.6-10.84 1.84-15.55a.4.4 0 01.66-.41c3.3 3.57 15.44 18.82 13.87 23.5q-2.03 6.07-2.88 12.46-.07.5.15.04c5.18-10.75 8.23-23.32 11.62-34.76a1.5 1.48 42.9 00-.04-.95c-2.34-5.89-5.66-8.7-8.19-13.6a.38.38 0 00-.71.2c.08 1.48.83 10.06-1.4 9.59a.7.69 4 01-.55-.62c-.25-2.79.32-11.92-1.55-13.71q-2.68-2.57-5.03-5.43c-5.75-6.98-12.57-13.18-19.3-19.19-18.14-16.2-43.57-24.48-67.37-26.64-8.5-.77-20.27-.36-28.08-.02q-20.45.91-41.47 6.98a1.22 1.18-83.4 00-.71.58c-1.4 2.68-17.2 30.51-14.33 31.1a.99.99 0 00.89-.25l.95-.91q.38-.37.58-.85c1.63-3.9 9.11-20.29 13.66-20.27 5.69.04 12.16-.45 16.96-.46q39.82-.04 77.67 12.4 15.6 5.13 28.67 15.2a.87.87 0 01-.46 1.55M233.58 322.66l-10.5-.07a1.82 1.82 0 00-1.83 1.82v20.03a.9.89-31.9 001.7.39c1.45-2.95 11.28-20.7 10.9-21.97a.28.28 0 00-.27-.2M206.94 344.79a.8.8 0 00.46 1.19l10.46 3a.8.8 0 001.02-.77l-.03-19.65a.8.8 0 00-1.48-.42l-10.43 16.65M184.17 346.54l34.27 14.42a.43.42-79.5 00.59-.41l-.1-4.17a.87.86-82.9 00-.63-.82q-16.91-4.61-33.82-9.25-.15-.04-.25-.04a.14.14 0 00-.06.27"/><path stroke="#595a5b" vector-effect="non-scaling-stroke" d="M347.715 360.56a8.55 5.72 28.2 00-4.832-9.081 8.55 5.72 28.2 00-10.238 1 8.55 5.72 28.2 004.832 9.082 8.55 5.72 28.2 0010.238-1M221.98 362.56c21.61 8.83 47.23 16.55 71.55 22.11a.13.13 0 00.09-.25q-34.85-16.93-71.92-28.14a.44.44 0 00-.57.44l.28 5.04a.92.91 9.7 00.57.8M364.29 404.36a23.2 23.2 0 00-23.2-23.2 23.2 23.2 0 00-23.2 23.2 23.2 23.2 0 0023.2 23.2 23.2 23.2 0 0023.2-23.2M399.09 462.6c5.27-3.61 31.47-23.2 30.94-28.36q-2.42-23.34-9.48-45.57a.43.43 0 00-.82.01c-1.16 3.76-7.28 21.34-6.25 24.04 2.53 6.6 7.14 21.29 4.29 27.91-4.69 10.93-19.31 13.37-25.23 24.38q-.24.45.26.35 3.23-.66 6.29-2.76M214.79 414c12.87 16.47 25.81 28.44 42.2 40.82 15.47 11.68 33.11 19.05 51.84 23.5q6.56 1.56 13.51 1.61 28.18.21 56.4-7.76 4.5-1.28 7.29-2.7a1.43 1.41-2.1 00.64-.68q3.01-6.54 5.85-13.17c1.05-2.45 3.28-6.43 4.15-10.02a.24.24 0 00-.45-.16l-8.82 17.48a1.34 1.33 3.3 01-.75.66q-30.82 11.29-63.71 10.25-13.7-.43-25.37-4.64c-8.3-2.99-18.51-6.89-26.53-11.99q-28.38-18.06-50.02-43.91c-3.2-3.83-4.31-6.47-3.64-11.27a1.05 1.05 0 00-1.04-1.19l-3.69.01"/><path stroke="#111110" vector-effect="non-scaling-stroke" d="M212.65 400.84q-2.86 2.24-3.02 5.87c-.14 2.93 2.51 5.45 4.25 7.7a.49.49 0 00.72.06q.21-.19.19-.47"/><path stroke="#484a4b" vector-effect="non-scaling-stroke" d="M212.65 400.84q-1.21 3.85-1.33 7.34a1.64 1.64 0 00.26.92l3.21 4.9"/><path stroke="#595a5b" vector-effect="non-scaling-stroke" d="M157.04 448.28c8.43 12.87 19.35 23.31 33.16 30.27 8.08 4.07 16.67 8.03 25.52 9.02q18.22 2.05 35.62-4.91.47-.18-.02-.31-29.02-7.55-55.75-20.87c-9.02-4.49-15.63-10.13-22.06-17.37a.63.62 56.9 00-.73-.16q-7.4 3.36-15.51 3.86a.3.3 0 00-.23.47"/><path stroke="#919090" vector-effect="non-scaling-stroke" d="M295.27 511.09q2.49-8.48 1.92-17.28a.49.49 0 00-.6-.44q-9.65 2.31-14.62 10.78a.71.7 25.5 01-.87.3q-8.97-3.45-18.54-2.47a1.29 1.29 0 00-1.14 1.44c.77 6.18 5.01 10.43 8.8 14.96a.58.57-43.4 01-.03.75c-2.29 2.37-5.03 4.69-6.47 7.42-1.53 2.91-1.62 5.91-3.04 8.76a.4.4 0 00.27.56c8.21 1.94 11.75.08 19.32-2.56a.4.4 0 01.53.37q.07 8.9 6.87 14.08 1.97 1.5 3.78.78a1.49 1.46-87.5 00.77-.72q4.09-8.39 2.98-17.67a.9.9 0 01.91-1.01q9.93.2 17.7-5.84a.43.43 0 00.04-.65q-7.62-7.56-17.94-10.42a.92.91 16.1 01-.64-1.14"/><path stroke="#595a5b" vector-effect="non-scaling-stroke" d="M336.049 139.222a9.59 4.47-15.1 00-10.423-1.818 9.59 4.47-15.1 00-8.095 6.814 9.59 4.47-15.1 0010.423 1.818 9.59 4.47-15.1 008.095-6.814M359.17 404.35a18.15 18.15 0 00-18.15-18.15 18.15 18.15 0 00-18.15 18.15 18.15 18.15 0 0018.15 18.15 18.15 18.15 0 0018.15-18.15"/><path stroke="#919090" vector-effect="non-scaling-stroke" d="M354.17 404.4a13.12 13.12 0 00-13.12-13.12 13.12 13.12 0 00-13.12 13.12 13.12 13.12 0 0013.12 13.12 13.12 13.12 0 0013.12-13.12"/></g><path d="M0 0h590.06l.19.29V589.8a.46.45 0 01-.46.45L.66 590.24q-.68 0-.21.5l.24.26H0V0zm586.25 4.51a.26.26 0 00-.26-.26H4.51a.26.26 0 00-.26.26v581.48a.26.26 0 00.26.26h581.48a.26.26 0 00.26-.26V4.51z"/><path fill="#222120" d="M590.06 0h.94v587.31c-.84-.45-.25-537.06-.25-586.81a.25.24-86.1 00-.21-.25q-.17-.02-.29.04l-.19-.29z"/><path fill="#fefddf" d="M590.25.29q.12-.06.29-.04a.25.24-86.1 01.21.25c0 49.75-.59 586.36.25 586.81V591h-14.56q-3.38-.63-6.75 0H33.44q-7.88-.63-15.75 0h-4.5q-5.88-.63-11.75 0H.69l-.24-.26q-.47-.5.21-.5l589.13.01a.46.45 0 00.46-.45V.29z"/><path fill="#fefddf" d="M586.25 585.99a.26.26 0 01-.26.26H4.51a.26.26 0 01-.26-.26V4.51a.26.26 0 01.26-.26h581.48a.26.26 0 01.26.26v581.48zM94.12 39.7q-3.8-.73-7.62-.74-16.5-.03-33 .3c-15.89.31-20.55 6.67-20.88 21.92q-.42 20.04.19 40.16a.57.57 0 00.92.43c2.91-2.27 5.85-4.59 8.47-7.29q26.09-26.8 52.31-53.54a.74.73 27.7 00-.39-1.24zm108.61 93l.54 40.32q0 .56-.44.22c-3.6-2.7-22.07-17.03-22.87-3.82q-.47 7.76 1.28 15.3a.95.94 72.6 01-.56 1.09q-7.6 3.14-13.5 7.88c-6.14 4.94-3.55 10.42 2.56 13.14q5.83 2.59 12.29 3.57a.56.55 5.2 01.48.57q-.3 10.7 6.74 18.48c3.82 4.21 9.08-1.04 12.19-3.54 2.79-2.23 3.65-5.3 5.13-8.44a.66.66 0 01.64-.38l10.03.66a.51.5-88.8 01.47.5l.38 33.51a1.21 1.2-19.1 01-.48.98l-1.74 1.3a.41.4-50.3 00.06.69l1.59.77a1.02 1.01 9.4 01.56.78q.29 2.24.37 7.23.61 38.83.55 54.21a1.68 1.6-29.4 01-.28.91q-1.73 2.54-6.19 7.41c-3.09 3.38-5.54 8.02-7.87 13.17q-1.21 2.67-3.17 5.03a.69.68-60.5 01-.73.21q-20.4-6.39-41.75-8.01a.73.73 0 00-.49 1.31q16.89 12.73 36.78 19.96a1.22 1.22 0 01.77 1.43c-2.47 10.52-5.34 18.86-4.6 30.66.18 3-.55 5.41 2.01 7.73 2.75 2.5 5.02 4.3 8.52 6.41 4.23 2.55 2.15 5.97-.38 9.03-3.79 4.56-7.61 9.94-11.6 13.65-9.97 9.29-27.8 19.33-41.83 14.8a.37.36-89.2 00-.46.45c5.21 17.44 25.16 34.03 40.49 42.29 8.07 4.35 21.81 8.83 30.28 9.7 19.75 2.02 42.27-6.54 58.11-17.22.58-.39 1.77-1.61 2.75-1.45a1.26 1.25 3.9 011.05 1.2q.24 9.93.32 18.91c.02 1.78-.76 3.81-2.92 2.99q-9.74-3.73-19.62-1.15a2.01 2-1.7 00-1.45 1.53c-1.49 7.2 2.27 13.93 6.05 18.96a.62.62 0 01-.01.75q-6.61 8.66-7.3 19.65a1.08 1.06-66.7 00.34.87c4.75 4.42 14.48 3.7 20.41 2.25a.55.55 0 01.65.35q3.38 9.53 12.78 13.4 2.58 1.06 4.43-1.33 6.74-8.7 6.51-19.44a.55.55 0 01.48-.56c4.46-.57 23.35-5.12 17.5-13.5-3.38-4.84-11.44-8.87-16.69-10.72a.55.54-73.8 01-.35-.65c1.23-4.87 4.67-22.35-5.23-20.86q-7.72 1.15-13.19 6.73a.33.32-23.3 01-.56-.22l-.24-17.28a.44.43-79 01.6-.41q18.48 7.94 34.09 9.5c16.65 1.66 34.77-.76 50.99-4.49 24.97-5.73 48.67-21.31 65.47-40.92 2.72-3.18 2.52-6.31 2.07-10.25-1.78-15.99-4.3-32.19-10.67-46.34q-6.26-13.92-16.27-25.69a1.44 1.44 0 01-.34-.9l-1.17-57.79a1.13 1.13 0 011.51-1.09q3.91 1.38 7.72.42c1.81-.45 3.75-.73 4.66.92 2.12 3.88 10.28 13.94 14.82 7.52q4.09-5.77 5.52-10.66a.74.74 0 01.64-.53c3.8-.37 16.5-3.18 14.25-9.34-2.24-6.15-5.79-8.2-10.62-12.46a.95.93-66 01-.31-.84q1-7.33-1.88-14.15c-2.92-6.9-11.58 1.1-13.76 4.25a.76.76 0 01-1.39-.42q-.72-53.87-1.41-107.59-.24-18.2-.04-36.28a1.59 1.58 81.5 011.09-1.48l2.97-.98a.63.63 0 00.43-.66l-1.74-15.38a.66.64.7 00-.56-.56q-23.01-2.9-46.07-5.4c-1.4-.15-2.56-1.18-4.41-.47q-20.05 7.7-40.08 15.42c-3.83 1.47-6.69 2.98-10.87 2.19q-39.94-7.6-79.92-15.03c-1.77-.33-6.72-2.04-8.65-1.22q-19.4 8.3-38.97 16.17a.8.78-9.7 00-.5.68c-.38 5.91 1.09 12.48 1.19 18.55a.64.63-88.5 00.59.63l.83.07a.66.65 1.9 01.6.64zm273.8 21.21l-1.65.27q-1.23.21 0 .38 3.12.44 4.47-2.34.56-1.16-.37-.27l-1.64 1.56a1.59 1.53 17.6 01-.81.4z"/><path fill="#fbe5a9" d="M94.12 39.7a.74.73 27.7 01.39 1.24Q68.29 67.68 42.2 94.48c-2.62 2.7-5.56 5.02-8.47 7.29a.57.57 0 01-.92-.43q-.61-20.12-.19-40.16c.33-15.25 4.99-21.61 20.88-21.92q16.5-.33 33-.3 3.82.01 7.62.74z"/><path fill="#222120" d="M202.13 132.06l-.83-.07a.64.63-88.5 01-.59-.63c-.1-6.07-1.57-12.64-1.19-18.55a.8.78-9.7 01.5-.68q19.57-7.87 38.97-16.17c1.93-.82 6.88.89 8.65 1.22q39.98 7.43 79.92 15.03c4.18.79 7.04-.72 10.87-2.19q20.03-7.72 40.08-15.42c1.85-.71 3.01.32 4.41.47q23.06 2.5 46.07 5.4a.66.64.7 01.56.56l1.74 15.38a.63.63 0 01-.43.66l-2.97.98a1.59 1.58 81.5 00-1.09 1.48q-.2 18.08.04 36.28.69 53.72 1.41 107.59a.76.76 0 001.39.42c2.18-3.15 10.84-11.15 13.76-4.25q2.88 6.82 1.88 14.15a.95.93-66 00.31.84c4.83 4.26 8.38 6.31 10.62 12.46 2.25 6.16-10.45 8.97-14.25 9.34a.74.74 0 00-.64.53q-1.43 4.89-5.52 10.66c-4.54 6.42-12.7-3.64-14.82-7.52-.91-1.65-2.85-1.37-4.66-.92q-3.81.96-7.72-.42a1.13 1.13 0 00-1.51 1.09l1.17 57.79a1.44 1.44 0 00.34.9q10.01 11.77 16.27 25.69c6.37 14.15 8.89 30.35 10.67 46.34.45 3.94.65 7.07-2.07 10.25-16.8 19.61-40.5 35.19-65.47 40.92-16.22 3.73-34.34 6.15-50.99 4.49q-15.61-1.56-34.09-9.5a.44.43-79 00-.6.41l.24 17.28a.33.32-23.3 00.56.22q5.47-5.58 13.19-6.73c9.9-1.49 6.46 15.99 5.23 20.86a.55.54-73.8 00.35.65c5.25 1.85 13.31 5.88 16.69 10.72 5.85 8.38-13.04 12.93-17.5 13.5a.55.55 0 00-.48.56q.23 10.74-6.51 19.44-1.85 2.39-4.43 1.33-9.4-3.87-12.78-13.4a.55.55 0 00-.65-.35c-5.93 1.45-15.66 2.17-20.41-2.25a1.08 1.06-66.7 01-.34-.87q.69-10.99 7.3-19.65a.62.62 0 00.01-.75c-3.78-5.03-7.54-11.76-6.05-18.96a2.01 2-1.7 011.45-1.53q9.88-2.58 19.62 1.15c2.16.82 2.94-1.21 2.92-2.99q-.08-8.98-.32-18.91a1.26 1.25 3.9 00-1.05-1.2c-.98-.16-2.17 1.06-2.75 1.45-15.84 10.68-38.36 19.24-58.11 17.22-8.47-.87-22.21-5.35-30.28-9.7-15.33-8.26-35.28-24.85-40.49-42.29a.37.36-89.2 01.46-.45c14.03 4.53 31.86-5.51 41.83-14.8 3.99-3.71 7.81-9.09 11.6-13.65 2.53-3.06 4.61-6.48.38-9.03-3.5-2.11-5.77-3.91-8.52-6.41-2.56-2.32-1.83-4.73-2.01-7.73-.74-11.8 2.13-20.14 4.6-30.66a1.22 1.22 0 00-.77-1.43q-19.89-7.23-36.78-19.96a.73.73 0 01.49-1.31q21.35 1.62 41.75 8.01a.69.68-60.5 00.73-.21q1.96-2.36 3.17-5.03c2.33-5.15 4.78-9.79 7.87-13.17q4.46-4.87 6.19-7.41a1.68 1.6-29.4 00.28-.91q.06-15.38-.55-54.21-.08-4.99-.37-7.23a1.02 1.01 9.4 00-.56-.78l-1.59-.77a.41.4-50.3 01-.06-.69l1.74-1.3a1.21 1.2-19.1 00.48-.98l-.38-33.51a.51.5-88.8 00-.47-.5l-10.03-.66a.66.66 0 00-.64.38c-1.48 3.14-2.34 6.21-5.13 8.44-3.11 2.5-8.37 7.75-12.19 3.54q-7.04-7.78-6.74-18.48a.56.55 5.2 00-.48-.57q-6.46-.98-12.29-3.57c-6.11-2.72-8.7-8.2-2.56-13.14q5.9-4.74 13.5-7.88a.95.94 72.6 00.56-1.09q-1.75-7.54-1.28-15.3c.8-13.21 19.27 1.12 22.87 3.82q.44.34.44-.22l-.54-40.32a.66.65 1.9 00-.6-.64zm28.09 33.73q12.27 2.05 23.36 2.92a.87.86 18.9 00.79-.38l1.35-2.02q.55-.84.77.14l.39 1.73a.78.78 0 00.63.61c5.92 1.07 11.14 1.62 16.97-.62 21.54-8.31 48.34-17.4 73.41-26.9 18.15-6.87 36.72-12.75 54.93-19.71a.82.81-10.3 00.52-.74l.13-7.29a.51.51 0 01.74-.45l.95.47a.9.89 12.6 01.49.76l.3 5.91a.49.49 0 00.67.42c3.97-1.65 6.87-2.87 11.77-4.47q2.99-.97 5.36-3.13.77-.07 1.27-.51a.92.91-26.1 00.28-.8l-.95-6.45a.58.57 88.6 00-.5-.48q-21.2-2.93-42.55-4.91-2.31-.21-4.46.61c-29.8 11.45-59.54 23.13-89.48 34.2-18.1 6.7-36.07 14.18-54.08 20.26q-2.14.73-4.03 1.8a.83.8-16.4 00-.42.74q.16 5.04 1.39 8.29zm-24.68-40.54q-.47 1.14.17 2.2a1.27 1.24-10.8 00.88.58l10.16 1.51a.55.54-85.1 00.63-.54l.04-5.7a.45.45 0 01.57-.43c1.55.43 1.3 5.37 1.38 6.73a.64.64 0 00.52.59c9.4 1.61 18.82 2.58 28.17 4.44 7.46 1.48 15.68 4.41 23.09 1.1 10.92-4.9 22.27-7.88 33.2-13.08l15.79-5.55q2.35-.83-.09-1.29l-79.32-14.99a1.65 1.59-49.9 00-.96.1l-33.55 13.89a1.8 1.79 77.5 00-1.11 1.75l.43 8.69zm213.87 24.04l-12.52 3.57a1.57 1.57 0 00-1.14 1.52l1.39 129.19q.01 1.27.86.33l3.22-3.54a.9.89 54 00.15-.99c-2.58-5.49-5.2-12.43-.73-17.49a1.13 1.13 0 01.83-.39q2.52-.07 5.03.1c2.84.19 5.44 1.75 8.43 2.28a.43.43 0 00.5-.42q.41-36.61-.6-73.2c-.65-23.51-.44-47.1-.64-70.6a.28.27 79.8 00-.37-.26l-17.32 6.47a.79.79 0 00.18 1.52l11.1 1.37a.6.59 1.2 01.52.54l1.75 19.06a.89.88 79.5 01-.64.94zm-72.7-2.04l-9.01 3.5q-.51.2.03.29 16.28 2.65 32.56 5.23c1.49.24 2.38.34 3.93.01q14.75-3.12 29.19-7.76a.68.67 79.7 00.46-.67l-.16-4.85-.02-10.75a1.19 1.18-87 00-1.06-1.18q-3.57-.36-7.63-.9c-1.38-.19-5.68 1.98-7.6 2.47-7.75 2-15.74 5.76-22.31 7.95q-9.28 3.1-18.38 6.66zm60.58 0q3.07.18 5.91-1.65.3-6.15-.48-12.21a.65.65 0 00-.58-.56l-5.53-.5a.56.56 0 00-.61.56v14.61a.46.45-5.3 00.54.44q.51-.11.75-.69zM216.4 133.81l-11.09-1.14a.58.57 2.2 00-.63.58l.63 40.28a.4.4 0 00.57.36q5.4-2.43 11.35-2.35a.53.52-89.5 00.53-.53l-.44-36.19a1.03 1.02-87.5 00-.92-1.01zm37.92 39.94q-13.18-1.62-25.89-2.3-1.62-.08-3.23-.48a.84.84 0 01-.62-.66q-1.37-7.72-1.16-15.57a.67.67 0 01.4-.6c10.06-4.21 20.35-7.77 30.35-12.07q2.08-.89-.14-1.28l-34.35-6.15a.41.41 0 00-.48.41l.46 35.76a.8.79-84.6 00.63.77l4.39.86a1.13 1.1 78.5 01.72.49c3.75 5.83-1.27 15.17-5.01 19.61a1.27 1.27 0 00-.02 1.6c5.01 6.28 6.34 11.01 7.77 18.35.6 3.14-5.23 4.46-7.37 4.58a.71.71 0 00-.67.71l.13 33.19a.35.35 0 00.49.32q15.94-6.79 33.3-6.25a1.49 1.49 0 001.54-1.55q-1.28-34.75-1.05-69.52a.21.21 0 00-.19-.22zm118.66 151.41q18.02 12.86 32.51 29.61a.14.14 0 00.24-.09l-.46-55.53a1.58 1.58 0 00-.34-.98l-1.39-1.8a1.65 1.65 0 01-.33-.99c.02-3.46 1.79-5.7 1.8-8.9.14-44.18-1.23-88.62-1.3-132.48a.43.43 0 00-.56-.41q-15.91 4.95-32.14 8.8a.66.65 82.9 00-.5.65q1.02 40.07 1.05 80.15c.03 27.13.74 54.29 1.1 81.35a.8.79-72.7 00.32.62zm-91.94-76.4c9.65 2.15 19.94 6.62 27.39 13.31 14.41 12.93 24.11 30.5 30.26 48.72a.88.88 0 00.62.58q15.95 4.01 30.22 12.11a.42.42 0 00.61-.27q.42-1.82.41-3.21c-.14-19.16-1.01-40.8-1-61.31 0-32.2-.49-64.33-.83-96.53a.85.84-85.2 00-.7-.84q-19.2-3.43-38.53-7.04-3.12-.59-6.84 1.55a.84.83 75 00-.41.72l.04 34.68q0 2.24 1.52.6 4.31-4.62 9.75-7.83a1.84 1.84 0 011.89.01c7.42 4.49 7.72 15.46 6.9 22.48a.82.81 20.7 00.35.77c5.77 3.88 10.21 6.8 13.82 13.01 4.13 7.08-12.83 11.32-17.17 11.61a.58.58 0 00-.52.44q-2.45 10.44-9.55 18.54a1.7 1.69 27.9 01-1.71.52c-6.33-1.73-11.76-8.85-15.06-14.19a.51.5 57.7 00-.69-.16c-4.73 3.03-12.17 2.24-17.04.32-8.51-3.36 2.58-18.88 6.42-22.48a.63.62 53.3 00.11-.77q-3.4-5.83-4.47-8.67c-7.89-20.87 15.14-11.99 22.44-8.27a.73.73 0 001.06-.65l-.37-38.39a.92.92 0 00-1.23-.86l-38.29 13.73a.75.73-10.3 00-.49.69c-.36 25.31-.01 50.74.35 76.17a.95.94-84.2 00.74.91zm-77.46-39.62q6.42 3.37 13.69 3.13a.5.5 0 00.48-.5q-.01-5.39.01-10.77c0-2.95-3.62-4.76-5.3-6.63a.45.45 0 01.06-.67c6.38-4.91 5.43-8.85 5.12-16.15a.52.52 0 00-.52-.5c-6.45-.06-10.18 1.88-15.57 3.36a.79.78 63.1 01-.81-.27c-3.9-4.92-9.05-9.45-15.38-10.68a.42.42 0 00-.5.37q-.93 9.21 2.63 17.71a.51.5 67.8 01-.27.66c-7.36 3.04-12.49 5.44-18.31 10.98a.68.67-48.8 00.06 1.03q8.02 5.96 18.06 5.42a.62.62 0 01.65.53c1.01 7.42-.37 11.88 3.94 18.35a1.36 1.36 0 001.73.47c5.76-2.8 8.77-9.53 9.66-15.56a.39.39 0 01.57-.28zm53.26-34.81l.51 70.35a.55.55 0 00.59.55q9.64-.59 18.82 2.36a.81.81 0 001.06-.78q-.53-34.78-.27-70.01c.01-1.3-.29-2.82-.46-4.17a.36.36 0 00-.51-.28c-6.44 3.05-12.4 2.39-19.18 1.48a.5.49-86.5 00-.56.5zm-36.74 3.43a.17.17 0 00-.27.09q-.61 2.17-.39 4.53.07.78.37.06l1.28-3.15a.84.84 0 00-.28-1l-.71-.53zm96.14 51.77q2.02 9.97 10.39 15.81a.48.47 32.9 00.68-.14c3.9-6.4 5.81-10.68 6.09-18.34a.44.44 0 01.5-.42q8.77 1.12 16.47-3.19a1.2 1.2 0 00.44-1.67q-4.98-8.19-13.76-11.91a.68.68 0 01-.42-.72c.64-5.29 1.4-13.96-2.25-18.55a.56.55 51.2 00-.78-.09q-7.1 5.64-11.74 13.48a.51.5 32.2 01-.71.16q-8.78-5.95-19.45-6.71a1.15 1.15 0 00-1.22 1.31q1.36 9.55 7.86 16.63a.57.56 50.8 01-.08.84q-7.66 5.58-11.25 14.3a1.77 1.77 0 001.15 2.38c7.15 2.05 11.42-.25 17.58-3.41a.35.35 0 01.5.24zm-95.99-18.09a.3.3 0 00.45.26l1.35-.8a.3.3 0 00.14-.35l-1.36-4.32a.3.3 0 00-.59.09l.01 5.12zm40.82 97.62c22.95-2.93 45.84-3.7 68.78-.27a.42.41 2.8 00.48-.43q-.11-2.1-1.06-3.92c-5.55-10.62-9.72-20.53-15.58-28.37-10.98-14.72-25.51-20.27-42.92-23.76-15.2-3.06-29.23-1.8-43.6 2.98a.34.34 0 00-.15.54q2 2.36 4.01 4.71c3.31 3.84 5.37 8.36 7.79 12.77 4.28 7.8 5.48 17.31 5.8 26.06.12 3.49-.37 7.77-.27 11.56a1.49 1.49 0 001.9 1.39c4.94-1.42 9.65-2.6 14.82-3.26zm-40.53-20.56q-.33 8.39.42 16.75l.17 11.17a.6.59-1 00.61.58l14.42-.31a2.19 2.18-89.6 002.13-2.1c.37-9.6 1.17-20.4-1.34-29.5-2.46-8.9-7.37-21.95-15.75-26.96a.48.48 0 00-.72.41l.06 29.96zm208.63-15.82q-2.81-1.39-5.5-3c-3-1.79-6.01-1.59-8.99-2.9a1.21 1.2 10 00-1.69 1.18q.47 7.27 5.28 12.71a.49.49 0 01-.06.71c-2.31 1.79-9.36 8.45-8.73 11.57.76 3.73 11 .99 13.92-.17a.43.43 0 01.58.32q1.39 6.98 7.59 10.67a.61.61 0 00.84-.21l4.31-7.17a1.99 1.93 61.5 00.29-1.03l-.02-4.33a.67.67 0 01.73-.67q6.99.65 13.4-2.21a.48.48 0 00.21-.7q-4.16-6.4-10.83-10.13a.69.68-66.9 01-.32-.81q2.2-7-.69-13.76a.51.51 0 00-.76-.23q-5.64 3.89-8.88 9.95a.52.51-62.1 01-.68.21zm-61.82 85.27l-2.05.15a1.72 1.65 23.5 00-.86.32q-4.49 3.3-3.68 9.06 1.42 10.2 7.25 18.14c4.04 5.5 16.93 18.17 23.89 12.35 4.22-3.54 3.6-10.84 1.84-15.55a.4.4 0 01.66-.41c3.3 3.57 15.44 18.82 13.87 23.5q-2.03 6.07-2.88 12.46-.07.5.15.04c5.18-10.75 8.23-23.32 11.62-34.76a1.5 1.48 42.9 00-.04-.95c-2.34-5.89-5.66-8.7-8.19-13.6a.38.38 0 00-.71.2c.08 1.48.83 10.06-1.4 9.59a.7.69 4 01-.55-.62c-.25-2.79.32-11.92-1.55-13.71q-2.68-2.57-5.03-5.43c-5.75-6.98-12.57-13.18-19.3-19.19-18.14-16.2-43.57-24.48-67.37-26.64-8.5-.77-20.27-.36-28.08-.02q-20.45.91-41.47 6.98a1.22 1.18-83.4 00-.71.58c-1.4 2.68-17.2 30.51-14.33 31.1a.99.99 0 00.89-.25l.95-.91q.38-.37.58-.85c1.63-3.9 9.11-20.29 13.66-20.27 5.69.04 12.16-.45 16.96-.46q39.82-.04 77.67 12.4 15.6 5.13 28.67 15.2a.87.87 0 01-.46 1.55zm-133.77-35.29l-10.5-.07a1.82 1.82 0 00-1.83 1.82v20.03a.9.89-31.9 001.7.39c1.45-2.95 11.28-20.7 10.9-21.97a.28.28 0 00-.27-.2zm-26.64 22.13a.8.8 0 00.46 1.19l10.46 3a.8.8 0 001.02-.77l-.03-19.65a.8.8 0 00-1.48-.42l-10.43 16.65zm-22.77 1.75l34.27 14.42a.43.42-79.5 00.59-.41l-.1-4.17a.87.86-82.9 00-.63-.82q-16.91-4.61-33.82-9.25-.15-.04-.25-.04a.14.14 0 00-.06.27zm163.545 14.02a8.55 5.72 28.2 00-4.832-9.081 8.55 5.72 28.2 00-10.238 1 8.55 5.72 28.2 004.832 9.082 8.55 5.72 28.2 0010.238-1zm-125.735 2c21.61 8.83 47.23 16.55 71.55 22.11a.13.13 0 00.09-.25q-34.85-16.93-71.92-28.14a.44.44 0 00-.57.44l.28 5.04a.92.91 9.7 00.57.8zm142.31 41.8a23.2 23.2 0 00-23.2-23.2 23.2 23.2 0 00-23.2 23.2 23.2 23.2 0 0023.2 23.2 23.2 23.2 0 0023.2-23.2zm34.8 58.24c5.27-3.61 31.47-23.2 30.94-28.36q-2.42-23.34-9.48-45.57a.43.43 0 00-.82.01c-1.16 3.76-7.28 21.34-6.25 24.04 2.53 6.6 7.14 21.29 4.29 27.91-4.69 10.93-19.31 13.37-25.23 24.38q-.24.45.26.35 3.23-.66 6.29-2.76zM214.79 414c12.87 16.47 25.81 28.44 42.2 40.82 15.47 11.68 33.11 19.05 51.84 23.5q6.56 1.56 13.51 1.61 28.18.21 56.4-7.76 4.5-1.28 7.29-2.7a1.43 1.41-2.1 00.64-.68q3.01-6.54 5.85-13.17c1.05-2.45 3.28-6.43 4.15-10.02a.24.24 0 00-.45-.16l-8.82 17.48a1.34 1.33 3.3 01-.75.66q-30.82 11.29-63.71 10.25-13.7-.43-25.37-4.64c-8.3-2.99-18.51-6.89-26.53-11.99q-28.38-18.06-50.02-43.91c-3.2-3.83-4.31-6.47-3.64-11.27a1.05 1.05 0 00-1.04-1.19l-3.69.01q-2.86 2.24-3.02 5.87c-.14 2.93 2.51 5.45 4.25 7.7a.49.49 0 00.72.06q.21-.19.19-.47zm-57.75 34.28c8.43 12.87 19.35 23.31 33.16 30.27 8.08 4.07 16.67 8.03 25.52 9.02q18.22 2.05 35.62-4.91.47-.18-.02-.31-29.02-7.55-55.75-20.87c-9.02-4.49-15.63-10.13-22.06-17.37a.63.62 56.9 00-.73-.16q-7.4 3.36-15.51 3.86a.3.3 0 00-.23.47zm138.23 62.81q2.49-8.48 1.92-17.28a.49.49 0 00-.6-.44q-9.65 2.31-14.62 10.78a.71.7 25.5 01-.87.3q-8.97-3.45-18.54-2.47a1.29 1.29 0 00-1.14 1.44c.77 6.18 5.01 10.43 8.8 14.96a.58.57-43.4 01-.03.75c-2.29 2.37-5.03 4.69-6.47 7.42-1.53 2.91-1.62 5.91-3.04 8.76a.4.4 0 00.27.56c8.21 1.94 11.75.08 19.32-2.56a.4.4 0 01.53.37q.07 8.9 6.87 14.08 1.97 1.5 3.78.78a1.49 1.46-87.5 00.77-.72q4.09-8.39 2.98-17.67a.9.9 0 01.91-1.01q9.93.2 17.7-5.84a.43.43 0 00.04-.65q-7.62-7.56-17.94-10.42a.92.91 16.1 01-.64-1.14z"/><path fill="#fff" d="M423.75 113.04c-6.65-1.23-13.98-1.17-19.97-2-8.58-1.18-19.87-3.35-26.48-.72q-31.99 12.77-64.46 24.23-10.58 3.73-18.79 6.86-31.88 12.15-63.83 24.38-1.23-3.25-1.39-8.29a.83.8-16.4 01.42-.74q1.89-1.07 4.03-1.8c18.01-6.08 35.98-13.56 54.08-20.26 29.94-11.07 59.68-22.75 89.48-34.2q2.15-.82 4.46-.61 21.35 1.98 42.55 4.91a.58.57 88.6 01.5.48l.95 6.45a.92.91-26.1 01-.28.8q-.5.44-1.27.51zM304.35 122.65q-28.52-5.88-57.1-10.9c-2.24-.39-5.12-.26-7.49.7q-16.24 6.58-32.5 13.06-.5.2-1.72-.26l-.43-8.69a1.8 1.79 77.5 011.11-1.75l33.55-13.89a1.65 1.59-49.9 01.96-.1l79.32 14.99q2.44.46.09 1.29l-15.79 5.55z"/><path fill="#909395" d="M423.75 113.04q-2.37 2.16-5.36 3.13c-4.9 1.6-7.8 2.82-11.77 4.47a.49.49 0 01-.67-.42l-.3-5.91a.9.89 12.6 00-.49-.76l-.95-.47a.51.51 0 00-.74.45l-.13 7.29a.82.81-10.3 01-.52.74c-18.21 6.96-36.78 12.84-54.93 19.71-25.07 9.5-51.87 18.59-73.41 26.9-5.83 2.24-11.05 1.69-16.97.62a.78.78 0 01-.63-.61l-.39-1.73q-.22-.98-.77-.14l-1.35 2.02a.87.86 18.9 01-.79.38q-11.09-.87-23.36-2.92 31.95-12.23 63.83-24.38 8.21-3.13 18.79-6.86 32.47-11.46 64.46-24.23c6.61-2.63 17.9-.46 26.48.72 5.99.83 13.32.77 19.97 2zm-87.701 26.182a9.59 4.47-15.1 00-10.423-1.818 9.59 4.47-15.1 00-8.095 6.814 9.59 4.47-15.1 0010.423 1.818 9.59 4.47-15.1 008.095-6.814zM304.35 122.65c-10.93 5.2-22.28 8.18-33.2 13.08-7.41 3.31-15.63.38-23.09-1.1-9.35-1.86-18.77-2.83-28.17-4.44a.64.64 0 01-.52-.59c-.08-1.36.17-6.3-1.38-6.73a.45.45 0 00-.57.43l-.04 5.7a.55.54-85.1 01-.63.54l-10.16-1.51a1.27 1.24-10.8 01-.88-.58q-.64-1.06-.17-2.2 1.22.46 1.72.26 16.26-6.48 32.5-13.06c2.37-.96 5.25-1.09 7.49-.7q28.58 5.02 57.1 10.9z"/><path fill="#fefddf" d="M419.41 149.29a.89.88 79.5 00.64-.94l-1.75-19.06a.6.59 1.2 00-.52-.54l-11.1-1.37a.79.79 0 01-.18-1.52l17.32-6.47a.28.27 79.8 01.37.26c.2 23.5-.01 47.09.64 70.6q1.01 36.59.6 73.2a.43.43 0 01-.5.42c-2.99-.53-5.59-2.09-8.43-2.28q-2.51-.17-5.03-.1a1.13 1.13 0 00-.83.39c-4.47 5.06-1.85 12 .73 17.49a.9.89 54 01-.15.99L408 283.9q-.85.94-.86-.33l-1.39-129.19a1.57 1.57 0 011.14-1.52l12.52-3.57z"/><path fill="#fff" d="M403.71 143q-16.83-2.96-22.45-4.28c-3.32-.78-4.81-1.57-8.15-.15q-12.3 5.21-24.94 9.47c-.82.27-1.19-.05-1.46-.79q9.1-3.56 18.38-6.66c6.57-2.19 14.56-5.95 22.31-7.95 1.92-.49 6.22-2.66 7.6-2.47q4.06.54 7.63.9a1.19 1.18-87 011.06 1.18l.02 10.75zM413.2 145.6q-2.72-1.26-5.25-1.19a.55.55 0 00-.54.52l-.12 2.32q-.24.58-.75.69a.46.45-5.3 01-.54-.44v-14.61a.56.56 0 01.61-.56l5.53.5a.65.65 0 01.58.56q.78 6.06.48 12.21z"/><path fill="#fefddf" d="M216.4 133.81a1.03 1.02-87.5 01.92 1.01l.44 36.19a.53.52-89.5 01-.53.53q-5.95-.08-11.35 2.35a.4.4 0 01-.57-.36l-.63-40.28a.58.57 2.2 01.63-.58l11.09 1.14zM254.32 173.75a.21.21 0 01.19.22q-.23 34.77 1.05 69.52a1.49 1.49 0 01-1.54 1.55q-17.36-.54-33.3 6.25a.35.35 0 01-.49-.32l-.13-33.19a.71.71 0 01.67-.71c2.14-.12 7.97-1.44 7.37-4.58-1.43-7.34-2.76-12.07-7.77-18.35a1.27 1.27 0 01.02-1.6c3.74-4.44 8.76-13.78 5.01-19.61a1.13 1.1 78.5 00-.72-.49l-4.39-.86a.8.79-84.6 01-.63-.77l-.46-35.76a.41.41 0 01.48-.41l34.35 6.15q2.22.39.14 1.28c-10 4.3-20.29 7.86-30.35 12.07a.67.67 0 00-.4.6q-.21 7.85 1.16 15.57a.84.84 0 00.62.66q1.61.4 3.23.48 12.71.68 25.89 2.3z"/><ellipse fill="#222120" transform="rotate(-15.1 698.024 -1161.934)" rx="9.59" ry="4.47"/><path fill="#909395" d="M403.71 143l.16 4.85a.68.67 79.7 01-.46.67q-14.44 4.64-29.19 7.76c-1.55.33-2.44.23-3.93-.01q-16.28-2.58-32.56-5.23-.54-.09-.03-.29l9.01-3.5c.27.74.64 1.06 1.46.79q12.64-4.26 24.94-9.47c3.34-1.42 4.83-.63 8.15.15q5.62 1.32 22.45 4.28zM413.2 145.6q-2.84 1.83-5.91 1.65l.12-2.32a.55.55 0 01.54-.52q2.53-.07 5.25 1.19zM477.34 153.51l1.64-1.56q.93-.89.37.27-1.35 2.78-4.47 2.34-1.23-.17 0-.38l1.65-.27a1.59 1.53 17.6 00.81-.4z"/><path fill="#fefddf" d="M372.98 325.16a.8.79-72.7 01-.32-.62c-.36-27.06-1.07-54.22-1.1-81.35q-.03-40.08-1.05-80.15a.66.65 82.9 01.5-.65q16.23-3.85 32.14-8.8a.43.43 0 01.56.41c.07 43.86 1.44 88.3 1.3 132.48-.01 3.2-1.78 5.44-1.8 8.9a1.65 1.65 0 00.33.99l1.39 1.8a1.58 1.58 0 01.34.98l.46 55.53a.14.14 0 01-.24.09q-14.49-16.75-32.51-29.61zM308.43 262.07c-7.45-6.69-17.74-11.16-27.39-13.31a.95.94-84.2 01-.74-.91c-.36-25.43-.71-50.86-.35-76.17a.75.73-10.3 01.49-.69l38.29-13.73a.92.92 0 011.23.86l.37 38.39a.73.73 0 01-1.06.65c-7.3-3.72-30.33-12.6-22.44 8.27q1.07 2.84 4.47 8.67a.63.62 53.3 01-.11.77c-3.84 3.6-14.93 19.12-6.42 22.48 4.87 1.92 12.31 2.71 17.04-.32a.51.5 57.7 01.69.16c3.3 5.34 8.73 12.46 15.06 14.19a1.7 1.69 27.9 001.71-.52q7.1-8.1 9.55-18.54a.58.58 0 01.52-.44c4.34-.29 21.3-4.53 17.17-11.61-3.61-6.21-8.05-9.13-13.82-13.01a.82.81 20.7 01-.35-.77c.82-7.02.52-17.99-6.9-22.48a1.84 1.84 0 00-1.89-.01q-5.44 3.21-9.75 7.83-1.52 1.64-1.52-.6l-.04-34.68a.84.83 75 01.41-.72q3.72-2.14 6.84-1.55 19.33 3.61 38.53 7.04a.85.84-85.2 01.7.84c.34 32.2.83 64.33.83 96.53-.01 20.51.86 42.15 1 61.31q.01 1.39-.41 3.21a.42.42 0 01-.61.27q-14.27-8.1-30.22-12.11a.88.88 0 01-.62-.58c-6.15-18.22-15.85-35.79-30.26-48.72z"/><path fill="#fff" d="M203.01 209.42c-.89 6.03-3.9 12.76-9.66 15.56a1.36 1.36 0 01-1.73-.47c-4.31-6.47-2.93-10.93-3.94-18.35a.62.62 0 00-.65-.53q-10.04.54-18.06-5.42a.68.67-48.8 01-.06-1.03c5.82-5.54 10.95-7.94 18.31-10.98a.51.5 67.8 00.27-.66q-3.56-8.5-2.63-17.71a.42.42 0 01.5-.37c6.33 1.23 11.48 5.76 15.38 10.68a.79.78 63.1 00.81.27c5.39-1.48 9.12-3.42 15.57-3.36a.52.52 0 01.52.5c.31 7.3 1.26 11.24-5.12 16.15a.45.45 0 00-.06.67c1.68 1.87 5.3 3.68 5.3 6.63q-.02 5.38-.01 10.77a.5.5 0 01-.48.5q-7.27.24-13.69-3.13a.39.39 0 00-.57.28z"/><path fill="#fefddf" d="M256.84 174.33a.5.49-86.5 01.56-.5c6.78.91 12.74 1.57 19.18-1.48a.36.36 0 01.51.28c.17 1.35.47 2.87.46 4.17q-.26 35.23.27 70.01a.81.81 0 01-1.06.78q-9.18-2.95-18.82-2.36a.55.55 0 01-.59-.55l-.51-70.35zM220.1 177.76l.71.53a.84.84 0 01.28 1l-1.28 3.15q-.3.72-.37-.06-.22-2.36.39-4.53a.17.17 0 01.27-.09z"/><path fill="#fff" d="M315.74 229.29c-6.16 3.16-10.43 5.46-17.58 3.41a1.77 1.77 0 01-1.15-2.38q3.59-8.72 11.25-14.3a.57.56 50.8 00.08-.84q-6.5-7.08-7.86-16.63a1.15 1.15 0 011.22-1.31q10.67.76 19.45 6.71a.51.5 32.2 00.71-.16q4.64-7.84 11.74-13.48a.56.55 51.2 01.78.09c3.65 4.59 2.89 13.26 2.25 18.55a.68.68 0 00.42.72q8.78 3.72 13.76 11.91a1.2 1.2 0 01-.44 1.67q-7.7 4.31-16.47 3.19a.44.44 0 00-.5.42c-.28 7.66-2.19 11.94-6.09 18.34a.48.47 32.9 01-.68.14q-8.37-5.84-10.39-15.81a.35.35 0 00-.5-.24zM220.25 211.44l-.01-5.12a.3.3 0 01.59-.09l1.36 4.32a.3.3 0 01-.14.35l-1.35.8a.3.3 0 01-.45-.26z"/><path fill="#909395" d="M329.85 308.79c-22.94-3.43-45.83-2.66-68.78.27-5.17.66-9.88 1.84-14.82 3.26a1.49 1.49 0 01-1.9-1.39c-.1-3.79.39-8.07.27-11.56-.32-8.75-1.52-18.26-5.8-26.06-2.42-4.41-4.48-8.93-7.79-12.77q-2.01-2.35-4.01-4.71a.34.34 0 01.15-.54c14.37-4.78 28.4-6.04 43.6-2.98 17.41 3.49 31.94 9.04 42.92 23.76 5.86 7.84 10.03 17.75 15.58 28.37q.95 1.82 1.06 3.92a.42.41 2.8 01-.48.43z"/><path fill="#fefddf" d="M220.96 305.25q.94-8.41-.42-16.75l-.06-29.96a.48.48 0 01.72-.41c8.38 5.01 13.29 18.06 15.75 26.96 2.51 9.1 1.71 19.9 1.34 29.5a2.19 2.18-89.6 01-2.13 2.1l-14.42.31a.6.59-1 01-.61-.58l-.17-11.17z"/><path fill="#fff" d="M429.85 272.47q3.24-6.06 8.88-9.95a.51.51 0 01.76.23q2.89 6.76.69 13.76a.69.68-66.9 00.32.81q6.67 3.73 10.83 10.13a.48.48 0 01-.21.7q-6.41 2.86-13.4 2.21a.67.67 0 00-.73.67l.02 4.33a1.99 1.93 61.5 01-.29 1.03l-4.31 7.17a.61.61 0 01-.84.21q-6.2-3.69-7.59-10.67a.43.43 0 00-.58-.32c-2.92 1.16-13.16 3.9-13.92.17-.63-3.12 6.42-9.78 8.73-11.57a.49.49 0 00.06-.71q-4.81-5.44-5.28-12.71a1.21 1.2 10 011.69-1.18c2.98 1.31 5.99 1.11 8.99 2.9q2.69 1.61 5.5 3a.52.51-62.1 00.68-.21z"/><path fill="#909395" d="M220.54 288.5q1.36 8.34.42 16.75-.75-8.36-.42-16.75zM367.35 357.95a.87.87 0 00.46-1.55q-13.07-10.07-28.67-15.2-37.85-12.44-77.67-12.4c-4.8.01-11.27.5-16.96.46-4.55-.02-12.03 16.37-13.66 20.27q-.2.48-.58.85l-.95.91a.99.99 0 01-.89.25c-2.87-.59 12.93-28.42 14.33-31.1a1.22 1.18-83.4 01.71-.58q21.02-6.07 41.47-6.98c7.81-.34 19.58-.75 28.08.02 23.8 2.16 49.23 10.44 67.37 26.64 6.73 6.01 13.55 12.21 19.3 19.19q2.35 2.86 5.03 5.43c1.87 1.79 1.3 10.92 1.55 13.71a.7.69 4 00.55.62c2.23.47 1.48-8.11 1.4-9.59a.38.38 0 01.71-.2c2.53 4.9 5.85 7.71 8.19 13.6a1.5 1.48 42.9 01.04.95c-3.39 11.44-6.44 24.01-11.62 34.76q-.22.46-.15-.04.85-6.39 2.88-12.46c1.57-4.68-10.57-19.93-13.87-23.5a.4.4 0 00-.66.41c1.76 4.71 2.38 12.01-1.84 15.55-6.96 5.82-19.85-6.85-23.89-12.35q-5.83-7.94-7.25-18.14-.81-5.76 3.68-9.06a1.72 1.65 23.5 01.86-.32l2.05-.15zM233.58 322.66a.28.28 0 01.27.2c.38 1.27-9.45 19.02-10.9 21.97a.9.89-31.9 01-1.7-.39v-20.03a1.82 1.82 0 011.83-1.82l10.5.07zM206.94 344.79l10.43-16.65a.8.8 0 011.48.42l.03 19.65a.8.8 0 01-1.02.77l-10.46-3a.8.8 0 01-.46-1.19zM184.17 346.54a.14.14 0 01.06-.27q.1 0 .25.04 16.91 4.64 33.82 9.25a.87.86-82.9 01.63.82l.1 4.17a.43.42-79.5 01-.59.41l-34.27-14.42z"/><ellipse fill="#909395" transform="rotate(28.2 -539.593 855.417)" rx="8.55" ry="5.72"/><path fill="#909395" d="M293.53 384.67c-24.32-5.56-49.94-13.28-71.55-22.11a.92.91 9.7 01-.57-.8l-.28-5.04a.44.44 0 01.57-.44q37.07 11.21 71.92 28.14a.13.13 0 01-.09.25zM364.29 404.36a23.2 23.2 0 01-23.2 23.2 23.2 23.2 0 01-23.2-23.2 23.2 23.2 0 0123.2-23.2 23.2 23.2 0 0123.2 23.2zm-5.12-.01a18.15 18.15 0 00-18.15-18.15 18.15 18.15 0 00-18.15 18.15 18.15 18.15 0 0018.15 18.15 18.15 18.15 0 0018.15-18.15z"/><path fill="#222120" d="M359.17 404.35a18.15 18.15 0 01-18.15 18.15 18.15 18.15 0 01-18.15-18.15 18.15 18.15 0 0118.15-18.15 18.15 18.15 0 0118.15 18.15zm-5 .05a13.12 13.12 0 00-13.12-13.12 13.12 13.12 0 00-13.12 13.12 13.12 13.12 0 0013.12 13.12 13.12 13.12 0 0013.12-13.12z"/><path fill="#909395" d="M430.03 434.24c.53 5.16-25.67 24.75-30.94 28.36q-3.06 2.1-6.29 2.76-.5.1-.26-.35c5.92-11.01 20.54-13.45 25.23-24.38 2.85-6.62-1.76-21.31-4.29-27.91-1.03-2.7 5.09-20.28 6.25-24.04a.43.43 0 01.82-.01q7.06 22.23 9.48 45.57z"/><circle fill="#fff" cx="341.05" cy="404.4" r="13.12"/><path d="M212.65 400.84q-1.21 3.85-1.33 7.34a1.64 1.64 0 00.26.92l3.21 4.9q.02.28-.19.47a.49.49 0 01-.72-.06c-1.74-2.25-4.39-4.77-4.25-7.7q.16-3.63 3.02-5.87z"/><path fill="#909395" d="M214.79 414l-3.21-4.9a1.64 1.64 0 01-.26-.92q.12-3.49 1.33-7.34l3.69-.01a1.05 1.05 0 011.04 1.19c-.67 4.8.44 7.44 3.64 11.27q21.64 25.85 50.02 43.91c8.02 5.1 18.23 9 26.53 11.99q11.67 4.21 25.37 4.64 32.89 1.04 63.71-10.25a1.34 1.33 3.3 00.75-.66l8.82-17.48a.24.24 0 01.45.16c-.87 3.59-3.1 7.57-4.15 10.02q-2.84 6.63-5.85 13.17a1.43 1.41-2.1 01-.64.68q-2.79 1.42-7.29 2.7-28.22 7.97-56.4 7.76-6.95-.05-13.51-1.61c-18.73-4.45-36.37-11.82-51.84-23.5-16.39-12.38-29.33-24.35-42.2-40.82zM190.2 478.55c-13.81-6.96-24.73-17.4-33.16-30.27a.3.3 0 01.23-.47q8.11-.5 15.51-3.86a.63.62 56.9 01.73.16c6.43 7.24 13.04 12.88 22.06 17.37q26.73 13.32 55.75 20.87.49.13.02.31-17.4 6.96-35.62 4.91c-8.85-.99-17.44-4.95-25.52-9.02z"/><path fill="#fff" d="M295.27 511.09a.92.91 16.1 00.64 1.14q10.32 2.86 17.94 10.42a.43.43 0 01-.04.65q-7.77 6.04-17.7 5.84a.9.9 0 00-.91 1.01q1.11 9.28-2.98 17.67a1.49 1.46-87.5 01-.77.72q-1.81.72-3.78-.78-6.8-5.18-6.87-14.08a.4.4 0 00-.53-.37c-7.57 2.64-11.11 4.5-19.32 2.56a.4.4 0 01-.27-.56c1.42-2.85 1.51-5.85 3.04-8.76 1.44-2.73 4.18-5.05 6.47-7.42a.58.57-43.4 00.03-.75c-3.79-4.53-8.03-8.78-8.8-14.96a1.29 1.29 0 011.14-1.44q9.57-.98 18.54 2.47a.71.7 25.5 00.87-.3q4.97-8.47 14.62-10.78a.49.49 0 01.6.44q.57 8.8-1.92 17.28z"/><path fill="#222120" d="M13.19 591H1.44q5.87-.63 11.75 0zM33.44 591H17.69q7.87-.63 15.75 0zM576.44 591h-6.75q3.37-.63 6.75 0z"/></svg>