<svg xmlns="http://www.w3.org/2000/svg" viewBox="0 0 591 591"><g stroke-width="2" fill="none"><path stroke="#0f0f0e" vector-effect="non-scaling-stroke" d="M590.06 0l.19.29"/><path stroke="#575758" vector-effect="non-scaling-stroke" d="M590.25.29l.04 589.46"/><path stroke="#7f7f7f" vector-effect="non-scaling-stroke" d="M590.29 589.75l-.54.54"/><path stroke="#575758" vector-effect="non-scaling-stroke" d="M589.75 590.29L.82 590.06a.34.34 0 00-.32.47l.19.47"/><path stroke="#7e7f70" vector-effect="non-scaling-stroke" d="M4.29 27.5v558.29a.47.46 0 00.47.46h580.99a.5.5 0 00.5-.5V5.51a1.02.98-28.5 01.18-.57q.22-.31-.26-.61a.45.45 0 00-.24-.07l-560.68.03"/><path stroke="#7f7f7f" vector-effect="non-scaling-stroke" d="M25.25 4.29l-20.44.02a.5.5 0 00-.5.5L4.29 27.5"/><path stroke="#fdfeef" vector-effect="non-scaling-stroke" d="M25.25 4.29l-.63 2.31a1.35 1.29 81.6 01-.53.75q-4.04 2.71-7.82 5.77c-3.92 3.17-6.1 8.44-8.27 12.89a1.11 1.1 4.3 01-.68.58l-3.03.91"/><path stroke="#666" vector-effect="non-scaling-stroke" d="M591 587.31c-.84-.45-.25-537.06-.25-586.81a.25.24-86.1 00-.21-.25q-.17-.02-.29.04"/><path stroke="#d6d6d7" vector-effect="non-scaling-stroke" d="M591 590.06l-.71-.31"/><path stroke="#fbf1c5" vector-effect="non-scaling-stroke" d="M100.58 37.57q-1.73-.4-4.26-.44-19.35-.33-35.41.07-8.65.21-12.28 1.54C38.06 42.6 37.37 51.08 37.22 62.16q-.26 18.47-.23 36.95c0 .76.36 1.61.31 2.56a.51.51 0 00.86.4c13.01-12.75 24.62-24.52 38.5-38.29q12.51-12.42 24.08-25.72a.3.3 0 00-.16-.49"/><path stroke="#7e7f70" vector-effect="non-scaling-stroke" d="M173.04 496.75l-4.47-14.11q-.16-.49-.06-1 .19-.99-.53-1.54a1.7 1.67-79.2 01-.56-.84q-1.51-5.4-1.21-11.01"/><path stroke="#8d8e7e" vector-effect="non-scaling-stroke" d="M166.21 468.25c.2-3.25-2.13-7.81-2.52-11.49a.86.86 0 00-1.68-.16c-5.44 17.99-2.73 37.93 6.2 54.38a.31.31 0 01-.25.45q-10.03.89-19.92 2.78a.33.33 0 01-.38-.42c4.05-14.43 6.08-27.12 2.31-41.28-1.22-4.55-1.98-7.31-5.24-10.08a.87.86 16.7 00-1.42.76c1.29 10.41 2.23 21.52-.26 31.68q-2.23 9.06-6.09 17.71-.18.41-.43.03c-6.89-10.69-9.88-22.46-12.78-34.73a.33.33 0 00-.53-.18q-1.25 1.04-1.48 2.73-2.63 19.81 6.95 37.21a.79.79 0 01-.49 1.14q-14.23 3.89-27.79 9.69a.67.66-19.4 00-.38.78l1.59 5.75a.66.66 0 00.72.48q16.57-2.22 33.25-1.77c17.09.46 35.43.54 47.84 1.63q21.13 1.86 42.32 2.99 18.14.97 33.93-2.17c28.44-5.67 48.06-31.86 56.5-58.38a.37.37 0 01.68-.07c8.97 17.02 6.73 43.52 2.49 61.53a1.08 1.07 32.6 00.2.89c4.37 5.51 6.93 11.77 11.54 17.08a1.12 1.1-20.2 00.84.38c11.57.01 22.12-5.45 33.5-3.25 16.04 3.09 25.28 4.35 40.38 3.59a1.72 1.67 58.3 01.92.23q3.63 2.14 6.52 2.11 11.73-.14 23.47.19c3.52.1 6.31 1.51 9.72 2.37a.78.76-65 00.82-.31l.89-1.25a1.81 1.78-83.5 01.78-.63c4.94-2.05 10.61-4.12 14.76-2.34a1.14 1.14 0 001.45-1.59c-3.39-6.3-7.69-8.55-14.87-11.34q-.48-.18.03-.25 7.92-.97 15.7.46 3.92.72 7.06.67 12.14-.18 24.21 1.37a.41.4-85.4 00.45-.39l.11-2.28a.79.79 0 01.65-.74q6.86-1.23 13.74-.15a.76.76 0 00.79-1.11c-3.46-6.51-12.3-14.03-19.54-16.02q-11.8-3.24-20.72-4.43-29.36-3.92-53.78-10.71c-1.55-.43-1.38-.99-1.71-2.29-2.61-10.36-4.66-18.42-5.35-28.82q-2.02-30.82 1.7-57.5 2.64-18.96 5-38.05a1.2 1.19-14.3 01.51-.85q7.47-5.2 13.43-12.16a1.02 1.02 0 011.64.12c5.34 8.57 11.77 20.21 12.06 29.53a1.12 1.1-23.3 01-.35.85q-5.29 5.11-5.75 12.35c-.26 4.05-3 6.79-6.31 8.73a1.11 1.1-48.4 01-1.01.06q-1.53-.7-2.37-2.22-.57-1.04-.49.14c.36 5.94 3.12 10.85 9.48 11.29a.64.64 0 01.59.51q1.14 5.37 6.48 6.57c5.04 1.13 16.06 3.94 22.31.94a.85.85 0 00.47-.71q.36-6.53.91-13.06c.36-4.16 4.78-8.39 7.79-10.99q1.71-1.48 1.98-2.74c3.16-14.91 2.81-28.75 1.1-43.63q-.43-3.68-1.89-8.05-6.07-18.01-5.97-38.56c.03-6.05 2.23-6.53 5.61-10.29 7.16-7.97 20.27-25.08 18.59-34.64-1.63-9.27-4.67-21.35-5.24-31.99q-1.03-19.23.04-38.56a1.35 1.35 0 01.38-.86c12.75-13.19 9.67-32.6 1.06-47.08q-.73-1.22-.8-2.67a1.01 1.01 0 01.38-.83c14.49-11.42 33.35-33.95 18.78-52.57a.48.48 0 00-.69-.06q-10.5 9.3-20.76 18.89c-8.47 7.92-13.32 14.47-13.2 26.18a.41.4-3 01-.38.41l-9.86.87a.63.63 0 01-.62-.37c-9.13-20.01-23.42-25.9-42.45-33.14q-.48-.18-.89-.49l-1.09-.82q-.54-.41-.56.27c-.54 20.93 7.53 37.55 25.37 48.12a1.28 1.28 0 01.52 1.63c-4.05 8.97-5.53 20.35-2.24 29.74 4.39 12.55-15.02 54.31-28.96 57.31q-.5.11-.32-.37c1.18-3.35 4.54-10.35 3.34-13.69q-3.85-10.71-13.63-15.84c-3.97-2.08-6.69-3.75-10.09-.19q-8.51 8.89-11.6 20.09c-1.06 3.87 1.55 6.97 3.71 9.79a.51.51 0 01-.44.82q-12.09-.8-24.15.08a.32.32 0 01-.31-.45q5.17-11.02 5.79-23.11c.24-4.63-1.84-6.61-5.2-9.24-13.22-10.34-25.01-18.04-40.97-21.52-8.62-1.88-10.51 3.37-13.7 9.77-5.85 11.72-7.43 25.57-8.46 38.81-.8 10.19 9.69 16.89 17.22 21.57a.36.36 0 010 .62q-8.5 5.29-15.9 12.06a.64.64 0 01-1.07-.51q.62-10.39-4.92-19.17a1.3 1.29 82.1 00-.68-.52c-16.23-5.16-36.9-5.15-53.03 1.48-5.45 2.24-9.98 3.29-8.3 9.65q3.91 14.81 11.86 32.42c1.26 2.79 7.49 15.57 9.84 16.46q7.93 2.97 16.44 3.59a.54.54 0 01.46.75l-4.59 10.66a.48.47-53.1 01-.8.12c-2.04-2.46-7.74-8.7-11.28-7.3-5.85 2.32-29.87 15.03-27.34 22.71 3.85 11.66 8.68 19.91 19.38 26.21q1.63.96 4.06 1.6a1.39 1.37-50.2 00.95-.09l3.86-1.88a.47.47 0 01.68.45l-.58 11.71a1.56 1.56 0 01-1.88 1.45c-3.54-.73-5.93.41-8.89 2.68-6.01 4.62-16.78 10.49-11.14 18.46 4.68 6.61 8.1 12.55 16.62 15.82a1.25 1.22-44.2 00.91 0l2.78-1.06a.47.46-11.2 01.63.42l.11 5.99a.82.82 0 01-.77.84q-9.93.6-15.72 8.33c-3.95 5.29 4.98 14.84 8.65 18.49q3.81 3.8 8.49 3.61a.49.49 0 01.51.51l-.17 4.57a.56.54 88.3 01-.48.53q-6.73.84-9.54 2.34c-2.31 1.24-8.44 6-7.18 9.03q2.72 6.53 7.13 12.14a1.13 1.12 71.3 00.86.43l6.4.11a.43.42-85.2 01.41.49c-1.86 12-31.47 13.45-40.23 13.49-4.75.01-9.21.64-13.76 1a.93.92-83.2 01-.95-1.21c4.84-14.9 6.94-28.23 1.39-43.32-1.61-4.35-7-14.1-12.14-15.4a.95.95 0 00-1.15 1.16c3.77 14.27 6.98 28.06 1.92 42.63q-2.93 8.46-6.07 16.9a.87.86 35.3 01-1.48.25q-5.23-6.31-8.66-13.77"/><path stroke="#0f0f0e" vector-effect="non-scaling-stroke" d="M166.21 468.25l-.53-.28a.36.36 0 00-.53.29c-1.09 10.25 2 19.85 5.85 29.21q.88 2.12 1.75 0l.29-.72"/><path stroke="#d5d6c8" vector-effect="non-scaling-stroke" d="M170.81 349.47q2.65.68 5.05-.71a.31.31 0 00.14-.31l-.05-.31a.29.28-9.7 00-.34-.23l-4.78 1.01a.28.28 0 00-.02.55"/><path stroke="#666" vector-effect="non-scaling-stroke" d="M491.95 187.16c.12 4.2-3.57 7.29-5.47 10.14a.98.97 48.6 00-.06 1l3.03 5.76q.37.69.69-.02c3.15-7.1 7.53-14.08 5.85-22.28q-2.81-13.74-9.37-26.23a.29.29 0 00-.55.19q2.01 10.61-1.32 21.03-.75 2.38-.3 7.8.12 1.45.42.03 1.07-4.92 3.71-9.1a1.6 1.6 0 012.77.09c2.24 4.14 2.93 9.58-3.6 9.72a.33.33 0 00-.16.61q1.78 1.1 3.77.77a.51.51 0 01.59.49M456.72 175.95c-3.01 2.97-4.98 9.07-.94 12.06q2.92 2.17 6.57-.49a.99.98-17.1 00.4-.75l.02-.37a.37.37 0 00-.53-.34c-8.42 4.15-8.56-6.49-3.65-9.38a.63.63 0 01.88.26l3.18 6.41q.38.75.61-.05 1.76-6.03-.3-11.86a.51.5 63.3 00-.75-.25c-2.01 1.35-4.23 3.5-5.49 4.76"/><path stroke="#8e8e8d" vector-effect="non-scaling-stroke" d="M480.29 205.25q-1.83 2.24-4.31 3.74a.52.52 0 01-.71-.17q-2.39-3.87-6.35-6.16a.44.44 0 00-.64.23c-3.05 8.51-5.39 17.01 4.18 22.18a.64.63 23.5 00.9-.35l.4-1.17a.81.81 0 00-.26-.9c-4.8-3.83-7.88-6.93-4.56-13.4a.32.32 0 01.54-.05c4.14 5.28 9.74 4.69 14.8.94a.27.26-26 01.42.14q1.92 7-3.86 10.6a.74.73 61.9 00-.28.93l1.2 2.66a.45.45 0 00.72.14c5.87-5.67 4.55-16.57 2.48-23.61"/><path stroke="#666" vector-effect="non-scaling-stroke" d="M484.96 201c-2.72-7.16-6.17-13.02-7.75-21.23q-.02-.09-.08-.02l-.2.19a.44.41 67.6 00-.11.29q.28 6.6 1.54 13.06c.7 3.57.39 7.98 1.93 11.96"/><path stroke="#d6d6d7" vector-effect="non-scaling-stroke" d="M484.96 201q-1.73 2.8-4.67 4.25"/><path stroke="#666" vector-effect="non-scaling-stroke" d="M462.31 211.12q2.17-4.11-1.55-5.42-.57-.21-.97-.65l-7.79-8.71q-.5-.56-.28.15 2.78 8.84 9.74 14.8a.56.55-55.7 00.85-.17M476.64 238.7q-.84 10.65 2.91 20.51a1 .99 51.1 01-.09.89q-3.58 5.59-6.81 11.38c-1.75 3.14-5.56 6.49-6.71 9.24-5.5 13.22-17 25.23-26.42 35.89a1.57 1.53-21.8 00-.39.88q-.46 4.49.97 8.76c.51 1.51.19 3.05.72 4.44q2.9 7.64 6.25 14.15.68 1.32 1.43.03l5.76-9.91q.22-.39.25-.83c.57-8.49 5.15-11.9 9.32-17.82 5.18-7.33 10.03-14.02 13.71-22.31"/><path stroke="#585a5a" vector-effect="non-scaling-stroke" d="M477.54 294l2.6-5.04q.24-.47.17.06-.89 6.74-3.35 13.04c-1.65 4.24-4.78 10.36-7.74 13.77q-4.31 4.95-7.97 10.38"/><path stroke="#666" vector-effect="non-scaling-stroke" d="M461.25 326.21q-3.53 6.95-4.34 14.8a1.69 1.64 34.5 00.19.95q5.27 9.78 6.58 20.74c1.04 8.75-1.94 18.37 6.53 24.25"/><path stroke="#585a5a" vector-effect="non-scaling-stroke" d="M470.21 386.95q2.58 4.13 3.75 9.05"/><path stroke="#666" vector-effect="non-scaling-stroke" d="M473.96 396q.53 2.83 2.18 5.22a.77.77 0 001.4-.38q1-14.9-.02-30.12-.21-3.02-1.46-6.13-2.59-6.45-4.6-13.09"/><path stroke="#585a5a" vector-effect="non-scaling-stroke" d="M471.46 351.5c-3.58-11.98-4.83-21.61-3.67-30.99.38-3.08 3.11-4.69 4.55-6.45 6.53-7.95 20.8-24.02 19.42-34.85-1.27-10.03-3.53-20.84-4.1-30.02q-.72-11.61-.12-23.29.04-.7-.49-.24-4.66 4.09-10.39 6.47a.98.96-6 00-.58.7q-.6 3.04.56 5.87"/><path stroke="#a0a2a4" vector-effect="non-scaling-stroke" d="M471.46 351.5c-1.88-.29.9 6.33 1.15 7.33q.45 1.79 1.77 4.71c1.8 3.98 1.71 9.29 1.64 13.74-.06 4.05 1.1 8.59.41 13.13a1.49 1.49 0 00.15.93c1.35 2.65-1.21 3.31-2.62 4.66M470.21 386.95q-3.83-7.9-4.17-11.21c-1.05-10.19-.49-25.34-7.4-33.62a2.51 2.5 36.1 01-.4-2.51q2.25-5.73 4.09-11.54c.31-1-.01-1.73-1.08-1.86M477.54 294q-.46-1.12-.78-1.17a1.68 1.67-76.6 00-1.85 1.14c-1.65 5.08-3 8.26-6.5 12.78-2.78 3.59-4.87 7.65-7.58 11.03-4.3 5.36-6.64 8.72-7.98 15.51-.63 3.18-2.89 5.13-4.55 7.69a.74.74 0 01-1.26-.03q-3.16-5.43-5.04-11.42a1.45 1.45 0 01.03-.95c1.35-3.68-1.21-4.69-1.62-7.56-.18-1.28-.31-4.46 1.32-4.81a1.57 1.54 14 00.82-.48q8.65-9.86 16.94-20.04c3.44-4.22 5.43-8.56 7.69-13.39.82-1.75 2.69-2.59 3.58-4.47 1.37-2.86 2.52-5.18 4.47-8.06 2.27-3.35 3.43-6.55 6.1-9.71a1.08 1.07 59.5 00.23-.92q-.43-2.05-1.92-3.58a1.67 1.65 18.7 01-.47-.93l-2.53-15.93"/><path stroke="#585a5a" vector-effect="non-scaling-stroke" d="M430.6 346.26q-3.71-2.99-7.93-4.51c-4.87-1.76-7.37-3.1-11.14-5.54a.53.52 88.5 00-.71.75q4.04 5.62 9.11 10.76"/><path stroke="#666" vector-effect="non-scaling-stroke" d="M419.93 347.72c15.76 14 25.84 29.13 31.23 49.51a.31.31 0 00.52.15q.55-.55.61-1.38"/><path stroke="#585a5a" vector-effect="non-scaling-stroke" d="M452.29 396l1.67-.54q.48-.15.18.25l-1.64 2.25"/><path stroke="#666" vector-effect="non-scaling-stroke" d="M452.5 397.96l-6.98 9.86a.23.2 55.2 00-.02.18l.08.25a.17.17 0 00.28.07q6.6-6.14 14.43-10.57"/><path stroke="#585a5a" vector-effect="non-scaling-stroke" d="M460.29 397.75l2.92-2"/><path stroke="#666" vector-effect="non-scaling-stroke" d="M463.21 395.75q.49 1.55 2.12 1.87a.33.33 0 00.38-.41c-2.6-9.8-8.25-19.22-12.86-28.24-8.65-16.92-19.86-32.25-18.47-52.47a1.56 1.54-23.9 01.35-.89c7.96-9.9 16.77-19.01 24.49-29.17 8.43-11.1 8.7-21.17 7.99-34.59a.11.1 87.6 00-.11-.11l-.1.01a.29.15-87.3 00-.15.26c-2.4 25.11-17.87 36.22-34.36 54.21q-2.01 2.18-2.14 4.59-.9 16.16.25 35.45"/><path stroke="#a0a2a4" vector-effect="non-scaling-stroke" d="M463.21 395.75c.47-5.25-6.06-14.28-8.71-18.96-2.3-4.07-3.22-9.05-5.84-13.36-3.73-6.13-6.39-11.8-10.44-17.23a1.26 1.26 0 01-.23-.89c.58-4.62-2.79-8.5-4.67-12.59a1.76 1.71 37 01-.14-.89q.36-3.1-.7-6.1-.38-1.07-.52.06-1.26 9.74.53 19.41a1.07 1.06-2.5 01-1.15 1.25q-.45-.05-.74-.19M460.29 397.75l-.03-.34a.31.3 78.3 00-.39-.26c-1.85.59-6.11 3.9-7.37.81M452.29 396c-2.28-6.64-3.21-13.06-6.9-19.71-2.98-5.35-4.83-8.86-8.16-12.51-2.46-2.69-4.48-6.1-7.4-8.62q-4.04-3.49-6.23-8.44a.54.53-23.4 00-.7-.27l-2.97 1.27"/><path stroke="#585a5a" vector-effect="non-scaling-stroke" d="M316.79 435q.3-.26.51-.26a.68.68 0 01.69.66q.79 18.67 3.22 37.1"/><path stroke="#666" vector-effect="non-scaling-stroke" d="M321.21 472.5c.4 5.34 4.15 9.56 5.19 15.07 3.13 16.54 2.27 31.99-.43 49.18-.51 3.28 6.5 11.85 8.52 14.86a.8.78 67.6 00.79.34l12.97-2.24"/><path stroke="#585a5a" vector-effect="non-scaling-stroke" d="M348.25 549.71l7.75-1.42"/><path stroke="#666" vector-effect="non-scaling-stroke" d="M356 548.29c17.21-.57 36.73-1.34 51.96-.29"/><path stroke="#585a5a" vector-effect="non-scaling-stroke" d="M407.96 548q7.64 1.95 15.52 2.87.51.06.18-.33c-1.68-1.99-7.58-4.76-9.9-5.25q-.49-.11-.04-.33 1.95-.95 2.6-.88 11.07 1.16 22.13 2.54.5.06.04-.15-8.07-3.72-16.93-4.74-7.15-.82-14.31-1.44"/><path stroke="#666" vector-effect="non-scaling-stroke" d="M407.25 540.29q-11.29-1.63-22.43-4.04c-8.22-1.78-19.1-3.81-28.28-6.93a3.05 3.04 84.9 01-1.69-1.42q-7.74-14.19-9.6-30.1-1.49-12.75-1.47-16.24c.1-27.1 2.53-50.55 6.12-78.5q2.66-20.78 1.76-41.75-.14-3.27-1.04-6.62"/><path stroke="#585a5a" vector-effect="non-scaling-stroke" d="M350.62 354.69q-2.1-13.85-10.33-25.44"/><path stroke="#666" vector-effect="non-scaling-stroke" d="M340.29 329.25c-9.43-16.1-29.12-23.64-44.65-10.11q-.38.33.09.15c9.83-3.88 24.22-6.05 32.6 2.15q4.41 4.32 5.67 7.35c7.13 17.15 9 34.2 6.42 52.51-2.81 19.9-8.98 37.49-25.34 50.28-3.68 2.88-5.99.49-9-1.56q-.43-.29-.31.21c1.12 4.56 6.85 7.8 11.02 4.77"/><path stroke="#a0a2a4" vector-effect="non-scaling-stroke" d="M340.29 329.25l-1.29.45a.59.58-15.7 01-.76-.42q-.31-1.33-1.64-1.03a.49.49 0 00-.37.61q1.91 7.18 4.5 14.15 1.27 3.41 1.56 6.73.67 8 1.27 16.01.44 5.93-1.29 20.51-.42 3.53-1.9 7.24c-2.18 5.49-3.56 12.49-6.72 17.38q-1.02 1.57-2.15 4.14-3.05 6.93-10.03 12.9c-1.65 1.42-2.98 3.09-4.61 4.58a.97.96 65.4 00-.31.85l.24 1.65M350.62 354.69q-.97 4.43-.52 8.84.45 4.44.32 6.62c-.63 10.41-.68 20.43-2.17 30.94q-2.25 15.82-3.09 31.78c-.24 4.4-.89 8.95-1.25 13.45-.28 3.53-1.39 7.63-1.44 11.61q-.02 1.31-.63 3.95c-.57 2.43.38 4.01.23 6.28-.13 1.97-.08 3.07.27 5.47.32 2.09-.39 3.95-.29 5.82q.36 7.05 1.19 14.04c.36 3.11 2.07 5.73.25 9.5a.85.84 40.4 00.07.86c.63.9 1.19 1.66 1.44 2.79 1.97 8.88 5.82 14.99 8.25 21.91a1.01 1-88.7 00.56.59q1.8.75 3.23 2.02.33.29.76.41 3.69 1.02 7.44 1.81c3.53.74 13.61 4.67 16.53 3.46a.21.21 0 01.22.04l.25.21q.27.23.61.3 8.5 1.83 17.12 2.76c2.23.24 4.18 1.5 6.75 1.35a.57.56 88.4 00.53-.57v-.64M407.96 548q.27-.61.17-1.19a.81.8-88.9 00-.6-.63q-1.36-.35-2.79-.26c-7.65.47-15.98 1.17-23.6.51-3.77-.33-23.43-.81-25.52 1.12a.43.43 0 00-.03.61q.23.26.41.13M348.25 549.71c.96-3.91-6.94-.38-8.31.22q-1.37.6-3.54.42a.89.89 0 01-.75-.56q-.88-2.27-3.09-3.29a1.47 1.45 2.3 01-.74-.79l-2.28-5.84a1.2 1.18 51.2 01.11-1.06q2.37-3.64.17-7.38a1.84 1.76 32 01-.25-.98c.19-6.81.25-12.67.67-20.35.62-11.38.38-22.79-5.91-32.11-1.22-1.81-1.22-3.54-1.4-5.58a.63.62-2.9 00-.64-.57q-.96.02-1.08.66"/><path stroke="#8e8e8d" vector-effect="non-scaling-stroke" d="M452.63 346.58l-1.87 4.68a1.27 1.26 42.6 00.05 1.08l7.14 13.63q1.86 3.56 1.26-.41c-.49-3.25-3.55-18.22-6.05-19.21a.41.41 0 00-.53.23"/><path stroke="#666" vector-effect="non-scaling-stroke" d="M401 378.46q-7.51 5.41-16.04 9.04"/><path stroke="#585a5a" vector-effect="non-scaling-stroke" d="M384.96 387.5q-8.32 2.89-17.13 2.99a.24.23-30.4 00-.12.44q8.58 4.67 18.28 4.49c6.43-.12 10.58.5 15.9-3.79q11.67-9.44 23.07-19.18 2.17-1.85 5.07-5.24a.72.71 44.1 00-.02-.95l-9.84-10.77a.47.47 0 00-.78.13c-4.12 9.91-9.77 16.04-18.39 22.84"/><path stroke="#a0a2a4" vector-effect="non-scaling-stroke" d="M384.96 387.5q-.13 1.22.81 1.04 9.08-1.74 15.71-9.01a.63.63 0 00.02-.82q-.18-.23-.5-.25"/><path stroke="#585a5a" vector-effect="non-scaling-stroke" d="M395 404.54q1.26-1.96 1.62-4.23a.43.42 3.9 00-.43-.49l-10.9.26"/><path stroke="#666" vector-effect="non-scaling-stroke" d="M385.29 400.08q-6.5-.92-12.63-3.25a.4.4 0 00-.54.32c-.59 4.47-.18 9.3-.92 13.26q-3.75 19.97-18.65 34.01c-2.04 1.93-1.72 6.69-1.73 9.32q0 .5.43.24c8.48-5.04 15.25-11.83 22.42-18.48 9.88-9.16 16.63-18.52 21.33-30.96"/><path stroke="#a0a2a4" vector-effect="non-scaling-stroke" d="M385.29 400.08q-5.61.96-10.98-1.09a.39.39 0 00-.53.31q-.31 2.24-.67 8.6-.55 9.5-5.48 18.36c-4.06 7.29-5.85 13.17-13.23 18.1q-3.36 2.25-1.24 5.49a1.3 1.3 0 002.02.19q3.34-3.46 7.32-5.99c1.11-.71 1.34-2.15 2.43-3.09q3.08-2.64 6.11-5.35c1.78-1.59 4.96-3.66 7.03-6.24 1.51-1.87 3.9-3.16 5.03-5.29 2.79-5.27 6.25-9.82 8.34-14.51.6-1.35 1.5-5.64 3.56-5.03"/><path stroke="#585a5a" vector-effect="non-scaling-stroke" d="M395.71 456.5l-6.61 9.41a1.17 1.15 58 00-.2.89l.31 1.7"/><path stroke="#666" vector-effect="non-scaling-stroke" d="M389.21 468.5c5.39 15.22 3.84 36.61 2.25 53.01a1.96 1.86 37 00.16.97c1.23 2.7 2.22 4.8 3.05 7.83 1.17 4.27 17.67 3.58 21.16 3.94q5.32.54 10.67.79"/><path stroke="#585a5a" vector-effect="non-scaling-stroke" d="M426.5 535.04c6.81.23 13.46-.85 20.17-.08q13.21 1.52 26.55 1.51a.4.4 0 00.38-.51c-.7-2.41-12.38-4.05-14.83-4.17a.32.32 0 01-.26-.49c1.49-2.39 26.16.55 30.63.46a.29.29 0 00.06-.58q-16.09-3.84-32.92-4.46"/><path stroke="#666" vector-effect="non-scaling-stroke" d="M456.28 526.72c-13.15-2.83-27.08-5.21-39.69-9.86-4.25-1.57-5.04-7.32-6.2-11.18"/><path stroke="#585a5a" vector-effect="non-scaling-stroke" d="M410.39 505.68l-3.89-26.72"/><path stroke="#666" vector-effect="non-scaling-stroke" d="M406.5 478.96q-1.22-18.75-.29-40.02.14-3.21.75-5.38a.24.23 8.2 00-.23-.3q-.2.01-.26.19-4.05 12.14-10.76 23.05"/><path stroke="#a0a2a4" vector-effect="non-scaling-stroke" d="M406.5 478.96l-.7.43a.38.37-17.6 01-.57-.29c-.3-5.12.06-9.58-.9-14.88q-1.4-7.76.55-15.53c.3-1.19.16-1.94-.94-2.48a.73.72-66.2 00-.99.39c-1.42 3.68-3.45 6.38-5.19 9.88a.99.96 8 01-.73.53q-.74.11-1.32-.51M410.39 505.68q-1.03 8.13 5.11 12.16c2.89 1.89 7.36 2.43 10.98 3.3 2.5.59 5.43 1.87 8.3 2.42q5.74 1.11 6.35 1.25 7.46 1.76 15.15 1.91"/><path stroke="#a0a2a4" vector-effect="non-scaling-stroke" d="M426.5 535.04q.79.11 1.57-.13.57-.18.01-.39-1.29-.48-3.58-.49c-4.35-.01-9.27-1.85-14.02-1.57q-6.57.39-13.04-1.07a1.07 1.07 0 01-.77-.68l-1.26-3.51q-.15-.43-.42-.8c-3.16-4.32-2.32-6.88-1.46-11.72a1.03 1.01-10.1 01.51-.72c1.45-.78.69-1.98.8-2.96q.65-5.95.98-11.93c.3-5.51-1.52-11.68-2.09-15.51-.75-5.08-1.2-10.35-3.16-15.13a.81.8-10.5 00-.73-.5q-.5-.01-.63.57"/><path stroke="#8d8e7e" vector-effect="non-scaling-stroke" d="M359.94 523.81q13.97 4.68 28.24 6.88a.61.61 0 00.59-.95c-4.53-6.57-1.6-8.62-1.55-15.38.13-15.38.59-28.92-2.8-45.16q-.77-3.67-2.61-7.59-4.38-9.31-7.68-19.21a.38.37 57.6 00-.62-.14q-10.27 10.4-22.74 18a1.02 1.01 76.6 00-.48.79q-1.27 17.03.6 33.01c.51 4.33 4.68 28.29 9.05 29.75"/><path stroke="#666" vector-effect="non-scaling-stroke" d="M299.29 470c-4.42 19.67-17.41 35.44-30.27 50.31"/><path stroke="#585a5a" vector-effect="non-scaling-stroke" d="M269.02 520.31c-7.31 6.13-17.65 8.59-28.05 11.89q-.48.16.02.18c23.69 1.16 47.72-12.11 59.29-32.31 5.06-8.82 10.54-18.21 12.83-28.21 1.27-5.54-7.76-24.61-12.42-27.87q-1.94-1.36-1.54.98 2.25 12.99.14 25.03"/><path stroke="#a0a2a4" vector-effect="non-scaling-stroke" d="M269.02 520.31q.63 1.47 2.01-.04c4.27-4.69 7.32-9.06 10.71-13.34 4.27-5.4 9-10.16 11.67-16.76.35-.84 1.33-1.37 1.8-2.46q3.64-8.45 5.61-17.44a.46.46 0 00-.42-.55q-.57-.03-1.11.28"/><path stroke="#d6d6d7" vector-effect="non-scaling-stroke" d="M589.94 591l-.19-.71"/><path stroke="#666" vector-effect="non-scaling-stroke" d="M576.44 591q-2.88-.63-5.75 0M12.44 591q-5.63-.63-11.25 0"/></g><path d="M0 0h590.06l.19.29.04 589.46-.54.54-588.93-.23a.34.34 0 00-.32.47l.19.47H0V0zm4.29 27.5v558.29a.47.46 0 00.47.46h580.99a.5.5 0 00.5-.5V5.51a1.02.98-28.5 01.18-.57q.22-.31-.26-.61a.45.45 0 00-.24-.07l-560.68.03-20.44.02a.5.5 0 00-.5.5L4.29 27.5z"/><path fill="#1e1d1c" d="M590.06 0h.94v587.31c-.84-.45-.25-537.06-.25-586.81a.25.24-86.1 00-.21-.25q-.17-.02-.29.04l-.19-.29z"/><path fill="#aeaeaf" d="M590.25.29q.12-.06.29-.04a.25.24-86.1 01.21.25c0 49.75-.59 586.36.25 586.81v2.75l-.71-.31L590.25.29z"/><path fill="#fefefe" d="M25.25 4.29l-.63 2.31a1.35 1.29 81.6 01-.53.75q-4.04 2.71-7.82 5.77c-3.92 3.17-6.1 8.44-8.27 12.89a1.11 1.1 4.3 01-.68.58l-3.03.91.02-22.69a.5.5 0 01.5-.5l20.44-.02z"/><path fill="#fcfee0" d="M25.25 4.29l560.68-.03a.45.45 0 01.24.07q.48.3.26.61a1.02.98-28.5 00-.18.57v580.24a.5.5 0 01-.5.5H4.76a.47.46 0 01-.47-.46V27.5l3.03-.91a1.11 1.1 4.3 00.68-.58c2.17-4.45 4.35-9.72 8.27-12.89q3.78-3.06 7.82-5.77a1.35 1.29 81.6 00.53-.75l.63-2.31zm75.33 33.28q-1.73-.4-4.26-.44-19.35-.33-35.41.07-8.65.21-12.28 1.54C38.06 42.6 37.37 51.08 37.22 62.16q-.26 18.47-.23 36.95c0 .76.36 1.61.31 2.56a.51.51 0 00.86.4c13.01-12.75 24.62-24.52 38.5-38.29q12.51-12.42 24.08-25.72a.3.3 0 00-.16-.49zm72.46 459.18l-4.47-14.11q-.16-.49-.06-1 .19-.99-.53-1.54a1.7 1.67-79.2 01-.56-.84q-1.51-5.4-1.21-11.01c.2-3.25-2.13-7.81-2.52-11.49a.86.86 0 00-1.68-.16c-5.44 17.99-2.73 37.93 6.2 54.38a.31.31 0 01-.25.45q-10.03.89-19.92 2.78a.33.33 0 01-.38-.42c4.05-14.43 6.08-27.12 2.31-41.28-1.22-4.55-1.98-7.31-5.24-10.08a.87.86 16.7 00-1.42.76c1.29 10.41 2.23 21.52-.26 31.68q-2.23 9.06-6.09 17.71-.18.41-.43.03c-6.89-10.69-9.88-22.46-12.78-34.73a.33.33 0 00-.53-.18q-1.25 1.04-1.48 2.73-2.63 19.81 6.95 37.21a.79.79 0 01-.49 1.14q-14.23 3.89-27.79 9.69a.67.66-19.4 00-.38.78l1.59 5.75a.66.66 0 00.72.48q16.57-2.22 33.25-1.77c17.09.46 35.43.54 47.84 1.63q21.13 1.86 42.32 2.99 18.14.97 33.93-2.17c28.44-5.67 48.06-31.86 56.5-58.38a.37.37 0 01.68-.07c8.97 17.02 6.73 43.52 2.49 61.53a1.08 1.07 32.6 00.2.89c4.37 5.51 6.93 11.77 11.54 17.08a1.12 1.1-20.2 00.84.38c11.57.01 22.12-5.45 33.5-3.25 16.04 3.09 25.28 4.35 40.38 3.59a1.72 1.67 58.3 01.92.23q3.63 2.14 6.52 2.11 11.73-.14 23.47.19c3.52.1 6.31 1.51 9.72 2.37a.78.76-65 00.82-.31l.89-1.25a1.81 1.78-83.5 01.78-.63c4.94-2.05 10.61-4.12 14.76-2.34a1.14 1.14 0 001.45-1.59c-3.39-6.3-7.69-8.55-14.87-11.34q-.48-.18.03-.25 7.92-.97 15.7.46 3.92.72 7.06.67 12.14-.18 24.21 1.37a.41.4-85.4 00.45-.39l.11-2.28a.79.79 0 01.65-.74q6.86-1.23 13.74-.15a.76.76 0 00.79-1.11c-3.46-6.51-12.3-14.03-19.54-16.02q-11.8-3.24-20.72-4.43-29.36-3.92-53.78-10.71c-1.55-.43-1.38-.99-1.71-2.29-2.61-10.36-4.66-18.42-5.35-28.82q-2.02-30.82 1.7-57.5 2.64-18.96 5-38.05a1.2 1.19-14.3 01.51-.85q7.47-5.2 13.43-12.16a1.02 1.02 0 011.64.12c5.34 8.57 11.77 20.21 12.06 29.53a1.12 1.1-23.3 01-.35.85q-5.29 5.11-5.75 12.35c-.26 4.05-3 6.79-6.31 8.73a1.11 1.1-48.4 01-1.01.06q-1.53-.7-2.37-2.22-.57-1.04-.49.14c.36 5.94 3.12 10.85 9.48 11.29a.64.64 0 01.59.51q1.14 5.37 6.48 6.57c5.04 1.13 16.06 3.94 22.31.94a.85.85 0 00.47-.71q.36-6.53.91-13.06c.36-4.16 4.78-8.39 7.79-10.99q1.71-1.48 1.98-2.74c3.16-14.91 2.81-28.75 1.1-43.63q-.43-3.68-1.89-8.05-6.07-18.01-5.97-38.56c.03-6.05 2.23-6.53 5.61-10.29 7.16-7.97 20.27-25.08 18.59-34.64-1.63-9.27-4.67-21.35-5.24-31.99q-1.03-19.23.04-38.56a1.35 1.35 0 01.38-.86c12.75-13.19 9.67-32.6 1.06-47.08q-.73-1.22-.8-2.67a1.01 1.01 0 01.38-.83c14.49-11.42 33.35-33.95 18.78-52.57a.48.48 0 00-.69-.06q-10.5 9.3-20.76 18.89c-8.47 7.92-13.32 14.47-13.2 26.18a.41.4-3 01-.38.41l-9.86.87a.63.63 0 01-.62-.37c-9.13-20.01-23.42-25.9-42.45-33.14q-.48-.18-.89-.49l-1.09-.82q-.54-.41-.56.27c-.54 20.93 7.53 37.55 25.37 48.12a1.28 1.28 0 01.52 1.63c-4.05 8.97-5.53 20.35-2.24 29.74 4.39 12.55-15.02 54.31-28.96 57.31q-.5.11-.32-.37c1.18-3.35 4.54-10.35 3.34-13.69q-3.85-10.71-13.63-15.84c-3.97-2.08-6.69-3.75-10.09-.19q-8.51 8.89-11.6 20.09c-1.06 3.87 1.55 6.97 3.71 9.79a.51.51 0 01-.44.82q-12.09-.8-24.15.08a.32.32 0 01-.31-.45q5.17-11.02 5.79-23.11c.24-4.63-1.84-6.61-5.2-9.24-13.22-10.34-25.01-18.04-40.97-21.52-8.62-1.88-10.51 3.37-13.7 9.77-5.85 11.72-7.43 25.57-8.46 38.81-.8 10.19 9.69 16.89 17.22 21.57a.36.36 0 010 .62q-8.5 5.29-15.9 12.06a.64.64 0 01-1.07-.51q.62-10.39-4.92-19.17a1.3 1.29 82.1 00-.68-.52c-16.23-5.16-36.9-5.15-53.03 1.48-5.45 2.24-9.98 3.29-8.3 9.65q3.91 14.81 11.86 32.42c1.26 2.79 7.49 15.57 9.84 16.46q7.93 2.97 16.44 3.59a.54.54 0 01.46.75l-4.59 10.66a.48.47-53.1 01-.8.12c-2.04-2.46-7.74-8.7-11.28-7.3-5.85 2.32-29.87 15.03-27.34 22.71 3.85 11.66 8.68 19.91 19.38 26.21q1.63.96 4.06 1.6a1.39 1.37-50.2 00.95-.09l3.86-1.88a.47.47 0 01.68.45l-.58 11.71a1.56 1.56 0 01-1.88 1.45c-3.54-.73-5.93.41-8.89 2.68-6.01 4.62-16.78 10.49-11.14 18.46 4.68 6.61 8.1 12.55 16.62 15.82a1.25 1.22-44.2 00.91 0l2.78-1.06a.47.46-11.2 01.63.42l.11 5.99a.82.82 0 01-.77.84q-9.93.6-15.72 8.33c-3.95 5.29 4.98 14.84 8.65 18.49q3.81 3.8 8.49 3.61a.49.49 0 01.51.51l-.17 4.57a.56.54 88.3 01-.48.53q-6.73.84-9.54 2.34c-2.31 1.24-8.44 6-7.18 9.03q2.72 6.53 7.13 12.14a1.13 1.12 71.3 00.86.43l6.4.11a.43.42-85.2 01.41.49c-1.86 12-31.47 13.45-40.23 13.49-4.75.01-9.21.64-13.76 1a.93.92-83.2 01-.95-1.21c4.84-14.9 6.94-28.23 1.39-43.32-1.61-4.35-7-14.1-12.14-15.4a.95.95 0 00-1.15 1.16c3.77 14.27 6.98 28.06 1.92 42.63q-2.93 8.46-6.07 16.9a.87.86 35.3 01-1.48.25q-5.23-6.31-8.66-13.77zm-2.23-147.28q2.65.68 5.05-.71a.31.31 0 00.14-.31l-.05-.31a.29.28-9.7 00-.34-.23l-4.78 1.01a.28.28 0 00-.02.55z"/><path fill="#f9e4aa" d="M100.74 38.06q-11.57 13.3-24.08 25.72c-13.88 13.77-25.49 25.54-38.5 38.29a.51.51 0 01-.86-.4c.05-.95-.31-1.8-.31-2.56q-.03-18.48.23-36.95c.15-11.08.84-19.56 11.41-23.42q3.63-1.33 12.28-1.54 16.06-.4 35.41-.07 2.53.04 4.26.44a.3.3 0 01.16.49z"/><path fill="#1e1d1c" d="M166.21 468.25l-.53-.28a.36.36 0 00-.53.29c-1.09 10.25 2 19.85 5.85 29.21q.88 2.12 1.75 0l.29-.72q3.43 7.46 8.66 13.77a.87.86 35.3 001.48-.25q3.14-8.44 6.07-16.9c5.06-14.57 1.85-28.36-1.92-42.63a.95.95 0 011.15-1.16c5.14 1.3 10.53 11.05 12.14 15.4 5.55 15.09 3.45 28.42-1.39 43.32a.93.92-83.2 00.95 1.21c4.55-.36 9.01-.99 13.76-1 8.76-.04 38.37-1.49 40.23-13.49a.43.42-85.2 00-.41-.49l-6.4-.11a1.13 1.12 71.3 01-.86-.43q-4.41-5.61-7.13-12.14c-1.26-3.03 4.87-7.79 7.18-9.03q2.81-1.5 9.54-2.34a.56.54 88.3 00.48-.53l.17-4.57a.49.49 0 00-.51-.51q-4.68.19-8.49-3.61c-3.67-3.65-12.6-13.2-8.65-18.49q5.79-7.73 15.72-8.33a.82.82 0 00.77-.84l-.11-5.99a.47.46-11.2 00-.63-.42l-2.78 1.06a1.25 1.22-44.2 01-.91 0c-8.52-3.27-11.94-9.21-16.62-15.82-5.64-7.97 5.13-13.84 11.14-18.46 2.96-2.27 5.35-3.41 8.89-2.68a1.56 1.56 0 001.88-1.45l.58-11.71a.47.47 0 00-.68-.45l-3.86 1.88a1.39 1.37-50.2 01-.95.09q-2.43-.64-4.06-1.6c-10.7-6.3-15.53-14.55-19.38-26.21-2.53-7.68 21.49-20.39 27.34-22.71 3.54-1.4 9.24 4.84 11.28 7.3a.48.47-53.1 00.8-.12l4.59-10.66a.54.54 0 00-.46-.75q-8.51-.62-16.44-3.59c-2.35-.89-8.58-13.67-9.84-16.46q-7.95-17.61-11.86-32.42c-1.68-6.36 2.85-7.41 8.3-9.65 16.13-6.63 36.8-6.64 53.03-1.48a1.3 1.29 82.1 01.68.52q5.54 8.78 4.92 19.17a.64.64 0 001.07.51q7.4-6.77 15.9-12.06a.36.36 0 000-.62c-7.53-4.68-18.02-11.38-17.22-21.57 1.03-13.24 2.61-27.09 8.46-38.81 3.19-6.4 5.08-11.65 13.7-9.77 15.96 3.48 27.75 11.18 40.97 21.52 3.36 2.63 5.44 4.61 5.2 9.24q-.62 12.09-5.79 23.11a.32.32 0 00.31.45q12.06-.88 24.15-.08a.51.51 0 00.44-.82c-2.16-2.82-4.77-5.92-3.71-9.79q3.09-11.2 11.6-20.09c3.4-3.56 6.12-1.89 10.09.19q9.78 5.13 13.63 15.84c1.2 3.34-2.16 10.34-3.34 13.69q-.18.48.32.37c13.94-3 33.35-44.76 28.96-57.31-3.29-9.39-1.81-20.77 2.24-29.74a1.28 1.28 0 00-.52-1.63c-17.84-10.57-25.91-27.19-25.37-48.12q.02-.68.56-.27l1.09.82q.41.31.89.49c19.03 7.24 33.32 13.13 42.45 33.14a.63.63 0 00.62.37l9.86-.87a.41.4-3 00.38-.41c-.12-11.71 4.73-18.26 13.2-26.18q10.26-9.59 20.76-18.89a.48.48 0 01.69.06c14.57 18.62-4.29 41.15-18.78 52.57a1.01 1.01 0 00-.38.83q.07 1.45.8 2.67c8.61 14.48 11.69 33.89-1.06 47.08a1.35 1.35 0 00-.38.86q-1.07 19.33-.04 38.56c.57 10.64 3.61 22.72 5.24 31.99 1.68 9.56-11.43 26.67-18.59 34.64-3.38 3.76-5.58 4.24-5.61 10.29q-.1 20.55 5.97 38.56 1.46 4.37 1.89 8.05c1.71 14.88 2.06 28.72-1.1 43.63q-.27 1.26-1.98 2.74c-3.01 2.6-7.43 6.83-7.79 10.99q-.55 6.53-.91 13.06a.85.85 0 01-.47.71c-6.25 3-17.27.19-22.31-.94q-5.34-1.2-6.48-6.57a.64.64 0 00-.59-.51c-6.36-.44-9.12-5.35-9.48-11.29q-.08-1.18.49-.14.84 1.52 2.37 2.22a1.11 1.1-48.4 001.01-.06c3.31-1.94 6.05-4.68 6.31-8.73q.46-7.24 5.75-12.35a1.12 1.1-23.3 00.35-.85c-.29-9.32-6.72-20.96-12.06-29.53a1.02 1.02 0 00-1.64-.12q-5.96 6.96-13.43 12.16a1.2 1.19-14.3 00-.51.85q-2.36 19.09-5 38.05-3.72 26.68-1.7 57.5c.69 10.4 2.74 18.46 5.35 28.82.33 1.3.16 1.86 1.71 2.29q24.42 6.79 53.78 10.71 8.92 1.19 20.72 4.43c7.24 1.99 16.08 9.51 19.54 16.02a.76.76 0 01-.79 1.11q-6.88-1.08-13.74.15a.79.79 0 00-.65.74l-.11 2.28a.41.4-85.4 01-.45.39q-12.07-1.55-24.21-1.37-3.14.05-7.06-.67-7.78-1.43-15.7-.46-.51.07-.03.25c7.18 2.79 11.48 5.04 14.87 11.34a1.14 1.14 0 01-1.45 1.59c-4.15-1.78-9.82.29-14.76 2.34a1.81 1.78-83.5 00-.78.63l-.89 1.25a.78.76-65 01-.82.31c-3.41-.86-6.2-2.27-9.72-2.37q-11.74-.33-23.47-.19-2.89.03-6.52-2.11a1.72 1.67 58.3 00-.92-.23c-15.1.76-24.34-.5-40.38-3.59-11.38-2.2-21.93 3.26-33.5 3.25a1.12 1.1-20.2 01-.84-.38c-4.61-5.31-7.17-11.57-11.54-17.08a1.08 1.07 32.6 01-.2-.89c4.24-18.01 6.48-44.51-2.49-61.53a.37.37 0 00-.68.07c-8.44 26.52-28.06 52.71-56.5 58.38q-15.79 3.14-33.93 2.17-21.19-1.13-42.32-2.99c-12.41-1.09-30.75-1.17-47.84-1.63q-16.68-.45-33.25 1.77a.66.66 0 01-.72-.48l-1.59-5.75a.67.66-19.4 01.38-.78q13.56-5.8 27.79-9.69a.79.79 0 00.49-1.14q-9.58-17.4-6.95-37.21.23-1.69 1.48-2.73a.33.33 0 01.53.18c2.9 12.27 5.89 24.04 12.78 34.73q.25.38.43-.03 3.86-8.65 6.09-17.71c2.49-10.16 1.55-21.27.26-31.68a.87.86 16.7 011.42-.76c3.26 2.77 4.02 5.53 5.24 10.08 3.77 14.16 1.74 26.85-2.31 41.28a.33.33 0 00.38.42q9.89-1.89 19.92-2.78a.31.31 0 00.25-.45c-8.93-16.45-11.64-36.39-6.2-54.38a.86.86 0 011.68.16c.39 3.68 2.72 8.24 2.52 11.49zm325.74-281.09c.12 4.2-3.57 7.29-5.47 10.14a.98.97 48.6 00-.06 1l3.03 5.76q.37.69.69-.02c3.15-7.1 7.53-14.08 5.85-22.28q-2.81-13.74-9.37-26.23a.29.29 0 00-.55.19q2.01 10.61-1.32 21.03-.75 2.38-.3 7.8.12 1.45.42.03 1.07-4.92 3.71-9.1a1.6 1.6 0 012.77.09c2.24 4.14 2.93 9.58-3.6 9.72a.33.33 0 00-.16.61q1.78 1.1 3.77.77a.51.51 0 01.59.49zm-35.23-11.21c-3.01 2.97-4.98 9.07-.94 12.06q2.92 2.17 6.57-.49a.99.98-17.1 00.4-.75l.02-.37a.37.37 0 00-.53-.34c-8.42 4.15-8.56-6.49-3.65-9.38a.63.63 0 01.88.26l3.18 6.41q.38.75.61-.05 1.76-6.03-.3-11.86a.51.5 63.3 00-.75-.25c-2.01 1.35-4.23 3.5-5.49 4.76zm23.57 29.3q-1.83 2.24-4.31 3.74a.52.52 0 01-.71-.17q-2.39-3.87-6.35-6.16a.44.44 0 00-.64.23c-3.05 8.51-5.39 17.01 4.18 22.18a.64.63 23.5 00.9-.35l.4-1.17a.81.81 0 00-.26-.9c-4.8-3.83-7.88-6.93-4.56-13.4a.32.32 0 01.54-.05c4.14 5.28 9.74 4.69 14.8.94a.27.26-26 01.42.14q1.92 7-3.86 10.6a.74.73 61.9 00-.28.93l1.2 2.66a.45.45 0 00.72.14c5.87-5.67 4.55-16.57 2.48-23.61-2.72-7.16-6.17-13.02-7.75-21.23q-.02-.09-.08-.02l-.2.19a.44.41 67.6 00-.11.29q.28 6.6 1.54 13.06c.7 3.57.39 7.98 1.93 11.96zm-17.98 5.87q2.17-4.11-1.55-5.42-.57-.21-.97-.65l-7.79-8.71q-.5-.56-.28.15 2.78 8.84 9.74 14.8a.56.55-55.7 00.85-.17zm14.33 27.58q-.84 10.65 2.91 20.51a1 .99 51.1 01-.09.89q-3.58 5.59-6.81 11.38c-1.75 3.14-5.56 6.49-6.71 9.24-5.5 13.22-17 25.23-26.42 35.89a1.57 1.53-21.8 00-.39.88q-.46 4.49.97 8.76c.51 1.51.19 3.05.72 4.44q2.9 7.64 6.25 14.15.68 1.32 1.43.03l5.76-9.91q.22-.39.25-.83c.57-8.49 5.15-11.9 9.32-17.82 5.18-7.33 10.03-14.02 13.71-22.31l2.6-5.04q.24-.47.17.06-.89 6.74-3.35 13.04c-1.65 4.24-4.78 10.36-7.74 13.77q-4.31 4.95-7.97 10.38-3.53 6.95-4.34 14.8a1.69 1.64 34.5 00.19.95q5.27 9.78 6.58 20.74c1.04 8.75-1.94 18.37 6.53 24.25q2.58 4.13 3.75 9.05.53 2.83 2.18 5.22a.77.77 0 001.4-.38q1-14.9-.02-30.12-.21-3.02-1.46-6.13-2.59-6.45-4.6-13.09c-3.58-11.98-4.83-21.61-3.67-30.99.38-3.08 3.11-4.69 4.55-6.45 6.53-7.95 20.8-24.02 19.42-34.85-1.27-10.03-3.53-20.84-4.1-30.02q-.72-11.61-.12-23.29.04-.7-.49-.24-4.66 4.09-10.39 6.47a.98.96-6 00-.58.7q-.6 3.04.56 5.87zM430.6 346.26q-3.71-2.99-7.93-4.51c-4.87-1.76-7.37-3.1-11.14-5.54a.53.52 88.5 00-.71.75q4.04 5.62 9.11 10.76c15.76 14 25.84 29.13 31.23 49.51a.31.31 0 00.52.15q.55-.55.61-1.38l1.67-.54q.48-.15.18.25l-1.64 2.25-6.98 9.86a.23.2 55.2 00-.02.18l.08.25a.17.17 0 00.28.07q6.6-6.14 14.43-10.57l2.92-2q.49 1.55 2.12 1.87a.33.33 0 00.38-.41c-2.6-9.8-8.25-19.22-12.86-28.24-8.65-16.92-19.86-32.25-18.47-52.47a1.56 1.54-23.9 01.35-.89c7.96-9.9 16.77-19.01 24.49-29.17 8.43-11.1 8.7-21.17 7.99-34.59a.11.1 87.6 00-.11-.11l-.1.01a.29.15-87.3 00-.15.26c-2.4 25.11-17.87 36.22-34.36 54.21q-2.01 2.18-2.14 4.59-.9 16.16.25 35.45zM316.79 435q.3-.26.51-.26a.68.68 0 01.69.66q.79 18.67 3.22 37.1c.4 5.34 4.15 9.56 5.19 15.07 3.13 16.54 2.27 31.99-.43 49.18-.51 3.28 6.5 11.85 8.52 14.86a.8.78 67.6 00.79.34l12.97-2.24 7.75-1.42c17.21-.57 36.73-1.34 51.96-.29q7.64 1.95 15.52 2.87.51.06.18-.33c-1.68-1.99-7.58-4.76-9.9-5.25q-.49-.11-.04-.33 1.95-.95 2.6-.88 11.07 1.16 22.13 2.54.5.06.04-.15-8.07-3.72-16.93-4.74-7.15-.82-14.31-1.44-11.29-1.63-22.43-4.04c-8.22-1.78-19.1-3.81-28.28-6.93a3.05 3.04 84.9 01-1.69-1.42q-7.74-14.19-9.6-30.1-1.49-12.75-1.47-16.24c.1-27.1 2.53-50.55 6.12-78.5q2.66-20.78 1.76-41.75-.14-3.27-1.04-6.62-2.1-13.85-10.33-25.44c-9.43-16.1-29.12-23.64-44.65-10.11q-.38.33.09.15c9.83-3.88 24.22-6.05 32.6 2.15q4.41 4.32 5.67 7.35c7.13 17.15 9 34.2 6.42 52.51-2.81 19.9-8.98 37.49-25.34 50.28-3.68 2.88-5.99.49-9-1.56q-.43-.29-.31.21c1.12 4.56 6.85 7.8 11.02 4.77zm135.84-88.42l-1.87 4.68a1.27 1.26 42.6 00.05 1.08l7.14 13.63q1.86 3.56 1.26-.41c-.49-3.25-3.55-18.22-6.05-19.21a.41.41 0 00-.53.23zM401 378.46q-7.51 5.41-16.04 9.04-8.32 2.89-17.13 2.99a.24.23-30.4 00-.12.44q8.58 4.67 18.28 4.49c6.43-.12 10.58.5 15.9-3.79q11.67-9.44 23.07-19.18 2.17-1.85 5.07-5.24a.72.71 44.1 00-.02-.95l-9.84-10.77a.47.47 0 00-.78.13c-4.12 9.91-9.77 16.04-18.39 22.84zm-6 26.08q1.26-1.96 1.62-4.23a.43.42 3.9 00-.43-.49l-10.9.26q-6.5-.92-12.63-3.25a.4.4 0 00-.54.32c-.59 4.47-.18 9.3-.92 13.26q-3.75 19.97-18.65 34.01c-2.04 1.93-1.72 6.69-1.73 9.32q0 .5.43.24c8.48-5.04 15.25-11.83 22.42-18.48 9.88-9.16 16.63-18.52 21.33-30.96zm.71 51.96l-6.61 9.41a1.17 1.15 58 00-.2.89l.31 1.7c5.39 15.22 3.84 36.61 2.25 53.01a1.96 1.86 37 00.16.97c1.23 2.7 2.22 4.8 3.05 7.83 1.17 4.27 17.67 3.58 21.16 3.94q5.32.54 10.67.79c6.81.23 13.46-.85 20.17-.08q13.21 1.52 26.55 1.51a.4.4 0 00.38-.51c-.7-2.41-12.38-4.05-14.83-4.17a.32.32 0 01-.26-.49c1.49-2.39 26.16.55 30.63.46a.29.29 0 00.06-.58q-16.09-3.84-32.92-4.46c-13.15-2.83-27.08-5.21-39.69-9.86-4.25-1.57-5.04-7.32-6.2-11.18l-3.89-26.72q-1.22-18.75-.29-40.02.14-3.21.75-5.38a.24.23 8.2 00-.23-.3q-.2.01-.26.19-4.05 12.14-10.76 23.05zm-35.77 67.31q13.97 4.68 28.24 6.88a.61.61 0 00.59-.95c-4.53-6.57-1.6-8.62-1.55-15.38.13-15.38.59-28.92-2.8-45.16q-.77-3.67-2.61-7.59-4.38-9.31-7.68-19.21a.38.37 57.6 00-.62-.14q-10.27 10.4-22.74 18a1.02 1.01 76.6 00-.48.79q-1.27 17.03.6 33.01c.51 4.33 4.68 28.29 9.05 29.75zM299.29 470c-4.42 19.67-17.41 35.44-30.27 50.31-7.31 6.13-17.65 8.59-28.05 11.89q-.48.16.02.18c23.69 1.16 47.72-12.11 59.29-32.31 5.06-8.82 10.54-18.21 12.83-28.21 1.27-5.54-7.76-24.61-12.42-27.87q-1.94-1.36-1.54.98 2.25 12.99.14 25.03z"/><path fill="#aeaeaf" d="M491.36 186.67q-1.99.33-3.77-.77a.33.33 0 01.16-.61c6.53-.14 5.84-5.58 3.6-9.72a1.6 1.6 0 00-2.77-.09q-2.64 4.18-3.71 9.1-.3 1.42-.42-.03-.45-5.42.3-7.8 3.33-10.42 1.32-21.03a.29.29 0 01.55-.19q6.56 12.49 9.37 26.23c1.68 8.2-2.7 15.18-5.85 22.28q-.32.71-.69.02l-3.03-5.76a.98.97 48.6 01.06-1c1.9-2.85 5.59-5.94 5.47-10.14a.51.51 0 00-.59-.49zM456.72 175.95c1.26-1.26 3.48-3.41 5.49-4.76a.51.5 63.3 01.75.25q2.06 5.83.3 11.86-.23.8-.61.05l-3.18-6.41a.63.63 0 00-.88-.26c-4.91 2.89-4.77 13.53 3.65 9.38a.37.37 0 01.53.34l-.02.37a.99.98-17.1 01-.4.75q-3.65 2.66-6.57.49c-4.04-2.99-2.07-9.09.94-12.06zM484.96 201q-1.73 2.8-4.67 4.25c-1.54-3.98-1.23-8.39-1.93-11.96q-1.26-6.46-1.54-13.06a.44.41 67.6 01.11-.29l.2-.19q.06-.07.08.02c1.58 8.21 5.03 14.07 7.75 21.23zM462.31 211.12a.56.55-55.7 01-.85.17q-6.96-5.96-9.74-14.8-.22-.71.28-.15l7.79 8.71q.4.44.97.65 3.72 1.31 1.55 5.42z"/><path fill="#fefefe" d="M484.96 201c2.07 7.04 3.39 17.94-2.48 23.61a.45.45 0 01-.72-.14l-1.2-2.66a.74.73 61.9 01.28-.93q5.78-3.6 3.86-10.6a.27.26-26 00-.42-.14c-5.06 3.75-10.66 4.34-14.8-.94a.32.32 0 00-.54.05c-3.32 6.47-.24 9.57 4.56 13.4a.81.81 0 01.26.9l-.4 1.17a.64.63 23.5 01-.9.35c-9.57-5.17-7.23-13.67-4.18-22.18a.44.44 0 01.64-.23q3.96 2.29 6.35 6.16a.52.52 0 00.71.17q2.48-1.5 4.31-3.74 2.94-1.45 4.67-4.25z"/><path fill="#929698" d="M471.46 351.5c-1.88-.29.9 6.33 1.15 7.33q.45 1.79 1.77 4.71c1.8 3.98 1.71 9.29 1.64 13.74-.06 4.05 1.1 8.59.41 13.13a1.49 1.49 0 00.15.93c1.35 2.65-1.21 3.31-2.62 4.66q-1.17-4.92-3.75-9.05-3.83-7.9-4.17-11.21c-1.05-10.19-.49-25.34-7.4-33.62a2.51 2.5 36.1 01-.4-2.51q2.25-5.73 4.09-11.54c.31-1-.01-1.73-1.08-1.86q3.66-5.43 7.97-10.38c2.96-3.41 6.09-9.53 7.74-13.77q2.46-6.3 3.35-13.04.07-.53-.17-.06l-2.6 5.04q-.46-1.12-.78-1.17a1.68 1.67-76.6 00-1.85 1.14c-1.65 5.08-3 8.26-6.5 12.78-2.78 3.59-4.87 7.65-7.58 11.03-4.3 5.36-6.64 8.72-7.98 15.51-.63 3.18-2.89 5.13-4.55 7.69a.74.74 0 01-1.26-.03q-3.16-5.43-5.04-11.42a1.45 1.45 0 01.03-.95c1.35-3.68-1.21-4.69-1.62-7.56-.18-1.28-.31-4.46 1.32-4.81a1.57 1.54 14 00.82-.48q8.65-9.86 16.94-20.04c3.44-4.22 5.43-8.56 7.69-13.39.82-1.75 2.69-2.59 3.58-4.47 1.37-2.86 2.52-5.18 4.47-8.06 2.27-3.35 3.43-6.55 6.1-9.71a1.08 1.07 59.5 00.23-.92q-.43-2.05-1.92-3.58a1.67 1.65 18.7 01-.47-.93l-2.53-15.93q-1.16-2.83-.56-5.87a.98.96-6 01.58-.7q5.73-2.38 10.39-6.47.53-.46.49.24-.6 11.68.12 23.29c.57 9.18 2.83 19.99 4.1 30.02 1.38 10.83-12.89 26.9-19.42 34.85-1.44 1.76-4.17 3.37-4.55 6.45-1.16 9.38.09 19.01 3.67 30.99z"/><path fill="#aeaeaf" d="M476.64 238.7l2.53 15.93a1.67 1.65 18.7 00.47.93q1.49 1.53 1.92 3.58a1.08 1.07 59.5 01-.23.92c-2.67 3.16-3.83 6.36-6.1 9.71-1.95 2.88-3.1 5.2-4.47 8.06-.89 1.88-2.76 2.72-3.58 4.47-2.26 4.83-4.25 9.17-7.69 13.39q-8.29 10.18-16.94 20.04a1.57 1.54 14 01-.82.48c-1.63.35-1.5 3.53-1.32 4.81.41 2.87 2.97 3.88 1.62 7.56a1.45 1.45 0 00-.03.95q1.88 5.99 5.04 11.42a.74.74 0 001.26.03c1.66-2.56 3.92-4.51 4.55-7.69 1.34-6.79 3.68-10.15 7.98-15.51 2.71-3.38 4.8-7.44 7.58-11.03 3.5-4.52 4.85-7.7 6.5-12.78a1.68 1.67-76.6 011.85-1.14q.32.05.78 1.17c-3.68 8.29-8.53 14.98-13.71 22.31-4.17 5.92-8.75 9.33-9.32 17.82q-.03.44-.25.83l-5.76 9.91q-.75 1.29-1.43-.03-3.35-6.51-6.25-14.15c-.53-1.39-.21-2.93-.72-4.44q-1.43-4.27-.97-8.76a1.57 1.53-21.8 01.39-.88c9.42-10.66 20.92-22.67 26.42-35.89 1.15-2.75 4.96-6.1 6.71-9.24q3.23-5.79 6.81-11.38a1 .99 51.1 00.09-.89q-3.75-9.86-2.91-20.51z"/><path fill="#aeaeaf" d="M463.21 395.75c.47-5.25-6.06-14.28-8.71-18.96-2.3-4.07-3.22-9.05-5.84-13.36-3.73-6.13-6.39-11.8-10.44-17.23a1.26 1.26 0 01-.23-.89c.58-4.62-2.79-8.5-4.67-12.59a1.76 1.71 37 01-.14-.89q.36-3.1-.7-6.1-.38-1.07-.52.06-1.26 9.74.53 19.41a1.07 1.06-2.5 01-1.15 1.25q-.45-.05-.74-.19-1.15-19.29-.25-35.45.13-2.41 2.14-4.59c16.49-17.99 31.96-29.1 34.36-54.21a.29.15-87.3 01.15-.26l.1-.01a.11.1 87.6 01.11.11c.71 13.42.44 23.49-7.99 34.59-7.72 10.16-16.53 19.27-24.49 29.17a1.56 1.54-23.9 00-.35.89c-1.39 20.22 9.82 35.55 18.47 52.47 4.61 9.02 10.26 18.44 12.86 28.24a.33.33 0 01-.38.41q-1.63-.32-2.12-1.87zM340.29 329.25l-1.29.45a.59.58-15.7 01-.76-.42q-.31-1.33-1.64-1.03a.49.49 0 00-.37.61q1.91 7.18 4.5 14.15 1.27 3.41 1.56 6.73.67 8 1.27 16.01.44 5.93-1.29 20.51-.42 3.53-1.9 7.24c-2.18 5.49-3.56 12.49-6.72 17.38q-1.02 1.57-2.15 4.14-3.05 6.93-10.03 12.9c-1.65 1.42-2.98 3.09-4.61 4.58a.97.96 65.4 00-.31.85l.24 1.65c-4.17 3.03-9.9-.21-11.02-4.77q-.12-.5.31-.21c3.01 2.05 5.32 4.44 9 1.56 16.36-12.79 22.53-30.38 25.34-50.28 2.58-18.31.71-35.36-6.42-52.51q-1.26-3.03-5.67-7.35c-8.38-8.2-22.77-6.03-32.6-2.15q-.47.18-.09-.15c15.53-13.53 35.22-5.99 44.65 10.11z"/><path fill="#929698" d="M463.21 395.75l-2.92 2-.03-.34a.31.3 78.3 00-.39-.26c-1.85.59-6.11 3.9-7.37.81l1.64-2.25q.3-.4-.18-.25l-1.67.54c-2.28-6.64-3.21-13.06-6.9-19.71-2.98-5.35-4.83-8.86-8.16-12.51-2.46-2.69-4.48-6.1-7.4-8.62q-4.04-3.49-6.23-8.44a.54.53-23.4 00-.7-.27l-2.97 1.27q-5.07-5.14-9.11-10.76a.53.52 88.5 01.71-.75c3.77 2.44 6.27 3.78 11.14 5.54q4.22 1.52 7.93 4.51.29.14.74.19a1.07 1.06-2.5 001.15-1.25q-1.79-9.67-.53-19.41.14-1.13.52-.06 1.06 3 .7 6.1a1.76 1.71 37 00.14.89c1.88 4.09 5.25 7.97 4.67 12.59a1.26 1.26 0 00.23.89c4.05 5.43 6.71 11.1 10.44 17.23 2.62 4.31 3.54 9.29 5.84 13.36 2.65 4.68 9.18 13.71 8.71 18.96z"/><path fill="#aeaeaf" d="M461.25 326.21c1.07.13 1.39.86 1.08 1.86q-1.84 5.81-4.09 11.54a2.51 2.5 36.1 00.4 2.51c6.91 8.28 6.35 23.43 7.4 33.62q.34 3.31 4.17 11.21c-8.47-5.88-5.49-15.5-6.53-24.25q-1.31-10.96-6.58-20.74a1.69 1.64 34.5 01-.19-.95q.81-7.85 4.34-14.8z"/><path fill="#929698" d="M340.29 329.25q8.23 11.59 10.33 25.44-.97 4.43-.52 8.84.45 4.44.32 6.62c-.63 10.41-.68 20.43-2.17 30.94q-2.25 15.82-3.09 31.78c-.24 4.4-.89 8.95-1.25 13.45-.28 3.53-1.39 7.63-1.44 11.61q-.02 1.31-.63 3.95c-.57 2.43.38 4.01.23 6.28-.13 1.97-.08 3.07.27 5.47.32 2.09-.39 3.95-.29 5.82q.36 7.05 1.19 14.04c.36 3.11 2.07 5.73.25 9.5a.85.84 40.4 00.07.86c.63.9 1.19 1.66 1.44 2.79 1.97 8.88 5.82 14.99 8.25 21.91a1.01 1-88.7 00.56.59q1.8.75 3.23 2.02.33.29.76.41 3.69 1.02 7.44 1.81c3.53.74 13.61 4.67 16.53 3.46a.21.21 0 01.22.04l.25.21q.27.23.61.3 8.5 1.83 17.12 2.76c2.23.24 4.18 1.5 6.75 1.35a.57.56 88.4 00.53-.57v-.64q7.16.62 14.31 1.44 8.86 1.02 16.93 4.74.46.21-.04.15-11.06-1.38-22.13-2.54-.65-.07-2.6.88-.45.22.04.33c2.32.49 8.22 3.26 9.9 5.25q.33.39-.18.33-7.88-.92-15.52-2.87.27-.61.17-1.19a.81.8-88.9 00-.6-.63q-1.36-.35-2.79-.26c-7.65.47-15.98 1.17-23.6.51-3.77-.33-23.43-.81-25.52 1.12a.43.43 0 00-.03.61q.23.26.41.13l-7.75 1.42c.96-3.91-6.94-.38-8.31.22q-1.37.6-3.54.42a.89.89 0 01-.75-.56q-.88-2.27-3.09-3.29a1.47 1.45 2.3 01-.74-.79l-2.28-5.84a1.2 1.18 51.2 01.11-1.06q2.37-3.64.17-7.38a1.84 1.76 32 01-.25-.98c.19-6.81.25-12.67.67-20.35.62-11.38.38-22.79-5.91-32.11-1.22-1.81-1.22-3.54-1.4-5.58a.63.62-2.9 00-.64-.57q-.96.02-1.08.66-2.43-18.43-3.22-37.1a.68.68 0 00-.69-.66q-.21 0-.51.26l-.24-1.65a.97.96 65.4 01.31-.85c1.63-1.49 2.96-3.16 4.61-4.58q6.98-5.97 10.03-12.9 1.13-2.57 2.15-4.14c3.16-4.89 4.54-11.89 6.72-17.38q1.48-3.71 1.9-7.24 1.73-14.58 1.29-20.51-.6-8.01-1.27-16.01-.29-3.32-1.56-6.73-2.59-6.97-4.5-14.15a.49.49 0 01.37-.61q1.33-.3 1.64 1.03a.59.58-15.7 00.76.42l1.29-.45z"/><path fill="#aeaeaf" d="M452.29 396q-.06.83-.61 1.38a.31.31 0 01-.52-.15c-5.39-20.38-15.47-35.51-31.23-49.51l2.97-1.27a.54.53-23.4 01.7.27q2.19 4.95 6.23 8.44c2.92 2.52 4.94 5.93 7.4 8.62 3.33 3.65 5.18 7.16 8.16 12.51 3.69 6.65 4.62 13.07 6.9 19.71z"/><path fill="#fefefe" d="M452.63 346.58a.41.41 0 01.53-.23c2.5.99 5.56 15.96 6.05 19.21q.6 3.97-1.26.41l-7.14-13.63a1.27 1.26 42.6 01-.05-1.08l1.87-4.68z"/><path fill="#aeaeaf" d="M170.81 349.47a.28.28 0 01.02-.55l4.78-1.01a.29.28-9.7 01.34.23l.05.31a.31.31 0 01-.14.31q-2.4 1.39-5.05.71zM471.46 351.5q2.01 6.64 4.6 13.09 1.25 3.11 1.46 6.13 1.02 15.22.02 30.12a.77.77 0 01-1.4.38q-1.65-2.39-2.18-5.22c1.41-1.35 3.97-2.01 2.62-4.66a1.49 1.49 0 01-.15-.93c.69-4.54-.47-9.08-.41-13.13.07-4.45.16-9.76-1.64-13.74q-1.32-2.92-1.77-4.71c-.25-1-3.03-7.62-1.15-7.33zM350.62 354.69q.9 3.35 1.04 6.62.9 20.97-1.76 41.75c-3.59 27.95-6.02 51.4-6.12 78.5q-.02 3.49 1.47 16.24 1.86 15.91 9.6 30.1a3.05 3.04 84.9 001.69 1.42c9.18 3.12 20.06 5.15 28.28 6.93q11.14 2.41 22.43 4.04v.64a.57.56 88.4 01-.53.57c-2.57.15-4.52-1.11-6.75-1.35q-8.62-.93-17.12-2.76-.34-.07-.61-.3l-.25-.21a.21.21 0 00-.22-.04c-2.92 1.21-13-2.72-16.53-3.46q-3.75-.79-7.44-1.81-.43-.12-.76-.41-1.43-1.27-3.23-2.02a1.01 1-88.7 01-.56-.59c-2.43-6.92-6.28-13.03-8.25-21.91-.25-1.13-.81-1.89-1.44-2.79a.85.84 40.4 01-.07-.86c1.82-3.77.11-6.39-.25-9.5q-.83-6.99-1.19-14.04c-.1-1.87.61-3.73.29-5.82-.35-2.4-.4-3.5-.27-5.47.15-2.27-.8-3.85-.23-6.28q.61-2.64.63-3.95c.05-3.98 1.16-8.08 1.44-11.61.36-4.5 1.01-9.05 1.25-13.45q.84-15.96 3.09-31.78c1.49-10.51 1.54-20.53 2.17-30.94q.13-2.18-.32-6.62-.45-4.41.52-8.84z"/><path fill="#929698" d="M384.96 387.5q-.13 1.22.81 1.04 9.08-1.74 15.71-9.01a.63.63 0 00.02-.82q-.18-.23-.5-.25c8.62-6.8 14.27-12.93 18.39-22.84a.47.47 0 01.78-.13l9.84 10.77a.72.71 44.1 01.02.95q-2.9 3.39-5.07 5.24-11.4 9.74-23.07 19.18c-5.32 4.29-9.47 3.67-15.9 3.79q-9.7.18-18.28-4.49a.24.23-30.4 01.12-.44q8.81-.1 17.13-2.99z"/><path fill="#aeaeaf" d="M401 378.46q.32.02.5.25a.63.63 0 01-.02.82q-6.63 7.27-15.71 9.01-.94.18-.81-1.04 8.53-3.63 16.04-9.04zM385.29 400.08q-5.61.96-10.98-1.09a.39.39 0 00-.53.31q-.31 2.24-.67 8.6-.55 9.5-5.48 18.36c-4.06 7.29-5.85 13.17-13.23 18.1q-3.36 2.25-1.24 5.49a1.3 1.3 0 002.02.19q3.34-3.46 7.32-5.99c1.11-.71 1.34-2.15 2.43-3.09q3.08-2.64 6.11-5.35c1.78-1.59 4.96-3.66 7.03-6.24 1.51-1.87 3.9-3.16 5.03-5.29 2.79-5.27 6.25-9.82 8.34-14.51.6-1.35 1.5-5.64 3.56-5.03-4.7 12.44-11.45 21.8-21.33 30.96-7.17 6.65-13.94 13.44-22.42 18.48q-.43.26-.43-.24c.01-2.63-.31-7.39 1.73-9.32q14.9-14.04 18.65-34.01c.74-3.96.33-8.79.92-13.26a.4.4 0 01.54-.32q6.13 2.33 12.63 3.25zM460.29 397.75q-7.83 4.43-14.43 10.57a.17.17 0 01-.28-.07l-.08-.25a.23.2 55.2 01.02-.18l6.98-9.86c1.26 3.09 5.52-.22 7.37-.81a.31.3 78.3 01.39.26l.03.34z"/><path fill="#929698" d="M385.29 400.08l10.9-.26a.43.42 3.9 01.43.49q-.36 2.27-1.62 4.23c-2.06-.61-2.96 3.68-3.56 5.03-2.09 4.69-5.55 9.24-8.34 14.51-1.13 2.13-3.52 3.42-5.03 5.29-2.07 2.58-5.25 4.65-7.03 6.24q-3.03 2.71-6.11 5.35c-1.09.94-1.32 2.38-2.43 3.09q-3.98 2.53-7.32 5.99a1.3 1.3 0 01-2.02-.19q-2.12-3.24 1.24-5.49c7.38-4.93 9.17-10.81 13.23-18.1q4.93-8.86 5.48-18.36.36-6.36.67-8.6a.39.39 0 01.53-.31q5.37 2.05 10.98 1.09z"/><path fill="#aeaeaf" d="M406.5 478.96l-.7.43a.38.37-17.6 01-.57-.29c-.3-5.12.06-9.58-.9-14.88q-1.4-7.76.55-15.53c.3-1.19.16-1.94-.94-2.48a.73.72-66.2 00-.99.39c-1.42 3.68-3.45 6.38-5.19 9.88a.99.96 8 01-.73.53q-.74.11-1.32-.51 6.71-10.91 10.76-23.05.06-.18.26-.19a.24.23 8.2 01.23.3q-.61 2.17-.75 5.38-.93 21.27.29 40.02z"/><path fill="#fcfee0" d="M359.94 523.81c-4.37-1.46-8.54-25.42-9.05-29.75q-1.87-15.98-.6-33.01a1.02 1.01 76.6 01.48-.79q12.47-7.6 22.74-18a.38.37 57.6 01.62.14q3.3 9.9 7.68 19.21 1.84 3.92 2.61 7.59c3.39 16.24 2.93 29.78 2.8 45.16-.05 6.76-2.98 8.81 1.55 15.38a.61.61 0 01-.59.95q-14.27-2.2-28.24-6.88z"/><path fill="#929698" d="M269.02 520.31q.63 1.47 2.01-.04c4.27-4.69 7.32-9.06 10.71-13.34 4.27-5.4 9-10.16 11.67-16.76.35-.84 1.33-1.37 1.8-2.46q3.64-8.45 5.61-17.44a.46.46 0 00-.42-.55q-.57-.03-1.11.28 2.11-12.04-.14-25.03-.4-2.34 1.54-.98c4.66 3.26 13.69 22.33 12.42 27.87-2.29 10-7.77 19.39-12.83 28.21-11.57 20.2-35.6 33.47-59.29 32.31q-.5-.02-.02-.18c10.4-3.3 20.74-5.76 28.05-11.89zM406.5 478.96l3.89 26.72q-1.03 8.13 5.11 12.16c2.89 1.89 7.36 2.43 10.98 3.3 2.5.59 5.43 1.87 8.3 2.42q5.74 1.11 6.35 1.25 7.46 1.76 15.15 1.91 16.83.62 32.92 4.46a.29.29 0 01-.06.58c-4.47.09-29.14-2.85-30.63-.46a.32.32 0 00.26.49c2.45.12 14.13 1.76 14.83 4.17a.4.4 0 01-.38.51q-13.34.01-26.55-1.51c-6.71-.77-13.36.31-20.17.08q.79.11 1.57-.13.57-.18.01-.39-1.29-.48-3.58-.49c-4.35-.01-9.27-1.85-14.02-1.57q-6.57.39-13.04-1.07a1.07 1.07 0 01-.77-.68l-1.26-3.51q-.15-.43-.42-.8c-3.16-4.32-2.32-6.88-1.46-11.72a1.03 1.01-10.1 01.51-.72c1.45-.78.69-1.98.8-2.96q.65-5.95.98-11.93c.3-5.51-1.52-11.68-2.09-15.51-.75-5.08-1.2-10.35-3.16-15.13a.81.8-10.5 00-.73-.5q-.5-.01-.63.57l-.31-1.7a1.17 1.15 58 01.2-.89l6.61-9.41q.58.62 1.32.51a.99.96 8 00.73-.53c1.74-3.5 3.77-6.2 5.19-9.88a.73.72-66.2 01.99-.39c1.1.54 1.24 1.29.94 2.48q-1.95 7.77-.55 15.53c.96 5.3.6 9.76.9 14.88a.38.37-17.6 00.57.29l.7-.43z"/><path d="M166.21 468.25q-.3 5.61 1.21 11.01a1.7 1.67-79.2 00.56.84q.72.55.53 1.54-.1.51.06 1l4.47 14.11-.29.72q-.87 2.12-1.75 0c-3.85-9.36-6.94-18.96-5.85-29.21a.36.36 0 01.53-.29l.53.28z"/><path fill="#aeaeaf" d="M426.5 535.04q-5.35-.25-10.67-.79c-3.49-.36-19.99.33-21.16-3.94-.83-3.03-1.82-5.13-3.05-7.83a1.96 1.86 37 01-.16-.97c1.59-16.4 3.14-37.79-2.25-53.01q.13-.58.63-.57a.81.8-10.5 01.73.5c1.96 4.78 2.41 10.05 3.16 15.13.57 3.83 2.39 10 2.09 15.51q-.33 5.98-.98 11.93c-.11.98.65 2.18-.8 2.96a1.03 1.01-10.1 00-.51.72c-.86 4.84-1.7 7.4 1.46 11.72q.27.37.42.8l1.26 3.51a1.07 1.07 0 00.77.68q6.47 1.46 13.04 1.07c4.75-.28 9.67 1.56 14.02 1.57q2.29.01 3.58.49.56.21-.01.39-.78.24-1.57.13zM269.02 520.31c12.86-14.87 25.85-30.64 30.27-50.31q.54-.31 1.11-.28a.46.46 0 01.42.55q-1.97 8.99-5.61 17.44c-.47 1.09-1.45 1.62-1.8 2.46-2.67 6.6-7.4 11.36-11.67 16.76-3.39 4.28-6.44 8.65-10.71 13.34q-1.38 1.51-2.01.04zM348.25 549.71l-12.97 2.24a.8.78 67.6 01-.79-.34c-2.02-3.01-9.03-11.58-8.52-14.86 2.7-17.19 3.56-32.64.43-49.18-1.04-5.51-4.79-9.73-5.19-15.07q.12-.64 1.08-.66a.63.62-2.9 01.64.57c.18 2.04.18 3.77 1.4 5.58 6.29 9.32 6.53 20.73 5.91 32.11-.42 7.68-.48 13.54-.67 20.35a1.84 1.76 32 00.25.98q2.2 3.74-.17 7.38a1.2 1.18 51.2 00-.11 1.06l2.28 5.84a1.47 1.45 2.3 00.74.79q2.21 1.02 3.09 3.29a.89.89 0 00.75.56q2.17.18 3.54-.42c1.37-.6 9.27-4.13 8.31-.22z"/><path fill="#aeaeaf" d="M410.39 505.68c1.16 3.86 1.95 9.61 6.2 11.18 12.61 4.65 26.54 7.03 39.69 9.86q-7.69-.15-15.15-1.91-.61-.14-6.35-1.25c-2.87-.55-5.8-1.83-8.3-2.42-3.62-.87-8.09-1.41-10.98-3.3q-6.14-4.03-5.11-12.16zM407.96 548c-15.23-1.05-34.75-.28-51.96.29q-.18.13-.41-.13a.43.43 0 01.03-.61c2.09-1.93 21.75-1.45 25.52-1.12 7.62.66 15.95-.04 23.6-.51q1.43-.09 2.79.26a.81.8-88.9 01.6.63q.1.58-.17 1.19z"/><path fill="#fefefe" d="M590.29 589.75l.71.31v.94h-1.06l-.19-.71.54-.54z"/><path fill="#aeaeaf" d="M589.75 590.29l.19.71h-13.5q-2.88-.63-5.75 0H12.44q-5.63-.63-11.25 0h-.5l-.19-.47a.34.34 0 01.32-.47l588.93.23z"/><path fill="#1e1d1c" d="M12.44 591H1.19q5.62-.63 11.25 0zM576.44 591h-5.75q2.87-.63 5.75 0z"/></svg>