<svg xmlns="http://www.w3.org/2000/svg" viewBox="0 0 591 591"><g stroke-width="2" fill="none"><path stroke="#cccdce" vector-effect="non-scaling-stroke" d="M590.31 0l-.35.75"/><path stroke="#4c4d4f" vector-effect="non-scaling-stroke" d="M589.96.75q-1.23.12-2.46.13Q293.75.97 0 .94"/><path stroke="gray" vector-effect="non-scaling-stroke" d="M0 589.94q3.87.26 7.75.26 290.97.05 581.97.05a.53.53 0 00.53-.53V1.45c0-.33-.11-.46-.29-.7"/><path stroke="#7e7e70" vector-effect="non-scaling-stroke" d="M585.5 5.52a.26.26 0 00-.26-.26H5.5a.26.26 0 00-.26.26v579.72a.26.26 0 00.26.26h579.74a.26.26 0 00.26-.26V5.52"/><path stroke="#faf0c6" vector-effect="non-scaling-stroke" d="M17.69 42.25c.12 4.35-1.95 8.04-.49 12.53q.52 1.57.57 2.52.67 12.35-.11 24.69-.14 2.22 1.06 4.13a.4.39 51.1 00.62.07C40.2 65.28 60.41 43.77 81.22 22.81a.87.86 33.3 00-.3-1.41c-4.79-1.92-14.26-.91-19.58-.69-17.15.7-44.4-4.97-43.65 21.54"/><path stroke="#cacbbe" vector-effect="non-scaling-stroke" d="M279.54 482.75q2.29.34 4.58-.52a.81.81 0 011.1.75l.36 46.27a.41.41 0 00.45.41q7.61-.71 14.97-2.45"/><path stroke="#fefeef" vector-effect="non-scaling-stroke" d="M301 527.21q8.08.03 15.75-2.5"/><path stroke="#919081" vector-effect="non-scaling-stroke" d="M316.75 524.71l3.41-.26a1.05 1.04-2.7 00.96-1.05l-.68-66.24a.62.61-4.2 01.54-.62c35.44-4.54 69.09-20.85 95.57-44.46 49.25-43.9 70.87-110.93 56.56-174.37-16.31-72.32-75.06-126.99-148.26-138.76-70.07-11.26-140.55 20.32-179.81 79.29-49.64 74.58-37.65 176.52 31.65 235.58q34.55 29.44 77.33 39.8c6.14 1.49 13.39 2.58 20.11 3.78a.78.77 5.4 01.63.76c-.23 24.53 1.21 50.15 1.23 73.56a.52.51 82.3 00.65.5l3.23-.91a.74.72 81.9 00.53-.72l-.86-47.84"/><path stroke="#929291" vector-effect="non-scaling-stroke" d="M316.75 524.71q-.57-23.04-.67-46.08c-.03-5.45-.94-12.91-.52-19.49.08-1.27-.63-1.78-1.81-1.35"/><path stroke="#5f5f60" vector-effect="non-scaling-stroke" d="M313.75 457.79q-5.07-.18-9.94 1.05"/><path stroke="#929291" vector-effect="non-scaling-stroke" d="M303.81 458.84l-23.58-.81a.5.5 0 00-.52.49l-.17 12.48"/><path stroke="#5f5f60" vector-effect="non-scaling-stroke" d="M279.54 471v11.75"/><path stroke="#cccdce" vector-effect="non-scaling-stroke" d="M313.75 457.79l.66 12.1a.81.8 74.6 01-.43.76q-6.57 3.47-13.33 6.63-.88.42-.86 2.47.33 32.82 1.21 47.46M279.54 471l.75-.54a1.1 1.09 72.4 00.44-.86l.08-9.72a.87.87 0 011-.86q11.05 1.62 22-.18"/><path stroke="#cacbbe" vector-effect="non-scaling-stroke" d="M153.324 149.41a1.09.5 97.7 00.641-1.013 1.09.5 97.7 00-.349-1.147 1.09.5 97.7 00-.642 1.013 1.09.5 97.7 00.35 1.147M539.308 271.592a.91.78 35.8 00-.282-1.165.91.78 35.8 00-1.194.1.91.78 35.8 00.282 1.166.91.78 35.8 001.194-.1"/><path stroke="#fefeef" vector-effect="non-scaling-stroke" d="M198.22 457.58l-5.19 6.4q-.88 1.08.16.16 3.25-2.88 5.2-6.45a.1.1 0 00-.17-.11"/><path stroke="#929291" vector-effect="non-scaling-stroke" d="M154.42 383.05c36.84 49.65 101.88 77.17 163.07 69.1 38.16-5.04 72.37-21.61 100.28-48.03 37.52-35.5 56.26-83.44 54.72-134.83-.11-3.79-.8-7.87-1.12-11.9-2.44-31.11-16.64-63.26-35.39-87.38-36.97-47.58-97.64-73.95-157.79-67.34-70.56 7.75-130.4 57.02-151.15 124.89-16.37 53.56-5.77 110.83 27.38 155.49"/><path stroke="#cccdce" vector-effect="non-scaling-stroke" d="M256.16 438.17c48.63 11.96 98.11 1.57 138.56-28.21 12.4-9.13 24.72-21.41 34.35-34.39 31.95-43.07 42.02-98.57 24.73-149.6-14.58-43.01-44.96-78.42-86.39-97.77-115.07-53.74-245.5 35.71-236.58 161.66 3.47 49.01 27.24 91.38 66.19 120.42q26.73 19.93 59.14 27.89"/><path stroke="#5f5f60" vector-effect="non-scaling-stroke" d="M279.5 233.29c-.07 1.72 40.35 40.06 44.94 44.53.91.89 1.9 1.25 3.06 1.64"/><path stroke="#cccdce" vector-effect="non-scaling-stroke" d="M327.5 279.46l-.22.36a.63.62 41.2 00.05.71q1.88 2.38 4.67 3.68"/><path stroke="#5f5f60" vector-effect="non-scaling-stroke" d="M332 284.21l-.37.27a.38.38 0 00-.04.59l.41.39"/><path stroke="#cccdce" vector-effect="non-scaling-stroke" d="M332 285.46q-.57-.09-.82.22a.6.6 0 00.04.8c10.61 10.64 21.48 22.22 33.63 31.1q3.03 2.22 6.26 5.32 16.97 16.27 33.33 32.47a.92.92 0 001.39-.11c21-29.43 29.51-66.44 23.2-101.52-10.73-59.6-59.87-103.58-119.82-110.18-23.19-2.55-47.34 2.1-68.53 11.59-8.54 3.83-17.08 9.44-25.31 14.79a1.16 1.15-37.4 00-.24 1.74q3.37 3.81 7.06 7.38 27.63 26.76 55.44 53.32c.43.41 1.31.68 1.87.91"/><path stroke="#929291" vector-effect="non-scaling-stroke" d="M332 285.46q15.98 14.73 26.52 25.52c2.96 3.04 5.49 5.53 9.97 5.66q9.39.29 18.85-.25a1.1 1.09 88.3 011.16 1.1v18.76a.63.63 0 00.6.63q10.67.43 21.15-.17"/><path stroke="gray" vector-effect="non-scaling-stroke" d="M410.25 336.71l1.07.06a.98.98 0 001.04-.99c-.37-29.73-1.24-59.03-1.44-88.33"/><path stroke="#929291" vector-effect="non-scaling-stroke" d="M410.92 247.45q-.07-8.71-.17-17.54-.07-5.45-.82-7.67c-3.3-9.79-17.74-10.53-21.69-.76q-1.04 2.59-1.03 8.2.1 26.61.7 53.29a.5.5 0 01-.49.51q-26.8.9-53.67.98c-.53 0-1.1-.32-1.75-.25"/><path stroke="#929291" vector-effect="non-scaling-stroke" d="M327.5 279.46q20.06-.52 40.14-.81c6.49-.09 14.16.05 14.55-8.42.29-6.34.97-18.52-4.92-22.48-29.21-19.64-64.36-26.34-97.77-14.46"/><path stroke="#131211" vector-effect="non-scaling-stroke" d="M410.92 247.45q-1.2 2.2-1.19 6.55.07 46.38 1.27 76.75.13 3.34-1.5 5.06a.24.24 0 00.1.4q.4.11.65.5"/><path stroke="#5f5f60" vector-effect="non-scaling-stroke" d="M321.11 317.85q-14.44-15.21-29.86-29.44c-1.36-1.26-3.06-1.9-4.75-2.45"/><path stroke="#cccdce" vector-effect="non-scaling-stroke" d="M286.5 285.96l.3-1.12a.79.78 28.3 00-.24-.78l-4.39-3.9"/><path stroke="#5f5f60" vector-effect="non-scaling-stroke" d="M282.17 280.16q-13.33-14.9-28.73-27.69"/><path stroke="#cccdce" vector-effect="non-scaling-stroke" d="M253.44 252.47q-2.85-3.61-3.72-4.44c-19.07-18.4-38.4-36.54-57.29-55.12a.46.45-47.9 00-.67.04c-22.3 27.88-35.27 65.68-29.81 101.43 1.98 12.93 5.22 26.08 10.6 37.87 12.24 26.82 33.24 50.56 59.79 64q69.65 35.26 138.09-6.51 3.75-2.29 13.69-10.63a.51.5-42.8 00.03-.75l-61.34-59.48q-.37-.36-.86-.48-.56-.14-.84-.55"/><path stroke="#929291" vector-effect="non-scaling-stroke" d="M253.44 252.47c.24 7.56-3.39 27.72 9.05 27.8q9.33.06 19.68-.11"/><path stroke="#929291" vector-effect="non-scaling-stroke" d="M286.5 285.96c-27.51-.81-54.86.98-82.33.7a.52.52 0 01-.52-.5q-1.33-25.06-1.16-50.15.05-7.58-1.31-10.82-3.69-8.81-15.52-6.07"/><path stroke="gray" vector-effect="non-scaling-stroke" d="M185.66 219.12q-7.01 4.34-6.88 11.64 1.04 54.87 1.39 109.8a.56.56 0 00.54.56l3.04.09"/><path stroke="#929291" vector-effect="non-scaling-stroke" d="M183.75 341.21l20.03-.54a.3.29 89 00.28-.3l-.42-19.76a.58.57 89 01.56-.59l116.91-2.17"/><path stroke="#131211" vector-effect="non-scaling-stroke" d="M183.75 341.21q-.73-.75-1.72-1.11a.69.69 0 01-.45-.66q.3-11.42-.23-29.75c-.56-19.36.62-47.67-.69-74.45-.33-6.65.13-10.73 5.2-14.64q.5-.38-.2-1.48"/><path stroke="#929291" vector-effect="non-scaling-stroke" d="M248.63 259.03a20.67 20.67 0 00-20.67-20.67 20.67 20.67 0 00-20.67 20.67 20.67 20.67 0 0020.67 20.67 20.67 20.67 0 0020.67-20.67"/></g><path fill="#989a9d" d="M0 0h590.31l-.35.75q-1.23.12-2.46.13Q293.75.97 0 .94V0z"/><path fill="#fff" d="M590.31 0h.69v591H0v-1.06q3.87.26 7.75.26 290.97.05 581.97.05a.53.53 0 00.53-.53V1.45c0-.33-.11-.46-.29-.7l.35-.75z"/><path d="M589.96.75c.18.24.29.37.29.7v588.27a.53.53 0 01-.53.53q-291 0-581.97-.05-3.88 0-7.75-.26V.94Q293.75.97 587.5.88q1.23-.01 2.46-.13zm-4.46 4.77a.26.26 0 00-.26-.26H5.5a.26.26 0 00-.26.26v579.72a.26.26 0 00.26.26h579.74a.26.26 0 00.26-.26V5.52z"/><path fill="#fcfcdf" d="M585.5 585.24a.26.26 0 01-.26.26H5.5a.26.26 0 01-.26-.26V5.52a.26.26 0 01.26-.26h579.74a.26.26 0 01.26.26v579.72zM17.69 42.25c.12 4.35-1.95 8.04-.49 12.53q.52 1.57.57 2.52.67 12.35-.11 24.69-.14 2.22 1.06 4.13a.4.39 51.1 00.62.07C40.2 65.28 60.41 43.77 81.22 22.81a.87.86 33.3 00-.3-1.41c-4.79-1.92-14.26-.91-19.58-.69-17.15.7-44.4-4.97-43.65 21.54zm261.85 440.5q2.29.34 4.58-.52a.81.81 0 011.1.75l.36 46.27a.41.41 0 00.45.41q7.61-.71 14.97-2.45 8.08.03 15.75-2.5l3.41-.26a1.05 1.04-2.7 00.96-1.05l-.68-66.24a.62.61-4.2 01.54-.62c35.44-4.54 69.09-20.85 95.57-44.46 49.25-43.9 70.87-110.93 56.56-174.37-16.31-72.32-75.06-126.99-148.26-138.76-70.07-11.26-140.55 20.32-179.81 79.29-49.64 74.58-37.65 176.52 31.65 235.58q34.55 29.44 77.33 39.8c6.14 1.49 13.39 2.58 20.11 3.78a.78.77 5.4 01.63.76c-.23 24.53 1.21 50.15 1.23 73.56a.52.51 82.3 00.65.5l3.23-.91a.74.72 81.9 00.53-.72l-.86-47.84zM153.324 149.41a1.09.5 97.7 00.641-1.013 1.09.5 97.7 00-.349-1.147 1.09.5 97.7 00-.642 1.013 1.09.5 97.7 00.35 1.147zm385.984 122.182a.91.78 35.8 00-.282-1.165.91.78 35.8 00-1.194.1.91.78 35.8 00.282 1.166.91.78 35.8 001.194-.1zM198.22 457.58l-5.19 6.4q-.88 1.08.16.16 3.25-2.88 5.2-6.45a.1.1 0 00-.17-.11z"/><path fill="#f8e3ac" d="M17.2 54.78c-1.46-4.49.61-8.18.49-12.53-.75-26.51 26.5-20.84 43.65-21.54 5.32-.22 14.79-1.23 19.58.69a.87.86 33.3 01.3 1.41C60.41 43.77 40.2 65.28 19.34 86.19a.4.39 51.1 01-.62-.07q-1.2-1.91-1.06-4.13.78-12.34.11-24.69-.05-.95-.57-2.52z"/><path fill="#252422" d="M316.75 524.71q-.57-23.04-.67-46.08c-.03-5.45-.94-12.91-.52-19.49.08-1.27-.63-1.78-1.81-1.35q-5.07-.18-9.94 1.05l-23.58-.81a.5.5 0 00-.52.49l-.17 12.48v11.75l.86 47.84a.74.72 81.9 01-.53.72l-3.23.91a.52.51 82.3 01-.65-.5c-.02-23.41-1.46-49.03-1.23-73.56a.78.77 5.4 00-.63-.76c-6.72-1.2-13.97-2.29-20.11-3.78q-42.78-10.36-77.33-39.8c-69.3-59.06-81.29-161-31.65-235.58 39.26-58.97 109.74-90.55 179.81-79.29 73.2 11.77 131.95 66.44 148.26 138.76 14.31 63.44-7.31 130.47-56.56 174.37-26.48 23.61-60.13 39.92-95.57 44.46a.62.61-4.2 00-.54.62l.68 66.24a1.05 1.04-2.7 01-.96 1.05l-3.41.26zM154.42 383.05c36.84 49.65 101.88 77.17 163.07 69.1 38.16-5.04 72.37-21.61 100.28-48.03 37.52-35.5 56.26-83.44 54.72-134.83-.11-3.79-.8-7.87-1.12-11.9-2.44-31.11-16.64-63.26-35.39-87.38-36.97-47.58-97.64-73.95-157.79-67.34-70.56 7.75-130.4 57.02-151.15 124.89-16.37 53.56-5.77 110.83 27.38 155.49z"/><path fill="#fff" d="M317.49 452.15c-61.19 8.07-126.23-19.45-163.07-69.1-33.15-44.66-43.75-101.93-27.38-155.49 20.75-67.87 80.59-117.14 151.15-124.89 60.15-6.61 120.82 19.76 157.79 67.34 18.75 24.12 32.95 56.27 35.39 87.38.32 4.03 1.01 8.11 1.12 11.9 1.54 51.39-17.2 99.33-54.72 134.83-27.91 26.42-62.12 42.99-100.28 48.03zm-61.33-13.98c48.63 11.96 98.11 1.57 138.56-28.21 12.4-9.13 24.72-21.41 34.35-34.39 31.95-43.07 42.02-98.57 24.73-149.6-14.58-43.01-44.96-78.42-86.39-97.77-115.07-53.74-245.5 35.71-236.58 161.66 3.47 49.01 27.24 91.38 66.19 120.42q26.73 19.93 59.14 27.89z"/><path fill="#989a9d" d="M256.16 438.17q-32.41-7.96-59.14-27.89c-38.95-29.04-62.72-71.41-66.19-120.42-8.92-125.95 121.51-215.4 236.58-161.66 41.43 19.35 71.81 54.76 86.39 97.77 17.29 51.03 7.22 106.53-24.73 149.6-9.63 12.98-21.95 25.26-34.35 34.39-40.45 29.78-89.93 40.17-138.56 28.21zm23.34-204.88c-.07 1.72 40.35 40.06 44.94 44.53.91.89 1.9 1.25 3.06 1.64l-.22.36a.63.62 41.2 00.05.71q1.88 2.38 4.67 3.68l-.37.27a.38.38 0 00-.04.59l.41.39q-.57-.09-.82.22a.6.6 0 00.04.8c10.61 10.64 21.48 22.22 33.63 31.1q3.03 2.22 6.26 5.32 16.97 16.27 33.33 32.47a.92.92 0 001.39-.11c21-29.43 29.51-66.44 23.2-101.52-10.73-59.6-59.87-103.58-119.82-110.18-23.19-2.55-47.34 2.1-68.53 11.59-8.54 3.83-17.08 9.44-25.31 14.79a1.16 1.15-37.4 00-.24 1.74q3.37 3.81 7.06 7.38 27.63 26.76 55.44 53.32c.43.41 1.31.68 1.87.91zm41.61 84.56q-14.44-15.21-29.86-29.44c-1.36-1.26-3.06-1.9-4.75-2.45l.3-1.12a.79.78 28.3 00-.24-.78l-4.39-3.9q-13.33-14.9-28.73-27.69-2.85-3.61-3.72-4.44c-19.07-18.4-38.4-36.54-57.29-55.12a.46.45-47.9 00-.67.04c-22.3 27.88-35.27 65.68-29.81 101.43 1.98 12.93 5.22 26.08 10.6 37.87 12.24 26.82 33.24 50.56 59.79 64q69.65 35.26 138.09-6.51 3.75-2.29 13.69-10.63a.51.5-42.8 00.03-.75l-61.34-59.48q-.37-.36-.86-.48-.56-.14-.84-.55z"/><path fill="#fff" d="M332 285.46q15.98 14.73 26.52 25.52c2.96 3.04 5.49 5.53 9.97 5.66q9.39.29 18.85-.25a1.1 1.09 88.3 011.16 1.1v18.76a.63.63 0 00.6.63q10.67.43 21.15-.17l1.07.06a.98.98 0 001.04-.99c-.37-29.73-1.24-59.03-1.44-88.33q-.07-8.71-.17-17.54-.07-5.45-.82-7.67c-3.3-9.79-17.74-10.53-21.69-.76q-1.04 2.59-1.03 8.2.1 26.61.7 53.29a.5.5 0 01-.49.51q-26.8.9-53.67.98c-.53 0-1.1-.32-1.75-.25q-2.79-1.3-4.67-3.68a.63.62 41.2 01-.05-.71l.22-.36q20.06-.52 40.14-.81c6.49-.09 14.16.05 14.55-8.42.29-6.34.97-18.52-4.92-22.48-29.21-19.64-64.36-26.34-97.77-14.46-.56-.23-1.44-.5-1.87-.91q-27.81-26.56-55.44-53.32-3.69-3.57-7.06-7.38a1.16 1.15-37.4 01.24-1.74c8.23-5.35 16.77-10.96 25.31-14.79 21.19-9.49 45.34-14.14 68.53-11.59 59.95 6.6 109.09 50.58 119.82 110.18 6.31 35.08-2.2 72.09-23.2 101.52a.92.92 0 01-1.39.11q-16.36-16.2-33.33-32.47-3.23-3.1-6.26-5.32c-12.15-8.88-23.02-20.46-33.63-31.1a.6.6 0 01-.04-.8q.25-.31.82-.22z"/><ellipse fill="#989a9d" transform="rotate(97.7 11.923 141.223)" rx="1.09" ry=".5"/><path fill="#fff" d="M253.44 252.47c.24 7.56-3.39 27.72 9.05 27.8q9.33.06 19.68-.11l4.39 3.9a.79.78 28.3 01.24.78l-.3 1.12c-27.51-.81-54.86.98-82.33.7a.52.52 0 01-.52-.5q-1.33-25.06-1.16-50.15.05-7.58-1.31-10.82-3.69-8.81-15.52-6.07-7.01 4.34-6.88 11.64 1.04 54.87 1.39 109.8a.56.56 0 00.54.56l3.04.09 20.03-.54a.3.29 89 00.28-.3l-.42-19.76a.58.57 89 01.56-.59l116.91-2.17q.28.41.84.55.49.12.86.48l61.34 59.48a.51.5-42.8 01-.03.75q-9.94 8.34-13.69 10.63-68.44 41.77-138.09 6.51c-26.55-13.44-47.55-37.18-59.79-64-5.38-11.79-8.62-24.94-10.6-37.87-5.46-35.75 7.51-73.55 29.81-101.43a.46.45-47.9 01.67-.04c18.89 18.58 38.22 36.72 57.29 55.12q.87.83 3.72 4.44zm-4.81 6.56a20.67 20.67 0 00-20.67-20.67 20.67 20.67 0 00-20.67 20.67 20.67 20.67 0 0020.67 20.67 20.67 20.67 0 0020.67-20.67z"/><path fill="#252422" d="M410.92 247.45q-1.2 2.2-1.19 6.55.07 46.38 1.27 76.75.13 3.34-1.5 5.06a.24.24 0 00.1.4q.4.11.65.5-10.48.6-21.15.17a.63.63 0 01-.6-.63v-18.76a1.1 1.09 88.3 00-1.16-1.1q-9.46.54-18.85.25c-4.48-.13-7.01-2.62-9.97-5.66q-10.54-10.79-26.52-25.52l-.41-.39a.38.38 0 01.04-.59l.37-.27c.65-.07 1.22.25 1.75.25q26.87-.08 53.67-.98a.5.5 0 00.49-.51q-.6-26.68-.7-53.29-.01-5.61 1.03-8.2c3.95-9.77 18.39-9.03 21.69.76q.75 2.22.82 7.67.1 8.83.17 17.54zM286.5 285.96c1.69.55 3.39 1.19 4.75 2.45q15.42 14.23 29.86 29.44l-116.91 2.17a.58.57 89 00-.56.59l.42 19.76a.3.29 89 01-.28.3l-20.03.54q-.73-.75-1.72-1.11a.69.69 0 01-.45-.66q.3-11.42-.23-29.75c-.56-19.36.62-47.67-.69-74.45-.33-6.65.13-10.73 5.2-14.64q.5-.38-.2-1.48 11.83-2.74 15.52 6.07 1.36 3.24 1.31 10.82-.17 25.09 1.16 50.15a.52.52 0 00.52.5c27.47.28 54.82-1.51 82.33-.7z"/><path d="M185.66 219.12q.7 1.1.2 1.48c-5.07 3.91-5.53 7.99-5.2 14.64 1.31 26.78.13 55.09.69 74.45q.53 18.33.23 29.75a.69.69 0 00.45.66q.99.36 1.72 1.11l-3.04-.09a.56.56 0 01-.54-.56q-.35-54.93-1.39-109.8-.13-7.3 6.88-11.64z"/><path fill="#252422" d="M327.5 279.46c-1.16-.39-2.15-.75-3.06-1.64-4.59-4.47-45.01-42.81-44.94-44.53 33.41-11.88 68.56-5.18 97.77 14.46 5.89 3.96 5.21 16.14 4.92 22.48-.39 8.47-8.06 8.33-14.55 8.42q-20.08.29-40.14.81z"/><circle fill="#252422" cx="227.96" cy="259.03" r="20.67"/><path d="M410.92 247.45c.2 29.3 1.07 58.6 1.44 88.33a.98.98 0 01-1.04.99l-1.07-.06q-.25-.39-.65-.5a.24.24 0 01-.1-.4q1.63-1.72 1.5-5.06-1.2-30.37-1.27-76.75-.01-4.35 1.19-6.55z"/><path fill="#252422" d="M282.17 280.16q-10.35.17-19.68.11c-12.44-.08-8.81-20.24-9.05-27.8q15.4 12.79 28.73 27.69z"/><ellipse fill="#989a9d" transform="rotate(35.8 -150.324 969.252)" rx=".91" ry=".78"/><path fill="#fff" d="M198.22 457.58a.1.1 0 01.17.11q-1.95 3.57-5.2 6.45-1.04.92-.16-.16l5.19-6.4z"/><path fill="#989a9d" d="M313.75 457.79l.66 12.1a.81.8 74.6 01-.43.76q-6.57 3.47-13.33 6.63-.88.42-.86 2.47.33 32.82 1.21 47.46-7.36 1.74-14.97 2.45a.41.41 0 01-.45-.41l-.36-46.27a.81.81 0 00-1.1-.75q-2.29.86-4.58.52V471l.75-.54a1.1 1.09 72.4 00.44-.86l.08-9.72a.87.87 0 011-.86q11.05 1.62 22-.18 4.87-1.23 9.94-1.05z"/><path fill="#fff" d="M313.75 457.79c1.18-.43 1.89.08 1.81 1.35-.42 6.58.49 14.04.52 19.49q.1 23.04.67 46.08-7.67 2.53-15.75 2.5-.88-14.64-1.21-47.46-.02-2.05.86-2.47 6.76-3.16 13.33-6.63a.81.8 74.6 00.43-.76l-.66-12.1zM303.81 458.84q-10.95 1.8-22 .18a.87.87 0 00-1 .86l-.08 9.72a1.1 1.09 72.4 01-.44.86l-.75.54.17-12.48a.5.5 0 01.52-.49l23.58.81z"/></svg>