<svg xmlns="http://www.w3.org/2000/svg" viewBox="0 0 591 591"><g stroke-width="2" fill="none"><path stroke="#100f0f" vector-effect="non-scaling-stroke" d="M590.06 0l-.02.25"/><path stroke="#4a4c4d" vector-effect="non-scaling-stroke" d="M590.04.25l.25 3.75"/><path stroke="#100f0f" vector-effect="non-scaling-stroke" d="M590.29 4v1"/><path stroke="#4a4c4d" vector-effect="non-scaling-stroke" d="M590.29 5l-.04 584.71"/><path stroke="#5a5b5b" vector-effect="non-scaling-stroke" d="M590.25 589.71l-.46.32a1.17 1.13-61.8 01-.66.21q-292.22.02-584.44-.12-2.23 0-4.44-.08"/><path stroke="#100f0f" vector-effect="non-scaling-stroke" d="M.25 590.04l-.25-.1"/><path stroke="#7f7e6f" vector-effect="non-scaling-stroke" d="M585.5 5.51a.26.26 0 00-.26-.26H5.5a.26.26 0 00-.26.26v579.72a.26.26 0 00.26.26h579.74a.26.26 0 00.26-.26V5.51"/><path stroke="#6a6a69" vector-effect="non-scaling-stroke" d="M590.69 591l.02-1.25"/><path stroke="#5a5b5b" vector-effect="non-scaling-stroke" d="M590.71 589.75l-.02-584.56a.15.15 0 00-.13-.15l-.27-.04M590.29 4q1.37-2.04-.25-3.75"/><path stroke="#a4a6a7" vector-effect="non-scaling-stroke" d="M590.71 589.75l-.46-.04"/><path stroke="#fbeec2" vector-effect="non-scaling-stroke" d="M29.08 86.48c2.37.72 57.59-57.23 63.52-63.44a.44.44 0 00-.31-.75Q72.72 21.7 53 21.92c-18.73.21-26.01 7.42-25.15 26.02.61 13.28-.19 24.82.26 37.28a1.36 1.36 0 00.97 1.26"/><path stroke="#7f7e6f" vector-effect="non-scaling-stroke" d="M475.21 244.5l3.83-24"/><path stroke="#8e8d7d" vector-effect="non-scaling-stroke" d="M479.04 220.5c6.82-35.4 10.93-64.16 16.28-96.28q.12-.73.16-1.59a1.46 1.44 27.2 00-.31-.95l-2.55-3.24q-.39-.5.25-.52c5.06-.17 5.38-5.64 5.78-10.12.38-4.13 2.72-5.99-.43-10.21q-2.26-3.03-4.7-5.87a1.1 1.1 0 00-.83-.38q-26.64.17-53.26 1.17c-26.16.97-52.33 1.45-78.5 2.47-45.81 1.78-91.66 2.92-137.59 4.02a.76.75-83.4 01-.75-.95l2.05-7.66a1.67 1.59 42 00-.08-1.05q-1.75-4.01-4.48-7.48-.71-.9-2.83-.88-7.72.07-15.69.37a1.02 1.02 0 00-.95.78q-1.83 7.69-3.69 15.8c-.72 3.18-2.64 2.19-4.91 2.25q-13.29.36-25.68.63-1.75.04-2.26 1.72l-3.3 11.05a.97.97 0 00.33 1.04l4.37 3.45a.32.32 0 01-.05.54c-.88.46-2.01-.21-2.93-.08q-1.92.27-3.45 1.58a1.66 1.62-13.4 00-.51.81c-16.05 60.87-32.76 126.26-49.21 189.43a.83.81 25.3 00.32.87q3.57 2.61 6.06 6.26a1.01.97 75.8 00.67.42l22.57 3.24a.81.8-78.3 01.66 1.01l-2.41 8.62a.49.49 0 00.4.62l.76.11a.97.96-10.2 01.7.48l2.02 3.48a.91.89-15 00.78.44q8.07 0 15.69 2.68a2.12 2.11 17.4 002.74-1.43l3.36-12.15a.57.56 11.5 01.63-.41l7.55 1.05a.73.72 88.9 01.62.6q.41 2.24.4 3.26-.41 44.62.36 89.24c.02 1.62-.59 2.34-1.9 3.09q-10.25 5.87-42.11 24.39a.93.92-16.3 00-.46.83l1.16 27.93a.84.83 6 00.64.78l13.6 3.27a.33.31 32.8 00.22-.04l28.04-17.82a1.17 1.17 0 011.02-.12l14.76 5.16a1.85 1.82 47.4 001.01.05q1.65-.41 3.31.03 77.94 20.37 155.91 41.25a.48.47-59 01.2.81l-7.26 6.69a1.05 1.03 66.9 00-.33.85q1.3 15.13 1.08 30.32a.73.73 0 00.52.71q8.87 2.71 17.18 6.85a.73.72-55 00.85-.15q34.38-35.94 68.71-71.93c1.3-1.37 1.97-2.94 1.93-4.7q-.3-13.13-.38-26.42a.67.66 9.1 00-.46-.63q-7.68-2.52-15.77-2.79a1.38 1.38 0 00-1 .38l-15.1 14.13q-.54.5-.55-.23l-1.41-103.1a.48.48 0 01.55-.48q23.85 3.63 30.1 4.35c5.94.68 11.43 1.83 16.51 2.37 2.03.22 10.29 1.96 10.8-.3q1.96-8.66 5.92-30.3c1.64-8.94 2.72-19.78 4.52-28.97 2.69-13.72 4.8-28.46 6.84-40.03q1.8-10.21 3.36-20.47"/><path stroke="#100f0f" vector-effect="non-scaling-stroke" d="M479.04 220.5l-.05-.73a.55.55 0 00-.53-.52l-.27-.01a.59.58-83.4 00-.58.47q-2.36 11.87-3.48 23.93a.8.78 15.7 00.45.78q.3.14.63.08"/><path stroke="#8f8f8e" vector-effect="non-scaling-stroke" d="M144.83 328.45c1.64.57 4.86 1.1 6.6 1.04a.67.66-83 00.63-.5c7.71-30.66 16.15-61.3 22.99-92.16.91-4.1 2.81-8.26 3.72-12.08 9.77-40.88 23.35-91.72 34.76-137.53a.78.77-83 00-.75-.97h-5.67a.78.77-81.3 00-.74.55q-4.73 16.02-8.76 32.23c-6.06 24.29-12.56 48.46-18.52 72.78q-.77 3.13-2.58 8.77c-2.31 7.18-4.32 17.76-5.41 21.92-6.7 25.63-12.78 51.48-19.89 76.99q-3.59 12.91-6.77 28.27a.61.61 0 00.39.69"/><path stroke="#5a5b5b" vector-effect="non-scaling-stroke" d="M245.31 114.06q-.7-.34-1.07-.31-12.63.93-25.34.89a.69.68 3.8 00-.68.59l-.26 1.78a.51.51 0 00.51.59q36.98-.63 73.97-.93c9.08-.07 18.74-.88 27.17-.92 38.21-.2 72.92-1.14 114.64-1.53 5.11-.05 11.03-.67 15.76-.7q20.69-.16 41.43-.52.53-.01.24-.45l-2.4-3.71a.78.77 73.4 00-.65-.36q-20.2.05-40.38.81c-28.42 1.05-56.89 1.38-85.31 1.92-8.01.15-17.04.78-25.59.79-31.76.04-60.61 1-90.82 1.56a.53.51 21.5 00-.37.15l-.23.24a.54.54 0 01-.62.11"/><path stroke="#6a6a69" vector-effect="non-scaling-stroke" d="M191.06 115.69q-7.06-.57-19.52.14a.39.38-12.1 00-.34.52c1.02 2.59 14.73 1.58 19.9 1.28a.79.77-81.1 00.68-.51q.49-1.33-.72-1.43M408.37 136.11l9.97 13.09a.75.74-35.9 01-.18 1.08l-11.95 7.97"/><path stroke="#5a5b5b" vector-effect="non-scaling-stroke" d="M406.21 158.25l-.92.25"/><path stroke="#6a6a69" vector-effect="non-scaling-stroke" d="M405.29 158.5q0-1.43-1.1-2.23a.36.36 0 00-.56.19q-2.04 7.1-2.65 9.79c-6.05 26.53-12.07 50.23-17.08 79.71-2.01 11.76-3.68 26.22-5.86 39.29"/><path stroke="#5a5b5b" vector-effect="non-scaling-stroke" d="M378.04 285.25l-1.58 13.97q-.11.97.51.22l2.44-2.94a.95.94-42.7 011.5.06c2.38 3.42 6.4 6 9.55 8.75.68.6.78 1.33.04 1.9"/><path stroke="#6a6a69" vector-effect="non-scaling-stroke" d="M390.5 307.21q-4.66 2.95-7.92 5.88-11.03 9.88-21.75 17.49-.74.53-2.37 2.42"/><path stroke="#5a5b5b" vector-effect="non-scaling-stroke" d="M358.46 333l-1.67.75"/><path stroke="#6a6a69" vector-effect="non-scaling-stroke" d="M356.79 333.75l-8.33-9.87a.48.48 0 01.02-.64l2.39-2.52q.64-.68-.29-.77c-29.98-2.97-59.66-5.71-89.48-10.3-6.12-.95-14.94-1.71-22.36-3.23a.3.3 0 00-.34.4l.65 1.7a.61.61 0 01-.37.8c-3.87 1.38-11.39 3.8-13.03 7.82"/><path stroke="#5a5b5b" vector-effect="non-scaling-stroke" d="M225.65 317.14c-3.65-1.57-6.39-7.53-9.1-12.28a1.43 1.41 85.1 00-.76-.65q-4.21-1.57-8.72-1.16a.64.63 79.7 01-.67-.47q-.11-.41.31-.83"/><path stroke="#6a6a69" vector-effect="non-scaling-stroke" d="M206.71 301.75l1.37-8.45a1.22 1.21 31.5 00-.22-.91l-3.95-5.43a1.7 1.7 0 00-2.57-.21c-6.54 6.5-18.47 6.8-25.64.95q-.41-.33-.6-.82l-.54-1.4q-.39-1.01-.66.03c-.56 2.16-.74 4.54-1.34 6.56q-3.43 11.62-6.26 23.29a.88.87 11.1 00.73 1.07l16.72 2.36"/><path stroke="#5a5b5b" vector-effect="non-scaling-stroke" d="M183.75 318.79l28.75 3.92"/><path stroke="#6a6a69" vector-effect="non-scaling-stroke" d="M212.5 322.71l65.96 9.29"/><path stroke="#5a5b5b" vector-effect="non-scaling-stroke" d="M278.46 332l17.04 2.71"/><path stroke="#6a6a69" vector-effect="non-scaling-stroke" d="M295.5 334.71q19.07 2.26 38.04 5.25c11.99 1.89 25.32 3.25 37.96 5.33"/><path stroke="#5a5b5b" vector-effect="non-scaling-stroke" d="M371.5 345.29c14.84 2.39 29.74 3.75 44.61 6.13q14.76 2.37 29.67 3.89a.64.64 0 00.67-.44q.35-1.05.8-3.62 4.61-26.1 8.58-52.3c1.96-12.93 5.52-28.28 7.13-42.7"/><path stroke="#6a6a69" vector-effect="non-scaling-stroke" d="M462.96 256.25q.98-8.02 2.67-15.92 3.33-15.53 4.92-31.32.16-1.61 1.16-5.51"/><path stroke="#5a5b5b" vector-effect="non-scaling-stroke" d="M471.71 203.5l3.5-20.5"/><path stroke="#6a6a69" vector-effect="non-scaling-stroke" d="M475.21 183c2.06-17.01 6.06-33.58 8.16-50.52"/><path stroke="#5a5b5b" vector-effect="non-scaling-stroke" d="M483.37 132.48q1.84-5.69 2.44-11.81a.77.76-86.9 00-.75-.84c-15.76-.33-33.75.33-47.32.47q-19.78.2-38.52.23-2.53 0-1.01 2.02l10.16 13.56"/><path stroke="#a4a6a7" vector-effect="non-scaling-stroke" d="M483.37 132.48q-2.22 4.93-3.17 10.26-3.53 19.86-6.21 39.86a.6.59 11.2 00.45.66q.42.1.77-.26M471.71 203.5q-.31-.4-.65-.37a.67.67 0 00-.61.55c-1.29 7.15-1.83 14.41-3.65 21.44-2.61 10.16-3.28 21.14-5.05 31.62a.21.21 0 00.38.15q.27-.43.83-.64M371.5 345.29q.45 0 .75-.41.98-1.33-.67-1.46-13.85-1.08-27.5-3.63c-3.13-.58-7.41-.61-11.39-1.71-1.47-.41-3.4.23-4.91-.05q-6.39-1.16-12.8-2.21c-5-.82-12.25-1.15-18.36-2.6a1 .97-58.2 00-.88.22q-.52.46-.24 1.27M278.46 332q.36-.38.32-.75a.64.63-1.6 00-.6-.56c-4.66-.21-9.43-1.48-13.62-1.95q-9.23-1.04-18.24-3.3c-10.08-2.54-20.82-1.63-31.05-3.71q-1.85-.38-2.77.98M183.75 318.79q-7.28-3.53-15.07-3.05a.71.71 0 01-.73-.88q2.36-9.17 5.21-18.09c.76-2.39.9-4.79 1.42-7.34a.8.8 0 011.25-.48q4.95 3.66 11.09 4.17c5.8.48 11.06-1.81 15.2-5.75a.69.69 0 011.07.15l3.06 5.29a1.54 1.53 33.9 01.2 1.01c-.22 1.51-2.37 8.33.26 7.93M225.65 317.14q7.88-3.06 14.99-7.55a1.71 1.66-59.8 01.93-.26q16.24.24 32 4.02c3.18.76 6.28-.19 9.69.82 4.89 1.45 10.55 1.07 14.31 1.54q11.91 1.48 23.75 3.35c7.24 1.14 15.31-.12 22.07 2.34q.48.18.98.09 1.09-.19 1.68.7a1.16.15 54.2 01.44.81l.02.52a1.58 1.55-66.9 00.35.9l7.88 9.58a1.29 1.15 54.7 001.55.36q.24-.13.5-.61M358.46 333l.03.34a.5.49 2.4 00.4.43c.91.18 11.74-7.96 12.68-8.72q9.95-8.07 19.22-16.92a.54.53 49.3 00.05-.71q-.12-.14-.34-.21M378.04 285.25l1.07.24a.47.47 0 00.57-.39q2.64-18.25 5.4-36.48c3.16-20.87 8.07-42.04 13.15-62.13.89-3.56 1.25-7.67 2.31-11.59q1.39-5.11 3.38-14.42.12-.54 1.37-1.98M406.21 158.25c.9 1.94 11.69-5.4 13.34-6.58a2.31 2.3-32.5 00.67-3.02c-2.58-4.53-6.87-8.04-9.77-12.59q-.57-.88-2.08.05"/><path stroke="#6a6a69" vector-effect="non-scaling-stroke" d="M322 122.54q-25.09.22-50.19.42-4.01.03-6.02.42a.27.26 65.4 00-.15.42l6.75 8.72a.66.65-29.4 01-.29 1.01l-1.85.72a.88.88 0 00-.57.73c-.19 1.74 5.43.81 6.57.73"/><path stroke="#5a5b5b" vector-effect="non-scaling-stroke" d="M276.25 135.71c17-.29 33.79-.91 51-.95q27.88-.06 55.74-1.25 1.58-.07 3.22-.27.36-.05.11-.31l-3.55-3.67a1.2 1.2 0 01.39-1.93q5.97-2.62 12.56-4.91.86-.3.81-1.11a.56.55-1.1 00-.56-.53c-1.22.01-2.51.49-3.63.5q-35.17.49-70.34 1.26"/><path stroke="#a4a6a7" vector-effect="non-scaling-stroke" d="M276.25 135.71l-.45-2.21a1.76 1.73-72.9 00-.44-.85c-1.64-1.72-6.27-5.01-4.54-7.57a1.06 1.06 0 01.85-.48q25.05-1.29 50.14-.97a.45.45 0 00.45-.51q-.04-.29-.26-.58"/><path stroke="#5a5b5b" vector-effect="non-scaling-stroke" d="M184.21 246.75l-2.8 10.18a.31.31 0 00.36.39l6.48-1.11"/><path stroke="#6a6a69" vector-effect="non-scaling-stroke" d="M188.25 256.21l1.03.04a.66.65-81.8 00.66-.5q1.95-7.96 4.17-15.84c2.75-9.8 4.93-19.97 7.68-29.91"/><path stroke="#5a5b5b" vector-effect="non-scaling-stroke" d="M201.79 210q2.81-7.93 5.74-21.68 1.32-6.18 6.9-8.56c4.48-1.91 9.6.13 10.43 5.09q.41 2.37-1.23 8.2-8.69 31.03-16.73 62.24-.27 1.05-.37 2.17a1.58 1.54-59.2 00.24.99q2.36 3.66 3.01 7.94a.68.68 0 00.62.58l2.73.23a.76.75 10.3 00.79-.54q3.27-11.29 5.31-22.87.88-5.01 4.27-16.54 3.31-11.23 8.94-35.93c2.76-12.1 6.29-25.1 9.25-37.83q.28-1.25-.87-.71c-2.71 1.26-2.67 3.21-6.85 3.83"/><path stroke="#6a6a69" vector-effect="non-scaling-stroke" d="M233.97 156.61q-1.75-4.92-4.72-8.65"/><path stroke="#5a5b5b" vector-effect="non-scaling-stroke" d="M229.25 147.96q-1.43-1.62-1.75-3.67"/><path stroke="#6a6a69" vector-effect="non-scaling-stroke" d="M227.5 144.29c11.19-7.64 23.68-13.76 35.27-20.91q.43-.26-.07-.28-3.79-.12-7.57.08c-12.96.66-25.93.84-38.87.87a.52.51 5.8 00-.49.39q-3.66 14.65-7.53 29.21c-2.85 10.7-6.08 22.67-8.42 32.3-5.45 22.42-11.69 44.3-15.61 60.8"/><path stroke="#a4a6a7" vector-effect="non-scaling-stroke" d="M227.5 144.29l-.52-.31a.63.62-45.8 01-.01-1.07q3.43-2.16 6.36-3.83c5.58-3.2 10.6-6.99 16.9-9.42 1.87-.73 2.98-1.95 2.91-3.91a.55.55 0 00-.54-.53q-16.42-.29-32.85-.44-2.24-.02-2.61 1.38c-3.63 13.77-6.88 27.76-11.01 41.39-.88 2.93-1.14 6.44-2.5 9.67q-1.74 4.17-2.16 5.88c-2.52 10.52-3.75 19.82-7.81 31.17-.83 2.31-.61 5.09-1.38 7.57q-3.82 12.27-5.92 24.99a.79.78 88.3 01-.59.63q-.95.21-1.56-.71"/><path stroke="#a4a6a7" vector-effect="non-scaling-stroke" d="M229.25 147.96l-.22.14a.43.43 0 00-.18.47q1.24 4.96 5.12 8.04M201.79 210q.03-.45-.61-.55a.67.67 0 00-.75.5q-1.21 4.83-3 9.65c-.58 1.57-.32 3.12-.9 4.8-1.14 3.35-1.05 6.15-2.09 9.16-1.47 4.23-2.34 8.06-4.09 12.7q-1.8 4.77-2.1 9.95"/><path stroke="#5a5b5b" vector-effect="non-scaling-stroke" d="M144.29 301.5l2.17-8"/><path stroke="#6a6a69" vector-effect="non-scaling-stroke" d="M146.46 293.5c2.45-11.75 6.33-24.74 8.86-34.78q2.24-8.89 4.72-17.72"/><path stroke="#5a5b5b" vector-effect="non-scaling-stroke" d="M160.04 241l1.67-7.25"/><path stroke="#6a6a69" vector-effect="non-scaling-stroke" d="M161.71 233.75c4.58-18.31 9.99-36.52 13.83-55"/><path stroke="#5a5b5b" vector-effect="non-scaling-stroke" d="M175.54 178.75l1.92-6.5"/><path stroke="#6a6a69" vector-effect="non-scaling-stroke" d="M177.46 172.25c2.64-7.98 4.28-17.03 6.28-24.3q3.09-11.14 5.44-22.6a.5.5 0 00-.49-.61l-23.73.03a1.49 1.48 6.8 00-1.43 1.12c-8.1 32.49-16.98 64.94-25.11 97.51-4.48 17.94-9.78 35.4-14.27 53.58q-3.95 15.99-8.26 31.91a.39.39 0 00.33.49l24.38 3.13a.52.51-77.4 00.56-.36l3.13-10.65"/><path stroke="#a4a6a7" vector-effect="non-scaling-stroke" d="M177.46 172.25q-.54.66-1.23.48a.56.56 0 01-.41-.66c2.23-10.43 5.3-20.52 8.11-30.94q1.98-7.37 4.43-14.61a.57.57 0 00-.55-.75q-7.18.05-14.32.19c-1.97.04-4.44-.33-6.92.31a.71.7 86 00-.53.62c-.2 2.06-1.48 3.2-1.97 4.94-4.41 15.65-8.24 31.48-12.66 47.13-2.21 7.83-3.58 15.79-6.17 23.46-2.4 7.11-2.92 12.19-4.58 18.29-.79 2.9-1.03 6.24-2.08 9.31-2.33 6.79-2.66 13.64-5.05 20.26-2.25 6.23-4.59 12.69-5.53 19.27-.61 4.16-2.52 9.47-3.16 12q-2.43 9.63-5.1 19.19c-.45 1.6-1.73 3.97-1.64 6.36a1.28 1.28 0 001.07 1.21q9.57 1.59 18.33 2.98 2.99.47 3.59-2.11c.58-2.51 1.38-4.97 1.93-7.5a.61.6 8.5 01.65-.47q.33.03.62.29"/><path stroke="#a4a6a7" vector-effect="non-scaling-stroke" d="M175.54 178.75q-.47-.34-1.04-.34a.66.66 0 00-.63.52q-5.2 24.41-12.21 48.34c-.56 1.91-.48 4.09-.65 6.08a.37.37 0 00.37.4h.33M160.04 241q-.24-.26-.51-.29a.66.66 0 00-.69.46c-1 3.05-1.39 6.31-2.45 9.19-5.44 14.64-6.89 27.62-11.51 42.02a.87.87 0 00.86 1.14l.72-.02"/><path stroke="#5a5b5b" vector-effect="non-scaling-stroke" d="M392.79 134.25l2.92 4.25"/><path stroke="#8f8f8e" vector-effect="non-scaling-stroke" d="M395.71 138.5q2.49 4.44 6.11 8.38"/><path stroke="#5a5b5b" vector-effect="non-scaling-stroke" d="M401.82 146.88l3.39 4.12"/><path stroke="#8f8f8e" vector-effect="non-scaling-stroke" d="M405.21 151l1.01 1.38a.65.65 0 00.85.18l5.34-3.05a.56.56 0 00.17-.83l-4.35-5.68"/><path stroke="#5a5b5b" vector-effect="non-scaling-stroke" d="M408.23 143l-3.44-4.75"/><path stroke="#8f8f8e" vector-effect="non-scaling-stroke" d="M404.79 138.25l-.29-.54"/><path stroke="#5a5b5b" vector-effect="non-scaling-stroke" d="M404.5 137.71l-3.21-4.21"/><path stroke="#8f8f8e" vector-effect="non-scaling-stroke" d="M401.29 133.5l-4.52-6.85a.7.69-27.4 00-.84-.26l-6.53 2.65a.4.4 0 00-.17.61l3.56 4.6"/><path stroke="#cacbcc" vector-effect="non-scaling-stroke" d="M401.29 133.5c-3.04.74-4.98-.46-8.5.75M404.5 137.71l-8.79.79M404.79 138.25l-2.97 8.63M408.23 143q-2.64 3.43-3.02 8"/><path stroke="#5a5b5b" vector-effect="non-scaling-stroke" d="M252.73 134.41l-9.02 4.84"/><path stroke="#8f8f8e" vector-effect="non-scaling-stroke" d="M243.71 139.25l-10.24 5.74a.52.52 0 00-.2.72l3.03 5.34a.52.52 0 00.72.18l6.02-3.73"/><path stroke="#5a5b5b" vector-effect="non-scaling-stroke" d="M243.04 147.5l5.96-3.71"/><path stroke="#8f8f8e" vector-effect="non-scaling-stroke" d="M249 143.79l6.79-4.29"/><path stroke="#5a5b5b" vector-effect="non-scaling-stroke" d="M255.79 139.5l7.96-4.96"/><path stroke="#8f8f8e" vector-effect="non-scaling-stroke" d="M263.75 134.54q1.68-.79 2.78-2.32a.66.66 0 00.03-.72l-2.25-3.71a.44.44 0 00-.61-.15l-10.97 6.77"/><path stroke="#cacbcc" vector-effect="non-scaling-stroke" d="M263.75 134.54l-11.02-.13M255.79 139.5q-2.74-.99-5.57-.36a1.23 1.21-78.7 00-.77.52q-1.31 1.95-.45 4.13M243.04 147.5c.67-2.94 2.21-7.61.67-8.25"/><path stroke="#5a5b5b" vector-effect="non-scaling-stroke" d="M313.47 294.61q-1.72.22-2.72.85"/><path stroke="#6a6a69" vector-effect="non-scaling-stroke" d="M310.75 295.46c-6.55.9-13.69-1.34-20.26-2.04q-25.56-2.69-50.99-6.38"/><path stroke="#5a5b5b" vector-effect="non-scaling-stroke" d="M239.5 287.04l-18.44-1.92q-.5-.06-.19.33l4.09 5.05"/><path stroke="#8f8f8e" vector-effect="non-scaling-stroke" d="M224.96 290.5l7.71 10.68a1.2 1.19 75.7 00.8.48q26.7 3.41 53.35 7.26 18.43 2.67 69.03 6.77a1.22 1.22 0 00.87-.27l14.36-11.66a1.19 1.17-17.1 00.43-.79q1.1-9.19 2.05-18.41c1.8-17.6 5.22-34.98 7.92-52.43 2.61-16.81 6.4-32.61 10.59-48.72 2.27-8.73 4.63-19.89 7.49-29.72a2.4 2.39 37.2 00-.27-1.96q-3.49-5.59-7.46-11.22c-1.86-2.63-3.6-2.64-6.58-2.57q-51.89 1.25-120.91 1.65c-4.73.03-13.1 6.64-16.87 9.55a1.49 1.47 77.9 00-.53.83q-13.5 58.25-28.04 116.25a1.46 1.46 0 001.27 1.81c28.02 2.91 56.16 6.72 84.31 9.23q3.62.33 7.26.92a1.62 1.61-18.6 01.85.42c4.12 3.96 3.02 10.98.88 16.01"/><path stroke="#cacbcc" vector-effect="non-scaling-stroke" d="M224.96 290.5c25.1 2.72 50.1 6.32 75.2 9.02 5.23.56 10.9.43 13.31-4.91"/><path stroke="#a4a6a7" vector-effect="non-scaling-stroke" d="M239.5 287.04q-.76.44-1.18 1.13a.78.77 20.6 00.53 1.16q5.73 1.02 11.49 1.01c6.82-.01 12.82 1.29 19.34 2.07a.81.8 77 01.61.39l.17.3a.69.68-19.1 00.68.32q2.51-.37 4.75.9a1.11 1.07 48.5 00.92.07q2.59-.94 4.67.9a1.2 1.19 65.5 00.79.3q11.29-.18 21.16 1.49 3.99.67 7.22-.62a.6.59-15.8 00.37-.65q-.04-.27-.27-.35"/><path stroke="#8f8f8e" vector-effect="non-scaling-stroke" d="M217.32 184.76q-3.44.62-4.43 3.72c-3.73 11.76-7.39 29.54-11.33 42.94-2.48 8.42-4.12 15.34-6.03 23.08a.59.58-81.7 00.53.72l.5.03a.68.67-82.9 00.71-.56l2.23-11.98a1.55 1.55 0 012.42-.98c1.68 1.21 1.47 2.73.81 4.62q-1.5 4.29-2.06 8.91-.06.52.25.09 1.41-1.97 2.13-4.84 6.57-26.26 16.34-61.47.6-2.18-1.21-4.01a.97.97 0 00-.86-.27M191.279 263.172a8.46 6.95-32.2 00-10.862-1.373 8.46 6.95-32.2 00-3.456 10.39 8.46 6.95-32.2 0010.862 1.372 8.46 6.95-32.2 003.456-10.39"/><path stroke="#8f8f8e" vector-effect="non-scaling-stroke" d="M196.81 260.94c6.43 11.63-.7 20.53-12.54 22.27q-.5.07-.04.28c7.88 3.62 12.17-.38 16.73-6.2 4.74-6.06 3.26-13.36-3.93-16.58q-.46-.21-.22.23M217.89 274.84l-.29 1.86a.78.77-82.7 01-.85.66l-7.67-.84a.65.64-83.3 00-.71.57l-.04.37a.61.6-83 00.53.68q47.3 5.54 94.5 11.85c3.65.48 7.2.46 6.59-4.4-.17-1.34-2.14-2.9-3.7-3.07-9.63-1.06-95.66-11.14-96.48-10.23q-.39.43.18.53l7.44 1.32a.62.61 10 01.5.7M212.46 292.5l5.29 7.79"/><path stroke="#5a5b5b" vector-effect="non-scaling-stroke" d="M217.75 300.29l1.75 2.99"/><path stroke="#8f8f8e" vector-effect="non-scaling-stroke" d="M219.5 303.28q1.09 2.95 3.35 4.43a1.43 1.34-86.5 01.53.64l.6 1.52a.79.79 0 001.09.41l5.77-2.93a.71.71 0 00.33-.9q-.57-1.35-1.69-1.8"/><path stroke="#5a5b5b" vector-effect="non-scaling-stroke" d="M229.48 304.65l-3.18-3.77"/><path stroke="#8f8f8e" vector-effect="non-scaling-stroke" d="M226.3 300.88l-8.05-11.42"/><path stroke="#5a5b5b" vector-effect="non-scaling-stroke" d="M218.25 289.46q-1.1-2.87-3.29-5.03a1.36 1.35-19.4 00-.82-.39l-8.95-.83a.23.23 0 00-.16.42c2.84 2.08 5 6.25 7.43 8.87"/><path stroke="#cacbcc" vector-effect="non-scaling-stroke" d="M218.25 289.46l-3.94-.13a.72.71-77.7 00-.69.45l-1.16 2.72M226.3 300.88q-4.25-1.85-8.55-.59M229.48 304.65q-5.07.56-9.98-1.37"/><path stroke="#5a5b5b" vector-effect="non-scaling-stroke" d="M375.21 305l-3.21 2.46"/><path stroke="#8f8f8e" vector-effect="non-scaling-stroke" d="M372 307.46L360.46 317"/><path stroke="#5a5b5b" vector-effect="non-scaling-stroke" d="M360.46 317q-2.01 1.2-3.21 3.21"/><path stroke="#8f8f8e" vector-effect="non-scaling-stroke" d="M357.25 320.21l-4 3.15a.46.45-43.5 00-.02.7l4.34 3.82a.64.64 0 00.84.01l8.17-6.96"/><path stroke="#5a5b5b" vector-effect="non-scaling-stroke" d="M366.58 320.93l7.57-6.21"/><path stroke="#8f8f8e" vector-effect="non-scaling-stroke" d="M374.15 314.72q5.43-3.75 9.63-8.58a.55.55 0 000-.72l-3.22-3.81a.55.55 0 00-.75-.09l-4.6 3.48"/><path stroke="#cacbcc" vector-effect="non-scaling-stroke" d="M374.15 314.72l1.54-8.01a1.55 1.49-53.4 00-.12-.93l-.36-.78M366.58 320.93l-9.33-.72M360.46 317q1.23.85 2.48.04a1.77 1.76 28 01.92-.28c7.38-.17 6.79.03 7.85-7.15a1.58 1.52-20 01.41-.84q.61-.64-.12-1.31"/><path stroke="#8e8d7d" vector-effect="non-scaling-stroke" d="M266.61 453.83q47.28 12.27 94.87 23.39a.41.4-82.6 00.5-.39q.13-10.19-.05-20.41-.91-51.45-1.05-103.03a.58.57-86 00-.49-.57q-74.56-10.86-149.17-21.33-2.37-.33-4.74-.63a.49.48 3.2 00-.54.48l.2 69.61q0 .61.51.26c5.26-3.61 15.69.49 20.57 1.42a.74.72-85.2 01.59.71l.26 21.71a.99.97-17.8 01-.44.83l-19.98 13.05q-.52.35.09.5c19.59 5.01 39.31 9.33 58.87 14.4"/><path stroke="#6a6a69" vector-effect="non-scaling-stroke" d="M179.54 386.75q.26 23.59.74 47.18.02 1.04.26 2.07"/><path stroke="#5a5b5b" vector-effect="non-scaling-stroke" d="M180.54 436q1.54 4.19 5.36 6.72.34.22.34-.19l-.83-97.09a1.2 1.17 19.2 00-.47-.94l-4.73-3.6q-1.48-1.12-1.45.74l.78 45.11"/><path stroke="#a4a6a7" vector-effect="non-scaling-stroke" d="M180.54 436q.28-.48.27-1-.33-21.84-.14-43.69.02-1.92.1-3.91a.64.64 0 00-.48-.66q-.36-.09-.75.01"/><path stroke="#6a6a69" vector-effect="non-scaling-stroke" d="M367.79 423.25l.5 22"/><path stroke="#5a5b5b" vector-effect="non-scaling-stroke" d="M368.29 445.25l.24 44.19q.01.5.36.15c4.38-4.27 8.5-6.76 6.9-13.84"/><path stroke="#6a6a69" vector-effect="non-scaling-stroke" d="M375.79 475.75l-.58-67"/><path stroke="#5a5b5b" vector-effect="non-scaling-stroke" d="M375.21 408.75l-.13-32.17a1.71 1.68-63.9 00-.34-1.02q-2.61-3.5-6-6.24a.84.83-54.5 00-1.23.21q-.47.76-.44 2.22.52 25.75.72 51.5"/><path stroke="#a4a6a7" vector-effect="non-scaling-stroke" d="M375.21 408.75q-.54-.61-1.06-.49a.65.64-7.6 00-.5.65q.18 6.88-.12 13.77c-.23 5.26.4 11.44-.19 17.23q-.05.52.15 1 .7 1.67-.28 3.19a1.11 1.07 53.5 00-.12.91q.66 2.15.74 4.43c.32 8.71-.36 17.6.22 26.24a1.14 1.14 0 00.47.84l.49.36q.69.5.74-.35l.04-.78M368.29 445.25q1.56.51 3.16-.41.65-.38-.07-.62-2.34-.77-.95-2.94a1.7 1.66 61.6 00.27-.95l-.09-6.87a1.13 1.11 22.9 00-.33-.79l-.22-.23a.87.86 22.5 01-.24-.57l-.23-8.81a.63.63 0 00-.88-.56q-.62.26-.92.75"/><path stroke="#5a5b5b" vector-effect="non-scaling-stroke" d="M210.74 406.43q-5.67 1.29-3.96 6.78a.39.39 0 00.58.21l8.14-5.38"/><path stroke="#6a6a69" vector-effect="non-scaling-stroke" d="M215.5 408.04q1.57-.41 2.8-1.4.41-.33-.11-.4-3.72-.51-7.45.19"/><path stroke="#a4a6a7" vector-effect="non-scaling-stroke" d="M215.5 408.04l-4.76-1.61"/><path stroke="#5a5b5b" vector-effect="non-scaling-stroke" d="M138.88 447.98c3.16.99 5.58 1.89 8.73.28q12.01-6.18 23.43-13.45c2.61-1.66 3.09-3.58 2.22-6.42a.4.4 0 00-.58-.23l-33.85 19.37a.25.25 0 00.05.45M206.33 446.34l-11.82 6.73a.68.67 36.9 00.18 1.24l13.31 3.15"/><path stroke="#6a6a69" vector-effect="non-scaling-stroke" d="M208 457.46c37.12 9.65 74.11 19.77 111.25 29.33"/><path stroke="#5a5b5b" vector-effect="non-scaling-stroke" d="M319.25 486.79l3.75.92"/><path stroke="#6a6a69" vector-effect="non-scaling-stroke" d="M323 487.71l35.28 9.5a1.4 1.36 39.2 00.94-.08c4.18-1.99 2.95-8.1 2.56-11.75a1.6 1.6 0 00-1.2-1.38L241 453.96"/><path stroke="#5a5b5b" vector-effect="non-scaling-stroke" d="M241 453.96l-6.25-1.67"/><path stroke="#6a6a69" vector-effect="non-scaling-stroke" d="M234.75 452.29q-14-3.96-28.42-5.95"/><path stroke="#a4a6a7" vector-effect="non-scaling-stroke" d="M234.75 452.29q.12.31 0 .65a.61.61 0 01-.7.39q-9.87-2.04-19.61-4.65-2.11-.56-3.42-.68c-2.07-.18-4.77 1.58-4.69-1.66M241 453.96q-.29.42-.3.83a.67.67 0 00.51.66c5.18 1.24 10.36 2.03 15.49 3.85 2.9 1.03 6.48 1.95 9.58 2.55q12.24 2.37 24.22 5.82c5.52 1.59 12.7 2.95 18.87 5.13 5.62 1.98 11.23 2.47 16.11 3.8q16.71 4.54 33.72 8.05a.95.95 0 01.72.64q1.5 4.47.59 9.21a1.98 1.97 15.2 01-2.61 1.49c-8.85-3.16-17.85-4.81-26.69-7.65-1.97-.63-8.58-3.1-8.21-.63"/><path stroke="#a4a6a7" vector-effect="non-scaling-stroke" d="M319.25 486.79q.25.11.42-.12a.37.36-58.9 00-.13-.54c-5.4-2.74-11.22-3.17-16.37-4.84-8.38-2.71-17.41-4.09-25.56-7.09-3.47-1.28-7.61-1.7-10.78-2.76q-5.32-1.79-10.86-2.79c-2.42-.44-5.53-2.15-7.72-2.18-3.01-.03-3.79-.88-6.02-1.45-11.14-2.85-20.69-6.04-33.54-8.47q-.91-.17-.69.91"/><path stroke="#5a5b5b" vector-effect="non-scaling-stroke" d="M402.62 466.86l5.52 2.34a.91.9-55.7 00.98-.19l13.98-13.71q1.66-1.62-.61-2.1l-4.05-.83a1.13 1.11-59.8 00-.99.27l-14.92 13.66a.34.34 0 00.09.56"/><path stroke="#6a6a69" vector-effect="non-scaling-stroke" d="M136.62 470.45l4.85 1.56a.34.34 0 00.45-.31q.36-7.94-.58-15.83a.83.82 1.4 00-.69-.72l-4.16-.71a.65.65 0 00-.75.64l.05 14.24a1.21 1.2 8.8 00.83 1.13"/><path stroke="#5a5b5b" vector-effect="non-scaling-stroke" d="M350.4 516.57q4.06 1.65 8.41 2.04a1.22 1.22 0 00.92-.32c9.7-8.92 19.49-18.58 28.28-28.39a.37.37 0 00-.18-.6l-5.88-1.53a1.52 1.48-49 00-.98.08c-1.36.57-2.71 1.19-3.83 2.24-8.83 8.32-19 16.5-26.97 25.55a.59.58 31.4 00.23.93M348.95 542.81l7.97 2.38a.49.48 7.9 00.63-.47l-.17-18.9a1.86 1.85-84.7 00-1.5-1.81l-6.03-1.2"/><path stroke="#6a6a69" vector-effect="non-scaling-stroke" d="M349.85 522.81q-.79-.48-1.44-.54a.51.51 0 00-.55.49q-.39 10.08 1.09 20.05"/><path stroke="#a4a6a7" vector-effect="non-scaling-stroke" d="M349.85 522.81l-.9 20"/><path stroke="#8f8f8e" vector-effect="non-scaling-stroke" d="M350.43 263.18l1.66-11.12a.58.58 0 00-.55-.67l-1.42-.07a1.43 1.43 0 00-1.49 1.21l-1.38 8.78a.59.59 0 01-.57.49q-2.39.03-2.39-2.54 0-8.07.2-11.21a.6.6 0 00-.75-.62l-2.13.54a.92.92 0 00-.71.86l-.53 11.15a.52.52 0 01-.6.49l-2.93-.43a.63.63 0 01-.52-.75c1.85-9.49 3.5-21.39 8.2-29.75 3.68-6.55 3.11-9.67 3.98-16.3q.39-2.98 1.94-.4l8.29 13.86a1.56 1.56 0 001.26.75q2.19.1 3.19-1.76a.84.82-48.7 00-.05-.88c-4.02-5.6-6.71-12.11-11.11-17.65a.92.9-54.9 01-.14-.87c.75-2.18 2.31-4.95-.29-6.65a.94.92 47.6 00-.94-.05l-2.45 1.28a.61.6 59.6 01-.78-.21q-1.99-3.15-5.15-5.15a.9.9 0 01-.2-1.35q4.56-5.29 9.93-9.65c2.53-2.05 1.13-4-.51-5.86a.62.61-46.6 01-.02-.78q1.67-2.13 3.5-.65c2.21 1.78 6.59 3.69 8.22.3q.92-1.92-.95-4.31-3.21-4.12-7.72-3.26a.6.6 0 01-.71-.5l-.41-2.82a.83.83 0 01.72-.94l4.98-.62a.95.95 0 01.89.39c1.6 2.26 6.47 9.31 9.52 8.81a1.15 1.14 1.5 00.92-.87c1.44-6.63-3.21-9.28-8.38-11.05a.83.83 0 01-.56-.66c-1.03-6.59 7.6-7.27 11.92-5.76a.67.66-79.5 01.45.66c-.13 2.49-.56 5.46.7 7.56 1.51 2.52 5.78 4.95 8.66 2.95a.95.93 70.3 00.4-.86q-.63-6.49-5.56-10.67a.55.54-54.8 01-.12-.71q2.61-4.29 7.55-3.36a.98.98 0 001.05-1.41c-2.31-4.44-9.15.49-11.1 3.15a.6.6 0 01-.74.19c-6.59-3.06-16.54-.56-15.95 8.61a.49.48-88 01-.54.51q-3.72-.47-6.74 1.6a1.47 1.45 82.9 00-.56.73q-.93 2.64 0 5.23a1.08 1.06-37.9 01-.13.98l-2.38 3.54a.38.37-52.6 01-.56.08c-2.33-2-2.93-6.07-6.67-2.29q-3.96 4-8.73 7.08a.66.66 0 01-.81-.07q-6.24-5.68-5.95-14.18a1.2 1.2 0 00-1.71-1.13c-11.67 5.45-22.46 12.31-34.27 17.58q-2.97 1.33-7.69 4.23a.94.93-47.8 01-.88.05l-1.61-.73a.64.64 0 00-.84.3q-2.28 4.5-7.47 7.18-4.76 2.46-18.93 11.59-2.04 1.31-.41 2.91a1.59 1.57 52.3 001.87.25l22.5-12.49q.56-.31.46.32c-1.38 9.12-4.59 19.33-6.16 26.77q-2.44 11.62-5.03 23.26a.76.75 18.7 01-1.06.52l-.32-.15a.66.66 0 01-.38-.64c.12-1.61.95-6.53-.8-7.3a.78.78 0 00-1.02.36q-1.65 3.23-1.69 6.88a.47.46-87.1 01-.5.46l-3.45-.27a.42.41 7.1 01-.38-.47c.17-1.23 1.74-10.93-1.87-9.14a.87.85-10.2 00-.48.68l-.8 7.86a.69.69 0 01-.69.62h-3.86a.39.39 0 01-.37-.51l1.4-4.24a1.49 1.48-73.3 00-1.01-1.89c-3.25-.92-3.94 3.47-4.56 6.1a.76.76 0 01-.79.58l-2.8-.17a.63.63 0 01-.58-.74c.29-1.54 2.05-7.56.65-8.44a.58.58 0 00-.85.28l-3.14 8.22a1.16 1.12 89 01-.58.62l-1.4.64a1.1 1.09-7.3 00-.63.81q-.35 2.02 1.45 2.27c6 .82 15.22 1.24 23.95 1.55q18.06.64 33.26 8.62 7.54 3.96 15.09 4.35c7.4.37 14.74 1.14 22.14 1.73a1.95 1.93-24.6 011.01.37q1.97 1.41 3.84.06a1.37 1.35-59.2 01.95-.25q11.62 1.36 22.41 5.82c1.81.75 3.76.68 4.06-1.6a1.06 1.06 0 00-.3-.89l-1.46-1.47a.72.72 0 01-.14-.84c.77-1.53 4.98-6.06 1.5-6.76a1.06 1.05-62.2 00-.96.3q-2.07 2.17-3.18 4.99a.79.79 0 01-.73.49h-1.61q-.75 0-.37-.65l4.77-8.19q1.05-1.8-1.01-1.47c-2.68.44-5.9 6.69-7.41 8.89q-.52.75-.38-.15"/><path stroke="#8f8f8e" vector-effect="non-scaling-stroke" d="M376.74 158.49a.4.4 0 00-.7.27q.01 4.09 3.52 5.9a.54.54 0 00.75-.69q-1.31-3.05-3.57-5.48"/><path stroke="#8e8d7d" vector-effect="non-scaling-stroke" d="M367.352 170.078a1.6.37 57.4 00-.55-1.547 1.6.37 57.4 00-1.174-1.149 1.6.37 57.4 00.55 1.547 1.6.37 57.4 001.174 1.149"/><path stroke="#8f8f8e" vector-effect="non-scaling-stroke" d="M297.67 255.97q5.36 1.9 10.83 2.22c7.41.43 14.79 1.16 22.21 1.54a.6.59 7.5 00.61-.46q2.28-9.74 4.05-19.58c.79-4.39 2.34-9.03 4.8-12.87 1.55-2.41 2.96-4.04 3.31-7.08.44-3.88.65-8.34 2.6-11.82a.93.92 45.9 00.01-.89q-1.52-2.87-2.8-4.07-8.89-8.34-14.94-18.88c-2.26-3.92-5.67-7.63-7.03-12.99a.4.39-20.5 00-.56-.25q-6.79 3.55-13.53 7.2c-7.64 4.15-17.13 8.22-25.49 12.94a1.96 1.96 0 00-1 1.58q-.33 4.88-1.5 9.94-4.09 17.78-8.51 35.5-.89 3.58-1.24 7.38a.71.71 0 00.56.76l10.29 2.21a.59.59 0 00.71-.45l5.47-23.11a.72.72 0 00-.43-.83l-4.69-1.86a.95.94 22.4 01-.52-1.24l.93-2.23a1.67 1.67 0 011.99-.96l3.84 1.07a.5.5 0 00.62-.38l.78-3.94q.56-2.77 2.73-.97l.23.19a.92.89-63.4 01.29.92l-1.14 4.53a1.26 1.26 0 00.63 1.42q6.2 3.26 13.04 4.9a1.14 1.14 0 01.67 1.75c-5.2 7.53-7.62 18.18-8.82 27.18a1.52 1.52 0 001 1.63M359.797 175.7a2.3 1.08 35.3 00-1.253-2.211 2.3 1.08 35.3 00-2.501-.448 2.3 1.08 35.3 001.253 2.21 2.3 1.08 35.3 002.501.448"/><path stroke="#6a6a69" vector-effect="non-scaling-stroke" d="M351.829 174.922a.78.47 135 00.883-.22.78.47 135 00.22-.883.78.47 135 00-.884.219.78.47 135 00-.22.883"/><path stroke="#8f8f8e" vector-effect="non-scaling-stroke" d="M342.36 177.3c-2.32 2.54-5.58 3.75-8.15 6.17a.61.61 0 00-.08.79l4.67 6.61a.5.5 0 00.78.05q3.61-4.08 7.59-7.73c1.71-1.56.56-2-.23-3.13q-1.47-2.11-3.76-2.96a.77.76 30.9 00-.82.2M289.62 225.12L284 249.06a.84.83-73.1 00.51.97l7.2 2.78a.96.96 0 001.3-.78q1.41-11.64 5.28-22.69a.58.57-68.7 00-.31-.72l-8.31-3.53a.04.03-72.1 00-.05.03M320.28 207.51l-1.15-1.54a.6.6 0 00-.9-.08l-1.61 1.51a1.24 1.21 22.8 01-.84.33c-1.85-.03-4.99.25-3.73 3.09a.96.95-5.1 00.65.54l1.85.44a.7.7 0 01.53.77l-.64 5.21a.7.69-7.2 01-.44.56l-2.87 1.03a.76.75-19.9 00-.46.96q.54 1.51 2.26 1.81a.63.62 8.9 01.52.7l-1.29 9.07a.83.83 0 01-.72.71q-3.01.33-2.4 3.31a1.12 1.12 0 001.15.88l10.48-.65a1.29 1.29 0 011.34 1.56q-.7 3.23 2.35 3.03a1.23 1.22-1.8 001.14-1.21l.02-2.99a.58.58 0 01.72-.56q3.32.83 6.33-.64a1.81 1.79 78.8 001.01-1.52q.58-10.33 3.29-20.2c1.97-7.18-4.83-5.77-9.24-5.97a.59.59 0 01-.56-.57l-.1-3.15a.7.69-82.1 00-.47-.63c-2.36-.78-2.03 2.77-2.25 4.05a.74.74 0 01-.73.62h-2.33a1.14 1.11 71.7 01-.91-.47"/><path stroke="#8f8f8e" vector-effect="non-scaling-stroke" d="M327.66 212.31a.56.56 0 00-.6.52l-.35 5.07a.56.56 0 00.51.6l3.44.3a.56.56 0 00.58-.4l1.51-5.02a.56.56 0 00-.49-.72l-4.6-.35M320.14 212.5a.45.45 0 00-.42.3l-1.78 5.14a.45.45 0 00.41.6l5.43.28a.45.45 0 00.47-.45v-5.42a.45.45 0 00-.45-.45h-3.66M323.446 222.867a.26.26 0 00-.24-.279l-6.243-.47a.26.26 0 00-.278.24l-.67 8.915a.26.26 0 00.24.279l6.242.47a.26.26 0 00.278-.24l.67-8.915M328.89 231.11c.64-2.29 1.08-5.52 1.35-7.95a.59.59 0 00-.59-.66h-3.38a.54.54 0 00-.54.54l.03 7.87a.66.66 0 00.65.66l1.82.03a.67.67 0 00.66-.49"/><path stroke="#a4a6a7" vector-effect="non-scaling-stroke" d="M140.51 470q.14-6.21-1.43-13.13a.59.59 0 00-1.16.11l-.5 11.94a.86.85-81.7 00.64.87l2.63.68q.22.06.05-.09-.24-.2-.23-.38"/><path stroke="#6a6a69" vector-effect="non-scaling-stroke" d="M589.94 591q-4.88-.63-9.75 0M566.94 591q-11.38-.63-22.75 0M543.94 591q-2.88-.63-5.75 0M527.94 591q-2.88-.63-5.75 0M519.94 591q-22.88-.63-45.75 0M473.94 591q-3.88-.63-7.75 0M456.94 591q-15.38-.63-30.75 0M422.94 591q-2.88-.63-5.75 0M407.44 591q-7.13-.63-14.25 0M383.94 591l-45.69-.21M338.25 590.79l-16.06.21M319.94 591q-2.63-.63-5.25 0M311.94 591q-30.88-.63-61.75 0M223.94 591q-2.88-.63-5.75 0M215.94 591q-2.88-.63-5.75 0M205.94 591q-10.38-.63-20.75 0M184.94 591q-3.88-.63-7.75 0M175.94 591q-23.38-.63-46.75 0M128.94 591q-3.88-.63-7.75 0M119.94 591q-7.88-.63-15.75 0M77.94 591q-2.88-.63-5.75 0M71.94 591q-2.88-.63-5.75 0M63.94 591q-6.88-.63-13.75 0M49.94 591q-2.88-.63-5.75 0M41.94 591q-7.88-.63-15.75 0M24.94 591q-4.13-.63-8.25 0M14.44 591q-6.84-.45-13.69-.26c-.51.02-.64-.24-.5-.7"/><path stroke="#1f1e1d" vector-effect="non-scaling-stroke" d="M338.25 590.79l-.06.21"/></g><path d="M0 0h590.06l-.02.25.25 3.75v1l-.04 584.71-.46.32a1.17 1.13-61.8 01-.66.21q-292.22.02-584.44-.12-2.23 0-4.44-.08l-.25-.1V0zm585.5 5.51a.26.26 0 00-.26-.26H5.5a.26.26 0 00-.26.26v579.72a.26.26 0 00.26.26h579.74a.26.26 0 00.26-.26V5.51z"/><path fill="#1f1e1d" d="M590.06 0h.94v591h-.31l.02-1.25-.02-584.56a.15.15 0 00-.13-.15l-.27-.04V4q1.37-2.04-.25-3.75l.02-.25z"/><path fill="#949799" d="M590.04.25q1.62 1.71.25 3.75l-.25-3.75zM590.29 5l.27.04a.15.15 0 01.13.15l.02 584.56-.46-.04L590.29 5z"/><path fill="#fdfcdd" d="M585.5 585.23a.26.26 0 01-.26.26H5.5a.26.26 0 01-.26-.26V5.51a.26.26 0 01.26-.26h579.74a.26.26 0 01.26.26v579.72zM29.08 86.48c2.37.72 57.59-57.23 63.52-63.44a.44.44 0 00-.31-.75Q72.72 21.7 53 21.92c-18.73.21-26.01 7.42-25.15 26.02.61 13.28-.19 24.82.26 37.28a1.36 1.36 0 00.97 1.26zM475.21 244.5l3.83-24c6.82-35.4 10.93-64.16 16.28-96.28q.12-.73.16-1.59a1.46 1.44 27.2 00-.31-.95l-2.55-3.24q-.39-.5.25-.52c5.06-.17 5.38-5.64 5.78-10.12.38-4.13 2.72-5.99-.43-10.21q-2.26-3.03-4.7-5.87a1.1 1.1 0 00-.83-.38q-26.64.17-53.26 1.17c-26.16.97-52.33 1.45-78.5 2.47-45.81 1.78-91.66 2.92-137.59 4.02a.76.75-83.4 01-.75-.95l2.05-7.66a1.67 1.59 42 00-.08-1.05q-1.75-4.01-4.48-7.48-.71-.9-2.83-.88-7.72.07-15.69.37a1.02 1.02 0 00-.95.78q-1.83 7.69-3.69 15.8c-.72 3.18-2.64 2.19-4.91 2.25q-13.29.36-25.68.63-1.75.04-2.26 1.72l-3.3 11.05a.97.97 0 00.33 1.04l4.37 3.45a.32.32 0 01-.05.54c-.88.46-2.01-.21-2.93-.08q-1.92.27-3.45 1.58a1.66 1.62-13.4 00-.51.81c-16.05 60.87-32.76 126.26-49.21 189.43a.83.81 25.3 00.32.87q3.57 2.61 6.06 6.26a1.01.97 75.8 00.67.42l22.57 3.24a.81.8-78.3 01.66 1.01l-2.41 8.62a.49.49 0 00.4.62l.76.11a.97.96-10.2 01.7.48l2.02 3.48a.91.89-15 00.78.44q8.07 0 15.69 2.68a2.12 2.11 17.4 002.74-1.43l3.36-12.15a.57.56 11.5 01.63-.41l7.55 1.05a.73.72 88.9 01.62.6q.41 2.24.4 3.26-.41 44.62.36 89.24c.02 1.62-.59 2.34-1.9 3.09q-10.25 5.87-42.11 24.39a.93.92-16.3 00-.46.83l1.16 27.93a.84.83 6 00.64.78l13.6 3.27a.33.31 32.8 00.22-.04l28.04-17.82a1.17 1.17 0 011.02-.12l14.76 5.16a1.85 1.82 47.4 001.01.05q1.65-.41 3.31.03 77.94 20.37 155.91 41.25a.48.47-59 01.2.81l-7.26 6.69a1.05 1.03 66.9 00-.33.85q1.3 15.13 1.08 30.32a.73.73 0 00.52.71q8.87 2.71 17.18 6.85a.73.72-55 00.85-.15q34.38-35.94 68.71-71.93c1.3-1.37 1.97-2.94 1.93-4.7q-.3-13.13-.38-26.42a.67.66 9.1 00-.46-.63q-7.68-2.52-15.77-2.79a1.38 1.38 0 00-1 .38l-15.1 14.13q-.54.5-.55-.23l-1.41-103.1a.48.48 0 01.55-.48q23.85 3.63 30.1 4.35c5.94.68 11.43 1.83 16.51 2.37 2.03.22 10.29 1.96 10.8-.3q1.96-8.66 5.92-30.3c1.64-8.94 2.72-19.78 4.52-28.97 2.69-13.72 4.8-28.46 6.84-40.03q1.8-10.21 3.36-20.47z"/><path fill="#f8dfa6" d="M92.6 23.04c-5.93 6.21-61.15 64.16-63.52 63.44a1.36 1.36 0 01-.97-1.26c-.45-12.46.35-24-.26-37.28-.86-18.6 6.42-25.81 25.15-26.02q19.72-.22 39.29.37a.44.44 0 01.31.75z"/><path fill="#1f1e1d" d="M479.04 220.5l-.05-.73a.55.55 0 00-.53-.52l-.27-.01a.59.58-83.4 00-.58.47q-2.36 11.87-3.48 23.93a.8.78 15.7 00.45.78q.3.14.63.08-1.56 10.26-3.36 20.47c-2.04 11.57-4.15 26.31-6.84 40.03-1.8 9.19-2.88 20.03-4.52 28.97q-3.96 21.64-5.92 30.3c-.51 2.26-8.77.52-10.8.3-5.08-.54-10.57-1.69-16.51-2.37q-6.25-.72-30.1-4.35a.48.48 0 00-.55.48l1.41 103.1q.01.73.55.23l15.1-14.13a1.38 1.38 0 011-.38q8.09.27 15.77 2.79a.67.66 9.1 01.46.63q.08 13.29.38 26.42c.04 1.76-.63 3.33-1.93 4.7q-34.33 35.99-68.71 71.93a.73.72-55 01-.85.15q-8.31-4.14-17.18-6.85a.73.73 0 01-.52-.71q.22-15.19-1.08-30.32a1.05 1.03 66.9 01.33-.85l7.26-6.69a.48.47-59 00-.2-.81q-77.97-20.88-155.91-41.25-1.66-.44-3.31-.03a1.85 1.82 47.4 01-1.01-.05l-14.76-5.16a1.17 1.17 0 00-1.02.12l-28.04 17.82a.33.31 32.8 01-.22.04l-13.6-3.27a.84.83 6 01-.64-.78l-1.16-27.93a.93.92-16.3 01.46-.83q31.86-18.52 42.11-24.39c1.31-.75 1.92-1.47 1.9-3.09q-.77-44.62-.36-89.24.01-1.02-.4-3.26a.73.72 88.9 00-.62-.6l-7.55-1.05a.57.56 11.5 00-.63.41l-3.36 12.15a2.12 2.11 17.4 01-2.74 1.43q-7.62-2.68-15.69-2.68a.91.89-15 01-.78-.44l-2.02-3.48a.97.96-10.2 00-.7-.48l-.76-.11a.49.49 0 01-.4-.62l2.41-8.62a.81.8-78.3 00-.66-1.01l-22.57-3.24a1.01.97 75.8 01-.67-.42q-2.49-3.65-6.06-6.26a.83.81 25.3 01-.32-.87c16.45-63.17 33.16-128.56 49.21-189.43a1.66 1.62-13.4 01.51-.81q1.53-1.31 3.45-1.58c.92-.13 2.05.54 2.93.08a.32.32 0 00.05-.54l-4.37-3.45a.97.97 0 01-.33-1.04l3.3-11.05q.51-1.68 2.26-1.72 12.39-.27 25.68-.63c2.27-.06 4.19.93 4.91-2.25q1.86-8.11 3.69-15.8a1.02 1.02 0 01.95-.78q7.97-.3 15.69-.37 2.12-.02 2.83.88 2.73 3.47 4.48 7.48a1.67 1.59 42 01.08 1.05l-2.05 7.66a.76.75-83.4 00.75.95c45.93-1.1 91.78-2.24 137.59-4.02 26.17-1.02 52.34-1.5 78.5-2.47q26.62-1 53.26-1.17a1.1 1.1 0 01.83.38q2.44 2.84 4.7 5.87c3.15 4.22.81 6.08.43 10.21-.4 4.48-.72 9.95-5.78 10.12q-.64.02-.25.52l2.55 3.24a1.46 1.44 27.2 01.31.95q-.04.86-.16 1.59c-5.35 32.12-9.46 60.88-16.28 96.28zM144.83 328.45c1.64.57 4.86 1.1 6.6 1.04a.67.66-83 00.63-.5c7.71-30.66 16.15-61.3 22.99-92.16.91-4.1 2.81-8.26 3.72-12.08 9.77-40.88 23.35-91.72 34.76-137.53a.78.77-83 00-.75-.97h-5.67a.78.77-81.3 00-.74.55q-4.73 16.02-8.76 32.23c-6.06 24.29-12.56 48.46-18.52 72.78q-.77 3.13-2.58 8.77c-2.31 7.18-4.32 17.76-5.41 21.92-6.7 25.63-12.78 51.48-19.89 76.99q-3.59 12.91-6.77 28.27a.61.61 0 00.39.69zm100.48-214.39q-.7-.34-1.07-.31-12.63.93-25.34.89a.69.68 3.8 00-.68.59l-.26 1.78a.51.51 0 00.51.59q36.98-.63 73.97-.93c9.08-.07 18.74-.88 27.17-.92 38.21-.2 72.92-1.14 114.64-1.53 5.11-.05 11.03-.67 15.76-.7q20.69-.16 41.43-.52.53-.01.24-.45l-2.4-3.71a.78.77 73.4 00-.65-.36q-20.2.05-40.38.81c-28.42 1.05-56.89 1.38-85.31 1.92-8.01.15-17.04.78-25.59.79-31.76.04-60.61 1-90.82 1.56a.53.51 21.5 00-.37.15l-.23.24a.54.54 0 01-.62.11zm-54.25 1.63q-7.06-.57-19.52.14a.39.38-12.1 00-.34.52c1.02 2.59 14.73 1.58 19.9 1.28a.79.77-81.1 00.68-.51q.49-1.33-.72-1.43zm217.31 20.42l9.97 13.09a.75.74-35.9 01-.18 1.08l-11.95 7.97-.92.25q0-1.43-1.1-2.23a.36.36 0 00-.56.19q-2.04 7.1-2.65 9.79c-6.05 26.53-12.07 50.23-17.08 79.71-2.01 11.76-3.68 26.22-5.86 39.29l-1.58 13.97q-.11.97.51.22l2.44-2.94a.95.94-42.7 011.5.06c2.38 3.42 6.4 6 9.55 8.75.68.6.78 1.33.04 1.9q-4.66 2.95-7.92 5.88-11.03 9.88-21.75 17.49-.74.53-2.37 2.42l-1.67.75-8.33-9.87a.48.48 0 01.02-.64l2.39-2.52q.64-.68-.29-.77c-29.98-2.97-59.66-5.71-89.48-10.3-6.12-.95-14.94-1.71-22.36-3.23a.3.3 0 00-.34.4l.65 1.7a.61.61 0 01-.37.8c-3.87 1.38-11.39 3.8-13.03 7.82-3.65-1.57-6.39-7.53-9.1-12.28a1.43 1.41 85.1 00-.76-.65q-4.21-1.57-8.72-1.16a.64.63 79.7 01-.67-.47q-.11-.41.31-.83l1.37-8.45a1.22 1.21 31.5 00-.22-.91l-3.95-5.43a1.7 1.7 0 00-2.57-.21c-6.54 6.5-18.47 6.8-25.64.95q-.41-.33-.6-.82l-.54-1.4q-.39-1.01-.66.03c-.56 2.16-.74 4.54-1.34 6.56q-3.43 11.62-6.26 23.29a.88.87 11.1 00.73 1.07l16.72 2.36 28.75 3.92 65.96 9.29 17.04 2.71q19.07 2.26 38.04 5.25c11.99 1.89 25.32 3.25 37.96 5.33 14.84 2.39 29.74 3.75 44.61 6.13q14.76 2.37 29.67 3.89a.64.64 0 00.67-.44q.35-1.05.8-3.62 4.61-26.1 8.58-52.3c1.96-12.93 5.52-28.28 7.13-42.7q.98-8.02 2.67-15.92 3.33-15.53 4.92-31.32.16-1.61 1.16-5.51l3.5-20.5c2.06-17.01 6.06-33.58 8.16-50.52q1.84-5.69 2.44-11.81a.77.76-86.9 00-.75-.84c-15.76-.33-33.75.33-47.32.47q-19.78.2-38.52.23-2.53 0-1.01 2.02l10.16 13.56zM322 122.54q-25.09.22-50.19.42-4.01.03-6.02.42a.27.26 65.4 00-.15.42l6.75 8.72a.66.65-29.4 01-.29 1.01l-1.85.72a.88.88 0 00-.57.73c-.19 1.74 5.43.81 6.57.73 17-.29 33.79-.91 51-.95q27.88-.06 55.74-1.25 1.58-.07 3.22-.27.36-.05.11-.31l-3.55-3.67a1.2 1.2 0 01.39-1.93q5.97-2.62 12.56-4.91.86-.3.81-1.11a.56.55-1.1 00-.56-.53c-1.22.01-2.51.49-3.63.5q-35.17.49-70.34 1.26zM184.21 246.75l-2.8 10.18a.31.31 0 00.36.39l6.48-1.11 1.03.04a.66.65-81.8 00.66-.5q1.95-7.96 4.17-15.84c2.75-9.8 4.93-19.97 7.68-29.91q2.81-7.93 5.74-21.68 1.32-6.18 6.9-8.56c4.48-1.91 9.6.13 10.43 5.09q.41 2.37-1.23 8.2-8.69 31.03-16.73 62.24-.27 1.05-.37 2.17a1.58 1.54-59.2 00.24.99q2.36 3.66 3.01 7.94a.68.68 0 00.62.58l2.73.23a.76.75 10.3 00.79-.54q3.27-11.29 5.31-22.87.88-5.01 4.27-16.54 3.31-11.23 8.94-35.93c2.76-12.1 6.29-25.1 9.25-37.83q.28-1.25-.87-.71c-2.71 1.26-2.67 3.21-6.85 3.83q-1.75-4.92-4.72-8.65-1.43-1.62-1.75-3.67c11.19-7.64 23.68-13.76 35.27-20.91q.43-.26-.07-.28-3.79-.12-7.57.08c-12.96.66-25.93.84-38.87.87a.52.51 5.8 00-.49.39q-3.66 14.65-7.53 29.21c-2.85 10.7-6.08 22.67-8.42 32.3-5.45 22.42-11.69 44.3-15.61 60.8zm-39.92 54.75l2.17-8c2.45-11.75 6.33-24.74 8.86-34.78q2.24-8.89 4.72-17.72l1.67-7.25c4.58-18.31 9.99-36.52 13.83-55l1.92-6.5c2.64-7.98 4.28-17.03 6.28-24.3q3.09-11.14 5.44-22.6a.5.5 0 00-.49-.61l-23.73.03a1.49 1.48 6.8 00-1.43 1.12c-8.1 32.49-16.98 64.94-25.11 97.51-4.48 17.94-9.78 35.4-14.27 53.58q-3.95 15.99-8.26 31.91a.39.39 0 00.33.49l24.38 3.13a.52.51-77.4 00.56-.36l3.13-10.65zm248.5-167.25l2.92 4.25q2.49 4.44 6.11 8.38l3.39 4.12 1.01 1.38a.65.65 0 00.85.18l5.34-3.05a.56.56 0 00.17-.83l-4.35-5.68-3.44-4.75-.29-.54-3.21-4.21-4.52-6.85a.7.69-27.4 00-.84-.26l-6.53 2.65a.4.4 0 00-.17.61l3.56 4.6zm-140.06.16l-9.02 4.84-10.24 5.74a.52.52 0 00-.2.72l3.03 5.34a.52.52 0 00.72.18l6.02-3.73 5.96-3.71 6.79-4.29 7.96-4.96q1.68-.79 2.78-2.32a.66.66 0 00.03-.72l-2.25-3.71a.44.44 0 00-.61-.15l-10.97 6.77zm60.74 160.2q-1.72.22-2.72.85c-6.55.9-13.69-1.34-20.26-2.04q-25.56-2.69-50.99-6.38l-18.44-1.92q-.5-.06-.19.33l4.09 5.05 7.71 10.68a1.2 1.19 75.7 00.8.48q26.7 3.41 53.35 7.26 18.43 2.67 69.03 6.77a1.22 1.22 0 00.87-.27l14.36-11.66a1.19 1.17-17.1 00.43-.79q1.1-9.19 2.05-18.41c1.8-17.6 5.22-34.98 7.92-52.43 2.61-16.81 6.4-32.61 10.59-48.72 2.27-8.73 4.63-19.89 7.49-29.72a2.4 2.39 37.2 00-.27-1.96q-3.49-5.59-7.46-11.22c-1.86-2.63-3.6-2.64-6.58-2.57q-51.89 1.25-120.91 1.65c-4.73.03-13.1 6.64-16.87 9.55a1.49 1.47 77.9 00-.53.83q-13.5 58.25-28.04 116.25a1.46 1.46 0 001.27 1.81c28.02 2.91 56.16 6.72 84.31 9.23q3.62.33 7.26.92a1.62 1.61-18.6 01.85.42c4.12 3.96 3.02 10.98.88 16.01zm-96.15-109.85q-3.44.62-4.43 3.72c-3.73 11.76-7.39 29.54-11.33 42.94-2.48 8.42-4.12 15.34-6.03 23.08a.59.58-81.7 00.53.72l.5.03a.68.67-82.9 00.71-.56l2.23-11.98a1.55 1.55 0 012.42-.98c1.68 1.21 1.47 2.73.81 4.62q-1.5 4.29-2.06 8.91-.06.52.25.09 1.41-1.97 2.13-4.84 6.57-26.26 16.34-61.47.6-2.18-1.21-4.01a.97.97 0 00-.86-.27zm-26.041 78.412a8.46 6.95-32.2 00-10.862-1.373 8.46 6.95-32.2 00-3.456 10.39 8.46 6.95-32.2 0010.862 1.372 8.46 6.95-32.2 003.456-10.39zm5.531-2.232c6.43 11.63-.7 20.53-12.54 22.27q-.5.07-.04.28c7.88 3.62 12.17-.38 16.73-6.2 4.74-6.06 3.26-13.36-3.93-16.58q-.46-.21-.22.23zm21.08 13.9l-.29 1.86a.78.77-82.7 01-.85.66l-7.67-.84a.65.64-83.3 00-.71.57l-.04.37a.61.6-83 00.53.68q47.3 5.54 94.5 11.85c3.65.48 7.2.46 6.59-4.4-.17-1.34-2.14-2.9-3.7-3.07-9.63-1.06-95.66-11.14-96.48-10.23q-.39.43.18.53l7.44 1.32a.62.61 10 01.5.7zm-5.43 17.66l5.29 7.79 1.75 2.99q1.09 2.95 3.35 4.43a1.43 1.34-86.5 01.53.64l.6 1.52a.79.79 0 001.09.41l5.77-2.93a.71.71 0 00.33-.9q-.57-1.35-1.69-1.8l-3.18-3.77-8.05-11.42q-1.1-2.87-3.29-5.03a1.36 1.35-19.4 00-.82-.39l-8.95-.83a.23.23 0 00-.16.42c2.84 2.08 5 6.25 7.43 8.87zM375.21 305l-3.21 2.46-11.54 9.54q-2.01 1.2-3.21 3.21l-4 3.15a.46.45-43.5 00-.02.7l4.34 3.82a.64.64 0 00.84.01l8.17-6.96 7.57-6.21q5.43-3.75 9.63-8.58a.55.55 0 000-.72l-3.22-3.81a.55.55 0 00-.75-.09l-4.6 3.48zm-108.6 148.83q47.28 12.27 94.87 23.39a.41.4-82.6 00.5-.39q.13-10.19-.05-20.41-.91-51.45-1.05-103.03a.58.57-86 00-.49-.57q-74.56-10.86-149.17-21.33-2.37-.33-4.74-.63a.49.48 3.2 00-.54.48l.2 69.61q0 .61.51.26c5.26-3.61 15.69.49 20.57 1.42a.74.72-85.2 01.59.71l.26 21.71a.99.97-17.8 01-.44.83l-19.98 13.05q-.52.35.09.5c19.59 5.01 39.31 9.33 58.87 14.4zm-87.07-67.08q.26 23.59.74 47.18.02 1.04.26 2.07 1.54 4.19 5.36 6.72.34.22.34-.19l-.83-97.09a1.2 1.17 19.2 00-.47-.94l-4.73-3.6q-1.48-1.12-1.45.74l.78 45.11zm188.25 36.5l.5 22 .24 44.19q.01.5.36.15c4.38-4.27 8.5-6.76 6.9-13.84l-.58-67-.13-32.17a1.71 1.68-63.9 00-.34-1.02q-2.61-3.5-6-6.24a.84.83-54.5 00-1.23.21q-.47.76-.44 2.22.52 25.75.72 51.5zm-157.05-16.82q-5.67 1.29-3.96 6.78a.39.39 0 00.58.21l8.14-5.38q1.57-.41 2.8-1.4.41-.33-.11-.4-3.72-.51-7.45.19zm-71.86 41.55c3.16.99 5.58 1.89 8.73.28q12.01-6.18 23.43-13.45c2.61-1.66 3.09-3.58 2.22-6.42a.4.4 0 00-.58-.23l-33.85 19.37a.25.25 0 00.05.45zm67.45-1.64l-11.82 6.73a.68.67 36.9 00.18 1.24l13.31 3.15c37.12 9.65 74.11 19.77 111.25 29.33l3.75.92 35.28 9.5a1.4 1.36 39.2 00.94-.08c4.18-1.99 2.95-8.1 2.56-11.75a1.6 1.6 0 00-1.2-1.38L241 453.96l-6.25-1.67q-14-3.96-28.42-5.95zm196.29 20.52l5.52 2.34a.91.9-55.7 00.98-.19l13.98-13.71q1.66-1.62-.61-2.1l-4.05-.83a1.13 1.11-59.8 00-.99.27l-14.92 13.66a.34.34 0 00.09.56zm-266 3.59l4.85 1.56a.34.34 0 00.45-.31q.36-7.94-.58-15.83a.83.82 1.4 00-.69-.72l-4.16-.71a.65.65 0 00-.75.64l.05 14.24a1.21 1.2 8.8 00.83 1.13zm213.78 46.12q4.06 1.65 8.41 2.04a1.22 1.22 0 00.92-.32c9.7-8.92 19.49-18.58 28.28-28.39a.37.37 0 00-.18-.6l-5.88-1.53a1.52 1.48-49 00-.98.08c-1.36.57-2.71 1.19-3.83 2.24-8.83 8.32-19 16.5-26.97 25.55a.59.58 31.4 00.23.93zm-1.45 26.24l7.97 2.38a.49.48 7.9 00.63-.47l-.17-18.9a1.86 1.85-84.7 00-1.5-1.81l-6.03-1.2q-.79-.48-1.44-.54a.51.51 0 00-.55.49q-.39 10.08 1.09 20.05z"/><path fill="#fff" d="M151.43 329.49c-1.74.06-4.96-.47-6.6-1.04a.61.61 0 01-.39-.69q3.18-15.36 6.77-28.27c7.11-25.51 13.19-51.36 19.89-76.99 1.09-4.16 3.1-14.74 5.41-21.92q1.81-5.64 2.58-8.77c5.96-24.32 12.46-48.49 18.52-72.78q4.03-16.21 8.76-32.23a.78.77-81.3 01.74-.55h5.67a.78.77-83 01.75.97c-11.41 45.81-24.99 96.65-34.76 137.53-.91 3.82-2.81 7.98-3.72 12.08-6.84 30.86-15.28 61.5-22.99 92.16a.67.66-83 01-.63.5z"/><path fill="#949799" d="M245.93 113.95l.23-.24a.53.51 21.5 01.37-.15c30.21-.56 59.06-1.52 90.82-1.56 8.55-.01 17.58-.64 25.59-.79 28.42-.54 56.89-.87 85.31-1.92q20.18-.76 40.38-.81a.78.77 73.4 01.65.36l2.4 3.71q.29.44-.24.45-20.74.36-41.43.52c-4.73.03-10.65.65-15.76.7-41.72.39-76.43 1.33-114.64 1.53-8.43.04-18.09.85-27.17.92q-36.99.3-73.97.93a.51.51 0 01-.51-.59l.26-1.78a.69.68 3.8 01.68-.59q12.71.04 25.34-.89.37-.03 1.07.31a.54.54 0 00.62-.11z"/><path fill="#b4b5b5" d="M191.06 115.69q1.21.1.72 1.43a.79.77-81.1 01-.68.51c-5.17.3-18.88 1.31-19.9-1.28a.39.38-12.1 01.34-.52q12.46-.71 19.52-.14z"/><path fill="#949799" d="M483.37 132.48q-2.22 4.93-3.17 10.26-3.53 19.86-6.21 39.86a.6.59 11.2 00.45.66q.42.1.77-.26l-3.5 20.5q-.31-.4-.65-.37a.67.67 0 00-.61.55c-1.29 7.15-1.83 14.41-3.65 21.44-2.61 10.16-3.28 21.14-5.05 31.62a.21.21 0 00.38.15q.27-.43.83-.64c-1.61 14.42-5.17 29.77-7.13 42.7q-3.97 26.2-8.58 52.3-.45 2.57-.8 3.62a.64.64 0 01-.67.44q-14.91-1.52-29.67-3.89c-14.87-2.38-29.77-3.74-44.61-6.13q.45 0 .75-.41.98-1.33-.67-1.46-13.85-1.08-27.5-3.63c-3.13-.58-7.41-.61-11.39-1.71-1.47-.41-3.4.23-4.91-.05q-6.39-1.16-12.8-2.21c-5-.82-12.25-1.15-18.36-2.6a1 .97-58.2 00-.88.22q-.52.46-.24 1.27L278.46 332q.36-.38.32-.75a.64.63-1.6 00-.6-.56c-4.66-.21-9.43-1.48-13.62-1.95q-9.23-1.04-18.24-3.3c-10.08-2.54-20.82-1.63-31.05-3.71q-1.85-.38-2.77.98l-28.75-3.92q-7.28-3.53-15.07-3.05a.71.71 0 01-.73-.88q2.36-9.17 5.21-18.09c.76-2.39.9-4.79 1.42-7.34a.8.8 0 011.25-.48q4.95 3.66 11.09 4.17c5.8.48 11.06-1.81 15.2-5.75a.69.69 0 011.07.15l3.06 5.29a1.54 1.53 33.9 01.2 1.01c-.22 1.51-2.37 8.33.26 7.93q-.42.42-.31.83a.64.63 79.7 00.67.47q4.51-.41 8.72 1.16a1.43 1.41 85.1 01.76.65c2.71 4.75 5.45 10.71 9.1 12.28q7.88-3.06 14.99-7.55a1.71 1.66-59.8 01.93-.26q16.24.24 32 4.02c3.18.76 6.28-.19 9.69.82 4.89 1.45 10.55 1.07 14.31 1.54q11.91 1.48 23.75 3.35c7.24 1.14 15.31-.12 22.07 2.34q.48.18.98.09 1.09-.19 1.68.7a1.16.15 54.2 01.44.81l.02.52a1.58 1.55-66.9 00.35.9l7.88 9.58a1.29 1.15 54.7 001.55.36q.24-.13.5-.61l1.67-.75.03.34a.5.49 2.4 00.4.43c.91.18 11.74-7.96 12.68-8.72q9.95-8.07 19.22-16.92a.54.53 49.3 00.05-.71q-.12-.14-.34-.21c.74-.57.64-1.3-.04-1.9-3.15-2.75-7.17-5.33-9.55-8.75a.95.94-42.7 00-1.5-.06l-2.44 2.94q-.62.75-.51-.22l1.58-13.97 1.07.24a.47.47 0 00.57-.39q2.64-18.25 5.4-36.48c3.16-20.87 8.07-42.04 13.15-62.13.89-3.56 1.25-7.67 2.31-11.59q1.39-5.11 3.38-14.42.12-.54 1.37-1.98l.92-.25c.9 1.94 11.69-5.4 13.34-6.58a2.31 2.3-32.5 00.67-3.02c-2.58-4.53-6.87-8.04-9.77-12.59q-.57-.88-2.08.05l-10.16-13.56q-1.52-2.02 1.01-2.02 18.74-.03 38.52-.23c13.57-.14 31.56-.8 47.32-.47a.77.76-86.9 01.75.84q-.6 6.12-2.44 11.81z"/><path fill="#949799" d="M276.25 135.71l-.45-2.21a1.76 1.73-72.9 00-.44-.85c-1.64-1.72-6.27-5.01-4.54-7.57a1.06 1.06 0 01.85-.48q25.05-1.29 50.14-.97a.45.45 0 00.45-.51q-.04-.29-.26-.58 35.17-.77 70.34-1.26c1.12-.01 2.41-.49 3.63-.5a.56.55-1.1 01.56.53q.05.81-.81 1.11-6.59 2.29-12.56 4.91a1.2 1.2 0 00-.39 1.93l3.55 3.67q.25.26-.11.31-1.64.2-3.22.27-27.86 1.19-55.74 1.25c-17.21.04-34 .66-51 .95z"/><path fill="#b4b5b5" d="M322 122.54q.22.29.26.58a.45.45 0 01-.45.51q-25.09-.32-50.14.97a1.06 1.06 0 00-.85.48c-1.73 2.56 2.9 5.85 4.54 7.57a1.76 1.73-72.9 01.44.85l.45 2.21c-1.14.08-6.76 1.01-6.57-.73a.88.88 0 01.57-.73l1.85-.72a.66.65-29.4 00.29-1.01l-6.75-8.72a.27.26 65.4 01.15-.42q2.01-.39 6.02-.42 25.1-.2 50.19-.42zM227.5 144.29l-.52-.31a.63.62-45.8 01-.01-1.07q3.43-2.16 6.36-3.83c5.58-3.2 10.6-6.99 16.9-9.42 1.87-.73 2.98-1.95 2.91-3.91a.55.55 0 00-.54-.53q-16.42-.29-32.85-.44-2.24-.02-2.61 1.38c-3.63 13.77-6.88 27.76-11.01 41.39-.88 2.93-1.14 6.44-2.5 9.67q-1.74 4.17-2.16 5.88c-2.52 10.52-3.75 19.82-7.81 31.17-.83 2.31-.61 5.09-1.38 7.57q-3.82 12.27-5.92 24.99a.79.78 88.3 01-.59.63q-.95.21-1.56-.71c3.92-16.5 10.16-38.38 15.61-60.8 2.34-9.63 5.57-21.6 8.42-32.3q3.87-14.56 7.53-29.21a.52.51 5.8 01.49-.39c12.94-.03 25.91-.21 38.87-.87q3.78-.2 7.57-.08.5.02.07.28c-11.59 7.15-24.08 13.27-35.27 20.91zM177.46 172.25q-.54.66-1.23.48a.56.56 0 01-.41-.66c2.23-10.43 5.3-20.52 8.11-30.94q1.98-7.37 4.43-14.61a.57.57 0 00-.55-.75q-7.18.05-14.32.19c-1.97.04-4.44-.33-6.92.31a.71.7 86 00-.53.62c-.2 2.06-1.48 3.2-1.97 4.94-4.41 15.65-8.24 31.48-12.66 47.13-2.21 7.83-3.58 15.79-6.17 23.46-2.4 7.11-2.92 12.19-4.58 18.29-.79 2.9-1.03 6.24-2.08 9.31-2.33 6.79-2.66 13.64-5.05 20.26-2.25 6.23-4.59 12.69-5.53 19.27-.61 4.16-2.52 9.47-3.16 12q-2.43 9.63-5.1 19.19c-.45 1.6-1.73 3.97-1.64 6.36a1.28 1.28 0 001.07 1.21q9.57 1.59 18.33 2.98 2.99.47 3.59-2.11c.58-2.51 1.38-4.97 1.93-7.5a.61.6 8.5 01.65-.47q.33.03.62.29l-3.13 10.65a.52.51-77.4 01-.56.36l-24.38-3.13a.39.39 0 01-.33-.49q4.31-15.92 8.26-31.91c4.49-18.18 9.79-35.64 14.27-53.58 8.13-32.57 17.01-65.02 25.11-97.51a1.49 1.48 6.8 011.43-1.12l23.73-.03a.5.5 0 01.49.61q-2.35 11.46-5.44 22.6c-2 7.27-3.64 16.32-6.28 24.3z"/><path fill="#949799" d="M227.5 144.29q.32 2.05 1.75 3.67l-.22.14a.43.43 0 00-.18.47q1.24 4.96 5.12 8.04c4.18-.62 4.14-2.57 6.85-3.83q1.15-.54.87.71c-2.96 12.73-6.49 25.73-9.25 37.83q-5.63 24.7-8.94 35.93-3.39 11.53-4.27 16.54-2.04 11.58-5.31 22.87a.76.75 10.3 01-.79.54l-2.73-.23a.68.68 0 01-.62-.58q-.65-4.28-3.01-7.94a1.58 1.54-59.2 01-.24-.99q.1-1.12.37-2.17 8.04-31.21 16.73-62.24 1.64-5.83 1.23-8.2c-.83-4.96-5.95-7-10.43-5.09q-5.58 2.38-6.9 8.56-2.93 13.75-5.74 21.68.03-.45-.61-.55a.67.67 0 00-.75.5q-1.21 4.83-3 9.65c-.58 1.57-.32 3.12-.9 4.8-1.14 3.35-1.05 6.15-2.09 9.16-1.47 4.23-2.34 8.06-4.09 12.7q-1.8 4.77-2.1 9.95l-6.48 1.11a.31.31 0 01-.36-.39l2.8-10.18q.61.92 1.56.71a.79.78 88.3 00.59-.63q2.1-12.72 5.92-24.99c.77-2.48.55-5.26 1.38-7.57 4.06-11.35 5.29-20.65 7.81-31.17q.42-1.71 2.16-5.88c1.36-3.23 1.62-6.74 2.5-9.67 4.13-13.63 7.38-27.62 11.01-41.39q.37-1.4 2.61-1.38 16.43.15 32.85.44a.55.55 0 01.54.53c.07 1.96-1.04 3.18-2.91 3.91-6.3 2.43-11.32 6.22-16.9 9.42q-2.93 1.67-6.36 3.83a.63.62-45.8 00.01 1.07l.52.31zM177.46 172.25l-1.92 6.5q-.47-.34-1.04-.34a.66.66 0 00-.63.52q-5.2 24.41-12.21 48.34c-.56 1.91-.48 4.09-.65 6.08a.37.37 0 00.37.4h.33l-1.67 7.25q-.24-.26-.51-.29a.66.66 0 00-.69.46c-1 3.05-1.39 6.31-2.45 9.19-5.44 14.64-6.89 27.62-11.51 42.02a.87.87 0 00.86 1.14l.72-.02-2.17 8q-.29-.26-.62-.29a.61.6 8.5 00-.65.47c-.55 2.53-1.35 4.99-1.93 7.5q-.6 2.58-3.59 2.11-8.76-1.39-18.33-2.98a1.28 1.28 0 01-1.07-1.21c-.09-2.39 1.19-4.76 1.64-6.36q2.67-9.56 5.1-19.19c.64-2.53 2.55-7.84 3.16-12 .94-6.58 3.28-13.04 5.53-19.27 2.39-6.62 2.72-13.47 5.05-20.26 1.05-3.07 1.29-6.41 2.08-9.31 1.66-6.1 2.18-11.18 4.58-18.29 2.59-7.67 3.96-15.63 6.17-23.46 4.42-15.65 8.25-31.48 12.66-47.13.49-1.74 1.77-2.88 1.97-4.94a.71.7 86 01.53-.62c2.48-.64 4.95-.27 6.92-.31q7.14-.14 14.32-.19a.57.57 0 01.55.75q-2.45 7.24-4.43 14.61c-2.81 10.42-5.88 20.51-8.11 30.94a.56.56 0 00.41.66q.69.18 1.23-.48z"/><path fill="#fff" d="M401.29 133.5c-3.04.74-4.98-.46-8.5.75l-3.56-4.6a.4.4 0 01.17-.61l6.53-2.65a.7.69-27.4 01.84.26l4.52 6.85zM263.75 134.54l-11.02-.13 10.97-6.77a.44.44 0 01.61.15l2.25 3.71a.66.66 0 01-.03.72q-1.1 1.53-2.78 2.32z"/><path fill="#b4b5b5" d="M483.37 132.48c-2.1 16.94-6.1 33.51-8.16 50.52q-.35.36-.77.26a.6.59 11.2 01-.45-.66q2.68-20 6.21-39.86.95-5.33 3.17-10.26z"/><path fill="#949799" d="M401.29 133.5l3.21 4.21-8.79.79-2.92-4.25c3.52-1.21 5.46-.01 8.5-.75zM252.73 134.41l11.02.13-7.96 4.96q-2.74-.99-5.57-.36a1.23 1.21-78.7 00-.77.52q-1.31 1.95-.45 4.13l-5.96 3.71c.67-2.94 2.21-7.61.67-8.25l9.02-4.84z"/><path fill="#b4b5b5" d="M406.21 158.25l11.95-7.97a.75.74-35.9 00.18-1.08l-9.97-13.09q1.51-.93 2.08-.05c2.9 4.55 7.19 8.06 9.77 12.59a2.31 2.3-32.5 01-.67 3.02c-1.65 1.18-12.44 8.52-13.34 6.58z"/><path fill="#fff" d="M404.5 137.71l.29.54-2.97 8.63q-3.62-3.94-6.11-8.38l8.79-.79zM224.96 290.5c25.1 2.72 50.1 6.32 75.2 9.02 5.23.56 10.9.43 13.31-4.91 2.14-5.03 3.24-12.05-.88-16.01a1.62 1.61-18.6 00-.85-.42q-3.64-.59-7.26-.92c-28.15-2.51-56.29-6.32-84.31-9.23a1.46 1.46 0 01-1.27-1.81q14.54-58 28.04-116.25a1.49 1.47 77.9 01.53-.83c3.77-2.91 12.14-9.52 16.87-9.55q69.02-.4 120.91-1.65c2.98-.07 4.72-.06 6.58 2.57q3.97 5.63 7.46 11.22a2.4 2.39 37.2 01.27 1.96c-2.86 9.83-5.22 20.99-7.49 29.72-4.19 16.11-7.98 31.91-10.59 48.72-2.7 17.45-6.12 34.83-7.92 52.43q-.95 9.22-2.05 18.41a1.19 1.17-17.1 01-.43.79l-14.36 11.66a1.22 1.22 0 01-.87.27q-50.6-4.1-69.03-6.77-26.65-3.85-53.35-7.26a1.2 1.19 75.7 01-.8-.48l-7.71-10.68zm125.47-27.32l1.66-11.12a.58.58 0 00-.55-.67l-1.42-.07a1.43 1.43 0 00-1.49 1.21l-1.38 8.78a.59.59 0 01-.57.49q-2.39.03-2.39-2.54 0-8.07.2-11.21a.6.6 0 00-.75-.62l-2.13.54a.92.92 0 00-.71.86l-.53 11.15a.52.52 0 01-.6.49l-2.93-.43a.63.63 0 01-.52-.75c1.85-9.49 3.5-21.39 8.2-29.75 3.68-6.55 3.11-9.67 3.98-16.3q.39-2.98 1.94-.4l8.29 13.86a1.56 1.56 0 001.26.75q2.19.1 3.19-1.76a.84.82-48.7 00-.05-.88c-4.02-5.6-6.71-12.11-11.11-17.65a.92.9-54.9 01-.14-.87c.75-2.18 2.31-4.95-.29-6.65a.94.92 47.6 00-.94-.05l-2.45 1.28a.61.6 59.6 01-.78-.21q-1.99-3.15-5.15-5.15a.9.9 0 01-.2-1.35q4.56-5.29 9.93-9.65c2.53-2.05 1.13-4-.51-5.86a.62.61-46.6 01-.02-.78q1.67-2.13 3.5-.65c2.21 1.78 6.59 3.69 8.22.3q.92-1.92-.95-4.31-3.21-4.12-7.72-3.26a.6.6 0 01-.71-.5l-.41-2.82a.83.83 0 01.72-.94l4.98-.62a.95.95 0 01.89.39c1.6 2.26 6.47 9.31 9.52 8.81a1.15 1.14 1.5 00.92-.87c1.44-6.63-3.21-9.28-8.38-11.05a.83.83 0 01-.56-.66c-1.03-6.59 7.6-7.27 11.92-5.76a.67.66-79.5 01.45.66c-.13 2.49-.56 5.46.7 7.56 1.51 2.52 5.78 4.95 8.66 2.95a.95.93 70.3 00.4-.86q-.63-6.49-5.56-10.67a.55.54-54.8 01-.12-.71q2.61-4.29 7.55-3.36a.98.98 0 001.05-1.41c-2.31-4.44-9.15.49-11.1 3.15a.6.6 0 01-.74.19c-6.59-3.06-16.54-.56-15.95 8.61a.49.48-88 01-.54.51q-3.72-.47-6.74 1.6a1.47 1.45 82.9 00-.56.73q-.93 2.64 0 5.23a1.08 1.06-37.9 01-.13.98l-2.38 3.54a.38.37-52.6 01-.56.08c-2.33-2-2.93-6.07-6.67-2.29q-3.96 4-8.73 7.08a.66.66 0 01-.81-.07q-6.24-5.68-5.95-14.18a1.2 1.2 0 00-1.71-1.13c-11.67 5.45-22.46 12.31-34.27 17.58q-2.97 1.33-7.69 4.23a.94.93-47.8 01-.88.05l-1.61-.73a.64.64 0 00-.84.3q-2.28 4.5-7.47 7.18-4.76 2.46-18.93 11.59-2.04 1.31-.41 2.91a1.59 1.57 52.3 001.87.25l22.5-12.49q.56-.31.46.32c-1.38 9.12-4.59 19.33-6.16 26.77q-2.44 11.62-5.03 23.26a.76.75 18.7 01-1.06.52l-.32-.15a.66.66 0 01-.38-.64c.12-1.61.95-6.53-.8-7.3a.78.78 0 00-1.02.36q-1.65 3.23-1.69 6.88a.47.46-87.1 01-.5.46l-3.45-.27a.42.41 7.1 01-.38-.47c.17-1.23 1.74-10.93-1.87-9.14a.87.85-10.2 00-.48.68l-.8 7.86a.69.69 0 01-.69.62h-3.86a.39.39 0 01-.37-.51l1.4-4.24a1.49 1.48-73.3 00-1.01-1.89c-3.25-.92-3.94 3.47-4.56 6.1a.76.76 0 01-.79.58l-2.8-.17a.63.63 0 01-.58-.74c.29-1.54 2.05-7.56.65-8.44a.58.58 0 00-.85.28l-3.14 8.22a1.16 1.12 89 01-.58.62l-1.4.64a1.1 1.09-7.3 00-.63.81q-.35 2.02 1.45 2.27c6 .82 15.22 1.24 23.95 1.55q18.06.64 33.26 8.62 7.54 3.96 15.09 4.35c7.4.37 14.74 1.14 22.14 1.73a1.95 1.93-24.6 011.01.37q1.97 1.41 3.84.06a1.37 1.35-59.2 01.95-.25q11.62 1.36 22.41 5.82c1.81.75 3.76.68 4.06-1.6a1.06 1.06 0 00-.3-.89l-1.46-1.47a.72.72 0 01-.14-.84c.77-1.53 4.98-6.06 1.5-6.76a1.06 1.05-62.2 00-.96.3q-2.07 2.17-3.18 4.99a.79.79 0 01-.73.49h-1.61q-.75 0-.37-.65l4.77-8.19q1.05-1.8-1.01-1.47c-2.68.44-5.9 6.69-7.41 8.89q-.52.75-.38-.15z"/><path fill="#949799" d="M404.79 138.25l3.44 4.75q-2.64 3.43-3.02 8l-3.39-4.12 2.97-8.63z"/><path fill="#fff" d="M255.79 139.5l-6.79 4.29q-.86-2.18.45-4.13a1.23 1.21-78.7 01.77-.52q2.83-.63 5.57.36zM243.71 139.25c1.54.64 0 5.31-.67 8.25l-6.02 3.73a.52.52 0 01-.72-.18l-3.03-5.34a.52.52 0 01.2-.72l10.24-5.74zM408.23 143l4.35 5.68a.56.56 0 01-.17.83l-5.34 3.05a.65.65 0 01-.85-.18l-1.01-1.38q.38-4.57 3.02-8z"/><path fill="#b4b5b5" d="M229.25 147.96q2.97 3.73 4.72 8.65-3.88-3.08-5.12-8.04a.43.43 0 01.18-.47l.22-.14z"/><path fill="#1f1e1d" d="M350.81 263.33c1.51-2.2 4.73-8.45 7.41-8.89q2.06-.33 1.01 1.47l-4.77 8.19q-.38.65.37.65h1.61a.79.79 0 00.73-.49q1.11-2.82 3.18-4.99a1.06 1.05-62.2 01.96-.3c3.48.7-.73 5.23-1.5 6.76a.72.72 0 00.14.84l1.46 1.47a1.06 1.06 0 01.3.89c-.3 2.28-2.25 2.35-4.06 1.6q-10.79-4.46-22.41-5.82a1.37 1.35-59.2 00-.95.25q-1.87 1.35-3.84-.06a1.95 1.93-24.6 00-1.01-.37c-7.4-.59-14.74-1.36-22.14-1.73q-7.55-.39-15.09-4.35-15.2-7.98-33.26-8.62c-8.73-.31-17.95-.73-23.95-1.55q-1.8-.25-1.45-2.27a1.1 1.09-7.3 01.63-.81l1.4-.64a1.16 1.12 89 00.58-.62l3.14-8.22a.58.58 0 01.85-.28c1.4.88-.36 6.9-.65 8.44a.63.63 0 00.58.74l2.8.17a.76.76 0 00.79-.58c.62-2.63 1.31-7.02 4.56-6.1a1.49 1.48-73.3 011.01 1.89l-1.4 4.24a.39.39 0 00.37.51h3.86a.69.69 0 00.69-.62l.8-7.86a.87.85-10.2 01.48-.68c3.61-1.79 2.04 7.91 1.87 9.14a.42.41 7.1 00.38.47l3.45.27a.47.46-87.1 00.5-.46q.04-3.65 1.69-6.88a.78.78 0 011.02-.36c1.75.77.92 5.69.8 7.3a.66.66 0 00.38.64l.32.15a.76.75 18.7 001.06-.52q2.59-11.64 5.03-23.26c1.57-7.44 4.78-17.65 6.16-26.77q.1-.63-.46-.32l-22.5 12.49a1.59 1.57 52.3 01-1.87-.25q-1.63-1.6.41-2.91 14.17-9.13 18.93-11.59 5.19-2.68 7.47-7.18a.64.64 0 01.84-.3l1.61.73a.94.93-47.8 00.88-.05q4.72-2.9 7.69-4.23c11.81-5.27 22.6-12.13 34.27-17.58a1.2 1.2 0 011.71 1.13q-.29 8.5 5.95 14.18a.66.66 0 00.81.07q4.77-3.08 8.73-7.08c3.74-3.78 4.34.29 6.67 2.29a.38.37-52.6 00.56-.08l2.38-3.54a1.08 1.06-37.9 00.13-.98q-.93-2.59 0-5.23a1.47 1.45 82.9 01.56-.73q3.02-2.07 6.74-1.6a.49.48-88 00.54-.51c-.59-9.17 9.36-11.67 15.95-8.61a.6.6 0 00.74-.19c1.95-2.66 8.79-7.59 11.1-3.15a.98.98 0 01-1.05 1.41q-4.94-.93-7.55 3.36a.55.54-54.8 00.12.71q4.93 4.18 5.56 10.67a.95.93 70.3 01-.4.86c-2.88 2-7.15-.43-8.66-2.95-1.26-2.1-.83-5.07-.7-7.56a.67.66-79.5 00-.45-.66c-4.32-1.51-12.95-.83-11.92 5.76a.83.83 0 00.56.66c5.17 1.77 9.82 4.42 8.38 11.05a1.15 1.14 1.5 01-.92.87c-3.05.5-7.92-6.55-9.52-8.81a.95.95 0 00-.89-.39l-4.98.62a.83.83 0 00-.72.94l.41 2.82a.6.6 0 00.71.5q4.51-.86 7.72 3.26 1.87 2.39.95 4.31c-1.63 3.39-6.01 1.48-8.22-.3q-1.83-1.48-3.5.65a.62.61-46.6 00.02.78c1.64 1.86 3.04 3.81.51 5.86q-5.37 4.36-9.93 9.65a.9.9 0 00.2 1.35q3.16 2 5.15 5.15a.61.6 59.6 00.78.21l2.45-1.28a.94.92 47.6 01.94.05c2.6 1.7 1.04 4.47.29 6.65a.92.9-54.9 00.14.87c4.4 5.54 7.09 12.05 11.11 17.65a.84.82-48.7 01.05.88q-1 1.86-3.19 1.76a1.56 1.56 0 01-1.26-.75l-8.29-13.86q-1.55-2.58-1.94.4c-.87 6.63-.3 9.75-3.98 16.3-4.7 8.36-6.35 20.26-8.2 29.75a.63.63 0 00.52.75l2.93.43a.52.52 0 00.6-.49l.53-11.15a.92.92 0 01.71-.86l2.13-.54a.6.6 0 01.75.62q-.2 3.14-.2 11.21 0 2.57 2.39 2.54a.59.59 0 00.57-.49l1.38-8.78a1.43 1.43 0 011.49-1.21l1.42.07a.58.58 0 01.55.67l-1.66 11.12q-.14.9.38.15zm25.93-104.84a.4.4 0 00-.7.27q.01 4.09 3.52 5.9a.54.54 0 00.75-.69q-1.31-3.05-3.57-5.48zm-9.388 11.588a1.6.37 57.4 00-.55-1.547 1.6.37 57.4 00-1.174-1.149 1.6.37 57.4 00.55 1.547 1.6.37 57.4 001.174 1.149zM297.67 255.97q5.36 1.9 10.83 2.22c7.41.43 14.79 1.16 22.21 1.54a.6.59 7.5 00.61-.46q2.28-9.74 4.05-19.58c.79-4.39 2.34-9.03 4.8-12.87 1.55-2.41 2.96-4.04 3.31-7.08.44-3.88.65-8.34 2.6-11.82a.93.92 45.9 00.01-.89q-1.52-2.87-2.8-4.07-8.89-8.34-14.94-18.88c-2.26-3.92-5.67-7.63-7.03-12.99a.4.39-20.5 00-.56-.25q-6.79 3.55-13.53 7.2c-7.64 4.15-17.13 8.22-25.49 12.94a1.96 1.96 0 00-1 1.58q-.33 4.88-1.5 9.94-4.09 17.78-8.51 35.5-.89 3.58-1.24 7.38a.71.71 0 00.56.76l10.29 2.21a.59.59 0 00.71-.45l5.47-23.11a.72.72 0 00-.43-.83l-4.69-1.86a.95.94 22.4 01-.52-1.24l.93-2.23a1.67 1.67 0 011.99-.96l3.84 1.07a.5.5 0 00.62-.38l.78-3.94q.56-2.77 2.73-.97l.23.19a.92.89-63.4 01.29.92l-1.14 4.53a1.26 1.26 0 00.63 1.42q6.2 3.26 13.04 4.9a1.14 1.14 0 01.67 1.75c-5.2 7.53-7.62 18.18-8.82 27.18a1.52 1.52 0 001 1.63zm62.127-80.27a2.3 1.08 35.3 00-1.253-2.211 2.3 1.08 35.3 00-2.501-.448 2.3 1.08 35.3 001.253 2.21 2.3 1.08 35.3 002.501.448zm-7.969-.778a.78.47 135 00.884-.22.78.47 135 00.22-.883.78.47 135 00-.884.219.78.47 135 00-.22.883zm-9.468 2.378c-2.32 2.54-5.58 3.75-8.15 6.17a.61.61 0 00-.08.79l4.67 6.61a.5.5 0 00.78.05q3.61-4.08 7.59-7.73c1.71-1.56.56-2-.23-3.13q-1.47-2.11-3.76-2.96a.77.76 30.9 00-.82.2zm-52.74 47.82L284 249.06a.84.83-73.1 00.51.97l7.2 2.78a.96.96 0 001.3-.78q1.41-11.64 5.28-22.69a.58.57-68.7 00-.31-.72l-8.31-3.53a.04.03-72.1 00-.05.03z"/><path fill="#b4b5b5" d="M405.29 158.5q-1.25 1.44-1.37 1.98-1.99 9.31-3.38 14.42c-1.06 3.92-1.42 8.03-2.31 11.59-5.08 20.09-9.99 41.26-13.15 62.13q-2.76 18.23-5.4 36.48a.47.47 0 01-.57.39l-1.07-.24c2.18-13.07 3.85-27.53 5.86-39.29 5.01-29.48 11.03-53.18 17.08-79.71q.61-2.69 2.65-9.79a.36.36 0 01.56-.19q1.1.8 1.1 2.23z"/><path fill="#fff" d="M376.74 158.49q2.26 2.43 3.57 5.48a.54.54 0 01-.75.69q-3.51-1.81-3.52-5.9a.4.4 0 01.7-.27z"/><ellipse fill="#fdfcdd" transform="rotate(57.4 29.15 419.069)" rx="1.6" ry=".37"/><path fill="#fff" d="M297.67 255.97a1.52 1.52 0 01-1-1.63c1.2-9 3.62-19.65 8.82-27.18a1.14 1.14 0 00-.67-1.75q-6.84-1.64-13.04-4.9a1.26 1.26 0 01-.63-1.42l1.14-4.53a.92.89-63.4 00-.29-.92l-.23-.19q-2.17-1.8-2.73.97l-.78 3.94a.5.5 0 01-.62.38l-3.84-1.07a1.67 1.67 0 00-1.99.96l-.93 2.23a.95.94 22.4 00.52 1.24l4.69 1.86a.72.72 0 01.43.83l-5.47 23.11a.59.59 0 01-.71.45l-10.29-2.21a.71.71 0 01-.56-.76q.35-3.8 1.24-7.38 4.42-17.72 8.51-35.5 1.17-5.06 1.5-9.94a1.96 1.96 0 011-1.58c8.36-4.72 17.85-8.79 25.49-12.94q6.74-3.65 13.53-7.2a.4.39-20.5 01.56.25c1.36 5.36 4.77 9.07 7.03 12.99q6.05 10.54 14.94 18.88 1.28 1.2 2.8 4.07a.93.92 45.9 01-.01.89c-1.95 3.48-2.16 7.94-2.6 11.82-.35 3.04-1.76 4.67-3.31 7.08-2.46 3.84-4.01 8.48-4.8 12.87q-1.77 9.84-4.05 19.58a.6.59 7.5 01-.61.46c-7.42-.38-14.8-1.11-22.21-1.54q-5.47-.32-10.83-2.22zm22.61-48.46l-1.15-1.54a.6.6 0 00-.9-.08l-1.61 1.51a1.24 1.21 22.8 01-.84.33c-1.85-.03-4.99.25-3.73 3.09a.96.95-5.1 00.65.54l1.85.44a.7.7 0 01.53.77l-.64 5.21a.7.69-7.2 01-.44.56l-2.87 1.03a.76.75-19.9 00-.46.96q.54 1.51 2.26 1.81a.63.62 8.9 01.52.7l-1.29 9.07a.83.83 0 01-.72.71q-3.01.33-2.4 3.31a1.12 1.12 0 001.15.88l10.48-.65a1.29 1.29 0 011.34 1.56q-.7 3.23 2.35 3.03a1.23 1.22-1.8 001.14-1.21l.02-2.99a.58.58 0 01.72-.56q3.32.83 6.33-.64a1.81 1.79 78.8 001.01-1.52q.58-10.33 3.29-20.2c1.97-7.18-4.83-5.77-9.24-5.97a.59.59 0 01-.56-.57l-.1-3.15a.7.69-82.1 00-.47-.63c-2.36-.78-2.03 2.77-2.25 4.05a.74.74 0 01-.73.62h-2.33a1.14 1.11 71.7 01-.91-.47z"/><ellipse fill="#fff" transform="rotate(35.3 -95.052 649.635)" rx="2.3" ry="1.08"/><ellipse fill="#b4b5b5" transform="rotate(135 140.077 160.165)" rx=".78" ry=".47"/><path fill="#fff" d="M343.18 177.1q2.29.85 3.76 2.96c.79 1.13 1.94 1.57.23 3.13q-3.98 3.65-7.59 7.73a.5.5 0 01-.78-.05l-4.67-6.61a.61.61 0 01.08-.79c2.57-2.42 5.83-3.63 8.15-6.17a.77.76 30.9 01.82-.2z"/><path fill="#b4b5b5" d="M175.54 178.75c-3.84 18.48-9.25 36.69-13.83 55h-.33a.37.37 0 01-.37-.4c.17-1.99.09-4.17.65-6.08q7.01-23.93 12.21-48.34a.66.66 0 01.63-.52q.57 0 1.04.34z"/><path fill="#fff" d="M218.18 185.03q1.81 1.83 1.21 4.01-9.77 35.21-16.34 61.47-.72 2.87-2.13 4.84-.31.43-.25-.09.56-4.62 2.06-8.91c.66-1.89.87-3.41-.81-4.62a1.55 1.55 0 00-2.42.98l-2.23 11.98a.68.67-82.9 01-.71.56l-.5-.03a.59.58-81.7 01-.53-.72c1.91-7.74 3.55-14.66 6.03-23.08 3.94-13.4 7.6-31.18 11.33-42.94q.99-3.1 4.43-3.72a.97.97 0 01.86.27z"/><path fill="#b4b5b5" d="M471.71 203.5q-1 3.9-1.16 5.51-1.59 15.79-4.92 31.32-1.69 7.9-2.67 15.92-.56.21-.83.64a.21.21 0 01-.38-.15c1.77-10.48 2.44-21.46 5.05-31.62 1.82-7.03 2.36-14.29 3.65-21.44a.67.67 0 01.61-.55q.34-.03.65.37z"/><path fill="#1f1e1d" d="M321.19 207.98h2.33a.74.74 0 00.73-.62c.22-1.28-.11-4.83 2.25-4.05a.7.69-82.1 01.47.63l.1 3.15a.59.59 0 00.56.57c4.41.2 11.21-1.21 9.24 5.97q-2.71 9.87-3.29 20.2a1.81 1.79 78.8 01-1.01 1.52q-3.01 1.47-6.33.64a.58.58 0 00-.72.56l-.02 2.99a1.23 1.22-1.8 01-1.14 1.21q-3.05.2-2.35-3.03a1.29 1.29 0 00-1.34-1.56l-10.48.65a1.12 1.12 0 01-1.15-.88q-.61-2.98 2.4-3.31a.83.83 0 00.72-.71l1.29-9.07a.63.62 8.9 00-.52-.7q-1.72-.3-2.26-1.81a.76.75-19.9 01.46-.96l2.87-1.03a.7.69-7.2 00.44-.56l.64-5.21a.7.7 0 00-.53-.77l-1.85-.44a.96.95-5.1 01-.65-.54c-1.26-2.84 1.88-3.12 3.73-3.09a1.24 1.21 22.8 00.84-.33l1.61-1.51a.6.6 0 01.9.08l1.15 1.54a1.14 1.11 71.7 00.91.47zm6.47 4.33a.56.56 0 00-.6.52l-.35 5.07a.56.56 0 00.51.6l3.44.3a.56.56 0 00.58-.4l1.51-5.02a.56.56 0 00-.49-.72l-4.6-.35zm-7.52.19a.45.45 0 00-.42.3l-1.78 5.14a.45.45 0 00.41.6l5.43.28a.45.45 0 00.47-.45v-5.42a.45.45 0 00-.45-.45h-3.66zm3.306 10.367a.26.26 0 00-.24-.279l-6.243-.47a.26.26 0 00-.278.24l-.67 8.915a.26.26 0 00.24.279l6.242.47a.26.26 0 00.278-.24l.67-8.915zm5.444 8.243c.64-2.29 1.08-5.52 1.35-7.95a.59.59 0 00-.59-.66h-3.38a.54.54 0 00-.54.54l.03 7.87a.66.66 0 00.65.66l1.82.03a.67.67 0 00.66-.49z"/><path fill="#b4b5b5" d="M201.79 210c-2.75 9.94-4.93 20.11-7.68 29.91q-2.22 7.88-4.17 15.84a.66.65-81.8 01-.66.5l-1.03-.04q.3-5.18 2.1-9.95c1.75-4.64 2.62-8.47 4.09-12.7 1.04-3.01.95-5.81 2.09-9.16.58-1.68.32-3.23.9-4.8q1.79-4.82 3-9.65a.67.67 0 01.75-.5q.64.1.61.55z"/><path fill="#fff" d="M327.66 212.31l4.6.35a.56.56 0 01.49.72l-1.51 5.02a.56.56 0 01-.58.4l-3.44-.3a.56.56 0 01-.51-.6l.35-5.07a.56.56 0 01.6-.52zM320.14 212.5h3.66a.45.45 0 01.45.45v5.42a.45.45 0 01-.47.45l-5.43-.28a.45.45 0 01-.41-.6l1.78-5.14a.45.45 0 01.42-.3z"/><path d="M479.04 220.5l-3.83 24q-.33.06-.63-.08a.8.78 15.7 01-.45-.78q1.12-12.06 3.48-23.93a.59.58-83.4 01.58-.47l.27.01a.55.55 0 01.53.52l.05.73z"/><rect fill="#fff" x="-3.39" y="-4.73" transform="rotate(4.3 -2864.332 4371.81)" width="6.78" height="9.46" rx=".26"/><path fill="#fff" d="M330.24 223.16c-.27 2.43-.71 5.66-1.35 7.95a.67.67 0 01-.66.49l-1.82-.03a.66.66 0 01-.65-.66l-.03-7.87a.54.54 0 01.54-.54h3.38a.59.59 0 01.59.66zM289.62 225.12a.04.03-72.1 01.05-.03l8.31 3.53a.58.57-68.7 01.31.72q-3.87 11.05-5.28 22.69a.96.96 0 01-1.3.78l-7.2-2.78a.84.83-73.1 01-.51-.97l5.62-23.94z"/><path fill="#b4b5b5" d="M160.04 241q-2.48 8.83-4.72 17.72c-2.53 10.04-6.41 23.03-8.86 34.78l-.72.02a.87.87 0 01-.86-1.14c4.62-14.4 6.07-27.38 11.51-42.02 1.06-2.88 1.45-6.14 2.45-9.19a.66.66 0 01.69-.46q.27.03.51.29z"/><ellipse fill="#fff" transform="rotate(-32.2 555.76 -185.11)" rx="8.46" ry="6.95"/><path fill="#fff" d="M184.27 283.21c11.84-1.74 18.97-10.64 12.54-22.27q-.24-.44.22-.23c7.19 3.22 8.67 10.52 3.93 16.58-4.56 5.82-8.85 9.82-16.73 6.2q-.46-.21.04-.28zM217.39 274.14l-7.44-1.32q-.57-.1-.18-.53c.82-.91 86.85 9.17 96.48 10.23 1.56.17 3.53 1.73 3.7 3.07.61 4.86-2.94 4.88-6.59 4.4q-47.2-6.31-94.5-11.85a.61.6-83 01-.53-.68l.04-.37a.65.64-83.3 01.71-.57l7.67.84a.78.77-82.7 00.85-.66l.29-1.86a.62.61 10 00-.5-.7z"/><path fill="#949799" d="M218.25 289.46l-3.94-.13a.72.71-77.7 00-.69.45l-1.16 2.72c-2.43-2.62-4.59-6.79-7.43-8.87a.23.23 0 01.16-.42l8.95.83a1.36 1.35-19.4 01.82.39q2.19 2.16 3.29 5.03zM239.5 287.04q-.76.44-1.18 1.13a.78.77 20.6 00.53 1.16q5.73 1.02 11.49 1.01c6.82-.01 12.82 1.29 19.34 2.07a.81.8 77 01.61.39l.17.3a.69.68-19.1 00.68.32q2.51-.37 4.75.9a1.11 1.07 48.5 00.92.07q2.59-.94 4.67.9a1.2 1.19 65.5 00.79.3q11.29-.18 21.16 1.49 3.99.67 7.22-.62a.6.59-15.8 00.37-.65q-.04-.27-.27-.35 1-.63 2.72-.85c-2.41 5.34-8.08 5.47-13.31 4.91-25.1-2.7-50.1-6.3-75.2-9.02l-4.09-5.05q-.31-.39.19-.33l18.44 1.92z"/><path fill="#b4b5b5" d="M206.71 301.75c-2.63.4-.48-6.42-.26-7.93a1.54 1.53 33.9 00-.2-1.01l-3.06-5.29a.69.69 0 00-1.07-.15c-4.14 3.94-9.4 6.23-15.2 5.75q-6.14-.51-11.09-4.17a.8.8 0 00-1.25.48c-.52 2.55-.66 4.95-1.42 7.34q-2.85 8.92-5.21 18.09a.71.71 0 00.73.88q7.79-.48 15.07 3.05l-16.72-2.36a.88.87 11.1 01-.73-1.07q2.83-11.67 6.26-23.29c.6-2.02.78-4.4 1.34-6.56q.27-1.04.66-.03l.54 1.4q.19.49.6.82c7.17 5.85 19.1 5.55 25.64-.95a1.7 1.7 0 012.57.21l3.95 5.43a1.22 1.21 31.5 01.22.91l-1.37 8.45zM239.5 287.04q25.43 3.69 50.99 6.38c6.57.7 13.71 2.94 20.26 2.04q.23.08.27.35a.6.59-15.8 01-.37.65q-3.23 1.29-7.22.62-9.87-1.67-21.16-1.49a1.2 1.19 65.5 01-.79-.3q-2.08-1.84-4.67-.9a1.11 1.07 48.5 01-.92-.07q-2.24-1.27-4.75-.9a.69.68-19.1 01-.68-.32l-.17-.3a.81.8 77 00-.61-.39c-6.52-.78-12.52-2.08-19.34-2.07q-5.76.01-11.49-1.01a.78.77 20.6 01-.53-1.16q.42-.69 1.18-1.13z"/><path fill="#fff" d="M218.25 289.46l8.05 11.42q-4.25-1.85-8.55-.59l-5.29-7.79 1.16-2.72a.72.71-77.7 01.69-.45l3.94.13z"/><path fill="#949799" d="M226.3 300.88l3.18 3.77q-5.07.56-9.98-1.37l-1.75-2.99q4.3-1.26 8.55.59z"/><path fill="#fff" d="M374.15 314.72l1.54-8.01a1.55 1.49-53.4 00-.12-.93l-.36-.78 4.6-3.48a.55.55 0 01.75.09l3.22 3.81a.55.55 0 010 .72q-4.2 4.83-9.63 8.58zM229.48 304.65q1.12.45 1.69 1.8a.71.71 0 01-.33.9l-5.77 2.93a.79.79 0 01-1.09-.41l-.6-1.52a1.43 1.34-86.5 00-.53-.64q-2.26-1.48-3.35-4.43 4.91 1.93 9.98 1.37z"/><path fill="#949799" d="M375.21 305l.36.78a1.55 1.49-53.4 01.12.93l-1.54 8.01-7.57 6.21-9.33-.72q1.2-2.01 3.21-3.21 1.23.85 2.48.04a1.77 1.76 28 01.92-.28c7.38-.17 6.79.03 7.85-7.15a1.58 1.52-20 01.41-.84q.61-.64-.12-1.31l3.21-2.46z"/><path fill="#b4b5b5" d="M356.79 333.75q-.26.48-.5.61a1.29 1.15 54.7 01-1.55-.36l-7.88-9.58a1.58 1.55-66.9 01-.35-.9l-.02-.52a1.16.15 54.2 00-.44-.81q-.59-.89-1.68-.7-.5.09-.98-.09c-6.76-2.46-14.83-1.2-22.07-2.34q-11.84-1.87-23.75-3.35c-3.76-.47-9.42-.09-14.31-1.54-3.41-1.01-6.51-.06-9.69-.82q-15.76-3.78-32-4.02a1.71 1.66-59.8 00-.93.26q-7.11 4.49-14.99 7.55c1.64-4.02 9.16-6.44 13.03-7.82a.61.61 0 00.37-.8l-.65-1.7a.3.3 0 01.34-.4c7.42 1.52 16.24 2.28 22.36 3.23 29.82 4.59 59.5 7.33 89.48 10.3q.93.09.29.77l-2.39 2.52a.48.48 0 00-.02.64l8.33 9.87zM390.5 307.21q.22.07.34.21a.54.53 49.3 01-.05.71q-9.27 8.85-19.22 16.92c-.94.76-11.77 8.9-12.68 8.72a.5.49 2.4 01-.4-.43l-.03-.34q1.63-1.89 2.37-2.42 10.72-7.61 21.75-17.49 3.26-2.93 7.92-5.88z"/><path fill="#fff" d="M372 307.46q.73.67.12 1.31a1.58 1.52-20 00-.41.84c-1.06 7.18-.47 6.98-7.85 7.15a1.77 1.76 28 00-.92.28q-1.25.81-2.48-.04l11.54-9.54zM357.25 320.21l9.33.72-8.17 6.96a.64.64 0 01-.84-.01l-4.34-3.82a.46.45-43.5 01.02-.7l4-3.15z"/><path fill="#b4b5b5" d="M278.46 332l-65.96-9.29q.92-1.36 2.77-.98c10.23 2.08 20.97 1.17 31.05 3.71q9.01 2.26 18.24 3.3c4.19.47 8.96 1.74 13.62 1.95a.64.63-1.6 01.6.56q.04.37-.32.75z"/><path fill="#fdfcdd" d="M266.61 453.83c-19.56-5.07-39.28-9.39-58.87-14.4q-.61-.15-.09-.5l19.98-13.05a.99.97-17.8 00.44-.83l-.26-21.71a.74.72-85.2 00-.59-.71c-4.88-.93-15.31-5.03-20.57-1.42q-.51.35-.51-.26l-.2-69.61a.49.48 3.2 01.54-.48q2.37.3 4.74.63 74.61 10.47 149.17 21.33a.58.57-86 01.49.57q.14 51.58 1.05 103.03.18 10.22.05 20.41a.41.4-82.6 01-.5.39q-47.59-11.12-94.87-23.39z"/><path fill="#b4b5b5" d="M371.5 345.29c-12.64-2.08-25.97-3.44-37.96-5.33q-18.97-2.99-38.04-5.25-.28-.81.24-1.27a1 .97-58.2 01.88-.22c6.11 1.45 13.36 1.78 18.36 2.6q6.41 1.05 12.8 2.21c1.51.28 3.44-.36 4.91.05 3.98 1.1 8.26 1.13 11.39 1.71q13.65 2.55 27.5 3.63 1.65.13.67 1.46-.3.41-.75.41z"/><path fill="#949799" d="M180.54 436q.28-.48.27-1-.33-21.84-.14-43.69.02-1.92.1-3.91a.64.64 0 00-.48-.66q-.36-.09-.75.01l-.78-45.11q-.03-1.86 1.45-.74l4.73 3.6a1.2 1.17 19.2 01.47.94l.83 97.09q0 .41-.34.19-3.82-2.53-5.36-6.72zM375.21 408.75q-.54-.61-1.06-.49a.65.64-7.6 00-.5.65q.18 6.88-.12 13.77c-.23 5.26.4 11.44-.19 17.23q-.05.52.15 1 .7 1.67-.28 3.19a1.11 1.07 53.5 00-.12.91q.66 2.15.74 4.43c.32 8.71-.36 17.6.22 26.24a1.14 1.14 0 00.47.84l.49.36q.69.5.74-.35l.04-.78c1.6 7.08-2.52 9.57-6.9 13.84q-.35.35-.36-.15l-.24-44.19q1.56.51 3.16-.41.65-.38-.07-.62-2.34-.77-.95-2.94a1.7 1.66 61.6 00.27-.95l-.09-6.87a1.13 1.11 22.9 00-.33-.79l-.22-.23a.87.86 22.5 01-.24-.57l-.23-8.81a.63.63 0 00-.88-.56q-.62.26-.92.75-.2-25.75-.72-51.5-.03-1.46.44-2.22a.84.83-54.5 011.23-.21q3.39 2.74 6 6.24a1.71 1.68-63.9 01.34 1.02l.13 32.17z"/><path fill="#b4b5b5" d="M179.54 386.75q.39-.1.75-.01a.64.64 0 01.48.66q-.08 1.99-.1 3.91-.19 21.85.14 43.69.01.52-.27 1-.24-1.03-.26-2.07-.48-23.59-.74-47.18zM215.5 408.04l-4.76-1.61q3.73-.7 7.45-.19.52.07.11.4-1.23.99-2.8 1.4z"/><path fill="#949799" d="M210.74 406.43l4.76 1.61-8.14 5.38a.39.39 0 01-.58-.21q-1.71-5.49 3.96-6.78z"/><path fill="#b4b5b5" d="M375.21 408.75l.58 67-.04.78q-.05.85-.74.35l-.49-.36a1.14 1.14 0 01-.47-.84c-.58-8.64.1-17.53-.22-26.24q-.08-2.28-.74-4.43a1.11 1.07 53.5 01.12-.91q.98-1.52.28-3.19-.2-.48-.15-1c.59-5.79-.04-11.97.19-17.23q.3-6.89.12-13.77a.65.64-7.6 01.5-.65q.52-.12 1.06.49zM368.29 445.25l-.5-22q.3-.49.92-.75a.63.63 0 01.88.56l.23 8.81a.87.86 22.5 00.24.57l.22.23a1.13 1.11 22.9 01.33.79l.09 6.87a1.7 1.66 61.6 01-.27.95q-1.39 2.17.95 2.94.72.24.07.62-1.6.92-3.16.41z"/><path fill="#949799" d="M138.88 447.98a.25.25 0 01-.05-.45l33.85-19.37a.4.4 0 01.58.23c.87 2.84.39 4.76-2.22 6.42q-11.42 7.27-23.43 13.45c-3.15 1.61-5.57.71-8.73-.28z"/><path fill="#b4b5b5" d="M234.75 452.29q.12.31 0 .65a.61.61 0 01-.7.39q-9.87-2.04-19.61-4.65-2.11-.56-3.42-.68c-2.07-.18-4.77 1.58-4.69-1.66q14.42 1.99 28.42 5.95z"/><path fill="#949799" d="M206.33 446.34c-.08 3.24 2.62 1.48 4.69 1.66q1.31.12 3.42.68 9.74 2.61 19.61 4.65a.61.61 0 00.7-.39q.12-.34 0-.65l6.25 1.67q-.29.42-.3.83a.67.67 0 00.51.66c5.18 1.24 10.36 2.03 15.49 3.85 2.9 1.03 6.48 1.95 9.58 2.55q12.24 2.37 24.22 5.82c5.52 1.59 12.7 2.95 18.87 5.13 5.62 1.98 11.23 2.47 16.11 3.8q16.71 4.54 33.72 8.05a.95.95 0 01.72.64q1.5 4.47.59 9.21a1.98 1.97 15.2 01-2.61 1.49c-8.85-3.16-17.85-4.81-26.69-7.65-1.97-.63-8.58-3.1-8.21-.63l-3.75-.92q.25.11.42-.12a.37.36-58.9 00-.13-.54c-5.4-2.74-11.22-3.17-16.37-4.84-8.38-2.71-17.41-4.09-25.56-7.09-3.47-1.28-7.61-1.7-10.78-2.76q-5.32-1.79-10.86-2.79c-2.42-.44-5.53-2.15-7.72-2.18-3.01-.03-3.79-.88-6.02-1.45-11.14-2.85-20.69-6.04-33.54-8.47q-.91-.17-.69.91l-13.31-3.15a.68.67 36.9 01-.18-1.24l11.82-6.73zM402.62 466.86a.34.34 0 01-.09-.56l14.92-13.66a1.13 1.11-59.8 01.99-.27l4.05.83q2.27.48.61 2.1l-13.98 13.71a.91.9-55.7 01-.98.19l-5.52-2.34z"/><path fill="#b4b5b5" d="M241 453.96L360.58 484a1.6 1.6 0 011.2 1.38c.39 3.65 1.62 9.76-2.56 11.75a1.4 1.36 39.2 01-.94.08l-35.28-9.5c-.37-2.47 6.24 0 8.21.63 8.84 2.84 17.84 4.49 26.69 7.65a1.98 1.97 15.2 002.61-1.49q.91-4.74-.59-9.21a.95.95 0 00-.72-.64q-17.01-3.51-33.72-8.05c-4.88-1.33-10.49-1.82-16.11-3.8-6.17-2.18-13.35-3.54-18.87-5.13q-11.98-3.45-24.22-5.82c-3.1-.6-6.68-1.52-9.58-2.55-5.13-1.82-10.31-2.61-15.49-3.85a.67.67 0 01-.51-.66q.01-.41.3-.83zM136.62 470.45a1.21 1.2 8.8 01-.83-1.13l-.05-14.24a.65.65 0 01.75-.64l4.16.71a.83.82 1.4 01.69.72q.94 7.89.58 15.83a.34.34 0 01-.45.31l-4.85-1.56zm3.89-.45q.14-6.21-1.43-13.13a.59.59 0 00-1.16.11l-.5 11.94a.86.85-81.7 00.64.87l2.63.68q.22.06.05-.09-.24-.2-.23-.38z"/><path fill="#949799" d="M140.51 470q-.01.18.23.38.17.15-.05.09l-2.63-.68a.86.85-81.7 01-.64-.87l.5-11.94a.59.59 0 011.16-.11q1.57 6.92 1.43 13.13z"/><path fill="#b4b5b5" d="M319.25 486.79c-37.14-9.56-74.13-19.68-111.25-29.33q-.22-1.08.69-.91c12.85 2.43 22.4 5.62 33.54 8.47 2.23.57 3.01 1.42 6.02 1.45 2.19.03 5.3 1.74 7.72 2.18q5.54 1 10.86 2.79c3.17 1.06 7.31 1.48 10.78 2.76 8.15 3 17.18 4.38 25.56 7.09 5.15 1.67 10.97 2.1 16.37 4.84a.37.36-58.9 01.13.54q-.17.23-.42.12z"/><path fill="#949799" d="M350.4 516.57a.59.58 31.4 01-.23-.93c7.97-9.05 18.14-17.23 26.97-25.55 1.12-1.05 2.47-1.67 3.83-2.24a1.52 1.48-49 01.98-.08l5.88 1.53a.37.37 0 01.18.6c-8.79 9.81-18.58 19.47-28.28 28.39a1.22 1.22 0 01-.92.32q-4.35-.39-8.41-2.04z"/><path fill="#b4b5b5" d="M349.85 522.81l-.9 20q-1.48-9.97-1.09-20.05a.51.51 0 01.55-.49q.65.06 1.44.54z"/><path fill="#949799" d="M349.85 522.81l6.03 1.2a1.86 1.85-84.7 011.5 1.81l.17 18.9a.49.48 7.9 01-.63.47l-7.97-2.38.9-20z"/><path fill="#b4b5b5" d="M590.25 589.71l.46.04-.02 1.25h-.75q-4.88-.63-9.75 0h-13.25q-11.38-.63-22.75 0h-.25q-2.88-.63-5.75 0h-10.25q-2.88-.63-5.75 0h-2.25q-22.88-.63-45.75 0h-.25q-3.88-.63-7.75 0h-9.25q-15.38-.63-30.75 0h-3.25q-2.88-.63-5.75 0h-9.75q-7.13-.63-14.25 0h-9.25l-45.69-.21-16.06.21h-2.25q-2.63-.63-5.25 0h-2.75q-30.88-.63-61.75 0h-26.25q-2.88-.63-5.75 0h-2.25q-2.88-.63-5.75 0h-4.25q-10.38-.63-20.75 0h-.25q-3.88-.63-7.75 0h-1.25q-23.38-.63-46.75 0h-.25q-3.88-.63-7.75 0h-1.25q-7.88-.63-15.75 0H77.94q-2.88-.63-5.75 0h-.25q-2.88-.63-5.75 0h-2.25q-6.88-.63-13.75 0h-.25q-2.88-.63-5.75 0h-2.25q-7.88-.63-15.75 0h-1.25q-4.13-.63-8.25 0h-2.25q-6.84-.45-13.69-.26c-.51.02-.64-.24-.5-.7q2.21.08 4.44.08 292.22.14 584.44.12a1.17 1.13-61.8 00.66-.21l.46-.32z"/><path fill="#1f1e1d" d="M0 589.94l.25.1c-.14.46-.01.72.5.7q6.85-.19 13.69.26H0v-1.06zM24.94 591h-8.25q4.12-.63 8.25 0zM41.94 591H26.19q7.87-.63 15.75 0zM49.94 591h-5.75q2.87-.63 5.75 0zM63.94 591H50.19q6.87-.63 13.75 0zM71.94 591h-5.75q2.87-.63 5.75 0zM77.94 591h-5.75q2.87-.63 5.75 0zM119.94 591h-15.75q7.87-.63 15.75 0zM128.94 591h-7.75q3.87-.63 7.75 0zM175.94 591h-46.75q23.37-.63 46.75 0zM184.94 591h-7.75q3.87-.63 7.75 0zM205.94 591h-20.75q10.37-.63 20.75 0zM215.94 591h-5.75q2.87-.63 5.75 0zM223.94 591h-5.75q2.87-.63 5.75 0zM311.94 591h-61.75q30.87-.63 61.75 0zM319.94 591h-5.25q2.62-.63 5.25 0zM338.25 590.79l-.06.21h-16l16.06-.21z"/><path fill="#1f1e1d" d="M338.25 590.79l45.69.21h-45.75l.06-.21zM407.44 591h-14.25q7.12-.63 14.25 0zM422.94 591h-5.75q2.87-.63 5.75 0zM456.94 591h-30.75q15.37-.63 30.75 0zM473.94 591h-7.75q3.87-.63 7.75 0zM519.94 591h-45.75q22.87-.63 45.75 0zM527.94 591h-5.75q2.87-.63 5.75 0zM543.94 591h-5.75q2.87-.63 5.75 0zM566.94 591h-22.75q11.37-.63 22.75 0zM589.94 591h-9.75q4.87-.63 9.75 0z"/></svg>