<svg xmlns="http://www.w3.org/2000/svg" viewBox="0 0 591 591"><g stroke-width="2" fill="none"><path stroke="#101010" vector-effect="non-scaling-stroke" d="M590.06 0l.19.29"/><path stroke="#7e7f71" vector-effect="non-scaling-stroke" d="M590.25.29v589.67"/><path stroke="gray" vector-effect="non-scaling-stroke" d="M590.25 589.96l-.5.33"/><path stroke="#7e7f71" vector-effect="non-scaling-stroke" d="M589.75 590.29L.82 590.06a.34.34 0 00-.32.47l.19.47M586.25 4.57a.32.32 0 00-.32-.32H4.57a.32.32 0 00-.32.32v581.36a.32.32 0 00.32.32h581.36a.32.32 0 00.32-.32V4.57"/><path stroke="#8e8f80" vector-effect="non-scaling-stroke" d="M591 587.56c-.84-.45-.25-537.29-.25-587.06a.25.24-86.1 00-.21-.25q-.17-.02-.29.04"/><path stroke="#fdfff0" vector-effect="non-scaling-stroke" d="M591 590.31l-.75-.35"/><path stroke="#fbf2c7" vector-effect="non-scaling-stroke" d="M97.31 38.73c-12.79-.73-25.47-.38-38.25-.24q-9.69.1-13.45 1.35c-11.83 3.93-12.38 13.74-12.54 25.92q-.23 17.3.01 34.92a1.51 1.51 0 002.56 1.06q27.73-27.11 55.64-54.96 3.49-3.49 6.48-7.02a.63.63 0 00-.45-1.03M505.69 94.27l.17-.77q.2-.94-.31-.13-1.07 1.68.39 3.12.29.28.46.64.44.91 1.41 1.36.81.37.27-.35l-2.18-2.92a1.19 1.18 32.9 01-.21-.95"/><path stroke="#cbcec0" vector-effect="non-scaling-stroke" d="M482 491.21c13.19 1.18 25.71 1.6 37.17 2.84 2.05.23 4.02 1.2 6.15 1.59q11.03 2.06 22.25 2.19c6.02.07 9.76.84 15.29-.5 4.31-1.04 7.89-.85 12.14-.85a1 1 0 001-1.02c-.04-2.34-10.43-3.41-12.31-3.46-26.13-.73-53.19 1.79-79.18-5.33"/><path stroke="#8e8f80" vector-effect="non-scaling-stroke" d="M484.51 486.67l.2-5.67"/><path stroke="#cbcec0" vector-effect="non-scaling-stroke" d="M484.71 481l-.17-4.25"/><path stroke="#8e8f80" vector-effect="non-scaling-stroke" d="M484.54 476.75c1.27-49.78.56-99.53 1.47-149.33.46-24.53.3-49.07.79-73.62a.63.62-5.2 01.51-.6c13.83-2.89 27.87-4.98 41.67-7.71 7.52-1.49 11.52-7.04 11.52-14.74q.03-36.39-.03-72.77c-.01-5.86 1.03-17.88-5.57-20.28q-4.37-1.59-8.61-3.55c-6.18-2.86-9.82-.62-15.79.62q-33.42 6.91-66.61 14.81c-7.18 1.71-25.01 3.89-27.35 12.44q-.79 2.9-.8 5.73-.15 34.64.85 73.59c.23 9.26-.86 14.34 7.15 18.11 7.98 3.75 12.19 3.13 20.51 1.28q5.5-1.23 26.22-4.6a.43.43 0 01.5.42q-.16 51.35-.81 102.7c-.52 41.89-.24 83.78-.88 125.68-.11 7.52 7.35 6.96 12.72 6.28"/><path stroke="#5e5e5f" vector-effect="non-scaling-stroke" d="M484.54 476.75q-.75 2.18.17 4.25M484.51 486.67q-.23 3.1-3.21 4.12-.23.08 0 .16l.7.26"/><path stroke="#cbcec0" vector-effect="non-scaling-stroke" d="M55.25 527.46q4.31 2 8.25 2.33c17.47 1.43 35.03.19 52.61 1.41q54.17 3.75 108.32 7.66 9.66.7 14.32.17c100.38-11.56 200.82-22.26 301.25-33.69a.24.24 0 00-.02-.47q-12.74-.38-25.57-1.05c-10.81-.57-24.58-.77-37.66-1.56q-13.23-.8-41.73-1.42"/><path stroke="#8e8f80" vector-effect="non-scaling-stroke" d="M435.02 500.84q-.63-4.33 0-9.11a.48.48 0 01.52-.41l10.97.95a1.42 1.36 28.2 00.93-.26q1.39-1.01 1.81-2.72"/><path stroke="#7e7f71" vector-effect="non-scaling-stroke" d="M449.25 489.29q.72-1.02.72-2.29-.01-76.38.74-152.75"/><path stroke="#8e8f80" vector-effect="non-scaling-stroke" d="M450.71 334.25q.35-13.91.51-27.83c.03-2.64-.37-5.01-1.36-7.23a1.75 1.75 0 00-2.04-.97q-4.78 1.28-9.6 1.91-32.16 4.18-64.21 9a.48.47-5 01-.54-.45l-.21-4.8a.63.63 0 01.55-.65l76.03-10.15a.69.68-89.9 00.58-.59c1.7-12.58-9.9-21.83-20.71-24.61-13.79-3.55-30.48-5.55-41.38-7.37C288.31 243.78 188.16 228 88.24 210.67c-5.74-.99-13.95-3.09-19.15-2.67-19.74 1.58-34.04 25.55-37.33 42.48q-1.23 6.39 4.01 10.72a1.06 1.03-70.8 01.38.81q.54 51.38-.67 102.75c-1.21 51.32-.18 102.92-.42 154.28-.01 2.48-.63 5.21 1.73 6.89q8.34 5.92 18.46 1.53"/><path stroke="#101010" vector-effect="non-scaling-stroke" d="M450.71 334.25q.18-2.86-.71-4.42-1.12-1.96-1.12.29.03 35.41-.17 70.19c-.18 29.29.16 58.53-.77 87.81a.93.91 18.4 00.41.8q.4.28.9.37"/><path stroke="#5e5e5f" vector-effect="non-scaling-stroke" d="M435.02 500.84l-.21 2.32a.53.53 0 01-.58.48l-26.98-2.85"/><path stroke="#8e8f80" vector-effect="non-scaling-stroke" d="M407.25 500.79q-13.41-1.73-26.91-2.43c-1.75-.09-2.11-.9-1.91-2.54"/><path stroke="#5e5e5f" vector-effect="non-scaling-stroke" d="M378.43 495.82l.07-1.03"/><path stroke="#908f8f" vector-effect="non-scaling-stroke" d="M378.5 494.79l.23-.13a.39.37-15 00.2-.33l.08-9.32a.7.69-89.6 00-.69-.71l-4.86-.04a.65.64.4 00-.66.64l-.05 11.06"/><path stroke="#5e5e5f" vector-effect="non-scaling-stroke" d="M372.75 495.96l-.5 2.25"/><path stroke="#8e8f80" vector-effect="non-scaling-stroke" d="M372.25 498.21c-3.5 1.46-19.01 3.97-19-2.98q.03-11.38-.04-22.61a.49.48-.6 00-.5-.48q-23.46.41-46.86 2.26c-3.93.31-8.44.28-12.7.62a.6.58-88.7 00-.53.52l-.37 3"/><path stroke="#101010" vector-effect="non-scaling-stroke" d="M292.25 478.54q-.42-.47-1-.21a.85.85 0 00-.49.77l-.16 24.3a1.26 1.23 24.3 00.33.84q.26.29.57.3"/><path stroke="#5e5e5f" vector-effect="non-scaling-stroke" d="M291.5 504.54c-3.58 3.55-8.43 2.65-13 2.75"/><path stroke="#8e8f80" vector-effect="non-scaling-stroke" d="M278.5 507.29c-2.48-1.5-6.88-2.24-6.76-5.8q.45-13.59.16-24.61a.53.53 0 00-.52-.52c-6.17-.2-12.95.84-18.35.93q-9.23.16-16.09.67c-18.24 1.35-34.91 1.78-51.31 3.16a.56.56 0 00-.52.55l-.32 28.83"/><path stroke="#6c6b6b" vector-effect="non-scaling-stroke" d="M184.79 510.5q.11 2.25-.92 4.16a1.42 1.4-86.7 01-.7.63q-7.81 3.2-15.9.66c-5.83-1.82-4.41-6.34-4.56-10.95"/><path stroke="#8e8f80" vector-effect="non-scaling-stroke" d="M162.71 505l.23-21.94a.52.51 1.1 00-.51-.52q-7.46-.18-10.43.02c-19.23 1.31-38.42 1.89-57.72 3.24-11.93.84-23.9 1-35.82 2a.71.7-1.8 00-.65.69l-.35 34.01"/><path stroke="#5e5e5f" vector-effect="non-scaling-stroke" d="M57.46 522.5l-2.21 4.96"/><path stroke="#cdcecf" vector-effect="non-scaling-stroke" d="M378.5 494.79c-1.39-.73-3.79 1.18-5.75 1.17"/><path stroke="#d9dbcc" vector-effect="non-scaling-stroke" d="M162.71 505l-.2 6.59a1.08 1.05 73.5 01-.43.82q-.69.51-1 1.28a.76.75-62.2 00.28.91l3.57 2.43a1.45 1.38-26.5 00.81.25l3.83.06a.74.73-5.4 01.71.58q.18.85-.53 1.29"/><path stroke="#cbcec0" vector-effect="non-scaling-stroke" d="M169.75 519.21c-22.35 1.18-45.09 3.42-75.48 6.14-8.98.8-17.13-.44-25.8-1.75-3.52-.54-6.73-.33-10.17-.06a.79.78 74.1 01-.76-.43q-.13-.26-.08-.61M372.25 498.21q2.33.56 4.73.15a.42.42 0 00.33-.55q-.68-1.96 1.12-1.99M407.25 500.79l.01.41a.44.43-87.1 01-.48.44q-10.25-.89-20.47-2.2c-2.56-.33-5.26 1.01-7.43 1.27q-4.77.6-12.88 1.27-30.38 2.55-60.75 5.16a1.75 1.71-33 01-.94-.19q-2.41-1.3-5.09-2.17c-2.45-.79-4.59-.03-7.26-.53"/><path stroke="#7e7f71" vector-effect="non-scaling-stroke" d="M291.96 504.25l.29-25.71"/><path stroke="#4e4f50" vector-effect="non-scaling-stroke" d="M291.96 504.25l-.46.29"/><path stroke="#cbcec0" vector-effect="non-scaling-stroke" d="M278.5 507.29q.01 1.2-.48 2.27a.86.85-79.9 01-.71.5c-19.08 1.27-38.02 2.97-57.06 4.7-11.16 1.02-23.19-1.71-34.25-3.47"/><path stroke="#d9dbcc" vector-effect="non-scaling-stroke" d="M186 511.29q-1.04.18-1.21-.79"/><path stroke="#a9aaab" vector-effect="non-scaling-stroke" d="M169.75 519.21c5.85-.88 15.54 0 16.25-7.92"/><path stroke="#908f8f" vector-effect="non-scaling-stroke" d="M442.65 157.64c-6.86 1.59-19.79.57-19.76 10.93q.08 34.59.32 69.18c.01.54.24 10.23 1.69 11.72 1.7 1.76 14.02-.71 17.91-1.43 20.22-3.74 40.51-7.06 60.76-10.68 7.31-1.31 17.87-.12 18.29-10.88q.25-6.29-.07-16.04-.39-12.15.21-57.75c.07-5.55.6-9.34-3.93-11.86a1.07 1.06 49.2 00-.91-.07c-4.15 1.57-9.65 2.22-12.7 2.9q-30.94 6.86-61.81 13.98"/><path stroke="#6c6b6b" vector-effect="non-scaling-stroke" d="M529.05 143.19c.29 25.65-.11 50.67.29 76.99.05 3.11-.35 7.05-.17 10.56.19 3.52-.57 5.71-3.81 7.07a.19.17-13.4 00-.11.16l-.01.33a.28.28 0 00.37.27q3.8-1.17 6.51-4.01a1.35 1.34-23.8 00.37-.95c-.11-25.07.18-50.22.27-75.3.01-4.28-.36-9.58-.27-14.39a.76.76 0 00-.61-.77l-2.24-.45a.49.49 0 00-.59.49M476.04 270.25l.25 5.5"/><path stroke="#908f8f" vector-effect="non-scaling-stroke" d="M476.29 275.75l-.25 56.25"/><path stroke="#5e5e5f" vector-effect="non-scaling-stroke" d="M476.04 332q-.59 14.65-.73 29.31-.52 57.81-.78 115.63-.02 5.01-.32 8.15a1.34 1.34 0 00.24.91q.75 1.07 2.05.46"/><path stroke="#908f8f" vector-effect="non-scaling-stroke" d="M476.5 486.46l1.22.3a1.39 1.38-82.8 001.72-1.34c.1-28.12 1.03-56.18 1.01-84.23-.03-43.62.06-87.23.34-130.85q.02-3.25.34-7.67c.27-3.88-.47-7.78.2-9.91a1.41 1.36-49.1 00-.05-.93c-.86-2.06-5.24-2.67-5.24.41v18.01"/><path stroke="#cdcecf" vector-effect="non-scaling-stroke" d="M476.5 486.46q-.06-3.25.16-6.48c.4-5.69-.08-11.25.03-16.88.25-12.58-.38-25.21.18-37.79q.11-2.43-.49-5.81-.09-.53.08-1.04.63-1.99-.17-3.87a1.25 1.23 45.9 01.01-1.01q.9-1.99.23-4.11-.16-.51-.09-1.05c.76-5.42.1-11.28.27-16.23q.16-4.9-.21-9.78c-.13-1.75.33-3.91.03-5.86-.32-2.07.33-3.48.28-5.3q-.36-11.85.11-23.71.02-.5-.2-.95c-1.26-2.64-.4-10.48-.68-14.59"/><path stroke="#dbdbdb" vector-effect="non-scaling-stroke" d="M476.29 275.75q2.36-1.65 2.04-4.49a.71.71 0 00-.55-.61l-1.74-.4"/><path stroke="#cdcecf" vector-effect="non-scaling-stroke" d="M432.65 169.44l-.2 70.29a.46.46 0 00.55.45l78.6-15.01a.69.69 0 00.57-.67c.29-24.05-.19-48.29.76-72.41a.62.61 85.6 00-.73-.63c-10.31 2.07-20.64 4.55-30.64 6.47q-24.26 4.65-48.08 10.46a1.08 1.08 0 00-.83 1.05"/><path stroke="#dbdbdb" vector-effect="non-scaling-stroke" d="M427.15 216.57l3.57-1.12a.4.39 82.3 00.28-.38v-.31a.39.38 85 00-.45-.38q-2.09.36-3.71 1.57a.35.35 0 00.31.62"/><path stroke="#cdcecf" vector-effect="non-scaling-stroke" d="M501.29 191.82c-.11-2.71 3.19-2.7 5-2.83a1.55 1.54 89.2 001.44-1.49c.14-4.34-6.12.47-6.45-2.74a.93.92 71.3 01.42-.86l1.73-1.13a1.11 1.07-16.6 00.5-.89l.17-10.77a.8.8 0 00-.61-.79c-5.03-1.22-5.42 7.42-6.28 10.73a.44.44 0 01-.59.31q-13.94-5.35-28.65-1.99c-11.31 2.58-23.47 7.04-28.62 18.08-3.77 8.1 6.39 13.14 12.72 13.4a1.13 1.11 71.3 01.82.41c1.69 2.05 2.52 5.9 3.77 8.26a.75.74-19.6 00.82.39l14.6-3.02a1.64 1.61 12.8 00.97-.6q.73-.92.34-1.78a1.46 1.43 40.9 01-.08-.96l1.21-4.66a.92.91-5 01.51-.6c8.06-3.63 14.18-5.41 21.03-10.56a.56.56 0 01.88.3l2.03 7.36a.61.61 0 00.67.44l3.42-.43a.68.67-4.7 00.59-.69l-.21-11.58a.63.62 2.6 00-.56-.61l-1.06-.13a.6.6 0 01-.53-.57"/><path stroke="#cdcecf" vector-effect="non-scaling-stroke" d="M470.697 213.005a1.73 1.24 106.9 001.69-1.294 1.73 1.24 106.9 00-.684-2.016 1.73 1.24 106.9 00-1.69 1.294 1.73 1.24 106.9 00.684 2.016M465.45 213.44a.87.87 0 001.26.61q1.7-.9 1.36-2.99a.74.73-7.8 00-.81-.61q-2.31.28-1.81 2.99M463.54 214.37l.62-2.57q.23-.93-.66-.59l-2.36.92a1.17 1.16-88 00-.65.61q-.97 2.16 1.11 2.76a1.55 1.55 0 001.94-1.13M458.411 213.17a.81.81 0 00-.705-.902l-.575-.07a.81.81 0 00-.903.705l-.22 1.786a.81.81 0 00.706.903l.575.07a.81.81 0 00.903-.705l.22-1.786"/><path stroke="#6c6b6b" vector-effect="non-scaling-stroke" d="M86.05 221.7c-9.46-12.29-21.48-11.09-32.19-1.33q-14.91 13.57-18.24 33.62a.32.31-3.6 00.4.35q27.83-8.21 55.67-16.54 1.44-.43 1.68-1.34c.83-3.27-5.47-12.37-7.32-14.76"/><path stroke="#5e5e5f" vector-effect="non-scaling-stroke" d="M113.32 233.82q10.89 2.4 22.18 3.39"/><path stroke="#6c6b6b" vector-effect="non-scaling-stroke" d="M135.5 237.21q14.63 2.48 29.28 4.91c5.46.91 12.83 1.41 19.22 2.75a1.09 1.08 32.8 00.89-.19l1.38-1.05"/><path stroke="#5e5e5f" vector-effect="non-scaling-stroke" d="M186.27 243.63l4.98-3.84"/><path stroke="#908f8f" vector-effect="non-scaling-stroke" d="M191.25 239.79l5.06-2.68a.4.4 0 00-.12-.75l-93.67-15.83q-1.65-.28-.62 1.03 3.95 5.05 5.89 11.16a.79.78-5.1 00.66.55l4.87.55"/><path stroke="#cdcecf" vector-effect="non-scaling-stroke" d="M191.25 239.79c-28.01-4.56-56.09-8.6-84.07-13.33a.35.35 0 00-.41.37q.3 3.83 3.71 5.37a1.59 1.55-39.2 001.02.09q2.16-.55 1.82 1.53"/><path stroke="#a9aaab" vector-effect="non-scaling-stroke" d="M186.27 243.63q-10.44-1.3-20.62-3.85c-4.77-1.19-9.64-.64-14.6-1.52-4.63-.82-9.61-.85-14.34-2.16-.91-.25-1.46.12-1.21 1.11"/><path stroke="#5e5e5f" vector-effect="non-scaling-stroke" d="M92.46 245.25l-23.38 6.37a.24.24 0 00.05.47c12.81 1.03 25.61 3.02 38.37 4.62"/><path stroke="#6c6b6b" vector-effect="non-scaling-stroke" d="M107.5 256.71c14.79 1.62 29.23 4.08 44.21 5.85q8.41 1 16.77 2.36a.69.68-71.3 00.7-.35q3.63-6.94 8.56-12.98.36-.45-.21-.54-29.43-4.26-58.78-9.04c-4.23-.68-8.01-1.39-12.31-.48q-7.09 1.51-13.98 3.72"/><path stroke="#a9aaab" vector-effect="non-scaling-stroke" d="M107.5 256.71q-.4-.57-.11-1.1a.74.74 0 01.77-.36c4.54.8 8.75 1.6 13.46 1.89q12.26.77 16.13 1.87c3.41.97 6.27.61 8.93 1.21q9.02 2.06 18.26 2.82a1.39 1.36 69.3 01.86.4l.25.24a.48.47-42.3 00.65.03l2.74-2.36q.4-.35.57-.84 1.39-3.83 4.58-6.44a1.5 1.5 0 00-.09-2.38c-.91-.63-2.52-.42-3.35-.54-9.38-1.35-18.73-2.71-28.14-3.79q-6.47-.74-12.72-2.61c-3.48-1.04-7.32-.76-11.16-1.54-4.05-.82-7.6-1.58-11.77-.47q-6.99 1.86-13.88 4.08a.8.79-29.2 01-.84-.23q-.39-.44-.18-1.34"/><path stroke="#5e5e5f" vector-effect="non-scaling-stroke" d="M247 248.54l4.56 6.28a1.18 1.17-13.1 00.75.46l43.88 6.85a1.58 1.58 0 00.9-.13q3.61-1.76 6.66-4.46"/><path stroke="#908f8f" vector-effect="non-scaling-stroke" d="M303.75 257.54l4.31-2.38q.54-.29-.07-.41c-22.04-4.23-43.86-7.27-65.72-10.83q-.54-.09-.13.28l4.86 4.34"/><path stroke="#cdcecf" vector-effect="non-scaling-stroke" d="M303.75 257.54q-1.48-.86-3.18-1.11c-12.72-1.84-25.09-4.08-38.1-5.79-3.7-.49-12.25-2.94-15.47-2.1"/><path stroke="#6c6b6b" vector-effect="non-scaling-stroke" d="M208.9 248.26a.34.34 0 00.11.64l16.11 2.23a.34.34 0 00.28-.58l-7.28-6.75a.34.34 0 00-.38-.05l-8.84 4.51M206.75 269.96l32 4.25"/><path stroke="#5e5e5f" vector-effect="non-scaling-stroke" d="M238.75 274.21l42.01 5.31a.9.89 22.5 00.81-.33c2.93-3.7 4.92-7.21 8.74-10.07a.49.49 0 00-.23-.88l-8.83-1.2"/><path stroke="#6c6b6b" vector-effect="non-scaling-stroke" d="M281.25 267.04l-57.5-8.83"/><path stroke="#5e5e5f" vector-effect="non-scaling-stroke" d="M223.75 258.21q-3.26-.98-6.43-.61"/><path stroke="#6c6b6b" vector-effect="non-scaling-stroke" d="M217.32 257.6q-5.12-1.57-10.46-1.61"/><path stroke="#5e5e5f" vector-effect="non-scaling-stroke" d="M206.86 255.99l-5.73-1.01a.96.95 22.8 00-.95.38l-8.51 11.74a.42.41 22 00.28.65l14.8 2.21"/><path stroke="#a9aaab" vector-effect="non-scaling-stroke" d="M206.86 255.99q4.88 3.3 10.46 1.61M223.75 258.21c-.83-.1-1.82-.02-1.7 1.11a.66.66 0 00.59.58c4.8.51 9.24 1.67 14.16 2.05q3.13.24 6.21.82c5.04.94 9.51 1.18 14.34 1.65 2.38.23 4.66 1.23 7.21 1.55 5.41.66 10.5 1.8 15.79 2.49a.76.75 17 00.76-.4q.24-.44.14-1.02M238.75 274.21q.69-1.55-.74-1.72-14.76-1.73-29.49-3.6-1.66-.21-1.77 1.07"/><path stroke="#5e5e5f" vector-effect="non-scaling-stroke" d="M328.5 260.79q-4.61 1.33-8.87 3.71-.46.26 0 .51 1.51.85 4.32 1.32 13.26 2.17 26.8 3.89.5.06.28-.39-1.85-3.87-5.29-5.93"/><path stroke="#908f8f" vector-effect="non-scaling-stroke" d="M345.74 263.9q-7.41-7.17-17.24-3.11"/><path stroke="#cdcecf" vector-effect="non-scaling-stroke" d="M345.74 263.9q-8.19-2.87-16.86-2.37a.36.35-1.5 01-.38-.35v-.39"/><path stroke="#6c6b6b" vector-effect="non-scaling-stroke" d="M43.68 263.42c-.18 40.66-.13 81.23-.72 121.83"/><path stroke="#101010" vector-effect="non-scaling-stroke" d="M42.96 385.25q.05-1.56-.52-2.19a.7.69 24.6 00-1.21.45c-1 43.85.01 88.73-1.05 133.55a.62.62 0 00.9.57q.94-.48 1.13-1.13"/><path stroke="#6c6b6b" vector-effect="non-scaling-stroke" d="M42.21 516.5l.09 3.7a.8.8 0 00.46.71q1.88.88 3.99.8"/><path stroke="#908f8f" vector-effect="non-scaling-stroke" d="M46.75 521.71q1.67.64 3.23-.04a.78.76 78.5 00.46-.71q.12-104.45 1.3-208.9.17-15.01-.13-48.39a.68.66 8.1 00-.49-.64q-3.75-1.07-7.44.39"/><path stroke="#dbdbdb" vector-effect="non-scaling-stroke" d="M46.75 521.71l-.25-.42"/><path stroke="#cdcecf" vector-effect="non-scaling-stroke" d="M46.5 521.29q.47-.41.47-1.29-.08-47.66-.2-95.31-.02-8.02.24-16.01c.2-5.9-.3-12.24-.34-18.37-.23-36.86.65-74.19.8-110.56q.02-5 2.16-7.81a.96.93 53.8 00.13-.93q-.41-1.03.5-1.87a.95.94 65 00.28-.78l-.35-3.47a.91.9 11.9 00-.46-.69q-1.75-.96-3.73-.41"/><path stroke="#dbdbdb" vector-effect="non-scaling-stroke" d="M46 263.79l-2.32-.37"/><path stroke="#a9aaab" vector-effect="non-scaling-stroke" d="M46 263.79q.13 4.59.09 9.17c-.05 4.42.41 11.78-.19 17.67-.19 1.89.63 3.52.47 5.41-.28 3.16-.13 4.92-.32 7.46a1.51 1.48 66.7 01-.33.85l-.63.78a.95.93 53.2 00-.13.97q.93 2.15.05 4.23a.79.78-57 00.18.87l.22.21a.89.88-60.3 01.24.89q-.9 3.03.2 5.98a.81.8-29.6 01-.26.93q-.52.4-.2 1.05.25.49.24 1.03c-.04 26.8.14 53.58.09 80.38-.01 1.03-.58 1.87-.35 3.04q.35 1.76.33 2.15c-.26 7.42.21 15.91.17 22.18q-.08 15.28-.17 30.56c-.04 7.35-.93 17.47-.57 26.32.47 11.7-.29 22.92-.31 33.01q0 1.67 1.68 2.36"/><path stroke="#5c5c5c" vector-effect="non-scaling-stroke" d="M42.21 516.5q-.26-65.63.75-131.25"/><path stroke="#8e8f80" vector-effect="non-scaling-stroke" d="M63.78 264.8c-1.05-.12-2.73-.57-4.18-.46a.65.64-2.9 00-.6.65l.01 9.9a.52.52 0 00.46.52q6.37.73 12.74 1.26c10.88.91 22.38 2.6 33.55 3.81q14.36 1.55 58.26 6.91a.48.47 3.9 00.53-.46l.16-8.9a.7.69-85.8 00-.6-.7q-50.12-6.7-100.33-12.53"/><path stroke="#5e5e5f" vector-effect="non-scaling-stroke" d="M370.54 268.21l2.12 5.24a1.11 1.08 87.9 00.66.63c4.87 1.69 7.55-.37 11.18-3.04"/><path stroke="#908f8f" vector-effect="non-scaling-stroke" d="M384.5 271.04l5.93-2.5a.44.43-52 00-.1-.83l-22.53-3.53q-.8-.13-.27.49l3.01 3.54"/><path stroke="#cdcecf" vector-effect="non-scaling-stroke" d="M384.5 271.04q-.19 0-.34-.07a.44.43-64.7 01-.21-.61l.24-.44a.31.31 0 00-.2-.44q-6.66-1.65-13.45-1.27"/><path stroke="#6c6b6b" vector-effect="non-scaling-stroke" d="M305.5 282.71l24 3.08"/><path stroke="#5e5e5f" vector-effect="non-scaling-stroke" d="M329.5 285.79l28.95 3.95"/><path stroke="#6c6b6b" vector-effect="non-scaling-stroke" d="M358.45 289.74l5.34.83a.8.79-65.2 00.73-.27l7.52-8.81a.23.23 0 00-.13-.37c-18.27-3.66-37-5.83-55.41-8.91"/><path stroke="#5e5e5f" vector-effect="non-scaling-stroke" d="M316.5 272.21l-6.27-.75a1.07 1.06 25.2 00-.91.32l-9.04 9.51a.4.39 32.9 00.14.64q2.49 1 5.08.78"/><path stroke="#a9aaab" vector-effect="non-scaling-stroke" d="M316.5 272.21q-.61-.06-1.23.74a.5.5 0 00.34.81q18.13 2.02 35.65 5.44c1.85.36 3.37.18 4.95.64q5.79 1.69 11.76 2.81a.43.43 0 01.29.64q-1.19 1.97-3.18 3.14a1.65 1.64 84.6 00-.7.85l-.52 1.45a.56.56 0 01-.76.31q-2.53-1.19-4.65.7M329.5 285.79l.37-.04a.46.45-.1 00.41-.4c.15-1.38-14.31-2.54-16.05-2.69-2.24-.21-5.18-1.08-7.98-.89a.72.71 5.6 00-.65.53l-.1.41"/><path stroke="#5e5e5f" vector-effect="non-scaling-stroke" d="M171.54 300q-.53 6.06-.33 12.12c.21 6.2-.51 13 .21 19.55a1.61 1.56-35.5 01-.16.88q-.15.32-.15.51-.36 40.1-.32 80.19"/><path stroke="#6c6b6b" vector-effect="non-scaling-stroke" d="M170.79 413.25l-.22 43.19a.49.49 0 00.49.5l1.19.02"/><path stroke="#5e5e5f" vector-effect="non-scaling-stroke" d="M172.25 456.96l1.98-.3"/><path stroke="#908f8f" vector-effect="non-scaling-stroke" d="M174.23 456.66c2.09.8 3.53.84 3.51-1.85q-.34-60.54.8-121.06"/><path stroke="#101010" vector-effect="non-scaling-stroke" d="M178.54 333.75q.15.71.62 1.36.32.43.51-.07c1.34-3.49.59-6.74.58-9.77q-.06-22.48-.27-44.96 0-.89-.21-1.78a.6.59-10.5 00-.67-.45q-.32.05-.6.46"/><path stroke="#5e5e5f" vector-effect="non-scaling-stroke" d="M178.5 278.54l-5.21-.04"/><path stroke="#6c6b6b" vector-effect="non-scaling-stroke" d="M173.29 278.5q-.56-.49-1.04-.36a.71.71 0 00-.52.67q-.06 6.31-.37 12.63c-.06 1.21.51 1.96.27 3.25-.41 2.19-.2 3.32-.09 5.31"/><path stroke="#a9aaab" vector-effect="non-scaling-stroke" d="M173.29 278.5q.45 4.31-.68 8.47a1.56 1.49-49.3 00.05.95q.64 1.59-.51 2.97a.84.82-38.1 00-.12.88q1.63 3.63.82 7.65a.73.72-84.1 01-.71.58h-.6"/><path stroke="#cdcecf" vector-effect="non-scaling-stroke" d="M178.71 285.75l-.45-.01a.67.65-78.6 00-.61.42q-.61 1.6-2.17 2.35a2.17 2.16-12.9 00-1.23 1.95c-.08 50.81-.11 101.49-.1 152.23 0 .69-.47 1.57-.4 2.44q.52 5.81.48 11.53"/><path stroke="#a9aaab" vector-effect="non-scaling-stroke" d="M172.25 456.96q-.11-4.84-.05-9.67c.01-1.15-.47-2.63-.28-3.91.94-6.35-.16-14.31-.28-20.85-.07-4.16.34-9.25.23-13.9a.43.42 2.3 00-.38-.41c-.68-.07-.57 4.24-.7 5.03"/><path stroke="gray" vector-effect="non-scaling-stroke" d="M178.54 333.75l.17-48"/><path stroke="#4e4f50" vector-effect="non-scaling-stroke" d="M178.71 285.75l-.21-7.21"/><path stroke="#6c6b6b" vector-effect="non-scaling-stroke" d="M58.29 387l-.25 28.5"/><path stroke="#5e5e5f" vector-effect="non-scaling-stroke" d="M58.04 415.5l-.25 2.25"/><path stroke="#8e8f80" vector-effect="non-scaling-stroke" d="M57.79 417.75l-.02 64.95a.46.46 0 00.49.46c14.54-1.04 28.69-1.5 43.64-2.55q13.58-.95 27.19-1.29c3.97-.1 8.38-.69 12.61-.84 6.21-.21 13.09-1.38 19.8-.91q1.88.14 2.07-1.44a.48.48 0 00-.45-.54q-3.9-.26-6.12-.05-13.99 1.29-28.04 1.69c-7.25.2-15.05-1.67-21.71-1.96Q98 474.87 81 472.7q-1.95-.25-2.91-1.2a1.16 1.16 0 01-.34-.82v-8.92a.74.73-5.8 01.59-.72c5.57-1.11 11.79-.42 17.51-.75q11.45-.67 12.32-.7 26.05-.94 52.1-2.95"/><path stroke="#5e5e5f" vector-effect="non-scaling-stroke" d="M160.27 456.64q1.4.3 2.84.02a.65.64-5.4 00.53-.63l-.04-4.42"/><path stroke="#8e8f80" vector-effect="non-scaling-stroke" d="M163.6 451.61l.44-57.61"/><path stroke="#5e5e5f" vector-effect="non-scaling-stroke" d="M164.04 394l.42-59.75"/><path stroke="#8e8f80" vector-effect="non-scaling-stroke" d="M164.46 334.25l.25-41.66a.64.63-86.4 00-.55-.63q-50.07-6.04-99.89-11.43c-1.38-.15-3.17-.86-4.77-.78a.53.53 0 00-.5.54q.25 50.89-1.03 101.7-.04 1.68.32 5.01"/><path stroke="#cbcec0" vector-effect="non-scaling-stroke" d="M164.46 334.25l-.22.13a.45.45 0 01-.48 0c-5.44-3.37-12.39-6.19-16.94-8.57q-42.69-22.4-85.53-43.27a.9.9 0 00-1.29.78c-.14 3.64.34 7.45.26 10.58q-.3 12.01-.11 24.02c.05 3.03-.58 6.62-.38 10.03a.91.91 0 00.48.75q.97.53 1.94 1 50.46 24.62 100.78 49.72a1.88 1.85 13.6 011.03 1.66l.04 12.92M163.6 451.61q-4.85-.81-8.7-3.58-3.35-2.4-3.39-2.43-45.21-29.06-90.33-58.29-.4-.26-.87-.3l-.56-.05"/><path stroke="#d9dbcc" vector-effect="non-scaling-stroke" d="M59.75 386.96l-1.46.04"/><path stroke="#a9aaab" vector-effect="non-scaling-stroke" d="M59.75 386.96c-.92 4.71-.01 10.26.01 13.58q.03 7.3-.18 14.61a.65.65 0 01-.54.62q-.51.08-1-.27"/><path stroke="#cbcec0" vector-effect="non-scaling-stroke" d="M160.27 456.64q-13.43-.73-26.82.76c-4.66.51-9.16-2.96-13.72-5.61q-12.55-7.31-60.5-33.75-.77-.43-1.44-.29"/><path stroke="#8e8f80" vector-effect="non-scaling-stroke" d="M210.17 292.74c20.74 2.45 41.54 4.95 62.31 7.16a.43.42 3.1 00.47-.42l.16-8.41a.2.19-85.4 00-.17-.21l-86.39-10.69a.45.45 0 00-.51.44l-.06 8.77a.85.84 1.8 00.81.85c7.91.38 16.8 1.74 23.38 2.51"/><path stroke="#101010" vector-effect="non-scaling-stroke" d="M280.04 369.5q.17-.82-.92-1.26a.65.65 0 00-.9.62c.15 5.28-.44 11.04-.41 15.86q.27 33.52-.08 67.2a.83.83 0 00.8.84q.37.01.68-.26"/><path stroke="#5e5e5f" vector-effect="non-scaling-stroke" d="M279.21 452.5l.03.5a.52.52 0 00.57.49l4.44-.45"/><path stroke="#908f8f" vector-effect="non-scaling-stroke" d="M284.25 453.04q1-.42 1.03-2.04c.83-50.65.95-101.28.87-151.94 0-.89.83-7.07-.9-6.52"/><path stroke="#5e5e5f" vector-effect="non-scaling-stroke" d="M285.25 292.54l-3.23-.95a1.37 1.37 0 00-1.75 1.31l-.23 76.6"/><path stroke="#cdcecf" vector-effect="non-scaling-stroke" d="M285.25 292.54q.1 2.85.28 5.71c.12 1.82-1.4 2.96-1.61 4.93-.32 3.02-1.16 5.83-1.16 8.78q.11 69.77 0 139.54 0 1.47 1.49 1.54"/><path stroke="#4e4f50" vector-effect="non-scaling-stroke" d="M279.21 452.5c.41-26.58.13-45.61.84-79.75q.04-1.62-.01-3.25"/><path stroke="#8e8f80" vector-effect="non-scaling-stroke" d="M297.42 302.7q21.43 2.34 42.85 4.83c3.19.37 8.98 1.42 13.6 1.57a.61.61 0 00.63-.61v-6.98a.59.58 3.3 00-.52-.58l-59.79-7.53a.68.68 0 00-.77.67l-.07 7.79a.6.6 0 00.58.6q1.74.05 3.49.24M185.46 335.25l.08 10.75"/><path stroke="#5e5e5f" vector-effect="non-scaling-stroke" d="M185.54 346l-.25 22.75"/><path stroke="#8e8f80" vector-effect="non-scaling-stroke" d="M185.29 368.75l-.54 87.13a.78.77 86.8 00.87.78q3.15-.36 6.88-.42c26.44-.37 52.82-1.66 79.23-2.78a.52.52 0 00.5-.52c.03-48.25.76-97.62 1.11-147.01a1.6 1.59 5.4 00-1.31-1.58q-4.14-.77-9.1-1.24-17.63-1.68-35.19-3.95c-6.33-.81-13.88-1.29-19.06-2.07q-11.14-1.68-22.39-2.34"/><path stroke="#101010" vector-effect="non-scaling-stroke" d="M186.29 294.75l-.38-.81a.79.79 0 00-.75-.46q-.75.02-.79.84-.62 13-1.43 40.46a.65.64-81.7 00.48.65q1.07.27 2.04-.18"/><path stroke="#7e7f71" vector-effect="non-scaling-stroke" d="M186.29 294.75l-.83 40.5"/><path stroke="#cbcec0" vector-effect="non-scaling-stroke" d="M185.29 368.75q.24-.28.26-.64a.39.39 0 01.39-.36h.39a.36.35-.8 01.35.33q.55 10.99-.25 21.95a.87.86 18.4 00.41.8q2.66 1.64 6.68 3.63 46.98 23.26 77.05 37.82a.35.35 0 00.5-.27c1.08-8.85.16-18.87.18-27.85 0-1.78 1.23-2.68-1.02-3.9q-35.8-19.57-71.4-39.58a.7.7 0 01-.33-.81q.99-3.23 4.35-2.76a.85.85 0 00.93-1.09c-.76-2.51-15.3-8.85-18.24-10.02"/><path stroke="#908f8f" vector-effect="non-scaling-stroke" d="M360.62 490.75q-.27.86.05 1.45a.89.89 0 00.7.48l2.28.29a1.24 1.23-86.6 001.39-1.24c-.34-63.02 1.8-125.72 1.11-188.59a.6.6 0 00-.58-.6l-1.87-.05"/><path stroke="#5e5e5f" vector-effect="non-scaling-stroke" d="M363.7 302.49q-.28-.31-1.48-.1a.6.6 0 00-.5.58c-.59 62.62-1.52 125.16-1.1 187.78"/><path stroke="#cdcecf" vector-effect="non-scaling-stroke" d="M363.7 302.49q-.85 10.23-.59 20.49c.14 5.72-.27 11.37-.29 17.09q-.13 46.46-.01 92.93.02 8.77-.18 13.13c-.1 2.06.35 4.32.26 6.47-.51 12.54-.09 25.26-.19 37.85a.47.46 3.3 01-.52.46l-1.56-.16"/><path stroke="#101010" vector-effect="non-scaling-stroke" d="M292.71 351.25q-1.42-.16-1.44 1.25-.47 34.7-.07 62.31.2 13.72-.38 21-.73 9.31.96 16.77"/><path stroke="#8e8f80" vector-effect="non-scaling-stroke" d="M291.78 452.58l19.32-.32"/><path stroke="#5e5e5f" vector-effect="non-scaling-stroke" d="M311.1 452.26l28.43 1.87a.89.88-11.9 01.73.47c1.61 3.11.83 6.59-.01 10.61"/><path stroke="#8e8f80" vector-effect="non-scaling-stroke" d="M340.25 465.21c-.75.79-1.3 1.25-2.47 1.31q-22.47 1.25-44.96 1.96a.59.58 80.3 00-.54.77l.16.5a.58.58 0 00.59.4l59.1-3.19a1.06 1.06 0 001.01-1.06c.42-51.02 1.71-100.02 1.25-151.62a.61.59 3.9 00-.53-.59l-59.58-6.95a.94.94 0 00-1.05.93l-.52 43.58"/><path stroke="#cbcec0" vector-effect="non-scaling-stroke" d="M340.25 465.21q.86.11 1.14.82.22.55.37-.02l.08-.29a.33.32 23 01.48-.19c2.58 1.53 6.23.06 9.18.21a.71.71 0 00.74-.77q-.72-7.76.13-15.7c.17-1.59-.41-2.9-1.91-3.75q-28.57-16.18-57.29-32.11c-.32-.18-.4-.39-.63-.66"/><path stroke="#7e7f71" vector-effect="non-scaling-stroke" d="M292.54 412.75l.17-61.5"/><path stroke="#cbcec0" vector-effect="non-scaling-stroke" d="M311.1 452.26q-8.27-3.97-16.4-8.22-.81-.43-2.41.21"/><path stroke="#4e4f50" vector-effect="non-scaling-stroke" d="M292.54 412.75l-.25 31.5"/><path stroke="#7e7f71" vector-effect="non-scaling-stroke" d="M292.29 444.25q.29 3.75-.51 8.33"/><path stroke="#908f8f" vector-effect="non-scaling-stroke" d="M377.29 320.25l-.25 2.5"/><path stroke="#5e5e5f" vector-effect="non-scaling-stroke" d="M377.04 322.75V334"/><path stroke="#6c6b6b" vector-effect="non-scaling-stroke" d="M377.04 334q-.43 8.2.44 16.57"/><path stroke="#5e5e5f" vector-effect="non-scaling-stroke" d="M377.48 350.57q-.87 3.63-.44 7.43"/><path stroke="#908f8f" vector-effect="non-scaling-stroke" d="M377.04 358l-.58 43.25"/><path stroke="#5e5e5f" vector-effect="non-scaling-stroke" d="M376.46 401.25l-.48 49.71a.98.97-84.4 00.79.97c10.35 2.01 6.67 10.64 7.81 18.28a1.28 1.27 12.1 00.57.87l2.19 1.39q.61.39.63-.34c.31-11.03-3.52-20.26-6.77-30.38-2.22-6.89.21-16.64 1.68-23.27.79-3.58.79-6.62 1.02-10.18.33-5.23 4.35-9.58 9.31-5.8"/><path stroke="#6c6b6b" vector-effect="non-scaling-stroke" d="M393.21 402.5q.7 4.88.39 9.79a1.25 1.24-19.7 01-.4.84q-2.54 2.37-.83 5.46"/><path stroke="#5e5e5f" vector-effect="non-scaling-stroke" d="M392.37 418.59q-1.26 7.72-.17 15.65a1.16 1.16 0 00.54.84l.52.32q.71.44-.11.59c-4.38.8 1.3 10.71 2.15 10.64a.49.49 0 00.43-.61q-1.33-5-1.37-10.21a1.63 1.61 61 01.24-.85q4.06-6.47 11.38-5.87c3.69.31 5.99 3.41 7.57 6.43a1.86 1.83 33.6 01.2.95c-.27 3.31-.41 11.16-2.74 14.67a.85.84-41.3 00-.06.85q2 4.1 6.3 5.97"/><path stroke="#908f8f" vector-effect="non-scaling-stroke" d="M417.25 457.96l1.75.5"/><path stroke="#5e5e5f" vector-effect="non-scaling-stroke" d="M419 458.46q1.62.68 2 2.61 1.8 9.11 3.83 18.27a.65.64 76 00.8.49l2.4-.63a.59.59 0 00.42-.72c-.85-3.24-2.78-4.39-1.58-8.13a1.51 1.51 0 000-.9l-.41-1.26a1.19 1.18 50.7 01.09-.92q3.78-6.79 11.63-6.21c1.46.11 1.95.82 3.19 1.47a.32.32 0 00.47-.3l-.13-5.23"/><path stroke="#6c6b6b" vector-effect="non-scaling-stroke" d="M441.71 457l.17-7"/><path stroke="#5e5e5f" vector-effect="non-scaling-stroke" d="M441.88 450l.33-11"/><path stroke="#908f8f" vector-effect="non-scaling-stroke" d="M442.21 439l.25-2.75"/><path stroke="#5e5e5f" vector-effect="non-scaling-stroke" d="M442.46 436.25l-.36-5.07a.63.63 0 00-.54-.57l-10.72-1.35"/><path stroke="#6c6b6b" vector-effect="non-scaling-stroke" d="M430.84 429.26l-6.63-1.99a1.56 1.55-9.5 01-.78-.55q-4.64-6.21-6.02-14.29"/><path stroke="#5e5e5f" vector-effect="non-scaling-stroke" d="M417.41 412.43c1.5-6.99 7.38-6.51 13.34-6q.7.06.2-.44l-.45-.45"/><path stroke="#101010" vector-effect="non-scaling-stroke" d="M430.5 405.54q1.17-1 1.5-2.5"/><path stroke="#5e5e5f" vector-effect="non-scaling-stroke" d="M432 403.04q5.09 2.15 10.54 2.71"/><path stroke="#101010" vector-effect="non-scaling-stroke" d="M442.54 405.75q.27.43.09.92a.47.46 18.2 00.31.6c.69.2 1.08-.24 1.1-.93q.9-22.05-.53-44.21"/><path stroke="#5e5e5f" vector-effect="non-scaling-stroke" d="M443.51 362.13q-1.03-3.18-1.07-6.57a.58.58 0 00-.51-.56q-7.36-.91-14.65-.05"/><path stroke="#6c6b6b" vector-effect="non-scaling-stroke" d="M427.28 354.95l-23.41.12a2.1 2.09 89.7 00-2.08 2.11q.01 3.02-1.5 6.32"/><path stroke="#101010" vector-effect="non-scaling-stroke" d="M400.29 363.5l.12-2.44a.32.32 0 00-.44-.32l-.68.26"/><path stroke="#5e5e5f" vector-effect="non-scaling-stroke" d="M399.29 361l.17-1"/><path stroke="#6c6b6b" vector-effect="non-scaling-stroke" d="M399.46 360q.95-7.41-1.92-14.25"/><path stroke="#101010" vector-effect="non-scaling-stroke" d="M397.54 345.75q1.25.2 1.5-1"/><path stroke="#5e5e5f" vector-effect="non-scaling-stroke" d="M399.04 344.75q2.32 3.36 2.73 7.45a.52.52 0 00.54.47q20.21-.6 40.44-.05"/><path stroke="#101010" vector-effect="non-scaling-stroke" d="M442.75 352.62q1.85.74 1.71-2.38c-.54-12.31.7-24.44-.19-36.74q-.21-2.83-.01-4.35a.42.42 0 00-.45-.47q-.48.04-.81.36"/><path stroke="#5e5e5f" vector-effect="non-scaling-stroke" d="M443 309.04l-.23-.26a.69.68 65.4 00-.63-.24c-20.83 3.1-41.72 6.61-62.64 8.95q-2.29.26-2.21 2.76"/><path stroke="#4e4f50" vector-effect="non-scaling-stroke" d="M443 309.04q.24 1.33-.23 2.51a.79.77 10.1 01-.71.48c-15.43.21-33.06 7.51-44.5 17.16"/><path stroke="#cdcecf" vector-effect="non-scaling-stroke" d="M397.56 329.19l-5.04-.13a.84.82-12.2 01-.73-.46c-3.37-6.77-7.68-6.99-14.5-8.35"/><path stroke="#4e4f50" vector-effect="non-scaling-stroke" d="M442.75 352.62q.58-13.09.03-25.83a.54.53-1.1 00-.54-.51q-25.01-.07-43.53 16.23a.78.76-31.8 00-.21.85l.54 1.39"/><path stroke="#5c5c5c" vector-effect="non-scaling-stroke" d="M397.54 345.75q-.83-1.6-3.09-1.93"/><path stroke="#4e4f50" vector-effect="non-scaling-stroke" d="M394.45 343.82q-3.94-1.95-7.16 1.68"/><path stroke="#5c5c5c" vector-effect="non-scaling-stroke" d="M387.29 345.5q-8.1 10.86 1.21 20.54"/><path stroke="#4e4f50" vector-effect="non-scaling-stroke" d="M388.5 366.04c5.25 4.42 9.57.12 10.79-5.04"/><path stroke="#5c5c5c" vector-effect="non-scaling-stroke" d="M400.29 363.5l-1.78 3.4a.81.79-49.1 00.05.82q2.05 3.03 4.98 5.28"/><path stroke="#4e4f50" vector-effect="non-scaling-stroke" d="M403.54 373l6.92 6"/><path stroke="#5c5c5c" vector-effect="non-scaling-stroke" d="M410.46 379q7.54 6.37 16.25 11"/><path stroke="#4e4f50" vector-effect="non-scaling-stroke" d="M426.71 390q7.14 4.26 15.24 6.08a.39.39 0 00.48-.39q-.41-16.63 1.08-33.56"/><path stroke="#4e4f50" vector-effect="non-scaling-stroke" d="M442.54 405.75l-.08-6.39a.67.66 7 00-.5-.63c-17.27-4.35-33.14-16.06-45.16-29.13a.74.73-35.1 00-.88-.15q-3.48 1.86-6.8-.3a.57.57 0 00-.78.81q16.6 23.49 43.66 33.08M430.5 405.54l-8.75-3.75"/><path stroke="#5c5c5c" vector-effect="non-scaling-stroke" d="M421.75 401.79l-9.21-5.04"/><path stroke="#4e4f50" vector-effect="non-scaling-stroke" d="M412.54 396.75l-2.54-1.96"/><path stroke="gray" vector-effect="non-scaling-stroke" d="M410 394.79l-2.75-1.58"/><path stroke="#4e4f50" vector-effect="non-scaling-stroke" d="M407.25 393.21c-11.48-8.65-21.66-19.35-25.72-33.5q-1.48-5.18-.77-6.93 3.69-9.02 9.38-16.7"/><path stroke="gray" vector-effect="non-scaling-stroke" d="M390.14 336.08l3.15-3.58"/><path stroke="#4e4f50" vector-effect="non-scaling-stroke" d="M393.29 332.5l1.21-.96"/><path stroke="gray" vector-effect="non-scaling-stroke" d="M394.5 331.54l3.06-2.35"/><path stroke="#cdcecf" vector-effect="non-scaling-stroke" d="M394.5 331.54l-1.3-.37a.44.44 0 00-.55.42q-.01.5.64.91M390.14 336.08q1.4-6.75-3.96-10.77-4.18-3.13-9.14-2.56"/><path stroke="#a9aaab" vector-effect="non-scaling-stroke" d="M394.45 343.82q1.94 4.13 3.31 8.45c.76 2.4.29 4.66.51 7.2a.58.58 0 00.59.53h.6M388.5 366.04q1.4-1.15.18-2.79-6.14-8.19-.04-16.78a.56.56 0 00-.41-.88l-.94-.09"/><path stroke="#cdcecf" vector-effect="non-scaling-stroke" d="M407.25 393.21q-6.88 2.96-13.73.38a1.74 1.73 20.9 01-1.01-2.25q1.25-3.25-1.22-5.56-.9-.85-.61.35.86 3.61-.88 6.93a1.47 1.44 2.7 01-.76.68l-.98.37a.4.4 0 01-.53-.46c1.22-5.57.76-12.11-6.34-12.93a.48.47-32.2 00-.21.92c8.7 2.97 3.92 18.34-2.66 18.1a.53.52-88.9 01-.5-.53q.03-10.65 0-21.3c-.02-5.09.72-12.9.13-19.45a.51.51 0 00-.52-.47l-.39.01"/><path stroke="#a9aaab" vector-effect="non-scaling-stroke" d="M377.48 350.57q.99-7.99.56-16.06a.53.53 0 00-.54-.51h-.46M412.54 396.75q-.82 1.62 1.01 2.5 4.63 2.25 6.46 3.26a1.09 1.08 47.9 00.92.05q.5-.21.82-.77M417.41 412.43q-.74 4.94 1.3 9.61 1.88 4.3 5.53 7.17a2.01 1.98-82.2 01.62.83l.4 1q.25.63.59.05l.84-1.46a.5.49 35.7 01.75-.12q1.86 1.63 3.4-.25"/><path stroke="#cdcecf" vector-effect="non-scaling-stroke" d="M442.46 436.25c-5.77 1.87-8.54 3.02-9.86 9.49a.7.69-88.2 01-.58.55c-5.97.84-13.62 5.13-14.77 11.67"/><path stroke="#a9aaab" vector-effect="non-scaling-stroke" d="M392.37 418.59q3.8-3.87 2.98-8.79c-.43-2.55-.15-4.89-.76-7.3a.53.53 0 00-.64-.38q-.42.1-.74.38M426.71 390q.52-.37.69-.96a.56.56 0 00-.35-.68q-5.79-2.04-10.18-6.28c-1.54-1.49-3.48-2.32-5.11-3.81a.66.65 47.3 00-.82-.04q-.36.27-.48.77M403.54 373q.66.08.98-.35a.62.61 42.1 00-.04-.77l-3.92-4.32a.75.73 41.3 01-.07-.92c2.14-3.19 2.22-5.87 3.73-9.27a.97.95 5.9 01.69-.55q4.14-.85 7.59-.78 7.96.14 14.78-1.09"/><path stroke="#cdcecf" vector-effect="non-scaling-stroke" d="M410 394.79q-6.8 2.63-14.02 1.94-.46-.04-.85-.28l-2.84-1.7a1.15 1.13 49.1 00-.99-.08q-3.66 1.46-8.19 5.68-2.22 2.08-6.22 1.62a.45.45 0 01-.4-.4l-.03-.32M442.21 439l-.48.37a1.38 1.35-64.1 01-.81.29q-5.32.1-6.13 5.44a1.32 1.32 0 001.25 1.52q1.24.05 2.13.9.46.44-.18.43c-8.95-.03-15.24 2.04-18.99 10.51"/><path stroke="#a9aaab" vector-effect="non-scaling-stroke" d="M441.88 450q-.52-.54-.96-.5a.49.49 0 00-.45.5l.18 7.05a.32.32 0 00.47.27l.59-.32"/><path stroke="#6c6b6b" vector-effect="non-scaling-stroke" d="M389.64 406.78l.47.45q.67.65.73-.28l.16-2.76a1.2 1.2 0 00-1.73-1.14q-2.11 1.06-3.13 3.16-.32.65.41.55l2.13-.29a1.15 1.13-26.7 01.96.31"/><path stroke="#5e5e5f" vector-effect="non-scaling-stroke" d="M425.25 424.79q7.98 3.08 16.57 3.33a.5.49.6 00.51-.49c.06-3.98 1.03-10.53-.12-14.16q-.24-.75-.5 0-.5 1.48.04 2.95a.57.56 72.4 01-.38.74q-2.15.59-4.16-.16"/><path stroke="#6c6b6b" vector-effect="non-scaling-stroke" d="M437.21 417l.05-5.64a.49.49 0 01.58-.47l3.76.71a.56.56 0 00.66-.57c-.08-2.06-16.56-2.27-19.12-2.18a1.25 1.25 0 00-1.21 1.14c-.52 5.49-.96 9.88 3.32 14.8"/><path stroke="#a9aaab" vector-effect="non-scaling-stroke" d="M437.21 417q-1.57.34-1.92-1.5"/><path stroke="#6c6b6b" vector-effect="non-scaling-stroke" d="M435.29 415.5q-.54-2.14-.11-4.45a.64.64 0 00-.53-.75l-3.59-.59a.63.62 3.7 00-.73.64l.17 5.19"/><path stroke="#a9aaab" vector-effect="non-scaling-stroke" d="M430.5 415.54l-.17.48a.5.5 0 01-.63.31q-.89-.3-1.16-1.33"/><path stroke="#6c6b6b" vector-effect="non-scaling-stroke" d="M428.54 415l-.25-4.6a.61.6-88.3 00-.53-.57l-4.01-.53a.57.56-88.4 00-.64.61l.43 5.34"/><path stroke="#a9aaab" vector-effect="non-scaling-stroke" d="M423.54 415.25l-.59.92a1.33 1.32 57.5 00-.19.87q.51 3.84 3.25 6.55a.63.62-48.5 01.05.85q-.3.36-.81.35"/><path stroke="#5e5e5f" vector-effect="non-scaling-stroke" d="M435.29 415.5q-2.39.58-4.79.04M428.54 415l-5 .25M389.25 432.72a.22.22 0 00.32-.19c.03-1.76.98-12.43-.93-12.53a.56.55 3.8 00-.58.5c-.29 2.55-1.46 10.89 1.19 12.22"/><path stroke="#6c6b6b" vector-effect="non-scaling-stroke" d="M398.55 434.67c6.03-.82 11.91-.8 11.63 6.86a.32.32 0 00.63.07q1.2-6.02-3.08-9.91a1.54 1.53-22.9 00-1.02-.41q-4.71-.12-8.51 2.49a.5.49 23.9 00.35.9"/><path stroke="#5e5e5f" vector-effect="non-scaling-stroke" d="M409.5 450.52q.86-.12.08-2.03-.57-1.37-.58.11l-.01 1.48a.45.44-3.9 00.51.44M401.95 453.19q3.81.55 7.42 1.71a.13.13 0 00.14-.03l.18-.19a.12.12 0 00-.04-.2l-8.05-2.9a.46.46 0 00-.61.52q.17.97.96 1.09"/><path stroke="#6c6b6b" vector-effect="non-scaling-stroke" d="M376.53 456.09l3.71 1.27a1.18 1.17-87.3 01.76.84l1.22 5.35a.17.17 0 00.23.12c.62-.26-.28-4.23-.41-4.87-.51-2.52-5.99-6.98-6.14-3.64a.94.92-79.7 00.63.93"/><path stroke="#908f8f" vector-effect="non-scaling-stroke" d="M302.49 458.59c.61-.02 4.83.7 4.25-1.1a.84.83 83.8 00-.69-.56c-4.89-.54-10.49.22-14.46.26-7.98.08-16.31.99-23.79 1.09-21.71.3-43.32 2.17-65.04 2.65-32.14.71-64.23 2.37-96.36 2.97a.47.46-43.3 00-.03.93c20.74 1.55 41.07.65 61.94-.54 3.35-.2 6.75-.74 9.93-.83 13.7-.37 26.94-.66 41.05-1.56 15.43-.99 25.42-.77 37.73-1.42 15.16-.8 30.85-1.5 45.47-1.89"/><path stroke="#6c6b6b" vector-effect="non-scaling-stroke" d="M296.94 463.56q19.57-.32 39.07-2.24.51-.05 0-.08c-10.45-.48-23.88.76-31.18.97-14.59.42-27.91.86-43.83 2.24-13 1.14-28.49 1.28-43.54 2.13-28.8 1.63-58.32 2.76-87.46 4.09a.66.66 0 00-.63.66l-.01.43a.57.57 0 00.59.57q14.21-.45 19.87-1c8.15-.78 17.7-.91 23.16-1.23q26.5-1.58 53.03-2.41 3.76-.12 15.24-1.17c10.08-.92 27.59-.36 41.39-1.81q10.25-1.08 14.3-1.15"/><path stroke="#5e5e5f" vector-effect="non-scaling-stroke" d="M421.98 480.88a.33.32-44.6 00.53 0c.7-.97-3.32-16.25-3.83-18.55a.06.05 7 00-.05-.05l-.27-.04a.2.19 1.1 00-.23.22q.67 4.88 1.94 9.63c.84 3.15-.25 5.69 1.91 8.79M430.25 466.71c3.63-1.65 6.35-1.46 9.5-1.06q.57.07.3-.44-.52-.99-2.01-1.44-5.57-1.68-8.01 2.7-.25.45.22.24"/><path stroke="#101010" vector-effect="non-scaling-stroke" d="M279.29 470.5q-.94-1.01-1.87-.3a.89.88-20.8 00-.35.76q.77 13.39.31 26.79a1.34 1.33 6.9 001.07 1.35q.29.06.84-.6"/><path stroke="#5e5e5f" vector-effect="non-scaling-stroke" d="M279.29 498.5l.29.72a1.18 1.16 89.2 00.63.62q3.27 1.3 4.82-1.49"/><path stroke="#6c6b6b" vector-effect="non-scaling-stroke" d="M285.03 498.35l-.5-28.64"/><path stroke="#5e5e5f" vector-effect="non-scaling-stroke" d="M284.53 469.71l-4.28-.1a.78.76-74 00-.68.39l-.28.5"/><path stroke="#a9aaab" vector-effect="non-scaling-stroke" d="M284.53 469.71q-1.18 12.12-.47 24.23.07 1.12-.3 3.38a.74.74 0 00.37.76q.4.22.9.27"/><path stroke="#4e4f50" vector-effect="non-scaling-stroke" d="M279.29 498.5q.04-5.9-.21-11.79c-.02-.48.32-1.17.31-1.52q-.22-7.34-.1-14.69"/><path stroke="#908f8f" vector-effect="non-scaling-stroke" d="M271.914 470.478a.61.61 0 00-.642-.576l-86.014 4.658a.61.61 0 00-.576.642l.024.44a.61.61 0 00.642.576l86.014-4.658a.61.61 0 00.576-.642l-.024-.44"/><path stroke="#5e5e5f" vector-effect="non-scaling-stroke" d="M387.24 475.692a2.45.52 34.9 00-1.713-1.829 2.45.52 34.9 00-2.306-.975 2.45.52 34.9 001.712 1.829 2.45.52 34.9 002.306.975"/><path stroke="#6c6b6b" vector-effect="non-scaling-stroke" d="M170.46 490.75l-.01 13.32"/><path stroke="#5e5e5f" vector-effect="non-scaling-stroke" d="M170.45 504.07l-.14 4.39a.56.56 0 00.51.58l5.14.48a.79.79 0 00.87-.75q.77-15.84.54-31.52c-.01-.62.21-1.12.29-1.72a.46.46 0 00-.45-.53h-6.15a.6.59 0 00-.6.59v15.16"/><path stroke="#a9aaab" vector-effect="non-scaling-stroke" d="M170.45 504.07q2.13-4.68 1.21-9.76-.08-.45-.02-.9l.41-3.28a.47.47 0 00-.7-.47q-.98.54-.89 1.09"/><path stroke="#6c6b6b" vector-effect="non-scaling-stroke" d="M89.32 234.85c-2.16-12.09-12.93-25.54-26.57-18.37Q43 226.87 38.6 249.63a1.06 1.06 0 001.36 1.22l49.03-15.46a.49.48-13.9 00.33-.54"/><path stroke="#cdcecf" vector-effect="non-scaling-stroke" d="M479.42 254.35l.45-.41a.46.46 0 00-.01-.69l-1.78-1.52q-.58-.51-.56.27.21 7.38-.03 14.75-.04 1.43.87 1.66a.73.72 6.3 00.89-.71l-.15-12.61a1.02 1.01 68.5 01.32-.74"/><path stroke="#4e4f50" vector-effect="non-scaling-stroke" d="M395.59 340.91q.15.07.34.11a1.08 1.06-60 00.89-.25c12.16-10.56 29.31-18.06 45.65-17.14a.51.5-88.4 00.53-.51l-.01-8.04a.59.58 87.8 00-.63-.59c-19.85 1.63-37.85 9.14-51.08 24.69q-1.36 1.6.74 1.58l2.88-.02q.36 0 .69.17"/><path stroke="#a9aaab" vector-effect="non-scaling-stroke" d="M553.67 496.78q.16.3.56.17a1.27 1.25 4.2 00.78-.66l.84-1.7a.79.79 0 00-.37-1.06q-.97-.46-2.15-.28a1.5 1.5 0 00-1.19 1.98q.34.96 1.28 1.32a.56.51 85.2 01.25.23M566.43 494.63q1.91.88 3.81.16.88-.33-.06-.4c-1.83-.13-7.64-2.46-7.64.74a.69.69 0 00.41.63q1.73.75 2.58-.83a.7.7 0 01.9-.3"/><path stroke="#fdfff0" vector-effect="non-scaling-stroke" d="M589.94 591l-.19-.71"/><path stroke="#8e8f80" vector-effect="non-scaling-stroke" d="M577.19 591q-4.75-.63-9.5 0"/><path stroke="#cbcec0" vector-effect="non-scaling-stroke" d="M24.44 591q-3.38-.63-6.75 0"/><path stroke="#8e8f80" vector-effect="non-scaling-stroke" d="M12.44 591q-5.63-.63-11.25 0"/></g><path d="M0 0h590.06l.19.29v589.67l-.5.33-588.93-.23a.34.34 0 00-.32.47l.19.47H0V0zm586.25 4.57a.32.32 0 00-.32-.32H4.57a.32.32 0 00-.32.32v581.36a.32.32 0 00.32.32h581.36a.32.32 0 00.32-.32V4.57z"/><path fill="#201f1f" d="M590.06 0h.94v587.56c-.84-.45-.25-537.29-.25-587.06a.25.24-86.1 00-.21-.25q-.17-.02-.29.04l-.19-.29z"/><path fill="#fbfee1" d="M590.25.29q.12-.06.29-.04a.25.24-86.1 01.21.25c0 49.77-.59 586.61.25 587.06v2.75l-.75-.35V.29zM586.25 585.93a.32.32 0 01-.32.32H4.57a.32.32 0 01-.32-.32V4.57a.32.32 0 01.32-.32h581.36a.32.32 0 01.32.32v581.36zM97.31 38.73c-12.79-.73-25.47-.38-38.25-.24q-9.69.1-13.45 1.35c-11.83 3.93-12.38 13.74-12.54 25.92q-.23 17.3.01 34.92a1.51 1.51 0 002.56 1.06q27.73-27.11 55.64-54.96 3.49-3.49 6.48-7.02a.63.63 0 00-.45-1.03zm408.38 55.54l.17-.77q.2-.94-.31-.13-1.07 1.68.39 3.12.29.28.46.64.44.91 1.41 1.36.81.37.27-.35l-2.18-2.92a1.19 1.18 32.9 01-.21-.95zM482 491.21c13.19 1.18 25.71 1.6 37.17 2.84 2.05.23 4.02 1.2 6.15 1.59q11.03 2.06 22.25 2.19c6.02.07 9.76.84 15.29-.5 4.31-1.04 7.89-.85 12.14-.85a1 1 0 001-1.02c-.04-2.34-10.43-3.41-12.31-3.46-26.13-.73-53.19 1.79-79.18-5.33l.2-5.67-.17-4.25c1.27-49.78.56-99.53 1.47-149.33.46-24.53.3-49.07.79-73.62a.63.62-5.2 01.51-.6c13.83-2.89 27.87-4.98 41.67-7.71 7.52-1.49 11.52-7.04 11.52-14.74q.03-36.39-.03-72.77c-.01-5.86 1.03-17.88-5.57-20.28q-4.37-1.59-8.61-3.55c-6.18-2.86-9.82-.62-15.79.62q-33.42 6.91-66.61 14.81c-7.18 1.71-25.01 3.89-27.35 12.44q-.79 2.9-.8 5.73-.15 34.64.85 73.59c.23 9.26-.86 14.34 7.15 18.11 7.98 3.75 12.19 3.13 20.51 1.28q5.5-1.23 26.22-4.6a.43.43 0 01.5.42q-.16 51.35-.81 102.7c-.52 41.89-.24 83.78-.88 125.68-.11 7.52 7.35 6.96 12.72 6.28zM55.25 527.46q4.31 2 8.25 2.33c17.47 1.43 35.03.19 52.61 1.41q54.17 3.75 108.32 7.66 9.66.7 14.32.17c100.38-11.56 200.82-22.26 301.25-33.69a.24.24 0 00-.02-.47q-12.74-.38-25.57-1.05c-10.81-.57-24.58-.77-37.66-1.56q-13.23-.8-41.73-1.42-.63-4.33 0-9.11a.48.48 0 01.52-.41l10.97.95a1.42 1.36 28.2 00.93-.26q1.39-1.01 1.81-2.72.72-1.02.72-2.29-.01-76.38.74-152.75.35-13.91.51-27.83c.03-2.64-.37-5.01-1.36-7.23a1.75 1.75 0 00-2.04-.97q-4.78 1.28-9.6 1.91-32.16 4.18-64.21 9a.48.47-5 01-.54-.45l-.21-4.8a.63.63 0 01.55-.65l76.03-10.15a.69.68-89.9 00.58-.59c1.7-12.58-9.9-21.83-20.71-24.61-13.79-3.55-30.48-5.55-41.38-7.37C288.31 243.78 188.16 228 88.24 210.67c-5.74-.99-13.95-3.09-19.15-2.67-19.74 1.58-34.04 25.55-37.33 42.48q-1.23 6.39 4.01 10.72a1.06 1.03-70.8 01.38.81q.54 51.38-.67 102.75c-1.21 51.32-.18 102.92-.42 154.28-.01 2.48-.63 5.21 1.73 6.89q8.34 5.92 18.46 1.53z"/><path fill="#fae6ac" d="M97.31 38.73a.63.63 0 01.45 1.03q-2.99 3.53-6.48 7.02-27.91 27.85-55.64 54.96a1.51 1.51 0 01-2.56-1.06q-.24-17.62-.01-34.92c.16-12.18.71-21.99 12.54-25.92q3.76-1.25 13.45-1.35c12.78-.14 25.46-.49 38.25.24zM505.9 95.22l2.18 2.92q.54.72-.27.35-.97-.45-1.41-1.36-.17-.36-.46-.64-1.46-1.44-.39-3.12.51-.81.31.13l-.17.77a1.19 1.18 32.9 00.21.95z"/><path fill="#201f1f" d="M484.54 476.75q-.75 2.18.17 4.25l-.2 5.67q-.23 3.1-3.21 4.12-.23.08 0 .16l.7.26c-5.37.68-12.83 1.24-12.72-6.28.64-41.9.36-83.79.88-125.68q.65-51.35.81-102.7a.43.43 0 00-.5-.42q-20.72 3.37-26.22 4.6c-8.32 1.85-12.53 2.47-20.51-1.28-8.01-3.77-6.92-8.85-7.15-18.11q-1-38.95-.85-73.59.01-2.83.8-5.73c2.34-8.55 20.17-10.73 27.35-12.44q33.19-7.9 66.61-14.81c5.97-1.24 9.61-3.48 15.79-.62q4.24 1.96 8.61 3.55c6.6 2.4 5.56 14.42 5.57 20.28q.06 36.38.03 72.77c0 7.7-4 13.25-11.52 14.74-13.8 2.73-27.84 4.82-41.67 7.71a.63.62-5.2 00-.51.6c-.49 24.55-.33 49.09-.79 73.62-.91 49.8-.2 99.55-1.47 149.33zm-41.89-319.11c-6.86 1.59-19.79.57-19.76 10.93q.08 34.59.32 69.18c.01.54.24 10.23 1.69 11.72 1.7 1.76 14.02-.71 17.91-1.43 20.22-3.74 40.51-7.06 60.76-10.68 7.31-1.31 17.87-.12 18.29-10.88q.25-6.29-.07-16.04-.39-12.15.21-57.75c.07-5.55.6-9.34-3.93-11.86a1.07 1.06 49.2 00-.91-.07c-4.15 1.57-9.65 2.22-12.7 2.9q-30.94 6.86-61.81 13.98zm86.4-14.45c.29 25.65-.11 50.67.29 76.99.05 3.11-.35 7.05-.17 10.56.19 3.52-.57 5.71-3.81 7.07a.19.17-13.4 00-.11.16l-.01.33a.28.28 0 00.37.27q3.8-1.17 6.51-4.01a1.35 1.34-23.8 00.37-.95c-.11-25.07.18-50.22.27-75.3.01-4.28-.36-9.58-.27-14.39a.76.76 0 00-.61-.77l-2.24-.45a.49.49 0 00-.59.49zm-53.01 127.06l.25 5.5-.25 56.25q-.59 14.65-.73 29.31-.52 57.81-.78 115.63-.02 5.01-.32 8.15a1.34 1.34 0 00.24.91q.75 1.07 2.05.46l1.22.3a1.39 1.38-82.8 001.72-1.34c.1-28.12 1.03-56.18 1.01-84.23-.03-43.62.06-87.23.34-130.85q.02-3.25.34-7.67c.27-3.88-.47-7.78.2-9.91a1.41 1.36-49.1 00-.05-.93c-.86-2.06-5.24-2.67-5.24.41v18.01z"/><path fill="#fff" d="M422.89 168.57c-.03-10.36 12.9-9.34 19.76-10.93q30.87-7.12 61.81-13.98c3.05-.68 8.55-1.33 12.7-2.9a1.07 1.06 49.2 01.91.07c4.53 2.52 4 6.31 3.93 11.86q-.6 45.6-.21 57.75.32 9.75.07 16.04c-.42 10.76-10.98 9.57-18.29 10.88-20.25 3.62-40.54 6.94-60.76 10.68-3.89.72-16.21 3.19-17.91 1.43-1.45-1.49-1.68-11.18-1.69-11.72q-.24-34.59-.32-69.18zm9.76.87l-.2 70.29a.46.46 0 00.55.45l78.6-15.01a.69.69 0 00.57-.67c.29-24.05-.19-48.29.76-72.41a.62.61 85.6 00-.73-.63c-10.31 2.07-20.64 4.55-30.64 6.47q-24.26 4.65-48.08 10.46a1.08 1.08 0 00-.83 1.05zm-5.5 47.13l3.57-1.12a.4.39 82.3 00.28-.38v-.31a.39.38 85 00-.45-.38q-2.09.36-3.71 1.57a.35.35 0 00.31.62z"/><path fill="#b7b7b7" d="M529.34 220.18c-.4-26.32 0-51.34-.29-76.99a.49.49 0 01.59-.49l2.24.45a.76.76 0 01.61.77c-.09 4.81.28 10.11.27 14.39-.09 25.08-.38 50.23-.27 75.3a1.35 1.34-23.8 01-.37.95q-2.71 2.84-6.51 4.01a.28.28 0 01-.37-.27l.01-.33a.19.17-13.4 01.11-.16c3.24-1.36 4-3.55 3.81-7.07-.18-3.51.22-7.45.17-10.56z"/><path fill="#9b9d9f" d="M432.65 169.44a1.08 1.08 0 01.83-1.05q23.82-5.81 48.08-10.46c10-1.92 20.33-4.4 30.64-6.47a.62.61 85.6 01.73.63c-.95 24.12-.47 48.36-.76 72.41a.69.69 0 01-.57.67L433 240.18a.46.46 0 01-.55-.45l.2-70.29zm68.64 22.38c-.11-2.71 3.19-2.7 5-2.83a1.55 1.54 89.2 001.44-1.49c.14-4.34-6.12.47-6.45-2.74a.93.92 71.3 01.42-.86l1.73-1.13a1.11 1.07-16.6 00.5-.89l.17-10.77a.8.8 0 00-.61-.79c-5.03-1.22-5.42 7.42-6.28 10.73a.44.44 0 01-.59.31q-13.94-5.35-28.65-1.99c-11.31 2.58-23.47 7.04-28.62 18.08-3.77 8.1 6.39 13.14 12.72 13.4a1.13 1.11 71.3 01.82.41c1.69 2.05 2.52 5.9 3.77 8.26a.75.74-19.6 00.82.39l14.6-3.02a1.64 1.61 12.8 00.97-.6q.73-.92.34-1.78a1.46 1.43 40.9 01-.08-.96l1.21-4.66a.92.91-5 01.51-.6c8.06-3.63 14.18-5.41 21.03-10.56a.56.56 0 01.88.3l2.03 7.36a.61.61 0 00.67.44l3.42-.43a.68.67-4.7 00.59-.69l-.21-11.58a.63.62 2.6 00-.56-.61l-1.06-.13a.6.6 0 01-.53-.57z"/><path fill="#fff" d="M501.82 192.39l1.06.13a.63.62 2.6 01.56.61l.21 11.58a.68.67-4.7 01-.59.69l-3.42.43a.61.61 0 01-.67-.44l-2.03-7.36a.56.56 0 00-.88-.3c-6.85 5.15-12.97 6.93-21.03 10.56a.92.91-5 00-.51.6l-1.21 4.66a1.46 1.43 40.9 00.08.96q.39.86-.34 1.78a1.64 1.61 12.8 01-.97.6l-14.6 3.02a.75.74-19.6 01-.82-.39c-1.25-2.36-2.08-6.21-3.77-8.26a1.13 1.11 71.3 00-.82-.41c-6.33-.26-16.49-5.3-12.72-13.4 5.15-11.04 17.31-15.5 28.62-18.08q14.71-3.36 28.65 1.99a.44.44 0 00.59-.31c.86-3.31 1.25-11.95 6.28-10.73a.8.8 0 01.61.79l-.17 10.77a1.11 1.07-16.6 01-.5.89l-1.73 1.13a.93.92 71.3 00-.42.86c.33 3.21 6.59-1.6 6.45 2.74a1.55 1.54 89.2 01-1.44 1.49c-1.81.13-5.11.12-5 2.83a.6.6 0 00.53.57zm-31.123 20.615a1.73 1.24 106.9 001.69-1.294 1.73 1.24 106.9 00-.684-2.016 1.73 1.24 106.9 00-1.69 1.294 1.73 1.24 106.9 00.684 2.016zm-5.247.435a.87.87 0 001.26.61q1.7-.9 1.36-2.99a.74.73-7.8 00-.81-.61q-2.31.28-1.81 2.99zm-1.91.93l.62-2.57q.23-.93-.66-.59l-2.36.92a1.17 1.16-88 00-.65.61q-.97 2.16 1.11 2.76a1.55 1.55 0 001.94-1.13zm-5.129-1.2a.81.81 0 00-.705-.902l-.575-.07a.81.81 0 00-.903.705l-.22 1.786a.81.81 0 00.706.903l.575.07a.81.81 0 00.903-.705l.22-1.786z"/><path fill="#201f1f" d="M450.71 334.25q.18-2.86-.71-4.42-1.12-1.96-1.12.29.03 35.41-.17 70.19c-.18 29.29.16 58.53-.77 87.81a.93.91 18.4 00.41.8q.4.28.9.37-.42 1.71-1.81 2.72a1.42 1.36 28.2 01-.93.26l-10.97-.95a.48.48 0 00-.52.41q-.63 4.78 0 9.11l-.21 2.32a.53.53 0 01-.58.48l-26.98-2.85q-13.41-1.73-26.91-2.43c-1.75-.09-2.11-.9-1.91-2.54l.07-1.03.23-.13a.39.37-15 00.2-.33l.08-9.32a.7.69-89.6 00-.69-.71l-4.86-.04a.65.64.4 00-.66.64l-.05 11.06-.5 2.25c-3.5 1.46-19.01 3.97-19-2.98q.03-11.38-.04-22.61a.49.48-.6 00-.5-.48q-23.46.41-46.86 2.26c-3.93.31-8.44.28-12.7.62a.6.58-88.7 00-.53.52l-.37 3q-.42-.47-1-.21a.85.85 0 00-.49.77l-.16 24.3a1.26 1.23 24.3 00.33.84q.26.29.57.3c-3.58 3.55-8.43 2.65-13 2.75-2.48-1.5-6.88-2.24-6.76-5.8q.45-13.59.16-24.61a.53.53 0 00-.52-.52c-6.17-.2-12.95.84-18.35.93q-9.23.16-16.09.67c-18.24 1.35-34.91 1.78-51.31 3.16a.56.56 0 00-.52.55l-.32 28.83q.11 2.25-.92 4.16a1.42 1.4-86.7 01-.7.63q-7.81 3.2-15.9.66c-5.83-1.82-4.41-6.34-4.56-10.95l.23-21.94a.52.51 1.1 00-.51-.52q-7.46-.18-10.43.02c-19.23 1.31-38.42 1.89-57.72 3.24-11.93.84-23.9 1-35.82 2a.71.7-1.8 00-.65.69l-.35 34.01-2.21 4.96q-10.12 4.39-18.46-1.53c-2.36-1.68-1.74-4.41-1.73-6.89.24-51.36-.79-102.96.42-154.28q1.21-51.37.67-102.75a1.06 1.03-70.8 00-.38-.81q-5.24-4.33-4.01-10.72c3.29-16.93 17.59-40.9 37.33-42.48 5.2-.42 13.41 1.68 19.15 2.67 99.92 17.33 200.07 33.11 300.09 49.84 10.9 1.82 27.59 3.82 41.38 7.37 10.81 2.78 22.41 12.03 20.71 24.61a.69.68-89.9 01-.58.59l-76.03 10.15a.63.63 0 00-.55.65l.21 4.8a.48.47-5 00.54.45q32.05-4.82 64.21-9 4.82-.63 9.6-1.91a1.75 1.75 0 012.04.97c.99 2.22 1.39 4.59 1.36 7.23q-.16 13.92-.51 27.83zM86.05 221.7c-9.46-12.29-21.48-11.09-32.19-1.33q-14.91 13.57-18.24 33.62a.32.31-3.6 00.4.35q27.83-8.21 55.67-16.54 1.44-.43 1.68-1.34c.83-3.27-5.47-12.37-7.32-14.76zm27.27 12.12q10.89 2.4 22.18 3.39 14.63 2.48 29.28 4.91c5.46.91 12.83 1.41 19.22 2.75a1.09 1.08 32.8 00.89-.19l1.38-1.05 4.98-3.84 5.06-2.68a.4.4 0 00-.12-.75l-93.67-15.83q-1.65-.28-.62 1.03 3.95 5.05 5.89 11.16a.79.78-5.1 00.66.55l4.87.55zm-20.86 11.43l-23.38 6.37a.24.24 0 00.05.47c12.81 1.03 25.61 3.02 38.37 4.62 14.79 1.62 29.23 4.08 44.21 5.85q8.41 1 16.77 2.36a.69.68-71.3 00.7-.35q3.63-6.94 8.56-12.98.36-.45-.21-.54-29.43-4.26-58.78-9.04c-4.23-.68-8.01-1.39-12.31-.48q-7.09 1.51-13.98 3.72zM247 248.54l4.56 6.28a1.18 1.17-13.1 00.75.46l43.88 6.85a1.58 1.58 0 00.9-.13q3.61-1.76 6.66-4.46l4.31-2.38q.54-.29-.07-.41c-22.04-4.23-43.86-7.27-65.72-10.83q-.54-.09-.13.28l4.86 4.34zm-38.1-.28a.34.34 0 00.11.64l16.11 2.23a.34.34 0 00.28-.58l-7.28-6.75a.34.34 0 00-.38-.05l-8.84 4.51zm-2.15 21.7l32 4.25 42.01 5.31a.9.89 22.5 00.81-.33c2.93-3.7 4.92-7.21 8.74-10.07a.49.49 0 00-.23-.88l-8.83-1.2-57.5-8.83q-3.26-.98-6.43-.61-5.12-1.57-10.46-1.61l-5.73-1.01a.96.95 22.8 00-.95.38l-8.51 11.74a.42.41 22 00.28.65l14.8 2.21zm121.75-9.17q-4.61 1.33-8.87 3.71-.46.26 0 .51 1.51.85 4.32 1.32 13.26 2.17 26.8 3.89.5.06.28-.39-1.85-3.87-5.29-5.93-7.41-7.17-17.24-3.11zm-284.82 2.63c-.18 40.66-.13 81.23-.72 121.83q.05-1.56-.52-2.19a.7.69 24.6 00-1.21.45c-1 43.85.01 88.73-1.05 133.55a.62.62 0 00.9.57q.94-.48 1.13-1.13l.09 3.7a.8.8 0 00.46.71q1.88.88 3.99.8 1.67.64 3.23-.04a.78.76 78.5 00.46-.71q.12-104.45 1.3-208.9.17-15.01-.13-48.39a.68.66 8.1 00-.49-.64q-3.75-1.07-7.44.39zm20.1 1.38c-1.05-.12-2.73-.57-4.18-.46a.65.64-2.9 00-.6.65l.01 9.9a.52.52 0 00.46.52q6.37.73 12.74 1.26c10.88.91 22.38 2.6 33.55 3.81q14.36 1.55 58.26 6.91a.48.47 3.9 00.53-.46l.16-8.9a.7.69-85.8 00-.6-.7q-50.12-6.7-100.33-12.53zm306.76 3.41l2.12 5.24a1.11 1.08 87.9 00.66.63c4.87 1.69 7.55-.37 11.18-3.04l5.93-2.5a.44.43-52 00-.1-.83l-22.53-3.53q-.8-.13-.27.49l3.01 3.54zm-65.04 14.5l24 3.08 28.95 3.95 5.34.83a.8.79-65.2 00.73-.27l7.52-8.81a.23.23 0 00-.13-.37c-18.27-3.66-37-5.83-55.41-8.91l-6.27-.75a1.07 1.06 25.2 00-.91.32l-9.04 9.51a.4.39 32.9 00.14.64q2.49 1 5.08.78zM171.54 300q-.53 6.06-.33 12.12c.21 6.2-.51 13 .21 19.55a1.61 1.56-35.5 01-.16.88q-.15.32-.15.51-.36 40.1-.32 80.19l-.22 43.19a.49.49 0 00.49.5l1.19.02 1.98-.3c2.09.8 3.53.84 3.51-1.85q-.34-60.54.8-121.06.15.71.62 1.36.32.43.51-.07c1.34-3.49.59-6.74.58-9.77q-.06-22.48-.27-44.96 0-.89-.21-1.78a.6.59-10.5 00-.67-.45q-.32.05-.6.46l-5.21-.04q-.56-.49-1.04-.36a.71.71 0 00-.52.67q-.06 6.31-.37 12.63c-.06 1.21.51 1.96.27 3.25-.41 2.19-.2 3.32-.09 5.31zM58.29 387l-.25 28.5-.25 2.25-.02 64.95a.46.46 0 00.49.46c14.54-1.04 28.69-1.5 43.64-2.55q13.58-.95 27.19-1.29c3.97-.1 8.38-.69 12.61-.84 6.21-.21 13.09-1.38 19.8-.91q1.88.14 2.07-1.44a.48.48 0 00-.45-.54q-3.9-.26-6.12-.05-13.99 1.29-28.04 1.69c-7.25.2-15.05-1.67-21.71-1.96Q98 474.87 81 472.7q-1.95-.25-2.91-1.2a1.16 1.16 0 01-.34-.82v-8.92a.74.73-5.8 01.59-.72c5.57-1.11 11.79-.42 17.51-.75q11.45-.67 12.32-.7 26.05-.94 52.1-2.95 1.4.3 2.84.02a.65.64-5.4 00.53-.63l-.04-4.42.44-57.61.42-59.75.25-41.66a.64.63-86.4 00-.55-.63q-50.07-6.04-99.89-11.43c-1.38-.15-3.17-.86-4.77-.78a.53.53 0 00-.5.54q.25 50.89-1.03 101.7-.04 1.68.32 5.01zm151.88-94.26c20.74 2.45 41.54 4.95 62.31 7.16a.43.42 3.1 00.47-.42l.16-8.41a.2.19-85.4 00-.17-.21l-86.39-10.69a.45.45 0 00-.51.44l-.06 8.77a.85.84 1.8 00.81.85c7.91.38 16.8 1.74 23.38 2.51zm69.87 76.76q.17-.82-.92-1.26a.65.65 0 00-.9.62c.15 5.28-.44 11.04-.41 15.86q.27 33.52-.08 67.2a.83.83 0 00.8.84q.37.01.68-.26l.03.5a.52.52 0 00.57.49l4.44-.45q1-.42 1.03-2.04c.83-50.65.95-101.28.87-151.94 0-.89.83-7.07-.9-6.52l-3.23-.95a1.37 1.37 0 00-1.75 1.31l-.23 76.6zm17.38-66.8q21.43 2.34 42.85 4.83c3.19.37 8.98 1.42 13.6 1.57a.61.61 0 00.63-.61v-6.98a.59.58 3.3 00-.52-.58l-59.79-7.53a.68.68 0 00-.77.67l-.07 7.79a.6.6 0 00.58.6q1.74.05 3.49.24zm-111.96 32.55l.08 10.75-.25 22.75-.54 87.13a.78.77 86.8 00.87.78q3.15-.36 6.88-.42c26.44-.37 52.82-1.66 79.23-2.78a.52.52 0 00.5-.52c.03-48.25.76-97.62 1.11-147.01a1.6 1.59 5.4 00-1.31-1.58q-4.14-.77-9.1-1.24-17.63-1.68-35.19-3.95c-6.33-.81-13.88-1.29-19.06-2.07q-11.14-1.68-22.39-2.34l-.38-.81a.79.79 0 00-.75-.46q-.75.02-.79.84-.62 13-1.43 40.46a.65.64-81.7 00.48.65q1.07.27 2.04-.18zm175.16 155.5q-.27.86.05 1.45a.89.89 0 00.7.48l2.28.29a1.24 1.23-86.6 001.39-1.24c-.34-63.02 1.8-125.72 1.11-188.59a.6.6 0 00-.58-.6l-1.87-.05q-.28-.31-1.48-.1a.6.6 0 00-.5.58c-.59 62.62-1.52 125.16-1.1 187.78zm-67.91-139.5q-1.42-.16-1.44 1.25-.47 34.7-.07 62.31.2 13.72-.38 21-.73 9.31.96 16.77l19.32-.32 28.43 1.87a.89.88-11.9 01.73.47c1.61 3.11.83 6.59-.01 10.61-.75.79-1.3 1.25-2.47 1.31q-22.47 1.25-44.96 1.96a.59.58 80.3 00-.54.77l.16.5a.58.58 0 00.59.4l59.1-3.19a1.06 1.06 0 001.01-1.06c.42-51.02 1.71-100.02 1.25-151.62a.61.59 3.9 00-.53-.59l-59.58-6.95a.94.94 0 00-1.05.93l-.52 43.58zm84.58-31l-.25 2.5V334q-.43 8.2.44 16.57-.87 3.63-.44 7.43l-.58 43.25-.48 49.71a.98.97-84.4 00.79.97c10.35 2.01 6.67 10.64 7.81 18.28a1.28 1.27 12.1 00.57.87l2.19 1.39q.61.39.63-.34c.31-11.03-3.52-20.26-6.77-30.38-2.22-6.89.21-16.64 1.68-23.27.79-3.58.79-6.62 1.02-10.18.33-5.23 4.35-9.58 9.31-5.8q.7 4.88.39 9.79a1.25 1.24-19.7 01-.4.84q-2.54 2.37-.83 5.46-1.26 7.72-.17 15.65a1.16 1.16 0 00.54.84l.52.32q.71.44-.11.59c-4.38.8 1.3 10.71 2.15 10.64a.49.49 0 00.43-.61q-1.33-5-1.37-10.21a1.63 1.61 61 01.24-.85q4.06-6.47 11.38-5.87c3.69.31 5.99 3.41 7.57 6.43a1.86 1.83 33.6 01.2.95c-.27 3.31-.41 11.16-2.74 14.67a.85.84-41.3 00-.06.85q2 4.1 6.3 5.97l1.75.5q1.62.68 2 2.61 1.8 9.11 3.83 18.27a.65.64 76 00.8.49l2.4-.63a.59.59 0 00.42-.72c-.85-3.24-2.78-4.39-1.58-8.13a1.51 1.51 0 000-.9l-.41-1.26a1.19 1.18 50.7 01.09-.92q3.78-6.79 11.63-6.21c1.46.11 1.95.82 3.19 1.47a.32.32 0 00.47-.3l-.13-5.23.17-7 .33-11 .25-2.75-.36-5.07a.63.63 0 00-.54-.57l-10.72-1.35-6.63-1.99a1.56 1.55-9.5 01-.78-.55q-4.64-6.21-6.02-14.29c1.5-6.99 7.38-6.51 13.34-6q.7.06.2-.44l-.45-.45q1.17-1 1.5-2.5 5.09 2.15 10.54 2.71.27.43.09.92a.47.46 18.2 00.31.6c.69.2 1.08-.24 1.1-.93q.9-22.05-.53-44.21-1.03-3.18-1.07-6.57a.58.58 0 00-.51-.56q-7.36-.91-14.65-.05l-23.41.12a2.1 2.09 89.7 00-2.08 2.11q.01 3.02-1.5 6.32l.12-2.44a.32.32 0 00-.44-.32l-.68.26.17-1q.95-7.41-1.92-14.25 1.25.2 1.5-1 2.32 3.36 2.73 7.45a.52.52 0 00.54.47q20.21-.6 40.44-.05 1.85.74 1.71-2.38c-.54-12.31.7-24.44-.19-36.74q-.21-2.83-.01-4.35a.42.42 0 00-.45-.47q-.48.04-.81.36l-.23-.26a.69.68 65.4 00-.63-.24c-20.83 3.1-41.72 6.61-62.64 8.95q-2.29.26-2.21 2.76zm12.35 86.53l.47.45q.67.65.73-.28l.16-2.76a1.2 1.2 0 00-1.73-1.14q-2.11 1.06-3.13 3.16-.32.65.41.55l2.13-.29a1.15 1.13-26.7 01.96.31zm35.61 18.01q7.98 3.08 16.57 3.33a.5.49.6 00.51-.49c.06-3.98 1.03-10.53-.12-14.16q-.24-.75-.5 0-.5 1.48.04 2.95a.57.56 72.4 01-.38.74q-2.15.59-4.16-.16l.05-5.64a.49.49 0 01.58-.47l3.76.71a.56.56 0 00.66-.57c-.08-2.06-16.56-2.27-19.12-2.18a1.25 1.25 0 00-1.21 1.14c-.52 5.49-.96 9.88 3.32 14.8zm-36 7.93a.22.22 0 00.32-.19c.03-1.76.98-12.43-.93-12.53a.56.55 3.8 00-.58.5c-.29 2.55-1.46 10.89 1.19 12.22zm9.3 1.95c6.03-.82 11.91-.8 11.63 6.86a.32.32 0 00.63.07q1.2-6.02-3.08-9.91a1.54 1.53-22.9 00-1.02-.41q-4.71-.12-8.51 2.49a.5.49 23.9 00.35.9zm10.95 15.85q.86-.12.08-2.03-.57-1.37-.58.11l-.01 1.48a.45.44-3.9 00.51.44zm-7.55 2.67q3.81.55 7.42 1.71a.13.13 0 00.14-.03l.18-.19a.12.12 0 00-.04-.2l-8.05-2.9a.46.46 0 00-.61.52q.17.97.96 1.09zm-25.42 2.9l3.71 1.27a1.18 1.17-87.3 01.76.84l1.22 5.35a.17.17 0 00.23.12c.62-.26-.28-4.23-.41-4.87-.51-2.52-5.99-6.98-6.14-3.64a.94.92-79.7 00.63.93zm-74.04 2.5c.61-.02 4.83.7 4.25-1.1a.84.83 83.8 00-.69-.56c-4.89-.54-10.49.22-14.46.26-7.98.08-16.31.99-23.79 1.09-21.71.3-43.32 2.17-65.04 2.65-32.14.71-64.23 2.37-96.36 2.97a.47.46-43.3 00-.03.93c20.74 1.55 41.07.65 61.94-.54 3.35-.2 6.75-.74 9.93-.83 13.7-.37 26.94-.66 41.05-1.56 15.43-.99 25.42-.77 37.73-1.42 15.16-.8 30.85-1.5 45.47-1.89zm-5.55 4.97q19.57-.32 39.07-2.24.51-.05 0-.08c-10.45-.48-23.88.76-31.18.97-14.59.42-27.91.86-43.83 2.24-13 1.14-28.49 1.28-43.54 2.13-28.8 1.63-58.32 2.76-87.46 4.09a.66.66 0 00-.63.66l-.01.43a.57.57 0 00.59.57q14.21-.45 19.87-1c8.15-.78 17.7-.91 23.16-1.23q26.5-1.58 53.03-2.41 3.76-.12 15.24-1.17c10.08-.92 27.59-.36 41.39-1.81q10.25-1.08 14.3-1.15zm125.04 17.32a.33.32-44.6 00.53 0c.7-.97-3.32-16.25-3.83-18.55a.06.05 7 00-.05-.05l-.27-.04a.2.19 1.1 00-.23.22q.67 4.88 1.94 9.63c.84 3.15-.25 5.69 1.91 8.79zm8.27-14.17c3.63-1.65 6.35-1.46 9.5-1.06q.57.07.3-.44-.52-.99-2.01-1.44-5.57-1.68-8.01 2.7-.25.45.22.24zm-150.96 3.79q-.94-1.01-1.87-.3a.89.88-20.8 00-.35.76q.77 13.39.31 26.79a1.34 1.33 6.9 001.07 1.35q.29.06.84-.6l.29.72a1.18 1.16 89.2 00.63.62q3.27 1.3 4.82-1.49l-.5-28.64-4.28-.1a.78.76-74 00-.68.39l-.28.5zm-7.376-.022a.61.61 0 00-.642-.576l-86.014 4.658a.61.61 0 00-.576.642l.024.44a.61.61 0 00.642.576l86.014-4.658a.61.61 0 00.576-.642l-.024-.44zm115.325 5.214a2.45.52 34.9 00-1.712-1.829 2.45.52 34.9 00-2.306-.975 2.45.52 34.9 001.712 1.829 2.45.52 34.9 002.306.975zM170.46 490.75l-.01 13.32-.14 4.39a.56.56 0 00.51.58l5.14.48a.79.79 0 00.87-.75q.77-15.84.54-31.52c-.01-.62.21-1.12.29-1.72a.46.46 0 00-.45-.53h-6.15a.6.59 0 00-.6.59v15.16z"/><ellipse fill="#9b9d9f" transform="rotate(106.9 157.262 280.328)" rx="1.73" ry="1.24"/><path fill="#9b9d9f" d="M465.45 213.44q-.5-2.71 1.81-2.99a.74.73-7.8 01.81.61q.34 2.09-1.36 2.99a.87.87 0 01-1.26-.61zM463.54 214.37a1.55 1.55 0 01-1.94 1.13q-2.08-.6-1.11-2.76a1.17 1.16-88 01.65-.61l2.36-.92q.89-.34.66.59l-.62 2.57z"/><rect fill="#9b9d9f" x="-1.1" y="-1.71" transform="rotate(7 -1520.257 3844.624)" width="2.2" height="3.42" rx=".81"/><path fill="#b7b7b7" d="M86.05 221.7c1.85 2.39 8.15 11.49 7.32 14.76q-.24.91-1.68 1.34-27.84 8.33-55.67 16.54a.32.31-3.6 01-.4-.35q3.33-20.05 18.24-33.62c10.71-9.76 22.73-10.96 32.19 1.33zm3.27 13.15c-2.16-12.09-12.93-25.54-26.57-18.37Q43 226.87 38.6 249.63a1.06 1.06 0 001.36 1.22l49.03-15.46a.49.48-13.9 00.33-.54zM427.15 216.57a.35.35 0 01-.31-.62q1.62-1.21 3.71-1.57a.39.38 85 01.45.38v.31a.4.39 82.3 01-.28.38l-3.57 1.12z"/><path fill="#201f1f" d="M62.75 216.48c13.64-7.17 24.41 6.28 26.57 18.37a.49.48-13.9 01-.33.54l-49.03 15.46a1.06 1.06 0 01-1.36-1.22q4.4-22.76 24.15-33.15z"/><path fill="#fff" d="M191.25 239.79c-28.01-4.56-56.09-8.6-84.07-13.33a.35.35 0 00-.41.37q.3 3.83 3.71 5.37a1.59 1.55-39.2 001.02.09q2.16-.55 1.82 1.53l-4.87-.55a.79.78-5.1 01-.66-.55q-1.94-6.11-5.89-11.16-1.03-1.31.62-1.03l93.67 15.83a.4.4 0 01.12.75l-5.06 2.68z"/><path fill="#9b9d9f" d="M191.25 239.79l-4.98 3.84q-10.44-1.3-20.62-3.85c-4.77-1.19-9.64-.64-14.6-1.52-4.63-.82-9.61-.85-14.34-2.16-.91-.25-1.46.12-1.21 1.11q-11.29-.99-22.18-3.39.34-2.08-1.82-1.53a1.59 1.55-39.2 01-1.02-.09q-3.41-1.54-3.71-5.37a.35.35 0 01.41-.37c27.98 4.73 56.06 8.77 84.07 13.33z"/><path fill="#b7b7b7" d="M186.27 243.63l-1.38 1.05a1.09 1.08 32.8 01-.89.19c-6.39-1.34-13.76-1.84-19.22-2.75q-14.65-2.43-29.28-4.91c-.25-.99.3-1.36 1.21-1.11 4.73 1.31 9.71 1.34 14.34 2.16 4.96.88 9.83.33 14.6 1.52q10.18 2.55 20.62 3.85zM107.5 256.71q-.4-.57-.11-1.1a.74.74 0 01.77-.36c4.54.8 8.75 1.6 13.46 1.89q12.26.77 16.13 1.87c3.41.97 6.27.61 8.93 1.21q9.02 2.06 18.26 2.82a1.39 1.36 69.3 01.86.4l.25.24a.48.47-42.3 00.65.03l2.74-2.36q.4-.35.57-.84 1.39-3.83 4.58-6.44a1.5 1.5 0 00-.09-2.38c-.91-.63-2.52-.42-3.35-.54-9.38-1.35-18.73-2.71-28.14-3.79q-6.47-.74-12.72-2.61c-3.48-1.04-7.32-.76-11.16-1.54-4.05-.82-7.6-1.58-11.77-.47q-6.99 1.86-13.88 4.08a.8.79-29.2 01-.84-.23q-.39-.44-.18-1.34 6.89-2.21 13.98-3.72c4.3-.91 8.08-.2 12.31.48q29.35 4.78 58.78 9.04.57.09.21.54-4.93 6.04-8.56 12.98a.69.68-71.3 01-.7.35q-8.36-1.36-16.77-2.36c-14.98-1.77-29.42-4.23-44.21-5.85z"/><path fill="#9b9d9f" d="M107.5 256.71c-12.76-1.6-25.56-3.59-38.37-4.62a.24.24 0 01-.05-.47l23.38-6.37q-.21.9.18 1.34a.8.79-29.2 00.84.23q6.89-2.22 13.88-4.08c4.17-1.11 7.72-.35 11.77.47 3.84.78 7.68.5 11.16 1.54q6.25 1.87 12.72 2.61c9.41 1.08 18.76 2.44 28.14 3.79.83.12 2.44-.09 3.35.54a1.5 1.5 0 01.09 2.38q-3.19 2.61-4.58 6.44-.17.49-.57.84l-2.74 2.36a.48.47-42.3 01-.65-.03l-.25-.24a1.39 1.36 69.3 00-.86-.4q-9.24-.76-18.26-2.82c-2.66-.6-5.52-.24-8.93-1.21q-3.87-1.1-16.13-1.87c-4.71-.29-8.92-1.09-13.46-1.89a.74.74 0 00-.77.36q-.29.53.11 1.1z"/><path fill="#fff" d="M303.75 257.54q-1.48-.86-3.18-1.11c-12.72-1.84-25.09-4.08-38.1-5.79-3.7-.49-12.25-2.94-15.47-2.1l-4.86-4.34q-.41-.37.13-.28c21.86 3.56 43.68 6.6 65.72 10.83q.61.12.07.41l-4.31 2.38z"/><path fill="#b7b7b7" d="M208.9 248.26l8.84-4.51a.34.34 0 01.38.05l7.28 6.75a.34.34 0 01-.28.58l-16.11-2.23a.34.34 0 01-.11-.64z"/><path fill="#9b9d9f" d="M303.75 257.54q-3.05 2.7-6.66 4.46a1.58 1.58 0 01-.9.13l-43.88-6.85a1.18 1.17-13.1 01-.75-.46l-4.56-6.28c3.22-.84 11.77 1.61 15.47 2.1 13.01 1.71 25.38 3.95 38.1 5.79q1.7.25 3.18 1.11z"/><path fill="#fff" d="M476.5 486.46q-.06-3.25.16-6.48c.4-5.69-.08-11.25.03-16.88.25-12.58-.38-25.21.18-37.79q.11-2.43-.49-5.81-.09-.53.08-1.04.63-1.99-.17-3.87a1.25 1.23 45.9 01.01-1.01q.9-1.99.23-4.11-.16-.51-.09-1.05c.76-5.42.1-11.28.27-16.23q.16-4.9-.21-9.78c-.13-1.75.33-3.91.03-5.86-.32-2.07.33-3.48.28-5.3q-.36-11.85.11-23.71.02-.5-.2-.95c-1.26-2.64-.4-10.48-.68-14.59l.25-56.25q2.36-1.65 2.04-4.49a.71.71 0 00-.55-.61l-1.74-.4v-18.01c0-3.08 4.38-2.47 5.24-.41a1.41 1.36-49.1 01.05.93c-.67 2.13.07 6.03-.2 9.91q-.32 4.42-.34 7.67c-.28 43.62-.37 87.23-.34 130.85.02 28.05-.91 56.11-1.01 84.23a1.39 1.38-82.8 01-1.72 1.34l-1.22-.3zm2.92-232.11l.45-.41a.46.46 0 00-.01-.69l-1.78-1.52q-.58-.51-.56.27.21 7.38-.03 14.75-.04 1.43.87 1.66a.73.72 6.3 00.89-.71l-.15-12.61a1.02 1.01 68.5 01.32-.74z"/><path fill="#9b9d9f" d="M479.1 255.09l.15 12.61a.73.72 6.3 01-.89.71q-.91-.23-.87-1.66.24-7.37.03-14.75-.02-.78.56-.27l1.78 1.52a.46.46 0 01.01.69l-.45.41a1.02 1.01 68.5 00-.32.74zM206.86 255.99q4.88 3.3 10.46 1.61 3.17-.37 6.43.61c-.83-.1-1.82-.02-1.7 1.11a.66.66 0 00.59.58c4.8.51 9.24 1.67 14.16 2.05q3.13.24 6.21.82c5.04.94 9.51 1.18 14.34 1.65 2.38.23 4.66 1.23 7.21 1.55 5.41.66 10.5 1.8 15.79 2.49a.76.75 17 00.76-.4q.24-.44.14-1.02l8.83 1.2a.49.49 0 01.23.88c-3.82 2.86-5.81 6.37-8.74 10.07a.9.89 22.5 01-.81.33l-42.01-5.31q.69-1.55-.74-1.72-14.76-1.73-29.49-3.6-1.66-.21-1.77 1.07l-14.8-2.21a.42.41 22 01-.28-.65l8.51-11.74a.96.95 22.8 01.95-.38l5.73 1.01z"/><path fill="#b7b7b7" d="M206.86 255.99q5.34.04 10.46 1.61-5.58 1.69-10.46-1.61zM223.75 258.21l57.5 8.83q.1.58-.14 1.02a.76.75 17 01-.76.4c-5.29-.69-10.38-1.83-15.79-2.49-2.55-.32-4.83-1.32-7.21-1.55-4.83-.47-9.3-.71-14.34-1.65q-3.08-.58-6.21-.82c-4.92-.38-9.36-1.54-14.16-2.05a.66.66 0 01-.59-.58c-.12-1.13.87-1.21 1.7-1.11z"/><path fill="#fff" d="M345.74 263.9q-8.19-2.87-16.86-2.37a.36.35-1.5 01-.38-.35v-.39q9.83-4.06 17.24 3.11z"/><path fill="#9b9d9f" d="M328.5 260.79v.39a.36.35-1.5 00.38.35q8.67-.5 16.86 2.37 3.44 2.06 5.29 5.93.22.45-.28.39-13.54-1.72-26.8-3.89-2.81-.47-4.32-1.32-.46-.25 0-.51 4.26-2.38 8.87-3.71z"/><path fill="#fff" d="M46.75 521.71l-.25-.42q.47-.41.47-1.29-.08-47.66-.2-95.31-.02-8.02.24-16.01c.2-5.9-.3-12.24-.34-18.37-.23-36.86.65-74.19.8-110.56q.02-5 2.16-7.81a.96.93 53.8 00.13-.93q-.41-1.03.5-1.87a.95.94 65 00.28-.78l-.35-3.47a.91.9 11.9 00-.46-.69q-1.75-.96-3.73-.41l-2.32-.37q3.69-1.46 7.44-.39a.68.66 8.1 01.49.64q.3 33.38.13 48.39-1.18 104.45-1.3 208.9a.78.76 78.5 01-.46.71q-1.56.68-3.23.04z"/><path fill="#b7b7b7" d="M43.68 263.42l2.32.37q.13 4.59.09 9.17c-.05 4.42.41 11.78-.19 17.67-.19 1.89.63 3.52.47 5.41-.28 3.16-.13 4.92-.32 7.46a1.51 1.48 66.7 01-.33.85l-.63.78a.95.93 53.2 00-.13.97q.93 2.15.05 4.23a.79.78-57 00.18.87l.22.21a.89.88-60.3 01.24.89q-.9 3.03.2 5.98a.81.8-29.6 01-.26.93q-.52.4-.2 1.05.25.49.24 1.03c-.04 26.8.14 53.58.09 80.38-.01 1.03-.58 1.87-.35 3.04q.35 1.76.33 2.15c-.26 7.42.21 15.91.17 22.18q-.08 15.28-.17 30.56c-.04 7.35-.93 17.47-.57 26.32.47 11.7-.29 22.92-.31 33.01q0 1.67 1.68 2.36l.25.42q-2.11.08-3.99-.8a.8.8 0 01-.46-.71l-.09-3.7q-.26-65.63.75-131.25c.59-40.6.54-81.17.72-121.83z"/><path fill="#9b9d9f" d="M46.5 521.29q-1.68-.69-1.68-2.36c.02-10.09.78-21.31.31-33.01-.36-8.85.53-18.97.57-26.32q.09-15.28.17-30.56c.04-6.27-.43-14.76-.17-22.18q.02-.39-.33-2.15c-.23-1.17.34-2.01.35-3.04.05-26.8-.13-53.58-.09-80.38q.01-.54-.24-1.03-.32-.65.2-1.05a.81.8-29.6 00.26-.93q-1.1-2.95-.2-5.98a.89.88-60.3 00-.24-.89l-.22-.21a.79.78-57 01-.18-.87q.88-2.08-.05-4.23a.95.93 53.2 01.13-.97l.63-.78a1.51 1.48 66.7 00.33-.85c.19-2.54.04-4.3.32-7.46.16-1.89-.66-3.52-.47-5.41.6-5.89.14-13.25.19-17.67q.04-4.58-.09-9.17 1.98-.55 3.73.41a.91.9 11.9 01.46.69l.35 3.47a.95.94 65 01-.28.78q-.91.84-.5 1.87a.96.93 53.8 01-.13.93q-2.14 2.81-2.16 7.81c-.15 36.37-1.03 73.7-.8 110.56.04 6.13.54 12.47.34 18.37q-.26 7.99-.24 16.01.12 47.65.2 95.31 0 .88-.47 1.29z"/><path fill="#fbfee1" d="M63.78 264.8q50.21 5.83 100.33 12.53a.7.69-85.8 01.6.7l-.16 8.9a.48.47 3.9 01-.53.46q-43.9-5.36-58.26-6.91c-11.17-1.21-22.67-2.9-33.55-3.81q-6.37-.53-12.74-1.26a.52.52 0 01-.46-.52l-.01-9.9a.65.64-2.9 01.6-.65c1.45-.11 3.13.34 4.18.46z"/><path fill="#fff" d="M384.5 271.04q-.19 0-.34-.07a.44.43-64.7 01-.21-.61l.24-.44a.31.31 0 00-.2-.44q-6.66-1.65-13.45-1.27l-3.01-3.54q-.53-.62.27-.49l22.53 3.53a.44.43-52 01.1.83l-5.93 2.5z"/><path fill="#9b9d9f" d="M384.5 271.04c-3.63 2.67-6.31 4.73-11.18 3.04a1.11 1.08 87.9 01-.66-.63l-2.12-5.24q6.79-.38 13.45 1.27a.31.31 0 01.2.44l-.24.44a.44.43-64.7 00.21.61q.15.07.34.07z"/><path fill="#b7b7b7" d="M238.75 274.21l-32-4.25q.11-1.28 1.77-1.07 14.73 1.87 29.49 3.6 1.43.17.74 1.72zM476.04 270.25l1.74.4a.71.71 0 01.55.61q.32 2.84-2.04 4.49l-.25-5.5z"/><path fill="#9b9d9f" d="M316.5 272.21q-.61-.06-1.23.74a.5.5 0 00.34.81q18.13 2.02 35.65 5.44c1.85.36 3.37.18 4.95.64q5.79 1.69 11.76 2.81a.43.43 0 01.29.64q-1.19 1.97-3.18 3.14a1.65 1.64 84.6 00-.7.85l-.52 1.45a.56.56 0 01-.76.31q-2.53-1.19-4.65.7l-28.95-3.95.37-.04a.46.45-.1 00.41-.4c.15-1.38-14.31-2.54-16.05-2.69-2.24-.21-5.18-1.08-7.98-.89a.72.71 5.6 00-.65.53l-.1.41q-2.59.22-5.08-.78a.4.39 32.9 01-.14-.64l9.04-9.51a1.07 1.06 25.2 01.91-.32l6.27.75z"/><path fill="#b7b7b7" d="M316.5 272.21c18.41 3.08 37.14 5.25 55.41 8.91a.23.23 0 01.13.37l-7.52 8.81a.8.79-65.2 01-.73.27l-5.34-.83q2.12-1.89 4.65-.7a.56.56 0 00.76-.31l.52-1.45a1.65 1.64 84.6 01.7-.85q1.99-1.17 3.18-3.14a.43.43 0 00-.29-.64q-5.97-1.12-11.76-2.81c-1.58-.46-3.1-.28-4.95-.64q-17.52-3.42-35.65-5.44a.5.5 0 01-.34-.81q.62-.8 1.23-.74zM173.29 278.5q.45 4.31-.68 8.47a1.56 1.49-49.3 00.05.95q.64 1.59-.51 2.97a.84.82-38.1 00-.12.88q1.63 3.63.82 7.65a.73.72-84.1 01-.71.58h-.6c-.11-1.99-.32-3.12.09-5.31.24-1.29-.33-2.04-.27-3.25q.31-6.32.37-12.63a.71.71 0 01.52-.67q.48-.13 1.04.36z"/><path d="M178.54 333.75l.17-48-.21-7.21q.28-.41.6-.46a.6.59-10.5 01.67.45q.21.89.21 1.78.21 22.48.27 44.96c.01 3.03.76 6.28-.58 9.77q-.19.5-.51.07-.47-.65-.62-1.36z"/><path fill="#9b9d9f" d="M178.5 278.54l.21 7.21-.45-.01a.67.65-78.6 00-.61.42q-.61 1.6-2.17 2.35a2.17 2.16-12.9 00-1.23 1.95c-.08 50.81-.11 101.49-.1 152.23 0 .69-.47 1.57-.4 2.44q.52 5.81.48 11.53l-1.98.3q-.11-4.84-.05-9.67c.01-1.15-.47-2.63-.28-3.91.94-6.35-.16-14.31-.28-20.85-.07-4.16.34-9.25.23-13.9a.43.42 2.3 00-.38-.41c-.68-.07-.57 4.24-.7 5.03q-.04-40.09.32-80.19 0-.19.15-.51a1.61 1.56-35.5 00.16-.88c-.72-6.55 0-13.35-.21-19.55q-.2-6.06.33-12.12h.6a.73.72-84.1 00.71-.58q.81-4.02-.82-7.65a.84.82-38.1 01.12-.88q1.15-1.38.51-2.97a1.56 1.49-49.3 01-.05-.95q1.13-4.16.68-8.47l5.21.04z"/><path fill="#fbfee1" d="M164.46 334.25l-.22.13a.45.45 0 01-.48 0c-5.44-3.37-12.39-6.19-16.94-8.57q-42.69-22.4-85.53-43.27a.9.9 0 00-1.29.78c-.14 3.64.34 7.45.26 10.58q-.3 12.01-.11 24.02c.05 3.03-.58 6.62-.38 10.03a.91.91 0 00.48.75q.97.53 1.94 1 50.46 24.62 100.78 49.72a1.88 1.85 13.6 011.03 1.66l.04 12.92-.44 57.61q-4.85-.81-8.7-3.58-3.35-2.4-3.39-2.43-45.21-29.06-90.33-58.29-.4-.26-.87-.3l-.56-.05-1.46.04q-.36-3.33-.32-5.01 1.28-50.81 1.03-101.7a.53.53 0 01.5-.54c1.6-.08 3.39.63 4.77.78q49.82 5.39 99.89 11.43a.64.63-86.4 01.55.63l-.25 41.66zM272.48 299.9c-20.77-2.21-41.57-4.71-62.31-7.16-6.58-.77-15.47-2.13-23.38-2.51a.85.84 1.8 01-.81-.85l.06-8.77a.45.45 0 01.51-.44l86.39 10.69a.2.19-85.4 01.17.21l-.16 8.41a.43.42 3.1 01-.47.42z"/><path fill="#b7b7b7" d="M329.5 285.79l-24-3.08.1-.41a.72.71 5.6 01.65-.53c2.8-.19 5.74.68 7.98.89 1.74.15 16.2 1.31 16.05 2.69a.46.45-.1 01-.41.4l-.37.04z"/><path fill="#9b9d9f" d="M164.46 334.25l-.42 59.75-.04-12.92a1.88 1.85 13.6 00-1.03-1.66q-50.32-25.1-100.78-49.72-.97-.47-1.94-1a.91.91 0 01-.48-.75c-.2-3.41.43-7 .38-10.03q-.19-12.01.11-24.02c.08-3.13-.4-6.94-.26-10.58a.9.9 0 011.29-.78q42.84 20.87 85.53 43.27c4.55 2.38 11.5 5.2 16.94 8.57a.45.45 0 00.48 0l.22-.13z"/><path fill="#fff" d="M178.71 285.75l-.17 48q-1.14 60.52-.8 121.06c.02 2.69-1.42 2.65-3.51 1.85q.04-5.72-.48-11.53c-.07-.87.4-1.75.4-2.44-.01-50.74.02-101.42.1-152.23a2.17 2.16-12.9 011.23-1.95q1.56-.75 2.17-2.35a.67.65-78.6 01.61-.42l.45.01z"/><path fill="#9b9d9f" d="M285.25 292.54q.1 2.85.28 5.71c.12 1.82-1.4 2.96-1.61 4.93-.32 3.02-1.16 5.83-1.16 8.78q.11 69.77 0 139.54 0 1.47 1.49 1.54l-4.44.45a.52.52 0 01-.57-.49l-.03-.5c.41-26.58.13-45.61.84-79.75q.04-1.62-.01-3.25l.23-76.6a1.37 1.37 0 011.75-1.31l3.23.95z"/><path fill="#fff" d="M285.25 292.54c1.73-.55.9 5.63.9 6.52.08 50.66-.04 101.29-.87 151.94q-.03 1.62-1.03 2.04-1.49-.07-1.49-1.54.11-69.77 0-139.54c0-2.95.84-5.76 1.16-8.78.21-1.97 1.73-3.11 1.61-4.93q-.18-2.86-.28-5.71z"/><path fill="#fbfee1" d="M297.42 302.7q-1.75-.19-3.49-.24a.6.6 0 01-.58-.6l.07-7.79a.68.68 0 01.77-.67l59.79 7.53a.59.58 3.3 01.52.58v6.98a.61.61 0 01-.63.61c-4.62-.15-10.41-1.2-13.6-1.57q-21.42-2.49-42.85-4.83z"/><path d="M186.29 294.75l-.83 40.5q-.97.45-2.04.18a.65.64-81.7 01-.48-.65q.81-27.46 1.43-40.46.04-.82.79-.84a.79.79 0 01.75.46l.38.81z"/><path fill="#fbfee1" d="M186.29 294.75q11.25.66 22.39 2.34c5.18.78 12.73 1.26 19.06 2.07q17.56 2.27 35.19 3.95 4.96.47 9.1 1.24a1.6 1.59 5.4 011.31 1.58c-.35 49.39-1.08 98.76-1.11 147.01a.52.52 0 01-.5.52c-26.41 1.12-52.79 2.41-79.23 2.78q-3.73.06-6.88.42a.78.77 86.8 01-.87-.78l.54-87.13q.24-.28.26-.64a.39.39 0 01.39-.36h.39a.36.35-.8 01.35.33q.55 10.99-.25 21.95a.87.86 18.4 00.41.8q2.66 1.64 6.68 3.63 46.98 23.26 77.05 37.82a.35.35 0 00.5-.27c1.08-8.85.16-18.87.18-27.85 0-1.78 1.23-2.68-1.02-3.9q-35.8-19.57-71.4-39.58a.7.7 0 01-.33-.81q.99-3.23 4.35-2.76a.85.85 0 00.93-1.09c-.76-2.51-15.3-8.85-18.24-10.02l-.08-10.75.83-40.5z"/><path fill="#9b9d9f" d="M363.7 302.49q-.85 10.23-.59 20.49c.14 5.72-.27 11.37-.29 17.09q-.13 46.46-.01 92.93.02 8.77-.18 13.13c-.1 2.06.35 4.32.26 6.47-.51 12.54-.09 25.26-.19 37.85a.47.46 3.3 01-.52.46l-1.56-.16c-.42-62.62.51-125.16 1.1-187.78a.6.6 0 01.5-.58q1.2-.21 1.48.1z"/><path fill="#fff" d="M363.7 302.49l1.87.05a.6.6 0 01.58.6c.69 62.87-1.45 125.57-1.11 188.59a1.24 1.23-86.6 01-1.39 1.24l-2.28-.29a.89.89 0 01-.7-.48q-.32-.59-.05-1.45l1.56.16a.47.46 3.3 00.52-.46c.1-12.59-.32-25.31.19-37.85.09-2.15-.36-4.41-.26-6.47q.2-4.36.18-13.13-.12-46.47.01-92.93c.02-5.72.43-11.37.29-17.09q-.26-10.26.59-20.49z"/><path fill="#fbfee1" d="M340.25 465.21q.86.11 1.14.82.22.55.37-.02l.08-.29a.33.32 23 01.48-.19c2.58 1.53 6.23.06 9.18.21a.71.71 0 00.74-.77q-.72-7.76.13-15.7c.17-1.59-.41-2.9-1.91-3.75q-28.57-16.18-57.29-32.11c-.32-.18-.4-.39-.63-.66l.17-61.5.52-43.58a.94.94 0 011.05-.93l59.58 6.95a.61.59 3.9 01.53.59c.46 51.6-.83 100.6-1.25 151.62a1.06 1.06 0 01-1.01 1.06l-59.1 3.19a.58.58 0 01-.59-.4l-.16-.5a.59.58 80.3 01.54-.77q22.49-.71 44.96-1.96c1.17-.06 1.72-.52 2.47-1.31z"/><path fill="#9b9d9f" d="M443 309.04q.24 1.33-.23 2.51a.79.77 10.1 01-.71.48c-15.43.21-33.06 7.51-44.5 17.16l-5.04-.13a.84.82-12.2 01-.73-.46c-3.37-6.77-7.68-6.99-14.5-8.35q-.08-2.5 2.21-2.76c20.92-2.34 41.81-5.85 62.64-8.95a.69.68 65.4 01.63.24l.23.26z"/><path d="M442.75 352.62q.58-13.09.03-25.83a.54.53-1.1 00-.54-.51q-25.01-.07-43.53 16.23a.78.76-31.8 00-.21.85l.54 1.39q-.25 1.2-1.5 1-.83-1.6-3.09-1.93-3.94-1.95-7.16 1.68-8.1 10.86 1.21 20.54c5.25 4.42 9.57.12 10.79-5.04l.68-.26a.32.32 0 01.44.32l-.12 2.44-1.78 3.4a.81.79-49.1 00.05.82q2.05 3.03 4.98 5.28l6.92 6q7.54 6.37 16.25 11 7.14 4.26 15.24 6.08a.39.39 0 00.48-.39q-.41-16.63 1.08-33.56 1.43 22.16.53 44.21c-.02.69-.41 1.13-1.1.93a.47.46 18.2 01-.31-.6q.18-.49-.09-.92l-.08-6.39a.67.66 7 00-.5-.63c-17.27-4.35-33.14-16.06-45.16-29.13a.74.73-35.1 00-.88-.15q-3.48 1.86-6.8-.3a.57.57 0 00-.78.81q16.6 23.49 43.66 33.08-.33 1.5-1.5 2.5l-8.75-3.75-9.21-5.04-2.54-1.96-2.75-1.58c-11.48-8.65-21.66-19.35-25.72-33.5q-1.48-5.18-.77-6.93 3.69-9.02 9.38-16.7l3.15-3.58 1.21-.96 3.06-2.35c11.44-9.65 29.07-16.95 44.5-17.16a.79.77 10.1 00.71-.48q.47-1.18.23-2.51.33-.32.81-.36a.42.42 0 01.45.47q-.2 1.52.01 4.35c.89 12.3-.35 24.43.19 36.74q.14 3.12-1.71 2.38zm-47.16-11.71q.15.07.34.11a1.08 1.06-60 00.89-.25c12.16-10.56 29.31-18.06 45.65-17.14a.51.5-88.4 00.53-.51l-.01-8.04a.59.58 87.8 00-.63-.59c-19.85 1.63-37.85 9.14-51.08 24.69q-1.36 1.6.74 1.58l2.88-.02q.36 0 .69.17z"/><path fill="#9b9d9f" d="M394.9 340.74l-2.88.02q-2.1.02-.74-1.58c13.23-15.55 31.23-23.06 51.08-24.69a.59.58 87.8 01.63.59l.01 8.04a.51.5-88.4 01-.53.51c-16.34-.92-33.49 6.58-45.65 17.14a1.08 1.06-60 01-.89.25q-.19-.04-.34-.11-.33-.17-.69-.17z"/><path fill="#fff" d="M377.29 320.25c6.82 1.36 11.13 1.58 14.5 8.35a.84.82-12.2 00.73.46l5.04.13-3.06 2.35-1.3-.37a.44.44 0 00-.55.42q-.01.5.64.91l-3.15 3.58q1.4-6.75-3.96-10.77-4.18-3.13-9.14-2.56l.25-2.5z"/><path fill="#9b9d9f" d="M390.14 336.08q-5.69 7.68-9.38 16.7-.71 1.75.77 6.93c4.06 14.15 14.24 24.85 25.72 33.5q-6.88 2.96-13.73.38a1.74 1.73 20.9 01-1.01-2.25q1.25-3.25-1.22-5.56-.9-.85-.61.35.86 3.61-.88 6.93a1.47 1.44 2.7 01-.76.68l-.98.37a.4.4 0 01-.53-.46c1.22-5.57.76-12.11-6.34-12.93a.48.47-32.2 00-.21.92c8.7 2.97 3.92 18.34-2.66 18.1a.53.52-88.9 01-.5-.53q.03-10.65 0-21.3c-.02-5.09.72-12.9.13-19.45a.51.51 0 00-.52-.47l-.39.01q-.43-3.8.44-7.43.99-7.99.56-16.06a.53.53 0 00-.54-.51h-.46v-11.25q4.96-.57 9.14 2.56 5.36 4.02 3.96 10.77zM442.75 352.62q-20.23-.55-40.44.05a.52.52 0 01-.54-.47q-.41-4.09-2.73-7.45l-.54-1.39a.78.76-31.8 01.21-.85q18.52-16.3 43.53-16.23a.54.53-1.1 01.54.51q.55 12.74-.03 25.83z"/><path d="M450.71 334.25q-.75 76.37-.74 152.75 0 1.27-.72 2.29-.5-.09-.9-.37a.93.91 18.4 01-.41-.8c.93-29.28.59-58.52.77-87.81q.2-34.78.17-70.19 0-2.25 1.12-.29.89 1.56.71 4.42z"/><path fill="#9b9d9f" d="M394.5 331.54l-1.21.96q-.65-.41-.64-.91a.44.44 0 01.55-.42l1.3.37zM476.04 332c.28 4.11-.58 11.95.68 14.59q.22.45.2.95-.47 11.86-.11 23.71c.05 1.82-.6 3.23-.28 5.3.3 1.95-.16 4.11-.03 5.86q.37 4.88.21 9.78c-.17 4.95.49 10.81-.27 16.23q-.07.54.09 1.05.67 2.12-.23 4.11a1.25 1.23 45.9 00-.01 1.01q.8 1.88.17 3.87-.17.51-.08 1.04.6 3.38.49 5.81c-.56 12.58.07 25.21-.18 37.79-.11 5.63.37 11.19-.03 16.88q-.22 3.23-.16 6.48-1.3.61-2.05-.46a1.34 1.34 0 01-.24-.91q.3-3.14.32-8.15.26-57.82.78-115.63.14-14.66.73-29.31z"/><path fill="#b7b7b7" d="M377.04 334h.46a.53.53 0 01.54.51q.43 8.07-.56 16.06-.87-8.37-.44-16.57z"/><path fill="#9b9d9f" d="M394.45 343.82q1.94 4.13 3.31 8.45c.76 2.4.29 4.66.51 7.2a.58.58 0 00.59.53h.6l-.17 1c-1.22 5.16-5.54 9.46-10.79 5.04q1.4-1.15.18-2.79-6.14-8.19-.04-16.78a.56.56 0 00-.41-.88l-.94-.09q3.22-3.63 7.16-1.68z"/><path fill="#b7b7b7" d="M394.45 343.82q2.26.33 3.09 1.93 2.87 6.84 1.92 14.25h-.6a.58.58 0 01-.59-.53c-.22-2.54.25-4.8-.51-7.2q-1.37-4.32-3.31-8.45zM387.29 345.5l.94.09a.56.56 0 01.41.88q-6.1 8.59.04 16.78 1.22 1.64-.18 2.79-9.31-9.68-1.21-20.54z"/><path fill="#9b9d9f" d="M185.54 346c2.94 1.17 17.48 7.51 18.24 10.02a.85.85 0 01-.93 1.09q-3.36-.47-4.35 2.76a.7.7 0 00.33.81q35.6 20.01 71.4 39.58c2.25 1.22 1.02 2.12 1.02 3.9-.02 8.98.9 19-.18 27.85a.35.35 0 01-.5.27q-30.07-14.56-77.05-37.82-4.02-1.99-6.68-3.63a.87.86 18.4 01-.41-.8q.8-10.96.25-21.95a.36.35-.8 00-.35-.33h-.39a.39.39 0 00-.39.36q-.02.36-.26.64l.25-22.75z"/><path d="M292.71 351.25l-.17 61.5-.25 31.5q.29 3.75-.51 8.33-1.69-7.46-.96-16.77.58-7.28.38-21-.4-27.61.07-62.31.02-1.41 1.44-1.25z"/><path fill="#9b9d9f" d="M443.51 362.13q-1.49 16.93-1.08 33.56a.39.39 0 01-.48.39q-8.1-1.82-15.24-6.08.52-.37.69-.96a.56.56 0 00-.35-.68q-5.79-2.04-10.18-6.28c-1.54-1.49-3.48-2.32-5.11-3.81a.66.65 47.3 00-.82-.04q-.36.27-.48.77l-6.92-6q.66.08.98-.35a.62.61 42.1 00-.04-.77l-3.92-4.32a.75.73 41.3 01-.07-.92c2.14-3.19 2.22-5.87 3.73-9.27a.97.95 5.9 01.69-.55q4.14-.85 7.59-.78 7.96.14 14.78-1.09 7.29-.86 14.65.05a.58.58 0 01.51.56q.04 3.39 1.07 6.57z"/><path fill="#b7b7b7" d="M427.28 354.95q-6.82 1.23-14.78 1.09-3.45-.07-7.59.78a.97.95 5.9 00-.69.55c-1.51 3.4-1.59 6.08-3.73 9.27a.75.73 41.3 00.07.92l3.92 4.32a.62.61 42.1 01.04.77q-.32.43-.98.35-2.93-2.25-4.98-5.28a.81.79-49.1 01-.05-.82l1.78-3.4q1.51-3.3 1.5-6.32a2.1 2.09 89.7 012.08-2.11l23.41-.12z"/><path fill="#fff" d="M377.04 358l.39-.01a.51.51 0 01.52.47c.59 6.55-.15 14.36-.13 19.45q.03 10.65 0 21.3a.53.52-88.9 00.5.53c6.58.24 11.36-15.13 2.66-18.1a.48.47-32.2 01.21-.92c7.1.82 7.56 7.36 6.34 12.93a.4.4 0 00.53.46l.98-.37a1.47 1.44 2.7 00.76-.68q1.74-3.32.88-6.93-.29-1.2.61-.35 2.47 2.31 1.22 5.56a1.74 1.73 20.9 001.01 2.25q6.85 2.58 13.73-.38l2.75 1.58q-6.8 2.63-14.02 1.94-.46-.04-.85-.28l-2.84-1.7a1.15 1.13 49.1 00-.99-.08q-3.66 1.46-8.19 5.68-2.22 2.08-6.22 1.62a.45.45 0 01-.4-.4l-.03-.32.58-43.25z"/><path d="M280.04 369.5q.05 1.63.01 3.25c-.71 34.14-.43 53.17-.84 79.75q-.31.27-.68.26a.83.83 0 01-.8-.84q.35-33.68.08-67.2c-.03-4.82.56-10.58.41-15.86a.65.65 0 01.9-.62q1.09.44.92 1.26z"/><path fill="#9b9d9f" d="M442.54 405.75q-5.45-.56-10.54-2.71-27.06-9.59-43.66-33.08a.57.57 0 01.78-.81q3.32 2.16 6.8.3a.74.73-35.1 01.88.15c12.02 13.07 27.89 24.78 45.16 29.13a.67.66 7 01.5.63l.08 6.39z"/><path fill="#b7b7b7" d="M426.71 390q-8.71-4.63-16.25-11 .12-.5.48-.77a.66.65 47.3 01.82.04c1.63 1.49 3.57 2.32 5.11 3.81q4.39 4.24 10.18 6.28a.56.56 0 01.35.68q-.17.59-.69.96z"/><path d="M42.96 385.25q-1.01 65.62-.75 131.25-.19.65-1.13 1.13a.62.62 0 01-.9-.57c1.06-44.82.05-89.7 1.05-133.55a.7.69 24.6 011.21-.45q.57.63.52 2.19z"/><path fill="#b7b7b7" d="M59.75 386.96c-.92 4.71-.01 10.26.01 13.58q.03 7.3-.18 14.61a.65.65 0 01-.54.62q-.51.08-1-.27l.25-28.5 1.46-.04z"/><path fill="#9b9d9f" d="M59.75 386.96l.56.05q.47.04.87.3 45.12 29.23 90.33 58.29.04.03 3.39 2.43 3.85 2.77 8.7 3.58l.04 4.42a.65.64-5.4 01-.53.63q-1.44.28-2.84-.02-13.43-.73-26.82.76c-4.66.51-9.16-2.96-13.72-5.61q-12.55-7.31-60.5-33.75-.77-.43-1.44-.29l.25-2.25q.49.35 1 .27a.65.65 0 00.54-.62q.21-7.31.18-14.61c-.02-3.32-.93-8.87-.01-13.58zM410 394.79l2.54 1.96q-.82 1.62 1.01 2.5 4.63 2.25 6.46 3.26a1.09 1.08 47.9 00.92.05q.5-.21.82-.77l8.75 3.75.45.45q.5.5-.2.44c-5.96-.51-11.84-.99-13.34 6q-.74 4.94 1.3 9.61 1.88 4.3 5.53 7.17a2.01 1.98-82.2 01.62.83l.4 1q.25.63.59.05l.84-1.46a.5.49 35.7 01.75-.12q1.86 1.63 3.4-.25l10.72 1.35a.63.63 0 01.54.57l.36 5.07c-5.77 1.87-8.54 3.02-9.86 9.49a.7.69-88.2 01-.58.55c-5.97.84-13.62 5.13-14.77 11.67q-4.3-1.87-6.3-5.97a.85.84-41.3 01.06-.85c2.33-3.51 2.47-11.36 2.74-14.67a1.86 1.83 33.6 00-.2-.95c-1.58-3.02-3.88-6.12-7.57-6.43q-7.32-.6-11.38 5.87a1.63 1.61 61 00-.24.85q.04 5.21 1.37 10.21a.49.49 0 01-.43.61c-.85.07-6.53-9.84-2.15-10.64q.82-.15.11-.59l-.52-.32a1.16 1.16 0 01-.54-.84q-1.09-7.93.17-15.65 3.8-3.87 2.98-8.79c-.43-2.55-.15-4.89-.76-7.3a.53.53 0 00-.64-.38q-.42.1-.74.38c-4.96-3.78-8.98.57-9.31 5.8-.23 3.56-.23 6.6-1.02 10.18-1.47 6.63-3.9 16.38-1.68 23.27 3.25 10.12 7.08 19.35 6.77 30.38q-.02.73-.63.34l-2.19-1.39a1.28 1.27 12.1 01-.57-.87c-1.14-7.64 2.54-16.27-7.81-18.28a.98.97-84.4 01-.79-.97l.48-49.71.03.32a.45.45 0 00.4.4q4 .46 6.22-1.62 4.53-4.22 8.19-5.68a1.15 1.13 49.1 01.99.08l2.84 1.7q.39.24.85.28 7.22.69 14.02-1.94z"/><path fill="#b7b7b7" d="M412.54 396.75l9.21 5.04q-.32.56-.82.77a1.09 1.08 47.9 01-.92-.05q-1.83-1.01-6.46-3.26-1.83-.88-1.01-2.5zM392.37 418.59q-1.71-3.09.83-5.46a1.25 1.24-19.7 00.4-.84q.31-4.91-.39-9.79.32-.28.74-.38a.53.53 0 01.64.38c.61 2.41.33 4.75.76 7.3q.82 4.92-2.98 8.79zM388.68 406.47l-2.13.29q-.73.1-.41-.55 1.02-2.1 3.13-3.16a1.2 1.2 0 011.73 1.14l-.16 2.76q-.06.93-.73.28l-.47-.45a1.15 1.13-26.7 00-.96-.31zM172.25 456.96l-1.19-.02a.49.49 0 01-.49-.5l.22-43.19c.13-.79.02-5.1.7-5.03a.43.42 2.3 01.38.41c.11 4.65-.3 9.74-.23 13.9.12 6.54 1.22 14.5.28 20.85-.19 1.28.29 2.76.28 3.91q-.06 4.83.05 9.67zM437.21 417q-1.57.34-1.92-1.5-.54-2.14-.11-4.45a.64.64 0 00-.53-.75l-3.59-.59a.63.62 3.7 00-.73.64l.17 5.19-.17.48a.5.5 0 01-.63.31q-.89-.3-1.16-1.33l-.25-4.6a.61.6-88.3 00-.53-.57l-4.01-.53a.57.56-88.4 00-.64.61l.43 5.34-.59.92a1.33 1.32 57.5 00-.19.87q.51 3.84 3.25 6.55a.63.62-48.5 01.05.85q-.3.36-.81.35c-4.28-4.92-3.84-9.31-3.32-14.8a1.25 1.25 0 011.21-1.14c2.56-.09 19.04.12 19.12 2.18a.56.56 0 01-.66.57l-3.76-.71a.49.49 0 00-.58.47l-.05 5.64z"/><path fill="#201f1f" d="M428.54 415l-5 .25-.43-5.34a.57.56-88.4 01.64-.61l4.01.53a.61.6-88.3 01.53.57l.25 4.6zM435.29 415.5q-2.39.58-4.79.04l-.17-5.19a.63.62 3.7 01.73-.64l3.59.59a.64.64 0 01.53.75q-.43 2.31.11 4.45z"/><path fill="#b7b7b7" d="M417.41 412.43q1.38 8.08 6.02 14.29a1.56 1.55-9.5 00.78.55l6.63 1.99q-1.54 1.88-3.4.25a.5.49 35.7 00-.75.12l-.84 1.46q-.34.58-.59-.05l-.4-1a2.01 1.98-82.2 00-.62-.83q-3.65-2.87-5.53-7.17-2.04-4.67-1.3-9.61z"/><path fill="#9b9d9f" d="M292.54 412.75c.23.27.31.48.63.66q28.72 15.93 57.29 32.11c1.5.85 2.08 2.16 1.91 3.75q-.85 7.94-.13 15.7a.71.71 0 01-.74.77c-2.95-.15-6.6 1.32-9.18-.21a.33.32 23 00-.48.19l-.08.29q-.15.57-.37.02-.28-.71-1.14-.82c.84-4.02 1.62-7.5.01-10.61a.89.88-11.9 00-.73-.47l-28.43-1.87q-8.27-3.97-16.4-8.22-.81-.43-2.41.21l.25-31.5zM425.25 424.79q.51.01.81-.35a.63.62-48.5 00-.05-.85q-2.74-2.71-3.25-6.55a1.33 1.32 57.5 01.19-.87l.59-.92 5-.25q.27 1.03 1.16 1.33a.5.5 0 00.63-.31l.17-.48q2.4.54 4.79-.04.35 1.84 1.92 1.5 2.01.75 4.16.16a.57.56 72.4 00.38-.74q-.54-1.47-.04-2.95.26-.75.5 0c1.15 3.63.18 10.18.12 14.16a.5.49.6 01-.51.49q-8.59-.25-16.57-3.33z"/><path fill="#fbfee1" d="M57.79 417.75q.67-.14 1.44.29 47.95 26.44 60.5 33.75c4.56 2.65 9.06 6.12 13.72 5.61q13.39-1.49 26.82-.76-26.05 2.01-52.1 2.95-.87.03-12.32.7c-5.72.33-11.94-.36-17.51.75a.74.73-5.8 00-.59.72v8.92a1.16 1.16 0 00.34.82q.96.95 2.91 1.2 17 2.17 26.25 2.57c6.66.29 14.46 2.16 21.71 1.96q14.05-.4 28.04-1.69 2.22-.21 6.12.05a.48.48 0 01.45.54q-.19 1.58-2.07 1.44c-6.71-.47-13.59.7-19.8.91-4.23.15-8.64.74-12.61.84q-13.61.34-27.19 1.29c-14.95 1.05-29.1 1.51-43.64 2.55a.46.46 0 01-.49-.46l.02-64.95z"/><path fill="#9b9d9f" d="M389.25 432.72c-2.65-1.33-1.48-9.67-1.19-12.22a.56.55 3.8 01.58-.5c1.91.1.96 10.77.93 12.53a.22.22 0 01-.32.19z"/><path fill="#b7b7b7" d="M410.18 441.53c.28-7.66-5.6-7.68-11.63-6.86a.5.49 23.9 01-.35-.9q3.8-2.61 8.51-2.49a1.54 1.53-22.9 011.02.41q4.28 3.89 3.08 9.91a.32.32 0 01-.63-.07z"/><path fill="#fff" d="M442.46 436.25l-.25 2.75-.48.37a1.38 1.35-64.1 01-.81.29q-5.32.1-6.13 5.44a1.32 1.32 0 001.25 1.52q1.24.05 2.13.9.46.44-.18.43c-8.95-.03-15.24 2.04-18.99 10.51l-1.75-.5c1.15-6.54 8.8-10.83 14.77-11.67a.7.69-88.2 00.58-.55c1.32-6.47 4.09-7.62 9.86-9.49z"/><path fill="#9b9d9f" d="M442.21 439l-.33 11q-.52-.54-.96-.5a.49.49 0 00-.45.5l.18 7.05a.32.32 0 00.47.27l.59-.32.13 5.23a.32.32 0 01-.47.3c-1.24-.65-1.73-1.36-3.19-1.47q-7.85-.58-11.63 6.21a1.19 1.18 50.7 00-.09.92l.41 1.26a1.51 1.51 0 010 .9c-1.2 3.74.73 4.89 1.58 8.13a.59.59 0 01-.42.72l-2.4.63a.65.64 76 01-.8-.49q-2.03-9.16-3.83-18.27-.38-1.93-2-2.61c3.75-8.47 10.04-10.54 18.99-10.51q.64.01.18-.43-.89-.85-2.13-.9a1.32 1.32 0 01-1.25-1.52q.81-5.34 6.13-5.44a1.38 1.35-64.1 00.81-.29l.48-.37z"/><path fill="#fbfee1" d="M311.1 452.26l-19.32.32q.8-4.58.51-8.33 1.6-.64 2.41-.21 8.13 4.25 16.4 8.22z"/><path fill="#9b9d9f" d="M408.99 450.08l.01-1.48q.01-1.48.58-.11.78 1.91-.08 2.03a.45.44-3.9 01-.51-.44z"/><path fill="#b7b7b7" d="M441.88 450l-.17 7-.59.32a.32.32 0 01-.47-.27l-.18-7.05a.49.49 0 01.45-.5q.44-.04.96.5z"/><path fill="#9b9d9f" d="M401.95 453.19q-.79-.12-.96-1.09a.46.46 0 01.61-.52l8.05 2.9a.12.12 0 01.04.2l-.18.19a.13.13 0 01-.14.03q-3.61-1.16-7.42-1.71z"/><path fill="#b7b7b7" d="M376.53 456.09a.94.92-79.7 01-.63-.93c.15-3.34 5.63 1.12 6.14 3.64.13.64 1.03 4.61.41 4.87a.17.17 0 01-.23-.12L381 458.2a1.18 1.17-87.3 00-.76-.84l-3.71-1.27z"/><path fill="#fff" d="M302.49 458.59c-14.62.39-30.31 1.09-45.47 1.89-12.31.65-22.3.43-37.73 1.42-14.11.9-27.35 1.19-41.05 1.56-3.18.09-6.58.63-9.93.83-20.87 1.19-41.2 2.09-61.94.54a.47.46-43.3 01.03-.93c32.13-.6 64.22-2.26 96.36-2.97 21.72-.48 43.33-2.35 65.04-2.65 7.48-.1 15.81-1.01 23.79-1.09 3.97-.04 9.57-.8 14.46-.26a.84.83 83.8 01.69.56c.58 1.8-3.64 1.08-4.25 1.1z"/><path fill="#b7b7b7" d="M296.94 463.56q-4.05.07-14.3 1.15c-13.8 1.45-31.31.89-41.39 1.81q-11.48 1.05-15.24 1.17-26.53.83-53.03 2.41c-5.46.32-15.01.45-23.16 1.23q-5.66.55-19.87 1a.57.57 0 01-.59-.57l.01-.43a.66.66 0 01.63-.66c29.14-1.33 58.66-2.46 87.46-4.09 15.05-.85 30.54-.99 43.54-2.13 15.92-1.38 29.24-1.82 43.83-2.24 7.3-.21 20.73-1.45 31.18-.97q.51.03 0 .08-19.5 1.92-39.07 2.24z"/><path fill="#9b9d9f" d="M421.98 480.88c-2.16-3.1-1.07-5.64-1.91-8.79q-1.27-4.75-1.94-9.63a.2.19 1.1 01.23-.22l.27.04a.06.05 7 01.05.05c.51 2.3 4.53 17.58 3.83 18.55a.33.32-44.6 01-.53 0zM439.75 465.65c-3.15-.4-5.87-.59-9.5 1.06q-.47.21-.22-.24 2.44-4.38 8.01-2.7 1.49.45 2.01 1.44.27.51-.3.44zM284.53 469.71q-1.18 12.12-.47 24.23.07 1.12-.3 3.38a.74.74 0 00.37.76q.4.22.9.27-1.55 2.79-4.82 1.49a1.18 1.16 89.2 01-.63-.62l-.29-.72q.04-5.9-.21-11.79c-.02-.48.32-1.17.31-1.52q-.22-7.34-.1-14.69l.28-.5a.78.76-74 01.68-.39l4.28.1z"/><rect fill="#fff" x="-43.68" y="-.83" transform="rotate(-3.1 8855.358 -3982.182)" width="87.36" height="1.66" rx=".61"/><path fill="#b7b7b7" d="M284.53 469.71l.5 28.64q-.5-.05-.9-.27a.74.74 0 01-.37-.76q.37-2.26.3-3.38-.71-12.11.47-24.23z"/><path d="M279.29 470.5q-.12 7.35.1 14.69c.01.35-.33 1.04-.31 1.52q.25 5.89.21 11.79-.55.66-.84.6a1.34 1.33 6.9 01-1.07-1.35q.46-13.4-.31-26.79a.89.88-20.8 01.35-.76q.93-.71 1.87.3z"/><path fill="#fbfee1" d="M372.25 498.21q2.33.56 4.73.15a.42.42 0 00.33-.55q-.68-1.96 1.12-1.99c-.2 1.64.16 2.45 1.91 2.54q13.5.7 26.91 2.43l.01.41a.44.43-87.1 01-.48.44q-10.25-.89-20.47-2.2c-2.56-.33-5.26 1.01-7.43 1.27q-4.77.6-12.88 1.27-30.38 2.55-60.75 5.16a1.75 1.71-33 01-.94-.19q-2.41-1.3-5.09-2.17c-2.45-.79-4.59-.03-7.26-.53l.29-25.71.37-3a.6.58-88.7 01.53-.52c4.26-.34 8.77-.31 12.7-.62q23.4-1.85 46.86-2.26a.49.48-.6 01.5.48q.07 11.23.04 22.61c-.01 6.95 15.5 4.44 19 2.98z"/><ellipse fill="#9b9d9f" transform="rotate(34.9 -561.808 849.906)" rx="2.45" ry=".52"/><path fill="#9b9d9f" d="M170.45 504.07q2.13-4.68 1.21-9.76-.08-.45-.02-.9l.41-3.28a.47.47 0 00-.7-.47q-.98.54-.89 1.09v-15.16a.6.59 0 01.6-.59h6.15a.46.46 0 01.45.53c-.08.6-.3 1.1-.29 1.72q.23 15.68-.54 31.52a.79.79 0 01-.87.75l-5.14-.48a.56.56 0 01-.51-.58l.14-4.39z"/><path fill="#fbfee1" d="M278.5 507.29q.01 1.2-.48 2.27a.86.85-79.9 01-.71.5c-19.08 1.27-38.02 2.97-57.06 4.7-11.16 1.02-23.19-1.71-34.25-3.47q-1.04.18-1.21-.79l.32-28.83a.56.56 0 01.52-.55c16.4-1.38 33.07-1.81 51.31-3.16q6.86-.51 16.09-.67c5.4-.09 12.18-1.13 18.35-.93a.53.53 0 01.52.52q.29 11.02-.16 24.61c-.12 3.56 4.28 4.3 6.76 5.8z"/><path fill="#9b9d9f" d="M484.54 476.75l.17 4.25q-.92-2.07-.17-4.25z"/><path d="M292.25 478.54l-.29 25.71-.46.29q-.31-.01-.57-.3a1.26 1.23 24.3 01-.33-.84l.16-24.3a.85.85 0 01.49-.77q.58-.26 1 .21z"/><path fill="#fbfee1" d="M162.71 505l-.2 6.59a1.08 1.05 73.5 01-.43.82q-.69.51-1 1.28a.76.75-62.2 00.28.91l3.57 2.43a1.45 1.38-26.5 00.81.25l3.83.06a.74.73-5.4 01.71.58q.18.85-.53 1.29c-22.35 1.18-45.09 3.42-75.48 6.14-8.98.8-17.13-.44-25.8-1.75-3.52-.54-6.73-.33-10.17-.06a.79.78 74.1 01-.76-.43q-.13-.26-.08-.61l.35-34.01a.71.7-1.8 01.65-.69c11.92-1 23.89-1.16 35.82-2 19.3-1.35 38.49-1.93 57.72-3.24q2.97-.2 10.43-.02a.52.51 1.1 01.51.52l-.23 21.94z"/><path fill="#fff" d="M378.5 494.79c-1.39-.73-3.79 1.18-5.75 1.17l.05-11.06a.65.64.4 01.66-.64l4.86.04a.7.69-89.6 01.69.71l-.08 9.32a.39.37-15 01-.2.33l-.23.13z"/><path fill="#9b9d9f" d="M484.51 486.67c25.99 7.12 53.05 4.6 79.18 5.33 1.88.05 12.27 1.12 12.31 3.46a1 1 0 01-1 1.02c-4.25 0-7.83-.19-12.14.85-5.53 1.34-9.27.57-15.29.5q-11.22-.13-22.25-2.19c-2.13-.39-4.1-1.36-6.15-1.59-11.46-1.24-23.98-1.66-37.17-2.84l-.7-.26q-.23-.08 0-.16 2.98-1.02 3.21-4.12zm69.16 10.11q.16.3.56.17a1.27 1.25 4.2 00.78-.66l.84-1.7a.79.79 0 00-.37-1.06q-.97-.46-2.15-.28a1.5 1.5 0 00-1.19 1.98q.34.96 1.28 1.32a.56.51 85.2 01.25.23zm12.76-2.15q1.91.88 3.81.16.88-.33-.06-.4c-1.83-.13-7.64-2.46-7.64.74a.69.69 0 00.41.63q1.73.75 2.58-.83a.7.7 0 01.9-.3z"/><path fill="#b7b7b7" d="M170.45 504.07l.01-13.32q-.09-.55.89-1.09a.47.47 0 01.7.47l-.41 3.28q-.06.45.02.9.92 5.08-1.21 9.76zM553.42 496.55q-.94-.36-1.28-1.32a1.5 1.5 0 011.19-1.98q1.18-.18 2.15.28a.79.79 0 01.37 1.06l-.84 1.7a1.27 1.25 4.2 01-.78.66q-.4.13-.56-.17a.56.51 85.2 00-.25-.23zM565.53 494.93q-.85 1.58-2.58.83a.69.69 0 01-.41-.63c0-3.2 5.81-.87 7.64-.74q.94.07.06.4-1.9.72-3.81-.16a.7.7 0 00-.9.3z"/><path fill="#9b9d9f" d="M378.5 494.79l-.07 1.03q-1.8.03-1.12 1.99a.42.42 0 01-.33.55q-2.4.41-4.73-.15l.5-2.25c1.96.01 4.36-1.9 5.75-1.17zM407.25 500.79l26.98 2.85a.53.53 0 00.58-.48l.21-2.32q28.5.62 41.73 1.42c13.08.79 26.85.99 37.66 1.56q12.83.67 25.57 1.05a.24.24 0 01.02.47c-100.43 11.43-200.87 22.13-301.25 33.69q-4.66.53-14.32-.17-54.15-3.91-108.32-7.66c-17.58-1.22-35.14.02-52.61-1.41q-3.94-.33-8.25-2.33l2.21-4.96q-.05.35.08.61a.79.78 74.1 00.76.43c3.44-.27 6.65-.48 10.17.06 8.67 1.31 16.82 2.55 25.8 1.75 30.39-2.72 53.13-4.96 75.48-6.14 5.85-.88 15.54 0 16.25-7.92 11.06 1.76 23.09 4.49 34.25 3.47 19.04-1.73 37.98-3.43 57.06-4.7a.86.85-79.9 00.71-.5q.49-1.07.48-2.27c4.57-.1 9.42.8 13-2.75l.46-.29c2.67.5 4.81-.26 7.26.53q2.68.87 5.09 2.17a1.75 1.71-33 00.94.19q30.37-2.61 60.75-5.16 8.11-.67 12.88-1.27c2.17-.26 4.87-1.6 7.43-1.27q10.22 1.31 20.47 2.2a.44.43-87.1 00.48-.44l-.01-.41z"/><path fill="#b7b7b7" d="M162.71 505c.15 4.61-1.27 9.13 4.56 10.95q8.09 2.54 15.9-.66a1.42 1.4-86.7 00.7-.63q1.03-1.91.92-4.16.17.97 1.21.79c-.71 7.92-10.4 7.04-16.25 7.92q.71-.44.53-1.29a.74.73-5.4 00-.71-.58l-3.83-.06a1.45 1.38-26.5 01-.81-.25l-3.57-2.43a.76.75-62.2 01-.28-.91q.31-.77 1-1.28a1.08 1.05 73.5 00.43-.82l.2-6.59z"/><path fill="#fff" d="M591 590.31v.69h-1.06l-.19-.71.5-.33.75.35z"/><path fill="#fbfee1" d="M589.75 590.29l.19.71h-12.75q-4.75-.63-9.5 0H24.44q-3.38-.63-6.75 0h-5.25q-5.63-.63-11.25 0h-.5l-.19-.47a.34.34 0 01.32-.47l588.93.23z"/><path fill="#201f1f" d="M12.44 591H1.19q5.62-.63 11.25 0z"/><path fill="#9b9d9f" d="M24.44 591h-6.75q3.37-.63 6.75 0z"/><path fill="#201f1f" d="M577.19 591h-9.5q4.75-.63 9.5 0z"/></svg>