<svg xmlns="http://www.w3.org/2000/svg" viewBox="0 0 591 591"><g stroke-width="2" fill="none"><path stroke="#cccdce" vector-effect="non-scaling-stroke" d="M591 2.56q.13-1.56-.87-2.23a.26.25 28.6 00-.38.11q-.05.11 0 .27"/><path stroke="#4c4e4f" vector-effect="non-scaling-stroke" d="M589.75.71q-.75.14-1.5.14Q294.13.97 0 .94"/><path stroke="gray" vector-effect="non-scaling-stroke" d="M0 589.94q3.03.07 6.06.07 291.82.25 583.52.24a.68.67 90 00.67-.68V1.25q0-.33-.5-.54"/><path stroke="#7e7f70" vector-effect="non-scaling-stroke" d="M585.5 5.52a.26.26 0 00-.26-.26H5.5a.26.26 0 00-.26.26v579.72a.26.26 0 00.26.26h579.74a.26.26 0 00.26-.26V5.52"/><path stroke="#fbf1c4" vector-effect="non-scaling-stroke" d="M49.07 25.18c-10.15.16-20.39 4.95-20.43 16.14-.05 15.43-.69 30.95.04 46.35a.97.97 0 001.65.65l62.88-61.9a.56.55-64.8 00-.34-.95c-14.62-1.1-29.2-.51-43.8-.29"/><path stroke="#8f9080" vector-effect="non-scaling-stroke" d="M310.8 194.96q-11.97.02-23.83.1c-6.08.05-12.7 11.85-14.45 16.37a.8.78-76.5 01-.8.5l-2.62-.22a1 1 0 00-.84.35q-7.64 9.07-15.42 18.03-.93 1.08-1.62 2.57a1.2 1.19 2.3 01-.69.63c-36.4 12.76-68.41 38-87.11 72.03q-2.99 5.44-5.97 10.88c-4.19 7.65-7.38 17.42-9.78 25.86q-5.15 18.1-5.61 39.94c-.89 43.09 15.09 82.84 45.22 113.97q2.91 3 12.72 11.9a.6.6 0 01.11.77c-4.36 6.97-9.14 13.75-12.23 21.41-2.34 5.79 1.27 10.91 7.39 11.1 8.81.28 22.52-10.78 28.84-16.59a.7.7 0 01.81-.1c48.19 26.22 105.32 25.88 153.32-.54a.67.66 52.3 01.79.11c6.63 6.6 21.34 18.69 30.54 17.85 8.31-.76 9.02-8.09 5.8-14.17q-5.49-10.34-12.2-19.99a.72.71 52.4 01.12-.96c26.71-22.31 46.74-53.27 53.87-87.43 3.66-17.58 5.61-37.45 2.59-55.12"/><path stroke="#7e7f70" vector-effect="non-scaling-stroke" d="M459.75 364.21q-1.72-13.95-5.54-27.46"/><path stroke="#8f9080" vector-effect="non-scaling-stroke" d="M454.21 336.75c-15.2-49.15-51.73-85.62-99.83-103.06a1.78 1.78 0 01-.84-.64l-14.82-20.56a.75.74 71.2 00-.62-.31l-2.84.05a.73.72-5.6 01-.73-.59q-1.42-7.3-5.07-13.79c-2.46-4.38-10.27-1.82-14.71-2.63"/><path stroke="#caccbe" vector-effect="non-scaling-stroke" d="M314.75 195.22c3.59-20.68 19.08-52.25 45.18-30.31 19.61 16.49 53.22 7.33 53.08-21.81-.08-16.01-12.89-32.29-28.14-36.76q-35.39-10.37-62.25 14.61c-3.2 2.97-5.94 7.15-8.87 10.76a.35.34-39.4 01-.57-.05c-6.89-12.47-13-23.56-29.31-21.67-4.55.53-7.64 2.86-10.58 6.14a.97.96-66.1 01-.82.32c-14.83-1.59-45.96.87-44.77 23.02.69 12.95 14.04 17.76 24.93 14.25 10.8-3.49 20.29-6.74 30.1.89a.36.36 0 01-.27.64c-5.65-.73-11.79-1.12-16.99 1.29-7.25 3.35-13.55 9.36-14.62 17.73-2.12 16.56 18.11 19.8 28.62 12.18 4.51-3.27 8.2-9.02 14.3-3.68 3.64 3.18 2.18 5.85 2.79 9.95q.33 2.24 2.55 1.79 6.03-1.23 11.69.45"/><path stroke="#5e5f5f" vector-effect="non-scaling-stroke" d="M314.75 195.22q-1.63.66-3.95-.26"/><path stroke="#121111" vector-effect="non-scaling-stroke" d="M454.21 336.75q-1.46-.37-1.24.75 2.46 12.38 5.12 24.67.33 1.54 1.66 2.04"/><path stroke="#caccbe" vector-effect="non-scaling-stroke" d="M155.9 165.04c-5.13 6.48-8.3 18.52 4.2 19.3 8.7.55 16.45-10 18.54-17.29 2.6-9.04 5.16-15.39 12.9-21.24q2.08-1.57 3.06-2.45.38-.35-.13-.29c-15.25 1.58-29.13 10.05-38.57 21.97M202.06 169.32c-6.52 9.71 9.78 16.22 15.62 6.15q1.59-2.74 1.6-4.71.05-7.44 1.93-14.13a.61.6-6.8 00-.88-.69c-7.03 3.99-13.72 6.59-18.27 13.38M430.71 197.5c4.47 12.8 22.18 6.52 18.73-5.47-3.6-12.54-15.36-21.48-27.53-25.8a.49.49 0 00-.5.81q5.45 5.26 7.35 12.31c1.49 5.54-.02 12.51 1.95 18.15M225.94 199.06c5.37 3.38 10.55-1.38 11.04-6.56.61-6.42 2.78-7.95 6.29-12.92a.42.42 0 00-.45-.65c-4.69 1.17-10.43 2.31-13.99 5.08-4.09 3.17-9.25 11.05-2.89 15.05M389.45 191.07c3.14 8.15 1.3 15.83 1.07 24.25-.17 5.99 6.47 12.05 11.75 8.01 7.37-5.63 2.66-19.11-1.67-25.16-4.02-5.63-9.34-12.51-15.07-16.29a.39.39 0 00-.57.5c1.39 2.96 3.49 6.09 4.49 8.69M202.55 200.09c1.91 4.4 6.75 4.28 9.06.45.97-1.6.59-3.05.75-4.87.26-2.89 2.25-5.8 3.44-8.48a.65.64-88.1 00-.81-.87c-4.93 1.83-15.46 6.8-12.44 13.77M172.94 226.44c.49 4.65 4.3 7.59 8.81 6.72 6.01-1.17 7.83-9.47 7.05-14.58-1.06-7-1.11-11.36 1.25-17.92q.77-2.16-.96-.66c-8.18 7.08-17.39 14.8-16.15 26.44M431.85 233.34c3.41-4.8-1.91-14.14-5.43-17.3-2.34-2.1-6.05-3.65-9.03-5.55a.22.22 0 00-.32.29q2.88 5.51 2.89 11.72c.01 2.72-.38 6.47.78 8.79 2.05 4.11 7.92 6.53 11.11 2.05"/><path stroke="#5e5f5f" vector-effect="non-scaling-stroke" d="M285.92 201.59c-3.04 2.34-5.27 6.26-6.97 9.52a.58.58 0 00.52.85q8.05-.02 15.42-.11c5.38-.07 10.92-2.89 15.11-3.12q1.86-.1 1.67-2.46c-.46-5.67-2.95-4.96-7.85-5.03q-8.53-.11-17.01.04a1.43 1.43 0 00-.89.31"/><path stroke="#6d6c6c" vector-effect="non-scaling-stroke" d="M292 217.95c-1.69-.05-3.99 4.65-5.61 6.81q-.8 1.07.49.75l3.07-.74a1.11 1.11 0 00.81-.77l1.61-5.54a.4.39-81.1 00-.37-.51"/><path stroke="#5e5f5f" vector-effect="non-scaling-stroke" d="M265.75 228.96l10.93-2.03"/><path stroke="#6d6c6c" vector-effect="non-scaling-stroke" d="M276.68 226.93q4.57-3 6.27-8.33a.48.48 0 00-.46-.63l-11.41.18a1.75 1.74 15.4 00-1.44.81q-3.57 5.67-8.31 10.37-.51.51.2.38l4.22-.75"/><path stroke="#a8a9aa" vector-effect="non-scaling-stroke" d="M276.68 226.93q-.8-1.73.69-2.25a1.48 1.46 8.5 00.74-.54l2.15-2.95a1.14 1.14 0 00-.79-1.8q-3.78-.44-7.19.61c-2.56.78-7.05 6.22-6.53 8.96"/><path stroke="#5e5f5f" vector-effect="non-scaling-stroke" d="M299.28 218.74l-.84 4.22q-.2 1.02.7.5 5.09-3.01 11.02-2.7a.67.67 0 00.71-.67v-1.53a.56.56 0 00-.56-.56h-10.13a.92.91 5.3 00-.9.74"/><path stroke="#6d6c6c" vector-effect="non-scaling-stroke" d="M148.54 372.25q-1.21 12.46-.26 24.9c.36 4.79 1.44 10 2.27 15 1.34 8.09 4.16 15.82 6.2 23.85q.87 3.43 5.13 9.97"/><path stroke="#5e5f5f" vector-effect="non-scaling-stroke" d="M161.88 445.97q.18 3.4 2.46 5.97"/><path stroke="#6d6c6c" vector-effect="non-scaling-stroke" d="M164.34 451.94q.19 1.32.97 2.75 6.48 11.82 13.44 21.6"/><path stroke="#5e5f5f" vector-effect="non-scaling-stroke" d="M178.75 476.29l3.21 3.96"/><path stroke="#6d6c6c" vector-effect="non-scaling-stroke" d="M181.96 480.25q12.92 16.73 30.29 28.79"/><path stroke="#5e5f5f" vector-effect="non-scaling-stroke" d="M212.25 509.04q21.65 14.92 47.18 22.85a.42.42 0 00.36-.75l-7.18-4.86a.4.4 0 010-.66q.45-.3 1.14-.16"/><path stroke="#6d6c6c" vector-effect="non-scaling-stroke" d="M253.75 525.46q22.92 6.9 46.79 7.5c8.23.21 16.46-1.17 24.7-2.53q50.55-8.33 85.47-45.43"/><path stroke="#121111" vector-effect="non-scaling-stroke" d="M410.71 485q.22.76.97.92a.9.9 0 00.84-.25q2.82-2.92 5.56-5.92c4.11-4.48 7.36-9.84 10.8-14.9 6.78-9.97 10.74-20.32 15.42-32.78q1.7-4.51 1.56-7.46a.56.56 0 00-.58-.53q-.25.01-.49.17"/><path stroke="#6d6c6c" vector-effect="non-scaling-stroke" d="M444.79 424.25q6.23-25.02 4.25-50.75"/><path stroke="#121111" vector-effect="non-scaling-stroke" d="M449.04 373.5q1.51-.44 1.42-2c-.52-8.97-1.35-18.63-3.77-27.3q-.89-3.17.61-6.19"/><path stroke="#6d6c6c" vector-effect="non-scaling-stroke" d="M447.3 338.01q.01-3.58-1.34-6.97c-12.22-30.56-31.64-57.48-60.71-74.83"/><path stroke="#5e5f5f" vector-effect="non-scaling-stroke" d="M385.25 256.21l-4.2-2.63"/><path stroke="#6d6c6c" vector-effect="non-scaling-stroke" d="M381.05 253.58q-12.98-8.06-27.26-13.08"/><path stroke="#5e5f5f" vector-effect="non-scaling-stroke" d="M353.79 240.5q-1.68-.94-3.54-1.51-16.29-5.01-33.13-7.14c-35.52-4.48-73.55 7.25-102.89 26.97-27.2 18.28-45.93 44.52-57.28 75.38q-7.05 19.16-8.41 38.05"/><path stroke="#a8a9aa" vector-effect="non-scaling-stroke" d="M353.79 240.5q-.36.81-.34 1.22a1.67 1.66-86.6 001.39 1.57c5.19.88 8.89 2.01 13.32 5.3q3.53 2.61 7.85 3.77a1.52 1.51 78.3 01.79.52q1.84 2.24 4.25.7M385.25 256.21l-.36.04a.44.43-2.3 00-.39.42q-.05 1.36 1.44 2.15c4.64 2.46 8.55 6.27 13.02 9.36 9.17 6.33 17.75 16.27 24.6 25.02.73.93 1.29 2.68 2.06 3.65q9.54 11.97 13.89 26.75"/><path stroke="#4c4e4f" vector-effect="non-scaling-stroke" d="M439.51 323.6l5.99 23.86"/><path stroke="#a8a9aa" vector-effect="non-scaling-stroke" d="M445.5 347.46q-1.6-.2-2.29 1.04"/><path stroke="#5e5f5f" vector-effect="non-scaling-stroke" d="M443.21 348.5q-5.53-19.93-15.49-38.07-.24-.45-.13.05c1.26 5.73 4.64 11.74 6.08 15.97q2.55 7.5 4.5 15.04"/><path stroke="#a8a9aa" vector-effect="non-scaling-stroke" d="M438.17 341.49q-.02 8.22 1.57 16.29.45 2.31.51 4.99c.1 4.24 1.03 8.78 1.01 12.5-.04 7.58.05 15.13-1.2 22.56q-1.32 7.8-3.04 15.53a.57.57 0 00.41.67q.26.07.53-.03"/><path stroke="#5e5f5f" vector-effect="non-scaling-stroke" d="M437.96 414l-1.67 5.5"/><path stroke="#a8a9aa" vector-effect="non-scaling-stroke" d="M436.29 419.5q-.26-.97-1.28-.83a.82.82 0 00-.67.56c-2.33 7.23-3.07 14-6.94 20.14-3.4 5.41-4.91 10.95-8.97 16.31-1.52 2-2.2 4.53-3.69 6.45q-7.32 9.48-15.51 18.78a.47.47 0 00.31.78l.96.1"/><path stroke="#5e5f5f" vector-effect="non-scaling-stroke" d="M400.5 481.79c-27.54 27.21-67.08 44.12-106.12 41.77-7.86-.47-15.34-1.03-23.13-2.35"/><path stroke="#a8a9aa" vector-effect="non-scaling-stroke" d="M271.25 521.21c.68-.95.25-1.63-.8-1.87q-8.52-1.9-17.16-3"/><path stroke="#5e5f5f" vector-effect="non-scaling-stroke" d="M253.29 516.34c-5.49-.84-10.21-3.1-15.55-4.66-8.16-2.39-16.92-7.82-24.12-12.32q-1.58-.99-2.81-1.06-.57-.04-.11.3 16.91 12.48 36.06 20.86"/><path stroke="#a8a9aa" vector-effect="non-scaling-stroke" d="M246.76 519.46q1.58 3.52 5.41 4.06a1.03 1.02 78.6 01.73.49l.85 1.45M212.25 509.04c1.4-1.51.55-2.93-1.01-3.81q-7.29-4.13-13.1-10.15c-1.42-1.46-3.41-1.93-4.77-3.51q-4.98-5.8-10.21-11.35a.85.83 59.5 00-.85-.23q-.21.07-.35.26M178.75 476.29l.27-.47a.88.87 44.4 00-.02-.9c-1.9-3.04-3.9-5.47-5.48-8.86q-2.28-4.9-5.77-9.09-.32-.38-.43-.86-.64-2.72-2.98-4.17M161.88 445.97q-1.09-6.23-4.36-11.73c-.4-.67-.3-1.6-.13-2.3q.11-.48-.01-.95-1.67-6.55-3.76-12.99c-2.88-8.88-1.44-17.75-4-26.74-1.59-5.58-.59-12.15.05-17.85a.95.95 0 00-.32-.83q-.32-.3-.81-.33"/><path stroke="#5c5b5c" vector-effect="non-scaling-stroke" d="M447.3 338.01c-1.59-3.58-3.61-6.61-5.36-10.17q-1.06-2.14-2.43-4.24M449.04 373.5q-.56-13.18-3.54-26.04"/><path stroke="#6d6c6c" vector-effect="non-scaling-stroke" d="M443.21 348.5c9.58 38.8 3.27 75.87-16.39 109.8-7.93 13.69-19.54 27.02-31.23 36.8q-52.8 44.13-122.49 32.27c-1.58-.27-3.58-1.03-5.53-1.44q-9.98-2.1-20.81-6.47M253.29 516.34q8.8 3.4 17.96 4.87M400.5 481.79q25.57-26.68 35.79-62.29M437.96 414c6.18-24.39 6.66-48.75.21-72.51"/><path stroke="#5c5b5c" vector-effect="non-scaling-stroke" d="M444.79 424.25q-2.05 8.15-5.54 15.78c-3.02 6.6-5.84 13.53-9.42 19.46q-8.27 13.69-19.12 25.51"/><path stroke="#5e5f5f" vector-effect="non-scaling-stroke" d="M288.72 239.41c-43.76 4.42-83.18 27.33-107.88 63.59-14.1 20.69-21.86 45.74-25.13 70.25"/><path stroke="#cccdce" vector-effect="non-scaling-stroke" d="M155.71 373.25q-1.12-.32-1.16.5-.64 11.78-.19 23.73a.49.49 0 00.81.35q.54-.47.62-1.08"/><path stroke="#5e5f5f" vector-effect="non-scaling-stroke" d="M155.79 396.75l1.67 10.25"/><path stroke="#a8a9aa" vector-effect="non-scaling-stroke" d="M157.46 407q-.9-.52-1.82-.24a.41.41 0 00-.22.6c1.57 2.52 1.01 5.04 1.72 7.37.98 3.24 1.36 6.63 3.09 9.57 1.33 2.24.97 4.91 1.7 7.01q1.44 4.09 2.73 8.23c.74 2.39 2.43 4.29 3.45 6.68a.95.94-5.2 00.69.57q.57.11.91-.54"/><path stroke="#5e5f5f" vector-effect="non-scaling-stroke" d="M169.71 446.25q.6 1.68 2.08 2.5"/><path stroke="#a8a9aa" vector-effect="non-scaling-stroke" d="M171.79 448.75q1.57 1.43 3.14 2.85c2.29 2.08 9.95 19 13.11 17.15"/><path stroke="#5e5f5f" vector-effect="non-scaling-stroke" d="M188.04 468.75l4.28 4.15q.52.5.19-.14c-4.14-8.01-9.42-16.39-12.53-23.95-6.25-15.21-8.83-30.51-9.69-47.13a.13.02 89.1 01.02-.12l.25-.08a.11.1-11 01.14.09c1.02 10.43 4.04 18.49 6.34 27.88q1.06 4.37 8.21 17.51"/><path stroke="#a8a9aa" vector-effect="non-scaling-stroke" d="M185.25 446.96c-2.11.98.34 4.71 1.16 5.87 1.42 2 9.96 16.36 11.44 16.03a.72.72 0 01.75.28c10.59 14.35 26.17 25.74 41.92 33.84 2.47 1.27 6.56 4.13 9.91 5.11q8.59 2.53 17.06 5.43 1.37.47 3.57.46a.72.71 9 00.68-.49q.08-.23.05-.49"/><path stroke="#5e5f5f" vector-effect="non-scaling-stroke" d="M271.79 513l21.21 2.96"/><path stroke="#a8a9aa" vector-effect="non-scaling-stroke" d="M293 515.96q-1.06.67-.9 1.77a.64.63 87.8 00.59.55c5.25.31 9.54.33 15.35-.33 3.5-.4 7.33-.43 11.39-1.41 4.15-1.01 9.9.08 13.99-2.59q2.02-1.31 6.12-2.16a.64.64 0 00.51-.64q-.01-.39-.3-.69"/><path stroke="#5e5f5f" vector-effect="non-scaling-stroke" d="M339.75 510.46q5.52-2.38 11.33-3.53"/><path stroke="#a8a9aa" vector-effect="non-scaling-stroke" d="M351.08 506.93q9.66-1.77 17.47-7.64c2.61-1.97 5.87-3.27 8.5-5.54a.83.82 62.2 00.26-.85q-.11-.37-.56-.44"/><path stroke="#5e5f5f" vector-effect="non-scaling-stroke" d="M376.75 492.46q13.56-10.03 24.96-22.46"/><path stroke="#a8a9aa" vector-effect="non-scaling-stroke" d="M401.71 470q-.04.46.86.51a1.33 1.32-70 001.11-.52q10.15-13.28 18.17-27.72c1.49-2.69 2.03-5.87 3.46-8.73q2.46-4.95 2.93-6.33c7.66-22.82 9.14-49.93 3.26-73.14-.87-3.44-1.75-8.29-3.57-12.36-1.17-2.62-1.38-5.56-2.87-8.22-1.52-2.68-1.45-5.79-2.65-7.65-4.84-7.52-9.37-15.36-14.91-22.27q-3.9-4.86-7.87-9.68a.96.95-22.9 00-.85-.34q-.58.06-.82.7"/><path stroke="#5e5f5f" vector-effect="non-scaling-stroke" d="M397.96 294.25c-17.72-17.96-35.28-29.51-60.2-36.17q-.53-.15-.05-.42.79-.43 1.81-.23 12.87 2.6 25.02 7.57 2.53 1.04 6.9 1.46.44.05.04-.15-.88-.43-2.76-1.58-19.66-12.05-43.68-13.77-.51-.04-.01-.09c17.19-1.72 38.71 4.91 53.47 12.34"/><path stroke="#a8a9aa" vector-effect="non-scaling-stroke" d="M378.5 263.21q-.46.12-.65.48a.72.71 35.4 00.15.84q3.29 3.11 7.78 3.21"/><path stroke="#5e5f5f" vector-effect="non-scaling-stroke" d="M385.78 267.74q5.45 2.36 10.3 6.25a.05.04-49.7 00.06-.01l.22-.2a.32.31 44.4 00-.01-.46c-4.48-4.11-9.99-7.34-14.4-10.24q-35.8-23.47-79.2-24.12"/><path stroke="#a8a9aa" vector-effect="non-scaling-stroke" d="M302.75 238.96q.22-1.31-1.26-1.4-7.07-.43-12.77 1.85"/><path stroke="#6d6c6c" vector-effect="non-scaling-stroke" d="M302.75 238.96l-14.03.45M385.78 267.74l-7.28-4.53M397.96 294.25q14.42 14.87 23.11 33.69c8.58 18.6 12.3 35.69 12.52 55.55.34 31.86-11.4 62.17-31.88 86.51M376.75 492.46q-12.26 7.99-25.67 14.47M339.75 510.46q-22.83 7.18-46.75 5.5M271.79 513q-57.75-14.28-86.54-66.04M188.04 468.75c-7.99-9.21-11.86-19.56-16.48-30.61-1.78-4.26-2.48-8.62-3.54-13.09q-.16-.67-.64-1.17-.39-.4-.31.15c.68 5.21.41 10.39 1.75 15.25q1.33 4.8 2.97 9.47M169.71 446.25q-4.51-8.39-5.75-12.99c-2.37-8.78-5.4-16.6-6.5-26.26"/><path stroke="#919190" vector-effect="non-scaling-stroke" d="M155.79 396.75q-1.13-11.74-.08-23.5"/><path stroke="#6d6c6c" vector-effect="non-scaling-stroke" d="M175.71 389q.6 9.69 2.33 19.25"/><path stroke="#5e5f5f" vector-effect="non-scaling-stroke" d="M178.04 408.25q3.88 20.54 14.92 38.25"/><path stroke="#919190" vector-effect="non-scaling-stroke" d="M192.96 446.5c17.75 34.85 55.17 57.13 93 62.7 39.08 5.74 83.86-12.35 109.46-41.91 28.84-33.3 39.95-78.24 26.04-120.29"/><path stroke="#6d6c6c" vector-effect="non-scaling-stroke" d="M421.46 347c-2.95-12.34-10.77-25.43-18-35.82"/><path stroke="#5e5f5f" vector-effect="non-scaling-stroke" d="M403.46 311.18c-11.38-17.42-28.38-29.77-47.46-39.89"/><path stroke="#6d6c6c" vector-effect="non-scaling-stroke" d="M356 271.29q-8.54-3.75-17.5-6.33"/><path stroke="#5e5f5f" vector-effect="non-scaling-stroke" d="M338.5 264.96q-13.62-4.64-28-5.67"/><path stroke="#6d6c6c" vector-effect="non-scaling-stroke" d="M310.5 259.29q-5.08-.62-10.31.01"/><path stroke="#5e5f5f" vector-effect="non-scaling-stroke" d="M300.19 259.3q-4.95-.7-11.5.38c-17.43 2.88-34.2 7.55-49.35 16.11q-39.02 22.05-55.2 65.13c-5.76 15.33-9.93 31.82-8.43 48.08"/><path stroke="#a8a9aa" vector-effect="non-scaling-stroke" d="M300.19 259.3q5.58 1.32 9.75 1.12.87-.05.56-1.13M338.5 264.96q-.34.14-.45.39a.56.56 0 00.28.73c5.4 2.47 11.26 2.89 16.35 6.11a.93.93 0 001.22-.2q.19-.25.1-.7M403.46 311.18q-1.2 1.54.37 3.74 6.02 8.44 11.31 20.21"/><path stroke="#cccdce" vector-effect="non-scaling-stroke" d="M415.14 335.13q-2.79-3.96-5.5-7.86c-3.84-5.51-8.06-10.27-12.41-15.21-4.39-4.99-9.8-8.78-14.96-13.09q-6.6-5.53-17.48-11.72"/><path stroke="#5e5f5f" vector-effect="non-scaling-stroke" d="M364.79 287.25c.11-5.24-5.08-7.06-9.29-4.96"/><path stroke="#cccdce" vector-effect="non-scaling-stroke" d="M355.5 282.29q-4.04-.78-7.93-2.1c-7.35-2.49-14.06-4.12-21.19-5.83"/><path stroke="#5e5f5f" vector-effect="non-scaling-stroke" d="M326.38 274.36c-1.75-6.99-8.7-10.31-15.34-8.92q-4.19.88-8.45.01"/><path stroke="#a8a9aa" vector-effect="non-scaling-stroke" d="M302.59 265.45q-4.08 2.78-3.34 8.01"/><path stroke="#cccdce" vector-effect="non-scaling-stroke" d="M299.25 273.46q-2.42.44-4.91-.1a.52.51 6.3 01-.41-.5l-.06-7.85a.85.83 9.9 00-.57-.79q-.4-.13-.84.28"/><path stroke="#5e5f5f" vector-effect="non-scaling-stroke" d="M292.46 264.5c-1.83-.68-10.31 3.06-12.84 3.73a.78.78 0 00-.59.76v.96q-.01 2.04 1.94 1.46l3.78-1.12"/><path stroke="#4c4e4f" vector-effect="non-scaling-stroke" d="M284.75 270.29l-.04 5.46"/><path stroke="#cccdce" vector-effect="non-scaling-stroke" d="M284.71 275.75q-16.91 2.99-32.3 10.41"/><path stroke="#5e5f5f" vector-effect="non-scaling-stroke" d="M252.41 286.16q-.97-3.42-3.66-4.95"/><path stroke="#a8a9aa" vector-effect="non-scaling-stroke" d="M248.75 281.21q-1.12-3.22-4.52-1.92-7.42 2.84-4.2 10.12"/><path stroke="#5e5f5f" vector-effect="non-scaling-stroke" d="M240.03 289.41q1.38.8 1.97 1.8"/><path stroke="#cccdce" vector-effect="non-scaling-stroke" d="M242 291.21c-12.18 10.17-23.37 17.97-33.71 31.94"/><path stroke="#5e5f5f" vector-effect="non-scaling-stroke" d="M208.29 323.15q-10.13-3.99-9.61 6.82"/><path stroke="#cccdce" vector-effect="non-scaling-stroke" d="M198.68 329.97c-1.72 1 1.32 2.99 1.78 4.48a1.16 1.16 0 01-.11.93q-7.68 13.23-12.04 27.89-.29.96-.27 1.98"/><path stroke="#5e5f5f" vector-effect="non-scaling-stroke" d="M188.04 365.25q-4.02 2.28-6.29 6.29"/><path stroke="#cccdce" vector-effect="non-scaling-stroke" d="M181.75 371.54q-.52-.16-.94-.05a.94.93-87 00-.66.6q-1.69 4.83-.07 9.6c1.17 3.46 4.08 3.49 3.92 8.04q-.59 16.19.05 20.51 2.58 17.31 8.73 33.68c.29.78.23 1.78.18 2.58"/><path stroke="#a8a9aa" vector-effect="non-scaling-stroke" d="M178.04 408.25l1.01-.29a.55.55 0 00.39-.66q-2.33-9.15-1.7-18.6a.62.61 8.8 00-.48-.64q-1.11-.25-1.55.94"/><path stroke="#6d6c6c" vector-effect="non-scaling-stroke" d="M315.31 272.88c-4.02-2.79-7.9-3.18-11.81.33M299.96 273.5q.67-3.83 2.63-8.05"/><path stroke="#dbdbdb" vector-effect="non-scaling-stroke" d="M299.25 273.46l.71.04"/><path stroke="#919190" vector-effect="non-scaling-stroke" d="M299.96 273.5q-.01 1.2.63 2.05a.45.45 0 00.68.04l2.23-2.38"/><path stroke="#dbdbdb" vector-effect="non-scaling-stroke" d="M303.5 273.21q5.21.37 11.81-.33"/><path stroke="#919190" vector-effect="non-scaling-stroke" d="M315.31 272.88q2.81 9.75-4.94 16.5-5.69 4.95-11.29 9.98c-1.8 1.62-1.02 3.79 1.58 3.68q10.54-.45 21.08.08c4.32.22 6.42-4.21 5.74-7.79a1.1 1.1 0 00-1.87-.57l-3.51 3.58a1.36 1.35-67.7 01-.97.41l-14.64-.05a.68.68 0 01-.38-1.24c9.07-6.16 17.95-12.5 20.27-23.1M355.5 282.29c-7.86 9.6 8.19 16.27 9.29 4.96"/><path stroke="#dbdbdb" vector-effect="non-scaling-stroke" d="M415.14 335.13q1.49 5.44 5.03 9.9c.47.59.58 1.42.82 2.13a.16.16 0 00.27.06l.2-.22"/><path stroke="#919190" vector-effect="non-scaling-stroke" d="M181.75 371.54q-3.86 13.3 7.52 16.65c4.36 1.28 8.96.05 12.4-2.68q.65-.52.65.31c-.03 11-6.63 12.65-15.73 14.17a.59.58 84.9 00-.49.59q.04 2.32 2.65 2.35c7.5.1 17.6-3.88 20.43-11.24 6.03-15.73-1.62-33.35-21.14-26.44M198.68 329.97c5.25 9.28 15.64 1.35 9.61-6.82M242 291.21q8.66 4.52 10.41-5.05"/><path stroke="gray" vector-effect="non-scaling-stroke" d="M284.71 275.75q.46 10.89-.42 21.75M292.46 298.5q-.41-12.36.29-24.71"/><path stroke="#919190" vector-effect="non-scaling-stroke" d="M292.46 264.5q1.31 4.6.29 9.29"/><path stroke="#121111" vector-effect="non-scaling-stroke" d="M292.75 273.79q-.38-.68-1.02-.49a.75.74-6.7 00-.53.67q-.86 13.96-.21 23.78.07 1.16 1.47.75"/><path stroke="#919190" vector-effect="non-scaling-stroke" d="M292.46 298.5q1.16 1.46 3.03 1.5a.83.83 0 01.8.67l.26 1.32a.64.64 0 01-.63.77l-14.36-.02a1.05 1.03-17.9 01-.84-.42c-1.33-1.81 3.1-2.25 3.57-4.82"/><path stroke="#121111" vector-effect="non-scaling-stroke" d="M284.29 297.5q.82.53 1.63.37a.63.63 0 00.5-.63q-.37-18.16-.21-24.42.07-2.44-1.46-2.53"/><path stroke="#6d6c6c" vector-effect="non-scaling-stroke" d="M248.75 281.21q-5.37-2.16-8.19 2.6-.91 1.55-.53 5.6"/><path stroke="#919190" vector-effect="non-scaling-stroke" d="M308.75 370.4a1.51 1.51 0 01-.84-1.4q.91-25.56.32-51.15a1.73 1.64-63.9 00-.29-.92l-5.18-7.53a.29.28 49.7 00-.44-.04l-7.06 7.5a1.04.99-25.2 00-.28.72q.25 16.6-.76 33.17-.05.73-.33.06c-1.17-2.75-1.82-6.16-2.68-8.55q-7.71-21.27-15.03-42.71-1.84-5.4-7.9-7.84a.43.43 0 00-.58.31c-.95 4.74-1.95 6.27-.26 11.14q11.8 34.08 23.91 68.16a.72.71 60.1 01-.21.79q-5.95 5.18-6.58 12.47c-1.07 12.45 11.43 22.65 23.14 17.6 13.52-5.84 14.27-25.26 1.05-31.78"/><path stroke="gray" vector-effect="non-scaling-stroke" d="M397.411 333.964a5.9 5.61 120.1 007.813-2.29 5.9 5.61 120.1 00-1.895-7.918 5.9 5.61 120.1 00-7.813 2.29 5.9 5.61 120.1 001.895 7.918"/><path stroke="#919190" vector-effect="non-scaling-stroke" d="M407.65 380.82c1.7-1.81 4.07-3.04 5.28-4.83 3.05-4.48.42-8.6-4.01-10.5q-5.86-2.52-12.05.51a1.03 1.03 0 01-1.01-.05l-2.39-1.47a.59.59 0 00-.7.06q-3.95 3.49-4.45 8.73a1.16 1.16 0 001.92.99c3.8-3.3 6.99-5.52 12.26-3.68 2.83.99 4.78 3.88 3.15 6.68-2.77 4.73-11.32 2.25-11.01 7.68a.64.63 2.8 00.54.59c4.09.67 9.88-.41 12.14 4.47 1.65 3.54-1.83 8.67-5.3 9.5q-7.08 1.7-13.65-2.32a.74.74 0 00-1.06.33c-.59 1.3.27 2.78 1.55 3.42 6.82 3.38 18.32 4.04 24.24-1.58 6.31-5.99 3.49-16.38-5.3-18.07q-.49-.1-.15-.46M209.55 441.11a5.76 5.76 0 00-5.76-5.76 5.76 5.76 0 00-5.76 5.76 5.76 5.76 0 005.76 5.76 5.76 5.76 0 005.76-5.76M405.31 441.49a5.82 5.82 0 00-5.82-5.82 5.82 5.82 0 00-5.82 5.82 5.82 5.82 0 005.82 5.82 5.82 5.82 0 005.82-5.82M296.75 482.19c-1-8.84 9.06-14.27 16.59-14.37 1.06-.02 1.94-.5 1.67-1.67a1.03 1.01-84.3 00-.58-.72q-1.82-.81-2.97-.76-19.47.81-23.38 17.89c-2.56 11.14 4.24 20.76 16.06 20.94 16.15.26 19.79-21.45 4.62-24q-5.75-.97-11.54 2.91a.3.3 0 01-.47-.22"/><path stroke="gray" vector-effect="non-scaling-stroke" d="M243.805 488.38a5.97 5.58 99.4 006.48-4.979 5.97 5.58 99.4 00-4.53-6.8 5.97 5.58 99.4 00-6.48 4.978 5.97 5.58 99.4 004.53 6.8"/><path stroke="#919190" vector-effect="non-scaling-stroke" d="M358.026 488.798a6 5.53 88.7 005.393-6.123 6 5.53 88.7 00-5.665-5.874 6 5.53 88.7 00-5.393 6.125 6 5.53 88.7 005.665 5.873"/><path stroke="#6d6c6c" vector-effect="non-scaling-stroke" d="M273.099 299.16a2.09 2.09 0 00-2.668-1.272l-.32.113a2.09 2.09 0 00-1.273 2.668l11.923 33.671a2.09 2.09 0 002.668 1.272l.32-.113a2.09 2.09 0 001.273-2.668L273.1 299.16M300.93 345.28l.79 1.25q.74 1.16.77-.56.03-1.57 1.6-1.69a.69.69 0 00.64-.65q.71-11.24.49-22.5c-.07-3.72-5.46-5.43-5.78-.79-.23 3.38-1.44 22.74.78 24.22q.43.28.71.72"/><path stroke="#5e5f5f" vector-effect="non-scaling-stroke" d="M296.98 335.03a.4.4 0 00.28-.73l-.94-.6a.32.32 0 00-.44.1l-.28.47a.39.38 20.2 00.27.58l1.11.18"/><path stroke="#6d6c6c" vector-effect="non-scaling-stroke" d="M291.011 356.274a8.73 2.23 70.8 00-.765-8.977 8.73 2.23 70.8 00-4.977-7.511 8.73 2.23 70.8 00.765 8.977 8.73 2.23 70.8 004.977 7.511"/><path stroke="#5e5f5f" vector-effect="non-scaling-stroke" d="M302.24 368.41l1.43-.37a.99.99 0 00.74-.81q1.06-7.47.27-14.94a2.36 2.35 89.4 00-2.13-2.09c-6.2-.52-4.87 14.31-1.29 17.94a1.04 1.03-29.2 00.98.27"/><path stroke="#6d6c6c" vector-effect="non-scaling-stroke" d="M299.27 377.47q-5.51.65-6.96 5.62c-3.96 13.64 15.79 18.94 18.78 4.92q1.28-5.99-4.59-10.05"/><path stroke="#5e5f5f" vector-effect="non-scaling-stroke" d="M306.5 377.96q-3.74-2.5-7.23-.49"/><path stroke="#a8a9aa" vector-effect="non-scaling-stroke" d="M306.5 377.96l-.51.33a.45.44 55 00-.11.65q1.07 1.41.79 2.99"/><path stroke="#4c4e4f" vector-effect="non-scaling-stroke" d="M306.67 381.93q-.26 4.81-3.92 7.59a.63.6-14.5 00-.24.39l-.05.34"/><path stroke="#a8a9aa" vector-effect="non-scaling-stroke" d="M302.46 390.25q-.43-.36-.9-.28a.38.37-15.4 00-.29.5l1.15 3.06a1.39 1.39 0 01-1.61 1.84c-5.04-1.12-7.52-3.58-7.65-8.82q-.15-6.34 6.11-9.08"/><path stroke="#5c5b5c" vector-effect="non-scaling-stroke" d="M302.46 390.25l1.56 2.52a.51.51 0 00.71.16q6.56-4.23 1.94-11"/><path stroke="#a8a9aa" vector-effect="non-scaling-stroke" d="M301.5 320q-.9 1.98-1.01 3.44c-.16 2.17-1.66 19.84 1.45 19.22a.96.95 3.1 00.73-.65q.89-2.86-.56-5.45a1.57 1.53 34.8 01-.18-.93q.88-6.58.38-13.18a1.32 1.32 0 01.3-.94q.64-.77.13-1.59a.71.7 41.2 00-1.24.08"/><path stroke="#121111" vector-effect="non-scaling-stroke" d="M398.285 332.433a4.28 3.94 119 005.521-1.833 4.28 3.94 119 00-1.371-5.653 4.28 3.94 119 00-5.521 1.833 4.28 3.94 119 001.371 5.653"/><path stroke="#919190" vector-effect="non-scaling-stroke" d="M195.32 383.954a8.28 6.57 93.6 007.077-7.851 8.28 6.57 93.6 00-6.037-8.677 8.28 6.57 93.6 00-7.077 7.851 8.28 6.57 93.6 006.037 8.677M303.297 500.054a7.99 6.81 87.8 006.498-8.245 7.99 6.81 87.8 00-7.112-7.723 7.99 6.81 87.8 00-6.498 8.245 7.99 6.81 87.8 007.112 7.723"/><path stroke="#121111" vector-effect="non-scaling-stroke" d="M243.624 486.505a4.1 3.46 104.2 004.36-3.126 4.1 3.46 104.2 00-2.348-4.824 4.1 3.46 104.2 00-4.36 3.126 4.1 3.46 104.2 002.348 4.824"/></g><path fill="#989b9d" d="M0 0h591v2.56q.13-1.56-.87-2.23a.26.25 28.6 00-.38.11q-.05.11 0 .27-.75.14-1.5.14Q294.13.97 0 .94V0z"/><path fill="#fff" d="M591 2.56V591H0v-1.06q3.03.07 6.06.07 291.82.25 583.52.24a.68.67 90 00.67-.68V1.25q0-.33-.5-.54-.05-.16 0-.27a.26.25 28.6 01.38-.11q1 .67.87 2.23z"/><path d="M589.75.71q.5.21.5.54v588.32a.68.67-90 01-.67.68q-291.7.01-583.52-.24-3.03 0-6.06-.07V.94Q294.13.97 588.25.85q.75 0 1.5-.14zm-4.25 4.81a.26.26 0 00-.26-.26H5.5a.26.26 0 00-.26.26v579.72a.26.26 0 00.26.26h579.74a.26.26 0 00.26-.26V5.52z"/><path fill="#fbfddf" d="M585.5 585.24a.26.26 0 01-.26.26H5.5a.26.26 0 01-.26-.26V5.52a.26.26 0 01.26-.26h579.74a.26.26 0 01.26.26v579.72zM49.07 25.18c-10.15.16-20.39 4.95-20.43 16.14-.05 15.43-.69 30.95.04 46.35a.97.97 0 001.65.65l62.88-61.9a.56.55-64.8 00-.34-.95c-14.62-1.1-29.2-.51-43.8-.29zM310.8 194.96q-11.97.02-23.83.1c-6.08.05-12.7 11.85-14.45 16.37a.8.78-76.5 01-.8.5l-2.62-.22a1 1 0 00-.84.35q-7.64 9.07-15.42 18.03-.93 1.08-1.62 2.57a1.2 1.19 2.3 01-.69.63c-36.4 12.76-68.41 38-87.11 72.03q-2.99 5.44-5.97 10.88c-4.19 7.65-7.38 17.42-9.78 25.86q-5.15 18.1-5.61 39.94c-.89 43.09 15.09 82.84 45.22 113.97q2.91 3 12.72 11.9a.6.6 0 01.11.77c-4.36 6.97-9.14 13.75-12.23 21.41-2.34 5.79 1.27 10.91 7.39 11.1 8.81.28 22.52-10.78 28.84-16.59a.7.7 0 01.81-.1c48.19 26.22 105.32 25.88 153.32-.54a.67.66 52.3 01.79.11c6.63 6.6 21.34 18.69 30.54 17.85 8.31-.76 9.02-8.09 5.8-14.17q-5.49-10.34-12.2-19.99a.72.71 52.4 01.12-.96c26.71-22.31 46.74-53.27 53.87-87.43 3.66-17.58 5.61-37.45 2.59-55.12q-1.72-13.95-5.54-27.46c-15.2-49.15-51.73-85.62-99.83-103.06a1.78 1.78 0 01-.84-.64l-14.82-20.56a.75.74 71.2 00-.62-.31l-2.84.05a.73.72-5.6 01-.73-.59q-1.42-7.3-5.07-13.79c-2.46-4.38-10.27-1.82-14.71-2.63 3.59-20.68 19.08-52.25 45.18-30.31 19.61 16.49 53.22 7.33 53.08-21.81-.08-16.01-12.89-32.29-28.14-36.76q-35.39-10.37-62.25 14.61c-3.2 2.97-5.94 7.15-8.87 10.76a.35.34-39.4 01-.57-.05c-6.89-12.47-13-23.56-29.31-21.67-4.55.53-7.64 2.86-10.58 6.14a.97.96-66.1 01-.82.32c-14.83-1.59-45.96.87-44.77 23.02.69 12.95 14.04 17.76 24.93 14.25 10.8-3.49 20.29-6.74 30.1.89a.36.36 0 01-.27.64c-5.65-.73-11.79-1.12-16.99 1.29-7.25 3.35-13.55 9.36-14.62 17.73-2.12 16.56 18.11 19.8 28.62 12.18 4.51-3.27 8.2-9.02 14.3-3.68 3.64 3.18 2.18 5.85 2.79 9.95q.33 2.24 2.55 1.79 6.03-1.23 11.69.45zm-154.9-29.92c-5.13 6.48-8.3 18.52 4.2 19.3 8.7.55 16.45-10 18.54-17.29 2.6-9.04 5.16-15.39 12.9-21.24q2.08-1.57 3.06-2.45.38-.35-.13-.29c-15.25 1.58-29.13 10.05-38.57 21.97zm46.16 4.28c-6.52 9.71 9.78 16.22 15.62 6.15q1.59-2.74 1.6-4.71.05-7.44 1.93-14.13a.61.6-6.8 00-.88-.69c-7.03 3.99-13.72 6.59-18.27 13.38zm228.65 28.18c4.47 12.8 22.18 6.52 18.73-5.47-3.6-12.54-15.36-21.48-27.53-25.8a.49.49 0 00-.5.81q5.45 5.26 7.35 12.31c1.49 5.54-.02 12.51 1.95 18.15zm-204.77 1.56c5.37 3.38 10.55-1.38 11.04-6.56.61-6.42 2.78-7.95 6.29-12.92a.42.42 0 00-.45-.65c-4.69 1.17-10.43 2.31-13.99 5.08-4.09 3.17-9.25 11.05-2.89 15.05zm163.51-7.99c3.14 8.15 1.3 15.83 1.07 24.25-.17 5.99 6.47 12.05 11.75 8.01 7.37-5.63 2.66-19.11-1.67-25.16-4.02-5.63-9.34-12.51-15.07-16.29a.39.39 0 00-.57.5c1.39 2.96 3.49 6.09 4.49 8.69zm-186.9 9.02c1.91 4.4 6.75 4.28 9.06.45.97-1.6.59-3.05.75-4.87.26-2.89 2.25-5.8 3.44-8.48a.65.64-88.1 00-.81-.87c-4.93 1.83-15.46 6.8-12.44 13.77zm-29.61 26.35c.49 4.65 4.3 7.59 8.81 6.72 6.01-1.17 7.83-9.47 7.05-14.58-1.06-7-1.11-11.36 1.25-17.92q.77-2.16-.96-.66c-8.18 7.08-17.39 14.8-16.15 26.44zm258.91 6.9c3.41-4.8-1.91-14.14-5.43-17.3-2.34-2.1-6.05-3.65-9.03-5.55a.22.22 0 00-.32.29q2.88 5.51 2.89 11.72c.01 2.72-.38 6.47.78 8.79 2.05 4.11 7.92 6.53 11.11 2.05z"/><path fill="#fae4a8" d="M28.64 41.32c.04-11.19 10.28-15.98 20.43-16.14 14.6-.22 29.18-.81 43.8.29a.56.55-64.8 01.34.95l-62.88 61.9a.97.97 0 01-1.65-.65c-.73-15.4-.09-30.92-.04-46.35z"/><path fill="#989b9d" d="M314.75 195.22q-1.63.66-3.95-.26-5.66-1.68-11.69-.45-2.22.45-2.55-1.79c-.61-4.1.85-6.77-2.79-9.95-6.1-5.34-9.79.41-14.3 3.68-10.51 7.62-30.74 4.38-28.62-12.18 1.07-8.37 7.37-14.38 14.62-17.73 5.2-2.41 11.34-2.02 16.99-1.29a.36.36 0 00.27-.64c-9.81-7.63-19.3-4.38-30.1-.89-10.89 3.51-24.24-1.3-24.93-14.25-1.19-22.15 29.94-24.61 44.77-23.02a.97.96-66.1 00.82-.32c2.94-3.28 6.03-5.61 10.58-6.14 16.31-1.89 22.42 9.2 29.31 21.67a.35.34-39.4 00.57.05c2.93-3.61 5.67-7.79 8.87-10.76q26.86-24.98 62.25-14.61c15.25 4.47 28.06 20.75 28.14 36.76.14 29.14-33.47 38.3-53.08 21.81-26.1-21.94-41.59 9.63-45.18 30.31zM160.1 184.34c-12.5-.78-9.33-12.82-4.2-19.3 9.44-11.92 23.32-20.39 38.57-21.97q.51-.06.13.29-.98.88-3.06 2.45c-7.74 5.85-10.3 12.2-12.9 21.24-2.09 7.29-9.84 17.84-18.54 17.29zM217.68 175.47c-5.84 10.07-22.14 3.56-15.62-6.15 4.55-6.79 11.24-9.39 18.27-13.38a.61.6-6.8 01.88.69q-1.88 6.69-1.93 14.13-.01 1.97-1.6 4.71zM449.44 192.03c3.45 11.99-14.26 18.27-18.73 5.47-1.97-5.64-.46-12.61-1.95-18.15q-1.9-7.05-7.35-12.31a.49.49 0 01.5-.81c12.17 4.32 23.93 13.26 27.53 25.8zM225.94 199.06c-6.36-4-1.2-11.88 2.89-15.05 3.56-2.77 9.3-3.91 13.99-5.08a.42.42 0 01.45.65c-3.51 4.97-5.68 6.5-6.29 12.92-.49 5.18-5.67 9.94-11.04 6.56zM390.52 215.32c.23-8.42 2.07-16.1-1.07-24.25-1-2.6-3.1-5.73-4.49-8.69a.39.39 0 01.57-.5c5.73 3.78 11.05 10.66 15.07 16.29 4.33 6.05 9.04 19.53 1.67 25.16-5.28 4.04-11.92-2.02-11.75-8.01zM202.55 200.09c-3.02-6.97 7.51-11.94 12.44-13.77a.65.64-88.1 01.81.87c-1.19 2.68-3.18 5.59-3.44 8.48-.16 1.82.22 3.27-.75 4.87-2.31 3.83-7.15 3.95-9.06-.45z"/><path fill="#232221" d="M310.8 194.96q2.32.92 3.95.26c4.44.81 12.25-1.75 14.71 2.63q3.65 6.49 5.07 13.79a.73.72-5.6 00.73.59l2.84-.05a.75.74 71.2 01.62.31l14.82 20.56a1.78 1.78 0 00.84.64c48.1 17.44 84.63 53.91 99.83 103.06q-1.46-.37-1.24.75 2.46 12.38 5.12 24.67.33 1.54 1.66 2.04c3.02 17.67 1.07 37.54-2.59 55.12-7.13 34.16-27.16 65.12-53.87 87.43a.72.71 52.4 00-.12.96q6.71 9.65 12.2 19.99c3.22 6.08 2.51 13.41-5.8 14.17-9.2.84-23.91-11.25-30.54-17.85a.67.66 52.3 00-.79-.11c-48 26.42-105.13 26.76-153.32.54a.7.7 0 00-.81.1c-6.32 5.81-20.03 16.87-28.84 16.59-6.12-.19-9.73-5.31-7.39-11.1 3.09-7.66 7.87-14.44 12.23-21.41a.6.6 0 00-.11-.77q-9.81-8.9-12.72-11.9c-30.13-31.13-46.11-70.88-45.22-113.97q.46-21.84 5.61-39.94c2.4-8.44 5.59-18.21 9.78-25.86q2.98-5.44 5.97-10.88c18.7-34.03 50.71-59.27 87.11-72.03a1.2 1.19 2.3 00.69-.63q.69-1.49 1.62-2.57 7.78-8.96 15.42-18.03a1 1 0 01.84-.35l2.62.22a.8.78-76.5 00.8-.5c1.75-4.52 8.37-16.32 14.45-16.37q11.86-.08 23.83-.1zm-24.88 6.63c-3.04 2.34-5.27 6.26-6.97 9.52a.58.58 0 00.52.85q8.05-.02 15.42-.11c5.38-.07 10.92-2.89 15.11-3.12q1.86-.1 1.67-2.46c-.46-5.67-2.95-4.96-7.85-5.03q-8.53-.11-17.01.04a1.43 1.43 0 00-.89.31zm6.08 16.36c-1.69-.05-3.99 4.65-5.61 6.81q-.8 1.07.49.75l3.07-.74a1.11 1.11 0 00.81-.77l1.61-5.54a.4.39-81.1 00-.37-.51zm-26.25 11.01l10.93-2.03q4.57-3 6.27-8.33a.48.48 0 00-.46-.63l-11.41.18a1.75 1.74 15.4 00-1.44.81q-3.57 5.67-8.31 10.37-.51.51.2.38l4.22-.75zm33.53-10.22l-.84 4.22q-.2 1.02.7.5 5.09-3.01 11.02-2.7a.67.67 0 00.71-.67v-1.53a.56.56 0 00-.56-.56h-10.13a.92.91 5.3 00-.9.74zM148.54 372.25q-1.21 12.46-.26 24.9c.36 4.79 1.44 10 2.27 15 1.34 8.09 4.16 15.82 6.2 23.85q.87 3.43 5.13 9.97.18 3.4 2.46 5.97.19 1.32.97 2.75 6.48 11.82 13.44 21.6l3.21 3.96q12.92 16.73 30.29 28.79 21.65 14.92 47.18 22.85a.42.42 0 00.36-.75l-7.18-4.86a.4.4 0 010-.66q.45-.3 1.14-.16 22.92 6.9 46.79 7.5c8.23.21 16.46-1.17 24.7-2.53q50.55-8.33 85.47-45.43.22.76.97.92a.9.9 0 00.84-.25q2.82-2.92 5.56-5.92c4.11-4.48 7.36-9.84 10.8-14.9 6.78-9.97 10.74-20.32 15.42-32.78q1.7-4.51 1.56-7.46a.56.56 0 00-.58-.53q-.25.01-.49.17 6.23-25.02 4.25-50.75 1.51-.44 1.42-2c-.52-8.97-1.35-18.63-3.77-27.3q-.89-3.17.61-6.19.01-3.58-1.34-6.97c-12.22-30.56-31.64-57.48-60.71-74.83l-4.2-2.63q-12.98-8.06-27.26-13.08-1.68-.94-3.54-1.51-16.29-5.01-33.13-7.14c-35.52-4.48-73.55 7.25-102.89 26.97-27.2 18.28-45.93 44.52-57.28 75.38q-7.05 19.16-8.41 38.05z"/><path fill="#989b9d" d="M181.75 233.16c-4.51.87-8.32-2.07-8.81-6.72-1.24-11.64 7.97-19.36 16.15-26.44q1.73-1.5.96.66c-2.36 6.56-2.31 10.92-1.25 17.92.78 5.11-1.04 13.41-7.05 14.58zM278.95 211.11c1.7-3.26 3.93-7.18 6.97-9.52a1.43 1.43 0 01.89-.31q8.48-.15 17.01-.04c4.9.07 7.39-.64 7.85 5.03q.19 2.36-1.67 2.46c-4.19.23-9.73 3.05-15.11 3.12q-7.37.09-15.42.11a.58.58 0 01-.52-.85zM431.85 233.34c-3.19 4.48-9.06 2.06-11.11-2.05-1.16-2.32-.77-6.07-.78-8.79q-.01-6.21-2.89-11.72a.22.22 0 01.32-.29c2.98 1.9 6.69 3.45 9.03 5.55 3.52 3.16 8.84 12.5 5.43 17.3z"/><path fill="#b7b6b7" d="M286.39 224.76c1.62-2.16 3.92-6.86 5.61-6.81a.4.39-81.1 01.37.51l-1.61 5.54a1.11 1.11 0 01-.81.77l-3.07.74q-1.29.32-.49-.75zM276.68 226.93q-.8-1.73.69-2.25a1.48 1.46 8.5 00.74-.54l2.15-2.95a1.14 1.14 0 00-.79-1.8q-3.78-.44-7.19.61c-2.56.78-7.05 6.22-6.53 8.96l-4.22.75q-.71.13-.2-.38 4.74-4.7 8.31-10.37a1.75 1.74 15.4 011.44-.81l11.41-.18a.48.48 0 01.46.63q-1.7 5.33-6.27 8.33z"/><path fill="#989b9d" d="M299.28 218.74a.92.91 5.3 01.9-.74h10.13a.56.56 0 01.56.56v1.53a.67.67 0 01-.71.67q-5.93-.31-11.02 2.7-.9.52-.7-.5l.84-4.22zM276.68 226.93l-10.93 2.03c-.52-2.74 3.97-8.18 6.53-8.96q3.41-1.05 7.19-.61a1.14 1.14 0 01.79 1.8l-2.15 2.95a1.48 1.46 8.5 01-.74.54q-1.49.52-.69 2.25zM353.79 240.5q-.36.81-.34 1.22a1.67 1.66-86.6 001.39 1.57c5.19.88 8.89 2.01 13.32 5.3q3.53 2.61 7.85 3.77a1.52 1.51 78.3 01.79.52q1.84 2.24 4.25.7l4.2 2.63-.36.04a.44.43-2.3 00-.39.42q-.05 1.36 1.44 2.15c4.64 2.46 8.55 6.27 13.02 9.36 9.17 6.33 17.75 16.27 24.6 25.02.73.93 1.29 2.68 2.06 3.65q9.54 11.97 13.89 26.75l5.99 23.86q-1.6-.2-2.29 1.04-5.53-19.93-15.49-38.07-.24-.45-.13.05c1.26 5.73 4.64 11.74 6.08 15.97q2.55 7.5 4.5 15.04-.02 8.22 1.57 16.29.45 2.31.51 4.99c.1 4.24 1.03 8.78 1.01 12.5-.04 7.58.05 15.13-1.2 22.56q-1.32 7.8-3.04 15.53a.57.57 0 00.41.67q.26.07.53-.03l-1.67 5.5q-.26-.97-1.28-.83a.82.82 0 00-.67.56c-2.33 7.23-3.07 14-6.94 20.14-3.4 5.41-4.91 10.95-8.97 16.31-1.52 2-2.2 4.53-3.69 6.45q-7.32 9.48-15.51 18.78a.47.47 0 00.31.78l.96.1c-27.54 27.21-67.08 44.12-106.12 41.77-7.86-.47-15.34-1.03-23.13-2.35.68-.95.25-1.63-.8-1.87q-8.52-1.9-17.16-3c-5.49-.84-10.21-3.1-15.55-4.66-8.16-2.39-16.92-7.82-24.12-12.32q-1.58-.99-2.81-1.06-.57-.04-.11.3 16.91 12.48 36.06 20.86 1.58 3.52 5.41 4.06a1.03 1.02 78.6 01.73.49l.85 1.45q-.69-.14-1.14.16a.4.4 0 000 .66l7.18 4.86a.42.42 0 01-.36.75q-25.53-7.93-47.18-22.85c1.4-1.51.55-2.93-1.01-3.81q-7.29-4.13-13.1-10.15c-1.42-1.46-3.41-1.93-4.77-3.51q-4.98-5.8-10.21-11.35a.85.83 59.5 00-.85-.23q-.21.07-.35.26l-3.21-3.96.27-.47a.88.87 44.4 00-.02-.9c-1.9-3.04-3.9-5.47-5.48-8.86q-2.28-4.9-5.77-9.09-.32-.38-.43-.86-.64-2.72-2.98-4.17-2.28-2.57-2.46-5.97-1.09-6.23-4.36-11.73c-.4-.67-.3-1.6-.13-2.3q.11-.48-.01-.95-1.67-6.55-3.76-12.99c-2.88-8.88-1.44-17.75-4-26.74-1.59-5.58-.59-12.15.05-17.85a.95.95 0 00-.32-.83q-.32-.3-.81-.33 1.36-18.89 8.41-38.05c11.35-30.86 30.08-57.1 57.28-75.38 29.34-19.72 67.37-31.45 102.89-26.97q16.84 2.13 33.13 7.14 1.86.57 3.54 1.51zm-65.07-1.09c-43.76 4.42-83.18 27.33-107.88 63.59-14.1 20.69-21.86 45.74-25.13 70.25q-1.12-.32-1.16.5-.64 11.78-.19 23.73a.49.49 0 00.81.35q.54-.47.62-1.08l1.67 10.25q-.9-.52-1.82-.24a.41.41 0 00-.22.6c1.57 2.52 1.01 5.04 1.72 7.37.98 3.24 1.36 6.63 3.09 9.57 1.33 2.24.97 4.91 1.7 7.01q1.44 4.09 2.73 8.23c.74 2.39 2.43 4.29 3.45 6.68a.95.94-5.2 00.69.57q.57.11.91-.54.6 1.68 2.08 2.5 1.57 1.43 3.14 2.85c2.29 2.08 9.95 19 13.11 17.15l4.28 4.15q.52.5.19-.14c-4.14-8.01-9.42-16.39-12.53-23.95-6.25-15.21-8.83-30.51-9.69-47.13a.13.02 89.1 01.02-.12l.25-.08a.11.1-11 01.14.09c1.02 10.43 4.04 18.49 6.34 27.88q1.06 4.37 8.21 17.51c-2.11.98.34 4.71 1.16 5.87 1.42 2 9.96 16.36 11.44 16.03a.72.72 0 01.75.28c10.59 14.35 26.17 25.74 41.92 33.84 2.47 1.27 6.56 4.13 9.91 5.11q8.59 2.53 17.06 5.43 1.37.47 3.57.46a.72.71 9 00.68-.49q.08-.23.05-.49l21.21 2.96q-1.06.67-.9 1.77a.64.63 87.8 00.59.55c5.25.31 9.54.33 15.35-.33 3.5-.4 7.33-.43 11.39-1.41 4.15-1.01 9.9.08 13.99-2.59q2.02-1.31 6.12-2.16a.64.64 0 00.51-.64q-.01-.39-.3-.69 5.52-2.38 11.33-3.53 9.66-1.77 17.47-7.64c2.61-1.97 5.87-3.27 8.5-5.54a.83.82 62.2 00.26-.85q-.11-.37-.56-.44 13.56-10.03 24.96-22.46-.04.46.86.51a1.33 1.32-70 001.11-.52q10.15-13.28 18.17-27.72c1.49-2.69 2.03-5.87 3.46-8.73q2.46-4.95 2.93-6.33c7.66-22.82 9.14-49.93 3.26-73.14-.87-3.44-1.75-8.29-3.57-12.36-1.17-2.62-1.38-5.56-2.87-8.22-1.52-2.68-1.45-5.79-2.65-7.65-4.84-7.52-9.37-15.36-14.91-22.27q-3.9-4.86-7.87-9.68a.96.95-22.9 00-.85-.34q-.58.06-.82.7c-17.72-17.96-35.28-29.51-60.2-36.17q-.53-.15-.05-.42.79-.43 1.81-.23 12.87 2.6 25.02 7.57 2.53 1.04 6.9 1.46.44.05.04-.15-.88-.43-2.76-1.58-19.66-12.05-43.68-13.77-.51-.04-.01-.09c17.19-1.72 38.71 4.91 53.47 12.34q-.46.12-.65.48a.72.71 35.4 00.15.84q3.29 3.11 7.78 3.21 5.45 2.36 10.3 6.25a.05.04-49.7 00.06-.01l.22-.2a.32.31 44.4 00-.01-.46c-4.48-4.11-9.99-7.34-14.4-10.24q-35.8-23.47-79.2-24.12.22-1.31-1.26-1.4-7.07-.43-12.77 1.85z"/><path fill="#b7b6b7" d="M302.75 238.96l-14.03.45q5.7-2.28 12.77-1.85 1.48.09 1.26 1.4z"/><path fill="#232221" d="M302.75 238.96q43.4.65 79.2 24.12c4.41 2.9 9.92 6.13 14.4 10.24a.32.31 44.4 01.01.46l-.22.2a.05.04-49.7 01-.06.01q-4.85-3.89-10.3-6.25l-7.28-4.53c-14.76-7.43-36.28-14.06-53.47-12.34q-.5.05.01.09 24.02 1.72 43.68 13.77 1.88 1.15 2.76 1.58.4.2-.04.15-4.37-.42-6.9-1.46-12.15-4.97-25.02-7.57-1.02-.2-1.81.23-.48.27.05.42c24.92 6.66 42.48 18.21 60.2 36.17q14.42 14.87 23.11 33.69c8.58 18.6 12.3 35.69 12.52 55.55.34 31.86-11.4 62.17-31.88 86.51q-11.4 12.43-24.96 22.46-12.26 7.99-25.67 14.47-5.81 1.15-11.33 3.53-22.83 7.18-46.75 5.5L271.79 513q-57.75-14.28-86.54-66.04-7.15-13.14-8.21-17.51c-2.3-9.39-5.32-17.45-6.34-27.88a.11.1-11 00-.14-.09l-.25.08a.13.02 89.1 00-.02.12c.86 16.62 3.44 31.92 9.69 47.13 3.11 7.56 8.39 15.94 12.53 23.95q.33.64-.19.14l-4.28-4.15c-7.99-9.21-11.86-19.56-16.48-30.61-1.78-4.26-2.48-8.62-3.54-13.09q-.16-.67-.64-1.17-.39-.4-.31.15c.68 5.21.41 10.39 1.75 15.25q1.33 4.8 2.97 9.47-1.48-.82-2.08-2.5-4.51-8.39-5.75-12.99c-2.37-8.78-5.4-16.6-6.5-26.26l-1.67-10.25q-1.13-11.74-.08-23.5c3.27-24.51 11.03-49.56 25.13-70.25 24.7-36.26 64.12-59.17 107.88-63.59l14.03-.45zM175.71 389q.6 9.69 2.33 19.25 3.88 20.54 14.92 38.25c17.75 34.85 55.17 57.13 93 62.7 39.08 5.74 83.86-12.35 109.46-41.91 28.84-33.3 39.95-78.24 26.04-120.29-2.95-12.34-10.77-25.43-18-35.82-11.38-17.42-28.38-29.77-47.46-39.89q-8.54-3.75-17.5-6.33-13.62-4.64-28-5.67-5.08-.62-10.31.01-4.95-.7-11.5.38c-17.43 2.88-34.2 7.55-49.35 16.11q-39.02 22.05-55.2 65.13c-5.76 15.33-9.93 31.82-8.43 48.08z"/><path fill="#b7b6b7" d="M353.79 240.5q14.28 5.02 27.26 13.08-2.41 1.54-4.25-.7a1.52 1.51 78.3 00-.79-.52q-4.32-1.16-7.85-3.77c-4.43-3.29-8.13-4.42-13.32-5.3a1.67 1.66-86.6 01-1.39-1.57q-.02-.41.34-1.22zM385.25 256.21c29.07 17.35 48.49 44.27 60.71 74.83q1.35 3.39 1.34 6.97c-1.59-3.58-3.61-6.61-5.36-10.17q-1.06-2.14-2.43-4.24-4.35-14.78-13.89-26.75c-.77-.97-1.33-2.72-2.06-3.65-6.85-8.75-15.43-18.69-24.6-25.02-4.47-3.09-8.38-6.9-13.02-9.36q-1.49-.79-1.44-2.15a.44.43-2.3 01.39-.42l.36-.04z"/><path fill="#989b9d" d="M300.19 259.3q5.58 1.32 9.75 1.12.87-.05.56-1.13 14.38 1.03 28 5.67-.34.14-.45.39a.56.56 0 00.28.73c5.4 2.47 11.26 2.89 16.35 6.11a.93.93 0 001.22-.2q.19-.25.1-.7c19.08 10.12 36.08 22.47 47.46 39.89q-1.2 1.54.37 3.74 6.02 8.44 11.31 20.21-2.79-3.96-5.5-7.86c-3.84-5.51-8.06-10.27-12.41-15.21-4.39-4.99-9.8-8.78-14.96-13.09q-6.6-5.53-17.48-11.72c.11-5.24-5.08-7.06-9.29-4.96q-4.04-.78-7.93-2.1c-7.35-2.49-14.06-4.12-21.19-5.83-1.75-6.99-8.7-10.31-15.34-8.92q-4.19.88-8.45.01-4.08 2.78-3.34 8.01-2.42.44-4.91-.1a.52.51 6.3 01-.41-.5l-.06-7.85a.85.83 9.9 00-.57-.79q-.4-.13-.84.28c-1.83-.68-10.31 3.06-12.84 3.73a.78.78 0 00-.59.76v.96q-.01 2.04 1.94 1.46l3.78-1.12-.04 5.46q-16.91 2.99-32.3 10.41-.97-3.42-3.66-4.95-1.12-3.22-4.52-1.92-7.42 2.84-4.2 10.12 1.38.8 1.97 1.8c-12.18 10.17-23.37 17.97-33.71 31.94q-10.13-3.99-9.61 6.82c-1.72 1 1.32 2.99 1.78 4.48a1.16 1.16 0 01-.11.93q-7.68 13.23-12.04 27.89-.29.96-.27 1.98-4.02 2.28-6.29 6.29-.52-.16-.94-.05a.94.93-87 00-.66.6q-1.69 4.83-.07 9.6c1.17 3.46 4.08 3.49 3.92 8.04q-.59 16.19.05 20.51 2.58 17.31 8.73 33.68c.29.78.23 1.78.18 2.58q-11.04-17.71-14.92-38.25l1.01-.29a.55.55 0 00.39-.66q-2.33-9.15-1.7-18.6a.62.61 8.8 00-.48-.64q-1.11-.25-1.55.94c-1.5-16.26 2.67-32.75 8.43-48.08q16.18-43.08 55.2-65.13c15.15-8.56 31.92-13.23 49.35-16.11q6.55-1.08 11.5-.38z"/><path fill="#b7b6b7" d="M300.19 259.3q5.23-.63 10.31-.01.31 1.08-.56 1.13-4.17.2-9.75-1.12zM378.5 263.21l7.28 4.53q-4.49-.1-7.78-3.21a.72.71 35.4 01-.15-.84q.19-.36.65-.48z"/><path fill="#232221" d="M292.46 264.5q1.31 4.6.29 9.29-.38-.68-1.02-.49a.75.74-6.7 00-.53.67q-.86 13.96-.21 23.78.07 1.16 1.47.75 1.16 1.46 3.03 1.5a.83.83 0 01.8.67l.26 1.32a.64.64 0 01-.63.77l-14.36-.02a1.05 1.03-17.9 01-.84-.42c-1.33-1.81 3.1-2.25 3.57-4.82q.82.53 1.63.37a.63.63 0 00.5-.63q-.37-18.16-.21-24.42.07-2.44-1.46-2.53l-3.78 1.12q-1.95.58-1.94-1.46v-.96a.78.78 0 01.59-.76c2.53-.67 11.01-4.41 12.84-3.73z"/><path fill="#fff" d="M299.25 273.46l.71.04q-.01 1.2.63 2.05a.45.45 0 00.68.04l2.23-2.38q5.21.37 11.81-.33 2.81 9.75-4.94 16.5-5.69 4.95-11.29 9.98c-1.8 1.62-1.02 3.79 1.58 3.68q10.54-.45 21.08.08c4.32.22 6.42-4.21 5.74-7.79a1.1 1.1 0 00-1.87-.57l-3.51 3.58a1.36 1.35-67.7 01-.97.41l-14.64-.05a.68.68 0 01-.38-1.24c9.07-6.16 17.95-12.5 20.27-23.1 7.13 1.71 13.84 3.34 21.19 5.83q3.89 1.32 7.93 2.1c-7.86 9.6 8.19 16.27 9.29 4.96q10.88 6.19 17.48 11.72c5.16 4.31 10.57 8.1 14.96 13.09 4.35 4.94 8.57 9.7 12.41 15.21q2.71 3.9 5.5 7.86 1.49 5.44 5.03 9.9c.47.59.58 1.42.82 2.13a.16.16 0 00.27.06l.2-.22c13.91 42.05 2.8 86.99-26.04 120.29-25.6 29.56-70.38 47.65-109.46 41.91-37.83-5.57-75.25-27.85-93-62.7.05-.8.11-1.8-.18-2.58q-6.15-16.37-8.73-33.68-.64-4.32-.05-20.51c.16-4.55-2.75-4.58-3.92-8.04q-1.62-4.77.07-9.6a.94.93-87 01.66-.6q.42-.11.94.05-3.86 13.3 7.52 16.65c4.36 1.28 8.96.05 12.4-2.68q.65-.52.65.31c-.03 11-6.63 12.65-15.73 14.17a.59.58 84.9 00-.49.59q.04 2.32 2.65 2.35c7.5.1 17.6-3.88 20.43-11.24 6.03-15.73-1.62-33.35-21.14-26.44q-.02-1.02.27-1.98 4.36-14.66 12.04-27.89a1.16 1.16 0 00.11-.93c-.46-1.49-3.5-3.48-1.78-4.48 5.25 9.28 15.64 1.35 9.61-6.82 10.34-13.97 21.53-21.77 33.71-31.94q8.66 4.52 10.41-5.05 15.39-7.42 32.3-10.41.46 10.89-.42 21.75c-.47 2.57-4.9 3.01-3.57 4.82a1.05 1.03-17.9 00.84.42l14.36.02a.64.64 0 00.63-.77l-.26-1.32a.83.83 0 00-.8-.67q-1.87-.04-3.03-1.5-.41-12.36.29-24.71 1.02-4.69-.29-9.29.44-.41.84-.28a.85.83 9.9 01.57.79l.06 7.85a.52.51 6.3 00.41.5q2.49.54 4.91.1zm9.5 96.94a1.51 1.51 0 01-.84-1.4q.91-25.56.32-51.15a1.73 1.64-63.9 00-.29-.92l-5.18-7.53a.29.28 49.7 00-.44-.04l-7.06 7.5a1.04.99-25.2 00-.28.72q.25 16.6-.76 33.17-.05.73-.33.06c-1.17-2.75-1.82-6.16-2.68-8.55q-7.71-21.27-15.03-42.71-1.84-5.4-7.9-7.84a.43.43 0 00-.58.31c-.95 4.74-1.95 6.27-.26 11.14q11.8 34.08 23.91 68.16a.72.71 60.1 01-.21.79q-5.95 5.18-6.58 12.47c-1.07 12.45 11.43 22.65 23.14 17.6 13.52-5.84 14.27-25.26 1.05-31.78zm88.661-36.436a5.9 5.61 120.1 007.813-2.29 5.9 5.61 120.1 00-1.895-7.918 5.9 5.61 120.1 00-7.813 2.29 5.9 5.61 120.1 001.895 7.918zm10.239 46.856c1.7-1.81 4.07-3.04 5.28-4.83 3.05-4.48.42-8.6-4.01-10.5q-5.86-2.52-12.05.51a1.03 1.03 0 01-1.01-.05l-2.39-1.47a.59.59 0 00-.7.06q-3.95 3.49-4.45 8.73a1.16 1.16 0 001.92.99c3.8-3.3 6.99-5.52 12.26-3.68 2.83.99 4.78 3.88 3.15 6.68-2.77 4.73-11.32 2.25-11.01 7.68a.64.63 2.8 00.54.59c4.09.67 9.88-.41 12.14 4.47 1.65 3.54-1.83 8.67-5.3 9.5q-7.08 1.7-13.65-2.32a.74.74 0 00-1.06.33c-.59 1.3.27 2.78 1.55 3.42 6.82 3.38 18.32 4.04 24.24-1.58 6.31-5.99 3.49-16.38-5.3-18.07q-.49-.1-.15-.46zm-198.1 60.29a5.76 5.76 0 00-5.76-5.76 5.76 5.76 0 00-5.76 5.76 5.76 5.76 0 005.76 5.76 5.76 5.76 0 005.76-5.76zm195.76.38a5.82 5.82 0 00-5.82-5.82 5.82 5.82 0 00-5.82 5.82 5.82 5.82 0 005.82 5.82 5.82 5.82 0 005.82-5.82zm-108.56 40.7c-1-8.84 9.06-14.27 16.59-14.37 1.06-.02 1.94-.5 1.67-1.67a1.03 1.01-84.3 00-.58-.72q-1.82-.81-2.97-.76-19.47.81-23.38 17.89c-2.56 11.14 4.24 20.76 16.06 20.94 16.15.26 19.79-21.45 4.62-24q-5.75-.97-11.54 2.91a.3.3 0 01-.47-.22zm-52.945 6.19a5.97 5.58 99.4 006.48-4.979 5.97 5.58 99.4 00-4.53-6.8 5.97 5.58 99.4 00-6.48 4.978 5.97 5.58 99.4 004.53 6.8zm114.221.418a6 5.53 88.7 005.393-6.123 6 5.53 88.7 00-5.665-5.874 6 5.53 88.7 00-5.393 6.125 6 5.53 88.7 005.665 5.873z"/><path fill="#232221" d="M326.38 274.36c-2.32 10.6-11.2 16.94-20.27 23.1a.68.68 0 00.38 1.24l14.64.05a1.36 1.35-67.7 00.97-.41l3.51-3.58a1.1 1.1 0 011.87.57c.68 3.58-1.42 8.01-5.74 7.79q-10.54-.53-21.08-.08c-2.6.11-3.38-2.06-1.58-3.68q5.6-5.03 11.29-9.98 7.75-6.75 4.94-16.5c-4.02-2.79-7.9-3.18-11.81.33l-2.23 2.38a.45.45 0 01-.68-.04q-.64-.85-.63-2.05.67-3.83 2.63-8.05 4.26.87 8.45-.01c6.64-1.39 13.59 1.93 15.34 8.92z"/><path fill="#b7b6b7" d="M338.5 264.96q8.96 2.58 17.5 6.33.09.45-.1.7a.93.93 0 01-1.22.2c-5.09-3.22-10.95-3.64-16.35-6.11a.56.56 0 01-.28-.73q.11-.25.45-.39zM302.59 265.45q-1.96 4.22-2.63 8.05l-.71-.04q-.74-5.23 3.34-8.01z"/><path d="M284.29 297.5q.88-10.86.42-21.75l.04-5.46q1.53.09 1.46 2.53-.16 6.26.21 24.42a.63.63 0 01-.5.63q-.81.16-1.63-.37z"/><path fill="#b7b6b7" d="M315.31 272.88q-6.6.7-11.81.33c3.91-3.51 7.79-3.12 11.81-.33z"/><path d="M292.75 273.79q-.7 12.35-.29 24.71-1.4.41-1.47-.75-.65-9.82.21-23.78a.75.74-6.7 01.53-.67q.64-.19 1.02.49z"/><path fill="#b7b6b7" d="M248.75 281.21q-5.37-2.16-8.19 2.6-.91 1.55-.53 5.6-3.22-7.28 4.2-10.12 3.4-1.3 4.52 1.92z"/><path fill="#232221" d="M248.75 281.21q2.69 1.53 3.66 4.95-1.75 9.57-10.41 5.05-.59-1-1.97-1.8-.38-4.05.53-5.6 2.82-4.76 8.19-2.6zM364.79 287.25c-1.1 11.31-17.15 4.64-9.29-4.96 4.21-2.1 9.4-.28 9.29 4.96zM308.75 370.4c13.22 6.52 12.47 25.94-1.05 31.78-11.71 5.05-24.21-5.15-23.14-17.6q.63-7.29 6.58-12.47a.72.71 60.1 00.21-.79q-12.11-34.08-23.91-68.16c-1.69-4.87-.69-6.4.26-11.14a.43.43 0 01.58-.31q6.06 2.44 7.9 7.84 7.32 21.44 15.03 42.71c.86 2.39 1.51 5.8 2.68 8.55q.28.67.33-.06 1.01-16.57.76-33.17a1.04.99-25.2 01.28-.72l7.06-7.5a.29.28 49.7 01.44.04l5.18 7.53a1.73 1.64-63.9 01.29.92q.59 25.59-.32 51.15a1.51 1.51 0 00.84 1.4zm-35.651-71.24a2.09 2.09 0 00-2.668-1.272l-.32.113a2.09 2.09 0 00-1.273 2.668l11.923 33.671a2.09 2.09 0 002.668 1.272l.32-.113a2.09 2.09 0 001.273-2.668L273.1 299.16zm27.831 46.12l.79 1.25q.74 1.16.77-.56.03-1.57 1.6-1.69a.69.69 0 00.64-.65q.71-11.24.49-22.5c-.07-3.72-5.46-5.43-5.78-.79-.23 3.38-1.44 22.74.78 24.22q.43.28.71.72zm-3.95-10.25a.4.4 0 00.28-.73l-.94-.6a.32.32 0 00-.44.1l-.28.47a.39.38 20.2 00.27.58l1.11.18zm-5.969 21.244a8.73 2.23 70.8 00-.765-8.977 8.73 2.23 70.8 00-4.977-7.511 8.73 2.23 70.8 00.765 8.977 8.73 2.23 70.8 004.977 7.511zm11.229 12.136l1.43-.37a.99.99 0 00.74-.81q1.06-7.47.27-14.94a2.36 2.35 89.4 00-2.13-2.09c-6.2-.52-4.87 14.31-1.29 17.94a1.04 1.03-29.2 00.98.27zm-2.97 9.06q-5.51.65-6.96 5.62c-3.96 13.64 15.79 18.94 18.78 4.92q1.28-5.99-4.59-10.05-3.74-2.5-7.23-.49z"/><path fill="#b7b6b7" d="M401.71 470c20.48-24.34 32.22-54.65 31.88-86.51-.22-19.86-3.94-36.95-12.52-55.55q-8.69-18.82-23.11-33.69.24-.64.82-.7a.96.95-22.9 01.85.34q3.97 4.82 7.87 9.68c5.54 6.91 10.07 14.75 14.91 22.27 1.2 1.86 1.13 4.97 2.65 7.65 1.49 2.66 1.7 5.6 2.87 8.22 1.82 4.07 2.7 8.92 3.57 12.36 5.88 23.21 4.4 50.32-3.26 73.14q-.47 1.38-2.93 6.33c-1.43 2.86-1.97 6.04-3.46 8.73q-8.02 14.44-18.17 27.72a1.33 1.32-70 01-1.11.52q-.9-.05-.86-.51z"/><rect fill="#b7b6b7" x="-2.26" y="-19.95" transform="rotate(-19.5 1060.153 -647.444)" width="4.52" height="39.9" rx="2.09"/><path fill="#232221" d="M443.21 348.5c9.58 38.8 3.27 75.87-16.39 109.8-7.93 13.69-19.54 27.02-31.23 36.8q-52.8 44.13-122.49 32.27c-1.58-.27-3.58-1.03-5.53-1.44q-9.98-2.1-20.81-6.47-19.15-8.38-36.06-20.86-.46-.34.11-.3 1.23.07 2.81 1.06c7.2 4.5 15.96 9.93 24.12 12.32 5.34 1.56 10.06 3.82 15.55 4.66q8.8 3.4 17.96 4.87c7.79 1.32 15.27 1.88 23.13 2.35 39.04 2.35 78.58-14.56 106.12-41.77q25.57-26.68 35.79-62.29l1.67-5.5c6.18-24.39 6.66-48.75.21-72.51q-1.95-7.54-4.5-15.04c-1.44-4.23-4.82-10.24-6.08-15.97q-.11-.5.13-.05 9.96 18.14 15.49 38.07z"/><path fill="#b7b6b7" d="M403.46 311.18c7.23 10.39 15.05 23.48 18 35.82l-.2.22a.16.16 0 01-.27-.06c-.24-.71-.35-1.54-.82-2.13q-3.54-4.46-5.03-9.9-5.29-11.77-11.31-20.21-1.57-2.2-.37-3.74zM300.22 344.56c-2.22-1.48-1.01-20.84-.78-24.22.32-4.64 5.71-2.93 5.78.79q.22 11.26-.49 22.5a.69.69 0 01-.64.65q-1.57.12-1.6 1.69-.03 1.72-.77.56l-.79-1.25q-.28-.44-.71-.72zM301.5 320q-.9 1.98-1.01 3.44c-.16 2.17-1.66 19.84 1.45 19.22a.96.95 3.1 00.73-.65q.89-2.86-.56-5.45a1.57 1.53 34.8 01-.18-.93q.88-6.58.38-13.18a1.32 1.32 0 01.3-.94q.64-.77.13-1.59a.71.7 41.2 00-1.24.08z"/><path fill="#989b9d" d="M301.5 320a.71.7 41.2 011.24-.08q.51.82-.13 1.59a1.32 1.32 0 00-.3.94q.5 6.6-.38 13.18a1.57 1.53 34.8 00.18.93q1.45 2.59.56 5.45a.96.95 3.1 01-.73.65c-3.11.62-1.61-17.05-1.45-19.22q.11-1.46 1.01-3.44z"/><path fill="#232221" d="M208.29 323.15c6.03 8.17-4.36 16.1-9.61 6.82q-.52-10.81 9.61-6.82z"/><path d="M397.411 333.964a5.9 5.61 120.1 01-1.894-7.918 5.9 5.61 120.1 017.812-2.29 5.9 5.61 120.1 011.894 7.918 5.9 5.61 120.1 01-7.812 2.29zm.874-1.53a4.28 3.94 119 005.521-1.834 4.28 3.94 119 00-1.371-5.653 4.28 3.94 119 00-5.521 1.833 4.28 3.94 119 001.371 5.653zM439.51 323.6q1.37 2.1 2.43 4.24c1.75 3.56 3.77 6.59 5.36 10.17q-1.5 3.02-.61 6.19c2.42 8.67 3.25 18.33 3.77 27.3q.09 1.56-1.42 2-.56-13.18-3.54-26.04l-5.99-23.86z"/><ellipse fill="#232221" transform="rotate(119 103.373 282.26)" rx="4.28" ry="3.94"/><path fill="#989b9d" d="M296.98 335.03l-1.11-.18a.39.38 20.2 01-.27-.58l.28-.47a.32.32 0 01.44-.1l.94.6a.4.4 0 01-.28.73z"/><path d="M454.21 336.75q3.82 13.51 5.54 27.46-1.33-.5-1.66-2.04-2.66-12.29-5.12-24.67-.22-1.12 1.24-.75z"/><ellipse fill="#b7b6b7" transform="rotate(70.8 -100.793 376.741)" rx="8.73" ry="2.23"/><path fill="#b7b6b7" d="M438.17 341.49c6.45 23.76 5.97 48.12-.21 72.51q-.27.1-.53.03a.57.57 0 01-.41-.67q1.72-7.73 3.04-15.53c1.25-7.43 1.16-14.98 1.2-22.56.02-3.72-.91-8.26-1.01-12.5q-.06-2.68-.51-4.99-1.59-8.07-1.57-16.29z"/><path fill="#b7b6b7" d="M445.5 347.46q2.98 12.86 3.54 26.04 1.98 25.73-4.25 50.75-2.05 8.15-5.54 15.78c-3.02 6.6-5.84 13.53-9.42 19.46q-8.27 13.69-19.12 25.51-34.92 37.1-85.47 45.43c-8.24 1.36-16.47 2.74-24.7 2.53q-23.87-.6-46.79-7.5l-.85-1.45a1.03 1.02 78.6 00-.73-.49q-3.83-.54-5.41-4.06 10.83 4.37 20.81 6.47c1.95.41 3.95 1.17 5.53 1.44q69.69 11.86 122.49-32.27c11.69-9.78 23.3-23.11 31.23-36.8 19.66-33.93 25.97-71 16.39-109.8q.69-1.24 2.29-1.04z"/><path fill="#989b9d" d="M301.26 368.14c-3.58-3.63-4.91-18.46 1.29-17.94a2.36 2.35 89.4 012.13 2.09q.79 7.47-.27 14.94a.99.99 0 01-.74.81l-1.43.37a1.04 1.03-29.2 01-.98-.27z"/><path fill="#232221" d="M181.75 371.54q2.27-4.01 6.29-6.29c19.52-6.91 27.17 10.71 21.14 26.44-2.83 7.36-12.93 11.34-20.43 11.24q-2.61-.03-2.65-2.35a.59.58 84.9 01.49-.59c9.1-1.52 15.7-3.17 15.73-14.17q0-.83-.65-.31c-3.44 2.73-8.04 3.96-12.4 2.68q-11.38-3.35-7.52-16.65zm13.57 12.414a8.28 6.57 93.6 007.077-7.851 8.28 6.57 93.6 00-6.037-8.677 8.28 6.57 93.6 00-7.077 7.851 8.28 6.57 93.6 006.037 8.677zM407.8 381.28c8.79 1.69 11.61 12.08 5.3 18.07-5.92 5.62-17.42 4.96-24.24 1.58-1.28-.64-2.14-2.12-1.55-3.42a.74.74 0 011.06-.33q6.57 4.02 13.65 2.32c3.47-.83 6.95-5.96 5.3-9.5-2.26-4.88-8.05-3.8-12.14-4.47a.64.63 2.8 01-.54-.59c-.31-5.43 8.24-2.95 11.01-7.68 1.63-2.8-.32-5.69-3.15-6.68-5.27-1.84-8.46.38-12.26 3.68a1.16 1.16 0 01-1.92-.99q.5-5.24 4.45-8.73a.59.59 0 01.7-.06l2.39 1.47a1.03 1.03 0 001.01.05q6.19-3.03 12.05-.51c4.43 1.9 7.06 6.02 4.01 10.5-1.21 1.79-3.58 3.02-5.28 4.83q-.34.36.15.46z"/><ellipse fill="#fff" transform="rotate(93.6 -78.478 279.798)" rx="8.28" ry="6.57"/><path fill="#b7b6b7" d="M148.54 372.25q.49.03.81.33a.95.95 0 01.32.83c-.64 5.7-1.64 12.27-.05 17.85 2.56 8.99 1.12 17.86 4 26.74q2.09 6.44 3.76 12.99.12.47.01.95c-.17.7-.27 1.63.13 2.3q3.27 5.5 4.36 11.73-4.26-6.54-5.13-9.97c-2.04-8.03-4.86-15.76-6.2-23.85-.83-5-1.91-10.21-2.27-15q-.95-12.44.26-24.9z"/><path fill="#fff" d="M155.71 373.25q-1.05 11.76.08 23.5-.08.61-.62 1.08a.49.49 0 01-.81-.35q-.45-11.95.19-23.73.04-.82 1.16-.5z"/><path fill="#989b9d" d="M306.5 377.96l-.51.33a.45.44 55 00-.11.65q1.07 1.41.79 2.99-.26 4.81-3.92 7.59a.63.6-14.5 00-.24.39l-.05.34q-.43-.36-.9-.28a.38.37-15.4 00-.29.5l1.15 3.06a1.39 1.39 0 01-1.61 1.84c-5.04-1.12-7.52-3.58-7.65-8.82q-.15-6.34 6.11-9.08 3.49-2.01 7.23.49z"/><path fill="#b7b6b7" d="M299.27 377.47q-6.26 2.74-6.11 9.08c.13 5.24 2.61 7.7 7.65 8.82a1.39 1.39 0 001.61-1.84l-1.15-3.06a.38.37-15.4 01.29-.5q.47-.08.9.28l1.56 2.52a.51.51 0 00.71.16q6.56-4.23 1.94-11 .28-1.58-.79-2.99a.45.44 55 01.11-.65l.51-.33q5.87 4.06 4.59 10.05c-2.99 14.02-22.74 8.72-18.78-4.92q1.45-4.97 6.96-5.62z"/><path d="M306.67 381.93q4.62 6.77-1.94 11a.51.51 0 01-.71-.16l-1.56-2.52.05-.34a.63.6-14.5 01.24-.39q3.66-2.78 3.92-7.59z"/><path fill="#b7b6b7" d="M178.04 408.25q-1.73-9.56-2.33-19.25.44-1.19 1.55-.94a.62.61 8.8 01.48.64q-.63 9.45 1.7 18.6a.55.55 0 01-.39.66l-1.01.29zM157.46 407c1.1 9.66 4.13 17.48 6.5 26.26q1.24 4.6 5.75 12.99-.34.65-.91.54a.95.94-5.2 01-.69-.57c-1.02-2.39-2.71-4.29-3.45-6.68q-1.29-4.14-2.73-8.23c-.73-2.1-.37-4.77-1.7-7.01-1.73-2.94-2.11-6.33-3.09-9.57-.71-2.33-.15-4.85-1.72-7.37a.41.41 0 01.22-.6q.92-.28 1.82.24zM436.29 419.5q-10.22 35.61-35.79 62.29l-.96-.1a.47.47 0 01-.31-.78q8.19-9.3 15.51-18.78c1.49-1.92 2.17-4.45 3.69-6.45 4.06-5.36 5.57-10.9 8.97-16.31 3.87-6.14 4.61-12.91 6.94-20.14a.82.82 0 01.67-.56q1.02-.14 1.28.83zM188.04 468.75c-3.16 1.85-10.82-15.07-13.11-17.15q-1.57-1.42-3.14-2.85-1.64-4.67-2.97-9.47c-1.34-4.86-1.07-10.04-1.75-15.25q-.08-.55.31-.15.48.5.64 1.17c1.06 4.47 1.76 8.83 3.54 13.09 4.62 11.05 8.49 21.4 16.48 30.61z"/><path d="M410.71 485q10.85-11.82 19.12-25.51c3.58-5.93 6.4-12.86 9.42-19.46q3.49-7.63 5.54-15.78.24-.16.49-.17a.56.56 0 01.58.53q.14 2.95-1.56 7.46c-4.68 12.46-8.64 22.81-15.42 32.78-3.44 5.06-6.69 10.42-10.8 14.9q-2.74 3-5.56 5.92a.9.9 0 01-.84.25q-.75-.16-.97-.92z"/><circle fill="#232221" cx="203.79" cy="441.11" r="5.76"/><circle fill="#232221" cx="399.49" cy="441.49" r="5.82"/><path fill="#b7b6b7" d="M185.25 446.96q28.79 51.76 86.54 66.04.03.26-.05.49a.72.71 9 01-.68.49q-2.2.01-3.57-.46-8.47-2.9-17.06-5.43c-3.35-.98-7.44-3.84-9.91-5.11-15.75-8.1-31.33-19.49-41.92-33.84a.72.72 0 00-.75-.28c-1.48.33-10.02-14.03-11.44-16.03-.82-1.16-3.27-4.89-1.16-5.87zM164.34 451.94q2.34 1.45 2.98 4.17.11.48.43.86 3.49 4.19 5.77 9.09c1.58 3.39 3.58 5.82 5.48 8.86a.88.87 44.4 01.02.9l-.27.47q-6.96-9.78-13.44-21.6-.78-1.43-.97-2.75z"/><path fill="#232221" d="M297.22 482.41q5.79-3.88 11.54-2.91c15.17 2.55 11.53 24.26-4.62 24-11.82-.18-18.62-9.8-16.06-20.94q3.91-17.08 23.38-17.89 1.15-.05 2.97.76a1.03 1.01-84.3 01.58.72c.27 1.17-.61 1.65-1.67 1.67-7.53.1-17.59 5.53-16.59 14.37a.3.3 0 00.47.22zm6.077 17.644a7.99 6.81 87.8 006.498-8.245 7.99 6.81 87.8 00-7.112-7.723 7.99 6.81 87.8 00-6.498 8.245 7.99 6.81 87.8 007.112 7.723z"/><path d="M243.805 488.38a5.97 5.58 99.4 01-4.53-6.801 5.97 5.58 99.4 016.48-4.979 5.97 5.58 99.4 014.53 6.801 5.97 5.58 99.4 01-6.48 4.979zm-.18-1.875a4.1 3.46 104.2 004.36-3.126 4.1 3.46 104.2 00-2.35-4.824 4.1 3.46 104.2 00-4.36 3.126 4.1 3.46 104.2 002.35 4.824z"/><ellipse fill="#232221" transform="rotate(88.7 -67.995 424.452)" rx="6" ry="5.53"/><ellipse fill="#232221" transform="rotate(104.2 -65.505 336.485)" rx="4.1" ry="3.46"/><path fill="#b7b6b7" d="M212.25 509.04q-17.37-12.06-30.29-28.79.14-.19.35-.26a.85.83 59.5 01.85.23q5.23 5.55 10.21 11.35c1.36 1.58 3.35 2.05 4.77 3.51q5.81 6.02 13.1 10.15c1.56.88 2.41 2.3 1.01 3.81z"/><ellipse fill="#fff" transform="rotate(87.8 -104.173 403.462)" rx="7.99" ry="6.81"/><path fill="#b7b6b7" d="M376.75 492.46q.45.07.56.44a.83.82 62.2 01-.26.85c-2.63 2.27-5.89 3.57-8.5 5.54q-7.81 5.87-17.47 7.64 13.41-6.48 25.67-14.47zM339.75 510.46q.29.3.3.69a.64.64 0 01-.51.64q-4.1.85-6.12 2.16c-4.09 2.67-9.84 1.58-13.99 2.59-4.06.98-7.89 1.01-11.39 1.41-5.81.66-10.1.64-15.35.33a.64.63 87.8 01-.59-.55q-.16-1.1.9-1.77 23.92 1.68 46.75-5.5zM271.25 521.21q-9.16-1.47-17.96-4.87 8.64 1.1 17.16 3c1.05.24 1.48.92.8 1.87z"/></svg>