<svg xmlns="http://www.w3.org/2000/svg" viewBox="0 0 591 591"><g stroke-width="2" fill="none"><path stroke="#111010" vector-effect="non-scaling-stroke" d="M590.06 0l.19.29"/><path stroke="#5e5f5f" vector-effect="non-scaling-stroke" d="M590.25.29l.04 589.46"/><path stroke="#7e7f70" vector-effect="non-scaling-stroke" d="M590.29 589.75l-.54.54"/><path stroke="#5e5f5f" vector-effect="non-scaling-stroke" d="M589.75 590.29l-588.5-.08"/><path stroke="#111010" vector-effect="non-scaling-stroke" d="M1.25 590.21L0 589.94"/><path stroke="#7e7f70" vector-effect="non-scaling-stroke" d="M586.25 4.52a.27.27 0 00-.27-.27H4.52a.27.27 0 00-.27.27v581.46a.27.27 0 00.27.27h581.46a.27.27 0 00.27-.27V4.52"/><path stroke="#6f6f6f" vector-effect="non-scaling-stroke" d="M591 587.31c-.84-.45-.25-537.06-.25-586.81a.25.24-86.1 00-.21-.25q-.17-.02-.29.04"/><path stroke="#dcddcf" vector-effect="non-scaling-stroke" d="M591 590.31l-.71-.56"/><path stroke="#fbf1c5" vector-effect="non-scaling-stroke" d="M89.06 46.02a1.72 1.72 0 00-1.48-.7q-18.79.82-37.38 1.27c-11.08.27-20.2 1.58-23.92 12.35q-1.46 4.21-1.13 16.26.48 17.98.83 36.75a.51.51 0 00.76.43q.94-.54 1.88-1.51 29.98-30.78 59.2-62.26c.58-.63 1.78-1.86 1.24-2.59"/><path stroke="#7e7f70" vector-effect="non-scaling-stroke" d="M148.25 277.21q-10 .51-15.75 1.29-27.14 3.7-54.5 4.79"/><path stroke="#8f8f80" vector-effect="non-scaling-stroke" d="M78 283.29l-13.54.95a.54.54 0 00-.5.55c.63 28.12 1.69 49.96 2.24 84.39.39 24.79 1.54 49.6 2.46 74.37a.79.77 10 00.49.69q2.21.91 5.64 2.99c28.22 17.1 50.93 31.17 75.17 47.54q5.27 3.56 9.09 5.23a1.33 1.33 0 00.92.06c3.24-.93 7.28-1.03 9.85-1.49q45.89-8.16 91.99-14.92c3.32-.49 7.11-1.4 10.69-1.94"/><path stroke="#c9cbbe" vector-effect="non-scaling-stroke" d="M272.5 481.71l.32.03a.44.43.9 01.39.39c.49 5.04 2.9 9.17 3.44 13.75.76 6.5 1.75 16.25-1.21 22.28a1.64 1.63 54.9 00-.16.93c.56 4.47 2.98 11.31 9.02 9.04 1.9-.72 3.23-2.23 5.23-3.05q6.33-2.6 12.78-5.24a.7.69 58.2 01.79.19c1.51 1.81 5.43 5.89 7.93 5.04q12.44-4.28 38.18-13.87a1.23 1.22-41.3 01.99.06l1.31.7a1.23 1.22-41.3 00.99.06c10.33-3.99 17.49-9.05 28.72-7.34a1.18 1.17 30.1 00.88-.23c3-2.36 19.42-10.25 16.48-14.28a.26.26 0 01.14-.4l11.53-3.34a.9.89 83.2 00.64-.82l.16-3.7a.54.54 0 01.51-.52l2.44-.18"/><path stroke="#8f8f80" vector-effect="non-scaling-stroke" d="M414 481.21c27.29.77 53.64-2.34 80.19-8.47 9.6-2.21 19.13-5.73 28.55-8.76 16.19-5.21 33.17-13.84 45.01-28.19"/><path stroke="#7e7f70" vector-effect="non-scaling-stroke" d="M567.75 435.79c8.07-11.02 5.13-22.68-1.79-33.54"/><path stroke="#8f8f80" vector-effect="non-scaling-stroke" d="M565.96 402.25L436.2 190.82a1.02 1.01-45.9 00-1.74.03q-2.54 4.37-5.06 9.4c-3.49 6.98-7.7 13.65-11.16 20.76-3.02 6.18-6.85 12.04-9.94 18.29q-.22.45-.37-.03c-18.4-57.69-70.54-93.62-130.9-91.93-4.86.13-9.91 1.25-14.93 1.92-33.6 4.51-64.33 25.12-84.45 51.74-3.2 4.23-5.59 9.21-8.31 13.98-10.6 18.58-15.85 39.84-16.43 61.2a.57.57 0 01-.5.55l-4.16.48"/><path stroke="#111010" vector-effect="non-scaling-stroke" d="M565.96 402.25q-.29-.22-.62-.17a.5.5 0 00-.33.78l2.27 3.24q.28.4.4.88 1.24 4.95 2.1 7.02c3.19 7.77 1.06 14.23-2.64 21.32a.3.29 17.1 00.23.43l.38.04"/><path stroke="#5c5c5e" vector-effect="non-scaling-stroke" d="M414 481.21q-5.6-.79-11.25-.42"/><path stroke="#8f8f80" vector-effect="non-scaling-stroke" d="M402.75 480.79q-34.97-.54-66.93-17.02a.24.24 0 00-.35.22l.38 8.78a.89.88-4.5 01-.79.92l-17.81 1.77"/><path stroke="#5c5c5e" vector-effect="non-scaling-stroke" d="M317.25 475.46l-1.21-.84"/><path stroke="#6f6f6f" vector-effect="non-scaling-stroke" d="M316.04 474.62q.49-4.99-.29-9.66"/><path stroke="#5c5c5e" vector-effect="non-scaling-stroke" d="M315.75 464.96l-1.95-23.73a1.03 1.02-24.2 01.32-.83c2.14-1.99 7.36-6.55 7.08-9.62q-.81-8.85-4.66-16.78"/><path stroke="#919090" vector-effect="non-scaling-stroke" d="M316.54 414l-1.08-3"/><path stroke="#5c5c5e" vector-effect="non-scaling-stroke" d="M315.46 411c-.79-5.53-8.94-8.86-13.74-10.6a.38.37 27.8 01-.18-.57q1.18-1.66 1.47-3.28"/><path stroke="#6f6f6f" vector-effect="non-scaling-stroke" d="M303.01 396.55l1.63-5.4q.14-.48.04-.97l-1.32-6.65"/><path stroke="#5c5c5e" vector-effect="non-scaling-stroke" d="M303.36 383.53c1.65-8.87-14.6-6.66-16.07-2.97-1.57 3.91-3.82 13.17-.51 17.09a.67.66-50.6 01.07.78q-1 1.72-2.82 1.93a1.76 1.71 20.9 00-.93.4q-2.46 2.1-3.85 4.95"/><path stroke="#6f6f6f" vector-effect="non-scaling-stroke" d="M279.25 405.71c-3.32 4.58-7.03 7.08-8.79 12.79"/><path stroke="#5c5c5e" vector-effect="non-scaling-stroke" d="M270.46 418.5l-.75 1"/><path stroke="#919090" vector-effect="non-scaling-stroke" d="M269.71 419.5q-5.18.8-10 2.81a.33.33 0 00-.11.54q3.14 3.25 5.44 7.15"/><path stroke="#5c5c5e" vector-effect="non-scaling-stroke" d="M265.04 430l.25 2"/><path stroke="#6f6f6f" vector-effect="non-scaling-stroke" d="M265.29 432c-3.22 5.3-.78 8.28 2.99 12.07a.93.92-28.1 00.84.25q2.35-.52 4.17-1.82"/><path stroke="#5c5c5e" vector-effect="non-scaling-stroke" d="M273.29 442.5c2.68-.43.58 11.3.17 14"/><path stroke="#111010" vector-effect="non-scaling-stroke" d="M273.46 456.5q-.59-.41-1.05-.1a.94.93-17.4 00-.41.77v21.09a.49.49 0 00.5.49h.46"/><path stroke="#5c5c5e" vector-effect="non-scaling-stroke" d="M272.96 478.75q.44 1.65-.46 2.96"/><path stroke="#111010" vector-effect="non-scaling-stroke" d="M78 283.29l-.32.43a.47.46 18.1 00.38.74q9.02.06 17.27-.7 12.86-1.18 25.73-2.35 2.29-.21.59 1.34l-1.17 1.07a.89.89 0 01-.79.21q-2.17-.46-2.96 1.51a1 1 0 01-.72.6q-5.32 1.11-10.76 1.16-6.32.06-12.3 2.07"/><path stroke="#919090" vector-effect="non-scaling-stroke" d="M92.95 289.37l-1.86.64a.36.35-30.7 00-.15.57c.44.5 7.09 1.82 8.28 2.15 14.28 4 28.63 7.06 42.83 11.5 3.93 1.23 10.1 2.47 15.1 2.52q18.38.19 36.66-1.45c18.64-1.68 35.87-2.75 53.75-4.65 18.88-2 36.24-3.43 54.45-4.46a.24.24 0 00.02-.47q-6.05-.96-12.09-1.65c-25.69-2.93-50.02-6.83-82.46-13.19q-2.56-.5-3.98-.38-21.6 1.91-43.24 2.56"/><path stroke="#111010" vector-effect="non-scaling-stroke" d="M160.26 283.06q-12.39-1.08-18.77.42-4.21.99-6.66.92a.62.62 0 01-.58-.75q.19-.9-.31-1.62a1.15 1.15 0 01-.16-.89c1.15-4.92 12.17 1.46 14.47-3.93"/><path stroke="gray" vector-effect="non-scaling-stroke" d="M160.26 283.06q-20.91 2.23-41.76 4.44-16.94 1.8-25.55 1.87"/><path stroke="#a9abad" vector-effect="non-scaling-stroke" d="M303.36 383.53c-2.37.58-.28 4.86.46 6.5a.99.98-43.3 01-.03.87q-1.49 2.66-.78 5.65"/><path stroke="#cbcccd" vector-effect="non-scaling-stroke" d="M315.46 411l-3.57-1.49a.8.8 0 00-1.05 1.04c2.94 7.25 3.03 12.68 3.47 20.39a.38.38 0 00.74.08q1.99-7.58.76-15.38a1.23 1.22-31.9 01.21-.88l.52-.76"/><path stroke="#a9abad" vector-effect="non-scaling-stroke" d="M315.75 464.96l-.68.04a.49.49 0 00-.45.56l1.42 9.06"/><path stroke="#c9cbbe" vector-effect="non-scaling-stroke" d="M317.25 475.46q-.93 3.34-.39 6.76c.73 4.64-3.99 4.92-3.63 7.03.9 5.39 2.83 8.57 2.82 15.15a.38.37 80.6 00.49.36l6.29-2.14q1.7-.58.01-.75-1.77-.18-1.98-1.75a.71.7 73.4 01.39-.73q3.72-1.8 7.66-2.93c5.39-1.54 10.67-3.7 16.29-4.51a.51.5-8.7 00.42-.57c-1.18-7.82 3.38-6.89 8.93-6.9a1.7 1.7 0 00.92-.27l4.37-2.85q.42-.27.72-.68c1.26-1.71 4.29.55 5.83 1.18 3.78 1.56 9.5-.29 13.55-.4q11.21-.29 22.44.01a.36.36 0 00.37-.37v-.31"/><path stroke="#4b4c4e" vector-effect="non-scaling-stroke" d="M272.96 478.75l.5-22.25"/><path stroke="#a9abad" vector-effect="non-scaling-stroke" d="M273.29 442.5q.18-.69-.13-1.06a.62.61-37.4 00-.8-.1l-.7.48a1.02 1.01-52.9 01-.9.13l-3.77-1.21a.94.91 89.1 01-.6-.6q-1.17-3.79-.05-7.64a.39.39 0 00-.38-.5h-.67"/><path stroke="#cbcccd" vector-effect="non-scaling-stroke" d="M265.04 430h.29a.27.27 0 00.25-.17l4.13-10.33"/><path stroke="#a9abad" vector-effect="non-scaling-stroke" d="M270.46 418.5q.44.32.97.3a.83.82-80 00.73-.52l1.37-3.48a1.47 1.44-5.4 01.62-.73q4.32-2.59 6.28-7.31a.51.51 0 00-.28-.67l-.9-.38"/><path stroke="#5c5c5e" vector-effect="non-scaling-stroke" d="M173.25 224.79q-3.81 7.89-6.71 16.21"/><path stroke="#6f6f6f" vector-effect="non-scaling-stroke" d="M166.54 241q-4.07 14.03-6 28.5"/><path stroke="#5c5c5e" vector-effect="non-scaling-stroke" d="M160.54 269.5l-.29 4.67a1.78 1.78 0 001.93 1.88q18.96-1.7 37.42-3.47c2.39-.22 5.75.16 8.03.55q26 4.37 51.86 9.44.69.13 3-.07"/><path stroke="#6f6f6f" vector-effect="non-scaling-stroke" d="M262.49 282.5l29.26 4.04"/><path stroke="#5c5c5e" vector-effect="non-scaling-stroke" d="M291.75 286.54l10.25 1.67"/><path stroke="#6f6f6f" vector-effect="non-scaling-stroke" d="M302 288.21c2.79.51 11.81 3.13 13.39.2q5.81-10.78 10.71-21.99c4.07-9.31 6.86-15.2 8.63-22.92 3.99-17.39 6.1-36.29.48-54.25"/><path stroke="#5c5c5e" vector-effect="non-scaling-stroke" d="M335.21 189.25l-.37-1.71a.94.94 0 011.06-1.12c7.68 1.21 15.55 5.32 22.13 9.16 14.35 8.39 28.4 22.48 36.58 36.97q2.24 3.96 4.76 7.75.28.42.13-.06c-8.05-25.57-25.45-51.3-49.25-64.7"/><path stroke="#6f6f6f" vector-effect="non-scaling-stroke" d="M350.25 175.54q-15.84-10.3-34-15.5"/><path stroke="#5c5c5e" vector-effect="non-scaling-stroke" d="M316.25 160.04q-4.64-1.94-9.53-2.03"/><path stroke="#6f6f6f" vector-effect="non-scaling-stroke" d="M306.72 158.01q-11.04-2.51-22.25-3.13c-5.57-.31-11.15.67-16.78 1.4-20.05 2.59-40.28 11.14-56.45 22.46q-24.85 17.39-37.99 46.05"/><path stroke="#a9abad" vector-effect="non-scaling-stroke" d="M306.72 158.01q-10.34-.96-20.68-1.76c-10.49-.81-21.1 1.21-31.28 3.26q-.37.08-.66.33-.37.31-.84.44c-9.1 2.38-15.83 5.53-23.36 8.99-5.41 2.48-10.13 5.77-15.28 8.57-1.99 1.07-3.38 2.79-5.27 4.08q-2.71 1.85-3.92 3.05-14.67 14.52-19.19 20.27-4.43 5.65-10.2 17.49-.75 1.54-2.79 2.06M316.25 160.04l-.01.53a.73.72-81.2 00.5.69q12.96 4.04 24.86 10.62 3.32 1.84 6.58 4.6a1.42 1.42 0 001.71.09q.46-.32.36-1.03M335.21 189.25q-.3-.14-.73.03a.62.61 73.2 00-.37.7c1.44 6.56 3.82 14.71 3.33 21.38q-.22 2.99-.82 7.32c-.46 3.34.1 7.45-.73 11.35-1.62 7.56-3.15 14.69-5.57 22.03-1.74 5.3-4.67 10.42-6.9 15.8-2.85 6.88-6.44 12.99-9.93 19.36-2.34 4.28-10.22-2.22-11.49.99M291.75 286.54q.78.1 1.31-.44.82-.85-.36-.87-4.05-.07-7.9-1.25c-1.82-.55-3.71.14-5.79-.22q-8.2-1.44-16.52-1.26M160.54 269.5q2.7-.47 2.75-2.77.33-13.58 4.06-24.02c.28-.79.14-1.62-.81-1.71"/><path stroke="#919090" vector-effect="non-scaling-stroke" d="M431.94 211.21q-5.35 9.91-10.79 19.56c-1.26 2.23-2.29 5.03-3.38 7.02-26.64 48.65-49.33 91.97-81.6 151.59q-2.59 4.78-2.5 9.87c.32 17.68 1.33 36.76 1.33 55.04a.9.89 15.3 00.44.77l5.77 3.44"/><path stroke="#5c5c5e" vector-effect="non-scaling-stroke" d="M341.21 458.5q9.71 5.57 14.97 7.08c10.47 3 19.45 6.25 31.32 7.13"/><path stroke="#6f6f6f" vector-effect="non-scaling-stroke" d="M387.5 472.71q30.36 2.76 60.67.35c12.5-.99 24.72-3.15 36.96-5.85a.45.44 73.3 00.31-.59q-1.2-3.16-1.77-6.65-1.8-11.1-4.41-22.2"/><path stroke="#5c5c5e" vector-effect="non-scaling-stroke" d="M479.26 437.77q.07-4.84-1.47-9.52"/><path stroke="#6f6f6f" vector-effect="non-scaling-stroke" d="M477.79 428.25q-3.01-15.87-6.65-31.59c-6.21-26.9-10.86-53.94-16.81-86.72-4.79-26.41-11.5-55.43-17.37-86.44"/><path stroke="#5c5c5e" vector-effect="non-scaling-stroke" d="M436.96 223.5l-3.09-15.01q-.11-.53-.48-.14-1.21 1.24-1.45 2.86"/><path stroke="#a9abad" vector-effect="non-scaling-stroke" d="M436.96 223.5c-.83-.14-1.12.48-.98 1.2q1.96 10.35 3.51 20.78c.64 4.34 3.1 9.12 3.52 12.76q.9 7.91 3.13 15.56c.4 1.38.31 2.74.62 4.2q3.45 16.13 5.73 32.48c.4 2.85 1.95 5.27 2.23 8.81q.47 5.98 4.09 21.4.23.97.42 2.51c.69 5.46 2.14 10.7 2.71 16.2q.3 2.86.9 5.77c1.01 4.84 1.53 9.65 2.81 14.3 1.16 4.18 2.43 8.57 2.86 12.88.25 2.56 1.65 5.13 1.99 7.47q.8 5.53 2.5 10.85c.66 2.08.63 4.28 1.24 6.49 1.17 4.24 1.21 8.29 2.28 12.46a.28.27-19.8 00.39.18l.33-.17a.93.92-11.8 00.51-.77l.04-.61M479.26 437.77q.66 9.96 2.42 19.78c.39 2.15 1.83 4.69 1.7 7.52a.73.73 0 01-.51.65c-7.82 2.31-15.73 2.87-23.82 3.4q-2.34.15-4.85 1.09-6.33 2.36-13.12 1.86c-3.68-.28-7.24.9-10.94.92q-16.6.1-33.2-.28c-1.11-.03-9.92-1.75-9.44 0"/><path stroke="#cbcccd" vector-effect="non-scaling-stroke" d="M341.21 458.5c2.69-5.92 5.2-13.25 7.02-18.06q23.79-62.73 47.22-125.6 2.97-7.97 7.22-18.63c9.03-22.69 17.19-45.71 26.12-68.44q2.9-7.4 3.15-16.56"/><path stroke="#5c5c5e" vector-effect="non-scaling-stroke" d="M71.56 294.53q.52 16.18 1.01 32.04c.32 10.53 1.42 26.75 1.4 40.18q-.01 1.63.82 4.47"/><path stroke="#6f6f6f" vector-effect="non-scaling-stroke" d="M74.79 371.22l1.8 62.79"/><path stroke="#5c5c5e" vector-effect="non-scaling-stroke" d="M76.59 434.01q-1.31 3.26.37 5.99"/><path stroke="#6f6f6f" vector-effect="non-scaling-stroke" d="M76.96 440q20.45 12.11 40.79 24.38c6.86 4.13 14.49 10.08 22.13 14.6 5.86 3.47 10.49 6.7 15.62 10.31"/><path stroke="#5c5c5e" vector-effect="non-scaling-stroke" d="M155.5 489.29l1.71.96"/><path stroke="#6f6f6f" vector-effect="non-scaling-stroke" d="M157.21 490.25l.87 1.01q1.05 1.24 1.02-.38L157.96 441"/><path stroke="#5c5c5e" vector-effect="non-scaling-stroke" d="M157.96 441q-1.19-43.98-3.02-87.94-.07-1.7-.71-2.79"/><path stroke="#8f8f80" vector-effect="non-scaling-stroke" d="M154.23 350.27q.29-17.51-.76-34.96a.68.67-84.8 00-.51-.62l-37.07-9.86"/><path stroke="#5c5c5e" vector-effect="non-scaling-stroke" d="M115.89 304.83q-3.29-2.02-7.15-1.82"/><path stroke="#8f8f80" vector-effect="non-scaling-stroke" d="M108.74 303.01l-15.05-3.56"/><path stroke="#5c5c5e" vector-effect="non-scaling-stroke" d="M93.69 299.45q-5-2.66-10.69-3.16"/><path stroke="#6f6f6f" vector-effect="non-scaling-stroke" d="M83 296.29q-5.53-2.37-11.44-1.76"/><path stroke="#a9abad" vector-effect="non-scaling-stroke" d="M83 296.29q.56.64.1 1.23a.61.61 0 01-.79.15c-3.73-2.22-7.04-1.49-10.75-3.14"/><path stroke="#c9cbbe" vector-effect="non-scaling-stroke" d="M93.69 299.45q7.07 3.74 15.05 3.56M115.89 304.83q17.7 6.36 36.18 10.55a1.15 1.15 0 01.87 1.37c-.58 2.53-.05 5.77-.01 7.72q.31 12.92 1.3 25.8"/><path stroke="#a9abad" vector-effect="non-scaling-stroke" d="M157.96 441q-.23-.53-.82-.5a.73.72 82.8 00-.67.87c.85 4.23-.04 7.7.37 11.72q.18 1.8.18 1.85.29 16.03 1.05 32.06.08 1.76-.86 3.25M155.5 489.29q.16-.1.23-.25a.57.57 0 00-.14-.69q-5.01-4.22-10.52-7.73c-4.02-2.57-7.82-5.8-11.07-7.87q-9.84-6.24-38.49-23.52c-2.53-1.53-5.77-2.69-8.64-4.85-1.2-.9-9.36-6.5-9.91-4.38M76.59 434.01q.44-16.88.17-33.76-.23-14.58-1.97-29.03"/><path stroke="#5c5c5e" vector-effect="non-scaling-stroke" d="M316.72 440.37q-.86-.69-1.59-.03a.34.34 0 00.27.59l1.18-.11a.26.25-28 00.14-.45"/><path stroke="#cbcccd" vector-effect="non-scaling-stroke" d="M269.491 188.44a25.03 24.39-23.4 00-32.657-12.444 25.03 24.39-23.4 00-13.285 32.325 25.03 24.39-23.4 0032.657 12.443 25.03 24.39-23.4 0013.285-32.325M205.44 242.672a12.98 12.34 93.8 0013.173-12.134 12.98 12.34 93.8 00-11.453-13.77 12.98 12.34 93.8 00-13.173 12.134 12.98 12.34 93.8 0011.453 13.77M294.8 392.05c1.83-.07 1.26 2 2.27 2.22a.66.66 0 00.75-.37q2.54-5.51 2.4-11.55a1.65 1.65 0 00-1.6-1.61c-4.06-.14-7.4-.52-9.31 4.03q-3.56 8.49 2.54 14.01a.58.56-44.2 00.76 0c.38-.33-.8-3.45-.83-4.29q-.02-.74.52-.24l3.78 3.49q.68.62.7-.3.08-2.89-2.24-4.45a.52.51 60.7 01.26-.94M293 407.6q5.64.36 10.89-2.19a.6.59-54.7 00-.19-1.13q-2.97-.32-4.14-2.9a.66.65 72.8 00-.71-.38q-6.53 1.18-13.05-.07a.61.61 0 00-.7.41l-1.45 4.43a.36.36 0 00.34.47q3.87.03 7.21 1.53.32.15.84-.03.46-.17.96-.14"/><path stroke="#5c5c5e" vector-effect="non-scaling-stroke" d="M295.07 468.4q-1.07 4.72-.63 9.6a.97.96 17.4 00.33.63q.19.17.27.37"/><path stroke="#c9cbbe" vector-effect="non-scaling-stroke" d="M295.04 479c-1.06 1.72-.54 11.18-.62 13.74a.55.55 0 01-.59.53l-1.97-.13a.47.46 3 00-.5.44l-.73 19.44a.47.46 80.4 00.63.45l9.48-3.63a.65.65 0 00.41-.71c-.41-2.62-.3-4.89-1.09-7.52q-1.23-4.15-1.08-8.55a.77.75-76.7 00-.42-.7c-1.06-.53-1.5-.96-1.52-2.25q-.1-5.54-.29-11.07"/><path stroke="#5c5c5e" vector-effect="non-scaling-stroke" d="M296.75 479.04l.29-.54"/><path stroke="#cbcccd" vector-effect="non-scaling-stroke" d="M297.04 478.5l1.2 1.62q.36.48.52-.1 4.66-17.76 8.15-35.79.1-.51-.32-.2c-1 .73-1.6 1.57-2.78 2.18-4.97 2.59-9.51 7.46-14.34 11.09a.32.31 88.6 01-.45-.43c7-10.29 20.11-20.1 19.45-33.55a.33.33 0 00-.47-.28q-6.89 3.33-15.08 2.25-1.57-.2-1.85-1.49a.34.34 0 01.41-.4c7.77 1.89 14.66-4.7 16.9-11.49q.63-1.9-.9-2.58a.81.8-55.5 00-.89.17q-5.85 5.86-14.1 6.66a.54.54 0 01-.27-1.03q4.09-1.84 7.62-4.56a.44.44 0 00-.18-.78q-1.06-.22-1.83.48a1.36 1.36 0 01-.96.35l-16.47-.7a.72.72 0 00-.65.35c-3.68 6.07-13.41 21.13-12.2 28.02a1.37 1.35 14.5 00.49.82c5.23 4.27 7.82-5.67 9.25-8.82a.19.19 0 01.37.1q-1.12 9.11-.68 18.21c.62 12.81.64 21.92 1.11 32.9q.1 2.23.57 4.51a.73.72-.5 00.58.56l11.74 2.13a.49.49 0 00.57-.4c.65-4.33.36-10.14 1.29-15.36.37-2.14-.01-5.01 1.05-7.52a.37.37 0 01.59-.13q1.42 1.28.59 3.11"/><path stroke="#919090" vector-effect="non-scaling-stroke" d="M297.04 478.5q-.3-4.95-1.97-10.1"/><path stroke="#8f8f80" vector-effect="non-scaling-stroke" d="M296.75 479.04l-1.71-.04"/><path stroke="#cbcccd" vector-effect="non-scaling-stroke" d="M309.35 459.33c-.07.04-7.93 25.11-8.86 27.75a.48.48 0 00.79.49q4.53-4.63 7.64-10.27c2.15-3.89 1.06-13.08.97-17.68a.35.35 0 00-.54-.29"/><path stroke="#c9cbbe" vector-effect="non-scaling-stroke" d="M322.51 512.774a.36.36 0 00-.48-.169l-5.357 2.567a.36.36 0 00-.17.48l.027.054a.36.36 0 00.48.169l5.357-2.567a.36.36 0 00.17-.48l-.027-.054"/><path stroke="#dcddcf" vector-effect="non-scaling-stroke" d="M589.94 591l-.19-.71"/><path stroke="#6f6f6f" vector-effect="non-scaling-stroke" d="M1.25 590.21l11.19.79"/></g><path d="M0 0h590.06l.19.29.04 589.46-.54.54-588.5-.08-1.25-.27V0zm586.25 4.52a.27.27 0 00-.27-.27H4.52a.27.27 0 00-.27.27v581.46a.27.27 0 00.27.27h581.46a.27.27 0 00.27-.27V4.52z"/><path fill="#222020" d="M590.06 0h.94v587.31c-.84-.45-.25-537.06-.25-586.81a.25.24-86.1 00-.21-.25q-.17-.02-.29.04l-.19-.29z"/><path fill="#bcbdbe" d="M590.25.29q.12-.06.29-.04a.25.24-86.1 01.21.25c0 49.75-.59 586.36.25 586.81v3l-.71-.56L590.25.29z"/><path fill="#fbfde0" d="M586.25 585.98a.27.27 0 01-.27.27H4.52a.27.27 0 01-.27-.27V4.52a.27.27 0 01.27-.27h581.46a.27.27 0 01.27.27v581.46zM89.06 46.02a1.72 1.72 0 00-1.48-.7q-18.79.82-37.38 1.27c-11.08.27-20.2 1.58-23.92 12.35q-1.46 4.21-1.13 16.26.48 17.98.83 36.75a.51.51 0 00.76.43q.94-.54 1.88-1.51 29.98-30.78 59.2-62.26c.58-.63 1.78-1.86 1.24-2.59zm59.19 231.19q-10 .51-15.75 1.29-27.14 3.7-54.5 4.79l-13.54.95a.54.54 0 00-.5.55c.63 28.12 1.69 49.96 2.24 84.39.39 24.79 1.54 49.6 2.46 74.37a.79.77 10 00.49.69q2.21.91 5.64 2.99c28.22 17.1 50.93 31.17 75.17 47.54q5.27 3.56 9.09 5.23a1.33 1.33 0 00.92.06c3.24-.93 7.28-1.03 9.85-1.49q45.89-8.16 91.99-14.92c3.32-.49 7.11-1.4 10.69-1.94l.32.03a.44.43.9 01.39.39c.49 5.04 2.9 9.17 3.44 13.75.76 6.5 1.75 16.25-1.21 22.28a1.64 1.63 54.9 00-.16.93c.56 4.47 2.98 11.31 9.02 9.04 1.9-.72 3.23-2.23 5.23-3.05q6.33-2.6 12.78-5.24a.7.69 58.2 01.79.19c1.51 1.81 5.43 5.89 7.93 5.04q12.44-4.28 38.18-13.87a1.23 1.22-41.3 01.99.06l1.31.7a1.23 1.22-41.3 00.99.06c10.33-3.99 17.49-9.05 28.72-7.34a1.18 1.17 30.1 00.88-.23c3-2.36 19.42-10.25 16.48-14.28a.26.26 0 01.14-.4l11.53-3.34a.9.89 83.2 00.64-.82l.16-3.7a.54.54 0 01.51-.52l2.44-.18c27.29.77 53.64-2.34 80.19-8.47 9.6-2.21 19.13-5.73 28.55-8.76 16.19-5.21 33.17-13.84 45.01-28.19 8.07-11.02 5.13-22.68-1.79-33.54L436.2 190.82a1.02 1.01-45.9 00-1.74.03q-2.54 4.37-5.06 9.4c-3.49 6.98-7.7 13.65-11.16 20.76-3.02 6.18-6.85 12.04-9.94 18.29q-.22.45-.37-.03c-18.4-57.69-70.54-93.62-130.9-91.93-4.86.13-9.91 1.25-14.93 1.92-33.6 4.51-64.33 25.12-84.45 51.74-3.2 4.23-5.59 9.21-8.31 13.98-10.6 18.58-15.85 39.84-16.43 61.2a.57.57 0 01-.5.55l-4.16.48z"/><path fill="#fae4aa" d="M89.06 46.02c.54.73-.66 1.96-1.24 2.59q-29.22 31.48-59.2 62.26-.94.97-1.88 1.51a.51.51 0 01-.76-.43q-.35-18.77-.83-36.75-.33-12.05 1.13-16.26C30 48.17 39.12 46.86 50.2 46.59q18.59-.45 37.38-1.27a1.72 1.72 0 011.48.7z"/><path fill="#222020" d="M565.96 402.25q-.29-.22-.62-.17a.5.5 0 00-.33.78l2.27 3.24q.28.4.4.88 1.24 4.95 2.1 7.02c3.19 7.77 1.06 14.23-2.64 21.32a.3.29 17.1 00.23.43l.38.04c-11.84 14.35-28.82 22.98-45.01 28.19-9.42 3.03-18.95 6.55-28.55 8.76-26.55 6.13-52.9 9.24-80.19 8.47q-5.6-.79-11.25-.42-34.97-.54-66.93-17.02a.24.24 0 00-.35.22l.38 8.78a.89.88-4.5 01-.79.92l-17.81 1.77-1.21-.84q.49-4.99-.29-9.66l-1.95-23.73a1.03 1.02-24.2 01.32-.83c2.14-1.99 7.36-6.55 7.08-9.62q-.81-8.85-4.66-16.78l-1.08-3c-.79-5.53-8.94-8.86-13.74-10.6a.38.37 27.8 01-.18-.57q1.18-1.66 1.47-3.28l1.63-5.4q.14-.48.04-.97l-1.32-6.65c1.65-8.87-14.6-6.66-16.07-2.97-1.57 3.91-3.82 13.17-.51 17.09a.67.66-50.6 01.07.78q-1 1.72-2.82 1.93a1.76 1.71 20.9 00-.93.4q-2.46 2.1-3.85 4.95c-3.32 4.58-7.03 7.08-8.79 12.79l-.75 1q-5.18.8-10 2.81a.33.33 0 00-.11.54q3.14 3.25 5.44 7.15l.25 2c-3.22 5.3-.78 8.28 2.99 12.07a.93.92-28.1 00.84.25q2.35-.52 4.17-1.82c2.68-.43.58 11.3.17 14q-.59-.41-1.05-.1a.94.93-17.4 00-.41.77v21.09a.49.49 0 00.5.49h.46q.44 1.65-.46 2.96c-3.58.54-7.37 1.45-10.69 1.94q-46.1 6.76-91.99 14.92c-2.57.46-6.61.56-9.85 1.49a1.33 1.33 0 01-.92-.06q-3.82-1.67-9.09-5.23c-24.24-16.37-46.95-30.44-75.17-47.54q-3.43-2.08-5.64-2.99a.79.77 10 01-.49-.69c-.92-24.77-2.07-49.58-2.46-74.37-.55-34.43-1.61-56.27-2.24-84.39a.54.54 0 01.5-.55l13.54-.95-.32.43a.47.46 18.1 00.38.74q9.02.06 17.27-.7 12.86-1.18 25.73-2.35 2.29-.21.59 1.34l-1.17 1.07a.89.89 0 01-.79.21q-2.17-.46-2.96 1.51a1 1 0 01-.72.6q-5.32 1.11-10.76 1.16-6.32.06-12.3 2.07l-1.86.64a.36.35-30.7 00-.15.57c.44.5 7.09 1.82 8.28 2.15 14.28 4 28.63 7.06 42.83 11.5 3.93 1.23 10.1 2.47 15.1 2.52q18.38.19 36.66-1.45c18.64-1.68 35.87-2.75 53.75-4.65 18.88-2 36.24-3.43 54.45-4.46a.24.24 0 00.02-.47q-6.05-.96-12.09-1.65c-25.69-2.93-50.02-6.83-82.46-13.19q-2.56-.5-3.98-.38-21.6 1.91-43.24 2.56-12.39-1.08-18.77.42-4.21.99-6.66.92a.62.62 0 01-.58-.75q.19-.9-.31-1.62a1.15 1.15 0 01-.16-.89c1.15-4.92 12.17 1.46 14.47-3.93l4.16-.48a.57.57 0 00.5-.55c.58-21.36 5.83-42.62 16.43-61.2 2.72-4.77 5.11-9.75 8.31-13.98 20.12-26.62 50.85-47.23 84.45-51.74 5.02-.67 10.07-1.79 14.93-1.92 60.36-1.69 112.5 34.24 130.9 91.93q.15.48.37.03c3.09-6.25 6.92-12.11 9.94-18.29 3.46-7.11 7.67-13.78 11.16-20.76q2.52-5.03 5.06-9.4a1.02 1.01-45.9 011.74-.03l129.76 211.43zM173.25 224.79q-3.81 7.89-6.71 16.21-4.07 14.03-6 28.5l-.29 4.67a1.78 1.78 0 001.93 1.88q18.96-1.7 37.42-3.47c2.39-.22 5.75.16 8.03.55q26 4.37 51.86 9.44.69.13 3-.07l29.26 4.04 10.25 1.67c2.79.51 11.81 3.13 13.39.2q5.81-10.78 10.71-21.99c4.07-9.31 6.86-15.2 8.63-22.92 3.99-17.39 6.1-36.29.48-54.25l-.37-1.71a.94.94 0 011.06-1.12c7.68 1.21 15.55 5.32 22.13 9.16 14.35 8.39 28.4 22.48 36.58 36.97q2.24 3.96 4.76 7.75.28.42.13-.06c-8.05-25.57-25.45-51.3-49.25-64.7q-15.84-10.3-34-15.5-4.64-1.94-9.53-2.03-11.04-2.51-22.25-3.13c-5.57-.31-11.15.67-16.78 1.4-20.05 2.59-40.28 11.14-56.45 22.46q-24.85 17.39-37.99 46.05zm258.69-13.58q-5.35 9.91-10.79 19.56c-1.26 2.23-2.29 5.03-3.38 7.02-26.64 48.65-49.33 91.97-81.6 151.59q-2.59 4.78-2.5 9.87c.32 17.68 1.33 36.76 1.33 55.04a.9.89 15.3 00.44.77l5.77 3.44q9.71 5.57 14.97 7.08c10.47 3 19.45 6.25 31.32 7.13q30.36 2.76 60.67.35c12.5-.99 24.72-3.15 36.96-5.85a.45.44 73.3 00.31-.59q-1.2-3.16-1.77-6.65-1.8-11.1-4.41-22.2.07-4.84-1.47-9.52-3.01-15.87-6.65-31.59c-6.21-26.9-10.86-53.94-16.81-86.72-4.79-26.41-11.5-55.43-17.37-86.44l-3.09-15.01q-.11-.53-.48-.14-1.21 1.24-1.45 2.86zM71.56 294.53q.52 16.18 1.01 32.04c.32 10.53 1.42 26.75 1.4 40.18q-.01 1.63.82 4.47l1.8 62.79q-1.31 3.26.37 5.99 20.45 12.11 40.79 24.38c6.86 4.13 14.49 10.08 22.13 14.6 5.86 3.47 10.49 6.7 15.62 10.31l1.71.96.87 1.01q1.05 1.24 1.02-.38L157.96 441q-1.19-43.98-3.02-87.94-.07-1.7-.71-2.79.29-17.51-.76-34.96a.68.67-84.8 00-.51-.62l-37.07-9.86q-3.29-2.02-7.15-1.82l-15.05-3.56q-5-2.66-10.69-3.16-5.53-2.37-11.44-1.76zm245.16 145.84q-.86-.69-1.59-.03a.34.34 0 00.27.59l1.18-.11a.26.25-28 00.14-.45z"/><path fill="#bcbdbe" d="M306.72 158.01q-10.34-.96-20.68-1.76c-10.49-.81-21.1 1.21-31.28 3.26q-.37.08-.66.33-.37.31-.84.44c-9.1 2.38-15.83 5.53-23.36 8.99-5.41 2.48-10.13 5.77-15.28 8.57-1.99 1.07-3.38 2.79-5.27 4.08q-2.71 1.85-3.92 3.05-14.67 14.52-19.19 20.27-4.43 5.65-10.2 17.49-.75 1.54-2.79 2.06 13.14-28.66 37.99-46.05c16.17-11.32 36.4-19.87 56.45-22.46 5.63-.73 11.21-1.71 16.78-1.4q11.21.62 22.25 3.13z"/><path fill="#96989b" d="M306.72 158.01q4.89.09 9.53 2.03l-.01.53a.73.72-81.2 00.5.69q12.96 4.04 24.86 10.62 3.32 1.84 6.58 4.6a1.42 1.42 0 001.71.09q.46-.32.36-1.03c23.8 13.4 41.2 39.13 49.25 64.7q.15.48-.13.06-2.52-3.79-4.76-7.75c-8.18-14.49-22.23-28.58-36.58-36.97-6.58-3.84-14.45-7.95-22.13-9.16a.94.94 0 00-1.06 1.12l.37 1.71q-.3-.14-.73.03a.62.61 73.2 00-.37.7c1.44 6.56 3.82 14.71 3.33 21.38q-.22 2.99-.82 7.32c-.46 3.34.1 7.45-.73 11.35-1.62 7.56-3.15 14.69-5.57 22.03-1.74 5.3-4.67 10.42-6.9 15.8-2.85 6.88-6.44 12.99-9.93 19.36-2.34 4.28-10.22-2.22-11.49.99l-10.25-1.67q.78.1 1.31-.44.82-.85-.36-.87-4.05-.07-7.9-1.25c-1.82-.55-3.71.14-5.79-.22q-8.2-1.44-16.52-1.26-2.31.2-3 .07-25.86-5.07-51.86-9.44c-2.28-.39-5.64-.77-8.03-.55q-18.46 1.77-37.42 3.47a1.78 1.78 0 01-1.93-1.88l.29-4.67q2.7-.47 2.75-2.77.33-13.58 4.06-24.02c.28-.79.14-1.62-.81-1.71q2.9-8.32 6.71-16.21 2.04-.52 2.79-2.06 5.77-11.84 10.2-17.49 4.52-5.75 19.19-20.27 1.21-1.2 3.92-3.05c1.89-1.29 3.28-3.01 5.27-4.08 5.15-2.8 9.87-6.09 15.28-8.57 7.53-3.46 14.26-6.61 23.36-8.99q.47-.13.84-.44.29-.25.66-.33c10.18-2.05 20.79-4.07 31.28-3.26q10.34.8 20.68 1.76zm-37.229 30.43a25.03 24.39-23.4 00-32.657-12.444 25.03 24.39-23.4 00-13.285 32.325 25.03 24.39-23.4 0032.657 12.443 25.03 24.39-23.4 0013.285-32.325zm-64.051 54.232a12.98 12.34 93.8 0013.173-12.134 12.98 12.34 93.8 00-11.453-13.77 12.98 12.34 93.8 00-13.173 12.134 12.98 12.34 93.8 0011.453 13.77z"/><path fill="#bcbdbe" d="M316.25 160.04q18.16 5.2 34 15.5.1.71-.36 1.03a1.42 1.42 0 01-1.71-.09q-3.26-2.76-6.58-4.6-11.9-6.58-24.86-10.62a.73.72-81.2 01-.5-.69l.01-.53z"/><ellipse fill="#fff" transform="rotate(-23.4 602.23 -496.01)" rx="25.03" ry="24.39"/><path fill="#bcbdbe" d="M335.21 189.25c5.62 17.96 3.51 36.86-.48 54.25-1.77 7.72-4.56 13.61-8.63 22.92q-4.9 11.21-10.71 21.99c-1.58 2.93-10.6.31-13.39-.2 1.27-3.21 9.15 3.29 11.49-.99 3.49-6.37 7.08-12.48 9.93-19.36 2.23-5.38 5.16-10.5 6.9-15.8 2.42-7.34 3.95-14.47 5.57-22.03.83-3.9.27-8.01.73-11.35q.6-4.33.82-7.32c.49-6.67-1.89-14.82-3.33-21.38a.62.61 73.2 01.37-.7q.43-.17.73-.03z"/><path fill="#96989b" d="M436.96 223.5c-.83-.14-1.12.48-.98 1.2q1.96 10.35 3.51 20.78c.64 4.34 3.1 9.12 3.52 12.76q.9 7.91 3.13 15.56c.4 1.38.31 2.74.62 4.2q3.45 16.13 5.73 32.48c.4 2.85 1.95 5.27 2.23 8.81q.47 5.98 4.09 21.4.23.97.42 2.51c.69 5.46 2.14 10.7 2.71 16.2q.3 2.86.9 5.77c1.01 4.84 1.53 9.65 2.81 14.3 1.16 4.18 2.43 8.57 2.86 12.88.25 2.56 1.65 5.13 1.99 7.47q.8 5.53 2.5 10.85c.66 2.08.63 4.28 1.24 6.49 1.17 4.24 1.21 8.29 2.28 12.46a.28.27-19.8 00.39.18l.33-.17a.93.92-11.8 00.51-.77l.04-.61q1.54 4.68 1.47 9.52.66 9.96 2.42 19.78c.39 2.15 1.83 4.69 1.7 7.52a.73.73 0 01-.51.65c-7.82 2.31-15.73 2.87-23.82 3.4q-2.34.15-4.85 1.09-6.33 2.36-13.12 1.86c-3.68-.28-7.24.9-10.94.92q-16.6.1-33.2-.28c-1.11-.03-9.92-1.75-9.44 0-11.87-.88-20.85-4.13-31.32-7.13q-5.26-1.51-14.97-7.08c2.69-5.92 5.2-13.25 7.02-18.06q23.79-62.73 47.22-125.6 2.97-7.97 7.22-18.63c9.03-22.69 17.19-45.71 26.12-68.44q2.9-7.4 3.15-16.56.24-1.62 1.45-2.86.37-.39.48.14l3.09 15.01z"/><path fill="#fff" d="M431.94 211.21q-.25 9.16-3.15 16.56c-8.93 22.73-17.09 45.75-26.12 68.44q-4.25 10.66-7.22 18.63-23.43 62.87-47.22 125.6c-1.82 4.81-4.33 12.14-7.02 18.06l-5.77-3.44a.9.89 15.3 01-.44-.77c0-18.28-1.01-37.36-1.33-55.04q-.09-5.09 2.5-9.87c32.27-59.62 54.96-102.94 81.6-151.59 1.09-1.99 2.12-4.79 3.38-7.02q5.44-9.65 10.79-19.56z"/><ellipse fill="#fff" transform="rotate(93.8 -4.334 211.386)" rx="12.98" ry="12.34"/><path fill="#bcbdbe" d="M436.96 223.5c5.87 31.01 12.58 60.03 17.37 86.44 5.95 32.78 10.6 59.82 16.81 86.72q3.64 15.72 6.65 31.59l-.04.61a.93.92-11.8 01-.51.77l-.33.17a.28.27-19.8 01-.39-.18c-1.07-4.17-1.11-8.22-2.28-12.46-.61-2.21-.58-4.41-1.24-6.49q-1.7-5.32-2.5-10.85c-.34-2.34-1.74-4.91-1.99-7.47-.43-4.31-1.7-8.7-2.86-12.88-1.28-4.65-1.8-9.46-2.81-14.3q-.6-2.91-.9-5.77c-.57-5.5-2.02-10.74-2.71-16.2q-.19-1.54-.42-2.51-3.62-15.42-4.09-21.4c-.28-3.54-1.83-5.96-2.23-8.81q-2.28-16.35-5.73-32.48c-.31-1.46-.22-2.82-.62-4.2q-2.23-7.65-3.13-15.56c-.42-3.64-2.88-8.42-3.52-12.76q-1.55-10.43-3.51-20.78c-.14-.72.15-1.34.98-1.2zM166.54 241c.95.09 1.09.92.81 1.71q-3.73 10.44-4.06 24.02-.05 2.3-2.75 2.77 1.93-14.47 6-28.5z"/><path d="M148.25 277.21c-2.3 5.39-13.32-.99-14.47 3.93a1.15 1.15 0 00.16.89q.5.72.31 1.62a.62.62 0 00.58.75q2.45.07 6.66-.92 6.38-1.5 18.77-.42-20.91 2.23-41.76 4.44-16.94 1.8-25.55 1.87 5.98-2.01 12.3-2.07 5.44-.05 10.76-1.16a1 1 0 00.72-.6q.79-1.97 2.96-1.51a.89.89 0 00.79-.21l1.17-1.07q1.7-1.55-.59-1.34-12.87 1.17-25.73 2.35-8.25.76-17.27.7a.47.46 18.1 01-.38-.74l.32-.43q27.36-1.09 54.5-4.79 5.75-.78 15.75-1.29z"/><path fill="#fff" d="M92.95 289.37q8.61-.07 25.55-1.87 20.85-2.21 41.76-4.44 21.64-.65 43.24-2.56 1.42-.12 3.98.38c32.44 6.36 56.77 10.26 82.46 13.19q6.04.69 12.09 1.65a.24.24 0 01-.02.47c-18.21 1.03-35.57 2.46-54.45 4.46-17.88 1.9-35.11 2.97-53.75 4.65q-18.28 1.64-36.66 1.45c-5-.05-11.17-1.29-15.1-2.52-14.2-4.44-28.55-7.5-42.83-11.5-1.19-.33-7.84-1.65-8.28-2.15a.36.35-30.7 01.15-.57l1.86-.64z"/><path fill="#bcbdbe" d="M291.75 286.54l-29.26-4.04q8.32-.18 16.52 1.26c2.08.36 3.97-.33 5.79.22q3.85 1.18 7.9 1.25 1.18.02.36.87-.53.54-1.31.44zM83 296.29q.56.64.1 1.23a.61.61 0 01-.79.15c-3.73-2.22-7.04-1.49-10.75-3.14q5.91-.61 11.44 1.76z"/><path fill="#96989b" d="M71.56 294.53c3.71 1.65 7.02.92 10.75 3.14a.61.61 0 00.79-.15q.46-.59-.1-1.23 5.69.5 10.69 3.16 7.07 3.74 15.05 3.56 3.86-.2 7.15 1.82 17.7 6.36 36.18 10.55a1.15 1.15 0 01.87 1.37c-.58 2.53-.05 5.77-.01 7.72q.31 12.92 1.3 25.8.64 1.09.71 2.79 1.83 43.96 3.02 87.94-.23-.53-.82-.5a.73.72 82.8 00-.67.87c.85 4.23-.04 7.7.37 11.72q.18 1.8.18 1.85.29 16.03 1.05 32.06.08 1.76-.86 3.25l-1.71-.96q.16-.1.23-.25a.57.57 0 00-.14-.69q-5.01-4.22-10.52-7.73c-4.02-2.57-7.82-5.8-11.07-7.87q-9.84-6.24-38.49-23.52c-2.53-1.53-5.77-2.69-8.64-4.85-1.2-.9-9.36-6.5-9.91-4.38q-1.68-2.73-.37-5.99.44-16.88.17-33.76-.23-14.58-1.97-29.03-.83-2.84-.82-4.47c.02-13.43-1.08-29.65-1.4-40.18q-.49-15.86-1.01-32.04z"/><path fill="#fbfde0" d="M93.69 299.45l15.05 3.56q-7.98.18-15.05-3.56zM115.89 304.83l37.07 9.86a.68.67-84.8 01.51.62q1.05 17.45.76 34.96-.99-12.88-1.3-25.8c-.04-1.95-.57-5.19.01-7.72a1.15 1.15 0 00-.87-1.37q-18.48-4.19-36.18-10.55z"/><path fill="#bcbdbe" d="M74.79 371.22q1.74 14.45 1.97 29.03.27 16.88-.17 33.76l-1.8-62.79z"/><path fill="#96989b" d="M303.36 383.53c-2.37.58-.28 4.86.46 6.5a.99.98-43.3 01-.03.87q-1.49 2.66-.78 5.65-.29 1.62-1.47 3.28a.38.37 27.8 00.18.57c4.8 1.74 12.95 5.07 13.74 10.6l-3.57-1.49a.8.8 0 00-1.05 1.04c2.94 7.25 3.03 12.68 3.47 20.39a.38.38 0 00.74.08q1.99-7.58.76-15.38a1.23 1.22-31.9 01.21-.88l.52-.76q3.85 7.93 4.66 16.78c.28 3.07-4.94 7.63-7.08 9.62a1.03 1.02-24.2 00-.32.83l1.95 23.73-.68.04a.49.49 0 00-.45.56l1.42 9.06 1.21.84q-.93 3.34-.39 6.76c.73 4.64-3.99 4.92-3.63 7.03.9 5.39 2.83 8.57 2.82 15.15a.38.37 80.6 00.49.36l6.29-2.14q1.7-.58.01-.75-1.77-.18-1.98-1.75a.71.7 73.4 01.39-.73q3.72-1.8 7.66-2.93c5.39-1.54 10.67-3.7 16.29-4.51a.51.5-8.7 00.42-.57c-1.18-7.82 3.38-6.89 8.93-6.9a1.7 1.7 0 00.92-.27l4.37-2.85q.42-.27.72-.68c1.26-1.71 4.29.55 5.83 1.18 3.78 1.56 9.5-.29 13.55-.4q11.21-.29 22.44.01a.36.36 0 00.37-.37v-.31q5.65-.37 11.25.42l-2.44.18a.54.54 0 00-.51.52l-.16 3.7a.9.89 83.2 01-.64.82l-11.53 3.34a.26.26 0 00-.14.4c2.94 4.03-13.48 11.92-16.48 14.28a1.18 1.17 30.1 01-.88.23c-11.23-1.71-18.39 3.35-28.72 7.34a1.23 1.22-41.3 01-.99-.06l-1.31-.7a1.23 1.22-41.3 00-.99-.06q-25.74 9.59-38.18 13.87c-2.5.85-6.42-3.23-7.93-5.04a.7.69 58.2 00-.79-.19q-6.45 2.64-12.78 5.24c-2 .82-3.33 2.33-5.23 3.05-6.04 2.27-8.46-4.57-9.02-9.04a1.64 1.63 54.9 01.16-.93c2.96-6.03 1.97-15.78 1.21-22.28-.54-4.58-2.95-8.71-3.44-13.75a.44.43.9 00-.39-.39l-.32-.03q.9-1.31.46-2.96l.5-22.25c.41-2.7 2.51-14.43-.17-14q.18-.69-.13-1.06a.62.61-37.4 00-.8-.1l-.7.48a1.02 1.01-52.9 01-.9.13l-3.77-1.21a.94.91 89.1 01-.6-.6q-1.17-3.79-.05-7.64a.39.39 0 00-.38-.5h-.67l-.25-2h.29a.27.27 0 00.25-.17l4.13-10.33.75-1q.44.32.97.3a.83.82-80 00.73-.52l1.37-3.48a1.47 1.44-5.4 01.62-.73q4.32-2.59 6.28-7.31a.51.51 0 00-.28-.67l-.9-.38q1.39-2.85 3.85-4.95a1.76 1.71 20.9 01.93-.4q1.82-.21 2.82-1.93a.67.66-50.6 00-.07-.78c-3.31-3.92-1.06-13.18.51-17.09 1.47-3.69 17.72-5.9 16.07 2.97zm-8.56 8.52c1.83-.07 1.26 2 2.27 2.22a.66.66 0 00.75-.37q2.54-5.51 2.4-11.55a1.65 1.65 0 00-1.6-1.61c-4.06-.14-7.4-.52-9.31 4.03q-3.56 8.49 2.54 14.01a.58.56-44.2 00.76 0c.38-.33-.8-3.45-.83-4.29q-.02-.74.52-.24l3.78 3.49q.68.62.7-.3.08-2.89-2.24-4.45a.52.51 60.7 01.26-.94zM293 407.6q5.64.36 10.89-2.19a.6.59-54.7 00-.19-1.13q-2.97-.32-4.14-2.9a.66.65 72.8 00-.71-.38q-6.53 1.18-13.05-.07a.61.61 0 00-.7.41l-1.45 4.43a.36.36 0 00.34.47q3.87.03 7.21 1.53.32.15.84-.03.46-.17.96-.14zm2.07 60.8q-1.07 4.72-.63 9.6a.97.96 17.4 00.33.63q.19.17.27.37c-1.06 1.72-.54 11.18-.62 13.74a.55.55 0 01-.59.53l-1.97-.13a.47.46 3 00-.5.44l-.73 19.44a.47.46 80.4 00.63.45l9.48-3.63a.65.65 0 00.41-.71c-.41-2.62-.3-4.89-1.09-7.52q-1.23-4.15-1.08-8.55a.77.75-76.7 00-.42-.7c-1.06-.53-1.5-.96-1.52-2.25q-.1-5.54-.29-11.07l.29-.54 1.2 1.62q.36.48.52-.1 4.66-17.76 8.15-35.79.1-.51-.32-.2c-1 .73-1.6 1.57-2.78 2.18-4.97 2.59-9.51 7.46-14.34 11.09a.32.31 88.6 01-.45-.43c7-10.29 20.11-20.1 19.45-33.55a.33.33 0 00-.47-.28q-6.89 3.33-15.08 2.25-1.57-.2-1.85-1.49a.34.34 0 01.41-.4c7.77 1.89 14.66-4.7 16.9-11.49q.63-1.9-.9-2.58a.81.8-55.5 00-.89.17q-5.85 5.86-14.1 6.66a.54.54 0 01-.27-1.03q4.09-1.84 7.62-4.56a.44.44 0 00-.18-.78q-1.06-.22-1.83.48a1.36 1.36 0 01-.96.35l-16.47-.7a.72.72 0 00-.65.35c-3.68 6.07-13.41 21.13-12.2 28.02a1.37 1.35 14.5 00.49.82c5.23 4.27 7.82-5.67 9.25-8.82a.19.19 0 01.37.1q-1.12 9.11-.68 18.21c.62 12.81.64 21.92 1.11 32.9q.1 2.23.57 4.51a.73.72-.5 00.58.56l11.74 2.13a.49.49 0 00.57-.4c.65-4.33.36-10.14 1.29-15.36.37-2.14-.01-5.01 1.05-7.52a.37.37 0 01.59-.13q1.42 1.28.59 3.11zm14.28-9.07c-.07.04-7.93 25.11-8.86 27.75a.48.48 0 00.79.49q4.53-4.63 7.64-10.27c2.15-3.89 1.06-13.08.97-17.68a.35.35 0 00-.54-.29zm13.16 53.444a.36.36 0 00-.48-.169l-5.357 2.567a.36.36 0 00-.17.48l.027.054a.36.36 0 00.48.169l5.357-2.567a.36.36 0 00.17-.48l-.027-.054z"/><path fill="#fff" d="M294.8 392.05a.52.51 60.7 00-.26.94q2.32 1.56 2.24 4.45-.02.92-.7.3l-3.78-3.49q-.54-.5-.52.24c.03.84 1.21 3.96.83 4.29a.58.56-44.2 01-.76 0q-6.1-5.52-2.54-14.01c1.91-4.55 5.25-4.17 9.31-4.03a1.65 1.65 0 011.6 1.61q.14 6.04-2.4 11.55a.66.66 0 01-.75.37c-1.01-.22-.44-2.29-2.27-2.22z"/><path fill="#bcbdbe" d="M303.36 383.53l1.32 6.65q.1.49-.04.97l-1.63 5.4q-.71-2.99.78-5.65a.99.98-43.3 00.03-.87c-.74-1.64-2.83-5.92-.46-6.5z"/><path fill="#fff" d="M292.04 407.74q-.52.18-.84.03-3.34-1.5-7.21-1.53a.36.36 0 01-.34-.47l1.45-4.43a.61.61 0 01.7-.41q6.52 1.25 13.05.07a.66.65 72.8 01.71.38q1.17 2.58 4.14 2.9a.6.59-54.7 01.19 1.13q-5.25 2.55-10.89 2.19-.5-.03-.96.14z"/><path d="M565.96 402.25c6.92 10.86 9.86 22.52 1.79 33.54l-.38-.04a.3.29 17.1 01-.23-.43c3.7-7.09 5.83-13.55 2.64-21.32q-.86-2.07-2.1-7.02-.12-.48-.4-.88l-2.27-3.24a.5.5 0 01.33-.78q.33-.05.62.17z"/><path fill="#bcbdbe" d="M279.25 405.71l.9.38a.51.51 0 01.28.67q-1.96 4.72-6.28 7.31a1.47 1.44-5.4 00-.62.73l-1.37 3.48a.83.82-80 01-.73.52q-.53.02-.97-.3c1.76-5.71 5.47-8.21 8.79-12.79z"/><path fill="#fff" d="M297.04 478.5q-.3-4.95-1.97-10.1.83-1.83-.59-3.11a.37.37 0 00-.59.13c-1.06 2.51-.68 5.38-1.05 7.52-.93 5.22-.64 11.03-1.29 15.36a.49.49 0 01-.57.4l-11.74-2.13a.73.72-.5 01-.58-.56q-.47-2.28-.57-4.51c-.47-10.98-.49-20.09-1.11-32.9q-.44-9.1.68-18.21a.19.19 0 00-.37-.1c-1.43 3.15-4.02 13.09-9.25 8.82a1.37 1.35 14.5 01-.49-.82c-1.21-6.89 8.52-21.95 12.2-28.02a.72.72 0 01.65-.35l16.47.7a1.36 1.36 0 00.96-.35q.77-.7 1.83-.48a.44.44 0 01.18.78q-3.53 2.72-7.62 4.56a.54.54 0 00.27 1.03q8.25-.8 14.1-6.66a.81.8-55.5 01.89-.17q1.53.68.9 2.58c-2.24 6.79-9.13 13.38-16.9 11.49a.34.34 0 00-.41.4q.28 1.29 1.85 1.49 8.19 1.08 15.08-2.25a.33.33 0 01.47.28c.66 13.45-12.45 23.26-19.45 33.55a.32.31 88.6 00.45.43c4.83-3.63 9.37-8.5 14.34-11.09 1.18-.61 1.78-1.45 2.78-2.18q.42-.31.32.2-3.49 18.03-8.15 35.79-.16.58-.52.1l-1.2-1.62zM315.46 411l1.08 3-.52.76a1.23 1.22-31.9 00-.21.88q1.23 7.8-.76 15.38a.38.38 0 01-.74-.08c-.44-7.71-.53-13.14-3.47-20.39a.8.8 0 011.05-1.04l3.57 1.49zM269.71 419.5l-4.13 10.33a.27.27 0 01-.25.17h-.29q-2.3-3.9-5.44-7.15a.33.33 0 01.11-.54q4.82-2.01 10-2.81z"/><path fill="#bcbdbe" d="M265.29 432h.67a.39.39 0 01.38.5q-1.12 3.85.05 7.64a.94.91 89.1 00.6.6l3.77 1.21a1.02 1.01-52.9 00.9-.13l.7-.48a.62.61-37.4 01.8.1q.31.37.13 1.06-1.82 1.3-4.17 1.82a.93.92-28.1 01-.84-.25c-3.77-3.79-6.21-6.77-2.99-12.07zM479.26 437.77q2.61 11.1 4.41 22.2.57 3.49 1.77 6.65a.45.44 73.3 01-.31.59c-12.24 2.7-24.46 4.86-36.96 5.85q-30.31 2.41-60.67-.35c-.48-1.75 8.33-.03 9.44 0q16.6.38 33.2.28c3.7-.02 7.26-1.2 10.94-.92q6.79.5 13.12-1.86 2.51-.94 4.85-1.09c8.09-.53 16-1.09 23.82-3.4a.73.73 0 00.51-.65c.13-2.83-1.31-5.37-1.7-7.52q-1.76-9.82-2.42-19.78zM155.5 489.29c-5.13-3.61-9.76-6.84-15.62-10.31-7.64-4.52-15.27-10.47-22.13-14.6Q97.41 452.11 76.96 440c.55-2.12 8.71 3.48 9.91 4.38 2.87 2.16 6.11 3.32 8.64 4.85q28.65 17.28 38.49 23.52c3.25 2.07 7.05 5.3 11.07 7.87q5.51 3.51 10.52 7.73a.57.57 0 01.14.69q-.07.15-.23.25z"/><path fill="#96989b" d="M316.72 440.37a.26.25-28 01-.14.45l-1.18.11a.34.34 0 01-.27-.59q.73-.66 1.59.03z"/><path fill="#bcbdbe" d="M157.96 441l1.14 49.88q.03 1.62-1.02.38l-.87-1.01q.94-1.49.86-3.25-.76-16.03-1.05-32.06 0-.05-.18-1.85c-.41-4.02.48-7.49-.37-11.72a.73.72 82.8 01.67-.87q.59-.03.82.5z"/><path d="M273.46 456.5l-.5 22.25h-.46a.49.49 0 01-.5-.49v-21.09a.94.93-17.4 01.41-.77q.46-.31 1.05.1z"/><path fill="#fff" d="M300.49 487.08c.93-2.64 8.79-27.71 8.86-27.75a.35.35 0 01.54.29c.09 4.6 1.18 13.79-.97 17.68q-3.11 5.64-7.64 10.27a.48.48 0 01-.79-.49z"/><path fill="#fbfde0" d="M402.75 480.79v.31a.36.36 0 01-.37.37q-11.23-.3-22.44-.01c-4.05.11-9.77 1.96-13.55.4-1.54-.63-4.57-2.89-5.83-1.18q-.3.41-.72.68l-4.37 2.85a1.7 1.7 0 01-.92.27c-5.55.01-10.11-.92-8.93 6.9a.51.5-8.7 01-.42.57c-5.62.81-10.9 2.97-16.29 4.51q-3.94 1.13-7.66 2.93a.71.7 73.4 00-.39.73q.21 1.57 1.98 1.75 1.69.17-.01.75l-6.29 2.14a.38.37 80.6 01-.49-.36c.01-6.58-1.92-9.76-2.82-15.15-.36-2.11 4.36-2.39 3.63-7.03q-.54-3.42.39-6.76l17.81-1.77a.89.88-4.5 00.79-.92l-.38-8.78a.24.24 0 01.35-.22q31.96 16.48 66.93 17.02z"/><path fill="#bcbdbe" d="M315.75 464.96q.78 4.67.29 9.66l-1.42-9.06a.49.49 0 01.45-.56l.68-.04z"/><path fill="#222020" d="M295.07 468.4q1.67 5.15 1.97 10.1l-.29.54-1.71-.04q-.08-.2-.27-.37a.97.96 17.4 01-.33-.63q-.44-4.88.63-9.6z"/><path fill="#fbfde0" d="M296.75 479.04q.19 5.53.29 11.07c.02 1.29.46 1.72 1.52 2.25a.77.75-76.7 01.42.7q-.15 4.4 1.08 8.55c.79 2.63.68 4.9 1.09 7.52a.65.65 0 01-.41.71l-9.48 3.63a.47.46 80.4 01-.63-.45l.73-19.44a.47.46 3 01.5-.44l1.97.13a.55.55 0 00.59-.53c.08-2.56-.44-12.02.62-13.74l1.71.04z"/><rect fill="#fbfde0" x="-3.33" y="-.39" transform="rotate(-25.6 1291.478 -446.066)" width="6.66" height=".78" rx=".36"/><path fill="#fbfde0" d="M590.29 589.75l.71.56v.69h-1.06l-.19-.71.54-.54z"/><path fill="#222020" d="M0 589.94l1.25.27 11.19.79H0v-1.06z"/><path fill="#bcbdbe" d="M589.75 590.29l.19.71H12.44l-11.19-.79 588.5.08z"/></svg>