<svg xmlns="http://www.w3.org/2000/svg" viewBox="0 0 591 591"><g stroke-width="2" fill="none"><path stroke="#111110" vector-effect="non-scaling-stroke" d="M590.06 0l-.02.25"/><path stroke="#4c4e4f" vector-effect="non-scaling-stroke" d="M590.04.25l.25 3.75"/><path stroke="#111110" vector-effect="non-scaling-stroke" d="M590.29 4v1"/><path stroke="#4c4e4f" vector-effect="non-scaling-stroke" d="M590.29 5l-.03 584.57a.67.67 0 01-.67.67q-293.4.03-586.9.05-1.36 0-2.69-.35"/><path stroke="#7d7f71" vector-effect="non-scaling-stroke" d="M585.49 5.52a.27.27 0 00-.27-.27H5.52a.27.27 0 00-.27.27v579.7a.27.27 0 00.27.27h579.7a.27.27 0 00.27-.27V5.52"/><path stroke="#222120" vector-effect="non-scaling-stroke" d="M591 297.31l-.21-.06"/><path stroke="#5d5e5f" vector-effect="non-scaling-stroke" d="M590.79 297.25l-.1-292.06a.15.15 0 00-.13-.15l-.27-.04M590.29 4q1.37-2.04-.25-3.75M590.79 297.25l-.1 293.31a.37.36 64.9 01-.08.23l-.17.21M589.94 591q-6.88-.63-13.75 0M558.94 591q-6.38-.63-12.75 0M543.94 591q-3.88-.63-7.75 0M535.94 591q-3.88-.63-7.75 0M527.94 591q-10.63-.63-21.25 0M488.94 591q-25.38-.63-50.75 0M436.94 591q-2.38-.63-4.75 0M412.94 591q-4.38-.63-8.75 0M401.94 591q-10.88-.63-21.75 0M366.94 591q-2.38-.63-4.75 0M359.94 591q-2.88-.63-5.75 0M351.94 591q-2.88-.63-5.75 0M343.94 591q-7.88-.63-15.75 0M327.94 591q-3.88-.63-7.75 0M319.94 591q-2.88-.63-5.75 0M294.94 591q-2.38-.63-4.75 0M288.94 591q-7.38-.63-14.75 0M272.94 591q-3.38-.63-6.75 0M248.94 591q-3.38-.63-6.75 0M239.94 591q-2.63-.63-5.25 0M220.94 591q-21.88-.63-43.75 0M176.94 591q-3.88-.63-7.75 0M165.94 591q-2.38-.63-4.75 0M159.94 591q-3.38-.63-6.75 0M152.94 591q-3.38-.63-6.75 0M118.94 591q-2.88-.63-5.75 0M111.94 591q-6.88-.63-13.75 0M80.94 591q-15.38-.63-30.75 0M30.44 591q-2.13-.63-4.25 0M25.94 591c-5.16-.18-24.88.26-25.94-.56"/><path stroke="#faf1c8" vector-effect="non-scaling-stroke" d="M32.06 24.23c-8.93 2.04-14.44 11.03-14.32 19.78q.31 22.15 1.11 43.59a.99.98-24.2 001.7.64q26.16-27.15 51.99-53.95 4.5-4.66 8.82-10.29a.84.84 0 00-.68-1.34q-18.05.3-36.28.85-10.62.33-12.34.72"/><path stroke="#7d7f71" vector-effect="non-scaling-stroke" d="M155 218.29l-1.72-.39a1.2 1.19 34.8 00-.91.16c-4.21 2.68-4.47 8.95-2.32 12.78 6 10.66 35.39 11.55 45.66 10.16"/><path stroke="#8e8f81" vector-effect="non-scaling-stroke" d="M195.71 241c5.87 7.23 12.12 14.01 17.85 21.33a1.01.99-57.2 01.18.88c-.38 1.46-3.12 3.56-2.29 4.55a.83.83 0 00.95.23l4.13-1.72q.48-.2.3.29c-.12.34-4.5 3.59-5.33 4.65"/><path stroke="#7d7f71" vector-effect="non-scaling-stroke" d="M211.5 271.21q-7.39 8.17-10.29 18.79"/><path stroke="#8e8f81" vector-effect="non-scaling-stroke" d="M201.21 290q-2.77 9.24-.21 18.54"/><path stroke="#7d7f71" vector-effect="non-scaling-stroke" d="M201 308.54q5.24 19.15 20.75 31.5"/><path stroke="#8e8f81" vector-effect="non-scaling-stroke" d="M221.75 340.04l3.2 2.32a.26.26 0 01-.13.47c-14.91.85-29.58 3.53-44.41 5-18.34 1.82-36.84.5-55.3 1.85-23.66 1.74-48.6 4.29-72 13.24q-3.27 1.25-5.52 3.6a.54.53-55.6 00.15.84q4.89 2.36 10.26 2.39c22.09.12 43.95-1.33 65.99-2.32q10.72-.48 24.26-1.69 19.09-1.7 85.81-5.91 8.47-.54 15.23 1.12c4.39 1.07 7.84 1.05 12.07 1.42a.59.59 0 01.54.53l1.35 11.39"/><path stroke="#7d7f71" vector-effect="non-scaling-stroke" d="M263.25 374.29q1.86 11.2 3.38 22.44c1.34 9.84 1.82 19.89-.27 29.18-.82 3.61-.48 6.84-.78 10.49a1.58 1.58 0 01-.35.87l-4.27 5.23"/><path stroke="#8e8f81" vector-effect="non-scaling-stroke" d="M260.96 442.5l-.76 4.33a.91.9 83.9 01-.52.66c-3.96 1.74-5.28 1.09-7.43 5.38a1.21 1.2-84.9 01-.7.59c-6.08 1.95-13.44 5.46-7.26 13.09q2.44 3.01 2.47-.87.02-2.14.69-4.21a1.47 1.42 84.4 01.61-.77q4.26-2.6 9.19-.9a1.14 1.13-50.4 00.94-.09q3.61-2.11 1.6-5.49a.48.47-24.8 01.26-.69c2.12-.73 5.34.66 6.3-1.43q.76-1.67 1.43-4.53c.93-3.98 1.71-4.46 4.43-7.13q2.24-2.21 1.8-6.42a1.08 1.08 0 01.3-.86c4.28-4.39 7.53-8.38 3.23-14.41"/><path stroke="#7d7f71" vector-effect="non-scaling-stroke" d="M277.54 418.75q.07-8.26-.3-16.5c-.04-.91-.72-2.24-.79-3.38q-.72-12.02-3.13-23.94"/><path stroke="#8e8f81" vector-effect="non-scaling-stroke" d="M273.32 374.93q-.17-7.16-2.29-14.16a.82.81 65.7 01.35-.94l2.19-1.33a.75.75 0 011.08.92c-3.53 8.62 5.45 9.55 6.96 16.54q.74 3.42 1.39 6.83"/><path stroke="#7d7f71" vector-effect="non-scaling-stroke" d="M283 382.79c1.73 13.73 3.36 28.03 3.98 41.44.14 2.91.92 5.76 1.06 8.77"/><path stroke="#8e8f81" vector-effect="non-scaling-stroke" d="M288.04 433c.37 4.88 2.16 12.26.7 16.84-.91 2.83-1.34 5.32 1.3 6.88a.84.83 34 01.24 1.22q-4.3 5.76-7.69 9.65-1.46 1.67-.22 4.48a1.04 1.02 50.9 01-.09.98l-3.27 4.87a2.07 2.04 4.4 01-.84.71q-3.49 1.61-4.08 5.35a.37.37 0 00.42.42c8.32-1.22 7.24-1.51 11.64-7.8 1.55-2.23 4.85-3.16 5.52-6.16q1.4-6.39 3.83-10.55c2.64-4.52 4.91-5.83 3.62-11.96q-1.79-8.54-2.33-10.68"/><path stroke="#7d7f71" vector-effect="non-scaling-stroke" d="M296.79 437.25c-1.95-13.1-2.4-26.04-3.58-39.19q-.53-5.89-.75-11.81"/><path stroke="#8e8f81" vector-effect="non-scaling-stroke" d="M292.46 386.25l.08-2.32a.31.3-54.4 01.59-.1q2.88 7.51 9.71 10.81c3.85 1.85 5.97-2.41 8.26-4.63a.32.31-30.6 01.52.13c1.06 3.33 1.52 7.08 2.39 10.09q5.31 18.22 10.43 36.49c2.26 8.04 3.29 16.36 6.7 24.02 1.74 3.91-.12 7.11 2.11 10.97 1.75 3.02 4.5 5.2 5.73 8.32q1.6 4.06 3.98 7.74c1.76 2.71-.29 6.51 4.3 7.43a1.34 1.3 75.4 01.79.48q2 2.46 4.31 4.66c3.41 3.24 4.37 7.28 4.8 11.74a.65.63 1.7 00.56.58c1.24.16 2.12-.36 2.62-1.58 3.18-7.66-1.52-16.6-7.61-21.71a.83.81-61.4 01-.25-.88l.58-1.8a.81.8-60.3 00-.23-.86c-2.85-2.5-10.36-10.99-10.12-14.82q.25-4.19-2.63-6.67a1.77 1.77 0 01-.53-.81c-.8-2.63-1.69-5.24-2.27-7.92q-4.35-20.26-9.64-40.29c-1.09-4.14-1.84-9.75-3.36-14.9q-.54-1.81-.75-3.74a.84.83-20.2 01.36-.77l5.05-3.38a.79.76 67.3 00.32-.82q-1.45-6.02-4.32-11.48a.96.96 0 011.11-1.38q3.85 1.07 5.81-2.58a.64.63 55.3 011.19.22c1.01 6.99.63 14.44 2.41 21.17q.97 3.67 1.95 7.34c2.16 8.11 10.55 32.67 20.07 34.2a1.4 1.4 0 01.82.45c2.94 3.32 4.26 6.26 9.3 6.25a1.01 1 72.8 01.83.44q3.21 4.86 7.56 8.79a.47.47 0 00.77-.21l.34-1.17a.74.74 0 011.29-.26q4.86 6.02 11.68 9.72a1.11 1.08-45.8 001.08-.03l2.76-1.68a.75.74-36.8 01.93.13q3.25 3.5 7.76 3.33c3.75-.14 5.34.24 8.28 1.79a.98.97 31.6 001.24-.29c2.09-2.86 12.82.77 10.69-4.24a.35.34-11.9 01.32-.48h.4a.64.64 0 01.62.84c-1.14 3.61-1.57 6.89.36 10.42 2.6 4.78 6.03 8.89 8.51 13.64 2.62 5.03 6.08 9.4 8.44 14.53a.93.92-11.5 00.83.54l.95.01a.77.77 0 00.77-.78l-.02-1.92a1.29 1.28-23.9 01.34-.87c5.65-6.01-.71-12.08-5.33-17.47a1.07 1.06 28.9 01-.25-.85c.49-3.55-3.3-3.41-4.77-6.05q-2.4-4.31-4.89-8.77a.76.76 0 011.18-.93l2.01 1.85q.38.34.85.54 3.18 1.3 6.69.62c4.47-.87 9.83-.9 13.31-1.42q14.24-2.12 26.28-10.16a1.64 1.63-61.6 01.9-.27l3.07.02a1.21 1.19-69.1 00.9-.41l3.68-4.21q.34-.39.81-.59c5.7-2.45 5.92-4.18 7.58-9.8a1.62 1.61 79.8 01.57-.83l2.79-2.14a1.59 1.57-13.8 00.59-.96l1.48-7.99a.98.97 85.4 01.63-.75l1.96-.71a.89.88 81.4 00.59-.81c.21-6.31 1.7-13.45-1.36-19.43a.39.39 0 01.25-.55c3.15-.77 1.14-7.75.36-9.64a.95.92-40.5 01.08-.87c3.19-4.74-2.17-8.44-1.01-11.67q.27-.78.53 0 .57 1.76 2.37 1.85a.79.78 8.6 00.8-.58l.38-1.44a1.17 1.13 40.2 00-.08-.8c-1.19-2.39-3.67-5.75-1.04-8.14a.82.8 61.1 00.23-.84q-1.24-4.29-4.35-7.5-.58-.6.25-.72l1.93-.29a.49.49 0 00.4-.61c-1.27-4.72-3.2-7.01-7.48-10.15-.98-.71-5.47-4.02-4.96-5.31a.44.44 0 01.67-.2l6.07 4.44a1.25 1.25 0 001.99-1.01c.01-4.55-4.76-7.45-7.97-10.19a1.17 1.16 19.5 01-.4-.83c-.22-5.84-5.47-8.77-10.05-11.32a.49.49 0 01-.17-.71l1.15-1.67a.82.81-56.9 00-.24-1.16l-10.64-6.6a1.22 1.21-79 01-.56-.84l-.28-1.68a1.62 1.54 19.5 00-.43-.84q-4.18-4.4-10.05-6.02a.89.87 1.7 01-.64-.67c-.86-4.15-8.78-5.96-12.19-6.35a.44.44 0 01-.22-.79l2.03-1.58a.45.44 40.1 00-.07-.75c-3.83-2.05-6.05-2.1-10.2-2.95q-1.18-.24-.01-.55l2.77-.74a.56.55 79.8 00.41-.6c-.33-3-8.5-2.58-12.75-2.54q-.95.01-.39-.76l.79-1.09a.57.56-47.7 00-.03-.71q-.78-.91-1.85-.68c-4.23.87-8.27 1.98-12.75 1.07-6.29-1.29-13.02 3.48-18.44 6.25a.31.31 0 01-.45-.27c-.09-4.89-4.21-5.31-7.49-7.34q-.44-.26.05-.42c22.23-7.03 44.93-12.49 67.28-19.18 24.89-7.44 45.67-18.83 60.39-40.74q4.22-6.28 10.04-17.29c12.3-23.28 21.8-49.04 18.27-75.82-2.73-20.7-16.48-33.99-38.51-24.89-12.47 5.15-24.1 15.68-34.79 25.5-31.88 29.29-61.88 60.69-91.81 91.94-18.3 19.11-29.56 32.33-44.98 41.4q-.69.41-.36-.33l2.63-5.94a.87.87 0 00-1.21-1.11q-5.97 3.27-10.05 8.67-.35.47-.44-.11c-.82-5.52-1.25-11.6-3.27-16.47-5.03-12.09-14.86-21.58-28.86-20.53-3.35.25-6.71 1.59-10.01 2.73a.93.92-35.4 01-.86-.14q-3.73-2.96-8.43-3.93a.51.51 0 01-.38-.67c1.45-4.03 3.78-8.37 5.17-11.71q5.19-12.47 11.07-24.73a.76.76 0 00-.16-.88c-6.69-6.48-11.63-15.81-16.11-21.84-5.37-7.23-15.63-20.02-23.22-9.08-1.16 1.67-1.18 3.48-.06 5.3 6.99 11.36 19.3 24.62 31.76 31.53a.52.52 0 01.22.69c-3.79 7.83-7.91 15.63-11.44 23.56-1.67 3.75-4.18 6.1-8.58 6.13q-6.67.05-13.45 1.52a.87.86 51.4 00-.18 1.63l2.72 1.29a.41.41 0 01-.06.76c-11.44 3.45-21.38 5.37-31.73 11.99a.41.4 32.4 00.17.74l2.38.31q1.1.14.12.67-3.76 2.06-6.39 5.42a.58.58 0 00.58.93l2.93-.64q1.12-.24.35.61l-3.24 3.6a.55.55 0 01-.8.01c-6.54-6.74-12.17-14.78-18.19-22.04-8.85-10.67-30.14-16.66-43.43-19.84"/><path stroke="#111110" vector-effect="non-scaling-stroke" d="M292.46 386.25q-2.9.19-2.22 3.52 2.6 12.84 2.8 26.65c.1 7.66 1.46 14.71 2.19 22.28a.59.59 0 001.03.33q.66-.75.53-1.78M288.04 433q1.83-.12 1.46-2.26-.93-5.32-1.29-12.3c-.49-9.78-1.85-18.61-2.2-29.19q-.09-2.86-1.79-6.09a.77.76 73.3 00-.75-.41l-.47.04M273.32 374.93q-.89 4.34-.16 8.68.98 5.87 1.05 6.86.54 7.17 1.36 14.32c.52 4.54.29 9.26.59 13.96a.5.5 0 00.55.47q.56-.06.83-.47M260.96 442.5q.05 1.37 1.09 2.08a.43.42-60.7 00.63-.18c1.61-3.75 4.87-4.11 4.98-9 .09-3.81-.17-7.38.55-11.24 2.25-12.04.42-25.17-1.44-37.18-.18-1.19.1-2.37-.29-3.72-.61-2.12-.48-9.28-3.23-8.97M221.75 340.04q.79-.33 1.01-1.1a.77.77 0 00-.26-.81q-8.78-7.07-14.64-16.72-1.61-2.66-5.16-13.22a.45.45 0 00-.65-.25l-1.05.6M201.21 290q.6.22 1.43.09a.8.79 4.3 00.62-.53q3.02-9.52 9.51-17.08a.44.44 0 00-.13-.68l-1.14-.59M195.71 241q.45-.31.41-.91a.51.5-5.9 00-.57-.46c-14.18 1.99-33.97 1.3-44.71-9.75a1.68 1.6 18.8 01-.44-.84c-.78-3.99-1.05-9.7 4.41-9.33a.58.58 0 00.61-.49q.09-.51-.42-.93"/><path stroke="#5d5e5f" vector-effect="non-scaling-stroke" d="M365.6 267.83q2.66 1.08 3.19 3.42"/><path stroke="#8e8f81" vector-effect="non-scaling-stroke" d="M368.79 271.25l-.05.28a.49.47-4.4 01-.33.37q-5.79 1.77-10.69 5.33a.31.3 19.3 00.26.54l10.52-2.81"/><path stroke="#5d5e5f" vector-effect="non-scaling-stroke" d="M368.5 274.96c4.67-.46 12.63-1.25 13 4.75"/><path stroke="#919090" vector-effect="non-scaling-stroke" d="M381.5 279.71q-2.28-.52-3.61.84-.38.39.16.44l5.95.55"/><path stroke="#5d5e5f" vector-effect="non-scaling-stroke" d="M384 281.54l1.46.21"/><path stroke="#919090" vector-effect="non-scaling-stroke" d="M385.46 281.75l6.5 2.67a1.29 1.28 45.3 00.94.01c14.29-5.25 29.81-9.49 46.87-15.24 19.83-6.67 42.17-13.31 58.14-27.53 14.14-12.59 21.9-28.78 29.53-46.65 9.03-21.11 18.18-45.06 10.03-68.1-2.56-7.25-9.39-13.88-17.35-13.95-6.87-.06-13.7 4.92-18.83 9.58q-64.04 58.31-121.37 117.38-14.46 14.9-23.71 25.27a.42.42 0 00.09.64l2.27 1.45a.78.78 0 01.22 1.11l-1.01 1.42q-.32.46.23.38 4.15-.58 7.59-2.36"/><path stroke="#cccdce" vector-effect="non-scaling-stroke" d="M385.46 281.75q1.28-1.3 3.37-2.41 13.35-7.06 26.16-16.52c4.11-3.03 5.78-5.55 8.59-9.74q2.99-4.46 10.15-10.85 19.48-17.39 42.5-29.72c17.08-9.16 35.67-17.38 49.17-30.34 14.22-13.67 18.27-35.61 3.3-50.2q-2.03-1.98-4.23-2.93c-21.7-9.39-80.96 52.15-95.23 67.21q-32.96 34.78-63.64 71.58M384 281.54q-.37-1.8-2.5-1.83"/><path stroke="#c9ccbf" vector-effect="non-scaling-stroke" d="M368.5 274.96l.9-3.1a.4.39-72.8 00-.25-.48l-.36-.13"/><path stroke="#5d5e5f" vector-effect="non-scaling-stroke" d="M259.5 328.71q6.97-4.07 15.35-6.42a.69.69 0 00.21-1.22q-4.36-3.12-8.02-7.57"/><path stroke="#919090" vector-effect="non-scaling-stroke" d="M267.04 313.5q-8.02-12.14-8.58-26.75"/><path stroke="#5d5e5f" vector-effect="non-scaling-stroke" d="M258.46 286.75q-.25-4.79.58-9.5"/><path stroke="#111110" vector-effect="non-scaling-stroke" d="M259.04 277.25q.39.92-.22 1.98-.35.61.29.31l.65-.3a1.05 1.04-8.6 00.6-.8q2.52-16.88 13.56-29.85.79-.93-.42-1.05l-.75-.08"/><path stroke="#5d5e5f" vector-effect="non-scaling-stroke" d="M272.75 247.46l.71-1.46"/><path stroke="#919090" vector-effect="non-scaling-stroke" d="M273.46 246q2.39-3.17 5.68-5.4.41-.28-.05-.47c-6.87-2.85-13.08-5.2-18.9-4.85a.69.69 0 00-.56 1.03q1.4 2.5 4.18 3.27 1.72.48-.06.7-13.39 1.7-26.24 5.76a.41.41 0 00.1.8l3.45.22a.35.34-11.8 01.29.18l.18.3a.26.26 0 01-.18.39q-5.89 1.05-10.51 4.94a.42.42 0 00.47.7q3.94-2.09 8.2-.61.52.18.05.46c-4.63 2.82-9.6 4.65-13.04 8.94a.46.45 4.7 00.58.68q2.98-1.64 6.35-1.71a.71.7-59.5 01.34 1.33c-4.09 2.17-10.78 4.14-13.09 8.16q-.41.71.36.44 3.95-1.41 8.19-1.47.86-.01.15.46c-3.37 2.22-8.57 4.75-10.9 8.05a.76.76 0 00.68 1.19l7.83-.61a.65.65 0 01.47 1.14l-9.08 7.67a.99.99 0 00.63 1.75l5.37.06q.47.01.2.39l-6.1 8.65a.52.51-50.7 00.06.66l.21.19a.64.63 47.6 00.83.04l2.54-1.95a.49.49 0 01.72.64q-1.78 2.96-3.35 5.88-.22.41-.09.67a.64.64 0 00.75.32l1.55-.47a1.04 1.04 0 011.28 1.34c-1.03 2.92-3.5 7.98-1.85 10.55a.33.33 0 00.57-.02l1.86-3.4q.41-.75.5.1c.42 3.95-1.34 7.94.45 11.87a.43.42-35.7 00.7.11l2.4-2.59a.7.7 0 01.85-.14q.64.34.27 1.17-2.1 4.76-.26 9.83a.55.54-44.8 001.02 0l2.17-5.81a.38.38 0 01.74.12c.23 5.73-.94 8.47 3.82 12.67a.52.52 0 00.83-.21l.43-1.15a.59.59 0 01.7-.37l2.41.62a.54.53-63.4 00.56-.19c2.45-3.14 5.78-2.3 9.16-2.95q.49-.1.88-.42l8.29-6.94"/><path stroke="#cccdce" vector-effect="non-scaling-stroke" d="M273.46 246q-.95-.15-1.86.01c-8.76 1.58-26.45 4.94-32.12 12q-2.13 2.65 1.18 1.89l10.86-2.5a.54.54 0 01.43.97c-8.97 6.26-17.57 11.4-21.88 21.69a.69.69 0 001.05.82l7.23-5.53a.51.51 0 01.73.68q-5.79 8.74-8.09 18.93a.59.59 0 00.99.55l9.35-9a.3.3 0 01.5.28q-.45 2.13-1.3 4.07-4.37 9.98-4.55 22.67a.55.55 0 001.01.3q1.61-2.46 3.67-5.23c1.83-2.46 1.72-5.4 3.87-7.73a.7.7 0 011.17.71q-3.87 11.3-2.56 23.23a.53.53 0 00.82.38c2.89-1.95 5.2-9.42 6.69-12.76a.34.34 0 01.64.18l-1.51 12.82a1.57 1.56 2 001.63 1.74c3.03-.13 10.96-11.33 13.52-14.1a.68.68 0 00.09-.8c-4.19-7.14-9.11-17.85-7.67-26.26a.36.36 0 01.67-.11l.44.85M267.04 313.5l-7.54 15.21"/><path stroke="#4c4e4f" vector-effect="non-scaling-stroke" d="M272.75 247.46q-11.02 12.97-13.71 29.79"/><path stroke="#919090" vector-effect="non-scaling-stroke" d="M275.4 291.45q3.3 2.58 5.81-1.45"/><path stroke="#111110" vector-effect="non-scaling-stroke" d="M281.21 290c.3.84 1.07.67 1.48.06 5.49-8.2 8.06-15.76 10.64-25.55.96-3.66.74-6.76-.02-10.28-.27-1.28-2.14-4.75-3.95-3.7a1.23 1.23 0 01-.89.13c-5.34-1.3-7.68 3.21-9.9 7.87-4.58 9.62-5.27 17.41-5.84 27.83q-.18 3.31 2.67 5.09"/><path stroke="gray" vector-effect="non-scaling-stroke" d="M281.21 290c6.77-9.86 12.14-23.04 10.2-35.22-.94-5.86-6.56-3.6-8.63-.23q-3.6 5.9-5.99 11.9c-2.67 6.7-3.43 18.02-1.39 25"/><path stroke="#919090" vector-effect="non-scaling-stroke" d="M284.5 348.96c-2.14 1.59-4.51 4.67-1.65 7.04a.51.5 39.1 00.72-.07l1.72-2.18"/><path stroke="#5d5e5f" vector-effect="non-scaling-stroke" d="M285.29 353.75c4.49-3.98 7.09-6.6 12.08-7.69a1.06 1.06 0 011.18 1.49q-.72 1.51.21 2.53a.55.55 0 00.75.06l4.18-3.34q.94-.74.98.45l.11 3.07a1.52 1.49-65.8 00.32.87q2.47 3.17 2.09 7.31-.05.56.23.89a.52.52 0 00.76.04l1.01-.99a.63.62 41.7 01.83-.04c3.89 3.17-.26 11.55 1.99 13.55q.47.42.53-.2l.73-7.72a.86.86 0 01.62-.74c1.79-.51 2.75.24 3.04 2.08q1.06 6.71.31 13.44a.88.87-7.2 01-.56.72l-.68.26"/><path stroke="#919090" vector-effect="non-scaling-stroke" d="M316 379.79q-1.16.3-1.74-.03a1.28 1.28 0 00-1.83.69c-.39 1.11-2.49 7.19-1.3 7.45a1.35 1.35 0 001.61-1.04q.86-4.08 4.01-6.15"/><path stroke="#5d5e5f" vector-effect="non-scaling-stroke" d="M316.75 380.71q1.81-.3 2.85-1.76a1.2 1.18 56.4 00.18-.95q-1.38-5.81-.77-11.77a1.17 1.17 0 011.27-1.04l4.83.48a1.06 1.04-16.1 01.74.4l1.24 1.54a.7.7 0 00.79.23l3.17-1.14a.53.52 79.7 01.7.49q.01 1.79 1.05 3.12.44.57.46-.15c.15-5.15 4.65-5.25 7.64-7.38q.5-.36-.1-.47-.53-.09-1.07.2-.43.24-.93.25c-7.78.12-3.44-8.91 3.08-9.23a.64.63-6 00.6-.74c-.52-3.06 1.09-5.47-1.38-8.01a.42.42 0 00-.65.06q-.7 1.06-1.24 3.16c-1.47 5.72-8.15 15.12-13.85 4.91q-4.56-8.18-9.28-16.26c-2.59-4.43-1.28-11.56 3.66-13.45q5.48-2.08 11.45-2.4a.84.83 73.1 01.77.42q2.09 3.67 2.58 7.86.14 1.17.51.05 3.61-10.9 8.91-21.07c1.56-2.98 1.48-5.86 1.71-9.08a.99.97-14.6 01.46-.77c6.78-4.3 17.54-4.04 18.48 6.2a1.56 1.56 0 01-.19.92c-2.43 4.35-1.05 16-.88 19.54q.02.49.39.17l15.68-13.71q.39-.34.64-.79l.86-1.55a.98.98 0 01.92-.5l4.43.26"/><path stroke="#919090" vector-effect="non-scaling-stroke" d="M386.46 308.75l.2.88a1.33 1.32 10.2 00.56.8q5.31 3.53 5.06 9.87a1.75 1.72-25.1 01-.38 1.02c-4.24 5.27-1.07 18.84.54 25.31a.44.44 0 00.67.26l2.52-1.68a.66.64-31 00.22-.84c-2.71-5.23-2.54-11.92-2.3-17.68a.62.61 5.1 01.7-.58q5.14.7 9.64 3.22a.69.69 0 01.22 1.02l-.74 1a1.35 1.29-27.3 00-.26.75q-.1 4.12-1.69 7.94a.57.57 0 00.81.71c3.17-1.82 9.14-4.93 12.59-1.81 1.47 1.33 3.33 2.64 4.05 4.51 1.9 4.91.89 11.86 1.34 16.8"/><path stroke="#111110" vector-effect="non-scaling-stroke" d="M420.21 360.25c-2.54.44-2.95 2.25-2.3 4.53q4.12 14.43 4.46 29.46"/><path stroke="#919090" vector-effect="non-scaling-stroke" d="M422.37 394.24l-.29.01a.34.33 88.3 00-.32.35c.4 13.46 2.04 26.74 3.03 40.15"/><path stroke="#5d5e5f" vector-effect="non-scaling-stroke" d="M424.79 434.75q-.35 2.71.67 5.25"/><path stroke="#919090" vector-effect="non-scaling-stroke" d="M425.46 440q.94 8.33 1.12 16.69c.08 3.77 3.74 2.8 3.46.81"/><path stroke="#5d5e5f" vector-effect="non-scaling-stroke" d="M430.04 457.5l.63-.05a.61.61 0 01.62.38l.4.95a.62.61-25.7 00.87.3q3.36-1.89 7.23-2.25a.68.68 0 00.14-1.33l-5.73-1.78a1.48 1.47-85.9 01-1.03-1.19c-.8-5.3-4.82-27.6-2.39-31.28 1.36-2.05 5-3.93 6.97-5.71"/><path stroke="#919090" vector-effect="non-scaling-stroke" d="M437.75 415.54c2.12-.99.33-2.37-.5-3.25"/><path stroke="#111110" vector-effect="non-scaling-stroke" d="M437.25 412.29q.71-.1.89-.59a.79.79 0 00-.21-.84c-3.57-3.21-7.54-7.01-8.6-11.91q-1.24-5.71-2.6-11.49a1.05 1.04-33.1 01.19-.89q4.02-5.28 6.44-11.39c2.93-7.44 6.13-14.74 9.05-22.2a.56.56 0 01.9-.22l2.89 2.62a.54.53 48.3 00.67.04q.4-.28.63-.63"/><path stroke="#919090" vector-effect="non-scaling-stroke" d="M447.5 354.79c4.23 3.16 7.97 6.68 12.21 10.05q6.55 5.2 11.79 11.58a1.36 1.35 41.1 01.11 1.55c-7.83 13.14-18.99 24.22-30.25 34.68q-1.84 1.71.15 3.25l2.31 1.78"/><path stroke="#5d5e5f" vector-effect="non-scaling-stroke" d="M443.82 417.68q11.16 10.61 23.3 19.29a.58.57-49.9 00.75-.07c6.95-7.06 10.18-13.22 15.13-20.36"/><path stroke="#919090" vector-effect="non-scaling-stroke" d="M483 416.54q4.01-6.62 7.24-14.34a.77.77 0 011.46.15q1.06 5.23 4.54 10.12"/><path stroke="#111110" vector-effect="non-scaling-stroke" d="M496.24 412.47q.91-.19 1.44-.56a1.13 1.09 76 00.47-.81c.27-2.79.35-19.12-4.88-18.47"/><path stroke="#919090" vector-effect="non-scaling-stroke" d="M493.27 392.63q-1.98 3.55-2.5 7.36a.45.45 0 01-.84.15c-4.38-8.48-10.25-15.32-16.43-22.43a2.23 2.23 0 01-.31-2.45q7.15-14.43 5.63-30.31c-.22-2.35-.02-3.3-2.27-4.6q-3.32-1.92-6.74-3.76a1.18 1.18 0 01.31-2.19l2.49-.56a.4.4 0 00.3-.48c-.47-2.11-15.08-7.11-17.82-8.42a1.07 1.07 0 01-.17-1.82q1.7-1.28 3.86-.36 2.06.88.53-.8c-1.8-1.98-12.17-4.34-15.1-4.97a.62.61 16.8 00-.7.37q-.28.69-.05 1.39"/><path stroke="#111110" vector-effect="non-scaling-stroke" d="M443.46 318.75c-2.52-.51-2.35 8.94-2.32 10.5.03 1.59-.34 15.74-3.18 17.75"/><path stroke="#919090" vector-effect="non-scaling-stroke" d="M437.96 347q-15.35-6.75-30.2-14.5c-1.78-.92-2.77-2.89-2.57-4.74q1.41-12.77-3.16-23.82-.43-1.04.28-3.05.25-.7-.39-.33l-2.67 1.55a.7.69 58.8 00-.23.97l.91 1.43a.85.84 51 01-.1 1.03l-1.22 1.25a.84.83-55 01-.96.17c-.74-.35-2.53-1.65-3.07-.49a.88.88 0 00.1.9c.97 1.32 4.8 3 4.79 3.97a.49.49 0 01-.61.47l-9.63-2.42q-1.77-.44.02-.82l2.73-.59a.65.65 0 00.51-.68c-.07-.94-5.74-2.7-6.74-3.01"/><path stroke="#5d5e5f" vector-effect="non-scaling-stroke" d="M385.75 304.29l-8.32-1.65a.43.43 0 01-.31-.59l.1-.23a.87.86-78.9 01.78-.53c2.35-.07 4 1.21 6 1.36q3.34.25 6.28.08a.78.77 57.1 00.31-1.46q-6.93-3.64-13.59-3.2-1.41.1-5.31-1.78-.71-.34.07-.45l7.52-1.03a.58.58 0 00.15-1.1q-6.31-2.72-13.15-2.79a.61.6 68.1 01-.44-.19l-.22-.23a.24.23 58.6 01.09-.38l3.3-1.2a1.05 1.05 0 00-.13-2.01c-5.1-1.13-9.11.02-14.01-.33a.26.26 0 01-.02-.52q3.03-.35 4.39-3.05a.88.88 0 00-.77-1.28q-3.41-.05-6.88.87c-1.95.52-3.69.32-5.67.55a.57.56 80.9 01-.63-.46c-.15-.77 2.46-2.56 2.9-3.52a.93.93 0 00-1.26-1.23l-7.99 3.99a.48.48 0 01-.7-.45l.07-1.55q.03-.83-.66-.36l-6.63 4.5a.95.94-48.3 01-.97.06l-3.13-1.62a1.08 1.08 0 00-1.56.77q-2.19 12.65-11.06 21.94c-6.35 6.65-10.76 14.11-14.79 22.32q-5.83 11.89-15.01 21.42"/><path stroke="#cccdce" vector-effect="non-scaling-stroke" d="M385.75 304.29q1.33 2.09.71 4.46M316.75 380.71l-.75-.92M285.29 353.75q-1.31-1.92-.18-4.01a.51.5 29.7 00-.19-.68q-.18-.1-.42-.1"/><path stroke="gray" vector-effect="non-scaling-stroke" d="M437.96 347l1.98 1.02a.41.4-71.1 00.58-.29q2.69-14.36 2.94-28.98M493.27 392.63q4.53 9.41 2.97 19.84"/><path stroke="#cccdce" vector-effect="non-scaling-stroke" d="M483 416.54q-19.55 1.09-39.18 1.14"/><path stroke="gray" vector-effect="non-scaling-stroke" d="M447.5 354.79l-6.24-5.6q-.33-.3-.35.14-.2 3.84-2.37 8.98-4.19 9.93-8.31 19.89-1.5 3.63-5.35 6.79a.76.76 0 00-.26.79q1.8 6.71 3.01 13.54c.89 5.01 5.06 8.65 9.62 12.97"/><path stroke="#cccdce" vector-effect="non-scaling-stroke" d="M437.75 415.54c-5.73-.11-7.14-2.57-11.47-4.5"/><path stroke="gray" vector-effect="non-scaling-stroke" d="M426.28 411.04c-2.09-16.93-3.7-33.88-6.07-50.79"/><path stroke="#4c4e4f" vector-effect="non-scaling-stroke" d="M426.28 411.04q2.64 19.67 4.38 39.47.05.62-1.12.52"/><path stroke="gray" vector-effect="non-scaling-stroke" d="M429.54 451.03c-1.84-19.04-5.56-37.78-7.17-56.79"/><path stroke="#cccdce" vector-effect="non-scaling-stroke" d="M429.54 451.03q1 3.2.5 6.47M425.46 440q.49-2.77-.67-5.25"/><path stroke="#919090" vector-effect="non-scaling-stroke" d="M211.91 312.34a1.66 1.66 0 002.54-.61q2.58-5.6.17-11.26a1.22 1.22 0 01.02-1.01l1.54-3.31q.21-.45.17-.94-.41-5.41-3.3-9.99a.91.91 0 00-1.57.06c-2.79 5.31-4.67 23.05.43 27.06M385.53 296.35c.4 1.05 7.82 2.99 9.18 3.27a.39.39 0 00.47-.41c-.3-3.35-6.51-3.1-9.11-3.53a.5.49 84.1 00-.54.67"/><path stroke="#5d5e5f" vector-effect="non-scaling-stroke" d="M361.21 358.75q.34-1.84-.42-3.5"/><path stroke="#919090" vector-effect="non-scaling-stroke" d="M360.79 355.25c-.79-16.64-1.98-33.31-1.28-49.98.2-4.73-4.87-6.64-7.65-3.38a.57.56 43.8 00.02.75c3.84 4.17 3.62 7.61 3.89 12.91q.77 15.41 1.23 30.83.07 2.37.56 6.08c.64 4.74.58 11.49.82 14.33q.73 8.77 2.54 18.19a.99.98-27 001.64.53q.88-.82.62-2.75-1.6-11.95-1.97-24.01"/><path stroke="#cccdce" vector-effect="non-scaling-stroke" d="M360.79 355.25q-.34 1.84.42 3.5"/><path stroke="#919090" vector-effect="non-scaling-stroke" d="M362.97 332.02l.12 4.88q.02.91.69.28 7.88-7.52 14.73-15.97a.72.72 0 00-.46-1.17c-3.16-.44-12.54 8.57-14.71 10.98a1.48 1.42 66.3 00-.37 1"/><path stroke="#5d5e5f" vector-effect="non-scaling-stroke" d="M345.47 340.32c7.77 2.13 5.24-11.86 4.92-15.98a.27.26 53.7 00-.51-.08l-5.5 13.87a1.64 1.64 0 001.09 2.19"/><path stroke="#919090" vector-effect="non-scaling-stroke" d="M271.71 348.25l-2.34.02a1.32 1.3 66.5 01-.9-.36q-5.6-5.4-7.72-12.96a.56.55-15.7 00-.69-.38c-4.1 1.2-4.86 4.63-2.31 7.98q3.92 5.13 7.94 10.11a.6.6 0 00.77.14l6.08-3.55"/><path stroke="#5d5e5f" vector-effect="non-scaling-stroke" d="M272.54 349.25q11.82-7.7 17.19-21.06a.96.95 11.6 00-.87-1.31l-7.44-.17a.49.49 0 00-.5.44q-1.4 12.01-9.21 21.1"/><path stroke="#cccdce" vector-effect="non-scaling-stroke" d="M272.54 349.25l-.83-1"/><path stroke="#919090" vector-effect="non-scaling-stroke" d="M385.72 336.89q.64 9.85.79 19.7c.24 15.29.9 28 1.28 42.01.06 2.06.59 4.78 1.94 6q1.48 1.33 1.44-.66c-.37-23.04-.97-45.16-3.45-67.94a.83.82-17.1 00-1.21-.63c-.56.3-.84.84-.79 1.52"/><path stroke="#8e8f81" vector-effect="non-scaling-stroke" d="M349.79 343.2l-2.46 4.03a.72.72 0 00.88 1.05q3.11-1.24 2.71-4.83-.19-1.79-1.13-.25"/><path stroke="#919090" vector-effect="non-scaling-stroke" d="M136.3 355.19c2.21-.57 4.22-1.36 6.51-1.55q6.02-.51 11.94-2.05.49-.13.01-.29-1.88-.6-3.27-.58c-21.7.45-41.01.82-64.38 4.77-7.13 1.2-18.51 3.66-23.51 9.05q-.5.55.24.5 24.35-1.77 47.97-2.78c29.27-1.25 58.46-3.6 87.46-6.51 11.96-1.2 23.88-3.66 35.87-5.7a.53.53 0 00.08-1.03q-8.84-2.9-18.54-2.12-27.27 2.19-54.36 6.03c-4.56.65-10.23.98-15.31 1.81q-5.34.87-10.69.6-.51-.02-.02-.15"/><path stroke="#5d5e5f" vector-effect="non-scaling-stroke" d="M348.96 353.75c-7.14 4.56 1.19 10.99 1.76 16.62.09.93.76 9.15 1.32 9.13a.29.29 0 00.27-.31l-.81-16.98"/><path stroke="#919090" vector-effect="non-scaling-stroke" d="M351.5 362.21l-.94-10.48q-.06-.67-.39-.09l-1.21 2.11"/><path stroke="#cccdce" vector-effect="non-scaling-stroke" d="M351.5 362.21q-.6.13-.98.07a.53.53 0 01-.45-.62q.75-4.14-1.11-7.91"/><path stroke="#5d5e5f" vector-effect="non-scaling-stroke" d="M394.29 373q-1.05 2.43.78 3.74a.39.39 0 00.6-.21q.55-1.86-.92-3.24"/><path stroke="#919090" vector-effect="non-scaling-stroke" d="M394.75 373.29q2.52 1.25 6.51 4.95c5.41 5.03 15.33 12.39 13.37 17.43-.61 1.58-2.4 2.87-3.67 4.08"/><path stroke="#5d5e5f" vector-effect="non-scaling-stroke" d="M410.96 399.75q-7.08 5.58-14.51 10.03a1.3 1.29 58.7 00-.43 1.79l4.44 7.18"/><path stroke="#919090" vector-effect="non-scaling-stroke" d="M400.46 418.75l3.25 8.59"/><path stroke="#5d5e5f" vector-effect="non-scaling-stroke" d="M403.71 427.34q3.1-.21 5.32 2.21a1.86 1.85 19.1 01.47.96q.92 5.85 5.99 9.11.45.29.34-.23c-1.02-5.05-1.61-7.27 4.21-9.05a.39.39 0 01.5.34l.75 10.32"/><path stroke="#5d5e5f" vector-effect="non-scaling-stroke" d="M421.29 441q-.11 5.38-3.65 9.39a.85.84 53.4 00-.13.91l.85 1.84a.79.78 47.7 01-.03.72q-.44.73-1.11 1.33a.94.94 0 01-1.42-.23c-3.24-5.42-4.38-11.72-9.26-16.39-1.31-1.25-1.74-2.55-2.14-4.2a.86.86 0 00-.72-.65l-2.58-.34a1.49 1.45 69.7 01-.82-.39l-2.08-1.96M398.2 431.03c-2.53-6.02-6.48-10.94-9.48-16.25-2.49-4.42-6.25-8.67-5.84-13.96q.69-8.93 1.08-19.27a.24.24 0 00-.48-.03q-1.33 10.99-2.38 22.49c-.21 2.32 4.04 8.95 5.18 11.5a.78.78 0 01-.57 1.09q-2.74.52-4.77-1.81c-6.79-7.78-15.05-16.83-13.25-28.08.63-3.9 7.37-7.32 10.62-9.34 2.09-1.3 3.58-.69 4.96 1.08q.7.88.55-.23l-.82-6.34a.83.83 0 00-1.31-.56l-8.28 6.11a.68.67-42.7 01-.85-.03q-4.66-4.07-7.86-9.4a.37.37 0 00-.69.18q-.25 7.77 1.21 15.33.93 4.76-1.79 11.23a.75.74-56.3 00.16.81c7.18 7.23 11.64 15.2 17.87 21.69 1.59 1.65 3.2 1.7 5.34 1.92a1.77 1.74 67.3 01.88.37q4 3.29 6.05 7.98.82 1.87.64 4.61-.15 2.39-.13 4.76"/><path stroke="#5d5e5f" vector-effect="non-scaling-stroke" d="M394.24 436.88q2.38 1.31 3.37 3.13a.67.66-35.5 01-.14.8c-3.69 3.35-8.37 3.48-12.93 4.61a.46.45-29.9 00-.21.77c4.1 4 13.41 6.66 18.79 9.17 3.95 1.85 8.07 2.72 12.24 4.06 1.56.5 3.21-.01 4.69.97a.8.8 0 001.24-.58q1.06-9.54.5-19.06M421.79 440.75q.26-16.08-1.79-32.04"/><path stroke="#919090" vector-effect="non-scaling-stroke" d="M420 408.71c-.61-4.61-2.42-9.45-3.18-13.32-2.9-14.58-2.82-29.2-8.15-41.29a1.45 1.45 0 00-1.96-.72c-3.84 1.9-12.51 6.68-12.89 10.86q-.43 4.81.47 8.76"/><path stroke="#cccdce" vector-effect="non-scaling-stroke" d="M420 408.71l-9.04-8.96M394.75 373.29l-.46-.29"/><path stroke="#989b9d" vector-effect="non-scaling-stroke" d="M421.79 440.75l-.5.25"/><path stroke="#cccdce" vector-effect="non-scaling-stroke" d="M403.71 427.34q-.3-5.15-2.02-8.53-.44-.87-1.23-.06"/><path stroke="#989b9d" vector-effect="non-scaling-stroke" d="M398.2 431.03q-2.67 1.63-2.57 5.21.01.51-1.39.64"/><path stroke="#919090" vector-effect="non-scaling-stroke" d="M298.33 371.88c-1.91 1.07-2.68 3.64-3.92 5.44a.46.45-41.8 01-.78-.04l-.92-1.7a.4.4 0 00-.66-.07l-2.34 2.77a.7.69 48 00-.04.86q1.88 2.62 4.17.9.41-.3.91-.42l5.53-1.34a.81.78 85.7 00.61-.73l.26-4.88a1.42 1.36 68.9 01.36-.86q2.9-3.16 1.35-7.34-.39-1.04-.84-.03l-3.01 6.69a1.7 1.67-3.3 01-.68.75"/><path stroke="#5d5e5f" vector-effect="non-scaling-stroke" d="M357.19 424.31c1.42 1.35 2.15 2.16 4.28 1.9q7.31-.89 13.85-4.53a.37.37 0 00.08-.59c-7.47-7.11-12.32-15.49-19.92-23.57q-1.9-2.02-.33-4.54a1.27 1.25 54.2 00.15-.97l-.89-3.66a.6.59 53 00-1.1-.16q-2.95 5.27-8.83 6.64a.56.55 79.6 00-.43.63c1.53 10.45 5.31 21.45 13.14 28.85M443.56 456.52q3.92 1.28 7.92 1.32c5.14.06 10.3 1.57 15.24.27q8.15-2.15 14.36-8.14a.7.7 0 00-.04-1.04l-12.59-10.38a.95.95 0 00-1.2 0q-6.3 5.18-13.05 10.23c-3.37 2.53-7.15 4.44-10.77 6.52q-1.31.75.13 1.22"/><path stroke="#cccdce" vector-effect="non-scaling-stroke" d="M515.88 197.78c-3.03 2.91-5.14 5.23-10.25 8.05q-21.68 11.94-43.53 23.56c-12.51 6.65-25.67 13.88-35.92 23.54q-4.83 4.55-5.08 11.45a.63.63 0 00.48.64q1.19.31 3-.15c21.99-5.51 43.25-12.79 64.5-20.64 15.17-5.61 24.91-21.18 29.56-36.27 1.02-3.31 2.16-9.13-1.91-10.38a.87.86-57.8 00-.85.2"/></g><path d="M0 0h590.06l-.02.25.25 3.75v1l-.03 584.57a.67.67 0 01-.67.67q-293.4.03-586.9.05-1.36 0-2.69-.35V0zm585.49 5.52a.27.27 0 00-.27-.27H5.52a.27.27 0 00-.27.27v579.7a.27.27 0 00.27.27h579.7a.27.27 0 00.27-.27V5.52z"/><path fill="#222120" d="M590.06 0h.94v297.31l-.21-.06-.1-292.06a.15.15 0 00-.13-.15l-.27-.04V4q1.37-2.04-.25-3.75l.02-.25z"/><path fill="#989b9d" d="M590.04.25q1.62 1.71.25 3.75l-.25-3.75zM590.29 5l.27.04a.15.15 0 01.13.15l.1 292.06-.1 293.31a.37.36 64.9 01-.08.23l-.17.21h-.5q-6.88-.63-13.75 0h-17.25q-6.38-.63-12.75 0h-2.25q-3.88-.63-7.75 0h-.25q-3.88-.63-7.75 0h-.25q-10.63-.63-21.25 0h-17.75q-25.38-.63-50.75 0h-1.25q-2.38-.63-4.75 0h-19.25q-4.38-.63-8.75 0h-2.25q-10.88-.63-21.75 0h-13.25q-2.38-.63-4.75 0h-2.25q-2.88-.63-5.75 0h-2.25q-2.88-.63-5.75 0h-2.25q-7.88-.63-15.75 0h-.25q-3.88-.63-7.75 0h-.25q-2.88-.63-5.75 0h-19.25q-2.38-.63-4.75 0h-1.25q-7.38-.63-14.75 0h-1.25q-3.38-.63-6.75 0h-17.25q-3.38-.63-6.75 0h-2.25q-2.63-.63-5.25 0h-13.75q-21.88-.63-43.75 0h-.25q-3.88-.63-7.75 0h-3.25q-2.38-.63-4.75 0h-1.25q-3.38-.63-6.75 0h-.25q-3.38-.63-6.75 0h-27.25q-2.88-.63-5.75 0h-1.25q-6.88-.63-13.75 0H80.94q-15.38-.63-30.75 0H30.44q-2.13-.63-4.25 0h-.25c-5.16-.18-24.88.26-25.94-.56v-.5q1.33.35 2.69.35 293.5-.02 586.9-.05a.67.67 0 00.67-.67L590.29 5z"/><path fill="#fafde1" d="M585.49 585.22a.27.27 0 01-.27.27H5.52a.27.27 0 01-.27-.27V5.52a.27.27 0 01.27-.27h579.7a.27.27 0 01.27.27v579.7zM32.06 24.23c-8.93 2.04-14.44 11.03-14.32 19.78q.31 22.15 1.11 43.59a.99.98-24.2 001.7.64q26.16-27.15 51.99-53.95 4.5-4.66 8.82-10.29a.84.84 0 00-.68-1.34q-18.05.3-36.28.85-10.62.33-12.34.72zM155 218.29l-1.72-.39a1.2 1.19 34.8 00-.91.16c-4.21 2.68-4.47 8.95-2.32 12.78 6 10.66 35.39 11.55 45.66 10.16 5.87 7.23 12.12 14.01 17.85 21.33a1.01.99-57.2 01.18.88c-.38 1.46-3.12 3.56-2.29 4.55a.83.83 0 00.95.23l4.13-1.72q.48-.2.3.29c-.12.34-4.5 3.59-5.33 4.65q-7.39 8.17-10.29 18.79-2.77 9.24-.21 18.54 5.24 19.15 20.75 31.5l3.2 2.32a.26.26 0 01-.13.47c-14.91.85-29.58 3.53-44.41 5-18.34 1.82-36.84.5-55.3 1.85-23.66 1.74-48.6 4.29-72 13.24q-3.27 1.25-5.52 3.6a.54.53-55.6 00.15.84q4.89 2.36 10.26 2.39c22.09.12 43.95-1.33 65.99-2.32q10.72-.48 24.26-1.69 19.09-1.7 85.81-5.91 8.47-.54 15.23 1.12c4.39 1.07 7.84 1.05 12.07 1.42a.59.59 0 01.54.53l1.35 11.39q1.86 11.2 3.38 22.44c1.34 9.84 1.82 19.89-.27 29.18-.82 3.61-.48 6.84-.78 10.49a1.58 1.58 0 01-.35.87l-4.27 5.23-.76 4.33a.91.9 83.9 01-.52.66c-3.96 1.74-5.28 1.09-7.43 5.38a1.21 1.2-84.9 01-.7.59c-6.08 1.95-13.44 5.46-7.26 13.09q2.44 3.01 2.47-.87.02-2.14.69-4.21a1.47 1.42 84.4 01.61-.77q4.26-2.6 9.19-.9a1.14 1.13-50.4 00.94-.09q3.61-2.11 1.6-5.49a.48.47-24.8 01.26-.69c2.12-.73 5.34.66 6.3-1.43q.76-1.67 1.43-4.53c.93-3.98 1.71-4.46 4.43-7.13q2.24-2.21 1.8-6.42a1.08 1.08 0 01.3-.86c4.28-4.39 7.53-8.38 3.23-14.41q.07-8.26-.3-16.5c-.04-.91-.72-2.24-.79-3.38q-.72-12.02-3.13-23.94-.17-7.16-2.29-14.16a.82.81 65.7 01.35-.94l2.19-1.33a.75.75 0 011.08.92c-3.53 8.62 5.45 9.55 6.96 16.54q.74 3.42 1.39 6.83c1.73 13.73 3.36 28.03 3.98 41.44.14 2.91.92 5.76 1.06 8.77.37 4.88 2.16 12.26.7 16.84-.91 2.83-1.34 5.32 1.3 6.88a.84.83 34 01.24 1.22q-4.3 5.76-7.69 9.65-1.46 1.67-.22 4.48a1.04 1.02 50.9 01-.09.98l-3.27 4.87a2.07 2.04 4.4 01-.84.71q-3.49 1.61-4.08 5.35a.37.37 0 00.42.42c8.32-1.22 7.24-1.51 11.64-7.8 1.55-2.23 4.85-3.16 5.52-6.16q1.4-6.39 3.83-10.55c2.64-4.52 4.91-5.83 3.62-11.96q-1.79-8.54-2.33-10.68c-1.95-13.1-2.4-26.04-3.58-39.19q-.53-5.89-.75-11.81l.08-2.32a.31.3-54.4 01.59-.1q2.88 7.51 9.71 10.81c3.85 1.85 5.97-2.41 8.26-4.63a.32.31-30.6 01.52.13c1.06 3.33 1.52 7.08 2.39 10.09q5.31 18.22 10.43 36.49c2.26 8.04 3.29 16.36 6.7 24.02 1.74 3.91-.12 7.11 2.11 10.97 1.75 3.02 4.5 5.2 5.73 8.32q1.6 4.06 3.98 7.74c1.76 2.71-.29 6.51 4.3 7.43a1.34 1.3 75.4 01.79.48q2 2.46 4.31 4.66c3.41 3.24 4.37 7.28 4.8 11.74a.65.63 1.7 00.56.58c1.24.16 2.12-.36 2.62-1.58 3.18-7.66-1.52-16.6-7.61-21.71a.83.81-61.4 01-.25-.88l.58-1.8a.81.8-60.3 00-.23-.86c-2.85-2.5-10.36-10.99-10.12-14.82q.25-4.19-2.63-6.67a1.77 1.77 0 01-.53-.81c-.8-2.63-1.69-5.24-2.27-7.92q-4.35-20.26-9.64-40.29c-1.09-4.14-1.84-9.75-3.36-14.9q-.54-1.81-.75-3.74a.84.83-20.2 01.36-.77l5.05-3.38a.79.76 67.3 00.32-.82q-1.45-6.02-4.32-11.48a.96.96 0 011.11-1.38q3.85 1.07 5.81-2.58a.64.63 55.3 011.19.22c1.01 6.99.63 14.44 2.41 21.17q.97 3.67 1.95 7.34c2.16 8.11 10.55 32.67 20.07 34.2a1.4 1.4 0 01.82.45c2.94 3.32 4.26 6.26 9.3 6.25a1.01 1 72.8 01.83.44q3.21 4.86 7.56 8.79a.47.47 0 00.77-.21l.34-1.17a.74.74 0 011.29-.26q4.86 6.02 11.68 9.72a1.11 1.08-45.8 001.08-.03l2.76-1.68a.75.74-36.8 01.93.13q3.25 3.5 7.76 3.33c3.75-.14 5.34.24 8.28 1.79a.98.97 31.6 001.24-.29c2.09-2.86 12.82.77 10.69-4.24a.35.34-11.9 01.32-.48h.4a.64.64 0 01.62.84c-1.14 3.61-1.57 6.89.36 10.42 2.6 4.78 6.03 8.89 8.51 13.64 2.62 5.03 6.08 9.4 8.44 14.53a.93.92-11.5 00.83.54l.95.01a.77.77 0 00.77-.78l-.02-1.92a1.29 1.28-23.9 01.34-.87c5.65-6.01-.71-12.08-5.33-17.47a1.07 1.06 28.9 01-.25-.85c.49-3.55-3.3-3.41-4.77-6.05q-2.4-4.31-4.89-8.77a.76.76 0 011.18-.93l2.01 1.85q.38.34.85.54 3.18 1.3 6.69.62c4.47-.87 9.83-.9 13.31-1.42q14.24-2.12 26.28-10.16a1.64 1.63-61.6 01.9-.27l3.07.02a1.21 1.19-69.1 00.9-.41l3.68-4.21q.34-.39.81-.59c5.7-2.45 5.92-4.18 7.58-9.8a1.62 1.61 79.8 01.57-.83l2.79-2.14a1.59 1.57-13.8 00.59-.96l1.48-7.99a.98.97 85.4 01.63-.75l1.96-.71a.89.88 81.4 00.59-.81c.21-6.31 1.7-13.45-1.36-19.43a.39.39 0 01.25-.55c3.15-.77 1.14-7.75.36-9.64a.95.92-40.5 01.08-.87c3.19-4.74-2.17-8.44-1.01-11.67q.27-.78.53 0 .57 1.76 2.37 1.85a.79.78 8.6 00.8-.58l.38-1.44a1.17 1.13 40.2 00-.08-.8c-1.19-2.39-3.67-5.75-1.04-8.14a.82.8 61.1 00.23-.84q-1.24-4.29-4.35-7.5-.58-.6.25-.72l1.93-.29a.49.49 0 00.4-.61c-1.27-4.72-3.2-7.01-7.48-10.15-.98-.71-5.47-4.02-4.96-5.31a.44.44 0 01.67-.2l6.07 4.44a1.25 1.25 0 001.99-1.01c.01-4.55-4.76-7.45-7.97-10.19a1.17 1.16 19.5 01-.4-.83c-.22-5.84-5.47-8.77-10.05-11.32a.49.49 0 01-.17-.71l1.15-1.67a.82.81-56.9 00-.24-1.16l-10.64-6.6a1.22 1.21-79 01-.56-.84l-.28-1.68a1.62 1.54 19.5 00-.43-.84q-4.18-4.4-10.05-6.02a.89.87 1.7 01-.64-.67c-.86-4.15-8.78-5.96-12.19-6.35a.44.44 0 01-.22-.79l2.03-1.58a.45.44 40.1 00-.07-.75c-3.83-2.05-6.05-2.1-10.2-2.95q-1.18-.24-.01-.55l2.77-.74a.56.55 79.8 00.41-.6c-.33-3-8.5-2.58-12.75-2.54q-.95.01-.39-.76l.79-1.09a.57.56-47.7 00-.03-.71q-.78-.91-1.85-.68c-4.23.87-8.27 1.98-12.75 1.07-6.29-1.29-13.02 3.48-18.44 6.25a.31.31 0 01-.45-.27c-.09-4.89-4.21-5.31-7.49-7.34q-.44-.26.05-.42c22.23-7.03 44.93-12.49 67.28-19.18 24.89-7.44 45.67-18.83 60.39-40.74q4.22-6.28 10.04-17.29c12.3-23.28 21.8-49.04 18.27-75.82-2.73-20.7-16.48-33.99-38.51-24.89-12.47 5.15-24.1 15.68-34.79 25.5-31.88 29.29-61.88 60.69-91.81 91.94-18.3 19.11-29.56 32.33-44.98 41.4q-.69.41-.36-.33l2.63-5.94a.87.87 0 00-1.21-1.11q-5.97 3.27-10.05 8.67-.35.47-.44-.11c-.82-5.52-1.25-11.6-3.27-16.47-5.03-12.09-14.86-21.58-28.86-20.53-3.35.25-6.71 1.59-10.01 2.73a.93.92-35.4 01-.86-.14q-3.73-2.96-8.43-3.93a.51.51 0 01-.38-.67c1.45-4.03 3.78-8.37 5.17-11.71q5.19-12.47 11.07-24.73a.76.76 0 00-.16-.88c-6.69-6.48-11.63-15.81-16.11-21.84-5.37-7.23-15.63-20.02-23.22-9.08-1.16 1.67-1.18 3.48-.06 5.3 6.99 11.36 19.3 24.62 31.76 31.53a.52.52 0 01.22.69c-3.79 7.83-7.91 15.63-11.44 23.56-1.67 3.75-4.18 6.1-8.58 6.13q-6.67.05-13.45 1.52a.87.86 51.4 00-.18 1.63l2.72 1.29a.41.41 0 01-.06.76c-11.44 3.45-21.38 5.37-31.73 11.99a.41.4 32.4 00.17.74l2.38.31q1.1.14.12.67-3.76 2.06-6.39 5.42a.58.58 0 00.58.93l2.93-.64q1.12-.24.35.61l-3.24 3.6a.55.55 0 01-.8.01c-6.54-6.74-12.17-14.78-18.19-22.04-8.85-10.67-30.14-16.66-43.43-19.84z"/><path fill="#f9e5ae" d="M17.74 44.01c-.12-8.75 5.39-17.74 14.32-19.78q1.72-.39 12.34-.72 18.23-.55 36.28-.85a.84.84 0 01.68 1.34q-4.32 5.63-8.82 10.29-25.83 26.8-51.99 53.95a.99.98-24.2 01-1.7-.64q-.8-21.44-1.11-43.59z"/><path fill="#222120" d="M292.46 386.25q-2.9.19-2.22 3.52 2.6 12.84 2.8 26.65c.1 7.66 1.46 14.71 2.19 22.28a.59.59 0 001.03.33q.66-.75.53-1.78.54 2.14 2.33 10.68c1.29 6.13-.98 7.44-3.62 11.96q-2.43 4.16-3.83 10.55c-.67 3-3.97 3.93-5.52 6.16-4.4 6.29-3.32 6.58-11.64 7.8a.37.37 0 01-.42-.42q.59-3.74 4.08-5.35a2.07 2.04 4.4 00.84-.71l3.27-4.87a1.04 1.02 50.9 00.09-.98q-1.24-2.81.22-4.48 3.39-3.89 7.69-9.65a.84.83 34 00-.24-1.22c-2.64-1.56-2.21-4.05-1.3-6.88 1.46-4.58-.33-11.96-.7-16.84q1.83-.12 1.46-2.26-.93-5.32-1.29-12.3c-.49-9.78-1.85-18.61-2.2-29.19q-.09-2.86-1.79-6.09a.77.76 73.3 00-.75-.41l-.47.04q-.65-3.41-1.39-6.83c-1.51-6.99-10.49-7.92-6.96-16.54a.75.75 0 00-1.08-.92l-2.19 1.33a.82.81 65.7 00-.35.94q2.12 7 2.29 14.16-.89 4.34-.16 8.68.98 5.87 1.05 6.86.54 7.17 1.36 14.32c.52 4.54.29 9.26.59 13.96a.5.5 0 00.55.47q.56-.06.83-.47c4.3 6.03 1.05 10.02-3.23 14.41a1.08 1.08 0 00-.3.86q.44 4.21-1.8 6.42c-2.72 2.67-3.5 3.15-4.43 7.13q-.67 2.86-1.43 4.53c-.96 2.09-4.18.7-6.3 1.43a.48.47-24.8 00-.26.69q2.01 3.38-1.6 5.49a1.14 1.13-50.4 01-.94.09q-4.93-1.7-9.19.9a1.47 1.42 84.4 00-.61.77q-.67 2.07-.69 4.21-.03 3.88-2.47.87c-6.18-7.63 1.18-11.14 7.26-13.09a1.21 1.2-84.9 00.7-.59c2.15-4.29 3.47-3.64 7.43-5.38a.91.9 83.9 00.52-.66l.76-4.33q.05 1.37 1.09 2.08a.43.42-60.7 00.63-.18c1.61-3.75 4.87-4.11 4.98-9 .09-3.81-.17-7.38.55-11.24 2.25-12.04.42-25.17-1.44-37.18-.18-1.19.1-2.37-.29-3.72-.61-2.12-.48-9.28-3.23-8.97l-1.35-11.39a.59.59 0 00-.54-.53c-4.23-.37-7.68-.35-12.07-1.42q-6.76-1.66-15.23-1.12-66.72 4.21-85.81 5.91-13.54 1.21-24.26 1.69c-22.04.99-43.9 2.44-65.99 2.32q-5.37-.03-10.26-2.39a.54.53-55.6 01-.15-.84q2.25-2.35 5.52-3.6c23.4-8.95 48.34-11.5 72-13.24 18.46-1.35 36.96-.03 55.3-1.85 14.83-1.47 29.5-4.15 44.41-5a.26.26 0 00.13-.47l-3.2-2.32q.79-.33 1.01-1.1a.77.77 0 00-.26-.81q-8.78-7.07-14.64-16.72-1.61-2.66-5.16-13.22a.45.45 0 00-.65-.25l-1.05.6q-2.56-9.3.21-18.54.6.22 1.43.09a.8.79 4.3 00.62-.53q3.02-9.52 9.51-17.08a.44.44 0 00-.13-.68l-1.14-.59c.83-1.06 5.21-4.31 5.33-4.65q.18-.49-.3-.29l-4.13 1.72a.83.83 0 01-.95-.23c-.83-.99 1.91-3.09 2.29-4.55a1.01.99-57.2 00-.18-.88c-5.73-7.32-11.98-14.1-17.85-21.33q.45-.31.41-.91a.51.5-5.9 00-.57-.46c-14.18 1.99-33.97 1.3-44.71-9.75a1.68 1.6 18.8 01-.44-.84c-.78-3.99-1.05-9.7 4.41-9.33a.58.58 0 00.61-.49q.09-.51-.42-.93c13.29 3.18 34.58 9.17 43.43 19.84 6.02 7.26 11.65 15.3 18.19 22.04a.55.55 0 00.8-.01l3.24-3.6q.77-.85-.35-.61l-2.93.64a.58.58 0 01-.58-.93q2.63-3.36 6.39-5.42.98-.53-.12-.67l-2.38-.31a.41.4 32.4 01-.17-.74c10.35-6.62 20.29-8.54 31.73-11.99a.41.41 0 00.06-.76l-2.72-1.29a.87.86 51.4 01.18-1.63q6.78-1.47 13.45-1.52c4.4-.03 6.91-2.38 8.58-6.13 3.53-7.93 7.65-15.73 11.44-23.56a.52.52 0 00-.22-.69c-12.46-6.91-24.77-20.17-31.76-31.53-1.12-1.82-1.1-3.63.06-5.3 7.59-10.94 17.85 1.85 23.22 9.08 4.48 6.03 9.42 15.36 16.11 21.84a.76.76 0 01.16.88q-5.88 12.26-11.07 24.73c-1.39 3.34-3.72 7.68-5.17 11.71a.51.51 0 00.38.67q4.7.97 8.43 3.93a.93.92-35.4 00.86.14c3.3-1.14 6.66-2.48 10.01-2.73 14-1.05 23.83 8.44 28.86 20.53 2.02 4.87 2.45 10.95 3.27 16.47q.09.58.44.11 4.08-5.4 10.05-8.67a.87.87 0 011.21 1.11l-2.63 5.94q-.33.74.36.33c15.42-9.07 26.68-22.29 44.98-41.4 29.93-31.25 59.93-62.65 91.81-91.94 10.69-9.82 22.32-20.35 34.79-25.5 22.03-9.1 35.78 4.19 38.51 24.89 3.53 26.78-5.97 52.54-18.27 75.82q-5.82 11.01-10.04 17.29c-14.72 21.91-35.5 33.3-60.39 40.74-22.35 6.69-45.05 12.15-67.28 19.18q-.49.16-.05.42c3.28 2.03 7.4 2.45 7.49 7.34a.31.31 0 00.45.27c5.42-2.77 12.15-7.54 18.44-6.25 4.48.91 8.52-.2 12.75-1.07q1.07-.23 1.85.68a.57.56-47.7 01.03.71l-.79 1.09q-.56.77.39.76c4.25-.04 12.42-.46 12.75 2.54a.56.55 79.8 01-.41.6l-2.77.74q-1.17.31.01.55c4.15.85 6.37.9 10.2 2.95a.45.44 40.1 01.07.75l-2.03 1.58a.44.44 0 00.22.79c3.41.39 11.33 2.2 12.19 6.35a.89.87 1.7 00.64.67q5.87 1.62 10.05 6.02a1.62 1.54 19.5 01.43.84l.28 1.68a1.22 1.21-79 00.56.84l10.64 6.6a.82.81-56.9 01.24 1.16l-1.15 1.67a.49.49 0 00.17.71c4.58 2.55 9.83 5.48 10.05 11.32a1.17 1.16 19.5 00.4.83c3.21 2.74 7.98 5.64 7.97 10.19a1.25 1.25 0 01-1.99 1.01l-6.07-4.44a.44.44 0 00-.67.2c-.51 1.29 3.98 4.6 4.96 5.31 4.28 3.14 6.21 5.43 7.48 10.15a.49.49 0 01-.4.61l-1.93.29q-.83.12-.25.72 3.11 3.21 4.35 7.5a.82.8 61.1 01-.23.84c-2.63 2.39-.15 5.75 1.04 8.14a1.17 1.13 40.2 01.08.8l-.38 1.44a.79.78 8.6 01-.8.58q-1.8-.09-2.37-1.85-.26-.78-.53 0c-1.16 3.23 4.2 6.93 1.01 11.67a.95.92-40.5 00-.08.87c.78 1.89 2.79 8.87-.36 9.64a.39.39 0 00-.25.55c3.06 5.98 1.57 13.12 1.36 19.43a.89.88 81.4 01-.59.81l-1.96.71a.98.97 85.4 00-.63.75l-1.48 7.99a1.59 1.57-13.8 01-.59.96l-2.79 2.14a1.62 1.61 79.8 00-.57.83c-1.66 5.62-1.88 7.35-7.58 9.8q-.47.2-.81.59l-3.68 4.21a1.21 1.19-69.1 01-.9.41l-3.07-.02a1.64 1.63-61.6 00-.9.27q-12.04 8.04-26.28 10.16c-3.48.52-8.84.55-13.31 1.42q-3.51.68-6.69-.62-.47-.2-.85-.54l-2.01-1.85a.76.76 0 00-1.18.93q2.49 4.46 4.89 8.77c1.47 2.64 5.26 2.5 4.77 6.05a1.07 1.06 28.9 00.25.85c4.62 5.39 10.98 11.46 5.33 17.47a1.29 1.28-23.9 00-.34.87l.02 1.92a.77.77 0 01-.77.78l-.95-.01a.93.92-11.5 01-.83-.54c-2.36-5.13-5.82-9.5-8.44-14.53-2.48-4.75-5.91-8.86-8.51-13.64-1.93-3.53-1.5-6.81-.36-10.42a.64.64 0 00-.62-.84h-.4a.35.34-11.9 00-.32.48c2.13 5.01-8.6 1.38-10.69 4.24a.98.97 31.6 01-1.24.29c-2.94-1.55-4.53-1.93-8.28-1.79q-4.51.17-7.76-3.33a.75.74-36.8 00-.93-.13l-2.76 1.68a1.11 1.08-45.8 01-1.08.03q-6.82-3.7-11.68-9.72a.74.74 0 00-1.29.26l-.34 1.17a.47.47 0 01-.77.21q-4.35-3.93-7.56-8.79a1.01 1 72.8 00-.83-.44c-5.04.01-6.36-2.93-9.3-6.25a1.4 1.4 0 00-.82-.45c-9.52-1.53-17.91-26.09-20.07-34.2q-.98-3.67-1.95-7.34c-1.78-6.73-1.4-14.18-2.41-21.17a.64.63 55.3 00-1.19-.22q-1.96 3.65-5.81 2.58a.96.96 0 00-1.11 1.38q2.87 5.46 4.32 11.48a.79.76 67.3 01-.32.82l-5.05 3.38a.84.83-20.2 00-.36.77q.21 1.93.75 3.74c1.52 5.15 2.27 10.76 3.36 14.9q5.29 20.03 9.64 40.29c.58 2.68 1.47 5.29 2.27 7.92a1.77 1.77 0 00.53.81q2.88 2.48 2.63 6.67c-.24 3.83 7.27 12.32 10.12 14.82a.81.8-60.3 01.23.86l-.58 1.8a.83.81-61.4 00.25.88c6.09 5.11 10.79 14.05 7.61 21.71-.5 1.22-1.38 1.74-2.62 1.58a.65.63 1.7 01-.56-.58c-.43-4.46-1.39-8.5-4.8-11.74q-2.31-2.2-4.31-4.66a1.34 1.3 75.4 00-.79-.48c-4.59-.92-2.54-4.72-4.3-7.43q-2.38-3.68-3.98-7.74c-1.23-3.12-3.98-5.3-5.73-8.32-2.23-3.86-.37-7.06-2.11-10.97-3.41-7.66-4.44-15.98-6.7-24.02q-5.12-18.27-10.43-36.49c-.87-3.01-1.33-6.76-2.39-10.09a.32.31-30.6 00-.52-.13c-2.29 2.22-4.41 6.48-8.26 4.63q-6.83-3.3-9.71-10.81a.31.3-54.4 00-.59.1l-.08 2.32zm73.14-118.42q2.66 1.08 3.19 3.42l-.05.28a.49.47-4.4 01-.33.37q-5.79 1.77-10.69 5.33a.31.3 19.3 00.26.54l10.52-2.81c4.67-.46 12.63-1.25 13 4.75q-2.28-.52-3.61.84-.38.39.16.44l5.95.55 1.46.21 6.5 2.67a1.29 1.28 45.3 00.94.01c14.29-5.25 29.81-9.49 46.87-15.24 19.83-6.67 42.17-13.31 58.14-27.53 14.14-12.59 21.9-28.78 29.53-46.65 9.03-21.11 18.18-45.06 10.03-68.1-2.56-7.25-9.39-13.88-17.35-13.95-6.87-.06-13.7 4.92-18.83 9.58q-64.04 58.31-121.37 117.38-14.46 14.9-23.71 25.27a.42.42 0 00.09.64l2.27 1.45a.78.78 0 01.22 1.11l-1.01 1.42q-.32.46.23.38 4.15-.58 7.59-2.36zm-106.1 60.88q6.97-4.07 15.35-6.42a.69.69 0 00.21-1.22q-4.36-3.12-8.02-7.57-8.02-12.14-8.58-26.75-.25-4.79.58-9.5.39.92-.22 1.98-.35.61.29.31l.65-.3a1.05 1.04-8.6 00.6-.8q2.52-16.88 13.56-29.85.79-.93-.42-1.05l-.75-.08.71-1.46q2.39-3.17 5.68-5.4.41-.28-.05-.47c-6.87-2.85-13.08-5.2-18.9-4.85a.69.69 0 00-.56 1.03q1.4 2.5 4.18 3.27 1.72.48-.06.7-13.39 1.7-26.24 5.76a.41.41 0 00.1.8l3.45.22a.35.34-11.8 01.29.18l.18.3a.26.26 0 01-.18.39q-5.89 1.05-10.51 4.94a.42.42 0 00.47.7q3.94-2.09 8.2-.61.52.18.05.46c-4.63 2.82-9.6 4.65-13.04 8.94a.46.45 4.7 00.58.68q2.98-1.64 6.35-1.71a.71.7-59.5 01.34 1.33c-4.09 2.17-10.78 4.14-13.09 8.16q-.41.71.36.44 3.95-1.41 8.19-1.47.86-.01.15.46c-3.37 2.22-8.57 4.75-10.9 8.05a.76.76 0 00.68 1.19l7.83-.61a.65.65 0 01.47 1.14l-9.08 7.67a.99.99 0 00.63 1.75l5.37.06q.47.01.2.39l-6.1 8.65a.52.51-50.7 00.06.66l.21.19a.64.63 47.6 00.83.04l2.54-1.95a.49.49 0 01.72.64q-1.78 2.96-3.35 5.88-.22.41-.09.67a.64.64 0 00.75.32l1.55-.47a1.04 1.04 0 011.28 1.34c-1.03 2.92-3.5 7.98-1.85 10.55a.33.33 0 00.57-.02l1.86-3.4q.41-.75.5.1c.42 3.95-1.34 7.94.45 11.87a.43.42-35.7 00.7.11l2.4-2.59a.7.7 0 01.85-.14q.64.34.27 1.17-2.1 4.76-.26 9.83a.55.54-44.8 001.02 0l2.17-5.81a.38.38 0 01.74.12c.23 5.73-.94 8.47 3.82 12.67a.52.52 0 00.83-.21l.43-1.15a.59.59 0 01.7-.37l2.41.62a.54.53-63.4 00.56-.19c2.45-3.14 5.78-2.3 9.16-2.95q.49-.1.88-.42l8.29-6.94zm15.9-37.26q3.3 2.58 5.81-1.45c.3.84 1.07.67 1.48.06 5.49-8.2 8.06-15.76 10.64-25.55.96-3.66.74-6.76-.02-10.28-.27-1.28-2.14-4.75-3.95-3.7a1.23 1.23 0 01-.89.13c-5.34-1.3-7.68 3.21-9.9 7.87-4.58 9.62-5.27 17.41-5.84 27.83q-.18 3.31 2.67 5.09zm9.1 57.51c-2.14 1.59-4.51 4.67-1.65 7.04a.51.5 39.1 00.72-.07l1.72-2.18c4.49-3.98 7.09-6.6 12.08-7.69a1.06 1.06 0 011.18 1.49q-.72 1.51.21 2.53a.55.55 0 00.75.06l4.18-3.34q.94-.74.98.45l.11 3.07a1.52 1.49-65.8 00.32.87q2.47 3.17 2.09 7.31-.05.56.23.89a.52.52 0 00.76.04l1.01-.99a.63.62 41.7 01.83-.04c3.89 3.17-.26 11.55 1.99 13.55q.47.42.53-.2l.73-7.72a.86.86 0 01.62-.74c1.79-.51 2.75.24 3.04 2.08q1.06 6.71.31 13.44a.88.87-7.2 01-.56.72l-.68.26q-1.16.3-1.74-.03a1.28 1.28 0 00-1.83.69c-.39 1.11-2.49 7.19-1.3 7.45a1.35 1.35 0 001.61-1.04q.86-4.08 4.01-6.15 1.81-.3 2.85-1.76a1.2 1.18 56.4 00.18-.95q-1.38-5.81-.77-11.77a1.17 1.17 0 011.27-1.04l4.83.48a1.06 1.04-16.1 01.74.4l1.24 1.54a.7.7 0 00.79.23l3.17-1.14a.53.52 79.7 01.7.49q.01 1.79 1.05 3.12.44.57.46-.15c.15-5.15 4.65-5.25 7.64-7.38q.5-.36-.1-.47-.53-.09-1.07.2-.43.24-.93.25c-7.78.12-3.44-8.91 3.08-9.23a.64.63-6 00.6-.74c-.52-3.06 1.09-5.47-1.38-8.01a.42.42 0 00-.65.06q-.7 1.06-1.24 3.16c-1.47 5.72-8.15 15.12-13.85 4.91q-4.56-8.18-9.28-16.26c-2.59-4.43-1.28-11.56 3.66-13.45q5.48-2.08 11.45-2.4a.84.83 73.1 01.77.42q2.09 3.67 2.58 7.86.14 1.17.51.05 3.61-10.9 8.91-21.07c1.56-2.98 1.48-5.86 1.71-9.08a.99.97-14.6 01.46-.77c6.78-4.3 17.54-4.04 18.48 6.2a1.56 1.56 0 01-.19.92c-2.43 4.35-1.05 16-.88 19.54q.02.49.39.17l15.68-13.71q.39-.34.64-.79l.86-1.55a.98.98 0 01.92-.5l4.43.26.2.88a1.33 1.32 10.2 00.56.8q5.31 3.53 5.06 9.87a1.75 1.72-25.1 01-.38 1.02c-4.24 5.27-1.07 18.84.54 25.31a.44.44 0 00.67.26l2.52-1.68a.66.64-31 00.22-.84c-2.71-5.23-2.54-11.92-2.3-17.68a.62.61 5.1 01.7-.58q5.14.7 9.64 3.22a.69.69 0 01.22 1.02l-.74 1a1.35 1.29-27.3 00-.26.75q-.1 4.12-1.69 7.94a.57.57 0 00.81.71c3.17-1.82 9.14-4.93 12.59-1.81 1.47 1.33 3.33 2.64 4.05 4.51 1.9 4.91.89 11.86 1.34 16.8-2.54.44-2.95 2.25-2.3 4.53q4.12 14.43 4.46 29.46l-.29.01a.34.33 88.3 00-.32.35c.4 13.46 2.04 26.74 3.03 40.15q-.35 2.71.67 5.25.94 8.33 1.12 16.69c.08 3.77 3.74 2.8 3.46.81l.63-.05a.61.61 0 01.62.38l.4.95a.62.61-25.7 00.87.3q3.36-1.89 7.23-2.25a.68.68 0 00.14-1.33l-5.73-1.78a1.48 1.47-85.9 01-1.03-1.19c-.8-5.3-4.82-27.6-2.39-31.28 1.36-2.05 5-3.93 6.97-5.71 2.12-.99.33-2.37-.5-3.25q.71-.1.89-.59a.79.79 0 00-.21-.84c-3.57-3.21-7.54-7.01-8.6-11.91q-1.24-5.71-2.6-11.49a1.05 1.04-33.1 01.19-.89q4.02-5.28 6.44-11.39c2.93-7.44 6.13-14.74 9.05-22.2a.56.56 0 01.9-.22l2.89 2.62a.54.53 48.3 00.67.04q.4-.28.63-.63c4.23 3.16 7.97 6.68 12.21 10.05q6.55 5.2 11.79 11.58a1.36 1.35 41.1 01.11 1.55c-7.83 13.14-18.99 24.22-30.25 34.68q-1.84 1.71.15 3.25l2.31 1.78q11.16 10.61 23.3 19.29a.58.57-49.9 00.75-.07c6.95-7.06 10.18-13.22 15.13-20.36q4.01-6.62 7.24-14.34a.77.77 0 011.46.15q1.06 5.23 4.54 10.12.91-.19 1.44-.56a1.13 1.09 76 00.47-.81c.27-2.79.35-19.12-4.88-18.47q-1.98 3.55-2.5 7.36a.45.45 0 01-.84.15c-4.38-8.48-10.25-15.32-16.43-22.43a2.23 2.23 0 01-.31-2.45q7.15-14.43 5.63-30.31c-.22-2.35-.02-3.3-2.27-4.6q-3.32-1.92-6.74-3.76a1.18 1.18 0 01.31-2.19l2.49-.56a.4.4 0 00.3-.48c-.47-2.11-15.08-7.11-17.82-8.42a1.07 1.07 0 01-.17-1.82q1.7-1.28 3.86-.36 2.06.88.53-.8c-1.8-1.98-12.17-4.34-15.1-4.97a.62.61 16.8 00-.7.37q-.28.69-.05 1.39c-2.52-.51-2.35 8.94-2.32 10.5.03 1.59-.34 15.74-3.18 17.75q-15.35-6.75-30.2-14.5c-1.78-.92-2.77-2.89-2.57-4.74q1.41-12.77-3.16-23.82-.43-1.04.28-3.05.25-.7-.39-.33l-2.67 1.55a.7.69 58.8 00-.23.97l.91 1.43a.85.84 51 01-.1 1.03l-1.22 1.25a.84.83-55 01-.96.17c-.74-.35-2.53-1.65-3.07-.49a.88.88 0 00.1.9c.97 1.32 4.8 3 4.79 3.97a.49.49 0 01-.61.47l-9.63-2.42q-1.77-.44.02-.82l2.73-.59a.65.65 0 00.51-.68c-.07-.94-5.74-2.7-6.74-3.01l-8.32-1.65a.43.43 0 01-.31-.59l.1-.23a.87.86-78.9 01.78-.53c2.35-.07 4 1.21 6 1.36q3.34.25 6.28.08a.78.77 57.1 00.31-1.46q-6.93-3.64-13.59-3.2-1.41.1-5.31-1.78-.71-.34.07-.45l7.52-1.03a.58.58 0 00.15-1.1q-6.31-2.72-13.15-2.79a.61.6 68.1 01-.44-.19l-.22-.23a.24.23 58.6 01.09-.38l3.3-1.2a1.05 1.05 0 00-.13-2.01c-5.1-1.13-9.11.02-14.01-.33a.26.26 0 01-.02-.52q3.03-.35 4.39-3.05a.88.88 0 00-.77-1.28q-3.41-.05-6.88.87c-1.95.52-3.69.32-5.67.55a.57.56 80.9 01-.63-.46c-.15-.77 2.46-2.56 2.9-3.52a.93.93 0 00-1.26-1.23l-7.99 3.99a.48.48 0 01-.7-.45l.07-1.55q.03-.83-.66-.36l-6.63 4.5a.95.94-48.3 01-.97.06l-3.13-1.62a1.08 1.08 0 00-1.56.77q-2.19 12.65-11.06 21.94c-6.35 6.65-10.76 14.11-14.79 22.32q-5.83 11.89-15.01 21.42zm-72.59-36.62a1.66 1.66 0 002.54-.61q2.58-5.6.17-11.26a1.22 1.22 0 01.02-1.01l1.54-3.31q.21-.45.17-.94-.41-5.41-3.3-9.99a.91.91 0 00-1.57.06c-2.79 5.31-4.67 23.05.43 27.06zm173.62-15.99c.4 1.05 7.82 2.99 9.18 3.27a.39.39 0 00.47-.41c-.3-3.35-6.51-3.1-9.11-3.53a.5.49 84.1 00-.54.67zm-24.32 62.4q.34-1.84-.42-3.5c-.79-16.64-1.98-33.31-1.28-49.98.2-4.73-4.87-6.64-7.65-3.38a.57.56 43.8 00.02.75c3.84 4.17 3.62 7.61 3.89 12.91q.77 15.41 1.23 30.83.07 2.37.56 6.08c.64 4.74.58 11.49.82 14.33q.73 8.77 2.54 18.19a.99.98-27 001.64.53q.88-.82.62-2.75-1.6-11.95-1.97-24.01zm1.76-26.73l.12 4.88q.02.91.69.28 7.88-7.52 14.73-15.97a.72.72 0 00-.46-1.17c-3.16-.44-12.54 8.57-14.71 10.98a1.48 1.42 66.3 00-.37 1zm-17.5 8.3c7.77 2.13 5.24-11.86 4.92-15.98a.27.26 53.7 00-.51-.08l-5.5 13.87a1.64 1.64 0 001.09 2.19zm-73.76 7.93l-2.34.02a1.32 1.3 66.5 01-.9-.36q-5.6-5.4-7.72-12.96a.56.55-15.7 00-.69-.38c-4.1 1.2-4.86 4.63-2.31 7.98q3.92 5.13 7.94 10.11a.6.6 0 00.77.14l6.08-3.55q11.82-7.7 17.19-21.06a.96.95 11.6 00-.87-1.31l-7.44-.17a.49.49 0 00-.5.44q-1.4 12.01-9.21 21.1zm114.01-11.36q.64 9.85.79 19.7c.24 15.29.9 28 1.28 42.01.06 2.06.59 4.78 1.94 6q1.48 1.33 1.44-.66c-.37-23.04-.97-45.16-3.45-67.94a.83.82-17.1 00-1.21-.63c-.56.3-.84.84-.79 1.52zm-35.93 6.31l-2.46 4.03a.72.72 0 00.88 1.05q3.11-1.24 2.71-4.83-.19-1.79-1.13-.25zM136.3 355.19c2.21-.57 4.22-1.36 6.51-1.55q6.02-.51 11.94-2.05.49-.13.01-.29-1.88-.6-3.27-.58c-21.7.45-41.01.82-64.38 4.77-7.13 1.2-18.51 3.66-23.51 9.05q-.5.55.24.5 24.35-1.77 47.97-2.78c29.27-1.25 58.46-3.6 87.46-6.51 11.96-1.2 23.88-3.66 35.87-5.7a.53.53 0 00.08-1.03q-8.84-2.9-18.54-2.12-27.27 2.19-54.36 6.03c-4.56.65-10.23.98-15.31 1.81q-5.34.87-10.69.6-.51-.02-.02-.15zm212.66-1.44c-7.14 4.56 1.19 10.99 1.76 16.62.09.93.76 9.15 1.32 9.13a.29.29 0 00.27-.31l-.81-16.98-.94-10.48q-.06-.67-.39-.09l-1.21 2.11zM394.29 373q-1.05 2.43.78 3.74a.39.39 0 00.6-.21q.55-1.86-.92-3.24 2.52 1.25 6.51 4.95c5.41 5.03 15.33 12.39 13.37 17.43-.61 1.58-2.4 2.87-3.67 4.08q-7.08 5.58-14.51 10.03a1.3 1.29 58.7 00-.43 1.79l4.44 7.18 3.25 8.59q3.1-.21 5.32 2.21a1.86 1.85 19.1 01.47.96q.92 5.85 5.99 9.11.45.29.34-.23c-1.02-5.05-1.61-7.27 4.21-9.05a.39.39 0 01.5.34l.75 10.32q-.11 5.38-3.65 9.39a.85.84 53.4 00-.13.91l.85 1.84a.79.78 47.7 01-.03.72q-.44.73-1.11 1.33a.94.94 0 01-1.42-.23c-3.24-5.42-4.38-11.72-9.26-16.39-1.31-1.25-1.74-2.55-2.14-4.2a.86.86 0 00-.72-.65l-2.58-.34a1.49 1.45 69.7 01-.82-.39l-2.08-1.96c-2.53-6.02-6.48-10.94-9.48-16.25-2.49-4.42-6.25-8.67-5.84-13.96q.69-8.93 1.08-19.27a.24.24 0 00-.48-.03q-1.33 10.99-2.38 22.49c-.21 2.32 4.04 8.95 5.18 11.5a.78.78 0 01-.57 1.09q-2.74.52-4.77-1.81c-6.79-7.78-15.05-16.83-13.25-28.08.63-3.9 7.37-7.32 10.62-9.34 2.09-1.3 3.58-.69 4.96 1.08q.7.88.55-.23l-.82-6.34a.83.83 0 00-1.31-.56l-8.28 6.11a.68.67-42.7 01-.85-.03q-4.66-4.07-7.86-9.4a.37.37 0 00-.69.18q-.25 7.77 1.21 15.33.93 4.76-1.79 11.23a.75.74-56.3 00.16.81c7.18 7.23 11.64 15.2 17.87 21.69 1.59 1.65 3.2 1.7 5.34 1.92a1.77 1.74 67.3 01.88.37q4 3.29 6.05 7.98.82 1.87.64 4.61-.15 2.39-.13 4.76 2.38 1.31 3.37 3.13a.67.66-35.5 01-.14.8c-3.69 3.35-8.37 3.48-12.93 4.61a.46.45-29.9 00-.21.77c4.1 4 13.41 6.66 18.79 9.17 3.95 1.85 8.07 2.72 12.24 4.06 1.56.5 3.21-.01 4.69.97a.8.8 0 001.24-.58q1.06-9.54.5-19.06.26-16.08-1.79-32.04c-.61-4.61-2.42-9.45-3.18-13.32-2.9-14.58-2.82-29.2-8.15-41.29a1.45 1.45 0 00-1.96-.72c-3.84 1.9-12.51 6.68-12.89 10.86q-.43 4.81.47 8.76zm-95.96-1.12c-1.91 1.07-2.68 3.64-3.92 5.44a.46.45-41.8 01-.78-.04l-.92-1.7a.4.4 0 00-.66-.07l-2.34 2.77a.7.69 48 00-.04.86q1.88 2.62 4.17.9.41-.3.91-.42l5.53-1.34a.81.78 85.7 00.61-.73l.26-4.88a1.42 1.36 68.9 01.36-.86q2.9-3.16 1.35-7.34-.39-1.04-.84-.03l-3.01 6.69a1.7 1.67-3.3 01-.68.75zm58.86 52.43c1.42 1.35 2.15 2.16 4.28 1.9q7.31-.89 13.85-4.53a.37.37 0 00.08-.59c-7.47-7.11-12.32-15.49-19.92-23.57q-1.9-2.02-.33-4.54a1.27 1.25 54.2 00.15-.97l-.89-3.66a.6.59 53 00-1.1-.16q-2.95 5.27-8.83 6.64a.56.55 79.6 00-.43.63c1.53 10.45 5.31 21.45 13.14 28.85zm86.37 32.21q3.92 1.28 7.92 1.32c5.14.06 10.3 1.57 15.24.27q8.15-2.15 14.36-8.14a.7.7 0 00-.04-1.04l-12.59-10.38a.95.95 0 00-1.2 0q-6.3 5.18-13.05 10.23c-3.37 2.53-7.15 4.44-10.77 6.52q-1.31.75.13 1.22z"/><path fill="#fff" d="M385.46 281.75q1.28-1.3 3.37-2.41 13.35-7.06 26.16-16.52c4.11-3.03 5.78-5.55 8.59-9.74q2.99-4.46 10.15-10.85 19.48-17.39 42.5-29.72c17.08-9.16 35.67-17.38 49.17-30.34 14.22-13.67 18.27-35.61 3.3-50.2q-2.03-1.98-4.23-2.93c-21.7-9.39-80.96 52.15-95.23 67.21q-32.96 34.78-63.64 71.58-3.44 1.78-7.59 2.36-.55.08-.23-.38l1.01-1.42a.78.78 0 00-.22-1.11l-2.27-1.45a.42.42 0 01-.09-.64q9.25-10.37 23.71-25.27 57.33-59.07 121.37-117.38c5.13-4.66 11.96-9.64 18.83-9.58 7.96.07 14.79 6.7 17.35 13.95 8.15 23.04-1 46.99-10.03 68.1-7.63 17.87-15.39 34.06-29.53 46.65-15.97 14.22-38.31 20.86-58.14 27.53-17.06 5.75-32.58 9.99-46.87 15.24a1.29 1.28 45.3 01-.94-.01l-6.5-2.67zm130.42-83.97c-3.03 2.91-5.14 5.23-10.25 8.05q-21.68 11.94-43.53 23.56c-12.51 6.65-25.67 13.88-35.92 23.54q-4.83 4.55-5.08 11.45a.63.63 0 00.48.64q1.19.31 3-.15c21.99-5.51 43.25-12.79 64.5-20.64 15.17-5.61 24.91-21.18 29.56-36.27 1.02-3.31 2.16-9.13-1.91-10.38a.87.86-57.8 00-.85.2z"/><path fill="#989b9d" d="M385.46 281.75l-1.46-.21q-.37-1.8-2.5-1.83c-.37-6-8.33-5.21-13-4.75l.9-3.1a.4.39-72.8 00-.25-.48l-.36-.13q-.53-2.34-3.19-3.42 30.68-36.8 63.64-71.58c14.27-15.06 73.53-76.6 95.23-67.21q2.2.95 4.23 2.93c14.97 14.59 10.92 36.53-3.3 50.2-13.5 12.96-32.09 21.18-49.17 30.34q-23.02 12.33-42.5 29.72-7.16 6.39-10.15 10.85c-2.81 4.19-4.48 6.71-8.59 9.74q-12.81 9.46-26.16 16.52-2.09 1.11-3.37 2.41z"/><path fill="#989b9d" d="M505.63 205.83c5.11-2.82 7.22-5.14 10.25-8.05a.87.86-57.8 01.85-.2c4.07 1.25 2.93 7.07 1.91 10.38-4.65 15.09-14.39 30.66-29.56 36.27-21.25 7.85-42.51 15.13-64.5 20.64q-1.81.46-3 .15a.63.63 0 01-.48-.64q.25-6.9 5.08-11.45c10.25-9.66 23.41-16.89 35.92-23.54q21.85-11.62 43.53-23.56z"/><path d="M155 218.29q.51.42.42.93a.58.58 0 01-.61.49c-5.46-.37-5.19 5.34-4.41 9.33a1.68 1.6 18.8 00.44.84c10.74 11.05 30.53 11.74 44.71 9.75a.51.5-5.9 01.57.46q.04.6-.41.91c-10.27 1.39-39.66.5-45.66-10.16-2.15-3.83-1.89-10.1 2.32-12.78a1.2 1.19 34.8 01.91-.16l1.72.39z"/><path fill="#fff" d="M273.46 246q-.95-.15-1.86.01c-8.76 1.58-26.45 4.94-32.12 12q-2.13 2.65 1.18 1.89l10.86-2.5a.54.54 0 01.43.97c-8.97 6.26-17.57 11.4-21.88 21.69a.69.69 0 001.05.82l7.23-5.53a.51.51 0 01.73.68q-5.79 8.74-8.09 18.93a.59.59 0 00.99.55l9.35-9a.3.3 0 01.5.28q-.45 2.13-1.3 4.07-4.37 9.98-4.55 22.67a.55.55 0 001.01.3q1.61-2.46 3.67-5.23c1.83-2.46 1.72-5.4 3.87-7.73a.7.7 0 011.17.71q-3.87 11.3-2.56 23.23a.53.53 0 00.82.38c2.89-1.95 5.2-9.42 6.69-12.76a.34.34 0 01.64.18l-1.51 12.82a1.57 1.56 2 001.63 1.74c3.03-.13 10.96-11.33 13.52-14.1a.68.68 0 00.09-.8c-4.19-7.14-9.11-17.85-7.67-26.26a.36.36 0 01.67-.11l.44.85q.56 14.61 8.58 26.75l-7.54 15.21-8.29 6.94q-.39.32-.88.42c-3.38.65-6.71-.19-9.16 2.95a.54.53-63.4 01-.56.19l-2.41-.62a.59.59 0 00-.7.37l-.43 1.15a.52.52 0 01-.83.21c-4.76-4.2-3.59-6.94-3.82-12.67a.38.38 0 00-.74-.12l-2.17 5.81a.55.54-44.8 01-1.02 0q-1.84-5.07.26-9.83.37-.83-.27-1.17a.7.7 0 00-.85.14l-2.4 2.59a.43.42-35.7 01-.7-.11c-1.79-3.93-.03-7.92-.45-11.87q-.09-.85-.5-.1l-1.86 3.4a.33.33 0 01-.57.02c-1.65-2.57.82-7.63 1.85-10.55a1.04 1.04 0 00-1.28-1.34l-1.55.47a.64.64 0 01-.75-.32q-.13-.26.09-.67 1.57-2.92 3.35-5.88a.49.49 0 00-.72-.64l-2.54 1.95a.64.63 47.6 01-.83-.04l-.21-.19a.52.51-50.7 01-.06-.66l6.1-8.65q.27-.38-.2-.39l-5.37-.06a.99.99 0 01-.63-1.75l9.08-7.67a.65.65 0 00-.47-1.14l-7.83.61a.76.76 0 01-.68-1.19c2.33-3.3 7.53-5.83 10.9-8.05q.71-.47-.15-.46-4.24.06-8.19 1.47-.77.27-.36-.44c2.31-4.02 9-5.99 13.09-8.16a.71.7-59.5 00-.34-1.33q-3.37.07-6.35 1.71a.46.45 4.7 01-.58-.68c3.44-4.29 8.41-6.12 13.04-8.94q.47-.28-.05-.46-4.26-1.48-8.2.61a.42.42 0 01-.47-.7q4.62-3.89 10.51-4.94a.26.26 0 00.18-.39l-.18-.3a.35.34-11.8 00-.29-.18l-3.45-.22a.41.41 0 01-.1-.8q12.85-4.06 26.24-5.76 1.78-.22.06-.7-2.78-.77-4.18-3.27a.69.69 0 01.56-1.03c5.82-.35 12.03 2 18.9 4.85q.46.19.05.47-3.29 2.23-5.68 5.4z"/><path fill="#989b9d" d="M273.46 246l-.71 1.46q-11.02 12.97-13.71 29.79-.83 4.71-.58 9.5l-.44-.85a.36.36 0 00-.67.11c-1.44 8.41 3.48 19.12 7.67 26.26a.68.68 0 01-.09.8c-2.56 2.77-10.49 13.97-13.52 14.1a1.57 1.56 2 01-1.63-1.74l1.51-12.82a.34.34 0 00-.64-.18c-1.49 3.34-3.8 10.81-6.69 12.76a.53.53 0 01-.82-.38q-1.31-11.93 2.56-23.23a.7.7 0 00-1.17-.71c-2.15 2.33-2.04 5.27-3.87 7.73q-2.06 2.77-3.67 5.23a.55.55 0 01-1.01-.3q.18-12.69 4.55-22.67.85-1.94 1.3-4.07a.3.3 0 00-.5-.28l-9.35 9a.59.59 0 01-.99-.55q2.3-10.19 8.09-18.93a.51.51 0 00-.73-.68l-7.23 5.53a.69.69 0 01-1.05-.82c4.31-10.29 12.91-15.43 21.88-21.69a.54.54 0 00-.43-.97l-10.86 2.5q-3.31.76-1.18-1.89c5.67-7.06 23.36-10.42 32.12-12q.91-.16 1.86-.01z"/><path d="M272.75 247.46l.75.08q1.21.12.42 1.05-11.04 12.97-13.56 29.85a1.05 1.04-8.6 01-.6.8l-.65.3q-.64.3-.29-.31.61-1.06.22-1.98 2.69-16.82 13.71-29.79zM281.21 290c6.77-9.86 12.14-23.04 10.2-35.22-.94-5.86-6.56-3.6-8.63-.23q-3.6 5.9-5.99 11.9c-2.67 6.7-3.43 18.02-1.39 25q-2.85-1.78-2.67-5.09c.57-10.42 1.26-18.21 5.84-27.83 2.22-4.66 4.56-9.17 9.9-7.87a1.23 1.23 0 00.89-.13c1.81-1.05 3.68 2.42 3.95 3.7.76 3.52.98 6.62.02 10.28-2.58 9.79-5.15 17.35-10.64 25.55-.41.61-1.18.78-1.48-.06z"/><path fill="#fff" d="M281.21 290q-2.51 4.03-5.81 1.45c-2.04-6.98-1.28-18.3 1.39-25q2.39-6 5.99-11.9c2.07-3.37 7.69-5.63 8.63.23 1.94 12.18-3.43 25.36-10.2 35.22z"/><path d="M211.5 271.21l1.14.59a.44.44 0 01.13.68q-6.49 7.56-9.51 17.08a.8.79 4.3 01-.62.53q-.83.13-1.43-.09 2.9-10.62 10.29-18.79z"/><path fill="#fafde1" d="M368.79 271.25l.36.13a.4.39-72.8 01.25.48l-.9 3.1-10.52 2.81a.31.3 19.3 01-.26-.54q4.9-3.56 10.69-5.33a.49.47-4.4 00.33-.37l.05-.28z"/><path fill="#989b9d" d="M385.75 304.29q1.33 2.09.71 4.46l-4.43-.26a.98.98 0 00-.92.5l-.86 1.55q-.25.45-.64.79l-15.68 13.71q-.37.32-.39-.17c-.17-3.54-1.55-15.19.88-19.54a1.56 1.56 0 00.19-.92c-.94-10.24-11.7-10.5-18.48-6.2a.99.97-14.6 00-.46.77c-.23 3.22-.15 6.1-1.71 9.08q-5.3 10.17-8.91 21.07-.37 1.12-.51-.05-.49-4.19-2.58-7.86a.84.83 73.1 00-.77-.42q-5.97.32-11.45 2.4c-4.94 1.89-6.25 9.02-3.66 13.45q4.72 8.08 9.28 16.26c5.7 10.21 12.38.81 13.85-4.91q.54-2.1 1.24-3.16a.42.42 0 01.65-.06c2.47 2.54.86 4.95 1.38 8.01a.64.63-6 01-.6.74c-6.52.32-10.86 9.35-3.08 9.23q.5-.01.93-.25.54-.29 1.07-.2.6.11.1.47c-2.99 2.13-7.49 2.23-7.64 7.38q-.02.72-.46.15-1.04-1.33-1.05-3.12a.53.52 79.7 00-.7-.49l-3.17 1.14a.7.7 0 01-.79-.23l-1.24-1.54a1.06 1.04-16.1 00-.74-.4l-4.83-.48a1.17 1.17 0 00-1.27 1.04q-.61 5.96.77 11.77a1.2 1.18 56.4 01-.18.95q-1.04 1.46-2.85 1.76l-.75-.92.68-.26a.88.87-7.2 00.56-.72q.75-6.73-.31-13.44c-.29-1.84-1.25-2.59-3.04-2.08a.86.86 0 00-.62.74l-.73 7.72q-.06.62-.53.2c-2.25-2 1.9-10.38-1.99-13.55a.63.62 41.7 00-.83.04l-1.01.99a.52.52 0 01-.76-.04q-.28-.33-.23-.89.38-4.14-2.09-7.31a1.52 1.49-65.8 01-.32-.87l-.11-3.07q-.04-1.19-.98-.45l-4.18 3.34a.55.55 0 01-.75-.06q-.93-1.02-.21-2.53a1.06 1.06 0 00-1.18-1.49c-4.99 1.09-7.59 3.71-12.08 7.69q-1.31-1.92-.18-4.01a.51.5 29.7 00-.19-.68q-.18-.1-.42-.1 9.18-9.53 15.01-21.42c4.03-8.21 8.44-15.67 14.79-22.32q8.87-9.29 11.06-21.94a1.08 1.08 0 011.56-.77l3.13 1.62a.95.94-48.3 00.97-.06l6.63-4.5q.69-.47.66.36l-.07 1.55a.48.48 0 00.7.45l7.99-3.99a.93.93 0 011.26 1.23c-.44.96-3.05 2.75-2.9 3.52a.57.56 80.9 00.63.46c1.98-.23 3.72-.03 5.67-.55q3.47-.92 6.88-.87a.88.88 0 01.77 1.28q-1.36 2.7-4.39 3.05a.26.26 0 00.02.52c4.9.35 8.91-.8 14.01.33a1.05 1.05 0 01.13 2.01l-3.3 1.2a.24.23 58.6 00-.09.38l.22.23a.61.6 68.1 00.44.19q6.84.07 13.15 2.79a.58.58 0 01-.15 1.1l-7.52 1.03q-.78.11-.07.45 3.9 1.88 5.31 1.78 6.66-.44 13.59 3.2a.78.77 57.1 01-.31 1.46q-2.94.17-6.28-.08c-2-.15-3.65-1.43-6-1.36a.87.86-78.9 00-.78.53l-.1.23a.43.43 0 00.31.59l8.32 1.65z"/><path fill="#fff" d="M381.5 279.71q2.13.03 2.5 1.83l-5.95-.55q-.54-.05-.16-.44 1.33-1.36 3.61-.84zM211.91 312.34c-5.1-4.01-3.22-21.75-.43-27.06a.91.91 0 011.57-.06q2.89 4.58 3.3 9.99.04.49-.17.94l-1.54 3.31a1.22 1.22 0 00-.02 1.01q2.41 5.66-.17 11.26a1.66 1.66 0 01-2.54.61zM394.71 299.62c-1.36-.28-8.78-2.22-9.18-3.27a.5.49 84.1 01.54-.67c2.6.43 8.81.18 9.11 3.53a.39.39 0 01-.47.41z"/><path fill="#222120" d="M590.79 297.25l.21.06V591h-.56l.17-.21a.37.36 64.9 00.08-.23l.1-293.31z"/><path fill="#fff" d="M360.79 355.25q-.34 1.84.42 3.5.37 12.06 1.97 24.01.26 1.93-.62 2.75a.99.98-27 01-1.64-.53q-1.81-9.42-2.54-18.19c-.24-2.84-.18-9.59-.82-14.33q-.49-3.71-.56-6.08-.46-15.42-1.23-30.83c-.27-5.3-.05-8.74-3.89-12.91a.57.56 43.8 01-.02-.75c2.78-3.26 7.85-1.35 7.65 3.38-.7 16.67.49 33.34 1.28 49.98zM437.96 347l1.98 1.02a.41.4-71.1 00.58-.29q2.69-14.36 2.94-28.98-.23-.7.05-1.39a.62.61 16.8 01.7-.37c2.93.63 13.3 2.99 15.1 4.97q1.53 1.68-.53.8-2.16-.92-3.86.36a1.07 1.07 0 00.17 1.82c2.74 1.31 17.35 6.31 17.82 8.42a.4.4 0 01-.3.48l-2.49.56a1.18 1.18 0 00-.31 2.19q3.42 1.84 6.74 3.76c2.25 1.3 2.05 2.25 2.27 4.6q1.52 15.88-5.63 30.31a2.23 2.23 0 00.31 2.45c6.18 7.11 12.05 13.95 16.43 22.43a.45.45 0 00.84-.15q.52-3.81 2.5-7.36 4.53 9.41 2.97 19.84-3.48-4.89-4.54-10.12a.77.77 0 00-1.46-.15q-3.23 7.72-7.24 14.34-19.55 1.09-39.18 1.14l-2.31-1.78q-1.99-1.54-.15-3.25c11.26-10.46 22.42-21.54 30.25-34.68a1.36 1.35 41.1 00-.11-1.55q-5.24-6.38-11.79-11.58c-4.24-3.37-7.98-6.89-12.21-10.05l-6.24-5.6q-.33-.3-.35.14-.2 3.84-2.37 8.98-4.19 9.93-8.31 19.89-1.5 3.63-5.35 6.79a.76.76 0 00-.26.79q1.8 6.71 3.01 13.54c.89 5.01 5.06 8.65 9.62 12.97.83.88 2.62 2.26.5 3.25-5.73-.11-7.14-2.57-11.47-4.5-2.09-16.93-3.7-33.88-6.07-50.79-.45-4.94.56-11.89-1.34-16.8-.72-1.87-2.58-3.18-4.05-4.51-3.45-3.12-9.42-.01-12.59 1.81a.57.57 0 01-.81-.71q1.59-3.82 1.69-7.94a1.35 1.29-27.3 01.26-.75l.74-1a.69.69 0 00-.22-1.02q-4.5-2.52-9.64-3.22a.62.61 5.1 00-.7.58c-.24 5.76-.41 12.45 2.3 17.68a.66.64-31 01-.22.84l-2.52 1.68a.44.44 0 01-.67-.26c-1.61-6.47-4.78-20.04-.54-25.31a1.75 1.72-25.1 00.38-1.02q.25-6.34-5.06-9.87a1.33 1.32 10.2 01-.56-.8l-.2-.88q.62-2.37-.71-4.46c1 .31 6.67 2.07 6.74 3.01a.65.65 0 01-.51.68l-2.73.59q-1.79.38-.02.82l9.63 2.42a.49.49 0 00.61-.47c.01-.97-3.82-2.65-4.79-3.97a.88.88 0 01-.1-.9c.54-1.16 2.33.14 3.07.49a.84.83-55 00.96-.17l1.22-1.25a.85.84 51 00.1-1.03l-.91-1.43a.7.69 58.8 01.23-.97l2.67-1.55q.64-.37.39.33-.71 2.01-.28 3.05 4.57 11.05 3.16 23.82c-.2 1.85.79 3.82 2.57 4.74q14.85 7.75 30.2 14.5z"/><path d="M221.75 340.04q-15.51-12.35-20.75-31.5l1.05-.6a.45.45 0 01.65.25q3.55 10.56 5.16 13.22 5.86 9.65 14.64 16.72a.77.77 0 01.26.81q-.22.77-1.01 1.1z"/><path fill="#989b9d" d="M267.04 313.5q3.66 4.45 8.02 7.57a.69.69 0 01-.21 1.22q-8.38 2.35-15.35 6.42l7.54-15.21z"/><path d="M443.46 318.75q-.25 14.62-2.94 28.98a.41.4-71.1 01-.58.29l-1.98-1.02c2.84-2.01 3.21-16.16 3.18-17.75-.03-1.56-.2-11.01 2.32-10.5z"/><path fill="#fff" d="M363.34 331.02c2.17-2.41 11.55-11.42 14.71-10.98a.72.72 0 01.46 1.17q-6.85 8.45-14.73 15.97-.67.63-.69-.28l-.12-4.88a1.48 1.42 66.3 01.37-1z"/><path fill="#989b9d" d="M345.47 340.32a1.64 1.64 0 01-1.09-2.19l5.5-13.87a.27.26 53.7 01.51.08c.32 4.12 2.85 18.11-4.92 15.98zM272.54 349.25l-.83-1q7.81-9.09 9.21-21.1a.49.49 0 01.5-.44l7.44.17a.96.95 11.6 01.87 1.31q-5.37 13.36-17.19 21.06z"/><path fill="#fff" d="M271.71 348.25l.83 1-6.08 3.55a.6.6 0 01-.77-.14q-4.02-4.98-7.94-10.11c-2.55-3.35-1.79-6.78 2.31-7.98a.56.55-15.7 01.69.38q2.12 7.56 7.72 12.96a1.32 1.3 66.5 00.9.36l2.34-.02zM385.72 336.89c-.05-.68.23-1.22.79-1.52a.83.82-17.1 011.21.63c2.48 22.78 3.08 44.9 3.45 67.94q.04 1.99-1.44.66c-1.35-1.22-1.88-3.94-1.94-6-.38-14.01-1.04-26.72-1.28-42.01q-.15-9.85-.79-19.7z"/><path fill="#fafde1" d="M349.79 343.2q.94-1.54 1.13.25.4 3.59-2.71 4.83a.72.72 0 01-.88-1.05l2.46-4.03z"/><path fill="#fff" d="M136.32 355.34q5.35.27 10.69-.6c5.08-.83 10.75-1.16 15.31-1.81q27.09-3.84 54.36-6.03 9.7-.78 18.54 2.12a.53.53 0 01-.08 1.03c-11.99 2.04-23.91 4.5-35.87 5.7-29 2.91-58.19 5.26-87.46 6.51q-23.62 1.01-47.97 2.78-.74.05-.24-.5c5-5.39 16.38-7.85 23.51-9.05 23.37-3.95 42.68-4.32 64.38-4.77q1.39-.02 3.27.58.48.16-.01.29-5.92 1.54-11.94 2.05c-2.29.19-4.3.98-6.51 1.55q-.49.13.02.15z"/><path d="M447.5 354.79q-.23.35-.63.63a.54.53 48.3 01-.67-.04l-2.89-2.62a.56.56 0 00-.9.22c-2.92 7.46-6.12 14.76-9.05 22.2q-2.42 6.11-6.44 11.39a1.05 1.04-33.1 00-.19.89q1.36 5.78 2.6 11.49c1.06 4.9 5.03 8.7 8.6 11.91a.79.79 0 01.21.84q-.18.49-.89.59c-4.56-4.32-8.73-7.96-9.62-12.97q-1.21-6.83-3.01-13.54a.76.76 0 01.26-.79q3.85-3.16 5.35-6.79 4.12-9.96 8.31-19.89 2.17-5.14 2.37-8.98.02-.44.35-.14l6.24 5.6z"/><path fill="#fff" d="M284.5 348.96q.24 0 .42.1a.51.5 29.7 01.19.68q-1.13 2.09.18 4.01l-1.72 2.18a.51.5 39.1 01-.72.07c-2.86-2.37-.49-5.45 1.65-7.04zM351.5 362.21q-.6.13-.98.07a.53.53 0 01-.45-.62q.75-4.14-1.11-7.91l1.21-2.11q.33-.58.39.09l.94 10.48zM420 408.71l-9.04-8.96c1.27-1.21 3.06-2.5 3.67-4.08 1.96-5.04-7.96-12.4-13.37-17.43q-3.99-3.7-6.51-4.95l-.46-.29q-.9-3.95-.47-8.76c.38-4.18 9.05-8.96 12.89-10.86a1.45 1.45 0 011.96.72c5.33 12.09 5.25 26.71 8.15 41.29.76 3.87 2.57 8.71 3.18 13.32z"/><path fill="#989b9d" d="M348.96 353.75q1.86 3.77 1.11 7.91a.53.53 0 00.45.62q.38.06.98-.07l.81 16.98a.29.29 0 01-.27.31c-.56.02-1.23-8.2-1.32-9.13-.57-5.63-8.9-12.06-1.76-16.62zM360.79 355.25q.76 1.66.42 3.5-.76-1.66-.42-3.5z"/><path d="M420.21 360.25c2.37 16.91 3.98 33.86 6.07 50.79q2.64 19.67 4.38 39.47.05.62-1.12.52c-1.84-19.04-5.56-37.78-7.17-56.79q-.34-15.03-4.46-29.46c-.65-2.28-.24-4.09 2.3-4.53z"/><path fill="#fff" d="M299.01 371.13l3.01-6.69q.45-1.01.84.03 1.55 4.18-1.35 7.34a1.42 1.36 68.9 00-.36.86l-.26 4.88a.81.78 85.7 01-.61.73l-5.53 1.34q-.5.12-.91.42-2.29 1.72-4.17-.9a.7.69 48 01.04-.86l2.34-2.77a.4.4 0 01.66.07l.92 1.7a.46.45-41.8 00.78.04c1.24-1.8 2.01-4.37 3.92-5.44a1.7 1.67-3.3 00.68-.75z"/><path fill="#989b9d" d="M398.2 431.03q-2.67 1.63-2.57 5.21.01.51-1.39.64-.02-2.37.13-4.76.18-2.74-.64-4.61-2.05-4.69-6.05-7.98a1.77 1.74 67.3 00-.88-.37c-2.14-.22-3.75-.27-5.34-1.92-6.23-6.49-10.69-14.46-17.87-21.69a.75.74-56.3 01-.16-.81q2.72-6.47 1.79-11.23-1.46-7.56-1.21-15.33a.37.37 0 01.69-.18q3.2 5.33 7.86 9.4a.68.67-42.7 00.85.03l8.28-6.11a.83.83 0 011.31.56l.82 6.34q.15 1.11-.55.23c-1.38-1.77-2.87-2.38-4.96-1.08-3.25 2.02-9.99 5.44-10.62 9.34-1.8 11.25 6.46 20.3 13.25 28.08q2.03 2.33 4.77 1.81a.78.78 0 00.57-1.09c-1.14-2.55-5.39-9.18-5.18-11.5q1.05-11.5 2.38-22.49a.24.24 0 01.48.03q-.39 10.34-1.08 19.27c-.41 5.29 3.35 9.54 5.84 13.96 3 5.31 6.95 10.23 9.48 16.25zM394.29 373l.46.29q1.47 1.38.92 3.24a.39.39 0 01-.6.21q-1.83-1.31-.78-3.74z"/><path d="M263.25 374.29c2.75-.31 2.62 6.85 3.23 8.97.39 1.35.11 2.53.29 3.72 1.86 12.01 3.69 25.14 1.44 37.18-.72 3.86-.46 7.43-.55 11.24-.11 4.89-3.37 5.25-4.98 9a.43.42-60.7 01-.63.18q-1.04-.71-1.09-2.08l4.27-5.23a1.58 1.58 0 00.35-.87c.3-3.65-.04-6.88.78-10.49 2.09-9.29 1.61-19.34.27-29.18q-1.52-11.24-3.38-22.44zM273.32 374.93q2.41 11.92 3.13 23.94c.07 1.14.75 2.47.79 3.38q.37 8.24.3 16.5-.27.41-.83.47a.5.5 0 01-.55-.47c-.3-4.7-.07-9.42-.59-13.96q-.82-7.15-1.36-14.32-.07-.99-1.05-6.86-.73-4.34.16-8.68z"/><path fill="#fff" d="M316 379.79l.75.92q-3.15 2.07-4.01 6.15a1.35 1.35 0 01-1.61 1.04c-1.19-.26.91-6.34 1.3-7.45a1.28 1.28 0 011.83-.69q.58.33 1.74.03z"/><path d="M283 382.79l.47-.04a.77.76 73.3 01.75.41q1.7 3.23 1.79 6.09c.35 10.58 1.71 19.41 2.2 29.19q.36 6.98 1.29 12.3.37 2.14-1.46 2.26c-.14-3.01-.92-5.86-1.06-8.77-.62-13.41-2.25-27.71-3.98-41.44zM292.46 386.25q.22 5.92.75 11.81c1.18 13.15 1.63 26.09 3.58 39.19q.13 1.03-.53 1.78a.59.59 0 01-1.03-.33c-.73-7.57-2.09-14.62-2.19-22.28q-.2-13.81-2.8-26.65-.68-3.33 2.22-3.52z"/><path fill="#989b9d" d="M357.19 424.31c-7.83-7.4-11.61-18.4-13.14-28.85a.56.55 79.6 01.43-.63q5.88-1.37 8.83-6.64a.6.59 53 011.1.16l.89 3.66a1.27 1.25 54.2 01-.15.97q-1.57 2.52.33 4.54c7.6 8.08 12.45 16.46 19.92 23.57a.37.37 0 01-.08.59q-6.54 3.64-13.85 4.53c-2.13.26-2.86-.55-4.28-1.9z"/><path d="M496.24 412.47q1.56-10.43-2.97-19.84c5.23-.65 5.15 15.68 4.88 18.47a1.13 1.09 76 01-.47.81q-.53.37-1.44.56z"/><path fill="#fff" d="M422.37 394.24c1.61 19.01 5.33 37.75 7.17 56.79q1 3.2.5 6.47c.28 1.99-3.38 2.96-3.46-.81q-.18-8.36-1.12-16.69.49-2.77-.67-5.25c-.99-13.41-2.63-26.69-3.03-40.15a.34.33 88.3 01.32-.35l.29-.01z"/><path fill="#989b9d" d="M410.96 399.75l9.04 8.96q2.05 15.96 1.79 32.04l-.5.25-.75-10.32a.39.39 0 00-.5-.34c-5.82 1.78-5.23 4-4.21 9.05q.11.52-.34.23-5.07-3.26-5.99-9.11a1.86 1.85 19.1 00-.47-.96q-2.22-2.42-5.32-2.21-.3-5.15-2.02-8.53-.44-.87-1.23-.06l-4.44-7.18a1.3 1.29 58.7 01.43-1.79q7.43-4.45 14.51-10.03zM426.28 411.04c4.33 1.93 5.74 4.39 11.47 4.5-1.97 1.78-5.61 3.66-6.97 5.71-2.43 3.68 1.59 25.98 2.39 31.28a1.48 1.47-85.9 001.03 1.19l5.73 1.78a.68.68 0 01-.14 1.33q-3.87.36-7.23 2.25a.62.61-25.7 01-.87-.3l-.4-.95a.61.61 0 00-.62-.38l-.63.05q.5-3.27-.5-6.47 1.17.1 1.12-.52-1.74-19.8-4.38-39.47zM483 416.54c-4.95 7.14-8.18 13.3-15.13 20.36a.58.57-49.9 01-.75.07q-12.14-8.68-23.3-19.29 19.63-.05 39.18-1.14z"/><path fill="#fff" d="M403.71 427.34l-3.25-8.59q.79-.81 1.23.06 1.72 3.38 2.02 8.53z"/><path fill="#989b9d" d="M398.2 431.03l2.08 1.96a1.49 1.45 69.7 00.82.39l2.58.34a.86.86 0 01.72.65c.4 1.65.83 2.95 2.14 4.2 4.88 4.67 6.02 10.97 9.26 16.39a.94.94 0 001.42.23q.67-.6 1.11-1.33a.79.78 47.7 00.03-.72l-.85-1.84a.85.84 53.4 01.13-.91q3.54-4.01 3.65-9.39l.5-.25q.56 9.52-.5 19.06a.8.8 0 01-1.24.58c-1.48-.98-3.13-.47-4.69-.97-4.17-1.34-8.29-2.21-12.24-4.06-5.38-2.51-14.69-5.17-18.79-9.17a.46.45-29.9 01.21-.77c4.56-1.13 9.24-1.26 12.93-4.61a.67.66-35.5 00.14-.8q-.99-1.82-3.37-3.13 1.4-.13 1.39-.64-.1-3.58 2.57-5.21zM424.79 434.75q1.16 2.48.67 5.25-1.02-2.54-.67-5.25zM443.56 456.52q-1.44-.47-.13-1.22c3.62-2.08 7.4-3.99 10.77-6.52q6.75-5.05 13.05-10.23a.95.95 0 011.2 0l12.59 10.38a.7.7 0 01.04 1.04q-6.21 5.99-14.36 8.14c-4.94 1.3-10.1-.21-15.24-.27q-4-.04-7.92-1.32z"/><path fill="#222120" d="M0 590.44c1.06.82 20.78.38 25.94.56H0v-.56zM30.44 591h-4.25q2.12-.63 4.25 0zM80.94 591H50.19q15.37-.63 30.75 0zM111.94 591H98.19q6.87-.63 13.75 0zM118.94 591h-5.75q2.87-.63 5.75 0zM152.94 591h-6.75q3.37-.63 6.75 0zM159.94 591h-6.75q3.37-.63 6.75 0zM165.94 591h-4.75q2.37-.63 4.75 0zM176.94 591h-7.75q3.87-.63 7.75 0zM220.94 591h-43.75q21.87-.63 43.75 0zM239.94 591h-5.25q2.62-.63 5.25 0zM248.94 591h-6.75q3.37-.63 6.75 0zM272.94 591h-6.75q3.37-.63 6.75 0zM288.94 591h-14.75q7.37-.63 14.75 0zM294.94 591h-4.75q2.37-.63 4.75 0zM319.94 591h-5.75q2.87-.63 5.75 0zM327.94 591h-7.75q3.87-.63 7.75 0zM343.94 591h-15.75q7.87-.63 15.75 0zM351.94 591h-5.75q2.87-.63 5.75 0zM359.94 591h-5.75q2.87-.63 5.75 0zM366.94 591h-4.75q2.37-.63 4.75 0zM401.94 591h-21.75q10.87-.63 21.75 0zM412.94 591h-8.75q4.37-.63 8.75 0zM436.94 591h-4.75q2.37-.63 4.75 0zM488.94 591h-50.75q25.37-.63 50.75 0zM527.94 591h-21.25q10.62-.63 21.25 0zM535.94 591h-7.75q3.87-.63 7.75 0zM543.94 591h-7.75q3.87-.63 7.75 0zM558.94 591h-12.75q6.37-.63 12.75 0zM589.94 591h-13.75q6.87-.63 13.75 0z"/></svg>