<svg xmlns="http://www.w3.org/2000/svg" viewBox="0 0 76 76"><g stroke-width="2" fill="none"><path stroke="#ffeb41" vector-effect="non-scaling-stroke" d="M46.54 1.75q-1.08.99-1.59 2.62-.17.52.37.61 2.75.49 4.73 2.48.98.99-.3.44-16.19-6.89-30.96 2.6"/><path stroke="#fff597" vector-effect="non-scaling-stroke" d="M18.79 10.5l.96-2.21"/><path stroke="#fff8b6" vector-effect="non-scaling-stroke" d="M19.75 8.29q3.38-2.09 7.26-2.98.52-.12.45-.65L27 1.29"/><path stroke="#fffacc" vector-effect="non-scaling-stroke" d="M19.75 8.29q-8.63 4.99-12.69 14.04-.2.46-.66.66-1.81.79-3.69-.24"/><path stroke="#fcda00" vector-effect="non-scaling-stroke" d="M57.79 7.5q-1.21.98-1.73 2.48-.17.49.13.91c1.83 2.61 4.42 4.69 5.95 7.18q1.84 2.99 3.4 6.18"/><path stroke="#f8cd00" vector-effect="non-scaling-stroke" d="M65.54 24.25q6.98 21.75-9.7 36.02c-.74.63-1.84.95-2.55 1.73q-1.12 1.21-1.61 1.5c-13.17 7.91-30.38 4.16-40.16-7.38a1.03 1.03 0 00-1.56-.02q-.87.99-2.14.97-.32-.01-.52-.25-.3-.37-.8-.53"/><path stroke="#ffeb41" vector-effect="non-scaling-stroke" d="M1.5 45.54c1.15.06 2.37-1.04 3.12-.73q.51.21.47.76-.16 2.31 1.61 3.66a.53.53 0 00.81-.63Q4.55 41.58 4.96 34"/><path stroke="#ffee57" vector-effect="non-scaling-stroke" d="M4.96 34q2.05-14.69 13.83-23.5"/><path stroke="#807200" vector-effect="non-scaling-stroke" d="M35.51 26.36c-.03-3.29.67-9.14-.81-11.84-1.88-3.42-7.41-2.86-9.11.4-2.17 4.15-.81 19.69-.64 24.95a.41.41 0 01-.73.28q-2.47-2.9-5.36-5.25c-4.91-4-12.03 2.7-6.9 7.88 8.73 8.82 22.48 25.58 37.72 16.93 9.28-5.27 7.98-13.53 8.08-22.9.04-4.57-2.1-7.22-6.82-6.38q-.51.09-.76-.36-2.87-5.13-8.48-2.5-.57.26-1.11-.07-2.03-1.23-4.34-.58-.73.2-.74-.56"/><path stroke="#877202" stroke-opacity=".925" vector-effect="non-scaling-stroke" d="M66.5 16.79l2.29 4.46"/><path stroke="#f5c200" vector-effect="non-scaling-stroke" d="M68.79 21.25q-.83 1.07-2.21 1.22-.55.06-.7.59l-.34 1.19"/><path stroke="#fff597" vector-effect="non-scaling-stroke" d="M4.96 34q-2.27 2.45-5.08.62"/><path stroke="gray" vector-effect="non-scaling-stroke" d="M27.98 48.22q-5.37-5-10.47-10.26c-1.27-1.3-2.67-1.29-3.74.18a1.3 1.29-49.9 00.14 1.69q6.48 6.28 13.05 12.71c7.16 7.01 20.96 9.18 26-1.07 2.12-4.31 1.3-10.96 1.27-15.96-.02-3.23-4.52-2.6-3.65.74q.19.75-.58.75h-2.56q-.7 0-.69-.7c.01-1.54.86-6.98-2.15-6.26a1.77 1.77 0 00-1.35 1.72v4.62q0 .63-.63.63l-2.48-.03q-.64 0-.64-.65v-4.54q0-.44-.24-.81-1.07-1.64-2.91-.55-.5.3-.53.88l-.31 5.09q-.03.58-.62.57l-1.96-.06q-.69-.02-.68-.71.01-9.12 0-18.24c0-1.74-1.02-2.4-2.65-2.2a1.26 1.26 0 00-1.1 1.25v30.98q0 .72-.52.23"/><path stroke="#836402" stroke-opacity=".925" vector-effect="non-scaling-stroke" d="M69.46 22.5l-.67-1.25"/><path stroke="#a07800" stroke-opacity=".753" vector-effect="non-scaling-stroke" d="M15.79 66c29.69 18.52 66.38-9.4 53.67-43.5"/></g><path fill="#fff281" d="M34.31 0h3.5q4.47.38 8.73 1.75-1.08.99-1.59 2.62-.17.52.37.61 2.75.49 4.73 2.48.98.99-.3.44-16.19-6.89-30.96 2.6l.96-2.21q3.38-2.09 7.26-2.98.52-.12.45-.65L27 1.29 34.31 0z"/><path fill="#fffdea" d="M27 1.29l.46 3.37q.07.53-.45.65-3.88.89-7.26 2.98-8.63 4.99-12.69 14.04-.2.46-.66.66-1.81.79-3.69-.24Q9.53 6.05 27 1.29z"/><path fill="#ffe400" d="M46.54 1.75q6.21 1.74 11.25 5.75-1.21.98-1.73 2.48-.17.49.13.91c1.83 2.61 4.42 4.69 5.95 7.18q1.84 2.99 3.4 6.18 6.98 21.75-9.7 36.02c-.74.63-1.84.95-2.55 1.73q-1.12 1.21-1.61 1.5c-13.17 7.91-30.38 4.16-40.16-7.38a1.03 1.03 0 00-1.56-.02q-.87.99-2.14.97-.32-.01-.52-.25-.3-.37-.8-.53-3.66-4.84-5-10.75c1.15.06 2.37-1.04 3.12-.73q.51.21.47.76-.16 2.31 1.61 3.66a.53.53 0 00.81-.63Q4.55 41.58 4.96 34q2.05-14.69 13.83-23.5 14.77-9.49 30.96-2.6 1.28.55.3-.44-1.98-1.99-4.73-2.48-.54-.09-.37-.61.51-1.63 1.59-2.62zM35.51 26.36c-.03-3.29.67-9.14-.81-11.84-1.88-3.42-7.41-2.86-9.11.4-2.17 4.15-.81 19.69-.64 24.95a.41.41 0 01-.73.28q-2.47-2.9-5.36-5.25c-4.91-4-12.03 2.7-6.9 7.88 8.73 8.82 22.48 25.58 37.72 16.93 9.28-5.27 7.98-13.53 8.08-22.9.04-4.57-2.1-7.22-6.82-6.38q-.51.09-.76-.36-2.87-5.13-8.48-2.5-.57.26-1.11-.07-2.03-1.23-4.34-.58-.73.2-.74-.56z"/><path fill="#f9cf00" d="M57.79 7.5q5.22 3.83 8.71 9.29l2.29 4.46q-.83 1.07-2.21 1.22-.55.06-.7.59l-.34 1.19q-1.56-3.19-3.4-6.18c-1.53-2.49-4.12-4.57-5.95-7.18q-.3-.42-.13-.91.52-1.5 1.73-2.48z"/><path fill="#fef7ad" d="M19.75 8.29l-.96 2.21Q7.01 19.31 4.96 34q-2.27 2.45-5.08.62.18-.65.12-.93.57-5.68 2.71-10.94 1.88 1.03 3.69.24.46-.2.66-.66 4.06-9.05 12.69-14.04z"/><path d="M36.25 26.92q2.31-.65 4.34.58.54.33 1.11.07 5.61-2.63 8.48 2.5.25.45.76.36c4.72-.84 6.86 1.81 6.82 6.38-.1 9.37 1.2 17.63-8.08 22.9-15.24 8.65-28.99-8.11-37.72-16.93-5.13-5.18 1.99-11.88 6.9-7.88q2.89 2.35 5.36 5.25a.41.41 0 00.73-.28c-.17-5.26-1.53-20.8.64-24.95 1.7-3.26 7.23-3.82 9.11-.4 1.48 2.7.78 8.55.81 11.84q.01.76.74.56zm-8.27 21.3q-5.37-5-10.47-10.26c-1.27-1.3-2.67-1.29-3.74.18a1.3 1.29-49.9 00.14 1.69q6.48 6.28 13.05 12.71c7.16 7.01 20.96 9.18 26-1.07 2.12-4.31 1.3-10.96 1.27-15.96-.02-3.23-4.52-2.6-3.65.74q.19.75-.58.75h-2.56q-.7 0-.69-.7c.01-1.54.86-6.98-2.15-6.26a1.77 1.77 0 00-1.35 1.72v4.62q0 .63-.63.63l-2.48-.03q-.64 0-.64-.65v-4.54q0-.44-.24-.81-1.07-1.64-2.91-.55-.5.3-.53.88l-.31 5.09q-.03.58-.62.57l-1.96-.06q-.69-.02-.68-.71.01-9.12 0-18.24c0-1.74-1.02-2.4-2.65-2.2a1.26 1.26 0 00-1.1 1.25v30.98q0 .72-.52.23z"/><path fill="#fff" d="M28.5 47.99V17.01a1.26 1.26 0 011.1-1.25c1.63-.2 2.65.46 2.65 2.2q.01 9.12 0 18.24-.01.69.68.71l1.96.06q.59.01.62-.57l.31-5.09q.03-.58.53-.88 1.84-1.09 2.91.55.24.37.24.81v4.54q0 .65.64.65l2.48.03q.63 0 .63-.63v-4.62a1.77 1.77 0 011.35-1.72c3.01-.72 2.16 4.72 2.15 6.26q-.01.7.69.7H50q.77 0 .58-.75c-.87-3.34 3.63-3.97 3.65-.74.03 5 .85 11.65-1.27 15.96-5.04 10.25-18.84 8.08-26 1.07q-6.57-6.43-13.05-12.71a1.3 1.29-49.9 01-.14-1.69c1.07-1.47 2.47-1.48 3.74-.18q5.1 5.26 10.47 10.26.52.49.52-.23z"/><path fill="#020404" fill-opacity=".851" d="M66.5 16.79q2.16 1.67 3.25 4.17l-.29 1.54-.67-1.25-2.29-4.46z"/><path fill-opacity=".506" d="M69.75 20.96l1 1.25 1.76 5.47q.14.42.49.16l.46-.34q2.08 4.94 2.54 10.31v5.25C73.41 62.97 57.99 76.52 37.94 76l-1.73-.11q-4.64-.48-8.71-2.6-2.4-2.36-5.75-2.83-3.42-1.64-5.96-4.46c29.69 18.52 66.38-9.4 53.67-43.5l.29-1.54z"/><path fill="#f1b500" d="M68.79 21.25l.67 1.25C82.17 56.6 45.48 84.52 15.79 66q-5.53-4.01-9.29-9.71.5.16.8.53.2.24.52.25 1.27.02 2.14-.97a1.03 1.03 0 011.56.02c9.78 11.54 26.99 15.29 40.16 7.38q.49-.29 1.61-1.5c.71-.78 1.81-1.1 2.55-1.73Q72.52 46 65.54 24.25l.34-1.19q.15-.53.7-.59 1.38-.15 2.21-1.22z"/><path fill="#020404" fill-opacity=".851" d="M70.75 22.21l2.71 5.29-.46.34q-.35.26-.49-.16l-1.76-5.47z"/><path fill="#fff281" d="M4.96 34q-.41 7.58 2.55 14.6a.53.53 0 01-.81.63q-1.77-1.35-1.61-3.66.04-.55-.47-.76c-.75-.31-1.97.79-3.12.73q-1.28-4.2-1.5-8.6l-.12-2.32q2.81 1.83 5.08-.62z"/><path fill="#020404" fill-opacity=".851" d="M27.5 73.29q-3.14-.88-5.75-2.83 3.35.47 5.75 2.83z"/></svg>