<svg xmlns="http://www.w3.org/2000/svg" viewBox="0 0 591 591"><g stroke-width="2" fill="none"><path stroke="#0e0d0e" vector-effect="non-scaling-stroke" d="M590.06 0l.19.29"/><path stroke="#7f7e6f" vector-effect="non-scaling-stroke" d="M590.25.29v589.46a.5.49 0 01-.5.49q-293.79.03-587.58-.01c-.57 0-1.25-.28-1.92-.19"/><path stroke="#0e0d0e" vector-effect="non-scaling-stroke" d="M.25 590.04l-.25-.1"/><path stroke="#7f7e6f" vector-effect="non-scaling-stroke" d="M586.25 4.51a.26.26 0 00-.26-.26H4.51a.26.26 0 00-.26.26v581.48a.26.26 0 00.26.26h581.48a.26.26 0 00.26-.26V4.51"/><path stroke="#8d8b7d" vector-effect="non-scaling-stroke" d="M591 587.31c-.84-.45-.25-537.06-.25-586.81a.25.24-86.1 00-.21-.25q-.17-.02-.29.04M13.19 591q-6.21-.43-12.44-.26c-.51.02-.64-.24-.5-.7"/><path stroke="#fceec4" vector-effect="non-scaling-stroke" d="M46.4 91.9q23.42-23.46 47.24-47.87a1.34 1.34 0 00-.96-2.28q-18.37-.03-37.51.03c-12.69.04-23.51 4.08-23.6 18.54q-.14 21.81-.04 43.72a.65.65 0 00.88.6c3.52-1.34 11.01-9.77 13.99-12.74"/><path stroke="#8d8b7d" vector-effect="non-scaling-stroke" d="M111.67 282.28l-5.86-.33a.61.6 83.8 00-.61.77q2.04 7.18 5.73 13.68a.61.61 0 01-.49.9l-2.4.17a.63.62 75.8 00-.52.88c4.06 8.84 7.07 18.05 11.2 26.86a.33.33 0 01-.33.46l-4.65-.35a.49.49 0 00-.49.69q2.27 5.14 6.66 8.67a.49.49 0 01-.07.81l-2.86 1.54a.61.61 0 00-.25.83q6.36 11.9 18.63 17.62a1.24 1.23 36.4 01.31 2.04l-1.75 1.57a.69.69 0 00-.16.82c5.47 11.12 22.27 22.39 32.69 27.55 16.35 8.09 34.83 13.74 52.3 14.54 22.29 1.03 39.96 1.67 60.75-1.03q8.26-1.07 22.28-6.75a.47.47 0 01.62.29q5.62 16.77 8.18 34.28c.33 2.27 1.18 4.23 1.77 6.46q.13.47-.33.32-10.12-3.33-19.08-9.09a.8.79 22.1 00-1.21.51c-.7 3.47-1.27 6.32-.93 10.05q.33 3.68.2 7.41a1.41 1.41 0 00.28.9q2.45 3.34 2.93 7.36c.37 3.04 1.26 4.86 2.31 7.44a.97.96 60.8 001.45.42q3.37-2.46 6.38-5.16c3.24-2.92 6.18-7.27 9.57-10.67a.53.53 0 01.86.16c5.89 12.82 10.84 25.22 19.97 35.65a.26.26 0 01-.23.42q-13.07-1.73-26.27-1.66a.58.58 0 00-.58.56c-.38 14.59 8.65 26.69 21.44 32.86a.64.64 0 00.74-.14q8.75-9.43 12.16-21.84a.54.54 0 01.94-.2q20.83 25.19 54.02 26.52a.4.4 0 01.32.61c-3.68 5.95-7.94 12.45-8.72 19.57a.59.59 0 00.44.64q13.15 3.5 25.51-2c1.48-.66 3.21-.75 4.58-2.49a.88.87-37.8 00.12-.88c-2.35-5.61-6.7-9.29-10.47-13.64a.38.38 0 01.29-.63c16.59.41 33.01-2.14 44.89-14.62a.58.58 0 011 .34q.69 7.51 2.42 14.82a1.67 1.67 0 001.85 1.28c5.18-.69 7.96-1.37 10.35-6.38a1.34 1.32.4 01.66-.64q4.68-2.07 7.3-6.27c2.56-4.11 6.25-7.59 5.33-13.05a.56.56 0 00-.59-.47q-4.52.25-8.94-.52c-3.47-.61-6.85-.26-10.35-.89a.33.33 0 01-.22-.51c12.18-18.44 16.71-43.69 8.99-64.88a.39.39 0 01.48-.5c2.62.86 4.37 2.86 6.59 3.77q5.6 2.3 11.18 3.44a1.07 1.06-78.8 001.26-.85c2.21-11.61-.45-20.21-8.78-28.49a1.59 1.58-35.5 00-1.82-.3c-4.99 2.44-8.35 8.86-10.96 13.45a.52.52 0 01-.97-.15c-1.72-8.48-7.88-18.21-12.51-25.51q-2.25-3.56-6.24-7.98c-3.85-4.27-6.89-8.87-11.78-12.47q-.4-.29.09-.29c5.28.03 17.44-.06 21.55-3.54a.72.71-30.7 00.21-.8c-3.47-8.97-13.13-18.74-23.07-20.46a.6.59 9.7 00-.69.48l-3.49 19.3a.82.81 18.6 01-1.18.58c-22.38-11.52-38.38-26.47-47.39-50.15a.31.31 0 01.43-.39q9.67 4.91 20.4 6.61a1.07 1.05-79 001.2-.82c1.41-6.44 2.18-20.9-2.63-26.12a.81.8-36.7 00-1-.14l-20.3 12.16a.3.3 0 01-.45-.18c-4.02-15.75-4.25-37.68 2-55.85a.95.91-86.6 01.64-.59c9.93-2.54 20.21-8.66 32.35-14.69 7.54-3.74 17.2-6.98 25.44-11.6 5.5-3.08 11.1-5.34 16.58-8.3 1.72-.94 2.61-2.03 2.77-3.91q.98-11.45-.95-22.81a.37.36-19.8 00-.54-.25l-7.57 4.17a1.46 1.46 0 01-2.06-.73l-7.11-17.31a1.47 1.46 60.1 00-2.24-.61c-3.44 2.61-8.08 7.57-11.64 8.93a1.01.99 52.3 01-.94-.13q-7.93-5.76-12.36-14.63a1.14 1.13 50.3 00-1.92-.18c-8.62 11.36-16.8 23.42-22.45 36.07q-8.81 19.72-11.75 41.24-.57 4.16-1.91 9.1c-4.07 14.94-3.22 30.38-1.91 45.64q.2 2.31.84 5.06a.59.59 0 01-.93.6c-4.99-3.81-9.14-7.97-13.58-12.48a1.5 1.49-52.8 00-2.38.33c-4.66 8.49-3.25 20.89.84 29.36a.5.49 61.3 00.7.21l16.85-10.11a.37.37 0 01.54.19c4.03 10.74 9.02 20.66 16.37 29.57q13.84 16.8 33.85 25.85a.43.43 0 01-.1.82q-10.89 2.12-21.5 5.41a1.27 1.27 0 00-.85 1.52q4.2 16.69 20.9 21.19a.72.72 0 00.8-.32q2.19-3.66 3.55-7.68c1.54-4.54 1.44-10.55 2.92-15.89a.36.36 0 01.55-.2q6.93 4.71 10.87 12.02c.95 1.78 2.63 2.52 3.66 3.94q9.2 12.72 15.61 27.91a.96.96 0 01-1.24 1.26q-8.05-3.26-16.46-5.03a.55.55 0 00-.65.43c-2.35 11.1 0 20.68 7.88 28.77a1.36 1.35-42.5 001.86.08q6.55-5.65 10.98-13.08.33-.55.47.07c2.87 12.64 2.72 24.38.06 36.99-1.86 8.82-5.71 15.78-10.78 23.07a.93.93 0 01-1.69-.56c.26-6.89.21-20.91-4.68-26.48a.62.62 0 00-.78-.12c-8.44 4.92-20 15.11-23.07 24.68q-.58 1.83 1.25 2.39c7.56 2.33 15.35 4.81 23.24 5.28q3.41.2.9 2.52c-4.22 3.9-8.54 8.84-13.75 11.17-11.01 4.91-22.15 4.9-33.59 4.52a.31.31 0 01-.24-.48q4.91-6.86 10.19-13.5 2.75-3.46 2.53-9.63a.71.71 0 00-.5-.65q-3.12-.99-6.24-2.09c-4.44-1.57-9.64-.78-14.36-1.16-4.05-.33-8.4 1.83-12.19 3.14a.86.85 85.9 00-.57.66c-.95 5.25 9.88 18.92 12.82 22.42q.32.38-.18.35-32.83-1.62-52.95-27.25a.23.23 0 01.22-.37q15.14 2.58 30.46 1.2a.95.95 0 00.85-1.09c-.8-4.98-1.89-10.74-5.39-14.56-2.37-2.6-5.23-8.27-8.91-8.39a.93.9 71.7 01-.71-.37l-6.3-8.27a1.85 1.85 0 00-3 .08c-2.25 3.34-4.64 6.52-6.09 10.33q-2.92 7.67-5.61 15.42a.38.38 0 01-.7.04c-1.13-2.36-3.29-4.2-4.41-5.77q-7.15-9.98-12.77-24.44-1.42-3.64-1.6-5.56a.32.32 0 01.43-.33c4.73 1.79 9.07 3.81 14.16 4.16q3.78.26 7.51.33a.5.5 0 00.5-.39q1.79-7.69-2.78-13.63-.34-.43-.41-.97-.35-2.65-1.85-4.84-.25-.36-.29-.8-.34-4-2.64-7.19a.69.68 58.7 00-.85-.21q-8.93 4.32-15.35 11.88-2.31 2.71-3.01-.78-3.87-19.01-9.14-37.68a.71.71 0 01.31-.79c5.51-3.4 11.1-6.45 15.51-10.96 10.12-10.35 17.04-24.92 20.95-38.81 5.82-20.65 6.8-37.8 5.86-60.73q-.57-13.94-4.87-31.76c-3.36-13.88-7.89-24.52-16.09-35.29a1.48 1.47 47.7 00-2.26-.11l-1.76 1.9a.33.33 0 01-.54-.1c-4.66-11.08-9.13-20.43-17.43-29.38a.73.73 0 00-1.25.33l-.84 3.54q-.23.95-.87.21c-6.17-7.16-14.33-16.01-23.17-19.67a.42.42 0 00-.58.38l-.13 4.93q-.02.78-.62.29-13.99-11.52-31.35-15.75-22.52-5.48-48.12-10.88c-10.51-2.22-22.55-5.7-31.31-7.51-19.94-4.11-38.62-9.12-55.2-18.41q-.44-.25-.34.24 4.05 20.8 1.33 40.87c-1.76 12.91-5.01 28.18-5.82 41.89-1.5 25.32-1.23 52.24 4.29 73.81a.4.4 0 01-.41.5"/><path stroke="#646364" vector-effect="non-scaling-stroke" d="M111.54 252.75c.89 11.2 2.09 22.92 6.14 33.05a.7.7 0 01-.21.79q-1.18.95-2.79 1.31"/><path stroke="#575759" vector-effect="non-scaling-stroke" d="M114.68 287.9q-1.61.16-2.71-.39-.91-.47-.59.5 2.12 6.4 5.32 11.04.33.49.13.89a.92.89 11.3 01-.73.47l-2.29.19a.54.54 0 00-.46.73l2.73 6.91"/><path stroke="#646364" vector-effect="non-scaling-stroke" d="M116.08 308.24q4.37 11.23 9.95 22.29a.33.32-13.2 01-.3.47l-3.72-.01q-1.34 0-.18.67 3.47 1.98 5.33 5.54a.71.69-39.7 01-.08.76q-1.5 1.78-3.76 2.06a.41.41 0 00-.29.64c3.98 5.75 12.37 10.49 18.72 14.13"/><path stroke="#575759" vector-effect="non-scaling-stroke" d="M141.75 354.79q1.06.56 1.72 1.45a.68.68 0 01-.02.84q-1.79 2.12-4.26 3.18a.43.43 0 00-.16.68q12.84 15.16 29.03 22.76c6.83 3.21 19.85 9.14 29.62 10.84 21.83 3.82 43.85 4.82 66.82 3.91q7.8-.31 14-1.66"/><path stroke="#646364" vector-effect="non-scaling-stroke" d="M278.5 396.79l20.26-5.63a.63.62 79.8 00.45-.65q-.69-7.96-4.25-15.27"/><path stroke="#575759" vector-effect="non-scaling-stroke" d="M294.96 375.24q.09-1.16-.59-2.15a.79.77-21.5 00-.79-.33l-13.33 2.45"/><path stroke="#646364" vector-effect="non-scaling-stroke" d="M280.25 375.21l-43.56 4.29"/><path stroke="#575759" vector-effect="non-scaling-stroke" d="M236.69 379.5c-5.18-.48-10.63-.36-15.56-1.01q-9.44-1.22-18.89-2.43c-11.17-1.44-18.77-5.78-27.82-10.73a.36.36 0 01.01-.63c1.4-.74 7.16 1.8 8.7 2.52a.34.34 0 00.44-.46c-2.02-3.96-5.04-10.11-9.04-12.3q-9.48-5.21-15.53-14.31-.36-.54.15-.14l7.31 5.74"/><path stroke="#646364" vector-effect="non-scaling-stroke" d="M166.46 345.75q4.81 4.79 10.68 8.19.76.44 1.4 1.06"/><path stroke="#575759" vector-effect="non-scaling-stroke" d="M178.54 355q3.57 4.95 6.5 10.3c2.66 4.84 14.12 6.3 18.52 7.06 4.13.7 3.96-3.37 2.15-5.67q-4.46-5.63-8.9-11.34-.31-.4.12-.13 6.54 4.05 10.36 10.78a1.64 1.61 87.8 00.7.66q1.5.75 2.01.83c7.08 1.22 10.44 7.14 17.53 7.54q6.38.37 12.72-.49"/><path stroke="#646364" vector-effect="non-scaling-stroke" d="M240.25 374.54l18-1.33"/><path stroke="#575759" vector-effect="non-scaling-stroke" d="M258.25 373.21l5.75-.75"/><path stroke="#646364" vector-effect="non-scaling-stroke" d="M264 372.46l12.25-1"/><path stroke="#575759" vector-effect="non-scaling-stroke" d="M276.25 371.46l14.76-2.54"/><path stroke="#646364" vector-effect="non-scaling-stroke" d="M291.01 368.92l.71-.17a.4.4 0 00.27-.54q-7.18-17.33-17.53-32.96"/><path stroke="#575759" vector-effect="non-scaling-stroke" d="M274.46 335.25q-1.9-3.78-5.26-5.81a1.33 1.28 53.5 00-.95-.16q-11.79 2.5-23.78 3.66a.46.46 0 00-.4.56c1.45 6.17 1.76 10.95-.88 16.8-1.24 2.75-.22 5.61-1.59 8.36q-.8 1.62-1.16-.15-1.33-6.54 2.27-11.82a1.91 1.9 62.7 00.33-1.04c.1-3.55.91-13.84-4.58-12.87-20.12 3.55-41.13.49-61.39-.37q-2.24-.09-5.32-.87"/><path stroke="#646364" vector-effect="non-scaling-stroke" d="M171.75 331.54l-5.87-1.23"/><path stroke="#575759" vector-effect="non-scaling-stroke" d="M165.88 330.31c-5.85-2.24-14.93-4.69-20.26.42a.12.09 27 01-.12.02l-.24-.08a.13.13 0 01-.06-.2c6.97-8.61 21.73-4.29 30.52-2.14q.49.11.11-.22-6.38-5.63-12.63-11.44-1.6-1.48-3.75-2.15-6.48-2.02-12.67-4.88a.19.19 0 01.12-.36c4.31 1 14.23 2.45 17.29 5.45 4.37 4.27 9.96 10.56 15.39 13.26 3.14 1.56 7.5.95 11.26 1.31q2.06.2.59-1.26-3.82-3.79-6.26-8.53a.5.5 0 01.8-.58c3.11 3.12 5.93 7.31 9.43 10.18a1.67 1.66 66.5 00.91.36l15.89 1.22q.48.04.24-.38-12.81-22.7-17.73-30.29-3.52-5.4-11.21-5.23"/><path stroke="#646364" vector-effect="non-scaling-stroke" d="M183.5 294.79c-10.58-1.7-21.89-2.62-32.04-6.05q-6.47-2.19-13.17-4.08"/><path stroke="#575759" vector-effect="non-scaling-stroke" d="M138.29 284.66l-3.61-2.85q-.38-.3.09-.39 2.88-.56 3.71-.25 12.33 4.62 25.5 6.03.5.05.16-.32-2.81-3.17-6.2-5.73c-3.24-2.46-6-6.89-9.22-8.37-3.94-1.81-10.46-1.43-14.81-4.39q-4.77-3.25-6.7-8.95a.52.52 0 01.92-.45c2.15 3.18 5.61 8.02 9.45 9.02a.49.49 0 00.6-.39l1.03-6.12"/><path stroke="#646364" vector-effect="non-scaling-stroke" d="M139.21 261.5q.29-3.02-1.96-5.04"/><path stroke="#575759" vector-effect="non-scaling-stroke" d="M137.25 256.46q-.17-1.25-.54-1.68-3.57-4.13-3.73-9.63a1.19 1.18 16.3 00-.52-.94l-3.71-2.48a.25.04 33.7 01-.19-.17l.2-.22a.26.25 31.1 01.3-.07q9.41 4.1 19.58 5.49c2.4.33 3.76-.77 4.36-2.97"/><path stroke="#646364" vector-effect="non-scaling-stroke" d="M153 243.79c1.21-1.66 1.43-3.3.26-5.18q-4.71-7.6-6.15-15.67-.58-3.24-2.2-5.45"/><path stroke="#575759" vector-effect="non-scaling-stroke" d="M144.91 217.49q-.32-1.86-1.63-3.64-.3-.41.18-.24c3.45 1.23 6.14 10.67 7.58 14.14"/><path stroke="#646364" vector-effect="non-scaling-stroke" d="M151.04 227.75q1.84 6.39 6.73 11.19"/><path stroke="#575759" vector-effect="non-scaling-stroke" d="M157.77 238.94q1.88 2.9 4.69 5.31"/><path stroke="#646364" vector-effect="non-scaling-stroke" d="M162.46 244.25c4.37 4.33 7.2 7.39 12.79 7.21"/><path stroke="#575759" vector-effect="non-scaling-stroke" d="M175.25 251.46q1.32.51 1.76.53 15.46.72 30.97 1.92a.33.33 0 00.33-.44q-.72-1.97-2.26-3.53-6.55-6.65-12.41-13.9c-2.99-3.7-9.15-10.17-12.69-16.2a1.1 1.07-9.7 00-.74-.51l-14.71-2.54"/><path stroke="#646364" vector-effect="non-scaling-stroke" d="M165.5 216.79l-13-4.58"/><path stroke="#575759" vector-effect="non-scaling-stroke" d="M152.5 212.21q-6.28-2.86-12.08-6.77a.5.5 0 00-.7.14c-3 4.36-5.14 8.39-5.51 13.88q-.41 6.24.05 12.79a.36.36 0 01-.68.19q-1.24-2.45-1.62-5.69"/><path stroke="#646364" vector-effect="non-scaling-stroke" d="M131.96 226.75c.1-4.18-.75-10.3 1.07-14.08"/><path stroke="#575759" vector-effect="non-scaling-stroke" d="M133.03 212.67l4.61-7.9a1.27 1.26-56.5 00-.33-1.64c-3.32-2.49-10.04-2.34-14.31-3.21a.59.59 0 01.08-1.16l8.6-.58a.49.49 0 00.45-.58c-.79-4.22-1.68-10.3-4.57-13.62q-1.37-1.57-2.57-3.33-.3-.42.18-.22c7.22 3.14 8.67 11.39 11.03 17.95a1.32 1.32 0 00.61.71c6.09 3.29 12.47 7.15 18.38 9.55q9.89 4.02 20.51 5.74.49.08.18-.31l-5.05-6.55"/><path stroke="#646364" vector-effect="non-scaling-stroke" d="M170.83 207.52c-9.4-13.07-18.78-25.82-27.59-39.27"/><path stroke="#575759" vector-effect="non-scaling-stroke" d="M143.24 168.25c-2.69-5.52-7.24-12.24-8.54-18.23q-.1-.48.19-.08l34.57 48.56"/><path stroke="#646364" vector-effect="non-scaling-stroke" d="M169.46 198.5l3.47 4.7q.33.46.53-.07.91-2.52 1.26-6.88 1.12-14.21-.14-25.04"/><path stroke="#575759" vector-effect="non-scaling-stroke" d="M174.58 171.21q.28-1.58-.15-3.31a1.8 1.77 14.6 00-.52-.87q-3.28-3-4.87-7.18a.44.44 0 01.74-.45q2.99 3.39 7.06 5.41a1.54 1.53-87.9 01.75.81l1.22 3.09a.6.6 0 001.15-.08q1.08-4.54 5.22-6.64a.5.5 0 01.59.1q.42.43-.02.87"/><path stroke="#646364" vector-effect="non-scaling-stroke" d="M185.75 162.96c-3.46 4.31-5.51 10.03-5.62 15.59-.19 9.79.21 18.22-2.53 28.48a1.15 1.13-54.3 00.14.91q6.48 10.05 14.26 19.1"/><path stroke="#575759" vector-effect="non-scaling-stroke" d="M192 227.04l9.96 11.71"/><path stroke="#646364" vector-effect="non-scaling-stroke" d="M201.96 238.75l1.83 2.14q.38.45.52-.13c3.63-15.21 3.66-33.63 2.9-48.51"/><path stroke="#575759" vector-effect="non-scaling-stroke" d="M207.21 192.25c.39-8.02-4.78-10.74-9-16.62q-.31-.43.23-.41c2.7.13 5.48 4.27 7.15 6.38a1.3 1.29-54.1 002.23-.36c.21-.58 1.51-5.38 2.74-4.95a.52.51 20.9 01.31.68q-2.4 5.73.26 11.59a.36.36 0 00.58.11l4.22-4.23a1.04 1.03 24.1 01.8-.3q5.56.43 11.01-.51c4.68-.8 15.31-.33 19.03 2.91a.29.29 0 00.47-.26c-1.02-6.35-6.28-8.02-7.64-14.3-1.85-8.57-5.57-10.24-13.85-10.69"/><path stroke="#8d8b7d" vector-effect="non-scaling-stroke" d="M225.75 161.29l-16.67-3.55"/><path stroke="#575759" vector-effect="non-scaling-stroke" d="M209.08 157.74q-8.17-2.57-16.83-4.2"/><path stroke="#8d8b7d" vector-effect="non-scaling-stroke" d="M192.25 153.54q-6.22-.67-12-3"/><path stroke="#575759" vector-effect="non-scaling-stroke" d="M180.25 150.54q-7.87-2.31-16-3.25"/><path stroke="#646364" vector-effect="non-scaling-stroke" d="M164.25 147.29l-19.61-4.15"/><path stroke="#575759" vector-effect="non-scaling-stroke" d="M144.64 143.14l-4.85-1.39"/><path stroke="#646364" vector-effect="non-scaling-stroke" d="M139.79 141.75l-18.49-6.65"/><path stroke="#575759" vector-effect="non-scaling-stroke" d="M121.3 135.1q-1.04-1.17-2.75-1.48a.43.43 0 00-.5.43c.73 22.3-1.09 36.97-4.71 60.32-3.02 19.42-3.18 38.88-1.8 58.38"/><path stroke="#9fa0a1" vector-effect="non-scaling-stroke" d="M121.3 135.1q2.1 3.05 6.39 4.23 5.55 1.53 11.12 3.11a.67.67 0 00.76-.31l.22-.38M144.64 143.14q2.15 2.67 5.75 2.29.47-.05.92.12 6.02 2.39 12.49 2.59a.44.44 0 00.46-.45l-.01-.4"/><path stroke="#c8c8ba" vector-effect="non-scaling-stroke" d="M180.25 150.54l-.4.33a.54.53-58 00.21.93l11.33 2.84a.72.72 0 00.84-.42q.14-.35.02-.68M209.08 157.74q7.88 3.27 16.28 4.29a.35.35 0 00.39-.35v-.39"/><path stroke="#9fa0a1" vector-effect="non-scaling-stroke" d="M207.21 192.25q-.83-.78-1.48-.35a.81.81 0 00-.36.76q1.29 12.31.19 24.64a.29.29 0 00.16.29l.32.16a.38.38 0 01.18.5c-1.32 2.84-.75 5.79-.99 8.09-.44 4.17.2 9.51-3.27 12.41M192 227.04q.36-.15.54-.44a.73.72-47.4 00-.03-.85q-4.19-5.36-8.04-10.93c-1.78-2.59-4.39-4.04-4.01-8.17.47-5.16.2-9.8.73-15.38q.29-3.08.15-7.27-.28-8.13 3.28-16.86a1.56 1.55-8.1 01.52-.69q1.36-1.05 1.94-2.67a.57.56 20.6 00-.33-.72q-.47-.19-1-.1M174.58 171.21q-.78 10.3-.69 20.64c.02 1.9-.39 3.91-.57 5.86a.59.59 0 01-.54.53l-3.32.26M143.24 168.25q-.36 2.95 2.18 5.83c2.73 3.1 5.13 7.82 7.93 11.47 3.36 4.38 6.12 10.17 10.08 13.89q1.93 1.82 3.28 4.82 1.04 2.3 4.12 3.26M133.03 212.67q-1.65-.94-1.78 1.09-.37 6.08-.96 12.77a.81.79 27.2 00.21.63q1.13 1.23 1.46-.41M152.5 212.21q-.19.09-.31.2a.39.39 0 00.1.63q6.16 3.04 12.8 4.73a.47.46-79.3 00.58-.4q.04-.31-.17-.58M175.25 251.46q.04-.18.01-.37a.62.62 0 00-.5-.51c-5.49-1.03-6.38-3.09-10.22-6.52a.91.89 56.6 00-.88-.19l-1.2.38M157.77 238.94q-.9-3.49-2.77-6.58c-.9-1.5-1.13-3.28-2.38-4.77a.69.68 57.7 00-.79-.18l-.79.34M144.91 217.49q.77 4.26 1.63 8.48c.55 2.71 1.58 5.28 2.4 7.98 1.13 3.72 3.79 4.66 3.2 9.29a.46.46 0 00.42.52l.44.03M137.25 256.46c-2.55-.06 1.49 4.58 1.96 5.04M138.29 284.66q4.48 2.57 9.24 4.68 1.98.87 4.57 1.4 2.36.48 4.69 1.07c5.56 1.39 10.91 1.68 16.46 2.35 2.9.35 6.46 1.71 10.05 1.59a.46.46 0 00.43-.55q-.05-.23-.23-.41M165.88 330.31q2 2.14 4.98 2.25c.62.03 1.04-.41.89-1.02M274.46 335.25q-.38-.1-.65.08a.55.55 0 00-.17.75q3.03 4.97 5.54 10.24c.86 1.8 3.03 3.86 4.03 6.19q3.58 8.35 7.8 16.41M276.25 371.46q.32-.57.11-1.04a.81.8 77.2 00-.75-.48q-5.75.07-11.29 1.67a.44.44 0 00-.32.42v.43M258.25 373.21v-.35a.39.39 0 00-.36-.39q-9.05-.67-17.64 2.07M178.54 355q.47-.11.76-.38a.56.55 49.6 00.06-.76q-2.59-3.2-6.46-4.41a1.56 1.55-9.5 01-.78-.55q-2.22-2.94-5.66-3.15M236.69 379.5q2.49 1.18 5.19.8 3.59-.49 4.45-.48c9.74.14 18.7-2.57 27.93-2.29q2.04.06 6.41-1.43c.24-.08.32-.16.35-.41a.41.4 6.5 00-.36-.44l-.41-.04M294.96 375.24q1.18 5.95 2.64 11.83c.36 1.42 1.21 3.08-.84 3.67q-2.69.77-11.77 2.93c-1.71.41-4.15 1.65-6.59 1.64q-1.38 0-.66 1.18.23.39.76.3M141.75 354.79c1.97-.63-.11-2.31-.82-2.74q-8.11-4.83-15.16-10.27a.88.88 0 01.14-1.48q2.62-1.33 2.27-2.53-.88-2.96-1.5-5.98a.91.88 54.1 01.09-.62l.25-.47a1.05 1.03-44.4 00.02-.96c-2.07-4.28-2.43-9.08-5.92-12.17a1.72 1.7 12.6 01-.52-.81q-1.45-4.7-4.52-8.52M114.68 287.9q2.73 1.47 3.87-1.35.54-1.32-.48-2.48-.33-.38-.47-.85c-1.87-6.42-1.63-13.28-2.55-19.09q-.77-4.9-1.37-9.83c-.16-1.36-.77-1.83-2.14-1.55"/><path stroke="#575759" vector-effect="non-scaling-stroke" d="M240.04 166.25c.79 4.1 1.83 8.07 4.97 11.11q4.56 4.42 5.4 10.9a.98.98 0 001.1.84l5.72-.78a1.46 1.46 0 00.97-.59l1.44-2.02q.88-1.21.6.26-.33 1.82-1.27 3.39a1.22 1.2 9 01-.8.57l-6.57 1.35a.58.57 82.1 00-.46.61l1.61 19.89a.26.25 76.1 00.35.22c7.01-3.08 12.23-6.95 20.29-10.29 4.11-1.7 5.87-5.09 6.53-9.22a.21.2-70.8 01.3-.15l.3.16a.62.62 0 01.28.77q-.63 1.62.01 3.2a1.2 1.2 0 01-.04 1q-2 3.96-3.57 4.76-11.92 6.02-24.06 11.88a.8.78-13.3 00-.45.71q-.01 20.03-3.76 39.7-.47 2.47 1.42.8c2.44-2.16 6.23-5.61 7.15-9.08q2.09-7.91 4.59-19.76a.37.37 0 01.57-.22q.62.44.38 1.24"/><path stroke="#646364" vector-effect="non-scaling-stroke" d="M263.04 227.5q-.67 11.06-4.2 21.59c-.97 2.91-8.64 8.99-10.81 11.01a1.61 1.6-15 00-.48.83q-1.97 8.25-5.56 16.8-.81 1.93.72 3.27"/><path stroke="#575759" vector-effect="non-scaling-stroke" d="M242.71 281q13.23 14.95 24.16 31.94a.61.6-50.6 001.07-.11l9.52-23.83"/><path stroke="#646364" vector-effect="non-scaling-stroke" d="M277.46 289q5.97-19.87 7.99-40.45c.78-7.82.64-16.86.82-25.27q.02-.56-.45-.26l-1.57 1.02"/><path stroke="#575759" vector-effect="non-scaling-stroke" d="M284.25 224.04c-6.16 1.12-15.78 4.06-17.62-1.11q-.29-.82.44-.35l1.9 1.21a1.44 1.43-30 00.83.22c4.57-.25 15.91-.28 16.86-6.32q1.2-7.56-.42-15.68-.19-.95.1-2.98.08-.5.29-.04c3.07 6.57 2.66 15.08 3.88 22.26q.13.81-.14 3.77a.29.29 0 00.41.29c4.92-2.21 7.59-6.69 10.65-10.78a.45.44-15.8 01.77.43q-3.22 8.13-10.78 12.37a1.34 1.32-9.3 00-.65.89q-1.44 6.55-.96 13.26a.28.27-15.8 00.4.22l1.25-.62q1.15-.57.39.47-1.85 2.5-2.13 3.94c-2.18 11.38-2.62 27.62-7.31 41.59-2.05 6.13-6.72 15.88-9.09 24.34q-.14.49.33.29c4.97-2.06 15.85-5.66 17.6-11.25q2.05-6.59 5.21-12.71"/><path stroke="#646364" vector-effect="non-scaling-stroke" d="M296.46 287.75c2.55-4.64 6.31-9.19 5.87-14.91"/><path stroke="#575759" vector-effect="non-scaling-stroke" d="M302.33 272.84l1.47-4.81q.14-.47.23.02 1.03 5.92-.74 11.7"/><path stroke="#646364" vector-effect="non-scaling-stroke" d="M303.29 279.75l-6.08 11"/><path stroke="#575759" vector-effect="non-scaling-stroke" d="M297.21 290.75l-4.91 11.99a.43.43 0 00.24.56l6.85 2.63a.91.9 36.9 00.87-.12c4.62-3.56 6.06-6.13 12.55-3.89a.48.48 0 00.61-.33l1.04-4.09"/><path stroke="#646364" vector-effect="non-scaling-stroke" d="M314.46 297.5q5.24-16.25 6.75-33.25"/><path stroke="#575759" vector-effect="non-scaling-stroke" d="M321.21 264.25l.19-3.9a.74.74 0 00-.54-.75q-4.84-1.34-9.88-.75a.42.42 0 01-.46-.51c.2-.86 8.88-.92 10.72-.88a.6.59-84.3 00.59-.49q1.04-5.94-.58-11.62c-1.3-4.56-.48-7.31.41-11.91q.85-4.34-.71-9.33"/><path stroke="#646364" vector-effect="non-scaling-stroke" d="M320.95 224.11q.32-3.09-.9-5.67-5.42-11.5-11.77-22.69a.8.8 0 00-1.33-.09l-.99 1.34"/><path stroke="#575759" vector-effect="non-scaling-stroke" d="M305.96 197c-1.2 1.34-4.25-.92-5.38-1.86-2.3-1.93-2.89-4.86-6.58-6.35"/><path stroke="#646364" vector-effect="non-scaling-stroke" d="M294 188.79l-5.07-5.34"/><path stroke="#575759" vector-effect="non-scaling-stroke" d="M288.93 183.45l-4.15-3.59a.42.42 0 00-.69.29l-.32 4.83a.53.53 0 01-.81.41l-4.67-2.89"/><path stroke="#646364" vector-effect="non-scaling-stroke" d="M278.29 182.5l-4.54-3.29"/><path stroke="#575759" vector-effect="non-scaling-stroke" d="M273.75 179.21q-9.12-7.52-19.94-11.6"/><path stroke="#646364" vector-effect="non-scaling-stroke" d="M253.81 167.61l-14.28-3.89q-.46-.13-.3.32l.81 2.21"/><path stroke="#9fa0a1" vector-effect="non-scaling-stroke" d="M253.81 167.61q-3.73 1.02-6.75-.18-3.81-1.52-7.02-1.18M273.75 179.21l-.39.5a.54.54 0 00.1.77l3.83 2.86a.62.62 0 00.87-.14q.2-.28.13-.7M288.93 183.45q.87 2.09 2.75 4.83 1.1 1.61 2.32.51M305.96 197c.95.99 1.68 1.04 2.44 2.26q7.37 11.85 12.55 24.85M321.21 264.25q-.35-1.21-1.75-.62a.54.53 80.2 00-.32.46q-.78 17.08-6.57 33.11a.75.75 0 00.73 1.01q.76-.02 1.16-.71M297.21 290.75q.79.68 1.76.44a1.11 1.11 0 00.75-.63l4.64-10.16a.48.48 0 00-.28-.65q-.38-.12-.79 0M302.33 272.84q-1.07 1.72-1.55 3.66c-.97 3.93-3.66 7.18-5.8 10.55q-.78 1.21.63.89l.85-.19M284.25 224.04q.13.92.65 1.66a1.74 1.7 27.2 01.3.9q.37 12.69-2.41 25.1c-.46 2.05.28 4.06-.09 6.29-1.66 9.89-3.17 20.88-7.36 30.04q-.67 1.48.93 1.19l1.19-.22M242.71 281q-.05-3.46 2.19-5.91a1.86 1.83 72.1 00.43-.86c.85-4.33 3.36-7.67 3.89-12.15a1.52 1.52 0 01.45-.92l10.24-10.1a1.76 1.74 75 00.48-.84c.97-3.96 5.48-21.02 2.65-22.72"/><path stroke="#575759" vector-effect="non-scaling-stroke" d="M393.04 219.5l7.02-10.74"/><path stroke="#646364" vector-effect="non-scaling-stroke" d="M400.06 208.76l3.73-5.26"/><path stroke="#575759" vector-effect="non-scaling-stroke" d="M403.79 203.5q3.56-2.7 6.19-6.24c3.55-4.79 7.27-9.43 10.55-14.4a.71.7-48.2 00-.04-.84l-3.49-4.31"/><path stroke="#8d8b7d" vector-effect="non-scaling-stroke" d="M417 177.71q-.43-1.72-1.84-2.91a.47.46-52.9 00-.68.1q-11.49 16.99-20.7 35.31c-3.11 6.18-4.79 12.67-6.48 19.31q-.13.51.28.18c2.3-1.85 3.78-7.39 5.46-10.2"/><path stroke="#c8c8ba" vector-effect="non-scaling-stroke" d="M417 177.71c-5.71 5.2-8.96 12.22-13.65 19.26-1.68 2.52-3.11 5.99-5.28 9.11-1.97 2.83-5.23 9.02-5.03 13.42"/><path stroke="#9fa0a1" vector-effect="non-scaling-stroke" d="M403.79 203.5q-.15-.92-.72-1.09a.77.77 0 00-.84.26q-2.16 2.69-2.17 6.09"/><path stroke="#575759" vector-effect="non-scaling-stroke" d="M396.79 227.25c12.78-8.81 24.84-19.85 38.53-28.92q4.82-3.19 9.42-7.95a.88.86 58.5 00.2-.87l-2.4-7.01"/><path stroke="#8d8b7d" vector-effect="non-scaling-stroke" d="M442.54 182.5q-.13-1.7-1.47-2.14a.92.92 0 00-.88.15c-5.78 4.65-11.74 9.25-16.93 14.32-11.44 11.19-23.05 23.29-32.01 36.59a.28.28 0 00.42.36l5.12-4.53"/><path stroke="#c8c8ba" vector-effect="non-scaling-stroke" d="M442.54 182.5c-1.28.35-2.22.64-3.22 1.63-6.55 6.49-14.07 11.86-20.29 18.39-7.34 7.73-15.03 15.25-22 23.31a1.17 1.13-28 00-.28.87l.04.55"/><path stroke="#575759" vector-effect="non-scaling-stroke" d="M212.95 202.23l4.46 2.08a1.79 1.76-35.8 00.99.15l9.25-1.22q1.29-.17.16.48-3.38 1.95-7.31 2.25a1.45 1.38-66.5 00-.85.36c-2.97 2.68-9.05 6.47-8.22 11.67a1.66 1.57 55.8 01-.16.99q-.25.49-.16.92a.42.41 70.9 00.59.29l3.95-2.02q1.39-.7.34.46l-2.75 3.07"/><path stroke="#646364" vector-effect="non-scaling-stroke" d="M213.24 221.71q-1.95.96-2.11 2.71c-.63 6.85-2.98 13.54-3.27 20.23a1.21 1.18 24.9 00.33.87q13.84 14.43 27.58 28.96.97 1.01 1.76 1.36a.98.97 19.6 001.34-.63l5.42-19.46"/><path stroke="#575759" vector-effect="non-scaling-stroke" d="M244.29 255.75q2.28-7.31 2.5-15.04a1.02 1.01 22.4 00-.32-.76q-4.51-4.2-5.85-10.2a.43.43 0 01.78-.33l5.41 8.15a.39.39 0 00.71-.19l.94-17.13"/><path stroke="#646364" vector-effect="non-scaling-stroke" d="M248.46 220.25q-.02-12.66-.68-25.29c-.15-3.04-1.25-6.12-3.97-7.27q-8.55-3.61-18.47-1.52c-4.62.97-8.7.22-12.49 4.6-2.43 2.8-1.05 8.28.1 11.46"/><path stroke="#9fa0a1" vector-effect="non-scaling-stroke" d="M248.46 220.25q-.22.16-.26.43a.38.37 2.7 01-.36.32h-.37a.18.17 0 01-.18-.17q-.15-13.04-.61-26.09-.1-2.75-2.51-5.13c-2.26-2.23-7.32-2.36-10.45-3.18a1.81 1.8 43.1 00-.97.03q-2.13.65-4.32 1.12c-3.01.65-6.48.11-9.81.5a1.3 1.27 15.4 00-.87.48l-3.62 4.59a1.77 1.7 67.9 00-.37.92l-.81 8.16M244.29 255.75l-.1-.42q-.39-1.7-.83-.02-1.18 4.46-2.51 8.9c-.86 2.87-3 4.79-3.78 8.08a.29.29 0 01-.48.15c-2.62-2.39-4.43-6.2-7.02-8.12-1.55-1.15-2.6-3-3.96-4.08-2.6-2.04-5.06-3.64-7.21-6.29q-3.32-4.09-7.19-7.81a1.76 1.74-75 01-.48-.84q-.97-4-.17-7.96c.82-4.06.93-7.62 1.7-10.59q.9-3.42.98-5.04"/><path stroke="#575759" vector-effect="non-scaling-stroke" d="M394.75 242.21q18.49-9.55 37.75-17.42"/><path stroke="#8d8b7d" vector-effect="non-scaling-stroke" d="M432.5 224.79l24.7-12.32a.7.69 77.2 00.39-.63l-.09-14.61a.3.3 0 00-.46-.25c-6.61 4.19-12.84 6.9-20.25 11.75-12.9 8.45-25.18 17.85-38.09 26.34-4.71 3.11-8.83 6.9-13.31 10.44a.36.36 0 00.37.62l8.99-3.92"/><path stroke="#c8c8ba" vector-effect="non-scaling-stroke" d="M432.5 224.79q-.67.13-.92-.38a.52.51-25.4 01.25-.7q6.91-3.11 13.21-7.3c3.25-2.16 7.03-2.57 10.45-4.98a1.11 1.11 0 00.46-.84l.44-7.21a.71.71 0 00-1-.69c-12.33 5.57-25.28 13.46-36.46 21.09-4.86 3.32-10.13 6.25-14.81 9.5-2.58 1.8-5.21 3.77-7.96 5.28q-2.15 1.18-1.41 3.65"/><path stroke="#646364" vector-effect="non-scaling-stroke" d="M216.63 205.32c-1.11-.41-3.18-.59-4.31-.73a.47.47 0 00-.53.44l-.34 5.26q-.07 1.08.71.33l4.65-4.44a.52.51-57 00-.18-.86"/><path stroke="#575759" vector-effect="non-scaling-stroke" d="M325.75 221.79l-2.06 1.88a1.08 1.05 67.9 00-.35.86q.41 6.82-.87 13.5c-.74 3.87.33 6.84 2.02 10.1a.46.45-29.5 00.64.17q3.05-1.92 4.87-5.03a.44.44 0 01.82.27q-.44 4.15-4.06 6.11a1.12 1.12 0 00-.57.8q-1.81 11.65-2.08 23.3"/><path stroke="#646364" vector-effect="non-scaling-stroke" d="M324.11 273.75l-4.65 21.75"/><path stroke="#575759" vector-effect="non-scaling-stroke" d="M319.46 295.5l-1.77 8.28"/><path stroke="#646364" vector-effect="non-scaling-stroke" d="M317.69 303.78c-2.89 8.7-6.41 17.13-9.66 25.65a.78.77-58.7 00.2.84q.39.35 1.1.07"/><path stroke="#575759" vector-effect="non-scaling-stroke" d="M309.33 330.34q1.59 1.56 2.96 3.28c2.22 2.78 4.97 4.27 7.42 6.77q.62.63-.22.36-5.69-1.84-9.62-6.31a.63.62 53.4 00-.8-.12l-3.39 2.14"/><path stroke="#646364" vector-effect="non-scaling-stroke" d="M305.68 336.46q-5.9 8.74-10.76 17.85a1.03 1.02-43.4 00-.03.89c4.42 10.06 9.2 20.05 13.23 30.24a.49.49 0 00.64.28c14.09-5.69 24.36-25.57 28.69-39.22 2.97-9.38 6.25-18.82 7.21-28.44q1.33-13.23.8-26.56"/><path stroke="#575759" vector-effect="non-scaling-stroke" d="M345.46 291.5l-.12-5.46"/><path stroke="#646364" vector-effect="non-scaling-stroke" d="M345.34 286.04c-.15-16.3-3.66-27.56-7.12-41.65-2.12-8.66-5.79-15.51-10.34-22.77a1.07 1.06-12.4 00-.78-.49q-.75-.08-1.35.66"/><path stroke="#9fa0a1" vector-effect="non-scaling-stroke" d="M345.34 286.04q-2 1.21-1.82-1.31c.29-4.31-.48-8.89-.7-11.88q-.26-3.57-1.18-7.03c-2.2-8.18-3.54-16.56-5.1-24.88-.58-3.12-4.98-8.6-6.71-11.89q-1.94-3.69-4.08-7.26M345.46 291.5c-1.29-.27-1.82.43-1.74 1.66q.25 3.74-.32 7.41-.67 4.28-.65 6.82.05 10.11-1.03 20.16c-.16 1.51-1.36 3.67-1.78 5.32q-2.9 11.64-7.58 22.69c-1.67 3.94-4.63 7.24-6.85 11.13-1.97 3.44-4.14 6.23-6.26 9.37-2.36 3.49-5.22 5.02-8.67 7.13a1.47 1.47 0 01-2.12-.68q-1.98-4.67-4.09-9.69c-1.87-4.46-5.94-11.28-7.51-17.81a1.2 1.19 55.2 01.16-.91q5.43-8.3 8.66-17.64M309.33 330.34q.97-4.3 4.21-10.07 3.9-6.94 4.15-16.49M319.46 295.5l.05.74a.54.54 0 00.54.51h.39a.59.58-82.1 00.56-.43q3.25-11.07 3.11-22.57"/><path stroke="#646364" vector-effect="non-scaling-stroke" d="M154.88 247.72a.33.33 0 00.22.46l6.22 1.49a.33.33 0 00.34-.52l-4.39-5.46a.33.33 0 00-.55.07l-1.84 3.96M174.29 256l-11.04-2.21"/><path stroke="#575759" vector-effect="non-scaling-stroke" d="M163.25 253.79q-10.75-3.33-21.82-5.45c-1.75-.33-3.73-1.32-5.66-1.7a.38.37 2.9 00-.45.4c.68 7.98 8.99 9.27 4.83 18.84a2.17 2.16-71.4 001.47 2.97c3.74.92 9.25 1.84 12.15 5.11 3.14 3.54 11.86 12.83 16.24 13.96q17.8 4.62 36.18 3.82c10.96-.48 22.92.09 33.62-2.26a.31.31 0 00.17-.5l-28.15-31.31a1.35 1.3 68 00-1.01-.45l-9.18.1a1.26 1.24 21.1 00-.92.4q-7.24 7.77-9.56 9.71c-6.19 5.14-18.25 3.38-25.15 1.78q-.49-.12.01-.17 5.6-.55 12.98-.1c9.41.58 13.63-5.55 19.14-11.69q.34-.38-.17-.37-11.91.25-23.68-.88"/><path stroke="#9fa0a1" vector-effect="non-scaling-stroke" d="M163.25 253.79l-.2.77a.55.54-75.3 00.38.66q5.08 1.4 10.36 1.52a.47.46-85.9 00.47-.41l.03-.33"/><path stroke="#575759" vector-effect="non-scaling-stroke" d="M232.18 322.24q1.48 2.72.54 5.79a.99.99 0 00.98 1.28q16.67-.51 33.06-3.54a.4.4 0 00.29-.56q-1.63-3.48-3.96-6.55c-6.33-8.37-12.27-17.26-19.23-25.11a.92.92 0 00-.82-.3q-10.39 1.35-20.85 2.15c-4.76.36-9.99.11-15.06.3-4.27.16-3.53 2.44-3.54 5.61-.02 8.32 3.56 19.43 9.47 25.27 4.31 4.26 10.87 4.05 16.46 3.33a.84.84 0 00.72-.7l1.03-6.8a.49.49 0 01.91-.17"/><path stroke="#646364" vector-effect="non-scaling-stroke" d="M201.22 296.97q.16-.41.16-.87a.66.65-.4 00-.68-.66l-5.81.21q-.72.03-.33.63l5.54 8.6q1.75 2.71 1.49-.51l-.5-6.44q-.04-.5.13-.96M362.15 304.95a.31.31 0 00.2.34l6.3 2.41a.31.31 0 00.34-.51l-5.66-6.08a.31.31 0 00-.54.16l-.64 3.68"/><path stroke="#8d8b7d" vector-effect="non-scaling-stroke" d="M401.55 304.11l-.15-2.02a.51.51 0 00-.76-.4c-1.62.93-2.69 2.26-4.42 2.98q-2.65 1.12-5.09 2.71-1.23.8.18.4l9.59-2.74a.9.9 0 00.65-.93"/><path stroke="#646364" vector-effect="non-scaling-stroke" d="M301.29 309.75q-.49 7.24 3.25 13.8a.91.9-48 001.62-.09l.63-1.46"/><path stroke="#575759" vector-effect="non-scaling-stroke" d="M306.79 322q2.67-5.34 3.67-11.25"/><path stroke="#646364" vector-effect="non-scaling-stroke" d="M310.46 310.75l1.9-6.07a.68.68 0 00-.28-.77q-.93-.61-2.53-.54"/><path stroke="#575759" vector-effect="non-scaling-stroke" d="M309.55 303.37q-6.61-.4-8.26 6.38"/><path stroke="#9fa0a1" vector-effect="non-scaling-stroke" d="M309.55 303.37q.82 3.19-.58 6.32a.75.75 0 00.68 1.05l.81.01M306.79 322c-3.6-2.99-4.66-6.34-4.12-10.96.13-1.06-.33-1.53-1.38-1.29"/><path stroke="#646364" vector-effect="non-scaling-stroke" d="M283.21 310l-11.86 5.26a1.56 1.55 61 00-.65 2.28c5.05 7.54 10.75 14.79 15.19 23q2.68 4.96 5.61 9.83a.33.33 0 00.55.02c1.31-1.86 14.26-22.59 11.25-24.96"/><path stroke="#575759" vector-effect="non-scaling-stroke" d="M303.3 325.43q-5.12-7.26-3.94-16.58a.76.74-72.6 00-.38-.75q-3.64-2.03-7.67-2.91a1.19 1.17-54.5 00-.9.16l-7.2 4.65"/><path stroke="#9fa0a1" vector-effect="non-scaling-stroke" d="M303.3 325.43q-3.74 10.49-10.08 20.29-1.64 2.55-3.09-.12-2.53-4.65-5.45-10.23c-3.25-6.19-8.22-11.58-12.13-17.44a1.19 1.19 0 01.47-1.73l10.14-5.03a.61.61 0 00.31-.73q-.08-.23-.26-.44"/><path stroke="#646364" vector-effect="non-scaling-stroke" d="M402.08 310.39a.66.65 86.8 00.64-.72l-.26-2.4a.33.33 0 00-.47-.26c-1.8.84-9.85 2.36-10.24 2.99q-.35.56.3.55l10.03-.16M368.99 310l-6.3-1.95a.57.57 0 00-.73.61l.27 2.21a.63.62 83.3 00.68.54l7.6-.72q.55-.05.08-.34-.34-.21-.77-.22-.42-.01-.83-.13M392.45 313.54c2.15 1.78 6.36 2.23 9.1 3.08a.57.57 0 00.74-.45l.51-2.81a.48.48 0 00-.46-.56l-10.56-.16a.22.22 0 00-.17.36q.11.12.25.2.55.31.59.34M363.65 313.31q-.17-.1-.34-.08a.64.63 83.2 00-.57.73l.39 2.54a.49.49 0 00.73.35c.97-.56 5.74-2.53 5.21-3.7a.67.66-16.8 00-.71-.38l-4.21.64a.76.74-33.1 01-.5-.1M443.7 353.89a.6.6 0 00-.32-.89l-2.93-.98a.6.6 0 00-.78.43l-2.21 8.97a.6.6 0 001.09.47l5.15-8"/><path stroke="#8d8b7d" vector-effect="non-scaling-stroke" d="M446.53 356.38q-.42-.64-1.06-.87a.6.59 25 00-.73.26l-3.9 6.79a.22.22 0 00.31.3l6.97-4.31a.45.45 0 00.15-.61q-.37-.62-1-.92a1.78 1.73 85.1 01-.74-.64"/><path stroke="#646364" vector-effect="non-scaling-stroke" d="M443.46 365.71l10.34-1.34a.31.31 0 00.21-.48l-2.47-3.51a.68.66 61.2 00-.8-.24q-4.17 1.65-7.8 4.24-2.39 1.71.52 1.33M208.13 372.44l10.32 1.59q.85.13.12-.33c-2.12-1.32-6.52-4.33-8.98-4.13a1.01 1-79.5 00-.82.57l-.89 1.83a.33.33 0 00.25.47M412.56 378.74q.43 2.55 2.13 4.56a.64.63 49.1 00.9.07l7.54-6.52a.44.44 0 00-.48-.72q-4.56 2.29-9.67 2.13a.41.41 0 00-.42.48M422.42 391.24c1.09.13 2.12.48 3.12.99a.5.49 26.8 00.67-.21c2.76-5.43 2.23-9.73 3.38-14.94a.18.18 0 00-.33-.12l-7.2 13.59a.48.48 0 00.36.69M416.85 386.55l2.85 2.67a.61.61 0 001-.28q1.48-5.47 4.78-10.06 1.62-2.25-.52-.48l-8.06 6.66a1 .99 47.1 00-.05 1.49M480.75 408.85q-3.12 3.87-5.07 8.47a.56.55 86.7 00.78.7l7.2-4.07a.67.66 60 00.24-.92l-2.41-4.13a.45.45 0 00-.74-.05M478.68 419.48c.61.25 6.17-.79 7.2-.99a.48.48 0 00.35-.67l-.95-2.05a.57.57 0 00-.91-.18q-2.44 2.27-5.66 3.28a.33.32-42.4 00-.03.61M453.85 424.84l8.65-.51q.59-.04.07-.33-3.89-2.19-8.32-2.96"/><path stroke="#8d8b7d" vector-effect="non-scaling-stroke" d="M454.25 421.04l-1.41-.82a.45.45 0 00-.64.2q-1.53 3.34 1.65 4.42"/><path stroke="#d5d3c5" vector-effect="non-scaling-stroke" d="M454.25 421.04l-.4 3.8"/><path stroke="#646364" vector-effect="non-scaling-stroke" d="M477.72 423.39c1.23 1.88 6.86 3.52 9.04 3.83a.6.6 0 00.66-.45q.76-3.05-.71-5.82a.7.69-19.3 00-.75-.36l-7.69 1.5a.85.85 0 00-.55 1.3M332.31 426.49c-1.5 1.19-10.12 6.95-10.05 8.24a.35.35 0 00.51.3c2.12-1.04 9.27-3.52 10.23-5.26q.84-1.54-.05-3.15a.43.42-33.4 00-.64-.13M454.93 427.08l-1.62-.35q-.98-.21-.64.74l1.5 4.16a.75.75 0 001.17.34l6.65-5.21q.83-.65-.22-.5l-5.84.85q-.5.07-1-.03M455.37 434.8a.39.39 0 00-.09.52l1.29 1.98a.39.39 0 00.64.03l5.7-7.33a.39.39 0 00-.55-.55l-6.99 5.35M335.89 433.26a.68.68 0 00-.45-.73c-.89-.3-10.46 4.12-12.25 4.73a.33.33 0 00.16.63q5.19-.8 10.65-1.46c2.21-.27 1.66-1.5 1.89-3.17M298.64 439.06q3.33.44 6.66-.57.8-.24-.02-.39-4.46-.84-8.1-3.5a.96.95 24 00-1.5.57l-.7 3.38a.72.72 0 00.24.7q1.13.95 2.43.05a1.43 1.42-58.5 01.99-.24M325.34 439.98c1.82 2.29 9.68 3.33 12.46 3.18a.64.63-85.3 00.59-.51q.48-2.33-.77-4.31a.65.64-23.2 00-.71-.28q-5.6 1.4-11.36 1.49a.27.27 0 00-.21.43M296.92 445.83c.57-.38 9.11-4.71 9.08-4.83a.49.47 76.9 00-.61-.39q-3.88 1.15-7.97 1.3c-1.32.04-2.16.55-1.68 2.02q.1.3.08.61-.06.72.31 1.17a.6.6 0 00.79.12M298.06 448.28l.39 5.5q.05.7.56.21 5.79-5.65 10.81-11.99.64-.81-.29-.35l-10.8 5.43a1.25 1.25 0 00-.67 1.2M352.65 459.95q-4.24 7.66-6.95 16.01a.6.59 81.2 00.91.67q2.82-2.06 5.58-4.61c1.64-1.5 4.03-2.68 5.69-4.66a.6.59-48 00-.03-.81q-2.81-2.81-4.32-6.55a.49.49 0 00-.88-.05M347.11 481.11l17.75-7.41a.94.93-24.1 00.49-1.26l-1.89-4.04a1.13 1.13 0 00-1.74-.39c-1.95 1.61-14.91 11.89-15.15 12.61q-.27.83.54.49M451.5 483.89q.55-6.87-1.8-13.29a.67.67 0 00-.92-.37q-2.17 1.04-3.65 2.91a.91.89-42.1 00-.06 1.03l5.88 9.85q.48.79.55-.13M353.68 481.82c5.17.62 11.37.71 16.6.25a.48.48 0 00.4-.66l-2.58-6.23a.57.56-23 00-.75-.3l-13.79 6.07a.46.45-53.1 00.12.87M437.95 482.69q2.71 1.3 10.78 5.84.71.4 1.08-.06a.55.54-50.7 00-.07-.76c-3.42-2.87-5.07-6.85-7.23-10.7a.97.97 0 00-1.57-.17l-4.55 5.15q-.49.55.24.52l.41-.01q.48-.02.91.19M314.53 491.42a.69.69 0 00.9.46l15.21-5.64a.69.69 0 00-.22-1.33l-17.01-.66a.69.69 0 00-.69.88l1.81 6.29M433.68 486.58l11.78 3.36q1.2.35.23-.44c-2.65-2.14-10.88-7.85-12.13-3.13a.18.17 15.7 00.12.21M320.63 499.65c3.62-4.89 9.24-8.32 13.99-12.03q.57-.45-.12-.23-8.26 2.55-16.12 6.12-.5.23-1.04.23h-.69a.4.4 0 00-.35.59l2.84 5.21a.89.88 49 001.49.11M322.38 503.89l5.15 3.79a.65.65 0 00.93-.16q4.84-7.33 8.51-15.27a1.45 1.45 0 00.05-1.1l-.19-.51a.52.52 0 00-.86-.18q-6.11 6.23-12.87 11.66-.58.46-.77.84a.85.55-60.3 00.05.93M398.38 490.74a.89.88-5.9 00-.92 1.13l3.59 12.27a.38.38 0 00.74-.11q-.09-6.24 1.15-12.33a.54.54 0 00-.49-.65l-4.07-.31M393.51 491.49l-3.49 1.44a.61.61 0 00-.27.91l9.09 13.42q.87 1.28.44-.21L395 492.21a1.12 1.11 70.6 00-1.49-.72M413.55 494.54a.69.69 0 00-.28-1.03l-4.34-1.89a.69.69 0 00-.96.5l-2.2 11a.69.69 0 001.23.54l6.55-9.12M466.02 497.46c2.84 1.66 5.58 1.67 8.37 3.32a.7.7 0 00.86-.12l2.45-2.51a.53.52 23.2 00-.36-.89l-11.15-.38q-1.25-.05-.17.58M467.63 510.3a.33.33 0 00.52.05l4.52-4.76a.33.33 0 00-.08-.51l-12.69-7.53a.33.33 0 00-.44.47l8.17 12.28M459.2 503.04l1.77 10.71a.75.75 0 00.74.63q2.75-.03 3.85-2.3a1.07 1.06-47.9 00-.05-1.03c-.55-.85-5.33-8.79-5.76-8.58a.82.34-23.5 00-.55.57M408.46 532.95a.34.34 0 00.49.2l3.55-1.87a.34.34 0 00.11-.51l-6.82-8.63a.34.34 0 00-.59.32l3.26 10.49M394.02 533.48a.63.63 0 00.52.92l5.18.34a.63.63 0 00.67-.62l.11-10.35a.63.63 0 00-1.19-.3l-5.29 10.01"/><path stroke="#8d8b7d" vector-effect="non-scaling-stroke" d="M405.48 533.35l-1.93-6.07q-.37-1.2-.36.05l.08 6.32a.61.6 88.2 00.63.6l.97-.03a.67.67 0 00.61-.87"/></g><path d="M0 0h590.06l.19.29v589.46a.5.49 0 01-.5.49q-293.79.03-587.58-.01c-.57 0-1.25-.28-1.92-.19l-.25-.1V0zm586.25 4.51a.26.26 0 00-.26-.26H4.51a.26.26 0 00-.26.26v581.48a.26.26 0 00.26.26h581.48a.26.26 0 00.26-.26V4.51z"/><path fill="#1c1a1c" d="M590.06 0h.94v587.31c-.84-.45-.25-537.06-.25-586.81a.25.24-86.1 00-.21-.25q-.17-.02-.29.04l-.19-.29z"/><path fill="#fdfbde" d="M590.25.29q.12-.06.29-.04a.25.24-86.1 01.21.25c0 49.75-.59 586.36.25 586.81V591H13.19q-6.21-.43-12.44-.26c-.51.02-.64-.24-.5-.7.67-.09 1.35.19 1.92.19q293.79.04 587.58.01a.5.49 0 00.5-.49V.29z"/><path fill="#fdfbde" d="M586.25 585.99a.26.26 0 01-.26.26H4.51a.26.26 0 01-.26-.26V4.51a.26.26 0 01.26-.26h581.48a.26.26 0 01.26.26v581.48zM46.4 91.9q23.42-23.46 47.24-47.87a1.34 1.34 0 00-.96-2.28q-18.37-.03-37.51.03c-12.69.04-23.51 4.08-23.6 18.54q-.14 21.81-.04 43.72a.65.65 0 00.88.6c3.52-1.34 11.01-9.77 13.99-12.74zm65.27 190.38l-5.86-.33a.61.6 83.8 00-.61.77q2.04 7.18 5.73 13.68a.61.61 0 01-.49.9l-2.4.17a.63.62 75.8 00-.52.88c4.06 8.84 7.07 18.05 11.2 26.86a.33.33 0 01-.33.46l-4.65-.35a.49.49 0 00-.49.69q2.27 5.14 6.66 8.67a.49.49 0 01-.07.81l-2.86 1.54a.61.61 0 00-.25.83q6.36 11.9 18.63 17.62a1.24 1.23 36.4 01.31 2.04l-1.75 1.57a.69.69 0 00-.16.82c5.47 11.12 22.27 22.39 32.69 27.55 16.35 8.09 34.83 13.74 52.3 14.54 22.29 1.03 39.96 1.67 60.75-1.03q8.26-1.07 22.28-6.75a.47.47 0 01.62.29q5.62 16.77 8.18 34.28c.33 2.27 1.18 4.23 1.77 6.46q.13.47-.33.32-10.12-3.33-19.08-9.09a.8.79 22.1 00-1.21.51c-.7 3.47-1.27 6.32-.93 10.05q.33 3.68.2 7.41a1.41 1.41 0 00.28.9q2.45 3.34 2.93 7.36c.37 3.04 1.26 4.86 2.31 7.44a.97.96 60.8 001.45.42q3.37-2.46 6.38-5.16c3.24-2.92 6.18-7.27 9.57-10.67a.53.53 0 01.86.16c5.89 12.82 10.84 25.22 19.97 35.65a.26.26 0 01-.23.42q-13.07-1.73-26.27-1.66a.58.58 0 00-.58.56c-.38 14.59 8.65 26.69 21.44 32.86a.64.64 0 00.74-.14q8.75-9.43 12.16-21.84a.54.54 0 01.94-.2q20.83 25.19 54.02 26.52a.4.4 0 01.32.61c-3.68 5.95-7.94 12.45-8.72 19.57a.59.59 0 00.44.64q13.15 3.5 25.51-2c1.48-.66 3.21-.75 4.58-2.49a.88.87-37.8 00.12-.88c-2.35-5.61-6.7-9.29-10.47-13.64a.38.38 0 01.29-.63c16.59.41 33.01-2.14 44.89-14.62a.58.58 0 011 .34q.69 7.51 2.42 14.82a1.67 1.67 0 001.85 1.28c5.18-.69 7.96-1.37 10.35-6.38a1.34 1.32.4 01.66-.64q4.68-2.07 7.3-6.27c2.56-4.11 6.25-7.59 5.33-13.05a.56.56 0 00-.59-.47q-4.52.25-8.94-.52c-3.47-.61-6.85-.26-10.35-.89a.33.33 0 01-.22-.51c12.18-18.44 16.71-43.69 8.99-64.88a.39.39 0 01.48-.5c2.62.86 4.37 2.86 6.59 3.77q5.6 2.3 11.18 3.44a1.07 1.06-78.8 001.26-.85c2.21-11.61-.45-20.21-8.78-28.49a1.59 1.58-35.5 00-1.82-.3c-4.99 2.44-8.35 8.86-10.96 13.45a.52.52 0 01-.97-.15c-1.72-8.48-7.88-18.21-12.51-25.51q-2.25-3.56-6.24-7.98c-3.85-4.27-6.89-8.87-11.78-12.47q-.4-.29.09-.29c5.28.03 17.44-.06 21.55-3.54a.72.71-30.7 00.21-.8c-3.47-8.97-13.13-18.74-23.07-20.46a.6.59 9.7 00-.69.48l-3.49 19.3a.82.81 18.6 01-1.18.58c-22.38-11.52-38.38-26.47-47.39-50.15a.31.31 0 01.43-.39q9.67 4.91 20.4 6.61a1.07 1.05-79 001.2-.82c1.41-6.44 2.18-20.9-2.63-26.12a.81.8-36.7 00-1-.14l-20.3 12.16a.3.3 0 01-.45-.18c-4.02-15.75-4.25-37.68 2-55.85a.95.91-86.6 01.64-.59c9.93-2.54 20.21-8.66 32.35-14.69 7.54-3.74 17.2-6.98 25.44-11.6 5.5-3.08 11.1-5.34 16.58-8.3 1.72-.94 2.61-2.03 2.77-3.91q.98-11.45-.95-22.81a.37.36-19.8 00-.54-.25l-7.57 4.17a1.46 1.46 0 01-2.06-.73l-7.11-17.31a1.47 1.46 60.1 00-2.24-.61c-3.44 2.61-8.08 7.57-11.64 8.93a1.01.99 52.3 01-.94-.13q-7.93-5.76-12.36-14.63a1.14 1.13 50.3 00-1.92-.18c-8.62 11.36-16.8 23.42-22.45 36.07q-8.81 19.72-11.75 41.24-.57 4.16-1.91 9.1c-4.07 14.94-3.22 30.38-1.91 45.64q.2 2.31.84 5.06a.59.59 0 01-.93.6c-4.99-3.81-9.14-7.97-13.58-12.48a1.5 1.49-52.8 00-2.38.33c-4.66 8.49-3.25 20.89.84 29.36a.5.49 61.3 00.7.21l16.85-10.11a.37.37 0 01.54.19c4.03 10.74 9.02 20.66 16.37 29.57q13.84 16.8 33.85 25.85a.43.43 0 01-.1.82q-10.89 2.12-21.5 5.41a1.27 1.27 0 00-.85 1.52q4.2 16.69 20.9 21.19a.72.72 0 00.8-.32q2.19-3.66 3.55-7.68c1.54-4.54 1.44-10.55 2.92-15.89a.36.36 0 01.55-.2q6.93 4.71 10.87 12.02c.95 1.78 2.63 2.52 3.66 3.94q9.2 12.72 15.61 27.91a.96.96 0 01-1.24 1.26q-8.05-3.26-16.46-5.03a.55.55 0 00-.65.43c-2.35 11.1 0 20.68 7.88 28.77a1.36 1.35-42.5 001.86.08q6.55-5.65 10.98-13.08.33-.55.47.07c2.87 12.64 2.72 24.38.06 36.99-1.86 8.82-5.71 15.78-10.78 23.07a.93.93 0 01-1.69-.56c.26-6.89.21-20.91-4.68-26.48a.62.62 0 00-.78-.12c-8.44 4.92-20 15.11-23.07 24.68q-.58 1.83 1.25 2.39c7.56 2.33 15.35 4.81 23.24 5.28q3.41.2.9 2.52c-4.22 3.9-8.54 8.84-13.75 11.17-11.01 4.91-22.15 4.9-33.59 4.52a.31.31 0 01-.24-.48q4.91-6.86 10.19-13.5 2.75-3.46 2.53-9.63a.71.71 0 00-.5-.65q-3.12-.99-6.24-2.09c-4.44-1.57-9.64-.78-14.36-1.16-4.05-.33-8.4 1.83-12.19 3.14a.86.85 85.9 00-.57.66c-.95 5.25 9.88 18.92 12.82 22.42q.32.38-.18.35-32.83-1.62-52.95-27.25a.23.23 0 01.22-.37q15.14 2.58 30.46 1.2a.95.95 0 00.85-1.09c-.8-4.98-1.89-10.74-5.39-14.56-2.37-2.6-5.23-8.27-8.91-8.39a.93.9 71.7 01-.71-.37l-6.3-8.27a1.85 1.85 0 00-3 .08c-2.25 3.34-4.64 6.52-6.09 10.33q-2.92 7.67-5.61 15.42a.38.38 0 01-.7.04c-1.13-2.36-3.29-4.2-4.41-5.77q-7.15-9.98-12.77-24.44-1.42-3.64-1.6-5.56a.32.32 0 01.43-.33c4.73 1.79 9.07 3.81 14.16 4.16q3.78.26 7.51.33a.5.5 0 00.5-.39q1.79-7.69-2.78-13.63-.34-.43-.41-.97-.35-2.65-1.85-4.84-.25-.36-.29-.8-.34-4-2.64-7.19a.69.68 58.7 00-.85-.21q-8.93 4.32-15.35 11.88-2.31 2.71-3.01-.78-3.87-19.01-9.14-37.68a.71.71 0 01.31-.79c5.51-3.4 11.1-6.45 15.51-10.96 10.12-10.35 17.04-24.92 20.95-38.81 5.82-20.65 6.8-37.8 5.86-60.73q-.57-13.94-4.87-31.76c-3.36-13.88-7.89-24.52-16.09-35.29a1.48 1.47 47.7 00-2.26-.11l-1.76 1.9a.33.33 0 01-.54-.1c-4.66-11.08-9.13-20.43-17.43-29.38a.73.73 0 00-1.25.33l-.84 3.54q-.23.95-.87.21c-6.17-7.16-14.33-16.01-23.17-19.67a.42.42 0 00-.58.38l-.13 4.93q-.02.78-.62.29-13.99-11.52-31.35-15.75-22.52-5.48-48.12-10.88c-10.51-2.22-22.55-5.7-31.31-7.51-19.94-4.11-38.62-9.12-55.2-18.41q-.44-.25-.34.24 4.05 20.8 1.33 40.87c-1.76 12.91-5.01 28.18-5.82 41.89-1.5 25.32-1.23 52.24 4.29 73.81a.4.4 0 01-.41.5z"/><path fill="#fae1a9" d="M46.4 91.9c-2.98 2.97-10.47 11.4-13.99 12.74a.65.65 0 01-.88-.6q-.1-21.91.04-43.72c.09-14.46 10.91-18.5 23.6-18.54q19.14-.06 37.51-.03a1.34 1.34 0 01.96 2.28Q69.82 68.44 46.4 91.9z"/><path fill="#1c1a1c" d="M112.08 281.78c-5.52-21.57-5.79-48.49-4.29-73.81.81-13.71 4.06-28.98 5.82-41.89q2.72-20.07-1.33-40.87-.1-.49.34-.24c16.58 9.29 35.26 14.3 55.2 18.41 8.76 1.81 20.8 5.29 31.31 7.51q25.6 5.4 48.12 10.88 17.36 4.23 31.35 15.75.6.49.62-.29l.13-4.93a.42.42 0 01.58-.38c8.84 3.66 17 12.51 23.17 19.67q.64.74.87-.21l.84-3.54a.73.73 0 011.25-.33c8.3 8.95 12.77 18.3 17.43 29.38a.33.33 0 00.54.1l1.76-1.9a1.48 1.47 47.7 012.26.11c8.2 10.77 12.73 21.41 16.09 35.29q4.3 17.82 4.87 31.76c.94 22.93-.04 40.08-5.86 60.73-3.91 13.89-10.83 28.46-20.95 38.81-4.41 4.51-10 7.56-15.51 10.96a.71.71 0 00-.31.79q5.27 18.67 9.14 37.68.7 3.49 3.01.78 6.42-7.56 15.35-11.88a.69.68 58.7 01.85.21q2.3 3.19 2.64 7.19.04.44.29.8 1.5 2.19 1.85 4.84.07.54.41.97 4.57 5.94 2.78 13.63a.5.5 0 01-.5.39q-3.73-.07-7.51-.33c-5.09-.35-9.43-2.37-14.16-4.16a.32.32 0 00-.43.33q.18 1.92 1.6 5.56 5.62 14.46 12.77 24.44c1.12 1.57 3.28 3.41 4.41 5.77a.38.38 0 00.7-.04q2.69-7.75 5.61-15.42c1.45-3.81 3.84-6.99 6.09-10.33a1.85 1.85 0 013-.08l6.3 8.27a.93.9 71.7 00.71.37c3.68.12 6.54 5.79 8.91 8.39 3.5 3.82 4.59 9.58 5.39 14.56a.95.95 0 01-.85 1.09q-15.32 1.38-30.46-1.2a.23.23 0 00-.22.37q20.12 25.63 52.95 27.25.5.03.18-.35c-2.94-3.5-13.77-17.17-12.82-22.42a.86.85 85.9 01.57-.66c3.79-1.31 8.14-3.47 12.19-3.14 4.72.38 9.92-.41 14.36 1.16q3.12 1.1 6.24 2.09a.71.71 0 01.5.65q.22 6.17-2.53 9.63-5.28 6.64-10.19 13.5a.31.31 0 00.24.48c11.44.38 22.58.39 33.59-4.52 5.21-2.33 9.53-7.27 13.75-11.17q2.51-2.32-.9-2.52c-7.89-.47-15.68-2.95-23.24-5.28q-1.83-.56-1.25-2.39c3.07-9.57 14.63-19.76 23.07-24.68a.62.62 0 01.78.12c4.89 5.57 4.94 19.59 4.68 26.48a.93.93 0 001.69.56c5.07-7.29 8.92-14.25 10.78-23.07 2.66-12.61 2.81-24.35-.06-36.99q-.14-.62-.47-.07-4.43 7.43-10.98 13.08a1.36 1.35-42.5 01-1.86-.08c-7.88-8.09-10.23-17.67-7.88-28.77a.55.55 0 01.65-.43q8.41 1.77 16.46 5.03a.96.96 0 001.24-1.26q-6.41-15.19-15.61-27.91c-1.03-1.42-2.71-2.16-3.66-3.94q-3.94-7.31-10.87-12.02a.36.36 0 00-.55.2c-1.48 5.34-1.38 11.35-2.92 15.89q-1.36 4.02-3.55 7.68a.72.72 0 01-.8.32q-16.7-4.5-20.9-21.19a1.27 1.27 0 01.85-1.52q10.61-3.29 21.5-5.41a.43.43 0 00.1-.82q-20.01-9.05-33.85-25.85c-7.35-8.91-12.34-18.83-16.37-29.57a.37.37 0 00-.54-.19l-16.85 10.11a.5.49 61.3 01-.7-.21c-4.09-8.47-5.5-20.87-.84-29.36a1.5 1.49-52.8 012.38-.33c4.44 4.51 8.59 8.67 13.58 12.48a.59.59 0 00.93-.6q-.64-2.75-.84-5.06c-1.31-15.26-2.16-30.7 1.91-45.64q1.34-4.94 1.91-9.1 2.94-21.52 11.75-41.24c5.65-12.65 13.83-24.71 22.45-36.07a1.14 1.13 50.3 011.92.18q4.43 8.87 12.36 14.63a1.01.99 52.3 00.94.13c3.56-1.36 8.2-6.32 11.64-8.93a1.47 1.46 60.1 012.24.61l7.11 17.31a1.46 1.46 0 002.06.73l7.57-4.17a.37.36-19.8 01.54.25q1.93 11.36.95 22.81c-.16 1.88-1.05 2.97-2.77 3.91-5.48 2.96-11.08 5.22-16.58 8.3-8.24 4.62-17.9 7.86-25.44 11.6-12.14 6.03-22.42 12.15-32.35 14.69a.95.91-86.6 00-.64.59c-6.25 18.17-6.02 40.1-2 55.85a.3.3 0 00.45.18l20.3-12.16a.81.8-36.7 011 .14c4.81 5.22 4.04 19.68 2.63 26.12a1.07 1.05-79 01-1.2.82q-10.73-1.7-20.4-6.61a.31.31 0 00-.43.39c9.01 23.68 25.01 38.63 47.39 50.15a.82.81 18.6 001.18-.58l3.49-19.3a.6.59 9.7 01.69-.48c9.94 1.72 19.6 11.49 23.07 20.46a.72.71-30.7 01-.21.8c-4.11 3.48-16.27 3.57-21.55 3.54q-.49 0-.09.29c4.89 3.6 7.93 8.2 11.78 12.47q3.99 4.42 6.24 7.98c4.63 7.3 10.79 17.03 12.51 25.51a.52.52 0 00.97.15c2.61-4.59 5.97-11.01 10.96-13.45a1.59 1.58-35.5 011.82.3c8.33 8.28 10.99 16.88 8.78 28.49a1.07 1.06-78.8 01-1.26.85q-5.58-1.14-11.18-3.44c-2.22-.91-3.97-2.91-6.59-3.77a.39.39 0 00-.48.5c7.72 21.19 3.19 46.44-8.99 64.88a.33.33 0 00.22.51c3.5.63 6.88.28 10.35.89q4.42.77 8.94.52a.56.56 0 01.59.47c.92 5.46-2.77 8.94-5.33 13.05q-2.62 4.2-7.3 6.27a1.34 1.32.4 00-.66.64c-2.39 5.01-5.17 5.69-10.35 6.38a1.67 1.67 0 01-1.85-1.28q-1.73-7.31-2.42-14.82a.58.58 0 00-1-.34c-11.88 12.48-28.3 15.03-44.89 14.62a.38.38 0 00-.29.63c3.77 4.35 8.12 8.03 10.47 13.64a.88.87-37.8 01-.12.88c-1.37 1.74-3.1 1.83-4.58 2.49q-12.36 5.5-25.51 2a.59.59 0 01-.44-.64c.78-7.12 5.04-13.62 8.72-19.57a.4.4 0 00-.32-.61q-33.19-1.33-54.02-26.52a.54.54 0 00-.94.2q-3.41 12.41-12.16 21.84a.64.64 0 01-.74.14c-12.79-6.17-21.82-18.27-21.44-32.86a.58.58 0 01.58-.56q13.2-.07 26.27 1.66a.26.26 0 00.23-.42c-9.13-10.43-14.08-22.83-19.97-35.65a.53.53 0 00-.86-.16c-3.39 3.4-6.33 7.75-9.57 10.67q-3.01 2.7-6.38 5.16a.97.96 60.8 01-1.45-.42c-1.05-2.58-1.94-4.4-2.31-7.44q-.48-4.02-2.93-7.36a1.41 1.41 0 01-.28-.9q.13-3.73-.2-7.41c-.34-3.73.23-6.58.93-10.05a.8.79 22.1 011.21-.51q8.96 5.76 19.08 9.09.46.15.33-.32c-.59-2.23-1.44-4.19-1.77-6.46q-2.56-17.51-8.18-34.28a.47.47 0 00-.62-.29q-14.02 5.68-22.28 6.75c-20.79 2.7-38.46 2.06-60.75 1.03-17.47-.8-35.95-6.45-52.3-14.54-10.42-5.16-27.22-16.43-32.69-27.55a.69.69 0 01.16-.82l1.75-1.57a1.24 1.23 36.4 00-.31-2.04q-12.27-5.72-18.63-17.62a.61.61 0 01.25-.83l2.86-1.54a.49.49 0 00.07-.81q-4.39-3.53-6.66-8.67a.49.49 0 01.49-.69l4.65.35a.33.33 0 00.33-.46c-4.13-8.81-7.14-18.02-11.2-26.86a.63.62 75.8 01.52-.88l2.4-.17a.61.61 0 00.49-.9q-3.69-6.5-5.73-13.68a.61.6 83.8 01.61-.77l5.86.33a.4.4 0 00.41-.5zm-.54-29.03c.89 11.2 2.09 22.92 6.14 33.05a.7.7 0 01-.21.79q-1.18.95-2.79 1.31-1.61.16-2.71-.39-.91-.47-.59.5 2.12 6.4 5.32 11.04.33.49.13.89a.92.89 11.3 01-.73.47l-2.29.19a.54.54 0 00-.46.73l2.73 6.91q4.37 11.23 9.95 22.29a.33.32-13.2 01-.3.47l-3.72-.01q-1.34 0-.18.67 3.47 1.98 5.33 5.54a.71.69-39.7 01-.08.76q-1.5 1.78-3.76 2.06a.41.41 0 00-.29.64c3.98 5.75 12.37 10.49 18.72 14.13q1.06.56 1.72 1.45a.68.68 0 01-.02.84q-1.79 2.12-4.26 3.18a.43.43 0 00-.16.68q12.84 15.16 29.03 22.76c6.83 3.21 19.85 9.14 29.62 10.84 21.83 3.82 43.85 4.82 66.82 3.91q7.8-.31 14-1.66l20.26-5.63a.63.62 79.8 00.45-.65q-.69-7.96-4.25-15.27.09-1.16-.59-2.15a.79.77-21.5 00-.79-.33l-13.33 2.45-43.56 4.29c-5.18-.48-10.63-.36-15.56-1.01q-9.44-1.22-18.89-2.43c-11.17-1.44-18.77-5.78-27.82-10.73a.36.36 0 01.01-.63c1.4-.74 7.16 1.8 8.7 2.52a.34.34 0 00.44-.46c-2.02-3.96-5.04-10.11-9.04-12.3q-9.48-5.21-15.53-14.31-.36-.54.15-.14l7.31 5.74q4.81 4.79 10.68 8.19.76.44 1.4 1.06 3.57 4.95 6.5 10.3c2.66 4.84 14.12 6.3 18.52 7.06 4.13.7 3.96-3.37 2.15-5.67q-4.46-5.63-8.9-11.34-.31-.4.12-.13 6.54 4.05 10.36 10.78a1.64 1.61 87.8 00.7.66q1.5.75 2.01.83c7.08 1.22 10.44 7.14 17.53 7.54q6.38.37 12.72-.49l18-1.33 5.75-.75 12.25-1 14.76-2.54.71-.17a.4.4 0 00.27-.54q-7.18-17.33-17.53-32.96-1.9-3.78-5.26-5.81a1.33 1.28 53.5 00-.95-.16q-11.79 2.5-23.78 3.66a.46.46 0 00-.4.56c1.45 6.17 1.76 10.95-.88 16.8-1.24 2.75-.22 5.61-1.59 8.36q-.8 1.62-1.16-.15-1.33-6.54 2.27-11.82a1.91 1.9 62.7 00.33-1.04c.1-3.55.91-13.84-4.58-12.87-20.12 3.55-41.13.49-61.39-.37q-2.24-.09-5.32-.87l-5.87-1.23c-5.85-2.24-14.93-4.69-20.26.42a.12.09 27 01-.12.02l-.24-.08a.13.13 0 01-.06-.2c6.97-8.61 21.73-4.29 30.52-2.14q.49.11.11-.22-6.38-5.63-12.63-11.44-1.6-1.48-3.75-2.15-6.48-2.02-12.67-4.88a.19.19 0 01.12-.36c4.31 1 14.23 2.45 17.29 5.45 4.37 4.27 9.96 10.56 15.39 13.26 3.14 1.56 7.5.95 11.26 1.31q2.06.2.59-1.26-3.82-3.79-6.26-8.53a.5.5 0 01.8-.58c3.11 3.12 5.93 7.31 9.43 10.18a1.67 1.66 66.5 00.91.36l15.89 1.22q.48.04.24-.38-12.81-22.7-17.73-30.29-3.52-5.4-11.21-5.23c-10.58-1.7-21.89-2.62-32.04-6.05q-6.47-2.19-13.17-4.08l-3.61-2.85q-.38-.3.09-.39 2.88-.56 3.71-.25 12.33 4.62 25.5 6.03.5.05.16-.32-2.81-3.17-6.2-5.73c-3.24-2.46-6-6.89-9.22-8.37-3.94-1.81-10.46-1.43-14.81-4.39q-4.77-3.25-6.7-8.95a.52.52 0 01.92-.45c2.15 3.18 5.61 8.02 9.45 9.02a.49.49 0 00.6-.39l1.03-6.12q.29-3.02-1.96-5.04-.17-1.25-.54-1.68-3.57-4.13-3.73-9.63a1.19 1.18 16.3 00-.52-.94l-3.71-2.48a.25.04 33.7 01-.19-.17l.2-.22a.26.25 31.1 01.3-.07q9.41 4.1 19.58 5.49c2.4.33 3.76-.77 4.36-2.97 1.21-1.66 1.43-3.3.26-5.18q-4.71-7.6-6.15-15.67-.58-3.24-2.2-5.45-.32-1.86-1.63-3.64-.3-.41.18-.24c3.45 1.23 6.14 10.67 7.58 14.14q1.84 6.39 6.73 11.19 1.88 2.9 4.69 5.31c4.37 4.33 7.2 7.39 12.79 7.21q1.32.51 1.76.53 15.46.72 30.97 1.92a.33.33 0 00.33-.44q-.72-1.97-2.26-3.53-6.55-6.65-12.41-13.9c-2.99-3.7-9.15-10.17-12.69-16.2a1.1 1.07-9.7 00-.74-.51l-14.71-2.54-13-4.58q-6.28-2.86-12.08-6.77a.5.5 0 00-.7.14c-3 4.36-5.14 8.39-5.51 13.88q-.41 6.24.05 12.79a.36.36 0 01-.68.19q-1.24-2.45-1.62-5.69c.1-4.18-.75-10.3 1.07-14.08l4.61-7.9a1.27 1.26-56.5 00-.33-1.64c-3.32-2.49-10.04-2.34-14.31-3.21a.59.59 0 01.08-1.16l8.6-.58a.49.49 0 00.45-.58c-.79-4.22-1.68-10.3-4.57-13.62q-1.37-1.57-2.57-3.33-.3-.42.18-.22c7.22 3.14 8.67 11.39 11.03 17.95a1.32 1.32 0 00.61.71c6.09 3.29 12.47 7.15 18.38 9.55q9.89 4.02 20.51 5.74.49.08.18-.31l-5.05-6.55c-9.4-13.07-18.78-25.82-27.59-39.27-2.69-5.52-7.24-12.24-8.54-18.23q-.1-.48.19-.08l34.57 48.56 3.47 4.7q.33.46.53-.07.91-2.52 1.26-6.88 1.12-14.21-.14-25.04.28-1.58-.15-3.31a1.8 1.77 14.6 00-.52-.87q-3.28-3-4.87-7.18a.44.44 0 01.74-.45q2.99 3.39 7.06 5.41a1.54 1.53-87.9 01.75.81l1.22 3.09a.6.6 0 001.15-.08q1.08-4.54 5.22-6.64a.5.5 0 01.59.1q.42.43-.02.87c-3.46 4.31-5.51 10.03-5.62 15.59-.19 9.79.21 18.22-2.53 28.48a1.15 1.13-54.3 00.14.91q6.48 10.05 14.26 19.1l9.96 11.71 1.83 2.14q.38.45.52-.13c3.63-15.21 3.66-33.63 2.9-48.51.39-8.02-4.78-10.74-9-16.62q-.31-.43.23-.41c2.7.13 5.48 4.27 7.15 6.38a1.3 1.29-54.1 002.23-.36c.21-.58 1.51-5.38 2.74-4.95a.52.51 20.9 01.31.68q-2.4 5.73.26 11.59a.36.36 0 00.58.11l4.22-4.23a1.04 1.03 24.1 01.8-.3q5.56.43 11.01-.51c4.68-.8 15.31-.33 19.03 2.91a.29.29 0 00.47-.26c-1.02-6.35-6.28-8.02-7.64-14.3-1.85-8.57-5.57-10.24-13.85-10.69l-16.67-3.55q-8.17-2.57-16.83-4.2-6.22-.67-12-3-7.87-2.31-16-3.25l-19.61-4.15-4.85-1.39-18.49-6.65q-1.04-1.17-2.75-1.48a.43.43 0 00-.5.43c.73 22.3-1.09 36.97-4.71 60.32-3.02 19.42-3.18 38.88-1.8 58.38zm128.5-86.5c.79 4.1 1.83 8.07 4.97 11.11q4.56 4.42 5.4 10.9a.98.98 0 001.1.84l5.72-.78a1.46 1.46 0 00.97-.59l1.44-2.02q.88-1.21.6.26-.33 1.82-1.27 3.39a1.22 1.2 9 01-.8.57l-6.57 1.35a.58.57 82.1 00-.46.61l1.61 19.89a.26.25 76.1 00.35.22c7.01-3.08 12.23-6.95 20.29-10.29 4.11-1.7 5.87-5.09 6.53-9.22a.21.2-70.8 01.3-.15l.3.16a.62.62 0 01.28.77q-.63 1.62.01 3.2a1.2 1.2 0 01-.04 1q-2 3.96-3.57 4.76-11.92 6.02-24.06 11.88a.8.78-13.3 00-.45.71q-.01 20.03-3.76 39.7-.47 2.47 1.42.8c2.44-2.16 6.23-5.61 7.15-9.08q2.09-7.91 4.59-19.76a.37.37 0 01.57-.22q.62.44.38 1.24-.67 11.06-4.2 21.59c-.97 2.91-8.64 8.99-10.81 11.01a1.61 1.6-15 00-.48.83q-1.97 8.25-5.56 16.8-.81 1.93.72 3.27 13.23 14.95 24.16 31.94a.61.6-50.6 001.07-.11l9.52-23.83q5.97-19.87 7.99-40.45c.78-7.82.64-16.86.82-25.27q.02-.56-.45-.26l-1.57 1.02c-6.16 1.12-15.78 4.06-17.62-1.11q-.29-.82.44-.35l1.9 1.21a1.44 1.43-30 00.83.22c4.57-.25 15.91-.28 16.86-6.32q1.2-7.56-.42-15.68-.19-.95.1-2.98.08-.5.29-.04c3.07 6.57 2.66 15.08 3.88 22.26q.13.81-.14 3.77a.29.29 0 00.41.29c4.92-2.21 7.59-6.69 10.65-10.78a.45.44-15.8 01.77.43q-3.22 8.13-10.78 12.37a1.34 1.32-9.3 00-.65.89q-1.44 6.55-.96 13.26a.28.27-15.8 00.4.22l1.25-.62q1.15-.57.39.47-1.85 2.5-2.13 3.94c-2.18 11.38-2.62 27.62-7.31 41.59-2.05 6.13-6.72 15.88-9.09 24.34q-.14.49.33.29c4.97-2.06 15.85-5.66 17.6-11.25q2.05-6.59 5.21-12.71c2.55-4.64 6.31-9.19 5.87-14.91l1.47-4.81q.14-.47.23.02 1.03 5.92-.74 11.7l-6.08 11-4.91 11.99a.43.43 0 00.24.56l6.85 2.63a.91.9 36.9 00.87-.12c4.62-3.56 6.06-6.13 12.55-3.89a.48.48 0 00.61-.33l1.04-4.09q5.24-16.25 6.75-33.25l.19-3.9a.74.74 0 00-.54-.75q-4.84-1.34-9.88-.75a.42.42 0 01-.46-.51c.2-.86 8.88-.92 10.72-.88a.6.59-84.3 00.59-.49q1.04-5.94-.58-11.62c-1.3-4.56-.48-7.31.41-11.91q.85-4.34-.71-9.33.32-3.09-.9-5.67-5.42-11.5-11.77-22.69a.8.8 0 00-1.33-.09l-.99 1.34c-1.2 1.34-4.25-.92-5.38-1.86-2.3-1.93-2.89-4.86-6.58-6.35l-5.07-5.34-4.15-3.59a.42.42 0 00-.69.29l-.32 4.83a.53.53 0 01-.81.41l-4.67-2.89-4.54-3.29q-9.12-7.52-19.94-11.6l-14.28-3.89q-.46-.13-.3.32l.81 2.21zm153 53.25l7.02-10.74 3.73-5.26q3.56-2.7 6.19-6.24c3.55-4.79 7.27-9.43 10.55-14.4a.71.7-48.2 00-.04-.84l-3.49-4.31q-.43-1.72-1.84-2.91a.47.46-52.9 00-.68.1q-11.49 16.99-20.7 35.31c-3.11 6.18-4.79 12.67-6.48 19.31q-.13.51.28.18c2.3-1.85 3.78-7.39 5.46-10.2zm3.75 7.75c12.78-8.81 24.84-19.85 38.53-28.92q4.82-3.19 9.42-7.95a.88.86 58.5 00.2-.87l-2.4-7.01q-.13-1.7-1.47-2.14a.92.92 0 00-.88.15c-5.78 4.65-11.74 9.25-16.93 14.32-11.44 11.19-23.05 23.29-32.01 36.59a.28.28 0 00.42.36l5.12-4.53zm-183.84-25.02l4.46 2.08a1.79 1.76-35.8 00.99.15l9.25-1.22q1.29-.17.16.48-3.38 1.95-7.31 2.25a1.45 1.38-66.5 00-.85.36c-2.97 2.68-9.05 6.47-8.22 11.67a1.66 1.57 55.8 01-.16.99q-.25.49-.16.92a.42.41 70.9 00.59.29l3.95-2.02q1.39-.7.34.46l-2.75 3.07q-1.95.96-2.11 2.71c-.63 6.85-2.98 13.54-3.27 20.23a1.21 1.18 24.9 00.33.87q13.84 14.43 27.58 28.96.97 1.01 1.76 1.36a.98.97 19.6 001.34-.63l5.42-19.46q2.28-7.31 2.5-15.04a1.02 1.01 22.4 00-.32-.76q-4.51-4.2-5.85-10.2a.43.43 0 01.78-.33l5.41 8.15a.39.39 0 00.71-.19l.94-17.13q-.02-12.66-.68-25.29c-.15-3.04-1.25-6.12-3.97-7.27q-8.55-3.61-18.47-1.52c-4.62.97-8.7.22-12.49 4.6-2.43 2.8-1.05 8.28.1 11.46zm181.8 39.98q18.49-9.55 37.75-17.42l24.7-12.32a.7.69 77.2 00.39-.63l-.09-14.61a.3.3 0 00-.46-.25c-6.61 4.19-12.84 6.9-20.25 11.75-12.9 8.45-25.18 17.85-38.09 26.34-4.71 3.11-8.83 6.9-13.31 10.44a.36.36 0 00.37.62l8.99-3.92zm-178.12-36.89c-1.11-.41-3.18-.59-4.31-.73a.47.47 0 00-.53.44l-.34 5.26q-.07 1.08.71.33l4.65-4.44a.52.51-57 00-.18-.86zm109.12 16.47l-2.06 1.88a1.08 1.05 67.9 00-.35.86q.41 6.82-.87 13.5c-.74 3.87.33 6.84 2.02 10.1a.46.45-29.5 00.64.17q3.05-1.92 4.87-5.03a.44.44 0 01.82.27q-.44 4.15-4.06 6.11a1.12 1.12 0 00-.57.8q-1.81 11.65-2.08 23.3l-4.65 21.75-1.77 8.28c-2.89 8.7-6.41 17.13-9.66 25.65a.78.77-58.7 00.2.84q.39.35 1.1.07 1.59 1.56 2.96 3.28c2.22 2.78 4.97 4.27 7.42 6.77q.62.63-.22.36-5.69-1.84-9.62-6.31a.63.62 53.4 00-.8-.12l-3.39 2.14q-5.9 8.74-10.76 17.85a1.03 1.02-43.4 00-.03.89c4.42 10.06 9.2 20.05 13.23 30.24a.49.49 0 00.64.28c14.09-5.69 24.36-25.57 28.69-39.22 2.97-9.38 6.25-18.82 7.21-28.44q1.33-13.23.8-26.56l-.12-5.46c-.15-16.3-3.66-27.56-7.12-41.65-2.12-8.66-5.79-15.51-10.34-22.77a1.07 1.06-12.4 00-.78-.49q-.75-.08-1.35.66zm-170.87 25.93a.33.33 0 00.22.46l6.22 1.49a.33.33 0 00.34-.52l-4.39-5.46a.33.33 0 00-.55.07l-1.84 3.96zm19.41 8.28l-11.04-2.21q-10.75-3.33-21.82-5.45c-1.75-.33-3.73-1.32-5.66-1.7a.38.37 2.9 00-.45.4c.68 7.98 8.99 9.27 4.83 18.84a2.17 2.16-71.4 001.47 2.97c3.74.92 9.25 1.84 12.15 5.11 3.14 3.54 11.86 12.83 16.24 13.96q17.8 4.62 36.18 3.82c10.96-.48 22.92.09 33.62-2.26a.31.31 0 00.17-.5l-28.15-31.31a1.35 1.3 68 00-1.01-.45l-9.18.1a1.26 1.24 21.1 00-.92.4q-7.24 7.77-9.56 9.71c-6.19 5.14-18.25 3.38-25.15 1.78q-.49-.12.01-.17 5.6-.55 12.98-.1c9.41.58 13.63-5.55 19.14-11.69q.34-.38-.17-.37-11.91.25-23.68-.88zm57.89 66.24q1.48 2.72.54 5.79a.99.99 0 00.98 1.28q16.67-.51 33.06-3.54a.4.4 0 00.29-.56q-1.63-3.48-3.96-6.55c-6.33-8.37-12.27-17.26-19.23-25.11a.92.92 0 00-.82-.3q-10.39 1.35-20.85 2.15c-4.76.36-9.99.11-15.06.3-4.27.16-3.53 2.44-3.54 5.61-.02 8.32 3.56 19.43 9.47 25.27 4.31 4.26 10.87 4.05 16.46 3.33a.84.84 0 00.72-.7l1.03-6.8a.49.49 0 01.91-.17zm-30.96-25.27q.16-.41.16-.87a.66.65-.4 00-.68-.66l-5.81.21q-.72.03-.33.63l5.54 8.6q1.75 2.71 1.49-.51l-.5-6.44q-.04-.5.13-.96zm160.93 7.98a.31.31 0 00.2.34l6.3 2.41a.31.31 0 00.34-.51l-5.66-6.08a.31.31 0 00-.54.16l-.64 3.68zm39.4-.84l-.15-2.02a.51.51 0 00-.76-.4c-1.62.93-2.69 2.26-4.42 2.98q-2.65 1.12-5.09 2.71-1.23.8.18.4l9.59-2.74a.9.9 0 00.65-.93zm-100.26 5.64q-.49 7.24 3.25 13.8a.91.9-48 001.62-.09l.63-1.46q2.67-5.34 3.67-11.25l1.9-6.07a.68.68 0 00-.28-.77q-.93-.61-2.53-.54-6.61-.4-8.26 6.38zm-18.08.25l-11.86 5.26a1.56 1.55 61 00-.65 2.28c5.05 7.54 10.75 14.79 15.19 23q2.68 4.96 5.61 9.83a.33.33 0 00.55.02c1.31-1.86 14.26-22.59 11.25-24.96q-5.12-7.26-3.94-16.58a.76.74-72.6 00-.38-.75q-3.64-2.03-7.67-2.91a1.19 1.17-54.5 00-.9.16l-7.2 4.65zm118.87.39a.66.65 86.8 00.64-.72l-.26-2.4a.33.33 0 00-.47-.26c-1.8.84-9.85 2.36-10.24 2.99q-.35.56.3.55l10.03-.16zm-33.09-.39l-6.3-1.95a.57.57 0 00-.73.61l.27 2.21a.63.62 83.3 00.68.54l7.6-.72q.55-.05.08-.34-.34-.21-.77-.22-.42-.01-.83-.13zm23.46 3.54c2.15 1.78 6.36 2.23 9.1 3.08a.57.57 0 00.74-.45l.51-2.81a.48.48 0 00-.46-.56l-10.56-.16a.22.22 0 00-.17.36q.11.12.25.2.55.31.59.34zm-28.8-.23q-.17-.1-.34-.08a.64.63 83.2 00-.57.73l.39 2.54a.49.49 0 00.73.35c.97-.56 5.74-2.53 5.21-3.7a.67.66-16.8 00-.71-.38l-4.21.64a.76.74-33.1 01-.5-.1zm80.05 40.58a.6.6 0 00-.32-.89l-2.93-.98a.6.6 0 00-.78.43l-2.21 8.97a.6.6 0 001.09.47l5.15-8zm2.83 2.49q-.42-.64-1.06-.87a.6.59 25 00-.73.26l-3.9 6.79a.22.22 0 00.31.3l6.97-4.31a.45.45 0 00.15-.61q-.37-.62-1-.92a1.78 1.73 85.1 01-.74-.64zm-3.07 9.33l10.34-1.34a.31.31 0 00.21-.48l-2.47-3.51a.68.66 61.2 00-.8-.24q-4.17 1.65-7.8 4.24-2.39 1.71.52 1.33zm-235.33 6.73l10.32 1.59q.85.13.12-.33c-2.12-1.32-6.52-4.33-8.98-4.13a1.01 1-79.5 00-.82.57l-.89 1.83a.33.33 0 00.25.47zm204.43 6.3q.43 2.55 2.13 4.56a.64.63 49.1 00.9.07l7.54-6.52a.44.44 0 00-.48-.72q-4.56 2.29-9.67 2.13a.41.41 0 00-.42.48zm9.86 12.5c1.09.13 2.12.48 3.12.99a.5.49 26.8 00.67-.21c2.76-5.43 2.23-9.73 3.38-14.94a.18.18 0 00-.33-.12l-7.2 13.59a.48.48 0 00.36.69zm-5.57-4.69l2.85 2.67a.61.61 0 001-.28q1.48-5.47 4.78-10.06 1.62-2.25-.52-.48l-8.06 6.66a1 .99 47.1 00-.05 1.49zm63.9 22.3q-3.12 3.87-5.07 8.47a.56.55 86.7 00.78.7l7.2-4.07a.67.66 60 00.24-.92l-2.41-4.13a.45.45 0 00-.74-.05zm-2.07 10.63c.61.25 6.17-.79 7.2-.99a.48.48 0 00.35-.67l-.95-2.05a.57.57 0 00-.91-.18q-2.44 2.27-5.66 3.28a.33.32-42.4 00-.03.61zm-24.83 5.36l8.65-.51q.59-.04.07-.33-3.89-2.19-8.32-2.96l-1.41-.82a.45.45 0 00-.64.2q-1.53 3.34 1.65 4.42zm23.87-1.45c1.23 1.88 6.86 3.52 9.04 3.83a.6.6 0 00.66-.45q.76-3.05-.71-5.82a.7.69-19.3 00-.75-.36l-7.69 1.5a.85.85 0 00-.55 1.3zm-145.41 3.1c-1.5 1.19-10.12 6.95-10.05 8.24a.35.35 0 00.51.3c2.12-1.04 9.27-3.52 10.23-5.26q.84-1.54-.05-3.15a.43.42-33.4 00-.64-.13zm122.62.59l-1.62-.35q-.98-.21-.64.74l1.5 4.16a.75.75 0 001.17.34l6.65-5.21q.83-.65-.22-.5l-5.84.85q-.5.07-1-.03zm.44 7.72a.39.39 0 00-.09.52l1.29 1.98a.39.39 0 00.64.03l5.7-7.33a.39.39 0 00-.55-.55l-6.99 5.35zm-119.48-1.54a.68.68 0 00-.45-.73c-.89-.3-10.46 4.12-12.25 4.73a.33.33 0 00.16.63q5.19-.8 10.65-1.46c2.21-.27 1.66-1.5 1.89-3.17zm-37.25 5.8q3.33.44 6.66-.57.8-.24-.02-.39-4.46-.84-8.1-3.5a.96.95 24 00-1.5.57l-.7 3.38a.72.72 0 00.24.7q1.13.95 2.43.05a1.43 1.42-58.5 01.99-.24zm26.7.92c1.82 2.29 9.68 3.33 12.46 3.18a.64.63-85.3 00.59-.51q.48-2.33-.77-4.31a.65.64-23.2 00-.71-.28q-5.6 1.4-11.36 1.49a.27.27 0 00-.21.43zm-28.42 5.85c.57-.38 9.11-4.71 9.08-4.83a.49.47 76.9 00-.61-.39q-3.88 1.15-7.97 1.3c-1.32.04-2.16.55-1.68 2.02q.1.3.08.61-.06.72.31 1.17a.6.6 0 00.79.12zm1.14 2.45l.39 5.5q.05.7.56.21 5.79-5.65 10.81-11.99.64-.81-.29-.35l-10.8 5.43a1.25 1.25 0 00-.67 1.2zm54.59 11.67q-4.24 7.66-6.95 16.01a.6.59 81.2 00.91.67q2.82-2.06 5.58-4.61c1.64-1.5 4.03-2.68 5.69-4.66a.6.59-48 00-.03-.81q-2.81-2.81-4.32-6.55a.49.49 0 00-.88-.05zm-5.54 21.16l17.75-7.41a.94.93-24.1 00.49-1.26l-1.89-4.04a1.13 1.13 0 00-1.74-.39c-1.95 1.61-14.91 11.89-15.15 12.61q-.27.83.54.49zm104.39 2.78q.55-6.87-1.8-13.29a.67.67 0 00-.92-.37q-2.17 1.04-3.65 2.91a.91.89-42.1 00-.06 1.03l5.88 9.85q.48.79.55-.13zm-97.82-2.07c5.17.62 11.37.71 16.6.25a.48.48 0 00.4-.66l-2.58-6.23a.57.56-23 00-.75-.3l-13.79 6.07a.46.45-53.1 00.12.87zm84.27.87q2.71 1.3 10.78 5.84.71.4 1.08-.06a.55.54-50.7 00-.07-.76c-3.42-2.87-5.07-6.85-7.23-10.7a.97.97 0 00-1.57-.17l-4.55 5.15q-.49.55.24.52l.41-.01q.48-.02.91.19zm-123.42 8.73a.69.69 0 00.9.46l15.21-5.64a.69.69 0 00-.22-1.33l-17.01-.66a.69.69 0 00-.69.88l1.81 6.29zm119.15-4.84l11.78 3.36q1.2.35.23-.44c-2.65-2.14-10.88-7.85-12.13-3.13a.18.17 15.7 00.12.21zm-113.05 13.07c3.62-4.89 9.24-8.32 13.99-12.03q.57-.45-.12-.23-8.26 2.55-16.12 6.12-.5.23-1.04.23h-.69a.4.4 0 00-.35.59l2.84 5.21a.89.88 49 001.49.11zm1.75 4.24l5.15 3.79a.65.65 0 00.93-.16q4.84-7.33 8.51-15.27a1.45 1.45 0 00.05-1.1l-.19-.51a.52.52 0 00-.86-.18q-6.11 6.23-12.87 11.66-.58.46-.77.84a.85.55-60.3 00.05.93zm76-13.15a.89.88-5.9 00-.92 1.13l3.59 12.27a.38.38 0 00.74-.11q-.09-6.24 1.15-12.33a.54.54 0 00-.49-.65l-4.07-.31zm-4.87.75l-3.49 1.44a.61.61 0 00-.27.91l9.09 13.42q.87 1.28.44-.21L395 492.21a1.12 1.11 70.6 00-1.49-.72zm20.04 3.05a.69.69 0 00-.28-1.03l-4.34-1.89a.69.69 0 00-.96.5l-2.2 11a.69.69 0 001.23.54l6.55-9.12zm52.47 2.92c2.84 1.66 5.58 1.67 8.37 3.32a.7.7 0 00.86-.12l2.45-2.51a.53.52 23.2 00-.36-.89l-11.15-.38q-1.25-.05-.17.58zm1.61 12.84a.33.33 0 00.52.05l4.52-4.76a.33.33 0 00-.08-.51l-12.69-7.53a.33.33 0 00-.44.47l8.17 12.28zm-8.43-7.26l1.77 10.71a.75.75 0 00.74.63q2.75-.03 3.85-2.3a1.07 1.06-47.9 00-.05-1.03c-.55-.85-5.33-8.79-5.76-8.58a.82.34-23.5 00-.55.57zm-50.74 29.91a.34.34 0 00.49.2l3.55-1.87a.34.34 0 00.11-.51l-6.82-8.63a.34.34 0 00-.59.32l3.26 10.49zm-14.44.53a.63.63 0 00.52.92l5.18.34a.63.63 0 00.67-.62l.11-10.35a.63.63 0 00-1.19-.3l-5.29 10.01zm11.46-.13l-1.93-6.07q-.37-1.2-.36.05l.08 6.32a.61.6 88.2 00.63.6l.97-.03a.67.67 0 00.61-.87z"/><path fill="#929495" d="M121.3 135.1q2.1 3.05 6.39 4.23 5.55 1.53 11.12 3.11a.67.67 0 00.76-.31l.22-.38 4.85 1.39q2.15 2.67 5.75 2.29.47-.05.92.12 6.02 2.39 12.49 2.59a.44.44 0 00.46-.45l-.01-.4q8.13.94 16 3.25l-.4.33a.54.53-58 00.21.93l11.33 2.84a.72.72 0 00.84-.42q.14-.35.02-.68 8.66 1.63 16.83 4.2 7.88 3.27 16.28 4.29a.35.35 0 00.39-.35v-.39c8.28.45 12 2.12 13.85 10.69 1.36 6.28 6.62 7.95 7.64 14.3a.29.29 0 01-.47.26c-3.72-3.24-14.35-3.71-19.03-2.91q-5.45.94-11.01.51a1.04 1.03 24.1 00-.8.3l-4.22 4.23a.36.36 0 01-.58-.11q-2.66-5.86-.26-11.59a.52.51 20.9 00-.31-.68c-1.23-.43-2.53 4.37-2.74 4.95a1.3 1.29-54.1 01-2.23.36c-1.67-2.11-4.45-6.25-7.15-6.38q-.54-.02-.23.41c4.22 5.88 9.39 8.6 9 16.62q-.83-.78-1.48-.35a.81.81 0 00-.36.76q1.29 12.31.19 24.64a.29.29 0 00.16.29l.32.16a.38.38 0 01.18.5c-1.32 2.84-.75 5.79-.99 8.09-.44 4.17.2 9.51-3.27 12.41L192 227.04q.36-.15.54-.44a.73.72-47.4 00-.03-.85q-4.19-5.36-8.04-10.93c-1.78-2.59-4.39-4.04-4.01-8.17.47-5.16.2-9.8.73-15.38q.29-3.08.15-7.27-.28-8.13 3.28-16.86a1.56 1.55-8.1 01.52-.69q1.36-1.05 1.94-2.67a.57.56 20.6 00-.33-.72q-.47-.19-1-.1.44-.44.02-.87a.5.5 0 00-.59-.1q-4.14 2.1-5.22 6.64a.6.6 0 01-1.15.08l-1.22-3.09a1.54 1.53-87.9 00-.75-.81q-4.07-2.02-7.06-5.41a.44.44 0 00-.74.45q1.59 4.18 4.87 7.18a1.8 1.77 14.6 01.52.87q.43 1.73.15 3.31-.78 10.3-.69 20.64c.02 1.9-.39 3.91-.57 5.86a.59.59 0 01-.54.53l-3.32.26-34.57-48.56q-.29-.4-.19.08c1.3 5.99 5.85 12.71 8.54 18.23q-.36 2.95 2.18 5.83c2.73 3.1 5.13 7.82 7.93 11.47 3.36 4.38 6.12 10.17 10.08 13.89q1.93 1.82 3.28 4.82 1.04 2.3 4.12 3.26l5.05 6.55q.31.39-.18.31-10.62-1.72-20.51-5.74c-5.91-2.4-12.29-6.26-18.38-9.55a1.32 1.32 0 01-.61-.71c-2.36-6.56-3.81-14.81-11.03-17.95q-.48-.2-.18.22 1.2 1.76 2.57 3.33c2.89 3.32 3.78 9.4 4.57 13.62a.49.49 0 01-.45.58l-8.6.58a.59.59 0 00-.08 1.16c4.27.87 10.99.72 14.31 3.21a1.27 1.26-56.5 01.33 1.64l-4.61 7.9q-1.65-.94-1.78 1.09-.37 6.08-.96 12.77a.81.79 27.2 00.21.63q1.13 1.23 1.46-.41.38 3.24 1.62 5.69a.36.36 0 00.68-.19q-.46-6.55-.05-12.79c.37-5.49 2.51-9.52 5.51-13.88a.5.5 0 01.7-.14q5.8 3.91 12.08 6.77-.19.09-.31.2a.39.39 0 00.1.63q6.16 3.04 12.8 4.73a.47.46-79.3 00.58-.4q.04-.31-.17-.58l14.71 2.54a1.1 1.07-9.7 01.74.51c3.54 6.03 9.7 12.5 12.69 16.2q5.86 7.25 12.41 13.9 1.54 1.56 2.26 3.53a.33.33 0 01-.33.44q-15.51-1.2-30.97-1.92-.44-.02-1.76-.53.04-.18.01-.37a.62.62 0 00-.5-.51c-5.49-1.03-6.38-3.09-10.22-6.52a.91.89 56.6 00-.88-.19l-1.2.38q-2.81-2.41-4.69-5.31-.9-3.49-2.77-6.58c-.9-1.5-1.13-3.28-2.38-4.77a.69.68 57.7 00-.79-.18l-.79.34c-1.44-3.47-4.13-12.91-7.58-14.14q-.48-.17-.18.24 1.31 1.78 1.63 3.64.77 4.26 1.63 8.48c.55 2.71 1.58 5.28 2.4 7.98 1.13 3.72 3.79 4.66 3.2 9.29a.46.46 0 00.42.52l.44.03c-.6 2.2-1.96 3.3-4.36 2.97q-10.17-1.39-19.58-5.49a.26.25 31.1 00-.3.07l-.2.22a.25.04 33.7 00.19.17l3.71 2.48a1.19 1.18 16.3 01.52.94q.16 5.5 3.73 9.63.37.43.54 1.68c-2.55-.06 1.49 4.58 1.96 5.04l-1.03 6.12a.49.49 0 01-.6.39c-3.84-1-7.3-5.84-9.45-9.02a.52.52 0 00-.92.45q1.93 5.7 6.7 8.95c4.35 2.96 10.87 2.58 14.81 4.39 3.22 1.48 5.98 5.91 9.22 8.37q3.39 2.56 6.2 5.73.34.37-.16.32-13.17-1.41-25.5-6.03-.83-.31-3.71.25-.47.09-.09.39l3.61 2.85q4.48 2.57 9.24 4.68 1.98.87 4.57 1.4 2.36.48 4.69 1.07c5.56 1.39 10.91 1.68 16.46 2.35 2.9.35 6.46 1.71 10.05 1.59a.46.46 0 00.43-.55q-.05-.23-.23-.41 7.69-.17 11.21 5.23 4.92 7.59 17.73 30.29.24.42-.24.38l-15.89-1.22a1.67 1.66 66.5 01-.91-.36c-3.5-2.87-6.32-7.06-9.43-10.18a.5.5 0 00-.8.58q2.44 4.74 6.26 8.53 1.47 1.46-.59 1.26c-3.76-.36-8.12.25-11.26-1.31-5.43-2.7-11.02-8.99-15.39-13.26-3.06-3-12.98-4.45-17.29-5.45a.19.19 0 00-.12.36q6.19 2.86 12.67 4.88 2.15.67 3.75 2.15 6.25 5.81 12.63 11.44.38.33-.11.22c-8.79-2.15-23.55-6.47-30.52 2.14a.13.13 0 00.06.2l.24.08a.12.09 27 00.12-.02c5.33-5.11 14.41-2.66 20.26-.42q2 2.14 4.98 2.25c.62.03 1.04-.41.89-1.02q3.08.78 5.32.87c20.26.86 41.27 3.92 61.39.37 5.49-.97 4.68 9.32 4.58 12.87a1.91 1.9 62.7 01-.33 1.04q-3.6 5.28-2.27 11.82.36 1.77 1.16.15c1.37-2.75.35-5.61 1.59-8.36 2.64-5.85 2.33-10.63.88-16.8a.46.46 0 01.4-.56q11.99-1.16 23.78-3.66a1.33 1.28 53.5 01.95.16q3.36 2.03 5.26 5.81-.38-.1-.65.08a.55.55 0 00-.17.75q3.03 4.97 5.54 10.24c.86 1.8 3.03 3.86 4.03 6.19q3.58 8.35 7.8 16.41l-14.76 2.54q.32-.57.11-1.04a.81.8 77.2 00-.75-.48q-5.75.07-11.29 1.67a.44.44 0 00-.32.42v.43l-5.75.75v-.35a.39.39 0 00-.36-.39q-9.05-.67-17.64 2.07-6.34.86-12.72.49c-7.09-.4-10.45-6.32-17.53-7.54q-.51-.08-2.01-.83a1.64 1.61 87.8 01-.7-.66q-3.82-6.73-10.36-10.78-.43-.27-.12.13 4.44 5.71 8.9 11.34c1.81 2.3 1.98 6.37-2.15 5.67-4.4-.76-15.86-2.22-18.52-7.06q-2.93-5.35-6.5-10.3.47-.11.76-.38a.56.55 49.6 00.06-.76q-2.59-3.2-6.46-4.41a1.56 1.55-9.5 01-.78-.55q-2.22-2.94-5.66-3.15l-7.31-5.74q-.51-.4-.15.14 6.05 9.1 15.53 14.31c4 2.19 7.02 8.34 9.04 12.3a.34.34 0 01-.44.46c-1.54-.72-7.3-3.26-8.7-2.52a.36.36 0 00-.01.63c9.05 4.95 16.65 9.29 27.82 10.73q9.45 1.21 18.89 2.43c4.93.65 10.38.53 15.56 1.01q2.49 1.18 5.19.8 3.59-.49 4.45-.48c9.74.14 18.7-2.57 27.93-2.29q2.04.06 6.41-1.43c.24-.08.32-.16.35-.41a.41.4 6.5 00-.36-.44l-.41-.04 13.33-2.45a.79.77-21.5 01.79.33q.68.99.59 2.15 1.18 5.95 2.64 11.83c.36 1.42 1.21 3.08-.84 3.67q-2.69.77-11.77 2.93c-1.71.41-4.15 1.65-6.59 1.64q-1.38 0-.66 1.18.23.39.76.3-6.2 1.35-14 1.66c-22.97.91-44.99-.09-66.82-3.91-9.77-1.7-22.79-7.63-29.62-10.84q-16.19-7.6-29.03-22.76a.43.43 0 01.16-.68q2.47-1.06 4.26-3.18a.68.68 0 00.02-.84q-.66-.89-1.72-1.45c1.97-.63-.11-2.31-.82-2.74q-8.11-4.83-15.16-10.27a.88.88 0 01.14-1.48q2.62-1.33 2.27-2.53-.88-2.96-1.5-5.98a.91.88 54.1 01.09-.62l.25-.47a1.05 1.03-44.4 00.02-.96c-2.07-4.28-2.43-9.08-5.92-12.17a1.72 1.7 12.6 01-.52-.81q-1.45-4.7-4.52-8.52l-2.73-6.91a.54.54 0 01.46-.73l2.29-.19a.92.89 11.3 00.73-.47q.2-.4-.13-.89-3.2-4.64-5.32-11.04-.32-.97.59-.5 1.1.55 2.71.39 2.73 1.47 3.87-1.35.54-1.32-.48-2.48-.33-.38-.47-.85c-1.87-6.42-1.63-13.28-2.55-19.09q-.77-4.9-1.37-9.83c-.16-1.36-.77-1.83-2.14-1.55-1.38-19.5-1.22-38.96 1.8-58.38 3.62-23.35 5.44-38.02 4.71-60.32a.43.43 0 01.5-.43q1.71.31 2.75 1.48z"/><path fill="#acabac" d="M121.3 135.1l18.49 6.65-.22.38a.67.67 0 01-.76.31q-5.57-1.58-11.12-3.11-4.29-1.18-6.39-4.23zM144.64 143.14l19.61 4.15.01.4a.44.44 0 01-.46.45q-6.47-.2-12.49-2.59-.45-.17-.92-.12-3.6.38-5.75-2.29z"/><path fill="#fdfbde" d="M180.25 150.54q5.78 2.33 12 3 .12.33-.02.68a.72.72 0 01-.84.42l-11.33-2.84a.54.53-58 01-.21-.93l.4-.33zM209.08 157.74l16.67 3.55v.39a.35.35 0 01-.39.35q-8.4-1.02-16.28-4.29z"/><path fill="#acabac" d="M185.75 162.96q.53-.09 1 .1a.57.56 20.6 01.33.72q-.58 1.62-1.94 2.67a1.56 1.55-8.1 00-.52.69q-3.56 8.73-3.28 16.86.14 4.19-.15 7.27c-.53 5.58-.26 10.22-.73 15.38-.38 4.13 2.23 5.58 4.01 8.17q3.85 5.57 8.04 10.93a.73.72-47.4 01.03.85q-.18.29-.54.44-7.78-9.05-14.26-19.1a1.15 1.13-54.3 01-.14-.91c2.74-10.26 2.34-18.69 2.53-28.48.11-5.56 2.16-11.28 5.62-15.59zM253.81 167.61q-3.73 1.02-6.75-.18-3.81-1.52-7.02-1.18l-.81-2.21q-.16-.45.3-.32l14.28 3.89z"/><path fill="#929495" d="M240.04 166.25q3.21-.34 7.02 1.18 3.02 1.2 6.75.18 10.82 4.08 19.94 11.6l-.39.5a.54.54 0 00.1.77l3.83 2.86a.62.62 0 00.87-.14q.2-.28.13-.7l4.67 2.89a.53.53 0 00.81-.41l.32-4.83a.42.42 0 01.69-.29l4.15 3.59q.87 2.09 2.75 4.83 1.1 1.61 2.32.51c3.69 1.49 4.28 4.42 6.58 6.35 1.13.94 4.18 3.2 5.38 1.86.95.99 1.68 1.04 2.44 2.26q7.37 11.85 12.55 24.85 1.56 4.99.71 9.33c-.89 4.6-1.71 7.35-.41 11.91q1.62 5.68.58 11.62a.6.59-84.3 01-.59.49c-1.84-.04-10.52.02-10.72.88a.42.42 0 00.46.51q5.04-.59 9.88.75a.74.74 0 01.54.75l-.19 3.9q-.35-1.21-1.75-.62a.54.53 80.2 00-.32.46q-.78 17.08-6.57 33.11a.75.75 0 00.73 1.01q.76-.02 1.16-.71l-1.04 4.09a.48.48 0 01-.61.33c-6.49-2.24-7.93.33-12.55 3.89a.91.9 36.9 01-.87.12l-6.85-2.63a.43.43 0 01-.24-.56l4.91-11.99q.79.68 1.76.44a1.11 1.11 0 00.75-.63l4.64-10.16a.48.48 0 00-.28-.65q-.38-.12-.79 0 1.77-5.78.74-11.7-.09-.49-.23-.02l-1.47 4.81q-1.07 1.72-1.55 3.66c-.97 3.93-3.66 7.18-5.8 10.55q-.78 1.21.63.89l.85-.19q-3.16 6.12-5.21 12.71c-1.75 5.59-12.63 9.19-17.6 11.25q-.47.2-.33-.29c2.37-8.46 7.04-18.21 9.09-24.34 4.69-13.97 5.13-30.21 7.31-41.59q.28-1.44 2.13-3.94.76-1.04-.39-.47l-1.25.62a.28.27-15.8 01-.4-.22q-.48-6.71.96-13.26a1.34 1.32-9.3 01.65-.89q7.56-4.24 10.78-12.37a.45.44-15.8 00-.77-.43c-3.06 4.09-5.73 8.57-10.65 10.78a.29.29 0 01-.41-.29q.27-2.96.14-3.77c-1.22-7.18-.81-15.69-3.88-22.26q-.21-.46-.29.04-.29 2.03-.1 2.98 1.62 8.12.42 15.68c-.95 6.04-12.29 6.07-16.86 6.32a1.44 1.43-30 01-.83-.22l-1.9-1.21q-.73-.47-.44.35c1.84 5.17 11.46 2.23 17.62 1.11q.13.92.65 1.66a1.74 1.7 27.2 01.3.9q.37 12.69-2.41 25.1c-.46 2.05.28 4.06-.09 6.29-1.66 9.89-3.17 20.88-7.36 30.04q-.67 1.48.93 1.19l1.19-.22-9.52 23.83a.61.6-50.6 01-1.07.11q-10.93-16.99-24.16-31.94-.05-3.46 2.19-5.91a1.86 1.83 72.1 00.43-.86c.85-4.33 3.36-7.67 3.89-12.15a1.52 1.52 0 01.45-.92l10.24-10.1a1.76 1.74 75 00.48-.84c.97-3.96 5.48-21.02 2.65-22.72q.24-.8-.38-1.24a.37.37 0 00-.57.22q-2.5 11.85-4.59 19.76c-.92 3.47-4.71 6.92-7.15 9.08q-1.89 1.67-1.42-.8 3.75-19.67 3.76-39.7a.8.78-13.3 01.45-.71q12.14-5.86 24.06-11.88 1.57-.8 3.57-4.76a1.2 1.2 0 00.04-1q-.64-1.58-.01-3.2a.62.62 0 00-.28-.77l-.3-.16a.21.2-70.8 00-.3.15c-.66 4.13-2.42 7.52-6.53 9.22-8.06 3.34-13.28 7.21-20.29 10.29a.26.25 76.1 01-.35-.22l-1.61-19.89a.58.57 82.1 01.46-.61l6.57-1.35a1.22 1.2 9 00.8-.57q.94-1.57 1.27-3.39.28-1.47-.6-.26l-1.44 2.02a1.46 1.46 0 01-.97.59l-5.72.78a.98.98 0 01-1.1-.84q-.84-6.48-5.4-10.9c-3.14-3.04-4.18-7.01-4.97-11.11z"/><path fill="#acabac" d="M143.24 168.25c8.81 13.45 18.19 26.2 27.59 39.27q-3.08-.96-4.12-3.26-1.35-3-3.28-4.82c-3.96-3.72-6.72-9.51-10.08-13.89-2.8-3.65-5.2-8.37-7.93-11.47q-2.54-2.88-2.18-5.83zM174.58 171.21q1.26 10.83.14 25.04-.35 4.36-1.26 6.88-.2.53-.53.07l-3.47-4.7 3.32-.26a.59.59 0 00.54-.53c.18-1.95.59-3.96.57-5.86q-.09-10.34.69-20.64z"/><path fill="#fdfbde" d="M417 177.71c-5.71 5.2-8.96 12.22-13.65 19.26-1.68 2.52-3.11 5.99-5.28 9.11-1.97 2.83-5.23 9.02-5.03 13.42-1.68 2.81-3.16 8.35-5.46 10.2q-.41.33-.28-.18c1.69-6.64 3.37-13.13 6.48-19.31q9.21-18.32 20.7-35.31a.47.46-52.9 01.68-.1q1.41 1.19 1.84 2.91z"/><path fill="#929495" d="M417 177.71l3.49 4.31a.71.7-48.2 01.04.84c-3.28 4.97-7 9.61-10.55 14.4q-2.63 3.54-6.19 6.24-.15-.92-.72-1.09a.77.77 0 00-.84.26q-2.16 2.69-2.17 6.09l-7.02 10.74c-.2-4.4 3.06-10.59 5.03-13.42 2.17-3.12 3.6-6.59 5.28-9.11 4.69-7.04 7.94-14.06 13.65-19.26z"/><path fill="#acabac" d="M273.75 179.21l4.54 3.29q.07.42-.13.7a.62.62 0 01-.87.14l-3.83-2.86a.54.54 0 01-.1-.77l.39-.5z"/><path fill="#fdfbde" d="M442.54 182.5c-1.28.35-2.22.64-3.22 1.63-6.55 6.49-14.07 11.86-20.29 18.39-7.34 7.73-15.03 15.25-22 23.31a1.17 1.13-28 00-.28.87l.04.55-5.12 4.53a.28.28 0 01-.42-.36c8.96-13.3 20.57-25.4 32.01-36.59 5.19-5.07 11.15-9.67 16.93-14.32a.92.92 0 01.88-.15q1.34.44 1.47 2.14z"/><path fill="#929495" d="M442.54 182.5l2.4 7.01a.88.86 58.5 01-.2.87q-4.6 4.76-9.42 7.95c-13.69 9.07-25.75 20.11-38.53 28.92l-.04-.55a1.17 1.13-28 01.28-.87c6.97-8.06 14.66-15.58 22-23.31 6.22-6.53 13.74-11.9 20.29-18.39 1-.99 1.94-1.28 3.22-1.63z"/><path fill="#acabac" d="M288.93 183.45l5.07 5.34q-1.22 1.1-2.32-.51-1.88-2.74-2.75-4.83zM248.46 220.25q-.22.16-.26.43a.38.37 2.7 01-.36.32h-.37a.18.17 0 01-.18-.17q-.15-13.04-.61-26.09-.1-2.75-2.51-5.13c-2.26-2.23-7.32-2.36-10.45-3.18a1.81 1.8 43.1 00-.97.03q-2.13.65-4.32 1.12c-3.01.65-6.48.11-9.81.5a1.3 1.27 15.4 00-.87.48l-3.62 4.59a1.77 1.7 67.9 00-.37.92l-.81 8.16c-1.15-3.18-2.53-8.66-.1-11.46 3.79-4.38 7.87-3.63 12.49-4.6q9.92-2.09 18.47 1.52c2.72 1.15 3.82 4.23 3.97 7.27q.66 12.63.68 25.29z"/><path fill="#929495" d="M248.46 220.25l-.94 17.13a.39.39 0 01-.71.19l-5.41-8.15a.43.43 0 00-.78.33q1.34 6 5.85 10.2a1.02 1.01 22.4 01.32.76q-.22 7.73-2.5 15.04l-.1-.42q-.39-1.7-.83-.02-1.18 4.46-2.51 8.9c-.86 2.87-3 4.79-3.78 8.08a.29.29 0 01-.48.15c-2.62-2.39-4.43-6.2-7.02-8.12-1.55-1.15-2.6-3-3.96-4.08-2.6-2.04-5.06-3.64-7.21-6.29q-3.32-4.09-7.19-7.81a1.76 1.74-75 01-.48-.84q-.97-4-.17-7.96c.82-4.06.93-7.62 1.7-10.59q.9-3.42.98-5.04l2.75-3.07q1.05-1.16-.34-.46l-3.95 2.02a.42.41 70.9 01-.59-.29q-.09-.43.16-.92a1.66 1.57 55.8 00.16-.99c-.83-5.2 5.25-8.99 8.22-11.67a1.45 1.38-66.5 01.85-.36q3.93-.3 7.31-2.25 1.13-.65-.16-.48l-9.25 1.22a1.79 1.76-35.8 01-.99-.15l-4.46-2.08.81-8.16a1.77 1.7 67.9 01.37-.92l3.62-4.59a1.3 1.27 15.4 01.87-.48c3.33-.39 6.8.15 9.81-.5q2.19-.47 4.32-1.12a1.81 1.8 43.1 01.97-.03c3.13.82 8.19.95 10.45 3.18q2.41 2.38 2.51 5.13.46 13.05.61 26.09a.18.17 0 00.18.17h.37a.38.37 2.7 00.36-.32q.04-.27.26-.43z"/><path fill="#acabac" d="M207.21 192.25c.76 14.88.73 33.3-2.9 48.51q-.14.58-.52.13l-1.83-2.14c3.47-2.9 2.83-8.24 3.27-12.41.24-2.3-.33-5.25.99-8.09a.38.38 0 00-.18-.5l-.32-.16a.29.29 0 01-.16-.29q1.1-12.33-.19-24.64a.81.81 0 01.36-.76q.65-.43 1.48.35zM320.95 224.11q-5.18-13-12.55-24.85c-.76-1.22-1.49-1.27-2.44-2.26l.99-1.34a.8.8 0 011.33.09q6.35 11.19 11.77 22.69 1.22 2.58.9 5.67z"/><path fill="#fdfbde" d="M432.5 224.79q-.67.13-.92-.38a.52.51-25.4 01.25-.7q6.91-3.11 13.21-7.3c3.25-2.16 7.03-2.57 10.45-4.98a1.11 1.11 0 00.46-.84l.44-7.21a.71.71 0 00-1-.69c-12.33 5.57-25.28 13.46-36.46 21.09-4.86 3.32-10.13 6.25-14.81 9.5-2.58 1.8-5.21 3.77-7.96 5.28q-2.15 1.18-1.41 3.65l-8.99 3.92a.36.36 0 01-.37-.62c4.48-3.54 8.6-7.33 13.31-10.44 12.91-8.49 25.19-17.89 38.09-26.34 7.41-4.85 13.64-7.56 20.25-11.75a.3.3 0 01.46.25l.09 14.61a.7.69 77.2 01-.39.63l-24.7 12.32z"/><path fill="#acabac" d="M403.79 203.5l-3.73 5.26q.01-3.4 2.17-6.09a.77.77 0 01.84-.26q.57.17.72 1.09z"/><path fill="#929495" d="M432.5 224.79q-19.26 7.87-37.75 17.42-.74-2.47 1.41-3.65c2.75-1.51 5.38-3.48 7.96-5.28 4.68-3.25 9.95-6.18 14.81-9.5 11.18-7.63 24.13-15.52 36.46-21.09a.71.71 0 011 .69l-.44 7.21a1.11 1.11 0 01-.46.84c-3.42 2.41-7.2 2.82-10.45 4.98q-6.3 4.19-13.21 7.3a.52.51-25.4 00-.25.7q.25.51.92.38z"/><path fill="#acabac" d="M212.32 204.59c1.13.14 3.2.32 4.31.73a.52.51-57 01.18.86l-4.65 4.44q-.78.75-.71-.33l.34-5.26a.47.47 0 01.53-.44zM133.03 212.67c-1.82 3.78-.97 9.9-1.07 14.08q-.33 1.64-1.46.41a.81.79 27.2 01-.21-.63q.59-6.69.96-12.77.13-2.03 1.78-1.09zM152.5 212.21l13 4.58q.21.27.17.58a.47.46-79.3 01-.58.4q-6.64-1.69-12.8-4.73a.39.39 0 01-.1-.63q.12-.11.31-.2zM144.91 217.49q1.62 2.21 2.2 5.45 1.44 8.07 6.15 15.67c1.17 1.88.95 3.52-.26 5.18l-.44-.03a.46.46 0 01-.42-.52c.59-4.63-2.07-5.57-3.2-9.29-.82-2.7-1.85-5.27-2.4-7.98q-.86-4.22-1.63-8.48zM345.34 286.04q-2 1.21-1.82-1.31c.29-4.31-.48-8.89-.7-11.88q-.26-3.57-1.18-7.03c-2.2-8.18-3.54-16.56-5.1-24.88-.58-3.12-4.98-8.6-6.71-11.89q-1.94-3.69-4.08-7.26.6-.74 1.35-.66a1.07 1.06-12.4 01.78.49c4.55 7.26 8.22 14.11 10.34 22.77 3.46 14.09 6.97 25.35 7.12 41.65zM213.24 221.71q-.08 1.62-.98 5.04c-.77 2.97-.88 6.53-1.7 10.59q-.8 3.96.17 7.96a1.76 1.74-75 00.48.84q3.87 3.72 7.19 7.81c2.15 2.65 4.61 4.25 7.21 6.29 1.36 1.08 2.41 2.93 3.96 4.08 2.59 1.92 4.4 5.73 7.02 8.12a.29.29 0 00.48-.15c.78-3.29 2.92-5.21 3.78-8.08q1.33-4.44 2.51-8.9.44-1.68.83.02l.1.42-5.42 19.46a.98.97 19.6 01-1.34.63q-.79-.35-1.76-1.36-13.74-14.53-27.58-28.96a1.21 1.18 24.9 01-.33-.87c.29-6.69 2.64-13.38 3.27-20.23q.16-1.75 2.11-2.71z"/><path fill="#929495" d="M325.75 221.79q2.14 3.57 4.08 7.26c1.73 3.29 6.13 8.77 6.71 11.89 1.56 8.32 2.9 16.7 5.1 24.88q.92 3.46 1.18 7.03c.22 2.99.99 7.57.7 11.88q-.18 2.52 1.82 1.31l.12 5.46c-1.29-.27-1.82.43-1.74 1.66q.25 3.74-.32 7.41-.67 4.28-.65 6.82.05 10.11-1.03 20.16c-.16 1.51-1.36 3.67-1.78 5.32q-2.9 11.64-7.58 22.69c-1.67 3.94-4.63 7.24-6.85 11.13-1.97 3.44-4.14 6.23-6.26 9.37-2.36 3.49-5.22 5.02-8.67 7.13a1.47 1.47 0 01-2.12-.68q-1.98-4.67-4.09-9.69c-1.87-4.46-5.94-11.28-7.51-17.81a1.2 1.19 55.2 01.16-.91q5.43-8.3 8.66-17.64l3.39-2.14a.63.62 53.4 01.8.12q3.93 4.47 9.62 6.31.84.27.22-.36c-2.45-2.5-5.2-3.99-7.42-6.77q-1.37-1.72-2.96-3.28.97-4.3 4.21-10.07 3.9-6.94 4.15-16.49l1.77-8.28.05.74a.54.54 0 00.54.51h.39a.59.58-82.1 00.56-.43q3.25-11.07 3.11-22.57.27-11.65 2.08-23.3a1.12 1.12 0 01.57-.8q3.62-1.96 4.06-6.11a.44.44 0 00-.82-.27q-1.82 3.11-4.87 5.03a.46.45-29.5 01-.64-.17c-1.69-3.26-2.76-6.23-2.02-10.1q1.28-6.68.87-13.5a1.08 1.05 67.9 01.35-.86l2.06-1.88z"/><path fill="#acabac" d="M277.46 289l-1.19.22q-1.6.29-.93-1.19c4.19-9.16 5.7-20.15 7.36-30.04.37-2.23-.37-4.24.09-6.29q2.78-12.41 2.41-25.1a1.74 1.7 27.2 00-.3-.9q-.52-.74-.65-1.66l1.57-1.02q.47-.3.45.26c-.18 8.41-.04 17.45-.82 25.27q-2.02 20.58-7.99 40.45zM157.77 238.94q-4.89-4.8-6.73-11.19l.79-.34a.69.68 57.7 01.79.18c1.25 1.49 1.48 3.27 2.38 4.77q1.87 3.09 2.77 6.58zM263.04 227.5c2.83 1.7-1.68 18.76-2.65 22.72a1.76 1.74 75 01-.48.84l-10.24 10.1a1.52 1.52 0 00-.45.92c-.53 4.48-3.04 7.82-3.89 12.15a1.86 1.83 72.1 01-.43.86q-2.24 2.45-2.19 5.91-1.53-1.34-.72-3.27 3.59-8.55 5.56-16.8a1.61 1.6-15 01.48-.83c2.17-2.02 9.84-8.1 10.81-11.01q3.53-10.53 4.2-21.59zM154.88 247.72l1.84-3.96a.33.33 0 01.55-.07l4.39 5.46a.33.33 0 01-.34.52l-6.22-1.49a.33.33 0 01-.22-.46zM175.25 251.46c-5.59.18-8.42-2.88-12.79-7.21l1.2-.38a.91.89 56.6 01.88.19c3.84 3.43 4.73 5.49 10.22 6.52a.62.62 0 01.5.51q.03.19-.01.37z"/><path fill="#929495" d="M163.25 253.79l-.2.77a.55.54-75.3 00.38.66q5.08 1.4 10.36 1.52a.47.46-85.9 00.47-.41l.03-.33q11.77 1.13 23.68.88.51-.01.17.37c-5.51 6.14-9.73 12.27-19.14 11.69q-7.38-.45-12.98.1-.5.05-.01.17c6.9 1.6 18.96 3.36 25.15-1.78q2.32-1.94 9.56-9.71a1.26 1.24 21.1 01.92-.4l9.18-.1a1.35 1.3 68 011.01.45l28.15 31.31a.31.31 0 01-.17.5c-10.7 2.35-22.66 1.78-33.62 2.26q-18.38.8-36.18-3.82c-4.38-1.13-13.1-10.42-16.24-13.96-2.9-3.27-8.41-4.19-12.15-5.11a2.17 2.16-71.4 01-1.47-2.97c4.16-9.57-4.15-10.86-4.83-18.84a.38.37 2.9 01.45-.4c1.93.38 3.91 1.37 5.66 1.7q11.07 2.12 21.82 5.45z"/><path fill="#acabac" d="M111.54 252.75c1.37-.28 1.98.19 2.14 1.55q.6 4.93 1.37 9.83c.92 5.81.68 12.67 2.55 19.09q.14.47.47.85 1.02 1.16.48 2.48-1.14 2.82-3.87 1.35 1.61-.36 2.79-1.31a.7.7 0 00.21-.79c-4.05-10.13-5.25-21.85-6.14-33.05zM163.25 253.79l11.04 2.21-.03.33a.47.46-85.9 01-.47.41q-5.28-.12-10.36-1.52a.55.54-75.3 01-.38-.66l.2-.77zM137.25 256.46q2.25 2.02 1.96 5.04c-.47-.46-4.51-5.1-1.96-5.04zM321.21 264.25q-1.51 17-6.75 33.25-.4.69-1.16.71a.75.75 0 01-.73-1.01q5.79-16.03 6.57-33.11a.54.53 80.2 01.32-.46q1.4-.59 1.75.62zM302.33 272.84c.44 5.72-3.32 10.27-5.87 14.91l-.85.19q-1.41.32-.63-.89c2.14-3.37 4.83-6.62 5.8-10.55q.48-1.94 1.55-3.66zM324.11 273.75q.14 11.5-3.11 22.57a.59.58-82.1 01-.56.43h-.39a.54.54 0 01-.54-.51l-.05-.74 4.65-21.75zM303.29 279.75q.41-.12.79 0a.48.48 0 01.28.65l-4.64 10.16a1.11 1.11 0 01-.75.63q-.97.24-1.76-.44l6.08-11zM138.29 284.66q6.7 1.89 13.17 4.08c10.15 3.43 21.46 4.35 32.04 6.05q.18.18.23.41a.46.46 0 01-.43.55c-3.59.12-7.15-1.24-10.05-1.59-5.55-.67-10.9-.96-16.46-2.35q-2.33-.59-4.69-1.07-2.59-.53-4.57-1.4-4.76-2.11-9.24-4.68zM345.46 291.5q.53 13.33-.8 26.56c-.96 9.62-4.24 19.06-7.21 28.44-4.33 13.65-14.6 33.53-28.69 39.22a.49.49 0 01-.64-.28c-4.03-10.19-8.81-20.18-13.23-30.24a1.03 1.02-43.4 01.03-.89q4.86-9.11 10.76-17.85-3.23 9.34-8.66 17.64a1.2 1.19 55.2 00-.16.91c1.57 6.53 5.64 13.35 7.51 17.81q2.11 5.02 4.09 9.69a1.47 1.47 0 002.12.68c3.45-2.11 6.31-3.64 8.67-7.13 2.12-3.14 4.29-5.93 6.26-9.37 2.22-3.89 5.18-7.19 6.85-11.13q4.68-11.05 7.58-22.69c.42-1.65 1.62-3.81 1.78-5.32q1.08-10.05 1.03-20.16-.02-2.54.65-6.82.57-3.67.32-7.41c-.08-1.23.45-1.93 1.74-1.66z"/><path fill="#929495" d="M232.18 322.24a.49.49 0 00-.91.17l-1.03 6.8a.84.84 0 01-.72.7c-5.59.72-12.15.93-16.46-3.33-5.91-5.84-9.49-16.95-9.47-25.27.01-3.17-.73-5.45 3.54-5.61 5.07-.19 10.3.06 15.06-.3q10.46-.8 20.85-2.15a.92.92 0 01.82.3c6.96 7.85 12.9 16.74 19.23 25.11q2.33 3.07 3.96 6.55a.4.4 0 01-.29.56q-16.39 3.03-33.06 3.54a.99.99 0 01-.98-1.28q.94-3.07-.54-5.79z"/><path fill="#acabac" d="M201.09 297.93l.5 6.44q.26 3.22-1.49.51l-5.54-8.6q-.39-.6.33-.63l5.81-.21a.66.65-.4 01.68.66q0 .46-.16.87-.17.46-.13.96zM362.15 304.95l.64-3.68a.31.31 0 01.54-.16l5.66 6.08a.31.31 0 01-.34.51l-6.3-2.41a.31.31 0 01-.2-.34z"/><path fill="#fdfbde" d="M400.9 305.04l-9.59 2.74q-1.41.4-.18-.4 2.44-1.59 5.09-2.71c1.73-.72 2.8-2.05 4.42-2.98a.51.51 0 01.76.4l.15 2.02a.9.9 0 01-.65.93z"/><path fill="#929495" d="M309.55 303.37q.82 3.19-.58 6.32a.75.75 0 00.68 1.05l.81.01q-1 5.91-3.67 11.25c-3.6-2.99-4.66-6.34-4.12-10.96.13-1.06-.33-1.53-1.38-1.29q1.65-6.78 8.26-6.38z"/><path fill="#acabac" d="M309.55 303.37q1.6-.07 2.53.54a.68.68 0 01.28.77l-1.9 6.07-.81-.01a.75.75 0 01-.68-1.05q1.4-3.13.58-6.32zM317.69 303.78q-.25 9.55-4.15 16.49-3.24 5.77-4.21 10.07-.71.28-1.1-.07a.78.77-58.7 01-.2-.84c3.25-8.52 6.77-16.95 9.66-25.65z"/><path fill="#929495" d="M303.3 325.43q-3.74 10.49-10.08 20.29-1.64 2.55-3.09-.12-2.53-4.65-5.45-10.23c-3.25-6.19-8.22-11.58-12.13-17.44a1.19 1.19 0 01.47-1.73l10.14-5.03a.61.61 0 00.31-.73q-.08-.23-.26-.44l7.2-4.65a1.19 1.17-54.5 01.9-.16q4.03.88 7.67 2.91a.76.74-72.6 01.38.75q-1.18 9.32 3.94 16.58z"/><path fill="#acabac" d="M402.08 310.39l-10.03.16q-.65.01-.3-.55c.39-.63 8.44-2.15 10.24-2.99a.33.33 0 01.47.26l.26 2.4a.66.65 86.8 01-.64.72zM369.82 310.13q.43.01.77.22.47.29-.08.34l-7.6.72a.63.62 83.3 01-.68-.54l-.27-2.21a.57.57 0 01.73-.61l6.3 1.95q.41.12.83.13zM116.08 308.24q3.07 3.82 4.52 8.52a1.72 1.7 12.6 00.52.81c3.49 3.09 3.85 7.89 5.92 12.17a1.05 1.03-44.4 01-.02.96l-.25.47a.91.88 54.1 00-.09.62q.62 3.02 1.5 5.98.35 1.2-2.27 2.53a.88.88 0 00-.14 1.48q7.05 5.44 15.16 10.27c.71.43 2.79 2.11.82 2.74-6.35-3.64-14.74-8.38-18.72-14.13a.41.41 0 01.29-.64q2.26-.28 3.76-2.06a.71.69-39.7 00.08-.76q-1.86-3.56-5.33-5.54-1.16-.67.18-.67l3.72.01a.33.32-13.2 00.3-.47q-5.58-11.06-9.95-22.29zM301.29 309.75c1.05-.24 1.51.23 1.38 1.29-.54 4.62.52 7.97 4.12 10.96l-.63 1.46a.91.9-48 01-1.62.09q-3.74-6.56-3.25-13.8zM283.21 310q.18.21.26.44a.61.61 0 01-.31.73l-10.14 5.03a1.19 1.19 0 00-.47 1.73c3.91 5.86 8.88 11.25 12.13 17.44q2.92 5.58 5.45 10.23 1.45 2.67 3.09.12 6.34-9.8 10.08-20.29c3.01 2.37-9.94 23.1-11.25 24.96a.33.33 0 01-.55-.02q-2.93-4.87-5.61-9.83c-4.44-8.21-10.14-15.46-15.19-23a1.56 1.55 61 01.65-2.28l11.86-5.26zM391.86 313.2q-.14-.08-.25-.2a.22.22 0 01.17-.36l10.56.16a.48.48 0 01.46.56l-.51 2.81a.57.57 0 01-.74.45c-2.74-.85-6.95-1.3-9.1-3.08q-.04-.03-.59-.34zM364.15 313.41l4.21-.64a.67.66-16.8 01.71.38c.53 1.17-4.24 3.14-5.21 3.7a.49.49 0 01-.73-.35l-.39-2.54a.64.63 83.2 01.57-.73q.17-.02.34.08a.76.74-33.1 00.5.1zM165.88 330.31l5.87 1.23c.15.61-.27 1.05-.89 1.02q-2.98-.11-4.98-2.25zM274.46 335.25q10.35 15.63 17.53 32.96a.4.4 0 01-.27.54l-.71.17q-4.22-8.06-7.8-16.41c-1-2.33-3.17-4.39-4.03-6.19q-2.51-5.27-5.54-10.24a.55.55 0 01.17-.75q.27-.18.65-.08zM178.54 355q-.64-.62-1.4-1.06-5.87-3.4-10.68-8.19 3.44.21 5.66 3.15a1.56 1.55-9.5 00.78.55q3.87 1.21 6.46 4.41a.56.55 49.6 01-.06.76q-.29.27-.76.38zM443.7 353.89l-5.15 8a.6.6 0 01-1.09-.47l2.21-8.97a.6.6 0 01.78-.43l2.93.98a.6.6 0 01.32.89z"/><path fill="#fdfbde" d="M447.27 357.02q.63.3 1 .92a.45.45 0 01-.15.61l-6.97 4.31a.22.22 0 01-.31-.3l3.9-6.79a.6.59 25 01.73-.26q.64.23 1.06.87a1.78 1.73 85.1 00.74.64z"/><path fill="#acabac" d="M443.46 365.71q-2.91.38-.52-1.33 3.63-2.59 7.8-4.24a.68.66 61.2 01.8.24l2.47 3.51a.31.31 0 01-.21.48l-10.34 1.34zM208.13 372.44a.33.33 0 01-.25-.47l.89-1.83a1.01 1-79.5 01.82-.57c2.46-.2 6.86 2.81 8.98 4.13q.73.46-.12.33l-10.32-1.59zM276.25 371.46l-12.25 1v-.43a.44.44 0 01.32-.42q5.54-1.6 11.29-1.67a.81.8 77.2 01.75.48q.21.47-.11 1.04zM258.25 373.21l-18 1.33q8.59-2.74 17.64-2.07a.39.39 0 01.36.39v.35zM280.25 375.21l.41.04a.41.4 6.5 01.36.44c-.03.25-.11.33-.35.41q-4.37 1.49-6.41 1.43c-9.23-.28-18.19 2.43-27.93 2.29q-.86-.01-4.45.48-2.7.38-5.19-.8l43.56-4.29zM294.96 375.24q3.56 7.31 4.25 15.27a.63.62 79.8 01-.45.65l-20.26 5.63q-.53.09-.76-.3-.72-1.18.66-1.18c2.44.01 4.88-1.23 6.59-1.64q9.08-2.16 11.77-2.93c2.05-.59 1.2-2.25.84-3.67q-1.46-5.88-2.64-11.83zM412.56 378.74a.41.41 0 01.42-.48q5.11.16 9.67-2.13a.44.44 0 01.48.72l-7.54 6.52a.64.63 49.1 01-.9-.07q-1.7-2.01-2.13-4.56zM425.54 392.23c-1-.51-2.03-.86-3.12-.99a.48.48 0 01-.36-.69l7.2-13.59a.18.18 0 01.33.12c-1.15 5.21-.62 9.51-3.38 14.94a.5.49 26.8 01-.67.21zM416.85 386.55a1 .99 47.1 01.05-1.49l8.06-6.66q2.14-1.77.52.48-3.3 4.59-4.78 10.06a.61.61 0 01-1 .28l-2.85-2.67zM480.75 408.85a.45.45 0 01.74.05l2.41 4.13a.67.66 60 01-.24.92l-7.2 4.07a.56.55 86.7 01-.78-.7q1.95-4.6 5.07-8.47zM485.88 418.49c-1.03.2-6.59 1.24-7.2.99a.33.32-42.4 01.03-.61q3.22-1.01 5.66-3.28a.57.57 0 01.91.18l.95 2.05a.48.48 0 01-.35.67z"/><path fill="#fdfbde" d="M454.25 421.04l-.4 3.8q-3.18-1.08-1.65-4.42a.45.45 0 01.64-.2l1.41.82z"/><path fill="#acabac" d="M486.76 427.22c-2.18-.31-7.81-1.95-9.04-3.83a.85.85 0 01.55-1.3l7.69-1.5a.7.69-19.3 01.75.36q1.47 2.77.71 5.82a.6.6 0 01-.66.45zM454.25 421.04q4.43.77 8.32 2.96.52.29-.07.33l-8.65.51.4-3.8zM332.95 426.62q.89 1.61.05 3.15c-.96 1.74-8.11 4.22-10.23 5.26a.35.35 0 01-.51-.3c-.07-1.29 8.55-7.05 10.05-8.24a.43.42-33.4 01.64.13zM455.93 427.11l5.84-.85q1.05-.15.22.5l-6.65 5.21a.75.75 0 01-1.17-.34l-1.5-4.16q-.34-.95.64-.74l1.62.35q.5.1 1 .03zM455.37 434.8l6.99-5.35a.39.39 0 01.55.55l-5.7 7.33a.39.39 0 01-.64-.03l-1.29-1.98a.39.39 0 01.09-.52zM335.89 433.26c-.23 1.67.32 2.9-1.89 3.17q-5.46.66-10.65 1.46a.33.33 0 01-.16-.63c1.79-.61 11.36-5.03 12.25-4.73a.68.68 0 01.45.73zM297.65 439.3q-1.3.9-2.43-.05a.72.72 0 01-.24-.7l.7-3.38a.96.95 24 011.5-.57q3.64 2.66 8.1 3.5.82.15.02.39-3.33 1.01-6.66.57a1.43 1.42-58.5 00-.99.24zM337.8 443.16c-2.78.15-10.64-.89-12.46-3.18a.27.27 0 01.21-.43q5.76-.09 11.36-1.49a.65.64-23.2 01.71.28q1.25 1.98.77 4.31a.64.63-85.3 01-.59.51zM296.13 445.71q-.37-.45-.31-1.17.02-.31-.08-.61c-.48-1.47.36-1.98 1.68-2.02q4.09-.15 7.97-1.3a.49.47 76.9 01.61.39c.03.12-8.51 4.45-9.08 4.83a.6.6 0 01-.79-.12zM298.06 448.28a1.25 1.25 0 01.67-1.2l10.8-5.43q.93-.46.29.35-5.02 6.34-10.81 11.99-.51.49-.56-.21l-.39-5.5zM352.65 459.95a.49.49 0 01.88.05q1.51 3.74 4.32 6.55a.6.59-48 01.03.81c-1.66 1.98-4.05 3.16-5.69 4.66q-2.76 2.55-5.58 4.61a.6.59 81.2 01-.91-.67q2.71-8.35 6.95-16.01zM347.11 481.11q-.81.34-.54-.49c.24-.72 13.2-11 15.15-12.61a1.13 1.13 0 011.74.39l1.89 4.04a.94.93-24.1 01-.49 1.26l-17.75 7.41zM451.5 483.89q-.07.92-.55.13l-5.88-9.85a.91.89-42.1 01.06-1.03q1.48-1.87 3.65-2.91a.67.67 0 01.92.37q2.35 6.42 1.8 13.29zM370.28 482.07c-5.23.46-11.43.37-16.6-.25a.46.45-53.1 01-.12-.87l13.79-6.07a.57.56-23 01.75.3l2.58 6.23a.48.48 0 01-.4.66zM437.04 482.5l-.41.01q-.73.03-.24-.52l4.55-5.15a.97.97 0 011.57.17c2.16 3.85 3.81 7.83 7.23 10.7a.55.54-50.7 01.07.76q-.37.46-1.08.06-8.07-4.54-10.78-5.84-.43-.21-.91-.19zM314.53 491.42l-1.81-6.29a.69.69 0 01.69-.88l17.01.66a.69.69 0 01.22 1.33l-15.21 5.64a.69.69 0 01-.9-.46zM433.68 486.58a.18.17 15.7 01-.12-.21c1.25-4.72 9.48.99 12.13 3.13q.97.79-.23.44l-11.78-3.36zM320.63 499.65a.89.88 49 01-1.49-.11l-2.84-5.21a.4.4 0 01.35-.59h.69q.54 0 1.04-.23 7.86-3.57 16.12-6.12.69-.22.12.23c-4.75 3.71-10.37 7.14-13.99 12.03zM322.38 503.89a.85.55-60.3 01-.05-.93q.19-.38.77-.84 6.76-5.43 12.87-11.66a.52.52 0 01.86.18l.19.51a1.45 1.45 0 01-.05 1.1q-3.67 7.94-8.51 15.27a.65.65 0 01-.93.16l-5.15-3.79zM398.38 490.74l4.07.31a.54.54 0 01.49.65q-1.24 6.09-1.15 12.33a.38.38 0 01-.74.11l-3.59-12.27a.89.88-5.9 01.92-1.13zM393.51 491.49a1.12 1.11 70.6 011.49.72l4.28 14.84q.43 1.49-.44.21l-9.09-13.42a.61.61 0 01.27-.91l3.49-1.44zM413.55 494.54l-6.55 9.12a.69.69 0 01-1.23-.54l2.2-11a.69.69 0 01.96-.5l4.34 1.89a.69.69 0 01.28 1.03zM466.02 497.46q-1.08-.63.17-.58l11.15.38a.53.52 23.2 01.36.89l-2.45 2.51a.7.7 0 01-.86.12c-2.79-1.65-5.53-1.66-8.37-3.32zM467.63 510.3l-8.17-12.28a.33.33 0 01.44-.47l12.69 7.53a.33.33 0 01.08.51l-4.52 4.76a.33.33 0 01-.52-.05zM459.2 503.04a.82.34-23.5 01.55-.57c.43-.21 5.21 7.73 5.76 8.58a1.07 1.06-47.9 01.05 1.03q-1.1 2.27-3.85 2.3a.75.75 0 01-.74-.63l-1.77-10.71zM408.46 532.95l-3.26-10.49a.34.34 0 01.59-.32l6.82 8.63a.34.34 0 01-.11.51l-3.55 1.87a.34.34 0 01-.49-.2zM394.02 533.48l5.29-10.01a.63.63 0 011.19.3l-.11 10.35a.63.63 0 01-.67.62l-5.18-.34a.63.63 0 01-.52-.92z"/><path fill="#fdfbde" d="M405.48 533.35a.67.67 0 01-.61.87l-.97.03a.61.6 88.2 01-.63-.6l-.08-6.32q-.01-1.25.36-.05l1.93 6.07z"/><path fill="#1c1a1c" d="M0 589.94l.25.1c-.14.46-.01.72.5.7q6.23-.17 12.44.26H0v-1.06z"/></svg>