<svg xmlns="http://www.w3.org/2000/svg" viewBox="0 0 591 591"><g stroke-width="2" fill="none"><path stroke="#cccdce" vector-effect="non-scaling-stroke" d="M591 2.56q-.28-2.76-.76-1.81"/><path stroke="#4c4e4f" vector-effect="non-scaling-stroke" d="M590.24.75q-1.47.03-2.24.03Q294 .97 0 .94"/><path stroke="#cccdce" vector-effect="non-scaling-stroke" d="M8.19 591q-2.38-.63-4.75 0"/><path stroke="gray" vector-effect="non-scaling-stroke" d="M0 589.94q4.12.13 8.25.14 290.72.17 581.33.17a.68.67 90 00.67-.68L590.24.75"/><path stroke="#7e7f71" vector-effect="non-scaling-stroke" d="M585.5 5.52a.26.26 0 00-.26-.26H5.5a.26.26 0 00-.26.26v579.72a.26.26 0 00.26.26h579.74a.26.26 0 00.26-.26V5.52"/><path stroke="#fbf2c7" vector-effect="non-scaling-stroke" d="M20.87 87.77C40.76 67.91 61 48.45 80.75 28.5q1.69-1.71 3.02-3.83a.5.5 0 00-.42-.77q-22.38-.32-44.66.13c-10.17.2-19.63 6-19.8 17.03-.31 19.45-.84 31.93.49 46.17a.88.87 64.8 001.49.54"/><path stroke="#8e8f80" vector-effect="non-scaling-stroke" d="M310.58 394.91l4.44 6.15q.3.42.36.93.83 7.16 3.71 13.19c8.89 18.64 20.11 35.59 32.13 52.87q21.94 31.54 44.95 60.2 6.8 8.46 10.86 10.79c13.44 7.7 32.06-2.26 41.87-12.15 9.32-9.4 21.11-25.78 11.94-38.57-26.35-36.72-58.21-76.97-92.1-108.31-2.67-2.46-7.48-4.3-10.12-7.75-2.44-3.18-8.28-7.94-9.52-11.24a1.14 1.13-42 01.05-.92c2.09-4.15-.84-7.11-3.13-10.26a1.26 1.24-60.2 01-.24-.9q.26-2.49 1.42-3.98c13.63-17.37 23.06-35.19 29.44-56.32 4.96-16.41 6.1-33.92 5.16-50.97-.18-3.4-.83-7.57-1.06-11.4-.26-4.52-1.42-8.34-2.54-13-10.93-45.6-40.57-81.91-82.56-102.4-24.26-11.84-53.14-17.28-80-14.67-3.83.37-8.28 1.38-12.45 1.97-23.65 3.34-47.54 15.14-66.29 29.42-41.03 31.24-62.68 81.08-59.79 132.18.27 4.71 1.58 9.98 2.18 15q.86 7.24 1.92 11.15c25.03 92.61 125.97 142.53 213.74 100.24q1.56-.75 3.25-.51a1.28 1.28 0 01.81.48c3.86 5.1 4.97 5.66 10.8 8.16a1.95 1.9-5.4 01.77.62"/><path stroke="#fdfff0" vector-effect="non-scaling-stroke" d="M453.06 152.54q2.6.44 4.54-1.6.21-.22-.08-.12l-4.47 1.56q-.31.11.01.16"/><path stroke="#cacdbf" vector-effect="non-scaling-stroke" d="M402.253 237.77a.86.49 89.8 00.487-.862.86.49 89.8 00-.493-.858.86.49 89.8 00-.487.862.86.49 89.8 00.493.858"/><path stroke="#8e8f80" vector-effect="non-scaling-stroke" d="M458.29 284.75a.6.6 0 01.6.59l.06 2.64a.6.6 0 01-.56.61l-2.56.2a.6.6 0 00-.55.57l-.13 2.82a.6.6 0 01-.59.57h-2.18a.6.6 0 00-.6.59l-.12 6.55a.6.6 0 00.6.61l2.27-.01a.6.6 0 01.6.59l.18 10.59a.6.6 0 00.63.59l6.36-.34a.6.6 0 00.57-.56l.14-2.14a.6.6 0 00-.54-.63l-3.01-.28a.6.6 0 01-.55-.6v-3.08a.6.6 0 01.61-.6l15.17.2a.6.6 0 01.59.62l-.11 2.96a.6.6 0 01-.57.58l-2.78.14a.6.6 0 00-.57.6v2.34a.6.6 0 00.58.6l6.3.25a.6.6 0 00.62-.6v-10.34a.6.6 0 01.58-.6l2.78-.11a.6.6 0 00.58-.62l-.25-6.72a.6.6 0 00-.6-.58h-2.5a.6.6 0 01-.6-.6l.02-2.96a.6.6 0 00-.57-.6l-2.87-.16a.6.6 0 01-.57-.6l-.01-2.15a.6.6 0 01.54-.6l2.97-.3a.6.6 0 00.54-.65l-.21-2.58a.6.6 0 00-.6-.55h-5.86a.6.6 0 00-.6.59l-.11 6.32a.6.6 0 01-.6.59h-7.16a.6.6 0 01-.6-.58l-.17-6.37a.6.6 0 00-.59-.59l-6.25-.08a.6.6 0 00-.61.55l-.22 2.67a.6.6 0 00.59.65h2.49M424.32 292.53a.8.8 0 01-.7-.64l-.45-2.4a.8.8 0 00-.69-.64l-2.59-.34a.8.8 0 01-.69-.88l.22-1.92a.8.8 0 01.79-.71h2.24a.8.8 0 00.8-.8v-2.38a.8.8 0 00-.81-.8l-5.63.08a.8.8 0 00-.79.8l-.03 5.83a.8.8 0 01-.78.8l-6.84.15a.8.8 0 01-.82-.79l-.07-6.05a.8.8 0 00-.79-.79l-6.06-.07a.8.8 0 00-.81.77l-.08 2.38a.8.8 0 00.75.83l3.05.17a.8.8 0 01.75.88l-.2 1.99a.8.8 0 01-.77.72l-2.8.1a.8.8 0 00-.77.8v2.33a.8.8 0 01-.8.8h-2.07a.8.8 0 00-.8.78l-.12 6.4a.8.8 0 00.87.81l2.05-.19a.8.8 0 01.87.8v10.1a.8.8 0 00.8.8h6.16a.8.8 0 00.8-.8l-.01-1.86a.8.8 0 00-.68-.79l-2.19-.31a.8.8 0 01-.67-.92l.37-2.37a.8.8 0 01.77-.68l13.7-.34a.8.8 0 01.82.82l-.07 2.67a.8.8 0 01-.77.78l-1.87.06a.8.8 0 00-.77.79l-.02 2.18a.8.8 0 00.81.8l5.45-.1a.8.8 0 00.78-.78l.25-9.96a.8.8 0 01.75-.78l2.9-.18a.8.8 0 00.75-.83l-.21-6.07a.8.8 0 00-.71-.77l-2.57-.28M392.41 348.59l-.15 3.41a.52.51-88.8 01-.51.5l-2.96.01a.8.8 0 00-.72.45q-.74 1.53-.03 2.88a.76.75-14.8 00.7.4l6.18-.3a.61.61 0 00.58-.61v-10.45a.63.63 0 01.63-.63h2.86a.52.51-88.2 00.51-.49l.31-6.96a.76.76 0 00-.76-.8h-3.07a.5.5 0 01-.5-.52l.1-2.46a.5.5 0 00-.5-.52h-1.83a.75.75 0 01-.75-.75v-2.57a.63.62 88.1 01.58-.63l1.78-.15a.69.69 0 00.64-.69v-2.88a.65.64-.9 00-.67-.64l-6.59.21a.59.58 88 00-.56.61l.33 6.79a.57.57 0 01-.55.6l-6.5.14a.56.56 0 01-.57-.58l.15-6.7a.82.81-88.2 00-.78-.84l-6.77-.23a.77.77 0 00-.79.83l.21 2.84a.7.69-2.2 00.7.64h2.14a.75.75 0 01.75.75v2.63a.63.62 0 01-.63.62h-2.49a.63.62 0 00-.63.62v2.45a.64.64 0 01-.63.65l-2.6.04a.48.48 0 00-.47.47l-.04 7.02a.49.49 0 00.49.5h2.63a.63.62-90 01.62.63v10.41a1.02 1.01 89.2 001.04 1.02l6.71-.21a.53.53 0 00.51-.59l-.29-2.43a.66.66 0 00-.64-.58h-2.96a.63.62-90 01-.62-.63v-3.24a.63.63 0 01.63-.63h15.21a.57.56 1.4 01.57.59M430.79 328.21a.59.59 0 01.68.58l.04 3.11a.59.59 0 01-.59.6h-2.33a.59.59 0 00-.59.59v2.3a.59.59 0 01-.54.59l-3.42.32a.59.59 0 00-.54.59v6.77a.59.59 0 00.59.59l3.32-.01a.59.59 0 01.59.59v10.78a.59.59 0 00.62.59l5.84-.28a.59.59 0 00.56-.61l-.1-2.75a.59.59 0 00-.71-.56l-1.99.4a.59.59 0 01-.7-.51l-.38-3.22a.59.59 0 01.58-.66l15.03-.02a.59.59 0 01.6.6l-.03 2.9a.59.59 0 01-.54.58l-2.74.23a.59.59 0 00-.54.58v2.53a.59.59 0 00.59.59h6.83a.59.59 0 00.59-.59l-.03-10.38a.59.59 0 01.53-.59l2.38-.24a.59.59 0 00.52-.59l.06-6.83a.59.59 0 00-.53-.59l-2.47-.26a.59.59 0 01-.52-.65l.23-2.09a.59.59 0 00-.55-.65l-3.51-.19a.59.59 0 01-.56-.59v-2.68a.59.59 0 01.59-.59l3.26.02a.59.59 0 00.59-.59v-3.08a.59.59 0 00-.59-.59h-7.06a.59.59 0 00-.59.6l.09 6.84a.59.59 0 01-.56.6l-6.84.27a.59.59 0 01-.61-.57l-.29-7.17a.59.59 0 00-.59-.57h-5.91a.59.59 0 00-.59.62l.17 3.1a.59.59 0 00.67.55l1.99-.31M501.92 348a.58.58 0 01.58.58v3.17a.58.58 0 01-.68.58l-1.9-.32a.58.58 0 00-.67.49l-.41 2.83a.58.58 0 00.59.66l6.26-.17a.58.58 0 00.56-.58l-.01-10.52a.58.58 0 01.61-.58l2.3.12a.58.58 0 00.61-.56l.18-7.02a.58.58 0 00-.56-.6l-2.58-.12a.58.58 0 01-.55-.58v-2.49a.58.58 0 00-.61-.58l-2.81.14a.58.58 0 01-.61-.59l.08-3.06a.58.58 0 01.59-.57l2.77.07a.58.58 0 00.59-.58v-2.89a.58.58 0 00-.58-.58h-6.09a.58.58 0 00-.58.58v7a.58.58 0 01-.58.58l-7.09.02a.58.58 0 01-.58-.58v-6.98a.58.58 0 00-.57-.58l-6.85-.06a.58.58 0 00-.58.57l-.01 2.86a.58.58 0 00.58.58l2.93.01a.58.58 0 01.57.57l.03 2.78a.58.58 0 01-.5.57l-3.15.47a.58.58 0 00-.49.65l.29 1.91a.58.58 0 01-.54.67l-2.91.17a.58.58 0 00-.55.58v7.05a.58.58 0 00.58.58h2.59a.58.58 0 01.58.58v10.59a.58.58 0 00.58.58h6.78a.58.58 0 00.58-.61l-.15-2.58a.58.58 0 00-.57-.54l-2.98-.03a.58.58 0 01-.58-.54l-.21-3.08a.58.58 0 01.58-.62h15.14"/><path stroke="#fdfff0" vector-effect="non-scaling-stroke" d="M390.79 361.59q.18-1.18-1.29-.53a.17.17 0 00-.05.27l.53.52q.66.67.81-.26"/><path stroke="#cacdbf" vector-effect="non-scaling-stroke" d="M236.01 579.99q-.16 1.07.22 2a.36.36 0 00.6.1q.93-1.08.02-2.31-.67-.91-.84.21"/><path stroke="#5c5d5e" vector-effect="non-scaling-stroke" d="M123.46 149.5c-15.76 16.24-27.89 36.97-33.79 59.33-4.84 18.37-7.69 38.38-4.58 57.31.45 2.72.56 6.35 1.32 9.49q1.65 6.86 1.67 6.95c2.73 13.65 8.34 25.78 15.02 37.93 26.13 47.49 77.21 75.32 130.95 73.21 24.27-.96 50-7.11 69.7-21.93"/><path stroke="#908f8f" vector-effect="non-scaling-stroke" d="M303.75 371.79q29.32-18.69 49.18-46.92c4.75-6.75 8.34-15.02 12.25-22.68 3.82-7.48 5.87-16.14 7.7-25.11q4.88-23.85 1.64-48.17c-.21-1.59-.99-3.02-1.08-4.84q-.14-2.95-.28-3.61c-19.29-93.54-118.18-145.43-205.4-103.18-18.23 8.83-32.5 16.73-44.3 32.22"/><path stroke="#cccdce" vector-effect="non-scaling-stroke" d="M303.75 371.79q-3.68-2.34-3.5-6.75"/><path stroke="#908f8f" vector-effect="non-scaling-stroke" d="M300.25 365.04q29.1-17.1 45.6-47.47 18.34-33.72 18.05-71.54-.03-3.67.07-7.35c.07-2.89-1.26-5.48-.97-8.67q.13-1.43-1.23-5.41a1.98 1.93 42.2 01-.06-.99q.49-2.38-.98-4.15a1.28 1.25 31.5 01-.26-1.03q.37-2.02-.69-3.68-.28-.44-.32-.97-.17-2.53-.49-3.51-14.86-46.43-54.06-73.35c-14.89-10.23-32.94-16.9-50.53-20.86-5.02-1.13-10.42-1.37-15.71-1.91q-7.19-.74-11.87-.68-35.02.47-65.65 16.94c-9.77 5.25-18.73 13.6-27.4 20.88"/><path stroke="#cccdce" vector-effect="non-scaling-stroke" d="M133.75 151.29c-3.72 1.47-5.33 5.47-9.51 4.81a.67.66 3.7 01-.56-.63l-.22-5.97"/><path stroke="#5c5d5e" vector-effect="non-scaling-stroke" d="M300.25 365.04c-9.22 5.45-16.97 8.4-28.94 12.25q-10.94 3.51-19.38 4.76-29.97 4.46-59.54-3.09c-4.71-1.21-9.49-3.27-14.21-5.05-1.84-.69-3.61-2.19-5.95-2.58q-.49-.08-.88-.39c-2.03-1.64-4.66-2.19-6.52-3.23q-35.44-19.87-54.73-55.53c-1.94-3.59-3.86-8.12-5.86-12.15-4.68-9.43-5.82-19.4-8.37-29.47-1.42-5.63-1.48-13.12-1.79-17.06-1.08-13.7 1.76-27.37 5.2-40.62 6.13-23.65 18.95-42.32 34.47-61.59M306.94 385.56q3.95 2.5 7.86-.02c9.77-6.3 20.34-13.36 26.65-23.37q.96-1.52 1.23-2.55c.64-2.45-1.72-5.57-4.01-3.46q-15.96 14.67-31.35 24.08c-1.95 1.2-2.69 3.87-.38 5.32M317.23 391.91c-1.49 3.47 2.65 5.45 5.49 4.06q15.71-7.71 26.83-21.27a1.21 1.2-28.2 00.28-.92q-.38-3.37-3.18-5.33a.73.73 0 00-.96.11q-11.92 13.72-27.79 22.6a1.58 1.56 87.2 00-.67.75M356.25 393.4c-6.08 6.44-11.58 11.99-19.06 16.83-2.39 1.55-5.6 2.58-8.3 4.27a1.25 1.24-9.4 00-.55.76c-1.25 4.82 9.32 19.74 13.01 25.15q23.7 34.78 48.36 68.89 4.04 5.58 6.52 8.6a1.64 1.61-11.3 00.81.53q8.01 2.33 14.69-1.19 18.4-9.68 31.74-27.76c6.24-8.45-.36-14.66-5.53-20.94q-22.55-27.43-45.08-54.89-15.78-19.24-34.37-34.19a1.92 1.91-47.4 00-2.53.11c-10.5 10.07-19.99 19.23-33.52 24.95a1.12 1.11 76.5 00-.68 1.13c.32 3.75 2.03 4.14 5.26 2.99 10.03-3.57 17.57-10.07 25.63-16.72q2.08-1.7 3.6-.05a1.13 1.12 45.2 010 1.53"/><path stroke="#5c5d5e" vector-effect="non-scaling-stroke" d="M408.54 533.07c15.55 6.33 38.79-10.51 45.37-23.89 2.14-4.35 4.28-8.91 4.28-13.5a2.05 1.96 31.2 00-.27-1l-4.93-8.47a1.35 1.35 0 00-2.41.15q-1.66 3.88-4.75 8.21c-10.45 14.66-24.76 27.55-43.02 30.73a.78.78 0 00-.55 1.13c1.57 3.01 3.04 5.32 6.28 6.64"/><path stroke="#8e8f80" vector-effect="non-scaling-stroke" d="M293.87 134.8c-18.98-10.68-42.27-15.9-63.96-16.71q-4.16-.16-8.78.45c-7.31.96-15.32 1.88-21.78 3.44-69.48 16.75-111.15 84.72-97.1 153.99q2.85 14.08 11.22 31.47c3.93 8.2 10.4 17.69 16.01 24.39 50.79 60.54 142.84 61.87 196.21 4.09 14.7-15.91 25.41-36.49 30.76-57.63 3.21-12.67 3.14-25.42 2.94-38.79q-.13-8.47-1.58-15.36c-7.92-37.68-30.26-70.39-63.94-89.34"/><path stroke="#8e8f80" vector-effect="non-scaling-stroke" d="M211.51 330.58a.67.67 0 01.66-.67l55.88-.3a.7.69 0 01.7.69v12.58a1.32 1.32 0 01-1.31 1.32l-12.45.07a.5.49-.6 00-.49.49v13.01a.51.51 0 00.52.51l27.82-.2a.42.42 0 00.41-.42v-41.41a.52.51 89.4 01.5-.52l12.92-.3a.6.59 89.5 00.58-.6l.04-26.79a.5.5 0 00-.5-.5l-12.96-.12a.59.58 90 01-.58-.59v-13.08a.5.5 0 00-.5-.5h-13.83a.83.82.3 01-.83-.83l.08-12.73a.7.69 0 01.7-.69h13.88a.5.5 0 00.5-.5v-12.23a1.48 1.47 90 00-1.47-1.48l-26.78-.06a.52.51 90 00-.51.52l.25 27.4a.39.38-.7 01-.39.39l-28-.06a.56.56 0 01-.56-.56l.03-27.01a.66.66 0 00-.66-.66h-26.64a.49.49 0 00-.49.49l-.09 13.35a.4.4 0 00.4.41h13.29a.63.62-90 01.62.63v13.12a.5.5 0 01-.5.5h-13.28a.53.52-.5 00-.53.53l.09 13.25a.56.56 0 01-.56.56l-13.96-.06a.67.67 0 01-.66-.76q.86-6.43.1-12.88a.63.62 86.3 00-.62-.55l-12.16-.06a.43.42.7 01-.42-.42l-.01-27.11a.72.71 86.8 00-.79-.72l-2.4.27a1.28 1.28 0 01-1.35-1.68c3.77-11.21 6.87-23.03 12.08-33.41a.78.76 14.2 01.72-.42c3.05.17 5.9.16 8.77 1.04q10.72 3.28 18.06 10.83c5.73 5.88 10.34 11.31 17.35 14.83 7.79 3.9 14.67 8.53 23.5 4.2a2.27 2.25-13.9 001.27-2.09q-.29-10.42 6.26-17.67c6.58-7.3 18.25-15.94 14.23-27.49a.63.63 0 00-.66-.42c-8.05.93-19.77-.65-23.38-9.39-7.88-19.06-20.15-32.67-41.82-38.29a.62.61 8.8 01-.46-.62q.32-5.76-4.88-7.52c-7.09-2.41-11.88 14.24-13.83 18.97q-3.26 7.91-5.52 14.18-12.24 33.93-25.93 74.54a.79.77-80.8 01-.72.53l-8.49.12a.46.46 0 00-.46.46l-.13 27.08a.48.48 0 00.49.48l13.39-.23a.46.46 0 01.46.46V287a.5.5 0 00.5.5h13.25a.5.5 0 01.5.5v13.23a.48.47 89.4 00.48.48l13.02-.2a.5.49 0 01.5.49v13.32a.57.57 0 00.57.57l13.39.07a.31.3-90 01.3.31l-.04 41.69a.49.48 0 00.49.48l27.09-.26a.47.47 0 00.46-.48l-.33-12.87a.6.59-.5 00-.6-.58h-13.11a.47.47 0 01-.47-.47l.01-13.2"/><path stroke="#fdfff0" vector-effect="non-scaling-stroke" d="M132.19 315.31c6.74 7.67 13.3 14.19 21.39 19.69 2.82 1.91 11.02 10.13 13.12 2.96a.87.86-58.7 00-.2-.84c-11.15-12.05-22.2-24.94-30.17-39.35-6.74-12.18-12.91-24.65-17.67-37.76a.93.92 49.4 00-1.68-.13c-3.7 6.76-3.14 14.52-1.34 21.84 3.21 13.08 7.39 23.17 16.55 33.59"/><path stroke="#5c5d5e" vector-effect="non-scaling-stroke" d="M192.32 143q-8.4 16.27-13.73 33.78-1.78 5.87-3.99 11.6c-2.94 7.64-5.26 15.5-8.41 23.8q-4.02 10.57-10.52 32.61a.42.42 0 00.44.54l4.12-.32a.82.81-82.9 00.71-.56c7.24-22.64 12.4-37.83 19.79-55.57 1.95-4.68 3.27-9.71 5.28-14.06 4.33-9.38 10.61-20.25 11.47-30.61a2.69 2.69 0 00-1.58-2.68q-2.29-1.02-3.58 1.47"/><path stroke="#908f8f" vector-effect="non-scaling-stroke" d="M263.89 197.59c-11.07-.05-20.2-1.54-25.22-12.68q-3.73-8.31-5-10.59c-5.88-10.62-18.16-21.28-30.77-23.36a.83.82-1.2 00-.95.98q1.83 8.8 1.43 17.53c-.65 14.08-10.15 27.31-21.04 35.72q-.39.31.09.38 9.81 1.53 18.14 6.51c8.49 5.06 13.9 13.85 22.39 18.96 6.32 3.81 11.22 6.36 18.57 5.29a.58.58 0 00.5-.56c.11-6.92 2.65-11.18 6.9-16.54 4.28-5.38 15.42-14.07 15.46-21.14a.5.5 0 00-.5-.5"/><path stroke="#908f8f" vector-effect="non-scaling-stroke" d="M197.32 158.88c-5.45 12.66-11.7 25.51-15.69 38.56a.33.33 0 00.56.32q2.74-3.09 5.88-6.17c6.92-6.8 9.96-14.53 9.94-24.15-.01-1.77.42-7.3-.4-8.59a.17.17 0 00-.29.03"/><path stroke="#5c5d5e" vector-effect="non-scaling-stroke" d="M157.25 257.91c-1.97.37-3.43-.58-5.36.1a.86.85 84.8 00-.55.67c-.3 2.07-1.27 9.74.28 9.97a.66.66 0 00.7-.39q.53-1.2 2.29-3.42 1.12-1.42 2.96-6.55.16-.46-.32-.38"/><path stroke="#908f8f" vector-effect="non-scaling-stroke" d="M226.448 287.747a.26.26 0 00-.26-.26l-14.28.025a.26.26 0 00-.26.26l.024 13.48a.26.26 0 00.26.26l14.28-.024a.26.26 0 00.26-.26l-.024-13.48M268.771 288.033a.52.52 0 00-.519-.521l-13.72-.024a.52.52 0 00-.52.52l-.023 12.96a.52.52 0 00.519.52l13.72.024a.52.52 0 00.52-.52l.023-12.96"/><path stroke="#cccdce" vector-effect="non-scaling-stroke" d="M241.3 198.83q-10.37-7.36-14.75-19.26c-.23-.64-1.18-1.44-1.85-1.27a1.36 1.36 0 00-.96 1.65c2.46 9.79 8.43 18.88 18.61 22.1a.88.88 0 001.15-.84c0-1.21-1.4-1.82-2.2-2.38M234.78 201.4q-6.9-3.32-9.98-10.46a1.15 1.14-25.1 00-1.57-.56q-1.53.77-.83 2.3c2.04 4.47 6.32 11.7 12.18 10.41a.9.9 0 00.2-1.69M228.04 206.04l-5.88-4.91a.55.55 0 00-.74.03l-.45.44a.75.74 54.4 00-.14.87c1.13 2.18 4.42 5.37 7.12 4.2a.37.37 0 00.09-.63"/><path stroke="#908f8f" vector-effect="non-scaling-stroke" d="M463.457 293.486a.81.81 0 00-.786-.834l-2.779-.082a.81.81 0 00-.833.785l-.076 2.54a.81.81 0 00.786.833l2.779.082a.81.81 0 00.833-.785l.076-2.54M475.146 293.62a.87.87 0 00-.888-.852l-2.18.045a.87.87 0 00-.851.888l.047 2.26a.87.87 0 00.888.851l2.18-.045a.87.87 0 00.851-.888l-.047-2.26M418.002 297.146a2.26 1.99 86.4 001.844-2.381 2.26 1.99 86.4 00-2.128-2.13 2.26 1.99 86.4 00-1.844 2.38 2.26 1.99 86.4 002.128 2.13M407.889 294.113a1.18 1.18 0 00-1.223-1.136l-1.339.049a1.18 1.18 0 00-1.136 1.222l.06 1.64a1.18 1.18 0 001.223 1.135l1.339-.049a1.18 1.18 0 001.136-1.222l-.06-1.64M380.46 336.653a.43.43 0 00-.436-.425l-3.62.044a.43.43 0 00-.424.435l.04 3.32a.43.43 0 00.436.425l3.62-.044a.43.43 0 00.424-.435l-.04-3.32M392.225 336.626a.41.41 0 00-.417-.403l-3.519.055a.41.41 0 00-.404.416l.05 3.16a.41.41 0 00.416.403l3.52-.055a.41.41 0 00.404-.416l-.05-3.16M435.015 336.813a.7.7 0 00-.683-.717l-2.06-.05a.7.7 0 00-.716.682l-.07 2.9a.7.7 0 00.682.716l2.06.05a.7.7 0 00.716-.682l.07-2.9M447.156 336.57a.4.4 0 00-.413-.386l-3.438.114a.4.4 0 00-.387.413l.106 3.178a.4.4 0 00.413.387l3.438-.114a.4.4 0 00.387-.413l-.106-3.178M490.788 337.022a.86.86 0 00-.813-.905l-2.716-.147a.86.86 0 00-.905.812l-.142 2.616a.86.86 0 00.813.905l2.716.147a.86.86 0 00.905-.812l.142-2.616M502.476 337.05a1.1 1.1 0 00-1.132-1.068l-1.26.038a1.1 1.1 0 00-1.066 1.132l.066 2.219a1.1 1.1 0 001.132 1.067l1.26-.038a1.1 1.1 0 001.066-1.132l-.066-2.219"/></g><path fill="#989b9d" d="M0 0h591v2.56q-.28-2.76-.76-1.81-1.47.03-2.24.03Q294 .97 0 .94V0z"/><path fill="#fff" d="M591 2.56V591H8.19q-2.38-.63-4.75 0H0v-1.06q4.12.13 8.25.14 290.72.17 581.33.17a.68.67 90 00.67-.68L590.24.75q.48-.95.76 1.81z"/><path d="M590.24.75l.01 588.82a.68.67-90 01-.67.68q-290.61 0-581.33-.17-4.13-.01-8.25-.14V.94q294 .03 588-.16.77 0 2.24-.03zm-4.74 4.77a.26.26 0 00-.26-.26H5.5a.26.26 0 00-.26.26v579.72a.26.26 0 00.26.26h579.74a.26.26 0 00.26-.26V5.52z"/><path fill="#fbfee1" d="M585.5 585.24a.26.26 0 01-.26.26H5.5a.26.26 0 01-.26-.26V5.52a.26.26 0 01.26-.26h579.74a.26.26 0 01.26.26v579.72zM20.87 87.77C40.76 67.91 61 48.45 80.75 28.5q1.69-1.71 3.02-3.83a.5.5 0 00-.42-.77q-22.38-.32-44.66.13c-10.17.2-19.63 6-19.8 17.03-.31 19.45-.84 31.93.49 46.17a.88.87 64.8 001.49.54zm289.71 307.14l4.44 6.15q.3.42.36.93.83 7.16 3.71 13.19c8.89 18.64 20.11 35.59 32.13 52.87q21.94 31.54 44.95 60.2 6.8 8.46 10.86 10.79c13.44 7.7 32.06-2.26 41.87-12.15 9.32-9.4 21.11-25.78 11.94-38.57-26.35-36.72-58.21-76.97-92.1-108.31-2.67-2.46-7.48-4.3-10.12-7.75-2.44-3.18-8.28-7.94-9.52-11.24a1.14 1.13-42 01.05-.92c2.09-4.15-.84-7.11-3.13-10.26a1.26 1.24-60.2 01-.24-.9q.26-2.49 1.42-3.98c13.63-17.37 23.06-35.19 29.44-56.32 4.96-16.41 6.1-33.92 5.16-50.97-.18-3.4-.83-7.57-1.06-11.4-.26-4.52-1.42-8.34-2.54-13-10.93-45.6-40.57-81.91-82.56-102.4-24.26-11.84-53.14-17.28-80-14.67-3.83.37-8.28 1.38-12.45 1.97-23.65 3.34-47.54 15.14-66.29 29.42-41.03 31.24-62.68 81.08-59.79 132.18.27 4.71 1.58 9.98 2.18 15q.86 7.24 1.92 11.15c25.03 92.61 125.97 142.53 213.74 100.24q1.56-.75 3.25-.51a1.28 1.28 0 01.81.48c3.86 5.1 4.97 5.66 10.8 8.16a1.95 1.9-5.4 01.77.62zm142.48-242.37q2.6.44 4.54-1.6.21-.22-.08-.12l-4.47 1.56q-.31.11.01.16zm-50.807 85.23a.86.49 89.8 00.487-.862.86.49 89.8 00-.493-.858.86.49 89.8 00-.487.862.86.49 89.8 00.493.858zm56.037 46.98a.6.6 0 01.6.59l.06 2.64a.6.6 0 01-.56.61l-2.56.2a.6.6 0 00-.55.57l-.13 2.82a.6.6 0 01-.59.57h-2.18a.6.6 0 00-.6.59l-.12 6.55a.6.6 0 00.6.61l2.27-.01a.6.6 0 01.6.59l.18 10.59a.6.6 0 00.63.59l6.36-.34a.6.6 0 00.57-.56l.14-2.14a.6.6 0 00-.54-.63l-3.01-.28a.6.6 0 01-.55-.6v-3.08a.6.6 0 01.61-.6l15.17.2a.6.6 0 01.59.62l-.11 2.96a.6.6 0 01-.57.58l-2.78.14a.6.6 0 00-.57.6v2.34a.6.6 0 00.58.6l6.3.25a.6.6 0 00.62-.6v-10.34a.6.6 0 01.58-.6l2.78-.11a.6.6 0 00.58-.62l-.25-6.72a.6.6 0 00-.6-.58h-2.5a.6.6 0 01-.6-.6l.02-2.96a.6.6 0 00-.57-.6l-2.87-.16a.6.6 0 01-.57-.6l-.01-2.15a.6.6 0 01.54-.6l2.97-.3a.6.6 0 00.54-.65l-.21-2.58a.6.6 0 00-.6-.55h-5.86a.6.6 0 00-.6.59l-.11 6.32a.6.6 0 01-.6.59h-7.16a.6.6 0 01-.6-.58l-.17-6.37a.6.6 0 00-.59-.59l-6.25-.08a.6.6 0 00-.61.55l-.22 2.67a.6.6 0 00.59.65h2.49zm-33.97 7.78a.8.8 0 01-.7-.64l-.45-2.4a.8.8 0 00-.69-.64l-2.59-.34a.8.8 0 01-.69-.88l.22-1.92a.8.8 0 01.79-.71h2.24a.8.8 0 00.8-.8v-2.38a.8.8 0 00-.81-.8l-5.63.08a.8.8 0 00-.79.8l-.03 5.83a.8.8 0 01-.78.8l-6.84.15a.8.8 0 01-.82-.79l-.07-6.05a.8.8 0 00-.79-.79l-6.06-.07a.8.8 0 00-.81.77l-.08 2.38a.8.8 0 00.75.83l3.05.17a.8.8 0 01.75.88l-.2 1.99a.8.8 0 01-.77.72l-2.8.1a.8.8 0 00-.77.8v2.33a.8.8 0 01-.8.8h-2.07a.8.8 0 00-.8.78l-.12 6.4a.8.8 0 00.87.81l2.05-.19a.8.8 0 01.87.8v10.1a.8.8 0 00.8.8h6.16a.8.8 0 00.8-.8l-.01-1.86a.8.8 0 00-.68-.79l-2.19-.31a.8.8 0 01-.67-.92l.37-2.37a.8.8 0 01.77-.68l13.7-.34a.8.8 0 01.82.82l-.07 2.67a.8.8 0 01-.77.78l-1.87.06a.8.8 0 00-.77.79l-.02 2.18a.8.8 0 00.81.8l5.45-.1a.8.8 0 00.78-.78l.25-9.96a.8.8 0 01.75-.78l2.9-.18a.8.8 0 00.75-.83l-.21-6.07a.8.8 0 00-.71-.77l-2.57-.28zm-31.91 56.06l-.15 3.41a.52.51-88.8 01-.51.5l-2.96.01a.8.8 0 00-.72.45q-.74 1.53-.03 2.88a.76.75-14.8 00.7.4l6.18-.3a.61.61 0 00.58-.61v-10.45a.63.63 0 01.63-.63h2.86a.52.51-88.2 00.51-.49l.31-6.96a.76.76 0 00-.76-.8h-3.07a.5.5 0 01-.5-.52l.1-2.46a.5.5 0 00-.5-.52h-1.83a.75.75 0 01-.75-.75v-2.57a.63.62 88.1 01.58-.63l1.78-.15a.69.69 0 00.64-.69v-2.88a.65.64-.9 00-.67-.64l-6.59.21a.59.58 88 00-.56.61l.33 6.79a.57.57 0 01-.55.6l-6.5.14a.56.56 0 01-.57-.58l.15-6.7a.82.81-88.2 00-.78-.84l-6.77-.23a.77.77 0 00-.79.83l.21 2.84a.7.69-2.2 00.7.64h2.14a.75.75 0 01.75.75v2.63a.63.62 0 01-.63.62h-2.49a.63.62 0 00-.63.62v2.45a.64.64 0 01-.63.65l-2.6.04a.48.48 0 00-.47.47l-.04 7.02a.49.49 0 00.49.5h2.63a.63.62-90 01.62.63v10.41a1.02 1.01 89.2 001.04 1.02l6.71-.21a.53.53 0 00.51-.59l-.29-2.43a.66.66 0 00-.64-.58h-2.96a.63.62-90 01-.62-.63v-3.24a.63.63 0 01.63-.63h15.21a.57.56 1.4 01.57.59zm38.38-20.38a.59.59 0 01.68.58l.04 3.11a.59.59 0 01-.59.6h-2.33a.59.59 0 00-.59.59v2.3a.59.59 0 01-.54.59l-3.42.32a.59.59 0 00-.54.59v6.77a.59.59 0 00.59.59l3.32-.01a.59.59 0 01.59.59v10.78a.59.59 0 00.62.59l5.84-.28a.59.59 0 00.56-.61l-.1-2.75a.59.59 0 00-.71-.56l-1.99.4a.59.59 0 01-.7-.51l-.38-3.22a.59.59 0 01.58-.66l15.03-.02a.59.59 0 01.6.6l-.03 2.9a.59.59 0 01-.54.58l-2.74.23a.59.59 0 00-.54.58v2.53a.59.59 0 00.59.59h6.83a.59.59 0 00.59-.59l-.03-10.38a.59.59 0 01.53-.59l2.38-.24a.59.59 0 00.52-.59l.06-6.83a.59.59 0 00-.53-.59l-2.47-.26a.59.59 0 01-.52-.65l.23-2.09a.59.59 0 00-.55-.65l-3.51-.19a.59.59 0 01-.56-.59v-2.68a.59.59 0 01.59-.59l3.26.02a.59.59 0 00.59-.59v-3.08a.59.59 0 00-.59-.59h-7.06a.59.59 0 00-.59.6l.09 6.84a.59.59 0 01-.56.6l-6.84.27a.59.59 0 01-.61-.57l-.29-7.17a.59.59 0 00-.59-.57h-5.91a.59.59 0 00-.59.62l.17 3.1a.59.59 0 00.67.55l1.99-.31zM501.92 348a.58.58 0 01.58.58v3.17a.58.58 0 01-.68.58l-1.9-.32a.58.58 0 00-.67.49l-.41 2.83a.58.58 0 00.59.66l6.26-.17a.58.58 0 00.56-.58l-.01-10.52a.58.58 0 01.61-.58l2.3.12a.58.58 0 00.61-.56l.18-7.02a.58.58 0 00-.56-.6l-2.58-.12a.58.58 0 01-.55-.58v-2.49a.58.58 0 00-.61-.58l-2.81.14a.58.58 0 01-.61-.59l.08-3.06a.58.58 0 01.59-.57l2.77.07a.58.58 0 00.59-.58v-2.89a.58.58 0 00-.58-.58h-6.09a.58.58 0 00-.58.58v7a.58.58 0 01-.58.58l-7.09.02a.58.58 0 01-.58-.58v-6.98a.58.58 0 00-.57-.58l-6.85-.06a.58.58 0 00-.58.57l-.01 2.86a.58.58 0 00.58.58l2.93.01a.58.58 0 01.57.57l.03 2.78a.58.58 0 01-.5.57l-3.15.47a.58.58 0 00-.49.65l.29 1.91a.58.58 0 01-.54.67l-2.91.17a.58.58 0 00-.55.58v7.05a.58.58 0 00.58.58h2.59a.58.58 0 01.58.58v10.59a.58.58 0 00.58.58h6.78a.58.58 0 00.58-.61l-.15-2.58a.58.58 0 00-.57-.54l-2.98-.03a.58.58 0 01-.58-.54l-.21-3.08a.58.58 0 01.58-.62h15.14zm-111.13 13.59q.18-1.18-1.29-.53a.17.17 0 00-.05.27l.53.52q.66.67.81-.26zm-154.78 218.4q-.16 1.07.22 2a.36.36 0 00.6.1q.93-1.08.02-2.31-.67-.91-.84.21z"/><path fill="#fbe6ad" d="M80.75 28.5C61 48.45 40.76 67.91 20.87 87.77a.88.87 64.8 01-1.49-.54c-1.33-14.24-.8-26.72-.49-46.17.17-11.03 9.63-16.83 19.8-17.03q22.28-.45 44.66-.13a.5.5 0 01.42.77q-1.33 2.12-3.02 3.83z"/><path fill="#201f1f" d="M309.81 394.29c-5.83-2.5-6.94-3.06-10.8-8.16a1.28 1.28 0 00-.81-.48q-1.69-.24-3.25.51c-87.77 42.29-188.71-7.63-213.74-100.24q-1.06-3.91-1.92-11.15c-.6-5.02-1.91-10.29-2.18-15-2.89-51.1 18.76-100.94 59.79-132.18 18.75-14.28 42.64-26.08 66.29-29.42 4.17-.59 8.62-1.6 12.45-1.97 26.86-2.61 55.74 2.83 80 14.67 41.99 20.49 71.63 56.8 82.56 102.4 1.12 4.66 2.28 8.48 2.54 13 .23 3.83.88 8 1.06 11.4.94 17.05-.2 34.56-5.16 50.97-6.38 21.13-15.81 38.95-29.44 56.32q-1.16 1.49-1.42 3.98a1.26 1.24-60.2 00.24.9c2.29 3.15 5.22 6.11 3.13 10.26a1.14 1.13-42 00-.05.92c1.24 3.3 7.08 8.06 9.52 11.24 2.64 3.45 7.45 5.29 10.12 7.75 33.89 31.34 65.75 71.59 92.1 108.31 9.17 12.79-2.62 29.17-11.94 38.57-9.81 9.89-28.43 19.85-41.87 12.15q-4.06-2.33-10.86-10.79-23.01-28.66-44.95-60.2c-12.02-17.28-23.24-34.23-32.13-52.87q-2.88-6.03-3.71-13.19-.06-.51-.36-.93l-4.44-6.15a1.95 1.9-5.4 00-.77-.62zM123.46 149.5c-15.76 16.24-27.89 36.97-33.79 59.33-4.84 18.37-7.69 38.38-4.58 57.31.45 2.72.56 6.35 1.32 9.49q1.65 6.86 1.67 6.95c2.73 13.65 8.34 25.78 15.02 37.93 26.13 47.49 77.21 75.32 130.95 73.21 24.27-.96 50-7.11 69.7-21.93q29.32-18.69 49.18-46.92c4.75-6.75 8.34-15.02 12.25-22.68 3.82-7.48 5.87-16.14 7.7-25.11q4.88-23.85 1.64-48.17c-.21-1.59-.99-3.02-1.08-4.84q-.14-2.95-.28-3.61c-19.29-93.54-118.18-145.43-205.4-103.18-18.23 8.83-32.5 16.73-44.3 32.22zm183.48 236.06q3.95 2.5 7.86-.02c9.77-6.3 20.34-13.36 26.65-23.37q.96-1.52 1.23-2.55c.64-2.45-1.72-5.57-4.01-3.46q-15.96 14.67-31.35 24.08c-1.95 1.2-2.69 3.87-.38 5.32zm10.29 6.35c-1.49 3.47 2.65 5.45 5.49 4.06q15.71-7.71 26.83-21.27a1.21 1.2-28.2 00.28-.92q-.38-3.37-3.18-5.33a.73.73 0 00-.96.11q-11.92 13.72-27.79 22.6a1.58 1.56 87.2 00-.67.75zm39.02 1.49c-6.08 6.44-11.58 11.99-19.06 16.83-2.39 1.55-5.6 2.58-8.3 4.27a1.25 1.24-9.4 00-.55.76c-1.25 4.82 9.32 19.74 13.01 25.15q23.7 34.78 48.36 68.89 4.04 5.58 6.52 8.6a1.64 1.61-11.3 00.81.53q8.01 2.33 14.69-1.19 18.4-9.68 31.74-27.76c6.24-8.45-.36-14.66-5.53-20.94q-22.55-27.43-45.08-54.89-15.78-19.24-34.37-34.19a1.92 1.91-47.4 00-2.53.11c-10.5 10.07-19.99 19.23-33.52 24.95a1.12 1.11 76.5 00-.68 1.13c.32 3.75 2.03 4.14 5.26 2.99 10.03-3.57 17.57-10.07 25.63-16.72q2.08-1.7 3.6-.05a1.13 1.12 45.2 010 1.53zm52.29 139.67c15.55 6.33 38.79-10.51 45.37-23.89 2.14-4.35 4.28-8.91 4.28-13.5a2.05 1.96 31.2 00-.27-1l-4.93-8.47a1.35 1.35 0 00-2.41.15q-1.66 3.88-4.75 8.21c-10.45 14.66-24.76 27.55-43.02 30.73a.78.78 0 00-.55 1.13c1.57 3.01 3.04 5.32 6.28 6.64z"/><path fill="#fff" d="M303.75 371.79q-3.68-2.34-3.5-6.75 29.1-17.1 45.6-47.47 18.34-33.72 18.05-71.54-.03-3.67.07-7.35c.07-2.89-1.26-5.48-.97-8.67q.13-1.43-1.23-5.41a1.98 1.93 42.2 01-.06-.99q.49-2.38-.98-4.15a1.28 1.25 31.5 01-.26-1.03q.37-2.02-.69-3.68-.28-.44-.32-.97-.17-2.53-.49-3.51-14.86-46.43-54.06-73.35c-14.89-10.23-32.94-16.9-50.53-20.86-5.02-1.13-10.42-1.37-15.71-1.91q-7.19-.74-11.87-.68-35.02.47-65.65 16.94c-9.77 5.25-18.73 13.6-27.4 20.88-3.72 1.47-5.33 5.47-9.51 4.81a.67.66 3.7 01-.56-.63l-.22-5.97c11.8-15.49 26.07-23.39 44.3-32.22 87.22-42.25 186.11 9.64 205.4 103.18q.14.66.28 3.61c.09 1.82.87 3.25 1.08 4.84q3.24 24.32-1.64 48.17c-1.83 8.97-3.88 17.63-7.7 25.11-3.91 7.66-7.5 15.93-12.25 22.68q-19.86 28.23-49.18 46.92z"/><path fill="#201f1f" d="M300.25 365.04c-9.22 5.45-16.97 8.4-28.94 12.25q-10.94 3.51-19.38 4.76-29.97 4.46-59.54-3.09c-4.71-1.21-9.49-3.27-14.21-5.05-1.84-.69-3.61-2.19-5.95-2.58q-.49-.08-.88-.39c-2.03-1.64-4.66-2.19-6.52-3.23q-35.44-19.87-54.73-55.53c-1.94-3.59-3.86-8.12-5.86-12.15-4.68-9.43-5.82-19.4-8.37-29.47-1.42-5.63-1.48-13.12-1.79-17.06-1.08-13.7 1.76-27.37 5.2-40.62 6.13-23.65 18.95-42.32 34.47-61.59 8.67-7.28 17.63-15.63 27.4-20.88q30.63-16.47 65.65-16.94 4.68-.06 11.87.68c5.29.54 10.69.78 15.71 1.91 17.59 3.96 35.64 10.63 50.53 20.86q39.2 26.92 54.06 73.35.32.98.49 3.51.04.53.32.97 1.06 1.66.69 3.68a1.28 1.25 31.5 00.26 1.03q1.47 1.77.98 4.15a1.98 1.93 42.2 00.06.99q1.36 3.98 1.23 5.41c-.29 3.19 1.04 5.78.97 8.67q-.1 3.68-.07 7.35.29 37.82-18.05 71.54-16.5 30.37-45.6 47.47zm-6.38-230.24c-18.98-10.68-42.27-15.9-63.96-16.71q-4.16-.16-8.78.45c-7.31.96-15.32 1.88-21.78 3.44-69.48 16.75-111.15 84.72-97.1 153.99q2.85 14.08 11.22 31.47c3.93 8.2 10.4 17.69 16.01 24.39 50.79 60.54 142.84 61.87 196.21 4.09 14.7-15.91 25.41-36.49 30.76-57.63 3.21-12.67 3.14-25.42 2.94-38.79q-.13-8.47-1.58-15.36c-7.92-37.68-30.26-70.39-63.94-89.34z"/><path fill="#fbfee1" d="M229.91 118.09c21.69.81 44.98 6.03 63.96 16.71 33.68 18.95 56.02 51.66 63.94 89.34q1.45 6.89 1.58 15.36c.2 13.37.27 26.12-2.94 38.79-5.35 21.14-16.06 41.72-30.76 57.63-53.37 57.78-145.42 56.45-196.21-4.09-5.61-6.7-12.08-16.19-16.01-24.39q-8.37-17.39-11.22-31.47c-14.05-69.27 27.62-137.24 97.1-153.99 6.46-1.56 14.47-2.48 21.78-3.44q4.62-.61 8.78-.45zm-18.4 212.49a.67.67 0 01.66-.67l55.88-.3a.7.69 0 01.7.69v12.58a1.32 1.32 0 01-1.31 1.32l-12.45.07a.5.49-.6 00-.49.49v13.01a.51.51 0 00.52.51l27.82-.2a.42.42 0 00.41-.42v-41.41a.52.51 89.4 01.5-.52l12.92-.3a.6.59 89.5 00.58-.6l.04-26.79a.5.5 0 00-.5-.5l-12.96-.12a.59.58 90 01-.58-.59v-13.08a.5.5 0 00-.5-.5h-13.83a.83.82.3 01-.83-.83l.08-12.73a.7.69 0 01.7-.69h13.88a.5.5 0 00.5-.5v-12.23a1.48 1.47 90 00-1.47-1.48l-26.78-.06a.52.51 90 00-.51.52l.25 27.4a.39.38-.7 01-.39.39l-28-.06a.56.56 0 01-.56-.56l.03-27.01a.66.66 0 00-.66-.66h-26.64a.49.49 0 00-.49.49l-.09 13.35a.4.4 0 00.4.41h13.29a.63.62-90 01.62.63v13.12a.5.5 0 01-.5.5h-13.28a.53.52-.5 00-.53.53l.09 13.25a.56.56 0 01-.56.56l-13.96-.06a.67.67 0 01-.66-.76q.86-6.43.1-12.88a.63.62 86.3 00-.62-.55l-12.16-.06a.43.42.7 01-.42-.42l-.01-27.11a.72.71 86.8 00-.79-.72l-2.4.27a1.28 1.28 0 01-1.35-1.68c3.77-11.21 6.87-23.03 12.08-33.41a.78.76 14.2 01.72-.42c3.05.17 5.9.16 8.77 1.04q10.72 3.28 18.06 10.83c5.73 5.88 10.34 11.31 17.35 14.83 7.79 3.9 14.67 8.53 23.5 4.2a2.27 2.25-13.9 001.27-2.09q-.29-10.42 6.26-17.67c6.58-7.3 18.25-15.94 14.23-27.49a.63.63 0 00-.66-.42c-8.05.93-19.77-.65-23.38-9.39-7.88-19.06-20.15-32.67-41.82-38.29a.62.61 8.8 01-.46-.62q.32-5.76-4.88-7.52c-7.09-2.41-11.88 14.24-13.83 18.97q-3.26 7.91-5.52 14.18-12.24 33.93-25.93 74.54a.79.77-80.8 01-.72.53l-8.49.12a.46.46 0 00-.46.46l-.13 27.08a.48.48 0 00.49.48l13.39-.23a.46.46 0 01.46.46V287a.5.5 0 00.5.5h13.25a.5.5 0 01.5.5v13.23a.48.47 89.4 00.48.48l13.02-.2a.5.49 0 01.5.49v13.32a.57.57 0 00.57.57l13.39.07a.31.3-90 01.3.31l-.04 41.69a.49.48 0 00.49.48l27.09-.26a.47.47 0 00.46-.48l-.33-12.87a.6.59-.5 00-.6-.58h-13.11a.47.47 0 01-.47-.47l.01-13.2zm-79.32-15.27c6.74 7.67 13.3 14.19 21.39 19.69 2.82 1.91 11.02 10.13 13.12 2.96a.87.86-58.7 00-.2-.84c-11.15-12.05-22.2-24.94-30.17-39.35-6.74-12.18-12.91-24.65-17.67-37.76a.93.92 49.4 00-1.68-.13c-3.7 6.76-3.14 14.52-1.34 21.84 3.21 13.08 7.39 23.17 16.55 33.59z"/><path fill="#201f1f" d="M211.51 330.58l-.01 13.2a.47.47 0 00.47.47h13.11a.6.59-.5 01.6.58l.33 12.87a.47.47 0 01-.46.48l-27.09.26a.49.48 0 01-.49-.48l.04-41.69a.31.3 90 00-.3-.31l-13.39-.07a.57.57 0 01-.57-.57V302a.5.49 0 00-.5-.49l-13.02.2a.48.47 89.4 01-.48-.48V288a.5.5 0 00-.5-.5H156a.5.5 0 01-.5-.5v-13.21a.46.46 0 00-.46-.46l-13.39.23a.48.48 0 01-.49-.48l.13-27.08a.46.46 0 01.46-.46l8.49-.12a.79.77-80.8 00.72-.53q13.69-40.61 25.93-74.54 2.26-6.27 5.52-14.18c1.95-4.73 6.74-21.38 13.83-18.97q5.2 1.76 4.88 7.52a.62.61 8.8 00.46.62c21.67 5.62 33.94 19.23 41.82 38.29 3.61 8.74 15.33 10.32 23.38 9.39a.63.63 0 01.66.42c4.02 11.55-7.65 20.19-14.23 27.49q-6.55 7.25-6.26 17.67a2.27 2.25-13.9 01-1.27 2.09c-8.83 4.33-15.71-.3-23.5-4.2-7.01-3.52-11.62-8.95-17.35-14.83q-7.34-7.55-18.06-10.83c-2.87-.88-5.72-.87-8.77-1.04a.78.76 14.2 00-.72.42c-5.21 10.38-8.31 22.2-12.08 33.41a1.28 1.28 0 001.35 1.68l2.4-.27a.72.71 86.8 01.79.72l.01 27.11a.43.42.7 00.42.42l12.16.06a.63.62 86.3 01.62.55q.76 6.45-.1 12.88a.67.67 0 00.66.76l13.96.06a.56.56 0 00.56-.56l-.09-13.25a.53.52-.5 01.53-.53h13.28a.5.5 0 00.5-.5v-13.12a.63.62 90 00-.62-.63h-13.29a.4.4 0 01-.4-.41l.09-13.35a.49.49 0 01.49-.49h26.64a.66.66 0 01.66.66l-.03 27.01a.56.56 0 00.56.56l28 .06a.39.38-.7 00.39-.39l-.25-27.4a.52.51-90 01.51-.52l26.78.06a1.48 1.47-90 011.47 1.48v12.23a.5.5 0 01-.5.5h-13.88a.7.69 0 00-.7.69l-.08 12.73a.83.82.3 00.83.83h13.83a.5.5 0 01.5.5v13.08a.59.58-90 00.58.59l12.96.12a.5.5 0 01.5.5l-.04 26.79a.6.59 89.5 01-.58.6l-12.92.3a.52.51 89.4 00-.5.52v41.41a.42.42 0 01-.41.42l-27.82.2a.51.51 0 01-.52-.51v-13.01a.5.49-.6 01.49-.49l12.45-.07a1.32 1.32 0 001.31-1.32V330.3a.7.69 0 00-.7-.69l-55.88.3a.67.67 0 00-.66.67zM192.32 143q-8.4 16.27-13.73 33.78-1.78 5.87-3.99 11.6c-2.94 7.64-5.26 15.5-8.41 23.8q-4.02 10.57-10.52 32.61a.42.42 0 00.44.54l4.12-.32a.82.81-82.9 00.71-.56c7.24-22.64 12.4-37.83 19.79-55.57 1.95-4.68 3.27-9.71 5.28-14.06 4.33-9.38 10.61-20.25 11.47-30.61a2.69 2.69 0 00-1.58-2.68q-2.29-1.02-3.58 1.47zm71.57 54.59c-11.07-.05-20.2-1.54-25.22-12.68q-3.73-8.31-5-10.59c-5.88-10.62-18.16-21.28-30.77-23.36a.83.82-1.2 00-.95.98q1.83 8.8 1.43 17.53c-.65 14.08-10.15 27.31-21.04 35.72q-.39.31.09.38 9.81 1.53 18.14 6.51c8.49 5.06 13.9 13.85 22.39 18.96 6.32 3.81 11.22 6.36 18.57 5.29a.58.58 0 00.5-.56c.11-6.92 2.65-11.18 6.9-16.54 4.28-5.38 15.42-14.07 15.46-21.14a.5.5 0 00-.5-.5zm-66.57-38.71c-5.45 12.66-11.7 25.51-15.69 38.56a.33.33 0 00.56.32q2.74-3.09 5.88-6.17c6.92-6.8 9.96-14.53 9.94-24.15-.01-1.77.42-7.3-.4-8.59a.17.17 0 00-.29.03zm-40.07 99.03c-1.97.37-3.43-.58-5.36.1a.86.85 84.8 00-.55.67c-.3 2.07-1.27 9.74.28 9.97a.66.66 0 00.7-.39q.53-1.2 2.29-3.42 1.12-1.42 2.96-6.55.16-.46-.32-.38zm69.198 29.837a.26.26 0 00-.26-.26l-14.28.025a.26.26 0 00-.26.26l.024 13.48a.26.26 0 00.26.26l14.28-.024a.26.26 0 00.26-.26l-.024-13.48zm42.323.286a.52.52 0 00-.519-.521l-13.72-.024a.52.52 0 00-.52.52l-.023 12.96a.52.52 0 00.519.52l13.72.024a.52.52 0 00.52-.52l.023-12.96z"/><path fill="#989b9d" d="M192.32 143q1.29-2.49 3.58-1.47a2.69 2.69 0 011.58 2.68c-.86 10.36-7.14 21.23-11.47 30.61-2.01 4.35-3.33 9.38-5.28 14.06-7.39 17.74-12.55 32.93-19.79 55.57a.82.81-82.9 01-.71.56l-4.12.32a.42.42 0 01-.44-.54q6.5-22.04 10.52-32.61c3.15-8.3 5.47-16.16 8.41-23.8q2.21-5.73 3.99-11.6 5.33-17.51 13.73-33.78z"/><path fill="#989b9d" d="M123.46 149.5l.22 5.97a.67.66 3.7 00.56.63c4.18.66 5.79-3.34 9.51-4.81-15.52 19.27-28.34 37.94-34.47 61.59-3.44 13.25-6.28 26.92-5.2 40.62.31 3.94.37 11.43 1.79 17.06 2.55 10.07 3.69 20.04 8.37 29.47 2 4.03 3.92 8.56 5.86 12.15q19.29 35.66 54.73 55.53c1.86 1.04 4.49 1.59 6.52 3.23q.39.31.88.39c2.34.39 4.11 1.89 5.95 2.58 4.72 1.78 9.5 3.84 14.21 5.05q29.57 7.55 59.54 3.09 8.44-1.25 19.38-4.76c11.97-3.85 19.72-6.8 28.94-12.25q-.18 4.41 3.5 6.75c-19.7 14.82-45.43 20.97-69.7 21.93-53.74 2.11-104.82-25.72-130.95-73.21-6.68-12.15-12.29-24.28-15.02-37.93q-.02-.09-1.67-6.95c-.76-3.14-.87-6.77-1.32-9.49-3.11-18.93-.26-38.94 4.58-57.31 5.9-22.36 18.03-43.09 33.79-59.33z"/><path fill="#fff" d="M453.05 152.38l4.47-1.56q.29-.1.08.12-1.94 2.04-4.54 1.6-.32-.05-.01-.16zM238.67 184.91c5.02 11.14 14.15 12.63 25.22 12.68a.5.5 0 01.5.5c-.04 7.07-11.18 15.76-15.46 21.14-4.25 5.36-6.79 9.62-6.9 16.54a.58.58 0 01-.5.56c-7.35 1.07-12.25-1.48-18.57-5.29-8.49-5.11-13.9-13.9-22.39-18.96q-8.33-4.98-18.14-6.51-.48-.07-.09-.38c10.89-8.41 20.39-21.64 21.04-35.72q.4-8.73-1.43-17.53a.83.82-1.2 01.95-.98c12.61 2.08 24.89 12.74 30.77 23.36q1.27 2.28 5 10.59zm2.63 13.92q-10.37-7.36-14.75-19.26c-.23-.64-1.18-1.44-1.85-1.27a1.36 1.36 0 00-.96 1.65c2.46 9.79 8.43 18.88 18.61 22.1a.88.88 0 001.15-.84c0-1.21-1.4-1.82-2.2-2.38zm-6.52 2.57q-6.9-3.32-9.98-10.46a1.15 1.14-25.1 00-1.57-.56q-1.53.77-.83 2.3c2.04 4.47 6.32 11.7 12.18 10.41a.9.9 0 00.2-1.69zm-6.74 4.64l-5.88-4.91a.55.55 0 00-.74.03l-.45.44a.75.74 54.4 00-.14.87c1.13 2.18 4.42 5.37 7.12 4.2a.37.37 0 00.09-.63z"/><path fill="#fff" d="M197.32 158.88a.17.17 0 01.29-.03c.82 1.29.39 6.82.4 8.59.02 9.62-3.02 17.35-9.94 24.15q-3.14 3.08-5.88 6.17a.33.33 0 01-.56-.32c3.99-13.05 10.24-25.9 15.69-38.56z"/><path fill="#989b9d" d="M241.3 198.83c.8.56 2.2 1.17 2.2 2.38a.88.88 0 01-1.15.84c-10.18-3.22-16.15-12.31-18.61-22.1a1.36 1.36 0 01.96-1.65c.67-.17 1.62.63 1.85 1.27q4.38 11.9 14.75 19.26zM234.78 201.4a.9.9 0 01-.2 1.69c-5.86 1.29-10.14-5.94-12.18-10.41q-.7-1.53.83-2.3a1.15 1.14-25.1 011.57.56q3.08 7.14 9.98 10.46zM228.04 206.04a.37.37 0 01-.09.63c-2.7 1.17-5.99-2.02-7.12-4.2a.75.74 54.4 01.14-.87l.45-.44a.55.55 0 01.74-.03l5.88 4.91z"/><ellipse fill="#989b9d" transform="rotate(89.8 82.256 320.283)" rx=".86" ry=".49"/><path fill="#989b9d" d="M151.89 258.01c1.93-.68 3.39.27 5.36-.1q.48-.08.32.38-1.84 5.13-2.96 6.55-1.76 2.22-2.29 3.42a.66.66 0 01-.7.39c-1.55-.23-.58-7.9-.28-9.97a.86.85 84.8 01.55-.67z"/><path fill="#fff" d="M132.19 315.31c-9.16-10.42-13.34-20.51-16.55-33.59-1.8-7.32-2.36-15.08 1.34-21.84a.93.92 49.4 011.68.13c4.76 13.11 10.93 25.58 17.67 37.76 7.97 14.41 19.02 27.3 30.17 39.35a.87.86-58.7 01.2.84c-2.1 7.17-10.3-1.05-13.12-2.96-8.09-5.5-14.65-12.02-21.39-19.69z"/><path fill="#201f1f" d="M458.29 284.75h-2.49a.6.6 0 01-.59-.65l.22-2.67a.6.6 0 01.61-.55l6.25.08a.6.6 0 01.59.59l.17 6.37a.6.6 0 00.6.58h7.16a.6.6 0 00.6-.59l.11-6.32a.6.6 0 01.6-.59h5.86a.6.6 0 01.6.55l.21 2.58a.6.6 0 01-.54.65l-2.97.3a.6.6 0 00-.54.6l.01 2.15a.6.6 0 00.57.6l2.87.16a.6.6 0 01.57.6l-.02 2.96a.6.6 0 00.6.6h2.5a.6.6 0 01.6.58l.25 6.72a.6.6 0 01-.58.62l-2.78.11a.6.6 0 00-.58.6v10.34a.6.6 0 01-.62.6l-6.3-.25a.6.6 0 01-.58-.6v-2.34a.6.6 0 01.57-.6l2.78-.14a.6.6 0 00.57-.58l.11-2.96a.6.6 0 00-.59-.62l-15.17-.2a.6.6 0 00-.61.6v3.08a.6.6 0 00.55.6l3.01.28a.6.6 0 01.54.63l-.14 2.14a.6.6 0 01-.57.56l-6.36.34a.6.6 0 01-.63-.59l-.18-10.59a.6.6 0 00-.6-.59l-2.27.01a.6.6 0 01-.6-.61l.12-6.55a.6.6 0 01.6-.59h2.18a.6.6 0 00.59-.57l.13-2.82a.6.6 0 01.55-.57l2.56-.2a.6.6 0 00.56-.61l-.06-2.64a.6.6 0 00-.6-.59zm5.167 8.736a.81.81 0 00-.786-.834l-2.779-.082a.81.81 0 00-.833.785l-.076 2.54a.81.81 0 00.786.833l2.779.082a.81.81 0 00.833-.785l.076-2.54zm11.689.133a.87.87 0 00-.888-.851l-2.18.045a.87.87 0 00-.851.888l.047 2.26a.87.87 0 00.888.851l2.18-.045a.87.87 0 00.851-.888l-.047-2.26zM424.32 292.53l2.57.28a.8.8 0 01.71.77l.21 6.07a.8.8 0 01-.75.83l-2.9.18a.8.8 0 00-.75.78l-.25 9.96a.8.8 0 01-.78.78l-5.45.1a.8.8 0 01-.81-.8l.02-2.18a.8.8 0 01.77-.79l1.87-.06a.8.8 0 00.77-.78l.07-2.67a.8.8 0 00-.82-.82l-13.7.34a.8.8 0 00-.77.68l-.37 2.37a.8.8 0 00.67.92l2.19.31a.8.8 0 01.68.79l.01 1.86a.8.8 0 01-.8.8h-6.16a.8.8 0 01-.8-.8v-10.1a.8.8 0 00-.87-.8l-2.05.19a.8.8 0 01-.87-.81l.12-6.4a.8.8 0 01.8-.78h2.07a.8.8 0 00.8-.8v-2.33a.8.8 0 01.77-.8l2.8-.1a.8.8 0 00.77-.72l.2-1.99a.8.8 0 00-.75-.88l-3.05-.17a.8.8 0 01-.75-.83l.08-2.38a.8.8 0 01.81-.77l6.06.07a.8.8 0 01.79.79l.07 6.05a.8.8 0 00.82.79l6.84-.15a.8.8 0 00.78-.8l.03-5.83a.8.8 0 01.79-.8l5.63-.08a.8.8 0 01.81.8v2.38a.8.8 0 01-.8.8h-2.24a.8.8 0 00-.79.71l-.22 1.92a.8.8 0 00.69.88l2.59.34a.8.8 0 01.69.64l.45 2.4a.8.8 0 00.7.64zm-6.318 4.616a2.26 1.99 86.4 001.844-2.381 2.26 1.99 86.4 00-2.128-2.13 2.26 1.99 86.4 00-1.844 2.38 2.26 1.99 86.4 002.128 2.13zm-10.113-3.033a1.18 1.18 0 00-1.223-1.136l-1.339.049a1.18 1.18 0 00-1.136 1.222l.06 1.64a1.18 1.18 0 001.223 1.135l1.339-.049a1.18 1.18 0 001.136-1.222l-.06-1.64z"/><rect fill="#fff" x="-7.4" y="-7" transform="rotate(-.1 168845.558 -125364.853)" width="14.8" height="14" rx=".26"/><rect fill="#fff" x="-7.38" y="-7" transform="rotate(.1 -168605.338 149906.92)" width="14.76" height="14" rx=".52"/><rect fill="#fff" x="-2.2" y="-2.08" transform="rotate(1.7 -9700.716 15690.887)" width="4.4" height="4.16" rx=".81"/><ellipse fill="#fff" transform="rotate(86.4 51.917 369.933)" rx="2.26" ry="1.99"/><rect fill="#fff" x="-1.96" y="-2" transform="rotate(-1.2 14311.276 -22445.892)" width="3.92" height="4" rx=".87"/><rect fill="#fff" x="-1.85" y="-2" transform="rotate(-2.1 8250.827 -10930.354)" width="3.7" height="4" rx="1.18"/><path fill="#201f1f" d="M391.84 348h-15.21a.63.63 0 00-.63.63v3.24a.63.62 90 00.62.63h2.96a.66.66 0 01.64.58l.29 2.43a.53.53 0 01-.51.59l-6.71.21a1.02 1.01 89.2 01-1.04-1.02v-10.41a.63.62 90 00-.62-.63H369a.49.49 0 01-.49-.5l.04-7.02a.48.48 0 01.47-.47l2.6-.04a.64.64 0 00.63-.65v-2.45a.63.62 0 01.63-.62h2.49a.63.62 0 00.63-.62v-2.63a.75.75 0 00-.75-.75h-2.14a.7.69-2.2 01-.7-.64l-.21-2.84a.77.77 0 01.79-.83l6.77.23a.82.81-88.2 01.78.84l-.15 6.7a.56.56 0 00.57.58l6.5-.14a.57.57 0 00.55-.6l-.33-6.79a.59.58 88 01.56-.61l6.59-.21a.65.64-.9 01.67.64v2.88a.69.69 0 01-.64.69l-1.78.15a.63.62 88.1 00-.58.63v2.57a.75.75 0 00.75.75h1.83a.5.5 0 01.5.52l-.1 2.46a.5.5 0 00.5.52h3.07a.76.76 0 01.76.8l-.31 6.96a.52.51-88.2 01-.51.49h-2.86a.63.63 0 00-.63.63v10.45a.61.61 0 01-.58.61l-6.18.3a.76.75-14.8 01-.7-.4q-.71-1.35.03-2.88a.8.8 0 01.72-.45l2.96-.01a.52.51-88.8 00.51-.5l.15-3.41a.57.56 1.4 00-.57-.59zm-11.38-11.347a.43.43 0 00-.436-.425l-3.62.044a.43.43 0 00-.424.435l.04 3.32a.43.43 0 00.436.425l3.62-.044a.43.43 0 00.424-.435l-.04-3.32zm11.765-.027a.41.41 0 00-.417-.403l-3.519.055a.41.41 0 00-.404.416l.05 3.16a.41.41 0 00.416.403l3.52-.055a.41.41 0 00.404-.416l-.05-3.16zM430.79 328.21l-1.99.31a.59.59 0 01-.67-.55l-.17-3.1a.59.59 0 01.59-.62h5.91a.59.59 0 01.59.57l.29 7.17a.59.59 0 00.61.57l6.84-.27a.59.59 0 00.56-.6l-.09-6.84a.59.59 0 01.59-.6h7.06a.59.59 0 01.59.59v3.08a.59.59 0 01-.59.59l-3.26-.02a.59.59 0 00-.59.59v2.68a.59.59 0 00.56.59l3.51.19a.59.59 0 01.55.65l-.23 2.09a.59.59 0 00.52.65l2.47.26a.59.59 0 01.53.59l-.06 6.83a.59.59 0 01-.52.59l-2.38.24a.59.59 0 00-.53.59l.03 10.38a.59.59 0 01-.59.59h-6.83a.59.59 0 01-.59-.59v-2.53a.59.59 0 01.54-.58l2.74-.23a.59.59 0 00.54-.58l.03-2.9a.59.59 0 00-.6-.6l-15.03.02a.59.59 0 00-.58.66l.38 3.22a.59.59 0 00.7.51l1.99-.4a.59.59 0 01.71.56l.1 2.75a.59.59 0 01-.56.61l-5.84.28a.59.59 0 01-.62-.59v-10.78a.59.59 0 00-.59-.59l-3.32.01a.59.59 0 01-.59-.59v-6.77a.59.59 0 01.54-.59l3.42-.32a.59.59 0 00.54-.59v-2.3a.59.59 0 01.59-.59h2.33a.59.59 0 00.59-.6l-.04-3.11a.59.59 0 00-.68-.58zm4.225 8.603a.7.7 0 00-.683-.717l-2.06-.05a.7.7 0 00-.716.682l-.07 2.9a.7.7 0 00.682.716l2.06.05a.7.7 0 00.716-.682l.07-2.9zm12.141-.242a.4.4 0 00-.413-.387l-3.438.114a.4.4 0 00-.387.413l.106 3.178a.4.4 0 00.413.387l3.438-.114a.4.4 0 00.387-.413l-.106-3.178zM501.92 348h-15.14a.58.58 0 00-.58.62l.21 3.08a.58.58 0 00.58.54l2.98.03a.58.58 0 01.57.54l.15 2.58a.58.58 0 01-.58.61h-6.78a.58.58 0 01-.58-.58v-10.59a.58.58 0 00-.58-.58h-2.59a.58.58 0 01-.58-.58v-7.05a.58.58 0 01.55-.58l2.91-.17a.58.58 0 00.54-.67l-.29-1.91a.58.58 0 01.49-.65l3.15-.47a.58.58 0 00.5-.57l-.03-2.78a.58.58 0 00-.57-.57l-2.93-.01a.58.58 0 01-.58-.58l.01-2.86a.58.58 0 01.58-.57l6.85.06a.58.58 0 01.57.58v6.98a.58.58 0 00.58.58l7.09-.02a.58.58 0 00.58-.58v-7a.58.58 0 01.58-.58h6.09a.58.58 0 01.58.58v2.89a.58.58 0 01-.59.58l-2.77-.07a.58.58 0 00-.59.57l-.08 3.06a.58.58 0 00.61.59l2.81-.14a.58.58 0 01.61.58v2.49a.58.58 0 00.55.58l2.58.12a.58.58 0 01.56.6l-.18 7.02a.58.58 0 01-.61.56l-2.3-.12a.58.58 0 00-.61.58l.01 10.52a.58.58 0 01-.56.58l-6.26.17a.58.58 0 01-.59-.66l.41-2.83a.58.58 0 01.67-.49l1.9.32a.58.58 0 00.68-.58v-3.17a.58.58 0 00-.58-.58zm-11.132-10.978a.86.86 0 00-.813-.905l-2.716-.147a.86.86 0 00-.905.812l-.142 2.616a.86.86 0 00.813.905l2.716.147a.86.86 0 00.905-.812l.142-2.616zm11.688.027a1.1 1.1 0 00-1.132-1.067l-1.26.038a1.1 1.1 0 00-1.066 1.132l.066 2.219a1.1 1.1 0 001.132 1.067l1.26-.038a1.1 1.1 0 001.066-1.132l-.066-2.219z"/><rect fill="#fff" x="-1.73" y="-2.15" transform="rotate(1.4 -13624.528 17899.225)" width="3.46" height="4.3" rx=".7"/><rect fill="#fff" x="-2.22" y="-2.17" transform="rotate(3.1 -6005.195 9195.608)" width="4.44" height="4.34" rx=".86"/><rect fill="#fff" x="-1.73" y="-2.21" transform="rotate(-1.7 11648.38 -16707.645)" width="3.46" height="4.42" rx="1.1"/><rect fill="#fff" x="-2.24" y="-2.09" transform="rotate(-.7 27882.281 -30789.81)" width="4.48" height="4.18" rx=".43"/><rect fill="#fff" x="-2.17" y="-1.99" transform="rotate(-.9 21727.624 -24663.633)" width="4.34" height="3.98" rx=".41"/><rect fill="#fff" x="-2.12" y="-1.99" transform="rotate(-1.9 10421.164 -13251.644)" width="4.24" height="3.98" rx=".4"/><path fill="#989b9d" d="M306.94 385.56c-2.31-1.45-1.57-4.12.38-5.32q15.39-9.41 31.35-24.08c2.29-2.11 4.65 1.01 4.01 3.46q-.27 1.03-1.23 2.55c-6.31 10.01-16.88 17.07-26.65 23.37q-3.91 2.52-7.86.02z"/><path fill="#fff" d="M389.98 361.85l-.53-.52a.17.17 0 01.05-.27q1.47-.65 1.29.53-.15.93-.81.26z"/><path fill="#989b9d" d="M322.72 395.97c-2.84 1.39-6.98-.59-5.49-4.06a1.58 1.56 87.2 01.67-.75q15.87-8.88 27.79-22.6a.73.73 0 01.96-.11q2.8 1.96 3.18 5.33a1.21 1.2-28.2 01-.28.92q-11.12 13.56-26.83 21.27zM337.19 410.23c7.48-4.84 12.98-10.39 19.06-16.83a1.13 1.12 45.2 000-1.53q-1.52-1.65-3.6.05c-8.06 6.65-15.6 13.15-25.63 16.72-3.23 1.15-4.94.76-5.26-2.99a1.12 1.11 76.5 01.68-1.13c13.53-5.72 23.02-14.88 33.52-24.95a1.92 1.91-47.4 012.53-.11q18.59 14.95 34.37 34.19 22.53 27.46 45.08 54.89c5.17 6.28 11.77 12.49 5.53 20.94q-13.34 18.08-31.74 27.76-6.68 3.52-14.69 1.19a1.64 1.61-11.3 01-.81-.53q-2.48-3.02-6.52-8.6-24.66-34.11-48.36-68.89c-3.69-5.41-14.26-20.33-13.01-25.15a1.25 1.24-9.4 01.55-.76c2.7-1.69 5.91-2.72 8.3-4.27z"/><path fill="#989b9d" d="M408.54 533.07c-3.24-1.32-4.71-3.63-6.28-6.64a.78.78 0 01.55-1.13c18.26-3.18 32.57-16.07 43.02-30.73q3.09-4.33 4.75-8.21a1.35 1.35 0 012.41-.15l4.93 8.47a2.05 1.96 31.2 01.27 1c0 4.59-2.14 9.15-4.28 13.5-6.58 13.38-29.82 30.22-45.37 23.89zM236.85 579.78q.91 1.23-.02 2.31a.36.36 0 01-.6-.1q-.38-.93-.22-2 .17-1.12.84-.21zM8.19 591H3.44q2.37-.63 4.75 0z"/></svg>