<svg xmlns="http://www.w3.org/2000/svg" viewBox="0 0 591 591"><g stroke-width="2" fill="none"><path stroke="#11100f" vector-effect="non-scaling-stroke" d="M590.06 0l.19.29"/><path stroke="#7f7e70" vector-effect="non-scaling-stroke" d="M590.25.29v589.46a.5.5 0 01-.5.5q-291.28 0-582.56-.18-3.35 0-6.69-.03"/><path stroke="#11100f" vector-effect="non-scaling-stroke" d="M.5 590.04l-.5-.1"/><path stroke="#5b5b5c" vector-effect="non-scaling-stroke" d="M582.5 586.23l3.4.02a.5.49-1.6 00.5-.52l-.19-3.98"/><path stroke="#7f7e70" vector-effect="non-scaling-stroke" d="M586.21 581.75V11"/><path stroke="#5b5b5c" vector-effect="non-scaling-stroke" d="M586.21 11V7.5"/><path stroke="gray" vector-effect="non-scaling-stroke" d="M586.21 7.5l-.02-2.69a.51.5 0 00-.51-.5l-2.43-.02"/><path stroke="#5b5b5c" vector-effect="non-scaling-stroke" d="M583.25 4.29l-3.26-.02"/><path stroke="#7f7e70" vector-effect="non-scaling-stroke" d="M579.99 4.27L4.74 4.29a.5.49 90 00-.49.5v580.92a.5.5 0 00.5.5l577.75.02"/><path stroke="#dad9cb" vector-effect="non-scaling-stroke" d="M579.99 4.27q2.62 3.83 6.22 6.73M586.21 581.75q-3.26 1.1-3.71 4.48"/><path stroke="#dbdbdb" vector-effect="non-scaling-stroke" d="M583.25 4.29q.55 2.46 2.96 3.21"/><path stroke="#8f8e7f" vector-effect="non-scaling-stroke" d="M590.69 591V.49a.19.19 0 00-.18-.19l-.26-.01"/><path stroke="#c9cabc" vector-effect="non-scaling-stroke" d="M588.19 591q-4.63-.63-9.25 0M568.44 591q-3.38-.63-6.75 0M494.44 591q-2.38-.63-4.75 0M487.44 591q-2.75-.63-5.5 0M374.44 591q-2.38-.63-4.75 0M369.44 591q-3.25-.63-6.5 0M360.44 591q-2.75-.63-5.5 0M302.44 591q-2.25-.63-4.5 0M286.44 591q-2.13-.63-4.25 0M278.44 591q-2.25-.63-4.5 0M272.44 591q-3.25-.63-6.5 0M232.19 591q-3.13-.63-6.25 0M224.44 591q-3.38-.63-6.75 0M214.19 591q-2.75-.63-5.5 0M207.44 591q-2.75-.63-5.5 0M118.44 591q-2.38-.63-4.75 0M113.44 591q-3.38-.63-6.75 0M31.44 591q-7.38-.63-14.75 0"/><path stroke="#8f8e7f" vector-effect="non-scaling-stroke" d="M16.44 591l-15.8-.31a.26.25-81 01-.23-.33l.09-.32"/><path stroke="#fcf1c4" vector-effect="non-scaling-stroke" d="M94.81 39.06q-.68-.33-1.44-.29-14.95.71-30.13.45C50.67 39 40.13 38.78 35.7 51.04q-1.5 4.17-1.47 14.02.05 17.72.11 35.49a.53.53 0 00.52.52q1.6.03 2.91-1.31 19.44-19.81 57.25-57.88c.9-.91 1.17-2.14-.21-2.82"/><path stroke="#dad9cb" vector-effect="non-scaling-stroke" d="M394.29 433.25l.71.54"/><path stroke="#c9cabc" vector-effect="non-scaling-stroke" d="M395 433.79l-1.99 3.97a1.56 1.56 0 00.5 1.97c6.56 4.61 14.9 4.12 21.24 2.48"/><path stroke="#8f8e7f" vector-effect="non-scaling-stroke" d="M414.75 442.21q1.56 1.2 2.24 3.13a1.13 1.1-40.4 01-.09.95l-3.23 5.49a.73.73 0 00-.02.73l.85 1.56a.65.65 0 01-.22.86c-5.89 3.88-6.32 9.21-6.47 16.07-.15 6.62 2.49 12.23 5.96 17.59.96 1.47.89 2.89 1.05 4.55a.92.91-80.3 00.52.74q.97.48 2.66.52c12.04.34 19.9.56 29.43-7.21a.99.96-22 00.36-.81q-.11-2.12-1.53-3.7a1.48 1.47 23.6 01-.38-.96c-.08-5.55.29-11.86-1.54-17.14-2.76-7.93-6.72-13.27-15.69-14.23a1.29 1.27-17.6 01-.83-.42q-3.49-3.8-.67-8.14"/><path stroke="#c9cabc" vector-effect="non-scaling-stroke" d="M427.15 441.79q7.95.75 15.79.68c7.67-.07 14.03.43 20.92 1.07q1.9.18.36-.95-4.35-3.21-9.29-4.37c-1.93-.45-2.63-1.36-3.28-3.08a1.08 1.05-.9 00-.66-.62q-2.99-.97-5.96-2.11c-3.44-1.32-5.22-3.94-7.86-6.35-11.27-10.27-6.12-38.92-4.03-53.63 2.79-19.67 2.46-42.22-.72-62.51a.85.85 0 01.85-.98q13.82.23 26.83-.2c7.74-.25 16.28-1.69 24.51-2.34a1.46 1.46 0 00.87-.38c11.04-10.27 1.17-33.26-5.32-43.39-14.1-22.02-55.5-26.16-78.1-23.8-5.42.57-13.32 1.31-19.23 3.41-18.16 6.45-33.26 18.55-43.29 35.18"/><path stroke="#8f8e7f" vector-effect="non-scaling-stroke" d="M339.54 277.42q-14.13-2.36-29.28-3.46a.8.78 89.1 01-.72-.71l-3.75-40.19a1.23 1.22-12.5 01.82-1.27q13.58-4.74 27.36-9.09c7.62-2.4 21.68-6.21 31.84-10.12 16.57-6.38 36.36-14.21 52.45-25.8 14.14-10.18 26.02-23.66 35.64-38.12 4.79-7.19 8.41-13.02 10.82-20.41a1.2 1.2 0 00-1.44-1.54q-13.81 3.57-27.36 6.12c-10.69 2.02-20.2 5.1-31.85 6.53-4.75.59-9.85 2.09-14.93 2.69-2.63.31-4.96 1.31-7.39 1.71q-15.57 2.56-36.1 5.41c-17.22 2.39-32.05 1.53-48.33-2.52q-20.95-5.22-34.75-10-36.97-12.8-71.06-20.5c-8.48-1.92-17.85-2.34-27.26-3.64-13.15-1.83-30.78-3.65-44.47-1.06a1.29 1.28-34.1 01-.91-.17q-.83-.51-1.62-.3c-5.04 1.33-12.35 1.45-10.78 9.01 7.54 36.17 44.44 60.6 75.06 75.84 14.69 7.31 28.91 15.62 43.65 22.61a1.02 1.01-84.1 01.56.7c3.71 15.57 7.91 30.93 10.22 46.46a.3.3 0 01-.32.35q-12.7-.99-25.34-2.12c-11.81-1.06-23.51-1.24-35.31-1.67q-12.15-.46-24.23.88c-4.84.54-16.2 1.62-8.84 10.04 13.47 15.41 28.68 28.53 46.56 38.57q14.39 8.07 28.83 16.08a1.59 1.54-89.2 01.66.7c5.46 11.64 4.16 28.83 3.53 43.35q-.11 2.56-1.2 5.42-3.36 8.88-3.51 18.53a.57.56-2.3 01-.51.55c-2.93.28-5.67.8-8.53.43q-8.06-1.02-15.7-3.79-.46-.17-.15.22 6.41 7.75 12.4 11.33c11.47 6.86 32.13 15.1 43.96 27.27q9.74 10.01 16.33 15.42c20.42 16.77 40.34 34.14 60.83 50.82 7.05 5.73 13.71 11.9 20.79 17.62 3.29 2.65 7.62 6.93 11.93 9.86q.42.29.11-.12-6.59-8.88-9.66-11.43c-6-4.98-10.87-11.12-16.29-16.27q-6.85-6.49-12.69-13.95-.4-.51.15-.17 29.31 18.33 56.06 40.2a.39.39 0 00.58-.51c-3.43-5.34-8.59-9.89-12.48-15.35q-.13-.18.06-.06l49.73 32.41a1.17 1.17 0 001.8-.86q.73-7.31-.19-14.61a1.65 1.64 20.8 00-.41-.91c-3.76-4.22-3.24-8.18-4.47-12.63q-1.1-3.99-2.75-7.79c-2.33-5.37 1.89-9.5-2.62-14.28-5.55-5.89-9.03-13.68-12.14-21.92-1.51-4.02-.71-7.5-3.41-11.6a.79.79 0 01-.02-.85c1.16-1.94 2.35-3.31 2.23-5.72q-.18-3.57-1.06-7.16a1.5 1.46 51.1 01.09-.96l3.53-7.67"/><path stroke="#5b5b5c" vector-effect="non-scaling-stroke" d="M339.54 277.42l4.63 1.29"/><path stroke="#6c6b6b" vector-effect="non-scaling-stroke" d="M344.17 278.71c2.9.74 23.28 5.17 14.52 11.5q-9.37 6.78-19.94 11.58"/><path stroke="#5b5b5c" vector-effect="non-scaling-stroke" d="M338.75 301.79l-4.29 2.46"/><path stroke="#8f8e7f" vector-effect="non-scaling-stroke" d="M334.46 304.25l-22.57 11.16a.66.65 75.6 00-.36.62q1.54 33.17 1.22 66.4c-.03 3.28.41 7.36.3 11.03"/><path stroke="#5b5b5c" vector-effect="non-scaling-stroke" d="M313.05 393.46l1.24 26.79"/><path stroke="#8f8e7f" vector-effect="non-scaling-stroke" d="M314.29 420.25q2.7 18.7 10.04 36.09c.21.49.16 1.3.33 1.89a.69.68-7.8 00.66.5l3.18-.02"/><path stroke="#11100f" vector-effect="non-scaling-stroke" d="M328.5 458.71q.31.6.92.59a.88.87-76.8 00.76-.48c1.93-3.8-.08-11.87-.15-16.63-.06-4.08-1-6.3-3.73-9.03"/><path stroke="#8f8e7f" vector-effect="non-scaling-stroke" d="M326.3 433.16q2.07-2.63 1.84-6.21a1.43 1.42-29.2 01.26-.91c2.12-3.06 3.68-6.93 8.35-5.75"/><path stroke="#908f8f" vector-effect="non-scaling-stroke" d="M336.75 420.29q10.8 5.69 19.47 14.3a.53.52-43.4 00.73.01q3.01-2.78 1.76-6.85"/><path stroke="#5b5b5c" vector-effect="non-scaling-stroke" d="M358.71 427.75l-.16-.81q-.09-.48.05-.95 1.51-4.88 2.52-9.94c.3-1.48-.23-2.49-1.83-2.33"/><path stroke="#8f8e7f" vector-effect="non-scaling-stroke" d="M359.29 413.72q-2.17-2.01-3.28-2.25c-2.8-.62-14.7-3.93-14.53-7.72.2-4.72-1.1-9.63-.53-14.17.27-2.1 2.23-9.21-2.77-7.66q-4.83 1.5-8.78 3.84a1.73 1.73 0 01-2.6-1.33c-.37-4.07 6.94-5.92 10-7.22a.86.86 0 00.52-.71l.33-3.86a1.06 1.04 76.3 01.48-.81q3.35-2.17 7.35-2.03a1.16 1.15-66.6 00.84-.34c1.89-1.96 4.6.13 6.28 1.36a.86.86 0 00.86.1l3.36-1.45a.65.65 0 00.31-.89l-5.2-10.1a.67.67 0 01.88-.91c12.5 5.92 13.29 19.44 6.67 30.15a.52.52 0 01-.93-.45q2.2-6.3.12-12.7a.6.59 75 00-.68-.4c-4.49.86-7.94 4.49-6.74 9.22 1.18 4.62-.76 11.62 3.44 14.27a1.58 1.58 0 00.9.26q3.69-.06 6.56 2.27a1.11 1.1 52.8 001.13.16l4.62-2.04a1.35 1.32 46.7 011.17.05q4.8 2.57 10.37 1.84a1.39 1.39 0 00.65-2.5c-1.64-1.21-5.84-3.39-6.04-5.36a.79.79 0 01.37-.75c1.12-.69 2.13-6.13 2.49-7.39a1.22 1.2-54.8 00-.16-.98q-.68-1-.33-2.1a1.08 1.07 89 01.67-.7c1.43-.53 3.46-.71 4.4-1.8 3.6-4.16-8.78-5.18-3.94-10.82 1.76-2.06 3.37-4.96 6.16-4.77 3.51.25 2.76 4.12 2.63 6.51a.33.32 80.6 00.44.32q3.97-1.59 8.22-1.57"/><path stroke="#5b5b5c" vector-effect="non-scaling-stroke" d="M395 368.29l4.56.65"/><path stroke="#6c6b6b" vector-effect="non-scaling-stroke" d="M399.56 368.94l6.44 5.1"/><path stroke="#5b5b5c" vector-effect="non-scaling-stroke" d="M406 374.04l1.56 2.16"/><path stroke="#6c6b6b" vector-effect="non-scaling-stroke" d="M407.56 376.2c2.68 6.93.74 10.39-.49 16.46a2.63 2.62-83.1 01-2.69 2.11q-3.25-.14-4.84 3.38"/><path stroke="#5b5b5c" vector-effect="non-scaling-stroke" d="M399.54 398.15q-1.47 1.23-3.51 1.35a.74.73 2.9 00-.69.62l-.63 3.98a.87.86-86.7 00.88 1q2.98-.12 5.66.86"/><path stroke="#6c6b6b" vector-effect="non-scaling-stroke" d="M401.25 405.96l13.09 9.18"/><path stroke="#5b5b5c" vector-effect="non-scaling-stroke" d="M414.34 415.14q3.9 3.41 8.43 5.94"/><path stroke="#6c6b6b" vector-effect="non-scaling-stroke" d="M422.77 421.08l1.8 1.81a1.34 1.34 0 01.39.87q.32 7.09 2.69 14"/><path stroke="#5b5b5c" vector-effect="non-scaling-stroke" d="M427.65 437.76l-.5 4.03M414.75 442.21l-.46-.96"/><path stroke="#6c6b6b" vector-effect="non-scaling-stroke" d="M414.29 441.25c-.54-1.09-.89-1.74-.68-3.06 1.24-8.07-7.1-12.78-14.08-13.13a.92.9 19 00-.8.38q-2.68 3.64-4.44 7.81"/><path stroke="#a6a7a8" vector-effect="non-scaling-stroke" d="M427.65 437.76q-.06-5.3-1.03-10.5c-.46-2.45.74-6.55-3.85-6.18M414.34 415.14q-5.48-5.61-11.99-9.92a.66.64 39.5 00-.81.07q-.29.29-.29.67M399.54 398.15q3.54-2.1 7.49-3.26a1.29 1.28-82.4 00.74-.57c1.9-3.19 1.96-8.57 2.42-12.25q.43-3.41-2.63-5.87M406 374.04q.48-.17.61-.54a.72.72 0 00-.24-.82q-3.09-2.4-6.81-3.74"/><path stroke="#c9cabc" vector-effect="non-scaling-stroke" d="M395 368.29q-.06-5.41.42-9.36 3.02-24.78-1-49.71a.51.5 85.8 00-.48-.42q-23.35-.47-46.69 1.43c-4.6.38-11.87-.48-12.79-5.98"/><path stroke="#a6a7a8" vector-effect="non-scaling-stroke" d="M338.75 301.79q.26.51.69.75a.92.91 45.3 00.9.01c3.98-2.21 23.35-11.02 21.37-16.78-1.22-3.56-9.65-6.45-12.73-7.49q-2.3-.78-4.81.43"/><path stroke="#cacbcc" vector-effect="non-scaling-stroke" d="M358.71 427.75c-5.49-.18-9.68-1.19-14.65-4.29q-3.07-1.91-6.31-3.5"/><path stroke="#c9cabc" vector-effect="non-scaling-stroke" d="M337.75 419.96q-4.06-1.7-6.99 1.15a1.11 1.11 0 01-.86.31l-15.61-1.17M359.29 413.72q-1.66.93-2.83-.6a1.59 1.58-8.6 00-.75-.55c-4.7-1.61-12.46-3.18-14.96-7.82-1.8-3.34-3.08-3.6-6.51-4.49q-6.03-1.57-21.19-6.8"/><path stroke="#a6a7a8" vector-effect="non-scaling-stroke" d="M414.29 441.25q-.87 1.31-2.34.39a1.84 1.83 27.7 01-.72-2.3q1.42-3.26-.89-5.83a1.26 1.24-62.9 01-.3-.96c.41-3.48-6.93-5.95-9.51-6.27a.82.82 0 00-.78.36l-4.75 7.15"/><path stroke="#fefeef" vector-effect="non-scaling-stroke" d="M337.75 419.96l-1 .33"/><path stroke="#7f7e70" vector-effect="non-scaling-stroke" d="M326.3 433.16q-.68.6-.8 1.31a.97.97 0 00.31.87l2.24 2.05a1.18 1.17-70 01.38.82l.68 18.84a1.83 1.75-32.9 01-.22.93l-.39.73"/><path stroke="#dad9cb" vector-effect="non-scaling-stroke" d="M50.18 391.88q-.29-.64-1.02-.64a.42.42 0 00-.37.61q.32.64.99.65a.44.43 78 00.4-.62"/><path stroke="#5b5b5c" vector-effect="non-scaling-stroke" d="M161.5 138.29q.76.58 1.25.71 24.12 6.4 48.75 10.46"/><path stroke="#6c6b6b" vector-effect="non-scaling-stroke" d="M211.5 149.46q26.34 4.37 53 5.75"/><path stroke="#908f8f" vector-effect="non-scaling-stroke" d="M264.5 155.21q17.92.52 35.75-1.25"/><path stroke="#6c6b6b" vector-effect="non-scaling-stroke" d="M300.25 153.96l2.46.18q.61.05.15-.35-.52-.46-1.36-.25"/><path stroke="#908f8f" vector-effect="non-scaling-stroke" d="M301.5 153.54c-2.52-.53-4.99-.58-7.38-1.19q-15.97-4.02-31.73-8.81c-11.51-3.49-22.29-8.87-33.79-12.2-13.57-3.92-27.71-8-41.34-9.88-21.19-2.93-44.75-6.03-68.32-4.27q-2.58.19-4.22.65-.51.15-.07.44c12.95 8.84 31.99 16.57 46.85 20.01"/><path stroke="#dbdbdb" vector-effect="non-scaling-stroke" d="M301.5 153.54l-1.25.42M264.5 155.21l.01-.89"/><path stroke="#cacbcc" vector-effect="non-scaling-stroke" d="M264.51 154.32q6.69.17 13.4.18c4.25 0 10.06-1.16 15.38-.49a.37.37 0 00.19-.71q-3.9-1.69-8.19-1.7a1.73 1.71 61.3 01-.94-.28c-3.41-2.17-6.48-2.19-10.04-3.24q-4.15-1.22-6.37-1.6c-25.57-4.38-51.61-6.82-77.46-8.76-4.56-.34-26.43-2.07-28.98.57"/><path stroke="#a6a7a8" vector-effect="non-scaling-stroke" d="M264.51 154.32c-13.39-1.06-26.67-1.47-40.12-5.05-3.96-1.05-7.83-.87-11.89-1.21a.81.8 16.9 00-.76.4q-.26.47-.24 1"/><path stroke="#6c6b6b" vector-effect="non-scaling-stroke" d="M225.78 207.35c-3.91-2.92-9.24-4.52-12.39-6.08q-10.18-5.05-20.63-9.53a1.51 1.47-.8 01-.75-.71q-.3-.64-.94-.58a1.78 1.73 56.4 01-1.02-.22c-9.44-5.34-19.68-10.64-28.54-17.1-6.48-4.74-13.57-8.94-19.62-14.47-6.35-5.79-12.08-14.27-17.76-21.53-2.11-2.71-3.37-5.92-7.15-7.87q-.46-.24-.26.24c4.77 11.55 14.61 22.53 23.8 30.77 4.62 4.15 11.01 8.09 16.54 12q7.43 5.23 12.8 8.41 26.73 15.8 55.48 27.6.72.29.66-.52a.53.53 0 00-.22-.41"/><path stroke="#5b5b5c" vector-effect="non-scaling-stroke" d="M209.29 195.75l-.04.46"/><path stroke="#6c6b6b" vector-effect="non-scaling-stroke" d="M209.25 196.21c-3.42-1.95-7.56-3.15-10.56-4.84-9.86-5.54-21.74-13.25-32.39-20.32-6.28-4.18-11.86-9.54-17.65-14.38q-10.06-8.4-16.92-19.62-.96-1.58-3.42-2.19a.32.32 0 00-.39.38c1.28 5.41 6.92 11.92 10.43 15.87 5.1 5.75 13.03 11.5 19.65 17.06q5.01 4.2 10.14 7.36 10.92 6.72 21.96 13.27 3.59 2.13 9.32 4.52 6.33 2.65 12.25 6.13 1.83 1.08 4.54 1.76 5.23 1.32 9.39 4.9c.35.29 3.49 2.18 3.85 1.82a.57.56-45 00.01-.79c-6.57-6.88-17.88-12.88-26.27-17.33-9.35-4.95-18.98-13.01-28.91-18.87-12.31-7.26-22.3-19.55-32.23-29.73q-1.06-1.08-4.34-2-.49-.13-.22.29c5.57 8.81 14.57 16.44 21.91 23.83 3.32 3.34 7.49 5.67 11.34 8.51q3.24 2.4 8.26 5.41c4.14 2.49 7.89 5.71 11.88 8.02 4.56 2.65 8.74 5.57 13.66 7.71q2.53 1.1 4.75 2.77"/><path stroke="#a6a7a8" vector-effect="non-scaling-stroke" d="M209.25 196.21l1.48.36q.57.14.28-.36-.46-.8-1.72-.46"/><path stroke="#6c6b6b" vector-effect="non-scaling-stroke" d="M444.63 138.65c-2.55 4.1-4.04 8.54-7.19 12.2q-4.67 5.43-8.88 11.23c-3.44 4.76-8.18 8.29-11.94 12.88a.38.38 0 00.53.53q10.54-8.61 19.03-18.78c4.75-5.7 8.34-12.6 12.27-19.21a.35.35 0 00-.25-.52q-2.34-.31-3.57 1.67"/><path stroke="#6c6b6b" vector-effect="non-scaling-stroke" d="M439.16 139.17c-2.92 4.59-6.48 9.12-9.35 13.27q-7.05 10.19-12.38 14.99c-9.74 8.76-19.72 18.64-29.96 25.65q-7.68 5.26-15.77 9.64a.31.31 0 00.26.56c9.66-3.86 17.52-8.07 25.95-14.96q12.2-9.98 17.89-15.27c9.39-8.73 13.9-15.11 20.64-23.34 3.06-3.75 4.76-7.51 6.71-11.76a.37.37 0 00-.3-.52q-2.43-.22-3.69 1.74"/><path stroke="#6c6b6b" vector-effect="non-scaling-stroke" d="M429.94 141.19q-5.08 8.55-11.97 17.92c-3.22 4.37-7.08 7.83-10.99 11.61q-.39.37-.33 1.27.03.53.45.21c4.39-3.31 8.41-6.18 11.8-10.66q8-10.56 15.39-21.62a.38.37-65.8 00-.21-.57q-2.64-.69-4.14 1.84M449.89 140.34q-5 6.65-9.18 13.86c-1.64 2.84-6.61 6.77-9.28 9.73q-10.77 11.95-23.99 21.2-.42.29.05.1 4.87-1.97 8.98-5.25 18.12-14.45 31.32-33.45 1.96-2.82 2.35-6.09.06-.52-.25-.1"/><path stroke="#6c6b6b" vector-effect="non-scaling-stroke" d="M404.72 167.71c-3.86 4.07-7.3 8.61-11.59 12.23-14.14 11.92-30.15 23.54-46.95 31.41a.31.3 25 00.21.57q12.98-3.42 24.28-11.2 12.4-8.54 23.89-18.26c2.92-2.47 5.55-5.47 8.33-8.26 2.58-2.57 4.65-5.97 7.45-8.71 6.99-6.83 11.8-15.22 16.46-23.68q.94-1.71-.92-1.13l-2.22.68a1.23 1.22 3.9 00-.75.65c-4.43 9.47-9.64 14.2-14.85 21.6q-1.61 2.29-3.34 4.1"/><path stroke="#6c6b6b" vector-effect="non-scaling-stroke" d="M412.94 145.19q-8.92 14.8-19.89 28.52a.54.54 0 00.64.83c3.12-1.36 6.93-7.24 9.15-9.96 4.27-5.22 8.24-11.79 12.76-17.49q.91-1.14 2.24-4.01.21-.47-.3-.41-3.31.37-4.6 2.52M174.73 166.52c-5.8-5.65-12.91-11.84-17.95-19.54q-1.78-2.72-5.57-2.86-.51-.02-.2.38 7.63 9.84 11.78 14.22c1.31 1.39 3.66 2.55 5.36 4.33q3.09 3.25 6.89 5.75a.54.54 0 00.82-.59q-.22-.8-1.13-1.69M406.94 145.94c-5.49 8.47-10.46 16.03-17.31 23.45-10.98 11.88-23.49 25.42-37.95 34.79q-8.74 5.66-16.9 9.59-3.75 1.81-5.59 3.12-.43.31.08.16c14.24-4.3 28.34-12.12 40.2-22.82 15.94-14.39 29.37-30.07 41.37-49.54a.32.31 17.6 00-.25-.47q-2.42-.18-3.65 1.72M229.61 203.47c.27-1.46-7.81-7.18-9.36-8.08-7.38-4.3-12.24-8.07-21.14-14.49-5.84-4.21-10.82-8.87-16.75-13.56q-6.18-4.89-11.39-10.82c-2.91-3.3-8.93-10.31-12.82-11.67a.36.35-6.3 00-.42.52c3.29 5.32 8.21 9.36 11.76 13.5q3.44 3.99 7.25 7.65c.9.87 2.82 1.12 4.07 2.35q9.77 9.62 21.42 16.85c3.73 2.31 6.71 5.09 10.71 7.39q8.14 4.67 15.51 10.78a.72.72 0 001.16-.42"/><path stroke="#6c6b6b" vector-effect="non-scaling-stroke" d="M397.44 147.44c-3.19 4.33-5.77 9.96-8.56 14.18q-3.69 5.58-7.43 11.2a.35.35 0 00.53.44q12.02-11.87 18.96-27.28.2-.45-.29-.38-2.09.31-3.21 1.84M390.77 148.99q-8.18 13.26-17.49 25.75c-2.02 2.7-4.53 5.27-7.09 8.21-8.46 9.72-19.07 16.75-29.11 24.16q-12.75 9.42-27.55 15.43-.32.13-.49.35-.22.28-.3.53-.19.58.38.37c14.69-5.19 25.07-12.33 37.09-20.36 8.11-5.42 14.53-10.85 21.12-17.37 10.74-10.63 19.48-24.88 27.64-37.74a.85.85 0 00-.66-1.3q-2.23-.17-3.54 1.97"/><path stroke="#6c6b6b" vector-effect="non-scaling-stroke" d="M380.55 151.04q-6.06 13.12-14.68 24.71c-.23.3-1.39 1.57-1.36 2.01a.75.75 0 001.27.51q4.97-4.66 8.01-9.75 5.22-8.71 10.26-17.59a1.05 1.04 30.5 00-.37-1.4c-1.48-.9-2.5.14-3.13 1.51M235.81 201.19c-18.21-13.79-38.05-27.91-53.41-43.72-3.84-3.96-6.5-6.06-11.12-8.01a.69.68-14 00-.7 1.16q8.62 7.02 16.63 15.66c.82.89 2.27 1.15 3.09 2.06q2.88 3.19 6.27 5.81 12.23 9.47 24.66 18.67c1.23.91 14.06 9.33 14.86 8.85a.24.24 0 00.04-.37q-.12-.12-.32-.11M372.94 152.69c-7.61 13.05-16.49 27.88-27.31 37.75-7.18 6.54-13.9 13.98-21.76 19.71q-1.55 1.13-2.42 2.95-.23.47.22.2c9.04-5.32 15.71-12.18 23.66-18.77 6.26-5.19 11.32-12.37 15.97-18.99 5.16-7.36 11.14-14.8 14.99-24.02a.35.35 0 00-.32-.48q-2.08.02-3.03 1.65"/><path stroke="#6c6b6b" vector-effect="non-scaling-stroke" d="M364.44 154.69q-3.8 9.69-9.9 18.18a.49.49 0 00.69.69c5.58-4.02 10.02-14.07 13.32-20.14a.38.38 0 00-.26-.55q-2.93-.53-3.85 1.82M193.7 160.69c-3.43-3.1-4.35-6.97-9.85-7.78a.48.47-18.2 00-.41.8q6.07 6.05 11.87 12.22c.96 1.02 2.38 1.56 3.33 2.71q2.78 3.38 6.27 6.08.42.33.66.81 1.02 2.11 3.08 3.2 1.23.65.44-.5-6.7-9.7-15.39-17.54M311.69 215.69q-.39.02-.46.41a.29.28-11.1 00.44.29c4.49-3.04 9.24-7.56 12.26-10.21 8.37-7.38 13.84-16.2 20.84-24.96 6.81-8.5 11.94-17.25 16.7-26.7a.43.42-68.7 00-.26-.6q-2.37-.66-3.54 1.76-3.9 8.01-9.87 17.11c-2.59 3.95-6.45 8.31-9.37 12.79-3.63 5.56-8.22 11.6-13.01 16.15q-7.09 6.75-13.73 13.96M231.19 191.39q-8.14-7.78-15.57-16.21c-3.41-3.87-18.15-21.29-20.84-20.98a1.07 1.07 0 00-.65 1.79q11.3 12.08 22.14 24.29c5.07 5.71 10.82 10.94 16.87 15.6 1.67 1.28 4.93 5.59 6.48 6.01a.42.42 0 00.47-.62c-2.5-4.19-5.47-6.61-8.9-9.88M350.32 156.02c-4.85 8.2-10.39 13.86-14.11 23.73q-.18.47.17.1c2.97-3.28 4.81-7.19 7.9-10.35q5.7-5.81 8.99-13.56a.6.6 0 00-.3-.78q-1.67-.79-2.65.86M207.31 155.94q-.85-.91-2.37-.38a.43.42 64.9 00-.22.62c4.23 6.98 9.82 12.69 14.43 18.84 1.72 2.31 4.39 4.38 6.16 7.32a.53.53 0 00.95-.08q.21-.54-.12-1.11-7.97-13.7-18.83-25.21M312.71 199.17c-1.38 1.66-3.88 3.5-5.29 5.93a.58.58 0 00.16.76c2.56 1.85 17.38-17.69 19.48-20.1 2.61-2.99 4.26-6.74 6.74-10.11q5.73-7.77 9.38-16.72.19-.45.55-.8.61-.59.89-1.42.24-.74-.5-.5l-2.36.75a1.26 1.25-87.7 00-.76.71q-2.4 6-6.1 11.22c-3.13 4.41-5.44 8.94-8.6 13.16q-6.56 8.75-13.59 17.12M217.93 157.44a.38.37-8.7 00-.39.53c5.19 11.05 12.82 20.63 19.39 30.85q2.31 3.58 11.81 16.05.31.41.17-.09-1.33-4.96-4.13-9.33c-7.97-12.4-17.33-24.42-24.39-37.29a1.02.99-10.1 00-.74-.5l-1.72-.22M335.98 157.53c-2.09.1-5.89 9.33-7.43 11.52-3.09 4.39-8.41 10.99-9.76 16.12a.41.41 0 00.68.39q3.38-3.29 5.84-7.25c4-6.45 8.94-12.65 11.29-19.96a.63.62-82.4 00-.62-.82M326.8 159.99c-4.42 9.1-9.13 18.47-14.69 26.69q-6.5 9.61-13.89 18.63a.71.71 0 00.92 1.06c3.52-2.09 5.68-5.59 7.84-8.13q6.38-7.53 11.14-16.11c3.01-5.41 8.73-14.65 11.65-22.82a.41.4-74 00-.29-.53q-1.88-.41-2.68 1.21M318.94 160.94q-4.72 10.9-9.35 21.4a.42.42 0 00.72.41q7.46-10.25 11.47-22.3a.44.44 0 00-.29-.56q-1.85-.58-2.55 1.05M242.07 184.94c-1.1-2.49-10.14-27.16-13.7-24.82a.68.68 0 00-.25.83q5.69 13.58 13.69 25.97a.36.36 0 00.66-.18q.03-.84-.4-1.8M312.94 161.69c-4.18 8.65-7.08 18.57-11.17 26.31q-4.02 7.62-8.78 14.86a.54.54 0 00.27.8q.88.32 1.36-.27c7.8-9.63 12.08-18.14 16.82-31.62 1.24-3.53 3.19-7.19 4.56-10.97a.4.4 0 00-.33-.54q-1.92-.26-2.73 1.43M240.74 162.05l-2.35-.64q-.73-.19-.46.51 4.37 11.39 8.5 22.86c.46 1.27 6.53 21.96 9.26 21.73a.7.7 0 00.6-.92q-4.37-12.51-7.82-24.24c-1.95-6.63-4.97-12.79-7.56-19.15a.24.22-1.8 00-.17-.15M307.587 163.144a1.17 1.17 0 00-.795-1.451l-.077-.023a1.17 1.17 0 00-1.451.795l-4.81 16.45a1.17 1.17 0 00.794 1.452l.077.023a1.17 1.17 0 001.451-.795l4.81-16.45M250.35 165.37c-.56-1.38-1.18-3.83-3.41-2.91a.52.52 0 00-.28.69c2.44 5.62 3.85 11.86 6.09 17.02q1.6 3.68 3.39 7.22a.45.45 0 00.84-.3q-2.35-11.2-6.63-21.72M297.69 163.94c-2.89 13.8-5.18 26.2-11.91 39.1a.69.69 0 001.11.8q6.57-6.89 8.34-17.59 1.95-11.73 5.66-23.02a.53.52-71.2 00-.32-.66q-2.42-.86-2.88 1.37M256.7 163.85c-.47 2.54.57 4.62.57 6.88q-.01 4.78.9 9.46.09.48-.02.96-.21.91-.1 2.35.93 12.15 3.96 23.55a.64.64 0 001.26-.2c-.62-10.9-1.73-21.71-2.5-32.58-.13-1.78-.13-11.95-3.26-11.26a1.08 1.07-1.3 00-.81.84"/><path stroke="#8f8e7f" vector-effect="non-scaling-stroke" d="M264.98 182.57c-.02-6.35.18-12.47-.35-18.85a.52.52 0 00-.81-.39l-.82.54a.95.94 72.1 00-.44.87c.12 1.93 1.16 17.64 1.9 18.11q.52.33.52-.28"/><path stroke="#6c6b6b" vector-effect="non-scaling-stroke" d="M278.483 164.428a1.09 1.09 0 00-1.068-1.11l-.62-.012a1.09 1.09 0 00-1.111 1.069l-.328 17.057a1.09 1.09 0 001.07 1.11l.62.012a1.09 1.09 0 001.11-1.069l.327-17.057M290.23 163.84c.16 4.89-1.49 9.61-.78 14.72q.07.51.33.07c2.94-4.87 1.98-9.28 3.82-14.58a.53.53 0 00-.47-.71l-2.26-.12a.6.6 0 00-.64.62M284.83 163.66c-1.69-.09-2.08 3.81-2.09 5.06q-.1 10.48-1.81 20.81-1.39 8.4-3.25 16.78a.21.2-24.5 00.38.14c6.61-11.88 7.87-28.95 7.31-42.24a.57.57 0 00-.54-.55M268.69 164.34c-.11 5.8.77 12.52.97 17.17q.5 11.7.99 23.82a.42.42 0 00.83.06c2.41-13.75.29-26.91.08-40.73a.78.77-86.6 00-.67-.76l-1.46-.19a.66.65 4.4 00-.74.63"/><path stroke="#5b5b5c" vector-effect="non-scaling-stroke" d="M264.99 238.71q.08-.37-.26-.61-.64-.45-.51.32l.2 1.11q.19 1.1.57-.82"/><path stroke="#908f8f" vector-effect="non-scaling-stroke" d="M152.67 269.11c6.57.66 14.17 2.37 18.79 3.06 21.86 3.27 44.59 5.99 65.56 8.77a.4.39-4.4 00.43-.49q-1-3.54-.82-7.23a.69.69 0 00-.55-.71q-4.98-1.06-14.83-1.93-34.52-3.04-62.44-2.49-3.39.07-6.15.56a.23.23 0 00.01.46"/><path stroke="#6c6b6b" vector-effect="non-scaling-stroke" d="M218.21 318.92c-17.24-9.58-35.56-20.35-49.72-34.99-2.49-2.57-6.25-4.84-8.63-8.36a1.13 1.13 0 00-.73-.46l-3.82-.58a.35.35 0 00-.29.61c1.87 1.69 19.97 17.43 19.96 17.74a.62.62 0 01-.97.49q-10.26-7.15-17.65-14.72-2.98-3.05-7.8-5.44-.46-.23-.1.15 11.63 12.13 21.81 19.1c8.13 5.57 15.98 11.59 24.44 16.38q13.2 7.47 26.45 14.89c7.15 4 6.8 28.47 6.43 35.68a.18.17-29.7 00.33.09q3.36-6.44 4.79-13.52 3.11-15.31 4.82-30.94a.6.6 0 00-.43-.64c-1.9-.58-2.71-.67-4.19-2.17q-12.77-12.94-23.75-27.42-1.65-2.18-4.47-2.19a.49.49 0 00-.38.81l9.9 11.41a.55.55 0 01-.74.8q-5.27-3.85-9.33-9.18c-1.1-1.45-3-3.47-4.19-4.22q-2.73-1.73-.79.85 14.37 19.11 33.28 33.78a.61.61 0 01-.55 1.07q-3.18-.92-5.69-3.12-17.47-15.31-32.47-33.06-1.21-1.44-3.44-.74a.35.34-29.1 00-.16.55l9.5 11.29a.33.32 87.2 01-.43.48q-1.99-1.38-4.04-2.99c-2.15-1.7-4.15-4.36-6.55-6.36-1.72-1.42-3.14-3.75-5.58-4.83a.33.32-80 00-.45.32q.07 1.23.91 2.03c11.8 11.27 23.22 23.55 36.52 32.73q4.96 3.43 7.71 5.88a.32.32 0 01-.1.54c-4.8 1.78-43.06-35.04-48.29-40.26-1.77-1.78-3.95-2.71-6.23-2.83q-2.12-.12-.71 1.47 6.76 7.55 14.83 13.7a.38.37 72.5 01-.34.66c-4.83-1.58-9.34-6.6-13.37-9.77-2.07-1.63-6.24-7.35-8.26-7.23q-.53.03-.18.43c9.29 10.49 19.95 18.64 31.25 26.79 6.2 4.47 13.8 8.86 20.57 13.56.64.45 1.11.46 1.82.74a.39.39 0 01.19.56l-.17.3a.38.38 0 01-.52.14"/><path stroke="#908f8f" vector-effect="non-scaling-stroke" d="M311.47 285.62c11.46-.22 22.78.08 34.22.25a.32.32 0 00.1-.63c-9.82-3.07-19.98-4.44-34.89-6.33a.41.4.6 00-.46.44l.52 5.81a.5.5 0 00.51.46"/><path stroke="#6c6b6b" vector-effect="non-scaling-stroke" d="M224.87 296.12q-5.73-5.09-9.69-11.66a1.66 1.63-5 00-.81-.67l-.62-.24a.69.69 0 00-.82 1.04q10.46 15.21 23.76 28.02a.63.63 0 001.07-.47l-.11-5.92a1.27 1.25-68.7 00-.38-.88q-8.11-8.06-15.37-18.95-1.22-1.83-3.68-2.45-.58-.15-.23.34l7.84 10.98a.65.65 0 01-.96.86M234.77 294.84a.6.6 0 01-1.05.31c-1.61-1.92-7.54-10.88-9.34-10.69q-.74.07-.29.67l12.78 16.95a.31.31 0 00.55-.14c.53-3.77.58-6.82-1.64-10.24-1.28-1.98-2.91-6.33-5.54-6.36q-.52 0-.25.44c1.12 1.83 5.05 7.09 4.78 9.06"/><path stroke="#5b5b5c" vector-effect="non-scaling-stroke" d="M237.13 288.73a1.76.7 81.5 00.432-1.844 1.76.7 81.5 00-.952-1.637 1.76.7 81.5 00-.432 1.844 1.76.7 81.5 00.952 1.638"/><path stroke="#6c6b6b" vector-effect="non-scaling-stroke" d="M313.09 294.26q-.87-2.3 1.09-3.43 1.09-.62-.17-.69l-2.28-.13a.57.57 0 00-.61.57l.05 7.01q.01.68.54.26l8.62-6.76a.48.48 0 00-.5-.82q-3.4 1.57-6.13 4.13a.38.38 0 01-.61-.14M322.19 294.58q1.27-2.03 3.59-2.78a.32.32 0 00.22-.29l.01-.31a.27.27 0 00-.35-.26c-4.7 1.45-9.59 6.81-13.68 9.77q-1.09.79-.42 2.67a.42.42 0 00.61.22c3.81-2.35 7-4.53 11.38-6.69q4.29-2.1 8.09-5.08a.31.31 0 00-.07-.53c-1.36-.59-7.09 3.17-8.71 4.01a.51.51 0 01-.67-.73M331.55 296.33l6.34-4.54a.29.29 0 00-.02-.48c-.53-.32-23.43 14.01-25.81 15.49q-.24.15-.41.29a.69.69 0 00.74 1.15q16.67-7.7 32.59-16.83.5-.29-.07-.35c-.66-.08-1.65.17-2.22.63q-4.72 3.76-10.6 5.7a.6.6 0 01-.54-1.06"/><path stroke="#8f8e7f" vector-effect="non-scaling-stroke" d="M382.51 364.76c-1.36.72-3.69 3.24-4.08 4.83a.45.44 9.3 00.4.55c2.58.2 6.31-2.33 4.43-5.19a.58.58 0 00-.75-.19"/><path stroke="#908f8f" vector-effect="non-scaling-stroke" d="M402.9 385.49l1.76.42a.65.65 0 00.8-.57q.74-7.86-5.7-12a.79.78 88.5 00-1.06 1.12q3.3 4.61 3.59 10.29a.8.8 0 00.61.74M397.99 386.96l4.39 3.82a.51.51 0 00.74-.08l.73-.96a.65.65 0 00-.25-.98l-5.22-2.42a.37.37 0 00-.39.62M388.36 399.9a1.42 1.41-55 001.59-.29l3.5-3.51a1.41 1.4-67 01.98-.4c3.05.01 6.27-4.41 3.05-4.93a.77.76 20.7 00-.77.34c-1.66 2.6-3.14 5.7-6.82 3.58a.5.5 0 00-.68.17c-.7 1.17-2.59 4.23-.85 5.04M391.96 407.52q8.67 5.29 15.98 11.66c2.58 2.25 10.58 5.19 10.59 8.82q.03 6.41 2.18 12.48a.57.56 62.8 00.86.28l1.64-1.15a.82.81 63.5 00.31-.95q-1.98-5.67-2.14-11.69c-.09-3.35-7.15-7.35-9.71-9.18-3.61-2.58-7.39-6.58-11.71-9.24-2.32-1.43-5.12-1.62-7.75-1.81a.42.42 0 00-.25.78M386.85 428.87l-3.45 8.61a1.59 1.55 87 01-.7.8l-.78.43a.75.74-23.8 00-.34.87c.52 1.68 2.6 11.61 5.32 9.95a.67.66 65.5 00.28-.76c-3.03-9.41 0-13.82 5.32-21.03q.39-.52-.24-.37l-5.06 1.2a.5.48 3 00-.35.3"/><path stroke="#8f8e7f" vector-effect="non-scaling-stroke" d="M388.6 502.62q-.56-2.57.55-4.9a.72.71 38.5 00-.09-.75q-9.94-12.23-17-26.29c-3.75-7.47-12.7-12.66-19.23-17.6-3.72-2.81-6.26-6.32-9.2-9.87a.6.6 0 00-.81-.11q-.75.55-1.2 1.36a1.36 1.32 7.2 01-.84.63l-.78.2a.87.85-2.3 00-.63.67q-.58 3.2-1.23 6.35c-.62 3.01-2.83 5.94-.96 9.8 1.43 2.95 4.09 9.94-1.22 10.85a.28.27 60.3 00-.13.48q15.71 14.04 31.78 27.63c9.99 8.44 23.4 18.37 34.54 28.47a.71.71 0 001.12-.22l2.13-4.41a1.04 1.04 0 00.02-.87c-.86-2.02-1.51-4.19-2.64-6.01-2.52-4.06-7.07-9.46-7.88-14.09a.62.61 77.2 00-.77-.49q-2.51.68-4.96-.19a.89.88-87.1 01-.57-.64M427.43 457.79q-3.43.69-6.86 1.55c-1.86.47-3.78-.27-5.58 1.58-1.55 1.61-1.89 4.88-2.4 7.25a.49.49 0 00.53.59q2.02-.25 3.35-1.81a.79.77 26.7 01.79-.25q2.18.55 2.71-1.46a.73.73 0 01.79-.54l2.43.26a1.94 1.94 0 001.05-.18q1.93-.91 4.02-.51a1.22 1.2 30.4 00.98-.25q2.34-1.88 4.83-.23a.82.81 49.1 00.79.06q2.17-.96 4.42-.29a.39.39 0 00.46-.56c-1.08-2.07-10.16-12.88-11.72-5.79a.76.74-.1 01-.59.58"/><path stroke="#908f8f" vector-effect="non-scaling-stroke" d="M385.32 471.57a1.26 1.25-8.6 01.98.72q3.17 6.95 6.37 13.63c2.2 4.61 5.99 7.31 10.05 10.06a.39.39 0 00.59-.2c.96-2.88-2.94-5.81-4.41-8.19-3.87-6.29-10.39-16.48-11.21-23.75q-.48-4.33-3.08-7.99a.9.89 70.2 00-.78-.37l-1.67.11q-.89.05-.34.76 5.07 6.46 2.69 14.61a.44.44 0 00.36.56l.45.05"/><path stroke="#6c6b6b" vector-effect="non-scaling-stroke" d="M413.82 473.51c.63.75 4.53.11 6.58.15a1.31 1.3-64.7 00.88-.32q1.68-1.51 3.31-.03a.57.56-43.3 00.74.02q1.82-1.5 2.59-1.67 6.03-1.34 9.18-2.92.47-.23-.03-.37c-4.49-1.27-7.19.97-11.15.43a1.04 1.03-65.5 00-.93.35q-1.33 1.57-3.47 1.04a.67.66-68.4 00-.74.33q-.88 1.6-2.67 1.13a.78.77 28.4 00-.79.23q-1.24 1.38-3.19 1.08-.88-.13-.31.55"/><path stroke="#908f8f" vector-effect="non-scaling-stroke" d="M443.316 468.667a1 1 0 00-1.398-.213l-4.174 3.066a1 1 0 00-.214 1.398l1.054 1.435a1 1 0 001.398.214l4.174-3.067a1 1 0 00.214-1.398l-1.054-1.435M437.15 474.5q-2.44-3.58-5.98-1.49a.67.67 0 00-.22.95l1.53 2.31a.92.91 62.5 001.09.35l3.33-1.3a.55.55 0 00.25-.82M441.23 480.03q-1.74.95-1.02 3a1.58 1.56 44.7 01.01 1.02q-.59 1.75-2.48 1.07a.64.63-51.7 01-.13-1.13q1.94-1.26.36-2.96a1.03 1.02-58.7 01-.23-.98l.47-1.58a.76.76 0 00-.28-.84c-1.61-1.17-4.3.39-3.6 2.49a1.27 1.26 4.8 00.63.74l.48.24a.43.43 0 01.09.7q-2.54 2.29-1.07 5.51a.76.76 0 00.75.44c3.11-.25 9.43-.46 9.05-3.87q-.29-2.57-.28-2.74.29-3.77.3-7.41a.55.55 0 00-.94-.39l-3.96 3.92q-1.76 1.75.67 2.28l1.15.26q.32.07.03.23M430.91 475.686a2.25 1.99 5.5 00-2.05-2.197 2.25 1.99 5.5 00-2.43 1.765 2.25 1.99 5.5 002.05 2.197 2.25 1.99 5.5 002.43-1.765M422.82 476.21a.31.31 0 00-.02.47l1.1.95a.64.64 0 001.03-.29c.5-1.54-.99-2.01-2.11-1.13"/><path stroke="#8f8e7f" vector-effect="non-scaling-stroke" d="M430.04 481.272a1.49 1.06 106 001.429-1.14 1.49 1.06 106 00-.608-1.724 1.49 1.06 106 00-1.43 1.14 1.49 1.06 106 00.608 1.724M426.67 479.82c-.53.67-1.16 2.79.49 1.85a.71.69-28 00.29-.91l-.43-.91a.21.2-38.9 00-.35-.03M429.8 484.56q1.1.87 1.99.46a.45.45 0 00-.09-.85q-1.1-.25-1.9.26a.08.08 0 000 .13"/><path stroke="#a6a7a8" vector-effect="non-scaling-stroke" d="M214.27 199.49q-.89-1.33-1.56-1.53-1.01-.31-.13.38l1.59 1.24a.07.07 0 00.1-.09"/></g><path d="M0 0h590.06l.19.29v589.46a.5.5 0 01-.5.5q-291.28 0-582.56-.18-3.35 0-6.69-.03l-.5-.1V0zm582.5 586.23l3.4.02a.5.49-1.6 00.5-.52l-.19-3.98V7.5l-.02-2.69a.51.5 0 00-.51-.5l-2.43-.02-3.26-.02-575.25.02a.5.49 90 00-.49.5v580.92a.5.5 0 00.5.5l577.75.02z"/><path fill="#211f1e" d="M590.06 0h.94v591h-.31V.49a.19.19 0 00-.18-.19l-.26-.01-.19-.29z"/><path fill="#fdfcdf" d="M590.25.29l.26.01a.19.19 0 01.18.19V591h-2.5q-4.63-.63-9.25 0h-10.5q-3.38-.63-6.75 0h-67.25q-2.38-.63-4.75 0h-2.25q-2.75-.63-5.5 0h-107.5q-2.38-.63-4.75 0h-.25q-3.25-.63-6.5 0h-2.5q-2.75-.63-5.5 0h-52.5q-2.25-.63-4.5 0h-11.5q-2.13-.63-4.25 0h-3.75q-2.25-.63-4.5 0h-1.5q-3.25-.63-6.5 0h-33.75q-3.13-.63-6.25 0h-1.5q-3.38-.63-6.75 0h-3.5q-2.75-.63-5.5 0h-1.25q-2.75-.63-5.5 0h-83.5q-2.38-.63-4.75 0h-.25q-3.38-.63-6.75 0H31.44q-7.38-.63-14.75 0h-.25l-15.8-.31a.26.25-81 01-.23-.33l.09-.32q3.34.03 6.69.03 291.28.18 582.56.18a.5.5 0 00.5-.5V.29z"/><path fill="#fdfcdf" d="M579.99 4.27q2.62 3.83 6.22 6.73v570.75q-3.26 1.1-3.71 4.48l-577.75-.02a.5.5 0 01-.5-.5V4.79a.5.49-90 01.49-.5l575.25-.02zM94.81 39.06q-.68-.33-1.44-.29-14.95.71-30.13.45C50.67 39 40.13 38.78 35.7 51.04q-1.5 4.17-1.47 14.02.05 17.72.11 35.49a.53.53 0 00.52.52q1.6.03 2.91-1.31 19.44-19.81 57.25-57.88c.9-.91 1.17-2.14-.21-2.82zm299.48 394.19l.71.54-1.99 3.97a1.56 1.56 0 00.5 1.97c6.56 4.61 14.9 4.12 21.24 2.48q1.56 1.2 2.24 3.13a1.13 1.1-40.4 01-.09.95l-3.23 5.49a.73.73 0 00-.02.73l.85 1.56a.65.65 0 01-.22.86c-5.89 3.88-6.32 9.21-6.47 16.07-.15 6.62 2.49 12.23 5.96 17.59.96 1.47.89 2.89 1.05 4.55a.92.91-80.3 00.52.74q.97.48 2.66.52c12.04.34 19.9.56 29.43-7.21a.99.96-22 00.36-.81q-.11-2.12-1.53-3.7a1.48 1.47 23.6 01-.38-.96c-.08-5.55.29-11.86-1.54-17.14-2.76-7.93-6.72-13.27-15.69-14.23a1.29 1.27-17.6 01-.83-.42q-3.49-3.8-.67-8.14 7.95.75 15.79.68c7.67-.07 14.03.43 20.92 1.07q1.9.18.36-.95-4.35-3.21-9.29-4.37c-1.93-.45-2.63-1.36-3.28-3.08a1.08 1.05-.9 00-.66-.62q-2.99-.97-5.96-2.11c-3.44-1.32-5.22-3.94-7.86-6.35-11.27-10.27-6.12-38.92-4.03-53.63 2.79-19.67 2.46-42.22-.72-62.51a.85.85 0 01.85-.98q13.82.23 26.83-.2c7.74-.25 16.28-1.69 24.51-2.34a1.46 1.46 0 00.87-.38c11.04-10.27 1.17-33.26-5.32-43.39-14.1-22.02-55.5-26.16-78.1-23.8-5.42.57-13.32 1.31-19.23 3.41-18.16 6.45-33.26 18.55-43.29 35.18q-14.13-2.36-29.28-3.46a.8.78 89.1 01-.72-.71l-3.75-40.19a1.23 1.22-12.5 01.82-1.27q13.58-4.74 27.36-9.09c7.62-2.4 21.68-6.21 31.84-10.12 16.57-6.38 36.36-14.21 52.45-25.8 14.14-10.18 26.02-23.66 35.64-38.12 4.79-7.19 8.41-13.02 10.82-20.41a1.2 1.2 0 00-1.44-1.54q-13.81 3.57-27.36 6.12c-10.69 2.02-20.2 5.1-31.85 6.53-4.75.59-9.85 2.09-14.93 2.69-2.63.31-4.96 1.31-7.39 1.71q-15.57 2.56-36.1 5.41c-17.22 2.39-32.05 1.53-48.33-2.52q-20.95-5.22-34.75-10-36.97-12.8-71.06-20.5c-8.48-1.92-17.85-2.34-27.26-3.64-13.15-1.83-30.78-3.65-44.47-1.06a1.29 1.28-34.1 01-.91-.17q-.83-.51-1.62-.3c-5.04 1.33-12.35 1.45-10.78 9.01 7.54 36.17 44.44 60.6 75.06 75.84 14.69 7.31 28.91 15.62 43.65 22.61a1.02 1.01-84.1 01.56.7c3.71 15.57 7.91 30.93 10.22 46.46a.3.3 0 01-.32.35q-12.7-.99-25.34-2.12c-11.81-1.06-23.51-1.24-35.31-1.67q-12.15-.46-24.23.88c-4.84.54-16.2 1.62-8.84 10.04 13.47 15.41 28.68 28.53 46.56 38.57q14.39 8.07 28.83 16.08a1.59 1.54-89.2 01.66.7c5.46 11.64 4.16 28.83 3.53 43.35q-.11 2.56-1.2 5.42-3.36 8.88-3.51 18.53a.57.56-2.3 01-.51.55c-2.93.28-5.67.8-8.53.43q-8.06-1.02-15.7-3.79-.46-.17-.15.22 6.41 7.75 12.4 11.33c11.47 6.86 32.13 15.1 43.96 27.27q9.74 10.01 16.33 15.42c20.42 16.77 40.34 34.14 60.83 50.82 7.05 5.73 13.71 11.9 20.79 17.62 3.29 2.65 7.62 6.93 11.93 9.86q.42.29.11-.12-6.59-8.88-9.66-11.43c-6-4.98-10.87-11.12-16.29-16.27q-6.85-6.49-12.69-13.95-.4-.51.15-.17 29.31 18.33 56.06 40.2a.39.39 0 00.58-.51c-3.43-5.34-8.59-9.89-12.48-15.35q-.13-.18.06-.06l49.73 32.41a1.17 1.17 0 001.8-.86q.73-7.31-.19-14.61a1.65 1.64 20.8 00-.41-.91c-3.76-4.22-3.24-8.18-4.47-12.63q-1.1-3.99-2.75-7.79c-2.33-5.37 1.89-9.5-2.62-14.28-5.55-5.89-9.03-13.68-12.14-21.92-1.51-4.02-.71-7.5-3.41-11.6a.79.79 0 01-.02-.85c1.16-1.94 2.35-3.31 2.23-5.72q-.18-3.57-1.06-7.16a1.5 1.46 51.1 01.09-.96l3.53-7.67zM50.18 391.88q-.29-.64-1.02-.64a.42.42 0 00-.37.61q.32.64.99.65a.44.43 78 00.4-.62z"/><path fill="#b6b6b7" d="M579.99 4.27l3.26.02q.55 2.46 2.96 3.21V11q-3.6-2.9-6.22-6.73z"/><path fill="#fff" d="M583.25 4.29l2.43.02a.51.5 0 01.51.5l.02 2.69q-2.41-.75-2.96-3.21z"/><path fill="#fae5a8" d="M94.81 39.06c1.38.68 1.11 1.91.21 2.82Q57.21 79.95 37.77 99.76q-1.31 1.34-2.91 1.31a.53.53 0 01-.52-.52q-.06-17.77-.11-35.49-.03-9.85 1.47-14.02C40.13 38.78 50.67 39 63.24 39.22q15.18.26 30.13-.45.76-.04 1.44.29z"/><path fill="#211f1e" d="M339.54 277.42l4.63 1.29c2.9.74 23.28 5.17 14.52 11.5q-9.37 6.78-19.94 11.58l-4.29 2.46-22.57 11.16a.66.65 75.6 00-.36.62q1.54 33.17 1.22 66.4c-.03 3.28.41 7.36.3 11.03l1.24 26.79q2.7 18.7 10.04 36.09c.21.49.16 1.3.33 1.89a.69.68-7.8 00.66.5l3.18-.02q.31.6.92.59a.88.87-76.8 00.76-.48c1.93-3.8-.08-11.87-.15-16.63-.06-4.08-1-6.3-3.73-9.03q2.07-2.63 1.84-6.21a1.43 1.42-29.2 01.26-.91c2.12-3.06 3.68-6.93 8.35-5.75q10.8 5.69 19.47 14.3a.53.52-43.4 00.73.01q3.01-2.78 1.76-6.85l-.16-.81q-.09-.48.05-.95 1.51-4.88 2.52-9.94c.3-1.48-.23-2.49-1.83-2.33q-2.17-2.01-3.28-2.25c-2.8-.62-14.7-3.93-14.53-7.72.2-4.72-1.1-9.63-.53-14.17.27-2.1 2.23-9.21-2.77-7.66q-4.83 1.5-8.78 3.84a1.73 1.73 0 01-2.6-1.33c-.37-4.07 6.94-5.92 10-7.22a.86.86 0 00.52-.71l.33-3.86a1.06 1.04 76.3 01.48-.81q3.35-2.17 7.35-2.03a1.16 1.15-66.6 00.84-.34c1.89-1.96 4.6.13 6.28 1.36a.86.86 0 00.86.1l3.36-1.45a.65.65 0 00.31-.89l-5.2-10.1a.67.67 0 01.88-.91c12.5 5.92 13.29 19.44 6.67 30.15a.52.52 0 01-.93-.45q2.2-6.3.12-12.7a.6.59 75 00-.68-.4c-4.49.86-7.94 4.49-6.74 9.22 1.18 4.62-.76 11.62 3.44 14.27a1.58 1.58 0 00.9.26q3.69-.06 6.56 2.27a1.11 1.1 52.8 001.13.16l4.62-2.04a1.35 1.32 46.7 011.17.05q4.8 2.57 10.37 1.84a1.39 1.39 0 00.65-2.5c-1.64-1.21-5.84-3.39-6.04-5.36a.79.79 0 01.37-.75c1.12-.69 2.13-6.13 2.49-7.39a1.22 1.2-54.8 00-.16-.98q-.68-1-.33-2.1a1.08 1.07 89 01.67-.7c1.43-.53 3.46-.71 4.4-1.8 3.6-4.16-8.78-5.18-3.94-10.82 1.76-2.06 3.37-4.96 6.16-4.77 3.51.25 2.76 4.12 2.63 6.51a.33.32 80.6 00.44.32q3.97-1.59 8.22-1.57l4.56.65 6.44 5.1 1.56 2.16c2.68 6.93.74 10.39-.49 16.46a2.63 2.62-83.1 01-2.69 2.11q-3.25-.14-4.84 3.38-1.47 1.23-3.51 1.35a.74.73 2.9 00-.69.62l-.63 3.98a.87.86-86.7 00.88 1q2.98-.12 5.66.86l13.09 9.18q3.9 3.41 8.43 5.94l1.8 1.81a1.34 1.34 0 01.39.87q.32 7.09 2.69 14l-.5 4.03q-2.82 4.34.67 8.14a1.29 1.27-17.6 00.83.42c8.97.96 12.93 6.3 15.69 14.23 1.83 5.28 1.46 11.59 1.54 17.14a1.48 1.47 23.6 00.38.96q1.42 1.58 1.53 3.7a.99.96-22 01-.36.81c-9.53 7.77-17.39 7.55-29.43 7.21q-1.69-.04-2.66-.52a.92.91-80.3 01-.52-.74c-.16-1.66-.09-3.08-1.05-4.55-3.47-5.36-6.11-10.97-5.96-17.59.15-6.86.58-12.19 6.47-16.07a.65.65 0 00.22-.86l-.85-1.56a.73.73 0 01.02-.73l3.23-5.49a1.13 1.1-40.4 00.09-.95q-.68-1.93-2.24-3.13l-.46-.96c-.54-1.09-.89-1.74-.68-3.06 1.24-8.07-7.1-12.78-14.08-13.13a.92.9 19 00-.8.38q-2.68 3.64-4.44 7.81l-3.53 7.67a1.5 1.46 51.1 00-.09.96q.88 3.59 1.06 7.16c.12 2.41-1.07 3.78-2.23 5.72a.79.79 0 00.02.85c2.7 4.1 1.9 7.58 3.41 11.6 3.11 8.24 6.59 16.03 12.14 21.92 4.51 4.78.29 8.91 2.62 14.28q1.65 3.8 2.75 7.79c1.23 4.45.71 8.41 4.47 12.63a1.65 1.64 20.8 01.41.91q.92 7.3.19 14.61a1.17 1.17 0 01-1.8.86l-49.73-32.41q-.19-.12-.06.06c3.89 5.46 9.05 10.01 12.48 15.35a.39.39 0 01-.58.51q-26.75-21.87-56.06-40.2-.55-.34-.15.17 5.84 7.46 12.69 13.95c5.42 5.15 10.29 11.29 16.29 16.27q3.07 2.55 9.66 11.43.31.41-.11.12c-4.31-2.93-8.64-7.21-11.93-9.86-7.08-5.72-13.74-11.89-20.79-17.62-20.49-16.68-40.41-34.05-60.83-50.82q-6.59-5.41-16.33-15.42c-11.83-12.17-32.49-20.41-43.96-27.27q-5.99-3.58-12.4-11.33-.31-.39.15-.22 7.64 2.77 15.7 3.79c2.86.37 5.6-.15 8.53-.43a.57.56-2.3 00.51-.55q.15-9.65 3.51-18.53 1.09-2.86 1.2-5.42c.63-14.52 1.93-31.71-3.53-43.35a1.59 1.54-89.2 00-.66-.7q-14.44-8.01-28.83-16.08c-17.88-10.04-33.09-23.16-46.56-38.57-7.36-8.42 4-9.5 8.84-10.04q12.08-1.34 24.23-.88c11.8.43 23.5.61 35.31 1.67q12.64 1.13 25.34 2.12a.3.3 0 00.32-.35c-2.31-15.53-6.51-30.89-10.22-46.46a1.02 1.01-84.1 00-.56-.7c-14.74-6.99-28.96-15.3-43.65-22.61-30.62-15.24-67.52-39.67-75.06-75.84-1.57-7.56 5.74-7.68 10.78-9.01q.79-.21 1.62.3a1.29 1.28-34.1 00.91.17c13.69-2.59 31.32-.77 44.47 1.06 9.41 1.3 18.78 1.72 27.26 3.64q34.09 7.7 71.06 20.5 13.8 4.78 34.75 10c16.28 4.05 31.11 4.91 48.33 2.52q20.53-2.85 36.1-5.41c2.43-.4 4.76-1.4 7.39-1.71 5.08-.6 10.18-2.1 14.93-2.69 11.65-1.43 21.16-4.51 31.85-6.53q13.55-2.55 27.36-6.12a1.2 1.2 0 011.44 1.54c-2.41 7.39-6.03 13.22-10.82 20.41-9.62 14.46-21.5 27.94-35.64 38.12-16.09 11.59-35.88 19.42-52.45 25.8-10.16 3.91-24.22 7.72-31.84 10.12q-13.78 4.35-27.36 9.09a1.23 1.22-12.5 00-.82 1.27l3.75 40.19a.8.78 89.1 00.72.71q15.15 1.1 29.28 3.46zM161.5 138.29q.76.58 1.25.71 24.12 6.4 48.75 10.46 26.34 4.37 53 5.75 17.92.52 35.75-1.25l2.46.18q.61.05.15-.35-.52-.46-1.36-.25c-2.52-.53-4.99-.58-7.38-1.19q-15.97-4.02-31.73-8.81c-11.51-3.49-22.29-8.87-33.79-12.2-13.57-3.92-27.71-8-41.34-9.88-21.19-2.93-44.75-6.03-68.32-4.27q-2.58.19-4.22.65-.51.15-.07.44c12.95 8.84 31.99 16.57 46.85 20.01zm64.28 69.06c-3.91-2.92-9.24-4.52-12.39-6.08q-10.18-5.05-20.63-9.53a1.51 1.47-.8 01-.75-.71q-.3-.64-.94-.58a1.78 1.73 56.4 01-1.02-.22c-9.44-5.34-19.68-10.64-28.54-17.1-6.48-4.74-13.57-8.94-19.62-14.47-6.35-5.79-12.08-14.27-17.76-21.53-2.11-2.71-3.37-5.92-7.15-7.87q-.46-.24-.26.24c4.77 11.55 14.61 22.53 23.8 30.77 4.62 4.15 11.01 8.09 16.54 12q7.43 5.23 12.8 8.41 26.73 15.8 55.48 27.6.72.29.66-.52a.53.53 0 00-.22-.41zm-16.49-11.6l-.04.46c-3.42-1.95-7.56-3.15-10.56-4.84-9.86-5.54-21.74-13.25-32.39-20.32-6.28-4.18-11.86-9.54-17.65-14.38q-10.06-8.4-16.92-19.62-.96-1.58-3.42-2.19a.32.32 0 00-.39.38c1.28 5.41 6.92 11.92 10.43 15.87 5.1 5.75 13.03 11.5 19.65 17.06q5.01 4.2 10.14 7.36 10.92 6.72 21.96 13.27 3.59 2.13 9.32 4.52 6.33 2.65 12.25 6.13 1.83 1.08 4.54 1.76 5.23 1.32 9.39 4.9c.35.29 3.49 2.18 3.85 1.82a.57.56-45 00.01-.79c-6.57-6.88-17.88-12.88-26.27-17.33-9.35-4.95-18.98-13.01-28.91-18.87-12.31-7.26-22.3-19.55-32.23-29.73q-1.06-1.08-4.34-2-.49-.13-.22.29c5.57 8.81 14.57 16.44 21.91 23.83 3.32 3.34 7.49 5.67 11.34 8.51q3.24 2.4 8.26 5.41c4.14 2.49 7.89 5.71 11.88 8.02 4.56 2.65 8.74 5.57 13.66 7.71q2.53 1.1 4.75 2.77zm235.34-57.1c-2.55 4.1-4.04 8.54-7.19 12.2q-4.67 5.43-8.88 11.23c-3.44 4.76-8.18 8.29-11.94 12.88a.38.38 0 00.53.53q10.54-8.61 19.03-18.78c4.75-5.7 8.34-12.6 12.27-19.21a.35.35 0 00-.25-.52q-2.34-.31-3.57 1.67zm-5.47.52c-2.92 4.59-6.48 9.12-9.35 13.27q-7.05 10.19-12.38 14.99c-9.74 8.76-19.72 18.64-29.96 25.65q-7.68 5.26-15.77 9.64a.31.31 0 00.26.56c9.66-3.86 17.52-8.07 25.95-14.96q12.2-9.98 17.89-15.27c9.39-8.73 13.9-15.11 20.64-23.34 3.06-3.75 4.76-7.51 6.71-11.76a.37.37 0 00-.3-.52q-2.43-.22-3.69 1.74zm-9.22 2.02q-5.08 8.55-11.97 17.92c-3.22 4.37-7.08 7.83-10.99 11.61q-.39.37-.33 1.27.03.53.45.21c4.39-3.31 8.41-6.18 11.8-10.66q8-10.56 15.39-21.62a.38.37-65.8 00-.21-.57q-2.64-.69-4.14 1.84zm19.95-.85q-5 6.65-9.18 13.86c-1.64 2.84-6.61 6.77-9.28 9.73q-10.77 11.95-23.99 21.2-.42.29.05.1 4.87-1.97 8.98-5.25 18.12-14.45 31.32-33.45 1.96-2.82 2.35-6.09.06-.52-.25-.1zm-45.17 27.37c-3.86 4.07-7.3 8.61-11.59 12.23-14.14 11.92-30.15 23.54-46.95 31.41a.31.3 25 00.21.57q12.98-3.42 24.28-11.2 12.4-8.54 23.89-18.26c2.92-2.47 5.55-5.47 8.33-8.26 2.58-2.57 4.65-5.97 7.45-8.71 6.99-6.83 11.8-15.22 16.46-23.68q.94-1.71-.92-1.13l-2.22.68a1.23 1.22 3.9 00-.75.65c-4.43 9.47-9.64 14.2-14.85 21.6q-1.61 2.29-3.34 4.1zm8.22-22.52q-8.92 14.8-19.89 28.52a.54.54 0 00.64.83c3.12-1.36 6.93-7.24 9.15-9.96 4.27-5.22 8.24-11.79 12.76-17.49q.91-1.14 2.24-4.01.21-.47-.3-.41-3.31.37-4.6 2.52zm-238.21 21.33c-5.8-5.65-12.91-11.84-17.95-19.54q-1.78-2.72-5.57-2.86-.51-.02-.2.38 7.63 9.84 11.78 14.22c1.31 1.39 3.66 2.55 5.36 4.33q3.09 3.25 6.89 5.75a.54.54 0 00.82-.59q-.22-.8-1.13-1.69zm232.21-20.58c-5.49 8.47-10.46 16.03-17.31 23.45-10.98 11.88-23.49 25.42-37.95 34.79q-8.74 5.66-16.9 9.59-3.75 1.81-5.59 3.12-.43.31.08.16c14.24-4.3 28.34-12.12 40.2-22.82 15.94-14.39 29.37-30.07 41.37-49.54a.32.31 17.6 00-.25-.47q-2.42-.18-3.65 1.72zm-177.33 57.53c.27-1.46-7.81-7.18-9.36-8.08-7.38-4.3-12.24-8.07-21.14-14.49-5.84-4.21-10.82-8.87-16.75-13.56q-6.18-4.89-11.39-10.82c-2.91-3.3-8.93-10.31-12.82-11.67a.36.35-6.3 00-.42.52c3.29 5.32 8.21 9.36 11.76 13.5q3.44 3.99 7.25 7.65c.9.87 2.82 1.12 4.07 2.35q9.77 9.62 21.42 16.85c3.73 2.31 6.71 5.09 10.71 7.39q8.14 4.67 15.51 10.78a.72.72 0 001.16-.42zm167.83-56.03c-3.19 4.33-5.77 9.96-8.56 14.18q-3.69 5.58-7.43 11.2a.35.35 0 00.53.44q12.02-11.87 18.96-27.28.2-.45-.29-.38-2.09.31-3.21 1.84zm-6.67 1.55q-8.18 13.26-17.49 25.75c-2.02 2.7-4.53 5.27-7.09 8.21-8.46 9.72-19.07 16.75-29.11 24.16q-12.75 9.42-27.55 15.43-.32.13-.49.35-.22.28-.3.53-.19.58.38.37c14.69-5.19 25.07-12.33 37.09-20.36 8.11-5.42 14.53-10.85 21.12-17.37 10.74-10.63 19.48-24.88 27.64-37.74a.85.85 0 00-.66-1.3q-2.23-.17-3.54 1.97zm-10.22 2.05q-6.06 13.12-14.68 24.71c-.23.3-1.39 1.57-1.36 2.01a.75.75 0 001.27.51q4.97-4.66 8.01-9.75 5.22-8.71 10.26-17.59a1.05 1.04 30.5 00-.37-1.4c-1.48-.9-2.5.14-3.13 1.51zm-144.74 50.15c-18.21-13.79-38.05-27.91-53.41-43.72-3.84-3.96-6.5-6.06-11.12-8.01a.69.68-14 00-.7 1.16q8.62 7.02 16.63 15.66c.82.89 2.27 1.15 3.09 2.06q2.88 3.19 6.27 5.81 12.23 9.47 24.66 18.67c1.23.91 14.06 9.33 14.86 8.85a.24.24 0 00.04-.37q-.12-.12-.32-.11zm137.13-48.5c-7.61 13.05-16.49 27.88-27.31 37.75-7.18 6.54-13.9 13.98-21.76 19.71q-1.55 1.13-2.42 2.95-.23.47.22.2c9.04-5.32 15.71-12.18 23.66-18.77 6.26-5.19 11.32-12.37 15.97-18.99 5.16-7.36 11.14-14.8 14.99-24.02a.35.35 0 00-.32-.48q-2.08.02-3.03 1.65zm-8.5 2q-3.8 9.69-9.9 18.18a.49.49 0 00.69.69c5.58-4.02 10.02-14.07 13.32-20.14a.38.38 0 00-.26-.55q-2.93-.53-3.85 1.82zm-170.74 6c-3.43-3.1-4.35-6.97-9.85-7.78a.48.47-18.2 00-.41.8q6.07 6.05 11.87 12.22c.96 1.02 2.38 1.56 3.33 2.71q2.78 3.38 6.27 6.08.42.33.66.81 1.02 2.11 3.08 3.2 1.23.65.44-.5-6.7-9.7-15.39-17.54zm117.99 55q-.39.02-.46.41a.29.28-11.1 00.44.29c4.49-3.04 9.24-7.56 12.26-10.21 8.37-7.38 13.84-16.2 20.84-24.96 6.81-8.5 11.94-17.25 16.7-26.7a.43.42-68.7 00-.26-.6q-2.37-.66-3.54 1.76-3.9 8.01-9.87 17.11c-2.59 3.95-6.45 8.31-9.37 12.79-3.63 5.56-8.22 11.6-13.01 16.15q-7.09 6.75-13.73 13.96zm-80.5-24.3q-8.14-7.78-15.57-16.21c-3.41-3.87-18.15-21.29-20.84-20.98a1.07 1.07 0 00-.65 1.79q11.3 12.08 22.14 24.29c5.07 5.71 10.82 10.94 16.87 15.6 1.67 1.28 4.93 5.59 6.48 6.01a.42.42 0 00.47-.62c-2.5-4.19-5.47-6.61-8.9-9.88zm119.13-35.37c-4.85 8.2-10.39 13.86-14.11 23.73q-.18.47.17.1c2.97-3.28 4.81-7.19 7.9-10.35q5.7-5.81 8.99-13.56a.6.6 0 00-.3-.78q-1.67-.79-2.65.86zm-143.01-.08q-.85-.91-2.37-.38a.43.42 64.9 00-.22.62c4.23 6.98 9.82 12.69 14.43 18.84 1.72 2.31 4.39 4.38 6.16 7.32a.53.53 0 00.95-.08q.21-.54-.12-1.11-7.97-13.7-18.83-25.21zm105.4 43.23c-1.38 1.66-3.88 3.5-5.29 5.93a.58.58 0 00.16.76c2.56 1.85 17.38-17.69 19.48-20.1 2.61-2.99 4.26-6.74 6.74-10.11q5.73-7.77 9.38-16.72.19-.45.55-.8.61-.59.89-1.42.24-.74-.5-.5l-2.36.75a1.26 1.25-87.7 00-.76.71q-2.4 6-6.1 11.22c-3.13 4.41-5.44 8.94-8.6 13.16q-6.56 8.75-13.59 17.12zm-94.78-41.73a.38.37-8.7 00-.39.53c5.19 11.05 12.82 20.63 19.39 30.85q2.31 3.58 11.81 16.05.31.41.17-.09-1.33-4.96-4.13-9.33c-7.97-12.4-17.33-24.42-24.39-37.29a1.02.99-10.1 00-.74-.5l-1.72-.22zm118.05.09c-2.09.1-5.89 9.33-7.43 11.52-3.09 4.39-8.41 10.99-9.76 16.12a.41.41 0 00.68.39q3.38-3.29 5.84-7.25c4-6.45 8.94-12.65 11.29-19.96a.63.62-82.4 00-.62-.82zm-9.18 2.46c-4.42 9.1-9.13 18.47-14.69 26.69q-6.5 9.61-13.89 18.63a.71.71 0 00.92 1.06c3.52-2.09 5.68-5.59 7.84-8.13q6.38-7.53 11.14-16.11c3.01-5.41 8.73-14.65 11.65-22.82a.41.4-74 00-.29-.53q-1.88-.41-2.68 1.21zm-7.86.95q-4.72 10.9-9.35 21.4a.42.42 0 00.72.41q7.46-10.25 11.47-22.3a.44.44 0 00-.29-.56q-1.85-.58-2.55 1.05zm-76.87 24c-1.1-2.49-10.14-27.16-13.7-24.82a.68.68 0 00-.25.83q5.69 13.58 13.69 25.97a.36.36 0 00.66-.18q.03-.84-.4-1.8zm70.87-23.25c-4.18 8.65-7.08 18.57-11.17 26.31q-4.02 7.62-8.78 14.86a.54.54 0 00.27.8q.88.32 1.36-.27c7.8-9.63 12.08-18.14 16.82-31.62 1.24-3.53 3.19-7.19 4.56-10.97a.4.4 0 00-.33-.54q-1.92-.26-2.73 1.43zm-72.2.36l-2.35-.64q-.73-.19-.46.51 4.37 11.39 8.5 22.86c.46 1.27 6.53 21.96 9.26 21.73a.7.7 0 00.6-.92q-4.37-12.51-7.82-24.24c-1.95-6.63-4.97-12.79-7.56-19.15a.24.22-1.8 00-.17-.15zm66.847 1.094a1.17 1.17 0 00-.795-1.451l-.077-.023a1.17 1.17 0 00-1.451.795l-4.81 16.45a1.17 1.17 0 00.794 1.452l.077.023a1.17 1.17 0 001.451-.795l4.81-16.45zm-57.237 2.226c-.56-1.38-1.18-3.83-3.41-2.91a.52.52 0 00-.28.69c2.44 5.62 3.85 11.86 6.09 17.02q1.6 3.68 3.39 7.22a.45.45 0 00.84-.3q-2.35-11.2-6.63-21.72zm47.34-1.43c-2.89 13.8-5.18 26.2-11.91 39.1a.69.69 0 001.11.8q6.57-6.89 8.34-17.59 1.95-11.73 5.66-23.02a.53.52-71.2 00-.32-.66q-2.42-.86-2.88 1.37zm-40.99-.09c-.47 2.54.57 4.62.57 6.88q-.01 4.78.9 9.46.09.48-.02.96-.21.91-.1 2.35.93 12.15 3.96 23.55a.64.64 0 001.26-.2c-.62-10.9-1.73-21.71-2.5-32.58-.13-1.78-.13-11.95-3.26-11.26a1.08 1.07-1.3 00-.81.84zm8.28 18.72c-.02-6.35.18-12.47-.35-18.85a.52.52 0 00-.81-.39l-.82.54a.95.94 72.1 00-.44.87c.12 1.93 1.16 17.64 1.9 18.11q.52.33.52-.28zm13.503-18.142a1.09 1.09 0 00-1.068-1.11l-.62-.012a1.09 1.09 0 00-1.111 1.069l-.328 17.057a1.09 1.09 0 001.07 1.11l.62.012a1.09 1.09 0 001.11-1.069l.327-17.057zm11.747-.588c.16 4.89-1.49 9.61-.78 14.72q.07.51.33.07c2.94-4.87 1.98-9.28 3.82-14.58a.53.53 0 00-.47-.71l-2.26-.12a.6.6 0 00-.64.62zm-5.4-.18c-1.69-.09-2.08 3.81-2.09 5.06q-.1 10.48-1.81 20.81-1.39 8.4-3.25 16.78a.21.2-24.5 00.38.14c6.61-11.88 7.87-28.95 7.31-42.24a.57.57 0 00-.54-.55zm-16.14.68c-.11 5.8.77 12.52.97 17.17q.5 11.7.99 23.82a.42.42 0 00.83.06c2.41-13.75.29-26.91.08-40.73a.78.77-86.6 00-.67-.76l-1.46-.19a.66.65 4.4 00-.74.63zm-3.7 74.37q.08-.37-.26-.61-.64-.45-.51.32l.2 1.11q.19 1.1.57-.82zm-112.32 30.4c6.57.66 14.17 2.37 18.79 3.06 21.86 3.27 44.59 5.99 65.56 8.77a.4.39-4.4 00.43-.49q-1-3.54-.82-7.23a.69.69 0 00-.55-.71q-4.98-1.06-14.83-1.93-34.52-3.04-62.44-2.49-3.39.07-6.15.56a.23.23 0 00.01.46zm65.54 49.81c-17.24-9.58-35.56-20.35-49.72-34.99-2.49-2.57-6.25-4.84-8.63-8.36a1.13 1.13 0 00-.73-.46l-3.82-.58a.35.35 0 00-.29.61c1.87 1.69 19.97 17.43 19.96 17.74a.62.62 0 01-.97.49q-10.26-7.15-17.65-14.72-2.98-3.05-7.8-5.44-.46-.23-.1.15 11.63 12.13 21.81 19.1c8.13 5.57 15.98 11.59 24.44 16.38q13.2 7.47 26.45 14.89c7.15 4 6.8 28.47 6.43 35.68a.18.17-29.7 00.33.09q3.36-6.44 4.79-13.52 3.11-15.31 4.82-30.94a.6.6 0 00-.43-.64c-1.9-.58-2.71-.67-4.19-2.17q-12.77-12.94-23.75-27.42-1.65-2.18-4.47-2.19a.49.49 0 00-.38.81l9.9 11.41a.55.55 0 01-.74.8q-5.27-3.85-9.33-9.18c-1.1-1.45-3-3.47-4.19-4.22q-2.73-1.73-.79.85 14.37 19.11 33.28 33.78a.61.61 0 01-.55 1.07q-3.18-.92-5.69-3.12-17.47-15.31-32.47-33.06-1.21-1.44-3.44-.74a.35.34-29.1 00-.16.55l9.5 11.29a.33.32 87.2 01-.43.48q-1.99-1.38-4.04-2.99c-2.15-1.7-4.15-4.36-6.55-6.36-1.72-1.42-3.14-3.75-5.58-4.83a.33.32-80 00-.45.32q.07 1.23.91 2.03c11.8 11.27 23.22 23.55 36.52 32.73q4.96 3.43 7.71 5.88a.32.32 0 01-.1.54c-4.8 1.78-43.06-35.04-48.29-40.26-1.77-1.78-3.95-2.71-6.23-2.83q-2.12-.12-.71 1.47 6.76 7.55 14.83 13.7a.38.37 72.5 01-.34.66c-4.83-1.58-9.34-6.6-13.37-9.77-2.07-1.63-6.24-7.35-8.26-7.23q-.53.03-.18.43c9.29 10.49 19.95 18.64 31.25 26.79 6.2 4.47 13.8 8.86 20.57 13.56.64.45 1.11.46 1.82.74a.39.39 0 01.19.56l-.17.3a.38.38 0 01-.52.14zm93.26-33.3c11.46-.22 22.78.08 34.22.25a.32.32 0 00.1-.63c-9.82-3.07-19.98-4.44-34.89-6.33a.41.4.6 00-.46.44l.52 5.81a.5.5 0 00.51.46zm-86.6 10.5q-5.73-5.09-9.69-11.66a1.66 1.63-5 00-.81-.67l-.62-.24a.69.69 0 00-.82 1.04q10.46 15.21 23.76 28.02a.63.63 0 001.07-.47l-.11-5.92a1.27 1.25-68.7 00-.38-.88q-8.11-8.06-15.37-18.95-1.22-1.83-3.68-2.45-.58-.15-.23.34l7.84 10.98a.65.65 0 01-.96.86zm9.9-1.28a.6.6 0 01-1.05.31c-1.61-1.92-7.54-10.88-9.34-10.69q-.74.07-.29.67l12.78 16.95a.31.31 0 00.55-.14c.53-3.77.58-6.82-1.64-10.24-1.28-1.98-2.91-6.33-5.54-6.36q-.52 0-.25.44c1.12 1.83 5.05 7.09 4.78 9.06zm2.36-6.11a1.76.7 81.5 00.432-1.844 1.76.7 81.5 00-.952-1.637 1.76.7 81.5 00-.432 1.844 1.76.7 81.5 00.952 1.638zm75.96 5.53q-.87-2.3 1.09-3.43 1.09-.62-.17-.69l-2.28-.13a.57.57 0 00-.61.57l.05 7.01q.01.68.54.26l8.62-6.76a.48.48 0 00-.5-.82q-3.4 1.57-6.13 4.13a.38.38 0 01-.61-.14zm9.1.32q1.27-2.03 3.59-2.78a.32.32 0 00.22-.29l.01-.31a.27.27 0 00-.35-.26c-4.7 1.45-9.59 6.81-13.68 9.77q-1.09.79-.42 2.67a.42.42 0 00.61.22c3.81-2.35 7-4.53 11.38-6.69q4.29-2.1 8.09-5.08a.31.31 0 00-.07-.53c-1.36-.59-7.09 3.17-8.71 4.01a.51.51 0 01-.67-.73zm9.36 1.75l6.34-4.54a.29.29 0 00-.02-.48c-.53-.32-23.43 14.01-25.81 15.49q-.24.15-.41.29a.69.69 0 00.74 1.15q16.67-7.7 32.59-16.83.5-.29-.07-.35c-.66-.08-1.65.17-2.22.63q-4.72 3.76-10.6 5.7a.6.6 0 01-.54-1.06zm50.96 68.43c-1.36.72-3.69 3.24-4.08 4.83a.45.44 9.3 00.4.55c2.58.2 6.31-2.33 4.43-5.19a.58.58 0 00-.75-.19zm20.39 20.73l1.76.42a.65.65 0 00.8-.57q.74-7.86-5.7-12a.79.78 88.5 00-1.06 1.12q3.3 4.61 3.59 10.29a.8.8 0 00.61.74zm-4.91 1.47l4.39 3.82a.51.51 0 00.74-.08l.73-.96a.65.65 0 00-.25-.98l-5.22-2.42a.37.37 0 00-.39.62zm-9.63 12.94a1.42 1.41-55 001.59-.29l3.5-3.51a1.41 1.4-67 01.98-.4c3.05.01 6.27-4.41 3.05-4.93a.77.76 20.7 00-.77.34c-1.66 2.6-3.14 5.7-6.82 3.58a.5.5 0 00-.68.17c-.7 1.17-2.59 4.23-.85 5.04zm3.6 7.62q8.67 5.29 15.98 11.66c2.58 2.25 10.58 5.19 10.59 8.82q.03 6.41 2.18 12.48a.57.56 62.8 00.86.28l1.64-1.15a.82.81 63.5 00.31-.95q-1.98-5.67-2.14-11.69c-.09-3.35-7.15-7.35-9.71-9.18-3.61-2.58-7.39-6.58-11.71-9.24-2.32-1.43-5.12-1.62-7.75-1.81a.42.42 0 00-.25.78zm-5.11 21.35l-3.45 8.61a1.59 1.55 87 01-.7.8l-.78.43a.75.74-23.8 00-.34.87c.52 1.68 2.6 11.61 5.32 9.95a.67.66 65.5 00.28-.76c-3.03-9.41 0-13.82 5.32-21.03q.39-.52-.24-.37l-5.06 1.2a.5.48 3 00-.35.3zm1.75 73.75q-.56-2.57.55-4.9a.72.71 38.5 00-.09-.75q-9.94-12.23-17-26.29c-3.75-7.47-12.7-12.66-19.23-17.6-3.72-2.81-6.26-6.32-9.2-9.87a.6.6 0 00-.81-.11q-.75.55-1.2 1.36a1.36 1.32 7.2 01-.84.63l-.78.2a.87.85-2.3 00-.63.67q-.58 3.2-1.23 6.35c-.62 3.01-2.83 5.94-.96 9.8 1.43 2.95 4.09 9.94-1.22 10.85a.28.27 60.3 00-.13.48q15.71 14.04 31.78 27.63c9.99 8.44 23.4 18.37 34.54 28.47a.71.71 0 001.12-.22l2.13-4.41a1.04 1.04 0 00.02-.87c-.86-2.02-1.51-4.19-2.64-6.01-2.52-4.06-7.07-9.46-7.88-14.09a.62.61 77.2 00-.77-.49q-2.51.68-4.96-.19a.89.88-87.1 01-.57-.64zm38.83-44.83q-3.43.69-6.86 1.55c-1.86.47-3.78-.27-5.58 1.58-1.55 1.61-1.89 4.88-2.4 7.25a.49.49 0 00.53.59q2.02-.25 3.35-1.81a.79.77 26.7 01.79-.25q2.18.55 2.71-1.46a.73.73 0 01.79-.54l2.43.26a1.94 1.94 0 001.05-.18q1.93-.91 4.02-.51a1.22 1.2 30.4 00.98-.25q2.34-1.88 4.83-.23a.82.81 49.1 00.79.06q2.17-.96 4.42-.29a.39.39 0 00.46-.56c-1.08-2.07-10.16-12.88-11.72-5.79a.76.74-.1 01-.59.58zm-42.11 13.78a1.26 1.25-8.6 01.98.72q3.17 6.95 6.37 13.63c2.2 4.61 5.99 7.31 10.05 10.06a.39.39 0 00.59-.2c.96-2.88-2.94-5.81-4.41-8.19-3.87-6.29-10.39-16.48-11.21-23.75q-.48-4.33-3.08-7.99a.9.89 70.2 00-.78-.37l-1.67.11q-.89.05-.34.76 5.07 6.46 2.69 14.61a.44.44 0 00.36.56l.45.05zm28.5 1.94c.63.75 4.53.11 6.58.15a1.31 1.3-64.7 00.88-.32q1.68-1.51 3.31-.03a.57.56-43.3 00.74.02q1.82-1.5 2.59-1.67 6.03-1.34 9.18-2.92.47-.23-.03-.37c-4.49-1.27-7.19.97-11.15.43a1.04 1.03-65.5 00-.93.35q-1.33 1.57-3.47 1.04a.67.66-68.4 00-.74.33q-.88 1.6-2.67 1.13a.78.77 28.4 00-.79.23q-1.24 1.38-3.19 1.08-.88-.13-.31.55zm29.496-4.843a1 1 0 00-1.398-.213l-4.174 3.066a1 1 0 00-.214 1.398l1.054 1.435a1 1 0 001.398.214l4.174-3.067a1 1 0 00.214-1.398l-1.054-1.435zm-6.166 5.833q-2.44-3.58-5.98-1.49a.67.67 0 00-.22.95l1.53 2.31a.92.91 62.5 001.09.35l3.33-1.3a.55.55 0 00.25-.82zm4.08 5.53q-1.74.95-1.02 3a1.58 1.56 44.7 01.01 1.02q-.59 1.75-2.48 1.07a.64.63-51.7 01-.13-1.13q1.94-1.26.36-2.96a1.03 1.02-58.7 01-.23-.98l.47-1.58a.76.76 0 00-.28-.84c-1.61-1.17-4.3.39-3.6 2.49a1.27 1.26 4.8 00.63.74l.48.24a.43.43 0 01.09.7q-2.54 2.29-1.07 5.51a.76.76 0 00.75.44c3.11-.25 9.43-.46 9.05-3.87q-.29-2.57-.28-2.74.29-3.77.3-7.41a.55.55 0 00-.94-.39l-3.96 3.92q-1.76 1.75.67 2.28l1.15.26q.32.07.03.23zm-10.32-4.344a2.25 1.99 5.5 00-2.05-2.197 2.25 1.99 5.5 00-2.43 1.765 2.25 1.99 5.5 002.05 2.197 2.25 1.99 5.5 002.43-1.765zm-8.09.524a.31.31 0 00-.02.47l1.1.95a.64.64 0 001.03-.29c.5-1.54-.99-2.01-2.11-1.13zm7.22 5.062a1.49 1.06 106 001.429-1.14 1.49 1.06 106 00-.608-1.724 1.49 1.06 106 00-1.43 1.14 1.49 1.06 106 00.608 1.724zm-3.37-1.452c-.53.67-1.16 2.79.49 1.85a.71.69-28 00.29-.91l-.43-.91a.21.2-38.9 00-.35-.03zm3.13 4.74q1.1.87 1.99.46a.45.45 0 00-.09-.85q-1.1-.25-1.9.26a.08.08 0 000 .13z"/><path fill="#fff" d="M301.5 153.54l-1.25.42q-17.83 1.77-35.75 1.25l.01-.89q6.69.17 13.4.18c4.25 0 10.06-1.16 15.38-.49a.37.37 0 00.19-.71q-3.9-1.69-8.19-1.7a1.73 1.71 61.3 01-.94-.28c-3.41-2.17-6.48-2.19-10.04-3.24q-4.15-1.22-6.37-1.6c-25.57-4.38-51.61-6.82-77.46-8.76-4.56-.34-26.43-2.07-28.98.57-14.86-3.44-33.9-11.17-46.85-20.01q-.44-.29.07-.44 1.64-.46 4.22-.65c23.57-1.76 47.13 1.34 68.32 4.27 13.63 1.88 27.77 5.96 41.34 9.88 11.5 3.33 22.28 8.71 33.79 12.2q15.76 4.79 31.73 8.81c2.39.61 4.86.66 7.38 1.19z"/><path fill="#b6b6b7" d="M225.78 207.35a.53.53 0 01.22.41q.06.81-.66.52-28.75-11.8-55.48-27.6-5.37-3.18-12.8-8.41c-5.53-3.91-11.92-7.85-16.54-12-9.19-8.24-19.03-19.22-23.8-30.77q-.2-.48.26-.24c3.78 1.95 5.04 5.16 7.15 7.87 5.68 7.26 11.41 15.74 17.76 21.53 6.05 5.53 13.14 9.73 19.62 14.47 8.86 6.46 19.1 11.76 28.54 17.1a1.78 1.73 56.4 001.02.22q.64-.06.94.58a1.51 1.47-.8 00.75.71q10.45 4.48 20.63 9.53c3.15 1.56 8.48 3.16 12.39 6.08z"/><path fill="#b6b6b7" d="M209.25 196.21l1.48.36q.57.14.28-.36-.46-.8-1.72-.46-2.22-1.67-4.75-2.77c-4.92-2.14-9.1-5.06-13.66-7.71-3.99-2.31-7.74-5.53-11.88-8.02q-5.02-3.01-8.26-5.41c-3.85-2.84-8.02-5.17-11.34-8.51-7.34-7.39-16.34-15.02-21.91-23.83q-.27-.42.22-.29 3.28.92 4.34 2c9.93 10.18 19.92 22.47 32.23 29.73 9.93 5.86 19.56 13.92 28.91 18.87 8.39 4.45 19.7 10.45 26.27 17.33a.57.56-45 01-.01.79c-.36.36-3.5-1.53-3.85-1.82q-4.16-3.58-9.39-4.9-2.71-.68-4.54-1.76-5.92-3.48-12.25-6.13-5.73-2.39-9.32-4.52-11.04-6.55-21.96-13.27-5.13-3.16-10.14-7.36c-6.62-5.56-14.55-11.31-19.65-17.06-3.51-3.95-9.15-10.46-10.43-15.87a.32.32 0 01.39-.38q2.46.61 3.42 2.19 6.86 11.22 16.92 19.62c5.79 4.84 11.37 10.2 17.65 14.38 10.65 7.07 22.53 14.78 32.39 20.32 3 1.69 7.14 2.89 10.56 4.84zm5.02 3.28q-.89-1.33-1.56-1.53-1.01-.31-.13.38l1.59 1.24a.07.07 0 00.1-.09z"/><path fill="#959799" d="M264.51 154.32c-13.39-1.06-26.67-1.47-40.12-5.05-3.96-1.05-7.83-.87-11.89-1.21a.81.8 16.9 00-.76.4q-.26.47-.24 1-24.63-4.06-48.75-10.46-.49-.13-1.25-.71c2.55-2.64 24.42-.91 28.98-.57 25.85 1.94 51.89 4.38 77.46 8.76q2.22.38 6.37 1.6c3.56 1.05 6.63 1.07 10.04 3.24a1.73 1.71 61.3 00.94.28q4.29.01 8.19 1.7a.37.37 0 01-.19.71c-5.32-.67-11.13.49-15.38.49q-6.71-.01-13.4-.18z"/><path fill="#b6b6b7" d="M444.63 138.65q1.23-1.98 3.57-1.67a.35.35 0 01.25.52c-3.93 6.61-7.52 13.51-12.27 19.21q-8.49 10.17-19.03 18.78a.38.38 0 01-.53-.53c3.76-4.59 8.5-8.12 11.94-12.88q4.21-5.8 8.88-11.23c3.15-3.66 4.64-8.1 7.19-12.2z"/><path fill="#b6b6b7" d="M439.16 139.17q1.26-1.96 3.69-1.74a.37.37 0 01.3.52c-1.95 4.25-3.65 8.01-6.71 11.76-6.74 8.23-11.25 14.61-20.64 23.34q-5.69 5.29-17.89 15.27c-8.43 6.89-16.29 11.1-25.95 14.96a.31.31 0 01-.26-.56q8.09-4.38 15.77-9.64c10.24-7.01 20.22-16.89 29.96-25.65q5.33-4.8 12.38-14.99c2.87-4.15 6.43-8.68 9.35-13.27z"/><path fill="#b6b6b7" d="M429.94 141.19q1.5-2.53 4.14-1.84a.38.37-65.8 01.21.57q-7.39 11.06-15.39 21.62c-3.39 4.48-7.41 7.35-11.8 10.66q-.42.32-.45-.21-.06-.9.33-1.27c3.91-3.78 7.77-7.24 10.99-11.61q6.89-9.37 11.97-17.92zM450.14 140.44q-.39 3.27-2.35 6.09-13.2 19-31.32 33.45-4.11 3.28-8.98 5.25-.47.19-.05-.1 13.22-9.25 23.99-21.2c2.67-2.96 7.64-6.89 9.28-9.73q4.18-7.21 9.18-13.86.31-.42.25.1z"/><path fill="#b6b6b7" d="M393.13 179.94c4.29-3.62 7.73-8.16 11.59-12.23q1.73-1.81 3.34-4.1c5.21-7.4 10.42-12.13 14.85-21.6a1.23 1.22 3.9 01.75-.65l2.22-.68q1.86-.58.92 1.13c-4.66 8.46-9.47 16.85-16.46 23.68-2.8 2.74-4.87 6.14-7.45 8.71-2.78 2.79-5.41 5.79-8.33 8.26q-11.49 9.72-23.89 18.26-11.3 7.78-24.28 11.2a.31.3 25 01-.21-.57c16.8-7.87 32.81-19.49 46.95-31.41z"/><path fill="#b6b6b7" d="M412.94 145.19q1.29-2.15 4.6-2.52.51-.06.3.41-1.33 2.87-2.24 4.01c-4.52 5.7-8.49 12.27-12.76 17.49-2.22 2.72-6.03 8.6-9.15 9.96a.54.54 0 01-.64-.83q10.97-13.72 19.89-28.52zM174.73 166.52q.91.89 1.13 1.69a.54.54 0 01-.82.59q-3.8-2.5-6.89-5.75c-1.7-1.78-4.05-2.94-5.36-4.33q-4.15-4.38-11.78-14.22-.31-.4.2-.38 3.79.14 5.57 2.86c5.04 7.7 12.15 13.89 17.95 19.54zM406.94 145.94q1.23-1.9 3.65-1.72a.32.31 17.6 01.25.47c-12 19.47-25.43 35.15-41.37 49.54-11.86 10.7-25.96 18.52-40.2 22.82q-.51.15-.08-.16 1.84-1.31 5.59-3.12 8.16-3.93 16.9-9.59c14.46-9.37 26.97-22.91 37.95-34.79 6.85-7.42 11.82-14.98 17.31-23.45zM220.25 195.39c1.55.9 9.63 6.62 9.36 8.08a.72.72 0 01-1.16.42q-7.37-6.11-15.51-10.78c-4-2.3-6.98-5.08-10.71-7.39q-11.65-7.23-21.42-16.85c-1.25-1.23-3.17-1.48-4.07-2.35q-3.81-3.66-7.25-7.65c-3.55-4.14-8.47-8.18-11.76-13.5a.36.35-6.3 01.42-.52c3.89 1.36 9.91 8.37 12.82 11.67q5.21 5.93 11.39 10.82c5.93 4.69 10.91 9.35 16.75 13.56 8.9 6.42 13.76 10.19 21.14 14.49z"/><path fill="#b6b6b7" d="M397.44 147.44q1.12-1.53 3.21-1.84.49-.07.29.38-6.94 15.41-18.96 27.28a.35.35 0 01-.53-.44q3.74-5.62 7.43-11.2c2.79-4.22 5.37-9.85 8.56-14.18zM390.77 148.99q1.31-2.14 3.54-1.97a.85.85 0 01.66 1.3c-8.16 12.86-16.9 27.11-27.64 37.74-6.59 6.52-13.01 11.95-21.12 17.37-12.02 8.03-22.4 15.17-37.09 20.36q-.57.21-.38-.37.08-.25.3-.53.17-.22.49-.35 14.8-6.01 27.55-15.43c10.04-7.41 20.65-14.44 29.11-24.16 2.56-2.94 5.07-5.51 7.09-8.21q9.31-12.49 17.49-25.75zM264.51 154.32l-.01.89q-26.66-1.38-53-5.75-.02-.53.24-1a.81.8 16.9 01.76-.4c4.06.34 7.93.16 11.89 1.21 13.45 3.58 26.73 3.99 40.12 5.05z"/><path fill="#b6b6b7" d="M380.55 151.04c.63-1.37 1.65-2.41 3.13-1.51a1.05 1.04 30.5 01.37 1.4q-5.04 8.88-10.26 17.59-3.04 5.09-8.01 9.75a.75.75 0 01-1.27-.51c-.03-.44 1.13-1.71 1.36-2.01q8.62-11.59 14.68-24.71zM235.81 201.19q.2-.01.32.11a.24.24 0 01-.04.37c-.8.48-13.63-7.94-14.86-8.85q-12.43-9.2-24.66-18.67-3.39-2.62-6.27-5.81c-.82-.91-2.27-1.17-3.09-2.06q-8.01-8.64-16.63-15.66a.69.68-14 01.7-1.16c4.62 1.95 7.28 4.05 11.12 8.01 15.36 15.81 35.2 29.93 53.41 43.72zM372.94 152.69q.95-1.63 3.03-1.65a.35.35 0 01.32.48c-3.85 9.22-9.83 16.66-14.99 24.02-4.65 6.62-9.71 13.8-15.97 18.99-7.95 6.59-14.62 13.45-23.66 18.77q-.45.27-.22-.2.87-1.82 2.42-2.95c7.86-5.73 14.58-13.17 21.76-19.71 10.82-9.87 19.7-24.7 27.31-37.75z"/><path fill="#b6b6b7" d="M364.44 154.69q.92-2.35 3.85-1.82a.38.38 0 01.26.55c-3.3 6.07-7.74 16.12-13.32 20.14a.49.49 0 01-.69-.69q6.1-8.49 9.9-18.18zM183.85 152.91c5.5.81 6.42 4.68 9.85 7.78q8.69 7.84 15.39 17.54.79 1.15-.44.5-2.06-1.09-3.08-3.2-.24-.48-.66-.81-3.49-2.7-6.27-6.08c-.95-1.15-2.37-1.69-3.33-2.71q-5.8-6.17-11.87-12.22a.48.47-18.2 01.41-.8zM301.5 153.54q.84-.21 1.36.25.46.4-.15.35l-2.46-.18 1.25-.42zM311.69 215.69q6.64-7.21 13.73-13.96c4.79-4.55 9.38-10.59 13.01-16.15 2.92-4.48 6.78-8.84 9.37-12.79q5.97-9.1 9.87-17.11 1.17-2.42 3.54-1.76a.43.42-68.7 01.26.6c-4.76 9.45-9.89 18.2-16.7 26.7-7 8.76-12.47 17.58-20.84 24.96-3.02 2.65-7.77 7.17-12.26 10.21a.29.28-11.1 01-.44-.29q.07-.39.46-.41zM231.19 191.39c3.43 3.27 6.4 5.69 8.9 9.88a.42.42 0 01-.47.62c-1.55-.42-4.81-4.73-6.48-6.01-6.05-4.66-11.8-9.89-16.87-15.6q-10.84-12.21-22.14-24.29a1.07 1.07 0 01.65-1.79c2.69-.31 17.43 17.11 20.84 20.98q7.43 8.43 15.57 16.21zM350.32 156.02q.98-1.65 2.65-.86a.6.6 0 01.3.78q-3.29 7.75-8.99 13.56c-3.09 3.16-4.93 7.07-7.9 10.35q-.35.37-.17-.1c3.72-9.87 9.26-15.53 14.11-23.73zM207.31 155.94q10.86 11.51 18.83 25.21.33.57.12 1.11a.53.53 0 01-.95.08c-1.77-2.94-4.44-5.01-6.16-7.32-4.61-6.15-10.2-11.86-14.43-18.84a.43.42 64.9 01.22-.62q1.52-.53 2.37.38zM312.71 199.17q7.03-8.37 13.59-17.12c3.16-4.22 5.47-8.75 8.6-13.16q3.7-5.22 6.1-11.22a1.26 1.25-87.7 01.76-.71l2.36-.75q.74-.24.5.5-.28.83-.89 1.42-.36.35-.55.8-3.65 8.95-9.38 16.72c-2.48 3.37-4.13 7.12-6.74 10.11-2.1 2.41-16.92 21.95-19.48 20.1a.58.58 0 01-.16-.76c1.41-2.43 3.91-4.27 5.29-5.93zM217.93 157.44l1.72.22a1.02.99-10.1 01.74.5c7.06 12.87 16.42 24.89 24.39 37.29q2.8 4.37 4.13 9.33.14.5-.17.09-9.5-12.47-11.81-16.05c-6.57-10.22-14.2-19.8-19.39-30.85a.38.37-8.7 01.39-.53zM328.55 169.05c1.54-2.19 5.34-11.42 7.43-11.52a.63.62-82.4 01.62.82c-2.35 7.31-7.29 13.51-11.29 19.96q-2.46 3.96-5.84 7.25a.41.41 0 01-.68-.39c1.35-5.13 6.67-11.73 9.76-16.12zM326.8 159.99q.8-1.62 2.68-1.21a.41.4-74 01.29.53c-2.92 8.17-8.64 17.41-11.65 22.82q-4.76 8.58-11.14 16.11c-2.16 2.54-4.32 6.04-7.84 8.13a.71.71 0 01-.92-1.06q7.39-9.02 13.89-18.63c5.56-8.22 10.27-17.59 14.69-26.69zM318.94 160.94q.7-1.63 2.55-1.05a.44.44 0 01.29.56q-4.01 12.05-11.47 22.3a.42.42 0 01-.72-.41q4.63-10.5 9.35-21.4zM228.37 160.12c3.56-2.34 12.6 22.33 13.7 24.82q.43.96.4 1.8a.36.36 0 01-.66.18q-8-12.39-13.69-25.97a.68.68 0 01.25-.83zM312.94 161.69q.81-1.69 2.73-1.43a.4.4 0 01.33.54c-1.37 3.78-3.32 7.44-4.56 10.97-4.74 13.48-9.02 21.99-16.82 31.62q-.48.59-1.36.27a.54.54 0 01-.27-.8q4.76-7.24 8.78-14.86c4.09-7.74 6.99-17.66 11.17-26.31zM240.74 162.05a.24.22-1.8 01.17.15c2.59 6.36 5.61 12.52 7.56 19.15q3.45 11.73 7.82 24.24a.7.7 0 01-.6.92c-2.73.23-8.8-20.46-9.26-21.73q-4.13-11.47-8.5-22.86-.27-.7.46-.51l2.35.64z"/><rect fill="#b6b6b7" x="-1.21" y="-9.74" transform="rotate(16.3 -445.114 1146.952)" width="2.42" height="19.48" rx="1.17"/><path fill="#b6b6b7" d="M246.94 162.46c2.23-.92 2.85 1.53 3.41 2.91q4.28 10.52 6.63 21.72a.45.45 0 01-.84.3q-1.79-3.54-3.39-7.22c-2.24-5.16-3.65-11.4-6.09-17.02a.52.52 0 01.28-.69zM297.69 163.94q.46-2.23 2.88-1.37a.53.52-71.2 01.32.66q-3.71 11.29-5.66 23.02-1.77 10.7-8.34 17.59a.69.69 0 01-1.11-.8c6.73-12.9 9.02-25.3 11.91-39.1zM256.7 163.85a1.08 1.07-1.3 01.81-.84c3.13-.69 3.13 9.48 3.26 11.26.77 10.87 1.88 21.68 2.5 32.58a.64.64 0 01-1.26.2q-3.03-11.4-3.96-23.55-.11-1.44.1-2.35.11-.48.02-.96-.91-4.68-.9-9.46c0-2.26-1.04-4.34-.57-6.88z"/><path fill="#fdfcdf" d="M264.63 163.72c.53 6.38.33 12.5.35 18.85q0 .61-.52.28c-.74-.47-1.78-16.18-1.9-18.11a.95.94 72.1 01.44-.87l.82-.54a.52.52 0 01.81.39z"/><rect fill="#b6b6b7" x="-1.4" y="-9.62" transform="rotate(1.1 -8868.68 14509.974)" width="2.8" height="19.24" rx="1.09"/><path fill="#b6b6b7" d="M289.45 178.56c-.71-5.11.94-9.83.78-14.72a.6.6 0 01.64-.62l2.26.12a.53.53 0 01.47.71c-1.84 5.3-.88 9.71-3.82 14.58q-.26.44-.33-.07zM282.74 168.72c.01-1.25.4-5.15 2.09-5.06a.57.57 0 01.54.55c.56 13.29-.7 30.36-7.31 42.24a.21.2-24.5 01-.38-.14q1.86-8.38 3.25-16.78 1.71-10.33 1.81-20.81zM268.69 164.34a.66.65 4.4 01.74-.63l1.46.19a.78.77-86.6 01.67.76c.21 13.82 2.33 26.98-.08 40.73a.42.42 0 01-.83-.06q-.49-12.12-.99-23.82c-.2-4.65-1.08-11.37-.97-17.17z"/><path fill="#959799" d="M209.29 195.75q1.26-.34 1.72.46.29.5-.28.36l-1.48-.36.04-.46zM214.27 199.49a.07.07 0 01-.1.09l-1.59-1.24q-.88-.69.13-.38.67.2 1.56 1.53zM264.42 239.53l-.2-1.11q-.13-.77.51-.32.34.24.26.61-.38 1.92-.57.82zM427.15 441.79l.5-4.03q-.06-5.3-1.03-10.5c-.46-2.45.74-6.55-3.85-6.18q-4.53-2.53-8.43-5.94-5.48-5.61-11.99-9.92a.66.64 39.5 00-.81.07q-.29.29-.29.67-2.68-.98-5.66-.86a.87.86-86.7 01-.88-1l.63-3.98a.74.73 2.9 01.69-.62q2.04-.12 3.51-1.35 3.54-2.1 7.49-3.26a1.29 1.28-82.4 00.74-.57c1.9-3.19 1.96-8.57 2.42-12.25q.43-3.41-2.63-5.87l-1.56-2.16q.48-.17.61-.54a.72.72 0 00-.24-.82q-3.09-2.4-6.81-3.74l-4.56-.65q-.06-5.41.42-9.36 3.02-24.78-1-49.71a.51.5 85.8 00-.48-.42q-23.35-.47-46.69 1.43c-4.6.38-11.87-.48-12.79-5.98l4.29-2.46q.26.51.69.75a.92.91 45.3 00.9.01c3.98-2.21 23.35-11.02 21.37-16.78-1.22-3.56-9.65-6.45-12.73-7.49q-2.3-.78-4.81.43l-4.63-1.29c10.03-16.63 25.13-28.73 43.29-35.18 5.91-2.1 13.81-2.84 19.23-3.41 22.6-2.36 64 1.78 78.1 23.8 6.49 10.13 16.36 33.12 5.32 43.39a1.46 1.46 0 01-.87.38c-8.23.65-16.77 2.09-24.51 2.34q-13.01.43-26.83.2a.85.85 0 00-.85.98c3.18 20.29 3.51 42.84.72 62.51-2.09 14.71-7.24 43.36 4.03 53.63 2.64 2.41 4.42 5.03 7.86 6.35q2.97 1.14 5.96 2.11a1.08 1.05-.9 01.66.62c.65 1.72 1.35 2.63 3.28 3.08q4.94 1.16 9.29 4.37 1.54 1.13-.36.95c-6.89-.64-13.25-1.14-20.92-1.07q-7.84.07-15.79-.68z"/><path fill="#fff" d="M152.67 269.11a.23.23 0 01-.01-.46q2.76-.49 6.15-.56 27.92-.55 62.44 2.49 9.85.87 14.83 1.93a.69.69 0 01.55.71q-.18 3.69.82 7.23a.4.39-4.4 01-.43.49c-20.97-2.78-43.7-5.5-65.56-8.77-4.62-.69-12.22-2.4-18.79-3.06z"/><path fill="#b6b6b7" d="M218.73 318.78l.17-.3a.39.39 0 00-.19-.56c-.71-.28-1.18-.29-1.82-.74-6.77-4.7-14.37-9.09-20.57-13.56-11.3-8.15-21.96-16.3-31.25-26.79q-.35-.4.18-.43c2.02-.12 6.19 5.6 8.26 7.23 4.03 3.17 8.54 8.19 13.37 9.77a.38.37 72.5 00.34-.66q-8.07-6.15-14.83-13.7-1.41-1.59.71-1.47c2.28.12 4.46 1.05 6.23 2.83 5.23 5.22 43.49 42.04 48.29 40.26a.32.32 0 00.1-.54q-2.75-2.45-7.71-5.88c-13.3-9.18-24.72-21.46-36.52-32.73q-.84-.8-.91-2.03a.33.32-80 01.45-.32c2.44 1.08 3.86 3.41 5.58 4.83 2.4 2 4.4 4.66 6.55 6.36q2.05 1.61 4.04 2.99a.33.32 87.2 00.43-.48l-9.5-11.29a.35.34-29.1 01.16-.55q2.23-.7 3.44.74 15 17.75 32.47 33.06 2.51 2.2 5.69 3.12a.61.61 0 00.55-1.07q-18.91-14.67-33.28-33.78-1.94-2.58.79-.85c1.19.75 3.09 2.77 4.19 4.22q4.06 5.33 9.33 9.18a.55.55 0 00.74-.8l-9.9-11.41a.49.49 0 01.38-.81q2.82.01 4.47 2.19 10.98 14.48 23.75 27.42c1.48 1.5 2.29 1.59 4.19 2.17a.6.6 0 01.43.64q-1.71 15.63-4.82 30.94-1.43 7.08-4.79 13.52a.18.17-29.7 01-.33-.09c.37-7.21.72-31.68-6.43-35.68q-13.25-7.42-26.45-14.89c-8.46-4.79-16.31-10.81-24.44-16.38q-10.18-6.97-21.81-19.1-.36-.38.1-.15 4.82 2.39 7.8 5.44 7.39 7.57 17.65 14.72a.62.62 0 00.97-.49c.01-.31-18.09-16.05-19.96-17.74a.35.35 0 01.29-.61l3.82.58a1.13 1.13 0 01.73.46c2.38 3.52 6.14 5.79 8.63 8.36 14.16 14.64 32.48 25.41 49.72 34.99a.38.38 0 00.52-.14zM338.75 301.79q10.57-4.8 19.94-11.58c8.76-6.33-11.62-10.76-14.52-11.5q2.51-1.21 4.81-.43c3.08 1.04 11.51 3.93 12.73 7.49 1.98 5.76-17.39 14.57-21.37 16.78a.92.91 45.3 01-.9-.01q-.43-.24-.69-.75z"/><path fill="#fff" d="M345.69 285.87c-11.44-.17-22.76-.47-34.22-.25a.5.5 0 01-.51-.46l-.52-5.81a.41.4.6 01.46-.44c14.91 1.89 25.07 3.26 34.89 6.33a.32.32 0 01-.1.63z"/><path fill="#b6b6b7" d="M224.87 296.12a.65.65 0 00.96-.86l-7.84-10.98q-.35-.49.23-.34 2.46.62 3.68 2.45 7.26 10.89 15.37 18.95a1.27 1.25-68.7 01.38.88l.11 5.92a.63.63 0 01-1.07.47q-13.3-12.81-23.76-28.02a.69.69 0 01.82-1.04l.62.24a1.66 1.63-5 01.81.67q3.96 6.57 9.69 11.66zM234.77 294.84c.27-1.97-3.66-7.23-4.78-9.06q-.27-.44.25-.44c2.63.03 4.26 4.38 5.54 6.36 2.22 3.42 2.17 6.47 1.64 10.24a.31.31 0 01-.55.14l-12.78-16.95q-.45-.6.29-.67c1.8-.19 7.73 8.77 9.34 10.69a.6.6 0 001.05-.31z"/><ellipse fill="#959799" transform="rotate(81.5 -48.1 280.946)" rx="1.76" ry=".7"/><path fill="#b6b6b7" d="M313.7 294.4q2.73-2.56 6.13-4.13a.48.48 0 01.5.82l-8.62 6.76q-.53.42-.54-.26l-.05-7.01a.57.57 0 01.61-.57l2.28.13q1.26.07.17.69-1.96 1.13-1.09 3.43a.38.38 0 00.61.14zM322.19 294.58a.51.51 0 00.67.73c1.62-.84 7.35-4.6 8.71-4.01a.31.31 0 01.07.53q-3.8 2.98-8.09 5.08c-4.38 2.16-7.57 4.34-11.38 6.69a.42.42 0 01-.61-.22q-.67-1.88.42-2.67c4.09-2.96 8.98-8.32 13.68-9.77a.27.27 0 01.35.26l-.01.31a.32.32 0 01-.22.29q-2.32.75-3.59 2.78zM331.55 296.33a.6.6 0 00.54 1.06q5.88-1.94 10.6-5.7c.57-.46 1.56-.71 2.22-.63q.57.06.07.35-15.92 9.13-32.59 16.83a.69.69 0 01-.74-1.15q.17-.14.41-.29c2.38-1.48 25.28-15.81 25.81-15.49a.29.29 0 01.02.48l-6.34 4.54z"/><path fill="#fdfcdf" d="M334.46 304.25c.92 5.5 8.19 6.36 12.79 5.98q23.34-1.9 46.69-1.43a.51.5 85.8 01.48.42q4.02 24.93 1 49.71-.48 3.95-.42 9.36-4.25-.02-8.22 1.57a.33.32 80.6 01-.44-.32c.13-2.39.88-6.26-2.63-6.51-2.79-.19-4.4 2.71-6.16 4.77-4.84 5.64 7.54 6.66 3.94 10.82-.94 1.09-2.97 1.27-4.4 1.8a1.08 1.07 89 00-.67.7q-.35 1.1.33 2.1a1.22 1.2-54.8 01.16.98c-.36 1.26-1.37 6.7-2.49 7.39a.79.79 0 00-.37.75c.2 1.97 4.4 4.15 6.04 5.36a1.39 1.39 0 01-.65 2.5q-5.57.73-10.37-1.84a1.35 1.32 46.7 00-1.17-.05l-4.62 2.04a1.11 1.1 52.8 01-1.13-.16q-2.87-2.33-6.56-2.27a1.58 1.58 0 01-.9-.26c-4.2-2.65-2.26-9.65-3.44-14.27-1.2-4.73 2.25-8.36 6.74-9.22a.6.59 75 01.68.4q2.08 6.4-.12 12.7a.52.52 0 00.93.45c6.62-10.71 5.83-24.23-6.67-30.15a.67.67 0 00-.88.91l5.2 10.1a.65.65 0 01-.31.89l-3.36 1.45a.86.86 0 01-.86-.1c-1.68-1.23-4.39-3.32-6.28-1.36a1.16 1.15-66.6 01-.84.34q-4-.14-7.35 2.03a1.06 1.04 76.3 00-.48.81l-.33 3.86a.86.86 0 01-.52.71c-3.06 1.3-10.37 3.15-10 7.22a1.73 1.73 0 002.6 1.33q3.95-2.34 8.78-3.84c5-1.55 3.04 5.56 2.77 7.66-.57 4.54.73 9.45.53 14.17-.17 3.79 11.73 7.1 14.53 7.72q1.11.24 3.28 2.25-1.66.93-2.83-.6a1.59 1.58-8.6 00-.75-.55c-4.7-1.61-12.46-3.18-14.96-7.82-1.8-3.34-3.08-3.6-6.51-4.49q-6.03-1.57-21.19-6.8c.11-3.67-.33-7.75-.3-11.03q.32-33.23-1.22-66.4a.66.65 75.6 01.36-.62l22.57-11.16z"/><path fill="#fdfcdf" d="M378.43 369.59c.39-1.59 2.72-4.11 4.08-4.83a.58.58 0 01.75.19c1.88 2.86-1.85 5.39-4.43 5.19a.45.44 9.3 01-.4-.55z"/><path fill="#b6b6b7" d="M406 374.04l-6.44-5.1q3.72 1.34 6.81 3.74a.72.72 0 01.24.82q-.13.37-.61.54z"/><path fill="#fff" d="M402.9 385.49a.8.8 0 01-.61-.74q-.29-5.68-3.59-10.29a.79.78 88.5 011.06-1.12q6.44 4.14 5.7 12a.65.65 0 01-.8.57l-1.76-.42z"/><path fill="#b6b6b7" d="M407.56 376.2q3.06 2.46 2.63 5.87c-.46 3.68-.52 9.06-2.42 12.25a1.29 1.28-82.4 01-.74.57q-3.95 1.16-7.49 3.26 1.59-3.52 4.84-3.38a2.63 2.62-83.1 002.69-2.11c1.23-6.07 3.17-9.53.49-16.46z"/><path fill="#fff" d="M397.99 386.96a.37.37 0 01.39-.62l5.22 2.42a.65.65 0 01.25.98l-.73.96a.51.51 0 01-.74.08l-4.39-3.82zM388.36 399.9c-1.74-.81.15-3.87.85-5.04a.5.5 0 01.68-.17c3.68 2.12 5.16-.98 6.82-3.58a.77.76 20.7 01.77-.34c3.22.52 0 4.94-3.05 4.93a1.41 1.4-67 00-.98.4l-3.5 3.51a1.42 1.41-55 01-1.59.29z"/><path fill="#b6b6b7" d="M49.78 392.5q-.67-.01-.99-.65a.42.42 0 01.37-.61q.73 0 1.02.64a.44.43 78 01-.4.62z"/><path fill="#959799" d="M313.05 393.46q15.16 5.23 21.19 6.8c3.43.89 4.71 1.15 6.51 4.49 2.5 4.64 10.26 6.21 14.96 7.82a1.59 1.58-8.6 01.75.55q1.17 1.53 2.83.6c1.6-.16 2.13.85 1.83 2.33q-1.01 5.06-2.52 9.94-.14.47-.05.95l.16.81c-5.49-.18-9.68-1.19-14.65-4.29q-3.07-1.91-6.31-3.5-4.06-1.7-6.99 1.15a1.11 1.11 0 01-.86.31l-15.61-1.17-1.24-26.79z"/><path fill="#b6b6b7" d="M414.34 415.14l-13.09-9.18q0-.38.29-.67a.66.64 39.5 01.81-.07q6.51 4.31 11.99 9.92z"/><path fill="#fff" d="M391.96 407.52a.42.42 0 01.25-.78c2.63.19 5.43.38 7.75 1.81 4.32 2.66 8.1 6.66 11.71 9.24 2.56 1.83 9.62 5.83 9.71 9.18q.16 6.02 2.14 11.69a.82.81 63.5 01-.31.95l-1.64 1.15a.57.56 62.8 01-.86-.28q-2.15-6.07-2.18-12.48c-.01-3.63-8.01-6.57-10.59-8.82q-7.31-6.37-15.98-11.66z"/><path fill="#fdfcdf" d="M337.75 419.96l-1 .33c-4.67-1.18-6.23 2.69-8.35 5.75a1.43 1.42-29.2 00-.26.91q.23 3.58-1.84 6.21-.68.6-.8 1.31a.97.97 0 00.31.87l2.24 2.05a1.18 1.17-70 01.38.82l.68 18.84a1.83 1.75-32.9 01-.22.93l-.39.73-3.18.02a.69.68-7.8 01-.66-.5c-.17-.59-.12-1.4-.33-1.89q-7.34-17.39-10.04-36.09l15.61 1.17a1.11 1.11 0 00.86-.31q2.93-2.85 6.99-1.15z"/><path fill="#fff" d="M337.75 419.96q3.24 1.59 6.31 3.5c4.97 3.1 9.16 4.11 14.65 4.29q1.25 4.07-1.76 6.85a.53.52-43.4 01-.73-.01q-8.67-8.61-19.47-14.3l1-.33z"/><path fill="#b6b6b7" d="M427.65 437.76q-2.37-6.91-2.69-14a1.34 1.34 0 00-.39-.87l-1.8-1.81c4.59-.37 3.39 3.73 3.85 6.18q.97 5.2 1.03 10.5zM414.29 441.25q-.87 1.31-2.34.39a1.84 1.83 27.7 01-.72-2.3q1.42-3.26-.89-5.83a1.26 1.24-62.9 01-.3-.96c.41-3.48-6.93-5.95-9.51-6.27a.82.82 0 00-.78.36l-4.75 7.15-.71-.54q1.76-4.17 4.44-7.81a.92.9 19 01.8-.38c6.98.35 15.32 5.06 14.08 13.13-.21 1.32.14 1.97.68 3.06z"/><path fill="#959799" d="M414.29 441.25l.46.96c-6.34 1.64-14.68 2.13-21.24-2.48a1.56 1.56 0 01-.5-1.97l1.99-3.97 4.75-7.15a.82.82 0 01.78-.36c2.58.32 9.92 2.79 9.51 6.27a1.26 1.24-62.9 00.3.96q2.31 2.57.89 5.83a1.84 1.83 27.7 00.72 2.3q1.47.92 2.34-.39z"/><path fill="#fff" d="M386.85 428.87a.5.48 3 01.35-.3l5.06-1.2q.63-.15.24.37c-5.32 7.21-8.35 11.62-5.32 21.03a.67.66 65.5 01-.28.76c-2.72 1.66-4.8-8.27-5.32-9.95a.75.74-23.8 01.34-.87l.78-.43a1.59 1.55 87 00.7-.8l3.45-8.61z"/><path d="M326.3 433.16c2.73 2.73 3.67 4.95 3.73 9.03.07 4.76 2.08 12.83.15 16.63a.88.87-76.8 01-.76.48q-.61.01-.92-.59l.39-.73a1.83 1.75-32.9 00.22-.93l-.68-18.84a1.18 1.17-70 00-.38-.82l-2.24-2.05a.97.97 0 01-.31-.87q.12-.71.8-1.31z"/><path fill="#fdfcdf" d="M389.17 503.26q2.45.87 4.96.19a.62.61 77.2 01.77.49c.81 4.63 5.36 10.03 7.88 14.09 1.13 1.82 1.78 3.99 2.64 6.01a1.04 1.04 0 01-.02.87l-2.13 4.41a.71.71 0 01-1.12.22c-11.14-10.1-24.55-20.03-34.54-28.47q-16.07-13.59-31.78-27.63a.28.27 60.3 01.13-.48c5.31-.91 2.65-7.9 1.22-10.85-1.87-3.86.34-6.79.96-9.8q.65-3.15 1.23-6.35a.87.85-2.3 01.63-.67l.78-.2a1.36 1.32 7.2 00.84-.63q.45-.81 1.2-1.36a.6.6 0 01.81.11c2.94 3.55 5.48 7.06 9.2 9.87 6.53 4.94 15.48 10.13 19.23 17.6q7.06 14.06 17 26.29a.72.71 38.5 01.09.75q-1.11 2.33-.55 4.9a.89.88-87.1 00.57.64zM428.02 457.21c1.56-7.09 10.64 3.72 11.72 5.79a.39.39 0 01-.46.56q-2.25-.67-4.42.29a.82.81 49.1 01-.79-.06q-2.49-1.65-4.83.23a1.22 1.2 30.4 01-.98.25q-2.09-.4-4.02.51a1.94 1.94 0 01-1.05.18l-2.43-.26a.73.73 0 00-.79.54q-.53 2.01-2.71 1.46a.79.77 26.7 00-.79.25q-1.33 1.56-3.35 1.81a.49.49 0 01-.53-.59c.51-2.37.85-5.64 2.4-7.25 1.8-1.85 3.72-1.11 5.58-1.58q3.43-.86 6.86-1.55a.76.74-.1 00.59-.58z"/><path fill="#fff" d="M385.32 471.57l-.45-.05a.44.44 0 01-.36-.56q2.38-8.15-2.69-14.61-.55-.71.34-.76l1.67-.11a.9.89 70.2 01.78.37q2.6 3.66 3.08 7.99c.82 7.27 7.34 17.46 11.21 23.75 1.47 2.38 5.37 5.31 4.41 8.19a.39.39 0 01-.59.2c-4.06-2.75-7.85-5.45-10.05-10.06q-3.2-6.68-6.37-13.63a1.26 1.25-8.6 00-.98-.72z"/><path fill="#b6b6b7" d="M420.4 473.66c-2.05-.04-5.95.6-6.58-.15q-.57-.68.31-.55 1.95.3 3.19-1.08a.78.77 28.4 01.79-.23q1.79.47 2.67-1.13a.67.66-68.4 01.74-.33q2.14.53 3.47-1.04a1.04 1.03-65.5 01.93-.35c3.96.54 6.66-1.7 11.15-.43q.5.14.03.37-3.15 1.58-9.18 2.92-.77.17-2.59 1.67a.57.56-43.3 01-.74-.02q-1.63-1.48-3.31.03a1.31 1.3-64.7 01-.88.32z"/><rect fill="#fff" x="-3.59" y="-1.89" transform="rotate(-36.3 939.642 -436.801)" width="7.18" height="3.78" rx="1"/><path fill="#fff" d="M437.15 474.5a.55.55 0 01-.25.82l-3.33 1.3a.92.91 62.5 01-1.09-.35l-1.53-2.31a.67.67 0 01.22-.95q3.54-2.09 5.98 1.49zM441.2 479.8l-1.15-.26q-2.43-.53-.67-2.28l3.96-3.92a.55.55 0 01.94.39q-.01 3.64-.3 7.41-.01.17.28 2.74c.38 3.41-5.94 3.62-9.05 3.87a.76.76 0 01-.75-.44q-1.47-3.22 1.07-5.51a.43.43 0 00-.09-.7l-.48-.24a1.27 1.26 4.8 01-.63-.74c-.7-2.1 1.99-3.66 3.6-2.49a.76.76 0 01.28.84l-.47 1.58a1.03 1.02-58.7 00.23.98q1.58 1.7-.36 2.96a.64.63-51.7 00.13 1.13q1.89.68 2.48-1.07a1.58 1.56 44.7 00-.01-1.02q-.72-2.05 1.02-3 .29-.16-.03-.23z"/><ellipse fill="#fff" transform="rotate(5.5 -4735.029 4699.938)" rx="2.25" ry="1.99"/><path fill="#fff" d="M422.82 476.21c1.12-.88 2.61-.41 2.11 1.13a.64.64 0 01-1.03.29l-1.1-.95a.31.31 0 01.02-.47z"/><ellipse fill="#fdfcdf" transform="rotate(106 34.432 402.104)" rx="1.49" ry="1.06"/><path fill="#fdfcdf" d="M426.67 479.82a.21.2-38.9 01.35.03l.43.91a.71.69-28 01-.29.91c-1.65.94-1.02-1.18-.49-1.85zM429.8 484.56a.08.08 0 010-.13q.8-.51 1.9-.26a.45.45 0 01.09.85q-.89.41-1.99-.46z"/><path fill="#b6b6b7" d="M586.21 581.75l.19 3.98a.5.49-1.6 01-.5.52l-3.4-.02q.45-3.38 3.71-4.48z"/><path fill="#211f1e" d="M0 589.94l.5.1-.09.32a.26.25-81 00.23.33l15.8.31H0v-1.06z"/><path fill="#959799" d="M31.44 591H16.69q7.37-.63 14.75 0zM113.44 591h-6.75q3.37-.63 6.75 0zM118.44 591h-4.75q2.37-.63 4.75 0zM207.44 591h-5.5q2.75-.63 5.5 0zM214.19 591h-5.5q2.75-.63 5.5 0zM224.44 591h-6.75q3.37-.63 6.75 0zM232.19 591h-6.25q3.12-.63 6.25 0zM272.44 591h-6.5q3.25-.63 6.5 0zM278.44 591h-4.5q2.25-.63 4.5 0zM286.44 591h-4.25q2.12-.63 4.25 0zM302.44 591h-4.5q2.25-.63 4.5 0zM360.44 591h-5.5q2.75-.63 5.5 0zM369.44 591h-6.5q3.25-.63 6.5 0zM374.44 591h-4.75q2.37-.63 4.75 0zM487.44 591h-5.5q2.75-.63 5.5 0zM494.44 591h-4.75q2.37-.63 4.75 0zM568.44 591h-6.75q3.37-.63 6.75 0zM588.19 591h-9.25q4.62-.63 9.25 0z"/></svg>