<svg xmlns="http://www.w3.org/2000/svg" viewBox="0 0 591 591"><g stroke-width="2" fill="none"><path stroke="#0f0e0e" vector-effect="non-scaling-stroke" d="M590.06 0l.19.29"/><path stroke="#7d7f70" vector-effect="non-scaling-stroke" d="M590.25.29V589.8a.46.45 0 01-.46.45L.63 590.24q-.65 0-.21.48l.27.28"/><path stroke="#7d7f70" vector-effect="non-scaling-stroke" d="M586.25 4.51a.26.26 0 00-.26-.26H4.51a.26.26 0 00-.26.26v581.48a.26.26 0 00.26.26h581.48a.26.26 0 00.26-.26V4.51"/><path stroke="#8c8d7e" vector-effect="non-scaling-stroke" d="M590.69 591V.49a.19.19 0 00-.18-.19l-.26-.01M576.44 591q-2.75-.63-5.5 0M13.19 591q-6-.63-12 0"/><path stroke="#fbf2c7" vector-effect="non-scaling-stroke" d="M46.03 23.04c-9.75 0-22.76 4.85-23.06 16.21q-.62 23.9-.09 47.73a.78.77-21.3 001.29.56q6.65-5.83 12.84-12.02 24.87-24.9 49.45-50.66a1.16 1.16 0 00-.85-1.97q-19.43.15-39.58.15"/><path stroke="#c9ccbe" vector-effect="non-scaling-stroke" d="M372.189 89.52a.76.58 108.5 00.791-.536.76.58 108.5 00-.309-.905.76.58 108.5 00-.791.537.76.58 108.5 00.309.905M461.16 164.95c.8-4.2 2.34-8.58 2.05-12.71-1.87-27.37-29.31-42.29-54.2-42.65-2.8-.04-10.5.65-12.35-1.4q-10.89-12.09-27.42-12.96c-7.64-.41-15.58-.2-22.66 2.66q-10.58 4.28-18.96 12.23a.65.65 0 01-.79.07c-12-7.83-26.54-4.38-35.74 5.96a1.11 1.09-68.8 01-.82.37c-2.68-.04-5.96-.93-7.74-1.13-20.05-2.27-38.2 8.7-48.23 25.67-11.74 19.85-3.54 42.03 15.48 53.24a.71.71 0 01.34.74c-4.02 21.44 8.11 39.3 28.41 46.26a1.2 1.19-2.3 01.69.63c3.97 8.66 7.62 13.74 16.97 17.13 9.02 3.28 22.72 3.5 28.52-5.69a.99.98 34.1 011.42-.27q8.16 5.96 18.33 7.2c2.3.27 4.68 1.28 7.32 1.19a1.65 1.6 24.2 00.94-.34q.58-.44 1.04.1a.83.83 0 00.75.27q7.86-1.18 15.15-4.33a.88.87 49.3 01.83.07q4.67 3.01 8.97 6.53 2.63 2.15 11.85 6.65c11.54 5.62 26.44 4.47 38.37-.7 7.65-3.31 13.07-8.11 17.79-14.79q2.29-3.27 5.18-.47a1.11 1.07-24.5 00.85.3q1.4-.11 4.75-.02c10.1.26 24.69-4.54 28.93-14.77q3.64-8.78-2.48-17.62a.59.59 0 01.07-.76q8.58-8.42 12.46-14.66c12.27-19.69-18.06-42.39-35.67-41.54a.39.38 4.6 01-.4-.46M239.59 226.59c-13.31 8.96 1.86 16.4 3.56 7.46q.46-2.41.76-11.76.02-.51-.33-.13c-1.46 1.59-2.15 3.19-3.99 4.43M262.15 257.49c-7 6.49 6.4 12.65 7.13 3.42q.43-5.33.91-10.66.04-.5-.31-.15-3.81 3.75-7.73 7.39M217.38 274.59c-11.29 11.32 9.51 20.03 10.04 5.37q.32-8.73 1.74-17.2a.32.32 0 00-.55-.26q-5.42 6.25-11.23 12.09M323.09 295.36c2.24 3.55 5.82 3.16 9.18 1.71 2.61-1.12 3.5-4.1 3.52-6.58q.08-8.94 1.34-17.87a.26.26 0 00-.47-.19c-3.12 4.45-7.72 8.24-11.45 12.26-3.1 3.34-4.66 6.66-2.12 10.67M372.5 285.04c-7.91 8.27 7.1 13.21 6.71 2.08q-.17-4.85.94-9.64a.23.23 0 00-.39-.21q-3.6 3.94-7.26 7.77"/><path stroke="#8c8d7e" vector-effect="non-scaling-stroke" d="M268.25 306.21q-20.1 3.17-30.7 20.1a.59.58 27.1 01-.72.23c-14.49-6.09-33.92-6.1-48.87-1.09-32.01 10.74-64.89 30.61-90.96 40.09a1.81 1.8 76.5 00-1.18 1.94q1.42 10.68-3.58 20.23a1.47 1.45-86.6 01-.8.72l-6.91 2.58a.95.94 88.7 00-.56.59l-1.59 5.05a.95.95 0 00.12.84c31.48 45.41 62.1 91.43 92.94 137.28q2.44 3.63 4.69 7.43a1.15 1.14-8.5 00.74.54c2.24.48 3.91.54 6.06-.61q10.2-5.45 20.75-10.22c23.7-10.72 47.64-21.49 72.04-30.52q15.29-5.66 30.41-11.76 2.59-1.05 5.54-1.22 30.09-1.7 55.91-17.32c2.76-1.67 6.66-2.18 9.17-2.84 10.59-2.81 20.92-5.58 31.84-7.82 35.5-7.28 67.76-15.11 102.16-20.56a1.73 1.71 5.1 001.36-1.12l1.59-4.46a.69.68 30.5 00-.2-.75q-7.34-6.35-14.74-12.63c-4.03-3.42-5.95-17.31-6.41-22.46a.87.87 0 00-.48-.71q-2.32-1.19-5.92-3.7-37.79-26.37-70.15-54.09-7.54-6.46-13.98-10.77c-4.67-3.13-12.22-10.89-20.12-17.73a1.69 1.61 67.4 00-.86-.38q-12.16-1.45-24.41-1.55c-5.49-.04-11.28-.86-16.01-1.5q-32.73-4.41-43.66-5.07-10.64-.65-26.01 1.51"/><path stroke="#c9ccbe" vector-effect="non-scaling-stroke" d="M274.75 304.46q2.13-5.34 2.13-11.03c.01-5.52.5-8.99 1.42-13.67q.1-.49-.24-.12-3.23 3.53-6.13 7.36c-2.68 3.54-8.16 6.99-8.98 11.18q-.96 5.01 4.92 7.12a.6.59-80.3 01.39.56l-.01.35"/><path stroke="#5a5b5c" vector-effect="non-scaling-stroke" d="M274.75 304.46q-3.11 1.41-6.5 1.75"/><path stroke="#c9ccbe" vector-effect="non-scaling-stroke" d="M424.66 293.63c.85-2.09.44-4.23.9-6.11q.41-1.71.9-3.46a.45.45 0 00-.78-.41q-1.42 1.69-2.73 3.66c-3.73 5.59-13.85 10.48-10.8 17.38 2.54 5.76 10.14 5.55 11.98-.71q.8-2.7.5-5.56a1.83 1.77 57.2 01.2-1.01q.74-1.41-.09-2.81a1.11 1.09 40.9 01-.08-.97M308.92 301.58l.23.11a.67.67 0 00.88-.22c1.34-2 2.25-3.52 2.24-6.1q-.01-5.08.85-10.18.08-.48-.18-.07-2.31 3.62-5.6 6.15-3.03 2.32-3.6 3.46c-1.37 2.73.79 7.13 4.21 6.67a1.69 1.66 55 01.97.18M223.79 316.52c.8 2.95 5.1 2.85 6.71 1.4 2.07-1.88 2.01-11.81 2.25-14.87q.03-.5-.29-.12c-3.3 3.95-10.28 7.64-8.67 13.59M331.5 251.46q-1.19-.11-1.27.98a.79.79 0 00.5.79q1.09.43 2.24.2a1.08 1.07-34.1 01.78.15l4.91 3.18a.8.8 0 00.96-.06q1.31-1.1 2.11.47a.63.62 62.4 00.85.27l.86-.46a1.31 1.27-53.9 01.82-.14q5.47.91 9.57-.27 1-.29 1.45.32a.68.67 62.6 00.75.24c.84-.26.96-1.43-.03-1.84"/><path stroke="#5a5b5c" vector-effect="non-scaling-stroke" d="M356 255.29l8.19-2.23a.51.51 0 00.27-.81l-4.21-5.45q-.37-.48.16-.19 7.59 4.23 14.92 8.81c3.84 2.4 8.6 4.38 12.71 7.08"/><path stroke="#c9ccbe" vector-effect="non-scaling-stroke" d="M388.04 262.5l-.15.23a.37.36-50.5 00.04.46q3.34 3.27 7.86 2.72"/><path stroke="#5a5b5c" vector-effect="non-scaling-stroke" d="M395.79 265.91c12.7 2.2 29.4.5 39.42-8.36q4.7-4.16 7.83-9.8"/><path stroke="#c9ccbe" vector-effect="non-scaling-stroke" d="M443.04 247.75l.45.09a.49.49 0 00.58-.34l.72-2.5"/><path stroke="#5a5b5c" vector-effect="non-scaling-stroke" d="M444.79 245q16.44 6.14 30.59-2.91c11.23-7.19 1.07-21.61-5.22-28.06a.46.46 0 01.53-.74l8.92 4.23a.93.92 35.2 001.05-.18c4.89-4.82 13.65-16.3 12.15-23.61-2.85-13.91-19.02-25.72-33.04-24.69a1.38 1.38 0 00-1.21.92c-2.07 5.93-10.2 10.57-15.39 13.69q-.43.26-.12-.14c9.96-12.73 18.65-28.6 11.44-44.08-6.88-14.77-25.22-23.06-40.31-25.68-4.15-.72-9.21-.78-13.79-1.15a.34.34 0 00-.3.54q6.69 8.84 4.36 19.94a.53.52-46.7 01-1.02.03q-1.84-6.68-4.33-12.69c-9.49-22.9-42.75-24.06-60.03-11.72-7.79 5.57-15.08 13.1-16.11 22.53-1.64 15.16 9.68 27.09 21.59 34.94a.22.22 0 01-.17.4q-15.23-3.44-23.51-16.41c-6.48-10.15-5.45-25.29 1.65-34.75a.69.69 0 00.01-.81q-.94-1.3-3.04-1.85c-17.2-4.45-22.23 6.52-35.27 13.23q-.86.44-.4-.4l2.36-4.29a1.06 1.06 0 00-.32-1.37c-1.33-.93-3.45-.62-4.54-.78-17.24-2.5-28.99 5.42-39.47 18.7-14.41 18.26-8.45 37.64 8.71 50.74a1.55 1.55 0 002.28-.45l5.52-9.38q.3-.49.21.07c-2.66 18.47-7.84 34.26 7.7 49.16 12.86 12.32 35.34 11.37 51.43 10.4a.59.59 0 01.2 1.15q-15.33 4.62-31.33 3.55a.38.38 0 00-.35.58c3.62 5.88 8.93 10.96 16.05 11.9 5.17.68 11.27.44 15.31-3.24 1.79-1.63 2.96-4.23 4.36-6.41a.5.49-57.1 01.68-.15l8.88 5.7"/><path stroke="#8c8d7e" vector-effect="non-scaling-stroke" d="M444.79 245l-5.13-3.27a.05.05 0 00-.08.03l-.1.29a.56.56 0 00.16.61q2.39 2.12 3.4 5.09M395.79 265.91l-7.75-3.41M356 255.29c-10.13.95-15.34.22-24.5-3.83"/><path stroke="#5a5b5c" vector-effect="non-scaling-stroke" d="M337 424.79q-.53 2.22-2.27 3.59a.77.75-49.8 01-.84.08l-4.64-2.5"/><path stroke="#8e8e8e" vector-effect="non-scaling-stroke" d="M329.25 425.96c-29.68-28.58-58.15-58.52-87.33-87.63-3.77-3.77-8.01-6.8-13.51-8.05-21.05-4.76-40.61-.3-60.35 9.27q-30.87 14.96-62.06 29.24"/><path stroke="#5a5b5c" vector-effect="non-scaling-stroke" d="M106 368.79l-2.46.96"/><path stroke="#0f0e0e" vector-effect="non-scaling-stroke" d="M103.54 369.75c-2.42-2.87-2.51 5.16-2.56 6.01-.04.51-2.33 11.7-4.06 12.91a1.18 1.16-6.3 00-.4.49l-2.86 7.04a.87.87 0 00.11.84q7.45 9.97 12.88 18.79c3.36 5.47 7.74 10.93 10.65 15.31 7.39 11.1 14.91 22.09 22.07 33.26q2.78 4.35 7.13 9.97c6.15 7.94 10.09 15.81 15.88 23.26 6.27 8.06 13.2 16.05 18.62 24.68.67 1.06 5.17 8.5 6.79 5.69"/><path stroke="#8e8e8e" vector-effect="non-scaling-stroke" d="M187.79 528l.37.9a.57.57 0 00.69.33q.2-.06.4-.27"/><path stroke="#5a5b5c" vector-effect="non-scaling-stroke" d="M189.25 528.96q1.58-.04 1.96-.24c18.02-9.74 33.84-18.03 51.67-25.45q36.05-15 73.35-26.62a.85.85 0 00.59-.63c2.54-10.5 9.37-22.85 20.45-26.9 9.95-3.64 20.92 3.42 26.68 11.33a.74.74 0 00.81.27l6.53-1.97"/><path stroke="#8c8d7e" vector-effect="non-scaling-stroke" d="M371.29 458.75l14.95-3.85"/><path stroke="#5a5b5c" vector-effect="non-scaling-stroke" d="M386.24 454.9q2.25.21 4.24-1.04"/><path stroke="#8c8d7e" vector-effect="non-scaling-stroke" d="M390.48 453.86l51.27-11.15"/><path stroke="#5a5b5c" vector-effect="non-scaling-stroke" d="M441.75 442.71l13-2.67"/><path stroke="#8c8d7e" vector-effect="non-scaling-stroke" d="M454.75 440.04l19.48-4.37"/><path stroke="#5a5b5c" vector-effect="non-scaling-stroke" d="M474.23 435.67q7.66-.44 15.02-2.88"/><path stroke="#8c8d7e" vector-effect="non-scaling-stroke" d="M489.25 432.79l10.5-2.02a.59.58-7.7 00.48-.62q-.04-.73-.73-1.19"/><path stroke="#5a5b5c" vector-effect="non-scaling-stroke" d="M499.5 428.96c-4.95-8.55-7.03-16.12-8.98-25.71-.3-1.47-1.31-2.38-2.52-3.04"/><path stroke="#8e8e8e" vector-effect="non-scaling-stroke" d="M488 400.21q-37.36-26.22-72.26-55.61c-9.23-7.77-21.85-17.4-32.17-26.95a1.65 1.59-17.8 00-.86-.42c-8.72-1.28-17.89-1.13-26.94-1.95"/><path stroke="#5a5b5c" vector-effect="non-scaling-stroke" d="M355.77 315.28q-1-2.62 1.11-4.24.47-.36-.12-.46l-.43-.08a.95.92 24.6 00-.87.31l-3.52 4.17"/><path stroke="#8e8e8e" vector-effect="non-scaling-stroke" d="M351.94 314.98c-8.02-.4-16.72-2.09-23.61-2.74-9.84-.92-20.36-2.59-29.48-2.73-17.7-.27-37.15 1.27-51.44 12.89q-2.68 2.18-3.87 7.36a1.65 1.6-50.1 00.07.95q.49 1.19 1.12 1.81c31.02 30.45 60.58 62.57 92.27 92.27"/><path stroke="#cbcdce" vector-effect="non-scaling-stroke" d="M351.94 314.98q-3.18 2.38-4.79 5.88c-1.03 2.25-.02 4.15 1.72 5.55a1.48 1.47-25 00.89.32q4.5.15 5.33-3.88.35-1.69.68-7.57M488 400.21c-2.19.71-4.17 1.75-6.42 2.08-21.89 3.25-44.31 3.91-66.39 5.36-25.1 1.65-57.21-2.51-76.9 16.64-.36.35-.82.48-1.29.5"/><path stroke="#c9ccbe" vector-effect="non-scaling-stroke" d="M499.5 428.96q-4.2 1.91-8.82 2.4-1.54.16-1.43 1.43M474.23 435.67q-10.6.46-18.67 2.89-.97.29-.81 1.48M441.75 442.71l.49-.67q.79-1.09-.51-.73-10.21 2.77-20.69 4.21c-2.05.28-3.71 1.58-5.88 1.97-5.56 1-10.87 2.42-16.84 3.34q-4.06.62-7.84 3.03M386.24 454.9q-7.77.18-14.49 2.6-.81.29-.46 1.25"/><path stroke="#cbcdce" vector-effect="non-scaling-stroke" d="M189.25 528.96l-1.9-4.11a1.17 1.14 44.4 01-.02-.9c2.43-5.98 11.32-24.67 7.02-30.29q-23.01-30.15-46.92-59.6c-10.6-13.06-23.32-32.22-38.02-51.79q-3.24-4.31-6.35-8.71"/><path stroke="#4c4d4e" vector-effect="non-scaling-stroke" d="M103.06 373.56q-.92-1.94.48-3.81"/><path stroke="gray" vector-effect="non-scaling-stroke" d="M103.06 373.56q-2.03 11.96-7.69 21.87a1.13 1.13 0 00.08 1.23c9.08 12.05 16.77 24.42 25.75 37.02q4.3 6.04 9.04 13.53c8.91 14.06 18.89 27.7 28.57 41.99 8.98 13.24 19.76 25.47 28.98 38.8"/><path stroke="#cbcdce" vector-effect="non-scaling-stroke" d="M329.25 425.96q-16.16-4.98-32.2 1.35c-36.37 14.36-66.24 38.31-97.42 60.97a.55.55 0 01-.74-.08c-14.49-16.7-25.67-31.6-42.83-53.2-13.37-16.83-25.78-34.54-38.27-52.03q-3.88-5.43-11.79-14.18M270.13 331.71c-10.47 10.16 11.19 20.98 11.28 2.28q.04-7.49 1.22-14.96.08-.51-.32-.19-1.38 1.1-2.48 2.48c-3 3.78-6.26 7.04-9.7 10.39M370.64 332.16c-1.05 6.72 7.71 8.78 8.77 1.71q.5-3.36.83-11.75.03-.74-.38-.13-3.67 5.36-8.74 9.35a1.31 1.27 76.2 00-.48.82M309.7 348.79c6.13 4.63 11.03-.78 10.99-7.05q-.03-3.65 1.55-15.77.06-.49-.28-.14-5.78 5.89-11.62 11.61c-3.79 3.71-5.54 7.64-.64 11.35M385.01 363.44c1.49 1.55 2.36 2.57 4.49 2.22 5.57-.9 7.23-4.25 7.21-9.76q-.02-7.72 1.19-15.42a.29.29 0 00-.52-.23q-4.61 5.89-9.96 10.97c-3.98 3.78-6.85 7.57-2.41 12.22M352.28 354.29c.95 4.02 6.82 3.93 8.34 1q.6-1.16.4-5.12-.2-4.13 1.17-8.05a.38.38 0 00-.64-.37q-2.34 2.57-4.82 5.03c-2.46 2.43-5.66 2.43-4.45 7.51M291.78 361.77c-3.21 5.56 3.07 9.87 7.13 5.25a1.48 1.45-24.6 00.35-.92q.03-6.34 1.07-12.59.1-.65-.38-.21-6.84 6.16-8.17 8.47M328.34 369.4c.88 5.02 8.95 5.18 8.92.6q-.03-5.81 1.22-12.49.07-.37-.14-.52a.4.4 0 00-.59.18q-1.16 2.94-3.34 5.13c-2.16 2.19-6.82 2.8-6.07 7.1M223.1 381.71c2.69 4.22 8.61 4.14 11.18-.06q1.16-1.9 1.19-5.74.07-8.72 1.49-17.37.08-.49-.24-.11c-2.85 3.36-4.91 6.75-8.21 9.75-3.82 3.45-9.12 7.71-5.41 13.53"/></g><path d="M0 0h590.06l.19.29V589.8a.46.45 0 01-.46.45L.63 590.24q-.65 0-.21.48l.27.28H0V0zm586.25 4.51a.26.26 0 00-.26-.26H4.51a.26.26 0 00-.26.26v581.48a.26.26 0 00.26.26h581.48a.26.26 0 00.26-.26V4.51z"/><path fill="#1d1c1c" d="M590.06 0h.94v591h-.31V.49a.19.19 0 00-.18-.19l-.26-.01-.19-.29z"/><path fill="#fafde0" d="M590.25.29l.26.01a.19.19 0 01.18.19V591h-14.25q-2.75-.63-5.5 0H13.19q-6-.63-12 0h-.5l-.27-.28q-.44-.48.21-.48l589.16.01a.46.45 0 00.46-.45V.29z"/><path fill="#fafde0" d="M586.25 585.99a.26.26 0 01-.26.26H4.51a.26.26 0 01-.26-.26V4.51a.26.26 0 01.26-.26h581.48a.26.26 0 01.26.26v581.48zM46.03 23.04c-9.75 0-22.76 4.85-23.06 16.21q-.62 23.9-.09 47.73a.78.77-21.3 001.29.56q6.65-5.83 12.84-12.02 24.87-24.9 49.45-50.66a1.16 1.16 0 00-.85-1.97q-19.43.15-39.58.15zm326.159 66.48a.76.58 108.5 00.791-.536.76.58 108.5 00-.309-.905.76.58 108.5 00-.791.537.76.58 108.5 00.309.905zm88.971 75.43c.8-4.2 2.34-8.58 2.05-12.71-1.87-27.37-29.31-42.29-54.2-42.65-2.8-.04-10.5.65-12.35-1.4q-10.89-12.09-27.42-12.96c-7.64-.41-15.58-.2-22.66 2.66q-10.58 4.28-18.96 12.23a.65.65 0 01-.79.07c-12-7.83-26.54-4.38-35.74 5.96a1.11 1.09-68.8 01-.82.37c-2.68-.04-5.96-.93-7.74-1.13-20.05-2.27-38.2 8.7-48.23 25.67-11.74 19.85-3.54 42.03 15.48 53.24a.71.71 0 01.34.74c-4.02 21.44 8.11 39.3 28.41 46.26a1.2 1.19-2.3 01.69.63c3.97 8.66 7.62 13.74 16.97 17.13 9.02 3.28 22.72 3.5 28.52-5.69a.99.98 34.1 011.42-.27q8.16 5.96 18.33 7.2c2.3.27 4.68 1.28 7.32 1.19a1.65 1.6 24.2 00.94-.34q.58-.44 1.04.1a.83.83 0 00.75.27q7.86-1.18 15.15-4.33a.88.87 49.3 01.83.07q4.67 3.01 8.97 6.53 2.63 2.15 11.85 6.65c11.54 5.62 26.44 4.47 38.37-.7 7.65-3.31 13.07-8.11 17.79-14.79q2.29-3.27 5.18-.47a1.11 1.07-24.5 00.85.3q1.4-.11 4.75-.02c10.1.26 24.69-4.54 28.93-14.77q3.64-8.78-2.48-17.62a.59.59 0 01.07-.76q8.58-8.42 12.46-14.66c12.27-19.69-18.06-42.39-35.67-41.54a.39.38 4.6 01-.4-.46zm-221.57 61.64c-13.31 8.96 1.86 16.4 3.56 7.46q.46-2.41.76-11.76.02-.51-.33-.13c-1.46 1.59-2.15 3.19-3.99 4.43zm22.56 30.9c-7 6.49 6.4 12.65 7.13 3.42q.43-5.33.91-10.66.04-.5-.31-.15-3.81 3.75-7.73 7.39zm-44.77 17.1c-11.29 11.32 9.51 20.03 10.04 5.37q.32-8.73 1.74-17.2a.32.32 0 00-.55-.26q-5.42 6.25-11.23 12.09zm105.71 20.77c2.24 3.55 5.82 3.16 9.18 1.71 2.61-1.12 3.5-4.1 3.52-6.58q.08-8.94 1.34-17.87a.26.26 0 00-.47-.19c-3.12 4.45-7.72 8.24-11.45 12.26-3.1 3.34-4.66 6.66-2.12 10.67zm49.41-10.32c-7.91 8.27 7.1 13.21 6.71 2.08q-.17-4.85.94-9.64a.23.23 0 00-.39-.21q-3.6 3.94-7.26 7.77zm-104.25 21.17q-20.1 3.17-30.7 20.1a.59.58 27.1 01-.72.23c-14.49-6.09-33.92-6.1-48.87-1.09-32.01 10.74-64.89 30.61-90.96 40.09a1.81 1.8 76.5 00-1.18 1.94q1.42 10.68-3.58 20.23a1.47 1.45-86.6 01-.8.72l-6.91 2.58a.95.94 88.7 00-.56.59l-1.59 5.05a.95.95 0 00.12.84c31.48 45.41 62.1 91.43 92.94 137.28q2.44 3.63 4.69 7.43a1.15 1.14-8.5 00.74.54c2.24.48 3.91.54 6.06-.61q10.2-5.45 20.75-10.22c23.7-10.72 47.64-21.49 72.04-30.52q15.29-5.66 30.41-11.76 2.59-1.05 5.54-1.22 30.09-1.7 55.91-17.32c2.76-1.67 6.66-2.18 9.17-2.84 10.59-2.81 20.92-5.58 31.84-7.82 35.5-7.28 67.76-15.11 102.16-20.56a1.73 1.71 5.1 001.36-1.12l1.59-4.46a.69.68 30.5 00-.2-.75q-7.34-6.35-14.74-12.63c-4.03-3.42-5.95-17.31-6.41-22.46a.87.87 0 00-.48-.71q-2.32-1.19-5.92-3.7-37.79-26.37-70.15-54.09-7.54-6.46-13.98-10.77c-4.67-3.13-12.22-10.89-20.12-17.73a1.69 1.61 67.4 00-.86-.38q-12.16-1.45-24.41-1.55c-5.49-.04-11.28-.86-16.01-1.5q-32.73-4.41-43.66-5.07-10.64-.65-26.01 1.51 2.13-5.34 2.13-11.03c.01-5.52.5-8.99 1.42-13.67q.1-.49-.24-.12-3.23 3.53-6.13 7.36c-2.68 3.54-8.16 6.99-8.98 11.18q-.96 5.01 4.92 7.12a.6.59-80.3 01.39.56l-.01.35zm156.41-12.58c.85-2.09.44-4.23.9-6.11q.41-1.71.9-3.46a.45.45 0 00-.78-.41q-1.42 1.69-2.73 3.66c-3.73 5.59-13.85 10.48-10.8 17.38 2.54 5.76 10.14 5.55 11.98-.71q.8-2.7.5-5.56a1.83 1.77 57.2 01.2-1.01q.74-1.41-.09-2.81a1.11 1.09 40.9 01-.08-.97zm-115.74 7.95l.23.11a.67.67 0 00.88-.22c1.34-2 2.25-3.52 2.24-6.1q-.01-5.08.85-10.18.08-.48-.18-.07-2.31 3.62-5.6 6.15-3.03 2.32-3.6 3.46c-1.37 2.73.79 7.13 4.21 6.67a1.69 1.66 55 01.97.18zm-85.13 14.94c.8 2.95 5.1 2.85 6.71 1.4 2.07-1.88 2.01-11.81 2.25-14.87q.03-.5-.29-.12c-3.3 3.95-10.28 7.64-8.67 13.59z"/><path fill="#fbe6ad" d="M22.97 39.25c.3-11.36 13.31-16.21 23.06-16.21q20.15 0 39.58-.15a1.16 1.16 0 01.85 1.97Q61.88 50.62 37.01 75.52q-6.19 6.19-12.84 12.02a.78.77-21.3 01-1.29-.56q-.53-23.83.09-47.73z"/><ellipse fill="#979a9c" transform="rotate(108.5 154.252 178.456)" rx=".76" ry=".58"/><path fill="#979a9c" d="M461.56 165.41c17.61-.85 47.94 21.85 35.67 41.54q-3.88 6.24-12.46 14.66a.59.59 0 00-.07.76q6.12 8.84 2.48 17.62c-4.24 10.23-18.83 15.03-28.93 14.77q-3.35-.09-4.75.02a1.11 1.07-24.5 01-.85-.3q-2.89-2.8-5.18.47c-4.72 6.68-10.14 11.48-17.79 14.79-11.93 5.17-26.83 6.32-38.37.7q-9.22-4.5-11.85-6.65-4.3-3.52-8.97-6.53a.88.87 49.3 00-.83-.07q-7.29 3.15-15.15 4.33a.83.83 0 01-.75-.27q-.46-.54-1.04-.1a1.65 1.6 24.2 01-.94.34c-2.64.09-5.02-.92-7.32-1.19q-10.17-1.24-18.33-7.2a.99.98 34.1 00-1.42.27c-5.8 9.19-19.5 8.97-28.52 5.69-9.35-3.39-13-8.47-16.97-17.13a1.2 1.19-2.3 00-.69-.63c-20.3-6.96-32.43-24.82-28.41-46.26a.71.71 0 00-.34-.74c-19.02-11.21-27.22-33.39-15.48-53.24 10.03-16.97 28.18-27.94 48.23-25.67 1.78.2 5.06 1.09 7.74 1.13a1.11 1.09-68.8 00.82-.37c9.2-10.34 23.74-13.79 35.74-5.96a.65.65 0 00.79-.07q8.38-7.95 18.96-12.23c7.08-2.86 15.02-3.07 22.66-2.66q16.53.87 27.42 12.96c1.85 2.05 9.55 1.36 12.35 1.4 24.89.36 52.33 15.28 54.2 42.65.29 4.13-1.25 8.51-2.05 12.71a.39.38 4.6 00.4.46zM331.5 251.46q-1.19-.11-1.27.98a.79.79 0 00.5.79q1.09.43 2.24.2a1.08 1.07-34.1 01.78.15l4.91 3.18a.8.8 0 00.96-.06q1.31-1.1 2.11.47a.63.62 62.4 00.85.27l.86-.46a1.31 1.27-53.9 01.82-.14q5.47.91 9.57-.27 1-.29 1.45.32a.68.67 62.6 00.75.24c.84-.26.96-1.43-.03-1.84l8.19-2.23a.51.51 0 00.27-.81l-4.21-5.45q-.37-.48.16-.19 7.59 4.23 14.92 8.81c3.84 2.4 8.6 4.38 12.71 7.08l-.15.23a.37.36-50.5 00.04.46q3.34 3.27 7.86 2.72c12.7 2.2 29.4.5 39.42-8.36q4.7-4.16 7.83-9.8l.45.09a.49.49 0 00.58-.34l.72-2.5q16.44 6.14 30.59-2.91c11.23-7.19 1.07-21.61-5.22-28.06a.46.46 0 01.53-.74l8.92 4.23a.93.92 35.2 001.05-.18c4.89-4.82 13.65-16.3 12.15-23.61-2.85-13.91-19.02-25.72-33.04-24.69a1.38 1.38 0 00-1.21.92c-2.07 5.93-10.2 10.57-15.39 13.69q-.43.26-.12-.14c9.96-12.73 18.65-28.6 11.44-44.08-6.88-14.77-25.22-23.06-40.31-25.68-4.15-.72-9.21-.78-13.79-1.15a.34.34 0 00-.3.54q6.69 8.84 4.36 19.94a.53.52-46.7 01-1.02.03q-1.84-6.68-4.33-12.69c-9.49-22.9-42.75-24.06-60.03-11.72-7.79 5.57-15.08 13.1-16.11 22.53-1.64 15.16 9.68 27.09 21.59 34.94a.22.22 0 01-.17.4q-15.23-3.44-23.51-16.41c-6.48-10.15-5.45-25.29 1.65-34.75a.69.69 0 00.01-.81q-.94-1.3-3.04-1.85c-17.2-4.45-22.23 6.52-35.27 13.23q-.86.44-.4-.4l2.36-4.29a1.06 1.06 0 00-.32-1.37c-1.33-.93-3.45-.62-4.54-.78-17.24-2.5-28.99 5.42-39.47 18.7-14.41 18.26-8.45 37.64 8.71 50.74a1.55 1.55 0 002.28-.45l5.52-9.38q.3-.49.21.07c-2.66 18.47-7.84 34.26 7.7 49.16 12.86 12.32 35.34 11.37 51.43 10.4a.59.59 0 01.2 1.15q-15.33 4.62-31.33 3.55a.38.38 0 00-.35.58c3.62 5.88 8.93 10.96 16.05 11.9 5.17.68 11.27.44 15.31-3.24 1.79-1.63 2.96-4.23 4.36-6.41a.5.49-57.1 01.68-.15l8.88 5.7z"/><path fill="#1d1c1c" d="M444.79 245l-5.13-3.27a.05.05 0 00-.08.03l-.1.29a.56.56 0 00.16.61q2.39 2.12 3.4 5.09-3.13 5.64-7.83 9.8c-10.02 8.86-26.72 10.56-39.42 8.36l-7.75-3.41c-4.11-2.7-8.87-4.68-12.71-7.08q-7.33-4.58-14.92-8.81-.53-.29-.16.19l4.21 5.45a.51.51 0 01-.27.81l-8.19 2.23c-10.13.95-15.34.22-24.5-3.83l-8.88-5.7a.5.49-57.1 00-.68.15c-1.4 2.18-2.57 4.78-4.36 6.41-4.04 3.68-10.14 3.92-15.31 3.24-7.12-.94-12.43-6.02-16.05-11.9a.38.38 0 01.35-.58q16 1.07 31.33-3.55a.59.59 0 00-.2-1.15c-16.09.97-38.57 1.92-51.43-10.4-15.54-14.9-10.36-30.69-7.7-49.16q.09-.56-.21-.07l-5.52 9.38a1.55 1.55 0 01-2.28.45c-17.16-13.1-23.12-32.48-8.71-50.74 10.48-13.28 22.23-21.2 39.47-18.7 1.09.16 3.21-.15 4.54.78a1.06 1.06 0 01.32 1.37l-2.36 4.29q-.46.84.4.4c13.04-6.71 18.07-17.68 35.27-13.23q2.1.55 3.04 1.85a.69.69 0 01-.01.81c-7.1 9.46-8.13 24.6-1.65 34.75q8.28 12.97 23.51 16.41a.22.22 0 00.17-.4c-11.91-7.85-23.23-19.78-21.59-34.94 1.03-9.43 8.32-16.96 16.11-22.53 17.28-12.34 50.54-11.18 60.03 11.72q2.49 6.01 4.33 12.69a.53.52-46.7 001.02-.03q2.33-11.1-4.36-19.94a.34.34 0 01.3-.54c4.58.37 9.64.43 13.79 1.15 15.09 2.62 33.43 10.91 40.31 25.68 7.21 15.48-1.48 31.35-11.44 44.08q-.31.4.12.14c5.19-3.12 13.32-7.76 15.39-13.69a1.38 1.38 0 011.21-.92c14.02-1.03 30.19 10.78 33.04 24.69 1.5 7.31-7.26 18.79-12.15 23.61a.93.92 35.2 01-1.05.18l-8.92-4.23a.46.46 0 00-.53.74c6.29 6.45 16.45 20.87 5.22 28.06q-14.15 9.05-30.59 2.91z"/><path fill="#979a9c" d="M243.15 234.05c-1.7 8.94-16.87 1.5-3.56-7.46 1.84-1.24 2.53-2.84 3.99-4.43q.35-.38.33.13-.3 9.35-.76 11.76z"/><path fill="#fafde0" d="M444.79 245l-.72 2.5a.49.49 0 01-.58.34l-.45-.09q-1.01-2.97-3.4-5.09a.56.56 0 01-.16-.61l.1-.29a.05.05 0 01.08-.03l5.13 3.27z"/><path fill="#979a9c" d="M269.28 260.91c-.73 9.23-14.13 3.07-7.13-3.42q3.92-3.64 7.73-7.39.35-.35.31.15-.48 5.33-.91 10.66z"/><path fill="#fafde0" d="M331.5 251.46c9.16 4.05 14.37 4.78 24.5 3.83.99.41.87 1.58.03 1.84a.68.67 62.6 01-.75-.24q-.45-.61-1.45-.32-4.1 1.18-9.57.27a1.31 1.27-53.9 00-.82.14l-.86.46a.63.62 62.4 01-.85-.27q-.8-1.57-2.11-.47a.8.8 0 01-.96.06l-4.91-3.18a1.08 1.07-34.1 00-.78-.15q-1.15.23-2.24-.2a.79.79 0 01-.5-.79q.08-1.09 1.27-.98z"/><path fill="#979a9c" d="M227.42 279.96c-.53 14.66-21.33 5.95-10.04-5.37q5.81-5.84 11.23-12.09a.32.32 0 01.55.26q-1.42 8.47-1.74 17.2z"/><path fill="#fafde0" d="M388.04 262.5l7.75 3.41q-4.52.55-7.86-2.72a.37.36-50.5 01-.04-.46l.15-.23z"/><path fill="#979a9c" d="M323.09 295.36c-2.54-4.01-.98-7.33 2.12-10.67 3.73-4.02 8.33-7.81 11.45-12.26a.26.26 0 01.47.19q-1.26 8.93-1.34 17.87c-.02 2.48-.91 5.46-3.52 6.58-3.36 1.45-6.94 1.84-9.18-1.71zM379.21 287.12c.39 11.13-14.62 6.19-6.71-2.08q3.66-3.83 7.26-7.77a.23.23 0 01.39.21q-1.11 4.79-.94 9.64zM274.75 304.46q-3.11 1.41-6.5 1.75l.01-.35a.6.59-80.3 00-.39-.56q-5.88-2.11-4.92-7.12c.82-4.19 6.3-7.64 8.98-11.18q2.9-3.83 6.13-7.36.34-.37.24.12c-.92 4.68-1.41 8.15-1.42 13.67q0 5.69-2.13 11.03zM424.74 294.6q.83 1.4.09 2.81a1.83 1.77 57.2 00-.2 1.01q.3 2.86-.5 5.56c-1.84 6.26-9.44 6.47-11.98.71-3.05-6.9 7.07-11.79 10.8-17.38q1.31-1.97 2.73-3.66a.45.45 0 01.78.41q-.49 1.75-.9 3.46c-.46 1.88-.05 4.02-.9 6.11a1.11 1.09 40.9 00.08.97zM307.95 301.4c-3.42.46-5.58-3.94-4.21-6.67q.57-1.14 3.6-3.46 3.29-2.53 5.6-6.15.26-.41.18.07-.86 5.1-.85 10.18c.01 2.58-.9 4.1-2.24 6.1a.67.67 0 01-.88.22l-.23-.11a1.69 1.66 55 00-.97-.18zM230.5 317.92c-1.61 1.45-5.91 1.55-6.71-1.4-1.61-5.95 5.37-9.64 8.67-13.59q.32-.38.29.12c-.24 3.06-.18 12.99-2.25 14.87z"/><path fill="#1d1c1c" d="M268.25 306.21q3.39-.34 6.5-1.75 15.37-2.16 26.01-1.51 10.93.66 43.66 5.07c4.73.64 10.52 1.46 16.01 1.5q12.25.1 24.41 1.55a1.69 1.61 67.4 01.86.38c7.9 6.84 15.45 14.6 20.12 17.73q6.44 4.31 13.98 10.77 32.36 27.72 70.15 54.09 3.6 2.51 5.92 3.7a.87.87 0 01.48.71c.46 5.15 2.38 19.04 6.41 22.46q7.4 6.28 14.74 12.63a.69.68 30.5 01.2.75l-1.59 4.46a1.73 1.71 5.1 01-1.36 1.12c-34.4 5.45-66.66 13.28-102.16 20.56-10.92 2.24-21.25 5.01-31.84 7.82-2.51.66-6.41 1.17-9.17 2.84q-25.82 15.62-55.91 17.32-2.95.17-5.54 1.22-15.12 6.1-30.41 11.76c-24.4 9.03-48.34 19.8-72.04 30.52q-10.55 4.77-20.75 10.22c-2.15 1.15-3.82 1.09-6.06.61a1.15 1.14-8.5 01-.74-.54q-2.25-3.8-4.69-7.43c-30.84-45.85-61.46-91.87-92.94-137.28a.95.95 0 01-.12-.84l1.59-5.05a.95.94 88.7 01.56-.59l6.91-2.58a1.47 1.45-86.6 00.8-.72q5-9.55 3.58-20.23a1.81 1.8 76.5 011.18-1.94c26.07-9.48 58.95-29.35 90.96-40.09 14.95-5.01 34.38-5 48.87 1.09a.59.58 27.1 00.72-.23q10.6-16.93 30.7-20.1zM337 424.79q-.53 2.22-2.27 3.59a.77.75-49.8 01-.84.08l-4.64-2.5c-29.68-28.58-58.15-58.52-87.33-87.63-3.77-3.77-8.01-6.8-13.51-8.05-21.05-4.76-40.61-.3-60.35 9.27q-30.87 14.96-62.06 29.24l-2.46.96c-2.42-2.87-2.51 5.16-2.56 6.01-.04.51-2.33 11.7-4.06 12.91a1.18 1.16-6.3 00-.4.49l-2.86 7.04a.87.87 0 00.11.84q7.45 9.97 12.88 18.79c3.36 5.47 7.74 10.93 10.65 15.31 7.39 11.1 14.91 22.09 22.07 33.26q2.78 4.35 7.13 9.97c6.15 7.94 10.09 15.81 15.88 23.26 6.27 8.06 13.2 16.05 18.62 24.68.67 1.06 5.17 8.5 6.79 5.69l.37.9a.57.57 0 00.69.33q.2-.06.4-.27 1.58-.04 1.96-.24c18.02-9.74 33.84-18.03 51.67-25.45q36.05-15 73.35-26.62a.85.85 0 00.59-.63c2.54-10.5 9.37-22.85 20.45-26.9 9.95-3.64 20.92 3.42 26.68 11.33a.74.74 0 00.81.27l6.53-1.97 14.95-3.85q2.25.21 4.24-1.04l51.27-11.15 13-2.67 19.48-4.37q7.66-.44 15.02-2.88l10.5-2.02a.59.58-7.7 00.48-.62q-.04-.73-.73-1.19c-4.95-8.55-7.03-16.12-8.98-25.71-.3-1.47-1.31-2.38-2.52-3.04q-37.36-26.22-72.26-55.61c-9.23-7.77-21.85-17.4-32.17-26.95a1.65 1.59-17.8 00-.86-.42c-8.72-1.28-17.89-1.13-26.94-1.95q-1-2.62 1.11-4.24.47-.36-.12-.46l-.43-.08a.95.92 24.6 00-.87.31l-3.52 4.17c-8.02-.4-16.72-2.09-23.61-2.74-9.84-.92-20.36-2.59-29.48-2.73-17.7-.27-37.15 1.27-51.44 12.89q-2.68 2.18-3.87 7.36a1.65 1.6-50.1 00.07.95q.49 1.19 1.12 1.81c31.02 30.45 60.58 62.57 92.27 92.27z"/><path fill="#fff" d="M351.94 314.98q-3.18 2.38-4.79 5.88c-1.03 2.25-.02 4.15 1.72 5.55a1.48 1.47-25 00.89.32q4.5.15 5.33-3.88.35-1.69.68-7.57c9.05.82 18.22.67 26.94 1.95a1.65 1.59-17.8 01.86.42c10.32 9.55 22.94 19.18 32.17 26.95q34.9 29.39 72.26 55.61c-2.19.71-4.17 1.75-6.42 2.08-21.89 3.25-44.31 3.91-66.39 5.36-25.1 1.65-57.21-2.51-76.9 16.64-.36.35-.82.48-1.29.5-31.69-29.7-61.25-61.82-92.27-92.27q-.63-.62-1.12-1.81a1.65 1.6-50.1 01-.07-.95q1.19-5.18 3.87-7.36c14.29-11.62 33.74-13.16 51.44-12.89 9.12.14 19.64 1.81 29.48 2.73 6.89.65 15.59 2.34 23.61 2.74zm-81.81 16.73c-10.47 10.16 11.19 20.98 11.28 2.28q.04-7.49 1.22-14.96.08-.51-.32-.19-1.38 1.1-2.48 2.48c-3 3.78-6.26 7.04-9.7 10.39zm100.51.45c-1.05 6.72 7.71 8.78 8.77 1.71q.5-3.36.83-11.75.03-.74-.38-.13-3.67 5.36-8.74 9.35a1.31 1.27 76.2 00-.48.82zm-60.94 16.63c6.13 4.63 11.03-.78 10.99-7.05q-.03-3.65 1.55-15.77.06-.49-.28-.14-5.78 5.89-11.62 11.61c-3.79 3.71-5.54 7.64-.64 11.35zm75.31 14.65c1.49 1.55 2.36 2.57 4.49 2.22 5.57-.9 7.23-4.25 7.21-9.76q-.02-7.72 1.19-15.42a.29.29 0 00-.52-.23q-4.61 5.89-9.96 10.97c-3.98 3.78-6.85 7.57-2.41 12.22zm-32.73-9.15c.95 4.02 6.82 3.93 8.34 1q.6-1.16.4-5.12-.2-4.13 1.17-8.05a.38.38 0 00-.64-.37q-2.34 2.57-4.82 5.03c-2.46 2.43-5.66 2.43-4.45 7.51zm-60.5 7.48c-3.21 5.56 3.07 9.87 7.13 5.25a1.48 1.45-24.6 00.35-.92q.03-6.34 1.07-12.59.1-.65-.38-.21-6.84 6.16-8.17 8.47zm36.56 7.63c.88 5.02 8.95 5.18 8.92.6q-.03-5.81 1.22-12.49.07-.37-.14-.52a.4.4 0 00-.59.18q-1.16 2.94-3.34 5.13c-2.16 2.19-6.82 2.8-6.07 7.1z"/><path fill="#979a9c" d="M355.77 315.28q-.33 5.88-.68 7.57-.83 4.03-5.33 3.88a1.48 1.47-25 01-.89-.32c-1.74-1.4-2.75-3.3-1.72-5.55q1.61-3.5 4.79-5.88l3.52-4.17a.95.92 24.6 01.87-.31l.43.08q.59.1.12.46-2.11 1.62-1.11 4.24zM281.41 333.99c-.09 18.7-21.75 7.88-11.28-2.28 3.44-3.35 6.7-6.61 9.7-10.39q1.1-1.38 2.48-2.48.4-.32.32.19-1.18 7.47-1.22 14.96zM379.41 333.87c-1.06 7.07-9.82 5.01-8.77-1.71a1.31 1.27 76.2 01.48-.82q5.07-3.99 8.74-9.35.41-.61.38.13-.33 8.39-.83 11.75zM309.7 348.79c-4.9-3.71-3.15-7.64.64-11.35q5.84-5.72 11.62-11.61.34-.35.28.14-1.58 12.12-1.55 15.77c.04 6.27-4.86 11.68-10.99 7.05z"/><path fill="#fff" d="M329.25 425.96q-16.16-4.98-32.2 1.35c-36.37 14.36-66.24 38.31-97.42 60.97a.55.55 0 01-.74-.08c-14.49-16.7-25.67-31.6-42.83-53.2-13.37-16.83-25.78-34.54-38.27-52.03q-3.88-5.43-11.79-14.18 31.19-14.28 62.06-29.24c19.74-9.57 39.3-14.03 60.35-9.27 5.5 1.25 9.74 4.28 13.51 8.05 29.18 29.11 57.65 59.05 87.33 87.63zM223.1 381.71c2.69 4.22 8.61 4.14 11.18-.06q1.16-1.9 1.19-5.74.07-8.72 1.49-17.37.08-.49-.24-.11c-2.85 3.36-4.91 6.75-8.21 9.75-3.82 3.45-9.12 7.71-5.41 13.53z"/><path fill="#979a9c" d="M385.01 363.44c-4.44-4.65-1.57-8.44 2.41-12.22q5.35-5.08 9.96-10.97a.29.29 0 01.52.23q-1.21 7.7-1.19 15.42c.02 5.51-1.64 8.86-7.21 9.76-2.13.35-3-.67-4.49-2.22zM360.62 355.29c-1.52 2.93-7.39 3.02-8.34-1-1.21-5.08 1.99-5.08 4.45-7.51q2.48-2.46 4.82-5.03a.38.38 0 01.64.37q-1.37 3.92-1.17 8.05.2 3.96-.4 5.12zM298.91 367.02c-4.06 4.62-10.34.31-7.13-5.25q1.33-2.31 8.17-8.47.48-.44.38.21-1.04 6.25-1.07 12.59a1.48 1.45-24.6 01-.35.92zM337.26 370c.03 4.58-8.04 4.42-8.92-.6-.75-4.3 3.91-4.91 6.07-7.1q2.18-2.19 3.34-5.13a.4.4 0 01.59-.18q.21.15.14.52-1.25 6.68-1.22 12.49zM223.1 381.71c-3.71-5.82 1.59-10.08 5.41-13.53 3.3-3 5.36-6.39 8.21-9.75q.32-.38.24.11-1.42 8.65-1.49 17.37-.03 3.84-1.19 5.74c-2.57 4.2-8.49 4.28-11.18.06zM106 368.79q7.91 8.75 11.79 14.18c12.49 17.49 24.9 35.2 38.27 52.03 17.16 21.6 28.34 36.5 42.83 53.2a.55.55 0 00.74.08c31.18-22.66 61.05-46.61 97.42-60.97q16.04-6.33 32.2-1.35l4.64 2.5a.77.75-49.8 00.84-.08q1.74-1.37 2.27-3.59c.47-.02.93-.15 1.29-.5 19.69-19.15 51.8-14.99 76.9-16.64 22.08-1.45 44.5-2.11 66.39-5.36 2.25-.33 4.23-1.37 6.42-2.08 1.21.66 2.22 1.57 2.52 3.04 1.95 9.59 4.03 17.16 8.98 25.71q-4.2 1.91-8.82 2.4-1.54.16-1.43 1.43-7.36 2.44-15.02 2.88-10.6.46-18.67 2.89-.97.29-.81 1.48l-13 2.67.49-.67q.79-1.09-.51-.73-10.21 2.77-20.69 4.21c-2.05.28-3.71 1.58-5.88 1.97-5.56 1-10.87 2.42-16.84 3.34q-4.06.62-7.84 3.03-1.99 1.25-4.24 1.04-7.77.18-14.49 2.6-.81.29-.46 1.25l-6.53 1.97a.74.74 0 01-.81-.27c-5.76-7.91-16.73-14.97-26.68-11.33-11.08 4.05-17.91 16.4-20.45 26.9a.85.85 0 01-.59.63q-37.3 11.62-73.35 26.62c-17.83 7.42-33.65 15.71-51.67 25.45q-.38.2-1.96.24l-1.9-4.11a1.17 1.14 44.4 01-.02-.9c2.43-5.98 11.32-24.67 7.02-30.29q-23.01-30.15-46.92-59.6c-10.6-13.06-23.32-32.22-38.02-51.79q-3.24-4.31-6.35-8.71-.92-1.94.48-3.81l2.46-.96z"/><path d="M103.54 369.75q-1.4 1.87-.48 3.81-2.03 11.96-7.69 21.87a1.13 1.13 0 00.08 1.23c9.08 12.05 16.77 24.42 25.75 37.02q4.3 6.04 9.04 13.53c8.91 14.06 18.89 27.7 28.57 41.99 8.98 13.24 19.76 25.47 28.98 38.8-1.62 2.81-6.12-4.63-6.79-5.69-5.42-8.63-12.35-16.62-18.62-24.68-5.79-7.45-9.73-15.32-15.88-23.26q-4.35-5.62-7.13-9.97c-7.16-11.17-14.68-22.16-22.07-33.26-2.91-4.38-7.29-9.84-10.65-15.31q-5.43-8.82-12.88-18.79a.87.87 0 01-.11-.84l2.86-7.04a1.18 1.16-6.3 01.4-.49c1.73-1.21 4.02-12.4 4.06-12.91.05-.85.14-8.88 2.56-6.01z"/><path fill="#fff" d="M103.06 373.56q3.11 4.4 6.35 8.71c14.7 19.57 27.42 38.73 38.02 51.79q23.91 29.45 46.92 59.6c4.3 5.62-4.59 24.31-7.02 30.29a1.17 1.14 44.4 00.02.9l1.9 4.11q-.2.21-.4.27a.57.57 0 01-.69-.33l-.37-.9c-9.22-13.33-20-25.56-28.98-38.8-9.68-14.29-19.66-27.93-28.57-41.99q-4.74-7.49-9.04-13.53c-8.98-12.6-16.67-24.97-25.75-37.02a1.13 1.13 0 01-.08-1.23q5.66-9.91 7.69-21.87z"/><path fill="#fafde0" d="M499.5 428.96q.69.46.73 1.19a.59.58-7.7 01-.48.62l-10.5 2.02q-.11-1.27 1.43-1.43 4.62-.49 8.82-2.4zM474.23 435.67l-19.48 4.37q-.16-1.19.81-1.48 8.07-2.43 18.67-2.89zM441.75 442.71l-51.27 11.15q3.78-2.41 7.84-3.03c5.97-.92 11.28-2.34 16.84-3.34 2.17-.39 3.83-1.69 5.88-1.97q10.48-1.44 20.69-4.21 1.3-.36.51.73l-.49.67zM386.24 454.9l-14.95 3.85q-.35-.96.46-1.25 6.72-2.42 14.49-2.6z"/><path fill="#1d1c1c" d="M13.19 591h-12q6-.63 12 0zM576.44 591h-5.5q2.75-.63 5.5 0z"/></svg>