<svg xmlns="http://www.w3.org/2000/svg" viewBox="0 0 591 591"><g stroke-width="2" fill="none"><path stroke="#111010" vector-effect="non-scaling-stroke" d="M590.06 0l.19.29"/><path stroke="#7f7e70" vector-effect="non-scaling-stroke" d="M590.25.29l.04 589.46"/><path stroke="gray" vector-effect="non-scaling-stroke" d="M590.29 589.75l-.54.54"/><path stroke="#7f7e70" vector-effect="non-scaling-stroke" d="M589.75 590.29q-292.91-.05-585.81-.18-1.85 0-3.69-.07"/><path stroke="#111010" vector-effect="non-scaling-stroke" d="M.25 590.04l-.25-.1"/><path stroke="#7f7e70" vector-effect="non-scaling-stroke" d="M586.25 4.51a.26.26 0 00-.26-.26H4.51a.26.26 0 00-.26.26v581.48a.26.26 0 00.26.26h581.48a.26.26 0 00.26-.26V4.51"/><path stroke="#8f8e7f" vector-effect="non-scaling-stroke" d="M591 587.31c-.84-.45-.25-537.06-.25-586.81a.25.24-86.1 00-.21-.25q-.17-.02-.29.04"/><path stroke="#fefeef" vector-effect="non-scaling-stroke" d="M591 590.06l-.71-.31"/><path stroke="#fcf0c6" vector-effect="non-scaling-stroke" d="M95.86 42.12q-3.24-1.06-6.11-1.09-15.64-.17-31.29-.39-10.01-.14-14.14 1.31-11.77 4.14-12.29 19.33-.99 28.79-.79 39.4.03 1.65.45 2.26a1.37 1.36-39.3 002.07.2L96.1 43.16a.62.62 0 00-.24-1.04"/><path stroke="#c8c8bb" vector-effect="non-scaling-stroke" d="M82.25 368.54q-3.3-.07-3.71 2.96"/><path stroke="#8f8e7f" vector-effect="non-scaling-stroke" d="M78.54 371.5l-6.2 4.81q-.74.57.15.31 6.41-1.87 13.09-2.47a.36.36 0 01.17.69L77.79 378q-.32.13.02.21.83.21 1.45.06 7.87-2.03 16.03-1.77a.37.37 0 01.18.69c-6.14 3.47-16.21 8.24-20.68 13.52a.42.42 0 00.48.66q9.22-3.98 19.54-4.58c1.37-.08 2.44-.6 3.74-.95q.57-.15.38.4-.08.25-.37.37-6.79 2.91-11.91 6.2-.44.28.06.44c1.85.58 8.17-1.56 10.01-2.01a.53.53 0 01.61.75l-3.15 6.37q-.57 1.16.62.66l1.17-.48a.51.51 0 01.69.33c1.83 6.21-3.99 13.84-8.77 16.36q-3.4 1.78-4.25 2.81c-3.31 3.96-2.21 7.87.07 12.08a1.45 1.42-54.7 01.15.94q-.51 3.04-3.35 4.64-9.52 5.37-19.6 8.38a.36.36 0 00.03.69c10.87 2.17 23.21 2 32.57-4.46q.41-.28.11.11c-6.19 8.03-16.8 12.53-26.03 16.53-6.49 2.82-12.17 4.07-18.97 4.63a.32.32 0 00-.01.63c3.41.46 6.48 1.55 9.9 1.55 5.56-.01 11.32.33 16.6-.76 11.26-2.32 25.23-7.78 33-16.36q.34-.37.12.08c-3.81 7.93-15.6 14.46-23.24 17.71-5.09 2.16-11.65 2.84-17.44 4.43q-.49.14.02.18c18.28 1.73 32.82-2.6 48.61-11.25 4.5-2.47 5.68-5.75 9.15-8.56a.78.77-50.8 01.83-.09q1.96.99 4.09.4"/><path stroke="#7f7e70" vector-effect="non-scaling-stroke" d="M130.25 449.54c2.87 4.68 5.55 8.83.64 13.56q-.35.33.1.15 3.59-1.45 6.73-3.81c5.2-3.91 3.58-8.66 2.48-14.11-.4-1.98-1.48-2.94-2.95-4.12"/><path stroke="#8f8e7f" vector-effect="non-scaling-stroke" d="M137.25 441.21c-1.67-2.74 7.01-17.57 8.76-20.73 3.44-6.21 7.73-7.21 15.04-9.03q1.05-.26.23.44l-6.29 5.38q-1.15.98.29.52 3.48-1.11 6.57-3.04a.55.55 0 01.8.66c-1.21 3.31-11.17 10.72-13.88 13.01a.51.51 0 00.57.83l10.77-5.93a.39.39 0 01.48.6l-8.67 9.71q-.36.4.14.22 1.2-.45 2.16-1.43a.44.44 0 01.69.08c1.12 1.92-5.23 8.47-6.51 9.43a.37.35-18.8 00-.15.29l-.01.27a.26.25 90 00.25.26l1.78-.01q.79 0 .33.66l-3.11 4.41a.45.45 0 00.53.68q3.07-1.14 4.4 1.66a1.54 1.53 73.6 001.58.87c3.47-.44 6.77-.78 10.38-.74q22.12.21 44.24.65 5.74.12 10.66 1.12c3.39.7 9.63 1.51 12.53 3.16q.45.26.44-.26c-.08-3.19-8.54-5.4-8.4-6.7a.46.46 0 01.57-.39l18.35 4.86a.51.51 0 00.42-.92c-10.53-7.08-20.45-13.35-33.72-13.78-8.13-.26-13.3-2.57-13.22-11.83q.02-2.4 1.4-.44 1 1.41 1.25 3.19a.32.32 0 00.51.21l.22-.16a.83.83 0 00.33-.72c-.16-2.46 1.07-4.2 1.05-6.39q-.03-3.16-.43-6.37a.6.59 77.4 01.41-.65c7.8-2.43 14.64-3.57 21.91-6.2a.24.24 0 01.18.45l-13.78 6.21a.21.21 0 00.11.4q13.68-1.83 26.83-6.05a.23.23 0 01.17.43q-7.3 3.46-14.95 5.94-.89.29.05.28 12.54-.2 24.76-2.92a.62.62 0 01.68.31c4.52 8.46 14.81 7.46 22.63 6.23q1.05-.17.2.47l-4.51 3.42a.41.41 0 00.34.72q6.32-1.52 10.86-6.05a.3.29 71.5 01.5.25q-1.09 8.21-7.09 13.93a.47.46 4.9 00.6.71q4.08-3.01 7-7.11a.24.24 0 01.43.18q-1.05 6.28-5.5 10.85c-.59.61-1.78 1.1-2.35 1.94q-.33.48.2.24 7.73-3.46 12.77-10.26a.44.43-19.3 01.77.37q-2.62 10.16-11.56 15.45-1.39.82.12.24 5.2-2 8.96-5.73a.37.36 79.5 01.59.41q-3.28 7.7-10.93 11.34-.47.22.04.18 3.76-.3 7.8-3.04a.33.33 0 01.51.34q-.91 4.29-4.51 6.82a.6.6 0 00.35 1.1q17.1-.04 33.53 1.01c13.16.83 22.55 6.08 32.63 14.06a1.02 1.01-79.4 001.6-1.1c-2.63-8.47-7.74-9.99-14.34-15.38q-.39-.32.12-.36c12.72-.97 19.97.61 33.02 4.37q.49.15.31-.33c-3.44-9-12.42-11.39-21.09-13.35q-.5-.12.01-.2c6.71-1.08 15.34-1.24 21.47 2.47a.66.65 87.9 00.87-.94q-3.61-5.08-9.3-5.99c-6.53-1.06-12.65-2.38-19.29-1.6a.93.93 0 01-.84-.35l-2.95-3.84a1.51 1.48-66.3 01-.31-.82c-.66-8.41 2.3-13.82 8.54-19.17q1.7-1.45 4.13-2.03 7.14-1.72 14.13-4.07.61-.2.44.41c-.41 1.56-7.61 2.92-8.43 5.17q-.15.44.29.32l21.17-5.51q.68-.18.3.42c-1.62 2.47-4.8 3.39-6.97 5.29q-.38.34.11.21 3.78-1.03 7.5-2.34c1.52-.54 2.92 1.33 3.94 1.94.78.47 11.19 5.95 11.22 6.23a.44.43 85.1 01-.41.49l-2.8.11q-1.49.06-.07.54c2.21.75 5.33-.24 6.99.7q.84.48-.11.66l-3.95.78a.5.49 77.3 00-.38.61c.07.25 7.46 2.6 8.34 3.08a1.59 1.54-89.2 01.66.7c3.39 7.07 4.47 17.07-3.02 22.45a.35.35 0 00.27.63q9.12-1.54 15.61-7.89a1.04 1.03 26.8 01.89-.29c2.93.49 4.49 2.23 7.37.1a.93.93 0 01.87-.13q3.05 1.08 6.21 1.78c4.26.93 7.85 3.76 11.83 5.32q8.99 3.53 17.97 7.18.79.32.19-.28-8.7-8.81-19.4-15.05-.66-.38.09-.29 4.26.56 9.94 2.5 13.03 4.44 25.34 10.82a.26.26 0 00.34-.36q-6.43-11.31-17.22-18.45a.41.41 0 01.26-.75c9.46.7 19.06 4.76 28.13 7.7a.36.36 0 00.38-.59q-6.03-6.56-14.52-10c-2.17-.89-3.92-4.21-6.12-5.55q-4.64-2.83-9.99-4.07a1.23 1.2 79.7 01-.75-.53c-2.36-3.62-4.53-4.84-8.78-6.48-4.65-1.8-9.41-6.81-11.9-11.05q-2.54-4.35-4.95-8.8-.25-.45-.65-.77l-3.43-2.63q-.8-.62.21-.67c27.11-1.42 44.08 14.21 63.76 30.85 2.37 2.01 3.95 5.14 6.5 7.37a1.65 1.65 0 00.81.39l2.23.42a1.41 1.36-12.3 01.86.53q3.56 4.86 9.86 9c9.32 6.11 18.98 12.42 29.2 14.78 38.81 8.95 39.55-39.41 7.82-40.43q-6.65-.22-10.78 5.56c-3.56 4.98-3.02 11.78 2.55 14.54 7.38 3.66 14.5-8.07 6.06-9.27a.98.97-69.2 00-.94.43l-1.71 2.58a.31.31 0 01-.53-.03c-5.42-10.86 20.23-9.87 21.56 6.31 1.04 12.67-6.51 14.76-16.57 13.41-5.31-.72-10.3-1.06-15.24-3.42q-9.48-4.55-18.9-9.23-.44-.22-.73-.63c-.86-1.25-5.28-4.53-4.98-5.52a.37.37 0 01.6-.18q1.38 1.18 3.17.66a.86.85-6.4 00.61-.76c.14-2.11.71-9.92-.94-11.31-10.47-8.85-16.47-22.48-23.17-34.81-1.67-3.07-4.55-9.18-3-12.23q13.38-26.28 36.44-49.56c4.85-4.89-4.04-8.28-8.42-9.62-24.49-7.46-50.24-9.18-74.64-.34a.34.33-5.2 01-.45-.37q3.5-19.95 7.53-39.68c1.01-4.95-2.01-5.07-6.08-6.07-33.77-8.24-74.44-6.54-104.67 12.31q-7.78 4.85-13.72 11.79a.4.39 48.5 01-.63-.04c-17.58-27.99-37.84-49.46-67.46-64.79q-21.1-10.92-39.85-15.74c-16.23-4.17-30.23-7.33-46.22-8.33-3.22-.2-5.43.9-5.15 4.41a1.45 1.42 21.6 00.39.87c21.79 22.55 39.84 48.88 55.3 76.02a.44.44 0 01-.68.54q-8.67-8.11-19.28-12.87-4.84-2.17-12.64-4.2c-23.94-6.22-50.92-6.54-75.36-3.94-3.07.33-5.61 1.23-5.17 4.78a1.76 1.73-76.9 00.75 1.23c11.67 7.95 21.21 20.11 30.26 30.84q1.92 2.28 3.23 4.98.22.45-.27.34c-14.39-3.42-31.05-2.85-45.91-1.17-22.15 2.52-36.95 6.12-55.53 10.23-5.18 1.14-5.11 6.05-.88 8.46q28.2 16.06 52.94 41.3 2.03 2.08 2.73 3.22a.51.5-30.4 01-.19.71l-2.64 1.47"/><path stroke="#111010" vector-effect="non-scaling-stroke" d="M137.25 441.21q-.43.06-.8.31a.46.45 53.6 00-.1.68q3.28 3.87 3.68 9.06.28 3.72-3.52 7.11a.79.79 0 01-1.32-.66q.45-5.24-3.64-8.68a.62.61-47.5 00-.83.04l-.47.47"/><path stroke="#5a5a5b" vector-effect="non-scaling-stroke" d="M78.54 371.5q2.31-.92 3.71-2.96"/><path stroke="#c8c8bb" vector-effect="non-scaling-stroke" d="M136.07 576.38l-3.32-3.82a1.24 1.24 0 00-1.98.14q-1.89 2.93-5.19 3.78a.76.74 83.8 00-.55.7q-.03 1.04 1.17 1.54.97.42.44-.5l-.2-.35a.57.57 0 01.22-.78c1.61-.89 4.27-4.38 6.14-3.28a.81.81 0 01.39.79l-.22 1.81a.58.58 0 00.68.64q2.25-.45 3.72 1.18.88.99.42-.25-.27-.74-1.01-1.07-.41-.19-.71-.53"/><path stroke="#5a5a5b" vector-effect="non-scaling-stroke" d="M179.07 221.9c2.21 4.28 6 8.36 7.95 11.1q17.49 24.51 26.86 41.09 26.64 47.12 44.75 104.09c2.12 6.66 4.7 13.39 6.96 20.16q.16.47.48.08c10.7-13.08 18.71-28.93 26.98-43.67a2.38 2.36-67.9 012.66-1.13l43.14 11.32q1.48.39.99-1.06-9.7-28.77-23.53-54.39"/><path stroke="#90908f" vector-effect="non-scaling-stroke" d="M316.31 309.49q-1.51-5.04-3.35-7.94c-4.71-7.41-9.65-15.81-14.24-22.2-31.22-43.42-78.84-65.48-131.28-70.77q-.53-.06-.17.34l11.8 12.98"/><path stroke="#c9cacb" vector-effect="non-scaling-stroke" d="M316.31 309.49q-8.26-11.28-16.68-22.37c-16.76-22.1-38.13-38-63.86-49.08q-28.05-12.08-56.7-16.14"/><path stroke="#5a5a5b" vector-effect="non-scaling-stroke" d="M121.12 279.62q23.31 26.6 41.11 58.15 13.66 24.23 24.06 45.37c1.6 3.25 2.73 6.58 3.95 9.99a.61.61 0 00.77.37q3.95-1.31 3.7-5.24-.23-3.56.95-16.84c.18-2.08 1.14-3.11 3.33-3.12q19.03-.13 37.98 1.9a1.46 1.45 69.4 01.85.39c4.3 4.03 8.17 13.68 13.1 23.75a.78.77-17.4 00.82.42l4.71-.75a.5.49 75.2 00.38-.67c-6.88-17.24-14.09-33.7-20.73-51.27-7.83-20.73-16.13-41.54-33.35-55.78"/><path stroke="#90908f" vector-effect="non-scaling-stroke" d="M202.75 286.29c-11.78-11.83-32.05-16.99-48.01-18.02q-21.95-1.41-44.03-.04-.51.03-.15.41l10.56 10.98"/><path stroke="#c9cacb" vector-effect="non-scaling-stroke" d="M202.75 286.29c.06.77.13 1.5.58 2.17q3.77 5.64 6.98 11.52.24.44-.15.13-17.85-14.35-41.92-18.61-24.71-4.38-47.12-1.88"/><path stroke="#5a5a5b" vector-effect="non-scaling-stroke" d="M320.66 302.29q16.48 31.81 27.19 65.5a.53.53 0 00.64.35q19.51-5.19 39.26-9.37 2.74-.58 4.34 1.89c.99 1.53 13.31 20.01 16.15 20.3q3.67.38 7.89-.26a.61.6 87.2 00.52-.58c1.47-26.96 3.78-44.35 7.31-66.12"/><path stroke="#8f8e7f" vector-effect="non-scaling-stroke" d="M423.96 314l4.33-23.5"/><path stroke="#5a5a5b" vector-effect="non-scaling-stroke" d="M428.29 290.5l1.67-7.75"/><path stroke="#90908f" vector-effect="non-scaling-stroke" d="M429.96 282.75l1.82-9.83a.74.74 0 00-.56-.86c-18.89-4.32-39.11-5.29-58.23-2.66-18.98 2.61-41.91 11.78-54.73 26.77a.9.9 0 00-.12.98l2.52 5.14"/><path stroke="#c9cacb" vector-effect="non-scaling-stroke" d="M429.96 282.75q-19.21-4.02-42.76-3.31-37.82 1.14-66.54 22.85"/><path stroke="#c8c8bb" vector-effect="non-scaling-stroke" d="M428.29 290.5l-.07-1.72a.33.33 0 00-.32-.31c-.56-.03-4.51 23.23-4.88 25.46a.4.39-1.5 00.48.45q.26-.06.46-.38"/><path stroke="#5a5a5b" vector-effect="non-scaling-stroke" d="M51.25 327.54c5.38 4.11 11.09 8.1 15.98 12.35q19.83 17.23 36.9 37.22c1.73 2.02 4.94 4.31 6.55 7.5a.99.99 0 00.96.54c10.7-.7 4.77-15.89 12.36-16.16q18.62-.65 37.25-1.14 1.62-.04 2.21.94c4.03 6.62 9.21 12.02 13.44 18.43a1.11 1.09-15.4 00.88.49l1.88.06a.73.72 78 00.67-1.04c-11.8-24.68-24.75-49.48-40.27-72.01-2.02-2.94-14.84-4.78-18.56-5.25"/><path stroke="#90908f" vector-effect="non-scaling-stroke" d="M121.5 309.47q-9.4-1.47-20.32-.83-30.67 1.8-61.44 9.64-1.99.51-.27 1.63l11.78 7.63"/><path stroke="#c9cacb" vector-effect="non-scaling-stroke" d="M121.5 309.47q5.56 5.98 10.21 12.52.29.41-.19.29c-23.94-6.02-54.42-.91-78.5 4.02q-.47.1-.83.42l-.94.82"/><path stroke="#5a5a5b" vector-effect="non-scaling-stroke" d="M431.34 329.29l.6-7.49a.51.5-85.5 00-.46-.55c-.67-.05-1.19.59-1.31 1.26q-2.84 15.93-4.69 34.05a.74.74 0 00.68.82l16.32 1.25a1.76 1.75 65.6 01.92.35q2.36 1.82 3.67 3.71 6.38 9.19 12.49 20.83c1.53 2.91 4.04 2.09 5.18-.62 8.11-19.22 18.74-37.84 32.7-53.21q.25-.27.56-1.15"/><path stroke="#90908f" vector-effect="non-scaling-stroke" d="M498 328.54l7.49-8.37a.35.34 29.4 00-.16-.56c-22.82-7.1-48.89-8.42-71.49.6a1.45 1.45 0 00-.88 1.63q.78 3.84-1.62 7.45"/><path stroke="#c9cacb" vector-effect="non-scaling-stroke" d="M498 328.54q-32.79-9.06-65.2 1.04a1.36 1.31-40.8 01-.91-.05l-.55-.24"/><path stroke="#5a5a5b" vector-effect="non-scaling-stroke" d="M437.21 378.75q-1.61 1.49-.1 3.39 3.48 4.37 8.31 2.05 1.77-.84 1.28-2.98a1.31 1.28 11.5 00-.53-.78q-2.79-1.95-5.65-2.21"/><path stroke="#90908f" vector-effect="non-scaling-stroke" d="M440.52 378.22q-2.66-1.15-3.31.53"/><path stroke="#c9cacb" vector-effect="non-scaling-stroke" d="M440.52 378.22q2.23 3.36-2.03 4.4a.59.59 0 01-.69-.36q-.66-1.69-.59-3.51"/><path stroke="#5a5a5b" vector-effect="non-scaling-stroke" d="M375.84 413.42q3.48 2.11 7.6 2.38a.27.27 0 00.29-.27c0-.39-3.88-1.51-4.01-1.64q-1.95-1.86-3.84-1.05-.59.25-.04.58"/><path stroke="#fefeef" vector-effect="non-scaling-stroke" d="M589.94 591l-.19-.71"/><path stroke="#8f8e7f" vector-effect="non-scaling-stroke" d="M.25 590.04c-.15.47-.01.72.51.7q5.85-.17 11.68.26M124.44 591q-2.75-.63-5.5 0"/></g><path d="M0 0h590.06l.19.29.04 589.46-.54.54q-292.91-.05-585.81-.18-1.85 0-3.69-.07l-.25-.1V0zm586.25 4.51a.26.26 0 00-.26-.26H4.51a.26.26 0 00-.26.26v581.48a.26.26 0 00.26.26h581.48a.26.26 0 00.26-.26V4.51z"/><path fill="#21201f" d="M590.06 0h.94v587.31c-.84-.45-.25-537.06-.25-586.81a.25.24-86.1 00-.21-.25q-.17-.02-.29.04l-.19-.29z"/><path fill="#fdfcdf" d="M590.25.29q.12-.06.29-.04a.25.24-86.1 01.21.25c0 49.75-.59 586.36.25 586.81v2.75l-.71-.31L590.25.29zM586.25 585.99a.26.26 0 01-.26.26H4.51a.26.26 0 01-.26-.26V4.51a.26.26 0 01.26-.26h581.48a.26.26 0 01.26.26v581.48zM95.86 42.12q-3.24-1.06-6.11-1.09-15.64-.17-31.29-.39-10.01-.14-14.14 1.31-11.77 4.14-12.29 19.33-.99 28.79-.79 39.4.03 1.65.45 2.26a1.37 1.36-39.3 002.07.2L96.1 43.16a.62.62 0 00-.24-1.04zM82.25 368.54q-3.3-.07-3.71 2.96l-6.2 4.81q-.74.57.15.31 6.41-1.87 13.09-2.47a.36.36 0 01.17.69L77.79 378q-.32.13.02.21.83.21 1.45.06 7.87-2.03 16.03-1.77a.37.37 0 01.18.69c-6.14 3.47-16.21 8.24-20.68 13.52a.42.42 0 00.48.66q9.22-3.98 19.54-4.58c1.37-.08 2.44-.6 3.74-.95q.57-.15.38.4-.08.25-.37.37-6.79 2.91-11.91 6.2-.44.28.06.44c1.85.58 8.17-1.56 10.01-2.01a.53.53 0 01.61.75l-3.15 6.37q-.57 1.16.62.66l1.17-.48a.51.51 0 01.69.33c1.83 6.21-3.99 13.84-8.77 16.36q-3.4 1.78-4.25 2.81c-3.31 3.96-2.21 7.87.07 12.08a1.45 1.42-54.7 01.15.94q-.51 3.04-3.35 4.64-9.52 5.37-19.6 8.38a.36.36 0 00.03.69c10.87 2.17 23.21 2 32.57-4.46q.41-.28.11.11c-6.19 8.03-16.8 12.53-26.03 16.53-6.49 2.82-12.17 4.07-18.97 4.63a.32.32 0 00-.01.63c3.41.46 6.48 1.55 9.9 1.55 5.56-.01 11.32.33 16.6-.76 11.26-2.32 25.23-7.78 33-16.36q.34-.37.12.08c-3.81 7.93-15.6 14.46-23.24 17.71-5.09 2.16-11.65 2.84-17.44 4.43q-.49.14.02.18c18.28 1.73 32.82-2.6 48.61-11.25 4.5-2.47 5.68-5.75 9.15-8.56a.78.77-50.8 01.83-.09q1.96.99 4.09.4c2.87 4.68 5.55 8.83.64 13.56q-.35.33.1.15 3.59-1.45 6.73-3.81c5.2-3.91 3.58-8.66 2.48-14.11-.4-1.98-1.48-2.94-2.95-4.12-1.67-2.74 7.01-17.57 8.76-20.73 3.44-6.21 7.73-7.21 15.04-9.03q1.05-.26.23.44l-6.29 5.38q-1.15.98.29.52 3.48-1.11 6.57-3.04a.55.55 0 01.8.66c-1.21 3.31-11.17 10.72-13.88 13.01a.51.51 0 00.57.83l10.77-5.93a.39.39 0 01.48.6l-8.67 9.71q-.36.4.14.22 1.2-.45 2.16-1.43a.44.44 0 01.69.08c1.12 1.92-5.23 8.47-6.51 9.43a.37.35-18.8 00-.15.29l-.01.27a.26.25 90 00.25.26l1.78-.01q.79 0 .33.66l-3.11 4.41a.45.45 0 00.53.68q3.07-1.14 4.4 1.66a1.54 1.53 73.6 001.58.87c3.47-.44 6.77-.78 10.38-.74q22.12.21 44.24.65 5.74.12 10.66 1.12c3.39.7 9.63 1.51 12.53 3.16q.45.26.44-.26c-.08-3.19-8.54-5.4-8.4-6.7a.46.46 0 01.57-.39l18.35 4.86a.51.51 0 00.42-.92c-10.53-7.08-20.45-13.35-33.72-13.78-8.13-.26-13.3-2.57-13.22-11.83q.02-2.4 1.4-.44 1 1.41 1.25 3.19a.32.32 0 00.51.21l.22-.16a.83.83 0 00.33-.72c-.16-2.46 1.07-4.2 1.05-6.39q-.03-3.16-.43-6.37a.6.59 77.4 01.41-.65c7.8-2.43 14.64-3.57 21.91-6.2a.24.24 0 01.18.45l-13.78 6.21a.21.21 0 00.11.4q13.68-1.83 26.83-6.05a.23.23 0 01.17.43q-7.3 3.46-14.95 5.94-.89.29.05.28 12.54-.2 24.76-2.92a.62.62 0 01.68.31c4.52 8.46 14.81 7.46 22.63 6.23q1.05-.17.2.47l-4.51 3.42a.41.41 0 00.34.72q6.32-1.52 10.86-6.05a.3.29 71.5 01.5.25q-1.09 8.21-7.09 13.93a.47.46 4.9 00.6.71q4.08-3.01 7-7.11a.24.24 0 01.43.18q-1.05 6.28-5.5 10.85c-.59.61-1.78 1.1-2.35 1.94q-.33.48.2.24 7.73-3.46 12.77-10.26a.44.43-19.3 01.77.37q-2.62 10.16-11.56 15.45-1.39.82.12.24 5.2-2 8.96-5.73a.37.36 79.5 01.59.41q-3.28 7.7-10.93 11.34-.47.22.04.18 3.76-.3 7.8-3.04a.33.33 0 01.51.34q-.91 4.29-4.51 6.82a.6.6 0 00.35 1.1q17.1-.04 33.53 1.01c13.16.83 22.55 6.08 32.63 14.06a1.02 1.01-79.4 001.6-1.1c-2.63-8.47-7.74-9.99-14.34-15.38q-.39-.32.12-.36c12.72-.97 19.97.61 33.02 4.37q.49.15.31-.33c-3.44-9-12.42-11.39-21.09-13.35q-.5-.12.01-.2c6.71-1.08 15.34-1.24 21.47 2.47a.66.65 87.9 00.87-.94q-3.61-5.08-9.3-5.99c-6.53-1.06-12.65-2.38-19.29-1.6a.93.93 0 01-.84-.35l-2.95-3.84a1.51 1.48-66.3 01-.31-.82c-.66-8.41 2.3-13.82 8.54-19.17q1.7-1.45 4.13-2.03 7.14-1.72 14.13-4.07.61-.2.44.41c-.41 1.56-7.61 2.92-8.43 5.17q-.15.44.29.32l21.17-5.51q.68-.18.3.42c-1.62 2.47-4.8 3.39-6.97 5.29q-.38.34.11.21 3.78-1.03 7.5-2.34c1.52-.54 2.92 1.33 3.94 1.94.78.47 11.19 5.95 11.22 6.23a.44.43 85.1 01-.41.49l-2.8.11q-1.49.06-.07.54c2.21.75 5.33-.24 6.99.7q.84.48-.11.66l-3.95.78a.5.49 77.3 00-.38.61c.07.25 7.46 2.6 8.34 3.08a1.59 1.54-89.2 01.66.7c3.39 7.07 4.47 17.07-3.02 22.45a.35.35 0 00.27.63q9.12-1.54 15.61-7.89a1.04 1.03 26.8 01.89-.29c2.93.49 4.49 2.23 7.37.1a.93.93 0 01.87-.13q3.05 1.08 6.21 1.78c4.26.93 7.85 3.76 11.83 5.32q8.99 3.53 17.97 7.18.79.32.19-.28-8.7-8.81-19.4-15.05-.66-.38.09-.29 4.26.56 9.94 2.5 13.03 4.44 25.34 10.82a.26.26 0 00.34-.36q-6.43-11.31-17.22-18.45a.41.41 0 01.26-.75c9.46.7 19.06 4.76 28.13 7.7a.36.36 0 00.38-.59q-6.03-6.56-14.52-10c-2.17-.89-3.92-4.21-6.12-5.55q-4.64-2.83-9.99-4.07a1.23 1.2 79.7 01-.75-.53c-2.36-3.62-4.53-4.84-8.78-6.48-4.65-1.8-9.41-6.81-11.9-11.05q-2.54-4.35-4.95-8.8-.25-.45-.65-.77l-3.43-2.63q-.8-.62.21-.67c27.11-1.42 44.08 14.21 63.76 30.85 2.37 2.01 3.95 5.14 6.5 7.37a1.65 1.65 0 00.81.39l2.23.42a1.41 1.36-12.3 01.86.53q3.56 4.86 9.86 9c9.32 6.11 18.98 12.42 29.2 14.78 38.81 8.95 39.55-39.41 7.82-40.43q-6.65-.22-10.78 5.56c-3.56 4.98-3.02 11.78 2.55 14.54 7.38 3.66 14.5-8.07 6.06-9.27a.98.97-69.2 00-.94.43l-1.71 2.58a.31.31 0 01-.53-.03c-5.42-10.86 20.23-9.87 21.56 6.31 1.04 12.67-6.51 14.76-16.57 13.41-5.31-.72-10.3-1.06-15.24-3.42q-9.48-4.55-18.9-9.23-.44-.22-.73-.63c-.86-1.25-5.28-4.53-4.98-5.52a.37.37 0 01.6-.18q1.38 1.18 3.17.66a.86.85-6.4 00.61-.76c.14-2.11.71-9.92-.94-11.31-10.47-8.85-16.47-22.48-23.17-34.81-1.67-3.07-4.55-9.18-3-12.23q13.38-26.28 36.44-49.56c4.85-4.89-4.04-8.28-8.42-9.62-24.49-7.46-50.24-9.18-74.64-.34a.34.33-5.2 01-.45-.37q3.5-19.95 7.53-39.68c1.01-4.95-2.01-5.07-6.08-6.07-33.77-8.24-74.44-6.54-104.67 12.31q-7.78 4.85-13.72 11.79a.4.39 48.5 01-.63-.04c-17.58-27.99-37.84-49.46-67.46-64.79q-21.1-10.92-39.85-15.74c-16.23-4.17-30.23-7.33-46.22-8.33-3.22-.2-5.43.9-5.15 4.41a1.45 1.42 21.6 00.39.87c21.79 22.55 39.84 48.88 55.3 76.02a.44.44 0 01-.68.54q-8.67-8.11-19.28-12.87-4.84-2.17-12.64-4.2c-23.94-6.22-50.92-6.54-75.36-3.94-3.07.33-5.61 1.23-5.17 4.78a1.76 1.73-76.9 00.75 1.23c11.67 7.95 21.21 20.11 30.26 30.84q1.92 2.28 3.23 4.98.22.45-.27.34c-14.39-3.42-31.05-2.85-45.91-1.17-22.15 2.52-36.95 6.12-55.53 10.23-5.18 1.14-5.11 6.05-.88 8.46q28.2 16.06 52.94 41.3 2.03 2.08 2.73 3.22a.51.5-30.4 01-.19.71l-2.64 1.47zm53.82 207.84l-3.32-3.82a1.24 1.24 0 00-1.98.14q-1.89 2.93-5.19 3.78a.76.74 83.8 00-.55.7q-.03 1.04 1.17 1.54.97.42.44-.5l-.2-.35a.57.57 0 01.22-.78c1.61-.89 4.27-4.38 6.14-3.28a.81.81 0 01.39.79l-.22 1.81a.58.58 0 00.68.64q2.25-.45 3.72 1.18.88.99.42-.25-.27-.74-1.01-1.07-.41-.19-.71-.53z"/><path fill="#fae4ad" d="M95.86 42.12a.62.62 0 01.24 1.04l-62.34 59.98a1.37 1.36-39.3 01-2.07-.2q-.42-.61-.45-2.26-.2-10.61.79-39.4.52-15.19 12.29-19.33 4.13-1.45 14.14-1.31 15.65.22 31.29.39 2.87.03 6.11 1.09z"/><path fill="#21201f" d="M137.25 441.21q-.43.06-.8.31a.46.45 53.6 00-.1.68q3.28 3.87 3.68 9.06.28 3.72-3.52 7.11a.79.79 0 01-1.32-.66q.45-5.24-3.64-8.68a.62.61-47.5 00-.83.04l-.47.47q-2.13.59-4.09-.4a.78.77-50.8 00-.83.09c-3.47 2.81-4.65 6.09-9.15 8.56-15.79 8.65-30.33 12.98-48.61 11.25q-.51-.04-.02-.18c5.79-1.59 12.35-2.27 17.44-4.43 7.64-3.25 19.43-9.78 23.24-17.71q.22-.45-.12-.08c-7.77 8.58-21.74 14.04-33 16.36-5.28 1.09-11.04.75-16.6.76-3.42 0-6.49-1.09-9.9-1.55a.32.32 0 01.01-.63c6.8-.56 12.48-1.81 18.97-4.63 9.23-4 19.84-8.5 26.03-16.53q.3-.39-.11-.11c-9.36 6.46-21.7 6.63-32.57 4.46a.36.36 0 01-.03-.69q10.08-3.01 19.6-8.38 2.84-1.6 3.35-4.64a1.45 1.42-54.7 00-.15-.94c-2.28-4.21-3.38-8.12-.07-12.08q.85-1.03 4.25-2.81c4.78-2.52 10.6-10.15 8.77-16.36a.51.51 0 00-.69-.33l-1.17.48q-1.19.5-.62-.66l3.15-6.37a.53.53 0 00-.61-.75c-1.84.45-8.16 2.59-10.01 2.01q-.5-.16-.06-.44 5.12-3.29 11.91-6.2.29-.12.37-.37.19-.55-.38-.4c-1.3.35-2.37.87-3.74.95q-10.32.6-19.54 4.58a.42.42 0 01-.48-.66c4.47-5.28 14.54-10.05 20.68-13.52a.37.37 0 00-.18-.69q-8.16-.26-16.03 1.77-.62.15-1.45-.06-.34-.08-.02-.21l7.96-3.16a.36.36 0 00-.17-.69q-6.68.6-13.09 2.47-.89.26-.15-.31l6.2-4.81q2.31-.92 3.71-2.96l2.64-1.47a.51.5-30.4 00.19-.71q-.7-1.14-2.73-3.22-24.74-25.24-52.94-41.3c-4.23-2.41-4.3-7.32.88-8.46 18.58-4.11 33.38-7.71 55.53-10.23 14.86-1.68 31.52-2.25 45.91 1.17q.49.11.27-.34-1.31-2.7-3.23-4.98c-9.05-10.73-18.59-22.89-30.26-30.84a1.76 1.73-76.9 01-.75-1.23c-.44-3.55 2.1-4.45 5.17-4.78 24.44-2.6 51.42-2.28 75.36 3.94q7.8 2.03 12.64 4.2 10.61 4.76 19.28 12.87a.44.44 0 00.68-.54c-15.46-27.14-33.51-53.47-55.3-76.02a1.45 1.42 21.6 01-.39-.87c-.28-3.51 1.93-4.61 5.15-4.41 15.99 1 29.99 4.16 46.22 8.33q18.75 4.82 39.85 15.74c29.62 15.33 49.88 36.8 67.46 64.79a.4.39 48.5 00.63.04q5.94-6.94 13.72-11.79c30.23-18.85 70.9-20.55 104.67-12.31 4.07 1 7.09 1.12 6.08 6.07q-4.03 19.73-7.53 39.68a.34.33-5.2 00.45.37c24.4-8.84 50.15-7.12 74.64.34 4.38 1.34 13.27 4.73 8.42 9.62q-23.06 23.28-36.44 49.56c-1.55 3.05 1.33 9.16 3 12.23 6.7 12.33 12.7 25.96 23.17 34.81 1.65 1.39 1.08 9.2.94 11.31a.86.85-6.4 01-.61.76q-1.79.52-3.17-.66a.37.37 0 00-.6.18c-.3.99 4.12 4.27 4.98 5.52q.29.41.73.63 9.42 4.68 18.9 9.23c4.94 2.36 9.93 2.7 15.24 3.42 10.06 1.35 17.61-.74 16.57-13.41-1.33-16.18-26.98-17.17-21.56-6.31a.31.31 0 00.53.03l1.71-2.58a.98.97-69.2 01.94-.43c8.44 1.2 1.32 12.93-6.06 9.27-5.57-2.76-6.11-9.56-2.55-14.54q4.13-5.78 10.78-5.56c31.73 1.02 30.99 49.38-7.82 40.43-10.22-2.36-19.88-8.67-29.2-14.78q-6.3-4.14-9.86-9a1.41 1.36-12.3 00-.86-.53l-2.23-.42a1.65 1.65 0 01-.81-.39c-2.55-2.23-4.13-5.36-6.5-7.37-19.68-16.64-36.65-32.27-63.76-30.85q-1.01.05-.21.67l3.43 2.63q.4.32.65.77 2.41 4.45 4.95 8.8c2.49 4.24 7.25 9.25 11.9 11.05 4.25 1.64 6.42 2.86 8.78 6.48a1.23 1.2 79.7 00.75.53q5.35 1.24 9.99 4.07c2.2 1.34 3.95 4.66 6.12 5.55q8.49 3.44 14.52 10a.36.36 0 01-.38.59c-9.07-2.94-18.67-7-28.13-7.7a.41.41 0 00-.26.75q10.79 7.14 17.22 18.45a.26.26 0 01-.34.36q-12.31-6.38-25.34-10.82-5.68-1.94-9.94-2.5-.75-.09-.09.29 10.7 6.24 19.4 15.05.6.6-.19.28-8.98-3.65-17.97-7.18c-3.98-1.56-7.57-4.39-11.83-5.32q-3.16-.7-6.21-1.78a.93.93 0 00-.87.13c-2.88 2.13-4.44.39-7.37-.1a1.04 1.03 26.8 00-.89.29q-6.49 6.35-15.61 7.89a.35.35 0 01-.27-.63c7.49-5.38 6.41-15.38 3.02-22.45a1.59 1.54-89.2 00-.66-.7c-.88-.48-8.27-2.83-8.34-3.08a.5.49 77.3 01.38-.61l3.95-.78q.95-.18.11-.66c-1.66-.94-4.78.05-6.99-.7q-1.42-.48.07-.54l2.8-.11a.44.43 85.1 00.41-.49c-.03-.28-10.44-5.76-11.22-6.23-1.02-.61-2.42-2.48-3.94-1.94q-3.72 1.31-7.5 2.34-.49.13-.11-.21c2.17-1.9 5.35-2.82 6.97-5.29q.38-.6-.3-.42l-21.17 5.51q-.44.12-.29-.32c.82-2.25 8.02-3.61 8.43-5.17q.17-.61-.44-.41-6.99 2.35-14.13 4.07-2.43.58-4.13 2.03c-6.24 5.35-9.2 10.76-8.54 19.17a1.51 1.48-66.3 00.31.82l2.95 3.84a.93.93 0 00.84.35c6.64-.78 12.76.54 19.29 1.6q5.69.91 9.3 5.99a.66.65 87.9 01-.87.94c-6.13-3.71-14.76-3.55-21.47-2.47q-.51.08-.01.2c8.67 1.96 17.65 4.35 21.09 13.35q.18.48-.31.33c-13.05-3.76-20.3-5.34-33.02-4.37q-.51.04-.12.36c6.6 5.39 11.71 6.91 14.34 15.38a1.02 1.01-79.4 01-1.6 1.1c-10.08-7.98-19.47-13.23-32.63-14.06q-16.43-1.05-33.53-1.01a.6.6 0 01-.35-1.1q3.6-2.53 4.51-6.82a.33.33 0 00-.51-.34q-4.04 2.74-7.8 3.04-.51.04-.04-.18 7.65-3.64 10.93-11.34a.37.36 79.5 00-.59-.41q-3.76 3.73-8.96 5.73-1.51.58-.12-.24 8.94-5.29 11.56-15.45a.44.43-19.3 00-.77-.37q-5.04 6.8-12.77 10.26-.53.24-.2-.24c.57-.84 1.76-1.33 2.35-1.94q4.45-4.57 5.5-10.85a.24.24 0 00-.43-.18q-2.92 4.1-7 7.11a.47.46 4.9 01-.6-.71q6-5.72 7.09-13.93a.3.29 71.5 00-.5-.25q-4.54 4.53-10.86 6.05a.41.41 0 01-.34-.72l4.51-3.42q.85-.64-.2-.47c-7.82 1.23-18.11 2.23-22.63-6.23a.62.62 0 00-.68-.31q-12.22 2.72-24.76 2.92-.94.01-.05-.28 7.65-2.48 14.95-5.94a.23.23 0 00-.17-.43q-13.15 4.22-26.83 6.05a.21.21 0 01-.11-.4l13.78-6.21a.24.24 0 00-.18-.45c-7.27 2.63-14.11 3.77-21.91 6.2a.6.59 77.4 00-.41.65q.4 3.21.43 6.37c.02 2.19-1.21 3.93-1.05 6.39a.83.83 0 01-.33.72l-.22.16a.32.32 0 01-.51-.21q-.25-1.78-1.25-3.19-1.38-1.96-1.4.44c-.08 9.26 5.09 11.57 13.22 11.83 13.27.43 23.19 6.7 33.72 13.78a.51.51 0 01-.42.92l-18.35-4.86a.46.46 0 00-.57.39c-.14 1.3 8.32 3.51 8.4 6.7q.01.52-.44.26c-2.9-1.65-9.14-2.46-12.53-3.16q-4.92-1-10.66-1.12-22.12-.44-44.24-.65c-3.61-.04-6.91.3-10.38.74a1.54 1.53 73.6 01-1.58-.87q-1.33-2.8-4.4-1.66a.45.45 0 01-.53-.68l3.11-4.41q.46-.66-.33-.66l-1.78.01a.26.25-90 01-.25-.26l.01-.27a.37.35-18.8 01.15-.29c1.28-.96 7.63-7.51 6.51-9.43a.44.44 0 00-.69-.08q-.96.98-2.16 1.43-.5.18-.14-.22l8.67-9.71a.39.39 0 00-.48-.6l-10.77 5.93a.51.51 0 01-.57-.83c2.71-2.29 12.67-9.7 13.88-13.01a.55.55 0 00-.8-.66q-3.09 1.93-6.57 3.04-1.44.46-.29-.52l6.29-5.38q.82-.7-.23-.44c-7.31 1.82-11.6 2.82-15.04 9.03-1.75 3.16-10.43 17.99-8.76 20.73zm41.82-219.31c2.21 4.28 6 8.36 7.95 11.1q17.49 24.51 26.86 41.09 26.64 47.12 44.75 104.09c2.12 6.66 4.7 13.39 6.96 20.16q.16.47.48.08c10.7-13.08 18.71-28.93 26.98-43.67a2.38 2.36-67.9 012.66-1.13l43.14 11.32q1.48.39.99-1.06-9.7-28.77-23.53-54.39-1.51-5.04-3.35-7.94c-4.71-7.41-9.65-15.81-14.24-22.2-31.22-43.42-78.84-65.48-131.28-70.77q-.53-.06-.17.34l11.8 12.98zm-57.95 57.72q23.31 26.6 41.11 58.15 13.66 24.23 24.06 45.37c1.6 3.25 2.73 6.58 3.95 9.99a.61.61 0 00.77.37q3.95-1.31 3.7-5.24-.23-3.56.95-16.84c.18-2.08 1.14-3.11 3.33-3.12q19.03-.13 37.98 1.9a1.46 1.45 69.4 01.85.39c4.3 4.03 8.17 13.68 13.1 23.75a.78.77-17.4 00.82.42l4.71-.75a.5.49 75.2 00.38-.67c-6.88-17.24-14.09-33.7-20.73-51.27-7.83-20.73-16.13-41.54-33.35-55.78-11.78-11.83-32.05-16.99-48.01-18.02q-21.95-1.41-44.03-.04-.51.03-.15.41l10.56 10.98zm199.54 22.67q16.48 31.81 27.19 65.5a.53.53 0 00.64.35q19.51-5.19 39.26-9.37 2.74-.58 4.34 1.89c.99 1.53 13.31 20.01 16.15 20.3q3.67.38 7.89-.26a.61.6 87.2 00.52-.58c1.47-26.96 3.78-44.35 7.31-66.12l4.33-23.5 1.67-7.75 1.82-9.83a.74.74 0 00-.56-.86c-18.89-4.32-39.11-5.29-58.23-2.66-18.98 2.61-41.91 11.78-54.73 26.77a.9.9 0 00-.12.98l2.52 5.14zM51.25 327.54c5.38 4.11 11.09 8.1 15.98 12.35q19.83 17.23 36.9 37.22c1.73 2.02 4.94 4.31 6.55 7.5a.99.99 0 00.96.54c10.7-.7 4.77-15.89 12.36-16.16q18.62-.65 37.25-1.14 1.62-.04 2.21.94c4.03 6.62 9.21 12.02 13.44 18.43a1.11 1.09-15.4 00.88.49l1.88.06a.73.72 78 00.67-1.04c-11.8-24.68-24.75-49.48-40.27-72.01-2.02-2.94-14.84-4.78-18.56-5.25q-9.4-1.47-20.32-.83-30.67 1.8-61.44 9.64-1.99.51-.27 1.63l11.78 7.63zm380.09 1.75l.6-7.49a.51.5-85.5 00-.46-.55c-.67-.05-1.19.59-1.31 1.26q-2.84 15.93-4.69 34.05a.74.74 0 00.68.82l16.32 1.25a1.76 1.75 65.6 01.92.35q2.36 1.82 3.67 3.71 6.38 9.19 12.49 20.83c1.53 2.91 4.04 2.09 5.18-.62 8.11-19.22 18.74-37.84 32.7-53.21q.25-.27.56-1.15l7.49-8.37a.35.34 29.4 00-.16-.56c-22.82-7.1-48.89-8.42-71.49.6a1.45 1.45 0 00-.88 1.63q.78 3.84-1.62 7.45zm5.87 49.46q-1.61 1.49-.1 3.39 3.48 4.37 8.31 2.05 1.77-.84 1.28-2.98a1.31 1.28 11.5 00-.53-.78q-2.79-1.95-5.65-2.21-2.66-1.15-3.31.53zm-61.37 34.67q3.48 2.11 7.6 2.38a.27.27 0 00.29-.27c0-.39-3.88-1.51-4.01-1.64q-1.95-1.86-3.84-1.05-.59.25-.04.58z"/><path fill="#fff" d="M316.31 309.49q-8.26-11.28-16.68-22.37c-16.76-22.1-38.13-38-63.86-49.08q-28.05-12.08-56.7-16.14l-11.8-12.98q-.36-.4.17-.34c52.44 5.29 100.06 27.35 131.28 70.77 4.59 6.39 9.53 14.79 14.24 22.2q1.84 2.9 3.35 7.94z"/><path fill="#929496" d="M316.31 309.49q13.83 25.62 23.53 54.39.49 1.45-.99 1.06l-43.14-11.32a2.38 2.36-67.9 00-2.66 1.13c-8.27 14.74-16.28 30.59-26.98 43.67q-.32.39-.48-.08c-2.26-6.77-4.84-13.5-6.96-20.16q-18.11-56.97-44.75-104.09-9.37-16.58-26.86-41.09c-1.95-2.74-5.74-6.82-7.95-11.1q28.65 4.06 56.7 16.14c25.73 11.08 47.1 26.98 63.86 49.08q8.42 11.09 16.68 22.37z"/><path fill="#fff" d="M202.75 286.29c.06.77.13 1.5.58 2.17q3.77 5.64 6.98 11.52.24.44-.15.13-17.85-14.35-41.92-18.61-24.71-4.38-47.12-1.88l-10.56-10.98q-.36-.38.15-.41 22.08-1.37 44.03.04c15.96 1.03 36.23 6.19 48.01 18.02zM429.96 282.75q-19.21-4.02-42.76-3.31-37.82 1.14-66.54 22.85l-2.52-5.14a.9.9 0 01.12-.98c12.82-14.99 35.75-24.16 54.73-26.77 19.12-2.63 39.34-1.66 58.23 2.66a.74.74 0 01.56.86l-1.82 9.83z"/><path fill="#929496" d="M202.75 286.29c17.22 14.24 25.52 35.05 33.35 55.78 6.64 17.57 13.85 34.03 20.73 51.27a.5.49 75.2 01-.38.67l-4.71.75a.78.77-17.4 01-.82-.42c-4.93-10.07-8.8-19.72-13.1-23.75a1.46 1.45 69.4 00-.85-.39q-18.95-2.03-37.98-1.9c-2.19.01-3.15 1.04-3.33 3.12q-1.18 13.28-.95 16.84.25 3.93-3.7 5.24a.61.61 0 01-.77-.37c-1.22-3.41-2.35-6.74-3.95-9.99q-10.4-21.14-24.06-45.37-17.8-31.55-41.11-58.15 22.41-2.5 47.12 1.88 24.07 4.26 41.92 18.61.39.31.15-.13-3.21-5.88-6.98-11.52c-.45-.67-.52-1.4-.58-2.17zM429.96 282.75l-1.67 7.75-.07-1.72a.33.33 0 00-.32-.31c-.56-.03-4.51 23.23-4.88 25.46a.4.39-1.5 00.48.45q.26-.06.46-.38c-3.53 21.77-5.84 39.16-7.31 66.12a.61.6 87.2 01-.52.58q-4.22.64-7.89.26c-2.84-.29-15.16-18.77-16.15-20.3q-1.6-2.47-4.34-1.89-19.75 4.18-39.26 9.37a.53.53 0 01-.64-.35q-10.71-33.69-27.19-65.5 28.72-21.71 66.54-22.85 23.55-.71 42.76 3.31z"/><path fill="#fdfcdf" d="M428.29 290.5l-4.33 23.5q-.2.32-.46.38a.4.39-1.5 01-.48-.45c.37-2.23 4.32-25.49 4.88-25.46a.33.33 0 01.32.31l.07 1.72z"/><path fill="#fff" d="M121.5 309.47q5.56 5.98 10.21 12.52.29.41-.19.29c-23.94-6.02-54.42-.91-78.5 4.02q-.47.1-.83.42l-.94.82-11.78-7.63q-1.72-1.12.27-1.63 30.77-7.84 61.44-9.64 10.92-.64 20.32.83z"/><path fill="#929496" d="M121.5 309.47c3.72.47 16.54 2.31 18.56 5.25 15.52 22.53 28.47 47.33 40.27 72.01a.73.72 78 01-.67 1.04l-1.88-.06a1.11 1.09-15.4 01-.88-.49c-4.23-6.41-9.41-11.81-13.44-18.43q-.59-.98-2.21-.94-18.63.49-37.25 1.14c-7.59.27-1.66 15.46-12.36 16.16a.99.99 0 01-.96-.54c-1.61-3.19-4.82-5.48-6.55-7.5q-17.07-19.99-36.9-37.22c-4.89-4.25-10.6-8.24-15.98-12.35l.94-.82q.36-.32.83-.42c24.08-4.93 54.56-10.04 78.5-4.02q.48.12.19-.29-4.65-6.54-10.21-12.52z"/><path fill="#fff" d="M498 328.54q-32.79-9.06-65.2 1.04a1.36 1.31-40.8 01-.91-.05l-.55-.24q2.4-3.61 1.62-7.45a1.45 1.45 0 01.88-1.63c22.6-9.02 48.67-7.7 71.49-.6a.35.34 29.4 01.16.56l-7.49 8.37z"/><path fill="#929496" d="M431.34 329.29l.55.24a1.36 1.31-40.8 00.91.05q32.41-10.1 65.2-1.04-.31.88-.56 1.15c-13.96 15.37-24.59 33.99-32.7 53.21-1.14 2.71-3.65 3.53-5.18.62q-6.11-11.64-12.49-20.83-1.31-1.89-3.67-3.71a1.76 1.75 65.6 00-.92-.35l-16.32-1.25a.74.74 0 01-.68-.82q1.85-18.12 4.69-34.05c.12-.67.64-1.31 1.31-1.26a.51.5-85.5 01.46.55l-.6 7.49zM82.25 368.54q-1.4 2.04-3.71 2.96.41-3.03 3.71-2.96z"/><path fill="#fff" d="M440.52 378.22q2.23 3.36-2.03 4.4a.59.59 0 01-.69-.36q-.66-1.69-.59-3.51.65-1.68 3.31-.53z"/><path fill="#929496" d="M440.52 378.22q2.86.26 5.65 2.21a1.31 1.28 11.5 01.53.78q.49 2.14-1.28 2.98-4.83 2.32-8.31-2.05-1.51-1.9.1-3.39-.07 1.82.59 3.51a.59.59 0 00.69.36q4.26-1.04 2.03-4.4zM375.88 412.84q1.89-.81 3.84 1.05c.13.13 4.01 1.25 4.01 1.64a.27.27 0 01-.29.27q-4.12-.27-7.6-2.38-.55-.33.04-.58z"/><path d="M137.25 441.21c1.47 1.18 2.55 2.14 2.95 4.12 1.1 5.45 2.72 10.2-2.48 14.11q-3.14 2.36-6.73 3.81-.45.18-.1-.15c4.91-4.73 2.23-8.88-.64-13.56l.47-.47a.62.61-47.5 01.83-.04q4.09 3.44 3.64 8.68a.79.79 0 001.32.66q3.8-3.39 3.52-7.11-.4-5.19-3.68-9.06a.46.45 53.6 01.1-.68q.37-.25.8-.31z"/><path fill="#929496" d="M136.78 576.91q.74.33 1.01 1.07.46 1.24-.42.25-1.47-1.63-3.72-1.18a.58.58 0 01-.68-.64l.22-1.81a.81.81 0 00-.39-.79c-1.87-1.1-4.53 2.39-6.14 3.28a.57.57 0 00-.22.78l.2.35q.53.92-.44.5-1.2-.5-1.17-1.54a.76.74 83.8 01.55-.7q3.3-.85 5.19-3.78a1.24 1.24 0 011.98-.14l3.32 3.82q.3.34.71.53z"/><path fill="#fff" d="M590.29 589.75l.71.31v.94h-1.06l-.19-.71.54-.54z"/><path fill="#21201f" d="M0 589.94l.25.1c-.15.47-.01.72.51.7q5.85-.17 11.68.26H0v-1.06z"/><path fill="#fdfcdf" d="M.25 590.04q1.84.07 3.69.07 292.9.13 585.81.18l.19.71h-465.5q-2.75-.63-5.5 0H12.44q-5.83-.43-11.68-.26c-.52.02-.66-.23-.51-.7z"/><path fill="#21201f" d="M124.44 591h-5.5q2.75-.63 5.5 0z"/></svg>