<svg xmlns="http://www.w3.org/2000/svg" viewBox="0 0 591 591"><g stroke-width="2" fill="none"><path stroke="#10100f" vector-effect="non-scaling-stroke" d="M590.06 0l-.02.25"/><path stroke="#4d4f50" vector-effect="non-scaling-stroke" d="M590.04.25q.23 2.62.23 5.25-.02 292.09-.02 584.21a.53.53 0 01-.53.53q-293.53.03-587.03 0-1.78 0-2.69-.3"/><path stroke="#7e7f71" vector-effect="non-scaling-stroke" d="M5.29 29.5l-.03 554.78a.87.84-27.6 01-.17.51q-.26.32.25.64a.57.49-26.1 00.27.07H585a.5.5 0 00.5-.5V5.73a.47.47 0 00-.47-.47l-556.78.03"/><path stroke="gray" vector-effect="non-scaling-stroke" d="M28.25 5.29l-22.44.02a.5.5 0 00-.5.5L5.29 29.5"/><path stroke="#fdfff1" vector-effect="non-scaling-stroke" d="M28.25 5.29q.44 1.39.08 2.96a1.22 1.2-8.8 01-.56.75c-8.6 5.05-13.28 8.47-17.58 17.32q-1.36 2.78-4.9 3.18"/><path stroke="#5d5f5f" vector-effect="non-scaling-stroke" d="M591 590.31l-.22-.12a.07.05 20.3 01-.03-.05V.67a.42.42 0 00-.42-.42h-.29M589.94 591q-5.13-.63-10.25 0M563.94 591q-21.38-.63-42.75 0M520.94 591q-3.38-.63-6.75 0M511.94 591q-2.88-.63-5.75 0M494.94 591q-3.38-.63-6.75 0M487.94 591q-2.88-.63-5.75 0M479.94 591q-3.88-.63-7.75 0M471.94 591q-3.88-.63-7.75 0M461.94 591q-2.88-.63-5.75 0M453.94 591q-9.88-.63-19.75 0M433.94 591q-24.88-.63-49.75 0M382.94 591q-11.38-.63-22.75 0M359.94 591q-10.88-.63-21.75 0M325.94 591q-2.88-.63-5.75 0M311.94 591q-3.88-.63-7.75 0M301.94 591l-61.69-.21M240.25 590.79l-109.83.02a.21.19-73.5 00-.17.1l-.06.09M127.94 591q-2.88-.63-5.75 0M119.94 591q-2.88-.63-5.75 0M112.44 591q-3.63-.63-7.25 0M104.94 591q-3.13-.63-6.25 0M95.94 591q-3.38-.63-6.75 0M85.94 591q-17.88-.63-35.75 0M37.94 591q-5.88-.63-11.75 0M22.94 591c-4.59-.19-21.93.22-22.94-.56"/><path stroke="#fbf3c9" vector-effect="non-scaling-stroke" d="M102.4 39.51c-1.53-2.13-38.44-1.2-43.21-1.01-11.52.45-21.43 6.72-21.43 19.29q-.01 22.44-.46 44.92a.3.29 76.5 00.43.27q2.98-1.56 4.86-3.39 30.06-29.43 59.75-59.35a.57.57 0 00.06-.73"/><path stroke="#7e7f71" vector-effect="non-scaling-stroke" d="M152.29 281.25l-5.25 20.5"/><path stroke="#8e8f80" vector-effect="non-scaling-stroke" d="M147.04 301.75c-1.9 7.82-4.25 14.94-7.88 22.16-3.86 7.68-3.93 15.81-.52 23.72 1.67 3.89 3.13 7.98 5.25 11.49 2.9 4.8 6.12 9.95 7.13 15.56 1.2 6.65 2.56 15.72 10.46 16.56 3.01.31 19.45 1.2 24.87-2.6a1.07 1.05-54.8 01.89-.16c4.06 1.12 8.13 3.11 12.24 3.8 3.28.54 7.52 1.89 9.7 2.32q13.78 2.78 27.82 2.62c12.18-.13 21.22-.93 31.32-6.06a.45.45 0 01.56.67q-5.54 7.43-8.93 16.06a1.98 1.96-8.2 01-.63.83c-3.11 2.36-4.03 5.06-5.45 9.42q-.14.46.25.19l3.51-2.38q1.08-.73.55.45l-6.41 14.43q-.18.41.24.25c2.64-1.02 6.63-8.01 8.29-10.51a.43.42-47.9 01.68-.04q.22.26 0 .68-5.17 9.97-7.94 18.29"/><path stroke="#7e7f71" vector-effect="non-scaling-stroke" d="M253.04 439.5c-4.71 10.41-10.27 21.31-13.62 32.21q-.12.4.12.06l6.21-9.06"/><path stroke="#8e8f80" vector-effect="non-scaling-stroke" d="M245.75 462.71q1.39 2.03.13 4.37c-4.42 8.2-9.42 18.96-10.05 28.34a.31.31 0 00.61.12q2.77-8.26 6.56-15.83"/><path stroke="#cbcec1" vector-effect="non-scaling-stroke" d="M243 479.71l.29.29"/><path stroke="#8e8f80" vector-effect="non-scaling-stroke" d="M243.29 480l-6.43 23.88a.55.55 0 001.03.39l4.77-9.51q.25-.5.29.06c.45 6.22-.62 13.78 1.11 19.65q2.38 8.06 5.87 15.67a1.28 1.23 43.8 01.04.94q-2.56 6.85-7.55 12.15a.99.98 26.5 01-.88.29q-5.41-.87-10.32 1.55a1.36 1.34 43.1 01-1.1.03l-2.36-1a1.56 1.5-38.3 00-.92-.09q-4.87.96-8.43 4.44a.92.92 0 01-.87.23c-5.85-1.43-13.62 5.9-11.52 11.86 1.7 4.8 5.56 8.74 10.94 8.39q.44-.03.82-.26l2-1.16a.72.72 0 01.84.09q5.51 4.95 11.28.29a.6.6 0 01.76 0c5.81 4.88 14.33 3.33 15.45-4.98a.49.49 0 01.55-.43c5.14.67 9.18-.14 13.73-.43 3.51-.23 7.08 1.16 10.81 1.67a.62.62 0 01.53.56c.55 7.54 8.98 7.29 14.33 6.34 4.42-.79 8.22-5.82 7.12-10.36q-2.12-8.76-9.79-12.71a.61.6-62.2 01-.25-.83l4.64-8.45q.42-.76.69.06 1.04 3.22 3.31 5.74.64.71.42-.22-2.14-8.94-1.42-18.09.36-4.63-2.05-17.9c-.36-2.01-1.41-3.77-.86-6.41a.37.37 0 01.73.04q.66 5.75 4.88 9.56a.66.65 3.9 00.98-.85q-3.42-4.97-3.29-11.08.02-.76.47-.14c1.77 2.41 4.65 7.55 7.24 8.85a.31.31 0 00.39-.46c-5.93-7.94-7.29-18.19-7.9-27.77-.3-4.84 7.6-15.17 10.64-19.09a.4.4 0 01.72.21q.52 5.23 3 9.84.36.66.41-.09l.58-9.19a.41.41 0 01.78-.14l1.66 3.79q.5 1.15.64-.09c.36-3.33.07-15.51 2.06-17.33a.46.45-39.5 01.68.06c1.39 1.9.2 5.83.59 8.15a.47.47 0 00.93.01c.83-4.57 1.12-11.19 3.29-15.11q1.86-3.36 9.86-13.56"/><path stroke="#7e7f71" vector-effect="non-scaling-stroke" d="M329.21 427.06q1.97 8.32 8.54 13.74a.33.33 0 00.49-.42c-4.44-7.52-6.94-13.32-5.58-22.93"/><path stroke="#8e8f80" vector-effect="non-scaling-stroke" d="M332.66 417.45q1.49 4.04 2.33 8.05c.53 2.5 1.57 4.23 3.18 5.97q.92.98.62-.33-2.17-9.62-1.72-19.48a.36.36 0 01.72-.05c.83 4.36 1.13 8.9 3.38 12.92q.19.35.21-.05l.46-10.93a.25.24 83.2 01.17-.22l.28-.09a.2.19 79.2 01.26.18q.25 16.28 10.7 28.74a.8.8 0 001.31-.89q-5.68-10.44-6.89-22.3a.44.44 0 01.82-.25c4.43 8.41 9.72 16.53 10.27 26.54q.48 8.79 2 17.53.13.77.3.01 1.85-8.46 2.38-17.09a.43.43 0 01.83-.11c2.06 6.18.49 11.25.72 17.42q.06 1.84.45.04l2.39-11.07a.3.3 0 01.49-.16c7.39 6.49 5.48 15.27 3.38 23.66a.28.28 0 00.51.22q3.81-6.09 4.46-13.24a.32.32 0 01.63-.01q1.33 10.99-.67 21.83-.18.95.39.17 5.04-6.87 4.67-15.5a.38.38 0 01.75-.12c2.02 7.65-.32 17.37-1.43 25.13q-.07.52.32.17 1.26-1.11 1.71-2.64"/><path stroke="#cbcec1" vector-effect="non-scaling-stroke" d="M383.04 491.5l.46.04"/><path stroke="#8e8f80" vector-effect="non-scaling-stroke" d="M383.5 491.54q-.33 10.95-4.53 20.94c-.41.97-2.25 7.86-1.46 8.32a.54.54 0 00.75-.22q5.07-9.68 9.05-19.85.2-.52.32.03.45 1.97.17 2.72-3.98 10.74-6.71 21.86c-1.09 4.42-3.31 7.96-5.3 11.96q-.45.9.19.12l6.05-7.33a.36.35 58.3 01.62.15l1.79 8.33a1.57 1.56 50.7 01-.09.93l-1.69 4.11a1.62 1.58 86.9 01-.68.78c-6.86 3.97-16.06 1.7-17.72 11.58q-1.88 11.21 9.18 13.86c7.63 1.82 9.38-2.1 12.73-7.65q1.16-1.94 5.23-3.51a.71.71 0 01.81.21q3.14 3.67 7.25 6.18a1.72 1.69 56.8 001.05.23l2.92-.32a.7.69 80.8 01.75.55c1.73 8.7 13.19 6.35 18 2.28a.76.75 40.7 01.87-.06q6.38 3.95 12.22-.83a.71.7 40.2 01.79-.06q5.28 3.15 9.8-1.1a.67.66 37 01.76-.1l1.39.72a1.3 1.28 52.2 00.9.12c8.53-1.95 8.3-16.99.2-14.07a.56.55 65.6 01-.67-.26q-2.37-4.38-7.27-3.32a1.34 1.34 0 01-1-.19c-2.74-1.8-5.54-2.69-7.56-5.4-1.92-2.58-4.02-4.76-4.55-8.41a1.77 1.76-70.5 00-.43-.91q-3.56-4.01-.63-8.88a.3.3 0 01.56.11q1.43 8.88 6.89 16.1a.53.53 0 00.91-.52q-4.05-9.69-4.75-20.18a.24.23-11.9 01.16-.23l.23-.08a.02.02 0 01.03.01l2.34 6.23a.42.42 0 00.8-.21q-3.11-19.93-3.76-40.03-.11-3.29.44-6.62a.36.36 0 01.52-.26q4.33 2.26 8.16-.5a.77.74 41.3 01.8-.04c2.06 1.15 7.39 2.68 9.13-.12q3.75-6.05 8.07-11.67c3.68-4.79 6.04-19.16 6.13-21.85q.6-17.66.94-22.37c.46-6.21 2.77-12.41 3.83-18.29q.78-4.31 1.19-7.39.53-3.99 1.92-.21 2.09 5.67 3.37 11.67a.35.35 0 00.69-.07q.04-6.41-1.54-12.83c-.63-2.61-2.23-5.5-2.99-8.44q-.14-.56.41-.38.61.2.59 1.01a.45.45 0 00.44.46h.33a.41.41 0 00.41-.42v-4.21q-.01-.83.61-.28l2.32 2.07q.39.35.43-.18.1-1.24-.57-2.86-2.72-6.63-5.08-13.39a.29.29 0 01.48-.31q3.97 3.96 8.99 6.54a.27.27 0 00.33-.41c-3.28-3.92-7.08-7.58-9.27-12.07-3.07-6.31-4.58-13.16-7.68-19.24q-2.14-4.19-4.18-8.44c-1.18-2.47.46-10.25.73-13.29a.32.31 35.3 01.6-.1l4.77 10.53q.29.64.36-.07c.76-7.92-1.37-11.14-5.4-17.57a.65.65 0 01.8-.95l5.47 2.21a.36.36 0 00.49-.28l.05-.3a.58.58 0 00-.31-.61q-5.12-2.61-8.14-7.49-.56-.9.46-.6l6.62 1.98a.37.37 0 00.48-.37c-.01-.26-.51-.82-.81-.96-8.49-3.92-14.85-13.55-15.15-23.24q-.02-.61.43-.19l7.01 6.57a.31.31 0 00.47-.39q-7.7-12.18-13.3-25.39c-3.24-7.64-9.5-13.66-13.68-20.93q-2.25-3.91-4.55-7.76a.27.27 0 01.37-.37l10.66 6.39a.58.58 0 00.69-.92L425 228.36q-.81-.75.3-.72l4.71.14a.55.55 0 00.39-.95l-9.23-8.62a.54.54 0 01-.17-.37l-.01-.29a.19.19 0 01.22-.19l2.04.28q1.13.16.43-.74l-9.3-12.09a.44.44 0 01.39-.71c.64.05 5.21.94 5.42.36a1.09 1.08 26.1 00-.45-1.31q-4.34-2.66-8.21-4.86c-4.09-2.33-8.1-7.26-12.07-8.5q-5.05-1.57-9.72-3.91-.44-.22.01-.42 19.25-8.15 17.67-29.71c-.91-12.4-11.66-19.54-23.13-20.48a.7.69-4.6 01-.62-.52q-2.42-9.41-10.23-14.52-3.6-2.35-5.24-3.85c-7.56-6.95-13.59-12.77-24.7-12.32q-4.41.18-8.81.41c-2.13.11-3.35-1.58-5.8-1.3-13.7 1.57-31.23 16.15-36.23 29.37a.81.8-83.4 01-.66.53c-9.67 1.32-18.14 10.21-18 20.18.14 10.17 5.65 21.67 17.37 20.55a.59.59 0 01.65.61l-.1 2.6a1.14 1.13 13.9 01-1.63.98c-5.58-2.7-10.81-1.3-17.1.71q-3.95 1.26-7.58 1.5-10.41.67-20.84.48-.4 0-.77.13l-.55.2a.47.47 0 00.04.9q8.07 2.1 16.41 2.12.55 0 .22.44-.14.19-.44.23-8.34 1.14-15.41 3.02a.31.3 60.8 00-.14.51c1.58 1.66 4.58 1.27 5.15 1.91q.35.4-.18.46l-10.85 1.15q-2.35.26-.01.59l5.06.71a.47.46-61.6 01.24.81q-5.33 4.71-11.22 8.5-2.51 1.62-4.61 3.92-8.46 9.23-18.24 12.94c-9.46 3.58-16.75 8.02-24.89 12.43-6.88 3.73-15.34 5.6-22.84 8.71a.46.46 0 00.09.87q3.7.77 7.24-.65a.41.41 0 01.57.36q.05.95-.93 1.52-14.29 8.29-21.76 23.44-.88 1.79.58.43l7.8-7.28a.29.29 0 01.44.36c-1.6 2.53-8.68 13.34-8.17 15.65q.16.76.66.17l3.21-3.81a.44.44 0 01.77.28l.05 9.55"/><path stroke="#5d5f5f" vector-effect="non-scaling-stroke" d="M383.5 491.54q.59-.69.53-1.48-.04-.64-.39-.1-.46.69-.6 1.54"/><path stroke="#10100f" vector-effect="non-scaling-stroke" d="M332.66 417.45c-.99.25-1.63.62-1.53 1.76q.38 4.37-1.92 7.85"/><path stroke="#5d5f5f" vector-effect="non-scaling-stroke" d="M243.29 480l1.67-3.24q.25-.5-.2-.17-1.5 1.12-1.76 3.12"/><path stroke="#10100f" vector-effect="non-scaling-stroke" d="M245.75 462.71q-.13-5.2 2.97-9.35.3-.39.36-.89c.5-3.97 3.3-7.79 5.01-11.43.28-.6.14-.77-.03-1.33a.49.48-15.4 00-.59-.33l-.43.12M147.04 301.75q2.04-.75 1.83-2.89-.05-.48.09-.95l4.55-14.98a.9.89 27.4 00-.31-.97l-.91-.71"/><path stroke="#5d5f5f" vector-effect="non-scaling-stroke" d="M332.23 179.71a.4.4 0 01-.56-.56c3.41-4.74 7.59-9.84 14.41-7.78q.77.24.31-.43l-3.02-4.37a1.01 1 75.3 00-.75-.44q-7.71-.59-15.4-.96c-3.83-.19-6.56 1.26-8.1 4.61a.87.87 0 00.83 1.23c4.38-.23 12.83 3.23 9.25 9a.42.42 0 01-.67.07l-2.91-3.07a1.24 1.21 69.9 00-.77-.37c-2.13-.17-6.72.39-8.83-.6a.59.59 0 00-.73.19q-4.35 6.11-4.62 13.61a1.6 1.59-84.2 001.31 1.62c5.93 1.08 12.79 3.08 18.28 3.02 8.43-.09 17.43-3.36 24.77-7.05a1.51 1.51 0 00.78-1.78l-3.37-11.45a.11.1 73.8 01.06-.12l.24-.08a.53.51-27.5 01.57.17l1.92 2.45a.56.56 0 00.76.11c9.46-6.75 18.29-15.9 9.95-27.99q-2.44-3.54-9.1-9.63a1.36 1.34-23.3 00-.87-.34c-8.95-.17-17.28 2.78-26.2 1.01-6.51-1.29-14.26-4.23-19.91.6-3.21 2.74-4.99 8.83-6.48 13.12q-.21.59.39.42 5.23-1.48 9.48-4.92a.54.54 0 00-.59-.9l-6.5 3.29a.4.39 8.9 01-.46-.63q9.56-9.55 19.69-1.22.4.32.89.46 4.15 1.17 8.33.47.46-.08.83-.37c6.59-5.11 13.95-8.12 21.72-3.29q1.18.74 1.25 2.01a.57.57 0 01-.49.6c-1.2.17-2.06.2-3.26-.31q-7.57-3.21-12.78 3.1-.36.43.19.52 8.4 1.36 16.4 4.19a.23.22-41.3 01-.03.43q-6.75 1.46-13.6 1.27-1.28-.04-.1.46l9.38 3.95a.77.77 0 01.2 1.29c-1.08.91-6.15.26-7.82.25q-.49-.01-.19.38c3.11 4 3.7 8.31-1.14 11.36a1.62 1.61-59.5 01-.96.25l-6.36-.34a1.63 1.63 0 00-1.02.29l-4.6 3.2M291.99 139.49c-10.38 4.51-17.04 16.73-5.93 25.07a.39.39 0 00.55-.54c-5.87-8.26-3.06-16.95 5.34-22.07q1.21-.75.7-2.17a.5.5 0 00-.66-.29M396.01 147.01c-.87-1.64-8.41-4.96-10-4.67a.61.61 0 00-.49.69l.64 4.17a.66.66 0 00.78.54q4.35-.87 8.78-.32.54.07.29-.41M388.61 169.19c.22-1.48 1.18-2.39 1.38-3.77q.39-2.61.11-5.25a1.53 1.48 19.6 00-.45-.91l-2.34-2.29a.29.28 32.2 00-.46.1q-3.15 8.02-3.53 16.65a.37.36-5.8 00.46.37c8.8-2.27 16.15-10.92 12.48-20.3-.71-1.8-2.09-2.37-3.83-1.57q-.47.22-.03.49 3.86 2.46 3.06 7.23c-.89 5.3-3.92 5.97-6.6 9.36q-.32.41-.25-.11"/><path stroke="#5d5f5f" vector-effect="non-scaling-stroke" d="M305.23 159.85c3.74 3.08 6.87.99 10.61-.45q1.16-.45.87-1.83a.5.49-8.5 00-.53-.39q-5.29.49-10.81 2.02-.7.19-.14.65M344.23 202.81c.08 2.18-6.23 5.18-8.1 6.37-2.66 1.69-6.27 6.4-2.56 9.13a1.09 1.09 0 001.67-.51l1.15-3.15q.44-1.21.73.05l.97 4.26a.66.65-32.8 001.16.25q3.49-4.53 5.21-9.96.2-.63.59-.09c1.32 1.87-.11 6.57-.41 8.88q-.07.5.36.23c10.08-6.45 10.92-14.78 11.13-26.08a.33.33 0 00-.45-.31q-7.24 2.87-14.14 6.53c-6.19 3.29-14.6 1.88-20.83-.66a1.26 1.25 10.2 00-1.73 1.2c.22 8.23 22.03 7.46 24.92 3.75q.31-.4.33.11M169.79 283.75c4.71-4.05 9.64-8.39 14.68-11.47 28.89-17.62 67.16-14.09 96.07 1.17 3.37 1.78 5.75 4.37 8.17 7.16a.38.37 11.4 00.62-.41c-6.19-12.35-17.06-26.4-29.05-32.44q-11.39-5.73-22.28-7.47"/><path stroke="#90908f" vector-effect="non-scaling-stroke" d="M238 240.29q-7.01-2.24-15.47-1.2c-20.44 2.52-38.04 10.97-50.52 27.38q-4.74 6.22-4.58 13.65c.06 2.78-.66 4.79-1.18 7.37a.36.36 0 00.64.28l2.9-4.02"/><path stroke="#cdcecf" vector-effect="non-scaling-stroke" d="M238 240.29c-.21 2.9 4.6 8.47 6.27 11.12q.39.61-.33.6l-5.01-.03a.96.95 74.4 01-.82-.47q-3.75-6.44-8.93-11.78a1.09 1.08 67.1 00-.8-.33l-5.1.12a.85.85 0 00-.57 1.46q4.86 4.65 7.18 10.98a.43.42-11.6 01-.38.57l-2.88.17a1.04 1.02 69.4 01-.9-.42q-3.06-4.13-6.25-8.31-3.7-4.83-9.25-1.21a.63.62 54.2 00-.14.91l8.35 10.43a.33.33 0 01-.18.52q-16.64 3.83-31.08 12.84c-1.62 1.01-3.75 1.77-5.02 2.69q-6.77 4.96-13.1 10.5a.73.72 58.8 00-.2.83l.93 2.27"/><path stroke="#90908f" vector-effect="non-scaling-stroke" d="M221.25 266.71c-16.94 1.36-43.53 10.94-51.5 27.33"/><path stroke="#10100f" vector-effect="non-scaling-stroke" d="M169.75 294.04l-1.1-.35a.5.49-71.6 00-.61.31c-1.84 5.12-4.24 10.69-3.89 16.19.59 9.5 2.3 20.7 8.35 28.27 2.01 2.52 2.84 5.43 4.99 7.92a1 1 0 00.84.35q.68-.05 1.21-.48"/><path stroke="#90908f" vector-effect="non-scaling-stroke" d="M179.54 346.25c10.78 13.86 22.63 24.06 38 31.14a.78.76-52.8 00.83-.12c5.26-4.62 11.44-3.76 16.51.56a1.11 1.11 0 00.87.25q13.5-2.07 26-7.37"/><path stroke="#5d5f5f" vector-effect="non-scaling-stroke" d="M261.75 370.71c8.44-2.04 15.32-8.31 20.5-15"/><path stroke="#10100f" vector-effect="non-scaling-stroke" d="M282.25 355.71c.52 1.29 1.53 1.02 2.2.08 6.31-8.81 2.86-20.15 5.94-30.17 4.09-13.31 5.3-27.59-3.1-39.6q-.99-1.42-2.29.02"/><path stroke="#5d5f5f" vector-effect="non-scaling-stroke" d="M285 286.04q-7.57-7.96-15.68-10.87c-16.51-5.92-30.52-9.64-48.07-8.46"/><path stroke="#4d4f50" vector-effect="non-scaling-stroke" d="M285 286.04c9.58 12.34 7.83 27.12 3.55 41.08-3.12 10.18.26 19.3-6.3 28.59"/><path stroke="#cdcecf" vector-effect="non-scaling-stroke" d="M261.75 370.71l-.33-.77a1.37 1.34-45.6 010-1.07l2.8-6.6a1.33 1.33 0 01.58-.64q7.76-4.13 12.38-11.59a1.12 1.12 0 00.16-.76c-.17-1.05.59-1.51.96-2.22q2.47-4.77 3.15-10.18a.61.6 9.7 00-.47-.65q-.31-.07-.69.02"/><path stroke="#5d5f5f" vector-effect="non-scaling-stroke" d="M280.29 336.25c2.92-12.13 5.97-23.35 3.35-35.91-.55-2.66-2.7-8.26-4.46-9.56q-10.49-7.71-22.78-11.79"/><path stroke="#cdcecf" vector-effect="non-scaling-stroke" d="M256.4 278.99q-13.26-8.32-28.5-11.91c-2.18-.51-4.39-.28-6.65-.37"/><path stroke="#10100f" vector-effect="non-scaling-stroke" d="M217.15 366.88q-4.11-3.5-9.03-5.76-2.01-.92-3.69-2.47c-2.87-2.67-6.35-4.53-8.68-7.19-2.77-3.16-4.93-6.43-7.66-9.98q-5.29-6.89-7.87-15.32a.34.34 0 00-.56-.14q-.42.41-.45.98M178.92 300.14q1.08-7.09 7.83-11.63 8.99-6.05 16.46-8.97.48-.19.06-.49-.86-.63-2.02-.84"/><path stroke="#90908f" vector-effect="non-scaling-stroke" d="M256.4 278.99q-10.18-3.47-19.65-3.94c-10.71-.53-24.88-.87-35.5 3.16"/><path stroke="gray" vector-effect="non-scaling-stroke" d="M201.25 278.21c-15.04 5.93-32.3 19.99-30.13 38.26a.19.19 0 00.37.05q3.22-8.56 7.43-16.38"/><path stroke="#90908f" vector-effect="non-scaling-stroke" d="M178.92 300.14l.78-.25q.64-.2.45.45-3.98 13.18-.94 26.66"/><path stroke="gray" vector-effect="non-scaling-stroke" d="M179.21 327c1.58 8.29 5.54 12.75 9.91 18.86 7.13 9.98 16.46 16.79 28.03 21.02"/><path stroke="#90908f" vector-effect="non-scaling-stroke" d="M217.15 366.88q1.93 1.38 4.79 1.72c17.63 2.05 32.87-.1 46.93-11.52 6.14-4.98 9.41-13.41 11.42-20.83"/><path stroke="gray" vector-effect="non-scaling-stroke" d="M179.54 346.25q-4.82-6.17-8.43-13.04c-3.79-7.21-4.81-16-5.51-24.08-.41-4.66 2.57-10.71 4.15-15.09"/><path stroke="#10100f" vector-effect="non-scaling-stroke" d="M424.06 360.51l-.42-3.39a1.34 1.33-30.7 01.24-.93c3.96-5.48 4.29-8.95 3.77-15.62q-.26-3.38-3.43-3.93"/><path stroke="#8e8f80" vector-effect="non-scaling-stroke" d="M424.22 336.64l-3.41-4.82a.47.46-51.8 00-.81.1l-3.9 9.45q-.4.96-.58-.07c-.36-2.09.78-3.94.78-5.88-.02-5.91.63-10.82-2.44-14.78q-.35-.45-.27.11.85 6.17.19 12.41a.33.33 0 01-.45.27c-.08-.03-1.13-3.56-1.59-4.67q-2.91-6.87-4.98-16.17c-1.55-6.96-1.27-16.69-7.9-21.32a.41.41 0 00-.64.37q.63 6.18 1.51 12.44c.41 2.9 1.71 5.33 2.62 8.14q.17.51-.18.1-5.71-6.85-7.65-15.5a.2.2 0 00-.38-.01l-2.74 8.64a1.03 1.03 0 00.15.94q3.99 5.35 4.66 12.11a.46.45-65.5 01-.82.31l-3.19-4.5a.41.4-47.8 00-.68.04c-.98 1.7 7.09 16.57 8.81 18.83q1.18 1.54.52 3.64a.42.42 0 01-.68.19l-2.28-1.96a.38.38 0 00-.61.38c1.52 6.01 7.15 13.2 10.81 18.31a.6.6 0 01-.83.84q-5.71-4.01-10.18-9.34-.58-.69-.32.17c.94 3.1 3.78 5.69 5.6 9.38 2.48 5.02 5.67 9.1 9.2 13.27a.4.4 0 01-.29.66c-1.94.09-6.25-3.52-7.87-4.75a.35.35 0 00-.5.48c6.97 9.67 10.95 20.06 15.76 30.88q2.26 5.09 3.43 13.01a.3.3 0 00.48.2c4.25-3.06 9.52-7.38 7.26-13.26q-1.74-4.49-3.34-9.05a.13.12-49.4 00-.24.02l-1.91 9.05q-.18.87-.36 0c-2-9.78-2.39-20.33.26-30.01q.66-2.39-.18-4.78"/><path stroke="#7e7f71" vector-effect="non-scaling-stroke" d="M424.22 336.64c2.25 4.47 1.56 8.47 1.52 13.33a1.71 1.65-29.5 01-.27.91c-3.14 4.88-8.56 17.79-6.44 23.36q.18.48.27-.03 1.21-7.13 4.76-13.7"/><path stroke="#5d5f5f" vector-effect="non-scaling-stroke" d="M152.04 318q1.2 3.81 5.21 3.96"/><path stroke="#10100f" vector-effect="non-scaling-stroke" d="M157.25 321.96l.94-.27a1.17 1.15-85.9 00.73-.64q1.46-3.14 1.03-6.61a1.45 1.43 16.3 00-.53-.95q-4.4-3.57-.52-7.97a1.91 1.89-20.1 00.42-.89c.37-2.06 1.76-6.05-.57-7.34"/><path stroke="#90908f" vector-effect="non-scaling-stroke" d="M158.75 297.29c-8.8.49-8.43 14.99-6.71 20.71"/><path stroke="gray" vector-effect="non-scaling-stroke" d="M158.75 297.29q.08 4.38-1.92 8.02"/><path stroke="#cdcecf" vector-effect="non-scaling-stroke" d="M156.83 305.31l-1.64-.42a.88.86-58.7 00-.83.21c-3.09 2.97-2.92 8.39-1.55 12.09a.57.56-21.4 01-.32.72q-.2.07-.45.09"/><path stroke="#4d4f50" vector-effect="non-scaling-stroke" d="M157.25 321.96l1.09-6.53a.88.87 25.9 00-.29-.82q-4.33-3.88-1.22-9.3"/><path stroke="#10100f" vector-effect="non-scaling-stroke" d="M172.29 353.25q.45.04.8-.15a.5.49 59.6 00.18-.71c-2.1-3.2-5.23-3.08-7.51-4.46-5.13-3.1-5.86-7.89-11.81-9.91a.56.55 19.8 00-.7.32q-.13.33 0 .62"/><path stroke="#5d5f5f" vector-effect="non-scaling-stroke" d="M153.25 338.96q-2.62-1.38-5.19-1.48a1.4 1.4 0 00-1.43 1.63l.9 5.17q.06.37-.21.11-2.6-2.48-3.47-6.03c-.05-.18-.2-.35-.39-.38a.33.33 0 00-.37.39c1.49 8.42 4.89 17.33 11.4 23.13 6 5.34 10.71 10.39 12.87 18.02.41 1.44 1.11 2.67 1.72 4.03a.47.47 0 00.64.23q.99-.49 1.54-.51 11.53-.25 22.78-3.17a2.17 2.16 76 001.56-2.61c-1.57-6.48-11.35-2.46-15.84-1.75-7.92 1.26-7.79-5.61-12.48-9.35-7.2-5.73-13.06-7.14-15.9-17.23a.3.3 0 01.47-.31l4.62 3.72q.41.33.67.8l.79 1.43a1.49 1.47 86.8 00.73.66q6.27 2.64 13.04 2.61a.52.52 0 00.51-.51l.08-4.31"/><path stroke="#4d4f50" vector-effect="non-scaling-stroke" d="M153.25 338.96q4.74 2.32 7.64 6.61c3.12 4.61 8.22 3.69 11.4 7.68"/><path stroke="#90908f" vector-effect="non-scaling-stroke" d="M183.2 359.94c.56 4.84 6.86 8.31 11.45 7.24q.21-.04.04-.17l-10.34-7.73a.72.72 0 00-1.15.66"/><path stroke="#5d5f5f" vector-effect="non-scaling-stroke" d="M279.51 368.82c-4.49 4.41-6.92 10.69-10.19 16.11a.5.5 0 00.19.7q.93.51 1.78-.37c7.31-7.6 13.87-11.78 15.78-22.73q.09-.5-.3-.18-3.78 3.06-7.26 6.47M160.65 383.66c.74 1.08 2.88 1.12 4.04 1.24q.49.06.19-.34-3.47-4.6-5.73-9.96a.55.55 0 00-1.06.17q-.31 4.67 2.56 8.89M222.5 383.79c2.3 7.13 12.16 2.97 10.89-3.84"/><path stroke="#90908f" vector-effect="non-scaling-stroke" d="M233.39 379.95q-1.53-3.86-5.16-4.4c-4.12-.62-9.28 4.38-5.73 8.24"/><path stroke="#cdcecf" vector-effect="non-scaling-stroke" d="M233.39 379.95c-4.03 5.61-8.77 1.75-10.89 3.84"/><path stroke="#90908f" vector-effect="non-scaling-stroke" d="M211.42 383.59q2.28 1.53 4.29 3.58.42.42.4-.17-.07-4.19 1.38-8.13a.52.52 0 00-.34-.68l-8.27-2.54a.39.39 0 00-.5.43c.44 3.06.2 5.63 3.04 7.51"/><path stroke="#5d5f5f" vector-effect="non-scaling-stroke" d="M259.51 378.91c-3.38.8-6.88 7.35-9.05 10.17a.41.4 22.6 00.27.64c1.83.25 3.01-.51 3.91-2.18q2.31-4.27 5.09-8.31.3-.44-.22-.32M237.81 383.99l-.79 5.72a.49.49 0 00.49.56l3.61-.08a.94.92 11.4 00.81-.53q1.79-3.74 4.82-6.55 1-.92-.35-.73l-8.16 1.18a.52.52 0 00-.43.43M430.75 410.04q-2.99 2.28-3.55 3.16-5.19 8.08-10.46 16.17a1.73 1.69-84 01-.77.64q-2.61 1.09-1.89 4.1a1.21 1.19-83.5 00.62.79c6.96 3.63 10.25-6.88 14.62-10.48 2.34-1.93 5.49-1.52 8.39-1.67"/><path stroke="#5d5f5f" vector-effect="non-scaling-stroke" d="M437.71 422.75c-4.88 5.21-2.51 10.3-5.33 15.92q-3.39 6.75-4.19 14.27c-.33 3.09-1.05 5.24-2.2 7.88a.49.49 0 01-.93-.09l-2.59-10.84a1.58 1.57 9.5 00-.68-.95q-3.76-2.37-6.71.71a1.41 1.41 0 00-.39 1q.09 5.44 2.14 10.44c1.26 3.08.95 6.15 1.87 9.38a1.31 1.3 7.8 00.6.78q2.76 1.63 6.03 1.93a1.54 1.53 31.7 00.91-.21c3.21-1.88 4.11-5.32 6.11-7.18q2.81-2.63 6.93-3.14.69-.08.34.52l-5.81 9.97a.93.93 0 00.96 1.38q1.42-.25 2.46-1.52 3.56-4.34 8.85-5.52a.7.7 0 01.72 1.08l-3.77 5.35a.33.33 0 00.18.51c1.7.46 2.65-.32 3.32-1.93q1.8-4.32 4.73-8.01c3.29-4.14 3.62-7.75 4.57-12.71 1.68-8.66 2.15-17.52 4.21-26.04q.12-.52-.28-.18-1.38 1.14-2.05 2.91-2.68 7.04-5.49 14.09-.61 1.51-.54-.11l.32-7.25a.56.56 0 00-1.08-.23l-4.12 10.46a.31.31 0 01-.6-.06c-.24-1.42-.83-2.71-.56-4.2q.84-4.53.92-9.17.01-.5-.22-.06-3.56 6.96-9.14 12.44-.36.36-.17-.12 4.41-11.29 6.52-18.73.28-.98.05-2.82-.07-.52-.43-.15c-1.36 1.4-2.27 4.85-3.48 5.6a.32.32 0 01-.49-.33c.76-4.62 4.72-28.34-8.45-17.78"/><path stroke="#9a9d9f" vector-effect="non-scaling-stroke" d="M437.71 422.75c.9-3.04 2.3-10 .59-13.2a.92.91 76.7 00-.77-.48q-3-.11-5.4 1.71a.77.76-45.3 01-.92.01q-.37-.26-.46-.75"/><path stroke="#5d5f5f" vector-effect="non-scaling-stroke" d="M273.04 552.76q1.83 2.91 4.89 4.5a1.45 1.41-85.6 01.7.84l1.68 5.47a1.19 1.17 82.3 001.08.84q3.25.13 6.34-.9a.79.78 80.5 00.53-.76q-.11-6.24-4.67-9.1-7.65-4.82-7.81-12.97c-.08-4.29-2.53-6.62-6.58-7.6a.19.19 0 00-.18.31c2.67 3.15 6.11 6.12 4.85 10.92q-.17.63-.58.13-1.88-2.25-4.6-3.4a1.68 1.64 86.3 01-.8-.72q-1.39-2.47-3.64-4.14-.92-.68-.42.35 2.82 5.82 6.65 11.03a.32.32 0 01-.41.47l-7.75-4.13a.27.27 0 00-.38.32l1.57 4.57a.37.36-80.5 01-.57.41q-6.08-4.81-7.27-12.54a.51.51 0 00-.97-.13c-1.59 3.67-5.9 12.01-10.1 13.09-4.36 1.11-14.67-1.75-10.53 7.63 1.51 3.4 2.43 8.43 7.73 6.4a.81.8 83.4 00.52-.66q.52-4.33-3.14-6.63a.6.59 39.9 01-.09-.94l1.17-1.05a.77.76 42.5 011-.04c3.43 2.72 8.86 2.83 12.67 2.32 6.57-.88 12.62-1.82 18.4.34a.68.68 0 00.91-.75l-.56-3.34q-.17-.98.36-.14M409.26 553.24c-1.25 3.17-1.45 10.92 2.72 12.48a1.24 1.2 42.7 00.88-.02q7.04-3.04 7.79-10.57a1.89 1.88-80.1 00-1.4-2l-5.94-1.54a.46.46 0 01-.27-.7q2.65-4.1 7.43-3.47c2.76.37 4.41 3.71 7.23.07a.54.54 0 00-.07-.73q-3.53-3.22-5.1-7.74a.42.42 0 00-.67-.19l-.35.3a.82.82 0 00-.28.84l.51 2.08q.21.84-.61.55-3.3-1.16-5.07-4.17a.6.6 0 00-1.12.29c-.04 1.86-.85 7.78-3.73 7.14a.59.59 0 01-.45-.64q.76-5.8-2.14-10.93a.17.17 0 00-.32.08q-.14 5.72-3.7 10.06a.74.74 0 01-1.31-.51l.28-5.11a.33.33 0 00-.62-.18q-4.5 8.08-13.28 10.99a.51.5 16.2 01-.48-.87q7.12-5.76 11.62-13.74a.4.4 0 00-.62-.5c-3.57 3.25-7.6 4.81-11.29 7.69a1.1 1.08 73.4 00-.42.8c-.48 8.74-10.75 9.86-17.1 12.24a1.1 1.09-.7 00-.64.65c-2 5.49 1.59 6.48 5.77 7.51a2.1 2.09 16.9 002.48-1.32c.76-2.16 1.37-4.24 3.28-5.61q6.94-4.92 14.96-.7c2.47 1.3 4.86 3.6 7.89 2.1a1.39 1.36 87.4 00.67-.75q.94-2.58 3.25-4.06.39-.25.22.18M223.68 561.99c1.16 1.36 2.46 1.42 4.12 1.25a.5.5 0 00.45-.55l-.99-10.97a.93.93 0 00-1.46-.67q-7.19 5.04-2.12 10.94M426.52 562.37c6.32 2.97 6.82-7.23 5.22-10.74a.71.71 0 00-.74-.41q-2.11.29-3.68 1.84a1.02 1 65.3 00-.29.8q.33 3.78-1.01 7.27a.98.98 0 00.5 1.24M440.16 553.85l-.82.98a.89.88-32 00-.19.79q.66 2.68-.52 5.18a.88.88 0 001.38 1.04l3.27-2.89a1.08 1.05-25.6 00.35-.96q-.4-2.49-2.3-4.22a.81.8 41 00-1.17.08M214.5 555.96c-3.48 1.74-.77 5.4 1.21 6.79q.77.54.39-.32-1.31-2.93-1.1-6.13.04-.61-.5-.34"/><path stroke="#10100f" vector-effect="non-scaling-stroke" d="M199.79 291q.08-.55-.07-1.04a.43.42-23.3 00-.62-.24q-4.98 2.97-8.32 7.59c-4.2 5.8-2.46 16.46-.2 22.72a.71.69 79.5 00.67.47h.46"/><path stroke="#5d5f5f" vector-effect="non-scaling-stroke" d="M191.71 320.5q.16.19.39.26a.8.8 0 00.84-.25c6.59-7.83 18.87-12.23 28.56-13.78q3.34-.54 11.7 1.39a.71.69-70 00.79-.38q5.7-11.55 2.26-24.12a.88.86 86.7 00-.69-.63q-19.7-3.27-35.77 8.01"/><path stroke="#4d4f50" vector-effect="non-scaling-stroke" d="M191.71 320.5q-2.25-8.59-1.45-17.5c.47-5.17 5.61-8.84 9.53-12"/><path stroke="#5d5f5f" vector-effect="non-scaling-stroke" d="M240.54 297.53a.95.52 101.5 00.7-.826.95.52 101.5 00-.32-1.035.95.52 101.5 00-.7.827.95.52 101.5 00.32 1.035M233.86 321.36c.54-.86-.03-2.28-1.03-2.68a.44.44 0 00-.56.6l1.01 2.05q.27.53.58.03M250.44 360.43q7.05-.21 12.18-5.27c6.11-6.04 6-7.03 5.84-15.88a.87.87 0 00-1.67-.34c-4.12 9.2-9.29 14.4-16.49 21.15q-.37.35.14.34"/><path stroke="#20201e" vector-effect="non-scaling-stroke" d="M240.25 590.79l-.06.21"/></g><path d="M0 0h590.06l-.02.25q.23 2.62.23 5.25-.02 292.09-.02 584.21a.53.53 0 01-.53.53q-293.53.03-587.03 0-1.78 0-2.69-.3V0zm5.29 29.5l-.03 554.78a.87.84-27.6 01-.17.51q-.26.32.25.64a.57.49-26.1 00.27.07H585a.5.5 0 00.5-.5V5.73a.47.47 0 00-.47-.47l-556.78.03-22.44.02a.5.5 0 00-.5.5L5.29 29.5z"/><path fill="#20201e" d="M590.06 0h.94v590.31l-.22-.12a.07.05 20.3 01-.03-.05V.67a.42.42 0 00-.42-.42h-.29l.02-.25z"/><path fill="#9a9d9f" d="M590.04.25h.29a.42.42 0 01.42.42v589.47a.07.05 20.3 00.03.05l.22.12v.69h-1.06q-5.13-.63-10.25 0h-15.75q-21.38-.63-42.75 0h-.25q-3.38-.63-6.75 0h-2.25q-2.88-.63-5.75 0h-11.25q-3.38-.63-6.75 0h-.25q-2.88-.63-5.75 0h-2.25q-3.88-.63-7.75 0h-.25q-3.88-.63-7.75 0h-2.25q-2.88-.63-5.75 0h-2.25q-9.88-.63-19.75 0h-.25q-24.88-.63-49.75 0h-1.25q-11.38-.63-22.75 0h-.25q-10.88-.63-21.75 0h-12.25q-2.88-.63-5.75 0h-8.25q-3.88-.63-7.75 0h-2.25l-61.69-.21-109.83.02a.21.19-73.5 00-.17.1l-.06.09h-2.25q-2.88-.63-5.75 0h-2.25q-2.88-.63-5.75 0h-1.75q-3.63-.63-7.25 0h-.25q-3.13-.63-6.25 0h-2.75q-3.38-.63-6.75 0h-3.25q-17.88-.63-35.75 0H37.94q-5.88-.63-11.75 0h-3.25c-4.59-.19-21.93.22-22.94-.56v-.5q.91.3 2.69.3 293.5.03 587.03 0a.53.53 0 00.53-.53q0-292.12.02-584.21 0-2.63-.23-5.25z"/><path fill="#fff" d="M28.25 5.29q.44 1.39.08 2.96a1.22 1.2-8.8 01-.56.75c-8.6 5.05-13.28 8.47-17.58 17.32q-1.36 2.78-4.9 3.18l.02-23.69a.5.5 0 01.5-.5l22.44-.02z"/><path fill="#fbfee2" d="M28.25 5.29l556.78-.03a.47.47 0 01.47.47V585a.5.5 0 01-.5.5H5.61a.57.49-26.1 01-.27-.07q-.51-.32-.25-.64a.87.84-27.6 00.17-.51L5.29 29.5q3.54-.4 4.9-3.18c4.3-8.85 8.98-12.27 17.58-17.32a1.22 1.2-8.8 00.56-.75q.36-1.57-.08-2.96zm74.15 34.22c-1.53-2.13-38.44-1.2-43.21-1.01-11.52.45-21.43 6.72-21.43 19.29q-.01 22.44-.46 44.92a.3.29 76.5 00.43.27q2.98-1.56 4.86-3.39 30.06-29.43 59.75-59.35a.57.57 0 00.06-.73zm49.89 241.74l-5.25 20.5c-1.9 7.82-4.25 14.94-7.88 22.16-3.86 7.68-3.93 15.81-.52 23.72 1.67 3.89 3.13 7.98 5.25 11.49 2.9 4.8 6.12 9.95 7.13 15.56 1.2 6.65 2.56 15.72 10.46 16.56 3.01.31 19.45 1.2 24.87-2.6a1.07 1.05-54.8 01.89-.16c4.06 1.12 8.13 3.11 12.24 3.8 3.28.54 7.52 1.89 9.7 2.32q13.78 2.78 27.82 2.62c12.18-.13 21.22-.93 31.32-6.06a.45.45 0 01.56.67q-5.54 7.43-8.93 16.06a1.98 1.96-8.2 01-.63.83c-3.11 2.36-4.03 5.06-5.45 9.42q-.14.46.25.19l3.51-2.38q1.08-.73.55.45l-6.41 14.43q-.18.41.24.25c2.64-1.02 6.63-8.01 8.29-10.51a.43.42-47.9 01.68-.04q.22.26 0 .68-5.17 9.97-7.94 18.29c-4.71 10.41-10.27 21.31-13.62 32.21q-.12.4.12.06l6.21-9.06q1.39 2.03.13 4.37c-4.42 8.2-9.42 18.96-10.05 28.34a.31.31 0 00.61.12q2.77-8.26 6.56-15.83l.29.29-6.43 23.88a.55.55 0 001.03.39l4.77-9.51q.25-.5.29.06c.45 6.22-.62 13.78 1.11 19.65q2.38 8.06 5.87 15.67a1.28 1.23 43.8 01.04.94q-2.56 6.85-7.55 12.15a.99.98 26.5 01-.88.29q-5.41-.87-10.32 1.55a1.36 1.34 43.1 01-1.1.03l-2.36-1a1.56 1.5-38.3 00-.92-.09q-4.87.96-8.43 4.44a.92.92 0 01-.87.23c-5.85-1.43-13.62 5.9-11.52 11.86 1.7 4.8 5.56 8.74 10.94 8.39q.44-.03.82-.26l2-1.16a.72.72 0 01.84.09q5.51 4.95 11.28.29a.6.6 0 01.76 0c5.81 4.88 14.33 3.33 15.45-4.98a.49.49 0 01.55-.43c5.14.67 9.18-.14 13.73-.43 3.51-.23 7.08 1.16 10.81 1.67a.62.62 0 01.53.56c.55 7.54 8.98 7.29 14.33 6.34 4.42-.79 8.22-5.82 7.12-10.36q-2.12-8.76-9.79-12.71a.61.6-62.2 01-.25-.83l4.64-8.45q.42-.76.69.06 1.04 3.22 3.31 5.74.64.71.42-.22-2.14-8.94-1.42-18.09.36-4.63-2.05-17.9c-.36-2.01-1.41-3.77-.86-6.41a.37.37 0 01.73.04q.66 5.75 4.88 9.56a.66.65 3.9 00.98-.85q-3.42-4.97-3.29-11.08.02-.76.47-.14c1.77 2.41 4.65 7.55 7.24 8.85a.31.31 0 00.39-.46c-5.93-7.94-7.29-18.19-7.9-27.77-.3-4.84 7.6-15.17 10.64-19.09a.4.4 0 01.72.21q.52 5.23 3 9.84.36.66.41-.09l.58-9.19a.41.41 0 01.78-.14l1.66 3.79q.5 1.15.64-.09c.36-3.33.07-15.51 2.06-17.33a.46.45-39.5 01.68.06c1.39 1.9.2 5.83.59 8.15a.47.47 0 00.93.01c.83-4.57 1.12-11.19 3.29-15.11q1.86-3.36 9.86-13.56 1.97 8.32 8.54 13.74a.33.33 0 00.49-.42c-4.44-7.52-6.94-13.32-5.58-22.93q1.49 4.04 2.33 8.05c.53 2.5 1.57 4.23 3.18 5.97q.92.98.62-.33-2.17-9.62-1.72-19.48a.36.36 0 01.72-.05c.83 4.36 1.13 8.9 3.38 12.92q.19.35.21-.05l.46-10.93a.25.24 83.2 01.17-.22l.28-.09a.2.19 79.2 01.26.18q.25 16.28 10.7 28.74a.8.8 0 001.31-.89q-5.68-10.44-6.89-22.3a.44.44 0 01.82-.25c4.43 8.41 9.72 16.53 10.27 26.54q.48 8.79 2 17.53.13.77.3.01 1.85-8.46 2.38-17.09a.43.43 0 01.83-.11c2.06 6.18.49 11.25.72 17.42q.06 1.84.45.04l2.39-11.07a.3.3 0 01.49-.16c7.39 6.49 5.48 15.27 3.38 23.66a.28.28 0 00.51.22q3.81-6.09 4.46-13.24a.32.32 0 01.63-.01q1.33 10.99-.67 21.83-.18.95.39.17 5.04-6.87 4.67-15.5a.38.38 0 01.75-.12c2.02 7.65-.32 17.37-1.43 25.13q-.07.52.32.17 1.26-1.11 1.71-2.64l.46.04q-.33 10.95-4.53 20.94c-.41.97-2.25 7.86-1.46 8.32a.54.54 0 00.75-.22q5.07-9.68 9.05-19.85.2-.52.32.03.45 1.97.17 2.72-3.98 10.74-6.71 21.86c-1.09 4.42-3.31 7.96-5.3 11.96q-.45.9.19.12l6.05-7.33a.36.35 58.3 01.62.15l1.79 8.33a1.57 1.56 50.7 01-.09.93l-1.69 4.11a1.62 1.58 86.9 01-.68.78c-6.86 3.97-16.06 1.7-17.72 11.58q-1.88 11.21 9.18 13.86c7.63 1.82 9.38-2.1 12.73-7.65q1.16-1.94 5.23-3.51a.71.71 0 01.81.21q3.14 3.67 7.25 6.18a1.72 1.69 56.8 001.05.23l2.92-.32a.7.69 80.8 01.75.55c1.73 8.7 13.19 6.35 18 2.28a.76.75 40.7 01.87-.06q6.38 3.95 12.22-.83a.71.7 40.2 01.79-.06q5.28 3.15 9.8-1.1a.67.66 37 01.76-.1l1.39.72a1.3 1.28 52.2 00.9.12c8.53-1.95 8.3-16.99.2-14.07a.56.55 65.6 01-.67-.26q-2.37-4.38-7.27-3.32a1.34 1.34 0 01-1-.19c-2.74-1.8-5.54-2.69-7.56-5.4-1.92-2.58-4.02-4.76-4.55-8.41a1.77 1.76-70.5 00-.43-.91q-3.56-4.01-.63-8.88a.3.3 0 01.56.11q1.43 8.88 6.89 16.1a.53.53 0 00.91-.52q-4.05-9.69-4.75-20.18a.24.23-11.9 01.16-.23l.23-.08a.02.02 0 01.03.01l2.34 6.23a.42.42 0 00.8-.21q-3.11-19.93-3.76-40.03-.11-3.29.44-6.62a.36.36 0 01.52-.26q4.33 2.26 8.16-.5a.77.74 41.3 01.8-.04c2.06 1.15 7.39 2.68 9.13-.12q3.75-6.05 8.07-11.67c3.68-4.79 6.04-19.16 6.13-21.85q.6-17.66.94-22.37c.46-6.21 2.77-12.41 3.83-18.29q.78-4.31 1.19-7.39.53-3.99 1.92-.21 2.09 5.67 3.37 11.67a.35.35 0 00.69-.07q.04-6.41-1.54-12.83c-.63-2.61-2.23-5.5-2.99-8.44q-.14-.56.41-.38.61.2.59 1.01a.45.45 0 00.44.46h.33a.41.41 0 00.41-.42v-4.21q-.01-.83.61-.28l2.32 2.07q.39.35.43-.18.1-1.24-.57-2.86-2.72-6.63-5.08-13.39a.29.29 0 01.48-.31q3.97 3.96 8.99 6.54a.27.27 0 00.33-.41c-3.28-3.92-7.08-7.58-9.27-12.07-3.07-6.31-4.58-13.16-7.68-19.24q-2.14-4.19-4.18-8.44c-1.18-2.47.46-10.25.73-13.29a.32.31 35.3 01.6-.1l4.77 10.53q.29.64.36-.07c.76-7.92-1.37-11.14-5.4-17.57a.65.65 0 01.8-.95l5.47 2.21a.36.36 0 00.49-.28l.05-.3a.58.58 0 00-.31-.61q-5.12-2.61-8.14-7.49-.56-.9.46-.6l6.62 1.98a.37.37 0 00.48-.37c-.01-.26-.51-.82-.81-.96-8.49-3.92-14.85-13.55-15.15-23.24q-.02-.61.43-.19l7.01 6.57a.31.31 0 00.47-.39q-7.7-12.18-13.3-25.39c-3.24-7.64-9.5-13.66-13.68-20.93q-2.25-3.91-4.55-7.76a.27.27 0 01.37-.37l10.66 6.39a.58.58 0 00.69-.92L425 228.36q-.81-.75.3-.72l4.71.14a.55.55 0 00.39-.95l-9.23-8.62a.54.54 0 01-.17-.37l-.01-.29a.19.19 0 01.22-.19l2.04.28q1.13.16.43-.74l-9.3-12.09a.44.44 0 01.39-.71c.64.05 5.21.94 5.42.36a1.09 1.08 26.1 00-.45-1.31q-4.34-2.66-8.21-4.86c-4.09-2.33-8.1-7.26-12.07-8.5q-5.05-1.57-9.72-3.91-.44-.22.01-.42 19.25-8.15 17.67-29.71c-.91-12.4-11.66-19.54-23.13-20.48a.7.69-4.6 01-.62-.52q-2.42-9.41-10.23-14.52-3.6-2.35-5.24-3.85c-7.56-6.95-13.59-12.77-24.7-12.32q-4.41.18-8.81.41c-2.13.11-3.35-1.58-5.8-1.3-13.7 1.57-31.23 16.15-36.23 29.37a.81.8-83.4 01-.66.53c-9.67 1.32-18.14 10.21-18 20.18.14 10.17 5.65 21.67 17.37 20.55a.59.59 0 01.65.61l-.1 2.6a1.14 1.13 13.9 01-1.63.98c-5.58-2.7-10.81-1.3-17.1.71q-3.95 1.26-7.58 1.5-10.41.67-20.84.48-.4 0-.77.13l-.55.2a.47.47 0 00.04.9q8.07 2.1 16.41 2.12.55 0 .22.44-.14.19-.44.23-8.34 1.14-15.41 3.02a.31.3 60.8 00-.14.51c1.58 1.66 4.58 1.27 5.15 1.91q.35.4-.18.46l-10.85 1.15q-2.35.26-.01.59l5.06.71a.47.46-61.6 01.24.81q-5.33 4.71-11.22 8.5-2.51 1.62-4.61 3.92-8.46 9.23-18.24 12.94c-9.46 3.58-16.75 8.02-24.89 12.43-6.88 3.73-15.34 5.6-22.84 8.71a.46.46 0 00.09.87q3.7.77 7.24-.65a.41.41 0 01.57.36q.05.95-.93 1.52-14.29 8.29-21.76 23.44-.88 1.79.58.43l7.8-7.28a.29.29 0 01.44.36c-1.6 2.53-8.68 13.34-8.17 15.65q.16.76.66.17l3.21-3.81a.44.44 0 01.77.28l.05 9.55z"/><path fill="#fbe8af" d="M59.19 38.5c4.77-.19 41.68-1.12 43.21 1.01a.57.57 0 01-.06.73Q72.65 70.16 42.59 99.59q-1.88 1.83-4.86 3.39a.3.29 76.5 01-.43-.27q.45-22.48.46-44.92c0-12.57 9.91-18.84 21.43-19.29z"/><path fill="#20201e" d="M383.5 491.54q.59-.69.53-1.48-.04-.64-.39-.1-.46.69-.6 1.54-.45 1.53-1.71 2.64-.39.35-.32-.17c1.11-7.76 3.45-17.48 1.43-25.13a.38.38 0 00-.75.12q.37 8.63-4.67 15.5-.57.78-.39-.17 2-10.84.67-21.83a.32.32 0 00-.63.01q-.65 7.15-4.46 13.24a.28.28 0 01-.51-.22c2.1-8.39 4.01-17.17-3.38-23.66a.3.3 0 00-.49.16l-2.39 11.07q-.39 1.8-.45-.04c-.23-6.17 1.34-11.24-.72-17.42a.43.43 0 00-.83.11q-.53 8.63-2.38 17.09-.17.76-.3-.01-1.52-8.74-2-17.53c-.55-10.01-5.84-18.13-10.27-26.54a.44.44 0 00-.82.25q1.21 11.86 6.89 22.3a.8.8 0 01-1.31.89q-10.45-12.46-10.7-28.74a.2.19 79.2 00-.26-.18l-.28.09a.25.24 83.2 00-.17.22l-.46 10.93q-.02.4-.21.05c-2.25-4.02-2.55-8.56-3.38-12.92a.36.36 0 00-.72.05q-.45 9.86 1.72 19.48.3 1.31-.62.33c-1.61-1.74-2.65-3.47-3.18-5.97q-.84-4.01-2.33-8.05c-.99.25-1.63.62-1.53 1.76q.38 4.37-1.92 7.85-8 10.2-9.86 13.56c-2.17 3.92-2.46 10.54-3.29 15.11a.47.47 0 01-.93-.01c-.39-2.32.8-6.25-.59-8.15a.46.45-39.5 00-.68-.06c-1.99 1.82-1.7 14-2.06 17.33q-.14 1.24-.64.09l-1.66-3.79a.41.41 0 00-.78.14l-.58 9.19q-.05.75-.41.09-2.48-4.61-3-9.84a.4.4 0 00-.72-.21c-3.04 3.92-10.94 14.25-10.64 19.09.61 9.58 1.97 19.83 7.9 27.77a.31.31 0 01-.39.46c-2.59-1.3-5.47-6.44-7.24-8.85q-.45-.62-.47.14-.13 6.11 3.29 11.08a.66.65 3.9 01-.98.85q-4.22-3.81-4.88-9.56a.37.37 0 00-.73-.04c-.55 2.64.5 4.4.86 6.41q2.41 13.27 2.05 17.9-.72 9.15 1.42 18.09.22.93-.42.22-2.27-2.52-3.31-5.74-.27-.82-.69-.06l-4.64 8.45a.61.6-62.2 00.25.83q7.67 3.95 9.79 12.71c1.1 4.54-2.7 9.57-7.12 10.36-5.35.95-13.78 1.2-14.33-6.34a.62.62 0 00-.53-.56c-3.73-.51-7.3-1.9-10.81-1.67-4.55.29-8.59 1.1-13.73.43a.49.49 0 00-.55.43c-1.12 8.31-9.64 9.86-15.45 4.98a.6.6 0 00-.76 0q-5.77 4.66-11.28-.29a.72.72 0 00-.84-.09l-2 1.16q-.38.23-.82.26c-5.38.35-9.24-3.59-10.94-8.39-2.1-5.96 5.67-13.29 11.52-11.86a.92.92 0 00.87-.23q3.56-3.48 8.43-4.44a1.56 1.5-38.3 01.92.09l2.36 1a1.36 1.34 43.1 001.1-.03q4.91-2.42 10.32-1.55a.99.98 26.5 00.88-.29q4.99-5.3 7.55-12.15a1.28 1.23 43.8 00-.04-.94q-3.49-7.61-5.87-15.67c-1.73-5.87-.66-13.43-1.11-19.65q-.04-.56-.29-.06l-4.77 9.51a.55.55 0 01-1.03-.39l6.43-23.88 1.67-3.24q.25-.5-.2-.17-1.5 1.12-1.76 3.12-3.79 7.57-6.56 15.83a.31.31 0 01-.61-.12c.63-9.38 5.63-20.14 10.05-28.34q1.26-2.34-.13-4.37-.13-5.2 2.97-9.35.3-.39.36-.89c.5-3.97 3.3-7.79 5.01-11.43.28-.6.14-.77-.03-1.33a.49.48-15.4 00-.59-.33l-.43.12q2.77-8.32 7.94-18.29.22-.42 0-.68a.43.42-47.9 00-.68.04c-1.66 2.5-5.65 9.49-8.29 10.51q-.42.16-.24-.25l6.41-14.43q.53-1.18-.55-.45l-3.51 2.38q-.39.27-.25-.19c1.42-4.36 2.34-7.06 5.45-9.42a1.98 1.96-8.2 00.63-.83q3.39-8.63 8.93-16.06a.45.45 0 00-.56-.67c-10.1 5.13-19.14 5.93-31.32 6.06q-14.04.16-27.82-2.62c-2.18-.43-6.42-1.78-9.7-2.32-4.11-.69-8.18-2.68-12.24-3.8a1.07 1.05-54.8 00-.89.16c-5.42 3.8-21.86 2.91-24.87 2.6-7.9-.84-9.26-9.91-10.46-16.56-1.01-5.61-4.23-10.76-7.13-15.56-2.12-3.51-3.58-7.6-5.25-11.49-3.41-7.91-3.34-16.04.52-23.72 3.63-7.22 5.98-14.34 7.88-22.16q2.04-.75 1.83-2.89-.05-.48.09-.95l4.55-14.98a.9.89 27.4 00-.31-.97l-.91-.71-.05-9.55a.44.44 0 00-.77-.28l-3.21 3.81q-.5.59-.66-.17c-.51-2.31 6.57-13.12 8.17-15.65a.29.29 0 00-.44-.36l-7.8 7.28q-1.46 1.36-.58-.43 7.47-15.15 21.76-23.44.98-.57.93-1.52a.41.41 0 00-.57-.36q-3.54 1.42-7.24.65a.46.46 0 01-.09-.87c7.5-3.11 15.96-4.98 22.84-8.71 8.14-4.41 15.43-8.85 24.89-12.43q9.78-3.71 18.24-12.94 2.1-2.3 4.61-3.92 5.89-3.79 11.22-8.5a.47.46-61.6 00-.24-.81l-5.06-.71q-2.34-.33.01-.59l10.85-1.15q.53-.06.18-.46c-.57-.64-3.57-.25-5.15-1.91a.31.3 60.8 01.14-.51q7.07-1.88 15.41-3.02.3-.04.44-.23.33-.44-.22-.44-8.34-.02-16.41-2.12a.47.47 0 01-.04-.9l.55-.2q.37-.13.77-.13 10.43.19 20.84-.48 3.63-.24 7.58-1.5c6.29-2.01 11.52-3.41 17.1-.71a1.14 1.13 13.9 001.63-.98l.1-2.6a.59.59 0 00-.65-.61c-11.72 1.12-17.23-10.38-17.37-20.55-.14-9.97 8.33-18.86 18-20.18a.81.8-83.4 00.66-.53c5-13.22 22.53-27.8 36.23-29.37 2.45-.28 3.67 1.41 5.8 1.3q4.4-.23 8.81-.41c11.11-.45 17.14 5.37 24.7 12.32q1.64 1.5 5.24 3.85 7.81 5.11 10.23 14.52a.7.69-4.6 00.62.52c11.47.94 22.22 8.08 23.13 20.48q1.58 21.56-17.67 29.71-.45.2-.01.42 4.67 2.34 9.72 3.91c3.97 1.24 7.98 6.17 12.07 8.5q3.87 2.2 8.21 4.86a1.09 1.08 26.1 01.45 1.31c-.21.58-4.78-.31-5.42-.36a.44.44 0 00-.39.71l9.3 12.09q.7.9-.43.74l-2.04-.28a.19.19 0 00-.22.19l.01.29a.54.54 0 00.17.37l9.23 8.62a.55.55 0 01-.39.95l-4.71-.14q-1.11-.03-.3.72l13.75 12.69a.58.58 0 01-.69.92l-10.66-6.39a.27.27 0 00-.37.37q2.3 3.85 4.55 7.76c4.18 7.27 10.44 13.29 13.68 20.93q5.6 13.21 13.3 25.39a.31.31 0 01-.47.39l-7.01-6.57q-.45-.42-.43.19c.3 9.69 6.66 19.32 15.15 23.24.3.14.8.7.81.96a.37.37 0 01-.48.37l-6.62-1.98q-1.02-.3-.46.6 3.02 4.88 8.14 7.49a.58.58 0 01.31.61l-.05.3a.36.36 0 01-.49.28l-5.47-2.21a.65.65 0 00-.8.95c4.03 6.43 6.16 9.65 5.4 17.57q-.07.71-.36.07l-4.77-10.53a.32.31 35.3 00-.6.1c-.27 3.04-1.91 10.82-.73 13.29q2.04 4.25 4.18 8.44c3.1 6.08 4.61 12.93 7.68 19.24 2.19 4.49 5.99 8.15 9.27 12.07a.27.27 0 01-.33.41q-5.02-2.58-8.99-6.54a.29.29 0 00-.48.31q2.36 6.76 5.08 13.39.67 1.62.57 2.86-.04.53-.43.18l-2.32-2.07q-.62-.55-.61.28v4.21a.41.41 0 01-.41.42h-.33a.45.45 0 01-.44-.46q.02-.81-.59-1.01-.55-.18-.41.38c.76 2.94 2.36 5.83 2.99 8.44q1.58 6.42 1.54 12.83a.35.35 0 01-.69.07q-1.28-6-3.37-11.67-1.39-3.78-1.92.21-.41 3.08-1.19 7.39c-1.06 5.88-3.37 12.08-3.83 18.29q-.34 4.71-.94 22.37c-.09 2.69-2.45 17.06-6.13 21.85q-4.32 5.62-8.07 11.67c-1.74 2.8-7.07 1.27-9.13.12a.77.74 41.3 00-.8.04q-3.83 2.76-8.16.5a.36.36 0 00-.52.26q-.55 3.33-.44 6.62.65 20.1 3.76 40.03a.42.42 0 01-.8.21l-2.34-6.23a.02.02 0 00-.03-.01l-.23.08a.24.23-11.9 00-.16.23q.7 10.49 4.75 20.18a.53.53 0 01-.91.52q-5.46-7.22-6.89-16.1a.3.3 0 00-.56-.11q-2.93 4.87.63 8.88a1.77 1.76-70.5 01.43.91c.53 3.65 2.63 5.83 4.55 8.41 2.02 2.71 4.82 3.6 7.56 5.4a1.34 1.34 0 001 .19q4.9-1.06 7.27 3.32a.56.55 65.6 00.67.26c8.1-2.92 8.33 12.12-.2 14.07a1.3 1.28 52.2 01-.9-.12l-1.39-.72a.67.66 37 00-.76.1q-4.52 4.25-9.8 1.1a.71.7 40.2 00-.79.06q-5.84 4.78-12.22.83a.76.75 40.7 00-.87.06c-4.81 4.07-16.27 6.42-18-2.28a.7.69 80.8 00-.75-.55l-2.92.32a1.72 1.69 56.8 01-1.05-.23q-4.11-2.51-7.25-6.18a.71.71 0 00-.81-.21q-4.07 1.57-5.23 3.51c-3.35 5.55-5.1 9.47-12.73 7.65q-11.06-2.65-9.18-13.86c1.66-9.88 10.86-7.61 17.72-11.58a1.62 1.58 86.9 00.68-.78l1.69-4.11a1.57 1.56 50.7 00.09-.93l-1.79-8.33a.36.35 58.3 00-.62-.15l-6.05 7.33q-.64.78-.19-.12c1.99-4 4.21-7.54 5.3-11.96q2.73-11.12 6.71-21.86.28-.75-.17-2.72-.12-.55-.32-.03-3.98 10.17-9.05 19.85a.54.54 0 01-.75.22c-.79-.46 1.05-7.35 1.46-8.32q4.2-9.99 4.53-20.94zm-51.27-311.83a.4.4 0 01-.56-.56c3.41-4.74 7.59-9.84 14.41-7.78q.77.24.31-.43l-3.02-4.37a1.01 1 75.3 00-.75-.44q-7.71-.59-15.4-.96c-3.83-.19-6.56 1.26-8.1 4.61a.87.87 0 00.83 1.23c4.38-.23 12.83 3.23 9.25 9a.42.42 0 01-.67.07l-2.91-3.07a1.24 1.21 69.9 00-.77-.37c-2.13-.17-6.72.39-8.83-.6a.59.59 0 00-.73.19q-4.35 6.11-4.62 13.61a1.6 1.59-84.2 001.31 1.62c5.93 1.08 12.79 3.08 18.28 3.02 8.43-.09 17.43-3.36 24.77-7.05a1.51 1.51 0 00.78-1.78l-3.37-11.45a.11.1 73.8 01.06-.12l.24-.08a.53.51-27.5 01.57.17l1.92 2.45a.56.56 0 00.76.11c9.46-6.75 18.29-15.9 9.95-27.99q-2.44-3.54-9.1-9.63a1.36 1.34-23.3 00-.87-.34c-8.95-.17-17.28 2.78-26.2 1.01-6.51-1.29-14.26-4.23-19.91.6-3.21 2.74-4.99 8.83-6.48 13.12q-.21.59.39.42 5.23-1.48 9.48-4.92a.54.54 0 00-.59-.9l-6.5 3.29a.4.39 8.9 01-.46-.63q9.56-9.55 19.69-1.22.4.32.89.46 4.15 1.17 8.33.47.46-.08.83-.37c6.59-5.11 13.95-8.12 21.72-3.29q1.18.74 1.25 2.01a.57.57 0 01-.49.6c-1.2.17-2.06.2-3.26-.31q-7.57-3.21-12.78 3.1-.36.43.19.52 8.4 1.36 16.4 4.19a.23.22-41.3 01-.03.43q-6.75 1.46-13.6 1.27-1.28-.04-.1.46l9.38 3.95a.77.77 0 01.2 1.29c-1.08.91-6.15.26-7.82.25q-.49-.01-.19.38c3.11 4 3.7 8.31-1.14 11.36a1.62 1.61-59.5 01-.96.25l-6.36-.34a1.63 1.63 0 00-1.02.29l-4.6 3.2zm-40.24-40.22c-10.38 4.51-17.04 16.73-5.93 25.07a.39.39 0 00.55-.54c-5.87-8.26-3.06-16.95 5.34-22.07q1.21-.75.7-2.17a.5.5 0 00-.66-.29zm104.02 7.52c-.87-1.64-8.41-4.96-10-4.67a.61.61 0 00-.49.69l.64 4.17a.66.66 0 00.78.54q4.35-.87 8.78-.32.54.07.29-.41zm-7.4 22.18c.22-1.48 1.18-2.39 1.38-3.77q.39-2.61.11-5.25a1.53 1.48 19.6 00-.45-.91l-2.34-2.29a.29.28 32.2 00-.46.1q-3.15 8.02-3.53 16.65a.37.36-5.8 00.46.37c8.8-2.27 16.15-10.92 12.48-20.3-.71-1.8-2.09-2.37-3.83-1.57q-.47.22-.03.49 3.86 2.46 3.06 7.23c-.89 5.3-3.92 5.97-6.6 9.36q-.32.41-.25-.11zm-83.38-9.34c3.74 3.08 6.87.99 10.61-.45q1.16-.45.87-1.83a.5.49-8.5 00-.53-.39q-5.29.49-10.81 2.02-.7.19-.14.65zm39 42.96c.08 2.18-6.23 5.18-8.1 6.37-2.66 1.69-6.27 6.4-2.56 9.13a1.09 1.09 0 001.67-.51l1.15-3.15q.44-1.21.73.05l.97 4.26a.66.65-32.8 001.16.25q3.49-4.53 5.21-9.96.2-.63.59-.09c1.32 1.87-.11 6.57-.41 8.88q-.07.5.36.23c10.08-6.45 10.92-14.78 11.13-26.08a.33.33 0 00-.45-.31q-7.24 2.87-14.14 6.53c-6.19 3.29-14.6 1.88-20.83-.66a1.26 1.25 10.2 00-1.73 1.2c.22 8.23 22.03 7.46 24.92 3.75q.31-.4.33.11zm-174.44 80.94c4.71-4.05 9.64-8.39 14.68-11.47 28.89-17.62 67.16-14.09 96.07 1.17 3.37 1.78 5.75 4.37 8.17 7.16a.38.37 11.4 00.62-.41c-6.19-12.35-17.06-26.4-29.05-32.44q-11.39-5.73-22.28-7.47-7.01-2.24-15.47-1.2c-20.44 2.52-38.04 10.97-50.52 27.38q-4.74 6.22-4.58 13.65c.06 2.78-.66 4.79-1.18 7.37a.36.36 0 00.64.28l2.9-4.02zm51.46-17.04c-16.94 1.36-43.53 10.94-51.5 27.33l-1.1-.35a.5.49-71.6 00-.61.31c-1.84 5.12-4.24 10.69-3.89 16.19.59 9.5 2.3 20.7 8.35 28.27 2.01 2.52 2.84 5.43 4.99 7.92a1 1 0 00.84.35q.68-.05 1.21-.48c10.78 13.86 22.63 24.06 38 31.14a.78.76-52.8 00.83-.12c5.26-4.62 11.44-3.76 16.51.56a1.11 1.11 0 00.87.25q13.5-2.07 26-7.37c8.44-2.04 15.32-8.31 20.5-15 .52 1.29 1.53 1.02 2.2.08 6.31-8.81 2.86-20.15 5.94-30.17 4.09-13.31 5.3-27.59-3.1-39.6q-.99-1.42-2.29.02-7.57-7.96-15.68-10.87c-16.51-5.92-30.52-9.64-48.07-8.46zm202.81 93.8l-.42-3.39a1.34 1.33-30.7 01.24-.93c3.96-5.48 4.29-8.95 3.77-15.62q-.26-3.38-3.43-3.93l-3.41-4.82a.47.46-51.8 00-.81.1l-3.9 9.45q-.4.96-.58-.07c-.36-2.09.78-3.94.78-5.88-.02-5.91.63-10.82-2.44-14.78q-.35-.45-.27.11.85 6.17.19 12.41a.33.33 0 01-.45.27c-.08-.03-1.13-3.56-1.59-4.67q-2.91-6.87-4.98-16.17c-1.55-6.96-1.27-16.69-7.9-21.32a.41.41 0 00-.64.37q.63 6.18 1.51 12.44c.41 2.9 1.71 5.33 2.62 8.14q.17.51-.18.1-5.71-6.85-7.65-15.5a.2.2 0 00-.38-.01l-2.74 8.64a1.03 1.03 0 00.15.94q3.99 5.35 4.66 12.11a.46.45-65.5 01-.82.31l-3.19-4.5a.41.4-47.8 00-.68.04c-.98 1.7 7.09 16.57 8.81 18.83q1.18 1.54.52 3.64a.42.42 0 01-.68.19l-2.28-1.96a.38.38 0 00-.61.38c1.52 6.01 7.15 13.2 10.81 18.31a.6.6 0 01-.83.84q-5.71-4.01-10.18-9.34-.58-.69-.32.17c.94 3.1 3.78 5.69 5.6 9.38 2.48 5.02 5.67 9.1 9.2 13.27a.4.4 0 01-.29.66c-1.94.09-6.25-3.52-7.87-4.75a.35.35 0 00-.5.48c6.97 9.67 10.95 20.06 15.76 30.88q2.26 5.09 3.43 13.01a.3.3 0 00.48.2c4.25-3.06 9.52-7.38 7.26-13.26q-1.74-4.49-3.34-9.05a.13.12-49.4 00-.24.02l-1.91 9.05q-.18.87-.36 0c-2-9.78-2.39-20.33.26-30.01q.66-2.39-.18-4.78zM152.04 318q1.2 3.81 5.21 3.96l.94-.27a1.17 1.15-85.9 00.73-.64q1.46-3.14 1.03-6.61a1.45 1.43 16.3 00-.53-.95q-4.4-3.57-.52-7.97a1.91 1.89-20.1 00.42-.89c.37-2.06 1.76-6.05-.57-7.34-8.8.49-8.43 14.99-6.71 20.71zm20.25 35.25q.45.04.8-.15a.5.49 59.6 00.18-.71c-2.1-3.2-5.23-3.08-7.51-4.46-5.13-3.1-5.86-7.89-11.81-9.91a.56.55 19.8 00-.7.32q-.13.33 0 .62-2.62-1.38-5.19-1.48a1.4 1.4 0 00-1.43 1.63l.9 5.17q.06.37-.21.11-2.6-2.48-3.47-6.03c-.05-.18-.2-.35-.39-.38a.33.33 0 00-.37.39c1.49 8.42 4.89 17.33 11.4 23.13 6 5.34 10.71 10.39 12.87 18.02.41 1.44 1.11 2.67 1.72 4.03a.47.47 0 00.64.23q.99-.49 1.54-.51 11.53-.25 22.78-3.17a2.17 2.16 76 001.56-2.61c-1.57-6.48-11.35-2.46-15.84-1.75-7.92 1.26-7.79-5.61-12.48-9.35-7.2-5.73-13.06-7.14-15.9-17.23a.3.3 0 01.47-.31l4.62 3.72q.41.33.67.8l.79 1.43a1.49 1.47 86.8 00.73.66q6.27 2.64 13.04 2.61a.52.52 0 00.51-.51l.08-4.31zm10.91 6.69c.56 4.84 6.86 8.31 11.45 7.24q.21-.04.04-.17l-10.34-7.73a.72.72 0 00-1.15.66zm96.31 8.88c-4.49 4.41-6.92 10.69-10.19 16.11a.5.5 0 00.19.7q.93.51 1.78-.37c7.31-7.6 13.87-11.78 15.78-22.73q.09-.5-.3-.18-3.78 3.06-7.26 6.47zm-118.86 14.84c.74 1.08 2.88 1.12 4.04 1.24q.49.06.19-.34-3.47-4.6-5.73-9.96a.55.55 0 00-1.06.17q-.31 4.67 2.56 8.89zm61.85.13c2.3 7.13 12.16 2.97 10.89-3.84q-1.53-3.86-5.16-4.4c-4.12-.62-9.28 4.38-5.73 8.24zm-11.08-.2q2.28 1.53 4.29 3.58.42.42.4-.17-.07-4.19 1.38-8.13a.52.52 0 00-.34-.68l-8.27-2.54a.39.39 0 00-.5.43c.44 3.06.2 5.63 3.04 7.51zm48.09-4.68c-3.38.8-6.88 7.35-9.05 10.17a.41.4 22.6 00.27.64c1.83.25 3.01-.51 3.91-2.18q2.31-4.27 5.09-8.31.3-.44-.22-.32zm-21.7 5.08l-.79 5.72a.49.49 0 00.49.56l3.61-.08a.94.92 11.4 00.81-.53q1.79-3.74 4.82-6.55 1-.92-.35-.73l-8.16 1.18a.52.52 0 00-.43.43zm192.94 26.05q-2.99 2.28-3.55 3.16-5.19 8.08-10.46 16.17a1.73 1.69-84 01-.77.64q-2.61 1.09-1.89 4.1a1.21 1.19-83.5 00.62.79c6.96 3.63 10.25-6.88 14.62-10.48 2.34-1.93 5.49-1.52 8.39-1.67-4.88 5.21-2.51 10.3-5.33 15.92q-3.39 6.75-4.19 14.27c-.33 3.09-1.05 5.24-2.2 7.88a.49.49 0 01-.93-.09l-2.59-10.84a1.58 1.57 9.5 00-.68-.95q-3.76-2.37-6.71.71a1.41 1.41 0 00-.39 1q.09 5.44 2.14 10.44c1.26 3.08.95 6.15 1.87 9.38a1.31 1.3 7.8 00.6.78q2.76 1.63 6.03 1.93a1.54 1.53 31.7 00.91-.21c3.21-1.88 4.11-5.32 6.11-7.18q2.81-2.63 6.93-3.14.69-.08.34.52l-5.81 9.97a.93.93 0 00.96 1.38q1.42-.25 2.46-1.52 3.56-4.34 8.85-5.52a.7.7 0 01.72 1.08l-3.77 5.35a.33.33 0 00.18.51c1.7.46 2.65-.32 3.32-1.93q1.8-4.32 4.73-8.01c3.29-4.14 3.62-7.75 4.57-12.71 1.68-8.66 2.15-17.52 4.21-26.04q.12-.52-.28-.18-1.38 1.14-2.05 2.91-2.68 7.04-5.49 14.09-.61 1.51-.54-.11l.32-7.25a.56.56 0 00-1.08-.23l-4.12 10.46a.31.31 0 01-.6-.06c-.24-1.42-.83-2.71-.56-4.2q.84-4.53.92-9.17.01-.5-.22-.06-3.56 6.96-9.14 12.44-.36.36-.17-.12 4.41-11.29 6.52-18.73.28-.98.05-2.82-.07-.52-.43-.15c-1.36 1.4-2.27 4.85-3.48 5.6a.32.32 0 01-.49-.33c.76-4.62 4.72-28.34-8.45-17.78zM273.04 552.76q1.83 2.91 4.89 4.5a1.45 1.41-85.6 01.7.84l1.68 5.47a1.19 1.17 82.3 001.08.84q3.25.13 6.34-.9a.79.78 80.5 00.53-.76q-.11-6.24-4.67-9.1-7.65-4.82-7.81-12.97c-.08-4.29-2.53-6.62-6.58-7.6a.19.19 0 00-.18.31c2.67 3.15 6.11 6.12 4.85 10.92q-.17.63-.58.13-1.88-2.25-4.6-3.4a1.68 1.64 86.3 01-.8-.72q-1.39-2.47-3.64-4.14-.92-.68-.42.35 2.82 5.82 6.65 11.03a.32.32 0 01-.41.47l-7.75-4.13a.27.27 0 00-.38.32l1.57 4.57a.37.36-80.5 01-.57.41q-6.08-4.81-7.27-12.54a.51.51 0 00-.97-.13c-1.59 3.67-5.9 12.01-10.1 13.09-4.36 1.11-14.67-1.75-10.53 7.63 1.51 3.4 2.43 8.43 7.73 6.4a.81.8 83.4 00.52-.66q.52-4.33-3.14-6.63a.6.59 39.9 01-.09-.94l1.17-1.05a.77.76 42.5 011-.04c3.43 2.72 8.86 2.83 12.67 2.32 6.57-.88 12.62-1.82 18.4.34a.68.68 0 00.91-.75l-.56-3.34q-.17-.98.36-.14zm136.22.48c-1.25 3.17-1.45 10.92 2.72 12.48a1.24 1.2 42.7 00.88-.02q7.04-3.04 7.79-10.57a1.89 1.88-80.1 00-1.4-2l-5.94-1.54a.46.46 0 01-.27-.7q2.65-4.1 7.43-3.47c2.76.37 4.41 3.71 7.23.07a.54.54 0 00-.07-.73q-3.53-3.22-5.1-7.74a.42.42 0 00-.67-.19l-.35.3a.82.82 0 00-.28.84l.51 2.08q.21.84-.61.55-3.3-1.16-5.07-4.17a.6.6 0 00-1.12.29c-.04 1.86-.85 7.78-3.73 7.14a.59.59 0 01-.45-.64q.76-5.8-2.14-10.93a.17.17 0 00-.32.08q-.14 5.72-3.7 10.06a.74.74 0 01-1.31-.51l.28-5.11a.33.33 0 00-.62-.18q-4.5 8.08-13.28 10.99a.51.5 16.2 01-.48-.87q7.12-5.76 11.62-13.74a.4.4 0 00-.62-.5c-3.57 3.25-7.6 4.81-11.29 7.69a1.1 1.08 73.4 00-.42.8c-.48 8.74-10.75 9.86-17.1 12.24a1.1 1.09-.7 00-.64.65c-2 5.49 1.59 6.48 5.77 7.51a2.1 2.09 16.9 002.48-1.32c.76-2.16 1.37-4.24 3.28-5.61q6.94-4.92 14.96-.7c2.47 1.3 4.86 3.6 7.89 2.1a1.39 1.36 87.4 00.67-.75q.94-2.58 3.25-4.06.39-.25.22.18zm-185.58 8.75c1.16 1.36 2.46 1.42 4.12 1.25a.5.5 0 00.45-.55l-.99-10.97a.93.93 0 00-1.46-.67q-7.19 5.04-2.12 10.94zm202.84.38c6.32 2.97 6.82-7.23 5.22-10.74a.71.71 0 00-.74-.41q-2.11.29-3.68 1.84a1.02 1 65.3 00-.29.8q.33 3.78-1.01 7.27a.98.98 0 00.5 1.24zm13.64-8.52l-.82.98a.89.88-32 00-.19.79q.66 2.68-.52 5.18a.88.88 0 001.38 1.04l3.27-2.89a1.08 1.05-25.6 00.35-.96q-.4-2.49-2.3-4.22a.81.8 41 00-1.17.08zm-225.66 2.11c-3.48 1.74-.77 5.4 1.21 6.79q.77.54.39-.32-1.31-2.93-1.1-6.13.04-.61-.5-.34z"/><path fill="#9a9d9f" d="M332.23 179.71l4.6-3.2a1.63 1.63 0 011.02-.29l6.36.34a1.62 1.61-59.5 00.96-.25c4.84-3.05 4.25-7.36 1.14-11.36q-.3-.39.19-.38c1.67.01 6.74.66 7.82-.25a.77.77 0 00-.2-1.29l-9.38-3.95q-1.18-.5.1-.46 6.85.19 13.6-1.27a.23.22-41.3 00.03-.43q-8-2.83-16.4-4.19-.55-.09-.19-.52 5.21-6.31 12.78-3.1c1.2.51 2.06.48 3.26.31a.57.57 0 00.49-.6q-.07-1.27-1.25-2.01c-7.77-4.83-15.13-1.82-21.72 3.29q-.37.29-.83.37-4.18.7-8.33-.47-.49-.14-.89-.46-10.13-8.33-19.69 1.22a.4.39 8.9 00.46.63l6.5-3.29a.54.54 0 01.59.9q-4.25 3.44-9.48 4.92-.6.17-.39-.42c1.49-4.29 3.27-10.38 6.48-13.12 5.65-4.83 13.4-1.89 19.91-.6 8.92 1.77 17.25-1.18 26.2-1.01a1.36 1.34-23.3 01.87.34q6.66 6.09 9.1 9.63c8.34 12.09-.49 21.24-9.95 27.99a.56.56 0 01-.76-.11l-1.92-2.45a.53.51-27.5 00-.57-.17l-.24.08a.11.1 73.8 00-.06.12l3.37 11.45a1.51 1.51 0 01-.78 1.78c-7.34 3.69-16.34 6.96-24.77 7.05-5.49.06-12.35-1.94-18.28-3.02a1.6 1.59-84.2 01-1.31-1.62q.27-7.5 4.62-13.61a.59.59 0 01.73-.19c2.11.99 6.7.43 8.83.6a1.24 1.21 69.9 01.77.37l2.91 3.07a.42.42 0 00.67-.07c3.58-5.77-4.87-9.23-9.25-9a.87.87 0 01-.83-1.23c1.54-3.35 4.27-4.8 8.1-4.61q7.69.37 15.4.96a1.01 1 75.3 01.75.44l3.02 4.37q.46.67-.31.43c-6.82-2.06-11 3.04-14.41 7.78a.4.4 0 00.56.56zM286.06 164.56c-11.11-8.34-4.45-20.56 5.93-25.07a.5.5 0 01.66.29q.51 1.42-.7 2.17c-8.4 5.12-11.21 13.81-5.34 22.07a.39.39 0 01-.55.54zM386.01 142.34c1.59-.29 9.13 3.03 10 4.67q.25.48-.29.41-4.43-.55-8.78.32a.66.66 0 01-.78-.54l-.64-4.17a.61.61 0 01.49-.69zM388.86 169.3c2.68-3.39 5.71-4.06 6.6-9.36q.8-4.77-3.06-7.23-.44-.27.03-.49c1.74-.8 3.12-.23 3.83 1.57 3.67 9.38-3.68 18.03-12.48 20.3a.37.36-5.8 01-.46-.37q.38-8.63 3.53-16.65a.29.28 32.2 01.46-.1l2.34 2.29a1.53 1.48 19.6 01.45.91q.28 2.64-.11 5.25c-.2 1.38-1.16 2.29-1.38 3.77q-.07.52.25.11z"/><path fill="#9a9d9f" d="M305.37 159.2q5.52-1.53 10.81-2.02a.5.49-8.5 01.53.39q.29 1.38-.87 1.83c-3.74 1.44-6.87 3.53-10.61.45q-.56-.46.14-.65zM343.9 202.7c-2.89 3.71-24.7 4.48-24.92-3.75a1.26 1.25 10.2 011.73-1.2c6.23 2.54 14.64 3.95 20.83.66q6.9-3.66 14.14-6.53a.33.33 0 01.45.31c-.21 11.3-1.05 19.63-11.13 26.08q-.43.27-.36-.23c.3-2.31 1.73-7.01.41-8.88q-.39-.54-.59.09-1.72 5.43-5.21 9.96a.66.65-32.8 01-1.16-.25l-.97-4.26q-.29-1.26-.73-.05l-1.15 3.15a1.09 1.09 0 01-1.67.51c-3.71-2.73-.1-7.44 2.56-9.13 1.87-1.19 8.18-4.19 8.1-6.37q-.02-.51-.33-.11z"/><path fill="#fff" d="M238 240.29c-.21 2.9 4.6 8.47 6.27 11.12q.39.61-.33.6l-5.01-.03a.96.95 74.4 01-.82-.47q-3.75-6.44-8.93-11.78a1.09 1.08 67.1 00-.8-.33l-5.1.12a.85.85 0 00-.57 1.46q4.86 4.65 7.18 10.98a.43.42-11.6 01-.38.57l-2.88.17a1.04 1.02 69.4 01-.9-.42q-3.06-4.13-6.25-8.31-3.7-4.83-9.25-1.21a.63.62 54.2 00-.14.91l8.35 10.43a.33.33 0 01-.18.52q-16.64 3.83-31.08 12.84c-1.62 1.01-3.75 1.77-5.02 2.69q-6.77 4.96-13.1 10.5a.73.72 58.8 00-.2.83l.93 2.27-2.9 4.02a.36.36 0 01-.64-.28c.52-2.58 1.24-4.59 1.18-7.37q-.16-7.43 4.58-13.65c12.48-16.41 30.08-24.86 50.52-27.38q8.46-1.04 15.47 1.2z"/><path fill="#9a9d9f" d="M238 240.29q10.89 1.74 22.28 7.47c11.99 6.04 22.86 20.09 29.05 32.44a.38.37 11.4 01-.62.41c-2.42-2.79-4.8-5.38-8.17-7.16-28.91-15.26-67.18-18.79-96.07-1.17-5.04 3.08-9.97 7.42-14.68 11.47l-.93-2.27a.73.72 58.8 01.2-.83q6.33-5.54 13.1-10.5c1.27-.92 3.4-1.68 5.02-2.69q14.44-9.01 31.08-12.84a.33.33 0 00.18-.52l-8.35-10.43a.63.62 54.2 01.14-.91q5.55-3.62 9.25 1.21 3.19 4.18 6.25 8.31a1.04 1.02 69.4 00.9.42l2.88-.17a.43.42-11.6 00.38-.57q-2.32-6.33-7.18-10.98a.85.85 0 01.57-1.46l5.1-.12a1.09 1.08 67.1 01.8.33q5.18 5.34 8.93 11.78a.96.95 74.4 00.82.47l5.01.03q.72.01.33-.6c-1.67-2.65-6.48-8.22-6.27-11.12z"/><path fill="#9a9d9f" d="M285 286.04c9.58 12.34 7.83 27.12 3.55 41.08-3.12 10.18.26 19.3-6.3 28.59-5.18 6.69-12.06 12.96-20.5 15l-.33-.77a1.37 1.34-45.6 010-1.07l2.8-6.6a1.33 1.33 0 01.58-.64q7.76-4.13 12.38-11.59a1.12 1.12 0 00.16-.76c-.17-1.05.59-1.51.96-2.22q2.47-4.77 3.15-10.18a.61.6 9.7 00-.47-.65q-.31-.07-.69.02c2.92-12.13 5.97-23.35 3.35-35.91-.55-2.66-2.7-8.26-4.46-9.56q-10.49-7.71-22.78-11.79-13.26-8.32-28.5-11.91c-2.18-.51-4.39-.28-6.65-.37 17.55-1.18 31.56 2.54 48.07 8.46q8.11 2.91 15.68 10.87z"/><path fill="#fff" d="M221.25 266.71c2.26.09 4.47-.14 6.65.37q15.24 3.59 28.5 11.91-10.18-3.47-19.65-3.94c-10.71-.53-24.88-.87-35.5 3.16-15.04 5.93-32.3 19.99-30.13 38.26a.19.19 0 00.37.05q3.22-8.56 7.43-16.38l.78-.25q.64-.2.45.45-3.98 13.18-.94 26.66c1.58 8.29 5.54 12.75 9.91 18.86 7.13 9.98 16.46 16.79 28.03 21.02q1.93 1.38 4.79 1.72c17.63 2.05 32.87-.1 46.93-11.52 6.14-4.98 9.41-13.41 11.42-20.83q.38-.09.69-.02a.61.6 9.7 01.47.65q-.68 5.41-3.15 10.18c-.37.71-1.13 1.17-.96 2.22a1.12 1.12 0 01-.16.76q-4.62 7.46-12.38 11.59a1.33 1.33 0 00-.58.64l-2.8 6.6a1.37 1.34-45.6 000 1.07l.33.77q-12.5 5.3-26 7.37a1.11 1.11 0 01-.87-.25c-5.07-4.32-11.25-5.18-16.51-.56a.78.76-52.8 01-.83.12c-15.37-7.08-27.22-17.28-38-31.14q-4.82-6.17-8.43-13.04c-3.79-7.21-4.81-16-5.51-24.08-.41-4.66 2.57-10.71 4.15-15.09 7.97-16.39 34.56-25.97 51.5-27.33z"/><path fill="#20201e" d="M256.4 278.99q12.29 4.08 22.78 11.79c1.76 1.3 3.91 6.9 4.46 9.56 2.62 12.56-.43 23.78-3.35 35.91-2.01 7.42-5.28 15.85-11.42 20.83-14.06 11.42-29.3 13.57-46.93 11.52q-2.86-.34-4.79-1.72-4.11-3.5-9.03-5.76-2.01-.92-3.69-2.47c-2.87-2.67-6.35-4.53-8.68-7.19-2.77-3.16-4.93-6.43-7.66-9.98q-5.29-6.89-7.87-15.32a.34.34 0 00-.56-.14q-.42.41-.45.98-3.04-13.48.94-26.66.19-.65-.45-.45l-.78.25q1.08-7.09 7.83-11.63 8.99-6.05 16.46-8.97.48-.19.06-.49-.86-.63-2.02-.84c10.62-4.03 24.79-3.69 35.5-3.16q9.47.47 19.65 3.94zM199.79 291q.08-.55-.07-1.04a.43.42-23.3 00-.62-.24q-4.98 2.97-8.32 7.59c-4.2 5.8-2.46 16.46-.2 22.72a.71.69 79.5 00.67.47h.46q.16.19.39.26a.8.8 0 00.84-.25c6.59-7.83 18.87-12.23 28.56-13.78q3.34-.54 11.7 1.39a.71.69-70 00.79-.38q5.7-11.55 2.26-24.12a.88.86 86.7 00-.69-.63q-19.7-3.27-35.77 8.01zm40.75 6.53a.95.52 101.5 00.7-.826.95.52 101.5 00-.32-1.035.95.52 101.5 00-.7.827.95.52 101.5 00.32 1.035zm-6.68 23.83c.54-.86-.03-2.28-1.03-2.68a.44.44 0 00-.56.6l1.01 2.05q.27.53.58.03zm16.58 39.07q7.05-.21 12.18-5.27c6.11-6.04 6-7.03 5.84-15.88a.87.87 0 00-1.67-.34c-4.12 9.2-9.29 14.4-16.49 21.15q-.37.35.14.34z"/><path d="M201.25 278.21q1.16.21 2.02.84.42.3-.06.49-7.47 2.92-16.46 8.97-6.75 4.54-7.83 11.63-4.21 7.82-7.43 16.38a.19.19 0 01-.37-.05c-2.17-18.27 15.09-32.33 30.13-38.26zM152.29 281.25l.91.71a.9.89 27.4 01.31.97l-4.55 14.98q-.14.47-.09.95.21 2.14-1.83 2.89l5.25-20.5z"/><path fill="#9a9d9f" d="M191.71 320.5q-2.25-8.59-1.45-17.5c.47-5.17 5.61-8.84 9.53-12q16.07-11.28 35.77-8.01a.88.86 86.7 01.69.63q3.44 12.57-2.26 24.12a.71.69-70 01-.79.38q-8.36-1.93-11.7-1.39c-9.69 1.55-21.97 5.95-28.56 13.78a.8.8 0 01-.84.25q-.23-.07-.39-.26z"/><path d="M282.25 355.71c6.56-9.29 3.18-18.41 6.3-28.59 4.28-13.96 6.03-28.74-3.55-41.08q1.3-1.44 2.29-.02c8.4 12.01 7.19 26.29 3.1 39.6-3.08 10.02.37 21.36-5.94 30.17-.67.94-1.68 1.21-2.2-.08zM199.79 291c-3.92 3.16-9.06 6.83-9.53 12q-.8 8.91 1.45 17.5h-.46a.71.69 79.5 01-.67-.47c-2.26-6.26-4-16.92.2-22.72q3.34-4.62 8.32-7.59a.43.42-23.3 01.62.24q.15.49.07 1.04z"/><path fill="#fbfee2" d="M424.22 336.64c2.25 4.47 1.56 8.47 1.52 13.33a1.71 1.65-29.5 01-.27.91c-3.14 4.88-8.56 17.79-6.44 23.36q.18.48.27-.03 1.21-7.13 4.76-13.7.84 2.39.18 4.78c-2.65 9.68-2.26 20.23-.26 30.01q.18.87.36 0l1.91-9.05a.13.12-49.4 01.24-.02q1.6 4.56 3.34 9.05c2.26 5.88-3.01 10.2-7.26 13.26a.3.3 0 01-.48-.2q-1.17-7.92-3.43-13.01c-4.81-10.82-8.79-21.21-15.76-30.88a.35.35 0 01.5-.48c1.62 1.23 5.93 4.84 7.87 4.75a.4.4 0 00.29-.66c-3.53-4.17-6.72-8.25-9.2-13.27-1.82-3.69-4.66-6.28-5.6-9.38q-.26-.86.32-.17 4.47 5.33 10.18 9.34a.6.6 0 00.83-.84c-3.66-5.11-9.29-12.3-10.81-18.31a.38.38 0 01.61-.38l2.28 1.96a.42.42 0 00.68-.19q.66-2.1-.52-3.64c-1.72-2.26-9.79-17.13-8.81-18.83a.41.4-47.8 01.68-.04l3.19 4.5a.46.45-65.5 00.82-.31q-.67-6.76-4.66-12.11a1.03 1.03 0 01-.15-.94l2.74-8.64a.2.2 0 01.38.01q1.94 8.65 7.65 15.5.35.41.18-.1c-.91-2.81-2.21-5.24-2.62-8.14q-.88-6.26-1.51-12.44a.41.41 0 01.64-.37c6.63 4.63 6.35 14.36 7.9 21.32q2.07 9.3 4.98 16.17c.46 1.11 1.51 4.64 1.59 4.67a.33.33 0 00.45-.27q.66-6.24-.19-12.41-.08-.56.27-.11c3.07 3.96 2.42 8.87 2.44 14.78 0 1.94-1.14 3.79-.78 5.88q.18 1.03.58.07l3.9-9.45a.47.46-51.8 01.81-.1l3.41 4.82z"/><path d="M169.75 294.04c-1.58 4.38-4.56 10.43-4.15 15.09.7 8.08 1.72 16.87 5.51 24.08q3.61 6.87 8.43 13.04-.53.43-1.21.48a1 1 0 01-.84-.35c-2.15-2.49-2.98-5.4-4.99-7.92-6.05-7.57-7.76-18.77-8.35-28.27-.35-5.5 2.05-11.07 3.89-16.19a.5.49-71.6 01.61-.31l1.1.35z"/><ellipse fill="#9a9d9f" transform="rotate(101.5 -.801 246.642)" rx=".95" ry=".52"/><path fill="#fff" d="M158.75 297.29q.08 4.38-1.92 8.02l-1.64-.42a.88.86-58.7 00-.83.21c-3.09 2.97-2.92 8.39-1.55 12.09a.57.56-21.4 01-.32.72q-.2.07-.45.09c-1.72-5.72-2.09-20.22 6.71-20.71z"/><path d="M158.75 297.29c2.33 1.29.94 5.28.57 7.34a1.91 1.89-20.1 01-.42.89q-3.88 4.4.52 7.97a1.45 1.43 16.3 01.53.95q.43 3.47-1.03 6.61a1.17 1.15-85.9 01-.73.64l-.94.27 1.09-6.53a.88.87 25.9 00-.29-.82q-4.33-3.88-1.22-9.3 2-3.64 1.92-8.02z"/><path fill="#9a9d9f" d="M156.83 305.31q-3.11 5.42 1.22 9.3a.88.87 25.9 01.29.82l-1.09 6.53q-4.01-.15-5.21-3.96.25-.02.45-.09a.57.56-21.4 00.32-.72c-1.37-3.7-1.54-9.12 1.55-12.09a.88.86-58.7 01.83-.21l1.64.42zM232.83 318.68c1 .4 1.57 1.82 1.03 2.68q-.31.5-.58-.03l-1.01-2.05a.44.44 0 01.56-.6z"/><path d="M217.15 366.88c-11.57-4.23-20.9-11.04-28.03-21.02-4.37-6.11-8.33-10.57-9.91-18.86q.03-.57.45-.98a.34.34 0 01.56.14q2.58 8.43 7.87 15.32c2.73 3.55 4.89 6.82 7.66 9.98 2.33 2.66 5.81 4.52 8.68 7.19q1.68 1.55 3.69 2.47 4.92 2.26 9.03 5.76zM424.06 360.51q-3.55 6.57-4.76 13.7-.09.51-.27.03c-2.12-5.57 3.3-18.48 6.44-23.36a1.71 1.65-29.5 00.27-.91c.04-4.86.73-8.86-1.52-13.33q3.17.55 3.43 3.93c.52 6.67.19 10.14-3.77 15.62a1.34 1.33-30.7 00-.24.93l.42 3.39z"/><path fill="#9a9d9f" d="M153.25 338.96q4.74 2.32 7.64 6.61c3.12 4.61 8.22 3.69 11.4 7.68l-.08 4.31a.52.52 0 01-.51.51q-6.77.03-13.04-2.61a1.49 1.47 86.8 01-.73-.66l-.79-1.43q-.26-.47-.67-.8l-4.62-3.72a.3.3 0 00-.47.31c2.84 10.09 8.7 11.5 15.9 17.23 4.69 3.74 4.56 10.61 12.48 9.35 4.49-.71 14.27-4.73 15.84 1.75a2.17 2.16 76 01-1.56 2.61q-11.25 2.92-22.78 3.17-.55.02-1.54.51a.47.47 0 01-.64-.23c-.61-1.36-1.31-2.59-1.72-4.03-2.16-7.63-6.87-12.68-12.87-18.02-6.51-5.8-9.91-14.71-11.4-23.13a.33.33 0 01.37-.39c.19.03.34.2.39.38q.87 3.55 3.47 6.03.27.26.21-.11l-.9-5.17a1.4 1.4 0 011.43-1.63q2.57.1 5.19 1.48z"/><path d="M172.29 353.25c-3.18-3.99-8.28-3.07-11.4-7.68q-2.9-4.29-7.64-6.61-.13-.29 0-.62a.56.55 19.8 01.7-.32c5.95 2.02 6.68 6.81 11.81 9.91 2.28 1.38 5.41 1.26 7.51 4.46a.5.49 59.6 01-.18.71q-.35.19-.8.15z"/><path fill="#9a9d9f" d="M250.3 360.09c7.2-6.75 12.37-11.95 16.49-21.15a.87.87 0 011.67.34c.16 8.85.27 9.84-5.84 15.88q-5.13 5.06-12.18 5.27-.51.01-.14-.34z"/><path fill="#fff" d="M194.65 367.18c-4.59 1.07-10.89-2.4-11.45-7.24a.72.72 0 011.15-.66l10.34 7.73q.17.13-.04.17z"/><path fill="#9a9d9f" d="M279.51 368.82q3.48-3.41 7.26-6.47.39-.32.3.18c-1.91 10.95-8.47 15.13-15.78 22.73q-.85.88-1.78.37a.5.5 0 01-.19-.7c3.27-5.42 5.7-11.7 10.19-16.11zM164.69 384.9c-1.16-.12-3.3-.16-4.04-1.24q-2.87-4.22-2.56-8.89a.55.55 0 011.06-.17q2.26 5.36 5.73 9.96.3.4-.19.34z"/><path fill="#fff" d="M233.39 379.95c-4.03 5.61-8.77 1.75-10.89 3.84-3.55-3.86 1.61-8.86 5.73-8.24q3.63.54 5.16 4.4zM211.42 383.59c-2.84-1.88-2.6-4.45-3.04-7.51a.39.39 0 01.5-.43l8.27 2.54a.52.52 0 01.34.68q-1.45 3.94-1.38 8.13.02.59-.4.17-2.01-2.05-4.29-3.58z"/><path fill="#9a9d9f" d="M250.46 389.08c2.17-2.82 5.67-9.37 9.05-10.17q.52-.12.22.32-2.78 4.04-5.09 8.31c-.9 1.67-2.08 2.43-3.91 2.18a.41.4 22.6 01-.27-.64zM233.39 379.95c1.27 6.81-8.59 10.97-10.89 3.84 2.12-2.09 6.86 1.77 10.89-3.84zM237.81 383.99a.52.52 0 01.43-.43l8.16-1.18q1.35-.19.35.73-3.03 2.81-4.82 6.55a.94.92 11.4 01-.81.53l-3.61.08a.49.49 0 01-.49-.56l.79-5.72zM437.71 422.75c.9-3.04 2.3-10 .59-13.2a.92.91 76.7 00-.77-.48q-3-.11-5.4 1.71a.77.76-45.3 01-.92.01q-.37-.26-.46-.75c13.17-10.56 9.21 13.16 8.45 17.78a.32.32 0 00.49.33c1.21-.75 2.12-4.2 3.48-5.6q.36-.37.43.15.23 1.84-.05 2.82-2.11 7.44-6.52 18.73-.19.48.17.12 5.58-5.48 9.14-12.44.23-.44.22.06-.08 4.64-.92 9.17c-.27 1.49.32 2.78.56 4.2a.31.31 0 00.6.06l4.12-10.46a.56.56 0 011.08.23l-.32 7.25q-.07 1.62.54.11 2.81-7.05 5.49-14.09.67-1.77 2.05-2.91.4-.34.28.18c-2.06 8.52-2.53 17.38-4.21 26.04-.95 4.96-1.28 8.57-4.57 12.71q-2.93 3.69-4.73 8.01c-.67 1.61-1.62 2.39-3.32 1.93a.33.33 0 01-.18-.51l3.77-5.35a.7.7 0 00-.72-1.08q-5.29 1.18-8.85 5.52-1.04 1.27-2.46 1.52a.93.93 0 01-.96-1.38l5.81-9.97q.35-.6-.34-.52-4.12.51-6.93 3.14c-2 1.86-2.9 5.3-6.11 7.18a1.54 1.53 31.7 01-.91.21q-3.27-.3-6.03-1.93a1.31 1.3 7.8 01-.6-.78c-.92-3.23-.61-6.3-1.87-9.38q-2.05-5-2.14-10.44a1.41 1.41 0 01.39-1q2.95-3.08 6.71-.71a1.58 1.57 9.5 01.68.95l2.59 10.84a.49.49 0 00.93.09c1.15-2.64 1.87-4.79 2.2-7.88q.8-7.52 4.19-14.27c2.82-5.62.45-10.71 5.33-15.92z"/><path fill="#9a9d9f" d="M437.71 422.75c-2.9.15-6.05-.26-8.39 1.67-4.37 3.6-7.66 14.11-14.62 10.48a1.21 1.19-83.5 01-.62-.79q-.72-3.01 1.89-4.1a1.73 1.69-84 00.77-.64q5.27-8.09 10.46-16.17.56-.88 3.55-3.16.09.49.46.75a.77.76-45.3 00.92-.01q2.4-1.82 5.4-1.71a.92.91 76.7 01.77.48c1.71 3.2.31 10.16-.59 13.2z"/><path d="M332.66 417.45c-1.36 9.61 1.14 15.41 5.58 22.93a.33.33 0 01-.49.42q-6.57-5.42-8.54-13.74 2.3-3.48 1.92-7.85c-.1-1.14.54-1.51 1.53-1.76zM245.75 462.71l-6.21 9.06q-.24.34-.12-.06c3.35-10.9 8.91-21.8 13.62-32.21l.43-.12a.49.48-15.4 01.59.33c.17.56.31.73.03 1.33-1.71 3.64-4.51 7.46-5.01 11.43q-.06.5-.36.89-3.1 4.15-2.97 9.35z"/><path fill="#9a9d9f" d="M243.29 480l-.29-.29q.26-2 1.76-3.12.45-.33.2.17l-1.67 3.24zM383.5 491.54l-.46-.04q.14-.85.6-1.54.35-.54.39.1.06.79-.53 1.48zM272.68 552.9l.56 3.34a.68.68 0 01-.91.75c-5.78-2.16-11.83-1.22-18.4-.34-3.81.51-9.24.4-12.67-2.32a.77.76 42.5 00-1 .04l-1.17 1.05a.6.59 39.9 00.09.94q3.66 2.3 3.14 6.63a.81.8 83.4 01-.52.66c-5.3 2.03-6.22-3-7.73-6.4-4.14-9.38 6.17-6.52 10.53-7.63 4.2-1.08 8.51-9.42 10.1-13.09a.51.51 0 01.97.13q1.19 7.73 7.27 12.54a.37.36-80.5 00.57-.41l-1.57-4.57a.27.27 0 01.38-.32l7.75 4.13a.32.32 0 00.41-.47q-3.83-5.21-6.65-11.03-.5-1.03.42-.35 2.25 1.67 3.64 4.14a1.68 1.64 86.3 00.8.72q2.72 1.15 4.6 3.4.41.5.58-.13c1.26-4.8-2.18-7.77-4.85-10.92a.19.19 0 01.18-.31c4.05.98 6.5 3.31 6.58 7.6q.16 8.15 7.81 12.97 4.56 2.86 4.67 9.1a.79.78 80.5 01-.53.76q-3.09 1.03-6.34.9a1.19 1.17 82.3 01-1.08-.84l-1.68-5.47a1.45 1.41-85.6 00-.7-.84q-3.06-1.59-4.89-4.5-.53-.84-.36.14zM409.04 553.06q-2.31 1.48-3.25 4.06a1.39 1.36 87.4 01-.67.75c-3.03 1.5-5.42-.8-7.89-2.1q-8.02-4.22-14.96.7c-1.91 1.37-2.52 3.45-3.28 5.61a2.1 2.09 16.9 01-2.48 1.32c-4.18-1.03-7.77-2.02-5.77-7.51a1.1 1.09-.7 01.64-.65c6.35-2.38 16.62-3.5 17.1-12.24a1.1 1.08 73.4 01.42-.8c3.69-2.88 7.72-4.44 11.29-7.69a.4.4 0 01.62.5q-4.5 7.98-11.62 13.74a.51.5 16.2 00.48.87q8.78-2.91 13.28-10.99a.33.33 0 01.62.18l-.28 5.11a.74.74 0 001.31.51q3.56-4.34 3.7-10.06a.17.17 0 01.32-.08q2.9 5.13 2.14 10.93a.59.59 0 00.45.64c2.88.64 3.69-5.28 3.73-7.14a.6.6 0 011.12-.29q1.77 3.01 5.07 4.17.82.29.61-.55l-.51-2.08a.82.82 0 01.28-.84l.35-.3a.42.42 0 01.67.19q1.57 4.52 5.1 7.74a.54.54 0 01.07.73c-2.82 3.64-4.47.3-7.23-.07q-4.78-.63-7.43 3.47a.46.46 0 00.27.7l5.94 1.54a1.89 1.88-80.1 011.4 2q-.75 7.53-7.79 10.57a1.24 1.2 42.7 01-.88.02c-4.17-1.56-3.97-9.31-2.72-12.48q.17-.43-.22-.18zM223.68 561.99q-5.07-5.9 2.12-10.94a.93.93 0 011.46.67l.99 10.97a.5.5 0 01-.45.55c-1.66.17-2.96.11-4.12-1.25zM426.52 562.37a.98.98 0 01-.5-1.24q1.34-3.49 1.01-7.27a1.02 1 65.3 01.29-.8q1.57-1.55 3.68-1.84a.71.71 0 01.74.41c1.6 3.51 1.1 13.71-5.22 10.74zM441.33 553.77q1.9 1.73 2.3 4.22a1.08 1.05-25.6 01-.35.96l-3.27 2.89a.88.88 0 01-1.38-1.04q1.18-2.5.52-5.18a.89.88-32 01.19-.79l.82-.98a.81.8 41 011.17-.08zM215.71 562.75c-1.98-1.39-4.69-5.05-1.21-6.79q.54-.27.5.34-.21 3.2 1.1 6.13.38.86-.39.32z"/><path fill="#20201e" d="M0 590.44c1.01.78 18.35.37 22.94.56H0v-.56zM37.94 591H26.19q5.87-.63 11.75 0zM85.94 591H50.19q17.87-.63 35.75 0zM95.94 591h-6.75q3.37-.63 6.75 0zM104.94 591h-6.25q3.12-.63 6.25 0zM112.44 591h-7.25q3.62-.63 7.25 0zM119.94 591h-5.75q2.87-.63 5.75 0zM127.94 591h-5.75q2.87-.63 5.75 0zM240.25 590.79l-.06.21h-110l.06-.09a.21.19-73.5 01.17-.1l109.83-.02z"/><path fill="#20201e" d="M240.25 590.79l61.69.21h-61.75l.06-.21zM311.94 591h-7.75q3.87-.63 7.75 0zM325.94 591h-5.75q2.87-.63 5.75 0zM359.94 591h-21.75q10.87-.63 21.75 0zM382.94 591h-22.75q11.37-.63 22.75 0zM433.94 591h-49.75q24.87-.63 49.75 0zM453.94 591h-19.75q9.87-.63 19.75 0zM461.94 591h-5.75q2.87-.63 5.75 0zM471.94 591h-7.75q3.87-.63 7.75 0zM479.94 591h-7.75q3.87-.63 7.75 0zM487.94 591h-5.75q2.87-.63 5.75 0zM494.94 591h-6.75q3.37-.63 6.75 0zM511.94 591h-5.75q2.87-.63 5.75 0zM520.94 591h-6.75q3.37-.63 6.75 0zM563.94 591h-42.75q21.37-.63 42.75 0zM589.94 591h-10.25q5.12-.63 10.25 0z"/></svg>