<svg xmlns="http://www.w3.org/2000/svg" viewBox="0 0 591 591"><g stroke-width="2" fill="none"><path stroke="#4b4c4d" vector-effect="non-scaling-stroke" d="M590.06 0l.23 4"/><path stroke="#121111" vector-effect="non-scaling-stroke" d="M590.29 4v1"/><path stroke="#4b4c4d" vector-effect="non-scaling-stroke" d="M590.29 5l-.03 584.57a.67.67 0 01-.67.67L0 590.09"/><path stroke="#7f7f70" vector-effect="non-scaling-stroke" d="M585.49 5.52a.27.27 0 00-.27-.27H5.52a.27.27 0 00-.27.27v579.7a.27.27 0 00.27.27h579.7a.27.27 0 00.27-.27V5.52"/><path stroke="#5c5d5e" vector-effect="non-scaling-stroke" d="M590.81 0q.25 2.1-.52 4M591 590.06c-.83-.45-.25-535.26-.25-584.85a.22.21 1.4 00-.21-.21h-.25M589.94 591q-4.88-.63-9.75 0M573.94 591q-4.38-.63-8.75 0M534.94 591q-2.38-.63-4.75 0M527.94 591q-14.88-.63-29.75 0M497.94 591q-4.88-.63-9.75 0M487.94 591q-27.38-.63-54.75 0M431.94 591q-15.88-.63-31.75 0M399.94 591q-2.88-.63-5.75 0M391.94 591q-2.88-.63-5.75 0M383.94 591q-11.88-.63-23.75 0M359.94 591q-3.88-.63-7.75 0M351.44 591q-3.63-.63-7.25 0M343.94 591q-3.88-.63-7.75 0M335.94 591q-11.88-.63-23.75 0M311.94 591q-7.63-.63-15.25 0M293.94 591q-2.88-.63-5.75 0M287.94 591q-7.88-.63-15.75 0M271.94 591q-15.88-.63-31.75 0M239.94 591q-6.88-.63-13.75 0M224.94 591q-3.38-.63-6.75 0M216.94 591q-3.88-.63-7.75 0M208.94 591q-11.38-.63-22.75 0M182.94 591q-6.13-.63-12.25 0M167.94 591q-2.88-.63-5.75 0M160.94 591q-7.38-.63-14.75 0M144.94 591q-19.38-.63-38.75 0M104.94 591q-33.88-.63-67.75 0M36.94 591q-10.38-.63-20.75 0M13.94 591q-6.38-.63-12.75 0"/><path stroke="#fcf1c5" vector-effect="non-scaling-stroke" d="M81.02 32.71q-21.96-.42-42.7-.01c-19.3.39-21.49 13.04-21.23 29.3q.23 14.28.39 28.56.04 3.34.45 5.44.4 2.04 1.86.57c20.71-20.86 41.92-41.2 61.72-62.72a.68.68 0 00-.49-1.14"/><path stroke="#7f7f70" vector-effect="non-scaling-stroke" d="M170.21 386.75q5.59 47.78 1.83 95.75"/><path stroke="#909080" vector-effect="non-scaling-stroke" d="M172.04 482.5q-1.5 12.4-3.62 24.7c-4.35 25.18 49.37 37.55 66.1 40.9 54.33 10.89 115.96 6.86 165.1-21.03 12.2-6.93 21.14-13.16 27.37-24.57 2.14-3.92 2.01-7.32.66-11.9-5.55-18.84-8.2-40.67-9.18-58.54q-2.25-40.97 4.83-81.39a.65.64-86.5 01.59-.53c13.89-.67 65.4-3.94 71.82-19.98 8.4-20.95-26.91-31.2-41.27-33.65q-36.92-6.29-74.77-5.11a2.74 2.74 0 01-2.43-1.32Q362.69 266 337.5 253.45a1.51 1.5-88.8 01-.7-.73c-3.58-7.97-5.3-15.56-11.59-22.63a.6.59 43 01-.03-.76q3.96-5.22 6.47-11.25c1.41-3.4.81-7.45.78-11.14a1.12 1.1 69.4 01.37-.83c8.38-7.73 22.08-22.35 22.9-34.14 1.12-16.15 6.35-31.58 11.94-46.64 2.82-7.59.07-14.16-7.53-17.36-4.93-2.08-26.89 10.69-31.64 13.9-4.77 3.23-9.13 7.93-13.58 12q-5.33 4.87-8.48 9.01c-11.23 14.78-17.78 29.63-22.47 47.77a.56.56 0 01-.61.42q-6.45-.84-12.79.47a.6.59 76.2 01-.7-.43c-3.56-13.61-8.66-25.96-17.23-37.12-14.7-19.13-39.6-32.38-61.19-41.99-5.18-2.3-8.64 6.42-9.23 9.95-.72 4.37 3 12.92 4.81 17.11q8.66 20.1 17.2 40.24c2.17 5.13 6.64 10.57 10.46 16.2q7.12 10.49 18.01 17.34a1.57 1.52-89 01.56.6l5.57 10.59a.93.91 46.8 01-.02.88q-1.8 3.11.35 6.07a.45.44-41.2 01-.04.57c-.44.48-.83.09-1.17-.23a.33.32-49.8 00-.5.05c-3.44 4.92-3.98 7.9-.82 13.22a.82.81-43.8 01-.02.85c-8.24 12.59-6.36 28.08-7.03 42.35a.86.86 0 01-.48.72c-4.77 2.2-7.71-3.19-12.67-1.45-5.94 2.09-6.98 4.91-10.62 9.51a1.22 1.17 16.1 01-.81.43c-11.6.99-21.94 3.12-32.89 4.86-9.32 1.48-19.01.72-28.05 1.83-17.18 2.13-33.24 4.93-49.1 10.58-4.01 1.43-6.67 6.21-8.59 9.78a.96.94 33.2 00.26 1.21c5.37 4.09 15.45 6.02 22.67 6.33q23.47 1 46.95-1.06a.69.68-13.4 01.69.42q5.81 14.13 9.2 28.88c1.89 8.21 2.82 17.93 4.1 26.92"/><path stroke="#121111" vector-effect="non-scaling-stroke" d="M172.04 482.5q.19.53.76.53a.56.55 2.1 00.57-.52c.47-8.04 1.36-16.21 1.39-24.01q.06-11.4-.09-22.8c-.11-8.95-.94-20.32-1.01-30.52q-.03-4.46-2.08-18.98a.53.52 85 00-.53-.45h-.27a.54.54 0 00-.53.5l-.04.5"/><path stroke="#c9cbbd" vector-effect="non-scaling-stroke" d="M512.42 187.55c-.35-1.64-2.17-1.7-3.06-.48a.48.47 21.4 00.33.75l2.24.27a.45.44 87.2 00.49-.54"/><path stroke="#fcf1c5" vector-effect="non-scaling-stroke" d="M258.48 573.54a1.3.27 90 00.27-1.3 1.3.27 90 00-.27-1.3 1.3.27 90 00-.27 1.3 1.3.27 90 00.27 1.3"/><path stroke="#5c5d5e" vector-effect="non-scaling-stroke" d="M187.5 124.79l4.71 10.96"/><path stroke="#919190" vector-effect="non-scaling-stroke" d="M192.21 135.75q4.05 9.32 8.33 18.53c3.94 8.47 5.55 17.92 10.87 25.73 2.08 3.07 3.52 6.43 5.59 9.53"/><path stroke="#5c5d5e" vector-effect="non-scaling-stroke" d="M217 189.54l1 1.75"/><path stroke="#919190" vector-effect="non-scaling-stroke" d="M218 191.29c6.37 8.21 10.87 13.68 19.04 17.79a2.34 2.33 12.3 011.29 2q.23 6 4.71 9.61a1.56 1.54-77.4 01.55.88c2.16 9.58 3.18 15.46-1.63 23.68"/><path stroke="#5c5d5e" vector-effect="non-scaling-stroke" d="M241.96 245.25c-5.3 7.39-6.55 17.6-5.66 26.42q1.13 11.22.73 15.33c-.66 6.68 12.79 11.7 16.93 7.76 7.38-7.02-.72-15.49-6.41-19.68-.97-.72-1.34-1.62-1.31-2.76a.68.68 0 01.97-.6l10.49 4.89a1.77 1.76-50.9 001.83-.2l6.97-5.37"/><path stroke="#919190" vector-effect="non-scaling-stroke" d="M266.5 271.04l2.81-1.27a.51.5 64.5 01.66.24c1 1.98-1.42 4.29-2.97 6.03"/><path stroke="#5c5d5e" vector-effect="non-scaling-stroke" d="M267 276.04l-4.85 4.04a1.13 1.12 67.6 00-.4.98l.79 7.57a1.3 1.3 0 00.51.9l6.84 5.07q.37.28.83.38l9.01 1.92q.46.1.91.01l1.17-.22q.59-.11.31.42c-.28.54-4.49 1.36-5.3 1.56-5.93 1.46-12.64-1.1-16.54-5.01a.34.34 0 00-.53.07q-2.07 3.56-5.46 5.87a.47.47 0 00.05.81l.64.33a1.13 1.09 5.2 01.54.63c.76 2.3 2.31 3.6 4.85 3.76q6.56.43 13.13.12c1.31-.06 4.04-1.88 5.84-2.33q16.07-4 26.91-16.63"/><path stroke="#919190" vector-effect="non-scaling-stroke" d="M306.25 286.29c2.89-2.85 7.2-5.06 9.3-8.27.82-1.25 2.24-4.79 3.45-5.3q.45-.19.34.28l-.79 3.51"/><path stroke="#5c5d5e" vector-effect="non-scaling-stroke" d="M318.55 276.51q-10.1 24.02-34.84 31.64-.91.28-1.34.87a.37.37 0 00.27.59q19.21 1.59 38.3 4.3a.43.43 0 00.49-.37l.28-2.04"/><path stroke="#919190" vector-effect="non-scaling-stroke" d="M321.71 311.5q3.45-9.85 14.03-9.98 1.75-.03 3.29-.93a.85.85 0 01.92.03l1.22.87a.66.65-44 00.73.01q7.2-4.66 12.8 1.62a.86.85 61.2 00.88.26q5.76-1.7 11.61-.55a1.53 1.53 0 01.88.51q4.28 5.05 3.02 11.69a.84.84 0 00.9.99l4.84-.43"/><path stroke="#5c5d5e" vector-effect="non-scaling-stroke" d="M376.83 315.59l4.79-.09a.38.37-10.5 00.35-.5c-2.2-5.98-3.96-11.78-7.4-17.34-4.83-7.78-8.73-14.62-15.78-21.16"/><path stroke="#919190" vector-effect="non-scaling-stroke" d="M358.79 276.5q-11.19-13.76-27.09-21.82a1.03 1.01-82.9 01-.54-.71q-2.35-11.64-9.07-21.34c-2.54-3.66 3-13.48 4.96-17.02 1.93-3.48 1.07-7.37.92-11.19-.08-2.21 6.83-8.49 8.54-10.22 9.16-9.33 14.39-18.55 14.03-31.7"/><path stroke="#5c5d5e" vector-effect="non-scaling-stroke" d="M350.54 162.5l1.17-5.5"/><path stroke="#919190" vector-effect="non-scaling-stroke" d="M351.71 157q3.45-15.77 10.18-30.39c2.67-5.8 3.71-12.81-3.14-15.73a1.59 1.54-38.6 00-.96-.09c-.95.2-2.27.42-3.12.85-9.03 4.62-18.6 9.35-26.19 15.91-8.53 7.4-16.2 15.34-22.65 24.96q-6.01 8.98-8.07 13.49-3.15 6.87-7.5 24.25c-.52 2.05-4.96 6.33-6.49 8.17q-.54.66-.53-.19l.01-1.85a.76.75-84.7 00-.62-.76q-7.97-1.42-15.37 1.64a.49.48 69.9 01-.65-.31c-2.66-8.66-4.74-18.49-9.2-26.38-10.73-18.97-24.15-28.72-42.15-40.08-7.4-4.68-15.62-8.2-23.44-12.32q-.79-.42-2.57-.83a.76.76 0 00-.79.31q-2.29 3.3-.96 7.14"/><path stroke="#cacccd" vector-effect="non-scaling-stroke" d="M351.71 157q-3.72 4.24-5.82 9.52-.37.94.3.19 2.04-2.26 3.46-4.96.61-1.17.8.14l.09.61M358.79 276.5l-.05.73a1.62 1.61 31.3 00.23.93q6.49 10.53 7.21 22.92a.87.87 0 00.6.77l2.42.76a.97.97 0 01.6.53c1.91 4.09 4.17 5.25 2.39 10.2a.96.95 3.2 001.12 1.25q1.9-.44 3.52 1M321.71 311.5c-4.26-1.76-8.4-2.28-12.53-4.64a.46.46 0 01.01-.81c8.56-4.48 14.74-12.62 18.35-21.35 3.41-8.22 3.68-20.69-1.72-28.73q-.29-.43-.25.08c1.49 17.08-1.23 33-17.07 42.39q-.42.25-.08-.11 8.74-9.18 10.13-21.82M306.25 286.29c-4.72 2.05-9.99 7.37-15.9 6.85q-.98-.09-.23-.72l1.62-1.38q.47-.39-.13-.47c-5.23-.74-9.51-2.05-14.11-4.9-4.81-2.97-8.76-3.38-10.5-9.63M266.5 271.04l-.98-.1q-.08-.01-.02-.07l.2-.19q.26-.26-.09-.17c-5 1.32-8.22 2.21-12.42.28-4.34-1.99-10.69-3.67-11.26-8.54q-1.01-8.49.03-17M218 191.29q1.98 1.38 4.19 2.26c3.45 1.37 5.25 2.99 7.92 5.13q.65.52-.16.3l-3.7-1.02a.56.56 0 00-.7.44c-.34 1.84 10.4 5.48 12.19 6.19a.36.35 23.3 00.44-.17l.14-.3a.2.2 0 01.33-.05l1.57 1.64a.64.64 0 00.87.05c2.28-1.93-1.52-6.69-1.33-8.51q.06-.51.28-.89a.7.7 0 011.2.02l1.66 2.91q.79 1.37.92-.2c.52-5.96-2.83-9.34-4.78-14.43a.47.47 0 01.73-.54l4.4 3.51q.94.75.54-.38-3.07-8.87-10.96-13.84a1.84 1.8 4.7 01-.67-.77l-2.15-4.63q-.32-.69.43-.55 1.38.26 2.45 1.27.35.34.46-.14c.11-.52-.24-.73-.71-.94-1.57-.71-1.38-2.11-1.91-3.2q-2.1-4.33-4.85-8.38a.4.4 0 01.41-.62q3.06.6 5.51 2.83.34.31.64.23a.31.31 0 00.16-.51q-2.23-2.44-3.26-5.6a1.57 1.56 11 00-.49-.72q-6.13-5.16-11.92-10.69c-1.27-1.21-2.81-3.78-3.89-4.47-4.58-2.91-24.79-15.53-25.54-14.39a.98.95 51.7 00-.09.88q.47 1.26-.83 1.78"/><path stroke="#cacccd" vector-effect="non-scaling-stroke" d="M217 189.54c1.01-.39 8.62 2.51 10.25 2.97q.48.14.09-.17c-5.07-4-9.85-6.25-14.14-11.64a.56.55-8.5 01.64-.86l3.65 1.43a.31.31 0 00.33-.5q-2.06-2.17-3.69-4.65c-1.02-1.56-2.66-1.73-3.83-3.2-3.51-4.4-5.17-10.48-6.82-14.09q-2.56-5.58-4.81-11.29c-1.46-3.7-3.7-7.29-5.32-11.11a.97.96-4.6 00-.69-.58l-.45-.1"/><path stroke="#8f8466" vector-effect="non-scaling-stroke" d="M240.91 238.29q-1.31-.57-2.68-.15-1.1.33-.1.91 1.75 1 2.81-.67a.07.07 0 00-.03-.09"/><path stroke="#5c5d5e" vector-effect="non-scaling-stroke" d="M211.79 298.75c-1.15 6.06 5.6 4.49 5.42 0"/><path stroke="#919190" vector-effect="non-scaling-stroke" d="M217.21 298.75l3.4-5.32a.43.42-63.7 00-.21-.63c-4.55-1.64-7.67 1.85-8.61 5.95"/><path stroke="#cacccd" vector-effect="non-scaling-stroke" d="M217.21 298.75q-2.59 1.78-5.42 0"/><path stroke="#5c5d5e" vector-effect="non-scaling-stroke" d="M224.96 298.75q-1.89 2.57-.02 4.58a1.25 1.21-20.6 00.87.38q3.66.07 3.9-3.71"/><path stroke="#919190" vector-effect="non-scaling-stroke" d="M229.71 300l2.47-3.87a.81.8-47.5 00-.04-.93l-.76-.96a.71.7 60.6 00-.8-.23q-3.69 1.38-5.62 4.74"/><path stroke="#cacccd" vector-effect="non-scaling-stroke" d="M229.71 300q-2.77.61-4.75-1.25"/><path stroke="#5c5d5e" vector-effect="non-scaling-stroke" d="M234.84 301.94q-1.43 1.63.44 3.2a.87.86 49.5 00.97.08q1.28-.76 2.71-.13a1.09 1.08 40.4 001.05-.08l4.72-3.1a.48.47 44.6 00-.01-.8q-2.87-1.79-6.22-1.82"/><path stroke="#919190" vector-effect="non-scaling-stroke" d="M238.5 299.29q-.24-.54-.65-.79a.56.55 32.3 00-.74.16l-2.27 3.28"/><path stroke="#cacccd" vector-effect="non-scaling-stroke" d="M238.5 299.29l2.82 1.01a.85.85 0 01.26 1.45q-3.26 2.69-6.74.19"/><path stroke="#5c5d5e" vector-effect="non-scaling-stroke" d="M133.55 311.6c22.64-1.89 45.1-2.2 67.81-1.83q5.92.1 12.88.82c10.86 1.13 22.12 1.7 32.53 3.12q34.68 4.72 69.38 9.35c11.92 1.59 25.96 4.22 39.02 5.93 14.22 1.87 27.5 5.21 42.33 6.03q29 1.6 53.69.54c14.01-.6 25.92-3.65 38.39-8.78 1.89-.78 2.58-2.09 2.39-4.04-1.24-12.8-34.25-20.77-44.16-22.3q-6.61-1.03-12.92-2.02a.35.35 0 00-.24.65q2.62 1.54 4.12 4.17a1.48 1.46-54.8 01.17 1.03q-.91 4.88-5.43 6.27-29.44 9.01-62.26 10.98a1.35 1.31-68.7 00-.86.39c-4.69 4.82-13.39 7.65-19.72 3.8a1.05 1.05 0 00-.89-.1c-8.89 2.99-13.06-2.14-21.16-4.02-2.47-.58-4.97-2.2-6.94-2.51q-13.91-2.17-49.43-6.32c-4.19-.48-10.31-.02-15.91-1.36q-8.27-1.97-17.32-.17-4.03.8-8.06-1.27a1.66 1.6 54.1 00-.94-.17c-5.18.61-7.98-.58-12.82-1.93a1.24 1.23 39.1 00-.92.09c-4.4 2.17-6.24-.1-10.33-.19q-32.9-.67-53.39.06-22.83.81-47.59 7.5-.49.13.02.07c9.58-1.14 19.65-3.04 28.56-3.79"/><path stroke="#5c5d5e" vector-effect="non-scaling-stroke" d="M341.96 309.5q-2.84 4.21-3.05 9.32a.74.72 12.9 00.45.7q4.36 1.83 8.76.2a.86.85-9.3 00.56-.77l.07-1.91"/><path stroke="#919190" vector-effect="non-scaling-stroke" d="M348.75 317.04l2.06-8.22a1.04 1.01-60.9 00-.27-.99l-2.57-2.57a.89.88-35.4 00-1.03-.17q-3.12 1.57-4.98 4.41"/><path stroke="#cacccd" vector-effect="non-scaling-stroke" d="M348.75 317.04q-5.03-2.3-6.79-7.54"/><path stroke="#5c5d5e" vector-effect="non-scaling-stroke" d="M329.96 309.5q-1.83 1.3-2.27 4.01a1.11 1.11 0 00.82 1.26q3.82.99 4.27-1.59"/><path stroke="#919190" vector-effect="non-scaling-stroke" d="M332.78 313.18l3.07-6.45a.65.65 0 00-.69-.92q-3.55.54-5.2 3.69"/><path stroke="#cacccd" vector-effect="non-scaling-stroke" d="M332.78 313.18l-2.82-3.68"/><path stroke="#5c5d5e" vector-effect="non-scaling-stroke" d="M356.04 313.75q-1.42 3.39-.59 7.1a.59.58 77 00.71.45c3.68-.85 7.29.37 8.8-4.3"/><path stroke="#919190" vector-effect="non-scaling-stroke" d="M364.96 317q1.94-4.74-1.3-8.63a1.33 1.28-18.4 00-.96-.46l-3.54-.1a.83.82-77.7 00-.79.51l-2.33 5.43"/><path stroke="#cacccd" vector-effect="non-scaling-stroke" d="M364.96 317q-5.34.49-8.92-3.25"/><path stroke="#5c5d5e" vector-effect="non-scaling-stroke" d="M258.44 353.81q47.07 3.09 90.75 2.07 9.29-.22 35.61-3.2c4.99-.57 10.39-2.02 15.74-2.67a.15.14-19.4 00.11-.22c-.19-.32-26.89-1.66-28.99-1.77-17.3-.91-34.75-4.06-51.11-5.86q-39.88-4.39-68.05-8.92c-31.81-5.11-59.78-9.43-90-10.04q-1.34-.03-3.34.44a.39.39 0 00-.26.56q2.53 4.95 5.2 9.83c1.88 3.45 2.78 7.04 4.02 10.74a.77.76 81.8 00.67.51q28.23 1.81 56.21 5.43 14.15 1.84 33.44 3.1M402.21 355.36c-6.97 31-7.19 65.45-4.68 101.67 1.35 19.49 4.79 37.79 10.85 56.22a.41.41 0 00.59.24q6.24-3.42 10.07-9.31c2.05-3.16 4.39-9.68 3.14-13.37q-2.2-6.48-3.91-15.31c-7.88-40.61-8.04-81.08-1.12-121.65q.39-2.29-1.83-1.63-5.93 1.76-11.95 2.15a1.27 1.26 4.2 00-1.16.99"/><path stroke="#121111" vector-effect="non-scaling-stroke" d="M225.54 382q1.52.11 1.43-1.5c-.17-3.13-1.81-25.84-3.98-26.44a.6.59 21.2 00-.69.3l-.3.6"/><path stroke="#5c5d5e" vector-effect="non-scaling-stroke" d="M222 354.96l-12.67-1.63a.34.34 0 00-.37.42q4.6 17.11 6.04 37.75c3.43 49.11 2.99 96.84-2.04 144.7a.75.75 0 00.58.81l9.06 2.09a.6.6 0 00.72-.51q.88-7.4 1.23-14.84 1.37-28.71 2.68-57.43c.26-5.79.06-12.21.21-18.32q.78-33.05-1.9-66"/><path stroke="#4b4c4d" vector-effect="non-scaling-stroke" d="M222 354.96l.25.27a1.23 1.21 19.2 01.31.63q2.23 12.98 2.98 26.14"/><path stroke="#5c5d5e" vector-effect="non-scaling-stroke" d="M233.77 541.48c12.69 2.83 26.98 5.21 40.1 5.32a1.55 1.54-1.1 001.56-1.61q-.22-5.88-.7-11.24c-2.37-26.75-3.01-53.45-3.89-80.27-1.03-31.22-.65-62.32-1.23-93.5a.58.58 0 00-.52-.57l-37.35-3.62a.39.39 0 00-.42.48c4.23 17.96 6.24 35.52 6.46 54.34.53 43.25-.16 85.82-5.15 129.07a1.47 1.47 0 001.14 1.6M178.59 399.62c.18-.79-.28-3.5-1.63-2.88a.51.5-27 00-.23.69l1.28 2.28q.4.71.58-.09"/><path stroke="#cacccd" vector-effect="non-scaling-stroke" d="M319.04 169.66q-3.07 7.25-5.01 14.88c-1.06 4.2-4.71 6.87-5.15 11.05a.52.51 5.5 00.47.56c2.69.24 4.47-.5 6.06-2.85q4.4-6.47 6.69-13.8a.49.49 0 01.96.17q-.36 7.42-3.3 14.12-.22.5.13.98.42.59.68-.09l4.49-11.7a.77.77 0 01.72-.49c2.01-.01-1.08 5.57.22 5.96a.5.5 0 00.63-.34c1.59-5.58 5.29-17.57 10.1-21.03a.5.5 0 01.74.63q-3.82 7.68-5.62 16.1a.44.44 0 00.82.29q4.72-9.04 9.52-17.61c3.39-6.05 9.05-11.08 10.7-17.89 2-8.23 5.02-15.78 8.31-23.54q1.44-3.4 1.5-5.15c.17-4.75-3.62-6.43-7.8-4.97-11.51 4.01-29.79 19.94-33.87 31.97a.28.27 76.1 00.46.28c.84-.89 4.61-6.02 5.31-6.04a.37.37 0 01.36.51c-2.64 6.66-7.06 12.32-11.13 18.17q-.69.99.27.27l5.01-3.76q.38-.29.32.18c-.64 5.43-4.4 10.06-6.68 15a.11.11 0 00.06.15l.26.09a.58.58 0 00.71-.3q.82-1.76 2.66-2.25.67-.19.4.45"/><path stroke="gray" vector-effect="non-scaling-stroke" d="M294.927 244.616a9.28 7.45 97.7 008.626-8.198 9.28 7.45 97.7 00-6.14-10.194 9.28 7.45 97.7 00-8.626 8.198 9.28 7.45 97.7 006.14 10.194"/><path stroke="gray" vector-effect="non-scaling-stroke" d="M294.86 236.43q3.77-1.53 2.26-5.42a.42.41 2.4 01.57-.52l2.72 1.35q.84.42.37-.39-1.77-3.04-5.58-2.11c-4.26 1.04-3.32 6.13-2.06 9.15 1.24 2.98 5.47 3.84 6.95.78q.31-.65-.33-.34-3.42 1.64-5.19-1.7a.58.58 0 01.29-.8"/></g><path d="M0 0h590.06l.23 4v1l-.03 584.57a.67.67 0 01-.67.67L0 590.09V0zm585.49 5.52a.27.27 0 00-.27-.27H5.52a.27.27 0 00-.27.27v579.7a.27.27 0 00.27.27h579.7a.27.27 0 00.27-.27V5.52z"/><path fill="#95989a" d="M590.06 0h.75q.25 2.1-.52 4l-.23-4z"/><path fill="#232221" d="M590.81 0h.19v590.06c-.83-.45-.25-535.26-.25-584.85a.22.21 1.4 00-.21-.21h-.25V4q.77-1.9.52-4z"/><path fill="#95989a" d="M590.29 5h.25a.22.21 1.4 01.21.21c0 49.59-.58 584.4.25 584.85v.94h-1.06q-4.88-.63-9.75 0h-6.25q-4.38-.63-8.75 0h-30.25q-2.38-.63-4.75 0h-2.25q-14.88-.63-29.75 0h-.25q-4.88-.63-9.75 0h-.25q-27.38-.63-54.75 0h-1.25q-15.88-.63-31.75 0h-.25q-2.88-.63-5.75 0h-2.25q-2.88-.63-5.75 0h-2.25q-11.88-.63-23.75 0h-.25q-3.88-.63-7.75 0h-.75q-3.63-.63-7.25 0h-.25q-3.88-.63-7.75 0h-.25q-11.88-.63-23.75 0h-.25q-7.63-.63-15.25 0h-2.75q-2.88-.63-5.75 0h-.25q-7.88-.63-15.75 0h-.25q-15.88-.63-31.75 0h-.25q-6.88-.63-13.75 0h-1.25q-3.38-.63-6.75 0h-1.25q-3.88-.63-7.75 0h-.25q-11.38-.63-22.75 0h-3.25q-6.13-.63-12.25 0h-2.75q-2.88-.63-5.75 0h-1.25q-7.38-.63-14.75 0h-1.25q-19.38-.63-38.75 0h-1.25q-33.88-.63-67.75 0h-.25q-10.38-.63-20.75 0h-2.25q-6.38-.63-12.75 0H0v-.91l589.59.15a.67.67 0 00.67-.67L590.29 5z"/><path fill="#fdfddf" d="M585.49 585.22a.27.27 0 01-.27.27H5.52a.27.27 0 01-.27-.27V5.52a.27.27 0 01.27-.27h579.7a.27.27 0 01.27.27v579.7zM81.02 32.71q-21.96-.42-42.7-.01c-19.3.39-21.49 13.04-21.23 29.3q.23 14.28.39 28.56.04 3.34.45 5.44.4 2.04 1.86.57c20.71-20.86 41.92-41.2 61.72-62.72a.68.68 0 00-.49-1.14zm89.19 354.04q5.59 47.78 1.83 95.75-1.5 12.4-3.62 24.7c-4.35 25.18 49.37 37.55 66.1 40.9 54.33 10.89 115.96 6.86 165.1-21.03 12.2-6.93 21.14-13.16 27.37-24.57 2.14-3.92 2.01-7.32.66-11.9-5.55-18.84-8.2-40.67-9.18-58.54q-2.25-40.97 4.83-81.39a.65.64-86.5 01.59-.53c13.89-.67 65.4-3.94 71.82-19.98 8.4-20.95-26.91-31.2-41.27-33.65q-36.92-6.29-74.77-5.11a2.74 2.74 0 01-2.43-1.32Q362.69 266 337.5 253.45a1.51 1.5-88.8 01-.7-.73c-3.58-7.97-5.3-15.56-11.59-22.63a.6.59 43 01-.03-.76q3.96-5.22 6.47-11.25c1.41-3.4.81-7.45.78-11.14a1.12 1.1 69.4 01.37-.83c8.38-7.73 22.08-22.35 22.9-34.14 1.12-16.15 6.35-31.58 11.94-46.64 2.82-7.59.07-14.16-7.53-17.36-4.93-2.08-26.89 10.69-31.64 13.9-4.77 3.23-9.13 7.93-13.58 12q-5.33 4.87-8.48 9.01c-11.23 14.78-17.78 29.63-22.47 47.77a.56.56 0 01-.61.42q-6.45-.84-12.79.47a.6.59 76.2 01-.7-.43c-3.56-13.61-8.66-25.96-17.23-37.12-14.7-19.13-39.6-32.38-61.19-41.99-5.18-2.3-8.64 6.42-9.23 9.95-.72 4.37 3 12.92 4.81 17.11q8.66 20.1 17.2 40.24c2.17 5.13 6.64 10.57 10.46 16.2q7.12 10.49 18.01 17.34a1.57 1.52-89 01.56.6l5.57 10.59a.93.91 46.8 01-.02.88q-1.8 3.11.35 6.07a.45.44-41.2 01-.04.57c-.44.48-.83.09-1.17-.23a.33.32-49.8 00-.5.05c-3.44 4.92-3.98 7.9-.82 13.22a.82.81-43.8 01-.02.85c-8.24 12.59-6.36 28.08-7.03 42.35a.86.86 0 01-.48.72c-4.77 2.2-7.71-3.19-12.67-1.45-5.94 2.09-6.98 4.91-10.62 9.51a1.22 1.17 16.1 01-.81.43c-11.6.99-21.94 3.12-32.89 4.86-9.32 1.48-19.01.72-28.05 1.83-17.18 2.13-33.24 4.93-49.1 10.58-4.01 1.43-6.67 6.21-8.59 9.78a.96.94 33.2 00.26 1.21c5.37 4.09 15.45 6.02 22.67 6.33q23.47 1 46.95-1.06a.69.68-13.4 01.69.42q5.81 14.13 9.2 28.88c1.89 8.21 2.82 17.93 4.1 26.92zm342.21-199.2c-.35-1.64-2.17-1.7-3.06-.48a.48.47 21.4 00.33.75l2.24.27a.45.44 87.2 00.49-.54zM258.48 573.54a1.3.27 90 00.27-1.3 1.3.27 90 00-.27-1.3 1.3.27 90 00-.27 1.3 1.3.27 90 00.27 1.3z"/><path fill="#fae5aa" d="M81.02 32.71a.68.68 0 01.49 1.14C61.71 55.37 40.5 75.71 19.79 96.57q-1.46 1.47-1.86-.57-.41-2.1-.45-5.44-.16-14.28-.39-28.56c-.26-16.26 1.93-28.91 21.23-29.3q20.74-.41 42.7.01z"/><path fill="#232221" d="M172.04 482.5q.19.53.76.53a.56.55 2.1 00.57-.52c.47-8.04 1.36-16.21 1.39-24.01q.06-11.4-.09-22.8c-.11-8.95-.94-20.32-1.01-30.52q-.03-4.46-2.08-18.98a.53.52 85 00-.53-.45h-.27a.54.54 0 00-.53.5l-.04.5c-1.28-8.99-2.21-18.71-4.1-26.92q-3.39-14.75-9.2-28.88a.69.68-13.4 00-.69-.42q-23.48 2.06-46.95 1.06c-7.22-.31-17.3-2.24-22.67-6.33a.96.94 33.2 01-.26-1.21c1.92-3.57 4.58-8.35 8.59-9.78 15.86-5.65 31.92-8.45 49.1-10.58 9.04-1.11 18.73-.35 28.05-1.83 10.95-1.74 21.29-3.87 32.89-4.86a1.22 1.17 16.1 00.81-.43c3.64-4.6 4.68-7.42 10.62-9.51 4.96-1.74 7.9 3.65 12.67 1.45a.86.86 0 00.48-.72c.67-14.27-1.21-29.76 7.03-42.35a.82.81-43.8 00.02-.85c-3.16-5.32-2.62-8.3.82-13.22a.33.32-49.8 01.5-.05c.34.32.73.71 1.17.23a.45.44-41.2 00.04-.57q-2.15-2.96-.35-6.07a.93.91 46.8 00.02-.88l-5.57-10.59a1.57 1.52-89 00-.56-.6q-10.89-6.85-18.01-17.34c-3.82-5.63-8.29-11.07-10.46-16.2q-8.54-20.14-17.2-40.24c-1.81-4.19-5.53-12.74-4.81-17.11.59-3.53 4.05-12.25 9.23-9.95 21.59 9.61 46.49 22.86 61.19 41.99 8.57 11.16 13.67 23.51 17.23 37.12a.6.59 76.2 00.7.43q6.34-1.31 12.79-.47a.56.56 0 00.61-.42c4.69-18.14 11.24-32.99 22.47-47.77q3.15-4.14 8.48-9.01c4.45-4.07 8.81-8.77 13.58-12 4.75-3.21 26.71-15.98 31.64-13.9 7.6 3.2 10.35 9.77 7.53 17.36-5.59 15.06-10.82 30.49-11.94 46.64-.82 11.79-14.52 26.41-22.9 34.14a1.12 1.1 69.4 00-.37.83c.03 3.69.63 7.74-.78 11.14q-2.51 6.03-6.47 11.25a.6.59 43 00.03.76c6.29 7.07 8.01 14.66 11.59 22.63a1.51 1.5-88.8 00.7.73q25.19 12.55 39.74 36.63a2.74 2.74 0 002.43 1.32q37.85-1.18 74.77 5.11c14.36 2.45 49.67 12.7 41.27 33.65-6.42 16.04-57.93 19.31-71.82 19.98a.65.64-86.5 00-.59.53q-7.08 40.42-4.83 81.39c.98 17.87 3.63 39.7 9.18 58.54 1.35 4.58 1.48 7.98-.66 11.9-6.23 11.41-15.17 17.64-27.37 24.57-49.14 27.89-110.77 31.92-165.1 21.03-16.73-3.35-70.45-15.72-66.1-40.9q2.12-12.3 3.62-24.7zm15.46-357.71l4.71 10.96q4.05 9.32 8.33 18.53c3.94 8.47 5.55 17.92 10.87 25.73 2.08 3.07 3.52 6.43 5.59 9.53l1 1.75c6.37 8.21 10.87 13.68 19.04 17.79a2.34 2.33 12.3 011.29 2q.23 6 4.71 9.61a1.56 1.54-77.4 01.55.88c2.16 9.58 3.18 15.46-1.63 23.68-5.3 7.39-6.55 17.6-5.66 26.42q1.13 11.22.73 15.33c-.66 6.68 12.79 11.7 16.93 7.76 7.38-7.02-.72-15.49-6.41-19.68-.97-.72-1.34-1.62-1.31-2.76a.68.68 0 01.97-.6l10.49 4.89a1.77 1.76-50.9 001.83-.2l6.97-5.37 2.81-1.27a.51.5 64.5 01.66.24c1 1.98-1.42 4.29-2.97 6.03l-4.85 4.04a1.13 1.12 67.6 00-.4.98l.79 7.57a1.3 1.3 0 00.51.9l6.84 5.07q.37.28.83.38l9.01 1.92q.46.1.91.01l1.17-.22q.59-.11.31.42c-.28.54-4.49 1.36-5.3 1.56-5.93 1.46-12.64-1.1-16.54-5.01a.34.34 0 00-.53.07q-2.07 3.56-5.46 5.87a.47.47 0 00.05.81l.64.33a1.13 1.09 5.2 01.54.63c.76 2.3 2.31 3.6 4.85 3.76q6.56.43 13.13.12c1.31-.06 4.04-1.88 5.84-2.33q16.07-4 26.91-16.63c2.89-2.85 7.2-5.06 9.3-8.27.82-1.25 2.24-4.79 3.45-5.3q.45-.19.34.28l-.79 3.51q-10.1 24.02-34.84 31.64-.91.28-1.34.87a.37.37 0 00.27.59q19.21 1.59 38.3 4.3a.43.43 0 00.49-.37l.28-2.04q3.45-9.85 14.03-9.98 1.75-.03 3.29-.93a.85.85 0 01.92.03l1.22.87a.66.65-44 00.73.01q7.2-4.66 12.8 1.62a.86.85 61.2 00.88.26q5.76-1.7 11.61-.55a1.53 1.53 0 01.88.51q4.28 5.05 3.02 11.69a.84.84 0 00.9.99l4.84-.43 4.79-.09a.38.37-10.5 00.35-.5c-2.2-5.98-3.96-11.78-7.4-17.34-4.83-7.78-8.73-14.62-15.78-21.16q-11.19-13.76-27.09-21.82a1.03 1.01-82.9 01-.54-.71q-2.35-11.64-9.07-21.34c-2.54-3.66 3-13.48 4.96-17.02 1.93-3.48 1.07-7.37.92-11.19-.08-2.21 6.83-8.49 8.54-10.22 9.16-9.33 14.39-18.55 14.03-31.7l1.17-5.5q3.45-15.77 10.18-30.39c2.67-5.8 3.71-12.81-3.14-15.73a1.59 1.54-38.6 00-.96-.09c-.95.2-2.27.42-3.12.85-9.03 4.62-18.6 9.35-26.19 15.91-8.53 7.4-16.2 15.34-22.65 24.96q-6.01 8.98-8.07 13.49-3.15 6.87-7.5 24.25c-.52 2.05-4.96 6.33-6.49 8.17q-.54.66-.53-.19l.01-1.85a.76.75-84.7 00-.62-.76q-7.97-1.42-15.37 1.64a.49.48 69.9 01-.65-.31c-2.66-8.66-4.74-18.49-9.2-26.38-10.73-18.97-24.15-28.72-42.15-40.08-7.4-4.68-15.62-8.2-23.44-12.32q-.79-.42-2.57-.83a.76.76 0 00-.79.31q-2.29 3.3-.96 7.14zm53.41 113.5q-1.31-.57-2.68-.15-1.1.33-.1.91 1.75 1 2.81-.67a.07.07 0 00-.03-.09zm-29.12 60.46c-1.15 6.06 5.6 4.49 5.42 0l3.4-5.32a.43.42-63.7 00-.21-.63c-4.55-1.64-7.67 1.85-8.61 5.95zm13.17 0q-1.89 2.57-.02 4.58a1.25 1.21-20.6 00.87.38q3.66.07 3.9-3.71l2.47-3.87a.81.8-47.5 00-.04-.93l-.76-.96a.71.7 60.6 00-.8-.23q-3.69 1.38-5.62 4.74zm9.88 3.19q-1.43 1.63.44 3.2a.87.86 49.5 00.97.08q1.28-.76 2.71-.13a1.09 1.08 40.4 001.05-.08l4.72-3.1a.48.47 44.6 00-.01-.8q-2.87-1.79-6.22-1.82-.24-.54-.65-.79a.56.55 32.3 00-.74.16l-2.27 3.28zm-101.29 9.66c22.64-1.89 45.1-2.2 67.81-1.83q5.92.1 12.88.82c10.86 1.13 22.12 1.7 32.53 3.12q34.68 4.72 69.38 9.35c11.92 1.59 25.96 4.22 39.02 5.93 14.22 1.87 27.5 5.21 42.33 6.03q29 1.6 53.69.54c14.01-.6 25.92-3.65 38.39-8.78 1.89-.78 2.58-2.09 2.39-4.04-1.24-12.8-34.25-20.77-44.16-22.3q-6.61-1.03-12.92-2.02a.35.35 0 00-.24.65q2.62 1.54 4.12 4.17a1.48 1.46-54.8 01.17 1.03q-.91 4.88-5.43 6.27-29.44 9.01-62.26 10.98a1.35 1.31-68.7 00-.86.39c-4.69 4.82-13.39 7.65-19.72 3.8a1.05 1.05 0 00-.89-.1c-8.89 2.99-13.06-2.14-21.16-4.02-2.47-.58-4.97-2.2-6.94-2.51q-13.91-2.17-49.43-6.32c-4.19-.48-10.31-.02-15.91-1.36q-8.27-1.97-17.32-.17-4.03.8-8.06-1.27a1.66 1.6 54.1 00-.94-.17c-5.18.61-7.98-.58-12.82-1.93a1.24 1.23 39.1 00-.92.09c-4.4 2.17-6.24-.1-10.33-.19q-32.9-.67-53.39.06-22.83.81-47.59 7.5-.49.13.02.07c9.58-1.14 19.65-3.04 28.56-3.79zm208.41-2.1q-2.84 4.21-3.05 9.32a.74.72 12.9 00.45.7q4.36 1.83 8.76.2a.86.85-9.3 00.56-.77l.07-1.91 2.06-8.22a1.04 1.01-60.9 00-.27-.99l-2.57-2.57a.89.88-35.4 00-1.03-.17q-3.12 1.57-4.98 4.41zm-12 0q-1.83 1.3-2.27 4.01a1.11 1.11 0 00.82 1.26q3.82.99 4.27-1.59l3.07-6.45a.65.65 0 00-.69-.92q-3.55.54-5.2 3.69zm26.08 4.25q-1.42 3.39-.59 7.1a.59.58 77 00.71.45c3.68-.85 7.29.37 8.8-4.3q1.94-4.74-1.3-8.63a1.33 1.28-18.4 00-.96-.46l-3.54-.1a.83.82-77.7 00-.79.51l-2.33 5.43zm-97.6 40.06q47.07 3.09 90.75 2.07 9.29-.22 35.61-3.2c4.99-.57 10.39-2.02 15.74-2.67a.15.14-19.4 00.11-.22c-.19-.32-26.89-1.66-28.99-1.77-17.3-.91-34.75-4.06-51.11-5.86q-39.88-4.39-68.05-8.92c-31.81-5.11-59.78-9.43-90-10.04q-1.34-.03-3.34.44a.39.39 0 00-.26.56q2.53 4.95 5.2 9.83c1.88 3.45 2.78 7.04 4.02 10.74a.77.76 81.8 00.67.51q28.23 1.81 56.21 5.43 14.15 1.84 33.44 3.1zm143.77 1.55c-6.97 31-7.19 65.45-4.68 101.67 1.35 19.49 4.79 37.79 10.85 56.22a.41.41 0 00.59.24q6.24-3.42 10.07-9.31c2.05-3.16 4.39-9.68 3.14-13.37q-2.2-6.48-3.91-15.31c-7.88-40.61-8.04-81.08-1.12-121.65q.39-2.29-1.83-1.63-5.93 1.76-11.95 2.15a1.27 1.26 4.2 00-1.16.99zM225.54 382q1.52.11 1.43-1.5c-.17-3.13-1.81-25.84-3.98-26.44a.6.59 21.2 00-.69.3l-.3.6-12.67-1.63a.34.34 0 00-.37.42q4.6 17.11 6.04 37.75c3.43 49.11 2.99 96.84-2.04 144.7a.75.75 0 00.58.81l9.06 2.09a.6.6 0 00.72-.51q.88-7.4 1.23-14.84 1.37-28.71 2.68-57.43c.26-5.79.06-12.21.21-18.32q.78-33.05-1.9-66zm8.23 159.48c12.69 2.83 26.98 5.21 40.1 5.32a1.55 1.54-1.1 001.56-1.61q-.22-5.88-.7-11.24c-2.37-26.75-3.01-53.45-3.89-80.27-1.03-31.22-.65-62.32-1.23-93.5a.58.58 0 00-.52-.57l-37.35-3.62a.39.39 0 00-.42.48c4.23 17.96 6.24 35.52 6.46 54.34.53 43.25-.16 85.82-5.15 129.07a1.47 1.47 0 001.14 1.6zm-55.18-141.86c.18-.79-.28-3.5-1.63-2.88a.51.5-27 00-.23.69l1.28 2.28q.4.71.58-.09z"/><path fill="#fff" d="M351.71 157q-3.72 4.24-5.82 9.52-.37.94.3.19 2.04-2.26 3.46-4.96.61-1.17.8.14l.09.61c.36 13.15-4.87 22.37-14.03 31.7-1.71 1.73-8.62 8.01-8.54 10.22.15 3.82 1.01 7.71-.92 11.19-1.96 3.54-7.5 13.36-4.96 17.02q6.72 9.7 9.07 21.34a1.03 1.01-82.9 00.54.71q15.9 8.06 27.09 21.82l-.05.73a1.62 1.61 31.3 00.23.93q6.49 10.53 7.21 22.92a.87.87 0 00.6.77l2.42.76a.97.97 0 01.6.53c1.91 4.09 4.17 5.25 2.39 10.2a.96.95 3.2 001.12 1.25q1.9-.44 3.52 1l-4.84.43a.84.84 0 01-.9-.99q1.26-6.64-3.02-11.69a1.53 1.53 0 00-.88-.51q-5.85-1.15-11.61.55a.86.85 61.2 01-.88-.26q-5.6-6.28-12.8-1.62a.66.65-44 01-.73-.01l-1.22-.87a.85.85 0 00-.92-.03q-1.54.9-3.29.93-10.58.13-14.03 9.98c-4.26-1.76-8.4-2.28-12.53-4.64a.46.46 0 01.01-.81c8.56-4.48 14.74-12.62 18.35-21.35 3.41-8.22 3.68-20.69-1.72-28.73q-.29-.43-.25.08c1.49 17.08-1.23 33-17.07 42.39q-.42.25-.08-.11 8.74-9.18 10.13-21.82l.79-3.51q.11-.47-.34-.28c-1.21.51-2.63 4.05-3.45 5.3-2.1 3.21-6.41 5.42-9.3 8.27-4.72 2.05-9.99 7.37-15.9 6.85q-.98-.09-.23-.72l1.62-1.38q.47-.39-.13-.47c-5.23-.74-9.51-2.05-14.11-4.9-4.81-2.97-8.76-3.38-10.5-9.63 1.55-1.74 3.97-4.05 2.97-6.03a.51.5 64.5 00-.66-.24l-2.81 1.27-.98-.1q-.08-.01-.02-.07l.2-.19q.26-.26-.09-.17c-5 1.32-8.22 2.21-12.42.28-4.34-1.99-10.69-3.67-11.26-8.54q-1.01-8.49.03-17c4.81-8.22 3.79-14.1 1.63-23.68a1.56 1.54-77.4 00-.55-.88q-4.48-3.61-4.71-9.61a2.34 2.33 12.3 00-1.29-2c-8.17-4.11-12.67-9.58-19.04-17.79q1.98 1.38 4.19 2.26c3.45 1.37 5.25 2.99 7.92 5.13q.65.52-.16.3l-3.7-1.02a.56.56 0 00-.7.44c-.34 1.84 10.4 5.48 12.19 6.19a.36.35 23.3 00.44-.17l.14-.3a.2.2 0 01.33-.05l1.57 1.64a.64.64 0 00.87.05c2.28-1.93-1.52-6.69-1.33-8.51q.06-.51.28-.89a.7.7 0 011.2.02l1.66 2.91q.79 1.37.92-.2c.52-5.96-2.83-9.34-4.78-14.43a.47.47 0 01.73-.54l4.4 3.51q.94.75.54-.38-3.07-8.87-10.96-13.84a1.84 1.8 4.7 01-.67-.77l-2.15-4.63q-.32-.69.43-.55 1.38.26 2.45 1.27.35.34.46-.14c.11-.52-.24-.73-.71-.94-1.57-.71-1.38-2.11-1.91-3.2q-2.1-4.33-4.85-8.38a.4.4 0 01.41-.62q3.06.6 5.51 2.83.34.31.64.23a.31.31 0 00.16-.51q-2.23-2.44-3.26-5.6a1.57 1.56 11 00-.49-.72q-6.13-5.16-11.92-10.69c-1.27-1.21-2.81-3.78-3.89-4.47-4.58-2.91-24.79-15.53-25.54-14.39a.98.95 51.7 00-.09.88q.47 1.26-.83 1.78-1.33-3.84.96-7.14a.76.76 0 01.79-.31q1.78.41 2.57.83c7.82 4.12 16.04 7.64 23.44 12.32 18 11.36 31.42 21.11 42.15 40.08 4.46 7.89 6.54 17.72 9.2 26.38a.49.48 69.9 00.65.31q7.4-3.06 15.37-1.64a.76.75-84.7 01.62.76l-.01 1.85q-.01.85.53.19c1.53-1.84 5.97-6.12 6.49-8.17q4.35-17.38 7.5-24.25 2.06-4.51 8.07-13.49c6.45-9.62 14.12-17.56 22.65-24.96 7.59-6.56 17.16-11.29 26.19-15.91.85-.43 2.17-.65 3.12-.85a1.59 1.54-38.6 01.96.09c6.85 2.92 5.81 9.93 3.14 15.73q-6.73 14.62-10.18 30.39zm-32.67 12.66q-3.07 7.25-5.01 14.88c-1.06 4.2-4.71 6.87-5.15 11.05a.52.51 5.5 00.47.56c2.69.24 4.47-.5 6.06-2.85q4.4-6.47 6.69-13.8a.49.49 0 01.96.17q-.36 7.42-3.3 14.12-.22.5.13.98.42.59.68-.09l4.49-11.7a.77.77 0 01.72-.49c2.01-.01-1.08 5.57.22 5.96a.5.5 0 00.63-.34c1.59-5.58 5.29-17.57 10.1-21.03a.5.5 0 01.74.63q-3.82 7.68-5.62 16.1a.44.44 0 00.82.29q4.72-9.04 9.52-17.61c3.39-6.05 9.05-11.08 10.7-17.89 2-8.23 5.02-15.78 8.31-23.54q1.44-3.4 1.5-5.15c.17-4.75-3.62-6.43-7.8-4.97-11.51 4.01-29.79 19.94-33.87 31.97a.28.27 76.1 00.46.28c.84-.89 4.61-6.02 5.31-6.04a.37.37 0 01.36.51c-2.64 6.66-7.06 12.32-11.13 18.17q-.69.99.27.27l5.01-3.76q.38-.29.32.18c-.64 5.43-4.4 10.06-6.68 15a.11.11 0 00.06.15l.26.09a.58.58 0 00.71-.3q.82-1.76 2.66-2.25.67-.19.4.45zm-24.113 74.956a9.28 7.45 97.7 008.626-8.198 9.28 7.45 97.7 00-6.14-10.194 9.28 7.45 97.7 00-8.626 8.198 9.28 7.45 97.7 006.14 10.194z"/><path fill="#95989a" d="M318.64 169.21q-1.84.49-2.66 2.25a.58.58 0 01-.71.3l-.26-.09a.11.11 0 01-.06-.15c2.28-4.94 6.04-9.57 6.68-15q.06-.47-.32-.18l-5.01 3.76q-.96.72-.27-.27c4.07-5.85 8.49-11.51 11.13-18.17a.37.37 0 00-.36-.51c-.7.02-4.47 5.15-5.31 6.04a.28.27 76.1 01-.46-.28c4.08-12.03 22.36-27.96 33.87-31.97 4.18-1.46 7.97.22 7.8 4.97q-.06 1.75-1.5 5.15c-3.29 7.76-6.31 15.31-8.31 23.54-1.65 6.81-7.31 11.84-10.7 17.89q-4.8 8.57-9.52 17.61a.44.44 0 01-.82-.29q1.8-8.42 5.62-16.1a.5.5 0 00-.74-.63c-4.81 3.46-8.51 15.45-10.1 21.03a.5.5 0 01-.63.34c-1.3-.39 1.79-5.97-.22-5.96a.77.77 0 00-.72.49l-4.49 11.7q-.26.68-.68.09-.35-.48-.13-.98 2.94-6.7 3.3-14.12a.49.49 0 00-.96-.17q-2.29 7.33-6.69 13.8c-1.59 2.35-3.37 3.09-6.06 2.85a.52.51 5.5 01-.47-.56c.44-4.18 4.09-6.85 5.15-11.05q1.94-7.63 5.01-14.88.27-.64-.4-.45zM218 191.29l-1-1.75c1.01-.39 8.62 2.51 10.25 2.97q.48.14.09-.17c-5.07-4-9.85-6.25-14.14-11.64a.56.55-8.5 01.64-.86l3.65 1.43a.31.31 0 00.33-.5q-2.06-2.17-3.69-4.65c-1.02-1.56-2.66-1.73-3.83-3.2-3.51-4.4-5.17-10.48-6.82-14.09q-2.56-5.58-4.81-11.29c-1.46-3.7-3.7-7.29-5.32-11.11a.97.96-4.6 00-.69-.58l-.45-.1-4.71-10.96q1.3-.52.83-1.78a.98.95 51.7 01.09-.88c.75-1.14 20.96 11.48 25.54 14.39 1.08.69 2.62 3.26 3.89 4.47q5.79 5.53 11.92 10.69a1.57 1.56 11 01.49.72q1.03 3.16 3.26 5.6a.31.31 0 01-.16.51q-.3.08-.64-.23-2.45-2.23-5.51-2.83a.4.4 0 00-.41.62q2.75 4.05 4.85 8.38c.53 1.09.34 2.49 1.91 3.2.47.21.82.42.71.94q-.11.48-.46.14-1.07-1.01-2.45-1.27-.75-.14-.43.55l2.15 4.63a1.84 1.8 4.7 00.67.77q7.89 4.97 10.96 13.84.4 1.13-.54.38l-4.4-3.51a.47.47 0 00-.73.54c1.95 5.09 5.3 8.47 4.78 14.43q-.13 1.57-.92.2l-1.66-2.91a.7.7 0 00-1.2-.02q-.22.38-.28.89c-.19 1.82 3.61 6.58 1.33 8.51a.64.64 0 01-.87-.05l-1.57-1.64a.2.2 0 00-.33.05l-.14.3a.36.35 23.3 01-.44.17c-1.79-.71-12.53-4.35-12.19-6.19a.56.56 0 01.7-.44l3.7 1.02q.81.22.16-.3c-2.67-2.14-4.47-3.76-7.92-5.13q-2.21-.88-4.19-2.26z"/><path fill="#fff" d="M217 189.54c-2.07-3.1-3.51-6.46-5.59-9.53-5.32-7.81-6.93-17.26-10.87-25.73q-4.28-9.21-8.33-18.53l.45.1a.97.96-4.6 01.69.58c1.62 3.82 3.86 7.41 5.32 11.11q2.25 5.71 4.81 11.29c1.65 3.61 3.31 9.69 6.82 14.09 1.17 1.47 2.81 1.64 3.83 3.2q1.63 2.48 3.69 4.65a.31.31 0 01-.33.5l-3.65-1.43a.56.55-8.5 00-.64.86c4.29 5.39 9.07 7.64 14.14 11.64q.39.31-.09.17c-1.63-.46-9.24-3.36-10.25-2.97z"/><path fill="#95989a" d="M351.71 157l-1.17 5.5-.09-.61q-.19-1.31-.8-.14-1.42 2.7-3.46 4.96-.67.75-.3-.19 2.1-5.28 5.82-9.52zM509.36 187.07c.89-1.22 2.71-1.16 3.06.48a.45.44 87.2 01-.49.54l-2.24-.27a.48.47 21.4 01-.33-.75z"/><path d="M294.927 244.616a9.28 7.45 97.7 01-6.14-10.194 9.28 7.45 97.7 018.626-8.198 9.28 7.45 97.7 016.14 10.194 9.28 7.45 97.7 01-8.626 8.198zm-.067-8.186q3.77-1.53 2.26-5.42a.42.41 2.4 01.57-.52l2.72 1.35q.84.42.37-.39-1.77-3.04-5.58-2.11c-4.26 1.04-3.32 6.13-2.06 9.15 1.24 2.98 5.47 3.84 6.95.78q.31-.65-.33-.34-3.42 1.64-5.19-1.7a.58.58 0 01.29-.8z"/><path fill="#fff" d="M294.86 236.43a.58.58 0 00-.29.8q1.77 3.34 5.19 1.7.64-.31.33.34c-1.48 3.06-5.71 2.2-6.95-.78-1.26-3.02-2.2-8.11 2.06-9.15q3.81-.93 5.58 2.11.47.81-.37.39l-2.72-1.35a.42.41 2.4 00-.57.52q1.51 3.89-2.26 5.42z"/><path fill="#fae5aa" d="M240.91 238.29a.07.07 0 01.03.09q-1.06 1.67-2.81.67-1-.58.1-.91 1.37-.42 2.68.15z"/><path fill="#95989a" d="M241.96 245.25q-1.04 8.51-.03 17c.57 4.87 6.92 6.55 11.26 8.54 4.2 1.93 7.42 1.04 12.42-.28q.35-.09.09.17l-.2.19q-.06.06.02.07l.98.1-6.97 5.37a1.77 1.76-50.9 01-1.83.2l-10.49-4.89a.68.68 0 00-.97.6c-.03 1.14.34 2.04 1.31 2.76 5.69 4.19 13.79 12.66 6.41 19.68-4.14 3.94-17.59-1.08-16.93-7.76q.4-4.11-.73-15.33c-.89-8.82.36-19.03 5.66-26.42zM321.71 311.5l-.28 2.04a.43.43 0 01-.49.37q-19.09-2.71-38.3-4.3a.37.37 0 01-.27-.59q.43-.59 1.34-.87 24.74-7.62 34.84-31.64-1.39 12.64-10.13 21.82-.34.36.08.11c15.84-9.39 18.56-25.31 17.07-42.39q-.04-.51.25-.08c5.4 8.04 5.13 20.51 1.72 28.73-3.61 8.73-9.79 16.87-18.35 21.35a.46.46 0 00-.01.81c4.13 2.36 8.27 2.88 12.53 4.64z"/><path fill="#95989a" d="M267 276.04c1.74 6.25 5.69 6.66 10.5 9.63 4.6 2.85 8.88 4.16 14.11 4.9q.6.08.13.47l-1.62 1.38q-.75.63.23.72c5.91.52 11.18-4.8 15.9-6.85q-10.84 12.63-26.91 16.63c-1.8.45-4.53 2.27-5.84 2.33q-6.57.31-13.13-.12c-2.54-.16-4.09-1.46-4.85-3.76a1.13 1.09 5.2 00-.54-.63l-.64-.33a.47.47 0 01-.05-.81q3.39-2.31 5.46-5.87a.34.34 0 01.53-.07c3.9 3.91 10.61 6.47 16.54 5.01.81-.2 5.02-1.02 5.3-1.56q.28-.53-.31-.42l-1.17.22q-.45.09-.91-.01l-9.01-1.92q-.46-.1-.83-.38l-6.84-5.07a1.3 1.3 0 01-.51-.9l-.79-7.57a1.13 1.12 67.6 01.4-.98l4.85-4.04zM358.79 276.5c7.05 6.54 10.95 13.38 15.78 21.16 3.44 5.56 5.2 11.36 7.4 17.34a.38.37-10.5 01-.35.5l-4.79.09q-1.62-1.44-3.52-1a.96.95 3.2 01-1.12-1.25c1.78-4.95-.48-6.11-2.39-10.2a.97.97 0 00-.6-.53l-2.42-.76a.87.87 0 01-.6-.77q-.72-12.39-7.21-22.92a1.62 1.61 31.3 01-.23-.93l.05-.73z"/><path fill="#fff" d="M217.21 298.75q-2.59 1.78-5.42 0c.94-4.1 4.06-7.59 8.61-5.95a.43.42-63.7 01.21.63l-3.4 5.32zM229.71 300q-2.77.61-4.75-1.25 1.93-3.36 5.62-4.74a.71.7 60.6 01.8.23l.76.96a.81.8-47.5 01.04.93l-2.47 3.87zM238.5 299.29l2.82 1.01a.85.85 0 01.26 1.45q-3.26 2.69-6.74.19l2.27-3.28a.56.55 32.3 01.74-.16q.41.25.65.79z"/><path fill="#95989a" d="M201.36 309.77c-22.71-.37-45.17-.06-67.81 1.83-8.91.75-18.98 2.65-28.56 3.79q-.51.06-.02-.07 24.76-6.69 47.59-7.5 20.49-.73 53.39-.06c4.09.09 5.93 2.36 10.33.19a1.24 1.23 39.1 01.92-.09c4.84 1.35 7.64 2.54 12.82 1.93a1.66 1.6 54.1 01.94.17q4.03 2.07 8.06 1.27 9.05-1.8 17.32.17c5.6 1.34 11.72.88 15.91 1.36q35.52 4.15 49.43 6.32c1.97.31 4.47 1.93 6.94 2.51 8.1 1.88 12.27 7.01 21.16 4.02a1.05 1.05 0 01.89.1c6.33 3.85 15.03 1.02 19.72-3.8a1.35 1.31-68.7 01.86-.39q32.82-1.97 62.26-10.98 4.52-1.39 5.43-6.27a1.48 1.46-54.8 00-.17-1.03q-1.5-2.63-4.12-4.17a.35.35 0 01.24-.65q6.31.99 12.92 2.02c9.91 1.53 42.92 9.5 44.16 22.3.19 1.95-.5 3.26-2.39 4.04-12.47 5.13-24.38 8.18-38.39 8.78q-24.69 1.06-53.69-.54c-14.83-.82-28.11-4.16-42.33-6.03-13.06-1.71-27.1-4.34-39.02-5.93q-34.7-4.63-69.38-9.35c-10.41-1.42-21.67-1.99-32.53-3.12q-6.96-.72-12.88-.82zM211.79 298.75q2.83 1.78 5.42 0c.18 4.49-6.57 6.06-5.42 0zM224.96 298.75q1.98 1.86 4.75 1.25-.24 3.78-3.9 3.71a1.25 1.21-20.6 01-.87-.38q-1.87-2.01.02-4.58z"/><path fill="#95989a" d="M238.5 299.29q3.35.03 6.22 1.82a.48.47 44.6 01.01.8l-4.72 3.1a1.09 1.08 40.4 01-1.05.08q-1.43-.63-2.71.13a.87.86 49.5 01-.97-.08q-1.87-1.57-.44-3.2 3.48 2.5 6.74-.19a.85.85 0 00-.26-1.45l-2.82-1.01z"/><path fill="#fff" d="M348.75 317.04q-5.03-2.3-6.79-7.54 1.86-2.84 4.98-4.41a.89.88-35.4 011.03.17l2.57 2.57a1.04 1.01-60.9 01.27.99l-2.06 8.22zM332.78 313.18l-2.82-3.68q1.65-3.15 5.2-3.69a.65.65 0 01.69.92l-3.07 6.45zM364.96 317q-5.34.49-8.92-3.25l2.33-5.43a.83.82-77.7 01.79-.51l3.54.1a1.33 1.28-18.4 01.96.46q3.24 3.89 1.3 8.63z"/><path fill="#95989a" d="M329.96 309.5l2.82 3.68q-.45 2.58-4.27 1.59a1.11 1.11 0 01-.82-1.26q.44-2.71 2.27-4.01zM341.96 309.5q1.76 5.24 6.79 7.54l-.07 1.91a.86.85-9.3 01-.56.77q-4.4 1.63-8.76-.2a.74.72 12.9 01-.45-.7q.21-5.11 3.05-9.32zM356.04 313.75q3.58 3.74 8.92 3.25c-1.51 4.67-5.12 3.45-8.8 4.3a.59.58 77 01-.71-.45q-.83-3.71.59-7.1zM258.44 353.81q-19.29-1.26-33.44-3.1-27.98-3.62-56.21-5.43a.77.76 81.8 01-.67-.51c-1.24-3.7-2.14-7.29-4.02-10.74q-2.67-4.88-5.2-9.83a.39.39 0 01.26-.56q2-.47 3.34-.44c30.22.61 58.19 4.93 90 10.04q28.17 4.53 68.05 8.92c16.36 1.8 33.81 4.95 51.11 5.86 2.1.11 28.8 1.45 28.99 1.77a.15.14-19.4 01-.11.22c-5.35.65-10.75 2.1-15.74 2.67q-26.32 2.98-35.61 3.2-43.68 1.02-90.75-2.07zM402.21 355.36a1.27 1.26 4.2 011.16-.99q6.02-.39 11.95-2.15 2.22-.66 1.83 1.63c-6.92 40.57-6.76 81.04 1.12 121.65q1.71 8.83 3.91 15.31c1.25 3.69-1.09 10.21-3.14 13.37q-3.83 5.89-10.07 9.31a.41.41 0 01-.59-.24c-6.06-18.43-9.5-36.73-10.85-56.22-2.51-36.22-2.29-70.67 4.68-101.67zM222 354.96l.25.27a1.23 1.21 19.2 01.31.63q2.23 12.98 2.98 26.14 2.68 32.95 1.9 66c-.15 6.11.05 12.53-.21 18.32q-1.31 28.72-2.68 57.43-.35 7.44-1.23 14.84a.6.6 0 01-.72.51l-9.06-2.09a.75.75 0 01-.58-.81c5.03-47.86 5.47-95.59 2.04-144.7q-1.44-20.64-6.04-37.75a.34.34 0 01.37-.42l12.67 1.63z"/><path d="M225.54 382q-.75-13.16-2.98-26.14a1.23 1.21 19.2 00-.31-.63l-.25-.27.3-.6a.6.59 21.2 01.69-.3c2.17.6 3.81 23.31 3.98 26.44q.09 1.61-1.43 1.5z"/><path fill="#95989a" d="M273.87 546.8c-13.12-.11-27.41-2.49-40.1-5.32a1.47 1.47 0 01-1.14-1.6c4.99-43.25 5.68-85.82 5.15-129.07-.22-18.82-2.23-36.38-6.46-54.34a.39.39 0 01.42-.48l37.35 3.62a.58.58 0 01.52.57c.58 31.18.2 62.28 1.23 93.5.88 26.82 1.52 53.52 3.89 80.27q.48 5.36.7 11.24a1.55 1.54-1.1 01-1.56 1.61z"/><path d="M172.04 482.5q3.76-47.97-1.83-95.75l.04-.5a.54.54 0 01.53-.5h.27a.53.52 85 01.53.45q2.05 14.52 2.08 18.98c.07 10.2.9 21.57 1.01 30.52q.15 11.4.09 22.8c-.03 7.8-.92 15.97-1.39 24.01a.56.55 2.1 01-.57.52q-.57 0-.76-.53z"/><path fill="#95989a" d="M176.96 396.74c1.35-.62 1.81 2.09 1.63 2.88q-.18.8-.58.09l-1.28-2.28a.51.5-27 01.23-.69z"/><ellipse fill="#fae5aa" transform="rotate(90 -156.88 415.36)" rx="1.3" ry=".27"/><path fill="#232221" d="M13.94 591H1.19q6.37-.63 12.75 0zM36.94 591H16.19q10.37-.63 20.75 0zM104.94 591H37.19q33.87-.63 67.75 0zM144.94 591h-38.75q19.37-.63 38.75 0zM160.94 591h-14.75q7.37-.63 14.75 0zM167.94 591h-5.75q2.87-.63 5.75 0zM182.94 591h-12.25q6.12-.63 12.25 0zM208.94 591h-22.75q11.37-.63 22.75 0zM216.94 591h-7.75q3.87-.63 7.75 0zM224.94 591h-6.75q3.37-.63 6.75 0zM239.94 591h-13.75q6.87-.63 13.75 0zM271.94 591h-31.75q15.87-.63 31.75 0zM287.94 591h-15.75q7.87-.63 15.75 0zM293.94 591h-5.75q2.87-.63 5.75 0zM311.94 591h-15.25q7.62-.63 15.25 0zM335.94 591h-23.75q11.87-.63 23.75 0zM343.94 591h-7.75q3.87-.63 7.75 0zM351.44 591h-7.25q3.62-.63 7.25 0zM359.94 591h-7.75q3.87-.63 7.75 0zM383.94 591h-23.75q11.87-.63 23.75 0zM391.94 591h-5.75q2.87-.63 5.75 0zM399.94 591h-5.75q2.87-.63 5.75 0zM431.94 591h-31.75q15.87-.63 31.75 0zM487.94 591h-54.75q27.37-.63 54.75 0zM497.94 591h-9.75q4.87-.63 9.75 0zM527.94 591h-29.75q14.87-.63 29.75 0zM534.94 591h-4.75q2.37-.63 4.75 0zM573.94 591h-8.75q4.37-.63 8.75 0zM589.94 591h-9.75q4.87-.63 9.75 0z"/></svg>