<svg xmlns="http://www.w3.org/2000/svg" viewBox="0 0 591 591"><g stroke-width="2" fill="none"><path stroke="#11100f" vector-effect="non-scaling-stroke" d="M590.06 0l-.02.25"/><path stroke="#494a4b" vector-effect="non-scaling-stroke" d="M590.04.25l.25 3.75"/><path stroke="#11100f" vector-effect="non-scaling-stroke" d="M590.29 4v1"/><path stroke="#494a4b" vector-effect="non-scaling-stroke" d="M590.29 5l-.03 584.57a.67.67 0 01-.67.67q-291.71.02-583.53-.02-3.03 0-6.06-.28"/><path stroke="#7d7f70" vector-effect="non-scaling-stroke" d="M585.5 5.51a.26.26 0 00-.26-.26H5.5a.26.26 0 00-.26.26v579.72a.26.26 0 00.26.26h579.74a.26.26 0 00.26-.26V5.51"/><path stroke="#595a5a" vector-effect="non-scaling-stroke" d="M591 590.31c-.83-.45-.25-535.49-.25-585.1a.22.21 1.4 00-.21-.21h-.25M590.29 4q1.37-2.04-.25-3.75M589.94 591q-4.63-.63-9.25 0M566.94 591q-2.38-.63-4.75 0M558.94 591q-18.38-.63-36.75 0M517.94 591q-13.88-.63-27.75 0M487.94 591q-35.88-.63-71.75 0M397.94 591l-23.19-.21M374.75 590.79l-38.81.21M260.94 591q-4.13-.63-8.25 0M231.44 591q-31.63-.63-63.25 0M165.94 591q-9.88-.63-19.75 0M143.94 591q-2.88-.63-5.75 0M133.94 591q-5.88-.63-11.75 0M121.94 591q-36.38-.63-72.75 0M48.94 591q-8.38-.63-16.75 0M31.94 591q-2.88-.63-5.75 0M22.94 591q-3.38-.63-6.75 0M15.94 591L0 590.44"/><path stroke="#faf2c6" vector-effect="non-scaling-stroke" d="M106.69 19.77q-1.75-.66-2.69-.65-20.34.24-40.68.36c-9.03.05-17.59 1.36-21.88 10.43q-2.64 5.57-2.38 11.6c.62 14.23.21 28.67.31 42.93q.01 1.45.27 1.99a1.34 1.33-35 002.15.37q31.8-31.72 62.72-63.54 1.37-1.4 2.38-2.8a.45.45 0 00-.2-.69"/><path stroke="#c6c9bb" vector-effect="non-scaling-stroke" d="M362 80.79q-1.64.27-1.75 1.92"/><path stroke="#8e8f7f" vector-effect="non-scaling-stroke" d="M360.25 82.71q-11.36 1.63-21.18 7.46c-2.33 1.39-5.15 2.77-7.87 3.16q-8.98 1.27-29.51 3.87-27.92 3.52-54.62 16.35-6.94 3.34-13.57 10.27a.9.88-32.1 00-.21.87l.18.65a.54.54 0 01-.34.66q-3.35 1.22-7.19 3.95-20.95 14.92-33.74 36.25-1.41 2.35-2.26 5.05-.13.4.11.05.94-1.37 2.49-1.3"/><path stroke="#7d7f70" vector-effect="non-scaling-stroke" d="M192.54 170c-4.1 6.02-9.14 11.75-12.7 18.05-7.22 12.77-13.62 25.97-16.34 39.2-1.92 9.33-4.43 19.38-5.57 28.1q-2.34 17.84-1.64 35.9"/><path stroke="#8e8f7f" vector-effect="non-scaling-stroke" d="M156.29 291.25q.51 14.65-.62 29.27a.59.56 25.4 00.17.45l.22.21a.19.19 0 00.31-.08l1.3-4.55a.56.56 0 011.09.1l.74 7.39"/><path stroke="#7d7f70" vector-effect="non-scaling-stroke" d="M159.5 324.04q2.61 20.33 9.66 39.51c2.52 6.86 6.63 13.93 9.99 20.94q.23.46.34-.04.43-1.97.04-3.79"/><path stroke="#8e8f7f" vector-effect="non-scaling-stroke" d="M179.53 380.66q1.47.59 2.29 1.74 1.49 2.08 1.53 2.12 9.51 9.94 20.36 18.12"/><path stroke="#7d7f70" vector-effect="non-scaling-stroke" d="M203.71 402.64c2.06 1.83 4.2 3.16 5 5.94q1.7 5.87.75 9.66c-3.43 13.68-5.33 25.85 2.97 38.23 3.47 5.18 8.95 4.95 14.8 5.35 7.42.5 12.94-2.42 16.3-9.03a.54.53-61.6 00-.2-.7c-7.73-4.64 1.01-14.54 6.42-16.63"/><path stroke="#8e8f7f" vector-effect="non-scaling-stroke" d="M249.75 435.46c7.55-2.62 13.75 4.83 22.28 5.56q5.52.47 10.6 3.01.51.25.28-.27-1.07-2.36 1.5-3.42a1.5 1.46-50.3 01.84-.09c6.91 1.32 5.49 8.35 9.75 9.05a1.23 1.22-60.2 00.98-.27q2-1.63 2.98-4.02.36-.87.78-.03l1.31 2.62a1.39 1.38-1.3 00.66.63q1.58.73 3.24.01a.81.81 0 01.89.16q3.28 3.2 3.08 7.9a1.27 1.27 0 001.68 1.26q3.71-1.27 5.28 2.06a1.27 1.24 85.3 00.77.67c5.49 1.71 18.8-2.45 24.88-3.9a.6.59 1.7 01.71.75l-19.11 63.69q-.15.5-.15 1.03l.01.36a.75.75 0 01-.5.72q-5.29 1.9-4.12 7.63a1.25 1.25 0 00.43.71c2.43 1.97 9.93 5.75 11.28.81q.83-3.03 1.1-4.88a.84.83-71.3 00-.42-.86l-1.82-1.04a.59.58-63.2 01-.24-.74c1.94-4.22 3.07-9.37 4.13-12.85q8.1-26.73 16.19-53.58a.95.94 13.3 011.08-.66q10.98 1.92 21.89 3.08 3.07.32 4.05-2.31"/><path stroke="#fdfef0" vector-effect="non-scaling-stroke" d="M376.04 458.25q.89-.77 1.17-1.8.14-.5-.35-.34l-1.36.43"/><path stroke="#8e8f7f" vector-effect="non-scaling-stroke" d="M375.5 456.54q-.69-3.28 1.47-6.28a.53.53 0 00-.6-.81c-2.09.71-17.06-1.21-15.99-4.52a.67.66-80.3 01.66-.47q5.35.17 10.52 1.5c4.97 1.28 9.9.76 14.9.78a1.11 1.09-70 00.88-.42l1.23-1.56a1.24 1.22-69.5 01.97-.45l6.46.2a1.76 1.76 0 011.02.37l5.16 3.91a.38.38 0 00.56-.48q-2.29-4.09-5.96-7.03-.91-.73.24-.53 4.06.68 7.66 2.57.8.42.25-.3c-4.44-5.79-10.54-5.08-15.13-9.42q-.38-.37.15-.36 3.31.04 6.14 1.93.4.27.82.06a.41.4-35.5 00.11-.65q-4.11-4.23-9.69-5.83c-5.64-1.62-10.39-4.62-15.4-7.54a.66.64-67.2 01-.29-.73c3.03-11.17 7.33-23.22 10.15-33.14q3-10.57 5.99-21.15c1.02-3.61 5.42-6.09 8.66-7.06q.5-.15.23.3c-1.67 2.74-4.12 3.8-5.92 6.22a.57.57 0 00.48.91q12.85-.48 19.01-11.39a1.65 1.64-76.4 011.36-.84c3.27-.15 7.73.12 10.39-1.24 7.49-3.83 5.53-13.22-1.49-16.18a.95.92-84.8 01-.55-.68c-1.37-6.55-4.29-12.17-9.5-16.53-3.94-3.29-8.37-7.79-12.96-9.2q-10.98-3.39-21.87-7.37-.81-.3-.04-.69 2.59-1.3 3.82-3.98.53-1.16.78.09.28 1.41-.16 2.74-.15.45.26.21c2.14-1.26 1.54-5.19 1.42-7.49a.58.58 0 01.97-.45q3.51 3.24 8.29 3.95.72.11.22-.42c-.97-1.01-4.19-3.78-2.93-5.2a.42.41-47.3 01.6-.03q5.88 5.72 13.66 3.15.81-.27-.01-.51c-2.92-.88-9.52-4.75-8.11-8.62q.24-.64.56-.04 2.05 3.73 6.07 5.41a.36.36 0 00.4-.59c-8.33-8.62-1.94-15.5 4.62-21.82q.4-.39.41.17.08 4.82 4.3 7a.38.38 0 00.55-.26c.63-3.12.12-6.73 2.41-9.71 3.33-4.35 9.43-5.46 14.39-3.47 1.3.52 6.5 2.75 7.51 4.08q7.61 9.98 7.86 22.56a.94.93 80.9 001.21.88c6.51-2.03 12.63-.94 18.35-1.86 10.11-1.64 18.72-7.55 28.73-10.95 4.6-1.57 5.29-5.58 4.08-9.99-4.92-17.86-10.81-33.24-.66-46.88 2.74-3.69 7.19-6.73 11.01-9.8a.76.74-28.3 00.25-.79c-4.65-15.54-4.48-32.04-16.21-46.63-2.04-2.54-2.83-4.04-2.34-7.14.63-4.01 7.48-9.72 10.67-12.01q6.65-4.77 5.55-13.67c-.05-.41-.39-.79-.76-.83a.72.71 11.9 00-.74.48l-.98 2.98q-.23.68-.52.03l-2.1-4.73a1.17 1.16 88 00-.65-.61l-2.23-.87a1.57 1.54 86.5 01-.8-.72l-2.49-4.88a.74.74 0 00-.79-.39q-2.19.4-2.81.15c-7.43-3-16.9-.26-22.8 4.56a1.1 1.1 0 01-1.72-.46q-1.54-4.07-4.5-7.27a1.03 1.02-22.9 00-.82-.33c-11.38.75-20.07-3.69-29.81-9.39-8.02-4.69-16.01-11.79-24.32-17.36Q385.63 77.58 362 80.79"/><path stroke="#90908f" vector-effect="non-scaling-stroke" d="M375.5 456.54l.54 1.71"/><path stroke="#11100f" vector-effect="non-scaling-stroke" d="M249.75 435.46q-.11-1.4-1.24-.92c-5.95 2.53-13.21 11.58-7.25 17.9a.69.68 37.5 01.11.79c-4.75 8.92-12.15 7.52-20.76 6.62-3.11-.32-4.88-1.46-6.6-3.86-7.46-10.44-7.27-21.77-3.96-33.9 1.02-3.75 1.52-12.71-.51-15.83q-1.9-2.93-5.83-3.62M179.53 380.66q-6.54-9.41-9.9-20.44c-1.67-5.46-4.35-11.35-5.48-17.79-.98-5.58-2.75-11.79-3.11-17.89a.91.91 0 00-.48-.75q-.49-.26-1.06.25M156.29 291.25q1.23.15.73 2.96a.97.97 0 001.09 1.14q2.48-.35 1.93-3.85"/><path stroke="#595a5a" vector-effect="non-scaling-stroke" d="M160.04 291.5l1.5 11.25"/><path stroke="#90908f" vector-effect="non-scaling-stroke" d="M161.54 302.75c.09 1.21.76 12.58.91 12.69a.18.18 0 00.28-.12l.56-4.47a1.57 1.56 36.9 00-.12-.81q-.66-1.45.63-2.87"/><path stroke="#595a5a" vector-effect="non-scaling-stroke" d="M163.8 307.17q-.02 8.77 3.33 16.79a1.76 1.68 39.5 01.11.94q-.1.64.32 1.13.41.5.34-.15-1.69-15.08-2.77-30.21c-.3-4.15.78-8.41.91-12.72a.86.85 81.6 01.57-.78l1.17-.42a.24.23 84.1 01.31.26l-.42 3.54a.51.5 8.3 00.42.56l2.96.5a.4.4 0 00.47-.41c-.43-10.95-.83-19.6 4.22-28.97q.24-.44.13.05-5.14 22.72-.04 45.5.12.53.23 0 .36-1.76 0-4.34c-1.81-12.99-.84-24.35 2.66-39.49 1.91-8.22 7.43-16.97 10.11-23.2q.2-.45.07.02-3 10.89-7.29 21.33-.79 1.94-.61 4.07.55 6.6.28 13.17a.52.52 0 001.03.12l1.93-10.18q.06-.31.17-.01c1.61 4.24.47 7.52.22 11.39q-.64 9.96-.56 19.99a.48.48 0 00.88.26q1.59-2.34.25-4.89a1.66 1.65-57.5 01-.18-.83c.1-2.58-.38-5.07.02-7.57q1.31-8.29 1.39-16.68c.02-1.71.99-2.98 1.05-4.61q.11-3.62 2.63-5.72.83-.69.4.3-1.12 2.55.36 4.7a2 1.98 26.2 01.36 1.04l.48 7.35q.07 1.06.41.05c1.87-5.52 2.88-11.52 4.95-16.58 1.7-4.15 4.05-11.06 6.96-14.33a1.4 1.36 70.8 00.34-.73q.34-2.56 2.19-4.43.9-.91.37.26-.93 2.04-2.22 3.89a.36.36 0 00.06.49c.76.68 4.51-4.87 4.98-5.58"/><path stroke="#90908f" vector-effect="non-scaling-stroke" d="M209.75 232.04c2.34-4.75 3.33-9.13 6.6-13.62"/><path stroke="#595a5a" vector-effect="non-scaling-stroke" d="M216.35 218.42q2.73-1.19 1.37 2.78c-1.76 5.13-5.21 11.76-5.43 17.07q-.02.51.22.06c3.1-5.93 5.25-12.74 9.19-18.1 1.78-2.41 4.47-7.85 7.1-8.97q.48-.21.3.28c-4.58 12.62-13.03 22.92-14.06 35.74q-.04.52.17.04 1.94-4.54 3.51-9.26c1.45-4.35 3.84-7.37 6.32-11.06q.28-.42.18.08c-1.5 7.39-5.51 14.8-5.73 21.95a.77.76 58 001.46.34l2.31-5.23q.19-.43.33.03c.81 2.69-1.51 5.97-2.68 8.3-2.69 5.38-3.04 13.08-3.07 19.02q0 .51.15.03.92-2.88 1.87-5.76c1.63-4.9 4.6-8.83 5.04-14.84a.37.36-43.2 01.73.02v3.33a1.07 1.05-66.5 00.27.71q.83.95.59 2.22-.13.67.49.39.85-.38 1-1.42 1.08-7.84 5.27-14.63"/><path stroke="#90908f" vector-effect="non-scaling-stroke" d="M233.25 241.54l3.54-6.54"/><path stroke="#595a5a" vector-effect="non-scaling-stroke" d="M236.79 235c2.04-6.37 6.07-9.57 9.87-14.85a.37.36 46.6 01.6.02q.15.22-.05.53-3.2 5.15-4.7 10.25a.43.42-83.7 00.43.55l.52-.03a.81.8-78.2 00.69-.46c5.36-11.02 12.05-15.61 22.01-22.61q1.41-1 2.98-1.51.5-.16.14.21c-5.23 5.38-9.22 11.5-14.36 16.87a.88.87 27.8 01-.83.25l-.96-.23a1.04 1.02-58.7 00-.91.23c-6.33 5.47-9.59 10.72-15.28 19.26-4.13 6.2-9.79 14.41-10.96 21.84q-1.03 6.56-2.16 13.81a.64.64 0 001.07.57c1.76-1.66 4.5-11.98 5.2-14.76a.6.6 0 01.68-.44l2.13.35a.65.65 0 00.75-.58l.44-4.9a1.74 1.69-24.5 01.36-.92c2.91-3.81 3.14-9.8 5.89-13.55q2.83-3.85 5.73-7.68.32-.43.36.1c.03.47-.23 1.6-.54 1.98q-4.85 5.91-5.5 12.13a.73.73 0 001.41.35c2.23-5.44 3.88-10.22 7.59-14.57q.36-.41.87-.59 1.71-.63 2.77-2.13a.31.31 0 01.52.02c.31.52-3.71 7.75-4.26 8.73a.41.41 0 00.47.6l2.11-.57a.46.46 0 01.57.36l.26 1.48q.23 1.32.87.14l4.78-8.75a.9.89-75.1 01.8-.47q.94.02 1.03 1.9a2.07 2.07 0 01-.73 1.68q-1.63 1.38-.67 3.43a1.38 1.37 43.6 01.03 1.11l-2.42 6.03a.61.61 0 00.2.71c1.44 1.06 2.91-1.38 3.73-2.29a.44.44 0 01.64-.02l.2.21a.63.63 0 01.02.85l-2.63 2.97a.95.93-32.3 00-.2.86l.3 1.08a1.05 1.05 0 01-.13.86c-2.39 3.68-4.83 7.72-4.52 11.67.29 3.78.09 6.57.3 9.94q.03.5.13.01c.41-1.95 1.75-9.31 3.38-10.27a1.86 1.85-1.4 00.67-.7l7.01-12.89q.51-.95.51.12l.01 2.1a.63.63 0 00.51.62c1.47.28 4.12-3.18 4.97-4.28q3.03-3.92 7.58-5.67a1.59 1.55-82.2 00.73-.57q.35-.49.87-.81.52-.32.26.24-.55 1.15-1.7 1.72-.47.24-.8.65c-2.61 3.33-4.96 6.27-6.89 10.16q-2.88 5.81-6.12 12.24a.7.7 0 001.09.84c1.95-1.71 2.81-4.67 4.59-6.5q7.82-8.03 16.14-15.54 1.82-1.64 4.27-2.08.54-.09.18.31l-5.37 6.05a.92.92 0 001.32 1.27q.1-.1.2-.21 3.7-4.23 9.11-5.72a.38.38 0 01.38.63q-10.63 11.12-20.47 22.86c-4.29 5.13-6.84 8.69-8.28 15.44-1.26 5.9-4.34 12.33-4.52 17.94q-.26 8.27 3.36 16.21a.23.22 48.7 00.4.03l.51-.82a.91.91 0 01.8-.42q1.19.06 2.08.92.37.36.85.55 3.06 1.17 3.86 1.88c13.53 11.94 29.55 10.16 45.41 13.29 3.81.75 9.07-.11 13.45 1.56q11.13 4.24 26.21 8.37 4.23 1.15 5.8-1.82a1.48 1.44-88.3 01.68-.66q4.83-2.3 9.79-2.07 14.11.67 18.97.8a1.79 1.77 30.2 00.93-.24q6.34-3.71 13.26-5.27"/><path stroke="#90908f" vector-effect="non-scaling-stroke" d="M410.42 337.29q.62.25 1.09.14a.51.5 76 00.37-.62q-1.77-6.73-6.07-12.13a.41.41 0 01.16-.63c.86-.35 2.82 1.15 4.06 1.22q.52.03.17-.36c-4.69-5.11-11.04-10.86-17.93-12.54-7.07-1.73-13.64-4.44-20.64-6.42q-4.12-1.17-7.93-3.1-12.33-6.26-25.43-10.71a.44.44 0 01-.25-.6l1.73-3.58"/><path stroke="#595a5a" vector-effect="non-scaling-stroke" d="M339.75 287.96l3.81-.13q.77-.02.28-.62-3.15-3.83-7.54-6.19a.37.37 0 01.21-.69q8.13.68 11.52 7.96a.63.63 0 00.87.29l2.01-1.1a.75.75 0 00.32-.96l-4.38-10.01a.15.15 0 01.2-.19c6.95 2.79 4.89 6.82 6.24 12.47q.14.58.24-.01c.85-4.84 1.02-12.66-2.74-16.44q-4.43-4.45-6.25-9.97a.77.77 0 011.3-.75l8.22 9.32a.27.27 0 00.47-.14c.92-5.58-2.84-11.01-6.69-14.66a.23.23 0 01.18-.4c7.98.7 6.91 6.69 10.1 11.77 3.23 5.15.71 9.85 2.83 15.15a1.13 1.12-1.1 00.67.64c3.71 1.35 3.51-17.3 3.34-20.8"/><path stroke="#90908f" vector-effect="non-scaling-stroke" d="M364.96 262.5q-1-5.6-1.55-11.24c-.43-4.29-2.94-7.26-5.18-10.73"/><path stroke="#595a5a" vector-effect="non-scaling-stroke" d="M358.23 240.53q2.75 2.09 5.59 5.64c5.39 6.74 4.78 13.68 6.32 22.79.61 3.66-.82 7.2-.87 11.01q-.01.52.36.15c3.3-3.22 5.08-12.39 5.83-16.87"/><path stroke="#90908f" vector-effect="non-scaling-stroke" d="M375.46 263.25c.83-3.49 1.98-11.97.04-15.04"/><path stroke="#595a5a" vector-effect="non-scaling-stroke" d="M375.5 248.21q-.72-1.54.25-2.75"/><path stroke="#90908f" vector-effect="non-scaling-stroke" d="M375.75 245.46l3.08 2.79q.45.4.35-.19c-.57-3.29-.33-6.12-2.09-9.14q-2.62-4.52-5.35-8.99-.27-.44.25-.43l.98.01"/><path stroke="#595a5a" vector-effect="non-scaling-stroke" d="M372.97 229.51q.95 1.23 2.04 2.8c2.94 4.21 5.91 5.46 7.2 11.07.52 2.28 1.85 3.81 2.02 6.33q.03.5.42.18c1.29-1.1 2.03-2.38 1.83-4.22q-.67-6.05-.73-12.13"/><path stroke="#90908f" vector-effect="non-scaling-stroke" d="M385.75 233.54c1.18-6.73-2.07-10.67-2.05-17.13"/><path stroke="#595a5a" vector-effect="non-scaling-stroke" d="M383.7 216.41q5.98 8.01 5.3 18.03c-.06.95.34 2.2.65 3.08q.19.54.44.03.33-.67.27-1.55-.8-11.78.52-24.73a.58.57 40.9 011.13-.08c1.02 4.05-.09 9.01 1.24 13.05a.73.73 0 001.4-.08q.82-3.98 1.08-7.9c.32-4.83-4.27-6.97-1.91-12.09a.43.43 0 01.66-.16q.67.52.48 1.61a.04.03 15.7 00.03.04l.28.09a.33.33 0 00.42-.26c1.88-10.97 13.19-13.8 12.82-25.79a.73.73 0 01.59-.74l.82-.17a.58.57 79.7 01.69.48q.75 4.71.73 9.48c-.03 7.21-4.99 12.74-8.59 18.41a.42.42 0 00.43.64q1.62-.32 2.53-1.91c4.15-7.3 8.46-11.95 10.1-21.37.34-1.9 3.58-6.38 3.44-8.98"/><path stroke="#90908f" vector-effect="non-scaling-stroke" d="M419.25 175.54q1.71-4.09 1.79-8.54"/><path stroke="#595a5a" vector-effect="non-scaling-stroke" d="M421.04 167q.54-.16.86-.02a.59.59 0 01.33.72c-.72 2.33-.15 4.55-.52 6.62-.81 4.5-3.21 9.36-3.24 13.79q-.04 4.89-2.68 9.58a.47.47 0 00.77.53l6.89-8.3"/><path stroke="#90908f" vector-effect="non-scaling-stroke" d="M423.45 189.92q2.85-.7 3.8-3.67 4.32-13.49 3.75-26.46"/><path stroke="#595a5a" vector-effect="non-scaling-stroke" d="M431 159.79c1.7 1.62 1.88 12.45 2.03 15.13q.14 2.75-.53 5.58c-.36 1.52-2.23 6.77-.33 7.47a.61.61 0 00.76-.31q1.32-2.82 1.47-5.9a.45.45 0 01.45-.43c3.83.03 7.07-14.29 9.5-13.96a.42.42 0 01.34.56q-.92 2.5-2.82 8.65-.79 2.57.89 4.14a.63.62-53.3 01.11.77l-2.05 3.55a1.4 1.37 5 01-.77.63l-1.17.39a1.26 1.25 2 00-.77.71c-2.4 5.9-3.72 12.55-6.31 18.03-2.57 5.46-6.7 8.4-10.46 12.37q-3.97 4.19-6.49 6.32c-4.55 3.84-9.63 7.05-13.08 12.27q-.27.41.22.32c5.31-1.01 8.17-4.37 12.09-6.77 8.18-5.01 14.45-12.33 20.48-17.94q.38-.36.26.16c-.55 2.45-3.56 4.96-4.78 7.59a.41.41 0 00.65.48c5.38-4.7 6.81-9.2 10.02-15.35"/><path stroke="#90908f" vector-effect="non-scaling-stroke" d="M440.71 204.25c1.38-2 2.81-3.93 3.66-6.26q3-8.19 6.1-16.4"/><path stroke="#595a5a" vector-effect="non-scaling-stroke" d="M450.47 181.59q1.13 6.02.49 7.84c-2.59 7.33-6.54 14.63-9.93 21.64-2.23 4.59-5.45 7.26-9.45 10.02-1.37.94-2.53 3.17-4.2 4.44q-8.09 6.19-16.24 12.3c-.64.48-2.01 1.01-2.57 1.68a.33.32-64.1 00.18.53q4.99 1.12 9.78-.64a1.3 1.29-42.4 01.98.04c8.61 3.95 21.31-6.26 26.54-12.29q4.96-5.73 10.27-11.12"/><path stroke="#90908f" vector-effect="non-scaling-stroke" d="M456.32 216.03q4.21-3.28 5.72-8.53"/><path stroke="#595a5a" vector-effect="non-scaling-stroke" d="M462.04 207.5q.21-.07.37-.03a.4.4 0 01.3.51c-1.49 4.77-3.01 8.43-6.68 12.21-4.41 4.56-7.22 7.76-8.71 13.31a.58.58 0 001.02.51l7.04-8.96a.47.47 0 01.83.42c-1.26 4.51-3 7.72-6.72 10.94-3.45 2.99-5.63 5.68-9.98 7.66a.42.41-60.7 00.22.79c9.96-1.25 18.02-8.69 20.98-17.86"/><path stroke="#90908f" vector-effect="non-scaling-stroke" d="M460.71 227l2.58-5.75"/><path stroke="#595a5a" vector-effect="non-scaling-stroke" d="M463.29 221.25c2.92-2.3 3.83-5.82 6.63-7.85a.39.39 0 01.55.53l-3.28 5.01a.5.5 0 00.61.74c.73-.3 1.7-.91 2.28-1.55 6.57-7.33 14.66-6.53 23.46-8.13"/><path stroke="#90908f" vector-effect="non-scaling-stroke" d="M493.54 210q3.97-.53 7.99-.06a.35.35 0 00.38-.43q-3.62-16.19-6.57-32.52-.4-2.18-2.24-5.25c-3.21-5.33-9.61-4.78-12.44-9.26a1.55 1.52 83.9 00-.73-.6q-4.09-1.65-8.01.32"/><path stroke="#595a5a" vector-effect="non-scaling-stroke" d="M471.92 162.2q-2.83.89-5.13 2.92a.57.57 0 01-.81-.07l-2.7-3.37a1.48 1.46 78.5 00-.73-.49q-.46-.15-.56-.61-.14-.59.44-.4l2.49.78a.71.69 21.5 00.85-.36l.16-.35a.61.6-64.5 00-.28-.8l-5.26-2.63a1.33 1.32-83.9 01-.68-.85l-2.06-7.73a.46.45-1.2 01.54-.56q.33.07.45.52 2.22 7.76 9.89 10.47a.19.19 0 00.2-.3c-2.16-2.53-5.63-8.62-2.11-11.39a.93.92-20.6 00.36-.79c-.27-5.22.43-9.49 6.3-10.81a.74.73-21.3 01.8.35l.63 1.09a.51.51 0 00.88.01q1.96-3.16 5.43-4.24a.65.64 75.1 01.83.49l.51 2.46a.72.72 0 00.89.54q1.88-.51 2.85 1.01a.35.35 0 00.6-.01c.37-.62-.93-3.36-1.26-4.1a.47.47 0 01.28-.64c1.63-.5 2.59 2.43 3.22 3.93.81 1.92 2.99 3.02 1.21 5.85a.38.38 0 00.22.57q.71.19 1.34.06"/><path stroke="#90908f" vector-effect="non-scaling-stroke" d="M491.71 142.75l.39 1.2a.97.97 0 001.57.41c6.11-5.55 4.89-11.92-.89-16.75-5.53-4.62-13.37-5.88-19.79-2.1"/><path stroke="#595a5a" vector-effect="non-scaling-stroke" d="M472.99 125.51c-5.54 1.46-10.31 10.28-12.03 15.3a.74.73-40.4 01-1.42-.11q-1.08-6.38 2.64-11.44a.9.88-38.3 00.11-.85q-1.24-3.03-3.22-4.59"/><path stroke="#90908f" vector-effect="non-scaling-stroke" d="M459.07 123.82q-4.51-2.51-9.12-2.81c-7.27-.47-14.55-3.7-20.97-6.94-16.37-8.25-26.39-26.65-46.81-28.05-6.99-.48-21.1-1.09-27.17 2.63"/><path stroke="#595a5a" vector-effect="non-scaling-stroke" d="M355 88.65q-3.79-.19-6.74 1.13c-11.46 5.12-21.29 13.97-34.89 14.27a.77.77 0 01-.28-1.49c1.94-.73 10.01-3.38 10.68-4.37q.31-.45-.2-.24-1.18.49-1.57.51-6.99.35-13.75 2.08"/><path stroke="#90908f" vector-effect="non-scaling-stroke" d="M308.25 100.54l-7.25.75"/><path stroke="#595a5a" vector-effect="non-scaling-stroke" d="M301 101.29c-12.09.72-21.72 4.54-34.65 8.9-10.15 3.43-18.8 10.77-28.1 16.1-14.65 8.39-24.75 19.22-35.96 32.47q-.35.41-.83.66-1.33.66-2.24 1.85-.91 1.19.34.36l2.05-1.37q.72-.49.5.35c-.78 3.05-5.73 7.71-7.82 10.39"/><path stroke="#11100f" vector-effect="non-scaling-stroke" d="M194.29 171q-.43-1.42-1.75-1"/><path stroke="#595a5a" vector-effect="non-scaling-stroke" d="M360.25 82.71q1.82.53 3.11-.39a.38.38 0 00-.01-.63l-1.35-.9"/><path stroke="#c8cacb" vector-effect="non-scaling-stroke" d="M472.99 125.51l10.55-.62a1.57 1.51-30.2 01.9.22c6.52 4.03 13.52 9.28 7.27 17.64M471.92 162.2q5.23-.22 7.24 1.33c3.3 2.54 8.12 4.03 10.28 8.46 2.49 5.09 7.73 27.1 4.83 31.59a1.08 1.06 53.1 00-.12.88q.88 2.89-.61 5.54M463.29 221.25c-.21-2.03 3.75-9.32 4.71-11.76q.19-.48-.17-.11c-2.09 2.06-3.63 4.28-4.3 7.18q-.31 1.32-1.6 2.09a1.39 1.35-8.8 00-.62.82l-1.75 6.35a.81.8 25.1 00.33.89q.37.23.82.29M462.04 207.5q4.28-10.51 3.51-21.9-.12-1.81-.5-.04l-1.68 7.98q-.11.48-.45.13-1.52-1.51-.93-3.13 2.2-6.05.56-12.18a.48.47 41.2 00-.93.06l-1.36 10.53q-.08.6-.12 0-.22-3.21-1.2-6.22-1-3.08-.23-6.39a.31.31 0 00-.58-.19 25.604 25.604 0 00-2.09 9.92q-.05 7.32-2.56 14.24-.66 1.81.33.15l2.78-4.69a.39.39 0 01.72.25q-1.11 8.06-4.57 15.39a.21.21 0 00.37.21q2.18-3.18 4.42-3.95.81-.28.4.46-.64 1.13-.42 2.45a1.35 1.35 0 01-.17.88q-1.23 2.13-1.02 4.57M450.47 181.59q.96-3.61 3.14-6.81c2.46-3.61 2.83-9.17 3.74-13.53a.36.36 0 00-.6-.33c-1.96 1.89-2.86 3.79-3.81 6.69q-1.91 5.82-5.52 11.07a.61.61 0 00.3.92l1.38.51q.69.26-.37.69c-1.51.63-2.82 8.44-3.24 10.27-1.04 4.5-3.48 7.88-5.57 11.91a.81.78-51.8 00.09.88q.25.3.7.39M431 159.79c-.17-.75-.53-3.79-1.4-3.8a.52.51-88.9 00-.52.51q-.05 11.72-1.16 20.23-.84 6.47-4.47 13.19M421.04 167q.42-8.11-1.07-16.09a.69.69 0 00-1.17-.35c-1.92 1.95-.62 8.2-.67 10.99-.09 4.52-1.36 10.07-1.86 15.18a.4.39 87.8 00.46.43q1.62-.27 2.52-1.62M383.7 216.41q-3.06-4.91-3.37-10.92a.91.89-77.2 00-.45-.73c-2.59-1.5-5.14-2.53-6.59-5.37-1.06-2.09-2.94-7.17-5.21-7.95a.68.68 0 00-.83.95q4.38 8.57 10.53 15.86.89 1.06.77 4.44a1.59 1.54 30.5 00.25.91c3.38 5.35 5.09 13.53 6.48 19.71a.26.25 88.1 00.2.19l.27.04M372.97 229.51q-.46-4.78-4.76-6.82a1.09 1.06-85.3 01-.57-.69c-2.6-9.44-8.04-14.07-15.48-19.78a.75.74-71 00-1.2.59q-.01 1.99 1.8 3.46c8.21 6.62 11.72 14.49 17.24 23.05a1.02 1-52.5 01.11.88c-.73 2.14 4.4 12.87 5.64 15.26M375.5 248.21l-.3.03a.35.35 0 00-.32.36q.03 3.68.26 7.35c.15 2.57-.66 4.64-1.14 7.11a.59.58-75.2 00.39.68q.74.25 1.07-.49M358.23 240.53c-1.57-1.13-5.75-6.84-6.88-6.71a.94.93 71.7 00-.7 1.4c2.66 4.56 7.64 9.46 9.15 14.17 1.36 4.27 1.74 8.96 4.29 13.31a.44.44 0 00.63.14q.17-.12.24-.34M339.75 287.96c-1.22-1.53-1.76-2.46-3.63-3.54q-1.61-.93-2.63-2.56-.28-.45-.74-.7-5.61-3.02-11.85-4.32-.84-.18-.19.39c3.5 3.07 6.31 2.45 8.85 7.06a.5.5 0 01-.56.73q-4.59-1.16-9.45-.73a.85.85 0 00-.25 1.63c2.21.9 11.04 4.04 10.65 6.22a.69.69 0 01-.58.56q-1.73.24-2.58 1.73a.44.44 0 00.31.66c4.19.66 8 1.12 11.86 3.1 11.61 5.98 23.85 9.82 35.46 16.03 10.03 5.38 21.67 7.35 30.5 15.17q3.6 3.19 5.5 7.9M236.79 235l-.05-.78a.54.53-5.6 00-.6-.49c-.43.05-3.18 6.18-3.77 7.14a.46.46 0 00.23.67q.24.09.65 0M216.35 218.42l-.22-.41a.53.53 0 00-.87-.09q-5.01 5.95-5.93 13.62a.37.36-70.9 00.16.34l.26.16M163.8 307.17l-1.08-3.46a1.11 1.09 4.8 00-.57-.66l-.61-.3"/><path stroke="#494a4b" vector-effect="non-scaling-stroke" d="M160.04 291.5c-1.33-16.65-.35-32.3 3.7-48.86 2.9-11.88 5.36-23.67 9.51-35.22 1.6-4.44 4.23-8.55 6.5-12.85 4.3-8.17 9.87-15.6 14.54-23.57"/><path stroke="#c8cacb" vector-effect="non-scaling-stroke" d="M301 101.29q-.2.46-.65.76-.57.39.12.31l8.27-.94q.77-.08.21-.61-.27-.25-.7-.27M459.07 123.82q-17.18 3.64-31.73-5.89c-7.72-5.07-15.48-10.93-23.26-14.84-9.5-4.78-20.28-9.48-30.93-10.68a.43.42-46.5 01-.02-.84q4.86-.84 10.11-.01.91.14 1.17-.16a.66.66 0 00-.37-1.08c-6.09-1.16-11.85-2.7-18.08-2.28q-5.47.37-10.96.61"/><path stroke="#c6c9bb" vector-effect="non-scaling-stroke" d="M564.308 422.332a1.04.66-3.2 00-1.075-.601 1.04.66-3.2 00-1.001.717 1.04.66-3.2 001.075.601 1.04.66-3.2 001.001-.717M355.55 575.27a.47.47 0 01.18-.91q12.46.87 23.84-4.05a.49.49 0 00-.14-.94c-6.93-.74-14.44-3.51-20.04-4.61q-12.41-2.46-17.14-2.52c-17.47-.22-34.65-.21-52.42-1.09q-19.46-.95-26.02-.38c-23.65 2.08-47.42 1.76-70.96 4.75-4.9.62-10.02 2.26-15.22 3.02-1.42.21-2.23 1.12-2.03 2.53a.73.72-89.5 00.59.61q10.33 1.89 20.81 2.48c5.51.31 12.05 1.31 18.22 1.25 7.16-.06 13.92 1.3 21.06 1.28q.5-.01.94.24 3.24 1.8 7.05 1.77c1.55-.01 3.54 1.11 5.36 1.15q22.09.5 44.11 2.21 5.56.43 18.36-.38c13.85-.88 26.55-.7 39.9-.78q7.3-.05 14.78-2.4a.52.51-16 00.35-.62q-.14-.53-.85-.57-5.56-.28-10.73-2.04"/><path stroke="#595a5a" vector-effect="non-scaling-stroke" d="M422.69 196.69c-4.89 9.26-12.51 11.72-19.7 18.17a1.33 1.29-19 00-.42.83c-.4 4.06-.73 7.38-2.9 11.16q-1.84 3.22-2.59 6.92-.23 1.13.36.14 4.08-6.79 10.92-10.84a1.28 1.27-7.2 00.59-.76l1.1-4.02a.64.64 0 01.55-.48q3.22-.39 4.95-3.24c3.91-6.46 8.79-12.41 10.37-20.29q.11-.52-.37-.29-1.91.91-2.86 2.7M405.72 194.99c-2.12 1.41-4.79 3.88-5.36 6.41a.4.4 0 00.71.32l4.87-6.5q.55-.74-.22-.23M391.45 245.91c.3 1.95-.17 4.04.18 6.16a.35.35 0 00.54.24q1.4-.94.85-2.61c-.78-2.39-1.02-2.49-.21-5.18q.68-2.28-1.05-4.39a.61.6 21.6 00-1.07.46q.35 2.57.76 5.32M418.45 336.36a1.15 1.15 0 00-1.15-1.15 1.15 1.15 0 00-1.15 1.15 1.15 1.15 0 001.15 1.15 1.15 1.15 0 001.15-1.15M306.95 338.51c-16.04 1.47-35.76 5.8-49.16 16.43-2.19 1.74-5.1 3.24-6.12 6.37a.75.75 0 001.14.85l8.21-5.68q.99-.68.19.21-2.09 2.32-6.65 6.14-7.92 6.63-11.87 17.25a1.75 1.7 50.7 00-.08.93l.45 2.42q.1.52.46.15 4.89-4.95 10.94-8.5.72-.43.28.29-1.18 1.96-2.74 3.67c-4.04 4.41-4.72 9.5-2.48 15.1q.3.74.66.02l4.62-9.25a1.37 1.36 2.5 01.69-.63q.93-.38 1.86-.77c3.02-1.26 5.42-3.54 8.69-4.78a.35.35 0 01.31.63c-6.18 3.73-7.69 13.56-7.48 20.15q.13 4.04 2.97 1.16l10.12-10.25a.36.36 0 01.57.43c-2.18 3.68-4.18 6.19-5.37 10.41a.14.13-73.2 00.08.16l.29.09a.5.49 26.2 00.57-.19q4.11-5.73 9.64-10.12a1.01.98-59 01.78-.21l.35.05a.25.25 0 01.13.43q-9.01 8.11-7.54 20.54a.39.39 0 00.53.32c2.16-.83 2.88-5.16 5.31-6.77a1.02 1.02 0 011.52 1.21q-1.5 4.1-1.22 8.49a.58.58 0 00.66.54l1.78-.27a.63.63 0 01.67.38l2.17 5.37a.53.53 0 001.02-.21q-.2-6.44 1.56-12.35c.96-3.22 3.75-5.83 5.37-9.04q.28-.56.47.04.08.26-.02.54c-1.65 4.65-.27 7.94-.76 12.21-1.16 10.21-1.13 14.7 4.06 23.09q.26.42.11-.06c-1.45-4.71-3.49-9.77-3.21-14.48.29-4.97 2.47-8.69 3.44-13.45q.53-2.61 1.6-5.12.44-1.04.52.09l.48 7.07a1.66 1.62-67.3 00.39.98c3.02 3.51 1.94 10.02 3.92 13.39q2.69 4.58 7.77 4.06a.53.53 0 00.19-.99c-6.36-3.36-6.91-9.35-9.65-15.83a1.85 1.8 37.5 01-.14-.95c.98-7.72.16-15.49 7.55-20.72q4.09-2.9 7.51-3.01a1.38 1.36 20.8 00.93-.41l1.15-1.15a.45.44-53.3 01.54-.08c.47.27-4.19 8.66-4.68 9.8q-.21.48.29.34l3.33-.96a1.76 1.73-79.1 00.9-.62l3.76-4.92q.6-.79.42.19l-1 5.44a.39.39 0 00.77.16q1.47-6.76 8-8.77a1.44 1.4-78.9 00.71-.49l3.1-3.9a.49.49 0 01.67-.1c.75.53-1.5 3.13-1.73 4.04q-1.15 4.54-5.02 7.11a1.67 1.62-6.2 00-.61.74c-1.34 3.28-5.79 4.02-7.45 7.71-1.9 4.2-2.95 8.14-4.71 13.1-1.51 4.22-.82 9.92-.19 14.33q.12.84.65.17 1.19-1.51 1.36-3.47.04-.49.3-.91c1.73-2.74 2.72-4.7 2.44-8.22-.6-7.71 9.13-15.06 12.76-22.55q1.57-3.24 3.58-6.29.28-.43.29.09.09 4.89-3.29 8.47c-.01 0-.1.56-.09.57a.42.41-26 00.57.19l1.14-.59a.58.58 0 01.85.47l.1 1.34a1.49 1.45-67 00.32.83c1.41 1.73-.72 8.02-1.4 9.8q-.42 1.11.61.51l1.33-.79q.57-.34.46.32l-1.25 7.62a.46.46 0 00.76.41q5.94-5.43 9.66-12.56.31-.6.27.08c-.46 6.57-12.62 18.35-17.46 22.87a.23.23 0 00.26.38q5.23-2.48 9.84-5.88c1.28-.95 1.91-2.37 3.25-3.46 7.36-6 16.29-18.18 17.95-27.56q1.34-7.51-.21-15.19"/><path stroke="#90908f" vector-effect="non-scaling-stroke" d="M359.29 374.75l-3.68-11.06a.71.71 0 011.29-.59l2.18 3.67a.21.2-58.3 00.38-.09c.4-4.82-2.89-8.23-4.96-12.26a1.6 1.55 89.5 00-.67-.68c-3.67-1.85-5.73-5.15-9.21-6.71q-7.28-3.25-14.2-7.27c-6.61-3.83-16.27-3.06-23.47-1.25"/><path stroke="#c8cacb" vector-effect="non-scaling-stroke" d="M359.29 374.75q.15.71-.28 1.02a.49.48 59.8 01-.73-.2l-.19-.43q-.44-.99-.99-.05l-3.79 6.5q-.3.52-.52-.04c-1.05-2.56-4.86-15.08-6.18-15.96q-4.16-2.79-5.77-6.87c-2.64-6.68-4.91-9.91-12.13-12.71q-4.93-1.91-7.94-2.21-2.61-.27-.21-.48l2.6-.24q.56-.05.22-.5-.12-.17-.4-.25-10.23-2.69-16.03-3.82"/><path stroke="#90908f" vector-effect="non-scaling-stroke" d="M421.11 342.42c-8.25-.95-9.03 8.32-.36 7.04a.96.95-84.6 00.74-.62q.99-2.81.31-5.79a.82.81 86.8 00-.69-.63M404.86 346.02c1.7.13 3.26.2 4.98.38a.55.54 5.1 00.61-.5l.23-2.64q.06-.7-.56-.37l-5.32 2.86q-.43.23.06.27"/><path stroke="#8e8f7f" vector-effect="non-scaling-stroke" d="M411.557 349.322a.26.26 0 00-.263-.258l-20.179.212a.26.26 0 00-.257.262l.005.54a.26.26 0 00.263.258l20.179-.212a.26.26 0 00.257-.262l-.005-.54"/><path stroke="#90908f" vector-effect="non-scaling-stroke" d="M365.29 364.19a.34.34 0 01-.25-.57c1.18-1.28 8.1-9.96 6.44-11.42a1.2 1.2 0 00-1.88.4q-2.44 5.21-6.78 8.88a1.45 1.42 78.2 00-.45.7c-.59 2.14.87 6.91 1.32 9.25.93 4.98-.14 10.13-.8 15.06a.26.25-33.5 00.5.1l6.56-22.84a.54.54 0 00-.38-.67c-1.97-.52-2.63 1.09-4.28 1.11M361.81 359.31q2.27-2.8 3.03-6.41.14-.66-.49-.42l-3.54 1.32a.76.76 0 00-.49.78l.41 4.71a.56.56 0 00.81.44q.27-.13.27-.42"/><path stroke="#595a5a" vector-effect="non-scaling-stroke" d="M386.25 354.54c-4.58.63-8.05 2.62-9.85 7.17-3.23 8.17-5.5 18.38-7.58 25.03q-5.84 18.63-11.19 37.4c-.17.61-.83 1.41-.88 2.08a.46.46 0 00.48.5l7.02-.26"/><path stroke="#90908f" vector-effect="non-scaling-stroke" d="M364.25 426.46l2.5.03a.69.69 0 00.66-.49c3.99-12.69 7.35-25.2 11.39-38.24q5.05-16.27 9.06-32.85a.52.51-77.7 00-.4-.63q-.58-.12-1.21.26"/><path stroke="#c8cacb" vector-effect="non-scaling-stroke" d="M364.25 426.46c6.06-23.97 13.52-44.74 19.14-65.54q.33-1.25 2.8-4.03a.84.83 56 00.16-.84q-.28-.79-.1-1.51"/><path stroke="#595a5a" vector-effect="non-scaling-stroke" d="M246.1 358.43c-5.34 2-10.65 9.25-10.53 15.36q.02.65.49.2 6.84-6.46 10.37-15.23.22-.53-.33-.33M310.14 396.73c-3.11.73-4.12 8.86-4.26 11.26q-.03.58.47.29c.97-.57 3.87-9.67 4.2-11.14a.35.34 89.6 00-.41-.41M333.1 397.23a1.21 1.21 0 00-.97.78l-3.37 8.76a.28.28 0 00.49.27c1.44-2 3.15-7.44 4.88-8.24a.66.65-17 00.38-.7q-.15-1.04-1.41-.87M306.62 414.76c-1.95 1.75.02 6.98 1.43 8.64q.61.71.49-.22-.18-1.35-.75-2.6-.21-.44-.25-.93l-.31-4.64a.37.36 67.1 00-.61-.25M367.7 430.34c-.91-1.3-9.9-.91-11.81-.87a.89.88 10.6 00-.8.54l-.86 2.12q-.29.7.41.4c3.61-1.55 8.72-1.18 12.7-1.44a.48.48 0 00.36-.75M354.211 452.765a1.06.65 99.7 00.82-.935 1.06.65 99.7 00-.462-1.155 1.06.65 99.7 00-.82.935 1.06.65 99.7 00.462 1.155"/><path stroke="#90908f" vector-effect="non-scaling-stroke" d="M369.793 453.451a.87.87 0 00-.718-1l-6.552-1.072a.87.87 0 00-1 .718l-.096.592a.87.87 0 00.718 1l6.552 1.072a.87.87 0 001-.718l.096-.592"/><path stroke="#595a5a" vector-effect="non-scaling-stroke" d="M437.46 169c-.81 1.57-4.12 10.48-2.55 11.54a.31.31 0 00.47-.2q1.59-8.32 6.54-16.49.92-1.53-.38-2.35"/><path stroke="#c8cacb" vector-effect="non-scaling-stroke" d="M441.54 161.5l2.04-6.31a.51.5 72.4 00-.88-.46q-4.64 6.18-6.07 13.76a.44.44 0 00.43.52l.4-.01"/><path stroke="#90908f" vector-effect="non-scaling-stroke" d="M441.54 161.5l-4.08 7.5"/><path stroke="#595a5a" vector-effect="non-scaling-stroke" d="M449.22 161.44c-1.11.1-2.41 2.3-2.39 3.2q.02.45.29.1l2.3-2.93q.34-.43-.2-.37M261.11 237.02q-.34 1.84.84.38l2.04-2.52q1.07-1.33-.52-.73-1.97.75-2.36 2.87"/><path stroke="#21201e" vector-effect="non-scaling-stroke" d="M374.75 590.79l-.06.21"/></g><path d="M0 0h590.06l-.02.25.25 3.75v1l-.03 584.57a.67.67 0 01-.67.67q-291.71.02-583.53-.02-3.03 0-6.06-.28V0zm585.5 5.51a.26.26 0 00-.26-.26H5.5a.26.26 0 00-.26.26v579.72a.26.26 0 00.26.26h579.74a.26.26 0 00.26-.26V5.51z"/><path fill="#21201e" d="M590.06 0h.94v590.31c-.83-.45-.25-535.49-.25-585.1a.22.21 1.4 00-.21-.21h-.25V4q1.37-2.04-.25-3.75l.02-.25z"/><path fill="#919496" d="M590.04.25q1.62 1.71.25 3.75l-.25-3.75zM590.29 5h.25a.22.21 1.4 01.21.21c0 49.61-.58 584.65.25 585.1v.69h-1.06q-4.63-.63-9.25 0h-13.75q-2.38-.63-4.75 0h-3.25q-18.38-.63-36.75 0h-4.25q-13.88-.63-27.75 0h-2.25q-35.88-.63-71.75 0h-18.25l-23.19-.21-38.81.21h-75q-4.13-.63-8.25 0h-21.25q-31.63-.63-63.25 0h-2.25q-9.88-.63-19.75 0h-2.25q-2.88-.63-5.75 0h-4.25q-5.88-.63-11.75 0h-.25q-36.38-.63-72.75 0h-.25q-8.38-.63-16.75 0h-.25q-2.88-.63-5.75 0h-3.25q-3.38-.63-6.75 0h-.25L0 590.44v-.5q3.03.28 6.06.28 291.82.04 583.53.02a.67.67 0 00.67-.67L590.29 5z"/><path fill="#fafde0" d="M585.5 585.23a.26.26 0 01-.26.26H5.5a.26.26 0 01-.26-.26V5.51a.26.26 0 01.26-.26h579.74a.26.26 0 01.26.26v579.72zM106.69 19.77q-1.75-.66-2.69-.65-20.34.24-40.68.36c-9.03.05-17.59 1.36-21.88 10.43q-2.64 5.57-2.38 11.6c.62 14.23.21 28.67.31 42.93q.01 1.45.27 1.99a1.34 1.33-35 002.15.37q31.8-31.72 62.72-63.54 1.37-1.4 2.38-2.8a.45.45 0 00-.2-.69zM362 80.79q-1.64.27-1.75 1.92-11.36 1.63-21.18 7.46c-2.33 1.39-5.15 2.77-7.87 3.16q-8.98 1.27-29.51 3.87-27.92 3.52-54.62 16.35-6.94 3.34-13.57 10.27a.9.88-32.1 00-.21.87l.18.65a.54.54 0 01-.34.66q-3.35 1.22-7.19 3.95-20.95 14.92-33.74 36.25-1.41 2.35-2.26 5.05-.13.4.11.05.94-1.37 2.49-1.3c-4.1 6.02-9.14 11.75-12.7 18.05-7.22 12.77-13.62 25.97-16.34 39.2-1.92 9.33-4.43 19.38-5.57 28.1q-2.34 17.84-1.64 35.9.51 14.65-.62 29.27a.59.56 25.4 00.17.45l.22.21a.19.19 0 00.31-.08l1.3-4.55a.56.56 0 011.09.1l.74 7.39q2.61 20.33 9.66 39.51c2.52 6.86 6.63 13.93 9.99 20.94q.23.46.34-.04.43-1.97.04-3.79 1.47.59 2.29 1.74 1.49 2.08 1.53 2.12 9.51 9.94 20.36 18.12c2.06 1.83 4.2 3.16 5 5.94q1.7 5.87.75 9.66c-3.43 13.68-5.33 25.85 2.97 38.23 3.47 5.18 8.95 4.95 14.8 5.35 7.42.5 12.94-2.42 16.3-9.03a.54.53-61.6 00-.2-.7c-7.73-4.64 1.01-14.54 6.42-16.63 7.55-2.62 13.75 4.83 22.28 5.56q5.52.47 10.6 3.01.51.25.28-.27-1.07-2.36 1.5-3.42a1.5 1.46-50.3 01.84-.09c6.91 1.32 5.49 8.35 9.75 9.05a1.23 1.22-60.2 00.98-.27q2-1.63 2.98-4.02.36-.87.78-.03l1.31 2.62a1.39 1.38-1.3 00.66.63q1.58.73 3.24.01a.81.81 0 01.89.16q3.28 3.2 3.08 7.9a1.27 1.27 0 001.68 1.26q3.71-1.27 5.28 2.06a1.27 1.24 85.3 00.77.67c5.49 1.71 18.8-2.45 24.88-3.9a.6.59 1.7 01.71.75l-19.11 63.69q-.15.5-.15 1.03l.01.36a.75.75 0 01-.5.72q-5.29 1.9-4.12 7.63a1.25 1.25 0 00.43.71c2.43 1.97 9.93 5.75 11.28.81q.83-3.03 1.1-4.88a.84.83-71.3 00-.42-.86l-1.82-1.04a.59.58-63.2 01-.24-.74c1.94-4.22 3.07-9.37 4.13-12.85q8.1-26.73 16.19-53.58a.95.94 13.3 011.08-.66q10.98 1.92 21.89 3.08 3.07.32 4.05-2.31.89-.77 1.17-1.8.14-.5-.35-.34l-1.36.43q-.69-3.28 1.47-6.28a.53.53 0 00-.6-.81c-2.09.71-17.06-1.21-15.99-4.52a.67.66-80.3 01.66-.47q5.35.17 10.52 1.5c4.97 1.28 9.9.76 14.9.78a1.11 1.09-70 00.88-.42l1.23-1.56a1.24 1.22-69.5 01.97-.45l6.46.2a1.76 1.76 0 011.02.37l5.16 3.91a.38.38 0 00.56-.48q-2.29-4.09-5.96-7.03-.91-.73.24-.53 4.06.68 7.66 2.57.8.42.25-.3c-4.44-5.79-10.54-5.08-15.13-9.42q-.38-.37.15-.36 3.31.04 6.14 1.93.4.27.82.06a.41.4-35.5 00.11-.65q-4.11-4.23-9.69-5.83c-5.64-1.62-10.39-4.62-15.4-7.54a.66.64-67.2 01-.29-.73c3.03-11.17 7.33-23.22 10.15-33.14q3-10.57 5.99-21.15c1.02-3.61 5.42-6.09 8.66-7.06q.5-.15.23.3c-1.67 2.74-4.12 3.8-5.92 6.22a.57.57 0 00.48.91q12.85-.48 19.01-11.39a1.65 1.64-76.4 011.36-.84c3.27-.15 7.73.12 10.39-1.24 7.49-3.83 5.53-13.22-1.49-16.18a.95.92-84.8 01-.55-.68c-1.37-6.55-4.29-12.17-9.5-16.53-3.94-3.29-8.37-7.79-12.96-9.2q-10.98-3.39-21.87-7.37-.81-.3-.04-.69 2.59-1.3 3.82-3.98.53-1.16.78.09.28 1.41-.16 2.74-.15.45.26.21c2.14-1.26 1.54-5.19 1.42-7.49a.58.58 0 01.97-.45q3.51 3.24 8.29 3.95.72.11.22-.42c-.97-1.01-4.19-3.78-2.93-5.2a.42.41-47.3 01.6-.03q5.88 5.72 13.66 3.15.81-.27-.01-.51c-2.92-.88-9.52-4.75-8.11-8.62q.24-.64.56-.04 2.05 3.73 6.07 5.41a.36.36 0 00.4-.59c-8.33-8.62-1.94-15.5 4.62-21.82q.4-.39.41.17.08 4.82 4.3 7a.38.38 0 00.55-.26c.63-3.12.12-6.73 2.41-9.71 3.33-4.35 9.43-5.46 14.39-3.47 1.3.52 6.5 2.75 7.51 4.08q7.61 9.98 7.86 22.56a.94.93 80.9 001.21.88c6.51-2.03 12.63-.94 18.35-1.86 10.11-1.64 18.72-7.55 28.73-10.95 4.6-1.57 5.29-5.58 4.08-9.99-4.92-17.86-10.81-33.24-.66-46.88 2.74-3.69 7.19-6.73 11.01-9.8a.76.74-28.3 00.25-.79c-4.65-15.54-4.48-32.04-16.21-46.63-2.04-2.54-2.83-4.04-2.34-7.14.63-4.01 7.48-9.72 10.67-12.01q6.65-4.77 5.55-13.67c-.05-.41-.39-.79-.76-.83a.72.71 11.9 00-.74.48l-.98 2.98q-.23.68-.52.03l-2.1-4.73a1.17 1.16 88 00-.65-.61l-2.23-.87a1.57 1.54 86.5 01-.8-.72l-2.49-4.88a.74.74 0 00-.79-.39q-2.19.4-2.81.15c-7.43-3-16.9-.26-22.8 4.56a1.1 1.1 0 01-1.72-.46q-1.54-4.07-4.5-7.27a1.03 1.02-22.9 00-.82-.33c-11.38.75-20.07-3.69-29.81-9.39-8.02-4.69-16.01-11.79-24.32-17.36Q385.63 77.58 362 80.79zm202.308 341.542a1.04.66-3.2 00-1.075-.601 1.04.66-3.2 00-1.001.717 1.04.66-3.2 001.075.601 1.04.66-3.2 001.001-.717zM355.55 575.27a.47.47 0 01.18-.91q12.46.87 23.84-4.05a.49.49 0 00-.14-.94c-6.93-.74-14.44-3.51-20.04-4.61q-12.41-2.46-17.14-2.52c-17.47-.22-34.65-.21-52.42-1.09q-19.46-.95-26.02-.38c-23.65 2.08-47.42 1.76-70.96 4.75-4.9.62-10.02 2.26-15.22 3.02-1.42.21-2.23 1.12-2.03 2.53a.73.72-89.5 00.59.61q10.33 1.89 20.81 2.48c5.51.31 12.05 1.31 18.22 1.25 7.16-.06 13.92 1.3 21.06 1.28q.5-.01.94.24 3.24 1.8 7.05 1.77c1.55-.01 3.54 1.11 5.36 1.15q22.09.5 44.11 2.21 5.56.43 18.36-.38c13.85-.88 26.55-.7 39.9-.78q7.3-.05 14.78-2.4a.52.51-16 00.35-.62q-.14-.53-.85-.57-5.56-.28-10.73-2.04z"/><path fill="#fae6ab" d="M106.69 19.77a.45.45 0 01.2.69q-1.01 1.4-2.38 2.8Q73.59 55.08 41.79 86.8a1.34 1.33-35 01-2.15-.37q-.26-.54-.27-1.99c-.1-14.26.31-28.7-.31-42.93q-.26-6.03 2.38-11.6c4.29-9.07 12.85-10.38 21.88-10.43q20.34-.12 40.68-.36.94-.01 2.69.65z"/><path fill="#21201e" d="M375.5 456.54l.54 1.71q-.98 2.63-4.05 2.31-10.91-1.16-21.89-3.08a.95.94 13.3 00-1.08.66q-8.09 26.85-16.19 53.58c-1.06 3.48-2.19 8.63-4.13 12.85a.59.58-63.2 00.24.74l1.82 1.04a.84.83-71.3 01.42.86q-.27 1.85-1.1 4.88c-1.35 4.94-8.85 1.16-11.28-.81a1.25 1.25 0 01-.43-.71q-1.17-5.73 4.12-7.63a.75.75 0 00.5-.72l-.01-.36q0-.53.15-1.03l19.11-63.69a.6.59 1.7 00-.71-.75c-6.08 1.45-19.39 5.61-24.88 3.9a1.27 1.24 85.3 01-.77-.67q-1.57-3.33-5.28-2.06a1.27 1.27 0 01-1.68-1.26q.2-4.7-3.08-7.9a.81.81 0 00-.89-.16q-1.66.72-3.24-.01a1.39 1.38-1.3 01-.66-.63l-1.31-2.62q-.42-.84-.78.03-.98 2.39-2.98 4.02a1.23 1.22-60.2 01-.98.27c-4.26-.7-2.84-7.73-9.75-9.05a1.5 1.46-50.3 00-.84.09q-2.57 1.06-1.5 3.42.23.52-.28.27-5.08-2.54-10.6-3.01c-8.53-.73-14.73-8.18-22.28-5.56q-.11-1.4-1.24-.92c-5.95 2.53-13.21 11.58-7.25 17.9a.69.68 37.5 01.11.79c-4.75 8.92-12.15 7.52-20.76 6.62-3.11-.32-4.88-1.46-6.6-3.86-7.46-10.44-7.27-21.77-3.96-33.9 1.02-3.75 1.52-12.71-.51-15.83q-1.9-2.93-5.83-3.62-10.85-8.18-20.36-18.12-.04-.04-1.53-2.12-.82-1.15-2.29-1.74-6.54-9.41-9.9-20.44c-1.67-5.46-4.35-11.35-5.48-17.79-.98-5.58-2.75-11.79-3.11-17.89a.91.91 0 00-.48-.75q-.49-.26-1.06.25l-.74-7.39a.56.56 0 00-1.09-.1l-1.3 4.55a.19.19 0 01-.31.08l-.22-.21a.59.56 25.4 01-.17-.45q1.13-14.62.62-29.27 1.23.15.73 2.96a.97.97 0 001.09 1.14q2.48-.35 1.93-3.85l1.5 11.25c.09 1.21.76 12.58.91 12.69a.18.18 0 00.28-.12l.56-4.47a1.57 1.56 36.9 00-.12-.81q-.66-1.45.63-2.87-.02 8.77 3.33 16.79a1.76 1.68 39.5 01.11.94q-.1.64.32 1.13.41.5.34-.15-1.69-15.08-2.77-30.21c-.3-4.15.78-8.41.91-12.72a.86.85 81.6 01.57-.78l1.17-.42a.24.23 84.1 01.31.26l-.42 3.54a.51.5 8.3 00.42.56l2.96.5a.4.4 0 00.47-.41c-.43-10.95-.83-19.6 4.22-28.97q.24-.44.13.05-5.14 22.72-.04 45.5.12.53.23 0 .36-1.76 0-4.34c-1.81-12.99-.84-24.35 2.66-39.49 1.91-8.22 7.43-16.97 10.11-23.2q.2-.45.07.02-3 10.89-7.29 21.33-.79 1.94-.61 4.07.55 6.6.28 13.17a.52.52 0 001.03.12l1.93-10.18q.06-.31.17-.01c1.61 4.24.47 7.52.22 11.39q-.64 9.96-.56 19.99a.48.48 0 00.88.26q1.59-2.34.25-4.89a1.66 1.65-57.5 01-.18-.83c.1-2.58-.38-5.07.02-7.57q1.31-8.29 1.39-16.68c.02-1.71.99-2.98 1.05-4.61q.11-3.62 2.63-5.72.83-.69.4.3-1.12 2.55.36 4.7a2 1.98 26.2 01.36 1.04l.48 7.35q.07 1.06.41.05c1.87-5.52 2.88-11.52 4.95-16.58 1.7-4.15 4.05-11.06 6.96-14.33a1.4 1.36 70.8 00.34-.73q.34-2.56 2.19-4.43.9-.91.37.26-.93 2.04-2.22 3.89a.36.36 0 00.06.49c.76.68 4.51-4.87 4.98-5.58 2.34-4.75 3.33-9.13 6.6-13.62q2.73-1.19 1.37 2.78c-1.76 5.13-5.21 11.76-5.43 17.07q-.02.51.22.06c3.1-5.93 5.25-12.74 9.19-18.1 1.78-2.41 4.47-7.85 7.1-8.97q.48-.21.3.28c-4.58 12.62-13.03 22.92-14.06 35.74q-.04.52.17.04 1.94-4.54 3.51-9.26c1.45-4.35 3.84-7.37 6.32-11.06q.28-.42.18.08c-1.5 7.39-5.51 14.8-5.73 21.95a.77.76 58 001.46.34l2.31-5.23q.19-.43.33.03c.81 2.69-1.51 5.97-2.68 8.3-2.69 5.38-3.04 13.08-3.07 19.02q0 .51.15.03.92-2.88 1.87-5.76c1.63-4.9 4.6-8.83 5.04-14.84a.37.36-43.2 01.73.02v3.33a1.07 1.05-66.5 00.27.71q.83.95.59 2.22-.13.67.49.39.85-.38 1-1.42 1.08-7.84 5.27-14.63l3.54-6.54c2.04-6.37 6.07-9.57 9.87-14.85a.37.36 46.6 01.6.02q.15.22-.05.53-3.2 5.15-4.7 10.25a.43.42-83.7 00.43.55l.52-.03a.81.8-78.2 00.69-.46c5.36-11.02 12.05-15.61 22.01-22.61q1.41-1 2.98-1.51.5-.16.14.21c-5.23 5.38-9.22 11.5-14.36 16.87a.88.87 27.8 01-.83.25l-.96-.23a1.04 1.02-58.7 00-.91.23c-6.33 5.47-9.59 10.72-15.28 19.26-4.13 6.2-9.79 14.41-10.96 21.84q-1.03 6.56-2.16 13.81a.64.64 0 001.07.57c1.76-1.66 4.5-11.98 5.2-14.76a.6.6 0 01.68-.44l2.13.35a.65.65 0 00.75-.58l.44-4.9a1.74 1.69-24.5 01.36-.92c2.91-3.81 3.14-9.8 5.89-13.55q2.83-3.85 5.73-7.68.32-.43.36.1c.03.47-.23 1.6-.54 1.98q-4.85 5.91-5.5 12.13a.73.73 0 001.41.35c2.23-5.44 3.88-10.22 7.59-14.57q.36-.41.87-.59 1.71-.63 2.77-2.13a.31.31 0 01.52.02c.31.52-3.71 7.75-4.26 8.73a.41.41 0 00.47.6l2.11-.57a.46.46 0 01.57.36l.26 1.48q.23 1.32.87.14l4.78-8.75a.9.89-75.1 01.8-.47q.94.02 1.03 1.9a2.07 2.07 0 01-.73 1.68q-1.63 1.38-.67 3.43a1.38 1.37 43.6 01.03 1.11l-2.42 6.03a.61.61 0 00.2.71c1.44 1.06 2.91-1.38 3.73-2.29a.44.44 0 01.64-.02l.2.21a.63.63 0 01.02.85l-2.63 2.97a.95.93-32.3 00-.2.86l.3 1.08a1.05 1.05 0 01-.13.86c-2.39 3.68-4.83 7.72-4.52 11.67.29 3.78.09 6.57.3 9.94q.03.5.13.01c.41-1.95 1.75-9.31 3.38-10.27a1.86 1.85-1.4 00.67-.7l7.01-12.89q.51-.95.51.12l.01 2.1a.63.63 0 00.51.62c1.47.28 4.12-3.18 4.97-4.28q3.03-3.92 7.58-5.67a1.59 1.55-82.2 00.73-.57q.35-.49.87-.81.52-.32.26.24-.55 1.15-1.7 1.72-.47.24-.8.65c-2.61 3.33-4.96 6.27-6.89 10.16q-2.88 5.81-6.12 12.24a.7.7 0 001.09.84c1.95-1.71 2.81-4.67 4.59-6.5q7.82-8.03 16.14-15.54 1.82-1.64 4.27-2.08.54-.09.18.31l-5.37 6.05a.92.92 0 001.32 1.27q.1-.1.2-.21 3.7-4.23 9.11-5.72a.38.38 0 01.38.63q-10.63 11.12-20.47 22.86c-4.29 5.13-6.84 8.69-8.28 15.44-1.26 5.9-4.34 12.33-4.52 17.94q-.26 8.27 3.36 16.21a.23.22 48.7 00.4.03l.51-.82a.91.91 0 01.8-.42q1.19.06 2.08.92.37.36.85.55 3.06 1.17 3.86 1.88c13.53 11.94 29.55 10.16 45.41 13.29 3.81.75 9.07-.11 13.45 1.56q11.13 4.24 26.21 8.37 4.23 1.15 5.8-1.82a1.48 1.44-88.3 01.68-.66q4.83-2.3 9.79-2.07 14.11.67 18.97.8a1.79 1.77 30.2 00.93-.24q6.34-3.71 13.26-5.27.62.25 1.09.14a.51.5 76 00.37-.62q-1.77-6.73-6.07-12.13a.41.41 0 01.16-.63c.86-.35 2.82 1.15 4.06 1.22q.52.03.17-.36c-4.69-5.11-11.04-10.86-17.93-12.54-7.07-1.73-13.64-4.44-20.64-6.42q-4.12-1.17-7.93-3.1-12.33-6.26-25.43-10.71a.44.44 0 01-.25-.6l1.73-3.58 3.81-.13q.77-.02.28-.62-3.15-3.83-7.54-6.19a.37.37 0 01.21-.69q8.13.68 11.52 7.96a.63.63 0 00.87.29l2.01-1.1a.75.75 0 00.32-.96l-4.38-10.01a.15.15 0 01.2-.19c6.95 2.79 4.89 6.82 6.24 12.47q.14.58.24-.01c.85-4.84 1.02-12.66-2.74-16.44q-4.43-4.45-6.25-9.97a.77.77 0 011.3-.75l8.22 9.32a.27.27 0 00.47-.14c.92-5.58-2.84-11.01-6.69-14.66a.23.23 0 01.18-.4c7.98.7 6.91 6.69 10.1 11.77 3.23 5.15.71 9.85 2.83 15.15a1.13 1.12-1.1 00.67.64c3.71 1.35 3.51-17.3 3.34-20.8q-1-5.6-1.55-11.24c-.43-4.29-2.94-7.26-5.18-10.73q2.75 2.09 5.59 5.64c5.39 6.74 4.78 13.68 6.32 22.79.61 3.66-.82 7.2-.87 11.01q-.01.52.36.15c3.3-3.22 5.08-12.39 5.83-16.87.83-3.49 1.98-11.97.04-15.04q-.72-1.54.25-2.75l3.08 2.79q.45.4.35-.19c-.57-3.29-.33-6.12-2.09-9.14q-2.62-4.52-5.35-8.99-.27-.44.25-.43l.98.01q.95 1.23 2.04 2.8c2.94 4.21 5.91 5.46 7.2 11.07.52 2.28 1.85 3.81 2.02 6.33q.03.5.42.18c1.29-1.1 2.03-2.38 1.83-4.22q-.67-6.05-.73-12.13c1.18-6.73-2.07-10.67-2.05-17.13q5.98 8.01 5.3 18.03c-.06.95.34 2.2.65 3.08q.19.54.44.03.33-.67.27-1.55-.8-11.78.52-24.73a.58.57 40.9 011.13-.08c1.02 4.05-.09 9.01 1.24 13.05a.73.73 0 001.4-.08q.82-3.98 1.08-7.9c.32-4.83-4.27-6.97-1.91-12.09a.43.43 0 01.66-.16q.67.52.48 1.61a.04.03 15.7 00.03.04l.28.09a.33.33 0 00.42-.26c1.88-10.97 13.19-13.8 12.82-25.79a.73.73 0 01.59-.74l.82-.17a.58.57 79.7 01.69.48q.75 4.71.73 9.48c-.03 7.21-4.99 12.74-8.59 18.41a.42.42 0 00.43.64q1.62-.32 2.53-1.91c4.15-7.3 8.46-11.95 10.1-21.37.34-1.9 3.58-6.38 3.44-8.98q1.71-4.09 1.79-8.54.54-.16.86-.02a.59.59 0 01.33.72c-.72 2.33-.15 4.55-.52 6.62-.81 4.5-3.21 9.36-3.24 13.79q-.04 4.89-2.68 9.58a.47.47 0 00.77.53l6.89-8.3q2.85-.7 3.8-3.67 4.32-13.49 3.75-26.46c1.7 1.62 1.88 12.45 2.03 15.13q.14 2.75-.53 5.58c-.36 1.52-2.23 6.77-.33 7.47a.61.61 0 00.76-.31q1.32-2.82 1.47-5.9a.45.45 0 01.45-.43c3.83.03 7.07-14.29 9.5-13.96a.42.42 0 01.34.56q-.92 2.5-2.82 8.65-.79 2.57.89 4.14a.63.62-53.3 01.11.77l-2.05 3.55a1.4 1.37 5 01-.77.63l-1.17.39a1.26 1.25 2 00-.77.71c-2.4 5.9-3.72 12.55-6.31 18.03-2.57 5.46-6.7 8.4-10.46 12.37q-3.97 4.19-6.49 6.32c-4.55 3.84-9.63 7.05-13.08 12.27q-.27.41.22.32c5.31-1.01 8.17-4.37 12.09-6.77 8.18-5.01 14.45-12.33 20.48-17.94q.38-.36.26.16c-.55 2.45-3.56 4.96-4.78 7.59a.41.41 0 00.65.48c5.38-4.7 6.81-9.2 10.02-15.35 1.38-2 2.81-3.93 3.66-6.26q3-8.19 6.1-16.4 1.13 6.02.49 7.84c-2.59 7.33-6.54 14.63-9.93 21.64-2.23 4.59-5.45 7.26-9.45 10.02-1.37.94-2.53 3.17-4.2 4.44q-8.09 6.19-16.24 12.3c-.64.48-2.01 1.01-2.57 1.68a.33.32-64.1 00.18.53q4.99 1.12 9.78-.64a1.3 1.29-42.4 01.98.04c8.61 3.95 21.31-6.26 26.54-12.29q4.96-5.73 10.27-11.12 4.21-3.28 5.72-8.53.21-.07.37-.03a.4.4 0 01.3.51c-1.49 4.77-3.01 8.43-6.68 12.21-4.41 4.56-7.22 7.76-8.71 13.31a.58.58 0 001.02.51l7.04-8.96a.47.47 0 01.83.42c-1.26 4.51-3 7.72-6.72 10.94-3.45 2.99-5.63 5.68-9.98 7.66a.42.41-60.7 00.22.79c9.96-1.25 18.02-8.69 20.98-17.86l2.58-5.75c2.92-2.3 3.83-5.82 6.63-7.85a.39.39 0 01.55.53l-3.28 5.01a.5.5 0 00.61.74c.73-.3 1.7-.91 2.28-1.55 6.57-7.33 14.66-6.53 23.46-8.13q3.97-.53 7.99-.06a.35.35 0 00.38-.43q-3.62-16.19-6.57-32.52-.4-2.18-2.24-5.25c-3.21-5.33-9.61-4.78-12.44-9.26a1.55 1.52 83.9 00-.73-.6q-4.09-1.65-8.01.32-2.83.89-5.13 2.92a.57.57 0 01-.81-.07l-2.7-3.37a1.48 1.46 78.5 00-.73-.49q-.46-.15-.56-.61-.14-.59.44-.4l2.49.78a.71.69 21.5 00.85-.36l.16-.35a.61.6-64.5 00-.28-.8l-5.26-2.63a1.33 1.32-83.9 01-.68-.85l-2.06-7.73a.46.45-1.2 01.54-.56q.33.07.45.52 2.22 7.76 9.89 10.47a.19.19 0 00.2-.3c-2.16-2.53-5.63-8.62-2.11-11.39a.93.92-20.6 00.36-.79c-.27-5.22.43-9.49 6.3-10.81a.74.73-21.3 01.8.35l.63 1.09a.51.51 0 00.88.01q1.96-3.16 5.43-4.24a.65.64 75.1 01.83.49l.51 2.46a.72.72 0 00.89.54q1.88-.51 2.85 1.01a.35.35 0 00.6-.01c.37-.62-.93-3.36-1.26-4.1a.47.47 0 01.28-.64c1.63-.5 2.59 2.43 3.22 3.93.81 1.92 2.99 3.02 1.21 5.85a.38.38 0 00.22.57q.71.19 1.34.06l.39 1.2a.97.97 0 001.57.41c6.11-5.55 4.89-11.92-.89-16.75-5.53-4.62-13.37-5.88-19.79-2.1-5.54 1.46-10.31 10.28-12.03 15.3a.74.73-40.4 01-1.42-.11q-1.08-6.38 2.64-11.44a.9.88-38.3 00.11-.85q-1.24-3.03-3.22-4.59-4.51-2.51-9.12-2.81c-7.27-.47-14.55-3.7-20.97-6.94-16.37-8.25-26.39-26.65-46.81-28.05-6.99-.48-21.1-1.09-27.17 2.63q-3.79-.19-6.74 1.13c-11.46 5.12-21.29 13.97-34.89 14.27a.77.77 0 01-.28-1.49c1.94-.73 10.01-3.38 10.68-4.37q.31-.45-.2-.24-1.18.49-1.57.51-6.99.35-13.75 2.08l-7.25.75c-12.09.72-21.72 4.54-34.65 8.9-10.15 3.43-18.8 10.77-28.1 16.1-14.65 8.39-24.75 19.22-35.96 32.47q-.35.41-.83.66-1.33.66-2.24 1.85-.91 1.19.34.36l2.05-1.37q.72-.49.5.35c-.78 3.05-5.73 7.71-7.82 10.39q-.43-1.42-1.75-1-1.55-.07-2.49 1.3-.24.35-.11-.05.85-2.7 2.26-5.05 12.79-21.33 33.74-36.25 3.84-2.73 7.19-3.95a.54.54 0 00.34-.66l-.18-.65a.9.88-32.1 01.21-.87q6.63-6.93 13.57-10.27 26.7-12.83 54.62-16.35 20.53-2.6 29.51-3.87c2.72-.39 5.54-1.77 7.87-3.16q9.82-5.83 21.18-7.46 1.82.53 3.11-.39a.38.38 0 00-.01-.63l-1.35-.9q23.63-3.21 43.27 9.94c8.31 5.57 16.3 12.67 24.32 17.36 9.74 5.7 18.43 10.14 29.81 9.39a1.03 1.02-22.9 01.82.33q2.96 3.2 4.5 7.27a1.1 1.1 0 001.72.46c5.9-4.82 15.37-7.56 22.8-4.56q.62.25 2.81-.15a.74.74 0 01.79.39l2.49 4.88a1.57 1.54 86.5 00.8.72l2.23.87a1.17 1.16 88 01.65.61l2.1 4.73q.29.65.52-.03l.98-2.98a.72.71 11.9 01.74-.48c.37.04.71.42.76.83q1.1 8.9-5.55 13.67c-3.19 2.29-10.04 8-10.67 12.01-.49 3.1.3 4.6 2.34 7.14 11.73 14.59 11.56 31.09 16.21 46.63a.76.74-28.3 01-.25.79c-3.82 3.07-8.27 6.11-11.01 9.8-10.15 13.64-4.26 29.02.66 46.88 1.21 4.41.52 8.42-4.08 9.99-10.01 3.4-18.62 9.31-28.73 10.95-5.72.92-11.84-.17-18.35 1.86a.94.93 80.9 01-1.21-.88q-.25-12.58-7.86-22.56c-1.01-1.33-6.21-3.56-7.51-4.08-4.96-1.99-11.06-.88-14.39 3.47-2.29 2.98-1.78 6.59-2.41 9.71a.38.38 0 01-.55.26q-4.22-2.18-4.3-7-.01-.56-.41-.17c-6.56 6.32-12.95 13.2-4.62 21.82a.36.36 0 01-.4.59q-4.02-1.68-6.07-5.41-.32-.6-.56.04c-1.41 3.87 5.19 7.74 8.11 8.62q.82.24.01.51-7.78 2.57-13.66-3.15a.42.41-47.3 00-.6.03c-1.26 1.42 1.96 4.19 2.93 5.2q.5.53-.22.42-4.78-.71-8.29-3.95a.58.58 0 00-.97.45c.12 2.3.72 6.23-1.42 7.49q-.41.24-.26-.21.44-1.33.16-2.74-.25-1.25-.78-.09-1.23 2.68-3.82 3.98-.77.39.04.69 10.89 3.98 21.87 7.37c4.59 1.41 9.02 5.91 12.96 9.2 5.21 4.36 8.13 9.98 9.5 16.53a.95.92-84.8 00.55.68c7.02 2.96 8.98 12.35 1.49 16.18-2.66 1.36-7.12 1.09-10.39 1.24a1.65 1.64-76.4 00-1.36.84q-6.16 10.91-19.01 11.39a.57.57 0 01-.48-.91c1.8-2.42 4.25-3.48 5.92-6.22q.27-.45-.23-.3c-3.24.97-7.64 3.45-8.66 7.06q-2.99 10.58-5.99 21.15c-2.82 9.92-7.12 21.97-10.15 33.14a.66.64-67.2 00.29.73c5.01 2.92 9.76 5.92 15.4 7.54q5.58 1.6 9.69 5.83a.41.4-35.5 01-.11.65q-.42.21-.82-.06-2.83-1.89-6.14-1.93-.53-.01-.15.36c4.59 4.34 10.69 3.63 15.13 9.42q.55.72-.25.3-3.6-1.89-7.66-2.57-1.15-.2-.24.53 3.67 2.94 5.96 7.03a.38.38 0 01-.56.48l-5.16-3.91a1.76 1.76 0 00-1.02-.37l-6.46-.2a1.24 1.22-69.5 00-.97.45l-1.23 1.56a1.11 1.09-70 01-.88.42c-5-.02-9.93.5-14.9-.78q-5.17-1.33-10.52-1.5a.67.66-80.3 00-.66.47c-1.07 3.31 13.9 5.23 15.99 4.52a.53.53 0 01.6.81q-2.16 3-1.47 6.28zm47.19-259.85c-4.89 9.26-12.51 11.72-19.7 18.17a1.33 1.29-19 00-.42.83c-.4 4.06-.73 7.38-2.9 11.16q-1.84 3.22-2.59 6.92-.23 1.13.36.14 4.08-6.79 10.92-10.84a1.28 1.27-7.2 00.59-.76l1.1-4.02a.64.64 0 01.55-.48q3.22-.39 4.95-3.24c3.91-6.46 8.79-12.41 10.37-20.29q.11-.52-.37-.29-1.91.91-2.86 2.7zm-16.97-1.7c-2.12 1.41-4.79 3.88-5.36 6.41a.4.4 0 00.71.32l4.87-6.5q.55-.74-.22-.23zm-14.27 50.92c.3 1.95-.17 4.04.18 6.16a.35.35 0 00.54.24q1.4-.94.85-2.61c-.78-2.39-1.02-2.49-.21-5.18q.68-2.28-1.05-4.39a.61.6 21.6 00-1.07.46q.35 2.57.76 5.32zm27 90.45a1.15 1.15 0 00-1.15-1.15 1.15 1.15 0 00-1.15 1.15 1.15 1.15 0 001.15 1.15 1.15 1.15 0 001.15-1.15zm-111.5 2.15c-16.04 1.47-35.76 5.8-49.16 16.43-2.19 1.74-5.1 3.24-6.12 6.37a.75.75 0 001.14.85l8.21-5.68q.99-.68.19.21-2.09 2.32-6.65 6.14-7.92 6.63-11.87 17.25a1.75 1.7 50.7 00-.08.93l.45 2.42q.1.52.46.15 4.89-4.95 10.94-8.5.72-.43.28.29-1.18 1.96-2.74 3.67c-4.04 4.41-4.72 9.5-2.48 15.1q.3.74.66.02l4.62-9.25a1.37 1.36 2.5 01.69-.63q.93-.38 1.86-.77c3.02-1.26 5.42-3.54 8.69-4.78a.35.35 0 01.31.63c-6.18 3.73-7.69 13.56-7.48 20.15q.13 4.04 2.97 1.16l10.12-10.25a.36.36 0 01.57.43c-2.18 3.68-4.18 6.19-5.37 10.41a.14.13-73.2 00.08.16l.29.09a.5.49 26.2 00.57-.19q4.11-5.73 9.64-10.12a1.01.98-59 01.78-.21l.35.05a.25.25 0 01.13.43q-9.01 8.11-7.54 20.54a.39.39 0 00.53.32c2.16-.83 2.88-5.16 5.31-6.77a1.02 1.02 0 011.52 1.21q-1.5 4.1-1.22 8.49a.58.58 0 00.66.54l1.78-.27a.63.63 0 01.67.38l2.17 5.37a.53.53 0 001.02-.21q-.2-6.44 1.56-12.35c.96-3.22 3.75-5.83 5.37-9.04q.28-.56.47.04.08.26-.02.54c-1.65 4.65-.27 7.94-.76 12.21-1.16 10.21-1.13 14.7 4.06 23.09q.26.42.11-.06c-1.45-4.71-3.49-9.77-3.21-14.48.29-4.97 2.47-8.69 3.44-13.45q.53-2.61 1.6-5.12.44-1.04.52.09l.48 7.07a1.66 1.62-67.3 00.39.98c3.02 3.51 1.94 10.02 3.92 13.39q2.69 4.58 7.77 4.06a.53.53 0 00.19-.99c-6.36-3.36-6.91-9.35-9.65-15.83a1.85 1.8 37.5 01-.14-.95c.98-7.72.16-15.49 7.55-20.72q4.09-2.9 7.51-3.01a1.38 1.36 20.8 00.93-.41l1.15-1.15a.45.44-53.3 01.54-.08c.47.27-4.19 8.66-4.68 9.8q-.21.48.29.34l3.33-.96a1.76 1.73-79.1 00.9-.62l3.76-4.92q.6-.79.42.19l-1 5.44a.39.39 0 00.77.16q1.47-6.76 8-8.77a1.44 1.4-78.9 00.71-.49l3.1-3.9a.49.49 0 01.67-.1c.75.53-1.5 3.13-1.73 4.04q-1.15 4.54-5.02 7.11a1.67 1.62-6.2 00-.61.74c-1.34 3.28-5.79 4.02-7.45 7.71-1.9 4.2-2.95 8.14-4.71 13.1-1.51 4.22-.82 9.92-.19 14.33q.12.84.65.17 1.19-1.51 1.36-3.47.04-.49.3-.91c1.73-2.74 2.72-4.7 2.44-8.22-.6-7.71 9.13-15.06 12.76-22.55q1.57-3.24 3.58-6.29.28-.43.29.09.09 4.89-3.29 8.47c-.01 0-.1.56-.09.57a.42.41-26 00.57.19l1.14-.59a.58.58 0 01.85.47l.1 1.34a1.49 1.45-67 00.32.83c1.41 1.73-.72 8.02-1.4 9.8q-.42 1.11.61.51l1.33-.79q.57-.34.46.32l-1.25 7.62a.46.46 0 00.76.41q5.94-5.43 9.66-12.56.31-.6.27.08c-.46 6.57-12.62 18.35-17.46 22.87a.23.23 0 00.26.38q5.23-2.48 9.84-5.88c1.28-.95 1.91-2.37 3.25-3.46 7.36-6 16.29-18.18 17.95-27.56q1.34-7.51-.21-15.19l-3.68-11.06a.71.71 0 011.29-.59l2.18 3.67a.21.2-58.3 00.38-.09c.4-4.82-2.89-8.23-4.96-12.26a1.6 1.55 89.5 00-.67-.68c-3.67-1.85-5.73-5.15-9.21-6.71q-7.28-3.25-14.2-7.27c-6.61-3.83-16.27-3.06-23.47-1.25zm114.16 3.91c-8.25-.95-9.03 8.32-.36 7.04a.96.95-84.6 00.74-.62q.99-2.81.31-5.79a.82.81 86.8 00-.69-.63zm-16.25 3.6c1.7.13 3.26.2 4.98.38a.55.54 5.1 00.61-.5l.23-2.64q.06-.7-.56-.37l-5.32 2.86q-.43.23.06.27zm6.697 3.302a.26.26 0 00-.263-.258l-20.179.212a.26.26 0 00-.257.262l.005.54a.26.26 0 00.263.258l20.179-.212a.26.26 0 00.257-.262l-.005-.54zM365.29 364.19a.34.34 0 01-.25-.57c1.18-1.28 8.1-9.96 6.44-11.42a1.2 1.2 0 00-1.88.4q-2.44 5.21-6.78 8.88a1.45 1.42 78.2 00-.45.7c-.59 2.14.87 6.91 1.32 9.25.93 4.98-.14 10.13-.8 15.06a.26.25-33.5 00.5.1l6.56-22.84a.54.54 0 00-.38-.67c-1.97-.52-2.63 1.09-4.28 1.11zm-3.48-4.88q2.27-2.8 3.03-6.41.14-.66-.49-.42l-3.54 1.32a.76.76 0 00-.49.78l.41 4.71a.56.56 0 00.81.44q.27-.13.27-.42zm24.44-4.77c-4.58.63-8.05 2.62-9.85 7.17-3.23 8.17-5.5 18.38-7.58 25.03q-5.84 18.63-11.19 37.4c-.17.61-.83 1.41-.88 2.08a.46.46 0 00.48.5l7.02-.26 2.5.03a.69.69 0 00.66-.49c3.99-12.69 7.35-25.2 11.39-38.24q5.05-16.27 9.06-32.85a.52.51-77.7 00-.4-.63q-.58-.12-1.21.26zm-140.15 3.89c-5.34 2-10.65 9.25-10.53 15.36q.02.65.49.2 6.84-6.46 10.37-15.23.22-.53-.33-.33zm64.04 38.3c-3.11.73-4.12 8.86-4.26 11.26q-.03.58.47.29c.97-.57 3.87-9.67 4.2-11.14a.35.34 89.6 00-.41-.41zm22.96.5a1.21 1.21 0 00-.97.78l-3.37 8.76a.28.28 0 00.49.27c1.44-2 3.15-7.44 4.88-8.24a.66.65-17 00.38-.7q-.15-1.04-1.41-.87zm-26.48 17.53c-1.95 1.75.02 6.98 1.43 8.64q.61.71.49-.22-.18-1.35-.75-2.6-.21-.44-.25-.93l-.31-4.64a.37.36 67.1 00-.61-.25zm61.08 15.58c-.91-1.3-9.9-.91-11.81-.87a.89.88 10.6 00-.8.54l-.86 2.12q-.29.7.41.4c3.61-1.55 8.72-1.18 12.7-1.44a.48.48 0 00.36-.75zm-13.489 22.425a1.06.65 99.7 00.82-.935 1.06.65 99.7 00-.462-1.155 1.06.65 99.7 00-.82.935 1.06.65 99.7 00.462 1.155zm15.582.686a.87.87 0 00-.718-1l-6.552-1.072a.87.87 0 00-1 .718l-.096.592a.87.87 0 00.718 1l6.552 1.072a.87.87 0 001-.718l.096-.592z"/><path fill="#919496" d="M362 80.79l1.35.9a.38.38 0 01.01.63q-1.29.92-3.11.39.11-1.65 1.75-1.92z"/><path fill="#fff" d="M459.07 123.82q-17.18 3.64-31.73-5.89c-7.72-5.07-15.48-10.93-23.26-14.84-9.5-4.78-20.28-9.48-30.93-10.68a.43.42-46.5 01-.02-.84q4.86-.84 10.11-.01.91.14 1.17-.16a.66.66 0 00-.37-1.08c-6.09-1.16-11.85-2.7-18.08-2.28q-5.47.37-10.96.61c6.07-3.72 20.18-3.11 27.17-2.63 20.42 1.4 30.44 19.8 46.81 28.05 6.42 3.24 13.7 6.47 20.97 6.94q4.61.3 9.12 2.81z"/><path fill="#919496" d="M459.07 123.82q1.98 1.56 3.22 4.59a.9.88-38.3 01-.11.85q-3.72 5.06-2.64 11.44a.74.73-40.4 001.42.11c1.72-5.02 6.49-13.84 12.03-15.3l10.55-.62a1.57 1.51-30.2 01.9.22c6.52 4.03 13.52 9.28 7.27 17.64q-.63.13-1.34-.06a.38.38 0 01-.22-.57c1.78-2.83-.4-3.93-1.21-5.85-.63-1.5-1.59-4.43-3.22-3.93a.47.47 0 00-.28.64c.33.74 1.63 3.48 1.26 4.1a.35.35 0 01-.6.01q-.97-1.52-2.85-1.01a.72.72 0 01-.89-.54l-.51-2.46a.65.64 75.1 00-.83-.49q-3.47 1.08-5.43 4.24a.51.51 0 01-.88-.01l-.63-1.09a.74.73-21.3 00-.8-.35c-5.87 1.32-6.57 5.59-6.3 10.81a.93.92-20.6 01-.36.79c-3.52 2.77-.05 8.86 2.11 11.39a.19.19 0 01-.2.3q-7.67-2.71-9.89-10.47-.12-.45-.45-.52a.46.45-1.2 00-.54.56l2.06 7.73a1.33 1.32-83.9 00.68.85l5.26 2.63a.61.6-64.5 01.28.8l-.16.35a.71.69 21.5 01-.85.36l-2.49-.78q-.58-.19-.44.4.1.46.56.61a1.48 1.46 78.5 01.73.49l2.7 3.37a.57.57 0 00.81.07q2.3-2.03 5.13-2.92 5.23-.22 7.24 1.33c3.3 2.54 8.12 4.03 10.28 8.46 2.49 5.09 7.73 27.1 4.83 31.59a1.08 1.06 53.1 00-.12.88q.88 2.89-.61 5.54c-8.8 1.6-16.89.8-23.46 8.13-.58.64-1.55 1.25-2.28 1.55a.5.5 0 01-.61-.74l3.28-5.01a.39.39 0 00-.55-.53c-2.8 2.03-3.71 5.55-6.63 7.85-.21-2.03 3.75-9.32 4.71-11.76q.19-.48-.17-.11c-2.09 2.06-3.63 4.28-4.3 7.18q-.31 1.32-1.6 2.09a1.39 1.35-8.8 00-.62.82l-1.75 6.35a.81.8 25.1 00.33.89q.37.23.82.29c-2.96 9.17-11.02 16.61-20.98 17.86a.42.41-60.7 01-.22-.79c4.35-1.98 6.53-4.67 9.98-7.66 3.72-3.22 5.46-6.43 6.72-10.94a.47.47 0 00-.83-.42l-7.04 8.96a.58.58 0 01-1.02-.51c1.49-5.55 4.3-8.75 8.71-13.31 3.67-3.78 5.19-7.44 6.68-12.21a.4.4 0 00-.3-.51q-.16-.04-.37.03 4.28-10.51 3.51-21.9-.12-1.81-.5-.04l-1.68 7.98q-.11.48-.45.13-1.52-1.51-.93-3.13 2.2-6.05.56-12.18a.48.47 41.2 00-.93.06l-1.36 10.53q-.08.6-.12 0-.22-3.21-1.2-6.22-1-3.08-.23-6.39a.31.31 0 00-.58-.19 25.604 25.604 0 00-2.09 9.92q-.05 7.32-2.56 14.24-.66 1.81.33.15l2.78-4.69a.39.39 0 01.72.25q-1.11 8.06-4.57 15.39a.21.21 0 00.37.21q2.18-3.18 4.42-3.95.81-.28.4.46-.64 1.13-.42 2.45a1.35 1.35 0 01-.17.88q-1.23 2.13-1.02 4.57-5.31 5.39-10.27 11.12c-5.23 6.03-17.93 16.24-26.54 12.29a1.3 1.29-42.4 00-.98-.04q-4.79 1.76-9.78.64a.33.32-64.1 01-.18-.53c.56-.67 1.93-1.2 2.57-1.68q8.15-6.11 16.24-12.3c1.67-1.27 2.83-3.5 4.2-4.44 4-2.76 7.22-5.43 9.45-10.02 3.39-7.01 7.34-14.31 9.93-21.64q.64-1.82-.49-7.84.96-3.61 3.14-6.81c2.46-3.61 2.83-9.17 3.74-13.53a.36.36 0 00-.6-.33c-1.96 1.89-2.86 3.79-3.81 6.69q-1.91 5.82-5.52 11.07a.61.61 0 00.3.92l1.38.51q.69.26-.37.69c-1.51.63-2.82 8.44-3.24 10.27-1.04 4.5-3.48 7.88-5.57 11.91a.81.78-51.8 00.09.88q.25.3.7.39c-3.21 6.15-4.64 10.65-10.02 15.35a.41.41 0 01-.65-.48c1.22-2.63 4.23-5.14 4.78-7.59q.12-.52-.26-.16c-6.03 5.61-12.3 12.93-20.48 17.94-3.92 2.4-6.78 5.76-12.09 6.77q-.49.09-.22-.32c3.45-5.22 8.53-8.43 13.08-12.27q2.52-2.13 6.49-6.32c3.76-3.97 7.89-6.91 10.46-12.37 2.59-5.48 3.91-12.13 6.31-18.03a1.26 1.25 2 01.77-.71l1.17-.39a1.4 1.37 5 00.77-.63l2.05-3.55a.63.62-53.3 00-.11-.77q-1.68-1.57-.89-4.14 1.9-6.15 2.82-8.65a.42.42 0 00-.34-.56c-2.43-.33-5.67 13.99-9.5 13.96a.45.45 0 00-.45.43q-.15 3.08-1.47 5.9a.61.61 0 01-.76.31c-1.9-.7-.03-5.95.33-7.47q.67-2.83.53-5.58c-.15-2.68-.33-13.51-2.03-15.13-.17-.75-.53-3.79-1.4-3.8a.52.51-88.9 00-.52.51q-.05 11.72-1.16 20.23-.84 6.47-4.47 13.19l-6.89 8.3a.47.47 0 01-.77-.53q2.64-4.69 2.68-9.58c.03-4.43 2.43-9.29 3.24-13.79.37-2.07-.2-4.29.52-6.62a.59.59 0 00-.33-.72q-.32-.14-.86.02.42-8.11-1.07-16.09a.69.69 0 00-1.17-.35c-1.92 1.95-.62 8.2-.67 10.99-.09 4.52-1.36 10.07-1.86 15.18a.4.39 87.8 00.46.43q1.62-.27 2.52-1.62c.14 2.6-3.1 7.08-3.44 8.98-1.64 9.42-5.95 14.07-10.1 21.37q-.91 1.59-2.53 1.91a.42.42 0 01-.43-.64c3.6-5.67 8.56-11.2 8.59-18.41q.02-4.77-.73-9.48a.58.57 79.7 00-.69-.48l-.82.17a.73.73 0 00-.59.74c.37 11.99-10.94 14.82-12.82 25.79a.33.33 0 01-.42.26l-.28-.09a.04.03 15.7 01-.03-.04q.19-1.09-.48-1.61a.43.43 0 00-.66.16c-2.36 5.12 2.23 7.26 1.91 12.09q-.26 3.92-1.08 7.9a.73.73 0 01-1.4.08c-1.33-4.04-.22-9-1.24-13.05a.58.57 40.9 00-1.13.08q-1.32 12.95-.52 24.73.06.88-.27 1.55-.25.51-.44-.03c-.31-.88-.71-2.13-.65-3.08q.68-10.02-5.3-18.03-3.06-4.91-3.37-10.92a.91.89-77.2 00-.45-.73c-2.59-1.5-5.14-2.53-6.59-5.37-1.06-2.09-2.94-7.17-5.21-7.95a.68.68 0 00-.83.95q4.38 8.57 10.53 15.86.89 1.06.77 4.44a1.59 1.54 30.5 00.25.91c3.38 5.35 5.09 13.53 6.48 19.71a.26.25 88.1 00.2.19l.27.04q.06 6.08.73 12.13c.2 1.84-.54 3.12-1.83 4.22q-.39.32-.42-.18c-.17-2.52-1.5-4.05-2.02-6.33-1.29-5.61-4.26-6.86-7.2-11.07q-1.09-1.57-2.04-2.8-.46-4.78-4.76-6.82a1.09 1.06-85.3 01-.57-.69c-2.6-9.44-8.04-14.07-15.48-19.78a.75.74-71 00-1.2.59q-.01 1.99 1.8 3.46c8.21 6.62 11.72 14.49 17.24 23.05a1.02 1-52.5 01.11.88c-.73 2.14 4.4 12.87 5.64 15.26q-.97 1.21-.25 2.75l-.3.03a.35.35 0 00-.32.36q.03 3.68.26 7.35c.15 2.57-.66 4.64-1.14 7.11a.59.58-75.2 00.39.68q.74.25 1.07-.49c-.75 4.48-2.53 13.65-5.83 16.87q-.37.37-.36-.15c.05-3.81 1.48-7.35.87-11.01-1.54-9.11-.93-16.05-6.32-22.79q-2.84-3.55-5.59-5.64c-1.57-1.13-5.75-6.84-6.88-6.71a.94.93 71.7 00-.7 1.4c2.66 4.56 7.64 9.46 9.15 14.17 1.36 4.27 1.74 8.96 4.29 13.31a.44.44 0 00.63.14q.17-.12.24-.34c.17 3.5.37 22.15-3.34 20.8a1.13 1.12-1.1 01-.67-.64c-2.12-5.3.4-10-2.83-15.15-3.19-5.08-2.12-11.07-10.1-11.77a.23.23 0 00-.18.4c3.85 3.65 7.61 9.08 6.69 14.66a.27.27 0 01-.47.14l-8.22-9.32a.77.77 0 00-1.3.75q1.82 5.52 6.25 9.97c3.76 3.78 3.59 11.6 2.74 16.44q-.1.59-.24.01c-1.35-5.65.71-9.68-6.24-12.47a.15.15 0 00-.2.19l4.38 10.01a.75.75 0 01-.32.96l-2.01 1.1a.63.63 0 01-.87-.29q-3.39-7.28-11.52-7.96a.37.37 0 00-.21.69q4.39 2.36 7.54 6.19.49.6-.28.62l-3.81.13c-1.22-1.53-1.76-2.46-3.63-3.54q-1.61-.93-2.63-2.56-.28-.45-.74-.7-5.61-3.02-11.85-4.32-.84-.18-.19.39c3.5 3.07 6.31 2.45 8.85 7.06a.5.5 0 01-.56.73q-4.59-1.16-9.45-.73a.85.85 0 00-.25 1.63c2.21.9 11.04 4.04 10.65 6.22a.69.69 0 01-.58.56q-1.73.24-2.58 1.73a.44.44 0 00.31.66c4.19.66 8 1.12 11.86 3.1 11.61 5.98 23.85 9.82 35.46 16.03 10.03 5.38 21.67 7.35 30.5 15.17q3.6 3.19 5.5 7.9-6.92 1.56-13.26 5.27a1.79 1.77 30.2 01-.93.24q-4.86-.13-18.97-.8-4.96-.23-9.79 2.07a1.48 1.44-88.3 00-.68.66q-1.57 2.97-5.8 1.82-15.08-4.13-26.21-8.37c-4.38-1.67-9.64-.81-13.45-1.56-15.86-3.13-31.88-1.35-45.41-13.29q-.8-.71-3.86-1.88-.48-.19-.85-.55-.89-.86-2.08-.92a.91.91 0 00-.8.42l-.51.82a.23.22 48.7 01-.4-.03q-3.62-7.94-3.36-16.21c.18-5.61 3.26-12.04 4.52-17.94 1.44-6.75 3.99-10.31 8.28-15.44q9.84-11.74 20.47-22.86a.38.38 0 00-.38-.63q-5.41 1.49-9.11 5.72-.1.11-.2.21a.92.92 0 01-1.32-1.27l5.37-6.05q.36-.4-.18-.31-2.45.44-4.27 2.08-8.32 7.51-16.14 15.54c-1.78 1.83-2.64 4.79-4.59 6.5a.7.7 0 01-1.09-.84q3.24-6.43 6.12-12.24c1.93-3.89 4.28-6.83 6.89-10.16q.33-.41.8-.65 1.15-.57 1.7-1.72.26-.56-.26-.24-.52.32-.87.81a1.59 1.55-82.2 01-.73.57q-4.55 1.75-7.58 5.67c-.85 1.1-3.5 4.56-4.97 4.28a.63.63 0 01-.51-.62l-.01-2.1q0-1.07-.51-.12l-7.01 12.89a1.86 1.85-1.4 01-.67.7c-1.63.96-2.97 8.32-3.38 10.27q-.1.49-.13-.01c-.21-3.37-.01-6.16-.3-9.94-.31-3.95 2.13-7.99 4.52-11.67a1.05 1.05 0 00.13-.86l-.3-1.08a.95.93-32.3 01.2-.86l2.63-2.97a.63.63 0 00-.02-.85l-.2-.21a.44.44 0 00-.64.02c-.82.91-2.29 3.35-3.73 2.29a.61.61 0 01-.2-.71l2.42-6.03a1.38 1.37 43.6 00-.03-1.11q-.96-2.05.67-3.43a2.07 2.07 0 00.73-1.68q-.09-1.88-1.03-1.9a.9.89-75.1 00-.8.47l-4.78 8.75q-.64 1.18-.87-.14l-.26-1.48a.46.46 0 00-.57-.36l-2.11.57a.41.41 0 01-.47-.6c.55-.98 4.57-8.21 4.26-8.73a.31.31 0 00-.52-.02q-1.06 1.5-2.77 2.13-.51.18-.87.59c-3.71 4.35-5.36 9.13-7.59 14.57a.73.73 0 01-1.41-.35q.65-6.22 5.5-12.13c.31-.38.57-1.51.54-1.98q-.04-.53-.36-.1-2.9 3.83-5.73 7.68c-2.75 3.75-2.98 9.74-5.89 13.55a1.74 1.69-24.5 00-.36.92l-.44 4.9a.65.65 0 01-.75.58l-2.13-.35a.6.6 0 00-.68.44c-.7 2.78-3.44 13.1-5.2 14.76a.64.64 0 01-1.07-.57q1.13-7.25 2.16-13.81c1.17-7.43 6.83-15.64 10.96-21.84 5.69-8.54 8.95-13.79 15.28-19.26a1.04 1.02-58.7 01.91-.23l.96.23a.88.87 27.8 00.83-.25c5.14-5.37 9.13-11.49 14.36-16.87q.36-.37-.14-.21-1.57.51-2.98 1.51c-9.96 7-16.65 11.59-22.01 22.61a.81.8-78.2 01-.69.46l-.52.03a.43.42-83.7 01-.43-.55q1.5-5.1 4.7-10.25.2-.31.05-.53a.37.36 46.6 00-.6-.02c-3.8 5.28-7.83 8.48-9.87 14.85l-.05-.78a.54.53-5.6 00-.6-.49c-.43.05-3.18 6.18-3.77 7.14a.46.46 0 00.23.67q.24.09.65 0-4.19 6.79-5.27 14.63-.15 1.04-1 1.42-.62.28-.49-.39.24-1.27-.59-2.22a1.07 1.05-66.5 01-.27-.71v-3.33a.37.36-43.2 00-.73-.02c-.44 6.01-3.41 9.94-5.04 14.84q-.95 2.88-1.87 5.76-.15.48-.15-.03c.03-5.94.38-13.64 3.07-19.02 1.17-2.33 3.49-5.61 2.68-8.3q-.14-.46-.33-.03l-2.31 5.23a.77.76 58 01-1.46-.34c.22-7.15 4.23-14.56 5.73-21.95q.1-.5-.18-.08c-2.48 3.69-4.87 6.71-6.32 11.06q-1.57 4.72-3.51 9.26-.21.48-.17-.04c1.03-12.82 9.48-23.12 14.06-35.74q.18-.49-.3-.28c-2.63 1.12-5.32 6.56-7.1 8.97-3.94 5.36-6.09 12.17-9.19 18.1q-.24.45-.22-.06c.22-5.31 3.67-11.94 5.43-17.07q1.36-3.97-1.37-2.78l-.22-.41a.53.53 0 00-.87-.09q-5.01 5.95-5.93 13.62a.37.36-70.9 00.16.34l.26.16c-.47.71-4.22 6.26-4.98 5.58a.36.36 0 01-.06-.49q1.29-1.85 2.22-3.89.53-1.17-.37-.26-1.85 1.87-2.19 4.43a1.4 1.36 70.8 01-.34.73c-2.91 3.27-5.26 10.18-6.96 14.33-2.07 5.06-3.08 11.06-4.95 16.58q-.34 1.01-.41-.05l-.48-7.35a2 1.98 26.2 00-.36-1.04q-1.48-2.15-.36-4.7.43-.99-.4-.3-2.52 2.1-2.63 5.72c-.06 1.63-1.03 2.9-1.05 4.61q-.08 8.39-1.39 16.68c-.4 2.5.08 4.99-.02 7.57a1.66 1.65-57.5 00.18.83q1.34 2.55-.25 4.89a.48.48 0 01-.88-.26q-.08-10.03.56-19.99c.25-3.87 1.39-7.15-.22-11.39q-.11-.3-.17.01l-1.93 10.18a.52.52 0 01-1.03-.12q.27-6.57-.28-13.17-.18-2.13.61-4.07 4.29-10.44 7.29-21.33.13-.47-.07-.02c-2.68 6.23-8.2 14.98-10.11 23.2-3.5 15.14-4.47 26.5-2.66 39.49q.36 2.58 0 4.34-.11.53-.23 0-5.1-22.78.04-45.5.11-.49-.13-.05c-5.05 9.37-4.65 18.02-4.22 28.97a.4.4 0 01-.47.41l-2.96-.5a.51.5 8.3 01-.42-.56l.42-3.54a.24.23 84.1 00-.31-.26l-1.17.42a.86.85 81.6 00-.57.78c-.13 4.31-1.21 8.57-.91 12.72q1.08 15.13 2.77 30.21.07.65-.34.15-.42-.49-.32-1.13a1.76 1.68 39.5 00-.11-.94q-3.35-8.02-3.33-16.79l-1.08-3.46a1.11 1.09 4.8 00-.57-.66l-.61-.3-1.5-11.25c-1.33-16.65-.35-32.3 3.7-48.86 2.9-11.88 5.36-23.67 9.51-35.22 1.6-4.44 4.23-8.55 6.5-12.85 4.3-8.17 9.87-15.6 14.54-23.57 2.09-2.68 7.04-7.34 7.82-10.39q.22-.84-.5-.35l-2.05 1.37q-1.25.83-.34-.36.91-1.19 2.24-1.85.48-.25.83-.66c11.21-13.25 21.31-24.08 35.96-32.47 9.3-5.33 17.95-12.67 28.1-16.1 12.93-4.36 22.56-8.18 34.65-8.9q-.2.46-.65.76-.57.39.12.31l8.27-.94q.77-.08.21-.61-.27-.25-.7-.27 6.76-1.73 13.75-2.08.39-.02 1.57-.51.51-.21.2.24c-.67.99-8.74 3.64-10.68 4.37a.77.77 0 00.28 1.49c13.6-.3 23.43-9.15 34.89-14.27q2.95-1.32 6.74-1.13 5.49-.24 10.96-.61c6.23-.42 11.99 1.12 18.08 2.28a.66.66 0 01.37 1.08q-.26.3-1.17.16-5.25-.83-10.11.01a.43.42-46.5 00.02.84c10.65 1.2 21.43 5.9 30.93 10.68 7.78 3.91 15.54 9.77 23.26 14.84q14.55 9.53 31.73 5.89zM437.46 169c-.81 1.57-4.12 10.48-2.55 11.54a.31.31 0 00.47-.2q1.59-8.32 6.54-16.49.92-1.53-.38-2.35l2.04-6.31a.51.5 72.4 00-.88-.46q-4.64 6.18-6.07 13.76a.44.44 0 00.43.52l.4-.01zm11.76-7.56c-1.11.1-2.41 2.3-2.39 3.2q.02.45.29.1l2.3-2.93q.34-.43-.2-.37zm-188.11 75.58q-.34 1.84.84.38l2.04-2.52q1.07-1.33-.52-.73-1.97.75-2.36 2.87z"/><path fill="#fff" d="M308.25 100.54q.43.02.7.27.56.53-.21.61l-8.27.94q-.69.08-.12-.31.45-.3.65-.76l7.25-.75zM491.71 142.75c6.25-8.36-.75-13.61-7.27-17.64a1.57 1.51-30.2 00-.9-.22l-10.55.62c6.42-3.78 14.26-2.52 19.79 2.1 5.78 4.83 7 11.2.89 16.75a.97.97 0 01-1.57-.41l-.39-1.2zM421.04 167q-.08 4.45-1.79 8.54-.9 1.35-2.52 1.62a.4.39 87.8 01-.46-.43c.5-5.11 1.77-10.66 1.86-15.18.05-2.79-1.25-9.04.67-10.99a.69.69 0 011.17.35q1.49 7.98 1.07 16.09zM441.54 161.5l-4.08 7.5-.4.01a.44.44 0 01-.43-.52q1.43-7.58 6.07-13.76a.51.5 72.4 01.88.46l-2.04 6.31zM431 159.79q.57 12.97-3.75 26.46-.95 2.97-3.8 3.67 3.63-6.72 4.47-13.19 1.11-8.51 1.16-20.23a.52.51-88.9 01.52-.51c.87.01 1.23 3.05 1.4 3.8zM450.47 181.59q-3.1 8.21-6.1 16.4c-.85 2.33-2.28 4.26-3.66 6.26q-.45-.09-.7-.39a.81.78-51.8 01-.09-.88c2.09-4.03 4.53-7.41 5.57-11.91.42-1.83 1.73-9.64 3.24-10.27q1.06-.43.37-.69l-1.38-.51a.61.61 0 01-.3-.92q3.61-5.25 5.52-11.07c.95-2.9 1.85-4.8 3.81-6.69a.36.36 0 01.6.33c-.91 4.36-1.28 9.92-3.74 13.53q-2.18 3.2-3.14 6.81zM493.54 210q1.49-2.65.61-5.54a1.08 1.06 53.1 01.12-.88c2.9-4.49-2.34-26.5-4.83-31.59-2.16-4.43-6.98-5.92-10.28-8.46q-2.01-1.55-7.24-1.33 3.92-1.97 8.01-.32a1.55 1.52 83.9 01.73.6c2.83 4.48 9.23 3.93 12.44 9.26q1.84 3.07 2.24 5.25 2.95 16.33 6.57 32.52a.35.35 0 01-.38.43q-4.02-.47-7.99.06z"/><path fill="#21201e" d="M446.83 164.64c-.02-.9 1.28-3.1 2.39-3.2q.54-.06.2.37l-2.3 2.93q-.27.35-.29-.1zM441.54 161.5q1.3.82.38 2.35-4.95 8.17-6.54 16.49a.31.31 0 01-.47.2c-1.57-1.06 1.74-9.97 2.55-11.54l4.08-7.5z"/><path d="M194.29 171c-4.67 7.97-10.24 15.4-14.54 23.57-2.27 4.3-4.9 8.41-6.5 12.85-4.15 11.55-6.61 23.34-9.51 35.22-4.05 16.56-5.03 32.21-3.7 48.86q.55 3.5-1.93 3.85a.97.97 0 01-1.09-1.14q.5-2.81-.73-2.96-.7-18.06 1.64-35.9c1.14-8.72 3.65-18.77 5.57-28.1 2.72-13.23 9.12-26.43 16.34-39.2 3.56-6.3 8.6-12.03 12.7-18.05q1.32-.42 1.75 1z"/><path fill="#fff" d="M462.04 207.5q-1.51 5.25-5.72 8.53-.21-2.44 1.02-4.57a1.35 1.35 0 00.17-.88q-.22-1.32.42-2.45.41-.74-.4-.46-2.24.77-4.42 3.95a.21.21 0 01-.37-.21q3.46-7.33 4.57-15.39a.39.39 0 00-.72-.25l-2.78 4.69q-.99 1.66-.33-.15 2.51-6.92 2.56-14.24c.02-3.6.84-7.03 2.09-9.92a.31.31 0 01.58.19q-.77 3.31.23 6.39.98 3.01 1.2 6.22.04.6.12 0l1.36-10.53a.48.47 41.2 01.93-.06q1.64 6.13-.56 12.18-.59 1.62.93 3.13.34.35.45-.13l1.68-7.98q.38-1.77.5.04.77 11.39-3.51 21.9zM383.7 216.41c-.02 6.46 3.23 10.4 2.05 17.13l-.27-.04a.26.25 88.1 01-.2-.19c-1.39-6.18-3.1-14.36-6.48-19.71a1.59 1.54 30.5 01-.25-.91q.12-3.38-.77-4.44-6.15-7.29-10.53-15.86a.68.68 0 01.83-.95c2.27.78 4.15 5.86 5.21 7.95 1.45 2.84 4 3.87 6.59 5.37a.91.89-77.2 01.45.73q.31 6.01 3.37 10.92z"/><path fill="#919496" d="M422.69 196.69q.95-1.79 2.86-2.7.48-.23.37.29c-1.58 7.88-6.46 13.83-10.37 20.29q-1.73 2.85-4.95 3.24a.64.64 0 00-.55.48l-1.1 4.02a1.28 1.27-7.2 01-.59.76q-6.84 4.05-10.92 10.84-.59.99-.36-.14.75-3.7 2.59-6.92c2.17-3.78 2.5-7.1 2.9-11.16a1.33 1.29-19 01.42-.83c7.19-6.45 14.81-8.91 19.7-18.17zM400.36 201.4c.57-2.53 3.24-5 5.36-6.41q.77-.51.22.23l-4.87 6.5a.4.4 0 01-.71-.32z"/><path fill="#fff" d="M372.97 229.51l-.98-.01q-.52-.01-.25.43 2.73 4.47 5.35 8.99c1.76 3.02 1.52 5.85 2.09 9.14q.1.59-.35.19l-3.08-2.79c-1.24-2.39-6.37-13.12-5.64-15.26a1.02 1-52.5 00-.11-.88c-5.52-8.56-9.03-16.43-17.24-23.05q-1.81-1.47-1.8-3.46a.75.74-71 011.2-.59c7.44 5.71 12.88 10.34 15.48 19.78a1.09 1.06-85.3 00.57.69q4.3 2.04 4.76 6.82zM463.29 221.25l-2.58 5.75q-.45-.06-.82-.29a.81.8 25.1 01-.33-.89l1.75-6.35a1.39 1.35-8.8 01.62-.82q1.29-.77 1.6-2.09c.67-2.9 2.21-5.12 4.3-7.18q.36-.37.17.11c-.96 2.44-4.92 9.73-4.71 11.76zM216.35 218.42c-3.27 4.49-4.26 8.87-6.6 13.62l-.26-.16a.37.36-70.9 01-.16-.34q.92-7.67 5.93-13.62a.53.53 0 01.87.09l.22.41zM236.79 235l-3.54 6.54q-.41.09-.65 0a.46.46 0 01-.23-.67c.59-.96 3.34-7.09 3.77-7.14a.54.53-5.6 01.6.49l.05.78zM358.23 240.53c2.24 3.47 4.75 6.44 5.18 10.73q.55 5.64 1.55 11.24-.07.22-.24.34a.44.44 0 01-.63-.14c-2.55-4.35-2.93-9.04-4.29-13.31-1.51-4.71-6.49-9.61-9.15-14.17a.94.93 71.7 01.7-1.4c1.13-.13 5.31 5.58 6.88 6.71z"/><path fill="#21201e" d="M261.11 237.02q.39-2.12 2.36-2.87 1.59-.6.52.73l-2.04 2.52q-1.18 1.46-.84-.38z"/><path fill="#919496" d="M391.45 245.91q-.41-2.75-.76-5.32a.61.6 21.6 011.07-.46q1.73 2.11 1.05 4.39c-.81 2.69-.57 2.79.21 5.18q.55 1.67-.85 2.61a.35.35 0 01-.54-.24c-.35-2.12.12-4.21-.18-6.16z"/><path fill="#fff" d="M375.5 248.21c1.94 3.07.79 11.55-.04 15.04q-.33.74-1.07.49a.59.58-75.2 01-.39-.68c.48-2.47 1.29-4.54 1.14-7.11q-.23-3.67-.26-7.35a.35.35 0 01.32-.36l.3-.03zM339.75 287.96l-1.73 3.58a.44.44 0 00.25.6q13.1 4.45 25.43 10.71 3.81 1.93 7.93 3.1c7 1.98 13.57 4.69 20.64 6.42 6.89 1.68 13.24 7.43 17.93 12.54q.35.39-.17.36c-1.24-.07-3.2-1.57-4.06-1.22a.41.41 0 00-.16.63q4.3 5.4 6.07 12.13a.51.5 76 01-.37.62q-.47.11-1.09-.14-1.9-4.71-5.5-7.9c-8.83-7.82-20.47-9.79-30.5-15.17-11.61-6.21-23.85-10.05-35.46-16.03-3.86-1.98-7.67-2.44-11.86-3.1a.44.44 0 01-.31-.66q.85-1.49 2.58-1.73a.69.69 0 00.58-.56c.39-2.18-8.44-5.32-10.65-6.22a.85.85 0 01.25-1.63q4.86-.43 9.45.73a.5.5 0 00.56-.73c-2.54-4.61-5.35-3.99-8.85-7.06q-.65-.57.19-.39 6.24 1.3 11.85 4.32.46.25.74.7 1.02 1.63 2.63 2.56c1.87 1.08 2.41 2.01 3.63 3.54zM161.54 302.75l.61.3a1.11 1.09 4.8 01.57.66l1.08 3.46q-1.29 1.42-.63 2.87a1.57 1.56 36.9 01.12.81l-.56 4.47a.18.18 0 01-.28.12c-.15-.11-.82-11.48-.91-12.69z"/><path d="M179.53 380.66q.39 1.82-.04 3.79-.11.5-.34.04c-3.36-7.01-7.47-14.08-9.99-20.94q-7.05-19.18-9.66-39.51.57-.51 1.06-.25a.91.91 0 01.48.75c.36 6.1 2.13 12.31 3.11 17.89 1.13 6.44 3.81 12.33 5.48 17.79q3.36 11.03 9.9 20.44z"/><circle fill="#919496" cx="417.3" cy="336.36" r="1.15"/><path fill="#fff" d="M359.29 374.75q.15.71-.28 1.02a.49.48 59.8 01-.73-.2l-.19-.43q-.44-.99-.99-.05l-3.79 6.5q-.3.52-.52-.04c-1.05-2.56-4.86-15.08-6.18-15.96q-4.16-2.79-5.77-6.87c-2.64-6.68-4.91-9.91-12.13-12.71q-4.93-1.91-7.94-2.21-2.61-.27-.21-.48l2.6-.24q.56-.05.22-.5-.12-.17-.4-.25-10.23-2.69-16.03-3.82c7.2-1.81 16.86-2.58 23.47 1.25q6.92 4.02 14.2 7.27c3.48 1.56 5.54 4.86 9.21 6.71a1.6 1.55 89.5 01.67.68c2.07 4.03 5.36 7.44 4.96 12.26a.21.2-58.3 01-.38.09l-2.18-3.67a.71.71 0 00-1.29.59l3.68 11.06z"/><path fill="#919496" d="M306.95 338.51q5.8 1.13 16.03 3.82.28.08.4.25.34.45-.22.5l-2.6.24q-2.4.21.21.48 3.01.3 7.94 2.21c7.22 2.8 9.49 6.03 12.13 12.71q1.61 4.08 5.77 6.87c1.32.88 5.13 13.4 6.18 15.96q.22.56.52.04l3.79-6.5q.55-.94.99.05l.19.43a.49.48 59.8 00.73.2q.43-.31.28-1.02 1.55 7.68.21 15.19c-1.66 9.38-10.59 21.56-17.95 27.56-1.34 1.09-1.97 2.51-3.25 3.46q-4.61 3.4-9.84 5.88a.23.23 0 01-.26-.38c4.84-4.52 17-16.3 17.46-22.87q.04-.68-.27-.08-3.72 7.13-9.66 12.56a.46.46 0 01-.76-.41l1.25-7.62q.11-.66-.46-.32l-1.33.79q-1.03.6-.61-.51c.68-1.78 2.81-8.07 1.4-9.8a1.49 1.45-67 01-.32-.83l-.1-1.34a.58.58 0 00-.85-.47l-1.14.59a.42.41-26 01-.57-.19c-.01-.01.08-.57.09-.57q3.38-3.58 3.29-8.47-.01-.52-.29-.09-2.01 3.05-3.58 6.29c-3.63 7.49-13.36 14.84-12.76 22.55.28 3.52-.71 5.48-2.44 8.22q-.26.42-.3.91-.17 1.96-1.36 3.47-.53.67-.65-.17c-.63-4.41-1.32-10.11.19-14.33 1.76-4.96 2.81-8.9 4.71-13.1 1.66-3.69 6.11-4.43 7.45-7.71a1.67 1.62-6.2 01.61-.74q3.87-2.57 5.02-7.11c.23-.91 2.48-3.51 1.73-4.04a.49.49 0 00-.67.1l-3.1 3.9a1.44 1.4-78.9 01-.71.49q-6.53 2.01-8 8.77a.39.39 0 01-.77-.16l1-5.44q.18-.98-.42-.19l-3.76 4.92a1.76 1.73-79.1 01-.9.62l-3.33.96q-.5.14-.29-.34c.49-1.14 5.15-9.53 4.68-9.8a.45.44-53.3 00-.54.08l-1.15 1.15a1.38 1.36 20.8 01-.93.41q-3.42.11-7.51 3.01c-7.39 5.23-6.57 13-7.55 20.72a1.85 1.8 37.5 00.14.95c2.74 6.48 3.29 12.47 9.65 15.83a.53.53 0 01-.19.99q-5.08.52-7.77-4.06c-1.98-3.37-.9-9.88-3.92-13.39a1.66 1.62-67.3 01-.39-.98l-.48-7.07q-.08-1.13-.52-.09-1.07 2.51-1.6 5.12c-.97 4.76-3.15 8.48-3.44 13.45-.28 4.71 1.76 9.77 3.21 14.48q.15.48-.11.06c-5.19-8.39-5.22-12.88-4.06-23.09.49-4.27-.89-7.56.76-12.21q.1-.28.02-.54-.19-.6-.47-.04c-1.62 3.21-4.41 5.82-5.37 9.04q-1.76 5.91-1.56 12.35a.53.53 0 01-1.02.21l-2.17-5.37a.63.63 0 00-.67-.38l-1.78.27a.58.58 0 01-.66-.54q-.28-4.39 1.22-8.49a1.02 1.02 0 00-1.52-1.21c-2.43 1.61-3.15 5.94-5.31 6.77a.39.39 0 01-.53-.32q-1.47-12.43 7.54-20.54a.25.25 0 00-.13-.43l-.35-.05a1.01.98-59 00-.78.21q-5.53 4.39-9.64 10.12a.5.49 26.2 01-.57.19l-.29-.09a.14.13-73.2 01-.08-.16c1.19-4.22 3.19-6.73 5.37-10.41a.36.36 0 00-.57-.43l-10.12 10.25q-2.84 2.88-2.97-1.16c-.21-6.59 1.3-16.42 7.48-20.15a.35.35 0 00-.31-.63c-3.27 1.24-5.67 3.52-8.69 4.78q-.93.39-1.86.77a1.37 1.36 2.5 00-.69.63l-4.62 9.25q-.36.72-.66-.02c-2.24-5.6-1.56-10.69 2.48-15.1q1.56-1.71 2.74-3.67.44-.72-.28-.29-6.05 3.55-10.94 8.5-.36.37-.46-.15l-.45-2.42a1.75 1.7 50.7 01.08-.93q3.95-10.62 11.87-17.25 4.56-3.82 6.65-6.14.8-.89-.19-.21l-8.21 5.68a.75.75 0 01-1.14-.85c1.02-3.13 3.93-4.63 6.12-6.37 13.4-10.63 33.12-14.96 49.16-16.43z"/><path fill="#fff" d="M420.75 349.46c-8.67 1.28-7.89-7.99.36-7.04a.82.81 86.8 01.69.63q.68 2.98-.31 5.79a.96.95-84.6 01-.74.62zM409.84 346.4c-1.72-.18-3.28-.25-4.98-.38q-.49-.04-.06-.27l5.32-2.86q.62-.33.56.37l-.23 2.64a.55.54 5.1 01-.61.5z"/><rect fill="#fafde0" x="-10.35" y="-.53" transform="rotate(-.6 33594.19 -38137.533)" width="20.7" height="1.06" rx=".26"/><path fill="#fff" d="M365.29 364.19c1.65-.02 2.31-1.63 4.28-1.11a.54.54 0 01.38.67l-6.56 22.84a.26.25-33.5 01-.5-.1c.66-4.93 1.73-10.08.8-15.06-.45-2.34-1.91-7.11-1.32-9.25a1.45 1.42 78.2 01.45-.7q4.34-3.67 6.78-8.88a1.2 1.2 0 011.88-.4c1.66 1.46-5.26 10.14-6.44 11.42a.34.34 0 00.25.57zM361.81 359.31q0 .29-.27.42a.56.56 0 01-.81-.44l-.41-4.71a.76.76 0 01.49-.78l3.54-1.32q.63-.24.49.42-.76 3.61-3.03 6.41zM364.25 426.46c6.06-23.97 13.52-44.74 19.14-65.54q.33-1.25 2.8-4.03a.84.83 56 00.16-.84q-.28-.79-.1-1.51.63-.38 1.21-.26a.52.51-77.7 01.4.63q-4.01 16.58-9.06 32.85c-4.04 13.04-7.4 25.55-11.39 38.24a.69.69 0 01-.66.49l-2.5-.03z"/><path fill="#919496" d="M386.25 354.54q-.18.72.1 1.51a.84.83 56 01-.16.84q-2.47 2.78-2.8 4.03c-5.62 20.8-13.08 41.57-19.14 65.54l-7.02.26a.46.46 0 01-.48-.5c.05-.67.71-1.47.88-2.08q5.35-18.77 11.19-37.4c2.08-6.65 4.35-16.86 7.58-25.03 1.8-4.55 5.27-6.54 9.85-7.17zM235.57 373.79c-.12-6.11 5.19-13.36 10.53-15.36q.55-.2.33.33-3.53 8.77-10.37 15.23-.47.45-.49-.2zM305.88 407.99c.14-2.4 1.15-10.53 4.26-11.26a.35.34 89.6 01.41.41c-.33 1.47-3.23 10.57-4.2 11.14q-.5.29-.47-.29zM333.1 397.23q1.26-.17 1.41.87a.66.65-17 01-.38.7c-1.73.8-3.44 6.24-4.88 8.24a.28.28 0 01-.49-.27l3.37-8.76a1.21 1.21 0 01.97-.78z"/><path d="M249.75 435.46c-5.41 2.09-14.15 11.99-6.42 16.63a.54.53-61.6 01.2.7c-3.36 6.61-8.88 9.53-16.3 9.03-5.85-.4-11.33-.17-14.8-5.35-8.3-12.38-6.4-24.55-2.97-38.23q.95-3.79-.75-9.66c-.8-2.78-2.94-4.11-5-5.94q3.93.69 5.83 3.62c2.03 3.12 1.53 12.08.51 15.83-3.31 12.13-3.5 23.46 3.96 33.9 1.72 2.4 3.49 3.54 6.6 3.86 8.61.9 16.01 2.3 20.76-6.62a.69.68 37.5 00-.11-.79c-5.96-6.32 1.3-15.37 7.25-17.9q1.13-.48 1.24.92z"/><path fill="#919496" d="M308.05 423.4c-1.41-1.66-3.38-6.89-1.43-8.64a.37.36 67.1 01.61.25l.31 4.64q.04.49.25.93.57 1.25.75 2.6.12.93-.49.22z"/><ellipse fill="#919496" transform="rotate(-3.2 7842.533 -9871.494)" rx="1.04" ry=".66"/><path fill="#919496" d="M355.89 429.47c1.91-.04 10.9-.43 11.81.87a.48.48 0 01-.36.75c-3.98.26-9.09-.11-12.7 1.44q-.7.3-.41-.4l.86-2.12a.89.88 10.6 01.8-.54z"/><ellipse fill="#919496" transform="rotate(99.7 -13.334 375.337)" rx="1.06" ry=".65"/><rect fill="#fff" x="-4.19" y="-1.17" transform="rotate(9.3 -2602.354 2474.05)" width="8.38" height="2.34" rx=".87"/><path fill="#fff" d="M376.04 458.25l-.54-1.71 1.36-.43q.49-.16.35.34-.28 1.03-1.17 1.8z"/><path fill="#919496" d="M355.55 575.27q5.17 1.76 10.73 2.04.71.04.85.57a.52.51-16 01-.35.62q-7.48 2.35-14.78 2.4c-13.35.08-26.05-.1-39.9.78q-12.8.81-18.36.38-22.02-1.71-44.11-2.21c-1.82-.04-3.81-1.16-5.36-1.15q-3.81.03-7.05-1.77-.44-.25-.94-.24c-7.14.02-13.9-1.34-21.06-1.28-6.17.06-12.71-.94-18.22-1.25q-10.48-.59-20.81-2.48a.73.72-89.5 01-.59-.61c-.2-1.41.61-2.32 2.03-2.53 5.2-.76 10.32-2.4 15.22-3.02 23.54-2.99 47.31-2.67 70.96-4.75q6.56-.57 26.02.38c17.77.88 34.95.87 52.42 1.09q4.73.06 17.14 2.52c5.6 1.1 13.11 3.87 20.04 4.61a.49.49 0 01.14.94q-11.38 4.92-23.84 4.05a.47.47 0 00-.18.91z"/><path fill="#21201e" d="M0 590.44l15.94.56H0v-.56zM22.94 591h-6.75q3.37-.63 6.75 0zM31.94 591h-5.75q2.87-.63 5.75 0zM48.94 591H32.19q8.37-.63 16.75 0zM121.94 591H49.19q36.37-.63 72.75 0zM133.94 591h-11.75q5.87-.63 11.75 0zM143.94 591h-5.75q2.87-.63 5.75 0zM165.94 591h-19.75q9.87-.63 19.75 0zM231.44 591h-63.25q31.62-.63 63.25 0zM260.94 591h-8.25q4.12-.63 8.25 0zM374.75 590.79l-.06.21h-38.75l38.81-.21z"/><path fill="#21201e" d="M374.75 590.79l23.19.21h-23.25l.06-.21zM487.94 591h-71.75q35.87-.63 71.75 0zM517.94 591h-27.75q13.87-.63 27.75 0zM558.94 591h-36.75q18.37-.63 36.75 0zM566.94 591h-4.75q2.37-.63 4.75 0zM589.94 591h-9.25q4.62-.63 9.25 0z"/></svg>