<svg xmlns="http://www.w3.org/2000/svg" viewBox="0 0 591 591"><g stroke-width="2" fill="none"><path stroke="#7d7f70" vector-effect="non-scaling-stroke" d="M585.49 5.53a.27.27 0 00-.27-.27H5.52a.27.27 0 00-.27.27v579.7a.27.27 0 00.27.27h579.7a.27.27 0 00.27-.27V5.53"/><path stroke="#5b5b5c" vector-effect="non-scaling-stroke" d="M589.44 590.56q.44.35 1.1.08a.2.2 0 00-.08-.39H.5a.21.08 2.1 00-.19.06l-.08.24a.11.11 0 00.1.14q294.55.25 589.11-.13"/><path stroke="#f9f0c6" vector-effect="non-scaling-stroke" d="M36.05 79.81q22.68-23.2 45.31-46.45 5.44-5.6 10.9-12.21a1.29 1.29 0 00-1-2.11q-19.81.14-40.07.66c-16.51.41-21.95 8.71-22.35 24.3q-.51 20.24.74 40.51a.53.53 0 00.78.43c2.5-1.35 3.92-3.33 5.69-5.13"/><path stroke="#7d7f70" vector-effect="non-scaling-stroke" d="M208.25 443.54l5.73-3.26a1.07 1.05 80.1 00.52-.76c.47-2.98 0-6.58 0-8.67q-.05-50.04.07-100.04"/><path stroke="#8d8e7e" vector-effect="non-scaling-stroke" d="M214.57 330.81q16.48-11.99 35.18-18.99a.74.74 0 011 .59c.83 5.72 1.94 11.52 2.26 17.18q1.89 33.2 1.42 66.47c-.04 3.1 1.32 4.07 4.08 4.7q9.94 2.29 16.49 2.99a1.63 1.62 33.4 00.94-.19c2.47-1.37 11.65-5.9 11.58-8.81-.2-7.96-1.03-17.76-1.3-22.96q-2.16-42.03-3.99-84.13a.68.68 0 01.45-.67c5.35-1.93 14.75-4.58 20.33-3.09a.82.81 1.9 01.59.62q1.19 5.8 1.43 11.73c2.32 58.03 1.49 116.25 1.64 174.31q.05 15.94-.15 31.88c-.05 4.62-7.08 4.21-9.84 7.48-3.39 4.03-3.3 9.41-4.42 15.59a1.69 1.69 0 00.1.95c.69 1.72 2.34 8.48 3.88 9.07q15.03 5.79 30.47 10.39c2.96.89 6.83.72 9.22-.75q9.42-5.79 18.64-11.91 1.61-1.08 1.62-3.07.25-69.22-.24-138.44-.01-1.35.31-5.56a.64.63 87.7 01.53-.58c3.51-.61 10.34-5.04 8.1-9.45q-.23-.44-.22-.94c.36-34.63 1.26-69.28 1.07-103.92a.85.84-15.6 01.43-.75c1.44-.85 2.97-2.02 4.38-2.69q59.15-27.92 120.96-49.63a.37.37 0 01.5.33c1.77 36.61 1.65 71.15 2.49 106.69.19 8.24-.45 18.01-.49 27.34-.07 13.87-.12 29.39-3.17 42.95a.61.61 0 01-.61.48c-12.27-.13-17.2 7.33-18.76 18.2-.65 4.5-1.02 12.31 2.35 15.22 8.08 6.99 23.08 5.17 32.89 3.35 5.96-1.11 11.91-6.3 16.96-9.62 4.68-3.08 7.83-6.23 7.81-11.67q-.06-28.16.65-56.31c.74-29.24.92-58.51 1.3-87.75q.47-36.39-.79-72.75c-.19-5.59.04-13.48-6.63-14.43q-7.3-1.05-27.52-1.23-26.34-.24-52.71-.04a.47.47 0 01-.47-.51q1.28-15.48 1.07-31.04a1.51 1.5-65.8 00-.36-.95l-1.45-1.71a1.42 1.38-64.8 01-.33-.96c.14-5.08 2.93-14.84-4.44-16.04a.51.5-87.3 01-.43-.48l-.24-4.95a1.2 1.19-75.3 00-.55-.95c-4.45-2.76-10.37-3.89-14.42-.23a1.41 1.4 72.9 00-.44.84q-.75 5.02-.26 9.99"/><path stroke="#c8cbbd" vector-effect="non-scaling-stroke" d="M423.46 132l-.46.04"/><path stroke="#8d8e7e" vector-effect="non-scaling-stroke" d="M423 132.04q-2.83-3.59-4.56-7.85c-1.09-2.68-.11-5.14-2.54-7.77a1.34 1.28-69.4 01-.35-.82l-.2-4.3a.61.61 0 00-.81-.55l-1.01.35a.8.79-11.3 00-.53.79q.22 4.24-1.21 8.26a1.87 1.82-42.4 00-.06 1.03q.49 2.01-.48 3.86a.46.46 0 01-.86-.16c-.59-5.39-.45-8.13-6.71-8.89q-5.06-.62-9.08 2.66a1.18 1.14 73.3 00-.42.81c-.7 8.71 1.22 15.71 1.1 23.86a1.34 1.31-22.4 01-.39.91l-2.74 2.75a1.3 1.26 68.7 00-.37.88c-.26 10.78 1.46 22.4 1.58 31a.51.5 88.9 01-.49.52q-19.79.55-39.58.89c-7.28.12-14.33.87-20.79 2.24-19.94 4.22-40.01 8.06-59.84 12.74-23.88 5.63-48.13 9.91-72.25 14.52a.49.49 0 01-.58-.48q-.05-9.2 1.21-18.26c1.15-8.29 4.69-19.42 5.94-29.52 1.32-10.66-3.45-22.66-14.23-26.01-5.89-1.82-25.57 1.37-29.74 6.25-2.96 3.44-7.77 8.41-12.54 8.82q-11.32.97-22.75 1.26a.99.98-20.3 01-.81-.37q-7.28-9.11-18.32-5.81c-4.83 1.44-9.02 1-13.49 1.95-3.3.7-5.87.87-8.83 1.39-5.22.91-8.25 11.79-8.54 15.02-.76 8.43 2.28 20.01 3.39 26.85q4.41 26.98 5.43 35.63 2.56 21.6 5.89 76.26 1.09 17.95 1.68 48.5c.32 16.28-.81 33.12-1.13 49.66-.07 3.33-.95 7.06.36 11a1.32 1.31 2.2 00.73.78l14.32 5.91a1.35 1.32-45.6 001.04-.02l13.1-5.89a1.27 1.25-2.5 00.67-.72q.75-2.14.75-4.47c-.01-26.51.95-53.05 1.27-79.58a.95.95 0 01.85-.93q1.55-.17 1.6 1.33 1.02 33.55 1.13 67.12c.06 19.17 1.15 38.45.89 57.75a.76.76 0 01-.47.69q-3.37 1.39-4.42 1.95c-6.67 3.57-5.88 14.37.88 17.48 4.57 2.11 9.42 3.02 14.03 5.8a1.43 1.4 56.4 00.9.19q4.04-.49 7.65 1.33a.99.97-43 00.86.02l21.14-9.39a1.47 1.42.8 00.7-.66c2.31-4.37 4.23-6.84 4.06-12.1q-.24-7.46-1.03-19.64c-.32-4.98-.19-10.97-.61-16.47q-.69-8.85-.81-12.32c-.3-9.23-1.46-18.77-.99-27.97a.53.53 0 01.65-.49l5.11 1.18a.76.75-82.9 01.58.75q-.35 18.08-1.61 36.11c-.41 6.02-.35 12.28-.59 18.45q-.09 2.23 2.04 2.89l22.68 7.02a1.07 1.07 0 00.87-.11l6.93-4.36"/><path stroke="#5b5c5c" vector-effect="non-scaling-stroke" d="M423 132.04q-.18.63-.67 1.09a.4.4 0 00-.01.57l.26.25a.57.56 41.7 00.82-.04q.67-.81.06-1.91"/><path stroke="#100f0f" vector-effect="non-scaling-stroke" d="M214.57 330.81q-.63-.5-1.56-.19a.66.65 80 00-.46.67q.36 8.35.36 16.71.01 45.47-.03 90.99a1.41 1.4-2 01-1.31 1.4q-3.17.22-3.32 3.15"/><path stroke="#5b5c5c" vector-effect="non-scaling-stroke" d="M403.35 119.425a1.75.48-1.8 00-1.765-.425 1.75.48-1.8 00-1.734.535 1.75.48-1.8 001.764.425 1.75.48-1.8 001.734-.535M400.15 149.42q2.62 1.85 5.82 2.29a.5.49-82 00.56-.43q.57-4.08.14-8.13c-.76-7.1-.8-12.86-1.55-19.29a.62.62 0 00-.6-.54l-2.52-.03"/><path stroke="#8f8f8e" vector-effect="non-scaling-stroke" d="M402 123.29l-2.01.24a1.24 1.24 0 00-1.1 1.3l1.26 24.59"/><path stroke="#cbcccd" vector-effect="non-scaling-stroke" d="M402 123.29c.42 2.13.25 4.3.65 6.34q1.05 5.37.83 10.87-.02.49.2.93c1.67 3.38 1.71 8.3-3.53 7.99"/><path stroke="#8f8f8e" vector-effect="non-scaling-stroke" d="M414.25 126.46c-4.24 5.62-2.77 14.84-2.71 21.54"/><path stroke="#5b5c5c" vector-effect="non-scaling-stroke" d="M411.54 148q-.49 1.57.15 3.09a.92.92 0 00.74.55l4.71.58a.51.5-84.1 00.57-.47q.53-6.13-.32-12.35"/><path stroke="#8f8f8e" vector-effect="non-scaling-stroke" d="M417.39 139.4q.96-3.66-.14-7.44"/><path stroke="#5b5c5c" vector-effect="non-scaling-stroke" d="M417.25 131.96q.69-3.61-1.81-5.92a.67.67 0 00-.84-.06q-.23.16-.35.48"/><path stroke="#cbcccd" vector-effect="non-scaling-stroke" d="M417.25 131.96q-1.85-1.89-1.78-4.51c.03-.94-.24-1.27-1.22-.99M417.39 139.4l-2.81 9.39a.87.86-83.7 01-.77.62l-1.29.1a.62.6 78.6 01-.63-.43l-.35-1.08"/><path stroke="#8f8f8e" vector-effect="non-scaling-stroke" d="M428.39 126.69l-.7 5.09a.48.48 0 00.53.55l.67-.07a.63.62-6.4 00.56-.69c-.34-3.32 2.51-3.49 4.64-4.32q1-.39-.06-.55l-4.7-.71a.83.83 0 00-.94.7"/><path stroke="#6b6a6a" vector-effect="non-scaling-stroke" d="M440.45 131.586a3.27 1.3.8 00-3.252-1.346 3.27 1.3.8 00-3.288 1.254 3.27 1.3.8 003.252 1.346 3.27 1.3.8 003.288-1.254"/><path stroke="#5b5c5c" vector-effect="non-scaling-stroke" d="M436 139.46l2.25-.42"/><path stroke="#6b6a6a" vector-effect="non-scaling-stroke" d="M438.25 139.04q1.39-1.5 1.44-3.52a.5.5 0 00-.53-.52l-.91.04"/><path stroke="#5b5c5c" vector-effect="non-scaling-stroke" d="M438.25 135.04h-1.5"/><path stroke="#8f8f8e" vector-effect="non-scaling-stroke" d="M436.75 135.04q-1.09-.46-2.21-.28a1.84 1.84 0 00-1.52 2.05q.38 2.88 2.98 2.65"/><path stroke="#cbcccd" vector-effect="non-scaling-stroke" d="M436.75 135.04q.44 2.4-.75 4.42"/><path stroke="#a6a8a9" vector-effect="non-scaling-stroke" d="M438.25 135.04q-1.2 2.02 0 4"/><path stroke="#5b5c5c" vector-effect="non-scaling-stroke" d="M427.81 151.73a6.41.61 90 00.61-6.41 6.41.61 90 00-.61-6.41 6.41.61 90 00-.61 6.41 6.41.61 90 00.61 6.41"/><path stroke="#6b6a6a" vector-effect="non-scaling-stroke" d="M163.71 147.78a.51.5-62.5 00.29.93q6.52-.23 9.5-5.79a.72.72 0 00-1.03-.94l-8.76 5.8"/><path stroke="#5b5c5c" vector-effect="non-scaling-stroke" d="M435 150.71q1.8.28 3-.92"/><path stroke="#6b6a6a" vector-effect="non-scaling-stroke" d="M438 149.79q1.81-3.51.37-7.15"/><path stroke="#5b5c5c" vector-effect="non-scaling-stroke" d="M438.37 142.64q-2.05.26-4.37-.49"/><path stroke="#8f8f8e" vector-effect="non-scaling-stroke" d="M434 142.15q-1.41 4.29-1 8.49a.48.47 80.6 00.58.42l1.42-.35"/><path stroke="#cbcccd" vector-effect="non-scaling-stroke" d="M434 142.15q3.19 4.02 1 8.56"/><path stroke="#a6a8a9" vector-effect="non-scaling-stroke" d="M438.37 142.64q-1.54 2.06-.83 3.92a1.6 1.58 40.5 01.08.92q-.25 1.26.38 2.31"/><path stroke="#5b5c5c" vector-effect="non-scaling-stroke" d="M185.21 153q-3.68 6.43-1.09 12.88c1.65 4.1 5.7 6.33 9.57 3.33q7.07-5.49 3.86-14"/><path stroke="#6b6a6a" vector-effect="non-scaling-stroke" d="M197.55 155.21c-1.2-7.35-8.57-7.64-12.34-2.21"/><path stroke="#a6a8a9" vector-effect="non-scaling-stroke" d="M197.55 155.21q-4.42-7.44-10.9-1.81-.87.75-1.44-.4"/><path stroke="#8f8f8e" vector-effect="non-scaling-stroke" d="M416.25 158.54q-9.57.21-18.8-2.44a.48.48 0 00-.6.36q-.41 1.83-.2 5.36 1.05 17.61 2.59 35.13a1.69 1.66 11.7 00.89 1.33q7.18 3.82 15.37 3.26"/><path stroke="#5b5c5c" vector-effect="non-scaling-stroke" d="M415.5 201.54q7.55.67 15-.75"/><path stroke="#6b6a6a" vector-effect="non-scaling-stroke" d="M430.5 200.79c2.01-.28 8.7-1.99 8.78-4.53q.35-11.77 1.1-23.5"/><path stroke="#5b5c5c" vector-effect="non-scaling-stroke" d="M440.38 172.76l.87-16.04a.79.78 82 00-1.04-.79c-7.4 2.56-14.39 2.5-23.96 2.61"/><path stroke="#a6a8a9" vector-effect="non-scaling-stroke" d="M440.38 172.76q-.36-.25-.67-.22a.53.52 84.3 00-.48.59q.41 3.48-.48 6.96a1.87 1.8 43.9 00.04 1.06q.57 1.75-.63 3.2a1.04 1.04 0 00-.14 1.09q.92 1.99.14 4.11a1.58 1.55-42.7 00-.05.99q.87 3.35-.9 6.5a1.61 1.58 3.5 01-.83.72l-6.73 2.55q-.39.15-.06.41.35.26.91.07"/><path stroke="#cbcccd" vector-effect="non-scaling-stroke" d="M415.5 201.54l.71-.06q.65-.05.17-.49l-.26-.24a.36.34-69.5 01-.12-.29q.31-19.23.55-38.46.02-1.73.85-2.67a.32.31-61.8 00-.15-.51l-1-.28"/><path stroke="#6b6a6a" vector-effect="non-scaling-stroke" d="M84.29 171.25q-.03 3.64.7 8.5 2.48 16.54 4.52 28.94c4.02 24.39 6.08 49.13 7.28 73.81"/><path stroke="#5b5c5c" vector-effect="non-scaling-stroke" d="M96.79 282.5q-.17 5.33 1.13 10.42"/><path stroke="#6b6a6a" vector-effect="non-scaling-stroke" d="M97.92 292.92l.87 23.58"/><path stroke="#5b5c5c" vector-effect="non-scaling-stroke" d="M98.79 316.5l.5 69.25"/><path stroke="#6b6a6a" vector-effect="non-scaling-stroke" d="M99.29 385.75q-.34 9.51-1.07 19c-.26 3.27 4.76 4.24 7.13 5.25a.51.5-78 00.7-.46l.41-33.54"/><path stroke="#5b5c5c" vector-effect="non-scaling-stroke" d="M106.46 376q.81-10.66.27-21.2"/><path stroke="#6b6a6a" vector-effect="non-scaling-stroke" d="M106.73 354.8q1.06-13.04.4-26.1"/><path stroke="#5b5c5c" vector-effect="non-scaling-stroke" d="M107.13 328.7l1.31-4.99a1.08 1.06-6.3 01.57-.7c6.58-3.25 11.42-2.48 17.97-2.85a.52.51-1.2 00.49-.5l.12-6.98a.71.7-11.9 00-1-.65q-1.09.51-2.34.01"/><path stroke="#6b6a6a" vector-effect="non-scaling-stroke" d="M124.25 312.04l-8.12.28"/><path stroke="#5b5c5c" vector-effect="non-scaling-stroke" d="M116.13 312.32l-7.09-.02a.76.76 0 01-.76-.82q.42-5.69-.49-11.23"/><path stroke="#6b6a6a" vector-effect="non-scaling-stroke" d="M107.79 300.25l-3.58-46.5"/><path stroke="#5b5c5c" vector-effect="non-scaling-stroke" d="M104.21 253.75l-2.46-19.79"/><path stroke="#6b6a6a" vector-effect="non-scaling-stroke" d="M101.75 233.96l-3.04-22.21"/><path stroke="#5b5c5c" vector-effect="non-scaling-stroke" d="M98.71 211.75q-2.75-17.19-7.54-33.93-2.6-9.08.05-17.93.12-.43.39-.78l1-1.34a.54.53-63.2 00-.27-.83c-8.31-2.58-8.61 9.5-8.05 14.31"/><path stroke="#a6a8a9" vector-effect="non-scaling-stroke" d="M98.71 211.75l-.72.3a.51.51 0 00-.31.57q1.98 9.4 2.83 20.07.09 1.21 1.24 1.27M104.21 253.75q-.38-.4-.84-.25a.53.53 0 00-.34.67q.46 1.44.51 4.57.13 8.3 2.11 23.4c.67 5.18.09 10.06.69 15.08.15 1.3-.41 2.75.16 4.16a.52.52 0 00.7.28q.8-.36.59-1.41M116.13 312.32q3.68 1.18 7.6.72a.67.66 89 00.57-.6q.01-.18-.05-.4M107.13 328.7q-2.18 13.04-.4 26.1M106.46 376q-.12-.1-.24-.17a.67.66-76.4 00-.96.59l-.49 29.49a.83.82-85.4 01-.94.8q-3.78-.55-3.68-4c.15-4.62-.91-11.89.94-16.08a.54.53-64.5 00-.24-.69q-.71-.37-1.56-.19M98.79 316.5q.4.3.77.15a.79.77-11.3 00.49-.72q.14-11.63-2.13-23.01M96.79 282.5q.3.36.26.85a.15.14 1.8 00.15.15h.28a.49.49 0 00.48-.5q-.21-12.14-1.37-24.22c-.17-1.76.49-3.57.25-5.45q-.6-4.53-.93-9.09c-.16-2.06-2.24-20.69-2.8-21.23a1 .99 21.1 01-.29-.65q-.37-11.02-2.1-20.1c-.66-3.44-2.22-6.48-2.6-10.21-.42-4.1-1.54-8.2-1.77-12.1-.1-1.69.41-9.29-2.06-8.7"/><path stroke="#5b5c5c" vector-effect="non-scaling-stroke" d="M113.06 161.44c-7.17-4.88-9.87 7.4-9.11 11.88.88 5.23 2.99 14.52 10.52 10.32 4.43-2.46 4.29-7.4 4.21-12.16q-.11-6.3-5.62-10.04M442.79 201.66q-4.84 3.17-10.54 4.55"/><path stroke="#8f8f8e" vector-effect="non-scaling-stroke" d="M432.25 206.21c-8.74.45-28.4 2.47-35.39-4.06q-1.3-1.21-1.71-3.72-.91-5.69-1.3-11.57a.56.55-.5 00-.54-.52q-10.29-.3-20.58.23c-13.75.7-26.91.14-40.63 3q-82.75 17.24-165.6 33.95-10.05 2.03-20.06 4.58-.48.12.01.21c13.15 2.47 27.02 1.63 40.38 2.63 10.55.78 20.29 1.11 33.58 2.44 19.27 1.91 41.18 1.34 58.15.72 20.63-.75 34.34-1.73 50.86 4.75 7.41 2.92 7.82 7.86 10 14.78q.15.47.44.07c2.88-4.07 5.54-8.53 9.15-11.7 5.57-4.89 15.56-8.03 20.67-9.6 36.12-11.09 72.38-20.74 108.32-33.94"/><path stroke="#5b5c5c" vector-effect="non-scaling-stroke" d="M478 198.46l12.25-4.92"/><path stroke="#8f8f8e" vector-effect="non-scaling-stroke" d="M490.25 193.54q9.69-3.23 19.5-6.05c1.21-.35 2.71-.18 4.05-.65q.5-.17-.03-.21c-22.59-1.88-45.26-1.43-67.99-1.36a.55.54 1.7 00-.54.5c-.46 4.95.34 11.67-2.45 15.89"/><path stroke="#cbcccd" vector-effect="non-scaling-stroke" d="M490.25 193.54l-43.6-.31a.63.62-83.6 00-.61.49c-.37 1.66-.05 9.56-3.25 7.94M432.25 206.21c12.23.62 19.95.91 29.28-2.86 5.75-2.32 10.67-3.94 16.04-5.87a.52.52 0 01.67.33q.13.39-.24.65"/><path stroke="#5b5c5c" vector-effect="non-scaling-stroke" d="M507.62 201.16l.46.98q.33.71.59-.02.47-1.32-.5-1.6-.99-.29-.55.64"/><path stroke="#8f8f8e" vector-effect="non-scaling-stroke" d="M179.183 213.36a1.3 1.02 114.9 001.472-.75 1.3 1.02 114.9 00-.378-1.61 1.3 1.02 114.9 00-1.472.75 1.3 1.02 114.9 00.378 1.61M132 224.82q5.69-3.17 9.49-4.1 10.72-2.6 29.92-5.51c1.37-.21 2.02-.91 1.55-2.31a.63.63 0 00-.68-.42c-5.98.74-12.46 2.4-17.73 3.27q-15.75 2.6-31.26 6.42a.55.55 0 00-.41.62q1.93 11.52 2.15 23.21c.28 14.68.84 29.04.4 43.99q-.03 1.2 1.01 1.25a.61.61 0 00.63-.48q.45-2.1.44-4.26-.11-21.28.08-42.56.09-9.62 3.77-18.41a1.48 1.43 87.9 01.64-.71"/><path stroke="#6b6a6a" vector-effect="non-scaling-stroke" d="M498.96 226.5l2.42 54.02"/><path stroke="#5b5c5c" vector-effect="non-scaling-stroke" d="M501.38 280.52q-1.21 8.4.7 16.74"/><path stroke="#6b6a6a" vector-effect="non-scaling-stroke" d="M502.08 297.26q-.86 10.31-.34 26.49.6 18.61-1.39 51.57-.79 12.94-4.36 25.49a1.31 1.28 82.6 01-.56.74c-3.97 2.47-7.51 1.12-10.9 1.99-8.38 2.17-9.59 13.62-7.97 20.61a1.41 1.4 14.5 00.44.74q1.32 1.16 2.58-.06a1.27 1.26-19.8 00.38-.8l.79-8.74"/><path stroke="#5b5c5c" vector-effect="non-scaling-stroke" d="M480.75 415.29q.28-.85 1.03-1.29.46-.28.45.26c-.02 2.56-.84 10.3 1.05 11.95 1.19 1.04 3.17 1.03 4.71 1.24a.73.72-71.9 00.74-.38q1.38-2.58 1.05-5.39-.06-.47.1-.92l2.01-5.7a.27.27 0 01.52.1q-.16 6 1.96 11.66a.87.87 0 00.77.56l6.02.3a.82.81-76.4 00.79-.49q.64-1.48.56-3.46c-.3-7.99-1.65-16.36 6.39-21.48a.96.96 0 00.44-.77l.37-10.48"/><path stroke="#6b6a6a" vector-effect="non-scaling-stroke" d="M509.71 391l1.04-37.21"/><path stroke="#5b5c5c" vector-effect="non-scaling-stroke" d="M510.75 353.79q1.88-33.34 1.56-78.6-.16-23.69-1.81-39.48"/><path stroke="#6b6a6a" vector-effect="non-scaling-stroke" d="M510.5 235.71q.13-7.52-1.56-14.98"/><path stroke="#5b5c5c" vector-effect="non-scaling-stroke" d="M508.94 220.73q.39-3.39-.62-6.88a.59.59 0 00-.72-.4l-8.3 2.3a.76.75 81.5 00-.54.74l.2 10.01"/><path stroke="#a6a8a9" vector-effect="non-scaling-stroke" d="M508.94 220.73q-.21 8.66.53 14.52.1.76 1.03.46M510.75 353.79q-.23-.53-.4-.54a.75.69-88.2 00-.74.75q.03 18.66-1.22 37.28a.49.49 0 00.46.52q.7.03.86-.8M480.75 415.29q-1.3-.55-1.8-.35-1.55.61-1.19-1.01 2.08-9.49 10.09-9.33c3.91.07 11.01-.93 10.41-6.39q-.05-.5.14-.96c.75-1.78 1.47-3.39 1.68-5.36.67-5.98 1.77-12.09 1.44-18.13q-.23-4.44.02-6.51.9-7.46 1.08-22.18.35-30.2-.54-47.81M501.38 280.52q.99-17.23.41-24.27c-.15-1.78-.8-3.95-.75-6.04q.29-12.78-.42-25.57a.63.63 0 00-.57-.59c-1.26-.12-1.12 1.67-1.09 2.45"/><path stroke="#6b6a6a" vector-effect="non-scaling-stroke" d="M138.25 229.29c-3.45-.44-3.88 10.94-3.97 13.2-.79 21.02-.52 42.01-.05 63.02.52 23.63.29 51.21.81 67.24q1.35 41.36.92 82.84a1.41 1.39-12.8 01-.79 1.24c-3.2 1.54-12.4 5.12-7.18 10.19q.94.92 2.16.31a.67.66 72 00.36-.72q-.55-3.17 2.24-4.4"/><path stroke="#5b5c5c" vector-effect="non-scaling-stroke" d="M132.75 462.21l1.07.01q.52 0 .25.45-1.64 2.69-.34 5.52a1.58 1.56 2 00.69.73l2.88 1.55a.33.32-75.9 00.48-.29q-.02-5.24 4.58-7.62"/><path stroke="#6b6a6a" vector-effect="non-scaling-stroke" d="M142.36 462.56c.05 2.95-2.96 9.08 1.89 9.4"/><path stroke="#5b5c5c" vector-effect="non-scaling-stroke" d="M144.25 471.96q1.99 1.22 4.09.73a.6.6 0 00.47-.63l-.35-5.31"/><path stroke="#6b6a6a" vector-effect="non-scaling-stroke" d="M148.46 466.75c1.49-3.55 5.69-10.23 5.49-13.84-2-36.46-3.8-72.71-4.24-111.16"/><path stroke="#5b5c5c" vector-effect="non-scaling-stroke" d="M149.71 341.75c-.25-24.4-1.42-49.14-.68-73.5q.15-4.91 4.72-5.54"/><path stroke="#6b6a6a" vector-effect="non-scaling-stroke" d="M153.75 262.71l26.08 1.93"/><path stroke="#5b5c5c" vector-effect="non-scaling-stroke" d="M179.83 264.64q6.38 3.25 11.37 8.15c.89.88 3.39 1.45 4.62 1.57 11.97 1.1 24.8 3.41 35.7 4.46q13.67 1.31 27.34 2.61 8.13.77 12.81.21c9.38-1.13 18.04-4.35 28.42-4.49 6.1-.09 10.35 1.98 10.91 8.36q.98 11.34 1.3 27.49c.32 16.51 1.16 33.2 1.19 49.5q.09 54.38.3 108.75"/><path stroke="#6b6a6a" vector-effect="non-scaling-stroke" d="M313.79 471.25q-.07 13.15-.04 26.31c.01 3.84 1.19 7.88-1.85 11q-3.66 3.76-9.21 5.26"/><path stroke="#5b5c5c" vector-effect="non-scaling-stroke" d="M302.69 513.82q-4.25 5.28-3.57 12.03c.26 2.6 2.23 3.95 4.39 4.95q.54.25.45-.34-.91-5.9 2.41-10.83a.37.37 0 01.66.33c-1.9 5.45-.41 15.91 7.86 14.58a.89.89 0 01.85.35l.79 1.06a.3.29-65.5 00.53-.2c-.22-2.79-.85-7.94 1.79-9.38q.47-.26.44.28-.68 12.6 11.75 12.76a1.14 1.13-1.2 001.15-1.19q-.05-1.02-.94-2.39"/><path stroke="#6b6a6a" vector-effect="non-scaling-stroke" d="M331.25 535.83c-.67-4.66-1.17-12.02 2.04-15.83"/><path stroke="#5b5c5c" vector-effect="non-scaling-stroke" d="M333.29 520c3.26-2.82 2.51-7.44 2.4-12.06-.54-22.52-.47-45.1-1.43-67.61-2.19-51.42-1.14-102.49-.11-153.89q.13-6.25 1.7-28.49c.64-9.06-2.74-18.13-12.62-19.71q-11.96-1.9-28.41-.75-30.1 2.12-60.25 1.49-4.64-.1-20.07-1.74c-12.04-1.28-29.56-1.14-44.49-3.81q-15.53-2.77-31.25-4.32a.45.42-53.4 00-.27.05l-.24.13"/><path stroke="#a6a8a9" vector-effect="non-scaling-stroke" d="M333.29 520l.07-.39a.51.5-80.1 00-.4-.58q-.62-.12-.95.49-4.22 7.84-.76 16.31M302.69 513.82q.25 1.14.94 1.37a.92.9-54.7 00.88-.16c1.74-1.46 3.72-1.67 5.32-3.02 2.41-2.04 6.13-5.1 5.53-8.62-.27-1.64.62-2.8.6-4.43q-.13-13.97-.52-27.91a.45.45 0 00-.53-.43q-.78.13-1.12.63M179.83 264.64q-5.82-2.6-12.22-2.39c-4.17.13-7.28-.51-11.11-.99q-2.34-.29-2.75 1.45M149.71 341.75q-.13-.3-.31-.42a.37.37 0 00-.57.27q-.28 2.54-.03 7.84.47 10.07 1.38 45.81c.42 16.6 1.15 31.79 1.59 47.7q.02.5-.18.96c-.73 1.72.24 3.02.46 4.41q1.31 8.56-4.03 15.19-.34.42-.54.91l-.82 2.01a.41.41 0 00.34.56q.8.07 1.46-.24M144.25 471.96l-.32-8.76a.73.72-82.3 00-.51-.68q-.47-.15-1.06.04M132.75 462.21q.6-2.91 2.94-3.76a1.98 1.96 83.7 001.28-1.61q.76-6.23.51-12.41c-.82-20.85-.43-41.59-.89-62.43q-.39-17.97-.91-35.93c-.52-17.46 0-34.97.06-52.44 0-.64-.51-1.33-.42-2.1.88-7.54.07-14.47.35-21.09q.53-12.75.29-22.75c-.15-6.44-.14-12.88 2.29-18.4"/><path stroke="#8f8f8e" vector-effect="non-scaling-stroke" d="M171.174 272.439a.95.95 0 00-.963-.937l-2.58.036a.95.95 0 00-.937.964l.052 3.7a.95.95 0 00.963.936l2.58-.036a.95.95 0 00.937-.963l-.052-3.7"/><path stroke="#5b5c5c" vector-effect="non-scaling-stroke" d="M180.23 272.65q-1.55-1.22-3.03-.08a.8.8 0 00.52 1.43l2.12-.12q1.84-.09.39-1.23"/><path stroke="#6b6a6a" vector-effect="non-scaling-stroke" d="M168.5 282.54q-1.13.52-1.06 2.48.44 13.01.87 26.23a.68.68 0 00.5.63l12.83 3.36"/><path stroke="#5b5c5c" vector-effect="non-scaling-stroke" d="M181.64 315.24q6.46 2.73 12.43 6.47c1.89 1.17 3.06 3.46 4.84 4.98q.38.32.18-.14-1.91-4.36 1.12-7.35c15.64-15.41 36.42-24.51 57.9-30.4q.48-.13-.01-.18c-24.6-2.4-45.25-5.92-64.61-8.12q-4.61-.52-8.1-2.89a.98.98 0 00-.9-.11q-7.88 3.01-15.99 5.04"/><path stroke="#a6a8a9" vector-effect="non-scaling-stroke" d="M181.64 315.24q-5.2-3.65-11.64-4.21a.47.47 0 01-.43-.53q.35-2.86.09-5.71c-.53-5.56.06-10.59-.9-16.03q-.31-1.79.83-5.14a.67.67 0 00-.26-.78q-.34-.23-.83-.3"/><path stroke="#5b5c5c" vector-effect="non-scaling-stroke" d="M114.77 305.46c4.91-.59 8.44.31 12.07-.29a.67.66-4.6 00.56-.65v-5.9a.48.48 0 00-.6-.46c-2.92.76-11.76 3.55-12.44 6.87a.37.36 1.7 00.41.43"/><path stroke="#6b6a6a" vector-effect="non-scaling-stroke" d="M257.46 308.75q-.61-.08-1.16.1a.58.58 0 00-.39.67q3.72 18.04 3.63 36.48"/><path stroke="#5b5c5c" vector-effect="non-scaling-stroke" d="M259.54 346l.82 49.47"/><path stroke="#6b6a6a" vector-effect="non-scaling-stroke" d="M260.36 395.47l8.57 1.65a.44.44 0 00.52-.42q.49-31.22-3.89-62.21"/><path stroke="#5b5c5c" vector-effect="non-scaling-stroke" d="M265.56 334.49c-.3-7.63-1.06-19.15-4.38-26.55a.56.56 0 00-.71-.3l-3.01 1.11"/><path stroke="#a6a8a9" vector-effect="non-scaling-stroke" d="M265.56 334.49q-1.03 6.07.42 12.04c.62 2.56-.33 4.83-.01 6.73 2.14 12.63.94 26.53 1.56 37.94.07 1.27.76 2.45.61 3.84a.58.57-84 01-.63.52q-2.33-.2-4.09-1.8a1.08 1.07 57.9 00-1.03-.24q-1.43.43-2.03 1.95M259.54 346l1.42.1a.41.41 0 00.44-.43c-.46-7.58-1.93-14.55-1.36-22.24q.19-2.46-.47-4.79-1.37-4.86-2.11-9.89"/><path stroke="#6b6a6a" vector-effect="non-scaling-stroke" d="M193.21 438.25q.36.83.61.79a1.26 1.26 0 001.07-1.23c.21-23.73.27-47.18.73-70.66q.23-11.32-.25-24.96-.16-4.49-1.29-7.72"/><path stroke="#5b5c5c" vector-effect="non-scaling-stroke" d="M194.08 334.47q.12-5.3-5.56-8.24-10.42-5.41-19.24-7.11a.4.4 0 00-.47.41l.32 8.2a.78.77-82.7 00.55.72q12.04 3.65 13.54 16.79 1.42 12.54 1.42 22.47c-.01 9.27.24 20.05-.25 27.72q-1.26 19.39-2.41 38.58a1.23 1.22-80.5 00.88 1.24l10.35 3"/><path stroke="#a6a8a9" vector-effect="non-scaling-stroke" d="M194.08 334.47q.03 5.69-.04 11.35c-.08 6.67.85 14.93.46 22.47-1.12 21.89-.02 44.07-.65 66.02-.04 1.4-.6 2.47-.64 3.94"/><path stroke="#5b5c5c" vector-effect="non-scaling-stroke" d="M169.17 335.95l.71 14.48a.29.29 0 00.58-.02c-.04-3.76 1.51-11.62-.2-14.76a.58.58 0 00-1.09.3"/><path stroke="#6b6a6a" vector-effect="non-scaling-stroke" d="M176.43 376.39l1.26.31a.45.44 6.1 00.55-.44q-.3-15.16-1.1-30.31-.01-.23-.11-.38-.12-.19-.27-.31-.51-.39-.51.25l-.31 29.74q0 .4-.19.75l-.17.31q-.18.31.16.19l.28-.1a.81.76 41.7 01.41-.01"/><path stroke="#5b5c5c" vector-effect="non-scaling-stroke" d="M190.677 168.163a2.8 2.36 101.6 002.875-2.269 2.8 2.36 101.6 00-1.749-3.217 2.8 2.36 101.6 00-2.875 2.269 2.8 2.36 101.6 001.749 3.217M114.55 175.48q-1.65-1.16-2.77.53c-.82 1.23-.53 4.6 1.69 5.16a1.11 1.1-54.7 00.91-.16c2.63-1.81 3.27-3.36.17-5.53"/><path stroke="#a6a8a9" vector-effect="non-scaling-stroke" d="M194.04 255c2.71.04 1.96-6.7-3.02-6.44"/><path stroke="#5b5c5c" vector-effect="non-scaling-stroke" d="M191.02 248.56c-1.71-.77-2.73-1.7-4.73-1.77q-8.89-.33-17.79-.92-2.22-.14-4.22 1.09a.65.64-25.3 00-.27.75c2.06 6.54 8.51 8.27 14.24 8.06q4.53-.16 14.44.9 1.33.14 1.35-1.67"/><path stroke="#6b6a6a" vector-effect="non-scaling-stroke" d="M191.02 248.56q3.27 2.42 3.02 6.44"/><path stroke="#5b5c5c" vector-effect="non-scaling-stroke" d="M267.86 262.15q1.3.64 2.4.69 7.82.37 15.62 1.18c6.71.7 9.52-2.52 14.39-6.14 2.18-1.62.69-3.53-1.38-3.91-10.2-1.89-30.5-6.35-31.29 7.74a.48.46-76.7 00.26.44M202.59 265.27c6.52 4.17 10.64 4.31 19.79 5.23q13.65 1.36 27.38 1.89c1.84.07 6.32.52 5.39-2.92a.93.92-7.2 00-.9-.69c-7.23.01-14.45-.73-21.67-.89q-15.1-.33-29.64-3.47a.47.47 0 00-.35.85"/><path stroke="#8f8f8e" vector-effect="non-scaling-stroke" d="M180.13 249.02c-4.11-.01-8.51-.57-12.58-1.11a.35.35 0 00-.33.55c3.31 4.58 7.94 4.05 12.93 4.2a.59.58-89.1 00.6-.59v-2.43a.62.62 0 00-.62-.62M187.57 249.65a.45.44-72.4 00-.67.35l-.23 2.72a.44.44 0 00.38.48l2.96.46a.43.43 0 00.47-.58q-.84-2.21-2.91-3.43M272.98 259.48l11.08.86a.43.43 0 00.46-.46l-.3-3.53a.58.57 88.8 00-.53-.52c-2.77-.19-9.89-.38-11.41 2.35a.87.87 0 00.7 1.3M294.07 256.49l-2.27-.3a.56.55-83.4 00-.62.5l-.36 3.34q-.07.74.48.24l3.09-2.75a.59.59 0 00-.32-1.03"/></g><path d="M0 0h591v591H0V0zm585.49 5.53a.27.27 0 00-.27-.27H5.52a.27.27 0 00-.27.27v579.7a.27.27 0 00.27.27h579.7a.27.27 0 00.27-.27V5.53zm3.95 585.03q.44.35 1.1.08a.2.2 0 00-.08-.39H.5a.21.08 2.1 00-.19.06l-.08.24a.11.11 0 00.1.14q294.55.25 589.11-.13z"/><path fill="#fafddf" d="M585.49 585.23a.27.27 0 01-.27.27H5.52a.27.27 0 01-.27-.27V5.53a.27.27 0 01.27-.27h579.7a.27.27 0 01.27.27v579.7zM36.05 79.81q22.68-23.2 45.31-46.45 5.44-5.6 10.9-12.21a1.29 1.29 0 00-1-2.11q-19.81.14-40.07.66c-16.51.41-21.95 8.71-22.35 24.3q-.51 20.24.74 40.51a.53.53 0 00.78.43c2.5-1.35 3.92-3.33 5.69-5.13zm172.2 363.73l5.73-3.26a1.07 1.05 80.1 00.52-.76c.47-2.98 0-6.58 0-8.67q-.05-50.04.07-100.04 16.48-11.99 35.18-18.99a.74.74 0 011 .59c.83 5.72 1.94 11.52 2.26 17.18q1.89 33.2 1.42 66.47c-.04 3.1 1.32 4.07 4.08 4.7q9.94 2.29 16.49 2.99a1.63 1.62 33.4 00.94-.19c2.47-1.37 11.65-5.9 11.58-8.81-.2-7.96-1.03-17.76-1.3-22.96q-2.16-42.03-3.99-84.13a.68.68 0 01.45-.67c5.35-1.93 14.75-4.58 20.33-3.09a.82.81 1.9 01.59.62q1.19 5.8 1.43 11.73c2.32 58.03 1.49 116.25 1.64 174.31q.05 15.94-.15 31.88c-.05 4.62-7.08 4.21-9.84 7.48-3.39 4.03-3.3 9.41-4.42 15.59a1.69 1.69 0 00.1.95c.69 1.72 2.34 8.48 3.88 9.07q15.03 5.79 30.47 10.39c2.96.89 6.83.72 9.22-.75q9.42-5.79 18.64-11.91 1.61-1.08 1.62-3.07.25-69.22-.24-138.44-.01-1.35.31-5.56a.64.63 87.7 01.53-.58c3.51-.61 10.34-5.04 8.1-9.45q-.23-.44-.22-.94c.36-34.63 1.26-69.28 1.07-103.92a.85.84-15.6 01.43-.75c1.44-.85 2.97-2.02 4.38-2.69q59.15-27.92 120.96-49.63a.37.37 0 01.5.33c1.77 36.61 1.65 71.15 2.49 106.69.19 8.24-.45 18.01-.49 27.34-.07 13.87-.12 29.39-3.17 42.95a.61.61 0 01-.61.48c-12.27-.13-17.2 7.33-18.76 18.2-.65 4.5-1.02 12.31 2.35 15.22 8.08 6.99 23.08 5.17 32.89 3.35 5.96-1.11 11.91-6.3 16.96-9.62 4.68-3.08 7.83-6.23 7.81-11.67q-.06-28.16.65-56.31c.74-29.24.92-58.51 1.3-87.75q.47-36.39-.79-72.75c-.19-5.59.04-13.48-6.63-14.43q-7.3-1.05-27.52-1.23-26.34-.24-52.71-.04a.47.47 0 01-.47-.51q1.28-15.48 1.07-31.04a1.51 1.5-65.8 00-.36-.95l-1.45-1.71a1.42 1.38-64.8 01-.33-.96c.14-5.08 2.93-14.84-4.44-16.04a.51.5-87.3 01-.43-.48l-.24-4.95a1.2 1.19-75.3 00-.55-.95c-4.45-2.76-10.37-3.89-14.42-.23a1.41 1.4 72.9 00-.44.84q-.75 5.02-.26 9.99l-.46.04q-2.83-3.59-4.56-7.85c-1.09-2.68-.11-5.14-2.54-7.77a1.34 1.28-69.4 01-.35-.82l-.2-4.3a.61.61 0 00-.81-.55l-1.01.35a.8.79-11.3 00-.53.79q.22 4.24-1.21 8.26a1.87 1.82-42.4 00-.06 1.03q.49 2.01-.48 3.86a.46.46 0 01-.86-.16c-.59-5.39-.45-8.13-6.71-8.89q-5.06-.62-9.08 2.66a1.18 1.14 73.3 00-.42.81c-.7 8.71 1.22 15.71 1.1 23.86a1.34 1.31-22.4 01-.39.91l-2.74 2.75a1.3 1.26 68.7 00-.37.88c-.26 10.78 1.46 22.4 1.58 31a.51.5 88.9 01-.49.52q-19.79.55-39.58.89c-7.28.12-14.33.87-20.79 2.24-19.94 4.22-40.01 8.06-59.84 12.74-23.88 5.63-48.13 9.91-72.25 14.52a.49.49 0 01-.58-.48q-.05-9.2 1.21-18.26c1.15-8.29 4.69-19.42 5.94-29.52 1.32-10.66-3.45-22.66-14.23-26.01-5.89-1.82-25.57 1.37-29.74 6.25-2.96 3.44-7.77 8.41-12.54 8.82q-11.32.97-22.75 1.26a.99.98-20.3 01-.81-.37q-7.28-9.11-18.32-5.81c-4.83 1.44-9.02 1-13.49 1.95-3.3.7-5.87.87-8.83 1.39-5.22.91-8.25 11.79-8.54 15.02-.76 8.43 2.28 20.01 3.39 26.85q4.41 26.98 5.43 35.63 2.56 21.6 5.89 76.26 1.09 17.95 1.68 48.5c.32 16.28-.81 33.12-1.13 49.66-.07 3.33-.95 7.06.36 11a1.32 1.31 2.2 00.73.78l14.32 5.91a1.35 1.32-45.6 001.04-.02l13.1-5.89a1.27 1.25-2.5 00.67-.72q.75-2.14.75-4.47c-.01-26.51.95-53.05 1.27-79.58a.95.95 0 01.85-.93q1.55-.17 1.6 1.33 1.02 33.55 1.13 67.12c.06 19.17 1.15 38.45.89 57.75a.76.76 0 01-.47.69q-3.37 1.39-4.42 1.95c-6.67 3.57-5.88 14.37.88 17.48 4.57 2.11 9.42 3.02 14.03 5.8a1.43 1.4 56.4 00.9.19q4.04-.49 7.65 1.33a.99.97-43 00.86.02l21.14-9.39a1.47 1.42.8 00.7-.66c2.31-4.37 4.23-6.84 4.06-12.1q-.24-7.46-1.03-19.64c-.32-4.98-.19-10.97-.61-16.47q-.69-8.85-.81-12.32c-.3-9.23-1.46-18.77-.99-27.97a.53.53 0 01.65-.49l5.11 1.18a.76.75-82.9 01.58.75q-.35 18.08-1.61 36.11c-.41 6.02-.35 12.28-.59 18.45q-.09 2.23 2.04 2.89l22.68 7.02a1.07 1.07 0 00.87-.11l6.93-4.36z"/><path fill="#f8e2ac" d="M36.05 79.81c-1.77 1.8-3.19 3.78-5.69 5.13a.53.53 0 01-.78-.43Q28.33 64.24 28.84 44c.4-15.59 5.84-23.89 22.35-24.3q20.26-.52 40.07-.66a1.29 1.29 0 011 2.11q-5.46 6.61-10.9 12.21-22.63 23.25-45.31 46.45z"/><path fill="#1f1e1d" d="M423 132.04q-.18.63-.67 1.09a.4.4 0 00-.01.57l.26.25a.57.56 41.7 00.82-.04q.67-.81.06-1.91-.49-4.97.26-9.99a1.41 1.4 72.9 01.44-.84c4.05-3.66 9.97-2.53 14.42.23a1.2 1.19-75.3 01.55.95l.24 4.95a.51.5-87.3 00.43.48c7.37 1.2 4.58 10.96 4.44 16.04a1.42 1.38-64.8 00.33.96l1.45 1.71a1.51 1.5-65.8 01.36.95q.21 15.56-1.07 31.04a.47.47 0 00.47.51q26.37-.2 52.71.04 20.22.18 27.52 1.23c6.67.95 6.44 8.84 6.63 14.43q1.26 36.36.79 72.75c-.38 29.24-.56 58.51-1.3 87.75q-.71 28.15-.65 56.31c.02 5.44-3.13 8.59-7.81 11.67-5.05 3.32-11 8.51-16.96 9.62-9.81 1.82-24.81 3.64-32.89-3.35-3.37-2.91-3-10.72-2.35-15.22 1.56-10.87 6.49-18.33 18.76-18.2a.61.61 0 00.61-.48c3.05-13.56 3.1-29.08 3.17-42.95.04-9.33.68-19.1.49-27.34-.84-35.54-.72-70.08-2.49-106.69a.37.37 0 00-.5-.33q-61.81 21.71-120.96 49.63c-1.41.67-2.94 1.84-4.38 2.69a.85.84-15.6 00-.43.75c.19 34.64-.71 69.29-1.07 103.92q-.01.5.22.94c2.24 4.41-4.59 8.84-8.1 9.45a.64.63 87.7 00-.53.58q-.32 4.21-.31 5.56.49 69.22.24 138.44-.01 1.99-1.62 3.07-9.22 6.12-18.64 11.91c-2.39 1.47-6.26 1.64-9.22.75q-15.44-4.6-30.47-10.39c-1.54-.59-3.19-7.35-3.88-9.07a1.69 1.69 0 01-.1-.95c1.12-6.18 1.03-11.56 4.42-15.59 2.76-3.27 9.79-2.86 9.84-7.48q.2-15.94.15-31.88c-.15-58.06.68-116.28-1.64-174.31q-.24-5.93-1.43-11.73a.82.81 1.9 00-.59-.62c-5.58-1.49-14.98 1.16-20.33 3.09a.68.68 0 00-.45.67q1.83 42.1 3.99 84.13c.27 5.2 1.1 15 1.3 22.96.07 2.91-9.11 7.44-11.58 8.81a1.63 1.62 33.4 01-.94.19q-6.55-.7-16.49-2.99c-2.76-.63-4.12-1.6-4.08-4.7q.47-33.27-1.42-66.47c-.32-5.66-1.43-11.46-2.26-17.18a.74.74 0 00-1-.59q-18.7 7-35.18 18.99-.63-.5-1.56-.19a.66.65 80 00-.46.67q.36 8.35.36 16.71.01 45.47-.03 90.99a1.41 1.4-2 01-1.31 1.4q-3.17.22-3.32 3.15l-6.93 4.36a1.07 1.07 0 01-.87.11l-22.68-7.02q-2.13-.66-2.04-2.89c.24-6.17.18-12.43.59-18.45q1.26-18.03 1.61-36.11a.76.75-82.9 00-.58-.75l-5.11-1.18a.53.53 0 00-.65.49c-.47 9.2.69 18.74.99 27.97q.12 3.47.81 12.32c.42 5.5.29 11.49.61 16.47q.79 12.18 1.03 19.64c.17 5.26-1.75 7.73-4.06 12.1a1.47 1.42.8 01-.7.66l-21.14 9.39a.99.97-43 01-.86-.02q-3.61-1.82-7.65-1.33a1.43 1.4 56.4 01-.9-.19c-4.61-2.78-9.46-3.69-14.03-5.8-6.76-3.11-7.55-13.91-.88-17.48q1.05-.56 4.42-1.95a.76.76 0 00.47-.69c.26-19.3-.83-38.58-.89-57.75q-.11-33.57-1.13-67.12-.05-1.5-1.6-1.33a.95.95 0 00-.85.93c-.32 26.53-1.28 53.07-1.27 79.58q0 2.33-.75 4.47a1.27 1.25-2.5 01-.67.72l-13.1 5.89a1.35 1.32-45.6 01-1.04.02l-14.32-5.91a1.32 1.31 2.2 01-.73-.78c-1.31-3.94-.43-7.67-.36-11 .32-16.54 1.45-33.38 1.13-49.66q-.59-30.55-1.68-48.5-3.33-54.66-5.89-76.26-1.02-8.65-5.43-35.63c-1.11-6.84-4.15-18.42-3.39-26.85.29-3.23 3.32-14.11 8.54-15.02 2.96-.52 5.53-.69 8.83-1.39 4.47-.95 8.66-.51 13.49-1.95q11.04-3.3 18.32 5.81a.99.98-20.3 00.81.37q11.43-.29 22.75-1.26c4.77-.41 9.58-5.38 12.54-8.82 4.17-4.88 23.85-8.07 29.74-6.25 10.78 3.35 15.55 15.35 14.23 26.01-1.25 10.1-4.79 21.23-5.94 29.52q-1.26 9.06-1.21 18.26a.49.49 0 00.58.48c24.12-4.61 48.37-8.89 72.25-14.52 19.83-4.68 39.9-8.52 59.84-12.74 6.46-1.37 13.51-2.12 20.79-2.24q19.79-.34 39.58-.89a.51.5 88.9 00.49-.52c-.12-8.6-1.84-20.22-1.58-31a1.3 1.26 68.7 01.37-.88l2.74-2.75a1.34 1.31-22.4 00.39-.91c.12-8.15-1.8-15.15-1.1-23.86a1.18 1.14 73.3 01.42-.81q4.02-3.28 9.08-2.66c6.26.76 6.12 3.5 6.71 8.89a.46.46 0 00.86.16q.97-1.85.48-3.86a1.87 1.82-42.4 01.06-1.03q1.43-4.02 1.21-8.26a.8.79-11.3 01.53-.79l1.01-.35a.61.61 0 01.81.55l.2 4.3a1.34 1.28-69.4 00.35.82c2.43 2.63 1.45 5.09 2.54 7.77q1.73 4.26 4.56 7.85zm-19.65-12.615a1.75.48-1.8 00-1.765-.425 1.75.48-1.8 00-1.734.535 1.75.48-1.8 001.764.425 1.75.48-1.8 001.734-.535zm-3.2 29.995q2.62 1.85 5.82 2.29a.5.49-82 00.56-.43q.57-4.08.14-8.13c-.76-7.1-.8-12.86-1.55-19.29a.62.62 0 00-.6-.54l-2.52-.03-2.01.24a1.24 1.24 0 00-1.1 1.3l1.26 24.59zm14.1-22.96c-4.24 5.62-2.77 14.84-2.71 21.54q-.49 1.57.15 3.09a.92.92 0 00.74.55l4.71.58a.51.5-84.1 00.57-.47q.53-6.13-.32-12.35.96-3.66-.14-7.44.69-3.61-1.81-5.92a.67.67 0 00-.84-.06q-.23.16-.35.48zm14.14.23l-.7 5.09a.48.48 0 00.53.55l.67-.07a.63.62-6.4 00.56-.69c-.34-3.32 2.51-3.49 4.64-4.32q1-.39-.06-.55l-4.7-.71a.83.83 0 00-.94.7zm12.06 4.896a3.27 1.3.8 00-3.252-1.346 3.27 1.3.8 00-3.288 1.254 3.27 1.3.8 003.252 1.346 3.27 1.3.8 003.288-1.254zM436 139.46l2.25-.42q1.39-1.5 1.44-3.52a.5.5 0 00-.53-.52l-.91.04h-1.5q-1.09-.46-2.21-.28a1.84 1.84 0 00-1.52 2.05q.38 2.88 2.98 2.65zm-8.19 12.27a6.41.61 90 00.61-6.41 6.41.61 90 00-.61-6.41 6.41.61 90 00-.61 6.41 6.41.61 90 00.61 6.41zm-264.1-3.95a.51.5-62.5 00.29.93q6.52-.23 9.5-5.79a.72.72 0 00-1.03-.94l-8.76 5.8zM435 150.71q1.8.28 3-.92 1.81-3.51.37-7.15-2.05.26-4.37-.49-1.41 4.29-1 8.49a.48.47 80.6 00.58.42l1.42-.35zM185.21 153q-3.68 6.43-1.09 12.88c1.65 4.1 5.7 6.33 9.57 3.33q7.07-5.49 3.86-14c-1.2-7.35-8.57-7.64-12.34-2.21zm231.04 5.54q-9.57.21-18.8-2.44a.48.48 0 00-.6.36q-.41 1.83-.2 5.36 1.05 17.61 2.59 35.13a1.69 1.66 11.7 00.89 1.33q7.18 3.82 15.37 3.26 7.55.67 15-.75c2.01-.28 8.7-1.99 8.78-4.53q.35-11.77 1.1-23.5l.87-16.04a.79.78 82 00-1.04-.79c-7.4 2.56-14.39 2.5-23.96 2.61zM84.29 171.25q-.03 3.64.7 8.5 2.48 16.54 4.52 28.94c4.02 24.39 6.08 49.13 7.28 73.81q-.17 5.33 1.13 10.42l.87 23.58.5 69.25q-.34 9.51-1.07 19c-.26 3.27 4.76 4.24 7.13 5.25a.51.5-78 00.7-.46l.41-33.54q.81-10.66.27-21.2 1.06-13.04.4-26.1l1.31-4.99a1.08 1.06-6.3 01.57-.7c6.58-3.25 11.42-2.48 17.97-2.85a.52.51-1.2 00.49-.5l.12-6.98a.71.7-11.9 00-1-.65q-1.09.51-2.34.01l-8.12.28-7.09-.02a.76.76 0 01-.76-.82q.42-5.69-.49-11.23l-3.58-46.5-2.46-19.79-3.04-22.21q-2.75-17.19-7.54-33.93-2.6-9.08.05-17.93.12-.43.39-.78l1-1.34a.54.53-63.2 00-.27-.83c-8.31-2.58-8.61 9.5-8.05 14.31zm28.77-9.81c-7.17-4.88-9.87 7.4-9.11 11.88.88 5.23 2.99 14.52 10.52 10.32 4.43-2.46 4.29-7.4 4.21-12.16q-.11-6.3-5.62-10.04zm329.73 40.22q-4.84 3.17-10.54 4.55c-8.74.45-28.4 2.47-35.39-4.06q-1.3-1.21-1.71-3.72-.91-5.69-1.3-11.57a.56.55-.5 00-.54-.52q-10.29-.3-20.58.23c-13.75.7-26.91.14-40.63 3q-82.75 17.24-165.6 33.95-10.05 2.03-20.06 4.58-.48.12.01.21c13.15 2.47 27.02 1.63 40.38 2.63 10.55.78 20.29 1.11 33.58 2.44 19.27 1.91 41.18 1.34 58.15.72 20.63-.75 34.34-1.73 50.86 4.75 7.41 2.92 7.82 7.86 10 14.78q.15.47.44.07c2.88-4.07 5.54-8.53 9.15-11.7 5.57-4.89 15.56-8.03 20.67-9.6 36.12-11.09 72.38-20.74 108.32-33.94l12.25-4.92q9.69-3.23 19.5-6.05c1.21-.35 2.71-.18 4.05-.65q.5-.17-.03-.21c-22.59-1.88-45.26-1.43-67.99-1.36a.55.54 1.7 00-.54.5c-.46 4.95.34 11.67-2.45 15.89zm64.83-.5l.46.98q.33.71.59-.02.47-1.32-.5-1.6-.99-.29-.55.64zm-328.437 12.2a1.3 1.02 114.9 001.472-.75 1.3 1.02 114.9 00-.378-1.61 1.3 1.02 114.9 00-1.472.75 1.3 1.02 114.9 00.378 1.61zM132 224.82q5.69-3.17 9.49-4.1 10.72-2.6 29.92-5.51c1.37-.21 2.02-.91 1.55-2.31a.63.63 0 00-.68-.42c-5.98.74-12.46 2.4-17.73 3.27q-15.75 2.6-31.26 6.42a.55.55 0 00-.41.62q1.93 11.52 2.15 23.21c.28 14.68.84 29.04.4 43.99q-.03 1.2 1.01 1.25a.61.61 0 00.63-.48q.45-2.1.44-4.26-.11-21.28.08-42.56.09-9.62 3.77-18.41a1.48 1.43 87.9 01.64-.71zm366.96 1.68l2.42 54.02q-1.21 8.4.7 16.74-.86 10.31-.34 26.49.6 18.61-1.39 51.57-.79 12.94-4.36 25.49a1.31 1.28 82.6 01-.56.74c-3.97 2.47-7.51 1.12-10.9 1.99-8.38 2.17-9.59 13.62-7.97 20.61a1.41 1.4 14.5 00.44.74q1.32 1.16 2.58-.06a1.27 1.26-19.8 00.38-.8l.79-8.74q.28-.85 1.03-1.29.46-.28.45.26c-.02 2.56-.84 10.3 1.05 11.95 1.19 1.04 3.17 1.03 4.71 1.24a.73.72-71.9 00.74-.38q1.38-2.58 1.05-5.39-.06-.47.1-.92l2.01-5.7a.27.27 0 01.52.1q-.16 6 1.96 11.66a.87.87 0 00.77.56l6.02.3a.82.81-76.4 00.79-.49q.64-1.48.56-3.46c-.3-7.99-1.65-16.36 6.39-21.48a.96.96 0 00.44-.77l.37-10.48 1.04-37.21q1.88-33.34 1.56-78.6-.16-23.69-1.81-39.48.13-7.52-1.56-14.98.39-3.39-.62-6.88a.59.59 0 00-.72-.4l-8.3 2.3a.76.75 81.5 00-.54.74l.2 10.01zm-360.71 2.79c-3.45-.44-3.88 10.94-3.97 13.2-.79 21.02-.52 42.01-.05 63.02.52 23.63.29 51.21.81 67.24q1.35 41.36.92 82.84a1.41 1.39-12.8 01-.79 1.24c-3.2 1.54-12.4 5.12-7.18 10.19q.94.92 2.16.31a.67.66 72 00.36-.72q-.55-3.17 2.24-4.4l1.07.01q.52 0 .25.45-1.64 2.69-.34 5.52a1.58 1.56 2 00.69.73l2.88 1.55a.33.32-75.9 00.48-.29q-.02-5.24 4.58-7.62c.05 2.95-2.96 9.08 1.89 9.4q1.99 1.22 4.09.73a.6.6 0 00.47-.63l-.35-5.31c1.49-3.55 5.69-10.23 5.49-13.84-2-36.46-3.8-72.71-4.24-111.16-.25-24.4-1.42-49.14-.68-73.5q.15-4.91 4.72-5.54l26.08 1.93q6.38 3.25 11.37 8.15c.89.88 3.39 1.45 4.62 1.57 11.97 1.1 24.8 3.41 35.7 4.46q13.67 1.31 27.34 2.61 8.13.77 12.81.21c9.38-1.13 18.04-4.35 28.42-4.49 6.1-.09 10.35 1.98 10.91 8.36q.98 11.34 1.3 27.49c.32 16.51 1.16 33.2 1.19 49.5q.09 54.38.3 108.75-.07 13.15-.04 26.31c.01 3.84 1.19 7.88-1.85 11q-3.66 3.76-9.21 5.26-4.25 5.28-3.57 12.03c.26 2.6 2.23 3.95 4.39 4.95q.54.25.45-.34-.91-5.9 2.41-10.83a.37.37 0 01.66.33c-1.9 5.45-.41 15.91 7.86 14.58a.89.89 0 01.85.35l.79 1.06a.3.29-65.5 00.53-.2c-.22-2.79-.85-7.94 1.79-9.38q.47-.26.44.28-.68 12.6 11.75 12.76a1.14 1.13-1.2 001.15-1.19q-.05-1.02-.94-2.39c-.67-4.66-1.17-12.02 2.04-15.83 3.26-2.82 2.51-7.44 2.4-12.06-.54-22.52-.47-45.1-1.43-67.61-2.19-51.42-1.14-102.49-.11-153.89q.13-6.25 1.7-28.49c.64-9.06-2.74-18.13-12.62-19.71q-11.96-1.9-28.41-.75-30.1 2.12-60.25 1.49-4.64-.1-20.07-1.74c-12.04-1.28-29.56-1.14-44.49-3.81q-15.53-2.77-31.25-4.32a.45.42-53.4 00-.27.05l-.24.13zm32.924 43.149a.95.95 0 00-.963-.937l-2.58.036a.95.95 0 00-.937.964l.052 3.7a.95.95 0 00.963.936l2.58-.036a.95.95 0 00.937-.963l-.052-3.7zm9.056.211q-1.55-1.22-3.03-.08a.8.8 0 00.52 1.43l2.12-.12q1.84-.09.39-1.23zm-11.73 9.89q-1.13.52-1.06 2.48.44 13.01.87 26.23a.68.68 0 00.5.63l12.83 3.36q6.46 2.73 12.43 6.47c1.89 1.17 3.06 3.46 4.84 4.98q.38.32.18-.14-1.91-4.36 1.12-7.35c15.64-15.41 36.42-24.51 57.9-30.4q.48-.13-.01-.18c-24.6-2.4-45.25-5.92-64.61-8.12q-4.61-.52-8.1-2.89a.98.98 0 00-.9-.11q-7.88 3.01-15.99 5.04zm-53.73 22.92c4.91-.59 8.44.31 12.07-.29a.67.66-4.6 00.56-.65v-5.9a.48.48 0 00-.6-.46c-2.92.76-11.76 3.55-12.44 6.87a.37.36 1.7 00.41.43zm142.69 3.29q-.61-.08-1.16.1a.58.58 0 00-.39.67q3.72 18.04 3.63 36.48l.82 49.47 8.57 1.65a.44.44 0 00.52-.42q.49-31.22-3.89-62.21c-.3-7.63-1.06-19.15-4.38-26.55a.56.56 0 00-.71-.3l-3.01 1.11zm-64.25 129.5q.36.83.61.79a1.26 1.26 0 001.07-1.23c.21-23.73.27-47.18.73-70.66q.23-11.32-.25-24.96-.16-4.49-1.29-7.72.12-5.3-5.56-8.24-10.42-5.41-19.24-7.11a.4.4 0 00-.47.41l.32 8.2a.78.77-82.7 00.55.72q12.04 3.65 13.54 16.79 1.42 12.54 1.42 22.47c-.01 9.27.24 20.05-.25 27.72q-1.26 19.39-2.41 38.58a1.23 1.22-80.5 00.88 1.24l10.35 3zm-24.04-102.3l.71 14.48a.29.29 0 00.58-.02c-.04-3.76 1.51-11.62-.2-14.76a.58.58 0 00-1.09.3zm7.26 40.44l1.26.31a.45.44 6.1 00.55-.44q-.3-15.16-1.1-30.31-.01-.23-.11-.38-.12-.19-.27-.31-.51-.39-.51.25l-.31 29.74q0 .4-.19.75l-.17.31q-.18.31.16.19l.28-.1a.81.76 41.7 01.41-.01z"/><ellipse fill="#96999b" transform="rotate(-1.8 4003.654 -12722.534)" rx="1.75" ry=".48"/><path fill="#fff" d="M402 123.29c.42 2.13.25 4.3.65 6.34q1.05 5.37.83 10.87-.02.49.2.93c1.67 3.38 1.71 8.3-3.53 7.99l-1.26-24.59a1.24 1.24 0 011.1-1.3l2.01-.24z"/><path fill="#96999b" d="M402 123.29l2.52.03a.62.62 0 01.6.54c.75 6.43.79 12.19 1.55 19.29q.43 4.05-.14 8.13a.5.49-82 01-.56.43q-3.2-.44-5.82-2.29c5.24.31 5.2-4.61 3.53-7.99q-.22-.44-.2-.93.22-5.5-.83-10.87c-.4-2.04-.23-4.21-.65-6.34zM417.25 131.96q-1.85-1.89-1.78-4.51c.03-.94-.24-1.27-1.22-.99q.12-.32.35-.48a.67.67 0 01.84.06q2.5 2.31 1.81 5.92z"/><path fill="#fff" d="M429.33 125.99l4.7.71q1.06.16.06.55c-2.13.83-4.98 1-4.64 4.32a.63.62-6.4 01-.56.69l-.67.07a.48.48 0 01-.53-.55l.7-5.09a.83.83 0 01.94-.7zM414.25 126.46c.98-.28 1.25.05 1.22.99q-.07 2.62 1.78 4.51 1.1 3.78.14 7.44l-2.81 9.39a.87.86-83.7 01-.77.62l-1.29.1a.62.6 78.6 01-.63-.43l-.35-1.08c-.06-6.7-1.53-15.92 2.71-21.54z"/><ellipse fill="#b6b6b7" transform="rotate(.8 -9202.115 31375.972)" rx="3.27" ry="1.3"/><path fill="#96999b" d="M423 132.04l.46-.04q.61 1.1-.06 1.91a.57.56 41.7 01-.82.04l-.26-.25a.4.4 0 01.01-.57q.49-.46.67-1.09z"/><path fill="#fff" d="M436.75 135.04q.44 2.4-.75 4.42-2.6.23-2.98-2.65a1.84 1.84 0 011.52-2.05q1.12-.18 2.21.28z"/><path fill="#96999b" d="M436.75 135.04h1.5q-1.2 2.02 0 4l-2.25.42q1.19-2.02.75-4.42z"/><path fill="#b6b6b7" d="M438.25 135.04l.91-.04a.5.5 0 01.53.52q-.05 2.02-1.44 3.52-1.2-1.98 0-4z"/><ellipse fill="#96999b" transform="rotate(90 141.245 286.565)" rx="6.41" ry=".61"/><path fill="#96999b" d="M417.39 139.4q.85 6.22.32 12.35a.51.5-84.1 01-.57.47l-4.71-.58a.92.92 0 01-.74-.55q-.64-1.52-.15-3.09l.35 1.08a.62.6 78.6 00.63.43l1.29-.1a.87.86-83.7 00.77-.62l2.81-9.39z"/><path fill="#b6b6b7" d="M163.71 147.78l8.76-5.8a.72.72 0 011.03.94q-2.98 5.56-9.5 5.79a.51.5-62.5 01-.29-.93z"/><path fill="#fff" d="M434 142.15q3.19 4.02 1 8.56l-1.42.35a.48.47 80.6 01-.58-.42q-.41-4.2 1-8.49z"/><path fill="#96999b" d="M434 142.15q2.32.75 4.37.49-1.54 2.06-.83 3.92a1.6 1.58 40.5 01.08.92q-.25 1.26.38 2.31-1.2 1.2-3 .92 2.19-4.54-1-8.56z"/><path fill="#b6b6b7" d="M438 149.79q-.63-1.05-.38-2.31a1.6 1.58 40.5 00-.08-.92q-.71-1.86.83-3.92 1.44 3.64-.37 7.15zM197.55 155.21q-4.42-7.44-10.9-1.81-.87.75-1.44-.4c3.77-5.43 11.14-5.14 12.34 2.21z"/><path fill="#96999b" d="M197.55 155.21q3.21 8.51-3.86 14c-3.87 3-7.92.77-9.57-3.33q-2.59-6.45 1.09-12.88.57 1.15 1.44.4 6.48-5.63 10.9 1.81zm-6.873 12.953a2.8 2.36 101.6 002.875-2.269 2.8 2.36 101.6 00-1.749-3.217 2.8 2.36 101.6 00-2.875 2.269 2.8 2.36 101.6 001.749 3.217zM440.38 172.76q-.36-.25-.67-.22a.53.52 84.3 00-.48.59q.41 3.48-.48 6.96a1.87 1.8 43.9 00.04 1.06q.57 1.75-.63 3.2a1.04 1.04 0 00-.14 1.09q.92 1.99.14 4.11a1.58 1.55-42.7 00-.05.99q.87 3.35-.9 6.5a1.61 1.58 3.5 01-.83.72l-6.73 2.55q-.39.15-.06.41.35.26.91.07-7.45 1.42-15 .75l.71-.06q.65-.05.17-.49l-.26-.24a.36.34-69.5 01-.12-.29q.31-19.23.55-38.46.02-1.73.85-2.67a.32.31-61.8 00-.15-.51l-1-.28c9.57-.11 16.56-.05 23.96-2.61a.79.78 82 011.04.79l-.87 16.04z"/><path fill="#fff" d="M416.25 158.54l1 .28a.32.31-61.8 01.15.51q-.83.94-.85 2.67-.24 19.23-.55 38.46a.36.34-69.5 00.12.29l.26.24q.48.44-.17.49l-.71.06q-8.19.56-15.37-3.26a1.69 1.66 11.7 01-.89-1.33q-1.54-17.52-2.59-35.13-.21-3.53.2-5.36a.48.48 0 01.6-.36q9.23 2.65 18.8 2.44z"/><path fill="#96999b" d="M98.71 211.75l-.72.3a.51.51 0 00-.31.57q1.98 9.4 2.83 20.07.09 1.21 1.24 1.27l2.46 19.79q-.38-.4-.84-.25a.53.53 0 00-.34.67q.46 1.44.51 4.57.13 8.3 2.11 23.4c.67 5.18.09 10.06.69 15.08.15 1.3-.41 2.75.16 4.16a.52.52 0 00.7.28q.8-.36.59-1.41.91 5.54.49 11.23a.76.76 0 00.76.82l7.09.02q3.68 1.18 7.6.72a.67.66 89 00.57-.6q.01-.18-.05-.4 1.25.5 2.34-.01a.71.7-11.9 011 .65l-.12 6.98a.52.51-1.2 01-.49.5c-6.55.37-11.39-.4-17.97 2.85a1.08 1.06-6.3 00-.57.7l-1.31 4.99q-2.18 13.04-.4 26.1.54 10.54-.27 21.2-.12-.1-.24-.17a.67.66-76.4 00-.96.59l-.49 29.49a.83.82-85.4 01-.94.8q-3.78-.55-3.68-4c.15-4.62-.91-11.89.94-16.08a.54.53-64.5 00-.24-.69q-.71-.37-1.56-.19l-.5-69.25q.4.3.77.15a.79.77-11.3 00.49-.72q.14-11.63-2.13-23.01-1.3-5.09-1.13-10.42.3.36.26.85a.15.14 1.8 00.15.15h.28a.49.49 0 00.48-.5q-.21-12.14-1.37-24.22c-.17-1.76.49-3.57.25-5.45q-.6-4.53-.93-9.09c-.16-2.06-2.24-20.69-2.8-21.23a1 .99 21.1 01-.29-.65q-.37-11.02-2.1-20.1c-.66-3.44-2.22-6.48-2.6-10.21-.42-4.1-1.54-8.2-1.77-12.1-.1-1.69.41-9.29-2.06-8.7-.56-4.81-.26-16.89 8.05-14.31a.54.53-63.2 01.27.83l-1 1.34q-.27.35-.39.78-2.65 8.85-.05 17.93 4.79 16.74 7.54 33.93zM113.06 161.44q5.51 3.74 5.62 10.04c.08 4.76.22 9.7-4.21 12.16-7.53 4.2-9.64-5.09-10.52-10.32-.76-4.48 1.94-16.76 9.11-11.88zm1.49 14.04q-1.65-1.16-2.77.53c-.82 1.23-.53 4.6 1.69 5.16a1.11 1.1-54.7 00.91-.16c2.63-1.81 3.27-3.36.17-5.53z"/><ellipse fill="#1f1e1d" transform="rotate(101.6 28.163 160.696)" rx="2.8" ry="2.36"/><path fill="#b6b6b7" d="M84.29 171.25c2.47-.59 1.96 7.01 2.06 8.7.23 3.9 1.35 8 1.77 12.1.38 3.73 1.94 6.77 2.6 10.21q1.73 9.08 2.1 20.1a1 .99 21.1 00.29.65c.56.54 2.64 19.17 2.8 21.23q.33 4.56.93 9.09c.24 1.88-.42 3.69-.25 5.45q1.16 12.08 1.37 24.22a.49.49 0 01-.48.5h-.28a.15.14 1.8 01-.15-.15q.04-.49-.26-.85c-1.2-24.68-3.26-49.42-7.28-73.81q-2.04-12.4-4.52-28.94-.73-4.86-.7-8.5zM440.38 172.76q-.75 11.73-1.1 23.5c-.08 2.54-6.77 4.25-8.78 4.53q-.56.19-.91-.07-.33-.26.06-.41l6.73-2.55a1.61 1.58 3.5 00.83-.72q1.77-3.15.9-6.5a1.58 1.55-42.7 01.05-.99q.78-2.12-.14-4.11a1.04 1.04 0 01.14-1.09q1.2-1.45.63-3.2a1.87 1.8 43.9 01-.04-1.06q.89-3.48.48-6.96a.53.52 84.3 01.48-.59q.31-.03.67.22z"/><path fill="#1f1e1d" d="M114.55 175.48c3.1 2.17 2.46 3.72-.17 5.53a1.11 1.1-54.7 01-.91.16c-2.22-.56-2.51-3.93-1.69-5.16q1.12-1.69 2.77-.53z"/><path fill="#fff" d="M490.25 193.54l-43.6-.31a.63.62-83.6 00-.61.49c-.37 1.66-.05 9.56-3.25 7.94 2.79-4.22 1.99-10.94 2.45-15.89a.55.54 1.7 01.54-.5c22.73-.07 45.4-.52 67.99 1.36q.53.04.03.21c-1.34.47-2.84.3-4.05.65q-9.81 2.82-19.5 6.05z"/><path fill="#fff" d="M432.25 206.21c12.23.62 19.95.91 29.28-2.86 5.75-2.32 10.67-3.94 16.04-5.87a.52.52 0 01.67.33q.13.39-.24.65c-35.94 13.2-72.2 22.85-108.32 33.94-5.11 1.57-15.1 4.71-20.67 9.6-3.61 3.17-6.27 7.63-9.15 11.7q-.29.4-.44-.07c-2.18-6.92-2.59-11.86-10-14.78-16.52-6.48-30.23-5.5-50.86-4.75-16.97.62-38.88 1.19-58.15-.72-13.29-1.33-23.03-1.66-33.58-2.44-13.36-1-27.23-.16-40.38-2.63q-.49-.09-.01-.21 10.01-2.55 20.06-4.58 82.85-16.71 165.6-33.95c13.72-2.86 26.88-2.3 40.63-3q10.29-.53 20.58-.23a.56.55-.5 01.54.52q.39 5.88 1.3 11.57.41 2.51 1.71 3.72c6.99 6.53 26.65 4.51 35.39 4.06z"/><path fill="#96999b" d="M490.25 193.54L478 198.46q.37-.26.24-.65a.52.52 0 00-.67-.33c-5.37 1.93-10.29 3.55-16.04 5.87-9.33 3.77-17.05 3.48-29.28 2.86q5.7-1.38 10.54-4.55c3.2 1.62 2.88-6.28 3.25-7.94a.63.62-83.6 01.61-.49l43.6.31zM508.17 200.52q.97.28.5 1.6-.26.73-.59.02l-.46-.98q-.44-.93.55-.64z"/><ellipse fill="#fff" transform="rotate(114.9 22.148 163.45)" rx="1.3" ry="1.02"/><path fill="#b6b6b7" d="M98.71 211.75l3.04 22.21q-1.15-.06-1.24-1.27-.85-10.67-2.83-20.07a.51.51 0 01.31-.57l.72-.3z"/><path fill="#fff" d="M131.36 225.53q-3.68 8.79-3.77 18.41-.19 21.28-.08 42.56.01 2.16-.44 4.26a.61.61 0 01-.63.48q-1.04-.05-1.01-1.25c.44-14.95-.12-29.31-.4-43.99q-.22-11.69-2.15-23.21a.55.55 0 01.41-.62q15.51-3.82 31.26-6.42c5.27-.87 11.75-2.53 17.73-3.27a.63.63 0 01.68.42c.47 1.4-.18 2.1-1.55 2.31q-19.2 2.91-29.92 5.51-3.8.93-9.49 4.1a1.48 1.43 87.9 00-.64.71z"/><path fill="#96999b" d="M508.94 220.73q-.21 8.66.53 14.52.1.76 1.03.46 1.65 15.79 1.81 39.48.32 45.26-1.56 78.6-.23-.53-.4-.54a.75.69-88.2 00-.74.75q.03 18.66-1.22 37.28a.49.49 0 00.46.52q.7.03.86-.8l-.37 10.48a.96.96 0 01-.44.77c-8.04 5.12-6.69 13.49-6.39 21.48q.08 1.98-.56 3.46a.82.81-76.4 01-.79.49l-6.02-.3a.87.87 0 01-.77-.56q-2.12-5.66-1.96-11.66a.27.27 0 00-.52-.1l-2.01 5.7q-.16.45-.1.92.33 2.81-1.05 5.39a.73.72-71.9 01-.74.38c-1.54-.21-3.52-.2-4.71-1.24-1.89-1.65-1.07-9.39-1.05-11.95q.01-.54-.45-.26-.75.44-1.03 1.29-1.3-.55-1.8-.35-1.55.61-1.19-1.01 2.08-9.49 10.09-9.33c3.91.07 11.01-.93 10.41-6.39q-.05-.5.14-.96c.75-1.78 1.47-3.39 1.68-5.36.67-5.98 1.77-12.09 1.44-18.13q-.23-4.44.02-6.51.9-7.46 1.08-22.18.35-30.2-.54-47.81-1.91-8.34-.7-16.74.99-17.23.41-24.27c-.15-1.78-.8-3.95-.75-6.04q.29-12.78-.42-25.57a.63.63 0 00-.57-.59c-1.26-.12-1.12 1.67-1.09 2.45l-.2-10.01a.76.75 81.5 01.54-.74l8.3-2.3a.59.59 0 01.72.4q1.01 3.49.62 6.88z"/><path fill="#b6b6b7" d="M508.94 220.73q1.69 7.46 1.56 14.98-.93.3-1.03-.46-.74-5.86-.53-14.52zM501.38 280.52l-2.42-54.02c-.03-.78-.17-2.57 1.09-2.45a.63.63 0 01.57.59q.71 12.79.42 25.57c-.05 2.09.6 4.26.75 6.04q.58 7.04-.41 24.27z"/><path fill="#96999b" d="M333.29 520l.07-.39a.51.5-80.1 00-.4-.58q-.62-.12-.95.49-4.22 7.84-.76 16.31.89 1.37.94 2.39a1.14 1.13-1.2 01-1.15 1.19q-12.43-.16-11.75-12.76.03-.54-.44-.28c-2.64 1.44-2.01 6.59-1.79 9.38a.3.29-65.5 01-.53.2l-.79-1.06a.89.89 0 00-.85-.35c-8.27 1.33-9.76-9.13-7.86-14.58a.37.37 0 00-.66-.33q-3.32 4.93-2.41 10.83.09.59-.45.34c-2.16-1-4.13-2.35-4.39-4.95q-.68-6.75 3.57-12.03.25 1.14.94 1.37a.92.9-54.7 00.88-.16c1.74-1.46 3.72-1.67 5.32-3.02 2.41-2.04 6.13-5.1 5.53-8.62-.27-1.64.62-2.8.6-4.43q-.13-13.97-.52-27.91a.45.45 0 00-.53-.43q-.78.13-1.12.63-.21-54.37-.3-108.75c-.03-16.3-.87-32.99-1.19-49.5q-.32-16.15-1.3-27.49c-.56-6.38-4.81-8.45-10.91-8.36-10.38.14-19.04 3.36-28.42 4.49q-4.68.56-12.81-.21-13.67-1.3-27.34-2.61c-10.9-1.05-23.73-3.36-35.7-4.46-1.23-.12-3.73-.69-4.62-1.57q-4.99-4.9-11.37-8.15-5.82-2.6-12.22-2.39c-4.17.13-7.28-.51-11.11-.99q-2.34-.29-2.75 1.45-4.57.63-4.72 5.54c-.74 24.36.43 49.1.68 73.5q-.13-.3-.31-.42a.37.37 0 00-.57.27q-.28 2.54-.03 7.84.47 10.07 1.38 45.81c.42 16.6 1.15 31.79 1.59 47.7q.02.5-.18.96c-.73 1.72.24 3.02.46 4.41q1.31 8.56-4.03 15.19-.34.42-.54.91l-.82 2.01a.41.41 0 00.34.56q.8.07 1.46-.24l.35 5.31a.6.6 0 01-.47.63q-2.1.49-4.09-.73l-.32-8.76a.73.72-82.3 00-.51-.68q-.47-.15-1.06.04-4.6 2.38-4.58 7.62a.33.32-75.9 01-.48.29l-2.88-1.55a1.58 1.56 2 01-.69-.73q-1.3-2.83.34-5.52.27-.45-.25-.45l-1.07-.01q.6-2.91 2.94-3.76a1.98 1.96 83.7 001.28-1.61q.76-6.23.51-12.41c-.82-20.85-.43-41.59-.89-62.43q-.39-17.97-.91-35.93c-.52-17.46 0-34.97.06-52.44 0-.64-.51-1.33-.42-2.1.88-7.54.07-14.47.35-21.09q.53-12.75.29-22.75c-.15-6.44-.14-12.88 2.29-18.4l.24-.13a.45.42-53.4 01.27-.05q15.72 1.55 31.25 4.32c14.93 2.67 32.45 2.53 44.49 3.81q15.43 1.64 20.07 1.74 30.15.63 60.25-1.49 16.45-1.15 28.41.75c9.88 1.58 13.26 10.65 12.62 19.71q-1.57 22.24-1.7 28.49c-1.03 51.4-2.08 102.47.11 153.89.96 22.51.89 45.09 1.43 67.61.11 4.62.86 9.24-2.4 12.06zM194.04 255c2.71.04 1.96-6.7-3.02-6.44-1.71-.77-2.73-1.7-4.73-1.77q-8.89-.33-17.79-.92-2.22-.14-4.22 1.09a.65.64-25.3 00-.27.75c2.06 6.54 8.51 8.27 14.24 8.06q4.53-.16 14.44.9 1.33.14 1.35-1.67zm73.82 7.15q1.3.64 2.4.69 7.82.37 15.62 1.18c6.71.7 9.52-2.52 14.39-6.14 2.18-1.62.69-3.53-1.38-3.91-10.2-1.89-30.5-6.35-31.29 7.74a.48.46-76.7 00.26.44zm-65.27 3.12c6.52 4.17 10.64 4.31 19.79 5.23q13.65 1.36 27.38 1.89c1.84.07 6.32.52 5.39-2.92a.93.92-7.2 00-.9-.69c-7.23.01-14.45-.73-21.67-.89q-15.1-.33-29.64-3.47a.47.47 0 00-.35.85z"/><path fill="#b6b6b7" d="M138.25 229.29c-2.43 5.52-2.44 11.96-2.29 18.4q.24 10-.29 22.75c-.28 6.62.53 13.55-.35 21.09-.09.77.42 1.46.42 2.1-.06 17.47-.58 34.98-.06 52.44q.52 17.96.91 35.93c.46 20.84.07 41.58.89 62.43q.25 6.18-.51 12.41a1.98 1.96 83.7 01-1.28 1.61q-2.34.85-2.94 3.76-2.79 1.23-2.24 4.4a.67.66 72 01-.36.72q-1.22.61-2.16-.31c-5.22-5.07 3.98-8.65 7.18-10.19a1.41 1.39-12.8 00.79-1.24q.43-41.48-.92-82.84c-.52-16.03-.29-43.61-.81-67.24-.47-21.01-.74-42 .05-63.02.09-2.26.52-13.64 3.97-13.2z"/><path fill="#1f1e1d" d="M191.02 248.56q3.27 2.42 3.02 6.44-.02 1.81-1.35 1.67-9.91-1.06-14.44-.9c-5.73.21-12.18-1.52-14.24-8.06a.65.64-25.3 01.27-.75q2-1.23 4.22-1.09 8.9.59 17.79.92c2 .07 3.02 1 4.73 1.77zm-10.89.46c-4.11-.01-8.51-.57-12.58-1.11a.35.35 0 00-.33.55c3.31 4.58 7.94 4.05 12.93 4.2a.59.58-89.1 00.6-.59v-2.43a.62.62 0 00-.62-.62zm7.44.63a.45.44-72.4 00-.67.35l-.23 2.72a.44.44 0 00.38.48l2.96.46a.43.43 0 00.47-.58q-.84-2.21-2.91-3.43z"/><path fill="#fff" d="M167.55 247.91c4.07.54 8.47 1.1 12.58 1.11a.62.62 0 01.62.62v2.43a.59.58-89.1 01-.6.59c-4.99-.15-9.62.38-12.93-4.2a.35.35 0 01.33-.55z"/><path fill="#b6b6b7" d="M194.04 255q.25-4.02-3.02-6.44c4.98-.26 5.73 6.48 3.02 6.44z"/><path fill="#fff" d="M187.57 249.65q2.07 1.22 2.91 3.43a.43.43 0 01-.47.58l-2.96-.46a.44.44 0 01-.38-.48l.23-2.72a.45.44-72.4 01.67-.35z"/><path fill="#1f1e1d" d="M267.86 262.15a.48.46-76.7 01-.26-.44c.79-14.09 21.09-9.63 31.29-7.74 2.07.38 3.56 2.29 1.38 3.91-4.87 3.62-7.68 6.84-14.39 6.14q-7.8-.81-15.62-1.18-1.1-.05-2.4-.69zm5.12-2.67l11.08.86a.43.43 0 00.46-.46l-.3-3.53a.58.57 88.8 00-.53-.52c-2.77-.19-9.89-.38-11.41 2.35a.87.87 0 00.7 1.3zm21.09-2.99l-2.27-.3a.56.55-83.4 00-.62.5l-.36 3.34q-.07.74.48.24l3.09-2.75a.59.59 0 00-.32-1.03z"/><path fill="#b6b6b7" d="M104.21 253.75l3.58 46.5q.21 1.05-.59 1.41a.52.52 0 01-.7-.28c-.57-1.41-.01-2.86-.16-4.16-.6-5.02-.02-9.9-.69-15.08q-1.98-15.1-2.11-23.4-.05-3.13-.51-4.57a.53.53 0 01.34-.67q.46-.15.84.25z"/><path fill="#fff" d="M272.98 259.48a.87.87 0 01-.7-1.3c1.52-2.73 8.64-2.54 11.41-2.35a.58.57 88.8 01.53.52l.3 3.53a.43.43 0 01-.46.46l-11.08-.86zM294.07 256.49a.59.59 0 01.32 1.03l-3.09 2.75q-.55.5-.48-.24l.36-3.34a.56.55-83.4 01.62-.5l2.27.3z"/><path fill="#b6b6b7" d="M179.83 264.64l-26.08-1.93q.41-1.74 2.75-1.45c3.83.48 6.94 1.12 11.11.99q6.4-.21 12.22 2.39z"/><path fill="#1f1e1d" d="M202.59 265.27a.47.47 0 01.35-.85q14.54 3.14 29.64 3.47c7.22.16 14.44.9 21.67.89a.93.92-7.2 01.9.69c.93 3.44-3.55 2.99-5.39 2.92q-13.73-.53-27.38-1.89c-9.15-.92-13.27-1.06-19.79-5.23z"/><rect fill="#fff" x="-2.24" y="-2.8" transform="rotate(-.8 19730.884 -11963.512)" width="4.48" height="5.6" rx=".95"/><path fill="#96999b" d="M180.23 272.65q1.45 1.14-.39 1.23l-2.12.12a.8.8 0 01-.52-1.43q1.48-1.14 3.03.08zM181.64 315.24q-5.2-3.65-11.64-4.21a.47.47 0 01-.43-.53q.35-2.86.09-5.71c-.53-5.56.06-10.59-.9-16.03q-.31-1.79.83-5.14a.67.67 0 00-.26-.78q-.34-.23-.83-.3 8.11-2.03 15.99-5.04a.98.98 0 01.9.11q3.49 2.37 8.1 2.89c19.36 2.2 40.01 5.72 64.61 8.12q.49.05.01.18c-21.48 5.89-42.26 14.99-57.9 30.4q-3.03 2.99-1.12 7.35.2.46-.18.14c-1.78-1.52-2.95-3.81-4.84-4.98q-5.97-3.74-12.43-6.47z"/><path fill="#b6b6b7" d="M168.5 282.54q.49.07.83.3a.67.67 0 01.26.78q-1.14 3.35-.83 5.14c.96 5.44.37 10.47.9 16.03q.26 2.85-.09 5.71a.47.47 0 00.43.53q6.44.56 11.64 4.21l-12.83-3.36a.68.68 0 01-.5-.63q-.43-13.22-.87-26.23-.07-1.96 1.06-2.48zM97.92 292.92q2.27 11.38 2.13 23.01a.79.77-11.3 01-.49.72q-.37.15-.77-.15l-.87-23.58zM502.08 297.26q.89 17.61.54 47.81-.18 14.72-1.08 22.18-.25 2.07-.02 6.51c.33 6.04-.77 12.15-1.44 18.13-.21 1.97-.93 3.58-1.68 5.36q-.19.46-.14.96c.6 5.46-6.5 6.46-10.41 6.39q-8.01-.16-10.09 9.33-.36 1.62 1.19 1.01.5-.2 1.8.35l-.79 8.74a1.27 1.26-19.8 01-.38.8q-1.26 1.22-2.58.06a1.41 1.4 14.5 01-.44-.74c-1.62-6.99-.41-18.44 7.97-20.61 3.39-.87 6.93.48 10.9-1.99a1.31 1.28 82.6 00.56-.74q3.57-12.55 4.36-25.49 1.99-32.96 1.39-51.57-.52-16.18.34-26.49z"/><path fill="#96999b" d="M126.84 305.17c-3.63.6-7.16-.3-12.07.29a.37.36 1.7 01-.41-.43c.68-3.32 9.52-6.11 12.44-6.87a.48.48 0 01.6.46v5.9a.67.66-4.6 01-.56.65zM265.56 334.49q-1.03 6.07.42 12.04c.62 2.56-.33 4.83-.01 6.73 2.14 12.63.94 26.53 1.56 37.94.07 1.27.76 2.45.61 3.84a.58.57-84 01-.63.52q-2.33-.2-4.09-1.8a1.08 1.07 57.9 00-1.03-.24q-1.43.43-2.03 1.95l-.82-49.47 1.42.1a.41.41 0 00.44-.43c-.46-7.58-1.93-14.55-1.36-22.24q.19-2.46-.47-4.79-1.37-4.86-2.11-9.89l3.01-1.11a.56.56 0 01.71.3c3.32 7.4 4.08 18.92 4.38 26.55z"/><path fill="#b6b6b7" d="M257.46 308.75q.74 5.03 2.11 9.89.66 2.33.47 4.79c-.57 7.69.9 14.66 1.36 22.24a.41.41 0 01-.44.43l-1.42-.1q.09-18.44-3.63-36.48a.58.58 0 01.39-.67q.55-.18 1.16-.1zM116.13 312.32l8.12-.28q.06.22.05.4a.67.66 89 01-.57.6q-3.92.46-7.6-.72z"/><path fill="#96999b" d="M194.08 334.47q.03 5.69-.04 11.35c-.08 6.67.85 14.93.46 22.47-1.12 21.89-.02 44.07-.65 66.02-.04 1.4-.6 2.47-.64 3.94l-10.35-3a1.23 1.22-80.5 01-.88-1.24q1.15-19.19 2.41-38.58c.49-7.67.24-18.45.25-27.72q0-9.93-1.42-22.47-1.5-13.14-13.54-16.79a.78.77-82.7 01-.55-.72l-.32-8.2a.4.4 0 01.47-.41q8.82 1.7 19.24 7.11 5.68 2.94 5.56 8.24z"/><path fill="#b6b6b7" d="M107.13 328.7q.66 13.06-.4 26.1-1.78-13.06.4-26.1z"/><path d="M214.57 330.81q-.12 50-.07 100.04c0 2.09.47 5.69 0 8.67a1.07 1.05 80.1 01-.52.76l-5.73 3.26q.15-2.93 3.32-3.15a1.41 1.4-2 001.31-1.4q.04-45.52.03-90.99 0-8.36-.36-16.71a.66.65 80 01.46-.67q.93-.31 1.56.19z"/><path fill="#b6b6b7" d="M194.08 334.47q1.13 3.23 1.29 7.72.48 13.64.25 24.96c-.46 23.48-.52 46.93-.73 70.66a1.26 1.26 0 01-1.07 1.23q-.25.04-.61-.79c.04-1.47.6-2.54.64-3.94.63-21.95-.47-44.13.65-66.02.39-7.54-.54-15.8-.46-22.47q.07-5.66.04-11.35zM265.56 334.49q4.38 30.99 3.89 62.21a.44.44 0 01-.52.42l-8.57-1.65q.6-1.52 2.03-1.95a1.08 1.07 57.9 011.03.24q1.76 1.6 4.09 1.8a.58.57-84 00.63-.52c.15-1.39-.54-2.57-.61-3.84-.62-11.41.58-25.31-1.56-37.94-.32-1.9.63-4.17.01-6.73q-1.45-5.97-.42-12.04z"/><path fill="#96999b" d="M169.17 335.95a.58.58 0 011.09-.3c1.71 3.14.16 11 .2 14.76a.29.29 0 01-.58.02l-.71-14.48z"/><path fill="#b6b6b7" d="M149.71 341.75c.44 38.45 2.24 74.7 4.24 111.16.2 3.61-4 10.29-5.49 13.84q-.66.31-1.46.24a.41.41 0 01-.34-.56l.82-2.01q.2-.49.54-.91 5.34-6.63 4.03-15.19c-.22-1.39-1.19-2.69-.46-4.41q.2-.46.18-.96c-.44-15.91-1.17-31.1-1.59-47.7q-.91-35.74-1.38-45.81-.25-5.3.03-7.84a.37.37 0 01.57-.27q.18.12.31.42zM176.02 376.4l-.28.1q-.34.12-.16-.19l.17-.31q.19-.35.19-.75l.31-29.74q0-.64.51-.25.15.12.27.31.1.15.11.38.8 15.15 1.1 30.31a.45.44 6.1 01-.55.44l-1.26-.31a.81.76 41.7 00-.41.01zM510.75 353.79L509.71 391q-.16.83-.86.8a.49.49 0 01-.46-.52q1.25-18.62 1.22-37.28a.75.69-88.2 01.74-.75q.17.01.4.54zM106.46 376l-.41 33.54a.51.5-78 01-.7.46c-2.37-1.01-7.39-1.98-7.13-5.25q.73-9.49 1.07-19 .85-.18 1.56.19a.54.53-64.5 01.24.69c-1.85 4.19-.79 11.46-.94 16.08q-.1 3.45 3.68 4a.83.82-85.4 00.94-.8l.49-29.49a.67.66-76.4 01.96-.59q.12.07.24.17zM144.25 471.96c-4.85-.32-1.84-6.45-1.89-9.4q.59-.19 1.06-.04a.73.72-82.3 01.51.68l.32 8.76zM302.69 513.82q5.55-1.5 9.21-5.26c3.04-3.12 1.86-7.16 1.85-11q-.03-13.16.04-26.31.34-.5 1.12-.63a.45.45 0 01.53.43q.39 13.94.52 27.91c.02 1.63-.87 2.79-.6 4.43.6 3.52-3.12 6.58-5.53 8.62-1.6 1.35-3.58 1.56-5.32 3.02a.92.9-54.7 01-.88.16q-.69-.23-.94-1.37zM333.29 520c-3.21 3.81-2.71 11.17-2.04 15.83q-3.46-8.47.76-16.31.33-.61.95-.49a.51.5-80.1 01.4.58l-.07.39zM589.44 590.56q-294.56.38-589.11.13a.11.11 0 01-.1-.14l.08-.24a.21.08 2.1 01.19-.06h589.96a.2.2 0 01.08.39q-.66.27-1.1-.08z"/></svg>