<svg xmlns="http://www.w3.org/2000/svg" viewBox="0 0 591 591"><g stroke-width="2" fill="none"><path stroke="#0f0e0e" vector-effect="non-scaling-stroke" d="M590.06 0l.19.29"/><path stroke="#7e7f70" vector-effect="non-scaling-stroke" d="M590.25.29l.04 589.46"/><path stroke="gray" vector-effect="non-scaling-stroke" d="M590.29 589.75l-.54.54"/><path stroke="#7e7f70" vector-effect="non-scaling-stroke" d="M589.75 590.29L.82 590.06a.34.34 0 00-.32.47l.19.47"/><path stroke="gray" vector-effect="non-scaling-stroke" d="M4.29 464.75l.02 120.94a.5.5 0 00.5.5l7.44.02"/><path stroke="#7e7f70" vector-effect="non-scaling-stroke" d="M12.25 586.21h573.51a.49.49 0 00.49-.49v-581a.47.47 0 00-.47-.47H4.79a.5.5 0 00-.5.5v460"/><path stroke="#fdfeef" vector-effect="non-scaling-stroke" d="M12.25 586.21q-1.65-6.69-1.72-9.21-.59-19.13-1.2-38.26c-.75-23.79-.21-49.52-.93-68.92q-.11-2.94-3.22-4.27a.28.28 0 01-.18-.26V465a.33.32-4.8 00-.37-.31l-.34.06"/><path stroke="#8c8d7d" vector-effect="non-scaling-stroke" d="M591 587.31c-.84-.45-.25-537.06-.25-586.81a.25.24-86.1 00-.21-.25q-.17-.02-.29.04"/><path stroke="#fdfeef" vector-effect="non-scaling-stroke" d="M591 590.06l-.71-.31"/><path stroke="#faf0c5" vector-effect="non-scaling-stroke" d="M36.17 41.18q-2.05 3.93-2.16 6.08-1.3 24.86.67 47.77.28 3.29 2.56.89C57.3 74.8 77.72 54.26 97.16 32.88a1.31 1.3 20.6 00-.99-2.18q-18.6.32-38.23.89c-8.25.24-17.71 1.83-21.77 9.59"/><path stroke="#8c8d7d" vector-effect="non-scaling-stroke" d="M390.75 110.21q-3.42.77-11 1.28-7.98.54-29.76 4.7"/><path stroke="#c8cabc" vector-effect="non-scaling-stroke" d="M349.99 116.19q-3.32-5.44-7.03-8.15-28.89-21.03-62.05-6.58c-9.35 4.08-13.34 8.76-19.84 14.98a.77.76-54.8 01-.83.15c-4.92-2.02-10.02-4.55-15.21-4.77-22.59-.97-38.25 16.25-37.68 38.4q.05 1.88-.77 2.6-12.94 11.35-18.22 27.67a.78.77 5.2 01-.65.53c-32.47 4.26-45.13 42.96-18.8 63.81q6.82 5.4 16.06 6.5c7.7.92 16.02-1.94 23.13-5.19a1.32 1.3-49 01.9-.07l4.28 1.17"/><path stroke="#8c8d7d" vector-effect="non-scaling-stroke" d="M213.28 247.24q-14.54 3.39-40.96 10.39-21.68 5.74-39.96 15.5c-10.62 5.66-25.63 19.69-16.4 32.61 4.13 5.78 10.4 9.33 17.17 12.31 29.02 12.78 59.05 24.79 89.5 33.75 20.86 6.14 41.33 13.15 62.09 19.57q17.3 5.35 32.97 14.37c11.13 6.4 18.51 10.83 16.44 24.2-1.12 7.17-4.98 9.65-10.15 13.93q-10.32 8.53-15.15 11.23-11.03 6.17-34.38 16.71c-13.54 6.11-27.74 10-41.97 14.02a.39.38 80.7 01-.49-.36q-.45-12.98-.35-25.97c.12-15.47-3.81-27.38-22.34-24.93-11.73 1.55-20.58 4.68-20.69 18.93q-.19 26.46.15 41.44a.58.57 84.8 01-.48.58q-4.86.83-20.53 3.95-21.59 4.31-51.39 6.6c-3.77.29-7.68.12-11.53.11q-.47 0-.92-.18-1.14-.48-2.33-.41-1 .07-.13.57c1.75 1.02 3.7 1.51 5.36 2.47 19.14 11.06 39.19 22.17 56.66 35.4q19.77 14.96 50.17 40.67a1.1 1.09-30.2 00.89.23c29.25-5.6 58.05-13.54 86.9-20.85 27.09-6.87 55.3-15.8 80.14-28.76 31.23-16.29 64.83-31.98 85.27-58.98q6.99-9.23 9.39-14.81c11.29-26.36-4.24-52.23-23.97-68.19-5.06-4.09-11.94-8.26-17.97-12.16-13.15-8.5-26.95-15-41.51-20.26a1.2 1.2 0 01-.79-1.1q-.34-15.66-.83-31.26c-.17-5.64-2.38-15.33-7.72-18.64-10.62-6.59-30.2-3.28-31 12.45q-.59 11.74-.5 23.66a.38.37 7.7 01-.48.36c-29.03-7.94-58.23-15.06-87.84-20.45q-20.19-3.68-39.66-10.34c-5.33-1.83-5.31-6.62-2.16-10.47 5.39-6.6 20.07-10.3 29.94-13.15q12.41-3.58 54.25-14.78c15.23-4.07 35.76-7.83 54.31-12.21q8.04-1.89 16.22-3.5"/><path stroke="#c8cabc" vector-effect="non-scaling-stroke" d="M376.52 241.49l9.49.74a1.37 1.35 68.1 01.85.37c2.18 2.01 3.58 4.37 6.01 5.9 12.73 7.98 31.8 8 43.93-1.72q1.66-1.33 3.47-2.48a.84.82 43.2 01.86-.02c15.61 8.79 33.84 8.29 49.23-.86a.82.79 44.8 01.85.01c17.86 11.25 39.94-6.83 33.95-26.71q-2.06-6.87-7.96-11.17-2.76-2.01-3.88-3.33a1.49 1.45 24.5 01-.35-.89q-.56-16.46-11.13-29.01a1.04 1.03 32.2 01-.21-.9q1.61-6.8 2.04-9.74c3.49-23.57-7.84-40.55-28.37-50.81a1.57 1.57 0 01-.69-.66c-18.46-33.36-63.72-33.49-83.6-2.39a1.75 1.68 62.3 00-.27.93l.01 1.46"/><path stroke="#595a5a" vector-effect="non-scaling-stroke" d="M376.52 241.49q-8.34-.92-16.71-1.6c-6.59-.54-14.83-.17-22.27-.87q-.52-.05-.02-.2 3.24-.99 6.61-1.24c6.65-.48 11.72-1.15 17.73-1.88a.53.53 0 00.47-.57l-.45-5.04a.55.55 0 00-.62-.5c-7.07.91-13.57 1.17-20.99 2.41q-5.96.99-12.03 1.2"/><path stroke="#cacbcc" vector-effect="non-scaling-stroke" d="M328.24 233.2c3.44-1.41 5.5-3.61 9.82-3.23a.65.65 0 00.68-.45q.07-.24.01-.48"/><path stroke="#595a5a" vector-effect="non-scaling-stroke" d="M338.75 229.04l22.87-1.18a1.19 1.17-71.5 00.84-.43l4.79-5.89"/><path stroke="#cacbcc" vector-effect="non-scaling-stroke" d="M367.25 221.54q5.94-4.24 12.74-6.97a1.61 1.57-85.1 00.79-.68l1.92-3.32a.37.37 0 00-.31-.55l-3.34-.1a.24.23 81.5 01-.22-.17l-.09-.29a.4.39 76.7 01.31-.51l4.18-.64a1.04 1.02 9.3 00.75-.53l2.36-4.36a.37.37 0 00-.31-.55l-16.42-.49a.83.83 0 01-.77-.59q-.36-1.24 1.09-1.4 9.39-1.02 18.81-1.42 1.81-.07 4.04-1.33c2.23-1.25 4.33-1.24 6.65-2.23a.45.45 0 00.19-.68q-.19-.26-.62-.27"/><path stroke="#595a5a" vector-effect="non-scaling-stroke" d="M399 194.46q4.47-1.93 6.25-1.96 8.19-.14 15.75-3.04"/><path stroke="#cacbcc" vector-effect="non-scaling-stroke" d="M421 189.46l2.55-5.34a.27.27 0 00-.21-.38l-.34-.03"/><path stroke="#595a5a" vector-effect="non-scaling-stroke" d="M423 183.71c.56-.47 1.49-1.11 1.81-1.78q8.52-17.61 27.22-23.56a.69.68-9.9 00.47-.66q-.33-11.18-4.34-21.58a1.53 1.52 4.1 00-.69-.79c-3.25-1.75-6.55-1.78-9.62-2.34q-25.93-4.68-52.28-4.13c-7.61.16-15.03.02-22.64.77q-10.58 1.03-21.18 1.82"/><path stroke="#cacbcc" vector-effect="non-scaling-stroke" d="M341.75 131.46c1.57-.7 3.12-1.65 4.73-2.12 18.38-5.39 36.44-9.07 55.63-9.81q24.34-.93 48.72-1.09a.95.92 73 01.78.43l6.32 9.9q.79 1.24 1.02-.22l.09-.55"/><path stroke="#595a5a" vector-effect="non-scaling-stroke" d="M459.04 128q.89 1.83 1.1 2.67 2.95 11.93 5.54 24.83a.57.57 0 00.73.43q2.6-.85 5.12.44a.85.85 0 001.24-.84c-.99-10.04-6.18-22.33-10.19-31.6-1.58-3.68-3.17-8.31-5.82-12.27a1.42 1.37-7.2 00-.75-.56q-2.71-.89-5.52-1.02-29.86-1.49-59.74.13"/><path stroke="#8e8e8d" vector-effect="non-scaling-stroke" d="M421 189.46q-41.66.5-83.15 4.24c-6.09.56-15.89.35-23.85 2.09"/><path stroke="#cacbcc" vector-effect="non-scaling-stroke" d="M314 195.79l-.33-.04a.84.82-62.8 00-.68.23c-6.29 6.12-10.29 13.47-15.17 21.85q-1.19 2.05-2.4 6.34-.27.94.45.28.9-.82 1.37-1.95a1.8 1.77 84.1 01.63-.79c7.71-5.51 12.98-11.2 19.75-16.63 3.61-2.9 12.07-3.22 16.2-3.39q1.39-.06 2.32-.75a1.72 1.69 23.8 01.88-.33q10.89-.8 21.48-3.32"/><path stroke="#8e8e8d" vector-effect="non-scaling-stroke" d="M358.5 197.29q18.14-.4 36.25-1.54.91-.06 4.25-1.29"/><path stroke="#cacbcc" vector-effect="non-scaling-stroke" d="M303.25 231.21l5.5-.67"/><path stroke="#8e8e8d" vector-effect="non-scaling-stroke" d="M459.04 128q-2.54-5.5-6.45-10.13a1.32 1.29-15.6 00-.82-.45c-11.82-1.53-23.51-1-39.7-.91-24.78.14-50.85 3.61-74.96 9.43a.45.45 0 00-.27.67l2.89 4.62a1.1 1.08 76.8 00.79.5q.62.08 1.23-.27M423 183.71c-15.98-.23-31.81.96-47.74 1.47-12.99.42-28.02 1.98-38.78 2.63-8.1.48-16.09.61-24.09 2.01a1.3 1.26-74.7 00-.79.47c-4.88 6.19-12.6 14.43-15.19 21.78-1.74 4.92-5.28 10.44-6.3 15.33a.45.45 0 00.45.54c7.04-.19 13.95-1.9 19.8-2.8q12.61-1.93 25.36-2.13c10.71-.17 20.97-1.38 31.53-1.47M338.75 229.04q-15.05-.38-30 1.5"/><path stroke="#595a5a" vector-effect="non-scaling-stroke" d="M308.75 230.54q-2.86-.35-5.5.67"/><path stroke="#8e8e8d" vector-effect="non-scaling-stroke" d="M303.25 231.21c-7.09.1-15.75.89-19.25-1"/><path stroke="#595a5a" vector-effect="non-scaling-stroke" d="M284 230.21l-4.71-3.21"/><path stroke="#8e8e8d" vector-effect="non-scaling-stroke" d="M279.29 227l-.48-.86a.7.7 0 00-.68-.34q-2.72.28-4.37 2.33a1.2 1.19-30.9 00-.25.97q.32 1.78 1.49 3.19"/><path stroke="#595a5a" vector-effect="non-scaling-stroke" d="M275 232.29l2.46 4.21"/><path stroke="#8e8e8d" vector-effect="non-scaling-stroke" d="M277.46 236.5l.52 1.25a.65.64-12.4 00.64.4q24.88-1.86 49.62-4.95"/><path stroke="#8c8d7d" vector-effect="non-scaling-stroke" d="M224.75 244.54l16.51-3.64"/><path stroke="#8e8e8d" vector-effect="non-scaling-stroke" d="M269.8 229.99l-.37-3.67"/><path stroke="#595a5a" vector-effect="non-scaling-stroke" d="M269.43 226.32q-.84-1.89 1.57-3.03"/><path stroke="#8c8d7d" vector-effect="non-scaling-stroke" d="M271 223.29q2.63-1.96 3.29-5.29"/><path stroke="#595a5a" vector-effect="non-scaling-stroke" d="M274.29 218l3.46-4.21"/><path stroke="#8e8e8d" vector-effect="non-scaling-stroke" d="M277.75 213.79l2.79-3.54"/><path stroke="#595a5a" vector-effect="non-scaling-stroke" d="M280.54 210.25l17.19-21.84a1.58 1.57 11 01.79-.53q13.05-3.6 26.5-4.91c7.44-.73 15.87-2.07 23.9-2.27a1.19 1.19 0 001.16-1.26q-.3-5.75 1.67-10.9"/><path stroke="#8e8e8d" vector-effect="non-scaling-stroke" d="M351.75 168.54l2.79-1.29"/><path stroke="#595a5a" vector-effect="non-scaling-stroke" d="M354.54 167.25q22.34-4.23 45.03-3.6c3.46.1 7.77.83 11.73.89a1.56 1.52-61.1 00.9-.27c6.15-4.18 9.31-13.14 9.23-20.24a.71.71 0 00-.56-.69q-17.67-3.68-35.37-3.3"/><path stroke="#8c8d7d" vector-effect="non-scaling-stroke" d="M385.5 140.04q-11.5-.69-23 0"/><path stroke="#595a5a" vector-effect="non-scaling-stroke" d="M362.5 140.04l-8.25.67"/><path stroke="#8c8d7d" vector-effect="non-scaling-stroke" d="M354.25 140.71l-4.75.25"/><path stroke="#8e8e8d" vector-effect="non-scaling-stroke" d="M349.5 140.96q-3.62-.34-7 .83"/><path stroke="#595a5a" vector-effect="non-scaling-stroke" d="M342.5 141.79l-10.09 1.92a1.92 1.9-40.6 01-.96-.07c-2.89-1.04-10.87-3.6-11.22-7.84a1.36 1.33 61.2 01.25-.9l5.77-8.11"/><path stroke="#8e8e8d" vector-effect="non-scaling-stroke" d="M326.25 126.79q2.09-1.71 3-4.25"/><path stroke="#595a5a" vector-effect="non-scaling-stroke" d="M358.5 197.29l-43.9-.59a.63.63 0 01-.61-.51q-.04-.18.01-.4"/><path stroke="#cacbcc" vector-effect="non-scaling-stroke" d="M284 230.21l-1.32 2.01q-.27.4-.7.62-2.61 1.34-4.52 3.66"/><path stroke="#c8cabc" vector-effect="non-scaling-stroke" d="M274.29 218q-1.49-.15-1.79 1.46-.09.48-.39.87-1 1.33-1.11 2.96"/><path stroke="#cacbcc" vector-effect="non-scaling-stroke" d="M354.54 167.25q-.61-3.23-.61-6.51c-.01-6.84-1.85-12.14-5.52-17.81a.57.56 54.1 01.12-.75q1.12-.89 2.47-.72"/><path stroke="#c8cabc" vector-effect="non-scaling-stroke" d="M351 141.46l4.07.01a.18.18 0 00.18-.18v-.26a.25.25 0 00-.23-.25l-.77-.07"/><path stroke="#cacbcc" vector-effect="non-scaling-stroke" d="M342.5 141.79q1.31 2.84 2.9 5.54c3.63 6.14 4.89 13.24 4.82 20.31a.82.82 0 00.47.74q.47.21 1.06.16"/><path stroke="#c8cabc" vector-effect="non-scaling-stroke" d="M385.5 140.04q.39 5.03 2.88 9.48a.77.77 0 01-.85 1.13q-11.58-2.74-22.23 2.38a.4.4 0 01-.57-.29l-2.23-12.7"/><path stroke="#595a5a" vector-effect="non-scaling-stroke" d="M349.99 116.19c-5.15 1.05-16.76 3.15-20.74 6.35"/><path stroke="#cacbcc" vector-effect="non-scaling-stroke" d="M329.25 122.54q-.84.02-1.12-.18c-21.13-15.28-48.87-8.97-64.55 10.71a.49.49 0 01-.69.07c-13.53-11.18-34.29-7.23-41.31 9.25-1.72 4.02-1 8.15.28 12.13a.59.59 0 001.15-.17c.2-12.36 8.66-22.67 21.45-23.29 5.17-.25 10.1 2.21 14.49 4.87q1.77 1.07.75 2.88c-2.63 4.67-5.5 9.89-5.21 15.41a.88.88 0 01-.85.93c-18.38.68-34.74 6.62-45.18 22.82q-3.03 4.71-7.16 12.46a.7.7 0 01-.72.37c-17.43-2.25-32.37 4.15-35.27 23.06-1.91 12.44 4.48 22.12 15.4 27.35 5.29 2.54 12.79 1.67 18.44.97a.32.32 0 00-.02-.63c-4.92-.26-10.75.29-15.06-1.35-10.28-3.92-16.54-14.04-14.93-25.07 2.41-16.57 16.24-22.2 31.37-20.41a.54.54 0 01.47.56c-.91 16.72 1.03 30.23 20.76 33.09a.5.5 0 00.22-.98c-30.89-9.7-16.9-46.49 2.44-59.55 11.93-8.05 26-7.48 39.93-6.42a.44.43 14.2 01.37.61l-3.7 8.31a1.3 1.28 1.5 01-.74.69q-3.41 1.24-6.7 2.63c-19.84 8.42-27.41 31.85-11.97 48.5q11.28 12.17 28.21 7.83"/><path stroke="#595a5a" vector-effect="non-scaling-stroke" d="M269.8 229.99q.98 2.14.94 4.93a.59.58 87.2 01-.51.57c-9.76 1.14-19.31 3.75-28.97 5.41"/><path stroke="#c8cabc" vector-effect="non-scaling-stroke" d="M241.26 240.9q-8.67.06-16.51 3.64"/><path stroke="#595a5a" vector-effect="non-scaling-stroke" d="M224.75 244.54l-11.47 2.7"/><path stroke="#cacbcc" vector-effect="non-scaling-stroke" d="M326.25 126.79c-2.93-1.47-5.56-3.89-8.25-5.07-20.32-8.96-42.56 1.36-54.17 19.1q-4.35 6.66-4.56 15.11a.41.4 85.4 00.47.41c3.02-.59 6.7.36 9.84.49a.92.92 0 00.79-.39c8.62-12.24 31.39-12.69 44.09-9.35 6.03 1.59 9.42 4.01 12.79 8.98a.34.33 5.9 01-.52.42c-5.08-5.21-10.97-6.31-18.73-7.3-12.99-1.67-28.27.83-37.05 11.6-6.85 8.41-9.07 17.56-8.51 28.6.49 9.88 8.26 18.53 18.1 20.86"/><path stroke="#cacbcc" vector-effect="non-scaling-stroke" d="M277.75 213.79c-16.84-5.31-21.9-20.45-18.05-36.54a.94.94 0 00-1.15-1.13c-12.34 3.22-21.83 14.58-20.48 27.94 1.58 15.58 15.83 26.73 31.36 22.26M279.29 227l-.03.44a.92.91-12.9 01-.45.71q-2.5 1.5-3.81 4.14"/><path stroke="#fdfeef" vector-effect="non-scaling-stroke" d="M351 141.46q-.44-.77-1.5-.5"/><path stroke="#c8cabc" vector-effect="non-scaling-stroke" d="M51.85 104.31q-.03 1.68 2.43 1.66.56-.01.16-.4l-1.64-1.65q-.93-.93-.95.39"/><path stroke="#cacbcc" vector-effect="non-scaling-stroke" d="M484.84 137.21c5.31 7.23 4.61 14.73 2.36 22.97a.72.72 0 00.35.82l2.7 1.46a.7.69 32.7 00.89-.19q1.16-1.52 1.68-4.21c3.07-15.72-3.63-29.39-20.34-32.49q-1.23-.23-2.19.36a.48.48 0 00.1.86q8.92 2.88 14.45 10.42M484.36 232.56a.36.35-58.5 01.16.67c-32.05 16.92-60.31-9.13-45.9-42.7 3.67-8.55 11.79-16.12 19.23-21.37a.43.42 13.1 00-.45-.72q-8.94 4.85-16.49 10.72c-4.91 3.81-7.72 10.15-9.88 15.74-4.39 11.32-3.38 23.41 3.44 33.47a1.57 1.56-38.7 01-.23 2.03q-7.38 6.86-16.44 7.72c-23.61 2.24-24.33-20.73-11.5-33.5q.38-.37-.14-.26-2.3.48-4.2 2.35c-20.09 19.78.05 44.46 24.22 34.7q6.1-2.46 11.78-7.81a.58.57 42.2 01.76-.03c4.5 3.63 9.31 7.39 14.89 8.71 10.5 2.5 24.45.84 32.79-6.5a.82.81 46.9 011.11.04q8.15 8.1 19.12 3.3a.47.47 0 00-.21-.9q-12.01.55-17.27-8.43c-5.69-9.73.93-18.41 8.01-25.48q.36-.36-.15-.33c-11.03.8-15.22 14.5-14.32 23.57a.66.66 0 01-.62.73c-11.52.7-22.44-.53-25.5-13.56-.99-4.23-.5-9.51-.28-14.18a.37.37 0 00-.72-.14c-2.91 7.94-3.21 17.83 2.06 24.61 6.67 8.58 16.87 7.5 26.73 7.55"/><path stroke="#595a5a" vector-effect="non-scaling-stroke" d="M428.71 145.59q-.68 2.8-1.08 5.61c-1.04 7.43-5.69 14.33-10.92 19.54-1.62 1.62-3.26 6.41.32 6.91 5.88.81 6.79-1.82 8.85-6.82q4.34-10.57 4.28-22.11c-.01-1.02.45-2.25-.4-3.35a.6.59 32.9 00-1.05.22M382.68 173.17l.22 4.9a.76.76 0 00.7.72l.85.06a.48.48 0 00.5-.61q-.91-3.19.11-6.29a.89.89 0 00-.96-1.16l-1.32.17a.55.54-12.6 00-.45.7l.17.52q.15.48.18.99M392.376 171.375a.61.61 0 00-.626-.594l-.76.02a.61.61 0 00-.593.626l.167 6.378a.61.61 0 00.626.594l.76-.02a.61.61 0 00.593-.626l-.167-6.378M372.37 172.65c1.65 1.78.82 3.74.86 5.61a.67.67 0 00.65.66l2.81.11a.55.55 0 00.55-.72q-.88-2.85-.14-5.78a1.02 1.02 0 00-.82-1.25q-2.05-.36-3.76.53a.54.53 55.2 00-.15.84M357.78 173.96c-.02 1.83.34 4.05-1.19 5.4a.34.33 42.5 00.03.52l.39.27a1.15 1.14 57.8 00.86.2q4.17-.75 8.37-.49a.81.8-73.3 00.75-.41c1.3-2.2-.11-4.29.99-5.84a.94.93 52.4 00.11-.86c-.51-1.32-8.22.53-9.81.67a.56.55-2.3 00-.5.54M299.3 197.63q-10.59 11.26-18.56 24.51a.68.67 38.5 00.1.83l2.39 2.39a.53.52-49.9 00.8-.07c2.5-3.53 4.26-7.44 6.51-11.18 5.15-8.51 8.15-15.55 16.34-22.97a.24.23 40.9 00-.03-.37c-.92-.6-6.79 6.05-7.55 6.86"/><path stroke="#8e8e8d" vector-effect="non-scaling-stroke" d="M248.98 247.66c5.2 1.26 10.3 2.11 15.51.7 6.36-1.72 12.58-3.26 19.07-4.48q.51-.1.02-.26-2.55-.88-5.25-.92c-3.29-.05-6.87-1.12-10.02-.17q-11.45 3.46-19.32 4.91-.54.1-.01.22M240.95 254.22c-3.62-.3-8.15-1.84-11.53-.93-6.8 1.83-13.39 4.17-20.2 5.79q-.54.13-.02.32c4.12 1.57 7.51 2.07 12.02.84q10.26-2.8 19.78-5.41 1.68-.46-.05-.61M173.52 273.53q4.36.05 8.53 1.32a1.41 1.38-47.4 00.93-.05l17.69-7.61q.44-.19-.03-.3c-10.53-2.51-18.41.65-27.32 5.9q-1.24.72.2.74M170.21 281.52l-5.89-.72a.98.95-64.3 00-.82.3c-4.18 4.44-6.21 6.46-5.16 13.06a.67.66 83.9 00.7.57l8.13-.49a.38.38 0 00.31-.57c-2.91-4.86.47-7.63 3.15-11.16a.62.62 0 00-.42-.99"/><path stroke="#595a5a" vector-effect="non-scaling-stroke" d="M375.5 305.96q3.87 1.04 7.59-.23a.67.67 0 00.46-.66q-.35-11.94-12.8-10.78"/><path stroke="#8e8e8d" vector-effect="non-scaling-stroke" d="M370.75 294.29q-7.82-.75-11.85 5.28a.61.6-63.9 00.31.91l16.29 5.48"/><path stroke="#cacbcc" vector-effect="non-scaling-stroke" d="M370.75 294.29l2.73 3.25a1.51 1.47-67.7 01.36.89q.28 3.89 1.66 7.53"/><path stroke="#8e8e8d" vector-effect="non-scaling-stroke" d="M177.01 307.84q11.71 4.23 23.95 6.57.53.1.95.44 1.4 1.12 2.92-.06a1.58 1.55 22.4 01.77-.31q6.08-.68 11.92-2.41 1.03-.31-.01-.59-11.24-3.04-22.47-6.11c-6.88-1.88-11.88.2-17.96 1.48a.52.52 0 00-.07.99"/><path stroke="#595a5a" vector-effect="non-scaling-stroke" d="M376.71 334.25l7.83 2.88a.37.37 0 00.49-.37q-.62-10.09-.07-20.17a.43.43 0 00-.61-.42q-3.99 1.79-8.85 1.62"/><path stroke="#8e8e8d" vector-effect="non-scaling-stroke" d="M375.5 317.79c-5.26-.35-9.81-2.52-14.78-4.43a1.39 1.39 0 00-1.89 1.32l.23 12.85a1.74 1.73 8.1 001.23 1.63l16.42 5.09"/><path stroke="#cacbcc" vector-effect="non-scaling-stroke" d="M375.5 317.79l.22.17a.57.57 0 01.21.55c-.77 4.66.54 10.36.78 15.74"/><path stroke="#8e8e8d" vector-effect="non-scaling-stroke" d="M256.44 329.31q9.89 3.4 18.39-1.11.45-.24-.04-.39-10.59-3.18-21.2-6.31c-4.18-1.23-11.97 1.7-16.47 2.48a.33.33 0 00.01.65q9.7 1.38 19.31 4.68M294.68 342.29q14.96 5.37 29.36 10.1 2.12.69 4.15.24 4.41-.98 8.63-2.66.46-.19.01-.4-13.22-6.2-27.16-10.4-1.9-.58-3.92-.1c-3.1.73-8.71.93-11.13 2.91q-.24.2.06.31"/><path stroke="#595a5a" vector-effect="non-scaling-stroke" d="M379.81 347.112a1.35.7 99.4 00.91-1.218 1.35.7 99.4 00-.47-1.446 1.35.7 99.4 00-.91 1.218 1.35.7 99.4 00.47 1.446M371.025 352.372a1.18 1.02 77.5 00.74-1.373 1.18 1.02 77.5 00-1.25-.931 1.18 1.02 77.5 00-.74 1.373 1.18 1.02 77.5 001.25.931M374.446 358.62a1.03.78 131.6 001.267-.252 1.03.78 131.6 00.1-1.288 1.03.78 131.6 00-1.266.252 1.03.78 131.6 00-.1 1.288"/><path stroke="#8e8e8d" vector-effect="non-scaling-stroke" d="M355.12 367.14c9.69 5.27 19.42 9.74 28.76 15.54a1.13 1.1-38.1 00.94.1l10.48-3.79a.35.35 0 00.12-.58q-1.36-1.27-4.11-2.73-10.62-5.61-21.41-10.96c-4.11-2.04-10.86.19-14.76 1.91a.29.28 47.5 00-.02.51"/><path stroke="#595a5a" vector-effect="non-scaling-stroke" d="M365.99 379.89c.14-.45.01-1.56-.68-1.42a.67.67 0 00-.52.83q.46 1.75 1.91 2.95.96.79.27-.24l-.85-1.26a1.01 1.01 0 01-.13-.86M364.26 399.61a.33.33 0 00.53-.31l-.24-1.52a.5.5 0 00-.99-.02q-.23 1.13.7 1.85"/><path stroke="#8e8e8d" vector-effect="non-scaling-stroke" d="M386.89 434.22c4.9 0 9.67.89 14.38 2.17a.68.67 22.9 00.75-.3c5.62-9.24 10.52-15.47 9.93-27.04a.68.68 0 00-.6-.64l-10.06-1.23a.67.67 0 00-.75.69c.28 8.82-7.59 19.9-13.95 25.55a.46.46 0 00.3.8"/><path stroke="#595a5a" vector-effect="non-scaling-stroke" d="M215.18 435.82l8.6-4.37a.56.56 0 00.29-.66q-1.49-5.4-5.74-8.99a1.39 1.38-25.7 00-.95-.33l-2.38.07"/><path stroke="#8e8e8d" vector-effect="non-scaling-stroke" d="M215 421.54c-10.71-.46-22.71 3.77-20.05 17.16 1.42 7.19 17.15-1.01 20.23-2.88"/><path stroke="#cacbcc" vector-effect="non-scaling-stroke" d="M215 421.54l.18 14.28"/><path stroke="#8e8e8d" vector-effect="non-scaling-stroke" d="M214.96 451.25q-9.29 5.14-19.71 2.19a.41.4-82.6 00-.51.4l.33 19.42a.51.5-4.5 00.58.49q10.74-1.64 21.1-4.54"/><path stroke="#595a5a" vector-effect="non-scaling-stroke" d="M216.75 469.21l7.44-1.08a.71.7-4.6 00.61-.71l-.17-21.36q-.01-.74-.64-.35l-9.03 5.54"/><path stroke="#cacbcc" vector-effect="non-scaling-stroke" d="M216.75 469.21l-.96-1.31a1.7 1.61-65.5 01-.31-.91l-.52-15.74"/><path stroke="#8e8e8d" vector-effect="non-scaling-stroke" d="M308.31 478.22l12.65 5.79a1.41 1.39 48.1 001.02.06c13.12-4.34 25.8-9.68 37.75-16.62q5.4-3.14 10.86-6.2.65-.36-.07-.55l-13.85-3.68a1.46 1.44 40.3 00-.95.07c-15.65 6.71-32.31 12.81-47.42 20.56q-.59.3.01.57M275.01 501.77c-4.29-1.15-9.63-4.14-13.66-6.18a1.24 1.21-39.9 00-.94-.07c-19.35 6.12-38.46 12.81-58.18 17.92a.49.49 0 00-.13.89l12.96 7.8a1.11 1.08 51.5 00.88.11q29.7-8.95 58.87-19.53a.48.47 89 00.29-.31l.1-.29a.28.27 16.8 00-.19-.34"/><path stroke="#fdfeef" vector-effect="non-scaling-stroke" d="M589.94 591l-.19-.71"/><path stroke="#8c8d7d" vector-effect="non-scaling-stroke" d="M587.69 591q-2.38-.63-4.75 0M576.44 591q-3.38-.63-6.75 0M32.44 591l-6.69-.21"/><path stroke="#c8cabc" vector-effect="non-scaling-stroke" d="M25.75 590.79l-8.06.21"/><path stroke="#8c8d7d" vector-effect="non-scaling-stroke" d="M17.19 591q-7.88-.63-15.75 0"/><path stroke="#595a5a" vector-effect="non-scaling-stroke" d="M25.75 590.79l-.06.21"/></g><path d="M0 0h590.06l.19.29.04 589.46-.54.54-588.93-.23a.34.34 0 00-.32.47l.19.47H0V0zm4.29 464.75l.02 120.94a.5.5 0 00.5.5l7.44.02h573.51a.49.49 0 00.49-.49v-581a.47.47 0 00-.47-.47H4.79a.5.5 0 00-.5.5v460z"/><path fill="#1d1c1b" d="M590.06 0h.94v587.31c-.84-.45-.25-537.06-.25-586.81a.25.24-86.1 00-.21-.25q-.17-.02-.29.04l-.19-.29z"/><path fill="#fbfddf" d="M590.25.29q.12-.06.29-.04a.25.24-86.1 01.21.25c0 49.75-.59 586.36.25 586.81v2.75l-.71-.31L590.25.29zM12.25 586.21q-1.65-6.69-1.72-9.21-.59-19.13-1.2-38.26c-.75-23.79-.21-49.52-.93-68.92q-.11-2.94-3.22-4.27a.28.28 0 01-.18-.26V465a.33.32-4.8 00-.37-.31l-.34.06v-460a.5.5 0 01.5-.5h580.99a.47.47 0 01.47.47v581a.49.49 0 01-.49.49H12.25zM36.17 41.18q-2.05 3.93-2.16 6.08-1.3 24.86.67 47.77.28 3.29 2.56.89C57.3 74.8 77.72 54.26 97.16 32.88a1.31 1.3 20.6 00-.99-2.18q-18.6.32-38.23.89c-8.25.24-17.71 1.83-21.77 9.59zm354.58 69.03q-3.42.77-11 1.28-7.98.54-29.76 4.7-3.32-5.44-7.03-8.15-28.89-21.03-62.05-6.58c-9.35 4.08-13.34 8.76-19.84 14.98a.77.76-54.8 01-.83.15c-4.92-2.02-10.02-4.55-15.21-4.77-22.59-.97-38.25 16.25-37.68 38.4q.05 1.88-.77 2.6-12.94 11.35-18.22 27.67a.78.77 5.2 01-.65.53c-32.47 4.26-45.13 42.96-18.8 63.81q6.82 5.4 16.06 6.5c7.7.92 16.02-1.94 23.13-5.19a1.32 1.3-49 01.9-.07l4.28 1.17q-14.54 3.39-40.96 10.39-21.68 5.74-39.96 15.5c-10.62 5.66-25.63 19.69-16.4 32.61 4.13 5.78 10.4 9.33 17.17 12.31 29.02 12.78 59.05 24.79 89.5 33.75 20.86 6.14 41.33 13.15 62.09 19.57q17.3 5.35 32.97 14.37c11.13 6.4 18.51 10.83 16.44 24.2-1.12 7.17-4.98 9.65-10.15 13.93q-10.32 8.53-15.15 11.23-11.03 6.17-34.38 16.71c-13.54 6.11-27.74 10-41.97 14.02a.39.38 80.7 01-.49-.36q-.45-12.98-.35-25.97c.12-15.47-3.81-27.38-22.34-24.93-11.73 1.55-20.58 4.68-20.69 18.93q-.19 26.46.15 41.44a.58.57 84.8 01-.48.58q-4.86.83-20.53 3.95-21.59 4.31-51.39 6.6c-3.77.29-7.68.12-11.53.11q-.47 0-.92-.18-1.14-.48-2.33-.41-1 .07-.13.57c1.75 1.02 3.7 1.51 5.36 2.47 19.14 11.06 39.19 22.17 56.66 35.4q19.77 14.96 50.17 40.67a1.1 1.09-30.2 00.89.23c29.25-5.6 58.05-13.54 86.9-20.85 27.09-6.87 55.3-15.8 80.14-28.76 31.23-16.29 64.83-31.98 85.27-58.98q6.99-9.23 9.39-14.81c11.29-26.36-4.24-52.23-23.97-68.19-5.06-4.09-11.94-8.26-17.97-12.16-13.15-8.5-26.95-15-41.51-20.26a1.2 1.2 0 01-.79-1.1q-.34-15.66-.83-31.26c-.17-5.64-2.38-15.33-7.72-18.64-10.62-6.59-30.2-3.28-31 12.45q-.59 11.74-.5 23.66a.38.37 7.7 01-.48.36c-29.03-7.94-58.23-15.06-87.84-20.45q-20.19-3.68-39.66-10.34c-5.33-1.83-5.31-6.62-2.16-10.47 5.39-6.6 20.07-10.3 29.94-13.15q12.41-3.58 54.25-14.78c15.23-4.07 35.76-7.83 54.31-12.21q8.04-1.89 16.22-3.5l9.49.74a1.37 1.35 68.1 01.85.37c2.18 2.01 3.58 4.37 6.01 5.9 12.73 7.98 31.8 8 43.93-1.72q1.66-1.33 3.47-2.48a.84.82 43.2 01.86-.02c15.61 8.79 33.84 8.29 49.23-.86a.82.79 44.8 01.85.01c17.86 11.25 39.94-6.83 33.95-26.71q-2.06-6.87-7.96-11.17-2.76-2.01-3.88-3.33a1.49 1.45 24.5 01-.35-.89q-.56-16.46-11.13-29.01a1.04 1.03 32.2 01-.21-.9q1.61-6.8 2.04-9.74c3.49-23.57-7.84-40.55-28.37-50.81a1.57 1.57 0 01-.69-.66c-18.46-33.36-63.72-33.49-83.6-2.39a1.75 1.68 62.3 00-.27.93l.01 1.46zm-338.9-5.9q-.03 1.68 2.43 1.66.56-.01.16-.4l-1.64-1.65q-.93-.93-.95.39z"/><path fill="#f9e3aa" d="M36.17 41.18c4.06-7.76 13.52-9.35 21.77-9.59q19.63-.57 38.23-.89a1.31 1.3 20.6 01.99 2.18C77.72 54.26 57.3 74.8 37.24 95.92q-2.28 2.4-2.56-.89-1.97-22.91-.67-47.77.11-2.15 2.16-6.08z"/><path fill="#949799" d="M376.52 241.49q-8.34-.92-16.71-1.6c-6.59-.54-14.83-.17-22.27-.87q-.52-.05-.02-.2 3.24-.99 6.61-1.24c6.65-.48 11.72-1.15 17.73-1.88a.53.53 0 00.47-.57l-.45-5.04a.55.55 0 00-.62-.5c-7.07.91-13.57 1.17-20.99 2.41q-5.96.99-12.03 1.2c3.44-1.41 5.5-3.61 9.82-3.23a.65.65 0 00.68-.45q.07-.24.01-.48l22.87-1.18a1.19 1.17-71.5 00.84-.43l4.79-5.89q5.94-4.24 12.74-6.97a1.61 1.57-85.1 00.79-.68l1.92-3.32a.37.37 0 00-.31-.55l-3.34-.1a.24.23 81.5 01-.22-.17l-.09-.29a.4.39 76.7 01.31-.51l4.18-.64a1.04 1.02 9.3 00.75-.53l2.36-4.36a.37.37 0 00-.31-.55l-16.42-.49a.83.83 0 01-.77-.59q-.36-1.24 1.09-1.4 9.39-1.02 18.81-1.42 1.81-.07 4.04-1.33c2.23-1.25 4.33-1.24 6.65-2.23a.45.45 0 00.19-.68q-.19-.26-.62-.27 4.47-1.93 6.25-1.96 8.19-.14 15.75-3.04l2.55-5.34a.27.27 0 00-.21-.38l-.34-.03c.56-.47 1.49-1.11 1.81-1.78q8.52-17.61 27.22-23.56a.69.68-9.9 00.47-.66q-.33-11.18-4.34-21.58a1.53 1.52 4.1 00-.69-.79c-3.25-1.75-6.55-1.78-9.62-2.34q-25.93-4.68-52.28-4.13c-7.61.16-15.03.02-22.64.77q-10.58 1.03-21.18 1.82c1.57-.7 3.12-1.65 4.73-2.12 18.38-5.39 36.44-9.07 55.63-9.81q24.34-.93 48.72-1.09a.95.92 73 01.78.43l6.32 9.9q.79 1.24 1.02-.22l.09-.55q.89 1.83 1.1 2.67 2.95 11.93 5.54 24.83a.57.57 0 00.73.43q2.6-.85 5.12.44a.85.85 0 001.24-.84c-.99-10.04-6.18-22.33-10.19-31.6-1.58-3.68-3.17-8.31-5.82-12.27a1.42 1.37-7.2 00-.75-.56q-2.71-.89-5.52-1.02-29.86-1.49-59.74.13l-.01-1.46a1.75 1.68 62.3 01.27-.93c19.88-31.1 65.14-30.97 83.6 2.39a1.57 1.57 0 00.69.66c20.53 10.26 31.86 27.24 28.37 50.81q-.43 2.94-2.04 9.74a1.04 1.03 32.2 00.21.9q10.57 12.55 11.13 29.01a1.49 1.45 24.5 00.35.89q1.12 1.32 3.88 3.33 5.9 4.3 7.96 11.17c5.99 19.88-16.09 37.96-33.95 26.71a.82.79 44.8 00-.85-.01c-15.39 9.15-33.62 9.65-49.23.86a.84.82 43.2 00-.86.02q-1.81 1.15-3.47 2.48c-12.13 9.72-31.2 9.7-43.93 1.72-2.43-1.53-3.83-3.89-6.01-5.9a1.37 1.35 68.1 00-.85-.37l-9.49-.74zm108.32-104.28c5.31 7.23 4.61 14.73 2.36 22.97a.72.72 0 00.35.82l2.7 1.46a.7.69 32.7 00.89-.19q1.16-1.52 1.68-4.21c3.07-15.72-3.63-29.39-20.34-32.49q-1.23-.23-2.19.36a.48.48 0 00.1.86q8.92 2.88 14.45 10.42zm-.48 95.35a.36.35-58.5 01.16.67c-32.05 16.92-60.31-9.13-45.9-42.7 3.67-8.55 11.79-16.12 19.23-21.37a.43.42 13.1 00-.45-.72q-8.94 4.85-16.49 10.72c-4.91 3.81-7.72 10.15-9.88 15.74-4.39 11.32-3.38 23.41 3.44 33.47a1.57 1.56-38.7 01-.23 2.03q-7.38 6.86-16.44 7.72c-23.61 2.24-24.33-20.73-11.5-33.5q.38-.37-.14-.26-2.3.48-4.2 2.35c-20.09 19.78.05 44.46 24.22 34.7q6.1-2.46 11.78-7.81a.58.57 42.2 01.76-.03c4.5 3.63 9.31 7.39 14.89 8.71 10.5 2.5 24.45.84 32.79-6.5a.82.81 46.9 011.11.04q8.15 8.1 19.12 3.3a.47.47 0 00-.21-.9q-12.01.55-17.27-8.43c-5.69-9.73.93-18.41 8.01-25.48q.36-.36-.15-.33c-11.03.8-15.22 14.5-14.32 23.57a.66.66 0 01-.62.73c-11.52.7-22.44-.53-25.5-13.56-.99-4.23-.5-9.51-.28-14.18a.37.37 0 00-.72-.14c-2.91 7.94-3.21 17.83 2.06 24.61 6.67 8.58 16.87 7.5 26.73 7.55zM349.99 116.19c-5.15 1.05-16.76 3.15-20.74 6.35q-.84.02-1.12-.18c-21.13-15.28-48.87-8.97-64.55 10.71a.49.49 0 01-.69.07c-13.53-11.18-34.29-7.23-41.31 9.25-1.72 4.02-1 8.15.28 12.13a.59.59 0 001.15-.17c.2-12.36 8.66-22.67 21.45-23.29 5.17-.25 10.1 2.21 14.49 4.87q1.77 1.07.75 2.88c-2.63 4.67-5.5 9.89-5.21 15.41a.88.88 0 01-.85.93c-18.38.68-34.74 6.62-45.18 22.82q-3.03 4.71-7.16 12.46a.7.7 0 01-.72.37c-17.43-2.25-32.37 4.15-35.27 23.06-1.91 12.44 4.48 22.12 15.4 27.35 5.29 2.54 12.79 1.67 18.44.97a.32.32 0 00-.02-.63c-4.92-.26-10.75.29-15.06-1.35-10.28-3.92-16.54-14.04-14.93-25.07 2.41-16.57 16.24-22.2 31.37-20.41a.54.54 0 01.47.56c-.91 16.72 1.03 30.23 20.76 33.09a.5.5 0 00.22-.98c-30.89-9.7-16.9-46.49 2.44-59.55 11.93-8.05 26-7.48 39.93-6.42a.44.43 14.2 01.37.61l-3.7 8.31a1.3 1.28 1.5 01-.74.69q-3.41 1.24-6.7 2.63c-19.84 8.42-27.41 31.85-11.97 48.5q11.28 12.17 28.21 7.83.98 2.14.94 4.93a.59.58 87.2 01-.51.57c-9.76 1.14-19.31 3.75-28.97 5.41q-8.67.06-16.51 3.64l-11.47 2.7-4.28-1.17a1.32 1.3-49 00-.9.07c-7.11 3.25-15.43 6.11-23.13 5.19q-9.24-1.1-16.06-6.5c-26.33-20.85-13.67-59.55 18.8-63.81a.78.77 5.2 00.65-.53q5.28-16.32 18.22-27.67.82-.72.77-2.6c-.57-22.15 15.09-39.37 37.68-38.4 5.19.22 10.29 2.75 15.21 4.77a.77.76-54.8 00.83-.15c6.5-6.22 10.49-10.9 19.84-14.98q33.16-14.45 62.05 6.58 3.71 2.71 7.03 8.15zM52.8 103.92l1.64 1.65q.4.39-.16.4-2.46.02-2.43-1.66.02-1.32.95-.39z"/><path fill="#1d1c1b" d="M459.04 128q-2.54-5.5-6.45-10.13a1.32 1.29-15.6 00-.82-.45c-11.82-1.53-23.51-1-39.7-.91-24.78.14-50.85 3.61-74.96 9.43a.45.45 0 00-.27.67l2.89 4.62a1.1 1.08 76.8 00.79.5q.62.08 1.23-.27 10.6-.79 21.18-1.82c7.61-.75 15.03-.61 22.64-.77q26.35-.55 52.28 4.13c3.07.56 6.37.59 9.62 2.34a1.53 1.52 4.1 01.69.79q4.01 10.4 4.34 21.58a.69.68-9.9 01-.47.66q-18.7 5.95-27.22 23.56c-.32.67-1.25 1.31-1.81 1.78-15.98-.23-31.81.96-47.74 1.47-12.99.42-28.02 1.98-38.78 2.63-8.1.48-16.09.61-24.09 2.01a1.3 1.26-74.7 00-.79.47c-4.88 6.19-12.6 14.43-15.19 21.78-1.74 4.92-5.28 10.44-6.3 15.33a.45.45 0 00.45.54c7.04-.19 13.95-1.9 19.8-2.8q12.61-1.93 25.36-2.13c10.71-.17 20.97-1.38 31.53-1.47l-4.79 5.89a1.19 1.17-71.5 01-.84.43l-22.87 1.18q-15.05-.38-30 1.5-2.86-.35-5.5.67c-7.09.1-15.75.89-19.25-1l-4.71-3.21-.48-.86a.7.7 0 00-.68-.34q-2.72.28-4.37 2.33a1.2 1.19-30.9 00-.25.97q.32 1.78 1.49 3.19l2.46 4.21.52 1.25a.65.64-12.4 00.64.4q24.88-1.86 49.62-4.95 6.07-.21 12.03-1.2c7.42-1.24 13.92-1.5 20.99-2.41a.55.55 0 01.62.5l.45 5.04a.53.53 0 01-.47.57c-6.01.73-11.08 1.4-17.73 1.88q-3.37.25-6.61 1.24-.5.15.02.2c7.44.7 15.68.33 22.27.87q8.37.68 16.71 1.6-8.18 1.61-16.22 3.5c-18.55 4.38-39.08 8.14-54.31 12.21q-41.84 11.2-54.25 14.78c-9.87 2.85-24.55 6.55-29.94 13.15-3.15 3.85-3.17 8.64 2.16 10.47q19.47 6.66 39.66 10.34c29.61 5.39 58.81 12.51 87.84 20.45a.38.37 7.7 00.48-.36q-.09-11.92.5-23.66c.8-15.73 20.38-19.04 31-12.45 5.34 3.31 7.55 13 7.72 18.64q.49 15.6.83 31.26a1.2 1.2 0 00.79 1.1c14.56 5.26 28.36 11.76 41.51 20.26 6.03 3.9 12.91 8.07 17.97 12.16 19.73 15.96 35.26 41.83 23.97 68.19q-2.4 5.58-9.39 14.81c-20.44 27-54.04 42.69-85.27 58.98-24.84 12.96-53.05 21.89-80.14 28.76-28.85 7.31-57.65 15.25-86.9 20.85a1.1 1.09-30.2 01-.89-.23q-30.4-25.71-50.17-40.67c-17.47-13.23-37.52-24.34-56.66-35.4-1.66-.96-3.61-1.45-5.36-2.47q-.87-.5.13-.57 1.19-.07 2.33.41.45.18.92.18c3.85.01 7.76.18 11.53-.11q29.8-2.29 51.39-6.6 15.67-3.12 20.53-3.95a.58.57 84.8 00.48-.58q-.34-14.98-.15-41.44c.11-14.25 8.96-17.38 20.69-18.93 18.53-2.45 22.46 9.46 22.34 24.93q-.1 12.99.35 25.97a.39.38 80.7 00.49.36c14.23-4.02 28.43-7.91 41.97-14.02q23.35-10.54 34.38-16.71 4.83-2.7 15.15-11.23c5.17-4.28 9.03-6.76 10.15-13.93 2.07-13.37-5.31-17.8-16.44-24.2q-15.67-9.02-32.97-14.37c-20.76-6.42-41.23-13.43-62.09-19.57-30.45-8.96-60.48-20.97-89.5-33.75-6.77-2.98-13.04-6.53-17.17-12.31-9.23-12.92 5.78-26.95 16.4-32.61q18.28-9.76 39.96-15.5 26.42-7 40.96-10.39l11.47-2.7 16.51-3.64c9.66-1.66 19.21-4.27 28.97-5.41a.59.58 87.2 00.51-.57q.04-2.79-.94-4.93l-.37-3.67q-.84-1.89 1.57-3.03 2.63-1.96 3.29-5.29l3.46-4.21 2.79-3.54 17.19-21.84a1.58 1.57 11 01.79-.53q13.05-3.6 26.5-4.91c7.44-.73 15.87-2.07 23.9-2.27a1.19 1.19 0 001.16-1.26q-.3-5.75 1.67-10.9l2.79-1.29q22.34-4.23 45.03-3.6c3.46.1 7.77.83 11.73.89a1.56 1.52-61.1 00.9-.27c6.15-4.18 9.31-13.14 9.23-20.24a.71.71 0 00-.56-.69q-17.67-3.68-35.37-3.3-11.5-.69-23 0l-8.25.67-4.75.25q-3.62-.34-7 .83l-10.09 1.92a1.92 1.9-40.6 01-.96-.07c-2.89-1.04-10.87-3.6-11.22-7.84a1.36 1.33 61.2 01.25-.9l5.77-8.11q2.09-1.71 3-4.25c3.98-3.2 15.59-5.3 20.74-6.35q21.78-4.16 29.76-4.7 7.58-.51 11-1.28 29.88-1.62 59.74-.13 2.81.13 5.52 1.02a1.42 1.37-7.2 01.75.56c2.65 3.96 4.24 8.59 5.82 12.27 4.01 9.27 9.2 21.56 10.19 31.6a.85.85 0 01-1.24.84q-2.52-1.29-5.12-.44a.57.57 0 01-.73-.43q-2.59-12.9-5.54-24.83-.21-.84-1.1-2.67zm-30.33 17.59q-.68 2.8-1.08 5.61c-1.04 7.43-5.69 14.33-10.92 19.54-1.62 1.62-3.26 6.41.32 6.91 5.88.81 6.79-1.82 8.85-6.82q4.34-10.57 4.28-22.11c-.01-1.02.45-2.25-.4-3.35a.6.59 32.9 00-1.05.22zm-46.03 27.58l.22 4.9a.76.76 0 00.7.72l.85.06a.48.48 0 00.5-.61q-.91-3.19.11-6.29a.89.89 0 00-.96-1.16l-1.32.17a.55.54-12.6 00-.45.7l.17.52q.15.48.18.99zm9.696-1.795a.61.61 0 00-.626-.594l-.76.02a.61.61 0 00-.593.626l.167 6.378a.61.61 0 00.626.594l.76-.02a.61.61 0 00.593-.626l-.167-6.378zm-20.006 1.275c1.65 1.78.82 3.74.86 5.61a.67.67 0 00.65.66l2.81.11a.55.55 0 00.55-.72q-.88-2.85-.14-5.78a1.02 1.02 0 00-.82-1.25q-2.05-.36-3.76.53a.54.53 55.2 00-.15.84zm-14.59 1.31c-.02 1.83.34 4.05-1.19 5.4a.34.33 42.5 00.03.52l.39.27a1.15 1.14 57.8 00.86.2q4.17-.75 8.37-.49a.81.8-73.3 00.75-.41c1.3-2.2-.11-4.29.99-5.84a.94.93 52.4 00.11-.86c-.51-1.32-8.22.53-9.81.67a.56.55-2.3 00-.5.54zm-58.48 23.67q-10.59 11.26-18.56 24.51a.68.67 38.5 00.1.83l2.39 2.39a.53.52-49.9 00.8-.07c2.5-3.53 4.26-7.44 6.51-11.18 5.15-8.51 8.15-15.55 16.34-22.97a.24.23 40.9 00-.03-.37c-.92-.6-6.79 6.05-7.55 6.86zm-50.32 50.03c5.2 1.26 10.3 2.11 15.51.7 6.36-1.72 12.58-3.26 19.07-4.48q.51-.1.02-.26-2.55-.88-5.25-.92c-3.29-.05-6.87-1.12-10.02-.17q-11.45 3.46-19.32 4.91-.54.1-.01.22zm-8.03 6.56c-3.62-.3-8.15-1.84-11.53-.93-6.8 1.83-13.39 4.17-20.2 5.79q-.54.13-.02.32c4.12 1.57 7.51 2.07 12.02.84q10.26-2.8 19.78-5.41 1.68-.46-.05-.61zm-67.43 19.31q4.36.05 8.53 1.32a1.41 1.38-47.4 00.93-.05l17.69-7.61q.44-.19-.03-.3c-10.53-2.51-18.41.65-27.32 5.9q-1.24.72.2.74zm-3.31 7.99l-5.89-.72a.98.95-64.3 00-.82.3c-4.18 4.44-6.21 6.46-5.16 13.06a.67.66 83.9 00.7.57l8.13-.49a.38.38 0 00.31-.57c-2.91-4.86.47-7.63 3.15-11.16a.62.62 0 00-.42-.99zm205.29 24.44q3.87 1.04 7.59-.23a.67.67 0 00.46-.66q-.35-11.94-12.8-10.78-7.82-.75-11.85 5.28a.61.6-63.9 00.31.91l16.29 5.48zm-198.49 1.88q11.71 4.23 23.95 6.57.53.1.95.44 1.4 1.12 2.92-.06a1.58 1.55 22.4 01.77-.31q6.08-.68 11.92-2.41 1.03-.31-.01-.59-11.24-3.04-22.47-6.11c-6.88-1.88-11.88.2-17.96 1.48a.52.52 0 00-.07.99zm199.7 26.41l7.83 2.88a.37.37 0 00.49-.37q-.62-10.09-.07-20.17a.43.43 0 00-.61-.42q-3.99 1.79-8.85 1.62c-5.26-.35-9.81-2.52-14.78-4.43a1.39 1.39 0 00-1.89 1.32l.23 12.85a1.74 1.73 8.1 001.23 1.63l16.42 5.09zm-120.27-4.94q9.89 3.4 18.39-1.11.45-.24-.04-.39-10.59-3.18-21.2-6.31c-4.18-1.23-11.97 1.7-16.47 2.48a.33.33 0 00.01.65q9.7 1.38 19.31 4.68zm38.24 12.98q14.96 5.37 29.36 10.1 2.12.69 4.15.24 4.41-.98 8.63-2.66.46-.19.01-.4-13.22-6.2-27.16-10.4-1.9-.58-3.92-.1c-3.1.73-8.71.93-11.13 2.91q-.24.2.06.31zm85.13 4.822a1.35.7 99.4 00.91-1.218 1.35.7 99.4 00-.47-1.446 1.35.7 99.4 00-.91 1.218 1.35.7 99.4 00.47 1.446zm-8.785 5.26a1.18 1.02 77.5 00.74-1.373 1.18 1.02 77.5 00-1.25-.931 1.18 1.02 77.5 00-.74 1.373 1.18 1.02 77.5 001.25.931zm3.421 6.248a1.03.78 131.6 001.267-.252 1.03.78 131.6 00.1-1.288 1.03.78 131.6 00-1.266.252 1.03.78 131.6 00-.1 1.288zm-19.326 8.52c9.69 5.27 19.42 9.74 28.76 15.54a1.13 1.1-38.1 00.94.1l10.48-3.79a.35.35 0 00.12-.58q-1.36-1.27-4.11-2.73-10.62-5.61-21.41-10.96c-4.11-2.04-10.86.19-14.76 1.91a.29.28 47.5 00-.02.51zm10.87 12.75c.14-.45.01-1.56-.68-1.42a.67.67 0 00-.52.83q.46 1.75 1.91 2.95.96.79.27-.24l-.85-1.26a1.01 1.01 0 01-.13-.86zm-1.73 19.72a.33.33 0 00.53-.31l-.24-1.52a.5.5 0 00-.99-.02q-.23 1.13.7 1.85zm22.63 34.61c4.9 0 9.67.89 14.38 2.17a.68.67 22.9 00.75-.3c5.62-9.24 10.52-15.47 9.93-27.04a.68.68 0 00-.6-.64l-10.06-1.23a.67.67 0 00-.75.69c.28 8.82-7.59 19.9-13.95 25.55a.46.46 0 00.3.8zm-171.71 1.6l8.6-4.37a.56.56 0 00.29-.66q-1.49-5.4-5.74-8.99a1.39 1.38-25.7 00-.95-.33l-2.38.07c-10.71-.46-22.71 3.77-20.05 17.16 1.42 7.19 17.15-1.01 20.23-2.88zm-.22 15.43q-9.29 5.14-19.71 2.19a.41.4-82.6 00-.51.4l.33 19.42a.51.5-4.5 00.58.49q10.74-1.64 21.1-4.54l7.44-1.08a.71.7-4.6 00.61-.71l-.17-21.36q-.01-.74-.64-.35l-9.03 5.54zm93.35 26.97l12.65 5.79a1.41 1.39 48.1 001.02.06c13.12-4.34 25.8-9.68 37.75-16.62q5.4-3.14 10.86-6.2.65-.36-.07-.55l-13.85-3.68a1.46 1.44 40.3 00-.95.07c-15.65 6.71-32.31 12.81-47.42 20.56q-.59.3.01.57zm-33.3 23.55c-4.29-1.15-9.63-4.14-13.66-6.18a1.24 1.21-39.9 00-.94-.07c-19.35 6.12-38.46 12.81-58.18 17.92a.49.49 0 00-.13.89l12.96 7.8a1.11 1.08 51.5 00.88.11q29.7-8.95 58.87-19.53a.48.47 89 00.29-.31l.1-.29a.28.27 16.8 00-.19-.34z"/><path fill="#fff" d="M329.25 122.54q-.91 2.54-3 4.25c-2.93-1.47-5.56-3.89-8.25-5.07-20.32-8.96-42.56 1.36-54.17 19.1q-4.35 6.66-4.56 15.11a.41.4 85.4 00.47.41c3.02-.59 6.7.36 9.84.49a.92.92 0 00.79-.39c8.62-12.24 31.39-12.69 44.09-9.35 6.03 1.59 9.42 4.01 12.79 8.98a.34.33 5.9 01-.52.42c-5.08-5.21-10.97-6.31-18.73-7.3-12.99-1.67-28.27.83-37.05 11.6-6.85 8.41-9.07 17.56-8.51 28.6.49 9.88 8.26 18.53 18.1 20.86l-2.79 3.54c-16.84-5.31-21.9-20.45-18.05-36.54a.94.94 0 00-1.15-1.13c-12.34 3.22-21.83 14.58-20.48 27.94 1.58 15.58 15.83 26.73 31.36 22.26l.37 3.67q-16.93 4.34-28.21-7.83c-15.44-16.65-7.87-40.08 11.97-48.5q3.29-1.39 6.7-2.63a1.3 1.28 1.5 00.74-.69l3.7-8.31a.44.43 14.2 00-.37-.61c-13.93-1.06-28-1.63-39.93 6.42-19.34 13.06-33.33 49.85-2.44 59.55a.5.5 0 01-.22.98c-19.73-2.86-21.67-16.37-20.76-33.09a.54.54 0 00-.47-.56c-15.13-1.79-28.96 3.84-31.37 20.41-1.61 11.03 4.65 21.15 14.93 25.07 4.31 1.64 10.14 1.09 15.06 1.35a.32.32 0 01.02.63c-5.65.7-13.15 1.57-18.44-.97-10.92-5.23-17.31-14.91-15.4-27.35 2.9-18.91 17.84-25.31 35.27-23.06a.7.7 0 00.72-.37q4.13-7.75 7.16-12.46c10.44-16.2 26.8-22.14 45.18-22.82a.88.88 0 00.85-.93c-.29-5.52 2.58-10.74 5.21-15.41q1.02-1.81-.75-2.88c-4.39-2.66-9.32-5.12-14.49-4.87-12.79.62-21.25 10.93-21.45 23.29a.59.59 0 01-1.15.17c-1.28-3.98-2-8.11-.28-12.13 7.02-16.48 27.78-20.43 41.31-9.25a.49.49 0 00.69-.07c15.68-19.68 43.42-25.99 64.55-10.71q.28.2 1.12.18zM459.04 128l-.09.55q-.23 1.46-1.02.22l-6.32-9.9a.95.92 73 00-.78-.43q-24.38.16-48.72 1.09c-19.19.74-37.25 4.42-55.63 9.81-1.61.47-3.16 1.42-4.73 2.12q-.61.35-1.23.27a1.1 1.08 76.8 01-.79-.5l-2.89-4.62a.45.45 0 01.27-.67c24.11-5.82 50.18-9.29 74.96-9.43 16.19-.09 27.88-.62 39.7.91a1.32 1.29-15.6 01.82.45q3.91 4.63 6.45 10.13z"/><path fill="#949799" d="M326.25 126.79l-5.77 8.11a1.36 1.33 61.2 00-.25.9c.35 4.24 8.33 6.8 11.22 7.84a1.92 1.9-40.6 00.96.07l10.09-1.92q1.31 2.84 2.9 5.54c3.63 6.14 4.89 13.24 4.82 20.31a.82.82 0 00.47.74q.47.21 1.06.16-1.97 5.15-1.67 10.9a1.19 1.19 0 01-1.16 1.26c-8.03.2-16.46 1.54-23.9 2.27q-13.45 1.31-26.5 4.91a1.58 1.57 11 00-.79.53l-17.19 21.84c-9.84-2.33-17.61-10.98-18.1-20.86-.56-11.04 1.66-20.19 8.51-28.6 8.78-10.77 24.06-13.27 37.05-11.6 7.76.99 13.65 2.09 18.73 7.3a.34.33 5.9 00.52-.42c-3.37-4.97-6.76-7.39-12.79-8.98-12.7-3.34-35.47-2.89-44.09 9.35a.92.92 0 01-.79.39c-3.14-.13-6.82-1.08-9.84-.49a.41.4 85.4 01-.47-.41q.21-8.45 4.56-15.11c11.61-17.74 33.85-28.06 54.17-19.1 2.69 1.18 5.32 3.6 8.25 5.07z"/><path fill="#fff" d="M487.2 160.18c2.25-8.24 2.95-15.74-2.36-22.97q-5.53-7.54-14.45-10.42a.48.48 0 01-.1-.86q.96-.59 2.19-.36c16.71 3.1 23.41 16.77 20.34 32.49q-.52 2.69-1.68 4.21a.7.69 32.7 01-.89.19l-2.7-1.46a.72.72 0 01-.35-.82z"/><path fill="#fbfddf" d="M385.5 140.04q.39 5.03 2.88 9.48a.77.77 0 01-.85 1.13q-11.58-2.74-22.23 2.38a.4.4 0 01-.57-.29l-2.23-12.7q11.5-.69 23 0z"/><path fill="#949799" d="M354.54 167.25q-.61-3.23-.61-6.51c-.01-6.84-1.85-12.14-5.52-17.81a.57.56 54.1 01.12-.75q1.12-.89 2.47-.72l4.07.01a.18.18 0 00.18-.18v-.26a.25.25 0 00-.23-.25l-.77-.07 8.25-.67 2.23 12.7a.4.4 0 00.57.29q10.65-5.12 22.23-2.38a.77.77 0 00.85-1.13q-2.49-4.45-2.88-9.48 17.7-.38 35.37 3.3a.71.71 0 01.56.69c.08 7.1-3.08 16.06-9.23 20.24a1.56 1.52-61.1 01-.9.27c-3.96-.06-8.27-.79-11.73-.89q-22.69-.63-45.03 3.6z"/><path fill="#fbfddf" d="M354.25 140.71l.77.07a.25.25 0 01.23.25v.26a.18.18 0 01-.18.18l-4.07-.01q-.44-.77-1.5-.5l4.75-.25z"/><path fill="#fff" d="M349.5 140.96q1.06-.27 1.5.5-1.35-.17-2.47.72a.57.56 54.1 00-.12.75c3.67 5.67 5.51 10.97 5.52 17.81q0 3.28.61 6.51l-2.79 1.29q-.59.05-1.06-.16a.82.82 0 01-.47-.74c.07-7.07-1.19-14.17-4.82-20.31q-1.59-2.7-2.9-5.54 3.38-1.17 7-.83z"/><path fill="#949799" d="M428.71 145.59a.6.59 32.9 011.05-.22c.85 1.1.39 2.33.4 3.35q.06 11.54-4.28 22.11c-2.06 5-2.97 7.63-8.85 6.82-3.58-.5-1.94-5.29-.32-6.91 5.23-5.21 9.88-12.11 10.92-19.54q.4-2.81 1.08-5.61z"/><path fill="#fff" d="M484.36 232.56c-9.86-.05-20.06 1.03-26.73-7.55-5.27-6.78-4.97-16.67-2.06-24.61a.37.37 0 01.72.14c-.22 4.67-.71 9.95.28 14.18 3.06 13.03 13.98 14.26 25.5 13.56a.66.66 0 00.62-.73c-.9-9.07 3.29-22.77 14.32-23.57q.51-.03.15.33c-7.08 7.07-13.7 15.75-8.01 25.48q5.26 8.98 17.27 8.43a.47.47 0 01.21.9q-10.97 4.8-19.12-3.3a.82.81 46.9 00-1.11-.04c-8.34 7.34-22.29 9-32.79 6.5-5.58-1.32-10.39-5.08-14.89-8.71a.58.57 42.2 00-.76.03q-5.68 5.35-11.78 7.81c-24.17 9.76-44.31-14.92-24.22-34.7q1.9-1.87 4.2-2.35.52-.11.14.26c-12.83 12.77-12.11 35.74 11.5 33.5q9.06-.86 16.44-7.72a1.57 1.56-38.7 00.23-2.03c-6.82-10.06-7.83-22.15-3.44-33.47 2.16-5.59 4.97-11.93 9.88-15.74q7.55-5.87 16.49-10.72a.43.42 13.1 01.45.72c-7.44 5.25-15.56 12.82-19.23 21.37-14.41 33.57 13.85 59.62 45.9 42.7a.36.35-58.5 00-.16-.67z"/><path fill="#949799" d="M382.5 172.18l-.17-.52a.55.54-12.6 01.45-.7l1.32-.17a.89.89 0 01.96 1.16q-1.02 3.1-.11 6.29a.48.48 0 01-.5.61l-.85-.06a.76.76 0 01-.7-.72l-.22-4.9q-.03-.51-.18-.99z"/><rect fill="#949799" x="-.99" y="-3.8" transform="rotate(-1.5 6864.2 -14864.903)" width="1.98" height="7.6" rx=".61"/><path fill="#949799" d="M373.23 178.26c-.04-1.87.79-3.83-.86-5.61a.54.53 55.2 01.15-.84q1.71-.89 3.76-.53a1.02 1.02 0 01.82 1.25q-.74 2.93.14 5.78a.55.55 0 01-.55.72l-2.81-.11a.67.67 0 01-.65-.66zM356.59 179.36c1.53-1.35 1.17-3.57 1.19-5.4a.56.55-2.3 01.5-.54c1.59-.14 9.3-1.99 9.81-.67a.94.93 52.4 01-.11.86c-1.1 1.55.31 3.64-.99 5.84a.81.8-73.3 01-.75.41q-4.2-.26-8.37.49a1.15 1.14 57.8 01-.86-.2l-.39-.27a.34.33 42.5 01-.03-.52zM277.75 213.79l-3.46 4.21q-1.49-.15-1.79 1.46-.09.48-.39.87-1 1.33-1.11 2.96-2.41 1.14-1.57 3.03c-15.53 4.47-29.78-6.68-31.36-22.26-1.35-13.36 8.14-24.72 20.48-27.94a.94.94 0 011.15 1.13c-3.85 16.09 1.21 31.23 18.05 36.54z"/><path fill="#fff" d="M423 183.71l.34.03a.27.27 0 01.21.38l-2.55 5.34q-41.66.5-83.15 4.24c-6.09.56-15.89.35-23.85 2.09l-.33-.04a.84.82-62.8 00-.68.23c-6.29 6.12-10.29 13.47-15.17 21.85q-1.19 2.05-2.4 6.34-.27.94.45.28.9-.82 1.37-1.95a1.8 1.77 84.1 01.63-.79c7.71-5.51 12.98-11.2 19.75-16.63 3.61-2.9 12.07-3.22 16.2-3.39q1.39-.06 2.32-.75a1.72 1.69 23.8 01.88-.33q10.89-.8 21.48-3.32 18.14-.4 36.25-1.54.91-.06 4.25-1.29.43.01.62.27a.45.45 0 01-.19.68c-2.32.99-4.42.98-6.65 2.23q-2.23 1.26-4.04 1.33-9.42.4-18.81 1.42-1.45.16-1.09 1.4a.83.83 0 00.77.59l16.42.49a.37.37 0 01.31.55l-2.36 4.36a1.04 1.02 9.3 01-.75.53l-4.18.64a.4.39 76.7 00-.31.51l.09.29a.24.23 81.5 00.22.17l3.34.1a.37.37 0 01.31.55l-1.92 3.32a1.61 1.57-85.1 01-.79.68q-6.8 2.73-12.74 6.97c-10.56.09-20.82 1.3-31.53 1.47q-12.75.2-25.36 2.13c-5.85.9-12.76 2.61-19.8 2.8a.45.45 0 01-.45-.54c1.02-4.89 4.56-10.41 6.3-15.33 2.59-7.35 10.31-15.59 15.19-21.78a1.3 1.26-74.7 01.79-.47c8-1.4 15.99-1.53 24.09-2.01 10.76-.65 25.79-2.21 38.78-2.63 15.93-.51 31.76-1.7 47.74-1.47z"/><path fill="#1d1c1b" d="M421 189.46q-7.56 2.9-15.75 3.04-1.78.03-6.25 1.96-3.34 1.23-4.25 1.29-18.11 1.14-36.25 1.54l-43.9-.59a.63.63 0 01-.61-.51q-.04-.18.01-.4c7.96-1.74 17.76-1.53 23.85-2.09q41.49-3.74 83.15-4.24z"/><path fill="#949799" d="M299.3 197.63c.76-.81 6.63-7.46 7.55-6.86a.24.23 40.9 01.03.37c-8.19 7.42-11.19 14.46-16.34 22.97-2.25 3.74-4.01 7.65-6.51 11.18a.53.52-49.9 01-.8.07l-2.39-2.39a.68.67 38.5 01-.1-.83q7.97-13.25 18.56-24.51zM314 195.79q-.05.22-.01.4a.63.63 0 00.61.51l43.9.59q-10.59 2.52-21.48 3.32a1.72 1.69 23.8 00-.88.33q-.93.69-2.32.75c-4.13.17-12.59.49-16.2 3.39-6.77 5.43-12.04 11.12-19.75 16.63a1.8 1.77 84.1 00-.63.79q-.47 1.13-1.37 1.95-.72.66-.45-.28 1.21-4.29 2.4-6.34c4.88-8.38 8.88-15.73 15.17-21.85a.84.82-62.8 01.68-.23l.33.04z"/><path fill="#fbfddf" d="M274.29 218q-.66 3.33-3.29 5.29.11-1.63 1.11-2.96.3-.39.39-.87.3-1.61 1.79-1.46z"/><path fill="#fff" d="M279.29 227l-.03.44a.92.91-12.9 01-.45.71q-2.5 1.5-3.81 4.14-1.17-1.41-1.49-3.19a1.2 1.19-30.9 01.25-.97q1.65-2.05 4.37-2.33a.7.7 0 01.68.34l.48.86z"/><path fill="#949799" d="M279.29 227l4.71 3.21-1.32 2.01q-.27.4-.7.62-2.61 1.34-4.52 3.66l-2.46-4.21q1.31-2.64 3.81-4.14a.92.91-12.9 00.45-.71l.03-.44z"/><path fill="#fff" d="M338.75 229.04q.06.24-.01.48a.65.65 0 01-.68.45c-4.32-.38-6.38 1.82-9.82 3.23q-24.74 3.09-49.62 4.95a.65.64-12.4 01-.64-.4l-.52-1.25q1.91-2.32 4.52-3.66.43-.22.7-.62l1.32-2.01c3.5 1.89 12.16 1.1 19.25 1l5.5-.67q14.95-1.88 30-1.5z"/><path fill="#949799" d="M308.75 230.54l-5.5.67q2.64-1.02 5.5-.67z"/><path fill="#fbfddf" d="M241.26 240.9l-16.51 3.64q7.84-3.58 16.51-3.64z"/><path fill="#fff" d="M264.49 248.36c-5.21 1.41-10.31.56-15.51-.7q-.53-.12.01-.22 7.87-1.45 19.32-4.91c3.15-.95 6.73.12 10.02.17q2.7.04 5.25.92.49.16-.02.26c-6.49 1.22-12.71 2.76-19.07 4.48zM240.95 254.22q1.73.15.05.61-9.52 2.61-19.78 5.41c-4.51 1.23-7.9.73-12.02-.84q-.52-.19.02-.32c6.81-1.62 13.4-3.96 20.2-5.79 3.38-.91 7.91.63 11.53.93zM173.52 273.53q-1.44-.02-.2-.74c8.91-5.25 16.79-8.41 27.32-5.9q.47.11.03.3l-17.69 7.61a1.41 1.38-47.4 01-.93.05q-4.17-1.27-8.53-1.32zM170.21 281.52a.62.62 0 01.42.99c-2.68 3.53-6.06 6.3-3.15 11.16a.38.38 0 01-.31.57l-8.13.49a.67.66 83.9 01-.7-.57c-1.05-6.6.98-8.62 5.16-13.06a.98.95-64.3 01.82-.3l5.89.72zM370.75 294.29l2.73 3.25a1.51 1.47-67.7 01.36.89q.28 3.89 1.66 7.53l-16.29-5.48a.61.6-63.9 01-.31-.91q4.03-6.03 11.85-5.28z"/><path fill="#949799" d="M370.75 294.29q12.45-1.16 12.8 10.78a.67.67 0 01-.46.66q-3.72 1.27-7.59.23-1.38-3.64-1.66-7.53a1.51 1.47-67.7 00-.36-.89l-2.73-3.25z"/><path fill="#fff" d="M177.01 307.84a.52.52 0 01.07-.99c6.08-1.28 11.08-3.36 17.96-1.48q11.23 3.07 22.47 6.11 1.04.28.01.59-5.84 1.73-11.92 2.41a1.58 1.55 22.4 00-.77.31q-1.52 1.18-2.92.06-.42-.34-.95-.44-12.24-2.34-23.95-6.57zM375.5 317.79l.22.17a.57.57 0 01.21.55c-.77 4.66.54 10.36.78 15.74l-16.42-5.09a1.74 1.73 8.1 01-1.23-1.63l-.23-12.85a1.39 1.39 0 011.89-1.32c4.97 1.91 9.52 4.08 14.78 4.43z"/><path fill="#949799" d="M376.71 334.25c-.24-5.38-1.55-11.08-.78-15.74a.57.57 0 00-.21-.55l-.22-.17q4.86.17 8.85-1.62a.43.43 0 01.61.42q-.55 10.08.07 20.17a.37.37 0 01-.49.37l-7.83-2.88z"/><path fill="#fff" d="M256.44 329.31q-9.61-3.3-19.31-4.68a.33.33 0 01-.01-.65c4.5-.78 12.29-3.71 16.47-2.48q10.61 3.13 21.2 6.31.49.15.04.39-8.5 4.51-18.39 1.11zM294.68 342.29q-.3-.11-.06-.31c2.42-1.98 8.03-2.18 11.13-2.91q2.02-.48 3.92.1 13.94 4.2 27.16 10.4.45.21-.01.4-4.22 1.68-8.63 2.66-2.03.45-4.15-.24-14.4-4.73-29.36-10.1z"/><ellipse fill="#949799" transform="rotate(99.4 43.394 334.034)" rx="1.35" ry=".7"/><ellipse fill="#949799" transform="rotate(77.5 -33.42 406.595)" rx="1.18" ry="1.02"/><ellipse fill="#949799" transform="rotate(131.6 107.153 263.22)" rx="1.03" ry=".78"/><path fill="#fff" d="M355.12 367.14a.29.28 47.5 01.02-.51c3.9-1.72 10.65-3.95 14.76-1.91q10.79 5.35 21.41 10.96 2.75 1.46 4.11 2.73a.35.35 0 01-.12.58l-10.48 3.79a1.13 1.1-38.1 01-.94-.1c-9.34-5.8-19.07-10.27-28.76-15.54z"/><path fill="#949799" d="M366.12 380.75l.85 1.26q.69 1.03-.27.24-1.45-1.2-1.91-2.95a.67.67 0 01.52-.83c.69-.14.82.97.68 1.42a1.01 1.01 0 00.13.86zM364.26 399.61q-.93-.72-.7-1.85a.5.5 0 01.99.02l.24 1.52a.33.33 0 01-.53.31z"/><path fill="#fff" d="M401.27 436.39c-4.71-1.28-9.48-2.17-14.38-2.17a.46.46 0 01-.3-.8c6.36-5.65 14.23-16.73 13.95-25.55a.67.67 0 01.75-.69l10.06 1.23a.68.68 0 01.6.64c.59 11.57-4.31 17.8-9.93 27.04a.68.67 22.9 01-.75.3zM215 421.54l.18 14.28c-3.08 1.87-18.81 10.07-20.23 2.88-2.66-13.39 9.34-17.62 20.05-17.16z"/><path fill="#949799" d="M215 421.54l2.38-.07a1.39 1.38-25.7 01.95.33q4.25 3.59 5.74 8.99a.56.56 0 01-.29.66l-8.6 4.37-.18-14.28zM216.75 469.21l-.96-1.31a1.7 1.61-65.5 01-.31-.91l-.52-15.74 9.03-5.54q.63-.39.64.35l.17 21.36a.71.7-4.6 01-.61.71l-7.44 1.08z"/><path fill="#fff" d="M214.96 451.25l.52 15.74a1.7 1.61-65.5 00.31.91l.96 1.31q-10.36 2.9-21.1 4.54a.51.5-4.5 01-.58-.49l-.33-19.42a.41.4-82.6 01.51-.4q10.42 2.95 19.71-2.19zM308.31 478.22q-.6-.27-.01-.57c15.11-7.75 31.77-13.85 47.42-20.56a1.46 1.44 40.3 01.95-.07l13.85 3.68q.72.19.07.55-5.46 3.06-10.86 6.2c-11.95 6.94-24.63 12.28-37.75 16.62a1.41 1.39 48.1 01-1.02-.06l-12.65-5.79zM12.25 586.21l-7.44-.02a.5.5 0 01-.5-.5l-.02-120.94.34-.06A.33.32-4.8 015 465v.29a.28.28 0 00.18.26q3.11 1.33 3.22 4.27c.72 19.4.18 45.13.93 68.92q.61 19.13 1.2 38.26.07 2.52 1.72 9.21zM261.35 495.59c4.03 2.04 9.37 5.03 13.66 6.18a.28.27 16.8 01.19.34l-.1.29a.48.47 89 01-.29.31q-29.17 10.58-58.87 19.53a1.11 1.08 51.5 01-.88-.11l-12.96-7.8a.49.49 0 01.13-.89c19.72-5.11 38.83-11.8 58.18-17.92a1.24 1.21-39.9 01.94.07zM590.29 589.75l.71.31v.94h-1.06l-.19-.71.54-.54z"/><path fill="#fbfddf" d="M589.75 590.29l.19.71h-2.25q-2.38-.63-4.75 0h-6.5q-3.38-.63-6.75 0H32.44l-6.69-.21-8.06.21h-.5q-7.88-.63-15.75 0H.69l-.19-.47a.34.34 0 01.32-.47l588.93.23z"/><path fill="#1d1c1b" d="M17.19 591H1.44q7.87-.63 15.75 0z"/><path fill="#949799" d="M25.75 590.79l-.06.21h-8l8.06-.21z"/><path fill="#1d1c1b" d="M25.75 590.79l6.69.21h-6.75l.06-.21zM576.44 591h-6.75q3.37-.63 6.75 0zM587.69 591h-4.75q2.37-.63 4.75 0z"/></svg>