<svg xmlns="http://www.w3.org/2000/svg" viewBox="0 0 591 591"><g stroke-width="2" fill="none"><path stroke="#c8cabc" vector-effect="non-scaling-stroke" d="M591 2.56l-.37-1.98a.38.38 0 00-.55-.27q-.21.11-.33.4"/><path stroke="#4b4c4c" vector-effect="non-scaling-stroke" d="M589.75.71q-.87.14-1.75.14Q294 .97 0 .94"/><path stroke="#fdfef0" vector-effect="non-scaling-stroke" d="M591 590.06l-.75-.35"/><path stroke="#7e7f70" vector-effect="non-scaling-stroke" d="M590.25 589.71l-.06-588.36a.61.6-70.8 00-.22-.47l-.22-.17"/><path stroke="gray" vector-effect="non-scaling-stroke" d="M590.25 589.71l-.54.54"/><path stroke="#7e7f70" vector-effect="non-scaling-stroke" d="M589.71 590.25q-294.2-.03-588.4-.19-.65 0-1.31-.12M585.5 5.52a.26.26 0 00-.26-.26H5.5a.26.26 0 00-.26.26v579.72a.26.26 0 00.26.26h579.74a.26.26 0 00.26-.26V5.52"/><path stroke="#faf0c7" vector-effect="non-scaling-stroke" d="M87.6 41.79c2.17-2.19 6.03-5.43 8.51-8.79a.82.81 22.2 00-.55-1.29c-13.66-2.03-29.7-.76-43.55-.2-14.64.58-19.78 7-20.29 21.28q-.72 20.5-.23 41.02.02.88.13 1.56a.69.68 66.5 001.1.44q1.59-1.24 2.86-2.48 26.18-25.6 52.02-51.54"/><path stroke="#8d8e7f" vector-effect="non-scaling-stroke" d="M323 214.71q-7.85.27-14.33 4.64c-1.49 1-2.77 1.13-4.42.78a.89.86 86.2 01-.65-.59c-1.07-3.27-.58-7.38-.59-10.81-.02-5.75-1.71-10.14-4.09-15.11a.51.51 0 01.22-.67c3.68-2.01 6.18-5.33 5.37-9.76-1.33-7.24-6.87-9.5-13.38-11.6-4.75-1.53-9.31 1.97-11.44 5.9-1.64 3.01-.82 7.48-1.12 11.04a.73.73 0 01-.52.64c-7.66 2.28-16.06 6.92-19.51 14.14-3 6.28-2.63 15.23 4.35 19.1a.54.53 29.5 00.72-.19l.9-1.5a.55.55 0 01.75-.19c5.05 3.02 3.75 7.33 4.26 12.21a1.08 1.08 0 001.13.96c4.17-.21 7.12 3.98 10.28 7.14 3.01 3.01 7.14-2.03 9.22-3.96a1.3 1.27 23.4 01.91-.35l7.55.15a.99.98 78.1 01.88.58c1.31 2.96 3.01 6.41 1.89 9.7-4.69 13.76-14.37 25.69-23.09 37.11a.41.41 0 01-.63.02c-20.65-23.06-47.55-45.49-73.63-61.88-4.96-3.12-14.87-6.47-20.45-3.15-3.72 2.22-7.59 7.71-3.56 11.69 3.66 3.61 7.39 5.89 11.68 8.61 29.28 18.58 49.62 37.56 72.21 64.5a1.19 1.17-62.5 01.27.88c-.92 8.06 5.95 6.85 8.65 11.65q3.71 6.62 7.82 12.98c6.36 9.81 10.69 17.15 15.79 25.97 3.17 5.47 5.43 11.39 8.35 17.1 6.45 12.6 10.91 25.7 16.86 38.47q4.97 10.64 7.53 22.13a.41.4-6.9 01-.39.49c-37.11.66-69.8-4.82-104.17-17.23-10.85-3.91-21.61-9.5-32.31-14.66-30.72-14.81-58.68-32.72-83.35-56.34-4.77-4.57-10.09-1.43-13.69 2.83-7.59 8.98 29.83 41.83 37.03 47.12q50.88 37.36 112.21 55.75 29.24 8.77 55.88 15.27c21.82 5.33 40.51 12.08 55.56 29.51 3.16 3.66 6.68 9.24 10.4 13.63q3.22 3.8 6.79 8.59c17.19 23.06 40.61 31.36 67.63 36.76q9.92 1.98 18.23-3.05"/><path stroke="#c8cabc" vector-effect="non-scaling-stroke" d="M459 551.71c5.91 3.62 18.85 10.81 26.55 10.48a.62.62 0 00.59-.59l.05-.81a.34.33-74.3 01.49-.28c4.28 2.39 12.14 6.54 17.57 5.78a.7.7 0 00.59-.57c1.17-6.93-4.41-19.41-7.28-26.03a.56.56 0 01.77-.72l13.46 6.92a1.83 1.82-68.5 002.58-1.13q1.08-3.79.27-8.08c-3.14-16.67-17.13-64.64-44.05-43.45a.9.89-53.3 01-.87.13q-.6-.22-1.01-.61"/><path stroke="#8d8e7f" vector-effect="non-scaling-stroke" d="M468.71 492.75c-16.38-26.96-44.8-48.49-75.3-56.63q-2.88-.77-5.11-2.33c-10.43-7.26-17.03-14.48-25.18-22.46-1.58-1.55-3.01-3.92-4.82-5.88-12.42-13.52-22.27-31.35-31.37-47.59q-11.95-21.31-25.5-41.67a1.56 1.54 29.6 01-.26-.92q.2-3.87 2.05-7.83 7.72-16.55 13.75-35.46c.59-1.84 1.77-3.95 2.64-5.73a.72.71 22 01.86-.36l7.37 2.38a1.06 1.04 3.1 01.69.76q.69 3.11.71 5.49c.1 8.29.19 16.66 3.19 24.35q5.59 14.33 13.29 27.68c3.87 6.72 8.47 13.79 10.88 20.7q2.83 8.12 3.97 16.69.07.5.41.13c3.59-3.87 7.3-7.65 9.06-12.6q2.19-6.17 2.47-12.73a.54.54 0 01.86-.41q10.83 8.22 23.74 3.46a.37.37 0 00.11-.63l-10.6-8.84q-.6-.5.16-.73 6.9-2.04 13.81-4.08c10.03-2.95 34.05.69 42.57 7.19 2.92 2.23 8.78 6.88 9.86 10.42 2.83 9.31 5.01-1.34 4.5-3.65-1.26-5.8-7.26-13.26-10.55-18.58a.99.97-13.3 00-.76-.46c-4.05-.34-7.87.5-11.74-.47q-7.11-1.78-13.39-3.97-1.85-.65-.2-1.71l17.76-11.45a.31.3-44.1 00.01-.51q-5.42-3.85-11.54-6.39-.62-.26-.04-.61c5.17-3.07 5.47-5.55 8.9-9.91a1.35 1.31 12.5 01.79-.49q10.8-2.07 21.73-3.26c5.23-.57 15.28 5.74 18.74 9.57a.83.83 0 00.91.22l2.92-1.11a.73.72-18.8 00.44-.89c-1.97-6.46-8.01-10.89-12.7-16.33a1.5 1.47-13.3 00-.81-.49q-3.24-.72-6.55-.21-10.51 1.62-21.03 1.31a.5.5 0 01-.44-.71q3.62-7.83 2.99-16.54a.36.36 0 00-.47-.32c-1.99.63-3.65 2.52-5.96 2.53a.36.36 0 01-.34-.48c2.33-6.9 4.64-17.51 3.11-24.71q-.1-.49-.45-.12c-2.68 2.91-5.14 5.96-8.43 8.16-4.03 2.71-10.48 7.49-15.37 7.83q-6.97.5-12.31-.57c-18.19-3.64-32.49-6.94-49.31-1.86q-.94.29-1.94 1.36a.47.46 52.2 01-.74-.1l-.74-1.36a.65.64-28.6 01.26-.87q4.51-2.48 9.52-3.47"/><path stroke="#c8cabc" vector-effect="non-scaling-stroke" d="M359.79 244.5q2.05.52 3.46-.71"/><path stroke="#8d8e7f" vector-effect="non-scaling-stroke" d="M363.25 243.79l3.5-.5"/><path stroke="#7e7f70" vector-effect="non-scaling-stroke" d="M366.75 243.29c3.21-.16 6.11-.82 9.34-.59q5.08.36 10.16.01"/><path stroke="#c8cabc" vector-effect="non-scaling-stroke" d="M386.25 242.71q3.94.78 7.77-.01"/><path stroke="#7e7f70" vector-effect="non-scaling-stroke" d="M394.02 242.7c11.58-1.22 20.53-1.76 32.42-7.26q5.44-2.52 14.93-11.08c8.66-7.81 12.27-16.51 15.06-27.58a.38.38 0 00-.62-.37c-6.77 6.03-17.88 5.9-25.57 1.88-12.99-6.77-21.78-13.06-36.97-11.85a.42.42 0 01-.45-.46c.44-4.64 1.22-9.55 1.2-13.82-.15-28.09-19.2-54.89-42.08-69.43-7.3-4.64-15.87-7.95-24.32-11.08a.66.66 0 00-.76 1.01c8.13 11.12 9.24 23.83 8.08 37.82q-.8 9.72-3.97 18.71c-7.76 21.95-12.49 42-7.97 65.52"/><path stroke="#4b4c4c" vector-effect="non-scaling-stroke" d="M394.02 242.7l-7.77.01"/><path stroke="#100f0f" vector-effect="non-scaling-stroke" d="M366.75 243.29l-6.19-.09a.36.36 0 01-.33-.48l.77-2.18"/><path stroke="#4b4c4c" vector-effect="non-scaling-stroke" d="M361 240.54c11.03-2.2 20.96-1.05 31.54-.98q17.9.11 33.71-8.02"/><path stroke="gray" vector-effect="non-scaling-stroke" d="M426.25 231.54q4.71-2.18 8.28-6.2"/><path stroke="#4b4c4c" vector-effect="non-scaling-stroke" d="M434.53 225.34c3.36-2.46 17.81-15.89 15.68-20.34"/><path stroke="gray" vector-effect="non-scaling-stroke" d="M450.21 205q.33-.48.36-.96a.45.45 0 00-.49-.47l-10.08.97"/><path stroke="#4b4c4c" vector-effect="non-scaling-stroke" d="M440 204.54l-8.25-1.91"/><path stroke="gray" vector-effect="non-scaling-stroke" d="M431.75 202.63l-19.35-9.58"/><path stroke="#4b4c4c" vector-effect="non-scaling-stroke" d="M412.4 193.05c-4.52-1.77-15.69-4.84-20.31-2.66a1.41 1.39-.8 00-.67.68l-6.88 14.68"/><path stroke="gray" vector-effect="non-scaling-stroke" d="M384.54 205.75l-3.29 4.76"/><path stroke="#4b4c4c" vector-effect="non-scaling-stroke" d="M381.25 210.51q-2.5 1.75-4.25 4.7"/><path stroke="gray" vector-effect="non-scaling-stroke" d="M377 215.21q-3.9 2.79-6.99 6.65"/><path stroke="#4b4c4c" vector-effect="non-scaling-stroke" d="M370.01 221.86q-9.05 7.11-19.18 13.16"/><path stroke="gray" vector-effect="non-scaling-stroke" d="M350.83 235.02q-4.07.85-7.83 2.77"/><path stroke="#100f0f" vector-effect="non-scaling-stroke" d="M343 237.79q-.82-1.47-.03-3.24"/><path stroke="#4b4c4c" vector-effect="non-scaling-stroke" d="M342.97 234.55q9.18-4.36 17.53-10.01"/><path stroke="gray" vector-effect="non-scaling-stroke" d="M360.5 224.54q12.36-8.72 20.98-21.17"/><path stroke="#4b4c4c" vector-effect="non-scaling-stroke" d="M381.48 203.37q7.11-9.73 8.23-21.87"/><path stroke="#7e7f70" vector-effect="non-scaling-stroke" d="M389.71 181.5q1.45-8.31.15-16.84"/><path stroke="#4b4c4c" vector-effect="non-scaling-stroke" d="M389.86 164.66q-.36-5.32-2.57-10.41"/><path stroke="gray" vector-effect="non-scaling-stroke" d="M387.29 154.25q-1.33-6.99-5.04-13.04"/><path stroke="#4b4c4c" vector-effect="non-scaling-stroke" d="M382.25 141.21q-4.6-9.01-11.71-16.21"/><path stroke="gray" vector-effect="non-scaling-stroke" d="M370.54 125q-2.43-4.32-6.25-7.5"/><path stroke="#4b4c4c" vector-effect="non-scaling-stroke" d="M364.29 117.5q-6.01-7.19-14.71-11.49"/><path stroke="gray" vector-effect="non-scaling-stroke" d="M349.58 106.01q-2.41-2.19-5.79-3.51"/><path stroke="#4b4c4c" vector-effect="non-scaling-stroke" d="M343.79 102.5q-4-2.39-8.47-3.64-.48-.13-.36.35c1.26 4.9 2.76 9.89 3.12 14.84q1.25 17.31-2.53 32.72c-2.29 9.36-7.45 19.95-9.16 29.42-2.23 12.44-1.81 26.11-.18 38.31"/><path stroke="#100f0f" vector-effect="non-scaling-stroke" d="M326.21 214.5q-1.65 1.02-3.21.21"/><path stroke="#c8cabc" vector-effect="non-scaling-stroke" d="M389.86 164.66q-1.7 2.07-.32 4.66a1.52 1.48 35.2 01.17.93q-.8 5.65 0 11.25"/><path stroke="#cacbcc" vector-effect="non-scaling-stroke" d="M450.21 205q-2.46 1-3.14 1.54c-14.1 11.21-28.48 13.64-46.77 14.57q-5.71.29-8.61 5.14-.26.43.25.39 5.74-.42 11.03 1.47c6.53 2.35 16.04 1.03 22.54-.32q3.5-.73 9.02-2.45M426.25 231.54c-6.25-.1-11.1 1.48-18.28.93a.8.78 16.1 00-.74.4c-1.15 2.06-4.67 6.38-7.43 5.46q-.13-.04-.08.08l.09.26a.19.19 0 01-.17.26l-4.21.27a.41.41 0 01-.43-.49l.06-.31a.9.89-1.6 01.66-.69c2.3-.57 8.66-3.33 6.24-6.28-2.88-3.49-14.21-1.63-17.92-.29-1.49.54-3.04.27-4.3.59q-17.89 4.47-35.78 8.85M350.83 235.02q14.59-2.53 28.86-6.7c5.51-1.61 9.01-3.61 12.66-7.61a1.7 1.7 0 00-1.23-2.85q-10.6-.19-21.11 4"/><path stroke="#5a5b5b" vector-effect="non-scaling-stroke" d="M337.43 222.77q2.32 2.23 3.03 5.23M341.04 231.5q-.66 3.23 1.93 3.05"/><path stroke="#8f8f8e" vector-effect="non-scaling-stroke" d="M343 237.79q-.68 1.83.96 2.79"/><path stroke="#5a5b5b" vector-effect="non-scaling-stroke" d="M343.96 240.58q.76 2.65 2.6 3.9a.91.9-39.4 00.87.08q6.52-2.91 13.57-4.02M363.25 243.79q-2-.47-3.46.71M468.71 492.75c-2.83-.57-6.17.15-7.91-2.8q-4.65-7.93-11.8-13.74"/><path stroke="#8f8f8e" vector-effect="non-scaling-stroke" d="M449 476.21q-13.06-14.97-30.45-24.76"/><path stroke="#5a5b5b" vector-effect="non-scaling-stroke" d="M418.55 451.45c-6.97-4.54-15-7.33-23.07-9.84q-.49-.15-.11.19c2.39 2.08 5.41 3.55 6.87 6.42 5.41 10.66 3.92 19.62-7.16 24.56a2.11 2.1 76.8 00-1.24 2.01q.34 8.16-5.34 10.36-4.99 1.94-9.48-1.49c-7.61-5.83-4.36-14.15-6.14-22.03-2.29-10.12.57-20.15 12.28-21.43a.46.46 0 00-.02-.92c-6.9-.41-13.84-1.29-20.54-1.28-26.74 0-58.92 2.18-86.6-2.49-7.86-1.33-15.25-2.15-22.13-3.99-36.03-9.61-69.72-25.13-102.41-45.42q-8.63-5.36-16.52-11.23c-10.79-8.04-21.66-16.33-30.99-26.08q-1.22-1.27-1.15.48c.15 3.9 8.05 13.23 10.78 16.16 25.88 27.77 57.32 44.88 91.38 59.82"/><path stroke="#8f8f8e" vector-effect="non-scaling-stroke" d="M206.96 425.25q22.5 9.32 28.55 11.24 31.86 10.1 55.76 14.94c26.61 5.38 52.6 14.6 74.72 31.33q8.14 6.15 19.21 10.99c5.94 2.6 10.88 3.18 15.69-1.17 2.39-2.16 5.17-3.61 7.26-6.04q4.71-5.5 9.64-10.79"/><path stroke="#5a5b5b" vector-effect="non-scaling-stroke" d="M417.79 475.75l1.41-1.19q.34-.29.38.15l.82 8.09a1.39 1.39 0 002.31.9q5.02-4.48 10.93-7.81.53-.3.4.3-.41 1.98 0 3.81"/><path stroke="#8d8e7f" vector-effect="non-scaling-stroke" d="M434.04 480q-.58 1.18-.52 2.46a.52.52 0 00.55.5q1.11-.08 1.68-1.25"/><path stroke="#5a5b5b" vector-effect="non-scaling-stroke" d="M435.75 481.71l3.48-2.21a.54.54 0 01.72.13q.16.23.22.51"/><path stroke="#5a5b5b" vector-effect="non-scaling-stroke" d="M440.17 480.14l.5 5.94a.54.54 0 00.9.35q1.56-1.42 3.52-1.99a.67.66 67.4 01.78.33q.26.51.17.98"/><path stroke="#8f8f8e" vector-effect="non-scaling-stroke" d="M446.04 485.75l-.2 3.94a.38.38 0 00.46.39l2.95-.62"/><path stroke="#5a5b5b" vector-effect="non-scaling-stroke" d="M449.25 489.46l2.7-1.17"/><path stroke="#8f8f8e" vector-effect="non-scaling-stroke" d="M451.95 488.29c-.24 1.85-.97 7.07 1.3 6.42"/><path stroke="#5a5b5b" vector-effect="non-scaling-stroke" d="M453.25 494.71q1.12-.24 2.11.26a.6.59 27.8 01.26.81l-6.14 11.4q-.25.46-.24.98l.01.58a.72.72 0 01-.53.71l-7.08 1.95"/><path stroke="#8d8e7f" vector-effect="non-scaling-stroke" d="M441.64 511.4q-1.04-2.52-.52-5.27a.63.62 81.6 00-.9-.67l-5.55 2.87a.5.5 0 01-.73-.47l.26-5.73q.03-.69-.58-.35l-4.29 2.42a.7.7 0 01-1.05-.57l-.32-5.92a.45.44 72.8 00-.67-.36l-4.45 2.74a.41.41 0 01-.62-.33l-.28-5.41a1.21 1.21 0 00-1.77-1.01l-4.99 2.59a.64.64 0 01-.9-.34l-1.82-4.77a.66.66 0 00-.89-.36l-1.87.84a.56.55-36.7 00-.14.93q2.55 2.16 3.71 5.19.15.39.09.8l-1.07 7.32a.38.37 85.7 00.48.42l5.88-1.75a.8.8 0 011.02.72l.37 6.26a.57.57 0 00.88.44q3.05-1.98 6.71-2.38a.4.39 86.7 01.43.39l.04 4.49a.76.76 0 00.77.75q2.66-.03 4.5-1.79.42-.41.46.18l.32 4.83a.56.56 0 00.94.38l1.41-1.27"/><path stroke="#5a5b5b" vector-effect="non-scaling-stroke" d="M436.5 517.21q1.73-.95 3.5-.42"/><path stroke="#8f8f8e" vector-effect="non-scaling-stroke" d="M440 516.79l.05 4.74a.71.71 0 001.23.47c2.17-2.35 3.73-1.6 5.67.46q10.87 11.61 21.55 23.33"/><path stroke="#5a5b5b" vector-effect="non-scaling-stroke" d="M468.5 545.79l-1.97 2.11"/><path stroke="#8f8f8e" vector-effect="non-scaling-stroke" d="M466.53 547.9l-3.59 1.51"/><path stroke="#5a5b5b" vector-effect="non-scaling-stroke" d="M462.94 549.41q-2.16.6-3.94 2.3"/><path stroke="#cacbcc" vector-effect="non-scaling-stroke" d="M343.79 102.5c5.6 14.8 5.59 33.54 3.29 48.44-.69 4.43-2.94 8.89-3.91 13.68a.99.99 0 01-.54.71c-15.38 7.64-15.09 35.51-13.11 49.71.1.75-.15 1.15-.56 1.71"/><path stroke="#5a5b5b" vector-effect="non-scaling-stroke" d="M328.96 216.75q-1.85-.57-2.75-2.25"/><path stroke="#cacbcc" vector-effect="non-scaling-stroke" d="M431.75 202.63q-1.56.77-3.52-.35-2.67-1.52-12.05-6.36a1.27 1.27 0 00-.92-.1q-2.36.65-3.56 1.89c-3.85 3.98-6.56 5.08-12.3 7.33q-8.83 3.45-18.15 5.47M349.58 106.01q2.33 22.76 1.93 34.24-.33 9.21-4.28 24.4c-.71 2.73 1.15 5.06 1.51 7.57q.75 5.24.58 10.24a.42.42 0 00.81.16q2.3-6.44 8.98-8.23a1.21 1.15-80.6 00.69-.52q1.37-2.25 1.9-5.43 2.18-13.07 4.03-26.19c.81-5.78 2.01-14 .27-19.61q-.8-2.58-1.71-5.14M370.54 125q-.32 2.92-.67 11.68-.65 15.9-6.15 36.37-.56 2.08-.22 4.41 1.8 12.16-2.41 23.76-.17.47.09.04c3.27-5.45 6.62-12.83 13.95-13.42a1.74 1.73 10.4 001.43-.98c5.82-12.16 7.26-26.88 6.26-40.17q-.21-2.8-1.13-4.86a.42.41 67.1 01.22-.55q.15-.07.34-.07M387.29 154.25c-1.34 12.63-2.69 22.22-7.09 32.84-.35.84-.43 2.48-.28 3.37q1.06 6.26 1.56 12.91M360.5 224.54q-.59.06-.84-.25a.57.57 0 01.06-.78c3.01-2.77 6.91-4.92 9.37-7.65 5.22-5.79 10.76-13.75 8.3-22.1-1.17-4-4.98-2.21-6.75.12q-14.28 18.76-28.6 37.51c-.26.35-.7.48-1 .11"/><path stroke="#8f8f8e" vector-effect="non-scaling-stroke" d="M341.04 231.5l-.58-3.5"/><path stroke="#cacbcc" vector-effect="non-scaling-stroke" d="M340.46 228c11.52-12.83 22.62-31.83 20.12-49.76a.48.48 0 00-.57-.4c-3.11.59-5.13 2.22-6.44 5.31-3.32 7.83-5.79 16.27-9.12 23.65q-3.57 7.95-7.02 15.97"/><path stroke="#8f8f8e" vector-effect="non-scaling-stroke" d="M337.43 222.77q-.97-.5-1.72-1.52"/><path stroke="#cacbcc" vector-effect="non-scaling-stroke" d="M335.71 221.25q.21-1.45.77-2.81c3.64-8.77 15.5-41.07 7.63-48.95a.75.73-33.4 00-.82-.16c-13.71 5.82-11.54 37.79-10.14 49.21a.36.35-19.3 01-.17.35l-.23.15"/><path stroke="#8f8f8e" vector-effect="non-scaling-stroke" d="M332.75 219.04l-3.79-2.29"/><path stroke="#cacbcc" vector-effect="non-scaling-stroke" d="M412.4 193.05q-5.4 5.16-11.1 7.73-7.35 3.33-16.76 4.97M440 204.54q1.32 1.96-.62 3.03c-3.39 1.88-6.28 4.4-9.88 5.55-6.55 2.08-13.01 2.67-19.77 3.67-4.13.6-8.93.65-13.41 1.75a.59.58-20.4 01-.65-.29l-1.44-2.73a1.06 1.05-12.5 00-.88-.56q-6.98-.36-13.86.47-1.27.15-2.49-.22M449 476.21c-2.77-.28-1.6 3.56-3.21 5.29M418.55 451.45q13.83 9.59 25.46 21.69a1.75 1.72 18.9 01.43.86l1.35 7.5"/><path stroke="#959798" vector-effect="non-scaling-stroke" d="M445.79 481.5q-.72 2.32-3.14 2.35a.84.84 0 01-.74-.44l-1.74-3.27"/><path stroke="#c8cabc" vector-effect="non-scaling-stroke" d="M435.75 481.71q-.03-1.74-1.71-1.71"/><path stroke="#cacbcc" vector-effect="non-scaling-stroke" d="M417.79 475.75q-5.62 3.19-9.74 8.34c-1.13 1.41-3.62 2.19-5.12 3.62q-9.03 8.56-20.7 1.79-12.85-7.45-22.66-14.89c-18.29-13.89-44.17-21.11-66.51-25.3q-19.04-3.57-44.18-10.53-2.75-.76-7.18-2.29c-5.98-2.07-12.05-3.6-17.9-5.84q-8.27-3.16-16.84-5.4M462.94 549.41q7.58 4.65 15.65 8.4.48.23.32-.28-.56-1.73-2.39-2.55-5.7-2.53-9.99-7.08M468.5 545.79q6.06 4.32 12.68 7.68c5.18 2.63 12.65 7.23 19.92 9.31a.38.37-82 00.48-.37q.02-1.86-.75-3.98c-4.92-13.56-11.43-25.39-16.63-38.26a.27.27 0 01.47-.27q2.65 3.54 4.93 7.07c3.06 4.76 7.85 7.4 12.66 9.98 2.32 1.23 4.81 3.95 7.6 4.63a1.17 1.17 0 001.44-1.28c-1.71-14.4-11.21-50.18-30.43-49.31-2.89.13-5.06 2.18-7.03 4.09-1.32 1.28-5.44 9.13-7.99 7.96a.41.4-64.6 01-.19-.55l2.63-5a1.27 1.27 0 00-.86-1.83c-6.56-1.4-11.14 4.43-13.29 10.3-.29.8-.8 1.15-1.55 1.41a.43.43 0 00-.22.64q1.29 2.05-.52 3.83a1.52 1.5-71.2 01-.86.43q-6.05.81-10.99 4.52"/><path stroke="#c8cabc" vector-effect="non-scaling-stroke" d="M436.5 517.21q1.61-3.75 5.14-5.81"/><path stroke="#cacbcc" vector-effect="non-scaling-stroke" d="M453.25 494.71q.44-3.38-1.3-6.42M449.25 489.46q-.27-.85-1.13-.82a1.05 1.04 68.2 01-.83-.36q-.51-.59-.16-1.36a.8.79-56.6 00-.18-.89q-.35-.34-.91-.28"/><path stroke="#5a5b5b" vector-effect="non-scaling-stroke" d="M335.71 221.25l-2.96-2.21"/><path stroke="#c8cabc" vector-effect="non-scaling-stroke" d="M431.54 130.03l2.6 2.36a.68.68 0 001-.09q1.81-2.38.02-4.58a.82.82 0 00-1.02-.22l-2.43 1.24a.8.79-37.7 00-.17 1.29M409.3 153.43q2.39-1.82 5.5-1.58a1.03 1.02-69.7 00.92-.43l.25-.35a.54.53 19.6 00-.4-.84l-5.18-.35a1.56 1.55 1.8 01-1.45-1.54l-.06-6.04q-.01-1.79-.47-.06c-1.99 7.64-1.04 7.68-9.5 8.18a.45.44 80.6 00-.4.57c.41 1.44 7.55-.49 8.49 4.23q.49 2.45 1.43 4.82.48 1.21.5-.09l.08-5.95a.75.72 73 01.29-.57M304.37 149.49a1.19 1.19 0 00-1.19-1.19 1.19 1.19 0 00-1.19 1.19 1.19 1.19 0 001.19 1.19 1.19 1.19 0 001.19-1.19M249.01 160.26a1.72 1.72 0 00-1.72-1.72 1.72 1.72 0 00-1.72 1.72 1.72 1.72 0 001.72 1.72 1.72 1.72 0 001.72-1.72M437.57 162.33a.68.68 0 00-.3-1.13l-1.63-.44q-.93-.26-.68.68l.49 1.78a.59.58 59.7 00.98.26l1.14-1.15M413.13 167.64c1.6-2.68-1.52-2.93-2.93-1.99a.61.61 0 00-.06.97l1.46 1.27a1.01 1.01 0 001.53-.25M464.7 172.48a4.28 4.28 0 00-4.28-4.28 4.28 4.28 0 00-4.28 4.28 4.28 4.28 0 004.28 4.28 4.28 4.28 0 004.28-4.28M498.44 217.74c1.42-1.51 1.99-3.49-.83-3.71a.63.63 0 00-.67.71l.34 2.63a.67.67 0 001.16.37M484.73 257.21c3.45 2.49 1.77 5.01 3.05 8.28q.56 1.44 1.29 2.9.23.45.33-.04c.69-3.22-.34-9.13 3.34-10.59q3.07-1.23 8.81-1.62a.65.64 0 00.6-.59l.06-.66a.66.66 0 00-.62-.72q-3.52-.18-7.01-.73c-5.42-.85-3.84-9.88-5.15-13.56a.63.63 0 00-1.22.12l-1.79 12.12a.89.88 1.2 01-.79.75l-10.84 1.05a.73.73 0 00-.05 1.44q2.45.38 5.12.57 3.42.24 4.87 1.28M495.4 273.46a.91.9-77.4 00-1.46.93l.7 2.55a.82.81-7.4 00.79.6q1.75-.03 2.06-1.68a.94.92-64.9 00-.3-.86l-1.79-1.54M504.035 309.849a1.72 1.24 83.5 001.037-1.85 1.72 1.24 83.5 00-1.427-1.568 1.72 1.24 83.5 00-1.037 1.85 1.72 1.24 83.5 001.427 1.568M494.5 311.684a4.43 4.13.7 00-4.38-4.184 4.43 4.13.7 00-4.48 4.076 4.43 4.13.7 004.38 4.184 4.43 4.13.7 004.48-4.076M53.514 420.846a.95.78 48.9 00-.036-1.229.95.78 48.9 00-1.212-.203.95.78 48.9 00.036 1.229.95.78 48.9 001.212.203"/><path stroke="#5a5b5b" vector-effect="non-scaling-stroke" d="M294.9 180.13c4.3 2.47 3.7 5.17 1.61 8.91q-.25.46.23.24c3.86-1.76 4.4-5.57 1.98-8.86-2.24-3.04-6.45-3.25-9.79-3.89a1.23 1.22 31.6 00-.99.23l-3.05 2.37q-.64.49.11.19 4.98-2.01 9.9.81M268.62 204.25l.24 1.17q.19.88.83.25l4.49-4.43a1.57 1.56 42.4 012.09-.09l3.18 2.63q.63.53.59-.29-.08-1.38-1.13-2.34a.52.5-70.6 01-.16-.35l-.01-.32a.23.23 0 01.31-.22q5.2 2.16 8.43 6.69a.71.71 0 00.88.24q2.01-.91 4.08-.12a1.56 1.5 86.4 01.82.75q2.9 5.87-.84 11.1a.62.62 0 00.05.78q2.53 2.71 6.16 3.14a.59.58-89.6 00.64-.64q-.64-5.92-.39-11.84c.54-13.05-9.18-21.03-21.76-16.24-5.95 2.26-12.2 5.7-12.41 12.92q-.03 1.14.54.15l2.04-3.52a.48.47 17.3 01.46-.23q.18.02.35.11a1.04 1-82.9 01.52.7M343.93 267.57q1.82.04 3.58-.11c2.97-.24 5.46 1.09 7.96 2.4a1.16 1.15 48.2 00.94.06l.77-.27a1.33 1.31-42.7 011 .03c16.52 7.16 30.66 18.57 45.94 26.82q11.65 6.29 21.4 9.29 2.23.69 5.52-1.15a.29.29 0 00.01-.5c-2.09-1.32-4.05-2.75-6.31-3.75-14.62-6.53-24.07-13.95-35.48-22.66q-1.56-1.2-2.16-2.05-.34-.48.18-.21c12.56 6.55 25.57 13.89 38.26 16.47 2.42.49 4.03-.32 5.05-2.46a.46.46 0 00-.27-.63c-14.56-5.05-28.46-11.6-42.6-17.7q-.46-.2.03-.09 17.2 3.85 34.75 5.37c4.13.35 9.98.58 13.11-2.62q3.83-3.92 4.09-9.8a.35.34-7.6 00-.46-.34c-11.27 3.7-19.8 4.23-32.99 4.84q-3.41.16-5.79-.62-.5-.16.02-.25c10.35-1.72 18.93-6.33 28.31-10.69q5.59-2.6 4.87-8.73a.36.36 0 00-.56-.26c-4.65 3.07-10.95 7.67-16.55 8.33q-8.21.96-14.31-.29c-19.81-4.05-33.03-7.16-50.12-1.17-2.24.78-2.83.51-4.47-.95q-10.71-9.57-12.88-22.9-.63-3.86-1.76-5.53c-7.17-10.6-31.04-3.51-25.24 9.47q.71 1.58 2.45 1.21a.63.62-6.4 00.49-.61q-.03-9.3 9.25-8.23a1.01.99-64 00.84-.3c3.14-3.24 8.05 5.59 8.61 7.81a.83.82 61.9 01-.24.81c-3.46 3.13-1.76 6.94-7.28 9.39q-.48.21-.05.49c2.69 1.79 7.19-2.49 9.75-4.88a.37.37 0 01.58.1q4.37 8.61 10.5 16.05c1.01 1.22 5.21 2.94 4.81 4.16a.85.85 0 01-.8.57l-1.92.01a1.55 1.52 26.6 00-.9.29l-4.34 3.06a.59.59 0 00-.14.82l3.37 4.64q.62.86.62-.2v-1.99a.55.55 0 01.56-.55M274.45 287.94c-11.26-14.04-25.68-26.37-39.37-37.78q-11.38-9.49-12.85-10.62c-5.75-4.42-30.5-21.83-37.17-15.79a.4.4 0 00.16.68q5.88 1.72 11.18 4.63c1.24.68 2.55.65 3.81 1.45q35.94 22.86 65.07 53.96 1.45 1.55 4.3 6.18c1.88 3.05 4.77.51 5.11-1.81a1.16 1.14 30.5 00-.24-.9M314.688 248.744a.56.56 0 00-.165-.774l-4.562-2.963a.56.56 0 00-.775.165l-.054.084a.56.56 0 00.165.774l4.562 2.963a.56.56 0 00.775-.165l.054-.084M308.05 246.67c-1.49-.65-9.69 16.6-10.76 18.39q-.27.45.25.38c.93-.14 9.56-11.64 10.99-13.32 1.79-2.1 2.78-4.05-.48-5.45"/><path stroke="#8d8e7f" vector-effect="non-scaling-stroke" d="M307.98 264.8q-1.82-1.97-3.06-.15-9.31 13.75-20.71 25.73a.55.53-42.4 00-.04.7l12.62 16.36q.39.51.59-.1 1.8-5.55 3.36-15.09 1.57-9.65 7.34-21.17.99-1.98 1.19-4.73a.94.93 26.3 00-.25-.73q-.12-.13-.26-.23-.64-.44-.78-.59"/><path stroke="#5a5b5b" vector-effect="non-scaling-stroke" d="M339.037 271.5a2.4 1.29 58.7 00-.145-2.72 2.4 1.29 58.7 00-2.349-1.38 2.4 1.29 58.7 00.145 2.72 2.4 1.29 58.7 002.349 1.38"/><path stroke="#8f8f8e" vector-effect="non-scaling-stroke" d="M374.25 433.21l4.74.73a.32.32 0 00.25-.56q-28.23-23.67-46.07-55.7c-1.89-3.39-5.22-7.05-6.62-9.99q-4.49-9.48-6.3-12.23"/><path stroke="#5a5b5b" vector-effect="non-scaling-stroke" d="M320.25 355.46c-2.69-4.56-5.04-9.35-8.06-13.67-10.58-15.13-18.45-31.76-31.65-45.68a.58.58 0 00-.76-.07c-3.05 2.22-1.89 4.53.06 7.15 5.37 7.23 9.6 14.72 14 22.59 5.31 9.48 9.57 20.32 14.62 30.38 3.38 6.74 6.34 13.89 8.97 20.97 6.7 18.03 14.72 36.48 19.09 55.22a.68.67-5.7 00.63.51c12.33.52 24.68-.31 37.1.35"/><path stroke="#cacbcc" vector-effect="non-scaling-stroke" d="M320.25 355.46q-1.11.7-.67 1.47 2.28 3.98 4.29 8.11c3.2 6.59 7.61 12.5 10.82 19.22q.27.57 1.36 1.28.42.28.65.72c4.32 8.12 11.38 16.04 15.89 22.66 2.11 3.11 6.99 6.06 6.96 10.32a.6.59 6.5 00.48.59c5.63 1.14 11.02 8.94 14.22 13.38"/><path stroke="#5a5b5b" vector-effect="non-scaling-stroke" d="M384.19 337.56q1.95 2.01 4.74 1.82.52-.04.18-.43c-5.36-6.09-11.36-11.99-15.91-18.32q-3.51-4.89-6.82-9.93-.28-.43-.08.04 6.63 15.24 17.89 26.82M399.267 465.336a12.67 9.57 51.5 00-.397-15.874 12.67 9.57 51.5 00-15.377-3.958 12.67 9.57 51.5 00.397 15.873 12.67 9.57 51.5 0015.377 3.959M380.69 480.3q1.08 1.04.52-.35c-.75-1.85-2.12-10.72-3.43-11.13a.5.5 0 00-.64.4q-1.13 6.61 3.55 11.08M405.2 496.58q-1 .69-4.39 4c-6.46 6.3-13.69 4.89-21.9 4.46q-.5-.03-.22.39 3.62 5.51 8.27 10.07"/><path stroke="#8f8f8e" vector-effect="non-scaling-stroke" d="M386.96 515.5q5 4.84 10.63 8.95c2.13 1.55 9.53-.08 10.45-2.68q1.58-4.4 3.22-8.85a.68.68 0 00-.78-.9l-2.87.63a.79.79 0 01-.92-1.01q1.81-5.61 2.28-11.4.41-5.2-3.77-3.66"/><path stroke="#cacbcc" vector-effect="non-scaling-stroke" d="M386.96 515.5q.18-.31.48-.45a.75.73-36.4 01.78.11l10.43 9.08a1.01 1-34.8 001.01.18l6.55-2.58a1.18 1.17-3.6 00.71-.8l1.38-5.47a.53.53 0 00-.42-.65l-2.15-.39a.81.81 0 01-.66-.72c-.43-5.11 1.44-9.83 2.42-14.83a.57.57 0 00-.36-.65q-1.29-.45-1.93-1.75"/><path stroke="#5a5b5b" vector-effect="non-scaling-stroke" d="M437.48 528.7l-1.01-4.5a.94.94 0 00-1.44-.58l-3.57 2.33a.44.43-25.9 01-.65-.22c-.51-1.48-.3-6.01-1.61-6.6a.56.55-61.9 00-.71.22q-.77 1.25-2.16 1.45a.85.83-17.4 01-.86-.44q-1.19-2.3-.69-4.84a1.05 1.05 0 00-1.55-1.12c-1.87 1.05-5.84 3.8-7.42 1.89a.62.62 0 00-1.07.2q-2 5.92-6.1 10.62a.72.72 0 00.21 1.12q11.51 5.82 22.9 11.73c3.75 1.95 9.44 4.38 13.96 7.04 1.66.98 3.37.81 5.12 1.89a1.04 1.04 0 00.96.08l8.39-3.5a.5.5 0 00.21-.77c-4.92-6.47-11.04-12.16-16.18-18.13a.46.45 43.2 00-.71.02q-1.96 2.56-5.26 2.69a.76.75-7.5 01-.76-.58"/><path stroke="#cacbcc" vector-effect="non-scaling-stroke" d="M475.84 511.8q-7.01-2.06-14.27-1.72c-5.32.25-8.25 10.89-8.71 14.96a.52.51 61.5 00.97.29c2.54-5.1 5.87-13.23 12.89-12.96q6.09.24 9.1-.33.52-.1.02-.24"/><path stroke="#fdfef0" vector-effect="non-scaling-stroke" d="M589.94 591l-.23-.75"/></g><path fill="#959798" d="M0 0h591v2.56l-.37-1.98a.38.38 0 00-.55-.27q-.21.11-.33.4-.87.14-1.75.14Q294 .97 0 .94V0z"/><path fill="#fbfde0" d="M591 2.56v587.5l-.75-.35-.06-588.36a.61.6-70.8 00-.22-.47l-.22-.17q.12-.29.33-.4a.38.38 0 01.55.27l.37 1.98z"/><path d="M589.75.71l.22.17a.61.6-70.8 01.22.47l.06 588.36-.54.54q-294.2-.03-588.4-.19-.65 0-1.31-.12V.94q294 .03 588-.09.88 0 1.75-.14zm-4.25 4.81a.26.26 0 00-.26-.26H5.5a.26.26 0 00-.26.26v579.72a.26.26 0 00.26.26h579.74a.26.26 0 00.26-.26V5.52z"/><path fill="#fbfde0" d="M585.5 585.24a.26.26 0 01-.26.26H5.5a.26.26 0 01-.26-.26V5.52a.26.26 0 01.26-.26h579.74a.26.26 0 01.26.26v579.72zM87.6 41.79c2.17-2.19 6.03-5.43 8.51-8.79a.82.81 22.2 00-.55-1.29c-13.66-2.03-29.7-.76-43.55-.2-14.64.58-19.78 7-20.29 21.28q-.72 20.5-.23 41.02.02.88.13 1.56a.69.68 66.5 001.1.44q1.59-1.24 2.86-2.48 26.18-25.6 52.02-51.54zM323 214.71q-7.85.27-14.33 4.64c-1.49 1-2.77 1.13-4.42.78a.89.86 86.2 01-.65-.59c-1.07-3.27-.58-7.38-.59-10.81-.02-5.75-1.71-10.14-4.09-15.11a.51.51 0 01.22-.67c3.68-2.01 6.18-5.33 5.37-9.76-1.33-7.24-6.87-9.5-13.38-11.6-4.75-1.53-9.31 1.97-11.44 5.9-1.64 3.01-.82 7.48-1.12 11.04a.73.73 0 01-.52.64c-7.66 2.28-16.06 6.92-19.51 14.14-3 6.28-2.63 15.23 4.35 19.1a.54.53 29.5 00.72-.19l.9-1.5a.55.55 0 01.75-.19c5.05 3.02 3.75 7.33 4.26 12.21a1.08 1.08 0 001.13.96c4.17-.21 7.12 3.98 10.28 7.14 3.01 3.01 7.14-2.03 9.22-3.96a1.3 1.27 23.4 01.91-.35l7.55.15a.99.98 78.1 01.88.58c1.31 2.96 3.01 6.41 1.89 9.7-4.69 13.76-14.37 25.69-23.09 37.11a.41.41 0 01-.63.02c-20.65-23.06-47.55-45.49-73.63-61.88-4.96-3.12-14.87-6.47-20.45-3.15-3.72 2.22-7.59 7.71-3.56 11.69 3.66 3.61 7.39 5.89 11.68 8.61 29.28 18.58 49.62 37.56 72.21 64.5a1.19 1.17-62.5 01.27.88c-.92 8.06 5.95 6.85 8.65 11.65q3.71 6.62 7.82 12.98c6.36 9.81 10.69 17.15 15.79 25.97 3.17 5.47 5.43 11.39 8.35 17.1 6.45 12.6 10.91 25.7 16.86 38.47q4.97 10.64 7.53 22.13a.41.4-6.9 01-.39.49c-37.11.66-69.8-4.82-104.17-17.23-10.85-3.91-21.61-9.5-32.31-14.66-30.72-14.81-58.68-32.72-83.35-56.34-4.77-4.57-10.09-1.43-13.69 2.83-7.59 8.98 29.83 41.83 37.03 47.12q50.88 37.36 112.21 55.75 29.24 8.77 55.88 15.27c21.82 5.33 40.51 12.08 55.56 29.51 3.16 3.66 6.68 9.24 10.4 13.63q3.22 3.8 6.79 8.59c17.19 23.06 40.61 31.36 67.63 36.76q9.92 1.98 18.23-3.05c5.91 3.62 18.85 10.81 26.55 10.48a.62.62 0 00.59-.59l.05-.81a.34.33-74.3 01.49-.28c4.28 2.39 12.14 6.54 17.57 5.78a.7.7 0 00.59-.57c1.17-6.93-4.41-19.41-7.28-26.03a.56.56 0 01.77-.72l13.46 6.92a1.83 1.82-68.5 002.58-1.13q1.08-3.79.27-8.08c-3.14-16.67-17.13-64.64-44.05-43.45a.9.89-53.3 01-.87.13q-.6-.22-1.01-.61c-16.38-26.96-44.8-48.49-75.3-56.63q-2.88-.77-5.11-2.33c-10.43-7.26-17.03-14.48-25.18-22.46-1.58-1.55-3.01-3.92-4.82-5.88-12.42-13.52-22.27-31.35-31.37-47.59q-11.95-21.31-25.5-41.67a1.56 1.54 29.6 01-.26-.92q.2-3.87 2.05-7.83 7.72-16.55 13.75-35.46c.59-1.84 1.77-3.95 2.64-5.73a.72.71 22 01.86-.36l7.37 2.38a1.06 1.04 3.1 01.69.76q.69 3.11.71 5.49c.1 8.29.19 16.66 3.19 24.35q5.59 14.33 13.29 27.68c3.87 6.72 8.47 13.79 10.88 20.7q2.83 8.12 3.97 16.69.07.5.41.13c3.59-3.87 7.3-7.65 9.06-12.6q2.19-6.17 2.47-12.73a.54.54 0 01.86-.41q10.83 8.22 23.74 3.46a.37.37 0 00.11-.63l-10.6-8.84q-.6-.5.16-.73 6.9-2.04 13.81-4.08c10.03-2.95 34.05.69 42.57 7.19 2.92 2.23 8.78 6.88 9.86 10.42 2.83 9.31 5.01-1.34 4.5-3.65-1.26-5.8-7.26-13.26-10.55-18.58a.99.97-13.3 00-.76-.46c-4.05-.34-7.87.5-11.74-.47q-7.11-1.78-13.39-3.97-1.85-.65-.2-1.71l17.76-11.45a.31.3-44.1 00.01-.51q-5.42-3.85-11.54-6.39-.62-.26-.04-.61c5.17-3.07 5.47-5.55 8.9-9.91a1.35 1.31 12.5 01.79-.49q10.8-2.07 21.73-3.26c5.23-.57 15.28 5.74 18.74 9.57a.83.83 0 00.91.22l2.92-1.11a.73.72-18.8 00.44-.89c-1.97-6.46-8.01-10.89-12.7-16.33a1.5 1.47-13.3 00-.81-.49q-3.24-.72-6.55-.21-10.51 1.62-21.03 1.31a.5.5 0 01-.44-.71q3.62-7.83 2.99-16.54a.36.36 0 00-.47-.32c-1.99.63-3.65 2.52-5.96 2.53a.36.36 0 01-.34-.48c2.33-6.9 4.64-17.51 3.11-24.71q-.1-.49-.45-.12c-2.68 2.91-5.14 5.96-8.43 8.16-4.03 2.71-10.48 7.49-15.37 7.83q-6.97.5-12.31-.57c-18.19-3.64-32.49-6.94-49.31-1.86q-.94.29-1.94 1.36a.47.46 52.2 01-.74-.1l-.74-1.36a.65.64-28.6 01.26-.87q4.51-2.48 9.52-3.47 2.05.52 3.46-.71l3.5-.5c3.21-.16 6.11-.82 9.34-.59q5.08.36 10.16.01 3.94.78 7.77-.01c11.58-1.22 20.53-1.76 32.42-7.26q5.44-2.52 14.93-11.08c8.66-7.81 12.27-16.51 15.06-27.58a.38.38 0 00-.62-.37c-6.77 6.03-17.88 5.9-25.57 1.88-12.99-6.77-21.78-13.06-36.97-11.85a.42.42 0 01-.45-.46c.44-4.64 1.22-9.55 1.2-13.82-.15-28.09-19.2-54.89-42.08-69.43-7.3-4.64-15.87-7.95-24.32-11.08a.66.66 0 00-.76 1.01c8.13 11.12 9.24 23.83 8.08 37.82q-.8 9.72-3.97 18.71c-7.76 21.95-12.49 42-7.97 65.52zm108.54-84.68l2.6 2.36a.68.68 0 001-.09q1.81-2.38.02-4.58a.82.82 0 00-1.02-.22l-2.43 1.24a.8.79-37.7 00-.17 1.29zm-22.24 23.4q2.39-1.82 5.5-1.58a1.03 1.02-69.7 00.92-.43l.25-.35a.54.53 19.6 00-.4-.84l-5.18-.35a1.56 1.55 1.8 01-1.45-1.54l-.06-6.04q-.01-1.79-.47-.06c-1.99 7.64-1.04 7.68-9.5 8.18a.45.44 80.6 00-.4.57c.41 1.44 7.55-.49 8.49 4.23q.49 2.45 1.43 4.82.48 1.21.5-.09l.08-5.95a.75.72 73 01.29-.57zm-104.93-3.94a1.19 1.19 0 00-1.19-1.19 1.19 1.19 0 00-1.19 1.19 1.19 1.19 0 001.19 1.19 1.19 1.19 0 001.19-1.19zm-55.36 10.77a1.72 1.72 0 00-1.72-1.72 1.72 1.72 0 00-1.72 1.72 1.72 1.72 0 001.72 1.72 1.72 1.72 0 001.72-1.72zm188.56 2.07a.68.68 0 00-.3-1.13l-1.63-.44q-.93-.26-.68.68l.49 1.78a.59.58 59.7 00.98.26l1.14-1.15zm-24.44 5.31c1.6-2.68-1.52-2.93-2.93-1.99a.61.61 0 00-.06.97l1.46 1.27a1.01 1.01 0 001.53-.25zm51.57 4.84a4.28 4.28 0 00-4.28-4.28 4.28 4.28 0 00-4.28 4.28 4.28 4.28 0 004.28 4.28 4.28 4.28 0 004.28-4.28zm33.74 45.26c1.42-1.51 1.99-3.49-.83-3.71a.63.63 0 00-.67.71l.34 2.63a.67.67 0 001.16.37zm-13.71 39.47c3.45 2.49 1.77 5.01 3.05 8.28q.56 1.44 1.29 2.9.23.45.33-.04c.69-3.22-.34-9.13 3.34-10.59q3.07-1.23 8.81-1.62a.65.64 0 00.6-.59l.06-.66a.66.66 0 00-.62-.72q-3.52-.18-7.01-.73c-5.42-.85-3.84-9.88-5.15-13.56a.63.63 0 00-1.22.12l-1.79 12.12a.89.88 1.2 01-.79.75l-10.84 1.05a.73.73 0 00-.05 1.44q2.45.38 5.12.57 3.42.24 4.87 1.28zm10.67 16.25a.91.9-77.4 00-1.46.93l.7 2.55a.82.81-7.4 00.79.6q1.75-.03 2.06-1.68a.94.92-64.9 00-.3-.86l-1.79-1.54zm8.635 36.389a1.72 1.24 83.5 001.037-1.85 1.72 1.24 83.5 00-1.427-1.568 1.72 1.24 83.5 00-1.037 1.85 1.72 1.24 83.5 001.427 1.568zm-9.535 1.835a4.43 4.13.7 00-4.38-4.184 4.43 4.13.7 00-4.48 4.076 4.43 4.13.7 004.38 4.184 4.43 4.13.7 004.48-4.076zM53.514 420.846a.95.78 48.9 00-.036-1.229.95.78 48.9 00-1.212-.203.95.78 48.9 00.036 1.229.95.78 48.9 001.212.203z"/><path fill="#f9e3ad" d="M87.6 41.79Q61.76 67.73 35.58 93.33q-1.27 1.24-2.86 2.48a.69.68 66.5 01-1.1-.44q-.11-.68-.13-1.56-.49-20.52.23-41.02c.51-14.28 5.65-20.7 20.29-21.28 13.85-.56 29.89-1.83 43.55.2a.82.81 22.2 01.55 1.29c-2.48 3.36-6.34 6.6-8.51 8.79z"/><path d="M394.02 242.7l-7.77.01q-5.08.35-10.16-.01c-3.23-.23-6.13.43-9.34.59l-6.19-.09a.36.36 0 01-.33-.48l.77-2.18c11.03-2.2 20.96-1.05 31.54-.98q17.9.11 33.71-8.02 4.71-2.18 8.28-6.2c3.36-2.46 17.81-15.89 15.68-20.34q.33-.48.36-.96a.45.45 0 00-.49-.47l-10.08.97-8.25-1.91-19.35-9.58c-4.52-1.77-15.69-4.84-20.31-2.66a1.41 1.39-.8 00-.67.68l-6.88 14.68-3.29 4.76q-2.5 1.75-4.25 4.7-3.9 2.79-6.99 6.65-9.05 7.11-19.18 13.16-4.07.85-7.83 2.77-.82-1.47-.03-3.24 9.18-4.36 17.53-10.01 12.36-8.72 20.98-21.17 7.11-9.73 8.23-21.87 1.45-8.31.15-16.84-.36-5.32-2.57-10.41-1.33-6.99-5.04-13.04-4.6-9.01-11.71-16.21-2.43-4.32-6.25-7.5-6.01-7.19-14.71-11.49-2.41-2.19-5.79-3.51-4-2.39-8.47-3.64-.48-.13-.36.35c1.26 4.9 2.76 9.89 3.12 14.84q1.25 17.31-2.53 32.72c-2.29 9.36-7.45 19.95-9.16 29.42-2.23 12.44-1.81 26.11-.18 38.31q-1.65 1.02-3.21.21c-4.52-23.52.21-43.57 7.97-65.52q3.17-8.99 3.97-18.71c1.16-13.99.05-26.7-8.08-37.82a.66.66 0 01.76-1.01c8.45 3.13 17.02 6.44 24.32 11.08 22.88 14.54 41.93 41.34 42.08 69.43.02 4.27-.76 9.18-1.2 13.82a.42.42 0 00.45.46c15.19-1.21 23.98 5.08 36.97 11.85 7.69 4.02 18.8 4.15 25.57-1.88a.38.38 0 01.62.37c-2.79 11.07-6.4 19.77-15.06 27.58q-9.49 8.56-14.93 11.08c-11.89 5.5-20.84 6.04-32.42 7.26z"/><path fill="#959798" d="M343.79 102.5c5.6 14.8 5.59 33.54 3.29 48.44-.69 4.43-2.94 8.89-3.91 13.68a.99.99 0 01-.54.71c-15.38 7.64-15.09 35.51-13.11 49.71.1.75-.15 1.15-.56 1.71q-1.85-.57-2.75-2.25c-1.63-12.2-2.05-25.87.18-38.31 1.71-9.47 6.87-20.06 9.16-29.42q3.78-15.41 2.53-32.72c-.36-4.95-1.86-9.94-3.12-14.84q-.12-.48.36-.35 4.47 1.25 8.47 3.64z"/><path fill="#fff" d="M343.79 102.5q3.38 1.32 5.79 3.51 2.33 22.76 1.93 34.24-.33 9.21-4.28 24.4c-.71 2.73 1.15 5.06 1.51 7.57q.75 5.24.58 10.24a.42.42 0 00.81.16q2.3-6.44 8.98-8.23a1.21 1.15-80.6 00.69-.52q1.37-2.25 1.9-5.43 2.18-13.07 4.03-26.19c.81-5.78 2.01-14 .27-19.61q-.8-2.58-1.71-5.14 3.82 3.18 6.25 7.5-.32 2.92-.67 11.68-.65 15.9-6.15 36.37-.56 2.08-.22 4.41 1.8 12.16-2.41 23.76-.17.47.09.04c3.27-5.45 6.62-12.83 13.95-13.42a1.74 1.73 10.4 001.43-.98c5.82-12.16 7.26-26.88 6.26-40.17q-.21-2.8-1.13-4.86a.42.41 67.1 01.22-.55q.15-.07.34-.07 3.71 6.05 5.04 13.04c-1.34 12.63-2.69 22.22-7.09 32.84-.35.84-.43 2.48-.28 3.37q1.06 6.26 1.56 12.91-8.62 12.45-20.98 21.17-.59.06-.84-.25a.57.57 0 01.06-.78c3.01-2.77 6.91-4.92 9.37-7.65 5.22-5.79 10.76-13.75 8.3-22.1-1.17-4-4.98-2.21-6.75.12q-14.28 18.76-28.6 37.51c-.26.35-.7.48-1 .11l-.58-3.5c11.52-12.83 22.62-31.83 20.12-49.76a.48.48 0 00-.57-.4c-3.11.59-5.13 2.22-6.44 5.31-3.32 7.83-5.79 16.27-9.12 23.65q-3.57 7.95-7.02 15.97-.97-.5-1.72-1.52.21-1.45.77-2.81c3.64-8.77 15.5-41.07 7.63-48.95a.75.73-33.4 00-.82-.16c-13.71 5.82-11.54 37.79-10.14 49.21a.36.35-19.3 01-.17.35l-.23.15-3.79-2.29c.41-.56.66-.96.56-1.71-1.98-14.2-2.27-42.07 13.11-49.71a.99.99 0 00.54-.71c.97-4.79 3.22-9.25 3.91-13.68 2.3-14.9 2.31-33.64-3.29-48.44z"/><path fill="#959798" d="M349.58 106.01q8.7 4.3 14.71 11.49.91 2.56 1.71 5.14c1.74 5.61.54 13.83-.27 19.61q-1.85 13.12-4.03 26.19-.53 3.18-1.9 5.43a1.21 1.15-80.6 01-.69.52q-6.68 1.79-8.98 8.23a.42.42 0 01-.81-.16q.17-5-.58-10.24c-.36-2.51-2.22-4.84-1.51-7.57q3.95-15.19 4.28-24.4.4-11.48-1.93-34.24zM370.54 125q7.11 7.2 11.71 16.21-.19 0-.34.07a.42.41 67.1 00-.22.55q.92 2.06 1.13 4.86c1 13.29-.44 28.01-6.26 40.17a1.74 1.73 10.4 01-1.43.98c-7.33.59-10.68 7.97-13.95 13.42q-.26.43-.09-.04 4.21-11.6 2.41-23.76-.34-2.33.22-4.41 5.5-20.47 6.15-36.37.35-8.76.67-11.68zM431.71 128.74l2.43-1.24a.82.82 0 011.02.22q1.79 2.2-.02 4.58a.68.68 0 01-1 .09l-2.6-2.36a.8.79-37.7 01.17-1.29zM409.01 154l-.08 5.95q-.02 1.3-.5.09-.94-2.37-1.43-4.82c-.94-4.72-8.08-2.79-8.49-4.23a.45.44 80.6 01.4-.57c8.46-.5 7.51-.54 9.5-8.18q.46-1.73.47.06l.06 6.04a1.56 1.55 1.8 001.45 1.54l5.18.35a.54.53 19.6 01.4.84l-.25.35a1.03 1.02-69.7 01-.92.43q-3.11-.24-5.5 1.58a.75.72 73 00-.29.57z"/><circle fill="#959798" cx="303.18" cy="149.49" r="1.19"/><path fill="#959798" d="M387.29 154.25q2.21 5.09 2.57 10.41-1.7 2.07-.32 4.66a1.52 1.48 35.2 01.17.93q-.8 5.65 0 11.25-1.12 12.14-8.23 21.87-.5-6.65-1.56-12.91c-.15-.89-.07-2.53.28-3.37 4.4-10.62 5.75-20.21 7.09-32.84z"/><circle fill="#959798" cx="247.29" cy="160.26" r="1.72"/><path fill="#959798" d="M437.57 162.33l-1.14 1.15a.59.58 59.7 01-.98-.26l-.49-1.78q-.25-.94.68-.68l1.63.44a.68.68 0 01.3 1.13z"/><path fill="#fbfde0" d="M389.86 164.66q1.3 8.53-.15 16.84-.8-5.6 0-11.25a1.52 1.48 35.2 00-.17-.93q-1.38-2.59.32-4.66z"/><path fill="#959798" d="M413.13 167.64a1.01 1.01 0 01-1.53.25l-1.46-1.27a.61.61 0 01.06-.97c1.41-.94 4.53-.69 2.93 1.99z"/><circle fill="#959798" cx="460.42" cy="172.48" r="4.28"/><path fill="#959798" d="M335.71 221.25l-2.96-2.21.23-.15a.36.35-19.3 00.17-.35c-1.4-11.42-3.57-43.39 10.14-49.21a.75.73-33.4 01.82.16c7.87 7.88-3.99 40.18-7.63 48.95q-.56 1.36-.77 2.81z"/><path fill="#1f1e1d" d="M323 214.71q1.56.81 3.21-.21.9 1.68 2.75 2.25l3.79 2.29 2.96 2.21q.75 1.02 1.72 1.52 2.32 2.23 3.03 5.23l.58 3.5q-.66 3.23 1.93 3.05-.79 1.77.03 3.24-.68 1.83.96 2.79.76 2.65 2.6 3.9a.91.9-39.4 00.87.08q6.52-2.91 13.57-4.02l-.77 2.18a.36.36 0 00.33.48l6.19.09-3.5.5q-2-.47-3.46.71-5.01.99-9.52 3.47a.65.64-28.6 00-.26.87l.74 1.36a.47.46 52.2 00.74.1q1-1.07 1.94-1.36c16.82-5.08 31.12-1.78 49.31 1.86q5.34 1.07 12.31.57c4.89-.34 11.34-5.12 15.37-7.83 3.29-2.2 5.75-5.25 8.43-8.16q.35-.37.45.12c1.53 7.2-.78 17.81-3.11 24.71a.36.36 0 00.34.48c2.31-.01 3.97-1.9 5.96-2.53a.36.36 0 01.47.32q.63 8.71-2.99 16.54a.5.5 0 00.44.71q10.52.31 21.03-1.31 3.31-.51 6.55.21a1.5 1.47-13.3 01.81.49c4.69 5.44 10.73 9.87 12.7 16.33a.73.72-18.8 01-.44.89l-2.92 1.11a.83.83 0 01-.91-.22c-3.46-3.83-13.51-10.14-18.74-9.57q-10.93 1.19-21.73 3.26a1.35 1.31 12.5 00-.79.49c-3.43 4.36-3.73 6.84-8.9 9.91q-.58.35.04.61 6.12 2.54 11.54 6.39a.31.3-44.1 01-.01.51l-17.76 11.45q-1.65 1.06.2 1.71 6.28 2.19 13.39 3.97c3.87.97 7.69.13 11.74.47a.99.97-13.3 01.76.46c3.29 5.32 9.29 12.78 10.55 18.58.51 2.31-1.67 12.96-4.5 3.65-1.08-3.54-6.94-8.19-9.86-10.42-8.52-6.5-32.54-10.14-42.57-7.19q-6.91 2.04-13.81 4.08-.76.23-.16.73l10.6 8.84a.37.37 0 01-.11.63q-12.91 4.76-23.74-3.46a.54.54 0 00-.86.41q-.28 6.56-2.47 12.73c-1.76 4.95-5.47 8.73-9.06 12.6q-.34.37-.41-.13-1.14-8.57-3.97-16.69c-2.41-6.91-7.01-13.98-10.88-20.7q-7.7-13.35-13.29-27.68c-3-7.69-3.09-16.06-3.19-24.35q-.02-2.38-.71-5.49a1.06 1.04 3.1 00-.69-.76l-7.37-2.38a.72.71 22 00-.86.36c-.87 1.78-2.05 3.89-2.64 5.73q-6.03 18.91-13.75 35.46-1.85 3.96-2.05 7.83a1.56 1.54 29.6 00.26.92q13.55 20.36 25.5 41.67c9.1 16.24 18.95 34.07 31.37 47.59 1.81 1.96 3.24 4.33 4.82 5.88 8.15 7.98 14.75 15.2 25.18 22.46q2.23 1.56 5.11 2.33c30.5 8.14 58.92 29.67 75.3 56.63-2.83-.57-6.17.15-7.91-2.8q-4.65-7.93-11.8-13.74-13.06-14.97-30.45-24.76c-6.97-4.54-15-7.33-23.07-9.84q-.49-.15-.11.19c2.39 2.08 5.41 3.55 6.87 6.42 5.41 10.66 3.92 19.62-7.16 24.56a2.11 2.1 76.8 00-1.24 2.01q.34 8.16-5.34 10.36-4.99 1.94-9.48-1.49c-7.61-5.83-4.36-14.15-6.14-22.03-2.29-10.12.57-20.15 12.28-21.43a.46.46 0 00-.02-.92c-6.9-.41-13.84-1.29-20.54-1.28-26.74 0-58.92 2.18-86.6-2.49-7.86-1.33-15.25-2.15-22.13-3.99-36.03-9.61-69.72-25.13-102.41-45.42q-8.63-5.36-16.52-11.23c-10.79-8.04-21.66-16.33-30.99-26.08q-1.22-1.27-1.15.48c.15 3.9 8.05 13.23 10.78 16.16 25.88 27.77 57.32 44.88 91.38 59.82q22.5 9.32 28.55 11.24 31.86 10.1 55.76 14.94c26.61 5.38 52.6 14.6 74.72 31.33q8.14 6.15 19.21 10.99c5.94 2.6 10.88 3.18 15.69-1.17 2.39-2.16 5.17-3.61 7.26-6.04q4.71-5.5 9.64-10.79l1.41-1.19q.34-.29.38.15l.82 8.09a1.39 1.39 0 002.31.9q5.02-4.48 10.93-7.81.53-.3.4.3-.41 1.98 0 3.81-.58 1.18-.52 2.46a.52.52 0 00.55.5q1.11-.08 1.68-1.25l3.48-2.21a.54.54 0 01.72.13q.16.23.22.51l.5 5.94a.54.54 0 00.9.35q1.56-1.42 3.52-1.99a.67.66 67.4 01.78.33q.26.51.17.98l-.2 3.94a.38.38 0 00.46.39l2.95-.62 2.7-1.17c-.24 1.85-.97 7.07 1.3 6.42q1.12-.24 2.11.26a.6.59 27.8 01.26.81l-6.14 11.4q-.25.46-.24.98l.01.58a.72.72 0 01-.53.71l-7.08 1.95q-1.04-2.52-.52-5.27a.63.62 81.6 00-.9-.67l-5.55 2.87a.5.5 0 01-.73-.47l.26-5.73q.03-.69-.58-.35l-4.29 2.42a.7.7 0 01-1.05-.57l-.32-5.92a.45.44 72.8 00-.67-.36l-4.45 2.74a.41.41 0 01-.62-.33l-.28-5.41a1.21 1.21 0 00-1.77-1.01l-4.99 2.59a.64.64 0 01-.9-.34l-1.82-4.77a.66.66 0 00-.89-.36l-1.87.84a.56.55-36.7 00-.14.93q2.55 2.16 3.71 5.19.15.39.09.8l-1.07 7.32a.38.37 85.7 00.48.42l5.88-1.75a.8.8 0 011.02.72l.37 6.26a.57.57 0 00.88.44q3.05-1.98 6.71-2.38a.4.39 86.7 01.43.39l.04 4.49a.76.76 0 00.77.75q2.66-.03 4.5-1.79.42-.41.46.18l.32 4.83a.56.56 0 00.94.38l1.41-1.27q1.73-.95 3.5-.42l.05 4.74a.71.71 0 001.23.47c2.17-2.35 3.73-1.6 5.67.46q10.87 11.61 21.55 23.33l-1.97 2.11-3.59 1.51q-2.16.6-3.94 2.3-8.31 5.03-18.23 3.05c-27.02-5.4-50.44-13.7-67.63-36.76q-3.57-4.79-6.79-8.59c-3.72-4.39-7.24-9.97-10.4-13.63-15.05-17.43-33.74-24.18-55.56-29.51q-26.64-6.5-55.88-15.27-61.33-18.39-112.21-55.75c-7.2-5.29-44.62-38.14-37.03-47.12 3.6-4.26 8.92-7.4 13.69-2.83 24.67 23.62 52.63 41.53 83.35 56.34 10.7 5.16 21.46 10.75 32.31 14.66 34.37 12.41 67.06 17.89 104.17 17.23a.41.4-6.9 00.39-.49q-2.56-11.49-7.53-22.13c-5.95-12.77-10.41-25.87-16.86-38.47-2.92-5.71-5.18-11.63-8.35-17.1-5.1-8.82-9.43-16.16-15.79-25.97q-4.11-6.36-7.82-12.98c-2.7-4.8-9.57-3.59-8.65-11.65a1.19 1.17-62.5 00-.27-.88c-22.59-26.94-42.93-45.92-72.21-64.5-4.29-2.72-8.02-5-11.68-8.61-4.03-3.98-.16-9.47 3.56-11.69 5.58-3.32 15.49.03 20.45 3.15 26.08 16.39 52.98 38.82 73.63 61.88a.41.41 0 00.63-.02c8.72-11.42 18.4-23.35 23.09-37.11 1.12-3.29-.58-6.74-1.89-9.7a.99.98 78.1 00-.88-.58l-7.55-.15a1.3 1.27 23.4 00-.91.35c-2.08 1.93-6.21 6.97-9.22 3.96-3.16-3.16-6.11-7.35-10.28-7.14a1.08 1.08 0 01-1.13-.96c-.51-4.88.79-9.19-4.26-12.21a.55.55 0 00-.75.19l-.9 1.5a.54.53 29.5 01-.72.19c-6.98-3.87-7.35-12.82-4.35-19.1 3.45-7.22 11.85-11.86 19.51-14.14a.73.73 0 00.52-.64c.3-3.56-.52-8.03 1.12-11.04 2.13-3.93 6.69-7.43 11.44-5.9 6.51 2.1 12.05 4.36 13.38 11.6.81 4.43-1.69 7.75-5.37 9.76a.51.51 0 00-.22.67c2.38 4.97 4.07 9.36 4.09 15.11.01 3.43-.48 7.54.59 10.81a.89.86 86.2 00.65.59c1.65.35 2.93.22 4.42-.78q6.48-4.37 14.33-4.64zm-28.1-34.58c4.3 2.47 3.7 5.17 1.61 8.91q-.25.46.23.24c3.86-1.76 4.4-5.57 1.98-8.86-2.24-3.04-6.45-3.25-9.79-3.89a1.23 1.22 31.6 00-.99.23l-3.05 2.37q-.64.49.11.19 4.98-2.01 9.9.81zm-26.28 24.12l.24 1.17q.19.88.83.25l4.49-4.43a1.57 1.56 42.4 012.09-.09l3.18 2.63q.63.53.59-.29-.08-1.38-1.13-2.34a.52.5-70.6 01-.16-.35l-.01-.32a.23.23 0 01.31-.22q5.2 2.16 8.43 6.69a.71.71 0 00.88.24q2.01-.91 4.08-.12a1.56 1.5 86.4 01.82.75q2.9 5.87-.84 11.1a.62.62 0 00.05.78q2.53 2.71 6.16 3.14a.59.58-89.6 00.64-.64q-.64-5.92-.39-11.84c.54-13.05-9.18-21.03-21.76-16.24-5.95 2.26-12.2 5.7-12.41 12.92q-.03 1.14.54.15l2.04-3.52a.48.47 17.3 01.46-.23q.18.02.35.11a1.04 1-82.9 01.52.7zm75.31 63.32q1.82.04 3.58-.11c2.97-.24 5.46 1.09 7.96 2.4a1.16 1.15 48.2 00.94.06l.77-.27a1.33 1.31-42.7 011 .03c16.52 7.16 30.66 18.57 45.94 26.82q11.65 6.29 21.4 9.29 2.23.69 5.52-1.15a.29.29 0 00.01-.5c-2.09-1.32-4.05-2.75-6.31-3.75-14.62-6.53-24.07-13.95-35.48-22.66q-1.56-1.2-2.16-2.05-.34-.48.18-.21c12.56 6.55 25.57 13.89 38.26 16.47 2.42.49 4.03-.32 5.05-2.46a.46.46 0 00-.27-.63c-14.56-5.05-28.46-11.6-42.6-17.7q-.46-.2.03-.09 17.2 3.85 34.75 5.37c4.13.35 9.98.58 13.11-2.62q3.83-3.92 4.09-9.8a.35.34-7.6 00-.46-.34c-11.27 3.7-19.8 4.23-32.99 4.84q-3.41.16-5.79-.62-.5-.16.02-.25c10.35-1.72 18.93-6.33 28.31-10.69q5.59-2.6 4.87-8.73a.36.36 0 00-.56-.26c-4.65 3.07-10.95 7.67-16.55 8.33q-8.21.96-14.31-.29c-19.81-4.05-33.03-7.16-50.12-1.17-2.24.78-2.83.51-4.47-.95q-10.71-9.57-12.88-22.9-.63-3.86-1.76-5.53c-7.17-10.6-31.04-3.51-25.24 9.47q.71 1.58 2.45 1.21a.63.62-6.4 00.49-.61q-.03-9.3 9.25-8.23a1.01.99-64 00.84-.3c3.14-3.24 8.05 5.59 8.61 7.81a.83.82 61.9 01-.24.81c-3.46 3.13-1.76 6.94-7.28 9.39q-.48.21-.05.49c2.69 1.79 7.19-2.49 9.75-4.88a.37.37 0 01.58.1q4.37 8.61 10.5 16.05c1.01 1.22 5.21 2.94 4.81 4.16a.85.85 0 01-.8.57l-1.92.01a1.55 1.52 26.6 00-.9.29l-4.34 3.06a.59.59 0 00-.14.82l3.37 4.64q.62.86.62-.2v-1.99a.55.55 0 01.56-.55zm-69.48 20.37c-11.26-14.04-25.68-26.37-39.37-37.78q-11.38-9.49-12.85-10.62c-5.75-4.42-30.5-21.83-37.17-15.79a.4.4 0 00.16.68q5.88 1.72 11.18 4.63c1.24.68 2.55.65 3.81 1.45q35.94 22.86 65.07 53.96 1.45 1.55 4.3 6.18c1.88 3.05 4.77.51 5.11-1.81a1.16 1.14 30.5 00-.24-.9zm40.238-39.196a.56.56 0 00-.165-.774l-4.562-2.963a.56.56 0 00-.775.165l-.054.084a.56.56 0 00.165.774l4.562 2.963a.56.56 0 00.775-.165l.054-.084zm-6.638-2.074c-1.49-.65-9.69 16.6-10.76 18.39q-.27.45.25.38c.93-.14 9.56-11.64 10.99-13.32 1.79-2.1 2.78-4.05-.48-5.45zm-.07 18.13q-1.82-1.97-3.06-.15-9.31 13.75-20.71 25.73a.55.53-42.4 00-.04.7l12.62 16.36q.39.51.59-.1 1.8-5.55 3.36-15.09 1.57-9.65 7.34-21.17.99-1.98 1.19-4.73a.94.93 26.3 00-.25-.73q-.12-.13-.26-.23-.64-.44-.78-.59zm31.057 6.7a2.4 1.29 58.7 00-.145-2.72 2.4 1.29 58.7 00-2.349-1.38 2.4 1.29 58.7 00.145 2.72 2.4 1.29 58.7 002.349 1.38zm35.213 161.71l4.74.73a.32.32 0 00.25-.56q-28.23-23.67-46.07-55.7c-1.89-3.39-5.22-7.05-6.62-9.99q-4.49-9.48-6.3-12.23c-2.69-4.56-5.04-9.35-8.06-13.67-10.58-15.13-18.45-31.76-31.65-45.68a.58.58 0 00-.76-.07c-3.05 2.22-1.89 4.53.06 7.15 5.37 7.23 9.6 14.72 14 22.59 5.31 9.48 9.57 20.32 14.62 30.38 3.38 6.74 6.34 13.89 8.97 20.97 6.7 18.03 14.72 36.48 19.09 55.22a.68.67-5.7 00.63.51c12.33.52 24.68-.31 37.1.35zm9.94-95.65q1.95 2.01 4.74 1.82.52-.04.18-.43c-5.36-6.09-11.36-11.99-15.91-18.32q-3.51-4.89-6.82-9.93-.28-.43-.08.04 6.63 15.24 17.89 26.82zm15.077 127.776a12.67 9.57 51.5 00-.397-15.874 12.67 9.57 51.5 00-15.377-3.958 12.67 9.57 51.5 00.397 15.873 12.67 9.57 51.5 0015.377 3.959zM380.69 480.3q1.08 1.04.52-.35c-.75-1.85-2.12-10.72-3.43-11.13a.5.5 0 00-.64.4q-1.13 6.61 3.55 11.08zm24.51 16.28q-1 .69-4.39 4c-6.46 6.3-13.69 4.89-21.9 4.46q-.5-.03-.22.39 3.62 5.51 8.27 10.07 5 4.84 10.63 8.95c2.13 1.55 9.53-.08 10.45-2.68q1.58-4.4 3.22-8.85a.68.68 0 00-.78-.9l-2.87.63a.79.79 0 01-.92-1.01q1.81-5.61 2.28-11.4.41-5.2-3.77-3.66zm32.28 32.12l-1.01-4.5a.94.94 0 00-1.44-.58l-3.57 2.33a.44.43-25.9 01-.65-.22c-.51-1.48-.3-6.01-1.61-6.6a.56.55-61.9 00-.71.22q-.77 1.25-2.16 1.45a.85.83-17.4 01-.86-.44q-1.19-2.3-.69-4.84a1.05 1.05 0 00-1.55-1.12c-1.87 1.05-5.84 3.8-7.42 1.89a.62.62 0 00-1.07.2q-2 5.92-6.1 10.62a.72.72 0 00.21 1.12q11.51 5.82 22.9 11.73c3.75 1.95 9.44 4.38 13.96 7.04 1.66.98 3.37.81 5.12 1.89a1.04 1.04 0 00.96.08l8.39-3.5a.5.5 0 00.21-.77c-4.92-6.47-11.04-12.16-16.18-18.13a.46.45 43.2 00-.71.02q-1.96 2.56-5.26 2.69a.76.75-7.5 01-.76-.58z"/><path fill="#959798" d="M296.51 189.04c2.09-3.74 2.69-6.44-1.61-8.91q-4.92-2.82-9.9-.81-.75.3-.11-.19l3.05-2.37a1.23 1.22 31.6 01.99-.23c3.34.64 7.55.85 9.79 3.89 2.42 3.29 1.88 7.1-1.98 8.86q-.48.22-.23-.24zM340.46 228q-.71-3-3.03-5.23 3.45-8.02 7.02-15.97c3.33-7.38 5.8-15.82 9.12-23.65 1.31-3.09 3.33-4.72 6.44-5.31a.48.48 0 01.57.4c2.5 17.93-8.6 36.93-20.12 49.76zM412.4 193.05q-5.4 5.16-11.1 7.73-7.35 3.33-16.76 4.97l6.88-14.68a1.41 1.39-.8 01.67-.68c4.62-2.18 15.79.89 20.31 2.66zM360.5 224.54q-8.35 5.65-17.53 10.01-2.59.18-1.93-3.05c.3.37.74.24 1-.11q14.32-18.75 28.6-37.51c1.77-2.33 5.58-4.12 6.75-.12 2.46 8.35-3.08 16.31-8.3 22.1-2.46 2.73-6.36 4.88-9.37 7.65a.57.57 0 00-.06.78q.25.31.84.25zM268.1 203.55q-.17-.09-.35-.11a.48.47 17.3 00-.46.23l-2.04 3.52q-.57.99-.54-.15c.21-7.22 6.46-10.66 12.41-12.92 12.58-4.79 22.3 3.19 21.76 16.24q-.25 5.92.39 11.84a.59.58-89.6 01-.64.64q-3.63-.43-6.16-3.14a.62.62 0 01-.05-.78q3.74-5.23.84-11.1a1.56 1.5 86.4 00-.82-.75q-2.07-.79-4.08.12a.71.71 0 01-.88-.24q-3.23-4.53-8.43-6.69a.23.23 0 00-.31.22l.01.32a.52.5-70.6 00.16.35q1.05.96 1.13 2.34.04.82-.59.29l-3.18-2.63a1.57 1.56 42.4 00-2.09.09l-4.49 4.43q-.64.63-.83-.25l-.24-1.17a1.04 1-82.9 00-.52-.7z"/><path fill="#fff" d="M412.4 193.05l19.35 9.58q-1.56.77-3.52-.35-2.67-1.52-12.05-6.36a1.27 1.27 0 00-.92-.1q-2.36.65-3.56 1.89c-3.85 3.98-6.56 5.08-12.3 7.33q-8.83 3.45-18.15 5.47l3.29-4.76q9.41-1.64 16.76-4.97 5.7-2.57 11.1-7.73z"/><path fill="#959798" d="M431.75 202.63l8.25 1.91q1.32 1.96-.62 3.03c-3.39 1.88-6.28 4.4-9.88 5.55-6.55 2.08-13.01 2.67-19.77 3.67-4.13.6-8.93.65-13.41 1.75a.59.58-20.4 01-.65-.29l-1.44-2.73a1.06 1.05-12.5 00-.88-.56q-6.98-.36-13.86.47-1.27.15-2.49-.22 1.75-2.95 4.25-4.7 9.32-2.02 18.15-5.47c5.74-2.25 8.45-3.35 12.3-7.33q1.2-1.24 3.56-1.89a1.27 1.27 0 01.92.1q9.38 4.84 12.05 6.36 1.96 1.12 3.52.35z"/><path fill="#fff" d="M450.21 205q-2.46 1-3.14 1.54c-14.1 11.21-28.48 13.64-46.77 14.57q-5.71.29-8.61 5.14-.26.43.25.39 5.74-.42 11.03 1.47c6.53 2.35 16.04 1.03 22.54-.32q3.5-.73 9.02-2.45-3.57 4.02-8.28 6.2c-6.25-.1-11.1 1.48-18.28.93a.8.78 16.1 00-.74.4c-1.15 2.06-4.67 6.38-7.43 5.46q-.13-.04-.08.08l.09.26a.19.19 0 01-.17.26l-4.21.27a.41.41 0 01-.43-.49l.06-.31a.9.89-1.6 01.66-.69c2.3-.57 8.66-3.33 6.24-6.28-2.88-3.49-14.21-1.63-17.92-.29-1.49.54-3.04.27-4.3.59q-17.89 4.47-35.78 8.85-1.64-.96-.96-2.79 3.76-1.92 7.83-2.77 14.59-2.53 28.86-6.7c5.51-1.61 9.01-3.61 12.66-7.61a1.7 1.7 0 00-1.23-2.85q-10.6-.19-21.11 4 3.09-3.86 6.99-6.65 1.22.37 2.49.22 6.88-.83 13.86-.47a1.06 1.05-12.5 01.88.56l1.44 2.73a.59.58-20.4 00.65.29c4.48-1.1 9.28-1.15 13.41-1.75 6.76-1 13.22-1.59 19.77-3.67 3.6-1.15 6.49-3.67 9.88-5.55q1.94-1.07.62-3.03l10.08-.97a.45.45 0 01.49.47q-.03.48-.36.96z"/><path fill="#959798" d="M450.21 205c2.13 4.45-12.32 17.88-15.68 20.34q-5.52 1.72-9.02 2.45c-6.5 1.35-16.01 2.67-22.54.32q-5.29-1.89-11.03-1.47-.51.04-.25-.39 2.9-4.85 8.61-5.14c18.29-.93 32.67-3.36 46.77-14.57q.68-.54 3.14-1.54zM498.44 217.74a.67.67 0 01-1.16-.37l-.34-2.63a.63.63 0 01.67-.71c2.82.22 2.25 2.2.83 3.71zM350.83 235.02q10.13-6.05 19.18-13.16 10.51-4.19 21.11-4a1.7 1.7 0 011.23 2.85c-3.65 4-7.15 6-12.66 7.61q-14.27 4.17-28.86 6.7z"/><path fill="#959798" d="M343.37 268.12v1.99q0 1.06-.62.2l-3.37-4.64a.59.59 0 01.14-.82l4.34-3.06a1.55 1.52 26.6 01.9-.29l1.92-.01a.85.85 0 00.8-.57c.4-1.22-3.8-2.94-4.81-4.16q-6.13-7.44-10.5-16.05a.37.37 0 00-.58-.1c-2.56 2.39-7.06 6.67-9.75 4.88q-.43-.28.05-.49c5.52-2.45 3.82-6.26 7.28-9.39a.83.82 61.9 00.24-.81c-.56-2.22-5.47-11.05-8.61-7.81a1.01.99-64 01-.84.3q-9.28-1.07-9.25 8.23a.63.62-6.4 01-.49.61q-1.74.37-2.45-1.21c-5.8-12.98 18.07-20.07 25.24-9.47q1.13 1.67 1.76 5.53 2.17 13.33 12.88 22.9c1.64 1.46 2.23 1.73 4.47.95 17.09-5.99 30.31-2.88 50.12 1.17q6.1 1.25 14.31.29c5.6-.66 11.9-5.26 16.55-8.33a.36.36 0 01.56.26q.72 6.13-4.87 8.73c-9.38 4.36-17.96 8.97-28.31 10.69q-.52.09-.02.25 2.38.78 5.79.62c13.19-.61 21.72-1.14 32.99-4.84a.35.34-7.6 01.46.34q-.26 5.88-4.09 9.8c-3.13 3.2-8.98 2.97-13.11 2.62q-17.55-1.52-34.75-5.37-.49-.11-.03.09c14.14 6.1 28.04 12.65 42.6 17.7a.46.46 0 01.27.63c-1.02 2.14-2.63 2.95-5.05 2.46-12.69-2.58-25.7-9.92-38.26-16.47q-.52-.27-.18.21.6.85 2.16 2.05c11.41 8.71 20.86 16.13 35.48 22.66 2.26 1 4.22 2.43 6.31 3.75a.29.29 0 01-.01.5q-3.29 1.84-5.52 1.15-9.75-3-21.4-9.29c-15.28-8.25-29.42-19.66-45.94-26.82a1.33 1.31-42.7 00-1-.03l-.77.27a1.16 1.15 48.2 01-.94-.06c-2.5-1.31-4.99-2.64-7.96-2.4q-1.76.15-3.58.11a.55.55 0 00-.56.55zM235.08 250.16c13.69 11.41 28.11 23.74 39.37 37.78a1.16 1.14 30.5 01.24.9c-.34 2.32-3.23 4.86-5.11 1.81q-2.85-4.63-4.3-6.18-29.13-31.1-65.07-53.96c-1.26-.8-2.57-.77-3.81-1.45q-5.3-2.91-11.18-4.63a.4.4 0 01-.16-.68c6.67-6.04 31.42 11.37 37.17 15.79q1.47 1.13 12.85 10.62z"/><path fill="#959798" d="M426.25 231.54q-15.81 8.13-33.71 8.02c-10.58-.07-20.51-1.22-31.54.98q-7.05 1.11-13.57 4.02a.91.9-39.4 01-.87-.08q-1.84-1.25-2.6-3.9 17.89-4.38 35.78-8.85c1.26-.32 2.81-.05 4.3-.59 3.71-1.34 15.04-3.2 17.92.29 2.42 2.95-3.94 5.71-6.24 6.28a.9.89-1.6 00-.66.69l-.06.31a.41.41 0 00.43.49l4.21-.27a.19.19 0 00.17-.26l-.09-.26q-.05-.12.08-.08c2.76.92 6.28-3.4 7.43-5.46a.8.78 16.1 01.74-.4c7.18.55 12.03-1.03 18.28-.93zM479.86 255.93q-2.67-.19-5.12-.57a.73.73 0 01.05-1.44l10.84-1.05a.89.88 1.2 00.79-.75l1.79-12.12a.63.63 0 011.22-.12c1.31 3.68-.27 12.71 5.15 13.56q3.49.55 7.01.73a.66.66 0 01.62.72l-.06.66a.65.64 0 01-.6.59q-5.74.39-8.81 1.62c-3.68 1.46-2.65 7.37-3.34 10.59q-.1.49-.33.04-.73-1.46-1.29-2.9c-1.28-3.27.4-5.79-3.05-8.28q-1.45-1.04-4.87-1.28zM394.02 242.7q-3.83.79-7.77.01l7.77-.01z"/><path fill="#959798" d="M363.25 243.79q-1.41 1.23-3.46.71 1.46-1.18 3.46-.71z"/><rect fill="#959798" x="-3.28" y="-.61" transform="rotate(33 -260.974 649.995)" width="6.56" height="1.22" rx=".56"/><path fill="#959798" d="M297.29 265.06c1.07-1.79 9.27-19.04 10.76-18.39 3.26 1.4 2.27 3.35.48 5.45-1.43 1.68-10.06 13.18-10.99 13.32q-.52.07-.25-.38z"/><path fill="#fbfde0" d="M308.76 265.39q.14.1.26.23a.94.93 26.3 01.25.73q-.2 2.75-1.19 4.73-5.77 11.52-7.34 21.17-1.56 9.54-3.36 15.09-.2.61-.59.1l-12.62-16.36a.55.53-42.4 01.04-.7q11.4-11.98 20.71-25.73 1.24-1.82 3.06.15.14.15.78.59z"/><ellipse fill="#959798" transform="rotate(58.7 -70.692 435.078)" rx="2.4" ry="1.29"/><path fill="#959798" d="M495.4 273.46l1.79 1.54a.94.92-64.9 01.3.86q-.31 1.65-2.06 1.68a.82.81-7.4 01-.79-.6l-.7-2.55a.91.9-77.4 011.46-.93zM320.25 355.46q-1.11.7-.67 1.47 2.28 3.98 4.29 8.11c3.2 6.59 7.61 12.5 10.82 19.22q.27.57 1.36 1.28.42.28.65.72c4.32 8.12 11.38 16.04 15.89 22.66 2.11 3.11 6.99 6.06 6.96 10.32a.6.59 6.5 00.48.59c5.63 1.14 11.02 8.94 14.22 13.38-12.42-.66-24.77.17-37.1-.35a.68.67-5.7 01-.63-.51c-4.37-18.74-12.39-37.19-19.09-55.22-2.63-7.08-5.59-14.23-8.97-20.97-5.05-10.06-9.31-20.9-14.62-30.38-4.4-7.87-8.63-15.36-14-22.59-1.95-2.62-3.11-4.93-.06-7.15a.58.58 0 01.76.07c13.2 13.92 21.07 30.55 31.65 45.68 3.02 4.32 5.37 9.11 8.06 13.67z"/><ellipse fill="#959798" transform="rotate(83.5 79.3 436.323)" rx="1.72" ry="1.24"/><ellipse fill="#959798" transform="rotate(.7 -25261.91 40268.091)" rx="4.43" ry="4.13"/><path fill="#959798" d="M384.19 337.56q-11.26-11.58-17.89-26.82-.2-.47.08-.04 3.31 5.04 6.82 9.93c4.55 6.33 10.55 12.23 15.91 18.32q.34.39-.18.43-2.79.19-4.74-1.82zM418.55 451.45q13.83 9.59 25.46 21.69a1.75 1.72 18.9 01.43.86l1.35 7.5q-.72 2.32-3.14 2.35a.84.84 0 01-.74-.44l-1.74-3.27q-.06-.28-.22-.51a.54.54 0 00-.72-.13l-3.48 2.21q-.03-1.74-1.71-1.71-.41-1.83 0-3.81.13-.6-.4-.3-5.91 3.33-10.93 7.81a1.39 1.39 0 01-2.31-.9l-.82-8.09q-.04-.44-.38-.15l-1.41 1.19q-5.62 3.19-9.74 8.34c-1.13 1.41-3.62 2.19-5.12 3.62q-9.03 8.56-20.7 1.79-12.85-7.45-22.66-14.89c-18.29-13.89-44.17-21.11-66.51-25.3q-19.04-3.57-44.18-10.53-2.75-.76-7.18-2.29c-5.98-2.07-12.05-3.6-17.9-5.84q-8.27-3.16-16.84-5.4c-34.06-14.94-65.5-32.05-91.38-59.82-2.73-2.93-10.63-12.26-10.78-16.16q-.07-1.75 1.15-.48c9.33 9.75 20.2 18.04 30.99 26.08q7.89 5.87 16.52 11.23c32.69 20.29 66.38 35.81 102.41 45.42 6.88 1.84 14.27 2.66 22.13 3.99 27.68 4.67 59.86 2.49 86.6 2.49 6.7-.01 13.64.87 20.54 1.28a.46.46 0 01.02.92c-11.71 1.28-14.57 11.31-12.28 21.43 1.78 7.88-1.47 16.2 6.14 22.03q4.49 3.43 9.48 1.49 5.68-2.2 5.34-10.36a2.11 2.1 76.8 011.24-2.01c11.08-4.94 12.57-13.9 7.16-24.56-1.46-2.87-4.48-4.34-6.87-6.42q-.38-.34.11-.19c8.07 2.51 16.1 5.3 23.07 9.84z"/><path fill="#fff" d="M320.25 355.46q1.81 2.75 6.3 12.23c1.4 2.94 4.73 6.6 6.62 9.99q17.84 32.03 46.07 55.7a.32.32 0 01-.25.56l-4.74-.73c-3.2-4.44-8.59-12.24-14.22-13.38a.6.59 6.5 01-.48-.59c.03-4.26-4.85-7.21-6.96-10.32-4.51-6.62-11.57-14.54-15.89-22.66q-.23-.44-.65-.72-1.09-.71-1.36-1.28c-3.21-6.72-7.62-12.63-10.82-19.22q-2.01-4.13-4.29-8.11-.44-.77.67-1.47z"/><ellipse fill="#959798" transform="rotate(48.9 -435.569 268.228)" rx=".95" ry=".78"/><path fill="#fff" d="M417.79 475.75q-4.93 5.29-9.64 10.79c-2.09 2.43-4.87 3.88-7.26 6.04-4.81 4.35-9.75 3.77-15.69 1.17q-11.07-4.84-19.21-10.99c-22.12-16.73-48.11-25.95-74.72-31.33q-23.9-4.84-55.76-14.94-6.05-1.92-28.55-11.24 8.57 2.24 16.84 5.4c5.85 2.24 11.92 3.77 17.9 5.84q4.43 1.53 7.18 2.29 25.14 6.96 44.18 10.53c22.34 4.19 48.22 11.41 66.51 25.3q9.81 7.44 22.66 14.89 11.67 6.77 20.7-1.79c1.5-1.43 3.99-2.21 5.12-3.62q4.12-5.15 9.74-8.34z"/><ellipse fill="#959798" transform="rotate(51.5 -276.402 633.417)" rx="12.67" ry="9.57"/><path fill="#fff" d="M418.55 451.45q17.39 9.79 30.45 24.76c-2.77-.28-1.6 3.56-3.21 5.29l-1.35-7.5a1.75 1.72 18.9 00-.43-.86q-11.63-12.1-25.46-21.69z"/><path fill="#959798" d="M380.69 480.3q-4.68-4.47-3.55-11.08a.5.5 0 01.64-.4c1.31.41 2.68 9.28 3.43 11.13q.56 1.39-.52.35zM449 476.21q7.15 5.81 11.8 13.74c1.74 2.95 5.08 2.23 7.91 2.8q.41.39 1.01.61a.9.89-53.3 00.87-.13c26.92-21.19 40.91 26.78 44.05 43.45q.81 4.29-.27 8.08a1.83 1.82-68.5 01-2.58 1.13l-13.46-6.92a.56.56 0 00-.77.72c2.87 6.62 8.45 19.1 7.28 26.03a.7.7 0 01-.59.57c-5.43.76-13.29-3.39-17.57-5.78a.34.33-74.3 00-.49.28l-.05.81a.62.62 0 01-.59.59c-7.7.33-20.64-6.86-26.55-10.48q1.78-1.7 3.94-2.3 7.58 4.65 15.65 8.4.48.23.32-.28-.56-1.73-2.39-2.55-5.7-2.53-9.99-7.08l1.97-2.11q6.06 4.32 12.68 7.68c5.18 2.63 12.65 7.23 19.92 9.31a.38.37-82 00.48-.37q.02-1.86-.75-3.98c-4.92-13.56-11.43-25.39-16.63-38.26a.27.27 0 01.47-.27q2.65 3.54 4.93 7.07c3.06 4.76 7.85 7.4 12.66 9.98 2.32 1.23 4.81 3.95 7.6 4.63a1.17 1.17 0 001.44-1.28c-1.71-14.4-11.21-50.18-30.43-49.31-2.89.13-5.06 2.18-7.03 4.09-1.32 1.28-5.44 9.13-7.99 7.96a.41.4-64.6 01-.19-.55l2.63-5a1.27 1.27 0 00-.86-1.83c-6.56-1.4-11.14 4.43-13.29 10.3-.29.8-.8 1.15-1.55 1.41a.43.43 0 00-.22.64q1.29 2.05-.52 3.83a1.52 1.5-71.2 01-.86.43q-6.05.81-10.99 4.52-1.77-.53-3.5.42 1.61-3.75 5.14-5.81l7.08-1.95a.72.72 0 00.53-.71l-.01-.58q-.01-.52.24-.98l6.14-11.4a.6.59 27.8 00-.26-.81q-.99-.5-2.11-.26.44-3.38-1.3-6.42l-2.7 1.17q-.27-.85-1.13-.82a1.05 1.04 68.2 01-.83-.36q-.51-.59-.16-1.36a.8.79-56.6 00-.18-.89q-.35-.34-.91-.28.09-.47-.17-.98a.67.66 67.4 00-.78-.33q-1.96.57-3.52 1.99a.54.54 0 01-.9-.35l-.5-5.94 1.74 3.27a.84.84 0 00.74.44q2.42-.03 3.14-2.35c1.61-1.73.44-5.57 3.21-5.29z"/><path fill="#fbfde0" d="M434.04 480q1.68-.03 1.71 1.71-.57 1.17-1.68 1.25a.52.52 0 01-.55-.5q-.06-1.28.52-2.46z"/><path fill="#fff" d="M446.04 485.75q.56-.06.91.28a.8.79-56.6 01.18.89q-.35.77.16 1.36a1.05 1.04 68.2 00.83.36q.86-.03 1.13.82l-2.95.62a.38.38 0 01-.46-.39l.2-3.94zM453.25 494.71c-2.27.65-1.54-4.57-1.3-6.42q1.74 3.04 1.3 6.42z"/><path fill="#fbfde0" d="M441.64 511.4q-3.53 2.06-5.14 5.81l-1.41 1.27a.56.56 0 01-.94-.38l-.32-4.83q-.04-.59-.46-.18-1.84 1.76-4.5 1.79a.76.76 0 01-.77-.75l-.04-4.49a.4.39 86.7 00-.43-.39q-3.66.4-6.71 2.38a.57.57 0 01-.88-.44l-.37-6.26a.8.8 0 00-1.02-.72l-5.88 1.75a.38.37 85.7 01-.48-.42l1.07-7.32q.06-.41-.09-.8-1.16-3.03-3.71-5.19a.56.55-36.7 01.14-.93l1.87-.84a.66.66 0 01.89.36l1.82 4.77a.64.64 0 00.9.34l4.99-2.59a1.21 1.21 0 011.77 1.01l.28 5.41a.41.41 0 00.62.33l4.45-2.74a.45.44 72.8 01.67.36l.32 5.92a.7.7 0 001.05.57l4.29-2.42q.61-.34.58.35l-.26 5.73a.5.5 0 00.73.47l5.55-2.87a.63.62 81.6 01.9.67q-.52 2.75.52 5.27z"/><path fill="#fff" d="M468.5 545.79q-10.68-11.72-21.55-23.33c-1.94-2.06-3.5-2.81-5.67-.46a.71.71 0 01-1.23-.47l-.05-4.74q4.94-3.71 10.99-4.52a1.52 1.5-71.2 00.86-.43q1.81-1.78.52-3.83a.43.43 0 01.22-.64c.75-.26 1.26-.61 1.55-1.41 2.15-5.87 6.73-11.7 13.29-10.3a1.27 1.27 0 01.86 1.83l-2.63 5a.41.4-64.6 00.19.55c2.55 1.17 6.67-6.68 7.99-7.96 1.97-1.91 4.14-3.96 7.03-4.09 19.22-.87 28.72 34.91 30.43 49.31a1.17 1.17 0 01-1.44 1.28c-2.79-.68-5.28-3.4-7.6-4.63-4.81-2.58-9.6-5.22-12.66-9.98q-2.28-3.53-4.93-7.07a.27.27 0 00-.47.27c5.2 12.87 11.71 24.7 16.63 38.26q.77 2.12.75 3.98a.38.37-82 01-.48.37c-7.27-2.08-14.74-6.68-19.92-9.31q-6.62-3.36-12.68-7.68zm7.34-33.99q-7.01-2.06-14.27-1.72c-5.32.25-8.25 10.89-8.71 14.96a.52.51 61.5 00.97.29c2.54-5.1 5.87-13.23 12.89-12.96q6.09.24 9.1-.33.52-.1.02-.24zM386.96 515.5q.18-.31.48-.45a.75.73-36.4 01.78.11l10.43 9.08a1.01 1-34.8 001.01.18l6.55-2.58a1.18 1.17-3.6 00.71-.8l1.38-5.47a.53.53 0 00-.42-.65l-2.15-.39a.81.81 0 01-.66-.72c-.43-5.11 1.44-9.83 2.42-14.83a.57.57 0 00-.36-.65q-1.29-.45-1.93-1.75 4.18-1.54 3.77 3.66-.47 5.79-2.28 11.4a.79.79 0 00.92 1.01l2.87-.63a.68.68 0 01.78.9q-1.64 4.45-3.22 8.85c-.92 2.6-8.32 4.23-10.45 2.68q-5.63-4.11-10.63-8.95z"/><path fill="#959798" d="M405.2 496.58q.64 1.3 1.93 1.75a.57.57 0 01.36.65c-.98 5-2.85 9.72-2.42 14.83a.81.81 0 00.66.72l2.15.39a.53.53 0 01.42.65l-1.38 5.47a1.18 1.17-3.6 01-.71.8l-6.55 2.58a1.01 1-34.8 01-1.01-.18l-10.43-9.08a.75.73-36.4 00-.78-.11q-.3.14-.48.45-4.65-4.56-8.27-10.07-.28-.42.22-.39c8.21.43 15.44 1.84 21.9-4.46q3.39-3.31 4.39-4zM475.82 512.04q-3.01.57-9.1.33c-7.02-.27-10.35 7.86-12.89 12.96a.52.51 61.5 01-.97-.29c.46-4.07 3.39-14.71 8.71-14.96q7.26-.34 14.27 1.72.5.14-.02.24zM438.24 529.28q3.3-.13 5.26-2.69a.46.45 43.2 01.71-.02c5.14 5.97 11.26 11.66 16.18 18.13a.5.5 0 01-.21.77l-8.39 3.5a1.04 1.04 0 01-.96-.08c-1.75-1.08-3.46-.91-5.12-1.89-4.52-2.66-10.21-5.09-13.96-7.04q-11.39-5.91-22.9-11.73a.72.72 0 01-.21-1.12q4.1-4.7 6.1-10.62a.62.62 0 011.07-.2c1.58 1.91 5.55-.84 7.42-1.89a1.05 1.05 0 011.55 1.12q-.5 2.54.69 4.84a.85.83-17.4 00.86.44q1.39-.2 2.16-1.45a.56.55-61.9 01.71-.22c1.31.59 1.1 5.12 1.61 6.6a.44.43-25.9 00.65.22l3.57-2.33a.94.94 0 011.44.58l1.01 4.5a.76.75-7.5 00.76.58z"/><path fill="#fff" d="M466.53 547.9q4.29 4.55 9.99 7.08 1.83.82 2.39 2.55.16.51-.32.28-8.07-3.75-15.65-8.4l3.59-1.51zM590.25 589.71l.75.35v.94h-1.06l-.23-.75.54-.54z"/><path fill="#fbfde0" d="M0 589.94q.66.12 1.31.12 294.2.16 588.4.19l.23.75H0v-1.06z"/></svg>