<svg xmlns="http://www.w3.org/2000/svg" viewBox="0 0 591 591"><g stroke-width="2" fill="none"><path stroke="#111110" vector-effect="non-scaling-stroke" d="M590.06 0l.19.29"/><path stroke="#7e7e70" vector-effect="non-scaling-stroke" d="M590.25.29v589.46a.5.5 0 01-.5.5c-196.5.01-393 .05-589.5-.21"/><path stroke="#111110" vector-effect="non-scaling-stroke" d="M.25 590.04l-.25-.1"/><path stroke="#5b5b5b" vector-effect="non-scaling-stroke" d="M586.21 16.75V14"/><path stroke="#7e7e70" vector-effect="non-scaling-stroke" d="M586.21 14l-.01-9.27a.48.48 0 00-.48-.48H4.75a.5.5 0 00-.5.5v581a.5.5 0 00.5.5h580.96a.5.5 0 00.5-.5v-569"/><path stroke="#d8d9cb" vector-effect="non-scaling-stroke" d="M586.21 14q-2.66-.99-4.9-2.67c-3.1-2.33-5.36-3.1-8.82-3.78a.44.44 0 00-.53.45q.02.34.34.47 7.03 2.83 11.96 7.41.36.33.82.49l1.13.38"/><path stroke="#8f8f7f" vector-effect="non-scaling-stroke" d="M591 587.56c-.84-.45-.25-537.29-.25-587.06a.25.24-86.1 00-.21-.25q-.17-.02-.29.04"/><path stroke="#caccbe" vector-effect="non-scaling-stroke" d="M577.19 591q-5.75-.63-11.5 0M528.19 591q-3.13-.63-6.25 0M504.19 591q-3-.63-6 0M494.19 591q-2.13-.63-4.25 0M471.44 591q-2.75-.63-5.5 0M456.19 591q-3.13-.63-6.25 0M423.44 591q-2.38-.63-4.75 0M416.44 591q-3.25-.63-6.5 0M407.44 591q-2.75-.63-5.5 0M399.44 591q-2.75-.63-5.5 0M383.44 591q-2.38-.63-4.75 0M375.44 591q-2.88-.63-5.75 0M368.44 591q-3.25-.63-6.5 0M360.44 591q-3.25-.63-6.5 0M352.44 591q-3.25-.63-6.5 0M343.44 591q-2.75-.63-5.5 0M335.44 591q-2.75-.63-5.5 0M327.44 591q-2.75-.63-5.5 0M304.44 591q-3.25-.63-6.5 0M294.44 591q-2.38-.63-4.75 0M289.44 591q-3.88-.63-7.75 0M281.44 591q-3.88-.63-7.75 0M273.44 591q-3.75-.63-7.5 0M265.44 591q-3.75-.63-7.5 0M232.44 591q-3.38-.63-6.75 0M224.44 591q-3.25-.63-6.5 0M216.44 591q-3.25-.63-6.5 0M199.19 591q-2.63-.63-5.25 0M192.44 591q-3.25-.63-6.5 0M176.44 591q-3.25-.63-6.5 0M160.44 591q-3.25-.63-6.5 0M143.19 591q-2.63-.63-5.25 0M95.19 591q-2.75-.63-5.5 0M89.44 591q-3.75-.63-7.5 0M78.44 591q-2.25-.63-4.5 0M57.44 591q-3.75-.63-7.5 0M47.19 591q-2.63-.63-5.25 0M33.19 591q-3.75-.63-7.5 0M24.44 591l-10.69-.21"/><path stroke="#8f8f7f" vector-effect="non-scaling-stroke" d="M13.75 590.79l-13.11-.1a.36.36 0 01-.36-.33l-.03-.32"/><path stroke="#faefc4" vector-effect="non-scaling-stroke" d="M74.72 58.23q13.96-13.62 19.55-19.45 1.45-1.52.3-3.03a1.12 1.1 72.6 00-.81-.43q-22.73-.97-40.47-.51c-11.72.3-19.72 7.74-19.62 19.43q.18 19.89-.47 39.81a1.69 1.69 0 002.85 1.29q19.37-18.29 38.67-37.11"/><path stroke="#7e7e70" vector-effect="non-scaling-stroke" d="M506.46 229q5.22-22.44-.5-44.75"/><path stroke="#8f8f7f" vector-effect="non-scaling-stroke" d="M505.96 184.25c-17.56-65.37-92.2-93.03-148.29-55.18-20.78 14.02-36.28 38.5-40.14 63.22-5.72 36.71 7.85 71.86 38.45 93.74 56.4 40.33 134.49 10.09 150.48-57.03"/><path stroke="#111110" vector-effect="non-scaling-stroke" d="M505.96 184.25c-2.85-.35.43 8.25.55 10.57.28 5.65.99 11.51.68 16.84q-.48 8.08-2.11 16.04c-.23 1.08.28 1.65 1.38 1.3"/><path stroke="#d8d9cb" vector-effect="non-scaling-stroke" d="M288.12 174.76l-.35.32q-.63.58.17.27 1.16-.45 1.32-1.58.37-2.46-.84-.35-.27.47-.18.99a.37.37 0 01-.12.35M7.75 177.98q.03-.22-.04-.44-.41-1.33-.54.26-.09 1.06.65 1.82.44.45.36-.17-.07-.51-.33-.95a.82.79-56.7 01-.1-.52"/><path stroke="#8f8f7f" vector-effect="non-scaling-stroke" d="M153.39 270.11l4.45 1.97q.5.21 1.04.19c7.98-.41 17.96-4.61 25.6-7.34q.48-.17.33.32-.28.97-.78 1.82c-2.53 4.29-1.92 9.09 1.07 12.96a1.22 1.18 72.9 00.86.47l11.31.95a.51.5-87 01.46.52l-.11 5.03a.65.65 0 01-.62.63l-11.07.45a.65.63-89 00-.61.6c-.19 2.81-1.26 11.89.22 14.03 1.55 2.25 7.94 1.48 10.44 1.75a.59.59 0 01.49.78q-3.59 10.38-7.4 20.01c-7.35 18.59-14.04 37.34-20.73 56.15-1.88 5.29-4.95 11.21-6.93 17.14-4.26 12.72-8.78 24.51-13.27 36.76-3.56 9.7-9.91 25.29-14.05 38.28q-.8 2.52-4.61 11.07a1.25 1.23.4 01-.66.64c-24.54 10.09-49.59 24.61-68.96 42.93a.29.28 5.8 00.36.44c17.99-12.41 41.24-20.54 62.31-25.75a.43.42 3.3 01.5.56l-6.68 17.71a1.62 1.62 0 00.82 2.04c2.25 1.08 9.6 3.23 10.83-.5 2.55-7.76 5.71-15.19 8.11-22.99a.85.85 0 01.64-.58c60.94-12.65 122.64-16.4 184.75-13.32q1.83.09 3.76.36a1.06 1.06 0 01.75.49q6.04 9.48 12.13 18.9 1.48 2.29 3.34 1.64c6.02-2.12 11.34-4.41 6.01-11.71q-2.82-3.87-5.53-7.87a.35.35 0 01.32-.55l15.46 1.41a.43.43 0 01.3.69c-5.8 7.8.44 15.88 7.5 19.27 18.88 9.07 51.8 10.14 65.15-7.93a.75.74-65.5 01.77-.29c30.16 6.87 61.29 16.32 87.89 33.23q.45.29.27-.21-.56-1.58-2.25-3.15c-51.02-47.66-125.12-66.9-192.85-71.82q-1.67-.12-2.48-1.34-45.3-68.69-90.7-137.32-4.85-7.32-9.31-14.78a.59.59 0 01.64-.88c4.4.97 5.6-1.4 5.6-5.33.01-3.56.57-7.94-1.42-9.88a1.34 1.31 67.6 00-.91-.39l-8.95-.17a.41.4 3.8 01-.4-.45l.64-5.42a.54.53-79.9 01.65-.46c3.83.9 7.33 1.07 9.11-2.87 2.57-5.71 1.45-15.8-7.57-13.83a.97.97 0 01-1.18-.95l.01-9.29a.77.77 0 01.56-.74l18.35-5.42a1.15 1.13-36.3 01.95.14q2.55 1.62 5.7.45c5.49-2.01 13.73-5.24 20.1-4.97 26.13 1.13 21.82-38.14 1.58-40.81-5.12-.68-9.59 1.6-14.23 3.01a1.52 1.51-79.4 00-.77.53c-1.07 1.38-1.67 2.19-3.5 2.66-9.37 2.41-17.54 7.03-26.74 9.49q-30.52 8.17-60.92 16.8c-6.76 1.92-10.8 3.64-13.32 9.92a.7.69 15.8 01-.76.42c-21.72-3.89-18.25 26.29-3.12 28.04 3.65.42 8.28-.59 10.39-4.06a.7.69 27 01.87-.28"/><path stroke="#d8d9cb" vector-effect="non-scaling-stroke" d="M275.634 497.45a1.25.69 64.7 00.09-1.425 1.25.69 64.7 00-1.158-.835 1.25.69 64.7 00-.09 1.425 1.25.69 64.7 001.158.835"/><path stroke="#8f8f7f" vector-effect="non-scaling-stroke" d="M466.158 528.592a24.47 14.11.8 00-24.271-14.45 24.47 14.11.8 00-24.665 13.766 24.47 14.11.8 0024.271 14.45 24.47 14.11.8 0024.665-13.766"/><path stroke="#5d5e5e" vector-effect="non-scaling-stroke" d="M407.75 117.79q-9.54.7-18.65 3.6a1.25 1.2-84.2 00-.73.62l-1.07 2.13a.79.79 0 00.86 1.13l4.43-.9a1 1 0 011.13 1.33c-.66 1.77-2.34 2.45-4.31 2.65q-4.72.49-8.06 3.89"/><path stroke="#6c6b6b" vector-effect="non-scaling-stroke" d="M381.35 132.24q-3.04 1.66-5.1 4.3"/><path stroke="#5d5e5e" vector-effect="non-scaling-stroke" d="M376.25 136.54c-2.09.35-7.63 1.38-8.18-1.36-.55-2.73 1.85-3.37 3.6-4.5a.6.59 53.1 00.12-.9l-.72-.79a.76.75 55.7 00-.88-.17c-3.35 1.65-10.14 4.61-10.96 8.64a.88.88 0 001.08 1.03l3.33-.83q1.3-.32.44.7-1.86 2.19-4.66 2.91c-.91.24-4.21 2.33-2.11 3.34a.6.6 0 00.73-.16l1.72-2.08a.54.53-36 01.91.14l.34.83a.84.84 0 01-.26.97q-2.7 2.11-1.78 5.61a.47.46 72.5 00.61.32c1.76-.65 5.73-5.09 7.04-4.24a1.55 1.54-85 01.55.66l.27.59q.39.88.92.07.89-1.38.79-3.04-.05-.83.66-.39l2.77 1.74a.95.95 0 00.86.08c4.11-1.65 8.69-4.6 11.74.63q1.82 3.11 3.53 4.59a.51.51 0 01.1.67q-1.46 2.29-4.08 1.73-1.34-.29-.67.91.89 1.62-.02 3.22a.75.75 0 01-1.14.18l-3-2.62a1.42 1.39 67.8 00-.81-.35l-2.47-.23a.92.9-5.1 01-.79-.65q-.69-2.29 1.23-3.24a.67.66-22.7 00.34-.82c-.3-.82-2.69-.86-3.65-.94a.93.93 0 00-.84.41l-1.52 2.28q-.29.44-.75.67l-6.64 3.31"/><path stroke="#6c6b6b" vector-effect="non-scaling-stroke" d="M364 155.46c-2.29 1.08-4.89 3.89-4.36 6.82a1.29 1.26 14.8 00.48.8c5.08 4.02 10.64 1.02 10.88-5.29"/><path stroke="#5d5e5e" vector-effect="non-scaling-stroke" d="M371 157.79c.33-1.5 8.36.61 9.92.84a2.22 2.22 0 011.69 1.25q2.71 5.78 8.1 9.37"/><path stroke="#6c6b6b" vector-effect="non-scaling-stroke" d="M390.71 169.25c.28 1.6-.2 4.91 1.54 5.54"/><path stroke="#5d5e5e" vector-effect="non-scaling-stroke" d="M392.25 174.79l1.04 1.46"/><path stroke="#6c6b6b" vector-effect="non-scaling-stroke" d="M393.29 176.25l-.87 1.45"/><path stroke="#5d5e5e" vector-effect="non-scaling-stroke" d="M392.42 177.7l-3.13.74a1.21 1.19 55.4 01-.93-.18q-1.19-.8-1.65-2.26"/><path stroke="#6c6b6b" vector-effect="non-scaling-stroke" d="M386.71 176l-.77-3.11a1.14 1.14 0 00-.55-.72q-1.18-.64-2.43.33"/><path stroke="#5d5e5e" vector-effect="non-scaling-stroke" d="M382.96 172.5l-4.16 2.77a.8.79-23.6 00-.34.85q.44 1.85 2.26 2.35 2.03.55.36 1.84-3.06 2.38-6.81 3.2a.56.55-7.5 00-.44.56q.05 2.25-1.58 3.89"/><path stroke="#6c6b6b" vector-effect="non-scaling-stroke" d="M372.25 187.96q-1.33.7-3.28 3.25c-2.83 3.69-10.43 5.11-9.01 12.17"/><path stroke="#5d5e5e" vector-effect="non-scaling-stroke" d="M359.96 203.38q.04.92-.41 1.48a.66.65-58.3 01-.78.19l-7.24-3.32a.96.95 35.2 00-1.07.18q-5.01 4.84-3.13 11.8.29 1.09.93.16l1.67-2.44a1.23 1.19 14.1 01.9-.52l1.56-.14a1.18 1.16 80.6 011.24.9q.53 2.14-.1 4.12a.5.49 18.6 00.31.62l4.64 1.5a.76.75 12 01.52.79l-.47 4.82a.66.66 0 00.44.69c3.9 1.39 6.68-2.1 10.41-3.23a1.06 1.05-33.5 01.99.2q3.62 3.09 8.25 4.2a1.62 1.6-10.9 01.94.63l2.96 4.01a.98.96 73.6 00.68.38q4 .36 6.76 3.1"/><path stroke="#6c6b6b" vector-effect="non-scaling-stroke" d="M389.96 233.5c1.19 1.87 2.73 5.18 4.64 6.29 1.86 1.08 5.01.08 6.74 1.1 8.12 4.8.14 11.82-3.87 15.14"/><path stroke="#5d5e5e" vector-effect="non-scaling-stroke" d="M397.47 256.03l-.93 4.22"/><path stroke="#6c6b6b" vector-effect="non-scaling-stroke" d="M396.54 260.25c-.65 3.07-4.18 5.52-6.34 7.72-3.37 3.45-4.77 7.78-6.69 12.09-1.14 2.57-1.51 4.96 1.62 6.01a.85.85 0 01.58.68l.08.5"/><path stroke="#5d5e5e" vector-effect="non-scaling-stroke" d="M385.79 287.25q-.52 1.56-2.06 1.31-8.12-1.33-12.27-8.57a.72.69 38.4 01-.07-.52l.95-3.69a.87.86-70.4 00-.47-1.01q-1.12-.51-2.33-.27"/><path stroke="#6c6b6b" vector-effect="non-scaling-stroke" d="M369.54 274.5c-1.35-1.94-.84-11.04-.77-13.74a1.09 1.08 22.5 00-.35-.84c-2.5-2.34-5.78-3.53-6.57-7.43a1.86 1.83-72.1 00-.43-.86c-1.21-1.33-2.56-1.98-3.16-3.69-1.44-4.11.64-11.19 1.53-15.47a1.76 1.75 24.2 00-.68-1.77l-4.13-3.03a1.87 1.82 8.2 01-.6-.78q-3.2-7.94-11.45-9.28c-1.6-.26-4.13.82-5.62-1.17-1.37-1.83-.87-10.4-2.72-10.66a.48.47 4.8 00-.55.46l-.08 3.26"/><path stroke="#5d5e5e" vector-effect="non-scaling-stroke" d="M333.96 209.5q-1.79-.37-2.67-2"/><path stroke="#6c6b6b" vector-effect="non-scaling-stroke" d="M331.29 207.5q-1.87-9.41-7.26-17.34-.28-.41-.38.08-5.69 29.05 6.89 55.76"/><path stroke="#5d5e5e" vector-effect="non-scaling-stroke" d="M330.54 246l2.63 4.75"/><path stroke="#6c6b6b" vector-effect="non-scaling-stroke" d="M333.17 250.75c7.16 15.98 20.29 27.65 35.58 36.04"/><path stroke="#5d5e5e" vector-effect="non-scaling-stroke" d="M368.75 286.79q7.43 4.72 15.96 6.96"/><path stroke="#6c6b6b" vector-effect="non-scaling-stroke" d="M384.71 293.75q5.37 1.87 11.14 2.81"/><path stroke="#5d5e5e" vector-effect="non-scaling-stroke" d="M395.85 296.56q8.99 2.56 17.45 2.02c33.88-2.16 68.62-21.37 81.12-54.67"/><path stroke="#6c6b6b" vector-effect="non-scaling-stroke" d="M494.42 243.91c5.62-8.86 4.68-16.43 3.1-27.41-.52-3.64-5.78-11.08-10.47-10.99a.95.95 0 00-.82 1.4l5.08 9.38a.89.88 63 01-.39 1.22q-5.14 2.51-9.14 6.71a1.61 1.61 0 01-2.76-.89c-.55-4.02-2.88-14.51-6.11-16.79q-.99-.69-1.93-.59a1.47 1.47 0 00-1.1 2.23l7.17 11.69a1.8 1.8 0 01.25 1.08q-.22 2.31.41 4.53a1.6 1.57-80.3 00.59.85c3.36 2.46 4.92 6.66 2.19 10.27q-7.04 9.33-11.92 19.96-5.44 11.85-16.1 19.14c-1.28.88-3.14.82-4.17-.29a1.19 1.16 26.8 01-.31-.91l.3-3.5"/><path stroke="#5d5e5e" vector-effect="non-scaling-stroke" d="M448.29 271c1.03-3.08 2.47-6.8.3-9.44a1.01 1 32.9 01-.19-.87c.58-2.38 3.13-7.57 2.42-9.6"/><path stroke="#8f8f7f" vector-effect="non-scaling-stroke" d="M450.82 251.09c-.18-3.69-2.12-6.83-1.61-10.34"/><path stroke="#5d5e5e" vector-effect="non-scaling-stroke" d="M449.21 240.75c-.27-3.35 1.52-8.81-3.55-9.44-6.95-.86-16.41 5.84-19.49.27-6.89-12.45-1.78-25.94 7.03-35.4 3.58-3.83 10.88-4.16 15.71-3.7 4.09.38 7.83 4.89 10.26 7.9a.68.67 61.7 00.73.22l6.46-2.13a1.47 1.46-43.6 01.97.02q3.68 1.32 7.16-.4a.71.7-24.8 00.34-.9l-1.83-4.47a.94.94 0 00-1-.57l-6.24.89a.58.58 0 01-.65-.47c-1.15-5.98-1.98-5.26-7.45-4.55a.72.71 87.2 00-.62.69l-.05 1.75a.72.71 87.7 01-.63.69l-.81.1a.59.58-7.8 01-.64-.48l-.82-4.73a.97.97 0 00-1.8-.3l-2.02 3.62a.55.55 0 01-.84.15l-.97-.83a.76.76 0 01-.15-.99l1.99-3.15a1.04 1.04 0 00.08-.94c-.43-1.08-3.53-.12-4.72-.32a.94.93 26.3 00-.83.28c-1.85 1.97-3.39 4.96-5.42 6.47-2.48 1.85-5.19.8-7.67 1.57a1.25 1.25 0 01-1.61-1.37q.73-4.98 2.87-8.69"/><path stroke="#8f8f7f" vector-effect="non-scaling-stroke" d="M433 181.54l1.02-.86a1.26 1.22-62.2 01.86-.28l5.34.37q.9.06.33-.63-1.54-1.89-4.01-1.24"/><path stroke="#5d5e5e" vector-effect="non-scaling-stroke" d="M436.54 178.9q-.4-.92-.19-1.61a.93.92-89.3 01.61-.6l4.4-1.31a1.64 1.63 10.5 00.82-.56c1.9-2.4 3.23-6.89 6.15-7.75a.93.92 87.4 00.63-.7l.69-3.64a.55.54-89.6 00-.63-.64l-4.8.86q-.93.17-.58-.71c2.14-5.36 5.72-8.18 9.89-12.02q3.95-3.61 9.71-3.4"/><path stroke="#6c6b6b" vector-effect="non-scaling-stroke" d="M463.24 146.82c2.45 1.02 9.54 1.91 6.93 5.99q-1.63 2.55 1.44 4.59a.31.31 0 00.45-.1l1.73-3.05"/><path stroke="#5d5e5e" vector-effect="non-scaling-stroke" d="M473.79 154.25q.58-.87 1.44-.59a1.11 1.08 86.4 01.64.58q.69 1.52 2.22 1.9a.65.64 14.1 00.78-.46q.7-2.62 3.37-2.94a.84.84 0 00.59-1.31q-6.23-8.85-16.29-14.68"/><path stroke="#6c6b6b" vector-effect="non-scaling-stroke" d="M466.54 136.75q-4.62-4.93-11.21-7.28"/><path stroke="#5d5e5e" vector-effect="non-scaling-stroke" d="M455.33 129.47q-3.75-3.1-8.58-4.32"/><path stroke="#6c6b6b" vector-effect="non-scaling-stroke" d="M446.75 125.15c-10.95-4.66-27.12-9.06-39-7.36"/><path stroke="#a7a8aa" vector-effect="non-scaling-stroke" d="M446.75 125.15q-3.91-.17-7.54-1.47c-10.42-3.71-20.5-4.4-31.47-4.17a.56.55-2.1 01-.57-.52q-.04-.71.58-1.2M455.33 129.47l10 8.3a.65.65 0 00.94-.12q.31-.43.27-.9M473.79 154.25q-.13-1-1.04-1.06a.59.59 0 01-.55-.5c-.2-1.34.76-4.76-1.49-4.52a1.6 1.57 55.7 01-.91-.18q-3.11-1.7-6.56-1.17"/><path stroke="#caccbe" vector-effect="non-scaling-stroke" d="M436.54 178.9q-2.99 0-3.54 2.64M449.21 240.75l-.21-.25a.25.25 0 00-.4.04q-.66 1.08-.5 2.15.64 4.01 2.72 8.4"/><path stroke="#a7a8aa" vector-effect="non-scaling-stroke" d="M448.29 271l-.06-.84a.43.43 0 00-.42-.41h-.33a.56.55 8.8 00-.55.39c-1.24 4.04-.52 9.19 5.35 6.85q6.5-2.6 10.21-8.51a1.07 1.05 10.6 01.73-.49c2.19-.38 10.38-17.12 11.56-19.84q.99-2.26 2.88-4.64 3.47-4.34 5.41-9.64.16-.46.09-.93l-.51-3.32a1.65 1.64 19.2 00-.41-.84q-.86-.9-.81-2.16a1.42 1.4 69.3 01.41-.92q3.81-3.78 8.53-6.31c4.22-2.26 1.58-6.34.16-9.42q-.21-.46.22-.19c6.3 3.93 6.98 13.88 6.81 19.78q-.19 6.35-3.14 14.35M395.85 296.56q-4.48-3.08-9.88-3.91a.81.8 20.1 00-.81.37l-.45.73M368.75 286.79q.24-.23.32-.5a.74.74 0 00-.27-.81c-8.6-6.17-20.38-11.73-26.11-22.28q-3.77-6.93-9.52-12.45M330.54 246q1.2-.21.69-1.5-7.62-19.47-7.59-40.4c0-2.48.73-4.25 1.6-6.49a.53.53 0 01.91-.14q2.95 3.67 3.15 8.19c.06 1.22.49 2.48 1.99 1.84M333.96 209.5c.44 3.86.07 8.77 5.36 9.42 5.79.72 12.52 2.66 13.85 9.05a1.08 1.07 8.8 00.53.72c2.43 1.33 3.42 3.02 3 5.96-.96 6.72-1.81 13.3 2.96 17.96a1.27 1.22 21.6 01.38.84c.14 2.47 3.35 4.98 5.83 7.4a1.48 1.4 19.5 01.41.8l1.89 12.37a.93.92-85.9 00.64.74q.43.15.73-.26M385.79 287.25q1.02.25 1.35-.43a.99.97-56.2 00-.21-1.13l-2.35-2.23a1.8 1.79 40.6 01-.19-2.4c3.59-4.63 2.1-9.03 8.46-11.96a1.41 1.37-88.3 00.65-.63q1.41-2.85 3.84-4.91a1.47 1.46-14.5 00.49-.83q.39-1.99-1.29-2.48M397.47 256.03q.82.87 1.12.35c1.2-2.12 3.55-2.58 4.83-3.64 7.37-6.13.82-14.51-7.26-13.92a1.1 1.09-23.3 01-.86-.34q-2.21-2.46-3.53-5.52a.85.84-30 00-1.28-.34q-.46.34-.53.88M359.96 203.38q1.82-1.37 2.21-3.89a1.23 1.22 77.3 01.52-.83q5.91-4.1 10.14-9.91a.47.47 0 00-.29-.74l-.29-.05M382.96 172.5q2.13.76 2.49 2.92a.77.76 1.2 00.59.61q.31.07.67-.03M392.42 177.7q1.5.64 2.22-1.02a.5.5 0 00-.31-.68q-.55-.16-1.04.25M392.25 174.79q.91-2.9-.49-6.07a.45.45 0 00-.68-.18q-.36.27-.37.71M371 157.79c-.56-.16-.88-.02-.96.58-.64 4.53-5.41 7.85-8.51 3.09a.91.9-44 01.02-1.01l3.13-4.49a.31.31 0 00-.17-.48q-.2-.06-.51-.02M376.25 136.54q.48 1.44 1.71 1.5a.82.82 0 00.78-.46l2.61-5.34"/><path stroke="#6c6b6b" vector-effect="non-scaling-stroke" d="M455.05 165.97l-3.15-2.11a.39.37 26.7 00-.57.18c-1.14 3.12 3.6 4.77 5.93 3.69q.45-.21.94-.23 2.48-.12 3.59-2.18a1.03 1.02 41.4 00-.07-1.08q-2.51-3.49-3.64-7.67-.25-.94-.89-.2l-1.53 1.79a1 .99 57.1 00-.2.96q.98 3.19.49 6.46a.58.58 0 01-.9.39"/><path stroke="#5d5e5e" vector-effect="non-scaling-stroke" d="M482.69 161.2l.55-1.34a.26.26 0 00-.3-.35q-1.32.33-.87 1.67a.33.33 0 00.62.02"/><path stroke="#a7a8aa" vector-effect="non-scaling-stroke" d="M385.3 136.24q-.53-.12-.92.26a.65.65 0 00-.09.82q1.55 2.42 4.46 1.47"/><path stroke="#5d5e5e" vector-effect="non-scaling-stroke" d="M388.75 138.79q1.12.22 1.88.84"/><path stroke="#a7a8aa" vector-effect="non-scaling-stroke" d="M390.63 139.63l2.87 2.81a1.1 1.09-66.9 01.33.83q-.18 3.18-2.39 5.44a.45.44-64.8 00.27.76l.79.07"/><path stroke="#5d5e5e" vector-effect="non-scaling-stroke" d="M392.5 149.54l-.78 1.56a1.75 1.71 57 00-.19.94q.41 6.01 5.96 8.2.58.23 1.22-.24"/><path stroke="#a7a8aa" vector-effect="non-scaling-stroke" d="M398.71 160q0 .43.39.72a.7.7 0 001.05-.21q1.88-3.43 4.67-6.03c2.18-2.05 5.11-2.79 7.92-4a.63.62 75.4 00.37-.64l-.11-1.05"/><path stroke="#5d5e5e" vector-effect="non-scaling-stroke" d="M413 148.79q2.59-1.1 1.7-3.1a.72.71-18.3 01.5-.99c7.7-1.73 4.44-4.41 7.73-9.43a1.68 1.59 5.2 01.8-.63q1.46-.54 1.28-2.13a1.35 1.32 16.2 00-.51-.91c-5.17-4.09-12.12-2.38-17.99-1.08-5.44 1.19-17.22-2.21-21.21 5.72"/><path stroke="#6c6b6b" vector-effect="non-scaling-stroke" d="M413 148.79q-3.09.64-5.95 1.91c-3.65 1.62-6 6.15-8.34 9.3M392.5 149.54c2.43-3.66 4.71-9.58-1.87-9.91M388.75 138.79q-2.15-.58-3.45-2.55"/><path stroke="#a7a8aa" vector-effect="non-scaling-stroke" d="M456.71 140.5q-.08.7.38.93a.85.83 32 001.01-.22l.91-1.12a.52.51-55.6 00-.14-.78q-.33-.19-.83-.06"/><path stroke="#5d5e5e" vector-effect="non-scaling-stroke" d="M458.04 139.25q.02-.14-.02-.25a.21.2-7.2 00-.2-.15l-3.61.07a.99.99 0 01-.95-.62c-.37-.93.52-2.59-.61-2.84a1.02 1-62.2 00-.97.31q-1.21 1.34-3.09.93a.95.94 87 01-.67-.61l-.51-1.51a.57.57 0 00-.86-.29l-1.71 1.18a.71.71 0 00-.17 1.01l3.58 4.9a2.25 2.24-25.9 002.43.83l6.03-1.71"/><path stroke="#6c6b6b" vector-effect="non-scaling-stroke" d="M458.04 139.25l-1.33 1.25"/><path stroke="#a7a8aa" vector-effect="non-scaling-stroke" d="M422 154.71l-.61.09a.4.4 0 00-.21.7q4.63 4.26 10.08.94a.65.65 0 00.25-.84q-.15-.3-.51-.39"/><path stroke="#5d5e5e" vector-effect="non-scaling-stroke" d="M431 155.21c1.26-1.25-5.79-5.55-8.53-3.52q-1.55 1.15-.47 3.02"/><path stroke="#6c6b6b" vector-effect="non-scaling-stroke" d="M431 155.21q-4.71 2.27-9-.5"/><path stroke="#5d5e5e" vector-effect="non-scaling-stroke" d="M439.5 157.21q-2.13 1.44-3.19 3.86a.78.76-53.6 00.11.8l1.44 1.79a.87.84-52.2 01.1.9c-1.27 2.63-4.37 3.17-4.58 6.33a1.01 1 9.8 00.74 1.04q6.17 1.67 7.03-4.13"/><path stroke="#a7a8aa" vector-effect="non-scaling-stroke" d="M441.15 167.8l1.8-4.7a.75.75 0 00-.12-.75q-1.78-2.26-1.51-5.25.13-1.43-1.17-.81-.59.28-.65.92"/><path stroke="#6c6b6b" vector-effect="non-scaling-stroke" d="M441.15 167.8q.2-5.56-1.65-10.59"/><path stroke="#4c4e4f" vector-effect="non-scaling-stroke" d="M431.792 168.048a2.2 1.47 114.1 002.24-1.408 2.2 1.47 114.1 00-.444-2.608 2.2 1.47 114.1 00-2.24 1.408 2.2 1.47 114.1 00.444 2.608M359.19 209.06a.85.84-38.3 00-.16 1.36q4.37 4.01 10.25 4.06a1.16 1.16 0 00.92-1.88c-1.68-2.13-3.75-.95-6.11-1.98a2.01 1.97 83.6 01-.82-.67q-1.58-2.3-4.08-.89"/><path stroke="#5d5e5e" vector-effect="non-scaling-stroke" d="M478.99 249.64q-.99 4.76-1.8 9.55c-.42 2.46-5.2 1.02-4.4 5.62a.73.73 0 001.1.5c3.83-2.3 9.15-13.65 5.94-16.73a.35.35 0 00-.57.13q-.17.45-.27.93"/><path stroke="#a7a8aa" vector-effect="non-scaling-stroke" d="M457.59 162.38q-1.05 1.04.05 1.71a.79.79 0 01.33.92l-.31.92q-.2.57.36.33l1.33-.57a.57.57 0 00.28-.79l-1.24-2.4a.5.5 0 00-.8-.12"/><path stroke="#5d5e5e" vector-effect="non-scaling-stroke" d="M269.54 230.5c2.95-1.48 1.15-7.21.21-9.04"/><path stroke="#8f8f7f" vector-effect="non-scaling-stroke" d="M269.75 221.46q-.89-3.65-3.5-6.16"/><path stroke="#5d5e5e" vector-effect="non-scaling-stroke" d="M266.25 215.3q-1.34-2.16-3.8-3.63"/><path stroke="#6c6b6b" vector-effect="non-scaling-stroke" d="M262.45 211.67q-9.03 1.37-17.8 4.06a.24.24 0 00-.05.44c5.91 3.57 8.79 11.33 8.24 17.81q-.19 2.27 1.96 1.54l14.74-5.02"/><path stroke="#a7a8aa" vector-effect="non-scaling-stroke" d="M262.45 211.67q.35 2.03-1.15 1.92-4.28-.29-8.08 1.61-.43.22-.92.27-1.64.16-3.14.67a.46.46 0 00-.26.66c1.53 2.77 3.84 4.68 4.74 7.42.79 2.41 1.75 4.69 2.72 7.02a.85.84 75.9 00.86.52q5.49-.54 10.72-2.35a.95.92 52.3 01.85.12q.47.34.75.97"/><path stroke="#caccbe" vector-effect="non-scaling-stroke" d="M266.25 215.3l-9.57 4.63a1.2 1.2 0 00.47 2.27q6.54.28 12.6-.74"/><path stroke="#6c6b6b" vector-effect="non-scaling-stroke" d="M271.04 212.47c3.7 6.5 4.49 11.88 4.01 19.25a.54.54 0 00.51.58c2.85.19.63-17.69-4.3-20.06q-.48-.23-.22.23"/><path stroke="#5d5e5e" vector-effect="non-scaling-stroke" d="M197 250.46l4.25-1.67"/><path stroke="#6c6b6b" vector-effect="non-scaling-stroke" d="M201.25 248.79q20.55-6.25 41.04-12.65 2.67-.83 5.02-1.36a1.22 1.22 0 00.95-1.23c-.14-4.18-3.42-15.2-9.52-13.57-5.01 1.34-10.37 2.46-15.04 3.75q-29.56 8.15-59.17 16.24a.33.32-27.1 00-.17.52c1.34 1.6 2.9 2.31 3.89 4.15q3.28 6.1 3.49 13.15a.36.36 0 00.48.33q12.21-4.46 24.78-7.66"/><path stroke="#a7a8aa" vector-effect="non-scaling-stroke" d="M201.25 248.79l-.85-.06a.42.41-74.5 01-.34-.61l.27-.51a.7.69-83.7 01.43-.35c9.68-2.75 19.05-6.43 28.76-8.89q5.73-1.45 11.43-3.08c3.76-1.07 6.01-1.84 5.04-6.05q-1.29-5.63-5.48-8.2a1.12 1.11-37.2 00-.92-.12q-16.6 4.95-33.48 8.92c-2.24.53-4.15 1.44-6.27 2.3-3.23 1.3-6.74 1.11-10.17 2.3-4.56 1.59-9.18 2.97-13.76 4.49-1.61.53-4.54.85-6.6 2.22a.89.89 0 00-.25 1.24l3.21 4.71q.29.44.39.96l1.21 6.56a.79.78 88.9 00.66.64q1.92.29 3.63-.36c5.78-2.2 11.88-3.57 17.96-5.61a.68.67 80.8 01.89.65l-.01.52"/><path stroke="#6c6b6b" vector-effect="non-scaling-stroke" d="M164.92 254.98c-1.29-5.84-4.44-10.2-11.09-7.84a.95.94 55.7 00-.3 1.6q3.87 3.41 4.49 8.53a.58.58 0 00.77.48l5.71-2.02a.65.65 0 00.42-.75"/><path stroke="#8f8f7f" vector-effect="non-scaling-stroke" d="M154.92 261.63c2.18-2.78-2.19-12.99-5.27-11.86q-.53.2-.08.54c3.83 2.91 4.08 5.97 4.92 11.21q.09.55.43.11"/><path stroke="#5d5e5e" vector-effect="non-scaling-stroke" d="M214.67 264.4l.25.07a.37.36-82.7 00.47-.37l-.21-6.53q-.1-3.06-2.34-.96c-3.56 3.34-6.42 5.67-6.15 11.03a.4.4 0 00.66.28q2.97-2.69 6.96-3.53.19-.04.36.01"/><path stroke="#8f8f7f" vector-effect="non-scaling-stroke" d="M187.28 264.43l9.62.1a.79.78-3.2 00.79-.88l-.28-2.22a.54.54 0 00-.77-.41q-4.47 2.17-9.39 2.81a.3.3 0 00.03.6"/><path stroke="#6c6b6b" vector-effect="non-scaling-stroke" d="M210.54 270.12c1.91.16 5.46.63 7.37.37a.77.76-3.2 00.66-.73l.03-.94a.69.69 0 00-.56-.7q-4.19-.78-7.61 1.6-.49.34.11.4M223.035 278.32a4.82 1.76 90.3 001.785-4.81 4.82 1.76 90.3 00-1.735-4.83 4.82 1.76 90.3 00-1.785 4.81 4.82 1.76 90.3 001.735 4.83"/><path stroke="#5d5e5e" vector-effect="non-scaling-stroke" d="M223.032 293.794a.52.52 0 00-.511-.528l-21.098-.331a.52.52 0 00-.528.511l-.067 4.3a.52.52 0 00.511.528l21.098.331a.52.52 0 00.528-.511l.067-4.3"/><path stroke="#6c6b6b" vector-effect="non-scaling-stroke" d="M225.26 316.07c-.74-1.13-3.8-3.9-4.82-4.19q-2.08-.6-.89 1.21c41.41 63.13 82.68 125.65 123.78 188.68a.49.48-45.1 00.81-.01l.52-.8a.9.88 45.5 000-.95c-13.62-21.57-27.28-43.14-41.48-64.34q-8.46-12.62-18.13-27.97c-10.1-16.04-22.32-34-33.41-51.16q-13.11-20.29-26.38-40.47"/><path stroke="#8f8f7f" vector-effect="non-scaling-stroke" d="M292.93 457.17q6.37.16 12.81.29a.37.36 81.4 00.35-.48q-.38-1.11-1.61-2.99-45.04-68.58-90.35-137.56a.36.36 0 00-.65.13q-.83 4.4-1.28 9.1c-1.77 18.48-4.42 36.83-6.04 55.3-2.35 26.76-6.61 55.05-8.34 83.03a.4.39-3 00.46.41q46.98-8.39 94.65-7.23"/><path stroke="#111110" vector-effect="non-scaling-stroke" d="M196.96 336.14q-2.59.72-3.7 4.57c-2.36 8.19-7.23 18.97-10.46 29.02-3.84 11.93-9.2 23.12-12.96 35.28q-3.11 10.04-7.64 19.55c-1.87 3.92-2.98 8.18-4.64 12.27-3.24 7.97-5.42 15.76-8.65 23.52-2.38 5.74-4.14 12.14-6.69 18.1a.77.76 10.2 00.74 1.06q.64-.02 1.29-.55"/><path stroke="#8f8f7f" vector-effect="non-scaling-stroke" d="M144.25 478.96q20.23-6.75 40.99-11.87a.73.73 0 00.55-.62q4.58-35.13 7.5-70.43c1.36-16.51 3.46-32.85 5.04-49.31.42-4.32.3-10.82 1.31-16.25a.17.17 0 00-.18-.2c-.17.01-2.11 5.19-2.5 5.86"/><path stroke="#7e7e70" vector-effect="non-scaling-stroke" d="M144.25 478.96q6.62-19.19 13.86-38.16c1.84-4.83 3.61-11.17 5.89-16.61 9.46-22.48 16.49-45.41 22.69-61q7.28-18.31 10.27-27.05"/><path stroke="#5d5e5e" vector-effect="non-scaling-stroke" d="M364.27 491.15c21.08-3.51 40.96-2.84 61.1 7.04q.46.22.36-.28c-2.41-12.08-25.17-16.04-34.98-16.43-7.92-.33-18.51 1.46-24.76 6.65-.52.43-3.78 2.77-3.77 3.15a.32.31 78.9 00.42.29q.8-.29 1.63-.42M13.75 590.79l-.06.21"/></g><path d="M0 0h590.06l.19.29v589.46a.5.5 0 01-.5.5c-196.5.01-393 .05-589.5-.21l-.25-.1V0zm586.21 16.75V14l-.01-9.27a.48.48 0 00-.48-.48H4.75a.5.5 0 00-.5.5v581a.5.5 0 00.5.5h580.96a.5.5 0 00.5-.5v-569z"/><path fill="#22211f" d="M590.06 0h.94v587.56c-.84-.45-.25-537.29-.25-587.06a.25.24-86.1 00-.21-.25q-.17-.02-.29.04l-.19-.29z"/><path fill="#fbfcdf" d="M590.25.29q.12-.06.29-.04a.25.24-86.1 01.21.25c0 49.77-.59 586.61.25 587.06V591h-13.81q-5.75-.63-11.5 0h-37.5q-3.13-.63-6.25 0h-17.75q-3-.63-6 0h-4q-2.13-.63-4.25 0h-18.5q-2.75-.63-5.5 0h-9.75q-3.13-.63-6.25 0h-26.5q-2.38-.63-4.75 0h-2.25q-3.25-.63-6.5 0h-2.5q-2.75-.63-5.5 0h-2.5q-2.75-.63-5.5 0h-10.5q-2.38-.63-4.75 0h-3.25q-2.88-.63-5.75 0h-1.25q-3.25-.63-6.5 0h-1.5q-3.25-.63-6.5 0h-1.5q-3.25-.63-6.5 0h-2.5q-2.75-.63-5.5 0h-2.5q-2.75-.63-5.5 0h-2.5q-2.75-.63-5.5 0h-17.5q-3.25-.63-6.5 0h-3.5q-2.38-.63-4.75 0h-.25q-3.88-.63-7.75 0h-.25q-3.88-.63-7.75 0h-.25q-3.75-.63-7.5 0h-.5q-3.75-.63-7.5 0h-25.5q-3.38-.63-6.75 0h-1.25q-3.25-.63-6.5 0h-1.5q-3.25-.63-6.5 0h-10.75q-2.63-.63-5.25 0h-1.5q-3.25-.63-6.5 0h-9.5q-3.25-.63-6.5 0h-9.5q-3.25-.63-6.5 0h-10.75q-2.63-.63-5.25 0H95.19q-2.75-.63-5.5 0h-.25q-3.75-.63-7.5 0h-3.5q-2.25-.63-4.5 0h-16.5q-3.75-.63-7.5 0h-2.75q-2.63-.63-5.25 0h-8.75q-3.75-.63-7.5 0h-1.25l-10.69-.21-13.11-.1a.36.36 0 01-.36-.33l-.03-.32c196.5.26 393 .22 589.5.21a.5.5 0 00.5-.5V.29z"/><path fill="#fbfcdf" d="M586.21 14q-2.66-.99-4.9-2.67c-3.1-2.33-5.36-3.1-8.82-3.78a.44.44 0 00-.53.45q.02.34.34.47 7.03 2.83 11.96 7.41.36.33.82.49l1.13.38v569a.5.5 0 01-.5.5H4.75a.5.5 0 01-.5-.5v-581a.5.5 0 01.5-.5h580.97a.48.48 0 01.48.48l.01 9.27zM74.72 58.23q13.96-13.62 19.55-19.45 1.45-1.52.3-3.03a1.12 1.1 72.6 00-.81-.43q-22.73-.97-40.47-.51c-11.72.3-19.72 7.74-19.62 19.43q.18 19.89-.47 39.81a1.69 1.69 0 002.85 1.29q19.37-18.29 38.67-37.11zM506.46 229q5.22-22.44-.5-44.75c-17.56-65.37-92.2-93.03-148.29-55.18-20.78 14.02-36.28 38.5-40.14 63.22-5.72 36.71 7.85 71.86 38.45 93.74 56.4 40.33 134.49 10.09 150.48-57.03zm-218.34-54.24l-.35.32q-.63.58.17.27 1.16-.45 1.32-1.58.37-2.46-.84-.35-.27.47-.18.99a.37.37 0 01-.12.35zM7.75 177.98q.03-.22-.04-.44-.41-1.33-.54.26-.09 1.06.65 1.82.44.45.36-.17-.07-.51-.33-.95a.82.79-56.7 01-.1-.52zm145.64 92.13l4.45 1.97q.5.21 1.04.19c7.98-.41 17.96-4.61 25.6-7.34q.48-.17.33.32-.28.97-.78 1.82c-2.53 4.29-1.92 9.09 1.07 12.96a1.22 1.18 72.9 00.86.47l11.31.95a.51.5-87 01.46.52l-.11 5.03a.65.65 0 01-.62.63l-11.07.45a.65.63-89 00-.61.6c-.19 2.81-1.26 11.89.22 14.03 1.55 2.25 7.94 1.48 10.44 1.75a.59.59 0 01.49.78q-3.59 10.38-7.4 20.01c-7.35 18.59-14.04 37.34-20.73 56.15-1.88 5.29-4.95 11.21-6.93 17.14-4.26 12.72-8.78 24.51-13.27 36.76-3.56 9.7-9.91 25.29-14.05 38.28q-.8 2.52-4.61 11.07a1.25 1.23.4 01-.66.64c-24.54 10.09-49.59 24.61-68.96 42.93a.29.28 5.8 00.36.44c17.99-12.41 41.24-20.54 62.31-25.75a.43.42 3.3 01.5.56l-6.68 17.71a1.62 1.62 0 00.82 2.04c2.25 1.08 9.6 3.23 10.83-.5 2.55-7.76 5.71-15.19 8.11-22.99a.85.85 0 01.64-.58c60.94-12.65 122.64-16.4 184.75-13.32q1.83.09 3.76.36a1.06 1.06 0 01.75.49q6.04 9.48 12.13 18.9 1.48 2.29 3.34 1.64c6.02-2.12 11.34-4.41 6.01-11.71q-2.82-3.87-5.53-7.87a.35.35 0 01.32-.55l15.46 1.41a.43.43 0 01.3.69c-5.8 7.8.44 15.88 7.5 19.27 18.88 9.07 51.8 10.14 65.15-7.93a.75.74-65.5 01.77-.29c30.16 6.87 61.29 16.32 87.89 33.23q.45.29.27-.21-.56-1.58-2.25-3.15c-51.02-47.66-125.12-66.9-192.85-71.82q-1.67-.12-2.48-1.34-45.3-68.69-90.7-137.32-4.85-7.32-9.31-14.78a.59.59 0 01.64-.88c4.4.97 5.6-1.4 5.6-5.33.01-3.56.57-7.94-1.42-9.88a1.34 1.31 67.6 00-.91-.39l-8.95-.17a.41.4 3.8 01-.4-.45l.64-5.42a.54.53-79.9 01.65-.46c3.83.9 7.33 1.07 9.11-2.87 2.57-5.71 1.45-15.8-7.57-13.83a.97.97 0 01-1.18-.95l.01-9.29a.77.77 0 01.56-.74l18.35-5.42a1.15 1.13-36.3 01.95.14q2.55 1.62 5.7.45c5.49-2.01 13.73-5.24 20.1-4.97 26.13 1.13 21.82-38.14 1.58-40.81-5.12-.68-9.59 1.6-14.23 3.01a1.52 1.51-79.4 00-.77.53c-1.07 1.38-1.67 2.19-3.5 2.66-9.37 2.41-17.54 7.03-26.74 9.49q-30.52 8.17-60.92 16.8c-6.76 1.92-10.8 3.64-13.32 9.92a.7.69 15.8 01-.76.42c-21.72-3.89-18.25 26.29-3.12 28.04 3.65.42 8.28-.59 10.39-4.06a.7.69 27 01.87-.28zm122.244 227.34a1.25.69 64.7 00.09-1.425 1.25.69 64.7 00-1.158-.835 1.25.69 64.7 00-.09 1.425 1.25.69 64.7 001.158.835zm190.524 31.142a24.47 14.11.8 00-24.271-14.45 24.47 14.11.8 00-24.665 13.766 24.47 14.11.8 0024.271 14.45 24.47 14.11.8 0024.665-13.766z"/><path fill="#b5b5b6" d="M586.21 14v2.75l-1.13-.38q-.46-.16-.82-.49-4.93-4.58-11.96-7.41-.32-.13-.34-.47a.44.44 0 01.53-.45c3.46.68 5.72 1.45 8.82 3.78q2.24 1.68 4.9 2.67z"/><path fill="#f8e2a9" d="M74.72 58.23q-19.3 18.82-38.67 37.11a1.69 1.69 0 01-2.85-1.29q.65-19.92.47-39.81c-.1-11.69 7.9-19.13 19.62-19.43q17.74-.46 40.47.51a1.12 1.1 72.6 01.81.43q1.15 1.51-.3 3.03-5.59 5.83-19.55 19.45z"/><path fill="#22211f" d="M505.96 184.25c-2.85-.35.43 8.25.55 10.57.28 5.65.99 11.51.68 16.84q-.48 8.08-2.11 16.04c-.23 1.08.28 1.65 1.38 1.3-15.99 67.12-94.08 97.36-150.48 57.03-30.6-21.88-44.17-57.03-38.45-93.74 3.86-24.72 19.36-49.2 40.14-63.22 56.09-37.85 130.73-10.19 148.29 55.18zm-98.21-66.46q-9.54.7-18.65 3.6a1.25 1.2-84.2 00-.73.62l-1.07 2.13a.79.79 0 00.86 1.13l4.43-.9a1 1 0 011.13 1.33c-.66 1.77-2.34 2.45-4.31 2.65q-4.72.49-8.06 3.89-3.04 1.66-5.1 4.3c-2.09.35-7.63 1.38-8.18-1.36-.55-2.73 1.85-3.37 3.6-4.5a.6.59 53.1 00.12-.9l-.72-.79a.76.75 55.7 00-.88-.17c-3.35 1.65-10.14 4.61-10.96 8.64a.88.88 0 001.08 1.03l3.33-.83q1.3-.32.44.7-1.86 2.19-4.66 2.91c-.91.24-4.21 2.33-2.11 3.34a.6.6 0 00.73-.16l1.72-2.08a.54.53-36 01.91.14l.34.83a.84.84 0 01-.26.97q-2.7 2.11-1.78 5.61a.47.46 72.5 00.61.32c1.76-.65 5.73-5.09 7.04-4.24a1.55 1.54-85 01.55.66l.27.59q.39.88.92.07.89-1.38.79-3.04-.05-.83.66-.39l2.77 1.74a.95.95 0 00.86.08c4.11-1.65 8.69-4.6 11.74.63q1.82 3.11 3.53 4.59a.51.51 0 01.1.67q-1.46 2.29-4.08 1.73-1.34-.29-.67.91.89 1.62-.02 3.22a.75.75 0 01-1.14.18l-3-2.62a1.42 1.39 67.8 00-.81-.35l-2.47-.23a.92.9-5.1 01-.79-.65q-.69-2.29 1.23-3.24a.67.66-22.7 00.34-.82c-.3-.82-2.69-.86-3.65-.94a.93.93 0 00-.84.41l-1.52 2.28q-.29.44-.75.67l-6.64 3.31c-2.29 1.08-4.89 3.89-4.36 6.82a1.29 1.26 14.8 00.48.8c5.08 4.02 10.64 1.02 10.88-5.29.33-1.5 8.36.61 9.92.84a2.22 2.22 0 011.69 1.25q2.71 5.78 8.1 9.37c.28 1.6-.2 4.91 1.54 5.54l1.04 1.46-.87 1.45-3.13.74a1.21 1.19 55.4 01-.93-.18q-1.19-.8-1.65-2.26l-.77-3.11a1.14 1.14 0 00-.55-.72q-1.18-.64-2.43.33l-4.16 2.77a.8.79-23.6 00-.34.85q.44 1.85 2.26 2.35 2.03.55.36 1.84-3.06 2.38-6.81 3.2a.56.55-7.5 00-.44.56q.05 2.25-1.58 3.89-1.33.7-3.28 3.25c-2.83 3.69-10.43 5.11-9.01 12.17q.04.92-.41 1.48a.66.65-58.3 01-.78.19l-7.24-3.32a.96.95 35.2 00-1.07.18q-5.01 4.84-3.13 11.8.29 1.09.93.16l1.67-2.44a1.23 1.19 14.1 01.9-.52l1.56-.14a1.18 1.16 80.6 011.24.9q.53 2.14-.1 4.12a.5.49 18.6 00.31.62l4.64 1.5a.76.75 12 01.52.79l-.47 4.82a.66.66 0 00.44.69c3.9 1.39 6.68-2.1 10.41-3.23a1.06 1.05-33.5 01.99.2q3.62 3.09 8.25 4.2a1.62 1.6-10.9 01.94.63l2.96 4.01a.98.96 73.6 00.68.38q4 .36 6.76 3.1c1.19 1.87 2.73 5.18 4.64 6.29 1.86 1.08 5.01.08 6.74 1.1 8.12 4.8.14 11.82-3.87 15.14l-.93 4.22c-.65 3.07-4.18 5.52-6.34 7.72-3.37 3.45-4.77 7.78-6.69 12.09-1.14 2.57-1.51 4.96 1.62 6.01a.85.85 0 01.58.68l.08.5q-.52 1.56-2.06 1.31-8.12-1.33-12.27-8.57a.72.69 38.4 01-.07-.52l.95-3.69a.87.86-70.4 00-.47-1.01q-1.12-.51-2.33-.27c-1.35-1.94-.84-11.04-.77-13.74a1.09 1.08 22.5 00-.35-.84c-2.5-2.34-5.78-3.53-6.57-7.43a1.86 1.83-72.1 00-.43-.86c-1.21-1.33-2.56-1.98-3.16-3.69-1.44-4.11.64-11.19 1.53-15.47a1.76 1.75 24.2 00-.68-1.77l-4.13-3.03a1.87 1.82 8.2 01-.6-.78q-3.2-7.94-11.45-9.28c-1.6-.26-4.13.82-5.62-1.17-1.37-1.83-.87-10.4-2.72-10.66a.48.47 4.8 00-.55.46l-.08 3.26q-1.79-.37-2.67-2-1.87-9.41-7.26-17.34-.28-.41-.38.08-5.69 29.05 6.89 55.76l2.63 4.75c7.16 15.98 20.29 27.65 35.58 36.04q7.43 4.72 15.96 6.96 5.37 1.87 11.14 2.81 8.99 2.56 17.45 2.02c33.88-2.16 68.62-21.37 81.12-54.67 5.62-8.86 4.68-16.43 3.1-27.41-.52-3.64-5.78-11.08-10.47-10.99a.95.95 0 00-.82 1.4l5.08 9.38a.89.88 63 01-.39 1.22q-5.14 2.51-9.14 6.71a1.61 1.61 0 01-2.76-.89c-.55-4.02-2.88-14.51-6.11-16.79q-.99-.69-1.93-.59a1.47 1.47 0 00-1.1 2.23l7.17 11.69a1.8 1.8 0 01.25 1.08q-.22 2.31.41 4.53a1.6 1.57-80.3 00.59.85c3.36 2.46 4.92 6.66 2.19 10.27q-7.04 9.33-11.92 19.96-5.44 11.85-16.1 19.14c-1.28.88-3.14.82-4.17-.29a1.19 1.16 26.8 01-.31-.91l.3-3.5c1.03-3.08 2.47-6.8.3-9.44a1.01 1 32.9 01-.19-.87c.58-2.38 3.13-7.57 2.42-9.6-.18-3.69-2.12-6.83-1.61-10.34-.27-3.35 1.52-8.81-3.55-9.44-6.95-.86-16.41 5.84-19.49.27-6.89-12.45-1.78-25.94 7.03-35.4 3.58-3.83 10.88-4.16 15.71-3.7 4.09.38 7.83 4.89 10.26 7.9a.68.67 61.7 00.73.22l6.46-2.13a1.47 1.46-43.6 01.97.02q3.68 1.32 7.16-.4a.71.7-24.8 00.34-.9l-1.83-4.47a.94.94 0 00-1-.57l-6.24.89a.58.58 0 01-.65-.47c-1.15-5.98-1.98-5.26-7.45-4.55a.72.71 87.2 00-.62.69l-.05 1.75a.72.71 87.7 01-.63.69l-.81.1a.59.58-7.8 01-.64-.48l-.82-4.73a.97.97 0 00-1.8-.3l-2.02 3.62a.55.55 0 01-.84.15l-.97-.83a.76.76 0 01-.15-.99l1.99-3.15a1.04 1.04 0 00.08-.94c-.43-1.08-3.53-.12-4.72-.32a.94.93 26.3 00-.83.28c-1.85 1.97-3.39 4.96-5.42 6.47-2.48 1.85-5.19.8-7.67 1.57a1.25 1.25 0 01-1.61-1.37q.73-4.98 2.87-8.69l1.02-.86a1.26 1.22-62.2 01.86-.28l5.34.37q.9.06.33-.63-1.54-1.89-4.01-1.24-.4-.92-.19-1.61a.93.92-89.3 01.61-.6l4.4-1.31a1.64 1.63 10.5 00.82-.56c1.9-2.4 3.23-6.89 6.15-7.75a.93.92 87.4 00.63-.7l.69-3.64a.55.54-89.6 00-.63-.64l-4.8.86q-.93.17-.58-.71c2.14-5.36 5.72-8.18 9.89-12.02q3.95-3.61 9.71-3.4c2.45 1.02 9.54 1.91 6.93 5.99q-1.63 2.55 1.44 4.59a.31.31 0 00.45-.1l1.73-3.05q.58-.87 1.44-.59a1.11 1.08 86.4 01.64.58q.69 1.52 2.22 1.9a.65.64 14.1 00.78-.46q.7-2.62 3.37-2.94a.84.84 0 00.59-1.31q-6.23-8.85-16.29-14.68-4.62-4.93-11.21-7.28-3.75-3.1-8.58-4.32c-10.95-4.66-27.12-9.06-39-7.36zm47.3 48.18l-3.15-2.11a.39.37 26.7 00-.57.18c-1.14 3.12 3.6 4.77 5.93 3.69q.45-.21.94-.23 2.48-.12 3.59-2.18a1.03 1.02 41.4 00-.07-1.08q-2.51-3.49-3.64-7.67-.25-.94-.89-.2l-1.53 1.79a1 .99 57.1 00-.2.96q.98 3.19.49 6.46a.58.58 0 01-.9.39zm27.64-4.77l.55-1.34a.26.26 0 00-.3-.35q-1.32.33-.87 1.67a.33.33 0 00.62.02z"/><path fill="#b5b5b6" d="M446.75 125.15q-3.91-.17-7.54-1.47c-10.42-3.71-20.5-4.4-31.47-4.17a.56.55-2.1 01-.57-.52q-.04-.71.58-1.2c11.88-1.7 28.05 2.7 39 7.36z"/><path fill="#989b9d" d="M407.75 117.79q-.62.49-.58 1.2a.56.55-2.1 00.57.52c10.97-.23 21.05.46 31.47 4.17q3.63 1.3 7.54 1.47 4.83 1.22 8.58 4.32l10 8.3a.65.65 0 00.94-.12q.31-.43.27-.9 10.06 5.83 16.29 14.68a.84.84 0 01-.59 1.31q-2.67.32-3.37 2.94a.65.64 14.1 01-.78.46q-1.53-.38-2.22-1.9a1.11 1.08 86.4 00-.64-.58q-.86-.28-1.44.59-.13-1-1.04-1.06a.59.59 0 01-.55-.5c-.2-1.34.76-4.76-1.49-4.52a1.6 1.57 55.7 01-.91-.18q-3.11-1.7-6.56-1.17-5.76-.21-9.71 3.4c-4.17 3.84-7.75 6.66-9.89 12.02q-.35.88.58.71l4.8-.86a.55.54-89.6 01.63.64l-.69 3.64a.93.92 87.4 01-.63.7c-2.92.86-4.25 5.35-6.15 7.75a1.64 1.63 10.5 01-.82.56l-4.4 1.31a.93.92-89.3 00-.61.6q-.21.69.19 1.61-2.99 0-3.54 2.64-2.14 3.71-2.87 8.69a1.25 1.25 0 001.61 1.37c2.48-.77 5.19.28 7.67-1.57 2.03-1.51 3.57-4.5 5.42-6.47a.94.93 26.3 01.83-.28c1.19.2 4.29-.76 4.72.32a1.04 1.04 0 01-.08.94l-1.99 3.15a.76.76 0 00.15.99l.97.83a.55.55 0 00.84-.15l2.02-3.62a.97.97 0 011.8.3l.82 4.73a.59.58-7.8 00.64.48l.81-.1a.72.71 87.7 00.63-.69l.05-1.75a.72.71 87.2 01.62-.69c5.47-.71 6.3-1.43 7.45 4.55a.58.58 0 00.65.47l6.24-.89a.94.94 0 011 .57l1.83 4.47a.71.7-24.8 01-.34.9q-3.48 1.72-7.16.4a1.47 1.46-43.6 00-.97-.02l-6.46 2.13a.68.67 61.7 01-.73-.22c-2.43-3.01-6.17-7.52-10.26-7.9-4.83-.46-12.13-.13-15.71 3.7-8.81 9.46-13.92 22.95-7.03 35.4 3.08 5.57 12.54-1.13 19.49-.27 5.07.63 3.28 6.09 3.55 9.44l-.21-.25a.25.25 0 00-.4.04q-.66 1.08-.5 2.15.64 4.01 2.72 8.4c.71 2.03-1.84 7.22-2.42 9.6a1.01 1 32.9 00.19.87c2.17 2.64.73 6.36-.3 9.44l-.06-.84a.43.43 0 00-.42-.41h-.33a.56.55 8.8 00-.55.39c-1.24 4.04-.52 9.19 5.35 6.85q6.5-2.6 10.21-8.51a1.07 1.05 10.6 01.73-.49c2.19-.38 10.38-17.12 11.56-19.84q.99-2.26 2.88-4.64 3.47-4.34 5.41-9.64.16-.46.09-.93l-.51-3.32a1.65 1.64 19.2 00-.41-.84q-.86-.9-.81-2.16a1.42 1.4 69.3 01.41-.92q3.81-3.78 8.53-6.31c4.22-2.26 1.58-6.34.16-9.42q-.21-.46.22-.19c6.3 3.93 6.98 13.88 6.81 19.78q-.19 6.35-3.14 14.35c-12.5 33.3-47.24 52.51-81.12 54.67q-8.46.54-17.45-2.02-4.48-3.08-9.88-3.91a.81.8 20.1 00-.81.37l-.45.73q-8.53-2.24-15.96-6.96.24-.23.32-.5a.74.74 0 00-.27-.81c-8.6-6.17-20.38-11.73-26.11-22.28q-3.77-6.93-9.52-12.45l-2.63-4.75q1.2-.21.69-1.5-7.62-19.47-7.59-40.4c0-2.48.73-4.25 1.6-6.49a.53.53 0 01.91-.14q2.95 3.67 3.15 8.19c.06 1.22.49 2.48 1.99 1.84q.88 1.63 2.67 2c.44 3.86.07 8.77 5.36 9.42 5.79.72 12.52 2.66 13.85 9.05a1.08 1.07 8.8 00.53.72c2.43 1.33 3.42 3.02 3 5.96-.96 6.72-1.81 13.3 2.96 17.96a1.27 1.22 21.6 01.38.84c.14 2.47 3.35 4.98 5.83 7.4a1.48 1.4 19.5 01.41.8l1.89 12.37a.93.92-85.9 00.64.74q.43.15.73-.26 1.21-.24 2.33.27a.87.86-70.4 01.47 1.01l-.95 3.69a.72.69 38.4 00.07.52q4.15 7.24 12.27 8.57 1.54.25 2.06-1.31 1.02.25 1.35-.43a.99.97-56.2 00-.21-1.13l-2.35-2.23a1.8 1.79 40.6 01-.19-2.4c3.59-4.63 2.1-9.03 8.46-11.96a1.41 1.37-88.3 00.65-.63q1.41-2.85 3.84-4.91a1.47 1.46-14.5 00.49-.83q.39-1.99-1.29-2.48l.93-4.22q.82.87 1.12.35c1.2-2.12 3.55-2.58 4.83-3.64 7.37-6.13.82-14.51-7.26-13.92a1.1 1.09-23.3 01-.86-.34q-2.21-2.46-3.53-5.52a.85.84-30 00-1.28-.34q-.46.34-.53.88-2.76-2.74-6.76-3.1a.98.96 73.6 01-.68-.38l-2.96-4.01a1.62 1.6-10.9 00-.94-.63q-4.63-1.11-8.25-4.2a1.06 1.05-33.5 00-.99-.2c-3.73 1.13-6.51 4.62-10.41 3.23a.66.66 0 01-.44-.69l.47-4.82a.76.75 12 00-.52-.79l-4.64-1.5a.5.49 18.6 01-.31-.62q.63-1.98.1-4.12a1.18 1.16 80.6 00-1.24-.9l-1.56.14a1.23 1.19 14.1 00-.9.52l-1.67 2.44q-.64.93-.93-.16-1.88-6.96 3.13-11.8a.96.95 35.2 011.07-.18l7.24 3.32a.66.65-58.3 00.78-.19q.45-.56.41-1.48 1.82-1.37 2.21-3.89a1.23 1.22 77.3 01.52-.83q5.91-4.1 10.14-9.91a.47.47 0 00-.29-.74l-.29-.05q1.63-1.64 1.58-3.89a.56.55-7.5 01.44-.56q3.75-.82 6.81-3.2 1.67-1.29-.36-1.84-1.82-.5-2.26-2.35a.8.79-23.6 01.34-.85l4.16-2.77q2.13.76 2.49 2.92a.77.76 1.2 00.59.61q.31.07.67-.03.46 1.46 1.65 2.26a1.21 1.19 55.4 00.93.18l3.13-.74q1.5.64 2.22-1.02a.5.5 0 00-.31-.68q-.55-.16-1.04.25l-1.04-1.46q.91-2.9-.49-6.07a.45.45 0 00-.68-.18q-.36.27-.37.71-5.39-3.59-8.1-9.37a2.22 2.22 0 00-1.69-1.25c-1.56-.23-9.59-2.34-9.92-.84-.56-.16-.88-.02-.96.58-.64 4.53-5.41 7.85-8.51 3.09a.91.9-44 01.02-1.01l3.13-4.49a.31.31 0 00-.17-.48q-.2-.06-.51-.02l6.64-3.31q.46-.23.75-.67l1.52-2.28a.93.93 0 01.84-.41c.96.08 3.35.12 3.65.94a.67.66-22.7 01-.34.82q-1.92.95-1.23 3.24a.92.9-5.1 00.79.65l2.47.23a1.42 1.39 67.8 01.81.35l3 2.62a.75.75 0 001.14-.18q.91-1.6.02-3.22-.67-1.2.67-.91 2.62.56 4.08-1.73a.51.51 0 00-.1-.67q-1.71-1.48-3.53-4.59c-3.05-5.23-7.63-2.28-11.74-.63a.95.95 0 01-.86-.08l-2.77-1.74q-.71-.44-.66.39.1 1.66-.79 3.04-.53.81-.92-.07l-.27-.59a1.55 1.54-85 00-.55-.66c-1.31-.85-5.28 3.59-7.04 4.24a.47.46 72.5 01-.61-.32q-.92-3.5 1.78-5.61a.84.84 0 00.26-.97l-.34-.83a.54.53-36 00-.91-.14l-1.72 2.08a.6.6 0 01-.73.16c-2.1-1.01 1.2-3.1 2.11-3.34q2.8-.72 4.66-2.91.86-1.02-.44-.7l-3.33.83a.88.88 0 01-1.08-1.03c.82-4.03 7.61-6.99 10.96-8.64a.76.75 55.7 01.88.17l.72.79a.6.59 53.1 01-.12.9c-1.75 1.13-4.15 1.77-3.6 4.5.55 2.74 6.09 1.71 8.18 1.36q.48 1.44 1.71 1.5a.82.82 0 00.78-.46l2.61-5.34q3.34-3.4 8.06-3.89c1.97-.2 3.65-.88 4.31-2.65a1 1 0 00-1.13-1.33l-4.43.9a.79.79 0 01-.86-1.13l1.07-2.13a1.25 1.2-84.2 01.73-.62q9.11-2.9 18.65-3.6zm-22.45 18.45q-.53-.12-.92.26a.65.65 0 00-.09.82q1.55 2.42 4.46 1.47 1.12.22 1.88.84l2.87 2.81a1.1 1.09-66.9 01.33.83q-.18 3.18-2.39 5.44a.45.44-64.8 00.27.76l.79.07-.78 1.56a1.75 1.71 57 00-.19.94q.41 6.01 5.96 8.2.58.23 1.22-.24 0 .43.39.72a.7.7 0 001.05-.21q1.88-3.43 4.67-6.03c2.18-2.05 5.11-2.79 7.92-4a.63.62 75.4 00.37-.64l-.11-1.05q2.59-1.1 1.7-3.1a.72.71-18.3 01.5-.99c7.7-1.73 4.44-4.41 7.73-9.43a1.68 1.59 5.2 01.8-.63q1.46-.54 1.28-2.13a1.35 1.32 16.2 00-.51-.91c-5.17-4.09-12.12-2.38-17.99-1.08-5.44 1.19-17.22-2.21-21.21 5.72zm71.41 4.26q-.08.7.38.93a.85.83 32 001.01-.22l.91-1.12a.52.51-55.6 00-.14-.78q-.33-.19-.83-.06.02-.14-.02-.25a.21.2-7.2 00-.2-.15l-3.61.07a.99.99 0 01-.95-.62c-.37-.93.52-2.59-.61-2.84a1.02 1-62.2 00-.97.31q-1.21 1.34-3.09.93a.95.94 87 01-.67-.61l-.51-1.51a.57.57 0 00-.86-.29l-1.71 1.18a.71.71 0 00-.17 1.01l3.58 4.9a2.25 2.24-25.9 002.43.83l6.03-1.71zM422 154.71l-.61.09a.4.4 0 00-.21.7q4.63 4.26 10.08.94a.65.65 0 00.25-.84q-.15-.3-.51-.39c1.26-1.25-5.79-5.55-8.53-3.52q-1.55 1.15-.47 3.02zm17.5 2.5q-2.13 1.44-3.19 3.86a.78.76-53.6 00.11.8l1.44 1.79a.87.84-52.2 01.1.9c-1.27 2.63-4.37 3.17-4.58 6.33a1.01 1 9.8 00.74 1.04q6.17 1.67 7.03-4.13l1.8-4.7a.75.75 0 00-.12-.75q-1.78-2.26-1.51-5.25.13-1.43-1.17-.81-.59.28-.65.92zm-7.708 10.838a2.2 1.47 114.1 002.24-1.408 2.2 1.47 114.1 00-.444-2.608 2.2 1.47 114.1 00-2.24 1.408 2.2 1.47 114.1 00.444 2.608zM359.19 209.06a.85.84-38.3 00-.16 1.36q4.37 4.01 10.25 4.06a1.16 1.16 0 00.92-1.88c-1.68-2.13-3.75-.95-6.11-1.98a2.01 1.97 83.6 01-.82-.67q-1.58-2.3-4.08-.89zm119.8 40.58q-.99 4.76-1.8 9.55c-.42 2.46-5.2 1.02-4.4 5.62a.73.73 0 001.1.5c3.83-2.3 9.15-13.65 5.94-16.73a.35.35 0 00-.57.13q-.17.45-.27.93z"/><path fill="#22211f" d="M413 148.79q-3.09.64-5.95 1.91c-3.65 1.62-6 6.15-8.34 9.3q-.64.47-1.22.24-5.55-2.19-5.96-8.2a1.75 1.71 57 01.19-.94l.78-1.56c2.43-3.66 4.71-9.58-1.87-9.91q-.76-.62-1.88-.84-2.15-.58-3.45-2.55c3.99-7.93 15.77-4.53 21.21-5.72 5.87-1.3 12.82-3.01 17.99 1.08a1.35 1.32 16.2 01.51.91q.18 1.59-1.28 2.13a1.68 1.59 5.2 00-.8.63c-3.29 5.02-.03 7.7-7.73 9.43a.72.71-18.3 00-.5.99q.89 2-1.7 3.1z"/><path fill="#b5b5b6" d="M455.33 129.47q6.59 2.35 11.21 7.28.04.47-.27.9a.65.65 0 01-.94.12l-10-8.3zM381.35 132.24l-2.61 5.34a.82.82 0 01-.78.46q-1.23-.06-1.71-1.5 2.06-2.64 5.1-4.3z"/><path fill="#22211f" d="M458.04 139.25l-1.33 1.25-6.03 1.71a2.25 2.24-25.9 01-2.43-.83l-3.58-4.9a.71.71 0 01.17-1.01l1.71-1.18a.57.57 0 01.86.29l.51 1.51a.95.94 87 00.67.61q1.88.41 3.09-.93a1.02 1-62.2 01.97-.31c1.13.25.24 1.91.61 2.84a.99.99 0 00.95.62l3.61-.07a.21.2-7.2 01.2.15q.04.11.02.25z"/><path fill="#b5b5b6" d="M385.3 136.24q1.3 1.97 3.45 2.55-2.91.95-4.46-1.47a.65.65 0 01.09-.82q.39-.38.92-.26zM458.04 139.25q.5-.13.83.06a.52.51-55.6 01.14.78l-.91 1.12a.85.83 32 01-1.01.22q-.46-.23-.38-.93l1.33-1.25zM390.63 139.63c6.58.33 4.3 6.25 1.87 9.91l-.79-.07a.45.44-64.8 01-.27-.76q2.21-2.26 2.39-5.44a1.1 1.09-66.9 00-.33-.83l-2.87-2.81zM473.79 154.25l-1.73 3.05a.31.31 0 01-.45.1q-3.07-2.04-1.44-4.59c2.61-4.08-4.48-4.97-6.93-5.99q3.45-.53 6.56 1.17a1.6 1.57 55.7 00.91.18c2.25-.24 1.29 3.18 1.49 4.52a.59.59 0 00.55.5q.91.06 1.04 1.06zM413 148.79l.11 1.05a.63.62 75.4 01-.37.64c-2.81 1.21-5.74 1.95-7.92 4q-2.79 2.6-4.67 6.03a.7.7 0 01-1.05.21q-.39-.29-.39-.72c2.34-3.15 4.69-7.68 8.34-9.3q2.86-1.27 5.95-1.91z"/><path fill="#22211f" d="M431 155.21q-4.71 2.27-9-.5-1.08-1.87.47-3.02c2.74-2.03 9.79 2.27 8.53 3.52z"/><path fill="#b5b5b6" d="M422 154.71q4.29 2.77 9 .5.36.09.51.39a.65.65 0 01-.25.84q-5.45 3.32-10.08-.94a.4.4 0 01.21-.7l.61-.09zM364 155.46q.31-.04.51.02a.31.31 0 01.17.48l-3.13 4.49a.91.9-44 00-.02 1.01c3.1 4.76 7.87 1.44 8.51-3.09.08-.6.4-.74.96-.58-.24 6.31-5.8 9.31-10.88 5.29a1.29 1.26 14.8 01-.48-.8c-.53-2.93 2.07-5.74 4.36-6.82zM441.15 167.8q.2-5.56-1.65-10.59.06-.64.65-.92 1.3-.62 1.17.81-.27 2.99 1.51 5.25a.75.75 0 01.12.75l-1.8 4.7zM455.95 165.58q.49-3.27-.49-6.46a1 .99 57.1 01.2-.96l1.53-1.79q.64-.74.89.2 1.13 4.18 3.64 7.67a1.03 1.02 41.4 01.07 1.08q-1.11 2.06-3.59 2.18-.49.02-.94.23c-2.33 1.08-7.07-.57-5.93-3.69a.39.37 26.7 01.57-.18l3.15 2.11a.58.58 0 00.9-.39zm1.64-3.2q-1.05 1.04.05 1.71a.79.79 0 01.33.92l-.31.92q-.2.57.36.33l1.33-.57a.57.57 0 00.28-.79l-1.24-2.4a.5.5 0 00-.8-.12z"/><path fill="#22211f" d="M439.5 157.21q1.85 5.03 1.65 10.59-.86 5.8-7.03 4.13a1.01 1 9.8 01-.74-1.04c.21-3.16 3.31-3.7 4.58-6.33a.87.84-52.2 00-.1-.9l-1.44-1.79a.78.76-53.6 01-.11-.8q1.06-2.42 3.19-3.86z"/><path fill="#989b9d" d="M482.69 161.2a.33.33 0 01-.62-.02q-.45-1.34.87-1.67a.26.26 0 01.3.35l-.55 1.34zM457.59 162.38a.5.5 0 01.8.12l1.24 2.4a.57.57 0 01-.28.79l-1.33.57q-.56.24-.36-.33l.31-.92a.79.79 0 00-.33-.92q-1.1-.67-.05-1.71z"/><ellipse transform="rotate(114.1 162.534 223.248)" rx="2.2" ry="1.47"/><path fill="#b5b5b6" d="M392.25 174.79c-1.74-.63-1.26-3.94-1.54-5.54q.01-.44.37-.71a.45.45 0 01.68.18q1.4 3.17.49 6.07zM386.71 176q-.36.1-.67.03a.77.76 1.2 01-.59-.61q-.36-2.16-2.49-2.92 1.25-.97 2.43-.33a1.14 1.14 0 01.55.72l.77 3.11zM288.24 174.41q-.09-.52.18-.99 1.21-2.11.84.35-.16 1.13-1.32 1.58-.8.31-.17-.27l.35-.32a.37.37 0 00.12-.35zM392.42 177.7l.87-1.45q.49-.41 1.04-.25a.5.5 0 01.31.68q-.72 1.66-2.22 1.02zM7.85 178.5q.26.44.33.95.08.62-.36.17-.74-.76-.65-1.82.13-1.59.54-.26.07.22.04.44a.82.79-56.7 00.1.52z"/><path fill="#fbfcdf" d="M436.54 178.9q2.47-.65 4.01 1.24.57.69-.33.63l-5.34-.37a1.26 1.22-62.2 00-.86.28l-1.02.86q.55-2.64 3.54-2.64z"/><path d="M505.96 184.25q5.72 22.31.5 44.75c-1.1.35-1.61-.22-1.38-1.3q1.63-7.96 2.11-16.04c.31-5.33-.4-11.19-.68-16.84-.12-2.32-3.4-10.92-.55-10.57z"/><path fill="#b5b5b6" d="M372.25 187.96l.29.05a.47.47 0 01.29.74q-4.23 5.81-10.14 9.91a1.23 1.22 77.3 00-.52.83q-.39 2.52-2.21 3.89c-1.42-7.06 6.18-8.48 9.01-12.17q1.95-2.55 3.28-3.25zM331.29 207.5c-1.5.64-1.93-.62-1.99-1.84q-.2-4.52-3.15-8.19a.53.53 0 00-.91.14c-.87 2.24-1.6 4.01-1.6 6.49q-.03 20.93 7.59 40.4.51 1.29-.69 1.5-12.58-26.71-6.89-55.76.1-.49.38-.08 5.39 7.93 7.26 17.34z"/><path fill="#22211f" d="M152.52 270.39c-2.11 3.47-6.74 4.48-10.39 4.06-15.13-1.75-18.6-31.93 3.12-28.04a.7.69 15.8 00.76-.42c2.52-6.28 6.56-8 13.32-9.92q30.4-8.63 60.92-16.8c9.2-2.46 17.37-7.08 26.74-9.49 1.83-.47 2.43-1.28 3.5-2.66a1.52 1.51-79.4 01.77-.53c4.64-1.41 9.11-3.69 14.23-3.01 20.24 2.67 24.55 41.94-1.58 40.81-6.37-.27-14.61 2.96-20.1 4.97q-3.15 1.17-5.7-.45a1.15 1.13-36.3 00-.95-.14l-18.35 5.42a.77.77 0 00-.56.74l-.01 9.29a.97.97 0 001.18.95c9.02-1.97 10.14 8.12 7.57 13.83-1.78 3.94-5.28 3.77-9.11 2.87a.54.53-79.9 00-.65.46l-.64 5.42a.41.4 3.8 00.4.45l8.95.17a1.34 1.31 67.6 01.91.39c1.99 1.94 1.43 6.32 1.42 9.88 0 3.93-1.2 6.3-5.6 5.33a.59.59 0 00-.64.88q4.46 7.46 9.31 14.78 45.4 68.63 90.7 137.32.81 1.22 2.48 1.34c67.73 4.92 141.83 24.16 192.85 71.82q1.69 1.57 2.25 3.15.18.5-.27.21c-26.6-16.91-57.73-26.36-87.89-33.23a.75.74-65.5 00-.77.29c-13.35 18.07-46.27 17-65.15 7.93-7.06-3.39-13.3-11.47-7.5-19.27a.43.43 0 00-.3-.69l-15.46-1.41a.35.35 0 00-.32.55q2.71 4 5.53 7.87c5.33 7.3.01 9.59-6.01 11.71q-1.86.65-3.34-1.64-6.09-9.42-12.13-18.9a1.06 1.06 0 00-.75-.49q-1.93-.27-3.76-.36c-62.11-3.08-123.81.67-184.75 13.32a.85.85 0 00-.64.58c-2.4 7.8-5.56 15.23-8.11 22.99-1.23 3.73-8.58 1.58-10.83.5a1.62 1.62 0 01-.82-2.04l6.68-17.71a.43.42 3.3 00-.5-.56c-21.07 5.21-44.32 13.34-62.31 25.75a.29.28 5.8 01-.36-.44c19.37-18.32 44.42-32.84 68.96-42.93a1.25 1.23.4 00.66-.64q3.81-8.55 4.61-11.07c4.14-12.99 10.49-28.58 14.05-38.28 4.49-12.25 9.01-24.04 13.27-36.76 1.98-5.93 5.05-11.85 6.93-17.14 6.69-18.81 13.38-37.56 20.73-56.15q3.81-9.63 7.4-20.01a.59.59 0 00-.49-.78c-2.5-.27-8.89.5-10.44-1.75-1.48-2.14-.41-11.22-.22-14.03a.65.63-89 01.61-.6l11.07-.45a.65.65 0 00.62-.63l.11-5.03a.51.5-87 00-.46-.52l-11.31-.95a1.22 1.18 72.9 01-.86-.47c-2.99-3.87-3.6-8.67-1.07-12.96q.5-.85.78-1.82.15-.49-.33-.32c-7.64 2.73-17.62 6.93-25.6 7.34q-.54.02-1.04-.19l-4.45-1.97a.7.69 27 00-.87.28zm117.02-39.89c2.95-1.48 1.15-7.21.21-9.04q-.89-3.65-3.5-6.16-1.34-2.16-3.8-3.63-9.03 1.37-17.8 4.06a.24.24 0 00-.05.44c5.91 3.57 8.79 11.33 8.24 17.81q-.19 2.27 1.96 1.54l14.74-5.02zm1.5-18.03c3.7 6.5 4.49 11.88 4.01 19.25a.54.54 0 00.51.58c2.85.19.63-17.69-4.3-20.06q-.48-.23-.22.23zM197 250.46l4.25-1.67q20.55-6.25 41.04-12.65 2.67-.83 5.02-1.36a1.22 1.22 0 00.95-1.23c-.14-4.18-3.42-15.2-9.52-13.57-5.01 1.34-10.37 2.46-15.04 3.75q-29.56 8.15-59.17 16.24a.33.32-27.1 00-.17.52c1.34 1.6 2.9 2.31 3.89 4.15q3.28 6.1 3.49 13.15a.36.36 0 00.48.33q12.21-4.46 24.78-7.66zm-32.08 4.52c-1.29-5.84-4.44-10.2-11.09-7.84a.95.94 55.7 00-.3 1.6q3.87 3.41 4.49 8.53a.58.58 0 00.77.48l5.71-2.02a.65.65 0 00.42-.75zm-10 6.65c2.18-2.78-2.19-12.99-5.27-11.86q-.53.2-.08.54c3.83 2.91 4.08 5.97 4.92 11.21q.09.55.43.11zm59.75 2.77l.25.07a.37.36-82.7 00.47-.37l-.21-6.53q-.1-3.06-2.34-.96c-3.56 3.34-6.42 5.67-6.15 11.03a.4.4 0 00.66.28q2.97-2.69 6.96-3.53.19-.04.36.01zm-27.39.03l9.62.1a.79.78-3.2 00.79-.88l-.28-2.22a.54.54 0 00-.77-.41q-4.47 2.17-9.39 2.81a.3.3 0 00.03.6zm23.26 5.69c1.91.16 5.46.63 7.37.37a.77.76-3.2 00.66-.73l.03-.94a.69.69 0 00-.56-.7q-4.19-.78-7.61 1.6-.49.34.11.4zm12.495 8.2a4.82 1.76 90.3 001.785-4.81 4.82 1.76 90.3 00-1.735-4.83 4.82 1.76 90.3 00-1.785 4.81 4.82 1.76 90.3 001.735 4.83zm-.003 15.474a.52.52 0 00-.511-.528l-21.098-.331a.52.52 0 00-.528.511l-.067 4.3a.52.52 0 00.511.528l21.098.331a.52.52 0 00.528-.511l.067-4.3zm2.228 22.276c-.74-1.13-3.8-3.9-4.82-4.19q-2.08-.6-.89 1.21c41.41 63.13 82.68 125.65 123.78 188.68a.49.48-45.1 00.81-.01l.52-.8a.9.88 45.5 000-.95c-13.62-21.57-27.28-43.14-41.48-64.34q-8.46-12.62-18.13-27.97c-10.1-16.04-22.32-34-33.41-51.16q-13.11-20.29-26.38-40.47zm67.67 141.1q6.37.16 12.81.29a.37.36 81.4 00.35-.48q-.38-1.11-1.61-2.99-45.04-68.58-90.35-137.56a.36.36 0 00-.65.13q-.83 4.4-1.28 9.1c-1.77 18.48-4.42 36.83-6.04 55.3-2.35 26.76-6.61 55.05-8.34 83.03a.4.39-3 00.46.41q46.98-8.39 94.65-7.23zm-95.97-121.03q-2.59.72-3.7 4.57c-2.36 8.19-7.23 18.97-10.46 29.02-3.84 11.93-9.2 23.12-12.96 35.28q-3.11 10.04-7.64 19.55c-1.87 3.92-2.98 8.18-4.64 12.27-3.24 7.97-5.42 15.76-8.65 23.52-2.38 5.74-4.14 12.14-6.69 18.1a.77.76 10.2 00.74 1.06q.64-.02 1.29-.55 20.23-6.75 40.99-11.87a.73.73 0 00.55-.62q4.58-35.13 7.5-70.43c1.36-16.51 3.46-32.85 5.04-49.31.42-4.32.3-10.82 1.31-16.25a.17.17 0 00-.18-.2c-.17.01-2.11 5.19-2.5 5.86zm167.31 155.01c21.08-3.51 40.96-2.84 61.1 7.04q.46.22.36-.28c-2.41-12.08-25.17-16.04-34.98-16.43-7.92-.33-18.51 1.46-24.76 6.65-.52.43-3.78 2.77-3.77 3.15a.32.31 78.9 00.42.29q.8-.29 1.63-.42z"/><path fill="#b5b5b6" d="M494.42 243.91q2.95-8 3.14-14.35c.17-5.9-.51-15.85-6.81-19.78q-.43-.27-.22.19c1.42 3.08 4.06 7.16-.16 9.42q-4.72 2.53-8.53 6.31a1.42 1.4 69.3 00-.41.92q-.05 1.26.81 2.16a1.65 1.64 19.2 01.41.84l.51 3.32q.07.47-.09.93-1.94 5.3-5.41 9.64-1.89 2.38-2.88 4.64c-1.18 2.72-9.37 19.46-11.56 19.84a1.07 1.05 10.6 00-.73.49q-3.71 5.91-10.21 8.51c-5.87 2.34-6.59-2.81-5.35-6.85a.56.55 8.8 01.55-.39h.33a.43.43 0 01.42.41l.06.84-.3 3.5a1.19 1.16 26.8 00.31.91c1.03 1.11 2.89 1.17 4.17.29q10.66-7.29 16.1-19.14 4.88-10.63 11.92-19.96c2.73-3.61 1.17-7.81-2.19-10.27a1.6 1.57-80.3 01-.59-.85q-.63-2.22-.41-4.53a1.8 1.8 0 00-.25-1.08l-7.17-11.69a1.47 1.47 0 011.1-2.23q.94-.1 1.93.59c3.23 2.28 5.56 12.77 6.11 16.79a1.61 1.61 0 002.76.89q4-4.2 9.14-6.71a.89.88 63 00.39-1.22l-5.08-9.38a.95.95 0 01.82-1.4c4.69-.09 9.95 7.35 10.47 10.99 1.58 10.98 2.52 18.55-3.1 27.41zM369.54 274.5q-.3.41-.73.26a.93.92-85.9 01-.64-.74l-1.89-12.37a1.48 1.4 19.5 00-.41-.8c-2.48-2.42-5.69-4.93-5.83-7.4a1.27 1.22 21.6 00-.38-.84c-4.77-4.66-3.92-11.24-2.96-17.96.42-2.94-.57-4.63-3-5.96a1.08 1.07 8.8 01-.53-.72c-1.33-6.39-8.06-8.33-13.85-9.05-5.29-.65-4.92-5.56-5.36-9.42l.08-3.26a.48.47 4.8 01.55-.46c1.85.26 1.35 8.83 2.72 10.66 1.49 1.99 4.02.91 5.62 1.17q8.25 1.34 11.45 9.28a1.87 1.82 8.2 00.6.78l4.13 3.03a1.76 1.75 24.2 01.68 1.77c-.89 4.28-2.97 11.36-1.53 15.47.6 1.71 1.95 2.36 3.16 3.69a1.86 1.83-72.1 01.43.86c.79 3.9 4.07 5.09 6.57 7.43a1.09 1.08 22.5 01.35.84c-.07 2.7-.58 11.8.77 13.74z"/><path d="M359.19 209.06q2.5-1.41 4.08.89a2.01 1.97 83.6 00.82.67c2.36 1.03 4.43-.15 6.11 1.98a1.16 1.16 0 01-.92 1.88q-5.88-.05-10.25-4.06a.85.84-38.3 01.16-1.36z"/><path fill="#b5b5b6" d="M262.45 211.67q.35 2.03-1.15 1.92-4.28-.29-8.08 1.61-.43.22-.92.27-1.64.16-3.14.67a.46.46 0 00-.26.66c1.53 2.77 3.84 4.68 4.74 7.42.79 2.41 1.75 4.69 2.72 7.02a.85.84 75.9 00.86.52q5.49-.54 10.72-2.35a.95.92 52.3 01.85.12q.47.34.75.97l-14.74 5.02q-2.15.73-1.96-1.54c.55-6.48-2.33-14.24-8.24-17.81a.24.24 0 01.05-.44q8.77-2.69 17.8-4.06z"/><path fill="#989b9d" d="M262.45 211.67q2.46 1.47 3.8 3.63l-9.57 4.63a1.2 1.2 0 00.47 2.27q6.54.28 12.6-.74c.94 1.83 2.74 7.56-.21 9.04q-.28-.63-.75-.97a.95.92 52.3 00-.85-.12q-5.23 1.81-10.72 2.35a.85.84 75.9 01-.86-.52c-.97-2.33-1.93-4.61-2.72-7.02-.9-2.74-3.21-4.65-4.74-7.42a.46.46 0 01.26-.66q1.5-.51 3.14-.67.49-.05.92-.27 3.8-1.9 8.08-1.61 1.5.11 1.15-1.92z"/><path fill="#b5b5b6" d="M275.05 231.72c.48-7.37-.31-12.75-4.01-19.25q-.26-.46.22-.23c4.93 2.37 7.15 20.25 4.3 20.06a.54.54 0 01-.51-.58z"/><path fill="#fbfcdf" d="M266.25 215.3q2.61 2.51 3.5 6.16-6.06 1.02-12.6.74a1.2 1.2 0 01-.47-2.27l9.57-4.63z"/><path fill="#b5b5b6" d="M201.25 248.79l-.85-.06a.42.41-74.5 01-.34-.61l.27-.51a.7.69-83.7 01.43-.35c9.68-2.75 19.05-6.43 28.76-8.89q5.73-1.45 11.43-3.08c3.76-1.07 6.01-1.84 5.04-6.05q-1.29-5.63-5.48-8.2a1.12 1.11-37.2 00-.92-.12q-16.6 4.95-33.48 8.92c-2.24.53-4.15 1.44-6.27 2.3-3.23 1.3-6.74 1.11-10.17 2.3-4.56 1.59-9.18 2.97-13.76 4.49-1.61.53-4.54.85-6.6 2.22a.89.89 0 00-.25 1.24l3.21 4.71q.29.44.39.96l1.21 6.56a.79.78 88.9 00.66.64q1.92.29 3.63-.36c5.78-2.2 11.88-3.57 17.96-5.61a.68.67 80.8 01.89.65l-.01.52q-12.57 3.2-24.78 7.66a.36.36 0 01-.48-.33q-.21-7.05-3.49-13.15c-.99-1.84-2.55-2.55-3.89-4.15a.33.32-27.1 01.17-.52q29.61-8.09 59.17-16.24c4.67-1.29 10.03-2.41 15.04-3.75 6.1-1.63 9.38 9.39 9.52 13.57a1.22 1.22 0 01-.95 1.23q-2.35.53-5.02 1.36-20.49 6.4-41.04 12.65z"/><path fill="#989b9d" d="M201.25 248.79l-4.25 1.67.01-.52a.68.67 80.8 00-.89-.65c-6.08 2.04-12.18 3.41-17.96 5.61q-1.71.65-3.63.36a.79.78 88.9 01-.66-.64l-1.21-6.56q-.1-.52-.39-.96l-3.21-4.71a.89.89 0 01.25-1.24c2.06-1.37 4.99-1.69 6.6-2.22 4.58-1.52 9.2-2.9 13.76-4.49 3.43-1.19 6.94-1 10.17-2.3 2.12-.86 4.03-1.77 6.27-2.3q16.88-3.97 33.48-8.92a1.12 1.11-37.2 01.92.12q4.19 2.57 5.48 8.2c.97 4.21-1.28 4.98-5.04 6.05q-5.7 1.63-11.43 3.08c-9.71 2.46-19.08 6.14-28.76 8.89a.7.69-83.7 00-.43.35l-.27.51a.42.41-74.5 00.34.61l.85.06z"/><path fill="#b5b5b6" d="M397.47 256.03c4.01-3.32 11.99-10.34 3.87-15.14-1.73-1.02-4.88-.02-6.74-1.1-1.91-1.11-3.45-4.42-4.64-6.29q.07-.54.53-.88a.85.84-30 011.28.34q1.32 3.06 3.53 5.52a1.1 1.09-23.3 00.86.34c8.08-.59 14.63 7.79 7.26 13.92-1.28 1.06-3.63 1.52-4.83 3.64q-.3.52-1.12-.35z"/><path fill="#fbfcdf" d="M449.21 240.75c-.51 3.51 1.43 6.65 1.61 10.34q-2.08-4.39-2.72-8.4-.16-1.07.5-2.15a.25.25 0 01.4-.04l.21.25z"/><path fill="#b5b5b6" d="M153.83 247.14c6.65-2.36 9.8 2 11.09 7.84a.65.65 0 01-.42.75l-5.71 2.02a.58.58 0 01-.77-.48q-.62-5.12-4.49-8.53a.95.94 55.7 01.3-1.6z"/><path fill="#22211f" d="M478.99 249.64q.1-.48.27-.93a.35.35 0 01.57-.13c3.21 3.08-2.11 14.43-5.94 16.73a.73.73 0 01-1.1-.5c-.8-4.6 3.98-3.16 4.4-5.62q.81-4.79 1.8-9.55z"/><path fill="#fbfcdf" d="M149.65 249.77c3.08-1.13 7.45 9.08 5.27 11.86q-.34.44-.43-.11c-.84-5.24-1.09-8.3-4.92-11.21q-.45-.34.08-.54z"/><path fill="#b5b5b6" d="M368.75 286.79c-15.29-8.39-28.42-20.06-35.58-36.04q5.75 5.52 9.52 12.45c5.73 10.55 17.51 16.11 26.11 22.28a.74.74 0 01.27.81q-.08.27-.32.5z"/><path fill="#989b9d" d="M214.31 264.39q-3.99.84-6.96 3.53a.4.4 0 01-.66-.28c-.27-5.36 2.59-7.69 6.15-11.03q2.24-2.1 2.34.96l.21 6.53a.37.36-82.7 01-.47.37l-.25-.07q-.17-.05-.36-.01z"/><path fill="#b5b5b6" d="M396.54 260.25q1.68.49 1.29 2.48a1.47 1.46-14.5 01-.49.83q-2.43 2.06-3.84 4.91a1.41 1.37-88.3 01-.65.63c-6.36 2.93-4.87 7.33-8.46 11.96a1.8 1.79 40.6 00.19 2.4l2.35 2.23a.99.97-56.2 01.21 1.13q-.33.68-1.35.43l-.08-.5a.85.85 0 00-.58-.68c-3.13-1.05-2.76-3.44-1.62-6.01 1.92-4.31 3.32-8.64 6.69-12.09 2.16-2.2 5.69-4.65 6.34-7.72z"/><path fill="#fbfcdf" d="M187.28 264.43a.3.3 0 01-.03-.6q4.92-.64 9.39-2.81a.54.54 0 01.77.41l.28 2.22a.79.78-3.2 01-.79.88l-9.62-.1z"/><path fill="#b5b5b6" d="M217.91 270.49c-1.91.26-5.46-.21-7.37-.37q-.6-.06-.11-.4 3.42-2.38 7.61-1.6a.69.69 0 01.56.7l-.03.94a.77.76-3.2 01-.66.73z"/><ellipse fill="#b5b5b6" transform="rotate(90.3 -24.506 247.698)" rx="4.82" ry="1.76"/><path fill="#b5b5b6" d="M395.85 296.56q-5.77-.94-11.14-2.81l.45-.73a.81.8 20.1 01.81-.37q5.4.83 9.88 3.91z"/><rect fill="#989b9d" x="-11.07" y="-2.67" transform="rotate(.9 -18722.95 13639.49)" width="22.14" height="5.34" rx=".52"/><path fill="#b5b5b6" d="M220.44 311.88c1.02.29 4.08 3.06 4.82 4.19q13.27 20.18 26.38 40.47c11.09 17.16 23.31 35.12 33.41 51.16q9.67 15.35 18.13 27.97c14.2 21.2 27.86 42.77 41.48 64.34a.9.88 45.5 010 .95l-.52.8a.49.48-45.1 01-.81.01c-41.1-63.03-82.37-125.55-123.78-188.68q-1.19-1.81.89-1.21z"/><path fill="#fbfcdf" d="M292.93 457.17q-47.67-1.16-94.65 7.23a.4.39-3 01-.46-.41c1.73-27.98 5.99-56.27 8.34-83.03 1.62-18.47 4.27-36.82 6.04-55.3q.45-4.7 1.28-9.1a.36.36 0 01.65-.13q45.31 68.98 90.35 137.56 1.23 1.88 1.61 2.99a.37.36 81.4 01-.35.48q-6.44-.13-12.81-.29zM144.25 478.96q6.62-19.19 13.86-38.16c1.84-4.83 3.61-11.17 5.89-16.61 9.46-22.48 16.49-45.41 22.69-61q7.28-18.31 10.27-27.05c.39-.67 2.33-5.85 2.5-5.86a.17.17 0 01.18.2c-1.01 5.43-.89 11.93-1.31 16.25-1.58 16.46-3.68 32.8-5.04 49.31q-2.92 35.3-7.5 70.43a.73.73 0 01-.55.62q-20.76 5.12-40.99 11.87z"/><path d="M196.96 336.14q-2.99 8.74-10.27 27.05c-6.2 15.59-13.23 38.52-22.69 61-2.28 5.44-4.05 11.78-5.89 16.61q-7.24 18.97-13.86 38.16-.65.53-1.29.55a.77.76 10.2 01-.74-1.06c2.55-5.96 4.31-12.36 6.69-18.1 3.23-7.76 5.41-15.55 8.65-23.52 1.66-4.09 2.77-8.35 4.64-12.27q4.53-9.51 7.64-19.55c3.76-12.16 9.12-23.35 12.96-35.28 3.23-10.05 8.1-20.83 10.46-29.02q1.11-3.85 3.7-4.57z"/><path fill="#989b9d" d="M425.37 498.19c-20.14-9.88-40.02-10.55-61.1-7.04q-.83.13-1.63.42a.32.31 78.9 01-.42-.29c-.01-.38 3.25-2.72 3.77-3.15 6.25-5.19 16.84-6.98 24.76-6.65 9.81.39 32.57 4.35 34.98 16.43q.1.5-.36.28z"/><ellipse fill="#b5b5b6" transform="rotate(64.7 -254.243 465.323)" rx="1.25" ry=".69"/><ellipse fill="#22211f" transform="rotate(.8 -37611.66 31897.327)" rx="24.47" ry="14.11"/><path fill="#22211f" d="M0 589.94l.25.1.03.32a.36.36 0 00.36.33l13.11.1-.06.21H0v-1.06z"/><path fill="#989b9d" d="M13.75 590.79l10.69.21H13.69l.06-.21zM33.19 591h-7.5q3.75-.63 7.5 0zM47.19 591h-5.25q2.62-.63 5.25 0zM57.44 591h-7.5q3.75-.63 7.5 0zM78.44 591h-4.5q2.25-.63 4.5 0zM89.44 591h-7.5q3.75-.63 7.5 0zM95.19 591h-5.5q2.75-.63 5.5 0zM143.19 591h-5.25q2.62-.63 5.25 0zM160.44 591h-6.5q3.25-.63 6.5 0zM176.44 591h-6.5q3.25-.63 6.5 0zM192.44 591h-6.5q3.25-.63 6.5 0zM199.19 591h-5.25q2.62-.63 5.25 0zM216.44 591h-6.5q3.25-.63 6.5 0zM224.44 591h-6.5q3.25-.63 6.5 0zM232.44 591h-6.75q3.37-.63 6.75 0zM265.44 591h-7.5q3.75-.63 7.5 0zM273.44 591h-7.5q3.75-.63 7.5 0zM281.44 591h-7.75q3.87-.63 7.75 0zM289.44 591h-7.75q3.87-.63 7.75 0zM294.44 591h-4.75q2.37-.63 4.75 0zM304.44 591h-6.5q3.25-.63 6.5 0zM327.44 591h-5.5q2.75-.63 5.5 0zM335.44 591h-5.5q2.75-.63 5.5 0zM343.44 591h-5.5q2.75-.63 5.5 0zM352.44 591h-6.5q3.25-.63 6.5 0zM360.44 591h-6.5q3.25-.63 6.5 0zM368.44 591h-6.5q3.25-.63 6.5 0zM375.44 591h-5.75q2.87-.63 5.75 0zM383.44 591h-4.75q2.37-.63 4.75 0zM399.44 591h-5.5q2.75-.63 5.5 0zM407.44 591h-5.5q2.75-.63 5.5 0zM416.44 591h-6.5q3.25-.63 6.5 0zM423.44 591h-4.75q2.37-.63 4.75 0zM456.19 591h-6.25q3.12-.63 6.25 0zM471.44 591h-5.5q2.75-.63 5.5 0zM494.19 591h-4.25q2.12-.63 4.25 0zM504.19 591h-6q3-.63 6 0zM528.19 591h-6.25q3.12-.63 6.25 0zM577.19 591h-11.5q5.75-.63 11.5 0z"/></svg>