<svg xmlns="http://www.w3.org/2000/svg" viewBox="0 0 591 591"><g stroke-width="2" fill="none"><path stroke="#4b4c4d" vector-effect="non-scaling-stroke" d="M590.06 0l.23 4"/><path stroke="#121211" vector-effect="non-scaling-stroke" d="M590.29 4v1"/><path stroke="#4b4c4d" vector-effect="non-scaling-stroke" d="M590.29 5l-.03 584.57a.67.67 0 01-.67.67q-292.4.02-584.9-.04-2.37 0-4.69-.26"/><path stroke="#7f7e6f" vector-effect="non-scaling-stroke" d="M585.5 5.52a.26.26 0 00-.26-.26H5.5a.26.26 0 00-.26.26v579.72a.26.26 0 00.26.26h579.74a.26.26 0 00.26-.26V5.52"/><path stroke="#5d5e5e" vector-effect="non-scaling-stroke" d="M590.81 0q.25 2.1-.52 4M591 590.31c-.83-.45-.25-535.49-.25-585.1a.22.21 1.4 00-.21-.21h-.25M589.94 591q-5.13-.63-10.25 0M560.94 591q-3.38-.63-6.75 0M538.19 591q-4.5-.63-9 0M528.94 591q-8.5-.63-17 0M487.94 591q-6.63-.63-13.25 0M439.94 591q-15.38-.63-30.75 0M408.94 591q-7.38-.63-14.75 0M393.94 591q-7.88-.63-15.75 0M367.94 591q-10.88-.63-21.75 0M336.94 591l-24.69-.21M312.25 590.79l-15.06.21M296.94 591q-10.38-.63-20.75 0M249.94 591q-24.88-.63-49.75 0M192.94 591q-3.38-.63-6.75 0M182.94 591q-5.38-.63-10.75 0M113.19 591q-4-.63-8 0M96.94 591q-7.38-.63-14.75 0M80.94 591q-24.13-.63-48.25 0M30.94 591c-6.12-.18-29.78.33-30.94-.56"/><path stroke="#fcefc2" vector-effect="non-scaling-stroke" d="M89.93 35.17c2.93-2.89 7.04-6.5 10.29-10.44a1.4 1.4 0 00-1.05-2.29q-18.51-.32-37.73-.2-10.45.06-14.16 1.5c-10.62 4.13-11.95 17.89-11.77 28.17.19 11.09.03 22.15-.05 33.14a1.17 1.17 0 001.97.86q26.76-25.3 52.5-50.74"/><path stroke="#7f7e6f" vector-effect="non-scaling-stroke" d="M358.75 533.29q3.11-5.76 3.21-12.05c.09-5.71.79-11.71.87-16.66.48-29.18 1.63-56.31-2.62-87.08"/><path stroke="#919080" vector-effect="non-scaling-stroke" d="M360.21 417.5c-.43-8.59-1.14-17.08-.83-25.67.82-23.13 3.47-47.22-2.93-69.82a.85.84-29.8 01.23-.83q11.58-11.06 19.06-24.97c5.16-9.62 9.18-22.74 13.1-34.13 1.44-4.18 2.28-7.87.82-12.32q-1.89-5.73-3.57-11.52c-.68-2.32-2.4-4.77-2.68-7.76a1.64 1.62 58.3 01.23-1q4.6-7.59 2.86-16.34a.99.99 0 01.39-.99q3.79-2.78 6.05-6.9a.82.81 41.8 00-.05-.87q-2.07-2.97-5.94-6.34c-16.62-14.46-32.86-20.55-52.76-28.02a1.54 1.53 21.7 01-.88-2.04c2.83-6.69 4.64-10.19 3.97-18.09-1.62-19.16-9.89-41.49-24.14-55.01q-2.91-2.75-6.62-3.16a1.68 1.61 32.6 00-.95.19q-5.48 3-8.81 6.88-21.1 24.6-24.42 57.61c-.38 3.76 2.99 8.85 4.71 12.15a.42.41 67.3 01-.24.59c-11.44 3.73-26.12 6.91-35.29 14.13-8.71 6.86-17.87 10.91-25.23 18.94a.94.93-41.5 00-.08 1.17l6.51 9.29a1.22 1.21-54.2 01.16 1.02c-2.77 9.45-8.03 16.66-8.06 25.56q-.03 13.21 1.47 26.32c.28 2.49 1.16 4.12 2.37 6.26 8.2 14.5 17.32 27.22 29.21 38.55a.94.93 27.4 01.27.84q-3.6 19.1-6.48 38.32-.43 2.9-.52 5.45c-.58 15.88.08 31.83.56 47.69.35 11.51-.26 21.67-.44 34.65q-.16 12.1-2 27.92-2.3 19.71-1.43 33.19 1.07 16.73.94 23.75-.05 2.65 1.65 10.56a1.58 1.56 16.2 00.46.82q8.37 7.85 18.76 12.17c9.68 4.02 20.26 4.65 31.36 5.22 10.43.53 39.13 2.97 44.74-1.7q6.78-5.64 16.07-9.41 4.53-1.84 6.94-6.56"/><path stroke="#121211" vector-effect="non-scaling-stroke" d="M360.21 417.5q-2.39 2.79-.61 5.85.25.43.28.92c.75 11.69 2.11 23.61 2.1 35.01q-.01 17.02-.34 22.28c-.71 11.23-.25 22.46-1.21 33.64-.46 5.42.27 10.45-2.22 16.51q-.44 1.08.54 1.58"/><path stroke="#cacabc" vector-effect="non-scaling-stroke" d="M484.24 159.34a.31.31 0 01-.17.58c-4.04-.52-10.89-.6-13.76 2.9-2.04 2.5-2.82 10.26-3.93 13.82-1.33 4.3 1.13 5.65 3.67 8.31a1.22 1.21-66.4 01.33.86q-.34 25.12-.57 50.24c-.02 2.76-.58 7.12 2.68 7.99 9.08 2.41 19.09 3.67 27.53.36a1.25 1.21-87.8 00.68-.65q1.16-2.58 1.22-6.01.33-21.41.21-42.84c-.01-.75.18-1.03.95-.8a.91.9-56.1 00.82-.17q4.18-3.5 3.36-8.22-1.97-11.39-1.91-19.28c.05-7.98-10.59-4.69-14.47-7.16q-.43-.28.08-.34c19.43-2.28 8.11-26.78 4.68-36.86-1.98-5.82-2.69-11.68-3.57-17.73a.38.38 0 00-.72-.11q-2.44 4.93-4.11 10.34c-1.77 5.75-5.22 11.07-7 16.32-2.89 8.58-6.42 23.48 4 28.45"/><path stroke="#fcefc2" vector-effect="non-scaling-stroke" d="M361.91 123.17a.47.46 8.6 00.38.51q2.96.56 5.44-.95a.38.37-34.9 00.1-.54c-.12-.15-3.49.65-4.67.19-.82-.32-1.16-.02-1.25.79"/><path stroke="#919080" vector-effect="non-scaling-stroke" d="M132.43 186.56c16.97-.14 8.01-27.37 4.39-35.06q-3.66-7.77-5.65-16.18-.28-1.19-1.7-3.63-.26-.43-.38.06c-1.25 4.89-1.72 9.98-3.22 14.55-3.66 11.14-17.5 36.46 2.9 40.46a.36.36 0 01.23.55q-.39.58-.99.53-6.65-.46-12.22 1.85a1.91 1.91 0 00-1.17 1.65q-.66 10.89-2.89 21.5c-.91 4.29.7 7.3 4.24 9.44a.85.84 17.2 01.4.75q-1.23 22.55-.8 45.15c.14 7.48 16.85 5.88 21.37 5.74q4.25-.12 9.83-2.74a1.03 1.01 84.2 00.57-.71c.81-3.46.52-7.05.6-9.99q.65-23.7.59-47.41a.85.83 75.3 01.42-.73q4.71-2.63 3.26-8.34c-.88-3.47-1.34-14.32-5.95-15.48q-5.86-1.46-13.48-1.29a.42.41 65.7 01-.28-.11l-.21-.2q-.37-.35.14-.36"/><path stroke="#cacabc" vector-effect="non-scaling-stroke" d="M531.383 240.915a1.01.76 67.7 00.32-1.223 1.01.76 67.7 00-1.086-.647 1.01.76 67.7 00-.32 1.223 1.01.76 67.7 001.086.647M178.11 399.43c-13.5-.97-13.94 4.71-17.09 15.33-1.34 4.53-.49 7.85 3.71 9.95a.8.8 0 01.45.72c.26 18.96-.87 38.32.17 57.2a.82.79-80.8 00.49.7c6.3 2.61 30.66 7.87 31.05-3.66q.74-22.06.27-37.86-.13-4.13.16-6.41a1.66 1.6-21.8 01.39-.87c1.72-1.92 4.93-4.47 4.35-7.29q-2.41-11.63-2.47-23.54a1.9 1.89-80.6 00-1.27-1.78q-4.89-1.71-10.24-1.47-1.3.05-2.5-.89-.41-.32.1-.41c18.36-3.11 8.57-26.98 4.32-37.69q-3.25-8.17-3.29-17.04a.46.45 57.2 00-.87-.19c-2.85 6.26-4.82 12.94-7.55 19.14-1.9 4.3-4.77 10.31-4.83 15.01a.76.73-22.2 01-.22.5c-1.39 1.33-.89 12.51-.88 12.55q.95 5.36 5.9 7.32a.35.35 0 01-.15.68"/><path stroke="#919080" vector-effect="non-scaling-stroke" d="M427.78 448.38c-.03 2.01-14.54-2.3-14.69 6.37q-.15 8.75-2.79 19.26c-1.06 4.25.89 7.38 4.54 9.32a.76.75 15.9 01.41.73q-1.45 20.27-.96 40.63c.12 4.9-1.33 8.9 5.45 10.13q11.93 2.16 23.52-1.31 3.33-1 3.43-4.82.68-27.04.8-54.13a.94.94 0 01.43-.77c3.13-1.98 3.55-4.38 2.96-8.1-.79-5-.71-14.82-6.88-16.18q-4.68-1.03-12.68-.68a.3.29-89.9 01-.31-.32c.03-.35.25-.43.59-.47 13.41-1.5 8.41-20.77 6.47-28.64-1.02-4.12-3.15-7.89-4.9-11.88-1.8-4.09-2.82-9.64-5.18-14.3q-.22-.45-.29.05-1.73 12.15-3.63 16.5c-4.44 10.18-16.47 35.01 3.42 38.26a.35.34 5.7 01.29.35"/><path stroke="#5d5e5e" vector-effect="non-scaling-stroke" d="M307.46 175.75l-3.13 4.9a1.51 1.46 60.7 00-.24.91l.2 3.69"/><path stroke="#929190" vector-effect="non-scaling-stroke" d="M304.29 185.25l-.25 2"/><path stroke="#5d5e5e" vector-effect="non-scaling-stroke" d="M304.04 187.25l.25 1"/><path stroke="#929190" vector-effect="non-scaling-stroke" d="M304.29 188.25q-.4 2.17-.47 6.51-.35 21.26-.36 42.57a.44.43-4 00.5.43c11.02-1.59 22.53-1.05 32.78-.55 7.08.34 16.67-.39 22.19-5.21 9.97-8.71 19.67-16.66 28.53-26.36a.6.6 0 000-.81c-12.97-13.74-31.75-23.52-49.71-28.87"/><path stroke="#5d5e5e" vector-effect="non-scaling-stroke" d="M337.75 175.96l-7.24-4.48a.54.53 36.8 00-.66.09l-5.18 5.47a.8.79-30.2 00-.2.75c.45 1.85-13.4 8.81-15.71 4.38a.91.91 0 01.02-.89c2.83-4.94 11.24-5.16 15.59-9.66q2.77-2.87 5.22-6.04c4.89-6.3 4.92-16.28 2.7-23.58"/><path stroke="#929190" vector-effect="non-scaling-stroke" d="M332.29 142c-3.59-17.16-8.92-30.32-19.97-43.82q-2.29-2.79-6.4-3.23a.1.09 8.3 00-.09.06l-.09.27a.33.33 0 00.26.42q2.2.43 3.25 2.78c2.06 4.63 6.56 10.56 8.53 15.62 3.4 8.71 2.89 15.58 2.19 26.24-.88 13.38-3.83 21.54-11.65 33.22q-.42.64-.86 2.19"/><path stroke="#cbcccd" vector-effect="non-scaling-stroke" d="M332.29 142c-.56 5.84-4.04 21.82-9.73 24.7-5.54 2.8-10.33 3.13-13.65 9.05a.95.94 24.6 01-1.15.42q-.15-.05-.3-.42M337.75 175.96l-19.69 14.82a.16.16 0 01-.24-.07l-.09-.26a.2.19-37.9 01.03-.19l2.79-3.81q.67-.92-.44-.67-7.89 1.77-15.82 2.47M304.04 187.25q.2.21.4.23a.46.45-82.1 00.5-.38l.28-1.82q.09-.61-.44-.31l-.49.28"/><path stroke="#5d5e5e" vector-effect="non-scaling-stroke" d="M303.32 102.2c-4.27 4.78-6.02 9.74-9.07 15.55-6.02 11.43-5.1 26.4-.98 38.5 1.68 4.92 4.67 13.79 8.89 19.07a.82.81 37.1 001.39-.19c2.01-4.75 5.59-9.23 7.27-13.04 4.56-10.31 5.36-22.91 5.49-33.65.1-8.25-5.13-21.2-11.67-26.36a.97.96-49.9 00-1.32.12M279.33 171.03a1.22 1.2 40 00.09.93c3.72 7.04 10.11 8.29 17.36 9.16a.53.53 0 00.38-.95q-7.88-5.83-15.98-10.27-1.28-.7-1.85 1.13M322.59 177.58c-2.24 1.32-5.24 2.7-6.32 2.72q-2.36.03-4.13 1.52-.41.35.09.16c.81-.3 11.98-2.49 10.74-4.32a.28.28 0 00-.38-.08"/><path stroke="#121211" vector-effect="non-scaling-stroke" d="M353 245.96l-4.84 6.21a.93.93 0 00-.13.92l.91 2.24a1.58 1.57-51.9 01.1.85q-.6 3.83-3.33 6.57"/><path stroke="#929190" vector-effect="non-scaling-stroke" d="M345.71 262.75c-6.37-1.83-13.17-.15-19.71 1.12a1.24 1.23 66.5 00-.76 1.94c.9 1.25 2.61 4.87.66 6.2a.6.59-29.3 00-.21.72l1.85 4.52"/><path stroke="#5d5e5e" vector-effect="non-scaling-stroke" d="M327.54 277.25c.87 4.5 3.68 7.67 5.36 11.38.68 1.49 7.36 12.41 7.34 12.47a.37.37 0 01-.57.15l-7.61-5.87"/><path stroke="#929190" vector-effect="non-scaling-stroke" d="M332.06 295.38c-6.15-5.77-9.18-13.29-11.85-21.13"/><path stroke="#5d5e5e" vector-effect="non-scaling-stroke" d="M320.21 274.25q.26-1.99 2.04-2.79"/><path stroke="#929190" vector-effect="non-scaling-stroke" d="M322.25 271.46q1.43.51 2.25-.28.39-.38-.13-.52c-2.11-.61-5.18-4.57-6.7-6.2a.34.34 0 00-.54.05l-.15.25a.52.52 0 00.14.69q2.41 1.67 2.59 4.55"/><path stroke="#5d5e5e" vector-effect="non-scaling-stroke" d="M319.71 270q-1.22.39-2.21-.46"/><path stroke="#929190" vector-effect="non-scaling-stroke" d="M317.5 269.54l-5.25-3.51q-.53-.35-.21.19c1.25 2.18 3.04 3.89 3.9 6.14q3.12 8.21 4.56 16.99a.32.32 0 01-.62.16c-2.81-8.21-6.06-18.13-13.23-23.72a.43.43 0 00-.69.3l-.42 3.91"/><path stroke="#121211" vector-effect="non-scaling-stroke" d="M305.54 270l-.51-3.25a.3.3 0 00-.34-.25l-.3.05a.48.47-4.2 00-.41.47c.1 12.9.02 23.45-.76 38.43-.44 8.51.17 17.08-.76 25.55"/><path stroke="#5d5e5e" vector-effect="non-scaling-stroke" d="M302.46 331q-20.14-1.42-37.66-11.21"/><path stroke="#929190" vector-effect="non-scaling-stroke" d="M264.8 319.79l-9.77-5.4a.87.86-66.3 00-1.24.49c-1.97 6.13-3.5 12-4.48 18.61-1.39 9.34-3.68 19.84-3.32 29.26q1.43 38.12.34 76.26-.2 6.95-1.43 16.42-4.82 37.13-1.2 74.54a1.38 1.31 19.9 00.42.84c8.29 7.82 19.44 13.78 30.88 14.93q11.1 1.12 23.44 1.61a1.23 1.23 0 001.28-1.23c.02-22.02.71-44.27.73-66.44q.03-31.45.8-62.89"/><path stroke="#5d5e5e" vector-effect="non-scaling-stroke" d="M301.25 416.79q.55-3.93.5-6.79-.44-25.51.54-51"/><path stroke="#121211" vector-effect="non-scaling-stroke" d="M302.29 359q1.69-.13 1.53-2.02c-.69-8.31 0-16.28-.18-24.55q-.05-2.13.65-4.18"/><path stroke="#929190" vector-effect="non-scaling-stroke" d="M304.29 328.25q6.5.08 12.99-1.17"/><path stroke="#5d5e5e" vector-effect="non-scaling-stroke" d="M317.28 327.08q10.45-.82 20.58-3.8c5.77-1.7 11.49-2.71 16.09-6.85 14.42-13 22.59-32.37 27.37-50.87 1.06-4.14 3.56-8.41 3.64-13.44q.06-3.44-2.26-9.85-3.09-8.54-5.74-17.22a.86.85-29.7 01.25-.9l.52-.46q.52-.46.63.23l.43 2.96q.22 1.54.84.12 1.54-3.56 1.36-7.47-.03-.52-.44-.2c-8.96 6.99-16.42 13.89-26.82 20.74a1.34 1.33 81.8 00-.56.75q-.76 2.52-.17 5.14"/><path stroke="#cbcccd" vector-effect="non-scaling-stroke" d="M317.28 327.08l-12.99-.08"/><path stroke="#4b4c4d" vector-effect="non-scaling-stroke" d="M304.29 327l.25-6.75"/><path stroke="#cbcccd" vector-effect="non-scaling-stroke" d="M304.54 320.25q10.66-.76 20.97-3.46c6.93-1.82 13.24-2.96 10.44-11.68q-.7-2.18-3.89-9.73M327.54 277.25c6.21 8.19 8.57 17.6 18.78 23.42 8.74 4.97 16.49-1.63 16.79-10.51.14-3.9.75-5.68 4.35-7.69 14.74-8.22 14.23-29.64 11.11-44.29q-.35-1.66-2.03-.68"/><path stroke="#4b4c4d" vector-effect="non-scaling-stroke" d="M376.54 237.5l.12-2.25a.49.49 0 00-.93-.25q-5.85 11.63-7.78 24.5a.97.97 0 01-1.39.73l-4.99-2.44q-.61-.3-.45.36 1.49 5.86 7.59 5.6"/><path stroke="#cbcccd" vector-effect="non-scaling-stroke" d="M368.71 263.75c-.63 3.29-3.47 2.79-5.96 2.96"/><path stroke="#4b4c4d" vector-effect="non-scaling-stroke" d="M362.75 266.71l-.24-2.37a1.69 1.65-69.1 00-.38-.88q-2.34-2.79-3.38-6.25"/><path stroke="#cbcccd" vector-effect="non-scaling-stroke" d="M358.75 257.21l.75-.92"/><path stroke="#4b4c4d" vector-effect="non-scaling-stroke" d="M359.5 256.29c1.46.07 7.36 1.09 7.46-1.02a.44.44 0 00-.5-.46c-3.09.4-5.39-.85-8.4-1.36-1.59-.28-3.41.27-5.31-.49"/><path stroke="#cbcccd" vector-effect="non-scaling-stroke" d="M352.75 252.96c1.79-2.21 13.97-1.35 14.96-5.1q2.23-8.5 6.97-15.87c.07-.12.12-.75.08-.87a.44.43-24.7 00-.64-.23q-1.12.66-2.37.82"/><path stroke="#4b4c4d" vector-effect="non-scaling-stroke" d="M371.75 231.71l-.04-.62q-.09-1.49-1.22-.5L353 245.96"/><path stroke="gray" vector-effect="non-scaling-stroke" d="M304.29 327v1.25"/><path stroke="#4b4c4d" vector-effect="non-scaling-stroke" d="M302.29 359l.17-28"/><path stroke="gray" vector-effect="non-scaling-stroke" d="M376.54 237.5l-2.33 8.25"/><path stroke="#4b4c4d" vector-effect="non-scaling-stroke" d="M374.21 245.75L369 263.46"/><path stroke="gray" vector-effect="non-scaling-stroke" d="M369 263.46l-.29.29"/><path stroke="#cbcccd" vector-effect="non-scaling-stroke" d="M356.84 257.33q-2.96 1.33-.79 3.8a1.07 1.05-21.6 00.87.37l.83-.04"/><path stroke="gray" vector-effect="non-scaling-stroke" d="M371.75 231.71l-22.31 20.67a.63.63 0 00.54 1.08l2.77-.5M359.5 256.29c-4.36-.73-9.72-1.14-10.01 4.53a.49.49 0 00.38.5l7.38 1.63a1.08.86 10 001.28-.69q.03-.3-.78-.8"/><path stroke="#4b4c4d" vector-effect="non-scaling-stroke" d="M357.75 261.46l-.91-4.13"/><path stroke="gray" vector-effect="non-scaling-stroke" d="M356.84 257.33l1.91-.12M362.75 266.71h-1.25"/><path stroke="#4b4c4d" vector-effect="non-scaling-stroke" d="M361.5 266.71q-2.31-1.27-5-.67"/><path stroke="gray" vector-effect="non-scaling-stroke" d="M356.5 266.04l-10.79-3.29"/><path stroke="#cbcccd" vector-effect="non-scaling-stroke" d="M356.5 266.04l5 .67M369 263.46c4.23-2.34 5.51-13.74 5.21-17.71M317.5 269.54q.53 2.79 2.71 4.71"/><path stroke="gray" vector-effect="non-scaling-stroke" d="M304.54 320.25l1-50.25"/><path stroke="#cbcccd" vector-effect="non-scaling-stroke" d="M264.8 319.79q-4.07.1-7.02-2.71a1.28 1.28 0 00-.88-.35c-1.81-.02-2.81.89-3.31 2.68q-2.22 7.8-3.01 15.86c-.21 2.22 1.54 6.17 2.47 8.15q16.32 34.95 38.71 64.3 3.63 4.75 9.49 9.07M322.25 271.46l-2.54-1.46"/><path stroke="#5d5e5e" vector-effect="non-scaling-stroke" d="M243.26 257.29q-9.47 2.93-19.35 3.35a.4.4 0 00-.1.78c8.94 2.5 14.59 1.28 23.07-1.76a.47.47 0 01.52.75q-4.07 4.89-.93 10.55a.33.32 32.8 00.61-.13q.62-7.85 7.37-11.78 1.06-.62-.16-.7l-2.08-.14q-.64-.04-.21-.51l1.07-1.17a.52.52 0 00-.2-.84q-.8-.28-.37-1.16a1.87 1.84 55.1 00.18-1.06l-.87-6.77q-.06-.48-.36-.88-4.71-6.24-10.13-11.88-1.48-1.54-1.53-4.88a.98.98 0 01.4-.81c1.51-1.1 4.58-.71 4.91-1.01a.15.15 0 00-.03-.24l-6.32-3.22a1.64 1.64 0 00-2.36 1.73c1.24 7.46 6.98 14.7 11.84 20.27q.9 1.05 2.1 4.28a.35.35 0 01-.32.48q-11.52.31-22.02-4.33-.58-.26-.34.33c1.05 2.56 7.63 5.6 9.87 6.57a.47.47 0 01-.24.9c-1.73-.18-17.97-1.07-16.96 2.2a.49.48-19.1 00.65.31c4.65-1.85 14.36-.08 22.27.63q.36.03.02.14"/><path stroke="#5d5e5e" vector-effect="non-scaling-stroke" d="M241.34 242.31q-7.73-5.71-15.2-8.56c-1.78-.68-3.49-.56-5.36-.47a.6.6 0 00-.55.75l.28 1.04a.84.82-5.6 00.77.62q1.22.06 2.37.49 9.04 3.4 17.27 6.86a.43.42-15.2 00.42-.73"/><path stroke="#121211" vector-effect="non-scaling-stroke" d="M303.58 262.79q1.5.36 1.55-1.86.19-9.18.41-18.44a1.77 1.77 0 00-.93-1.59q-.27-.15-.82.35"/><path stroke="#5d5e5e" vector-effect="non-scaling-stroke" d="M303.79 241.25q0-.18-.11-.42a.69.69 0 00-.67-.4q-7.92.4-15.84 1.02c-11.05.85-19.04-1.56-29.2-6.49-1.22-.59-2.81-.54-4.21-1.22a.3.3 0 00-.43.27c.04 3.88 1.04 7.9 1.3 11.34q.39 5.35 1.04 10.6a.5.5 0 00.55.44q5.16-.46 9.13 2.56c2.2 1.67 4.06 2.52 6.51 1.81 3.9-1.13 7.65-1.63 11.68-2.09 4.88-.57 7.36 2.78 11.8 3.32q4.05.49 8.24.8"/><path stroke="#4b4c4d" vector-effect="non-scaling-stroke" d="M303.79 241.25l-.21 21.54"/><path stroke="#5d5e5e" vector-effect="non-scaling-stroke" d="M487.4 150.49l1.92.21a.82.8 86.4 01.7.63q.4 1.85 1.94 2.67a1.16 1.14-45.5 001.1-.02c8.49-4.98 5.62-15.08 2.4-22.46q-2.32-5.33-4.84-14.77-.13-.48-.26 0-2.1 7.93-5.12 15.54c-2.4 6.05-6.15 18.21.33 22.2a.41.41 0 00.63-.29l.42-3.1a.71.7-83 01.78-.61"/><path stroke="#4b4c4d" vector-effect="non-scaling-stroke" d="M496.71 228.5c.81-13.96-.15-25.99 1.08-39"/><path stroke="#5d5e5e" vector-effect="non-scaling-stroke" d="M497.79 189.5q.92-.82 2-.43a1.23 1.21-.4 01.72.7q.18.5.73.56a.55.54 7.7 00.6-.45q.57-3.77-.22-9.19-1.02-6.94-.18-13.92a.29.29 0 00-.42-.3c-6.53 3.33-18.25 7.43-23.75.15a.4.4 0 01.17-.61c3.69-1.49 6.22.19 9.63-.13q4.55-.42 9.08-1.37a.27.27 0 00.03-.52l-5.09-1.78a.62.61-77.7 00-.82.53q-.22 2.72-2.98 1.73a.99.96 4.9 01-.64-.74l-.18-.9a.62.62 0 00-.57-.5c-3.25-.2-11.32-.94-12.44 2.41q-.98 2.95-1.44 14.21a.94.92-71.1 00.38.79q3.13 2.26 3.05 6.57-.46 25.99-.8 52.08a2.14 2.14 0 001.69 2.12q9.63 2.1 19.43.85a1.08 1.08 0 00.94-1.07V228.5"/><path stroke="#121211" vector-effect="non-scaling-stroke" d="M497.79 189.5q-.2-.57-.66-.58a.69.68-81.8 00-.67.51c-.25.95-.59 2.07-.57 3.07q.45 17.39-.77 34.74-.04.65.62 1.86a.33.33 0 00.56.02l.41-.62"/><path stroke="#929190" vector-effect="non-scaling-stroke" d="M129.79 143.75q.02.97-.15 1.42c-3.05 8.29-15.66 32.4-2.11 36.72a.58.57-68 00.7-.3c.82-1.67 2.23-4.32 4.24-2.52a.9.9 0 01.29.82l-.3 1.86a.91.9 76.4 001.43.88c2.76-2.05 4.09-3.3 4.24-6.98.39-10.22-5.22-20.08-7.67-31.9"/><path stroke="#5d5e5e" vector-effect="non-scaling-stroke" d="M130.46 143.75q.24-1.14-.21-2.07-.32-.68-.36.08l-.1 1.99"/><path stroke="#cbcccd" vector-effect="non-scaling-stroke" d="M130.46 143.75h-.67"/><path stroke="#929190" vector-effect="non-scaling-stroke" d="M145.85 208.55l1.1-.43a.96.95-7.4 00.6-.77c.55-3.89-1.07-6.66-1.01-10.27q.05-2.61-.21-4.68a1.97 1.95-1.1 00-1.78-1.7l-11.17-.96a.71.7-80.7 00-.75.55l-.26 1.07a.8.8 0 01-.87.62l-1.23-.15a.86.85 3 01-.77-.85v-.6a.51.51 0 00-.6-.5l-6.87 1.26q-.79.15-.03.4 7.65 2.61 15.77 1.81 2-.2 3.42.27a1.16 1.16 0 01.25 2.07c-6.99 4.47-16.01 2.07-22.5-1.97a.56.56 0 00-.85.5q.51 9.83-2.18 19.51-.46 1.68 1.09 4.49a.48.47-34.7 00.73.13l1.49-1.28a1.12 1.12 0 011.85.86l-.29 50.22a.54.53-85.6 00.45.53q10.5 1.63 21.06-.11a.89.89 0 00.71-.66q.35-1.46.44-4.66.7-25.95.56-51.97-.01-1.99 1.85-2.73"/><path stroke="#5d5e5e" vector-effect="non-scaling-stroke" d="M480.95 181.85c-.64 4.4-4.76 12.44-2.65 16.2 2.08 3.72 8.63 2.66 7.85-1.89q-.09-.47-.46-.16l-1.71 1.43a.65.65 0 01-.89-.06c-2.5-2.69-.44-4.12-.02-6.45.29-1.55.63-9.11-1.17-9.67a.74.73-77 00-.95.6"/><path stroke="gray" vector-effect="non-scaling-stroke" d="M136.75 222.26c1.13 4.04-2.37 2.46-4.08 1.9a.31.31 0 00-.4.35c1.32 6.98 9.73 3.66 7.93-3.26q-1.52-5.82-2.56-11.34a.85.85 0 00-1.68.05q-.87 6.42.79 12.3"/><path stroke="#5d5e5e" vector-effect="non-scaling-stroke" d="M182.08 390.85l2.05.04a.88.87-13.2 01.76.47l1.48 2.79a.42.41 53.6 00.66.11c1.28-1.26 2.98-1.47 3.98-2.61 6.25-7.14-3.55-26.11-5.96-33.74q-.15-.47-.25.01-.86 4.27-1.56 5.82c-3.16 6.98-11.28 25.59-3.24 31a.42.42 0 00.64-.25l.79-3.14a.66.65 7.1 01.65-.5M193.56 429.1q1.26-.25 1.67 1 .2.62.61.11c1.76-2.2.46-7.5-.33-10.48q-.74-2.79-.32-13.23.02-.5-.36-.18c-4.03 3.28-9.47 3.76-14.78 3.94-2.59.08-4.78-.98-7.16-1.86a.89.89 0 01-.58-.89l.1-1.89a.75.74 2.7 01.78-.7l8.08.36a.58.58 0 00.6-.62c-.24-3.45-11.63-2.22-13.5-.04a1.45 1.39-24.3 00-.35.87q-.2 5.85-1.35 11.64c-.4 2.01.38 3.04 2.17 3.69a.85.85 0 01.56.65q.46 2.49.43 5.03-.26 24.07-.59 48.14c-.02 1.35.43 2.98.32 4.38a1.57 1.57 0 001.3 1.67q10.06 1.64 20.13.21a.59.59 0 00.5-.58q-.1-18.05.94-46.87.09-2.48.51-3.79a.83.8-86.1 01.62-.56"/><path stroke="#4b4c4d" vector-effect="non-scaling-stroke" d="M184.05 404.56a.34.34 0 00.25.59l4.74-.4a.34.34 0 00.14-.62l-2.51-1.52a.34.34 0 00-.39.03l-2.23 1.92"/><path stroke="#929190" vector-effect="non-scaling-stroke" d="M422.25 422.21c-2.81 6.33-5.55 18.59 4.11 20.7a.75.74 21.3 00.79-.34l1.58-2.64a.77.76 32.2 011.08-.24l1.16.77a.69.68-62.3 01.26.84q-.52 1.2-.11 2.49a.51.51 0 00.64.34c8.79-2.65 4.41-17.31 1.94-23.25q-3.22-7.75-4.55-16.12a.2.2 0 00-.38-.03q-2.75 8.97-6.52 17.48M418.8 478.17q.67 2.34.61 6.08-.37 21.62-.44 43.99-.01 1.78 1.75 2.06c5.11.81 14.55 1.35 19.79-.61a1.08 1.06-1.4 00.64-.66q.38-1.1.4-2.28.42-25.03 1.04-50.07c.08-3.15-1.08-6.21 2.93-7.42a.81.81 0 00.57-.63q.44-2.15.18-3.14-1.48-5.61-1.53-11.44c-.04-3.76-10.82-2.86-12.78-2.75a1.23 1.22-71.3 00-.86.43l-1.68 1.99q-.53.63-.79-.16l-.53-1.59a.79.78-11.2 00-.81-.54l-6.22.55a.56.56 0 00-.1 1.1q8.11 2.25 15.79 1.64 1.77-.15 2.96.52a.49.49 0 01.17.7c-4.42 6.67-17.03 2.22-22.28-1.14a.67.67 0 00-1.03.59q.43 9-1.82 18.1-.68 2.77.91 5.85a.39.39 0 00.6.11l1.71-1.51a.51.5-29 01.82.23"/><path stroke="#5d5e5e" vector-effect="non-scaling-stroke" d="M172.62 437.06c.94 6.04 9.4 2.97 8.1-.17a.48.48 0 00-.55-.29l-2.09.44a1.36 1.36 0 01-1.55-1.81c1.09-2.89 3.05-12.08.36-14.26a.63.62 25.2 00-1.01.36q-.5 2.53-1.07 4.93c-.73 3.12-2.88 6.39-2.19 10.8"/><path stroke="gray" vector-effect="non-scaling-stroke" d="M431.01 485.4c-.94 3.55 4.15 5.57 6.48 2.87 2.9-3.37-.66-13.15-1.16-17.39a.66.65 48.4 00-1.29-.08q-1.54 6.54.34 12.31c.63 1.94-.1 3.41-2.14 3.63a.77.75-19.1 01-.72-.34l-.75-1.13q-.52-.79-.76.13"/><path stroke="#242321" vector-effect="non-scaling-stroke" d="M312.25 590.79l-.06.21"/></g><path d="M0 0h590.06l.23 4v1l-.03 584.57a.67.67 0 01-.67.67q-292.4.02-584.9-.04-2.37 0-4.69-.26V0zm585.5 5.52a.26.26 0 00-.26-.26H5.5a.26.26 0 00-.26.26v579.72a.26.26 0 00.26.26h579.74a.26.26 0 00.26-.26V5.52z"/><path fill="#96989a" d="M590.06 0h.75q.25 2.1-.52 4l-.23-4z"/><path fill="#242321" d="M590.81 0h.19v590.31c-.83-.45-.25-535.49-.25-585.1a.22.21 1.4 00-.21-.21h-.25V4q.77-1.9.52-4z"/><path fill="#96989a" d="M590.29 5h.25a.22.21 1.4 01.21.21c0 49.61-.58 584.65.25 585.1v.69h-1.06q-5.13-.63-10.25 0h-18.75q-3.38-.63-6.75 0h-16q-4.5-.63-9 0h-.25q-8.5-.63-17 0h-24q-6.63-.63-13.25 0h-34.75q-15.38-.63-30.75 0h-.25q-7.38-.63-14.75 0h-.25q-7.88-.63-15.75 0h-10.25q-10.88-.63-21.75 0h-9.25l-24.69-.21-15.06.21h-.25q-10.38-.63-20.75 0h-26.25q-24.88-.63-49.75 0h-7.25q-3.38-.63-6.75 0h-3.25q-5.38-.63-10.75 0h-59q-4-.63-8 0h-8.25q-7.38-.63-14.75 0h-1.25q-24.13-.63-48.25 0h-1.75c-6.12-.18-29.78.33-30.94-.56v-.5q2.32.26 4.69.26 292.5.06 584.9.04a.67.67 0 00.67-.67L590.29 5z"/><path fill="#fdfcde" d="M585.5 585.24a.26.26 0 01-.26.26H5.5a.26.26 0 01-.26-.26V5.52a.26.26 0 01.26-.26h579.74a.26.26 0 01.26.26v579.72zM89.93 35.17c2.93-2.89 7.04-6.5 10.29-10.44a1.4 1.4 0 00-1.05-2.29q-18.51-.32-37.73-.2-10.45.06-14.16 1.5c-10.62 4.13-11.95 17.89-11.77 28.17.19 11.09.03 22.15-.05 33.14a1.17 1.17 0 001.97.86q26.76-25.3 52.5-50.74zm268.82 498.12q3.11-5.76 3.21-12.05c.09-5.71.79-11.71.87-16.66.48-29.18 1.63-56.31-2.62-87.08-.43-8.59-1.14-17.08-.83-25.67.82-23.13 3.47-47.22-2.93-69.82a.85.84-29.8 01.23-.83q11.58-11.06 19.06-24.97c5.16-9.62 9.18-22.74 13.1-34.13 1.44-4.18 2.28-7.87.82-12.32q-1.89-5.73-3.57-11.52c-.68-2.32-2.4-4.77-2.68-7.76a1.64 1.62 58.3 01.23-1q4.6-7.59 2.86-16.34a.99.99 0 01.39-.99q3.79-2.78 6.05-6.9a.82.81 41.8 00-.05-.87q-2.07-2.97-5.94-6.34c-16.62-14.46-32.86-20.55-52.76-28.02a1.54 1.53 21.7 01-.88-2.04c2.83-6.69 4.64-10.19 3.97-18.09-1.62-19.16-9.89-41.49-24.14-55.01q-2.91-2.75-6.62-3.16a1.68 1.61 32.6 00-.95.19q-5.48 3-8.81 6.88-21.1 24.6-24.42 57.61c-.38 3.76 2.99 8.85 4.71 12.15a.42.41 67.3 01-.24.59c-11.44 3.73-26.12 6.91-35.29 14.13-8.71 6.86-17.87 10.91-25.23 18.94a.94.93-41.5 00-.08 1.17l6.51 9.29a1.22 1.21-54.2 01.16 1.02c-2.77 9.45-8.03 16.66-8.06 25.56q-.03 13.21 1.47 26.32c.28 2.49 1.16 4.12 2.37 6.26 8.2 14.5 17.32 27.22 29.21 38.55a.94.93 27.4 01.27.84q-3.6 19.1-6.48 38.32-.43 2.9-.52 5.45c-.58 15.88.08 31.83.56 47.69.35 11.51-.26 21.67-.44 34.65q-.16 12.1-2 27.92-2.3 19.71-1.43 33.19 1.07 16.73.94 23.75-.05 2.65 1.65 10.56a1.58 1.56 16.2 00.46.82q8.37 7.85 18.76 12.17c9.68 4.02 20.26 4.65 31.36 5.22 10.43.53 39.13 2.97 44.74-1.7q6.78-5.64 16.07-9.41 4.53-1.84 6.94-6.56zm125.49-373.95a.31.31 0 01-.17.58c-4.04-.52-10.89-.6-13.76 2.9-2.04 2.5-2.82 10.26-3.93 13.82-1.33 4.3 1.13 5.65 3.67 8.31a1.22 1.21-66.4 01.33.86q-.34 25.12-.57 50.24c-.02 2.76-.58 7.12 2.68 7.99 9.08 2.41 19.09 3.67 27.53.36a1.25 1.21-87.8 00.68-.65q1.16-2.58 1.22-6.01.33-21.41.21-42.84c-.01-.75.18-1.03.95-.8a.91.9-56.1 00.82-.17q4.18-3.5 3.36-8.22-1.97-11.39-1.91-19.28c.05-7.98-10.59-4.69-14.47-7.16q-.43-.28.08-.34c19.43-2.28 8.11-26.78 4.68-36.86-1.98-5.82-2.69-11.68-3.57-17.73a.38.38 0 00-.72-.11q-2.44 4.93-4.11 10.34c-1.77 5.75-5.22 11.07-7 16.32-2.89 8.58-6.42 23.48 4 28.45zm-122.33-36.17a.47.46 8.6 00.38.51q2.96.56 5.44-.95a.38.37-34.9 00.1-.54c-.12-.15-3.49.65-4.67.19-.82-.32-1.16-.02-1.25.79zm-229.48 63.39c16.97-.14 8.01-27.37 4.39-35.06q-3.66-7.77-5.65-16.18-.28-1.19-1.7-3.63-.26-.43-.38.06c-1.25 4.89-1.72 9.98-3.22 14.55-3.66 11.14-17.5 36.46 2.9 40.46a.36.36 0 01.23.55q-.39.58-.99.53-6.65-.46-12.22 1.85a1.91 1.91 0 00-1.17 1.65q-.66 10.89-2.89 21.5c-.91 4.29.7 7.3 4.24 9.44a.85.84 17.2 01.4.75q-1.23 22.55-.8 45.15c.14 7.48 16.85 5.88 21.37 5.74q4.25-.12 9.83-2.74a1.03 1.01 84.2 00.57-.71c.81-3.46.52-7.05.6-9.99q.65-23.7.59-47.41a.85.83 75.3 01.42-.73q4.71-2.63 3.26-8.34c-.88-3.47-1.34-14.32-5.95-15.48q-5.86-1.46-13.48-1.29a.42.41 65.7 01-.28-.11l-.21-.2q-.37-.35.14-.36zm398.953 54.355a1.01.76 67.7 00.32-1.223 1.01.76 67.7 00-1.086-.647 1.01.76 67.7 00-.32 1.223 1.01.76 67.7 001.086.647zM178.11 399.43c-13.5-.97-13.94 4.71-17.09 15.33-1.34 4.53-.49 7.85 3.71 9.95a.8.8 0 01.45.72c.26 18.96-.87 38.32.17 57.2a.82.79-80.8 00.49.7c6.3 2.61 30.66 7.87 31.05-3.66q.74-22.06.27-37.86-.13-4.13.16-6.41a1.66 1.6-21.8 01.39-.87c1.72-1.92 4.93-4.47 4.35-7.29q-2.41-11.63-2.47-23.54a1.9 1.89-80.6 00-1.27-1.78q-4.89-1.71-10.24-1.47-1.3.05-2.5-.89-.41-.32.1-.41c18.36-3.11 8.57-26.98 4.32-37.69q-3.25-8.17-3.29-17.04a.46.45 57.2 00-.87-.19c-2.85 6.26-4.82 12.94-7.55 19.14-1.9 4.3-4.77 10.31-4.83 15.01a.76.73-22.2 01-.22.5c-1.39 1.33-.89 12.51-.88 12.55q.95 5.36 5.9 7.32a.35.35 0 01-.15.68zm249.67 48.95c-.03 2.01-14.54-2.3-14.69 6.37q-.15 8.75-2.79 19.26c-1.06 4.25.89 7.38 4.54 9.32a.76.75 15.9 01.41.73q-1.45 20.27-.96 40.63c.12 4.9-1.33 8.9 5.45 10.13q11.93 2.16 23.52-1.31 3.33-1 3.43-4.82.68-27.04.8-54.13a.94.94 0 01.43-.77c3.13-1.98 3.55-4.38 2.96-8.1-.79-5-.71-14.82-6.88-16.18q-4.68-1.03-12.68-.68a.3.29-89.9 01-.31-.32c.03-.35.25-.43.59-.47 13.41-1.5 8.41-20.77 6.47-28.64-1.02-4.12-3.15-7.89-4.9-11.88-1.8-4.09-2.82-9.64-5.18-14.3q-.22-.45-.29.05-1.73 12.15-3.63 16.5c-4.44 10.18-16.47 35.01 3.42 38.26a.35.34 5.7 01.29.35z"/><path fill="#fae1a6" d="M89.93 35.17q-25.74 25.44-52.5 50.74a1.17 1.17 0 01-1.97-.86c.08-10.99.24-22.05.05-33.14-.18-10.28 1.15-24.04 11.77-28.17q3.71-1.44 14.16-1.5 19.22-.12 37.73.2a1.4 1.4 0 011.05 2.29c-3.25 3.94-7.36 7.55-10.29 10.44z"/><path fill="#242321" d="M360.21 417.5q-2.39 2.79-.61 5.85.25.43.28.92c.75 11.69 2.11 23.61 2.1 35.01q-.01 17.02-.34 22.28c-.71 11.23-.25 22.46-1.21 33.64-.46 5.42.27 10.45-2.22 16.51q-.44 1.08.54 1.58-2.41 4.72-6.94 6.56-9.29 3.77-16.07 9.41c-5.61 4.67-34.31 2.23-44.74 1.7-11.1-.57-21.68-1.2-31.36-5.22q-10.39-4.32-18.76-12.17a1.58 1.56 16.2 01-.46-.82q-1.7-7.91-1.65-10.56.13-7.02-.94-23.75-.87-13.48 1.43-33.19 1.84-15.82 2-27.92c.18-12.98.79-23.14.44-34.65-.48-15.86-1.14-31.81-.56-47.69q.09-2.55.52-5.45 2.88-19.22 6.48-38.32a.94.93 27.4 00-.27-.84c-11.89-11.33-21.01-24.05-29.21-38.55-1.21-2.14-2.09-3.77-2.37-6.26q-1.5-13.11-1.47-26.32c.03-8.9 5.29-16.11 8.06-25.56a1.22 1.21-54.2 00-.16-1.02l-6.51-9.29a.94.93-41.5 01.08-1.17c7.36-8.03 16.52-12.08 25.23-18.94 9.17-7.22 23.85-10.4 35.29-14.13a.42.41 67.3 00.24-.59c-1.72-3.3-5.09-8.39-4.71-12.15q3.32-33.01 24.42-57.61 3.33-3.88 8.81-6.88a1.68 1.61 32.6 01.95-.19q3.71.41 6.62 3.16c14.25 13.52 22.52 35.85 24.14 55.01.67 7.9-1.14 11.4-3.97 18.09a1.54 1.53 21.7 00.88 2.04c19.9 7.47 36.14 13.56 52.76 28.02q3.87 3.37 5.94 6.34a.82.81 41.8 01.05.87q-2.26 4.12-6.05 6.9a.99.99 0 00-.39.99q1.74 8.75-2.86 16.34a1.64 1.62 58.3 00-.23 1c.28 2.99 2 5.44 2.68 7.76q1.68 5.79 3.57 11.52c1.46 4.45.62 8.14-.82 12.32-3.92 11.39-7.94 24.51-13.1 34.13q-7.48 13.91-19.06 24.97a.85.84-29.8 00-.23.83c6.4 22.6 3.75 46.69 2.93 69.82-.31 8.59.4 17.08.83 25.67zm-52.75-241.75l-3.13 4.9a1.51 1.46 60.7 00-.24.91l.2 3.69-.25 2 .25 1q-.4 2.17-.47 6.51-.35 21.26-.36 42.57a.44.43-4 00.5.43c11.02-1.59 22.53-1.05 32.78-.55 7.08.34 16.67-.39 22.19-5.21 9.97-8.71 19.67-16.66 28.53-26.36a.6.6 0 000-.81c-12.97-13.74-31.75-23.52-49.71-28.87l-7.24-4.48a.54.53 36.8 00-.66.09l-5.18 5.47a.8.79-30.2 00-.2.75c.45 1.85-13.4 8.81-15.71 4.38a.91.91 0 01.02-.89c2.83-4.94 11.24-5.16 15.59-9.66q2.77-2.87 5.22-6.04c4.89-6.3 4.92-16.28 2.7-23.58-3.59-17.16-8.92-30.32-19.97-43.82q-2.29-2.79-6.4-3.23a.1.09 8.3 00-.09.06l-.09.27a.33.33 0 00.26.42q2.2.43 3.25 2.78c2.06 4.63 6.56 10.56 8.53 15.62 3.4 8.71 2.89 15.58 2.19 26.24-.88 13.38-3.83 21.54-11.65 33.22q-.42.64-.86 2.19zm-4.14-73.55c-4.27 4.78-6.02 9.74-9.07 15.55-6.02 11.43-5.1 26.4-.98 38.5 1.68 4.92 4.67 13.79 8.89 19.07a.82.81 37.1 001.39-.19c2.01-4.75 5.59-9.23 7.27-13.04 4.56-10.31 5.36-22.91 5.49-33.65.1-8.25-5.13-21.2-11.67-26.36a.97.96-49.9 00-1.32.12zm-23.99 68.83a1.22 1.2 40 00.09.93c3.72 7.04 10.11 8.29 17.36 9.16a.53.53 0 00.38-.95q-7.88-5.83-15.98-10.27-1.28-.7-1.85 1.13zm43.26 6.55c-2.24 1.32-5.24 2.7-6.32 2.72q-2.36.03-4.13 1.52-.41.35.09.16c.81-.3 11.98-2.49 10.74-4.32a.28.28 0 00-.38-.08zM353 245.96l-4.84 6.21a.93.93 0 00-.13.92l.91 2.24a1.58 1.57-51.9 01.1.85q-.6 3.83-3.33 6.57c-6.37-1.83-13.17-.15-19.71 1.12a1.24 1.23 66.5 00-.76 1.94c.9 1.25 2.61 4.87.66 6.2a.6.59-29.3 00-.21.72l1.85 4.52c.87 4.5 3.68 7.67 5.36 11.38.68 1.49 7.36 12.41 7.34 12.47a.37.37 0 01-.57.15l-7.61-5.87c-6.15-5.77-9.18-13.29-11.85-21.13q.26-1.99 2.04-2.79 1.43.51 2.25-.28.39-.38-.13-.52c-2.11-.61-5.18-4.57-6.7-6.2a.34.34 0 00-.54.05l-.15.25a.52.52 0 00.14.69q2.41 1.67 2.59 4.55-1.22.39-2.21-.46l-5.25-3.51q-.53-.35-.21.19c1.25 2.18 3.04 3.89 3.9 6.14q3.12 8.21 4.56 16.99a.32.32 0 01-.62.16c-2.81-8.21-6.06-18.13-13.23-23.72a.43.43 0 00-.69.3l-.42 3.91-.51-3.25a.3.3 0 00-.34-.25l-.3.05a.48.47-4.2 00-.41.47c.1 12.9.02 23.45-.76 38.43-.44 8.51.17 17.08-.76 25.55q-20.14-1.42-37.66-11.21l-9.77-5.4a.87.86-66.3 00-1.24.49c-1.97 6.13-3.5 12-4.48 18.61-1.39 9.34-3.68 19.84-3.32 29.26q1.43 38.12.34 76.26-.2 6.95-1.43 16.42-4.82 37.13-1.2 74.54a1.38 1.31 19.9 00.42.84c8.29 7.82 19.44 13.78 30.88 14.93q11.1 1.12 23.44 1.61a1.23 1.23 0 001.28-1.23c.02-22.02.71-44.27.73-66.44q.03-31.45.8-62.89.55-3.93.5-6.79-.44-25.51.54-51 1.69-.13 1.53-2.02c-.69-8.31 0-16.28-.18-24.55q-.05-2.13.65-4.18 6.5.08 12.99-1.17 10.45-.82 20.58-3.8c5.77-1.7 11.49-2.71 16.09-6.85 14.42-13 22.59-32.37 27.37-50.87 1.06-4.14 3.56-8.41 3.64-13.44q.06-3.44-2.26-9.85-3.09-8.54-5.74-17.22a.86.85-29.7 01.25-.9l.52-.46q.52-.46.63.23l.43 2.96q.22 1.54.84.12 1.54-3.56 1.36-7.47-.03-.52-.44-.2c-8.96 6.99-16.42 13.89-26.82 20.74a1.34 1.33 81.8 00-.56.75q-.76 2.52-.17 5.14zm-109.74 11.33q-9.47 2.93-19.35 3.35a.4.4 0 00-.1.78c8.94 2.5 14.59 1.28 23.07-1.76a.47.47 0 01.52.75q-4.07 4.89-.93 10.55a.33.32 32.8 00.61-.13q.62-7.85 7.37-11.78 1.06-.62-.16-.7l-2.08-.14q-.64-.04-.21-.51l1.07-1.17a.52.52 0 00-.2-.84q-.8-.28-.37-1.16a1.87 1.84 55.1 00.18-1.06l-.87-6.77q-.06-.48-.36-.88-4.71-6.24-10.13-11.88-1.48-1.54-1.53-4.88a.98.98 0 01.4-.81c1.51-1.1 4.58-.71 4.91-1.01a.15.15 0 00-.03-.24l-6.32-3.22a1.64 1.64 0 00-2.36 1.73c1.24 7.46 6.98 14.7 11.84 20.27q.9 1.05 2.1 4.28a.35.35 0 01-.32.48q-11.52.31-22.02-4.33-.58-.26-.34.33c1.05 2.56 7.63 5.6 9.87 6.57a.47.47 0 01-.24.9c-1.73-.18-17.97-1.07-16.96 2.2a.49.48-19.1 00.65.31c4.65-1.85 14.36-.08 22.27.63q.36.03.02.14zm-1.92-14.98q-7.73-5.71-15.2-8.56c-1.78-.68-3.49-.56-5.36-.47a.6.6 0 00-.55.75l.28 1.04a.84.82-5.6 00.77.62q1.22.06 2.37.49 9.04 3.4 17.27 6.86a.43.42-15.2 00.42-.73zm62.24 20.48q1.5.36 1.55-1.86.19-9.18.41-18.44a1.77 1.77 0 00-.93-1.59q-.27-.15-.82.35 0-.18-.11-.42a.69.69 0 00-.67-.4q-7.92.4-15.84 1.02c-11.05.85-19.04-1.56-29.2-6.49-1.22-.59-2.81-.54-4.21-1.22a.3.3 0 00-.43.27c.04 3.88 1.04 7.9 1.3 11.34q.39 5.35 1.04 10.6a.5.5 0 00.55.44q5.16-.46 9.13 2.56c2.2 1.67 4.06 2.52 6.51 1.81 3.9-1.13 7.65-1.63 11.68-2.09 4.88-.57 7.36 2.78 11.8 3.32q4.05.49 8.24.8z"/><path fill="#fff" d="M332.29 142c-.56 5.84-4.04 21.82-9.73 24.7-5.54 2.8-10.33 3.13-13.65 9.05a.95.94 24.6 01-1.15.42q-.15-.05-.3-.42.44-1.55.86-2.19c7.82-11.68 10.77-19.84 11.65-33.22.7-10.66 1.21-17.53-2.19-26.24-1.97-5.06-6.47-10.99-8.53-15.62q-1.05-2.35-3.25-2.78a.33.33 0 01-.26-.42l.09-.27a.1.09 8.3 01.09-.06q4.11.44 6.4 3.23c11.05 13.5 16.38 26.66 19.97 43.82z"/><path fill="#96989a" d="M303.32 102.2a.97.96-49.9 011.32-.12c6.54 5.16 11.77 18.11 11.67 26.36-.13 10.74-.93 23.34-5.49 33.65-1.68 3.81-5.26 8.29-7.27 13.04a.82.81 37.1 01-1.39.19c-4.22-5.28-7.21-14.15-8.89-19.07-4.12-12.1-5.04-27.07.98-38.5 3.05-5.81 4.8-10.77 9.07-15.55zM484.24 159.34c-10.42-4.97-6.89-19.87-4-28.45 1.78-5.25 5.23-10.57 7-16.32q1.67-5.41 4.11-10.34a.38.38 0 01.72.11c.88 6.05 1.59 11.91 3.57 17.73 3.43 10.08 14.75 34.58-4.68 36.86q-.51.06-.08.34c3.88 2.47 14.52-.82 14.47 7.16q-.06 7.89 1.91 19.28.82 4.72-3.36 8.22a.91.9-56.1 01-.82.17c-.77-.23-.96.05-.95.8q.12 21.43-.21 42.84-.06 3.43-1.22 6.01a1.25 1.21-87.8 01-.68.65c-8.44 3.31-18.45 2.05-27.53-.36-3.26-.87-2.7-5.23-2.68-7.99q.23-25.12.57-50.24a1.22 1.21-66.4 00-.33-.86c-2.54-2.66-5-4.01-3.67-8.31 1.11-3.56 1.89-11.32 3.93-13.82 2.87-3.5 9.72-3.42 13.76-2.9a.31.31 0 00.17-.58zm3.16-8.85l1.92.21a.82.8 86.4 01.7.63q.4 1.85 1.94 2.67a1.16 1.14-45.5 001.1-.02c8.49-4.98 5.62-15.08 2.4-22.46q-2.32-5.33-4.84-14.77-.13-.48-.26 0-2.1 7.93-5.12 15.54c-2.4 6.05-6.15 18.21.33 22.2a.41.41 0 00.63-.29l.42-3.1a.71.7-83 01.78-.61zm9.31 78.01c.81-13.96-.15-25.99 1.08-39q.92-.82 2-.43a1.23 1.21-.4 01.72.7q.18.5.73.56a.55.54 7.7 00.6-.45q.57-3.77-.22-9.19-1.02-6.94-.18-13.92a.29.29 0 00-.42-.3c-6.53 3.33-18.25 7.43-23.75.15a.4.4 0 01.17-.61c3.69-1.49 6.22.19 9.63-.13q4.55-.42 9.08-1.37a.27.27 0 00.03-.52l-5.09-1.78a.62.61-77.7 00-.82.53q-.22 2.72-2.98 1.73a.99.96 4.9 01-.64-.74l-.18-.9a.62.62 0 00-.57-.5c-3.25-.2-11.32-.94-12.44 2.41q-.98 2.95-1.44 14.21a.94.92-71.1 00.38.79q3.13 2.26 3.05 6.57-.46 25.99-.8 52.08a2.14 2.14 0 001.69 2.12q9.63 2.1 19.43.85a1.08 1.08 0 00.94-1.07V228.5z"/><path fill="#242321" d="M486.62 151.1l-.42 3.1a.41.41 0 01-.63.29c-6.48-3.99-2.73-16.15-.33-22.2q3.02-7.61 5.12-15.54.13-.48.26 0 2.52 9.44 4.84 14.77c3.22 7.38 6.09 17.48-2.4 22.46a1.16 1.14-45.5 01-1.1.02q-1.54-.82-1.94-2.67a.82.8 86.4 00-.7-.63l-1.92-.21a.71.7-83 00-.78.61z"/><path fill="#fae1a6" d="M361.91 123.17c.09-.81.43-1.11 1.25-.79 1.18.46 4.55-.34 4.67-.19a.38.37-34.9 01-.1.54q-2.48 1.51-5.44.95a.47.46 8.6 01-.38-.51z"/><path fill="#242321" d="M132.29 186.92l.21.2a.42.41 65.7 00.28.11q7.62-.17 13.48 1.29c4.61 1.16 5.07 12.01 5.95 15.48q1.45 5.71-3.26 8.34a.85.83 75.3 00-.42.73q.06 23.71-.59 47.41c-.08 2.94.21 6.53-.6 9.99a1.03 1.01 84.2 01-.57.71q-5.58 2.62-9.83 2.74c-4.52.14-21.23 1.74-21.37-5.74q-.43-22.6.8-45.15a.85.84 17.2 00-.4-.75c-3.54-2.14-5.15-5.15-4.24-9.44q2.23-10.61 2.89-21.5a1.91 1.91 0 011.17-1.65q5.57-2.31 12.22-1.85.6.05.99-.53a.36.36 0 00-.23-.55c-20.4-4-6.56-29.32-2.9-40.46 1.5-4.57 1.97-9.66 3.22-14.55q.12-.49.38-.06 1.42 2.44 1.7 3.63 1.99 8.41 5.65 16.18c3.62 7.69 12.58 34.92-4.39 35.06q-.51.01-.14.36zm-2.5-43.17q.02.97-.15 1.42c-3.05 8.29-15.66 32.4-2.11 36.72a.58.57-68 00.7-.3c.82-1.67 2.23-4.32 4.24-2.52a.9.9 0 01.29.82l-.3 1.86a.91.9 76.4 001.43.88c2.76-2.05 4.09-3.3 4.24-6.98.39-10.22-5.22-20.08-7.67-31.9q.24-1.14-.21-2.07-.32-.68-.36.08l-.1 1.99zm16.06 64.8l1.1-.43a.96.95-7.4 00.6-.77c.55-3.89-1.07-6.66-1.01-10.27q.05-2.61-.21-4.68a1.97 1.95-1.1 00-1.78-1.7l-11.17-.96a.71.7-80.7 00-.75.55l-.26 1.07a.8.8 0 01-.87.62l-1.23-.15a.86.85 3 01-.77-.85v-.6a.51.51 0 00-.6-.5l-6.87 1.26q-.79.15-.03.4 7.65 2.61 15.77 1.81 2-.2 3.42.27a1.16 1.16 0 01.25 2.07c-6.99 4.47-16.01 2.07-22.5-1.97a.56.56 0 00-.85.5q.51 9.83-2.18 19.51-.46 1.68 1.09 4.49a.48.47-34.7 00.73.13l1.49-1.28a1.12 1.12 0 011.85.86l-.29 50.22a.54.53-85.6 00.45.53q10.5 1.63 21.06-.11a.89.89 0 00.71-.66q.35-1.46.44-4.66.7-25.95.56-51.97-.01-1.99 1.85-2.73z"/><path fill="#96989a" d="M130.46 143.75h-.67l.1-1.99q.04-.76.36-.08.45.93.21 2.07zM332.29 142c2.22 7.3 2.19 17.28-2.7 23.58q-2.45 3.17-5.22 6.04c-4.35 4.5-12.76 4.72-15.59 9.66a.91.91 0 00-.02.89c2.31 4.43 16.16-2.53 15.71-4.38a.8.79-30.2 01.2-.75l5.18-5.47a.54.53 36.8 01.66-.09l7.24 4.48-19.69 14.82a.16.16 0 01-.24-.07l-.09-.26a.2.19-37.9 01.03-.19l2.79-3.81q.67-.92-.44-.67-7.89 1.77-15.82 2.47l-.25-1q.2.21.4.23a.46.45-82.1 00.5-.38l.28-1.82q.09-.61-.44-.31l-.49.28-.2-3.69a1.51 1.46 60.7 01.24-.91l3.13-4.9q.15.37.3.42a.95.94 24.6 001.15-.42c3.32-5.92 8.11-6.25 13.65-9.05 5.69-2.88 9.17-18.86 9.73-24.7z"/><path fill="#fff" d="M129.79 143.75h.67c2.45 11.82 8.06 21.68 7.67 31.9-.15 3.68-1.48 4.93-4.24 6.98a.91.9 76.4 01-1.43-.88l.3-1.86a.9.9 0 00-.29-.82c-2.01-1.8-3.42.85-4.24 2.52a.58.57-68 01-.7.3c-13.55-4.32-.94-28.43 2.11-36.72q.17-.45.15-1.42z"/><path fill="#242321" d="M497.79 189.5q-.2-.57-.66-.58a.69.68-81.8 00-.67.51c-.25.95-.59 2.07-.57 3.07q.45 17.39-.77 34.74-.04.65.62 1.86a.33.33 0 00.56.02l.41-.62v11.79a1.08 1.08 0 01-.94 1.07q-9.8 1.25-19.43-.85a2.14 2.14 0 01-1.69-2.12q.34-26.09.8-52.08.08-4.31-3.05-6.57a.94.92-71.1 01-.38-.79q.46-11.26 1.44-14.21c1.12-3.35 9.19-2.61 12.44-2.41a.62.62 0 01.57.5l.18.9a.99.96 4.9 00.64.74q2.76.99 2.98-1.73a.62.61-77.7 01.82-.53l5.09 1.78a.27.27 0 01-.03.52q-4.53.95-9.08 1.37c-3.41.32-5.94-1.36-9.63.13a.4.4 0 00-.17.61c5.5 7.28 17.22 3.18 23.75-.15a.29.29 0 01.42.3q-.84 6.98.18 13.92.79 5.42.22 9.19a.55.54 7.7 01-.6.45q-.55-.06-.73-.56a1.23 1.21-.4 00-.72-.7q-1.08-.39-2 .43zm-16.84-7.65c-.64 4.4-4.76 12.44-2.65 16.2 2.08 3.72 8.63 2.66 7.85-1.89q-.09-.47-.46-.16l-1.71 1.43a.65.65 0 01-.89-.06c-2.5-2.69-.44-4.12-.02-6.45.29-1.55.63-9.11-1.17-9.67a.74.73-77 00-.95.6z"/><path fill="#96989a" d="M279.33 171.03q.57-1.83 1.85-1.13 8.1 4.44 15.98 10.27a.53.53 0 01-.38.95c-7.25-.87-13.64-2.12-17.36-9.16a1.22 1.2 40 01-.09-.93z"/><path fill="#fff" d="M337.75 175.96c17.96 5.35 36.74 15.13 49.71 28.87a.6.6 0 010 .81c-8.86 9.7-18.56 17.65-28.53 26.36-5.52 4.82-15.11 5.55-22.19 5.21-10.25-.5-21.76-1.04-32.78.55a.44.43-4 01-.5-.43q.01-21.31.36-42.57.07-4.34.47-6.51 7.93-.7 15.82-2.47 1.11-.25.44.67l-2.79 3.81a.2.19-37.9 00-.03.19l.09.26a.16.16 0 00.24.07l19.69-14.82z"/><path fill="#96989a" d="M316.27 180.3c1.08-.02 4.08-1.4 6.32-2.72a.28.28 0 01.38.08c1.24 1.83-9.93 4.02-10.74 4.32q-.5.19-.09-.16 1.77-1.49 4.13-1.52zM480.95 181.85a.74.73-77 01.95-.6c1.8.56 1.46 8.12 1.17 9.67-.42 2.33-2.48 3.76.02 6.45a.65.65 0 00.89.06l1.71-1.43q.37-.31.46.16c.78 4.55-5.77 5.61-7.85 1.89-2.11-3.76 2.01-11.8 2.65-16.2z"/><path fill="#fff" d="M304.04 187.25l.25-2 .49-.28q.53-.3.44.31l-.28 1.82a.46.45-82.1 01-.5.38q-.2-.02-.4-.23z"/><path d="M497.79 189.5c-1.23 13.01-.27 25.04-1.08 39l-.41.62a.33.33 0 01-.56-.02q-.66-1.21-.62-1.86 1.22-17.35.77-34.74c-.02-1 .32-2.12.57-3.07a.69.68-81.8 01.67-.51q.46.01.66.58z"/><path fill="#fff" d="M145.85 208.55q-1.86.74-1.85 2.73.14 26.02-.56 51.97-.09 3.2-.44 4.66a.89.89 0 01-.71.66q-10.56 1.74-21.06.11a.54.53-85.6 01-.45-.53l.29-50.22a1.12 1.12 0 00-1.85-.86l-1.49 1.28a.48.47-34.7 01-.73-.13q-1.55-2.81-1.09-4.49 2.69-9.68 2.18-19.51a.56.56 0 01.85-.5c6.49 4.04 15.51 6.44 22.5 1.97a1.16 1.16 0 00-.25-2.07q-1.42-.47-3.42-.27-8.12.8-15.77-1.81-.76-.25.03-.4l6.87-1.26a.51.51 0 01.6.5v.6a.86.85 3 00.77.85l1.23.15a.8.8 0 00.87-.62l.26-1.07a.71.7-80.7 01.75-.55l11.17.96a1.97 1.95-1.1 011.78 1.7q.26 2.07.21 4.68c-.06 3.61 1.56 6.38 1.01 10.27a.96.95-7.4 01-.6.77l-1.1.43zm-9.1 13.71c1.13 4.04-2.37 2.46-4.08 1.9a.31.31 0 00-.4.35c1.32 6.98 9.73 3.66 7.93-3.26q-1.52-5.82-2.56-11.34a.85.85 0 00-1.68.05q-.87 6.42.79 12.3z"/><path d="M132.67 224.16c1.71.56 5.21 2.14 4.08-1.9q-1.66-5.88-.79-12.3a.85.85 0 011.68-.05q1.04 5.52 2.56 11.34c1.8 6.92-6.61 10.24-7.93 3.26a.31.31 0 01.4-.35z"/><path fill="#96989a" d="M317.28 327.08l-12.99-.08.25-6.75q10.66-.76 20.97-3.46c6.93-1.82 13.24-2.96 10.44-11.68q-.7-2.18-3.89-9.73l7.61 5.87a.37.37 0 00.57-.15c.02-.06-6.66-10.98-7.34-12.47-1.68-3.71-4.49-6.88-5.36-11.38 6.21 8.19 8.57 17.6 18.78 23.42 8.74 4.97 16.49-1.63 16.79-10.51.14-3.9.75-5.68 4.35-7.69 14.74-8.22 14.23-29.64 11.11-44.29q-.35-1.66-2.03-.68l.12-2.25a.49.49 0 00-.93-.25q-5.85 11.63-7.78 24.5a.97.97 0 01-1.39.73l-4.99-2.44q-.61-.3-.45.36 1.49 5.86 7.59 5.6c-.63 3.29-3.47 2.79-5.96 2.96l-.24-2.37a1.69 1.65-69.1 00-.38-.88q-2.34-2.79-3.38-6.25l.75-.92c1.46.07 7.36 1.09 7.46-1.02a.44.44 0 00-.5-.46c-3.09.4-5.39-.85-8.4-1.36-1.59-.28-3.41.27-5.31-.49 1.79-2.21 13.97-1.35 14.96-5.1q2.23-8.5 6.97-15.87c.07-.12.12-.75.08-.87a.44.43-24.7 00-.64-.23q-1.12.66-2.37.82l-.04-.62q-.09-1.49-1.22-.5L353 245.96q-.59-2.62.17-5.14a1.34 1.33 81.8 01.56-.75c10.4-6.85 17.86-13.75 26.82-20.74q.41-.32.44.2.18 3.91-1.36 7.47-.62 1.42-.84-.12l-.43-2.96q-.11-.69-.63-.23l-.52.46a.86.85-29.7 00-.25.9q2.65 8.68 5.74 17.22 2.32 6.41 2.26 9.85c-.08 5.03-2.58 9.3-3.64 13.44-4.78 18.5-12.95 37.87-27.37 50.87-4.6 4.14-10.32 5.15-16.09 6.85q-10.13 2.98-20.58 3.8zM243.24 257.15c-7.91-.71-17.62-2.48-22.27-.63a.49.48-19.1 01-.65-.31c-1.01-3.27 15.23-2.38 16.96-2.2a.47.47 0 00.24-.9c-2.24-.97-8.82-4.01-9.87-6.57q-.24-.59.34-.33 10.5 4.64 22.02 4.33a.35.35 0 00.32-.48q-1.2-3.23-2.1-4.28c-4.86-5.57-10.6-12.81-11.84-20.27a1.64 1.64 0 012.36-1.73l6.32 3.22a.15.15 0 01.03.24c-.33.3-3.4-.09-4.91 1.01a.98.98 0 00-.4.81q.05 3.34 1.53 4.88 5.42 5.64 10.13 11.88.3.4.36.88l.87 6.77a1.87 1.84 55.1 01-.18 1.06q-.43.88.37 1.16a.52.52 0 01.2.84L252 257.7q-.43.47.21.51l2.08.14q1.22.08.16.7-6.75 3.93-7.37 11.78a.33.32 32.8 01-.61.13q-3.14-5.66.93-10.55a.47.47 0 00-.52-.75c-8.48 3.04-14.13 4.26-23.07 1.76a.4.4 0 01.1-.78q9.88-.42 19.35-3.35.34-.11-.02-.14z"/><path d="M371.75 231.71l-22.31 20.67a.63.63 0 00.54 1.08l2.77-.5c1.9.76 3.72.21 5.31.49 3.01.51 5.31 1.76 8.4 1.36a.44.44 0 01.5.46c-.1 2.11-6 1.09-7.46 1.02-4.36-.73-9.72-1.14-10.01 4.53a.49.49 0 00.38.5l7.38 1.63a1.08.86 10 001.28-.69q.03-.3-.78-.8l-.91-4.13 1.91-.12q1.04 3.46 3.38 6.25a1.69 1.65-69.1 01.38.88l.24 2.37h-1.25q-2.31-1.27-5-.67l-10.79-3.29q2.73-2.74 3.33-6.57a1.58 1.57-51.9 00-.1-.85l-.91-2.24a.93.93 0 01.13-.92l4.84-6.21 17.49-15.37q1.13-.99 1.22.5l.04.62z"/><path fill="#fff" d="M352.75 252.96l-2.77.5a.63.63 0 01-.54-1.08l22.31-20.67q1.25-.16 2.37-.82a.44.43-24.7 01.64.23c.04.12-.01.75-.08.87q-4.74 7.37-6.97 15.87c-.99 3.75-13.17 2.89-14.96 5.1z"/><path fill="#96989a" d="M241.34 242.31a.43.42-15.2 01-.42.73q-8.23-3.46-17.27-6.86-1.15-.43-2.37-.49a.84.82-5.6 01-.77-.62l-.28-1.04a.6.6 0 01.55-.75c1.87-.09 3.58-.21 5.36.47q7.47 2.85 15.2 8.56zM303.79 241.25l-.21 21.54q-4.19-.31-8.24-.8c-4.44-.54-6.92-3.89-11.8-3.32-4.03.46-7.78.96-11.68 2.09-2.45.71-4.31-.14-6.51-1.81q-3.97-3.02-9.13-2.56a.5.5 0 01-.55-.44q-.65-5.25-1.04-10.6c-.26-3.44-1.26-7.46-1.3-11.34a.3.3 0 01.43-.27c1.4.68 2.99.63 4.21 1.22 10.16 4.93 18.15 7.34 29.2 6.49q7.92-.62 15.84-1.02a.69.69 0 01.67.4q.11.24.11.42z"/><path d="M376.54 237.5l-2.33 8.25-5.21 17.71-.29.29q-6.1.26-7.59-5.6-.16-.66.45-.36l4.99 2.44a.97.97 0 001.39-.73q1.93-12.87 7.78-24.5a.49.49 0 01.93.25l-.12 2.25z"/><path fill="#fff" d="M327.54 277.25l-1.85-4.52a.6.59-29.3 01.21-.72c1.95-1.33.24-4.95-.66-6.2a1.24 1.23 66.5 01.76-1.94c6.54-1.27 13.34-2.95 19.71-1.12l10.79 3.29 5 .67h1.25c2.49-.17 5.33.33 5.96-2.96l.29-.29c4.23-2.34 5.51-13.74 5.21-17.71l2.33-8.25q1.68-.98 2.03.68c3.12 14.65 3.63 36.07-11.11 44.29-3.6 2.01-4.21 3.79-4.35 7.69-.3 8.88-8.05 15.48-16.79 10.51-10.21-5.82-12.57-15.23-18.78-23.42z"/><ellipse fill="#96989a" transform="rotate(67.7 86.599 515.841)" rx="1.01" ry=".76"/><path d="M303.58 262.79l.21-21.54q.55-.5.82-.35a1.77 1.77 0 01.93 1.59q-.22 9.26-.41 18.44-.05 2.22-1.55 1.86z"/><path fill="#96989a" d="M374.21 245.75c.3 3.97-.98 15.37-5.21 17.71l5.21-17.71z"/><path fill="#fff" d="M359.5 256.29l-.75.92-1.91.12q-2.96 1.33-.79 3.8a1.07 1.05-21.6 00.87.37l.83-.04q.81.5.78.8a1.08.86 10 01-1.28.69l-7.38-1.63a.49.49 0 01-.38-.5c.29-5.67 5.65-5.26 10.01-4.53z"/><path fill="#96989a" d="M356.84 257.33l.91 4.13-.83.04a1.07 1.05-21.6 01-.87-.37q-2.17-2.47.79-3.8z"/><path fill="#fff" d="M322.25 271.46l-2.54-1.46q-.18-2.88-2.59-4.55a.52.52 0 01-.14-.69l.15-.25a.34.34 0 01.54-.05c1.52 1.63 4.59 5.59 6.7 6.2q.52.14.13.52-.82.79-2.25.28zM317.5 269.54q.53 2.79 2.71 4.71c2.67 7.84 5.7 15.36 11.85 21.13q3.19 7.55 3.89 9.73c2.8 8.72-3.51 9.86-10.44 11.68q-10.31 2.7-20.97 3.46l1-50.25.42-3.91a.43.43 0 01.69-.3c7.17 5.59 10.42 15.51 13.23 23.72a.32.32 0 00.62-.16q-1.44-8.78-4.56-16.99c-.86-2.25-2.65-3.96-3.9-6.14q-.32-.54.21-.19l5.25 3.51z"/><path fill="#96989a" d="M356.5 266.04q2.69-.6 5 .67l-5-.67z"/><path d="M305.54 270l-1 50.25-.25 6.75v1.25q-.7 2.05-.65 4.18c.18 8.27-.51 16.24.18 24.55q.16 1.89-1.53 2.02l.17-28c.93-8.47.32-17.04.76-25.55.78-14.98.86-25.53.76-38.43a.48.47-4.2 01.41-.47l.3-.05a.3.3 0 01.34.25l.51 3.25z"/><path fill="#96989a" d="M317.5 269.54q.99.85 2.21.46l2.54 1.46q-1.78.8-2.04 2.79-2.18-1.92-2.71-4.71z"/><path fill="#fff" d="M264.8 319.79q-4.07.1-7.02-2.71a1.28 1.28 0 00-.88-.35c-1.81-.02-2.81.89-3.31 2.68q-2.22 7.8-3.01 15.86c-.21 2.22 1.54 6.17 2.47 8.15q16.32 34.95 38.71 64.3 3.63 4.75 9.49 9.07-.77 31.44-.8 62.89c-.02 22.17-.71 44.42-.73 66.44a1.23 1.23 0 01-1.28 1.23q-12.34-.49-23.44-1.61c-11.44-1.15-22.59-7.11-30.88-14.93a1.38 1.31 19.9 01-.42-.84q-3.62-37.41 1.2-74.54 1.23-9.47 1.43-16.42 1.09-38.14-.34-76.26c-.36-9.42 1.93-19.92 3.32-29.26.98-6.61 2.51-12.48 4.48-18.61a.87.86-66.3 011.24-.49l9.77 5.4z"/><path fill="#96989a" d="M264.8 319.79q17.52 9.79 37.66 11.21l-.17 28q-.98 25.49-.54 51 .05 2.86-.5 6.79-5.86-4.32-9.49-9.07-22.39-29.35-38.71-64.3c-.93-1.98-2.68-5.93-2.47-8.15q.79-8.06 3.01-15.86c.5-1.79 1.5-2.7 3.31-2.68a1.28 1.28 0 01.88.35q2.95 2.81 7.02 2.71z"/><path fill="#fff" d="M317.28 327.08q-6.49 1.25-12.99 1.17V327l12.99.08z"/><path fill="#96989a" d="M178.11 399.43a.35.35 0 00.15-.68q-4.95-1.96-5.9-7.32c-.01-.04-.51-11.22.88-12.55a.76.73-22.2 00.22-.5c.06-4.7 2.93-10.71 4.83-15.01 2.73-6.2 4.7-12.88 7.55-19.14a.46.45 57.2 01.87.19q.04 8.87 3.29 17.04c4.25 10.71 14.04 34.58-4.32 37.69q-.51.09-.1.41 1.2.94 2.5.89 5.35-.24 10.24 1.47a1.9 1.89-80.6 011.27 1.78q.06 11.91 2.47 23.54c.58 2.82-2.63 5.37-4.35 7.29a1.66 1.6-21.8 00-.39.87q-.29 2.28-.16 6.41.47 15.8-.27 37.86c-.39 11.53-24.75 6.27-31.05 3.66a.82.79-80.8 01-.49-.7c-1.04-18.88.09-38.24-.17-57.2a.8.8 0 00-.45-.72c-4.2-2.1-5.05-5.42-3.71-9.95 3.15-10.62 3.59-16.3 17.09-15.33zm3.97-8.58l2.05.04a.88.87-13.2 01.76.47l1.48 2.79a.42.41 53.6 00.66.11c1.28-1.26 2.98-1.47 3.98-2.61 6.25-7.14-3.55-26.11-5.96-33.74q-.15-.47-.25.01-.86 4.27-1.56 5.82c-3.16 6.98-11.28 25.59-3.24 31a.42.42 0 00.64-.25l.79-3.14a.66.65 7.1 01.65-.5zm11.48 38.25q1.26-.25 1.67 1 .2.62.61.11c1.76-2.2.46-7.5-.33-10.48q-.74-2.79-.32-13.23.02-.5-.36-.18c-4.03 3.28-9.47 3.76-14.78 3.94-2.59.08-4.78-.98-7.16-1.86a.89.89 0 01-.58-.89l.1-1.89a.75.74 2.7 01.78-.7l8.08.36a.58.58 0 00.6-.62c-.24-3.45-11.63-2.22-13.5-.04a1.45 1.39-24.3 00-.35.87q-.2 5.85-1.35 11.64c-.4 2.01.38 3.04 2.17 3.69a.85.85 0 01.56.65q.46 2.49.43 5.03-.26 24.07-.59 48.14c-.02 1.35.43 2.98.32 4.38a1.57 1.57 0 001.3 1.67q10.06 1.64 20.13.21a.59.59 0 00.5-.58q-.1-18.05.94-46.87.09-2.48.51-3.79a.83.8-86.1 01.62-.56zm-9.51-24.54a.34.34 0 00.25.59l4.74-.4a.34.34 0 00.14-.62l-2.51-1.52a.34.34 0 00-.39.03l-2.23 1.92z"/><path fill="#242321" d="M181.43 391.35l-.79 3.14a.42.42 0 01-.64.25c-8.04-5.41.08-24.02 3.24-31q.7-1.55 1.56-5.82.1-.48.25-.01c2.41 7.63 12.21 26.6 5.96 33.74-1 1.14-2.7 1.35-3.98 2.61a.42.41 53.6 01-.66-.11l-1.48-2.79a.88.87-13.2 00-.76-.47l-2.05-.04a.66.65 7.1 00-.65.5zM427.49 448.03c-19.89-3.25-7.86-28.08-3.42-38.26q1.9-4.35 3.63-16.5.07-.5.29-.05c2.36 4.66 3.38 10.21 5.18 14.3 1.75 3.99 3.88 7.76 4.9 11.88 1.94 7.87 6.94 27.14-6.47 28.64-.34.04-.56.12-.59.47a.3.29-89.9 00.31.32q8-.35 12.68.68c6.17 1.36 6.09 11.18 6.88 16.18.59 3.72.17 6.12-2.96 8.1a.94.94 0 00-.43.77q-.12 27.09-.8 54.13-.1 3.82-3.43 4.82-11.59 3.47-23.52 1.31c-6.78-1.23-5.33-5.23-5.45-10.13q-.49-20.36.96-40.63a.76.75 15.9 00-.41-.73c-3.65-1.94-5.6-5.07-4.54-9.32q2.64-10.51 2.79-19.26c.15-8.67 14.66-4.36 14.69-6.37a.35.34 5.7 00-.29-.35zm-5.24-25.82c-2.81 6.33-5.55 18.59 4.11 20.7a.75.74 21.3 00.79-.34l1.58-2.64a.77.76 32.2 011.08-.24l1.16.77a.69.68-62.3 01.26.84q-.52 1.2-.11 2.49a.51.51 0 00.64.34c8.79-2.65 4.41-17.31 1.94-23.25q-3.22-7.75-4.55-16.12a.2.2 0 00-.38-.03q-2.75 8.97-6.52 17.48zm-3.45 55.96q.67 2.34.61 6.08-.37 21.62-.44 43.99-.01 1.78 1.75 2.06c5.11.81 14.55 1.35 19.79-.61a1.08 1.06-1.4 00.64-.66q.38-1.1.4-2.28.42-25.03 1.04-50.07c.08-3.15-1.08-6.21 2.93-7.42a.81.81 0 00.57-.63q.44-2.15.18-3.14-1.48-5.61-1.53-11.44c-.04-3.76-10.82-2.86-12.78-2.75a1.23 1.22-71.3 00-.86.43l-1.68 1.99q-.53.63-.79-.16l-.53-1.59a.79.78-11.2 00-.81-.54l-6.22.55a.56.56 0 00-.1 1.1q8.11 2.25 15.79 1.64 1.77-.15 2.96.52a.49.49 0 01.17.7c-4.42 6.67-17.03 2.22-22.28-1.14a.67.67 0 00-1.03.59q.43 9-1.82 18.1-.68 2.77.91 5.85a.39.39 0 00.6.11l1.71-1.51a.51.5-29 01.82.23zM192.94 429.66q-.42 1.31-.51 3.79-1.04 28.82-.94 46.87a.59.59 0 01-.5.58q-10.07 1.43-20.13-.21a1.57 1.57 0 01-1.3-1.67c.11-1.4-.34-3.03-.32-4.38q.33-24.07.59-48.14.03-2.54-.43-5.03a.85.85 0 00-.56-.65c-1.79-.65-2.57-1.68-2.17-3.69q1.15-5.79 1.35-11.64a1.45 1.39-24.3 01.35-.87c1.87-2.18 13.26-3.41 13.5.04a.58.58 0 01-.6.62l-8.08-.36a.75.74 2.7 00-.78.7l-.1 1.89a.89.89 0 00.58.89c2.38.88 4.57 1.94 7.16 1.86 5.31-.18 10.75-.66 14.78-3.94q.38-.32.36.18-.42 10.44.32 13.23c.79 2.98 2.09 8.28.33 10.48q-.41.51-.61-.11-.41-1.25-1.67-1a.83.8-86.1 00-.62.56zm-20.32 7.4c.94 6.04 9.4 2.97 8.1-.17a.48.48 0 00-.55-.29l-2.09.44a1.36 1.36 0 01-1.55-1.81c1.09-2.89 3.05-12.08.36-14.26a.63.62 25.2 00-1.01.36q-.5 2.53-1.07 4.93c-.73 3.12-2.88 6.39-2.19 10.8z"/><path d="M184.05 404.56l2.23-1.92a.34.34 0 01.39-.03l2.51 1.52a.34.34 0 01-.14.62l-4.74.4a.34.34 0 01-.25-.59z"/><path fill="#fff" d="M426.36 442.91c-9.66-2.11-6.92-14.37-4.11-20.7q3.77-8.51 6.52-17.48a.2.2 0 01.38.03q1.33 8.37 4.55 16.12c2.47 5.94 6.85 20.6-1.94 23.25a.51.51 0 01-.64-.34q-.41-1.29.11-2.49a.69.68-62.3 00-.26-.84l-1.16-.77a.77.76 32.2 00-1.08.24l-1.58 2.64a.75.74 21.3 01-.79.34z"/><path d="M360.21 417.5c4.25 30.77 3.1 57.9 2.62 87.08-.08 4.95-.78 10.95-.87 16.66q-.1 6.29-3.21 12.05-.98-.5-.54-1.58c2.49-6.06 1.76-11.09 2.22-16.51.96-11.18.5-22.41 1.21-33.64q.33-5.26.34-22.28c.01-11.4-1.35-23.32-2.1-35.01q-.03-.49-.28-.92-1.78-3.06.61-5.85z"/><path fill="#96989a" d="M180.72 436.89c1.3 3.14-7.16 6.21-8.1.17-.69-4.41 1.46-7.68 2.19-10.8q.57-2.4 1.07-4.93a.63.62 25.2 011.01-.36c2.69 2.18.73 11.37-.36 14.26a1.36 1.36 0 001.55 1.81l2.09-.44a.48.48 0 01.55.29z"/><path fill="#fff" d="M417.98 477.94l-1.71 1.51a.39.39 0 01-.6-.11q-1.59-3.08-.91-5.85 2.25-9.1 1.82-18.1a.67.67 0 011.03-.59c5.25 3.36 17.86 7.81 22.28 1.14a.49.49 0 00-.17-.7q-1.19-.67-2.96-.52-7.68.61-15.79-1.64a.56.56 0 01.1-1.1l6.22-.55a.79.78-11.2 01.81.54l.53 1.59q.26.79.79.16l1.68-1.99a1.23 1.22-71.3 01.86-.43c1.96-.11 12.74-1.01 12.78 2.75q.05 5.83 1.53 11.44.26.99-.18 3.14a.81.81 0 01-.57.63c-4.01 1.21-2.85 4.27-2.93 7.42q-.62 25.04-1.04 50.07-.02 1.18-.4 2.28a1.08 1.06-1.4 01-.64.66c-5.24 1.96-14.68 1.42-19.79.61q-1.76-.28-1.75-2.06.07-22.37.44-43.99.06-3.74-.61-6.08a.51.5-29 00-.82-.23zm13.03 7.46c-.94 3.55 4.15 5.57 6.48 2.87 2.9-3.37-.66-13.15-1.16-17.39a.66.65 48.4 00-1.29-.08q-1.54 6.54.34 12.31c.63 1.94-.1 3.41-2.14 3.63a.77.75-19.1 01-.72-.34l-.75-1.13q-.52-.79-.76.13z"/><path d="M437.49 488.27c-2.33 2.7-7.42.68-6.48-2.87q.24-.92.76-.13l.75 1.13a.77.75-19.1 00.72.34c2.04-.22 2.77-1.69 2.14-3.63q-1.88-5.77-.34-12.31a.66.65 48.4 011.29.08c.5 4.24 4.06 14.02 1.16 17.39z"/><path fill="#242321" d="M0 590.44c1.16.89 24.82.38 30.94.56H0v-.56zM80.94 591H32.69q24.12-.63 48.25 0zM96.94 591H82.19q7.37-.63 14.75 0zM113.19 591h-8q4-.63 8 0zM182.94 591h-10.75q5.37-.63 10.75 0zM192.94 591h-6.75q3.37-.63 6.75 0zM249.94 591h-49.75q24.87-.63 49.75 0zM296.94 591h-20.75q10.37-.63 20.75 0zM312.25 590.79l-.06.21h-15l15.06-.21z"/><path fill="#242321" d="M312.25 590.79l24.69.21h-24.75l.06-.21zM367.94 591h-21.75q10.87-.63 21.75 0zM393.94 591h-15.75q7.87-.63 15.75 0zM408.94 591h-14.75q7.37-.63 14.75 0zM439.94 591h-30.75q15.37-.63 30.75 0zM487.94 591h-13.25q6.62-.63 13.25 0zM528.94 591h-17q8.5-.63 17 0zM538.19 591h-9q4.5-.63 9 0zM560.94 591h-6.75q3.37-.63 6.75 0zM589.94 591h-10.25q5.12-.63 10.25 0z"/></svg>