<svg xmlns="http://www.w3.org/2000/svg" viewBox="0 0 591 591"><g stroke-width="2" fill="none"><path stroke="#11100f" vector-effect="non-scaling-stroke" d="M590.06 0l.19.29"/><path stroke="#7f7f70" vector-effect="non-scaling-stroke" d="M590.25.29V589.8a.46.45 0 01-.46.45L.66 590.24q-.68 0-.21.5l.24.26"/><path stroke="gray" vector-effect="non-scaling-stroke" d="M4.29 344.25l.02 241.44a.5.5 0 00.5.5l21.69.02"/><path stroke="#7f7f70" vector-effect="non-scaling-stroke" d="M26.5 586.21l559.44.03a.49.49 0 00.49-.5q-.01-.5-.01-1-.13-289.96-.21-579.99a.5.49 90 00-.49-.5H4.79a.49.49 0 00-.49.49l-.01 339.51"/><path stroke="#fefeef" vector-effect="non-scaling-stroke" d="M26.5 586.21c2.23-1.76-4.63-6.51-5.39-7.3-9.16-9.42-9.46-19.62-9.46-32.26 0-8.59-.96-17.73-.8-26.33q.55-31.58-.48-59.32c-.14-3.65.19-7.28.01-10.34q-.45-7.97-.93-15.95c-.83-13.77-.07-29.38-.59-41.52-.44-10.47 0-19.97-.48-29.7q-.33-6.97-.2-12.55.09-3.96-2.89-5.22a.91.9-85.1 01-.54-.65q-.11-.49-.46-.82"/><path stroke="#8f8f7f" vector-effect="non-scaling-stroke" d="M591 590.06c-.84-.45-.25-539.58-.25-589.56a.25.25 0 00-.22-.25q-.16-.02-.28.04M571.19 591q-2.75-.63-5.5 0"/><path stroke="#c9cabb" vector-effect="non-scaling-stroke" d="M555.44 591q-2.38-.63-4.75 0"/><path stroke="#8f8f7f" vector-effect="non-scaling-stroke" d="M536.44 591q-8.38-.63-16.75 0M519.44 591q-2.88-.63-5.75 0M487.44 591q-2.88-.63-5.75 0M26.69 591q-12.63-.63-25.25 0"/><path stroke="#fcefc4" vector-effect="non-scaling-stroke" d="M102.33 34.19q-21.28-.19-42 .84c-13.97.69-19.89 9.45-19.87 22.47q.03 19.27 1.22 38.82a1.09 1.09 0 001.52.93q.31-.13 1.14-.92 7.46-7.04 14.5-14.51c13.81-14.64 27.83-29.04 41.96-43.37.85-.86 1.59-2.3 2.1-3.33a.65.64-76.6 00-.57-.93"/><path stroke="#7f7f70" vector-effect="non-scaling-stroke" d="M268.79 469l-4.75 24.25"/><path stroke="#8f8f7f" vector-effect="non-scaling-stroke" d="M264.04 493.25c-1.7 6.34-2.34 13.87-4.75 21.18a.57.56 20.4 01-.75.34l-2.07-.86a.57.56-74.5 00-.77.44l-.99 6.45a.67.67 0 00.59.77q2.12.23 1.89 2.4a.65.64 7.2 01-.74.57l-1.93-.29a.65.64 10.2 00-.72.49l-1.45 6.25a.57.57 0 00.44.69l2.63.59a.78.78 0 01.61.85l-.34 2.92a.64.63 88.8 01-.52.55c-1.86.33-3.43.68-4.19 2.64-2.66 6.83 7.4 8.06 11.55 6.51 4.21-1.57 4.53-6.14.5-8.3a.67.66-67.2 01-.32-.79l.8-2.44a.79.79 0 01.92-.53l1.95.41a.68.68 0 00.8-.49l1.39-5.23a1.02 1.01-61.4 00-.3-1.03q-.78-.69-1.76-.09a.73.72 62.2 01-1.04-.33l-.85-1.96q-.51-1.16.74-1.01l3.35.38a.61.61 0 00.68-.54l.65-5.44a.73.73 0 00-.47-.77l-2.04-.71a.72.72 0 01-.47-.83l2.9-14.54"/><path stroke="#7f7f70" vector-effect="non-scaling-stroke" d="M269.96 501.5q5.04-22.64 9-45.5"/><path stroke="#8f8f7f" vector-effect="non-scaling-stroke" d="M278.96 456l2.85-13.35a.93.93 0 011.05-.73l2.42.36a.65.65 0 00.74-.56l.78-6.83a.51.5 8.3 00-.42-.56l-1.85-.28a.65.65 0 01-.53-.79q2.28-9.33 3.19-16.52.24-1.92 1.01-3.26a1.48 1.44-85.8 01.71-.63q1.49-.64 1.84-2.1 3.62-15.29 6.31-29.85a.36.36 0 01.72.08q-.26 9.61.24 19.02c.47 8.96.31 18.71 1.22 28.04a.69.68 76.6 01-.42.69c-1.51.6-8.46 3.92-4.25 6.23 6.23 3.43 14.57 1.75 20.92.25q1.1-.26 2.11-1.18a1.33 1.3-19.9 00.41-.85c.26-3.32-3.4-4.24-5.95-4.65a.65.65 0 01-.54-.58c-.8-9-.3-18.99-.66-26.93q-.95-21.1-.56-42.24c.05-2.68-.69-6.04-.38-9.15q.13-1.29.74-.14l2.25 4.24a.92.91 49.4 01-.07.97q-1.73 2.3.41 4.59"/><path stroke="#7f7f70" vector-effect="non-scaling-stroke" d="M313.25 359.29q3.72 7.89 7.88 15.56c1.66 3.07 2.93 6.81 4.7 10.11 4.4 8.23 8.36 16.64 12.73 24.89a1.34 1.32-4.4 00.77.65l2.55.82a1.24 1.21-1.4 01.76.71q2.93 7.31 6.92 14.09a1.61 1.58-57.3 01.21 1.02l-.26 2.34a1.91 1.81-55.6 00.16 1l2.37 5.03a.99.97 82.9 00.68.54l1.05.23a1.2 1.2 0 01.8.61c4.74 8.84 9.54 17.4 14 26.57q8.04 16.55 16.72 32.84"/><path stroke="#8f8f7f" vector-effect="non-scaling-stroke" d="M385.29 496.3q1.57 4.26 4.11 8.17a.46.45-21.2 01-.31.7l-1.96.31a.67.67 0 00-.5.97l3.1 6.09a.75.75 0 00.99.34l1.41-.68a1.04 1.03 48.3 01.99.06c1.17.74-.78 2.71-1.3 3.41a.77.76 50.9 00-.08.79l2.54 5.59a.5.5 0 00.64.25l1.95-.8a.81.8 65.1 011.03.38l1.9 3.76a.84.83-40.6 01-.07.88q-3.48 4.72 1.34 7.93a1.53 1.48 59.6 00.89.25q7.17-.21 11.31-5.92a1.41 1.38-31.4 00.25-.99q-.64-4.73-5.42-4.88a1.52 1.5-21.2 01-1.02-.44q-1.29-1.3-1.58-3.19a1.11 1.11 0 01.35-.99l1.6-1.45a2.4 2.4 0 00.49-2.9l-2.3-4.24a.63.61 67.8 00-.71-.31l-2.85.73a.65.64 82.6 01-.8-.62v-1.13a.77.77 0 01.6-.76q.88-.21 1.45-.8a.72.71 53.8 00.12-.81l-2.81-5.69a1 1 0 00-.85-.56q-1.21-.06-2.17.76a1.39 1.38-32.4 01-2.15-.48c-5.64-12.13-12.2-23.76-18.09-36.12q-3.23-6.76-6.85-13.32c-2.7-4.91-4.89-10.38-7.6-15.5a.43.43 0 01.28-.62l1.5-.36a.5.5 0 00.31-.74q-1.45-2.44-2.83-4.92c-.69-1.23-1.26-3.41-2.69-4.87a.92.91 61.4 00-.83-.25l-1.55.31a.7.7 0 01-.77-.38l-7.42-15.43a1.92 1.92 0 01-.18-1.01l.27-2.68a1.74 1.68-57 00-.18-.92q-12.85-25.31-25.61-50.68c-1.01-2-3.17-2.27-4.38-4.54q-3.16-5.93-6.18-12.06a.4.4 0 01.32-.57l9.32-.99a.7.69 85.3 00.62-.74l-.35-4.93a.99.99 0 00-.92-.92l-8.05-.64a.48.48 0 01-.44-.49l.1-5.25a.67.67 0 01.57-.64l7.1-1.05a.59.58 87.1 00.5-.56l.2-6.11a1.43 1.43 0 012.03-1.25l5.88 2.76a1.6 1.55-2.2 01.71.64c4.07 7.1 10.12 9.65 16.55 14.33a.98.96 47.2 001.06.05l8-4.79a.95.95 0 00.46-.98l-.8-5.06a1.21 1.21 0 00-.58-.85q-2.69-1.64-5.55-2.87c-5.36-2.31-9.58-4.91-16.02-4.87a1.42 1.37 62.9 01-.9-.31q-3.05-2.4-6.77-3.63a.77.77 0 01-.53-.76q.11-3.7-1.79-6.8a1.3 1.27-7.2 00-.75-.57q-3.47-1.01-3.26-4.55a.32.32 0 01.58-.18l3.06 3.97q.37.47.5-.11c.13-.57-2.1-5.48-2.42-6.57a.34.34 0 01.57-.34q3.77 3.93 9.11 5.18a.33.33 0 00.28-.58c-2.47-1.94-7.15-5.48-7.49-8.85a.49.48-3.9 01.47-.53c15.82-.4 30.99-4.36 46.42-9.56a.38.38 0 01.5.34q.22 4.47-.48 10.93c-.32 2.93 2.95 4.24 4.56 1.57q3.49-5.8 4.49-12.37a.36.36 0 01.7-.03q.42 1.62.66 3.22c.67 4.39 4.83-.41 4.9-2.13q.23-5.77 1.15-11.18a.54.54 0 011.04-.09q2.91 8.26 2.52 16.95c-.13 2.81-.14 4.87 3.02 5.51a.99.99 0 001.17-.79q2.03-10.86 1.73-21.92a.41.41 0 01.76-.21q4.05 7.38 6.01 15.5.23.95 1.62 1.79a.9.89-74.3 01.42.76c0 4.3-.79 7.71 1.89 11.39a1.25 1.25 0 002.14-.21q3.2-6.82 2.96-14.4a.35.35 0 01.67-.13l2.85 7.49a1.59 1.59 0 002.16.87c3.82-1.8.99-6.09.48-9.04a.3.3 0 01.32-.35l4.01.38a1.4 1.4 0 001.53-1.57l-.77-6.18a.42.42 0 01.73-.34q4.39 4.88 9.5 8.98a1.37 1.36-27.6 00.96.3c5.61-.43 8.06 5.73 12.57 5.43 5.59-.36.3-9.15-1.09-11.39q-9.39-15.15-19.15-30.06c-8.85-13.53-19.78-28.99-32.88-40.1-7.52-6.38-16.82-10.15-23.67-17.73-18.2-20.12-44.32-35.94-72.27-34.17-19.16 1.21-38.83 12.24-51.25 26.42-14.31 16.32-18.16 39.76-11.59 60.27a.39.39 0 01-.35.51c-8.11.35-13.72-4.05-15.51-11.68-2.6-11.09 5.34-24.32 11.85-34.6q12.03-19 20.9-39.71c3.41-7.97 4.44-16.92 5.51-25.44 2.51-19.86-19.6-36.66-37.48-37.52-9.18-.44-18.32-1.56-26.4 1.02-14.5 4.64-24.32 16.37-24.06 32.18.06 4.1 3.15 7.73 3.26 12.25q.14 5.65-.28 11.27c-.43 5.85-2.59 11.84-4.02 17.78-1.72 7.09-.76 11.07 3.6 17.13 6.03 8.38 13.08 16.69 23.29 20.03a.43.42-67.8 01.25.6c-5.45 10.71-7.96 21.33-7.55 33.61.83 25.06 12.26 42.69 38.68 44.32q16.02.99 31.48-4.81c3.48-1.3 11.63-2.03 15.01-.44 8.3 3.9 10.59 9.82 13.71 17.86a.77.77 0 01-.82 1.05c-10.41-1.35-13.57 12.6-3.19 16.89a.88.87-79.1 01.54.81v6.73a.66.66 0 00.54.65l7.49 1.38a.54.53-87.3 01.44.49l.3 4.97a1.21 1.21 0 01-1.02 1.27l-6.06.97a.82.82 0 00-.69.81v4.34a.68.68 0 00.65.68l4.58.22a.47.46 10.8 01.42.61c-1.99 5.85-3.86 12.09-8.19 14.88a1.68 1.61 87.4 00-.63.72q-11.43 24.86-22.76 49.77-1.63 3.57-.66 6.26a1.07 1.06 50.3 01-.08.9q-3.22 5.73-5.79 12.82-.71 1.97-2.94 1.78a.86.84 17.3 00-.82.42l-4.69 8.18a.79.79 0 00.13.96l1.28 1.26a.99.97-55.5 01.2 1.11l-29.29 64.35a.82.82 0 01-1.28.29l-1.81-1.49a.52.52 0 00-.79.15q-1.54 2.85-2.75 5.87c-1.32 3.29 2.74 2.72 1.85 5.26a.73.72-76.2 01-.78.48l-2.36-.32a.69.68 19 00-.68.33l-2.88 4.94a.56.56 0 00.16.74l2.49 1.7a.76.75-62.8 01.28.88l-1.57 4.28a1 .99-82.3 01-.83.64l-3.83.36a1.13 1.1 11.3 00-.86.56c-3.84 6.82 4.64 10.69 9.97 10.72a1.29 1.28-66.1 00.87-.34c2.14-2.04 4.4-5.58 1.41-7.83a.67.67 0 01-.21-.81l1.84-4.14a.47.47 0 01.61-.24l3.11 1.29a.8.8 0 001.03-.39l2.16-4.43a.61.6-64.3 00-.27-.8l-1.91-.97a1.39 1.36 89.1 01-.62-.61q-.68-1.31.69-2.07a.98.97 46.3 011.01.03l1.92 1.23a.43.43 0 00.61-.17l3.04-6.16a1.72 1.72 0 00-.58-2.19l-2.52-1.72a.68.68 0 01-.22-.87c7.53-15.19 14.3-30.91 21.02-46.49 3.13-7.25 6.99-12.72 10.05-21.2a1.01 1 88.7 01.57-.6l1.59-.67a1.41 1.37-.3 00.75-.74l1.9-4.5a1.95 1.94 53 00.14-1.02c-.6-4.41 4.08-11.5 5.81-15.86a1.37 1.36 87.5 01.63-.69c4.94-2.57 4.5-6.06 6.81-10.12 5.62-9.86 9.32-20.81 14.64-30.92q.24-.46.14.05-3.48 18.54-7.57 36.98-.25 1.15 1.15 3.59a1.3 1.27 36.3 01.15.91q-1.44 7-2.51 14.07c-.23 1.58-1.37 2.74-1.01 4.88a.61.6 82.3 01-.53.7l-3.49.41a.62.61-88.1 00-.54.51q-.66 3.61-1.36 7.19-.38 1.9 1.98 2.12a1.5 1.5 0 011.34 1.81L268.79 469"/><path stroke="#11100f" vector-effect="non-scaling-stroke" d="M385.29 496.3q-1.55-7.1-5.41-13.19c-1.29-2.04-1.33-3.82-2.06-6.05a1.34 1.31 7.3 00-.58-.73q-1.78-1.1-2.4-3.03c-1.7-5.29-4.44-10.15-6.44-15.33-.84-2.16-2.86-4.06-3.74-5.88q-3.79-7.75-8.35-15.08c-2.21-3.55-5.33-4.82-4.63-10.23a1.52 1.48 35.2 00-.17-.93q-3.88-7.09-7.54-14.32-.83-1.63-3.79-2.15a1.05 1.05 0 01-.74-.51c-4.04-7.16-5.91-13.99-10-20.53-4.39-7.03-6.02-14.8-10.75-21.73-1.57-2.3-2.61-4.6-3.91-6.96a.81.79-15.7 00-.75-.41l-.78.05M278.96 456c-.82-.51-1.35-.09-1.54.74q-1.41 6.38-2.45 12.82c-1.73 10.67-3.74 19.48-6.12 29.19q-.1.4.01.81.21.82.14 1.67a.38.38 0 00.48.4l.48-.13M264.04 493.25c1.07.15 1.63-.3 1.84-1.37q2.14-10.8 4.11-21.62c.14-.78-.33-1.48-1.2-1.26"/><path stroke="#5b5b5b" vector-effect="non-scaling-stroke" d="M200.21 119.5c.29-2.66-1.34-4.4-2.78-6.6"/><path stroke="#90908f" vector-effect="non-scaling-stroke" d="M197.43 112.9c3.88-2.24 5.07-5.5 9.57-7.44"/><path stroke="#5b5b5b" vector-effect="non-scaling-stroke" d="M207 105.46c9.72.07 20.83 1.12 26.82 6.22 5.22 4.43 9.62 14.27 9.82 21.78q.24 9.06-2.1 18.55-.05.22.08.32a.25.25 0 00.39-.1q2.95-7.13 4.82-14.6c.38-1.52.45-8.04 2.61-8.32a.4.39 88.9 01.44.43q-1.29 16.89-7.88 32.47-.28.66.21.13c2.48-2.67 4.49-10.36 5.1-12.6 3.81-13.92 9.69-24.47-.52-37.74"/><path stroke="#90908f" vector-effect="non-scaling-stroke" d="M246.79 112c-9.34-12.86-23.09-15.72-38.17-15.94-18.85-.28-36.84 12.34-31.39 33.52q1.24 4.8 1.37 6.84c.79 12.18-2.17 21.4-5.25 33.08a.58.58 0 001.07.42c3.27-6.1 6.03-13.48 9.09-18.74 3.13-5.4 7.21-12.21 12.3-15.93a.98.95-19.4 00.39-.79q-.04-2.07 1.87-4.34 3.58-4.26 2.14-10.62"/><path stroke="#cacbcb" vector-effect="non-scaling-stroke" d="M246.79 112c.66 6.27 2.98 9.7 1.23 16.42a.44.43-74.2 01-.54.31c-.25-.07-.45-.6-.45-.9q.08-3.35-2.33-7.84-9.13-16.96-27.45-18.91-6.7-.72-10.25 4.38M197.43 112.9q2.28-3.19 4.06-6.6c1.21-2.32 2.76-3.3 4.82-4.62q.42-.26-.07-.21c-13.44 1.55-35.48 14.83-26.74 31.36a1.26 1.25 39.2 01.1.96l-.17.55a.57.57 0 00.74.7l8.22-2.99a.74.74 0 00.38-1.07q-3.08-5.27-.76-10.98a1.33 1.32 88.9 01.7-.73q5.75-2.63 11.5.23"/><path stroke="#8f8f7f" vector-effect="non-scaling-stroke" d="M233.64 138.35c1.98-6.27-3.22-24.06-12.94-19.09a1.06 1.03 83.5 00-.55.71c-2.21 9.44-7.1 20.13-15.21 25.96-6.07 4.35-9.27 7.38-9.38 14.81q-.01.49-.23.93-.48.96-.65 2.01c-1.82 11.77-3.42 25.63 1.64 36.82a.48.48 0 00.87.01q2.42-5.21 5.53-10.35 12.18-20.11 25.4-39.56 3.1-4.55 5.52-12.25"/><path stroke="#90908f" vector-effect="non-scaling-stroke" d="M183.22 165.49c-.59 2.57 2.18 4.28 4.08 5.31a.38.38 0 00.55-.26c.78-3.48.97-7.55 1.53-10.46q1.75-9.25 5.47-18.23a.37.36 74.6 00-.63-.36q-7.93 10.68-11 24"/><path stroke="#5b5b5b" vector-effect="non-scaling-stroke" d="M242.71 195.25c-.43.31-.86.67-1.08 1.18q-6.87 15.77-3.62 32.83c.42 2.19 3.22 13.25 5.81 8.16"/><path stroke="#90908f" vector-effect="non-scaling-stroke" d="M243.82 237.42c2.62-1.56 3.75-3.39 3.49-6.62q-.72-9.02.14-13.05c3.52-16.63 16.28-36.18 34.54-37.98"/><path stroke="#5b5b5b" vector-effect="non-scaling-stroke" d="M281.99 179.77q5.08.4 8.42 3.97a1.4 1.38-18.9 00.92.44q7.96.55 13.13 6.42a1.64 1.62-14.5 00.9.52c12.6 2.39 17.82 9.31 24.81 19.24q.46.66.16-.09-5.02-12.27-13.56-22.37-.35-.42.09-.1l8.85 6.45"/><path stroke="#90908f" vector-effect="non-scaling-stroke" d="M325.71 194.25l3.08 3.75"/><path stroke="#5b5b5b" vector-effect="non-scaling-stroke" d="M328.79 198q3.86 5.14 5.8 11.27a.7.69 80.3 00.67.48h.45a.54.54 0 00.52-.7q-.54-1.79-.24-3.67a1.15 1.14 32.2 00-.2-.86l-.46-.65a.61.61 0 01.1-.83q.72-.61.73-1.55c.08-8.4-2.22-15.85-7.63-22.22q-1.63-1.91-1.48-4.61"/><path stroke="#90908f" vector-effect="non-scaling-stroke" d="M327.05 174.66q1.64 2.58 4.86 4.26"/><path stroke="#5b5b5b" vector-effect="non-scaling-stroke" d="M331.91 178.92l5.88 8.15"/><path stroke="#90908f" vector-effect="non-scaling-stroke" d="M337.79 187.07c.77 2.78.8 4.77 2.69 7.2q4.11 5.24 6.9 11.57"/><path stroke="#5b5b5b" vector-effect="non-scaling-stroke" d="M347.38 205.84l3.29 7.03q.24.52.52.02c5.39-9.95 4.19-19.14-2.94-27.57q-1.66-1.96-2.04-4.57"/><path stroke="#90908f" vector-effect="non-scaling-stroke" d="M346.21 180.75c2.41 3.12 5.22 5.63 7.64 8.73q.98 1.25 2.48 2.37"/><path stroke="#5b5b5b" vector-effect="non-scaling-stroke" d="M356.33 191.85q.93 3.82 3.42 7.22a1.12 1.11-58.1 01.2.87c-.33 2.01 1.25 4.25 1.37 6.63q.11 2.05.73 3.58 3.95 9.68 7.1 20.18a.45.45 0 00.89-.15c-.39-9.53-3.28-17.18-6.01-26.17q-1.27-4.21-2.6-8.38"/><path stroke="#90908f" vector-effect="non-scaling-stroke" d="M361.43 195.63q2.29 2.77 4.47 5.32c2.56 2.99 4.6 6.78 7.39 9.99"/><path stroke="#5b5b5b" vector-effect="non-scaling-stroke" d="M373.29 210.94l5.57 9.61q.3.52.18-.07-1.2-5.87-2.39-11.77c-1.58-7.87-7.14-15.29-13.4-20.42"/><path stroke="#90908f" vector-effect="non-scaling-stroke" d="M363.25 188.29l-4.5-4.83"/><path stroke="#5b5b5b" vector-effect="non-scaling-stroke" d="M358.75 183.46q-5.43-6.4-13.21-10.32"/><path stroke="#90908f" vector-effect="non-scaling-stroke" d="M345.54 173.14c-2.67-3.98-17.8-11.37-22.6-11.86"/><path stroke="#5b5b5b" vector-effect="non-scaling-stroke" d="M322.94 161.28l-4.19-.99"/><path stroke="#90908f" vector-effect="non-scaling-stroke" d="M318.75 160.29c-7.85-2.87-16.36-3-24.55-2.15-21.26 2.2-43.54 16.86-51.49 37.11"/><path stroke="#cacbcb" vector-effect="non-scaling-stroke" d="M318.75 160.29l.31.56q.24.44.64.73 9.14 6.48 12.21 17.34M327.05 174.66c-3.2-3.74-15.1-13.92-20.27-12.69q-.5.11-.03.32c9.27 3.95 13.52 13.92 14.76 23.31q.05.42.31.76l.22.3q.49.64-.3.5c-1.86-.35-6.61-5.52-8.14-7.05a1.78 1.73 15.8 01-.48-.83c-.79-3.18-1.66-5.47-4.71-7.28-4.1-2.45-5.93-4.51-11.23-4.77a.5.5 0 00-.17.98c3.91 1.19 10.77 5.98 11.27 10.66q.06.57-.42.25-10.43-6.92-22.9-3.86-.72.18.01.32 2.57.48 5.16.84c3.17.44 4.92 2.1 7.5 3.89a.43.43 0 01-.38.76q-7.25-2.4-15.26-1.3M243.82 237.42l1.9-4.63q.16-.41.15-.85l-.17-7a1.68 1.64 28.6 00-.27-.87c-2.36-3.63-4.47-5.98-3.57-11.08a.56.56 0 01.81-.41l.54.28a.8.8 0 01.43.69q.07 4.08 1.54 7.93a.39.39 0 00.75-.14c-.07-4.39.06-8.34 2.32-12.37q3.71-6.63 6.46-13.69c2.33-5.97 5.87-9.67 11-12.97a.37.36 44.5 00-.01-.62c-1.51-.91-12.57 8.19-14.3 9.86-4.53 4.37-6.56 9.32-7.47 15.32a.37.37 0 01-.73-.04l-.49-11.58M322.94 161.28q4.48 3.19 8.42 7.01 3.29 3.19 5.71 4.9c3.25 2.28 6.87 4.05 9.14 7.56M347.38 205.84q.68-9.14-1.98-17.85-.97-3.15-1.92-4.23c-1.36-1.55-7.19-10.1-8.23-10.37q-.53-.14-.32.37 2.69 6.38 2.86 13.31"/><path stroke="#cacbcb" vector-effect="non-scaling-stroke" d="M328.79 198h.27a.3.3 0 00.3-.27l1.37-9.86a1.55 1.53 36.5 00-.14-.9c-.76-1.56-6.06-12.84-7.33-12.39a.52.52 0 00-.3.7c2.95 6.8 2.2 11.86 2.75 18.97M345.54 173.14q7.2 8.39 10.79 18.71M358.75 183.46l-.69.14a.39.38-22.6 00-.25.59q3.42 5.19 3.62 11.44M363.25 188.29c2.09 5.41 5.61 10.39 7.51 15.32q1.38 3.62 2.53 7.33"/><path stroke="#5b5b5b" vector-effect="non-scaling-stroke" d="M340.67 206.39c.43 2.67-.14 5.1-.66 7.66a1.02 1.01-63 00.31.96l5.11 4.54q.63.56.57-.28-.62-8.97-4.15-17.24c-.29-.66-1.17-4.67-1.47-4.73a.45.44 4.2 00-.53.45q.11 4.36.82 8.64M411.04 241.75c2.87 4.15 4.51 8.94 7.85 12.57q8.64 9.39 18.43 18.73a.53.53 0 00.81-.67c-11.36-17.3-22.23-34.89-35.34-51.13"/><path stroke="#90908f" vector-effect="non-scaling-stroke" d="M402.79 221.25q-8.16-11.27-19.29-19a.33.33 0 00-.44.48q13.53 16.17 24.04 33.43 1.78 2.93 3.94 5.59"/><path stroke="#cacbcb" vector-effect="non-scaling-stroke" d="M402.79 221.25l-.03.27a1.38 1.36-55.4 00.13.74l8.79 18.17a1.06.93 35.6 01.1.43q.01.96-.74.89"/><path stroke="#5b5b5b" vector-effect="non-scaling-stroke" d="M355.21 214.5q-3.09 3.55-.25 7.25"/><path stroke="#8f8f7f" vector-effect="non-scaling-stroke" d="M354.96 221.75l.88 2.69a.48.48 0 00.93-.14l.41-18.55q.04-1.49-.25-.02l-1.72 8.77"/><path stroke="#c9cabb" vector-effect="non-scaling-stroke" d="M354.96 221.75q2.19-3.56.25-7.25"/><path stroke="#5b5b5b" vector-effect="non-scaling-stroke" d="M391.71 240.03a.6.59-33.3 00.11-.51q-3.33-12.49-9.34-23.93-.38-.72-.26.08 1 6.55 1.84 13.15c.62 4.89 2.44 8.18 4.92 12.18a1.15 1.15 0 001.87.11l.86-1.08M388.75 219.99l9.2 22.74a.5.5 0 00.96-.28q-1.11-5.77-3.01-11.66c-1.35-4.19-4.3-7.36-6.71-11.03a.25.25 0 00-.44.23M360.74 223.92q-.54 3.01-1.18 5.82c-.6 2.65-2.79 4.84.54 7.32a.53.53 0 00.73-.09c3.48-4.26 1.9-8.2 1.05-13.05a.58.58 0 00-1.14 0M404.24 247.35a.74.74 0 001.06-.25c.97-1.72-3.73-9.68-4.91-11.42q-.28-.42-.15.06c.6 2.2 2.51 10.6 4 11.61"/><path stroke="#90908f" vector-effect="non-scaling-stroke" d="M295.5 311.54l-1.5-.08"/><path stroke="#5b5b5b" vector-effect="non-scaling-stroke" d="M294 311.46l-4.83-.12a.59.59 0 00-.6.6l.06 3.01a.71.69-78.6 00.4.62c3.84 1.77 9.09.82 13.29 1.02a.54.53-.5 00.56-.56l-.18-3.55a.66.66 0 00-.63-.64l-6.57-.3"/><path stroke="#cacbcb" vector-effect="non-scaling-stroke" d="M294 311.46q-1.35 1.49-1.71 3.69a.72.72 0 00.61.82l2.33.33a.82.8 12.9 00.88-.54q.79-2.33-.61-4.22"/><path stroke="#5b5b5b" vector-effect="non-scaling-stroke" d="M309.177 312.067a.86.86 0 00-.905-.813l-1.079.059a.86.86 0 00-.812.905l.162 2.995a.86.86 0 00.905.813l1.079-.059a.86.86 0 00.812-.905l-.162-2.995M302.25 327.21q1.08.21 2.16-.08a.57.56 83.6 00.41-.52l.12-4.48a.43.43 0 00-.47-.44l-3.51.31"/><path stroke="#90908f" vector-effect="non-scaling-stroke" d="M300.96 322q-.85-.42-1.84-.39a.66.65-1.7 00-.64.67l.08 4.96a.52.52 0 00.61.5l3.08-.53"/><path stroke="#cacbcb" vector-effect="non-scaling-stroke" d="M300.96 322q-.08 2.83 1.29 5.21"/><path stroke="#5b5b5b" vector-effect="non-scaling-stroke" d="M302.42 347.44c.55 24.01.02 48.04.65 72.08a.67.67 0 00.52.64c.9.22 1.5-.78 1.54-1.62.39-7.87-.24-18.12-.32-23.5q-.43-28.48-1.21-56.98-.02-.52-.15-.02-1.14 4.62-1.03 9.4"/><path stroke="gray" vector-effect="non-scaling-stroke" d="M194.622 128.32a3.24 3.02 88.9 002.957-3.298 3.24 3.02 88.9 00-3.081-3.181 3.24 3.02 88.9 00-2.957 3.297 3.24 3.02 88.9 003.081 3.181M182.12 143.85c-1.98 1.18-1.55 4.74.69 3.75a1.73 1.67-86.7 00.8-.74q2.84-5.2 3.12-11.17.13-2.69-.63-.11-1.18 4-3.25 7.55-.27.45-.73.72"/><path stroke="gray" vector-effect="non-scaling-stroke" d="M195.69 124.5a1.57 1.57 0 00-1.57-1.57 1.57 1.57 0 00-1.57 1.57 1.57 1.57 0 001.57 1.57 1.57 1.57 0 001.57-1.57"/></g><path d="M0 0h590.06l.19.29V589.8a.46.45 0 01-.46.45L.66 590.24q-.68 0-.21.5l.24.26H0V0zm4.29 344.25l.02 241.44a.5.5 0 00.5.5l21.69.02 559.44.03a.49.49 0 00.49-.5q-.01-.5-.01-1-.13-289.96-.21-579.99a.5.49 90 00-.49-.5H4.79a.49.49 0 00-.49.49l-.01 339.51z"/><path fill="#21201e" d="M590.06 0h.94v590.06c-.84-.45-.25-539.58-.25-589.56a.25.25 0 00-.22-.25q-.16-.02-.28.04l-.19-.29z"/><path fill="#fdfddf" d="M590.25.29q.12-.06.28-.04a.25.25 0 01.22.25c0 49.98-.59 589.11.25 589.56v.94h-19.81q-2.75-.63-5.5 0h-10.25q-2.38-.63-4.75 0h-14.25q-8.38-.63-16.75 0h-.25q-2.88-.63-5.75 0h-26.25q-2.88-.63-5.75 0h-455q-12.63-.63-25.25 0H.69l-.24-.26q-.47-.5.21-.5l589.13.01a.46.45 0 00.46-.45V.29z"/><path fill="#fdfddf" d="M26.5 586.21c2.23-1.76-4.63-6.51-5.39-7.3-9.16-9.42-9.46-19.62-9.46-32.26 0-8.59-.96-17.73-.8-26.33q.55-31.58-.48-59.32c-.14-3.65.19-7.28.01-10.34q-.45-7.97-.93-15.95c-.83-13.77-.07-29.38-.59-41.52-.44-10.47 0-19.97-.48-29.7q-.33-6.97-.2-12.55.09-3.96-2.89-5.22a.91.9-85.1 01-.54-.65q-.11-.49-.46-.82L4.3 4.74a.49.49 0 01.49-.49h580.93a.5.49 90 01.49.5q.08 290.03.21 579.99 0 .5.01 1a.49.49 0 01-.49.5l-559.44-.03zm75.83-552.02q-21.28-.19-42 .84c-13.97.69-19.89 9.45-19.87 22.47q.03 19.27 1.22 38.82a1.09 1.09 0 001.52.93q.31-.13 1.14-.92 7.46-7.04 14.5-14.51c13.81-14.64 27.83-29.04 41.96-43.37.85-.86 1.59-2.3 2.1-3.33a.65.64-76.6 00-.57-.93zM268.79 469l-4.75 24.25c-1.7 6.34-2.34 13.87-4.75 21.18a.57.56 20.4 01-.75.34l-2.07-.86a.57.56-74.5 00-.77.44l-.99 6.45a.67.67 0 00.59.77q2.12.23 1.89 2.4a.65.64 7.2 01-.74.57l-1.93-.29a.65.64 10.2 00-.72.49l-1.45 6.25a.57.57 0 00.44.69l2.63.59a.78.78 0 01.61.85l-.34 2.92a.64.63 88.8 01-.52.55c-1.86.33-3.43.68-4.19 2.64-2.66 6.83 7.4 8.06 11.55 6.51 4.21-1.57 4.53-6.14.5-8.3a.67.66-67.2 01-.32-.79l.8-2.44a.79.79 0 01.92-.53l1.95.41a.68.68 0 00.8-.49l1.39-5.23a1.02 1.01-61.4 00-.3-1.03q-.78-.69-1.76-.09a.73.72 62.2 01-1.04-.33l-.85-1.96q-.51-1.16.74-1.01l3.35.38a.61.61 0 00.68-.54l.65-5.44a.73.73 0 00-.47-.77l-2.04-.71a.72.72 0 01-.47-.83l2.9-14.54q5.04-22.64 9-45.5l2.85-13.35a.93.93 0 011.05-.73l2.42.36a.65.65 0 00.74-.56l.78-6.83a.51.5 8.3 00-.42-.56l-1.85-.28a.65.65 0 01-.53-.79q2.28-9.33 3.19-16.52.24-1.92 1.01-3.26a1.48 1.44-85.8 01.71-.63q1.49-.64 1.84-2.1 3.62-15.29 6.31-29.85a.36.36 0 01.72.08q-.26 9.61.24 19.02c.47 8.96.31 18.71 1.22 28.04a.69.68 76.6 01-.42.69c-1.51.6-8.46 3.92-4.25 6.23 6.23 3.43 14.57 1.75 20.92.25q1.1-.26 2.11-1.18a1.33 1.3-19.9 00.41-.85c.26-3.32-3.4-4.24-5.95-4.65a.65.65 0 01-.54-.58c-.8-9-.3-18.99-.66-26.93q-.95-21.1-.56-42.24c.05-2.68-.69-6.04-.38-9.15q.13-1.29.74-.14l2.25 4.24a.92.91 49.4 01-.07.97q-1.73 2.3.41 4.59 3.72 7.89 7.88 15.56c1.66 3.07 2.93 6.81 4.7 10.11 4.4 8.23 8.36 16.64 12.73 24.89a1.34 1.32-4.4 00.77.65l2.55.82a1.24 1.21-1.4 01.76.71q2.93 7.31 6.92 14.09a1.61 1.58-57.3 01.21 1.02l-.26 2.34a1.91 1.81-55.6 00.16 1l2.37 5.03a.99.97 82.9 00.68.54l1.05.23a1.2 1.2 0 01.8.61c4.74 8.84 9.54 17.4 14 26.57q8.04 16.55 16.72 32.84 1.57 4.26 4.11 8.17a.46.45-21.2 01-.31.7l-1.96.31a.67.67 0 00-.5.97l3.1 6.09a.75.75 0 00.99.34l1.41-.68a1.04 1.03 48.3 01.99.06c1.17.74-.78 2.71-1.3 3.41a.77.76 50.9 00-.08.79l2.54 5.59a.5.5 0 00.64.25l1.95-.8a.81.8 65.1 011.03.38l1.9 3.76a.84.83-40.6 01-.07.88q-3.48 4.72 1.34 7.93a1.53 1.48 59.6 00.89.25q7.17-.21 11.31-5.92a1.41 1.38-31.4 00.25-.99q-.64-4.73-5.42-4.88a1.52 1.5-21.2 01-1.02-.44q-1.29-1.3-1.58-3.19a1.11 1.11 0 01.35-.99l1.6-1.45a2.4 2.4 0 00.49-2.9l-2.3-4.24a.63.61 67.8 00-.71-.31l-2.85.73a.65.64 82.6 01-.8-.62v-1.13a.77.77 0 01.6-.76q.88-.21 1.45-.8a.72.71 53.8 00.12-.81l-2.81-5.69a1 1 0 00-.85-.56q-1.21-.06-2.17.76a1.39 1.38-32.4 01-2.15-.48c-5.64-12.13-12.2-23.76-18.09-36.12q-3.23-6.76-6.85-13.32c-2.7-4.91-4.89-10.38-7.6-15.5a.43.43 0 01.28-.62l1.5-.36a.5.5 0 00.31-.74q-1.45-2.44-2.83-4.92c-.69-1.23-1.26-3.41-2.69-4.87a.92.91 61.4 00-.83-.25l-1.55.31a.7.7 0 01-.77-.38l-7.42-15.43a1.92 1.92 0 01-.18-1.01l.27-2.68a1.74 1.68-57 00-.18-.92q-12.85-25.31-25.61-50.68c-1.01-2-3.17-2.27-4.38-4.54q-3.16-5.93-6.18-12.06a.4.4 0 01.32-.57l9.32-.99a.7.69 85.3 00.62-.74l-.35-4.93a.99.99 0 00-.92-.92l-8.05-.64a.48.48 0 01-.44-.49l.1-5.25a.67.67 0 01.57-.64l7.1-1.05a.59.58 87.1 00.5-.56l.2-6.11a1.43 1.43 0 012.03-1.25l5.88 2.76a1.6 1.55-2.2 01.71.64c4.07 7.1 10.12 9.65 16.55 14.33a.98.96 47.2 001.06.05l8-4.79a.95.95 0 00.46-.98l-.8-5.06a1.21 1.21 0 00-.58-.85q-2.69-1.64-5.55-2.87c-5.36-2.31-9.58-4.91-16.02-4.87a1.42 1.37 62.9 01-.9-.31q-3.05-2.4-6.77-3.63a.77.77 0 01-.53-.76q.11-3.7-1.79-6.8a1.3 1.27-7.2 00-.75-.57q-3.47-1.01-3.26-4.55a.32.32 0 01.58-.18l3.06 3.97q.37.47.5-.11c.13-.57-2.1-5.48-2.42-6.57a.34.34 0 01.57-.34q3.77 3.93 9.11 5.18a.33.33 0 00.28-.58c-2.47-1.94-7.15-5.48-7.49-8.85a.49.48-3.9 01.47-.53c15.82-.4 30.99-4.36 46.42-9.56a.38.38 0 01.5.34q.22 4.47-.48 10.93c-.32 2.93 2.95 4.24 4.56 1.57q3.49-5.8 4.49-12.37a.36.36 0 01.7-.03q.42 1.62.66 3.22c.67 4.39 4.83-.41 4.9-2.13q.23-5.77 1.15-11.18a.54.54 0 011.04-.09q2.91 8.26 2.52 16.95c-.13 2.81-.14 4.87 3.02 5.51a.99.99 0 001.17-.79q2.03-10.86 1.73-21.92a.41.41 0 01.76-.21q4.05 7.38 6.01 15.5.23.95 1.62 1.79a.9.89-74.3 01.42.76c0 4.3-.79 7.71 1.89 11.39a1.25 1.25 0 002.14-.21q3.2-6.82 2.96-14.4a.35.35 0 01.67-.13l2.85 7.49a1.59 1.59 0 002.16.87c3.82-1.8.99-6.09.48-9.04a.3.3 0 01.32-.35l4.01.38a1.4 1.4 0 001.53-1.57l-.77-6.18a.42.42 0 01.73-.34q4.39 4.88 9.5 8.98a1.37 1.36-27.6 00.96.3c5.61-.43 8.06 5.73 12.57 5.43 5.59-.36.3-9.15-1.09-11.39q-9.39-15.15-19.15-30.06c-8.85-13.53-19.78-28.99-32.88-40.1-7.52-6.38-16.82-10.15-23.67-17.73-18.2-20.12-44.32-35.94-72.27-34.17-19.16 1.21-38.83 12.24-51.25 26.42-14.31 16.32-18.16 39.76-11.59 60.27a.39.39 0 01-.35.51c-8.11.35-13.72-4.05-15.51-11.68-2.6-11.09 5.34-24.32 11.85-34.6q12.03-19 20.9-39.71c3.41-7.97 4.44-16.92 5.51-25.44 2.51-19.86-19.6-36.66-37.48-37.52-9.18-.44-18.32-1.56-26.4 1.02-14.5 4.64-24.32 16.37-24.06 32.18.06 4.1 3.15 7.73 3.26 12.25q.14 5.65-.28 11.27c-.43 5.85-2.59 11.84-4.02 17.78-1.72 7.09-.76 11.07 3.6 17.13 6.03 8.38 13.08 16.69 23.29 20.03a.43.42-67.8 01.25.6c-5.45 10.71-7.96 21.33-7.55 33.61.83 25.06 12.26 42.69 38.68 44.32q16.02.99 31.48-4.81c3.48-1.3 11.63-2.03 15.01-.44 8.3 3.9 10.59 9.82 13.71 17.86a.77.77 0 01-.82 1.05c-10.41-1.35-13.57 12.6-3.19 16.89a.88.87-79.1 01.54.81v6.73a.66.66 0 00.54.65l7.49 1.38a.54.53-87.3 01.44.49l.3 4.97a1.21 1.21 0 01-1.02 1.27l-6.06.97a.82.82 0 00-.69.81v4.34a.68.68 0 00.65.68l4.58.22a.47.46 10.8 01.42.61c-1.99 5.85-3.86 12.09-8.19 14.88a1.68 1.61 87.4 00-.63.72q-11.43 24.86-22.76 49.77-1.63 3.57-.66 6.26a1.07 1.06 50.3 01-.08.9q-3.22 5.73-5.79 12.82-.71 1.97-2.94 1.78a.86.84 17.3 00-.82.42l-4.69 8.18a.79.79 0 00.13.96l1.28 1.26a.99.97-55.5 01.2 1.11l-29.29 64.35a.82.82 0 01-1.28.29l-1.81-1.49a.52.52 0 00-.79.15q-1.54 2.85-2.75 5.87c-1.32 3.29 2.74 2.72 1.85 5.26a.73.72-76.2 01-.78.48l-2.36-.32a.69.68 19 00-.68.33l-2.88 4.94a.56.56 0 00.16.74l2.49 1.7a.76.75-62.8 01.28.88l-1.57 4.28a1 .99-82.3 01-.83.64l-3.83.36a1.13 1.1 11.3 00-.86.56c-3.84 6.82 4.64 10.69 9.97 10.72a1.29 1.28-66.1 00.87-.34c2.14-2.04 4.4-5.58 1.41-7.83a.67.67 0 01-.21-.81l1.84-4.14a.47.47 0 01.61-.24l3.11 1.29a.8.8 0 001.03-.39l2.16-4.43a.61.6-64.3 00-.27-.8l-1.91-.97a1.39 1.36 89.1 01-.62-.61q-.68-1.31.69-2.07a.98.97 46.3 011.01.03l1.92 1.23a.43.43 0 00.61-.17l3.04-6.16a1.72 1.72 0 00-.58-2.19l-2.52-1.72a.68.68 0 01-.22-.87c7.53-15.19 14.3-30.91 21.02-46.49 3.13-7.25 6.99-12.72 10.05-21.2a1.01 1 88.7 01.57-.6l1.59-.67a1.41 1.37-.3 00.75-.74l1.9-4.5a1.95 1.94 53 00.14-1.02c-.6-4.41 4.08-11.5 5.81-15.86a1.37 1.36 87.5 01.63-.69c4.94-2.57 4.5-6.06 6.81-10.12 5.62-9.86 9.32-20.81 14.64-30.92q.24-.46.14.05-3.48 18.54-7.57 36.98-.25 1.15 1.15 3.59a1.3 1.27 36.3 01.15.91q-1.44 7-2.51 14.07c-.23 1.58-1.37 2.74-1.01 4.88a.61.6 82.3 01-.53.7l-3.49.41a.62.61-88.1 00-.54.51q-.66 3.61-1.36 7.19-.38 1.9 1.98 2.12a1.5 1.5 0 011.34 1.81L268.79 469z"/><path fill="#fae1a8" d="M102.33 34.19a.65.64-76.6 01.57.93c-.51 1.03-1.25 2.47-2.1 3.33-14.13 14.33-28.15 28.73-41.96 43.37q-7.04 7.47-14.5 14.51-.83.79-1.14.92a1.09 1.09 0 01-1.52-.93q-1.19-19.55-1.22-38.82c-.02-13.02 5.9-21.78 19.87-22.47q20.72-1.03 42-.84z"/><path fill="#21201e" d="M385.29 496.3q-1.55-7.1-5.41-13.19c-1.29-2.04-1.33-3.82-2.06-6.05a1.34 1.31 7.3 00-.58-.73q-1.78-1.1-2.4-3.03c-1.7-5.29-4.44-10.15-6.44-15.33-.84-2.16-2.86-4.06-3.74-5.88q-3.79-7.75-8.35-15.08c-2.21-3.55-5.33-4.82-4.63-10.23a1.52 1.48 35.2 00-.17-.93q-3.88-7.09-7.54-14.32-.83-1.63-3.79-2.15a1.05 1.05 0 01-.74-.51c-4.04-7.16-5.91-13.99-10-20.53-4.39-7.03-6.02-14.8-10.75-21.73-1.57-2.3-2.61-4.6-3.91-6.96a.81.79-15.7 00-.75-.41l-.78.05q-2.14-2.29-.41-4.59a.92.91 49.4 00.07-.97l-2.25-4.24q-.61-1.15-.74.14c-.31 3.11.43 6.47.38 9.15q-.39 21.14.56 42.24c.36 7.94-.14 17.93.66 26.93a.65.65 0 00.54.58c2.55.41 6.21 1.33 5.95 4.65a1.33 1.3-19.9 01-.41.85q-1.01.92-2.11 1.18c-6.35 1.5-14.69 3.18-20.92-.25-4.21-2.31 2.74-5.63 4.25-6.23a.69.68 76.6 00.42-.69c-.91-9.33-.75-19.08-1.22-28.04q-.5-9.41-.24-19.02a.36.36 0 00-.72-.08q-2.69 14.56-6.31 29.85-.35 1.46-1.84 2.1a1.48 1.44-85.8 00-.71.63q-.77 1.34-1.01 3.26-.91 7.19-3.19 16.52a.65.65 0 00.53.79l1.85.28a.51.5 8.3 01.42.56l-.78 6.83a.65.65 0 01-.74.56l-2.42-.36a.93.93 0 00-1.05.73L278.96 456c-.82-.51-1.35-.09-1.54.74q-1.41 6.38-2.45 12.82c-1.73 10.67-3.74 19.48-6.12 29.19q-.1.4.01.81.21.82.14 1.67a.38.38 0 00.48.4l.48-.13-2.9 14.54a.72.72 0 00.47.83l2.04.71a.73.73 0 01.47.77l-.65 5.44a.61.61 0 01-.68.54l-3.35-.38q-1.25-.15-.74 1.01l.85 1.96a.73.72 62.2 001.04.33q.98-.6 1.76.09a1.02 1.01-61.4 01.3 1.03l-1.39 5.23a.68.68 0 01-.8.49l-1.95-.41a.79.79 0 00-.92.53l-.8 2.44a.67.66-67.2 00.32.79c4.03 2.16 3.71 6.73-.5 8.3-4.15 1.55-14.21.32-11.55-6.51.76-1.96 2.33-2.31 4.19-2.64a.64.63 88.8 00.52-.55l.34-2.92a.78.78 0 00-.61-.85l-2.63-.59a.57.57 0 01-.44-.69l1.45-6.25a.65.64 10.2 01.72-.49l1.93.29a.65.64 7.2 00.74-.57q.23-2.17-1.89-2.4a.67.67 0 01-.59-.77l.99-6.45a.57.56-74.5 01.77-.44l2.07.86a.57.56 20.4 00.75-.34c2.41-7.31 3.05-14.84 4.75-21.18 1.07.15 1.63-.3 1.84-1.37q2.14-10.8 4.11-21.62c.14-.78-.33-1.48-1.2-1.26l5.33-25.07a1.5 1.5 0 00-1.34-1.81q-2.36-.22-1.98-2.12.7-3.58 1.36-7.19a.62.61-88.1 01.54-.51l3.49-.41a.61.6 82.3 00.53-.7c-.36-2.14.78-3.3 1.01-4.88q1.07-7.07 2.51-14.07a1.3 1.27 36.3 00-.15-.91q-1.4-2.44-1.15-3.59 4.09-18.44 7.57-36.98.1-.51-.14-.05c-5.32 10.11-9.02 21.06-14.64 30.92-2.31 4.06-1.87 7.55-6.81 10.12a1.37 1.36 87.5 00-.63.69c-1.73 4.36-6.41 11.45-5.81 15.86a1.95 1.94 53 01-.14 1.02l-1.9 4.5a1.41 1.37-.3 01-.75.74l-1.59.67a1.01 1 88.7 00-.57.6c-3.06 8.48-6.92 13.95-10.05 21.2-6.72 15.58-13.49 31.3-21.02 46.49a.68.68 0 00.22.87l2.52 1.72a1.72 1.72 0 01.58 2.19l-3.04 6.16a.43.43 0 01-.61.17l-1.92-1.23a.98.97 46.3 00-1.01-.03q-1.37.76-.69 2.07a1.39 1.36 89.1 00.62.61l1.91.97a.61.6-64.3 01.27.8l-2.16 4.43a.8.8 0 01-1.03.39l-3.11-1.29a.47.47 0 00-.61.24l-1.84 4.14a.67.67 0 00.21.81c2.99 2.25.73 5.79-1.41 7.83a1.29 1.28-66.1 01-.87.34c-5.33-.03-13.81-3.9-9.97-10.72a1.13 1.1 11.3 01.86-.56l3.83-.36a1 .99-82.3 00.83-.64l1.57-4.28a.76.75-62.8 00-.28-.88l-2.49-1.7a.56.56 0 01-.16-.74l2.88-4.94a.69.68 19 01.68-.33l2.36.32a.73.72-76.2 00.78-.48c.89-2.54-3.17-1.97-1.85-5.26q1.21-3.02 2.75-5.87a.52.52 0 01.79-.15l1.81 1.49a.82.82 0 001.28-.29l29.29-64.35a.99.97-55.5 00-.2-1.11l-1.28-1.26a.79.79 0 01-.13-.96l4.69-8.18a.86.84 17.3 01.82-.42q2.23.19 2.94-1.78 2.57-7.09 5.79-12.82a1.07 1.06 50.3 00.08-.9q-.97-2.69.66-6.26 11.33-24.91 22.76-49.77a1.68 1.61 87.4 01.63-.72c4.33-2.79 6.2-9.03 8.19-14.88a.47.46 10.8 00-.42-.61l-4.58-.22a.68.68 0 01-.65-.68v-4.34a.82.82 0 01.69-.81l6.06-.97a1.21 1.21 0 001.02-1.27l-.3-4.97a.54.53-87.3 00-.44-.49l-7.49-1.38a.66.66 0 01-.54-.65v-6.73a.88.87-79.1 00-.54-.81c-10.38-4.29-7.22-18.24 3.19-16.89a.77.77 0 00.82-1.05c-3.12-8.04-5.41-13.96-13.71-17.86-3.38-1.59-11.53-.86-15.01.44q-15.46 5.8-31.48 4.81c-26.42-1.63-37.85-19.26-38.68-44.32-.41-12.28 2.1-22.9 7.55-33.61a.43.42-67.8 00-.25-.6c-10.21-3.34-17.26-11.65-23.29-20.03-4.36-6.06-5.32-10.04-3.6-17.13 1.43-5.94 3.59-11.93 4.02-17.78q.42-5.62.28-11.27c-.11-4.52-3.2-8.15-3.26-12.25-.26-15.81 9.56-27.54 24.06-32.18 8.08-2.58 17.22-1.46 26.4-1.02 17.88.86 39.99 17.66 37.48 37.52-1.07 8.52-2.1 17.47-5.51 25.44q-8.87 20.71-20.9 39.71c-6.51 10.28-14.45 23.51-11.85 34.6 1.79 7.63 7.4 12.03 15.51 11.68a.39.39 0 00.35-.51c-6.57-20.51-2.72-43.95 11.59-60.27 12.42-14.18 32.09-25.21 51.25-26.42 27.95-1.77 54.07 14.05 72.27 34.17 6.85 7.58 16.15 11.35 23.67 17.73 13.1 11.11 24.03 26.57 32.88 40.1q9.76 14.91 19.15 30.06c1.39 2.24 6.68 11.03 1.09 11.39-4.51.3-6.96-5.86-12.57-5.43a1.37 1.36-27.6 01-.96-.3q-5.11-4.1-9.5-8.98a.42.42 0 00-.73.34l.77 6.18a1.4 1.4 0 01-1.53 1.57l-4.01-.38a.3.3 0 00-.32.35c.51 2.95 3.34 7.24-.48 9.04a1.59 1.59 0 01-2.16-.87l-2.85-7.49a.35.35 0 00-.67.13q.24 7.58-2.96 14.4a1.25 1.25 0 01-2.14.21c-2.68-3.68-1.89-7.09-1.89-11.39a.9.89-74.3 00-.42-.76q-1.39-.84-1.62-1.79-1.96-8.12-6.01-15.5a.41.41 0 00-.76.21q.3 11.06-1.73 21.92a.99.99 0 01-1.17.79c-3.16-.64-3.15-2.7-3.02-5.51q.39-8.69-2.52-16.95a.54.54 0 00-1.04.09q-.92 5.41-1.15 11.18c-.07 1.72-4.23 6.52-4.9 2.13q-.24-1.6-.66-3.22a.36.36 0 00-.7.03q-1 6.57-4.49 12.37c-1.61 2.67-4.88 1.36-4.56-1.57q.7-6.46.48-10.93a.38.38 0 00-.5-.34c-15.43 5.2-30.6 9.16-46.42 9.56a.49.48-3.9 00-.47.53c.34 3.37 5.02 6.91 7.49 8.85a.33.33 0 01-.28.58q-5.34-1.25-9.11-5.18a.34.34 0 00-.57.34c.32 1.09 2.55 6 2.42 6.57q-.13.58-.5.11l-3.06-3.97a.32.32 0 00-.58.18q-.21 3.54 3.26 4.55a1.3 1.27-7.2 01.75.57q1.9 3.1 1.79 6.8a.77.77 0 00.53.76q3.72 1.23 6.77 3.63a1.42 1.37 62.9 00.9.31c6.44-.04 10.66 2.56 16.02 4.87q2.86 1.23 5.55 2.87a1.21 1.21 0 01.58.85l.8 5.06a.95.95 0 01-.46.98l-8 4.79a.98.96 47.2 01-1.06-.05c-6.43-4.68-12.48-7.23-16.55-14.33a1.6 1.55-2.2 00-.71-.64l-5.88-2.76a1.43 1.43 0 00-2.03 1.25l-.2 6.11a.59.58 87.1 01-.5.56l-7.1 1.05a.67.67 0 00-.57.64l-.1 5.25a.48.48 0 00.44.49l8.05.64a.99.99 0 01.92.92l.35 4.93a.7.69 85.3 01-.62.74l-9.32.99a.4.4 0 00-.32.57q3.02 6.13 6.18 12.06c1.21 2.27 3.37 2.54 4.38 4.54q12.76 25.37 25.61 50.68a1.74 1.68-57 01.18.92l-.27 2.68a1.92 1.92 0 00.18 1.01l7.42 15.43a.7.7 0 00.77.38l1.55-.31a.92.91 61.4 01.83.25c1.43 1.46 2 3.64 2.69 4.87q1.38 2.48 2.83 4.92a.5.5 0 01-.31.74l-1.5.36a.43.43 0 00-.28.62c2.71 5.12 4.9 10.59 7.6 15.5q3.62 6.56 6.85 13.32c5.89 12.36 12.45 23.99 18.09 36.12a1.39 1.38-32.4 002.15.48q.96-.82 2.17-.76a1 1 0 01.85.56l2.81 5.69a.72.71 53.8 01-.12.81q-.57.59-1.45.8a.77.77 0 00-.6.76v1.13a.65.64 82.6 00.8.62l2.85-.73a.63.61 67.8 01.71.31l2.3 4.24a2.4 2.4 0 01-.49 2.9l-1.6 1.45a1.11 1.11 0 00-.35.99q.29 1.89 1.58 3.19a1.52 1.5-21.2 001.02.44q4.78.15 5.42 4.88a1.41 1.38-31.4 01-.25.99q-4.14 5.71-11.31 5.92a1.53 1.48 59.6 01-.89-.25q-4.82-3.21-1.34-7.93a.84.83-40.6 00.07-.88l-1.9-3.76a.81.8 65.1 00-1.03-.38l-1.95.8a.5.5 0 01-.64-.25l-2.54-5.59a.77.76 50.9 01.08-.79c.52-.7 2.47-2.67 1.3-3.41a1.04 1.03 48.3 00-.99-.06l-1.41.68a.75.75 0 01-.99-.34l-3.1-6.09a.67.67 0 01.5-.97l1.96-.31a.46.45-21.2 00.31-.7q-2.54-3.91-4.11-8.17zM200.21 119.5c.29-2.66-1.34-4.4-2.78-6.6 3.88-2.24 5.07-5.5 9.57-7.44 9.72.07 20.83 1.12 26.82 6.22 5.22 4.43 9.62 14.27 9.82 21.78q.24 9.06-2.1 18.55-.05.22.08.32a.25.25 0 00.39-.1q2.95-7.13 4.82-14.6c.38-1.52.45-8.04 2.61-8.32a.4.39 88.9 01.44.43q-1.29 16.89-7.88 32.47-.28.66.21.13c2.48-2.67 4.49-10.36 5.1-12.6 3.81-13.92 9.69-24.47-.52-37.74-9.34-12.86-23.09-15.72-38.17-15.94-18.85-.28-36.84 12.34-31.39 33.52q1.24 4.8 1.37 6.84c.79 12.18-2.17 21.4-5.25 33.08a.58.58 0 001.07.42c3.27-6.1 6.03-13.48 9.09-18.74 3.13-5.4 7.21-12.21 12.3-15.93a.98.95-19.4 00.39-.79q-.04-2.07 1.87-4.34 3.58-4.26 2.14-10.62zm33.43 18.85c1.98-6.27-3.22-24.06-12.94-19.09a1.06 1.03 83.5 00-.55.71c-2.21 9.44-7.1 20.13-15.21 25.96-6.07 4.35-9.27 7.38-9.38 14.81q-.01.49-.23.93-.48.96-.65 2.01c-1.82 11.77-3.42 25.63 1.64 36.82a.48.48 0 00.87.01q2.42-5.21 5.53-10.35 12.18-20.11 25.4-39.56 3.1-4.55 5.52-12.25zm-50.42 27.14c-.59 2.57 2.18 4.28 4.08 5.31a.38.38 0 00.55-.26c.78-3.48.97-7.55 1.53-10.46q1.75-9.25 5.47-18.23a.37.36 74.6 00-.63-.36q-7.93 10.68-11 24zm59.49 29.76c-.43.31-.86.67-1.08 1.18q-6.87 15.77-3.62 32.83c.42 2.19 3.22 13.25 5.81 8.16 2.62-1.56 3.75-3.39 3.49-6.62q-.72-9.02.14-13.05c3.52-16.63 16.28-36.18 34.54-37.98q5.08.4 8.42 3.97a1.4 1.38-18.9 00.92.44q7.96.55 13.13 6.42a1.64 1.62-14.5 00.9.52c12.6 2.39 17.82 9.31 24.81 19.24q.46.66.16-.09-5.02-12.27-13.56-22.37-.35-.42.09-.1l8.85 6.45 3.08 3.75q3.86 5.14 5.8 11.27a.7.69 80.3 00.67.48h.45a.54.54 0 00.52-.7q-.54-1.79-.24-3.67a1.15 1.14 32.2 00-.2-.86l-.46-.65a.61.61 0 01.1-.83q.72-.61.73-1.55c.08-8.4-2.22-15.85-7.63-22.22q-1.63-1.91-1.48-4.61 1.64 2.58 4.86 4.26l5.88 8.15c.77 2.78.8 4.77 2.69 7.2q4.11 5.24 6.9 11.57l3.29 7.03q.24.52.52.02c5.39-9.95 4.19-19.14-2.94-27.57q-1.66-1.96-2.04-4.57c2.41 3.12 5.22 5.63 7.64 8.73q.98 1.25 2.48 2.37.93 3.82 3.42 7.22a1.12 1.11-58.1 01.2.87c-.33 2.01 1.25 4.25 1.37 6.63q.11 2.05.73 3.58 3.95 9.68 7.1 20.18a.45.45 0 00.89-.15c-.39-9.53-3.28-17.18-6.01-26.17q-1.27-4.21-2.6-8.38 2.29 2.77 4.47 5.32c2.56 2.99 4.6 6.78 7.39 9.99l5.57 9.61q.3.52.18-.07-1.2-5.87-2.39-11.77c-1.58-7.87-7.14-15.29-13.4-20.42l-4.5-4.83q-5.43-6.4-13.21-10.32c-2.67-3.98-17.8-11.37-22.6-11.86l-4.19-.99c-7.85-2.87-16.36-3-24.55-2.15-21.26 2.2-43.54 16.86-51.49 37.11zm97.96 11.14c.43 2.67-.14 5.1-.66 7.66a1.02 1.01-63 00.31.96l5.11 4.54q.63.56.57-.28-.62-8.97-4.15-17.24c-.29-.66-1.17-4.67-1.47-4.73a.45.44 4.2 00-.53.45q.11 4.36.82 8.64zm70.37 35.36c2.87 4.15 4.51 8.94 7.85 12.57q8.64 9.39 18.43 18.73a.53.53 0 00.81-.67c-11.36-17.3-22.23-34.89-35.34-51.13q-8.16-11.27-19.29-19a.33.33 0 00-.44.48q13.53 16.17 24.04 33.43 1.78 2.93 3.94 5.59zm-55.83-27.25q-3.09 3.55-.25 7.25l.88 2.69a.48.48 0 00.93-.14l.41-18.55q.04-1.49-.25-.02l-1.72 8.77zm36.5 25.53a.6.59-33.3 00.11-.51q-3.33-12.49-9.34-23.93-.38-.72-.26.08 1 6.55 1.84 13.15c.62 4.89 2.44 8.18 4.92 12.18a1.15 1.15 0 001.87.11l.86-1.08zm-2.96-20.04l9.2 22.74a.5.5 0 00.96-.28q-1.11-5.77-3.01-11.66c-1.35-4.19-4.3-7.36-6.71-11.03a.25.25 0 00-.44.23zm-28.01 3.93q-.54 3.01-1.18 5.82c-.6 2.65-2.79 4.84.54 7.32a.53.53 0 00.73-.09c3.48-4.26 1.9-8.2 1.05-13.05a.58.58 0 00-1.14 0zm43.5 23.43a.74.74 0 001.06-.25c.97-1.72-3.73-9.68-4.91-11.42q-.28-.42-.15.06c.6 2.2 2.51 10.6 4 11.61zM295.5 311.54l-1.5-.08-4.83-.12a.59.59 0 00-.6.6l.06 3.01a.71.69-78.6 00.4.62c3.84 1.77 9.09.82 13.29 1.02a.54.53-.5 00.56-.56l-.18-3.55a.66.66 0 00-.63-.64l-6.57-.3zm13.677.526a.86.86 0 00-.905-.812l-1.079.059a.86.86 0 00-.812.905l.162 2.995a.86.86 0 00.905.813l1.079-.059a.86.86 0 00.812-.905l-.162-2.995zm-6.927 15.144q1.08.21 2.16-.08a.57.56 83.6 00.41-.52l.12-4.48a.43.43 0 00-.47-.44l-3.51.31q-.85-.42-1.84-.39a.66.65-1.7 00-.64.67l.08 4.96a.52.52 0 00.61.5l3.08-.53zm.17 20.23c.55 24.01.02 48.04.65 72.08a.67.67 0 00.52.64c.9.22 1.5-.78 1.54-1.62.39-7.87-.24-18.12-.32-23.5q-.43-28.48-1.21-56.98-.02-.52-.15-.02-1.14 4.62-1.03 9.4z"/><path fill="#fff" d="M246.79 112c.66 6.27 2.98 9.7 1.23 16.42a.44.43-74.2 01-.54.31c-.25-.07-.45-.6-.45-.9q.08-3.35-2.33-7.84-9.13-16.96-27.45-18.91-6.7-.72-10.25 4.38c-4.5 1.94-5.69 5.2-9.57 7.44q2.28-3.19 4.06-6.6c1.21-2.32 2.76-3.3 4.82-4.62q.42-.26-.07-.21c-13.44 1.55-35.48 14.83-26.74 31.36a1.26 1.25 39.2 01.1.96l-.17.55a.57.57 0 00.74.7l8.22-2.99a.74.74 0 00.38-1.07q-3.08-5.27-.76-10.98a1.33 1.32 88.9 01.7-.73q5.75-2.63 11.5.23 1.44 6.36-2.14 10.62-1.91 2.27-1.87 4.34a.98.95-19.4 01-.39.79c-5.09 3.72-9.17 10.53-12.3 15.93-3.06 5.26-5.82 12.64-9.09 18.74a.58.58 0 01-1.07-.42c3.08-11.68 6.04-20.9 5.25-33.08q-.13-2.04-1.37-6.84c-5.45-21.18 12.54-33.8 31.39-33.52 15.08.22 28.83 3.08 38.17 15.94zm-52.168 16.32a3.24 3.02 88.9 002.957-3.298 3.24 3.02 88.9 00-3.081-3.181 3.24 3.02 88.9 00-2.957 3.297 3.24 3.02 88.9 003.081 3.181zm-12.502 15.53c-1.98 1.18-1.55 4.74.69 3.75a1.73 1.67-86.7 00.8-.74q2.84-5.2 3.12-11.17.13-2.69-.63-.11-1.18 4-3.25 7.55-.27.45-.73.72z"/><path fill="#959697" d="M246.79 112c10.21 13.27 4.33 23.82.52 37.74-.61 2.24-2.62 9.93-5.1 12.6q-.49.53-.21-.13 6.59-15.58 7.88-32.47a.4.39 88.9 00-.44-.43c-2.16.28-2.23 6.8-2.61 8.32q-1.87 7.47-4.82 14.6a.25.25 0 01-.39.1q-.13-.1-.08-.32 2.34-9.49 2.1-18.55c-.2-7.51-4.6-17.35-9.82-21.78-5.99-5.1-17.1-6.15-26.82-6.22q3.55-5.1 10.25-4.38 18.32 1.95 27.45 18.91 2.41 4.49 2.33 7.84c0 .3.2.83.45.9a.44.43-74.2 00.54-.31c1.75-6.72-.57-10.15-1.23-16.42zM197.43 112.9c1.44 2.2 3.07 3.94 2.78 6.6q-5.75-2.86-11.5-.23a1.33 1.32 88.9 00-.7.73q-2.32 5.71.76 10.98a.74.74 0 01-.38 1.07l-8.22 2.99a.57.57 0 01-.74-.7l.17-.55a1.26 1.25 39.2 00-.1-.96c-8.74-16.53 13.3-29.81 26.74-31.36q.49-.05.07.21c-2.06 1.32-3.61 2.3-4.82 4.62q-1.78 3.41-4.06 6.6z"/><path fill="#fdfddf" d="M220.7 119.26c9.72-4.97 14.92 12.82 12.94 19.09q-2.42 7.7-5.52 12.25-13.22 19.45-25.4 39.56-3.11 5.14-5.53 10.35a.48.48 0 01-.87-.01c-5.06-11.19-3.46-25.05-1.64-36.82q.17-1.05.65-2.01.22-.44.23-.93c.11-7.43 3.31-10.46 9.38-14.81 8.11-5.83 13-16.52 15.21-25.96a1.06 1.03 83.5 01.55-.71z"/><path d="M194.622 128.32a3.24 3.02 88.9 01-3.081-3.182 3.24 3.02 88.9 012.957-3.297 3.24 3.02 88.9 013.081 3.181 3.24 3.02 88.9 01-2.957 3.297zm1.068-3.82a1.57 1.57 0 00-1.57-1.57 1.57 1.57 0 00-1.57 1.57 1.57 1.57 0 001.57 1.57 1.57 1.57 0 001.57-1.57z"/><circle fill="#fff" cx="194.12" cy="124.5" r="1.57"/><path d="M182.85 143.13q2.07-3.55 3.25-7.55.76-2.58.63.11-.28 5.97-3.12 11.17a1.73 1.67-86.7 01-.8.74c-2.24.99-2.67-2.57-.69-3.75q.46-.27.73-.72z"/><path fill="#fff" d="M187.3 170.8c-1.9-1.03-4.67-2.74-4.08-5.31q3.07-13.32 11-24a.37.36 74.6 01.63.36q-3.72 8.98-5.47 18.23c-.56 2.91-.75 6.98-1.53 10.46a.38.38 0 01-.55.26zM318.75 160.29l.31.56q.24.44.64.73 9.14 6.48 12.21 17.34-3.22-1.68-4.86-4.26c-3.2-3.74-15.1-13.92-20.27-12.69q-.5.11-.03.32c9.27 3.95 13.52 13.92 14.76 23.31q.05.42.31.76l.22.3q.49.64-.3.5c-1.86-.35-6.61-5.52-8.14-7.05a1.78 1.73 15.8 01-.48-.83c-.79-3.18-1.66-5.47-4.71-7.28-4.1-2.45-5.93-4.51-11.23-4.77a.5.5 0 00-.17.98c3.91 1.19 10.77 5.98 11.27 10.66q.06.57-.42.25-10.43-6.92-22.9-3.86-.72.18.01.32 2.57.48 5.16.84c3.17.44 4.92 2.1 7.5 3.89a.43.43 0 01-.38.76q-7.25-2.4-15.26-1.3c-18.26 1.8-31.02 21.35-34.54 37.98q-.86 4.03-.14 13.05c.26 3.23-.87 5.06-3.49 6.62l1.9-4.63q.16-.41.15-.85l-.17-7a1.68 1.64 28.6 00-.27-.87c-2.36-3.63-4.47-5.98-3.57-11.08a.56.56 0 01.81-.41l.54.28a.8.8 0 01.43.69q.07 4.08 1.54 7.93a.39.39 0 00.75-.14c-.07-4.39.06-8.34 2.32-12.37q3.71-6.63 6.46-13.69c2.33-5.97 5.87-9.67 11-12.97a.37.36 44.5 00-.01-.62c-1.51-.91-12.57 8.19-14.3 9.86-4.53 4.37-6.56 9.32-7.47 15.32a.37.37 0 01-.73-.04l-.49-11.58c7.95-20.25 30.23-34.91 51.49-37.11 8.19-.85 16.7-.72 24.55 2.15z"/><path fill="#959697" d="M318.75 160.29l4.19.99q4.48 3.19 8.42 7.01 3.29 3.19 5.71 4.9c3.25 2.28 6.87 4.05 9.14 7.56q.38 2.61 2.04 4.57c7.13 8.43 8.33 17.62 2.94 27.57q-.28.5-.52-.02l-3.29-7.03q.68-9.14-1.98-17.85-.97-3.15-1.92-4.23c-1.36-1.55-7.19-10.1-8.23-10.37q-.53-.14-.32.37 2.69 6.38 2.86 13.31l-5.88-8.15q-3.07-10.86-12.21-17.34-.4-.29-.64-.73l-.31-.56z"/><path fill="#fff" d="M322.94 161.28c4.8.49 19.93 7.88 22.6 11.86q7.2 8.39 10.79 18.71-1.5-1.12-2.48-2.37c-2.42-3.1-5.23-5.61-7.64-8.73-2.27-3.51-5.89-5.28-9.14-7.56q-2.42-1.71-5.71-4.9-3.94-3.82-8.42-7.01z"/><path fill="#959697" d="M327.05 174.66q-.15 2.7 1.48 4.61c5.41 6.37 7.71 13.82 7.63 22.22q-.01.94-.73 1.55a.61.61 0 00-.1.83l.46.65a1.15 1.14 32.2 01.2.86q-.3 1.88.24 3.67a.54.54 0 01-.52.7h-.45a.7.69 80.3 01-.67-.48q-1.94-6.13-5.8-11.27h.27a.3.3 0 00.3-.27l1.37-9.86a1.55 1.53 36.5 00-.14-.9c-.76-1.56-6.06-12.84-7.33-12.39a.52.52 0 00-.3.7c2.95 6.8 2.2 11.86 2.75 18.97l-8.85-6.45q-.44-.32-.09.1 8.54 10.1 13.56 22.37.3.75-.16.09c-6.99-9.93-12.21-16.85-24.81-19.24a1.64 1.62-14.5 01-.9-.52q-5.17-5.87-13.13-6.42a1.4 1.38-18.9 01-.92-.44q-3.34-3.57-8.42-3.97 8.01-1.1 15.26 1.3a.43.43 0 00.38-.76c-2.58-1.79-4.33-3.45-7.5-3.89q-2.59-.36-5.16-.84-.73-.14-.01-.32 12.47-3.06 22.9 3.86.48.32.42-.25c-.5-4.68-7.36-9.47-11.27-10.66a.5.5 0 01.17-.98c5.3.26 7.13 2.32 11.23 4.77 3.05 1.81 3.92 4.1 4.71 7.28a1.78 1.73 15.8 00.48.83c1.53 1.53 6.28 6.7 8.14 7.05q.79.14.3-.5l-.22-.3q-.26-.34-.31-.76c-1.24-9.39-5.49-19.36-14.76-23.31q-.47-.21.03-.32c5.17-1.23 17.07 8.95 20.27 12.69zM345.54 173.14q7.78 3.92 13.21 10.32l-.69.14a.39.38-22.6 00-.25.59q3.42 5.19 3.62 11.44 1.33 4.17 2.6 8.38c2.73 8.99 5.62 16.64 6.01 26.17a.45.45 0 01-.89.15q-3.15-10.5-7.1-20.18-.62-1.53-.73-3.58c-.12-2.38-1.7-4.62-1.37-6.63a1.12 1.11-58.1 00-.2-.87q-2.49-3.4-3.42-7.22-3.59-10.32-10.79-18.71z"/><path fill="#fff" d="M347.38 205.84q-2.79-6.33-6.9-11.57c-1.89-2.43-1.92-4.42-2.69-7.2q-.17-6.93-2.86-13.31-.21-.51.32-.37c1.04.27 6.87 8.82 8.23 10.37q.95 1.08 1.92 4.23 2.66 8.71 1.98 17.85zM328.79 198l-3.08-3.75c-.55-7.11.2-12.17-2.75-18.97a.52.52 0 01.3-.7c1.27-.45 6.57 10.83 7.33 12.39a1.55 1.53 36.5 01.14.9l-1.37 9.86a.3.3 0 01-.3.27h-.27z"/><path fill="#959697" d="M243.82 237.42c-2.59 5.09-5.39-5.97-5.81-8.16q-3.25-17.06 3.62-32.83c.22-.51.65-.87 1.08-1.18l.49 11.58a.37.37 0 00.73.04c.91-6 2.94-10.95 7.47-15.32 1.73-1.67 12.79-10.77 14.3-9.86a.37.36 44.5 01.01.62c-5.13 3.3-8.67 7-11 12.97q-2.75 7.06-6.46 13.69c-2.26 4.03-2.39 7.98-2.32 12.37a.39.39 0 01-.75.14q-1.47-3.85-1.54-7.93a.8.8 0 00-.43-.69l-.54-.28a.56.56 0 00-.81.41c-.9 5.1 1.21 7.45 3.57 11.08a1.68 1.64 28.6 01.27.87l.17 7q.01.44-.15.85l-1.9 4.63z"/><path fill="#fff" d="M358.75 183.46l4.5 4.83c2.09 5.41 5.61 10.39 7.51 15.32q1.38 3.62 2.53 7.33c-2.79-3.21-4.83-7-7.39-9.99q-2.18-2.55-4.47-5.32-.2-6.25-3.62-11.44a.39.38-22.6 01.25-.59l.69-.14z"/><path fill="#959697" d="M363.25 188.29c6.26 5.13 11.82 12.55 13.4 20.42q1.19 5.9 2.39 11.77.12.59-.18.07l-5.57-9.61q-1.15-3.71-2.53-7.33c-1.9-4.93-5.42-9.91-7.51-15.32zM340.67 206.39q-.71-4.28-.82-8.64a.45.44 4.2 01.53-.45c.3.06 1.18 4.07 1.47 4.73q3.53 8.27 4.15 17.24.06.84-.57.28l-5.11-4.54a1.02 1.01-63 01-.31-.96c.52-2.56 1.09-4.99.66-7.66z"/><path fill="#fff" d="M402.79 221.25l-.03.27a1.38 1.36-55.4 00.13.74l8.79 18.17a1.06.93 35.6 01.1.43q.01.96-.74.89-2.16-2.66-3.94-5.59-10.51-17.26-24.04-33.43a.33.33 0 01.44-.48q11.13 7.73 19.29 19z"/><path fill="#fdfddf" d="M354.96 221.75q2.19-3.56.25-7.25l1.72-8.77q.29-1.47.25.02l-.41 18.55a.48.48 0 01-.93.14l-.88-2.69z"/><path fill="#959697" d="M355.21 214.5q1.94 3.69-.25 7.25-2.84-3.7.25-7.25zM391.71 240.03l-.86 1.08a1.15 1.15 0 01-1.87-.11c-2.48-4-4.3-7.29-4.92-12.18q-.84-6.6-1.84-13.15-.12-.8.26-.08 6.01 11.44 9.34 23.93a.6.59-33.3 01-.11.51zM388.75 219.99a.25.25 0 01.44-.23c2.41 3.67 5.36 6.84 6.71 11.03q1.9 5.89 3.01 11.66a.5.5 0 01-.96.28l-9.2-22.74zM402.79 221.25c13.11 16.24 23.98 33.83 35.34 51.13a.53.53 0 01-.81.67q-9.79-9.34-18.43-18.73c-3.34-3.63-4.98-8.42-7.85-12.57q.75.07.74-.89a1.06.93 35.6 00-.1-.43l-8.79-18.17a1.38 1.36-55.4 01-.13-.74l.03-.27zM360.74 223.92a.58.58 0 011.14 0c.85 4.85 2.43 8.79-1.05 13.05a.53.53 0 01-.73.09c-3.33-2.48-1.14-4.67-.54-7.32q.64-2.81 1.18-5.82zM404.24 247.35c-1.49-1.01-3.4-9.41-4-11.61q-.13-.48.15-.06c1.18 1.74 5.88 9.7 4.91 11.42a.74.74 0 01-1.06.25zM294 311.46q-1.35 1.49-1.71 3.69a.72.72 0 00.61.82l2.33.33a.82.8 12.9 00.88-.54q.79-2.33-.61-4.22l6.57.3a.66.66 0 01.63.64l.18 3.55a.54.53-.5 01-.56.56c-4.2-.2-9.45.75-13.29-1.02a.71.69-78.6 01-.4-.62l-.06-3.01a.59.59 0 01.6-.6l4.83.12z"/><rect fill="#959697" x="-1.4" y="-2.36" transform="rotate(-3.1 5949.37 -5531.817)" width="2.8" height="4.72" rx=".86"/><path fill="#fff" d="M294 311.46l1.5.08q1.4 1.89.61 4.22a.82.8 12.9 01-.88.54l-2.33-.33a.72.72 0 01-.61-.82q.36-2.2 1.71-3.69zM300.96 322q-.08 2.83 1.29 5.21l-3.08.53a.52.52 0 01-.61-.5l-.08-4.96a.66.65-1.7 01.64-.67q.99-.03 1.84.39z"/><path fill="#959697" d="M302.25 327.21q-1.37-2.38-1.29-5.21l3.51-.31a.43.43 0 01.47.44l-.12 4.48a.57.56 83.6 01-.41.52q-1.08.29-2.16.08zM302.42 347.44q-.11-4.78 1.03-9.4.13-.5.15.02.78 28.5 1.21 56.98c.08 5.38.71 15.63.32 23.5-.04.84-.64 1.84-1.54 1.62a.67.67 0 01-.52-.64c-.63-24.04-.1-48.07-.65-72.08z"/><path fill="#fff" d="M4.29 344.25q.35.33.46.82a.91.9-85.1 00.54.65q2.98 1.26 2.89 5.22-.13 5.58.2 12.55c.48 9.73.04 19.23.48 29.7.52 12.14-.24 27.75.59 41.52q.48 7.98.93 15.95c.18 3.06-.15 6.69-.01 10.34q1.03 27.74.48 59.32c-.16 8.6.8 17.74.8 26.33 0 12.64.3 22.84 9.46 32.26.76.79 7.62 5.54 5.39 7.3l-21.69-.02a.5.5 0 01-.5-.5l-.02-241.44z"/><path d="M313.25 359.29l.78-.05a.81.79-15.7 01.75.41c1.3 2.36 2.34 4.66 3.91 6.96 4.73 6.93 6.36 14.7 10.75 21.73 4.09 6.54 5.96 13.37 10 20.53a1.05 1.05 0 00.74.51q2.96.52 3.79 2.15 3.66 7.23 7.54 14.32a1.52 1.48 35.2 01.17.93c-.7 5.41 2.42 6.68 4.63 10.23q4.56 7.33 8.35 15.08c.88 1.82 2.9 3.72 3.74 5.88 2 5.18 4.74 10.04 6.44 15.33q.62 1.93 2.4 3.03a1.34 1.31 7.3 01.58.73c.73 2.23.77 4.01 2.06 6.05q3.86 6.09 5.41 13.19-8.68-16.29-16.72-32.84c-4.46-9.17-9.26-17.73-14-26.57a1.2 1.2 0 00-.8-.61l-1.05-.23a.99.97 82.9 01-.68-.54l-2.37-5.03a1.91 1.81-55.6 01-.16-1l.26-2.34a1.61 1.58-57.3 00-.21-1.02q-3.99-6.78-6.92-14.09a1.24 1.21-1.4 00-.76-.71l-2.55-.82a1.34 1.32-4.4 01-.77-.65c-4.37-8.25-8.33-16.66-12.73-24.89-1.77-3.3-3.04-7.04-4.7-10.11q-4.16-7.67-7.88-15.56zM278.96 456q-3.96 22.86-9 45.5l-.48.13a.38.38 0 01-.48-.4q.07-.85-.14-1.67-.11-.41-.01-.81c2.38-9.71 4.39-18.52 6.12-29.19q1.04-6.44 2.45-12.82c.19-.83.72-1.25 1.54-.74zM268.79 469c.87-.22 1.34.48 1.2 1.26q-1.97 10.82-4.11 21.62c-.21 1.07-.77 1.52-1.84 1.37l4.75-24.25z"/><path fill="#21201e" d="M26.69 591H1.44q12.62-.63 25.25 0zM487.44 591h-5.75q2.87-.63 5.75 0zM519.44 591h-5.75q2.87-.63 5.75 0zM536.44 591h-16.75q8.37-.63 16.75 0z"/><path fill="#959697" d="M555.44 591h-4.75q2.37-.63 4.75 0z"/><path fill="#21201e" d="M571.19 591h-5.5q2.75-.63 5.5 0z"/></svg>