<svg xmlns="http://www.w3.org/2000/svg" viewBox="0 0 591 591"><g stroke-width="2" fill="none"><path stroke="#7e7f71" vector-effect="non-scaling-stroke" d="M590.31 0l-.04 589.6a.64.64 0 01-.64.64q-290.66.03-581.62 0c-2.25 0-5.18-.26-7.76-.2"/><path stroke="#0f0e0e" vector-effect="non-scaling-stroke" d="M.25 590.04l-.25-.1"/><path stroke="#7e7f71" vector-effect="non-scaling-stroke" d="M4.29 17.75v568a.5.5 0 00.5.5h580.92a.5.5 0 00.5-.5l.03-569.76"/><path stroke="gray" vector-effect="non-scaling-stroke" d="M586.24 15.99l-.04-11.27a.48.47 0 00-.48-.47H4.78a.48.48 0 00-.48.48l-.01 13.02"/><path stroke="#fdfff0" vector-effect="non-scaling-stroke" d="M586.24 15.99q-7.71-3.66-16.25-2.13a.48.48 0 00.08.95l8.18.12a.61.61 0 01.27 1.15c-1.04.54-9.98-.27-11.66-.55q-.49-.08-.89-.38c-1.65-1.27-3.6-.34-4.98-.38q-36.12-1.05-72.24-1.5c-12.44-.15-28.41-1.06-42.67-.82-9.74.16-17.71 0-26.58-.25q-.69-.02-2.6-.82a.74.72 29.6 00-.88.23l-.31.42a1.02 1 18 01-.81.4c-15.4-.13-29.97-2.05-46.88-1.08-3.9.23-7.65-.54-11.54-.15-3.78.38-9.09.01-11.38.07-12.29.35-24.69-.21-35.91-.09-19.03.2-33.48.09-50.22.08-7.09 0-15.83-1.07-23.87-.82-5.17.16-10.5-.7-15.41-.54q-22.19.71-44.38 0c-2.78-.09-5.31-.81-8.41-.36-4.87.69-9.62.02-14.39 1.04-4.4.94-9.9 2.25-14.32.46-2.89-1.17-4.55-.95-7.34-1.4q-3.35-.54-5.63-.56c-35.26-.34-66.67.24-97.66-.63q-3.36-.1-7.76 1.35c-2.67.87-4.48 3.29-7.37 4.1q-3.02.84-4.82 2.87a1.42 1.41-74.4 01-.79.45l-2.53.53"/><path stroke="#8c8d7f" vector-effect="non-scaling-stroke" d="M590.81 0v587.08a.21.19 16.5 00.1.17l.09.06"/><path stroke="#c8cbbe" vector-effect="non-scaling-stroke" d="M576.44 591q-3.38-.63-6.75 0"/><path stroke="#8c8d7f" vector-effect="non-scaling-stroke" d="M440.19 591q-3.13-.63-6.25 0"/><path stroke="#c8cbbe" vector-effect="non-scaling-stroke" d="M303.44 591q-2.38-.63-4.75 0M288.19 591q-3.13-.63-6.25 0M279.19 591q-2.25-.63-4.5 0M47.19 591q-2.63-.63-5.25 0M24.44 591q-3.38-.63-6.75 0"/><path stroke="#8c8d7f" vector-effect="non-scaling-stroke" d="M13.19 591q-6.21-.43-12.44-.26c-.51.02-.64-.24-.5-.7"/><path stroke="#faf1c6" vector-effect="non-scaling-stroke" d="M92.84 44.2q-21.94-.26-43.08-.69c-10.44-.21-20.38 6.03-20.7 17.5q-.63 23.07-.85 43.87-.04 4.14 2.94 1.26 29.61-28.71 58.91-57.51c1.06-1.03 2.46-2.09 3.28-3.57a.58.58 0 00-.5-.86"/><path stroke="#8c8d7f" vector-effect="non-scaling-stroke" d="M340.81 450.5c8.24-1.11 12.84-1.13 13.15-11.28q.21-6.93.65-32.12a.48.48 0 01.5-.47q8.03.3 10.07-7.63c2.96-11.53 2.63-21 1.19-32.25q-.26-2.1 1.11-3.51c16.27-16.71 33.52-32.99 44.14-54.42 19.65-39.59 15.9-88.71-7.2-125.61-17.24-27.55-45.17-46.75-76.6-54.85-3.75-.96-8.24-1.21-12.26-1.81-33.38-5.01-66.67 5.5-92.62 26.37-55.24 44.43-62.86 125.56-19.79 180.99 6.53 8.41 13.84 14.35 21.49 20.81 2.86 2.41 4.03 4.14 3.89 7.78q-.17 4.64-.43 21.74-.17 11.45 7.15 20.12a1.19 1.17-62.5 01.27.88c-1.06 9.79-6.7 40.14 7.56 43.36q1.61.37 3.14.99a.76.76 0 01.47.69c.22 11.23.38 22.48 1.33 33.67 1.43 16.78 1.33 34.15 1.74 51.03a1.07 1.06-71.9 00.41.82c2.9 2.23 7.5.64 10.98 1.85a1.54 1.51 82.7 01.75.59c4.42 6.68 10.14 13.94 17.14 17.45 16.42 8.25 35.47-.38 42.26-17.31a.72.71 11.1 01.68-.45c9.65.18 15.94-4.63 15.96-14.68.03-12.21-.06-24.1.67-36.56q1.03-17.8 1.68-35.63a.59.59 0 01.52-.56"/><path stroke="#595a5b" vector-effect="non-scaling-stroke" d="M254 143.29c-16.17 6.31-30.72 18.44-42.27 31.19q-4.87 5.38-7.92 10.84c-1.88 3.37-4.29 6.38-6.22 10.02-12.65 23.85-16.63 49.61-12.73 76.67 3.33 23.11 13.49 45.12 29.75 61.38q9.54 9.54 19.41 18.74.37.33.55.79l.64 1.58"/><path stroke="#8e8e8e" vector-effect="non-scaling-stroke" d="M235.21 354.5c3.31 10.27.56 22.84.6 33.61.02 5.39 2.61 9.13 6.83 12.02a1.55 1.51-27.9 00.89.26l15.53-.35a.48.48 0 00.47-.45l.68-11.84"/><path stroke="#595a5b" vector-effect="non-scaling-stroke" d="M260.21 387.75l1-19.25"/><path stroke="#8c8d7f" vector-effect="non-scaling-stroke" d="M261.21 368.5q.1-13.66.73-27.31.22-4.7 2.31-7.48"/><path stroke="#595a5b" vector-effect="non-scaling-stroke" d="M264.25 333.71l2.94-1.22"/><path stroke="#8e8e8e" vector-effect="non-scaling-stroke" d="M267.19 332.49l8.29 5.04a1.65 1.64 60.8 00.87.25q12.38.05 24.67-1.42a.63.63 0 00.55-.64l-.34-12.14a.59.59 0 00-.52-.57c-9.01-1.09-15.65-1.41-21.95-8.49-19.05-21.41 3.74-63.58 16.24-82.5 7.52-11.38 10.36-26.38 10.78-40.2a.38.38 0 01.66-.25c.74.78 1.37 9.7 1.51 11.33.95 10.99-.91 21.63 2.8 32.35q6.54 18.93 14.89 37.14 4.55 9.93 5.33 14.32c1.77 9.94-.39 25.08-9.39 31.86-3.08 2.33-8.27 3.12-12.29 4.85a.89.89 0 00-.54.82v19.52a.55.55 0 00.61.55l5.39-.6"/><path stroke="#595a5b" vector-effect="non-scaling-stroke" d="M314.75 343.71c4.15.86 9.79-.29 14.24-.18q.55.02.26.49-.38.62-1.22.75"/><path stroke="#8e8e8e" vector-effect="non-scaling-stroke" d="M328.03 344.77q-4.36 1.79-8.8 3.18c-6.78 2.13-14.54 1.88-21.73 2.32q-11.79.72-27.99-3.6a.37.36-82.3 00-.46.36l.36 24.75a.44.44 0 00.84.17c.91-2.13 7.39-15.4 9.54-15.2a1.39 1.39 0 011.25 1.49c-.47 6.54-4.17 24.51-12.88 24.43a.59.58-88.5 00-.59.57l-.33 16.71a.64.63 1.3 00.63.65l40.63.36"/><path stroke="#595a5b" vector-effect="non-scaling-stroke" d="M308.5 400.96l21.38.23"/><path stroke="#8c8d7f" vector-effect="non-scaling-stroke" d="M329.88 401.19c.69.62 1.09.19 1.15-.56q.76-8.51 1.23-17.15"/><path stroke="#595a5b" vector-effect="non-scaling-stroke" d="M332.26 383.48q1.77-7.14 2.41-14.58a1.18 1.17-16.2 01.45-.81c2.55-1.97 4.05 3.22 4.74 4.6a1.65 1.64-35.1 002.59.45c3.8-3.57-.06-7.1-2.84-9.13"/><path stroke="#8e8e8e" vector-effect="non-scaling-stroke" d="M339.61 364.01c-1.62-9.32 3.07-18.72-1.84-25.37a1.4 1.38 78.5 00-.79-.53q-4.26-1.04-8.66-.45c-4.29.57-13 2.59-16.82.74q-2.77-1.34-.09-2.85 10.05-5.64 21.59-4.59"/><path stroke="#595a5b" vector-effect="non-scaling-stroke" d="M333 330.96c12.98 1.23 16.35 11.81 13.6 23.04-1.31 5.32 5.31 11.34 4.8 17.01-.52 5.66-6.13 8.36-10.68 10.7a.97.96-13.6 00-.53.86l.02 18.09a.58.57-87.9 00.53.58c6.39.52 15.75 1.84 16.84-7.22 1.18-9.85.34-19.6.55-29.49q.04-2.06 1.12-3.74 8.04-12.52 19.63-21.89c5.79-4.69 9.51-9.69 14.8-16.56q8.64-11.22 13.78-24.59"/><path stroke="#8e8e8e" vector-effect="non-scaling-stroke" d="M407.46 297.75q5.15-11.42 7.29-23.79"/><path stroke="#0f0e0e" vector-effect="non-scaling-stroke" d="M414.75 273.96q.52.78 1.19.53a.87.85 86.6 00.55-.64q4.24-19.82.26-39.63a.63.63 0 00-.59-.5q-.49-.02-.91.32"/><path stroke="#8e8e8e" vector-effect="non-scaling-stroke" d="M415.25 234.04c-3.8-23.24-14.35-47.01-30.91-63.89-20.16-20.56-44.98-33.77-73.71-36.15-19.35-1.6-38.91.75-56.63 9.29"/><path stroke="gray" vector-effect="non-scaling-stroke" d="M415.25 234.04q2.69 20-.5 39.92"/><path stroke="#cacccd" vector-effect="non-scaling-stroke" d="M407.46 297.75c-1.03.83-1.92 1.48-2.71 2.57-12.14 16.75-24.66 32.71-43.47 38.54q-.5.15-.18-.26c1.28-1.69 3.3-2.93 4.54-4.36 9.93-11.42 18.36-24.5 23.04-38.92 15.3-47.13-.02-95.18-39.87-124.64q-4.26-3.15-15.02-8.93-.44-.24-.09.12 16.22 17.14 27.54 37.86c15.66 28.65 14.57 59.19 4.1 89.42-5.59 16.15-17.15 33.05-32.34 41.81M339.61 364.01q-2.03-1.37-1.55-4.51c.84-5.57 3.92-20.97-5.31-20.98q-4.14 0-12.52 1.19-2.74.39-5.48 4M267.19 332.49q-30.81-25.33-41.6-61.56c-4.47-15.05-6.81-34.37-4.94-50.78 3.14-27.5 11.46-54.9 32.32-74.49.74-.7.9-1.44 1.03-2.37"/><path stroke="#c8cbbe" vector-effect="non-scaling-stroke" d="M264.25 333.71q.08-.46-.36-.66a.7.68 31.4 00-.82.19c-3.23 3.98-2.1 7.57-2.43 11.64q-.9 11.07 0 22.16c.06.64.28.89.57 1.46"/><path stroke="#cacccd" vector-effect="non-scaling-stroke" d="M260.21 387.75l-1.57 10.87a.65.64 2.6 01-.62.56q-6.49.23-13.02.28c-4.54.04-7.67-6.04-7.82-9.7q-.49-12.3 1.05-24.51.72-5.74-1.92-10.7a.66.65 67.9 00-.75-.32q-.2.06-.35.27"/><path stroke="#c8cbbe" vector-effect="non-scaling-stroke" d="M332.26 383.48q-2.29 8.68-2.38 17.71"/><path stroke="#cacccd" vector-effect="non-scaling-stroke" d="M308.5 400.96q-1.43-16.8-1.1-39.65.08-5.76 1.62-9.81a1.02 1.01-82.7 01.83-.65l5.8-.73q.52-.06.99-.29 1.07-.51 2.29-.32a1.15 1.12-60.1 00.88-.25c.55-.47.59-.54 1.37-.63q4.19-.53 6.85-3.86"/><path stroke="#8e8e8e" vector-effect="non-scaling-stroke" d="M279.08 282.75c-2.12 12.58-.13 28.99 15.11 31.5 1.54.25 2.69 1.22 4.09 1.82a.48.47-73.1 00.65-.35l1.55-8.81a1.08 1.08 0 011.93-.47c2.57 3.37 5.92 7.07 7.02 11.11q.13.49.3.02c3.04-8.56 2.56-13.34-.88-21.97-2.27-5.73-8.2-9.25-13.97-5.49q-6.21 4.04-10.61 10.68a.9.9 0 01-1.51-.02c-.51-.8-.63-2.43-.29-3.42q2.84-8.32 11.52-10.56c17.38-4.5 24.61 15.29 21.72 28.69a.32.32 0 00.47.34c10.06-5.93 11.23-26.47 6.29-36.28q-10.72-21.3-17.83-42.88-1.29-3.92-3.16-7.03-.26-.44-.45.03c-7.17 17.81-18.72 33.99-21.95 53.09M296.31 343.1c.74-.02 6.16-.66 5.03-2.46a.57.56-29.3 00-.73-.2l-4.4 2.28q-.8.41.1.38"/><path stroke="#595a5b" vector-effect="non-scaling-stroke" d="M284.5 440.54q29.07 1.75 58.19 1.65 1.15-.01 2.48-.89"/><path stroke="#8e8e8e" vector-effect="non-scaling-stroke" d="M345.17 441.3c1.51-1.24 1.43-25.56 1.6-29.05q.11-2.23-2.13-2.26c-33.63-.35-66.97-1.35-100.75-1.83a1.13 1.12.3 00-1.14 1.12v31.43a.69.69 0 00.73.69q8.64-.49 16.37-.99c8.19-.52 16.38.02 24.65.13"/><path stroke="#cacccd" vector-effect="non-scaling-stroke" d="M345.17 441.3q-.25-14.32.7-28.59a.99.96 21.5 00-.37-.82q-1.46-1.16-3.07-1.15-28.41.16-56.82-.36-.49-.01-.94-.2-.63-.26-1.85-.25-8.96.08-17.87-.61a.88.88 0 00-.95.88l-.06 28.28a.65.64-89.6 00.63.65c4.28.11 8.46.17 12.67-.06q3.85-.21 7.26 1.47"/><path stroke="#595a5b" vector-effect="non-scaling-stroke" d="M276 529.21q25.89.95 52.05.46a.54.53-87.7 00.53-.5q.96-12.54 1.33-25.1c.55-18.32 1.43-35.74 1.5-53.62a.51.51 0 00-.51-.51l-36.37.36"/><path stroke="#8c8d7f" vector-effect="non-scaling-stroke" d="M294.53 450.3l-20.78-.51"/><path stroke="#8e8e8e" vector-effect="non-scaling-stroke" d="M273.75 449.79l-18.7-.46a.5.5 0 00-.51.48c-.4 12.16.66 24.69 1.03 36.88.34 11.02 1.39 26.74 1.43 40.39a1.85 1.85 0 001.82 1.85l17.18.28"/><path stroke="#fdfff0" vector-effect="non-scaling-stroke" d="M273.75 449.79l.25.23a.34.34 0 01.02.48l-.23.25"/><path stroke="#cacccd" vector-effect="non-scaling-stroke" d="M273.79 450.75c-.14.14.98 73.52 2.21 78.46"/><path stroke="#c8cbbe" vector-effect="non-scaling-stroke" d="M294.53 450.3q-10.32 1.38-20.74.45"/><path stroke="#595a5b" vector-effect="non-scaling-stroke" d="M299.25 550.21q9.33-2.22 13.98-10.97a.82.82 0 00-.37-1.13q-1.05-.5-2.61-.48-11.63.13-23.66.21"/><path stroke="#8e8e8e" vector-effect="non-scaling-stroke" d="M286.59 537.84l-15.02-.43a.63.63 0 00-.52 1.02q9.7 12.58 25.44 12.59.94 0 2.76-.81"/><path stroke="#cacccd" vector-effect="non-scaling-stroke" d="M286.59 537.84q3.67 8.89 12.66 12.37"/><path stroke="#8e8e8e" vector-effect="non-scaling-stroke" d="M292.14 365.94c4.4 1.78 8.51 1.75 12.64-.69q2.23-1.31 1.75-3.63a1.23 1.22-10.4 00-1.41-.97c-2.09.36-13.69 2.5-13.3 4.9a.52.48 7.7 00.32.39"/></g><path d="M0 0h590.31l-.04 589.6a.64.64 0 01-.64.64q-290.66.03-581.62 0c-2.25 0-5.18-.26-7.76-.2l-.25-.1V0zm4.29 17.75v568a.5.5 0 00.5.5h580.92a.5.5 0 00.5-.5l.03-569.76-.04-11.27a.48.47 0 00-.48-.47H4.78a.48.48 0 00-.48.48l-.01 13.02z"/><path fill="#fbfee1" d="M590.31 0h.5v587.08a.21.19 16.5 00.1.17l.09.06V591h-14.56q-3.38-.63-6.75 0h-129.5q-3.13-.63-6.25 0h-130.5q-2.38-.63-4.75 0h-10.5q-3.13-.63-6.25 0h-2.75q-2.25-.63-4.5 0H47.19q-2.63-.63-5.25 0h-17.5q-3.38-.63-6.75 0h-4.5q-6.21-.43-12.44-.26c-.51.02-.64-.24-.5-.7 2.58-.06 5.51.2 7.76.2q290.96.03 581.62 0a.64.64 0 00.64-.64L590.31 0z"/><path fill="#1d1c1c" d="M590.81 0h.19v587.31l-.09-.06a.21.19 16.5 01-.1-.17V0z"/><path fill="#fff" d="M586.24 15.99q-7.71-3.66-16.25-2.13a.48.48 0 00.08.95l8.18.12a.61.61 0 01.27 1.15c-1.04.54-9.98-.27-11.66-.55q-.49-.08-.89-.38c-1.65-1.27-3.6-.34-4.98-.38q-36.12-1.05-72.24-1.5c-12.44-.15-28.41-1.06-42.67-.82-9.74.16-17.71 0-26.58-.25q-.69-.02-2.6-.82a.74.72 29.6 00-.88.23l-.31.42a1.02 1 18 01-.81.4c-15.4-.13-29.97-2.05-46.88-1.08-3.9.23-7.65-.54-11.54-.15-3.78.38-9.09.01-11.38.07-12.29.35-24.69-.21-35.91-.09-19.03.2-33.48.09-50.22.08-7.09 0-15.83-1.07-23.87-.82-5.17.16-10.5-.7-15.41-.54q-22.19.71-44.38 0c-2.78-.09-5.31-.81-8.41-.36-4.87.69-9.62.02-14.39 1.04-4.4.94-9.9 2.25-14.32.46-2.89-1.17-4.55-.95-7.34-1.4q-3.35-.54-5.63-.56c-35.26-.34-66.67.24-97.66-.63q-3.36-.1-7.76 1.35c-2.67.87-4.48 3.29-7.37 4.1q-3.02.84-4.82 2.87a1.42 1.41-74.4 01-.79.45l-2.53.53.01-13.02a.48.48 0 01.48-.48h580.94a.48.47 0 01.48.47l.04 11.27z"/><path fill="#fbfee1" d="M586.24 15.99l-.03 569.76a.5.5 0 01-.5.5H4.79a.5.5 0 01-.5-.5v-568l2.53-.53a1.42 1.41-74.4 00.79-.45q1.8-2.03 4.82-2.87c2.89-.81 4.7-3.23 7.37-4.1q4.4-1.45 7.76-1.35c30.99.87 62.4.29 97.66.63q2.28.02 5.63.56c2.79.45 4.45.23 7.34 1.4 4.42 1.79 9.92.48 14.32-.46 4.77-1.02 9.52-.35 14.39-1.04 3.1-.45 5.63.27 8.41.36q22.19.71 44.38 0c4.91-.16 10.24.7 15.41.54 8.04-.25 16.78.82 23.87.82 16.74.01 31.19.12 50.22-.08 11.22-.12 23.62.44 35.91.09 2.29-.06 7.6.31 11.38-.07 3.89-.39 7.64.38 11.54.15 16.91-.97 31.48.95 46.88 1.08a1.02 1 18 00.81-.4l.31-.42a.74.72 29.6 01.88-.23q1.91.8 2.6.82c8.87.25 16.84.41 26.58.25 14.26-.24 30.23.67 42.67.82q36.12.45 72.24 1.5c1.38.04 3.33-.89 4.98.38q.4.3.89.38c1.68.28 10.62 1.09 11.66.55a.61.61 0 00-.27-1.15l-8.18-.12a.48.48 0 01-.08-.95q8.54-1.53 16.25 2.13zM92.84 44.2q-21.94-.26-43.08-.69c-10.44-.21-20.38 6.03-20.7 17.5q-.63 23.07-.85 43.87-.04 4.14 2.94 1.26 29.61-28.71 58.91-57.51c1.06-1.03 2.46-2.09 3.28-3.57a.58.58 0 00-.5-.86zm247.97 406.3c8.24-1.11 12.84-1.13 13.15-11.28q.21-6.93.65-32.12a.48.48 0 01.5-.47q8.03.3 10.07-7.63c2.96-11.53 2.63-21 1.19-32.25q-.26-2.1 1.11-3.51c16.27-16.71 33.52-32.99 44.14-54.42 19.65-39.59 15.9-88.71-7.2-125.61-17.24-27.55-45.17-46.75-76.6-54.85-3.75-.96-8.24-1.21-12.26-1.81-33.38-5.01-66.67 5.5-92.62 26.37-55.24 44.43-62.86 125.56-19.79 180.99 6.53 8.41 13.84 14.35 21.49 20.81 2.86 2.41 4.03 4.14 3.89 7.78q-.17 4.64-.43 21.74-.17 11.45 7.15 20.12a1.19 1.17-62.5 01.27.88c-1.06 9.79-6.7 40.14 7.56 43.36q1.61.37 3.14.99a.76.76 0 01.47.69c.22 11.23.38 22.48 1.33 33.67 1.43 16.78 1.33 34.15 1.74 51.03a1.07 1.06-71.9 00.41.82c2.9 2.23 7.5.64 10.98 1.85a1.54 1.51 82.7 01.75.59c4.42 6.68 10.14 13.94 17.14 17.45 16.42 8.25 35.47-.38 42.26-17.31a.72.71 11.1 01.68-.45c9.65.18 15.94-4.63 15.96-14.68.03-12.21-.06-24.1.67-36.56q1.03-17.8 1.68-35.63a.59.59 0 01.52-.56z"/><path fill="#f8e4ab" d="M92.84 44.2a.58.58 0 01.5.86c-.82 1.48-2.22 2.54-3.28 3.57q-29.3 28.8-58.91 57.51-2.98 2.88-2.94-1.26.22-20.8.85-43.87c.32-11.47 10.26-17.71 20.7-17.5q21.14.43 43.08.69z"/><path fill="#1d1c1c" d="M340.29 451.06q-.65 17.83-1.68 35.63c-.73 12.46-.64 24.35-.67 36.56-.02 10.05-6.31 14.86-15.96 14.68a.72.71 11.1 00-.68.45c-6.79 16.93-25.84 25.56-42.26 17.31-7-3.51-12.72-10.77-17.14-17.45a1.54 1.51 82.7 00-.75-.59c-3.48-1.21-8.08.38-10.98-1.85a1.07 1.06-71.9 01-.41-.82c-.41-16.88-.31-34.25-1.74-51.03-.95-11.19-1.11-22.44-1.33-33.67a.76.76 0 00-.47-.69q-1.53-.62-3.14-.99c-14.26-3.22-8.62-33.57-7.56-43.36a1.19 1.17-62.5 00-.27-.88q-7.32-8.67-7.15-20.12.26-17.1.43-21.74c.14-3.64-1.03-5.37-3.89-7.78-7.65-6.46-14.96-12.4-21.49-20.81-43.07-55.43-35.45-136.56 19.79-180.99 25.95-20.87 59.24-31.38 92.62-26.37 4.02.6 8.51.85 12.26 1.81 31.43 8.1 59.36 27.3 76.6 54.85 23.1 36.9 26.85 86.02 7.2 125.61-10.62 21.43-27.87 37.71-44.14 54.42q-1.37 1.41-1.11 3.51c1.44 11.25 1.77 20.72-1.19 32.25q-2.04 7.93-10.07 7.63a.48.48 0 00-.5.47q-.44 25.19-.65 32.12c-.31 10.15-4.91 10.17-13.15 11.28a.59.59 0 00-.52.56zM254 143.29c-16.17 6.31-30.72 18.44-42.27 31.19q-4.87 5.38-7.92 10.84c-1.88 3.37-4.29 6.38-6.22 10.02-12.65 23.85-16.63 49.61-12.73 76.67 3.33 23.11 13.49 45.12 29.75 61.38q9.54 9.54 19.41 18.74.37.33.55.79l.64 1.58c3.31 10.27.56 22.84.6 33.61.02 5.39 2.61 9.13 6.83 12.02a1.55 1.51-27.9 00.89.26l15.53-.35a.48.48 0 00.47-.45l.68-11.84 1-19.25q.1-13.66.73-27.31.22-4.7 2.31-7.48l2.94-1.22 8.29 5.04a1.65 1.64 60.8 00.87.25q12.38.05 24.67-1.42a.63.63 0 00.55-.64l-.34-12.14a.59.59 0 00-.52-.57c-9.01-1.09-15.65-1.41-21.95-8.49-19.05-21.41 3.74-63.58 16.24-82.5 7.52-11.38 10.36-26.38 10.78-40.2a.38.38 0 01.66-.25c.74.78 1.37 9.7 1.51 11.33.95 10.99-.91 21.63 2.8 32.35q6.54 18.93 14.89 37.14 4.55 9.93 5.33 14.32c1.77 9.94-.39 25.08-9.39 31.86-3.08 2.33-8.27 3.12-12.29 4.85a.89.89 0 00-.54.82v19.52a.55.55 0 00.61.55l5.39-.6c4.15.86 9.79-.29 14.24-.18q.55.02.26.49-.38.62-1.22.75-4.36 1.79-8.8 3.18c-6.78 2.13-14.54 1.88-21.73 2.32q-11.79.72-27.99-3.6a.37.36-82.3 00-.46.36l.36 24.75a.44.44 0 00.84.17c.91-2.13 7.39-15.4 9.54-15.2a1.39 1.39 0 011.25 1.49c-.47 6.54-4.17 24.51-12.88 24.43a.59.58-88.5 00-.59.57l-.33 16.71a.64.63 1.3 00.63.65l40.63.36 21.38.23c.69.62 1.09.19 1.15-.56q.76-8.51 1.23-17.15 1.77-7.14 2.41-14.58a1.18 1.17-16.2 01.45-.81c2.55-1.97 4.05 3.22 4.74 4.6a1.65 1.64-35.1 002.59.45c3.8-3.57-.06-7.1-2.84-9.13-1.62-9.32 3.07-18.72-1.84-25.37a1.4 1.38 78.5 00-.79-.53q-4.26-1.04-8.66-.45c-4.29.57-13 2.59-16.82.74q-2.77-1.34-.09-2.85 10.05-5.64 21.59-4.59c12.98 1.23 16.35 11.81 13.6 23.04-1.31 5.32 5.31 11.34 4.8 17.01-.52 5.66-6.13 8.36-10.68 10.7a.97.96-13.6 00-.53.86l.02 18.09a.58.57-87.9 00.53.58c6.39.52 15.75 1.84 16.84-7.22 1.18-9.85.34-19.6.55-29.49q.04-2.06 1.12-3.74 8.04-12.52 19.63-21.89c5.79-4.69 9.51-9.69 14.8-16.56q8.64-11.22 13.78-24.59 5.15-11.42 7.29-23.79.52.78 1.19.53a.87.85 86.6 00.55-.64q4.24-19.82.26-39.63a.63.63 0 00-.59-.5q-.49-.02-.91.32c-3.8-23.24-14.35-47.01-30.91-63.89-20.16-20.56-44.98-33.77-73.71-36.15-19.35-1.6-38.91.75-56.63 9.29zm25.08 139.46c-2.12 12.58-.13 28.99 15.11 31.5 1.54.25 2.69 1.22 4.09 1.82a.48.47-73.1 00.65-.35l1.55-8.81a1.08 1.08 0 011.93-.47c2.57 3.37 5.92 7.07 7.02 11.11q.13.49.3.02c3.04-8.56 2.56-13.34-.88-21.97-2.27-5.73-8.2-9.25-13.97-5.49q-6.21 4.04-10.61 10.68a.9.9 0 01-1.51-.02c-.51-.8-.63-2.43-.29-3.42q2.84-8.32 11.52-10.56c17.38-4.5 24.61 15.29 21.72 28.69a.32.32 0 00.47.34c10.06-5.93 11.23-26.47 6.29-36.28q-10.72-21.3-17.83-42.88-1.29-3.92-3.16-7.03-.26-.44-.45.03c-7.17 17.81-18.72 33.99-21.95 53.09zm17.23 60.35c.74-.02 6.16-.66 5.03-2.46a.57.56-29.3 00-.73-.2l-4.4 2.28q-.8.41.1.38zm-11.81 97.44q29.07 1.75 58.19 1.65 1.15-.01 2.48-.89c1.51-1.24 1.43-25.56 1.6-29.05q.11-2.23-2.13-2.26c-33.63-.35-66.97-1.35-100.75-1.83a1.13 1.12.3 00-1.14 1.12v31.43a.69.69 0 00.73.69q8.64-.49 16.37-.99c8.19-.52 16.38.02 24.65.13zm-8.5 88.67q25.89.95 52.05.46a.54.53-87.7 00.53-.5q.96-12.54 1.33-25.1c.55-18.32 1.43-35.74 1.5-53.62a.51.51 0 00-.51-.51l-36.37.36-20.78-.51-18.7-.46a.5.5 0 00-.51.48c-.4 12.16.66 24.69 1.03 36.88.34 11.02 1.39 26.74 1.43 40.39a1.85 1.85 0 001.82 1.85l17.18.28zm23.25 21q9.33-2.22 13.98-10.97a.82.82 0 00-.37-1.13q-1.05-.5-2.61-.48-11.63.13-23.66.21l-15.02-.43a.63.63 0 00-.52 1.02q9.7 12.58 25.44 12.59.94 0 2.76-.81z"/><path fill="#fff" d="M415.25 234.04q2.69 20-.5 39.92-2.14 12.37-7.29 23.79c-1.03.83-1.92 1.48-2.71 2.57-12.14 16.75-24.66 32.71-43.47 38.54q-.5.15-.18-.26c1.28-1.69 3.3-2.93 4.54-4.36 9.93-11.42 18.36-24.5 23.04-38.92 15.3-47.13-.02-95.18-39.87-124.64q-4.26-3.15-15.02-8.93-.44-.24-.09.12 16.22 17.14 27.54 37.86c15.66 28.65 14.57 59.19 4.1 89.42-5.59 16.15-17.15 33.05-32.34 41.81q-11.54-1.05-21.59 4.59-2.68 1.51.09 2.85c3.82 1.85 12.53-.17 16.82-.74q4.4-.59 8.66.45a1.4 1.38 78.5 01.79.53c4.91 6.65.22 16.05 1.84 25.37q-2.03-1.37-1.55-4.51c.84-5.57 3.92-20.97-5.31-20.98q-4.14 0-12.52 1.19-2.74.39-5.48 4l-5.39.6a.55.55 0 01-.61-.55v-19.52a.89.89 0 01.54-.82c4.02-1.73 9.21-2.52 12.29-4.85 9-6.78 11.16-21.92 9.39-31.86q-.78-4.39-5.33-14.32-8.35-18.21-14.89-37.14c-3.71-10.72-1.85-21.36-2.8-32.35-.14-1.63-.77-10.55-1.51-11.33a.38.38 0 00-.66.25c-.42 13.82-3.26 28.82-10.78 40.2-12.5 18.92-35.29 61.09-16.24 82.5 6.3 7.08 12.94 7.4 21.95 8.49a.59.59 0 01.52.57l.34 12.14a.63.63 0 01-.55.64q-12.29 1.47-24.67 1.42a1.65 1.64 60.8 01-.87-.25l-8.29-5.04q-30.81-25.33-41.6-61.56c-4.47-15.05-6.81-34.37-4.94-50.78 3.14-27.5 11.46-54.9 32.32-74.49.74-.7.9-1.44 1.03-2.37 17.72-8.54 37.28-10.89 56.63-9.29 28.73 2.38 53.55 15.59 73.71 36.15 16.56 16.88 27.11 40.65 30.91 63.89z"/><path fill="#95989a" d="M254 143.29c-.13.93-.29 1.67-1.03 2.37-20.86 19.59-29.18 46.99-32.32 74.49-1.87 16.41.47 35.73 4.94 50.78q10.79 36.23 41.6 61.56l-2.94 1.22q.08-.46-.36-.66a.7.68 31.4 00-.82.19c-3.23 3.98-2.1 7.57-2.43 11.64q-.9 11.07 0 22.16c.06.64.28.89.57 1.46l-1 19.25-1.57 10.87a.65.64 2.6 01-.62.56q-6.49.23-13.02.28c-4.54.04-7.67-6.04-7.82-9.7q-.49-12.3 1.05-24.51.72-5.74-1.92-10.7a.66.65 67.9 00-.75-.32q-.2.06-.35.27l-.64-1.58q-.18-.46-.55-.79-9.87-9.2-19.41-18.74c-16.26-16.26-26.42-38.27-29.75-61.38-3.9-27.06.08-52.82 12.73-76.67 1.93-3.64 4.34-6.65 6.22-10.02q3.05-5.46 7.92-10.84c11.55-12.75 26.1-24.88 42.27-31.19zM407.46 297.75q-5.14 13.37-13.78 24.59c-5.29 6.87-9.01 11.87-14.8 16.56q-11.59 9.37-19.63 21.89-1.08 1.68-1.12 3.74c-.21 9.89.63 19.64-.55 29.49-1.09 9.06-10.45 7.74-16.84 7.22a.58.57-87.9 01-.53-.58l-.02-18.09a.97.96-13.6 01.53-.86c4.55-2.34 10.16-5.04 10.68-10.7.51-5.67-6.11-11.69-4.8-17.01 2.75-11.23-.62-21.81-13.6-23.04 15.19-8.76 26.75-25.66 32.34-41.81 10.47-30.23 11.56-60.77-4.1-89.42q-11.32-20.72-27.54-37.86-.35-.36.09-.12 10.76 5.78 15.02 8.93c39.85 29.46 55.17 77.51 39.87 124.64-4.68 14.42-13.11 27.5-23.04 38.92-1.24 1.43-3.26 2.67-4.54 4.36q-.32.41.18.26c18.81-5.83 31.33-21.79 43.47-38.54.79-1.09 1.68-1.74 2.71-2.57z"/><path fill="#fff" d="M294.19 314.25c-15.24-2.51-17.23-18.92-15.11-31.5 3.23-19.1 14.78-35.28 21.95-53.09q.19-.47.45-.03 1.87 3.11 3.16 7.03 7.11 21.58 17.83 42.88c4.94 9.81 3.77 30.35-6.29 36.28a.32.32 0 01-.47-.34c2.89-13.4-4.34-33.19-21.72-28.69q-8.68 2.24-11.52 10.56c-.34.99-.22 2.62.29 3.42a.9.9 0 001.51.02q4.4-6.64 10.61-10.68c5.77-3.76 11.7-.24 13.97 5.49 3.44 8.63 3.92 13.41.88 21.97q-.17.47-.3-.02c-1.1-4.04-4.45-7.74-7.02-11.11a1.08 1.08 0 00-1.93.47l-1.55 8.81a.48.47-73.1 01-.65.35c-1.4-.6-2.55-1.57-4.09-1.82z"/><path d="M414.75 273.96q3.19-19.92.5-39.92.42-.34.91-.32a.63.63 0 01.59.5q3.98 19.81-.26 39.63a.87.85 86.6 01-.55.64q-.67.25-1.19-.53z"/><path fill="#fbfee1" d="M264.25 333.71q-2.09 2.78-2.31 7.48-.63 13.65-.73 27.31c-.29-.57-.51-.82-.57-1.46q-.9-11.09 0-22.16c.33-4.07-.8-7.66 2.43-11.64a.7.68 31.4 01.82-.19q.44.2.36.66z"/><path fill="#95989a" d="M339.61 364.01c2.78 2.03 6.64 5.56 2.84 9.13a1.65 1.64-35.1 01-2.59-.45c-.69-1.38-2.19-6.57-4.74-4.6a1.18 1.17-16.2 00-.45.81q-.64 7.44-2.41 14.58-2.29 8.68-2.38 17.71l-21.38-.23q-1.43-16.8-1.1-39.65.08-5.76 1.62-9.81a1.02 1.01-82.7 01.83-.65l5.8-.73q.52-.06.99-.29 1.07-.51 2.29-.32a1.15 1.12-60.1 00.88-.25c.55-.47.59-.54 1.37-.63q4.19-.53 6.85-3.86.84-.13 1.22-.75.29-.47-.26-.49c-4.45-.11-10.09 1.04-14.24.18q2.74-3.61 5.48-4 8.38-1.19 12.52-1.19c9.23.01 6.15 15.41 5.31 20.98q-.48 3.14 1.55 4.51z"/><path fill="#fff" d="M301.34 340.64c1.13 1.8-4.29 2.44-5.03 2.46q-.9.03-.1-.38l4.4-2.28a.57.56-29.3 01.73.2zM328.03 344.77q-2.66 3.33-6.85 3.86c-.78.09-.82.16-1.37.63a1.15 1.12-60.1 01-.88.25q-1.22-.19-2.29.32-.47.23-.99.29l-5.8.73a1.02 1.01-82.7 00-.83.65q-1.54 4.05-1.62 9.81-.33 22.85 1.1 39.65l-40.63-.36a.64.63 1.3 01-.63-.65l.33-16.71a.59.58-88.5 01.59-.57c8.71.08 12.41-17.89 12.88-24.43a1.39 1.39 0 00-1.25-1.49c-2.15-.2-8.63 13.07-9.54 15.2a.44.44 0 01-.84-.17l-.36-24.75a.37.36-82.3 01.46-.36q16.2 4.32 27.99 3.6c7.19-.44 14.95-.19 21.73-2.32q4.44-1.39 8.8-3.18zm-35.89 21.17c4.4 1.78 8.51 1.75 12.64-.69q2.23-1.31 1.75-3.63a1.23 1.22-10.4 00-1.41-.97c-2.09.36-13.69 2.5-13.3 4.9a.52.48 7.7 00.32.39zM260.21 387.75l-.68 11.84a.48.48 0 01-.47.45l-15.53.35a1.55 1.51-27.9 01-.89-.26c-4.22-2.89-6.81-6.63-6.83-12.02-.04-10.77 2.71-23.34-.6-33.61q.15-.21.35-.27a.66.65 67.9 01.75.32q2.64 4.96 1.92 10.7-1.54 12.21-1.05 24.51c.15 3.66 3.28 9.74 7.82 9.7q6.53-.05 13.02-.28a.65.64 2.6 00.62-.56l1.57-10.87z"/><path fill="#1d1c1c" d="M304.78 365.25c-4.13 2.44-8.24 2.47-12.64.69a.52.48 7.7 01-.32-.39c-.39-2.4 11.21-4.54 13.3-4.9a1.23 1.22-10.4 011.41.97q.48 2.32-1.75 3.63z"/><path fill="#fbfee1" d="M332.26 383.48q-.47 8.64-1.23 17.15c-.06.75-.46 1.18-1.15.56q.09-9.03 2.38-17.71z"/><path fill="#fff" d="M345.17 441.3q-.25-14.32.7-28.59a.99.96 21.5 00-.37-.82q-1.46-1.16-3.07-1.15-28.41.16-56.82-.36-.49-.01-.94-.2-.63-.26-1.85-.25-8.96.08-17.87-.61a.88.88 0 00-.95.88l-.06 28.28a.65.64-89.6 00.63.65c4.28.11 8.46.17 12.67-.06q3.85-.21 7.26 1.47c-8.27-.11-16.46-.65-24.65-.13q-7.73.5-16.37.99a.69.69 0 01-.73-.69v-31.43a1.13 1.12.3 011.14-1.12c33.78.48 67.12 1.48 100.75 1.83q2.24.03 2.13 2.26c-.17 3.49-.09 27.81-1.6 29.05z"/><path fill="#95989a" d="M345.17 441.3q-1.33.88-2.48.89-29.12.1-58.19-1.65-3.41-1.68-7.26-1.47c-4.21.23-8.39.17-12.67.06a.65.64-89.6 01-.63-.65l.06-28.28a.88.88 0 01.95-.88q8.91.69 17.87.61 1.22-.01 1.85.25.45.19.94.2 28.41.52 56.82.36 1.61-.01 3.07 1.15a.99.96 21.5 01.37.82q-.95 14.27-.7 28.59z"/><path fill="#fff" d="M273.75 449.79l.25.23a.34.34 0 01.02.48l-.23.25c-.14.14.98 73.52 2.21 78.46l-17.18-.28a1.85 1.85 0 01-1.82-1.85c-.04-13.65-1.09-29.37-1.43-40.39-.37-12.19-1.43-24.72-1.03-36.88a.5.5 0 01.51-.48l18.7.46z"/><path fill="#fbfee1" d="M273.75 449.79l20.78.51q-10.32 1.38-20.74.45l.23-.25a.34.34 0 00-.02-.48l-.25-.23z"/><path fill="#95989a" d="M276 529.21c-1.23-4.94-2.35-78.32-2.21-78.46q10.42.93 20.74-.45l36.37-.36a.51.51 0 01.51.51c-.07 17.88-.95 35.3-1.5 53.62q-.37 12.56-1.33 25.1a.54.53-87.7 01-.53.5q-26.16.49-52.05-.46z"/><path fill="#fff" d="M286.59 537.84q3.67 8.89 12.66 12.37-1.82.81-2.76.81-15.74-.01-25.44-12.59a.63.63 0 01.52-1.02l15.02.43z"/><path fill="#95989a" d="M286.59 537.84q12.03-.08 23.66-.21 1.56-.02 2.61.48a.82.82 0 01.37 1.13q-4.65 8.75-13.98 10.97-8.99-3.48-12.66-12.37z"/><path fill="#1d1c1c" d="M0 589.94l.25.1c-.14.46-.01.72.5.7q6.23-.17 12.44.26H0v-1.06z"/><path fill="#95989a" d="M24.44 591h-6.75q3.37-.63 6.75 0zM47.19 591h-5.25q2.62-.63 5.25 0zM279.19 591h-4.5q2.25-.63 4.5 0zM288.19 591h-6.25q3.12-.63 6.25 0zM303.44 591h-4.75q2.37-.63 4.75 0z"/><path fill="#1d1c1c" d="M440.19 591h-6.25q3.12-.63 6.25 0z"/><path fill="#95989a" d="M576.44 591h-6.75q3.37-.63 6.75 0z"/></svg>