<svg xmlns="http://www.w3.org/2000/svg" viewBox="0 0 591 591"><g stroke-width="2" fill="none"><path stroke="#c9cacc" vector-effect="non-scaling-stroke" d="M590.31 0l-.56.71"/><path stroke="#4a4b4c" vector-effect="non-scaling-stroke" d="M589.75.71q-.75.14-1.5.14Q294.13.97 0 .94"/><path stroke="#c9cacc" vector-effect="non-scaling-stroke" d="M8.19 591q-2.38-.63-4.75 0"/><path stroke="gray" vector-effect="non-scaling-stroke" d="M0 589.94q4.12.15 8.25.15 290.72.16 581.47.16a.53.53 0 00.53-.53V1.5q0-.32-.5-.79"/><path stroke="#7f7e6f" vector-effect="non-scaling-stroke" d="M585.5 5.52a.26.26 0 00-.26-.26H5.5a.26.26 0 00-.26.26v579.72a.26.26 0 00.26.26h579.74a.26.26 0 00.26-.26V5.52"/><path stroke="#fbefc3" vector-effect="non-scaling-stroke" d="M48.27 29.61c-15.7.13-21.8 7.97-22.19 23.4q-.55 22.18 0 39.48a.54.54 0 00.53.53q1.44.02 2.85-1.32c23.79-22.52 43.72-41.4 61.55-60.52a.77.77 0 00-.54-1.29q-21.23-.46-42.2-.28"/><path stroke="#7f7e6f" vector-effect="non-scaling-stroke" d="M233 174.21c-10.31 17.47-16.38 38.78-19.04 58.54"/><path stroke="#908f7f" vector-effect="non-scaling-stroke" d="M213.96 232.75q-2.63 21.74.62 43.42a.35.35 0 01-.44.39l-8.98-2.54a.8.78-85.8 01-.57-.68q-.61-5.42-2.28-10.61c-1.34-4.16-3.49-5.84-7.79-5.86q-16.51-.05-28.91 9.77-.59.47-1.13 1.4a1.66 1.57-33.7 00-.21.93l.94 11.54c.3 3.69-7.55 6.91-8.84 11.35a.44.43-88.7 00.52.55l10.31-2.53a.55.54-21.1 01.62.27l1.34 2.59a.81.81 0 01-.12.92q-2.85 3.1-6.2.76a1.66 1.65 49.2 00-1.69-.13c-21.74 10.84-28.38 25.23-29.24 48.86q-.1 2.64-1.07 4.97-4.7 11.18-8.12 22.82a.99.97 1.8 01-.75.69l-3.44.66a1.32 1.31 4.8 00-.98.82L107.05 400q-.06.14-.17.24-.19.16-.1.48a.36.35 81.4 00.37.28l8.49-.69a.61.61 0 01.66.59q1.05 25.96.98 51.95a.56.55-.5 01-.55.55q-5.41.09-5.32 5.27a1.24 1.23-65.9 00.31.82l1.67 1.93a.6.6 0 01-.06.84q-3.7 3.24-4.79 7.99"/><path stroke="#7f7e6f" vector-effect="non-scaling-stroke" d="M108.54 470.25c-.49 1.41-.88 2.9-1.58 4.22q-8.82 16.54-12.11 32.36-.56 2.72-1.09 3.92a1.57 1.53-3 01-.66.71q-4.9 2.64-6.57 6.85-1.76 4.4-7.24 21.49-.75 2.33-.79 4.16"/><path stroke="#908f7f" vector-effect="non-scaling-stroke" d="M78.5 543.96q-1.42 6.22 2.5 11"/><path stroke="#c8c9bb" vector-effect="non-scaling-stroke" d="M81 554.96l-2.06-.34a1.47 1.43 34.9 00-.92.15q-8.61 4.52-17.45 8.57c-.4.19-.74.71-.48 1.11a.77.76-22.7 00.83.33q12.51-2.9 24.12-7.53"/><path stroke="#908f7f" vector-effect="non-scaling-stroke" d="M85.04 557.25q4.89-.52 9.21-2.79"/><path stroke="#c8c9bb" vector-effect="non-scaling-stroke" d="M94.25 554.46q3.22-.24 4.95-.75 35.31-10.47 70.74-20.53c57.93-16.45 116.14-29.77 175.27-41.13q4.11-.79 6.35-2.98 28.31-27.64 57.78-54a.37.37 0 01.58.13q3.41 7.6 12.09 6.33 12.44-1.83 23.61-7.44c5.19-2.61 8.83-9.32 1.92-12.43-8.31-3.73-15.24-2.05-23.24 1.39a.31.31 0 01-.32-.53q15.94-13.49 31.9-25.95c14.61-11.41 29.88-21.69 44.27-33.5q17.78-14.6 35.78-28.98a.63.62-32.9 00.17-.77c-2.87-5.7-27.28 8.08-31.82 10.95-2.52 1.6-4 4.23-5.9 6.49a.51.51 0 01-.76.02q-.16-.17-.16-.53"/><path stroke="#908f7f" vector-effect="non-scaling-stroke" d="M497.46 350.25q12.96-18.9 17.51-28.3c34.87-71.97 12.87-160.25-55.01-204.07Q409.18 85.11 348.6 93.83c-48.67 7-91.79 37.7-115.6 80.38"/><path stroke="#5b5c5c" vector-effect="non-scaling-stroke" d="M497.46 350.25c-26.54 32.54-63.41 53.55-104.71 59.21"/><path stroke="#908f7f" vector-effect="non-scaling-stroke" d="M392.75 409.46c-16.77.75-30.39 1.4-45.88-.82-32.24-4.62-62.42-20.28-85.89-42.79a1.25 1.24-22.2 00-.84-.35l-2.15-.02a1.38 1.37 22.8 00-.96.39q-3.81 3.67-8.88 5.1a.97.96-88.7 00-.65.63l-2.28 7.15a.9.89 3.2 01-.69.61q-3.07.56-4.03.38c-7.94-1.44-16.95-2.01-23.85-3.46-12.94-2.72-23.82-7.19-33.01-15.63a.49.48-62.7 00-.8.26q-2.96 14.09-7.32 27.64-.58 1.82.94 7.35a.7.68 82.9 00.63.5q2.55.11 3.64.39c13.91 3.57 31.8 10.39 43.25 20.07"/><path stroke="#121110" vector-effect="non-scaling-stroke" d="M223.98 416.86q-.06 2.97-.03 5.82.02 2.28-.73 5.54-1.04 4.46-.47 9.04"/><path stroke="#908f7f" vector-effect="non-scaling-stroke" d="M222.75 437.26q-1.31 6.13-2.66 12.32c-2.41 11.03-3.92 22.38-6.1 33.54a.94.93 87.5 01-.65.72l-1.65.49a.58.58 0 00-.39.74l.27.84a1.3 1.29-83.8 00.57.72c8.76 5.08 16.45 2.85 26.06 2.57"/><path stroke="#5b5c5c" vector-effect="non-scaling-stroke" d="M238.2 489.2q2.86 1.83 3.06 5.04a1.14 1.13-24.7 01-.32.86q-6.69 6.87-14.7 7.88c-6.42.8-11.51.75-17.01 4.46-3.3 2.22-16.71 7.51-17.48.02"/><path stroke="#908f7f" vector-effect="non-scaling-stroke" d="M191.75 507.46q-1.18-7.4 1.69-14.17.58-1.37.3-2.65a.79.78-23 00-1.2-.48l-2.07 1.35a.44.44 0 01-.68-.34c-.09-1.42-.13-2.69.26-4.12 1.64-5.94 1.76-11.14 5.77-16.73a1.22 1.22 0 00.22-.89c-.92-6.69-1.34-17.51 2.09-23.41 2.54-4.37-1.34-9.78 4.87-12.37q.45-.18-.03-.26c-7.36-1.11-14.88.21-23.49-.93-8.43-1.11-17.02-3.5-25.49-5.97a1.1 1.1 0 00-1.36.73q-4.18 13.21-8.38 26.95-1.45 4.75-3.85 9.24-11.51 21.58-28.04 55.64-2.22 4.59-3.24 7.85c-.92 2.93-2.22 6.17-4.15 7.63q-4.81 3.61-5.3 9.46"/><path stroke="#5b5c5c" vector-effect="non-scaling-stroke" d="M99.67 543.99q-1.9 5.87-5.42 10.47M85.04 557.25L81 554.96"/><path stroke="#121110" vector-effect="non-scaling-stroke" d="M78.5 543.96l1.19-1.15a1.83 1.76 76.4 00.48-.82c1.46-5.61 4.52-11.27 5.85-17.31.71-3.23 2.09-5.34 3.69-8.02 2.08-3.48 5.56-3.39 6.56-7.9.92-4.14 1.13-8.23 2.58-11.86 2.57-6.44 4.99-12.96 8.66-18.88 1.11-1.79 3.49-6.45 1.03-7.77M213.96 232.75q-.11.74.37 1.11.86.65 1-.42c1.12-8.69 3.32-16.93 4.95-25.51q.35-1.86.84-3.24 4.95-14.11 12.15-28.67.53-1.08-.27-1.81"/><path stroke="#c8c9bb" vector-effect="non-scaling-stroke" d="M99.67 543.99q40.9-19.79 85.35-35.42 3.5-1.23 6.73-1.11M238.2 489.2q29.49-12.74 59.05-25.31 10.95-4.65 18.23-8.2c25.62-12.47 46.49-27.24 69.32-41.64q4.04-2.55 8.56-4.07.57-.19.04-.47-.31-.17-.65-.05"/><path stroke="#7f7e6f" vector-effect="non-scaling-stroke" d="M222.75 437.26c1.12-3.74 4.41-17.91 1.23-20.4"/><path stroke="#c8c9bb" vector-effect="non-scaling-stroke" d="M466.99 412.42q-5.22-.98-9.77 2.11c-2.47 1.68-.85 6.84 1.06 8.49a1.17 1.16 62.6 00.88.28c5.48-.62 10.62-3.92 8.73-10.07a1.19 1.19 0 00-.9-.81M515.75 475.01l-.36-.02a.35.35 0 00-.34.47c.39 1.01 1.84.61 2.27-.18a.39.38 16.3 00-.31-.56q-.25-.02-.48.05-.77.24-.78.24M468.9 485.89q.84.79 1.45-.13.63-.96-.47-.61l-.88.27a.28.28 0 00-.1.47"/><path stroke="#5b5c5c" vector-effect="non-scaling-stroke" d="M310.96 121.5q-1.81 2.02-3.05 4.42-14.54 28.3-17.29 59.99c-.21 2.43.51 5.5-.2 8.36q-.12.49-.44.09-7.79-10.02-16.65-17.66c-4.22-3.63-8.04-2.23-10.6 2.36-5.91 10.58-6.15 22.92-4.54 34.49 3.6 25.81 13.59 52.45 34.18 69.66 2.65 2.22 5.63 3.59 8.88 3.81q12.55.88 25.3 2.8 2.06.31.81-1.35c-3.87-5.16-8.68-11.07-10.4-17.62-.89-3.37.12-6.94.81-10.34q.1-.5.45-.13 8.37 8.7 13.61 13.03c18.34 15.15 44.24 24.56 67.94 27.05q11.66 1.23 27.25 1.84.51.02.21.42c-5.71 8.01-17.44 13.52-26.53 16.8a.29.29 0 00.01.55c17.85 5.22 40.32 4.89 56.98-4.53a.88.86 48.2 01.95.06l3.8 2.83a1.12 1.11-31.9 00.87.2c7.64-1.41 16.29-5.66 23.66-8.46 2.43-.92 4.16-3.21 4.84-5.4q4.13-13.25 8.16-26.53.61-2 2.93-2.97.47-.2.78-.59 1.2-1.52 1.39-2.16 7.42-24.76 12.06-50.19 1.48-8.11 1.08-16.33"/><path stroke="#919190" vector-effect="non-scaling-stroke" d="M518.21 206c-.64-12.84-10.46-27.66-17.39-39.15-8.44-14.02-17.84-25.53-30.92-35.51-8.73-6.65-21.08-13.37-31.25-18.97-17.81-9.8-36.11-14.04-56.38-14.89-12.8-.54-28.64-.74-39.2 4.08q-12.65 5.78-29.85 17.91-1.26.89-2.26 2.03"/><path stroke="#c9cacc" vector-effect="non-scaling-stroke" d="M518.21 206q-.5.22-.85-.01a.74.73-65.5 01-.29-.79c.19-.75-1.98-6.96-2.29-7.72q-4.16-10.07-10.62-22.65c-7.06-13.74-20.1-24.81-35.16-28.65a1.6 1.6 0 00-2 1.49q-.18 4.7-1.65 9.09a.4.4 0 01-.65.18c-3.24-2.81-15.21-10.33-16.15-13.72q-4.1-14.81-15.86-21.92-12.46-7.52-16.73-9.06-23.31-8.38-47.96-11.02-6.12-.65-21.02.99c-3.45.38-5.54 1.24-8.51 2.77q-14.89 7.72-26.84 16.98a.41.41 0 01-.58-.08q-.12-.14-.09-.38"/><path stroke="#5b5c5c" vector-effect="non-scaling-stroke" d="M189.28 263.29c-5.61 3.68-13.93 3.5-20.7 5.95a.72.71-15.5 00-.46.8l1.35 7.18a.73.73 0 00.83.59c10.04-1.61 20.02-2.8 29.66-6.29a1.29 1.29 0 00.81-1.54c-1.01-3.74-1.38-10.11-6.53-9.75q-5.15.36-10.72 1.1a.54.54 0 00.06 1.08l5.48.13a.41.41 0 01.22.75M227.2 289.34q-1.34-3-.66-6.18.1-.51-.03-1l-.34-1.27a.48.48 0 01.37-.59c1.47-.3 2.15-1.04 1.94-2.63q-.6-4.69-1.21-9.37-.25-1.94-1.47-.42c-.86 1.07-.34 1.85-.38 2.81-.4 8.35-2.84 15.79.95 23.01a.98.98 0 01-.08 1.03l-2.43 3.25a1.33 1.31-31.2 00-.24.95q.36 2.88 1.65 5.45a.5.49-39.4 00.83.08l7.08-9.06a1.12 1.1 56.6 00.19-.96l-3.46-12.68a.7.7 0 00-1.38.18l-.07 7.14a.66.66 0 01-1.26.26M255.83 283.51c1.52 12.02 4.26 32.12 20.43 33.28 3.91.28 10.67-.64 14.04 1.08q10.58 5.43 13.02 16.61c2.83 12.97.34 35.12 19.93 39.05q17.33 3.47 35 2.49c5.73-.31 3.6-12.03 2.68-15.26q-1.9-6.57-6.71-9.28-8.98-5.06-24.66-11.33c-3.66-1.46-9.31-4.01-11.33-6.14q-10.8-11.44-18.68-25.11a1.15 1.13 81.1 00-.73-.54c-10.8-2.47-17.64-5.73-24.98-14.7q-9.36-11.43-18.86-22.84-.33-.38-.3.12.36 6.31 1.15 12.57M203.3 281.18c6.31-.4 10.31.5 15.18.02a.29.29 0 00.08-.56q-6.62-2.75-13.6-3.69c-4.01-.54-9.35 2.13-13.36 2.85q-10.19 1.84-20.41 3.37-2.33.35-3.68 2.21-.3.42.21.35c11.77-1.53 23.78-3.82 35.58-4.55"/><path stroke="#908f7f" vector-effect="non-scaling-stroke" d="M193.16 308.46c3.81 1.35 8.13 2.29 11.7-.19q6.76-4.69 13.09-10.09a2.37 2.36 64.1 00.78-2.26l-1.96-10.04a2.05 2.05 0 00-2.06-1.66l-9.16.21a.36.36 0 00-.3.55l2.64 4.45q.97 1.63-.29 3.05-.78.89-1.89.79a.76.76 0 00-.8.6q-1.24 5.78-.89 11.65a1.85 1.84 84.7 01-1.6 1.94c-2.77.37-8.43-2.25-9.44.64a.28.28 0 00.18.36"/><path stroke="#5b5c5c" vector-effect="non-scaling-stroke" d="M198.15 286.86l1.23-1.41q.64-.72-.33-.65l-3.59.3a.85.84 10.5 00-.69.47l-2.66 5.53a.78.77-50.6 00.07.79c1.01 1.39 3.38 4.27 1.09 4.88a1.22 1.2 52.4 01-.95-.13l-2.82-1.68q-.73-.43-.65.41l.56 5.64a1.1 1.1 0 00.76.94l9.84 3.07a1.5 1.5 0 001.94-1.27q.34-2.96-1.42-5.21a.73.73 0 01-.01-.87c1.78-2.43 4.61-12.39-2.03-10.29q-1.11.35-.34-.52M182.82 287.94c.15 1.5 1.47 5.59 3.66 5.37a.66.66 0 00.38-1.14q-1.22-1.14-1.59-2.71a1.04 1.04 0 01.19-.87l1.23-1.67a.47.46 28.2 00-.22-.72q-2.02-.69-3.34.79a1.27 1.26-27.2 00-.31.95M183.5 295.79l-2.63-4.08a.61.61 0 00-1.12.23q-.61 3.5-3.36 5.77a.6.59-38.4 00-.1.83q3.87 4.98 6.08 10.9a.41.41 0 00.65.17l6.15-5.19a.33.33 0 00-.05-.54q-3.46-2.03-3.03-6.34a.65.65 0 00-.44-.69l-1.43-.49a1.4 1.39-6.5 01-.72-.57M318.23 307.18c8.4 15.36 28.07 35.09 45.96 36.84 14.99 1.47 26.12-.32 40.55-5.86a.3.29 54.3 00.08-.5c-6.21-5.2-9.08-10.58-13.05-16.76a1.26 1.25 79.3 00-.77-.53c-20.56-4.86-40.16-11.08-55.36-25.58a.72.71-36.2 00-.81-.12c-6.16 3.06-11.17 5.69-16.26 10.44a1.72 1.71 54.5 00-.34 2.07M142.14 347.79l22.92.36a1.09 1.09 0 001.09-1.24l-1.14-7.9q-.06-.42.22-.11c1.89 2.1 2.91 4.55 4.87 6.58a.46.46 0 00.79-.29q1.17-16.1 16.57-20.71a.3.3 0 00.12-.5l-6.02-6.05a.52.51-39.1 01.09-.79l.24-.16a.41.41 0 00.14-.54q-5.29-9.75-14.36-15.89c-3.44-2.33-5.47-1.87-8.79.13-17.66 10.66-21.16 23.92-22.13 43.57q-.1 2.02-1.16 3.85-5.88 10.13-8.24 21.71a.37.36-88.3 00.41.44q17.73-2.87 32.29-13.27a1.01 1 33.8 00-.36-1.79q-9.37-2.2-17.66-7.01a.21.21 0 01.11-.39"/><path stroke="#121110" vector-effect="non-scaling-stroke" d="M247 350.29q.46.03.76-.17a.71.7 56.2 00.19-.97q-7.2-10.94-14.03-22-3.36-5.46-4.16-8.38-.72-2.67-3.56-4.22"/><path stroke="#908f7f" vector-effect="non-scaling-stroke" d="M226.2 314.55q-8.21 7.09-15.35 15.2a1.02 1.01 23.8 01-.88.34l-11.67-1.24a.63.63 0 00-.68.48q-.9 3.85 1.01 6.26c2.62 3.32 13.28 15.98 18.88 17.48 10.15 2.73 21.34 6.26 32.35 2.27a.43.42 63.4 00.21-.64l-3.07-4.41"/><path stroke="#7f7e6f" vector-effect="non-scaling-stroke" d="M226.2 314.55c4.32 12.82 12.44 24.79 20.8 35.74"/><path stroke="#121110" vector-effect="non-scaling-stroke" d="M260.76 359.28q3.29-.1 2.6-3.59-.55-2.78-.57-2.92-.82-6.41-3.32-12.4"/><path stroke="#5b5c5c" vector-effect="non-scaling-stroke" d="M259.47 340.37q-1.25-3.25-1.41-7a.5.5 0 00-.99-.04l-1.05 8.21a.44.44 0 01-.64.33c-1.91-1.01 1.78-12.42-.3-13.02a1.07 1.06-72 00-1.29.66c-3.36 9.29-1.82 15.97-.6 25.51a1.01 1.01 0 01-.42.96l-3.36 2.36a.79.79 0 00-.34.61l-.26 6.06a.21.21 0 00.3.2l11.65-5.93"/><path stroke="#4a4b4c" vector-effect="non-scaling-stroke" d="M259.47 340.37q.43 7.94 2.53 15.38.3 1.05-1.24 3.53"/><path stroke="#5b5c5c" vector-effect="non-scaling-stroke" d="M200.76 354.93q4.67-.46 9.29.16a.83.83 0 00.65-1.45c-5.92-5.17-16.16-14.06-17.27-22.41a1.13 1.11 88.7 00-1-.97c-8.43-.73-14.57 4.79-15.42 13.21a1.08 1.06 25.7 00.31.86c6.52 6.45 14.79 14.47 22.91 18.73a1.62 1.59-33.4 00.92.18q7.4-.82 14.11-3.99.8-.38-.06-.58l-14.47-3.23q-1.57-.35.03-.51M371.39 359.37c8.76 7.18 20.69 14.67 32.11 16.07 10.72 1.32 33.12 1.47 39.96-8.77q7.69-11.48 15.28-27.79.22-.47-.28-.34-44.5 11.56-90.17 16.75a.31.3-20.4 00-.22.47q1.37 2 3.32 3.61M239.99 361.64c-4.43-1.01-7.99-.21-13.2-1.92-2.81-.92-11.09 3.62-14.04 4.88-2.9 1.24-5.69 1.09-8.76 1.22q-.53.02-.2.44c2.99 3.85 15.55 1 18.78-.09 2.83-.95 5.45-.43 8.48-1.47q4.28-1.46 8.92-2.24a.42.42 0 00.02-.82M121.19 375.86l-6.03 18.32a.37.37 0 00.37.48c20.32-.94 45.22-10.68 55.58-29.3a.7.69-86.2 00-.86-.99q-23.33 9.23-48.37 10.95a.8.79-82.7 00-.69.54"/><path stroke="#c9cacc" vector-effect="non-scaling-stroke" d="M437 190.96c-7.82 4.06-16.62 4.85-24.83 1.53q-2.56-1.03-5.19-2.01-.47-.17-.23.27c2.31 4.28 7.34 13.16 11.96 14.99 2.66 1.05 5.56 3 8.42 2.91q6.73-.22 13.26-2c3.8-1.03 6.44-3.45 9.64-5.69a.33.32-34.6 00.09-.46l-.16-.25"/><path stroke="#5b5c5c" vector-effect="non-scaling-stroke" d="M449.96 200.25q.15-.6-.11-1.07-7.28-13-9.77-27.76a2.08 2.07 9.2 00-1.08-1.49c-7.96-4.2-22.06-11.19-28.96-.88q-4.45 6.66-7.61 14.9a.83.82 8.6 00.83 1.12c7.23-.49 21.48-6.79 26.6-1.21q3.43 3.74 7.14 7.1"/><path stroke="#919190" vector-effect="non-scaling-stroke" d="M449.96 200.25c-6.01-1.49-8.63-5.47-12.96-9.29"/><path stroke="#5b5c5c" vector-effect="non-scaling-stroke" d="M458.19 307.06q3.64 3.09 5.84-.51 9.15-15.02 20.67-25.6 4.32-3.96 9.59-2.82.49.11.26-.34c-1.67-3.21-4.29-4.04-8.12-5.55-10.81-4.25-23.18 1.29-28.03 11.67q-3.47 7.43-3.89 15.57-.22 4.29 3.68 7.58"/></g><path fill="#939598" d="M0 0h590.31l-.56.71q-.75.14-1.5.14Q294.13.97 0 .94V0z"/><path fill="#fff" d="M590.31 0h.69v591H8.19q-2.38-.63-4.75 0H0v-1.06q4.12.15 8.25.15 290.72.16 581.47.16a.53.53 0 00.53-.53V1.5q0-.32-.5-.79l.56-.71z"/><path d="M589.75.71q.5.47.5.79v588.22a.53.53 0 01-.53.53q-290.75 0-581.47-.16-4.13 0-8.25-.15V.94Q294.13.97 588.25.85q.75 0 1.5-.14zm-4.25 4.81a.26.26 0 00-.26-.26H5.5a.26.26 0 00-.26.26v579.72a.26.26 0 00.26.26h579.74a.26.26 0 00.26-.26V5.52z"/><path fill="#fdfcde" d="M585.5 585.24a.26.26 0 01-.26.26H5.5a.26.26 0 01-.26-.26V5.52a.26.26 0 01.26-.26h579.74a.26.26 0 01.26.26v579.72zM48.27 29.61c-15.7.13-21.8 7.97-22.19 23.4q-.55 22.18 0 39.48a.54.54 0 00.53.53q1.44.02 2.85-1.32c23.79-22.52 43.72-41.4 61.55-60.52a.77.77 0 00-.54-1.29q-21.23-.46-42.2-.28zM233 174.21c-10.31 17.47-16.38 38.78-19.04 58.54q-2.63 21.74.62 43.42a.35.35 0 01-.44.39l-8.98-2.54a.8.78-85.8 01-.57-.68q-.61-5.42-2.28-10.61c-1.34-4.16-3.49-5.84-7.79-5.86q-16.51-.05-28.91 9.77-.59.47-1.13 1.4a1.66 1.57-33.7 00-.21.93l.94 11.54c.3 3.69-7.55 6.91-8.84 11.35a.44.43-88.7 00.52.55l10.31-2.53a.55.54-21.1 01.62.27l1.34 2.59a.81.81 0 01-.12.92q-2.85 3.1-6.2.76a1.66 1.65 49.2 00-1.69-.13c-21.74 10.84-28.38 25.23-29.24 48.86q-.1 2.64-1.07 4.97-4.7 11.18-8.12 22.82a.99.97 1.8 01-.75.69l-3.44.66a1.32 1.31 4.8 00-.98.82L107.05 400q-.06.14-.17.24-.19.16-.1.48a.36.35 81.4 00.37.28l8.49-.69a.61.61 0 01.66.59q1.05 25.96.98 51.95a.56.55-.5 01-.55.55q-5.41.09-5.32 5.27a1.24 1.23-65.9 00.31.82l1.67 1.93a.6.6 0 01-.06.84q-3.7 3.24-4.79 7.99c-.49 1.41-.88 2.9-1.58 4.22q-8.82 16.54-12.11 32.36-.56 2.72-1.09 3.92a1.57 1.53-3 01-.66.71q-4.9 2.64-6.57 6.85-1.76 4.4-7.24 21.49-.75 2.33-.79 4.16-1.42 6.22 2.5 11l-2.06-.34a1.47 1.43 34.9 00-.92.15q-8.61 4.52-17.45 8.57c-.4.19-.74.71-.48 1.11a.77.76-22.7 00.83.33q12.51-2.9 24.12-7.53 4.89-.52 9.21-2.79 3.22-.24 4.95-.75 35.31-10.47 70.74-20.53c57.93-16.45 116.14-29.77 175.27-41.13q4.11-.79 6.35-2.98 28.31-27.64 57.78-54a.37.37 0 01.58.13q3.41 7.6 12.09 6.33 12.44-1.83 23.61-7.44c5.19-2.61 8.83-9.32 1.92-12.43-8.31-3.73-15.24-2.05-23.24 1.39a.31.31 0 01-.32-.53q15.94-13.49 31.9-25.95c14.61-11.41 29.88-21.69 44.27-33.5q17.78-14.6 35.78-28.98a.63.62-32.9 00.17-.77c-2.87-5.7-27.28 8.08-31.82 10.95-2.52 1.6-4 4.23-5.9 6.49a.51.51 0 01-.76.02q-.16-.17-.16-.53 12.96-18.9 17.51-28.3c34.87-71.97 12.87-160.25-55.01-204.07Q409.18 85.11 348.6 93.83c-48.67 7-91.79 37.7-115.6 80.38zm233.99 238.21q-5.22-.98-9.77 2.11c-2.47 1.68-.85 6.84 1.06 8.49a1.17 1.16 62.6 00.88.28c5.48-.62 10.62-3.92 8.73-10.07a1.19 1.19 0 00-.9-.81zm48.76 62.59l-.36-.02a.35.35 0 00-.34.47c.39 1.01 1.84.61 2.27-.18a.39.38 16.3 00-.31-.56q-.25-.02-.48.05-.77.24-.78.24zm-46.85 10.88q.84.79 1.45-.13.63-.96-.47-.61l-.88.27a.28.28 0 00-.1.47z"/><path fill="#f8e1a8" d="M26.08 53.01c.39-15.43 6.49-23.27 22.19-23.4q20.97-.18 42.2.28a.77.77 0 01.54 1.29c-17.83 19.12-37.76 38-61.55 60.52q-1.41 1.34-2.85 1.32a.54.54 0 01-.53-.53q-.55-17.3 0-39.48z"/><path fill="#232220" d="M497.46 350.25c-26.54 32.54-63.41 53.55-104.71 59.21-16.77.75-30.39 1.4-45.88-.82-32.24-4.62-62.42-20.28-85.89-42.79a1.25 1.24-22.2 00-.84-.35l-2.15-.02a1.38 1.37 22.8 00-.96.39q-3.81 3.67-8.88 5.1a.97.96-88.7 00-.65.63l-2.28 7.15a.9.89 3.2 01-.69.61q-3.07.56-4.03.38c-7.94-1.44-16.95-2.01-23.85-3.46-12.94-2.72-23.82-7.19-33.01-15.63a.49.48-62.7 00-.8.26q-2.96 14.09-7.32 27.64-.58 1.82.94 7.35a.7.68 82.9 00.63.5q2.55.11 3.64.39c13.91 3.57 31.8 10.39 43.25 20.07q-.06 2.97-.03 5.82.02 2.28-.73 5.54-1.04 4.46-.47 9.04-1.31 6.13-2.66 12.32c-2.41 11.03-3.92 22.38-6.1 33.54a.94.93 87.5 01-.65.72l-1.65.49a.58.58 0 00-.39.74l.27.84a1.3 1.29-83.8 00.57.72c8.76 5.08 16.45 2.85 26.06 2.57q2.86 1.83 3.06 5.04a1.14 1.13-24.7 01-.32.86q-6.69 6.87-14.7 7.88c-6.42.8-11.51.75-17.01 4.46-3.3 2.22-16.71 7.51-17.48.02q-1.18-7.4 1.69-14.17.58-1.37.3-2.65a.79.78-23 00-1.2-.48l-2.07 1.35a.44.44 0 01-.68-.34c-.09-1.42-.13-2.69.26-4.12 1.64-5.94 1.76-11.14 5.77-16.73a1.22 1.22 0 00.22-.89c-.92-6.69-1.34-17.51 2.09-23.41 2.54-4.37-1.34-9.78 4.87-12.37q.45-.18-.03-.26c-7.36-1.11-14.88.21-23.49-.93-8.43-1.11-17.02-3.5-25.49-5.97a1.1 1.1 0 00-1.36.73q-4.18 13.21-8.38 26.95-1.45 4.75-3.85 9.24-11.51 21.58-28.04 55.64-2.22 4.59-3.24 7.85c-.92 2.93-2.22 6.17-4.15 7.63q-4.81 3.61-5.3 9.46-1.9 5.87-5.42 10.47-4.32 2.27-9.21 2.79L81 554.96q-3.92-4.78-2.5-11l1.19-1.15a1.83 1.76 76.4 00.48-.82c1.46-5.61 4.52-11.27 5.85-17.31.71-3.23 2.09-5.34 3.69-8.02 2.08-3.48 5.56-3.39 6.56-7.9.92-4.14 1.13-8.23 2.58-11.86 2.57-6.44 4.99-12.96 8.66-18.88 1.11-1.79 3.49-6.45 1.03-7.77q1.09-4.75 4.79-7.99a.6.6 0 00.06-.84l-1.67-1.93a1.24 1.23-65.9 01-.31-.82q-.09-5.18 5.32-5.27a.56.55-.5 00.55-.55q.07-25.99-.98-51.95a.61.61 0 00-.66-.59l-8.49.69a.36.35 81.4 01-.37-.28q-.09-.32.1-.48.11-.1.17-.24l10.5-26.89a1.32 1.31 4.8 01.98-.82l3.44-.66a.99.97 1.8 00.75-.69q3.42-11.64 8.12-22.82.97-2.33 1.07-4.97c.86-23.63 7.5-38.02 29.24-48.86a1.66 1.65 49.2 011.69.13q3.35 2.34 6.2-.76a.81.81 0 00.12-.92l-1.34-2.59a.55.54-21.1 00-.62-.27l-10.31 2.53a.44.43-88.7 01-.52-.55c1.29-4.44 9.14-7.66 8.84-11.35l-.94-11.54a1.66 1.57-33.7 01.21-.93q.54-.93 1.13-1.4 12.4-9.82 28.91-9.77c4.3.02 6.45 1.7 7.79 5.86q1.67 5.19 2.28 10.61a.8.78-85.8 00.57.68l8.98 2.54a.35.35 0 00.44-.39q-3.25-21.68-.62-43.42-.11.74.37 1.11.86.65 1-.42c1.12-8.69 3.32-16.93 4.95-25.51q.35-1.86.84-3.24 4.95-14.11 12.15-28.67.53-1.08-.27-1.81c23.81-42.68 66.93-73.38 115.6-80.38q60.58-8.72 111.36 24.05c67.88 43.82 89.88 132.1 55.01 204.07q-4.55 9.4-17.51 28.3zM310.96 121.5q-1.81 2.02-3.05 4.42-14.54 28.3-17.29 59.99c-.21 2.43.51 5.5-.2 8.36q-.12.49-.44.09-7.79-10.02-16.65-17.66c-4.22-3.63-8.04-2.23-10.6 2.36-5.91 10.58-6.15 22.92-4.54 34.49 3.6 25.81 13.59 52.45 34.18 69.66 2.65 2.22 5.63 3.59 8.88 3.81q12.55.88 25.3 2.8 2.06.31.81-1.35c-3.87-5.16-8.68-11.07-10.4-17.62-.89-3.37.12-6.94.81-10.34q.1-.5.45-.13 8.37 8.7 13.61 13.03c18.34 15.15 44.24 24.56 67.94 27.05q11.66 1.23 27.25 1.84.51.02.21.42c-5.71 8.01-17.44 13.52-26.53 16.8a.29.29 0 00.01.55c17.85 5.22 40.32 4.89 56.98-4.53a.88.86 48.2 01.95.06l3.8 2.83a1.12 1.11-31.9 00.87.2c7.64-1.41 16.29-5.66 23.66-8.46 2.43-.92 4.16-3.21 4.84-5.4q4.13-13.25 8.16-26.53.61-2 2.93-2.97.47-.2.78-.59 1.2-1.52 1.39-2.16 7.42-24.76 12.06-50.19 1.48-8.11 1.08-16.33c-.64-12.84-10.46-27.66-17.39-39.15-8.44-14.02-17.84-25.53-30.92-35.51-8.73-6.65-21.08-13.37-31.25-18.97-17.81-9.8-36.11-14.04-56.38-14.89-12.8-.54-28.64-.74-39.2 4.08q-12.65 5.78-29.85 17.91-1.26.89-2.26 2.03zM189.28 263.29c-5.61 3.68-13.93 3.5-20.7 5.95a.72.71-15.5 00-.46.8l1.35 7.18a.73.73 0 00.83.59c10.04-1.61 20.02-2.8 29.66-6.29a1.29 1.29 0 00.81-1.54c-1.01-3.74-1.38-10.11-6.53-9.75q-5.15.36-10.72 1.1a.54.54 0 00.06 1.08l5.48.13a.41.41 0 01.22.75zm37.92 26.05q-1.34-3-.66-6.18.1-.51-.03-1l-.34-1.27a.48.48 0 01.37-.59c1.47-.3 2.15-1.04 1.94-2.63q-.6-4.69-1.21-9.37-.25-1.94-1.47-.42c-.86 1.07-.34 1.85-.38 2.81-.4 8.35-2.84 15.79.95 23.01a.98.98 0 01-.08 1.03l-2.43 3.25a1.33 1.31-31.2 00-.24.95q.36 2.88 1.65 5.45a.5.49-39.4 00.83.08l7.08-9.06a1.12 1.1 56.6 00.19-.96l-3.46-12.68a.7.7 0 00-1.38.18l-.07 7.14a.66.66 0 01-1.26.26zm28.63-5.83c1.52 12.02 4.26 32.12 20.43 33.28 3.91.28 10.67-.64 14.04 1.08q10.58 5.43 13.02 16.61c2.83 12.97.34 35.12 19.93 39.05q17.33 3.47 35 2.49c5.73-.31 3.6-12.03 2.68-15.26q-1.9-6.57-6.71-9.28-8.98-5.06-24.66-11.33c-3.66-1.46-9.31-4.01-11.33-6.14q-10.8-11.44-18.68-25.11a1.15 1.13 81.1 00-.73-.54c-10.8-2.47-17.64-5.73-24.98-14.7q-9.36-11.43-18.86-22.84-.33-.38-.3.12.36 6.31 1.15 12.57zm-52.53-2.33c6.31-.4 10.31.5 15.18.02a.29.29 0 00.08-.56q-6.62-2.75-13.6-3.69c-4.01-.54-9.35 2.13-13.36 2.85q-10.19 1.84-20.41 3.37-2.33.35-3.68 2.21-.3.42.21.35c11.77-1.53 23.78-3.82 35.58-4.55zm-10.14 27.28c3.81 1.35 8.13 2.29 11.7-.19q6.76-4.69 13.09-10.09a2.37 2.36 64.1 00.78-2.26l-1.96-10.04a2.05 2.05 0 00-2.06-1.66l-9.16.21a.36.36 0 00-.3.55l2.64 4.45q.97 1.63-.29 3.05-.78.89-1.89.79a.76.76 0 00-.8.6q-1.24 5.78-.89 11.65a1.85 1.84 84.7 01-1.6 1.94c-2.77.37-8.43-2.25-9.44.64a.28.28 0 00.18.36zm4.99-21.6l1.23-1.41q.64-.72-.33-.65l-3.59.3a.85.84 10.5 00-.69.47l-2.66 5.53a.78.77-50.6 00.07.79c1.01 1.39 3.38 4.27 1.09 4.88a1.22 1.2 52.4 01-.95-.13l-2.82-1.68q-.73-.43-.65.41l.56 5.64a1.1 1.1 0 00.76.94l9.84 3.07a1.5 1.5 0 001.94-1.27q.34-2.96-1.42-5.21a.73.73 0 01-.01-.87c1.78-2.43 4.61-12.39-2.03-10.29q-1.11.35-.34-.52zm-15.33 1.08c.15 1.5 1.47 5.59 3.66 5.37a.66.66 0 00.38-1.14q-1.22-1.14-1.59-2.71a1.04 1.04 0 01.19-.87l1.23-1.67a.47.46 28.2 00-.22-.72q-2.02-.69-3.34.79a1.27 1.26-27.2 00-.31.95zm.68 7.85l-2.63-4.08a.61.61 0 00-1.12.23q-.61 3.5-3.36 5.77a.6.59-38.4 00-.1.83q3.87 4.98 6.08 10.9a.41.41 0 00.65.17l6.15-5.19a.33.33 0 00-.05-.54q-3.46-2.03-3.03-6.34a.65.65 0 00-.44-.69l-1.43-.49a1.4 1.39-6.5 01-.72-.57zm134.73 11.39c8.4 15.36 28.07 35.09 45.96 36.84 14.99 1.47 26.12-.32 40.55-5.86a.3.29 54.3 00.08-.5c-6.21-5.2-9.08-10.58-13.05-16.76a1.26 1.25 79.3 00-.77-.53c-20.56-4.86-40.16-11.08-55.36-25.58a.72.71-36.2 00-.81-.12c-6.16 3.06-11.17 5.69-16.26 10.44a1.72 1.71 54.5 00-.34 2.07zm-176.09 40.61l22.92.36a1.09 1.09 0 001.09-1.24l-1.14-7.9q-.06-.42.22-.11c1.89 2.1 2.91 4.55 4.87 6.58a.46.46 0 00.79-.29q1.17-16.1 16.57-20.71a.3.3 0 00.12-.5l-6.02-6.05a.52.51-39.1 01.09-.79l.24-.16a.41.41 0 00.14-.54q-5.29-9.75-14.36-15.89c-3.44-2.33-5.47-1.87-8.79.13-17.66 10.66-21.16 23.92-22.13 43.57q-.1 2.02-1.16 3.85-5.88 10.13-8.24 21.71a.37.36-88.3 00.41.44q17.73-2.87 32.29-13.27a1.01 1 33.8 00-.36-1.79q-9.37-2.2-17.66-7.01a.21.21 0 01.11-.39zm104.86 2.5q.46.03.76-.17a.71.7 56.2 00.19-.97q-7.2-10.94-14.03-22-3.36-5.46-4.16-8.38-.72-2.67-3.56-4.22-8.21 7.09-15.35 15.2a1.02 1.01 23.8 01-.88.34l-11.67-1.24a.63.63 0 00-.68.48q-.9 3.85 1.01 6.26c2.62 3.32 13.28 15.98 18.88 17.48 10.15 2.73 21.34 6.26 32.35 2.27a.43.42 63.4 00.21-.64l-3.07-4.41zm13.76 8.99q3.29-.1 2.6-3.59-.55-2.78-.57-2.92-.82-6.41-3.32-12.4-1.25-3.25-1.41-7a.5.5 0 00-.99-.04l-1.05 8.21a.44.44 0 01-.64.33c-1.91-1.01 1.78-12.42-.3-13.02a1.07 1.06-72 00-1.29.66c-3.36 9.29-1.82 15.97-.6 25.51a1.01 1.01 0 01-.42.96l-3.36 2.36a.79.79 0 00-.34.61l-.26 6.06a.21.21 0 00.3.2l11.65-5.93zm-60-4.35q4.67-.46 9.29.16a.83.83 0 00.65-1.45c-5.92-5.17-16.16-14.06-17.27-22.41a1.13 1.11 88.7 00-1-.97c-8.43-.73-14.57 4.79-15.42 13.21a1.08 1.06 25.7 00.31.86c6.52 6.45 14.79 14.47 22.91 18.73a1.62 1.59-33.4 00.92.18q7.4-.82 14.11-3.99.8-.38-.06-.58l-14.47-3.23q-1.57-.35.03-.51zm170.63 4.44c8.76 7.18 20.69 14.67 32.11 16.07 10.72 1.32 33.12 1.47 39.96-8.77q7.69-11.48 15.28-27.79.22-.47-.28-.34-44.5 11.56-90.17 16.75a.31.3-20.4 00-.22.47q1.37 2 3.32 3.61zm-131.4 2.27c-4.43-1.01-7.99-.21-13.2-1.92-2.81-.92-11.09 3.62-14.04 4.88-2.9 1.24-5.69 1.09-8.76 1.22q-.53.02-.2.44c2.99 3.85 15.55 1 18.78-.09 2.83-.95 5.45-.43 8.48-1.47q4.28-1.46 8.92-2.24a.42.42 0 00.02-.82zm-118.8 14.22l-6.03 18.32a.37.37 0 00.37.48c20.32-.94 45.22-10.68 55.58-29.3a.7.69-86.2 00-.86-.99q-23.33 9.23-48.37 10.95a.8.79-82.7 00-.69.54z"/><path fill="#fff" d="M518.21 206q-.5.22-.85-.01a.74.73-65.5 01-.29-.79c.19-.75-1.98-6.96-2.29-7.72q-4.16-10.07-10.62-22.65c-7.06-13.74-20.1-24.81-35.16-28.65a1.6 1.6 0 00-2 1.49q-.18 4.7-1.65 9.09a.4.4 0 01-.65.18c-3.24-2.81-15.21-10.33-16.15-13.72q-4.1-14.81-15.86-21.92-12.46-7.52-16.73-9.06-23.31-8.38-47.96-11.02-6.12-.65-21.02.99c-3.45.38-5.54 1.24-8.51 2.77q-14.89 7.72-26.84 16.98a.41.41 0 01-.58-.08q-.12-.14-.09-.38 1-1.14 2.26-2.03 17.2-12.13 29.85-17.91c10.56-4.82 26.4-4.62 39.2-4.08 20.27.85 38.57 5.09 56.38 14.89 10.17 5.6 22.52 12.32 31.25 18.97 13.08 9.98 22.48 21.49 30.92 35.51 6.93 11.49 16.75 26.31 17.39 39.15z"/><path fill="#939598" d="M518.21 206q.4 8.22-1.08 16.33-4.64 25.43-12.06 50.19-.19.64-1.39 2.16-.31.39-.78.59-2.32.97-2.93 2.97-4.03 13.28-8.16 26.53c-.68 2.19-2.41 4.48-4.84 5.4-7.37 2.8-16.02 7.05-23.66 8.46a1.12 1.11-31.9 01-.87-.2l-3.8-2.83a.88.86 48.2 00-.95-.06c-16.66 9.42-39.13 9.75-56.98 4.53a.29.29 0 01-.01-.55c9.09-3.28 20.82-8.79 26.53-16.8q.3-.4-.21-.42-15.59-.61-27.25-1.84c-23.7-2.49-49.6-11.9-67.94-27.05q-5.24-4.33-13.61-13.03-.35-.37-.45.13c-.69 3.4-1.7 6.97-.81 10.34 1.72 6.55 6.53 12.46 10.4 17.62q1.25 1.66-.81 1.35-12.75-1.92-25.3-2.8c-3.25-.22-6.23-1.59-8.88-3.81-20.59-17.21-30.58-43.85-34.18-69.66-1.61-11.57-1.37-23.91 4.54-34.49 2.56-4.59 6.38-5.99 10.6-2.36q8.86 7.64 16.65 17.66.32.4.44-.09c.71-2.86-.01-5.93.2-8.36q2.75-31.69 17.29-59.99 1.24-2.4 3.05-4.42-.03.24.09.38a.41.41 0 00.58.08q11.95-9.26 26.84-16.98c2.97-1.53 5.06-2.39 8.51-2.77q14.9-1.64 21.02-.99 24.65 2.64 47.96 11.02 4.27 1.54 16.73 9.06 11.76 7.11 15.86 21.92c.94 3.39 12.91 10.91 16.15 13.72a.4.4 0 00.65-.18q1.47-4.39 1.65-9.09a1.6 1.6 0 012-1.49c15.06 3.84 28.1 14.91 35.16 28.65q6.46 12.58 10.62 22.65c.31.76 2.48 6.97 2.29 7.72a.74.73-65.5 00.29.79q.35.23.85.01zM437 190.96c-7.82 4.06-16.62 4.85-24.83 1.53q-2.56-1.03-5.19-2.01-.47-.17-.23.27c2.31 4.28 7.34 13.16 11.96 14.99 2.66 1.05 5.56 3 8.42 2.91q6.73-.22 13.26-2c3.8-1.03 6.44-3.45 9.64-5.69a.33.32-34.6 00.09-.46l-.16-.25q.15-.6-.11-1.07-7.28-13-9.77-27.76a2.08 2.07 9.2 00-1.08-1.49c-7.96-4.2-22.06-11.19-28.96-.88q-4.45 6.66-7.61 14.9a.83.82 8.6 00.83 1.12c7.23-.49 21.48-6.79 26.6-1.21q3.43 3.74 7.14 7.1zm21.19 116.1q3.64 3.09 5.84-.51 9.15-15.02 20.67-25.6 4.32-3.96 9.59-2.82.49.11.26-.34c-1.67-3.21-4.29-4.04-8.12-5.55-10.81-4.25-23.18 1.29-28.03 11.67q-3.47 7.43-3.89 15.57-.22 4.29 3.68 7.58z"/><path fill="#232220" d="M449.96 200.25c-6.01-1.49-8.63-5.47-12.96-9.29q-3.71-3.36-7.14-7.1c-5.12-5.58-19.37.72-26.6 1.21a.83.82 8.6 01-.83-1.12q3.16-8.24 7.61-14.9c6.9-10.31 21-3.32 28.96.88a2.08 2.07 9.2 011.08 1.49q2.49 14.76 9.77 27.76.26.47.11 1.07z"/><path d="M233 174.21q.8.73.27 1.81-7.2 14.56-12.15 28.67-.49 1.38-.84 3.24c-1.63 8.58-3.83 16.82-4.95 25.51q-.14 1.07-1 .42-.48-.37-.37-1.11c2.66-19.76 8.73-41.07 19.04-58.54z"/><path fill="#fff" d="M437 190.96c4.33 3.82 6.95 7.8 12.96 9.29l.16.25a.33.32-34.6 01-.09.46c-3.2 2.24-5.84 4.66-9.64 5.69q-6.53 1.78-13.26 2c-2.86.09-5.76-1.86-8.42-2.91-4.62-1.83-9.65-10.71-11.96-14.99q-.24-.44.23-.27 2.63.98 5.19 2.01c8.21 3.32 17.01 2.53 24.83-1.53z"/><path fill="#939598" d="M189.28 263.29a.41.41 0 00-.22-.75l-5.48-.13a.54.54 0 01-.06-1.08q5.57-.74 10.72-1.1c5.15-.36 5.52 6.01 6.53 9.75a1.29 1.29 0 01-.81 1.54c-9.64 3.49-19.62 4.68-29.66 6.29a.73.73 0 01-.83-.59l-1.35-7.18a.72.71-15.5 01.46-.8c6.77-2.45 15.09-2.27 20.7-5.95zM227.2 289.34a.66.66 0 001.26-.26l.07-7.14a.7.7 0 011.38-.18l3.46 12.68a1.12 1.1 56.6 01-.19.96l-7.08 9.06a.5.49-39.4 01-.83-.08q-1.29-2.57-1.65-5.45a1.33 1.31-31.2 01.24-.95l2.43-3.25a.98.98 0 00.08-1.03c-3.79-7.22-1.35-14.66-.95-23.01.04-.96-.48-1.74.38-2.81q1.22-1.52 1.47.42.61 4.68 1.21 9.37c.21 1.59-.47 2.33-1.94 2.63a.48.48 0 00-.37.59l.34 1.27q.13.49.03 1-.68 3.18.66 6.18zM276.26 316.79c-16.17-1.16-18.91-21.26-20.43-33.28q-.79-6.26-1.15-12.57-.03-.5.3-.12 9.5 11.41 18.86 22.84c7.34 8.97 14.18 12.23 24.98 14.7a1.15 1.13 81.1 01.73.54q7.88 13.67 18.68 25.11c2.02 2.13 7.67 4.68 11.33 6.14q15.68 6.27 24.66 11.33 4.81 2.71 6.71 9.28c.92 3.23 3.05 14.95-2.68 15.26q-17.67.98-35-2.49c-19.59-3.93-17.1-26.08-19.93-39.05q-2.44-11.18-13.02-16.61c-3.37-1.72-10.13-.8-14.04-1.08z"/><path fill="#232220" d="M458.19 307.06q-3.9-3.29-3.68-7.58.42-8.14 3.89-15.57c4.85-10.38 17.22-15.92 28.03-11.67 3.83 1.51 6.45 2.34 8.12 5.55q.23.45-.26.34-5.27-1.14-9.59 2.82-11.52 10.58-20.67 25.6-2.2 3.6-5.84.51z"/><path fill="#939598" d="M218.48 281.2c-4.87.48-8.87-.42-15.18-.02-11.8.73-23.81 3.02-35.58 4.55q-.51.07-.21-.35 1.35-1.86 3.68-2.21 10.22-1.53 20.41-3.37c4.01-.72 9.35-3.39 13.36-2.85q6.98.94 13.6 3.69a.29.29 0 01-.08.56z"/><path fill="#fdfcde" d="M193.16 308.46a.28.28 0 01-.18-.36c1.01-2.89 6.67-.27 9.44-.64a1.85 1.84 84.7 001.6-1.94q-.35-5.87.89-11.65a.76.76 0 01.8-.6q1.11.1 1.89-.79 1.26-1.42.29-3.05l-2.64-4.45a.36.36 0 01.3-.55l9.16-.21a2.05 2.05 0 012.06 1.66l1.96 10.04a2.37 2.36 64.1 01-.78 2.26q-6.33 5.4-13.09 10.09c-3.57 2.48-7.89 1.54-11.7.19z"/><path fill="#939598" d="M198.49 287.38c6.64-2.1 3.81 7.86 2.03 10.29a.73.73 0 00.01.87q1.76 2.25 1.42 5.21a1.5 1.5 0 01-1.94 1.27l-9.84-3.07a1.1 1.1 0 01-.76-.94l-.56-5.64q-.08-.84.65-.41l2.82 1.68a1.22 1.2 52.4 00.95.13c2.29-.61-.08-3.49-1.09-4.88a.78.77-50.6 01-.07-.79l2.66-5.53a.85.84 10.5 01.69-.47l3.59-.3q.97-.07.33.65l-1.23 1.41q-.77.87.34.52zM186.48 293.31c-2.19.22-3.51-3.87-3.66-5.37a1.27 1.26-27.2 01.31-.95q1.32-1.48 3.34-.79a.47.46 28.2 01.22.72l-1.23 1.67a1.04 1.04 0 00-.19.87q.37 1.57 1.59 2.71a.66.66 0 01-.38 1.14zM184.22 296.36l1.43.49a.65.65 0 01.44.69q-.43 4.31 3.03 6.34a.33.33 0 01.05.54l-6.15 5.19a.41.41 0 01-.65-.17q-2.21-5.92-6.08-10.9a.6.59-38.4 01.1-.83q2.75-2.27 3.36-5.77a.61.61 0 011.12-.23l2.63 4.08a1.4 1.39-6.5 00.72.57zM364.19 344.02c-17.89-1.75-37.56-21.48-45.96-36.84a1.72 1.71 54.5 01.34-2.07c5.09-4.75 10.1-7.38 16.26-10.44a.72.71-36.2 01.81.12c15.2 14.5 34.8 20.72 55.36 25.58a1.26 1.25 79.3 01.77.53c3.97 6.18 6.84 11.56 13.05 16.76a.3.29 54.3 01-.08.5c-14.43 5.54-25.56 7.33-40.55 5.86zM142.14 347.79a.21.21 0 00-.11.39q8.29 4.81 17.66 7.01a1.01 1 33.8 01.36 1.79q-14.56 10.4-32.29 13.27a.37.36-88.3 01-.41-.44q2.36-11.58 8.24-21.71 1.06-1.83 1.16-3.85c.97-19.65 4.47-32.91 22.13-43.57 3.32-2 5.35-2.46 8.79-.13q9.07 6.14 14.36 15.89a.41.41 0 01-.14.54l-.24.16a.52.51-39.1 00-.09.79l6.02 6.05a.3.3 0 01-.12.5q-15.4 4.61-16.57 20.71a.46.46 0 01-.79.29c-1.96-2.03-2.98-4.48-4.87-6.58q-.28-.31-.22.11l1.14 7.9a1.09 1.09 0 01-1.09 1.24l-22.92-.36z"/><path fill="#fdfcde" d="M226.2 314.55c4.32 12.82 12.44 24.79 20.8 35.74l3.07 4.41a.43.42 63.4 01-.21.64c-11.01 3.99-22.2.46-32.35-2.27-5.6-1.5-16.26-14.16-18.88-17.48q-1.91-2.41-1.01-6.26a.63.63 0 01.68-.48l11.67 1.24a1.02 1.01 23.8 00.88-.34q7.14-8.11 15.35-15.2z"/><path d="M226.2 314.55q2.84 1.55 3.56 4.22.8 2.92 4.16 8.38 6.83 11.06 14.03 22a.71.7 56.2 01-.19.97q-.3.2-.76.17c-8.36-10.95-16.48-22.92-20.8-35.74z"/><path fill="#939598" d="M259.47 340.37q.43 7.94 2.53 15.38.3 1.05-1.24 3.53l-11.65 5.93a.21.21 0 01-.3-.2l.26-6.06a.79.79 0 01.34-.61l3.36-2.36a1.01 1.01 0 00.42-.96c-1.22-9.54-2.76-16.22.6-25.51a1.07 1.06-72 011.29-.66c2.08.6-1.61 12.01.3 13.02a.44.44 0 00.64-.33l1.05-8.21a.5.5 0 01.99.04q.16 3.75 1.41 7zM200.73 355.44l14.47 3.23q.86.2.06.58-6.71 3.17-14.11 3.99a1.62 1.59-33.4 01-.92-.18c-8.12-4.26-16.39-12.28-22.91-18.73a1.08 1.06 25.7 01-.31-.86c.85-8.42 6.99-13.94 15.42-13.21a1.13 1.11 88.7 011 .97c1.11 8.35 11.35 17.24 17.27 22.41a.83.83 0 01-.65 1.45q-4.62-.62-9.29-.16-1.6.16-.03.51zM94.25 554.46q3.52-4.6 5.42-10.47 40.9-19.79 85.35-35.42 3.5-1.23 6.73-1.11c.77 7.49 14.18 2.2 17.48-.02 5.5-3.71 10.59-3.66 17.01-4.46q8.01-1.01 14.7-7.88a1.14 1.13-24.7 00.32-.86q-.2-3.21-3.06-5.04 29.49-12.74 59.05-25.31 10.95-4.65 18.23-8.2c25.62-12.47 46.49-27.24 69.32-41.64q4.04-2.55 8.56-4.07.57-.19.04-.47-.31-.17-.65-.05c41.3-5.66 78.17-26.67 104.71-59.21q0 .36.16.53a.51.51 0 00.76-.02c1.9-2.26 3.38-4.89 5.9-6.49 4.54-2.87 28.95-16.65 31.82-10.95a.63.62-32.9 01-.17.77q-18 14.38-35.78 28.98c-14.39 11.81-29.66 22.09-44.27 33.5q-15.96 12.46-31.9 25.95a.31.31 0 00.32.53c8-3.44 14.93-5.12 23.24-1.39 6.91 3.11 3.27 9.82-1.92 12.43q-11.17 5.61-23.61 7.44-8.68 1.27-12.09-6.33a.37.37 0 00-.58-.13q-29.47 26.36-57.78 54-2.24 2.19-6.35 2.98c-59.13 11.36-117.34 24.68-175.27 41.13q-35.43 10.06-70.74 20.53-1.73.51-4.95.75zM371.39 359.37q-1.95-1.61-3.32-3.61a.31.3-20.4 01.22-.47q45.67-5.19 90.17-16.75.5-.13.28.34-7.59 16.31-15.28 27.79c-6.84 10.24-29.24 10.09-39.96 8.77-11.42-1.4-23.35-8.89-32.11-16.07z"/><path d="M260.76 359.28q1.54-2.48 1.24-3.53-2.1-7.44-2.53-15.38 2.5 5.99 3.32 12.4.02.14.57 2.92.69 3.49-2.6 3.59z"/><path fill="#939598" d="M226.79 359.72c5.21 1.71 8.77.91 13.2 1.92a.42.42 0 01-.02.82q-4.64.78-8.92 2.24c-3.03 1.04-5.65.52-8.48 1.47-3.23 1.09-15.79 3.94-18.78.09q-.33-.42.2-.44c3.07-.13 5.86.02 8.76-1.22 2.95-1.26 11.23-5.8 14.04-4.88z"/><path fill="#fdfcde" d="M392.75 409.46q.34-.12.65.05.53.28-.04.47-4.52 1.52-8.56 4.07c-22.83 14.4-43.7 29.17-69.32 41.64q-7.28 3.55-18.23 8.2-29.56 12.57-59.05 25.31c-9.61.28-17.3 2.51-26.06-2.57a1.3 1.29-83.8 01-.57-.72l-.27-.84a.58.58 0 01.39-.74l1.65-.49a.94.93 87.5 00.65-.72c2.18-11.16 3.69-22.51 6.1-33.54q1.35-6.19 2.66-12.32c1.12-3.74 4.41-17.91 1.23-20.4-11.45-9.68-29.34-16.5-43.25-20.07q-1.09-.28-3.64-.39a.7.68 82.9 01-.63-.5q-1.52-5.53-.94-7.35 4.36-13.55 7.32-27.64a.49.48-62.7 01.8-.26c9.19 8.44 20.07 12.91 33.01 15.63 6.9 1.45 15.91 2.02 23.85 3.46q.96.18 4.03-.38a.9.89 3.2 00.69-.61l2.28-7.15a.97.96-88.7 01.65-.63q5.07-1.43 8.88-5.1a1.38 1.37 22.8 01.96-.39l2.15.02a1.25 1.24-22.2 01.84.35c23.47 22.51 53.65 38.17 85.89 42.79 15.49 2.22 29.11 1.57 45.88.82z"/><path fill="#939598" d="M121.19 375.86a.8.79-82.7 01.69-.54q25.04-1.72 48.37-10.95a.7.69-86.2 01.86.99c-10.36 18.62-35.26 28.36-55.58 29.3a.37.37 0 01-.37-.48l6.03-18.32zM466.99 412.42a1.19 1.19 0 01.9.81c1.89 6.15-3.25 9.45-8.73 10.07a1.17 1.16 62.6 01-.88-.28c-1.91-1.65-3.53-6.81-1.06-8.49q4.55-3.09 9.77-2.11z"/><path d="M223.98 416.86c3.18 2.49-.11 16.66-1.23 20.4q-.57-4.58.47-9.04.75-3.26.73-5.54-.03-2.85.03-5.82z"/><path fill="#fdfcde" d="M191.75 507.46q-3.23-.12-6.73 1.11-44.45 15.63-85.35 35.42.49-5.85 5.3-9.46c1.93-1.46 3.23-4.7 4.15-7.63q1.02-3.26 3.24-7.85 16.53-34.06 28.04-55.64 2.4-4.49 3.85-9.24 4.2-13.74 8.38-26.95a1.1 1.1 0 011.36-.73c8.47 2.47 17.06 4.86 25.49 5.97 8.61 1.14 16.13-.18 23.49.93q.48.08.03.26c-6.21 2.59-2.33 8-4.87 12.37-3.43 5.9-3.01 16.72-2.09 23.41a1.22 1.22 0 01-.22.89c-4.01 5.59-4.13 10.79-5.77 16.73-.39 1.43-.35 2.7-.26 4.12a.44.44 0 00.68.34l2.07-1.35a.79.78-23 011.2.48q.28 1.28-.3 2.65-2.87 6.77-1.69 14.17z"/><path d="M108.54 470.25c2.46 1.32.08 5.98-1.03 7.77-3.67 5.92-6.09 12.44-8.66 18.88-1.45 3.63-1.66 7.72-2.58 11.86-1 4.51-4.48 4.42-6.56 7.9-1.6 2.68-2.98 4.79-3.69 8.02-1.33 6.04-4.39 11.7-5.85 17.31a1.83 1.76 76.4 01-.48.82l-1.19 1.15q.04-1.83.79-4.16 5.48-17.09 7.24-21.49 1.67-4.21 6.57-6.85a1.57 1.53-3 00.66-.71q.53-1.2 1.09-3.92 3.29-15.82 12.11-32.36c.7-1.32 1.09-2.81 1.58-4.22z"/><path fill="#939598" d="M516.53 474.77q.23-.07.48-.05a.39.38 16.3 01.31.56c-.43.79-1.88 1.19-2.27.18a.35.35 0 01.34-.47l.36.02q.01 0 .78-.24zM468.9 485.89a.28.28 0 01.1-.47l.88-.27q1.1-.35.47.61-.61.92-1.45.13zM81 554.96l4.04 2.29q-11.61 4.63-24.12 7.53a.77.76-22.7 01-.83-.33c-.26-.4.08-.92.48-1.11q8.84-4.05 17.45-8.57a1.47 1.43 34.9 01.92-.15l2.06.34zM8.19 591H3.44q2.37-.63 4.75 0z"/></svg>