<svg xmlns="http://www.w3.org/2000/svg" viewBox="0 0 591 591"><g stroke-width="2" fill="none"><path stroke="#111110" vector-effect="non-scaling-stroke" d="M590.06 0l.19.29"/><path stroke="#7f7e6f" vector-effect="non-scaling-stroke" d="M590.25.29l.04 589.46"/><path stroke="gray" vector-effect="non-scaling-stroke" d="M590.29 589.75l-.54.54"/><path stroke="#7f7e6f" vector-effect="non-scaling-stroke" d="M589.75 590.29q-291.28-.02-582.56-.12-3.48 0-6.94-.13"/><path stroke="#111110" vector-effect="non-scaling-stroke" d="M.25 590.04l-.25-.1"/><path stroke="gray" vector-effect="non-scaling-stroke" d="M4.29 495.75l.02 89.93a.51.51 0 00.51.51l4.68.02"/><path stroke="#7f7e6f" vector-effect="non-scaling-stroke" d="M9.5 586.21h576.26a.5.49-90 00.49-.5V4.75a.5.5 0 00-.5-.5H4.79a.5.49 0 00-.5.49v491.01"/><path stroke="#fefeef" vector-effect="non-scaling-stroke" d="M9.5 586.21q-.66-12.54-.72-25.1c-.02-4.6-1.09-10.39-.64-15.42q.87-9.5.53-18.1c-.46-11.62-.57-19.27-1.23-28.88a1.15 1.13 17.8 00-.44-.83l-2.71-2.13"/><path stroke="#908f7f" vector-effect="non-scaling-stroke" d="M591 587.31c-.84-.45-.25-537.06-.25-586.81a.25.24-86.1 00-.21-.25q-.17-.02-.29.04"/><path stroke="#fefeef" vector-effect="non-scaling-stroke" d="M591 590.06l-.71-.31"/><path stroke="#fbefc3" vector-effect="non-scaling-stroke" d="M99.33 41.45q-21.2-.62-41.94.48c-8.67.46-18.92 4.55-19.39 14.39q-1.15 24.11.66 47.86a.79.79 0 001.25.58q2.35-1.72 4.34-3.76 27.35-28.03 54.5-56.26 1.03-1.07 1.38-2.15a.87.87 0 00-.8-1.14"/><path stroke="#908f7f" vector-effect="non-scaling-stroke" d="M184.36 138.62q-10.13-5.4-20.9-2.31c-13.13 3.78-17.61 18.79-16.96 31.06.15 2.68-.78 4.11-2.52 5.86q-7.5 7.55-14.42 15.63a.87.86 55.2 00-.15.85c2.77 7.67 4.57 16.56 6.24 23.19 14.59 57.98 25.91 108.54 38.14 162.35 2.6 11.48 5.22 26.21 8.38 39.19q1.91 7.83 3.25 14.71c7.72 39.64 17.72 79.07 19.79 119.84a.41.4 81.9 00.5.38c8.06-1.88 16.83-5.18 23.69-6.93q29.19-7.48 67.6-14.45 70.12-12.74 131.65-18.35c2.43-.22 5-.09 7.42-.16a2.46 2.45 19.1 001.82-.88q13.32-16 27.51-31.23a1.21 1.2-25.1 00.33-.9c-.24-5.13-3.49-13.33-5.57-19.95a.49.49 0 01.33-.62q1.26-.38 3.08-.52 18.92-1.45 36.16-.92a.52.52 0 00.54-.49q.1-1.52-.42-3.55c-4.83-18.94-9.86-36.4-16.57-54.3q-21.55-57.51-42.58-101.88c-22.94-48.43-42.1-87.9-66.51-133.17-1.77-3.29-4.33-7.13-6.27-10.86a1.45 1.42-54.7 01-.15-.94c1.79-10.21 2.44-17.69-2.51-26.86-4.43-8.2-10.78-12.13-20.02-12.64q-9.03-.49-14.65 5.63a.49.49 0 01-.69.03q-.79-.72-1.82-1.05c-8.31-2.65-16.34-4.29-23.9 2.11a.9.9 0 01-.92.16q-17.24-6.8-28.85 6.73a.52.52 0 01-.75.04c-8.68-8-22.08-5.61-30.94 1.09a.97.95 37.4 01-.96.12q-14.52-6.1-24.79 5.08a.72.71 30.9 01-.77.19q-19.03-6.98-31.21 8.58a.5.49-57 01-.63.14"/><path stroke="#919090" vector-effect="non-scaling-stroke" d="M352.75 124.21q4.69 5.48 5.04 12.79"/><path stroke="#5c5c5c" vector-effect="non-scaling-stroke" d="M357.79 137c.12 7.06-1.5 11.22-4.68 18.66-1.73 4.06 4.85 3.5 6.43.89q3.24-5.35 4.17-13.55"/><path stroke="#919090" vector-effect="non-scaling-stroke" d="M363.71 143c2.14-10.44-1.63-22.69-12.76-26.09"/><path stroke="#5c5c5c" vector-effect="non-scaling-stroke" d="M350.95 116.91q-8.82-3.8-16.19 1.77a1.08 1.08 0 00-.25 1.46l3.36 5.08a.64.64 0 001 .09c4.31-4.42 8.81-2.85 13.88-1.1"/><path stroke="#cacbcc" vector-effect="non-scaling-stroke" d="M350.95 116.91q3.16 1.77 3.8 5.26.18.98-.48.23l-.86-.95q-.57-.64-.81.19-.37 1.28.15 2.57M363.71 143l-1.22 2.4a.56.55-63.4 01-.74.25q-.84-.42-.77-1.66.42-6.71-1.08-13.85a.61.61 0 00-1.21.15l.32 6.09a.61.6-9.4 01-.45.62q-.4.11-.77 0"/><path stroke="#919090" vector-effect="non-scaling-stroke" d="M328.46 130.5c1.19 3.74 2.68 6.75 2.39 10.79q-.36 5.02-1.39 9.96"/><path stroke="#5c5c5c" vector-effect="non-scaling-stroke" d="M329.46 151.25l-3.71 8.14a.98.96 41.2 00.07.93l1.17 1.79a2.29 2.29 0 003.78.08q6.32-8.88 6.69-19.69"/><path stroke="#919090" vector-effect="non-scaling-stroke" d="M337.46 142.5c1.59-7.62-2.71-14.22-7.15-19.97"/><path stroke="#5c5c5c" vector-effect="non-scaling-stroke" d="M330.31 122.53q-9.63-7.1-21.15-3.04a1.12 1.11-27.7 00-.54 1.71l2.96 4.09a.64.62 56.7 00.83.18c5.93-3.49 13-.94 16.05 5.03"/><path stroke="#cacbcc" vector-effect="non-scaling-stroke" d="M330.31 122.53q-1 2.92.46 5.74c.4.76.3 1.43-.05 2.14q-.39.78-.73-.03l-.3-.72a.57.57 0 00-.79-.29q-.62.33-.44 1.13M337.46 142.5q-.5 2.03-2.3 1.84a.59.59 0 01-.51-.68q.77-4.62-.57-9.1a.39.38 50.2 00-.71-.07q-1.11 2.16-1.23 4.58c-.07 1.6-.63 13.26-1.98 13.36a.61.61 0 01-.65-.56l-.05-.62"/><path stroke="#919090" vector-effect="non-scaling-stroke" d="M301.61 131.68l3.6 7.82"/><path stroke="#5c5c5c" vector-effect="non-scaling-stroke" d="M305.21 139.5q.97 12.18-5.8 21.97a1.28 1.26-34.2 00-.2 1q.54 2.46 3.06 2.99a1.01 1-64.8 001-.37q6.33-8.06 7.44-18.09"/><path stroke="#919090" vector-effect="non-scaling-stroke" d="M310.71 147q.32-8.26-.15-10.81-.99-5.43-6.12-12.31"/><path stroke="#5c5c5c" vector-effect="non-scaling-stroke" d="M304.44 123.88q-8.57-5.68-18.21-2.86c-3.38.99-6.09 4.89-8.56 7.37a.54.53-40.4 00-.06.68l3.55 5.05a.34.33 43.8 00.56-.01q7.97-12.51 19.89-2.43"/><path stroke="#cacbcc" vector-effect="non-scaling-stroke" d="M304.44 123.88q-.84 2.43.53 4.19.25.33.04.59a.37.37 0 01-.57 0l-1.38-1.63q-.67-.78-.81.24l-.64 4.41M310.71 147l-.42.01a.52.52 0 01-.52-.5q-.05-2.23-.02-4.49c.05-2.68-1.2-4.35-2.43-6.51a.58.58 0 00-1.07.14l-1.04 3.85"/><path stroke="#5c5c5c" vector-effect="non-scaling-stroke" d="M253.75 125.29l-4.41 1.43a.38.38 0 00-.15.63l5.46 5.37a.97.96-30.4 00.95.24q6.39-1.89 12.21 1.37"/><path stroke="#919090" vector-effect="non-scaling-stroke" d="M267.81 134.33l4.73 8.92"/><path stroke="#5c5c5c" vector-effect="non-scaling-stroke" d="M272.54 143.25q.29 4.77.57 9.55c.23 3.94-1.02 6.89-2.32 10.44-.92 2.48-1.15 4.71 1.6 5.78a1.26 1.25-46.6 00.95-.03q1.04-.48 1.81-1.77 6.08-10.26 5.15-21.42"/><path stroke="#919090" vector-effect="non-scaling-stroke" d="M280.3 145.8c-2.43-12.43-12.09-25.68-26.55-20.51"/><path stroke="#cacbcc" vector-effect="non-scaling-stroke" d="M280.3 145.8q-3.67-2.29-5.49-6.06a.43.43 0 00-.73-.07l-.28.37a1.15 1.14-29 00-.22.76l.21 2.38a.54.54 0 01-.54.59q-.5 0-.71-.52M267.81 134.33l1.02-.32a.97.94 49.4 01.76.07l.8.43a.85.85 0 001.17-1.11l-2.36-5.11a3 2.98 88.3 00-1.6-1.52q-6-2.37-12.21-.56a1.1 1.09 52.4 01-.89-.12q-.48-.3-.75-.8"/><path stroke="#919090" vector-effect="non-scaling-stroke" d="M243.96 139q6.22 8.3 3.5 18.5"/><path stroke="#5c5c5c" vector-effect="non-scaling-stroke" d="M247.46 157.5c-1.23 5.82-4.57 9.73-6.6 15.14a1.88 1.88 0 001.33 2.49c6.25 1.49 11.43-14.45 12.06-18.59"/><path stroke="#919090" vector-effect="non-scaling-stroke" d="M254.25 156.54q3.34-14.64-8.36-23.6"/><path stroke="#5c5c5c" vector-effect="non-scaling-stroke" d="M245.89 132.94c-2.47-1.88-5.03-4.34-8.31-4.54-4.43-.27-9.84-1.08-13.02 2.86a.77.77 0 00.03 1l2.22 2.46a1.2 1.19 65.7 001.05.4q5.25-.63 10.52.07.46.06.83.33l4.75 3.48"/><path stroke="#cacbcc" vector-effect="non-scaling-stroke" d="M245.89 132.94q.28 2.37 1.81 4.21c.39.48.46 1.23.18 1.71a.45.44 34.5 01-.68.12l-1.16-.97a1.03 1.02-33.6 00-.97-.19q-.87.28-1.11 1.18M254.25 156.54q-.81-2.92-.64-6c.14-2.49.06-3.97-1.24-5.78a.87.87 0 00-1.5.17l-1.78 4.15a1.72 1.65 53 00-.11.9q.54 3.45.09 6.92a.99.98-9 01-.56.76q-.68.32-1.05-.16"/><path stroke="#908f7f" vector-effect="non-scaling-stroke" d="M352.51 136.81c.33-5.1-3.07-10.12-8.6-8.37-3.1.99-1.11 8.01-.8 9.66a.58.57-9.4 00.65.46l8.23-1.18a.61.61 0 00.52-.57"/><path stroke="#919090" vector-effect="non-scaling-stroke" d="M322.04 134.94c.02-1.06.58-2.18.42-3.37a1.07 1.06 10.8 00-.54-.79q-3.1-1.7-6.43-.67a.54.53 76.3 00-.36.6q.98 5.45.82 10.99a.66.66 0 00.76.67l4.61-.69a.78.78 0 00.66-.77q-.01-3 .06-5.97"/><path stroke="#5c5c5c" vector-effect="non-scaling-stroke" d="M197.21 135q-2.81 1.51-5.08 3.92a.62.62 0 00.01.85l2.98 2.97a.86.85 55.1 00.98.18c8.08-3.75 14.31-5.55 21.11 1.58"/><path stroke="#919090" vector-effect="non-scaling-stroke" d="M217.21 144.5q3.02 3.86 3.08 8.75"/><path stroke="#5c5c5c" vector-effect="non-scaling-stroke" d="M220.29 153.25v4.5"/><path stroke="#908f7f" vector-effect="non-scaling-stroke" d="M220.29 157.75l-.79 4.65"/><path stroke="#5c5c5c" vector-effect="non-scaling-stroke" d="M219.5 162.4q-2.29 7.01-7.75 14.6-1.27 1.77-.07 3.55a.8.8 0 00.8.34c9.18-1.55 13.58-14.7 13.98-22.64"/><path stroke="#919090" vector-effect="non-scaling-stroke" d="M226.46 158.25q1.46-8.31-1.89-15.74c-1.94-4.27-9.18-8.93-13.52-9.74q-7.19-1.35-13.84 2.23"/><path stroke="#cacbcc" vector-effect="non-scaling-stroke" d="M226.46 158.25q-.03.74-.54.96-.69.31-.55-.43.74-3.79-.28-7.45a.74.74 0 00-1.27-.28q-.86 1-.27 2.1a.36.36 0 01-.23.52q-1.62.39-3.03-.42M217.21 144.5q-.01-1.25.85-2.31a.41.41 0 01.67.05l1.26 2.2a.62.62 0 00.86.23c1.3-.79-1.03-4.79-1.55-5.73-3.75-6.72-14.63-5.49-20.2-2.16a.9.88-45.7 01-.88.02q-1.03-.57-1.01-1.8"/><path stroke="#c9cabb" vector-effect="non-scaling-stroke" d="M219.5 162.4q2.53-.87 2.5-3.34-.02-1.92-1.71-1.31"/><path stroke="#908f7f" vector-effect="non-scaling-stroke" d="M292.96 133.01c-6.78-.95-8.4 8.76-7.83 13.37a.63.63 0 00.68.55l4.84-.44a.73.73 0 00.66-.64l1.2-10.86q.06-.5.31-.93l.35-.61a.3.29-70.9 00-.21-.44"/><path stroke="#919090" vector-effect="non-scaling-stroke" d="M267.58 149.03c.28-5.43-3.21-13.13-9.86-10.92a.5.5 0 00-.31.64c1.52 4.25 3.26 5.65 3.09 11.46a.57.56-3.4 00.65.57l5.65-.88a.93.93 0 00.78-.87M183.03 149.84l3.9 7.71a1.75 1.7-87.8 00.64.71l.43.28"/><path stroke="#5c5c5c" vector-effect="non-scaling-stroke" d="M188 158.54q1.37 7.72.04 15.46"/><path stroke="#908f7f" vector-effect="non-scaling-stroke" d="M188.04 174c-1 2.67-5.03 9.59-2.23 11.74a.67.67 0 00.81.01c1.4-1.02 2.87-1.54 3.81-3.05q2.82-4.56 4.28-9.7"/><path stroke="#5c5c5c" vector-effect="non-scaling-stroke" d="M194.71 173q1.5-6.43.58-13"/><path stroke="#919090" vector-effect="non-scaling-stroke" d="M195.29 160q-1.74-9.7-9.54-15.54"/><path stroke="#5c5c5c" vector-effect="non-scaling-stroke" d="M185.75 144.46c-9.16-6.28-25.22-5.54-30.56 6.03q-3.08 6.68-3.82 14.62a1.47 1.46 82.3 001.98 1.51l2.37-.9a.99.98-9 00.62-.85c.19-2.92.24-6.31 1.47-8.89 4.58-9.61 16.51-9.59 25.22-6.14"/><path stroke="#cacbcc" vector-effect="non-scaling-stroke" d="M185.75 144.46c-1.44 1.39.28 2.79.82 4.04a.36.36 0 01-.31.5q-1.82.09-3.23.84M195.29 160q.08.51-.26.74a.93.93 0 01-1.43-.55c-.29-1.26-3.09-8.65-4.76-8.16a.44.44 0 00-.27.63l2.49 4.75a.74.74 0 01-.82 1.06q-.97-.23-2.24.07"/><path stroke="#c9cabb" vector-effect="non-scaling-stroke" d="M194.71 173h-.46a.7.69 9.3 00-.66.47c-.77 2.21-3.88 12.88-7.77 9.66a.57.57 0 01-.11-.76c1.53-2.22 1.86-5.31 3.55-7.07a.59.59 0 00.03-.78q-.44-.53-1.25-.52"/><path stroke="#919090" vector-effect="non-scaling-stroke" d="M232.76 155.01c1.94.63 1.23-4.54 1.24-5.5.01-2.64.93-5.24.98-8.04a.46.45-5 00-.55-.46l-3.38.7a.75.74-16 00-.55.98q2.04 5.56 1.71 11.51a.8.8 0 00.55.81M365.38 157.75c-2.41 2.14-4.74 6.47-8.68 6.82-5.43.48-9.88-3.77-9.41-9.3.28-3.33 2.99-6.66 4.53-9.92q1.01-2.13-1.33-1.84l-7.3.88a.71.7-.1 00-.61.6c-1.04 7.41-3.14 21.13-12.17 23.45-4.87 1.25-9.81-2.87-10.09-7.82-.19-3.26 3.65-9.14 4.74-12.69a.78.78 0 00-.86-1l-7.86 1.22a.66.65-7.8 00-.55.72c.28 2.7-1.03 5.16-1.49 7.01-1.59 6.34-5.93 16.3-14.09 14.64q-3.11-.63-4.95-2.94c-4.24-5.32.09-10.61 2.26-15.62a.59.59 0 00-.63-.82l-10.59 1.48a.87.85-88.5 00-.73.71q-1.41 8.02-4.32 15.57c-3.89 10.08-16.99 7.02-15.97-4.18q.18-2.07 2.29-8.76a.35.35 0 00-.39-.46l-6.55.94a.71.7-.1 00-.59.58q-2.25 12.97-10.77 21.5c-3.78 3.78-10.85 3.25-12.88-1.96-1.84-4.73 3.02-12.28 5.4-16.47a.59.58 9.6 00-.62-.86l-8.99 1.7a.5.5 0 00-.41.47c-.17 4.85-3.65 12.35-5.32 15.07-2.2 3.6-9.59 10.23-14.48 9.81-3.61-.31-7.6-4.21-6.85-8.15.94-4.91 9.15-8.66 7.75-14.31a.46.44 79.1 00-.49-.34l-10.26 1.44a.51.5 86.7 00-.43.49q-.22 11.91-7.25 21.11-2.92 3.83-5.97 4.67c-6.43 1.78-12.89-5.5-9.63-11.62 2.28-4.3 4.61-7.89 3.72-11.42a.53.52-11.2 00-.6-.39l-27.49 4.38a.48.47-13 00-.38.6q1.55 5.39 3.32 10.71c2.35 7.03 6.16 14.91 8.92 22.7a1.42 1.42 0 001.69.9q2.43-.62 5.72-1.11 94.8-13.9 189.53-28.32 6.32-.97 12.36-1.68a.47.46 72.1 00.35-.69l-9.96-17.39a.42.42 0 00-.64-.11"/><path stroke="#908f7f" vector-effect="non-scaling-stroke" d="M198.51 148.57a1.23 1.22-33.8 00-.31 1.56q2.35 4.12 2.27 8.88a.45.45 0 00.53.45l4.4-.84a.74.73-88.7 00.57-.55l2.76-11.42a.45.45 0 00-.36-.55q-5.54-.9-9.86 2.47M178.71 154.3c-9.65-1.58-15.97-1.28-16.69 10.34a.59.59 0 00.68.62l14.58-2.37a.84.83 89.6 00.68-.7l1.01-7.53a.31.31 0 00-.26-.36"/><path stroke="#919090" vector-effect="non-scaling-stroke" d="M210.84 537.53q-.39 2.5.32 4.93a.43.42-21 00.6.26l3.49-1.76"/><path stroke="#5c5c5c" vector-effect="non-scaling-stroke" d="M215.25 540.96c17-5.52 31.24-8.56 52.74-13.25q23.86-5.21 77.14-13.63c10.19-1.62 23.11-3.09 35.55-4.94q19.24-2.86 46.37-4.78c1.73-.12 4.72-.02 7.1-.53a1.59 1.58 14.5 00.84-.49l21.66-24.76q.66-.75-.34-.74-27.73.34-55.84 3.68c-53.97 6.41-107.74 16.69-160.65 29.09q-1.82.43-3.57 1.1"/><path stroke="#919090" vector-effect="non-scaling-stroke" d="M236.25 511.71q-1.16.37-1.25-.46-.51-4.92-1.54-9.75"/><path stroke="#5c5c5c" vector-effect="non-scaling-stroke" d="M233.46 501.5q-.22-6.93-1.43-13.76c-3.01-17-5.66-34.18-9.52-50.99q-5.87-25.53-11.89-51.03c-2.25-9.57-5.49-20.95-8.39-32.46q-4.77-18.96-19.69-70.26"/><path stroke="#111110" vector-effect="non-scaling-stroke" d="M182.54 283c3.09.51-1.39-10.67-2.25-12.62q-1.21-2.77-1.59-5.62c-.57-4.17-1.82-6.4-2.52-9.7-.95-4.53-2.35-9.61-4.41-13.7a.52.51 63.7 00-.69-.24q-.5.24-.83.67"/><path stroke="#5c5c5c" vector-effect="non-scaling-stroke" d="M170.25 241.79c-6.75-20.55-13.23-42.56-20.61-63.67q-.17-.47-.15-.97l.02-1.13q.02-.85-.55-.22l-11.55 12.58a1.58 1.55 16.1 01-.89.48q-1.79.3-1.3 1.9c7.83 25.2 12.77 51.04 19.44 76.53 1.97 7.53 3.16 15.25 5.17 22.72 3.81 14.18 6.79 29.56 10.56 44.31.73 2.85 1.13 6.68 1.95 9.88q3.6 14.14 6.27 28.47c2.14 11.46 5.77 23.13 7.6 35.09.9 5.92 3.24 13.39 4.48 20.03 4 21.4 9.25 42.92 13.02 66.32 2.11 13.11 5.42 28.79 7.13 43.42"/><path stroke="#4b4c4c" vector-effect="non-scaling-stroke" d="M170.25 241.79L182.54 283"/><path stroke="#cacbcc" vector-effect="non-scaling-stroke" d="M233.46 501.5q-.31-.71-.26-1.48a.25.24-87.8 00-.24-.27l-.28-.01a.25.25 0 00-.25.33c1.98 6.38-3.06 13.03-7.43 16.47"/><path stroke="#5c5c5c" vector-effect="non-scaling-stroke" d="M225 516.54q-.86-3.92-3-17.04-2.37-14.54-9.48-44.27c-2.68-11.24-6.62-21.5-10.79-32.06a.25.13 74.5 00-.15-.16l-.25-.02a.03.02-7 00-.03.03c1.66 7.45 2.86 14.48 5.12 22.11 4.55 15.31 5.76 31.72 7.94 45.76 1.82 11.77 4.06 23.47 4.85 35.36"/><path stroke="#cacbcc" vector-effect="non-scaling-stroke" d="M219.21 526.25h-.26a.48.47 17.8 00-.38.19l-7.73 11.09"/><path stroke="#919090" vector-effect="non-scaling-stroke" d="M225 516.54l.1 5.24a.58.58 0 00.55.57q1.97.11 3.85-.64"/><path stroke="#5c5c5c" vector-effect="non-scaling-stroke" d="M229.5 521.71q19.23-4.69 38.75-7.95c1.71-.28 16.84-2.12 17.19-1.67a.63.63 0 01-.34 1c-11.67 2.83-23.24 6.39-34.56 9.21q-11.36 2.83-22.59 6.16-3.29.97-6.2 2.75"/><path stroke="#919090" vector-effect="non-scaling-stroke" d="M221.75 531.21q-1.11.62-2.3.63a.49.49 0 01-.49-.51l.25-5.08"/><path stroke="#cacbcc" vector-effect="non-scaling-stroke" d="M215.25 540.96q.69-2.42 2.19-3.77 3.08-2.78 4.31-5.98M229.5 521.71l7.28-9.28a.44.43 33.8 00-.13-.64q-.16-.09-.4-.08"/><path stroke="#5c5c5c" vector-effect="non-scaling-stroke" d="M230.54 360.75l.96 2.54"/><path stroke="#919090" vector-effect="non-scaling-stroke" d="M231.5 363.29q13.63 33.61 29.29 75.91 8.49 22.95 13.28 45.18a.48.48 0 00.59.36c8.63-2.36 17.19-4.74 25.84-6.99 41.95-10.96 84.87-18.13 127.75-24.29"/><path stroke="#5c5c5c" vector-effect="non-scaling-stroke" d="M428.25 453.46l6.55-.78"/><path stroke="#919090" vector-effect="non-scaling-stroke" d="M434.8 452.68q28.95-3.81 58.2-4.17a.79.78 82.7 00.75-.98c-6.95-28.11-17.26-55.57-28.25-82.32"/><path stroke="#5c5c5c" vector-effect="non-scaling-stroke" d="M465.5 365.21l-1.19-3.57"/><path stroke="#919090" vector-effect="non-scaling-stroke" d="M464.31 361.64c-26.14-61.93-54.78-122.31-86.21-182.01a1.38 1.37-17.8 00-1.42-.72c-69.23 10.17-138.72 21.2-208.18 31.15a.33.33 0 00-.26.45q3.16 7.93 6.46 15.8c2.29 5.46 5.12 13.86 8.43 20.52 1.65 3.33 2.68 7.17 3.88 9.91q9.82 22.32 18.77 45c.95 2.39 2.5 5.06 3.46 7.47q10.34 25.9 21.3 51.54"/><path stroke="#cacbcc" vector-effect="non-scaling-stroke" d="M464.31 361.64q-13.81-1.9-23.74.18c-4.58.96-15.51 4-19.99 8.27a.77.77 0 00-.2.81c.29.86 1.09 4.26-.3 4.56a.48.48 0 01-.58-.44l-.04-.52"/><path stroke="#919090" vector-effect="non-scaling-stroke" d="M419.46 374.5c1.58-8.11-9.8-8.57-9.96-.99"/><path stroke="#cacbcc" vector-effect="non-scaling-stroke" d="M409.5 373.51c-12.57 2.96-23.48 1.65-35.46 1.86-8.86.15-18.73 8.24-26.37 13.64a.61.6-40.9 01-.77-.05q-6.24-5.91-14.65-7.97-10.81-2.64-21.32-6.3c-8.35-2.91-15.84-3.91-24.24-4.89q-21.65-2.52-42.35-9.16-6.48-2.07-13.8.11"/><path stroke="#5c5c5c" vector-effect="non-scaling-stroke" d="M409.5 373.51q.01 3.78 4.88 5.28"/><path stroke="#cacbcc" vector-effect="non-scaling-stroke" d="M414.38 378.79q-13.79 2.54-18.88 2.49-9.97-.1-19.93-.13c-7.8-.02-16.86 6.98-22.83 11.72a.61.6 51.3 00-.09.86c5.43 6.84 13.48 11.62 24.03 18.82a1.87 1.85 6.2 01.66.81q.95 2.3 3.2 3.2a1.59 1.52 46.1 001 .04c1.85-.57 3.14-.96 5.14-.57 7.46 1.45 17.54 2.02 23.22 7.07q11.33 10.06 20.56 24.3c1.15 1.77 3.01 3.19 4.34 5.28"/><path stroke="#cacbcc" vector-effect="non-scaling-stroke" d="M428.25 453.46v-.36a.74.71 18.8 00-.3-.58q-2.72-1.99-3.67-3.56c-4.61-7.63-16.35-23.11-25.6-24.67q-10.41-1.75-18.95-4.24c-3.22-.93-4.46-2.71-5.13-5.79a.7.7 0 00-.6-.54c-2.84-.35-5.5-.23-8.02-1.77-8.63-5.32-14.71-11.33-21.75-17.52-4-3.51-9.25-7.23-13.73-8.2q-13.64-2.97-26.75-7.7c-1.91-.69-5.12-1.26-7.04-1.47-13.53-1.46-27.39-3.26-40.53-6.87-6.87-1.9-13.93-4.74-21.32-4.44a1.24 1.24 0 01-.86-.3l-2.5-2.16M465.5 365.21l-1.4 1.03a1.49 1.44 26.4 01-.91.29q-12.1-.41-19.87.83c-7.68 1.22-11.62 3.62-17.76 5.98-2.32.9-4.04 2.85-6.81 3.37"/><path stroke="#5c5c5c" vector-effect="non-scaling-stroke" d="M418.75 376.71l.71-2.21"/><path stroke="#919090" vector-effect="non-scaling-stroke" d="M414.38 378.79q2.52-.34 4.37-2.08"/><path stroke="gray" vector-effect="non-scaling-stroke" d="M195.79 225.5q-4.81 10.01-3.35 21.06.5 3.81 5.1 12.69"/><path stroke="#919090" vector-effect="non-scaling-stroke" d="M197.54 259.25q4.64 8.06 6.73 9.46 20.91 14.1 44.75 6.61a22.78 22.78 0 0012.75-10.04q11.59-19.34-.46-39.33-11.26-18.66-33.21-19.72c-13.05-.64-27.36 6.62-32.31 19.27"/><path stroke="#111110" vector-effect="non-scaling-stroke" d="M197.54 259.25q.76 0 1.16-.57a.95.93 51.3 00.09-.9q-1.06-2.53-1.8-5.18c-.6-2.16-2.48-3.92-2.73-6.09-.78-6.98 1.45-12.74 3.56-19.47a.59.58 21.6 00-.3-.69l-1.73-.85"/><path stroke="#919090" vector-effect="non-scaling-stroke" d="M356.55 220.78a4.16 4.16 0 00-4.16-4.16 4.16 4.16 0 00-4.16 4.16 4.16 4.16 0 004.16 4.16 4.16 4.16 0 004.16-4.16M343.4 224.86a4.34 4.34 0 00-4.34-4.34 4.34 4.34 0 00-4.34 4.34 4.34 4.34 0 004.34 4.34 4.34 4.34 0 004.34-4.34M329.56 231.4a4.25 4.25 0 00-4.25-4.25 4.25 4.25 0 00-4.25 4.25 4.25 4.25 0 004.25 4.25 4.25 4.25 0 004.25-4.25M314.5 238.5a4.22 4.22 0 00-4.22-4.22 4.22 4.22 0 00-4.22 4.22 4.22 4.22 0 004.22 4.22 4.22 4.22 0 004.22-4.22M301.009 246.309a4.26 4.04-1.5 00-4.365-3.928 4.26 4.04-1.5 00-4.153 4.15 4.26 4.04-1.5 004.365 3.928 4.26 4.04-1.5 004.153-4.15"/><path stroke="#cacbcc" vector-effect="non-scaling-stroke" d="M352.68 258.66c1.7 1.59 4.14 4.53 6.53 4.81a1.18 1.15-61.3 00.89-.27c2.17-1.85 1.96-4.12-.11-6.03-2.38-2.2-8.22-7.77-11.71-6.29a1.04 1.01 85.6 00-.59.71l-3.07 13a1.74 1.73-78 001.36 2.1c4.32.85 5.61-4.77 6.24-7.88q.1-.49.46-.15"/><path stroke="#919090" vector-effect="non-scaling-stroke" d="M283.827 261.341a4.36 3.96 115 005.432-2.277 4.36 3.96 115 00-1.746-5.626 4.36 3.96 115 00-5.432 2.278 4.36 3.96 115 001.746 5.625M280.835 271.904a4.27 3.65 30.6 00-1.817-5.316 4.27 3.65 30.6 00-5.533.968 4.27 3.65 30.6 001.817 5.316 4.27 3.65 30.6 005.533-.968"/><path stroke="gray" vector-effect="non-scaling-stroke" d="M290 275.21q-.86 1.42-.02 3.06 4 7.85 7.44 15.98a.55.54-19.9 00.67.31l6.38-2.07a.69.69 0 00.47-.74l-1.23-11"/><path stroke="#919090" vector-effect="non-scaling-stroke" d="M303.71 280.75l-1.35-7.24a.88.87-86.6 00-.58-.66c-3.47-1.12-8.8 1.02-11.78 2.36"/><path stroke="#111110" vector-effect="non-scaling-stroke" d="M303.71 280.75l-1.12 1.15a1.59 1.54 72.4 00-.42.84l-.96 5.76"/><path stroke="#5c5c5c" vector-effect="non-scaling-stroke" d="M301.21 288.5q-.95-.84-1.96-.21"/><path stroke="#111110" vector-effect="non-scaling-stroke" d="M299.25 288.29l-.67-.04a1.18 1.14 73.2 01-.84-.47q-4.2-5.74-7.15-12.29a.4.38 81.3 00-.3-.23l-.29-.05"/><path stroke="#4b4c4c" vector-effect="non-scaling-stroke" d="M299.25 288.29l.2.72a.67.65-7.7 00.66.49q.89-.02 1.1-1"/><path stroke="#cacbcc" vector-effect="non-scaling-stroke" d="M381.37 291.29c5 1.27 4.09-4.08 4.17-6.81a.45.45 0 01.78-.29c1.81 2.06 4.95 5.41 7.97 3.53a1.29 1.29 0 00.56-.76q.75-2.79-1.37-4.36c-2.19-1.63-9.17-8.54-11.79-6.72a1.53 1.51 80.9 00-.6.84q-1.97 7.02-.24 14.06a.71.69.2 00.52.51"/><path stroke="#919090" vector-effect="non-scaling-stroke" d="M269.011 289.285a4.58 4.15 96 004.606-4.121 4.58 4.15 96 00-3.648-4.989 4.58 4.15 96 00-4.606 4.121 4.58 4.15 96 003.648 4.989M270.47 300.91a4.42 4.42 0 00-4.42-4.42 4.42 4.42 0 00-4.42 4.42 4.42 4.42 0 004.42 4.42 4.42 4.42 0 004.42-4.42M306.873 309.61a4.8 4.38 73 002.786-5.87 4.8 4.38 73 00-5.592-3.31 4.8 4.38 73 00-2.786 5.87 4.8 4.38 73 005.592 3.31"/><path stroke="gray" vector-effect="non-scaling-stroke" d="M270.798 319.242a4.6 4.15 74 002.721-5.566 4.6 4.15 74 00-5.257-3.278 4.6 4.15 74 00-2.721 5.566 4.6 4.15 74 005.257 3.278"/><path stroke="#919090" vector-effect="non-scaling-stroke" d="M282.149 327.96a4.63 4.22 86.3 003.912-4.892 4.63 4.22 86.3 00-4.51-4.348 4.63 4.22 86.3 00-3.912 4.892 4.63 4.22 86.3 004.51 4.348M362.982 324.824a3.07 3.07 0 00-3.144-2.994l-1.72.042a3.07 3.07 0 00-2.994 3.144l.054 2.22a3.07 3.07 0 003.144 2.994l1.72-.042a3.07 3.07 0 002.994-3.144l-.054-2.22M377.006 324.935a3.12 3.12 0 00-3.294-2.936l-1.997.115a3.12 3.12 0 00-2.935 3.295l.114 1.976a3.12 3.12 0 003.294 2.936l1.997-.115a3.12 3.12 0 002.935-3.295l-.114-1.976M302.33 326.81a4.43 4.43 0 00-4.43-4.43 4.43 4.43 0 00-4.43 4.43 4.43 4.43 0 004.43 4.43 4.43 4.43 0 004.43-4.43M348.95 326.7a4.4 4.4 0 00-4.4-4.4 4.4 4.4 0 00-4.4 4.4 4.4 4.4 0 004.4 4.4 4.4 4.4 0 004.4-4.4M317.45 328.943a4.59 4.07 17.4 00-3.163-5.257 4.59 4.07 17.4 00-5.597 2.511 4.59 4.07 17.4 003.163 5.257 4.59 4.07 17.4 005.597-2.511M332.017 326.246a2.81 2.81 0 00-2.953-2.659l-2.597.136a2.81 2.81 0 00-2.659 2.954l.115 2.197a2.81 2.81 0 002.953 2.659l2.597-.136a2.81 2.81 0 002.659-2.954l-.115-2.197M392.46 328.76a4.46 4.46 0 00-4.46-4.46 4.46 4.46 0 00-4.46 4.46 4.46 4.46 0 004.46 4.46 4.46 4.46 0 004.46-4.46"/><path stroke="gray" vector-effect="non-scaling-stroke" d="M397.83 337.733a4.77 4.52 131.5 006.545-.578 4.77 4.52 131.5 00-.224-6.567 4.77 4.52 131.5 00-6.546.577 4.77 4.52 131.5 00.224 6.567"/><path stroke="#919090" vector-effect="non-scaling-stroke" d="M416.4 344.47a4.42 4.42 0 00-4.42-4.42 4.42 4.42 0 00-4.42 4.42 4.42 4.42 0 004.42 4.42 4.42 4.42 0 004.42-4.42M417.414 363.407a5.15 4.83 81.8 004.047-5.786 5.15 4.83 81.8 00-5.516-4.408 5.15 4.83 81.8 00-4.046 5.786 5.15 4.83 81.8 005.515 4.408M242.97 215.38c-11.39-5.89-25.12-3.56-34.89 3.97-7.64 5.89-9.3 19.27-7.89 27.8 2.36 14.29 12.71 22.94 26.86 24.33 9.83.97 18.64.6 26.51-6.19 7.11-6.14 7.79-13.28 7.4-22.2-.42-9.51-9.53-23.32-17.99-27.71"/><path stroke="gray" vector-effect="non-scaling-stroke" d="M222.883 218.028a1.43 1.43 0 00-1.785-.95l-.115.035a1.43 1.43 0 00-.95 1.786l1.784 5.833a1.43 1.43 0 001.785.95l.115-.035a1.43 1.43 0 00.95-1.786l-1.784-5.833"/><path stroke="#cacbcc" vector-effect="non-scaling-stroke" d="M222.04 239q-3.44 12.3-1.54 24.89a1.1 1.09-23.4 001.76.69q9.75-7.64 14.82-18.74"/><path stroke="#919090" vector-effect="non-scaling-stroke" d="M237.08 245.84q3.15-12.33 2.64-24.89a.6.6 0 00-.92-.48c-8.5 5.58-12.68 9.03-16.76 18.53"/><path stroke="#5c5c5c" vector-effect="non-scaling-stroke" d="M237.08 245.84L222.04 239"/><path stroke="gray" vector-effect="non-scaling-stroke" d="M254.737 235.51a.64.64 0 00-.71-.56l-5.264.618a.64.64 0 00-.561.71l.161 1.371a.64.64 0 00.71.561l5.264-.618a.64.64 0 00.561-.71l-.161-1.371M212.092 248.365a1.44 1.44 0 00-1.652-1.191l-5.626.911a1.44 1.44 0 00-1.192 1.652l.026.158a1.44 1.44 0 001.652 1.191l5.626-.911a1.44 1.44 0 001.192-1.652l-.026-.158M241.017 265.824a3.91 1.36 70 00-.059-4.14 3.91 1.36 70 00-2.615-3.208 3.91 1.36 70 00.059 4.14 3.91 1.36 70 002.615 3.208"/><path stroke="#111110" vector-effect="non-scaling-stroke" d="M270.555 317.014a2.36 1.94 67.7 00.9-2.92 2.36 1.94 67.7 00-2.69-1.447 2.36 1.94 67.7 00-.9 2.92 2.36 1.94 67.7 002.69 1.447M399.103 336.32a2.67 2.45 129.2 003.586-.522 2.67 2.45 129.2 00-.212-3.617 2.67 2.45 129.2 00-3.586.52 2.67 2.45 129.2 00.212 3.618"/><path stroke="#919090" vector-effect="non-scaling-stroke" d="M374.842 417.777a4.88 4.65-12.1 00-5.747-3.524 4.88 4.65-12.1 00-3.797 5.57 4.88 4.65-12.1 005.747 3.524 4.88 4.65-12.1 003.797-5.57M312.52 434.83c-5.56-3.7-12.28-7.1-17.22-11.46-.76-.67-4.26-4.22-5.19-3.1a.55.55 0 00.08.78q3.51 2.82 5.51 6.87a.77.76-37.5 01-.12.85c-1.79 2.02-.51 3.51 1.42 4.69q5.35 3.25 10.61 6.74a.38.38 0 01-.01.64l-16.93 10.58a1.5 1.5 0 00-.22 2.38l12.8 11.73a.32.32 0 00.48-.06l11.38-17.11a.66.66 0 01.89-.2l.5.3"/><path stroke="gray" vector-effect="non-scaling-stroke" d="M316.5 448.46l14.85 10.04a.71.71 0 00.77.02q4.78-2.94 8.13-7.42a.55.55 0 00-.17-.81l-16.84-9.5a.34.34 0 01-.06-.55l11.9-10.64a.45.44 46.2 00.01-.66l-10.63-10.24a.44.43 42.8 00-.63.02q-6.1 6.97-10.09 15.23-.21.43-1.22.88"/><path stroke="#111110" vector-effect="non-scaling-stroke" d="M316.5 448.46c2.41-1.78 11.53 6.69 15.25 7.89a1.26 1.25 40.7 00.95-.07q3.31-1.64 5.3-4.76a.62.62 0 00-.21-.87l-15.46-9.07a1.31 1.3-54.4 01-.32-1.98c3.15-3.62 7.18-5.76 10.19-9.44a1.55 1.53 42 00-.12-2.07l-6.06-5.97a1.95 1.95 0 00-2.94.23c-2.65 3.58-6.49 8.05-8.21 12.05q-.88 2.04-2.35.43"/><path stroke="#919090" vector-effect="non-scaling-stroke" d="M360.66 427.44a4.52 4.52 0 00-4.52-4.52 4.52 4.52 0 00-4.52 4.52 4.52 4.52 0 004.52 4.52 4.52 4.52 0 004.52-4.52"/><path stroke="gray" vector-effect="non-scaling-stroke" d="M348.5 435.298a4.99 4.73-9.6 00-5.709-3.832 4.99 4.73-9.6 00-4.131 5.496 4.99 4.73-9.6 005.709 3.832 4.99 4.73-9.6 004.131-5.496"/><path stroke="#919090" vector-effect="non-scaling-stroke" d="M403.818 392.747a5.04 4.65 107.1 005.926-3.45 5.04 4.65 107.1 00-2.962-6.184 5.04 4.65 107.1 00-5.926 3.45 5.04 4.65 107.1 002.962 6.184"/><path stroke="gray" vector-effect="non-scaling-stroke" d="M427.45 413.7l5.37-1.6a.72.71-9.5 00.51-.71q-.31-9.86-2.91-19.39a.43.43 0 00-.49-.32q-5.73 1-11.16 3.09a.58.58 0 00-.33.74q3.62 9.22 8.36 17.93a.56.56 0 00.65.26"/><path stroke="#919090" vector-effect="non-scaling-stroke" d="M391.664 404.408a5.06 4.6 118 006.438-2.308 5.06 4.6 118 00-1.686-6.628 5.06 4.6 118 00-6.438 2.308 5.06 4.6 118 001.686 6.628M388.03 410.33a5.2 5.2 0 00-5.2-5.2 5.2 5.2 0 00-5.2 5.2 5.2 5.2 0 005.2 5.2 5.2 5.2 0 005.2-5.2"/><path stroke="gray" vector-effect="non-scaling-stroke" d="M438.083 422.584a3.25 3.25 0 00-3.642-2.804l-1.825.237a3.25 3.25 0 00-2.804 3.641l.345 2.658a3.25 3.25 0 003.642 2.804l1.825-.237a3.25 3.25 0 002.804-3.641l-.345-2.658"/><path stroke="#908f7f" vector-effect="non-scaling-stroke" d="M417.105 373.475a1.42.6 71.3 00.113-1.537 1.42.6 71.3 00-1.023-1.153 1.42.6 71.3 00-.113 1.537 1.42.6 71.3 001.023 1.153"/><path stroke="#111110" vector-effect="non-scaling-stroke" d="M432.08 410.63l-2.21-16.28q-.29-2.08-2.26-1.35l-6.95 2.59a.51.51 0 00-.27.73c2.82 5.04 4.71 10.4 7.24 15.57a.64.64 0 00.75.33l3.32-1a.55.54-12.7 00.38-.59M436.185 426.284a3.02 2.5 46.6 00-.259-3.912 3.02 2.5 46.6 00-3.891-.476 3.02 2.5 46.6 00.259 3.912 3.02 2.5 46.6 003.891.476M346.48 435.583a3.03 2.66-8.1 00-3.375-2.207 3.03 2.66-8.1 00-2.625 3.06 3.03 2.66-8.1 003.375 2.208 3.03 2.66-8.1 002.625-3.06"/><path stroke="#fefeef" vector-effect="non-scaling-stroke" d="M589.94 591l-.19-.71"/><path stroke="#908f7f" vector-effect="non-scaling-stroke" d="M.25 590.04c-.15.47-.01.72.5.7q7.85-.17 15.69.26"/><path stroke="#c9cabb" vector-effect="non-scaling-stroke" d="M577.19 591q-3.75-.63-7.5 0M31.19 591q-4.75-.63-9.5 0"/></g><path d="M0 0h590.06l.19.29.04 589.46-.54.54q-291.28-.02-582.56-.12-3.48 0-6.94-.13l-.25-.1V0zm4.29 495.75l.02 89.93a.51.51 0 00.51.51l4.68.02h576.26a.5.49-90 00.49-.5V4.75a.5.5 0 00-.5-.5H4.79a.5.49 0 00-.5.49v491.01z"/><path fill="#222120" d="M590.06 0h.94v587.31c-.84-.45-.25-537.06-.25-586.81a.25.24-86.1 00-.21-.25q-.17-.02-.29.04l-.19-.29z"/><path fill="#fdfcde" d="M590.25.29q.12-.06.29-.04a.25.24-86.1 01.21.25c0 49.75-.59 586.36.25 586.81v2.75l-.71-.31L590.25.29zM9.5 586.21q-.66-12.54-.72-25.1c-.02-4.6-1.09-10.39-.64-15.42q.87-9.5.53-18.1c-.46-11.62-.57-19.27-1.23-28.88a1.15 1.13 17.8 00-.44-.83l-2.71-2.13V4.74a.5.49 0 01.5-.49h580.96a.5.5 0 01.5.5v580.96a.5.49-90 01-.49.5H9.5zM99.33 41.45q-21.2-.62-41.94.48c-8.67.46-18.92 4.55-19.39 14.39q-1.15 24.11.66 47.86a.79.79 0 001.25.58q2.35-1.72 4.34-3.76 27.35-28.03 54.5-56.26 1.03-1.07 1.38-2.15a.87.87 0 00-.8-1.14zm85.03 97.17q-10.13-5.4-20.9-2.31c-13.13 3.78-17.61 18.79-16.96 31.06.15 2.68-.78 4.11-2.52 5.86q-7.5 7.55-14.42 15.63a.87.86 55.2 00-.15.85c2.77 7.67 4.57 16.56 6.24 23.19 14.59 57.98 25.91 108.54 38.14 162.35 2.6 11.48 5.22 26.21 8.38 39.19q1.91 7.83 3.25 14.71c7.72 39.64 17.72 79.07 19.79 119.84a.41.4 81.9 00.5.38c8.06-1.88 16.83-5.18 23.69-6.93q29.19-7.48 67.6-14.45 70.12-12.74 131.65-18.35c2.43-.22 5-.09 7.42-.16a2.46 2.45 19.1 001.82-.88q13.32-16 27.51-31.23a1.21 1.2-25.1 00.33-.9c-.24-5.13-3.49-13.33-5.57-19.95a.49.49 0 01.33-.62q1.26-.38 3.08-.52 18.92-1.45 36.16-.92a.52.52 0 00.54-.49q.1-1.52-.42-3.55c-4.83-18.94-9.86-36.4-16.57-54.3q-21.55-57.51-42.58-101.88c-22.94-48.43-42.1-87.9-66.51-133.17-1.77-3.29-4.33-7.13-6.27-10.86a1.45 1.42-54.7 01-.15-.94c1.79-10.21 2.44-17.69-2.51-26.86-4.43-8.2-10.78-12.13-20.02-12.64q-9.03-.49-14.65 5.63a.49.49 0 01-.69.03q-.79-.72-1.82-1.05c-8.31-2.65-16.34-4.29-23.9 2.11a.9.9 0 01-.92.16q-17.24-6.8-28.85 6.73a.52.52 0 01-.75.04c-8.68-8-22.08-5.61-30.94 1.09a.97.95 37.4 01-.96.12q-14.52-6.1-24.79 5.08a.72.71 30.9 01-.77.19q-19.03-6.98-31.21 8.58a.5.49-57 01-.63.14z"/><path fill="#f9e1a8" d="M99.33 41.45a.87.87 0 01.8 1.14q-.35 1.08-1.38 2.15Q71.6 72.97 44.25 101q-1.99 2.04-4.34 3.76a.79.79 0 01-1.25-.58Q36.85 80.43 38 56.32c.47-9.84 10.72-13.93 19.39-14.39q20.74-1.1 41.94-.48z"/><path fill="#222120" d="M184.99 138.48q12.18-15.56 31.21-8.58a.72.71 30.9 00.77-.19q10.27-11.18 24.79-5.08a.97.95 37.4 00.96-.12c8.86-6.7 22.26-9.09 30.94-1.09a.52.52 0 00.75-.04q11.61-13.53 28.85-6.73a.9.9 0 00.92-.16c7.56-6.4 15.59-4.76 23.9-2.11q1.03.33 1.82 1.05a.49.49 0 00.69-.03q5.62-6.12 14.65-5.63c9.24.51 15.59 4.44 20.02 12.64 4.95 9.17 4.3 16.65 2.51 26.86a1.45 1.42-54.7 00.15.94c1.94 3.73 4.5 7.57 6.27 10.86 24.41 45.27 43.57 84.74 66.51 133.17q21.03 44.37 42.58 101.88c6.71 17.9 11.74 35.36 16.57 54.3q.52 2.03.42 3.55a.52.52 0 01-.54.49q-17.24-.53-36.16.92-1.82.14-3.08.52a.49.49 0 00-.33.62c2.08 6.62 5.33 14.82 5.57 19.95a1.21 1.2-25.1 01-.33.9q-14.19 15.23-27.51 31.23a2.46 2.45 19.1 01-1.82.88c-2.42.07-4.99-.06-7.42.16q-61.53 5.61-131.65 18.35-38.41 6.97-67.6 14.45c-6.86 1.75-15.63 5.05-23.69 6.93a.41.4 81.9 01-.5-.38c-2.07-40.77-12.07-80.2-19.79-119.84q-1.34-6.88-3.25-14.71c-3.16-12.98-5.78-27.71-8.38-39.19-12.23-53.81-23.55-104.37-38.14-162.35-1.67-6.63-3.47-15.52-6.24-23.19a.87.86 55.2 01.15-.85q6.92-8.08 14.42-15.63c1.74-1.75 2.67-3.18 2.52-5.86-.65-12.27 3.83-27.28 16.96-31.06q10.77-3.09 20.9 2.31a.5.49-57 00.63-.14zm167.76-14.27q4.69 5.48 5.04 12.79c.12 7.06-1.5 11.22-4.68 18.66-1.73 4.06 4.85 3.5 6.43.89q3.24-5.35 4.17-13.55c2.14-10.44-1.63-22.69-12.76-26.09q-8.82-3.8-16.19 1.77a1.08 1.08 0 00-.25 1.46l3.36 5.08a.64.64 0 001 .09c4.31-4.42 8.81-2.85 13.88-1.1zm-24.29 6.29c1.19 3.74 2.68 6.75 2.39 10.79q-.36 5.02-1.39 9.96l-3.71 8.14a.98.96 41.2 00.07.93l1.17 1.79a2.29 2.29 0 003.78.08q6.32-8.88 6.69-19.69c1.59-7.62-2.71-14.22-7.15-19.97q-9.63-7.1-21.15-3.04a1.12 1.11-27.7 00-.54 1.71l2.96 4.09a.64.62 56.7 00.83.18c5.93-3.49 13-.94 16.05 5.03zm-26.85 1.18l3.6 7.82q.97 12.18-5.8 21.97a1.28 1.26-34.2 00-.2 1q.54 2.46 3.06 2.99a1.01 1-64.8 001-.37q6.33-8.06 7.44-18.09.32-8.26-.15-10.81-.99-5.43-6.12-12.31-8.57-5.68-18.21-2.86c-3.38.99-6.09 4.89-8.56 7.37a.54.53-40.4 00-.06.68l3.55 5.05a.34.33 43.8 00.56-.01q7.97-12.51 19.89-2.43zm-47.86-6.39l-4.41 1.43a.38.38 0 00-.15.63l5.46 5.37a.97.96-30.4 00.95.24q6.39-1.89 12.21 1.37l4.73 8.92q.29 4.77.57 9.55c.23 3.94-1.02 6.89-2.32 10.44-.92 2.48-1.15 4.71 1.6 5.78a1.26 1.25-46.6 00.95-.03q1.04-.48 1.81-1.77 6.08-10.26 5.15-21.42c-2.43-12.43-12.09-25.68-26.55-20.51zM243.96 139q6.22 8.3 3.5 18.5c-1.23 5.82-4.57 9.73-6.6 15.14a1.88 1.88 0 001.33 2.49c6.25 1.49 11.43-14.45 12.06-18.59q3.34-14.64-8.36-23.6c-2.47-1.88-5.03-4.34-8.31-4.54-4.43-.27-9.84-1.08-13.02 2.86a.77.77 0 00.03 1l2.22 2.46a1.2 1.19 65.7 001.05.4q5.25-.63 10.52.07.46.06.83.33l4.75 3.48zm108.55-2.19c.33-5.1-3.07-10.12-8.6-8.37-3.1.99-1.11 8.01-.8 9.66a.58.57-9.4 00.65.46l8.23-1.18a.61.61 0 00.52-.57zm-30.47-1.87c.02-1.06.58-2.18.42-3.37a1.07 1.06 10.8 00-.54-.79q-3.1-1.7-6.43-.67a.54.53 76.3 00-.36.6q.98 5.45.82 10.99a.66.66 0 00.76.67l4.61-.69a.78.78 0 00.66-.77q-.01-3 .06-5.97zm-124.83.06q-2.81 1.51-5.08 3.92a.62.62 0 00.01.85l2.98 2.97a.86.85 55.1 00.98.18c8.08-3.75 14.31-5.55 21.11 1.58q3.02 3.86 3.08 8.75v4.5l-.79 4.65q-2.29 7.01-7.75 14.6-1.27 1.77-.07 3.55a.8.8 0 00.8.34c9.18-1.55 13.58-14.7 13.98-22.64q1.46-8.31-1.89-15.74c-1.94-4.27-9.18-8.93-13.52-9.74q-7.19-1.35-13.84 2.23zm95.75-1.99c-6.78-.95-8.4 8.76-7.83 13.37a.63.63 0 00.68.55l4.84-.44a.73.73 0 00.66-.64l1.2-10.86q.06-.5.31-.93l.35-.61a.3.29-70.9 00-.21-.44zm-25.38 16.02c.28-5.43-3.21-13.13-9.86-10.92a.5.5 0 00-.31.64c1.52 4.25 3.26 5.65 3.09 11.46a.57.56-3.4 00.65.57l5.65-.88a.93.93 0 00.78-.87zm-84.55.81l3.9 7.71a1.75 1.7-87.8 00.64.71l.43.28q1.37 7.72.04 15.46c-1 2.67-5.03 9.59-2.23 11.74a.67.67 0 00.81.01c1.4-1.02 2.87-1.54 3.81-3.05q2.82-4.56 4.28-9.7 1.5-6.43.58-13-1.74-9.7-9.54-15.54c-9.16-6.28-25.22-5.54-30.56 6.03q-3.08 6.68-3.82 14.62a1.47 1.46 82.3 001.98 1.51l2.37-.9a.99.98-9 00.62-.85c.19-2.92.24-6.31 1.47-8.89 4.58-9.61 16.51-9.59 25.22-6.14zm49.73 5.17c1.94.63 1.23-4.54 1.24-5.5.01-2.64.93-5.24.98-8.04a.46.45-5 00-.55-.46l-3.38.7a.75.74-16 00-.55.98q2.04 5.56 1.71 11.51a.8.8 0 00.55.81zm132.62 2.74c-2.41 2.14-4.74 6.47-8.68 6.82-5.43.48-9.88-3.77-9.41-9.3.28-3.33 2.99-6.66 4.53-9.92q1.01-2.13-1.33-1.84l-7.3.88a.71.7-.1 00-.61.6c-1.04 7.41-3.14 21.13-12.17 23.45-4.87 1.25-9.81-2.87-10.09-7.82-.19-3.26 3.65-9.14 4.74-12.69a.78.78 0 00-.86-1l-7.86 1.22a.66.65-7.8 00-.55.72c.28 2.7-1.03 5.16-1.49 7.01-1.59 6.34-5.93 16.3-14.09 14.64q-3.11-.63-4.95-2.94c-4.24-5.32.09-10.61 2.26-15.62a.59.59 0 00-.63-.82l-10.59 1.48a.87.85-88.5 00-.73.71q-1.41 8.02-4.32 15.57c-3.89 10.08-16.99 7.02-15.97-4.18q.18-2.07 2.29-8.76a.35.35 0 00-.39-.46l-6.55.94a.71.7-.1 00-.59.58q-2.25 12.97-10.77 21.5c-3.78 3.78-10.85 3.25-12.88-1.96-1.84-4.73 3.02-12.28 5.4-16.47a.59.58 9.6 00-.62-.86l-8.99 1.7a.5.5 0 00-.41.47c-.17 4.85-3.65 12.35-5.32 15.07-2.2 3.6-9.59 10.23-14.48 9.81-3.61-.31-7.6-4.21-6.85-8.15.94-4.91 9.15-8.66 7.75-14.31a.46.44 79.1 00-.49-.34l-10.26 1.44a.51.5 86.7 00-.43.49q-.22 11.91-7.25 21.11-2.92 3.83-5.97 4.67c-6.43 1.78-12.89-5.5-9.63-11.62 2.28-4.3 4.61-7.89 3.72-11.42a.53.52-11.2 00-.6-.39l-27.49 4.38a.48.47-13 00-.38.6q1.55 5.39 3.32 10.71c2.35 7.03 6.16 14.91 8.92 22.7a1.42 1.42 0 001.69.9q2.43-.62 5.72-1.11 94.8-13.9 189.53-28.32 6.32-.97 12.36-1.68a.47.46 72.1 00.35-.69l-9.96-17.39a.42.42 0 00-.64-.11zm-166.87-9.18a1.23 1.22-33.8 00-.31 1.56q2.35 4.12 2.27 8.88a.45.45 0 00.53.45l4.4-.84a.74.73-88.7 00.57-.55l2.76-11.42a.45.45 0 00-.36-.55q-5.54-.9-9.86 2.47zm-19.8 5.73c-9.65-1.58-15.97-1.28-16.69 10.34a.59.59 0 00.68.62l14.58-2.37a.84.83 89.6 00.68-.7l1.01-7.53a.31.31 0 00-.26-.36zm32.13 383.23q-.39 2.5.32 4.93a.43.42-21 00.6.26l3.49-1.76c17-5.52 31.24-8.56 52.74-13.25q23.86-5.21 77.14-13.63c10.19-1.62 23.11-3.09 35.55-4.94q19.24-2.86 46.37-4.78c1.73-.12 4.72-.02 7.1-.53a1.59 1.58 14.5 00.84-.49l21.66-24.76q.66-.75-.34-.74-27.73.34-55.84 3.68c-53.97 6.41-107.74 16.69-160.65 29.09q-1.82.43-3.57 1.1-1.16.37-1.25-.46-.51-4.92-1.54-9.75-.22-6.93-1.43-13.76c-3.01-17-5.66-34.18-9.52-50.99q-5.87-25.53-11.89-51.03c-2.25-9.57-5.49-20.95-8.39-32.46q-4.77-18.96-19.69-70.26c3.09.51-1.39-10.67-2.25-12.62q-1.21-2.77-1.59-5.62c-.57-4.17-1.82-6.4-2.52-9.7-.95-4.53-2.35-9.61-4.41-13.7a.52.51 63.7 00-.69-.24q-.5.24-.83.67c-6.75-20.55-13.23-42.56-20.61-63.67q-.17-.47-.15-.97l.02-1.13q.02-.85-.55-.22l-11.55 12.58a1.58 1.55 16.1 01-.89.48q-1.79.3-1.3 1.9c7.83 25.2 12.77 51.04 19.44 76.53 1.97 7.53 3.16 15.25 5.17 22.72 3.81 14.18 6.79 29.56 10.56 44.31.73 2.85 1.13 6.68 1.95 9.88q3.6 14.14 6.27 28.47c2.14 11.46 5.77 23.13 7.6 35.09.9 5.92 3.24 13.39 4.48 20.03 4 21.4 9.25 42.92 13.02 66.32 2.11 13.11 5.42 28.79 7.13 43.42zm19.7-176.78l.96 2.54q13.63 33.61 29.29 75.91 8.49 22.95 13.28 45.18a.48.48 0 00.59.36c8.63-2.36 17.19-4.74 25.84-6.99 41.95-10.96 84.87-18.13 127.75-24.29l6.55-.78q28.95-3.81 58.2-4.17a.79.78 82.7 00.75-.98c-6.95-28.11-17.26-55.57-28.25-82.32l-1.19-3.57c-26.14-61.93-54.78-122.31-86.21-182.01a1.38 1.37-17.8 00-1.42-.72c-69.23 10.17-138.72 21.2-208.18 31.15a.33.33 0 00-.26.45q3.16 7.93 6.46 15.8c2.29 5.46 5.12 13.86 8.43 20.52 1.65 3.33 2.68 7.17 3.88 9.91q9.82 22.32 18.77 45c.95 2.39 2.5 5.06 3.46 7.47q10.34 25.9 21.3 51.54z"/><path fill="#959798" d="M350.95 116.91q3.16 1.77 3.8 5.26.18.98-.48.23l-.86-.95q-.57-.64-.81.19-.37 1.28.15 2.57c-5.07-1.75-9.57-3.32-13.88 1.1a.64.64 0 01-1-.09l-3.36-5.08a1.08 1.08 0 01.25-1.46q7.37-5.57 16.19-1.77z"/><path fill="#fff" d="M350.95 116.91c11.13 3.4 14.9 15.65 12.76 26.09l-1.22 2.4a.56.55-63.4 01-.74.25q-.84-.42-.77-1.66.42-6.71-1.08-13.85a.61.61 0 00-1.21.15l.32 6.09a.61.6-9.4 01-.45.62q-.4.11-.77 0-.35-7.31-5.04-12.79-.52-1.29-.15-2.57.24-.83.81-.19l.86.95q.66.75.48-.23-.64-3.49-3.8-5.26z"/><path fill="#959798" d="M330.31 122.53q-1 2.92.46 5.74c.4.76.3 1.43-.05 2.14q-.39.78-.73-.03l-.3-.72a.57.57 0 00-.79-.29q-.62.33-.44 1.13c-3.05-5.97-10.12-8.52-16.05-5.03a.64.62 56.7 01-.83-.18l-2.96-4.09a1.12 1.11-27.7 01.54-1.71q11.52-4.06 21.15 3.04zM304.44 123.88q-.84 2.43.53 4.19.25.33.04.59a.37.37 0 01-.57 0l-1.38-1.63q-.67-.78-.81.24l-.64 4.41q-11.92-10.08-19.89 2.43a.34.33 43.8 01-.56.01l-3.55-5.05a.54.53-40.4 01.06-.68c2.47-2.48 5.18-6.38 8.56-7.37q9.64-2.82 18.21 2.86z"/><path fill="#fff" d="M330.31 122.53c4.44 5.75 8.74 12.35 7.15 19.97q-.5 2.03-2.3 1.84a.59.59 0 01-.51-.68q.77-4.62-.57-9.1a.39.38 50.2 00-.71-.07q-1.11 2.16-1.23 4.58c-.07 1.6-.63 13.26-1.98 13.36a.61.61 0 01-.65-.56l-.05-.62q1.03-4.94 1.39-9.96c.29-4.04-1.2-7.05-2.39-10.79q-.18-.8.44-1.13a.57.57 0 01.79.29l.3.72q.34.81.73.03c.35-.71.45-1.38.05-2.14q-1.46-2.82-.46-5.74zM280.3 145.8q-3.67-2.29-5.49-6.06a.43.43 0 00-.73-.07l-.28.37a1.15 1.14-29 00-.22.76l.21 2.38a.54.54 0 01-.54.59q-.5 0-.71-.52l-4.73-8.92 1.02-.32a.97.94 49.4 01.76.07l.8.43a.85.85 0 001.17-1.11l-2.36-5.11a3 2.98 88.3 00-1.6-1.52q-6-2.37-12.21-.56a1.1 1.09 52.4 01-.89-.12q-.48-.3-.75-.8c14.46-5.17 24.12 8.08 26.55 20.51zM304.44 123.88q5.13 6.88 6.12 12.31.47 2.55.15 10.81l-.42.01a.52.52 0 01-.52-.5q-.05-2.23-.02-4.49c.05-2.68-1.2-4.35-2.43-6.51a.58.58 0 00-1.07.14l-1.04 3.85-3.6-7.82.64-4.41q.14-1.02.81-.24l1.38 1.63a.37.37 0 00.57 0q.21-.26-.04-.59-1.37-1.76-.53-4.19z"/><path fill="#959798" d="M253.75 125.29q.27.5.75.8a1.1 1.09 52.4 00.89.12q6.21-1.81 12.21.56a3 2.98 88.3 011.6 1.52l2.36 5.11a.85.85 0 01-1.17 1.11l-.8-.43a.97.94 49.4 00-.76-.07l-1.02.32q-5.82-3.26-12.21-1.37a.97.96-30.4 01-.95-.24l-5.46-5.37a.38.38 0 01.15-.63l4.41-1.43zM245.89 132.94q.28 2.37 1.81 4.21c.39.48.46 1.23.18 1.71a.45.44 34.5 01-.68.12l-1.16-.97a1.03 1.02-33.6 00-.97-.19q-.87.28-1.11 1.18l-4.75-3.48q-.37-.27-.83-.33-5.27-.7-10.52-.07a1.2 1.19 65.7 01-1.05-.4l-2.22-2.46a.77.77 0 01-.03-1c3.18-3.94 8.59-3.13 13.02-2.86 3.28.2 5.84 2.66 8.31 4.54z"/><path fill="#fdfcde" d="M343.91 128.44c5.53-1.75 8.93 3.27 8.6 8.37a.61.61 0 01-.52.57l-8.23 1.18a.58.57-9.4 01-.65-.46c-.31-1.65-2.3-8.67.8-9.66z"/><path fill="#959798" d="M363.71 143q-.93 8.2-4.17 13.55c-1.58 2.61-8.16 3.17-6.43-.89 3.18-7.44 4.8-11.6 4.68-18.66q.37.11.77 0a.61.6-9.4 00.45-.62l-.32-6.09a.61.61 0 011.21-.15q1.5 7.14 1.08 13.85-.07 1.24.77 1.66a.56.55-63.4 00.74-.25l1.22-2.4z"/><path fill="#fff" d="M322.04 134.94q-.07 2.97-.06 5.97a.78.78 0 01-.66.77l-4.61.69a.66.66 0 01-.76-.67q.16-5.54-.82-10.99a.54.53 76.3 01.36-.6q3.33-1.03 6.43.67a1.07 1.06 10.8 01.54.79c.16 1.19-.4 2.31-.42 3.37zM226.46 158.25q-.03.74-.54.96-.69.31-.55-.43.74-3.79-.28-7.45a.74.74 0 00-1.27-.28q-.86 1-.27 2.1a.36.36 0 01-.23.52q-1.62.39-3.03-.42-.06-4.89-3.08-8.75-.01-1.25.85-2.31a.41.41 0 01.67.05l1.26 2.2a.62.62 0 00.86.23c1.3-.79-1.03-4.79-1.55-5.73-3.75-6.72-14.63-5.49-20.2-2.16a.9.88-45.7 01-.88.02q-1.03-.57-1.01-1.8 6.65-3.58 13.84-2.23c4.34.81 11.58 5.47 13.52 9.74q3.35 7.43 1.89 15.74zM245.89 132.94q11.7 8.96 8.36 23.6-.81-2.92-.64-6c.14-2.49.06-3.97-1.24-5.78a.87.87 0 00-1.5.17l-1.78 4.15a1.72 1.65 53 00-.11.9q.54 3.45.09 6.92a.99.98-9 01-.56.76q-.68.32-1.05-.16 2.72-10.2-3.5-18.5.24-.9 1.11-1.18a1.03 1.02-33.6 01.97.19l1.16.97a.45.44 34.5 00.68-.12c.28-.48.21-1.23-.18-1.71q-1.53-1.84-1.81-4.21z"/><path fill="#fdfcde" d="M285.13 146.38c-.57-4.61 1.05-14.32 7.83-13.37a.3.29-70.9 01.21.44l-.35.61q-.25.43-.31.93l-1.2 10.86a.73.73 0 01-.66.64l-4.84.44a.63.63 0 01-.68-.55z"/><path fill="#959798" d="M217.21 144.5c-6.8-7.13-13.03-5.33-21.11-1.58a.86.85 55.1 01-.98-.18l-2.98-2.97a.62.62 0 01-.01-.85q2.27-2.41 5.08-3.92-.02 1.23 1.01 1.8a.9.88-45.7 00.88-.02c5.57-3.33 16.45-4.56 20.2 2.16.52.94 2.85 4.94 1.55 5.73a.62.62 0 01-.86-.23l-1.26-2.2a.41.41 0 00-.67-.05q-.86 1.06-.85 2.31zM337.46 142.5q-.37 10.81-6.69 19.69a2.29 2.29 0 01-3.78-.08l-1.17-1.79a.98.96 41.2 01-.07-.93l3.71-8.14.05.62a.61.61 0 00.65.56c1.35-.1 1.91-11.76 1.98-13.36q.12-2.42 1.23-4.58a.39.38 50.2 01.71.07q1.34 4.48.57 9.1a.59.59 0 00.51.68q1.8.19 2.3-1.84zM310.71 147q-1.11 10.03-7.44 18.09a1.01 1-64.8 01-1 .37q-2.52-.53-3.06-2.99a1.28 1.26-34.2 01.2-1q6.77-9.79 5.8-21.97l1.04-3.85a.58.58 0 011.07-.14c1.23 2.16 2.48 3.83 2.43 6.51q-.03 2.26.02 4.49a.52.52 0 00.52.5l.42-.01z"/><path fill="#fff" d="M266.8 149.9l-5.65.88a.57.56-3.4 01-.65-.57c.17-5.81-1.57-7.21-3.09-11.46a.5.5 0 01.31-.64c6.65-2.21 10.14 5.49 9.86 10.92a.93.93 0 01-.78.87z"/><path fill="#959798" d="M280.3 145.8q.93 11.16-5.15 21.42-.77 1.29-1.81 1.77a1.26 1.25-46.6 01-.95.03c-2.75-1.07-2.52-3.3-1.6-5.78 1.3-3.55 2.55-6.5 2.32-10.44q-.28-4.78-.57-9.55.21.52.71.52a.54.54 0 00.54-.59l-.21-2.38a1.15 1.14-29 01.22-.76l.28-.37a.43.43 0 01.73.07q1.82 3.77 5.49 6.06zM185.75 144.46c-1.44 1.39.28 2.79.82 4.04a.36.36 0 01-.31.5q-1.82.09-3.23.84c-8.71-3.45-20.64-3.47-25.22 6.14-1.23 2.58-1.28 5.97-1.47 8.89a.99.98-9 01-.62.85l-2.37.9a1.47 1.46 82.3 01-1.98-1.51q.74-7.94 3.82-14.62c5.34-11.57 21.4-12.31 30.56-6.03z"/><path fill="#fff" d="M232.76 155.01a.8.8 0 01-.55-.81q.33-5.95-1.71-11.51a.75.74-16 01.55-.98l3.38-.7a.46.45-5 01.55.46c-.05 2.8-.97 5.4-.98 8.04-.01.96.7 6.13-1.24 5.5zM356.7 164.57c3.94-.35 6.27-4.68 8.68-6.82a.42.42 0 01.64.11l9.96 17.39a.47.46 72.1 01-.35.69q-6.04.71-12.36 1.68-94.73 14.42-189.53 28.32-3.29.49-5.72 1.11a1.42 1.42 0 01-1.69-.9c-2.76-7.79-6.57-15.67-8.92-22.7q-1.77-5.32-3.32-10.71a.48.47-13 01.38-.6l27.49-4.38a.53.52-11.2 01.6.39c.89 3.53-1.44 7.12-3.72 11.42-3.26 6.12 3.2 13.4 9.63 11.62q3.05-.84 5.97-4.67 7.03-9.2 7.25-21.11a.51.5 86.7 01.43-.49l10.26-1.44a.46.44 79.1 01.49.34c1.4 5.65-6.81 9.4-7.75 14.31-.75 3.94 3.24 7.84 6.85 8.15 4.89.42 12.28-6.21 14.48-9.81 1.67-2.72 5.15-10.22 5.32-15.07a.5.5 0 01.41-.47l8.99-1.7a.59.58 9.6 01.62.86c-2.38 4.19-7.24 11.74-5.4 16.47 2.03 5.21 9.1 5.74 12.88 1.96q8.52-8.53 10.77-21.5a.71.7-.1 01.59-.58l6.55-.94a.35.35 0 01.39.46q-2.11 6.69-2.29 8.76c-1.02 11.2 12.08 14.26 15.97 4.18q2.91-7.55 4.32-15.57a.87.85-88.5 01.73-.71l10.59-1.48a.59.59 0 01.63.82c-2.17 5.01-6.5 10.3-2.26 15.62q1.84 2.31 4.95 2.94c8.16 1.66 12.5-8.3 14.09-14.64.46-1.85 1.77-4.31 1.49-7.01a.66.65-7.8 01.55-.72l7.86-1.22a.78.78 0 01.86 1c-1.09 3.55-4.93 9.43-4.74 12.69.28 4.95 5.22 9.07 10.09 7.82 9.03-2.32 11.13-16.04 12.17-23.45a.71.7-.1 01.61-.6l7.3-.88q2.34-.29 1.33 1.84c-1.54 3.26-4.25 6.59-4.53 9.92-.47 5.53 3.98 9.78 9.41 9.3z"/><path fill="#959798" d="M254.25 156.54c-.63 4.14-5.81 20.08-12.06 18.59a1.88 1.88 0 01-1.33-2.49c2.03-5.41 5.37-9.32 6.6-15.14q.37.48 1.05.16a.99.98-9 00.56-.76q.45-3.47-.09-6.92a1.72 1.65 53 01.11-.9l1.78-4.15a.87.87 0 011.5-.17c1.3 1.81 1.38 3.29 1.24 5.78q-.17 3.08.64 6z"/><path fill="#fff" d="M185.75 144.46q7.8 5.84 9.54 15.54.08.51-.26.74a.93.93 0 01-1.43-.55c-.29-1.26-3.09-8.65-4.76-8.16a.44.44 0 00-.27.63l2.49 4.75a.74.74 0 01-.82 1.06q-.97-.23-2.24.07l-.43-.28a1.75 1.7-87.8 01-.64-.71l-3.9-7.71q1.41-.75 3.23-.84a.36.36 0 00.31-.5c-.54-1.25-2.26-2.65-.82-4.04z"/><path fill="#fdfcde" d="M198.51 148.57q4.32-3.37 9.86-2.47a.45.45 0 01.36.55l-2.76 11.42a.74.73-88.7 01-.57.55l-4.4.84a.45.45 0 01-.53-.45q.08-4.76-2.27-8.88a1.23 1.22-33.8 01.31-1.56z"/><path fill="#959798" d="M226.46 158.25c-.4 7.94-4.8 21.09-13.98 22.64a.8.8 0 01-.8-.34q-1.2-1.78.07-3.55 5.46-7.59 7.75-14.6 2.53-.87 2.5-3.34-.02-1.92-1.71-1.31v-4.5q1.41.81 3.03.42a.36.36 0 00.23-.52q-.59-1.1.27-2.1a.74.74 0 011.27.28q1.02 3.66.28 7.45-.14.74.55.43.51-.22.54-.96zM195.29 160q.92 6.57-.58 13h-.46a.7.69 9.3 00-.66.47c-.77 2.21-3.88 12.88-7.77 9.66a.57.57 0 01-.11-.76c1.53-2.22 1.86-5.31 3.55-7.07a.59.59 0 00.03-.78q-.44-.53-1.25-.52 1.33-7.74-.04-15.46 1.27-.3 2.24-.07a.74.74 0 00.82-1.06l-2.49-4.75a.44.44 0 01.27-.63c1.67-.49 4.47 6.9 4.76 8.16a.93.93 0 001.43.55q.34-.23.26-.74z"/><path fill="#fdfcde" d="M178.71 154.3a.31.31 0 01.26.36l-1.01 7.53a.84.83 89.6 01-.68.7l-14.58 2.37a.59.59 0 01-.68-.62c.72-11.62 7.04-11.92 16.69-10.34zM219.5 162.4l.79-4.65q1.69-.61 1.71 1.31.03 2.47-2.5 3.34zM194.71 173q-1.46 5.14-4.28 9.7c-.94 1.51-2.41 2.03-3.81 3.05a.67.67 0 01-.81-.01c-2.8-2.15 1.23-9.07 2.23-11.74q.81-.01 1.25.52a.59.59 0 01-.03.78c-1.69 1.76-2.02 4.85-3.55 7.07a.57.57 0 00.11.76c3.89 3.22 7-7.45 7.77-9.66a.7.69 9.3 01.66-.47h.46z"/><path fill="#959798" d="M170.25 241.79L182.54 283q14.92 51.3 19.69 70.26c2.9 11.51 6.14 22.89 8.39 32.46q6.02 25.5 11.89 51.03c3.86 16.81 6.51 33.99 9.52 50.99q1.21 6.83 1.43 13.76-.31-.71-.26-1.48a.25.24-87.8 00-.24-.27l-.28-.01a.25.25 0 00-.25.33c1.98 6.38-3.06 13.03-7.43 16.47q-.86-3.92-3-17.04-2.37-14.54-9.48-44.27c-2.68-11.24-6.62-21.5-10.79-32.06a.25.13 74.5 00-.15-.16l-.25-.02a.03.02-7 00-.03.03c1.66 7.45 2.86 14.48 5.12 22.11 4.55 15.31 5.76 31.72 7.94 45.76 1.82 11.77 4.06 23.47 4.85 35.36h-.26a.48.47 17.8 00-.38.19l-7.73 11.09c-1.71-14.63-5.02-30.31-7.13-43.42-3.77-23.4-9.02-44.92-13.02-66.32-1.24-6.64-3.58-14.11-4.48-20.03-1.83-11.96-5.46-23.63-7.6-35.09q-2.67-14.33-6.27-28.47c-.82-3.2-1.22-7.03-1.95-9.88-3.77-14.75-6.75-30.13-10.56-44.31-2.01-7.47-3.2-15.19-5.17-22.72-6.67-25.49-11.61-51.33-19.44-76.53q-.49-1.6 1.3-1.9a1.58 1.55 16.1 00.89-.48l11.55-12.58q.57-.63.55.22l-.02 1.13q-.02.5.15.97c7.38 21.11 13.86 43.12 20.61 63.67z"/><path fill="#fff" d="M464.31 361.64q-13.81-1.9-23.74.18c-4.58.96-15.51 4-19.99 8.27a.77.77 0 00-.2.81c.29.86 1.09 4.26-.3 4.56a.48.48 0 01-.58-.44l-.04-.52c1.58-8.11-9.8-8.57-9.96-.99-12.57 2.96-23.48 1.65-35.46 1.86-8.86.15-18.73 8.24-26.37 13.64a.61.6-40.9 01-.77-.05q-6.24-5.91-14.65-7.97-10.81-2.64-21.32-6.3c-8.35-2.91-15.84-3.91-24.24-4.89q-21.65-2.52-42.35-9.16-6.48-2.07-13.8.11-10.96-25.64-21.3-51.54c-.96-2.41-2.51-5.08-3.46-7.47q-8.95-22.68-18.77-45c-1.2-2.74-2.23-6.58-3.88-9.91-3.31-6.66-6.14-15.06-8.43-20.52q-3.3-7.87-6.46-15.8a.33.33 0 01.26-.45c69.46-9.95 138.95-20.98 208.18-31.15a1.38 1.37-17.8 011.42.72c31.43 59.7 60.07 120.08 86.21 182.01zM195.79 225.5q-4.81 10.01-3.35 21.06.5 3.81 5.1 12.69 4.64 8.06 6.73 9.46 20.91 14.1 44.75 6.61a22.78 22.78 0 0012.75-10.04q11.59-19.34-.46-39.33-11.26-18.66-33.21-19.72c-13.05-.64-27.36 6.62-32.31 19.27zm160.76-4.72a4.16 4.16 0 00-4.16-4.16 4.16 4.16 0 00-4.16 4.16 4.16 4.16 0 004.16 4.16 4.16 4.16 0 004.16-4.16zm-13.15 4.08a4.34 4.34 0 00-4.34-4.34 4.34 4.34 0 00-4.34 4.34 4.34 4.34 0 004.34 4.34 4.34 4.34 0 004.34-4.34zm-13.84 6.54a4.25 4.25 0 00-4.25-4.25 4.25 4.25 0 00-4.25 4.25 4.25 4.25 0 004.25 4.25 4.25 4.25 0 004.25-4.25zm-15.06 7.1a4.22 4.22 0 00-4.22-4.22 4.22 4.22 0 00-4.22 4.22 4.22 4.22 0 004.22 4.22 4.22 4.22 0 004.22-4.22zm-13.491 7.809a4.26 4.04-1.5 00-4.365-3.928 4.26 4.04-1.5 00-4.153 4.15 4.26 4.04-1.5 004.365 3.928 4.26 4.04-1.5 004.153-4.15zm51.671 12.351c1.7 1.59 4.14 4.53 6.53 4.81a1.18 1.15-61.3 00.89-.27c2.17-1.85 1.96-4.12-.11-6.03-2.38-2.2-8.22-7.77-11.71-6.29a1.04 1.01 85.6 00-.59.71l-3.07 13a1.74 1.73-78 001.36 2.1c4.32.85 5.61-4.77 6.24-7.88q.1-.49.46-.15zm-68.853 2.681a4.36 3.96 115 005.432-2.277 4.36 3.96 115 00-1.746-5.626 4.36 3.96 115 00-5.432 2.278 4.36 3.96 115 001.746 5.625zm-2.992 10.563a4.27 3.65 30.6 00-1.817-5.316 4.27 3.65 30.6 00-5.533.968 4.27 3.65 30.6 001.817 5.316 4.27 3.65 30.6 005.533-.968zM290 275.21q-.86 1.42-.02 3.06 4 7.85 7.44 15.98a.55.54-19.9 00.67.31l6.38-2.07a.69.69 0 00.47-.74l-1.23-11-1.35-7.24a.88.87-86.6 00-.58-.66c-3.47-1.12-8.8 1.02-11.78 2.36zm91.37 16.08c5 1.27 4.09-4.08 4.17-6.81a.45.45 0 01.78-.29c1.81 2.06 4.95 5.41 7.97 3.53a1.29 1.29 0 00.56-.76q.75-2.79-1.37-4.36c-2.19-1.63-9.17-8.54-11.79-6.72a1.53 1.51 80.9 00-.6.84q-1.97 7.02-.24 14.06a.71.69.2 00.52.51zm-112.359-2.005a4.58 4.15 96 004.606-4.121 4.58 4.15 96 00-3.648-4.989 4.58 4.15 96 00-4.606 4.121 4.58 4.15 96 003.648 4.989zm1.459 11.625a4.42 4.42 0 00-4.42-4.42 4.42 4.42 0 00-4.42 4.42 4.42 4.42 0 004.42 4.42 4.42 4.42 0 004.42-4.42zm36.403 8.7a4.8 4.38 73 002.786-5.87 4.8 4.38 73 00-5.592-3.31 4.8 4.38 73 00-2.786 5.87 4.8 4.38 73 005.592 3.31zm-36.075 9.632a4.6 4.15 74 002.721-5.566 4.6 4.15 74 00-5.257-3.278 4.6 4.15 74 00-2.721 5.566 4.6 4.15 74 005.257 3.278zm11.35 8.718a4.63 4.22 86.3 003.913-4.892 4.63 4.22 86.3 00-4.51-4.348 4.63 4.22 86.3 00-3.912 4.892 4.63 4.22 86.3 004.51 4.348zm80.834-3.136a3.07 3.07 0 00-3.144-2.994l-1.72.042a3.07 3.07 0 00-2.994 3.144l.054 2.22a3.07 3.07 0 003.144 2.994l1.72-.042a3.07 3.07 0 002.994-3.144l-.054-2.22zm14.024.11a3.12 3.12 0 00-3.294-2.935l-1.997.115a3.12 3.12 0 00-2.935 3.295l.114 1.976a3.12 3.12 0 003.294 2.936l1.997-.115a3.12 3.12 0 002.935-3.295l-.114-1.976zm-74.676 1.876a4.43 4.43 0 00-4.43-4.43 4.43 4.43 0 00-4.43 4.43 4.43 4.43 0 004.43 4.43 4.43 4.43 0 004.43-4.43zm46.62-.11a4.4 4.4 0 00-4.4-4.4 4.4 4.4 0 00-4.4 4.4 4.4 4.4 0 004.4 4.4 4.4 4.4 0 004.4-4.4zm-31.5 2.243a4.59 4.07 17.4 00-3.163-5.257 4.59 4.07 17.4 00-5.597 2.511 4.59 4.07 17.4 003.163 5.257 4.59 4.07 17.4 005.597-2.511zm14.567-2.697a2.81 2.81 0 00-2.953-2.659l-2.597.136a2.81 2.81 0 00-2.659 2.954l.115 2.197a2.81 2.81 0 002.953 2.659l2.597-.136a2.81 2.81 0 002.659-2.954l-.115-2.197zm60.443 2.514a4.46 4.46 0 00-4.46-4.46 4.46 4.46 0 00-4.46 4.46 4.46 4.46 0 004.46 4.46 4.46 4.46 0 004.46-4.46zm5.37 8.973a4.77 4.52 131.5 006.545-.578 4.77 4.52 131.5 00-.224-6.567 4.77 4.52 131.5 00-6.546.577 4.77 4.52 131.5 00.224 6.567zm18.57 6.737a4.42 4.42 0 00-4.42-4.42 4.42 4.42 0 00-4.42 4.42 4.42 4.42 0 004.42 4.42 4.42 4.42 0 004.42-4.42zm1.014 18.937a5.15 4.83 81.8 004.047-5.786 5.15 4.83 81.8 00-5.516-4.408 5.15 4.83 81.8 00-4.046 5.786 5.15 4.83 81.8 005.515 4.408z"/><path fill="#222120" d="M197.54 259.25q.76 0 1.16-.57a.95.93 51.3 00.09-.9q-1.06-2.53-1.8-5.18c-.6-2.16-2.48-3.92-2.73-6.09-.78-6.98 1.45-12.74 3.56-19.47a.59.58 21.6 00-.3-.69l-1.73-.85c4.95-12.65 19.26-19.91 32.31-19.27q21.95 1.06 33.21 19.72 12.05 19.99.46 39.33a22.78 22.78 0 01-12.75 10.04q-23.84 7.49-44.75-6.61-2.09-1.4-6.73-9.46zm45.43-43.87c-11.39-5.89-25.12-3.56-34.89 3.97-7.64 5.89-9.3 19.27-7.89 27.8 2.36 14.29 12.71 22.94 26.86 24.33 9.83.97 18.64.6 26.51-6.19 7.11-6.14 7.79-13.28 7.4-22.2-.42-9.51-9.53-23.32-17.99-27.71z"/><path fill="#fff" d="M242.97 215.38c8.46 4.39 17.57 18.2 17.99 27.71.39 8.92-.29 16.06-7.4 22.2-7.87 6.79-16.68 7.16-26.51 6.19-14.15-1.39-24.5-10.04-26.86-24.33-1.41-8.53.25-21.91 7.89-27.8 9.77-7.53 23.5-9.86 34.89-3.97zm-20.087 2.648a1.43 1.43 0 00-1.785-.95l-.115.035a1.43 1.43 0 00-.95 1.786l1.784 5.833a1.43 1.43 0 001.785.95l.115-.035a1.43 1.43 0 00.95-1.786l-1.784-5.833zM222.04 239q-3.44 12.3-1.54 24.89a1.1 1.09-23.4 001.76.69q9.75-7.64 14.82-18.74 3.15-12.33 2.64-24.89a.6.6 0 00-.92-.48c-8.5 5.58-12.68 9.03-16.76 18.53zm32.697-3.49a.64.64 0 00-.71-.56l-5.264.618a.64.64 0 00-.561.71l.161 1.371a.64.64 0 00.71.561l5.264-.618a.64.64 0 00.561-.71l-.161-1.371zm-42.645 12.855a1.44 1.44 0 00-1.652-1.191l-5.626.911a1.44 1.44 0 00-1.192 1.652l.026.158a1.44 1.44 0 001.652 1.191l5.626-.911a1.44 1.44 0 001.192-1.652l-.026-.158zm28.925 17.46a3.91 1.36 70 00-.059-4.14 3.91 1.36 70 00-2.615-3.21 3.91 1.36 70 00.059 4.14 3.91 1.36 70 002.615 3.21z"/><circle fill="#222120" cx="352.39" cy="220.78" r="4.16"/><rect x="-1.49" y="-4.48" transform="rotate(-17 851.82 -633.2)" width="2.98" height="8.96" rx="1.43"/><path fill="#222120" d="M237.08 245.84L222.04 239c4.08-9.5 8.26-12.95 16.76-18.53a.6.6 0 01.92.48q.51 12.56-2.64 24.89z"/><circle fill="#222120" cx="339.06" cy="224.86" r="4.34"/><path d="M195.79 225.5l1.73.85a.59.58 21.6 01.3.69c-2.11 6.73-4.34 12.49-3.56 19.47.25 2.17 2.13 3.93 2.73 6.09q.74 2.65 1.8 5.18a.95.93 51.3 01-.09.9q-.4.57-1.16.57-4.6-8.88-5.1-12.69-1.46-11.05 3.35-21.06z"/><circle fill="#222120" cx="325.31" cy="231.4" r="4.25"/><circle fill="#222120" cx="310.28" cy="238.5" r="4.22"/><rect x="-3.29" y="-1.33" transform="rotate(-6.7 2146.609 -2030.415)" width="6.58" height="2.66" rx=".64"/><path fill="#959798" d="M222.04 239l15.04 6.84q-5.07 11.1-14.82 18.74a1.1 1.09-23.4 01-1.76-.69q-1.9-12.59 1.54-24.89z"/><path d="M182.54 283l-12.29-41.21q.33-.43.83-.67a.52.51 63.7 01.69.24c2.06 4.09 3.46 9.17 4.41 13.7.7 3.3 1.95 5.53 2.52 9.7q.38 2.85 1.59 5.62c.86 1.95 5.34 13.13 2.25 12.62z"/><ellipse fill="#222120" transform="rotate(-1.5 9560.388 -11211.158)" rx="4.26" ry="4.04"/><rect x="-4.29" y="-1.52" transform="rotate(-9.2 1652.132 -1167.226)" width="8.58" height="3.04" rx="1.44"/><path fill="#959798" d="M352.22 258.81c-.63 3.11-1.92 8.73-6.24 7.88a1.74 1.73-78 01-1.36-2.1l3.07-13a1.04 1.01 85.6 01.59-.71c3.49-1.48 9.33 4.09 11.71 6.29 2.07 1.91 2.28 4.18.11 6.03a1.18 1.15-61.3 01-.89.27c-2.39-.28-4.83-3.22-6.53-4.81q-.36-.34-.46.15z"/><ellipse fill="#222120" transform="rotate(115 60.847 219.69)" rx="4.36" ry="3.96"/><ellipse transform="rotate(70 -67.354 302.224)" rx="3.91" ry="1.36"/><ellipse fill="#222120" transform="rotate(30.6 -354.403 641.428)" rx="4.27" ry="3.65"/><path fill="#222120" d="M303.71 280.75l-1.12 1.15a1.59 1.54 72.4 00-.42.84l-.96 5.76q-.95-.84-1.96-.21l-.67-.04a1.18 1.14 73.2 01-.84-.47q-4.2-5.74-7.15-12.29a.4.38 81.3 00-.3-.23l-.29-.05c2.98-1.34 8.31-3.48 11.78-2.36a.88.87-86.6 01.58.66l1.35 7.24z"/><path d="M290 275.21l.29.05a.4.38 81.3 01.3.23q2.95 6.55 7.15 12.29a1.18 1.14 73.2 00.84.47l.67.04.2.72a.67.65-7.7 00.66.49q.89-.02 1.1-1l.96-5.76a1.59 1.54 72.4 01.42-.84l1.12-1.15 1.23 11a.69.69 0 01-.47.74l-6.38 2.07a.55.54-19.9 01-.67-.31q-3.44-8.13-7.44-15.98-.84-1.64.02-3.06z"/><path fill="#959798" d="M381.37 291.29a.71.69.2 01-.52-.51q-1.73-7.04.24-14.06a1.53 1.51 80.9 01.6-.84c2.62-1.82 9.6 5.09 11.79 6.72q2.12 1.57 1.37 4.36a1.29 1.29 0 01-.56.76c-3.02 1.88-6.16-1.47-7.97-3.53a.45.45 0 00-.78.29c-.08 2.73.83 8.08-4.17 6.81z"/><ellipse fill="#222120" transform="rotate(96 6.559 263.69)" rx="4.58" ry="4.15"/><path fill="#959798" d="M301.21 288.5q-.21.98-1.1 1a.67.65-7.7 01-.66-.49l-.2-.72q1.01-.63 1.96.21z"/><circle fill="#222120" cx="266.05" cy="300.91" r="4.42"/><ellipse fill="#222120" transform="rotate(73 -53.37 358.92)" rx="4.8" ry="4.38"/><path d="M270.798 319.242a4.6 4.15 74 01-5.257-3.278 4.6 4.15 74 012.721-5.566 4.6 4.15 74 015.257 3.278 4.6 4.15 74 01-2.721 5.566zm-.243-2.228a2.36 1.94 67.7 00.9-2.92 2.36 1.94 67.7 00-2.69-1.447 2.36 1.94 67.7 00-.9 2.92 2.36 1.94 67.7 002.69 1.447z"/><ellipse fill="#222120" transform="rotate(67.7 -99.87 358.442)" rx="2.36" ry="1.94"/><ellipse fill="#222120" transform="rotate(86.3 -31.537 312.003)" rx="4.63" ry="4.22"/><rect fill="#222120" x="-3.93" y="-4.18" transform="rotate(-1.4 13521.835 -14531.803)" width="7.86" height="8.36" rx="3.07"/><rect fill="#222120" x="-4.12" y="-4.11" transform="rotate(-3.3 5847.816 -6310.421)" width="8.24" height="8.22" rx="3.12"/><circle fill="#222120" cx="297.9" cy="326.81" r="4.43"/><circle fill="#222120" cx="344.55" cy="326.7" r="4.4"/><ellipse fill="#222120" transform="rotate(17.4 -913.805 1186.746)" rx="4.59" ry="4.07"/><rect fill="#222120" x="-4.11" y="-3.91" transform="rotate(-3 6418.49 -6098.554)" width="8.22" height="7.82" rx="2.81"/><circle fill="#222120" cx="388" cy="328.76" r="4.46"/><path d="M397.83 337.733a4.77 4.52 131.5 01-.225-6.568 4.77 4.52 131.5 016.546-.578 4.77 4.52 131.5 01.224 6.568 4.77 4.52 131.5 01-6.546.578zm1.273-1.414a2.67 2.45 129.2 003.586-.52 2.67 2.45 129.2 00-.212-3.618 2.67 2.45 129.2 00-3.586.52 2.67 2.45 129.2 00.212 3.618z"/><ellipse fill="#222120" transform="rotate(129.2 121.038 262.28)" rx="2.67" ry="2.45"/><circle fill="#222120" cx="411.98" cy="344.47" r="4.42"/><ellipse fill="#222120" transform="rotate(81.8 1.518 419.67)" rx="5.15" ry="4.83"/><path fill="#959798" d="M409.5 373.51q.01 3.78 4.88 5.28-13.79 2.54-18.88 2.49-9.97-.1-19.93-.13c-7.8-.02-16.86 6.98-22.83 11.72a.61.6 51.3 00-.09.86c5.43 6.84 13.48 11.62 24.03 18.82a1.87 1.85 6.2 01.66.81q.95 2.3 3.2 3.2a1.59 1.52 46.1 001 .04c1.85-.57 3.14-.96 5.14-.57 7.46 1.45 17.54 2.02 23.22 7.07q11.33 10.06 20.56 24.3c1.15 1.77 3.01 3.19 4.34 5.28l-6.55.78v-.36a.74.71 18.8 00-.3-.58q-2.72-1.99-3.67-3.56c-4.61-7.63-16.35-23.11-25.6-24.67q-10.41-1.75-18.95-4.24c-3.22-.93-4.46-2.71-5.13-5.79a.7.7 0 00-.6-.54c-2.84-.35-5.5-.23-8.02-1.77-8.63-5.32-14.71-11.33-21.75-17.52-4-3.51-9.25-7.23-13.73-8.2q-13.64-2.97-26.75-7.7c-1.91-.69-5.12-1.26-7.04-1.47-13.53-1.46-27.39-3.26-40.53-6.87-6.87-1.9-13.93-4.74-21.32-4.44a1.24 1.24 0 01-.86-.3l-2.5-2.16-.96-2.54q7.32-2.18 13.8-.11 20.7 6.64 42.35 9.16c8.4.98 15.89 1.98 24.24 4.89q10.51 3.66 21.32 6.3 8.41 2.06 14.65 7.97a.61.6-40.9 00.77.05c7.64-5.4 17.51-13.49 26.37-13.64 11.98-.21 22.89 1.1 35.46-1.86zM464.31 361.64l1.19 3.57-1.4 1.03a1.49 1.44 26.4 01-.91.29q-12.1-.41-19.87.83c-7.68 1.22-11.62 3.62-17.76 5.98-2.32.9-4.04 2.85-6.81 3.37l.71-2.21.04.52a.48.48 0 00.58.44c1.39-.3.59-3.7.3-4.56a.77.77 0 01.2-.81c4.48-4.27 15.41-7.31 19.99-8.27q9.93-2.08 23.74-.18z"/><path fill="#fff" d="M231.5 363.29l2.5 2.16a1.24 1.24 0 00.86.3c7.39-.3 14.45 2.54 21.32 4.44 13.14 3.61 27 5.41 40.53 6.87 1.92.21 5.13.78 7.04 1.47q13.11 4.73 26.75 7.7c4.48.97 9.73 4.69 13.73 8.2 7.04 6.19 13.12 12.2 21.75 17.52 2.52 1.54 5.18 1.42 8.02 1.77a.7.7 0 01.6.54c.67 3.08 1.91 4.86 5.13 5.79q8.54 2.49 18.95 4.24c9.25 1.56 20.99 17.04 25.6 24.67q.95 1.57 3.67 3.56a.74.71 18.8 01.3.58v.36c-42.88 6.16-85.8 13.33-127.75 24.29-8.65 2.25-17.21 4.63-25.84 6.99a.48.48 0 01-.59-.36q-4.79-22.23-13.28-45.18-15.66-42.3-29.29-75.91zm143.342 54.487a4.88 4.65-12.1 00-5.747-3.524 4.88 4.65-12.1 00-3.797 5.57 4.88 4.65-12.1 005.747 3.524 4.88 4.65-12.1 003.797-5.57zM312.52 434.83c-5.56-3.7-12.28-7.1-17.22-11.46-.76-.67-4.26-4.22-5.19-3.1a.55.55 0 00.08.78q3.51 2.82 5.51 6.87a.77.76-37.5 01-.12.85c-1.79 2.02-.51 3.51 1.42 4.69q5.35 3.25 10.61 6.74a.38.38 0 01-.01.64l-16.93 10.58a1.5 1.5 0 00-.22 2.38l12.8 11.73a.32.32 0 00.48-.06l11.38-17.11a.66.66 0 01.89-.2l.5.3 14.85 10.04a.71.71 0 00.77.02q4.78-2.94 8.13-7.42a.55.55 0 00-.17-.81l-16.84-9.5a.34.34 0 01-.06-.55l11.9-10.64a.45.44 46.2 00.01-.66l-10.63-10.24a.44.43 42.8 00-.63.02q-6.1 6.97-10.09 15.23-.21.43-1.22.88zm48.14-7.39a4.52 4.52 0 00-4.52-4.52 4.52 4.52 0 00-4.52 4.52 4.52 4.52 0 004.52 4.52 4.52 4.52 0 004.52-4.52zm-12.16 7.858a4.99 4.73-9.6 00-5.709-3.832 4.99 4.73-9.6 00-4.131 5.496 4.99 4.73-9.6 005.709 3.832 4.99 4.73-9.6 004.131-5.496z"/><path fill="#fff" d="M465.5 365.21c10.99 26.75 21.3 54.21 28.25 82.32a.79.78 82.7 01-.75.98q-29.25.36-58.2 4.17c-1.33-2.09-3.19-3.51-4.34-5.28q-9.23-14.24-20.56-24.3c-5.68-5.05-15.76-5.62-23.22-7.07-2-.39-3.29 0-5.14.57a1.59 1.52 46.1 01-1-.04q-2.25-.9-3.2-3.2a1.87 1.85 6.2 00-.66-.81c-10.55-7.2-18.6-11.98-24.03-18.82a.61.6 51.3 01.09-.86c5.97-4.74 15.03-11.74 22.83-11.72q9.96.03 19.93.13 5.09.05 18.88-2.49 2.52-.34 4.37-2.08c2.77-.52 4.49-2.47 6.81-3.37 6.14-2.36 10.08-4.76 17.76-5.98q7.77-1.24 19.87-.83a1.49 1.44 26.4 00.91-.29l1.4-1.03zm-61.682 27.537a5.04 4.65 107.1 005.926-3.45 5.04 4.65 107.1 00-2.962-6.184 5.04 4.65 107.1 00-5.926 3.45 5.04 4.65 107.1 002.962 6.184zM427.45 413.7l5.37-1.6a.72.71-9.5 00.51-.71q-.31-9.86-2.91-19.39a.43.43 0 00-.49-.32q-5.73 1-11.16 3.09a.58.58 0 00-.33.74q3.62 9.22 8.36 17.93a.56.56 0 00.65.26zm-35.786-9.292a5.06 4.6 118 006.438-2.308 5.06 4.6 118 00-1.686-6.628 5.06 4.6 118 00-6.438 2.308 5.06 4.6 118 001.686 6.628zm-3.634 5.922a5.2 5.2 0 00-5.2-5.2 5.2 5.2 0 00-5.2 5.2 5.2 5.2 0 005.2 5.2 5.2 5.2 0 005.2-5.2zm50.053 12.254a3.25 3.25 0 00-3.642-2.804l-1.825.237a3.25 3.25 0 00-2.804 3.641l.345 2.658a3.25 3.25 0 003.642 2.804l1.825-.237a3.25 3.25 0 002.804-3.641l-.345-2.658z"/><path fill="#222120" d="M419.46 374.5l-.71 2.21q-1.85 1.74-4.37 2.08-4.87-1.5-4.88-5.28c.16-7.58 11.54-7.12 9.96.99zm-2.355-1.025a1.42.6 71.3 00.113-1.537 1.42.6 71.3 00-1.023-1.153 1.42.6 71.3 00-.113 1.537 1.42.6 71.3 001.023 1.153z"/><ellipse fill="#fdfcde" transform="rotate(71.3 -51.09 476.514)" rx="1.42" ry=".6"/><ellipse fill="#222120" transform="rotate(107.1 59.385 343.645)" rx="5.04" ry="4.65"/><path d="M427.45 413.7a.56.56 0 01-.65-.26q-4.74-8.71-8.36-17.93a.58.58 0 01.33-.74q5.43-2.09 11.16-3.09a.43.43 0 01.49.32q2.6 9.53 2.91 19.39a.72.71-9.5 01-.51.71l-5.37 1.6zm4.63-3.07l-2.21-16.28q-.29-2.08-2.26-1.35l-6.95 2.59a.51.51 0 00-.27.73c2.82 5.04 4.71 10.4 7.24 15.57a.64.64 0 00.75.33l3.32-1a.55.54-12.7 00.38-.59z"/><path fill="#222120" d="M432.08 410.63a.55.54-12.7 01-.38.59l-3.32 1a.64.64 0 01-.75-.33c-2.53-5.17-4.42-10.53-7.24-15.57a.51.51 0 01.27-.73l6.95-2.59q1.97-.73 2.26 1.35l2.21 16.28z"/><ellipse fill="#222120" transform="rotate(118 76.866 318.352)" rx="5.06" ry="4.6"/><circle fill="#222120" cx="382.83" cy="410.33" r="5.2"/><ellipse fill="#222120" transform="rotate(-12.1 2160.756 -1536.434)" rx="4.88" ry="4.65"/><path d="M316.5 448.46c2.41-1.78 11.53 6.69 15.25 7.89a1.26 1.25 40.7 00.95-.07q3.31-1.64 5.3-4.76a.62.62 0 00-.21-.87l-15.46-9.07a1.31 1.3-54.4 01-.32-1.98c3.15-3.62 7.18-5.76 10.19-9.44a1.55 1.53 42 00-.12-2.07l-6.06-5.97a1.95 1.95 0 00-2.94.23c-2.65 3.58-6.49 8.05-8.21 12.05q-.88 2.04-2.35.43 1.01-.45 1.22-.88 3.99-8.26 10.09-15.23a.44.43 42.8 01.63-.02l10.63 10.24a.45.44 46.2 01-.01.66l-11.9 10.64a.34.34 0 00.06.55l16.84 9.5a.55.55 0 01.17.81q-3.35 4.48-8.13 7.42a.71.71 0 01-.77-.02l-14.85-10.04z"/><path fill="#222120" d="M312.52 434.83q1.47 1.61 2.35-.43c1.72-4 5.56-8.47 8.21-12.05a1.95 1.95 0 012.94-.23l6.06 5.97a1.55 1.53 42 01.12 2.07c-3.01 3.68-7.04 5.82-10.19 9.44a1.31 1.3-54.4 00.32 1.98l15.46 9.07a.62.62 0 01.21.87q-1.99 3.12-5.3 4.76a1.26 1.25 40.7 01-.95.07c-3.72-1.2-12.84-9.67-15.25-7.89l-.5-.3a.66.66 0 00-.89.2l-11.38 17.11a.32.32 0 01-.48.06l-12.8-11.73a1.5 1.5 0 01.22-2.38l16.93-10.58a.38.38 0 00.01-.64q-5.26-3.49-10.61-6.74c-1.93-1.18-3.21-2.67-1.42-4.69a.77.76-37.5 00.12-.85q-2-4.05-5.51-6.87a.55.55 0 01-.08-.78c.93-1.12 4.43 2.43 5.19 3.1 4.94 4.36 11.66 7.76 17.22 11.46z"/><path d="M438.428 425.242a3.25 3.25 0 01-2.805 3.641l-1.824.237a3.25 3.25 0 01-3.642-2.804l-.345-2.658a3.25 3.25 0 012.804-3.641l1.825-.237a3.25 3.25 0 013.642 2.804l.345 2.658zm-2.243 1.042a3.02 2.5 46.6 00-.259-3.912 3.02 2.5 46.6 00-3.891-.476 3.02 2.5 46.6 00.259 3.912 3.02 2.5 46.6 003.891.476z"/><ellipse fill="#222120" transform="rotate(46.6 -275.308 716.041)" rx="3.02" ry="2.5"/><circle fill="#222120" cx="356.14" cy="427.44" r="4.52"/><path fill="#222120" d="M225 516.54l.1 5.24a.58.58 0 00.55.57q1.97.11 3.85-.64 19.23-4.69 38.75-7.95c1.71-.28 16.84-2.12 17.19-1.67a.63.63 0 01-.34 1c-11.67 2.83-23.24 6.39-34.56 9.21q-11.36 2.83-22.59 6.16-3.29.97-6.2 2.75-1.11.62-2.3.63a.49.49 0 01-.49-.51l.25-5.08c-.79-11.89-3.03-23.59-4.85-35.36-2.18-14.04-3.39-30.45-7.94-45.76-2.26-7.63-3.46-14.66-5.12-22.11a.03.02-7 01.03-.03l.25.02a.25.13 74.5 01.15.16c4.17 10.56 8.11 20.82 10.79 32.06q7.11 29.73 9.48 44.27 2.14 13.12 3 17.04z"/><path d="M348.5 435.298a4.99 4.73-9.6 01-4.131 5.496 4.99 4.73-9.6 01-5.71-3.832 4.99 4.73-9.6 014.132-5.496 4.99 4.73-9.6 015.71 3.832zm-2.02.285a3.03 2.66-8.1 00-3.375-2.207 3.03 2.66-8.1 00-2.625 3.06 3.03 2.66-8.1 003.375 2.208 3.03 2.66-8.1 002.625-3.06z"/><ellipse fill="#222120" transform="rotate(-8.1 3250.742 -2207.571)" rx="3.03" ry="2.66"/><path fill="#959798" d="M215.25 540.96q.69-2.42 2.19-3.77 3.08-2.78 4.31-5.98 2.91-1.78 6.2-2.75 11.23-3.33 22.59-6.16c11.32-2.82 22.89-6.38 34.56-9.21a.63.63 0 00.34-1c-.35-.45-15.48 1.39-17.19 1.67q-19.52 3.26-38.75 7.95l7.28-9.28a.44.43 33.8 00-.13-.64q-.16-.09-.4-.08 1.75-.67 3.57-1.1c52.91-12.4 106.68-22.68 160.65-29.09q28.11-3.34 55.84-3.68 1-.01.34.74l-21.66 24.76a1.59 1.58 14.5 01-.84.49c-2.38.51-5.37.41-7.1.53q-27.13 1.92-46.37 4.78c-12.44 1.85-25.36 3.32-35.55 4.94q-53.28 8.42-77.14 13.63c-21.5 4.69-35.74 7.73-52.74 13.25z"/><path fill="#fff" d="M4.29 495.75L7 497.88a1.15 1.13 17.8 01.44.83c.66 9.61.77 17.26 1.23 28.88q.34 8.6-.53 18.1c-.45 5.03.62 10.82.64 15.42q.06 12.56.72 25.1l-4.68-.02a.51.51 0 01-.51-.51l-.02-89.93zM233.46 501.5q1.03 4.83 1.54 9.75.09.83 1.25.46.24-.01.4.08a.44.43 33.8 01.13.64l-7.28 9.28q-1.88.75-3.85.64a.58.58 0 01-.55-.57l-.1-5.24c4.37-3.44 9.41-10.09 7.43-16.47a.25.25 0 01.25-.33l.28.01a.25.24-87.8 01.24.27q-.05.77.26 1.48zM219.21 526.25l-.25 5.08a.49.49 0 00.49.51q1.19-.01 2.3-.63-1.23 3.2-4.31 5.98-1.5 1.35-2.19 3.77l-3.49 1.76a.43.42-21 01-.6-.26q-.71-2.43-.32-4.93l7.73-11.09a.48.47 17.8 01.38-.19h.26zM590.29 589.75l.71.31v.94h-1.06l-.19-.71.54-.54z"/><path fill="#222120" d="M0 589.94l.25.1c-.15.47-.01.72.5.7q7.85-.17 15.69.26H0v-1.06z"/><path fill="#fdfcde" d="M.25 590.04q3.46.13 6.94.13 291.28.1 582.56.12l.19.71h-12.75q-3.75-.63-7.5 0H31.19q-4.75-.63-9.5 0h-5.25q-7.84-.43-15.69-.26c-.51.02-.65-.23-.5-.7z"/><path fill="#959798" d="M31.19 591h-9.5q4.75-.63 9.5 0zM577.19 591h-7.5q3.75-.63 7.5 0z"/></svg>