<svg xmlns="http://www.w3.org/2000/svg" viewBox="0 0 591 591"><g stroke-width="2" fill="none"><path stroke="#cbcccd" vector-effect="non-scaling-stroke" d="M591 2.56q-.28-2.76-.76-1.81"/><path stroke="#4b4c4d" vector-effect="non-scaling-stroke" d="M590.24.75q-1.72.05-2.74.05Q293.75.97 0 .94"/><path stroke="gray" vector-effect="non-scaling-stroke" d="M0 589.94q4 .19 8 .19 290.84.12 581.58.12a.68.67 90 00.67-.68L590.24.75"/><path stroke="#7e7f70" vector-effect="non-scaling-stroke" d="M585.5 5.52a.26.26 0 00-.26-.26H5.5a.26.26 0 00-.26.26v579.72a.26.26 0 00.26.26h579.74a.26.26 0 00.26-.26V5.52"/><path stroke="#fbf2c5" vector-effect="non-scaling-stroke" d="M42.71 19.04c-11.47.12-19.55 5.01-21.55 16.62q-.24 1.37-.42 9.21-.47 20.78-.69 40.61-.02 1.87 1.41.67 6.15-5.15 10.93-9.76 26.36-25.43 52.65-50.95c1.24-1.2 2.39-2.82 3.4-4.16a1.27 1.26 19 00-.99-2.02q-22.46-.44-44.74-.22"/><path stroke="#7e7f70" vector-effect="non-scaling-stroke" d="M191.04 316.25c.03 17.03-1.34 34.06-.97 51.05"/><path stroke="#909081" vector-effect="non-scaling-stroke" d="M190.07 367.3q-.17 9.57-.46 19.19c-1 33.16-.65 66.37-1.53 99.53-.29 11.09-.24 27.18-1.08 40.78a.92.91-17.3 01-.37.69q-11.66 8.4-24.14 15.54a1.83 1.81-58.9 01-.99.25l-13.24-.5"/><path stroke="#7e7f70" vector-effect="non-scaling-stroke" d="M148.26 542.78q-.49-.21-.97.02a.81.8-13 00-.44.7l-.39 26.06a.44.44 0 00.42.45l4.87.2"/><path stroke="#909081" vector-effect="non-scaling-stroke" d="M151.75 570.21c18.71 1.44 38.63.83 51.43 1.16q19.73.52 31.06.4"/><path stroke="#c9cbbd" vector-effect="non-scaling-stroke" d="M234.24 571.77q5.61.69 11.26.19"/><path stroke="#909081" vector-effect="non-scaling-stroke" d="M245.5 571.96q6.16.76 12.51.49a.45.45 0 00.44-.45l.16-26.47a.62.62 0 00-.57-.63l-3.2-.22a1.71 1.68 65.3 01-.87-.33L231.29 527"/><path stroke="#7e7f70" vector-effect="non-scaling-stroke" d="M231.29 527l-5.07-3.97a1.06 1.04 18.6 01-.41-.81q-.31-13.5.22-26.98c.64-16.15-.03-31.87.42-47.81q.5-18.09.76-36.18"/><path stroke="#909081" vector-effect="non-scaling-stroke" d="M227.21 411.25q.72-10.44.74-14.75.16-30.97 1.18-61.92c.4-12.09.24-25.53.66-38.33"/><path stroke="#c9cbbd" vector-effect="non-scaling-stroke" d="M229.79 296.25q.75-8.86.42-17.75"/><path stroke="#909081" vector-effect="non-scaling-stroke" d="M230.21 278.5c-.45-2.24 1.95-1.29 3.15-1.66a.75.75 0 00.53-.7l.16-9.98a.65.65 0 00-.65-.66h-3.35a.69.69 0 01-.66-.49l-2.69-8.67a.72.71 65.8 01.31-.83q3.21-1.97 1.5-5.69a1.25 1.23-6.2 00-.87-.69l-3.17-.65a.56.55 4.8 01-.44-.51l-.12-2.19a.56.56 0 00-.56-.53h-3.04a.34.34 0 01-.32-.46q2.53-6.54 4.98-13.12c.54-1.45 1.44-1.89 2.87-2.08a1.28 1.26 16.2 00.82-.44q3.61-4.19 4.4-7.12 3.34-12.37 8.58-24.44a.41.4 28.7 01.61-.17q10.97 7.55 24.59 12.92c25.24 9.97 51.13 16.41 77.86 18.51q27.6 2.15 55.25.75c6.74-.34 14.08-1.53 21.09-2.33 24.29-2.78 49.73-7.59 72.59-16.55a.5.5 0 01.68.43q.64 10.26 2.22 20.54c1.2 7.79 3.83 15.89 5.93 23.84 2.49 9.4 1.69 19.31.86 29.04q-.24 2.87-2.46 4.44a1.49 1.48 81.1 00-.56.77c-1.58 4.86.56 9.76 2.76 14.08a2.12 2.12 0 01-1.79 3.08q-22.62 1.02-40.43 15.62c-2.74 2.25-5.8 5.6-8.79 8.28a1.31 1.3-64.7 01-.88.32c-7.47-.2-11.15 6.95-7.99 13.33a1.05 1.04 44.7 01.01.92q-4.11 8.75-4.75 12.34-2.79 15.65-.55 28.58c1.9 10.92 6.58 19.37 12.58 28.47a.56.55-36.2 01-.12.74q-24.77 19.98-49.26 40.31c-12.89 10.71-24.28 24.16-22.45 42.16 3.5 34.42 47.2 48.61 69.01 20.89q9.32-11.83 14.62-27.44 9.23-27.19 19.72-54.01a.93.92 20.7 011.18-.53q9.17 3.29 18.82 3.26 29.25-.11 49.51-20.66a1.09 1.07 24.5 01.85-.31q9.17.84 10.54-8.08a1.72 1.71-53.2 00-.13-.94c-.84-1.87-1.1-3.54-.13-5.55 7.94-16.42 10.01-36.01 3.88-53.39-8.36-23.7-30.58-41.62-55.62-43.87a2.05 2.05 0 01-1.5-3.22c3.77-5.43 5.86-12.49.34-17.66a1.03 1.02-67.3 01-.32-.79l.98-26.51a1.66 1.58-28.5 01.28-.87q1.33-1.95 1.56-3.08 3.68-18.31 3.98-41c.06-4.72 2.72-9.06 3.63-13.58q.58-2.92 1.15-5.85a1.47 1.47 0 00-.12-.94q-1.56-3.2-4.05-5.7a1.41 1.4-21.8 00-.97-.41l-6.73-.07a.88.87-14.4 01-.77-.45q-1.4-2.51-3.27-4.67c-5.63-6.47-10.86-13.29-16.32-19.93a1.07 1.05 69.6 00-.81-.38c-22.95.12-46.41-.76-68.91-1.02q-4.03-.05-7.93-1.09c-41.32-11.07-74.33-19.82-123.46-34.63-16.75-5.05-33.85-11.01-50.91-16.16-4.38-1.32-8.52-.75-13.06-1.04a.57.56 86.1 01-.53-.47l-.82-4.52a1.08 1.07 4.1 00-.73-.84q-2.26-.72-4.4.22a1.3 1.28-5.5 00-.72.86l-1 4.12a.71.7 6.7 01-.69.54l-9.3.11a.42.42 0 00-.42.41l-.31 13.19a.61.61 0 01-.51.59q-2.14.37-6.73 1.54-52.79 13.45-106.03 29.97a.79.79 0 01-1.02-.81l.31-3.89a.45.45 0 00-.43-.48l-24.37-.96a1.32 1.26-18.5 01-.89-.42l-2.77-3.05a1.04 1.04 0 00-.94-.33q-3.07.5-4.48 3.26a.76.74-77.5 01-.63.41l-3.36.21a.65.65 0 00-.61.65l-.04 20.03a.73.73 0 01-1.01.68l-4.8-1.96a.77.77 0 00-.96.32q-1.68 2.86.68 5.62 11.37 13.34 20.93 22.63a1.55 1.53-18.7 00.86.42c7.62 1.11 16.5.36 24.27.39a.52.51 0 01.52.51l.01 3.46a1.62 1.57-64.9 00.34.99q3.2 4.05 7.12 7.41a1.78 1.72 64.5 001.09.41l25.38.28a.55.54 1.6 00.56-.52l.65-16.45a.48.48 0 01.49-.47l62.89 1.22a.51.51 0 01.5.49q.59 14.21-.55 28.4-.08.98.39 2.47a1.51 1.5 9.2 00.55.76c5.46 4.03 7.19 12.05 8.99 18.41a1.25 1.24 70 01-.68 1.47l-5.53 2.55a1.52 1.5-.7 00-.75.76q-1.34 3.16.7 5.72a1.62 1.61 37.2 01.23 1.63l-3.21 7.71a.75.75 0 01-.63.47l-3.76.4a.67.66 88.5 00-.59.63l-.45 9.6a.56.56 0 00.51.59l4.2.4a.56.55-86.7 01.5.57l-.66 39.61"/><path stroke="#5d5e5e" vector-effect="non-scaling-stroke" d="M230.21 278.5q-1.29 8.85-.42 17.75"/><path stroke="#121211" vector-effect="non-scaling-stroke" d="M227.21 411.25q-.62-.41-1.19-.26a.65.64-9.4 00-.48.66q.36 7.3-.24 18.85c-.67 12.79.06 31.55-.97 48.24-.56 9.01-.36 17.52-.68 27.09q-.19 5.48-.11 12.73c.07 5.45 1.98 6.12 5.72 9.32a.85.84 54 00.86.14q.72-.28 1.17-1.02"/><path stroke="#5d5e5e" vector-effect="non-scaling-stroke" d="M245.5 571.96q-5.6-.79-11.26-.19"/><path stroke="#121211" vector-effect="non-scaling-stroke" d="M151.75 570.21q-.75-1.65-2.88-1.91a.56.56 0 01-.49-.56l-.12-24.96M190.07 367.3q1.7-.48 1.48-3.05c-.58-6.89.18-15.64.25-21.33.1-7.4-.58-18.8 1.16-27.56.13-.61-.04-.99-.66-1.09a.51.51 0 00-.59.43q-.14.88-.67 1.55"/><path stroke="#fdfeef" vector-effect="non-scaling-stroke" d="M435.93 348.67q-1.2 1.27-1.73 3a.48.48 0 00.86.41q.93-1.37 1.51-3.01.62-1.74-.64-.4M25.01 355.79q-1.39 2.54.4.32a.23.13-55.1 00.03-.3l-.27-.09a.14.14 0 00-.16.07"/><path stroke="#909081" vector-effect="non-scaling-stroke" d="M234.93 123.66l-8.3.13q-2.22.04-1.64 2.18 2.41 8.87 3.94 16.99 3.5 18.56 7.72 37.43a1.07 1.07 0 001.63.66q9.53-6.29 19.61-12.2c4.42-2.6 12.46-9.46 17.8-9.52 37.83-.42 75.7 1.1 113.53 1.47q.53 0 .15-.37c-1.05-1.05-3.35-.92-4.28-1.16q-70.56-18.03-139.62-41.19-4.43-1.49-9.12-2.83a.49.48 8.9 00-.62.45l-.21 7.38a.6.59 0 01-.59.58M144.76 158.05c19.11.22 38.04.67 56.86.4a.83.83 0 00.77-.56l10.45-31.75q.3-.91-.55-.46-32.97 17.52-67.77 31.05-3.31 1.28.24 1.32M98.06 157.32q16.22-.12 31.44-.06c3.31.01 8-2.64 10.2-3.5q29.32-11.38 57.92-24.5.57-.26.02-.55c-.47-.25-22.24 6.18-23.11 6.41q-33.18 8.58-65.96 18.63c-2.58.79-7.19 1.69-10.56 3.35a.12.11-58.4 00.05.22"/><path stroke="#929191" vector-effect="non-scaling-stroke" d="M216.52 139.81l4.55 2.42q.54.29.3-.28-1.7-4.03-1.61-8.45a.71.7-34.6 00-1.37-.25l-2.12 5.92a.52.52 0 00.25.64M217.39 146.91a.33.33 0 00.04-.55l-2.6-1.91a.33.33 0 00-.51.21l-.68 3.65a.33.33 0 00.48.36l3.27-1.76M222.44 150.29a.35.35 0 00-.54-.23l-7.46 4.88a.35.35 0 000 .58l9.51 6.4a.35.35 0 00.54-.36l-2.05-11.27"/><path stroke="#5d5e5e" vector-effect="non-scaling-stroke" d="M79.681 156.308a.7.7 0 00-.695-.705l-18.12-.126a.7.7 0 00-.705.695l-.022 3.24a.7.7 0 00.695.705l18.12.126a.7.7 0 00.705-.695l.022-3.24"/><path stroke="#909081" vector-effect="non-scaling-stroke" d="M223.34 168.55c-1.42-2-10.43-6.86-12.87-8.33a.77.77 0 00-1.14.45l-5.65 20.38q-.5 1.82 1.09.8l18.27-11.74a1.1 1.09 56 00.3-1.56"/><path stroke="#929191" vector-effect="non-scaling-stroke" d="M90.73 162.73a.44.44 0 00-.44.41l-.24 4.26a.53.53 0 00.54.56q3.51-.05 6.93.7c1.85.4 2.81-.63 4.11-1q6.52-1.86 13.03-4.14a.39.39 0 00-.13-.76l-23.8-.03"/><path stroke="#5d5e5e" vector-effect="non-scaling-stroke" d="M122 168.79q11.37 1.49 23.15.54"/><path stroke="#909081" vector-effect="non-scaling-stroke" d="M145.15 169.33q1.86-2.26 1.18-5.3a.67.66 83.8 00-.63-.51c-3.94-.03-24.24-1.52-24.99 3.97q-.18 1.3 1.29 1.3"/><path stroke="#c9cbbd" vector-effect="non-scaling-stroke" d="M145.15 169.33l-4.5-.39q-.35-.03-.02-.13l.33-.11q.27-.09-.02-.08l-18.94.17"/><path stroke="#909081" vector-effect="non-scaling-stroke" d="M176.49 164.36a.27.27 0 00-.267-.273l-25.618-.313a.27.27 0 00-.273.266l-.062 5a.27.27 0 00.267.273l25.618.313a.27.27 0 00.274-.266l.06-5M182.41 169.9c5.3.34 10.7.52 15.99.29a.56.54-83.8 00.52-.43l1.13-4.89a.51.51 0 00-.5-.62h-17.02a.67.66 0 00-.67.66l-.01 4.39a.6.6 0 00.56.6"/><path stroke="#929191" vector-effect="non-scaling-stroke" d="M262.3 180.86c4.81-4.1 8.97-9.05 13.16-13.86a.42.41 5.3 00-.53-.63c-7.98 4.59-15.71 9.65-23.77 14.2q-.64.37.1.38l10.25.19a1.18 1.17 25.2 00.79-.28M297.77 178.63c3.71-2.91 7.26-6.97 10.46-10.32a.65.65 0 00-.46-1.1l-19.31-.31q-.44-.01-.17.34l8.7 11.29a.56.56 0 00.78.1"/><path stroke="#5d5e5e" vector-effect="non-scaling-stroke" d="M113.2 168.16l2.4.93a.48.48 0 00.66-.48l-.03-.66a.56.55-6.6 00-.65-.51l-2.35.38a.18.17 50.7 00-.03.34"/><path stroke="#909081" vector-effect="non-scaling-stroke" d="M331.13 179.65c3.53-3.08 7.96-7.55 10.17-11.7a.34.33 14.1 00-.3-.49l-19.28.06q-.81 0-.32.64l8.73 11.39a.69.68 50.5 001 .1M364.81 179.56q5.89-4.64 9.96-11.1a.21.21 0 00-.16-.32q-10.17-.89-20.35-.42-.63.02-.23.51l9.74 11.76a.58.58 0 00.81.08q.21-.16.23-.51M408.47 169.8a.59.59 0 00-.42-.99l-19.69-.55a.59.59 0 00-.47.97l9.53 11.51a.59.59 0 00.89.03l10.16-10.97M430.77 181.4c4.01-1.63 8.75-8.59 11.37-11.74q.35-.42-.19-.43l-20.77-.31a.37.37 0 00-.3.6l9.29 11.73a.52.51-30.5 00.6.15M476.28 170.56a.34.34 0 00-.24-.56l-20.96-.81a.34.34 0 00-.28.55l10 12.9a.34.34 0 00.52.02l10.96-12.1M271.54 180.87a.33.33 0 00.23.56l19.55.47a.33.33 0 00.26-.54l-9.51-11.28a.33.33 0 00-.49-.01l-10.04 10.8M472.68 184.14a.3.3 0 00.23.5l25.49.18a.3.3 0 00.23-.5l-12.64-14.63a.3.3 0 00-.46 0l-12.85 14.45M314.99 170.38a.34.34 0 00-.52-.02l-9.69 10.93a.34.34 0 00.25.57l18.58.25a.34.34 0 00.27-.55l-8.89-11.18M347.1 171.62l-9.17 10.29q-.27.29.13.3l18.26.18q.73 0 .33-.6-3.64-5.5-8.27-10.2a.89.88-46.1 00-1.28.03M371.69 181.65a.49.49 0 00.33.83l18.01.85a.49.49 0 00.41-.79l-8.52-10.79a.49.49 0 00-.73-.03l-9.5 9.93M405.07 182.84a.33.33 0 00.25.54l17.89.25a.33.33 0 00.27-.53l-8.8-11.23a.33.33 0 00-.51-.01l-9.1 10.98M438.63 183.01a.39.39 0 00.28.65l18.18.19a.39.39 0 00.3-.64l-8.98-10.33a.39.39 0 00-.59-.01l-9.19 10.14"/><path stroke="#929191" vector-effect="non-scaling-stroke" d="M77.8 173.25h-2.69a.49.49 0 00-.45.68q1.49 3.57 4.32 6.17a.45.45 0 00.74-.22q.77-3.24-.97-6.1a1.12 1.12 0 00-.95-.53"/><path stroke="#909081" vector-effect="non-scaling-stroke" d="M115.64 173.77c-6.12 0-14.61-1.21-20.3.64a.9.9 0 00-.61.71l-.62 3.88a.6.59 5.5 00.57.69l20.9.34a.67.67 0 00.68-.67l-.01-4.98a.62.61.5 00-.61-.61M146.327 175.039a.27.27 0 00-.26-.28l-24.8-.953a.27.27 0 00-.28.26l-.214 5.555a.27.27 0 00.26.28l24.8.953a.27.27 0 00.28-.26l.214-5.555M176.54 174.995a.26.26 0 00-.256-.264l-25.877-.361a.26.26 0 00-.264.256l-.084 6a.26.26 0 00.257.263l25.877.361a.26.26 0 00.264-.256l.084-6M197.05 175.3c-4.91-.21-9.77-.66-14.71-.67a.59.59 0 00-.59.59v5.77a.48.47 88.9 00.49.48l13.46-.32a.67.66 5 00.63-.52l1.12-4.81a.43.42 7.8 00-.4-.52M226.63 175.18l-16.49 10.51q-.88.56.17.56h18.89a.87.87 0 00.81-1.17q-1.73-4.5-2.14-9.29a.81.81 0 00-1.24-.61"/><path stroke="#5d5e5e" vector-effect="non-scaling-stroke" d="M160.71 184.33q.98.77 1.75-.19a.57.57 0 00-.51-.92l-.96.12a.56.56 0 00-.28.99"/><path stroke="#929191" vector-effect="non-scaling-stroke" d="M88.42 187.43l-2.48-3.61q-.56-.83-.62.17l-.22 4.36a.74.73 1.1 00.75.77l3.47-.04q.65-.01.3-.57-.2-.31-.5-.46-.43-.22-.7-.62"/><path stroke="#5d5e5e" vector-effect="non-scaling-stroke" d="M115.047 192.779a.27.27 0 00-.265-.275l-14.897-.286a.27.27 0 00-.275.264l-.117 6.06a.27.27 0 00.265.274l14.897.286a.27.27 0 00.275-.264l.117-6.06M223.96 210.78l.4-15.83a.78.77-86.9 00-.71-.8l-1.47-.14a.66.65-86.2 00-.71.63l-.52 16.21a.57.56-89.4 01-.55.55l-8.76.14a.55.55 0 01-.56-.55c.02-6.15 1.35-11.73.59-16.41a.75.75 0 00-.72-.64l-9.57-.26a1.52 1.52 0 00-1.56 1.5l-.3 24.79a.5.5 0 00.47.51q10.97.66 21.94.35c4.14-.12 4.92-5.15 6.07-8.27a.76.75 12.3 00-.65-1.01l-2.9-.23a.53.53 0 01-.49-.54"/><path stroke="#909081" vector-effect="non-scaling-stroke" d="M251.41 194.7c-.97-.01-2.26-.37-3.38-.3q-.52.04-.11.35 5.76 4.33 9.39 5.96c27.34 12.26 57.02 20.5 86.91 22.93 45.86 3.72 90.73-.93 135.26-13.44q2.71-.76 9.99-3.35a.46.45-24.1 00.25-.64q-1.88-3.41-2.79-7.21a.8.8 0 00-.75-.6c-78.25-1.53-156.51-2.78-234.77-3.7M509.4 240.06q1.34-12.6 1.61-25.26a1.73 1.72 1.2 00-1.7-1.76l-9.2-.14a.47.47 0 00-.48.49q.6 13.48 3.94 26.56a1.15 1.14 80.6 001.19.86l4.18-.3a.51.5-88.5 00.46-.45M217.1 229.17c-4.5-.59-9.51-.53-14.11-.57q-.51 0-.21.41l7.13 9.73a.43.43 0 00.7 0l6.72-9.05a.33.32 21.7 00-.23-.52"/><path stroke="#929191" vector-effect="non-scaling-stroke" d="M204.1 264.68l.51.26a.54.54 0 00.78-.48q-.01-3.18-2.15-5.4a.61.6-46.9 00-.89.03q-1.79 2.07-2.58 4.71a.54.54 0 00.52.7h3.05q.4 0 .76.18"/><path stroke="#909081" vector-effect="non-scaling-stroke" d="M201.06 287.7l15.43-10.51a.2.2 0 00-.1-.37l-16.67-.24a.46.45.6 00-.47.45v11.9q0 1.1.63.19l.54-.78q.26-.38.64-.64M205.82 290.06a.39.39 0 00.23.71l16.57-.23a.39.39 0 00.39-.4l-.03-11.47a.39.39 0 00-.61-.32l-16.55 11.71M206.22 296.85a.33.33 0 00-.2.6l15.42 10.95a.33.33 0 00.52-.25l.37-10.75a.33.33 0 00-.33-.34l-15.78-.21M198.84 311.96c5.45-.86 12.49.2 18.12-.02a.37.36-26.5 00.22-.65q-8.49-6.73-17.95-12.03a.31.31 0 00-.46.26l-.49 11.95a.49.48-3.5 00.56.49"/><path stroke="#5d5e5e" vector-effect="non-scaling-stroke" d="M460.29 415.25q.5 1.47-.29 2.71"/><path stroke="#929191" vector-effect="non-scaling-stroke" d="M460 417.96c-3.95 3.15-8.48 5.93-12.13 8.97q-24.27 20.21-48.7 40.24-3.07 2.52-6.92 7.87"/><path stroke="#121211" vector-effect="non-scaling-stroke" d="M392.25 475.04l-.35-.63a.61.6 65.7 00-.73-.28c-2.79 1.03-5.56 12.02-6.04 14.89-2.13 12.75 2.47 25.5 13.37 32.72q1.41.95 2.25-.7"/><path stroke="#5d5e5e" vector-effect="non-scaling-stroke" d="M400.75 521.04c7.35 3.18 14.67 5.57 20.96 4.12 14.51-3.37 24.27-12.77 29.33-26.61 5.97-16.31 12.52-32.27 17.97-48.8.89-2.69 2.36-5.19 3.11-7.76q2.01-6.93 4.42-13.84a.46.46 0 01.62-.27c11.4 5.02 28.88 7.25 41.09 3.45 28.76-8.94 44.82-28.29 45.56-59.15q.22-9.39-2.67-16.46"/><path stroke="#929191" vector-effect="non-scaling-stroke" d="M561.14 355.72c-8.13-23.29-25.71-38.66-50.58-41.43q-1.12-.12-.66.91 1.13 2.56 1.39 5.8"/><path stroke="#5d5e5e" vector-effect="non-scaling-stroke" d="M511.29 321l.14 1.61a.69.68 2.2 00.57.61c15.52 2.61 30.78 12.48 37.46 27.28"/><path stroke="#929191" vector-effect="non-scaling-stroke" d="M549.46 350.5c1.54 4 3.62 7.98 4.53 11.9 2.99 12.8.74 24.07-4.8 35.51-11.34 23.43-38.84 32.33-62.91 24.96-15.69-4.81-26.55-17.42-32.32-32.37"/><path stroke="#5d5e5e" vector-effect="non-scaling-stroke" d="M453.96 390.5q-.27-1.88-1.46-5.75c-5.39-17.59 5.56-40.17 18.8-51.21q6.04-5.04 15.68-8.3c3.69-1.25 8.24-1.67 12.41-2.87a.75.74 85.2 00.52-.62l.5-4.03"/><path stroke="#929191" vector-effect="non-scaling-stroke" d="M500.41 317.72q.52-1.4.4-3.59a.5.5 0 00-.53-.47c-24.21 1.52-46.94 17.81-53.97 41.27-6.44 21.47-2.29 44.13 13.98 60.32"/><path stroke="#cbcccd" vector-effect="non-scaling-stroke" d="M500.41 317.72c-23.29 1.85-40.39 14.26-48.92 36.02-1.41 3.6-1.69 7.5-2.4 11.42-1.16 6.35.19 12.44 1.48 18.58q.8 3.82 3.39 6.76M549.46 350.5c-.54-10.39-8.95-18.89-17.05-24.79-5.91-4.31-12.44-6.07-19.59-7.73a.65.64.6 00-.78.76q.28 1.33-.75 2.26M561.14 355.72q1.89 18-3.81 35.7c-1.6 4.97-4.99 10.21-6.75 13.46q-6.44 11.84-19.06 17.63-10.77 4.95-18.78 6.21c-9.11 1.44-18.81-.03-28.91-1.8a1.38 1.3-13.5 01-.77-.44c-.61-.71-5.43-2.19-6.65-2.63-4.9-1.77-11.82-8.1-16.12-8.6"/><path stroke="#4b4c4d" vector-effect="non-scaling-stroke" d="M400.75 521.04q-.94-.65-1.45-1.56"/><path stroke="#cbcccd" vector-effect="non-scaling-stroke" d="M399.3 519.48l-1.14-4.11a1.27 1.25 52 01.11-.95q1.2-2.12 3.48-2.96"/><path stroke="#5d5e5e" vector-effect="non-scaling-stroke" d="M401.75 511.46l2.86 2.48"/><path stroke="#cbcccd" vector-effect="non-scaling-stroke" d="M404.61 513.94q.81 3.16-.4 5.1a1.1 1.1 0 00.74 1.66q2.74.48 3.65-2.03a.69.69 0 01.7-.45l2.81.19a.63.63 0 01.59.7c-.32 2.85 1.91 3.83 4.24 2.87a1.28 1.27 1.2 00.67-.64l1.6-3.34"/><path stroke="#5d5e5e" vector-effect="non-scaling-stroke" d="M419.21 518l3.04-.71"/><path stroke="#cbcccd" vector-effect="non-scaling-stroke" d="M422.25 517.29q-.24 1.84.99 3.4a.77.75 62.3 00.8.26c17.33-5.11 21.14-17.93 26.35-33.7q2.59-7.82 5.92-15.66 7.85-18.44 14.81-37.26 1.36-3.67 1.92-7.67a.84.82-72 00-.41-.83l-4.2-2.4a.61.61 0 00-.82.21q-.25.39-.29.98"/><path stroke="#5d5e5e" vector-effect="non-scaling-stroke" d="M467.32 424.62q-30.53 24.52-60.39 49.82-6.52 5.52-8.66 9.26-4.5 7.83-3.11 17.97"/><path stroke="#cbcccd" vector-effect="non-scaling-stroke" d="M395.16 501.67q-6.03-9.52-2.31-19.77.89-2.47 3.2-4.59c21.8-20.07 45.64-37.3 68.8-55.27a.48.47 50.2 00.06-.69q-2.05-2.23-4.91-3.39"/><path stroke="#929191" vector-effect="non-scaling-stroke" d="M395.16 501.67l6.59 9.79"/><path stroke="gray" vector-effect="non-scaling-stroke" d="M399.3 519.48c-6.07-3.68-10-10.76-12-17.39-2.68-8.84.33-19.27 4.95-27.05"/><path stroke="#929191" vector-effect="non-scaling-stroke" d="M419.21 518q-7.7.13-14.6-4.06M422.25 517.29q11.74-2.76 16.21-14.56c9.92-26.18 19.76-51.94 28.86-78.11"/><path stroke="#909081" vector-effect="non-scaling-stroke" d="M215.24 318.33l-16.16-.17a.53.52-88.3 00-.53.51l-.36 12.29q-.02.65.5.25 7.2-5.53 14.95-10.28 1.24-.75 2.01-1.76a.52.52 0 00-.41-.84M203.81 332.91a.32.32 0 00.17.58l17.38.57a.32.32 0 00.33-.31l.42-12.89a.32.32 0 00-.5-.28l-17.8 12.33M492.28 333.37c4.19-.83 11.81-.08 15.41 1.95q9.01 5.07 12.35 15.25a.66.65-9.9 00.65.45q16.23-.63 22.98 13.73c4.63 9.84 2.84 17.52-1.44 27.43-.43.98-.05 1.77 1.03 1.82a.84.84 0 00.77-.41c4.32-7.26 5.37-16.06 4.6-24.31-1-10.71-6.94-20.74-14.2-28.3q-3.89-4.05-9.67-6.77c-3.96-1.86-11.9-5.58-15.65-2.79a.92.92 0 01-.94.1l-2.62-1.16a.58.57-58.1 00-.68.16l-1.06 1.31a1.1 1.08 20.1 01-.89.4q-2.82-.13-4.36-2.32a1.62 1.61-24.1 00-1.71-.65c-8.77 2.12-20.52 7.19-26.36 14.31a.81.8-43.8 00-.03.99l.78 1.04a.52.51-46.5 00.84-.03c4.03-5.99 13.16-10.81 20.2-12.2"/><path stroke="#5d5e5e" vector-effect="non-scaling-stroke" d="M444.9 336.74c.58.06 1.78.88 2.43 1.12a.83.83 0 00.9-.2q1.57-1.67.98-3.99a.67.66-15.3 00-.83-.47q-2.61.75-3.58 3.37a.12.12 0 00.1.17"/><path stroke="#909081" vector-effect="non-scaling-stroke" d="M204.14 340.09l16.44 11.15a.4.39-71.4 00.61-.31l.48-10.32a.55.55 0 00-.55-.58l-16.94-.1a.09.08 60.9 00-.04.16"/><path stroke="#121211" vector-effect="non-scaling-stroke" d="M483.29 346.7q-.71-.97-2.01.85c-2.74 3.86-1.48 21.07-.44 25.62 1.76 7.63 6.12 15.93 12.99 20.22a.78.76-45.7 00.86-.02q.46-.31.56-.83"/><path stroke="#5d5e5e" vector-effect="non-scaling-stroke" d="M495.25 392.54c14.07 2.95 23.38-.87 36.37-4.92a.45.45 0 01.44.75q-8.9 8.54-20.82 11.71-.95.25.03.19c6.56-.41 19.8-4.2 23.53-10.46q7.17-12.02 1.28-24.19"/><path stroke="#929191" vector-effect="non-scaling-stroke" d="M536.08 365.62c-4.2-6.87-12.34-8.27-19.75-6.78a1.67 1.66 79.7 01-1.97-1.37c-.89-5.47-3.89-12.21-9.14-14.96q-11.83-6.21-21.93 4.19"/><path stroke="#cbcccd" vector-effect="non-scaling-stroke" d="M536.08 365.62q-1.53.65-2.2-.91a1.27 1.27 0 00-.67-.67q-11.36-4.86-23.05-.87a.36.36 0 01-.47-.39c1.74-14.52-11.56-27-24.99-15.8a1.37 1.33 75.1 00-.46.82q-.88 5.55-3.09 10.79"/><path stroke="gray" vector-effect="non-scaling-stroke" d="M481.15 358.59q-.84-6.35 2.14-11.89"/><path stroke="#4b4c4d" vector-effect="non-scaling-stroke" d="M495.25 392.54q-3.28-1.53-5.3-4.51-9.13-13.43-8.8-29.44"/><path stroke="#5d5e5e" vector-effect="non-scaling-stroke" d="M197.99 343.71q-1.02 4.35-.28 8.79"/><path stroke="#909081" vector-effect="non-scaling-stroke" d="M197.71 352.5l.13 1.77a.66.65-.5 00.62.6l18.24.71q.61.03.19-.41c-4.7-4.86-12.02-8.89-17.68-12.74a.68.67 40.1 00-.84.07q-.36.35-.38 1.21"/><path stroke="#c9cbbd" vector-effect="non-scaling-stroke" d="M197.71 352.5l.28-8.79"/><path stroke="#121211" vector-effect="non-scaling-stroke" d="M464.54 380.5q.66.05 1.19-.38a.93.93 0 00.34-.85q-1.54-11.63 1.16-23.03a1.13 1.13 0 00-.18-.9q-.5-.7-1.08-.48"/><path stroke="#929191" vector-effect="non-scaling-stroke" d="M465.97 354.86q-1.38-1.4-2.63-1.03a1.05 1.03 1.6 00-.67.62q-11.18 29.85 8.47 51.56c9.66 10.68 24.65 14.18 38.67 12.65 7.51-.82 23.33-8.03 27.24-14.46a.94.92 44.4 00-.02-1l-.64-.96a.58.57 53.6 00-.83-.13q-15.2 12.22-33.99 11.1c-4.67-.28-22.2-2.39-25.11-7.43-5.7-9.86-10.19-16.07-11.92-25.28"/><path stroke="gray" vector-effect="non-scaling-stroke" d="M465.97 354.86q-4.22 12.59-1.43 25.64"/><path stroke="#909081" vector-effect="non-scaling-stroke" d="M198.81 374.06q7.67-6.47 16.32-11.74.72-.44-.12-.48l-16.95-.87a.36.35 1.5 00-.38.35l.04 13.17a.32.32 0 00.43.3q.6-.21.66-.73M220.71 376.51c.07-4.25.55-8.45.55-12.65a.41.41 0 00-.67-.32q-8.3 6.67-17.43 12.16a.7.7 0 00.37 1.3h16.69a.49.49 0 00.49-.49M206.25 382.71l-3.1.07a.34.34 0 00-.17.63q7.17 4.41 14.06 9.12c.85.58 1.51 1.71 2.71 2.07a.44.44 0 00.57-.41l.24-9.85a.88.87-74.6 00-.45-.8q-1.05-.59-2.36-.33"/><path stroke="#5d5e5e" vector-effect="non-scaling-stroke" d="M217.75 383.21q-5.72-.83-11.5-.5"/><path stroke="#c9cbbd" vector-effect="non-scaling-stroke" d="M217.75 383.21l-9.52.22q-.49.02-.92-.2l-1.06-.52"/><path stroke="#909081" vector-effect="non-scaling-stroke" d="M196.65 397.87a.33.33 0 00.32.34l19.24.39a.33.33 0 00.19-.6l-18.88-12.99a.33.33 0 00-.52.27l-.35 12.59M214.19 404.8l-16.98-.07a.56.55-89 00-.56.55l-.2 12.41a.35.35 0 00.57.27c5.61-4.78 11.59-8.14 17.39-12.51a.36.36 0 00-.22-.65"/><path stroke="#5d5e5e" vector-effect="non-scaling-stroke" d="M220.04 417.5q.94-2.94.17-6"/><path stroke="#909081" vector-effect="non-scaling-stroke" d="M220.21 411.5l.01-4.07a.38.37-17.2 00-.59-.31l-17.87 12.39a.41.41 0 00.22.74l17.02.41a.7.68-79.3 00.66-.46q.46-1.27.38-2.7"/><path stroke="#c9cbbd" vector-effect="non-scaling-stroke" d="M220.21 411.5q-.66 2.98-.17 6"/><path stroke="#5d5e5e" vector-effect="non-scaling-stroke" d="M560.55 412.27a1.54 1.54 0 00-1.54-1.54 1.54 1.54 0 00-1.54 1.54 1.54 1.54 0 001.54 1.54 1.54 1.54 0 001.54-1.54M452.97 412.02q.1-1.37-.8-.23a.21.21 0 00.06.31l.27.16a.31.31 0 00.47-.24"/><path stroke="#909081" vector-effect="non-scaling-stroke" d="M202.1 426.9q8.68 4.94 16.69 10.94.74.55.76-.37l.28-10.36a.66.66 0 00-.65-.67c-5.49-.09-11.66-.76-17.05.27a.1.1 0 00-.03.19M196.59 441.85c5.9-1.15 12.86.56 19.02.26a.34.33 60.7 00.17-.61l-17.95-12.33q-1.88-1.29-1.86.99l.09 11.25a.45.45 0 00.53.44M213.46 448.25l-16.88-.27a.51.5-88.9 00-.51.5l-.25 10.56q-.06 2.65 1.99.97 7.31-6 15.08-10.41.8-.45.93-.84a.39.39 0 00-.36-.51M219.21 450.1c-6.4 4.89-14.15 8.92-19.35 14.51q-.36.39.17.39h18.23a.54.54 0 00.54-.51l.69-14.25a.17.17 0 00-.28-.14M201.79 471.61l15.06 9.89q2.16 1.42 2.09-1.16l-.21-8.58a.45.45 0 00-.47-.44q-8.08.38-16.15-.58a.48.48 0 00-.32.87M207.86 486.97q3.36-.8 6.81-.51a.28.28 0 00.18-.51l-18.89-12.61a.6.57-32 00-.45-.09l-.26.04"/><path stroke="#121211" vector-effect="non-scaling-stroke" d="M195.25 473.29l-1.33.23a.54.53 83.9 00-.44.55l.46 12.49a1.48 1.48 0 001.34 1.43q6.08.55 12.58-1.02"/><path stroke="#7e7f70" vector-effect="non-scaling-stroke" d="M195.25 473.29l.02 12.88a.48.47 86.7 00.52.47q5.9-.59 12.07.33"/><path stroke="#909081" vector-effect="non-scaling-stroke" d="M212 493h-16.75a.5.5 0 00-.5.5l.01 11.95a.31.31 0 00.49.26c4.24-2.87 7.92-6.06 12.52-8.69q2.48-1.42 4.46-3.47.52-.55-.23-.55M202.02 508.46c5.09.41 10.64.75 15.76.44a.59.59 0 00.56-.58l.22-12.66q.01-.67-.54-.29l-16.49 11.23a1.02 1.02 0 00.49 1.86M201.44 515.31q7.78 5.62 15.56 10.44a.61.6-73.4 00.92-.5l.24-9.1a.95.95 0 00-1.01-.97q-7.95.44-15.83-.6a.3.3 0 00-.33.4q.11.33.45.33"/><path stroke="#929191" vector-effect="non-scaling-stroke" d="M194.31 523.67a1.04 1.04 0 00.47.89l8.51 5.54a1.04 1.04 0 00.57.17l7.4-.06a1.04 1.04 0 00.58-1.9l-15.81-10.7a1.04 1.04 0 00-1.62.84l-.1 5.22"/><path stroke="#909081" vector-effect="non-scaling-stroke" d="M240.57 544.42q.19.12.42.09.51-.08.16-.45c-4.15-4.53-10.43-8.29-15.15-12.56a.28.27 21.1 00-.46.2l-.13 11.62a.49.48-89.4 00.47.49l14.13.45q.3.01.56.16"/><path stroke="#929191" vector-effect="non-scaling-stroke" d="M175.74 543c2.83.25 7.95.85 10.58.52a.67.66-3.8 00.59-.67l-.07-6.43q-.01-.6-.53-.28l-10.64 6.57q-.41.25.07.29M198.94 537.23a.44.44 0 00-.15-.83l-3.65-.39a.44.44 0 00-.49.43l-.05 2.19a.44.44 0 00.64.4l3.7-1.8M214.15 537.5a.34.34 0 00-.18.63l3.51 2.13a.34.34 0 00.52-.31l-.1-2.14a.34.34 0 00-.34-.32l-3.41.01M202.57 542.53a.31.31 0 00.12.58l5.65.53a.31.31 0 00.23-.54l-2.63-2.3a.31.31 0 00-.36-.03l-3.01 1.76"/><path stroke="#5d5e5e" vector-effect="non-scaling-stroke" d="M239.1 552.252a.27.27 0 00-.264-.275l-84.408-1.473a.27.27 0 00-.274.265l-.095 5.42a.27.27 0 00.265.274l84.408 1.473a.27.27 0 00.274-.265l.095-5.42M185.71 564.5c2.29 3.36 4.78-.54 6.27.65a1.41 1.37-24.7 00.88.31c1.97-.02 11.39.59 12.38-.3a.7.69-52.6 01.79-.11c1.18.59 4.09 1.32 4.63-.38q.18-.56.51-.07l.27.41a.63.62 73.8 00.5.28l24.95.72a.9.89 14.6 00.83-.48l1.01-1.88a.43.43 0 00-.34-.63l-9.95-.79q-.52-.04-.98.18-.78.37-1.17-.43a.67.66-20.5 00-.78-.35l-3.8 1.03a.54.54 0 01-.46-.08l-.51-.39a1.51 1.5-27.3 00-.92-.29l-13.57.14"/><path stroke="#929191" vector-effect="non-scaling-stroke" d="M206.25 562.04l-4.75-.25"/><path stroke="#5d5e5e" vector-effect="non-scaling-stroke" d="M201.5 561.79l-8.97-.01a.27.27 0 01-.25-.17l-.12-.34a.36.36 0 00-.52-.19q-2.13 1.22-4.64.46M187 561.54l-30.35-.54a1.35 1.34 67.1 01-.9-.37q-.49-.45-1.01-.24a.96.95-7.5 00-.57.73l-.45 3.04a.37.37 0 00.35.43q15.82.46 31.64-.09"/><path stroke="#96989a" vector-effect="non-scaling-stroke" d="M187 561.54q-1.23 1.35-1.29 2.96"/><path stroke="#cbcccd" vector-effect="non-scaling-stroke" d="M201.5 561.79q-1.05 1.18-.33 2.58a.45.45 0 00.7.14l1.55-1.37a.79.78 49.3 011.12.09l.58.7a.52.51 46.1 00.77.02q.68-.74.36-1.91M501.472 357.78a6.45 4.66 52.1 00-.285-7.953 6.45 4.66 52.1 00-7.64-2.227 6.45 4.66 52.1 00.286 7.953 6.45 4.66 52.1 007.64 2.227M493.21 365.753a2.24 2.24 0 00-.782-3.07l-.79-.47a2.24 2.24 0 00-3.07.783l-.399.67a2.24 2.24 0 00.783 3.07l.79.47a2.24 2.24 0 003.07-.782l.399-.67M391.24 505.3l2.12-2.3a.71.71 0 00.08-.84q-1.54-2.59-4.58-1.75a.67.67 0 00-.45.88l1.38 3.72a.87.86 56.2 001.45.29M392.72 507.7c-1.23 2.84.74 5.94 3.9 3.51a1.96 1.95-35 00.46-2.59q-1.3-2.04-3.71-1.46a.96.95 5.1 00-.65.54"/><path stroke="#909081" vector-effect="non-scaling-stroke" d="M404.43 501.25c6.91 12.92 21.75 9.86 27.18-1.96q3.56-7.76 6.77-16.74c4.28-11.97 8.52-22.41 12.2-33.75a.33.32 79.9 00-.51-.36q-19.22 15.63-38.02 31.61c-6.41 5.45-12.25 12.54-7.62 21.2"/><path stroke="#cbcccd" vector-effect="non-scaling-stroke" d="M192.45 564.14q1.43-.02 1.55-1.53a.54.53 10.4 00-.39-.56q-1.6-.43-1.94 1.14a.78.78 0 00.78.95"/></g><path fill="#96989a" d="M0 0h591v2.56q-.28-2.76-.76-1.81-1.72.05-2.74.05Q293.75.97 0 .94V0z"/><path fill="#fff" d="M591 2.56V591H0v-1.06q4 .19 8 .19 290.84.12 581.58.12a.68.67 90 00.67-.68L590.24.75q.48-.95.76 1.81z"/><path d="M590.24.75l.01 588.82a.68.67-90 01-.67.68q-290.74 0-581.58-.12-4 0-8-.19V.94Q293.75.97 587.5.8q1.02 0 2.74-.05zm-4.74 4.77a.26.26 0 00-.26-.26H5.5a.26.26 0 00-.26.26v579.72a.26.26 0 00.26.26h579.74a.26.26 0 00.26-.26V5.52z"/><path fill="#fbfddf" d="M585.5 585.24a.26.26 0 01-.26.26H5.5a.26.26 0 01-.26-.26V5.52a.26.26 0 01.26-.26h579.74a.26.26 0 01.26.26v579.72zM42.71 19.04c-11.47.12-19.55 5.01-21.55 16.62q-.24 1.37-.42 9.21-.47 20.78-.69 40.61-.02 1.87 1.41.67 6.15-5.15 10.93-9.76 26.36-25.43 52.65-50.95c1.24-1.2 2.39-2.82 3.4-4.16a1.27 1.26 19 00-.99-2.02q-22.46-.44-44.74-.22zm148.33 297.21c.03 17.03-1.34 34.06-.97 51.05q-.17 9.57-.46 19.19c-1 33.16-.65 66.37-1.53 99.53-.29 11.09-.24 27.18-1.08 40.78a.92.91-17.3 01-.37.69q-11.66 8.4-24.14 15.54a1.83 1.81-58.9 01-.99.25l-13.24-.5q-.49-.21-.97.02a.81.8-13 00-.44.7l-.39 26.06a.44.44 0 00.42.45l4.87.2c18.71 1.44 38.63.83 51.43 1.16q19.73.52 31.06.4 5.61.69 11.26.19 6.16.76 12.51.49a.45.45 0 00.44-.45l.16-26.47a.62.62 0 00-.57-.63l-3.2-.22a1.71 1.68 65.3 01-.87-.33L231.29 527l-5.07-3.97a1.06 1.04 18.6 01-.41-.81q-.31-13.5.22-26.98c.64-16.15-.03-31.87.42-47.81q.5-18.09.76-36.18.72-10.44.74-14.75.16-30.97 1.18-61.92c.4-12.09.24-25.53.66-38.33q.75-8.86.42-17.75c-.45-2.24 1.95-1.29 3.15-1.66a.75.75 0 00.53-.7l.16-9.98a.65.65 0 00-.65-.66h-3.35a.69.69 0 01-.66-.49l-2.69-8.67a.72.71 65.8 01.31-.83q3.21-1.97 1.5-5.69a1.25 1.23-6.2 00-.87-.69l-3.17-.65a.56.55 4.8 01-.44-.51l-.12-2.19a.56.56 0 00-.56-.53h-3.04a.34.34 0 01-.32-.46q2.53-6.54 4.98-13.12c.54-1.45 1.44-1.89 2.87-2.08a1.28 1.26 16.2 00.82-.44q3.61-4.19 4.4-7.12 3.34-12.37 8.58-24.44a.41.4 28.7 01.61-.17q10.97 7.55 24.59 12.92c25.24 9.97 51.13 16.41 77.86 18.51q27.6 2.15 55.25.75c6.74-.34 14.08-1.53 21.09-2.33 24.29-2.78 49.73-7.59 72.59-16.55a.5.5 0 01.68.43q.64 10.26 2.22 20.54c1.2 7.79 3.83 15.89 5.93 23.84 2.49 9.4 1.69 19.31.86 29.04q-.24 2.87-2.46 4.44a1.49 1.48 81.1 00-.56.77c-1.58 4.86.56 9.76 2.76 14.08a2.12 2.12 0 01-1.79 3.08q-22.62 1.02-40.43 15.62c-2.74 2.25-5.8 5.6-8.79 8.28a1.31 1.3-64.7 01-.88.32c-7.47-.2-11.15 6.95-7.99 13.33a1.05 1.04 44.7 01.01.92q-4.11 8.75-4.75 12.34-2.79 15.65-.55 28.58c1.9 10.92 6.58 19.37 12.58 28.47a.56.55-36.2 01-.12.74q-24.77 19.98-49.26 40.31c-12.89 10.71-24.28 24.16-22.45 42.16 3.5 34.42 47.2 48.61 69.01 20.89q9.32-11.83 14.62-27.44 9.23-27.19 19.72-54.01a.93.92 20.7 011.18-.53q9.17 3.29 18.82 3.26 29.25-.11 49.51-20.66a1.09 1.07 24.5 01.85-.31q9.17.84 10.54-8.08a1.72 1.71-53.2 00-.13-.94c-.84-1.87-1.1-3.54-.13-5.55 7.94-16.42 10.01-36.01 3.88-53.39-8.36-23.7-30.58-41.62-55.62-43.87a2.05 2.05 0 01-1.5-3.22c3.77-5.43 5.86-12.49.34-17.66a1.03 1.02-67.3 01-.32-.79l.98-26.51a1.66 1.58-28.5 01.28-.87q1.33-1.95 1.56-3.08 3.68-18.31 3.98-41c.06-4.72 2.72-9.06 3.63-13.58q.58-2.92 1.15-5.85a1.47 1.47 0 00-.12-.94q-1.56-3.2-4.05-5.7a1.41 1.4-21.8 00-.97-.41l-6.73-.07a.88.87-14.4 01-.77-.45q-1.4-2.51-3.27-4.67c-5.63-6.47-10.86-13.29-16.32-19.93a1.07 1.05 69.6 00-.81-.38c-22.95.12-46.41-.76-68.91-1.02q-4.03-.05-7.93-1.09c-41.32-11.07-74.33-19.82-123.46-34.63-16.75-5.05-33.85-11.01-50.91-16.16-4.38-1.32-8.52-.75-13.06-1.04a.57.56 86.1 01-.53-.47l-.82-4.52a1.08 1.07 4.1 00-.73-.84q-2.26-.72-4.4.22a1.3 1.28-5.5 00-.72.86l-1 4.12a.71.7 6.7 01-.69.54l-9.3.11a.42.42 0 00-.42.41l-.31 13.19a.61.61 0 01-.51.59q-2.14.37-6.73 1.54-52.79 13.45-106.03 29.97a.79.79 0 01-1.02-.81l.31-3.89a.45.45 0 00-.43-.48l-24.37-.96a1.32 1.26-18.5 01-.89-.42l-2.77-3.05a1.04 1.04 0 00-.94-.33q-3.07.5-4.48 3.26a.76.74-77.5 01-.63.41l-3.36.21a.65.65 0 00-.61.65l-.04 20.03a.73.73 0 01-1.01.68l-4.8-1.96a.77.77 0 00-.96.32q-1.68 2.86.68 5.62 11.37 13.34 20.93 22.63a1.55 1.53-18.7 00.86.42c7.62 1.11 16.5.36 24.27.39a.52.51 0 01.52.51l.01 3.46a1.62 1.57-64.9 00.34.99q3.2 4.05 7.12 7.41a1.78 1.72 64.5 001.09.41l25.38.28a.55.54 1.6 00.56-.52l.65-16.45a.48.48 0 01.49-.47l62.89 1.22a.51.51 0 01.5.49q.59 14.21-.55 28.4-.08.98.39 2.47a1.51 1.5 9.2 00.55.76c5.46 4.03 7.19 12.05 8.99 18.41a1.25 1.24 70 01-.68 1.47l-5.53 2.55a1.52 1.5-.7 00-.75.76q-1.34 3.16.7 5.72a1.62 1.61 37.2 01.23 1.63l-3.21 7.71a.75.75 0 01-.63.47l-3.76.4a.67.66 88.5 00-.59.63l-.45 9.6a.56.56 0 00.51.59l4.2.4a.56.55-86.7 01.5.57l-.66 39.61zm244.89 32.42q-1.2 1.27-1.73 3a.48.48 0 00.86.41q.93-1.37 1.51-3.01.62-1.74-.64-.4zm-410.92 7.12q-1.39 2.54.4.32a.23.13-55.1 00.03-.3l-.27-.09a.14.14 0 00-.16.07z"/><path fill="#fae6aa" d="M21.16 35.66c2-11.61 10.08-16.5 21.55-16.62q22.28-.22 44.74.22a1.27 1.26 19 01.99 2.02c-1.01 1.34-2.16 2.96-3.4 4.16Q58.75 50.96 32.39 76.39 27.61 81 21.46 86.15q-1.43 1.2-1.41-.67.22-19.83.69-40.61.18-7.84.42-9.21z"/><path fill="#242322" d="M230.21 278.5q-1.29 8.85-.42 17.75c-.42 12.8-.26 26.24-.66 38.33q-1.02 30.95-1.18 61.92-.02 4.31-.74 14.75-.62-.41-1.19-.26a.65.64-9.4 00-.48.66q.36 7.3-.24 18.85c-.67 12.79.06 31.55-.97 48.24-.56 9.01-.36 17.52-.68 27.09q-.19 5.48-.11 12.73c.07 5.45 1.98 6.12 5.72 9.32a.85.84 54 00.86.14q.72-.28 1.17-1.02l22.68 17.35a1.71 1.68 65.3 00.87.33l3.2.22a.62.62 0 01.57.63l-.16 26.47a.45.45 0 01-.44.45q-6.35.27-12.51-.49-5.6-.79-11.26-.19-11.33.12-31.06-.4c-12.8-.33-32.72.28-51.43-1.16q-.75-1.65-2.88-1.91a.56.56 0 01-.49-.56l-.12-24.96 13.24.5a1.83 1.81-58.9 00.99-.25q12.48-7.14 24.14-15.54a.92.91-17.3 00.37-.69c.84-13.6.79-29.69 1.08-40.78.88-33.16.53-66.37 1.53-99.53q.29-9.62.46-19.19 1.7-.48 1.48-3.05c-.58-6.89.18-15.64.25-21.33.1-7.4-.58-18.8 1.16-27.56.13-.61-.04-.99-.66-1.09a.51.51 0 00-.59.43q-.14.88-.67 1.55l.66-39.61a.56.55-86.7 00-.5-.57l-4.2-.4a.56.56 0 01-.51-.59l.45-9.6a.67.66 88.5 01.59-.63l3.76-.4a.75.75 0 00.63-.47l3.21-7.71a1.62 1.61 37.2 00-.23-1.63q-2.04-2.56-.7-5.72a1.52 1.5-.7 01.75-.76l5.53-2.55a1.25 1.24 70 00.68-1.47c-1.8-6.36-3.53-14.38-8.99-18.41a1.51 1.5 9.2 01-.55-.76q-.47-1.49-.39-2.47 1.14-14.19.55-28.4a.51.51 0 00-.5-.49l-62.89-1.22a.48.48 0 00-.49.47l-.65 16.45a.55.54 1.6 01-.56.52l-25.38-.28a1.78 1.72 64.5 01-1.09-.41q-3.92-3.36-7.12-7.41a1.62 1.57-64.9 01-.34-.99l-.01-3.46a.52.51 0 00-.52-.51c-7.77-.03-16.65.72-24.27-.39a1.55 1.53-18.7 01-.86-.42q-9.56-9.29-20.93-22.63-2.36-2.76-.68-5.62a.77.77 0 01.96-.32l4.8 1.96a.73.73 0 001.01-.68l.04-20.03a.65.65 0 01.61-.65l3.36-.21a.76.74-77.5 00.63-.41q1.41-2.76 4.48-3.26a1.04 1.04 0 01.94.33l2.77 3.05a1.32 1.26-18.5 00.89.42l24.37.96a.45.45 0 01.43.48l-.31 3.89a.79.79 0 001.02.81q53.24-16.52 106.03-29.97 4.59-1.17 6.73-1.54a.61.61 0 00.51-.59l.31-13.19a.42.42 0 01.42-.41l9.3-.11a.71.7 6.7 00.69-.54l1-4.12a1.3 1.28-5.5 01.72-.86q2.14-.94 4.4-.22a1.08 1.07 4.1 01.73.84l.82 4.52a.57.56 86.1 00.53.47c4.54.29 8.68-.28 13.06 1.04 17.06 5.15 34.16 11.11 50.91 16.16 49.13 14.81 82.14 23.56 123.46 34.63q3.9 1.04 7.93 1.09c22.5.26 45.96 1.14 68.91 1.02a1.07 1.05 69.6 01.81.38c5.46 6.64 10.69 13.46 16.32 19.93q1.87 2.16 3.27 4.67a.88.87-14.4 00.77.45l6.73.07a1.41 1.4-21.8 01.97.41q2.49 2.5 4.05 5.7a1.47 1.47 0 01.12.94q-.57 2.93-1.15 5.85c-.91 4.52-3.57 8.86-3.63 13.58q-.3 22.69-3.98 41-.23 1.13-1.56 3.08a1.66 1.58-28.5 00-.28.87l-.98 26.51a1.03 1.02-67.3 00.32.79c5.52 5.17 3.43 12.23-.34 17.66a2.05 2.05 0 001.5 3.22c25.04 2.25 47.26 20.17 55.62 43.87 6.13 17.38 4.06 36.97-3.88 53.39-.97 2.01-.71 3.68.13 5.55a1.72 1.71-53.2 01.13.94q-1.37 8.92-10.54 8.08a1.09 1.07 24.5 00-.85.31q-20.26 20.55-49.51 20.66-9.65.03-18.82-3.26a.93.92 20.7 00-1.18.53q-10.49 26.82-19.72 54.01-5.3 15.61-14.62 27.44c-21.81 27.72-65.51 13.53-69.01-20.89-1.83-18 9.56-31.45 22.45-42.16q24.49-20.33 49.26-40.31a.56.55-36.2 00.12-.74c-6-9.1-10.68-17.55-12.58-28.47q-2.24-12.93.55-28.58.64-3.59 4.75-12.34a1.05 1.04 44.7 00-.01-.92c-3.16-6.38.52-13.53 7.99-13.33a1.31 1.3-64.7 00.88-.32c2.99-2.68 6.05-6.03 8.79-8.28q17.81-14.6 40.43-15.62a2.12 2.12 0 001.79-3.08c-2.2-4.32-4.34-9.22-2.76-14.08a1.49 1.48 81.1 01.56-.77q2.22-1.57 2.46-4.44c.83-9.73 1.63-19.64-.86-29.04-2.1-7.95-4.73-16.05-5.93-23.84q-1.58-10.28-2.22-20.54a.5.5 0 00-.68-.43c-22.86 8.96-48.3 13.77-72.59 16.55-7.01.8-14.35 1.99-21.09 2.33q-27.65 1.4-55.25-.75c-26.73-2.1-52.62-8.54-77.86-18.51q-13.62-5.37-24.59-12.92a.41.4 28.7 00-.61.17q-5.24 12.07-8.58 24.44-.79 2.93-4.4 7.12a1.28 1.26 16.2 01-.82.44c-1.43.19-2.33.63-2.87 2.08q-2.45 6.58-4.98 13.12a.34.34 0 00.32.46h3.04a.56.56 0 01.56.53l.12 2.19a.56.55 4.8 00.44.51l3.17.65a1.25 1.23-6.2 01.87.69q1.71 3.72-1.5 5.69a.72.71 65.8 00-.31.83l2.69 8.67a.69.69 0 00.66.49h3.35a.65.65 0 01.65.66l-.16 9.98a.75.75 0 01-.53.7c-1.2.37-3.6-.58-3.15 1.66zm4.72-154.84l-8.3.13q-2.22.04-1.64 2.18 2.41 8.87 3.94 16.99 3.5 18.56 7.72 37.43a1.07 1.07 0 001.63.66q9.53-6.29 19.61-12.2c4.42-2.6 12.46-9.46 17.8-9.52 37.83-.42 75.7 1.1 113.53 1.47q.53 0 .15-.37c-1.05-1.05-3.35-.92-4.28-1.16q-70.56-18.03-139.62-41.19-4.43-1.49-9.12-2.83a.49.48 8.9 00-.62.45l-.21 7.38a.6.59 0 01-.59.58zm-90.17 34.39c19.11.22 38.04.67 56.86.4a.83.83 0 00.77-.56l10.45-31.75q.3-.91-.55-.46-32.97 17.52-67.77 31.05-3.31 1.28.24 1.32zm-46.7-.73q16.22-.12 31.44-.06c3.31.01 8-2.64 10.2-3.5q29.32-11.38 57.92-24.5.57-.26.02-.55c-.47-.25-22.24 6.18-23.11 6.41q-33.18 8.58-65.96 18.63c-2.58.79-7.19 1.69-10.56 3.35a.12.11-58.4 00.05.22zm118.46-17.51l4.55 2.42q.54.29.3-.28-1.7-4.03-1.61-8.45a.71.7-34.6 00-1.37-.25l-2.12 5.92a.52.52 0 00.25.64zm.87 7.1a.33.33 0 00.04-.55l-2.6-1.91a.33.33 0 00-.51.21l-.68 3.65a.33.33 0 00.48.36l3.27-1.76zm5.05 3.38a.35.35 0 00-.54-.23l-7.46 4.88a.35.35 0 000 .58l9.51 6.4a.35.35 0 00.54-.36l-2.05-11.27zm-142.759 6.018a.7.7 0 00-.695-.705l-18.12-.126a.7.7 0 00-.705.695l-.022 3.24a.7.7 0 00.695.705l18.12.126a.7.7 0 00.705-.695l.022-3.24zM223.34 168.55c-1.42-2-10.43-6.86-12.87-8.33a.77.77 0 00-1.14.45l-5.65 20.38q-.5 1.82 1.09.8l18.27-11.74a1.1 1.09 56 00.3-1.56zm-132.61-5.82a.44.44 0 00-.44.41l-.24 4.26a.53.53 0 00.54.56q3.51-.05 6.93.7c1.85.4 2.81-.63 4.11-1q6.52-1.86 13.03-4.14a.39.39 0 00-.13-.76l-23.8-.03zm31.27 6.06q11.37 1.49 23.15.54 1.86-2.26 1.18-5.3a.67.66 83.8 00-.63-.51c-3.94-.03-24.24-1.52-24.99 3.97q-.18 1.3 1.29 1.3zm54.49-4.43a.27.27 0 00-.267-.273l-25.618-.313a.27.27 0 00-.273.266l-.062 5a.27.27 0 00.267.273l25.618.313a.27.27 0 00.274-.266l.06-5zm5.92 5.54c5.3.34 10.7.52 15.99.29a.56.54-83.8 00.52-.43l1.13-4.89a.51.51 0 00-.5-.62h-17.02a.67.66 0 00-.67.66l-.01 4.39a.6.6 0 00.56.6zm79.89 10.96c4.81-4.1 8.97-9.05 13.16-13.86a.42.41 5.3 00-.53-.63c-7.98 4.59-15.71 9.65-23.77 14.2q-.64.37.1.38l10.25.19a1.18 1.17 25.2 00.79-.28zm35.47-2.23c3.71-2.91 7.26-6.97 10.46-10.32a.65.65 0 00-.46-1.1l-19.31-.31q-.44-.01-.17.34l8.7 11.29a.56.56 0 00.78.1zM113.2 168.16l2.4.93a.48.48 0 00.66-.48l-.03-.66a.56.55-6.6 00-.65-.51l-2.35.38a.18.17 50.7 00-.03.34zm217.93 11.49c3.53-3.08 7.96-7.55 10.17-11.7a.34.33 14.1 00-.3-.49l-19.28.06q-.81 0-.32.64l8.73 11.39a.69.68 50.5 001 .1zm33.68-.09q5.89-4.64 9.96-11.1a.21.21 0 00-.16-.32q-10.17-.89-20.35-.42-.63.02-.23.51l9.74 11.76a.58.58 0 00.81.08q.21-.16.23-.51zm43.66-9.76a.59.59 0 00-.42-.99l-19.69-.55a.59.59 0 00-.47.97l9.53 11.51a.59.59 0 00.89.03l10.16-10.97zm22.3 11.6c4.01-1.63 8.75-8.59 11.37-11.74q.35-.42-.19-.43l-20.77-.31a.37.37 0 00-.3.6l9.29 11.73a.52.51-30.5 00.6.15zm45.51-10.84a.34.34 0 00-.24-.56l-20.96-.81a.34.34 0 00-.28.55l10 12.9a.34.34 0 00.52.02l10.96-12.1zm-204.74 10.31a.33.33 0 00.23.56l19.55.47a.33.33 0 00.26-.54l-9.51-11.28a.33.33 0 00-.49-.01l-10.04 10.8zm201.14 3.27a.3.3 0 00.23.5l25.49.18a.3.3 0 00.23-.5l-12.64-14.63a.3.3 0 00-.46 0l-12.85 14.45zm-157.69-13.76a.34.34 0 00-.52-.02l-9.69 10.93a.34.34 0 00.25.57l18.58.25a.34.34 0 00.27-.55l-8.89-11.18zm32.11 1.24l-9.17 10.29q-.27.29.13.3l18.26.18q.73 0 .33-.6-3.64-5.5-8.27-10.2a.89.88-46.1 00-1.28.03zm24.59 10.03a.49.49 0 00.33.83l18.01.85a.49.49 0 00.41-.79l-8.52-10.79a.49.49 0 00-.73-.03l-9.5 9.93zm33.38 1.19a.33.33 0 00.25.54l17.89.25a.33.33 0 00.27-.53l-8.8-11.23a.33.33 0 00-.51-.01l-9.1 10.98zm33.56.17a.39.39 0 00.28.65l18.18.19a.39.39 0 00.3-.64l-8.98-10.33a.39.39 0 00-.59-.01l-9.19 10.14zM77.8 173.25h-2.69a.49.49 0 00-.45.68q1.49 3.57 4.32 6.17a.45.45 0 00.74-.22q.77-3.24-.97-6.1a1.12 1.12 0 00-.95-.53zm37.84.52c-6.12 0-14.61-1.21-20.3.64a.9.9 0 00-.61.71l-.62 3.88a.6.59 5.5 00.57.69l20.9.34a.67.67 0 00.68-.67l-.01-4.98a.62.61.5 00-.61-.61zm30.687 1.269a.27.27 0 00-.26-.28l-24.8-.953a.27.27 0 00-.28.26l-.214 5.555a.27.27 0 00.26.28l24.8.953a.27.27 0 00.28-.26l.214-5.555zm30.214-.044a.26.26 0 00-.257-.264l-25.877-.361a.26.26 0 00-.264.256l-.084 6a.26.26 0 00.257.263l25.877.361a.26.26 0 00.264-.256l.084-6zm20.509.305c-4.91-.21-9.77-.66-14.71-.67a.59.59 0 00-.59.59v5.77a.48.47 88.9 00.49.48l13.46-.32a.67.66 5 00.63-.52l1.12-4.81a.43.42 7.8 00-.4-.52zm29.58-.12l-16.49 10.51q-.88.56.17.56h18.89a.87.87 0 00.81-1.17q-1.73-4.5-2.14-9.29a.81.81 0 00-1.24-.61zm-65.92 9.15q.98.77 1.75-.19a.57.57 0 00-.51-.92l-.96.12a.56.56 0 00-.28.99zm-72.29 3.1l-2.48-3.61q-.56-.83-.62.17l-.22 4.36a.74.73 1.1 00.75.77l3.47-.04q.65-.01.3-.57-.2-.31-.5-.46-.43-.22-.7-.62zm26.627 5.349a.27.27 0 00-.265-.275l-14.897-.286a.27.27 0 00-.275.264l-.117 6.06a.27.27 0 00.265.274l14.897.286a.27.27 0 00.275-.264l.117-6.06zM223.96 210.78l.4-15.83a.78.77-86.9 00-.71-.8l-1.47-.14a.66.65-86.2 00-.71.63l-.52 16.21a.57.56-89.4 01-.55.55l-8.76.14a.55.55 0 01-.56-.55c.02-6.15 1.35-11.73.59-16.41a.75.75 0 00-.72-.64l-9.57-.26a1.52 1.52 0 00-1.56 1.5l-.3 24.79a.5.5 0 00.47.51q10.97.66 21.94.35c4.14-.12 4.92-5.15 6.07-8.27a.76.75 12.3 00-.65-1.01l-2.9-.23a.53.53 0 01-.49-.54zm27.45-16.08c-.97-.01-2.26-.37-3.38-.3q-.52.04-.11.35 5.76 4.33 9.39 5.96c27.34 12.26 57.02 20.5 86.91 22.93 45.86 3.72 90.73-.93 135.26-13.44q2.71-.76 9.99-3.35a.46.45-24.1 00.25-.64q-1.88-3.41-2.79-7.21a.8.8 0 00-.75-.6c-78.25-1.53-156.51-2.78-234.77-3.7zm257.99 45.36q1.34-12.6 1.61-25.26a1.73 1.72 1.2 00-1.7-1.76l-9.2-.14a.47.47 0 00-.48.49q.6 13.48 3.94 26.56a1.15 1.14 80.6 001.19.86l4.18-.3a.51.5-88.5 00.46-.45zm-292.3-10.89c-4.5-.59-9.51-.53-14.11-.57q-.51 0-.21.41l7.13 9.73a.43.43 0 00.7 0l6.72-9.05a.33.32 21.7 00-.23-.52zm-13 35.51l.51.26a.54.54 0 00.78-.48q-.01-3.18-2.15-5.4a.61.6-46.9 00-.89.03q-1.79 2.07-2.58 4.71a.54.54 0 00.52.7h3.05q.4 0 .76.18zm-3.04 23.02l15.43-10.51a.2.2 0 00-.1-.37l-16.67-.24a.46.45.6 00-.47.45v11.9q0 1.1.63.19l.54-.78q.26-.38.64-.64zm4.76 2.36a.39.39 0 00.23.71l16.57-.23a.39.39 0 00.39-.4l-.03-11.47a.39.39 0 00-.61-.32l-16.55 11.71zm.4 6.79a.33.33 0 00-.2.6l15.42 10.95a.33.33 0 00.52-.25l.37-10.75a.33.33 0 00-.33-.34l-15.78-.21zm-7.38 15.11c5.45-.86 12.49.2 18.12-.02a.37.36-26.5 00.22-.65q-8.49-6.73-17.95-12.03a.31.31 0 00-.46.26l-.49 11.95a.49.48-3.5 00.56.49zm261.45 103.29q.5 1.47-.29 2.71c-3.95 3.15-8.48 5.93-12.13 8.97q-24.27 20.21-48.7 40.24-3.07 2.52-6.92 7.87l-.35-.63a.61.6 65.7 00-.73-.28c-2.79 1.03-5.56 12.02-6.04 14.89-2.13 12.75 2.47 25.5 13.37 32.72q1.41.95 2.25-.7c7.35 3.18 14.67 5.57 20.96 4.12 14.51-3.37 24.27-12.77 29.33-26.61 5.97-16.31 12.52-32.27 17.97-48.8.89-2.69 2.36-5.19 3.11-7.76q2.01-6.93 4.42-13.84a.46.46 0 01.62-.27c11.4 5.02 28.88 7.25 41.09 3.45 28.76-8.94 44.82-28.29 45.56-59.15q.22-9.39-2.67-16.46c-8.13-23.29-25.71-38.66-50.58-41.43q-1.12-.12-.66.91 1.13 2.56 1.39 5.8l.14 1.61a.69.68 2.2 00.57.61c15.52 2.61 30.78 12.48 37.46 27.28 1.54 4 3.62 7.98 4.53 11.9 2.99 12.8.74 24.07-4.8 35.51-11.34 23.43-38.84 32.33-62.91 24.96-15.69-4.81-26.55-17.42-32.32-32.37q-.27-1.88-1.46-5.75c-5.39-17.59 5.56-40.17 18.8-51.21q6.04-5.04 15.68-8.3c3.69-1.25 8.24-1.67 12.41-2.87a.75.74 85.2 00.52-.62l.5-4.03q.52-1.4.4-3.59a.5.5 0 00-.53-.47c-24.21 1.52-46.94 17.81-53.97 41.27-6.44 21.47-2.29 44.13 13.98 60.32zm-245.05-96.92l-16.16-.17a.53.52-88.3 00-.53.51l-.36 12.29q-.02.65.5.25 7.2-5.53 14.95-10.28 1.24-.75 2.01-1.76a.52.52 0 00-.41-.84zm-11.43 14.58a.32.32 0 00.17.58l17.38.57a.32.32 0 00.33-.31l.42-12.89a.32.32 0 00-.5-.28l-17.8 12.33zm288.47.46c4.19-.83 11.81-.08 15.41 1.95q9.01 5.07 12.35 15.25a.66.65-9.9 00.65.45q16.23-.63 22.98 13.73c4.63 9.84 2.84 17.52-1.44 27.43-.43.98-.05 1.77 1.03 1.82a.84.84 0 00.77-.41c4.32-7.26 5.37-16.06 4.6-24.31-1-10.71-6.94-20.74-14.2-28.3q-3.89-4.05-9.67-6.77c-3.96-1.86-11.9-5.58-15.65-2.79a.92.92 0 01-.94.1l-2.62-1.16a.58.57-58.1 00-.68.16l-1.06 1.31a1.1 1.08 20.1 01-.89.4q-2.82-.13-4.36-2.32a1.62 1.61-24.1 00-1.71-.65c-8.77 2.12-20.52 7.19-26.36 14.31a.81.8-43.8 00-.03.99l.78 1.04a.52.51-46.5 00.84-.03c4.03-5.99 13.16-10.81 20.2-12.2zm-47.38 3.37c.58.06 1.78.88 2.43 1.12a.83.83 0 00.9-.2q1.57-1.67.98-3.99a.67.66-15.3 00-.83-.47q-2.61.75-3.58 3.37a.12.12 0 00.1.17zm-240.76 3.35l16.44 11.15a.4.39-71.4 00.61-.31l.48-10.32a.55.55 0 00-.55-.58l-16.94-.1a.09.08 60.9 00-.04.16zm279.15 6.61q-.71-.97-2.01.85c-2.74 3.86-1.48 21.07-.44 25.62 1.76 7.63 6.12 15.93 12.99 20.22a.78.76-45.7 00.86-.02q.46-.31.56-.83c14.07 2.95 23.38-.87 36.37-4.92a.45.45 0 01.44.75q-8.9 8.54-20.82 11.71-.95.25.03.19c6.56-.41 19.8-4.2 23.53-10.46q7.17-12.02 1.28-24.19c-4.2-6.87-12.34-8.27-19.75-6.78a1.67 1.66 79.7 01-1.97-1.37c-.89-5.47-3.89-12.21-9.14-14.96q-11.83-6.21-21.93 4.19zm-285.3-2.99q-1.02 4.35-.28 8.79l.13 1.77a.66.65-.5 00.62.6l18.24.71q.61.03.19-.41c-4.7-4.86-12.02-8.89-17.68-12.74a.68.67 40.1 00-.84.07q-.36.35-.38 1.21zm266.55 36.79q.66.05 1.19-.38a.93.93 0 00.34-.85q-1.54-11.63 1.16-23.03a1.13 1.13 0 00-.18-.9q-.5-.7-1.08-.48-1.38-1.4-2.63-1.03a1.05 1.03 1.6 00-.67.62q-11.18 29.85 8.47 51.56c9.66 10.68 24.65 14.18 38.67 12.65 7.51-.82 23.33-8.03 27.24-14.46a.94.92 44.4 00-.02-1l-.64-.96a.58.57 53.6 00-.83-.13q-15.2 12.22-33.99 11.1c-4.67-.28-22.2-2.39-25.11-7.43-5.7-9.86-10.19-16.07-11.92-25.28zm-265.73-6.44q7.67-6.47 16.32-11.74.72-.44-.12-.48l-16.95-.87a.36.35 1.5 00-.38.35l.04 13.17a.32.32 0 00.43.3q.6-.21.66-.73zm21.9 2.45c.07-4.25.55-8.45.55-12.65a.41.41 0 00-.67-.32q-8.3 6.67-17.43 12.16a.7.7 0 00.37 1.3h16.69a.49.49 0 00.49-.49zm-14.46 6.2l-3.1.07a.34.34 0 00-.17.63q7.17 4.41 14.06 9.12c.85.58 1.51 1.71 2.71 2.07a.44.44 0 00.57-.41l.24-9.85a.88.87-74.6 00-.45-.8q-1.05-.59-2.36-.33-5.72-.83-11.5-.5zm-9.6 15.16a.33.33 0 00.32.34l19.24.39a.33.33 0 00.19-.6l-18.88-12.99a.33.33 0 00-.52.27l-.35 12.59zm17.54 6.93l-16.98-.07a.56.55-89 00-.56.55l-.2 12.41a.35.35 0 00.57.27c5.61-4.78 11.59-8.14 17.39-12.51a.36.36 0 00-.22-.65zm5.85 12.7q.94-2.94.17-6l.01-4.07a.38.37-17.2 00-.59-.31l-17.87 12.39a.41.41 0 00.22.74l17.02.41a.7.68-79.3 00.66-.46q.46-1.27.38-2.7zm340.51-5.23a1.54 1.54 0 00-1.54-1.54 1.54 1.54 0 00-1.54 1.54 1.54 1.54 0 001.54 1.54 1.54 1.54 0 001.54-1.54zm-107.58-.25q.1-1.37-.8-.23a.21.21 0 00.06.31l.27.16a.31.31 0 00.47-.24zM202.1 426.9q8.68 4.94 16.69 10.94.74.55.76-.37l.28-10.36a.66.66 0 00-.65-.67c-5.49-.09-11.66-.76-17.05.27a.1.1 0 00-.03.19zm-5.51 14.95c5.9-1.15 12.86.56 19.02.26a.34.33 60.7 00.17-.61l-17.95-12.33q-1.88-1.29-1.86.99l.09 11.25a.45.45 0 00.53.44zm16.87 6.4l-16.88-.27a.51.5-88.9 00-.51.5l-.25 10.56q-.06 2.65 1.99.97 7.31-6 15.08-10.41.8-.45.93-.84a.39.39 0 00-.36-.51zm5.75 1.85c-6.4 4.89-14.15 8.92-19.35 14.51q-.36.39.17.39h18.23a.54.54 0 00.54-.51l.69-14.25a.17.17 0 00-.28-.14zm-17.42 21.51l15.06 9.89q2.16 1.42 2.09-1.16l-.21-8.58a.45.45 0 00-.47-.44q-8.08.38-16.15-.58a.48.48 0 00-.32.87zm6.07 15.36q3.36-.8 6.81-.51a.28.28 0 00.18-.51l-18.89-12.61a.6.57-32 00-.45-.09l-.26.04-1.33.23a.54.53 83.9 00-.44.55l.46 12.49a1.48 1.48 0 001.34 1.43q6.08.55 12.58-1.02zM212 493h-16.75a.5.5 0 00-.5.5l.01 11.95a.31.31 0 00.49.26c4.24-2.87 7.92-6.06 12.52-8.69q2.48-1.42 4.46-3.47.52-.55-.23-.55zm-9.98 15.46c5.09.41 10.64.75 15.76.44a.59.59 0 00.56-.58l.22-12.66q.01-.67-.54-.29l-16.49 11.23a1.02 1.02 0 00.49 1.86zm-.58 6.85q7.78 5.62 15.56 10.44a.61.6-73.4 00.92-.5l.24-9.1a.95.95 0 00-1.01-.97q-7.95.44-15.83-.6a.3.3 0 00-.33.4q.11.33.45.33zm-7.13 8.36a1.04 1.04 0 00.47.89l8.51 5.54a1.04 1.04 0 00.57.17l7.4-.06a1.04 1.04 0 00.58-1.9l-15.81-10.7a1.04 1.04 0 00-1.62.84l-.1 5.22zm46.26 20.75q.19.12.42.09.51-.08.16-.45c-4.15-4.53-10.43-8.29-15.15-12.56a.28.27 21.1 00-.46.2l-.13 11.62a.49.48-89.4 00.47.49l14.13.45q.3.01.56.16zM175.74 543c2.83.25 7.95.85 10.58.52a.67.66-3.8 00.59-.67l-.07-6.43q-.01-.6-.53-.28l-10.64 6.57q-.41.25.07.29zm23.2-5.77a.44.44 0 00-.15-.83l-3.65-.39a.44.44 0 00-.49.43l-.05 2.19a.44.44 0 00.64.4l3.7-1.8zm15.21.27a.34.34 0 00-.18.63l3.51 2.13a.34.34 0 00.52-.31l-.1-2.14a.34.34 0 00-.34-.32l-3.41.01zm-11.58 5.03a.31.31 0 00.12.58l5.65.53a.31.31 0 00.23-.54l-2.63-2.3a.31.31 0 00-.36-.03l-3.01 1.76zm36.53 9.722a.27.27 0 00-.264-.275l-84.408-1.473a.27.27 0 00-.274.265l-.095 5.42a.27.27 0 00.265.274l84.408 1.473a.27.27 0 00.274-.265l.095-5.42zM185.71 564.5c2.29 3.36 4.78-.54 6.27.65a1.41 1.37-24.7 00.88.31c1.97-.02 11.39.59 12.38-.3a.7.69-52.6 01.79-.11c1.18.59 4.09 1.32 4.63-.38q.18-.56.51-.07l.27.41a.63.62 73.8 00.5.28l24.95.72a.9.89 14.6 00.83-.48l1.01-1.88a.43.43 0 00-.34-.63l-9.95-.79q-.52-.04-.98.18-.78.37-1.17-.43a.67.66-20.5 00-.78-.35l-3.8 1.03a.54.54 0 01-.46-.08l-.51-.39a1.51 1.5-27.3 00-.92-.29l-13.57.14-4.75-.25-8.97-.01a.27.27 0 01-.25-.17l-.12-.34a.36.36 0 00-.52-.19q-2.13 1.22-4.64.46l-30.35-.54a1.35 1.34 67.1 01-.9-.37q-.49-.45-1.01-.24a.96.95-7.5 00-.57.73l-.45 3.04a.37.37 0 00.35.43q15.82.46 31.64-.09z"/><path fill="#fbfddf" d="M235.52 123.08l.21-7.38a.49.48 8.9 01.62-.45q4.69 1.34 9.12 2.83 69.06 23.16 139.62 41.19c.93.24 3.23.11 4.28 1.16q.38.37-.15.37c-37.83-.37-75.7-1.89-113.53-1.47-5.34.06-13.38 6.92-17.8 9.52q-10.08 5.91-19.61 12.2a1.07 1.07 0 01-1.63-.66q-4.22-18.87-7.72-37.43-1.53-8.12-3.94-16.99-.58-2.14 1.64-2.18l8.3-.13a.6.59 0 00.59-.58zM144.76 158.05q-3.55-.04-.24-1.32 34.8-13.53 67.77-31.05.85-.45.55.46l-10.45 31.75a.83.83 0 01-.77.56c-18.82.27-37.75-.18-56.86-.4zM98.06 157.32a.12.11-58.4 01-.05-.22c3.37-1.66 7.98-2.56 10.56-3.35q32.78-10.05 65.96-18.63c.87-.23 22.64-6.66 23.11-6.41q.55.29-.02.55-28.6 13.12-57.92 24.5c-2.2.86-6.89 3.51-10.2 3.5q-15.22-.06-31.44.06z"/><path fill="#fff" d="M216.52 139.81a.52.52 0 01-.25-.64l2.12-5.92a.71.7-34.6 011.37.25q-.09 4.42 1.61 8.45.24.57-.3.28l-4.55-2.42zM217.39 146.91l-3.27 1.76a.33.33 0 01-.48-.36l.68-3.65a.33.33 0 01.51-.21l2.6 1.91a.33.33 0 01-.04.55zM222.44 150.29l2.05 11.27a.35.35 0 01-.54.36l-9.51-6.4a.35.35 0 010-.58l7.46-4.88a.35.35 0 01.54.23z"/><rect fill="#96989a" x="-9.76" y="-2.32" transform="rotate(.4 -22576.733 10092.76)" width="19.52" height="4.64" rx=".7"/><path fill="#fbfddf" d="M210.47 160.22c2.44 1.47 11.45 6.33 12.87 8.33a1.1 1.09 56 01-.3 1.56l-18.27 11.74q-1.59 1.02-1.09-.8l5.65-20.38a.77.77 0 011.14-.45z"/><path fill="#fff" d="M90.73 162.73l23.8.03a.39.39 0 01.13.76q-6.51 2.28-13.03 4.14c-1.3.37-2.26 1.4-4.11 1q-3.42-.75-6.93-.7a.53.53 0 01-.54-.56l.24-4.26a.44.44 0 01.44-.41z"/><path fill="#fbfddf" d="M145.15 169.33l-4.5-.39q-.35-.03-.02-.13l.33-.11q.27-.09-.02-.08l-18.94.17q-1.47 0-1.29-1.3c.75-5.49 21.05-4 24.99-3.97a.67.66 83.8 01.63.51q.68 3.04-1.18 5.3z"/><rect fill="#fbfddf" x="-13.08" y="-2.77" transform="rotate(.7 -13562.72 13456.019)" width="26.16" height="5.54" rx=".27"/><path fill="#fbfddf" d="M198.4 170.19c-5.29.23-10.69.05-15.99-.29a.6.6 0 01-.56-.6l.01-4.39a.67.66 0 01.67-.66h17.02a.51.51 0 01.5.62l-1.13 4.89a.56.54-83.8 01-.52.43z"/><path fill="#fff" d="M275.46 167c-4.19 4.81-8.35 9.76-13.16 13.86a1.18 1.17 25.2 01-.79.28l-10.25-.19q-.74-.01-.1-.38c8.06-4.55 15.79-9.61 23.77-14.2a.42.41 5.3 01.53.63zM308.23 168.31c-3.2 3.35-6.75 7.41-10.46 10.32a.56.56 0 01-.78-.1l-8.7-11.29q-.27-.35.17-.34l19.31.31a.65.65 0 01.46 1.1z"/><path fill="#96989a" d="M113.2 168.16a.18.17 50.7 01.03-.34l2.35-.38a.56.55-6.6 01.65.51l.03.66a.48.48 0 01-.66.48l-2.4-.93z"/><path fill="#fbfddf" d="M341.3 167.95c-2.21 4.15-6.64 8.62-10.17 11.7a.69.68 50.5 01-1-.1l-8.73-11.39q-.49-.64.32-.64l19.28-.06a.34.33 14.1 01.3.49zM364.81 179.56q-.02.35-.23.51a.58.58 0 01-.81-.08l-9.74-11.76q-.4-.49.23-.51 10.18-.47 20.35.42a.21.21 0 01.16.32q-4.07 6.46-9.96 11.1z"/><path fill="#96989a" d="M145.15 169.33q-11.78.95-23.15-.54l18.94-.17q.29-.01.02.08l-.33.11q-.33.1.02.13l4.5.39z"/><path fill="#fbfddf" d="M408.47 169.8l-10.16 10.97a.59.59 0 01-.89-.03l-9.53-11.51a.59.59 0 01.47-.97l19.69.55a.59.59 0 01.42.99zM442.14 169.66c-2.62 3.15-7.36 10.11-11.37 11.74a.52.51-30.5 01-.6-.15l-9.29-11.73a.37.37 0 01.3-.6l20.77.31q.54.01.19.43zM476.28 170.56l-10.96 12.1a.34.34 0 01-.52-.02l-10-12.9a.34.34 0 01.28-.55l20.96.81a.34.34 0 01.24.56zM271.54 180.87l10.04-10.8a.33.33 0 01.49.01l9.51 11.28a.33.33 0 01-.26.54l-19.55-.47a.33.33 0 01-.23-.56zM472.68 184.14l12.85-14.45a.3.3 0 01.46 0l12.64 14.63a.3.3 0 01-.23.5l-25.49-.18a.3.3 0 01-.23-.5zM314.99 170.38l8.89 11.18a.34.34 0 01-.27.55l-18.58-.25a.34.34 0 01-.25-.57l9.69-10.93a.34.34 0 01.52.02zM347.1 171.62a.89.88-46.1 011.28-.03q4.63 4.7 8.27 10.2.4.6-.33.6l-18.26-.18q-.4-.01-.13-.3l9.17-10.29zM371.69 181.65l9.5-9.93a.49.49 0 01.73.03l8.52 10.79a.49.49 0 01-.41.79l-18.01-.85a.49.49 0 01-.33-.83zM405.07 182.84l9.1-10.98a.33.33 0 01.51.01l8.8 11.23a.33.33 0 01-.27.53l-17.89-.25a.33.33 0 01-.25-.54zM438.63 183.01l9.19-10.14a.39.39 0 01.59.01l8.98 10.33a.39.39 0 01-.3.64l-18.18-.19a.39.39 0 01-.28-.65z"/><path fill="#fff" d="M78.75 173.78q1.74 2.86.97 6.1a.45.45 0 01-.74.22q-2.83-2.6-4.32-6.17a.49.49 0 01.45-.68h2.69a1.12 1.12 0 01.95.53z"/><path fill="#fbfddf" d="M95.34 174.41c5.69-1.85 14.18-.64 20.3-.64a.62.61.5 01.61.61l.01 4.98a.67.67 0 01-.68.67l-20.9-.34a.6.59 5.5 01-.57-.69l.62-3.88a.9.9 0 01.61-.71z"/><rect fill="#fbfddf" x="-12.68" y="-3.05" transform="rotate(2.2 -4550.958 3566.352)" width="25.36" height="6.1" rx=".27"/><rect fill="#fbfddf" x="-13.2" y="-3.26" transform="rotate(.8 -12652.846 11784.216)" width="26.4" height="6.52" rx=".26"/><path fill="#fbfddf" d="M182.34 174.63c4.94.01 9.8.46 14.71.67a.43.42 7.8 01.4.52l-1.12 4.81a.67.66 5 01-.63.52l-13.46.32a.48.47 88.9 01-.49-.48v-5.77a.59.59 0 01.59-.59zM226.63 175.18a.81.81 0 011.24.61q.41 4.79 2.14 9.29a.87.87 0 01-.81 1.17h-18.89q-1.05 0-.17-.56l16.49-10.51z"/><path fill="#96989a" d="M160.71 184.33a.56.56 0 01.28-.99l.96-.12a.57.57 0 01.51.92q-.77.96-1.75.19z"/><path fill="#fff" d="M89.12 188.05q.3.15.5.46.35.56-.3.57l-3.47.04a.74.73 1.1 01-.75-.77l.22-4.36q.06-1 .62-.17l2.48 3.61q.27.4.7.62z"/><rect fill="#96989a" x="-7.72" y="-3.3" transform="rotate(1.1 -10137.409 5685.039)" width="15.44" height="6.6" rx=".27"/><path fill="#96989a" d="M224.45 211.32l2.9.23a.76.75 12.3 01.65 1.01c-1.15 3.12-1.93 8.15-6.07 8.27q-10.97.31-21.94-.35a.5.5 0 01-.47-.51l.3-24.79a1.52 1.52 0 011.56-1.5l9.57.26a.75.75 0 01.72.64c.76 4.68-.57 10.26-.59 16.41a.55.55 0 00.56.55l8.76-.14a.57.56-89.4 00.55-.55l.52-16.21a.66.65-86.2 01.71-.63l1.47.14a.78.77-86.9 01.71.8l-.4 15.83a.53.53 0 00.49.54z"/><path fill="#fbfddf" d="M251.41 194.7c78.26.92 156.52 2.17 234.77 3.7a.8.8 0 01.75.6q.91 3.8 2.79 7.21a.46.45-24.1 01-.25.64q-7.28 2.59-9.99 3.35c-44.53 12.51-89.4 17.16-135.26 13.44-29.89-2.43-59.57-10.67-86.91-22.93q-3.63-1.63-9.39-5.96-.41-.31.11-.35c1.12-.07 2.41.29 3.38.3zM509.4 240.06a.51.5-88.5 01-.46.45l-4.18.3a1.15 1.14 80.6 01-1.19-.86q-3.34-13.08-3.94-26.56a.47.47 0 01.48-.49l9.2.14a1.73 1.72 1.2 011.7 1.76q-.27 12.66-1.61 25.26zM202.99 228.6c4.6.04 9.61-.02 14.11.57a.33.32 21.7 01.23.52l-6.72 9.05a.43.43 0 01-.7 0l-7.13-9.73q-.3-.41.21-.41z"/><path fill="#fff" d="M203.34 264.5h-3.05a.54.54 0 01-.52-.7q.79-2.64 2.58-4.71a.61.6-46.9 01.89-.03q2.14 2.22 2.15 5.4a.54.54 0 01-.78.48l-.51-.26q-.36-.18-.76-.18z"/><path fill="#fbfddf" d="M200.42 288.34l-.54.78q-.63.91-.63-.19v-11.9a.46.45.6 01.47-.45l16.67.24a.2.2 0 01.1.37l-15.43 10.51q-.38.26-.64.64zM205.82 290.06l16.55-11.71a.39.39 0 01.61.32l.03 11.47a.39.39 0 01-.39.4l-16.57.23a.39.39 0 01-.23-.71z"/><path fill="#96989a" d="M230.21 278.5q.33 8.89-.42 17.75-.87-8.9.42-17.75z"/><path fill="#fbfddf" d="M206.22 296.85l15.78.21a.33.33 0 01.33.34l-.37 10.75a.33.33 0 01-.52.25l-15.42-10.95a.33.33 0 01.2-.6zM216.96 311.94c-5.63.22-12.67-.84-18.12.02a.49.48-3.5 01-.56-.49l.49-11.95a.31.31 0 01.46-.26q9.46 5.3 17.95 12.03a.37.36-26.5 01-.22.65z"/><path fill="#fff" d="M500.41 317.72c-23.29 1.85-40.39 14.26-48.92 36.02-1.41 3.6-1.69 7.5-2.4 11.42-1.16 6.35.19 12.44 1.48 18.58q.8 3.82 3.39 6.76c5.77 14.95 16.63 27.56 32.32 32.37 24.07 7.37 51.57-1.53 62.91-24.96 5.54-11.44 7.79-22.71 4.8-35.51-.91-3.92-2.99-7.9-4.53-11.9-.54-10.39-8.95-18.89-17.05-24.79-5.91-4.31-12.44-6.07-19.59-7.73a.65.64.6 00-.78.76q.28 1.33-.75 2.26-.26-3.24-1.39-5.8-.46-1.03.66-.91c24.87 2.77 42.45 18.14 50.58 41.43q1.89 18-3.81 35.7c-1.6 4.97-4.99 10.21-6.75 13.46q-6.44 11.84-19.06 17.63-10.77 4.95-18.78 6.21c-9.11 1.44-18.81-.03-28.91-1.8a1.38 1.3-13.5 01-.77-.44c-.61-.71-5.43-2.19-6.65-2.63-4.9-1.77-11.82-8.1-16.12-8.6-16.27-16.19-20.42-38.85-13.98-60.32 7.03-23.46 29.76-39.75 53.97-41.27a.5.5 0 01.53.47q.12 2.19-.4 3.59z"/><path d="M190.07 367.3c-.37-16.99 1-34.02.97-51.05q.53-.67.67-1.55a.51.51 0 01.59-.43c.62.1.79.48.66 1.09-1.74 8.76-1.06 20.16-1.16 27.56-.07 5.69-.83 14.44-.25 21.33q.22 2.57-1.48 3.05z"/><path fill="#96989a" d="M500.41 317.72l-.5 4.03a.75.74 85.2 01-.52.62c-4.17 1.2-8.72 1.62-12.41 2.87q-9.64 3.26-15.68 8.3c-13.24 11.04-24.19 33.62-18.8 51.21q1.19 3.87 1.46 5.75-2.59-2.94-3.39-6.76c-1.29-6.14-2.64-12.23-1.48-18.58.71-3.92.99-7.82 2.4-11.42 8.53-21.76 25.63-34.17 48.92-36.02z"/><path fill="#fbfddf" d="M215.24 318.33a.52.52 0 01.41.84q-.77 1.01-2.01 1.76-7.75 4.75-14.95 10.28-.52.4-.5-.25l.36-12.29a.53.52-88.3 01.53-.51l16.16.17z"/><path fill="#96989a" d="M549.46 350.5c-6.68-14.8-21.94-24.67-37.46-27.28a.69.68 2.2 01-.57-.61l-.14-1.61q1.03-.93.75-2.26a.65.64.6 01.78-.76c7.15 1.66 13.68 3.42 19.59 7.73 8.1 5.9 16.51 14.4 17.05 24.79z"/><path fill="#fbfddf" d="M203.81 332.91l17.8-12.33a.32.32 0 01.5.28l-.42 12.89a.32.32 0 01-.33.31l-17.38-.57a.32.32 0 01-.17-.58zM507.69 335.32c-3.6-2.03-11.22-2.78-15.41-1.95-7.04 1.39-16.17 6.21-20.2 12.2a.52.51-46.5 01-.84.03l-.78-1.04a.81.8-43.8 01.03-.99c5.84-7.12 17.59-12.19 26.36-14.31a1.62 1.61-24.1 011.71.65q1.54 2.19 4.36 2.32a1.1 1.08 20.1 00.89-.4l1.06-1.31a.58.57-58.1 01.68-.16l2.62 1.16a.92.92 0 00.94-.1c3.75-2.79 11.69.93 15.65 2.79q5.78 2.72 9.67 6.77c7.26 7.56 13.2 17.59 14.2 28.3.77 8.25-.28 17.05-4.6 24.31a.84.84 0 01-.77.41c-1.08-.05-1.46-.84-1.03-1.82 4.28-9.91 6.07-17.59 1.44-27.43q-6.75-14.36-22.98-13.73a.66.65-9.9 01-.65-.45q-3.34-10.18-12.35-15.25z"/><path fill="#96989a" d="M447.33 337.86c-.65-.24-1.85-1.06-2.43-1.12a.12.12 0 01-.1-.17q.97-2.62 3.58-3.37a.67.66-15.3 01.83.47q.59 2.32-.98 3.99a.83.83 0 01-.9.2z"/><path fill="#fbfddf" d="M204.14 340.09a.09.08 60.9 01.04-.16l16.94.1a.55.55 0 01.55.58l-.48 10.32a.4.39-71.4 01-.61.31l-16.44-11.15z"/><path fill="#fff" d="M536.08 365.62q-1.53.65-2.2-.91a1.27 1.27 0 00-.67-.67q-11.36-4.86-23.05-.87a.36.36 0 01-.47-.39c1.74-14.52-11.56-27-24.99-15.8a1.37 1.33 75.1 00-.46.82q-.88 5.55-3.09 10.79-.84-6.35 2.14-11.89 10.1-10.4 21.93-4.19c5.25 2.75 8.25 9.49 9.14 14.96a1.67 1.66 79.7 001.97 1.37c7.41-1.49 15.55-.09 19.75 6.78z"/><path fill="#fbfddf" d="M197.71 352.5l.28-8.79q.02-.86.38-1.21a.68.67 40.1 01.84-.07c5.66 3.85 12.98 7.88 17.68 12.74q.42.44-.19.41l-18.24-.71a.66.65-.5 01-.62-.6l-.13-1.77z"/><path fill="#96989a" d="M536.08 365.62q5.89 12.17-1.28 24.19c-3.73 6.26-16.97 10.05-23.53 10.46q-.98.06-.03-.19 11.92-3.17 20.82-11.71a.45.45 0 00-.44-.75c-12.99 4.05-22.3 7.87-36.37 4.92q-3.28-1.53-5.3-4.51-9.13-13.43-8.8-29.44 2.21-5.24 3.09-10.79a1.37 1.33 75.1 01.46-.82c13.43-11.2 26.73 1.28 24.99 15.8a.36.36 0 00.47.39q11.69-3.99 23.05.87a1.27 1.27 0 01.67.67q.67 1.56 2.2.91zm-34.608-7.84a6.45 4.66 52.1 00-.285-7.953 6.45 4.66 52.1 00-7.64-2.227 6.45 4.66 52.1 00.286 7.953 6.45 4.66 52.1 007.64 2.227zm-8.261 7.973a2.24 2.24 0 00-.783-3.07l-.79-.47a2.24 2.24 0 00-3.07.783l-.399.67a2.24 2.24 0 00.783 3.07l.79.47a2.24 2.24 0 003.07-.782l.399-.67zM197.99 343.71l-.28 8.79q-.74-4.44.28-8.79z"/><path d="M483.29 346.7q-2.98 5.54-2.14 11.89-.33 16.01 8.8 29.44 2.02 2.98 5.3 4.51-.1.52-.56.83a.78.76-45.7 01-.86.02c-6.87-4.29-11.23-12.59-12.99-20.22-1.04-4.55-2.3-21.76.44-25.62q1.3-1.82 2.01-.85z"/><ellipse fill="#fff" transform="rotate(52.1 -112.006 685.24)" rx="6.45" ry="4.66"/><path fill="#fff" d="M435.93 348.67q1.26-1.34.64.4-.58 1.64-1.51 3.01a.48.48 0 01-.86-.41q.53-1.73 1.73-3zM465.97 354.86q-4.22 12.59-1.43 25.64c1.73 9.21 6.22 15.42 11.92 25.28 2.91 5.04 20.44 7.15 25.11 7.43q18.79 1.12 33.99-11.1a.58.57 53.6 01.83.13l.64.96a.94.92 44.4 01.02 1c-3.91 6.43-19.73 13.64-27.24 14.46-14.02 1.53-29.01-1.97-38.67-12.65q-19.65-21.71-8.47-51.56a1.05 1.03 1.6 01.67-.62q1.25-.37 2.63 1.03z"/><path d="M465.97 354.86q.58-.22 1.08.48a1.13 1.13 0 01.18.9q-2.7 11.4-1.16 23.03a.93.93 0 01-.34.85q-.53.43-1.19.38-2.79-13.05 1.43-25.64z"/><path fill="#fff" d="M25.17 355.72l.27.09a.23.13-55.1 01-.03.3q-1.79 2.22-.4-.32a.14.14 0 01.16-.07z"/><path fill="#96989a" d="M561.14 355.72q2.89 7.07 2.67 16.46c-.74 30.86-16.8 50.21-45.56 59.15-12.21 3.8-29.69 1.57-41.09-3.45a.46.46 0 00-.62.27q-2.41 6.91-4.42 13.84c-.75 2.57-2.22 5.07-3.11 7.76-5.45 16.53-12 32.49-17.97 48.8-5.06 13.84-14.82 23.24-29.33 26.61-6.29 1.45-13.61-.94-20.96-4.12q-.94-.65-1.45-1.56l-1.14-4.11a1.27 1.25 52 01.11-.95q1.2-2.12 3.48-2.96l2.86 2.48q.81 3.16-.4 5.1a1.1 1.1 0 00.74 1.66q2.74.48 3.65-2.03a.69.69 0 01.7-.45l2.81.19a.63.63 0 01.59.7c-.32 2.85 1.91 3.83 4.24 2.87a1.28 1.27 1.2 00.67-.64l1.6-3.34 3.04-.71q-.24 1.84.99 3.4a.77.75 62.3 00.8.26c17.33-5.11 21.14-17.93 26.35-33.7q2.59-7.82 5.92-15.66 7.85-18.44 14.81-37.26 1.36-3.67 1.92-7.67a.84.82-72 00-.41-.83l-4.2-2.4a.61.61 0 00-.82.21q-.25.39-.29.98-30.53 24.52-60.39 49.82-6.52 5.52-8.66 9.26-4.5 7.83-3.11 17.97-6.03-9.52-2.31-19.77.89-2.47 3.2-4.59c21.8-20.07 45.64-37.3 68.8-55.27a.48.47 50.2 00.06-.69q-2.05-2.23-4.91-3.39.79-1.24.29-2.71c4.3.5 11.22 6.83 16.12 8.6 1.22.44 6.04 1.92 6.65 2.63a1.38 1.3-13.5 00.77.44c10.1 1.77 19.8 3.24 28.91 1.8q8.01-1.26 18.78-6.21 12.62-5.79 19.06-17.63c1.76-3.25 5.15-8.49 6.75-13.46q5.7-17.7 3.81-35.7z"/><path fill="#fbfddf" d="M198.81 374.06q-.06.52-.66.73a.32.32 0 01-.43-.3l-.04-13.17a.36.35 1.5 01.38-.35l16.95.87q.84.04.12.48-8.65 5.27-16.32 11.74z"/><rect fill="#fff" x="-2.7" y="-2.63" transform="rotate(30.7 -418.954 1076.12)" width="5.4" height="5.26" rx="2.24"/><path fill="#fbfddf" d="M221.26 363.86c0 4.2-.48 8.4-.55 12.65a.49.49 0 01-.49.49h-16.69a.7.7 0 01-.37-1.3q9.13-5.49 17.43-12.16a.41.41 0 01.67.32z"/><path fill="#96989a" d="M217.75 383.21l-9.52.22q-.49.02-.92-.2l-1.06-.52q5.78-.33 11.5.5z"/><path fill="#fbfddf" d="M206.25 382.71l1.06.52q.43.22.92.2l9.52-.22q1.31-.26 2.36.33a.88.87-74.6 01.45.8l-.24 9.85a.44.44 0 01-.57.41c-1.2-.36-1.86-1.49-2.71-2.07q-6.89-4.71-14.06-9.12a.34.34 0 01.17-.63l3.1-.07zM196.65 397.87l.35-12.59a.33.33 0 01.52-.27L216.4 398a.33.33 0 01-.19.6l-19.24-.39a.33.33 0 01-.32-.34zM214.19 404.8a.36.36 0 01.22.65c-5.8 4.37-11.78 7.73-17.39 12.51a.35.35 0 01-.57-.27l.2-12.41a.56.55-89 01.56-.55l16.98.07zM220.21 411.5q-.66 2.98-.17 6 .08 1.43-.38 2.7a.7.68-79.3 01-.66.46l-17.02-.41a.41.41 0 01-.22-.74l17.87-12.39a.38.37-17.2 01.59.31l-.01 4.07z"/><circle fill="#96989a" cx="559.01" cy="412.27" r="1.54"/><path d="M227.21 411.25q-.26 18.09-.76 36.18c-.45 15.94.22 31.66-.42 47.81q-.53 13.48-.22 26.98a1.06 1.04 18.6 00.41.81l5.07 3.97q-.45.74-1.17 1.02a.85.84 54 01-.86-.14c-3.74-3.2-5.65-3.87-5.72-9.32q-.08-7.25.11-12.73c.32-9.57.12-18.08.68-27.09 1.03-16.69.3-35.45.97-48.24q.6-11.55.24-18.85a.65.64-9.4 01.48-.66q.57-.15 1.19.26z"/><path fill="#96989a" d="M452.5 412.26l-.27-.16a.21.21 0 01-.06-.31q.9-1.14.8.23a.31.31 0 01-.47.24zM220.21 411.5q.77 3.06-.17 6-.49-3.02.17-6z"/><path fill="#fff" d="M460 417.96q2.86 1.16 4.91 3.39a.48.47 50.2 01-.06.69c-23.16 17.97-47 35.2-68.8 55.27q-2.31 2.12-3.2 4.59-3.72 10.25 2.31 19.77l6.59 9.79q-2.28.84-3.48 2.96a1.27 1.25 52 00-.11.95l1.14 4.11c-6.07-3.68-10-10.76-12-17.39-2.68-8.84.33-19.27 4.95-27.05q3.85-5.35 6.92-7.87 24.43-20.03 48.7-40.24c3.65-3.04 8.18-5.82 12.13-8.97zm-68.76 87.34l2.12-2.3a.71.71 0 00.08-.84q-1.54-2.59-4.58-1.75a.67.67 0 00-.45.88l1.38 3.72a.87.86 56.2 001.45.29zm1.48 2.4c-1.23 2.84.74 5.94 3.9 3.51a1.96 1.95-35 00.46-2.59q-1.3-2.04-3.71-1.46a.96.95 5.1 00-.65.54zM422.25 517.29q11.74-2.76 16.21-14.56c9.92-26.18 19.76-51.94 28.86-78.11q.04-.59.29-.98a.61.61 0 01.82-.21l4.2 2.4a.84.82-72 01.41.83q-.56 4-1.92 7.67-6.96 18.82-14.81 37.26-3.33 7.84-5.92 15.66c-5.21 15.77-9.02 28.59-26.35 33.7a.77.75 62.3 01-.8-.26q-1.23-1.56-.99-3.4z"/><path fill="#242322" d="M467.32 424.62c-9.1 26.17-18.94 51.93-28.86 78.11q-4.47 11.8-16.21 14.56l-3.04.71q-7.7.13-14.6-4.06l-2.86-2.48-6.59-9.79q-1.39-10.14 3.11-17.97 2.14-3.74 8.66-9.26 29.86-25.3 60.39-49.82zm-62.89 76.63c6.91 12.92 21.75 9.86 27.18-1.96q3.56-7.76 6.77-16.74c4.28-11.97 8.52-22.41 12.2-33.75a.33.32 79.9 00-.51-.36q-19.22 15.63-38.02 31.61c-6.41 5.45-12.25 12.54-7.62 21.2z"/><path fill="#fbfddf" d="M202.1 426.9a.1.1 0 01.03-.19c5.39-1.03 11.56-.36 17.05-.27a.66.66 0 01.65.67l-.28 10.36q-.02.92-.76.37-8.01-6-16.69-10.94zM215.61 442.11c-6.16.3-13.12-1.41-19.02-.26a.45.45 0 01-.53-.44l-.09-11.25q-.02-2.28 1.86-.99l17.95 12.33a.34.33 60.7 01-.17.61zM213.46 448.25a.39.39 0 01.36.51q-.13.39-.93.84-7.77 4.41-15.08 10.41-2.05 1.68-1.99-.97l.25-10.56a.51.5-88.9 01.51-.5l16.88.27zM431.61 499.29c-5.43 11.82-20.27 14.88-27.18 1.96-4.63-8.66 1.21-15.75 7.62-21.2q18.8-15.98 38.02-31.61a.33.32 79.9 01.51.36c-3.68 11.34-7.92 21.78-12.2 33.75q-3.21 8.98-6.77 16.74zM219.21 450.1a.17.17 0 01.28.14l-.69 14.25a.54.54 0 01-.54.51h-18.23q-.53 0-.17-.39c5.2-5.59 12.95-9.62 19.35-14.51zM201.79 471.61a.48.48 0 01.32-.87q8.07.96 16.15.58a.45.45 0 01.47.44l.21 8.58q.07 2.58-2.09 1.16l-15.06-9.89z"/><path d="M195.25 473.29l.02 12.88a.48.47 86.7 00.52.47q5.9-.59 12.07.33-6.5 1.57-12.58 1.02a1.48 1.48 0 01-1.34-1.43l-.46-12.49a.54.53 83.9 01.44-.55l1.33-.23z"/><path fill="#fbfddf" d="M195.25 473.29l.26-.04a.6.57-32 01.45.09l18.89 12.61a.28.28 0 01-.18.51q-3.45-.29-6.81.51-6.17-.92-12.07-.33a.48.47 86.7 01-.52-.47l-.02-12.88z"/><path d="M392.25 475.04c-4.62 7.78-7.63 18.21-4.95 27.05 2 6.63 5.93 13.71 12 17.39q.51.91 1.45 1.56-.84 1.65-2.25.7c-10.9-7.22-15.5-19.97-13.37-32.72.48-2.87 3.25-13.86 6.04-14.89a.61.6 65.7 01.73.28l.35.63z"/><path fill="#fbfddf" d="M212.23 493.55q-1.98 2.05-4.46 3.47c-4.6 2.63-8.28 5.82-12.52 8.69a.31.31 0 01-.49-.26l-.01-11.95a.5.5 0 01.5-.5H212q.75 0 .23.55zM217.78 508.9c-5.12.31-10.67-.03-15.76-.44a1.02 1.02 0 01-.49-1.86l16.49-11.23q.55-.38.54.29l-.22 12.66a.59.59 0 01-.56.58z"/><path fill="#96989a" d="M389.79 505.01l-1.38-3.72a.67.67 0 01.45-.88q3.04-.84 4.58 1.75a.71.71 0 01-.08.84l-2.12 2.3a.87.86 56.2 01-1.45-.29zM396.62 511.21c-3.16 2.43-5.13-.67-3.9-3.51a.96.95 5.1 01.65-.54q2.41-.58 3.71 1.46a1.96 1.95-35 01-.46 2.59z"/><path fill="#fff" d="M404.61 513.94q6.9 4.19 14.6 4.06l-1.6 3.34a1.28 1.27 1.2 01-.67.64c-2.33.96-4.56-.02-4.24-2.87a.63.63 0 00-.59-.7l-2.81-.19a.69.69 0 00-.7.45q-.91 2.51-3.65 2.03a1.1 1.1 0 01-.74-1.66q1.21-1.94.4-5.1z"/><path fill="#fbfddf" d="M201.44 515.31q-.34 0-.45-.33a.3.3 0 01.33-.4q7.88 1.04 15.83.6a.95.95 0 011.01.97l-.24 9.1a.61.6-73.4 01-.92.5q-7.78-4.82-15.56-10.44z"/><path fill="#fff" d="M194.31 523.67l.1-5.22a1.04 1.04 0 011.62-.84l15.81 10.7a1.04 1.04 0 01-.58 1.9l-7.4.06a1.04 1.04 0 01-.57-.17l-8.51-5.54a1.04 1.04 0 01-.47-.89z"/><path fill="#fbfddf" d="M240.01 544.26l-14.13-.45a.49.48-89.4 01-.47-.49l.13-11.62a.28.27 21.1 01.46-.2c4.72 4.27 11 8.03 15.15 12.56q.35.37-.16.45-.23.03-.42-.09-.26-.15-.56-.16z"/><path fill="#fff" d="M186.32 543.52c-2.63.33-7.75-.27-10.58-.52q-.48-.04-.07-.29l10.64-6.57q.52-.32.53.28l.07 6.43a.67.66-3.8 01-.59.67zM198.94 537.23l-3.7 1.8a.44.44 0 01-.64-.4l.05-2.19a.44.44 0 01.49-.43l3.65.39a.44.44 0 01.15.83zM214.15 537.5l3.41-.01a.34.34 0 01.34.32l.1 2.14a.34.34 0 01-.52.31l-3.51-2.13a.34.34 0 01.18-.63zM202.57 542.53l3.01-1.76a.31.31 0 01.36.03l2.63 2.3a.31.31 0 01-.23.54l-5.65-.53a.31.31 0 01-.12-.58z"/><path d="M148.26 542.78l.12 24.96a.56.56 0 00.49.56q2.13.26 2.88 1.91l-4.87-.2a.44.44 0 01-.42-.45l.39-26.06a.81.8-13 01.44-.7q.48-.23.97-.02z"/><rect fill="#96989a" x="-42.48" y="-2.98" transform="rotate(1 -31655.37 11540.028)" width="84.96" height="5.96" rx=".27"/><path fill="#96989a" d="M187 561.54q-1.23 1.35-1.29 2.96-15.82.55-31.64.09a.37.37 0 01-.35-.43l.45-3.04a.96.95-7.5 01.57-.73q.52-.21 1.01.24a1.35 1.34 67.1 00.9.37l30.35.54z"/><path fill="#96989a" d="M201.5 561.79q-1.05 1.18-.33 2.58a.45.45 0 00.7.14l1.55-1.37a.79.78 49.3 011.12.09l.58.7a.52.51 46.1 00.77.02q.68-.74.36-1.91l13.57-.14a1.51 1.5-27.3 01.92.29l.51.39a.54.54 0 00.46.08l3.8-1.03a.67.66-20.5 01.78.35q.39.8 1.17.43.46-.22.98-.18l9.95.79a.43.43 0 01.34.63l-1.01 1.88a.9.89 14.6 01-.83.48l-24.95-.72a.63.62 73.8 01-.5-.28l-.27-.41q-.33-.49-.51.07c-.54 1.7-3.45.97-4.63.38a.7.69-52.6 00-.79.11c-.99.89-10.41.28-12.38.3a1.41 1.37-24.7 01-.88-.31c-1.49-1.19-3.98 2.71-6.27-.65q.06-1.61 1.29-2.96 2.51.76 4.64-.46a.36.36 0 01.52.19l.12.34a.27.27 0 00.25.17l8.97.01zm-9.05 2.35q1.43-.02 1.55-1.53a.54.53 10.4 00-.39-.56q-1.6-.43-1.94 1.14a.78.78 0 00.78.95z"/><path fill="#fff" d="M201.5 561.79l4.75.25q.32 1.17-.36 1.91a.52.51 46.1 01-.77-.02l-.58-.7a.79.78 49.3 00-1.12-.09l-1.55 1.37a.45.45 0 01-.7-.14q-.72-1.4.33-2.58zM192.45 564.14a.78.78 0 01-.78-.95q.34-1.57 1.94-1.14a.54.53 10.4 01.39.56q-.12 1.51-1.55 1.53z"/><path fill="#96989a" d="M245.5 571.96q-5.65.5-11.26-.19 5.66-.6 11.26.19z"/></svg>