<svg xmlns="http://www.w3.org/2000/svg" viewBox="0 0 591 591"><g stroke-width="2" fill="none"><path stroke="#c9cacb" vector-effect="non-scaling-stroke" d="M591 2.56q-.39-.87-.28-1.83a.48.48 0 00-.48-.53q-.26 0-.53.3"/><path stroke="#494a4c" vector-effect="non-scaling-stroke" d="M589.71.5q-.86.25-1.71.25Q294 .97 0 .94"/><path stroke="#c9cacb" vector-effect="non-scaling-stroke" d="M8.19 591q-2.38-.63-4.75 0"/><path stroke="gray" vector-effect="non-scaling-stroke" d="M0 589.94q4 .14 8 .14 290.83.17 581.54.17a.71.71 0 00.71-.71V1.66a1.26 1.25-62.4 00-.22-.71l-.32-.45"/><path stroke="#7e7f70" vector-effect="non-scaling-stroke" d="M585.5 5.52a.26.26 0 00-.26-.26H5.5a.26.26 0 00-.26.26v579.72a.26.26 0 00.26.26h579.74a.26.26 0 00.26-.26V5.52"/><path stroke="#fbf2c7" vector-effect="non-scaling-stroke" d="M39.17 24.85c-10.42 4-11.26 12.38-11.64 22.25q-.77 19.92-.5 39.41a1.26 1.26 0 002.15.88l62.72-61.7a.94.93-50 00-.12-1.44c-1.09-.76-3.15-.36-4.03-.4q-19.12-.95-38.21-.44-7.11.19-10.37 1.44"/><path stroke="#c7c9bc" vector-effect="non-scaling-stroke" d="M178.177 93.879a1.01.81 69.9 00.414-1.227 1.01.81 69.9 00-1.108-.67 1.01.81 69.9 00-.414 1.226 1.01.81 69.9 001.108.67M175.46 344.75l-2.97.71"/><path stroke="#8f9080" vector-effect="non-scaling-stroke" d="M172.49 345.46q-5.61-1.68-9.43 2.34-3.04 3.2-5.56 5.31c-4.98 4.18-8.21 9.88-11.26 15.57a.35.35 0 01-.56.07q-4.84-5.14-10.78-1.81c-1.66.92-2.98 1.06-4.69 1.63a.78.77-29.4 01-.81-.22q-5.89-6.44-12.15-1.73c-3.06 2.3-11.18 6.52-12.52 9.68-1.04 2.44-.63 5.18-2.15 7.36a1.36 1.36 0 01-.77.52c-12.76 3.09-6.1 10.98-10.21 18.53a1.83 1.81.4 01-.73.71q-3.34 1.76-5.18 5.05a1.57 1.54 2.7 01-.76.68c-4.39 1.86-23.08 8.55-18.11 16.2q.28.42.33.92.67 6.99 1.41 13.99c1.35 12.76.98 25.64 1.1 38.44a1.58 1.57-27.5 01-.29.91c-1.39 1.94-3.32 3.18-3.68 5.55-.96 6.28 4.17 9.49 9.3 10.41q26.28 4.7 52.82 9.81a.84.84 0 01.67.68c1.7 9.46 10.54 10.56 18.52 12.18q34.93 7.09 69.81 14.45c3.86.81 7.37.62 11.18.31a1.41 1.41 0 00.92-.46l4.12-4.66a1.06 1.04-67.5 01.85-.36q4.48.29 10.36 1.51 39.39 8.18 106.05 21.41c12.28 2.44 26.31 3 37.36-3.44q4.13-2.4 12.61-10.73c30.32-29.79 60.7-59.55 92.51-87.74 2.55-2.26 2.71-4.99 1.97-8.46q-1.1-5.21-1.01-11.32.2-13.61-.11-38.41a1.48 1.44 64.4 01.3-.89c2.78-3.53 2.32-7.45-1.01-10.43-3.16-2.81-7.28-2.92-10.97-4.09q-.49-.15-.02-.37 4.63-2.17 11.32-1.38c8.91 1.06 20.04-4.55 21.74-14.19 1.15-6.59 1.34-15.25 1.83-20.57q8.62-95.11 17.55-190.18.87-9.23.84-10.86c-.32-16.42-11.41-25.45-27.17-25.38a1.7 1.7 0 01-.92-.27q-7.75-4.98-15.86-5.48-65.75-4.01-171.3-8.96-40.89-1.92-81.76-4.03c-20.71-1.07-29.23 5.2-29.78 26.36-.87 33.35-2.75 67.13-3.83 100.73q-.17 5.21-.68 14.91c-.62 11.63-.74 24.69-1.2 34.91q-.46 10.1-.78 20.2a.36.36 0 01-.69.13l-5.92-14.87a1.64 1.64 0 00-3.04-.03c-1.71 4.03-3.18 8.8-5.09 12.33-4.07 7.47-10.75 13.43-15.63 19.7-1.22 1.57-2.76 2.2-4.41 3.2a.56.56 0 00-.19.76q2.07 3.41 5.58 5.17a.33.33 0 01.11.5q-7.25 8.84-15.24 17.02c-3.94 4.02-5.4 7.22-4.84 12.61a.47.47 0 00.62.4l4.83-1.67a.79.78 53.9 01.74.12l1.71 1.31a.54.54 0 00.76-.1q4.51-5.93 11.72-4.78a1.9 1.83-51.7 001.03-.14q2.8-1.26 5.92-1.58a.66.66 0 01.43 1.21l-4.86 3.09"/><path stroke="#5a5b5c" vector-effect="non-scaling-stroke" d="M172.49 345.46l1.09 1.24a.45.45 0 00.73-.07l1.15-1.88"/><path stroke="#111110" vector-effect="non-scaling-stroke" d="M211.71 215q-1-.8-1.91-.52a.85.84-4.7 00-.58.67c-.43 2.73-.17 5.49-.47 8.09-.69 6.06.56 11.64.48 17.33-.18 12.21-1.3 24.32-1.51 36.52-.1 6.04-1.05 14.88-.54 22.43a.74.74 0 00.54.67q.66.17 1.07-.44"/><path stroke="#919090" vector-effect="non-scaling-stroke" d="M208.79 299.75q7.1 5.3 12.42 12.36c1.56 2.07 1.45 4.22 1.25 6.63a1.06 1.05-82.3 01-1.24.95l-4.28-.76a.84.83 86.5 01-.65-.58q-.54-1.77-2.26-.86a.83.82-39.3 01-.88-.08l-3.16-2.52a.41.41 0 00-.56.04l-.22.22a.73.72-38.7 00-.1.87c1.47 2.47 3.47 2.32 5.62 3.29a1.67 1.65-3.1 01.71.63c2.78 4.59 9.85 13.2 15.62 12.4a.31.31 0 00.21-.48c-6.48-9.28-3.62-19.04-3.29-28.86q2.5-73.76 5.63-147.48c.39-9.15.28-24.04 1.36-36.05.77-8.55 2.69-13.69 10.02-17.69a.4.4 0 00-.16-.75q-7.85-.8-15.99-.35c-17.35.95-13.22 18.41-13.8 29.61-1.46 28.23-1.91 56.47-3.33 84.71"/><path stroke="gray" vector-effect="non-scaling-stroke" d="M208.79 299.75c.34-12.28.64-20.59 1.4-36.74.4-8.54.28-17.26.74-25.58q.62-11.21.78-22.43"/><path stroke="#5a5b5c" vector-effect="non-scaling-stroke" d="M240.63 144.51l-.34 8.24"/><path stroke="#696868" vector-effect="non-scaling-stroke" d="M240.29 152.75q-1.03 34.66-2.22 69.3-1.62 46.86-3.79 93.7c-.32 6.95.24 12.58 8.63 13.81q8.84 1.28 12.72 1.22"/><path stroke="#5a5b5c" vector-effect="non-scaling-stroke" d="M255.63 330.78q2.91 1.43 6.37 1.77a.83.83 0 00.91-.84l-.14-7.89a.57.57 0 00-.54-.56q-1.96-.14-2.73-2.05"/><path stroke="#696868" vector-effect="non-scaling-stroke" d="M259.5 321.21l-.21-6.21"/><path stroke="#5a5b5c" vector-effect="non-scaling-stroke" d="M259.29 315q.01-2.59 2.95-2.71 3.67-.15 6.95-.69a1.99 1.99 0 001.63-1.61l1.22-7a.69.68 7.4 01.73-.56l6.79.56a.61.61 0 01.55.57l.44 7.94a.47.47 0 00.45.44l10.29.53a.54.54 0 01.52.56l-.24 7.61a1.26 1.26 0 01-.45.92l-2.84 2.33a.78.77 53.7 00-.15 1.03l.71 1.06a.52.52 0 00.92-.1q.64-1.67 2.91-1.37"/><path stroke="#696868" vector-effect="non-scaling-stroke" d="M292.67 324.51c1 3.29 4.45 13.75 7.83 13.53"/><path stroke="#5a5b5c" vector-effect="non-scaling-stroke" d="M300.5 338.04q3.44.43 15.57 2.39 3.53.57 6.84-.89c8.07-3.56 7.88 3.57 14.62 3.28a.78.77-79.8 00.68-.48q1.51-3.7 5.75-3.59"/><path stroke="#696868" vector-effect="non-scaling-stroke" d="M343.96 338.75l2.55 1.43q.43.25.25-.22l-5.26-13.5"/><path stroke="#5a5b5c" vector-effect="non-scaling-stroke" d="M341.5 326.46q-3.28-10.38-2.91-21.13c.2-5.68.13-14.37 1.62-21.33"/><path stroke="#696868" vector-effect="non-scaling-stroke" d="M340.21 284c.62-4.03.94-8.04 2.21-11.88 2.82-8.59 5.98-21.44 12.7-29.51a1.58 1.55-77.3 01.8-.52c3.08-.88 4.96-1.88 6.4-4.99q3.68-7.94 7.24-15.98"/><path stroke="#5a5b5c" vector-effect="non-scaling-stroke" d="M369.56 221.12q2.85-2.27 6.19-2.16a.8.79 10.1 00.77-.53c1.19-3.29 2.76-10.27 5.42-12.43q1.48-1.21 3.07-2.32a1.56 1.49-9 00.58-.76q1.17-3.34 2.28-6.7c2.68-8.18 8.15-6.54 12.76-11.74 2.95-3.32 8.07-5.78 12.58-3.98"/><path stroke="#696868" vector-effect="non-scaling-stroke" d="M413.21 180.5c1.13.94 1.98 1.39 3.6 1.42 4.56.1 8.37 6.91 9.66 10.89q.26.79 1.53.4"/><path stroke="#5a5b5c" vector-effect="non-scaling-stroke" d="M428 193.21q2.27-.32 4.22.61a1.54 1.47 87.5 01.69.66l2.05 3.77"/><path stroke="#696868" vector-effect="non-scaling-stroke" d="M434.96 198.25c1.33 4.42 4.18 5.59 8.75 7.41a1.25 1.23-.4 01.66.64c1.44 3.25 3.92 7.02 3.99 10.64q.16 7.69 2.33 15.22a.98.98 0 00.61.65c8.51 2.93 11.13 15.85 13.89 23.46"/><path stroke="#5a5b5c" vector-effect="non-scaling-stroke" d="M465.19 256.27l3.58 12.16"/><path stroke="#696868" vector-effect="non-scaling-stroke" d="M468.77 268.43c1.22 10.78 3.1 20.29 2.04 32-.5 5.48.75 11.4-.78 16.81-1.16 4.11 1.03 5.1 1.15 9.01.31 10.41-2.22 18.64-7.35 27.49q-1.78 3.07-2.55 6.58a1.23 1.18 36.3 00.16.91q.53.85 1.28.38"/><path stroke="#5a5b5c" vector-effect="non-scaling-stroke" d="M462.72 361.61l2.78.35"/><path stroke="#696868" vector-effect="non-scaling-stroke" d="M465.5 361.96q6.54.89 13.12 1.66 5.63.66 5.78.65c6.4-.51 5.53-12.35 5.93-16.73q1.35-14.89 2.38-29.79"/><path stroke="#5a5b5c" vector-effect="non-scaling-stroke" d="M492.71 317.75q1.97-11.04 2.25-22.25"/><path stroke="#696868" vector-effect="non-scaling-stroke" d="M494.96 295.5l2.75-32.25"/><path stroke="#5a5b5c" vector-effect="non-scaling-stroke" d="M497.71 263.25l4-42.25"/><path stroke="#696868" vector-effect="non-scaling-stroke" d="M501.71 221l3.08-38"/><path stroke="#5a5b5c" vector-effect="non-scaling-stroke" d="M504.79 183q2.46-16.81 3.67-33.75"/><path stroke="#696868" vector-effect="non-scaling-stroke" d="M508.46 149.25q1.12-13.52.79-19.49c-.17-3.18-2.43-11.01-6.43-11.38q-6.24-.59-26.82-.84"/><path stroke="#5a5b5c" vector-effect="non-scaling-stroke" d="M476 117.54l-20.75-1.25"/><path stroke="#696868" vector-effect="non-scaling-stroke" d="M455.25 116.29l-21.96-1.04"/><path stroke="#5a5b5c" vector-effect="non-scaling-stroke" d="M433.29 115.25c-22.56-2.02-45.17-2.77-67.79-3.71"/><path stroke="#696868" vector-effect="non-scaling-stroke" d="M365.5 111.54l-22.5-.96"/><path stroke="#5a5b5c" vector-effect="non-scaling-stroke" d="M343 110.58l-67.5-3.54"/><path stroke="#696868" vector-effect="non-scaling-stroke" d="M275.5 107.04c-5.02-.27-9.93-.45-15.03-.86-12.2-.98-18.52 3.23-18.84 15.82q-.29 11.25-1 22.51"/><path stroke="#a1a2a3" vector-effect="non-scaling-stroke" d="M275.5 107.04q.18.18.23.42a.51.51 0 01-.41.61c-8.22 1.28-29.68-4.42-31.12 6.68q-1.29 9.92-1.74 28.9c-.03 1.29-.58 2.14-1.83.86M343 110.58q-2.88 1.17 1.43 1.39c2.69.13 21.47 1.14 22.57.25q.34-.27-.08-.37l-1.42-.31M433.29 115.25q-.17.23-.2.45a.5.5 0 00.47.58l20.89.91a.74.74 0 00.71-.45q.08-.2.09-.45M476 117.54q-.34.36-.24.75a.62.61 79 00.66.45c7.99-.96 15.11.25 25.64.65a1.41 1.38 65.2 01.87.33c6.2 5.25 5.62 17.59 4.44 24.71-.24 1.43-.15 3.02-.48 4.55a.42.41-83.8 00.4.51q.62.01 1.17-.24M504.79 183l-.08-1.55a.21.2 88.5 00-.2-.2h-.26a.37.37 0 00-.37.35q-1.34 19.52-3.69 38.95a.65.65 0 00.45.69q.59.18 1.07-.24M497.71 263.25l-.43.11a.66.65 82.2 00-.49.65c.02 3.25-1 6.55-1.22 9.33q-.89 11.4-1.68 22.81a.09.09 0 00.1.1l.36-.01a.36.35-86.3 00.35-.31q.04-.27.26-.43M492.71 317.75l-.29-1.53q-.09-.46-.42-.13-.51.52-.56 1.16-1.16 13.79-2.54 39.44c-.35 6.51-5.18 6.54-10.5 5.71q-6.08-.94-12.22-1.49a.66.65 11.5 00-.69.45q-.1.32.01.6M462.72 361.61q1.5-5.89 4.48-11.18c5.11-9.07 7.12-20.36 3.68-30.38a1.4 1.38 46.2 01.01-.93q1.66-4.78 1.04-11.8c-.6-6.78.98-16.49.15-23.76q-.89-7.71-3.31-15.13M465.19 256.27q-1.22-8.49-4.54-16.37c-1.68-4-4.33-5.99-7.97-7.92a1.42 1.4 3.3 01-.63-.7q-2.92-7.07-2.46-14.66c.24-4.05-3.16-6.61-3.76-10.74a1.45 1.43 7.7 00-.87-1.13c-3.2-1.33-7.56-2.38-8.54-6.18a.84.83-1.1 00-.63-.6q-.47-.11-.83.28M428 193.21c-1.97-6.92-6.17-12.53-13.94-13.27-.51-.05-.61.14-.85.56M369.56 221.12q-.69-.49-1.95.32a1.3 1.27-10.2 00-.55.77c-.65 2.75-1.03 4.38-2.8 6.94-2.09 3.04-2.36 6.48-4.72 9.71a1.68 1.67-81.5 01-.77.57c-11.44 4.19-15.17 24.64-18.89 34.8-1.16 3.16-.85 6.29-1.49 9.62a.66.66 0 00.24.65l.45.34a.25.24-62.3 00.37-.12q.21-.61.76-.72M341.5 326.46q-.37-.06-.64.1a.68.67 68.5 00-.32.76q.69 2.65 1.35 5.3c.5 2 1.99 3.7 2.07 6.13M300.5 338.04l.53-.19a.28.28 0 00.11-.45l-5-5.59a1.37 1.33 26.9 01-.34-.99q.34-4.38-3.13-6.31M259.29 315q.09-.51-.32-.79a.44.44 0 00-.69.36c0 1.55-.96 6.58 1.22 6.64M255.63 330.78l-16.09-4.25a1.62 1.56-11.8 01-.81-.51c-3.91-4.63-3.06-10.2-1.2-15.51.44-1.27-.82-3.78-.79-5.37.6-31.28 2.09-61.76 2.74-93.83q.36-17.91 1.92-33.55.14-1.45.6-2.06a.63.62 42 00-.05-.81l-.86-.88a.81.79-66.4 01-.23-.61c.42-6.09 2.97-13.88 1.21-20.29a.88.87 88.8 00-.64-.62q-.56-.14-1.14.26"/><path stroke="#696868" vector-effect="non-scaling-stroke" d="M423.14 210.69a2.61 2.61 0 00-2.61-2.61 2.61 2.61 0 00-2.61 2.61 2.61 2.61 0 002.61 2.61 2.61 2.61 0 002.61-2.61M403.166 227.249a3.91 3.39-43.5 00-5.17.232 3.91 3.39-43.5 00-.502 5.15 3.91 3.39-43.5 005.17-.232 3.91 3.39-43.5 00.502-5.15"/><path stroke="#5a5b5c" vector-effect="non-scaling-stroke" d="M435.406 242.808a3.49 3.04 19.2 00-2.296-4.019 3.49 3.04 19.2 00-4.296 1.723 3.49 3.04 19.2 002.296 4.019 3.49 3.04 19.2 004.296-1.723"/><path stroke="#696868" vector-effect="non-scaling-stroke" d="M366.56 258.55c-.73 8.4 15.04 6.67 6.08-4.88a.99.98-19.8 00-.82-.38q-4.83.24-5.26 5.26M410.42 272.85a3.33 3.33 0 00-3.33-3.33 3.33 3.33 0 00-3.33 3.33 3.33 3.33 0 003.33 3.33 3.33 3.33 0 003.33-3.33"/><path stroke="#5a5b5c" vector-effect="non-scaling-stroke" d="M442.395 290.619a4.53 3.95 111.7 005.345-2.749 4.53 3.95 111.7 00-1.995-5.669 4.53 3.95 111.7 00-5.345 2.748 4.53 3.95 111.7 001.995 5.67"/><path stroke="#696868" vector-effect="non-scaling-stroke" d="M361.448 293.408a4.58 3.95 88.4 003.82-4.688 4.58 3.95 88.4 00-4.076-4.468 4.58 3.95 88.4 00-3.82 4.688 4.58 3.95 88.4 004.076 4.468M382.073 313.966a4.32 3.69 104.3 004.643-3.275 4.32 3.69 104.3 00-2.509-5.097 4.32 3.69 104.3 00-4.643 3.275 4.32 3.69 104.3 002.509 5.097M420.939 315.732a3.34 2.91 54.3 00.414-4.41 3.34 2.91 54.3 00-4.312-1.014 3.34 2.91 54.3 00-.414 4.41 3.34 2.91 54.3 004.312 1.014M205.607 315.594a2.41 1.16 36.5 00-1.247-2.366 2.41 1.16 36.5 00-2.627-.502 2.41 1.16 36.5 001.247 2.366 2.41 1.16 36.5 002.627.502"/><path stroke="#5a5b5c" vector-effect="non-scaling-stroke" d="M267.86 314.29q3.48.77 6.97 1.39c3.07.54 5.66-.65 8.71-1.16q.65-.11.11-.49-2.31-1.62-4.2.18a1.05 1.02-63.2 01-.82.28c-1.65-.17-9.91-1.4-10.87-.71q-.53.37.1.51"/><path stroke="#696868" vector-effect="non-scaling-stroke" d="M289.73 318.14a1.38 1.38 0 00-1.09-2.37c-2.55.27-9.16 1.45-8.2 5.49a.58.57 82.1 00.58.45q5.14-.22 8.71-3.57"/><path stroke="#919090" vector-effect="non-scaling-stroke" d="M277.446 320.11a1.02 1.02 0 00-.8-1.2l-12.454-2.489a1.02 1.02 0 00-1.2.8l-.318 1.59a1.02 1.02 0 00.8 1.2l12.454 2.488a1.02 1.02 0 001.2-.8l.318-1.59M275.78 325.92a.59.59 0 00-.47-.59l-7.97-1.65a.59.59 0 00-.71.57l-.32 13.58a.59.59 0 00.89.52l8.14-4.65a.59.59 0 00.3-.5l.14-7.28"/><path stroke="#696868" vector-effect="non-scaling-stroke" d="M362.361 331.716a3.79 3.32 64 001.323-4.861 3.79 3.32 64 00-4.645-1.951 3.79 3.32 64 00-1.323 4.861 3.79 3.32 64 004.645 1.951M284.18 325c-2.73.03-4.59 2.33-3.82 4.96a.49.49 0 00.63.33l3.22-1.15a.93.92 80.1 00.61-.87l.01-2.63a.64.64 0 00-.65-.64"/><path stroke="#5a5b5c" vector-effect="non-scaling-stroke" d="M454.402 329.488a3.56 3.22-23.2 00-4.54-1.558 3.56 3.22-23.2 00-2.004 4.362 3.56 3.22-23.2 004.54 1.558 3.56 3.22-23.2 002.004-4.362"/><path stroke="#696868" vector-effect="non-scaling-stroke" d="M210.42 341.33c-.63 3.16 8.18 6.75 10.6 7.96 4.54 2.26 7.12 5.51 9.69 9.58a.43.43 0 00.71.02l.79-1.08q.31-.43.78-.68l12.76-7.03q1.55-.85-.19-1.13l-7.9-1.24q-1.72-.26-2.42 1.32c-3.6 8.19-10.83-.92-14.64-3.34q-4.05-2.57-8.29-5.19a1.25 1.25 0 00-1.89.81"/><path stroke="#5a5b5c" vector-effect="non-scaling-stroke" d="M320.21 350q-1.82 2.96-5.39 2.96a.95.91-70.9 00-.77.39l-1.94 2.62a.98.98 0 00-.1 1c3.42 7.32 16.38 16.47 22.86 20.32a1.32 1.32 0 01.59.75q.38 1.23-.71 2.17"/><path stroke="#696868" vector-effect="non-scaling-stroke" d="M334.75 380.21c-3.59 2.02-6.85 5.12-6.78 9.58q.19 14.17-.17 28.39a.7.69-89.2 00.68.71l6.06.1a.78.77 5.2 00.78-.64c1.1-6.32 8.21-7.2 12.83-4.14a1.79 1.79 0 001.01.29q1.76-.02 3.21.93a.85.84-45.3 00.94-.01c3.16-2.13 2.48-4.76 7.65-3.92"/><path stroke="#5a5b5c" vector-effect="non-scaling-stroke" d="M360.96 411.5q4.27 1.32 6.23 5.38a.72.71-16.1 00.73.4l1.65-.18a.7.7 0 00.63-.7l.01-5.4"/><path stroke="#696868" vector-effect="non-scaling-stroke" d="M370.21 411l.3-2.97a1.54 1.48-21.3 01.41-.89c4.4-4.58-.16-7.63-.57-12.14q-1.13-12.68-9.85-22.04"/><path stroke="#5a5b5c" vector-effect="non-scaling-stroke" d="M360.5 372.96l-1.96-3.71"/><path stroke="#696868" vector-effect="non-scaling-stroke" d="M358.54 369.25q-3.38-7.08-6.98-14.07c-2.8-5.44-1.46-9.23-8.58-11.72a.31.31 0 00-.41.33q.31 2.86-1.61 4.96"/><path stroke="#5a5b5c" vector-effect="non-scaling-stroke" d="M340.96 348.75q-3.05 1.05-5.97.28"/><path stroke="#696868" vector-effect="non-scaling-stroke" d="M334.99 349.03q-2.78-2.33-5.54-4.36c-4.6-3.39-8.31 1.29-9.24 5.33"/><path stroke="#a1a2a3" vector-effect="non-scaling-stroke" d="M334.99 349.03q-4.35-.68-7.89-3.55a1.22 1.22 0 00-1.73.19l-3.89 4.9a.67.67 0 01-.95.09q-.32-.27-.32-.66M360.5 372.96c-.25 3.59 2.13 4.96 3.39 7.66 1.99 4.28 4.54 6.6 4.42 11.76q-.09 3.9 0 4.74c.38 3.34 1.08 6.06.63 9.5q-.32 2.41-.41 4.85a.63.62 10.5 00.43.62l.44.15a.41.41 0 00.54-.37q.02-.48.27-.87M360.96 411.5l.04-1.13a.71.7 9.7 00-.5-.7q-1.25-.38-2.58.01-7.09 2.07-14.4 1.34-6.72-.66-9.77 5.81a1.11 1.1-84.8 01-.73.61l-1.86.49a1.19 1.19 0 01-1.47-1.41c.94-4.33-.43-7.28-.14-11.11q.61-8.21.47-16.43c-.04-2.85 3.18-4.8 5.64-7.24a.67.66 51.6 00.09-.82q-.32-.51-1-.71M358.54 369.25q-.4.37-.93.28a.97.97 0 01-.75-.61q-2.87-7.39-7.09-14.09-.3-.47-.33-1.02-.25-4.85-4.51-7.13a.75.75 0 00-.86.11q-.98.9-1.39 2.19a1.04 1.03 1 01-.71.68c-.65.18-1.01-.28-1.01-.91"/><path stroke="#696868" vector-effect="non-scaling-stroke" d="M395.1 348.29a3.14 3.14 0 00-3.14-3.14 3.14 3.14 0 00-3.14 3.14 3.14 3.14 0 003.14 3.14 3.14 3.14 0 003.14-3.14M425.156 356.814a3.99 3.56 116.4 004.963-1.991 3.99 3.56 116.4 00-1.415-5.157 3.99 3.56 116.4 00-4.963 1.991 3.99 3.56 116.4 001.415 5.157M384.08 370.28a2.54 2.54 0 00-2.54-2.54 2.54 2.54 0 00-2.54 2.54 2.54 2.54 0 002.54 2.54 2.54 2.54 0 002.54-2.54"/><path stroke="#919090" vector-effect="non-scaling-stroke" d="M237.17 451.03c11.9 2.01 23.71 4.33 35.68 6.09a.43.43 0 00.49-.43l.34-39.2a1.49 1.46-62.2 00-.26-.87q-1.51-2.24-3.71-3.83-22.7-16.5-33.37-43.1-.73-1.82-1.69-.12c-5.74 10.14-13.13 18-21.91 26.18q-2.87 2.67-5.33 4.21a.47.47 0 00-.09.73q1.74 1.75 1.35 4.38-.13.84.62.43 5.64-3.06 7.57 2.73a.85.85 0 00.68.58q3.74.62 4.69 4.44a1.18 1.15 8.2 00.57.74q3.71 2.08 3.26 6.37a.72.72 0 00.54.77q8.92 2.13 8.13 11.28a1.1 1.08-64.2 00.29.86c4.19 4.55 1.09 11.21 1.55 17.1a.73.72 3.1 00.6.66"/><path stroke="#5a5b5c" vector-effect="non-scaling-stroke" d="M424.56 374.57a5.11 5.11 0 00-5.11-5.11 5.11 5.11 0 00-5.11 5.11 5.11 5.11 0 005.11 5.11 5.11 5.11 0 005.11-5.11"/><path stroke="#696868" vector-effect="non-scaling-stroke" d="M439.75 370.96q-3.09 2.96-6.62 5.41c-1.63 1.13-1.48 4.14-2.17 5.9a1.14 1.12-88.6 01-.66.64c-4.3 1.57-5.82 9.14-6.89 14.48a1.66 1.6-51.3 00.09.98q1.94 4.58 2.76 9.45.12.67.58.17l2.92-3.23a.85.84-59 01.91-.23l.33.12a.49.49 0 00.65-.45q.04-2.54 1.75-4.65"/><path stroke="#5a5b5c" vector-effect="non-scaling-stroke" d="M433.4 399.55c4.42-3.86 10.31-1.66 15.43-1.36a1.45 1.42-25 01.79.28q5.66 4.07 6.57 10.97.06.4.36.14c3.54-2.99 8.82-5.95 12.21-10.2a1.31 1.3 62.7 00.28-.89q-.25-4.4-.31-8.81c-.07-5.06-5.49-5.62-4.99-11.96a1.42 1.4-60.2 00-.24-.91c-3.48-5.14-6.31-1.9-10.61-3.27"/><path stroke="#696868" vector-effect="non-scaling-stroke" d="M452.89 373.54l-1.07-1.41a.67.67 0 00-.8-.21q-.95.41-1.56 1.33"/><path stroke="#5a5b5c" vector-effect="non-scaling-stroke" d="M449.46 373.25q-1.72.92-3.45.17a1.26 1.26 0 01-.68-.71l-.93-2.41a.66.65-18 00-.79-.4l-3.86 1.06"/><path stroke="#a1a2a3" vector-effect="non-scaling-stroke" d="M449.46 373.25q1.31 2.28 3.43.29M433.4 399.55l-5.79 4.78a.42.41-35.7 01-.62-.1c-4.51-7.5-1.06-11.26 1.81-18.25a1.07 1.06 2.4 01.66-.6c3.39-1.08 3.58-4.33 3.89-7.32a1.12 1.11 74.6 01.43-.77l6.6-5.01a.82.81 58 00.23-1.02q-.22-.41-.86-.3"/><path stroke="#5a5b5c" vector-effect="non-scaling-stroke" d="M152.76 371.47l1.89 1.08a.99.97-41.2 00.85.05l3.54-1.47q1.59-.66-.13-.67l-5.88-.01a.55.55 0 00-.27 1.02M109.21 384.5l-1.56 1.67a1.56 1.56 0 00-.4.8l-.97 5.15a.83.83 0 01-1.44.4l-1.52-1.72a1.44 1.4 72.4 00-.86-.46c-5.49-.68-3.66 5.71-4.11 8.64q-.74 4.79-1.19 9.66a.86.86 0 01-.52.71q-1.44.59-3.42-.24"/><path stroke="#919090" vector-effect="non-scaling-stroke" d="M93.22 409.11q-1.77 2.03-1.36 4.79c.43 2.83.05 4.05-.99 6.39a1.14 1.13 46.4 00-.02.89l1.54 3.83a.86.84 83.5 00.64.52l10.71 1.9"/><path stroke="#5a5b5c" vector-effect="non-scaling-stroke" d="M103.74 427.43q15.76 3.25 31.76 5.53"/><path stroke="#696868" vector-effect="non-scaling-stroke" d="M135.5 432.96l13.79 2.09"/><path stroke="#5a5b5c" vector-effect="non-scaling-stroke" d="M149.29 435.05q9.64 2.74 19.71 3.66"/><path stroke="#696868" vector-effect="non-scaling-stroke" d="M169 438.71q.79.43 1.68.31a.45.45 0 00.37-.61q-1.88-4.85 1.16-9.12a1.82 1.81 63.8 00.33-.98c.2-5.34-2.09-9.34-.63-15.42a.91.89 28.8 00-.26-.86l-1.4-1.32"/><path stroke="#5a5b5c" vector-effect="non-scaling-stroke" d="M170.25 410.71q-2.6-2.92-.3-6.05a.37.37 0 00-.17-.57c-6.87-2.53-4.32-6.64-1.88-11.21a.99.97-44.3 00.02-.86q-1.72-3.54-5.39-1.95a1.2 1.19 44 01-.97.01q-2.44-1.01-3.34-3.57a.77.75-8.6 00-.71-.51l-1.26-.01a1.05 1.05 0 01-.89-.49q-1.94-3-1.41-6.5a1.49 1.48 3.4 00-1.52-1.7q-3.22.09-4.01-2.95a.52.51 63.8 00-.81-.28l-1.74 1.31a1.72 1.68 23.4 01-.91.35q-1.33.13-2.42-.73"/><path stroke="#919090" vector-effect="non-scaling-stroke" d="M142.54 375l-1.08-1.25"/><path stroke="#5a5b5c" vector-effect="non-scaling-stroke" d="M141.46 373.75c1.18-3.96-3.16-2.94-4.67-1.07a.91.9-67.6 01-.8.34l-2.96-.32a.93.92-70.7 00-.88.43l-1.81 2.94a.5.5 0 01-.74.12l-.81-.69"/><path stroke="#696868" vector-effect="non-scaling-stroke" d="M128.79 375.5c-2.29-1.25-6.1-7.21-8.94-3.66a1.23 1.21-29 00-.26.88q.14 1.33-.99 1.72-5.36 1.89-8.66 4.21a1.01 1.01 0 00-.42.76l-.31 5.09"/><path stroke="#a1a2a3" vector-effect="non-scaling-stroke" d="M128.79 375.5q-.5.96-1.59 1.01a1.27 1.26 65.7 01-.96-.37l-2.26-2.3a.68.68 0 00-.83-.11q-4.36 2.55-8.98 4.59c-1.19.53-2.12 1.66-2.66 2.75a1.86 1.78-35.2 00-.19.96q.21 2.76-2.11 2.47"/><path stroke="#c9cacb" vector-effect="non-scaling-stroke" d="M141.46 373.75c-3.67-1.35-6.75 3.22-2.12 5.1a1.4 1.39-66.9 001.8-.73l1.4-3.12"/><path stroke="#a1a2a3" vector-effect="non-scaling-stroke" d="M170.25 410.71q-.41-.07-.79.08a.61.6 71.6 00-.35.71q1.16 4.33 1.17 8.77c.01 3.03 1.53 5.56-.54 8.82q-.26.42-.29.92l-.45 8.7M149.29 435.05q-6.17-2.89-13.04-3.29a.62.61 6.3 00-.64.51l-.11.69"/><path stroke="#c9cacb" vector-effect="non-scaling-stroke" d="M103.74 427.43q.74-1.03-1-1.2-2.2-.21-8.48-1.46a1.34 1.3-12.2 01-.8-.5c-.92-1.23-1.47-2.4-1.13-4.05q1.1-5.3.89-11.11"/><path stroke="#696868" vector-effect="non-scaling-stroke" d="M211.41 377.64l2.13 2.81a.64.64 0 00.84.16c3.21-2-2.46-5.76-4.68-5.79a.65.65 0 00-.66.62l-.05 1.17a.61.61 0 00.62.64h1a.98.98 0 01.8.39"/><path stroke="#5a5b5c" vector-effect="non-scaling-stroke" d="M196 381.04q-3.77-1.04-5.85 1.82a.98.97 18.1 01-.78.39l-1.05.01a.98.98 0 01-.86-.51q-1.68-2.97-4.71-1.58a1.04 1.03-7.7 00-.59.77q-.6 3.5-4.56 2.86"/><path stroke="#696868" vector-effect="non-scaling-stroke" d="M177.6 384.8q-.84-.22-1.53 0a.89.87 87.9 00-.6.66l-2.83 12.67a.71.71 0 00.36.77q2.09 1.11 2.47 3.5.07.48-.03.95-.82 3.66 1.35 6.72a.49.49 0 00.77.03q2.04-2.4 4.89-3.7a1.36 1.36 0 01.89-.09l2.41.57a.8.78-71.2 00.89-.45l1.65-3.68"/><path stroke="#5a5b5c" vector-effect="non-scaling-stroke" d="M188.29 402.75q4.3-1.65 8.19-4.09c1.56-.98 2.9-.93 4.56-1.66"/><path stroke="#696868" vector-effect="non-scaling-stroke" d="M201.04 397q2.29-2.48 5.64-4.31 2.19-1.19 2.35-3.69"/><path stroke="#5a5b5c" vector-effect="non-scaling-stroke" d="M209.03 389q-.5-3.06-2.71-5.03a.95.94 56.8 00-.93-.2l-2.63.82a1.48 1.44-42.5 01-.98-.03q-.96-.37-1.5-1.09"/><path stroke="#696868" vector-effect="non-scaling-stroke" d="M200.28 383.47c-.25-.62-.95-4.21-1.58-4.38a.87.87 0 00-.81.2l-1.89 1.75"/><path stroke="#a1a2a3" vector-effect="non-scaling-stroke" d="M200.28 383.47q-2.74-.09-4.28-2.43M209.03 389q-1.63.6-2.16 2.29a1.17 1.17 0 01-.58.68c-1.16.58-6.19 2.67-5.25 5.03M188.29 402.75q-.01-.61-.93-.88a.79.78-75.6 00-.99.59q-.74 3.46-4.39 2.74a1.39 1.35 33.9 00-.98.18l-1.26.77a.83.82 46.5 01-.89-.03c-2.15-1.49-1.41-5.28-3.91-7.6a1.09 1.05 23 01-.35-.83q.19-6.73 3.01-12.89"/><path stroke="#5a5b5c" vector-effect="non-scaling-stroke" d="M487.56 384.3q-8.03-2.73-16.51-3.41-.74-.06-.29.53 4.11 5.39 3.41 12.28a.75.75 0 001.24.64q5.65-4.99 12.04-8.87c.15-.1.34-.47.32-.63a.63.17 83.7 00-.21-.54"/><path stroke="#696868" vector-effect="non-scaling-stroke" d="M399.5 382.21c-2.93 3.64-6.77 4.26-10.87 5.83a1.61 1.6-83.3 00-.74.59q-3.46 5.09-4.93 11.12"/><path stroke="#5a5b5c" vector-effect="non-scaling-stroke" d="M382.96 399.75l-1.5 1.5"/><path stroke="#696868" vector-effect="non-scaling-stroke" d="M381.46 401.25c-2.79 2.68-1.99 4.77-6.28 6.56a1.68 1.68 0 00-1.04 1.52l-.19 7.75a1.2 1.15-67.8 00.34.86q.78.79 2.05 1.14"/><path stroke="#5a5b5c" vector-effect="non-scaling-stroke" d="M376.34 419.08q4.32.57 5.28 4.61a.89.89 0 00.59.63q12.11 3.8 14.37 16.33c.23 1.25-.13 3.14.65 4.58a1.66 1.63 89.1 00.68.67c5.01 2.65-.46 16.86-2.83 16.16a2.02 1.86 12.5 01-1.46-2.09l1.43-9.79a.5.49 13.2 00-.34-.54c-3.14-1.02-2.75-6.58-3.13-8.4q-1.49-7.14-8-10.82a1.95 1.84 56.9 00-.99-.24q-4.97.18-6.1-4.49a.8.8 0 00-.62-.6q-2.63-.54-4.4-2.55a1.05 1.02 65.7 00-.89-.35l-5.26.55"/><path stroke="#696868" vector-effect="non-scaling-stroke" d="M365.32 422.74c-2.21-1.81-3-7.54-6.57-5.97a1.29 1.26-1.5 00-.65.67q-1.03 2.47-3.98 3.61"/><path stroke="#5a5b5c" vector-effect="non-scaling-stroke" d="M354.12 421.05l-6.99-.76a1.29 1.24 71.3 01-.81-.42q-1.08-1.19-2.57-1.83"/><path stroke="#696868" vector-effect="non-scaling-stroke" d="M343.75 418.04q-3.73-.37-3.79 3.71"/><path stroke="#5a5b5c" vector-effect="non-scaling-stroke" d="M339.96 421.75l-.3 1.02a1.13 1.13 0 01-.63.71q-2.14.94-4.41.55a1.31 1.27-58.3 00-1.02.26q-2.29 1.8-5.09.66a.72.72 0 00-.86.23q-.8 1.04-.19 2.24a.9.9 0 01-.13 1.01q-3.78 4.26-9.37 4.87a.62.62 0 00-.55.54l-.69 5.34a1.18 1.15 79.8 01-.58.86l-4.1 2.26a1.02 1.02 0 00-.47.61q-.77 2.76-3.07 4.38"/><path stroke="#696868" vector-effect="non-scaling-stroke" d="M308.5 447.29q-.37-.15-.74-.06a.54.54 0 00-.42.57l.53 6.15a1.33 1.31-26.2 01-.35 1.01l-1.96 2.06a.99.96 61.1 00-.24.88q.5 2.19 2.09 3.79a1.18 1.15-67.8 01.35.86l-.01.34a.68.68 0 00.58.68l12.92 1.97"/><path stroke="#5a5b5c" vector-effect="non-scaling-stroke" d="M321.25 465.54c19.26 4.04 34.39 7.31 50.49 6.14 7.21-.52 20.93-5.92 26.05-10.51q9.25-8.29 18.26-16.81c2.21-2.08 7.67-5.73 8.95-9.63 1.23-3.75 1.27-11.82-1.78-16.25a1.21 1.21 0 01-.19-.9q.51-2.56-.57-5.08"/><path stroke="#696868" vector-effect="non-scaling-stroke" d="M422.46 412.5q-.96-6.76-3.95-13.02a1.75 1.74 2.5 00-.69-.75q-4.6-2.68-5.24-8.13a1.55 1.5 19.4 00-.47-.94q-.95-.89-2.11-1.12"/><path stroke="#5a5b5c" vector-effect="non-scaling-stroke" d="M410 388.54q-2.29-.11-3.67-1.78a1.44 1.44 0 01-.34-.9q-.15-4.75-4.98-4.8a1.12 1.1 20 00-.88.4l-.63.75"/><path stroke="#a1a2a3" vector-effect="non-scaling-stroke" d="M410 388.54q1.01 6.97 5.09 10.13c2.11 1.64 3.06 1.72 3.84 4.47q1.29 4.55 2.17 9.15a.6.59-7.6 00.63.48q.35-.02.73-.27M321.25 465.54q.46.03.53-.6a.54.54 0 00-.46-.59c-4.74-.63-13.11-.44-13.73-6.8a1.29 1.28 60.7 01.25-.9q3.23-4.31.66-9.36M339.96 421.75q-.13.75.32 1.03a.54.54 0 00.74-.18l2.73-4.56M354.12 421.05q2.98 1.48 4.77-1.15a.79.78-38.1 011.38.16q1.55 4.18 5.05 2.68M376.34 419.08q-1.54-2.55-1.07-4.58.9-3.99 4.16-7.22c1.9-1.9 2.87-3.56 2.03-6.03M382.96 399.75q-.03.43.73.58a.74.73-78.5 00.86-.57q1.25-5.59 4.45-10.32a1.78 1.74-82.1 01.84-.65l8.65-3.1a.8.8 0 00.52-.86q-.08-.65.44-.81a.87.85 84 00.6-.75q.06-.7-.55-1.06"/><path stroke="#696868" vector-effect="non-scaling-stroke" d="M280.75 420.54l-1.95-1.07a.3.29 15.2 00-.44.25l-.44 38.05a.51.5 5.2 00.43.51l3.42.55"/><path stroke="#5a5b5c" vector-effect="non-scaling-stroke" d="M281.77 458.83l17.28 3.11a.97.97 0 001.09-1.26q-1.66-4.99 2.25-8.11a.73.71-30.8 00.22-.83c-1.64-4.05-.01-6.88-.09-10.53q-.24-11.46.44-22.93a1.32 1.29 70.1 01.39-.86l6.36-6.17"/><path stroke="#919090" vector-effect="non-scaling-stroke" d="M309.71 411.25l.32 24.61a.47.46-36.8 00.91.13l1.1-3.49"/><path stroke="#5a5b5c" vector-effect="non-scaling-stroke" d="M312.04 432.5l3.7-4.32a1.52 1.52 0 01.77-.48l4.06-1a1.03 1-87.1 00.72-.67c.96-2.96 2.27-5.54 2.22-8.74q-.22-13.39.27-26.74a.42.42 0 00-.68-.34c-9.59 7.77-18.56 16.45-28.27 23.94-4.98 3.86-6.5 8.85-14.08 6.39"/><path stroke="#c9cacb" vector-effect="non-scaling-stroke" d="M312.04 432.5q-1.14-2.9-.75-6"/><path stroke="#5a5b5c" vector-effect="non-scaling-stroke" d="M311.29 426.5l8.59-8.43a1.43 1.42-21.3 00.43-.97l.82-20.09q.04-.98-.67-.3l-7.98 7.67q-.37.35-.52.83l-.5 1.54"/><path stroke="#c9cacb" vector-effect="non-scaling-stroke" d="M311.46 406.75l-.69-.72a.36.35-64.6 00-.61.22l-.45 5"/><path stroke="#a1a2a3" vector-effect="non-scaling-stroke" d="M281.77 458.83q1.2-1.44-1.3-1.04a1.29 1.29 0 01-1.49-1.32q.28-8.04.67-16.09c.28-5.58-.01-11.06-.12-16.64q-.02-.48.19-.92l1.03-2.28"/><path stroke="#919090" vector-effect="non-scaling-stroke" d="M311.29 426.5l.17-19.75"/><path stroke="#696868" vector-effect="non-scaling-stroke" d="M432.17 408.93q-1.8.99-1.83 3.13a1.41 1.41 0 01-.3.84l-2.14 2.74a.97.96-39.9 00-.1 1.06q3.64 6.87 2.21 14.55-.13.67.4.24l2.72-2.18"/><path stroke="#5a5b5c" vector-effect="non-scaling-stroke" d="M433.13 429.31q5.53-3.75 9.67-8.07"/><path stroke="#696868" vector-effect="non-scaling-stroke" d="M442.8 421.24q4.01-3.08 7.64-6.21c2.29-1.97-.34-12.05-3.19-12.57"/><path stroke="#5a5b5c" vector-effect="non-scaling-stroke" d="M447.25 402.46l-5.81-.24q-.49-.02-.91-.27-2.31-1.36-3.96 1.09-.23.35-.29.76-.57 3.74-4.11 5.13"/><path stroke="#a1a2a3" vector-effect="non-scaling-stroke" d="M447.25 402.46q-.52-.04-.86.24a.68.67 47.1 00-.03 1.01q4.1 3.81 3.86 9.55a.79.79 0 01-.57.73q-5.55 1.68-6.85 7.25M433.13 429.31q-1.71-6.02-2.12-12.24c-.18-2.69.98-5.27 1.16-8.14"/><path stroke="#696868" vector-effect="non-scaling-stroke" d="M183.27 414.63q-1.96-.92-2.35 1.6-.64 4.14-2.04 6.39"/><path stroke="#5a5b5c" vector-effect="non-scaling-stroke" d="M178.88 422.62q-1.09 2.83-.58 6.3a1.48 1.43 58.5 01-.23 1.02l-2.23 3.36a1.15 1.13-33.5 00-.17.8l.85 5.32a.85.84 1 00.68.7l25.29 4.61"/><path stroke="#919090" vector-effect="non-scaling-stroke" d="M202.49 444.73l27.32 4.84q1.09.19.31-.59l-.22-.22a1.23 1.22 23.2 01-.36-.89q.07-4.5 2.02-8.49a.62.6-57.9 00-.16-.74q-1.83-1.51-2.79-3.65c-1.2-2.72 2.95-6.4-2.51-7.8"/><path stroke="#5a5b5c" vector-effect="non-scaling-stroke" d="M226.1 427.19q-2.78-.21-5.35-1.98"/><path stroke="#696868" vector-effect="non-scaling-stroke" d="M220.75 425.21l-.16-5.65a.81.81 0 00-.5-.72q-2.88-1.2-4.34-4.13"/><path stroke="#5a5b5c" vector-effect="non-scaling-stroke" d="M215.75 414.71q-3.71-.84-3.79-4.53-.01-.47-.39-.19c-4.74 3.52-7.52-1.05-8.51-5.04a1.54 1.49-77.8 00-.51-.82c-4.69-3.85-4.81 4.69-10.24 3.58a.58.58 0 00-.66.36c-1.37 3.45-3.73 9.55-8.38 6.56"/><path stroke="#a1a2a3" vector-effect="non-scaling-stroke" d="M215.75 414.71c-.76 2.78 1.85 4.25 4.1 5.47a.64.62 18.3 01.33.64l-.59 4.73a.35.35 0 00.61.28l.55-.62"/><path stroke="#c9cacb" vector-effect="non-scaling-stroke" d="M226.1 427.19q.23 1.63 1.43 2.8a.65.65 0 01.09.81q-.63 1 .14 1.92.47.56-.26.53l-.25-.01q-.75-.03-.35.6l3.51 5.57a.69.67-47.2 01.02.7q-2.01 3.56-2.15 7.69a.36.35 4.4 01-.4.34q-14.22-2.12-23.64-4.32-1.76-.41-1.75.91"/><path stroke="#a1a2a3" vector-effect="non-scaling-stroke" d="M178.88 422.62q2.64 1.21 2.92-1.85.36-3.85 1.47-6.14"/><path stroke="#696868" vector-effect="non-scaling-stroke" d="M74.62 422.97l11.55 2.12q.93.17.34-.56-2.36-2.92-1.35-6.8a.45.45 0 00-.63-.52c-1.33.67-10.71 4.27-10.21 5.51a.4.4 0 00.3.25M130.62 483.6l1.86-.12a1.22 1.19-70.1 00.81-.39q.39-.42.13-.78a1.11 1.11 0 01-.22-.72c.28-5.65 1.77-23.89-1.16-28.09"/><path stroke="#919090" vector-effect="non-scaling-stroke" d="M132.04 453.5q.27-1.24-.6-1.41-16.65-3.19-33.2-6.78-2.65-.58-5.28-.48a1.16 1.15 20.8 00-.78.35l-1.08 1.14q-.52.56.23.69 15.99 2.84 31.91 6.05 3.09.62 5.69 1.47a1.74 1.74 0 011.2 1.73q-.64 13.68.49 27.34"/><path stroke="#d7d7d7" vector-effect="non-scaling-stroke" d="M132.04 453.5l-.89 1.56a.67.67 0 00.15.84q1.36 1.18.16 2.43a.9.89 61.3 00-.23.81c.6 2.7-.28 5.01-.12 7.42q.56 8.43-.49 17.04"/><path stroke="#919090" vector-effect="non-scaling-stroke" d="M97.38 461.93l.22 2.15a.67.67 0 00.55.59q10.1 1.81 20.15 3.96c1.14.24 1.63.06 2.31-.8q1.3-1.63 2.65-.04c2.21 2.59-.71 5.54-2.94 6.47q-1.58.65-4.18.08-11.97-2.61-24.04-4.68a1.63 1.59 69.2 01-.8-.37l-.98-.82q-.57-.48-.57.26l-.01 6.31a1.3 1.3 0 001.04 1.27l35.02 6.82a1.24 1.24 0 001.47-1.2l.31-23.1a.74.73 4.6 00-.62-.72c-12.3-1.87-24.53-5.44-36.83-6.7a.41.4 3.2 00-.45.4l.1 11.88q.01.9.73.36l3.42-2.54a1.44 1.44 0 01.87-.27l1.89.05a.72.71-1.8 01.69.64M141.265 476.16a2.7 1.32 107.8 002.082-2.167 2.7 1.32 107.8 00-.432-2.974 2.7 1.32 107.8 00-2.082 2.168 2.7 1.32 107.8 00.432 2.974"/><path stroke="#696868" vector-effect="non-scaling-stroke" d="M150.33 472.89l-1.08-.64a.46.45 20.4 00-.69.31q-.42 2.39 1.43 3.62a1.46 1.44-30.5 00.95.24q3.47-.35 4.37 2.79.32 1.13.81.07l2.21-4.81a.48.48 0 00-.39-.67l-6.87-.66q-.4-.04-.74-.25"/><path stroke="#919090" vector-effect="non-scaling-stroke" d="M161.76 481.82c.63 1.24 1.79 1.44 3.01 1.07a.69.68-8.7 00.49-.65l-.03-6.2a1.2 1.2 0 00-1.98-.9q-3.4 2.94-1.49 6.68"/><path stroke="#696868" vector-effect="non-scaling-stroke" d="M139.75 488.71c-4.18 6.37-11.85 19.31 1 22.58"/><path stroke="#5a5b5c" vector-effect="non-scaling-stroke" d="M140.75 511.29q21.51 4.43 43.05 8.72 16.54 3.3 32.95 7.2"/><path stroke="#696868" vector-effect="non-scaling-stroke" d="M216.75 527.21q4.76 1.28 9.5.23a1.72 1.7-72.7 00.85-.45c.72-.7 1.62-1.44 2.08-2.32q5.4-10.43 9.84-21.52"/><path stroke="#5a5b5c" vector-effect="non-scaling-stroke" d="M239.02 503.15l2.06-4.76a.79.78-70.6 00-.51-1.07l-6.68-1.87a.44.44 0 00-.55.31c-1.21 4.59-3.17 13.3-8.93 14.91-3.44.96-9.34-.9-13.58-1.19"/><path stroke="#696868" vector-effect="non-scaling-stroke" d="M210.83 509.48q-6.47-1.99-13.21-2.74"/><path stroke="#5a5b5c" vector-effect="non-scaling-stroke" d="M197.62 506.74q-6.61-2.21-13.59-3.06"/><path stroke="#696868" vector-effect="non-scaling-stroke" d="M184.03 503.68l-35.49-8.03"/><path stroke="#5a5b5c" vector-effect="non-scaling-stroke" d="M148.54 495.65q-.65-3.53.15-5.73 1.62-4.44 4.67-7.75a.58.58 0 00-.36-.97l-5.91-.71a1.12 1.1 27.1 00-.9.28q-3.83 3.5-6.44 7.94"/><path stroke="#a1a2a3" vector-effect="non-scaling-stroke" d="M148.54 495.65q1.07 3 4.95 3.88c4.08.92 8.37.43 12.57 1.55 3.61.95 6.54 1.25 10.6 2.53q3.6 1.13 7.37.07M197.62 506.74q6.09 3.91 13.21 2.74M239.02 503.15q-3.4 1.09-4.68 5.67-1.37 4.94-8.4 17.2a.81.78-73.7 01-.7.4l-7.74-.16a.65.64-81.9 00-.63.48l-.12.47M140.75 511.29q.72-.79.4-1.55a.96.95-4.8 00-.67-.56q-3.04-.67-4.94-3.09a1.54 1.5 26.9 01-.33-.97c.04-6.34 2.97-9.98 6.07-14.67a.52.51 35.2 00-.12-.69l-1.41-1.05"/><path stroke="#696868" vector-effect="non-scaling-stroke" d="M329.75 496.04c-.74 10.46-.49 20.98-.72 31.47a.97.96 78.2 001.37.9c3.41-1.57 2.13-28.12 1.76-32.33a.94.94 0 00-.38-.67l-.28-.2"/><path stroke="#919090" vector-effect="non-scaling-stroke" d="M331.5 495.21q.32-1.92-.86-3.39a1.42 1.4 75.8 00-.81-.49q-29.16-6.08-38.57-7.87c-1.3-.25-7.19-1.17-6.62 1.94a1.06 1.05-82.5 00.56.74q1.06.52 2.56.81 15.18 2.84 37.92 7.63 1.68.35 4.07 1.46"/><path stroke="#d7d7d7" vector-effect="non-scaling-stroke" d="M331.5 495.21l-1.75.83"/><path stroke="#919090" vector-effect="non-scaling-stroke" d="M229.01 493.54a.97.97 0 001.49-.82v-4.49a.58.57 3.4 00-.51-.57l-1.92-.2a.72.71 13 00-.75.46q-1.33 3.69 1.69 5.62"/><path stroke="#696868" vector-effect="non-scaling-stroke" d="M235.45 491.85q4.82.43 6.3.88 1.42.42 1.86-1.34a1.29 1.29 0 00-1-1.56l-6.93-1.36a.77.76-71.2 00-.84.42q-.78 1.57-.41 3.22a.22.22 0 00.29.15q.23-.1.31-.22a.45.44 20 01.42-.19"/><path stroke="#919090" vector-effect="non-scaling-stroke" d="M254.412 491.958a.8.8 0 00-.713-.878l-5.67-.586a.8.8 0 00-.878.714l-.504 4.874a.8.8 0 00.714.878l5.67.586a.8.8 0 00.878-.714l.504-4.874M291.91 501.65q2.54 1.17 1.92 3.83a.53.53 0 00.42.64l22.51 4.24a.73.72-65.1 00.72-.27c1.45-1.84 3.15-3.65 5.35-1.22a1.1 1.09 28.3 01.27.88q-1.16 7.82-9.36 6.38-12.77-2.24-25.94-4.96a1.07 1.07 0 00-1.29 1.05l-.02 4.79a.69.69 0 00.54.67c12.59 2.65 25.48 4.42 37.81 7.67a.47.47 0 00.59-.44l.77-25.6a.7.69-84.1 00-.56-.7q-11.65-2.15-23.35-4.01c-3.63-.58-9.98-2.06-15.15-2.43a.61.61 0 00-.65.6l-.11 12.48a.46.46 0 00.86.22q1.27-2.4 3.6-3.77a1.18 1.17 42.1 011.07-.05"/><path stroke="#5a5b5c" vector-effect="non-scaling-stroke" d="M327.24 142.54c-11.57-1.05-21.62.73-26.99 11.84a.53.51 23.9 01-.67.25c-2.77-1.15-4.92-2.27-8.06-1.95q-3.92.41-7.79 1.06"/><path stroke="#a1a2a3" vector-effect="non-scaling-stroke" d="M283.73 153.74q-3.15.09-6.02 2.46-1.6 1.32-1.67 3.05"/><path stroke="#5a5b5c" vector-effect="non-scaling-stroke" d="M276.04 159.25l-2.29 3.04"/><path stroke="#a1a2a3" vector-effect="non-scaling-stroke" d="M273.75 162.29q-1.1-.31-1.59.5c-5.2 8.68-4.24 23.39 6.53 28.02.63.27.97.89 1.85.19"/><path stroke="#5a5b5c" vector-effect="non-scaling-stroke" d="M280.54 191l1.46.29"/><path stroke="#a1a2a3" vector-effect="non-scaling-stroke" d="M282 191.29q.49 1.12 1.61 1.74a1.72 1.72 0 01.66.69q4.3 8.54 13.18 11.08c5.37 1.54 8.98 2.86 13.53 2.96 2.37.06 5.32-.73 8.06-.8a1.63 1.59-64.1 00.97-.35q1.63-1.25 3.81-.5a1.07 1.06-53.8 001-.16q.32-.26.47-.7"/><path stroke="#5a5b5c" vector-effect="non-scaling-stroke" d="M325.29 205.25l1.71.04"/><path stroke="#a1a2a3" vector-effect="non-scaling-stroke" d="M327 205.29c.7 2.64 9.8 1.68 12.45 1.37q2.27-.27 4.95-3.16a.93.91-63.3 01.82-.28c7.13 1.17 13.84-.88 17.53-7.43 3.85-6.83 6.68-18.22 2.57-25.33-1.79-3.1-6.73-4.9-9.99-5.99a.87.85 5.3 01-.58-.68q-.84-5.18-5.88-6.18a.99.98-3.5 01-.75-.66l-1.32-4.09q-.14-.43-.42-.78c-2.35-2.97-7.8-5.67-11.06-7.91q-3.23-2.22-8.08-1.63"/><path stroke="#696868" vector-effect="non-scaling-stroke" d="M327 205.29q1.17-.49 2.2.25a1.49 1.43-27.7 00.9.26l9.58-.38a1.45 1.44-66.8 00.91-.37q1.8-1.61 3.75-3.02c1.9-1.38 3.8.33 5.69.28 9.21-.26 12.59-6.68 14.79-14.88 2.11-7.87 1.96-18.12-7.41-21.23q-1.61-.53-3.19-1.15a.98.98 0 01-.6-.73q-1.02-5.31-6.66-5.09a.48.48 0 01-.5-.48c.04-8.99-11.18-14.05-19.22-16.21M325.29 205.25q-.84-1.36-2.05-.99c-8.25 2.55-12.06 2.59-21.39.54-6.81-1.49-14.68-5.53-16.8-12.74a.72.71-4.7 00-.62-.52l-2.43-.25M280.54 191c-11.75-5.53-12.37-18.46-6.79-28.71M276.04 159.25q3.35-3.24 7.69-5.51"/><path stroke="#919090" vector-effect="non-scaling-stroke" d="M350.64 169.23l.24-.24a1 .99-27.2 00.28-.86q-1.2-7-8.16-5.66a1.07 1.07 0 01-1.26-1.24q.54-3.02-.17-5.17c-1.73-5.23-13.77-9.23-18.37-9.74q-14.23-1.61-19.95 11.34a.67.67 0 01-.8.38q-5-1.36-6.99 3.24-.67 1.53-.68-.14l-.04-3.27a.61.6 3.2 00-.54-.6q-12.47-1.41-17.71 10.42-5.09 11.51 3.79 17.69c2.44 1.7 5.92 1.56 8.84 1.73a.54.54 0 01.51.52c.3 10.71 14.39 13.57 23.01 13.19 4.26-.19 6.46.11 8.84-2.95a.55.55 0 01.79-.08c8.21 6.94 17.22 3.87 24.58-2.28q.72-.61.63.33l-.12 1.25a.47.46 87.6 00.54.5c2.78-.45 7.67-.27 9.02-3.41 2.47-5.76 6.84-12.91 3.63-19.45q-2.62-5.35-9.6-4.82-1.08.08-.31-.68"/><path stroke="#a1a2a3" vector-effect="non-scaling-stroke" d="M368.07 257.12c-.91 4.07 4.19 6.21 5.29 3.21a1.34 1.33 46.6 00.02-.87l-.91-2.74a1.07 1.06-87.5 00-.58-.64q-1.75-.79-3.28.24a1.3 1.29 79.3 00-.54.8M361.8 286.74c-4.29-.55-2.38 3.16-1.51 4.99a.5.49-24.2 00.65.24q3.28-1.43 1.76-4.58a1.18 1.16 80.3 00-.9-.65M380.94 310.82l2.17 1.21a.9.89 45.3 00.86.01c1.8-.94.46-3.14-.53-4.06a.63.63 0 00-.91.05l-1.73 2.04a.5.5 0 00.14.75M419.035 314.206a1.37 1.22 98.2 001.402-1.182 1.37 1.22 98.2 00-1.012-1.53 1.37 1.22 98.2 00-1.403 1.182 1.37 1.22 98.2 001.013 1.53M361.625 329.538a1.41.73 55.2 00-.206-1.575 1.41.73 55.2 00-1.404-.74 1.41.73 55.2 00.206 1.574 1.41.73 55.2 001.404.74"/><path stroke="#c9cacb" vector-effect="non-scaling-stroke" d="M120.719 385.49a3.34 3.02-42.6 00-4.503.037 3.34 3.02-42.6 00-.415 4.484 3.34 3.02-42.6 004.503-.038 3.34 3.02-42.6 00.415-4.484M142.89 391.21a3.31 3.31 0 00-3.31-3.31 3.31 3.31 0 00-3.31 3.31 3.31 3.31 0 003.31 3.31 3.31 3.31 0 003.31-3.31M159.623 394.84a3.49 3.1 10.4 00-2.873-3.68 3.49 3.1 10.4 00-3.993 2.42 3.49 3.1 10.4 002.873 3.68 3.49 3.1 10.4 003.993-2.42M122.22 409.26q3.7 1.01 4.96-2.25a.9.9 0 00-.28-1.03l-3.08-2.46a.83.83 0 00-1.26.28l-1.47 2.93a1.79 1.79 0 001.13 2.53"/><path stroke="#5a5b5c" vector-effect="non-scaling-stroke" d="M153.49 407.24c1.34 2.6 4.26 7.62 7.39 5.51a1.32 1.28 80.5 00.54-.78c1.39-5.36-5.63-9.77-7.92-5.63a.99.96 46.5 00-.01.9"/><path stroke="#c9cacb" vector-effect="non-scaling-stroke" d="M149.43 410.6a3.2 3.2 0 00-3.2-3.2 3.2 3.2 0 00-3.2 3.2 3.2 3.2 0 003.2 3.2 3.2 3.2 0 003.2-3.2M107.26 413.423a2.39 2.39 0 00-.176-3.375l-1.338-1.205a2.39 2.39 0 00-3.375.177l-1.312 1.457a2.39 2.39 0 00.177 3.375l1.338 1.205a2.39 2.39 0 003.375-.177l1.312-1.457M133.224 427.925a3.49 3.16 60.4 001.024-4.596 3.49 3.16 60.4 00-4.472-1.474 3.49 3.16 60.4 00-1.024 4.596 3.49 3.16 60.4 004.472 1.474M161.056 428.781a4.28 3.94 30.8 00-1.659-5.575 4.28 3.94 30.8 00-5.693 1.192 4.28 3.94 30.8 001.659 5.576 4.28 3.94 30.8 005.693-1.192"/><path stroke="#a1a2a3" vector-effect="non-scaling-stroke" d="M358.67 429.59c-3.92-1.96-3.17 7.27-.1 6.63a.24.23-89.6 00.18-.19l.04-.28"/><path stroke="#5a5b5c" vector-effect="non-scaling-stroke" d="M358.79 435.75c5.46 6.44 11.33-8.64-.12-6.16"/><path stroke="#696868" vector-effect="non-scaling-stroke" d="M358.79 435.75q-2.59-3.15-.12-6.16"/><path stroke="#5a5b5c" vector-effect="non-scaling-stroke" d="M335.987 432.483a4.26 3.69-21 00-5.3-1.918 4.26 3.69-21 00-2.654 4.972 4.26 3.69-21 005.3 1.918 4.26 3.69-21 002.654-4.972M321.53 444.48a2.81 2.81 0 00-2.81-2.81 2.81 2.81 0 00-2.81 2.81 2.81 2.81 0 002.81 2.81 2.81 2.81 0 002.81-2.81M385.036 449.395a3.68 3.31 42.9 00-.443-4.93 3.68 3.31 42.9 00-4.949-.08 3.68 3.31 42.9 00.443 4.93 3.68 3.31 42.9 004.949.08M352.74 449.33a3.59 3.59 0 00-3.59-3.59 3.59 3.59 0 00-3.59 3.59 3.59 3.59 0 003.59 3.59 3.59 3.59 0 003.59-3.59M331.262 453.76a4.41 3.95-38.9 00-5.913-.304 4.41 3.95-38.9 00-.951 5.843 4.41 3.95-38.9 005.912.305 4.41 3.95-38.9 00.952-5.843M367.83 458.25q-4.84 5.35 2.48 7.56"/><path stroke="#a1a2a3" vector-effect="non-scaling-stroke" d="M370.31 465.81q5.46-.74 3.97-5.61-.64-2.12-2.18-2.98-2.2-1.23-4.27 1.03"/><path stroke="#696868" vector-effect="non-scaling-stroke" d="M370.31 465.81q4.02-2.34 2.69-5.81-1.17-3.04-5.17-1.75"/><path stroke="#5a5b5c" vector-effect="non-scaling-stroke" d="M285.24 428.68l.34 20.12a.54.54 0 00.91.38l11.4-10.7a2.14 2.13 67.7 00.68-1.63l-.59-18.83a.36.36 0 00-.5-.33c-3.79 1.56-8.23 7.27-11.72 9.92a1.32 1.31 71.2 00-.52 1.07"/></g><path fill="#929497" d="M0 0h591v2.56q-.39-.87-.28-1.83a.48.48 0 00-.48-.53q-.26 0-.53.3-.86.25-1.71.25Q294 .97 0 .94V0z"/><path fill="#fff" d="M591 2.56V591H8.19q-2.38-.63-4.75 0H0v-1.06q4 .14 8 .14 290.83.17 581.54.17a.71.71 0 00.71-.71V1.66a1.26 1.25-62.4 00-.22-.71l-.32-.45q.27-.3.53-.3a.48.48 0 01.48.53q-.11.96.28 1.83z"/><path d="M589.71.5l.32.45a1.26 1.25-62.4 01.22.71v587.88a.71.71 0 01-.71.71q-290.71 0-581.54-.17-4 0-8-.14V.94q294 .03 588-.19.85 0 1.71-.25zm-4.21 5.02a.26.26 0 00-.26-.26H5.5a.26.26 0 00-.26.26v579.72a.26.26 0 00.26.26h579.74a.26.26 0 00.26-.26V5.52z"/><path fill="#fcfee0" d="M585.5 585.24a.26.26 0 01-.26.26H5.5a.26.26 0 01-.26-.26V5.52a.26.26 0 01.26-.26h579.74a.26.26 0 01.26.26v579.72zM39.17 24.85c-10.42 4-11.26 12.38-11.64 22.25q-.77 19.92-.5 39.41a1.26 1.26 0 002.15.88l62.72-61.7a.94.93-50 00-.12-1.44c-1.09-.76-3.15-.36-4.03-.4q-19.12-.95-38.21-.44-7.11.19-10.37 1.44zm139.007 69.029a1.01.81 69.9 00.414-1.227 1.01.81 69.9 00-1.108-.67 1.01.81 69.9 00-.414 1.226 1.01.81 69.9 001.108.67zM175.46 344.75l-2.97.71q-5.61-1.68-9.43 2.34-3.04 3.2-5.56 5.31c-4.98 4.18-8.21 9.88-11.26 15.57a.35.35 0 01-.56.07q-4.84-5.14-10.78-1.81c-1.66.92-2.98 1.06-4.69 1.63a.78.77-29.4 01-.81-.22q-5.89-6.44-12.15-1.73c-3.06 2.3-11.18 6.52-12.52 9.68-1.04 2.44-.63 5.18-2.15 7.36a1.36 1.36 0 01-.77.52c-12.76 3.09-6.1 10.98-10.21 18.53a1.83 1.81.4 01-.73.71q-3.34 1.76-5.18 5.05a1.57 1.54 2.7 01-.76.68c-4.39 1.86-23.08 8.55-18.11 16.2q.28.42.33.92.67 6.99 1.41 13.99c1.35 12.76.98 25.64 1.1 38.44a1.58 1.57-27.5 01-.29.91c-1.39 1.94-3.32 3.18-3.68 5.55-.96 6.28 4.17 9.49 9.3 10.41q26.28 4.7 52.82 9.81a.84.84 0 01.67.68c1.7 9.46 10.54 10.56 18.52 12.18q34.93 7.09 69.81 14.45c3.86.81 7.37.62 11.18.31a1.41 1.41 0 00.92-.46l4.12-4.66a1.06 1.04-67.5 01.85-.36q4.48.29 10.36 1.51 39.39 8.18 106.05 21.41c12.28 2.44 26.31 3 37.36-3.44q4.13-2.4 12.61-10.73c30.32-29.79 60.7-59.55 92.51-87.74 2.55-2.26 2.71-4.99 1.97-8.46q-1.1-5.21-1.01-11.32.2-13.61-.11-38.41a1.48 1.44 64.4 01.3-.89c2.78-3.53 2.32-7.45-1.01-10.43-3.16-2.81-7.28-2.92-10.97-4.09q-.49-.15-.02-.37 4.63-2.17 11.32-1.38c8.91 1.06 20.04-4.55 21.74-14.19 1.15-6.59 1.34-15.25 1.83-20.57q8.62-95.11 17.55-190.18.87-9.23.84-10.86c-.32-16.42-11.41-25.45-27.17-25.38a1.7 1.7 0 01-.92-.27q-7.75-4.98-15.86-5.48-65.75-4.01-171.3-8.96-40.89-1.92-81.76-4.03c-20.71-1.07-29.23 5.2-29.78 26.36-.87 33.35-2.75 67.13-3.83 100.73q-.17 5.21-.68 14.91c-.62 11.63-.74 24.69-1.2 34.91q-.46 10.1-.78 20.2a.36.36 0 01-.69.13l-5.92-14.87a1.64 1.64 0 00-3.04-.03c-1.71 4.03-3.18 8.8-5.09 12.33-4.07 7.47-10.75 13.43-15.63 19.7-1.22 1.57-2.76 2.2-4.41 3.2a.56.56 0 00-.19.76q2.07 3.41 5.58 5.17a.33.33 0 01.11.5q-7.25 8.84-15.24 17.02c-3.94 4.02-5.4 7.22-4.84 12.61a.47.47 0 00.62.4l4.83-1.67a.79.78 53.9 01.74.12l1.71 1.31a.54.54 0 00.76-.1q4.51-5.93 11.72-4.78a1.9 1.83-51.7 001.03-.14q2.8-1.26 5.92-1.58a.66.66 0 01.43 1.21l-4.86 3.09z"/><path fill="#fae6ae" d="M27.53 47.1c.38-9.87 1.22-18.25 11.64-22.25q3.26-1.25 10.37-1.44 19.09-.51 38.21.44c.88.04 2.94-.36 4.03.4a.94.93-50 01.12 1.44l-62.72 61.7a1.26 1.26 0 01-2.15-.88q-.27-19.49.5-39.41z"/><ellipse fill="#929497" transform="rotate(69.9 22.433 173.685)" rx="1.01" ry=".81"/><path fill="#222120" d="M172.49 345.46l1.09 1.24a.45.45 0 00.73-.07l1.15-1.88 4.86-3.09a.66.66 0 00-.43-1.21q-3.12.32-5.92 1.58a1.9 1.83-51.7 01-1.03.14q-7.21-1.15-11.72 4.78a.54.54 0 01-.76.1l-1.71-1.31a.79.78 53.9 00-.74-.12l-4.83 1.67a.47.47 0 01-.62-.4c-.56-5.39.9-8.59 4.84-12.61q7.99-8.18 15.24-17.02a.33.33 0 00-.11-.5q-3.51-1.76-5.58-5.17a.56.56 0 01.19-.76c1.65-1 3.19-1.63 4.41-3.2 4.88-6.27 11.56-12.23 15.63-19.7 1.91-3.53 3.38-8.3 5.09-12.33a1.64 1.64 0 013.04.03l5.92 14.87a.36.36 0 00.69-.13q.32-10.1.78-20.2c.46-10.22.58-23.28 1.2-34.91q.51-9.7.68-14.91c1.08-33.6 2.96-67.38 3.83-100.73.55-21.16 9.07-27.43 29.78-26.36q40.87 2.11 81.76 4.03 105.55 4.95 171.3 8.96 8.11.5 15.86 5.48a1.7 1.7 0 00.92.27c15.76-.07 26.85 8.96 27.17 25.38q.03 1.63-.84 10.86-8.93 95.07-17.55 190.18c-.49 5.32-.68 13.98-1.83 20.57-1.7 9.64-12.83 15.25-21.74 14.19q-6.69-.79-11.32 1.38-.47.22.02.37c3.69 1.17 7.81 1.28 10.97 4.09 3.33 2.98 3.79 6.9 1.01 10.43a1.48 1.44 64.4 00-.3.89q.31 24.8.11 38.41-.09 6.11 1.01 11.32c.74 3.47.58 6.2-1.97 8.46-31.81 28.19-62.19 57.95-92.51 87.74q-8.48 8.33-12.61 10.73c-11.05 6.44-25.08 5.88-37.36 3.44q-66.66-13.23-106.05-21.41-5.88-1.22-10.36-1.51a1.06 1.04-67.5 00-.85.36l-4.12 4.66a1.41 1.41 0 01-.92.46c-3.81.31-7.32.5-11.18-.31q-34.88-7.36-69.81-14.45c-7.98-1.62-16.82-2.72-18.52-12.18a.84.84 0 00-.67-.68q-26.54-5.11-52.82-9.81c-5.13-.92-10.26-4.13-9.3-10.41.36-2.37 2.29-3.61 3.68-5.55a1.58 1.57-27.5 00.29-.91c-.12-12.8.25-25.68-1.1-38.44q-.74-7-1.41-13.99-.05-.5-.33-.92c-4.97-7.65 13.72-14.34 18.11-16.2a1.57 1.54 2.7 00.76-.68q1.84-3.29 5.18-5.05a1.83 1.81.4 00.73-.71c4.11-7.55-2.55-15.44 10.21-18.53a1.36 1.36 0 00.77-.52c1.52-2.18 1.11-4.92 2.15-7.36 1.34-3.16 9.46-7.38 12.52-9.68q6.26-4.71 12.15 1.73a.78.77-29.4 00.81.22c1.71-.57 3.03-.71 4.69-1.63q5.94-3.33 10.78 1.81a.35.35 0 00.56-.07c3.05-5.69 6.28-11.39 11.26-15.57q2.52-2.11 5.56-5.31 3.82-4.02 9.43-2.34zM211.71 215q-1-.8-1.91-.52a.85.84-4.7 00-.58.67c-.43 2.73-.17 5.49-.47 8.09-.69 6.06.56 11.64.48 17.33-.18 12.21-1.3 24.32-1.51 36.52-.1 6.04-1.05 14.88-.54 22.43a.74.74 0 00.54.67q.66.17 1.07-.44 7.1 5.3 12.42 12.36c1.56 2.07 1.45 4.22 1.25 6.63a1.06 1.05-82.3 01-1.24.95l-4.28-.76a.84.83 86.5 01-.65-.58q-.54-1.77-2.26-.86a.83.82-39.3 01-.88-.08l-3.16-2.52a.41.41 0 00-.56.04l-.22.22a.73.72-38.7 00-.1.87c1.47 2.47 3.47 2.32 5.62 3.29a1.67 1.65-3.1 01.71.63c2.78 4.59 9.85 13.2 15.62 12.4a.31.31 0 00.21-.48c-6.48-9.28-3.62-19.04-3.29-28.86q2.5-73.76 5.63-147.48c.39-9.15.28-24.04 1.36-36.05.77-8.55 2.69-13.69 10.02-17.69a.4.4 0 00-.16-.75q-7.85-.8-15.99-.35c-17.35.95-13.22 18.41-13.8 29.61-1.46 28.23-1.91 56.47-3.33 84.71zm28.92-70.49l-.34 8.24q-1.03 34.66-2.22 69.3-1.62 46.86-3.79 93.7c-.32 6.95.24 12.58 8.63 13.81q8.84 1.28 12.72 1.22 2.91 1.43 6.37 1.77a.83.83 0 00.91-.84l-.14-7.89a.57.57 0 00-.54-.56q-1.96-.14-2.73-2.05l-.21-6.21q.01-2.59 2.95-2.71 3.67-.15 6.95-.69a1.99 1.99 0 001.63-1.61l1.22-7a.69.68 7.4 01.73-.56l6.79.56a.61.61 0 01.55.57l.44 7.94a.47.47 0 00.45.44l10.29.53a.54.54 0 01.52.56l-.24 7.61a1.26 1.26 0 01-.45.92l-2.84 2.33a.78.77 53.7 00-.15 1.03l.71 1.06a.52.52 0 00.92-.1q.64-1.67 2.91-1.37c1 3.29 4.45 13.75 7.83 13.53q3.44.43 15.57 2.39 3.53.57 6.84-.89c8.07-3.56 7.88 3.57 14.62 3.28a.78.77-79.8 00.68-.48q1.51-3.7 5.75-3.59l2.55 1.43q.43.25.25-.22l-5.26-13.5q-3.28-10.38-2.91-21.13c.2-5.68.13-14.37 1.62-21.33.62-4.03.94-8.04 2.21-11.88 2.82-8.59 5.98-21.44 12.7-29.51a1.58 1.55-77.3 01.8-.52c3.08-.88 4.96-1.88 6.4-4.99q3.68-7.94 7.24-15.98 2.85-2.27 6.19-2.16a.8.79 10.1 00.77-.53c1.19-3.29 2.76-10.27 5.42-12.43q1.48-1.21 3.07-2.32a1.56 1.49-9 00.58-.76q1.17-3.34 2.28-6.7c2.68-8.18 8.15-6.54 12.76-11.74 2.95-3.32 8.07-5.78 12.58-3.98 1.13.94 1.98 1.39 3.6 1.42 4.56.1 8.37 6.91 9.66 10.89q.26.79 1.53.4 2.27-.32 4.22.61a1.54 1.47 87.5 01.69.66l2.05 3.77c1.33 4.42 4.18 5.59 8.75 7.41a1.25 1.23-.4 01.66.64c1.44 3.25 3.92 7.02 3.99 10.64q.16 7.69 2.33 15.22a.98.98 0 00.61.65c8.51 2.93 11.13 15.85 13.89 23.46l3.58 12.16c1.22 10.78 3.1 20.29 2.04 32-.5 5.48.75 11.4-.78 16.81-1.16 4.11 1.03 5.1 1.15 9.01.31 10.41-2.22 18.64-7.35 27.49q-1.78 3.07-2.55 6.58a1.23 1.18 36.3 00.16.91q.53.85 1.28.38l2.78.35q6.54.89 13.12 1.66 5.63.66 5.78.65c6.4-.51 5.53-12.35 5.93-16.73q1.35-14.89 2.38-29.79 1.97-11.04 2.25-22.25l2.75-32.25 4-42.25 3.08-38q2.46-16.81 3.67-33.75 1.12-13.52.79-19.49c-.17-3.18-2.43-11.01-6.43-11.38q-6.24-.59-26.82-.84l-20.75-1.25-21.96-1.04c-22.56-2.02-45.17-2.77-67.79-3.71l-22.5-.96-67.5-3.54c-5.02-.27-9.93-.45-15.03-.86-12.2-.98-18.52 3.23-18.84 15.82q-.29 11.25-1 22.51zm182.51 66.18a2.61 2.61 0 00-2.61-2.61 2.61 2.61 0 00-2.61 2.61 2.61 2.61 0 002.61 2.61 2.61 2.61 0 002.61-2.61zm-19.974 16.559a3.91 3.39-43.5 00-5.17.232 3.91 3.39-43.5 00-.502 5.15 3.91 3.39-43.5 005.17-.232 3.91 3.39-43.5 00.502-5.15zm32.24 15.559a3.49 3.04 19.2 00-2.296-4.019 3.49 3.04 19.2 00-4.296 1.723 3.49 3.04 19.2 002.296 4.019 3.49 3.04 19.2 004.296-1.723zM366.56 258.55c-.73 8.4 15.04 6.67 6.08-4.88a.99.98-19.8 00-.82-.38q-4.83.24-5.26 5.26zm43.86 14.3a3.33 3.33 0 00-3.33-3.33 3.33 3.33 0 00-3.33 3.33 3.33 3.33 0 003.33 3.33 3.33 3.33 0 003.33-3.33zm31.975 17.769a4.53 3.95 111.7 005.345-2.749 4.53 3.95 111.7 00-1.995-5.669 4.53 3.95 111.7 00-5.345 2.748 4.53 3.95 111.7 001.995 5.67zm-80.947 2.79a4.58 3.95 88.4 003.82-4.69 4.58 3.95 88.4 00-4.076-4.467 4.58 3.95 88.4 00-3.82 4.688 4.58 3.95 88.4 004.076 4.468zm20.625 20.557a4.32 3.69 104.3 004.643-3.275 4.32 3.69 104.3 00-2.509-5.097 4.32 3.69 104.3 00-4.643 3.275 4.32 3.69 104.3 002.509 5.097zm38.866 1.766a3.34 2.91 54.3 00.414-4.41 3.34 2.91 54.3 00-4.312-1.014 3.34 2.91 54.3 00-.414 4.41 3.34 2.91 54.3 004.312 1.014zm-215.332-.139a2.41 1.16 36.5 00-1.247-2.365 2.41 1.16 36.5 00-2.627-.502 2.41 1.16 36.5 001.247 2.366 2.41 1.16 36.5 002.627.502zm62.253-1.303q3.48.77 6.97 1.39c3.07.54 5.66-.65 8.71-1.16q.65-.11.11-.49-2.31-1.62-4.2.18a1.05 1.02-63.2 01-.82.28c-1.65-.17-9.91-1.4-10.87-.71q-.53.37.1.51zm21.87 3.85a1.38 1.38 0 00-1.09-2.37c-2.55.27-9.16 1.45-8.2 5.49a.58.57 82.1 00.58.45q5.14-.22 8.71-3.57zm-12.284 1.97a1.02 1.02 0 00-.8-1.2l-12.454-2.489a1.02 1.02 0 00-1.2.8l-.318 1.59a1.02 1.02 0 00.8 1.2l12.454 2.488a1.02 1.02 0 001.2-.8l.318-1.59zm-1.666 5.81a.59.59 0 00-.47-.59l-7.97-1.65a.59.59 0 00-.71.57l-.32 13.58a.59.59 0 00.89.52l8.14-4.65a.59.59 0 00.3-.5l.14-7.28zm86.581 5.796a3.79 3.32 64 001.323-4.861 3.79 3.32 64 00-4.645-1.951 3.79 3.32 64 00-1.323 4.861 3.79 3.32 64 004.645 1.951zM284.18 325c-2.73.03-4.59 2.33-3.82 4.96a.49.49 0 00.63.33l3.22-1.15a.93.92 80.1 00.61-.87l.01-2.63a.64.64 0 00-.65-.64zm170.222 4.488a3.56 3.22-23.2 00-4.54-1.558 3.56 3.22-23.2 00-2.004 4.362 3.56 3.22-23.2 004.54 1.558 3.56 3.22-23.2 002.004-4.362zM210.42 341.33c-.63 3.16 8.18 6.75 10.6 7.96 4.54 2.26 7.12 5.51 9.69 9.58a.43.43 0 00.71.02l.79-1.08q.31-.43.78-.68l12.76-7.03q1.55-.85-.19-1.13l-7.9-1.24q-1.72-.26-2.42 1.32c-3.6 8.19-10.83-.92-14.64-3.34q-4.05-2.57-8.29-5.19a1.25 1.25 0 00-1.89.81zM320.21 350q-1.82 2.96-5.39 2.96a.95.91-70.9 00-.77.39l-1.94 2.62a.98.98 0 00-.1 1c3.42 7.32 16.38 16.47 22.86 20.32a1.32 1.32 0 01.59.75q.38 1.23-.71 2.17c-3.59 2.02-6.85 5.12-6.78 9.58q.19 14.17-.17 28.39a.7.69-89.2 00.68.71l6.06.1a.78.77 5.2 00.78-.64c1.1-6.32 8.21-7.2 12.83-4.14a1.79 1.79 0 001.01.29q1.76-.02 3.21.93a.85.84-45.3 00.94-.01c3.16-2.13 2.48-4.76 7.65-3.92q4.27 1.32 6.23 5.38a.72.71-16.1 00.73.4l1.65-.18a.7.7 0 00.63-.7l.01-5.4.3-2.97a1.54 1.48-21.3 01.41-.89c4.4-4.58-.16-7.63-.57-12.14q-1.13-12.68-9.85-22.04l-1.96-3.71q-3.38-7.08-6.98-14.07c-2.8-5.44-1.46-9.23-8.58-11.72a.31.31 0 00-.41.33q.31 2.86-1.61 4.96-3.05 1.05-5.97.28-2.78-2.33-5.54-4.36c-4.6-3.39-8.31 1.29-9.24 5.33zm74.89-1.71a3.14 3.14 0 00-3.14-3.14 3.14 3.14 0 00-3.14 3.14 3.14 3.14 0 003.14 3.14 3.14 3.14 0 003.14-3.14zm30.056 8.524a3.99 3.56 116.4 004.963-1.991 3.99 3.56 116.4 00-1.415-5.157 3.99 3.56 116.4 00-4.963 1.991 3.99 3.56 116.4 001.415 5.157zM384.08 370.28a2.54 2.54 0 00-2.54-2.54 2.54 2.54 0 00-2.54 2.54 2.54 2.54 0 002.54 2.54 2.54 2.54 0 002.54-2.54zm-146.91 80.75c11.9 2.01 23.71 4.33 35.68 6.09a.43.43 0 00.49-.43l.34-39.2a1.49 1.46-62.2 00-.26-.87q-1.51-2.24-3.71-3.83-22.7-16.5-33.37-43.1-.73-1.82-1.69-.12c-5.74 10.14-13.13 18-21.91 26.18q-2.87 2.67-5.33 4.21a.47.47 0 00-.09.73q1.74 1.75 1.35 4.38-.13.84.62.43 5.64-3.06 7.57 2.73a.85.85 0 00.68.58q3.74.62 4.69 4.44a1.18 1.15 8.2 00.57.74q3.71 2.08 3.26 6.37a.72.72 0 00.54.77q8.92 2.13 8.13 11.28a1.1 1.08-64.2 00.29.86c4.19 4.55 1.09 11.21 1.55 17.1a.73.72 3.1 00.6.66zm187.39-76.46a5.11 5.11 0 00-5.11-5.11 5.11 5.11 0 00-5.11 5.11 5.11 5.11 0 005.11 5.11 5.11 5.11 0 005.11-5.11zm15.19-3.61q-3.09 2.96-6.62 5.41c-1.63 1.13-1.48 4.14-2.17 5.9a1.14 1.12-88.6 01-.66.64c-4.3 1.57-5.82 9.14-6.89 14.48a1.66 1.6-51.3 00.09.98q1.94 4.58 2.76 9.45.12.67.58.17l2.92-3.23a.85.84-59 01.91-.23l.33.12a.49.49 0 00.65-.45q.04-2.54 1.75-4.65c4.42-3.86 10.31-1.66 15.43-1.36a1.45 1.42-25 01.79.28q5.66 4.07 6.57 10.97.06.4.36.14c3.54-2.99 8.82-5.95 12.21-10.2a1.31 1.3 62.7 00.28-.89q-.25-4.4-.31-8.81c-.07-5.06-5.49-5.62-4.99-11.96a1.42 1.4-60.2 00-.24-.91c-3.48-5.14-6.31-1.9-10.61-3.27l-1.07-1.41a.67.67 0 00-.8-.21q-.95.41-1.56 1.33-1.72.92-3.45.17a1.26 1.26 0 01-.68-.71l-.93-2.41a.66.65-18 00-.79-.4l-3.86 1.06zm-286.99.51l1.89 1.08a.99.97-41.2 00.85.05l3.54-1.47q1.59-.66-.13-.67l-5.88-.01a.55.55 0 00-.27 1.02zm-43.55 13.03l-1.56 1.67a1.56 1.56 0 00-.4.8l-.97 5.15a.83.83 0 01-1.44.4l-1.52-1.72a1.44 1.4 72.4 00-.86-.46c-5.49-.68-3.66 5.71-4.11 8.64q-.74 4.79-1.19 9.66a.86.86 0 01-.52.71q-1.44.59-3.42-.24-1.77 2.03-1.36 4.79c.43 2.83.05 4.05-.99 6.39a1.14 1.13 46.4 00-.02.89l1.54 3.83a.86.84 83.5 00.64.52l10.71 1.9q15.76 3.25 31.76 5.53l13.79 2.09q9.64 2.74 19.71 3.66.79.43 1.68.31a.45.45 0 00.37-.61q-1.88-4.85 1.16-9.12a1.82 1.81 63.8 00.33-.98c.2-5.34-2.09-9.34-.63-15.42a.91.89 28.8 00-.26-.86l-1.4-1.32q-2.6-2.92-.3-6.05a.37.37 0 00-.17-.57c-6.87-2.53-4.32-6.64-1.88-11.21a.99.97-44.3 00.02-.86q-1.72-3.54-5.39-1.95a1.2 1.19 44 01-.97.01q-2.44-1.01-3.34-3.57a.77.75-8.6 00-.71-.51l-1.26-.01a1.05 1.05 0 01-.89-.49q-1.94-3-1.41-6.5a1.49 1.48 3.4 00-1.52-1.7q-3.22.09-4.01-2.95a.52.51 63.8 00-.81-.28l-1.74 1.31a1.72 1.68 23.4 01-.91.35q-1.33.13-2.42-.73l-1.08-1.25c1.18-3.96-3.16-2.94-4.67-1.07a.91.9-67.6 01-.8.34l-2.96-.32a.93.92-70.7 00-.88.43l-1.81 2.94a.5.5 0 01-.74.12l-.81-.69c-2.29-1.25-6.1-7.21-8.94-3.66a1.23 1.21-29 00-.26.88q.14 1.33-.99 1.72-5.36 1.89-8.66 4.21a1.01 1.01 0 00-.42.76l-.31 5.09zm102.2-6.86l2.13 2.81a.64.64 0 00.84.16c3.21-2-2.46-5.76-4.68-5.79a.65.65 0 00-.66.62l-.05 1.17a.61.61 0 00.62.64h1a.98.98 0 01.8.39zm-15.41 3.4q-3.77-1.04-5.85 1.82a.98.97 18.1 01-.78.39l-1.05.01a.98.98 0 01-.86-.51q-1.68-2.97-4.71-1.58a1.04 1.03-7.7 00-.59.77q-.6 3.5-4.56 2.86-.84-.22-1.53 0a.89.87 87.9 00-.6.66l-2.83 12.67a.71.71 0 00.36.77q2.09 1.11 2.47 3.5.07.48-.03.95-.82 3.66 1.35 6.72a.49.49 0 00.77.03q2.04-2.4 4.89-3.7a1.36 1.36 0 01.89-.09l2.41.57a.8.78-71.2 00.89-.45l1.65-3.68q4.3-1.65 8.19-4.09c1.56-.98 2.9-.93 4.56-1.66q2.29-2.48 5.64-4.31 2.19-1.19 2.35-3.69-.5-3.06-2.71-5.03a.95.94 56.8 00-.93-.2l-2.63.82a1.48 1.44-42.5 01-.98-.03q-.96-.37-1.5-1.09c-.25-.62-.95-4.21-1.58-4.38a.87.87 0 00-.81.2l-1.89 1.75zm291.56 3.26q-8.03-2.73-16.51-3.41-.74-.06-.29.53 4.11 5.39 3.41 12.28a.75.75 0 001.24.64q5.65-4.99 12.04-8.87c.15-.1.34-.47.32-.63a.63.17 83.7 00-.21-.54zm-88.06-2.09c-2.93 3.64-6.77 4.26-10.87 5.83a1.61 1.6-83.3 00-.74.59q-3.46 5.09-4.93 11.12l-1.5 1.5c-2.79 2.68-1.99 4.77-6.28 6.56a1.68 1.68 0 00-1.04 1.52l-.19 7.75a1.2 1.15-67.8 00.34.86q.78.79 2.05 1.14 4.32.57 5.28 4.61a.89.89 0 00.59.63q12.11 3.8 14.37 16.33c.23 1.25-.13 3.14.65 4.58a1.66 1.63 89.1 00.68.67c5.01 2.65-.46 16.86-2.83 16.16a2.02 1.86 12.5 01-1.46-2.09l1.43-9.79a.5.49 13.2 00-.34-.54c-3.14-1.02-2.75-6.58-3.13-8.4q-1.49-7.14-8-10.82a1.95 1.84 56.9 00-.99-.24q-4.97.18-6.1-4.49a.8.8 0 00-.62-.6q-2.63-.54-4.4-2.55a1.05 1.02 65.7 00-.89-.35l-5.26.55c-2.21-1.81-3-7.54-6.57-5.97a1.29 1.26-1.5 00-.65.67q-1.03 2.47-3.98 3.61l-6.99-.76a1.29 1.24 71.3 01-.81-.42q-1.08-1.19-2.57-1.83-3.73-.37-3.79 3.71l-.3 1.02a1.13 1.13 0 01-.63.71q-2.14.94-4.41.55a1.31 1.27-58.3 00-1.02.26q-2.29 1.8-5.09.66a.72.72 0 00-.86.23q-.8 1.04-.19 2.24a.9.9 0 01-.13 1.01q-3.78 4.26-9.37 4.87a.62.62 0 00-.55.54l-.69 5.34a1.18 1.15 79.8 01-.58.86l-4.1 2.26a1.02 1.02 0 00-.47.61q-.77 2.76-3.07 4.38-.37-.15-.74-.06a.54.54 0 00-.42.57l.53 6.15a1.33 1.31-26.2 01-.35 1.01l-1.96 2.06a.99.96 61.1 00-.24.88q.5 2.19 2.09 3.79a1.18 1.15-67.8 01.35.86l-.01.34a.68.68 0 00.58.68l12.92 1.97c19.26 4.04 34.39 7.31 50.49 6.14 7.21-.52 20.93-5.92 26.05-10.51q9.25-8.29 18.26-16.81c2.21-2.08 7.67-5.73 8.95-9.63 1.23-3.75 1.27-11.82-1.78-16.25a1.21 1.21 0 01-.19-.9q.51-2.56-.57-5.08-.96-6.76-3.95-13.02a1.75 1.74 2.5 00-.69-.75q-4.6-2.68-5.24-8.13a1.55 1.5 19.4 00-.47-.94q-.95-.89-2.11-1.12-2.29-.11-3.67-1.78a1.44 1.44 0 01-.34-.9q-.15-4.75-4.98-4.8a1.12 1.1 20 00-.88.4l-.63.75zm-118.75 38.33l-1.95-1.07a.3.29 15.2 00-.44.25l-.44 38.05a.51.5 5.2 00.43.51l3.42.55 17.28 3.11a.97.97 0 001.09-1.26q-1.66-4.99 2.25-8.11a.73.71-30.8 00.22-.83c-1.64-4.05-.01-6.88-.09-10.53q-.24-11.46.44-22.93a1.32 1.29 70.1 01.39-.86l6.36-6.17.32 24.61a.47.46-36.8 00.91.13l1.1-3.49 3.7-4.32a1.52 1.52 0 01.77-.48l4.06-1a1.03 1-87.1 00.72-.67c.96-2.96 2.27-5.54 2.22-8.74q-.22-13.39.27-26.74a.42.42 0 00-.68-.34c-9.59 7.77-18.56 16.45-28.27 23.94-4.98 3.86-6.5 8.85-14.08 6.39zm151.42-11.61q-1.8.99-1.83 3.13a1.41 1.41 0 01-.3.84l-2.14 2.74a.97.96-39.9 00-.1 1.06q3.64 6.87 2.21 14.55-.13.67.4.24l2.72-2.18q5.53-3.75 9.67-8.07 4.01-3.08 7.64-6.21c2.29-1.97-.34-12.05-3.19-12.57l-5.81-.24q-.49-.02-.91-.27-2.31-1.36-3.96 1.09-.23.35-.29.76-.57 3.74-4.11 5.13zm-248.9 5.7q-1.96-.92-2.35 1.6-.64 4.14-2.04 6.39-1.09 2.83-.58 6.3a1.48 1.43 58.5 01-.23 1.02l-2.23 3.36a1.15 1.13-33.5 00-.17.8l.85 5.32a.85.84 1 00.68.7l25.29 4.61 27.32 4.84q1.09.19.31-.59l-.22-.22a1.23 1.22 23.2 01-.36-.89q.07-4.5 2.02-8.49a.62.6-57.9 00-.16-.74q-1.83-1.51-2.79-3.65c-1.2-2.72 2.95-6.4-2.51-7.8q-2.78-.21-5.35-1.98l-.16-5.65a.81.81 0 00-.5-.72q-2.88-1.2-4.34-4.13-3.71-.84-3.79-4.53-.01-.47-.39-.19c-4.74 3.52-7.52-1.05-8.51-5.04a1.54 1.49-77.8 00-.51-.82c-4.69-3.85-4.81 4.69-10.24 3.58a.58.58 0 00-.66.36c-1.37 3.45-3.73 9.55-8.38 6.56zm-108.65 8.34l11.55 2.12q.93.17.34-.56-2.36-2.92-1.35-6.8a.45.45 0 00-.63-.52c-1.33.67-10.71 4.27-10.21 5.51a.4.4 0 00.3.25zm56 60.63l1.86-.12a1.22 1.19-70.1 00.81-.39q.39-.42.13-.78a1.11 1.11 0 01-.22-.72c.28-5.65 1.77-23.89-1.16-28.09q.27-1.24-.6-1.41-16.65-3.19-33.2-6.78-2.65-.58-5.28-.48a1.16 1.15 20.8 00-.78.35l-1.08 1.14q-.52.56.23.69 15.99 2.84 31.91 6.05 3.09.62 5.69 1.47a1.74 1.74 0 011.2 1.73q-.64 13.68.49 27.34zm-33.24-21.67l.22 2.15a.67.67 0 00.55.59q10.1 1.81 20.15 3.96c1.14.24 1.63.06 2.31-.8q1.3-1.63 2.65-.04c2.21 2.59-.71 5.54-2.94 6.47q-1.58.65-4.18.08-11.97-2.61-24.04-4.68a1.63 1.59 69.2 01-.8-.37l-.98-.82q-.57-.48-.57.26l-.01 6.31a1.3 1.3 0 001.04 1.27l35.02 6.82a1.24 1.24 0 001.47-1.2l.31-23.1a.74.73 4.6 00-.62-.72c-12.3-1.87-24.53-5.44-36.83-6.7a.41.4 3.2 00-.45.4l.1 11.88q.01.9.73.36l3.42-2.54a1.44 1.44 0 01.87-.27l1.89.05a.72.71-1.8 01.69.64zm43.885 14.23a2.7 1.32 107.8 002.082-2.167 2.7 1.32 107.8 00-.432-2.974 2.7 1.32 107.8 00-2.082 2.168 2.7 1.32 107.8 00.432 2.974zm9.065-3.27l-1.08-.64a.46.45 20.4 00-.69.31q-.42 2.39 1.43 3.62a1.46 1.44-30.5 00.95.24q3.47-.35 4.37 2.79.32 1.13.81.07l2.21-4.81a.48.48 0 00-.39-.67l-6.87-.66q-.4-.04-.74-.25zm11.43 8.93c.63 1.24 1.79 1.44 3.01 1.07a.69.68-8.7 00.49-.65l-.03-6.2a1.2 1.2 0 00-1.98-.9q-3.4 2.94-1.49 6.68zm-22.01 6.89c-4.18 6.37-11.85 19.31 1 22.58q21.51 4.43 43.05 8.72 16.54 3.3 32.95 7.2 4.76 1.28 9.5.23a1.72 1.7-72.7 00.85-.45c.72-.7 1.62-1.44 2.08-2.32q5.4-10.43 9.84-21.52l2.06-4.76a.79.78-70.6 00-.51-1.07l-6.68-1.87a.44.44 0 00-.55.31c-1.21 4.59-3.17 13.3-8.93 14.91-3.44.96-9.34-.9-13.58-1.19q-6.47-1.99-13.21-2.74-6.61-2.21-13.59-3.06l-35.49-8.03q-.65-3.53.15-5.73 1.62-4.44 4.67-7.75a.58.58 0 00-.36-.97l-5.91-.71a1.12 1.1 27.1 00-.9.28q-3.83 3.5-6.44 7.94zm190 7.33c-.74 10.46-.49 20.98-.72 31.47a.97.96 78.2 001.37.9c3.41-1.57 2.13-28.12 1.76-32.33a.94.94 0 00-.38-.67l-.28-.2q.32-1.92-.86-3.39a1.42 1.4 75.8 00-.81-.49q-29.16-6.08-38.57-7.87c-1.3-.25-7.19-1.17-6.62 1.94a1.06 1.05-82.5 00.56.74q1.06.52 2.56.81 15.18 2.84 37.92 7.63 1.68.35 4.07 1.46zm-100.74-2.5a.97.97 0 001.49-.82v-4.49a.58.57 3.4 00-.51-.57l-1.92-.2a.72.71 13 00-.75.46q-1.33 3.69 1.69 5.62zm6.44-1.69q4.82.43 6.3.88 1.42.42 1.86-1.34a1.29 1.29 0 00-1-1.56l-6.93-1.36a.77.76-71.2 00-.84.42q-.78 1.57-.41 3.22a.22.22 0 00.29.15q.23-.1.31-.22a.45.44 20 01.42-.19zm18.963.108a.8.8 0 00-.714-.878l-5.67-.586a.8.8 0 00-.878.714l-.504 4.874a.8.8 0 00.714.878l5.67.586a.8.8 0 00.878-.714l.504-4.874zm37.497 9.692q2.54 1.17 1.92 3.83a.53.53 0 00.42.64l22.51 4.24a.73.72-65.1 00.72-.27c1.45-1.84 3.15-3.65 5.35-1.22a1.1 1.09 28.3 01.27.88q-1.16 7.82-9.36 6.38-12.77-2.24-25.94-4.96a1.07 1.07 0 00-1.29 1.05l-.02 4.79a.69.69 0 00.54.67c12.59 2.65 25.48 4.42 37.81 7.67a.47.47 0 00.59-.44l.77-25.6a.7.69-84.1 00-.56-.7q-11.65-2.15-23.35-4.01c-3.63-.58-9.98-2.06-15.15-2.43a.61.61 0 00-.65.6l-.11 12.48a.46.46 0 00.86.22q1.27-2.4 3.6-3.77a1.18 1.17 42.1 011.07-.05z"/><path fill="#fff" d="M208.79 299.75c.34-12.28.64-20.59 1.4-36.74.4-8.54.28-17.26.74-25.58q.62-11.21.78-22.43c1.42-28.24 1.87-56.48 3.33-84.71.58-11.2-3.55-28.66 13.8-29.61q8.14-.45 15.99.35a.4.4 0 01.16.75c-7.33 4-9.25 9.14-10.02 17.69-1.08 12.01-.97 26.9-1.36 36.05q-3.13 73.72-5.63 147.48c-.33 9.82-3.19 19.58 3.29 28.86a.31.31 0 01-.21.48c-5.77.8-12.84-7.81-15.62-12.4a1.67 1.65-3.1 00-.71-.63c-2.15-.97-4.15-.82-5.62-3.29a.73.72-38.7 01.1-.87l.22-.22a.41.41 0 01.56-.04l3.16 2.52a.83.82-39.3 00.88.08q1.72-.91 2.26.86a.84.83 86.5 00.65.58l4.28.76a1.06 1.05-82.3 001.24-.95c.2-2.41.31-4.56-1.25-6.63q-5.32-7.06-12.42-12.36z"/><path fill="#afafaf" d="M275.5 107.04q.18.18.23.42a.51.51 0 01-.41.61c-8.22 1.28-29.68-4.42-31.12 6.68q-1.29 9.92-1.74 28.9c-.03 1.29-.58 2.14-1.83.86q.71-11.26 1-22.51c.32-12.59 6.64-16.8 18.84-15.82 5.1.41 10.01.59 15.03.86z"/><path fill="#929497" d="M275.5 107.04l67.5 3.54q-2.88 1.17 1.43 1.39c2.69.13 21.47 1.14 22.57.25q.34-.27-.08-.37l-1.42-.31c22.62.94 45.23 1.69 67.79 3.71q-.17.23-.2.45a.5.5 0 00.47.58l20.89.91a.74.74 0 00.71-.45q.08-.2.09-.45l20.75 1.25q-.34.36-.24.75a.62.61 79 00.66.45c7.99-.96 15.11.25 25.64.65a1.41 1.38 65.2 01.87.33c6.2 5.25 5.62 17.59 4.44 24.71-.24 1.43-.15 3.02-.48 4.55a.42.41-83.8 00.4.51q.62.01 1.17-.24-1.21 16.94-3.67 33.75l-.08-1.55a.21.2 88.5 00-.2-.2h-.26a.37.37 0 00-.37.35q-1.34 19.52-3.69 38.95a.65.65 0 00.45.69q.59.18 1.07-.24l-4 42.25-.43.11a.66.65 82.2 00-.49.65c.02 3.25-1 6.55-1.22 9.33q-.89 11.4-1.68 22.81a.09.09 0 00.1.1l.36-.01a.36.35-86.3 00.35-.31q.04-.27.26-.43-.28 11.21-2.25 22.25l-.29-1.53q-.09-.46-.42-.13-.51.52-.56 1.16-1.16 13.79-2.54 39.44c-.35 6.51-5.18 6.54-10.5 5.71q-6.08-.94-12.22-1.49a.66.65 11.5 00-.69.45q-.1.32.01.6l-2.78-.35q1.5-5.89 4.48-11.18c5.11-9.07 7.12-20.36 3.68-30.38a1.4 1.38 46.2 01.01-.93q1.66-4.78 1.04-11.8c-.6-6.78.98-16.49.15-23.76q-.89-7.71-3.31-15.13l-3.58-12.16q-1.22-8.49-4.54-16.37c-1.68-4-4.33-5.99-7.97-7.92a1.42 1.4 3.3 01-.63-.7q-2.92-7.07-2.46-14.66c.24-4.05-3.16-6.61-3.76-10.74a1.45 1.43 7.7 00-.87-1.13c-3.2-1.33-7.56-2.38-8.54-6.18a.84.83-1.1 00-.63-.6q-.47-.11-.83.28l-2.05-3.77a1.54 1.47 87.5 00-.69-.66q-1.95-.93-4.22-.61c-1.97-6.92-6.17-12.53-13.94-13.27-.51-.05-.61.14-.85.56-4.51-1.8-9.63.66-12.58 3.98-4.61 5.2-10.08 3.56-12.76 11.74q-1.11 3.36-2.28 6.7a1.56 1.49-9 01-.58.76q-1.59 1.11-3.07 2.32c-2.66 2.16-4.23 9.14-5.42 12.43a.8.79 10.1 01-.77.53q-3.34-.11-6.19 2.16-.69-.49-1.95.32a1.3 1.27-10.2 00-.55.77c-.65 2.75-1.03 4.38-2.8 6.94-2.09 3.04-2.36 6.48-4.72 9.71a1.68 1.67-81.5 01-.77.57c-11.44 4.19-15.17 24.64-18.89 34.8-1.16 3.16-.85 6.29-1.49 9.62a.66.66 0 00.24.65l.45.34a.25.24-62.3 00.37-.12q.21-.61.76-.72c-1.49 6.96-1.42 15.65-1.62 21.33q-.37 10.75 2.91 21.13-.37-.06-.64.1a.68.67 68.5 00-.32.76q.69 2.65 1.35 5.3c.5 2 1.99 3.7 2.07 6.13q-4.24-.11-5.75 3.59a.78.77-79.8 01-.68.48c-6.74.29-6.55-6.84-14.62-3.28q-3.31 1.46-6.84.89-12.13-1.96-15.57-2.39l.53-.19a.28.28 0 00.11-.45l-5-5.59a1.37 1.33 26.9 01-.34-.99q.34-4.38-3.13-6.31-2.27-.3-2.91 1.37a.52.52 0 01-.92.1l-.71-1.06a.78.77 53.7 01.15-1.03l2.84-2.33a1.26 1.26 0 00.45-.92l.24-7.61a.54.54 0 00-.52-.56l-10.29-.53a.47.47 0 01-.45-.44l-.44-7.94a.61.61 0 00-.55-.57l-6.79-.56a.69.68 7.4 00-.73.56l-1.22 7a1.99 1.99 0 01-1.63 1.61q-3.28.54-6.95.69-2.94.12-2.95 2.71.09-.51-.32-.79a.44.44 0 00-.69.36c0 1.55-.96 6.58 1.22 6.64q.77 1.91 2.73 2.05a.57.57 0 01.54.56l.14 7.89a.83.83 0 01-.91.84q-3.46-.34-6.37-1.77l-16.09-4.25a1.62 1.56-11.8 01-.81-.51c-3.91-4.63-3.06-10.2-1.2-15.51.44-1.27-.82-3.78-.79-5.37.6-31.28 2.09-61.76 2.74-93.83q.36-17.91 1.92-33.55.14-1.45.6-2.06a.63.62 42 00-.05-.81l-.86-.88a.81.79-66.4 01-.23-.61c.42-6.09 2.97-13.88 1.21-20.29a.88.87 88.8 00-.64-.62q-.56-.14-1.14.26l.34-8.24c1.25 1.28 1.8.43 1.83-.86q.45-18.98 1.74-28.9c1.44-11.1 22.9-5.4 31.12-6.68a.51.51 0 00.41-.61q-.05-.24-.23-.42zm51.74 35.5c-11.57-1.05-21.62.73-26.99 11.84a.53.51 23.9 01-.67.25c-2.77-1.15-4.92-2.27-8.06-1.95q-3.92.41-7.79 1.06-3.15.09-6.02 2.46-1.6 1.32-1.67 3.05l-2.29 3.04q-1.1-.31-1.59.5c-5.2 8.68-4.24 23.39 6.53 28.02.63.27.97.89 1.85.19l1.46.29q.49 1.12 1.61 1.74a1.72 1.72 0 01.66.69q4.3 8.54 13.18 11.08c5.37 1.54 8.98 2.86 13.53 2.96 2.37.06 5.32-.73 8.06-.8a1.63 1.59-64.1 00.97-.35q1.63-1.25 3.81-.5a1.07 1.06-53.8 001-.16q.32-.26.47-.7l1.71.04c.7 2.64 9.8 1.68 12.45 1.37q2.27-.27 4.95-3.16a.93.91-63.3 01.82-.28c7.13 1.17 13.84-.88 17.53-7.43 3.85-6.83 6.68-18.22 2.57-25.33-1.79-3.1-6.73-4.9-9.99-5.99a.87.85 5.3 01-.58-.68q-.84-5.18-5.88-6.18a.99.98-3.5 01-.75-.66l-1.32-4.09q-.14-.43-.42-.78c-2.35-2.97-7.8-5.67-11.06-7.91q-3.23-2.22-8.08-1.63z"/><path fill="#afafaf" d="M343 110.58l22.5.96 1.42.31q.42.1.08.37c-1.1.89-19.88-.12-22.57-.25q-4.31-.22-1.43-1.39zM433.29 115.25l21.96 1.04q-.01.25-.09.45a.74.74 0 01-.71.45l-20.89-.91a.5.5 0 01-.47-.58q.03-.22.2-.45zM476 117.54q20.58.25 26.82.84c4 .37 6.26 8.2 6.43 11.38q.33 5.97-.79 19.49-.55.25-1.17.24a.42.41-83.8 01-.4-.51c.33-1.53.24-3.12.48-4.55 1.18-7.12 1.76-19.46-4.44-24.71a1.41 1.38 65.2 00-.87-.33c-10.53-.4-17.65-1.61-25.64-.65a.62.61 79 01-.66-.45q-.1-.39.24-.75zM327 205.29q1.17-.49 2.2.25a1.49 1.43-27.7 00.9.26l9.58-.38a1.45 1.44-66.8 00.91-.37q1.8-1.61 3.75-3.02c1.9-1.38 3.8.33 5.69.28 9.21-.26 12.59-6.68 14.79-14.88 2.11-7.87 1.96-18.12-7.41-21.23q-1.61-.53-3.19-1.15a.98.98 0 01-.6-.73q-1.02-5.31-6.66-5.09a.48.48 0 01-.5-.48c.04-8.99-11.18-14.05-19.22-16.21q4.85-.59 8.08 1.63c3.26 2.24 8.71 4.94 11.06 7.91q.28.35.42.78l1.32 4.09a.99.98-3.5 00.75.66q5.04 1 5.88 6.18a.87.85 5.3 00.58.68c3.26 1.09 8.2 2.89 9.99 5.99 4.11 7.11 1.28 18.5-2.57 25.33-3.69 6.55-10.4 8.6-17.53 7.43a.93.91-63.3 00-.82.28q-2.68 2.89-4.95 3.16c-2.65.31-11.75 1.27-12.45-1.37z"/><path fill="#222120" d="M327.24 142.54c8.04 2.16 19.26 7.22 19.22 16.21a.48.48 0 00.5.48q5.64-.22 6.66 5.09a.98.98 0 00.6.73q1.58.62 3.19 1.15c9.37 3.11 9.52 13.36 7.41 21.23-2.2 8.2-5.58 14.62-14.79 14.88-1.89.05-3.79-1.66-5.69-.28q-1.95 1.41-3.75 3.02a1.45 1.44-66.8 01-.91.37l-9.58.38a1.49 1.43-27.7 01-.9-.26q-1.03-.74-2.2-.25l-1.71-.04q-.84-1.36-2.05-.99c-8.25 2.55-12.06 2.59-21.39.54-6.81-1.49-14.68-5.53-16.8-12.74a.72.71-4.7 00-.62-.52l-2.43-.25-1.46-.29c-11.75-5.53-12.37-18.46-6.79-28.71l2.29-3.04q3.35-3.24 7.69-5.51 3.87-.65 7.79-1.06c3.14-.32 5.29.8 8.06 1.95a.53.51 23.9 00.67-.25c5.37-11.11 15.42-12.89 26.99-11.84zm23.4 26.69l.24-.24a1 .99-27.2 00.28-.86q-1.2-7-8.16-5.66a1.07 1.07 0 01-1.26-1.24q.54-3.02-.17-5.17c-1.73-5.23-13.77-9.23-18.37-9.74q-14.23-1.61-19.95 11.34a.67.67 0 01-.8.38q-5-1.36-6.99 3.24-.67 1.53-.68-.14l-.04-3.27a.61.6 3.2 00-.54-.6q-12.47-1.41-17.71 10.42-5.09 11.51 3.79 17.69c2.44 1.7 5.92 1.56 8.84 1.73a.54.54 0 01.51.52c.3 10.71 14.39 13.57 23.01 13.19 4.26-.19 6.46.11 8.84-2.95a.55.55 0 01.79-.08c8.21 6.94 17.22 3.87 24.58-2.28q.72-.61.63.33l-.12 1.25a.47.46 87.6 00.54.5c2.78-.45 7.67-.27 9.02-3.41 2.47-5.76 6.84-12.91 3.63-19.45q-2.62-5.35-9.6-4.82-1.08.08-.31-.68z"/><path fill="#fff" d="M350.95 169.91q6.98-.53 9.6 4.82c3.21 6.54-1.16 13.69-3.63 19.45-1.35 3.14-6.24 2.96-9.02 3.41a.47.46 87.6 01-.54-.5l.12-1.25q.09-.94-.63-.33c-7.36 6.15-16.37 9.22-24.58 2.28a.55.55 0 00-.79.08c-2.38 3.06-4.58 2.76-8.84 2.95-8.62.38-22.71-2.48-23.01-13.19a.54.54 0 00-.51-.52c-2.92-.17-6.4-.03-8.84-1.73q-8.88-6.18-3.79-17.69 5.24-11.83 17.71-10.42a.61.6 3.2 01.54.6l.04 3.27q.01 1.67.68.14 1.99-4.6 6.99-3.24a.67.67 0 00.8-.38q5.72-12.95 19.95-11.34c4.6.51 16.64 4.51 18.37 9.74q.71 2.15.17 5.17a1.07 1.07 0 001.26 1.24q6.96-1.34 8.16 5.66a1 .99-27.2 01-.28.86l-.24.24q-.77.76.31.68z"/><path fill="#afafaf" d="M255.63 330.78q-3.88.06-12.72-1.22c-8.39-1.23-8.95-6.86-8.63-13.81q2.17-46.84 3.79-93.7 1.19-34.64 2.22-69.3.58-.4 1.14-.26a.88.87 88.8 01.64.62c1.76 6.41-.79 14.2-1.21 20.29a.81.79-66.4 00.23.61l.86.88a.63.62 42 01.05.81q-.46.61-.6 2.06-1.56 15.64-1.92 33.55c-.65 32.07-2.14 62.55-2.74 93.83-.03 1.59 1.23 4.1.79 5.37-1.86 5.31-2.71 10.88 1.2 15.51a1.62 1.56-11.8 00.81.51l16.09 4.25zM283.73 153.74q-4.34 2.27-7.69 5.51.07-1.73 1.67-3.05 2.87-2.37 6.02-2.46zM273.75 162.29c-5.58 10.25-4.96 23.18 6.79 28.71-.88.7-1.22.08-1.85-.19-10.77-4.63-11.73-19.34-6.53-28.02q.49-.81 1.59-.5zM428 193.21q-1.27.39-1.53-.4c-1.29-3.98-5.1-10.79-9.66-10.89-1.62-.03-2.47-.48-3.6-1.42.24-.42.34-.61.85-.56 7.77.74 11.97 6.35 13.94 13.27zM504.79 183l-3.08 38q-.48.42-1.07.24a.65.65 0 01-.45-.69q2.35-19.43 3.69-38.95a.37.37 0 01.37-.35h.26a.21.2 88.5 01.2.2l.08 1.55zM282 191.29l2.43.25a.72.71-4.7 01.62.52c2.12 7.21 9.99 11.25 16.8 12.74 9.33 2.05 13.14 2.01 21.39-.54q1.21-.37 2.05.99-.15.44-.47.7a1.07 1.06-53.8 01-1 .16q-2.18-.75-3.81.5a1.63 1.59-64.1 01-.97.35c-2.74.07-5.69.86-8.06.8-4.55-.1-8.16-1.42-13.53-2.96q-8.88-2.54-13.18-11.08a1.72 1.72 0 00-.66-.69q-1.12-.62-1.61-1.74zM465.19 256.27c-2.76-7.61-5.38-20.53-13.89-23.46a.98.98 0 01-.61-.65q-2.17-7.53-2.33-15.22c-.07-3.62-2.55-7.39-3.99-10.64a1.25 1.23-.4 00-.66-.64c-4.57-1.82-7.42-2.99-8.75-7.41q.36-.39.83-.28a.84.83-1.1 01.63.6c.98 3.8 5.34 4.85 8.54 6.18a1.45 1.43 7.7 01.87 1.13c.6 4.13 4 6.69 3.76 10.74q-.46 7.59 2.46 14.66a1.42 1.4 3.3 00.63.7c3.64 1.93 6.29 3.92 7.97 7.92q3.32 7.88 4.54 16.37z"/><circle fill="#afafaf" cx="420.53" cy="210.69" r="2.61"/><path d="M211.71 215q-.16 11.22-.78 22.43c-.46 8.32-.34 17.04-.74 25.58-.76 16.15-1.06 24.46-1.4 36.74q-.41.61-1.07.44a.74.74 0 01-.54-.67c-.51-7.55.44-16.39.54-22.43.21-12.2 1.33-24.31 1.51-36.52.08-5.69-1.17-11.27-.48-17.33.3-2.6.04-5.36.47-8.09a.85.84-4.7 01.58-.67q.91-.28 1.91.52z"/><path fill="#afafaf" d="M369.56 221.12q-3.56 8.04-7.24 15.98c-1.44 3.11-3.32 4.11-6.4 4.99a1.58 1.55-77.3 00-.8.52c-6.72 8.07-9.88 20.92-12.7 29.51-1.27 3.84-1.59 7.85-2.21 11.88q-.55.11-.76.72a.25.24-62.3 01-.37.12l-.45-.34a.66.66 0 01-.24-.65c.64-3.33.33-6.46 1.49-9.62 3.72-10.16 7.45-30.61 18.89-34.8a1.68 1.67-81.5 00.77-.57c2.36-3.23 2.63-6.67 4.72-9.71 1.77-2.56 2.15-4.19 2.8-6.94a1.3 1.27-10.2 01.55-.77q1.26-.81 1.95-.32z"/><ellipse fill="#afafaf" transform="rotate(-43.5 488.34 -386.748)" rx="3.91" ry="3.39"/><ellipse fill="#929497" transform="rotate(19.2 -498.335 1398.224)" rx="3.49" ry="3.04"/><path fill="#afafaf" d="M372.64 253.67c8.96 11.55-6.81 13.28-6.08 4.88q.43-5.02 5.26-5.26a.99.98-19.8 01.82.38zm-4.57 3.45c-.91 4.07 4.19 6.21 5.29 3.21a1.34 1.33 46.6 00.02-.87l-.91-2.74a1.07 1.06-87.5 00-.58-.64q-1.75-.79-3.28.24a1.3 1.29 79.3 00-.54.8z"/><path fill="#929497" d="M373.36 260.33c-1.1 3-6.2.86-5.29-3.21a1.3 1.29 79.3 01.54-.8q1.53-1.03 3.28-.24a1.07 1.06-87.5 01.58.64l.91 2.74a1.34 1.33 46.6 01-.02.87z"/><path fill="#afafaf" d="M497.71 263.25l-2.75 32.25q-.22.16-.26.43a.36.35-86.3 01-.35.31l-.36.01a.09.09 0 01-.1-.1q.79-11.41 1.68-22.81c.22-2.78 1.24-6.08 1.22-9.33a.66.65 82.2 01.49-.65l.43-.11zM468.77 268.43q2.42 7.42 3.31 15.13c.83 7.27-.75 16.98-.15 23.76q.62 7.02-1.04 11.8a1.4 1.38 46.2 00-.01.93c3.44 10.02 1.43 21.31-3.68 30.38q-2.98 5.29-4.48 11.18-.75.47-1.28-.38a1.23 1.18 36.3 01-.16-.91q.77-3.51 2.55-6.58c5.13-8.85 7.66-17.08 7.35-27.49-.12-3.91-2.31-4.9-1.15-9.01 1.53-5.41.28-11.33.78-16.81 1.06-11.71-.82-21.22-2.04-32z"/><circle fill="#afafaf" cx="407.09" cy="272.85" r="3.33"/><ellipse fill="#929497" transform="rotate(111.7 124.896 293.817)" rx="4.53" ry="3.95"/><path fill="#afafaf" d="M361.448 293.408a4.58 3.95 88.4 01-4.076-4.468 4.58 3.95 88.4 013.82-4.688 4.58 3.95 88.4 014.077 4.468 4.58 3.95 88.4 01-3.821 4.688zm.352-6.668c-4.29-.55-2.38 3.16-1.51 4.99a.5.49-24.2 00.65.24q3.28-1.43 1.76-4.58a1.18 1.16 80.3 00-.9-.65z"/><path fill="#929497" d="M361.8 286.74a1.18 1.16 80.3 01.9.65q1.52 3.15-1.76 4.58a.5.49-24.2 01-.65-.24c-.87-1.83-2.78-5.54 1.51-4.99z"/><path fill="#afafaf" d="M382.073 313.966a4.32 3.69 104.3 01-2.509-5.097 4.32 3.69 104.3 014.643-3.275 4.32 3.69 104.3 012.509 5.097 4.32 3.69 104.3 01-4.643 3.275zm-1.133-3.146l2.17 1.21a.9.89 45.3 00.86.01c1.8-.94.46-3.14-.53-4.06a.63.63 0 00-.91.05l-1.73 2.04a.5.5 0 00.14.75z"/><path fill="#929497" d="M380.94 310.82a.5.5 0 01-.14-.75l1.73-2.04a.63.63 0 01.91-.05c.99.92 2.33 3.12.53 4.06a.9.89 45.3 01-.86-.01l-2.17-1.21z"/><path fill="#afafaf" d="M420.939 315.732a3.34 2.91 54.3 01-4.312-1.014 3.34 2.91 54.3 01.414-4.41 3.34 2.91 54.3 014.312 1.014 3.34 2.91 54.3 01-.414 4.41zm-1.904-1.526a1.37 1.22 98.2 001.402-1.182 1.37 1.22 98.2 00-1.012-1.53 1.37 1.22 98.2 00-1.403 1.182 1.37 1.22 98.2 001.013 1.53z"/><ellipse fill="#929497" transform="rotate(98.2 74.115 338)" rx="1.37" ry="1.22"/><ellipse fill="#afafaf" transform="rotate(36.5 -374.525 465.904)" rx="2.41" ry="1.16"/><path fill="#929497" d="M267.86 314.29q-.63-.14-.1-.51c.96-.69 9.22.54 10.87.71a1.05 1.02-63.2 00.82-.28q1.89-1.8 4.2-.18.54.38-.11.49c-3.05.51-5.64 1.7-8.71 1.16q-3.49-.62-6.97-1.39z"/><path fill="#afafaf" d="M259.29 315l.21 6.21c-2.18-.06-1.22-5.09-1.22-6.64a.44.44 0 01.69-.36q.41.28.32.79zM289.73 318.14q-3.57 3.35-8.71 3.57a.58.57 82.1 01-.58-.45c-.96-4.04 5.65-5.22 8.2-5.49a1.38 1.38 0 011.09 2.37zM492.71 317.75q-1.03 14.9-2.38 29.79c-.4 4.38.47 16.22-5.93 16.73q-.15.01-5.78-.65-6.58-.77-13.12-1.66-.11-.28-.01-.6a.66.65 11.5 01.69-.45q6.14.55 12.22 1.49c5.32.83 10.15.8 10.5-5.71q1.38-25.65 2.54-39.44.05-.64.56-1.16.33-.33.42.13l.29 1.53z"/><rect fill="#fff" x="-7.37" y="-1.83" transform="rotate(11.3 -1479.514 1524.607)" width="14.74" height="3.66" rx="1.02"/><path fill="#fff" d="M275.78 325.92l-.14 7.28a.59.59 0 01-.3.5l-8.14 4.65a.59.59 0 01-.89-.52l.32-13.58a.59.59 0 01.71-.57l7.97 1.65a.59.59 0 01.47.59z"/><path fill="#afafaf" d="M300.5 338.04c-3.38.22-6.83-10.24-7.83-13.53q3.47 1.93 3.13 6.31a1.37 1.33 26.9 00.34.99l5 5.59a.28.28 0 01-.11.45l-.53.19zM362.361 331.716a3.79 3.32 64 01-4.645-1.95 3.79 3.32 64 011.323-4.862 3.79 3.32 64 014.645 1.95 3.79 3.32 64 01-1.323 4.862zm-.736-2.178a1.41.73 55.2 00-.206-1.575 1.41.73 55.2 00-1.404-.74 1.41.73 55.2 00.206 1.574 1.41.73 55.2 001.404.74zM280.36 329.96c-.77-2.63 1.09-4.93 3.82-4.96a.64.64 0 01.65.64l-.01 2.63a.93.92 80.1 01-.61.87l-3.22 1.15a.49.49 0 01-.63-.33zM341.5 326.46l5.26 13.5q.18.47-.25.22l-2.55-1.43c-.08-2.43-1.57-4.13-2.07-6.13q-.66-2.65-1.35-5.3a.68.67 68.5 01.32-.76q.27-.16.64-.1z"/><ellipse fill="#929497" transform="rotate(55.2 -133.657 509.283)" rx="1.41" ry=".73"/><ellipse fill="#929497" transform="rotate(-23.2 1031.55 -933.422)" rx="3.56" ry="3.22"/><path fill="#afafaf" d="M221.02 349.29c-2.42-1.21-11.23-4.8-10.6-7.96a1.25 1.25 0 011.89-.81q4.24 2.62 8.29 5.19c3.81 2.42 11.04 11.53 14.64 3.34q.7-1.58 2.42-1.32l7.9 1.24q1.74.28.19 1.13l-12.76 7.03q-.47.25-.78.68l-.79 1.08a.43.43 0 01-.71-.02c-2.57-4.07-5.15-7.32-9.69-9.58zM334.99 349.03q-4.35-.68-7.89-3.55a1.22 1.22 0 00-1.73.19l-3.89 4.9a.67.67 0 01-.95.09q-.32-.27-.32-.66c.93-4.04 4.64-8.72 9.24-5.33q2.76 2.03 5.54 4.36zM358.54 369.25q-.4.37-.93.28a.97.97 0 01-.75-.61q-2.87-7.39-7.09-14.09-.3-.47-.33-1.02-.25-4.85-4.51-7.13a.75.75 0 00-.86.11q-.98.9-1.39 2.19a1.04 1.03 1 01-.71.68c-.65.18-1.01-.28-1.01-.91q1.92-2.1 1.61-4.96a.31.31 0 01.41-.33c7.12 2.49 5.78 6.28 8.58 11.72q3.6 6.99 6.98 14.07z"/><path fill="#929497" d="M175.46 344.75l-1.15 1.88a.45.45 0 01-.73.07l-1.09-1.24 2.97-.71z"/><circle fill="#afafaf" cx="391.96" cy="348.29" r="3.14"/><path fill="#929497" d="M334.99 349.03q2.92.77 5.97-.28c0 .63.36 1.09 1.01.91a1.04 1.03 1 00.71-.68q.41-1.29 1.39-2.19a.75.75 0 01.86-.11q4.26 2.28 4.51 7.13.03.55.33 1.02 4.22 6.7 7.09 14.09a.97.97 0 00.75.61q.53.09.93-.28l1.96 3.71c-.25 3.59 2.13 4.96 3.39 7.66 1.99 4.28 4.54 6.6 4.42 11.76q-.09 3.9 0 4.74c.38 3.34 1.08 6.06.63 9.5q-.32 2.41-.41 4.85a.63.62 10.5 00.43.62l.44.15a.41.41 0 00.54-.37q.02-.48.27-.87l-.01 5.4a.7.7 0 01-.63.7l-1.65.18a.72.71-16.1 01-.73-.4q-1.96-4.06-6.23-5.38l.04-1.13a.71.7 9.7 00-.5-.7q-1.25-.38-2.58.01-7.09 2.07-14.4 1.34-6.72-.66-9.77 5.81a1.11 1.1-84.8 01-.73.61l-1.86.49a1.19 1.19 0 01-1.47-1.41c.94-4.33-.43-7.28-.14-11.11q.61-8.21.47-16.43c-.04-2.85 3.18-4.8 5.64-7.24a.67.66 51.6 00.09-.82q-.32-.51-1-.71 1.09-.94.71-2.17a1.32 1.32 0 00-.59-.75c-6.48-3.85-19.44-13-22.86-20.32a.98.98 0 01.1-1l1.94-2.62a.95.91-70.9 01.77-.39q3.57 0 5.39-2.96 0 .39.32.66a.67.67 0 00.95-.09l3.89-4.9a1.22 1.22 0 011.73-.19q3.54 2.87 7.89 3.55z"/><ellipse fill="#afafaf" transform="rotate(116.4 103.956 308.974)" rx="3.99" ry="3.56"/><circle fill="#afafaf" cx="381.54" cy="370.28" r="2.54"/><path fill="#fff" d="M272.85 457.12c-11.97-1.76-23.78-4.08-35.68-6.09a.73.72 3.1 01-.6-.66c-.46-5.89 2.64-12.55-1.55-17.1a1.1 1.08-64.2 01-.29-.86q.79-9.15-8.13-11.28a.72.72 0 01-.54-.77q.45-4.29-3.26-6.37a1.18 1.15 8.2 01-.57-.74q-.95-3.82-4.69-4.44a.85.85 0 01-.68-.58q-1.93-5.79-7.57-2.73-.75.41-.62-.43.39-2.63-1.35-4.38a.47.47 0 01.09-.73q2.46-1.54 5.33-4.21c8.78-8.18 16.17-16.04 21.91-26.18q.96-1.7 1.69.12 10.67 26.6 33.37 43.1 2.2 1.59 3.71 3.83a1.49 1.46-62.2 01.26.87l-.34 39.2a.43.43 0 01-.49.43z"/><circle fill="#929497" cx="419.45" cy="374.57" r="5.11"/><path fill="#929497" d="M449.46 373.25q1.31 2.28 3.43.29c4.3 1.37 7.13-1.87 10.61 3.27a1.42 1.4-60.2 01.24.91c-.5 6.34 4.92 6.9 4.99 11.96q.06 4.41.31 8.81a1.31 1.3 62.7 01-.28.89c-3.39 4.25-8.67 7.21-12.21 10.2q-.3.26-.36-.14-.91-6.9-6.57-10.97a1.45 1.42-25 00-.79-.28c-5.12-.3-11.01-2.5-15.43 1.36l-5.79 4.78a.42.41-35.7 01-.62-.1c-4.51-7.5-1.06-11.26 1.81-18.25a1.07 1.06 2.4 01.66-.6c3.39-1.08 3.58-4.33 3.89-7.32a1.12 1.11 74.6 01.43-.77l6.6-5.01a.82.81 58 00.23-1.02q-.22-.41-.86-.3l3.86-1.06a.66.65-18 01.79.4l.93 2.41a1.26 1.26 0 00.68.71q1.73.75 3.45-.17zM152.76 371.47a.55.55 0 01.27-1.02l5.88.01q1.72.01.13.67l-3.54 1.47a.99.97-41.2 01-.85-.05l-1.89-1.08z"/><path fill="#afafaf" d="M128.79 375.5q-.5.96-1.59 1.01a1.27 1.26 65.7 01-.96-.37l-2.26-2.3a.68.68 0 00-.83-.11q-4.36 2.55-8.98 4.59c-1.19.53-2.12 1.66-2.66 2.75a1.86 1.78-35.2 00-.19.96q.21 2.76-2.11 2.47l.31-5.09a1.01 1.01 0 01.42-.76q3.3-2.32 8.66-4.21 1.13-.39.99-1.72a1.23 1.21-29 01.26-.88c2.84-3.55 6.65 2.41 8.94 3.66z"/><path fill="#929497" d="M141.46 373.75c-3.67-1.35-6.75 3.22-2.12 5.1a1.4 1.39-66.9 001.8-.73l1.4-3.12q1.09.86 2.42.73a1.72 1.68 23.4 00.91-.35l1.74-1.31a.52.51 63.8 01.81.28q.79 3.04 4.01 2.95a1.49 1.48 3.4 011.52 1.7q-.53 3.5 1.41 6.5a1.05 1.05 0 00.89.49l1.26.01a.77.75-8.6 01.71.51q.9 2.56 3.34 3.57a1.2 1.19 44 00.97-.01q3.67-1.59 5.39 1.95a.99.97-44.3 01-.02.86c-2.44 4.57-4.99 8.68 1.88 11.21a.37.37 0 01.17.57q-2.3 3.13.3 6.05-.41-.07-.79.08a.61.6 71.6 00-.35.71q1.16 4.33 1.17 8.77c.01 3.03 1.53 5.56-.54 8.82q-.26.42-.29.92l-.45 8.7q-10.07-.92-19.71-3.66-6.17-2.89-13.04-3.29a.62.61 6.3 00-.64.51l-.11.69q-16-2.28-31.76-5.53.74-1.03-1-1.2-2.2-.21-8.48-1.46a1.34 1.3-12.2 01-.8-.5c-.92-1.23-1.47-2.4-1.13-4.05q1.1-5.3.89-11.11 1.98.83 3.42.24a.86.86 0 00.52-.71q.45-4.87 1.19-9.66c.45-2.93-1.38-9.32 4.11-8.64a1.44 1.4 72.4 01.86.46l1.52 1.72a.83.83 0 001.44-.4l.97-5.15a1.56 1.56 0 01.4-.8l1.56-1.67q2.32.29 2.11-2.47a1.86 1.78-35.2 01.19-.96c.54-1.09 1.47-2.22 2.66-2.75q4.62-2.04 8.98-4.59a.68.68 0 01.83.11l2.26 2.3a1.27 1.26 65.7 00.96.37q1.09-.05 1.59-1.01l.81.69a.5.5 0 00.74-.12l1.81-2.94a.93.92-70.7 01.88-.43l2.96.32a.91.9-67.6 00.8-.34c1.51-1.87 5.85-2.89 4.67 1.07zm-20.741 11.74a3.34 3.02-42.6 00-4.503.037 3.34 3.02-42.6 00-.415 4.484 3.34 3.02-42.6 004.503-.038 3.34 3.02-42.6 00.415-4.484zm22.171 5.72a3.31 3.31 0 00-3.31-3.31 3.31 3.31 0 00-3.31 3.31 3.31 3.31 0 003.31 3.31 3.31 3.31 0 003.31-3.31zm16.733 3.63a3.49 3.1 10.4 00-2.873-3.68 3.49 3.1 10.4 00-3.993 2.42 3.49 3.1 10.4 002.873 3.68 3.49 3.1 10.4 003.993-2.42zm-37.403 14.42q3.7 1.01 4.96-2.25a.9.9 0 00-.28-1.03l-3.08-2.46a.83.83 0 00-1.26.28l-1.47 2.93a1.79 1.79 0 001.13 2.53zm31.27-2.02c1.34 2.6 4.26 7.62 7.39 5.51a1.32 1.28 80.5 00.54-.78c1.39-5.36-5.63-9.77-7.92-5.63a.99.96 46.5 00-.01.9zm-4.06 3.36a3.2 3.2 0 00-3.2-3.2 3.2 3.2 0 00-3.2 3.2 3.2 3.2 0 003.2 3.2 3.2 3.2 0 003.2-3.2zm-42.17 2.823a2.39 2.39 0 00-.176-3.375l-1.338-1.205a2.39 2.39 0 00-3.375.177l-1.312 1.457a2.39 2.39 0 00.177 3.375l1.338 1.205a2.39 2.39 0 003.375-.177l1.312-1.457zm25.964 14.502a3.49 3.16 60.4 001.024-4.596 3.49 3.16 60.4 00-4.472-1.474 3.49 3.16 60.4 00-1.024 4.596 3.49 3.16 60.4 004.472 1.474zm27.832.856a4.28 3.94 30.8 00-1.659-5.575 4.28 3.94 30.8 00-5.693 1.192 4.28 3.94 30.8 001.659 5.576 4.28 3.94 30.8 005.693-1.192z"/><path fill="#afafaf" d="M439.75 370.96q.64-.11.86.3a.82.81 58 01-.23 1.02l-6.6 5.01a1.12 1.11 74.6 00-.43.77c-.31 2.99-.5 6.24-3.89 7.32a1.07 1.06 2.4 00-.66.6c-2.87 6.99-6.32 10.75-1.81 18.25a.42.41-35.7 00.62.1l5.79-4.78q-1.71 2.11-1.75 4.65a.49.49 0 01-.65.45l-.33-.12a.85.84-59 00-.91.23l-2.92 3.23q-.46.5-.58-.17-.82-4.87-2.76-9.45a1.66 1.6-51.3 01-.09-.98c1.07-5.34 2.59-12.91 6.89-14.48a1.14 1.12-88.6 00.66-.64c.69-1.76.54-4.77 2.17-5.9q3.53-2.45 6.62-5.41zM452.89 373.54q-2.12 1.99-3.43-.29.61-.92 1.56-1.33a.67.67 0 01.8.21l1.07 1.41zM360.5 372.96q8.72 9.36 9.85 22.04c.41 4.51 4.97 7.56.57 12.14a1.54 1.48-21.3 00-.41.89l-.3 2.97q-.25.39-.27.87a.41.41 0 01-.54.37l-.44-.15a.63.62 10.5 01-.43-.62q.09-2.44.41-4.85c.45-3.44-.25-6.16-.63-9.5q-.09-.84 0-4.74c.12-5.16-2.43-7.48-4.42-11.76-1.26-2.7-3.64-4.07-3.39-7.66z"/><path fill="#fff" d="M141.46 373.75l1.08 1.25-1.4 3.12a1.4 1.39-66.9 01-1.8.73c-4.63-1.88-1.55-6.45 2.12-5.1z"/><path fill="#afafaf" d="M210.61 377.25h-1a.61.61 0 01-.62-.64l.05-1.17a.65.65 0 01.66-.62c2.22.03 7.89 3.79 4.68 5.79a.64.64 0 01-.84-.16l-2.13-2.81a.98.98 0 00-.8-.39zM200.28 383.47q-2.74-.09-4.28-2.43l1.89-1.75a.87.87 0 01.81-.2c.63.17 1.33 3.76 1.58 4.38zM334.75 380.21q.68.2 1 .71a.67.66 51.6 01-.09.82c-2.46 2.44-5.68 4.39-5.64 7.24q.14 8.22-.47 16.43c-.29 3.83 1.08 6.78.14 11.11a1.19 1.19 0 001.47 1.41l1.86-.49a1.11 1.1-84.8 00.73-.61q3.05-6.47 9.77-5.81 7.31.73 14.4-1.34 1.33-.39 2.58-.01a.71.7 9.7 01.5.7l-.04 1.13c-5.17-.84-4.49 1.79-7.65 3.92a.85.84-45.3 01-.94.01q-1.45-.95-3.21-.93a1.79 1.79 0 01-1.01-.29c-4.62-3.06-11.73-2.18-12.83 4.14a.78.77 5.2 01-.78.64l-6.06-.1a.7.69-89.2 01-.68-.71q.36-14.22.17-28.39c-.07-4.46 3.19-7.56 6.78-9.58z"/><path fill="#929497" d="M196 381.04q1.54 2.34 4.28 2.43.54.72 1.5 1.09a1.48 1.44-42.5 00.98.03l2.63-.82a.95.94 56.8 01.93.2q2.21 1.97 2.71 5.03-1.63.6-2.16 2.29a1.17 1.17 0 01-.58.68c-1.16.58-6.19 2.67-5.25 5.03-1.66.73-3 .68-4.56 1.66q-3.89 2.44-8.19 4.09-.01-.61-.93-.88a.79.78-75.6 00-.99.59q-.74 3.46-4.39 2.74a1.39 1.35 33.9 00-.98.18l-1.26.77a.83.82 46.5 01-.89-.03c-2.15-1.49-1.41-5.28-3.91-7.6a1.09 1.05 23 01-.35-.83q.19-6.73 3.01-12.89 3.96.64 4.56-2.86a1.04 1.03-7.7 01.59-.77q3.03-1.39 4.71 1.58a.98.98 0 00.86.51l1.05-.01a.98.97 18.1 00.78-.39q2.08-2.86 5.85-1.82zM487.56 384.3a.63.17 83.7 01.21.54c.02.16-.17.53-.32.63q-6.39 3.88-12.04 8.87a.75.75 0 01-1.24-.64q.7-6.89-3.41-12.28-.45-.59.29-.53 8.48.68 16.51 3.41zM410 388.54q1.01 6.97 5.09 10.13c2.11 1.64 3.06 1.72 3.84 4.47q1.29 4.55 2.17 9.15a.6.59-7.6 00.63.48q.35-.02.73-.27 1.08 2.52.57 5.08a1.21 1.21 0 00.19.9c3.05 4.43 3.01 12.5 1.78 16.25-1.28 3.9-6.74 7.55-8.95 9.63q-9.01 8.52-18.26 16.81c-5.12 4.59-18.84 9.99-26.05 10.51-16.1 1.17-31.23-2.1-50.49-6.14q.46.03.53-.6a.54.54 0 00-.46-.59c-4.74-.63-13.11-.44-13.73-6.8a1.29 1.28 60.7 01.25-.9q3.23-4.31.66-9.36 2.3-1.62 3.07-4.38a1.02 1.02 0 01.47-.61l4.1-2.26a1.18 1.15 79.8 00.58-.86l.69-5.34a.62.62 0 01.55-.54q5.59-.61 9.37-4.87a.9.9 0 00.13-1.01q-.61-1.2.19-2.24a.72.72 0 01.86-.23q2.8 1.14 5.09-.66a1.31 1.27-58.3 011.02-.26q2.27.39 4.41-.55a1.13 1.13 0 00.63-.71l.3-1.02q-.13.75.32 1.03a.54.54 0 00.74-.18l2.73-4.56q1.49.64 2.57 1.83a1.29 1.24 71.3 00.81.42l6.99.76q2.98 1.48 4.77-1.15a.79.78-38.1 011.38.16q1.55 4.18 5.05 2.68l5.26-.55a1.05 1.02 65.7 01.89.35q1.77 2.01 4.4 2.55a.8.8 0 01.62.6q1.13 4.67 6.1 4.49a1.95 1.84 56.9 01.99.24q6.51 3.68 8 10.82c.38 1.82-.01 7.38 3.13 8.4a.5.49 13.2 01.34.54l-1.43 9.79a2.02 1.86 12.5 001.46 2.09c2.37.7 7.84-13.51 2.83-16.16a1.66 1.63 89.1 01-.68-.67c-.78-1.44-.42-3.33-.65-4.58q-2.26-12.53-14.37-16.33a.89.89 0 01-.59-.63q-.96-4.04-5.28-4.61-1.54-2.55-1.07-4.58.9-3.99 4.16-7.22c1.9-1.9 2.87-3.56 2.03-6.03l1.5-1.5q-.03.43.73.58a.74.73-78.5 00.86-.57q1.25-5.59 4.45-10.32a1.78 1.74-82.1 01.84-.65l8.65-3.1a.8.8 0 00.52-.86q-.08-.65.44-.81a.87.85 84 00.6-.75q.06-.7-.55-1.06l.63-.75a1.12 1.1 20 01.88-.4q4.83.05 4.98 4.8a1.44 1.44 0 00.34.9q1.38 1.67 3.67 1.78zm-51.33 41.05c-3.92-1.96-3.17 7.27-.1 6.63a.24.23-89.6 00.18-.19l.04-.28c5.46 6.44 11.33-8.64-.12-6.16zm-22.683 2.893a4.26 3.69-21 00-5.3-1.918 4.26 3.69-21 00-2.654 4.972 4.26 3.69-21 005.3 1.918 4.26 3.69-21 002.654-4.972zM321.53 444.48a2.81 2.81 0 00-2.81-2.81 2.81 2.81 0 00-2.81 2.81 2.81 2.81 0 002.81 2.81 2.81 2.81 0 002.81-2.81zm63.506 4.915a3.68 3.31 42.9 00-.443-4.93 3.68 3.31 42.9 00-4.949-.08 3.68 3.31 42.9 00.443 4.93 3.68 3.31 42.9 004.949.08zm-32.296-.065a3.59 3.59 0 00-3.59-3.59 3.59 3.59 0 00-3.59 3.59 3.59 3.59 0 003.59 3.59 3.59 3.59 0 003.59-3.59zm-21.478 4.43a4.41 3.95-38.9 00-5.913-.304 4.41 3.95-38.9 00-.951 5.843 4.41 3.95-38.9 005.912.305 4.41 3.95-38.9 00.952-5.843zm36.568 4.49q-4.84 5.35 2.48 7.56 5.46-.74 3.97-5.61-.64-2.12-2.18-2.98-2.2-1.23-4.27 1.03z"/><path fill="#afafaf" d="M399.5 382.21q.61.36.55 1.06a.87.85 84 01-.6.75q-.52.16-.44.81a.8.8 0 01-.52.86l-8.65 3.1a1.78 1.74-82.1 00-.84.65q-3.2 4.73-4.45 10.32a.74.73-78.5 01-.86.57q-.76-.15-.73-.58 1.47-6.03 4.93-11.12a1.61 1.6-83.3 01.74-.59c4.1-1.57 7.94-2.19 10.87-5.83z"/><ellipse fill="#fff" transform="rotate(-42.6 556.394 42.214)" rx="3.34" ry="3.02"/><path fill="#afafaf" d="M177.6 384.8q-2.82 6.16-3.01 12.89a1.09 1.05 23 00.35.83c2.5 2.32 1.76 6.11 3.91 7.6a.83.82 46.5 00.89.03l1.26-.77a1.39 1.35 33.9 01.98-.18q3.65.72 4.39-2.74a.79.78-75.6 01.99-.59q.92.27.93.88l-1.65 3.68a.8.78-71.2 01-.89.45l-2.41-.57a1.36 1.36 0 00-.89.09q-2.85 1.3-4.89 3.7a.49.49 0 01-.77-.03q-2.17-3.06-1.35-6.72.1-.47.03-.95-.38-2.39-2.47-3.5a.71.71 0 01-.36-.77l2.83-12.67a.89.87 87.9 01.6-.66q.69-.22 1.53 0z"/><circle fill="#fff" cx="139.58" cy="391.21" r="3.31"/><path fill="#afafaf" d="M410 388.54q1.16.23 2.11 1.12a1.55 1.5 19.4 01.47.94q.64 5.45 5.24 8.13a1.75 1.74 2.5 01.69.75q2.99 6.26 3.95 13.02-.38.25-.73.27a.6.59-7.6 01-.63-.48q-.88-4.6-2.17-9.15c-.78-2.75-1.73-2.83-3.84-4.47q-4.08-3.16-5.09-10.13zM209.03 389q-.16 2.5-2.35 3.69-3.35 1.83-5.64 4.31c-.94-2.36 4.09-4.45 5.25-5.03a1.17 1.17 0 00.58-.68q.53-1.69 2.16-2.29z"/><path fill="#929497" d="M312.04 432.5q-1.14-2.9-.75-6l8.59-8.43a1.43 1.42-21.3 00.43-.97l.82-20.09q.04-.98-.67-.3l-7.98 7.67q-.37.35-.52.83l-.5 1.54-.69-.72a.36.35-64.6 00-.61.22l-.45 5-6.36 6.17a1.32 1.29 70.1 00-.39.86q-.68 11.47-.44 22.93c.08 3.65-1.55 6.48.09 10.53a.73.71-30.8 01-.22.83q-3.91 3.12-2.25 8.11a.97.97 0 01-1.09 1.26l-17.28-3.11q1.2-1.44-1.3-1.04a1.29 1.29 0 01-1.49-1.32q.28-8.04.67-16.09c.28-5.58-.01-11.06-.12-16.64q-.02-.48.19-.92l1.03-2.28c7.58 2.46 9.1-2.53 14.08-6.39 9.71-7.49 18.68-16.17 28.27-23.94a.42.42 0 01.68.34q-.49 13.35-.27 26.74c.05 3.2-1.26 5.78-2.22 8.74a1.03 1-87.1 01-.72.67l-4.06 1a1.52 1.52 0 00-.77.48l-3.7 4.32zm-26.8-3.82l.34 20.12a.54.54 0 00.91.38l11.4-10.7a2.14 2.13 67.7 00.68-1.63l-.59-18.83a.36.36 0 00-.5-.33c-3.79 1.56-8.23 7.27-11.72 9.92a1.32 1.31 71.2 00-.52 1.07z"/><ellipse fill="#fff" transform="rotate(10.4 -2087.724 1055.225)" rx="3.49" ry="3.1"/><path fill="#222120" d="M311.29 426.5l.17-19.75.5-1.54q.15-.48.52-.83l7.98-7.67q.71-.68.67.3l-.82 20.09a1.43 1.42-21.3 01-.43.97l-8.59 8.43z"/><path fill="#afafaf" d="M381.46 401.25c.84 2.47-.13 4.13-2.03 6.03q-3.26 3.23-4.16 7.22-.47 2.03 1.07 4.58-1.27-.35-2.05-1.14a1.2 1.15-67.8 01-.34-.86l.19-7.75a1.68 1.68 0 011.04-1.52c4.29-1.79 3.49-3.88 6.28-6.56z"/><path fill="#929497" d="M447.25 402.46q-.52-.04-.86.24a.68.67 47.1 00-.03 1.01q4.1 3.81 3.86 9.55a.79.79 0 01-.57.73q-5.55 1.68-6.85 7.25-4.14 4.32-9.67 8.07-1.71-6.02-2.12-12.24c-.18-2.69.98-5.27 1.16-8.14q3.54-1.39 4.11-5.13.06-.41.29-.76 1.65-2.45 3.96-1.09.42.25.91.27l5.81.24z"/><path fill="#afafaf" d="M447.25 402.46c2.85.52 5.48 10.6 3.19 12.57q-3.63 3.13-7.64 6.21 1.3-5.57 6.85-7.25a.79.79 0 00.57-.73q.24-5.74-3.86-9.55a.68.67 47.1 01.03-1.01q.34-.28.86-.24z"/><path fill="#929497" d="M215.75 414.71c-.76 2.78 1.85 4.25 4.1 5.47a.64.62 18.3 01.33.64l-.59 4.73a.35.35 0 00.61.28l.55-.62q2.57 1.77 5.35 1.98.23 1.63 1.43 2.8a.65.65 0 01.09.81q-.63 1 .14 1.92.47.56-.26.53l-.25-.01q-.75-.03-.35.6l3.51 5.57a.69.67-47.2 01.02.7q-2.01 3.56-2.15 7.69a.36.35 4.4 01-.4.34q-14.22-2.12-23.64-4.32-1.76-.41-1.75.91l-25.29-4.61a.85.84 1 01-.68-.7l-.85-5.32a1.15 1.13-33.5 01.17-.8l2.23-3.36a1.48 1.43 58.5 00.23-1.02q-.51-3.47.58-6.3 2.64 1.21 2.92-1.85.36-3.85 1.47-6.14c4.65 2.99 7.01-3.11 8.38-6.56a.58.58 0 01.66-.36c5.43 1.11 5.55-7.43 10.24-3.58a1.54 1.49-77.8 01.51.82c.99 3.99 3.77 8.56 8.51 5.04q.38-.28.39.19.08 3.69 3.79 4.53z"/><path fill="#fff" d="M122.22 409.26a1.79 1.79 0 01-1.13-2.53l1.47-2.93a.83.83 0 011.26-.28l3.08 2.46a.9.9 0 01.28 1.03q-1.26 3.26-4.96 2.25z"/><path fill="#222120" d="M160.88 412.75c-3.13 2.11-6.05-2.91-7.39-5.51a.99.96 46.5 01.01-.9c2.29-4.14 9.31.27 7.92 5.63a1.32 1.28 80.5 01-.54.78z"/><path fill="#fff" d="M311.46 406.75l-.17 19.75q-.39 3.1.75 6l-1.1 3.49a.47.46-36.8 01-.91-.13l-.32-24.61.45-5a.36.35-64.6 01.61-.22l.69.72z"/><circle fill="#fff" cx="146.23" cy="410.6" r="3.2"/><rect fill="#fff" x="-3.29" y="-3.37" transform="rotate(42 -484.503 341.648)" width="6.58" height="6.74" rx="2.39"/><path fill="#afafaf" d="M432.17 408.93c-.18 2.87-1.34 5.45-1.16 8.14q.41 6.22 2.12 12.24l-2.72 2.18q-.53.43-.4-.24 1.43-7.68-2.21-14.55a.97.96-39.9 01.1-1.06l2.14-2.74a1.41 1.41 0 00.3-.84q.03-2.14 1.83-3.13z"/><path fill="#fff" d="M93.22 409.11q.21 5.81-.89 11.11c-.34 1.65.21 2.82 1.13 4.05a1.34 1.3-12.2 00.8.5q6.28 1.25 8.48 1.46 1.74.17 1 1.2l-10.71-1.9a.86.84 83.5 01-.64-.52l-1.54-3.83a1.14 1.13 46.4 01.02-.89c1.04-2.34 1.42-3.56.99-6.39q-.41-2.76 1.36-4.79z"/><path fill="#afafaf" d="M170.25 410.71l1.4 1.32a.91.89 28.8 01.26.86c-1.46 6.08.83 10.08.63 15.42a1.82 1.81 63.8 01-.33.98q-3.04 4.27-1.16 9.12a.45.45 0 01-.37.61q-.89.12-1.68-.31l.45-8.7q.03-.5.29-.92c2.07-3.26.55-5.79.54-8.82q-.01-4.44-1.17-8.77a.61.6 71.6 01.35-.71q.38-.15.79-.08zM183.27 414.63q-1.11 2.29-1.47 6.14-.28 3.06-2.92 1.85 1.4-2.25 2.04-6.39.39-2.52 2.35-1.6zM215.75 414.71q1.46 2.93 4.34 4.13a.81.81 0 01.5.72l.16 5.65-.55.62a.35.35 0 01-.61-.28l.59-4.73a.64.62 18.3 00-.33-.64c-2.25-1.22-4.86-2.69-4.1-5.47zM365.32 422.74q-3.5 1.5-5.05-2.68a.79.78-38.1 00-1.38-.16q-1.79 2.63-4.77 1.15 2.95-1.14 3.98-3.61a1.29 1.26-1.5 01.65-.67c3.57-1.57 4.36 4.16 6.57 5.97zM74.62 422.97a.4.4 0 01-.3-.25c-.5-1.24 8.88-4.84 10.21-5.51a.45.45 0 01.63.52q-1.01 3.88 1.35 6.8.59.73-.34.56l-11.55-2.12z"/><path fill="#222120" d="M285.24 428.68a1.32 1.31 71.2 01.52-1.07c3.49-2.65 7.93-8.36 11.72-9.92a.36.36 0 01.5.33l.59 18.83a2.14 2.13 67.7 01-.68 1.63l-11.4 10.7a.54.54 0 01-.91-.38l-.34-20.12z"/><path fill="#afafaf" d="M343.75 418.04l-2.73 4.56a.54.54 0 01-.74.18q-.45-.28-.32-1.03.06-4.08 3.79-3.71zM280.75 420.54l-1.03 2.28q-.21.44-.19.92c.11 5.58.4 11.06.12 16.64q-.39 8.05-.67 16.09a1.29 1.29 0 001.49 1.32q2.5-.4 1.3 1.04l-3.42-.55a.51.5 5.2 01-.43-.51l.44-38.05a.3.29 15.2 01.44-.25l1.95 1.07z"/><ellipse fill="#fff" transform="rotate(60.4 -299.267 325.415)" rx="3.49" ry="3.16"/><ellipse fill="#fff" transform="rotate(30.8 -695.673 498.977)" rx="4.28" ry="3.94"/><path fill="#fff" d="M226.1 427.19c5.46 1.4 1.31 5.08 2.51 7.8q.96 2.14 2.79 3.65a.62.6-57.9 01.16.74q-1.95 3.99-2.02 8.49a1.23 1.22 23.2 00.36.89l.22.22q.78.78-.31.59l-27.32-4.84q-.01-1.32 1.75-.91 9.42 2.2 23.64 4.32a.36.35 4.4 00.4-.34q.14-4.13 2.15-7.69a.69.67-47.2 00-.02-.7l-3.51-5.57q-.4-.63.35-.6l.25.01q.73.03.26-.53-.77-.92-.14-1.92a.65.65 0 00-.09-.81q-1.2-1.17-1.43-2.8z"/><path fill="#222120" d="M358.79 435.75q-2.59-3.15-.12-6.16c11.45-2.48 5.58 12.6.12 6.16z"/><path fill="#afafaf" d="M358.67 429.59q-2.47 3.01.12 6.16l-.04.28a.24.23-89.6 01-.18.19c-3.07.64-3.82-8.59.1-6.63z"/><ellipse fill="#222120" transform="rotate(-21 1336.86 -678.678)" rx="4.26" ry="3.69"/><path fill="#afafaf" d="M149.29 435.05l-13.79-2.09.11-.69a.62.61 6.3 01.64-.51q6.87.4 13.04 3.29z"/><circle fill="#222120" cx="318.72" cy="444.48" r="2.81"/><ellipse fill="#222120" transform="rotate(42.9 -377.533 710.003)" rx="3.68" ry="3.31"/><path fill="#fff" d="M132.04 453.5l-.89 1.56a.67.67 0 00.15.84q1.36 1.18.16 2.43a.9.89 61.3 00-.23.81c.6 2.7-.28 5.01-.12 7.42q.56 8.43-.49 17.04-1.13-13.66-.49-27.34a1.74 1.74 0 00-1.2-1.73q-2.6-.85-5.69-1.47-15.92-3.21-31.91-6.05-.75-.13-.23-.69l1.08-1.14a1.16 1.15 20.8 01.78-.35q2.63-.1 5.28.48 16.55 3.59 33.2 6.78.87.17.6 1.41z"/><circle fill="#222120" cx="349.15" cy="449.33" r="3.59"/><path fill="#afafaf" d="M308.5 447.29q2.57 5.05-.66 9.36a1.29 1.28 60.7 00-.25.9c.62 6.36 8.99 6.17 13.73 6.8a.54.54 0 01.46.59q-.07.63-.53.6l-12.92-1.97a.68.68 0 01-.58-.68l.01-.34a1.18 1.15-67.8 00-.35-.86q-1.59-1.6-2.09-3.79a.99.96 61.1 01.24-.88l1.96-2.06a1.33 1.31-26.2 00.35-1.01l-.53-6.15a.54.54 0 01.42-.57q.37-.09.74.06z"/><path fill="#fff" d="M96.69 461.29l-1.89-.05a1.44 1.44 0 00-.87.27l-3.42 2.54q-.72.54-.73-.36l-.1-11.88a.41.4 3.2 01.45-.4c12.3 1.26 24.53 4.83 36.83 6.7a.74.73 4.6 01.62.72l-.31 23.1a1.24 1.24 0 01-1.47 1.2l-35.02-6.82a1.3 1.3 0 01-1.04-1.27l.01-6.31q0-.74.57-.26l.98.82a1.63 1.59 69.2 00.8.37q12.07 2.07 24.04 4.68 2.6.57 4.18-.08c2.23-.93 5.15-3.88 2.94-6.47q-1.35-1.59-2.65.04c-.68.86-1.17 1.04-2.31.8q-10.05-2.15-20.15-3.96a.67.67 0 01-.55-.59l-.22-2.15a.72.71-1.8 00-.69-.64z"/><ellipse fill="#222120" transform="rotate(-38.9 810.308 -235.904)" rx="4.41" ry="3.95"/><path fill="#afafaf" d="M132.04 453.5c2.93 4.2 1.44 22.44 1.16 28.09a1.11 1.11 0 00.22.72q.26.36-.13.78a1.22 1.19-70.1 01-.81.39l-1.86.12q1.05-8.61.49-17.04c-.16-2.41.72-4.72.12-7.42a.9.89 61.3 01.23-.81q1.2-1.25-.16-2.43a.67.67 0 01-.15-.84l.89-1.56zM370.31 465.81q4.02-2.34 2.69-5.81-1.17-3.04-5.17-1.75 2.07-2.26 4.27-1.03 1.54.86 2.18 2.98 1.49 4.87-3.97 5.61z"/><path fill="#222120" d="M370.31 465.81q-7.32-2.21-2.48-7.56 4-1.29 5.17 1.75 1.33 3.47-2.69 5.81z"/><ellipse fill="#fff" transform="rotate(107.8 -101.629 288.602)" rx="2.7" ry="1.32"/><path fill="#afafaf" d="M151.07 473.14l6.87.66a.48.48 0 01.39.67l-2.21 4.81q-.49 1.06-.81-.07-.9-3.14-4.37-2.79a1.46 1.44-30.5 01-.95-.24q-1.85-1.23-1.43-3.62a.46.45 20.4 01.69-.31l1.08.64q.34.21.74.25z"/><path fill="#fff" d="M161.76 481.82q-1.91-3.74 1.49-6.68a1.2 1.2 0 011.98.9l.03 6.2a.69.68-8.7 01-.49.65c-1.22.37-2.38.17-3.01-1.07z"/><path fill="#929497" d="M148.54 495.65q1.07 3 4.95 3.88c4.08.92 8.37.43 12.57 1.55 3.61.95 6.54 1.25 10.6 2.53q3.6 1.13 7.37.07 6.98.85 13.59 3.06 6.09 3.91 13.21 2.74c4.24.29 10.14 2.15 13.58 1.19 5.76-1.61 7.72-10.32 8.93-14.91a.44.44 0 01.55-.31l6.68 1.87a.79.78-70.6 01.51 1.07l-2.06 4.76q-3.4 1.09-4.68 5.67-1.37 4.94-8.4 17.2a.81.78-73.7 01-.7.4l-7.74-.16a.65.64-81.9 00-.63.48l-.12.47q-16.41-3.9-32.95-7.2-21.54-4.29-43.05-8.72.72-.79.4-1.55a.96.95-4.8 00-.67-.56q-3.04-.67-4.94-3.09a1.54 1.5 26.9 01-.33-.97c.04-6.34 2.97-9.98 6.07-14.67a.52.51 35.2 00-.12-.69l-1.41-1.05q2.61-4.44 6.44-7.94a1.12 1.1 27.1 01.9-.28l5.91.71a.58.58 0 01.36.97q-3.05 3.31-4.67 7.75-.8 2.2-.15 5.73z"/><path fill="#fff" d="M331.5 495.21l-1.75.83q-2.39-1.11-4.07-1.46-22.74-4.79-37.92-7.63-1.5-.29-2.56-.81a1.06 1.05-82.5 01-.56-.74c-.57-3.11 5.32-2.19 6.62-1.94q9.41 1.79 38.57 7.87a1.42 1.4 75.8 01.81.49q1.18 1.47.86 3.39zM229.01 493.54q-3.02-1.93-1.69-5.62a.72.71 13 01.75-.46l1.92.2a.58.57 3.4 01.51.57v4.49a.97.97 0 01-1.49.82z"/><path fill="#afafaf" d="M235.03 492.04q-.08.12-.31.22a.22.22 0 01-.29-.15q-.37-1.65.41-3.22a.77.76-71.2 01.84-.42l6.93 1.36a1.29 1.29 0 011 1.56q-.44 1.76-1.86 1.34-1.48-.45-6.3-.88a.45.44 20 00-.42.19zM139.75 488.71l1.41 1.05a.52.51 35.2 01.12.69c-3.1 4.69-6.03 8.33-6.07 14.67a1.54 1.5 26.9 00.33.97q1.9 2.42 4.94 3.09a.96.95-4.8 01.67.56q.32.76-.4 1.55c-12.85-3.27-5.18-16.21-1-22.58z"/><rect fill="#fff" x="-3.65" y="-3.25" transform="rotate(5.9 -4667.997 2677.794)" width="7.3" height="6.5" rx=".8"/><path fill="#fff" d="M290.84 501.7q-2.33 1.37-3.6 3.77a.46.46 0 01-.86-.22l.11-12.48a.61.61 0 01.65-.6c5.17.37 11.52 1.85 15.15 2.43q11.7 1.86 23.35 4.01a.7.69-84.1 01.56.7l-.77 25.6a.47.47 0 01-.59.44c-12.33-3.25-25.22-5.02-37.81-7.67a.69.69 0 01-.54-.67l.02-4.79a1.07 1.07 0 011.29-1.05q13.17 2.72 25.94 4.96 8.2 1.44 9.36-6.38a1.1 1.09 28.3 00-.27-.88c-2.2-2.43-3.9-.62-5.35 1.22a.73.72-65.1 01-.72.27l-22.51-4.24a.53.53 0 01-.42-.64q.62-2.66-1.92-3.83a1.18 1.17 42.1 00-1.07.05z"/><path fill="#afafaf" d="M148.54 495.65l35.49 8.03q-3.77 1.06-7.37-.07c-4.06-1.28-6.99-1.58-10.6-2.53-4.2-1.12-8.49-.63-12.57-1.55q-3.88-.88-4.95-3.88zM331.5 495.21l.28.2a.94.94 0 01.38.67c.37 4.21 1.65 30.76-1.76 32.33a.97.96 78.2 01-1.37-.9c.23-10.49-.02-21.01.72-31.47l1.75-.83zM239.02 503.15q-4.44 11.09-9.84 21.52c-.46.88-1.36 1.62-2.08 2.32a1.72 1.7-72.7 01-.85.45q-4.74 1.05-9.5-.23l.12-.47a.65.64-81.9 01.63-.48l7.74.16a.81.78-73.7 00.7-.4q7.03-12.26 8.4-17.2 1.28-4.58 4.68-5.67zM197.62 506.74q6.74.75 13.21 2.74-7.12 1.17-13.21-2.74z"/><path fill="#929497" d="M8.19 591H3.44q2.37-.63 4.75 0z"/></svg>