<svg xmlns="http://www.w3.org/2000/svg" viewBox="0 0 591 591"><g stroke-width="2" fill="none"><path stroke="#131212" vector-effect="non-scaling-stroke" d="M590.06 0l.19.29"/><path stroke="#7e7e70" vector-effect="non-scaling-stroke" d="M590.25.29l.04 589.46"/><path stroke="gray" vector-effect="non-scaling-stroke" d="M590.29 589.75l-.54.54"/><path stroke="#7e7e70" vector-effect="non-scaling-stroke" d="M589.75 590.29q-291.53-.05-583.06-.17-3.22-.01-6.44-.08"/><path stroke="#131212" vector-effect="non-scaling-stroke" d="M.25 590.04l-.25-.1"/><path stroke="#7e7e70" vector-effect="non-scaling-stroke" d="M586.25 4.51a.26.26 0 00-.26-.26H4.51a.26.26 0 00-.26.26v581.48a.26.26 0 00.26.26h581.48a.26.26 0 00.26-.26V4.51"/><path stroke="#909082" vector-effect="non-scaling-stroke" d="M591 587.31c-.84-.45-.25-537.06-.25-586.81a.25.24-86.1 00-.21-.25q-.17-.02-.29.04"/><path stroke="#fdfef0" vector-effect="non-scaling-stroke" d="M591 590.06l-.71-.31"/><path stroke="#faefc6" vector-effect="non-scaling-stroke" d="M97.81 27.03q-16.39-.65-32.83-.61-13.45.03-17.78 1.86-9.74 4.12-10.13 17.52-.55 19.07-.51 38.14.01 2.49.17 3.49.39 2.4 2.14.71 30.62-29.65 60.34-59.43.67-.67.45-1.25a.71.69 76.9 00-.7-.45q-.62.04-1.15.02"/><path stroke="#7e7e70" vector-effect="non-scaling-stroke" d="M162.79 421.09c3.01 3.45 7.03 6.43 9.48 9.66 6.43 8.48 9.89 19.09 11.02 29.5"/><path stroke="#909082" vector-effect="non-scaling-stroke" d="M183.29 460.25v7.66a1.02 1-72 00.4.81c51.99 39.41 121.72 50.77 181.22 21.05q29.28-14.63 58.43-29.52 16.03-8.2 20.45-10.94 39.56-24.57 59.93-66.49c4.59-9.44 9.95-19.83 12.02-29.59.58-2.69-1.47-3.06-3.38-3.97q-78.57-37.46-156.97-75.53a.46.45 28.7 01-.19-.64c26.08-42.49 52.61-86.46 77.51-127.85 2.43-4.04 5.92-10.58 9.57-15.62a.54.52 37.7 00-.1-.72q-18.62-14.99-41.11-25.72-4.56-2.17-8.6-3.19a.8.78-63 00-.8.27c-2.99 3.58-5.72 2.18-9.49 3.89q-.45.21-.95.17c-10.33-.75-17.85-4.18-21.91-13.48a1.9 1.9 0 00-1.49-1.12c-10.23-1.42-20.84-2.92-30.8-2.77q-31.71.5-61.03 12.16-6.1 2.43-18.15 8.44-26.93 13.43-54.04 26.52c-13.26 6.4-25.22 14.88-35.87 23.86q-30.1 25.37-46.05 62.5c-2.92 6.8-5.29 15.22-6.83 19.93q-4.22 12.86-6.14 29.47-2.07 17.95-1.97 23.42.4 21.04 3.72 41.78c1.31 8.17 4 16.29 6.4 24.4 5.29 17.8 12.64 33.97 22.41 49.63a1.24 1.2-8.4 00.75.54c5.12 1.18 10.8 1.4 15.29 2.91q9.2 3.09 17.27 8.58"/><path stroke="#131212" vector-effect="non-scaling-stroke" d="M183.29 460.25q.61 1.16 1.84.69a.57.57 0 00.36-.64c-1.74-9.84-5.81-22.63-11.25-30.05q-4.34-5.93-11.45-9.16"/><path stroke="#909082" vector-effect="non-scaling-stroke" d="M161.05 517.97c6.28-1.2 19.94-2.8 14.23-12-3.19-5.14-13.78-16.96-20.71-11.35-4.34 3.52-11.96 10.6-10.57 16.83a.75.75 0 01-.92.89c-11.3-2.99-23.28-4.74-34.64-1.29-6.3 1.91-15.55 1.85-19.39 7.96-2.83 4.51-11.94 21.61-2.05 23.22 3.61.59 7.21 1.37 10.78 1.66 23.76 1.95 53.21 4.59 74.62-4.64 7.72-3.33 4.18-12.76-.48-16.55-2.77-2.26-7.27-3.33-10.89-4.49q-.47-.15.02-.24M194.68 540.82c3.77 2.72 17.75 1.41 22.82 1.35 4.42-.04 9.93-3.88 8.49-8.91-2.17-7.58-9.58-13.83-17.5-13.7-8 .14-15.76 6.86-17.04 14.78-.46 2.81 1.1 4.93 3.23 6.48"/><path stroke="#5d5d5e" vector-effect="non-scaling-stroke" d="M242.36 117.45q-4.37.99-8.19 2.95c-23.13 11.83-47.88 21.44-68.12 37.9q-31.42 25.56-48.4 62.37c-8.2 17.79-12.39 40.03-14.37 57.34q-2.83 24.73 2.1 49c1.13 5.57 1.48 12.11 3 18.07q6.87 26.97 20.13 51.41 1.81 3.34 3.44 5.52a.56.56 0 00.73.15c10.94-6.52 27.47-5.9 38.59.73 11.56 6.89 19.42 21.43 20.5 34.37.8 9.65 1.17 19.47-4.06 26.8a.49.49 0 00.1.68q38.69 29 86.24 35.2c23.35 3.04 48.03-.02 70.41-7.09q6.54-2.06 14.6-6.16 24.3-12.34 48.74-24.34 4.26-2.1 8.16-4.95"/><path stroke="#929191" vector-effect="non-scaling-stroke" d="M415.96 457.4c46.42-19.43 78.65-55.3 93.54-103.04a.59.58 21.5 00-.31-.7c-53.9-25.55-107.68-51.4-161.35-77.45a.53.52-65.2 01-.25-.69c1.6-3.6 4.57-7.25 6.11-9.8 6.76-11.14 13.14-22.53 20.29-33.43q1.95-2.98 3.29-5.3c9.06-15.72 18.84-30.89 28.03-46.6 9.67-16.52 19.7-33.02 29.92-49.32a.56.56 0 00-.13-.73q-18.7-14.29-40.28-23.74a1.24 1.2-45.8 00-1.04.03q-8.33 4.1-16.2 2.73c-10.21-1.78-16.95-4.82-22.36-13.4a1.38 1.36 82.3 00-.75-.58q-2.56-.79-5.22-1.11c-38.77-4.54-73.72 2.6-106.89 23.18"/><path stroke="#cacbcc" vector-effect="non-scaling-stroke" d="M415.96 457.4l-25.25 6.35"/><path stroke="gray" vector-effect="non-scaling-stroke" d="M390.71 463.75q-27.59 2.92-54.78-1.63c-7.77-1.3-16.33-3.67-24.44-5.74a1.3 1.3 0 01-.77-.54q-7.22-10.54-19.47-14.38"/><path stroke="#929191" vector-effect="non-scaling-stroke" d="M291.25 441.46q-7.5-2.67-15.3-1.06a1.3 1.27 53.7 01-.91-.15c-29.21-17-51.86-39.15-70.27-68.1a.74.73 47.5 01.03-.83c1.04-1.41 2.84-2.1 3.86-3.11q7.28-7.18 7.6-16.87c.64-19.8-14.6-31.97-33.79-29.45a.68.67-15.1 01-.7-.4c-2.65-6.2-3.62-14.86-5-21.54-7.21-34.86-4.98-69.07 6.5-102.76a.87.87 0 01.65-.57q4.9-.99 9.91-1.67c8.16-1.09 13.53-9.4 15.14-16.97q2.44-11.48-3.49-21.07a.73.72 46.7 01.02-.82q10.04-14.2 22.19-26.73"/><path stroke="#cacbcc" vector-effect="non-scaling-stroke" d="M227.69 129.36l14.67-11.91"/><path stroke="#131212" vector-effect="non-scaling-stroke" d="M291.25 441.46q-.41.01-.66.32a.52.52 0 00.25.82q13.17 4.2 20.08 16.15a.92.91-13.5 00.76.46q.39.01.57.25M312.11 474.47q-5.56-4.34-6.33-6.49-.68-1.87-3.01-3.48c-3.18-2.21-11.63-8.67-13.77-6.29"/><path stroke="#929191" vector-effect="non-scaling-stroke" d="M289 458.21c-9.27-2.85-25.04-3.03-33.14 3.73"/><path stroke="#909082" vector-effect="non-scaling-stroke" d="M262.04 448.25q3.58-3.79 8.42-6.51a.46.46 0 00.01-.8q-.35-.2-.97-.23"/><path stroke="#929191" vector-effect="non-scaling-stroke" d="M201.71 372.75c1.51-1.38 2.58-2.32 2.74-4.52.58-8.13.13-13.58-3.44-20.93-1.19-2.46-1.72-6.03-3.55-8.52q-7-9.53-18-15.53"/><path stroke="#909082" vector-effect="non-scaling-stroke" d="M175.46 212.5l3.29-12.11"/><path stroke="#929191" vector-effect="non-scaling-stroke" d="M180.75 195.29c6.96.02 15.67-6.13 18.6-12.42 4.16-8.93 5.56-15.12 4.8-25.19q-.12-1.49-1.4-2.22"/><path stroke="#7e7e70" vector-effect="non-scaling-stroke" d="M335.25 465.29l-5.65-.93"/><path stroke="#5d5d5e" vector-effect="non-scaling-stroke" d="M227.69 129.36q-8.94 6.3-15.52 13.29-5.1 5.42-9.42 12.81"/><path stroke="#cacbcc" vector-effect="non-scaling-stroke" d="M202.75 155.46c-14.99-2.52-29.61 6.08-34.68 20.3-3.51 9.84 2.88 18.19 12.68 19.53"/><path stroke="#5d5d5e" vector-effect="non-scaling-stroke" d="M180.75 195.29q-.5 2.8-2 5.1"/><path stroke="#c8cabc" vector-effect="non-scaling-stroke" d="M178.75 200.39q-2.94 5.46-4.17 11.55a.51.51 0 00.43.6q.2.03.45-.04"/><path stroke="#5d5d5e" vector-effect="non-scaling-stroke" d="M175.46 212.5c-2 10.09-4.43 20.71-5.24 30.44q-3.41 40.98 9.24 80.31"/><path stroke="#cacbcc" vector-effect="non-scaling-stroke" d="M179.46 323.25q-7.21 4.07-11.9 10.84c-6.91 9.97-2.62 24.73 5.82 32.35q11.49 10.36 28.33 6.31"/><path stroke="#5d5d5e" vector-effect="non-scaling-stroke" d="M201.71 372.75q13.81 22.02 32.08 40.33c10.44 10.46 23.22 19.35 35.71 27.63"/><path stroke="#c8cabc" vector-effect="non-scaling-stroke" d="M269.5 440.71l-7.76 6.29a.7.69-33 00-.18.84q.14.26.48.41"/><path stroke="#5d5d5e" vector-effect="non-scaling-stroke" d="M262.04 448.25q-5.28 5.88-6.18 13.69"/><path stroke="#cacbcc" vector-effect="non-scaling-stroke" d="M255.86 461.94q-1.76 6.88 1.19 13.09 8.02 16.87 27.21 17.64 15.92.64 25.04-10.96"/><path stroke="#4b4c4c" vector-effect="non-scaling-stroke" d="M309.3 481.71l2.81-7.24"/><path stroke="#5d5d5e" vector-effect="non-scaling-stroke" d="M312.11 474.47q1.57-7.38-.26-14.75a.18.18 0 01.15-.22l.25-.04"/><path stroke="#4b4c4c" vector-effect="non-scaling-stroke" d="M312.25 459.46l17.35 4.9"/><path stroke="#c8cabc" vector-effect="non-scaling-stroke" d="M329.6 464.36q2.26 1.79 5.17 1.84a.48.48 0 00.49-.49l-.01-.42"/><path stroke="#4b4c4c" vector-effect="non-scaling-stroke" d="M335.25 465.29q9.88 1.59 19.84 2.16c11.91.67 23.67-.96 35.4-3.26q.41-.08.22-.44"/><path stroke="gray" vector-effect="non-scaling-stroke" d="M289 458.21c10.29 3.53 20.02 11.83 20.3 23.5"/><path stroke="#cacbcc" vector-effect="non-scaling-stroke" d="M338.712 118.88a1.46.51 5.9 00-1.4-.657 1.46.51 5.9 00-1.504.357 1.46.51 5.9 001.4.657 1.46.51 5.9 001.504-.357"/><path stroke="#929191" vector-effect="non-scaling-stroke" d="M324.561 204.172a31.69 28.82 67.1 0014.218-40.407 31.69 28.82 67.1 00-38.88-17.977 31.69 28.82 67.1 00-14.218 40.407 31.69 28.82 67.1 0038.88 17.977"/><path stroke="#cacbcc" vector-effect="non-scaling-stroke" d="M200.75 238.96c-19.69 21.48-7.21 60.33 23 62.5"/><path stroke="#929191" vector-effect="non-scaling-stroke" d="M223.75 301.46q9.32 1.29 17.75-2.67"/><path stroke="gray" vector-effect="non-scaling-stroke" d="M241.5 298.79q15.81-8.58 15.92-26.54c.16-24.98-14.63-46.34-42.49-40.87q-8.29 1.64-14.18 7.58"/><path stroke="#131212" vector-effect="non-scaling-stroke" d="M241.5 298.79q-.57-.36-.88-.98a.83.83 0 01.15-.97q.54-.54 1.31-.6a1.52 1.52 0 00.85-.35c3.25-2.77 6.88-5.29 9.01-8.89 6.82-11.52 4.52-26.49-1.28-38.99-1.44-3.11-3.93-5.25-6.2-7.74-8.81-9.68-21.21-9.66-33.15-6.33-3.44.96-5.04 3.89-8.81 4.77"/><path stroke="#4b4c4c" vector-effect="non-scaling-stroke" d="M202.5 238.71l-1.75.25"/><path stroke="#5d5d5e" vector-effect="non-scaling-stroke" d="M223.75 301.46q5.2-1.88 7.46-6.96"/><path stroke="#131212" vector-effect="non-scaling-stroke" d="M231.21 294.5l-.31 1.32a.6.6 0 00.43.72l.58.15a.67.66-70.7 00.76-.37c9.77-21.59 4.78-46.29-18.63-55.97-.5-.2-1.52-.09-2.06-.07a.51.51 0 00-.49.51l.01.42"/><path stroke="#5d5d5e" vector-effect="non-scaling-stroke" d="M211.5 241.21q-4.29-2.04-9-2.5"/><path stroke="#4b4c4c" vector-effect="non-scaling-stroke" d="M211.5 241.21c22.56 7.67 29.36 32.72 19.71 53.29"/><path stroke="#cacbcc" vector-effect="non-scaling-stroke" d="M310.5 304.21q-2.29 7.32-1.04 14.31c3.51 19.49 18.34 34.08 39.04 33.44"/><path stroke="#929191" vector-effect="non-scaling-stroke" d="M348.5 351.96c26.76-.79 27.81-28.5 18.37-46.25-7.04-13.23-19.3-20.6-34.37-19.2q-16.69 1.56-22 17.7"/><path stroke="#5d5d5e" vector-effect="non-scaling-stroke" d="M348.5 351.96q2.1-.46 3.79-1.71"/><path stroke="#909082" vector-effect="non-scaling-stroke" d="M352.29 350.25q15.15-24.56-5.62-43.68c-7.59-6.98-21.38-7.57-30.67-5.28"/><path stroke="#5d5d5e" vector-effect="non-scaling-stroke" d="M316 301.29l-5.5 2.92"/><path stroke="#c8cabc" vector-effect="non-scaling-stroke" d="M352.29 350.25l-.13-.38a1.23 1.23 0 01.05-.92q3.7-7.88 4.8-13.7c1.93-10.21-2.64-17.19-8.39-25.14-6.53-9.04-20.95-10.31-31.07-7.97a.99.97 59.3 01-.87-.23l-.68-.62"/><path stroke="#cacbcc" vector-effect="non-scaling-stroke" d="M262.815 372.264a8.35 6.88 48.3 00-.418-10.81 8.35 6.88 48.3 00-10.692-1.658 8.35 6.88 48.3 00.418 10.81 8.35 6.88 48.3 0010.692 1.658M295.29 395q1.45 13.85 11.51 23.07c2.14 1.96 5.02 3.3 7.66 4.68 7.22 3.76 15.84 3.85 23.54 1.54"/><path stroke="#929191" vector-effect="non-scaling-stroke" d="M338 424.29q4.78-3.18 6.47-6.08c3.03-5.19 1.47-14.57-.42-19.75-5.4-14.79-19.77-28.43-36.8-22.29-8.41 3.04-12.75 9.94-11.96 18.83"/><path stroke="#5d5d5e" vector-effect="non-scaling-stroke" d="M338 424.29q1.88-7.05-.34-12.97c-6.23-16.62-26.87-20.81-42.37-16.32"/><path stroke="#cacbcc" vector-effect="non-scaling-stroke" d="M412.25 391.46c-3.92 10.86 4.93 25.71 16.67 26.5q3.85.26 7.75-.94"/><path stroke="#929191" vector-effect="non-scaling-stroke" d="M436.67 417.02q9.73-1.61 11.76-10.85c2.09-9.51-2.31-19.62-10.34-24.82-8.68-5.61-23.36-1.34-25.84 10.11"/><path stroke="#5d5d5e" vector-effect="non-scaling-stroke" d="M436.67 417.02q2.77-16.38-11.23-24.21-4.79-2.68-10.58-2.55-.49.01-.93.26l-1.68.94"/><path stroke="#4b4c4c" vector-effect="non-scaling-stroke" d="M139.75 228.71l-.75.25"/><path stroke="#cacbcc" vector-effect="non-scaling-stroke" d="M139 228.96l-.63-.32a1.18 1.18 0 00-.92-.05q-9.92 3.47-12.26 13.92c-2.25 9.98 1.96 20.47 13.27 21.25 2.32.16 10.34-1.84 11.95-2.81q3.82-2.28 3.7-7.18"/><path stroke="#4b4c4c" vector-effect="non-scaling-stroke" d="M154.11 253.77q.6-8.93.33-14.21-.22-4.08-3.61-6.76"/><path stroke="#5d5d5e" vector-effect="non-scaling-stroke" d="M150.83 232.8q-4.19-5.62-11.08-4.09"/><path stroke="#131212" vector-effect="non-scaling-stroke" d="M150.83 232.8q2.13 5.56 2.4 8.2.29 2.85-.66 11.65-.76 7.03-7.55 6.73a1.76 1.75 64.2 01-.91-.32q-4.88-3.55-6.16-7.54c-1.9-5.93-1.39-15.92 2.5-22.06a.49.49 0 00-.19-.7q-.29-.15-.51-.05"/><path stroke="gray" vector-effect="non-scaling-stroke" d="M139 228.96c-4.12 5.5-4.04 14.89-2.79 21.3q1.49 7.72 9.12 11.05a1.59 1.55 49.5 00.96.09q5.96-1.42 7.82-7.63"/><path stroke="#cacbcc" vector-effect="non-scaling-stroke" d="M341.82 477.07q-3.13 4.02-.96 8.47c3.34 6.87 14.85-.53 18.49-3.95a.85.81 29.7 01.79-.2c1.76.47 5.1-10.06 1.53-10.35"/><path stroke="#5d5d5e" vector-effect="non-scaling-stroke" d="M361.67 471.04q-5.21-5.28-11.95-1.57-5.02 2.76-7.9 7.6"/><path stroke="#929191" vector-effect="non-scaling-stroke" d="M361.67 471.04q1.06 4.8-1.02 8.64a1.41 1.41 0 01-1.16.75c-7.11.47-11.1-1.69-17.67-3.36"/><path stroke="#5d5d5e" vector-effect="non-scaling-stroke" d="M162.25 512.71q1.77-.16 3.17-.9"/><path stroke="#929191" vector-effect="non-scaling-stroke" d="M165.42 511.81l6.42-1.61a.41.41 0 00.24-.61c-2.93-4.61-11.7-16.47-17.72-8.9-2.54 3.18-6.08 7-5.32 10.47a.93.9-86.7 00.58.67q6.14 2.19 12.63.88"/><path stroke="#cacbcc" vector-effect="non-scaling-stroke" d="M165.42 511.81q-1.73-5.6-4.47-10.8c-1.62-3.06-3.72-2.7-5.53-.07-1.62 2.37-8.23 10.28-2.16 11.01q4.17.5 8.35-.21a.58.58 0 01.66.43q.07.27-.02.54"/><path stroke="#5d5d5e" vector-effect="non-scaling-stroke" d="M96.68 519.04c-3.64-.77-4.95 3.5-5.18 6.2"/><path stroke="#909082" vector-effect="non-scaling-stroke" d="M91.5 525.24q-3.38 5.01-3.31 11.08"/><path stroke="#5d5d5e" vector-effect="non-scaling-stroke" d="M88.19 536.32c7.25 3.74 14.42 3.68 24.51 4.55 13.78 1.18 29.3 1.87 42.8-1.58"/><path stroke="#929191" vector-effect="non-scaling-stroke" d="M155.5 539.29q8.4-1.66 16.33-5.08a.76.74-13.5 00.45-.71c-.26-6.87-4.38-7.94-10.72-10.41-16.28-6.34-34.43-12.65-52.19-7.33-4.01 1.21-8.48 1.78-12.69 3.28"/><path stroke="#cacbcc" vector-effect="non-scaling-stroke" d="M155.5 539.29c1.47-5.58-7.39-7.71-11.5-8.56-7.42-1.55-15.26-2.51-22.24-4.39q-12.62-3.41-25.08-7.3"/><path stroke="#c8cabc" vector-effect="non-scaling-stroke" d="M88.19 536.32q2.69-5.43 3.31-11.08"/><path stroke="#5d5d5e" vector-effect="non-scaling-stroke" d="M204.96 525.25q-5.99 3.01-8.47 9.24a.88.87 37.9 00.11.86q1.99 2.65 5.38 1.53"/><path stroke="#929191" vector-effect="non-scaling-stroke" d="M201.98 536.88q8.71.71 17.56-.4a2.15 2.15 0 001.65-3.12q-.05-.11-.12-.23c-3.21-5.85-8.97-10.8-16.11-7.88"/><path stroke="#cacbcc" vector-effect="non-scaling-stroke" d="M201.98 536.88l11.09-.97a.85.85 0 00.65-1.28q-3.59-5.89-8.76-9.38"/><path stroke="#fdfef0" vector-effect="non-scaling-stroke" d="M589.94 591l-.19-.71"/><path stroke="#909082" vector-effect="non-scaling-stroke" d="M.25 590.04c-.15.47-.01.72.51.7q5.85-.17 11.68.26"/><path stroke="#c8cabc" vector-effect="non-scaling-stroke" d="M576.44 591q-3.38-.63-6.75 0"/></g><path d="M0 0h590.06l.19.29.04 589.46-.54.54q-291.53-.05-583.06-.17-3.22-.01-6.44-.08l-.25-.1V0zm586.25 4.51a.26.26 0 00-.26-.26H4.51a.26.26 0 00-.26.26v581.48a.26.26 0 00.26.26h581.48a.26.26 0 00.26-.26V4.51z"/><path fill="#252323" d="M590.06 0h.94v587.31c-.84-.45-.25-537.06-.25-586.81a.25.24-86.1 00-.21-.25q-.17-.02-.29.04l-.19-.29z"/><path fill="#fbfce0" d="M590.25.29q.12-.06.29-.04a.25.24-86.1 01.21.25c0 49.75-.59 586.36.25 586.81v2.75l-.71-.31L590.25.29zM586.25 585.99a.26.26 0 01-.26.26H4.51a.26.26 0 01-.26-.26V4.51a.26.26 0 01.26-.26h581.48a.26.26 0 01.26.26v581.48zM97.81 27.03q-16.39-.65-32.83-.61-13.45.03-17.78 1.86-9.74 4.12-10.13 17.52-.55 19.07-.51 38.14.01 2.49.17 3.49.39 2.4 2.14.71 30.62-29.65 60.34-59.43.67-.67.45-1.25a.71.69 76.9 00-.7-.45q-.62.04-1.15.02zm64.98 394.06c3.01 3.45 7.03 6.43 9.48 9.66 6.43 8.48 9.89 19.09 11.02 29.5v7.66a1.02 1-72 00.4.81c51.99 39.41 121.72 50.77 181.22 21.05q29.28-14.63 58.43-29.52 16.03-8.2 20.45-10.94 39.56-24.57 59.93-66.49c4.59-9.44 9.95-19.83 12.02-29.59.58-2.69-1.47-3.06-3.38-3.97q-78.57-37.46-156.97-75.53a.46.45 28.7 01-.19-.64c26.08-42.49 52.61-86.46 77.51-127.85 2.43-4.04 5.92-10.58 9.57-15.62a.54.52 37.7 00-.1-.72q-18.62-14.99-41.11-25.72-4.56-2.17-8.6-3.19a.8.78-63 00-.8.27c-2.99 3.58-5.72 2.18-9.49 3.89q-.45.21-.95.17c-10.33-.75-17.85-4.18-21.91-13.48a1.9 1.9 0 00-1.49-1.12c-10.23-1.42-20.84-2.92-30.8-2.77q-31.71.5-61.03 12.16-6.1 2.43-18.15 8.44-26.93 13.43-54.04 26.52c-13.26 6.4-25.22 14.88-35.87 23.86q-30.1 25.37-46.05 62.5c-2.92 6.8-5.29 15.22-6.83 19.93q-4.22 12.86-6.14 29.47-2.07 17.95-1.97 23.42.4 21.04 3.72 41.78c1.31 8.17 4 16.29 6.4 24.4 5.29 17.8 12.64 33.97 22.41 49.63a1.24 1.2-8.4 00.75.54c5.12 1.18 10.8 1.4 15.29 2.91q9.2 3.09 17.27 8.58zm-1.74 96.88c6.28-1.2 19.94-2.8 14.23-12-3.19-5.14-13.78-16.96-20.71-11.35-4.34 3.52-11.96 10.6-10.57 16.83a.75.75 0 01-.92.89c-11.3-2.99-23.28-4.74-34.64-1.29-6.3 1.91-15.55 1.85-19.39 7.96-2.83 4.51-11.94 21.61-2.05 23.22 3.61.59 7.21 1.37 10.78 1.66 23.76 1.95 53.21 4.59 74.62-4.64 7.72-3.33 4.18-12.76-.48-16.55-2.77-2.26-7.27-3.33-10.89-4.49q-.47-.15.02-.24zm33.63 22.85c3.77 2.72 17.75 1.41 22.82 1.35 4.42-.04 9.93-3.88 8.49-8.91-2.17-7.58-9.58-13.83-17.5-13.7-8 .14-15.76 6.86-17.04 14.78-.46 2.81 1.1 4.93 3.23 6.48z"/><path fill="#f8e2ab" d="M97.81 27.03q.53.02 1.15-.02a.71.69 76.9 01.7.45q.22.58-.45 1.25-29.72 29.78-60.34 59.43-1.75 1.69-2.14-.71-.16-1-.17-3.49-.04-19.07.51-38.14.39-13.4 10.13-17.52 4.33-1.83 17.78-1.86 16.44-.04 32.83.61z"/><path fill="#252323" d="M183.29 460.25q.61 1.16 1.84.69a.57.57 0 00.36-.64c-1.74-9.84-5.81-22.63-11.25-30.05q-4.34-5.93-11.45-9.16-8.07-5.49-17.27-8.58c-4.49-1.51-10.17-1.73-15.29-2.91a1.24 1.2-8.4 01-.75-.54c-9.77-15.66-17.12-31.83-22.41-49.63-2.4-8.11-5.09-16.23-6.4-24.4q-3.32-20.74-3.72-41.78-.1-5.47 1.97-23.42 1.92-16.61 6.14-29.47c1.54-4.71 3.91-13.13 6.83-19.93q15.95-37.13 46.05-62.5c10.65-8.98 22.61-17.46 35.87-23.86q27.11-13.09 54.04-26.52 12.05-6.01 18.15-8.44 29.32-11.66 61.03-12.16c9.96-.15 20.57 1.35 30.8 2.77a1.9 1.9 0 011.49 1.12c4.06 9.3 11.58 12.73 21.91 13.48q.5.04.95-.17c3.77-1.71 6.5-.31 9.49-3.89a.8.78-63 01.8-.27q4.04 1.02 8.6 3.19 22.49 10.73 41.11 25.72a.54.52 37.7 01.1.72c-3.65 5.04-7.14 11.58-9.57 15.62-24.9 41.39-51.43 85.36-77.51 127.85a.46.45 28.7 00.19.64q78.4 38.07 156.97 75.53c1.91.91 3.96 1.28 3.38 3.97-2.07 9.76-7.43 20.15-12.02 29.59q-20.37 41.92-59.93 66.49-4.42 2.74-20.45 10.94-29.15 14.89-58.43 29.52c-59.5 29.72-129.23 18.36-181.22-21.05a1.02 1-72 01-.4-.81v-7.66zm59.07-342.8q-4.37.99-8.19 2.95c-23.13 11.83-47.88 21.44-68.12 37.9q-31.42 25.56-48.4 62.37c-8.2 17.79-12.39 40.03-14.37 57.34q-2.83 24.73 2.1 49c1.13 5.57 1.48 12.11 3 18.07q6.87 26.97 20.13 51.41 1.81 3.34 3.44 5.52a.56.56 0 00.73.15c10.94-6.52 27.47-5.9 38.59.73 11.56 6.89 19.42 21.43 20.5 34.37.8 9.65 1.17 19.47-4.06 26.8a.49.49 0 00.1.68q38.69 29 86.24 35.2c23.35 3.04 48.03-.02 70.41-7.09q6.54-2.06 14.6-6.16 24.3-12.34 48.74-24.34 4.26-2.1 8.16-4.95c46.42-19.43 78.65-55.3 93.54-103.04a.59.58 21.5 00-.31-.7c-53.9-25.55-107.68-51.4-161.35-77.45a.53.52-65.2 01-.25-.69c1.6-3.6 4.57-7.25 6.11-9.8 6.76-11.14 13.14-22.53 20.29-33.43q1.95-2.98 3.29-5.3c9.06-15.72 18.84-30.89 28.03-46.6 9.67-16.52 19.7-33.02 29.92-49.32a.56.56 0 00-.13-.73q-18.7-14.29-40.28-23.74a1.24 1.2-45.8 00-1.04.03q-8.33 4.1-16.2 2.73c-10.21-1.78-16.95-4.82-22.36-13.4a1.38 1.36 82.3 00-.75-.58q-2.56-.79-5.22-1.11c-38.77-4.54-73.72 2.6-106.89 23.18z"/><path fill="#fff" d="M415.96 457.4l-25.25 6.35q-27.59 2.92-54.78-1.63c-7.77-1.3-16.33-3.67-24.44-5.74a1.3 1.3 0 01-.77-.54q-7.22-10.54-19.47-14.38-7.5-2.67-15.3-1.06a1.3 1.27 53.7 01-.91-.15c-29.21-17-51.86-39.15-70.27-68.1a.74.73 47.5 01.03-.83c1.04-1.41 2.84-2.1 3.86-3.11q7.28-7.18 7.6-16.87c.64-19.8-14.6-31.97-33.79-29.45a.68.67-15.1 01-.7-.4c-2.65-6.2-3.62-14.86-5-21.54-7.21-34.86-4.98-69.07 6.5-102.76a.87.87 0 01.65-.57q4.9-.99 9.91-1.67c8.16-1.09 13.53-9.4 15.14-16.97q2.44-11.48-3.49-21.07a.73.72 46.7 01.02-.82q10.04-14.2 22.19-26.73l14.67-11.91c33.17-20.58 68.12-27.72 106.89-23.18q2.66.32 5.22 1.11a1.38 1.36 82.3 01.75.58c5.41 8.58 12.15 11.62 22.36 13.4q7.87 1.37 16.2-2.73a1.24 1.2-45.8 011.04-.03q21.58 9.45 40.28 23.74a.56.56 0 01.13.73c-10.22 16.3-20.25 32.8-29.92 49.32-9.19 15.71-18.97 30.88-28.03 46.6q-1.34 2.32-3.29 5.3c-7.15 10.9-13.53 22.29-20.29 33.43-1.54 2.55-4.51 6.2-6.11 9.8a.53.52-65.2 00.25.69c53.67 26.05 107.45 51.9 161.35 77.45a.59.58 21.5 01.31.7c-14.89 47.74-47.12 83.61-93.54 103.04zm-77.248-338.52a1.46.51 5.9 00-1.4-.657 1.46.51 5.9 00-1.504.357 1.46.51 5.9 001.4.657 1.46.51 5.9 001.504-.357zm-14.15 85.292a31.69 28.82 67.1 0014.217-40.407 31.69 28.82 67.1 00-38.88-17.977 31.69 28.82 67.1 00-14.218 40.407 31.69 28.82 67.1 0038.88 17.977zM200.75 238.96c-19.69 21.48-7.21 60.33 23 62.5q9.32 1.29 17.75-2.67 15.81-8.58 15.92-26.54c.16-24.98-14.63-46.34-42.49-40.87q-8.29 1.64-14.18 7.58zm109.75 65.25q-2.29 7.32-1.04 14.31c3.51 19.49 18.34 34.08 39.04 33.44 26.76-.79 27.81-28.5 18.37-46.25-7.04-13.23-19.3-20.6-34.37-19.2q-16.69 1.56-22 17.7zm-47.685 68.054a8.35 6.88 48.3 00-.418-10.81 8.35 6.88 48.3 00-10.692-1.658 8.35 6.88 48.3 00.418 10.81 8.35 6.88 48.3 0010.692 1.658zM295.29 395q1.45 13.85 11.51 23.07c2.14 1.96 5.02 3.3 7.66 4.68 7.22 3.76 15.84 3.85 23.54 1.54q4.78-3.18 6.47-6.08c3.03-5.19 1.47-14.57-.42-19.75-5.4-14.79-19.77-28.43-36.8-22.29-8.41 3.04-12.75 9.94-11.96 18.83zm116.96-3.54c-3.92 10.86 4.93 25.71 16.67 26.5q3.85.26 7.75-.94 9.73-1.61 11.76-10.85c2.09-9.51-2.31-19.62-10.34-24.82-8.68-5.61-23.36-1.34-25.84 10.11z"/><path fill="#959798" d="M242.36 117.45l-14.67 11.91q-8.94 6.3-15.52 13.29-5.1 5.42-9.42 12.81c-14.99-2.52-29.61 6.08-34.68 20.3-3.51 9.84 2.88 18.19 12.68 19.53q-.5 2.8-2 5.1-2.94 5.46-4.17 11.55a.51.51 0 00.43.6q.2.03.45-.04c-2 10.09-4.43 20.71-5.24 30.44q-3.41 40.98 9.24 80.31-7.21 4.07-11.9 10.84c-6.91 9.97-2.62 24.73 5.82 32.35q11.49 10.36 28.33 6.31 13.81 22.02 32.08 40.33c10.44 10.46 23.22 19.35 35.71 27.63l-7.76 6.29a.7.69-33 00-.18.84q.14.26.48.41-5.28 5.88-6.18 13.69-1.76 6.88 1.19 13.09 8.02 16.87 27.21 17.64 15.92.64 25.04-10.96l2.81-7.24q1.57-7.38-.26-14.75a.18.18 0 01.15-.22l.25-.04 17.35 4.9q2.26 1.79 5.17 1.84a.48.48 0 00.49-.49l-.01-.42q9.88 1.59 19.84 2.16c11.91.67 23.67-.96 35.4-3.26q.41-.08.22-.44l25.25-6.35q-3.9 2.85-8.16 4.95-24.44 12-48.74 24.34-8.06 4.1-14.6 6.16c-22.38 7.07-47.06 10.13-70.41 7.09q-47.55-6.2-86.24-35.2a.49.49 0 01-.1-.68c5.23-7.33 4.86-17.15 4.06-26.8-1.08-12.94-8.94-27.48-20.5-34.37-11.12-6.63-27.65-7.25-38.59-.73a.56.56 0 01-.73-.15q-1.63-2.18-3.44-5.52-13.26-24.44-20.13-51.41c-1.52-5.96-1.87-12.5-3-18.07q-4.93-24.27-2.1-49c1.98-17.31 6.17-39.55 14.37-57.34q16.98-36.81 48.4-62.37c20.24-16.46 44.99-26.07 68.12-37.9q3.82-1.96 8.19-2.95zM139.75 228.71l-.75.25-.63-.32a1.18 1.18 0 00-.92-.05q-9.92 3.47-12.26 13.92c-2.25 9.98 1.96 20.47 13.27 21.25 2.32.16 10.34-1.84 11.95-2.81q3.82-2.28 3.7-7.18.6-8.93.33-14.21-.22-4.08-3.61-6.76-4.19-5.62-11.08-4.09zm202.07 248.36q-3.13 4.02-.96 8.47c3.34 6.87 14.85-.53 18.49-3.95a.85.81 29.7 01.79-.2c1.76.47 5.1-10.06 1.53-10.35q-5.21-5.28-11.95-1.57-5.02 2.76-7.9 7.6z"/><ellipse fill="#959798" transform="rotate(5.9 -983.356 3331.653)" rx="1.46" ry=".51"/><path fill="#252323" d="M227.69 129.36q-12.15 12.53-22.19 26.73a.73.72 46.7 00-.02.82q5.93 9.59 3.49 21.07c-1.61 7.57-6.98 15.88-15.14 16.97q-5.01.68-9.91 1.67a.87.87 0 00-.65.57c-11.48 33.69-13.71 67.9-6.5 102.76 1.38 6.68 2.35 15.34 5 21.54a.68.67-15.1 00.7.4c19.19-2.52 34.43 9.65 33.79 29.45q-.32 9.69-7.6 16.87c-1.02 1.01-2.82 1.7-3.86 3.11a.74.73 47.5 00-.03.83c18.41 28.95 41.06 51.1 70.27 68.1a1.3 1.27 53.7 00.91.15q7.8-1.61 15.3 1.06-.41.01-.66.32a.52.52 0 00.25.82q13.17 4.2 20.08 16.15a.92.91-13.5 00.76.46q.39.01.57.25l-.25.04a.18.18 0 00-.15.22q1.83 7.37.26 14.75-5.56-4.34-6.33-6.49-.68-1.87-3.01-3.48c-3.18-2.21-11.63-8.67-13.77-6.29-9.27-2.85-25.04-3.03-33.14 3.73q.9-7.81 6.18-13.69 3.58-3.79 8.42-6.51a.46.46 0 00.01-.8q-.35-.2-.97-.23c-12.49-8.28-25.27-17.17-35.71-27.63q-18.27-18.31-32.08-40.33c1.51-1.38 2.58-2.32 2.74-4.52.58-8.13.13-13.58-3.44-20.93-1.19-2.46-1.72-6.03-3.55-8.52q-7-9.53-18-15.53-12.65-39.33-9.24-80.31c.81-9.73 3.24-20.35 5.24-30.44l3.29-12.11q1.5-2.3 2-5.1c6.96.02 15.67-6.13 18.6-12.42 4.16-8.93 5.56-15.12 4.8-25.19q-.12-1.49-1.4-2.22 4.32-7.39 9.42-12.81 6.58-6.99 15.52-13.29z"/><ellipse fill="#252323" transform="rotate(67.1 24.182 322.907)" rx="31.69" ry="28.82"/><path fill="#fff" d="M202.75 155.46q1.28.73 1.4 2.22c.76 10.07-.64 16.26-4.8 25.19-2.93 6.29-11.64 12.44-18.6 12.42-9.8-1.34-16.19-9.69-12.68-19.53 5.07-14.22 19.69-22.82 34.68-20.3z"/><path fill="#fbfce0" d="M178.75 200.39l-3.29 12.11q-.25.07-.45.04a.51.51 0 01-.43-.6q1.23-6.09 4.17-11.55z"/><path fill="#252323" d="M150.83 232.8q2.13 5.56 2.4 8.2.29 2.85-.66 11.65-.76 7.03-7.55 6.73a1.76 1.75 64.2 01-.91-.32q-4.88-3.55-6.16-7.54c-1.9-5.93-1.39-15.92 2.5-22.06a.49.49 0 00-.19-.7q-.29-.15-.51-.05 6.89-1.53 11.08 4.09z"/><path fill="#fff" d="M139 228.96c-4.12 5.5-4.04 14.89-2.79 21.3q1.49 7.72 9.12 11.05a1.59 1.55 49.5 00.96.09q5.96-1.42 7.82-7.63.12 4.9-3.7 7.18c-1.61.97-9.63 2.97-11.95 2.81-11.31-.78-15.52-11.27-13.27-21.25q2.34-10.45 12.26-13.92a1.18 1.18 0 01.92.05l.63.32z"/><path d="M139.75 228.71q.22-.1.51.05a.49.49 0 01.19.7c-3.89 6.14-4.4 16.13-2.5 22.06q1.28 3.99 6.16 7.54a1.76 1.75 64.2 00.91.32q6.79.3 7.55-6.73.95-8.8.66-11.65-.27-2.64-2.4-8.2 3.39 2.68 3.61 6.76.27 5.28-.33 14.21-1.86 6.21-7.82 7.63a1.59 1.55 49.5 01-.96-.09q-7.63-3.33-9.12-11.05c-1.25-6.41-1.33-15.8 2.79-21.3l.75-.25zM241.5 298.79q-.57-.36-.88-.98a.83.83 0 01.15-.97q.54-.54 1.31-.6a1.52 1.52 0 00.85-.35c3.25-2.77 6.88-5.29 9.01-8.89 6.82-11.52 4.52-26.49-1.28-38.99-1.44-3.11-3.93-5.25-6.2-7.74-8.81-9.68-21.21-9.66-33.15-6.33-3.44.96-5.04 3.89-8.81 4.77l-1.75.25q5.89-5.94 14.18-7.58c27.86-5.47 42.65 15.89 42.49 40.87q-.11 17.96-15.92 26.54z"/><path fill="#252323" d="M241.5 298.79q-8.43 3.96-17.75 2.67 5.2-1.88 7.46-6.96l-.31 1.32a.6.6 0 00.43.72l.58.15a.67.66-70.7 00.76-.37c9.77-21.59 4.78-46.29-18.63-55.97-.5-.2-1.52-.09-2.06-.07a.51.51 0 00-.49.51l.01.42q-4.29-2.04-9-2.5c3.77-.88 5.37-3.81 8.81-4.77 11.94-3.33 24.34-3.35 33.15 6.33 2.27 2.49 4.76 4.63 6.2 7.74 5.8 12.5 8.1 27.47 1.28 38.99-2.13 3.6-5.76 6.12-9.01 8.89a1.52 1.52 0 01-.85.35q-.77.06-1.31.6a.83.83 0 00-.15.97q.31.62.88.98z"/><path fill="#959798" d="M202.5 238.71q4.71.46 9 2.5c22.56 7.67 29.36 32.72 19.71 53.29q-2.26 5.08-7.46 6.96c-30.21-2.17-42.69-41.02-23-62.5l1.75-.25z"/><path d="M231.21 294.5c9.65-20.57 2.85-45.62-19.71-53.29l-.01-.42a.51.51 0 01.49-.51c.54-.02 1.56-.13 2.06.07 23.41 9.68 28.4 34.38 18.63 55.97a.67.66-70.7 01-.76.37l-.58-.15a.6.6 0 01-.43-.72l.31-1.32z"/><path fill="#252323" d="M348.5 351.96q2.1-.46 3.79-1.71 15.15-24.56-5.62-43.68c-7.59-6.98-21.38-7.57-30.67-5.28l-5.5 2.92q5.31-16.14 22-17.7c15.07-1.4 27.33 5.97 34.37 19.2 9.44 17.75 8.39 45.46-18.37 46.25z"/><path fill="#fbfce0" d="M352.29 350.25l-.13-.38a1.23 1.23 0 01.05-.92q3.7-7.88 4.8-13.7c1.93-10.21-2.64-17.19-8.39-25.14-6.53-9.04-20.95-10.31-31.07-7.97a.99.97 59.3 01-.87-.23l-.68-.62c9.29-2.29 23.08-1.7 30.67 5.28q20.77 19.12 5.62 43.68z"/><path fill="#959798" d="M352.29 350.25q-1.69 1.25-3.79 1.71c-20.7.64-35.53-13.95-39.04-33.44q-1.25-6.99 1.04-14.31l5.5-2.92.68.62a.99.97 59.3 00.87.23c10.12-2.34 24.54-1.07 31.07 7.97 5.75 7.95 10.32 14.93 8.39 25.14q-1.1 5.82-4.8 13.7a1.23 1.23 0 00-.05.92l.13.38z"/><path fill="#fff" d="M179.46 323.25q11 6 18 15.53c1.83 2.49 2.36 6.06 3.55 8.52 3.57 7.35 4.02 12.8 3.44 20.93-.16 2.2-1.23 3.14-2.74 4.52q-16.84 4.05-28.33-6.31c-8.44-7.62-12.73-22.38-5.82-32.35q4.69-6.77 11.9-10.84z"/><ellipse fill="#959798" transform="rotate(48.3 -279.55 469.899)" rx="8.35" ry="6.88"/><path fill="#252323" d="M338 424.29q1.88-7.05-.34-12.97c-6.23-16.62-26.87-20.81-42.37-16.32-.79-8.89 3.55-15.79 11.96-18.83 17.03-6.14 31.4 7.5 36.8 22.29 1.89 5.18 3.45 14.56.42 19.75q-1.69 2.9-6.47 6.08zM436.67 417.02q2.77-16.38-11.23-24.21-4.79-2.68-10.58-2.55-.49.01-.93.26l-1.68.94c2.48-11.45 17.16-15.72 25.84-10.11 8.03 5.2 12.43 15.31 10.34 24.82q-2.03 9.24-11.76 10.85z"/><path fill="#959798" d="M436.67 417.02q-3.9 1.2-7.75.94c-11.74-.79-20.59-15.64-16.67-26.5l1.68-.94q.44-.25.93-.26 5.79-.13 10.58 2.55 14 7.83 11.23 24.21zM338 424.29c-7.7 2.31-16.32 2.22-23.54-1.54-2.64-1.38-5.52-2.72-7.66-4.68q-10.06-9.22-11.51-23.07c15.5-4.49 36.14-.3 42.37 16.32q2.22 5.92.34 12.97z"/><path d="M183.29 460.25c-1.13-10.41-4.59-21.02-11.02-29.5-2.45-3.23-6.47-6.21-9.48-9.66q7.11 3.23 11.45 9.16c5.44 7.42 9.51 20.21 11.25 30.05a.57.57 0 01-.36.64q-1.23.47-1.84-.69z"/><path fill="#fbfce0" d="M269.5 440.71q.62.03.97.23a.46.46 0 01-.01.8q-4.84 2.72-8.42 6.51-.34-.15-.48-.41a.7.69-33 01.18-.84l7.76-6.29z"/><path d="M291.25 441.46q12.25 3.84 19.47 14.38a1.3 1.3 0 00.77.54c8.11 2.07 16.67 4.44 24.44 5.74q27.19 4.55 54.78 1.63.19.36-.22.44c-11.73 2.3-23.49 3.93-35.4 3.26q-9.96-.57-19.84-2.16l-5.65-.93-17.35-4.9q-.18-.24-.57-.25a.92.91-13.5 01-.76-.46q-6.91-11.95-20.08-16.15a.52.52 0 01-.25-.82q.25-.31.66-.32z"/><path fill="#fff" d="M289 458.21c10.29 3.53 20.02 11.83 20.3 23.5q-9.12 11.6-25.04 10.96-19.19-.77-27.21-17.64-2.95-6.21-1.19-13.09c8.1-6.76 23.87-6.58 33.14-3.73z"/><path d="M312.11 474.47l-2.81 7.24c-.28-11.67-10.01-19.97-20.3-23.5 2.14-2.38 10.59 4.08 13.77 6.29q2.33 1.61 3.01 3.48.77 2.15 6.33 6.49z"/><path fill="#fbfce0" d="M329.6 464.36l5.65.93.01.42a.48.48 0 01-.49.49q-2.91-.05-5.17-1.84z"/><path fill="#252323" d="M361.67 471.04q1.06 4.8-1.02 8.64a1.41 1.41 0 01-1.16.75c-7.11.47-11.1-1.69-17.67-3.36q2.88-4.84 7.9-7.6 6.74-3.71 11.95 1.57z"/><path fill="#fff" d="M361.67 471.04c3.57.29.23 10.82-1.53 10.35a.85.81 29.7 00-.79.2c-3.64 3.42-15.15 10.82-18.49 3.95q-2.17-4.45.96-8.47c6.57 1.67 10.56 3.83 17.67 3.36a1.41 1.41 0 001.16-.75q2.08-3.84 1.02-8.64z"/><path fill="#252323" d="M161.03 518.21c3.62 1.16 8.12 2.23 10.89 4.49 4.66 3.79 8.2 13.22.48 16.55-21.41 9.23-50.86 6.59-74.62 4.64-3.57-.29-7.17-1.07-10.78-1.66-9.89-1.61-.78-18.71 2.05-23.22 3.84-6.11 13.09-6.05 19.39-7.96 11.36-3.45 23.34-1.7 34.64 1.29a.75.75 0 00.92-.89c-1.39-6.23 6.23-13.31 10.57-16.83 6.93-5.61 17.52 6.21 20.71 11.35 5.71 9.2-7.95 10.8-14.23 12q-.49.09-.02.24zm1.22-5.5q1.77-.16 3.17-.9l6.42-1.61a.41.41 0 00.24-.61c-2.93-4.61-11.7-16.47-17.72-8.9-2.54 3.18-6.08 7-5.32 10.47a.93.9-86.7 00.58.67q6.14 2.19 12.63.88zm-65.57 6.33c-3.64-.77-4.95 3.5-5.18 6.2q-3.38 5.01-3.31 11.08c7.25 3.74 14.42 3.68 24.51 4.55 13.78 1.18 29.3 1.87 42.8-1.58q8.4-1.66 16.33-5.08a.76.74-13.5 00.45-.71c-.26-6.87-4.38-7.94-10.72-10.41-16.28-6.34-34.43-12.65-52.19-7.33-4.01 1.21-8.48 1.78-12.69 3.28z"/><path fill="#fff" d="M165.42 511.81q-1.73-5.6-4.47-10.8c-1.62-3.06-3.72-2.7-5.53-.07-1.62 2.37-8.23 10.28-2.16 11.01q4.17.5 8.35-.21a.58.58 0 01.66.43q.07.27-.02.54-6.49 1.31-12.63-.88a.93.9-86.7 01-.58-.67c-.76-3.47 2.78-7.29 5.32-10.47 6.02-7.57 14.79 4.29 17.72 8.9a.41.41 0 01-.24.61l-6.42 1.61z"/><path fill="#959798" d="M165.42 511.81q-1.4.74-3.17.9.09-.27.02-.54a.58.58 0 00-.66-.43q-4.18.71-8.35.21c-6.07-.73.54-8.64 2.16-11.01 1.81-2.63 3.91-2.99 5.53.07q2.74 5.2 4.47 10.8z"/><path fill="#fff" d="M155.5 539.29c1.47-5.58-7.39-7.71-11.5-8.56-7.42-1.55-15.26-2.51-22.24-4.39q-12.62-3.41-25.08-7.3c4.21-1.5 8.68-2.07 12.69-3.28 17.76-5.32 35.91.99 52.19 7.33 6.34 2.47 10.46 3.54 10.72 10.41a.76.74-13.5 01-.45.71q-7.93 3.42-16.33 5.08z"/><path fill="#959798" d="M96.68 519.04q12.46 3.89 25.08 7.3c6.98 1.88 14.82 2.84 22.24 4.39 4.11.85 12.97 2.98 11.5 8.56-13.5 3.45-29.02 2.76-42.8 1.58-10.09-.87-17.26-.81-24.51-4.55q2.69-5.43 3.31-11.08c.23-2.7 1.54-6.97 5.18-6.2z"/><path fill="#252323" d="M194.68 540.82c-2.13-1.55-3.69-3.67-3.23-6.48 1.28-7.92 9.04-14.64 17.04-14.78 7.92-.13 15.33 6.12 17.5 13.7 1.44 5.03-4.07 8.87-8.49 8.91-5.07.06-19.05 1.37-22.82-1.35zm10.28-15.57q-5.99 3.01-8.47 9.24a.88.87 37.9 00.11.86q1.99 2.65 5.38 1.53 8.71.71 17.56-.4a2.15 2.15 0 001.65-3.12q-.05-.11-.12-.23c-3.21-5.85-8.97-10.8-16.11-7.88z"/><path fill="#fff" d="M201.98 536.88l11.09-.97a.85.85 0 00.65-1.28q-3.59-5.89-8.76-9.38c7.14-2.92 12.9 2.03 16.11 7.88q.07.12.12.23a2.15 2.15 0 01-1.65 3.12q-8.85 1.11-17.56.4z"/><path fill="#fbfce0" d="M91.5 525.24q-.62 5.65-3.31 11.08-.07-6.07 3.31-11.08z"/><path fill="#959798" d="M204.96 525.25q5.17 3.49 8.76 9.38a.85.85 0 01-.65 1.28l-11.09.97q-3.39 1.12-5.38-1.53a.88.87 37.9 01-.11-.86q2.48-6.23 8.47-9.24z"/><path fill="#fff" d="M590.29 589.75l.71.31v.94h-1.06l-.19-.71.54-.54z"/><path fill="#252323" d="M0 589.94l.25.1c-.15.47-.01.72.51.7q5.85-.17 11.68.26H0v-1.06z"/><path fill="#fbfce0" d="M.25 590.04q3.22.07 6.44.08 291.53.12 583.06.17l.19.71h-13.5q-3.38-.63-6.75 0H12.44q-5.83-.43-11.68-.26c-.52.02-.66-.23-.51-.7z"/><path fill="#959798" d="M576.44 591h-6.75q3.37-.63 6.75 0z"/></svg>