<svg xmlns="http://www.w3.org/2000/svg" viewBox="0 0 591 591"><g stroke-width="2" fill="none"><path stroke="#111" vector-effect="non-scaling-stroke" d="M590.06 0l.19.29"/><path stroke="gray" vector-effect="non-scaling-stroke" d="M590.25.29l.04 589.46"/><path stroke="#7e7f71" vector-effect="non-scaling-stroke" d="M590.29 589.75l-.54.54"/><path stroke="gray" vector-effect="non-scaling-stroke" d="M589.75 590.29q-291.97-.05-583.94-.17-2.78 0-5.56-.08"/><path stroke="#111" vector-effect="non-scaling-stroke" d="M.25 590.04l-.25-.1"/><path stroke="#7e7f71" vector-effect="non-scaling-stroke" d="M586.25 4.52a.27.27 0 00-.27-.27H4.52a.27.27 0 00-.27.27v581.46a.27.27 0 00.27.27h581.46a.27.27 0 00.27-.27V4.52"/><path stroke="#919090" vector-effect="non-scaling-stroke" d="M591 587.56c-.84-.45-.25-537.29-.25-587.06a.25.24-86.1 00-.21-.25q-.17-.02-.29.04"/><path stroke="#fdfff0" vector-effect="non-scaling-stroke" d="M591 590.31l-.71-.56"/><path stroke="#cccec1" vector-effect="non-scaling-stroke" d="M80.48 11.83l1.4 1.21a.15.15 0 00.23-.04l.15-.25a.7.7 0 00-.3-.98l-2.71-1.31a.66.65-64.8 00-.88.32q-1.21 2.71.7 5.15a.62.62 0 00.74.18l.57-.27q.66-.3.04-.69-1.69-1.05-1.04-3.01a.69.69 0 011.1-.31"/><path stroke="#fbf2c7" vector-effect="non-scaling-stroke" d="M87.44 41.58c-4.85-1.84-12.08-1.18-17.24-1.1-11.64.19-29.39-1.62-39.19 5.06-7.48 5.08-7.35 12.24-7.19 21.81q.27 15.82.65 31.64c.03 1.46-.64 4.82-.22 6.02q.89 2.51 2.72.59Q56.4 74.9 85.91 44.92q1.06-1.07 1.86-2.01a.84.83-59.2 00-.33-1.33"/><path stroke="#8f9081" vector-effect="non-scaling-stroke" d="M534.91 458.53q-1.53-.74.04-1.39L577 439.72a1.09 1.09 0 00.65-.78l3.63-16.88a.71.71 0 00-.42-.8q-4.69-2-11.86-4.26-22.72-7.15-45.38-14.25a.38.38 0 01-.14-.65q11.94-10.73 22.12-23.01c5.27-6.35 9.13-14.5 13.51-21.77 4.5-7.45-9.89-9.03-13.19-10.6a1.36 1.33 2.7 01-.66-.71q-3.09-8.09-11.65-6.13a.41.41 0 01-.5-.35c-.72-5.89-6.34-6.39-10.62-3.56a.41.41 0 01-.6-.16c-1.93-4.08-6.21-2.91-9.33-6.02q-.36-.36.15-.39 7.01-.4 14.04-.1c3.02.13 6.17-1.06 8.34-1.38 3.44-.52 6.99-.64 10.3-1.76 2.96-.99 6.1-.8 8.5-1.9 4.28-1.97 7.08-4.82 7.68-9.79q1.52-12.53 2.37-25.21a.91.9 78.7 01.48-.73c6.24-3.22 18-9.54 13.9-18.84-8.89-20.2-27.55-31.22-47.55-38.01q-27.01-9.17-55.18-14.13c-1.31-.23-2.93-.92-4.42-1.17-36.43-6.23-65.4-10.43-109.57-14.62q-3.24-.31-6.33-1.6c-21.52-8.95-45.93-14.32-65.16-16.45q-4.66-.52-9.74-.06c-7.25.66-14.69.93-21.7 1.95-8.83 1.29-17.65 2.66-26.51 3.78-10.35 1.31-19.3 3.18-31.06 2.9-1.72-.04-3.41.34-5.06.66q-45.77 8.71-90.69 21.03c-20.86 5.72-41.48 13.19-62.1 19.78-3.02.96-7.84 3.05-12.04 3.94-1.44.3-2.79.84-3.98 1.34q-1.49.61-.03 1.3c38.38 17.93 76.21 36.08 114.2 53.54 136.89 62.89 274.01 125.44 409.47 191.15a.74.74 0 001.06-.57l2.18-16.09a.79.77 17.1 00-.44-.81l-18.76-9.02"/><path stroke="#cccec1" vector-effect="non-scaling-stroke" d="M285.61 478.47a1.08 1.08 0 00-1.08-1.08 1.08 1.08 0 00-1.08 1.08 1.08 1.08 0 001.08 1.08 1.08 1.08 0 001.08-1.08"/><path stroke="#fdfff0" vector-effect="non-scaling-stroke" d="M497.988 496.952a1.33.98 101.8 001.231-1.102 1.33.98 101.8 00-.687-1.502 1.33.98 101.8 00-1.231 1.102 1.33.98 101.8 00.687 1.502M569.88 509.47c.28 1.41 3.18 1.51 4.4 1.14q2.06-.62-.08-.43-2.2.19-3.79-1.04-.71-.54-.53.33"/><path stroke="#5f5f61" vector-effect="non-scaling-stroke" d="M69.5 230.79l-20.65 5.27"/><path stroke="#222121" vector-effect="non-scaling-stroke" d="M48.85 236.06c-.73 3.03-2.44 1.36-4.35 2.08q-.54.21.01.41c1.88.7 5.19.11 7.47.58 4.25.87 7.9.37 12.06.66a.52.51 4.6 00.55-.46q.19-2.16-.59-4.04"/><path stroke="#5f5f61" vector-effect="non-scaling-stroke" d="M64 235.29l.97-.36a.73.72 78.8 01.98.66l.15 4.66q.03.92.69.28c.44-.44-.14-3.37.41-4.61a.69.69 0 01.7-.41l.35.03a.38.37 9.2 01.34.46q-.26 1.11.05 2.04.24.73.48 0c.37-1.1-.43-2.68 1.08-3.16a.49.48-15.5 01.62.35l.47 2.02"/><path stroke="#919090" vector-effect="non-scaling-stroke" d="M71.29 237.25l-.42 3.2a.56.53-63.5 00.13.43l.25.27q.48.53.48-.19l-.02-3.71"/><path stroke="#5f5f61" vector-effect="non-scaling-stroke" d="M71.71 237.25l.34-2.28a.55.53-83.5 01.56-.46c2.26.14 1.16 4.45.83 6.41a.35.35 0 00.46.38c1.41-.47 1.41-4.66 1.33-5.53a.86.85 75.3 01.49-.85l1.15-.51a.42.42 0 01.6.34c.09.85-.01 6.96.55 7.11a.69.68-88.5 00.85-.81q-1.06-4.99 2.11-6.34"/><path stroke="#919090" vector-effect="non-scaling-stroke" d="M80.98 234.71c.59 1.97.12 6.61 1.26 7.31a.65.65 0 00.99-.55l.03-6.6a.62.62 0 01.62-.62l.87-.01a.7.7 0 01.7.69l.07 6.83a.57.57 0 00.46.55c2.22.44 1.21-6.04 1.18-7.43a.62.61-.9 01.62-.63h2.72a.5.5 0 01.5.5v7.38a.71.71 0 00.62.7l12.33 1.52q.94.12.17-.44-1.63-1.18-3.66-1.2a.57.56 88.9 01-.56-.55l-.36-8.66"/><path stroke="#5f5f61" vector-effect="non-scaling-stroke" d="M99.54 233.5q2.37-1.08 4.95-.11a.9.89 9.4 01.6.83l.23 9.6a.55.54 2.4 00.49.53q5.45.5 10.92.64c1.69.04 3.44.65 5.02.76q13 .89 25.96 2.25"/><path stroke="#919090" vector-effect="non-scaling-stroke" d="M147.71 248l4.04.46"/><path stroke="#5f5f61" vector-effect="non-scaling-stroke" d="M151.75 248.46q21.96 2.02 43.94 3.93c3.49.3 7.37-.28 10.84-1.22q16.06-4.36 32.73-5.19.49-.02.02.11-6.48 1.9-12.52 4.97"/><path stroke="#919090" vector-effect="non-scaling-stroke" d="M226.76 251.06c-12.4 3.1-22.96 5.8-33.3 12.19"/><path stroke="#5f5f61" vector-effect="non-scaling-stroke" d="M193.46 263.25l-1.26-.01q-.49-.01-.92.22c-5.04 2.62-9.12 2.94-15.09 1.89q-24.15-4.23-48.34-8.22c-25.14-4.16-50.2-8.95-75.36-12.94-1.32-.21-3.37-.04-5.09-.83a.14.13-51.7 00-.15.02l-.19.18a.29.29 0 00.1.49c10.2 3.66 20.14 8.75 30.19 12.95q7.04 2.95 21.72 7.41 17.35 5.27 74.14 23.34"/><path stroke="#919090" vector-effect="non-scaling-stroke" d="M173.21 287.75l11.33 3.39"/><path stroke="#5f5f61" vector-effect="non-scaling-stroke" d="M184.54 291.14c12.63 4.91 26.19 6.92 39.53 9.01q2.41.37 3.65-.99a1.02 1.02 0 00.24-.88q-.24-1.21-1.07-2.18-9.51-11.24-19.2-22.29-1.16-1.32-.54-2.61a.76.76 0 01.74-.42q2.41.22 3.06.52c13.46 6.39 29.31 9.56 44.55 12.16"/><path stroke="#919090" vector-effect="non-scaling-stroke" d="M255.5 283.46l18.46 3.04"/><path stroke="#5f5f61" vector-effect="non-scaling-stroke" d="M273.96 286.5q12.66 2.58 25.54 3.46"/><path stroke="#919090" vector-effect="non-scaling-stroke" d="M299.5 289.96q8.94 1.16 18.06 1.31"/><path stroke="#5f5f61" vector-effect="non-scaling-stroke" d="M317.56 291.27q11.66 1.5 20.69 1.97 37.97 1.95 78.5 1.56c17.21-.16 34.66 1.15 52.02 1.21 17.91.05 33.79-3.7 50.28-6.15 14.4-2.14 28.46-5.18 42.7-7.82"/><path stroke="#919090" vector-effect="non-scaling-stroke" d="M561.75 282.04q6.34-2.57 10.95-7.66a.8.79 55.4 00.15-.84c-8.13-19.48-27.11-29.72-46.1-36.05-36.75-12.25-76.61-18.88-115-23.47-19.19-2.29-38.45-4.05-57.62-6.41-17.07-2.1-33.3 2.54-47.79 4.06"/><path stroke="#5f5f61" vector-effect="non-scaling-stroke" d="M306.34 211.67c-2.78-6.37-10.49-12.61-16.59-18.13"/><path stroke="#919090" vector-effect="non-scaling-stroke" d="M289.75 193.54l8.03-1.66q.44-.1.01-.23-6.24-1.89-11.55-1.76-15.45.37-34.45 3.38c-10.23 1.61-19.03 2.42-31.05 4.96-7.66 1.63-17.03.44-24.99 1.69q-5.81.91-12.49 2.36-58.76 12.74-113.76 28.51"/><path stroke="#ceced0" vector-effect="non-scaling-stroke" d="M289.75 193.54l-15.28 1.59"/><path stroke="gray" vector-effect="non-scaling-stroke" d="M274.47 195.13q-3.37-.91-7.89-.84"/><path stroke="#919090" vector-effect="non-scaling-stroke" d="M266.58 194.29c-8.19-1.61-16.13 3.16-15.47 12.07.95 12.93 26.95 11.85 35.64 9.85"/><path stroke="#ceced0" vector-effect="non-scaling-stroke" d="M286.75 216.21q10.01-1.25 19.59-4.54M561.75 282.04q-9.62-.65-13.19-.2-30.17 3.84-60.35 7.66c-26.74 3.38-51.98 3.03-78.56 2.86a.52.51-85.6 00-.52.45l-.1.74a.39.39 0 01-.76.06l-.25-.85a.59.58-5.6 00-.52-.42q-10.58-.87-21.18-1.2-11.3-.36-32.89-4.8-9.92-2.04-13.96-2.5a1.43 1.39 70.8 01-.84-.42q-7.4-7.59-19.62-7.89-5.2-.13-21.32-1.88c-21.84-2.37-43.8-4.37-65.74-5.47q-13.87-.71-27.71-1.95-2.68-.25-8.06 1.48a.84.83 58.6 01-.84-.21q-1.76-1.77-1.88-4.25M226.76 251.06q3.48.47 9.23-.84c13.53-3.09 35.35-6.33 53.36-11.02 24.64-6.43 50-9.55 75.46-10.06q1.26-.02 3.44-.43"/><path stroke="#919090" vector-effect="non-scaling-stroke" d="M368.25 228.71c7.16-.6 14.31-.55 21.5-1"/><path stroke="#ceced0" vector-effect="non-scaling-stroke" d="M389.75 227.71c19.78-.57 35.25-.52 53.18 1.67q.53.07.02-.06-3.2-.75-8.2-1.3-24.69-2.72-47-2.73"/><path stroke="#919090" vector-effect="non-scaling-stroke" d="M387.75 225.29l-4.04.21"/><path stroke="#ceced0" vector-effect="non-scaling-stroke" d="M383.71 225.5q-4.48-.55-8.98-.44c-8.57.21-16.29-.2-25.04.1q-37.9 1.29-70.62 4.34-26.1 2.43-51.76-2.82-17.02-3.49-30.14-14.57c-3.39-2.86-6.44-4.9-10.43-4.49q-10.93 1.12-24.81 4.21c-11.22 2.5-21.99 4.23-32.94 6.63q-22.08 4.84-44.24 9.3c-1.49.3-11.51 2.62-12.92 3.96a1.37 1.36-67.3 01-.87.36q-1.34.04-1.46-1.29"/><path stroke="#5f5f61" vector-effect="non-scaling-stroke" d="M383.71 225.5q1.81 1.02 3.87.74a.46.46 0 00.39-.57q-.05-.21-.22-.38M389.75 227.71l-.57-.42a1.31 1.27 59.8 00-.86-.24q-5.28.37-10.55.38c-1.1 0-2.38-.64-3.84-.05a1.34 1.32 42.1 01-.92.04q-2.82-.91-4.76 1.29"/><path stroke="#ceced0" vector-effect="non-scaling-stroke" d="M151.75 248.46v-1.92"/><path stroke="#5f5f61" vector-effect="non-scaling-stroke" d="M151.75 246.54l14.12.77a.91.91 0 00.96-.93l-.32-15.57a1.25 1.25 0 00-1.22-1.23q-8.2-.27-14.75 1.42"/><path stroke="#ceced0" vector-effect="non-scaling-stroke" d="M150.54 231q-.22-.26-.51-.29a.54.53-83.7 00-.57.46q-.96 7.37-.53 14.75a1.27 1.26-27.9 01-.27.86l-.95 1.22M99.54 233.5q-1.61-.85-2.25.75"/><path stroke="#5f5f61" vector-effect="non-scaling-stroke" d="M97.29 234.25q-2.32-1.22-4.5.25"/><path stroke="#ceced0" vector-effect="non-scaling-stroke" d="M92.79 234.5q-2.62-2.13-5.81-1.18a1.76 1.68 44.4 01-1.01-.01q-1.56-.48-3.15-.01a.58.57-12.2 00-.41.63q.11.87-1.43.78M71.71 237.25h-.42"/><path stroke="#5f5f61" vector-effect="non-scaling-stroke" d="M64 235.29q-1.59-.05-5.19 1.02-3.52 1.05-9.96-.25M286.75 216.21l-3.21-5.46"/><path stroke="#4e4f50" vector-effect="non-scaling-stroke" d="M283.54 210.75l-9.07-15.62"/><path stroke="#111" vector-effect="non-scaling-stroke" d="M266.58 194.29q2.34 2.05 5.69 2.18a1.21 1.2 69.7 01.84.39c4.12 4.4 6.25 9.71 9.44 14.29a.51.51 0 00.75.1q.21-.18.24-.5"/><path stroke="#ceced0" vector-effect="non-scaling-stroke" d="M317.56 291.27q-8.03-2.04-16.29-2.44-1.48-.08-1.77 1.13M273.96 286.5q.37-.37.27-.79a.76.76 0 00-.63-.59l-17.2-2.59a.78.77 20.6 00-.76.34q-.16.25-.14.59M184.54 291.14q-4.78-3.31-10.48-4.62a.74.73 22.8 00-.79.32q-.22.36-.06.91"/><path stroke="#919090" vector-effect="non-scaling-stroke" d="M151.75 246.54l-.56-.3a.95.95 0 01-.49-.74q-.77-7.23-.16-14.5M92.79 234.5l-.3 6.62a.83.82 9.3 00.6.83l3.13.89a.64.63 8.6 00.81-.59l.26-8"/><path stroke="#5f5f61" vector-effect="non-scaling-stroke" d="M69.28 240.79a.3.3 0 00.41-.26q.06-1.08-.86-1.29a.63.63 0 00-.38 1.2l.83.35M553 290.79l-3.88.53a.92.92 0 00-.71.53c-1.85 3.91-1.97 12.41-2.32 16.77"/><path stroke="#919090" vector-effect="non-scaling-stroke" d="M546.09 308.62l-.81 11.33a.57.57 0 00.45.59q7.72 1.68 11.52-4.74a1.65 1.65 0 00.22-.99c-.5-4.95.95-10.34 1.04-13.3q.22-7.26 1.17-11.51a.33.33 0 00-.38-.4l-6.3 1.19"/><path stroke="#ceced0" vector-effect="non-scaling-stroke" d="M546.09 308.62q4.03-5.79 10.8-7.66a.85.85 0 00.62-.76l.53-8.34a.84.83 86.1 00-1-.88l-3.43.73a.55.54 78.4 01-.64-.43q-.05-.23.03-.49"/><path stroke="#5f5f61" vector-effect="non-scaling-stroke" d="M257.17 291.38q5.89 3.8 12.68 5.62a.69.69 0 00.86-.61l.29-3.45a.42.41 6.8 00-.35-.44l-13-2.34a.67.67 0 00-.48 1.22M518.1 297.59c-.21 7.75-.52 15.15-.16 22.91"/><path stroke="#919090" vector-effect="non-scaling-stroke" d="M517.94 320.5q.66 2.33 2.06 3.67a1.4 1.4 0 00.88.38q9.78.55 19.05-2.52c2.24-.74 2.14-6.03 2.36-8.03"/><path stroke="#5f5f61" vector-effect="non-scaling-stroke" d="M542.29 314q1.78-4.94 1.01-9.89"/><path stroke="#919090" vector-effect="non-scaling-stroke" d="M543.3 304.11q.71-5.81-1.21-11.08a.53.53 0 00-.65-.33q-10.41 3.11-21.35 3.65c-.83.04-1.55.59-1.99 1.24"/><path stroke="#ceced0" vector-effect="non-scaling-stroke" d="M543.3 304.11q-1.92-1.61-1.61-4.01c.31-2.34.3-3.31-.73-5.1a.74.74 0 00-.76-.37l-19.34 3.03q-.45.07-.82.31-1.01.62-1.94-.38M542.29 314l.27-5.39a.78.78 0 00-.82-.82c-6.57.33-13.68.43-19.67 3.6a1.81 1.72-87.2 00-.7.67q-2.31 3.9-3.43 8.44"/><path stroke="#5f5f61" vector-effect="non-scaling-stroke" d="M276.58 299.84l11.9 3.24a.66.65 9.8 00.83-.58l.49-6.14a1.14 1.14 0 00-1.01-1.23l-11.77-1.37a.78.74-70.4 00-.74.37q-1.37 2.32-.54 4.91a1.24 1.21-.7 00.84.8M257.12 303.79q6.36 3.28 12.54 6.95a.42.41 19.6 00.62-.29l.82-5.31a.73.72 15.9 00-.44-.78c-3.16-1.37-5.57-3.78-8.45-5.05q-3.02-1.33-6.08-2.64a.45.45 0 00-.63.39l-.33 5.21a1.03 1-70.6 00.4.87c.45.34 1.17.45 1.55.65M294.75 305.36q6.1.7 11.61 3.42a.44.44 0 00.64-.39v-10.52a.67.67 0 00-.62-.67l-9.71-.78a1.91 1.91 0 00-2.06 1.84l-.21 6.7a.39.39 0 00.35.4"/><path stroke="#919090" vector-effect="non-scaling-stroke" d="M493.25 324.21q9.29.61 18.64.14a.78.78 0 00.69-.52q.24-.7-.13-1.42a1.74 1.68-57 01-.18-.92l.52-6.49"/><path stroke="#5f5f61" vector-effect="non-scaling-stroke" d="M512.79 315l1.2-16.89a.38.38 0 00-.45-.4q-13.65 2.43-27.43 3.82a.6.59-3.7 00-.53.6l.25 20.46a.68.67-79.2 00.42.63q3.44 1.42 7 .99"/><path stroke="#ceced0" vector-effect="non-scaling-stroke" d="M512.79 315l-.05-.93a.63.62 2.9 00-.53-.58c-3.51-.53-8.64 2.03-12.32 2.79-3.67.76-5.25 4.83-6.64 7.93"/><path stroke="#5f5f61" vector-effect="non-scaling-stroke" d="M313.94 310.31q4.19 1.57 10.36 2.44a.41.41 0 00.46-.5q-1.52-6.29-.22-12.68a.51.51 0 00-.47-.61l-10.54-.73a.59.58-81.4 00-.61.46c-.5 2.29-1.81 10.56 1.02 11.62M329.62 309.84c.63 2.2 12.54 5.28 15.09 4.87q.44-.07.09-.35c-1.94-1.59-.9-10.87-.56-13.2a.95.95 0 00-.88-1.08l-11.27-.65a.95.94 18.9 00-.83.4q-3.2 4.54-1.64 10.01M352.75 315.21q1.99.65 4 .45"/><path stroke="#919090" vector-effect="non-scaling-stroke" d="M356.75 315.66c2.58 2.7 5.25.82 6.63 2.17a.3.3 0 00.49-.11q1.14-3.14.67-6.47"/><path stroke="#5f5f61" vector-effect="non-scaling-stroke" d="M364.54 311.25l1.91-9.58a.42.41 6.4 00-.4-.49l-7.05-.14"/><path stroke="#919090" vector-effect="non-scaling-stroke" d="M359 301.04l-8.01-.33a.86.85 6.6 00-.88.69c-.52 2.51-2.61 14.92 2.64 13.81"/><path stroke="#ceced0" vector-effect="non-scaling-stroke" d="M359 301.04q.34.23.82.27a.38.38 0 01.32.51c-.48 1.22-7.02.12-8.37 0a.55.54-83.1 00-.58.46c-.82 5.21-1.49 9.11 1.56 12.93M364.54 311.25q.15-.53-.08-.8a.49.49 0 00-.78.06q-1.09 1.71-.21 3.48a1.34 1.31 41.6 01.07 1l-.4 1.19a.61.61 0 01-.67.41l-5.72-.93"/><path stroke="#5f5f61" vector-effect="non-scaling-stroke" d="M371.21 307.25q-1.93 6.63.44 13a.75.75 0 00.68.5l8.42.21"/><path stroke="#919090" vector-effect="non-scaling-stroke" d="M380.75 320.96l7.85-.12a1.61 1.6-8.3 001.52-2.03q-2.27-8.22-.09-16.46a.46.46 0 00-.44-.58l-15.38-.31a1.22 1.21 23.6 00-.86.33q-2.33 2.16-2.14 5.46"/><path stroke="#ceced0" vector-effect="non-scaling-stroke" d="M380.75 320.96l-.26-.47a.29.29 0 01.24-.43l6.15-.24a1.98 1.98 0 001.85-2.45l-1.23-4.97a1.74 1.71 48.4 01.05-.98q.54-1.53-.07-2.96a1.44 1.4 39.6 01-.09-.82l.73-3.76a.6.59 9.1 00-.51-.7q-6.53-.88-13.1-.4a.79.78 8.4 00-.67.49c-.41 1.05-.75 4.92-2.18 4.74a.48.47 89.9 01-.42-.43l-.03-.33"/><path stroke="#919090" vector-effect="non-scaling-stroke" d="M416.54 313.75q.99-6.88-3.5-11.77"/><path stroke="#5f5f61" vector-effect="non-scaling-stroke" d="M413.04 301.98c-2.94-.07-16.3-1.29-17.27 1.31-1.11 2.99-2.65 14.08 2 16.25 7.11 3.31 11.52 2.03 18.91 1.93a1.17 1.16-6 001.13-1.39l-1.27-6.33"/><path stroke="#ceced0" vector-effect="non-scaling-stroke" d="M413.04 301.98q2.14 4.14 1.94 8.61c-.05 1.25.3 2.45.51 3.65a.35.35 0 00.55.22q.34-.24.5-.71"/><path stroke="#5f5f61" vector-effect="non-scaling-stroke" d="M423.39 303.08q-3.22 7.14.31 14.1"/><path stroke="#919090" vector-effect="non-scaling-stroke" d="M423.7 317.18l2.26 4.02a1.04 1.04 0 00.86.54l5.84.33q.4.02.75.22 7.3 4 15.25 1.11a1.14 1.13 89 00.69-.72l3.29-10.32a1.3 1.28 41.3 00-.07-.94q-2.04-4.21-1.83-8.87a.47.47 0 00-.49-.49q-12.52.41-24.99-.17-1.37-.06-1.87 1.19"/><path stroke="#ceced0" vector-effect="non-scaling-stroke" d="M423.7 317.18l3.34 3.21a1.28 1.28 0 00.84.36c2.76.13 4.64-.07 7.33 1.2 4.88 2.3 13.95 2.99 14.14-4.78a1.36 1.34 66.7 01.34-.87c2.3-2.61.42-9.57-.87-12.49a.79.79 0 00-.69-.47q-8.16-.27-16.31-.23-4.13.01-8.43-.03"/><path stroke="#5f5f61" vector-effect="non-scaling-stroke" d="M465.62 324.99q2.81 2.16 6.38 3.22"/><path stroke="#919090" vector-effect="non-scaling-stroke" d="M472 328.21c7.02 5.51 9.43-12.57 10-15.42"/><path stroke="#5f5f61" vector-effect="non-scaling-stroke" d="M482 312.79l.5-3"/><path stroke="#919090" vector-effect="non-scaling-stroke" d="M482.5 309.79q.97-3.59.37-7.31a.56.55 82.9 00-.6-.47q-13.15 1.25-26.33-.11-2.92-.3-1.57 2.32c1.63 3.17 8.3 19.3 11.25 20.77"/><path stroke="#ceced0" vector-effect="non-scaling-stroke" d="M482.5 309.79c-1.16-.75-.29-4.11-.11-4.95a1.62 1.62 0 00-1.84-1.94c-7.61 1.22-15.86.5-23.58.33a.97.97 0 00-.9 1.38l9.55 20.38M482 312.79q-12.65 2.67-10 15.42"/><path stroke="#5f5f61" vector-effect="non-scaling-stroke" d="M277.43 314.68q3.83.71 6.74 3.29a.61.61 0 00.99-.28l1.57-5.16a.78.77 18.9 00-.47-.95l-8.97-3.43a.55.55 0 00-.72.37q-.72 2.73.02 5.39a1.1 1.08-2.1 00.84.77M292.55 321.49l8.93 3.65a.52.52 0 00.69-.32l1.85-5.83a.87.86-64.1 00-.33-.97q-4.4-3.13-9.72-4.1a.92.9-64.6 00-.85.31q-2.15 2.6-1.56 6.03a1.62 1.61 6.3 00.99 1.23M308.68 327.85l11 4.71a.52.51-67.1 00.68-.28c3.78-9.62-3.86-10.6-10.77-11.6a1.02 1.01-75.4 00-1.1.65q-1.07 2.82-.48 5.7a1.11 1.1 6 00.67.82"/><path stroke="#919090" vector-effect="non-scaling-stroke" d="M337.19 338.37l5.31 1.79a.44.44 0 00.58-.38l.83-8.13"/><path stroke="#5f5f61" vector-effect="non-scaling-stroke" d="M343.91 331.65q-1.61-3.59-5.53-3.43a1.11 1.08-70.1 00-.77.37q-.87.97-1.89.26-.35-.25-.77-.38l-5.59-1.71a1.08 1.07 31.4 00-1.05.25q-2.77 2.63-2.46 6.6a.85.85 0 00.47.71q5.21 2.68 10.87 4.05"/><path stroke="#ceced0" vector-effect="non-scaling-stroke" d="M343.91 331.65c-2.55.64-.77 3.28-1.43 5.07a.97.96 3.5 01-.68.6l-4.61 1.05"/><path stroke="#919090" vector-effect="non-scaling-stroke" d="M482.43 327.93c-2.76.78-1.11 7.77-.26 9.4q.43.83.47-.1l.46-8.77a.53.53 0 00-.67-.53M501.25 332.54q.59-.33.98-.85a.69.68-46.3 00-.01-.82q-2.7-3.45-7.22-2.58"/><path stroke="#5f5f61" vector-effect="non-scaling-stroke" d="M495 328.29l-5.68-.29a1.26 1.26 0 00-.89.32c-2.62 2.36-2.41 8.02-1.67 11.1a1.08 1.07-82.2 00.52.69l6.14 3.41a.79.78 39.5 00.88-.08c4.07-3.44 3.66-7.95 6.95-10.9"/><path stroke="#ceced0" vector-effect="non-scaling-stroke" d="M495 328.29q2.17 3.52 6.25 4.25"/><path stroke="#5f5f61" vector-effect="non-scaling-stroke" d="M349 341.44c2.1 2.92 8.1 4.05 11.53 5.22a.39.38 11.8 00.51-.33c.28-3.23 1.41-6.78-1.09-9.62-2.21-2.5-6.49-2.63-9.77-2.9q-2.32-.19-2.64 2.12-.4 2.92 1.46 5.51M505.51 335.66q-1.47 2.06-1.64 4.75a1.58 1.55 66.9 01-.35.9q-1.37 1.64-1.53 3.7a1.09 1.07-67.5 00.37.92c7.6 6.46 10.46 3.81 14.58-3.8.78-1.45.49-2.64.1-4.13"/><path stroke="#8f9081" vector-effect="non-scaling-stroke" d="M517.04 338c-1.17-.5-12.36-7.19-11.53-2.34"/><path stroke="#cccec1" vector-effect="non-scaling-stroke" d="M517.04 338q.07.93-.39 1.49a.95.94-66.7 01-.84.34q-5.84-.62-10.3-4.17"/><path stroke="#919090" vector-effect="non-scaling-stroke" d="M382.21 347q1.01-1.2 1.19-2.67a.97.95-66.6 00-.32-.84q-4.74-4.19-11.49-4.17"/><path stroke="#5f5f61" vector-effect="non-scaling-stroke" d="M371.59 339.32q-2.65-1.17-5.76-.33a.61.6-7.8 00-.46.6l.07 7.82a.72.71 9.9 00.48.67l14.57 4.91a.33.33 0 00.44-.32q-.07-3 1.28-5.67"/><path stroke="#ceced0" vector-effect="non-scaling-stroke" d="M371.59 339.32q3.35 1.84 7.13 2.65c2.23.48 4.13 1.52 2.71 4.08a.61.6-56.3 00.15.78q.24.19.63.17"/><path stroke="#5f5f61" vector-effect="non-scaling-stroke" d="M525.5 340.79q-1.64.08-2.54 1.46"/><path stroke="#919090" vector-effect="non-scaling-stroke" d="M522.96 342.25c-2.71 2.64-5.55 6.45-2.94 10.21a.64.63 59.6 00.79.21q.44-.21.44-.88"/><path stroke="#5f5f61" vector-effect="non-scaling-stroke" d="M521.25 351.79l1 .67"/><path stroke="#919090" vector-effect="non-scaling-stroke" d="M522.25 352.46q2.63.04 3.97 1.94a.68.68 0 00.77.25c1.61-.53 1.18-13.38.25-15.06a.39.39 0 00-.63-.07l-1.11 1.27"/><path stroke="#ceced0" vector-effect="non-scaling-stroke" d="M522.25 352.46q2.32-1.65 3.99.48a.5.5 0 00.88-.42q-1.36-5.8-1.62-11.73M521.25 351.79c-2.26-1.52.67-7.09 1.93-8.57a.52.52 0 00.02-.66l-.24-.31"/><path stroke="#5f5f61" vector-effect="non-scaling-stroke" d="M535.46 345.5l-.96 4.15a1.07 1.05-57.2 00.18.87c2.16 2.96 5.03.38 6.41-1.72"/><path stroke="#919090" vector-effect="non-scaling-stroke" d="M541.09 348.8q.25-5.06-5.05-4.44a.61.6-1.2 00-.53.55l-.05.59"/><path stroke="#ceced0" vector-effect="non-scaling-stroke" d="M541.09 348.8l-5.24-2.36a.64.63-79.4 01-.37-.55l-.02-.39"/><path stroke="#5f5f61" vector-effect="non-scaling-stroke" d="M389.96 345.5c-1.76 1.83-5.38 7.93-1.91 9.46q8.19 3.62 22.45 6.4a.55.54 14.9 00.63-.36q1.67-5.13 1.68-10.47a1.08 1.08 0 00-.86-1.06l-16.17-3.52"/><path stroke="#919090" vector-effect="non-scaling-stroke" d="M395.78 345.95q-2.19-1.23-4.51-1.22a1.28 1.25-66.1 00-.87.35l-.44.42"/><path stroke="#ceced0" vector-effect="non-scaling-stroke" d="M395.78 345.95l-5.11.29a.67.64 74.3 01-.63-.37q-.08-.17-.08-.37"/><path stroke="#5f5f61" vector-effect="non-scaling-stroke" d="M538.21 357.75c-1.1.81-5.77 12.35-4.86 12.62a1.32 1.32 0 001.39-.41c3.31-3.85 7.21-8.51 8.47-13.46"/><path stroke="#8f9081" vector-effect="non-scaling-stroke" d="M543.21 356.5q1.03-1.66 1.2-3.68a.27.26 82.2 00-.35-.27l-5.06 1.9a.62.62 0 00-.4.5l-.39 2.8"/><path stroke="#cccec1" vector-effect="non-scaling-stroke" d="M543.21 356.5q-2.06 1.71-4.74 1.69a.23.22 85.5 01-.22-.19l-.04-.25"/><path stroke="#919090" vector-effect="non-scaling-stroke" d="M438 356.96l-.25-1"/><path stroke="#5f5f61" vector-effect="non-scaling-stroke" d="M437.75 355.96c-4.33-1.47-14.65-4.15-19.39-1.92a1.19 1.19 0 00-.67.87l-1.29 7.36a1.01 1.01 0 00.73 1.15l22.51 5.94a.54.53 10.2 00.67-.46q.43-4.03 2-7.79a.79.79 0 00-.45-1.05q-2.53-.92-3.86-3.1"/><path stroke="#ceced0" vector-effect="non-scaling-stroke" d="M437.75 355.96q-1.07-.09-1.95.26a1.75 1.64-49 01-.95.1q-3.45-.64-5.15 2.14a.87.86 42.9 00.04.96c1.91 2.66 9.73 6.23 10.88 1.33a.44.44 0 00-.25-.5l-3.52-1.5a.67.67 0 01-.19-1.12q.81-.73 1.34-.67"/><path stroke="#5f5f61" vector-effect="non-scaling-stroke" d="M517.54 360.75l-2.86 11.47a.52.51 14.3 00.37.62q1.65.41 3.06-.42"/><path stroke="#919090" vector-effect="non-scaling-stroke" d="M518.11 372.42l3.64.04"/><path stroke="#5f5f61" vector-effect="non-scaling-stroke" d="M521.75 372.46l1.29-.21"/><path stroke="#919090" vector-effect="non-scaling-stroke" d="M523.04 372.25l2.57-.02a.78.77 11.4 00.69-.45l6.57-14.09q.19-.41-.24-.27-6.7 2.23-13.11 1.85-2.02-.12-1.98 1.48"/><path stroke="#ceced0" vector-effect="non-scaling-stroke" d="M523.04 372.25q.67-1.5 2.48-1.39a.53.53 0 00.56-.44q.77-4.54 3.28-8.37a.57.57 0 00-.66-.86q-4.21 1.42-8.67 1.27a1.34 1.34 0 01-.83-.31l-1.66-1.4M521.75 372.46q-2.17-2.82-3.64-.04"/><path stroke="#919090" vector-effect="non-scaling-stroke" d="M511 361.21l-2.77.27q-.5.05-.93.29-1.96 1.11-4.3 1.02"/><path stroke="#5f5f61" vector-effect="non-scaling-stroke" d="M503 362.79q-2.67-.67-5.25.17"/><path stroke="#919090" vector-effect="non-scaling-stroke" d="M497.75 362.96l-.54 2.04"/><path stroke="#5f5f61" vector-effect="non-scaling-stroke" d="M497.21 365q-1.6 4.31-.95 9.02a.37.36 70.9 00.55.27q1.75-1.07 3.59-.1a1.66 1.65 55 00.95.17l7.6-1.03a.75.73-87.7 00.62-.58l2.18-10.75M511.75 362q.53-.39.65-.94a.38.38 0 00-.45-.46q-.55.13-.95.61"/><path stroke="#ceced0" vector-effect="non-scaling-stroke" d="M511.75 362l-.03-.34a.44.44 0 00-.38-.4l-.34-.05M511.75 362l-1.9 3.27a1.07 1.03-78.3 01-.76.52c-1.09.15-5.48.26-6.08.8a.56.56 0 01-.72.03c-1.8-1.43-3.73-.15-5.08-1.62M497.75 362.96l5.25-.17"/><path stroke="#919090" vector-effect="non-scaling-stroke" d="M465.79 370c-.55-2.16-.11-6.34-2.77-7.03q-5.74-1.48-13.27-1.93"/><path stroke="#5f5f61" vector-effect="non-scaling-stroke" d="M449.75 361.04q-.77-.48-1.57-.28a.91.89 88.2 00-.67.73l-1.39 8.65a.62.62 0 00.48.71q9.2 1.96 18.61 2.15a.8.78-75.1 00.71-.42q.71-1.3-.13-2.58"/><path stroke="#ceced0" vector-effect="non-scaling-stroke" d="M449.75 361.04c.2 7.36 8.09 8.22 13.79 7a.46.45 79.5 01.55.38q.23 1.66 1.7 1.58"/><path stroke="#5f5f61" vector-effect="non-scaling-stroke" d="M478.96 366.5l-2.17 2.75"/><path stroke="#919090" vector-effect="non-scaling-stroke" d="M476.79 369.25l-2.33 3.76a.36.35-71.7 00.27.54c1.17.12 10.63 1.3 10.52-.01"/><path stroke="#5f5f61" vector-effect="non-scaling-stroke" d="M485.25 373.54l.5-.08"/><path stroke="#919090" vector-effect="non-scaling-stroke" d="M485.75 373.46l2.69.62a.52.51-81.8 00.62-.47q.39-7.1-5.11-11.29a.66.65 41.4 00-.85.05l-4.14 4.13"/><path stroke="#ceced0" vector-effect="non-scaling-stroke" d="M485.75 373.46l-2.27-1.77q-.38-.3-.63-.72-1.55-2.57-3.89-4.47M485.25 373.54l-7.95-1.33a.41.41 0 01-.32-.51q.36-1.25-.19-2.45"/><path stroke="#8f9081" vector-effect="non-scaling-stroke" d="M468.84 428.26l7.14 3.43a1.57 1.56 51.8 001 .12c13.48-2.73 27.03-5.18 40.47-8.09q5.4-1.17 10.84-1.5a.28.27-35.5 00.09-.53c-4.09-1.64-10.3-4.5-14.7-3.68-13.05 2.41-27.44 5.97-39.17 7.72q-3.51.53-5.7 1.84-.62.38.03.69M497.31 441.35l17.47 8a1.97 1.88 52.6 001.01.16q2.69-.32 5.29-1.15 20.57-6.62 41.12-13.29c1.22-.4 2.2-.33 3.41-.35a.42.42 0 00.13-.82l-17.59-5.81a1.74 1.73-43 00-.95-.03c-16.58 4.29-33.13 8.58-49.81 12.49a.42.42 0 00-.08.8"/><path stroke="#919090" vector-effect="non-scaling-stroke" d="M399.09 264c-2.04 4.29 2.51 6.42 5.84 6.53q22.68.72 45.35 1.19c4.83.11 18.96-1.31 19.4-7.94.37-5.69-9.5-7.32-13.4-7.7-5.3-.51-10.92-1.72-15.75-2.18q-7.64-.72-15.3-1.35c-12.15-.99-20.74.14-26.14 11.45"/><path stroke="#5f5f61" vector-effect="non-scaling-stroke" d="M178.3 219.6q-.68 8.8-.17 17.3a.85.85 0 00.8.8q3.86.21 3.89-3.27.07-8.91.2-17.91a.64.63 7.4 00-.49-.63c-2.96-.75-4.02.97-4.23 3.71M132.62 244.75c3.2.83 6.73 1.25 9.9 1.28a.66.66 0 00.67-.63q.37-7.08-.52-14.11a.76.75 83.7 00-.82-.66l-9.24 1.01a.78.77 86.8 00-.69.79l.29 11.81a.54.54 0 00.41.51M127.517 233.356a1.23 1.23 0 00-1.225-1.234l-6.76-.024a1.23 1.23 0 00-1.234 1.226l-.035 10.04a1.23 1.23 0 001.225 1.234l6.76.024a1.23 1.23 0 001.234-1.226l.035-10.04M114.826 233.78a.9.9 0 00-.89-.911l-4.659-.057a.9.9 0 00-.91.889l-.113 9.16a.9.9 0 00.89.91l4.659.057a.9.9 0 00.91-.889l.113-9.16"/><path stroke="#8f9081" vector-effect="non-scaling-stroke" d="M431.5 264.71q13.35.47 24.31-.1 1.31-.07 3-.71.5-.19-.03-.27l-6.53-.92"/><path stroke="#5f5f61" vector-effect="non-scaling-stroke" d="M452.25 262.71q-2.09-.73-3.07-.84-10.4-1.21-20.79-2.5c-6.72-.83-15.92-1.71-20.91 3.96a.32.32 0 00.23.53l23.79.85"/><path stroke="#cccec1" vector-effect="non-scaling-stroke" d="M452.25 262.71c-5.36 2.1-8.65.49-13.91.83-2.39.16-6.22-.92-6.84 1.17"/><path stroke="#fdfff0" vector-effect="non-scaling-stroke" d="M589.94 591l-.19-.71"/><path stroke="#919090" vector-effect="non-scaling-stroke" d="M.25 590.04c-.14.46-.01.72.5.7q6.23-.17 12.44.26M576.44 591q-2.38-.63-4.75 0"/></g><path d="M0 0h590.06l.19.29.04 589.46-.54.54q-291.97-.05-583.94-.17-2.78 0-5.56-.08l-.25-.1V0zm586.25 4.52a.27.27 0 00-.27-.27H4.52a.27.27 0 00-.27.27v581.46a.27.27 0 00.27.27h581.46a.27.27 0 00.27-.27V4.52z"/><path fill="#222121" d="M590.06 0h.94v587.56c-.84-.45-.25-537.29-.25-587.06a.25.24-86.1 00-.21-.25q-.17-.02-.29.04l-.19-.29z"/><path fill="#fff" d="M590.25.29q.12-.06.29-.04a.25.24-86.1 01.21.25c0 49.77-.59 586.61.25 587.06v2.75l-.71-.56L590.25.29z"/><path fill="#fbfee1" d="M586.25 585.98a.27.27 0 01-.27.27H4.52a.27.27 0 01-.27-.27V4.52a.27.27 0 01.27-.27h581.46a.27.27 0 01.27.27v581.46zM80.48 11.83l1.4 1.21a.15.15 0 00.23-.04l.15-.25a.7.7 0 00-.3-.98l-2.71-1.31a.66.65-64.8 00-.88.32q-1.21 2.71.7 5.15a.62.62 0 00.74.18l.57-.27q.66-.3.04-.69-1.69-1.05-1.04-3.01a.69.69 0 011.1-.31zm6.96 29.75c-4.85-1.84-12.08-1.18-17.24-1.1-11.64.19-29.39-1.62-39.19 5.06-7.48 5.08-7.35 12.24-7.19 21.81q.27 15.82.65 31.64c.03 1.46-.64 4.82-.22 6.02q.89 2.51 2.72.59Q56.4 74.9 85.91 44.92q1.06-1.07 1.86-2.01a.84.83-59.2 00-.33-1.33zm447.47 416.95q-1.53-.74.04-1.39L577 439.72a1.09 1.09 0 00.65-.78l3.63-16.88a.71.71 0 00-.42-.8q-4.69-2-11.86-4.26-22.72-7.15-45.38-14.25a.38.38 0 01-.14-.65q11.94-10.73 22.12-23.01c5.27-6.35 9.13-14.5 13.51-21.77 4.5-7.45-9.89-9.03-13.19-10.6a1.36 1.33 2.7 01-.66-.71q-3.09-8.09-11.65-6.13a.41.41 0 01-.5-.35c-.72-5.89-6.34-6.39-10.62-3.56a.41.41 0 01-.6-.16c-1.93-4.08-6.21-2.91-9.33-6.02q-.36-.36.15-.39 7.01-.4 14.04-.1c3.02.13 6.17-1.06 8.34-1.38 3.44-.52 6.99-.64 10.3-1.76 2.96-.99 6.1-.8 8.5-1.9 4.28-1.97 7.08-4.82 7.68-9.79q1.52-12.53 2.37-25.21a.91.9 78.7 01.48-.73c6.24-3.22 18-9.54 13.9-18.84-8.89-20.2-27.55-31.22-47.55-38.01q-27.01-9.17-55.18-14.13c-1.31-.23-2.93-.92-4.42-1.17-36.43-6.23-65.4-10.43-109.57-14.62q-3.24-.31-6.33-1.6c-21.52-8.95-45.93-14.32-65.16-16.45q-4.66-.52-9.74-.06c-7.25.66-14.69.93-21.7 1.95-8.83 1.29-17.65 2.66-26.51 3.78-10.35 1.31-19.3 3.18-31.06 2.9-1.72-.04-3.41.34-5.06.66q-45.77 8.71-90.69 21.03c-20.86 5.72-41.48 13.19-62.1 19.78-3.02.96-7.84 3.05-12.04 3.94-1.44.3-2.79.84-3.98 1.34q-1.49.61-.03 1.3c38.38 17.93 76.21 36.08 114.2 53.54 136.89 62.89 274.01 125.44 409.47 191.15a.74.74 0 001.06-.57l2.18-16.09a.79.77 17.1 00-.44-.81l-18.76-9.02zm-249.3 19.94a1.08 1.08 0 00-1.08-1.08 1.08 1.08 0 00-1.08 1.08 1.08 1.08 0 001.08 1.08 1.08 1.08 0 001.08-1.08zm212.378 18.482a1.33.98 101.8 001.231-1.102 1.33.98 101.8 00-.687-1.502 1.33.98 101.8 00-1.231 1.102 1.33.98 101.8 00.687 1.502zm71.892 12.518c.28 1.41 3.18 1.51 4.4 1.14q2.06-.62-.08-.43-2.2.19-3.79-1.04-.71-.54-.53.33z"/><path fill="#9c9da0" d="M80.48 11.83a.69.69 0 00-1.1.31q-.65 1.96 1.04 3.01.62.39-.04.69l-.57.27a.62.62 0 01-.74-.18q-1.91-2.44-.7-5.15a.66.65-64.8 01.88-.32l2.71 1.31a.7.7 0 01.3.98l-.15.25a.15.15 0 01-.23.04l-1.4-1.21z"/><path fill="#fbe6ac" d="M87.44 41.58a.84.83-59.2 01.33 1.33q-.8.94-1.86 2.01Q56.4 74.9 26.97 105.6q-1.83 1.92-2.72-.59c-.42-1.2.25-4.56.22-6.02q-.38-15.82-.65-31.64c-.16-9.57-.29-16.73 7.19-21.81 9.8-6.68 27.55-4.87 39.19-5.06 5.16-.08 12.39-.74 17.24 1.1z"/><path fill="#222121" d="M534.91 458.53l18.76 9.02a.79.77 17.1 01.44.81l-2.18 16.09a.74.74 0 01-1.06.57C415.41 419.31 278.29 356.76 141.4 293.87c-37.99-17.46-75.82-35.61-114.2-53.54q-1.46-.69.03-1.3c1.19-.5 2.54-1.04 3.98-1.34 4.2-.89 9.02-2.98 12.04-3.94 20.62-6.59 41.24-14.06 62.1-19.78q44.92-12.32 90.69-21.03c1.65-.32 3.34-.7 5.06-.66 11.76.28 20.71-1.59 31.06-2.9 8.86-1.12 17.68-2.49 26.51-3.78 7.01-1.02 14.45-1.29 21.7-1.95q5.08-.46 9.74.06c19.23 2.13 43.64 7.5 65.16 16.45q3.09 1.29 6.33 1.6c44.17 4.19 73.14 8.39 109.57 14.62 1.49.25 3.11.94 4.42 1.17q28.17 4.96 55.18 14.13c20 6.79 38.66 17.81 47.55 38.01 4.1 9.3-7.66 15.62-13.9 18.84a.91.9 78.7 00-.48.73q-.85 12.68-2.37 25.21c-.6 4.97-3.4 7.82-7.68 9.79-2.4 1.1-5.54.91-8.5 1.9-3.31 1.12-6.86 1.24-10.3 1.76-2.17.32-5.32 1.51-8.34 1.38q-7.03-.3-14.04.1-.51.03-.15.39c3.12 3.11 7.4 1.94 9.33 6.02a.41.41 0 00.6.16c4.28-2.83 9.9-2.33 10.62 3.56a.41.41 0 00.5.35q8.56-1.96 11.65 6.13a1.36 1.33 2.7 00.66.71c3.3 1.57 17.69 3.15 13.19 10.6-4.38 7.27-8.24 15.42-13.51 21.77q-10.18 12.28-22.12 23.01a.38.38 0 00.14.65q22.66 7.1 45.38 14.25 7.17 2.26 11.86 4.26a.71.71 0 01.42.8l-3.63 16.88a1.09 1.09 0 01-.65.78l-42.05 17.42q-1.57.65-.04 1.39zM69.5 230.79l-20.65 5.27c-.73 3.03-2.44 1.36-4.35 2.08q-.54.21.01.41c1.88.7 5.19.11 7.47.58 4.25.87 7.9.37 12.06.66a.52.51 4.6 00.55-.46q.19-2.16-.59-4.04l.97-.36a.73.72 78.8 01.98.66l.15 4.66q.03.92.69.28c.44-.44-.14-3.37.41-4.61a.69.69 0 01.7-.41l.35.03a.38.37 9.2 01.34.46q-.26 1.11.05 2.04.24.73.48 0c.37-1.1-.43-2.68 1.08-3.16a.49.48-15.5 01.62.35l.47 2.02-.42 3.2a.56.53-63.5 00.13.43l.25.27q.48.53.48-.19l-.02-3.71.34-2.28a.55.53-83.5 01.56-.46c2.26.14 1.16 4.45.83 6.41a.35.35 0 00.46.38c1.41-.47 1.41-4.66 1.33-5.53a.86.85 75.3 01.49-.85l1.15-.51a.42.42 0 01.6.34c.09.85-.01 6.96.55 7.11a.69.68-88.5 00.85-.81q-1.06-4.99 2.11-6.34c.59 1.97.12 6.61 1.26 7.31a.65.65 0 00.99-.55l.03-6.6a.62.62 0 01.62-.62l.87-.01a.7.7 0 01.7.69l.07 6.83a.57.57 0 00.46.55c2.22.44 1.21-6.04 1.18-7.43a.62.61-.9 01.62-.63h2.72a.5.5 0 01.5.5v7.38a.71.71 0 00.62.7l12.33 1.52q.94.12.17-.44-1.63-1.18-3.66-1.2a.57.56 88.9 01-.56-.55l-.36-8.66q2.37-1.08 4.95-.11a.9.89 9.4 01.6.83l.23 9.6a.55.54 2.4 00.49.53q5.45.5 10.92.64c1.69.04 3.44.65 5.02.76q13 .89 25.96 2.25l4.04.46q21.96 2.02 43.94 3.93c3.49.3 7.37-.28 10.84-1.22q16.06-4.36 32.73-5.19.49-.02.02.11-6.48 1.9-12.52 4.97c-12.4 3.1-22.96 5.8-33.3 12.19l-1.26-.01q-.49-.01-.92.22c-5.04 2.62-9.12 2.94-15.09 1.89q-24.15-4.23-48.34-8.22c-25.14-4.16-50.2-8.95-75.36-12.94-1.32-.21-3.37-.04-5.09-.83a.14.13-51.7 00-.15.02l-.19.18a.29.29 0 00.1.49c10.2 3.66 20.14 8.75 30.19 12.95q7.04 2.95 21.72 7.41 17.35 5.27 74.14 23.34l11.33 3.39c12.63 4.91 26.19 6.92 39.53 9.01q2.41.37 3.65-.99a1.02 1.02 0 00.24-.88q-.24-1.21-1.07-2.18-9.51-11.24-19.2-22.29-1.16-1.32-.54-2.61a.76.76 0 01.74-.42q2.41.22 3.06.52c13.46 6.39 29.31 9.56 44.55 12.16l18.46 3.04q12.66 2.58 25.54 3.46 8.94 1.16 18.06 1.31 11.66 1.5 20.69 1.97 37.97 1.95 78.5 1.56c17.21-.16 34.66 1.15 52.02 1.21 17.91.05 33.79-3.7 50.28-6.15 14.4-2.14 28.46-5.18 42.7-7.82q6.34-2.57 10.95-7.66a.8.79 55.4 00.15-.84c-8.13-19.48-27.11-29.72-46.1-36.05-36.75-12.25-76.61-18.88-115-23.47-19.19-2.29-38.45-4.05-57.62-6.41-17.07-2.1-33.3 2.54-47.79 4.06-2.78-6.37-10.49-12.61-16.59-18.13l8.03-1.66q.44-.1.01-.23-6.24-1.89-11.55-1.76-15.45.37-34.45 3.38c-10.23 1.61-19.03 2.42-31.05 4.96-7.66 1.63-17.03.44-24.99 1.69q-5.81.91-12.49 2.36-58.76 12.74-113.76 28.51zm-.22 10a.3.3 0 00.41-.26q.06-1.08-.86-1.29a.63.63 0 00-.38 1.2l.83.35zm483.72 50l-3.88.53a.92.92 0 00-.71.53c-1.85 3.91-1.97 12.41-2.32 16.77l-.81 11.33a.57.57 0 00.45.59q7.72 1.68 11.52-4.74a1.65 1.65 0 00.22-.99c-.5-4.95.95-10.34 1.04-13.3q.22-7.26 1.17-11.51a.33.33 0 00-.38-.4l-6.3 1.19zm-295.83.59q5.89 3.8 12.68 5.62a.69.69 0 00.86-.61l.29-3.45a.42.41 6.8 00-.35-.44l-13-2.34a.67.67 0 00-.48 1.22zm260.93 6.21c-.21 7.75-.52 15.15-.16 22.91q.66 2.33 2.06 3.67a1.4 1.4 0 00.88.38q9.78.55 19.05-2.52c2.24-.74 2.14-6.03 2.36-8.03q1.78-4.94 1.01-9.89.71-5.81-1.21-11.08a.53.53 0 00-.65-.33q-10.41 3.11-21.35 3.65c-.83.04-1.55.59-1.99 1.24zm-241.52 2.25l11.9 3.24a.66.65 9.8 00.83-.58l.49-6.14a1.14 1.14 0 00-1.01-1.23l-11.77-1.37a.78.74-70.4 00-.74.37q-1.37 2.32-.54 4.91a1.24 1.21-.7 00.84.8zm-19.46 3.95q6.36 3.28 12.54 6.95a.42.41 19.6 00.62-.29l.82-5.31a.73.72 15.9 00-.44-.78c-3.16-1.37-5.57-3.78-8.45-5.05q-3.02-1.33-6.08-2.64a.45.45 0 00-.63.39l-.33 5.21a1.03 1-70.6 00.4.87c.45.34 1.17.45 1.55.65zm37.63 1.57q6.1.7 11.61 3.42a.44.44 0 00.64-.39v-10.52a.67.67 0 00-.62-.67l-9.71-.78a1.91 1.91 0 00-2.06 1.84l-.21 6.7a.39.39 0 00.35.4zm198.5 18.85q9.29.61 18.64.14a.78.78 0 00.69-.52q.24-.7-.13-1.42a1.74 1.68-57 01-.18-.92l.52-6.49 1.2-16.89a.38.38 0 00-.45-.4q-13.65 2.43-27.43 3.82a.6.59-3.7 00-.53.6l.25 20.46a.68.67-79.2 00.42.63q3.44 1.42 7 .99zm-179.31-13.9q4.19 1.57 10.36 2.44a.41.41 0 00.46-.5q-1.52-6.29-.22-12.68a.51.51 0 00-.47-.61l-10.54-.73a.59.58-81.4 00-.61.46c-.5 2.29-1.81 10.56 1.02 11.62zm15.68-.47c.63 2.2 12.54 5.28 15.09 4.87q.44-.07.09-.35c-1.94-1.59-.9-10.87-.56-13.2a.95.95 0 00-.88-1.08l-11.27-.65a.95.94 18.9 00-.83.4q-3.2 4.54-1.64 10.01zm23.13 5.37q1.99.65 4 .45c2.58 2.7 5.25.82 6.63 2.17a.3.3 0 00.49-.11q1.14-3.14.67-6.47l1.91-9.58a.42.41 6.4 00-.4-.49l-7.05-.14-8.01-.33a.86.85 6.6 00-.88.69c-.52 2.51-2.61 14.92 2.64 13.81zm18.46-7.96q-1.93 6.63.44 13a.75.75 0 00.68.5l8.42.21 7.85-.12a1.61 1.6-8.3 001.52-2.03q-2.27-8.22-.09-16.46a.46.46 0 00-.44-.58l-15.38-.31a1.22 1.21 23.6 00-.86.33q-2.33 2.16-2.14 5.46zm45.33 6.5q.99-6.88-3.5-11.77c-2.94-.07-16.3-1.29-17.27 1.31-1.11 2.99-2.65 14.08 2 16.25 7.11 3.31 11.52 2.03 18.91 1.93a1.17 1.16-6 001.13-1.39l-1.27-6.33zm6.85-10.67q-3.22 7.14.31 14.1l2.26 4.02a1.04 1.04 0 00.86.54l5.84.33q.4.02.75.22 7.3 4 15.25 1.11a1.14 1.13 89 00.69-.72l3.29-10.32a1.3 1.28 41.3 00-.07-.94q-2.04-4.21-1.83-8.87a.47.47 0 00-.49-.49q-12.52.41-24.99-.17-1.37-.06-1.87 1.19zm42.23 21.91q2.81 2.16 6.38 3.22c7.02 5.51 9.43-12.57 10-15.42l.5-3q.97-3.59.37-7.31a.56.55 82.9 00-.6-.47q-13.15 1.25-26.33-.11-2.92-.3-1.57 2.32c1.63 3.17 8.3 19.3 11.25 20.77zm-188.19-10.31q3.83.71 6.74 3.29a.61.61 0 00.99-.28l1.57-5.16a.78.77 18.9 00-.47-.95l-8.97-3.43a.55.55 0 00-.72.37q-.72 2.73.02 5.39a1.1 1.08-2.1 00.84.77zm15.12 6.81l8.93 3.65a.52.52 0 00.69-.32l1.85-5.83a.87.86-64.1 00-.33-.97q-4.4-3.13-9.72-4.1a.92.9-64.6 00-.85.31q-2.15 2.6-1.56 6.03a1.62 1.61 6.3 00.99 1.23zm16.13 6.36l11 4.71a.52.51-67.1 00.68-.28c3.78-9.62-3.86-10.6-10.77-11.6a1.02 1.01-75.4 00-1.1.65q-1.07 2.82-.48 5.7a1.11 1.1 6 00.67.82zm28.51 10.52l5.31 1.79a.44.44 0 00.58-.38l.83-8.13q-1.61-3.59-5.53-3.43a1.11 1.08-70.1 00-.77.37q-.87.97-1.89.26-.35-.25-.77-.38l-5.59-1.71a1.08 1.07 31.4 00-1.05.25q-2.77 2.63-2.46 6.6a.85.85 0 00.47.71q5.21 2.68 10.87 4.05zm145.24-10.44c-2.76.78-1.11 7.77-.26 9.4q.43.83.47-.1l.46-8.77a.53.53 0 00-.67-.53zm18.82 4.61q.59-.33.98-.85a.69.68-46.3 00-.01-.82q-2.7-3.45-7.22-2.58l-5.68-.29a1.26 1.26 0 00-.89.32c-2.62 2.36-2.41 8.02-1.67 11.1a1.08 1.07-82.2 00.52.69l6.14 3.41a.79.78 39.5 00.88-.08c4.07-3.44 3.66-7.95 6.95-10.9zM349 341.44c2.1 2.92 8.1 4.05 11.53 5.22a.39.38 11.8 00.51-.33c.28-3.23 1.41-6.78-1.09-9.62-2.21-2.5-6.49-2.63-9.77-2.9q-2.32-.19-2.64 2.12-.4 2.92 1.46 5.51zm156.51-5.78q-1.47 2.06-1.64 4.75a1.58 1.55 66.9 01-.35.9q-1.37 1.64-1.53 3.7a1.09 1.07-67.5 00.37.92c7.6 6.46 10.46 3.81 14.58-3.8.78-1.45.49-2.64.1-4.13-1.17-.5-12.36-7.19-11.53-2.34zM382.21 347q1.01-1.2 1.19-2.67a.97.95-66.6 00-.32-.84q-4.74-4.19-11.49-4.17-2.65-1.17-5.76-.33a.61.6-7.8 00-.46.6l.07 7.82a.72.71 9.9 00.48.67l14.57 4.91a.33.33 0 00.44-.32q-.07-3 1.28-5.67zm143.29-6.21q-1.64.08-2.54 1.46c-2.71 2.64-5.55 6.45-2.94 10.21a.64.63 59.6 00.79.21q.44-.21.44-.88l1 .67q2.63.04 3.97 1.94a.68.68 0 00.77.25c1.61-.53 1.18-13.38.25-15.06a.39.39 0 00-.63-.07l-1.11 1.27zm9.96 4.71l-.96 4.15a1.07 1.05-57.2 00.18.87c2.16 2.96 5.03.38 6.41-1.72q.25-5.06-5.05-4.44a.61.6-1.2 00-.53.55l-.05.59zm-145.5 0c-1.76 1.83-5.38 7.93-1.91 9.46q8.19 3.62 22.45 6.4a.55.54 14.9 00.63-.36q1.67-5.13 1.68-10.47a1.08 1.08 0 00-.86-1.06l-16.17-3.52q-2.19-1.23-4.51-1.22a1.28 1.25-66.1 00-.87.35l-.44.42zm148.25 12.25c-1.1.81-5.77 12.35-4.86 12.62a1.32 1.32 0 001.39-.41c3.31-3.85 7.21-8.51 8.47-13.46q1.03-1.66 1.2-3.68a.27.26 82.2 00-.35-.27l-5.06 1.9a.62.62 0 00-.4.5l-.39 2.8zM438 356.96l-.25-1c-4.33-1.47-14.65-4.15-19.39-1.92a1.19 1.19 0 00-.67.87l-1.29 7.36a1.01 1.01 0 00.73 1.15l22.51 5.94a.54.53 10.2 00.67-.46q.43-4.03 2-7.79a.79.79 0 00-.45-1.05q-2.53-.92-3.86-3.1zm79.54 3.79l-2.86 11.47a.52.51 14.3 00.37.62q1.65.41 3.06-.42l3.64.04 1.29-.21 2.57-.02a.78.77 11.4 00.69-.45l6.57-14.09q.19-.41-.24-.27-6.7 2.23-13.11 1.85-2.02-.12-1.98 1.48zm-6.54.46l-2.77.27q-.5.05-.93.29-1.96 1.11-4.3 1.02-2.67-.67-5.25.17l-.54 2.04q-1.6 4.31-.95 9.02a.37.36 70.9 00.55.27q1.75-1.07 3.59-.1a1.66 1.65 55 00.95.17l7.6-1.03a.75.73-87.7 00.62-.58l2.18-10.75q.53-.39.65-.94a.38.38 0 00-.45-.46q-.55.13-.95.61zM465.79 370c-.55-2.16-.11-6.34-2.77-7.03q-5.74-1.48-13.27-1.93-.77-.48-1.57-.28a.91.89 88.2 00-.67.73l-1.39 8.65a.62.62 0 00.48.71q9.2 1.96 18.61 2.15a.8.78-75.1 00.71-.42q.71-1.3-.13-2.58zm13.17-3.5l-2.17 2.75-2.33 3.76a.36.35-71.7 00.27.54c1.17.12 10.63 1.3 10.52-.01l.5-.08 2.69.62a.52.51-81.8 00.62-.47q.39-7.1-5.11-11.29a.66.65 41.4 00-.85.05l-4.14 4.13zm-10.12 61.76l7.14 3.43a1.57 1.56 51.8 001 .12c13.48-2.73 27.03-5.18 40.47-8.09q5.4-1.17 10.84-1.5a.28.27-35.5 00.09-.53c-4.09-1.64-10.3-4.5-14.7-3.68-13.05 2.41-27.44 5.97-39.17 7.72q-3.51.53-5.7 1.84-.62.38.03.69zm28.47 13.09l17.47 8a1.97 1.88 52.6 001.01.16q2.69-.32 5.29-1.15 20.57-6.62 41.12-13.29c1.22-.4 2.2-.33 3.41-.35a.42.42 0 00.13-.82l-17.59-5.81a1.74 1.73-43 00-.95-.03c-16.58 4.29-33.13 8.58-49.81 12.49a.42.42 0 00-.08.8z"/><path fill="#fff" d="M289.75 193.54l-15.28 1.59q-3.37-.91-7.89-.84c-8.19-1.61-16.13 3.16-15.47 12.07.95 12.93 26.95 11.85 35.64 9.85q10.01-1.25 19.59-4.54c14.49-1.52 30.72-6.16 47.79-4.06 19.17 2.36 38.43 4.12 57.62 6.41 38.39 4.59 78.25 11.22 115 23.47 18.99 6.33 37.97 16.57 46.1 36.05a.8.79 55.4 01-.15.84q-4.61 5.09-10.95 7.66-9.62-.65-13.19-.2-30.17 3.84-60.35 7.66c-26.74 3.38-51.98 3.03-78.56 2.86a.52.51-85.6 00-.52.45l-.1.74a.39.39 0 01-.76.06l-.25-.85a.59.58-5.6 00-.52-.42q-10.58-.87-21.18-1.2-11.3-.36-32.89-4.8-9.92-2.04-13.96-2.5a1.43 1.39 70.8 01-.84-.42q-7.4-7.59-19.62-7.89-5.2-.13-21.32-1.88c-21.84-2.37-43.8-4.37-65.74-5.47q-13.87-.71-27.71-1.95-2.68-.25-8.06 1.48a.84.83 58.6 01-.84-.21q-1.76-1.77-1.88-4.25c10.34-6.39 20.9-9.09 33.3-12.19q3.48.47 9.23-.84c13.53-3.09 35.35-6.33 53.36-11.02 24.64-6.43 50-9.55 75.46-10.06q1.26-.02 3.44-.43c7.16-.6 14.31-.55 21.5-1 19.78-.57 35.25-.52 53.18 1.67q.53.07.02-.06-3.2-.75-8.2-1.3-24.69-2.72-47-2.73l-4.04.21q-4.48-.55-8.98-.44c-8.57.21-16.29-.2-25.04.1q-37.9 1.29-70.62 4.34-26.1 2.43-51.76-2.82-17.02-3.49-30.14-14.57c-3.39-2.86-6.44-4.9-10.43-4.49q-10.93 1.12-24.81 4.21c-11.22 2.5-21.99 4.23-32.94 6.63q-22.08 4.84-44.24 9.3c-1.49.3-11.51 2.62-12.92 3.96a1.37 1.36-67.3 01-.87.36q-1.34.04-1.46-1.29 55-15.77 113.76-28.51 6.68-1.45 12.49-2.36c7.96-1.25 17.33-.06 24.99-1.69 12.02-2.54 20.82-3.35 31.05-4.96q19-3.01 34.45-3.38 5.31-.13 11.55 1.76.43.13-.01.23l-8.03 1.66zM399.09 264c-2.04 4.29 2.51 6.42 5.84 6.53q22.68.72 45.35 1.19c4.83.11 18.96-1.31 19.4-7.94.37-5.69-9.5-7.32-13.4-7.7-5.3-.51-10.92-1.72-15.75-2.18q-7.64-.72-15.3-1.35c-12.15-.99-20.74.14-26.14 11.45z"/><path fill="#9c9da0" d="M289.75 193.54c6.1 5.52 13.81 11.76 16.59 18.13q-9.58 3.29-19.59 4.54l-3.21-5.46-9.07-15.62 15.28-1.59z"/><path fill="#222121" d="M266.58 194.29q2.34 2.05 5.69 2.18a1.21 1.2 69.7 01.84.39c4.12 4.4 6.25 9.71 9.44 14.29a.51.51 0 00.75.1q.21-.18.24-.5l3.21 5.46c-8.69 2-34.69 3.08-35.64-9.85-.66-8.91 7.28-13.68 15.47-12.07z"/><path d="M266.58 194.29q4.52-.07 7.89.84l9.07 15.62q-.03.32-.24.5a.51.51 0 01-.75-.1c-3.19-4.58-5.32-9.89-9.44-14.29a1.21 1.2 69.7 00-.84-.39q-3.35-.13-5.69-2.18z"/><path fill="#9c9da0" d="M383.71 225.5q1.81 1.02 3.87.74a.46.46 0 00.39-.57q-.05-.21-.22-.38 22.31.01 47 2.73 5 .55 8.2 1.3.51.13-.02.06c-17.93-2.19-33.4-2.24-53.18-1.67l-.57-.42a1.31 1.27 59.8 00-.86-.24q-5.28.37-10.55.38c-1.1 0-2.38-.64-3.84-.05a1.34 1.32 42.1 01-.92.04q-2.82-.91-4.76 1.29-2.18.41-3.44.43c-25.46.51-50.82 3.63-75.46 10.06-18.01 4.69-39.83 7.93-53.36 11.02q-5.75 1.31-9.23.84 6.04-3.07 12.52-4.97.47-.13-.02-.11-16.67.83-32.73 5.19c-3.47.94-7.35 1.52-10.84 1.22q-21.98-1.91-43.94-3.93v-1.92l14.12.77a.91.91 0 00.96-.93l-.32-15.57a1.25 1.25 0 00-1.22-1.23q-8.2-.27-14.75 1.42-.22-.26-.51-.29a.54.53-83.7 00-.57.46q-.96 7.37-.53 14.75a1.27 1.26-27.9 01-.27.86l-.95 1.22q-12.96-1.36-25.96-2.25c-1.58-.11-3.33-.72-5.02-.76q-5.47-.14-10.92-.64a.55.54 2.4 01-.49-.53l-.23-9.6a.9.89 9.4 00-.6-.83q-2.58-.97-4.95.11-1.61-.85-2.25.75-2.32-1.22-4.5.25-2.62-2.13-5.81-1.18a1.76 1.68 44.4 01-1.01-.01q-1.56-.48-3.15-.01a.58.57-12.2 00-.41.63q.11.87-1.43.78-3.17 1.35-2.11 6.34a.69.68-88.5 01-.85.81c-.56-.15-.46-6.26-.55-7.11a.42.42 0 00-.6-.34l-1.15.51a.86.85 75.3 00-.49.85c.08.87.08 5.06-1.33 5.53a.35.35 0 01-.46-.38c.33-1.96 1.43-6.27-.83-6.41a.55.53-83.5 00-.56.46l-.34 2.28h-.42l-.47-2.02a.49.48-15.5 00-.62-.35c-1.51.48-.71 2.06-1.08 3.16q-.24.73-.48 0-.31-.93-.05-2.04a.38.37 9.2 00-.34-.46l-.35-.03a.69.69 0 00-.7.41c-.55 1.24.03 4.17-.41 4.61q-.66.64-.69-.28l-.15-4.66a.73.72 78.8 00-.98-.66l-.97.36q-1.59-.05-5.19 1.02-3.52 1.05-9.96-.25l20.65-5.27q.12 1.33 1.46 1.29a1.37 1.36-67.3 00.87-.36c1.41-1.34 11.43-3.66 12.92-3.96q22.16-4.46 44.24-9.3c10.95-2.4 21.72-4.13 32.94-6.63q13.88-3.09 24.81-4.21c3.99-.41 7.04 1.63 10.43 4.49q13.12 11.08 30.14 14.57 25.66 5.25 51.76 2.82 32.72-3.05 70.62-4.34c8.75-.3 16.47.11 25.04-.1q4.5-.11 8.98.44zm-205.41-5.9q-.68 8.8-.17 17.3a.85.85 0 00.8.8q3.86.21 3.89-3.27.07-8.91.2-17.91a.64.63 7.4 00-.49-.63c-2.96-.75-4.02.97-4.23 3.71zm-45.68 25.15c3.2.83 6.73 1.25 9.9 1.28a.66.66 0 00.67-.63q.37-7.08-.52-14.11a.76.75 83.7 00-.82-.66l-9.24 1.01a.78.77 86.8 00-.69.79l.29 11.81a.54.54 0 00.41.51zm-5.103-11.394a1.23 1.23 0 00-1.225-1.234l-6.76-.024a1.23 1.23 0 00-1.234 1.226l-.035 10.04a1.23 1.23 0 001.225 1.234l6.76.024a1.23 1.23 0 001.234-1.226l.035-10.04zm-12.691.424a.9.9 0 00-.89-.911l-4.659-.057a.9.9 0 00-.91.889l-.113 9.16a.9.9 0 00.89.91l4.659.057a.9.9 0 00.91-.889l.113-9.16z"/><path fill="#222121" d="M178.3 219.6c.21-2.74 1.27-4.46 4.23-3.71a.64.63 7.4 01.49.63q-.13 9-.2 17.91-.03 3.48-3.89 3.27a.85.85 0 01-.8-.8q-.51-8.5.17-17.3zM387.75 225.29q.17.17.22.38a.46.46 0 01-.39.57q-2.06.28-3.87-.74l4.04-.21zM389.75 227.71c-7.19.45-14.34.4-21.5 1q1.94-2.2 4.76-1.29a1.34 1.32 42.1 00.92-.04c1.46-.59 2.74.05 3.84.05q5.27-.01 10.55-.38a1.31 1.27 59.8 01.86.24l.57.42zM151.75 246.54l-.56-.3a.95.95 0 01-.49-.74q-.77-7.23-.16-14.5 6.55-1.69 14.75-1.42a1.25 1.25 0 011.22 1.23l.32 15.57a.91.91 0 01-.96.93l-14.12-.77zM142.52 246.03c-3.17-.03-6.7-.45-9.9-1.28a.54.54 0 01-.41-.51l-.29-11.81a.78.77 86.8 01.69-.79l9.24-1.01a.76.75 83.7 01.82.66q.89 7.03.52 14.11a.66.66 0 01-.67.63z"/><path fill="#fff" d="M150.54 231q-.61 7.27.16 14.5a.95.95 0 00.49.74l.56.3v1.92l-4.04-.46.95-1.22a1.27 1.26-27.9 00.27-.86q-.43-7.38.53-14.75a.54.53-83.7 01.57-.46q.29.03.51.29z"/><rect fill="#222121" x="-4.61" y="-6.25" transform="rotate(.2 -68223.596 35324.536)" width="9.22" height="12.5" rx="1.23"/><rect fill="#222121" x="-3.23" y="-5.48" transform="rotate(.7 -19450.745 9248.72)" width="6.46" height="10.96" rx=".9"/><path fill="#fff" d="M92.79 234.5l-.3 6.62a.83.82 9.3 00.6.83l3.13.89a.64.63 8.6 00.81-.59l.26-8q.64-1.6 2.25-.75l.36 8.66a.57.56 88.9 00.56.55q2.03.02 3.66 1.2.77.56-.17.44l-12.33-1.52a.71.71 0 01-.62-.7v-7.38a.5.5 0 00-.5-.5h-2.72a.62.61-.9 00-.62.63c.03 1.39 1.04 7.87-1.18 7.43a.57.57 0 01-.46-.55l-.07-6.83a.7.7 0 00-.7-.69l-.87.01a.62.62 0 00-.62.62l-.03 6.6a.65.65 0 01-.99.55c-1.14-.7-.67-5.34-1.26-7.31q1.54.09 1.43-.78a.58.57-12.2 01.41-.63q1.59-.47 3.15.01a1.76 1.68 44.4 001.01.01q3.19-.95 5.81 1.18z"/><path fill="#222121" d="M97.29 234.25l-.26 8a.64.63 8.6 01-.81.59l-3.13-.89a.83.82 9.3 01-.6-.83l.3-6.62q2.18-1.47 4.5-.25zM64 235.29q.78 1.88.59 4.04a.52.51 4.6 01-.55.46c-4.16-.29-7.81.21-12.06-.66-2.28-.47-5.59.12-7.47-.58q-.55-.2-.01-.41c1.91-.72 3.62.95 4.35-2.08q6.44 1.3 9.96.25 3.6-1.07 5.19-1.02z"/><path fill="#fff" d="M71.29 237.25h.42l.02 3.71q0 .72-.48.19l-.25-.27a.56.53-63.5 01-.13-.43l.42-3.2z"/><path fill="#9c9da0" d="M69.28 240.79l-.83-.35a.63.63 0 01.38-1.2q.92.21.86 1.29a.3.3 0 01-.41.26zM193.46 263.25q.12 2.48 1.88 4.25a.84.83 58.6 00.84.21q5.38-1.73 8.06-1.48 13.84 1.24 27.71 1.95c21.94 1.1 43.9 3.1 65.74 5.47q16.12 1.75 21.32 1.88 12.22.3 19.62 7.89a1.43 1.39 70.8 00.84.42q4.04.46 13.96 2.5 21.59 4.44 32.89 4.8 10.6.33 21.18 1.2a.59.58-5.6 01.52.42l.25.85a.39.39 0 00.76-.06l.1-.74a.52.51-85.6 01.52-.45c26.58.17 51.82.52 78.56-2.86q30.18-3.82 60.35-7.66 3.57-.45 13.19.2c-14.24 2.64-28.3 5.68-42.7 7.82-16.49 2.45-32.37 6.2-50.28 6.15-17.36-.06-34.81-1.37-52.02-1.21q-40.53.39-78.5-1.56-9.03-.47-20.69-1.97-8.03-2.04-16.29-2.44-1.48-.08-1.77 1.13-12.88-.88-25.54-3.46.37-.37.27-.79a.76.76 0 00-.63-.59l-17.2-2.59a.78.77 20.6 00-.76.34q-.16.25-.14.59c-15.24-2.6-31.09-5.77-44.55-12.16q-.65-.3-3.06-.52a.76.76 0 00-.74.42q-.62 1.29.54 2.61 9.69 11.05 19.2 22.29.83.97 1.07 2.18a1.02 1.02 0 01-.24.88q-1.24 1.36-3.65.99c-13.34-2.09-26.9-4.1-39.53-9.01q-4.78-3.31-10.48-4.62a.74.73 22.8 00-.79.32q-.22.36-.06.91-56.79-18.07-74.14-23.34-14.68-4.46-21.72-7.41c-10.05-4.2-19.99-9.29-30.19-12.95a.29.29 0 01-.1-.49l.19-.18a.14.13-51.7 01.15-.02c1.72.79 3.77.62 5.09.83 25.16 3.99 50.22 8.78 75.36 12.94q24.19 3.99 48.34 8.22c5.97 1.05 10.05.73 15.09-1.89q.43-.23.92-.22l1.26.01z"/><path fill="#222121" d="M404.93 270.53c-3.33-.11-7.88-2.24-5.84-6.53 5.4-11.31 13.99-12.44 26.14-11.45q7.66.63 15.3 1.35c4.83.46 10.45 1.67 15.75 2.18 3.9.38 13.77 2.01 13.4 7.7-.44 6.63-14.57 8.05-19.4 7.94q-22.67-.47-45.35-1.19zm26.57-5.82q13.35.47 24.31-.1 1.31-.07 3-.71.5-.19-.03-.27l-6.53-.92q-2.09-.73-3.07-.84-10.4-1.21-20.79-2.5c-6.72-.83-15.92-1.71-20.91 3.96a.32.32 0 00.23.53l23.79.85z"/><path fill="#9c9da0" d="M452.25 262.71c-5.36 2.1-8.65.49-13.91.83-2.39.16-6.22-.92-6.84 1.17l-23.79-.85a.32.32 0 01-.23-.53c4.99-5.67 14.19-4.79 20.91-3.96q10.39 1.29 20.79 2.5.98.11 3.07.84z"/><path fill="#fbfee1" d="M452.25 262.71l6.53.92q.53.08.03.27-1.69.64-3 .71-10.96.57-24.31.1c.62-2.09 4.45-1.01 6.84-1.17 5.26-.34 8.55 1.27 13.91-.83z"/><path fill="#fff" d="M273.96 286.5l-18.46-3.04q-.02-.34.14-.59a.78.77 20.6 01.76-.34l17.2 2.59a.76.76 0 01.63.59q.1.42-.27.79zM184.54 291.14l-11.33-3.39q-.16-.55.06-.91a.74.73 22.8 01.79-.32q5.7 1.31 10.48 4.62zM317.56 291.27q-9.12-.15-18.06-1.31.29-1.21 1.77-1.13 8.26.4 16.29 2.44zM546.09 308.62q4.03-5.79 10.8-7.66a.85.85 0 00.62-.76l.53-8.34a.84.83 86.1 00-1-.88l-3.43.73a.55.54 78.4 01-.64-.43q-.05-.23.03-.49l6.3-1.19a.33.33 0 01.38.4q-.95 4.25-1.17 11.51c-.09 2.96-1.54 8.35-1.04 13.3a1.65 1.65 0 01-.22.99q-3.8 6.42-11.52 4.74a.57.57 0 01-.45-.59l.81-11.33z"/><path fill="#9c9da0" d="M257.17 291.38a.67.67 0 01.48-1.22l13 2.34a.42.41 6.8 01.35.44l-.29 3.45a.69.69 0 01-.86.61q-6.79-1.82-12.68-5.62zM553 290.79q-.08.26-.03.49a.55.54 78.4 00.64.43l3.43-.73a.84.83 86.1 011 .88l-.53 8.34a.85.85 0 01-.62.76q-6.77 1.87-10.8 7.66c.35-4.36.47-12.86 2.32-16.77a.92.92 0 01.71-.53l3.88-.53z"/><path fill="#fff" d="M543.3 304.11q-1.92-1.61-1.61-4.01c.31-2.34.3-3.31-.73-5.1a.74.74 0 00-.76-.37l-19.34 3.03q-.45.07-.82.31-1.01.62-1.94-.38c.44-.65 1.16-1.2 1.99-1.24q10.94-.54 21.35-3.65a.53.53 0 01.65.33q1.92 5.27 1.21 11.08z"/><path fill="#9c9da0" d="M275.74 299.04q-.83-2.59.54-4.91a.78.74-70.4 01.74-.37l11.77 1.37a1.14 1.14 0 011.01 1.23l-.49 6.14a.66.65 9.8 01-.83.58l-11.9-3.24a1.24 1.21-.7 01-.84-.8zM543.3 304.11q.77 4.95-1.01 9.89l.27-5.39a.78.78 0 00-.82-.82c-6.57.33-13.68.43-19.67 3.6a1.81 1.72-87.2 00-.7.67q-2.31 3.9-3.43 8.44c-.36-7.76-.05-15.16.16-22.91q.93 1 1.94.38.37-.24.82-.31l19.34-3.03a.74.74 0 01.76.37c1.03 1.79 1.04 2.76.73 5.1q-.31 2.4 1.61 4.01zM257.12 303.79c-.38-.2-1.1-.31-1.55-.65a1.03 1-70.6 01-.4-.87l.33-5.21a.45.45 0 01.63-.39q3.06 1.31 6.08 2.64c2.88 1.27 5.29 3.68 8.45 5.05a.73.72 15.9 01.44.78l-.82 5.31a.42.41 19.6 01-.62.29q-6.18-3.67-12.54-6.95zM294.75 305.36a.39.39 0 01-.35-.4l.21-6.7a1.91 1.91 0 012.06-1.84l9.71.78a.67.67 0 01.62.67v10.52a.44.44 0 01-.64.39q-5.51-2.72-11.61-3.42zM512.79 315l-.05-.93a.63.62 2.9 00-.53-.58c-3.51-.53-8.64 2.03-12.32 2.79-3.67.76-5.25 4.83-6.64 7.93q-3.56.43-7-.99a.68.67-79.2 01-.42-.63l-.25-20.46a.6.59-3.7 01.53-.6q13.78-1.39 27.43-3.82a.38.38 0 01.45.4l-1.2 16.89zM313.94 310.31c-2.83-1.06-1.52-9.33-1.02-11.62a.59.58-81.4 01.61-.46l10.54.73a.51.51 0 01.47.61q-1.3 6.39.22 12.68a.41.41 0 01-.46.5q-6.17-.87-10.36-2.44zM344.71 314.71c-2.55.41-14.46-2.67-15.09-4.87q-1.56-5.47 1.64-10.01a.95.94 18.9 01.83-.4l11.27.65a.95.95 0 01.88 1.08c-.34 2.33-1.38 11.61.56 13.2q.35.28-.09.35z"/><path fill="#fff" d="M359 301.04q.34.23.82.27a.38.38 0 01.32.51c-.48 1.22-7.02.12-8.37 0a.55.54-83.1 00-.58.46c-.82 5.21-1.49 9.11 1.56 12.93-5.25 1.11-3.16-11.3-2.64-13.81a.86.85 6.6 01.88-.69l8.01.33z"/><path fill="#9c9da0" d="M359 301.04l7.05.14a.42.41 6.4 01.4.49l-1.91 9.58q.15-.53-.08-.8a.49.49 0 00-.78.06q-1.09 1.71-.21 3.48a1.34 1.31 41.6 01.07 1l-.4 1.19a.61.61 0 01-.67.41l-5.72-.93q-2.01.2-4-.45c-3.05-3.82-2.38-7.72-1.56-12.93a.55.54-83.1 01.58-.46c1.35.12 7.89 1.22 8.37 0a.38.38 0 00-.32-.51q-.48-.04-.82-.27z"/><path fill="#fff" d="M380.75 320.96l-.26-.47a.29.29 0 01.24-.43l6.15-.24a1.98 1.98 0 001.85-2.45l-1.23-4.97a1.74 1.71 48.4 01.05-.98q.54-1.53-.07-2.96a1.44 1.4 39.6 01-.09-.82l.73-3.76a.6.59 9.1 00-.51-.7q-6.53-.88-13.1-.4a.79.78 8.4 00-.67.49c-.41 1.05-.75 4.92-2.18 4.74a.48.47 89.9 01-.42-.43l-.03-.33q-.19-3.3 2.14-5.46a1.22 1.21 23.6 01.86-.33l15.38.31a.46.46 0 01.44.58q-2.18 8.24.09 16.46a1.61 1.6-8.3 01-1.52 2.03l-7.85.12z"/><path fill="#9c9da0" d="M413.04 301.98q2.14 4.14 1.94 8.61c-.05 1.25.3 2.45.51 3.65a.35.35 0 00.55.22q.34-.24.5-.71l1.27 6.33a1.17 1.16-6 01-1.13 1.39c-7.39.1-11.8 1.38-18.91-1.93-4.65-2.17-3.11-13.26-2-16.25.97-2.6 14.33-1.38 17.27-1.31z"/><path fill="#fff" d="M413.04 301.98q4.49 4.89 3.5 11.77-.16.47-.5.71a.35.35 0 01-.55-.22c-.21-1.2-.56-2.4-.51-3.65q.2-4.47-1.94-8.61zM423.7 317.18l3.34 3.21a1.28 1.28 0 00.84.36c2.76.13 4.64-.07 7.33 1.2 4.88 2.3 13.95 2.99 14.14-4.78a1.36 1.34 66.7 01.34-.87c2.3-2.61.42-9.57-.87-12.49a.79.79 0 00-.69-.47q-8.16-.27-16.31-.23-4.13.01-8.43-.03.5-1.25 1.87-1.19 12.47.58 24.99.17a.47.47 0 01.49.49q-.21 4.66 1.83 8.87a1.3 1.28 41.3 01.07.94l-3.29 10.32a1.14 1.13 89 01-.69.72q-7.95 2.89-15.25-1.11-.35-.2-.75-.22l-5.84-.33a1.04 1.04 0 01-.86-.54l-2.26-4.02zM482.5 309.79c-1.16-.75-.29-4.11-.11-4.95a1.62 1.62 0 00-1.84-1.94c-7.61 1.22-15.86.5-23.58.33a.97.97 0 00-.9 1.38l9.55 20.38c-2.95-1.47-9.62-17.6-11.25-20.77q-1.35-2.62 1.57-2.32 13.18 1.36 26.33.11a.56.55 82.9 01.6.47q.6 3.72-.37 7.31z"/><path fill="#9c9da0" d="M380.75 320.96l-8.42-.21a.75.75 0 01-.68-.5q-2.37-6.37-.44-13l.03.33a.48.47 89.9 00.42.43c1.43.18 1.77-3.69 2.18-4.74a.79.78 8.4 01.67-.49q6.57-.48 13.1.4a.6.59 9.1 01.51.7l-.73 3.76a1.44 1.4 39.6 00.09.82q.61 1.43.07 2.96a1.74 1.71 48.4 00-.05.98l1.23 4.97a1.98 1.98 0 01-1.85 2.45l-6.15.24a.29.29 0 00-.24.43l.26.47zM423.7 317.18q-3.53-6.96-.31-14.1 4.3.04 8.43.03 8.15-.04 16.31.23a.79.79 0 01.69.47c1.29 2.92 3.17 9.88.87 12.49a1.36 1.34 66.7 00-.34.87c-.19 7.77-9.26 7.08-14.14 4.78-2.69-1.27-4.57-1.07-7.33-1.2a1.28 1.28 0 01-.84-.36l-3.34-3.21zM482.5 309.79l-.5 3q-12.65 2.67-10 15.42-3.57-1.06-6.38-3.22l-9.55-20.38a.97.97 0 01.9-1.38c7.72.17 15.97.89 23.58-.33a1.62 1.62 0 011.84 1.94c-.18.84-1.05 4.2.11 4.95z"/><path fill="#fff" d="M542.29 314c-.22 2-.12 7.29-2.36 8.03q-9.27 3.07-19.05 2.52a1.4 1.4 0 01-.88-.38q-1.4-1.34-2.06-3.67 1.12-4.54 3.43-8.44a1.81 1.72-87.2 01.7-.67c5.99-3.17 13.1-3.27 19.67-3.6a.78.78 0 01.82.82l-.27 5.39z"/><path fill="#9c9da0" d="M276.59 313.91q-.74-2.66-.02-5.39a.55.55 0 01.72-.37l8.97 3.43a.78.77 18.9 01.47.95l-1.57 5.16a.61.61 0 01-.99.28q-2.91-2.58-6.74-3.29a1.1 1.08-2.1 01-.84-.77z"/><path fill="#fff" d="M364.54 311.25q.47 3.33-.67 6.47a.3.3 0 01-.49.11c-1.38-1.35-4.05.53-6.63-2.17l5.72.93a.61.61 0 00.67-.41l.4-1.19a1.34 1.31 41.6 00-.07-1q-.88-1.77.21-3.48a.49.49 0 01.78-.06q.23.27.08.8zM482 312.79c-.57 2.85-2.98 20.93-10 15.42q-2.65-12.75 10-15.42zM512.79 315l-.52 6.49a1.74 1.68-57 00.18.92q.37.72.13 1.42a.78.78 0 01-.69.52q-9.35.47-18.64-.14c1.39-3.1 2.97-7.17 6.64-7.93 3.68-.76 8.81-3.32 12.32-2.79a.63.62 2.9 01.53.58l.05.93z"/><path fill="#9c9da0" d="M292.55 321.49a1.62 1.61 6.3 01-.99-1.23q-.59-3.43 1.56-6.03a.92.9-64.6 01.85-.31q5.32.97 9.72 4.1a.87.86-64.1 01.33.97l-1.85 5.83a.52.52 0 01-.69.32l-8.93-3.65zM308.01 327.03q-.59-2.88.48-5.7a1.02 1.01-75.4 011.1-.65c6.91 1 14.55 1.98 10.77 11.6a.52.51-67.1 01-.68.28l-11-4.71a1.11 1.1 6 01-.67-.82zM343.91 331.65c-2.55.64-.77 3.28-1.43 5.07a.97.96 3.5 01-.68.6l-4.61 1.05q-5.66-1.37-10.87-4.05a.85.85 0 01-.47-.71q-.31-3.97 2.46-6.6a1.08 1.07 31.4 011.05-.25l5.59 1.71q.42.13.77.38 1.02.71 1.89-.26a1.11 1.08-70.1 01.77-.37q3.92-.16 5.53 3.43z"/><path fill="#fff" d="M482.17 337.33c-.85-1.63-2.5-8.62.26-9.4a.53.53 0 01.67.53l-.46 8.77q-.04.93-.47.1z"/><path fill="#9c9da0" d="M495 328.29q2.17 3.52 6.25 4.25c-3.29 2.95-2.88 7.46-6.95 10.9a.79.78 39.5 01-.88.08l-6.14-3.41a1.08 1.07-82.2 01-.52-.69c-.74-3.08-.95-8.74 1.67-11.1a1.26 1.26 0 01.89-.32l5.68.29z"/><path fill="#fff" d="M501.25 332.54q-4.08-.73-6.25-4.25 4.52-.87 7.22 2.58a.69.68-46.3 01.01.82q-.39.52-.98.85zM343.91 331.65l-.83 8.13a.44.44 0 01-.58.38l-5.31-1.79 4.61-1.05a.97.96 3.5 00.68-.6c.66-1.79-1.12-4.43 1.43-5.07z"/><path fill="#9c9da0" d="M349 341.44q-1.86-2.59-1.46-5.51.32-2.31 2.64-2.12c3.28.27 7.56.4 9.77 2.9 2.5 2.84 1.37 6.39 1.09 9.62a.39.38 11.8 01-.51.33c-3.43-1.17-9.43-2.3-11.53-5.22z"/><path fill="#fbfee1" d="M517.04 338q.07.93-.39 1.49a.95.94-66.7 01-.84.34q-5.84-.62-10.3-4.17c-.83-4.85 10.36 1.84 11.53 2.34z"/><path fill="#9c9da0" d="M505.51 335.66q4.46 3.55 10.3 4.17a.95.94-66.7 00.84-.34q.46-.56.39-1.49c.39 1.49.68 2.68-.1 4.13-4.12 7.61-6.98 10.26-14.58 3.8a1.09 1.07-67.5 01-.37-.92q.16-2.06 1.53-3.7a1.58 1.55 66.9 00.35-.9q.17-2.69 1.64-4.75zM371.59 339.32q3.35 1.84 7.13 2.65c2.23.48 4.13 1.52 2.71 4.08a.61.6-56.3 00.15.78q.24.19.63.17-1.35 2.67-1.28 5.67a.33.33 0 01-.44.32l-14.57-4.91a.72.71 9.9 01-.48-.67l-.07-7.82a.61.6-7.8 01.46-.6q3.11-.84 5.76.33z"/><path fill="#fff" d="M371.59 339.32q6.75-.02 11.49 4.17a.97.95-66.6 01.32.84q-.18 1.47-1.19 2.67-.39.02-.63-.17a.61.6-56.3 01-.15-.78c1.42-2.56-.48-3.6-2.71-4.08q-3.78-.81-7.13-2.65zM522.25 352.46q2.32-1.65 3.99.48a.5.5 0 00.88-.42q-1.36-5.8-1.62-11.73l1.11-1.27a.39.39 0 01.63.07c.93 1.68 1.36 14.53-.25 15.06a.68.68 0 01-.77-.25q-1.34-1.9-3.97-1.94z"/><path fill="#9c9da0" d="M525.5 340.79q.26 5.93 1.62 11.73a.5.5 0 01-.88.42q-1.67-2.13-3.99-.48l-1-.67c-2.26-1.52.67-7.09 1.93-8.57a.52.52 0 00.02-.66l-.24-.31q.9-1.38 2.54-1.46z"/><path fill="#fff" d="M522.96 342.25l.24.31a.52.52 0 01-.02.66c-1.26 1.48-4.19 7.05-1.93 8.57q0 .67-.44.88a.64.63 59.6 01-.79-.21c-2.61-3.76.23-7.57 2.94-10.21zM541.09 348.8l-5.24-2.36a.64.63-79.4 01-.37-.55l-.02-.39.05-.59a.61.6-1.2 01.53-.55q5.3-.62 5.05 4.44zM395.78 345.95l-5.11.29a.67.64 74.3 01-.63-.37q-.08-.17-.08-.37l.44-.42a1.28 1.25-66.1 01.87-.35q2.32-.01 4.51 1.22z"/><path fill="#9c9da0" d="M389.96 345.5q0 .2.08.37a.67.64 74.3 00.63.37l5.11-.29 16.17 3.52a1.08 1.08 0 01.86 1.06q-.01 5.34-1.68 10.47a.55.54 14.9 01-.63.36q-14.26-2.78-22.45-6.4c-3.47-1.53.15-7.63 1.91-9.46zM535.46 345.5l.02.39a.64.63-79.4 00.37.55l5.24 2.36c-1.38 2.1-4.25 4.68-6.41 1.72a1.07 1.05-57.2 01-.18-.87l.96-4.15z"/><path fill="#fbfee1" d="M543.21 356.5q-2.06 1.71-4.74 1.69a.23.22 85.5 01-.22-.19l-.04-.25.39-2.8a.62.62 0 01.4-.5l5.06-1.9a.27.26 82.2 01.35.27q-.17 2.02-1.2 3.68z"/><path fill="#9c9da0" d="M437.75 355.96q-1.07-.09-1.95.26a1.75 1.64-49 01-.95.1q-3.45-.64-5.15 2.14a.87.86 42.9 00.04.96c1.91 2.66 9.73 6.23 10.88 1.33a.44.44 0 00-.25-.5l-3.52-1.5a.67.67 0 01-.19-1.12q.81-.73 1.34-.67 1.33 2.18 3.86 3.1a.79.79 0 01.45 1.05q-1.57 3.76-2 7.79a.54.53 10.2 01-.67.46l-22.51-5.94a1.01 1.01 0 01-.73-1.15l1.29-7.36a1.19 1.19 0 01.67-.87c4.74-2.23 15.06.45 19.39 1.92z"/><path fill="#fff" d="M437.75 355.96l.25 1q-.53-.06-1.34.67a.67.67 0 00.19 1.12l3.52 1.5a.44.44 0 01.25.5c-1.15 4.9-8.97 1.33-10.88-1.33a.87.86 42.9 01-.04-.96q1.7-2.78 5.15-2.14a1.75 1.64-49 00.95-.1q.88-.35 1.95-.26z"/><path fill="#9c9da0" d="M543.21 356.5c-1.26 4.95-5.16 9.61-8.47 13.46a1.32 1.32 0 01-1.39.41c-.91-.27 3.76-11.81 4.86-12.62l.04.25a.23.22 85.5 00.22.19q2.68.02 4.74-1.69z"/><path fill="#fff" d="M523.04 372.25q.67-1.5 2.48-1.39a.53.53 0 00.56-.44q.77-4.54 3.28-8.37a.57.57 0 00-.66-.86q-4.21 1.42-8.67 1.27a1.34 1.34 0 01-.83-.31l-1.66-1.4q-.04-1.6 1.98-1.48 6.41.38 13.11-1.85.43-.14.24.27l-6.57 14.09a.78.77 11.4 01-.69.45l-2.57.02z"/><path fill="#9c9da0" d="M511.75 362l-.03-.34a.44.44 0 00-.38-.4l-.34-.05q.4-.48.95-.61a.38.38 0 01.45.46q-.12.55-.65.94zM449.75 361.04c.2 7.36 8.09 8.22 13.79 7a.46.45 79.5 01.55.38q.23 1.66 1.7 1.58.84 1.28.13 2.58a.8.78-75.1 01-.71.42q-9.41-.19-18.61-2.15a.62.62 0 01-.48-.71l1.39-8.65a.91.89 88.2 01.67-.73q.8-.2 1.57.28zM517.54 360.75l1.66 1.4a1.34 1.34 0 00.83.31q4.46.15 8.67-1.27a.57.57 0 01.66.86q-2.51 3.83-3.28 8.37a.53.53 0 01-.56.44q-1.81-.11-2.48 1.39l-1.29.21q-2.17-2.82-3.64-.04-1.41.83-3.06.42a.52.51 14.3 01-.37-.62l2.86-11.47z"/><path fill="#fff" d="M449.75 361.04q7.53.45 13.27 1.93c2.66.69 2.22 4.87 2.77 7.03q-1.47.08-1.7-1.58a.46.45 79.5 00-.55-.38c-5.7 1.22-13.59.36-13.79-7zM511 361.21l.34.05a.44.44 0 01.38.4l.03.34-1.9 3.27a1.07 1.03-78.3 01-.76.52c-1.09.15-5.48.26-6.08.8a.56.56 0 01-.72.03c-1.8-1.43-3.73-.15-5.08-1.62l.54-2.04 5.25-.17q2.34.09 4.3-1.02.43-.24.93-.29l2.77-.27zM485.75 373.46l-2.27-1.77q-.38-.3-.63-.72-1.55-2.57-3.89-4.47l4.14-4.13a.66.65 41.4 01.85-.05q5.5 4.19 5.11 11.29a.52.51-81.8 01-.62.47l-2.69-.62z"/><path fill="#9c9da0" d="M511.75 362l-2.18 10.75a.75.73-87.7 01-.62.58l-7.6 1.03a1.66 1.65 55 01-.95-.17q-1.84-.97-3.59.1a.37.36 70.9 01-.55-.27q-.65-4.71.95-9.02c1.35 1.47 3.28.19 5.08 1.62a.56.56 0 00.72-.03c.6-.54 4.99-.65 6.08-.8a1.07 1.03-78.3 00.76-.52l1.9-3.27zM503 362.79l-5.25.17q2.58-.84 5.25-.17zM478.96 366.5q2.34 1.9 3.89 4.47.25.42.63.72l2.27 1.77-.5.08-7.95-1.33a.41.41 0 01-.32-.51q.36-1.25-.19-2.45l2.17-2.75z"/><path fill="#fff" d="M476.79 369.25q.55 1.2.19 2.45a.41.41 0 00.32.51l7.95 1.33c.11 1.31-9.35.13-10.52.01a.36.35-71.7 01-.27-.54l2.33-3.76zM521.75 372.46l-3.64-.04q1.47-2.78 3.64.04z"/><path fill="#fbfee1" d="M468.81 427.57q2.19-1.31 5.7-1.84c11.73-1.75 26.12-5.31 39.17-7.72 4.4-.82 10.61 2.04 14.7 3.68a.28.27-35.5 01-.09.53q-5.44.33-10.84 1.5c-13.44 2.91-26.99 5.36-40.47 8.09a1.57 1.56 51.8 01-1-.12l-7.14-3.43q-.65-.31-.03-.69zM497.31 441.35a.42.42 0 01.08-.8c16.68-3.91 33.23-8.2 49.81-12.49a1.74 1.73-43 01.95.03l17.59 5.81a.42.42 0 01-.13.82c-1.21.02-2.19-.05-3.41.35q-20.55 6.67-41.12 13.29-2.6.83-5.29 1.15a1.97 1.88 52.6 01-1.01-.16l-17.47-8z"/><circle fill="#9c9da0" cx="284.53" cy="478.47" r="1.08"/><ellipse fill="#fff" transform="rotate(101.8 47.728 450.287)" rx="1.33" ry=".98"/><path fill="#fff" d="M574.28 510.61c-1.22.37-4.12.27-4.4-1.14q-.18-.87.53-.33 1.59 1.23 3.79 1.04 2.14-.19.08.43z"/><path fill="#fbfee1" d="M590.29 589.75l.71.56v.69h-1.06l-.19-.71.54-.54z"/><path fill="#222121" d="M0 589.94l.25.1c-.14.46-.01.72.5.7q6.23-.17 12.44.26H0v-1.06z"/><path fill="#fff" d="M.25 590.04q2.78.08 5.56.08 291.97.12 583.94.17l.19.71h-13.5q-2.38-.63-4.75 0H13.19q-6.21-.43-12.44-.26c-.51.02-.64-.24-.5-.7z"/><path fill="#222121" d="M576.44 591h-4.75q2.37-.63 4.75 0z"/></svg>