<svg xmlns="http://www.w3.org/2000/svg" viewBox="0 0 591 591"><g stroke-width="2" fill="none"><path stroke="#101010" vector-effect="non-scaling-stroke" d="M590.06 0l.19.29"/><path stroke="#595959" vector-effect="non-scaling-stroke" d="M590.25.29l.04 589.46"/><path stroke="gray" vector-effect="non-scaling-stroke" d="M590.29 589.75l-.54.54"/><path stroke="#595959" vector-effect="non-scaling-stroke" d="M589.75 590.29q-292.91-.05-585.81-.18-1.85 0-3.69-.07"/><path stroke="#101010" vector-effect="non-scaling-stroke" d="M.25 590.04l-.25-.1"/><path stroke="#7e7f70" vector-effect="non-scaling-stroke" d="M586.25 4.51a.26.26 0 00-.26-.26H4.51a.26.26 0 00-.26.26v581.48a.26.26 0 00.26.26h581.48a.26.26 0 00.26-.26V4.51"/><path stroke="#696869" vector-effect="non-scaling-stroke" d="M591 586.81c-.84-.45-.25-536.6-.25-586.31a.25.24-86.1 00-.21-.25q-.17-.02-.29.04"/><path stroke="#d9d8d9" vector-effect="non-scaling-stroke" d="M591 590.06l-.71-.31"/><path stroke="#fbf1c6" vector-effect="non-scaling-stroke" d="M91.46 38.67c-10.42.28-19.62-.04-30.19.32-13.03.44-19.86 7.86-20.13 20.25q-.47 21.33-.21 42.24a1.13 1.13 0 001.9.82c21.47-19.87 41.68-41.16 62.79-61.45a1.12 1.12 0 00-.71-1.93q-6.75-.44-13.45-.25"/><path stroke="#8e8e80" vector-effect="non-scaling-stroke" d="M477.93 179.64l7.11-13.37a.66.66 0 01.66-.35l23.92 2.53a.87.87 0 01.74.61c.82 2.63 1.66 4.3 4.49 5.24 9.32 3.09 20.79 1.7 30.82-.67q3.98-.93 4.34-5.36a1.55 1.53-59.1 00-.23-.94c-5.26-8.4-49.98-12.21-60.38-13.06a1.09 1.09 0 01-.99-1.23c1.27-9.65 2.91-34.47-9.48-37.5-9.89-2.43-18.33 7.95-19.62 16.79q-1.03 7.03-.86 17.4a.4.4 0 01-.48.4c-7.32-1.49-61.19-14.31-59.11 1.77q.27 2.09 2.38 3.47 8.38 5.48 17.62.09a1.28 1.26 35 01.88-.15l24.81 4.88a.4.4 0 01-.01.78c-7.8 1.27-15.48 2.56-23.45 3.28q-15.04 1.35-30.08 2.65c-6.54.56-11.56-.16-18.01-1.15q-41.65-6.36-56.41-8.96c-30.58-5.39-60.73-11.99-90.77-19.85q-35.05-9.17-70.36-17.34-5.88-1.36-11.58-1.6c-17.43-.71-36.43-1.16-53.63 1.96q-7.43 1.34-12.1 6.9c-2.24 2.68-2.02 5.73 1.39 7.15q24.61 10.17 52.93 18.61a1.11 1.1-4.2 01.69.59q2.95 6.28 5.44 12.75c5.98 15.61 12.54 30.96 18.49 46.6a.43.42 73.7 01-.31.57c-11.38 2.34-20.62 3.24-25.84 13.18a1.26 1.22-39.7 00-.1.93q.8 2.81 3.44 3.69 13.02 4.33 26.06 8.84.47.16 0 .33-6.15 2.16-12.5 3.6c-10.22 2.31-17.16 4.06-25.84 6.22a1.08 1.08 0 00-.59 1.72c7.77 9.7 34.04 4.83 44.67.45a.74.73 53.6 01.77.12l4.51 3.82a1 .99 17.3 01.35.66l.5 5.43q.05.5.31.92c7.09 11.48 24.05 16.42 36.39 19.03a.75.75 0 01.59.73v5.58a.52.52 0 01-.52.52q-14.59-.2-22.54 10.55c-9.24 12.48-12.1 36.02 4.77 44.2 11.64 5.64 21.1-.51 29.67-7.94a.93.92-53.6 01.97-.15l38.41 16.77a1.21 1.18-86.9 01.67.76q.59 1.91.5 2.63c-2.29 18.39 14.15 33.08 31.74 23.13 10.8-6.11 19.65-24.56 18.62-36.72-1.12-13.37-11.81-26.33-26.45-20.92a1.24 1.24 0 01-1.65-1.36l5.82-36.21a1.01 1-76 011.32-.8l26.19 8.84a1.42 1.4-81.8 01.96 1.3c.19 7.21-.35 14.74-.08 21.69.73 18.28 1.54 41.33.81 60.35a.91.9-13.9 01-.46.75q-14.05 8.19-8.77 23.72c1.61 4.73 5.61 5.6 6.11 11.46q.54 6.4.01 12.8a1.01 1-14 01-.47.77q-4.68 2.98-7.12 2.98-11.22.03-22.45-.05c-5.7-.04-11.64-4.75-15.02 2.8-3.66 8.16 4.54 13.78 12.03 10.61a1.73 1.68 37.4 01.94-.11q2.23.38 4.45.25c6.84-.4 13.68-.24 20.54-.25a1.39 1.36-25.5 01.9.31l5.48 4.34a.99.99 0 01.37.75c.16 9.55-.75 21.84-.98 28.51-.2 6.16.72 28-4.37 31.29-6.11 3.95-14-1.77-18.73-5.93a.8.78 28.8 01-.24-.8c.93-3.29.06-5.47-2.55-7.78q-13.03-11.53-29.64-14.67c-5.51-1.04-10.73 2.38-7.76 8.51 15.74 32.47 40.98 54.18 72.35 70.87a1.13 1.13 0 001.04 0c18.23-9.57 36.03-21.64 50.29-36.64 9.68-10.17 17.27-22.04 23.66-34.63 2.67-5.25-3.61-8.5-8.02-7.62-12.58 2.53-25.79 7.96-32.86 18.76a1.44 1.41 59.6 00-.23.93l.27 2.7a.88.84-22.5 01-.34.77c-7.83 5.91-20.81 13.86-21.53-3.66-.7-16.92-1.78-33.83-1.58-50.77a.84.83-12 01.5-.76q3.17-1.41 5.35-4.09a.91.9-68.7 01.74-.33q11.63.58 23.32.46 1.57-.02 3.88.76c7.38 2.5 15.05-5.64 10.32-12.45-4.44-6.41-10.16-1.36-15.71-1.54q-9.99-.34-20-.53c-3.27-.06-5.27-1.61-8.1-2.96a.92.92 0 01-.53-.8q-.4-7.67.65-15.28a1.52 1.5-18.8 01.43-.86q9.21-9.2 5.89-21.94-1.95-7.46-9.88-9.38a.67.66 7.4 01-.5-.64l.81-78.39a.52.51 6.9 01.63-.49q6.08 1.37 12.01 3.35 45.75 15.23 91.52 30.42 3.07 1.02 7.46.57c14.6-1.49 28.42-5.83 39.49-15.3q8.43-7.22 16.96-14.29c2.44-2.02 2.63-5.95-.71-6.83q-27.72-7.35-55.43-14.98a.88.87-86.5 01-.64-.73l-8.56-60.2a.85.84-22.2 01.34-.8c2.09-1.5 8.34-6.58 10.73-6.23 5.79.84 15.54 2.84 21.02.92 17.88-6.28 34.24-11.41 52.96-13.15 8.31-.78 17.76-.51 19.23-9.05a1.33 1.31-59.9 00-.27-1.05q-2.16-2.69-5.8-2.09-.51.08-1-.09c-2.73-.96-5.76-.97-8.03-1.27q-22.5-2.97-44.99-5.96a.25.25 0 01-.19-.37"/><path stroke="#d7d7c9" vector-effect="non-scaling-stroke" d="M508.834 139.217a1.16.59 27 00-.766-1.053 1.16.59 27 00-1.302 0 1.16.59 27 00.766 1.052 1.16.59 27 001.302 0"/><path stroke="#5a5a5c" vector-effect="non-scaling-stroke" d="M466.29 156.25l13.66-1.62a2.33 2.31 4.1 001.96-1.68q3.22-11.63-.12-24.2"/><path stroke="#696869" vector-effect="non-scaling-stroke" d="M481.79 128.75c-.64-4.2-2.84-8.46-7.93-6.59-7.33 2.69-7.83 6.69-8.6 14.35q-.96 9.7-.16 19.47a.6.59 5.5 00.44.53q.49.14.75-.26"/><path stroke="#a3a3a5" vector-effect="non-scaling-stroke" d="M481.79 128.75q.14.67-.07.97-.3.43-.51-.05c-2.85-6.58-4.3-10.14-11.27-3.65-5.11 4.75-4.01 18.57-4.31 24.79-.09 1.88.31 3.62.66 5.44"/><path stroke="#908f8f" vector-effect="non-scaling-stroke" d="M90.75 126.46q-3.5.17-6.41 2.32-.42.31.06.51 12.36 5.23 25.08 9.53c85.98 29.11 176.16 44.96 265.77 57.94q19.43 2.81 66.75 8.51c8.15.98 17.62 3.24 22.97 1.22q5.15-1.94 10.24-3.16"/><path stroke="#5a5a5c" vector-effect="non-scaling-stroke" d="M475.21 203.33q17.71-6.87 36.25-8.97c1.41-.16 2.72-.62 4.04-1.07"/><path stroke="#696869" vector-effect="non-scaling-stroke" d="M515.5 193.29l8.26-.49q.76-.04.01-.16l-10.27-1.68"/><path stroke="#5a5a5c" vector-effect="non-scaling-stroke" d="M513.5 190.96c-2.74-.44-5.68-.44-8.23-.86q-17.32-2.86-34.77-4.81"/><path stroke="#696869" vector-effect="non-scaling-stroke" d="M470.5 185.29l-16-1.83"/><path stroke="#5a5a5c" vector-effect="non-scaling-stroke" d="M454.5 183.46q-18.04-3.19-36.25-5.17"/><path stroke="#696869" vector-effect="non-scaling-stroke" d="M418.25 178.29l-28.56-3.43"/><path stroke="#5a5a5c" vector-effect="non-scaling-stroke" d="M389.69 174.86l-11.44-2.07"/><path stroke="#696869" vector-effect="non-scaling-stroke" d="M378.25 172.79L359 169.96"/><path stroke="#5a5a5c" vector-effect="non-scaling-stroke" d="M359 169.96l-26.75-4.17"/><path stroke="#696869" vector-effect="non-scaling-stroke" d="M332.25 165.79q-27.66-4.25-55-10.25"/><path stroke="#5a5a5c" vector-effect="non-scaling-stroke" d="M277.25 155.54l-36-8.25"/><path stroke="#696869" vector-effect="non-scaling-stroke" d="M241.25 147.29c-25.47-6.14-50.38-14.18-76.25-19.08"/><path stroke="#5a5a5c" vector-effect="non-scaling-stroke" d="M165 128.21q-10.17-3.08-20.75-3.92"/><path stroke="#696869" vector-effect="non-scaling-stroke" d="M144.25 124.29q-24.24-.7-48.44.87c-1.8.12-3.29.85-5.06 1.3"/><path stroke="#a3a3a5" vector-effect="non-scaling-stroke" d="M144.25 124.29q-.27.25-.23.51a.25.25 0 01-.25.29q-20.85-.38-27.71.24-5.16.46-8.3.19a1.51 1.49-59.4 00-.99.26q-1.14.76-2.37-.02a1.28 1.22-30.1 00-.75-.18l-9.22.76a.49.48 87.5 00-.44.49l.01.38"/><path stroke="#d9d8d9" vector-effect="non-scaling-stroke" d="M94 127.21l-3.25-.75"/><path stroke="#a3a3a5" vector-effect="non-scaling-stroke" d="M165 128.21l-.23.36a.38.38 0 00.23.57q5.42 1.31 10.88 2.39 5.09 1.01 10.52 2.74c7.51 2.39 15.15 3.64 21.96 5.59 2.22.64 5.34 1.13 7.85 2.14 4.55 1.85 9.84 2.64 14 3.81q3.26.92 8.8 2.34 2.05.52 2.24-.86M277.25 155.54l-.24.21a.28.27-47.3 00.01.43q1.44 1.1 2.3 1.26c6.68 1.22 12.22 2.24 19.84 4.04q7.57 1.79 15.3 2.62c5.53.59 11.31 2.27 17.17 2.69a.63.63 0 00.65-.49q.06-.25-.03-.51M359 169.96l-.49.04a.62.61.5 00-.57.55q-.07.65.61.72 11.32 1.17 18.18 2.78 1.65.39 1.52-1.26M389.69 174.86q13.82 3.48 28.02 4.42a.5.5 0 00.54-.5v-.49M454.5 183.46q-.77-.11-1.19.34-.53.59.25.68l16.36 1.99a.76.75 11.7 00.82-.53q.11-.35-.24-.65M513.5 190.96c-1.96 1.05 1.54 2.12 2 2.33"/><path stroke="#cacacc" vector-effect="non-scaling-stroke" d="M475.21 203.33q-44.78-5.94-114.21-16.58-69.23-10.6-123.91-20.45c-37.62-6.77-71.86-17.18-104.53-27.11-10.5-3.19-25.5-8.53-38.56-11.98"/><path stroke="#908f8f" vector-effect="non-scaling-stroke" d="M415.063 150.45a4.1.63-7.7 00-4.147-.074 4.1.63-7.7 00-3.979 1.173 4.1.63-7.7 004.147.075 4.1.63-7.7 003.979-1.173"/><path stroke="#8e8e80" vector-effect="non-scaling-stroke" d="M164.81 162.44q-11.74-3.86-22.58-6.71-1.81-.47-1.08 1.25 10.82 25.53 20.57 51.52a.24.24 0 00.46-.06q1.01-11.14 1.43-22.29c.26-7.06 1.49-15.62 1.45-23.53a.17.16-85.3 00-.12-.15q-.07-.01-.13-.03"/><path stroke="#5a5a5c" vector-effect="non-scaling-stroke" d="M454.75 165.29q-8.1 1.25-16.16 2.79c-7.92 1.51-16.38 2-24.6 3.37q-.5.08 0 .15c3.53.45 6.99.54 10.46 1.22q11.03 2.14 22.29 2.47"/><path stroke="#696869" vector-effect="non-scaling-stroke" d="M446.74 175.29q7.28-1.93 14.03-5.05"/><path stroke="#5a5a5c" vector-effect="non-scaling-stroke" d="M460.77 170.24q4.13-.83 7.38-3.37"/><path stroke="#696869" vector-effect="non-scaling-stroke" d="M468.15 166.87l3.91-1.85q.54-.25-.04-.38-8.73-2-17.27.65"/><path stroke="#a3a3a5" vector-effect="non-scaling-stroke" d="M468.15 166.87q-1.44-2.25-4.46-1.91-5.27.58-7.75 1.5-1.25.47-1.19-1.17M460.77 170.24l-14.02 3.39a.5.5 0 00-.35.65l.34 1.01"/><path stroke="#696869" vector-effect="non-scaling-stroke" d="M519.74 167.08l-.76 1.98a.61.61 0 00.59.82l19.72-.66a.79.79 0 00.12-1.56l-19.48-3.57a.6.6 0 00-.67.78l.49 1.47a1.09 1.07-44.6 01-.01.74"/><path stroke="#8e8e80" vector-effect="non-scaling-stroke" d="M171.74 164.84q-1.76 20.12-3.22 39.66-.17 2.24.07 5.87a.58.56 90 00.53.54c6.24.39 6.67-5.83 12.16-7.18a1.6 1.6 0 001.15-2.02q-5.59-18.3-10.11-36.92a.3.29-49.6 00-.58.05M202.24 171.85a.34.34 0 00-.25-.31l-22.87-5.7a.34.34 0 00-.41.42l9.7 35.97a.34.34 0 00.38.25l14.67-2.46a.34.34 0 00.28-.35l-1.5-27.82M209.72 198.44a.48.48 0 00.55.45l15.41-2.22a.48.48 0 00.31-.76l-16.75-22.36a.48.48 0 00-.86.31l1.34 24.58M242.94 180.82a.41.41 0 00-.32-.34l-23.37-5a.41.41 0 00-.41.64L232.66 195a.41.41 0 00.4.16l11.4-2.13a.41.41 0 00.33-.46l-1.85-11.75M257.09 183.27c-2.16-.36-5.26-1.43-8.07-1.48a.38.38 0 00-.38.45l1.42 8.58a.67.67 0 00.79.55l23.63-4.53q.86-.16.01-.34-8.69-1.77-17.4-3.23"/><path stroke="#5a5a5c" vector-effect="non-scaling-stroke" d="M277.75 192.29l-4.25.92"/><path stroke="#696869" vector-effect="non-scaling-stroke" d="M273.5 193.21q-39.76 8.83-58.06 11.23-12.75 1.67-25.56 4.15a.36.36 0 00-.12.65q9.69 6.26 14.22 16.97a.61.59-17.3 00.69.35l7.83-1.85"/><path stroke="#5a5a5c" vector-effect="non-scaling-stroke" d="M212.5 224.71c7.61-1.04 15.66-.12 22.99-1.83q17.58-4.11 35.05-8.63"/><path stroke="#696869" vector-effect="non-scaling-stroke" d="M270.54 214.25l17.71-4.04"/><path stroke="#5a5a5c" vector-effect="non-scaling-stroke" d="M288.25 210.21c4.72-1.01 13.48-2.53 16.2-6.86a.43.43 0 00-.4-.66l-8.72.6"/><path stroke="#696869" vector-effect="non-scaling-stroke" d="M295.33 203.29c-3.84-.35-12.92-.19-15.44-3.19-2.11-2.51-.91-4.94-.03-7.59a.34.34 0 00-.37-.45l-1.74.23"/><path stroke="#a3a3a5" vector-effect="non-scaling-stroke" d="M295.33 203.29q-6.58 2.23-12.98-.4c-6.05-2.48-3.69-5.78-4.6-10.6M288.25 210.21q.1-.6-.24-.95a.93.92-29 00-.89-.25l-15.88 3.98a.99.98 1 00-.7.67q-.1.32 0 .59M212.5 224.71q.19-.65-.08-1.05a.7.69-24.7 00-.77-.28l-5.87 1.69a.66.65 70.1 01-.78-.37c-2.24-5.2-4.79-10.64-10.07-13.28a1.25 1.22 4.7 01-.61-.7c-.96-2.79 6.55-1.99 7.87-2.37q5.37-1.55 10.84-2.69c2.29-.48 4.82-.02 7.22-.42q16.08-2.69 34.99-6.57c4.36-.89 10.91-2.82 16.74-3.22q1-.07 2.35-1.39a.52.51-46.8 00-.02-.75q-.29-.26-.81-.1"/><path stroke="#696869" vector-effect="non-scaling-stroke" d="M316.08 201.73c-1.27-.21-5.71-.58-5.34 1.73a.57.56-12.1 00.71.45l4.68-1.32q1.91-.53-.05-.86"/><path stroke="#908f8f" vector-effect="non-scaling-stroke" d="M192.62 216.68c-19.83-18.84-18.7 6.99-18.32 18.29a.44.44 0 00.51.42c2.7-.41 7.06-1.59 9.51-.4a1.09 1.09 0 00.97-.02q7.12-3.69 14.68-6.35a.56.55-21.3 00.33-.74q-2.75-6.51-7.68-11.2"/><path stroke="#696869" vector-effect="non-scaling-stroke" d="M161.4 224.89l-1.68-5.28a.86.83-3.2 00-.67-.58q-.66-.11-1.3.26"/><path stroke="#5a5a5c" vector-effect="non-scaling-stroke" d="M157.75 219.29c-5.68.98-14.06 1.97-18.47 5.84a.64.63 33.8 00.22 1.08l30.31 10.2a.39.38-77.1 00.5-.32c.74-5.8.14-11.1.62-18.58a.49.48 2.3 00-.48-.51l-2.64-.01a.41.4 82.8 00-.39.51c1.05 3.93-.27 9.48-6.02 7.39"/><path stroke="#a3a3a5" vector-effect="non-scaling-stroke" d="M157.75 219.29q.8 3.55 3.65 5.6"/><path stroke="#8e8e80" vector-effect="non-scaling-stroke" d="M423.44 274.42l11.78 3.15a.87.87 0 001.09-.97c-2.68-18.59-5.14-36.46-7.71-54.27a.32.32 0 00-.63.01q-2.33 23.55-5.48 46.91-.31 2.31.28 4.5a.94.94 0 00.67.67M412.35 270.68c.25.89 2.84 1.53 3.63 1.24a.82.79 84.8 00.52-.65q2.88-22.44 4.67-45a.45.45 0 00-.66-.44q-8.41 4.46-17.24 8.02a.54.52-20.3 00-.31.65c3.84 11.96 6.15 24.99 9.39 36.18"/><path stroke="#696869" vector-effect="non-scaling-stroke" d="M197.79 242q12.33-2.26 24.67-4.5c4.29-.77 11.48-1.76 12.4-5.35a1.46 1.45 39.7 00-.09-.95q-1.01-2.09-3.62-2.8"/><path stroke="#5a5a5c" vector-effect="non-scaling-stroke" d="M231.15 228.4q-6.09-.17-12.33.13-4.7.22-9.51 1.55c-5.86 1.62-28.25 7.3-29.25 13.99a.92.91-89 001.01 1.05q8.81-1.04 16.72-3.12"/><path stroke="#a3a3a5" vector-effect="non-scaling-stroke" d="M231.15 228.4q-.14 2.39 1.31 4.02a.47.47 0 01-.02.65q-1.26 1.29-3.05 1.19a1.7 1.67-57.4 00-.87.2q-1.16.62-4.04 1.17-13.11 2.51-26.18 5.24a.75.74 89 00-.59.62q-.03.25.08.51"/><path stroke="#8e8e80" vector-effect="non-scaling-stroke" d="M355.65 256.21q25.02 6.82 49.41 13.2a.69.69 0 00.84-.84l-8.51-31.88a.55.54-17.4 00-.72-.37q-24.29 9.18-49.12 16.78a.33.33 0 00-.01.63q4.04 1.37 8.11 2.48"/><path stroke="#908f8f" vector-effect="non-scaling-stroke" d="M173.285 252.462a6.42 3.38 79 002.093-6.947 6.42 3.38 79 00-4.543-5.657 6.42 3.38 79 00-2.093 6.947 6.42 3.38 79 004.543 5.657"/><path stroke="#696869" vector-effect="non-scaling-stroke" d="M131.73 252.05c7.42.43 14.55-1.98 21.55-3.99 3.99-1.14 7.39-1.07 11.35-.79a.54.54 0 00.57-.61l-.27-1.92a.6.6 0 00-.68-.51q-2.83.4-9.5 2.03-12.05 2.94-23.07 5.24-2.04.43.05.55"/><path stroke="#908f8f" vector-effect="non-scaling-stroke" d="M191.52 256.08l11.03 3.69a.46.46 0 00.61-.45l-.22-6.58a.47.46-89.4 00-.44-.46q-5.95-.29-11.09 2.6a.66.66 0 00.11 1.2"/><path stroke="#5a5a5c" vector-effect="non-scaling-stroke" d="M275.46 267.75l-.96 1.96"/><path stroke="#696869" vector-effect="non-scaling-stroke" d="M274.5 269.71l-.09.5a.57.56 15 00.38.65l32.71 10.93"/><path stroke="#5a5a5c" vector-effect="non-scaling-stroke" d="M307.5 281.79l5.75 1.92"/><path stroke="#696869" vector-effect="non-scaling-stroke" d="M313.25 283.71q19.36 6.56 38.73 13.08c2.72.92 6.73 1.68 9.97 2.79 23.58 8.08 47.4 15.43 70.96 23.59 7.17 2.49 13.36 2.14 20.34.04"/><path stroke="#5a5a5c" vector-effect="non-scaling-stroke" d="M453.25 323.21c15.01-3.01 25.6-11.64 36.75-21.92"/><path stroke="#696869" vector-effect="non-scaling-stroke" d="M490 301.29l1.92-1.87q.4-.39-.14-.53l-35.53-9.1"/><path stroke="#5a5a5c" vector-effect="non-scaling-stroke" d="M456.25 289.79L445.79 287"/><path stroke="#696869" vector-effect="non-scaling-stroke" d="M445.79 287q-.81-.73-1.9-.62a.48.47-12.4 00-.4.62q1.29 3.98.92 8.16a1.2 1.2 0 01-.5.87q-1.81 1.31-4.1.91a.81.81 0 01-.66-.67l-1.85-10.89a1.43 1.43 0 00-1.04-1.15l-11.01-3.02"/><path stroke="#5a5a5c" vector-effect="non-scaling-stroke" d="M425.25 281.21q-1.62-1.16-3.45-.78a.72.72 0 00-.56.62l-.95 9.2"/><path stroke="#696869" vector-effect="non-scaling-stroke" d="M420.29 290.25l-1.2 10.89"/><path stroke="#5a5a5c" vector-effect="non-scaling-stroke" d="M419.09 301.14q-2.85.97-4.81-.35a1.44 1.41 10.6 01-.59-.84l-5.95-22.93a1.13 1.13 0 00-.8-.8L342.54 259"/><path stroke="#696869" vector-effect="non-scaling-stroke" d="M342.54 259c-17.45-5.77-55.2-10.2-67.08 8.75"/><path stroke="#a3a3a5" vector-effect="non-scaling-stroke" d="M342.54 259q.17.7-.28 1.1a.98.98 0 01-.89.21c-6.07-1.5-11.83-3.74-17.95-4.14-9.3-.6-20.08-1.28-28.88 1.4-6.54 1.98-13.23 4.86-17.28 10.58a1.04 1.03 17.1 01-.82.43q-.82.01-.98-.83M419.09 301.14q1.99.72 2.11-2.21.19-4.94.78-7.99a.56.55 13.5 00-.4-.64q-.66-.18-1.29-.05M425.25 281.21q-.89.53-.65 1.27a1.06 1.04-.4 00.69.67l5.18 1.58a1.41 1.38-47.4 00.93-.05q2.27-.93 3.93.87a1.05.99 27.5 01.27.78q-.62 6.8 3.13 12.53a.54.53-30 00.69.18c2.41-1.28 5.83-1.28 7.03-4.25a1.36 1.33 47.5 00.03-.94q-1.16-3.42-.69-6.85M456.25 289.79l-.25.76a.42.41 15.2 00.31.53q4.47.98 12.72 3.83 6.63 2.3 18.39 4.28a.9.89-5.3 01.67.55q.5 1.32 1.91 1.55M453.25 323.21c.13-3.19-7.88-.26-11.18.65-3.43.95-6.5-3.01-9.98-3.66q-4.24-.8-8.43-1.84c-5.23-1.3-11.1-4.08-16.92-5.59-7.31-1.9-13.49-4.42-20.24-6.77-1.78-.62-3.5-.1-5.33-1-2.98-1.46-5.9-2.93-9.13-3.88-7.56-2.23-15.87-3.94-23.03-7.19-3.86-1.76-7.62-1.95-11.1-3.41-7.66-3.2-15.8-5.5-23.74-7.94a.66.66 0 00-.76.3q-.22.38-.16.83M307.5 281.79q.45 0 .73-.43a.62.61-64.5 00-.32-.93l-33.41-10.72"/><path stroke="#8e8e80" vector-effect="non-scaling-stroke" d="M268.06 323.98l5.5 2.06a2.61 2.61 0 003.47-1.92c2.87-14.12 4.1-28.81 6.26-43.06a.81.81 0 00-.54-.89l-8.56-2.99a1.55 1.51-43.8 00-.95-.01q-3.14.98-6.26 1.98c-5.75 1.85-12.05 2.68-18.03 3.93a.8.8 0 00-.55 1.13c6.35 13.15 13.71 26.18 19.49 39.61a.29.28 87.2 00.17.16"/><path stroke="#5a5a5c" vector-effect="non-scaling-stroke" d="M415 277.71a.53.53 0 00-.9.43l.3 2.45q.11.85.62.17 1.28-1.72-.02-3.05"/><path stroke="#8e8e80" vector-effect="non-scaling-stroke" d="M215.64 290.59c4.19 1.66 4.74 3.33 7.83 6.08a.44.43-49.9 00.63-.06l9.6-12.12a.3.3 0 00-.24-.48q-8.72.2-17.35-1.23a.49.48-84.5 00-.57.48l-.05 7.11a.24.24 0 00.15.22M258.11 319.91q1.45.57.78-.83l-15.14-31.55q-.22-.45-.28-.95-.1-.73-.55-1.31a.63.63 0 00-.9-.1c-5.86 4.68-10.49 11.46-15.54 17.07a.91.9 58.6 00-.2.86l1.26 4.49a1.02 1-87.7 00.6.66l29.97 11.66"/><path stroke="#696869" vector-effect="non-scaling-stroke" d="M185.86 317.53c2.34-10.89 10.39-23.01 23.12-21.1a.43.43 0 00.48-.49l-.24-1.58a.71.7 86.5 00-.67-.6c-13.26-.49-23.18 10.93-22.81 23.75q.02.51.12.02M215.56 298.45l.03 4.85a.69.69 0 00.75.69c4.34-.33 2.59-4.5.49-6.16a.78.78 0 00-1.27.62"/><path stroke="#908f8f" vector-effect="non-scaling-stroke" d="M202 315.46q-2.17 1.09-2.22 3.4a.69.68-78.1 00.42.65q30.24 13.12 59.96 26.15c2.36 1.03 3.88.38 3.63-2.41"/><path stroke="#5a5a5c" vector-effect="non-scaling-stroke" d="M263.79 343.25l1.71-4.46"/><path stroke="#696869" vector-effect="non-scaling-stroke" d="M265.5 338.79c2.75-2.83-.39-7.68-2.25-10.08"/><path stroke="#5a5a5c" vector-effect="non-scaling-stroke" d="M263.25 328.71q-3.59-1.92-7.51-2.72"/><path stroke="#696869" vector-effect="non-scaling-stroke" d="M255.74 325.99L228.29 315"/><path stroke="#5a5a5c" vector-effect="non-scaling-stroke" d="M228.29 315l-7.93-3.49a.81.81 0 00-.89.16l-1.18 1.17a1.63 1.62 19.3 01-.9.43l-5.63.73a.95.93 64.4 01-.8-.29l-1.27-1.4a.89.87-24 00-.75-.28q-4.13.38-6.94 3.43"/><path stroke="#a3a3a5" vector-effect="non-scaling-stroke" d="M228.29 315q-.52.57-.44 1.21a.81.8-85.5 00.56.66q7.75 2.31 11.52 3.69c.88.32 1.68 1.35 2.6 1.71q6.43 2.52 13.21 3.72M263.25 328.71q-.02 3.64 1.69 6.9a.87.86-43.7 01-.02.85q-.87 1.51.58 2.33"/><path stroke="#cacacc" vector-effect="non-scaling-stroke" d="M263.79 343.25l-59.26-26c-.82-.36-1.81-1.21-2.53-1.79"/><path stroke="#696869" vector-effect="non-scaling-stroke" d="M267.3 362.74c1.13 7.23 6.89 12.9 14.31 13.03 6.27.11 12.63-4.4 16.71-9.14a.29.28 31.4 00-.11-.45q-.18-.07-.39.14c-6.1 6.02-16.14 12.81-23.76 4.33-9.14-10.17-3.04-27.99 5.06-36.89 3.51-3.86 8.27-5.1 13.22-5.85 2.2-.33 4.29.61 6.57.61a.58.58 0 00.28-1.08c-3.95-2.22-7.4-2.68-11.9-1.45-15.69 4.29-22.34 21.71-19.99 36.75"/><path stroke="#908f8f" vector-effect="non-scaling-stroke" d="M281.18 348.16q-1.38 3.33-.89 6.84"/><path stroke="#696869" vector-effect="non-scaling-stroke" d="M280.29 355q.22 2.67 2.09 4.43a1.28 1.25-23.8 00.88.33q2.42-.07 2.7-2.51"/><path stroke="#908f8f" vector-effect="non-scaling-stroke" d="M285.96 357.25q-.59-4.01 1.54-7.21"/><path stroke="#696869" vector-effect="non-scaling-stroke" d="M287.5 350.04q2.65-2.68.62-5.44a.79.78-24.2 00-.8-.3q-3.77.8-6.14 3.86"/><path stroke="#d9d8d9" vector-effect="non-scaling-stroke" d="M287.5 350.04q-2.74-1.81-6.32-1.88M285.96 357.25q-.88-.71-1.13-1.82a.93.92-87 00-.57-.64q-1.97-.75-3.97.21"/><path stroke="#696869" vector-effect="non-scaling-stroke" d="M320.71 404.61l.75-.75a.64.63 46.3 00.01-.89c-5.63-6.1-8.37-11.23-2.97-19.2q.87-1.29-.12-2.43a.5.5 0 00-.72-.05q-2.57 2.29-3.45 5.96-2.57 10.77 5.53 17.4a.73.72 42.2 00.97-.04M332.67 402.39q1.97.62 3.13-1.4c3.25-5.65 3.56-14.57-1.62-19.39a.78.78 0 00-1.05-.01l-.85.75a.76.76 0 00-.11 1c4.07 5.78 4.58 11.14-.16 16.77a1.43 1.43 0 00.66 2.28"/><path stroke="#908f8f" vector-effect="non-scaling-stroke" d="M320.14 390.33c-2.3 11.08 11.79 10.29 9.25-.16a.52.52 0 00-.92-.18c-2.81 3.81-4.72 1.38-7.76.04a.41.41 0 00-.57.3"/><path stroke="#696869" vector-effect="non-scaling-stroke" d="M314.31 431.42c.34 8.15 12.99 6.54 17.68 4.69 3-1.19 3.85-.88 3.43-4.35a1.12 1.12 0 00-1.81-.74q-9.3 7.4-18.18-.15a.68.68 0 00-1.12.55"/><path stroke="#8e8e80" vector-effect="non-scaling-stroke" d="M275.88 432.52c.23.39 3.82 1.14 4.66 1.51a.37.36-79.3 00.51-.35c-.04-1.34-3.98-1.59-4.91-1.61q-.54-.01-.26.45"/><path stroke="#696869" vector-effect="non-scaling-stroke" d="M367.72 434.4l4.19.48a.78.78 0 00.85-.61l.25-1.17a.57.57 0 00-.67-.67l-4.66.94a.52.52 0 00.04 1.03M308.62 433.769a.4.4 0 00-.401-.4l-23 .081a.4.4 0 00-.399.401v.04a.4.4 0 00.401.4l23-.081a.4.4 0 00.399-.401v-.04"/><path stroke="#5a5a5c" vector-effect="non-scaling-stroke" d="M356.64 433.846a.56.56 0 00-.561-.559l-14.72.026a.56.56 0 00-.56.56l.001.3a.56.56 0 00.561.56l14.72-.026a.56.56 0 00.56-.56l-.001-.3"/><path stroke="#696869" vector-effect="non-scaling-stroke" d="M358.1 433.65a.29.28 75.1 00-.24.42l.42.75a.74.72-18.3 00.74.36l5.3-.73a.4.38 9.1 00.28-.19l.18-.3q.29-.5-.29-.48l-6.39.17M280.37 497.72c-.7 1.46 2.83 6.51 3.98 7.95q9.09 11.4 23.1 14.3c3.69.76 8.4 1.63 8.66-2.9q.23-4.14.38-8.4a.5.49-26.4 00-.9-.3c-8.26 11.5-22.97 1.35-30.62-5.6-2.27-2.06-.77-3.81-.1-6.04a.79.78-62 00-.25-.83q-12.01-10.21-27.64-12.95a.38.38 0 00-.44.45q.2 1.04 1.25 1.35c6.51 1.94 19.11 6.93 22.56 12.49a.52.49 43.8 01.02.48"/><path stroke="#5a5a5c" vector-effect="non-scaling-stroke" d="M364.29 499.25l.67.75"/><path stroke="#696869" vector-effect="non-scaling-stroke" d="M364.96 500q-.21 1.96-1.64 3.31c-7.17 6.79-22.8 16.23-30.8 5.11a.47.46-65.2 00-.84.31c.63 8.1-1.87 14.02 10 11.18 12.35-2.94 23.25-10.1 25.85-23.25a.99.99 0 01.55-.7c6.61-3.01 12.89-8.19 19.96-9.67 1.05-.22 4.51-1.09 3.93-2.75a.57.57 0 00-.7-.36c-12.36 3.65-19.32 6.08-28.12 14.03a.51.51 0 00-.04.72l1.18 1.32"/><path stroke="#a3a3a5" vector-effect="non-scaling-stroke" d="M364.96 500q.86-1.01 1.01-2.25.07-.62-.32-.14l-1.36 1.64"/><path stroke="#d9d8d9" vector-effect="non-scaling-stroke" d="M589.94 591l-.19-.71"/><path stroke="#696869" vector-effect="non-scaling-stroke" d="M.25 590.04c-.14.46-.01.72.5.7q6.23-.17 12.44.26"/></g><path d="M0 0h590.06l.19.29.04 589.46-.54.54q-292.91-.05-585.81-.18-1.85 0-3.69-.07l-.25-.1V0zm586.25 4.51a.26.26 0 00-.26-.26H4.51a.26.26 0 00-.26.26v581.48a.26.26 0 00.26.26h581.48a.26.26 0 00.26-.26V4.51z"/><path fill="#201f1f" d="M590.06 0h.94v586.81c-.84-.45-.25-536.6-.25-586.31a.25.24-86.1 00-.21-.25q-.17-.02-.29.04l-.19-.29z"/><path fill="#b2b1b2" d="M590.25.29q.12-.06.29-.04a.25.24-86.1 01.21.25c0 49.71-.59 585.86.25 586.31v3.25l-.71-.31L590.25.29z"/><path fill="#fcfde0" d="M586.25 585.99a.26.26 0 01-.26.26H4.51a.26.26 0 01-.26-.26V4.51a.26.26 0 01.26-.26h581.48a.26.26 0 01.26.26v581.48zM91.46 38.67c-10.42.28-19.62-.04-30.19.32-13.03.44-19.86 7.86-20.13 20.25q-.47 21.33-.21 42.24a1.13 1.13 0 001.9.82c21.47-19.87 41.68-41.16 62.79-61.45a1.12 1.12 0 00-.71-1.93q-6.75-.44-13.45-.25zm386.47 140.97l7.11-13.37a.66.66 0 01.66-.35l23.92 2.53a.87.87 0 01.74.61c.82 2.63 1.66 4.3 4.49 5.24 9.32 3.09 20.79 1.7 30.82-.67q3.98-.93 4.34-5.36a1.55 1.53-59.1 00-.23-.94c-5.26-8.4-49.98-12.21-60.38-13.06a1.09 1.09 0 01-.99-1.23c1.27-9.65 2.91-34.47-9.48-37.5-9.89-2.43-18.33 7.95-19.62 16.79q-1.03 7.03-.86 17.4a.4.4 0 01-.48.4c-7.32-1.49-61.19-14.31-59.11 1.77q.27 2.09 2.38 3.47 8.38 5.48 17.62.09a1.28 1.26 35 01.88-.15l24.81 4.88a.4.4 0 01-.01.78c-7.8 1.27-15.48 2.56-23.45 3.28q-15.04 1.35-30.08 2.65c-6.54.56-11.56-.16-18.01-1.15q-41.65-6.36-56.41-8.96c-30.58-5.39-60.73-11.99-90.77-19.85q-35.05-9.17-70.36-17.34-5.88-1.36-11.58-1.6c-17.43-.71-36.43-1.16-53.63 1.96q-7.43 1.34-12.1 6.9c-2.24 2.68-2.02 5.73 1.39 7.15q24.61 10.17 52.93 18.61a1.11 1.1-4.2 01.69.59q2.95 6.28 5.44 12.75c5.98 15.61 12.54 30.96 18.49 46.6a.43.42 73.7 01-.31.57c-11.38 2.34-20.62 3.24-25.84 13.18a1.26 1.22-39.7 00-.1.93q.8 2.81 3.44 3.69 13.02 4.33 26.06 8.84.47.16 0 .33-6.15 2.16-12.5 3.6c-10.22 2.31-17.16 4.06-25.84 6.22a1.08 1.08 0 00-.59 1.72c7.77 9.7 34.04 4.83 44.67.45a.74.73 53.6 01.77.12l4.51 3.82a1 .99 17.3 01.35.66l.5 5.43q.05.5.31.92c7.09 11.48 24.05 16.42 36.39 19.03a.75.75 0 01.59.73v5.58a.52.52 0 01-.52.52q-14.59-.2-22.54 10.55c-9.24 12.48-12.1 36.02 4.77 44.2 11.64 5.64 21.1-.51 29.67-7.94a.93.92-53.6 01.97-.15l38.41 16.77a1.21 1.18-86.9 01.67.76q.59 1.91.5 2.63c-2.29 18.39 14.15 33.08 31.74 23.13 10.8-6.11 19.65-24.56 18.62-36.72-1.12-13.37-11.81-26.33-26.45-20.92a1.24 1.24 0 01-1.65-1.36l5.82-36.21a1.01 1-76 011.32-.8l26.19 8.84a1.42 1.4-81.8 01.96 1.3c.19 7.21-.35 14.74-.08 21.69.73 18.28 1.54 41.33.81 60.35a.91.9-13.9 01-.46.75q-14.05 8.19-8.77 23.72c1.61 4.73 5.61 5.6 6.11 11.46q.54 6.4.01 12.8a1.01 1-14 01-.47.77q-4.68 2.98-7.12 2.98-11.22.03-22.45-.05c-5.7-.04-11.64-4.75-15.02 2.8-3.66 8.16 4.54 13.78 12.03 10.61a1.73 1.68 37.4 01.94-.11q2.23.38 4.45.25c6.84-.4 13.68-.24 20.54-.25a1.39 1.36-25.5 01.9.31l5.48 4.34a.99.99 0 01.37.75c.16 9.55-.75 21.84-.98 28.51-.2 6.16.72 28-4.37 31.29-6.11 3.95-14-1.77-18.73-5.93a.8.78 28.8 01-.24-.8c.93-3.29.06-5.47-2.55-7.78q-13.03-11.53-29.64-14.67c-5.51-1.04-10.73 2.38-7.76 8.51 15.74 32.47 40.98 54.18 72.35 70.87a1.13 1.13 0 001.04 0c18.23-9.57 36.03-21.64 50.29-36.64 9.68-10.17 17.27-22.04 23.66-34.63 2.67-5.25-3.61-8.5-8.02-7.62-12.58 2.53-25.79 7.96-32.86 18.76a1.44 1.41 59.6 00-.23.93l.27 2.7a.88.84-22.5 01-.34.77c-7.83 5.91-20.81 13.86-21.53-3.66-.7-16.92-1.78-33.83-1.58-50.77a.84.83-12 01.5-.76q3.17-1.41 5.35-4.09a.91.9-68.7 01.74-.33q11.63.58 23.32.46 1.57-.02 3.88.76c7.38 2.5 15.05-5.64 10.32-12.45-4.44-6.41-10.16-1.36-15.71-1.54q-9.99-.34-20-.53c-3.27-.06-5.27-1.61-8.1-2.96a.92.92 0 01-.53-.8q-.4-7.67.65-15.28a1.52 1.5-18.8 01.43-.86q9.21-9.2 5.89-21.94-1.95-7.46-9.88-9.38a.67.66 7.4 01-.5-.64l.81-78.39a.52.51 6.9 01.63-.49q6.08 1.37 12.01 3.35 45.75 15.23 91.52 30.42 3.07 1.02 7.46.57c14.6-1.49 28.42-5.83 39.49-15.3q8.43-7.22 16.96-14.29c2.44-2.02 2.63-5.95-.71-6.83q-27.72-7.35-55.43-14.98a.88.87-86.5 01-.64-.73l-8.56-60.2a.85.84-22.2 01.34-.8c2.09-1.5 8.34-6.58 10.73-6.23 5.79.84 15.54 2.84 21.02.92 17.88-6.28 34.24-11.41 52.96-13.15 8.31-.78 17.76-.51 19.23-9.05a1.33 1.31-59.9 00-.27-1.05q-2.16-2.69-5.8-2.09-.51.08-1-.09c-2.73-.96-5.76-.97-8.03-1.27q-22.5-2.97-44.99-5.96a.25.25 0 01-.19-.37zm30.904-40.423a1.16.59 27 00-.766-1.053 1.16.59 27 00-1.302 0 1.16.59 27 00.766 1.052 1.16.59 27 001.302 0z"/><path fill="#f9e4ab" d="M91.46 38.67q6.7-.19 13.45.25a1.12 1.12 0 01.71 1.93C84.51 61.14 64.3 82.43 42.83 102.3a1.13 1.13 0 01-1.9-.82q-.26-20.91.21-42.24c.27-12.39 7.1-19.81 20.13-20.25 10.57-.36 19.77-.04 30.19-.32z"/><path fill="#201f1f" d="M478.12 180.01q22.49 2.99 44.99 5.96c2.27.3 5.3.31 8.03 1.27q.49.17 1 .09 3.64-.6 5.8 2.09a1.33 1.31-59.9 01.27 1.05c-1.47 8.54-10.92 8.27-19.23 9.05-18.72 1.74-35.08 6.87-52.96 13.15-5.48 1.92-15.23-.08-21.02-.92-2.39-.35-8.64 4.73-10.73 6.23a.85.84-22.2 00-.34.8l8.56 60.2a.88.87-86.5 00.64.73q27.71 7.63 55.43 14.98c3.34.88 3.15 4.81.71 6.83q-8.53 7.07-16.96 14.29c-11.07 9.47-24.89 13.81-39.49 15.3q-4.39.45-7.46-.57-45.77-15.19-91.52-30.42-5.93-1.98-12.01-3.35a.52.51 6.9 00-.63.49l-.81 78.39a.67.66 7.4 00.5.64q7.93 1.92 9.88 9.38 3.32 12.74-5.89 21.94a1.52 1.5-18.8 00-.43.86q-1.05 7.61-.65 15.28a.92.92 0 00.53.8c2.83 1.35 4.83 2.9 8.1 2.96q10.01.19 20 .53c5.55.18 11.27-4.87 15.71 1.54 4.73 6.81-2.94 14.95-10.32 12.45q-2.31-.78-3.88-.76-11.69.12-23.32-.46a.91.9-68.7 00-.74.33q-2.18 2.68-5.35 4.09a.84.83-12 00-.5.76c-.2 16.94.88 33.85 1.58 50.77.72 17.52 13.7 9.57 21.53 3.66a.88.84-22.5 00.34-.77l-.27-2.7a1.44 1.41 59.6 01.23-.93c7.07-10.8 20.28-16.23 32.86-18.76 4.41-.88 10.69 2.37 8.02 7.62-6.39 12.59-13.98 24.46-23.66 34.63-14.26 15-32.06 27.07-50.29 36.64a1.13 1.13 0 01-1.04 0c-31.37-16.69-56.61-38.4-72.35-70.87-2.97-6.13 2.25-9.55 7.76-8.51q16.61 3.14 29.64 14.67c2.61 2.31 3.48 4.49 2.55 7.78a.8.78 28.8 00.24.8c4.73 4.16 12.62 9.88 18.73 5.93 5.09-3.29 4.17-25.13 4.37-31.29.23-6.67 1.14-18.96.98-28.51a.99.99 0 00-.37-.75l-5.48-4.34a1.39 1.36-25.5 00-.9-.31c-6.86.01-13.7-.15-20.54.25q-2.22.13-4.45-.25a1.73 1.68 37.4 00-.94.11c-7.49 3.17-15.69-2.45-12.03-10.61 3.38-7.55 9.32-2.84 15.02-2.8q11.23.08 22.45.05 2.44 0 7.12-2.98a1.01 1-14 00.47-.77q.53-6.4-.01-12.8c-.5-5.86-4.5-6.73-6.11-11.46q-5.28-15.53 8.77-23.72a.91.9-13.9 00.46-.75c.73-19.02-.08-42.07-.81-60.35-.27-6.95.27-14.48.08-21.69a1.42 1.4-81.8 00-.96-1.3l-26.19-8.84a1.01 1-76 00-1.32.8l-5.82 36.21a1.24 1.24 0 001.65 1.36c14.64-5.41 25.33 7.55 26.45 20.92 1.03 12.16-7.82 30.61-18.62 36.72-17.59 9.95-34.03-4.74-31.74-23.13q.09-.72-.5-2.63a1.21 1.18-86.9 00-.67-.76l-38.41-16.77a.93.92-53.6 00-.97.15c-8.57 7.43-18.03 13.58-29.67 7.94-16.87-8.18-14.01-31.72-4.77-44.2q7.95-10.75 22.54-10.55a.52.52 0 00.52-.52v-5.58a.75.75 0 00-.59-.73c-12.34-2.61-29.3-7.55-36.39-19.03q-.26-.42-.31-.92l-.5-5.43a1 .99 17.3 00-.35-.66l-4.51-3.82a.74.73 53.6 00-.77-.12c-10.63 4.38-36.9 9.25-44.67-.45a1.08 1.08 0 01.59-1.72c8.68-2.16 15.62-3.91 25.84-6.22q6.35-1.44 12.5-3.6.47-.17 0-.33-13.04-4.51-26.06-8.84-2.64-.88-3.44-3.69a1.26 1.22-39.7 01.1-.93c5.22-9.94 14.46-10.84 25.84-13.18a.43.42 73.7 00.31-.57c-5.95-15.64-12.51-30.99-18.49-46.6q-2.49-6.47-5.44-12.75a1.11 1.1-4.2 00-.69-.59q-28.32-8.44-52.93-18.61c-3.41-1.42-3.63-4.47-1.39-7.15q4.67-5.56 12.1-6.9c17.2-3.12 36.2-2.67 53.63-1.96q5.7.24 11.58 1.6 35.31 8.17 70.36 17.34c30.04 7.86 60.19 14.46 90.77 19.85q14.76 2.6 56.41 8.96c6.45.99 11.47 1.71 18.01 1.15q15.04-1.3 30.08-2.65c7.97-.72 15.65-2.01 23.45-3.28a.4.4 0 00.01-.78l-24.81-4.88a1.28 1.26 35 00-.88.15q-9.24 5.39-17.62-.09-2.11-1.38-2.38-3.47c-2.08-16.08 51.79-3.26 59.11-1.77a.4.4 0 00.48-.4q-.17-10.37.86-17.4c1.29-8.84 9.73-19.22 19.62-16.79 12.39 3.03 10.75 27.85 9.48 37.5a1.09 1.09 0 00.99 1.23c10.4.85 55.12 4.66 60.38 13.06a1.55 1.53-59.1 01.23.94q-.36 4.43-4.34 5.36c-10.03 2.37-21.5 3.76-30.82.67-2.83-.94-3.67-2.61-4.49-5.24a.87.87 0 00-.74-.61l-23.92-2.53a.66.66 0 00-.66.35l-7.11 13.37a.25.25 0 00.19.37zm-11.83-23.76l13.66-1.62a2.33 2.31 4.1 001.96-1.68q3.22-11.63-.12-24.2c-.64-4.2-2.84-8.46-7.93-6.59-7.33 2.69-7.83 6.69-8.6 14.35q-.96 9.7-.16 19.47a.6.59 5.5 00.44.53q.49.14.75-.26zM90.75 126.46q-3.5.17-6.41 2.32-.42.31.06.51 12.36 5.23 25.08 9.53c85.98 29.11 176.16 44.96 265.77 57.94q19.43 2.81 66.75 8.51c8.15.98 17.62 3.24 22.97 1.22q5.15-1.94 10.24-3.16 17.71-6.87 36.25-8.97c1.41-.16 2.72-.62 4.04-1.07l8.26-.49q.76-.04.01-.16l-10.27-1.68c-2.74-.44-5.68-.44-8.23-.86q-17.32-2.86-34.77-4.81l-16-1.83q-18.04-3.19-36.25-5.17l-28.56-3.43-11.44-2.07-19.25-2.83-26.75-4.17q-27.66-4.25-55-10.25l-36-8.25c-25.47-6.14-50.38-14.18-76.25-19.08q-10.17-3.08-20.75-3.92-24.24-.7-48.44.87c-1.8.12-3.29.85-5.06 1.3zm324.313 23.99a4.1.63-7.7 00-4.147-.074 4.1.63-7.7 00-3.979 1.173 4.1.63-7.7 004.147.075 4.1.63-7.7 003.979-1.173zM164.81 162.44q-11.74-3.86-22.58-6.71-1.81-.47-1.08 1.25 10.82 25.53 20.57 51.52a.24.24 0 00.46-.06q1.01-11.14 1.43-22.29c.26-7.06 1.49-15.62 1.45-23.53a.17.16-85.3 00-.12-.15q-.07-.01-.13-.03zm289.94 2.85q-8.1 1.25-16.16 2.79c-7.92 1.51-16.38 2-24.6 3.37q-.5.08 0 .15c3.53.45 6.99.54 10.46 1.22q11.03 2.14 22.29 2.47 7.28-1.93 14.03-5.05 4.13-.83 7.38-3.37l3.91-1.85q.54-.25-.04-.38-8.73-2-17.27.65zm64.99 1.79l-.76 1.98a.61.61 0 00.59.82l19.72-.66a.79.79 0 00.12-1.56l-19.48-3.57a.6.6 0 00-.67.78l.49 1.47a1.09 1.07-44.6 01-.01.74zm-348-2.24q-1.76 20.12-3.22 39.66-.17 2.24.07 5.87a.58.56 90 00.53.54c6.24.39 6.67-5.83 12.16-7.18a1.6 1.6 0 001.15-2.02q-5.59-18.3-10.11-36.92a.3.29-49.6 00-.58.05zm30.5 7.01a.34.34 0 00-.25-.31l-22.87-5.7a.34.34 0 00-.41.42l9.7 35.97a.34.34 0 00.38.25l14.67-2.46a.34.34 0 00.28-.35l-1.5-27.82zm7.48 26.59a.48.48 0 00.55.45l15.41-2.22a.48.48 0 00.31-.76l-16.75-22.36a.48.48 0 00-.86.31l1.34 24.58zm33.22-17.62a.41.41 0 00-.32-.34l-23.37-5a.41.41 0 00-.41.64L232.66 195a.41.41 0 00.4.16l11.4-2.13a.41.41 0 00.33-.46l-1.85-11.75zm14.15 2.45c-2.16-.36-5.26-1.43-8.07-1.48a.38.38 0 00-.38.45l1.42 8.58a.67.67 0 00.79.55l23.63-4.53q.86-.16.01-.34-8.69-1.77-17.4-3.23zm20.66 9.02l-4.25.92q-39.76 8.83-58.06 11.23-12.75 1.67-25.56 4.15a.36.36 0 00-.12.65q9.69 6.26 14.22 16.97a.61.59-17.3 00.69.35l7.83-1.85c7.61-1.04 15.66-.12 22.99-1.83q17.58-4.11 35.05-8.63l17.71-4.04c4.72-1.01 13.48-2.53 16.2-6.86a.43.43 0 00-.4-.66l-8.72.6c-3.84-.35-12.92-.19-15.44-3.19-2.11-2.51-.91-4.94-.03-7.59a.34.34 0 00-.37-.45l-1.74.23zm38.33 9.44c-1.27-.21-5.71-.58-5.34 1.73a.57.56-12.1 00.71.45l4.68-1.32q1.91-.53-.05-.86zm-123.46 14.95c-19.83-18.84-18.7 6.99-18.32 18.29a.44.44 0 00.51.42c2.7-.41 7.06-1.59 9.51-.4a1.09 1.09 0 00.97-.02q7.12-3.69 14.68-6.35a.56.55-21.3 00.33-.74q-2.75-6.51-7.68-11.2zm-31.22 8.21l-1.68-5.28a.86.83-3.2 00-.67-.58q-.66-.11-1.3.26c-5.68.98-14.06 1.97-18.47 5.84a.64.63 33.8 00.22 1.08l30.31 10.2a.39.38-77.1 00.5-.32c.74-5.8.14-11.1.62-18.58a.49.48 2.3 00-.48-.51l-2.64-.01a.41.4 82.8 00-.39.51c1.05 3.93-.27 9.48-6.02 7.39zm262.04 49.53l11.78 3.15a.87.87 0 001.09-.97c-2.68-18.59-5.14-36.46-7.71-54.27a.32.32 0 00-.63.01q-2.33 23.55-5.48 46.91-.31 2.31.28 4.5a.94.94 0 00.67.67zm-11.09-3.74c.25.89 2.84 1.53 3.63 1.24a.82.79 84.8 00.52-.65q2.88-22.44 4.67-45a.45.45 0 00-.66-.44q-8.41 4.46-17.24 8.02a.54.52-20.3 00-.31.65c3.84 11.96 6.15 24.99 9.39 36.18zM197.79 242q12.33-2.26 24.67-4.5c4.29-.77 11.48-1.76 12.4-5.35a1.46 1.45 39.7 00-.09-.95q-1.01-2.09-3.62-2.8-6.09-.17-12.33.13-4.7.22-9.51 1.55c-5.86 1.62-28.25 7.3-29.25 13.99a.92.91-89 001.01 1.05q8.81-1.04 16.72-3.12zm157.86 14.21q25.02 6.82 49.41 13.2a.69.69 0 00.84-.84l-8.51-31.88a.55.54-17.4 00-.72-.37q-24.29 9.18-49.12 16.78a.33.33 0 00-.01.63q4.04 1.37 8.11 2.48zm-182.365-3.748a6.42 3.38 79 002.093-6.947 6.42 3.38 79 00-4.543-5.657 6.42 3.38 79 00-2.093 6.947 6.42 3.38 79 004.543 5.657zm-41.555-.412c7.42.43 14.55-1.98 21.55-3.99 3.99-1.14 7.39-1.07 11.35-.79a.54.54 0 00.57-.61l-.27-1.92a.6.6 0 00-.68-.51q-2.83.4-9.5 2.03-12.05 2.94-23.07 5.24-2.04.43.05.55zm59.79 4.03l11.03 3.69a.46.46 0 00.61-.45l-.22-6.58a.47.46-89.4 00-.44-.46q-5.95-.29-11.09 2.6a.66.66 0 00.11 1.2zm83.94 11.67l-.96 1.96-.09.5a.57.56 15 00.38.65l32.71 10.93 5.75 1.92q19.36 6.56 38.73 13.08c2.72.92 6.73 1.68 9.97 2.79 23.58 8.08 47.4 15.43 70.96 23.59 7.17 2.49 13.36 2.14 20.34.04 15.01-3.01 25.6-11.64 36.75-21.92l1.92-1.87q.4-.39-.14-.53l-35.53-9.1-10.46-2.79q-.81-.73-1.9-.62a.48.47-12.4 00-.4.62q1.29 3.98.92 8.16a1.2 1.2 0 01-.5.87q-1.81 1.31-4.1.91a.81.81 0 01-.66-.67l-1.85-10.89a1.43 1.43 0 00-1.04-1.15l-11.01-3.02q-1.62-1.16-3.45-.78a.72.72 0 00-.56.62l-.95 9.2-1.2 10.89q-2.85.97-4.81-.35a1.44 1.41 10.6 01-.59-.84l-5.95-22.93a1.13 1.13 0 00-.8-.8L342.54 259c-17.45-5.77-55.2-10.2-67.08 8.75zm-7.4 56.23l5.5 2.06a2.61 2.61 0 003.47-1.92c2.87-14.12 4.1-28.81 6.26-43.06a.81.81 0 00-.54-.89l-8.56-2.99a1.55 1.51-43.8 00-.95-.01q-3.14.98-6.26 1.98c-5.75 1.85-12.05 2.68-18.03 3.93a.8.8 0 00-.55 1.13c6.35 13.15 13.71 26.18 19.49 39.61a.29.28 87.2 00.17.16zM415 277.71a.53.53 0 00-.9.43l.3 2.45q.11.85.62.17 1.28-1.72-.02-3.05zm-199.36 12.88c4.19 1.66 4.74 3.33 7.83 6.08a.44.43-49.9 00.63-.06l9.6-12.12a.3.3 0 00-.24-.48q-8.72.2-17.35-1.23a.49.48-84.5 00-.57.48l-.05 7.11a.24.24 0 00.15.22zm42.47 29.32q1.45.57.78-.83l-15.14-31.55q-.22-.45-.28-.95-.1-.73-.55-1.31a.63.63 0 00-.9-.1c-5.86 4.68-10.49 11.46-15.54 17.07a.91.9 58.6 00-.2.86l1.26 4.49a1.02 1-87.7 00.6.66l29.97 11.66zm-72.25-2.38c2.34-10.89 10.39-23.01 23.12-21.1a.43.43 0 00.48-.49l-.24-1.58a.71.7 86.5 00-.67-.6c-13.26-.49-23.18 10.93-22.81 23.75q.02.51.12.02zm29.7-19.08l.03 4.85a.69.69 0 00.75.69c4.34-.33 2.59-4.5.49-6.16a.78.78 0 00-1.27.62zM202 315.46q-2.17 1.09-2.22 3.4a.69.68-78.1 00.42.65q30.24 13.12 59.96 26.15c2.36 1.03 3.88.38 3.63-2.41l1.71-4.46c2.75-2.83-.39-7.68-2.25-10.08q-3.59-1.92-7.51-2.72L228.29 315l-7.93-3.49a.81.81 0 00-.89.16l-1.18 1.17a1.63 1.62 19.3 01-.9.43l-5.63.73a.95.93 64.4 01-.8-.29l-1.27-1.4a.89.87-24 00-.75-.28q-4.13.38-6.94 3.43zm65.3 47.28c1.13 7.23 6.89 12.9 14.31 13.03 6.27.11 12.63-4.4 16.71-9.14a.29.28 31.4 00-.11-.45q-.18-.07-.39.14c-6.1 6.02-16.14 12.81-23.76 4.33-9.14-10.17-3.04-27.99 5.06-36.89 3.51-3.86 8.27-5.1 13.22-5.85 2.2-.33 4.29.61 6.57.61a.58.58 0 00.28-1.08c-3.95-2.22-7.4-2.68-11.9-1.45-15.69 4.29-22.34 21.71-19.99 36.75zm13.88-14.58q-1.38 3.33-.89 6.84.22 2.67 2.09 4.43a1.28 1.25-23.8 00.88.33q2.42-.07 2.7-2.51-.59-4.01 1.54-7.21 2.65-2.68.62-5.44a.79.78-24.2 00-.8-.3q-3.77.8-6.14 3.86zm39.53 56.45l.75-.75a.64.63 46.3 00.01-.89c-5.63-6.1-8.37-11.23-2.97-19.2q.87-1.29-.12-2.43a.5.5 0 00-.72-.05q-2.57 2.29-3.45 5.96-2.57 10.77 5.53 17.4a.73.72 42.2 00.97-.04zm11.96-2.22q1.97.62 3.13-1.4c3.25-5.65 3.56-14.57-1.62-19.39a.78.78 0 00-1.05-.01l-.85.75a.76.76 0 00-.11 1c4.07 5.78 4.58 11.14-.16 16.77a1.43 1.43 0 00.66 2.28zm-12.53-12.06c-2.3 11.08 11.79 10.29 9.25-.16a.52.52 0 00-.92-.18c-2.81 3.81-4.72 1.38-7.76.04a.41.41 0 00-.57.3zm-5.83 41.09c.34 8.15 12.99 6.54 17.68 4.69 3-1.19 3.85-.88 3.43-4.35a1.12 1.12 0 00-1.81-.74q-9.3 7.4-18.18-.15a.68.68 0 00-1.12.55zm-38.43 1.1c.23.39 3.82 1.14 4.66 1.51a.37.36-79.3 00.51-.35c-.04-1.34-3.98-1.59-4.91-1.61q-.54-.01-.26.45zm91.84 1.88l4.19.48a.78.78 0 00.85-.61l.25-1.17a.57.57 0 00-.67-.67l-4.66.94a.52.52 0 00.04 1.03zm-59.1-.631a.4.4 0 00-.401-.4l-23 .081a.4.4 0 00-.399.401v.04a.4.4 0 00.401.4l23-.081a.4.4 0 00.399-.401v-.04zm48.02.077a.56.56 0 00-.561-.559l-14.72.026a.56.56 0 00-.56.56l.001.3a.56.56 0 00.561.56l14.72-.026a.56.56 0 00.56-.56l-.001-.3zm1.46-.196a.29.28 75.1 00-.24.42l.42.75a.74.72-18.3 00.74.36l5.3-.73a.4.38 9.1 00.28-.19l.18-.3q.29-.5-.29-.48l-6.39.17zm-77.73 64.07c-.7 1.46 2.83 6.51 3.98 7.95q9.09 11.4 23.1 14.3c3.69.76 8.4 1.63 8.66-2.9q.23-4.14.38-8.4a.5.49-26.4 00-.9-.3c-8.26 11.5-22.97 1.35-30.62-5.6-2.27-2.06-.77-3.81-.1-6.04a.79.78-62 00-.25-.83q-12.01-10.21-27.64-12.95a.38.38 0 00-.44.45q.2 1.04 1.25 1.35c6.51 1.94 19.11 6.93 22.56 12.49a.52.49 43.8 01.02.48zm83.92 1.53l.67.75q-.21 1.96-1.64 3.31c-7.17 6.79-22.8 16.23-30.8 5.11a.47.46-65.2 00-.84.31c.63 8.1-1.87 14.02 10 11.18 12.35-2.94 23.25-10.1 25.85-23.25a.99.99 0 01.55-.7c6.61-3.01 12.89-8.19 19.96-9.67 1.05-.22 4.51-1.09 3.93-2.75a.57.57 0 00-.7-.36c-12.36 3.65-19.32 6.08-28.12 14.03a.51.51 0 00-.04.72l1.18 1.32z"/><path fill="#b2b1b2" d="M481.79 128.75q.14.67-.07.97-.3.43-.51-.05c-2.85-6.58-4.3-10.14-11.27-3.65-5.11 4.75-4.01 18.57-4.31 24.79-.09 1.88.31 3.62.66 5.44q-.26.4-.75.26a.6.59 5.5 01-.44-.53q-.8-9.77.16-19.47c.77-7.66 1.27-11.66 8.6-14.35 5.09-1.87 7.29 2.39 7.93 6.59z"/><path fill="#949598" d="M481.79 128.75q3.34 12.57.12 24.2a2.33 2.31 4.1 01-1.96 1.68l-13.66 1.62c-.35-1.82-.75-3.56-.66-5.44.3-6.22-.8-20.04 4.31-24.79 6.97-6.49 8.42-2.93 11.27 3.65q.21.48.51.05.21-.3.07-.97z"/><path fill="#b2b1b2" d="M144.25 124.29q-.27.25-.23.51a.25.25 0 01-.25.29q-20.85-.38-27.71.24-5.16.46-8.3.19a1.51 1.49-59.4 00-.99.26q-1.14.76-2.37-.02a1.28 1.22-30.1 00-.75-.18l-9.22.76a.49.48 87.5 00-.44.49l.01.38-3.25-.75c1.77-.45 3.26-1.18 5.06-1.3q24.2-1.57 48.44-.87z"/><path fill="#949598" d="M144.25 124.29q10.58.84 20.75 3.92l-.23.36a.38.38 0 00.23.57q5.42 1.31 10.88 2.39 5.09 1.01 10.52 2.74c7.51 2.39 15.15 3.64 21.96 5.59 2.22.64 5.34 1.13 7.85 2.14 4.55 1.85 9.84 2.64 14 3.81q3.26.92 8.8 2.34 2.05.52 2.24-.86l36 8.25-.24.21a.28.27-47.3 00.01.43q1.44 1.1 2.3 1.26c6.68 1.22 12.22 2.24 19.84 4.04q7.57 1.79 15.3 2.62c5.53.59 11.31 2.27 17.17 2.69a.63.63 0 00.65-.49q.06-.25-.03-.51l26.75 4.17-.49.04a.62.61.5 00-.57.55q-.07.65.61.72 11.32 1.17 18.18 2.78 1.65.39 1.52-1.26l11.44 2.07q13.82 3.48 28.02 4.42a.5.5 0 00.54-.5v-.49q18.21 1.98 36.25 5.17-.77-.11-1.19.34-.53.59.25.68l16.36 1.99a.76.75 11.7 00.82-.53q.11-.35-.24-.65 17.45 1.95 34.77 4.81c2.55.42 5.49.42 8.23.86-1.96 1.05 1.54 2.12 2 2.33-1.32.45-2.63.91-4.04 1.07q-18.54 2.1-36.25 8.97-44.78-5.94-114.21-16.58-69.23-10.6-123.91-20.45c-37.62-6.77-71.86-17.18-104.53-27.11-10.5-3.19-25.5-8.53-38.56-11.98l-.01-.38a.49.48 87.5 01.44-.49l9.22-.76a1.28 1.22-30.1 01.75.18q1.23.78 2.37.02a1.51 1.49-59.4 01.99-.26q3.14.27 8.3-.19 6.86-.62 27.71-.24a.25.25 0 00.25-.29q-.04-.26.23-.51z"/><path fill="#fff" d="M90.75 126.46l3.25.75c13.06 3.45 28.06 8.79 38.56 11.98 32.67 9.93 66.91 20.34 104.53 27.11q54.68 9.85 123.91 20.45 69.43 10.64 114.21 16.58-5.09 1.22-10.24 3.16c-5.35 2.02-14.82-.24-22.97-1.22q-47.32-5.7-66.75-8.51c-89.61-12.98-179.79-28.83-265.77-57.94q-12.72-4.3-25.08-9.53-.48-.2-.06-.51 2.91-2.15 6.41-2.32z"/><path fill="#b2b1b2" d="M165 128.21c25.87 4.9 50.78 12.94 76.25 19.08q-.19 1.38-2.24.86-5.54-1.42-8.8-2.34c-4.16-1.17-9.45-1.96-14-3.81-2.51-1.01-5.63-1.5-7.85-2.14-6.81-1.95-14.45-3.2-21.96-5.59q-5.43-1.73-10.52-2.74-5.46-1.08-10.88-2.39a.38.38 0 01-.23-.57l.23-.36z"/><ellipse fill="#b2b1b2" transform="rotate(27 -34.943 1126.915)" rx="1.16" ry=".59"/><ellipse fill="#fff" transform="rotate(-7.7 1327.401 -2978.151)" rx="4.1" ry=".63"/><path fill="#fcfde0" d="M164.81 162.44q.06.02.13.03a.17.16-85.3 01.12.15c.04 7.91-1.19 16.47-1.45 23.53q-.42 11.15-1.43 22.29a.24.24 0 01-.46.06q-9.75-25.99-20.57-51.52-.73-1.72 1.08-1.25 10.84 2.85 22.58 6.71z"/><path fill="#b2b1b2" d="M277.25 155.54q27.34 6 55 10.25.09.26.03.51a.63.63 0 01-.65.49c-5.86-.42-11.64-2.1-17.17-2.69q-7.73-.83-15.3-2.62c-7.62-1.8-13.16-2.82-19.84-4.04q-.86-.16-2.3-1.26a.28.27-47.3 01-.01-.43l.24-.21zM468.15 166.87q-1.44-2.25-4.46-1.91-5.27.58-7.75 1.5-1.25.47-1.19-1.17 8.54-2.65 17.27-.65.58.13.04.38l-3.91 1.85zM519.75 166.34l-.49-1.47a.6.6 0 01.67-.78l19.48 3.57a.79.79 0 01-.12 1.56l-19.72.66a.61.61 0 01-.59-.82l.76-1.98a1.09 1.07-44.6 00.01-.74z"/><path fill="#fcfde0" d="M171.74 164.84a.3.29-49.6 01.58-.05q4.52 18.62 10.11 36.92a1.6 1.6 0 01-1.15 2.02c-5.49 1.35-5.92 7.57-12.16 7.18a.58.56 90 01-.53-.54q-.24-3.63-.07-5.87 1.46-19.54 3.22-39.66z"/><path fill="#949598" d="M468.15 166.87q-3.25 2.54-7.38 3.37l-14.02 3.39a.5.5 0 00-.35.65l.34 1.01q-11.26-.33-22.29-2.47c-3.47-.68-6.93-.77-10.46-1.22q-.5-.07 0-.15c8.22-1.37 16.68-1.86 24.6-3.37q8.06-1.54 16.16-2.79-.06 1.64 1.19 1.17 2.48-.92 7.75-1.5 3.02-.34 4.46 1.91z"/><path fill="#fcfde0" d="M202.24 171.85l1.5 27.82a.34.34 0 01-.28.35l-14.67 2.46a.34.34 0 01-.38-.25l-9.7-35.97a.34.34 0 01.41-.42l22.87 5.7a.34.34 0 01.25.31z"/><path fill="#b2b1b2" d="M460.77 170.24q-6.75 3.12-14.03 5.05l-.34-1.01a.5.5 0 01.35-.65l14.02-3.39zM359 169.96l19.25 2.83q.13 1.65-1.52 1.26-6.86-1.61-18.18-2.78-.68-.07-.61-.72a.62.61.5 01.57-.55l.49-.04z"/><path fill="#fcfde0" d="M209.72 198.44l-1.34-24.58a.48.48 0 01.86-.31l16.75 22.36a.48.48 0 01-.31.76l-15.41 2.22a.48.48 0 01-.55-.45z"/><path fill="#b2b1b2" d="M389.69 174.86l28.56 3.43v.49a.5.5 0 01-.54.5q-14.2-.94-28.02-4.42z"/><path fill="#fcfde0" d="M242.94 180.82l1.85 11.75a.41.41 0 01-.33.46l-11.4 2.13a.41.41 0 01-.4-.16l-13.82-18.88a.41.41 0 01.41-.64l23.37 5a.41.41 0 01.32.34zM257.09 183.27q8.71 1.46 17.4 3.23.85.18-.01.34l-23.63 4.53a.67.67 0 01-.79-.55l-1.42-8.58a.38.38 0 01.38-.45c2.81.05 5.91 1.12 8.07 1.48z"/><path fill="#b2b1b2" d="M454.5 183.46l16 1.83q.35.3.24.65a.76.75 11.7 01-.82.53l-16.36-1.99q-.78-.09-.25-.68.42-.45 1.19-.34zM513.5 190.96l10.27 1.68q.75.12-.01.16l-8.26.49c-.46-.21-3.96-1.28-2-2.33zM295.33 203.29q-6.58 2.23-12.98-.4c-6.05-2.48-3.69-5.78-4.6-10.6l1.74-.23a.34.34 0 01.37.45c-.88 2.65-2.08 5.08.03 7.59 2.52 3 11.6 2.84 15.44 3.19z"/><path fill="#949598" d="M277.75 192.29c.91 4.82-1.45 8.12 4.6 10.6q6.4 2.63 12.98.4l8.72-.6a.43.43 0 01.4.66c-2.72 4.33-11.48 5.85-16.2 6.86q.1-.6-.24-.95a.93.92-29 00-.89-.25l-15.88 3.98a.99.98 1 00-.7.67q-.1.32 0 .59-17.47 4.52-35.05 8.63c-7.33 1.71-15.38.79-22.99 1.83q.19-.65-.08-1.05a.7.69-24.7 00-.77-.28l-5.87 1.69a.66.65 70.1 01-.78-.37c-2.24-5.2-4.79-10.64-10.07-13.28a1.25 1.22 4.7 01-.61-.7c-.96-2.79 6.55-1.99 7.87-2.37q5.37-1.55 10.84-2.69c2.29-.48 4.82-.02 7.22-.42q16.08-2.69 34.99-6.57c4.36-.89 10.91-2.82 16.74-3.22q1-.07 2.35-1.39a.52.51-46.8 00-.02-.75q-.29-.26-.81-.1l4.25-.92z"/><path fill="#b2b1b2" d="M273.5 193.21q.52-.16.81.1a.52.51-46.8 01.02.75q-1.35 1.32-2.35 1.39c-5.83.4-12.38 2.33-16.74 3.22q-18.91 3.88-34.99 6.57c-2.4.4-4.93-.06-7.22.42q-5.47 1.14-10.84 2.69c-1.32.38-8.83-.42-7.87 2.37a1.25 1.22 4.7 00.61.7c5.28 2.64 7.83 8.08 10.07 13.28a.66.65 70.1 00.78.37l5.87-1.69a.7.69-24.7 01.77.28q.27.4.08 1.05l-7.83 1.85a.61.59-17.3 01-.69-.35q-4.53-10.71-14.22-16.97a.36.36 0 01.12-.65q12.81-2.48 25.56-4.15 18.3-2.4 58.06-11.23zM316.08 201.73q1.96.33.05.86l-4.68 1.32a.57.56-12.1 01-.71-.45c-.37-2.31 4.07-1.94 5.34-1.73zM288.25 210.21l-17.71 4.04q-.1-.27 0-.59a.99.98 1 01.7-.67l15.88-3.98a.93.92-29 01.89.25q.34.35.24.95z"/><path fill="#fff" d="M192.62 216.68q4.93 4.69 7.68 11.2a.56.55-21.3 01-.33.74q-7.56 2.66-14.68 6.35a1.09 1.09 0 01-.97.02c-2.45-1.19-6.81-.01-9.51.4a.44.44 0 01-.51-.42c-.38-11.3-1.51-37.13 18.32-18.29z"/><path fill="#949598" d="M157.75 219.29q.8 3.55 3.65 5.6c5.75 2.09 7.07-3.46 6.02-7.39a.41.4 82.8 01.39-.51l2.64.01a.49.48 2.3 01.48.51c-.48 7.48.12 12.78-.62 18.58a.39.38-77.1 01-.5.32l-30.31-10.2a.64.63 33.8 01-.22-1.08c4.41-3.87 12.79-4.86 18.47-5.84z"/><path fill="#b2b1b2" d="M161.4 224.89q-2.85-2.05-3.65-5.6.64-.37 1.3-.26a.86.83-3.2 01.67.58l1.68 5.28z"/><path fill="#fcfde0" d="M422.77 273.75q-.59-2.19-.28-4.5 3.15-23.36 5.48-46.91a.32.32 0 01.63-.01c2.57 17.81 5.03 35.68 7.71 54.27a.87.87 0 01-1.09.97l-11.78-3.15a.94.94 0 01-.67-.67zM415.98 271.92c-.79.29-3.38-.35-3.63-1.24-3.24-11.19-5.55-24.22-9.39-36.18a.54.52-20.3 01.31-.65q8.83-3.56 17.24-8.02a.45.45 0 01.66.44q-1.79 22.56-4.67 45a.82.79 84.8 01-.52.65z"/><path fill="#949598" d="M231.15 228.4q-.14 2.39 1.31 4.02a.47.47 0 01-.02.65q-1.26 1.29-3.05 1.19a1.7 1.67-57.4 00-.87.2q-1.16.62-4.04 1.17-13.11 2.51-26.18 5.24a.75.74 89 00-.59.62q-.03.25.08.51-7.91 2.08-16.72 3.12a.92.91-89 01-1.01-1.05c1-6.69 23.39-12.37 29.25-13.99q4.81-1.33 9.51-1.55 6.24-.3 12.33-.13z"/><path fill="#b2b1b2" d="M231.15 228.4q2.61.71 3.62 2.8a1.46 1.45 39.7 01.09.95c-.92 3.59-8.11 4.58-12.4 5.35q-12.34 2.24-24.67 4.5-.11-.26-.08-.51a.75.74 89 01.59-.62q13.07-2.73 26.18-5.24 2.88-.55 4.04-1.17a1.7 1.67-57.4 01.87-.2q1.79.1 3.05-1.19a.47.47 0 00.02-.65q-1.45-1.63-1.31-4.02z"/><path fill="#fcfde0" d="M355.65 256.21q-4.07-1.11-8.11-2.48a.33.33 0 01.01-.63q24.83-7.6 49.12-16.78a.55.54-17.4 01.72.37l8.51 31.88a.69.69 0 01-.84.84q-24.39-6.38-49.41-13.2z"/><ellipse fill="#fff" transform="rotate(79 -63.278 227.443)" rx="6.42" ry="3.38"/><path fill="#b2b1b2" d="M131.73 252.05q-2.09-.12-.05-.55 11.02-2.3 23.07-5.24 6.67-1.63 9.5-2.03a.6.6 0 01.68.51l.27 1.92a.54.54 0 01-.57.61c-3.96-.28-7.36-.35-11.35.79-7 2.01-14.13 4.42-21.55 3.99z"/><path fill="#fff" d="M191.52 256.08a.66.66 0 01-.11-1.2q5.14-2.89 11.09-2.6a.47.46-89.4 01.44.46l.22 6.58a.46.46 0 01-.61.45l-11.03-3.69z"/><path fill="#b2b1b2" d="M342.54 259q.17.7-.28 1.1a.98.98 0 01-.89.21c-6.07-1.5-11.83-3.74-17.95-4.14-9.3-.6-20.08-1.28-28.88 1.4-6.54 1.98-13.23 4.86-17.28 10.58a1.04 1.03 17.1 01-.82.43q-.82.01-.98-.83c11.88-18.95 49.63-14.52 67.08-8.75z"/><path fill="#949598" d="M342.54 259l64.4 17.22a1.13 1.13 0 01.8.8l5.95 22.93a1.44 1.41 10.6 00.59.84q1.96 1.32 4.81.35 1.99.72 2.11-2.21.19-4.94.78-7.99a.56.55 13.5 00-.4-.64q-.66-.18-1.29-.05l.95-9.2a.72.72 0 01.56-.62q1.83-.38 3.45.78-.89.53-.65 1.27a1.06 1.04-.4 00.69.67l5.18 1.58a1.41 1.38-47.4 00.93-.05q2.27-.93 3.93.87a1.05.99 27.5 01.27.78q-.62 6.8 3.13 12.53a.54.53-30 00.69.18c2.41-1.28 5.83-1.28 7.03-4.25a1.36 1.33 47.5 00.03-.94q-1.16-3.42-.69-6.85l10.46 2.79-.25.76a.42.41 15.2 00.31.53q4.47.98 12.72 3.83 6.63 2.3 18.39 4.28a.9.89-5.3 01.67.55q.5 1.32 1.91 1.55c-11.15 10.28-21.74 18.91-36.75 21.92.13-3.19-7.88-.26-11.18.65-3.43.95-6.5-3.01-9.98-3.66q-4.24-.8-8.43-1.84c-5.23-1.3-11.1-4.08-16.92-5.59-7.31-1.9-13.49-4.42-20.24-6.77-1.78-.62-3.5-.1-5.33-1-2.98-1.46-5.9-2.93-9.13-3.88-7.56-2.23-15.87-3.94-23.03-7.19-3.86-1.76-7.62-1.95-11.1-3.41-7.66-3.2-15.8-5.5-23.74-7.94a.66.66 0 00-.76.3q-.22.38-.16.83l-5.75-1.92q.45 0 .73-.43a.62.61-64.5 00-.32-.93l-33.41-10.72.96-1.96q.16.84.98.83a1.04 1.03 17.1 00.82-.43c4.05-5.72 10.74-8.6 17.28-10.58 8.8-2.68 19.58-2 28.88-1.4 6.12.4 11.88 2.64 17.95 4.14a.98.98 0 00.89-.21q.45-.4.28-1.1z"/><path fill="#b2b1b2" d="M274.5 269.71l33.41 10.72a.62.61-64.5 01.32.93q-.28.43-.73.43l-32.71-10.93a.57.56 15 01-.38-.65l.09-.5z"/><path fill="#fcfde0" d="M268.06 323.98a.29.28 87.2 01-.17-.16c-5.78-13.43-13.14-26.46-19.49-39.61a.8.8 0 01.55-1.13c5.98-1.25 12.28-2.08 18.03-3.93q3.12-1 6.26-1.98a1.55 1.51-43.8 01.95.01l8.56 2.99a.81.81 0 01.54.89c-2.16 14.25-3.39 28.94-6.26 43.06a2.61 2.61 0 01-3.47 1.92l-5.5-2.06z"/><path fill="#949598" d="M415 277.71q1.3 1.33.02 3.05-.51.68-.62-.17l-.3-2.45a.53.53 0 01.9-.43z"/><path fill="#b2b1b2" d="M425.25 281.21l11.01 3.02a1.43 1.43 0 011.04 1.15l1.85 10.89a.81.81 0 00.66.67q2.29.4 4.1-.91a1.2 1.2 0 00.5-.87q.37-4.18-.92-8.16a.48.47-12.4 01.4-.62q1.09-.11 1.9.62-.47 3.43.69 6.85a1.36 1.33 47.5 01-.03.94c-1.2 2.97-4.62 2.97-7.03 4.25a.54.53-30 01-.69-.18q-3.75-5.73-3.13-12.53a1.05.99 27.5 00-.27-.78q-1.66-1.8-3.93-.87a1.41 1.38-47.4 01-.93.05l-5.18-1.58a1.06 1.04-.4 01-.69-.67q-.24-.74.65-1.27zM453.25 323.21c-6.98 2.1-13.17 2.45-20.34-.04-23.56-8.16-47.38-15.51-70.96-23.59-3.24-1.11-7.25-1.87-9.97-2.79q-19.37-6.52-38.73-13.08-.06-.45.16-.83a.66.66 0 01.76-.3c7.94 2.44 16.08 4.74 23.74 7.94 3.48 1.46 7.24 1.65 11.1 3.41 7.16 3.25 15.47 4.96 23.03 7.19 3.23.95 6.15 2.42 9.13 3.88 1.83.9 3.55.38 5.33 1 6.75 2.35 12.93 4.87 20.24 6.77 5.82 1.51 11.69 4.29 16.92 5.59q4.19 1.04 8.43 1.84c3.48.65 6.55 4.61 9.98 3.66 3.3-.91 11.31-3.84 11.18-.65z"/><path fill="#fcfde0" d="M215.64 290.59a.24.24 0 01-.15-.22l.05-7.11a.49.48-84.5 01.57-.48q8.63 1.43 17.35 1.23a.3.3 0 01.24.48l-9.6 12.12a.44.43-49.9 01-.63.06c-3.09-2.75-3.64-4.42-7.83-6.08zM258.11 319.91l-29.97-11.66a1.02 1-87.7 01-.6-.66l-1.26-4.49a.91.9 58.6 01.2-.86c5.05-5.61 9.68-12.39 15.54-17.07a.63.63 0 01.9.1q.45.58.55 1.31.06.5.28.95l15.14 31.55q.67 1.4-.78.83z"/><path fill="#b2b1b2" d="M456.25 289.79l35.53 9.1q.54.14.14.53l-1.92 1.87q-1.41-.23-1.91-1.55a.9.89-5.3 00-.67-.55q-11.76-1.98-18.39-4.28-8.25-2.85-12.72-3.83a.42.41 15.2 01-.31-.53l.25-.76zM420.29 290.25q.63-.13 1.29.05a.56.55 13.5 01.4.64q-.59 3.05-.78 7.99-.12 2.93-2.11 2.21l1.2-10.89zM208.98 296.43c-12.73-1.91-20.78 10.21-23.12 21.1q-.1.49-.12-.02c-.37-12.82 9.55-24.24 22.81-23.75a.71.7 86.5 01.67.6l.24 1.58a.43.43 0 01-.48.49zM215.56 298.45a.78.78 0 011.27-.62c2.1 1.66 3.85 5.83-.49 6.16a.69.69 0 01-.75-.69l-.03-4.85z"/><path fill="#949598" d="M228.29 315q-.52.57-.44 1.21a.81.8-85.5 00.56.66q7.75 2.31 11.52 3.69c.88.32 1.68 1.35 2.6 1.71q6.43 2.52 13.21 3.72 3.92.8 7.51 2.72-.02 3.64 1.69 6.9a.87.86-43.7 01-.02.85q-.87 1.51.58 2.33l-1.71 4.46-59.26-26c-.82-.36-1.81-1.21-2.53-1.79q2.81-3.05 6.94-3.43a.89.87-24 01.75.28l1.27 1.4a.95.93 64.4 00.8.29l5.63-.73a1.63 1.62 19.3 00.9-.43l1.18-1.17a.81.81 0 01.89-.16l7.93 3.49z"/><path fill="#b2b1b2" d="M228.29 315l27.45 10.99q-6.78-1.2-13.21-3.72c-.92-.36-1.72-1.39-2.6-1.71q-3.77-1.38-11.52-3.69a.81.8-85.5 01-.56-.66q-.08-.64.44-1.21z"/><path fill="#fff" d="M202 315.46c.72.58 1.71 1.43 2.53 1.79l59.26 26c.25 2.79-1.27 3.44-3.63 2.41q-29.72-13.03-59.96-26.15a.69.68-78.1 01-.42-.65q.05-2.31 2.22-3.4z"/><path fill="#b2b1b2" d="M281.61 375.77c-7.42-.13-13.18-5.8-14.31-13.03-2.35-15.04 4.3-32.46 19.99-36.75 4.5-1.23 7.95-.77 11.9 1.45a.58.58 0 01-.28 1.08c-2.28 0-4.37-.94-6.57-.61-4.95.75-9.71 1.99-13.22 5.85-8.1 8.9-14.2 26.72-5.06 36.89 7.62 8.48 17.66 1.69 23.76-4.33q.21-.21.39-.14a.29.28 31.4 01.11.45c-4.08 4.74-10.44 9.25-16.71 9.14zM263.25 328.71c1.86 2.4 5 7.25 2.25 10.08q-1.45-.82-.58-2.33a.87.86-43.7 00.02-.85q-1.71-3.26-1.69-6.9z"/><path fill="#b2b1b2" d="M287.5 350.04q-2.74-1.81-6.32-1.88 2.37-3.06 6.14-3.86a.79.78-24.2 01.8.3q2.03 2.76-.62 5.44z"/><path fill="#fff" d="M281.18 348.16q3.58.07 6.32 1.88-2.13 3.2-1.54 7.21-.88-.71-1.13-1.82a.93.92-87 00-.57-.64q-1.97-.75-3.97.21-.49-3.51.89-6.84z"/><path fill="#b2b1b2" d="M285.96 357.25q-.28 2.44-2.7 2.51a1.28 1.25-23.8 01-.88-.33q-1.87-1.76-2.09-4.43 2-.96 3.97-.21a.93.92-87 01.57.64q.25 1.11 1.13 1.82zM319.74 404.65q-8.1-6.63-5.53-17.4.88-3.67 3.45-5.96a.5.5 0 01.72.05q.99 1.14.12 2.43c-5.4 7.97-2.66 13.1 2.97 19.2a.64.63 46.3 01-.01.89l-.75.75a.73.72 42.2 01-.97.04zM332.67 402.39a1.43 1.43 0 01-.66-2.28c4.74-5.63 4.23-10.99.16-16.77a.76.76 0 01.11-1l.85-.75a.78.78 0 011.05.01c5.18 4.82 4.87 13.74 1.62 19.39q-1.16 2.02-3.13 1.4z"/><path fill="#fff" d="M329.39 390.17c2.54 10.45-11.55 11.24-9.25.16a.41.41 0 01.57-.3c3.04 1.34 4.95 3.77 7.76-.04a.52.52 0 01.92.18z"/><path fill="#b2b1b2" d="M331.99 436.11c-4.69 1.85-17.34 3.46-17.68-4.69a.68.68 0 011.12-.55q8.88 7.55 18.18.15a1.12 1.12 0 011.81.74c.42 3.47-.43 3.16-3.43 4.35z"/><path fill="#fcfde0" d="M280.54 434.03c-.84-.37-4.43-1.12-4.66-1.51q-.28-.46.26-.45c.93.02 4.87.27 4.91 1.61a.37.36-79.3 01-.51.35z"/><path fill="#b2b1b2" d="M367.72 434.4a.52.52 0 01-.04-1.03l4.66-.94a.57.57 0 01.67.67l-.25 1.17a.78.78 0 01-.85.61l-4.19-.48z"/><rect fill="#b2b1b2" x="-11.9" y="-.42" transform="rotate(-.2 124431.374 -84787.017)" width="23.8" height=".84" rx=".4"/><rect fill="#949598" x="-7.92" y="-.71" transform="rotate(-.1 248843.71 -199584.787)" width="15.84" height="1.42" rx=".56"/><path fill="#b2b1b2" d="M358.1 433.65l6.39-.17q.58-.02.29.48l-.18.3a.4.38 9.1 01-.28.19l-5.3.73a.74.72-18.3 01-.74-.36l-.42-.75a.29.28 75.1 01.24-.42zM280.35 497.24c-3.45-5.56-16.05-10.55-22.56-12.49q-1.05-.31-1.25-1.35a.38.38 0 01.44-.45q15.63 2.74 27.64 12.95a.79.78-62 01.25.83c-.67 2.23-2.17 3.98.1 6.04 7.65 6.95 22.36 17.1 30.62 5.6a.5.49-26.4 01.9.3q-.15 4.26-.38 8.4c-.26 4.53-4.97 3.66-8.66 2.9q-14.01-2.9-23.1-14.3c-1.15-1.44-4.68-6.49-3.98-7.95a.52.49 43.8 00-.02-.48zM364.96 500q.86-1.01 1.01-2.25.07-.62-.32-.14l-1.36 1.64-1.18-1.32a.51.51 0 01.04-.72c8.8-7.95 15.76-10.38 28.12-14.03a.57.57 0 01.7.36c.58 1.66-2.88 2.53-3.93 2.75-7.07 1.48-13.35 6.66-19.96 9.67a.99.99 0 00-.55.7c-2.6 13.15-13.5 20.31-25.85 23.25-11.87 2.84-9.37-3.08-10-11.18a.47.46-65.2 01.84-.31c8 11.12 23.63 1.68 30.8-5.11q1.43-1.35 1.64-3.31z"/><path fill="#949598" d="M364.96 500l-.67-.75 1.36-1.64q.39-.48.32.14-.15 1.24-1.01 2.25z"/><path fill="#fff" d="M590.29 589.75l.71.31v.94h-1.06l-.19-.71.54-.54z"/><path fill="#201f1f" d="M0 589.94l.25.1c-.14.46-.01.72.5.7q6.23-.17 12.44.26H0v-1.06z"/><path fill="#b2b1b2" d="M.25 590.04q1.84.07 3.69.07 292.9.13 585.81.18l.19.71H13.19q-6.21-.43-12.44-.26c-.51.02-.64-.24-.5-.7z"/></svg>