<svg xmlns="http://www.w3.org/2000/svg" viewBox="0 0 591 591"><g stroke-width="2" fill="none"><path stroke="#100f0f" vector-effect="non-scaling-stroke" d="M590.06 0l.19.29"/><path stroke="#545555" vector-effect="non-scaling-stroke" d="M590.25.29l.04 589.46"/><path stroke="#7e7f70" vector-effect="non-scaling-stroke" d="M590.29 589.75l-.54.54"/><path stroke="#545555" vector-effect="non-scaling-stroke" d="M589.75 590.29q-291.84-.05-583.69-.17-2.9 0-5.81-.08"/><path stroke="#100f0f" vector-effect="non-scaling-stroke" d="M.25 590.04l-.25-.1"/><path stroke="#7e7f70" vector-effect="non-scaling-stroke" d="M586.25 4.52a.27.27 0 00-.27-.27H4.52a.27.27 0 00-.27.27v581.46a.27.27 0 00.27.27h581.46a.27.27 0 00.27-.27V4.52"/><path stroke="#646463" vector-effect="non-scaling-stroke" d="M591 587.31c-.84-.45-.25-537.06-.25-586.81a.25.24-86.1 00-.21-.25q-.17-.02-.29.04"/><path stroke="#d2d3c4" vector-effect="non-scaling-stroke" d="M591 590.06l-.71-.31"/><path stroke="#fbf1c4" vector-effect="non-scaling-stroke" d="M89.79 37.76q-3.62-.55-6.79-.55-16.3 0-32.6.01c-13.99.01-24.35 3.49-25.05 19.75q-.92 21.13-.29 43.08a.92.92 0 001.4.76q.78-.48 1.85-1.51 31.09-29.92 61.5-60.54a.73.72-23.8 00.2-.5L90 38a.26.25-87.3 00-.21-.24"/><path stroke="#8e8e7e" vector-effect="non-scaling-stroke" d="M382.81 497.18c1.77 5.44 3.21 10.69 5.95 15.58 2.98 5.32 7.14 10.18 9.47 15.76q11.81 28.23 41.06 37.7c6.07 1.96 14.88 3.2 21.04 2.84 64.46-3.8 84.61-86.98 29.24-120.46a.54.54 0 01-.21-.71c10.35-21.14 22.79-41.01 31.13-63.1q.82-2.19 2.44-3.93a1.42 1.34 16.1 01.83-.43q15.91-2.3 28.76-11.89c6.73-5.03 7.08-15.15 4.86-22.33-3.3-10.68-14.34-19.54-24.39-24.21-29.03-13.48-62.24-11.59-90.65-11.55q-145.48.22-290.95-.18c-6.95-.02-14.85.67-22.29.73-2.14.01-4.11.68-6.26.93a.65.65 0 01-.68-.41q-2.7-6.83-9.47-9.7c-2.57-1.1-7.77-3.51-10.47-2.95a1.39 1.39 0 00-.83.51q-6.33 8.12-13.72 15.3-1.01.98-1-.42.31-66.98.77-132.7c.1-14.15 4.62-25.52 11.1-37.8 7.68-14.54 25.83-26.9 41.44-31.09 18.27-4.91 38.54 2.05 53.67 12.94 4.17 3 9.79 8.34 12.6 12.7 1.85 2.86 4.27 4.81 5.2 8.15q1.88 6.79 2.78 13.81a1.66 1.65-35 01-.17.95c-1.94 3.75-5 6.85-7.52 10.21-4.59 6.12-12.2 10.65-16.41 15.92-8.37 10.48 13.74 14.68 19.27 15.56 11.93 1.89 36.57 2.12 46.54-5.96 5.01-4.05 2.58-10.58-2.12-13.78-7.63-5.2-16.05-13.65-25.21-20.84a1.43 1.4 13.2 01-.5-.79c-1.26-5.66-1.79-11.82-3.78-16.91q-5.19-13.29-14.83-23.52c-13.39-14.19-37.11-24.01-56.48-24.07-38.75-.11-70.82 32.98-77.97 69.55q-1.31 6.69-1.45 19.92-.74 68.74-1.09 137.48a1 .98-18.4 01-.41.8c-5.02 3.59-16.7 12.92-17.1 19.45-.2 3.22-1.2 6.31-.75 9.36 1.56 10.57 9.04 17.26 18.46 21.42 4.69 2.06 10.46 2.6 15.79 4.09a1.13 1.13 0 01.7.59c13.29 26.93 21.21 50.1 31.03 75.72a.86.85-28.9 01-.29 1c-8.29 5.97-17.24 20.67-19.69 30.28-3.82 15.04-3.04 32.74 4.21 46.62 28.47 54.48 106.22 43.47 120.79-15.86q.77-3.12 2.26-6.22 3.17-6.57 4.66-13.82a.84.83 5.4 01.82-.67l149.21-.01a.65.64 80.5 01.61.44"/><path stroke="#d2d3c4" vector-effect="non-scaling-stroke" d="M289.302 248.159a.91.42 133.6 00.932-.37.91.42 133.6 00.324-.948.91.42 133.6 00-.932.37.91.42 133.6 00-.324.948"/><path stroke="#646463" vector-effect="non-scaling-stroke" d="M247.65 191.26q-2.46-.51-4.67-1.33c-10.75-3.95-23.08-4.01-34.12-1.54-3.02.68-6.54 2.46-10.19 3a.48.48 0 00-.05.94q3.65.9 7.13 2.15c3.01 1.09 6.13.86 9.27 2.06a1.77 1.7-39.7 00.95.07c2.19-.45 4.49.42 6.2.41q13.26-.12 25.57-4.35a.73.73 0 00-.09-1.41M114.857 314.204a4.14 3.17 58.6 00.549-5.186 4.14 3.17 58.6 00-4.863-1.882 4.14 3.17 58.6 00-.549 5.186 4.14 3.17 58.6 004.863 1.882M94.1 318.55q4.34 3.13 7.27-.95a1.01 1 52.2 00.12-.97l-1.33-3.32a.49.49 0 00-.79-.18l-5.31 4.8a.4.39 41.7 00.04.62"/><path stroke="#575859" vector-effect="non-scaling-stroke" d="M159.33 322.75q-.34 1.43-1.82 1.55-12.32 1.02-24.59 2.99a.51.51 0 00-.32.82q11.65 14.82 27.59 25.04c3.46 2.22 6.93 1.81 10.81 1.56"/><path stroke="#646463" vector-effect="non-scaling-stroke" d="M171 354.71l45 .25"/><path stroke="#575859" vector-effect="non-scaling-stroke" d="M216 354.96q3.64.28 7.21-.46"/><path stroke="#8f8f8e" vector-effect="non-scaling-stroke" d="M223.21 354.5q1.54.44 2.11.44 80.32.24 160.65-.17a1.39 1.36-65.1 00.9-.34l2.43-2.16a1.2 1.2 0 011.02-.28c4.75.93 8.89 3.02 13.83 3.01q44.67-.08 89.35.36c9.4.09 21.26-1.18 29.21-6.67 5.02-3.46-4.27-9.99-6.75-11.78q-11.14-8.02-24.76-10.63c-13-2.49-26.99-5.33-40.2-5.84-10.48-.41-20.7-.66-31.42-1.36q-18.81-1.22-30.58-1.29c-59.28-.35-120.85.05-170.68-.14-31.06-.12-62.28-.62-93.35.32a.69.69 0 00-.65.56l-.86 4.87a.44.44 0 00.51.51q17.49-2.82 35.36-1.16"/><path stroke="#c7c9ca" vector-effect="non-scaling-stroke" d="M223.21 354.5q-.11-1.14-1.39-2.32c-5.43-5.02-14.35-14.32-17.27-22.05a.38.38 0 01.32-.51q3.97-.28 7.94-.24 48.33.45 96.63-.92c17.88-.5 35.51-2.31 53.26-4.25a.55.55 0 00-.02-1.09c-12.27-1.06-28.17-.31-36.76-.37q-73.31-.45-146.61-.51c-6.6 0-13.37.29-19.98.51"/><path stroke="#9c9e9f" vector-effect="non-scaling-stroke" d="M216 354.96q.39-.43.22-1.01a.66.66 0 00-.62-.47c-7.44-.14-15.15.31-22.08.2q-10.53-.17-21.06.02c-.72.01-1.23.36-1.46 1.01"/><path stroke="#646463" vector-effect="non-scaling-stroke" d="M104.712 333.974a4.01 3.27 51.4 00.054-5.174 4.01 3.27 51.4 00-5.058-1.094 4.01 3.27 51.4 00-.054 5.174 4.01 3.27 51.4 005.058 1.094"/><path stroke="#8f8f8e" vector-effect="non-scaling-stroke" d="M376.48 373.83c5.06-.02 14.7.41 22.11-.09a.63.61 6.9 00.55-.42l1.04-3.11a.28.27 14.3 00-.21-.35q-5.92-1.33-4.29-6.98a.31.31 0 00-.3-.4q-103.86.07-207.82-.03c-27.37-.02-55.04-.43-80 0-8.39.15-17.08-.82-21.38-8.71a.53.52-26 00-.68-.23q-2.89 1.25-7.01-.3c-6.19-2.33-6.75-4.98-6.18-11.52q.41-4.56.02-9.13a.3.29-19.2 00-.46-.22c-10.15 6.98-16.1 21.21-5.05 30.89 10.01 8.76 32.8 10.47 45.69 10.52q131.98.54 263.97.08"/><path stroke="#646463" vector-effect="non-scaling-stroke" d="M80.05 342.93c1.54 1.58 9.61-4.13 11.46-5.13a.46.45-29.7 00.18-.64l-2.39-3.91a.51.51 0 00-.81-.08l-8.45 9.2a.41.4-46.6 00.01.56"/><path stroke="#8f8f8e" vector-effect="non-scaling-stroke" d="M419.25 363.04q-8.21-.77-16.59-.43a.43.43 0 00-.36.62q1.67 3.23-.48 6.01-.13.16.08.15 4.07-.14 5.03 4.18a.54.53 83.1 00.52.41c28.77.1 56.61-.32 86.3.23"/><path stroke="#575859" vector-effect="non-scaling-stroke" d="M493.75 374.21l16-.25"/><path stroke="#646463" vector-effect="non-scaling-stroke" d="M509.75 373.96l14-1.25"/><path stroke="#575859" vector-effect="non-scaling-stroke" d="M523.75 372.71l7.74-1.24a.58.58 0 00.36-.92q-1.66-2.18-4.31-3.55"/><path stroke="#646463" vector-effect="non-scaling-stroke" d="M527.54 367q-3.89-2.67-8.67-3.96"/><path stroke="#575859" vector-effect="non-scaling-stroke" d="M518.87 363.04q-.95-.69-2.37-.68-45.28.38-90.57.13c-2.24-.01-4.46.3-6.68.55"/><path stroke="#9c9e9f" vector-effect="non-scaling-stroke" d="M518.87 363.04q1.29 1.99 3.62 2.56a1.56 1.54 75.3 01.81.48q1.78 2 4.24.92M523.75 372.71v-.44a.48.48 0 00-.52-.49c-2.48.15-12.04.52-13.48 2.18"/><path stroke="#c7c9ca" vector-effect="non-scaling-stroke" d="M493.75 374.21l.23-.2a.24.24 0 00-.02-.38c-.24-.15-.72-.44-.99-.45q-19.07-.2-38.16-.19-2.48 0-4.79-.99c-5.73-2.47-11.51-5.05-17.63-6.28-4.53-.91-8.67-1.17-13.14-2.68"/><path stroke="#8f8f8e" vector-effect="non-scaling-stroke" d="M100.21 386.25q.84 2.79 4.26 9.26c5.42 10.25 9.35 23.75 13.38 33.88q4.21 10.59 7.92 21.33a.42.42 0 00.61.23c13.26-7.5 25.51-11.8 41.07-10.6q19.5 1.51 36.27 14.19"/><path stroke="#575859" vector-effect="non-scaling-stroke" d="M203.72 454.54q1.74 2.77 4.24 4.71"/><path stroke="#646463" vector-effect="non-scaling-stroke" d="M207.96 459.25q11.51 12.03 16.49 27.93.15.49.06 1l-.18.91a.51.5 4.5 00.52.6l6.16-.25"/><path stroke="#575859" vector-effect="non-scaling-stroke" d="M231.01 489.44q67.61.56 135.24.02"/><path stroke="#646463" vector-effect="non-scaling-stroke" d="M366.25 489.46q13.37.09 26.75.02c1.29-.01 2.85-1.86 3.3-3.25q9.08-28.25 36.4-40.75"/><path stroke="#575859" vector-effect="non-scaling-stroke" d="M432.7 445.48l9.05-2.94"/><path stroke="#646463" vector-effect="non-scaling-stroke" d="M441.75 442.54q8.29-2.55 16.93-2.21a.72.71-77.7 00.69-.45c5.24-13.39 11.34-26.63 16.67-40.13"/><path stroke="#575859" vector-effect="non-scaling-stroke" d="M476.04 399.75q.67-.99.87-2.24a.43.43 0 00-.43-.5q-3.21.08-6.41-.03-30.42-1.03-60.88-2.05a1.3 1.3 0 00-.89.33l-3 2.74a.28.27 38.9 00.05.44l1.36.81"/><path stroke="#646463" vector-effect="non-scaling-stroke" d="M406.71 399.25c2.8 3.4 1.1 6.89-3.21 7.04"/><path stroke="#575859" vector-effect="non-scaling-stroke" d="M403.5 406.29c-2.38-2.16-4.77-4.65-1.39-7.54a.88.86 65.2 00.29-.82q-.52-3.04-3.14-3.39-7.74-1.03-21.76-1.31-28.62-.57-57.25-.94"/><path stroke="#646463" vector-effect="non-scaling-stroke" d="M320.25 392.29c-24.41-1.3-48.8-2.28-73.25-3.58"/><path stroke="#575859" vector-effect="non-scaling-stroke" d="M247 388.71l-21.5-1.17"/><path stroke="#646463" vector-effect="non-scaling-stroke" d="M225.5 387.54q-8.76-.77-17.54-1.28c-17.51-1.02-34.93-2.48-52.46-3.05"/><path stroke="#575859" vector-effect="non-scaling-stroke" d="M155.5 383.21l-4.25-.17"/><path stroke="#646463" vector-effect="non-scaling-stroke" d="M151.25 383.04l-22.59-.5"/><path stroke="#575859" vector-effect="non-scaling-stroke" d="M128.66 382.54q-11.29-1.53-22.81-1.34c-2.47.05-4.89-.41-7.35-.67a.34.34 0 00-.35.46l2.06 5.26"/><path stroke="#9c9e9f" vector-effect="non-scaling-stroke" d="M128.66 382.54q8.34 1.4 20.84 1.22 1.47-.02 1.75-.72M155.5 383.21l-1.04.08a.22.22 0 00-.21.21l-.01.3a.33.32 1.6 00.33.34c9.9-.03 20.5 1.38 29.48 1.83q5.5.27 10.98.74c6.7.56 15.31.57 22.96 1.8q2.76.44 7.34-.1a.45.43 82.9 00.38-.5q-.04-.27-.21-.37M247 388.71q1.68 1.31 5.26 1.51 33.8 1.8 67.65 2.7a.33.33 0 00.34-.34v-.29M403.5 406.29v.42"/><path stroke="#575859" vector-effect="non-scaling-stroke" d="M403.5 406.71l-1.79.72a1.4 1.33-85.4 00-.69.62q-1.61 2.95.59 5.28a.91.91 0 01.12 1.09l-1.22 2.04a1.11 1.11 0 00-.13.77l1.25 6.28"/><path stroke="#9c9e9f" vector-effect="non-scaling-stroke" d="M401.63 423.51q-2.31-.59-2.83 1a.77.76-84.5 01-.63.53c-1.99.24-3.64-.68-5.36-.78-4.21-.24-7.04-1.1-11.18 1.72a1.74 1.66-7.2 00-.61.75c-1.81 4.43.18 6.96-.02 11.08-.2 4.13-.01 9.05 3.27 12.16q3.84 3.65 8.49 4.11"/><path stroke="#575859" vector-effect="non-scaling-stroke" d="M392.76 454.08q3.46.64 6.83-.19c4.68-1.16 8.54-1.45 12.67-2.85"/><path stroke="#9c9e9f" vector-effect="non-scaling-stroke" d="M412.26 451.04q3.28.3 3.68-3.34 1.1-10.33-7.57-15.87a.91.9-74.2 01-.41-.74q-.02-1.81 1.03-3.32a1.3 1.29 61.3 00.23-.8c-.05-1.39-.57-6-2.22-5.76"/><path stroke="#575859" vector-effect="non-scaling-stroke" d="M407 421.21l.54-.71"/><path stroke="#9c9e9f" vector-effect="non-scaling-stroke" d="M407.54 420.5q.8.23 1.16-.37a1.28 1.28 0 00.12-.99q-1.03-3.48.66-6.72a1.02 1-45.6 000-.93q-1.19-2.3-1.29-4.81a1.68 1.63-31.4 01.25-.97q2.21-3.52-.19-6.87a.86.85 66.1 00-.88-.35q-.49.11-.66.76M476.04 399.75q-.29-.26-.62-.29a.63.62 9.6 00-.67.47c-.93 3.63-3.05 6.94-4.2 10.03-2.28 6.09-5.4 11.77-7.5 17.78q-1.55 4.42-3.32 8.76c-.82 2.02-1.4 2.73-3.78 2.7q-7.25-.08-14.24 1.77a.69.68 83.3 00-.51.65q-.01.57.55.92M432.7 445.48q-10.22 1.3-16.82 8.84-2 2.29-4.12 3.94-7.42 5.77-11.31 14.5-.21.47-.61.77c-3.15 2.41-4.25 8.44-5.28 12.19a1.14 1.13 84 01-.58.72c-6.73 3.59-23.98-.92-27.73 3.02M231.01 489.44q-.2-2-2.28-1.03a1.32 1.31 64.8 01-1.74-.63c-5.09-10.81-9.05-20.36-17.72-28.79q-.78-.75-1.31.26"/><path stroke="#c7c9ca" vector-effect="non-scaling-stroke" d="M203.72 454.54q-11.67-10.92-27.34-14.12c-3.43-.7-8.83-7.9-11.82-10.49q-27.8-24.13-60.99-40.06c-1.72-.82-2-1.85-2.47-3.55a.47.47 0 00-.55-.34q-.24.05-.34.27"/><path stroke="#646463" vector-effect="non-scaling-stroke" d="M407.54 420.5q.73-3.23-1.58-5.63a.41.4 50.8 01.06-.62c3.74-2.53 1.52-7.39-2.52-7.54M407 421.21q-.78-.01-1.41.45a.41.4-43.4 00-.02.64c2.57 2.13 3.67 5.34.16 7.31-2.37 1.33-5.7.12-8.16 1.7-3.66 2.34.44 5.69 3.12 6.28 3.94.87 4.2-2.17 4.96-4.82a.39.38-66.6 01.57-.23c6.53 3.92 10.82 11.36 6.04 18.5"/><path stroke="#646463" vector-effect="non-scaling-stroke" d="M392.76 454.08q-2.55-2.21-5.14-3.98c-6.25-4.27-5.05-10.37-5.81-17.02-.49-4.23-.2-6.89 4.52-7.48q7.24-.92 13.04 2.42c.4.23.81.64 1.32.39a.38.38 0 00.11-.61q-2.08-2.2.83-4.29M167.5 449.9c3.65-.15 7.72.59 11.71.56q.51-.01.02-.16c-30.14-9.36-62.87 7.56-71.77 38.08-4.91 16.84-2.06 35.04 7.99 49.55a.19.19 0 00.33-.19q-6.59-13.33-7.11-28.11c-.38-10.69 3.37-25.32 9.86-34.1 12.68-17.19 28.09-24.82 48.97-25.63"/><path stroke="#575859" vector-effect="non-scaling-stroke" d="M410.75 536.79q.17 1.21 1.02 1.88.69.53.29-.24l-1.02-1.93"/><path stroke="#646463" vector-effect="non-scaling-stroke" d="M411.04 536.5c-5.28-10.63-8.9-25.44-5.68-37.11 1.39-5.01 1.81-9.52 4.21-14.93 5.24-11.8 16.11-23.11 27.63-28.53 10.59-4.97 24.05-6.13 35.73-5.29q1.37.1 2.51 1.11a.35.35 0 00.57-.16c.23-.7-.18-1-.82-1.19q-26.21-7.61-48.28 6.49c-13.17 8.42-22.77 22.49-25.19 38.08-2.19 14.07.38 30.09 9.03 41.82"/><path stroke="#9c9e9f" vector-effect="non-scaling-stroke" d="M411.04 536.5l-.29.29"/><path stroke="#8f8f8e" vector-effect="non-scaling-stroke" d="M192.9 467.53q-11.2-9.05-25.61-10.62a.38.37 86.1 00-.4.46c2 8.27 2.83 16.56 4.58 24.86a.34.33 66.4 00.52.21l20.9-14.64a.17.17 0 00.01-.27M134.9 466.06c5.78 5.66 11.36 10.3 18.92 13.55a.43.42 16 00.58-.32l4.01-21.84a.42.42 0 00-.45-.49q-12.71 1-23.01 8.37a.48.47 49.3 00-.05.73"/><path stroke="#646463" vector-effect="non-scaling-stroke" d="M440.58 460.05a.5.5 0 00-.26.81l5.65 6.52a.5.5 0 00.84-.13l3.62-8.85a.5.5 0 00-.58-.67l-9.27 2.32"/><path stroke="#575859" vector-effect="non-scaling-stroke" d="M431.8 464.6c-7.22 4.74-14.38 11.99-17.44 20.71a.33.33 0 00.42.42q10.76-3.68 20.73-9.16a.9.89-23.6 00.42-1.06l-3.44-10.67a.46.45 63.9 00-.69-.24"/><path stroke="#8f8f8e" vector-effect="non-scaling-stroke" d="M160.09 482.5c1.9.5 3.71 1.49 5.61 2.11a.33.33 0 00.43-.35q-.52-4.79-1.41-9.54c-.55-2.94-.62-6.72-1.6-9.98a.34.34 0 00-.66.03c-1.09 5.5-2.95 11.91-2.69 17.34a.43.41-85.6 00.32.39"/><path stroke="#8e8e7e" vector-effect="non-scaling-stroke" d="M474.84 483.83q4.35 2.06 8.85.41a.82.82 0 00.54-.74q.38-9.21-4.09-17.17a.65.65 0 00-1.08-.07c-3.76 5.08-3.63 9.96-5.05 15.83a1.54 1.53 19.7 00.83 1.74"/><path stroke="#646463" vector-effect="non-scaling-stroke" d="M441.383 472.188a1.68.76 59.5 00-.198-1.834 1.68.76 59.5 00-1.508-1.061 1.68.76 59.5 00.198 1.833 1.68.76 59.5 001.508 1.062M204.04 543.52c18.27-20.19 19.83-47.94 5.67-70.87a.49.49 0 00-.87.44c4.9 12.18 8.02 25.65 6.25 38.47-1.56 11.3-6.56 24.58-15.63 32.13-6.82 5.68-16.11 12.49-24.74 14.88-11.33 3.14-24.08 1.73-35.18-1.71q-.46-.14-.21.27.19.32.74.51c22.71 7.79 47.47 4.1 63.97-14.12M437.02 558.18q34.55 10.83 59.06-10.75c22.37-19.69 23.38-49.61 9.39-74.41a.41.41 0 00-.74.36c7.82 18.66 10.47 45.28-3.25 62.97-16.01 20.63-38.3 28.93-63.75 21.46q-.63-.18-.75-.13-.59.3.04.5"/><path stroke="#575859" vector-effect="non-scaling-stroke" d="M198.29 475.14l-1.25 1.86"/><path stroke="#8f8f8e" vector-effect="non-scaling-stroke" d="M197.04 477l-8.2 11.78q-.29.41.21.43l10.46.28"/><path stroke="#575859" vector-effect="non-scaling-stroke" d="M199.51 489.49l7.76-.19a.4.4 0 00.37-.55l-2.35-6"/><path stroke="#646463" vector-effect="non-scaling-stroke" d="M205.29 482.75q-2.3-4.59-5.61-8.53a.6.6 0 00-.79-.12q-.38.26-.6 1.04"/><path stroke="#9c9e9f" vector-effect="non-scaling-stroke" d="M205.29 482.75l-.09.39q-.29 1.22-.9.12-2.46-4.46-6.01-8.12"/><path stroke="#c7c9ca" vector-effect="non-scaling-stroke" d="M199.51 489.49q-.32-6.48-2.47-12.49"/><path stroke="#8f8f8e" vector-effect="non-scaling-stroke" d="M175.9 486.88l5.97 1.07a1.24 1.23-67.3 001.21-.5l7.99-11.35a.22.21 89.7 00-.3-.3l-14.92 10.86a.12.12 0 00.05.22M465.08 480.81l3.09 1.16a.57.56 18.3 00.74-.37l.91-3.2a.47.46-16.5 00-.8-.43q-1.61 1.84-3.93 2.51a.17.17 0 00-.01.33"/><path stroke="#8e8e7e" vector-effect="non-scaling-stroke" d="M152.22 488.64q-6.88-4.38-14.6-7.13-.75-.27-.27.38l8.77 11.82a.72.71-32.5 00.92.2c1.42-.77 5.5-3.12 5.42-4.86a.53.5 16.5 00-.24-.41M131.61 483.75c-.75 4.11-.32 8.99 1.24 12.86a.67.66-17.1 00.76.4l6.35-1.33a.54.54 0 00.32-.85l-8.24-11.18q-.33-.45-.43.1"/><path stroke="#8f8f8e" vector-effect="non-scaling-stroke" d="M467.04 486.82l-5.36-1.58a.7.7 0 00-.88.84q1.33 5.3 6.4 2.76.98-.48.44-1.53a1 .96-4.7 00-.6-.49"/><path stroke="#8e8e7e" vector-effect="non-scaling-stroke" d="M494.12 510.08l10.4 5.59a.52.52 0 00.71-.22c3.48-6.86.69-20.68-1.48-27.76a.6.6 0 00-.84-.36l-3.69 1.85a1.07 1.06-9.5 00-.57.79q-1.59 10.03-4.7 19.68a.37.36-67.4 00.17.43"/><path stroke="#8f8f8e" vector-effect="non-scaling-stroke" d="M116.7 490.38c-1.16-.51-2.77 8.46-3 9.62a.58.58 0 00.71.67l3.36-.81a.68.67 72.5 00.47-.91q-1.56-3.89-1.24-8.09a.5.49 13.8 00-.3-.48"/><path stroke="#646463" vector-effect="non-scaling-stroke" d="M161.86 492.71c-9.35.84-15.51 9.39-11.86 18.35.66 1.61 2.18 2.38 2.97 4.12a.17.17 0 00.21.09l.28-.09a.13.13 0 00.07-.18c-4.54-7.96 1.25-15.45 9.43-16.28a.48.48 0 00.43-.5l-.19-4.32a1.24 1.24 0 00-1.34-1.19M449.94 495.44q-2.63 2.38-4.53 7.28c-1.69 4.34.23 8.65 2.97 12.01a.3.3 0 00.52-.28q-2.73-9.35 4.68-14.26c1.54-1.02 3.47-.9 5.28-1.04a.65.64 89 00.6-.63l.15-4.82a.62.6-87 00-.55-.63q-5.87-.59-9.12 2.37"/><path stroke="#8e8e7e" vector-effect="non-scaling-stroke" d="M472.08 497.7q2.64 2.66 4.88 1.83c1.3-.48 4.97-3.24 6.47-4.82q.35-.37-.16-.34c-1.59.09-12.59-.27-11.85 2.21a2.67 2.57-76.6 00.66 1.12"/><path stroke="#646463" vector-effect="non-scaling-stroke" d="M429.937 497.007a1.35.93 22.5 00-.891-1.376 1.35.93 22.5 00-1.603.342 1.35.93 22.5 00.891 1.376 1.35.93 22.5 001.603-.342M204.22 497.44a.42.42 0 00-.25-.77l-3.88.15a.42.42 0 00-.19.79l1.99 1.1a.42.42 0 00.44-.02l1.89-1.25"/><path stroke="#8f8f8e" vector-effect="non-scaling-stroke" d="M410.29 497.27c-.02 1.43-.57 4.58-.33 5.88q.14.77.66.17l5.04-5.82q.65-.75-.34-.75h-4.51a.52.52 0 00-.52.52M423.96 500.99c-.3-.42-2.72-1.63-3.34-1.79a.83.83 0 00-.86.28l-7.6 9.41q-.86 1.06.31.34l11.14-6.84a1.03.95-33.1 00.35-1.4"/><path stroke="#646463" vector-effect="non-scaling-stroke" d="M211.09 499.91a2.34.44 5.4 00-2.289-.658 2.34.44 5.4 00-2.37.218 2.34.44 5.4 002.288.658 2.34.44 5.4 002.37-.218"/><path stroke="#8f8f8e" vector-effect="non-scaling-stroke" d="M436.44 500.87c.46.78 2.54 1.62 3.44 1.63a1.04 1.04 0 00.98-1.44q-1.23-3-4.15-1.24a.77.77 0 00-.27 1.05"/><path stroke="#8e8e7e" vector-effect="non-scaling-stroke" d="M180.49 501.5c1.84 3.25 4.38 7.18 8.23 5.39a.73.72 69.6 00.39-.87l-1.01-3.33a1.1 1.1 0 00-.91-.76l-6.42-.85q-.56-.07-.28.42"/><path stroke="#8f8f8e" vector-effect="non-scaling-stroke" d="M139.15 501.71q.16-.29-.16-.26l-3.54.32q-2.19.19-.97 2.02c1.6 2.41 3.8-.53 4.67-2.08"/><path stroke="#575859" vector-effect="non-scaling-stroke" d="M145.06 504.27q1.86-.16 1.38-2.16a.32.32 0 00-.47-.2q-.95.54-1.5 1.37-.72 1.1.59.99"/><path stroke="#8f8f8e" vector-effect="non-scaling-stroke" d="M202.23 504.19c-2.82-.48-5.12-.44-7.9-1.12a.51.5-86.9 00-.62.56l.25 1.92a.78.78 0 00.93.66l7.35-1.56q1.19-.25-.01-.46"/><path stroke="#8e8e7e" vector-effect="non-scaling-stroke" d="M414.27 521.63l.19.25a.4.39 51.6 00.56.07q7.18-5.73 14.46-11.37c2.22-1.72 2.32-3.76 1.01-6.03a.57.57 0 00-.78-.2l-17.9 10.54a1.07 1.07 0 00-.53.81q-.48 3.93 2.94 5.89.03.02.05.04"/><path stroke="#8f8f8e" vector-effect="non-scaling-stroke" d="M473.7 513.84a.53.52 55.6 00.74.14q2.78-1.97 3.83-5.23a1.1 1.08-52.4 00-.11-.92c-2.05-3.21-7.67 1.16-4.46 6.01"/><path stroke="#8e8e7e" vector-effect="non-scaling-stroke" d="M200.89 521.83c3.56-1.93 9.41-7.73 9.94-12.04a1.01 1.01 0 00-1.32-1.09q-6.1 2.01-12.5 2.37a.45.45 0 00-.4.6l3.47 9.85a.57.57 0 00.81.31M124.92 535.69a.22.22 0 00.35-.02l6.95-9.8a.64.63-51.6 00-.09-.83q-6.34-5.75-9.22-13.79a.87.86-3.6 00-.64-.56l-8.03-1.64a.44.43 2.5 00-.52.47q1.75 14.76 11.2 26.17"/><path stroke="#8f8f8e" vector-effect="non-scaling-stroke" d="M438.24 517.89l2.23-8.02q.27-.94-.61-.52-5.27 2.53-3.23 8.58a.84.84 0 001.61-.04M192.81 516.19q-.63-1.49-.6-3.16a.69.68-87.8 00-.63-.69l-1.71-.13q-1.02-.08-.38.71l3.16 3.92q.94 1.17.61-.24-.07-.3-.45-.41M146.79 519.64q2.21 2.88 5.19.46a.79.77 63 00.26-.82l-1.24-4.49a.73.72-6.1 00-.66-.52l-3.61-.19a.84.82-74.4 00-.78.45l-1.23 2.4a.92.91-47.9 00.04.91q.47.73 1.24 1.13.47.25.79.67"/><path stroke="#8e8e7e" vector-effect="non-scaling-stroke" d="M172.31 520.7l12.16 8.31a.8.79 46.6 00.83.03l1.22-.71a.5.49 57.2 00.15-.71l-9.06-12.95a1 .99 68.6 00-.95-.42l-1.55.19a.91.9-79.5 00-.68.47l-2.42 4.6a.92.92 0 00.3 1.19"/><path stroke="#8f8f8e" vector-effect="non-scaling-stroke" d="M191.87 525.67c.57.7 1.02.79 1.79.33a.46.45-35.6 00.12-.69l-8.73-10.2q-.4-.47-.11.08 2.94 5.61 6.93 10.48"/><path stroke="#646463" vector-effect="non-scaling-stroke" d="M491.15 516.78l3.77.97q1.1.28.36-.58-1.43-1.66-3.62-2.15c-1.09-.24-1.75.73-.82 1.59a.74.62 68.6 00.31.17"/><path stroke="#8f8f8e" vector-effect="non-scaling-stroke" d="M422.56 522.83a.19.19 0 00.2.32l8.69-3.11a.76.76 0 00.5-.8l-.24-2.17a.51.51 0 00-.76-.39q-4.61 2.52-8.39 6.15"/><path stroke="#8e8e7e" vector-effect="non-scaling-stroke" d="M452.74 518.68c-4.65-.47-4.58 6.3-4.71 10.32a.45.44-2.3 00.49.45c5.83-.54 10.21-5.46 5.09-10.37a1.47 1.42-19.4 00-.87-.4"/><path stroke="#8f8f8e" vector-effect="non-scaling-stroke" d="M161.08 519.72c-3.7.83-3.11 5.75-.99 7.74a.68.68 0 001.15-.45l.38-6.83a.44.44 0 00-.54-.46M464.82 522.46a1.21 1.21 0 00-1.21-1.21 1.21 1.21 0 00-1.21 1.21 1.21 1.21 0 001.21 1.21 1.21 1.21 0 001.21-1.21"/><path stroke="#8e8e7e" vector-effect="non-scaling-stroke" d="M502.31 523.83c-4.83-1.14-10.42-1.23-15.5-2.14a.86.85-68.5 00-.87.38q-2.94 4.42-7.06 7.79a.79.78 62 00-.25.83l4.71 15.3a.42.42 0 00.62.24c9.19-5.67 13.51-13 18.76-21.39a.67.67 0 00-.41-1.01"/><path stroke="#8f8f8e" vector-effect="non-scaling-stroke" d="M442.29 522.66l-2.2 6.63a.69.69 0 00.46.88c2.44.7 2.55-6.28 2.39-7.45a.34.33-39.4 00-.65-.06M426.77 527.91l5.01 1.63a.51.51 0 00.67-.51l-.11-2.5a.62.61-10 00-.81-.56l-4.76 1.54q-.62.2 0 .4M175.04 529.86a.26.26 0 00.2-.43q-1.74-1.97-4.26-2.73a.53.53 0 00-.69.54l.12 2.01a.64.64 0 00.64.61h3.99"/><path stroke="#8e8e7e" vector-effect="non-scaling-stroke" d="M136.34 529.5l-2.17 2.91q-.94 1.25.4.44l2.73-1.65a.69.69 0 00.17-1.03l-.57-.68a.36.36 0 00-.56.01M131.92 542.61q11.67 9.49 26.71 10.7a.34.33-3.2 00.36-.4l-2.39-11.62a.88.88 0 00-.6-.65q-7.02-2.07-13-6.27a1.22 1.21-45.2 00-1.4.01l-9.64 6.88a.85.85 0 00-.04 1.35"/><path stroke="#8f8f8e" vector-effect="non-scaling-stroke" d="M472.13 534.57a.74.74 0 00-.42 1.17l3.4 4.43q.58.77.38-.18l-1.18-5.32a.6.59-13.1 00-.73-.45l-1.45.35"/><path stroke="#8e8e7e" vector-effect="non-scaling-stroke" d="M447.8 552.75c9.81 1.26 18.43.97 27.9-2.21a.45.45 0 00.22-.7l-8.69-11.67a.66.66 0 00-.85-.17q-6.51 3.75-13.96 4.77a1.01 1 8.4 00-.76.56l-4.21 8.78a.45.45 0 00.35.64M169.04 543.72a.8.8 0 00-.88.65l-1.46 8.31a.45.44-88 00.48.52q14.57-1.5 25.79-10.81a.62.62 0 00-.6-1.06q-11.34 3.84-23.33 2.39"/><path stroke="#646463" vector-effect="non-scaling-stroke" d="M162.74 542.61q-1.12 2.51.53.64a.26.26 0 00.06-.23l-.09-.37q-.19-.76-.5-.04"/><path stroke="#8f8f8e" vector-effect="non-scaling-stroke" d="M427.96 543.57l10.55 6.12a.51.51 0 00.74-.3l1.21-4.38a.45.45 0 00-.43-.57q-6.03-.03-11.88-1.37a.27.27 0 00-.19.5"/><path stroke="#646463" vector-effect="non-scaling-stroke" d="M433.81 556.79q1.2 1.06 1.8.9.12-.03.08-.07-.89-.82-1.8-1.01a.1.1 0 00-.08.18"/><path stroke="#545555" vector-effect="non-scaling-stroke" d="M224.157 191.927a2.34 2.23 93 002.35-2.22 2.34 2.23 93 00-2.105-2.454 2.34 2.23 93 00-2.349 2.22 2.34 2.23 93 002.105 2.454M240.81 189.69q-2.06-.75-3.12 1.34a.78.76-53.2 00.11.85c2.79 3.12 5.48-1.3 3.01-2.19M211.314 190.647a2.8 2.44-23.2 00-3.535-1.14 2.8 2.44-23.2 00-1.613 3.346 2.8 2.44-23.2 003.535 1.14 2.8 2.44-23.2 001.613-3.346M233.69 192.914a2.65 2.35-1 00-2.691-2.304 2.65 2.35-1 00-2.609 2.396 2.65 2.35-1 002.691 2.304 2.65 2.35-1 002.609-2.396M218.76 190.91a1.5 1.49-54.1 00-1.95.32q-1.31 1.59-.87 3.29a1.78 1.77 76.4 002.11 1.29c3.48-.78 3.42-3.19.71-4.9"/><path stroke="#646463" vector-effect="non-scaling-stroke" d="M243.5 190.87l-.26 1.16a.45.45 0 00.84.3q.42-.8-.2-1.55a.22.22 0 00-.38.09"/><path stroke="#9c9e9f" vector-effect="non-scaling-stroke" d="M334.76 325a.23.11-71.6 00.01.07l.21.43a.43.42-37.5 00.7.09q.34-.4.32-.89a.48.47 83.8 00-.56-.46q-.58.11-.68.76"/><path stroke="#d2d3c4" vector-effect="non-scaling-stroke" d="M589.94 591l-.19-.71"/><path stroke="#646463" vector-effect="non-scaling-stroke" d="M.25 590.04c-.15.47-.01.72.51.7q5.85-.17 11.68.26M588.19 591q-2.25-.63-4.5 0"/><path stroke="#9c9e9f" vector-effect="non-scaling-stroke" d="M464.44 591q-3.25-.63-6.5 0M176.19 591q-3.13-.63-6.25 0M168.44 591q-2.25-.63-4.5 0"/></g><path d="M0 0h590.06l.19.29.04 589.46-.54.54q-291.84-.05-583.69-.17-2.9 0-5.81-.08l-.25-.1V0zm586.25 4.52a.27.27 0 00-.27-.27H4.52a.27.27 0 00-.27.27v581.46a.27.27 0 00.27.27h581.46a.27.27 0 00.27-.27V4.52z"/><path fill="#1f1e1d" d="M590.06 0h.94v587.31c-.84-.45-.25-537.06-.25-586.81a.25.24-86.1 00-.21-.25q-.17-.02-.29.04l-.19-.29z"/><path fill="#a8a9a9" d="M590.25.29q.12-.06.29-.04a.25.24-86.1 01.21.25c0 49.75-.59 586.36.25 586.81v2.75l-.71-.31L590.25.29z"/><path fill="#fcfddf" d="M586.25 585.98a.27.27 0 01-.27.27H4.52a.27.27 0 01-.27-.27V4.52a.27.27 0 01.27-.27h581.46a.27.27 0 01.27.27v581.46zM89.79 37.76q-3.62-.55-6.79-.55-16.3 0-32.6.01c-13.99.01-24.35 3.49-25.05 19.75q-.92 21.13-.29 43.08a.92.92 0 001.4.76q.78-.48 1.85-1.51 31.09-29.92 61.5-60.54a.73.72-23.8 00.2-.5L90 38a.26.25-87.3 00-.21-.24zm293.02 459.42c1.77 5.44 3.21 10.69 5.95 15.58 2.98 5.32 7.14 10.18 9.47 15.76q11.81 28.23 41.06 37.7c6.07 1.96 14.88 3.2 21.04 2.84 64.46-3.8 84.61-86.98 29.24-120.46a.54.54 0 01-.21-.71c10.35-21.14 22.79-41.01 31.13-63.1q.82-2.19 2.44-3.93a1.42 1.34 16.1 01.83-.43q15.91-2.3 28.76-11.89c6.73-5.03 7.08-15.15 4.86-22.33-3.3-10.68-14.34-19.54-24.39-24.21-29.03-13.48-62.24-11.59-90.65-11.55q-145.48.22-290.95-.18c-6.95-.02-14.85.67-22.29.73-2.14.01-4.11.68-6.26.93a.65.65 0 01-.68-.41q-2.7-6.83-9.47-9.7c-2.57-1.1-7.77-3.51-10.47-2.95a1.39 1.39 0 00-.83.51q-6.33 8.12-13.72 15.3-1.01.98-1-.42.31-66.98.77-132.7c.1-14.15 4.62-25.52 11.1-37.8 7.68-14.54 25.83-26.9 41.44-31.09 18.27-4.91 38.54 2.05 53.67 12.94 4.17 3 9.79 8.34 12.6 12.7 1.85 2.86 4.27 4.81 5.2 8.15q1.88 6.79 2.78 13.81a1.66 1.65-35 01-.17.95c-1.94 3.75-5 6.85-7.52 10.21-4.59 6.12-12.2 10.65-16.41 15.92-8.37 10.48 13.74 14.68 19.27 15.56 11.93 1.89 36.57 2.12 46.54-5.96 5.01-4.05 2.58-10.58-2.12-13.78-7.63-5.2-16.05-13.65-25.21-20.84a1.43 1.4 13.2 01-.5-.79c-1.26-5.66-1.79-11.82-3.78-16.91q-5.19-13.29-14.83-23.52c-13.39-14.19-37.11-24.01-56.48-24.07-38.75-.11-70.82 32.98-77.97 69.55q-1.31 6.69-1.45 19.92-.74 68.74-1.09 137.48a1 .98-18.4 01-.41.8c-5.02 3.59-16.7 12.92-17.1 19.45-.2 3.22-1.2 6.31-.75 9.36 1.56 10.57 9.04 17.26 18.46 21.42 4.69 2.06 10.46 2.6 15.79 4.09a1.13 1.13 0 01.7.59c13.29 26.93 21.21 50.1 31.03 75.72a.86.85-28.9 01-.29 1c-8.29 5.97-17.24 20.67-19.69 30.28-3.82 15.04-3.04 32.74 4.21 46.62 28.47 54.48 106.22 43.47 120.79-15.86q.77-3.12 2.26-6.22 3.17-6.57 4.66-13.82a.84.83 5.4 01.82-.67l149.21-.01a.65.64 80.5 01.61.44zm-93.508-249.021a.91.42 133.6 00.932-.37.91.42 133.6 00.324-.948.91.42 133.6 00-.932.37.91.42 133.6 00-.324.948z"/><path fill="#f9e4a9" d="M89.79 37.76A.26.25-87.3 0190 38l.01.26a.73.72-26 01-.2.5Q59.4 69.38 28.31 99.3q-1.07 1.03-1.85 1.51a.92.92 0 01-1.4-.76q-.63-21.95.29-43.08c.7-16.26 11.06-19.74 25.05-19.75q16.3-.01 32.6-.01 3.17 0 6.79.55z"/><path fill="#1f1e1d" d="M382.2 496.74l-149.21.01a.84.83 5.4 00-.82.67q-1.49 7.25-4.66 13.82-1.49 3.1-2.26 6.22c-14.57 59.33-92.32 70.34-120.79 15.86-7.25-13.88-8.03-31.58-4.21-46.62 2.45-9.61 11.4-24.31 19.69-30.28a.86.85-28.9 00.29-1c-9.82-25.62-17.74-48.79-31.03-75.72a1.13 1.13 0 00-.7-.59c-5.33-1.49-11.1-2.03-15.79-4.09-9.42-4.16-16.9-10.85-18.46-21.42-.45-3.05.55-6.14.75-9.36.4-6.53 12.08-15.86 17.1-19.45a1 .98-18.4 00.41-.8q.35-68.74 1.09-137.48.14-13.23 1.45-19.92c7.15-36.57 39.22-69.66 77.97-69.55 19.37.06 43.09 9.88 56.48 24.07q9.64 10.23 14.83 23.52c1.99 5.09 2.52 11.25 3.78 16.91a1.43 1.4 13.2 00.5.79c9.16 7.19 17.58 15.64 25.21 20.84 4.7 3.2 7.13 9.73 2.12 13.78-9.97 8.08-34.61 7.85-46.54 5.96-5.53-.88-27.64-5.08-19.27-15.56 4.21-5.27 11.82-9.8 16.41-15.92 2.52-3.36 5.58-6.46 7.52-10.21a1.66 1.65-35 00.17-.95q-.9-7.02-2.78-13.81c-.93-3.34-3.35-5.29-5.2-8.15-2.81-4.36-8.43-9.7-12.6-12.7-15.13-10.89-35.4-17.85-53.67-12.94-15.61 4.19-33.76 16.55-41.44 31.09-6.48 12.28-11 23.65-11.1 37.8q-.46 65.72-.77 132.7-.01 1.4 1 .42 7.39-7.18 13.72-15.3a1.39 1.39 0 01.83-.51c2.7-.56 7.9 1.85 10.47 2.95q6.77 2.87 9.47 9.7a.65.65 0 00.68.41c2.15-.25 4.12-.92 6.26-.93 7.44-.06 15.34-.75 22.29-.73q145.47.4 290.95.18c28.41-.04 61.62-1.93 90.65 11.55 10.05 4.67 21.09 13.53 24.39 24.21 2.22 7.18 1.87 17.3-4.86 22.33q-12.85 9.59-28.76 11.89a1.42 1.34 16.1 00-.83.43q-1.62 1.74-2.44 3.93c-8.34 22.09-20.78 41.96-31.13 63.1a.54.54 0 00.21.71c55.37 33.48 35.22 116.66-29.24 120.46-6.16.36-14.97-.88-21.04-2.84q-29.25-9.47-41.06-37.7c-2.33-5.58-6.49-10.44-9.47-15.76-2.74-4.89-4.18-10.14-5.95-15.58a.65.64 80.5 00-.61-.44zM247.65 191.26q-2.46-.51-4.67-1.33c-10.75-3.95-23.08-4.01-34.12-1.54-3.02.68-6.54 2.46-10.19 3a.48.48 0 00-.05.94q3.65.9 7.13 2.15c3.01 1.09 6.13.86 9.27 2.06a1.77 1.7-39.7 00.95.07c2.19-.45 4.49.42 6.2.41q13.26-.12 25.57-4.35a.73.73 0 00-.09-1.41zM114.857 314.204a4.14 3.17 58.6 00.549-5.186 4.14 3.17 58.6 00-4.863-1.882 4.14 3.17 58.6 00-.549 5.186 4.14 3.17 58.6 004.863 1.882zM94.1 318.55q4.34 3.13 7.27-.95a1.01 1 52.2 00.12-.97l-1.33-3.32a.49.49 0 00-.79-.18l-5.31 4.8a.4.39 41.7 00.04.62zm65.23 4.2q-.34 1.43-1.82 1.55-12.32 1.02-24.59 2.99a.51.51 0 00-.32.82q11.65 14.82 27.59 25.04c3.46 2.22 6.93 1.81 10.81 1.56l45 .25q3.64.28 7.21-.46 1.54.44 2.11.44 80.32.24 160.65-.17a1.39 1.36-65.1 00.9-.34l2.43-2.16a1.2 1.2 0 011.02-.28c4.75.93 8.89 3.02 13.83 3.01q44.67-.08 89.35.36c9.4.09 21.26-1.18 29.21-6.67 5.02-3.46-4.27-9.99-6.75-11.78q-11.14-8.02-24.76-10.63c-13-2.49-26.99-5.33-40.2-5.84-10.48-.41-20.7-.66-31.42-1.36q-18.81-1.22-30.58-1.29c-59.28-.35-120.85.05-170.68-.14-31.06-.12-62.28-.62-93.35.32a.69.69 0 00-.65.56l-.86 4.87a.44.44 0 00.51.51q17.49-2.82 35.36-1.16zm-54.618 11.224a4.01 3.27 51.4 00.054-5.174 4.01 3.27 51.4 00-5.058-1.094 4.01 3.27 51.4 00-.054 5.174 4.01 3.27 51.4 005.058 1.094zM376.48 373.83c5.06-.02 14.7.41 22.11-.09a.63.61 6.9 00.55-.42l1.04-3.11a.28.27 14.3 00-.21-.35q-5.92-1.33-4.29-6.98a.31.31 0 00-.3-.4q-103.86.07-207.82-.03c-27.37-.02-55.04-.43-80 0-8.39.15-17.08-.82-21.38-8.71a.53.52-26 00-.68-.23q-2.89 1.25-7.01-.3c-6.19-2.33-6.75-4.98-6.18-11.52q.41-4.56.02-9.13a.3.29-19.2 00-.46-.22c-10.15 6.98-16.1 21.21-5.05 30.89 10.01 8.76 32.8 10.47 45.69 10.52q131.98.54 263.97.08zm-296.43-30.9c1.54 1.58 9.61-4.13 11.46-5.13a.46.45-29.7 00.18-.64l-2.39-3.91a.51.51 0 00-.81-.08l-8.45 9.2a.41.4-46.6 00.01.56zm339.2 20.11q-8.21-.77-16.59-.43a.43.43 0 00-.36.62q1.67 3.23-.48 6.01-.13.16.08.15 4.07-.14 5.03 4.18a.54.53 83.1 00.52.41c28.77.1 56.61-.32 86.3.23l16-.25 14-1.25 7.74-1.24a.58.58 0 00.36-.92q-1.66-2.18-4.31-3.55-3.89-2.67-8.67-3.96-.95-.69-2.37-.68-45.28.38-90.57.13c-2.24-.01-4.46.3-6.68.55zm-319.04 23.21q.84 2.79 4.26 9.26c5.42 10.25 9.35 23.75 13.38 33.88q4.21 10.59 7.92 21.33a.42.42 0 00.61.23c13.26-7.5 25.51-11.8 41.07-10.6q19.5 1.51 36.27 14.19 1.74 2.77 4.24 4.71 11.51 12.03 16.49 27.93.15.49.06 1l-.18.91a.51.5 4.5 00.52.6l6.16-.25q67.61.56 135.24.02 13.37.09 26.75.02c1.29-.01 2.85-1.86 3.3-3.25q9.08-28.25 36.4-40.75l9.05-2.94q8.29-2.55 16.93-2.21a.72.71-77.7 00.69-.45c5.24-13.39 11.34-26.63 16.67-40.13q.67-.99.87-2.24a.43.43 0 00-.43-.5q-3.21.08-6.41-.03-30.42-1.03-60.88-2.05a1.3 1.3 0 00-.89.33l-3 2.74a.28.27 38.9 00.05.44l1.36.81c2.8 3.4 1.1 6.89-3.21 7.04-2.38-2.16-4.77-4.65-1.39-7.54a.88.86 65.2 00.29-.82q-.52-3.04-3.14-3.39-7.74-1.03-21.76-1.31-28.62-.57-57.25-.94c-24.41-1.3-48.8-2.28-73.25-3.58l-21.5-1.17q-8.76-.77-17.54-1.28c-17.51-1.02-34.93-2.48-52.46-3.05l-4.25-.17-22.59-.5q-11.29-1.53-22.81-1.34c-2.47.05-4.89-.41-7.35-.67a.34.34 0 00-.35.46l2.06 5.26zm67.29 63.65c3.65-.15 7.72.59 11.71.56q.51-.01.02-.16c-30.14-9.36-62.87 7.56-71.77 38.08-4.91 16.84-2.06 35.04 7.99 49.55a.19.19 0 00.33-.19q-6.59-13.33-7.11-28.11c-.38-10.69 3.37-25.32 9.86-34.1 12.68-17.19 28.09-24.82 48.97-25.63zm243.25 86.89q.17 1.21 1.02 1.88.69.53.29-.24l-1.02-1.93c-5.28-10.63-8.9-25.44-5.68-37.11 1.39-5.01 1.81-9.52 4.21-14.93 5.24-11.8 16.11-23.11 27.63-28.53 10.59-4.97 24.05-6.13 35.73-5.29q1.37.1 2.51 1.11a.35.35 0 00.57-.16c.23-.7-.18-1-.82-1.19q-26.21-7.61-48.28 6.49c-13.17 8.42-22.77 22.49-25.19 38.08-2.19 14.07.38 30.09 9.03 41.82zM192.9 467.53q-11.2-9.05-25.61-10.62a.38.37 86.1 00-.4.46c2 8.27 2.83 16.56 4.58 24.86a.34.33 66.4 00.52.21l20.9-14.64a.17.17 0 00.01-.27zm-58-1.47c5.78 5.66 11.36 10.3 18.92 13.55a.43.42 16 00.58-.32l4.01-21.84a.42.42 0 00-.45-.49q-12.71 1-23.01 8.37a.48.47 49.3 00-.05.73zm305.68-6.01a.5.5 0 00-.26.81l5.65 6.52a.5.5 0 00.84-.13l3.62-8.85a.5.5 0 00-.58-.67l-9.27 2.32zm-8.78 4.55c-7.22 4.74-14.38 11.99-17.44 20.71a.33.33 0 00.42.42q10.76-3.68 20.73-9.16a.9.89-23.6 00.42-1.06l-3.44-10.67a.46.45 63.9 00-.69-.24zm-271.71 17.9c1.9.5 3.71 1.49 5.61 2.11a.33.33 0 00.43-.35q-.52-4.79-1.41-9.54c-.55-2.94-.62-6.72-1.6-9.98a.34.34 0 00-.66.03c-1.09 5.5-2.95 11.91-2.69 17.34a.43.41-85.6 00.32.39zm314.75 1.33q4.35 2.06 8.85.41a.82.82 0 00.54-.74q.38-9.21-4.09-17.17a.65.65 0 00-1.08-.07c-3.76 5.08-3.63 9.96-5.05 15.83a1.54 1.53 19.7 00.83 1.74zm-33.457-11.642a1.68.76 59.5 00-.198-1.834 1.68.76 59.5 00-1.508-1.061 1.68.76 59.5 00.198 1.833 1.68.76 59.5 001.508 1.062zM204.04 543.52c18.27-20.19 19.83-47.94 5.67-70.87a.49.49 0 00-.87.44c4.9 12.18 8.02 25.65 6.25 38.47-1.56 11.3-6.56 24.58-15.63 32.13-6.82 5.68-16.11 12.49-24.74 14.88-11.33 3.14-24.08 1.73-35.18-1.71q-.46-.14-.21.27.19.32.74.51c22.71 7.79 47.47 4.1 63.97-14.12zm232.98 14.66q34.55 10.83 59.06-10.75c22.37-19.69 23.38-49.61 9.39-74.41a.41.41 0 00-.74.36c7.82 18.66 10.47 45.28-3.25 62.97-16.01 20.63-38.3 28.93-63.75 21.46q-.63-.18-.75-.13-.59.3.04.5zm-238.73-83.04l-1.25 1.86-8.2 11.78q-.29.41.21.43l10.46.28 7.76-.19a.4.4 0 00.37-.55l-2.35-6q-2.3-4.59-5.61-8.53a.6.6 0 00-.79-.12q-.38.26-.6 1.04zm-22.39 11.74l5.97 1.07a1.24 1.23-67.3 001.21-.5l7.99-11.35a.22.21 89.7 00-.3-.3l-14.92 10.86a.12.12 0 00.05.22zm289.18-6.07l3.09 1.16a.57.56 18.3 00.74-.37l.91-3.2a.47.46-16.5 00-.8-.43q-1.61 1.84-3.93 2.51a.17.17 0 00-.01.33zm-312.86 7.83q-6.88-4.38-14.6-7.13-.75-.27-.27.38l8.77 11.82a.72.71-32.5 00.92.2c1.42-.77 5.5-3.12 5.42-4.86a.53.5 16.5 00-.24-.41zm-20.61-4.89c-.75 4.11-.32 8.99 1.24 12.86a.67.66-17.1 00.76.4l6.35-1.33a.54.54 0 00.32-.85l-8.24-11.18q-.33-.45-.43.1zm335.43 3.07l-5.36-1.58a.7.7 0 00-.88.84q1.33 5.3 6.4 2.76.98-.48.44-1.53a1 .96-4.7 00-.6-.49zm27.08 23.26l10.4 5.59a.52.52 0 00.71-.22c3.48-6.86.69-20.68-1.48-27.76a.6.6 0 00-.84-.36l-3.69 1.85a1.07 1.06-9.5 00-.57.79q-1.59 10.03-4.7 19.68a.37.36-67.4 00.17.43zm-377.42-19.7c-1.16-.51-2.77 8.46-3 9.62a.58.58 0 00.71.67l3.36-.81a.68.67 72.5 00.47-.91q-1.56-3.89-1.24-8.09a.5.49 13.8 00-.3-.48zm45.16 2.33c-9.35.84-15.51 9.39-11.86 18.35.66 1.61 2.18 2.38 2.97 4.12a.17.17 0 00.21.09l.28-.09a.13.13 0 00.07-.18c-4.54-7.96 1.25-15.45 9.43-16.28a.48.48 0 00.43-.5l-.19-4.32a1.24 1.24 0 00-1.34-1.19zm288.08 2.73q-2.63 2.38-4.53 7.28c-1.69 4.34.23 8.65 2.97 12.01a.3.3 0 00.52-.28q-2.73-9.35 4.68-14.26c1.54-1.02 3.47-.9 5.28-1.04a.65.64 89 00.6-.63l.15-4.82a.62.6-87 00-.55-.63q-5.87-.59-9.12 2.37zm22.14 2.26q2.64 2.66 4.88 1.83c1.3-.48 4.97-3.24 6.47-4.82q.35-.37-.16-.34c-1.59.09-12.59-.27-11.85 2.21a2.67 2.57-76.6 00.66 1.12zm-42.143-.693a1.35.93 22.5 00-.891-1.376 1.35.93 22.5 00-1.603.342 1.35.93 22.5 00.891 1.376 1.35.93 22.5 001.603-.342zm-225.717.433a.42.42 0 00-.25-.77l-3.88.15a.42.42 0 00-.19.79l1.99 1.1a.42.42 0 00.44-.02l1.89-1.25zm206.07-.17c-.02 1.43-.57 4.58-.33 5.88q.14.77.66.17l5.04-5.82q.65-.75-.34-.75h-4.51a.52.52 0 00-.52.52zm13.67 3.72c-.3-.42-2.72-1.63-3.34-1.79a.83.83 0 00-.86.28l-7.6 9.41q-.86 1.06.31.34l11.14-6.84a1.03.95-33.1 00.35-1.4zm-212.87-1.08a2.34.44 5.4 00-2.289-.658 2.34.44 5.4 00-2.37.218 2.34.44 5.4 002.288.658 2.34.44 5.4 002.37-.218zm225.35.96c.46.78 2.54 1.62 3.44 1.63a1.04 1.04 0 00.98-1.44q-1.23-3-4.15-1.24a.77.77 0 00-.27 1.05zm-255.95.63c1.84 3.25 4.38 7.18 8.23 5.39a.73.72 69.6 00.39-.87l-1.01-3.33a1.1 1.1 0 00-.91-.76l-6.42-.85q-.56-.07-.28.42zm-41.34.21q.16-.29-.16-.26l-3.54.32q-2.19.19-.97 2.02c1.6 2.41 3.8-.53 4.67-2.08zm5.91 2.56q1.86-.16 1.38-2.16a.32.32 0 00-.47-.2q-.95.54-1.5 1.37-.72 1.1.59.99zm57.17-.08c-2.82-.48-5.12-.44-7.9-1.12a.51.5-86.9 00-.62.56l.25 1.92a.78.78 0 00.93.66l7.35-1.56q1.19-.25-.01-.46zm212.04 17.44l.19.25a.4.39 51.6 00.56.07q7.18-5.73 14.46-11.37c2.22-1.72 2.32-3.76 1.01-6.03a.57.57 0 00-.78-.2l-17.9 10.54a1.07 1.07 0 00-.53.81q-.48 3.93 2.94 5.89.03.02.05.04zm59.43-7.79a.53.52 55.6 00.74.14q2.78-1.97 3.83-5.23a1.1 1.08-52.4 00-.11-.92c-2.05-3.21-7.67 1.16-4.46 6.01zm-272.81 7.99c3.56-1.93 9.41-7.73 9.94-12.04a1.01 1.01 0 00-1.32-1.09q-6.1 2.01-12.5 2.37a.45.45 0 00-.4.6l3.47 9.85a.57.57 0 00.81.31zm-75.97 13.86a.22.22 0 00.35-.02l6.95-9.8a.64.63-51.6 00-.09-.83q-6.34-5.75-9.22-13.79a.87.86-3.6 00-.64-.56l-8.03-1.64a.44.43 2.5 00-.52.47q1.75 14.76 11.2 26.17zm313.32-17.8l2.23-8.02q.27-.94-.61-.52-5.27 2.53-3.23 8.58a.84.84 0 001.61-.04zm-245.43-1.7q-.63-1.49-.6-3.16a.69.68-87.8 00-.63-.69l-1.71-.13q-1.02-.08-.38.71l3.16 3.92q.94 1.17.61-.24-.07-.3-.45-.41zm-46.02 3.45q2.21 2.88 5.19.46a.79.77 63 00.26-.82l-1.24-4.49a.73.72-6.1 00-.66-.52l-3.61-.19a.84.82-74.4 00-.78.45l-1.23 2.4a.92.91-47.9 00.04.91q.47.73 1.24 1.13.47.25.79.67zm25.52 1.06l12.16 8.31a.8.79 46.6 00.83.03l1.22-.71a.5.49 57.2 00.15-.71l-9.06-12.95a1 .99 68.6 00-.95-.42l-1.55.19a.91.9-79.5 00-.68.47l-2.42 4.6a.92.92 0 00.3 1.19zm19.56 4.97c.57.7 1.02.79 1.79.33a.46.45-35.6 00.12-.69l-8.73-10.2q-.4-.47-.11.08 2.94 5.61 6.93 10.48zm299.28-8.89l3.77.97q1.1.28.36-.58-1.43-1.66-3.62-2.15c-1.09-.24-1.75.73-.82 1.59a.74.62 68.6 00.31.17zm-68.59 6.05a.19.19 0 00.2.32l8.69-3.11a.76.76 0 00.5-.8l-.24-2.17a.51.51 0 00-.76-.39q-4.61 2.52-8.39 6.15zm30.18-4.15c-4.65-.47-4.58 6.3-4.71 10.32a.45.44-2.3 00.49.45c5.83-.54 10.21-5.46 5.09-10.37a1.47 1.42-19.4 00-.87-.4zm-291.66 1.04c-3.7.83-3.11 5.75-.99 7.74a.68.68 0 001.15-.45l.38-6.83a.44.44 0 00-.54-.46zm303.74 2.74a1.21 1.21 0 00-1.21-1.21 1.21 1.21 0 00-1.21 1.21 1.21 1.21 0 001.21 1.21 1.21 1.21 0 001.21-1.21zm37.49 1.37c-4.83-1.14-10.42-1.23-15.5-2.14a.86.85-68.5 00-.87.38q-2.94 4.42-7.06 7.79a.79.78 62 00-.25.83l4.71 15.3a.42.42 0 00.62.24c9.19-5.67 13.51-13 18.76-21.39a.67.67 0 00-.41-1.01zm-60.02-1.17l-2.2 6.63a.69.69 0 00.46.88c2.44.7 2.55-6.28 2.39-7.45a.34.33-39.4 00-.65-.06zm-15.52 5.25l5.01 1.63a.51.51 0 00.67-.51l-.11-2.5a.62.61-10 00-.81-.56l-4.76 1.54q-.62.2 0 .4zm-251.73 1.95a.26.26 0 00.2-.43q-1.74-1.97-4.26-2.73a.53.53 0 00-.69.54l.12 2.01a.64.64 0 00.64.61h3.99zm-38.7-.36l-2.17 2.91q-.94 1.25.4.44l2.73-1.65a.69.69 0 00.17-1.03l-.57-.68a.36.36 0 00-.56.01zm-4.42 13.11q11.67 9.49 26.71 10.7a.34.33-3.2 00.36-.4l-2.39-11.62a.88.88 0 00-.6-.65q-7.02-2.07-13-6.27a1.22 1.21-45.2 00-1.4.01l-9.64 6.88a.85.85 0 00-.04 1.35zm340.21-8.04a.74.74 0 00-.42 1.17l3.4 4.43q.58.77.38-.18l-1.18-5.32a.6.59-13.1 00-.73-.45l-1.45.35zm-24.33 18.18c9.81 1.26 18.43.97 27.9-2.21a.45.45 0 00.22-.7l-8.69-11.67a.66.66 0 00-.85-.17q-6.51 3.75-13.96 4.77a1.01 1 8.4 00-.76.56l-4.21 8.78a.45.45 0 00.35.64zm-278.76-9.03a.8.8 0 00-.88.65l-1.46 8.31a.45.44-88 00.48.52q14.57-1.5 25.79-10.81a.62.62 0 00-.6-1.06q-11.34 3.84-23.33 2.39zm-6.3-1.11q-1.12 2.51.53.64a.26.26 0 00.06-.23l-.09-.37q-.19-.76-.5-.04zm265.22.96l10.55 6.12a.51.51 0 00.74-.3l1.21-4.38a.45.45 0 00-.43-.57q-6.03-.03-11.88-1.37a.27.27 0 00-.19.5zm5.85 13.22q1.2 1.06 1.8.9.12-.03.08-.07-.89-.82-1.8-1.01a.1.1 0 00-.08.18z"/><path fill="#a8a9a9" d="M247.65 191.26a.73.73 0 01.09 1.41q-12.31 4.23-25.57 4.35c-1.71.01-4.01-.86-6.2-.41a1.77 1.7-39.7 01-.95-.07c-3.14-1.2-6.26-.97-9.27-2.06q-3.48-1.25-7.13-2.15a.48.48 0 01.05-.94c3.65-.54 7.17-2.32 10.19-3 11.04-2.47 23.37-2.41 34.12 1.54q2.21.82 4.67 1.33zm-23.493.667a2.34 2.23 93 002.35-2.22 2.34 2.23 93 00-2.105-2.454 2.34 2.23 93 00-2.349 2.22 2.34 2.23 93 002.105 2.454zm16.653-2.237q-2.06-.75-3.12 1.34a.78.76-53.2 00.11.85c2.79 3.12 5.48-1.3 3.01-2.19zm-29.496.957a2.8 2.44-23.2 00-3.535-1.14 2.8 2.44-23.2 00-1.613 3.346 2.8 2.44-23.2 003.535 1.14 2.8 2.44-23.2 001.613-3.346zm22.376 2.267a2.65 2.35-1 00-2.691-2.304 2.65 2.35-1 00-2.609 2.396 2.65 2.35-1 002.691 2.304 2.65 2.35-1 002.609-2.396zm-14.93-2.004a1.5 1.49-54.1 00-1.95.32q-1.31 1.59-.87 3.29a1.78 1.77 76.4 002.11 1.29c3.48-.78 3.42-3.19.71-4.9zm24.74-.04l-.26 1.16a.45.45 0 00.84.3q.42-.8-.2-1.55a.22.22 0 00-.38.09z"/><ellipse transform="rotate(93 22.183 201.212)" rx="2.34" ry="2.23"/><path d="M240.81 189.69c2.47.89-.22 5.31-3.01 2.19a.78.76-53.2 01-.11-.85q1.06-2.09 3.12-1.34z"/><ellipse transform="rotate(-23.2 571.437 -412.576)" rx="2.8" ry="2.44"/><ellipse transform="rotate(-1 11171.033 -13140.8)" rx="2.65" ry="2.35"/><path d="M218.76 190.91c2.71 1.71 2.77 4.12-.71 4.9a1.78 1.77 76.4 01-2.11-1.29q-.44-1.7.87-3.29a1.5 1.49-54.1 011.95-.32z"/><path fill="#1f1e1d" d="M243.5 190.87a.22.22 0 01.38-.09q.62.75.2 1.55a.45.45 0 01-.84-.3l.26-1.16z"/><ellipse fill="#a8a9a9" transform="rotate(133.6 91.926 185.882)" rx=".91" ry=".42"/><ellipse fill="#a8a9a9" transform="rotate(58.6 -220.454 255.75)" rx="4.14" ry="3.17"/><path fill="#a8a9a9" d="M94.1 318.55a.4.39 41.7 01-.04-.62l5.31-4.8a.49.49 0 01.79.18l1.33 3.32a1.01 1 52.2 01-.12.97q-2.93 4.08-7.27.95z"/><path fill="#fff" d="M223.21 354.5q-.11-1.14-1.39-2.32c-5.43-5.02-14.35-14.32-17.27-22.05a.38.38 0 01.32-.51q3.97-.28 7.94-.24 48.33.45 96.63-.92c17.88-.5 35.51-2.31 53.26-4.25a.55.55 0 00-.02-1.09c-12.27-1.06-28.17-.31-36.76-.37q-73.31-.45-146.61-.51c-6.6 0-13.37.29-19.98.51q-17.87-1.66-35.36 1.16a.44.44 0 01-.51-.51l.86-4.87a.69.69 0 01.65-.56c31.07-.94 62.29-.44 93.35-.32 49.83.19 111.4-.21 170.68.14q11.77.07 30.58 1.29c10.72.7 20.94.95 31.42 1.36 13.21.51 27.2 3.35 40.2 5.84q13.62 2.61 24.76 10.63c2.48 1.79 11.77 8.32 6.75 11.78-7.95 5.49-19.81 6.76-29.21 6.67q-44.68-.44-89.35-.36c-4.94.01-9.08-2.08-13.83-3.01a1.2 1.2 0 00-1.02.28l-2.43 2.16a1.39 1.36-65.1 01-.9.34q-80.33.41-160.65.17-.57 0-2.11-.44z"/><path fill="#8f9294" d="M223.21 354.5q-3.57.74-7.21.46.39-.43.22-1.01a.66.66 0 00-.62-.47c-7.44-.14-15.15.31-22.08.2q-10.53-.17-21.06.02c-.72.01-1.23.36-1.46 1.01-3.88.25-7.35.66-10.81-1.56q-15.94-10.22-27.59-25.04a.51.51 0 01.32-.82q12.27-1.97 24.59-2.99 1.48-.12 1.82-1.55c6.61-.22 13.38-.51 19.98-.51q73.3.06 146.61.51c8.59.06 24.49-.69 36.76.37a.55.55 0 01.02 1.09c-17.75 1.94-35.38 3.75-53.26 4.25q-48.3 1.37-96.63.92-3.97-.04-7.94.24a.38.38 0 00-.32.51c2.92 7.73 11.84 17.03 17.27 22.05q1.28 1.18 1.39 2.32zM334.76 325a.23.11-71.6 00.01.07l.21.43a.43.42-37.5 00.7.09q.34-.4.32-.89a.48.47 83.8 00-.56-.46q-.58.11-.68.76z"/><path fill="#a8a9a9" d="M334.76 325q.1-.65.68-.76a.48.47 83.8 01.56.46q.02.49-.32.89a.43.42-37.5 01-.7-.09l-.21-.43a.23.11-71.6 01-.01-.07z"/><ellipse fill="#a8a9a9" transform="rotate(51.4 -292.612 271.608)" rx="4.01" ry="3.27"/><path fill="#fff" d="M376.48 373.83q-131.99.46-263.97-.08c-12.89-.05-35.68-1.76-45.69-10.52-11.05-9.68-5.1-23.91 5.05-30.89a.3.29-19.2 01.46.22q.39 4.57-.02 9.13c-.57 6.54-.01 9.19 6.18 11.52q4.12 1.55 7.01.3a.53.52-26 01.68.23c4.3 7.89 12.99 8.86 21.38 8.71 24.96-.43 52.63-.02 80 0q103.96.1 207.82.03a.31.31 0 01.3.4q-1.63 5.65 4.29 6.98a.28.27 14.3 01.21.35l-1.04 3.11a.63.61 6.9 01-.55.42c-7.41.5-17.05.07-22.11.09z"/><path fill="#a8a9a9" d="M91.51 337.8c-1.85 1-9.92 6.71-11.46 5.13a.41.4-46.6 01-.01-.56l8.45-9.2a.51.51 0 01.81.08l2.39 3.91a.46.45-29.7 01-.18.64zM216 354.96l-45-.25c.23-.65.74-1 1.46-1.01q10.53-.19 21.06-.02c6.93.11 14.64-.34 22.08-.2a.66.66 0 01.62.47q.17.58-.22 1.01z"/><path fill="#8f9294" d="M518.87 363.04q1.29 1.99 3.62 2.56a1.56 1.54 75.3 01.81.48q1.78 2 4.24.92 2.65 1.37 4.31 3.55a.58.58 0 01-.36.92l-7.74 1.24v-.44a.48.48 0 00-.52-.49c-2.48.15-12.04.52-13.48 2.18l-16 .25.23-.2a.24.24 0 00-.02-.38c-.24-.15-.72-.44-.99-.45q-19.07-.2-38.16-.19-2.48 0-4.79-.99c-5.73-2.47-11.51-5.05-17.63-6.28-4.53-.91-8.67-1.17-13.14-2.68 2.22-.25 4.44-.56 6.68-.55q45.29.25 90.57-.13 1.42-.01 2.37.68z"/><path fill="#fff" d="M419.25 363.04c4.47 1.51 8.61 1.77 13.14 2.68 6.12 1.23 11.9 3.81 17.63 6.28q2.31.99 4.79.99 19.09-.01 38.16.19c.27.01.75.3.99.45a.24.24 0 01.02.38l-.23.2c-29.69-.55-57.53-.13-86.3-.23a.54.53 83.1 01-.52-.41q-.96-4.32-5.03-4.18-.21.01-.08-.15 2.15-2.78.48-6.01a.43.43 0 01.36-.62q8.38-.34 16.59.43z"/><path fill="#a8a9a9" d="M518.87 363.04q4.78 1.29 8.67 3.96-2.46 1.08-4.24-.92a1.56 1.54 75.3 00-.81-.48q-2.33-.57-3.62-2.56zM523.75 372.71l-14 1.25c1.44-1.66 11-2.03 13.48-2.18a.48.48 0 01.52.49v.44z"/><path fill="#8f9294" d="M128.66 382.54q8.34 1.4 20.84 1.22 1.47-.02 1.75-.72l4.25.17-1.04.08a.22.22 0 00-.21.21l-.01.3a.33.32 1.6 00.33.34c9.9-.03 20.5 1.38 29.48 1.83q5.5.27 10.98.74c6.7.56 15.31.57 22.96 1.8q2.76.44 7.34-.1a.45.43 82.9 00.38-.5q-.04-.27-.21-.37l21.5 1.17q1.68 1.31 5.26 1.51 33.8 1.8 67.65 2.7a.33.33 0 00.34-.34v-.29q28.63.37 57.25.94 14.02.28 21.76 1.31 2.62.35 3.14 3.39a.88.86 65.2 01-.29.82c-3.38 2.89-.99 5.38 1.39 7.54v.42l-1.79.72a1.4 1.33-85.4 00-.69.62q-1.61 2.95.59 5.28a.91.91 0 01.12 1.09l-1.22 2.04a1.11 1.11 0 00-.13.77l1.25 6.28q-2.31-.59-2.83 1a.77.76-84.5 01-.63.53c-1.99.24-3.64-.68-5.36-.78-4.21-.24-7.04-1.1-11.18 1.72a1.74 1.66-7.2 00-.61.75c-1.81 4.43.18 6.96-.02 11.08-.2 4.13-.01 9.05 3.27 12.16q3.84 3.65 8.49 4.11 3.46.64 6.83-.19c4.68-1.16 8.54-1.45 12.67-2.85q3.28.3 3.68-3.34 1.1-10.33-7.57-15.87a.91.9-74.2 01-.41-.74q-.02-1.81 1.03-3.32a1.3 1.29 61.3 00.23-.8c-.05-1.39-.57-6-2.22-5.76l.54-.71q.8.23 1.16-.37a1.28 1.28 0 00.12-.99q-1.03-3.48.66-6.72a1.02 1-45.6 000-.93q-1.19-2.3-1.29-4.81a1.68 1.63-31.4 01.25-.97q2.21-3.52-.19-6.87a.86.85 66.1 00-.88-.35q-.49.11-.66.76l-1.36-.81a.28.27 38.9 01-.05-.44l3-2.74a1.3 1.3 0 01.89-.33q30.46 1.02 60.88 2.05 3.2.11 6.41.03a.43.43 0 01.43.5q-.2 1.25-.87 2.24-.29-.26-.62-.29a.63.62 9.6 00-.67.47c-.93 3.63-3.05 6.94-4.2 10.03-2.28 6.09-5.4 11.77-7.5 17.78q-1.55 4.42-3.32 8.76c-.82 2.02-1.4 2.73-3.78 2.7q-7.25-.08-14.24 1.77a.69.68 83.3 00-.51.65q-.01.57.55.92l-9.05 2.94q-10.22 1.3-16.82 8.84-2 2.29-4.12 3.94-7.42 5.77-11.31 14.5-.21.47-.61.77c-3.15 2.41-4.25 8.44-5.28 12.19a1.14 1.13 84 01-.58.72c-6.73 3.59-23.98-.92-27.73 3.02q-67.63.54-135.24-.02-.2-2-2.28-1.03a1.32 1.31 64.8 01-1.74-.63c-5.09-10.81-9.05-20.36-17.72-28.79q-.78-.75-1.31.26-2.5-1.94-4.24-4.71-11.67-10.92-27.34-14.12c-3.43-.7-8.83-7.9-11.82-10.49q-27.8-24.13-60.99-40.06c-1.72-.82-2-1.85-2.47-3.55a.47.47 0 00-.55-.34q-.24.05-.34.27l-2.06-5.26a.34.34 0 01.35-.46c2.46.26 4.88.72 7.35.67q11.52-.19 22.81 1.34z"/><path fill="#a8a9a9" d="M128.66 382.54l22.59.5q-.28.7-1.75.72-12.5.18-20.84-1.22zM155.5 383.21c17.53.57 34.95 2.03 52.46 3.05q8.78.51 17.54 1.28.17.1.21.37a.45.43 82.9 01-.38.5q-4.58.54-7.34.1c-7.65-1.23-16.26-1.24-22.96-1.8q-5.48-.47-10.98-.74c-8.98-.45-19.58-1.86-29.48-1.83a.33.32 1.6 01-.33-.34l.01-.3a.22.22 0 01.21-.21l1.04-.08z"/><path fill="#fff" d="M203.72 454.54q-16.77-12.68-36.27-14.19c-15.56-1.2-27.81 3.1-41.07 10.6a.42.42 0 01-.61-.23q-3.71-10.74-7.92-21.33c-4.03-10.13-7.96-23.63-13.38-33.88q-3.42-6.47-4.26-9.26.1-.22.34-.27a.47.47 0 01.55.34c.47 1.7.75 2.73 2.47 3.55q33.19 15.93 60.99 40.06c2.99 2.59 8.39 9.79 11.82 10.49q15.67 3.2 27.34 14.12z"/><path fill="#a8a9a9" d="M247 388.71c24.45 1.3 48.84 2.28 73.25 3.58v.29a.33.33 0 01-.34.34q-33.85-.9-67.65-2.7-3.58-.2-5.26-1.51zM407.54 420.5q.73-3.23-1.58-5.63a.41.4 50.8 01.06-.62c3.74-2.53 1.52-7.39-2.52-7.54v-.42c4.31-.15 6.01-3.64 3.21-7.04q.17-.65.66-.76a.86.85 66.1 01.88.35q2.4 3.35.19 6.87a1.68 1.63-31.4 00-.25.97q.1 2.51 1.29 4.81a1.02 1-45.6 010 .93q-1.69 3.24-.66 6.72a1.28 1.28 0 01-.12.99q-.36.6-1.16.37zM476.04 399.75c-5.33 13.5-11.43 26.74-16.67 40.13a.72.71-77.7 01-.69.45q-8.64-.34-16.93 2.21-.56-.35-.55-.92a.69.68 83.3 01.51-.65q6.99-1.85 14.24-1.77c2.38.03 2.96-.68 3.78-2.7q1.77-4.34 3.32-8.76c2.1-6.01 5.22-11.69 7.5-17.78 1.15-3.09 3.27-6.4 4.2-10.03a.63.62 9.6 01.67-.47q.33.03.62.29z"/><path fill="#1f1e1d" d="M403.5 406.71c4.04.15 6.26 5.01 2.52 7.54a.41.4 50.8 00-.06.62q2.31 2.4 1.58 5.63l-.54.71q-.78-.01-1.41.45a.41.4-43.4 00-.02.64c2.57 2.13 3.67 5.34.16 7.31-2.37 1.33-5.7.12-8.16 1.7-3.66 2.34.44 5.69 3.12 6.28 3.94.87 4.2-2.17 4.96-4.82a.39.38-66.6 01.57-.23c6.53 3.92 10.82 11.36 6.04 18.5-4.13 1.4-7.99 1.69-12.67 2.85q-3.37.83-6.83.19-2.55-2.21-5.14-3.98c-6.25-4.27-5.05-10.37-5.81-17.02-.49-4.23-.2-6.89 4.52-7.48q7.24-.92 13.04 2.42c.4.23.81.64 1.32.39a.38.38 0 00.11-.61q-2.08-2.2.83-4.29l-1.25-6.28a1.11 1.11 0 01.13-.77l1.22-2.04a.91.91 0 00-.12-1.09q-2.2-2.33-.59-5.28a1.4 1.33-85.4 01.69-.62l1.79-.72z"/><path fill="#a8a9a9" d="M407 421.21c1.65-.24 2.17 4.37 2.22 5.76a1.3 1.29 61.3 01-.23.8q-1.05 1.51-1.03 3.32a.91.9-74.2 00.41.74q8.67 5.54 7.57 15.87-.4 3.64-3.68 3.34c4.78-7.14.49-14.58-6.04-18.5a.39.38-66.6 00-.57.23c-.76 2.65-1.02 5.69-4.96 4.82-2.68-.59-6.78-3.94-3.12-6.28 2.46-1.58 5.79-.37 8.16-1.7 3.51-1.97 2.41-5.18-.16-7.31a.41.4-43.4 01.02-.64q.63-.46 1.41-.45z"/><path fill="#a8a9a9" d="M401.63 423.51q-2.91 2.09-.83 4.29a.38.38 0 01-.11.61c-.51.25-.92-.16-1.32-.39q-5.8-3.34-13.04-2.42c-4.72.59-5.01 3.25-4.52 7.48.76 6.65-.44 12.75 5.81 17.02q2.59 1.77 5.14 3.98-4.65-.46-8.49-4.11c-3.28-3.11-3.47-8.03-3.27-12.16.2-4.12-1.79-6.65.02-11.08a1.74 1.66-7.2 01.61-.75c4.14-2.82 6.97-1.96 11.18-1.72 1.72.1 3.37 1.02 5.36.78a.77.76-84.5 00.63-.53q.52-1.59 2.83-1zM432.7 445.48q-27.32 12.5-36.4 40.75c-.45 1.39-2.01 3.24-3.3 3.25q-13.38.07-26.75-.02c3.75-3.94 21 .57 27.73-3.02a1.14 1.13 84 00.58-.72c1.03-3.75 2.13-9.78 5.28-12.19q.4-.3.61-.77 3.89-8.73 11.31-14.5 2.12-1.65 4.12-3.94 6.6-7.54 16.82-8.84zM167.5 449.9c-20.88.81-36.29 8.44-48.97 25.63-6.49 8.78-10.24 23.41-9.86 34.1q.52 14.78 7.11 28.11a.19.19 0 01-.33.19c-10.05-14.51-12.9-32.71-7.99-49.55 8.9-30.52 41.63-47.44 71.77-38.08q.49.15-.02.16c-3.99.03-8.06-.71-11.71-.56z"/><path fill="#a8a9a9" d="M411.04 536.5l-.29.29c-8.65-11.73-11.22-27.75-9.03-41.82 2.42-15.59 12.02-29.66 25.19-38.08q22.07-14.1 48.28-6.49c.64.19 1.05.49.82 1.19a.35.35 0 01-.57.16q-1.14-1.01-2.51-1.11c-11.68-.84-25.14.32-35.73 5.29-11.52 5.42-22.39 16.73-27.63 28.53-2.4 5.41-2.82 9.92-4.21 14.93-3.22 11.67.4 26.48 5.68 37.11z"/><path fill="#fff" d="M192.9 467.53a.17.17 0 01-.01.27l-20.9 14.64a.34.33 66.4 01-.52-.21c-1.75-8.3-2.58-16.59-4.58-24.86a.38.37 86.1 01.4-.46q14.41 1.57 25.61 10.62zM153.82 479.61c-7.56-3.25-13.14-7.89-18.92-13.55a.48.47 49.3 01.05-.73q10.3-7.37 23.01-8.37a.42.42 0 01.45.49l-4.01 21.84a.43.42 16 01-.58.32z"/><path fill="#a8a9a9" d="M440.58 460.05l9.27-2.32a.5.5 0 01.58.67l-3.62 8.85a.5.5 0 01-.84.13l-5.65-6.52a.5.5 0 01.26-.81zM231.01 489.44l-6.16.25a.51.5 4.5 01-.52-.6l.18-.91q.09-.51-.06-1-4.98-15.9-16.49-27.93.53-1.01 1.31-.26c8.67 8.43 12.63 17.98 17.72 28.79a1.32 1.31 64.8 001.74.63q2.08-.97 2.28 1.03z"/><path fill="#8f9294" d="M414.36 485.31c3.06-8.72 10.22-15.97 17.44-20.71a.46.45 63.9 01.69.24l3.44 10.67a.9.89-23.6 01-.42 1.06q-9.97 5.48-20.73 9.16a.33.33 0 01-.42-.42z"/><path fill="#fff" d="M165.7 484.61c-1.9-.62-3.71-1.61-5.61-2.11a.43.41-85.6 01-.32-.39c-.26-5.43 1.6-11.84 2.69-17.34a.34.34 0 01.66-.03c.98 3.26 1.05 7.04 1.6 9.98q.89 4.75 1.41 9.54a.33.33 0 01-.43.35z"/><path fill="#fcfddf" d="M474.84 483.83a1.54 1.53 19.7 01-.83-1.74c1.42-5.87 1.29-10.75 5.05-15.83a.65.65 0 011.08.07q4.47 7.96 4.09 17.17a.82.82 0 01-.54.74q-4.5 1.65-8.85-.41z"/><ellipse fill="#a8a9a9" transform="rotate(59.5 -191.547 620.754)" rx="1.68" ry=".76"/><path fill="#a8a9a9" d="M209.71 472.65c14.16 22.93 12.6 50.68-5.67 70.87-16.5 18.22-41.26 21.91-63.97 14.12q-.55-.19-.74-.51-.25-.41.21-.27c11.1 3.44 23.85 4.85 35.18 1.71 8.63-2.39 17.92-9.2 24.74-14.88 9.07-7.55 14.07-20.83 15.63-32.13 1.77-12.82-1.35-26.29-6.25-38.47a.49.49 0 01.87-.44zM437.02 558.18q-.63-.2-.04-.5.12-.05.75.13c25.45 7.47 47.74-.83 63.75-21.46 13.72-17.69 11.07-44.31 3.25-62.97a.41.41 0 01.74-.36c13.99 24.8 12.98 54.72-9.39 74.41q-24.51 21.58-59.06 10.75z"/><path fill="#a8a9a9" d="M205.29 482.75l-.09.39q-.29 1.22-.9.12-2.46-4.46-6.01-8.12.22-.78.6-1.04a.6.6 0 01.79.12q3.31 3.94 5.61 8.53z"/><path fill="#8f9294" d="M198.29 475.14q3.55 3.66 6.01 8.12.61 1.1.9-.12l.09-.39 2.35 6a.4.4 0 01-.37.55l-7.76.19q-.32-6.48-2.47-12.49l1.25-1.86z"/><path fill="#fff" d="M175.9 486.88a.12.12 0 01-.05-.22l14.92-10.86a.22.21 89.7 01.3.3l-7.99 11.35a1.24 1.23-67.3 01-1.21.5l-5.97-1.07zM197.04 477q2.15 6.01 2.47 12.49l-10.46-.28q-.5-.02-.21-.43l8.2-11.78zM465.08 480.81a.17.17 0 01.01-.33q2.32-.67 3.93-2.51a.47.46-16.5 01.8.43l-.91 3.2a.57.56 18.3 01-.74.37l-3.09-1.16z"/><path fill="#fcfddf" d="M152.22 488.64a.53.5 16.5 01.24.41c.08 1.74-4 4.09-5.42 4.86a.72.71-32.5 01-.92-.2l-8.77-11.82q-.48-.65.27-.38 7.72 2.75 14.6 7.13zM132.85 496.61c-1.56-3.87-1.99-8.75-1.24-12.86q.1-.55.43-.1l8.24 11.18a.54.54 0 01-.32.85l-6.35 1.33a.67.66-17.1 01-.76-.4z"/><path fill="#fff" d="M467.04 486.82a1 .96-4.7 01.6.49q.54 1.05-.44 1.53-5.07 2.54-6.4-2.76a.7.7 0 01.88-.84l5.36 1.58z"/><path fill="#fcfddf" d="M494.12 510.08a.37.36-67.4 01-.17-.43q3.11-9.65 4.7-19.68a1.07 1.06-9.5 01.57-.79l3.69-1.85a.6.6 0 01.84.36c2.17 7.08 4.96 20.9 1.48 27.76a.52.52 0 01-.71.22l-10.4-5.59z"/><path fill="#fff" d="M113.7 500c.23-1.16 1.84-10.13 3-9.62a.5.49 13.8 01.3.48q-.32 4.2 1.24 8.09a.68.67 72.5 01-.47.91l-3.36.81a.58.58 0 01-.71-.67z"/><path fill="#a8a9a9" d="M150 511.06c-3.65-8.96 2.51-17.51 11.86-18.35a1.24 1.24 0 011.34 1.19l.19 4.32a.48.48 0 01-.43.5c-8.18.83-13.97 8.32-9.43 16.28a.13.13 0 01-.07.18l-.28.09a.17.17 0 01-.21-.09c-.79-1.74-2.31-2.51-2.97-4.12zM449.94 495.44q3.25-2.96 9.12-2.37a.62.6-87 01.55.63l-.15 4.82a.65.64 89 01-.6.63c-1.81.14-3.74.02-5.28 1.04q-7.41 4.91-4.68 14.26a.3.3 0 01-.52.28c-2.74-3.36-4.66-7.67-2.97-12.01q1.9-4.9 4.53-7.28z"/><path fill="#fcfddf" d="M472.08 497.7a2.67 2.57-76.6 01-.66-1.12c-.74-2.48 10.26-2.12 11.85-2.21q.51-.03.16.34c-1.5 1.58-5.17 4.34-6.47 4.82q-2.24.83-4.88-1.83z"/><ellipse fill="#a8a9a9" transform="rotate(22.5 -1033.667 1325.83)" rx="1.35" ry=".93"/><path fill="#a8a9a9" d="M204.22 497.44l-1.89 1.25a.42.42 0 01-.44.02l-1.99-1.1a.42.42 0 01.19-.79l3.88-.15a.42.42 0 01.25.77z"/><path fill="#fff" d="M409.96 503.15c-.24-1.3.31-4.45.33-5.88a.52.52 0 01.52-.52h4.51q.99 0 .34.75l-5.04 5.82q-.52.6-.66-.17zM420.62 499.2c.62.16 3.04 1.37 3.34 1.79a1.03.95-33.1 01-.35 1.4l-11.14 6.84q-1.17.72-.31-.34l7.6-9.41a.83.83 0 01.86-.28z"/><ellipse fill="#a8a9a9" transform="rotate(5.4 -5193.57 2463.218)" rx="2.34" ry=".44"/><path fill="#fff" d="M439.88 502.5c-.9-.01-2.98-.85-3.44-1.63a.77.77 0 01.27-1.05q2.92-1.76 4.15 1.24a1.04 1.04 0 01-.98 1.44z"/><path fill="#fcfddf" d="M188.72 506.89c-3.85 1.79-6.39-2.14-8.23-5.39q-.28-.49.28-.42l6.42.85a1.1 1.1 0 01.91.76l1.01 3.33a.73.72 69.6 01-.39.87z"/><path fill="#fff" d="M139.15 501.71c-.87 1.55-3.07 4.49-4.67 2.08q-1.22-1.83.97-2.02l3.54-.32q.32-.03.16.26z"/><path fill="#8f9294" d="M144.47 503.28q.55-.83 1.5-1.37a.32.32 0 01.47.2q.48 2-1.38 2.16-1.31.11-.59-.99z"/><path fill="#fff" d="M194.33 503.07c2.78.68 5.08.64 7.9 1.12q1.2.21.01.46l-7.35 1.56a.78.78 0 01-.93-.66l-.25-1.92a.51.5-86.9 01.62-.56z"/><path fill="#fcfddf" d="M414.22 521.59q-3.42-1.96-2.94-5.89a1.07 1.07 0 01.53-.81l17.9-10.54a.57.57 0 01.78.2c1.31 2.27 1.21 4.31-1.01 6.03q-7.28 5.64-14.46 11.37a.4.39 51.6 01-.56-.07l-.19-.25q-.02-.02-.05-.04z"/><path fill="#fff" d="M473.7 513.84c-3.21-4.85 2.41-9.22 4.46-6.01a1.1 1.08-52.4 01.11.92q-1.05 3.26-3.83 5.23a.53.52 55.6 01-.74-.14z"/><path fill="#fcfddf" d="M210.83 509.79c-.53 4.31-6.38 10.11-9.94 12.04a.57.57 0 01-.81-.31l-3.47-9.85a.45.45 0 01.4-.6q6.4-.36 12.5-2.37a1.01 1.01 0 011.32 1.09zM124.92 535.69q-9.45-11.41-11.2-26.17a.44.43 2.5 01.52-.47l8.03 1.64a.87.86-3.6 01.64.56q2.88 8.04 9.22 13.79a.64.63-51.6 01.09.83l-6.95 9.8a.22.22 0 01-.35.02z"/><path fill="#fff" d="M438.24 517.89a.84.84 0 01-1.61.04q-2.04-6.05 3.23-8.58.88-.42.61.52l-2.23 8.02zM192.81 516.19q.38.11.45.41.33 1.41-.61.24l-3.16-3.92q-.64-.79.38-.71l1.71.13a.69.68-87.8 01.63.69q-.03 1.67.6 3.16zM146 518.97q-.77-.4-1.24-1.13a.92.91-47.9 01-.04-.91l1.23-2.4a.84.82-74.4 01.78-.45l3.61.19a.73.72-6.1 01.66.52l1.24 4.49a.79.77 63 01-.26.82q-2.98 2.42-5.19-.46-.32-.42-.79-.67z"/><path fill="#fcfddf" d="M172.31 520.7a.92.92 0 01-.3-1.19l2.42-4.6a.91.9-79.5 01.68-.47l1.55-.19a1 .99 68.6 01.95.42l9.06 12.95a.5.49 57.2 01-.15.71l-1.22.71a.8.79 46.6 01-.83-.03l-12.16-8.31z"/><path fill="#fff" d="M191.87 525.67q-3.99-4.87-6.93-10.48-.29-.55.11-.08l8.73 10.2a.46.45-35.6 01-.12.69c-.77.46-1.22.37-1.79-.33z"/><path fill="#a8a9a9" d="M491.15 516.78a.74.62 68.6 01-.31-.17c-.93-.86-.27-1.83.82-1.59q2.19.49 3.62 2.15.74.86-.36.58l-3.77-.97z"/><path fill="#fff" d="M422.56 522.83q3.78-3.63 8.39-6.15a.51.51 0 01.76.39l.24 2.17a.76.76 0 01-.5.8l-8.69 3.11a.19.19 0 01-.2-.32z"/><path fill="#fcfddf" d="M448.03 529c.13-4.02.06-10.79 4.71-10.32a1.47 1.42-19.4 01.87.4c5.12 4.91.74 9.83-5.09 10.37a.45.44-2.3 01-.49-.45z"/><path fill="#fff" d="M160.09 527.46c-2.12-1.99-2.71-6.91.99-7.74a.44.44 0 01.54.46l-.38 6.83a.68.68 0 01-1.15.45z"/><circle fill="#fff" cx="463.61" cy="522.46" r="1.21"/><path fill="#fcfddf" d="M486.81 521.69c5.08.91 10.67 1 15.5 2.14a.67.67 0 01.41 1.01c-5.25 8.39-9.57 15.72-18.76 21.39a.42.42 0 01-.62-.24l-4.71-15.3a.79.78 62 01.25-.83q4.12-3.37 7.06-7.79a.86.85-68.5 01.87-.38z"/><path fill="#fff" d="M442.29 522.66a.34.33-39.4 01.65.06c.16 1.17.05 8.15-2.39 7.45a.69.69 0 01-.46-.88l2.2-6.63zM426.77 527.91q-.62-.2 0-.4l4.76-1.54a.62.61-10 01.81.56l.11 2.5a.51.51 0 01-.67.51l-5.01-1.63zM175.04 529.86h-3.99a.64.64 0 01-.64-.61l-.12-2.01a.53.53 0 01.69-.54q2.52.76 4.26 2.73a.26.26 0 01-.2.43z"/><path fill="#fcfddf" d="M136.34 529.5a.36.36 0 01.56-.01l.57.68a.69.69 0 01-.17 1.03l-2.73 1.65q-1.34.81-.4-.44l2.17-2.91zM131.92 542.61a.85.85 0 01.04-1.35l9.64-6.88a1.22 1.21-45.2 011.4-.01q5.98 4.2 13 6.27a.88.88 0 01.6.65l2.39 11.62a.34.33-3.2 01-.36.4q-15.04-1.21-26.71-10.7z"/><path fill="#fff" d="M472.13 534.57l1.45-.35a.6.59-13.1 01.73.45l1.18 5.32q.2.95-.38.18l-3.4-4.43a.74.74 0 01.42-1.17z"/><path fill="#8f9294" d="M411.04 536.5l1.02 1.93q.4.77-.29.24-.85-.67-1.02-1.88l.29-.29z"/><path fill="#fcfddf" d="M475.7 550.54c-9.47 3.18-18.09 3.47-27.9 2.21a.45.45 0 01-.35-.64l4.21-8.78a1.01 1 8.4 01.76-.56q7.45-1.02 13.96-4.77a.66.66 0 01.85.17l8.69 11.67a.45.45 0 01-.22.7zM169.04 543.72q11.99 1.45 23.33-2.39a.62.62 0 01.6 1.06q-11.22 9.31-25.79 10.81a.45.44-88 01-.48-.52l1.46-8.31a.8.8 0 01.88-.65z"/><path fill="#a8a9a9" d="M163.24 542.65l.09.37a.26.26 0 01-.06.23q-1.65 1.87-.53-.64.31-.72.5.04z"/><path fill="#fff" d="M427.96 543.57a.27.27 0 01.19-.5q5.85 1.34 11.88 1.37a.45.45 0 01.43.57l-1.21 4.38a.51.51 0 01-.74.3l-10.55-6.12z"/><path fill="#a8a9a9" d="M433.81 556.79a.1.1 0 01.08-.18q.91.19 1.8 1.01.04.04-.08.07-.6.16-1.8-.9z"/><path fill="#fcfddf" d="M590.29 589.75l.71.31v.94h-1.06l-.19-.71.54-.54z"/><path fill="#1f1e1d" d="M0 589.94l.25.1c-.15.47-.01.72.51.7q5.85-.17 11.68.26H0v-1.06z"/><path fill="#a8a9a9" d="M.25 590.04q2.91.08 5.81.08 291.85.12 583.69.17l.19.71h-1.75q-2.25-.63-4.5 0H464.44q-3.25-.63-6.5 0H176.19q-3.13-.63-6.25 0h-1.5q-2.25-.63-4.5 0H12.44q-5.83-.43-11.68-.26c-.52.02-.66-.23-.51-.7z"/><path fill="#8f9294" d="M168.44 591h-4.5q2.25-.63 4.5 0zM176.19 591h-6.25q3.12-.63 6.25 0zM464.44 591h-6.5q3.25-.63 6.5 0z"/><path fill="#1f1e1d" d="M588.19 591h-4.5q2.25-.63 4.5 0z"/></svg>