<svg xmlns="http://www.w3.org/2000/svg" viewBox="0 0 591 591"><g stroke-width="2" fill="none"><path stroke="#cccecf" vector-effect="non-scaling-stroke" d="M591 2.56q-.28-2.76-.76-1.81"/><path stroke="#4c4e4f" vector-effect="non-scaling-stroke" d="M590.24.75q-1.47.03-2.24.03Q294 .97 0 .94"/><path stroke="gray" vector-effect="non-scaling-stroke" d="M0 589.94q4.25.17 8.5.18 290.59.13 581.08.13a.68.67 90 00.67-.68L590.24.75"/><path stroke="#7e7f71" vector-effect="non-scaling-stroke" d="M585.5 5.52a.26.26 0 00-.26-.26H5.5a.26.26 0 00-.26.26v579.72a.26.26 0 00.26.26h579.74a.26.26 0 00.26-.26V5.52"/><path stroke="#fbf2c8" vector-effect="non-scaling-stroke" d="M73.31 39.31q9.47-9.45 13.52-14.14a.56.56 0 00-.02-.76q-1.13-1.15-3.57-1.16-20.37-.04-40.74.34c-14.6.27-19.99 9.26-20.01 22.66q-.01 20.59.03 40.62a1.33 1.33 0 002.27.94q24.38-24.39 48.52-48.5"/><path stroke="#8f9081" vector-effect="non-scaling-stroke" d="M148.5 124.54q-1.35-.05-1.34 1.47.17 20.08.43 40.18.02 1.67 1.12 2.06"/><path stroke="#7e7f71" vector-effect="non-scaling-stroke" d="M148.71 168.25l4.31 3.4a1.13 1.11-73.6 01.42.79c.19 2.04.49 4.27.45 6.28q-.73 37.76-.6 75.53"/><path stroke="#8f9081" vector-effect="non-scaling-stroke" d="M153.29 254.25v7.6a1.5 1.47 65.3 01-.34.95q-7.18 8.48-7.31 19.65a.8.79 80.1 01-.52.75q-12.57 4.62-24.53 10.56c-14.8 7.34-30.95 15.53-37.37 30.57a1.43 1.38-3.7 01-.64.7q-6.91 3.71-13.41 8.14-2.67 1.83-1.14 4.66a1.03 1.02 80.4 00.74.53c5.97.95 13.2-7.67 19.85-7.49 23.18.63 45.47-15.42 64.2-27.86q.41-.28.41.22c-.11 22.66-.23 45.3-.03 67.95.13 15.87-.51 32.23-.39 47.57q.45 57.33-.05 114.49a1.41 1.41 0 00.62 1.17l14.12 9.55"/><path stroke="#fdfff0" vector-effect="non-scaling-stroke" d="M167.5 543.96q4.57.69 8.75-1.25"/><path stroke="#cacdc0" vector-effect="non-scaling-stroke" d="M176.25 542.71c62.98-11.75 123.58-23.55 189.02-35.38q2.77-.5 6.36-1.49 3.15-.87 6.35-1.58"/><path stroke="#8f9081" vector-effect="non-scaling-stroke" d="M377.98 504.26c-12.61 7.98-26.44 14.35-33.04 28.51a1.54 1.52 88.3 01-.64.69q-6.55 3.66-12.73 7.95c-1.71 1.2-2.49 2.27-1.55 4.31a2.07 2.06-23.3 002.65 1.05q7.13-2.91 13.99-6.4c1.56-.79 2.35-1.89 4.21-.78a1.93 1.88 59.2 00.94.25c24.72-.32 43.02-16.75 63.24-28.08a1.05 1.04-47.9 01.9-.05c21.44 8.94 40.84.13 53.06-18.27a.58.58 0 00-.18-.82l-14.84-8.91a1.78 1.76-87.2 01-.7-.78l-2.44-5.28a1.36 1.34-89.5 00-.62-.64l-.98-.5a.77.77 0 01-.39-.86q1.23-5.16 1.2-10.44c-.01-3.24.61-6.51.54-9.83a.51.51 0 00-.52-.49q-13.8.3-25.66 7.6"/><path stroke="#fdfff0" vector-effect="non-scaling-stroke" d="M424.42 462.49q-2.5-5.9-2.9-12.24c-1.11-17.54-3.79-34.97-4.87-52.48q-1.15-18.77-2.13-37.54c-.78-14.97-.74-30.65-1.16-45.98q-.59-21.97-.23-43.94.27-16.2-.41-41.41"/><path stroke="#8f9081" vector-effect="non-scaling-stroke" d="M412.72 228.9c22.27-.62 45.41-16.04 63.15-28.58a.89.88 38.1 01.86-.1q24.98 9.86 44.23-6.97c3.4-2.97 6.42-7.19 9.52-10.9a.58.58 0 00-.14-.86l-15.69-9.75a1 1 0 01-.45-.71q-.42-3.22-2.61-5.56a1.14 1.14 0 01-.31-.83l1.1-20.3a.58.58 0 00-.58-.61c-21 .03-41.64 13.97-43.2 36.24a.7.68-8.9 01-.44.59c-17.23 6.53-36.87 15.16-51.12 26.94"/><path stroke="#fdfff0" vector-effect="non-scaling-stroke" d="M417.04 207.5q-.71-1.84-2.22-1.76a2.04 2.03 87.8 01-2.14-1.99q-.51-24.79 1.82-48.96"/><path stroke="#8f9081" vector-effect="non-scaling-stroke" d="M414.5 154.79c.43 0 .66-.16.67-.61q.35-19.85.35-39.74a.9.89-74.3 00-.42-.76q-.83-.51-1.85-.47"/><path stroke="#cacdc0" vector-effect="non-scaling-stroke" d="M413.25 113.21c-3.04-4.52-10.94-9.01-15.87-13.16a1.22 1.21 61.7 00-.89-.27c-32.64 3.57-65.34 6.46-98.01 9.77q-74.98 7.57-149.98 14.99"/><path stroke="#5d5f5f" vector-effect="non-scaling-stroke" d="M413.25 113.21l-.43.3q-.29.2-.65.24c-82.21 7.63-164.3 16.49-246.51 24.09a1.33 1.31 59.9 01-.91-.25l-15.39-11.08a1.38 1.34-80.7 01-.53-.76l-.33-1.21"/><path stroke="#919090" vector-effect="non-scaling-stroke" d="M414.5 154.79q-76.73 8.54-153.47 16.98-22.6 2.48-45.25 4.51c-4.49.41-9.82 1.34-14.78 1.74q-16.38 1.3-32.71 3.23"/><path stroke="#111110" vector-effect="non-scaling-stroke" d="M168.29 181.25q-.23-.81-1.1-.77a.55.55 0 00-.53.55q-.02 13.28.16 26.56c.06 4.19-.25 10.4.08 15.63a.32.32 0 00.47.25l.84-.47"/><path stroke="#919090" vector-effect="non-scaling-stroke" d="M168.21 223l.14 27.3a.45.45 0 00.61.42q9.42-3.59 19.51-4.38a.38.37 1.2 01.4.41q-1.21 10.09-1.76 20.27-.09 1.63 1.44 1.71a.77.76 82.4 01.7.54l1.57 4.98a1.13 1.13 0 00.5.63l9.89 5.87"/><path stroke="#5d5f5f" vector-effect="non-scaling-stroke" d="M201.21 280.75l1.79.96"/><path stroke="#919090" vector-effect="non-scaling-stroke" d="M203 281.71l3.78 2.64a.49.49 0 01.13.67l-3.7 5.73"/><path stroke="#5d5f5f" vector-effect="non-scaling-stroke" d="M203.21 290.75L198.9 295"/><path stroke="#919090" vector-effect="non-scaling-stroke" d="M198.9 295c-9.34 8.26-17.91 11.81-30.07 11.31a.49.48 1.7 00-.51.47q-.64 36.86.03 63.16.54 20.71-.42 38.91c-.81 15.45-.79 31.15-.44 46.65q.97 42.36 0 74.25-.31 10.38.01 14.21"/><path stroke="#111110" vector-effect="non-scaling-stroke" d="M153.29 254.25l.27.83q.18.53.45.04c1.91-3.45.61-9.23.74-11.87.44-9.23-.07-18.37.18-27.57.35-13.23.07-26.55.06-39.8-.01-1.17.72-2.83.21-4.26a1.54 1.51 7.3 00-.59-.75l-5.18-3.46a.42.41-69.2 00-.64.29l-.08.55"/><path stroke="#cccecf" vector-effect="non-scaling-stroke" d="M412.75 221.71q3.68.99 7.27-.24a.73.72-8.2 00.5-.66c.05-1.79-.1-5.92-2.45-5.24a1.31 1.27 8.3 00-.67.48l-2.6 3.64a.75.74-59.1 01-.93.24q-.55-.26-.41-.93"/><path stroke="#919090" vector-effect="non-scaling-stroke" d="M424.42 462.49c-9.32 7.25-16.66 16.49-17.25 28.64a.78.78 0 01-.48.69l-25.22 10.53"/><path stroke="#cccecf" vector-effect="non-scaling-stroke" d="M381.47 502.35q-16.6 2.52-21.79 3.57-79.73 16.01-159.97 29.38-5.12.85-10.5 1.61a.58.58 0 01-.64-.41q-13.33-43.04-15.79-88.06c-.05-.92-.54-1.71-.57-2.69q-.29-7.85-1-15.67c-.48-5.38-.32-13.55-1.74-20.34a.23.23 0 00-.45.04c-.05 4.12-.07 7.89.31 12.28 1.66 19.29-.05 38.43 1.63 60.47 1.52 20.1 2.88 40.15 5.29 60.18"/><path stroke="#cccecf" vector-effect="non-scaling-stroke" d="M198.9 295q-.15 1.46-1.49 2.53a1.03 1.01-19.6 00-.39.8q-.25 53.27 2.62 109.98 2.12 41.7 7.85 80.94"/><path stroke="#919090" vector-effect="non-scaling-stroke" d="M207.49 489.25q-3.05 2.73-7.5 4.97a1.84 1.83-34 00-.56 2.85l1.62 1.87a.92.92 0 001.01.25q2.89-1.12 5.8-2.2c3.73-1.39 7.09-3.94 10.91-5.64a1.69 1.65 37.8 01.96-.11c19.91 3.65 49.39-16.68 65.6-27.95a.92.92 0 01.87-.09c21.43 8.99 41.21.61 52.96-18.23a.6.6 0 00-.18-.82c-2.99-1.93-13.73-7.58-14.98-10.11"/><path stroke="#cccecf" vector-effect="non-scaling-stroke" d="M324 434.04c4.03 1.36 6.4.33 10.22-.49q25.12-5.36 28.64-31.24c1.79-13.17 3.78-51.92-15.34-55.79q-.48-.1-.12-.44c2.17-1.99 4.25-3.74 5.65-6.38q6.64-12.56 6.86-26.94c.31-19.76-2.36-44.78-28.17-44.94-10.49-.07-20.58 2.85-28.22 10.35-12.45 12.22-15.22 29.07-14.5 46.42a.53.53 0 00.6.5l25.79-3.67a.57.57 0 00.48-.6q-.57-10.41 1.67-17.5c1.88-5.93 11.11-7.72 12.46-.31q1.12 6.11.93 14.99c-.23 10.25-2.21 22.19-15.47 21.73a.69.69 0 00-.68.46q-.59 1.58-.53 3.31.4 10.75.18 21.87a1.32 1.31-2.9 001.48 1.33c7.12-.84 15.03-2.78 16.67 7.1q2.8 16.99.69 32.2c-.65 4.6-4.58 6.82-8.94 5.5q-1.53-.47-3.06-.75"/><path stroke="#919090" vector-effect="non-scaling-stroke" d="M321.29 410.75c.72-3.28-.71-4.72-3.97-4.31q-8.91 1.12-17.03 5.06"/><path stroke="#cccecf" vector-effect="non-scaling-stroke" d="M300.29 411.5l-.04-.35a.65.63 71.3 01.29-.61c6.01-3.83 11.62-4.21 18.26-5.48a.5.49 80.7 00.39-.55l-1.97-14.26a.41.41 0 00-.5-.35q-13.14 2.83-26.48 4.4a.63.61-4.2 00-.55.62c.07 6.23.13 15.51 2.85 21.08"/><path stroke="#919090" vector-effect="non-scaling-stroke" d="M292.54 416c-7.6 8.52-13.98 14.17-14.16 26.64a.73.73 0 01-.47.68q-19.35 7.25-37.26 17.48c-10 5.71-21.07 12.97-25.57 24.02a1.21 1.18-.3 01-.67.66l-2.66 1.06"/><path stroke="#cccecf" vector-effect="non-scaling-stroke" d="M211.75 486.54q-.46-1.13.27-2.19a1.37 1.32 59.8 00.22-.89q-6.11-51.34-7.43-103.03c-.76-29.93-1.88-59.71-1.6-89.68"/><path stroke="#cccecf" vector-effect="non-scaling-stroke" d="M203 281.71q.47-1.32.48-2.71.18-23.35-.38-46.68a.54.54 0 01.49-.55c47.7-4.1 111.96-13.53 175.22-20.37a.79.78-3 01.87.78c-.19 22.66.03 45.47-.09 68.25-.24 46.3 1.25 78.08 2.54 115.09.48 13.65 2.01 27.29 3.04 40.9q1.06 13.92 3.78 27.65a.84.83-21.9 01-.38.88q-.44.28-1.03.11-.48-.15-.97-.05-110.13 20.36-171.39 31.13-.85.15-1.83-.62a.69.68 45.3 00-.84-.01l-2.8 2.14a1.17 1.15-18.9 00-.46.92v2.37a.43.42 84.9 00.5.42q54.01-9.34 107.86-19.57c25.67-4.87 51.44-9.17 77.15-13.79a.68.68 0 00.55-.77c-4.83-31.05-8.16-61.51-9.28-92.98q-1.76-49.7-2-99.44-.16-31.91.94-63.81.11-3.23-.16-5.57a1.22 1.22 0 00-1.36-1.07c-60.61 7.37-122.28 14.58-180.69 21.72q-2.33.28-4.17-.05a1.23 1.23 0 00-1.45 1.24q.58 23.86-.4 46.23-.1 2.46.85 3.88a.99.97 73.7 00.77.43q2.61.13 2.85 2.94"/><path stroke="gray" vector-effect="non-scaling-stroke" d="M168.21 223c.05-4.63-.87-40.53.08-41.75"/><path stroke="#5d5f5f" vector-effect="non-scaling-stroke" d="M211.75 486.54l-4.26 2.71M324 434.04q-1.11-3.71-3.9-6.23a1 .98 24.6 01-.32-.83l1.51-16.23M300.29 411.5l-7.75 4.5"/><path stroke="#919090" vector-effect="non-scaling-stroke" d="M412.72 228.9q-1.95-1.61-1.18-5.17a.71.7 8 01.74-.55q5.94.45 11.74-.75a.85.85 0 00.4-1.46q-4.03-3.66-4.26-9.1a.33.33 0 00-.58-.2l-6.12 7.33"/><path stroke="#5d5f5f" vector-effect="non-scaling-stroke" d="M413.46 219q-.96 1.16-.71 2.71"/><path stroke="#919090" vector-effect="non-scaling-stroke" d="M412.75 221.71q-.41.28-.76.23a.61.6-83.2 01-.5-.64l.64-8.57a1.32 1.31-20.2 01.41-.88l4.5-4.35"/><path stroke="#5d5f5f" vector-effect="non-scaling-stroke" d="M381.47 502.35q-1.55 1.69-3.49 1.91"/><path stroke="#919090" vector-effect="non-scaling-stroke" d="M294 135.54q-1.66-.31-2.76.62a.98.98 0 00.17 1.61q3.99 2.11 6.84 5.44"/><path stroke="#5d5f5f" vector-effect="non-scaling-stroke" d="M298.25 143.21q-.99 1.61-1.04 3.49a1.92 1.92 0 01-.29.98q-1.97 3.11-5.44 4.2a.46.46 0 00.12.89q8.27.3 10.66-7.49"/><path stroke="#919090" vector-effect="non-scaling-stroke" d="M302.26 145.28q.72.61.67.97c-.76 5.36 5.98 7.28 8.11 2.76 2.09-4.44-2.3-10.92-7.12-6.62a.83.82 35.4 01-.85.14q-.49-.2-.82-.57"/><path stroke="#5d5f5f" vector-effect="non-scaling-stroke" d="M302.25 141.96q-1.04-7.26-8.25-6.42"/><path stroke="#cccecf" vector-effect="non-scaling-stroke" d="M302.25 141.96l-8.25-6.42M302.26 145.28q-1.44-1.31-4.01-2.07"/><path stroke="#5d5f5f" vector-effect="non-scaling-stroke" d="M103.41 316.53a1.54 1.53 53.9 001.75.28c26-12.82 49.87-28.88 75.75-41.75q.45-.22.04-.49c-.37-.24-34.75 13.39-38.19 14.71q-17.98 6.9-38.31 18.96c-3.44 2.05-3.84 5.57-1.04 8.29M158.93 300.08c16.77 4.55 30.59-.96 41.14-14.23a.52.51 33 00-.17-.77l-13.06-6.84a1.5 1.47-49.9 00-1.6.15l-27.1 20.93a.35.35 0 00.16.62q.32.06.63.14M95.79 314.71q-4.79 4.49-7.63 10.38a.76.75 11.1 00.73 1.08l12.05-.77q.95-.06.38-.82-3.22-4.24-4.21-9.44-.27-1.41-1.32-.43M425.87 207.24q-1.01 3.42.35 6.72a.99.99 0 001.35.51c26.18-12.57 50.03-28.66 75.81-41.88q.49-.25-.06-.21-1.97.11-4.77 1.42c-9.42 4.4-21.75 8.21-30.74 12.03-14.42 6.14-28.36 12.57-41.58 20.94a.85.83-8.4 00-.36.47M520.06 187.06q2.18-2.22 3.28-4.13a.48.47-60.8 00-.18-.66l-13.12-7.05a.92.92 0 00-1 .09l-27.52 21.36q-.43.33.09.48 22.36 6.36 38.45-10.09"/><path stroke="#cccecf" vector-effect="non-scaling-stroke" d="M243.2 338.7c.86 35.86 1.33 71.86 4.73 107.62a.51.51 0 00.6.46l27.7-4.76a1.49 1.49 0 001.24-1.46c.03-4.85.39-9.89.08-14.73q-4.68-73.82-3.82-147.78a.46.46 0 00-.5-.47q-10.08.68-20.01 2.47a.83.82 1 00-.65.62c-4.59 19.68-10.91 26.58-31.21 29.79a.53.52 85.5 00-.44.52l.11 29.59a.49.49 0 00.55.48l21.05-2.83a.51.5-4.7 01.57.48"/><path stroke="#5d5f5f" vector-effect="non-scaling-stroke" d="M236.4 477.71c18.86-9.08 36.73-19.46 54.54-30.4 6.87-4.22 14.75-7.81 22.04-11.97a.2.2 0 00-.15-.36c-4.64 1.25-9.68 3.86-13.21 5.2q-15.03 5.71-29.89 11.83c-11.63 4.79-24.9 11.14-35 18.74a.87.87 0 00-.33.87l1.13 5.65a.62.62 0 00.87.44M290.86 459.69c15.68 5.76 32.06-.23 41.78-13.75a.47.47 0 00-.16-.69l-13.74-7.41a.7.69 38.1 00-.79.09q-13.67 11.98-18.61 15.17-4.51 2.91-8.53 6.35a.14.14 0 00.05.24M221.11 486.01q6.25.89 12.44-.53a.44.44 0 00.27-.68q-3.03-4.49-4.3-9.78a.47.46 62.8 00-.76-.25q-4.98 4.33-8.22 10.09a.78.78 0 00.57 1.15M363.92 519.92l.62 5.15a.75.74 84.8 00.79.66q1.86-.12 3.14-.78c24.88-12.7 49.01-28.25 72.96-40.53a.38.37 20.2 00-.32-.68q-16.78 6.72-32.66 12.46c-12.37 4.47-29.75 13.77-43.79 22.21a1.57 1.57 0 00-.74 1.51M420.49 508.57c9.13 2.33 18.79 2.62 27.2-1.69 5.92-3.03 9.9-7.83 14.33-12.35a.51.51 0 00-.12-.8l-13.21-7.3a.59.57 40.5 00-.64.04l-27.7 21.42q-.63.48.14.68M351.93 534.61q5.77.48 11.4-.97a.67.67 0 00.32-1.11q-3.75-3.9-4.23-9.28a.37.37 0 00-.58-.27c-1.61 1.13-9.75 7.81-7.85 11.05a1.21 1.21 0 00.94.58"/></g><path fill="#989c9e" d="M0 0h591v2.56q-.28-2.76-.76-1.81-1.47.03-2.24.03Q294 .97 0 .94V0z"/><path fill="#fff" d="M591 2.56V591H0v-1.06q4.25.17 8.5.18 290.59.13 581.08.13a.68.67 90 00.67-.68L590.24.75q.48-.95.76 1.81z"/><path d="M590.24.75l.01 588.82a.68.67-90 01-.67.68q-290.49 0-581.08-.13-4.25-.01-8.5-.18V.94q294 .03 588-.16.77 0 2.24-.03zm-4.74 4.77a.26.26 0 00-.26-.26H5.5a.26.26 0 00-.26.26v579.72a.26.26 0 00.26.26h579.74a.26.26 0 00.26-.26V5.52z"/><path fill="#fbfee1" d="M585.5 585.24a.26.26 0 01-.26.26H5.5a.26.26 0 01-.26-.26V5.52a.26.26 0 01.26-.26h579.74a.26.26 0 01.26.26v579.72zM73.31 39.31q9.47-9.45 13.52-14.14a.56.56 0 00-.02-.76q-1.13-1.15-3.57-1.16-20.37-.04-40.74.34c-14.6.27-19.99 9.26-20.01 22.66q-.01 20.59.03 40.62a1.33 1.33 0 002.27.94q24.38-24.39 48.52-48.5zm75.19 85.23q-1.35-.05-1.34 1.47.17 20.08.43 40.18.02 1.67 1.12 2.06l4.31 3.4a1.13 1.11-73.6 01.42.79c.19 2.04.49 4.27.45 6.28q-.73 37.76-.6 75.53v7.6a1.5 1.47 65.3 01-.34.95q-7.18 8.48-7.31 19.65a.8.79 80.1 01-.52.75q-12.57 4.62-24.53 10.56c-14.8 7.34-30.95 15.53-37.37 30.57a1.43 1.38-3.7 01-.64.7q-6.91 3.71-13.41 8.14-2.67 1.83-1.14 4.66a1.03 1.02 80.4 00.74.53c5.97.95 13.2-7.67 19.85-7.49 23.18.63 45.47-15.42 64.2-27.86q.41-.28.41.22c-.11 22.66-.23 45.3-.03 67.95.13 15.87-.51 32.23-.39 47.57q.45 57.33-.05 114.49a1.41 1.41 0 00.62 1.17l14.12 9.55q4.57.69 8.75-1.25c62.98-11.75 123.58-23.55 189.02-35.38q2.77-.5 6.36-1.49 3.15-.87 6.35-1.58c-12.61 7.98-26.44 14.35-33.04 28.51a1.54 1.52 88.3 01-.64.69q-6.55 3.66-12.73 7.95c-1.71 1.2-2.49 2.27-1.55 4.31a2.07 2.06-23.3 002.65 1.05q7.13-2.91 13.99-6.4c1.56-.79 2.35-1.89 4.21-.78a1.93 1.88 59.2 00.94.25c24.72-.32 43.02-16.75 63.24-28.08a1.05 1.04-47.9 01.9-.05c21.44 8.94 40.84.13 53.06-18.27a.58.58 0 00-.18-.82l-14.84-8.91a1.78 1.76-87.2 01-.7-.78l-2.44-5.28a1.36 1.34-89.5 00-.62-.64l-.98-.5a.77.77 0 01-.39-.86q1.23-5.16 1.2-10.44c-.01-3.24.61-6.51.54-9.83a.51.51 0 00-.52-.49q-13.8.3-25.66 7.6-2.5-5.9-2.9-12.24c-1.11-17.54-3.79-34.97-4.87-52.48q-1.15-18.77-2.13-37.54c-.78-14.97-.74-30.65-1.16-45.98q-.59-21.97-.23-43.94.27-16.2-.41-41.41c22.27-.62 45.41-16.04 63.15-28.58a.89.88 38.1 01.86-.1q24.98 9.86 44.23-6.97c3.4-2.97 6.42-7.19 9.52-10.9a.58.58 0 00-.14-.86l-15.69-9.75a1 1 0 01-.45-.71q-.42-3.22-2.61-5.56a1.14 1.14 0 01-.31-.83l1.1-20.3a.58.58 0 00-.58-.61c-21 .03-41.64 13.97-43.2 36.24a.7.68-8.9 01-.44.59c-17.23 6.53-36.87 15.16-51.12 26.94q-.71-1.84-2.22-1.76a2.04 2.03 87.8 01-2.14-1.99q-.51-24.79 1.82-48.96c.43 0 .66-.16.67-.61q.35-19.85.35-39.74a.9.89-74.3 00-.42-.76q-.83-.51-1.85-.47c-3.04-4.52-10.94-9.01-15.87-13.16a1.22 1.21 61.7 00-.89-.27c-32.64 3.57-65.34 6.46-98.01 9.77q-74.98 7.57-149.98 14.99z"/><path fill="#fbe6af" d="M73.31 39.31q-24.14 24.11-48.52 48.5a1.33 1.33 0 01-2.27-.94q-.04-20.03-.03-40.62c.02-13.4 5.41-22.39 20.01-22.66q20.37-.38 40.74-.34 2.44.01 3.57 1.16a.56.56 0 01.02.76q-4.05 4.69-13.52 14.14z"/><path fill="#989c9e" d="M413.25 113.21l-.43.3q-.29.2-.65.24c-82.21 7.63-164.3 16.49-246.51 24.09a1.33 1.31 59.9 01-.91-.25l-15.39-11.08a1.38 1.34-80.7 01-.53-.76l-.33-1.21q75-7.42 149.98-14.99c32.67-3.31 65.37-6.2 98.01-9.77a1.22 1.21 61.7 01.89.27c4.93 4.15 12.83 8.64 15.87 13.16z"/><path fill="#222120" d="M413.25 113.21q1.02-.04 1.85.47a.9.89-74.3 01.42.76q0 19.89-.35 39.74c-.01.45-.24.61-.67.61q-76.73 8.54-153.47 16.98-22.6 2.48-45.25 4.51c-4.49.41-9.82 1.34-14.78 1.74q-16.38 1.3-32.71 3.23-.23-.81-1.1-.77a.55.55 0 00-.53.55q-.02 13.28.16 26.56c.06 4.19-.25 10.4.08 15.63a.32.32 0 00.47.25l.84-.47.14 27.3a.45.45 0 00.61.42q9.42-3.59 19.51-4.38a.38.37 1.2 01.4.41q-1.21 10.09-1.76 20.27-.09 1.63 1.44 1.71a.77.76 82.4 01.7.54l1.57 4.98a1.13 1.13 0 00.5.63l9.89 5.87 1.79.96 3.78 2.64a.49.49 0 01.13.67l-3.7 5.73-4.31 4.25c-9.34 8.26-17.91 11.81-30.07 11.31a.49.48 1.7 00-.51.47q-.64 36.86.03 63.16.54 20.71-.42 38.91c-.81 15.45-.79 31.15-.44 46.65q.97 42.36 0 74.25-.31 10.38.01 14.21l-14.12-9.55a1.41 1.41 0 01-.62-1.17q.5-57.16.05-114.49c-.12-15.34.52-31.7.39-47.57-.2-22.65-.08-45.29.03-67.95q0-.5-.41-.22c-18.73 12.44-41.02 28.49-64.2 27.86-6.65-.18-13.88 8.44-19.85 7.49a1.03 1.02 80.4 01-.74-.53q-1.53-2.83 1.14-4.66 6.5-4.43 13.41-8.14a1.43 1.38-3.7 00.64-.7c6.42-15.04 22.57-23.23 37.37-30.57q11.96-5.94 24.53-10.56a.8.79 80.1 00.52-.75q.13-11.17 7.31-19.65a1.5 1.47 65.3 00.34-.95v-7.6l.27.83q.18.53.45.04c1.91-3.45.61-9.23.74-11.87.44-9.23-.07-18.37.18-27.57.35-13.23.07-26.55.06-39.8-.01-1.17.72-2.83.21-4.26a1.54 1.51 7.3 00-.59-.75l-5.18-3.46a.42.41-69.2 00-.64.29l-.08.55q-1.1-.39-1.12-2.06-.26-20.1-.43-40.18-.01-1.52 1.34-1.47l.33 1.21a1.38 1.34-80.7 00.53.76l15.39 11.08a1.33 1.31 59.9 00.91.25c82.21-7.6 164.3-16.46 246.51-24.09q.36-.04.65-.24l.43-.3zM294 135.54q-1.66-.31-2.76.62a.98.98 0 00.17 1.61q3.99 2.11 6.84 5.44-.99 1.61-1.04 3.49a1.92 1.92 0 01-.29.98q-1.97 3.11-5.44 4.2a.46.46 0 00.12.89q8.27.3 10.66-7.49.72.61.67.97c-.76 5.36 5.98 7.28 8.11 2.76 2.09-4.44-2.3-10.92-7.12-6.62a.83.82 35.4 01-.85.14q-.49-.2-.82-.57-1.04-7.26-8.25-6.42zM103.41 316.53a1.54 1.53 53.9 001.75.28c26-12.82 49.87-28.88 75.75-41.75q.45-.22.04-.49c-.37-.24-34.75 13.39-38.19 14.71q-17.98 6.9-38.31 18.96c-3.44 2.05-3.84 5.57-1.04 8.29zm55.52-16.45c16.77 4.55 30.59-.96 41.14-14.23a.52.51 33 00-.17-.77l-13.06-6.84a1.5 1.47-49.9 00-1.6.15l-27.1 20.93a.35.35 0 00.16.62q.32.06.63.14zm-63.14 14.63q-4.79 4.49-7.63 10.38a.76.75 11.1 00.73 1.08l12.05-.77q.95-.06.38-.82-3.22-4.24-4.21-9.44-.27-1.41-1.32-.43z"/><path fill="#989c9e" d="M302.25 141.96l-8.25-6.42q7.21-.84 8.25 6.42z"/><path fill="#fff" d="M294 135.54l8.25 6.42q.33.37.82.57a.83.82 35.4 00.85-.14c4.82-4.3 9.21 2.18 7.12 6.62-2.13 4.52-8.87 2.6-8.11-2.76q.05-.36-.67-.97-1.44-1.31-4.01-2.07-2.85-3.33-6.84-5.44a.98.98 0 01-.17-1.61q1.1-.93 2.76-.62z"/><path fill="#989c9e" d="M298.25 143.21q2.57.76 4.01 2.07-2.39 7.79-10.66 7.49a.46.46 0 01-.12-.89q3.47-1.09 5.44-4.2a1.92 1.92 0 00.29-.98q.05-1.88 1.04-3.49z"/><path fill="#222120" d="M412.72 228.9q-1.95-1.61-1.18-5.17a.71.7 8 01.74-.55q5.94.45 11.74-.75a.85.85 0 00.4-1.46q-4.03-3.66-4.26-9.1a.33.33 0 00-.58-.2l-6.12 7.33q-.96 1.16-.71 2.71-.41.28-.76.23a.61.6-83.2 01-.5-.64l.64-8.57a1.32 1.31-20.2 01.41-.88l4.5-4.35c14.25-11.78 33.89-20.41 51.12-26.94a.7.68-8.9 00.44-.59c1.56-22.27 22.2-36.21 43.2-36.24a.58.58 0 01.58.61l-1.1 20.3a1.14 1.14 0 00.31.83q2.19 2.34 2.61 5.56a1 1 0 00.45.71l15.69 9.75a.58.58 0 01.14.86c-3.1 3.71-6.12 7.93-9.52 10.9q-19.25 16.83-44.23 6.97a.89.88 38.1 00-.86.1c-17.74 12.54-40.88 27.96-63.15 28.58zm13.15-21.66q-1.01 3.42.35 6.72a.99.99 0 001.35.51c26.18-12.57 50.03-28.66 75.81-41.88q.49-.25-.06-.21-1.97.11-4.77 1.42c-9.42 4.4-21.75 8.21-30.74 12.03-14.42 6.14-28.36 12.57-41.58 20.94a.85.83-8.4 00-.36.47zm94.19-20.18q2.18-2.22 3.28-4.13a.48.47-60.8 00-.18-.66l-13.12-7.05a.92.92 0 00-1 .09l-27.52 21.36q-.43.33.09.48 22.36 6.36 38.45-10.09z"/><path fill="#fff" d="M414.5 154.79q-2.33 24.17-1.82 48.96a2.04 2.03 87.8 002.14 1.99q1.51-.08 2.22 1.76l-4.5 4.35a1.32 1.31-20.2 00-.41.88l-.64 8.57a.61.6-83.2 00.5.64q.35.05.76-.23 3.68.99 7.27-.24a.73.72-8.2 00.5-.66c.05-1.79-.1-5.92-2.45-5.24a1.31 1.27 8.3 00-.67.48l-2.6 3.64a.75.74-59.1 01-.93.24q-.55-.26-.41-.93l6.12-7.33a.33.33 0 01.58.2q.23 5.44 4.26 9.1a.85.85 0 01-.4 1.46q-5.8 1.2-11.74.75a.71.7 8 00-.74.55q-.77 3.56 1.18 5.17.68 25.21.41 41.41-.36 21.97.23 43.94c.42 15.33.38 31.01 1.16 45.98q.98 18.77 2.13 37.54c1.08 17.51 3.76 34.94 4.87 52.48q.4 6.34 2.9 12.24c-9.32 7.25-16.66 16.49-17.25 28.64a.78.78 0 01-.48.69l-25.22 10.53q-16.6 2.52-21.79 3.57-79.73 16.01-159.97 29.38-5.12.85-10.5 1.61a.58.58 0 01-.64-.41q-13.33-43.04-15.79-88.06c-.05-.92-.54-1.71-.57-2.69q-.29-7.85-1-15.67c-.48-5.38-.32-13.55-1.74-20.34a.23.23 0 00-.45.04c-.05 4.12-.07 7.89.31 12.28 1.66 19.29-.05 38.43 1.63 60.47 1.52 20.1 2.88 40.15 5.29 60.18q-4.18 1.94-8.75 1.25-.32-3.83-.01-14.21.97-31.89 0-74.25c-.35-15.5-.37-31.2.44-46.65q.96-18.2.42-38.91-.67-26.3-.03-63.16a.49.48 1.7 01.51-.47c12.16.5 20.73-3.05 30.07-11.31q-.15 1.46-1.49 2.53a1.03 1.01-19.6 00-.39.8q-.25 53.27 2.62 109.98 2.12 41.7 7.85 80.94-3.05 2.73-7.5 4.97a1.84 1.83-34 00-.56 2.85l1.62 1.87a.92.92 0 001.01.25q2.89-1.12 5.8-2.2c3.73-1.39 7.09-3.94 10.91-5.64a1.69 1.65 37.8 01.96-.11c19.91 3.65 49.39-16.68 65.6-27.95a.92.92 0 01.87-.09c21.43 8.99 41.21.61 52.96-18.23a.6.6 0 00-.18-.82c-2.99-1.93-13.73-7.58-14.98-10.11 4.03 1.36 6.4.33 10.22-.49q25.12-5.36 28.64-31.24c1.79-13.17 3.78-51.92-15.34-55.79q-.48-.1-.12-.44c2.17-1.99 4.25-3.74 5.65-6.38q6.64-12.56 6.86-26.94c.31-19.76-2.36-44.78-28.17-44.94-10.49-.07-20.58 2.85-28.22 10.35-12.45 12.22-15.22 29.07-14.5 46.42a.53.53 0 00.6.5l25.79-3.67a.57.57 0 00.48-.6q-.57-10.41 1.67-17.5c1.88-5.93 11.11-7.72 12.46-.31q1.12 6.11.93 14.99c-.23 10.25-2.21 22.19-15.47 21.73a.69.69 0 00-.68.46q-.59 1.58-.53 3.31.4 10.75.18 21.87a1.32 1.31-2.9 001.48 1.33c7.12-.84 15.03-2.78 16.67 7.1q2.8 16.99.69 32.2c-.65 4.6-4.58 6.82-8.94 5.5q-1.53-.47-3.06-.75c.72-3.28-.71-4.72-3.97-4.31q-8.91 1.12-17.03 5.06l-.04-.35a.65.63 71.3 01.29-.61c6.01-3.83 11.62-4.21 18.26-5.48a.5.49 80.7 00.39-.55l-1.97-14.26a.41.41 0 00-.5-.35q-13.14 2.83-26.48 4.4a.63.61-4.2 00-.55.62c.07 6.23.13 15.51 2.85 21.08-7.6 8.52-13.98 14.17-14.16 26.64a.73.73 0 01-.47.68q-19.35 7.25-37.26 17.48c-10 5.71-21.07 12.97-25.57 24.02a1.21 1.18-.3 01-.67.66l-2.66 1.06q-.46-1.13.27-2.19a1.37 1.32 59.8 00.22-.89q-6.11-51.34-7.43-103.03c-.76-29.93-1.88-59.71-1.6-89.68l3.7-5.73a.49.49 0 00-.13-.67l-3.78-2.64q.47-1.32.48-2.71.18-23.35-.38-46.68a.54.54 0 01.49-.55c47.7-4.1 111.96-13.53 175.22-20.37a.79.78-3 01.87.78c-.19 22.66.03 45.47-.09 68.25-.24 46.3 1.25 78.08 2.54 115.09.48 13.65 2.01 27.29 3.04 40.9q1.06 13.92 3.78 27.65a.84.83-21.9 01-.38.88q-.44.28-1.03.11-.48-.15-.97-.05-110.13 20.36-171.39 31.13-.85.15-1.83-.62a.69.68 45.3 00-.84-.01l-2.8 2.14a1.17 1.15-18.9 00-.46.92v2.37a.43.42 84.9 00.5.42q54.01-9.34 107.86-19.57c25.67-4.87 51.44-9.17 77.15-13.79a.68.68 0 00.55-.77c-4.83-31.05-8.16-61.51-9.28-92.98q-1.76-49.7-2-99.44-.16-31.91.94-63.81.11-3.23-.16-5.57a1.22 1.22 0 00-1.36-1.07c-60.61 7.37-122.28 14.58-180.69 21.72q-2.33.28-4.17-.05a1.23 1.23 0 00-1.45 1.24q.58 23.86-.4 46.23-.1 2.46.85 3.88a.99.97 73.7 00.77.43q2.61.13 2.85 2.94l-9.89-5.87a1.13 1.13 0 01-.5-.63l-1.57-4.98a.77.76 82.4 00-.7-.54q-1.53-.08-1.44-1.71.55-10.18 1.76-20.27a.38.37 1.2 00-.4-.41q-10.09.79-19.51 4.38a.45.45 0 01-.61-.42l-.14-27.3c.05-4.63-.87-40.53.08-41.75q16.33-1.93 32.71-3.23c4.96-.4 10.29-1.33 14.78-1.74q22.65-2.03 45.25-4.51 76.74-8.44 153.47-16.98zM243.2 338.7c.86 35.86 1.33 71.86 4.73 107.62a.51.51 0 00.6.46l27.7-4.76a1.49 1.49 0 001.24-1.46c.03-4.85.39-9.89.08-14.73q-4.68-73.82-3.82-147.78a.46.46 0 00-.5-.47q-10.08.68-20.01 2.47a.83.82 1 00-.65.62c-4.59 19.68-10.91 26.58-31.21 29.79a.53.52 85.5 00-.44.52l.11 29.59a.49.49 0 00.55.48l21.05-2.83a.51.5-4.7 01.57.48z"/><path d="M153.29 254.25q-.13-37.77.6-75.53c.04-2.01-.26-4.24-.45-6.28a1.13 1.11-73.6 00-.42-.79l-4.31-3.4.08-.55a.42.41-69.2 01.64-.29l5.18 3.46a1.54 1.51 7.3 01.59.75c.51 1.43-.22 3.09-.21 4.26.01 13.25.29 26.57-.06 39.8-.25 9.2.26 18.34-.18 27.57-.13 2.64 1.17 8.42-.74 11.87q-.27.49-.45-.04l-.27-.83z"/><path fill="#989c9e" d="M425.87 207.24a.85.83-8.4 01.36-.47c13.22-8.37 27.16-14.8 41.58-20.94 8.99-3.82 21.32-7.63 30.74-12.03q2.8-1.31 4.77-1.42.55-.04.06.21c-25.78 13.22-49.63 29.31-75.81 41.88a.99.99 0 01-1.35-.51q-1.36-3.3-.35-6.72zM520.06 187.06q-16.09 16.45-38.45 10.09-.52-.15-.09-.48l27.52-21.36a.92.92 0 011-.09l13.12 7.05a.48.47-60.8 01.18.66q-1.1 1.91-3.28 4.13z"/><path d="M168.29 181.25c-.95 1.22-.03 37.12-.08 41.75l-.84.47a.32.32 0 01-.47-.25c-.33-5.23-.02-11.44-.08-15.63q-.18-13.28-.16-26.56a.55.55 0 01.53-.55q.87-.04 1.1.77z"/><path fill="#989c9e" d="M203 281.71l-1.79-.96q-.24-2.81-2.85-2.94a.99.97 73.7 01-.77-.43q-.95-1.42-.85-3.88.98-22.37.4-46.23a1.23 1.23 0 011.45-1.24q1.84.33 4.17.05c58.41-7.14 120.08-14.35 180.69-21.72a1.22 1.22 0 011.36 1.07q.27 2.34.16 5.57-1.1 31.9-.94 63.81.24 49.74 2 99.44c1.12 31.47 4.45 61.93 9.28 92.98a.68.68 0 01-.55.77c-25.71 4.62-51.48 8.92-77.15 13.79q-53.85 10.23-107.86 19.57a.43.42 84.9 01-.5-.42v-2.37a1.17 1.15-18.9 01.46-.92l2.8-2.14a.69.68 45.3 01.84.01q.98.77 1.83.62 61.26-10.77 171.39-31.13.49-.1.97.05.59.17 1.03-.11a.84.83-21.9 00.38-.88q-2.72-13.73-3.78-27.65c-1.03-13.61-2.56-27.25-3.04-40.9-1.29-37.01-2.78-68.79-2.54-115.09.12-22.78-.1-45.59.09-68.25a.79.78-3 00-.87-.78c-63.26 6.84-127.52 16.27-175.22 20.37a.54.54 0 00-.49.55q.56 23.33.38 46.68-.01 1.39-.48 2.71zM412.75 221.71q-.25-1.55.71-2.71-.14.67.41.93a.75.74-59.1 00.93-.24l2.6-3.64a1.31 1.27 8.3 01.67-.48c2.35-.68 2.5 3.45 2.45 5.24a.73.72-8.2 01-.5.66q-3.59 1.23-7.27.24z"/><path fill="#989c9e" d="M324 434.04q-1.11-3.71-3.9-6.23a1 .98 24.6 01-.32-.83l1.51-16.23q1.53.28 3.06.75c4.36 1.32 8.29-.9 8.94-5.5q2.11-15.21-.69-32.2c-1.64-9.88-9.55-7.94-16.67-7.1a1.32 1.31-2.9 01-1.48-1.33q.22-11.12-.18-21.87-.06-1.73.53-3.31a.69.69 0 01.68-.46c13.26.46 15.24-11.48 15.47-21.73q.19-8.88-.93-14.99c-1.35-7.41-10.58-5.62-12.46.31q-2.24 7.09-1.67 17.5a.57.57 0 01-.48.6l-25.79 3.67a.53.53 0 01-.6-.5c-.72-17.35 2.05-34.2 14.5-46.42 7.64-7.5 17.73-10.42 28.22-10.35 25.81.16 28.48 25.18 28.17 44.94q-.22 14.38-6.86 26.94c-1.4 2.64-3.48 4.39-5.65 6.38q-.36.34.12.44c19.12 3.87 17.13 42.62 15.34 55.79q-3.52 25.88-28.64 31.24c-3.82.82-6.19 1.85-10.22.49zM103.41 316.53c-2.8-2.72-2.4-6.24 1.04-8.29q20.33-12.06 38.31-18.96c3.44-1.32 37.82-14.95 38.19-14.71q.41.27-.04.49c-25.88 12.87-49.75 28.93-75.75 41.75a1.54 1.53 53.9 01-1.75-.28zM242.63 338.22l-21.05 2.83a.49.49 0 01-.55-.48l-.11-29.59a.53.52 85.5 01.44-.52c20.3-3.21 26.62-10.11 31.21-29.79a.83.82 1 01.65-.62q9.93-1.79 20.01-2.47a.46.46 0 01.5.47q-.86 73.96 3.82 147.78c.31 4.84-.05 9.88-.08 14.73a1.49 1.49 0 01-1.24 1.46l-27.7 4.76a.51.51 0 01-.6-.46c-3.4-35.76-3.87-71.76-4.73-107.62a.51.5-4.7 00-.57-.48zM158.93 300.08q-.31-.08-.63-.14a.35.35 0 01-.16-.62l27.1-20.93a1.5 1.47-49.9 011.6-.15l13.06 6.84a.52.51 33 01.17.77c-10.55 13.27-24.37 18.78-41.14 14.23zM203.21 290.75c-.28 29.97.84 59.75 1.6 89.68q1.32 51.69 7.43 103.03a1.37 1.32 59.8 01-.22.89q-.73 1.06-.27 2.19l-4.26 2.71q-5.73-39.24-7.85-80.94-2.87-56.71-2.62-109.98a1.03 1.01-19.6 01.39-.8q1.34-1.07 1.49-2.53l4.31-4.25zM95.79 314.71q1.05-.98 1.32.43.99 5.2 4.21 9.44.57.76-.38.82l-12.05.77a.76.75 11.1 01-.73-1.08q2.84-5.89 7.63-10.38z"/><path fill="#989c9e" d="M300.29 411.5l-7.75 4.5c-2.72-5.57-2.78-14.85-2.85-21.08a.63.61-4.2 01.55-.62q13.34-1.57 26.48-4.4a.41.41 0 01.5.35l1.97 14.26a.5.49 80.7 01-.39.55c-6.64 1.27-12.25 1.65-18.26 5.48a.65.63 71.3 00-.29.61l.04.35z"/><path fill="#222120" d="M321.29 410.75l-1.51 16.23a1 .98 24.6 00.32.83q2.79 2.52 3.9 6.23c1.25 2.53 11.99 8.18 14.98 10.11a.6.6 0 01.18.82c-11.75 18.84-31.53 27.22-52.96 18.23a.92.92 0 00-.87.09c-16.21 11.27-45.69 31.6-65.6 27.95a1.69 1.65 37.8 00-.96.11c-3.82 1.7-7.18 4.25-10.91 5.64q-2.91 1.08-5.8 2.2a.92.92 0 01-1.01-.25l-1.62-1.87a1.84 1.83-34 01.56-2.85q4.45-2.24 7.5-4.97l4.26-2.71 2.66-1.06a1.21 1.18-.3 00.67-.66c4.5-11.05 15.57-18.31 25.57-24.02q17.91-10.23 37.26-17.48a.73.73 0 00.47-.68c.18-12.47 6.56-18.12 14.16-26.64l7.75-4.5q8.12-3.94 17.03-5.06c3.26-.41 4.69 1.03 3.97 4.31zm-84.89 66.96c18.86-9.08 36.73-19.46 54.54-30.4 6.87-4.22 14.75-7.81 22.04-11.97a.2.2 0 00-.15-.36c-4.64 1.25-9.68 3.86-13.21 5.2q-15.03 5.71-29.89 11.83c-11.63 4.79-24.9 11.14-35 18.74a.87.87 0 00-.33.87l1.13 5.65a.62.62 0 00.87.44zm54.46-18.02c15.68 5.76 32.06-.23 41.78-13.75a.47.47 0 00-.16-.69l-13.74-7.41a.7.69 38.1 00-.79.09q-13.67 11.98-18.61 15.17-4.51 2.91-8.53 6.35a.14.14 0 00.05.24zm-69.75 26.32q6.25.89 12.44-.53a.44.44 0 00.27-.68q-3.03-4.49-4.3-9.78a.47.46 62.8 00-.76-.25q-4.98 4.33-8.22 10.09a.78.78 0 00.57 1.15z"/><path fill="#989c9e" d="M381.47 502.35q-1.55 1.69-3.49 1.91-3.2.71-6.35 1.58-3.59.99-6.36 1.49c-65.44 11.83-126.04 23.63-189.02 35.38-2.41-20.03-3.77-40.08-5.29-60.18-1.68-22.04.03-41.18-1.63-60.47-.38-4.39-.36-8.16-.31-12.28a.23.23 0 01.45-.04c1.42 6.79 1.26 14.96 1.74 20.34q.71 7.82 1 15.67c.03.98.52 1.77.57 2.69q2.46 45.02 15.79 88.06a.58.58 0 00.64.41q5.38-.76 10.5-1.61 80.24-13.37 159.97-29.38 5.19-1.05 21.79-3.57z"/><path fill="#989c9e" d="M235.53 477.27l-1.13-5.65a.87.87 0 01.33-.87c10.1-7.6 23.37-13.95 35-18.74q14.86-6.12 29.89-11.83c3.53-1.34 8.57-3.95 13.21-5.2a.2.2 0 01.15.36c-7.29 4.16-15.17 7.75-22.04 11.97-17.81 10.94-35.68 21.32-54.54 30.4a.62.62 0 01-.87-.44zM290.86 459.69a.14.14 0 01-.05-.24q4.02-3.44 8.53-6.35 4.94-3.19 18.61-15.17a.7.69 38.1 01.79-.09l13.74 7.41a.47.47 0 01.16.69c-9.72 13.52-26.1 19.51-41.78 13.75z"/><path fill="#222120" d="M377.98 504.26q1.94-.22 3.49-1.91l25.22-10.53a.78.78 0 00.48-.69c.59-12.15 7.93-21.39 17.25-28.64q11.86-7.3 25.66-7.6a.51.51 0 01.52.49c.07 3.32-.55 6.59-.54 9.83q.03 5.28-1.2 10.44a.77.77 0 00.39.86l.98.5a1.36 1.34-89.5 01.62.64l2.44 5.28a1.78 1.76-87.2 00.7.78l14.84 8.91a.58.58 0 01.18.82c-12.22 18.4-31.62 27.21-53.06 18.27a1.05 1.04-47.9 00-.9.05c-20.22 11.33-38.52 27.76-63.24 28.08a1.93 1.88 59.2 01-.94-.25c-1.86-1.11-2.65-.01-4.21.78q-6.86 3.49-13.99 6.4a2.07 2.06-23.3 01-2.65-1.05c-.94-2.04-.16-3.11 1.55-4.31q6.18-4.29 12.73-7.95a1.54 1.52 88.3 00.64-.69c6.6-14.16 20.43-20.53 33.04-28.51zm-14.06 15.66l.62 5.15a.75.74 84.8 00.79.66q1.86-.12 3.14-.78c24.88-12.7 49.01-28.25 72.96-40.53a.38.37 20.2 00-.32-.68q-16.78 6.72-32.66 12.46c-12.37 4.47-29.75 13.77-43.79 22.21a1.57 1.57 0 00-.74 1.51zm56.57-11.35c9.13 2.33 18.79 2.62 27.2-1.69 5.92-3.03 9.9-7.83 14.33-12.35a.51.51 0 00-.12-.8l-13.21-7.3a.59.57 40.5 00-.64.04l-27.7 21.42q-.63.48.14.68zm-68.56 26.04q5.77.48 11.4-.97a.67.67 0 00.32-1.11q-3.75-3.9-4.23-9.28a.37.37 0 00-.58-.27c-1.61 1.13-9.75 7.81-7.85 11.05a1.21 1.21 0 00.94.58z"/><path fill="#989c9e" d="M221.11 486.01a.78.78 0 01-.57-1.15q3.24-5.76 8.22-10.09a.47.46 62.8 01.76.25q1.27 5.29 4.3 9.78a.44.44 0 01-.27.68q-6.19 1.42-12.44.53zM363.92 519.92a1.57 1.57 0 01.74-1.51c14.04-8.44 31.42-17.74 43.79-22.21q15.88-5.74 32.66-12.46a.38.37 20.2 01.32.68c-23.95 12.28-48.08 27.83-72.96 40.53q-1.28.66-3.14.78a.75.74 84.8 01-.79-.66l-.62-5.15zM420.49 508.57q-.77-.2-.14-.68l27.7-21.42a.59.57 40.5 01.64-.04l13.21 7.3a.51.51 0 01.12.8c-4.43 4.52-8.41 9.32-14.33 12.35-8.41 4.31-18.07 4.02-27.2 1.69zM350.99 534.03c-1.9-3.24 6.24-9.92 7.85-11.05a.37.37 0 01.58.27q.48 5.38 4.23 9.28a.67.67 0 01-.32 1.11q-5.63 1.45-11.4.97a1.21 1.21 0 01-.94-.58z"/></svg>