<svg xmlns="http://www.w3.org/2000/svg" viewBox="0 0 591 591"><g stroke-width="2" fill="none"><path stroke="#10100f" vector-effect="non-scaling-stroke" d="M590.06 0l.19.29"/><path stroke="#7d7f71" vector-effect="non-scaling-stroke" d="M590.25.29l.04 589.46"/><path stroke="gray" vector-effect="non-scaling-stroke" d="M590.29 589.75l-.54.54"/><path stroke="#7d7f71" vector-effect="non-scaling-stroke" d="M589.75 590.29L.82 590.06a.34.34 0 00-.32.47l.19.47M586.25 4.51a.26.26 0 00-.26-.26H4.51a.26.26 0 00-.26.26v581.48a.26.26 0 00.26.26h581.48a.26.26 0 00.26-.26V4.51"/><path stroke="#8d8e80" vector-effect="non-scaling-stroke" d="M591 585.81c-.83-.45-.25-535.69-.25-585.31a.25.24-86.1 00-.21-.25q-.17-.02-.29.04"/><path stroke="#fdfef1" vector-effect="non-scaling-stroke" d="M591 590.06l-.71-.31"/><path stroke="#faf1c9" vector-effect="non-scaling-stroke" d="M28.22 62.19q-.33 17.14.89 34.76a1.02 1.02 0 001.22.93c3.29-.65 12.62-11.2 16.67-15.38q20.73-21.39 41.57-42.68 2.15-2.2 3.67-4.83a.57.57 0 00-.5-.85q-21.15.08-42.23.23-8.2.06-14.42 4.23c-8.53 5.72-6.71 14.77-6.87 23.59"/><path stroke="#8d8e80" vector-effect="non-scaling-stroke" d="M112.69 481.64c-14.62-1.46-29.47-3.93-43.91-1.69a.61.61 0 00-.51.59l-.06 30.44a.92.91-84.7 00.74.9q20.82 3.98 41.85 7.98c7.04 1.34 13.12.6 19.95-.45a1.57 1.56-71.8 00.86-.44l10.41-10.69a.62.62 0 01.99.15c8.96 17.27 18.4 37.76 42.75 36.88q8.97-.32 17.97-.45c22.05-.33 31.78-18.51 37.23-37.11a1.53 1.53 0 011.79-1.07q13.12 2.84 26.52 1.91a1.62 1.56 22.2 00.88-.35l61.1-51.45a.55.54 66.3 01.89.35c1.83 13.98 5.4 27.8 12.7 39.81q5.15 8.48 12.45 17.24c13.79 16.54 30.32 16.34 49.71 13.1 14.57-2.43 23.87-9.64 32.06-22.19 19.54-29.96 21.41-74.32 11.85-107.78-3.94-13.81-11.93-31.66-22.9-43.78a1.23 1.22 24.9 01-.31-.84l.59-28.42a.47.47 0 00-.5-.48q-18.91.92-37.84.79a.17.17 0 01-.14-.26c4.72-7.35 8.3-14.52 9.88-23.45.89-5.02 2.27-20.87 5.83-23.84l39.16-32.62q.57-.47 1.94-1.34a1.29 1.28 34.1 01.91-.17c17.37 3.21 32.48-4.9 39.77-20.97a1.48 1.44 89.1 01.65-.69c2.33-1.19 5.21-1.88 7.16-2.91 9.48-5.01 15.43-12.55 15.86-23.58a.73.72 81.8 01.49-.66q9.39-3.26 18.82-6.59c21.68-7.64 15.55-41.83 5.79-56.55-10.67-16.1-33.84-26.68-51.46-15.42-6.71 4.28-13.61 13.77-19.69 20.56-.72.79-1.71 1.18-2.67 1.18-7.59-.07-14.53 4.16-19.63 9.43a1.16 1.12-66.7 01-.84.35c-17.72-.21-32.17 12.15-37.47 28.44a1.07 1.06 87.6 01-.59.65l-51.78 22.36a1.15 1.14 43.5 01-.85.02c-13.35-5.05-29.23-8.9-43.53-6.9-13.76 1.93-30.02 6.04-41.47 14.28q-33.29 23.95-66.79 47.62c-6.58 4.66-18.18 13.21-27.53 19.49q-1.7 1.14-3.99 1.52c-19.56 3.22-30.49 21.29-36.19 38.47-6.86 20.67-4.27 42.91 4.36 62.8q1.14 2.63 5.18 6.86a.86.84-58.3 01.19.84q-1.89 6.08-3.9 12.12c-1.52 4.58-1.41 9.06-5.24 12.59-3.21 2.97-20.05 18.41-20.02 21.78q.14 13.18 1.02 51.18a.45.45 0 01-.49.46"/><path stroke="#5a5b5c" vector-effect="non-scaling-stroke" d="M519.13 181.26q5.67-4.09 10.28.39a.79.78 56.9 00.83.18q1.99-.74 3.51-2.29"/><path stroke="#666" vector-effect="non-scaling-stroke" d="M533.75 179.54c10.63-8.69 6.16-29.18.32-39.33"/><path stroke="#5a5b5c" vector-effect="non-scaling-stroke" d="M534.07 140.21q-5.11-1.98-7.45-7.24"/><path stroke="#666" vector-effect="non-scaling-stroke" d="M526.62 132.97l.38-4.01a1.01.98 23 00-.36-.86c-8.04-6.62-14.83-10.55-23.65-11.34-14.06-1.26-25.73 8.83-23.24 23.55 3.3 19.53 18.34 35.06 36.57 41.76a1.29 1.28 43.6 00.93-.02l1.88-.79"/><path stroke="#a0a2a3" vector-effect="non-scaling-stroke" d="M526.62 132.97l-2.25-4.93a1.71 1.66 5.2 00-.61-.71c-3.21-2.07-6.05-4.84-9.29-6.35-12.33-5.72-26.67-4.24-32.45 9.68-.78 1.88-.97 6.55-.71 8.47 1.04 7.73 3.18 14.66 7.91 21q11.35 15.18 29.91 21.13M534.07 140.21q1.6 7.33 3.4 14.53 1.85 7.44-.31 16.45c-.75 3.13-2.38 5.19-4.48 7.51a.46.46 0 00.3.77l.77.07"/><path stroke="#5a5b5c" vector-effect="non-scaling-stroke" d="M461.34 181.07l3.92-.3a1.49 1.48-30.7 01.92.23c3.98 2.51 2.53 7.48.43 10.8a.69.67-56.1 00.17.92l4.42 3.23a.81.8-42.6 00.89.03l8.43-5.07a1.92 1.84-58.6 011.05-.28q7.74.17 9.04-7.44a1.33 1.33 0 01.48-.8l5.02-3.91a.6.6 0 00.15-.77q-.35-.64-.97-.96"/><path stroke="#666" vector-effect="non-scaling-stroke" d="M495.29 176.75c-13.03-11.7-21.2-23.5-21.51-41.53a.37.37 0 00-.66-.21q-7.3 9.84-16.03 18.33c-6.8 6.6-3.14 21.67.76 28.9a.55.55 0 00.72.23l2.77-1.4"/><path stroke="#a0a2a3" vector-effect="non-scaling-stroke" d="M495.29 176.75q-.37.62-1.03.88a.86.85-35.5 01-.87-.14q-5.5-4.76-9.96-10.42c-6.14-7.78-9.28-17.37-11.48-27.05a.6.59-37.2 00-1.1-.15c-1.72 3.1-4.6 4.61-6.23 7.66q-2.18 4.09-4.85 5.74c-6.73 4.18-3.46 14-3.23 20.89.05 1.59.98 5.1 2.28 6.03q1.05.75 2.52.88"/><path stroke="#5a5b5c" vector-effect="non-scaling-stroke" d="M453.96 205c5.07 3.1 10.63 5.32 15.54 2.23q2.1-1.32 1.19-3.19a1.72 1.58 8.1 00-.5-.61l-7.15-5.43"/><path stroke="#908f8f" vector-effect="non-scaling-stroke" d="M463.04 198c-8.54-7.47-14.24-17.77-14.95-29.3-.25-3.94-.58-11.45 1.74-14.89q2.11-3.12 7.15-9.45.31-.39-.16-.22c-14.66 5.23-21.2 21.6-18.49 36.13 1.77 9.46 6.08 20.21 15.63 24.73"/><path stroke="#cacbcc" vector-effect="non-scaling-stroke" d="M463.04 198q.04.6-.22 1.1a.66.66 0 01-1.01.2c-6.47-5.57-11.41-13.98-13.65-22.35q-.57-2.12-1.46-4.12c-1.92-4.29-1.98-8.17-2.18-12.63a.27.27 0 00-.44-.19c-3.92 3.32-5.92 7.82-5.26 12.93.33 2.6.26 4.97 1.2 7.41 3.37 8.72 5.1 17.02 13.75 22.89a.77.75 21.5 01.33.74l-.14 1.02"/><path stroke="#5a5b5c" vector-effect="non-scaling-stroke" d="M407.55 186.99q-.58 9.56 3.66 18.01"/><path stroke="#908f8f" vector-effect="non-scaling-stroke" d="M411.21 205q1.33 3.12 5.34 10.23c6.86 12.14 28.03 4.03 25.54-10.08q-.37-2.12-3.15-6.77-6.06-10.14-7.17-22.13c-.86-9.29 2.24-14.57 5.53-22.69a.29.29 0 00-.31-.4c-16.09 2.22-28.66 17.68-29.44 33.83"/><path stroke="#cacbcc" vector-effect="non-scaling-stroke" d="M411.21 205q.28-.5.76-.74a.52.51-24.5 01.71.26c2.96 7.29 6.82 17.2 16.84 15.17q11.9-2.41 11.48-14.95a1.79 1.77 26.2 00-.34-.98q-5.53-7.5-8.1-16.43a.97.96-88.9 00-.62-.65c-5.49-1.76-7.17-13.17-6.91-17.97a.66.65-16.4 00-1.04-.56q-10.41 7.59-16.44 18.84"/><path stroke="#908f8f" vector-effect="non-scaling-stroke" d="M181.77 273.74l15.04-.38a1.68 1.66 26.9 00.91-.29c18.77-12.51 36.56-26.01 55.77-37.98 20.18-12.58 39.08-15.54 62.79-11.13a1.65 1.63-51.3 00.95-.11q41.87-18.68 83.74-37.34 1.59-.71 1.12-3.05a.49.48-13 00-.6-.37c-1.61.41-3.16 1.55-4.43 2.09q-26.41 11.35-52.77 22.84c-1.83.8-6.02 2.74-7.28.51q-.87-1.53.1-3.22a1.7 1.68 1.6 01.74-.69l4.83-2.28q.86-.41-.05-.7c-13.2-4.22-27.1-6.52-40.81-3.31-14.01 3.28-24.35 6.28-36.24 14.87-27.9 20.14-56.23 39.74-83.96 60.1a.24.24 0 00.15.44"/><path stroke="#5a5b5c" vector-effect="non-scaling-stroke" d="M304.04 242.5q-8.64-1.15-17.29-.04"/><path stroke="#666" vector-effect="non-scaling-stroke" d="M286.75 242.46c-11 1.18-19.22 4.28-28.93 10.76q-14.8 9.88-29.59 19.89a1.19 1.18-27.1 00-.45 1.39c1.66 4.42.71 12.63.76 17.5"/><path stroke="#5a5b5c" vector-effect="non-scaling-stroke" d="M228.54 292l.26 15.28a.41.4 83.1 00.49.39q3-.66 6-1.4c6.33-1.56 13.43-.41 19.46 1.47 14.56 4.55 26.65 9.77 40.04 8.01"/><path stroke="#666" vector-effect="non-scaling-stroke" d="M294.79 315.75q3.33-.35 6.45-1.5c11.6-4.27 27.04-12.09 32.71-23.79a2.61 2.61 0 00-.36-2.84l-9.41-11.06"/><path stroke="#5a5b5c" vector-effect="non-scaling-stroke" d="M324.18 276.56q-1.85-4.41 2.14-7.22c22.89-16.09 46.89-30.91 70.36-46.17q.77-.5 1.36-1.17"/><path stroke="#666" vector-effect="non-scaling-stroke" d="M398.04 222q5.47-3.1 10.39-7.23a.71.71 0 00.18-.84q-3.7-7.85-6.11-16.18a.46.46 0 00-.66-.28c-21.25 11.36-42.73 22.25-64.19 33.21-5.46 2.79-15.93 8.8-24.35 12.43q-.45.2-.94.15l-8.32-.76"/><path stroke="#a0a2a3" vector-effect="non-scaling-stroke" d="M398.04 222c-1.38-1.5 7-5.94 8.2-6.59a1.52 1.52 0 00.56-2.15q-3.38-5.38-4.68-11.56a1.7 1.7 0 00-2.23-1.25q-3.53 1.24-6.66 3.05-14.87 8.57-30.26 16.15c-16.53 8.14-30.61 15.52-45.77 23.58-1.19.64-2.61.52-3.96 1.01q-.42.16-.87.1l-7.99-1.08a.46.46 0 01-.4-.5q.01-.12.06-.26M324.18 276.56q1.52 6.32 5.88 9.63 2.49 1.9 2.49 4.16a1.49 1.48 64.2 01-.31.91c-3.09 3.95-5.37 8.17-10.2 10.9-8.67 4.93-16.69 10.61-26.73 12.43a.71.71 0 00-.58.6q-.03.28.06.56M228.54 292l.27 2.34a.18.18 0 00.18.16h.29a.27.26 90 00.26-.27l-.02-20.27a.95.94 73.4 01.42-.79c8.64-5.66 16.91-11.99 25.71-17.35 5.45-3.32 11.26-6.97 16.81-9.13 5.14-2.01 9.57-2.06 14.2-3.32a.5.5 0 00.36-.57q-.04-.24-.27-.34"/><path stroke="#5a5b5c" vector-effect="non-scaling-stroke" d="M212.29 292.5l-.09 34.85a.52.52 0 00.56.52l11.5-.73a.59.59 0 00.56-.6l-.32-23.33"/><path stroke="#666" vector-effect="non-scaling-stroke" d="M224.5 303.21l-.27-26.84a.63.63 0 00-.64-.62l-11.45.2a.65.65 0 00-.63.68l.78 15.87"/><path stroke="#a0a2a3" vector-effect="non-scaling-stroke" d="M224.5 303.21q-.31.32-.72.28a.66.65 2.9 01-.59-.65l-.06-25.56a.59.59 0 00-.6-.59l-9.19.23a.67.66-90 00-.65.66q-.02 5.39.95 13.85.16 1.31-1.35 1.07"/><path stroke="#908f8f" vector-effect="non-scaling-stroke" d="M178.04 276.35c-14.74 7.11-23.9 19.47-30.71 33.46a.41.41 0 00.61.51q10.91-7.92 21.47-16.2c5.08-3.98 10.33-11.05 9.18-17.49a.39.39 0 00-.55-.28"/><path stroke="#5a5b5c" vector-effect="non-scaling-stroke" d="M205.71 295.75c-1.84 8.1-6.25 7.28-13.01 7.86a.58.57-1.1 00-.53.55l-.95 26.54a.45.45 0 01-.89.1c-2.32-8.7-2.07-17.96-2.1-26.75a.59.59 0 00-.63-.59l-4.46.3a.61.6 89 00-.57.6q-.38 20.81.59 41.61a.74.74 0 00.49.67c5.15 1.81 8.68.38 12.15-3.85q5.51-6.7 11.35-13.13c2.75-3.02 1.9-9.34 1.56-13.16"/><path stroke="#666" vector-effect="non-scaling-stroke" d="M208.71 316.5l-.18-38.47a.6.6 0 00-.49-.59c-7.44-1.43-17.46-.46-25.19-.4a.67.66-4.5 00-.66.76l.4 2.66a.82.8-6.7 00.88.68q6.93-.65 13.9-.35c7.65.34 9.62 8.7 8.34 14.96"/><path stroke="#a0a2a3" vector-effect="non-scaling-stroke" d="M208.71 316.5q-.62.46-1.17.24a.72.71-79 01-.44-.66l-.02-18.34a1.43 1.39-68 00-.41-1l-.96-.99"/><path stroke="#5a5b5c" vector-effect="non-scaling-stroke" d="M187.29 291.25l-.01 3.5a.44.44 0 00.45.44l14.12-.27a.86.86 0 00.84-.94l-.4-4.23"/><path stroke="#908f8f" vector-effect="non-scaling-stroke" d="M202.29 289.75q-.53-3.15-2.3-6.02a.99.99 0 00-.85-.48h-13.39a.41.4-14.1 00-.37.6q1.88 3.46 1.91 7.4"/><path stroke="#cacbcc" vector-effect="non-scaling-stroke" d="M202.29 289.75l-.09.92q-.19 1.83-.72.07l-1.38-4.62a.82.8 81.1 00-.77-.57l-10.81-.05a.99.99 0 00-.96 1.25l1.02 3.65a.68.68 0 01-.43.82q-.41.15-.86.03"/><path stroke="#666" vector-effect="non-scaling-stroke" d="M180.53 284.73q-5.4 7.04-.57 14.56a.68.68 0 001.11.05c3.53-4.68 2.89-9.85 0-14.59a.33.33 0 00-.54-.02M134.49 325.25c-2.51 17.86-.15 35.74 8.45 51.66a.3.3 0 00.52.01l2.74-4.67a.61.61 0 00-.15-.78l-1.26-.99a1.64 1.63-79.9 01-.5-.72c-4.28-12.83-7.45-29.94-6.58-43.76"/><path stroke="#908f8f" vector-effect="non-scaling-stroke" d="M137.71 326q2.88-23.22 18.6-40.27a.3.29-57.6 00-.1-.47c-.27-.12-.68.04-.92.27-10.76 10.23-18.91 24.78-20.8 39.72"/><path stroke="#d6d6d6" vector-effect="non-scaling-stroke" d="M137.71 326q-1.77.63-3.22-.75"/><path stroke="#666" vector-effect="non-scaling-stroke" d="M143.52 331.09a1.75 1.73 64.9 00-.42 1.19q.37 9.92 2.49 19.64a.57.57 0 00.83.38l32.95-18.29a.65.64 76.3 00.34-.57l-.29-26.22a.38.38 0 00-.44-.38q-2.35.36-4.31 1.8-12.84 9.42-26.16 18.11-2.85 1.86-4.99 4.34M234.46 349.5q.51 13.25.44 26.5-.02 3.78 2.15 9.03 4.53 10.94 7.77 26.28"/><path stroke="#5a5b5c" vector-effect="non-scaling-stroke" d="M244.82 411.31q3.64 13.96 4.38 28.5a.57.56-1 00.57.54h3.98a.55.55 0 00.55-.58c-.21-4.06-.78-47.12 1.3-46.77a.34.32 4.5 01.28.31l1.51 46.68a.68.67-87.5 00.59.65l3.81.42a.63.63 0 00.7-.63c-.31-36.64-.54-73.32-.51-109.99a.95.94 0 00-.95-.94l-5.96-.01a1.17 1.16 89.3 00-1.16 1.2c.21 6.77.75 13.08.31 19.73-.14 2.06-.52 19.13-1.33 19.39a.79.78 78 01-1.01-.66q-1.88-16.04-2.04-30.34-.07-6.26-.27-8.45a.56.56 0 00-.59-.51q-18.44.92-36.9.26a1.27 1.26 22.6 00-.96.39l-15.47 16.13q-.26.27.12.32c16.26 2.26 28.39 13.3 36.13 27.62q.27.49.27-.07l.27-26.51a.64.64 0 011.14-.4q.55.67.88 1.91"/><path stroke="#a0a2a3" vector-effect="non-scaling-stroke" d="M244.82 411.31q.3-7.57-2.22-14.64-.6-1.67-1.07-4.49c-.59-3.44-2.97-6.84-3.78-9.02q-2.89-7.78-1.9-15.35c.55-4.19-.32-7.58-.08-11.13q.26-3.84.05-7.68a.56.55-2.1 00-.57-.52c-.64.01-.84.45-.79 1.02"/><path stroke="#666" vector-effect="non-scaling-stroke" d="M277.16 440.32q.04-28.82.29-57.57.24-26.4-.45-52.79"/><path stroke="#5a5b5c" vector-effect="non-scaling-stroke" d="M277 329.96l-11.87-.05a.52.52 0 00-.52.51c-.26 12.31.93 25.64.88 36.78q-.11 23.54.28 47.09c.04 2.25.74 4.39.75 6.65q.02 9.67-.09 19.38a.57.57 0 00.5.57q4.71.53 10.23-.57"/><path stroke="#a0a2a3" vector-effect="non-scaling-stroke" d="M277 329.96l-.69.14a.65.65 0 00-.52.65q.59 54.47.26 108.94 0 .56 1.11.63"/><path stroke="#10100f" vector-effect="non-scaling-stroke" d="M198.5 357.96q-2.13.99-1.54 3.54"/><path stroke="#5a5b5c" vector-effect="non-scaling-stroke" d="M196.96 361.5q-4.54-4.53-10.46-6.96"/><path stroke="#666" vector-effect="non-scaling-stroke" d="M186.5 354.54c-18.08-8.55-33.21 11.59-39.29 25.21"/><path stroke="#5a5b5c" vector-effect="non-scaling-stroke" d="M147.21 379.75q-2.76 5.52-4.46 11.46"/><path stroke="#666" vector-effect="non-scaling-stroke" d="M142.75 391.21q-11.9 38.15-6.01 77.8 1 6.7 3.84 18.85c1.88 8.05 5.28 15.7 8.12 23.66q1.8 5.05 7.4 12.17"/><path stroke="#5a5b5c" vector-effect="non-scaling-stroke" d="M156.1 523.69q2.19 4.4 5.86 8.06"/><path stroke="#666" vector-effect="non-scaling-stroke" d="M161.96 531.75q6.32 6.58 15.08 9.12c9.81 2.85 19.83-3.64 26.42-11.12"/><path stroke="#10100f" vector-effect="non-scaling-stroke" d="M203.46 529.75q-.15.98.8 1.19a.8.8 0 00.81-.3c10.36-13.58 14.52-28.88 19.06-45.71.39-1.47.97-1.9 2.16-2.68"/><path stroke="#5a5b5c" vector-effect="non-scaling-stroke" d="M226.29 482.25l3.71-.54"/><path stroke="#908f8f" vector-effect="non-scaling-stroke" d="M230 481.71l13.14-1.32a.73.72 4.6 00.63-.53c.43-1.68.23-3.87.44-5.3 2.93-19.66.52-38.93-2.74-58.35-1.18-7.07-3.59-14.28-5.48-21.46-4.85-18.47-22.32-45.05-44.68-42.89q-.5.04-.07.3 4.05 2.4 7.26 5.8"/><path stroke="#cacbcc" vector-effect="non-scaling-stroke" d="M230 481.71c-.2-.8.13-1.21.94-1.28q5.8-.46 11.64-1.17a.64.64 0 00.56-.66q-.14-3.57.36-7.16c.42-3.08-.39-5.99.01-9.19.92-7.47.26-14.85-.05-22.03-.14-3.4-.24-7.65-1.41-10.84-1.81-4.97-3.07-13.11-3.03-18.38q.01-1.46-.52-2.9c-2.4-6.5-3.72-13.88-6.12-19.64q-3.48-8.33-7.99-16.18c-1.7-2.96-11.95-1.95-14.89-1.49"/><path stroke="gray" vector-effect="non-scaling-stroke" d="M209.5 370.79q-4.62-7.18-11-12.83"/><path stroke="#4a4c4d" vector-effect="non-scaling-stroke" d="M209.5 370.79l1.46 2.71"/><path stroke="#565657" vector-effect="non-scaling-stroke" d="M210.96 373.5q3.45 5.71 5.35 10.69 5.84 15.23 9.93 32.98"/><path stroke="#4a4c4d" vector-effect="non-scaling-stroke" d="M226.24 417.17q-.54 4.27.72 8.33"/><path stroke="#565657" vector-effect="non-scaling-stroke" d="M226.96 425.5q3.17 24.22.5 48.5"/><path stroke="#4a4c4d" vector-effect="non-scaling-stroke" d="M227.46 474l-1.17 8.25"/><path stroke="#565657" vector-effect="non-scaling-stroke" d="M203.46 529.75c9-10.4 14.92-27.91 17.33-40.75"/><path stroke="#a0a2a3" vector-effect="non-scaling-stroke" d="M227.46 474l.06 1.5a.54.54 0 00.55.52c1.89-.04 1.89-14.55 2.11-16.41q.49-4.04.21-7.74c-.63-8.35.26-18.41-1.73-26.89a.6.59-9.8 00-.65-.45q-.87.11-1.05.97M226.24 417.17q-1.83-23.2-12.74-42.87-.88-1.59-2.54-.8"/><path stroke="#4a4c4d" vector-effect="non-scaling-stroke" d="M196.96 361.5q7.94 8.04 12.83 18.23c15.07 31.4 18.04 67.86 12.73 101.57q-.62 3.91-1.73 7.7"/><path stroke="#a0a2a3" vector-effect="non-scaling-stroke" d="M220.79 489q-.06-1.02-1.19-1.09a.78.77-75 00-.74.43c-.65 1.29-.63 3.07-.9 4.2q-3.93 16.43-12.37 30.95c-.97 1.68-2.52 3.07-3.6 4.86-2.82 4.73-12.95 11.31-18.33 11.8-6.17.56-10.88-2.44-17.11-5.97a1.82 1.79 1 01-.67-.68q-1.33-2.4-3.92-1.75M156.1 523.69q-2.99-10.17-6.3-16.42-2.6-4.92-3.48-9.23-.1-.52.2-.09 3.29 4.56 5.52 9.76.65 1.53 3.64 4.33a.68.67 49.6 00.83.07q.39-.27.28-.86"/><path stroke="#5a5b5c" vector-effect="non-scaling-stroke" d="M156.79 511.25c5.13 7.6 13.42 15.1 22.52 16.19 12.69 1.53 24.29-10.36 29.36-20.93 11.17-23.33 12.91-49.05 10.4-75.07q-1.11-11.54-3.09-20.06c-.85-3.63-2.44-7.54-3.69-11.3-5.96-17.81-20.1-41.51-42.62-33.88-11.86 4.01-21.3 23.06-24.13 34.05"/><path stroke="#a0a2a3" vector-effect="non-scaling-stroke" d="M145.54 400.25q-.46-.94-1.42-.99a.6.6 0 00-.59.39l-.45 1.19a.45.45 0 01-.75.15c-.97-1.04 1.24-7.24 1.63-8.8a.59.59 0 00-.38-.7l-.83-.28M186.5 354.54l-.09.91a.68.68 0 01-.96.56c-5.38-2.46-9.36-2.39-14.88.15-5.62 2.59-9.63 5.14-12.83 10.57q-.26.43-.68.69-1.04.65-1.65 1.75-3.25 5.8-7.26 11.85a.61.61 0 01-.95.08q-.3-.32.01-1.35"/><path stroke="#666" vector-effect="non-scaling-stroke" d="M156.79 511.25c-17.79-28.79-20.25-66.74-14.5-99.18.69-3.93 2.13-7.82 3.25-11.82"/><path stroke="#10100f" vector-effect="non-scaling-stroke" d="M424.99 428l1.76 16.78"/><path stroke="#666" vector-effect="non-scaling-stroke" d="M426.75 444.78c.02 24.37-6.39 49.58-28.91 62.1a1.79 1.73 30.8 01-.93.22q-4.42-.22-8.2 2.4"/><path stroke="#5a5b5c" vector-effect="non-scaling-stroke" d="M388.71 509.5l-.96.46"/><path stroke="#666" vector-effect="non-scaling-stroke" d="M387.75 509.96c-3.86 1.63-4.79 7.94-5.18 12.32a.49.48 5.2 00.45.53c5.85.4 11.95 1.01 16.94-2.6 25.91-18.73 33.22-56.58 32.77-86.15q-.21-13.73-4.93-31.4"/><path stroke="#10100f" vector-effect="non-scaling-stroke" d="M427.8 402.66q-.93-2.08-1-4.41-.31-10.61-.71-21.24a.71.71 0 00-.52-.66q-.58-.17-.78.15"/><path stroke="#5a5b5c" vector-effect="non-scaling-stroke" d="M424.79 376.5l-7.92-3.55a.31.31 0 00-.44.29l.13 54.3a.68.67-83.6 00.52.66q3.9.9 7.91-.2"/><path stroke="#4a4c4d" vector-effect="non-scaling-stroke" d="M424.79 376.5l.2 51.5"/><path stroke="#565657" vector-effect="non-scaling-stroke" d="M427.8 402.66l-1.05 42.12"/><path stroke="#a0a2a3" vector-effect="non-scaling-stroke" d="M387.75 509.96q.19-.05.37.07a.41.41 0 01.11.57c-2.62 3.93-4.85 5.55-3.79 10.87a.63.63 0 00.61.51q3.39.09 6.76-.21c3.9-.35 7.79-3.55 11.14-5.49q1.72-.99 2.95-2.78c2.47-3.57 5.77-6.52 7.76-9.87 1.01-1.72 7.56-12.89 6.26-14.09a.44.44 0 00-.64.05c-4.42 5.72-9.54 11.76-16.04 15.19q-1.24.65-2.55 2.02c-2.16 2.25-7.72 2.64-10.81 3.88a.82.81 55.7 01-.86-.17q-.39-.38-.31-1.01"/><path stroke="#5a5b5c" vector-effect="non-scaling-stroke" d="M406.75 383.71q2.12-.42 3.71.79"/><path stroke="#666" vector-effect="non-scaling-stroke" d="M410.46 384.5l.27 41.15q.01 2-1.99 2.05l-34.24.84a.2.01-3 00-.19.02l-.08.25a.11.11 0 00.1.15q17.35.19 34.7.52c1.19.03 2.58.45 3.89.46a1.19 1.19 0 001.2-1.21l-1.19-53.49a.58.57 71.7 00-.91-.46l-11.44 8.34q-.59.43.14.45l6.03.14"/><path stroke="#a0a2a3" vector-effect="non-scaling-stroke" d="M410.46 384.5l.77-5.31a.79.79 0 00-1.34-.68l-2.02 2.03a.53.53 0 00-.03.73q.63.7.66 1.6a.53.53 0 01-.42.54l-1.33.3"/><path stroke="#908f8f" vector-effect="non-scaling-stroke" d="M354.69 385.06q4.47-.07 6.57-.32 2.17-.25-.02-.27l-75.23-.7a.6.6 0 00-.52.92c1.63 2.64 3.25 2.33 5.98 2.32q7.18-.05 14.35-.5c5.4-.34 11.15-.11 16.74-.43 11.76-.69 21.38-.84 32.13-1.02"/><path stroke="#666" vector-effect="non-scaling-stroke" d="M387 388.29l-33.01 1.25"/><path stroke="#5a5b5c" vector-effect="non-scaling-stroke" d="M353.99 389.54q-3.9-.85-7.69.33"/><path stroke="#666" vector-effect="non-scaling-stroke" d="M346.3 389.87q-9.53-.55-19.12.58"/><path stroke="#5a5b5c" vector-effect="non-scaling-stroke" d="M327.18 390.45q-3.41-1-6.93-.16"/><path stroke="#666" vector-effect="non-scaling-stroke" d="M320.25 390.29q-1.25-.46-2.5 0"/><path stroke="#5a5b5c" vector-effect="non-scaling-stroke" d="M317.75 390.29q-4.02-.57-8 .25"/><path stroke="#666" vector-effect="non-scaling-stroke" d="M309.75 390.54c-5.89.2-13.93 1.54-19.55.33a.6.6 0 00-.69.4q-.1.32-.01.69"/><path stroke="#5a5b5c" vector-effect="non-scaling-stroke" d="M289.5 391.96q-.76 10.77-.41 21.63a.56.55-89.5 00.52.54q3.88.28 9.89.17c19.38-.36 39.1-1.43 58.45-.41q.53.03.01.16-2.18.53-5.96.68-30.58 1.27-61.8 1.3a1.45 1.45 0 00-1.44 1.45l-.01 12.24a.66.65-89.1 00.63.66c7.22.21 16.52-.89 21.42-1.16q38.71-2.1 77.47-3.49c5.74-.2 12.55-1.24 18.91-1.41a.53.53 0 00.52-.54l-.25-24.24a.44.43-1.9 00-.47-.43c-12.45.78-24.16 1.36-37.22.92q-14-.48-28.02-.55-.51 0-.01-.09c7.5-1.27 16.7-1.13 22.52-1.56q21.35-1.59 42.81-.83a.53.52 90 00.54-.55l-.37-8.45a.61.61 0 00-.64-.59l-19.59.88"/><path stroke="#a0a2a3" vector-effect="non-scaling-stroke" d="M289.5 391.96q10.27.88 20.25-1.42M317.75 390.29q-.07.94.56 1.44a.9.88-35.6 00.89.14q1.02-.39 1.05-1.58M327.18 390.45q9.63 1.14 19.12-.58M353.99 389.54l32.69-.04a.6.6 0 00.6-.53q.04-.34-.28-.68"/><path stroke="#5a5b5c" vector-effect="non-scaling-stroke" d="M450.46 423l-1.8-10.89"/><path stroke="#666" vector-effect="non-scaling-stroke" d="M448.66 412.11c.09-1.63-.47-2.46-2.15-2.73q-5.76-.95-11.31-2.09a.65.65 0 00-.77.76c4.11 21.93 4.17 45.32-1.52 66.94a.47.47 0 00.5.59l11.54-1.08a2.28 2.27-85.4 001.99-1.7q6.3-24.58 3.52-49.8"/><path stroke="#a0a2a3" vector-effect="non-scaling-stroke" d="M448.66 412.11q-4.76-2.94-11.26-2.86a1.02 1.02 0 00-.94 1.38c1.74 4.61 1.31 9.83 1.96 14.7.98 7.38.25 14.75.77 22.16q.18 2.57-.36 5.96c-.97 6.1-.36 11.88-2.94 18.44a.64.63-60.4 00.2.73q1.34 1.1 2.99.37a1.23 1.22-45.3 01.96-.01q2.84 1.23 5.25-.39a1.32 1.26 79.2 00.55-.85q1.94-11.54 3.27-23.16c.92-8.01.49-16.3.43-24.51a.91.91 0 01.45-.8l.47-.27"/><path stroke="#666" vector-effect="non-scaling-stroke" d="M116.79 466.25l.25 22.5"/><path stroke="#5a5b5c" vector-effect="non-scaling-stroke" d="M117.04 488.75l-.04.55a.59.59 0 01-.71.53q-14.66-3.07-29.04-4.54"/><path stroke="#666" vector-effect="non-scaling-stroke" d="M87.25 485.29l-11.15-1.51"/><path stroke="#5a5b5c" vector-effect="non-scaling-stroke" d="M76.1 483.78q-1.5-.91-3.34-.99a.52.51 0 00-.54.53l.12 5.47a.57.56 4.4 00.47.54l33.19 5.64q.93.16-.01.29c-2.3.32-5.01-.52-6.62-.7q-13.08-1.49-26.28-2.63a.7.69 1.9 00-.75.7l.1 8.65a.7.7 0 00.59.68l14.69 2.19a.39.39 0 01.27.16c.66.84-.77 1.24-1.38 1.15q-6.58-1.05-13.41-1.76a.64.63 2.9 00-.7.63v4.28a.62.62 0 00.51.61l36.24 6.49"/><path stroke="#666" vector-effect="non-scaling-stroke" d="M109.25 515.71q4.13 1.1 8.57 1.15a1.12 1.1 20.6 00.83-.37c6.35-7.02 13.45-13.39 20.02-20.16a.81.79 57.1 00.17-.84c-4.43-11.76-5.79-27.2-6.63-38.74"/><path stroke="#5a5b5c" vector-effect="non-scaling-stroke" d="M132.21 456.75c.14-5.18-.46-11.23-.46-15.42q0-13.4 2.09-26.95.36-2.33-1.5-.89c-1.55 1.19-8.99 7.52-8.94 9.94q.43 20.07.32 46.57 0 1.69-.57 3.07-.21.5-.29-.04-.68-4.44-1.04-13.29-.88-21.53-.46-35.22.01-.51-.39-.19c-2.79 2.2-5.23 4.82-5.15 8.69q.38 16.63.97 33.23"/><path stroke="#a0a2a3" vector-effect="non-scaling-stroke" d="M132.21 456.75l-.63.46a.19.18 64.6 01-.29-.11l-.08-.38q-.33-1.46-.37.03c-.35 12.6 1.8 23.33 5.36 36.06q.15.53.68.93a.49.49 0 01.1.68c-1.29 1.77-5.35 8.29-7.29 8.5a1.53 1.49 19.2 00-.86.4q-4.98 4.67-8.98 10.2c-2.36 3.27-6.81 1.53-9.85.95q-1.12-.21-.75 1.24M76.1 483.78q5.2 2.33 10.83 2.66a.41.4-2.9 00.42-.46l-.1-.69M117.04 488.75h.42a.48.48 0 00.47-.37q1.01-4.12.14-9.39-.69-4.22-.12-10.69.13-1.42-1.16-2.05"/><path stroke="#8d8e80" vector-effect="non-scaling-stroke" d="M410.3 443.84q-3.71 5.13-.98 8.95c3.48 4.85 6.1 10.34 8.72 15.71a.2.2 0 00.37-.05q2.44-12.64 2.98-25.5a.4.39-.7 00-.43-.41l-9.45.63a1.63 1.62-73.8 00-1.21.67M366.51 458.09c3.27-4.64 7.99-8.81 4.23-14.93a.76.75-17.8 00-.71-.36l-5.89.54a.5.49 85.4 00-.45.54q.54 7.14 2.24 14.1a.32.32 0 00.58.11"/><path stroke="#908f8f" vector-effect="non-scaling-stroke" d="M250.03 453.76c-.07 6.77-.69 13.53-1.09 20.32a1.17 1.17 0 001.28 1.24l4.17-.4a.76.76 0 00.68-.73l.55-21.68a.49.49 0 00-.61-.49l-4.52 1.15a.63.62 83.2 00-.46.59"/><path stroke="#8d8e80" vector-effect="non-scaling-stroke" d="M382.87 460.13l-9.96 14.23a1.28 1.27 50.2 00-.11 1.27q4.56 9.56 11.82 17.29.4.43.56-.13c.41-1.47-.49-3.37-.54-4.55q-.57-13.09-1.32-26.17-.06-1.06-.2-1.89-.05-.34-.25-.05M398.82 463.98c-.65 11.03-1.54 22.03-2.51 33.02q-.17 2.03.05 3.9a.31.31 0 00.49.22q9.36-6.64 15.91-16.11a.75.75 0 00-.05-.92q-8.09-9.24-13.64-20.16-.22-.44-.25.05"/><path stroke="#666" vector-effect="non-scaling-stroke" d="M293.73 466.765a1.64.77 126.7 001.597-.855 1.64.77 126.7 00.363-1.775 1.64.77 126.7 00-1.597.855 1.64.77 126.7 00-.363 1.775"/><path stroke="#a0a2a3" vector-effect="non-scaling-stroke" d="M490.79 132q-.19-.9-1.02-.82a.83.83 0 00-.7.54c-1.18 3.3-1.87 8.06 1.18 10.6 3.41 2.83 8.81 2.51 10.92-1.92q2.7-5.69-1.02-11.28a.55.55 0 00-.76-.16q-.26.17-.43.54"/><path stroke="#5a5b5c" vector-effect="non-scaling-stroke" d="M498.96 129.5q-5.22-2.56-8.17 2.5"/><path stroke="#666" vector-effect="non-scaling-stroke" d="M498.96 129.5c2.74 4.43 2.69 12.8-3.93 13.37-5.82.5-6.1-6.86-4.24-10.87"/><path stroke="#a0a2a3" vector-effect="non-scaling-stroke" d="M463.65 156.1q-6.55 1.82-2.96 8.32 1.69 3.04 4.39 2.49 9.26-1.9 6.82-10.9a.58.58 0 00-.89-.33q-.55.38-.55.82"/><path stroke="#5a5b5c" vector-effect="non-scaling-stroke" d="M470.46 156.5q-.63-1.2-1.79-1.59a1.59 1.57-43.4 00-.95-.02l-4.07 1.21"/><path stroke="#666" vector-effect="non-scaling-stroke" d="M470.46 156.5c2.83 7.73-8.47 12.38-9.16 5.9q-.32-3.13 2.35-6.3"/><path stroke="#5a5b5c" vector-effect="non-scaling-stroke" d="M477.75 186.29c5.38 2.7 12.68-3.4 7.99-6.57q-2.91-1.97-6.62-.4"/><path stroke="#a0a2a3" vector-effect="non-scaling-stroke" d="M479.12 179.32q-5.77 1.59-2.65 7.57a.57.55-18.9 00.62.29q.81-.16.66-.89"/><path stroke="#666" vector-effect="non-scaling-stroke" d="M479.12 179.32q-3.52 3.17-1.37 6.97"/><path stroke="#cacbcc" vector-effect="non-scaling-stroke" d="M305.45 267.795a6.78 5.31 93.8 005.748-6.413 6.78 5.31 93.8 00-4.849-7.117 6.78 5.31 93.8 00-5.747 6.413 6.78 5.31 93.8 004.849 7.117"/><path stroke="#a0a2a3" vector-effect="non-scaling-stroke" d="M171.92 312.72q-13.58 9.43-26.79 19.54a1.87 1.86 56.1 00-.47 2.42c1.65 2.83 1.02 5.77 1.4 8.55q.28 1.99.23 4.03a1.2 1.19 3.9 001.07 1.22c1.79.2 3-1.49 4.22-2.04q12.64-5.68 24.45-12.99a1.24 1.2 81.6 00.54-.75q1.71-7.07.89-14.26c-.29-2.53.7-5.14-.2-7.8a1.04 1.04 0 00-1.41-.61c-1.84.84-2.63 1.78-3.93 2.69"/><path stroke="#5a5b5c" vector-effect="non-scaling-stroke" d="M183.21 384.25c-1.29 7.75-.72 15.13-.48 24.15.1 3.79.76 9.09.58 13.71a.95.94-74.6 00.48.86l4.7 2.67a.67.66-65.8 00.96-.37q1.41-4.2 5.28-11.05 1.64-2.9-.64-6.09"/><path stroke="#666" vector-effect="non-scaling-stroke" d="M194.09 408.13q.02-8.96-1.2-17.61c-.76-5.39-1.53-11.55-5.05-15.94a1.72 1.72 0 00-2.94.45q-1.67 4.31-1.69 9.22"/><path stroke="#a0a2a3" vector-effect="non-scaling-stroke" d="M194.09 408.13q-1.54-12.95-5.52-25.31-.16-.48-.09-.99.39-2.95-1.85-4.86a.32.32 0 00-.51.16c-.21.74-.8 8.33-2.91 7.12"/><path stroke="#5a5b5c" vector-effect="non-scaling-stroke" d="M143.04 436.5q-.66 17.71 3.17 35"/><path stroke="#908f8f" vector-effect="non-scaling-stroke" d="M146.21 471.5c2.39 16.68 14.46 54.15 37.99 52.1a.45.45 0 00.4-.55l-1.85-7.79q-.12-.51-.44-.93-6.45-8.64-11.11-18.34a.35.35 0 00-.58-.08c-2.49 2.86-6.41 6.36-9.53 3.06-6.19-6.56 6.85-23 3.37-27.72"/><path stroke="#5a5b5c" vector-effect="non-scaling-stroke" d="M164.46 471.25l-.17-1.5"/><path stroke="#666" vector-effect="non-scaling-stroke" d="M164.29 469.75l-1.67-11.59a1.3 1.3 0 00-.45-.81q-2.64-2.25-5.54-4.13c-3.78-2.44-8.8-8.33-7.34-13.22"/><path stroke="#5a5b5c" vector-effect="non-scaling-stroke" d="M149.29 440c2.92-3.18 6.64-2.69 10.64-3.2"/><path stroke="#666" vector-effect="non-scaling-stroke" d="M159.93 436.8q1.71-11.82 4.58-23.44a1.05 1.05 0 011.94-.25l5.52 10.01a.52.52 0 00.71.21q3.82-2.06 8.21-1.21a.43.43 0 00.52-.47q-.43-4.22-.52-8.46c-.14-6.29-4.11-8.62-6.9-13.28q-3.39-5.65-7.1-11.1a1.13 1.13 0 00-.79-.47c-12.13-1.37-2.15 18.28.08 22.23a.63.63 0 01-.53.94l-18.21.57a.99.98 13.6 00-.82.49q-.79 1.36-1.09 3.43-1.93 13.67-2.49 20.5"/><path stroke="#a0a2a3" vector-effect="non-scaling-stroke" d="M159.93 436.8q-1.41-10.62 2.7-20.5a2.05 2.05 0 00-1.78-2.84q-4.92-.28-10.61.39c-3.54.42-2.43 2.41-2.82 4.79q-.75 4.62-2.39 16.62-.22 1.65-1.99 1.24M149.29 440q-.22-.79-.86-.93a.73.73 0 00-.78.34q-1.78 2.96.27 5.23.36.39.49.91 1.07 4.1 3.61 5.95 4.92 3.56 7.45 6.01c3.41 3.32 2.27 8.28 3.97 12.24a.47.47 0 00.58.26q.17-.06.27-.26"/><path stroke="#cacbcc" vector-effect="non-scaling-stroke" d="M164.46 471.25l-.22-.27a.64.61 69.6 00-.48-.23l-16.71-.09a.83.82 12.3 00-.75.48q-.08.18-.09.36"/><path stroke="#5a5b5c" vector-effect="non-scaling-stroke" d="M195.96 417.25c-2.56 3.64-4.61 9.67-2.55 13.62 1.28 2.44 4.48 3.04 6.26.82q1.81-2.24 5.04-8.44"/><path stroke="#666" vector-effect="non-scaling-stroke" d="M204.71 423.25q2.63-5.28 5.47-10.46c1.95-3.54-.69-10.03-2.07-13.42a.51.51 0 00-.91-.07c-3.63 6.09-8.53 11.52-11.24 17.95"/><path stroke="#a0a2a3" vector-effect="non-scaling-stroke" d="M204.71 423.25q-.53-.19-.91-.58a.74.74 0 01-.13-.83c1.24-2.61 2.03-4.56 3.74-7.56q2.69-4.73.69-10.44a.68.68 0 00-1.18-.19q-5.04 6.39-9.04 13.49a1.24 1.18 5.6 01-.73.57q-.89.25-1.19-.46"/><path stroke="#666" vector-effect="non-scaling-stroke" d="M209.44 436.58l6.5.94a.58.57-89.7 00.65-.65c-.83-5.95-1.21-13.69-3.68-18.94q-.19-.42-.41-.01l-5.8 11a1 1 0 00-.05.84l2.48 6.58a.39.38-6.2 00.31.24"/><path stroke="#5a5b5c" vector-effect="non-scaling-stroke" d="M182.21 458.25l-8.21-.21"/><path stroke="#666" vector-effect="non-scaling-stroke" d="M174 458.04q-1.14-.48-2.07-.12a.49.48-23.1 00-.27.66c1.09 2.4 2.14 5.4 4.25 6.81 5.25 3.53 9.44-4.68 10.37-8.62 2.28-9.57 2.45-24.5-6.64-30.97a1.31 1.3-30.7 00-.91-.23c-5.34.69-7.26 6.54-8.13 10.94q-.19.91.49.27l1.59-1.53a1.07 1.04-65.2 01.78-.3l7.77.35a1.13 1.1-19.3 01.78.36c4.91 5.28 5.77 17.57.2 22.59"/><path stroke="#a0a2a3" vector-effect="non-scaling-stroke" d="M174 458.04c.67 2.04.55 6.21 2.92 6.79 5.06 1.24 5.82-2.78 5.29-6.58"/><path stroke="#666" vector-effect="non-scaling-stroke" d="M196.54 435.64c-4.41-.61-5.44-4.04-6.88-8.23a.75.75 0 00-.68-.5l-1.31-.02a.55.55 0 00-.51.77q6.65 14.93 2.49 30.83a.66.66 0 001.19.53q1.92-2.94 5.18-4.2a.42.42 0 00.16-.67c-.98-1.09-1.75-1.54-1.98-3.09-1.16-7.8 4.79-11.33 11.77-10.76a.77.77 0 00.82-.91l-1.39-7.38q-.18-.97-.69-.12-2.71 4.51-8.17 3.75M181.186 437.782a.27.27 0 00-.306-.228l-.713.104a.27.27 0 00-.228.306l1.455 9.974a.27.27 0 00.306.228l.713-.104a.27.27 0 00.228-.306l-1.455-9.974"/><path stroke="#5a5b5c" vector-effect="non-scaling-stroke" d="M153.03 439.82c-4.96 1.38-1.84 4.95.58 6.56 2.25 1.49 8.77 1.24 11.49.99a.68.68 0 00.61-.65l.15-5.93a.73.73 0 00-.51-.72q-6.15-1.97-12.32-.25"/><path stroke="#666" vector-effect="non-scaling-stroke" d="M174.785 454.158a7.39 3 88.8 002.844-7.45 7.39 3 88.8 00-3.154-7.326 7.39 3 88.8 00-2.844 7.45 7.39 3 88.8 003.154 7.326"/><path stroke="#5a5b5c" vector-effect="non-scaling-stroke" d="M198 445.15c-2.48 1.65-2.37 4.62.82 5.25q8.45 1.69 16.95 1.32a1.29 1.28 87.1 001.22-1.36l-.31-5.18a.61.61 0 00-.49-.56c-6.24-1.24-13.44-2.64-18.19.53"/><path stroke="#666" vector-effect="non-scaling-stroke" d="M203.15 457.79l2.01.97a.66.66 0 00.88-.28c1.38-2.6-2.26-2.78-3.11-1.47a.54.54 0 00.22.78"/><path stroke="#8d8e80" vector-effect="non-scaling-stroke" d="M216.24 456.66l-5.88-.22a.67.66-82 00-.67.51c-1.25 4.86-4.59 7.69.02 12.45a1.19 1.16-22 00.83.34l4.26.01a.71.7 3.7 00.7-.61l1.47-11.63a.76.76 0 00-.73-.85"/><path stroke="#666" vector-effect="non-scaling-stroke" d="M206.96 494q.58 1.09 1.65 1.94a.35.35 0 00.55-.17q1.79-5.79 3.16-11.71c.82-3.55-3.21-10.06-5.57-14.35"/><path stroke="#5a5b5c" vector-effect="non-scaling-stroke" d="M206.75 469.71l-5.19-10.26a2.16 2.16 0 00-2.04-1.19c-6.28.33-7.57 5.08-5.46 10.3q5.38 13.29 12.9 25.44"/><path stroke="#a0a2a3" vector-effect="non-scaling-stroke" d="M206.75 469.71q-1.49.41-.91 1.47c1.88 3.44 5.27 8.92 4.65 12.93q-.81 5.26-3.53 9.89"/><path stroke="#666" vector-effect="non-scaling-stroke" d="M178.31 470.82c-3.21-.61-4.3-2.33-6.83-4.21a.38.38 0 00-.56.12c-3.79 7.02-6.28 15.6-8.94 23.15-1.12 3.15-2.2 8.88 3.07 8.22a1.29 1.29 0 00.82-.46q4.48-5.59 7.69-11.95c1.72-3.42 4.75-7.66 6.25-12.36q.67-2.1-1.5-2.51"/><path stroke="#5a5b5c" vector-effect="non-scaling-stroke" d="M183.21 476q-.44 9.13.33 18.25"/><path stroke="#666" vector-effect="non-scaling-stroke" d="M183.54 494.25l2.42 28.28a.43.42 77.5 00.57.37l1.22-.44"/><path stroke="#5a5b5c" vector-effect="non-scaling-stroke" d="M187.75 522.46l5.12-2.86"/><path stroke="#666" vector-effect="non-scaling-stroke" d="M192.87 519.6c1.1-11.67 2.42-23.3 2.63-35.01.1-5.9-2.33-10.9-5.08-15.88a.66.65 67.9 00-.74-.32q-5.85 1.51-6.47 7.61"/><path stroke="#a0a2a3" vector-effect="non-scaling-stroke" d="M192.87 519.6l-.67-.1a.6.6 0 01-.51-.53q-.55-4.65.81-11.73 1.4-7.36 1.59-24.77c.04-3.67-2.82-7.89-4.38-11.18a.95.95 0 00-1.49-.31q-2.48 2.19-3.41 5.31a.65.65 0 01-.6.47q-.58.03-1-.76M187.75 522.46q-1.35-9.98-1.77-17.21-.08-1.42.58-3.05a1.54 1.49 49.7 00.06-.93c-.43-1.74-.11-7.33-3.08-7.02"/><path stroke="#908f8f" vector-effect="non-scaling-stroke" d="M180.25 480.37q-2.26 5.8-6.44 10.42a1.02 1 58.5 00-.22.95c.79 2.86 3.21 5.53 4.16 7.27q1.75 3.19 3.4 6.33a.46.46 0 00.87-.26c-.26-2.81-1.02-24.4-1.44-24.78a.21.2 32.4 00-.33.07"/><path stroke="#8d8e80" vector-effect="non-scaling-stroke" d="M203.54 501.25q-.12-2.34-.06-4.72c.1-3.84-3.14-8.15-5.21-11.23a.31.31 0 00-.57.16q-.69 15.71-2.82 31.31a.5.5 0 00.83.44q6.57-5.97 10.23-14.03a1.02 1.01 11.7 00-.94-1.43l-.92.01a.54.54 0 01-.54-.51"/><path stroke="#a0a2a3" vector-effect="non-scaling-stroke" d="M173.69 420.87c7.77.69 6.27-7.62 4.63-12.01-1.12-3-4.03-5.34-5.58-8.67-.75-1.6-2.34-2.05-3.2-3.67q-1.78-3.32-3.98-6.39a.78.77 65.4 00-.79-.3c-4.73 1-2.75 7.72-1.27 10.52q2.35 4.48 3.4 9.35c1.06 4.89 2.55 7.7 5.92 10.78a1.51 1.51 0 00.87.39"/><path stroke="#4a4c4d" vector-effect="non-scaling-stroke" d="M90.69 504.77c-.24 1.59 2.55 1.53 3.4 1.34q.84-.19.05-.52l-2.81-1.18a.47.47 0 00-.64.36"/><path stroke="#a0a2a3" vector-effect="non-scaling-stroke" d="M162.51 495.96q1.54 1.27 2.37.18c4.08-5.35 6.9-11.09 10.37-16.79q1.47-2.4 2.43-5.11c.92-2.59-3.59-4.15-5.19-4.24a2.81 2.8-78.7 00-2.8 1.87q-1.77 5.05-3.41 10.12c-.68 2.1-.37 4.34-1.11 6.61a2.03 2 78.8 01-.56.85q-2.5 2.2-2.53 5.59a1.17 1.15 20.5 00.43.92"/><path stroke="#fdfef1" vector-effect="non-scaling-stroke" d="M589.94 591l-.19-.71"/><path stroke="#8d8e80" vector-effect="non-scaling-stroke" d="M32.44 591q-3.38-.63-6.75 0M12.44 591q-5.63-.63-11.25 0"/></g><path d="M0 0h590.06l.19.29.04 589.46-.54.54-588.93-.23a.34.34 0 00-.32.47l.19.47H0V0zm586.25 4.51a.26.26 0 00-.26-.26H4.51a.26.26 0 00-.26.26v581.48a.26.26 0 00.26.26h581.48a.26.26 0 00.26-.26V4.51z"/><path fill="#201f1e" d="M590.06 0h.94v585.81c-.83-.45-.25-535.69-.25-585.31a.25.24-86.1 00-.21-.25q-.17-.02-.29.04l-.19-.29z"/><path fill="#fafde2" d="M590.25.29q.12-.06.29-.04a.25.24-86.1 01.21.25c0 49.62-.58 584.86.25 585.31v4.25l-.71-.31L590.25.29zM586.25 585.99a.26.26 0 01-.26.26H4.51a.26.26 0 01-.26-.26V4.51a.26.26 0 01.26-.26h581.48a.26.26 0 01.26.26v581.48zM28.22 62.19q-.33 17.14.89 34.76a1.02 1.02 0 001.22.93c3.29-.65 12.62-11.2 16.67-15.38q20.73-21.39 41.57-42.68 2.15-2.2 3.67-4.83a.57.57 0 00-.5-.85q-21.15.08-42.23.23-8.2.06-14.42 4.23c-8.53 5.72-6.71 14.77-6.87 23.59zm84.47 419.45c-14.62-1.46-29.47-3.93-43.91-1.69a.61.61 0 00-.51.59l-.06 30.44a.92.91-84.7 00.74.9q20.82 3.98 41.85 7.98c7.04 1.34 13.12.6 19.95-.45a1.57 1.56-71.8 00.86-.44l10.41-10.69a.62.62 0 01.99.15c8.96 17.27 18.4 37.76 42.75 36.88q8.97-.32 17.97-.45c22.05-.33 31.78-18.51 37.23-37.11a1.53 1.53 0 011.79-1.07q13.12 2.84 26.52 1.91a1.62 1.56 22.2 00.88-.35l61.1-51.45a.55.54 66.3 01.89.35c1.83 13.98 5.4 27.8 12.7 39.81q5.15 8.48 12.45 17.24c13.79 16.54 30.32 16.34 49.71 13.1 14.57-2.43 23.87-9.64 32.06-22.19 19.54-29.96 21.41-74.32 11.85-107.78-3.94-13.81-11.93-31.66-22.9-43.78a1.23 1.22 24.9 01-.31-.84l.59-28.42a.47.47 0 00-.5-.48q-18.91.92-37.84.79a.17.17 0 01-.14-.26c4.72-7.35 8.3-14.52 9.88-23.45.89-5.02 2.27-20.87 5.83-23.84l39.16-32.62q.57-.47 1.94-1.34a1.29 1.28 34.1 01.91-.17c17.37 3.21 32.48-4.9 39.77-20.97a1.48 1.44 89.1 01.65-.69c2.33-1.19 5.21-1.88 7.16-2.91 9.48-5.01 15.43-12.55 15.86-23.58a.73.72 81.8 01.49-.66q9.39-3.26 18.82-6.59c21.68-7.64 15.55-41.83 5.79-56.55-10.67-16.1-33.84-26.68-51.46-15.42-6.71 4.28-13.61 13.77-19.69 20.56-.72.79-1.71 1.18-2.67 1.18-7.59-.07-14.53 4.16-19.63 9.43a1.16 1.12-66.7 01-.84.35c-17.72-.21-32.17 12.15-37.47 28.44a1.07 1.06 87.6 01-.59.65l-51.78 22.36a1.15 1.14 43.5 01-.85.02c-13.35-5.05-29.23-8.9-43.53-6.9-13.76 1.93-30.02 6.04-41.47 14.28q-33.29 23.95-66.79 47.62c-6.58 4.66-18.18 13.21-27.53 19.49q-1.7 1.14-3.99 1.52c-19.56 3.22-30.49 21.29-36.19 38.47-6.86 20.67-4.27 42.91 4.36 62.8q1.14 2.63 5.18 6.86a.86.84-58.3 01.19.84q-1.89 6.08-3.9 12.12c-1.52 4.58-1.41 9.06-5.24 12.59-3.21 2.97-20.05 18.41-20.02 21.78q.14 13.18 1.02 51.18a.45.45 0 01-.49.46z"/><path fill="#f9e5b0" d="M28.22 62.19c.16-8.82-1.66-17.87 6.87-23.59q6.22-4.17 14.42-4.23 21.08-.15 42.23-.23a.57.57 0 01.5.85q-1.52 2.63-3.67 4.83Q67.73 61.11 47 82.5c-4.05 4.18-13.38 14.73-16.67 15.38a1.02 1.02 0 01-1.22-.93q-1.22-17.62-.89-34.76z"/><path fill="#201f1e" d="M113.18 481.18q-.88-38-1.02-51.18c-.03-3.37 16.81-18.81 20.02-21.78 3.83-3.53 3.72-8.01 5.24-12.59q2.01-6.04 3.9-12.12a.86.84-58.3 00-.19-.84q-4.04-4.23-5.18-6.86c-8.63-19.89-11.22-42.13-4.36-62.8 5.7-17.18 16.63-35.25 36.19-38.47q2.29-.38 3.99-1.52c9.35-6.28 20.95-14.83 27.53-19.49q33.5-23.67 66.79-47.62c11.45-8.24 27.71-12.35 41.47-14.28 14.3-2 30.18 1.85 43.53 6.9a1.15 1.14 43.5 00.85-.02l51.78-22.36a1.07 1.06 87.6 00.59-.65c5.3-16.29 19.75-28.65 37.47-28.44a1.16 1.12-66.7 00.84-.35c5.1-5.27 12.04-9.5 19.63-9.43.96 0 1.95-.39 2.67-1.18 6.08-6.79 12.98-16.28 19.69-20.56 17.62-11.26 40.79-.68 51.46 15.42 9.76 14.72 15.89 48.91-5.79 56.55q-9.43 3.33-18.82 6.59a.73.72 81.8 00-.49.66c-.43 11.03-6.38 18.57-15.86 23.58-1.95 1.03-4.83 1.72-7.16 2.91a1.48 1.44 89.1 00-.65.69c-7.29 16.07-22.4 24.18-39.77 20.97a1.29 1.28 34.1 00-.91.17q-1.37.87-1.94 1.34l-39.16 32.62c-3.56 2.97-4.94 18.82-5.83 23.84-1.58 8.93-5.16 16.1-9.88 23.45a.17.17 0 00.14.26q18.93.13 37.84-.79a.47.47 0 01.5.48l-.59 28.42a1.23 1.22 24.9 00.31.84c10.97 12.12 18.96 29.97 22.9 43.78 9.56 33.46 7.69 77.82-11.85 107.78-8.19 12.55-17.49 19.76-32.06 22.19-19.39 3.24-35.92 3.44-49.71-13.1q-7.3-8.76-12.45-17.24c-7.3-12.01-10.87-25.83-12.7-39.81a.55.54 66.3 00-.89-.35l-61.1 51.45a1.62 1.56 22.2 01-.88.35q-13.4.93-26.52-1.91a1.53 1.53 0 00-1.79 1.07c-5.45 18.6-15.18 36.78-37.23 37.11q-9 .13-17.97.45c-24.35.88-33.79-19.61-42.75-36.88a.62.62 0 00-.99-.15l-10.41 10.69a1.57 1.56-71.8 01-.86.44c-6.83 1.05-12.91 1.79-19.95.45q-21.03-4-41.85-7.98a.92.91-84.7 01-.74-.9l.06-30.44a.61.61 0 01.51-.59c14.44-2.24 29.29.23 43.91 1.69a.45.45 0 00.49-.46zm405.95-299.92q5.67-4.09 10.28.39a.79.78 56.9 00.83.18q1.99-.74 3.51-2.29c10.63-8.69 6.16-29.18.32-39.33q-5.11-1.98-7.45-7.24l.38-4.01a1.01.98 23 00-.36-.86c-8.04-6.62-14.83-10.55-23.65-11.34-14.06-1.26-25.73 8.83-23.24 23.55 3.3 19.53 18.34 35.06 36.57 41.76a1.29 1.28 43.6 00.93-.02l1.88-.79zm-57.79-.19l3.92-.3a1.49 1.48-30.7 01.92.23c3.98 2.51 2.53 7.48.43 10.8a.69.67-56.1 00.17.92l4.42 3.23a.81.8-42.6 00.89.03l8.43-5.07a1.92 1.84-58.6 011.05-.28q7.74.17 9.04-7.44a1.33 1.33 0 01.48-.8l5.02-3.91a.6.6 0 00.15-.77q-.35-.64-.97-.96c-13.03-11.7-21.2-23.5-21.51-41.53a.37.37 0 00-.66-.21q-7.3 9.84-16.03 18.33c-6.8 6.6-3.14 21.67.76 28.9a.55.55 0 00.72.23l2.77-1.4zM453.96 205c5.07 3.1 10.63 5.32 15.54 2.23q2.1-1.32 1.19-3.19a1.72 1.58 8.1 00-.5-.61l-7.15-5.43c-8.54-7.47-14.24-17.77-14.95-29.3-.25-3.94-.58-11.45 1.74-14.89q2.11-3.12 7.15-9.45.31-.39-.16-.22c-14.66 5.23-21.2 21.6-18.49 36.13 1.77 9.46 6.08 20.21 15.63 24.73zm-46.41-18.01q-.58 9.56 3.66 18.01 1.33 3.12 5.34 10.23c6.86 12.14 28.03 4.03 25.54-10.08q-.37-2.12-3.15-6.77-6.06-10.14-7.17-22.13c-.86-9.29 2.24-14.57 5.53-22.69a.29.29 0 00-.31-.4c-16.09 2.22-28.66 17.68-29.44 33.83zm-225.78 86.75l15.04-.38a1.68 1.66 26.9 00.91-.29c18.77-12.51 36.56-26.01 55.77-37.98 20.18-12.58 39.08-15.54 62.79-11.13a1.65 1.63-51.3 00.95-.11q41.87-18.68 83.74-37.34 1.59-.71 1.12-3.05a.49.48-13 00-.6-.37c-1.61.41-3.16 1.55-4.43 2.09q-26.41 11.35-52.77 22.84c-1.83.8-6.02 2.74-7.28.51q-.87-1.53.1-3.22a1.7 1.68 1.6 01.74-.69l4.83-2.28q.86-.41-.05-.7c-13.2-4.22-27.1-6.52-40.81-3.31-14.01 3.28-24.35 6.28-36.24 14.87-27.9 20.14-56.23 39.74-83.96 60.1a.24.24 0 00.15.44zm122.27-31.24q-8.64-1.15-17.29-.04c-11 1.18-19.22 4.28-28.93 10.76q-14.8 9.88-29.59 19.89a1.19 1.18-27.1 00-.45 1.39c1.66 4.42.71 12.63.76 17.5l.26 15.28a.41.4 83.1 00.49.39q3-.66 6-1.4c6.33-1.56 13.43-.41 19.46 1.47 14.56 4.55 26.65 9.77 40.04 8.01q3.33-.35 6.45-1.5c11.6-4.27 27.04-12.09 32.71-23.79a2.61 2.61 0 00-.36-2.84l-9.41-11.06q-1.85-4.41 2.14-7.22c22.89-16.09 46.89-30.91 70.36-46.17q.77-.5 1.36-1.17 5.47-3.1 10.39-7.23a.71.71 0 00.18-.84q-3.7-7.85-6.11-16.18a.46.46 0 00-.66-.28c-21.25 11.36-42.73 22.25-64.19 33.21-5.46 2.79-15.93 8.8-24.35 12.43q-.45.2-.94.15l-8.32-.76zm-91.75 50l-.09 34.85a.52.52 0 00.56.52l11.5-.73a.59.59 0 00.56-.6l-.32-23.33-.27-26.84a.63.63 0 00-.64-.62l-11.45.2a.65.65 0 00-.63.68l.78 15.87zm-34.25-16.15c-14.74 7.11-23.9 19.47-30.71 33.46a.41.41 0 00.61.51q10.91-7.92 21.47-16.2c5.08-3.98 10.33-11.05 9.18-17.49a.39.39 0 00-.55-.28zm27.67 19.4c-1.84 8.1-6.25 7.28-13.01 7.86a.58.57-1.1 00-.53.55l-.95 26.54a.45.45 0 01-.89.1c-2.32-8.7-2.07-17.96-2.1-26.75a.59.59 0 00-.63-.59l-4.46.3a.61.6 89 00-.57.6q-.38 20.81.59 41.61a.74.74 0 00.49.67c5.15 1.81 8.68.38 12.15-3.85q5.51-6.7 11.35-13.13c2.75-3.02 1.9-9.34 1.56-13.16l-.18-38.47a.6.6 0 00-.49-.59c-7.44-1.43-17.46-.46-25.19-.4a.67.66-4.5 00-.66.76l.4 2.66a.82.8-6.7 00.88.68q6.93-.65 13.9-.35c7.65.34 9.62 8.7 8.34 14.96zm-18.42-4.5l-.01 3.5a.44.44 0 00.45.44l14.12-.27a.86.86 0 00.84-.94l-.4-4.23q-.53-3.15-2.3-6.02a.99.99 0 00-.85-.48h-13.39a.41.4-14.1 00-.37.6q1.88 3.46 1.91 7.4zm-6.76-6.52q-5.4 7.04-.57 14.56a.68.68 0 001.11.05c3.53-4.68 2.89-9.85 0-14.59a.33.33 0 00-.54-.02zm-46.04 40.52c-2.51 17.86-.15 35.74 8.45 51.66a.3.3 0 00.52.01l2.74-4.67a.61.61 0 00-.15-.78l-1.26-.99a1.64 1.63-79.9 01-.5-.72c-4.28-12.83-7.45-29.94-6.58-43.76q2.88-23.22 18.6-40.27a.3.29-57.6 00-.1-.47c-.27-.12-.68.04-.92.27-10.76 10.23-18.91 24.78-20.8 39.72zm9.03 5.84a1.75 1.73 64.9 00-.42 1.19q.37 9.92 2.49 19.64a.57.57 0 00.83.38l32.95-18.29a.65.64 76.3 00.34-.57l-.29-26.22a.38.38 0 00-.44-.38q-2.35.36-4.31 1.8-12.84 9.42-26.16 18.11-2.85 1.86-4.99 4.34zm90.94 18.41q.51 13.25.44 26.5-.02 3.78 2.15 9.03 4.53 10.94 7.77 26.28 3.64 13.96 4.38 28.5a.57.56-1 00.57.54h3.98a.55.55 0 00.55-.58c-.21-4.06-.78-47.12 1.3-46.77a.34.32 4.5 01.28.31l1.51 46.68a.68.67-87.5 00.59.65l3.81.42a.63.63 0 00.7-.63c-.31-36.64-.54-73.32-.51-109.99a.95.94 0 00-.95-.94l-5.96-.01a1.17 1.16 89.3 00-1.16 1.2c.21 6.77.75 13.08.31 19.73-.14 2.06-.52 19.13-1.33 19.39a.79.78 78 01-1.01-.66q-1.88-16.04-2.04-30.34-.07-6.26-.27-8.45a.56.56 0 00-.59-.51q-18.44.92-36.9.26a1.27 1.26 22.6 00-.96.39l-15.47 16.13q-.26.27.12.32c16.26 2.26 28.39 13.3 36.13 27.62q.27.49.27-.07l.27-26.51a.64.64 0 011.14-.4q.55.67.88 1.91zm42.7 90.82q.04-28.82.29-57.57.24-26.4-.45-52.79l-11.87-.05a.52.52 0 00-.52.51c-.26 12.31.93 25.64.88 36.78q-.11 23.54.28 47.09c.04 2.25.74 4.39.75 6.65q.02 9.67-.09 19.38a.57.57 0 00.5.57q4.71.53 10.23-.57zm-78.66-82.36q-2.13.99-1.54 3.54-4.54-4.53-10.46-6.96c-18.08-8.55-33.21 11.59-39.29 25.21q-2.76 5.52-4.46 11.46-11.9 38.15-6.01 77.8 1 6.7 3.84 18.85c1.88 8.05 5.28 15.7 8.12 23.66q1.8 5.05 7.4 12.17 2.19 4.4 5.86 8.06 6.32 6.58 15.08 9.12c9.81 2.85 19.83-3.64 26.42-11.12q-.15.98.8 1.19a.8.8 0 00.81-.3c10.36-13.58 14.52-28.88 19.06-45.71.39-1.47.97-1.9 2.16-2.68l3.71-.54 13.14-1.32a.73.72 4.6 00.63-.53c.43-1.68.23-3.87.44-5.3 2.93-19.66.52-38.93-2.74-58.35-1.18-7.07-3.59-14.28-5.48-21.46-4.85-18.47-22.32-45.05-44.68-42.89q-.5.04-.07.3 4.05 2.4 7.26 5.8zM424.99 428l1.76 16.78c.02 24.37-6.39 49.58-28.91 62.1a1.79 1.73 30.8 01-.93.22q-4.42-.22-8.2 2.4l-.96.46c-3.86 1.63-4.79 7.94-5.18 12.32a.49.48 5.2 00.45.53c5.85.4 11.95 1.01 16.94-2.6 25.91-18.73 33.22-56.58 32.77-86.15q-.21-13.73-4.93-31.4-.93-2.08-1-4.41-.31-10.61-.71-21.24a.71.71 0 00-.52-.66q-.58-.17-.78.15l-7.92-3.55a.31.31 0 00-.44.29l.13 54.3a.68.67-83.6 00.52.66q3.9.9 7.91-.2zm-18.24-44.29q2.12-.42 3.71.79l.27 41.15q.01 2-1.99 2.05l-34.24.84a.2.01-3 00-.19.02l-.08.25a.11.11 0 00.1.15q17.35.19 34.7.52c1.19.03 2.58.45 3.89.46a1.19 1.19 0 001.2-1.21l-1.19-53.49a.58.57 71.7 00-.91-.46l-11.44 8.34q-.59.43.14.45l6.03.14zm-52.06 1.35q4.47-.07 6.57-.32 2.17-.25-.02-.27l-75.23-.7a.6.6 0 00-.52.92c1.63 2.64 3.25 2.33 5.98 2.32q7.18-.05 14.35-.5c5.4-.34 11.15-.11 16.74-.43 11.76-.69 21.38-.84 32.13-1.02zm32.31 3.23l-33.01 1.25q-3.9-.85-7.69.33-9.53-.55-19.12.58-3.41-1-6.93-.16-1.25-.46-2.5 0-4.02-.57-8 .25c-5.89.2-13.93 1.54-19.55.33a.6.6 0 00-.69.4q-.1.32-.01.69-.76 10.77-.41 21.63a.56.55-89.5 00.52.54q3.88.28 9.89.17c19.38-.36 39.1-1.43 58.45-.41q.53.03.01.16-2.18.53-5.96.68-30.58 1.27-61.8 1.3a1.45 1.45 0 00-1.44 1.45l-.01 12.24a.66.65-89.1 00.63.66c7.22.21 16.52-.89 21.42-1.16q38.71-2.1 77.47-3.49c5.74-.2 12.55-1.24 18.91-1.41a.53.53 0 00.52-.54l-.25-24.24a.44.43-1.9 00-.47-.43c-12.45.78-24.16 1.36-37.22.92q-14-.48-28.02-.55-.51 0-.01-.09c7.5-1.27 16.7-1.13 22.52-1.56q21.35-1.59 42.81-.83a.53.52 90 00.54-.55l-.37-8.45a.61.61 0 00-.64-.59l-19.59.88zM450.46 423l-1.8-10.89c.09-1.63-.47-2.46-2.15-2.73q-5.76-.95-11.31-2.09a.65.65 0 00-.77.76c4.11 21.93 4.17 45.32-1.52 66.94a.47.47 0 00.5.59l11.54-1.08a2.28 2.27-85.4 001.99-1.7q6.3-24.58 3.52-49.8zm-333.67 43.25l.25 22.5-.04.55a.59.59 0 01-.71.53q-14.66-3.07-29.04-4.54l-11.15-1.51q-1.5-.91-3.34-.99a.52.51 0 00-.54.53l.12 5.47a.57.56 4.4 00.47.54l33.19 5.64q.93.16-.01.29c-2.3.32-5.01-.52-6.62-.7q-13.08-1.49-26.28-2.63a.7.69 1.9 00-.75.7l.1 8.65a.7.7 0 00.59.68l14.69 2.19a.39.39 0 01.27.16c.66.84-.77 1.24-1.38 1.15q-6.58-1.05-13.41-1.76a.64.63 2.9 00-.7.63v4.28a.62.62 0 00.51.61l36.24 6.49q4.13 1.1 8.57 1.15a1.12 1.1 20.6 00.83-.37c6.35-7.02 13.45-13.39 20.02-20.16a.81.79 57.1 00.17-.84c-4.43-11.76-5.79-27.2-6.63-38.74.14-5.18-.46-11.23-.46-15.42q0-13.4 2.09-26.95.36-2.33-1.5-.89c-1.55 1.19-8.99 7.52-8.94 9.94q.43 20.07.32 46.57 0 1.69-.57 3.07-.21.5-.29-.04-.68-4.44-1.04-13.29-.88-21.53-.46-35.22.01-.51-.39-.19c-2.79 2.2-5.23 4.82-5.15 8.69q.38 16.63.97 33.23zm293.51-22.41q-3.71 5.13-.98 8.95c3.48 4.85 6.1 10.34 8.72 15.71a.2.2 0 00.37-.05q2.44-12.64 2.98-25.5a.4.39-.7 00-.43-.41l-9.45.63a1.63 1.62-73.8 00-1.21.67zm-43.79 14.25c3.27-4.64 7.99-8.81 4.23-14.93a.76.75-17.8 00-.71-.36l-5.89.54a.5.49 85.4 00-.45.54q.54 7.14 2.24 14.1a.32.32 0 00.58.11zm-116.48-4.33c-.07 6.77-.69 13.53-1.09 20.32a1.17 1.17 0 001.28 1.24l4.17-.4a.76.76 0 00.68-.73l.55-21.68a.49.49 0 00-.61-.49l-4.52 1.15a.63.62 83.2 00-.46.59zm132.84 6.37l-9.96 14.23a1.28 1.27 50.2 00-.11 1.27q4.56 9.56 11.82 17.29.4.43.56-.13c.41-1.47-.49-3.37-.54-4.55q-.57-13.09-1.32-26.17-.06-1.06-.2-1.89-.05-.34-.25-.05zm15.95 3.85c-.65 11.03-1.54 22.03-2.51 33.02q-.17 2.03.05 3.9a.31.31 0 00.49.22q9.36-6.64 15.91-16.11a.75.75 0 00-.05-.92q-8.09-9.24-13.64-20.16-.22-.44-.25.05zm-105.09 2.785a1.64.77 126.7 001.597-.855 1.64.77 126.7 00.363-1.775 1.64.77 126.7 00-1.597.855 1.64.77 126.7 00-.363 1.775z"/><path fill="#acacad" d="M526.62 132.97l-2.25-4.93a1.71 1.66 5.2 00-.61-.71c-3.21-2.07-6.05-4.84-9.29-6.35-12.33-5.72-26.67-4.24-32.45 9.68-.78 1.88-.97 6.55-.71 8.47 1.04 7.73 3.18 14.66 7.91 21q11.35 15.18 29.91 21.13l-1.88.79a1.29 1.28 43.6 01-.93.02c-18.23-6.7-33.27-22.23-36.57-41.76-2.49-14.72 9.18-24.81 23.24-23.55 8.82.79 15.61 4.72 23.65 11.34a1.01.98 23 01.36.86l-.38 4.01z"/><path fill="#949799" d="M526.62 132.97q2.34 5.26 7.45 7.24 1.6 7.33 3.4 14.53 1.85 7.44-.31 16.45c-.75 3.13-2.38 5.19-4.48 7.51a.46.46 0 00.3.77l.77.07q-1.52 1.55-3.51 2.29a.79.78 56.9 01-.83-.18q-4.61-4.48-10.28-.39-18.56-5.95-29.91-21.13c-4.73-6.34-6.87-13.27-7.91-21-.26-1.92-.07-6.59.71-8.47 5.78-13.92 20.12-15.4 32.45-9.68 3.24 1.51 6.08 4.28 9.29 6.35a1.71 1.66 5.2 01.61.71l2.25 4.93zm-35.83-.97q-.19-.9-1.02-.82a.83.83 0 00-.7.54c-1.18 3.3-1.87 8.06 1.18 10.6 3.41 2.83 8.81 2.51 10.92-1.92q2.7-5.69-1.02-11.28a.55.55 0 00-.76-.16q-.26.17-.43.54-5.22-2.56-8.17 2.5z"/><path fill="#201f1e" d="M498.96 129.5c2.74 4.43 2.69 12.8-3.93 13.37-5.82.5-6.1-6.86-4.24-10.87q2.95-5.06 8.17-2.5z"/><path fill="#acacad" d="M490.79 132c-1.86 4.01-1.58 11.37 4.24 10.87 6.62-.57 6.67-8.94 3.93-13.37q.17-.37.43-.54a.55.55 0 01.76.16q3.72 5.59 1.02 11.28c-2.11 4.43-7.51 4.75-10.92 1.92-3.05-2.54-2.36-7.3-1.18-10.6a.83.83 0 01.7-.54q.83-.08 1.02.82zM495.29 176.75q-.37.62-1.03.88a.86.85-35.5 01-.87-.14q-5.5-4.76-9.96-10.42c-6.14-7.78-9.28-17.37-11.48-27.05a.6.59-37.2 00-1.1-.15c-1.72 3.1-4.6 4.61-6.23 7.66q-2.18 4.09-4.85 5.74c-6.73 4.18-3.46 14-3.23 20.89.05 1.59.98 5.1 2.28 6.03q1.05.75 2.52.88l-2.77 1.4a.55.55 0 01-.72-.23c-3.9-7.23-7.56-22.3-.76-28.9q8.73-8.49 16.03-18.33a.37.37 0 01.66.21c.31 18.03 8.48 29.83 21.51 41.53z"/><path fill="#949799" d="M495.29 176.75q.62.32.97.96a.6.6 0 01-.15.77l-5.02 3.91a1.33 1.33 0 00-.48.8q-1.3 7.61-9.04 7.44a1.92 1.84-58.6 00-1.05.28l-8.43 5.07a.81.8-42.6 01-.89-.03l-4.42-3.23a.69.67-56.1 01-.17-.92c2.1-3.32 3.55-8.29-.43-10.8a1.49 1.48-30.7 00-.92-.23l-3.92.3q-1.47-.13-2.52-.88c-1.3-.93-2.23-4.44-2.28-6.03-.23-6.89-3.5-16.71 3.23-20.89q2.67-1.65 4.85-5.74c1.63-3.05 4.51-4.56 6.23-7.66a.6.59-37.2 011.1.15c2.2 9.68 5.34 19.27 11.48 27.05q4.46 5.66 9.96 10.42a.86.85-35.5 00.87.14q.66-.26 1.03-.88zm-31.64-20.65q-6.55 1.82-2.96 8.32 1.69 3.04 4.39 2.49 9.26-1.9 6.82-10.9a.58.58 0 00-.89-.33q-.55.38-.55.82-.63-1.2-1.79-1.59a1.59 1.57-43.4 00-.95-.02l-4.07 1.21zm14.1 30.19c5.38 2.7 12.68-3.4 7.99-6.57q-2.91-1.97-6.62-.4-5.77 1.59-2.65 7.57a.57.55-18.9 00.62.29q.81-.16.66-.89z"/><path fill="#acacad" d="M534.07 140.21c5.84 10.15 10.31 30.64-.32 39.33l-.77-.07a.46.46 0 01-.3-.77c2.1-2.32 3.73-4.38 4.48-7.51q2.16-9.01.31-16.45-1.8-7.2-3.4-14.53z"/><path fill="#fff" d="M463.04 198q.04.6-.22 1.1a.66.66 0 01-1.01.2c-6.47-5.57-11.41-13.98-13.65-22.35q-.57-2.12-1.46-4.12c-1.92-4.29-1.98-8.17-2.18-12.63a.27.27 0 00-.44-.19c-3.92 3.32-5.92 7.82-5.26 12.93.33 2.6.26 4.97 1.2 7.41 3.37 8.72 5.1 17.02 13.75 22.89a.77.75 21.5 01.33.74l-.14 1.02c-9.55-4.52-13.86-15.27-15.63-24.73-2.71-14.53 3.83-30.9 18.49-36.13q.47-.17.16.22-5.04 6.33-7.15 9.45c-2.32 3.44-1.99 10.95-1.74 14.89.71 11.53 6.41 21.83 14.95 29.3z"/><path fill="#fff" d="M411.21 205q.28-.5.76-.74a.52.51-24.5 01.71.26c2.96 7.29 6.82 17.2 16.84 15.17q11.9-2.41 11.48-14.95a1.79 1.77 26.2 00-.34-.98q-5.53-7.5-8.1-16.43a.97.96-88.9 00-.62-.65c-5.49-1.76-7.17-13.17-6.91-17.97a.66.65-16.4 00-1.04-.56q-10.41 7.59-16.44 18.84c.78-16.15 13.35-31.61 29.44-33.83a.29.29 0 01.31.4c-3.29 8.12-6.39 13.4-5.53 22.69q1.11 11.99 7.17 22.13 2.78 4.65 3.15 6.77c2.49 14.11-18.68 22.22-25.54 10.08q-4.01-7.11-5.34-10.23z"/><path fill="#201f1e" d="M470.46 156.5c2.83 7.73-8.47 12.38-9.16 5.9q-.32-3.13 2.35-6.3l4.07-1.21a1.59 1.57-43.4 01.95.02q1.16.39 1.79 1.59z"/><path fill="#acacad" d="M463.65 156.1q-2.67 3.17-2.35 6.3c.69 6.48 11.99 1.83 9.16-5.9q0-.44.55-.82a.58.58 0 01.89.33q2.44 9-6.82 10.9-2.7.55-4.39-2.49-3.59-6.5 2.96-8.32z"/><path fill="#949799" d="M463.04 198l7.15 5.43a1.72 1.58 8.1 01.5.61q.91 1.87-1.19 3.19c-4.91 3.09-10.47.87-15.54-2.23l.14-1.02a.77.75 21.5 00-.33-.74c-8.65-5.87-10.38-14.17-13.75-22.89-.94-2.44-.87-4.81-1.2-7.41-.66-5.11 1.34-9.61 5.26-12.93a.27.27 0 01.44.19c.2 4.46.26 8.34 2.18 12.63q.89 2 1.46 4.12c2.24 8.37 7.18 16.78 13.65 22.35a.66.66 0 001.01-.2q.26-.5.22-1.1zM411.21 205q-4.24-8.45-3.66-18.01 6.03-11.25 16.44-18.84a.66.65-16.4 011.04.56c-.26 4.8 1.42 16.21 6.91 17.97a.97.96-88.9 01.62.65q2.57 8.93 8.1 16.43a1.79 1.77 26.2 01.34.98q.42 12.54-11.48 14.95c-10.02 2.03-13.88-7.88-16.84-15.17a.52.51-24.5 00-.71-.26q-.48.24-.76.74z"/><path fill="#acacad" d="M479.12 179.32q-3.52 3.17-1.37 6.97.15.73-.66.89a.57.55-18.9 01-.62-.29q-3.12-5.98 2.65-7.57z"/><path fill="#201f1e" d="M477.75 186.29q-2.15-3.8 1.37-6.97 3.71-1.57 6.62.4c4.69 3.17-2.61 9.27-7.99 6.57z"/><path fill="#fff" d="M181.77 273.74a.24.24 0 01-.15-.44c27.73-20.36 56.06-39.96 83.96-60.1 11.89-8.59 22.23-11.59 36.24-14.87 13.71-3.21 27.61-.91 40.81 3.31q.91.29.05.7l-4.83 2.28a1.7 1.68 1.6 00-.74.69q-.97 1.69-.1 3.22c1.26 2.23 5.45.29 7.28-.51q26.36-11.49 52.77-22.84c1.27-.54 2.82-1.68 4.43-2.09a.49.48-13 01.6.37q.47 2.34-1.12 3.05-41.87 18.66-83.74 37.34a1.65 1.63-51.3 01-.95.11c-23.71-4.41-42.61-1.45-62.79 11.13-19.21 11.97-37 25.47-55.77 37.98a1.68 1.66 26.9 01-.91.29l-15.04.38z"/><path fill="#acacad" d="M398.04 222c-1.38-1.5 7-5.94 8.2-6.59a1.52 1.52 0 00.56-2.15q-3.38-5.38-4.68-11.56a1.7 1.7 0 00-2.23-1.25q-3.53 1.24-6.66 3.05-14.87 8.57-30.26 16.15c-16.53 8.14-30.61 15.52-45.77 23.58-1.19.64-2.61.52-3.96 1.01q-.42.16-.87.1l-7.99-1.08a.46.46 0 01-.4-.5q.01-.12.06-.26l8.32.76q.49.05.94-.15c8.42-3.63 18.89-9.64 24.35-12.43 21.46-10.96 42.94-21.85 64.19-33.21a.46.46 0 01.66.28q2.41 8.33 6.11 16.18a.71.71 0 01-.18.84q-4.92 4.13-10.39 7.23z"/><path fill="#949799" d="M398.04 222q-.59.67-1.36 1.17c-23.47 15.26-47.47 30.08-70.36 46.17q-3.99 2.81-2.14 7.22 1.52 6.32 5.88 9.63 2.49 1.9 2.49 4.16a1.49 1.48 64.2 01-.31.91c-3.09 3.95-5.37 8.17-10.2 10.9-8.67 4.93-16.69 10.61-26.73 12.43a.71.71 0 00-.58.6q-.03.28.06.56c-13.39 1.76-25.48-3.46-40.04-8.01-6.03-1.88-13.13-3.03-19.46-1.47q-3 .74-6 1.4a.41.4 83.1 01-.49-.39l-.26-15.28.27 2.34a.18.18 0 00.18.16h.29a.27.26 90 00.26-.27l-.02-20.27a.95.94 73.4 01.42-.79c8.64-5.66 16.91-11.99 25.71-17.35 5.45-3.32 11.26-6.97 16.81-9.13 5.14-2.01 9.57-2.06 14.2-3.32a.5.5 0 00.36-.57q-.04-.24-.27-.34 8.65-1.11 17.29.04-.05.14-.06.26a.46.46 0 00.4.5l7.99 1.08q.45.06.87-.1c1.35-.49 2.77-.37 3.96-1.01 15.16-8.06 29.24-15.44 45.77-23.58q15.39-7.58 30.26-16.15 3.13-1.81 6.66-3.05a1.7 1.7 0 012.23 1.25q1.3 6.18 4.68 11.56a1.52 1.52 0 01-.56 2.15c-1.2.65-9.58 5.09-8.2 6.59zm-92.59 45.795a6.78 5.31 93.8 005.748-6.413 6.78 5.31 93.8 00-4.849-7.117 6.78 5.31 93.8 00-5.747 6.413 6.78 5.31 93.8 004.849 7.117z"/><path fill="#acacad" d="M286.75 242.46q.23.1.27.34a.5.5 0 01-.36.57c-4.63 1.26-9.06 1.31-14.2 3.32-5.55 2.16-11.36 5.81-16.81 9.13-8.8 5.36-17.07 11.69-25.71 17.35a.95.94 73.4 00-.42.79l.02 20.27a.27.26-90 01-.26.27h-.29a.18.18 0 01-.18-.16l-.27-2.34c-.05-4.87.9-13.08-.76-17.5a1.19 1.18-27.1 01.45-1.39q14.79-10.01 29.59-19.89c9.71-6.48 17.93-9.58 28.93-10.76z"/><ellipse fill="#fff" transform="rotate(93.8 30.816 273.643)" rx="6.78" ry="5.31"/><path fill="#acacad" d="M224.5 303.21q-.31.32-.72.28a.66.65 2.9 01-.59-.65l-.06-25.56a.59.59 0 00-.6-.59l-9.19.23a.67.66-90 00-.65.66q-.02 5.39.95 13.85.16 1.31-1.35 1.07l-.78-15.87a.65.65 0 01.63-.68l11.45-.2a.63.63 0 01.64.62l.27 26.84z"/><path fill="#fff" d="M147.33 309.81c6.81-13.99 15.97-26.35 30.71-33.46a.39.39 0 01.55.28c1.15 6.44-4.1 13.51-9.18 17.49q-10.56 8.28-21.47 16.2a.41.41 0 01-.61-.51z"/><path fill="#acacad" d="M324.18 276.56l9.41 11.06a2.61 2.61 0 01.36 2.84c-5.67 11.7-21.11 19.52-32.71 23.79q-3.12 1.15-6.45 1.5-.09-.28-.06-.56a.71.71 0 01.58-.6c10.04-1.82 18.06-7.5 26.73-12.43 4.83-2.73 7.11-6.95 10.2-10.9a1.49 1.48 64.2 00.31-.91q0-2.26-2.49-4.16-4.36-3.31-5.88-9.63z"/><path fill="#949799" d="M224.5 303.21l.32 23.33a.59.59 0 01-.56.6l-11.5.73a.52.52 0 01-.56-.52l.09-34.85q1.51.24 1.35-1.07-.97-8.46-.95-13.85a.67.66-90 01.65-.66l9.19-.23a.59.59 0 01.6.59l.06 25.56a.66.65 2.9 00.59.65q.41.04.72-.28z"/><path fill="#acacad" d="M208.71 316.5q-.62.46-1.17.24a.72.71-79 01-.44-.66l-.02-18.34a1.43 1.39-68 00-.41-1l-.96-.99c1.28-6.26-.69-14.62-8.34-14.96q-6.97-.3-13.9.35a.82.8-6.7 01-.88-.68l-.4-2.66a.67.66-4.5 01.66-.76c7.73-.06 17.75-1.03 25.19.4a.6.6 0 01.49.59l.18 38.47z"/><path fill="#fff" d="M202.29 289.75l-.09.92q-.19 1.83-.72.07l-1.38-4.62a.82.8 81.1 00-.77-.57l-10.81-.05a.99.99 0 00-.96 1.25l1.02 3.65a.68.68 0 01-.43.82q-.41.15-.86.03-.03-3.94-1.91-7.4a.41.4-14.1 01.37-.6h13.39a.99.99 0 01.85.48q1.77 2.87 2.3 6.02z"/><path fill="#acacad" d="M180.53 284.73a.33.33 0 01.54.02c2.89 4.74 3.53 9.91 0 14.59a.68.68 0 01-1.11-.05q-4.83-7.52.57-14.56z"/><path fill="#fff" d="M137.71 326q-1.77.63-3.22-.75c1.89-14.94 10.04-29.49 20.8-39.72.24-.23.65-.39.92-.27a.3.29-57.6 01.1.47q-15.72 17.05-18.6 40.27z"/><path fill="#949799" d="M202.29 289.75l.4 4.23a.86.86 0 01-.84.94l-14.12.27a.44.44 0 01-.45-.44l.01-3.5q.45.12.86-.03a.68.68 0 00.43-.82l-1.02-3.65a.99.99 0 01.96-1.25l10.81.05a.82.8 81.1 01.77.57l1.38 4.62q.53 1.76.72-.07l.09-.92zM205.71 295.75l.96.99a1.43 1.39-68 01.41 1l.02 18.34a.72.71-79 00.44.66q.55.22 1.17-.24c.34 3.82 1.19 10.14-1.56 13.16q-5.84 6.43-11.35 13.13c-3.47 4.23-7 5.66-12.15 3.85a.74.74 0 01-.49-.67q-.97-20.8-.59-41.61a.61.6 89 01.57-.6l4.46-.3a.59.59 0 01.63.59c.03 8.79-.22 18.05 2.1 26.75a.45.45 0 00.89-.1l.95-26.54a.58.57-1.1 01.53-.55c6.76-.58 11.17.24 13.01-7.86z"/><path fill="#acacad" d="M143.52 331.09q2.14-2.48 4.99-4.34 13.32-8.69 26.16-18.11 1.96-1.44 4.31-1.8a.38.38 0 01.44.38l.29 26.22a.65.64 76.3 01-.34.57l-32.95 18.29a.57.57 0 01-.83-.38q-2.12-9.72-2.49-19.64a1.75 1.73 64.9 01.42-1.19zm28.4-18.37q-13.58 9.43-26.79 19.54a1.87 1.86 56.1 00-.47 2.42c1.65 2.83 1.02 5.77 1.4 8.55q.28 1.99.23 4.03a1.2 1.19 3.9 001.07 1.22c1.79.2 3-1.49 4.22-2.04q12.64-5.68 24.45-12.99a1.24 1.2 81.6 00.54-.75q1.71-7.07.89-14.26c-.29-2.53.7-5.14-.2-7.8a1.04 1.04 0 00-1.41-.61c-1.84.84-2.63 1.78-3.93 2.69z"/><path fill="#949799" d="M171.92 312.72c1.3-.91 2.09-1.85 3.93-2.69a1.04 1.04 0 011.41.61c.9 2.66-.09 5.27.2 7.8q.82 7.19-.89 14.26a1.24 1.2 81.6 01-.54.75q-11.81 7.31-24.45 12.99c-1.22.55-2.43 2.24-4.22 2.04a1.2 1.19 3.9 01-1.07-1.22q.05-2.04-.23-4.03c-.38-2.78.25-5.72-1.4-8.55a1.87 1.86 56.1 01.47-2.42q13.21-10.11 26.79-19.54z"/><path fill="#acacad" d="M134.49 325.25q1.45 1.38 3.22.75c-.87 13.82 2.3 30.93 6.58 43.76a1.64 1.63-79.9 00.5.72l1.26.99a.61.61 0 01.15.78l-2.74 4.67a.3.3 0 01-.52-.01c-8.6-15.92-10.96-33.8-8.45-51.66z"/><path fill="#949799" d="M244.82 411.31q.3-7.57-2.22-14.64-.6-1.67-1.07-4.49c-.59-3.44-2.97-6.84-3.78-9.02q-2.89-7.78-1.9-15.35c.55-4.19-.32-7.58-.08-11.13q.26-3.84.05-7.68a.56.55-2.1 00-.57-.52c-.64.01-.84.45-.79 1.02q-.33-1.24-.88-1.91a.64.64 0 00-1.14.4l-.27 26.51q0 .56-.27.07c-7.74-14.32-19.87-25.36-36.13-27.62q-.38-.05-.12-.32l15.47-16.13a1.27 1.26 22.6 01.96-.39q18.46.66 36.9-.26a.56.56 0 01.59.51q.2 2.19.27 8.45.16 14.3 2.04 30.34a.79.78 78 001.01.66c.81-.26 1.19-17.33 1.33-19.39.44-6.65-.1-12.96-.31-19.73a1.17 1.16 89.3 011.16-1.2l5.96.01a.95.94 0 01.95.94c-.03 36.67.2 73.35.51 109.99a.63.63 0 01-.7.63l-3.81-.42a.68.67-87.5 01-.59-.65l-1.51-46.68a.34.32 4.5 00-.28-.31c-2.08-.35-1.51 42.71-1.3 46.77a.55.55 0 01-.55.58h-3.98a.57.56-1 01-.57-.54q-.74-14.54-4.38-28.5zM277 329.96l-.69.14a.65.65 0 00-.52.65q.59 54.47.26 108.94 0 .56 1.11.63-5.52 1.1-10.23.57a.57.57 0 01-.5-.57q.11-9.71.09-19.38c-.01-2.26-.71-4.4-.75-6.65q-.39-23.55-.28-47.09c.05-11.14-1.14-24.47-.88-36.78a.52.52 0 01.52-.51l11.87.05z"/><path fill="#acacad" d="M277 329.96q.69 26.39.45 52.79-.25 28.75-.29 57.57-1.11-.07-1.11-.63.33-54.47-.26-108.94a.65.65 0 01.52-.65l.69-.14zM244.82 411.31q-3.24-15.34-7.77-26.28-2.17-5.25-2.15-9.03.07-13.25-.44-26.5c-.05-.57.15-1.01.79-1.02a.56.55-2.1 01.57.52q.21 3.84-.05 7.68c-.24 3.55.63 6.94.08 11.13q-.99 7.57 1.9 15.35c.81 2.18 3.19 5.58 3.78 9.02q.47 2.82 1.07 4.49 2.52 7.07 2.22 14.64z"/><path fill="#fff" d="M230 481.71c-.2-.8.13-1.21.94-1.28q5.8-.46 11.64-1.17a.64.64 0 00.56-.66q-.14-3.57.36-7.16c.42-3.08-.39-5.99.01-9.19.92-7.47.26-14.85-.05-22.03-.14-3.4-.24-7.65-1.41-10.84-1.81-4.97-3.07-13.11-3.03-18.38q.01-1.46-.52-2.9c-2.4-6.5-3.72-13.88-6.12-19.64q-3.48-8.33-7.99-16.18c-1.7-2.96-11.95-1.95-14.89-1.49q-4.62-7.18-11-12.83-3.21-3.4-7.26-5.8-.43-.26.07-.3c22.36-2.16 39.83 24.42 44.68 42.89 1.89 7.18 4.3 14.39 5.48 21.46 3.26 19.42 5.67 38.69 2.74 58.35-.21 1.43-.01 3.62-.44 5.3a.73.72 4.6 01-.63.53L230 481.71z"/><path fill="#acacad" d="M186.5 354.54l-.09.91a.68.68 0 01-.96.56c-5.38-2.46-9.36-2.39-14.88.15-5.62 2.59-9.63 5.14-12.83 10.57q-.26.43-.68.69-1.04.65-1.65 1.75-3.25 5.8-7.26 11.85a.61.61 0 01-.95.08q-.3-.32.01-1.35c6.08-13.62 21.21-33.76 39.29-25.21z"/><path fill="#949799" d="M186.5 354.54q5.92 2.43 10.46 6.96 7.94 8.04 12.83 18.23c15.07 31.4 18.04 67.86 12.73 101.57q-.62 3.91-1.73 7.7-.06-1.02-1.19-1.09a.78.77-75 00-.74.43c-.65 1.29-.63 3.07-.9 4.2q-3.93 16.43-12.37 30.95c-.97 1.68-2.52 3.07-3.6 4.86-2.82 4.73-12.95 11.31-18.33 11.8-6.17.56-10.88-2.44-17.11-5.97a1.82 1.79 1 01-.67-.68q-1.33-2.4-3.92-1.75-3.67-3.66-5.86-8.06-2.99-10.17-6.3-16.42-2.6-4.92-3.48-9.23-.1-.52.2-.09 3.29 4.56 5.52 9.76.65 1.53 3.64 4.33a.68.67 49.6 00.83.07q.39-.27.28-.86c5.13 7.6 13.42 15.1 22.52 16.19 12.69 1.53 24.29-10.36 29.36-20.93 11.17-23.33 12.91-49.05 10.4-75.07q-1.11-11.54-3.09-20.06c-.85-3.63-2.44-7.54-3.69-11.3-5.96-17.81-20.1-41.51-42.62-33.88-11.86 4.01-21.3 23.06-24.13 34.05q-.46-.94-1.42-.99a.6.6 0 00-.59.39l-.45 1.19a.45.45 0 01-.75.15c-.97-1.04 1.24-7.24 1.63-8.8a.59.59 0 00-.38-.7l-.83-.28q1.7-5.94 4.46-11.46-.31 1.03-.01 1.35a.61.61 0 00.95-.08q4.01-6.05 7.26-11.85.61-1.1 1.65-1.75.42-.26.68-.69c3.2-5.43 7.21-7.98 12.83-10.57 5.52-2.54 9.5-2.61 14.88-.15a.68.68 0 00.96-.56l.09-.91z"/><path d="M198.5 357.96q6.38 5.65 11 12.83l1.46 2.71q3.45 5.71 5.35 10.69 5.84 15.23 9.93 32.98-.54 4.27.72 8.33 3.17 24.22.5 48.5l-1.17 8.25c-1.19.78-1.77 1.21-2.16 2.68-4.54 16.83-8.7 32.13-19.06 45.71a.8.8 0 01-.81.3q-.95-.21-.8-1.19c9-10.4 14.92-27.91 17.33-40.75q1.11-3.79 1.73-7.7c5.31-33.71 2.34-70.17-12.73-101.57q-4.89-10.19-12.83-18.23-.59-2.55 1.54-3.54z"/><path fill="#201f1e" d="M156.79 511.25c-17.79-28.79-20.25-66.74-14.5-99.18.69-3.93 2.13-7.82 3.25-11.82 2.83-10.99 12.27-30.04 24.13-34.05 22.52-7.63 36.66 16.07 42.62 33.88 1.25 3.76 2.84 7.67 3.69 11.3q1.98 8.52 3.09 20.06c2.51 26.02.77 51.74-10.4 75.07-5.07 10.57-16.67 22.46-29.36 20.93-9.1-1.09-17.39-8.59-22.52-16.19zm26.42-127c-1.29 7.75-.72 15.13-.48 24.15.1 3.79.76 9.09.58 13.71a.95.94-74.6 00.48.86l4.7 2.67a.67.66-65.8 00.96-.37q1.41-4.2 5.28-11.05 1.64-2.9-.64-6.09.02-8.96-1.2-17.61c-.76-5.39-1.53-11.55-5.05-15.94a1.72 1.72 0 00-2.94.45q-1.67 4.31-1.69 9.22zm-40.17 52.25q-.66 17.71 3.17 35c2.39 16.68 14.46 54.15 37.99 52.1a.45.45 0 00.4-.55l-1.85-7.79q-.12-.51-.44-.93-6.45-8.64-11.11-18.34a.35.35 0 00-.58-.08c-2.49 2.86-6.41 6.36-9.53 3.06-6.19-6.56 6.85-23 3.37-27.72l-.17-1.5-1.67-11.59a1.3 1.3 0 00-.45-.81q-2.64-2.25-5.54-4.13c-3.78-2.44-8.8-8.33-7.34-13.22 2.92-3.18 6.64-2.69 10.64-3.2q1.71-11.82 4.58-23.44a1.05 1.05 0 011.94-.25l5.52 10.01a.52.52 0 00.71.21q3.82-2.06 8.21-1.21a.43.43 0 00.52-.47q-.43-4.22-.52-8.46c-.14-6.29-4.11-8.62-6.9-13.28q-3.39-5.65-7.1-11.1a1.13 1.13 0 00-.79-.47c-12.13-1.37-2.15 18.28.08 22.23a.63.63 0 01-.53.94l-18.21.57a.99.98 13.6 00-.82.49q-.79 1.36-1.09 3.43-1.93 13.67-2.49 20.5zm52.92-19.25c-2.56 3.64-4.61 9.67-2.55 13.62 1.28 2.44 4.48 3.04 6.26.82q1.81-2.24 5.04-8.44 2.63-5.28 5.47-10.46c1.95-3.54-.69-10.03-2.07-13.42a.51.51 0 00-.91-.07c-3.63 6.09-8.53 11.52-11.24 17.95zm13.48 19.33l6.5.94a.58.57-89.7 00.65-.65c-.83-5.95-1.21-13.69-3.68-18.94q-.19-.42-.41-.01l-5.8 11a1 1 0 00-.05.84l2.48 6.58a.39.38-6.2 00.31.24zm-27.23 21.67l-8.21-.21q-1.14-.48-2.07-.12a.49.48-23.1 00-.27.66c1.09 2.4 2.14 5.4 4.25 6.81 5.25 3.53 9.44-4.68 10.37-8.62 2.28-9.57 2.45-24.5-6.64-30.97a1.31 1.3-30.7 00-.91-.23c-5.34.69-7.26 6.54-8.13 10.94q-.19.91.49.27l1.59-1.53a1.07 1.04-65.2 01.78-.3l7.77.35a1.13 1.1-19.3 01.78.36c4.91 5.28 5.77 17.57.2 22.59zm14.33-22.61c-4.41-.61-5.44-4.04-6.88-8.23a.75.75 0 00-.68-.5l-1.31-.02a.55.55 0 00-.51.77q6.65 14.93 2.49 30.83a.66.66 0 001.19.53q1.92-2.94 5.18-4.2a.42.42 0 00.16-.67c-.98-1.09-1.75-1.54-1.98-3.09-1.16-7.8 4.79-11.33 11.77-10.76a.77.77 0 00.82-.91l-1.39-7.38q-.18-.97-.69-.12-2.71 4.51-8.17 3.75zm-15.354 2.142a.27.27 0 00-.306-.228l-.713.104a.27.27 0 00-.228.306l1.455 9.974a.27.27 0 00.306.228l.713-.104a.27.27 0 00.228-.306l-1.455-9.974zm-28.156 2.038c-4.96 1.38-1.84 4.95.58 6.56 2.25 1.49 8.77 1.24 11.49.99a.68.68 0 00.61-.65l.15-5.93a.73.73 0 00-.51-.72q-6.15-1.97-12.32-.25zm21.755 14.338a7.39 3 88.8 002.844-7.45 7.39 3 88.8 00-3.154-7.326 7.39 3 88.8 00-2.844 7.45 7.39 3 88.8 003.154 7.326zM198 445.15c-2.48 1.65-2.37 4.62.82 5.25q8.45 1.69 16.95 1.32a1.29 1.28 87.1 001.22-1.36l-.31-5.18a.61.61 0 00-.49-.56c-6.24-1.24-13.44-2.64-18.19.53zm5.15 12.64l2.01.97a.66.66 0 00.88-.28c1.38-2.6-2.26-2.78-3.11-1.47a.54.54 0 00.22.78zm13.09-1.13l-5.88-.22a.67.66-82 00-.67.51c-1.25 4.86-4.59 7.69.02 12.45a1.19 1.16-22 00.83.34l4.26.01a.71.7 3.7 00.7-.61l1.47-11.63a.76.76 0 00-.73-.85zM206.96 494q.58 1.09 1.65 1.94a.35.35 0 00.55-.17q1.79-5.79 3.16-11.71c.82-3.55-3.21-10.06-5.57-14.35l-5.19-10.26a2.16 2.16 0 00-2.04-1.19c-6.28.33-7.57 5.08-5.46 10.3q5.38 13.29 12.9 25.44zm-28.65-23.18c-3.21-.61-4.3-2.33-6.83-4.21a.38.38 0 00-.56.12c-3.79 7.02-6.28 15.6-8.94 23.15-1.12 3.15-2.2 8.88 3.07 8.22a1.29 1.29 0 00.82-.46q4.48-5.59 7.69-11.95c1.72-3.42 4.75-7.66 6.25-12.36q.67-2.1-1.5-2.51zm4.9 5.18q-.44 9.13.33 18.25l2.42 28.28a.43.42 77.5 00.57.37l1.22-.44 5.12-2.86c1.1-11.67 2.42-23.3 2.63-35.01.1-5.9-2.33-10.9-5.08-15.88a.66.65 67.9 00-.74-.32q-5.85 1.51-6.47 7.61zm-2.96 4.37q-2.26 5.8-6.44 10.42a1.02 1 58.5 00-.22.95c.79 2.86 3.21 5.53 4.16 7.27q1.75 3.19 3.4 6.33a.46.46 0 00.87-.26c-.26-2.81-1.02-24.4-1.44-24.78a.21.2 32.4 00-.33.07zm23.29 20.88q-.12-2.34-.06-4.72c.1-3.84-3.14-8.15-5.21-11.23a.31.31 0 00-.57.16q-.69 15.71-2.82 31.31a.5.5 0 00.83.44q6.57-5.97 10.23-14.03a1.02 1.01 11.7 00-.94-1.43l-.92.01a.54.54 0 01-.54-.51z"/><path fill="#949799" d="M230 481.71l-3.71.54 1.17-8.25.06 1.5a.54.54 0 00.55.52c1.89-.04 1.89-14.55 2.11-16.41q.49-4.04.21-7.74c-.63-8.35.26-18.41-1.73-26.89a.6.59-9.8 00-.65-.45q-.87.11-1.05.97-1.26-4.06-.72-8.33-1.83-23.2-12.74-42.87-.88-1.59-2.54-.8l-1.46-2.71c2.94-.46 13.19-1.47 14.89 1.49q4.51 7.85 7.99 16.18c2.4 5.76 3.72 13.14 6.12 19.64q.53 1.44.52 2.9c-.04 5.27 1.22 13.41 3.03 18.38 1.17 3.19 1.27 7.44 1.41 10.84.31 7.18.97 14.56.05 22.03-.4 3.2.41 6.11-.01 9.19q-.5 3.59-.36 7.16a.64.64 0 01-.56.66q-5.84.71-11.64 1.17c-.81.07-1.14.48-.94 1.28zM424.79 376.5l.2 51.5q-4.01 1.1-7.91.2a.68.67-83.6 01-.52-.66l-.13-54.3a.31.31 0 01.44-.29l7.92 3.55z"/><path fill="#acacad" d="M226.24 417.17q-4.09-17.75-9.93-32.98-1.9-4.98-5.35-10.69 1.66-.79 2.54.8 10.91 19.67 12.74 42.87zM194.09 408.13q-1.54-12.95-5.52-25.31-.16-.48-.09-.99.39-2.95-1.85-4.86a.32.32 0 00-.51.16c-.21.74-.8 8.33-2.91 7.12q.02-4.91 1.69-9.22a1.72 1.72 0 012.94-.45c3.52 4.39 4.29 10.55 5.05 15.94q1.22 8.65 1.2 17.61zM410.46 384.5l.77-5.31a.79.79 0 00-1.34-.68l-2.02 2.03a.53.53 0 00-.03.73q.63.7.66 1.6a.53.53 0 01-.42.54l-1.33.3-6.03-.14q-.73-.02-.14-.45l11.44-8.34a.58.57 71.7 01.91.46l1.19 53.49a1.19 1.19 0 01-1.2 1.21c-1.31-.01-2.7-.43-3.89-.46q-17.35-.33-34.7-.52a.11.11 0 01-.1-.15l.08-.25a.2.01-3 01.19-.02l34.24-.84q2-.05 1.99-2.05l-.27-41.15z"/><path d="M427.8 402.66l-1.05 42.12-1.76-16.78-.2-51.5q.2-.32.78-.15a.71.71 0 01.52.66q.4 10.63.71 21.24.07 2.33 1 4.41z"/><path fill="#949799" d="M194.09 408.13q2.28 3.19.64 6.09-3.87 6.85-5.28 11.05a.67.66-65.8 01-.96.37l-4.7-2.67a.95.94-74.6 01-.48-.86c.18-4.62-.48-9.92-.58-13.71-.24-9.02-.81-16.4.48-24.15 2.11 1.21 2.7-6.38 2.91-7.12a.32.32 0 01.51-.16q2.24 1.91 1.85 4.86-.07.51.09.99 3.98 12.36 5.52 25.31zM410.46 384.5q-1.59-1.21-3.71-.79l1.33-.3a.53.53 0 00.42-.54q-.03-.9-.66-1.6a.53.53 0 01.03-.73l2.02-2.03a.79.79 0 011.34.68l-.77 5.31z"/><path fill="#fff" d="M354.69 385.06c-10.75.18-20.37.33-32.13 1.02-5.59.32-11.34.09-16.74.43q-7.17.45-14.35.5c-2.73.01-4.35.32-5.98-2.32a.6.6 0 01.52-.92l75.23.7q2.19.02.02.27-2.1.25-6.57.32z"/><path fill="#949799" d="M289.5 391.96q10.27.88 20.25-1.42 3.98-.82 8-.25-.07.94.56 1.44a.9.88-35.6 00.89.14q1.02-.39 1.05-1.58 3.52-.84 6.93.16 9.63 1.14 19.12-.58 3.79-1.18 7.69-.33l32.69-.04a.6.6 0 00.6-.53q.04-.34-.28-.68l19.59-.88a.61.61 0 01.64.59l.37 8.45a.53.52 90 01-.54.55q-21.46-.76-42.81.83c-5.82.43-15.02.29-22.52 1.56q-.5.09.01.09 14.02.07 28.02.55c13.06.44 24.77-.14 37.22-.92a.44.43-1.9 01.47.43l.25 24.24a.53.53 0 01-.52.54c-6.36.17-13.17 1.21-18.91 1.41q-38.76 1.39-77.47 3.49c-4.9.27-14.2 1.37-21.42 1.16a.66.65-89.1 01-.63-.66l.01-12.24a1.45 1.45 0 011.44-1.45q31.22-.03 61.8-1.3 3.78-.15 5.96-.68.52-.13-.01-.16c-19.35-1.02-39.07.05-58.45.41q-6.01.11-9.89-.17a.56.55-89.5 01-.52-.54q-.35-10.86.41-21.63z"/><path fill="#acacad" d="M159.93 436.8q-1.41-10.62 2.7-20.5a2.05 2.05 0 00-1.78-2.84q-4.92-.28-10.61.39c-3.54.42-2.43 2.41-2.82 4.79q-.75 4.62-2.39 16.62-.22 1.65-1.99 1.24.56-6.83 2.49-20.5.3-2.07 1.09-3.43a.99.98 13.6 01.82-.49l18.21-.57a.63.63 0 00.53-.94c-2.23-3.95-12.21-23.6-.08-22.23a1.13 1.13 0 01.79.47q3.71 5.45 7.1 11.1c2.79 4.66 6.76 6.99 6.9 13.28q.09 4.24.52 8.46a.43.43 0 01-.52.47q-4.39-.85-8.21 1.21a.52.52 0 01-.71-.21l-5.52-10.01a1.05 1.05 0 00-1.94.25q-2.87 11.62-4.58 23.44zm13.76-15.93c7.77.69 6.27-7.62 4.63-12.01-1.12-3-4.03-5.34-5.58-8.67-.75-1.6-2.34-2.05-3.2-3.67q-1.78-3.32-3.98-6.39a.78.77 65.4 00-.79-.3c-4.73 1-2.75 7.72-1.27 10.52q2.35 4.48 3.4 9.35c1.06 4.89 2.55 7.7 5.92 10.78a1.51 1.51 0 00.87.39zM387 388.29q.32.34.28.68a.6.6 0 01-.6.53l-32.69.04 33.01-1.25zM346.3 389.87q-9.49 1.72-19.12.58 9.59-1.13 19.12-.58z"/><path fill="#949799" d="M172.82 420.48c-3.37-3.08-4.86-5.89-5.92-10.78q-1.05-4.87-3.4-9.35c-1.48-2.8-3.46-9.52 1.27-10.52a.78.77 65.4 01.79.3q2.2 3.07 3.98 6.39c.86 1.62 2.45 2.07 3.2 3.67 1.55 3.33 4.46 5.67 5.58 8.67 1.64 4.39 3.14 12.7-4.63 12.01a1.51 1.51 0 01-.87-.39z"/><path fill="#acacad" d="M320.25 390.29q-.03 1.19-1.05 1.58a.9.88-35.6 01-.89-.14q-.63-.5-.56-1.44 1.25-.46 2.5 0zM309.75 390.54q-9.98 2.3-20.25 1.42-.09-.37.01-.69a.6.6 0 01.69-.4c5.62 1.21 13.66-.13 19.55-.33zM142.75 391.21l.83.28a.59.59 0 01.38.7c-.39 1.56-2.6 7.76-1.63 8.8a.45.45 0 00.75-.15l.45-1.19a.6.6 0 01.59-.39q.96.05 1.42.99c-1.12 4-2.56 7.89-3.25 11.82-5.75 32.44-3.29 70.39 14.5 99.18q.11.59-.28.86a.68.67 49.6 01-.83-.07q-2.99-2.8-3.64-4.33-2.23-5.2-5.52-9.76-.3-.43-.2.09.88 4.31 3.48 9.23 3.31 6.25 6.3 16.42-5.6-7.12-7.4-12.17c-2.84-7.96-6.24-15.61-8.12-23.66q-2.84-12.15-3.84-18.85-5.89-39.65 6.01-77.8zM204.71 423.25q-.53-.19-.91-.58a.74.74 0 01-.13-.83c1.24-2.61 2.03-4.56 3.74-7.56q2.69-4.73.69-10.44a.68.68 0 00-1.18-.19q-5.04 6.39-9.04 13.49a1.24 1.18 5.6 01-.73.57q-.89.25-1.19-.46c2.71-6.43 7.61-11.86 11.24-17.95a.51.51 0 01.91.07c1.38 3.39 4.02 9.88 2.07 13.42q-2.84 5.18-5.47 10.46zM427.8 402.66q4.72 17.67 4.93 31.4c.45 29.57-6.86 67.42-32.77 86.15-4.99 3.61-11.09 3-16.94 2.6a.49.48 5.2 01-.45-.53c.39-4.38 1.32-10.69 5.18-12.32q.19-.05.37.07a.41.41 0 01.11.57c-2.62 3.93-4.85 5.55-3.79 10.87a.63.63 0 00.61.51q3.39.09 6.76-.21c3.9-.35 7.79-3.55 11.14-5.49q1.72-.99 2.95-2.78c2.47-3.57 5.77-6.52 7.76-9.87 1.01-1.72 7.56-12.89 6.26-14.09a.44.44 0 00-.64.05c-4.42 5.72-9.54 11.76-16.04 15.19q-1.24.65-2.55 2.02c-2.16 2.25-7.72 2.64-10.81 3.88a.82.81 55.7 01-.86-.17q-.39-.38-.31-1.01 3.78-2.62 8.2-2.4a1.79 1.73 30.8 00.93-.22c22.52-12.52 28.93-37.73 28.91-62.1l1.05-42.12z"/><path fill="#949799" d="M204.71 423.25q-3.23 6.2-5.04 8.44c-1.78 2.22-4.98 1.62-6.26-.82-2.06-3.95-.01-9.98 2.55-13.62q.3.71 1.19.46a1.24 1.18 5.6 00.73-.57q4-7.1 9.04-13.49a.68.68 0 011.18.19q2 5.71-.69 10.44c-1.71 3-2.5 4.95-3.74 7.56a.74.74 0 00.13.83q.38.39.91.58z"/><path fill="#acacad" d="M448.66 412.11q-4.76-2.94-11.26-2.86a1.02 1.02 0 00-.94 1.38c1.74 4.61 1.31 9.83 1.96 14.7.98 7.38.25 14.75.77 22.16q.18 2.57-.36 5.96c-.97 6.1-.36 11.88-2.94 18.44a.64.63-60.4 00.2.73q1.34 1.1 2.99.37a1.23 1.22-45.3 01.96-.01q2.84 1.23 5.25-.39a1.32 1.26 79.2 00.55-.85q1.94-11.54 3.27-23.16c.92-8.01.49-16.3.43-24.51a.91.91 0 01.45-.8l.47-.27q2.78 25.22-3.52 49.8a2.28 2.27-85.4 01-1.99 1.7l-11.54 1.08a.47.47 0 01-.5-.59c5.69-21.62 5.63-45.01 1.52-66.94a.65.65 0 01.77-.76q5.55 1.14 11.31 2.09c1.68.27 2.24 1.1 2.15 2.73z"/><path fill="#949799" d="M448.66 412.11l1.8 10.89-.47.27a.91.91 0 00-.45.8c.06 8.21.49 16.5-.43 24.51q-1.33 11.62-3.27 23.16a1.32 1.26 79.2 01-.55.85q-2.41 1.62-5.25.39a1.23 1.22-45.3 00-.96.01q-1.65.73-2.99-.37a.64.63-60.4 01-.2-.73c2.58-6.56 1.97-12.34 2.94-18.44q.54-3.39.36-5.96c-.52-7.41.21-14.78-.77-22.16-.65-4.87-.22-10.09-1.96-14.7a1.02 1.02 0 01.94-1.38q6.5-.08 11.26 2.86zM132.21 456.75l-.63.46a.19.18 64.6 01-.29-.11l-.08-.38q-.33-1.46-.37.03c-.35 12.6 1.8 23.33 5.36 36.06q.15.53.68.93a.49.49 0 01.1.68c-1.29 1.77-5.35 8.29-7.29 8.5a1.53 1.49 19.2 00-.86.4q-4.98 4.67-8.98 10.2c-2.36 3.27-6.81 1.53-9.85.95q-1.12-.21-.75 1.24l-36.24-6.49a.62.62 0 01-.51-.61v-4.28a.64.63 2.9 01.7-.63q6.83.71 13.41 1.76c.61.09 2.04-.31 1.38-1.15a.39.39 0 00-.27-.16l-14.69-2.19a.7.7 0 01-.59-.68l-.1-8.65a.7.69 1.9 01.75-.7q13.2 1.14 26.28 2.63c1.61.18 4.32 1.02 6.62.7q.94-.13.01-.29l-33.19-5.64a.57.56 4.4 01-.47-.54l-.12-5.47a.52.51 0 01.54-.53q1.84.08 3.34.99 5.2 2.33 10.83 2.66a.41.4-2.9 00.42-.46l-.1-.69q14.38 1.47 29.04 4.54a.59.59 0 00.71-.53l.04-.55h.42a.48.48 0 00.47-.37q1.01-4.12.14-9.39-.69-4.22-.12-10.69.13-1.42-1.16-2.05-.59-16.6-.97-33.23c-.08-3.87 2.36-6.49 5.15-8.69q.4-.32.39.19-.42 13.69.46 35.22.36 8.85 1.04 13.29.08.54.29.04.57-1.38.57-3.07.11-26.5-.32-46.57c-.05-2.42 7.39-8.75 8.94-9.94q1.86-1.44 1.5.89-2.09 13.55-2.09 26.95c0 4.19.6 10.24.46 15.42zm-41.52 48.02c-.24 1.59 2.55 1.53 3.4 1.34q.84-.19.05-.52l-2.81-1.18a.47.47 0 00-.64.36zM159.93 436.8c-4 .51-7.72.02-10.64 3.2q-.22-.79-.86-.93a.73.73 0 00-.78.34q-1.78 2.96.27 5.23.36.39.49.91 1.07 4.1 3.61 5.95 4.92 3.56 7.45 6.01c3.41 3.32 2.27 8.28 3.97 12.24a.47.47 0 00.58.26q.17-.06.27-.26l.17 1.5-.22-.27a.64.61 69.6 00-.48-.23l-16.71-.09a.83.82 12.3 00-.75.48q-.08.18-.09.36-3.83-17.29-3.17-35 1.77.41 1.99-1.24 1.64-12 2.39-16.62c.39-2.38-.72-4.37 2.82-4.79q5.69-.67 10.61-.39a2.05 2.05 0 011.78 2.84q-4.11 9.88-2.7 20.5z"/><path fill="#acacad" d="M209.44 436.58a.39.38-6.2 01-.31-.24l-2.48-6.58a1 1 0 01.05-.84l5.8-11q.22-.41.41.01c2.47 5.25 2.85 12.99 3.68 18.94a.58.57-89.7 01-.65.65l-6.5-.94zM227.46 474q2.67-24.28-.5-48.5.18-.86 1.05-.97a.6.59-9.8 01.65.45c1.99 8.48 1.1 18.54 1.73 26.89q.28 3.7-.21 7.74c-.22 1.86-.22 16.37-2.11 16.41a.54.54 0 01-.55-.52l-.06-1.5zM174 458.04c.67 2.04.55 6.21 2.92 6.79 5.06 1.24 5.82-2.78 5.29-6.58 5.57-5.02 4.71-17.31-.2-22.59a1.13 1.1-19.3 00-.78-.36l-7.77-.35a1.07 1.04-65.2 00-.78.3l-1.59 1.53q-.68.64-.49-.27c.87-4.4 2.79-10.25 8.13-10.94a1.31 1.3-30.7 01.91.23c9.09 6.47 8.92 21.4 6.64 30.97-.93 3.94-5.12 12.15-10.37 8.62-2.11-1.41-3.16-4.41-4.25-6.81a.49.48-23.1 01.27-.66q.93-.36 2.07.12z"/><path fill="#acacad" d="M196.54 435.64q5.46.76 8.17-3.75.51-.85.69.12l1.39 7.38a.77.77 0 01-.82.91c-6.98-.57-12.93 2.96-11.77 10.76.23 1.55 1 2 1.98 3.09a.42.42 0 01-.16.67q-3.26 1.26-5.18 4.2a.66.66 0 01-1.19-.53q4.16-15.9-2.49-30.83a.55.55 0 01.51-.77l1.31.02a.75.75 0 01.68.5c1.44 4.19 2.47 7.62 6.88 8.23z"/><rect fill="#acacad" x="-.63" y="-5.31" transform="rotate(-8.3 3142.406 -1027.845)" width="1.26" height="10.62" rx=".27"/><path fill="#acacad" d="M149.29 440c-1.46 4.89 3.56 10.78 7.34 13.22q2.9 1.88 5.54 4.13a1.3 1.3 0 01.45.81l1.67 11.59q-.1.2-.27.26a.47.47 0 01-.58-.26c-1.7-3.96-.56-8.92-3.97-12.24q-2.53-2.45-7.45-6.01-2.54-1.85-3.61-5.95-.13-.52-.49-.91-2.05-2.27-.27-5.23a.73.73 0 01.78-.34q.64.14.86.93z"/><path fill="#949799" d="M153.61 446.38c-2.42-1.61-5.54-5.18-.58-6.56q6.17-1.72 12.32.25a.73.73 0 01.51.72l-.15 5.93a.68.68 0 01-.61.65c-2.72.25-9.24.5-11.49-.99z"/><ellipse fill="#acacad" transform="rotate(88.8 -140.798 312.548)" rx="7.39" ry="3"/><path fill="#fafde2" d="M410.3 443.84a1.63 1.62-73.8 011.21-.67l9.45-.63a.4.39-.7 01.43.41q-.54 12.86-2.98 25.5a.2.2 0 01-.37.05c-2.62-5.37-5.24-10.86-8.72-15.71q-2.73-3.82.98-8.95zM366.51 458.09a.32.32 0 01-.58-.11q-1.7-6.96-2.24-14.1a.5.49 85.4 01.45-.54l5.89-.54a.76.75-17.8 01.71.36c3.76 6.12-.96 10.29-4.23 14.93z"/><path fill="#949799" d="M198.82 450.4c-3.19-.63-3.3-3.6-.82-5.25 4.75-3.17 11.95-1.77 18.19-.53a.61.61 0 01.49.56l.31 5.18a1.29 1.28 87.1 01-1.22 1.36q-8.5.37-16.95-1.32z"/><path fill="#fff" d="M248.94 474.08c.4-6.79 1.02-13.55 1.09-20.32a.63.62 83.2 01.46-.59l4.52-1.15a.49.49 0 01.61.49l-.55 21.68a.76.76 0 01-.68.73l-4.17.4a1.17 1.17 0 01-1.28-1.24z"/><path fill="#acacad" d="M203.15 457.79a.54.54 0 01-.22-.78c.85-1.31 4.49-1.13 3.11 1.47a.66.66 0 01-.88.28l-2.01-.97z"/><path fill="#fafde2" d="M216.24 456.66a.76.76 0 01.73.85l-1.47 11.63a.71.7 3.7 01-.7.61l-4.26-.01a1.19 1.16-22 01-.83-.34c-4.61-4.76-1.27-7.59-.02-12.45a.67.66-82 01.67-.51l5.88.22z"/><path fill="#acacad" d="M132.21 456.75c.84 11.54 2.2 26.98 6.63 38.74a.81.79 57.1 01-.17.84c-6.57 6.77-13.67 13.14-20.02 20.16a1.12 1.1 20.6 01-.83.37q-4.44-.05-8.57-1.15-.37-1.45.75-1.24c3.04.58 7.49 2.32 9.85-.95q4-5.53 8.98-10.2a1.53 1.49 19.2 01.86-.4c1.94-.21 6-6.73 7.29-8.5a.49.49 0 00-.1-.68q-.53-.4-.68-.93c-3.56-12.73-5.71-23.46-5.36-36.06q.04-1.49.37-.03l.08.38a.19.18 64.6 00.29.11l.63-.46z"/><path fill="#949799" d="M174 458.04l8.21.21c.53 3.8-.23 7.82-5.29 6.58-2.37-.58-2.25-4.75-2.92-6.79zM206.75 469.71q-1.49.41-.91 1.47c1.88 3.44 5.27 8.92 4.65 12.93q-.81 5.26-3.53 9.89-7.52-12.15-12.9-25.44c-2.11-5.22-.82-9.97 5.46-10.3a2.16 2.16 0 012.04 1.19l5.19 10.26z"/><path fill="#fafde2" d="M382.87 460.13q.2-.29.25.05.14.83.2 1.89.75 13.08 1.32 26.17c.05 1.18.95 3.08.54 4.55q-.16.56-.56.13-7.26-7.73-11.82-17.29a1.28 1.27 50.2 01.11-1.27l9.96-14.23zM396.31 497c.97-10.99 1.86-21.99 2.51-33.02q.03-.49.25-.05 5.55 10.92 13.64 20.16a.75.75 0 01.05.92q-6.55 9.47-15.91 16.11a.31.31 0 01-.49-.22q-.22-1.87-.05-3.9z"/><ellipse fill="#acacad" transform="rotate(126.7 30.56 306.676)" rx="1.64" ry=".77"/><path fill="#acacad" d="M116.79 466.25q1.29.63 1.16 2.05-.57 6.47.12 10.69.87 5.27-.14 9.39a.48.48 0 01-.47.37h-.42l-.25-22.5zM171.48 466.61c2.53 1.88 3.62 3.6 6.83 4.21q2.17.41 1.5 2.51c-1.5 4.7-4.53 8.94-6.25 12.36q-3.21 6.36-7.69 11.95a1.29 1.29 0 01-.82.46c-5.27.66-4.19-5.07-3.07-8.22 2.66-7.55 5.15-16.13 8.94-23.15a.38.38 0 01.56-.12zm-8.97 29.35q1.54 1.27 2.37.18c4.08-5.35 6.9-11.09 10.37-16.79q1.47-2.4 2.43-5.11c.92-2.59-3.59-4.15-5.19-4.24a2.81 2.8-78.7 00-2.8 1.87q-1.77 5.05-3.41 10.12c-.68 2.1-.37 4.34-1.11 6.61a2.03 2 78.8 01-.56.85q-2.5 2.2-2.53 5.59a1.17 1.15 20.5 00.43.92zM192.87 519.6l-.67-.1a.6.6 0 01-.51-.53q-.55-4.65.81-11.73 1.4-7.36 1.59-24.77c.04-3.67-2.82-7.89-4.38-11.18a.95.95 0 00-1.49-.31q-2.48 2.19-3.41 5.31a.65.65 0 01-.6.47q-.58.03-1-.76.62-6.1 6.47-7.61a.66.65 67.9 01.74.32c2.75 4.98 5.18 9.98 5.08 15.88-.21 11.71-1.53 23.34-2.63 35.01zM206.75 469.71c2.36 4.29 6.39 10.8 5.57 14.35q-1.37 5.92-3.16 11.71a.35.35 0 01-.55.17q-1.07-.85-1.65-1.94 2.72-4.63 3.53-9.89c.62-4.01-2.77-9.49-4.65-12.93q-.58-1.06.91-1.47z"/><path fill="#949799" d="M162.51 495.96a1.17 1.15 20.5 01-.43-.92q.03-3.39 2.53-5.59a2.03 2 78.8 00.56-.85c.74-2.27.43-4.51 1.11-6.61q1.64-5.07 3.41-10.12a2.81 2.8-78.7 012.8-1.87c1.6.09 6.11 1.65 5.19 4.24q-.96 2.71-2.43 5.11c-3.47 5.7-6.29 11.44-10.37 16.79q-.83 1.09-2.37-.18z"/><path fill="#fff" d="M164.46 471.25c3.48 4.72-9.56 21.16-3.37 27.72 3.12 3.3 7.04-.2 9.53-3.06a.35.35 0 01.58.08q4.66 9.7 11.11 18.34.32.42.44.93l1.85 7.79a.45.45 0 01-.4.55c-23.53 2.05-35.6-35.42-37.99-52.1q.01-.18.09-.36a.83.82 12.3 01.75-.48l16.71.09a.64.61 69.6 01.48.23l.22.27z"/><path fill="#949799" d="M192.87 519.6l-5.12 2.86q-1.35-9.98-1.77-17.21-.08-1.42.58-3.05a1.54 1.49 49.7 00.06-.93c-.43-1.74-.11-7.33-3.08-7.02q-.77-9.12-.33-18.25.42.79 1 .76a.65.65 0 00.6-.47q.93-3.12 3.41-5.31a.95.95 0 011.49.31c1.56 3.29 4.42 7.51 4.38 11.18q-.19 17.41-1.59 24.77-1.36 7.08-.81 11.73a.6.6 0 00.51.53l.67.1z"/><path fill="#fff" d="M180.25 480.37a.21.2 32.4 01.33-.07c.42.38 1.18 21.97 1.44 24.78a.46.46 0 01-.87.26q-1.65-3.14-3.4-6.33c-.95-1.74-3.37-4.41-4.16-7.27a1.02 1 58.5 01.22-.95q4.18-4.62 6.44-10.42z"/><path fill="#acacad" d="M76.1 483.78l11.15 1.51.1.69a.41.4-2.9 01-.42.46q-5.63-.33-10.83-2.66z"/><path fill="#fafde2" d="M204.08 501.76l.92-.01a1.02 1.01 11.7 01.94 1.43q-3.66 8.06-10.23 14.03a.5.5 0 01-.83-.44q2.13-15.6 2.82-31.31a.31.31 0 01.57-.16c2.07 3.08 5.31 7.39 5.21 11.23q-.06 2.38.06 4.72a.54.54 0 00.54.51z"/><path fill="#acacad" d="M220.79 489c-2.41 12.84-8.33 30.35-17.33 40.75-6.59 7.48-16.61 13.97-26.42 11.12q-8.76-2.54-15.08-9.12 2.59-.65 3.92 1.75a1.82 1.79 1 00.67.68c6.23 3.53 10.94 6.53 17.11 5.97 5.38-.49 15.51-7.07 18.33-11.8 1.08-1.79 2.63-3.18 3.6-4.86q8.44-14.52 12.37-30.95c.27-1.13.25-2.91.9-4.2a.78.77-75 01.74-.43q1.13.07 1.19 1.09z"/><path fill="#949799" d="M387.75 509.96l.96-.46q-.08.63.31 1.01a.82.81 55.7 00.86.17c3.09-1.24 8.65-1.63 10.81-3.88q1.31-1.37 2.55-2.02c6.5-3.43 11.62-9.47 16.04-15.19a.44.44 0 01.64-.05c1.3 1.2-5.25 12.37-6.26 14.09-1.99 3.35-5.29 6.3-7.76 9.87q-1.23 1.79-2.95 2.78c-3.35 1.94-7.24 5.14-11.14 5.49q-3.37.3-6.76.21a.63.63 0 01-.61-.51c-1.06-5.32 1.17-6.94 3.79-10.87a.41.41 0 00-.11-.57q-.18-.12-.37-.07z"/><path fill="#acacad" d="M187.75 522.46l-1.22.44a.43.42 77.5 01-.57-.37l-2.42-28.28c2.97-.31 2.65 5.28 3.08 7.02a1.54 1.49 49.7 01-.06.93q-.66 1.63-.58 3.05.42 7.23 1.77 17.21z"/><path d="M94.09 506.11c-.85.19-3.64.25-3.4-1.34a.47.47 0 01.64-.36l2.81 1.18q.79.33-.05.52z"/><path fill="#fff" d="M590.29 589.75l.71.31v.94h-1.06l-.19-.71.54-.54z"/><path fill="#fafde2" d="M589.75 590.29l.19.71H32.44q-3.38-.63-6.75 0H12.44q-5.63-.63-11.25 0h-.5l-.19-.47a.34.34 0 01.32-.47l588.93.23z"/><path fill="#201f1e" d="M12.44 591H1.19q5.62-.63 11.25 0zM32.44 591h-6.75q3.37-.63 6.75 0z"/></svg>