<svg xmlns="http://www.w3.org/2000/svg" viewBox="0 0 591 591"><g stroke-width="2" fill="none"><path stroke="#111010" vector-effect="non-scaling-stroke" d="M590.06 0l.19.29"/><path stroke="#7e7f70" vector-effect="non-scaling-stroke" d="M590.25.29l.04 589.46"/><path stroke="gray" vector-effect="non-scaling-stroke" d="M590.29 589.75l-.54.54"/><path stroke="#7e7f70" vector-effect="non-scaling-stroke" d="M589.75 590.29L.68 590.06a.4.39 78.5 00-.36.55q.1.22.37.39M586.25 4.51a.26.26 0 00-.26-.26H4.51a.26.26 0 00-.26.26v581.48a.26.26 0 00.26.26h581.48a.26.26 0 00.26-.26V4.51"/><path stroke="#8e8f80" vector-effect="non-scaling-stroke" d="M591 587.31c-.84-.45-.25-537.06-.25-586.81a.25.24-86.1 00-.21-.25q-.17-.02-.29.04"/><path stroke="#fdfef0" vector-effect="non-scaling-stroke" d="M591 590.06l-.71-.31"/><path stroke="#faefc5" vector-effect="non-scaling-stroke" d="M36.13 81.96q22.85-23.19 45.44-46.63c2.94-3.05 6.12-5.87 9.26-8.77a.64.64 0 00-.14-1.04q-1.55-.79-3.51-.79-18.06.01-36.11.3c-11.18.18-27.58 1.46-28 16.78q-.31 11.3-.15 22.59c.09 6.56-.61 18.95.59 28.58a.89.88-25.2 001.49.53c3.87-3.62 7.97-8.34 11.13-11.55"/><path stroke="#8e8f80" vector-effect="non-scaling-stroke" d="M395.29 496.39c3.18-1.17 10.66-2.4 12.69-4.74a1.11 1.11 0 00.26-.88q-.36-2.62-1.81-4.46c-5.35-6.74-10.9-13.22-15.01-20.71-8.05-14.64-15.77-30.17-21.21-45.99-1.64-4.78-5.16-10.43-9.99-12.76a1.05 1.04 8 01-.55-.72l-.8-3.93a.72.72 0 01.27-.73c7.37-5.56 2.49-17.12.19-23.98-2.55-7.59-3.88-15.13-5.56-22.75-2.79-12.66-3.76-24.05-5.38-38.17q-.29-2.46 0-4.35a.76.76 0 01.57-.62q3.75-.96 6.54-.89c8.98.22 16.42-1.53 24.94-2.16 5.9-.44 11.88-1.94 17.4-2.32q8.81-.62 16.66-1.99c22.93-4 46.1-11.11 66.87-22.32 3.03-1.64 13.63-7.54 13.08-11.41q-2.74-19.1-13.19-34.59a1.98 1.98 0 01-.16-1.93q7.63-16.83 16.35-33.04c1.45-2.69 3.34-4.7 5.38-6.88q14.3-15.31 29.21-30.03c3.81-3.77 8.84-10.73 7.41-16.05-2.91-10.82-30.81-5.24-38.78-2.94q-10.78 3.11-21.64 5.97c-13.44 3.54-24.09 8.18-35.62 14.53a.77.77 0 01-.83-.05c-4.24-3.03-8.4-1.05-12.08-5.11a1.08 1.03-63.1 01-.26-.86q2.93-18.8 2.75-29.78c-.24-15.1-3.63-26.15-6.96-39.39q-1.07-4.25-4.62-6.22a2.04 2.02-42.1 00-1.79-.08q-4.23 1.88-7.63 4.93c-15 13.49-22.64 30.88-28.63 50.34-1.98 6.45-8 13.38-11.9 18.99a.5.5 0 01-.7.13c-6.28-4.34-15.37-2.98-22.24-.07q-2.13.91-4.16.85-7.53-.23-15.05-.74a1.56 1.54 66.1 01-.89-.35c-1.87-1.54-9.39-8.43-11.42-8.12-8.08 1.24-16.53 2-23.06 7.77-.95.84-2.9 1.51-4.17 1.55q-12.51.42-16.27 1.37c-6.94 1.75-13.89 2.17-20.76 3.74a1.38 1.35 52.2 01-.94-.13q-12.75-7-23.79 1.2c-4.42 3.28-6.86 8.51-11.75 11q-7.7 3.93-15.8 7.08a1.21 1.19-44 01-.93-.01c-2.94-1.2-5.66-3.12-8.74-3.11-4.57.01-9.98 2.65-11.28 7.37-.72 2.62.97 7.16-1.31 8.86q-11.69 8.73-19.42 18.63a.95.93 20.2 01-.8.36c-3.64-.25-8.07-.98-11.13 1.13-6.97 4.81-4.07 10.28-2.42 16.69a1.29 1.24 53.4 01-.12.92c-5.17 9.34-21.94 38.12-11.24 45.5 21.56 14.9 45.88 20.32 70.99 25.76 12.85 2.79 26.26 2.58 39.34 3.88 8.82.88 16.42 1.31 24.5 1.79q2.01.12 1.8 2.12-1.64 16.05-3.18 31.81c-1.66 16.92-4.66 32.15-9.04 47.95-.97 3.52 1.64 6.93 3.89 9.85a1.56 1.49-62 01.3 1.08l-1.04 9.43a.97.97 0 01-.55.77l-4.77 2.21a1.55 1.54-89.2 00-.73.72q-2.3 4.81-4.04 9.83c-1.91 5.56-4.95 10.22-6.73 16.02q-7.64 24.95-22.83 47.33c-1.66 2.45-2.12 5.32-.29 8 3.25 4.79 7.97 9.5 13.57 8.26q10.51-2.34 19.7-.82a.44.44 0 01.35.56c-7.04 24.34 11.41 52.9 35.44 59.02q25.31 6.45 53.27.8 3.7-.75 12.07-4.69c13.59-6.39 20.36-17.29 23.2-31.71 1.62-8.25.96-14.39 1.03-21.82a.67.67 0 01.48-.64c5.6-1.57 14.88-3.49 15.01-10.39a.73.73 0 01.48-.67"/><path stroke="#5c5d5d" vector-effect="non-scaling-stroke" d="M374.73 162.91c2.5 2.63 3.61 2.29 6.46 3.21 10.48 3.39 21.47 6.04 31.16 10.96a1.54 1.54 0 002.11-2c-2.99-6.62-7.14-10.75-8.6-18.77q-.09-.49.32-.2c4.36 3.07 10.2 4.72 12.92 9.4a1.58 1.58 0 002.19.56q3.47-2.11 4.16-6.07c1.68-9.7 1.51-17.98 2.05-29.25q.93-19.19-6.46-39.59a1.64 1.58 9.6 00-.54-.73l-1.44-1.07"/><path stroke="#90908f" vector-effect="non-scaling-stroke" d="M419.06 89.36q-21.35 17.78-28.82 44.48c-1.37 4.9-2.87 10.62-6.09 14.68q-5.43 6.84-9.42 14.39"/><path stroke="#cbcccd" vector-effect="non-scaling-stroke" d="M419.06 89.36q1.45 18.77.76 30.2-1.13 18.41-3.62 37.42a1.67 1.67 0 01-2.44 1.25c-1.97-1.06-4.08-1.59-6.08-3.06q-3.64-2.66-7.95-4.26a.38.38 0 00-.51.35q-.16 9.24 4.99 16.84a.43.42-11.1 01-.44.65l-29.04-5.84"/><path stroke="#5c5d5d" vector-effect="non-scaling-stroke" d="M469.25 206.54l-.23.52a.47.46-59.7 01-.7.19q-9.03-6.62-19.49-10.78a.58.58 0 00-.52 1.04c12.18 7.53 20.67 19.27 28.9 31.01a.32.31 42.2 00.53-.02c3.21-5.58 5.73-12.73 7.98-17.33q2.5-5.12 5.06-10.2c5.35-10.64 16.12-18.57 24.11-26.74q13.56-13.87 18.05-18.78 2.25-2.46 1.31-6.24"/><path stroke="#90908f" vector-effect="non-scaling-stroke" d="M534.25 149.21c-8.92-8.23-44.28 3.92-55.3 6.98-12.91 3.58-23.31 8.06-34.22 14.34a.77.77 0 00.29 1.43q11.27 1.41 21.25 6.83.43.23-.05.31-8.7 1.47-17.53 1.71a.55.53-87.5 00-.52.49l-.42 3.91a1.16 1.14 26.7 00.3.89c3.3 3.57 7.6 6.34 10.65 9.48q5.31 5.45 10.55 10.96"/><path stroke="#cbcccd" vector-effect="non-scaling-stroke" d="M534.25 149.21l-1.19.06a1.44 1.42-66.4 00-.88.35c-7.29 6.25-14.02 12.29-22.35 17.62q-12.59 8.07-24.56 17.03c-8.76 6.55-9.71 14.27-13.59 23.73a.33.32-59 01-.5.13l-1.93-1.59"/><path stroke="#90908f" vector-effect="non-scaling-stroke" d="M319.84 157.68c-5.9-3.76-11.91-2.59-18.48-.71a.78.77 36.8 00.22 1.52l18.06-.12a.38.37 61.3 00.2-.69M368.56 161.64q-6.19-3.27-13.09-1.19-1.32.39.04.61l12.56 2.05a.79.78 63.5 00.49-1.47"/><path stroke="#111010" vector-effect="non-scaling-stroke" d="M172.08 209.61q-4.04 3.03-6.37 7.64"/><path stroke="#5c5d5d" vector-effect="non-scaling-stroke" d="M165.71 217.25q-3.88 3.87-9.57 11.1-14.53 18.46-18.96 40.64-.41 2.07 1.73 2.53a1.66 1.64 73 01.83.45c6.45 6.58 19.7 8.43 28.33 5.46 6.1-2.09 11.82-3.95 16.27 2.08 2.7 3.65 9.75 4.99 13.94 5.95q10.19 2.33 17.23-4.71a.32.32 0 00-.08-.51l-7.63-3.82a1.68 1.67-36.1 00-.99-.15c-3.71.6-6.32 2.3-10.48 1.4-10.93-2.36-.78-13.34 8.48-10.58q.47.15.96.04 10.53-2.2 21.31-1.3c3.89.33 5.05 5.16 8.95 6.4q3.63 1.16 7.5 1.2.54.01 1.02.26l1.32.7a.86.86 0 00.93-.08q6.41-4.92 14.25-6.53a.9.89 1.5 00.69-.65l2.12-8.28a.97.96 36.4 00-.12-.77c-3.47-5.44-17.43 1.02-21.35 3.72a1.11 1.11 0 01-1.72-1.09c3.03-19.54 21.89-22.23 38.03-18.83a.42.42 0 00.51-.39c.22-5.97 9.46-16.41 14.06-19.96 7.67-5.94 17.24-6.58 26.6-4.74a.69.69 0 00.78-.44c1.87-5.16 11.44-6.73 16.02-3.21a.89.87 52.8 00.86.13q11.21-4.31 21.92.44c3.1 1.38 3.89 3.38 3.19 6.58a.53.53 0 00.57.64c4.66-.43 7.9-1.39 11.51 2.9a.55.55 0 00.86-.03c5.48-7.59 17.83-2.13 19.33 5.25a1.18 1.17-81.4 00.57.78l2.09 1.17a1.36 1.33-84.3 01.62.77c.33 1.06 1.74.75 2.5.97q5.61 1.66 8.46 6.87a1.6 1.59-2.3 00.76.7q6.03 2.67 8.6 8.75a1.8 1.78-83.4 00.58.74l1.66 1.2a1.94 1.89-24.3 00.99.36c4.73.29 9.66.81 13.6 3.8 2.86 2.16 6.02 3.35 7.26 7.1a.81.8-19.1 001.04.5c4.73-1.69 4.97 1.25 6.1 4.53a1.03 1.03 0 00.71.66q7.26 1.99 14.67.65a1.78 1.7 48.6 01.93.08q5.43 1.95 11.21-.23.84-.32 1.66.25a.41.41 0 01.04.65q-1.45 1.27-3.21 2.16c-15.85 7.99-32.82 15.14-50.34 18.36-15.99 2.95-31.76 6.27-48.2 7.79-17.95 1.66-35.24 4.15-53.35 3.68-4.38-.11-10.05.3-15.43.01q-9.98-.53-49.86-.9c-13.69-.12-27.4-2.21-41.02-3.48-20.76-1.93-39.79-7.98-59.74-13.5q-9.71-2.68-18.56-7.41-.46-.25-.24.23.73 1.58 2 2.25c15.26 8.14 32.26 14.66 49.47 18.37 9.51 2.06 19.03 4.44 28.76 5.15 32 2.34 61.33 4.81 95.95 4.84q23.65.02 57.06-4.44"/><path stroke="#8e8f80" vector-effect="non-scaling-stroke" d="M372.25 302.46l16.78-.72"/><path stroke="#5c5d5d" vector-effect="non-scaling-stroke" d="M389.03 301.74c33.51-3.12 65.84-11.21 95.16-28.07 1.94-1.11 3.18-2.14 3.01-4.64q-.58-8.96-1.95-12-9.52-21.11-23.41-39.74a.32.32 0 00-.55.07c-1.77 4.4-5.31 9.85-11.01 6.86q-10.22-5.35-11.76-16.98a.87.86 67.8 01.33-.79c2.54-1.95 4.16-3.43 7.58-2.67a.36.35 69.8 00.29-.63c-5.39-4.1-10.2-8.16-16.32-11.23-7.59-3.81-14.92-7.9-22.91-10.86q-3.58-1.33-6.67-3.4a.39.39 0 00-.59.45c3.03 9.3-6.46 10.73-12.79 10.12-5.71-.56-11.02-4.42-14.97-8.53a1.4 1.37 19.6 01-.38-.78q-1-6.53 5.45-7.47a.26.26 0 00-.02-.52c-4.39-.42-9.71-2.24-12.71-2.88-10.01-2.16-22.34-4.42-32.55-3.33a1.14 1.14 0 01-.85-.26c-1.17-.99-16.17-.06-18.86-.07-10.43-.07-21.41-.17-31.3 2.05-10.56 2.37-19.17 3.43-28.65 5.11-16.73 2.95-29.72 9.58-44.03 15.84q-11.2 4.9-17.84 8.97-9.72 5.97-18.65 13.25"/><path stroke="#c9cbbe" vector-effect="non-scaling-stroke" d="M389.03 301.74q-8.02-1.31-16.17-.43a.73.72-87.8 00-.63.59q-.05.25.02.56"/><path stroke="#4b4d4e" vector-effect="non-scaling-stroke" d="M165.71 217.25q-1.12 5.19 1.9 8.17c6.38 6.32 19.19-3.14 14.2-9.79q-.29-.39-.37-.87c-.77-5.11-5.46-4.41-9.36-5.15"/><path stroke="#90908f" vector-effect="non-scaling-stroke" d="M244.95 165.59q-10.93-2.23-17.71 6.19-.57.71.3.43l17.46-5.75q1.59-.53-.05-.87"/><path stroke="#5c5d5d" vector-effect="non-scaling-stroke" d="M427.5 167.04l-2.75 2.42"/><path stroke="#90908f" vector-effect="non-scaling-stroke" d="M424.75 169.46l-5.54 6.29"/><path stroke="#5c5d5d" vector-effect="non-scaling-stroke" d="M419.21 175.75q-1.46 1.78-.76 3.85a1.02 1 89.8 00.63.64c5.72 1.97 11.47 5.85 16.7 8.94a.57.55-57.2 00.74-.17c2.76-4.01 3.45-13.23 3.46-18.11a2.53 2.52 5.5 00-2.06-2.49l-5.92-1.12"/><path stroke="#90908f" vector-effect="non-scaling-stroke" d="M432 167.29q-2.19-1.98-4.5-.25"/><path stroke="#cbcccd" vector-effect="non-scaling-stroke" d="M432 167.29q1.86 1.89 4.53 1.95a.49.49 0 01.48.48q.27 7.63-4.78 13.12a.95.95 0 01-.98.26q-6.24-1.95-11.53-5.76a1.14 1.14 0 01-.46-.83l-.05-.76M424.75 169.46q2-.55 2.75-2.42"/><path stroke="#5c5d5d" vector-effect="non-scaling-stroke" d="M390 184.71q3.34.17 6.28-1.6a2 2 0 00.7-2.71q-1.52-2.64-4.94-3.4"/><path stroke="#90908f" vector-effect="non-scaling-stroke" d="M392.04 177c-3.27-1.38-12.9-3.63-16.17-.6a.69.68-34.6 00-.15.81c2.37 4.71 9.85 7.4 14.28 7.5"/><path stroke="#cbcccd" vector-effect="non-scaling-stroke" d="M392.04 177q.58 4.39-2.04 7.71"/><path stroke="#90908f" vector-effect="non-scaling-stroke" d="M195.42 186.29c-2.44-2.47-4.85-3.38-8.14-1.55-3.18 1.78-5.28 4.53-4.52 7.97a.8.8 0 001.18.53l11.43-6.58a.24.24 0 00.05-.37"/><path stroke="#5c5d5d" vector-effect="non-scaling-stroke" d="M450.75 220.29c5.58 3.13 6.85-3.34 6.25-7.22"/><path stroke="#90908f" vector-effect="non-scaling-stroke" d="M457 213.07q-5.25-6.78-13.05-5.68a1.95 1.94-12.5 00-1.59 2.49q2.15 7.12 8.39 10.41"/><path stroke="#cbcccd" vector-effect="non-scaling-stroke" d="M457 213.07l-4.26 4.2q-.34.34-.59.75l-1.4 2.27"/><path stroke="#5c5d5d" vector-effect="non-scaling-stroke" d="M334 220.79q1.73.43 3.3-.3a.69.69 0 00.39-.73q-.5-3.31-3.69-4.47"/><path stroke="#90908f" vector-effect="non-scaling-stroke" d="M334 215.29q-4.28-.95-8.41.53a.34.33-34.1 00-.11.57q3.31 2.82 7.29 4.55a1.04 1.01 45.7 00.8.02l.43-.17"/><path stroke="#cbcccd" vector-effect="non-scaling-stroke" d="M334 215.29q.74 2.75 0 5.5"/><path stroke="#90908f" vector-effect="non-scaling-stroke" d="M154.56 218.94c-6.94-2.28-11.25 4.94-7.3 10.32a.4.4 0 00.64.01l7.05-9.03a.83.82-62.1 00-.39-1.3M379.46 224.61a.83.83 0 00.3 1.52l6.63 1.19a.82.82 0 00.82-1.26q-3.04-4.46-7.75-1.45"/><path stroke="#5c5d5d" vector-effect="non-scaling-stroke" d="M296.68 248.39c2.43 3.85 14.11 3.2 16.63 2.98 8.28-.74 15.3-5.71 14.8-14.79a.32.31 73.6 00-.47-.26q-7.88 4.3-18.62 5.66-6.42.8-12.21 5.65a.58.58 0 00-.13.76M319 340.71c2.68-.33 4.96-.5 7.28-2.15q2.73-1.95 5.85-3.86a1.25 1.24 41.4 00-.14-2.2c-2.56-1.14-5.12-2.88-7.7-3.79q-15.97-5.65-32.79-7.92"/><path stroke="#90908f" vector-effect="non-scaling-stroke" d="M291.5 320.79l-16.25-5.38a.42.41 11.1 00-.54.36c-.63 8.3-1.16 12.96 6.74 17.78q17.62 10.74 37.55 7.16"/><path stroke="#cbcccd" vector-effect="non-scaling-stroke" d="M291.5 320.79c5.86 3.33 12.17 6.29 17.18 10.33q5.48 4.43 10.32 9.59"/><path stroke="#5c5d5d" vector-effect="non-scaling-stroke" d="M271.46 350q-3.01 21.16-7.94 41.95c-.92 3.87-.57 6.65 3.18 8.32q12.93 5.75 26.97 3.88c11.76-1.56 20.32-12.97 27.79-21.15"/><path stroke="#90908f" vector-effect="non-scaling-stroke" d="M321.46 383q4.38-3.49 6.08-8.75"/><path stroke="#5c5d5d" vector-effect="non-scaling-stroke" d="M327.54 374.25l.99-.28a.57.57 0 01.7.71q-3.27 11.28-9 21.52a.37.37 0 00.27.54q3.36.56 6.2 2.37c6.19 3.95 13.72 2.35 20.35.1 3.49-1.19 7.27-1.52 10.58-4.61a.85.83 61.3 00.23-.83L354.79 383"/><path stroke="#8e8f80" vector-effect="non-scaling-stroke" d="M354.79 383l-1.58-5.75"/><path stroke="#5c5d5d" vector-effect="non-scaling-stroke" d="M353.21 377.25q-3.35-16-6.28-32.08c-.63-3.43-5.29-6.56-8.22-8.05a.89.89 0 00-.87.05c-8.64 5.46-14.19 9.29-24.59 9.26-6.8-.01-15.52.57-21.82-1.98-3.93-1.59-7.32-4.06-11.39-5.45"/><path stroke="#90908f" vector-effect="non-scaling-stroke" d="M280.04 339l-7.09-5.63q-.39-.31-.42.19L271.46 350"/><path stroke="#cbcccd" vector-effect="non-scaling-stroke" d="M280.04 339c-1.6 3.08-3.13 6.19-6.82 6.96a.61.59 84.1 00-.47.59v3.01a.73.72 79.5 01-.46.68q-.44.17-.83-.24"/><path stroke="#c9cbbe" vector-effect="non-scaling-stroke" d="M353.21 377.25l-.46-.52q-1.05-1.21-.73.36c.19.95 1.34 6.72 2.31 6.68a.45.45 0 00.42-.4l.04-.37"/><path stroke="#cbcccd" vector-effect="non-scaling-stroke" d="M327.54 374.25c-1.82-10.84-16.44-8.89-15.75.7q.65 9.07 9.67 8.05"/><path stroke="#5c5d5d" vector-effect="non-scaling-stroke" d="M350.2 404.86l.46 5.75q.09 1.16.98.4l1.36-1.16a1.24 1.24 0 00.42-.93l-.07-5.06a.44.44 0 00-.55-.43l-1.93.49a.9.9 0 00-.67.94M299.1 407.76c-10.25 3.17-19.78 2.2-29.91-.68a1.67 1.63 77.7 01-.79-.52q-.45-.55-1.16-.71a.52.52 0 00-.63.46l-.44 5.03a1.22 1.22 0 00.92 1.3c8.32 2.07 16.57 4.4 25.46 3.25a1.71 1.71 0 00.94-.44q3.46-3.17 7.75-5.15a1.34 1.33 88.9 00.68-.71c.78-1.88-1.77-2.16-2.82-1.83M310.26 418.66q2.96.27 4.91-1.96a1.42 1.41-24.5 00.35-.93l-.05-6.46a1.06 1.06 0 00-.95-1.04c-6.52-.68-9.44 4.89-5.2 9.91a1.41 1.39-17.6 00.94.48"/><path stroke="#90908f" vector-effect="non-scaling-stroke" d="M374.96 455.25q2.84 6.57 6.79 12.54"/><path stroke="#5c5d5d" vector-effect="non-scaling-stroke" d="M381.75 467.79c2.14 3.83 13.45 22.79 18.13 21.59a1 1 0 00.51-1.61q-9.66-11.25-16.61-24.29"/><path stroke="#90908f" vector-effect="non-scaling-stroke" d="M383.78 463.48l-4.07-7.98"/><path stroke="#5c5d5d" vector-effect="non-scaling-stroke" d="M379.71 455.5q-8.72-16.89-16.4-38.06-1.19-3.28-4.93-4.45a.72.71 26.5 00-.79.26q-1.15 1.57-3.05 2.05a.1.09 75.9 00-.07.12l.1.26a.43.42-10 00.42.29q1.8-.03 2.28 1.51 1.6 5.12 3.21 8.12 7.67 14.21 13.9 29.11a.81.81 0 00.33.39l.25.15"/><path stroke="#cbcccd" vector-effect="non-scaling-stroke" d="M379.71 455.5q-1-.03-1.7-.71a1.44 1.44 0 00-.86-.4q-1.32-.13-2.19.86M383.78 463.48q.19 3.02-2.03 4.31"/><path stroke="#5c5d5d" vector-effect="non-scaling-stroke" d="M321.44 417.06q3.98 2.78 9.96 5.87c6.29 3.25 2.06 11.86-3.98 5.47-2.46-2.6-5.19-3.6-7.33-6.83q-.3-.44-.43.08c-.79 3.19 11.88 13.78 15.28 14.81a.64.63-73 00.78-.42l2.88-9.3a1.25 1.24 36.2 00-.17-1.08q-5.58-7.87-14.92-10.43-.39-.11-.7-.37l-1.76-1.52a.46.45 26 00-.75.25q-.47 2.35 1.14 3.47M290.39 441.68c7.7 3.51 12.62-18.63 13.74-22.88a.39.39 0 00-.71-.3c-2.51 4.03-4.34 8.3-7.15 11.97q-1.87 2.44-3.87 5.11a1.46 1.46 0 01-2.2.16c-2.58-2.6-1.61-4.92.74-7.32q5.71-5.82 10.88-12.2a.53.53 0 00-.67-.79c-4.79 2.68-15.36 9.46-16.63 15.27-.96 4.4 1.93 9.18 5.87 10.98"/><path stroke="#90908f" vector-effect="non-scaling-stroke" d="M261.95 418.52q-6.06 4.23-7.5 11.97"/><path stroke="#5c5d5d" vector-effect="non-scaling-stroke" d="M254.45 430.49q-1.17 1.81-1.08 4.6"/><path stroke="#90908f" vector-effect="non-scaling-stroke" d="M253.37 435.09l-14.41 34.66"/><path stroke="#5c5d5d" vector-effect="non-scaling-stroke" d="M238.96 469.75l-13.05 25.27a1.04 1.02-44.4 00-.02.92c2.22 4.67 5.77 5.77 10.67 4.37 6.16-1.76 13.79-1.04 19.99.18 11.38 2.24 21.01 9.51 32.95 9.22"/><path stroke="#90908f" vector-effect="non-scaling-stroke" d="M289.5 509.71q3.83.36 7.5-.58a.81.81 0 00.6-.61l8.19-34.52"/><path stroke="#5c5d5d" vector-effect="non-scaling-stroke" d="M305.79 474q.92-1.88.91-4a.5.49 90 00-.49-.5h-5.78a1.03 1.02 71.3 01-.82-.41c-2.64-3.54-1.71-14.93-1.81-19.57a.6.6 0 00-.5-.58q-9.1-1.62-14.83-8.17c-5.42-6.2-5.32-13.87 2.31-18.16a.53.52 32.6 00-.22-.98q-9.48-.79-18.41-3.98a1.6 1.56-41.7 00-.92-.04l-3.28.91"/><path stroke="#cbcccd" vector-effect="non-scaling-stroke" d="M305.79 474q-.42-.3-.87-.3a.81.8-78.3 00-.74.49c-1.27 2.88-1.29 6.09-2.03 8.68q-1.25 4.35-2.4 8.74c-.64 2.46-.54 5.73-1.69 8.61a.76.76 0 01-.69.47q-3.95.09-5.99 2.98c-1.21 1.72-.8 3.93-1.88 6.04M238.96 469.75c5.17-.68 8.37-7.55 9.54-11.6a1.56 1.54 42.9 00-.04-.97l-1.57-4.16a1.14 1.13 48.8 01.06-.95q4.42-8.07 6.42-16.98M254.45 430.49q5.04.7 7.1-3.65 1.7-3.57.4-8.32"/><path stroke="#5c5d5d" vector-effect="non-scaling-stroke" d="M303.98 466.26l3.15-.08a.75.75 0 00.73-.67q.27-2.49.25-5.02-.11-14.81.08-29.71 0-.5-.26-.07c-2.29 3.82-4.43 7.3-4.73 11.93q-.72 11.03-.32 22.58a1.07 1.07 0 001.1 1.04M326.37 436.87q-3.4-1.71-5.59-4.9a.32.31 21.9 00-.57.24c2.15 10.04 4.16 17.51 4.79 29.53a.54.53-1.1 00.54.51q1.27-.01 1.36-1.51.68-11.59-.03-23.11a.91.89-78.8 00-.5-.76"/><path stroke="#90908f" vector-effect="non-scaling-stroke" d="M341.22 487.75q.29-8.86-1.35-17.43"/><path stroke="#5c5d5d" vector-effect="non-scaling-stroke" d="M339.87 470.32l-.56-4.37a.43.42 72.9 00-.61-.33q-5.01 2.55-10.5 3.63a1.26 1.25-9.2 01-1.49-1.07c-.39-3.02-3.84-.79-5.66-.51a.41.41 0 01-.47-.42c.12-2.86-1.05-5.48-1.21-8.01q-.55-8.48-2.47-16.78-.11-.49-.12.02-.09 10-.01 20.03c.04 4.46-2.24 9.25-2.32 14.16q-.24 15.05 1.28 30.03a.72.72 0 00.55.63c1.36.34 2.81.08 4.09.46 6.02 1.82 11.1 3.65 17.49 3.09a1.22 1.22 0 001.1-1.01c.98-5.76 3.66-17.47 2.26-22.12"/><path stroke="#cbcccd" vector-effect="non-scaling-stroke" d="M339.87 470.32q-5.14 1.35-6.56 6.69-.74 2.76.78 5.42 2.5 4.37 7.13 5.32"/><path stroke="#90908f" vector-effect="non-scaling-stroke" d="M361.13 476.89q2.02 9.64 5.66 18.61"/><path stroke="#5c5d5d" vector-effect="non-scaling-stroke" d="M366.79 495.5q.99 3.59 2.93 6.85a1.25 1.24 81.9 00.75.57c4.97 1.32 11.92-2.23 18.33-5.19a.59.59 0 00.32-.7q-.91-3.22-3.06-5.84-15.27-18.55-30.42-37.27-.31-.39-.25.1 1.56 11.87 5.74 22.87"/><path stroke="#cbcccd" vector-effect="non-scaling-stroke" d="M366.79 495.5l.44.01a.31.31 0 00.29-.41q-.11-.3 0-.56c1.87-4.36 1.27-7.68-1.84-11.48q-2.43-2.97-4.55-6.17"/><path stroke="#5c5d5d" vector-effect="non-scaling-stroke" d="M307.21 561.75c.4 3.38 27.41-.14 29.47-.48 4.96-.8 9.39-2.6 14.1-4.45 10.82-4.24 17.89-12.62 21.45-23.68a.4.39-72.3 00-.25-.5l-20.55-7.18a.94.93-50 00-.77.07q-5.09 2.9-10.91 3.01"/><path stroke="#90908f" vector-effect="non-scaling-stroke" d="M339.75 528.54c-9.3.35-19.52-3.81-27.77-7.55-5.89-2.67-13.31-1.2-20.73-.51q-8.8.81-18.77-2.49c-4.17-1.38-7.83-4.5-11.84-6.74a.41.41 0 00-.59.23q-4.28 13.72 3.93 26.84 15.1 24.13 43.23 23.43"/><path stroke="#cbcccd" vector-effect="non-scaling-stroke" d="M339.75 528.54l.32.16a.49.49 0 01.25.6c-3.73 10.39-5.94 17.82-14.64 24.65-4.97 3.89-12.2 5.74-18.47 7.8"/><path stroke="#4b4d4e" vector-effect="non-scaling-stroke" d="M328.72 169.12c-2.97 2.22-2.38 5.43.52 7.43q9.61 6.64 19.91-.01a.89.89 0 00.4-.76q-.05-3.88-2.59-6.03-8.94-7.55-18.24-.63M268.19 176.94c-3.33 3.92.32 10.09 4.83 8.89q10.98-2.92 22.15-4.98c2.2-.41 4.12-1.47 5.93-2.62a1.44 1.41 83.3 00.58-.75c1.06-3.15-2.56-7.05-4.76-8.67-4.32-3.16-15.24-2.45-19.66.3q-5.12 3.2-9.07 7.83M252.56 186.69c-10.75-4.92-15.3 11.38-7.82 11.53 4.74.1 14.11-1.79 10.12-9.03q-1.06-1.94-2.3-2.5M367.75 188.21c-6.51.97-7.96 6.19-4.27 11.18q2.14 2.89 5.06 4.99c4.68 3.36 25.74 10.02 25.79 1.39.01-2.41-3.13-5.63-3.9-8.61a1.86 1.72-77.2 00-.48-.83q-7.02-6.8-16.7-8.62"/><path stroke="#5c5d5d" vector-effect="non-scaling-stroke" d="M373.25 187.71q-2.85-.97-5.5.5"/><path stroke="#111010" vector-effect="non-scaling-stroke" d="M373.25 187.71l-5.5.5"/><path stroke="#4b4d4e" vector-effect="non-scaling-stroke" d="M315.54 192.04q-1.16 1.18-.68 3.14c1.31 5.4 4.47 7.62 10 8.41 4.85.7 14.19 1.91 16.59-3.84a.95.94 38.8 00-.1-.89c-6.01-8.7-16.09-16.8-25.81-6.82M283.04 191.31c-6.79-.97-12.52 6.02-10.58 12.59 1.15 3.88 14.9 3.44 18.72 3.1 4.86-.43 7.53-6.02 2.63-9.1-3.29-2.06-7.19-6.08-10.77-6.59"/><path stroke="#5c5d5d" vector-effect="non-scaling-stroke" d="M230.47 200.55c-2.29-3.71-11.37-12.72-16.3-7.63-2.46 2.55-5.63 6.77-6 10.36-1.73 16.54 30.18 10.07 22.3-2.73"/><path stroke="#4b4d4e" vector-effect="non-scaling-stroke" d="M416.54 201.17c-3.29.9-12.27 3.41-7.05 8.84 3.23 3.36 12.84 9.56 17.4 5.98q1.46-1.15 1.56-3.47c.27-6.72-4.63-13.35-11.91-11.35"/><path stroke="#c9cbbe" vector-effect="non-scaling-stroke" d="M246.62 237.51q3.17.29 6.87-2.06c1.42-.9 13.72-8.29 9.3-10.7"/><path stroke="#5c5d5d" vector-effect="non-scaling-stroke" d="M262.79 224.75c2.83-11.32-7.76-15.1-15.97-10.4-2.53 1.45-4.45 4.17-6.47 6.46-2.68 3.03-3.03 5.46-.99 8.86a.35.34-21.4 01-.23.51c-7.19 1.48-14.74 5.74-13.53 14.3a.3.29-19.1 00.44.21q8.58-5.19 18.7-4.94a1.15 1.13-68.3 00.87-.38q.72-.82 1.01-1.86"/><path stroke="#8e8f80" vector-effect="non-scaling-stroke" d="M262.79 224.75c-2.27 6.67-10.37 10.26-16.17 12.76"/><path stroke="#4b4d4e" vector-effect="non-scaling-stroke" d="M418.7 225.36c-1.17 6.61 8.73 15.78 13.87 18.74 5.17 2.97 9.28 4.51 14.66 1.77a1.57 1.57 0 00.84-1.12c1.65-8.57-1.34-16.45-8.95-20.56-3.28-1.77-5.51-3.77-9.59-3.07q-5.3.9-10.09 3.26a1.35 1.35 0 00-.74.98"/><path stroke="#5c5d5d" vector-effect="non-scaling-stroke" d="M212.18 253.73c11.7-11.4-13.18-11.12-10.11-1.81 1.46 4.43 7.1 4.74 10.11 1.81"/><path stroke="#4b4d4e" vector-effect="non-scaling-stroke" d="M338 175.71q4.01.96 7.51-1.02a.54.54 0 00.21-.72q-.92-1.78-2.93-2.47"/><path stroke="gray" vector-effect="non-scaling-stroke" d="M342.79 171.5c-3.05-3.27-8.81-1.59-11.71.88a.44.43 44.6 00.01.66q3.01 2.56 6.91 2.67"/><path stroke="#cbcccd" vector-effect="non-scaling-stroke" d="M342.79 171.5q-2.93 1.52-4.79 4.21"/><path stroke="#4b4d4e" vector-effect="non-scaling-stroke" d="M279.75 179.96q8.59-.96 17.25-3.89a.64.63 64.2 00.33-.95l-2.17-3.34"/><path stroke="gray" vector-effect="non-scaling-stroke" d="M295.16 171.78q-7.42-2.8-14.24-.48c-2.48.85-11.37 7.14-10.06 10.33a.6.59 71.5 00.7.36l8.19-2.03"/><path stroke="#cbcccd" vector-effect="non-scaling-stroke" d="M295.16 171.78q-5.18 1.37-7 2.61-4.17 2.84-8.41 5.57"/><path stroke="gray" vector-effect="non-scaling-stroke" d="M251.63 192.76c1.78-4.74-6.25-4.77-7.03 1.3a.5.5 0 00.45.56q3.13.29 5.93-1.13a1.4 1.37 87.2 00.65-.73M318.83 194.31a1.27 1.27 0 00-.22 1.41c2.89 6.14 10.42 4.32 15.78 3.48a1.08 1.08 0 00.65-1.76c-4.51-5.32-9.81-10.02-16.21-3.13"/><path stroke="#4b4d4e" vector-effect="non-scaling-stroke" d="M365.71 192.75q-1.02.57-1.15 1.61a1.29 1.27-61.5 00.26.91l.39.48"/><path stroke="gray" vector-effect="non-scaling-stroke" d="M365.21 195.75q2.91 4.71 8.04 6.79"/><path stroke="#111010" vector-effect="non-scaling-stroke" d="M373.25 202.54q.92 1.79 3 1.42"/><path stroke="#4b4d4e" vector-effect="non-scaling-stroke" d="M376.25 203.96c2.57.65 7.92 2.66 10.23 1.26a1.39 1.35 85.5 00.6-.73q2-5.65-3.29-7.99"/><path stroke="gray" vector-effect="non-scaling-stroke" d="M383.79 196.5c-4.63-4.07-12.18-7.51-18.08-3.75"/><path stroke="#cbcccd" vector-effect="non-scaling-stroke" d="M383.79 196.5q-.45 7.63-8.04 6.54"/><path stroke="#90908f" vector-effect="non-scaling-stroke" d="M375.75 203.04l-2.5-.5"/><path stroke="#cbcccd" vector-effect="non-scaling-stroke" d="M365.21 195.75l.5-3"/><path stroke="#5c5d5d" vector-effect="non-scaling-stroke" d="M376.25 203.96l-.5-.92"/><path stroke="#4b4d4e" vector-effect="non-scaling-stroke" d="M283.25 202.46c2.97.09 5.96-1.69 3.54-4.96"/><path stroke="gray" vector-effect="non-scaling-stroke" d="M286.79 197.5c-4.33-4.86-11.61-1.99-10.66 4.51a.69.68-89.5 00.57.59q3.37.59 6.55-.14"/><path stroke="#cbcccd" vector-effect="non-scaling-stroke" d="M286.79 197.5l-.04.29a.51.49-5.5 01-.33.38q-2.16.8-2.12 3.22a.86.85 76.3 01-.47.78l-.58.29"/><path stroke="#5c5d5d" vector-effect="non-scaling-stroke" d="M217.5 207.21q5.22-1.15 8-5.55a1.1 1.1 0 00.13-.9q-.67-2.25-2.84-3.26"/><path stroke="#90908f" vector-effect="non-scaling-stroke" d="M222.79 197.5c-2.33-1.72-5.56-3.22-7.41-.39-2.1 3.2-6.03 8.89-1.13 11.24a1.07 1.07 0 00.92 0l2.33-1.14"/><path stroke="#cbcccd" vector-effect="non-scaling-stroke" d="M222.79 197.5c-.21.53-.48 1.08-.95 1.45q-4.01 3.11-4.34 8.26"/><path stroke="#4b4d4e" vector-effect="non-scaling-stroke" d="M421 212.79q1.88 1.17 3.96.56a.7.69-8.5 00.5-.66q.02-1.73-.92-3.19"/><path stroke="gray" vector-effect="non-scaling-stroke" d="M424.54 209.5c-1.48-5.01-7.93-6.96-11.84-3.19a1.37 1.36-43.3 00-.06 1.91q3.3 3.59 8.36 4.57"/><path stroke="#cbcccd" vector-effect="non-scaling-stroke" d="M424.54 209.5c.04 2.18-1.08 4.26-3.54 3.29"/><path stroke="gray" vector-effect="non-scaling-stroke" d="M177.08 214.12c-9.28-5.2-11.08 6.1-5.76 8.99a1.12 1.1 48.3 00.9.06q5.4-1.98 5.53-7.88a1.3 1.3 0 00-.67-1.17"/><path stroke="#5c5d5d" vector-effect="non-scaling-stroke" d="M244.9 229.78c4.5.69 10.41-4.95 14.17-7.36a.9.9 0 00.42-.78l-.03-1.64"/><path stroke="#90908f" vector-effect="non-scaling-stroke" d="M259.46 220c.46-4.07-4.5-4.16-7.18-3.77-4.5.67-9.01 5.94-11.32 9.6a.92.9 48 00-.04.89q1.15 2.23 3.98 3.06"/><path stroke="#cbcccd" vector-effect="non-scaling-stroke" d="M259.46 220c-8.18-.57-9.13 5.75-14.56 9.78"/><path stroke="#4b4d4e" vector-effect="non-scaling-stroke" d="M431.75 239.79q5.37 3.92 11.98 3.81a.66.65 3 00.64-.57q.61-4.98-1.08-9.53"/><path stroke="gray" vector-effect="non-scaling-stroke" d="M443.29 233.5c-.88-3.84-6.5-6.7-9.68-8.02-3.15-1.31-6.41-.18-9.61.68a1.48 1.48 0 00-1 1.96q2.59 6.78 8.75 11.67"/><path stroke="#cbcccd" vector-effect="non-scaling-stroke" d="M443.29 233.5l-1.72 5.74q-.54 1.8-2.4 1.55l-7.42-1M331.47 357.77c10.93 8.12 14.7-11.72 7.54-14.02-8.65-2.78-15.27 8.28-7.54 14.02M307.445 357.054a6.54 6.54 0 00-7.827-4.928l-1.755.399a6.54 6.54 0 00-4.928 7.826l.58 2.555a6.54 6.54 0 007.827 4.928l1.755-.399a6.54 6.54 0 004.928-7.826l-.58-2.555M270.94 363.19c-1.08.24.86 6.33 1.31 7.04 4.33 6.91 13.23 1.83 11.87-5.7-1.05-5.85-11.56-5.82-13.18-1.34M286.005 384.943a7.99 7.57-23.9 00-10.372-3.684 7.99 7.57-23.9 00-4.238 10.158 7.99 7.57-23.9 0010.372 3.684 7.99 7.57-23.9 004.238-10.158M351.13 391.49l.43-.31a.57.56 53.1 00.11-.8c-1.83-2.41 1.25-6.08-3.67-6.9-9.55-1.61-9.92 13.5-3.9 13.62q5.54.11 6.61-4.96a1.04 1.04 0 01.42-.65M268.119 459.783a8.96 7.37 95.9 008.252-8.155 8.96 7.37 95.9 00-6.41-9.67 8.96 7.37 95.9 00-8.252 8.154 8.96 7.37 95.9 006.41 9.67M270.34 478.94c.54 6.81 9.67 6.77 13.86 4.35 3.34-1.93 3.3-4.65 2.58-8.05-2.34-11.03-17.27-6.69-16.44 3.7M260.372 487.773a9.4 8.42-2.3 00-9.73-8.036 9.4 8.42-2.3 00-9.054 8.79 9.4 8.42-2.3 009.73 8.036 9.4 8.42-2.3 009.054-8.79M333.744 498.596a5.97 5.97 0 00-6.653-5.198l-2.322.285a5.97 5.97 0 00-5.198 6.653l.205 1.668a5.97 5.97 0 006.653 5.198l2.322-.285a5.97 5.97 0 005.198-6.653l-.205-1.668"/><path stroke="#fdfef0" vector-effect="non-scaling-stroke" d="M589.94 591l-.19-.71"/><path stroke="#c9cbbe" vector-effect="non-scaling-stroke" d="M345.94 591q-2.5-.63-5 0"/><path stroke="#8e8f80" vector-effect="non-scaling-stroke" d="M338.44 591q-2.75-.63-5.5 0M9.19 591q-4-.63-8 0"/></g><path d="M0 0h590.06l.19.29.04 589.46-.54.54-589.07-.23a.4.39 78.5 00-.36.55q.1.22.37.39H0V0zm586.25 4.51a.26.26 0 00-.26-.26H4.51a.26.26 0 00-.26.26v581.48a.26.26 0 00.26.26h581.48a.26.26 0 00.26-.26V4.51z"/><path fill="#21201f" d="M590.06 0h.94v587.31c-.84-.45-.25-537.06-.25-586.81a.25.24-86.1 00-.21-.25q-.17-.02-.29.04l-.19-.29z"/><path fill="#fbfde0" d="M590.25.29q.12-.06.29-.04a.25.24-86.1 01.21.25c0 49.75-.59 586.36.25 586.81v2.75l-.71-.31L590.25.29zM586.25 585.99a.26.26 0 01-.26.26H4.51a.26.26 0 01-.26-.26V4.51a.26.26 0 01.26-.26h581.48a.26.26 0 01.26.26v581.48zM36.13 81.96q22.85-23.19 45.44-46.63c2.94-3.05 6.12-5.87 9.26-8.77a.64.64 0 00-.14-1.04q-1.55-.79-3.51-.79-18.06.01-36.11.3c-11.18.18-27.58 1.46-28 16.78q-.31 11.3-.15 22.59c.09 6.56-.61 18.95.59 28.58a.89.88-25.2 001.49.53c3.87-3.62 7.97-8.34 11.13-11.55zm359.16 414.43c3.18-1.17 10.66-2.4 12.69-4.74a1.11 1.11 0 00.26-.88q-.36-2.62-1.81-4.46c-5.35-6.74-10.9-13.22-15.01-20.71-8.05-14.64-15.77-30.17-21.21-45.99-1.64-4.78-5.16-10.43-9.99-12.76a1.05 1.04 8 01-.55-.72l-.8-3.93a.72.72 0 01.27-.73c7.37-5.56 2.49-17.12.19-23.98-2.55-7.59-3.88-15.13-5.56-22.75-2.79-12.66-3.76-24.05-5.38-38.17q-.29-2.46 0-4.35a.76.76 0 01.57-.62q3.75-.96 6.54-.89c8.98.22 16.42-1.53 24.94-2.16 5.9-.44 11.88-1.94 17.4-2.32q8.81-.62 16.66-1.99c22.93-4 46.1-11.11 66.87-22.32 3.03-1.64 13.63-7.54 13.08-11.41q-2.74-19.1-13.19-34.59a1.98 1.98 0 01-.16-1.93q7.63-16.83 16.35-33.04c1.45-2.69 3.34-4.7 5.38-6.88q14.3-15.31 29.21-30.03c3.81-3.77 8.84-10.73 7.41-16.05-2.91-10.82-30.81-5.24-38.78-2.94q-10.78 3.11-21.64 5.97c-13.44 3.54-24.09 8.18-35.62 14.53a.77.77 0 01-.83-.05c-4.24-3.03-8.4-1.05-12.08-5.11a1.08 1.03-63.1 01-.26-.86q2.93-18.8 2.75-29.78c-.24-15.1-3.63-26.15-6.96-39.39q-1.07-4.25-4.62-6.22a2.04 2.02-42.1 00-1.79-.08q-4.23 1.88-7.63 4.93c-15 13.49-22.64 30.88-28.63 50.34-1.98 6.45-8 13.38-11.9 18.99a.5.5 0 01-.7.13c-6.28-4.34-15.37-2.98-22.24-.07q-2.13.91-4.16.85-7.53-.23-15.05-.74a1.56 1.54 66.1 01-.89-.35c-1.87-1.54-9.39-8.43-11.42-8.12-8.08 1.24-16.53 2-23.06 7.77-.95.84-2.9 1.51-4.17 1.55q-12.51.42-16.27 1.37c-6.94 1.75-13.89 2.17-20.76 3.74a1.38 1.35 52.2 01-.94-.13q-12.75-7-23.79 1.2c-4.42 3.28-6.86 8.51-11.75 11q-7.7 3.93-15.8 7.08a1.21 1.19-44 01-.93-.01c-2.94-1.2-5.66-3.12-8.74-3.11-4.57.01-9.98 2.65-11.28 7.37-.72 2.62.97 7.16-1.31 8.86q-11.69 8.73-19.42 18.63a.95.93 20.2 01-.8.36c-3.64-.25-8.07-.98-11.13 1.13-6.97 4.81-4.07 10.28-2.42 16.69a1.29 1.24 53.4 01-.12.92c-5.17 9.34-21.94 38.12-11.24 45.5 21.56 14.9 45.88 20.32 70.99 25.76 12.85 2.79 26.26 2.58 39.34 3.88 8.82.88 16.42 1.31 24.5 1.79q2.01.12 1.8 2.12-1.64 16.05-3.18 31.81c-1.66 16.92-4.66 32.15-9.04 47.95-.97 3.52 1.64 6.93 3.89 9.85a1.56 1.49-62 01.3 1.08l-1.04 9.43a.97.97 0 01-.55.77l-4.77 2.21a1.55 1.54-89.2 00-.73.72q-2.3 4.81-4.04 9.83c-1.91 5.56-4.95 10.22-6.73 16.02q-7.64 24.95-22.83 47.33c-1.66 2.45-2.12 5.32-.29 8 3.25 4.79 7.97 9.5 13.57 8.26q10.51-2.34 19.7-.82a.44.44 0 01.35.56c-7.04 24.34 11.41 52.9 35.44 59.02q25.31 6.45 53.27.8 3.7-.75 12.07-4.69c13.59-6.39 20.36-17.29 23.2-31.71 1.62-8.25.96-14.39 1.03-21.82a.67.67 0 01.48-.64c5.6-1.57 14.88-3.49 15.01-10.39a.73.73 0 01.48-.67z"/><path fill="#f8e1a9" d="M36.13 81.96c-3.16 3.21-7.26 7.93-11.13 11.55a.89.88-25.2 01-1.49-.53c-1.2-9.63-.5-22.02-.59-28.58q-.16-11.29.15-22.59c.42-15.32 16.82-16.6 28-16.78q18.05-.29 36.11-.3 1.96 0 3.51.79a.64.64 0 01.14 1.04c-3.14 2.9-6.32 5.72-9.26 8.77Q58.98 58.77 36.13 81.96z"/><path fill="#21201f" d="M394.81 497.06c-.13 6.9-9.41 8.82-15.01 10.39a.67.67 0 00-.48.64c-.07 7.43.59 13.57-1.03 21.82-2.84 14.42-9.61 25.32-23.2 31.71q-8.37 3.94-12.07 4.69-27.96 5.65-53.27-.8c-24.03-6.12-42.48-34.68-35.44-59.02a.44.44 0 00-.35-.56q-9.19-1.52-19.7.82c-5.6 1.24-10.32-3.47-13.57-8.26-1.83-2.68-1.37-5.55.29-8q15.19-22.38 22.83-47.33c1.78-5.8 4.82-10.46 6.73-16.02q1.74-5.02 4.04-9.83a1.55 1.54-89.2 01.73-.72l4.77-2.21a.97.97 0 00.55-.77l1.04-9.43a1.56 1.49-62 00-.3-1.08c-2.25-2.92-4.86-6.33-3.89-9.85 4.38-15.8 7.38-31.03 9.04-47.95q1.54-15.76 3.18-31.81.21-2-1.8-2.12c-8.08-.48-15.68-.91-24.5-1.79-13.08-1.3-26.49-1.09-39.34-3.88-25.11-5.44-49.43-10.86-70.99-25.76-10.7-7.38 6.07-36.16 11.24-45.5a1.29 1.24 53.4 00.12-.92c-1.65-6.41-4.55-11.88 2.42-16.69 3.06-2.11 7.49-1.38 11.13-1.13a.95.93 20.2 00.8-.36q7.73-9.9 19.42-18.63c2.28-1.7.59-6.24 1.31-8.86 1.3-4.72 6.71-7.36 11.28-7.37 3.08-.01 5.8 1.91 8.74 3.11a1.21 1.19-44 00.93.01q8.1-3.15 15.8-7.08c4.89-2.49 7.33-7.72 11.75-11q11.04-8.2 23.79-1.2a1.38 1.35 52.2 00.94.13c6.87-1.57 13.82-1.99 20.76-3.74q3.76-.95 16.27-1.37c1.27-.04 3.22-.71 4.17-1.55 6.53-5.77 14.98-6.53 23.06-7.77 2.03-.31 9.55 6.58 11.42 8.12a1.56 1.54 66.1 00.89.35q7.52.51 15.05.74 2.03.06 4.16-.85c6.87-2.91 15.96-4.27 22.24.07a.5.5 0 00.7-.13c3.9-5.61 9.92-12.54 11.9-18.99 5.99-19.46 13.63-36.85 28.63-50.34q3.4-3.05 7.63-4.93a2.04 2.02-42.1 011.79.08q3.55 1.97 4.62 6.22c3.33 13.24 6.72 24.29 6.96 39.39q.18 10.98-2.75 29.78a1.08 1.03-63.1 00.26.86c3.68 4.06 7.84 2.08 12.08 5.11a.77.77 0 00.83.05c11.53-6.35 22.18-10.99 35.62-14.53q10.86-2.86 21.64-5.97c7.97-2.3 35.87-7.88 38.78 2.94 1.43 5.32-3.6 12.28-7.41 16.05q-14.91 14.72-29.21 30.03c-2.04 2.18-3.93 4.19-5.38 6.88q-8.72 16.21-16.35 33.04a1.98 1.98 0 00.16 1.93q10.45 15.49 13.19 34.59c.55 3.87-10.05 9.77-13.08 11.41-20.77 11.21-43.94 18.32-66.87 22.32q-7.85 1.37-16.66 1.99c-5.52.38-11.5 1.88-17.4 2.32-8.52.63-15.96 2.38-24.94 2.16q-2.79-.07-6.54.89a.76.76 0 00-.57.62q-.29 1.89 0 4.35c1.62 14.12 2.59 25.51 5.38 38.17 1.68 7.62 3.01 15.16 5.56 22.75 2.3 6.86 7.18 18.42-.19 23.98a.72.72 0 00-.27.73l.8 3.93a1.05 1.04 8 00.55.72c4.83 2.33 8.35 7.98 9.99 12.76 5.44 15.82 13.16 31.35 21.21 45.99 4.11 7.49 9.66 13.97 15.01 20.71q1.45 1.84 1.81 4.46a1.11 1.11 0 01-.26.88c-2.03 2.34-9.51 3.57-12.69 4.74a.73.73 0 00-.48.67zm-20.08-334.15c2.5 2.63 3.61 2.29 6.46 3.21 10.48 3.39 21.47 6.04 31.16 10.96a1.54 1.54 0 002.11-2c-2.99-6.62-7.14-10.75-8.6-18.77q-.09-.49.32-.2c4.36 3.07 10.2 4.72 12.92 9.4a1.58 1.58 0 002.19.56q3.47-2.11 4.16-6.07c1.68-9.7 1.51-17.98 2.05-29.25q.93-19.19-6.46-39.59a1.64 1.58 9.6 00-.54-.73l-1.44-1.07q-21.35 17.78-28.82 44.48c-1.37 4.9-2.87 10.62-6.09 14.68q-5.43 6.84-9.42 14.39zm94.52 43.63l-.23.52a.47.46-59.7 01-.7.19q-9.03-6.62-19.49-10.78a.58.58 0 00-.52 1.04c12.18 7.53 20.67 19.27 28.9 31.01a.32.31 42.2 00.53-.02c3.21-5.58 5.73-12.73 7.98-17.33q2.5-5.12 5.06-10.2c5.35-10.64 16.12-18.57 24.11-26.74q13.56-13.87 18.05-18.78 2.25-2.46 1.31-6.24c-8.92-8.23-44.28 3.92-55.3 6.98-12.91 3.58-23.31 8.06-34.22 14.34a.77.77 0 00.29 1.43q11.27 1.41 21.25 6.83.43.23-.05.31-8.7 1.47-17.53 1.71a.55.53-87.5 00-.52.49l-.42 3.91a1.16 1.14 26.7 00.3.89c3.3 3.57 7.6 6.34 10.65 9.48q5.31 5.45 10.55 10.96zm-149.41-48.86c-5.9-3.76-11.91-2.59-18.48-.71a.78.77 36.8 00.22 1.52l18.06-.12a.38.37 61.3 00.2-.69zm48.72 3.96q-6.19-3.27-13.09-1.19-1.32.39.04.61l12.56 2.05a.79.78 63.5 00.49-1.47zm-196.48 47.97q-4.04 3.03-6.37 7.64-3.88 3.87-9.57 11.1-14.53 18.46-18.96 40.64-.41 2.07 1.73 2.53a1.66 1.64 73 01.83.45c6.45 6.58 19.7 8.43 28.33 5.46 6.1-2.09 11.82-3.95 16.27 2.08 2.7 3.65 9.75 4.99 13.94 5.95q10.19 2.33 17.23-4.71a.32.32 0 00-.08-.51l-7.63-3.82a1.68 1.67-36.1 00-.99-.15c-3.71.6-6.32 2.3-10.48 1.4-10.93-2.36-.78-13.34 8.48-10.58q.47.15.96.04 10.53-2.2 21.31-1.3c3.89.33 5.05 5.16 8.95 6.4q3.63 1.16 7.5 1.2.54.01 1.02.26l1.32.7a.86.86 0 00.93-.08q6.41-4.92 14.25-6.53a.9.89 1.5 00.69-.65l2.12-8.28a.97.96 36.4 00-.12-.77c-3.47-5.44-17.43 1.02-21.35 3.72a1.11 1.11 0 01-1.72-1.09c3.03-19.54 21.89-22.23 38.03-18.83a.42.42 0 00.51-.39c.22-5.97 9.46-16.41 14.06-19.96 7.67-5.94 17.24-6.58 26.6-4.74a.69.69 0 00.78-.44c1.87-5.16 11.44-6.73 16.02-3.21a.89.87 52.8 00.86.13q11.21-4.31 21.92.44c3.1 1.38 3.89 3.38 3.19 6.58a.53.53 0 00.57.64c4.66-.43 7.9-1.39 11.51 2.9a.55.55 0 00.86-.03c5.48-7.59 17.83-2.13 19.33 5.25a1.18 1.17-81.4 00.57.78l2.09 1.17a1.36 1.33-84.3 01.62.77c.33 1.06 1.74.75 2.5.97q5.61 1.66 8.46 6.87a1.6 1.59-2.3 00.76.7q6.03 2.67 8.6 8.75a1.8 1.78-83.4 00.58.74l1.66 1.2a1.94 1.89-24.3 00.99.36c4.73.29 9.66.81 13.6 3.8 2.86 2.16 6.02 3.35 7.26 7.1a.81.8-19.1 001.04.5c4.73-1.69 4.97 1.25 6.1 4.53a1.03 1.03 0 00.71.66q7.26 1.99 14.67.65a1.78 1.7 48.6 01.93.08q5.43 1.95 11.21-.23.84-.32 1.66.25a.41.41 0 01.04.65q-1.45 1.27-3.21 2.16c-15.85 7.99-32.82 15.14-50.34 18.36-15.99 2.95-31.76 6.27-48.2 7.79-17.95 1.66-35.24 4.15-53.35 3.68-4.38-.11-10.05.3-15.43.01q-9.98-.53-49.86-.9c-13.69-.12-27.4-2.21-41.02-3.48-20.76-1.93-39.79-7.98-59.74-13.5q-9.71-2.68-18.56-7.41-.46-.25-.24.23.73 1.58 2 2.25c15.26 8.14 32.26 14.66 49.47 18.37 9.51 2.06 19.03 4.44 28.76 5.15 32 2.34 61.33 4.81 95.95 4.84q23.65.02 57.06-4.44l16.78-.72c33.51-3.12 65.84-11.21 95.16-28.07 1.94-1.11 3.18-2.14 3.01-4.64q-.58-8.96-1.95-12-9.52-21.11-23.41-39.74a.32.32 0 00-.55.07c-1.77 4.4-5.31 9.85-11.01 6.86q-10.22-5.35-11.76-16.98a.87.86 67.8 01.33-.79c2.54-1.95 4.16-3.43 7.58-2.67a.36.35 69.8 00.29-.63c-5.39-4.1-10.2-8.16-16.32-11.23-7.59-3.81-14.92-7.9-22.91-10.86q-3.58-1.33-6.67-3.4a.39.39 0 00-.59.45c3.03 9.3-6.46 10.73-12.79 10.12-5.71-.56-11.02-4.42-14.97-8.53a1.4 1.37 19.6 01-.38-.78q-1-6.53 5.45-7.47a.26.26 0 00-.02-.52c-4.39-.42-9.71-2.24-12.71-2.88-10.01-2.16-22.34-4.42-32.55-3.33a1.14 1.14 0 01-.85-.26c-1.17-.99-16.17-.06-18.86-.07-10.43-.07-21.41-.17-31.3 2.05-10.56 2.37-19.17 3.43-28.65 5.11-16.73 2.95-29.72 9.58-44.03 15.84q-11.2 4.9-17.84 8.97-9.72 5.97-18.65 13.25zm72.87-44.02q-10.93-2.23-17.71 6.19-.57.71.3.43l17.46-5.75q1.59-.53-.05-.87zm182.55 1.45l-2.75 2.42-5.54 6.29q-1.46 1.78-.76 3.85a1.02 1 89.8 00.63.64c5.72 1.97 11.47 5.85 16.7 8.94a.57.55-57.2 00.74-.17c2.76-4.01 3.45-13.23 3.46-18.11a2.53 2.52 5.5 00-2.06-2.49l-5.92-1.12q-2.19-1.98-4.5-.25zM390 184.71q3.34.17 6.28-1.6a2 2 0 00.7-2.71q-1.52-2.64-4.94-3.4c-3.27-1.38-12.9-3.63-16.17-.6a.69.68-34.6 00-.15.81c2.37 4.71 9.85 7.4 14.28 7.5zm-194.58 1.58c-2.44-2.47-4.85-3.38-8.14-1.55-3.18 1.78-5.28 4.53-4.52 7.97a.8.8 0 001.18.53l11.43-6.58a.24.24 0 00.05-.37zm255.33 34c5.58 3.13 6.85-3.34 6.25-7.22q-5.25-6.78-13.05-5.68a1.95 1.94-12.5 00-1.59 2.49q2.15 7.12 8.39 10.41zm-116.75.5q1.73.43 3.3-.3a.69.69 0 00.39-.73q-.5-3.31-3.69-4.47-4.28-.95-8.41.53a.34.33-34.1 00-.11.57q3.31 2.82 7.29 4.55a1.04 1.01 45.7 00.8.02l.43-.17zm-179.44-1.85c-6.94-2.28-11.25 4.94-7.3 10.32a.4.4 0 00.64.01l7.05-9.03a.83.82-62.1 00-.39-1.3zm224.9 5.67a.83.83 0 00.3 1.52l6.63 1.19a.82.82 0 00.82-1.26q-3.04-4.46-7.75-1.45zm-82.78 23.78c2.43 3.85 14.11 3.2 16.63 2.98 8.28-.74 15.3-5.71 14.8-14.79a.32.31 73.6 00-.47-.26q-7.88 4.3-18.62 5.66-6.42.8-12.21 5.65a.58.58 0 00-.13.76zM319 340.71c2.68-.33 4.96-.5 7.28-2.15q2.73-1.95 5.85-3.86a1.25 1.24 41.4 00-.14-2.2c-2.56-1.14-5.12-2.88-7.7-3.79q-15.97-5.65-32.79-7.92l-16.25-5.38a.42.41 11.1 00-.54.36c-.63 8.3-1.16 12.96 6.74 17.78q17.62 10.74 37.55 7.16zM271.46 350q-3.01 21.16-7.94 41.95c-.92 3.87-.57 6.65 3.18 8.32q12.93 5.75 26.97 3.88c11.76-1.56 20.32-12.97 27.79-21.15q4.38-3.49 6.08-8.75l.99-.28a.57.57 0 01.7.71q-3.27 11.28-9 21.52a.37.37 0 00.27.54q3.36.56 6.2 2.37c6.19 3.95 13.72 2.35 20.35.1 3.49-1.19 7.27-1.52 10.58-4.61a.85.83 61.3 00.23-.83L354.79 383l-1.58-5.75q-3.35-16-6.28-32.08c-.63-3.43-5.29-6.56-8.22-8.05a.89.89 0 00-.87.05c-8.64 5.46-14.19 9.29-24.59 9.26-6.8-.01-15.52.57-21.82-1.98-3.93-1.59-7.32-4.06-11.39-5.45l-7.09-5.63q-.39-.31-.42.19L271.46 350zm78.74 54.86l.46 5.75q.09 1.16.98.4l1.36-1.16a1.24 1.24 0 00.42-.93l-.07-5.06a.44.44 0 00-.55-.43l-1.93.49a.9.9 0 00-.67.94zm-51.1 2.9c-10.25 3.17-19.78 2.2-29.91-.68a1.67 1.63 77.7 01-.79-.52q-.45-.55-1.16-.71a.52.52 0 00-.63.46l-.44 5.03a1.22 1.22 0 00.92 1.3c8.32 2.07 16.57 4.4 25.46 3.25a1.71 1.71 0 00.94-.44q3.46-3.17 7.75-5.15a1.34 1.33 88.9 00.68-.71c.78-1.88-1.77-2.16-2.82-1.83zm11.16 10.9q2.96.27 4.91-1.96a1.42 1.41-24.5 00.35-.93l-.05-6.46a1.06 1.06 0 00-.95-1.04c-6.52-.68-9.44 4.89-5.2 9.91a1.41 1.39-17.6 00.94.48zm64.7 36.59q2.84 6.57 6.79 12.54c2.14 3.83 13.45 22.79 18.13 21.59a1 1 0 00.51-1.61q-9.66-11.25-16.61-24.29l-4.07-7.98q-8.72-16.89-16.4-38.06-1.19-3.28-4.93-4.45a.72.71 26.5 00-.79.26q-1.15 1.57-3.05 2.05a.1.09 75.9 00-.07.12l.1.26a.43.42-10 00.42.29q1.8-.03 2.28 1.51 1.6 5.12 3.21 8.12 7.67 14.21 13.9 29.11a.81.81 0 00.33.39l.25.15zm-53.52-38.19q3.98 2.78 9.96 5.87c6.29 3.25 2.06 11.86-3.98 5.47-2.46-2.6-5.19-3.6-7.33-6.83q-.3-.44-.43.08c-.79 3.19 11.88 13.78 15.28 14.81a.64.63-73 00.78-.42l2.88-9.3a1.25 1.24 36.2 00-.17-1.08q-5.58-7.87-14.92-10.43-.39-.11-.7-.37l-1.76-1.52a.46.45 26 00-.75.25q-.47 2.35 1.14 3.47zm-31.05 24.62c7.7 3.51 12.62-18.63 13.74-22.88a.39.39 0 00-.71-.3c-2.51 4.03-4.34 8.3-7.15 11.97q-1.87 2.44-3.87 5.11a1.46 1.46 0 01-2.2.16c-2.58-2.6-1.61-4.92.74-7.32q5.71-5.82 10.88-12.2a.53.53 0 00-.67-.79c-4.79 2.68-15.36 9.46-16.63 15.27-.96 4.4 1.93 9.18 5.87 10.98zm-28.44-23.16q-6.06 4.23-7.5 11.97-1.17 1.81-1.08 4.6l-14.41 34.66-13.05 25.27a1.04 1.02-44.4 00-.02.92c2.22 4.67 5.77 5.77 10.67 4.37 6.16-1.76 13.79-1.04 19.99.18 11.38 2.24 21.01 9.51 32.95 9.22q3.83.36 7.5-.58a.81.81 0 00.6-.61l8.19-34.52q.92-1.88.91-4a.5.49 90 00-.49-.5h-5.78a1.03 1.02 71.3 01-.82-.41c-2.64-3.54-1.71-14.93-1.81-19.57a.6.6 0 00-.5-.58q-9.1-1.62-14.83-8.17c-5.42-6.2-5.32-13.87 2.31-18.16a.53.52 32.6 00-.22-.98q-9.48-.79-18.41-3.98a1.6 1.56-41.7 00-.92-.04l-3.28.91zm42.03 47.74l3.15-.08a.75.75 0 00.73-.67q.27-2.49.25-5.02-.11-14.81.08-29.71 0-.5-.26-.07c-2.29 3.82-4.43 7.3-4.73 11.93q-.72 11.03-.32 22.58a1.07 1.07 0 001.1 1.04zm22.39-29.39q-3.4-1.71-5.59-4.9a.32.31 21.9 00-.57.24c2.15 10.04 4.16 17.51 4.79 29.53a.54.53-1.1 00.54.51q1.27-.01 1.36-1.51.68-11.59-.03-23.11a.91.89-78.8 00-.5-.76zm14.85 50.88q.29-8.86-1.35-17.43l-.56-4.37a.43.42 72.9 00-.61-.33q-5.01 2.55-10.5 3.63a1.26 1.25-9.2 01-1.49-1.07c-.39-3.02-3.84-.79-5.66-.51a.41.41 0 01-.47-.42c.12-2.86-1.05-5.48-1.21-8.01q-.55-8.48-2.47-16.78-.11-.49-.12.02-.09 10-.01 20.03c.04 4.46-2.24 9.25-2.32 14.16q-.24 15.05 1.28 30.03a.72.72 0 00.55.63c1.36.34 2.81.08 4.09.46 6.02 1.82 11.1 3.65 17.49 3.09a1.22 1.22 0 001.1-1.01c.98-5.76 3.66-17.47 2.26-22.12zm19.91-10.86q2.02 9.64 5.66 18.61.99 3.59 2.93 6.85a1.25 1.24 81.9 00.75.57c4.97 1.32 11.92-2.23 18.33-5.19a.59.59 0 00.32-.7q-.91-3.22-3.06-5.84-15.27-18.55-30.42-37.27-.31-.39-.25.1 1.56 11.87 5.74 22.87zm-53.92 84.86c.4 3.38 27.41-.14 29.47-.48 4.96-.8 9.39-2.6 14.1-4.45 10.82-4.24 17.89-12.62 21.45-23.68a.4.39-72.3 00-.25-.5l-20.55-7.18a.94.93-50 00-.77.07q-5.09 2.9-10.91 3.01c-9.3.35-19.52-3.81-27.77-7.55-5.89-2.67-13.31-1.2-20.73-.51q-8.8.81-18.77-2.49c-4.17-1.38-7.83-4.5-11.84-6.74a.41.41 0 00-.59.23q-4.28 13.72 3.93 26.84 15.1 24.13 43.23 23.43z"/><path fill="#fff" d="M419.06 89.36q1.45 18.77.76 30.2-1.13 18.41-3.62 37.42a1.67 1.67 0 01-2.44 1.25c-1.97-1.06-4.08-1.59-6.08-3.06q-3.64-2.66-7.95-4.26a.38.38 0 00-.51.35q-.16 9.24 4.99 16.84a.43.42-11.1 01-.44.65l-29.04-5.84q3.99-7.55 9.42-14.39c3.22-4.06 4.72-9.78 6.09-14.68q7.47-26.7 28.82-44.48z"/><path fill="#96999b" d="M419.06 89.36l1.44 1.07a1.64 1.58 9.6 01.54.73q7.39 20.4 6.46 39.59c-.54 11.27-.37 19.55-2.05 29.25q-.69 3.96-4.16 6.07a1.58 1.58 0 01-2.19-.56c-2.72-4.68-8.56-6.33-12.92-9.4q-.41-.29-.32.2c1.46 8.02 5.61 12.15 8.6 18.77a1.54 1.54 0 01-2.11 2c-9.69-4.92-20.68-7.57-31.16-10.96-2.85-.92-3.96-.58-6.46-3.21l29.04 5.84a.43.42-11.1 00.44-.65q-5.15-7.6-4.99-16.84a.38.38 0 01.51-.35q4.31 1.6 7.95 4.26c2 1.47 4.11 2 6.08 3.06a1.67 1.67 0 002.44-1.25q2.49-19.01 3.62-37.42.69-11.43-.76-30.2z"/><path fill="#fff" d="M534.25 149.21l-1.19.06a1.44 1.42-66.4 00-.88.35c-7.29 6.25-14.02 12.29-22.35 17.62q-12.59 8.07-24.56 17.03c-8.76 6.55-9.71 14.27-13.59 23.73a.33.32-59 01-.5.13l-1.93-1.59q-5.24-5.51-10.55-10.96c-3.05-3.14-7.35-5.91-10.65-9.48a1.16 1.14 26.7 01-.3-.89l.42-3.91a.55.53-87.5 01.52-.49q8.83-.24 17.53-1.71.48-.08.05-.31-9.98-5.42-21.25-6.83a.77.77 0 01-.29-1.43c10.91-6.28 21.31-10.76 34.22-14.34 11.02-3.06 46.38-15.21 55.3-6.98z"/><path fill="#96999b" d="M534.25 149.21q.94 3.78-1.31 6.24-4.49 4.91-18.05 18.78c-7.99 8.17-18.76 16.1-24.11 26.74q-2.56 5.08-5.06 10.2c-2.25 4.6-4.77 11.75-7.98 17.33a.32.31 42.2 01-.53.02c-8.23-11.74-16.72-23.48-28.9-31.01a.58.58 0 01.52-1.04q10.46 4.16 19.49 10.78a.47.46-59.7 00.7-.19l.23-.52 1.93 1.59a.33.32-59 00.5-.13c3.88-9.46 4.83-17.18 13.59-23.73q11.97-8.96 24.56-17.03c8.33-5.33 15.06-11.37 22.35-17.62a1.44 1.42-66.4 01.88-.35l1.19-.06z"/><path fill="#fff" d="M319.84 157.68a.38.37 61.3 01-.2.69l-18.06.12a.78.77 36.8 01-.22-1.52c6.57-1.88 12.58-3.05 18.48.71zM368.56 161.64a.79.78 63.5 01-.49 1.47l-12.56-2.05q-1.36-.22-.04-.61 6.9-2.08 13.09 1.19z"/><path fill="#96999b" d="M389.03 301.74q-8.02-1.31-16.17-.43a.73.72-87.8 00-.63.59q-.05.25.02.56-33.41 4.46-57.06 4.44c-34.62-.03-63.95-2.5-95.95-4.84-9.73-.71-19.25-3.09-28.76-5.15-17.21-3.71-34.21-10.23-49.47-18.37q-1.27-.67-2-2.25-.22-.48.24-.23 8.85 4.73 18.56 7.41c19.95 5.52 38.98 11.57 59.74 13.5 13.62 1.27 27.33 3.36 41.02 3.48q39.88.37 49.86.9c5.38.29 11.05-.12 15.43-.01 18.11.47 35.4-2.02 53.35-3.68 16.44-1.52 32.21-4.84 48.2-7.79 17.52-3.22 34.49-10.37 50.34-18.36q1.76-.89 3.21-2.16a.41.41 0 00-.04-.65q-.82-.57-1.66-.25-5.78 2.18-11.21.23a1.78 1.7 48.6 00-.93-.08q-7.41 1.34-14.67-.65a1.03 1.03 0 01-.71-.66c-1.13-3.28-1.37-6.22-6.1-4.53a.81.8-19.1 01-1.04-.5c-1.24-3.75-4.4-4.94-7.26-7.1-3.94-2.99-8.87-3.51-13.6-3.8a1.94 1.89-24.3 01-.99-.36l-1.66-1.2a1.8 1.78-83.4 01-.58-.74q-2.57-6.08-8.6-8.75a1.6 1.59-2.3 01-.76-.7q-2.85-5.21-8.46-6.87c-.76-.22-2.17.09-2.5-.97a1.36 1.33-84.3 00-.62-.77l-2.09-1.17a1.18 1.17-81.4 01-.57-.78c-1.5-7.38-13.85-12.84-19.33-5.25a.55.55 0 01-.86.03c-3.61-4.29-6.85-3.33-11.51-2.9a.53.53 0 01-.57-.64c.7-3.2-.09-5.2-3.19-6.58q-10.71-4.75-21.92-.44a.89.87 52.8 01-.86-.13c-4.58-3.52-14.15-1.95-16.02 3.21a.69.69 0 01-.78.44c-9.36-1.84-18.93-1.2-26.6 4.74-4.6 3.55-13.84 13.99-14.06 19.96a.42.42 0 01-.51.39c-16.14-3.4-35-.71-38.03 18.83a1.11 1.11 0 001.72 1.09c3.92-2.7 17.88-9.16 21.35-3.72a.97.96 36.4 01.12.77l-2.12 8.28a.9.89 1.5 01-.69.65q-7.84 1.61-14.25 6.53a.86.86 0 01-.93.08l-1.32-.7q-.48-.25-1.02-.26-3.87-.04-7.5-1.2c-3.9-1.24-5.06-6.07-8.95-6.4q-10.78-.9-21.31 1.3-.49.11-.96-.04c-9.26-2.76-19.41 8.22-8.48 10.58 4.16.9 6.77-.8 10.48-1.4a1.68 1.67-36.1 01.99.15l7.63 3.82a.32.32 0 01.08.51q-7.04 7.04-17.23 4.71c-4.19-.96-11.24-2.3-13.94-5.95-4.45-6.03-10.17-4.17-16.27-2.08-8.63 2.97-21.88 1.12-28.33-5.46a1.66 1.64 73 00-.83-.45q-2.14-.46-1.73-2.53 4.43-22.18 18.96-40.64 5.69-7.23 9.57-11.1-1.12 5.19 1.9 8.17c6.38 6.32 19.19-3.14 14.2-9.79q-.29-.39-.37-.87c-.77-5.11-5.46-4.41-9.36-5.15q8.93-7.28 18.65-13.25 6.64-4.07 17.84-8.97c14.31-6.26 27.3-12.89 44.03-15.84 9.48-1.68 18.09-2.74 28.65-5.11 9.89-2.22 20.87-2.12 31.3-2.05 2.69.01 17.69-.92 18.86.07a1.14 1.14 0 00.85.26c10.21-1.09 22.54 1.17 32.55 3.33 3 .64 8.32 2.46 12.71 2.88a.26.26 0 01.02.52q-6.45.94-5.45 7.47a1.4 1.37 19.6 00.38.78c3.95 4.11 9.26 7.97 14.97 8.53 6.33.61 15.82-.82 12.79-10.12a.39.39 0 01.59-.45q3.09 2.07 6.67 3.4c7.99 2.96 15.32 7.05 22.91 10.86 6.12 3.07 10.93 7.13 16.32 11.23a.36.35 69.8 01-.29.63c-3.42-.76-5.04.72-7.58 2.67a.87.86 67.8 00-.33.79q1.54 11.63 11.76 16.98c5.7 2.99 9.24-2.46 11.01-6.86a.32.32 0 01.55-.07q13.89 18.63 23.41 39.74 1.37 3.04 1.95 12c.17 2.5-1.07 3.53-3.01 4.64-29.32 16.86-61.65 24.95-95.16 28.07zm-60.31-132.62c-2.97 2.22-2.38 5.43.52 7.43q9.61 6.64 19.91-.01a.89.89 0 00.4-.76q-.05-3.88-2.59-6.03-8.94-7.55-18.24-.63zm-60.53 7.82c-3.33 3.92.32 10.09 4.83 8.89q10.98-2.92 22.15-4.98c2.2-.41 4.12-1.47 5.93-2.62a1.44 1.41 83.3 00.58-.75c1.06-3.15-2.56-7.05-4.76-8.67-4.32-3.16-15.24-2.45-19.66.3q-5.12 3.2-9.07 7.83zm-15.63 9.75c-10.75-4.92-15.3 11.38-7.82 11.53 4.74.1 14.11-1.79 10.12-9.03q-1.06-1.94-2.3-2.5zm115.19 1.52c-6.51.97-7.96 6.19-4.27 11.18q2.14 2.89 5.06 4.99c4.68 3.36 25.74 10.02 25.79 1.39.01-2.41-3.13-5.63-3.9-8.61a1.86 1.72-77.2 00-.48-.83q-7.02-6.8-16.7-8.62-2.85-.97-5.5.5zm-52.21 3.83q-1.16 1.18-.68 3.14c1.31 5.4 4.47 7.62 10 8.41 4.85.7 14.19 1.91 16.59-3.84a.95.94 38.8 00-.1-.89c-6.01-8.7-16.09-16.8-25.81-6.82zm-32.5-.73c-6.79-.97-12.52 6.02-10.58 12.59 1.15 3.88 14.9 3.44 18.72 3.1 4.86-.43 7.53-6.02 2.63-9.1-3.29-2.06-7.19-6.08-10.77-6.59zm-52.57 9.24c-2.29-3.71-11.37-12.72-16.3-7.63-2.46 2.55-5.63 6.77-6 10.36-1.73 16.54 30.18 10.07 22.3-2.73zm186.07.62c-3.29.9-12.27 3.41-7.05 8.84 3.23 3.36 12.84 9.56 17.4 5.98q1.46-1.15 1.56-3.47c.27-6.72-4.63-13.35-11.91-11.35zm-169.92 36.34q3.17.29 6.87-2.06c1.42-.9 13.72-8.29 9.3-10.7 2.83-11.32-7.76-15.1-15.97-10.4-2.53 1.45-4.45 4.17-6.47 6.46-2.68 3.03-3.03 5.46-.99 8.86a.35.34-21.4 01-.23.51c-7.19 1.48-14.74 5.74-13.53 14.3a.3.29-19.1 00.44.21q8.58-5.19 18.7-4.94a1.15 1.13-68.3 00.87-.38q.72-.82 1.01-1.86zm172.08-12.15c-1.17 6.61 8.73 15.78 13.87 18.74 5.17 2.97 9.28 4.51 14.66 1.77a1.57 1.57 0 00.84-1.12c1.65-8.57-1.34-16.45-8.95-20.56-3.28-1.77-5.51-3.77-9.59-3.07q-5.3.9-10.09 3.26a1.35 1.35 0 00-.74.98zm-206.52 28.37c11.7-11.4-13.18-11.12-10.11-1.81 1.46 4.43 7.1 4.74 10.11 1.81z"/><path fill="#fff" d="M244.95 165.59q1.64.34.05.87l-17.46 5.75q-.87.28-.3-.43 6.78-8.42 17.71-6.19z"/><path d="M328.72 169.12q9.3-6.92 18.24.63 2.54 2.15 2.59 6.03a.89.89 0 01-.4.76q-10.3 6.65-19.91.01c-2.9-2-3.49-5.21-.52-7.43zm9.28 6.59q4.01.96 7.51-1.02a.54.54 0 00.21-.72q-.92-1.78-2.93-2.47c-3.05-3.27-8.81-1.59-11.71.88a.44.43 44.6 00.01.66q3.01 2.56 6.91 2.67z"/><path fill="#fff" d="M432 167.29q1.86 1.89 4.53 1.95a.49.49 0 01.48.48q.27 7.63-4.78 13.12a.95.95 0 01-.98.26q-6.24-1.95-11.53-5.76a1.14 1.14 0 01-.46-.83l-.05-.76 5.54-6.29q2-.55 2.75-2.42 2.31-1.73 4.5.25z"/><path d="M268.19 176.94q3.95-4.63 9.07-7.83c4.42-2.75 15.34-3.46 19.66-.3 2.2 1.62 5.82 5.52 4.76 8.67a1.44 1.41 83.3 01-.58.75c-1.81 1.15-3.73 2.21-5.93 2.62q-11.17 2.06-22.15 4.98c-4.51 1.2-8.16-4.97-4.83-8.89zm11.56 3.02q8.59-.96 17.25-3.89a.64.63 64.2 00.33-.95l-2.17-3.34q-7.42-2.8-14.24-.48c-2.48.85-11.37 7.14-10.06 10.33a.6.59 71.5 00.7.36l8.19-2.03z"/><path fill="#96999b" d="M427.5 167.04q-.75 1.87-2.75 2.42l2.75-2.42zM432 167.29l5.92 1.12a2.53 2.52 5.5 012.06 2.49c-.01 4.88-.7 14.1-3.46 18.11a.57.55-57.2 01-.74.17c-5.23-3.09-10.98-6.97-16.7-8.94a1.02 1 89.8 01-.63-.64q-.7-2.07.76-3.85l.05.76a1.14 1.14 0 00.46.83q5.29 3.81 11.53 5.76a.95.95 0 00.98-.26q5.05-5.49 4.78-13.12a.49.49 0 00-.48-.48q-2.67-.06-4.53-1.95z"/><path fill="#fff" d="M342.79 171.5q-2.93 1.52-4.79 4.21-3.9-.11-6.91-2.67a.44.43 44.6 01-.01-.66c2.9-2.47 8.66-4.15 11.71-.88zM295.16 171.78q-5.18 1.37-7 2.61-4.17 2.84-8.41 5.57l-8.19 2.03a.6.59 71.5 01-.7-.36c-1.31-3.19 7.58-9.48 10.06-10.33q6.82-2.32 14.24.48z"/><path fill="#96999b" d="M342.79 171.5q2.01.69 2.93 2.47a.54.54 0 01-.21.72q-3.5 1.98-7.51 1.02 1.86-2.69 4.79-4.21zM295.16 171.78l2.17 3.34a.64.63 64.2 01-.33.95q-8.66 2.93-17.25 3.89 4.24-2.73 8.41-5.57 1.82-1.24 7-2.61z"/><path fill="#fff" d="M392.04 177q.58 4.39-2.04 7.71c-4.43-.1-11.91-2.79-14.28-7.5a.69.68-34.6 01.15-.81c3.27-3.03 12.9-.78 16.17.6z"/><path fill="#96999b" d="M392.04 177q3.42.76 4.94 3.4a2 2 0 01-.7 2.71q-2.94 1.77-6.28 1.6 2.62-3.32 2.04-7.71z"/><path fill="#fff" d="M195.42 186.29a.24.24 0 01-.05.37l-11.43 6.58a.8.8 0 01-1.18-.53c-.76-3.44 1.34-6.19 4.52-7.97 3.29-1.83 5.7-.92 8.14 1.55z"/><path d="M252.56 186.69q1.24.56 2.3 2.5c3.99 7.24-5.38 9.13-10.12 9.03-7.48-.15-2.93-16.45 7.82-11.53zm-.93 6.07c1.78-4.74-6.25-4.77-7.03 1.3a.5.5 0 00.45.56q3.13.29 5.93-1.13a1.4 1.37 87.2 00.65-.73z"/><path fill="#21201f" d="M373.25 187.71l-5.5.5q2.65-1.47 5.5-.5z"/><path d="M315.54 192.04c9.72-9.98 19.8-1.88 25.81 6.82a.95.94 38.8 01.1.89c-2.4 5.75-11.74 4.54-16.59 3.84-5.53-.79-8.69-3.01-10-8.41q-.48-1.96.68-3.14zm3.29 2.27a1.27 1.27 0 00-.22 1.41c2.89 6.14 10.42 4.32 15.78 3.48a1.08 1.08 0 00.65-1.76c-4.51-5.32-9.81-10.02-16.21-3.13zM373.25 187.71q9.68 1.82 16.7 8.62a1.86 1.72-77.2 01.48.83c.77 2.98 3.91 6.2 3.9 8.61-.05 8.63-21.11 1.97-25.79-1.39q-2.92-2.1-5.06-4.99c-3.69-4.99-2.24-10.21 4.27-11.18l5.5-.5zm-7.54 5.04q-1.02.57-1.15 1.61a1.29 1.27-61.5 00.26.91l.39.48q2.91 4.71 8.04 6.79.92 1.79 3 1.42c2.57.65 7.92 2.66 10.23 1.26a1.39 1.35 85.5 00.6-.73q2-5.65-3.29-7.99c-4.63-4.07-12.18-7.51-18.08-3.75z"/><path fill="#fff" d="M244.6 194.06c.78-6.07 8.81-6.04 7.03-1.3a1.4 1.37 87.2 01-.65.73q-2.8 1.42-5.93 1.13a.5.5 0 01-.45-.56zM318.83 194.31c6.4-6.89 11.7-2.19 16.21 3.13a1.08 1.08 0 01-.65 1.76c-5.36.84-12.89 2.66-15.78-3.48a1.27 1.27 0 01.22-1.41zM383.79 196.5q-.45 7.63-8.04 6.54l-2.5-.5q-5.13-2.08-8.04-6.79l.5-3c5.9-3.76 13.45-.32 18.08 3.75z"/><path d="M272.46 203.9c-1.94-6.57 3.79-13.56 10.58-12.59 3.58.51 7.48 4.53 10.77 6.59 4.9 3.08 2.23 8.67-2.63 9.1-3.82.34-17.57.78-18.72-3.1zm10.79-1.44c2.97.09 5.96-1.69 3.54-4.96-4.33-4.86-11.61-1.99-10.66 4.51a.69.68-89.5 00.57.59q3.37.59 6.55-.14z"/><path fill="#21201f" d="M214.17 192.92c4.93-5.09 14.01 3.92 16.3 7.63 7.88 12.8-24.03 19.27-22.3 2.73.37-3.59 3.54-7.81 6-10.36zm3.33 14.29q5.22-1.15 8-5.55a1.1 1.1 0 00.13-.9q-.67-2.25-2.84-3.26c-2.33-1.72-5.56-3.22-7.41-.39-2.1 3.2-6.03 8.89-1.13 11.24a1.07 1.07 0 00.92 0l2.33-1.14z"/><path fill="#96999b" d="M365.71 192.75l-.5 3-.39-.48a1.29 1.27-61.5 01-.26-.91q.13-1.04 1.15-1.61z"/><path fill="#fff" d="M286.79 197.5l-.04.29a.51.49-5.5 01-.33.38q-2.16.8-2.12 3.22a.86.85 76.3 01-.47.78l-.58.29q-3.18.73-6.55.14a.69.68-89.5 01-.57-.59c-.95-6.5 6.33-9.37 10.66-4.51zM222.79 197.5c-.21.53-.48 1.08-.95 1.45q-4.01 3.11-4.34 8.26l-2.33 1.14a1.07 1.07 0 01-.92 0c-4.9-2.35-.97-8.04 1.13-11.24 1.85-2.83 5.08-1.33 7.41.39z"/><path fill="#96999b" d="M383.79 196.5q5.29 2.34 3.29 7.99a1.39 1.35 85.5 01-.6.73c-2.31 1.4-7.66-.61-10.23-1.26l-.5-.92q7.59 1.09 8.04-6.54zM222.79 197.5q2.17 1.01 2.84 3.26a1.1 1.1 0 01-.13.9q-2.78 4.4-8 5.55.33-5.15 4.34-8.26c.47-.37.74-.92.95-1.45zM286.79 197.5c2.42 3.27-.57 5.05-3.54 4.96l.58-.29a.86.85 76.3 00.47-.78q-.04-2.42 2.12-3.22a.51.49-5.5 00.33-.38l.04-.29z"/><path d="M409.49 210.01c-5.22-5.43 3.76-7.94 7.05-8.84 7.28-2 12.18 4.63 11.91 11.35q-.1 2.32-1.56 3.47c-4.56 3.58-14.17-2.62-17.4-5.98zm11.51 2.78q1.88 1.17 3.96.56a.7.69-8.5 00.5-.66q.02-1.73-.92-3.19c-1.48-5.01-7.93-6.96-11.84-3.19a1.37 1.36-43.3 00-.06 1.91q3.3 3.59 8.36 4.57z"/><path fill="#21201f" d="M373.25 202.54l2.5.5.5.92q-2.08.37-3-1.42z"/><path fill="#fff" d="M424.54 209.5c.04 2.18-1.08 4.26-3.54 3.29q-5.06-.98-8.36-4.57a1.37 1.36-43.3 01.06-1.91c3.91-3.77 10.36-1.82 11.84 3.19zM457 213.07l-4.26 4.2q-.34.34-.59.75l-1.4 2.27q-6.24-3.29-8.39-10.41a1.95 1.94-12.5 011.59-2.49q7.8-1.1 13.05 5.68z"/><path fill="#96999b" d="M424.54 209.5q.94 1.46.92 3.19a.7.69-8.5 01-.5.66q-2.08.61-3.96-.56c2.46.97 3.58-1.11 3.54-3.29z"/><path d="M172.08 209.61c3.9.74 8.59.04 9.36 5.15q.08.48.37.87c4.99 6.65-7.82 16.11-14.2 9.79q-3.02-2.98-1.9-8.17 2.33-4.61 6.37-7.64zm5 4.51c-9.28-5.2-11.08 6.1-5.76 8.99a1.12 1.1 48.3 00.9.06q5.4-1.98 5.53-7.88a1.3 1.3 0 00-.67-1.17z"/><path fill="#21201f" d="M262.79 224.75c-2.27 6.67-10.37 10.26-16.17 12.76q-.29 1.04-1.01 1.86a1.15 1.13-68.3 01-.87.38q-10.12-.25-18.7 4.94a.3.29-19.1 01-.44-.21c-1.21-8.56 6.34-12.82 13.53-14.3a.35.34-21.4 00.23-.51c-2.04-3.4-1.69-5.83.99-8.86 2.02-2.29 3.94-5.01 6.47-6.46 8.21-4.7 18.8-.92 15.97 10.4zm-17.89 5.03c4.5.69 10.41-4.95 14.17-7.36a.9.9 0 00.42-.78l-.03-1.64c.46-4.07-4.5-4.16-7.18-3.77-4.5.67-9.01 5.94-11.32 9.6a.92.9 48 00-.04.89q1.15 2.23 3.98 3.06z"/><path fill="#fff" d="M177.08 214.12a1.3 1.3 0 01.67 1.17q-.13 5.9-5.53 7.88a1.12 1.1 48.3 01-.9-.06c-5.32-2.89-3.52-14.19 5.76-8.99z"/><path fill="#96999b" d="M457 213.07c.6 3.88-.67 10.35-6.25 7.22l1.4-2.27q.25-.41.59-.75l4.26-4.2z"/><path fill="#fff" d="M334 215.29q.74 2.75 0 5.5l-.43.17a1.04 1.01 45.7 01-.8-.02q-3.98-1.73-7.29-4.55a.34.33-34.1 01.11-.57q4.13-1.48 8.41-.53z"/><path fill="#96999b" d="M334 215.29q3.19 1.16 3.69 4.47a.69.69 0 01-.39.73q-1.57.73-3.3.3.74-2.75 0-5.5z"/><path fill="#fff" d="M259.46 220c-8.18-.57-9.13 5.75-14.56 9.78q-2.83-.83-3.98-3.06a.92.9 48 01.04-.89c2.31-3.66 6.82-8.93 11.32-9.6 2.68-.39 7.64-.3 7.18 3.77zM154.56 218.94a.83.82-62.1 01.39 1.3l-7.05 9.03a.4.4 0 01-.64-.01c-3.95-5.38.36-12.6 7.3-10.32z"/><path fill="#96999b" d="M259.46 220l.03 1.64a.9.9 0 01-.42.78c-3.76 2.41-9.67 8.05-14.17 7.36 5.43-4.03 6.38-10.35 14.56-9.78z"/><path d="M418.7 225.36a1.35 1.35 0 01.74-.98q4.79-2.36 10.09-3.26c4.08-.7 6.31 1.3 9.59 3.07 7.61 4.11 10.6 11.99 8.95 20.56a1.57 1.57 0 01-.84 1.12c-5.38 2.74-9.49 1.2-14.66-1.77-5.14-2.96-15.04-12.13-13.87-18.74zm13.05 14.43q5.37 3.92 11.98 3.81a.66.65 3 00.64-.57q.61-4.98-1.08-9.53c-.88-3.84-6.5-6.7-9.68-8.02-3.15-1.31-6.41-.18-9.61.68a1.48 1.48 0 00-1 1.96q2.59 6.78 8.75 11.67z"/><path fill="#fff" d="M379.46 224.61q4.71-3.01 7.75 1.45a.82.82 0 01-.82 1.26l-6.63-1.19a.83.83 0 01-.3-1.52z"/><path fill="#fbfde0" d="M262.79 224.75c4.42 2.41-7.88 9.8-9.3 10.7q-3.7 2.35-6.87 2.06c5.8-2.5 13.9-6.09 16.17-12.76z"/><path fill="#fff" d="M443.29 233.5l-1.72 5.74q-.54 1.8-2.4 1.55l-7.42-1q-6.16-4.89-8.75-11.67a1.48 1.48 0 011-1.96c3.2-.86 6.46-1.99 9.61-.68 3.18 1.32 8.8 4.18 9.68 8.02z"/><path fill="#96999b" d="M443.29 233.5q1.69 4.55 1.08 9.53a.66.65 3 01-.64.57q-6.61.11-11.98-3.81l7.42 1q1.86.25 2.4-1.55l1.72-5.74zM296.81 247.63q5.79-4.85 12.21-5.65 10.74-1.36 18.62-5.66a.32.31 73.6 01.47.26c.5 9.08-6.52 14.05-14.8 14.79-2.52.22-14.2.87-16.63-2.98a.58.58 0 01.13-.76z"/><path fill="#21201f" d="M202.07 251.92c-3.07-9.31 21.81-9.59 10.11 1.81-3.01 2.93-8.65 2.62-10.11-1.81z"/><path fill="#fbfde0" d="M389.03 301.74l-16.78.72q-.07-.31-.02-.56a.73.72-87.8 01.63-.59q8.15-.88 16.17.43z"/><path fill="#fff" d="M291.5 320.79c5.86 3.33 12.17 6.29 17.18 10.33q5.48 4.43 10.32 9.59-19.93 3.58-37.55-7.16c-7.9-4.82-7.37-9.48-6.74-17.78a.42.41 11.1 01.54-.36l16.25 5.38z"/><path fill="#96999b" d="M291.5 320.79q16.82 2.27 32.79 7.92c2.58.91 5.14 2.65 7.7 3.79a1.25 1.24 41.4 01.14 2.2q-3.12 1.91-5.85 3.86c-2.32 1.65-4.6 1.82-7.28 2.15q-4.84-5.16-10.32-9.59c-5.01-4.04-11.32-7-17.18-10.33z"/><path fill="#fff" d="M280.04 339c-1.6 3.08-3.13 6.19-6.82 6.96a.61.59 84.1 00-.47.59v3.01a.73.72 79.5 01-.46.68q-.44.17-.83-.24l1.07-16.44q.03-.5.42-.19l7.09 5.63z"/><path fill="#96999b" d="M353.21 377.25l-.46-.52q-1.05-1.21-.73.36c.19.95 1.34 6.72 2.31 6.68a.45.45 0 00.42-.4l.04-.37 3.07 10.77a.85.83 61.3 01-.23.83c-3.31 3.09-7.09 3.42-10.58 4.61-6.63 2.25-14.16 3.85-20.35-.1q-2.84-1.81-6.2-2.37a.37.37 0 01-.27-.54q5.73-10.24 9-21.52a.57.57 0 00-.7-.71l-.99.28c-1.82-10.84-16.44-8.89-15.75.7q.65 9.07 9.67 8.05c-7.47 8.18-16.03 19.59-27.79 21.15q-14.04 1.87-26.97-3.88c-3.75-1.67-4.1-4.45-3.18-8.32q4.93-20.79 7.94-41.95.39.41.83.24a.73.72 79.5 00.46-.68v-3.01a.61.59 84.1 01.47-.59c3.69-.77 5.22-3.88 6.82-6.96 4.07 1.39 7.46 3.86 11.39 5.45 6.3 2.55 15.02 1.97 21.82 1.98 10.4.03 15.95-3.8 24.59-9.26a.89.89 0 01.87-.05c2.93 1.49 7.59 4.62 8.22 8.05q2.93 16.08 6.28 32.08zm-21.74-19.48c10.93 8.12 14.7-11.72 7.54-14.02-8.65-2.78-15.27 8.28-7.54 14.02zm-24.025-.716a6.54 6.54 0 00-7.827-4.928l-1.755.399a6.54 6.54 0 00-4.928 7.826l.58 2.555a6.54 6.54 0 007.827 4.928l1.755-.399a6.54 6.54 0 004.928-7.826l-.58-2.555zm-36.505 6.136c-1.08.24.86 6.33 1.31 7.04 4.33 6.91 13.23 1.83 11.87-5.7-1.05-5.85-11.56-5.82-13.18-1.34zm15.065 21.753a7.99 7.57-23.9 00-10.372-3.684 7.99 7.57-23.9 00-4.238 10.158 7.99 7.57-23.9 0010.372 3.684 7.99 7.57-23.9 004.238-10.158zm65.125 6.547l.43-.31a.57.56 53.1 00.11-.8c-1.83-2.41 1.25-6.08-3.67-6.9-9.55-1.61-9.92 13.5-3.9 13.62q5.54.11 6.61-4.96a1.04 1.04 0 01.42-.65z"/><path fill="#fff" d="M331.47 357.77c-7.73-5.74-1.11-16.8 7.54-14.02 7.16 2.3 3.39 22.14-7.54 14.02z"/><rect fill="#fff" x="-7.44" y="-7.85" transform="rotate(-12.8 1754.887 -1159.43)" width="14.88" height="15.7" rx="6.54"/><path fill="#fff" d="M270.94 363.19c1.62-4.48 12.13-4.51 13.18 1.34 1.36 7.53-7.54 12.61-11.87 5.7-.45-.71-2.39-6.8-1.31-7.04zM327.54 374.25q-1.7 5.26-6.08 8.75-9.02 1.02-9.67-8.05c-.69-9.59 13.93-11.54 15.75-.7z"/><path fill="#fbfde0" d="M353.21 377.25l1.58 5.75-.04.37a.45.45 0 01-.42.4c-.97.04-2.12-5.73-2.31-6.68q-.32-1.57.73-.36l.46.52z"/><ellipse fill="#fff" transform="rotate(-23.9 1056.406 -464.325)" rx="7.99" ry="7.57"/><path fill="#fff" d="M350.71 392.14q-1.07 5.07-6.61 4.96c-6.02-.12-5.65-15.23 3.9-13.62 4.92.82 1.84 4.49 3.67 6.9a.57.56 53.1 01-.11.8l-.43.31a1.04 1.04 0 00-.42.65z"/><path fill="#96999b" d="M350.87 403.92l1.93-.49a.44.44 0 01.55.43l.07 5.06a1.24 1.24 0 01-.42.93l-1.36 1.16q-.89.76-.98-.4l-.46-5.75a.9.9 0 01.67-.94zM299.1 407.76c1.05-.33 3.6-.05 2.82 1.83a1.34 1.33 88.9 01-.68.71q-4.29 1.98-7.75 5.15a1.71 1.71 0 01-.94.44c-8.89 1.15-17.14-1.18-25.46-3.25a1.22 1.22 0 01-.92-1.3l.44-5.03a.52.52 0 01.63-.46q.71.16 1.16.71a1.67 1.63 77.7 00.79.52c10.13 2.88 19.66 3.85 29.91.68zM309.32 418.18c-4.24-5.02-1.32-10.59 5.2-9.91a1.06 1.06 0 01.95 1.04l.05 6.46a1.42 1.41-24.5 01-.35.93q-1.95 2.23-4.91 1.96a1.41 1.39-17.6 01-.94-.48zM379.71 455.5q-1-.03-1.7-.71a1.44 1.44 0 00-.86-.4q-1.32-.13-2.19.86l-.25-.15a.81.81 0 01-.33-.39q-6.23-14.9-13.9-29.11-1.61-3-3.21-8.12-.48-1.54-2.28-1.51a.43.42-10 01-.42-.29l-.1-.26a.1.09 75.9 01.07-.12q1.9-.48 3.05-2.05a.72.71 26.5 01.79-.26q3.74 1.17 4.93 4.45 7.68 21.17 16.4 38.06zM321.44 417.06q-1.61-1.12-1.14-3.47a.46.45 26 01.75-.25l1.76 1.52q.31.26.7.37 9.34 2.56 14.92 10.43a1.25 1.24 36.2 01.17 1.08l-2.88 9.3a.64.63-73 01-.78.42c-3.4-1.03-16.07-11.62-15.28-14.81q.13-.52.43-.08c2.14 3.23 4.87 4.23 7.33 6.83 6.04 6.39 10.27-2.22 3.98-5.47q-5.98-3.09-9.96-5.87zM290.39 441.68c-3.94-1.8-6.83-6.58-5.87-10.98 1.27-5.81 11.84-12.59 16.63-15.27a.53.53 0 01.67.79q-5.17 6.38-10.88 12.2c-2.35 2.4-3.32 4.72-.74 7.32a1.46 1.46 0 002.2-.16q2-2.67 3.87-5.11c2.81-3.67 4.64-7.94 7.15-11.97a.39.39 0 01.71.3c-1.12 4.25-6.04 26.39-13.74 22.88z"/><path fill="#96999b" d="M305.79 474q-.42-.3-.87-.3a.81.8-78.3 00-.74.49c-1.27 2.88-1.29 6.09-2.03 8.68q-1.25 4.35-2.4 8.74c-.64 2.46-.54 5.73-1.69 8.61a.76.76 0 01-.69.47q-3.95.09-5.99 2.98c-1.21 1.72-.8 3.93-1.88 6.04-11.94.29-21.57-6.98-32.95-9.22-6.2-1.22-13.83-1.94-19.99-.18-4.9 1.4-8.45.3-10.67-4.37a1.04 1.02-44.4 01.02-.92l13.05-25.27c5.17-.68 8.37-7.55 9.54-11.6a1.56 1.54 42.9 00-.04-.97l-1.57-4.16a1.14 1.13 48.8 01.06-.95q4.42-8.07 6.42-16.98-.09-2.79 1.08-4.6 5.04.7 7.1-3.65 1.7-3.57.4-8.32l3.28-.91a1.6 1.56-41.7 01.92.04q8.93 3.19 18.41 3.98a.53.52 32.6 01.22.98c-7.63 4.29-7.73 11.96-2.31 18.16q5.73 6.55 14.83 8.17a.6.6 0 01.5.58c.1 4.64-.83 16.03 1.81 19.57a1.03 1.02 71.3 00.82.41h5.78a.5.49 90 01.49.5q.01 2.12-.91 4zm-37.671-14.217a8.96 7.37 95.9 008.252-8.155 8.96 7.37 95.9 00-6.41-9.67 8.96 7.37 95.9 00-8.252 8.154 8.96 7.37 95.9 006.41 9.67zm2.221 19.157c.54 6.81 9.67 6.77 13.86 4.35 3.34-1.93 3.3-4.65 2.58-8.05-2.34-11.03-17.27-6.69-16.44 3.7zm-9.968 8.833a9.4 8.42-2.3 00-9.73-8.036 9.4 8.42-2.3 00-9.054 8.79 9.4 8.42-2.3 009.73 8.036 9.4 8.42-2.3 009.054-8.79z"/><path fill="#fff" d="M261.95 418.52q1.3 4.75-.4 8.32-2.06 4.35-7.1 3.65 1.44-7.74 7.5-11.97z"/><path fill="#96999b" d="M303.98 466.26a1.07 1.07 0 01-1.1-1.04q-.4-11.55.32-22.58c.3-4.63 2.44-8.11 4.73-11.93q.26-.43.26.07-.19 14.9-.08 29.71.02 2.53-.25 5.02a.75.75 0 01-.73.67l-3.15.08zM326.37 436.87a.91.89-78.8 01.5.76q.71 11.52.03 23.11-.09 1.5-1.36 1.51a.54.53-1.1 01-.54-.51c-.63-12.02-2.64-19.49-4.79-29.53a.32.31 21.9 01.57-.24q2.19 3.19 5.59 4.9z"/><path fill="#fff" d="M253.37 435.09q-2 8.91-6.42 16.98a1.14 1.13 48.8 00-.06.95l1.57 4.16a1.56 1.54 42.9 01.04.97c-1.17 4.05-4.37 10.92-9.54 11.6l14.41-34.66z"/><path fill="#96999b" d="M339.87 470.32q-5.14 1.35-6.56 6.69-.74 2.76.78 5.42 2.5 4.37 7.13 5.32c1.4 4.65-1.28 16.36-2.26 22.12a1.22 1.22 0 01-1.1 1.01c-6.39.56-11.47-1.27-17.49-3.09-1.28-.38-2.73-.12-4.09-.46a.72.72 0 01-.55-.63q-1.52-14.98-1.28-30.03c.08-4.91 2.36-9.7 2.32-14.16q-.08-10.03.01-20.03.01-.51.12-.02 1.92 8.3 2.47 16.78c.16 2.53 1.33 5.15 1.21 8.01a.41.41 0 00.47.42c1.82-.28 5.27-2.51 5.66.51a1.26 1.25-9.2 001.49 1.07q5.49-1.08 10.5-3.63a.43.42 72.9 01.61.33l.56 4.37zm-6.126 28.276a5.97 5.97 0 00-6.653-5.198l-2.322.285a5.97 5.97 0 00-5.198 6.653l.205 1.668a5.97 5.97 0 006.653 5.198l2.322-.285a5.97 5.97 0 005.198-6.653l-.205-1.668z"/><ellipse fill="#fff" transform="rotate(95.9 -68.82 346.77)" rx="8.96" ry="7.37"/><path fill="#96999b" d="M366.79 495.5l.44.01a.31.31 0 00.29-.41q-.11-.3 0-.56c1.87-4.36 1.27-7.68-1.84-11.48q-2.43-2.97-4.55-6.17-4.18-11-5.74-22.87-.06-.49.25-.1 15.15 18.72 30.42 37.27 2.15 2.62 3.06 5.84a.59.59 0 01-.32.7c-6.41 2.96-13.36 6.51-18.33 5.19a1.25 1.24 81.9 01-.75-.57q-1.94-3.26-2.93-6.85z"/><path fill="#fff" d="M379.71 455.5l4.07 7.98q.19 3.02-2.03 4.31-3.95-5.97-6.79-12.54.87-.99 2.19-.86a1.44 1.44 0 01.86.4q.7.68 1.7.71z"/><path fill="#96999b" d="M383.78 463.48q6.95 13.04 16.61 24.29a1 1 0 01-.51 1.61c-4.68 1.2-15.99-17.76-18.13-21.59q2.22-1.29 2.03-4.31z"/><path fill="#fff" d="M284.2 483.29c-4.19 2.42-13.32 2.46-13.86-4.35-.83-10.39 14.1-14.73 16.44-3.7.72 3.4.76 6.12-2.58 8.05zM339.87 470.32q1.64 8.57 1.35 17.43-4.63-.95-7.13-5.32-1.52-2.66-.78-5.42 1.42-5.34 6.56-6.69zM305.79 474l-8.19 34.52a.81.81 0 01-.6.61q-3.67.94-7.5.58c1.08-2.11.67-4.32 1.88-6.04q2.04-2.89 5.99-2.98a.76.76 0 00.69-.47c1.15-2.88 1.05-6.15 1.69-8.61q1.15-4.39 2.4-8.74c.74-2.59.76-5.8 2.03-8.68a.81.8-78.3 01.74-.49q.45 0 .87.3zM366.79 495.5q-3.64-8.97-5.66-18.61 2.12 3.2 4.55 6.17c3.11 3.8 3.71 7.12 1.84 11.48q-.11.26 0 .56a.31.31 0 01-.29.41l-.44-.01z"/><ellipse fill="#fff" transform="rotate(-2.3 12284.263 -6007.3)" rx="9.4" ry="8.42"/><rect fill="#fff" x="-7.14" y="-6.81" transform="rotate(-7 4253.296 -2421.09)" width="14.28" height="13.62" rx="5.97"/><path fill="#fff" d="M339.75 528.54l.32.16a.49.49 0 01.25.6c-3.73 10.39-5.94 17.82-14.64 24.65-4.97 3.89-12.2 5.74-18.47 7.8q-28.13.7-43.23-23.43-8.21-13.12-3.93-26.84a.41.41 0 01.59-.23c4.01 2.24 7.67 5.36 11.84 6.74q9.97 3.3 18.77 2.49c7.42-.69 14.84-2.16 20.73.51 8.25 3.74 18.47 7.9 27.77 7.55z"/><path fill="#96999b" d="M307.21 561.75c6.27-2.06 13.5-3.91 18.47-7.8 8.7-6.83 10.91-14.26 14.64-24.65a.49.49 0 00-.25-.6l-.32-.16q5.82-.11 10.91-3.01a.94.93-50 01.77-.07l20.55 7.18a.4.39-72.3 01.25.5c-3.56 11.06-10.63 19.44-21.45 23.68-4.71 1.85-9.14 3.65-14.1 4.45-2.06.34-29.07 3.86-29.47.48z"/><path fill="#fff" d="M590.29 589.75l.71.31v.94h-1.06l-.19-.71.54-.54z"/><path fill="#fbfde0" d="M589.75 590.29l.19.71h-244q-2.5-.63-5 0h-2.5q-2.75-.63-5.5 0H9.19q-4-.63-8 0h-.5q-.27-.17-.37-.39a.4.39 78.5 01.36-.55l589.07.23z"/><path fill="#21201f" d="M9.19 591h-8q4-.63 8 0zM338.44 591h-5.5q2.75-.63 5.5 0z"/><path fill="#96999b" d="M345.94 591h-5q2.5-.63 5 0z"/></svg>