<svg xmlns="http://www.w3.org/2000/svg" viewBox="0 0 591 591"><g stroke-width="2" fill="none"><path stroke="#0f0f0e" vector-effect="non-scaling-stroke" d="M590.06 0l-.02.25"/><path stroke="#494a4b" vector-effect="non-scaling-stroke" d="M590.04.25l.25 3.75"/><path stroke="#0f0f0e" vector-effect="non-scaling-stroke" d="M590.29 4v1"/><path stroke="#494a4b" vector-effect="non-scaling-stroke" d="M590.29 5l-.04 584.71"/><path stroke="#585858" vector-effect="non-scaling-stroke" d="M590.25 589.71l-.46.32a1.18 1.16 27.1 01-.67.21q-291.53.02-583.06-.02-3.03 0-6.06-.28"/><path stroke="#7e7f70" vector-effect="non-scaling-stroke" d="M585.5 5.52a.26.26 0 00-.26-.26H5.5a.26.26 0 00-.26.26v579.72a.26.26 0 00.26.26h579.74a.26.26 0 00.26-.26V5.52"/><path stroke="#676666" vector-effect="non-scaling-stroke" d="M591 590.06l-.29-.31"/><path stroke="#585959" vector-effect="non-scaling-stroke" d="M590.71 589.75l-.02-584.56a.15.15 0 00-.13-.15l-.27-.04M590.29 4q1.37-2.04-.25-3.75"/><path stroke="#a1a2a3" vector-effect="non-scaling-stroke" d="M590.71 589.75l-.46-.04"/><path stroke="#fcf2c8" vector-effect="non-scaling-stroke" d="M28.99 30.98c-3.36 3.12-5.56 7.53-5.55 12.03.03 15.05-1.05 31.44.54 46.33a.75.73-86.7 00.56.64q1.36.35 2.67-1.03Q47.58 67.57 85.7 28.7q1.33-1.36 2.22-2.98a.79.79 0 00-.68-1.17q-18.52-.27-36.97.42c-9.37.34-15.19.36-21.28 6.01"/><path stroke="#d6d6c8" vector-effect="non-scaling-stroke" d="M151.182 65.768a1.25.97 86.7 00.896-1.304 1.25.97 86.7 00-1.04-1.192 1.25.97 86.7 00-.896 1.304 1.25.97 86.7 001.04 1.192"/><path stroke="#c7c9bb" vector-effect="non-scaling-stroke" d="M254.79 238.25q1.67-1.36 2.1-2.07 9.98-16.5 2.3-34.27c-2.33-5.41-7.76-8.6-12.52-11.59a.39.38 39.7 01-.06-.61c14.55-13.24 13.33-36.91-6.55-44.29a1.37 1.34-88.8 01-.81-.86c-8.16-26.62-35.75-32-59.21-24.16-2.84.94-5.32 1.89-8.48 1.83-17.73-.34-34.6 12.02-43.08 26.71-8.5 14.71-7.54 31.77.6 46.48a.59.59 0 01-.19.78q-7.2 4.67-10.07 12.71a.87.87 0 01-.65.57c-19.19 3.93-30.69 11.74-40.17 28.99-8.84 16.1-6.14 31.79 4.66 46.31 1.27 1.71 2.83 2.46 4.6 3.5a1.29 1.28 6.5 01.58.72c9.48 29.53 42.91 25.14 51.58-1.51q.16-.47.25.02c1.39 7.78 5.18 14.32 9.36 21.53.43.74.73 2.66.76 3.49q.59 14.01.71 28.04 0 .49.18.96l.36.97"/><path stroke="#8d8d7e" vector-effect="non-scaling-stroke" d="M151.04 342.5l-4.27 6.28a1.55 1.53 60.5 00-.26.95q.86 16.07.43 32.16a1.75 1.71-28.7 01-.27.89q-17.2 27.01-33.33 54.67c-2.53 4.34-6.23 7.45-7.89 13.04a.23.22-2.6 01-.15.16l-.34.12a.38.37 81.7 00-.26.36l.09 7.62"/><path stroke="#d6d6c8" vector-effect="non-scaling-stroke" d="M104.79 458.75V487"/><path stroke="#8d8d7e" vector-effect="non-scaling-stroke" d="M104.79 487l-.22 2.98a1.37 1.34 70.2 01-.39.85c-1.92 1.9-.51 3.27-.02 5.09q4.28 16.13 4.4 33.17a.38.38 0 00.41.38l6.03-.51"/><path stroke="#c7c9bb" vector-effect="non-scaling-stroke" d="M115 528.96q29.21-2.33 38.25-2.23 18.08.22 25.5 1.26 23.13 3.22 33 4.03c5.35.43 12.17-1.51 16.75-1.87q9.34-.75 18.7-.26c6.7.36 14.02 2.02 21.02 3.2 2.96.5 7.35-2.08 10.38-2.83 19.69-4.86 57.86-15.57 65.74 12.1a.7.69-25.8 001.07.37c16.56-11.83 34.41-20.09 55.34-18.51q8.39.63 14.71 4.28"/><path stroke="#8d8d7e" vector-effect="non-scaling-stroke" d="M415.46 528.5q2.76 2.55 6.25 4.06.47.2.4-.3-.29-2.22-.36-6.26c-.43-25.23-1.83-50.89.73-76.01.45-4.36 4.6-12.64 6.39-17.65 8.01-22.41 19.9-42.97 31.73-63.53 1.81-3.15 4.81-5.9 6.8-9.38a1.56 1.56 0 00.19-.92c-1.74-17.69-7.8-37.24-18.46-51.41q-5.96-7.93-12.18-15.21a2.58 2.58 0 01-.61-1.64l-.29-23.93a1.55 1.5 64.7 01.32-.94l2.39-3.01a1.48 1.48 0 00.33-.96c-.22-13.29.97-26.67.46-39.68q-1.03-26.48-.64-52.98c.05-3.38 6.69-4.89 9.33-4.96q12.64-.34 25.27-.55a1.7 1.69-62.8 00.93-.3c3.7-2.48 7.19-11.57 9.52-16.83a.64.64 0 01.71-.37q8.29 1.5 16.66.13c2.2-.36 10.02-2.69 6.95-6.16-1.55-1.76-2.99-.54-4.86-1.03a.34.33-67.4 01-.2-.5l.45-.75a.62.62 0 00-.47-.93l-8.8-.87a1.69 1.65 33.5 00-.94.18q-5.95 3.09-13.89 2.57c-14.49-.94-27.25-2.41-40.22-7.46q-9.87-3.85-20.13-6.81a.62.61-79.6 01-.44-.64c.43-5.53 3.51-29.82-7.61-30.25-9.42-.37-10.81 6.23-11.7 14.43q-.75 6.8-2.44 13.49a.7.69-84.2 01-.63.52c-6.92.37-13.5.48-20.58 1.39-13.15 1.68-25.04 1.31-39.16.27-4.14-.31-10.91-1.7-16.6-1.43a1.13 1.09 66.1 01-.84-.34c-2.87-2.97-7.85-3.66-12.73-4.48q-3.59-.6-4.55 2.1a.62.61 17.5 01-.74.38q-3.89-1.11-7.8-.03a.55.55 0 00-.33.81l2.82 4.78a1.57 1.53-3.3 00.74.64q9.75 4.08 18.11 3.71c4.32-.19 8.39-.05 10.65 4 3.84 6.91 8.18 14.84 13.71 20.52a.88.88 0 00.84.24c7.43-1.84 16.2.08 23.87.5a1.86 1.8-24.6 01.97.34q6.31 4.41 13.68 6.68a.74.74 0 01.52.71l.14 37.05a.41.4-1.4 00.43.4c2.71-.13 2.59 4.08 4.04 6.66a1.52 1.48 35.2 01.17.93c-.95 7.07-1.63 14.36 1.57 21.21.66 1.43 1.13 2.95 1.15 4.3.27 17.07-1.22 36.97-1.24 58.96a.65.64 83.2 01-.49.63q-3.51.9-8.07 2.59-40.89 15.23-78.38 35.1a.36.36 0 01-.53-.31l-.82-26.78a.74.74 0 01.6-.75l2.79-.54a.67.66 84.9 00.54-.66l-.18-11.46a.49.49 0 00-.65-.45l-2.37.84a.47.47 0 01-.62-.35q-.45-2.11-.48-6.32-.33-38.42-2.51-104.52a.72.72 0 00-.49-.67c-1.12-.39-3.05-.13-2.22 1.57q.22.44.21.94-1.14 54.17.08 108.35a.57.57 0 01-.57.58l-2.87-.01a1.26 1.25-.9 00-1.26 1.29l.34 11.13a.61.61 0 00.62.59l2.68-.01a1.15 1.15 0 011.15 1.15l.01 29.74a.79.78 76 01-.41.69q-8.56 4.65-17.19 9.31c-3.78 2.04-11.91.52-16.13-.1a.63.62-88.3 01-.53-.57c-2.37-34.93-2.43-69.74-2.7-104.71"/><path stroke="#585959" vector-effect="non-scaling-stroke" d="M415.46 528.5q.63-2.49.08-5"/><path stroke="#676666" vector-effect="non-scaling-stroke" d="M415.54 523.5l-.1-11.47a.51.51 0 00-.53-.51l-3.02.08"/><path stroke="#585959" vector-effect="non-scaling-stroke" d="M411.89 511.6l-9.6.09"/><path stroke="#676666" vector-effect="non-scaling-stroke" d="M402.29 511.69l-45.29.35"/><path stroke="#585959" vector-effect="non-scaling-stroke" d="M357 512.04q-36.54.26-73.02 2.16c-16.78.87-33.82 1-50.73 1.84"/><path stroke="#676666" vector-effect="non-scaling-stroke" d="M233.25 516.04q-14.53.54-29.03 1.5c-15.32 1.01-30.67 1.07-46.01 1.79"/><path stroke="#585959" vector-effect="non-scaling-stroke" d="M158.21 519.33l-41.78 2.37a1.26 1.25 89.5 00-1.17 1.2l-.26 6.06"/><path stroke="#676666" vector-effect="non-scaling-stroke" d="M104.79 487q1.62-14.13 0-28.25"/><path stroke="#585959" vector-effect="non-scaling-stroke" d="M151.04 342.5l2.71-2.46"/><path stroke="#676666" vector-effect="non-scaling-stroke" d="M153.75 340.04q3.74-2.7 7.39-2.76a1.69 1.69 0 001.66-1.75l-.49-15.67a1.87 1.79-29.8 01.32-1.09q5.71-8.36 15.81-9.99a.58.57-4.3 00.48-.55q.23-9.99-.07-19.98-.15-4.78 3.59-8.3 5.42-5.09 11.5-7.69"/><path stroke="#585959" vector-effect="non-scaling-stroke" d="M193.94 272.26l12.39-.86a.5.5 0 00.47-.53c-.44-9.37-1.42-20.33-.38-29.61a1.41 1.39-18.7 01.43-.85q13.62-12.84 32.63-11.3"/><path stroke="#676666" vector-effect="non-scaling-stroke" d="M239.48 229.11q7.57 1.27 13.52 5.68"/><path stroke="#585959" vector-effect="non-scaling-stroke" d="M253 234.79q1.67 1.34 1.79 3.46"/><path stroke="#a1a2a3" vector-effect="non-scaling-stroke" d="M411.89 511.6q.57 1.26 1.88 1.97a.83.82 14.9 01.43.74l-.17 8.69a.81.8 14.3 00.44.73q.49.25 1.07-.23M158.21 519.33q.93 2.06 4.29 1.67 4.3-.5 18.03-.77a1.18 1.17-67.1 00.78-.32q1.11-1.06 2.28-.31a1.75 1.73-30 001.03.27l48.05-2.91a.65.65 0 00.59-.5q.04-.2-.01-.42M253 234.79q.5-.27.67-.6a.72.71-57.4 00-.19-.88q-6.28-4.92-14-4.2M193.94 272.26q-9.1 1.45-14.81 8.46c-1.82 2.25-1.83 7.69-1.5 10.54q.96 8.22.22 16.49a.5.5 0 01-.54.45c-4.82-.36-13.75 5.27-15.73 9.63-1.7 3.76-.5 13.03-.39 17.4a.63.62 82.5 01-.47.62c-1.63.39-7.45 1.74-7.69 3.71a.39.39 0 00.35.44l.37.04M402.29 511.69q-6.63 1.52-13.36 1.41c-11.23-.18-22.37.4-33.59.4a.34.34 0 01-.34-.34v-.3a.55.54-5.1 01.45-.53l1.55-.29"/><path stroke="#fefef0" vector-effect="non-scaling-stroke" d="M499.209 245.912a1.15.68-38.6 00-1.323.187 1.15.68-38.6 00-.475 1.249 1.15.68-38.6 001.323-.187 1.15.68-38.6 00.475-1.249"/><path stroke="#8f8e8e" vector-effect="non-scaling-stroke" d="M413.95 100.24c.01-2.87-2.9-3.04-5.12-2.67a.6.59-6.1 00-.5.61c.05 1.11 4.12 1.86 5.15 2.36a.33.33 0 00.47-.3M409.6 102.93q-1.07 2.42 1.15 3.61.97.52.81-.56l-.4-2.83a.82.82 0 00-1.56-.22"/><path stroke="#585959" vector-effect="non-scaling-stroke" d="M412.35 111.77q1.68.6.86-.99l-.74-1.42a.71.69 65.9 00-.86-.34l-.79.28a.64.64 0 00-.33.94q.66 1.1 1.86 1.53"/><path stroke="#676666" vector-effect="non-scaling-stroke" d="M385.2 126.57a.32.32 0 00-.23.52l5.32 6.36a.32.32 0 00.55-.13l1.64-6.77a.32.32 0 00-.33-.4l-6.95.42"/><path stroke="#8f8e8e" vector-effect="non-scaling-stroke" d="M375.43 127.03q-1.09-.36-2.12.24-.83.49.1.72l2.95.75q.53.14.99.43l5.96 3.68q1.2.74.24-.28l-5.05-5.41a.95.94 62.6 00-.87-.28l-1.13.22q-.54.11-1.07-.07"/><path stroke="#585959" vector-effect="non-scaling-stroke" d="M413.15 141.92q-.98 1.05-2.51.96-.5-.03-.96.17c-1.55.66-5.26-.51-5.31 1.42a.83.83 0 00.66.84l8.48 1.74a1 .99-61.4 00.93-.28c5.3-5.48 6.98-9.32 4.5-16.88a1.31 1.31 0 00-2.17-.53c-3.06 3.01-8.48 8.01-9.8 11.85a.35.35 0 00.35.46l5.61-.23q.69-.03.22.48M425.21 165.18c.13 23.42-.85 41.75-.36 62.68a.95.95 0 00.38.72l8.18 5.99q1.6 1.17 1.4-.81c-2.52-25.45-2.96-51.09-3.69-76.65-.04-1.26.5-2.85.18-4.18-1.46-6.16-.89-13.89-.91-20.27a.56.56 0 00-.45-.55q-3.25-.61-6.1-2.29a.72.72 0 00-1.08.72c.86 6.25 1.92 12.15 1.99 18.67.06 5.33.44 11.05.46 15.97M436 145.21q.75-2.91-.29-5.71"/><path stroke="#676666" vector-effect="non-scaling-stroke" d="M435.71 139.5l.58-3.22a.83.82-71.3 00-.44-.9l-2.9-1.51a.8.79-.1 00-1.07 1.07c2.35 4.49.93 10.24 2.23 14.9.54 1.91-.12 4.07 0 5.54q.55 6.49 1.17 12.71a.35.35 0 00.69 0c.62-6.12-.14-11.74.15-17.72q.13-2.58-.12-5.16"/><path stroke="#a1a2a3" vector-effect="non-scaling-stroke" d="M435.71 139.5c-2.88.99-1.05 4.15.29 5.71"/><path stroke="#676666" vector-effect="non-scaling-stroke" d="M440.16 144.02a.33.33 0 00.55.24l5.95-5.17a.33.33 0 00-.11-.56l-6.16-2.24a.33.33 0 00-.45.32l.22 7.41"/><path stroke="#8f8e8e" vector-effect="non-scaling-stroke" d="M458.02 140.94c-3.83.04-6.54 5.55-10.41 8.28q-.46.32.1.29c2.56-.16 8.32-5.99 10.59-7.78a.44.44 0 00-.28-.79"/><path stroke="#676666" vector-effect="non-scaling-stroke" d="M416.94 157.56l.34-1.52q.24-1.09-.7-.48-3.13 2.01-6.93 1.34-2.4-.43-.28.78 3.42 1.97 7.31 2.81a.4.4 0 00.48-.45l-.25-1.68q-.06-.4.03-.8M416.36 165.08q-7.25-3.06-14.12-6.09a.37.37 0 00-.35.64q6.7 4.36 13.93 7.7a1.03 1.02-60.3 001.27-.35q.85-1.24-.73-1.9M388.74 172.25c-.32 7.12-.44 14.13-.59 21.56q-.09 4.14 3.4 5.17a.43.42-83.8 00.54-.44q-1-13.21-3.08-26.3-.21-1.28-.27.01"/><path stroke="#585959" vector-effect="non-scaling-stroke" d="M416.04 204.77c.65-5.27.51-11.8.29-15.62a1.74 1.72-65.9 00-.37-.98q-6.24-7.92-13.43-15a.43.43 0 00-.71.44q5.25 16.38 13.84 31.24.3.52.38-.08"/><path stroke="#676666" vector-effect="non-scaling-stroke" d="M409.44 212.06q2.22 7.42 6.11 14.13.34.58.51-.07.54-2-.2-3.46-1.77-3.51-6.18-10.71-.52-.84-.24.11M405.21 228.5c2.71 6.5 8.39 11.93 14.86 14.67q.47.2.14-.19-10.92-13.06-17.48-28.79-.2-.47-.18.04.24 8.48 2.66 14.27M409.68 284.77l2.29-.99a.92.91-11.8 00.56-.84c.01-12.22-1.68-24.46-2.23-36.69q-.04-.79-1.04-.92a.39.38 3.3 00-.43.38l.24 38.65a.44.44 0 00.61.41M416.92 282.08l2.15-.01a.69.68-.8 00.69-.7q-.43-16.3-2.7-32.45a.24.24 0 00-.47.01c-.95 9.93.34 21.46.62 30.36q.02.53-.23 1l-.52 1.03a.52.52 0 00.46.76M428 283.21l1.73 2.36a.32.32 0 00.58-.19l-.1-22.38"/><path stroke="#585959" vector-effect="non-scaling-stroke" d="M430.21 263c1.3-5.61-2.82-8.81-7.54-10.86a.39.38-73.4 00-.54.3q-.24 1.63.01 4.13.81 8.35 1.13 21.41a1.75 1.72-63.7 00.3.91q1.78 2.58 4.43 4.32"/><path stroke="#a1a2a3" vector-effect="non-scaling-stroke" d="M430.21 263q-.52-.12-1.02.02a.69.69 0 00-.49.67l.42 16.41c.04 1.44-.53 1.9-1.12 3.11"/><path stroke="#585959" vector-effect="non-scaling-stroke" d="M217.79 339.25q11.19-.94 22.48-.36a.72.71-88.4 01.68.73l-.05 3.24a.44.43-.6 00.46.44l9.05-.34a.51.5-1.7 00.5-.52l-.2-6.44"/><path stroke="#676666" vector-effect="non-scaling-stroke" d="M250.71 336q-1.46-28.76-1.99-57.57c-.13-6.71-8.45-10.36-14.23-10.43-8.4-.11-21.36 1.71-21.27 11q.3 33.25.28 66.94a.45.45 0 00.86.2l3.43-6.89"/><path stroke="#a1a2a3" vector-effect="non-scaling-stroke" d="M250.71 336q-.21.83-.86.81a.55.54 1.6 01-.53-.55q.09-5.31-.64-15.51c-.84-11.54-.53-29.81-1.81-44.76a1.81 1.79-66.5 00-.35-.9c-7.76-10.03-23.26-6.34-31.5.99a1.12 1.1 69.4 00-.37.83c-.03 19.53-.18 40.44.67 60.57a.84.83-77.9 00.45.71l2.02 1.06"/><path stroke="#676666" vector-effect="non-scaling-stroke" d="M416.25 290.29c-62.94 17.48-117.31 45.02-174.06 80.15q-9.31 5.77-17.02 11.76c-14.74 11.47-29.81 22.41-44.21 34.3"/><path stroke="#585959" vector-effect="non-scaling-stroke" d="M180.96 416.5l-1.04.53a.73.72 52.2 01-.83-.11q-.71-.66-.97-1.57"/><path stroke="#676666" vector-effect="non-scaling-stroke" d="M178.12 415.35q.57-6.79-.13-13.31-.06-.6-.46-.15l-2.57 2.86"/><path stroke="#585959" vector-effect="non-scaling-stroke" d="M174.96 404.75q-8.43 9.17-16.6 18.58c-1.79 2.07-4.43 4.37-6.36 6.81-8.92 11.28-20.12 19.04-27 30.11"/><path stroke="#676666" vector-effect="non-scaling-stroke" d="M125 460.25q-7.63 6.13-12.29 14.75"/><path stroke="#8f8e8e" vector-effect="non-scaling-stroke" d="M112.71 475l-1 1.75"/><path stroke="#676666" vector-effect="non-scaling-stroke" d="M111.71 476.75q-.81 3.08-.03 6.34.12.5.48.13 4.97-5.03 13.84-11.97c.92-.72 1.31-2.09 2.67-2.96q2.87-1.84 4.62-4.79"/><path stroke="#585959" vector-effect="non-scaling-stroke" d="M133.29 463.5q2.56-.22 3.54-2.57a1.7 1.6-6.8 01.61-.73c2.42-1.63 4.26-4.02 6.38-5.61q4.95-3.71 9.5-7.9c1.21-1.12 2.87-1.99 4.18-3.15"/><path stroke="#676666" vector-effect="non-scaling-stroke" d="M157.5 443.54c22.72-17.77 47.01-36.21 69.69-50.86 16.49-10.64 40.36-24.44 64.1-36.87 22.54-11.82 47.17-21.45 70.75-31.06"/><path stroke="#585959" vector-effect="non-scaling-stroke" d="M362.04 324.75q20.83-7.79 42.25-13.75"/><path stroke="#676666" vector-effect="non-scaling-stroke" d="M404.29 311l17.79-4.81a.67.66 83 00.49-.63l.14-13.06"/><path stroke="#585959" vector-effect="non-scaling-stroke" d="M422.71 292.5l-.02-3.93a.36.36 0 00-.48-.34l-5.96 2.06"/><path stroke="#a1a2a3" vector-effect="non-scaling-stroke" d="M422.71 292.5q-.42-.53-.93-.56a.53.52-87 00-.57.52l-.14 12.06a.73.72-8.8 01-.51.69q-6.07 1.92-15.32 4.01-1.35.3-.95 1.78M362.04 324.75q-.32-1.49-1.54-1-6.55 2.63-10.98 4.27c-11.61 4.31-22.69 9.68-34.41 13.8-1.79.63-3.12 2.1-4.69 2.83q-10.4 4.83-20.77 9.7c-1.08.51-2.21 1.64-3.2 2.11q-6.66 3.11-13.21 6.42c-11.16 5.65-22.04 13.12-33.02 19.57-3.97 2.33-8.09 5.42-12.31 7.93-1.54.92-2.54 2.33-3.97 3.31-5.19 3.53-11.29 7.51-17.56 10.33-2.05.92-4.62 3.53-5.78 4.35q-4.02 2.81-7.57 6.19c-1.36 1.29-3.23 1.61-4.35 3.51a1.76 1.75-88.6 01-.68.65c-2.84 1.53-6.41 3.76-8.41 6.32q-.42.54-1.18.64a1.67 1.66-68.3 00-.87.38q-7.74 6.39-16.25 11.72-1.03.64-.87 1.63a.85.85 0 01-.32.81q-.6.46-1.22.09a.64.64 0 00-.81.11q-1.37 1.46-.57 3.12M133.29 463.5q.71-1.14.39-2.34-.13-.53-.4-.05c-.36.68-2.08 4.06-2.87 3.93a.48.48 0 01-.38-.61l.68-2.18"/><path stroke="#c9caca" vector-effect="non-scaling-stroke" d="M130.71 462.25q-.28-2.76.66-5.33a.52.52 0 00-.31-.67c-.97-.33-2.7 1.94-3.34 2.66a1.38 1.34-24.2 00-.35.88l-.08 5.96"/><path stroke="#a1a2a3" vector-effect="non-scaling-stroke" d="M127.29 465.75c-.38 1.11-.96 4.96-3.04 3.71"/><path stroke="#c9caca" vector-effect="non-scaling-stroke" d="M124.25 469.46l1.63-3.24a1.1 1.08-43.1 00.04-.91q-.87-2.18.07-4.28a.58.58 0 00-.32-.77q-.34-.13-.67-.01"/><path stroke="#a1a2a3" vector-effect="non-scaling-stroke" d="M174.96 404.75q.33 2.02 1.54 3.56a1.08 1.04-59.2 01.2.87q-.73 3.5 1.42 6.17M180.96 416.5q.24.78 1.03 1.09a.66.66 0 00.78-.23c1.93-2.58 4.82-3.55 6.8-5.28 9.72-8.47 20.45-15.99 30.75-23.75 5.86-4.42 11.85-10.36 18.48-13.99 7.62-4.17 14.55-9.29 22.52-12.78q2.18-.95 4.24-2.44c9.88-7.11 20.48-12.67 31.04-18.68q3.86-2.2 7.61-3.85 16.03-7.09 31.49-15.31c10.02-5.33 19.75-8.21 28.69-12.25q2.37-1.07 5.5-1.97c3.53-1.02 6.62-3.67 9.84-3.6q.5.01.95-.21 3.84-1.84 7.33-2.72c3.61-.92 28.83-7.66 28.24-10.24"/><path stroke="#d7d7d8" vector-effect="non-scaling-stroke" d="M130.71 462.25l-3.42 3.5M125 460.25q-.1 2.86-2.39 4.25a.74.72 75 00-.35.63l.07 5.63q.01.45.34.15l1.58-1.45M111.71 476.75q-.16 1.71.36 3.32a.55.54 72.1 00.68.35c2.2-.69 3.01-5.06-.04-5.42"/><path stroke="#585959" vector-effect="non-scaling-stroke" d="M427.29 307.75q-.3 1.78.19 3.48"/><path stroke="#8f8e8e" vector-effect="non-scaling-stroke" d="M427.48 311.23q-2.21 12.13-2.19 24.27"/><path stroke="#585959" vector-effect="non-scaling-stroke" d="M425.29 335.5c-2.35 29.47-4.23 61.45-3.06 92.24q.02.58.27.06l5.21-10.8"/><path stroke="#676666" vector-effect="non-scaling-stroke" d="M427.71 417q5.37-11.7 14.98-28.81 4.77-8.5 7.6-12.44"/><path stroke="#585959" vector-effect="non-scaling-stroke" d="M450.29 375.75l7.64-11.16"/><path stroke="#8f8e8e" vector-effect="non-scaling-stroke" d="M457.93 364.59l3.45-5.29a1.35 1.34 57.3 00.2-.94c-1.96-12.74-4.76-27.43-11.5-38.68q-8.91-14.86-20.65-27.28a.37.37 0 00-.64.24c-.11 2.22-2.04 14.33-1.5 15.11"/><path stroke="#c9caca" vector-effect="non-scaling-stroke" d="M457.93 364.59q-1.35-1.45-1.48-3.36c-.62-9.27-7.38-22.62-11.53-31.05-1.65-3.35-13.98-24.16-17.63-22.43"/><path stroke="#a1a2a3" vector-effect="non-scaling-stroke" d="M450.29 375.75q-.12-.63-.55-.99a.54.54 0 00-.76.08q-1.82 2.3-2.84 5.03c-1.48 3.96-4.4 6.79-6.24 10.58q-2.7 5.58-3.57 7.02c-3.78 6.25-7.77 11.29-9.55 18.89a.57.56-76.1 00.4.67q.26.07.53-.03"/><path stroke="#c9caca" vector-effect="non-scaling-stroke" d="M425.29 335.5q1.11.26 1.23-.75 1.36-10.98.96-23.52"/><path stroke="#676666" vector-effect="non-scaling-stroke" d="M201 301.71c-7.86 1.96-16.17 5.65-15.79 15.04q.74 17.97 1.36 36a.41.41 0 00.46.4l20.93-2.06a.77.77 0 00.69-.87c-1.27-9.35-.96-18.81-1.19-28.22"/><path stroke="#585959" vector-effect="non-scaling-stroke" d="M207.46 322l-.3-19.73a1.01.99 4.5 00-.84-.97q-2.46-.39-5.32.41"/><path stroke="#a1a2a3" vector-effect="non-scaling-stroke" d="M207.46 322q-.3-.42-.64-.46a.53.53 0 00-.59.5q-.58 11.1-.3 22.22.05 1.91.49 2.88a1.66 1.65 74.9 01-1.34 2.33l-15.94 1.64a.56.56 0 01-.61-.5q-1.3-11.6-.13-23.19c.29-2.91 0-5.76.14-8.76a1.86 1.83 33.6 00-.2-.95c-5.51-10.63 14.53-13.57 12.66-16"/><path stroke="#585959" vector-effect="non-scaling-stroke" d="M169.62 339.39c-2.14 2.85-1.03 11.73-.64 15.27a.5.49-5.3 00.54.44l10.53-.8a.59.59 0 00.54-.59l-.22-19.62q-.02-2.43-2.23-1.41-5.35 2.49-8.52 6.71"/><path stroke="#676666" vector-effect="non-scaling-stroke" d="M211.75 356.54q-10.67.34-21.25 1.75"/><path stroke="#585959" vector-effect="non-scaling-stroke" d="M190.5 358.29l-17 1.75"/><path stroke="#676666" vector-effect="non-scaling-stroke" d="M173.5 360.04l-1.19.02a.52.51-89.4 00-.51.51q-.26 13.22.49 26.43"/><path stroke="#585959" vector-effect="non-scaling-stroke" d="M172.29 387l.22 10.3a.54.54 0 00.92.38q2.11-2.05 3.98-4.99c2.74-4.32 5.82-.21 5.88 3.06"/><path stroke="#8f8e8e" vector-effect="non-scaling-stroke" d="M183.29 395.75l-.04 7.54"/><path stroke="#585959" vector-effect="non-scaling-stroke" d="M183.25 403.29c.01.57-.62 5.2.4 5.59a.74.73 29.8 00.82-.22c5.26-6.4 11.73-10.32 17.78-15.87"/><path stroke="#8f8e8e" vector-effect="non-scaling-stroke" d="M202.25 392.79l5-3.83"/><path stroke="#585959" vector-effect="non-scaling-stroke" d="M207.25 388.96l3.29-2.46"/><path stroke="#676666" vector-effect="non-scaling-stroke" d="M210.54 386.5L229 371.54"/><path stroke="#8f8e8e" vector-effect="non-scaling-stroke" d="M229 371.54l4.25-2.83"/><path stroke="#585959" vector-effect="non-scaling-stroke" d="M233.25 368.71l2.1-1.47"/><path stroke="#8f8e8e" vector-effect="non-scaling-stroke" d="M235.35 367.24l16.9-10.78"/><path stroke="#585959" vector-effect="non-scaling-stroke" d="M252.25 356.46l13.33-7.44q.72-.4-.11-.43l-28.61-1.08a.72.72 0 01-.68-.66l-.24-3.41a.68.68 0 00-.69-.63l-11.91.14a2.46 2.45 9.3 00-2.29 1.64c-1.51 4.3-3.29 13.12-9.3 11.95"/><path stroke="#c9caca" vector-effect="non-scaling-stroke" d="M252.25 356.46l.06-.41a.29.28 8.7 00-.25-.33c-1.02-.1-7.24 4.12-8.8 5.18q-.84.57-3.67 1.74-3.07 1.26-4.24 4.6M233.25 368.71l.26-4.89a.6.6 0 00-.61-.63l-7.61.2a.7.7 0 00-.68.66l-.4 6.7"/><path stroke="#a1a2a3" vector-effect="non-scaling-stroke" d="M224.21 370.75q-1.54 1.43-1.11 3.29a.87.87 0 01-.23.83q-4.98 5.05-11.13 8.62-1.34.77-1.2 3.01"/><path stroke="#c9caca" vector-effect="non-scaling-stroke" d="M207.25 388.96q-.86-2.51-.35-5.29a.38.38 0 00-.46-.44l-5.37 1.14a.58.58 0 00-.45.61c.14 1.73-.71 7.87 1.63 7.81M183.25 403.29l.41-.24a.9.9 0 00.45-.78l.05-6.54a.27.27 0 00-.4-.24l-.47.26"/><path stroke="#a1a2a3" vector-effect="non-scaling-stroke" d="M172.29 387q2.68.77 2.46-1.25-1.73-15.51-1.25-25.71M190.5 358.29q-.24.29-.26.62a.47.47 0 00.5.51c1.37-.1 7.54.03 8.07-.5a1.35 1.3 19.4 01.83-.38c1.46-.13 13.48-.96 13.58-1.44a.26.25 4.5 00-.26-.3q-.66.04-1.21-.26"/><path stroke="#d7d7d8" vector-effect="non-scaling-stroke" d="M229 371.54q-2.57.33-4.79-.79"/><path stroke="#585959" vector-effect="non-scaling-stroke" d="M375.25 378.21l3.04-1.21"/><path stroke="#676666" vector-effect="non-scaling-stroke" d="M378.29 377c6.84-3.92 2.62-20.45-6.72-18.67-10.23 1.95-4.22 21.05 3.68 19.88"/><path stroke="#a1a2a3" vector-effect="non-scaling-stroke" d="M378.29 377c-.38-.87.26-1.19.43-1.64q3.43-9.03-3.59-15.6a1.32 1.32 0 00-.88-.36c-11.5-.19-4.12 18.04.64 18.14a.36.36 0 01.36.37v.3"/><path stroke="#676666" vector-effect="non-scaling-stroke" d="M151.89 373a.34.34 0 00.63.22l8.02-12.99a.34.34 0 00-.48-.46l-6.89 4.72a.34.34 0 00-.14.24l-1.14 8.27"/><path stroke="#585959" vector-effect="non-scaling-stroke" d="M150.46 387.75c-2.35 3.56-4.16 7.09-6.84 10.53-4.06 5.21-7.2 11.47-10.5 16.43q-2.34 3.51-4.7 7c-1.9 2.83-2.49 5.89-4.7 8.74q-6.77 8.76-12.61 18.19"/><path stroke="#8f8e8e" vector-effect="non-scaling-stroke" d="M111.11 448.64q-1.45 3.89.12 7.58.16.37.38.03l1.68-2.5"/><path stroke="#585959" vector-effect="non-scaling-stroke" d="M113.29 453.75l3.67-5.25"/><path stroke="#8f8e8e" vector-effect="non-scaling-stroke" d="M116.96 448.5l1.33-1.75"/><path stroke="#585959" vector-effect="non-scaling-stroke" d="M118.29 446.75l3.17-4"/><path stroke="#8f8e8e" vector-effect="non-scaling-stroke" d="M121.46 442.75l3.04-3.29"/><path stroke="#585959" vector-effect="non-scaling-stroke" d="M124.5 439.46l8.96-12.21"/><path stroke="#8f8e8e" vector-effect="non-scaling-stroke" d="M133.46 427.25l2.33-3.25"/><path stroke="#585959" vector-effect="non-scaling-stroke" d="M135.79 424q2.28-2.3 3.04-4.58"/><path stroke="#8f8e8e" vector-effect="non-scaling-stroke" d="M138.83 419.42l1.96-2.67"/><path stroke="#585959" vector-effect="non-scaling-stroke" d="M140.79 416.75c8.74-9.32 16.35-19.16 24.21-29.21"/><path stroke="#676666" vector-effect="non-scaling-stroke" d="M165 387.54c2.62-6.46 1.49-16.11 1.5-23.66a.51.51 0 00-.94-.27l-15.1 24.14"/><path stroke="#a1a2a3" vector-effect="non-scaling-stroke" d="M165 387.54q-.29.05-.56-.07a.63.62-72.4 01-.37-.72q.97-4.08 1.35-8.24c.08-.84-.32-10.2-.86-10.35a.52.51-75.6 00-.63.38q-.67 2.56-2.61 4.14c-2.78 2.27-2.74 5.2-4.27 8.06q-1.86 3.48-3.01 7.26"/><path stroke="#d7d7d8" vector-effect="non-scaling-stroke" d="M154.04 388l-.15-.25a.29.28-30 00-.4-.1q-1.46.88-1.95 2.6"/><path stroke="#a1a2a3" vector-effect="non-scaling-stroke" d="M151.54 390.25l-1.08-2.5"/><path stroke="#c9caca" vector-effect="non-scaling-stroke" d="M140.79 416.75q-.84-3.7-.35-7.48a.42.42 0 00-.77-.29q-3.2 4.99-.84 10.44M135.79 424l.15-.92a1.66 1.59-52.5 00-.1-.9q-.89-2.12-.28-4.32.29-1.04-.49-.3-4.1 3.93-1.61 9.69M124.5 439.46l.7-3.35a1.77 1.71-49.1 00-.05-.88q-.3-.91-.44-1.78-.16-1.08-.86-.24l-3.61 4.35a.65.65 0 00.11.93q1.61 1.22.19 2.67a.96.95 59 00-.23.94q.27.9 1.15.65M118.29 446.75q-.87-2.32-.67-4.97.06-.89-.5-.2-2.31 2.8-2.09 6.49a.94.93-81.8 00.61.82q.65.23 1.32-.39M113.29 453.75c-.36-1.83.49-5.3-2.18-5.11M151.54 390.25q-1.08 5.48-.32 11.12.24 1.75.63.03.43-1.93 1.95-3.19a1.15 1.14 70.1 00.42-.91l-.18-9.3"/><path stroke="#8f8e8e" vector-effect="non-scaling-stroke" d="M268.212 397.061a2.79 2.5 51.1 00.194-3.74 2.79 2.5 51.1 00-3.698-.602 2.79 2.5 51.1 00-.194 3.74 2.79 2.5 51.1 003.698.602M162.5 400.21l-2.54 3.54"/><path stroke="#585959" vector-effect="non-scaling-stroke" d="M159.96 403.75c-5.85 4.74-10.18 11.66-15.33 17.68q-3.89 4.56-8.23 10.51-6.73 9.21-15.34 18.61-3.63 3.96-7.06 9.91"/><path stroke="#8f8e8e" vector-effect="non-scaling-stroke" d="M114 460.46c-.88 1.35-3.75 5.66-2.81 7.15a.39.38 48.2 00.62.04c4.86-6.07 10.12-11.77 14.73-18.03 1.68-2.28 4.22-3.43 5.17-6.19"/><path stroke="#585959" vector-effect="non-scaling-stroke" d="M131.71 443.43q1-.43 1.36-1.72"/><path stroke="#8f8e8e" vector-effect="non-scaling-stroke" d="M133.07 441.71q2.61-1.07 3.72-3.21"/><path stroke="#585959" vector-effect="non-scaling-stroke" d="M136.79 438.5l2.21-2.46"/><path stroke="#8f8e8e" vector-effect="non-scaling-stroke" d="M139 436.04l2.04-2.29"/><path stroke="#585959" vector-effect="non-scaling-stroke" d="M141.04 433.75l3.46-3.71"/><path stroke="#8f8e8e" vector-effect="non-scaling-stroke" d="M144.5 430.04l3.04-3.04"/><path stroke="#585959" vector-effect="non-scaling-stroke" d="M147.54 427q2.3-1.87 3.67-4.5"/><path stroke="#8f8e8e" vector-effect="non-scaling-stroke" d="M151.21 422.5l3.08-3.25"/><path stroke="#585959" vector-effect="non-scaling-stroke" d="M154.29 419.25l4.67-5"/><path stroke="#8f8e8e" vector-effect="non-scaling-stroke" d="M158.96 414.25l4.83-6"/><path stroke="#676666" vector-effect="non-scaling-stroke" d="M163.79 408.25c.76-.71 5-4.31 3.83-5.32a.91.9 21 01-.32-.71l.15-7.79a.26.26 0 00-.46-.16l-4.49 5.94"/><path stroke="#d7d7d8" vector-effect="non-scaling-stroke" d="M163.79 408.25q-.48-3.15-.29-7.5.03-.79-1-.54"/><path stroke="#c9caca" vector-effect="non-scaling-stroke" d="M158.96 414.25l-.62-.65a1.39 1.39 0 01-.39-.86q-.45-4.83 2.01-8.99M154.29 419.25q.74-2.87-.54-5.31a.37.37 0 00-.6-.08q-3.31 3.59-1.94 8.64M147.54 427l-.06-3.19a.38.37-10.7 00-.51-.34q-4.43 1.71-2.47 6.57M141.04 433.75l-.94-2.13q-.33-.75-.63.02l-1.34 3.41a.74.73-65 00.33.92q.23.13.54.07M136.79 438.5q-.01-.21-.07-.36a.53.53 0 00-.67-.29q-2.79 1.04-2.98 3.86M131.71 443.43q-3.01.68-4.81 2.95c-1.06 1.34-7.13 9.08-8.36 8.96a.49.49 0 00-.53.41q-.62 3.59-4.01 4.71"/><path stroke="#8f8e8e" vector-effect="non-scaling-stroke" d="M245.17 408.82a2.64 2.64 0 00-2.64-2.64 2.64 2.64 0 00-2.64 2.64 2.64 2.64 0 002.64 2.64 2.64 2.64 0 002.64-2.64M226.64 417.3a1.83 1.83 0 00-1.878-1.782l-.96.026a1.83 1.83 0 00-1.78 1.877l.058 2.26a1.83 1.83 0 001.878 1.78l.96-.025a1.83 1.83 0 001.78-1.877l-.058-2.26M210.672 430.298a2.85 2.16 82.9 001.791-3.095 2.85 2.16 82.9 00-2.495-2.561 2.85 2.16 82.9 00-1.791 3.095 2.85 2.16 82.9 002.495 2.561M272.862 429.926a2.79 2.47 84.2 002.175-3.026 2.79 2.47 84.2 00-2.739-2.526 2.79 2.47 84.2 00-2.175 3.026 2.79 2.47 84.2 002.739 2.526M197.545 439.07a2.9 1.83 90.5 001.855-2.884 2.9 1.83 90.5 00-1.805-2.916 2.9 1.83 90.5 00-1.855 2.884 2.9 1.83 90.5 001.805 2.916M251.24 435.99a2.76 2.76 0 00-2.76-2.76 2.76 2.76 0 00-2.76 2.76 2.76 2.76 0 002.76 2.76 2.76 2.76 0 002.76-2.76M228.568 446.675a3 2.48 101 003.006-2.472 3 2.48 101 00-1.862-3.418 3 2.48 101 00-3.006 2.472 3 2.48 101 001.862 3.418M183.22 447.215a2.79 2.08 74.2 001.241-3.251 2.79 2.08 74.2 00-2.76-2.119 2.79 2.08 74.2 00-1.242 3.251 2.79 2.08 74.2 002.76 2.119M175.15 452.64a.89.88 28.4 001.38-.41q.68-1.93.19-3.92-.46-1.88-1.84-.52-2.62 2.59.27 4.85M215.095 453.174a2.97 2.54 84.1 002.221-3.215 2.97 2.54 84.1 00-2.831-2.693 2.97 2.54 84.1 00-2.222 3.215 2.97 2.54 84.1 002.832 2.693M167.337 456.673a1.96 1.85 78.9 001.438-2.28 1.96 1.85 78.9 00-2.192-1.566 1.96 1.85 78.9 00-1.438 2.28 1.96 1.85 78.9 002.192 1.566M200.58 459.92l1.48-.28a.83.83 0 00.67-.87l-.28-3.64a.74.74 0 00-.59-.66q-4.07-.79-3.45 3.88a1.85 1.84 80.8 002.17 1.57M162.55 459.54a1.66 1.66 0 00-1.66-1.66 1.66 1.66 0 00-1.66 1.66 1.66 1.66 0 001.66 1.66 1.66 1.66 0 001.66-1.66M186.07 464.88a2.83 1.84 89.6 001.82-2.843 2.83 1.84 89.6 00-1.86-2.817 2.83 1.84 89.6 00-1.82 2.843 2.83 1.84 89.6 001.86 2.817M278.74 462.785a1.59 1.59 0 00-1.633-1.545l-1.52.042a1.59 1.59 0 00-1.544 1.634l.056 2.02a1.59 1.59 0 001.634 1.544l1.52-.042a1.59 1.59 0 001.544-1.634l-.056-2.02M156.59 463.14a1.6 1.6 0 00-1.6-1.6 1.6 1.6 0 00-1.6 1.6 1.6 1.6 0 001.6 1.6 1.6 1.6 0 001.6-1.6M178.25 463.78a.84.83 21.2 00-.99.43c-.69 1.43-.67 5.13 2.28 3.96a1.09 1.06-3.6 00.64-.71q.79-2.86-1.93-3.68M255.44 467.16a2.5 2.5 0 00-2.5-2.5 2.5 2.5 0 00-2.5 2.5 2.5 2.5 0 002.5 2.5 2.5 2.5 0 002.5-2.5M150.298 469.469a1.48 1.21 68.7 00.59-1.818 1.48 1.21 68.7 00-1.666-.94 1.48 1.21 68.7 00-.59 1.818 1.48 1.21 68.7 001.666.94M171.404 472.47a2.14 1.75 91.5 001.805-2.094 2.14 1.75 91.5 00-1.693-2.185 2.14 1.75 91.5 00-1.805 2.093 2.14 1.75 91.5 001.693 2.185M234.526 474.24a3 2.74 70 001.549-3.757 3 2.74 70 00-3.601-1.882 3 2.74 70 00-1.549 3.756 3 2.74 70 003.601 1.882M145.834 471.937a1.49 1.23 10.7 00-1.236-1.486 1.49 1.23 10.7 00-1.692.932 1.49 1.23 10.7 001.236 1.486 1.49 1.23 10.7 001.692-.932M165.67 473.13a1.5 1.5 0 00-1.5-1.5 1.5 1.5 0 00-1.5 1.5 1.5 1.5 0 001.5 1.5 1.5 1.5 0 001.5-1.5M217.47 477.72a1.66 1.66 0 002.08-1.7l-.18-2.96a.69.68 2.6 00-.59-.64c-3.58-.52-5.86 4.09-1.31 5.3M140.028 475.74a1.34 1.15 90.5 001.162-1.33 1.34 1.15 90.5 00-1.138-1.35 1.34 1.15 90.5 00-1.162 1.33 1.34 1.15 90.5 001.138 1.35M160.53 476.56a1.34 1.34 0 00-1.34-1.34 1.34 1.34 0 00-1.34 1.34 1.34 1.34 0 001.34 1.34 1.34 1.34 0 001.34-1.34M202.647 481.23a2.06 1.76 84.5 001.555-2.219 2.06 1.76 84.5 00-1.95-1.882 2.06 1.76 84.5 00-1.554 2.22 2.06 1.76 84.5 001.95 1.882M153.691 480.204a.98.98 0 00-.11-1.38l-.534-.455a.98.98 0 00-1.381.111l-.558.655a.98.98 0 00.112 1.382l.533.454a.98.98 0 001.381-.111l.558-.656M188.815 480.806a1.5 1.5 0 00-1.416-1.58l-.48-.025a1.5 1.5 0 00-1.579 1.416l-.115 2.137a1.5 1.5 0 001.416 1.58l.48.025a1.5 1.5 0 001.579-1.416l.115-2.137M147.043 483.645a1.57 1.21 85.5 001.083-1.66 1.57 1.21 85.5 00-1.33-1.47 1.57 1.21 85.5 00-1.082 1.66 1.57 1.21 85.5 001.33 1.47M181.449 482.707a1.31 1.31 0 00-1.379-1.237l-1.238.067a1.31 1.31 0 00-1.237 1.379l.096 1.777a1.31 1.31 0 001.379 1.237l1.238-.067a1.31 1.31 0 001.237-1.379l-.096-1.777M143.74 484.9a1.2 1.2 0 00-1.2-1.2 1.2 1.2 0 00-1.2 1.2 1.2 1.2 0 001.2 1.2 1.2 1.2 0 001.2-1.2M172.16 487.24l1.75.01a.62.6 5.8 00.6-.48c.63-2.96-3.1-4.21-3.28-.51a.93.93 0 00.93.98M168.2 486.6l-2.4-.56a.71.71 0 00-.84.89l.57 2.04a.63.63 0 001.02.31l1.91-1.65q.88-.76-.26-1.03M161.607 491.308a1.68 1.55 60.9 00.537-2.222 1.68 1.55 60.9 00-2.171-.714 1.68 1.55 60.9 00-.537 2.222 1.68 1.55 60.9 002.171.714M281.09 491.94a2.55 2.55 0 00-2.55-2.55 2.55 2.55 0 00-2.55 2.55 2.55 2.55 0 002.55 2.55 2.55 2.55 0 002.55-2.55M238.04 493.43a2.67 2.67 0 00-2.67-2.67 2.67 2.67 0 00-2.67 2.67 2.67 2.67 0 002.67 2.67 2.67 2.67 0 002.67-2.67M155.57 492.2a1.21 1.21 0 00-1.21-1.21 1.21 1.21 0 00-1.21 1.21 1.21 1.21 0 001.21 1.21 1.21 1.21 0 001.21-1.21M221.895 493.224a1.63 1.63 0 00-1.598-1.66l-1.34-.026a1.63 1.63 0 00-1.66 1.598l-.032 1.66a1.63 1.63 0 001.598 1.66l1.34.026a1.63 1.63 0 001.66-1.598l.032-1.66M256.7 496.37c5.11-3.53-1.9-7.51-3.41-2.67a.96.96 0 00.32 1.04l2.04 1.6a.88.87-43.1 001.05.03M150.269 493.87a1.04.87 2.8 00-.996-.919 1.04.87 2.8 00-1.082.818 1.04.87 2.8 00.996.92 1.04.87 2.8 001.082-.818M144.103 496.218a1.26 1 77 00.691-1.453 1.26 1 77 00-1.257-1.003 1.26 1 77 00-.691 1.453 1.26 1 77 001.257 1.003M206.71 496.246a1.62 1.62 0 00-1.536-1.7l-.5-.025a1.62 1.62 0 00-1.7 1.536l-.084 1.677a1.62 1.62 0 001.536 1.7l.5.025a1.62 1.62 0 001.7-1.536l.084-1.677M187.9 500.5l1.29-.62a1.1 1.08-10.5 00.61-.87q.27-2.55-2.03-3.23a.83.82 32.3 00-.78.17q-2.44 2.14-.17 4.37a.96.95 54.2 001.08.18M181.397 497.37a.84.84 0 00-.865-.813l-1.52.048a.84.84 0 00-.813.866l.084 2.659a.84.84 0 00.866.813l1.519-.048a.84.84 0 00.813-.866l-.084-2.659M174.39 502.36l.89-1.98a.66.66 0 00-.47-.91c-3.12-.61-3.1 3.17-.68 3.06a.28.27 10.8 00.26-.17M170.43 501.99a1.72 1.72 0 00-1.72-1.72 1.72 1.72 0 00-1.72 1.72 1.72 1.72 0 001.72 1.72 1.72 1.72 0 001.72-1.72M163.027 504.029a1.89 1.49 65.4 00.568-2.34 1.89 1.49 65.4 00-2.142-1.098 1.89 1.49 65.4 00-.568 2.34 1.89 1.49 65.4 002.142 1.098M157.49 504.47c-.76-2.48-3.03-1.98-2.98.21a.75.75 0 00.72.74l1.49.05a.78.77-7.5 00.77-1M146.535 507.248a1.16 1.03 60.3 00.32-1.518 1.16 1.03 60.3 00-1.47-.498 1.16 1.03 60.3 00-.32 1.518 1.16 1.03 60.3 001.47.498M150.263 507.225a.99.85 95.6 00.943-.902.99.85 95.6 00-.75-1.068.99.85 95.6 00-.942.902.99.85 95.6 00.75 1.068"/><path stroke="#c9caca" vector-effect="non-scaling-stroke" d="M183.78 229.71l-3.62 3.46a.93.92 33.4 01-.97.19q-13.55-5.11-25.96 2.44c-10.03 6.09-21.91 17.81-17.92 30.97a.26.26 0 00.51-.09c-1.11-17.78 18.41-32.5 35.23-31.59q2.74.15 4.94 1.71a.78.78 0 01.29.89l-1.53 4.69a.91.9-82.8 01-.8.63c-15.11 1.16-23.16 11.55-27.39 25.1q-6.01 19.25 10.85 31.11c1.43 1.01 1.79-.53.88-1.95a1.81 1.62 88.9 00-.38-.41c-10.77-8.43-12.27-19.43-6.85-31.53 4.26-9.53 14.62-20.63 26.21-17.03a.43.43 0 00.55-.34c1.49-9.52 6.02-14.78 13.51-21.07q.38-.31-.11-.38-21.27-2.77-26.65-22.82c-9.43-35.18 21.85-70.95 58.38-53.92q8.47 3.94 11.49 13.79a.39.39 0 00.62.19q.52-.42.21-1.53c-3.51-12.94-17.66-18.46-29.6-18.97-19.48-.84-36.61 12.98-43.46 30.75-2.6 6.76-2.97 14.43-2.97 21.76a.42.42 0 01-.56.4c-11.98-4.22-18.67-18.65-15.34-30.59 2.14-7.69 7.42-17.08 14.14-21.98 5.05-3.68 10.86-4.41 16.54-5.58q.49-.1-.01-.13c-8.93-.45-18.7 1.65-25.13 8.27-13.77 14.19-16.56 37.75-.53 51.74a.56.55-52.5 01.09.73c-6.36 8.98-6.28 19.42 2.36 26.98a.41.41 0 00.59-.55q-6.66-8.95-2.15-18.99c1.5-3.35 3.85-5.13 7.5-3.67a1.9 1.83 50.3 00.98.11l1.79-.26a.77.75-13.3 01.83.5c1.32 3.79 2.1 8.08 4.06 11.34 4.21 6.99 10.99 13 19.18 14.9q.78.18.2.73M95.65 278.64c-8.64-6.27-13.79-14.06-12.25-25.08.74-5.2 3.82-11.09 6.27-16.19a.34.34 0 00-.57-.37c-4.12 4.95-7.9 10.25-9.05 16.56q-2.17 11.92 4.95 21.53c2.16 2.91 9.06 7.27 9.4 11.29.19 2.37.14 4.64 1.13 6.74q3.45 7.32 11.75 9.08.49.11.1-.22-4.1-3.41-6.62-8c-5.37-9.78 2.82-19.99 10.99-24.54a.24.24 0 00-.05-.44c-6.54-1.94-15.39-6.82-17.41-13.87-4.24-14.81 7.49-26.99 19.78-32.96a.34.34 0 00-.23-.64c-8.01 1.85-18.96 10.1-22.32 17.65-3.85 8.65-3.99 20.33 3.4 27.32 1.57 1.5 4.15 2.64 6.09 4.22a.58.57 36.3 01.12.76l-4.68 7.01a.56.56 0 01-.8.15M168.1 426.53c1.59-2.8 7.48-5.55 6.1-8.73q-.18-.43-.16-.89l.1-2.84q.03-.82-.64-.35l-5.59 3.94a1.06 1.04 71.5 00-.45.92l.34 7.88q.02.56.3.07M163.48 421.97l-5.06 6.26a1.25 1.21 63 00-.27.88l.37 5.32a.21.21 0 00.32.16q6.96-4.19 4.87-12.57a.13.13 0 00-.23-.05M151.51 436.5c.16 1.52-.16 2.45-.39 3.83q-.11.66.48.34l2.29-1.23a.98.97-12.5 00.52-.81l.29-5.19a.28.28 0 00-.33-.28q-3.16.53-2.86 3.34M145.07 441.53c-2.17 1.43-.86 5.51-1.64 7.77a.09.09 0 00.06.12l.29.09a.23.22 17.6 00.28-.14q.53-1.44 1.94-1.93a2.2 2.2 0 001.48-2.02l.11-5.32a.32.32 0 00-.45-.3q-.79.32-1.34 1.05-.31.4-.73.68M139.23 454.14q2.09-3.08 2.02-6.88a.47.47 0 00-.53-.46c-3.11.43-2.37 5.22-1.99 7.24q.13.66.5.1M135.76 451.66c-3.27-.1-3.05 5.85-2.36 7.7a.49.49 0 00.86.11l1.9-2.68a1.06 1.04-37.2 00.14-.94q-.63-1.79-.09-3.57a.49.48-81.1 00-.45-.62"/><path stroke="#585959" vector-effect="non-scaling-stroke" d="M435.6 378.27q2.48 1.01 4.54.36a1.53 1.52 8.1 00.82-.61q3.01-4.37 2.73-9.77a1.61 1.57 23.7 00-.38-.94l-1.92-2.22"/><path stroke="#a1a2a3" vector-effect="non-scaling-stroke" d="M441.39 365.09q.74-1.04-1.23-.95c-2.18.09-4.64 2.44-5.65 4.17-1.52 2.59-.78 6.41-1.02 9.63a1.19 1.18-84.4 001.03 1.26q1.41.17 1.08-.93"/><path stroke="#676666" vector-effect="non-scaling-stroke" d="M441.39 365.09q-9.1 3.51-5.79 13.18"/><path stroke="#c9caca" vector-effect="non-scaling-stroke" d="M219.67 364.255a.26.26 0 00-.254-.265l-6.578-.138a.26.26 0 00-.266.255l-.163 7.778a.26.26 0 00.255.265l6.578.138a.26.26 0 00.266-.255l.163-7.778M207.61 372.69a.35.35 0 00.31-.31l.81-7.73a.35.35 0 00-.39-.38l-7.54 1.02a.35.35 0 00-.3.35v7.43a.35.35 0 00.39.35l6.72-.73M196.203 365.797a.26.26 0 00-.266-.254l-6.858.156a.26.26 0 00-.254.266l.172 7.578a.26.26 0 00.266.254l6.858-.156a.26.26 0 00.254-.266l-.172-7.578M185.114 367.035a.59.59 0 00-.6-.581l-5.919.093a.59.59 0 00-.58.6l.111 7.118a.59.59 0 00.6.581l5.919-.093a.59.59 0 00.58-.6l-.111-7.118M188.36 386.61a.7.7 0 00-.57.68l-.14 6.8a.7.7 0 00.8.7l8.05-1.22a.7.7 0 00.59-.75l-.51-6.99a.7.7 0 00-.83-.63l-7.39 1.41M160.55 377.07c-4.27 4.28-2.66 9.77-2.52 14.47a.28.28 0 00.55.05q.52-2.24 2.1-3.93a2.04 2.02-17.4 00.49-.93q.97-4.71.14-9.43-.15-.84-.76-.23M144.556 411.465a6.65 1.67 98.6 002.645-6.325 6.65 1.67 98.6 00-.657-6.825 6.65 1.67 98.6 00-2.645 6.325 6.65 1.67 98.6 00.657 6.825M130.28 425.04l-2.8 3.21a1.53 1.48-25.7 00-.37 1.01l.06 2.67q.01.85.63.27 3.02-2.85 3.03-6.95a.32.31 65.7 00-.55-.21"/><path stroke="#d7d7d8" vector-effect="non-scaling-stroke" d="M116.77 474.25l-.22.66a.42.42 0 00.44.55c2.84-.26 3.39-4.72 2.88-6.77q-.13-.51-.47-.11c-.67.82-2.9 3.72-2.62 4.72a1.65 1.61 46.3 01-.01.95"/><path stroke="#676666" vector-effect="non-scaling-stroke" d="M590.19 591q-5-.63-10 0M559.94 591q-19.88-.63-39.75 0M512.94 591q-43.38-.63-86.75 0M423.94 591q-3.88-.63-7.75 0M415.94 591q-27.38-.63-54.75 0M358.94 591q-2.88-.63-5.75 0M333.94 591q-2.88-.63-5.75 0M327.94 591q-15.38-.63-30.75 0M296.94 591q-3.38-.63-6.75 0M286.94 591q-2.88-.63-5.75 0"/><path stroke="#a1a2a3" vector-effect="non-scaling-stroke" d="M280.94 591q-3.88-.63-7.75 0"/><path stroke="#676666" vector-effect="non-scaling-stroke" d="M271.44 591q-3.13-.63-6.25 0M264.94 591q-15.88-.63-31.75 0M232.94 591q-3.88-.63-7.75 0M223.94 591q-7.38-.63-14.75 0M204.94 591q-2.38-.63-4.75 0M199.94 591q-7.38-.63-14.75 0M184.94 591q-7.88-.63-15.75 0M168.94 591q-23.88-.63-47.75 0M118.94 591q-2.88-.63-5.75 0M112.94 591q-7.38-.63-14.75 0M75.94 591q-12.88-.63-25.75 0M25.94 591c-5.16-.18-24.88.26-25.94-.56"/></g><path d="M0 0h590.06l-.02.25.25 3.75v1l-.04 584.71-.46.32a1.18 1.16 27.1 01-.67.21q-291.53.02-583.06-.02-3.03 0-6.06-.28V0zm585.5 5.52a.26.26 0 00-.26-.26H5.5a.26.26 0 00-.26.26v579.72a.26.26 0 00.26.26h579.74a.26.26 0 00.26-.26V5.52z"/><path fill="#1e1d1c" d="M590.06 0h.94v590.06l-.29-.31-.02-584.56a.15.15 0 00-.13-.15l-.27-.04V4q1.37-2.04-.25-3.75l.02-.25z"/><path fill="#929495" d="M590.04.25q1.62 1.71.25 3.75l-.25-3.75zM590.29 5l.27.04a.15.15 0 01.13.15l.02 584.56-.46-.04L590.29 5z"/><path fill="#fcfde0" d="M585.5 585.24a.26.26 0 01-.26.26H5.5a.26.26 0 01-.26-.26V5.52a.26.26 0 01.26-.26h579.74a.26.26 0 01.26.26v579.72zM28.99 30.98c-3.36 3.12-5.56 7.53-5.55 12.03.03 15.05-1.05 31.44.54 46.33a.75.73-86.7 00.56.64q1.36.35 2.67-1.03Q47.58 67.57 85.7 28.7q1.33-1.36 2.22-2.98a.79.79 0 00-.68-1.17q-18.52-.27-36.97.42c-9.37.34-15.19.36-21.28 6.01zm122.192 34.788a1.25.97 86.7 00.896-1.304 1.25.97 86.7 00-1.04-1.192 1.25.97 86.7 00-.896 1.304 1.25.97 86.7 001.04 1.192zM254.79 238.25q1.67-1.36 2.1-2.07 9.98-16.5 2.3-34.27c-2.33-5.41-7.76-8.6-12.52-11.59a.39.38 39.7 01-.06-.61c14.55-13.24 13.33-36.91-6.55-44.29a1.37 1.34-88.8 01-.81-.86c-8.16-26.62-35.75-32-59.21-24.16-2.84.94-5.32 1.89-8.48 1.83-17.73-.34-34.6 12.02-43.08 26.71-8.5 14.71-7.54 31.77.6 46.48a.59.59 0 01-.19.78q-7.2 4.67-10.07 12.71a.87.87 0 01-.65.57c-19.19 3.93-30.69 11.74-40.17 28.99-8.84 16.1-6.14 31.79 4.66 46.31 1.27 1.71 2.83 2.46 4.6 3.5a1.29 1.28 6.5 01.58.72c9.48 29.53 42.91 25.14 51.58-1.51q.16-.47.25.02c1.39 7.78 5.18 14.32 9.36 21.53.43.74.73 2.66.76 3.49q.59 14.01.71 28.04 0 .49.18.96l.36.97-4.27 6.28a1.55 1.53 60.5 00-.26.95q.86 16.07.43 32.16a1.75 1.71-28.7 01-.27.89q-17.2 27.01-33.33 54.67c-2.53 4.34-6.23 7.45-7.89 13.04a.23.22-2.6 01-.15.16l-.34.12a.38.37 81.7 00-.26.36l.09 7.62V487l-.22 2.98a1.37 1.34 70.2 01-.39.85c-1.92 1.9-.51 3.27-.02 5.09q4.28 16.13 4.4 33.17a.38.38 0 00.41.38l6.03-.51q29.21-2.33 38.25-2.23 18.08.22 25.5 1.26 23.13 3.22 33 4.03c5.35.43 12.17-1.51 16.75-1.87q9.34-.75 18.7-.26c6.7.36 14.02 2.02 21.02 3.2 2.96.5 7.35-2.08 10.38-2.83 19.69-4.86 57.86-15.57 65.74 12.1a.7.69-25.8 001.07.37c16.56-11.83 34.41-20.09 55.34-18.51q8.39.63 14.71 4.28 2.76 2.55 6.25 4.06.47.2.4-.3-.29-2.22-.36-6.26c-.43-25.23-1.83-50.89.73-76.01.45-4.36 4.6-12.64 6.39-17.65 8.01-22.41 19.9-42.97 31.73-63.53 1.81-3.15 4.81-5.9 6.8-9.38a1.56 1.56 0 00.19-.92c-1.74-17.69-7.8-37.24-18.46-51.41q-5.96-7.93-12.18-15.21a2.58 2.58 0 01-.61-1.64l-.29-23.93a1.55 1.5 64.7 01.32-.94l2.39-3.01a1.48 1.48 0 00.33-.96c-.22-13.29.97-26.67.46-39.68q-1.03-26.48-.64-52.98c.05-3.38 6.69-4.89 9.33-4.96q12.64-.34 25.27-.55a1.7 1.69-62.8 00.93-.3c3.7-2.48 7.19-11.57 9.52-16.83a.64.64 0 01.71-.37q8.29 1.5 16.66.13c2.2-.36 10.02-2.69 6.95-6.16-1.55-1.76-2.99-.54-4.86-1.03a.34.33-67.4 01-.2-.5l.45-.75a.62.62 0 00-.47-.93l-8.8-.87a1.69 1.65 33.5 00-.94.18q-5.95 3.09-13.89 2.57c-14.49-.94-27.25-2.41-40.22-7.46q-9.87-3.85-20.13-6.81a.62.61-79.6 01-.44-.64c.43-5.53 3.51-29.82-7.61-30.25-9.42-.37-10.81 6.23-11.7 14.43q-.75 6.8-2.44 13.49a.7.69-84.2 01-.63.52c-6.92.37-13.5.48-20.58 1.39-13.15 1.68-25.04 1.31-39.16.27-4.14-.31-10.91-1.7-16.6-1.43a1.13 1.09 66.1 01-.84-.34c-2.87-2.97-7.85-3.66-12.73-4.48q-3.59-.6-4.55 2.1a.62.61 17.5 01-.74.38q-3.89-1.11-7.8-.03a.55.55 0 00-.33.81l2.82 4.78a1.57 1.53-3.3 00.74.64q9.75 4.08 18.11 3.71c4.32-.19 8.39-.05 10.65 4 3.84 6.91 8.18 14.84 13.71 20.52a.88.88 0 00.84.24c7.43-1.84 16.2.08 23.87.5a1.86 1.8-24.6 01.97.34q6.31 4.41 13.68 6.68a.74.74 0 01.52.71l.14 37.05a.41.4-1.4 00.43.4c2.71-.13 2.59 4.08 4.04 6.66a1.52 1.48 35.2 01.17.93c-.95 7.07-1.63 14.36 1.57 21.21.66 1.43 1.13 2.95 1.15 4.3.27 17.07-1.22 36.97-1.24 58.96a.65.64 83.2 01-.49.63q-3.51.9-8.07 2.59-40.89 15.23-78.38 35.1a.36.36 0 01-.53-.31l-.82-26.78a.74.74 0 01.6-.75l2.79-.54a.67.66 84.9 00.54-.66l-.18-11.46a.49.49 0 00-.65-.45l-2.37.84a.47.47 0 01-.62-.35q-.45-2.11-.48-6.32-.33-38.42-2.51-104.52a.72.72 0 00-.49-.67c-1.12-.39-3.05-.13-2.22 1.57q.22.44.21.94-1.14 54.17.08 108.35a.57.57 0 01-.57.58l-2.87-.01a1.26 1.25-.9 00-1.26 1.29l.34 11.13a.61.61 0 00.62.59l2.68-.01a1.15 1.15 0 011.15 1.15l.01 29.74a.79.78 76 01-.41.69q-8.56 4.65-17.19 9.31c-3.78 2.04-11.91.52-16.13-.1a.63.62-88.3 01-.53-.57c-2.37-34.93-2.43-69.74-2.7-104.71zm244.419 7.662a1.15.68-38.6 00-1.323.187 1.15.68-38.6 00-.475 1.249 1.15.68-38.6 001.323-.187 1.15.68-38.6 00.475-1.249z"/><path fill="#fce7af" d="M28.99 30.98c6.09-5.65 11.91-5.67 21.28-6.01q18.45-.69 36.97-.42a.79.79 0 01.68 1.17q-.89 1.62-2.22 2.98-38.12 38.87-58.49 60.25-1.31 1.38-2.67 1.03a.75.73-86.7 01-.56-.64c-1.59-14.89-.51-31.28-.54-46.33-.01-4.5 2.19-8.91 5.55-12.03z"/><ellipse fill="#afafb0" transform="rotate(86.7 41.381 112.297)" rx="1.25" ry=".97"/><path fill="#1e1d1c" d="M415.46 528.5q.63-2.49.08-5l-.1-11.47a.51.51 0 00-.53-.51l-3.02.08-9.6.09-45.29.35q-36.54.26-73.02 2.16c-16.78.87-33.82 1-50.73 1.84q-14.53.54-29.03 1.5c-15.32 1.01-30.67 1.07-46.01 1.79l-41.78 2.37a1.26 1.25 89.5 00-1.17 1.2l-.26 6.06-6.03.51a.38.38 0 01-.41-.38q-.12-17.04-4.4-33.17c-.49-1.82-1.9-3.19.02-5.09a1.37 1.34 70.2 00.39-.85l.22-2.98q1.62-14.13 0-28.25l-.09-7.62a.38.37 81.7 01.26-.36l.34-.12a.23.22-2.6 00.15-.16c1.66-5.59 5.36-8.7 7.89-13.04q16.13-27.66 33.33-54.67a1.75 1.71-28.7 00.27-.89q.43-16.09-.43-32.16a1.55 1.53 60.5 01.26-.95l4.27-6.28 2.71-2.46q3.74-2.7 7.39-2.76a1.69 1.69 0 001.66-1.75l-.49-15.67a1.87 1.79-29.8 01.32-1.09q5.71-8.36 15.81-9.99a.58.57-4.3 00.48-.55q.23-9.99-.07-19.98-.15-4.78 3.59-8.3 5.42-5.09 11.5-7.69l12.39-.86a.5.5 0 00.47-.53c-.44-9.37-1.42-20.33-.38-29.61a1.41 1.39-18.7 01.43-.85q13.62-12.84 32.63-11.3 7.57 1.27 13.52 5.68 1.67 1.34 1.79 3.46c.27 34.97.33 69.78 2.7 104.71a.63.62-88.3 00.53.57c4.22.62 12.35 2.14 16.13.1q8.63-4.66 17.19-9.31a.79.78 76 00.41-.69l-.01-29.74a1.15 1.15 0 00-1.15-1.15l-2.68.01a.61.61 0 01-.62-.59l-.34-11.13a1.26 1.25-.9 011.26-1.29l2.87.01a.57.57 0 00.57-.58q-1.22-54.18-.08-108.35.01-.5-.21-.94c-.83-1.7 1.1-1.96 2.22-1.57a.72.72 0 01.49.67q2.18 66.1 2.51 104.52.03 4.21.48 6.32a.47.47 0 00.62.35l2.37-.84a.49.49 0 01.65.45l.18 11.46a.67.66 84.9 01-.54.66l-2.79.54a.74.74 0 00-.6.75l.82 26.78a.36.36 0 00.53.31q37.49-19.87 78.38-35.1 4.56-1.69 8.07-2.59a.65.64 83.2 00.49-.63c.02-21.99 1.51-41.89 1.24-58.96-.02-1.35-.49-2.87-1.15-4.3-3.2-6.85-2.52-14.14-1.57-21.21a1.52 1.48 35.2 00-.17-.93c-1.45-2.58-1.33-6.79-4.04-6.66a.41.4-1.4 01-.43-.4l-.14-37.05a.74.74 0 00-.52-.71q-7.37-2.27-13.68-6.68a1.86 1.8-24.6 00-.97-.34c-7.67-.42-16.44-2.34-23.87-.5a.88.88 0 01-.84-.24c-5.53-5.68-9.87-13.61-13.71-20.52-2.26-4.05-6.33-4.19-10.65-4q-8.36.37-18.11-3.71a1.57 1.53-3.3 01-.74-.64l-2.82-4.78a.55.55 0 01.33-.81q3.91-1.08 7.8.03a.62.61 17.5 00.74-.38q.96-2.7 4.55-2.1c4.88.82 9.86 1.51 12.73 4.48a1.13 1.09 66.1 00.84.34c5.69-.27 12.46 1.12 16.6 1.43 14.12 1.04 26.01 1.41 39.16-.27 7.08-.91 13.66-1.02 20.58-1.39a.7.69-84.2 00.63-.52q1.69-6.69 2.44-13.49c.89-8.2 2.28-14.8 11.7-14.43 11.12.43 8.04 24.72 7.61 30.25a.62.61-79.6 00.44.64q10.26 2.96 20.13 6.81c12.97 5.05 25.73 6.52 40.22 7.46q7.94.52 13.89-2.57a1.69 1.65 33.5 01.94-.18l8.8.87a.62.62 0 01.47.93l-.45.75a.34.33-67.4 00.2.5c1.87.49 3.31-.73 4.86 1.03 3.07 3.47-4.75 5.8-6.95 6.16q-8.37 1.37-16.66-.13a.64.64 0 00-.71.37c-2.33 5.26-5.82 14.35-9.52 16.83a1.7 1.69-62.8 01-.93.3q-12.63.21-25.27.55c-2.64.07-9.28 1.58-9.33 4.96q-.39 26.5.64 52.98c.51 13.01-.68 26.39-.46 39.68a1.48 1.48 0 01-.33.96l-2.39 3.01a1.55 1.5 64.7 00-.32.94l.29 23.93a2.58 2.58 0 00.61 1.64q6.22 7.28 12.18 15.21c10.66 14.17 16.72 33.72 18.46 51.41a1.56 1.56 0 01-.19.92c-1.99 3.48-4.99 6.23-6.8 9.38-11.83 20.56-23.72 41.12-31.73 63.53-1.79 5.01-5.94 13.29-6.39 17.65-2.56 25.12-1.16 50.78-.73 76.01q.07 4.04.36 6.26.07.5-.4.3-3.49-1.51-6.25-4.06zm-1.51-428.26c.01-2.87-2.9-3.04-5.12-2.67a.6.59-6.1 00-.5.61c.05 1.11 4.12 1.86 5.15 2.36a.33.33 0 00.47-.3zm-4.35 2.69q-1.07 2.42 1.15 3.61.97.52.81-.56l-.4-2.83a.82.82 0 00-1.56-.22zm2.75 8.84q1.68.6.86-.99l-.74-1.42a.71.69 65.9 00-.86-.34l-.79.28a.64.64 0 00-.33.94q.66 1.1 1.86 1.53zm-27.15 14.8a.32.32 0 00-.23.52l5.32 6.36a.32.32 0 00.55-.13l1.64-6.77a.32.32 0 00-.33-.4l-6.95.42zm-9.77.46q-1.09-.36-2.12.24-.83.49.1.72l2.95.75q.53.14.99.43l5.96 3.68q1.2.74.24-.28l-5.05-5.41a.95.94 62.6 00-.87-.28l-1.13.22q-.54.11-1.07-.07zm37.72 14.89q-.98 1.05-2.51.96-.5-.03-.96.17c-1.55.66-5.26-.51-5.31 1.42a.83.83 0 00.66.84l8.48 1.74a1 .99-61.4 00.93-.28c5.3-5.48 6.98-9.32 4.5-16.88a1.31 1.31 0 00-2.17-.53c-3.06 3.01-8.48 8.01-9.8 11.85a.35.35 0 00.35.46l5.61-.23q.69-.03.22.48zm12.06 23.26c.13 23.42-.85 41.75-.36 62.68a.95.95 0 00.38.72l8.18 5.99q1.6 1.17 1.4-.81c-2.52-25.45-2.96-51.09-3.69-76.65-.04-1.26.5-2.85.18-4.18-1.46-6.16-.89-13.89-.91-20.27a.56.56 0 00-.45-.55q-3.25-.61-6.1-2.29a.72.72 0 00-1.08.72c.86 6.25 1.92 12.15 1.99 18.67.06 5.33.44 11.05.46 15.97zM436 145.21q.75-2.91-.29-5.71l.58-3.22a.83.82-71.3 00-.44-.9l-2.9-1.51a.8.79-.1 00-1.07 1.07c2.35 4.49.93 10.24 2.23 14.9.54 1.91-.12 4.07 0 5.54q.55 6.49 1.17 12.71a.35.35 0 00.69 0c.62-6.12-.14-11.74.15-17.72q.13-2.58-.12-5.16zm4.16-1.19a.33.33 0 00.55.24l5.95-5.17a.33.33 0 00-.11-.56l-6.16-2.24a.33.33 0 00-.45.32l.22 7.41zm17.86-3.08c-3.83.04-6.54 5.55-10.41 8.28q-.46.32.1.29c2.56-.16 8.32-5.99 10.59-7.78a.44.44 0 00-.28-.79zm-41.08 16.62l.34-1.52q.24-1.09-.7-.48-3.13 2.01-6.93 1.34-2.4-.43-.28.78 3.42 1.97 7.31 2.81a.4.4 0 00.48-.45l-.25-1.68q-.06-.4.03-.8zm-.58 7.52q-7.25-3.06-14.12-6.09a.37.37 0 00-.35.64q6.7 4.36 13.93 7.7a1.03 1.02-60.3 001.27-.35q.85-1.24-.73-1.9zm-27.62 7.17c-.32 7.12-.44 14.13-.59 21.56q-.09 4.14 3.4 5.17a.43.42-83.8 00.54-.44q-1-13.21-3.08-26.3-.21-1.28-.27.01zm27.3 32.52c.65-5.27.51-11.8.29-15.62a1.74 1.72-65.9 00-.37-.98q-6.24-7.92-13.43-15a.43.43 0 00-.71.44q5.25 16.38 13.84 31.24.3.52.38-.08zm-6.6 7.29q2.22 7.42 6.11 14.13.34.58.51-.07.54-2-.2-3.46-1.77-3.51-6.18-10.71-.52-.84-.24.11zm-4.23 16.44c2.71 6.5 8.39 11.93 14.86 14.67q.47.2.14-.19-10.92-13.06-17.48-28.79-.2-.47-.18.04.24 8.48 2.66 14.27zm4.47 56.27l2.29-.99a.92.91-11.8 00.56-.84c.01-12.22-1.68-24.46-2.23-36.69q-.04-.79-1.04-.92a.39.38 3.3 00-.43.38l.24 38.65a.44.44 0 00.61.41zm7.24-2.69l2.15-.01a.69.68-.8 00.69-.7q-.43-16.3-2.7-32.45a.24.24 0 00-.47.01c-.95 9.93.34 21.46.62 30.36q.02.53-.23 1l-.52 1.03a.52.52 0 00.46.76zm11.08 1.13l1.73 2.36a.32.32 0 00.58-.19l-.1-22.38c1.3-5.61-2.82-8.81-7.54-10.86a.39.38-73.4 00-.54.3q-.24 1.63.01 4.13.81 8.35 1.13 21.41a1.75 1.72-63.7 00.3.91q1.78 2.58 4.43 4.32zm-210.21 56.04q11.19-.94 22.48-.36a.72.71-88.4 01.68.73l-.05 3.24a.44.43-.6 00.46.44l9.05-.34a.51.5-1.7 00.5-.52l-.2-6.44q-1.46-28.76-1.99-57.57c-.13-6.71-8.45-10.36-14.23-10.43-8.4-.11-21.36 1.71-21.27 11q.3 33.25.28 66.94a.45.45 0 00.86.2l3.43-6.89zm198.46-48.96c-62.94 17.48-117.31 45.02-174.06 80.15q-9.31 5.77-17.02 11.76c-14.74 11.47-29.81 22.41-44.21 34.3l-1.04.53a.73.72 52.2 01-.83-.11q-.71-.66-.97-1.57.57-6.79-.13-13.31-.06-.6-.46-.15l-2.57 2.86q-8.43 9.17-16.6 18.58c-1.79 2.07-4.43 4.37-6.36 6.81-8.92 11.28-20.12 19.04-27 30.11q-7.63 6.13-12.29 14.75l-1 1.75q-.81 3.08-.03 6.34.12.5.48.13 4.97-5.03 13.84-11.97c.92-.72 1.31-2.09 2.67-2.96q2.87-1.84 4.62-4.79 2.56-.22 3.54-2.57a1.7 1.6-6.8 01.61-.73c2.42-1.63 4.26-4.02 6.38-5.61q4.95-3.71 9.5-7.9c1.21-1.12 2.87-1.99 4.18-3.15 22.72-17.77 47.01-36.21 69.69-50.86 16.49-10.64 40.36-24.44 64.1-36.87 22.54-11.82 47.17-21.45 70.75-31.06q20.83-7.79 42.25-13.75l17.79-4.81a.67.66 83 00.49-.63l.14-13.06-.02-3.93a.36.36 0 00-.48-.34l-5.96 2.06zm11.04 17.46q-.3 1.78.19 3.48-2.21 12.13-2.19 24.27c-2.35 29.47-4.23 61.45-3.06 92.24q.02.58.27.06l5.21-10.8q5.37-11.7 14.98-28.81 4.77-8.5 7.6-12.44l7.64-11.16 3.45-5.29a1.35 1.34 57.3 00.2-.94c-1.96-12.74-4.76-27.43-11.5-38.68q-8.91-14.86-20.65-27.28a.37.37 0 00-.64.24c-.11 2.22-2.04 14.33-1.5 15.11zM201 301.71c-7.86 1.96-16.17 5.65-15.79 15.04q.74 17.97 1.36 36a.41.41 0 00.46.4l20.93-2.06a.77.77 0 00.69-.87c-1.27-9.35-.96-18.81-1.19-28.22l-.3-19.73a1.01.99 4.5 00-.84-.97q-2.46-.39-5.32.41zm-31.38 37.68c-2.14 2.85-1.03 11.73-.64 15.27a.5.49-5.3 00.54.44l10.53-.8a.59.59 0 00.54-.59l-.22-19.62q-.02-2.43-2.23-1.41-5.35 2.49-8.52 6.71zm42.13 17.15q-10.67.34-21.25 1.75l-17 1.75-1.19.02a.52.51-89.4 00-.51.51q-.26 13.22.49 26.43l.22 10.3a.54.54 0 00.92.38q2.11-2.05 3.98-4.99c2.74-4.32 5.82-.21 5.88 3.06l-.04 7.54c.01.57-.62 5.2.4 5.59a.74.73 29.8 00.82-.22c5.26-6.4 11.73-10.32 17.78-15.87l5-3.83 3.29-2.46L229 371.54l4.25-2.83 2.1-1.47 16.9-10.78 13.33-7.44q.72-.4-.11-.43l-28.61-1.08a.72.72 0 01-.68-.66l-.24-3.41a.68.68 0 00-.69-.63l-11.91.14a2.46 2.45 9.3 00-2.29 1.64c-1.51 4.3-3.29 13.12-9.3 11.95zm163.5 21.67l3.04-1.21c6.84-3.92 2.62-20.45-6.72-18.67-10.23 1.95-4.22 21.05 3.68 19.88zM151.89 373a.34.34 0 00.63.22l8.02-12.99a.34.34 0 00-.48-.46l-6.89 4.72a.34.34 0 00-.14.24l-1.14 8.27zm-1.43 14.75c-2.35 3.56-4.16 7.09-6.84 10.53-4.06 5.21-7.2 11.47-10.5 16.43q-2.34 3.51-4.7 7c-1.9 2.83-2.49 5.89-4.7 8.74q-6.77 8.76-12.61 18.19-1.45 3.89.12 7.58.16.37.38.03l1.68-2.5 3.67-5.25 1.33-1.75 3.17-4 3.04-3.29 8.96-12.21 2.33-3.25q2.28-2.3 3.04-4.58l1.96-2.67c8.74-9.32 16.35-19.16 24.21-29.21 2.62-6.46 1.49-16.11 1.5-23.66a.51.51 0 00-.94-.27l-15.1 24.14zm117.752 9.311a2.79 2.5 51.1 00.194-3.74 2.79 2.5 51.1 00-3.698-.602 2.79 2.5 51.1 00-.194 3.74 2.79 2.5 51.1 003.698.602zM162.5 400.21l-2.54 3.54c-5.85 4.74-10.18 11.66-15.33 17.68q-3.89 4.56-8.23 10.51-6.73 9.21-15.34 18.61-3.63 3.96-7.06 9.91c-.88 1.35-3.75 5.66-2.81 7.15a.39.38 48.2 00.62.04c4.86-6.07 10.12-11.77 14.73-18.03 1.68-2.28 4.22-3.43 5.17-6.19q1-.43 1.36-1.72 2.61-1.07 3.72-3.21l2.21-2.46 2.04-2.29 3.46-3.71 3.04-3.04q2.3-1.87 3.67-4.5l3.08-3.25 4.67-5 4.83-6c.76-.71 5-4.31 3.83-5.32a.91.9 21 01-.32-.71l.15-7.79a.26.26 0 00-.46-.16l-4.49 5.94zm82.67 8.61a2.64 2.64 0 00-2.64-2.64 2.64 2.64 0 00-2.64 2.64 2.64 2.64 0 002.64 2.64 2.64 2.64 0 002.64-2.64zm-18.53 8.48a1.83 1.83 0 00-1.878-1.782l-.96.026a1.83 1.83 0 00-1.78 1.877l.058 2.26a1.83 1.83 0 001.878 1.78l.96-.025a1.83 1.83 0 001.78-1.877l-.058-2.26zm-15.968 12.998a2.85 2.16 82.9 001.791-3.095 2.85 2.16 82.9 00-2.495-2.561 2.85 2.16 82.9 00-1.791 3.095 2.85 2.16 82.9 002.495 2.561zm62.19-.372a2.79 2.47 84.2 002.175-3.026 2.79 2.47 84.2 00-2.739-2.526 2.79 2.47 84.2 00-2.175 3.026 2.79 2.47 84.2 002.739 2.526zm-75.317 9.144a2.9 1.83 90.5 001.855-2.884 2.9 1.83 90.5 00-1.805-2.916 2.9 1.83 90.5 00-1.855 2.884 2.9 1.83 90.5 001.805 2.916zm53.695-3.08a2.76 2.76 0 00-2.76-2.76 2.76 2.76 0 00-2.76 2.76 2.76 2.76 0 002.76 2.76 2.76 2.76 0 002.76-2.76zm-22.672 10.685a3 2.48 101 003.006-2.472 3 2.48 101 00-1.862-3.418 3 2.48 101 00-3.006 2.472 3 2.48 101 001.862 3.418zm-45.348.54a2.79 2.08 74.2 001.241-3.251 2.79 2.08 74.2 00-2.76-2.119 2.79 2.08 74.2 00-1.242 3.251 2.79 2.08 74.2 002.76 2.119zm-8.07 5.425a.89.88 28.4 001.38-.41q.68-1.93.19-3.92-.46-1.88-1.84-.52-2.62 2.59.27 4.85zm39.945.534a2.97 2.54 84.1 002.221-3.215 2.97 2.54 84.1 00-2.831-2.693 2.97 2.54 84.1 00-2.222 3.215 2.97 2.54 84.1 002.832 2.693zm-47.758 3.5a1.96 1.85 78.9 001.438-2.28 1.96 1.85 78.9 00-2.192-1.567 1.96 1.85 78.9 00-1.438 2.28 1.96 1.85 78.9 002.192 1.566zm33.243 3.246l1.48-.28a.83.83 0 00.67-.87l-.28-3.64a.74.74 0 00-.59-.66q-4.07-.79-3.45 3.88a1.85 1.84 80.8 002.17 1.57zm-38.03-.38a1.66 1.66 0 00-1.66-1.66 1.66 1.66 0 00-1.66 1.66 1.66 1.66 0 001.66 1.66 1.66 1.66 0 001.66-1.66zm23.52 5.34a2.83 1.84 89.6 001.82-2.843 2.83 1.84 89.6 00-1.86-2.817 2.83 1.84 89.6 00-1.82 2.843 2.83 1.84 89.6 001.86 2.817zm92.67-2.095a1.59 1.59 0 00-1.633-1.545l-1.52.042a1.59 1.59 0 00-1.544 1.634l.056 2.02a1.59 1.59 0 001.634 1.544l1.52-.042a1.59 1.59 0 001.544-1.634l-.056-2.02zm-122.15.355a1.6 1.6 0 00-1.6-1.6 1.6 1.6 0 00-1.6 1.6 1.6 1.6 0 001.6 1.6 1.6 1.6 0 001.6-1.6zm21.66.64a.84.83 21.2 00-.99.43c-.69 1.43-.67 5.13 2.28 3.96a1.09 1.06-3.6 00.64-.71q.79-2.86-1.93-3.68zm77.19 3.38a2.5 2.5 0 00-2.5-2.5 2.5 2.5 0 00-2.5 2.5 2.5 2.5 0 002.5 2.5 2.5 2.5 0 002.5-2.5zm-105.142 2.309a1.48 1.21 68.7 00.59-1.818 1.48 1.21 68.7 00-1.666-.94 1.48 1.21 68.7 00-.59 1.818 1.48 1.21 68.7 001.666.94zm21.106 3a2.14 1.75 91.5 001.805-2.093 2.14 1.75 91.5 00-1.693-2.185 2.14 1.75 91.5 00-1.805 2.093 2.14 1.75 91.5 001.693 2.185zm63.122 1.77a3 2.74 70 001.549-3.756 3 2.74 70 00-3.601-1.882 3 2.74 70 00-1.549 3.756 3 2.74 70 003.601 1.882zm-88.692-2.302a1.49 1.23 10.7 00-1.236-1.486 1.49 1.23 10.7 00-1.692.932 1.49 1.23 10.7 001.236 1.486 1.49 1.23 10.7 001.692-.932zm19.836 1.193a1.5 1.5 0 00-1.5-1.5 1.5 1.5 0 00-1.5 1.5 1.5 1.5 0 001.5 1.5 1.5 1.5 0 001.5-1.5zm51.8 4.59a1.66 1.66 0 002.08-1.7l-.18-2.96a.69.68 2.6 00-.59-.64c-3.58-.52-5.86 4.09-1.31 5.3zm-77.442-1.98a1.34 1.15 90.5 001.162-1.33 1.34 1.15 90.5 00-1.138-1.35 1.34 1.15 90.5 00-1.162 1.33 1.34 1.15 90.5 001.138 1.35zm20.502.82a1.34 1.34 0 00-1.34-1.34 1.34 1.34 0 00-1.34 1.34 1.34 1.34 0 001.34 1.34 1.34 1.34 0 001.34-1.34zm42.117 4.67a2.06 1.76 84.5 001.555-2.219 2.06 1.76 84.5 00-1.95-1.882 2.06 1.76 84.5 00-1.554 2.22 2.06 1.76 84.5 001.95 1.882zm-48.956-1.026a.98.98 0 00-.11-1.38l-.534-.455a.98.98 0 00-1.381.111l-.558.655a.98.98 0 00.112 1.382l.533.454a.98.98 0 001.381-.111l.558-.656zm35.124.602a1.5 1.5 0 00-1.416-1.58l-.48-.025a1.5 1.5 0 00-1.579 1.416l-.115 2.137a1.5 1.5 0 001.416 1.58l.48.025a1.5 1.5 0 001.579-1.416l.115-2.137zm-41.772 2.84a1.57 1.21 85.5 001.083-1.66 1.57 1.21 85.5 00-1.33-1.471 1.57 1.21 85.5 00-1.082 1.66 1.57 1.21 85.5 001.33 1.47zm34.406-.94a1.31 1.31 0 00-1.379-1.236l-1.238.067a1.31 1.31 0 00-1.237 1.379l.096 1.777a1.31 1.31 0 001.379 1.237l1.238-.067a1.31 1.31 0 001.237-1.379l-.096-1.777zM143.74 484.9a1.2 1.2 0 00-1.2-1.2 1.2 1.2 0 00-1.2 1.2 1.2 1.2 0 001.2 1.2 1.2 1.2 0 001.2-1.2zm28.42 2.34l1.75.01a.62.6 5.8 00.6-.48c.63-2.96-3.1-4.21-3.28-.51a.93.93 0 00.93.98zm-3.96-.64l-2.4-.56a.71.71 0 00-.84.89l.57 2.04a.63.63 0 001.02.31l1.91-1.65q.88-.76-.26-1.03zm-6.593 4.708a1.68 1.55 60.9 00.537-2.222 1.68 1.55 60.9 00-2.171-.714 1.68 1.55 60.9 00-.537 2.222 1.68 1.55 60.9 002.171.714zm119.483.632a2.55 2.55 0 00-2.55-2.55 2.55 2.55 0 00-2.55 2.55 2.55 2.55 0 002.55 2.55 2.55 2.55 0 002.55-2.55zm-43.05 1.49a2.67 2.67 0 00-2.67-2.67 2.67 2.67 0 00-2.67 2.67 2.67 2.67 0 002.67 2.67 2.67 2.67 0 002.67-2.67zm-82.47-1.23a1.21 1.21 0 00-1.21-1.21 1.21 1.21 0 00-1.21 1.21 1.21 1.21 0 001.21 1.21 1.21 1.21 0 001.21-1.21zm66.326 1.024a1.63 1.63 0 00-1.599-1.66l-1.34-.026a1.63 1.63 0 00-1.66 1.598l-.032 1.66a1.63 1.63 0 001.598 1.66l1.34.026a1.63 1.63 0 001.66-1.598l.032-1.66zm34.804 3.146c5.11-3.53-1.9-7.51-3.41-2.67a.96.96 0 00.32 1.04l2.04 1.6a.88.87-43.1 001.05.03zm-106.431-2.5a1.04.87 2.8 00-.996-.919 1.04.87 2.8 00-1.082.818 1.04.87 2.8 00.996.92 1.04.87 2.8 001.082-.818zm-6.166 2.348a1.26 1 77 00.691-1.453 1.26 1 77 00-1.257-1.003 1.26 1 77 00-.691 1.453 1.26 1 77 001.257 1.003zm62.607.028a1.62 1.62 0 00-1.536-1.7l-.5-.025a1.62 1.62 0 00-1.7 1.536l-.084 1.677a1.62 1.62 0 001.536 1.7l.5.025a1.62 1.62 0 001.7-1.536l.084-1.677zM187.9 500.5l1.29-.62a1.1 1.08-10.5 00.61-.87q.27-2.55-2.03-3.23a.83.82 32.3 00-.78.17q-2.44 2.14-.17 4.37a.96.95 54.2 001.08.18zm-6.503-3.13a.84.84 0 00-.865-.813l-1.52.048a.84.84 0 00-.813.866l.084 2.659a.84.84 0 00.866.813l1.519-.048a.84.84 0 00.813-.866l-.084-2.659zm-7.007 4.99l.89-1.98a.66.66 0 00-.47-.91c-3.12-.61-3.1 3.17-.68 3.06a.28.27 10.8 00.26-.17zm-3.96-.37a1.72 1.72 0 00-1.72-1.72 1.72 1.72 0 00-1.72 1.72 1.72 1.72 0 001.72 1.72 1.72 1.72 0 001.72-1.72zm-7.403 2.038a1.89 1.49 65.4 00.568-2.338 1.89 1.49 65.4 00-2.142-1.099 1.89 1.49 65.4 00-.568 2.34 1.89 1.49 65.4 002.142 1.098zm-5.537.442c-.76-2.48-3.03-1.98-2.98.21a.75.75 0 00.72.74l1.49.05a.78.77-7.5 00.77-1zm-10.955 2.778a1.16 1.03 60.3 00.32-1.518 1.16 1.03 60.3 00-1.47-.498 1.16 1.03 60.3 00-.32 1.518 1.16 1.03 60.3 001.47.498zm3.728-.023a.99.85 95.6 00.943-.902.99.85 95.6 00-.75-1.068.99.85 95.6 00-.942.902.99.85 95.6 00.75 1.068z"/><path fill="#fff" d="M408.83 97.57c2.22-.37 5.13-.2 5.12 2.67a.33.33 0 01-.47.3c-1.03-.5-5.1-1.25-5.15-2.36a.6.59-6.1 01.5-.61zM409.6 102.93a.82.82 0 011.56.22l.4 2.83q.16 1.08-.81.56-2.22-1.19-1.15-3.61z"/><path fill="#929495" d="M412.35 111.77q-1.2-.43-1.86-1.53a.64.64 0 01.33-.94l.79-.28a.71.69 65.9 01.86.34l.74 1.42q.82 1.59-.86.99zM254.79 238.25q-.12-2.12-1.79-3.46.5-.27.67-.6a.72.71-57.4 00-.19-.88q-6.28-4.92-14-4.2-19.01-1.54-32.63 11.3a1.41 1.39-18.7 00-.43.85c-1.04 9.28-.06 20.24.38 29.61a.5.5 0 01-.47.53l-12.39.86q-9.1 1.45-14.81 8.46c-1.82 2.25-1.83 7.69-1.5 10.54q.96 8.22.22 16.49a.5.5 0 01-.54.45c-4.82-.36-13.75 5.27-15.73 9.63-1.7 3.76-.5 13.03-.39 17.4a.63.62 82.5 01-.47.62c-1.63.39-7.45 1.74-7.69 3.71a.39.39 0 00.35.44l.37.04-2.71 2.46-.36-.97q-.18-.47-.18-.96-.12-14.03-.71-28.04c-.03-.83-.33-2.75-.76-3.49-4.18-7.21-7.97-13.75-9.36-21.53q-.09-.49-.25-.02c-8.67 26.65-42.1 31.04-51.58 1.51a1.29 1.28 6.5 00-.58-.72c-1.77-1.04-3.33-1.79-4.6-3.5-10.8-14.52-13.5-30.21-4.66-46.31 9.48-17.25 20.98-25.06 40.17-28.99a.87.87 0 00.65-.57q2.87-8.04 10.07-12.71a.59.59 0 00.19-.78c-8.14-14.71-9.1-31.77-.6-46.48 8.48-14.69 25.35-27.05 43.08-26.71 3.16.06 5.64-.89 8.48-1.83 23.46-7.84 51.05-2.46 59.21 24.16a1.37 1.34-88.8 00.81.86c19.88 7.38 21.1 31.05 6.55 44.29a.39.38 39.7 00.06.61c4.76 2.99 10.19 6.18 12.52 11.59q7.68 17.77-2.3 34.27-.43.71-2.1 2.07zm-71.01-8.54l-3.62 3.46a.93.92 33.4 01-.97.19q-13.55-5.11-25.96 2.44c-10.03 6.09-21.91 17.81-17.92 30.97a.26.26 0 00.51-.09c-1.11-17.78 18.41-32.5 35.23-31.59q2.74.15 4.94 1.71a.78.78 0 01.29.89l-1.53 4.69a.91.9-82.8 01-.8.63c-15.11 1.16-23.16 11.55-27.39 25.1q-6.01 19.25 10.85 31.11c1.43 1.01 1.79-.53.88-1.95a1.81 1.62 88.9 00-.38-.41c-10.77-8.43-12.27-19.43-6.85-31.53 4.26-9.53 14.62-20.63 26.21-17.03a.43.43 0 00.55-.34c1.49-9.52 6.02-14.78 13.51-21.07q.38-.31-.11-.38-21.27-2.77-26.65-22.82c-9.43-35.18 21.85-70.95 58.38-53.92q8.47 3.94 11.49 13.79a.39.39 0 00.62.19q.52-.42.21-1.53c-3.51-12.94-17.66-18.46-29.6-18.97-19.48-.84-36.61 12.98-43.46 30.75-2.6 6.76-2.97 14.43-2.97 21.76a.42.42 0 01-.56.4c-11.98-4.22-18.67-18.65-15.34-30.59 2.14-7.69 7.42-17.08 14.14-21.98 5.05-3.68 10.86-4.41 16.54-5.58q.49-.1-.01-.13c-8.93-.45-18.7 1.65-25.13 8.27-13.77 14.19-16.56 37.75-.53 51.74a.56.55-52.5 01.09.73c-6.36 8.98-6.28 19.42 2.36 26.98a.41.41 0 00.59-.55q-6.66-8.95-2.15-18.99c1.5-3.35 3.85-5.13 7.5-3.67a1.9 1.83 50.3 00.98.11l1.79-.26a.77.75-13.3 01.83.5c1.32 3.79 2.1 8.08 4.06 11.34 4.21 6.99 10.99 13 19.18 14.9q.78.18.2.73zm-88.13 48.93c-8.64-6.27-13.79-14.06-12.25-25.08.74-5.2 3.82-11.09 6.27-16.19a.34.34 0 00-.57-.37c-4.12 4.95-7.9 10.25-9.05 16.56q-2.17 11.92 4.95 21.53c2.16 2.91 9.06 7.27 9.4 11.29.19 2.37.14 4.64 1.13 6.74q3.45 7.32 11.75 9.08.49.11.1-.22-4.1-3.41-6.62-8c-5.37-9.78 2.82-19.99 10.99-24.54a.24.24 0 00-.05-.44c-6.54-1.94-15.39-6.82-17.41-13.87-4.24-14.81 7.49-26.99 19.78-32.96a.34.34 0 00-.23-.64c-8.01 1.85-18.96 10.1-22.32 17.65-3.85 8.65-3.99 20.33 3.4 27.32 1.57 1.5 4.15 2.64 6.09 4.22a.58.57 36.3 01.12.76l-4.68 7.01a.56.56 0 01-.8.15z"/><path fill="#afafb0" d="M385.2 126.57l6.95-.42a.32.32 0 01.33.4l-1.64 6.77a.32.32 0 01-.55.13l-5.32-6.36a.32.32 0 01.23-.52z"/><path fill="#fff" d="M376.5 127.1l1.13-.22a.95.94 62.6 01.87.28l5.05 5.41q.96 1.02-.24.28l-5.96-3.68q-.46-.29-.99-.43l-2.95-.75q-.93-.23-.1-.72 1.03-.6 2.12-.24.53.18 1.07.07z"/><path fill="#929495" d="M412.93 141.44l-5.61.23a.35.35 0 01-.35-.46c1.32-3.84 6.74-8.84 9.8-11.85a1.31 1.31 0 012.17.53c2.48 7.56.8 11.4-4.5 16.88a1 .99-61.4 01-.93.28l-8.48-1.74a.83.83 0 01-.66-.84c.05-1.93 3.76-.76 5.31-1.42q.46-.2.96-.17 1.53.09 2.51-.96.47-.51-.22-.48zM425.21 165.18c-.02-4.92-.4-10.64-.46-15.97-.07-6.52-1.13-12.42-1.99-18.67a.72.72 0 011.08-.72q2.85 1.68 6.1 2.29a.56.56 0 01.45.55c.02 6.38-.55 14.11.91 20.27.32 1.33-.22 2.92-.18 4.18.73 25.56 1.17 51.2 3.69 76.65q.2 1.98-1.4.81l-8.18-5.99a.95.95 0 01-.38-.72c-.49-20.93.49-39.26.36-62.68z"/><path fill="#afafb0" d="M435.71 139.5c-2.88.99-1.05 4.15.29 5.71q.25 2.58.12 5.16c-.29 5.98.47 11.6-.15 17.72a.35.35 0 01-.69 0q-.62-6.22-1.17-12.71c-.12-1.47.54-3.63 0-5.54-1.3-4.66.12-10.41-2.23-14.9a.8.79-.1 011.07-1.07l2.9 1.51a.83.82-71.3 01.44.9l-.58 3.22zM440.16 144.02l-.22-7.41a.33.33 0 01.45-.32l6.16 2.24a.33.33 0 01.11.56l-5.95 5.17a.33.33 0 01-.55-.24z"/><path fill="#fff" d="M183.58 228.98c-8.19-1.9-14.97-7.91-19.18-14.9-1.96-3.26-2.74-7.55-4.06-11.34a.77.75-13.3 00-.83-.5l-1.79.26a1.9 1.83 50.3 01-.98-.11c-3.65-1.46-6 .32-7.5 3.67q-4.51 10.04 2.15 18.99a.41.41 0 01-.59.55c-8.64-7.56-8.72-18-2.36-26.98a.56.55-52.5 00-.09-.73c-16.03-13.99-13.24-37.55.53-51.74 6.43-6.62 16.2-8.72 25.13-8.27q.5.03.01.13c-5.68 1.17-11.49 1.9-16.54 5.58-6.72 4.9-12 14.29-14.14 21.98-3.33 11.94 3.36 26.37 15.34 30.59a.42.42 0 00.56-.4c0-7.33.37-15 2.97-21.76 6.85-17.77 23.98-31.59 43.46-30.75 11.94.51 26.09 6.03 29.6 18.97q.31 1.11-.21 1.53a.39.39 0 01-.62-.19q-3.02-9.85-11.49-13.79c-36.53-17.03-67.81 18.74-58.38 53.92q5.38 20.05 26.65 22.82.49.07.11.38c-7.49 6.29-12.02 11.55-13.51 21.07a.43.43 0 01-.55.34c-11.59-3.6-21.95 7.5-26.21 17.03-5.42 12.1-3.92 23.1 6.85 31.53a1.81 1.62 88.9 01.38.41c.91 1.42.55 2.96-.88 1.95q-16.86-11.86-10.85-31.11c4.23-13.55 12.28-23.94 27.39-25.1a.91.9-82.8 00.8-.63l1.53-4.69a.78.78 0 00-.29-.89q-2.2-1.56-4.94-1.71c-16.82-.91-36.34 13.81-35.23 31.59a.26.26 0 01-.51.09c-3.99-13.16 7.89-24.88 17.92-30.97q12.41-7.55 25.96-2.44a.93.92 33.4 00.97-.19l3.62-3.46q.58-.55-.2-.73z"/><path fill="#929495" d="M435.71 139.5q1.04 2.8.29 5.71c-1.34-1.56-3.17-4.72-.29-5.71z"/><path fill="#fff" d="M447.61 149.22c3.87-2.73 6.58-8.24 10.41-8.28a.44.44 0 01.28.79c-2.27 1.79-8.03 7.62-10.59 7.78q-.56.03-.1-.29z"/><path fill="#afafb0" d="M416.91 158.36l.25 1.68a.4.4 0 01-.48.45q-3.89-.84-7.31-2.81-2.12-1.21.28-.78 3.8.67 6.93-1.34.94-.61.7.48l-.34 1.52q-.09.4-.03.8zM416.36 165.08q1.58.66.73 1.9a1.03 1.02-60.3 01-1.27.35q-7.23-3.34-13.93-7.7a.37.37 0 01.35-.64q6.87 3.03 14.12 6.09zM388.15 193.81c.15-7.43.27-14.44.59-21.56q.06-1.29.27-.01 2.08 13.09 3.08 26.3a.43.42-83.8 01-.54.44q-3.49-1.03-3.4-5.17z"/><path fill="#929495" d="M416.33 189.15c.22 3.82.36 10.35-.29 15.62q-.08.6-.38.08-8.59-14.86-13.84-31.24a.43.43 0 01.71-.44q7.19 7.08 13.43 15a1.74 1.72-65.9 01.37.98z"/><path fill="#afafb0" d="M409.68 211.95q4.41 7.2 6.18 10.71.74 1.46.2 3.46-.17.65-.51.07-3.89-6.71-6.11-14.13-.28-.95.24-.11zM420.07 243.17c-6.47-2.74-12.15-8.17-14.86-14.67q-2.42-5.79-2.66-14.27-.02-.51.18-.04 6.56 15.73 17.48 28.79.33.39-.14.19z"/><path fill="#fff" d="M96.45 278.49l4.68-7.01a.58.57 36.3 00-.12-.76c-1.94-1.58-4.52-2.72-6.09-4.22-7.39-6.99-7.25-18.67-3.4-27.32 3.36-7.55 14.31-15.8 22.32-17.65a.34.34 0 01.23.64c-12.29 5.97-24.02 18.15-19.78 32.96 2.02 7.05 10.87 11.93 17.41 13.87a.24.24 0 01.05.44c-8.17 4.55-16.36 14.76-10.99 24.54q2.52 4.59 6.62 8 .39.33-.1.22-8.3-1.76-11.75-9.08c-.99-2.1-.94-4.37-1.13-6.74-.34-4.02-7.24-8.38-9.4-11.29q-7.12-9.61-4.95-21.53c1.15-6.31 4.93-11.61 9.05-16.56a.34.34 0 01.57.37c-2.45 5.1-5.53 10.99-6.27 16.19-1.54 11.02 3.61 18.81 12.25 25.08a.56.56 0 00.8-.15z"/><path fill="#afafb0" d="M253 234.79q-5.95-4.41-13.52-5.68 7.72-.72 14 4.2a.72.71-57.4 01.19.88q-.17.33-.67.6zM409.68 284.77a.44.44 0 01-.61-.41l-.24-38.65a.39.38 3.3 01.43-.38q1 .13 1.04.92c.55 12.23 2.24 24.47 2.23 36.69a.92.91-11.8 01-.56.84l-2.29.99z"/><ellipse fill="#fff" transform="rotate(-38.6 601.287 -588.16)" rx="1.15" ry=".68"/><path fill="#afafb0" d="M416.92 282.08a.52.52 0 01-.46-.76l.52-1.03q.25-.47.23-1c-.28-8.9-1.57-20.43-.62-30.36a.24.24 0 01.47-.01q2.27 16.15 2.7 32.45a.69.68-.8 01-.69.7l-2.15.01z"/><path fill="#929495" d="M430.21 263q-.52-.12-1.02.02a.69.69 0 00-.49.67l.42 16.41c.04 1.44-.53 1.9-1.12 3.11q-2.65-1.74-4.43-4.32a1.75 1.72-63.7 01-.3-.91q-.32-13.06-1.13-21.41-.25-2.5-.01-4.13a.39.38-73.4 01.54-.3c4.72 2.05 8.84 5.25 7.54 10.86z"/><path fill="#afafb0" d="M430.21 263l.1 22.38a.32.32 0 01-.58.19l-1.73-2.36c.59-1.21 1.16-1.67 1.12-3.11l-.42-16.41a.69.69 0 01.49-.67q.5-.14 1.02-.02zM250.71 336q-.21.83-.86.81a.55.54 1.6 01-.53-.55q.09-5.31-.64-15.51c-.84-11.54-.53-29.81-1.81-44.76a1.81 1.79-66.5 00-.35-.9c-7.76-10.03-23.26-6.34-31.5.99a1.12 1.1 69.4 00-.37.83c-.03 19.53-.18 40.44.67 60.57a.84.83-77.9 00.45.71l2.02 1.06-3.43 6.89a.45.45 0 01-.86-.2q.02-33.69-.28-66.94c-.09-9.29 12.87-11.11 21.27-11 5.78.07 14.1 3.72 14.23 10.43q.53 28.81 1.99 57.57z"/><path fill="#929495" d="M250.71 336l.2 6.44a.51.5-1.7 01-.5.52l-9.05.34a.44.43-.6 01-.46-.44l.05-3.24a.72.71-88.4 00-.68-.73q-11.29-.58-22.48.36l-2.02-1.06a.84.83-77.9 01-.45-.71c-.85-20.13-.7-41.04-.67-60.57a1.12 1.1 69.4 01.37-.83c8.24-7.33 23.74-11.02 31.5-.99a1.81 1.79-66.5 01.35.9c1.28 14.95.97 33.22 1.81 44.76q.73 10.2.64 15.51a.55.54 1.6 00.53.55q.65.02.86-.81z"/><path fill="#afafb0" d="M193.94 272.26q-6.08 2.6-11.5 7.69-3.74 3.52-3.59 8.3.3 9.99.07 19.98a.58.57-4.3 01-.48.55q-10.1 1.63-15.81 9.99a1.87 1.79-29.8 00-.32 1.09l.49 15.67a1.69 1.69 0 01-1.66 1.75q-3.65.06-7.39 2.76l-.37-.04a.39.39 0 01-.35-.44c.24-1.97 6.06-3.32 7.69-3.71a.63.62 82.5 00.47-.62c-.11-4.37-1.31-13.64.39-17.4 1.98-4.36 10.91-9.99 15.73-9.63a.5.5 0 00.54-.45q.74-8.27-.22-16.49c-.33-2.85-.32-8.29 1.5-10.54q5.71-7.01 14.81-8.46z"/><path fill="#929495" d="M422.71 292.5q-.42-.53-.93-.56a.53.52-87 00-.57.52l-.14 12.06a.73.72-8.8 01-.51.69q-6.07 1.92-15.32 4.01-1.35.3-.95 1.78-21.42 5.96-42.25 13.75-.32-1.49-1.54-1-6.55 2.63-10.98 4.27c-11.61 4.31-22.69 9.68-34.41 13.8-1.79.63-3.12 2.1-4.69 2.83q-10.4 4.83-20.77 9.7c-1.08.51-2.21 1.64-3.2 2.11q-6.66 3.11-13.21 6.42c-11.16 5.65-22.04 13.12-33.02 19.57-3.97 2.33-8.09 5.42-12.31 7.93-1.54.92-2.54 2.33-3.97 3.31-5.19 3.53-11.29 7.51-17.56 10.33-2.05.92-4.62 3.53-5.78 4.35q-4.02 2.81-7.57 6.19c-1.36 1.29-3.23 1.61-4.35 3.51a1.76 1.75-88.6 01-.68.65c-2.84 1.53-6.41 3.76-8.41 6.32q-.42.54-1.18.64a1.67 1.66-68.3 00-.87.38q-7.74 6.39-16.25 11.72-1.03.64-.87 1.63a.85.85 0 01-.32.81q-.6.46-1.22.09a.64.64 0 00-.81.11q-1.37 1.46-.57 3.12c-1.31 1.16-2.97 2.03-4.18 3.15q-4.55 4.19-9.5 7.9c-2.12 1.59-3.96 3.98-6.38 5.61a1.7 1.6-6.8 00-.61.73q-.98 2.35-3.54 2.57.71-1.14.39-2.34-.13-.53-.4-.05c-.36.68-2.08 4.06-2.87 3.93a.48.48 0 01-.38-.61l.68-2.18q-.28-2.76.66-5.33a.52.52 0 00-.31-.67c-.97-.33-2.7 1.94-3.34 2.66a1.38 1.34-24.2 00-.35.88l-.08 5.96c-.38 1.11-.96 4.96-3.04 3.71l1.63-3.24a1.1 1.08-43.1 00.04-.91q-.87-2.18.07-4.28a.58.58 0 00-.32-.77q-.34-.13-.67-.01c6.88-11.07 18.08-18.83 27-30.11 1.93-2.44 4.57-4.74 6.36-6.81q8.17-9.41 16.6-18.58.33 2.02 1.54 3.56a1.08 1.04-59.2 01.2.87q-.73 3.5 1.42 6.17.26.91.97 1.57a.73.72 52.2 00.83.11l1.04-.53q.24.78 1.03 1.09a.66.66 0 00.78-.23c1.93-2.58 4.82-3.55 6.8-5.28 9.72-8.47 20.45-15.99 30.75-23.75 5.86-4.42 11.85-10.36 18.48-13.99 7.62-4.17 14.55-9.29 22.52-12.78q2.18-.95 4.24-2.44c9.88-7.11 20.48-12.67 31.04-18.68q3.86-2.2 7.61-3.85 16.03-7.09 31.49-15.31c10.02-5.33 19.75-8.21 28.69-12.25q2.37-1.07 5.5-1.97c3.53-1.02 6.62-3.67 9.84-3.6q.5.01.95-.21 3.84-1.84 7.33-2.72c3.61-.92 28.83-7.66 28.24-10.24l5.96-2.06a.36.36 0 01.48.34l.02 3.93zM168.1 426.53c1.59-2.8 7.48-5.55 6.1-8.73q-.18-.43-.16-.89l.1-2.84q.03-.82-.64-.35l-5.59 3.94a1.06 1.04 71.5 00-.45.92l.34 7.88q.02.56.3.07zm-4.62-4.56l-5.06 6.26a1.25 1.21 63 00-.27.88l.37 5.32a.21.21 0 00.32.16q6.96-4.19 4.87-12.57a.13.13 0 00-.23-.05zm-11.97 14.53c.16 1.52-.16 2.45-.39 3.83q-.11.66.48.34l2.29-1.23a.98.97-12.5 00.52-.81l.29-5.19a.28.28 0 00-.33-.28q-3.16.53-2.86 3.34zm-6.44 5.03c-2.17 1.43-.86 5.51-1.64 7.77a.09.09 0 00.06.12l.29.09a.23.22 17.6 00.28-.14q.53-1.44 1.94-1.93a2.2 2.2 0 001.48-2.02l.11-5.32a.32.32 0 00-.45-.3q-.79.32-1.34 1.05-.31.4-.73.68zm-5.84 12.61q2.09-3.08 2.02-6.88a.47.47 0 00-.53-.46c-3.11.43-2.37 5.22-1.99 7.24q.13.66.5.1zm-3.47-2.48c-3.27-.1-3.05 5.85-2.36 7.7a.49.49 0 00.86.11l1.9-2.68a1.06 1.04-37.2 00.14-.94q-.63-1.79-.09-3.57a.49.48-81.1 00-.45-.62z"/><path fill="#afafb0" d="M416.25 290.29c.59 2.58-24.63 9.32-28.24 10.24q-3.49.88-7.33 2.72-.45.22-.95.21c-3.22-.07-6.31 2.58-9.84 3.6q-3.13.9-5.5 1.97c-8.94 4.04-18.67 6.92-28.69 12.25q-15.46 8.22-31.49 15.31-3.75 1.65-7.61 3.85c-10.56 6.01-21.16 11.57-31.04 18.68q-2.06 1.49-4.24 2.44c-7.97 3.49-14.9 8.61-22.52 12.78-6.63 3.63-12.62 9.57-18.48 13.99-10.3 7.76-21.03 15.28-30.75 23.75-1.98 1.73-4.87 2.7-6.8 5.28a.66.66 0 01-.78.23q-.79-.31-1.03-1.09c14.4-11.89 29.47-22.83 44.21-34.3q7.71-5.99 17.02-11.76c56.75-35.13 111.12-62.67 174.06-80.15zM422.71 292.5l-.14 13.06a.67.66 83 01-.49.63L404.29 311q-.4-1.48.95-1.78 9.25-2.09 15.32-4.01a.73.72-8.8 00.51-.69l.14-12.06a.53.52-87 01.57-.52q.51.03.93.56z"/><path fill="#fff" d="M457.93 364.59q-1.35-1.45-1.48-3.36c-.62-9.27-7.38-22.62-11.53-31.05-1.65-3.35-13.98-24.16-17.63-22.43-.54-.78 1.39-12.89 1.5-15.11a.37.37 0 01.64-.24q11.74 12.42 20.65 27.28c6.74 11.25 9.54 25.94 11.5 38.68a1.35 1.34 57.3 01-.2.94l-3.45 5.29z"/><path fill="#929495" d="M207.46 322q-.3-.42-.64-.46a.53.53 0 00-.59.5q-.58 11.1-.3 22.22.05 1.91.49 2.88a1.66 1.65 74.9 01-1.34 2.33l-15.94 1.64a.56.56 0 01-.61-.5q-1.3-11.6-.13-23.19c.29-2.91 0-5.76.14-8.76a1.86 1.83 33.6 00-.2-.95c-5.51-10.63 14.53-13.57 12.66-16q2.86-.8 5.32-.41a1.01.99 4.5 01.84.97l.3 19.73z"/><path fill="#afafb0" d="M201 301.71c1.87 2.43-18.17 5.37-12.66 16a1.86 1.83 33.6 01.2.95c-.14 3 .15 5.85-.14 8.76q-1.17 11.59.13 23.19a.56.56 0 00.61.5l15.94-1.64a1.66 1.65 74.9 001.34-2.33q-.44-.97-.49-2.88-.28-11.12.3-22.22a.53.53 0 01.59-.5q.34.04.64.46c.23 9.41-.08 18.87 1.19 28.22a.77.77 0 01-.69.87l-20.93 2.06a.41.41 0 01-.46-.4q-.62-18.03-1.36-36c-.38-9.39 7.93-13.08 15.79-15.04z"/><path fill="#929495" d="M457.93 364.59l-7.64 11.16q-.12-.63-.55-.99a.54.54 0 00-.76.08q-1.82 2.3-2.84 5.03c-1.48 3.96-4.4 6.79-6.24 10.58q-2.7 5.58-3.57 7.02c-3.78 6.25-7.77 11.29-9.55 18.89a.57.56-76.1 00.4.67q.26.07.53-.03l-5.21 10.8q-.25.52-.27-.06c-1.17-30.79.71-62.77 3.06-92.24q1.11.26 1.23-.75 1.36-10.98.96-23.52-.49-1.7-.19-3.48c3.65-1.73 15.98 19.08 17.63 22.43 4.15 8.43 10.91 21.78 11.53 31.05q.13 1.91 1.48 3.36zm-22.33 13.68q2.48 1.01 4.54.36a1.53 1.52 8.1 00.82-.61q3.01-4.37 2.73-9.77a1.61 1.57 23.7 00-.38-.94l-1.92-2.22q.74-1.04-1.23-.95c-2.18.09-4.64 2.44-5.65 4.17-1.52 2.59-.78 6.41-1.02 9.63a1.19 1.18-84.4 001.03 1.26q1.41.17 1.08-.93z"/><path fill="#fff" d="M427.48 311.23q.4 12.54-.96 23.52-.12 1.01-1.23.75-.02-12.14 2.19-24.27z"/><path fill="#afafb0" d="M362.04 324.75c-23.58 9.61-48.21 19.24-70.75 31.06-23.74 12.43-47.61 26.23-64.1 36.87-22.68 14.65-46.97 33.09-69.69 50.86q-.8-1.66.57-3.12a.64.64 0 01.81-.11q.62.37 1.22-.09a.85.85 0 00.32-.81q-.16-.99.87-1.63 8.51-5.33 16.25-11.72a1.67 1.66-68.3 01.87-.38q.76-.1 1.18-.64c2-2.56 5.57-4.79 8.41-6.32a1.76 1.75-88.6 00.68-.65c1.12-1.9 2.99-2.22 4.35-3.51q3.55-3.38 7.57-6.19c1.16-.82 3.73-3.43 5.78-4.35 6.27-2.82 12.37-6.8 17.56-10.33 1.43-.98 2.43-2.39 3.97-3.31 4.22-2.51 8.34-5.6 12.31-7.93 10.98-6.45 21.86-13.92 33.02-19.57q6.55-3.31 13.21-6.42c.99-.47 2.12-1.6 3.2-2.11q10.37-4.87 20.77-9.7c1.57-.73 2.9-2.2 4.69-2.83 11.72-4.12 22.8-9.49 34.41-13.8q4.43-1.64 10.98-4.27 1.22-.49 1.54 1z"/><path fill="#929495" d="M169.62 339.39q3.17-4.22 8.52-6.71 2.21-1.02 2.23 1.41l.22 19.62a.59.59 0 01-.54.59l-10.53.8a.5.49-5.3 01-.54-.44c-.39-3.54-1.5-12.42.64-15.27zM252.25 356.46l.06-.41a.29.28 8.7 00-.25-.33c-1.02-.1-7.24 4.12-8.8 5.18q-.84.57-3.67 1.74-3.07 1.26-4.24 4.6l-2.1 1.47.26-4.89a.6.6 0 00-.61-.63l-7.61.2a.7.7 0 00-.68.66l-.4 6.7q-1.54 1.43-1.11 3.29a.87.87 0 01-.23.83q-4.98 5.05-11.13 8.62-1.34.77-1.2 3.01l-3.29 2.46q-.86-2.51-.35-5.29a.38.38 0 00-.46-.44l-5.37 1.14a.58.58 0 00-.45.61c.14 1.73-.71 7.87 1.63 7.81-6.05 5.55-12.52 9.47-17.78 15.87a.74.73 29.8 01-.82.22c-1.02-.39-.39-5.02-.4-5.59l.41-.24a.9.9 0 00.45-.78l.05-6.54a.27.27 0 00-.4-.24l-.47.26c-.06-3.27-3.14-7.38-5.88-3.06q-1.87 2.94-3.98 4.99a.54.54 0 01-.92-.38l-.22-10.3q2.68.77 2.46-1.25-1.73-15.51-1.25-25.71l17-1.75q-.24.29-.26.62a.47.47 0 00.5.51c1.37-.1 7.54.03 8.07-.5a1.35 1.3 19.4 01.83-.38c1.46-.13 13.48-.96 13.58-1.44a.26.25 4.5 00-.26-.3q-.66.04-1.21-.26c6.01 1.17 7.79-7.65 9.3-11.95a2.46 2.45 9.3 012.29-1.64l11.91-.14a.68.68 0 01.69.63l.24 3.41a.72.72 0 00.68.66l28.61 1.08q.83.03.11.43l-13.33 7.44zm-32.58 7.795a.26.26 0 00-.254-.265l-6.578-.138a.26.26 0 00-.266.255l-.163 7.778a.26.26 0 00.255.265l6.578.138a.26.26 0 00.266-.255l.163-7.778zm-12.06 8.435a.35.35 0 00.31-.31l.81-7.73a.35.35 0 00-.39-.38l-7.54 1.02a.35.35 0 00-.3.35v7.43a.35.35 0 00.39.35l6.72-.73zm-11.407-6.893a.26.26 0 00-.266-.254l-6.858.156a.26.26 0 00-.254.266l.172 7.578a.26.26 0 00.266.254l6.858-.156a.26.26 0 00.254-.266l-.172-7.578zm-11.09 1.238a.59.59 0 00-.599-.581l-5.919.093a.59.59 0 00-.58.6l.111 7.118a.59.59 0 00.6.581l5.919-.093a.59.59 0 00.58-.6l-.111-7.118zm3.247 19.575a.7.7 0 00-.57.68l-.14 6.8a.7.7 0 00.8.7l8.05-1.22a.7.7 0 00.59-.75l-.51-6.99a.7.7 0 00-.83-.63l-7.39 1.41z"/><path fill="#fff" d="M252.25 356.46l-16.9 10.78q1.17-3.34 4.24-4.6 2.83-1.17 3.67-1.74c1.56-1.06 7.78-5.28 8.8-5.18a.29.28 8.7 01.25.33l-.06.41z"/><path fill="#afafb0" d="M211.75 356.54q.55.3 1.21.26a.26.25 4.5 01.26.3c-.1.48-12.12 1.31-13.58 1.44a1.35 1.3 19.4 00-.83.38c-.53.53-6.7.4-8.07.5a.47.47 0 01-.5-.51q.02-.33.26-.62 10.58-1.41 21.25-1.75zM378.29 377c-.38-.87.26-1.19.43-1.64q3.43-9.03-3.59-15.6a1.32 1.32 0 00-.88-.36c-11.5-.19-4.12 18.04.64 18.14a.36.36 0 01.36.37v.3c-7.9 1.17-13.91-17.93-3.68-19.88 9.34-1.78 13.56 14.75 6.72 18.67z"/><path fill="#929495" d="M378.29 377l-3.04 1.21v-.3a.36.36 0 00-.36-.37c-4.76-.1-12.14-18.33-.64-18.14a1.32 1.32 0 01.88.36q7.02 6.57 3.59 15.6c-.17.45-.81.77-.43 1.64z"/><path fill="#afafb0" d="M151.89 373l1.14-8.27a.34.34 0 01.14-.24l6.89-4.72a.34.34 0 01.48.46l-8.02 12.99a.34.34 0 01-.63-.22zM173.5 360.04q-.48 10.2 1.25 25.71.22 2.02-2.46 1.25-.75-13.21-.49-26.43a.52.51-89.4 01.51-.51l1.19-.02zM165 387.54q-.29.05-.56-.07a.63.62-72.4 01-.37-.72q.97-4.08 1.35-8.24c.08-.84-.32-10.2-.86-10.35a.52.51-75.6 00-.63.38q-.67 2.56-2.61 4.14c-2.78 2.27-2.74 5.2-4.27 8.06q-1.86 3.48-3.01 7.26l-.15-.25a.29.28-30 00-.4-.1q-1.46.88-1.95 2.6l-1.08-2.5 15.1-24.14a.51.51 0 01.94.27c-.01 7.55 1.12 17.2-1.5 23.66z"/><path fill="#fff" d="M233.25 368.71l-4.25 2.83q-2.57.33-4.79-.79l.4-6.7a.7.7 0 01.68-.66l7.61-.2a.6.6 0 01.61.63l-.26 4.89z"/><rect fill="#fff" x="-3.55" y="-4.15" transform="rotate(1.2 -17465.386 10498.808)" width="7.1" height="8.3" rx=".26"/><path fill="#afafb0" d="M441.39 365.09q-9.1 3.51-5.79 13.18.33 1.1-1.08.93a1.19 1.18-84.4 01-1.03-1.26c.24-3.22-.5-7.04 1.02-9.63 1.01-1.73 3.47-4.08 5.65-4.17q1.97-.09 1.23.95z"/><path fill="#fff" d="M207.61 372.69l-6.72.73a.35.35 0 01-.39-.35v-7.43a.35.35 0 01.3-.35l7.54-1.02a.35.35 0 01.39.38l-.81 7.73a.35.35 0 01-.31.31z"/><rect fill="#fff" x="-3.69" y="-4.05" transform="rotate(-1.3 16388.317 -8303.39)" width="7.38" height="8.1" rx=".26"/><path fill="#1e1d1c" d="M441.39 365.09l1.92 2.22a1.61 1.57 23.7 01.38.94q.28 5.4-2.73 9.77a1.53 1.52 8.1 01-.82.61q-2.06.65-4.54-.36-3.31-9.67 5.79-13.18z"/><rect fill="#fff" x="-3.55" y="-4.15" transform="rotate(-.9 23686.637 -11376.726)" width="7.1" height="8.3" rx=".59"/><path fill="#929495" d="M165 387.54c-7.86 10.05-15.47 19.89-24.21 29.21q-.84-3.7-.35-7.48a.42.42 0 00-.77-.29q-3.2 4.99-.84 10.44-.76 2.28-3.04 4.58l.15-.92a1.66 1.59-52.5 00-.1-.9q-.89-2.12-.28-4.32.29-1.04-.49-.3-4.1 3.93-1.61 9.69l-8.96 12.21.7-3.35a1.77 1.71-49.1 00-.05-.88q-.3-.91-.44-1.78-.16-1.08-.86-.24l-3.61 4.35a.65.65 0 00.11.93q1.61 1.22.19 2.67a.96.95 59 00-.23.94q.27.9 1.15.65l-3.17 4q-.87-2.32-.67-4.97.06-.89-.5-.2-2.31 2.8-2.09 6.49a.94.93-81.8 00.61.82q.65.23 1.32-.39l-3.67 5.25c-.36-1.83.49-5.3-2.18-5.11q5.84-9.43 12.61-18.19c2.21-2.85 2.8-5.91 4.7-8.74q2.36-3.49 4.7-7c3.3-4.96 6.44-11.22 10.5-16.43 2.68-3.44 4.49-6.97 6.84-10.53l1.08 2.5q-1.08 5.48-.32 11.12.24 1.75.63.03.43-1.93 1.95-3.19a1.15 1.14 70.1 00.42-.91l-.18-9.3q1.15-3.78 3.01-7.26c1.53-2.86 1.49-5.79 4.27-8.06q1.94-1.58 2.61-4.14a.52.51-75.6 01.63-.38c.54.15.94 9.51.86 10.35q-.38 4.16-1.35 8.24a.63.62-72.4 00.37.72q.27.12.56.07zm-4.45-10.47c-4.27 4.28-2.66 9.77-2.52 14.47a.28.28 0 00.55.05q.52-2.24 2.1-3.93a2.04 2.02-17.4 00.49-.93q.97-4.71.14-9.43-.15-.84-.76-.23zm-15.994 34.395a6.65 1.67 98.6 002.645-6.325 6.65 1.67 98.6 00-.657-6.825 6.65 1.67 98.6 00-2.645 6.325 6.65 1.67 98.6 00.657 6.825zM130.28 425.04l-2.8 3.21a1.53 1.48-25.7 00-.37 1.01l.06 2.67q.01.85.63.27 3.02-2.85 3.03-6.95a.32.31 65.7 00-.55-.21z"/><path fill="#afafb0" d="M224.21 370.75q2.22 1.12 4.79.79l-18.46 14.96q-.14-2.24 1.2-3.01 6.15-3.57 11.13-8.62a.87.87 0 00.23-.83q-.43-1.86 1.11-3.29zM450.29 375.75q-2.83 3.94-7.6 12.44-9.61 17.11-14.98 28.81-.27.1-.53.03a.57.56-76.1 01-.4-.67c1.78-7.6 5.77-12.64 9.55-18.89q.87-1.44 3.57-7.02c1.84-3.79 4.76-6.62 6.24-10.58q1.02-2.73 2.84-5.03a.54.54 0 01.76-.08q.43.36.55.99z"/><path fill="#fff" d="M160.55 377.07q.61-.61.76.23.83 4.72-.14 9.43a2.04 2.02-17.4 01-.49.93q-1.58 1.69-2.1 3.93a.28.28 0 01-.55-.05c-.14-4.7-1.75-10.19 2.52-14.47zM207.25 388.96l-5 3.83c-2.34.06-1.49-6.08-1.63-7.81a.58.58 0 01.45-.61l5.37-1.14a.38.38 0 01.46.44q-.51 2.78.35 5.29zM188.36 386.61l7.39-1.41a.7.7 0 01.83.63l.51 6.99a.7.7 0 01-.59.75l-8.05 1.22a.7.7 0 01-.8-.7l.14-6.8a.7.7 0 01.57-.68zM154.04 388l.18 9.3a1.15 1.14 70.1 01-.42.91q-1.52 1.26-1.95 3.19-.39 1.72-.63-.03-.76-5.64.32-11.12.49-1.72 1.95-2.6a.29.28-30 01.4.1l.15.25z"/><ellipse fill="#fff" transform="rotate(51.1 -279.794 476.141)" rx="2.79" ry="2.5"/><path fill="#afafb0" d="M163.79 408.25q-.48-3.15-.29-7.5.03-.79-1-.54l4.49-5.94a.26.26 0 01.46.16l-.15 7.79a.91.9 21 00.32.71c1.17 1.01-3.07 4.61-3.83 5.32z"/><path fill="#fff" d="M183.25 403.29l.04-7.54.47-.26a.27.27 0 01.4.24l-.05 6.54a.9.9 0 01-.45.78l-.41.24z"/><ellipse fill="#fff" transform="rotate(98.6 -101.355 265.041)" rx="6.65" ry="1.67"/><path fill="#fff" d="M162.5 400.21q1.03-.25 1 .54-.19 4.35.29 7.5l-4.83 6-.62-.65a1.39 1.39 0 01-.39-.86q-.45-4.83 2.01-8.99l2.54-3.54z"/><path fill="#afafb0" d="M178.12 415.35q-2.15-2.67-1.42-6.17a1.08 1.04-59.2 00-.2-.87q-1.21-1.54-1.54-3.56l2.57-2.86q.4-.45.46.15.7 6.52.13 13.31z"/><path fill="#929495" d="M159.96 403.75q-2.46 4.16-2.01 8.99a1.39 1.39 0 00.39.86l.62.65-4.67 5q.74-2.87-.54-5.31a.37.37 0 00-.6-.08q-3.31 3.59-1.94 8.64-1.37 2.63-3.67 4.5l-.06-3.19a.38.37-10.7 00-.51-.34q-4.43 1.71-2.47 6.57l-3.46 3.71-.94-2.13q-.33-.75-.63.02l-1.34 3.41a.74.73-65 00.33.92q.23.13.54.07l-2.21 2.46q-.01-.21-.07-.36a.53.53 0 00-.67-.29q-2.79 1.04-2.98 3.86-.36 1.29-1.36 1.72-3.01.68-4.81 2.95c-1.06 1.34-7.13 9.08-8.36 8.96a.49.49 0 00-.53.41q-.62 3.59-4.01 4.71 3.43-5.95 7.06-9.91 8.61-9.4 15.34-18.61 4.34-5.95 8.23-10.51c5.15-6.02 9.48-12.94 15.33-17.68z"/><circle fill="#fff" cx="242.53" cy="408.82" r="2.64"/><path fill="#fff" d="M140.79 416.75l-1.96 2.67q-2.36-5.45.84-10.44a.42.42 0 01.77.29q-.49 3.78.35 7.48zM154.29 419.25l-3.08 3.25q-1.37-5.05 1.94-8.64a.37.37 0 01.6.08q1.28 2.44.54 5.31zM174.2 417.8c1.38 3.18-4.51 5.93-6.1 8.73q-.28.49-.3-.07l-.34-7.88a1.06 1.04 71.5 01.45-.92l5.59-3.94q.67-.47.64.35l-.1 2.84q-.02.46.16.89z"/><rect fill="#fff" x="-2.31" y="-2.96" transform="rotate(-1.5 16096.407 -8360.186)" width="4.62" height="5.92" rx="1.83"/><path fill="#fff" d="M135.79 424l-2.33 3.25q-2.49-5.76 1.61-9.69.78-.74.49.3-.61 2.2.28 4.32a1.66 1.59-52.5 01.1.9l-.15.92zM163.48 421.97a.13.13 0 01.23.05q2.09 8.38-4.87 12.57a.21.21 0 01-.32-.16l-.37-5.32a1.25 1.21 63 01.27-.88l5.06-6.26zM147.54 427l-3.04 3.04q-1.96-4.86 2.47-6.57a.38.37-10.7 01.51.34l.06 3.19z"/><ellipse fill="#fff" transform="rotate(82.9 -136.849 332.806)" rx="2.85" ry="2.16"/><ellipse fill="#fff" transform="rotate(84.2 -100.078 364.41)" rx="2.79" ry="2.47"/><path fill="#fff" d="M130.28 425.04a.32.31 65.7 01.55.21q-.01 4.1-3.03 6.95-.62.58-.63-.27l-.06-2.67a1.53 1.48-25.7 01.37-1.01l2.8-3.21zM141.04 433.75l-2.04 2.29q-.31.06-.54-.07a.74.73-65 01-.33-.92l1.34-3.41q.3-.77.63-.02l.94 2.13zM124.5 439.46l-3.04 3.29q-.88.25-1.15-.65a.96.95 59 01.23-.94q1.42-1.45-.19-2.67a.65.65 0 01-.11-.93l3.61-4.35q.7-.84.86.24.14.87.44 1.78a1.77 1.71-49.1 01.05.88l-.7 3.35zM151.51 436.5q-.3-2.81 2.86-3.34a.28.28 0 01.33.28l-.29 5.19a.98.97-12.5 01-.52.81l-2.29 1.23q-.59.32-.48-.34c.23-1.38.55-2.31.39-3.83z"/><ellipse fill="#fff" transform="rotate(90.5 -117.405 316.012)" rx="2.9" ry="1.83"/><circle fill="#fff" cx="248.48" cy="435.99" r="2.76"/><path fill="#fff" d="M136.79 438.5q-1.11 2.14-3.72 3.21.19-2.82 2.98-3.86a.53.53 0 01.67.29q.06.15.07.36zM145.8 440.85q.55-.73 1.34-1.05a.32.32 0 01.45.3l-.11 5.32a2.2 2.2 0 01-1.48 2.02q-1.41.49-1.94 1.93a.23.22 17.6 01-.28.14l-.29-.09a.09.09 0 01-.06-.12c.78-2.26-.53-6.34 1.64-7.77q.42-.28.73-.68z"/><ellipse fill="#fff" transform="rotate(101 -68.321 316.31)" rx="3" ry="2.48"/><path fill="#fff" d="M118.29 446.75l-1.33 1.75q-.67.62-1.32.39a.94.93-81.8 01-.61-.82q-.22-3.69 2.09-6.49.56-.69.5.2-.2 2.65.67 4.97z"/><ellipse fill="#fff" transform="rotate(74.2 -202.657 342.893)" rx="2.79" ry="2.08"/><path fill="#fff" d="M131.71 443.43c-.95 2.76-3.49 3.91-5.17 6.19-4.61 6.26-9.87 11.96-14.73 18.03a.39.38 48.2 01-.62-.04c-.94-1.49 1.93-5.8 2.81-7.15q3.39-1.12 4.01-4.71a.49.49 0 01.53-.41c1.23.12 7.3-7.62 8.36-8.96q1.8-2.27 4.81-2.95zM139.23 454.14q-.37.56-.5-.1c-.38-2.02-1.12-6.81 1.99-7.24a.47.47 0 01.53.46q.07 3.8-2.02 6.88zM175.15 452.64q-2.89-2.26-.27-4.85 1.38-1.36 1.84.52.49 1.99-.19 3.92a.89.88 28.4 01-1.38.41z"/><ellipse fill="#fff" transform="rotate(84.1 -142.177 344.175)" rx="2.97" ry="2.54"/><path fill="#fff" d="M111.11 448.64c2.67-.19 1.82 3.28 2.18 5.11l-1.68 2.5q-.22.34-.38-.03-1.57-3.69-.12-7.58zM133.4 459.36c-.69-1.85-.91-7.8 2.36-7.7a.49.48-81.1 01.45.62q-.54 1.78.09 3.57a1.06 1.04-37.2 01-.14.94l-1.9 2.68a.49.49 0 01-.86-.11z"/><ellipse fill="#fff" transform="rotate(78.9 -192.839 328.825)" rx="1.96" ry="1.85"/><path fill="#fff" d="M200.58 459.92a1.85 1.84 80.8 01-2.17-1.57q-.62-4.67 3.45-3.88a.74.74 0 01.59.66l.28 3.64a.83.83 0 01-.67.87l-1.48.28zM130.71 462.25l-3.42 3.5.08-5.96a1.38 1.34-24.2 01.35-.88c.64-.72 2.37-2.99 3.34-2.66a.52.52 0 01.31.67q-.94 2.57-.66 5.33z"/><circle fill="#fff" cx="160.89" cy="459.54" r="1.66"/><path fill="#afafb0" d="M104.79 458.75q1.62 14.12 0 28.25v-28.25z"/><ellipse fill="#fff" transform="rotate(89.6 -139.619 324.702)" rx="2.83" ry="1.84"/><path fill="#afafb0" d="M125 460.25q-.1 2.86-2.39 4.25a.74.72 75 00-.35.63l.07 5.63q.01.45.34.15l1.58-1.45c2.08 1.25 2.66-2.6 3.04-3.71l3.42-3.5-.68 2.18a.48.48 0 00.38.61c.79.13 2.51-3.25 2.87-3.93q.27-.48.4.05.32 1.2-.39 2.34-1.75 2.95-4.62 4.79c-1.36.87-1.75 2.24-2.67 2.96q-8.87 6.94-13.84 11.97-.36.37-.48-.13-.78-3.26.03-6.34-.16 1.71.36 3.32a.55.54 72.1 00.68.35c2.2-.69 3.01-5.06-.04-5.42q4.66-8.62 12.29-14.75zm-8.23 14l-.22.66a.42.42 0 00.44.55c2.84-.26 3.39-4.72 2.88-6.77q-.13-.51-.47-.11c-.67.82-2.9 3.72-2.62 4.72a1.65 1.61 46.3 01-.01.95z"/><path fill="#fff" d="M125 460.25q.33-.12.67.01a.58.58 0 01.32.77q-.94 2.1-.07 4.28a1.1 1.08-43.1 01-.04.91l-1.63 3.24-1.58 1.45q-.33.3-.34-.15l-.07-5.63a.74.72 75 01.35-.63q2.29-1.39 2.39-4.25z"/><rect fill="#fff" x="-2.35" y="-2.6" transform="rotate(-1.6 16747.893 -9665.989)" width="4.7" height="5.2" rx="1.59"/><circle fill="#fff" cx="154.99" cy="463.14" r="1.6"/><path fill="#fff" d="M178.25 463.78q2.72.82 1.93 3.68a1.09 1.06-3.6 01-.64.71c-2.95 1.17-2.97-2.53-2.28-3.96a.84.83 21.2 01.99-.43z"/><circle fill="#fff" cx="252.94" cy="467.16" r="2.5"/><ellipse fill="#fff" transform="rotate(68.7 -267.575 343.61)" rx="1.48" ry="1.21"/><path fill="#fff" d="M116.78 473.3c-.28-1 1.95-3.9 2.62-4.72q.34-.4.47.11c.51 2.05-.04 6.51-2.88 6.77a.42.42 0 01-.44-.55l.22-.66a1.65 1.61 46.3 00.01-.95z"/><ellipse fill="#fff" transform="rotate(91.5 -143.358 318.68)" rx="2.14" ry="1.75"/><ellipse fill="#fff" transform="rotate(70 -219.879 402.446)" rx="3" ry="2.74"/><ellipse fill="#fff" transform="rotate(10.7 -2446.09 1006.647)" rx="1.49" ry="1.23"/><circle fill="#fff" cx="164.17" cy="473.13" r="1.5"/><path fill="#fff" d="M217.47 477.72c-4.55-1.21-2.27-5.82 1.31-5.3a.69.68 2.6 01.59.64l.18 2.96a1.66 1.66 0 01-2.08 1.7z"/><ellipse fill="#fff" transform="rotate(90.5 -165.119 306.612)" rx="1.34" ry="1.15"/><path fill="#fff" d="M112.71 475c3.05.36 2.24 4.73.04 5.42a.55.54 72.1 01-.68-.35q-.52-1.61-.36-3.32l1-1.75z"/><circle fill="#fff" cx="159.19" cy="476.56" r="1.34"/><ellipse fill="#fff" transform="rotate(84.5 -162.543 351.03)" rx="2.06" ry="1.76"/><rect fill="#fff" x="-1.33" y="-1.41" transform="rotate(40.4 -575.652 446.94)" width="2.66" height="2.82" rx=".98"/><rect fill="#fff" x="-1.74" y="-2.57" transform="rotate(3.1 -8808.821 3696.646)" width="3.48" height="5.14" rx="1.5"/><ellipse fill="#fff" transform="rotate(85.5 -187.296 320.509)" rx="1.57" ry="1.21"/><rect fill="#fff" x="-1.93" y="-2.2" transform="rotate(-3.1 9027.594 -3076.245)" width="3.86" height="4.4" rx="1.31"/><circle fill="#fff" cx="142.54" cy="484.9" r="1.2"/><path fill="#fff" d="M172.16 487.24a.93.93 0 01-.93-.98c.18-3.7 3.91-2.45 3.28.51a.62.6 5.8 01-.6.48l-1.75-.01zM168.2 486.6q1.14.27.26 1.03l-1.91 1.65a.63.63 0 01-1.02-.31l-.57-2.04a.71.71 0 01.84-.89l2.4.56z"/><ellipse fill="#fff" transform="rotate(60.9 -336.228 381.676)" rx="1.68" ry="1.55"/><circle fill="#fff" cx="278.54" cy="491.94" r="2.55"/><circle fill="#fff" cx="235.37" cy="493.43" r="2.67"/><circle fill="#fff" cx="154.36" cy="492.2" r="1.21"/><rect fill="#fff" x="-2.3" y="-2.46" transform="rotate(1.1 -25620.954 11683.933)" width="4.6" height="4.92" rx="1.63"/><path fill="#fff" d="M253.29 493.7c1.51-4.84 8.52-.86 3.41 2.67a.88.87-43.1 01-1.05-.03l-2.04-1.6a.96.96 0 01-.32-1.04z"/><ellipse fill="#fff" transform="rotate(2.8 -10028.303 3299.963)" rx="1.04" ry=".87"/><ellipse fill="#fff" transform="rotate(77 -239.234 337.898)" rx="1.26" ry="1"/><rect fill="#fff" x="-1.87" y="-2.46" transform="rotate(2.9 -9714.617 4293.899)" width="3.74" height="4.92" rx="1.62"/><path fill="#fff" d="M186.82 500.32q-2.27-2.23.17-4.37a.83.82 32.3 01.78-.17q2.3.68 2.03 3.23a1.1 1.08-10.5 01-.61.87l-1.29.62a.96.95 54.2 01-1.08-.18z"/><rect fill="#fff" x="-1.6" y="-2.17" transform="rotate(-1.8 15964.32 -5474.64)" width="3.2" height="4.34" rx=".84"/><path fill="#fff" d="M174.39 502.36a.28.27 10.8 01-.26.17c-2.42.11-2.44-3.67.68-3.06a.66.66 0 01.47.91l-.89 1.98z"/><circle fill="#fff" cx="168.71" cy="501.99" r="1.72"/><ellipse fill="#fff" transform="rotate(65.4 -310.094 377.512)" rx="1.89" ry="1.49"/><path fill="#fff" d="M157.49 504.47a.78.77-7.5 01-.77 1l-1.49-.05a.75.75 0 01-.72-.74c-.05-2.19 2.22-2.69 2.98-.21z"/><ellipse fill="#fff" transform="rotate(60.3 -362.798 378.764)" rx="1.16" ry="1.03"/><ellipse fill="#fff" transform="rotate(95.6 -154.335 321.29)" rx=".99" ry=".85"/><path fill="#afafb0" d="M402.29 511.69q-6.63 1.52-13.36 1.41c-11.23-.18-22.37.4-33.59.4a.34.34 0 01-.34-.34v-.3a.55.54-5.1 01.45-.53l1.55-.29 45.29-.35z"/><path fill="#929495" d="M402.29 511.69l9.6-.09q.57 1.26 1.88 1.97a.83.82 14.9 01.43.74l-.17 8.69a.81.8 14.3 00.44.73q.49.25 1.07-.23.55 2.51-.08 5-6.32-3.65-14.71-4.28c-20.93-1.58-38.78 6.68-55.34 18.51a.7.69-25.8 01-1.07-.37c-7.88-27.67-46.05-16.96-65.74-12.1-3.03.75-7.42 3.33-10.38 2.83-7-1.18-14.32-2.84-21.02-3.2q-9.36-.49-18.7.26c-4.58.36-11.4 2.3-16.75 1.87q-9.87-.81-33-4.03-7.42-1.04-25.5-1.26-9.04-.1-38.25 2.23l.26-6.06a1.26 1.25 89.5 011.17-1.2l41.78-2.37q.93 2.06 4.29 1.67 4.3-.5 18.03-.77a1.18 1.17-67.1 00.78-.32q1.11-1.06 2.28-.31a1.75 1.73-30 001.03.27l48.05-2.91a.65.65 0 00.59-.5q.04-.2-.01-.42c16.91-.84 33.95-.97 50.73-1.84q36.48-1.9 73.02-2.16l-1.55.29a.55.54-5.1 00-.45.53v.3a.34.34 0 00.34.34c11.22 0 22.36-.58 33.59-.4q6.73.11 13.36-1.41z"/><path fill="#afafb0" d="M411.89 511.6l3.02-.08a.51.51 0 01.53.51l.1 11.47q-.58.48-1.07.23a.81.8 14.3 01-.44-.73l.17-8.69a.83.82 14.9 00-.43-.74q-1.31-.71-1.88-1.97zM233.25 516.04q.05.22.01.42a.65.65 0 01-.59.5l-48.05 2.91a1.75 1.73-30 01-1.03-.27q-1.17-.75-2.28.31a1.18 1.17-67.1 01-.78.32q-13.73.27-18.03.77-3.36.39-4.29-1.67c15.34-.72 30.69-.78 46.01-1.79q14.5-.96 29.03-1.5zM590.25 589.71l.46.04.29.31v.94h-.81q-5-.63-10 0h-20.25q-19.88-.63-39.75 0h-7.25q-43.38-.63-86.75 0h-2.25q-3.88-.63-7.75 0h-.25q-27.38-.63-54.75 0h-2.25q-2.88-.63-5.75 0h-19.25q-2.88-.63-5.75 0h-.25q-15.38-.63-30.75 0h-.25q-3.38-.63-6.75 0h-3.25q-2.88-.63-5.75 0h-.25q-3.88-.63-7.75 0h-1.75q-3.13-.63-6.25 0h-.25q-15.88-.63-31.75 0h-.25q-3.88-.63-7.75 0h-1.25q-7.38-.63-14.75 0h-4.25q-2.38-.63-4.75 0h-.25q-7.38-.63-14.75 0h-.25q-7.88-.63-15.75 0h-.25q-23.88-.63-47.75 0h-2.25q-2.88-.63-5.75 0h-.25q-7.38-.63-14.75 0H75.94q-12.88-.63-25.75 0H25.94c-5.16-.18-24.88.26-25.94-.56v-.5q3.03.28 6.06.28 291.53.04 583.06.02a1.18 1.16 27.1 00.67-.21l.46-.32z"/><path fill="#1e1d1c" d="M0 590.44c1.06.82 20.78.38 25.94.56H0v-.56zM75.94 591H50.19q12.87-.63 25.75 0zM112.94 591H98.19q7.37-.63 14.75 0zM118.94 591h-5.75q2.87-.63 5.75 0zM168.94 591h-47.75q23.87-.63 47.75 0zM184.94 591h-15.75q7.87-.63 15.75 0zM199.94 591h-14.75q7.37-.63 14.75 0zM204.94 591h-4.75q2.37-.63 4.75 0zM223.94 591h-14.75q7.37-.63 14.75 0zM232.94 591h-7.75q3.87-.63 7.75 0zM264.94 591h-31.75q15.87-.63 31.75 0zM271.44 591h-6.25q3.12-.63 6.25 0z"/><path fill="#929495" d="M280.94 591h-7.75q3.87-.63 7.75 0z"/><path fill="#1e1d1c" d="M286.94 591h-5.75q2.87-.63 5.75 0zM296.94 591h-6.75q3.37-.63 6.75 0zM327.94 591h-30.75q15.37-.63 30.75 0zM333.94 591h-5.75q2.87-.63 5.75 0zM358.94 591h-5.75q2.87-.63 5.75 0zM415.94 591h-54.75q27.37-.63 54.75 0zM423.94 591h-7.75q3.87-.63 7.75 0zM512.94 591h-86.75q43.37-.63 86.75 0zM559.94 591h-39.75q19.87-.63 39.75 0zM590.19 591h-10q5-.63 10 0z"/></svg>