<svg xmlns="http://www.w3.org/2000/svg" viewBox="0 0 591 591"><g stroke-width="2" fill="none"><path stroke="#121111" vector-effect="non-scaling-stroke" d="M590.06 0l.19.29"/><path stroke="#7e7f70" vector-effect="non-scaling-stroke" d="M590.25.29l.04 589.46"/><path stroke="gray" vector-effect="non-scaling-stroke" d="M590.29 589.75l-.54.54"/><path stroke="#7e7f70" vector-effect="non-scaling-stroke" d="M589.75 590.29q-291.28-.02-582.56-.22-3.47 0-6.94-.03"/><path stroke="#121111" vector-effect="non-scaling-stroke" d="M.25 590.04l-.25-.1"/><path stroke="#7e7f70" vector-effect="non-scaling-stroke" d="M586.25 4.51a.26.26 0 00-.26-.26H4.51a.26.26 0 00-.26.26v581.48a.26.26 0 00.26.26h581.48a.26.26 0 00.26-.26V4.51"/><path stroke="#909080" vector-effect="non-scaling-stroke" d="M591 587.31c-.84-.45-.25-537.06-.25-586.81a.25.24-86.1 00-.21-.25q-.17-.02-.29.04"/><path stroke="#fefeef" vector-effect="non-scaling-stroke" d="M591 590.06l-.71-.31"/><path stroke="#fbf1c5" vector-effect="non-scaling-stroke" d="M29.8 27.82c-3.54 3.09-4.76 7.36-4.79 11.93q-.15 20.54.65 41.06.15 4.02.91 6.5a.41.41 0 00.59.24q1.69-.92 3.06-2.34 29.77-30.88 59.69-61.89a.94.94 0 00-.25-1.49l-.57-.29q-.4-.2-.85-.2-20.88-.18-41.75.54c-5.33.18-12.63 2.4-16.69 5.94"/><path stroke="#7e7f70" vector-effect="non-scaling-stroke" d="M395.04 222.25q-6.74-14.98-19.04-25.79"/><path stroke="#909080" vector-effect="non-scaling-stroke" d="M376 196.46c-19.62-15.16-52.87-16.68-57.2 15.05q-.94 6.91 2.2 13.08.23.45.47 0c2.31-4.47 7.3-12.11 12.27-13.37q10.15-2.55 21.35.43c4.7 1.26 7.58 5.18 12.51 5.57 6.86.56 14.92-2.51 18.97 5.42a1.77 1.77 0 01-.38 2.11q-15.49 14.19-29.73 28.8c-2.33 2.39-1.37 5.59-3.8 8.45-5.39 6.32-12.99 12.92-17.44 17.44q-23.71 24.09-47.69 47.86a1.18 1.16 22.8 01-.85.34q-27.94-.24-76.74.55-16.81.27-28.36 1.37c-2.77.26-4.34 1.67-6.6 3.08-4.22 2.63-7.56 8.41-10.51 12.42a.98.97 17.7 01-.79.4q-13.35.06-26.62 1.63c-4.3.51-8.85.37-13.32.74-9.37.77-4.56 22.8-2.24 28.78a.41.41 0 01-.32.55c-9.17 1.46-21.64 2.31-33.79 4.46q-2.04.36-3.86 1.69-5.53 4-11.82 6.7a1.46 1.46 0 00-.7.64q-1.55 2.87-5.76 11.79-4.55 9.64-1.84 18.74c1.36 4.58 12.46 8.17 12.22 11.83q-.53 8.07.25 16.06c1.24 12.79 7.09 25.83 13.4 37.01q2.47 4.38 6.03 7.95c11.91 11.93 23.09 18.23 39.96 28.52 3.73 2.28 7.66 5.54 11.88 7.99q5.92 3.45 8.81 5.46c3.35 2.34 14.27 9.95 17.6 9.69 9.73-.76 19.44-1.22 29.14-2.31q12.32-1.39 24.7-2.47 2.11-.18 3.78-1.35c12.64-8.81 22.49-20.02 33.11-30.66 1.31-1.32 2.71-3.48 4.53-4.9a1.76 1.75-65.6 01.92-.35q38.12-3.18 76.34-5.19 8.45-.45 16.28 2.91c5.33 2.29 11.1 5.47 16.83 6.46 3.58.62 8.32 2.42 10.49 3.02q19.88 5.48 39.53 11.87 2.8.91 5.68.79 15.44-.65 30.87-2.01 9.49-.84 16.2-5.43c4.76-3.26 11.77-10.31 16.94-15.55q2.34-2.38 6.07-7.09c7.9-9.97 16.23-19.66 18.42-33.31.64-3.97.23-8.37.14-12.58a.57.57 0 01.5-.58l13.13-1.55a1.47 1.43 19.2 00.81-.38c2.19-2.1 1.84-4.46.23-6.98q-7.89-12.29-19.5-21.16c-1.62-1.23-3.44-2.92-5.45-3.39q-15.49-3.62-38.26-7.82c-10.06-1.86-19.81-4.5-29.7-6.91-14.87-3.62-30.4-6.46-45.62-9.51-5.65-1.13-11.03-2.87-16.81-3.95q-15.31-2.86-30.17-6.19a.93.93 0 01-.62-1.35c2.9-5.42 14.08-20.78 7.57-27.2a1.52 1.47-17.8 00-.85-.42q-12.4-1.83-24.88-2.84c-4.86-.4-9.64-1.45-14.48-2.22-5.06-.79-8.53-2.87-12.39-5.75a.42.42 0 01-.03-.64q28.85-26.61 57.27-53.67 3.66-3.49 8.22-5.53c5.78-2.58 10.89-7.86 16.17-11.5 6.36-4.36 11.33-9.88 17.12-14.86 3.05-2.62 3.37-6.34 3.12-10.05a.35.35 0 01.52-.32c2.52 1.48 12.61 8.19 8.64 11.8-3.27 2.99-9.07 8.06-10.32 13.24-1.51 6.25-3.47 12.22-5.43 18.34-1.99 6.21-6.03 11.25-8.89 17.71a.36.36 0 00.31.5q7.08.39 14.23-1.29"/><path stroke="#7e7f70" vector-effect="non-scaling-stroke" d="M407.97 303.07q12.49-5.21 18.46-17.02c1.8-3.58 2.5-7.96 3.28-12.02.96-4.96-.6-15.88-3.5-20.03"/><path stroke="#909080" vector-effect="non-scaling-stroke" d="M426.21 254q-7.05-10.95-18.71-16.79a.78.76 22.5 01-.39-.92c1.75-5.57 11.94-11.56 16.68-15.28a.87.87 0 011.38.87c-1.7 8.13-1.25 18.91 5.13 25.28 10.37 10.33 23.01 5.54 32.14-3.31 2.27-2.2 2.96-4.96 4.5-7.68a.34.34 0 01.56-.04c8.2 10.79 24.24 26.16 39.06 15.44q12.14-8.79 6.47-22.11c-.9-2.14-2.49-3.83-4.26-5.17a.54.54 0 01.37-.96c13.52 1.13 28.14-5.11 30.09-19.82 1.25-9.47-5.84-16.32-14.58-18.35q-.48-.11-.09-.41 3.3-2.49 5.59-5.82c3.23-4.7 3.4-13.77.65-18.71-5.1-9.16-16.78-9.16-25.86-10.68a.38.37-72.4 01-.27-.54q2.17-4.45 4.49-8.82c5.52-10.41-3.34-23.64-14.38-25.09-8.36-1.09-13.54 2.71-19.83 7.47a.32.32 0 01-.51-.32c3.1-15.49-1.04-26.56-18.21-28.39-8.13-.86-15.27 7.26-17.29 14.23q-.14.48-.48.11c-7.99-8.71-13.83-14.62-27.01-10.19-5.9 1.98-10.31 5.66-11.17 12.13-1.22 9.16.89 19.6 8.67 25.54q.4.31-.09.42c-2.82.63-5.34-.76-7.7-.54-15.8 1.49-22.43 14.29-16.85 28.33q4.78 12.04 18.89 15.36.48.11.05.33c-7.07 3.69-10.74 8.95-11.16 17.01-.54 10.36 8.34 14.57 16.24 18.12a.46.45 34.4 01.14.73l-10.88 11.19a.3.3 0 01-.48-.07l-2.07-4.3"/><path stroke="#121111" vector-effect="non-scaling-stroke" d="M426.21 254c-.68-.13-1 .15-.83.84 1.25 4.99 3.15 10.36 2.97 15.34q-.78 21.71-20.45 31.85a.45.45 0 00-.17.64l.24.4M376 196.46q-.5-.01-.75.26a.57.57 0 000 .78q2.99 3.13 5.94 6.31c5.11 5.5 8.64 12.63 12.23 19.17a.73.72-19.5 00.76.36q.8-.14.86-1.09"/><path stroke="#5c5c5d" vector-effect="non-scaling-stroke" d="M428.54 181.5q3.43 9.65 7.25 15.43c7.8 11.8 23.57 22.54 38.35 20.96 34.07-3.63 24.94-43.76 12.65-62.14"/><path stroke="#686767" vector-effect="non-scaling-stroke" d="M486.79 155.75c-6.44-11.85-31.61-31.95-48.39-23.4-8.79 4.48-13.08 17.2-13.36 26.39q-.34 11.14 3.5 22.76"/><path stroke="#a0a1a2" vector-effect="non-scaling-stroke" d="M486.79 155.75q-.28.64-.97.59a.88.86-10.8 01-.74-.49c-4.5-9.2-14.73-13.82-22.42-19.89-3.08-2.45-7.12-3.43-11.35-4.53a1.61 1.58 39.1 00-1.04.1q-1.57.73-3.13-.01a1.82 1.79 52.5 00-1.06-.15c-5.31.8-9.42 2.67-12.54 7.31-8.55 12.73-8.92 27.5-4.04 41.29q.53 1.48-.96 1.53"/><path stroke="#909080" vector-effect="non-scaling-stroke" d="M390.46 239.5c1.13 1.15 11.29 9.06 12.69 7.66a.28.28 0 00-.08-.45q-6.91-3.26-11.82-9.25"/><path stroke="#686767" vector-effect="non-scaling-stroke" d="M391.25 237.46q-3.19-3.41-4.52-8.03a.46.46 0 00-.89.23l1.16 5.26a1.39 1.37 61.6 01-.37 1.27l-27.39 27.26a.47.47 0 01-.76-.14l-.9-2.06a.58.58 0 00-.9-.21c-1.37 1.12 3.2 8.2 4.04 9.45 2.22 3.33 5.58 4.54 9.15 5.91a.96.95 32.8 001-.21l.78-.76a.46.46 0 00-.19-.77c-3.15-.92-9.78-1.91-9.33-6.8q.21-2.15 1.65-3.59 9.38-9.34 26.68-24.77"/><path stroke="#d4d4c6" vector-effect="non-scaling-stroke" d="M391.25 237.46q-1.19.59-.79 2.04"/><path stroke="#686767" vector-effect="non-scaling-stroke" d="M325.22 301.59c9.35-9.11 19.12-17.67 27.57-27.67a.67.67 0 00-.36-1.08q-1.5-.35-2.73.86-19.86 19.39-39.86 38.64c-4.63 4.46-10.07 11.16-15.9 16.43q-16.62 15.05-31.47 31.9a1.05 1.02 60.8 00-.24.89c.5 2.33 3.06-.07 3.79-.79 19.9-19.56 39.22-39.73 59.2-59.18"/><path stroke="#929190" vector-effect="non-scaling-stroke" d="M200.21 352.75l-43.96 2.18q-.54.03 0 .1c11.27 1.48 23.7 2.51 33.9 3.63 20.36 2.23 41.35 4.21 61.84 3.49a2.04 2.01 21.1 001.36-.59l23.19-23.31"/><path stroke="#5c5c5d" vector-effect="non-scaling-stroke" d="M276.54 338.25l5.14-5.28q.38-.39-.17-.35c-5.49.34-11.47-.31-16.35-.14q-29.89 1-59.23 1.17a.76.76 0 00-.44 1.37l12.17 8.9a.89.89 0 01-.18 1.54l-17.27 7.29"/><path stroke="#cacbcc" vector-effect="non-scaling-stroke" d="M276.54 338.25q.03-.45-.61-.55a.43.43 0 00-.39.13q-2.59 2.82-5.7 5.21c-3.16 2.42-5.17 4.83-7.71 7.59-.92 1-1.9 2.68-3.27 3.73a1.48 1.46-63.4 01-.9.31q-28.25.2-56.46-1.17-.4-.02-1.29-.75"/><path stroke="#929190" vector-effect="non-scaling-stroke" d="M292.25 352.71l-8.09 7.23q-.39.35.14.33c12.43-.49 24.8-.72 37.14-2.03q15.67-1.65 31.47-3.36a.37.37 0 00.02-.74q-17.33-2.91-35.18-3.18"/><path stroke="#5c5c5d" vector-effect="non-scaling-stroke" d="M317.75 350.96c-7.03-.56-9.82-4.53-15.25-7.5a.68.67-52 00-.79.1l-9.46 9.15"/><path stroke="#cacbcc" vector-effect="non-scaling-stroke" d="M317.75 350.96c-8.42.88-16.88 2.43-25.5 1.75"/><path stroke="#5c5c5d" vector-effect="non-scaling-stroke" d="M121.75 383.29l-30.47 3.42q-.63.07-.18.52l.29.29q.26.25.61.36c20.15 5.87 40.88 10.08 61.37 14.92 7.37 1.75 14.47 8.73 20.28 13.28a.31.31 0 01-.28.54q-19.85-5.82-39.87-10.39c-9.03-2.06-23.75-6.26-40.4-10.16-4.87-1.14-12.08-4.57-17.48-3.21q-.52.13-.01.33l20.92 7.95a.9.88 6.9 01.57.71q.34 2.63.1 5.34-1.15 13.13-1.24 26.31"/><path stroke="#686767" vector-effect="non-scaling-stroke" d="M95.96 433.5q-.18.21-.24.5a.32.32 0 01-.48.19q-11.93-7.43-23.12-15.9c-4.45-3.36-1.17-12.46-.31-17.09a.11.1 15.6 00-.07-.12l-.25-.08a.31.3-69.7 00-.38.18l-4.5 11.77a.93.92 33.4 00.21.99q1.08 1.05.31 2.47a.87.86-53.7 00.15 1.02q6.65 6.63 14.41 11.86c12.6 8.48 24.91 16.79 38.86 23.56 11.37 5.53 20.68 11.57 31.27 16 14.83 6.2 24.63 2.09 37.51-5.34 5.03-2.9 11.63-5.34 16.98-9.41"/><path stroke="#5c5c5d" vector-effect="non-scaling-stroke" d="M206.31 454.1q2.54-.41 5.15-.22c17.43 1.27 37.5.22 60.04-.39q6.71-.19 11.64-2.4"/><path stroke="#929190" vector-effect="non-scaling-stroke" d="M283.14 451.09c.15-7.76-3.64-15.79-7.23-22.72a1.54 1.52.9 00-.66-.67l-3.25-1.74"/><path stroke="#5c5c5d" vector-effect="non-scaling-stroke" d="M272 425.96q-8.51-6.3-18.25-10.42"/><path stroke="#686767" vector-effect="non-scaling-stroke" d="M253.75 415.54q-7.18-4.3-14.53-8.29c-11.21-6.09-21.57-12.27-32.64-13.08q-2.67-.2-5.12-.72-19.26-4.12-38.76-6.72c-11.13-1.49-28.35-5.68-40.95-3.44"/><path stroke="#a0a1a2" vector-effect="non-scaling-stroke" d="M253.75 415.54q.16.69-.21 1.06a1.27 1.25 38.8 01-1.59.16q-10.22-6.71-20.62-12.38c-4.42-2.42-9.37-3.99-14.17-5.98q-4.97-2.05-9.16-2.79c-8.47-1.49-15.77-1.94-25.3-4.37-6.7-1.72-13.55-2.4-20.99-2.92-4.73-.32-9.81-1.53-13.89-2.06-8.45-1.07-15.71-2.85-25-1.97a.9.87 69.4 01-.81-.38q-.19-.27-.26-.62"/><path stroke="#cacbcc" vector-effect="non-scaling-stroke" d="M272 425.96l-1.04.97a1.28 1.28 0 01-.88.35q-36.17.5-72.3 2.04a.35.34-13.6 00-.3.49c1.49 3.15 3.91 2.64 7.68 2.58 22.22-.34 44.94.25 67.07-1.6 3.36-.29 4.94 3.13 4.22 5.92a.46.45 13.3 00.35.56q1.94.41 2.43 2.48 1.28 5.49 3.91 11.34"/><path stroke="#a0a1a2" vector-effect="non-scaling-stroke" d="M206.31 454.1q-1.09-.92-2.83-.67a.64.63-15.4 01-.68-.38c-2.3-5.19-9.4-22.47-14.79-24.1q-13.33-4.04-26.61-8.31a.72.71 26.5 00-.8.26q-.25.34-.35.81"/><path stroke="#5c5c5d" vector-effect="non-scaling-stroke" d="M160.25 421.71q-8.68-3.22-17.72-5.35"/><path stroke="#a0a1a2" vector-effect="non-scaling-stroke" d="M142.53 416.36l-2.36-.08"/><path stroke="#5c5c5d" vector-effect="non-scaling-stroke" d="M140.17 416.28q-4.71-2.53-9.77-4.16c-10.11-3.26-19.9-7.12-30.16-9.99a.4.39 10 00-.51.35l-2.19 32.33"/><path stroke="#a0a1a2" vector-effect="non-scaling-stroke" d="M97.54 434.81l-.71.26a.46.46 0 01-.61-.34l-.26-1.23"/><path stroke="#686767" vector-effect="non-scaling-stroke" d="M97.54 434.81c12.27 9.81 26.33 13.9 39.59 20.77a.28.27-74.5 00.4-.23l2.64-39.07M142.53 416.36q.06 3.86-.17 5.96-1.89 17.15-2.74 34.13a.97.97 0 00.51.9q9.31 5.14 18.78 8.7c5.13 1.93 12.01 1.35 16.66-.48q9.29-3.68 24.76-12.38a.53.53 0 00.22-.69q-6.06-13.14-8.86-18.69c-2.04-4.06-4.66-3.58-8.36-4.59q-11.73-3.2-23.08-7.51"/><path stroke="#929190" vector-effect="non-scaling-stroke" d="M445 411.21l11.67 3.22a1.21 1.21 0 01.71.57c5.16 9.35 12.1 17.38 16.97 26.77a.92.91 75.9 00.83.5l23.82-.29a1.24 1.22-69.6 00.9-.42q.41-.46.39-1.22"/><path stroke="#5c5c5d" vector-effect="non-scaling-stroke" d="M500.29 440.34q.46-1.06 1.8-1.61a.91.91 0 011.09.31l1.72 2.45a1.19 1.19 0 00.93.5q12.83.33 25.43-2.14a.46.45 77.4 00.35-.56q-.44-1.72-1.82-2.79"/><path stroke="#929190" vector-effect="non-scaling-stroke" d="M529.79 436.5c-5.33-7.45-15.79-19.61-25.82-20.8-6.03-.73-11.61-2.3-17.7-2.47"/><path stroke="#686767" vector-effect="non-scaling-stroke" d="M486.27 413.23q-16.79-4.9-33.84-7.64-6.99-1.12-26.76-5.72c-16.17-3.76-31.88-6.69-47.87-9.77-4.43-.85-12.24-1.8-18.29-3.62q-1.08-.33-.33.8a.53.47-3.7 00.26.2c15.01 4.92 31.32 8.09 44.95 11.96q20.34 5.78 40.61 11.77"/><path stroke="#d5d5d6" vector-effect="non-scaling-stroke" d="M486.27 413.23q-12.64.66-25.27-.25-6.82-.5-14.99-2.51-.98-.25-1.01.74"/><path stroke="#cacbcc" vector-effect="non-scaling-stroke" d="M529.79 436.5c-.87.61-1.52.31-2.06-.54q-2.52-3.98-6.21-6.88c-3.75-2.95-5.99-6.08-9.29-9.17-3.06-2.86-12.56-3.14-15.92-3.09q-18.57.29-36.46-1.51a.84.84 0 00-.75 1.36c2.95 3.76 8.54 13.65 12.96 14.35q.63.1.2.58l-.7.79a1.03 1.03 0 00-.22.96c1.33 4.68 4.19 6.79 9.17 7.23q9.89.88 19.78-.24"/><path stroke="#686767" vector-effect="non-scaling-stroke" d="M317.25 413.79q-10.75-4.1-20.65-9.97c-3.44-2.03-6.84-3.44-9.8-6.78a1.17 1.16 70.5 00-.83-.4l-12.22-.35"/><path stroke="#5c5c5d" vector-effect="non-scaling-stroke" d="M273.75 396.29q-17.01.14-35.26 3.57-1.17.22-.26 1 3.11 2.64 7.27 4.6"/><path stroke="#686767" vector-effect="non-scaling-stroke" d="M245.5 405.46q12.74 7.03 26.19 12.56c5.72 2.36 11.42 6.13 17.81 8.27"/><path stroke="#5c5c5d" vector-effect="non-scaling-stroke" d="M289.5 426.29l4.3 1.47a.96.95 28.5 01.45 1.5q-3.74 4.73-4.21 10.68a.56.55 1.1 01-.55.52q-.38.01-.7-.46"/><path stroke="#686767" vector-effect="non-scaling-stroke" d="M288.79 440q-2.29-2.85-5.31-4.91-.42-.28-.19.17 4.01 8.06 5 16.99"/><path stroke="#5c5c5d" vector-effect="non-scaling-stroke" d="M288.29 452.25l.41 4.57a.59.59 0 00.55.53q24.15 1.29 48.26-.51a1.38 1.34 18.6 00.9-.43l5.97-6.53a.92.84 52.3 011.41.24q.12.21 0 1.13"/><path stroke="#686767" vector-effect="non-scaling-stroke" d="M345.79 451.25l-2.91 4.7q-.28.45.25.46c15.46.3 32.26-.98 46.12-1.46q15.99-.55 32.07-1.63"/><path stroke="#5c5c5d" vector-effect="non-scaling-stroke" d="M421.32 453.32l18.25-.99a.8.79 80.1 00.72-1.03c-1.27-4.16-4.19-9.68-3.96-13.94.21-3.91 2.09-14.9-.54-16.36"/><path stroke="#929190" vector-effect="non-scaling-stroke" d="M435.79 421q-1.8-2.08-3.35-2.69-22.33-8.7-45.74-14.08"/><path stroke="#5c5c5d" vector-effect="non-scaling-stroke" d="M386.7 404.23q-14.66-4.79-29.64-8.45"/><path stroke="#909080" vector-effect="non-scaling-stroke" d="M357.06 395.78q-2.74-1.22-5.93-1.12"/><path stroke="#5c5c5d" vector-effect="non-scaling-stroke" d="M351.13 394.66l-4.73-.8"/><path stroke="#929190" vector-effect="non-scaling-stroke" d="M346.4 393.86c-6.87-5.39-13.49-4.51-21.65-4.65"/><path stroke="#5c5c5d" vector-effect="non-scaling-stroke" d="M324.75 389.21c-8.27-.52-18.26.07-25.65 4.28a.63.63 0 00-.1 1.03q10.38 8.99 19.89 18.88.42.44-.19.42l-1.45-.03"/><path stroke="#cacbcc" vector-effect="non-scaling-stroke" d="M324.75 389.21q-1.1-.29-1.9.26-.65.45.14.48l7.55.32a1.34 1.31 66.9 01.84.35c3.09 2.77 5.57 6.31 8.49 8.87q7.92 6.95 15.69 14.42a.38.38 0 00.61-.44l-9.77-19.61"/><path stroke="#c8cabc" vector-effect="non-scaling-stroke" d="M351.13 394.66q2.69 2.18 5.93 1.12"/><path stroke="#cacbcc" vector-effect="non-scaling-stroke" d="M386.7 404.23q8.07 3.46 16.27 6.59c9.95 3.79 21.49 8.93 31.27 11.72q1.48.43 1.55-1.54"/><path stroke="#a0a1a2" vector-effect="non-scaling-stroke" d="M421.32 453.32q-2.39-1.82-5.46-1.24c-6.22 1.17-12.97 1.6-16.37 1.58-7.72-.03-17.07.74-23.07.95q-14.99.5-30 .86a.65.65 0 01-.67-.6q-.13-1.49.44-2.91a.45.44-61.7 00-.15-.53l-.25-.18M288.29 452.25q.3.73 1.07.46a.66.66 0 00.43-.75l-1.74-9.18a1.9 1.84 50.6 01.08-.97l.66-1.81M289.5 426.29q1.17-.24 1.09-1.3a.76.75-85.3 00-.57-.68q-7.15-1.79-13.17-6.01-.44-.31-.97-.37c-2.73-.32-4.66-2.33-6.76-3.1q-7.59-2.82-14.6-6.85c-1.77-1.03-4.23-1.76-6.52-3.24q-1.56-1-2.5.72M273.75 396.29l-2.09.49q-.55.13-.12.49l.85.69q.42.34.95.43 5.57.92 11.18.68a1.42 1.4 60.8 01.86.25q7.3 5.3 10.34 6.95c1.68.92 4.52 1.12 6.59 2.27q6.62 3.69 13.8 6.15a.8.79 30.2 00.85-.22q.25-.28.29-.68"/><path stroke="#5c5c5d" vector-effect="non-scaling-stroke" d="M90 468.96l-.46.04"/><path stroke="#686767" vector-effect="non-scaling-stroke" d="M89.54 469l-3.11-10.41a.51.5-47.8 00-.98.05c-1.39 6.96 1.53 9.71 3.96 15.6 6.02 14.57 19.07 24.31 31.75 32.78 10.23 6.82 20.07 14.16 30.65 20.47 3.59 2.14 9.21 6.03 14.43 8.25a.56.54 26.8 00.68-.21l1.39-2.3a.47.47 0 00-.35-.71l-1.29-.15a1.53 1.48-19.4 01-.83-.38c-1.87-1.7-4.26-2.03-5.98-3.16-3.32-2.16-6.26-5.14-9.79-6.92-3.09-1.55-6.09-3.85-8.89-5.31-7.98-4.18-13.79-10.23-20.85-14.84-7.25-4.72-19.78-11.41-23.16-20.08a.39.38 76.2 01.31-.52c3.43-.4 6.38-1.93 7.46-5.5 1.41-4.64 5.84-19.03-.93-20.73q-.5-.13-.36.36 1.38 4.75 1.46 6.19c.16 2.7-1.06 14.18-4.39 15.83-2.61 1.29-4.2-.01-5.19-2.55q-4.69-12.04.47-25.07.46-1.17-.78-1.64a1.1 1.08-49.4 00-.93.08c-3.78 2.17-4.43 16.84-4.29 20.83"/><path stroke="#a0a1a2" vector-effect="non-scaling-stroke" d="M89.54 469q.54 1.24 1.52 2.12.43.38.47-.18.1-1.36-1.53-1.98"/><path stroke="#5c5c5d" vector-effect="non-scaling-stroke" d="M479.45 458.56c13.14.02 26.69-1.42 39.56-2.38a.59.58 87.4 00.54-.6l-.19-6.88a.61.6.5 00-.59-.59c-12.45-.43-24.61 1.21-36.98 1.94a1.33 1.32-83 00-1.19.94l-1.94 6.51a.82.82 0 00.79 1.06"/><path stroke="#686767" vector-effect="non-scaling-stroke" d="M472.1 457.29c.89-.22 2.3.72 2.85 1.12a1.18 1.18 0 001.85-.71l1.51-7.1a.45.45 0 00-.47-.55l-3.69.26a.75.75 0 00-.67.55l-1.69 6.12a.25.25 0 00.31.31M246.75 459.71c-11.52.13-23.06-.12-34.58.76a.52.52 0 00-.47.63l1.75 8.14a.63.63 0 00.63.5l1.42-.03"/><path stroke="#5c5c5d" vector-effect="non-scaling-stroke" d="M215.5 469.71q32.37-.1 64.66-2.79a.69.68 86.9 00.63-.71l-.23-7.85a.63.63 0 00-.67-.61l-33.14 1.96"/><path stroke="#a0a1a2" vector-effect="non-scaling-stroke" d="M215.5 469.71l-1.42-6.41a.65.65 0 01.56-.78c11.39-1.16 22.47-1.27 33.58-1.52a.66.66 0 00.6-.38l.12-.25a.41.41 0 00-.36-.59l-1.83-.07"/><path stroke="#686767" vector-effect="non-scaling-stroke" d="M99.23 459.53c-2.79-3.19-2.03 7.26-1.92 7.76a.43.43 0 00.7.23c.9-.8-.43-4.83 1.26-7.19a.64.64 0 00-.04-.8"/><path stroke="#5c5c5d" vector-effect="non-scaling-stroke" d="M477.43 462.71l-3.97 8.63q-.3.65.41.57 5.44-.62 10.91-.72c10.04-.18 19.38-1.27 29.09-2.08 5.57-.46 4.18-5.02 4.77-8.72a.66.66 0 00-.69-.76l-40.04 2.75a.56.56 0 00-.48.33"/><path stroke="#686767" vector-effect="non-scaling-stroke" d="M119.86 488.64c-.91 1.81-2.66 2.62-4.21 3.84a.72.71-47.4 01-.82.04c-3.88-2.48-4.93-8.8-4.99-12.96q-.05-4.72.22-8.19.39-4.95 2.99-9.83a1.22 1.22 0 00-1.05-1.79c-3.4-.07-5.43 17.31-5.42 18.58.02 2.95 1.88 13.56 4.8 16.19q2.31 2.07 5.67.5c3.76-1.75 6.75-5.91 7.78-10.22.76-3.19 3.7-16.4-.29-17.88a.37.37 0 00-.5.34c-.08 4.35.36 8.82-.83 12.88q-1.29 4.4-3.35 8.5M474.224 463.33a1.25 1.25 0 00-.645-1.645l-1.815-.793a1.25 1.25 0 00-1.645.645l-3.003 6.873a1.25 1.25 0 00.645 1.645l1.814.793a1.25 1.25 0 001.646-.645l3.003-6.873M209.634 463.331a1.87 1.87 0 00-2.092-1.617l-1.21.155a1.87 1.87 0 00-1.617 2.093l.83 6.487a1.87 1.87 0 002.093 1.617l1.21-.155a1.87 1.87 0 001.617-2.093l-.83-6.487M126.77 500.5c.95 4.6 5.8 12.56 11.47 11.06q5.05-1.33 8.4-7.45c4.11-7.5 3.73-14.64 3.71-22.85q-.02-4.52-4.23-5.18a.58.57-87.2 00-.66.61c.54 8.74 1.46 19.42-3.61 26.91-1.27 1.88-5.58 4.72-8.09 3.38-3.68-1.97-4.55-13.88-4.4-17.84.2-5.56 2.12-10.55 3.9-16.37q.58-1.92-1.05-2.46a.84.82 29 00-.9.25q-1.55 1.83-1.91 4.22-.07.46-.36.83c-1.38 1.76-1.38 3.64-1.84 5.32q-2.54 9.33-.43 19.57"/><path stroke="#686767" vector-effect="non-scaling-stroke" d="M115.47 481.88a.94.94 0 001.14-1.11q-.93-4.55 1.29-8.49a.41.41 0 00-.27-.6l-1.08-.24a1.08 1.07-57.4 00-.89.2c-2.58 2.06-4.88 9.13-.19 10.24M220 474.29l-6 .07a.59.58-86.7 00-.58.52l-.94 8.59a.63.63 0 00.43.67q2.28.72 4.62-.26"/><path stroke="#5c5c5d" vector-effect="non-scaling-stroke" d="M217.53 483.88q30.24-.64 60.54-3.22a.9.89 10 00.75-.52q1.61-3.43 1.11-7.22a.62.61-2.8 00-.59-.53c-17.13-.61-34.85 1.43-50.53 1.45q-5.78.01-8.81.45"/><path stroke="#a0a1a2" vector-effect="non-scaling-stroke" d="M217.53 483.88q-.29-1.93-2.69-1.5a.43.43 0 01-.49-.53l1.34-5.14a.76.76 0 01.61-.55l3.97-.63a.56.56 0 00.4-.82q-.22-.39-.67-.42"/><path stroke="#686767" vector-effect="non-scaling-stroke" d="M468.66 474.937a.77.77 0 00-.282-1.052l-2.616-1.51a.77.77 0 00-1.051.282l-4.53 7.846a.77.77 0 00.281 1.052l2.616 1.51a.77.77 0 001.052-.282l4.53-7.846"/><path stroke="#5c5c5d" vector-effect="non-scaling-stroke" d="M510.93 473.22q-7.9.14-15.85.91c-7.29.71-14.92.58-22.44 1.35"/><path stroke="#686767" vector-effect="non-scaling-stroke" d="M472.64 475.48q-3.76 2.84-5.9 7.07a.61.61 0 00.56.88l14.45-.47"/><path stroke="#5c5c5d" vector-effect="non-scaling-stroke" d="M481.75 482.96q12.92-1.7 25.94-2.42c1.23-.06 2.16-.62 2.62-1.69"/><path stroke="#686767" vector-effect="non-scaling-stroke" d="M510.31 478.85q2.79-2.18 3.2-5.2a.45.45 0 00-.47-.52l-2.11.09"/><path stroke="#a0a1a2" vector-effect="non-scaling-stroke" d="M510.31 478.85q-1.18-2.96.62-5.63M481.75 482.96q.42-.48.24-1.09a.59.58-14.6 00-.67-.39c-1.71.34-9.54 1.69-9.58-1.29a1.08 1.07-21.2 01.37-.83q1.82-1.58.53-3.88"/><path stroke="#686767" vector-effect="non-scaling-stroke" d="M208.26 484.89l.23.23a.39.39 0 00.63-.1q2.2-4.42 1.49-9.37a1.05 1.05 0 00-1.37-.84l-2.6.87a1.11 1.09 1.6 00-.66.61q-1.51 3.6-1.21 7.52a.88.87 87.5 00.87.8h1.96a.92.91-21.9 01.66.28M158.2 525.89c3.62 4.98 9.13 4.48 12.57-.35 2.7-3.79 6.08-7.56 7.48-11.91q5.58-17.34-.61-34.97c-.98-2.8-6.36-1.19-4.07 2.35 4.82 7.45 4.83 21.74 1.43 29.68-1.63 3.8-4.46 10.22-8.4 12.53-3.6 2.1-7.22-1.8-8.11-4.97-3.28-11.75-2.21-23.23.86-35.13.43-1.63-.17-2.63-1.94-2.48a1.19 1.16-72.4 00-.82.44q-1.84 2.31-2.47 5.25c-2.92 13.51-4.68 27.48 4.08 39.56M136.64 493.51a.57.57 0 00.8-.54c-.16-4.39-2.19-6.6 1.53-10.49a.88.88 0 00-.34-1.45l-.69-.25a.93.92-55.8 00-.92.18c-2.99 2.69-5.5 10.27-.38 12.55M452.44 494.74l2.39 1.02a.81.81 0 00.96-.24q3.06-3.93 4.74-8.6a.84.83 32.2 00-.2-.86l-.9-.91a.58.57 41.6 00-.86.05l-6.46 8.23a.85.85 0 00.33 1.31M503.817 486.33a.97.97 0 00-1.023-.914l-39.199 2.192a.97.97 0 00-.914 1.022l.022.4a.97.97 0 001.023.914l39.199-2.192a.97.97 0 00.914-1.022l-.022-.4"/><path stroke="#5c5c5d" vector-effect="non-scaling-stroke" d="M207.19 498.56q.45.22.88.22c21.66-.03 42.81-2.36 64.38-4.02a1.16 1.15-77.9 00.92-.6l3.68-6.93q.37-.7-.42-.63-13.47 1.16-26.97 1.54c-11.35.32-25.69 1.51-38.6 1.17a.84.82-79.5 00-.81.57l-1.11 3.23q-.15.44-.4.85l-2.31 3.86a.48.48 0 00.28.71q.23.07.48.03"/><path stroke="#686767" vector-effect="non-scaling-stroke" d="M206.972 491.426a1.86 1.86 0 00-.856-2.487l-1.438-.702a1.86 1.86 0 00-2.487.857l-2.683 5.5a1.86 1.86 0 00.856 2.487l1.438.702a1.86 1.86 0 002.487-.857l2.683-5.5M164.84 504.95a.26.26 0 00.43-.22c-.4-4.34-.77-7.21 1.47-11.16a.42.41 23.7 00-.24-.6q-1.05-.35-1.74.07c-4.38 2.67-3.15 9.02.08 11.91M497.79 495.916a1.07 1.07 0 00-1.153-.981l-40.729 3.277a1.07 1.07 0 00-.98 1.152l.003.04a1.07 1.07 0 001.152.981l40.729-3.277a1.07 1.07 0 00.98-1.152l-.003-.04M449.55 496.83q-2.42 2.08-4.27 5.68-.81 1.55.27 2.86a.67.67 0 001.03.01l1.27-1.5q.28-.34.67-.55 3.36-1.77 3.15-5.6a1.29 1.28-22 00-2.12-.9M212.14 502.84c-1.42-.22-7.75-.61-7.5 1.37a.66.66 0 00.59.57q8.5.75 21.02.23c11.17-.47 19.86-.65 28.46-2.08 2.63-.44 7.87.05 8.84-1.34a.73.72-75.1 00-.66-1.14q-24.09 2.35-48.15 2.15c-.47-.01-1.38-.26-1.76.03a1.1 1.06-58.1 01-.84.21M200.621 504.043a1.1 1.1 0 00-.397-1.504l-2.04-1.187a1.1 1.1 0 00-1.504.397l-3.601 6.188a1.1 1.1 0 00.397 1.504l2.04 1.187a1.1 1.1 0 001.504-.397l3.601-6.188M443.273 509.68a1.64 1.18 56.6 00.082-2.02 1.64 1.18 56.6 00-1.888-.72 1.64 1.18 56.6 00-.082 2.02 1.64 1.18 56.6 001.888.72M441.266 512.537a1.7 1.03 61.7 00.1-1.985 1.7 1.03 61.7 00-1.712-1.009 1.7 1.03 61.7 00-.1 1.985 1.7 1.03 61.7 001.712 1.009M197.85 515.24c1.26 1.37 57.49-.92 59.31-2.77q.41-.43-.18-.42c-13.5.15-25.64.66-40.51.98q-9.17.19-18.34 1.44a.46.46 0 00-.28.77M192.97 515.44a.81.81 0 00-.19-1.04l-1.76-1.43a.81.81 0 00-1.18.18l-4.34 6.36a.81.81 0 00-.04.85l1.6 2.86a.81.81 0 001.41.01l4.5-7.79M185.526 528.36a2.15 2.15 0 00-.392-3.014l-.174-.135a2.15 2.15 0 00-3.015.392l-3.77 4.896a2.15 2.15 0 00.39 3.015l.175.135a2.15 2.15 0 003.015-.392l3.77-4.896M171.37 539.02l5.08-1.39a1.42 1.42 0 00.75-2.24l-.97-1.24a.88.87 64.8 00-.88-.32l-4.04.88a.76.75-5.2 00-.58.69l-.17 2.97a.64.64 0 00.81.65"/><path stroke="#cacbcc" vector-effect="non-scaling-stroke" d="M452.64 147.9c-6.47 8.44-.55 14.21 4.24 20.8 3.66 5.02 10.6 11.08 17.23 8.62 20.25-7.51-11.01-43.07-21.47-29.42"/><path stroke="#a0a1a2" vector-effect="non-scaling-stroke" d="M442.79 165.5q.04-.52-.72-.55a.77.77 0 00-.79.73l-.18 3.45a.58.57-90 00.6.61q.82-.04.84-.99"/><path stroke="#4a4b4c" vector-effect="non-scaling-stroke" d="M442.54 168.75q.92.98 2.37.77a1.16 1.14 10 00.81-.56q1.14-2-.09-4.09a1.12 1.12 0 00-.8-.54q-1.36-.2-2.04 1.17"/><path stroke="#565656" vector-effect="non-scaling-stroke" d="M442.54 168.75l.25-3.25"/><path stroke="#4a4b4c" vector-effect="non-scaling-stroke" d="M451.745 181.34a1.96 1.45 55.7 00.093-2.437 1.96 1.45 55.7 00-2.303-.802 1.96 1.45 55.7 00-.093 2.436 1.96 1.45 55.7 002.303.802M441.389 184.791a2.87 1.86 75.7 001.093-3.24 2.87 1.86 75.7 00-2.51-2.322 2.87 1.86 75.7 00-1.094 3.24 2.87 1.86 75.7 002.51 2.322"/><path stroke="#a0a1a2" vector-effect="non-scaling-stroke" d="M464.38 182.12q-.52 1.74 1.15 2.52.93.44.53-.51l-.85-2.05q-.47-1.13-.83.04"/><path stroke="#4a4b4c" vector-effect="non-scaling-stroke" d="M480.19 186.23l-.32-2.41a.62.62 0 00-.85-.49c-2.21.91-1.97 3.97.58 3.66a.68.67 82.9 00.59-.76"/><path stroke="#5c5c5d" vector-effect="non-scaling-stroke" d="M446.93 186.35c-4.14-1.48-3.74 8.97 2.39 4.88"/><path stroke="#a0a1a2" vector-effect="non-scaling-stroke" d="M449.32 191.23q2.36-.2 1.81-2.71c-.45-1.99-2.28-3.06-4.2-2.17"/><path stroke="#686767" vector-effect="non-scaling-stroke" d="M449.32 191.23q1.1-3.75-2.39-4.88"/><path stroke="#5c5c5d" vector-effect="non-scaling-stroke" d="M466.8 197.4c.86 2.46 5.32 7.05 7.29 2.66q.9-2 .64-4.44"/><path stroke="#a0a1a2" vector-effect="non-scaling-stroke" d="M474.73 195.62q-1.33-6.32-7.72-4.49a.91.91 0 00-.62.62c-.37 1.34-3.39 6.4.41 5.65"/><path stroke="#686767" vector-effect="non-scaling-stroke" d="M474.73 195.62q-1.18-1.24-2.33-2.26c-4.09-3.64-5.8.25-5.6 4.04"/><path stroke="#5c5c5d" vector-effect="non-scaling-stroke" d="M456.758 200.193a3.08 2.2 70.5 001.046-3.637 3.08 2.2 70.5 00-3.102-2.17 3.08 2.2 70.5 00-1.046 3.638 3.08 2.2 70.5 003.102 2.17"/><path stroke="#4a4b4c" vector-effect="non-scaling-stroke" d="M464.39 210.52l.45-2.89a.69.69 0 00-.83-.78l-2.91.65a.56.55-26.8 00-.3.91l2.23 2.51a.78.78 0 001.36-.4"/><path stroke="gray" vector-effect="non-scaling-stroke" d="M456.65 155.6q-.55 2.57.64 4.86a1.1 1.09 48.6 001.87.12q2.14-3.08-.9-5.54a1 1 0 00-1.61.56"/><path stroke="#929190" vector-effect="non-scaling-stroke" d="M474.574 167.937a4.55 2.67 65.4 00.534-5.249 4.55 2.67 65.4 00-4.322-3.025 4.55 2.67 65.4 00-.534 5.248 4.55 2.67 65.4 004.322 3.026"/><path stroke="#cacbcc" vector-effect="non-scaling-stroke" d="M266.21 441.2c-.69 3.22 1.8 6.42 5.03 5.54a1.25 1.25 0 00.49-2.14l-4.35-3.79a.72.71-63.3 00-1.17.39"/><path stroke="#a0a1a2" vector-effect="non-scaling-stroke" d="M308.79 433.5l.27 1.59a.55.54-16.4 01-.33.59q-.84.36-1.44 1.07"/><path stroke="#5c5c5d" vector-effect="non-scaling-stroke" d="M307.29 436.75c-1.21-4.32-3.41-9.25-8.28-7.68-4.2 1.35-6.18 7.43-6.74 11.51a.74.71 18 00.39.74c2.75 1.46 10.97.71 14.41.64"/><path stroke="#a0a1a2" vector-effect="non-scaling-stroke" d="M307.07 441.96q1.73-.76 2.98-2.18c1.52-1.73.99-4.09.24-6.03"/><path stroke="#cacbcc" vector-effect="non-scaling-stroke" d="M310.29 433.75c-2.47-9.97-13.94-13.53-24.75-18.77q-5.28-2.55-9.51-3.31-.51-.09-.06.17 10 5.7 19.93 11.54c5.23 3.07 10.08 3.02 12.89 10.12"/><path stroke="#d5d5d6" vector-effect="non-scaling-stroke" d="M310.29 433.75l-.39.25a.57.57 0 01-.72-.09l-.39-.41"/><path stroke="#686767" vector-effect="non-scaling-stroke" d="M307.29 436.75l-.22 5.21"/><path stroke="#cacbcc" vector-effect="non-scaling-stroke" d="M412.5 433.21c-1.38.42-2.59 1.07-4.06 1.1-16.14.33-31.6.85-48.44.92-14.97.05-30.68-.28-45.47 2.31a.57.57 0 00-.47.55c-.04 1.01.94 1.4 1.85 1.39q19.46-.27 38.93.07 1.46.03 3.77-.44c2.9-.59 7.13-.2 8.94-.29q9.43-.5 18.89-.44a1.5 1.49 27.9 00.89-.27q.66-.45 1.73-.45 10.04 0 26.18-.86 1.48-.08 1.55-1.55"/><path stroke="#5c5c5d" vector-effect="non-scaling-stroke" d="M416.79 435.25q.48.21.92.14a.66.66 0 00.55-.59q.63-6.43 4.14-11.86a.82.82 0 00-.43-1.22q-6.51-2.16-13.16-3.46c-6.59-1.29-13.2-3.94-19.94-4.57q-2.28-.21-.45 1.18l24.08 18.34"/><path stroke="#929190" vector-effect="non-scaling-stroke" d="M416.79 435.25q-.66-1.36-1.87-1.12a1.43 1.41-36.4 01-.91-.13l-1.51-.79"/><path stroke="#5c5c5d" vector-effect="non-scaling-stroke" d="M369.58 414.47c4.29 2.41 9.41 4.7 10.55 9.82a.43.42 73.1 00.57.31c3.54-1.38 4.01-4.8 1.01-7.2-3.55-2.82-8.01-2.35-12.06-3.13a.11.11 0 00-.07.2"/><path stroke="#cacbcc" vector-effect="non-scaling-stroke" d="M366.94 424.81q1.27.98 4.83.51.82-.1.03-.36-5.35-1.74-8.8-6.25a.5.49-45.6 00-.79.01c-.83 1.15 3.81 5.38 4.73 6.09"/><path stroke="#5c5c5d" vector-effect="non-scaling-stroke" d="M421.53 436.29q5.37.84 10.78.05a1.25 1.24-2.1 001.06-1.13c.37-4.21 1.4-11.5-5.01-11.51-5.6-.01-7.63 7.81-7.19 12.2a.43.42-88.4 00.36.39"/><path stroke="#686767" vector-effect="non-scaling-stroke" d="M174.84 445.09c-.92 3.68 2.34 5.87 5.42 6.57a.53.53 0 00.64-.42c.39-2.03-4.57-1.98-4.53-6.37a.54.54 0 00-.5-.55q-.83-.08-1.03.77M161.72 456.39l10.41 4.06a.63.63 0 00.65-1.06c-2.81-2.53-5.94-2.3-8.84-4.85a1.25 1.22-72.2 01-.42-.84c-.14-1.79.19-5.21-1.48-6.22a.45.45 0 00-.68.36l-.44 7.31a1.26 1.26 0 00.8 1.24"/><path stroke="#fefeef" vector-effect="non-scaling-stroke" d="M589.94 591l-.19-.71"/><path stroke="#909080" vector-effect="non-scaling-stroke" d="M.25 590.04c-.14.46-.01.72.5.7q6.23-.17 12.44.26M576.44 591q-3.38-.63-6.75 0"/></g><path d="M0 0h590.06l.19.29.04 589.46-.54.54q-291.28-.02-582.56-.22-3.47 0-6.94-.03l-.25-.1V0zm586.25 4.51a.26.26 0 00-.26-.26H4.51a.26.26 0 00-.26.26v581.48a.26.26 0 00.26.26h581.48a.26.26 0 00.26-.26V4.51z"/><path fill="#242221" d="M590.06 0h.94v587.31c-.84-.45-.25-537.06-.25-586.81a.25.24-86.1 00-.21-.25q-.17-.02-.29.04l-.19-.29z"/><path fill="#fcfddf" d="M590.25.29q.12-.06.29-.04a.25.24-86.1 01.21.25c0 49.75-.59 586.36.25 586.81v2.75l-.71-.31L590.25.29zM586.25 585.99a.26.26 0 01-.26.26H4.51a.26.26 0 01-.26-.26V4.51a.26.26 0 01.26-.26h581.48a.26.26 0 01.26.26v581.48zM29.8 27.82c-3.54 3.09-4.76 7.36-4.79 11.93q-.15 20.54.65 41.06.15 4.02.91 6.5a.41.41 0 00.59.24q1.69-.92 3.06-2.34 29.77-30.88 59.69-61.89a.94.94 0 00-.25-1.49l-.57-.29q-.4-.2-.85-.2-20.88-.18-41.75.54c-5.33.18-12.63 2.4-16.69 5.94zm365.24 194.43q-6.74-14.98-19.04-25.79c-19.62-15.16-52.87-16.68-57.2 15.05q-.94 6.91 2.2 13.08.23.45.47 0c2.31-4.47 7.3-12.11 12.27-13.37q10.15-2.55 21.35.43c4.7 1.26 7.58 5.18 12.51 5.57 6.86.56 14.92-2.51 18.97 5.42a1.77 1.77 0 01-.38 2.11q-15.49 14.19-29.73 28.8c-2.33 2.39-1.37 5.59-3.8 8.45-5.39 6.32-12.99 12.92-17.44 17.44q-23.71 24.09-47.69 47.86a1.18 1.16 22.8 01-.85.34q-27.94-.24-76.74.55-16.81.27-28.36 1.37c-2.77.26-4.34 1.67-6.6 3.08-4.22 2.63-7.56 8.41-10.51 12.42a.98.97 17.7 01-.79.4q-13.35.06-26.62 1.63c-4.3.51-8.85.37-13.32.74-9.37.77-4.56 22.8-2.24 28.78a.41.41 0 01-.32.55c-9.17 1.46-21.64 2.31-33.79 4.46q-2.04.36-3.86 1.69-5.53 4-11.82 6.7a1.46 1.46 0 00-.7.64q-1.55 2.87-5.76 11.79-4.55 9.64-1.84 18.74c1.36 4.58 12.46 8.17 12.22 11.83q-.53 8.07.25 16.06c1.24 12.79 7.09 25.83 13.4 37.01q2.47 4.38 6.03 7.95c11.91 11.93 23.09 18.23 39.96 28.52 3.73 2.28 7.66 5.54 11.88 7.99q5.92 3.45 8.81 5.46c3.35 2.34 14.27 9.95 17.6 9.69 9.73-.76 19.44-1.22 29.14-2.31q12.32-1.39 24.7-2.47 2.11-.18 3.78-1.35c12.64-8.81 22.49-20.02 33.11-30.66 1.31-1.32 2.71-3.48 4.53-4.9a1.76 1.75-65.6 01.92-.35q38.12-3.18 76.34-5.19 8.45-.45 16.28 2.91c5.33 2.29 11.1 5.47 16.83 6.46 3.58.62 8.32 2.42 10.49 3.02q19.88 5.48 39.53 11.87 2.8.91 5.68.79 15.44-.65 30.87-2.01 9.49-.84 16.2-5.43c4.76-3.26 11.77-10.31 16.94-15.55q2.34-2.38 6.07-7.09c7.9-9.97 16.23-19.66 18.42-33.31.64-3.97.23-8.37.14-12.58a.57.57 0 01.5-.58l13.13-1.55a1.47 1.43 19.2 00.81-.38c2.19-2.1 1.84-4.46.23-6.98q-7.89-12.29-19.5-21.16c-1.62-1.23-3.44-2.92-5.45-3.39q-15.49-3.62-38.26-7.82c-10.06-1.86-19.81-4.5-29.7-6.91-14.87-3.62-30.4-6.46-45.62-9.51-5.65-1.13-11.03-2.87-16.81-3.95q-15.31-2.86-30.17-6.19a.93.93 0 01-.62-1.35c2.9-5.42 14.08-20.78 7.57-27.2a1.52 1.47-17.8 00-.85-.42q-12.4-1.83-24.88-2.84c-4.86-.4-9.64-1.45-14.48-2.22-5.06-.79-8.53-2.87-12.39-5.75a.42.42 0 01-.03-.64q28.85-26.61 57.27-53.67 3.66-3.49 8.22-5.53c5.78-2.58 10.89-7.86 16.17-11.5 6.36-4.36 11.33-9.88 17.12-14.86 3.05-2.62 3.37-6.34 3.12-10.05a.35.35 0 01.52-.32c2.52 1.48 12.61 8.19 8.64 11.8-3.27 2.99-9.07 8.06-10.32 13.24-1.51 6.25-3.47 12.22-5.43 18.34-1.99 6.21-6.03 11.25-8.89 17.71a.36.36 0 00.31.5q7.08.39 14.23-1.29 12.49-5.21 18.46-17.02c1.8-3.58 2.5-7.96 3.28-12.02.96-4.96-.6-15.88-3.5-20.03q-7.05-10.95-18.71-16.79a.78.76 22.5 01-.39-.92c1.75-5.57 11.94-11.56 16.68-15.28a.87.87 0 011.38.87c-1.7 8.13-1.25 18.91 5.13 25.28 10.37 10.33 23.01 5.54 32.14-3.31 2.27-2.2 2.96-4.96 4.5-7.68a.34.34 0 01.56-.04c8.2 10.79 24.24 26.16 39.06 15.44q12.14-8.79 6.47-22.11c-.9-2.14-2.49-3.83-4.26-5.17a.54.54 0 01.37-.96c13.52 1.13 28.14-5.11 30.09-19.82 1.25-9.47-5.84-16.32-14.58-18.35q-.48-.11-.09-.41 3.3-2.49 5.59-5.82c3.23-4.7 3.4-13.77.65-18.71-5.1-9.16-16.78-9.16-25.86-10.68a.38.37-72.4 01-.27-.54q2.17-4.45 4.49-8.82c5.52-10.41-3.34-23.64-14.38-25.09-8.36-1.09-13.54 2.71-19.83 7.47a.32.32 0 01-.51-.32c3.1-15.49-1.04-26.56-18.21-28.39-8.13-.86-15.27 7.26-17.29 14.23q-.14.48-.48.11c-7.99-8.71-13.83-14.62-27.01-10.19-5.9 1.98-10.31 5.66-11.17 12.13-1.22 9.16.89 19.6 8.67 25.54q.4.31-.09.42c-2.82.63-5.34-.76-7.7-.54-15.8 1.49-22.43 14.29-16.85 28.33q4.78 12.04 18.89 15.36.48.11.05.33c-7.07 3.69-10.74 8.95-11.16 17.01-.54 10.36 8.34 14.57 16.24 18.12a.46.45 34.4 01.14.73l-10.88 11.19a.3.3 0 01-.48-.07l-2.07-4.3z"/><path fill="#f9e4aa" d="M29.8 27.82c4.06-3.54 11.36-5.76 16.69-5.94q20.87-.72 41.75-.54.45 0 .85.2l.57.29a.94.94 0 01.25 1.49Q59.99 54.33 30.22 85.21q-1.37 1.42-3.06 2.34a.41.41 0 01-.59-.24q-.76-2.48-.91-6.5-.8-20.52-.65-41.06c.03-4.57 1.25-8.84 4.79-11.93z"/><path fill="#242221" d="M426.21 254c-.68-.13-1 .15-.83.84 1.25 4.99 3.15 10.36 2.97 15.34q-.78 21.71-20.45 31.85a.45.45 0 00-.17.64l.24.4q-7.15 1.68-14.23 1.29a.36.36 0 01-.31-.5c2.86-6.46 6.9-11.5 8.89-17.71 1.96-6.12 3.92-12.09 5.43-18.34 1.25-5.18 7.05-10.25 10.32-13.24 3.97-3.61-6.12-10.32-8.64-11.8a.35.35 0 00-.52.32c.25 3.71-.07 7.43-3.12 10.05-5.79 4.98-10.76 10.5-17.12 14.86-5.28 3.64-10.39 8.92-16.17 11.5q-4.56 2.04-8.22 5.53-28.42 27.06-57.27 53.67a.42.42 0 00.03.64c3.86 2.88 7.33 4.96 12.39 5.75 4.84.77 9.62 1.82 14.48 2.22q12.48 1.01 24.88 2.84a1.52 1.47-17.8 01.85.42c6.51 6.42-4.67 21.78-7.57 27.2a.93.93 0 00.62 1.35q14.86 3.33 30.17 6.19c5.78 1.08 11.16 2.82 16.81 3.95 15.22 3.05 30.75 5.89 45.62 9.51 9.89 2.41 19.64 5.05 29.7 6.91q22.77 4.2 38.26 7.82c2.01.47 3.83 2.16 5.45 3.39q11.61 8.87 19.5 21.16c1.61 2.52 1.96 4.88-.23 6.98a1.47 1.43 19.2 01-.81.38l-13.13 1.55a.57.57 0 00-.5.58c.09 4.21.5 8.61-.14 12.58-2.19 13.65-10.52 23.34-18.42 33.31q-3.73 4.71-6.07 7.09c-5.17 5.24-12.18 12.29-16.94 15.55q-6.71 4.59-16.2 5.43-15.43 1.36-30.87 2.01-2.88.12-5.68-.79-19.65-6.39-39.53-11.87c-2.17-.6-6.91-2.4-10.49-3.02-5.73-.99-11.5-4.17-16.83-6.46q-7.83-3.36-16.28-2.91-38.22 2.01-76.34 5.19a1.76 1.75-65.6 00-.92.35c-1.82 1.42-3.22 3.58-4.53 4.9-10.62 10.64-20.47 21.85-33.11 30.66q-1.67 1.17-3.78 1.35-12.38 1.08-24.7 2.47c-9.7 1.09-19.41 1.55-29.14 2.31-3.33.26-14.25-7.35-17.6-9.69q-2.89-2.01-8.81-5.46c-4.22-2.45-8.15-5.71-11.88-7.99-16.87-10.29-28.05-16.59-39.96-28.52q-3.56-3.57-6.03-7.95c-6.31-11.18-12.16-24.22-13.4-37.01q-.78-7.99-.25-16.06c.24-3.66-10.86-7.25-12.22-11.83q-2.71-9.1 1.84-18.74 4.21-8.92 5.76-11.79a1.46 1.46 0 01.7-.64q6.29-2.7 11.82-6.7 1.82-1.33 3.86-1.69c12.15-2.15 24.62-3 33.79-4.46a.41.41 0 00.32-.55c-2.32-5.98-7.13-28.01 2.24-28.78 4.47-.37 9.02-.23 13.32-.74q13.27-1.57 26.62-1.63a.98.97 17.7 00.79-.4c2.95-4.01 6.29-9.79 10.51-12.42 2.26-1.41 3.83-2.82 6.6-3.08q11.55-1.1 28.36-1.37 48.8-.79 76.74-.55a1.18 1.16 22.8 00.85-.34q23.98-23.77 47.69-47.86c4.45-4.52 12.05-11.12 17.44-17.44 2.43-2.86 1.47-6.06 3.8-8.45q14.24-14.61 29.73-28.8a1.77 1.77 0 00.38-2.11c-4.05-7.93-12.11-4.86-18.97-5.42-4.93-.39-7.81-4.31-12.51-5.57q-11.2-2.98-21.35-.43c-4.97 1.26-9.96 8.9-12.27 13.37q-.24.45-.47 0-3.14-6.17-2.2-13.08c4.33-31.73 37.58-30.21 57.2-15.05q-.5-.01-.75.26a.57.57 0 000 .78q2.99 3.13 5.94 6.31c5.11 5.5 8.64 12.63 12.23 19.17a.73.72-19.5 00.76.36q.8-.14.86-1.09l2.07 4.3a.3.3 0 00.48.07l10.88-11.19a.46.45 34.4 00-.14-.73c-7.9-3.55-16.78-7.76-16.24-18.12.42-8.06 4.09-13.32 11.16-17.01q.43-.22-.05-.33-14.11-3.32-18.89-15.36c-5.58-14.04 1.05-26.84 16.85-28.33 2.36-.22 4.88 1.17 7.7.54q.49-.11.09-.42c-7.78-5.94-9.89-16.38-8.67-25.54.86-6.47 5.27-10.15 11.17-12.13 13.18-4.43 19.02 1.48 27.01 10.19q.34.37.48-.11c2.02-6.97 9.16-15.09 17.29-14.23 17.17 1.83 21.31 12.9 18.21 28.39a.32.32 0 00.51.32c6.29-4.76 11.47-8.56 19.83-7.47 11.04 1.45 19.9 14.68 14.38 25.09q-2.32 4.37-4.49 8.82a.38.37-72.4 00.27.54c9.08 1.52 20.76 1.52 25.86 10.68 2.75 4.94 2.58 14.01-.65 18.71q-2.29 3.33-5.59 5.82-.39.3.09.41c8.74 2.03 15.83 8.88 14.58 18.35-1.95 14.71-16.57 20.95-30.09 19.82a.54.54 0 00-.37.96c1.77 1.34 3.36 3.03 4.26 5.17q5.67 13.32-6.47 22.11c-14.82 10.72-30.86-4.65-39.06-15.44a.34.34 0 00-.56.04c-1.54 2.72-2.23 5.48-4.5 7.68-9.13 8.85-21.77 13.64-32.14 3.31-6.38-6.37-6.83-17.15-5.13-25.28a.87.87 0 00-1.38-.87c-4.74 3.72-14.93 9.71-16.68 15.28a.78.76 22.5 00.39.92q11.66 5.84 18.71 16.79zm2.33-72.5q3.43 9.65 7.25 15.43c7.8 11.8 23.57 22.54 38.35 20.96 34.07-3.63 24.94-43.76 12.65-62.14-6.44-11.85-31.61-31.95-48.39-23.4-8.79 4.48-13.08 17.2-13.36 26.39q-.34 11.14 3.5 22.76zm-38.08 58c1.13 1.15 11.29 9.06 12.69 7.66a.28.28 0 00-.08-.45q-6.91-3.26-11.82-9.25-3.19-3.41-4.52-8.03a.46.46 0 00-.89.23l1.16 5.26a1.39 1.37 61.6 01-.37 1.27l-27.39 27.26a.47.47 0 01-.76-.14l-.9-2.06a.58.58 0 00-.9-.21c-1.37 1.12 3.2 8.2 4.04 9.45 2.22 3.33 5.58 4.54 9.15 5.91a.96.95 32.8 001-.21l.78-.76a.46.46 0 00-.19-.77c-3.15-.92-9.78-1.91-9.33-6.8q.21-2.15 1.65-3.59 9.38-9.34 26.68-24.77zm-65.24 62.09c9.35-9.11 19.12-17.67 27.57-27.67a.67.67 0 00-.36-1.08q-1.5-.35-2.73.86-19.86 19.39-39.86 38.64c-4.63 4.46-10.07 11.16-15.9 16.43q-16.62 15.05-31.47 31.9a1.05 1.02 60.8 00-.24.89c.5 2.33 3.06-.07 3.79-.79 19.9-19.56 39.22-39.73 59.2-59.18zm-125.01 51.16l-43.96 2.18q-.54.03 0 .1c11.27 1.48 23.7 2.51 33.9 3.63 20.36 2.23 41.35 4.21 61.84 3.49a2.04 2.01 21.1 001.36-.59l23.19-23.31 5.14-5.28q.38-.39-.17-.35c-5.49.34-11.47-.31-16.35-.14q-29.89 1-59.23 1.17a.76.76 0 00-.44 1.37l12.17 8.9a.89.89 0 01-.18 1.54l-17.27 7.29zm92.04-.04l-8.09 7.23q-.39.35.14.33c12.43-.49 24.8-.72 37.14-2.03q15.67-1.65 31.47-3.36a.37.37 0 00.02-.74q-17.33-2.91-35.18-3.18c-7.03-.56-9.82-4.53-15.25-7.5a.68.67-52 00-.79.1l-9.46 9.15zm-170.5 30.58l-30.47 3.42q-.63.07-.18.52l.29.29q.26.25.61.36c20.15 5.87 40.88 10.08 61.37 14.92 7.37 1.75 14.47 8.73 20.28 13.28a.31.31 0 01-.28.54q-19.85-5.82-39.87-10.39c-9.03-2.06-23.75-6.26-40.4-10.16-4.87-1.14-12.08-4.57-17.48-3.21q-.52.13-.01.33l20.92 7.95a.9.88 6.9 01.57.71q.34 2.63.1 5.34-1.15 13.13-1.24 26.31-.18.21-.24.5a.32.32 0 01-.48.19q-11.93-7.43-23.12-15.9c-4.45-3.36-1.17-12.46-.31-17.09a.11.1 15.6 00-.07-.12l-.25-.08a.31.3-69.7 00-.38.18l-4.5 11.77a.93.92 33.4 00.21.99q1.08 1.05.31 2.47a.87.86-53.7 00.15 1.02q6.65 6.63 14.41 11.86c12.6 8.48 24.91 16.79 38.86 23.56 11.37 5.53 20.68 11.57 31.27 16 14.83 6.2 24.63 2.09 37.51-5.34 5.03-2.9 11.63-5.34 16.98-9.41q2.54-.41 5.15-.22c17.43 1.27 37.5.22 60.04-.39q6.71-.19 11.64-2.4c.15-7.76-3.64-15.79-7.23-22.72a1.54 1.52.9 00-.66-.67l-3.25-1.74q-8.51-6.3-18.25-10.42-7.18-4.3-14.53-8.29c-11.21-6.09-21.57-12.27-32.64-13.08q-2.67-.2-5.12-.72-19.26-4.12-38.76-6.72c-11.13-1.49-28.35-5.68-40.95-3.44zM445 411.21l11.67 3.22a1.21 1.21 0 01.71.57c5.16 9.35 12.1 17.38 16.97 26.77a.92.91 75.9 00.83.5l23.82-.29a1.24 1.22-69.6 00.9-.42q.41-.46.39-1.22.46-1.06 1.8-1.61a.91.91 0 011.09.31l1.72 2.45a1.19 1.19 0 00.93.5q12.83.33 25.43-2.14a.46.45 77.4 00.35-.56q-.44-1.72-1.82-2.79c-5.33-7.45-15.79-19.61-25.82-20.8-6.03-.73-11.61-2.3-17.7-2.47q-16.79-4.9-33.84-7.64-6.99-1.12-26.76-5.72c-16.17-3.76-31.88-6.69-47.87-9.77-4.43-.85-12.24-1.8-18.29-3.62q-1.08-.33-.33.8a.53.47-3.7 00.26.2c15.01 4.92 31.32 8.09 44.95 11.96q20.34 5.78 40.61 11.77zm-127.75 2.58q-10.75-4.1-20.65-9.97c-3.44-2.03-6.84-3.44-9.8-6.78a1.17 1.16 70.5 00-.83-.4l-12.22-.35q-17.01.14-35.26 3.57-1.17.22-.26 1 3.11 2.64 7.27 4.6 12.74 7.03 26.19 12.56c5.72 2.36 11.42 6.13 17.81 8.27l4.3 1.47a.96.95 28.5 01.45 1.5q-3.74 4.73-4.21 10.68a.56.55 1.1 01-.55.52q-.38.01-.7-.46-2.29-2.85-5.31-4.91-.42-.28-.19.17 4.01 8.06 5 16.99l.41 4.57a.59.59 0 00.55.53q24.15 1.29 48.26-.51a1.38 1.34 18.6 00.9-.43l5.97-6.53a.92.84 52.3 011.41.24q.12.21 0 1.13l-2.91 4.7q-.28.45.25.46c15.46.3 32.26-.98 46.12-1.46q15.99-.55 32.07-1.63l18.25-.99a.8.79 80.1 00.72-1.03c-1.27-4.16-4.19-9.68-3.96-13.94.21-3.91 2.09-14.9-.54-16.36q-1.8-2.08-3.35-2.69-22.33-8.7-45.74-14.08-14.66-4.79-29.64-8.45-2.74-1.22-5.93-1.12l-4.73-.8c-6.87-5.39-13.49-4.51-21.65-4.65-8.27-.52-18.26.07-25.65 4.28a.63.63 0 00-.1 1.03q10.38 8.99 19.89 18.88.42.44-.19.42l-1.45-.03zM90 468.96l-.46.04-3.11-10.41a.51.5-47.8 00-.98.05c-1.39 6.96 1.53 9.71 3.96 15.6 6.02 14.57 19.07 24.31 31.75 32.78 10.23 6.82 20.07 14.16 30.65 20.47 3.59 2.14 9.21 6.03 14.43 8.25a.56.54 26.8 00.68-.21l1.39-2.3a.47.47 0 00-.35-.71l-1.29-.15a1.53 1.48-19.4 01-.83-.38c-1.87-1.7-4.26-2.03-5.98-3.16-3.32-2.16-6.26-5.14-9.79-6.92-3.09-1.55-6.09-3.85-8.89-5.31-7.98-4.18-13.79-10.23-20.85-14.84-7.25-4.72-19.78-11.41-23.16-20.08a.39.38 76.2 01.31-.52c3.43-.4 6.38-1.93 7.46-5.5 1.41-4.64 5.84-19.03-.93-20.73q-.5-.13-.36.36 1.38 4.75 1.46 6.19c.16 2.7-1.06 14.18-4.39 15.83-2.61 1.29-4.2-.01-5.19-2.55q-4.69-12.04.47-25.07.46-1.17-.78-1.64a1.1 1.08-49.4 00-.93.08c-3.78 2.17-4.43 16.84-4.29 20.83zm389.45-10.4c13.14.02 26.69-1.42 39.56-2.38a.59.58 87.4 00.54-.6l-.19-6.88a.61.6.5 00-.59-.59c-12.45-.43-24.61 1.21-36.98 1.94a1.33 1.32-83 00-1.19.94l-1.94 6.51a.82.82 0 00.79 1.06zm-7.35-1.27c.89-.22 2.3.72 2.85 1.12a1.18 1.18 0 001.85-.71l1.51-7.1a.45.45 0 00-.47-.55l-3.69.26a.75.75 0 00-.67.55l-1.69 6.12a.25.25 0 00.31.31zm-225.35 2.42c-11.52.13-23.06-.12-34.58.76a.52.52 0 00-.47.63l1.75 8.14a.63.63 0 00.63.5l1.42-.03q32.37-.1 64.66-2.79a.69.68 86.9 00.63-.71l-.23-7.85a.63.63 0 00-.67-.61l-33.14 1.96zm-147.52-.18c-2.79-3.19-2.03 7.26-1.92 7.76a.43.43 0 00.7.23c.9-.8-.43-4.83 1.26-7.19a.64.64 0 00-.04-.8zm378.2 3.18l-3.97 8.63q-.3.65.41.57 5.44-.62 10.91-.72c10.04-.18 19.38-1.27 29.09-2.08 5.57-.46 4.18-5.02 4.77-8.72a.66.66 0 00-.69-.76l-40.04 2.75a.56.56 0 00-.48.33zm-357.57 25.93c-.91 1.81-2.66 2.62-4.21 3.84a.72.71-47.4 01-.82.04c-3.88-2.48-4.93-8.8-4.99-12.96q-.05-4.72.22-8.19.39-4.95 2.99-9.83a1.22 1.22 0 00-1.05-1.79c-3.4-.07-5.43 17.31-5.42 18.58.02 2.95 1.88 13.56 4.8 16.19q2.31 2.07 5.67.5c3.76-1.75 6.75-5.91 7.78-10.22.76-3.19 3.7-16.4-.29-17.88a.37.37 0 00-.5.34c-.08 4.35.36 8.82-.83 12.88q-1.29 4.4-3.35 8.5zm354.364-25.31a1.25 1.25 0 00-.645-1.645l-1.815-.793a1.25 1.25 0 00-1.645.645l-3.003 6.873a1.25 1.25 0 00.645 1.645l1.814.793a1.25 1.25 0 001.646-.645l3.003-6.873zm-264.59.001a1.87 1.87 0 00-2.092-1.617l-1.21.155a1.87 1.87 0 00-1.617 2.093l.83 6.487a1.87 1.87 0 002.093 1.617l1.21-.155a1.87 1.87 0 001.617-2.093l-.83-6.487zM126.77 500.5c.95 4.6 5.8 12.56 11.47 11.06q5.05-1.33 8.4-7.45c4.11-7.5 3.73-14.64 3.71-22.85q-.02-4.52-4.23-5.18a.58.57-87.2 00-.66.61c.54 8.74 1.46 19.42-3.61 26.91-1.27 1.88-5.58 4.72-8.09 3.38-3.68-1.97-4.55-13.88-4.4-17.84.2-5.56 2.12-10.55 3.9-16.37q.58-1.92-1.05-2.46a.84.82 29 00-.9.25q-1.55 1.83-1.91 4.22-.07.46-.36.83c-1.38 1.76-1.38 3.64-1.84 5.32q-2.54 9.33-.43 19.57zm-11.3-18.62a.94.94 0 001.14-1.11q-.93-4.55 1.29-8.49a.41.41 0 00-.27-.6l-1.08-.24a1.08 1.07-57.4 00-.89.2c-2.58 2.06-4.88 9.13-.19 10.24zM220 474.29l-6 .07a.59.58-86.7 00-.58.52l-.94 8.59a.63.63 0 00.43.67q2.28.72 4.62-.26 30.24-.64 60.54-3.22a.9.89 10 00.75-.52q1.61-3.43 1.11-7.22a.62.61-2.8 00-.59-.53c-17.13-.61-34.85 1.43-50.53 1.45q-5.78.01-8.81.45zm248.66.647a.77.77 0 00-.282-1.052l-2.616-1.51a.77.77 0 00-1.051.282l-4.53 7.846a.77.77 0 00.281 1.052l2.616 1.51a.77.77 0 001.052-.282l4.53-7.846zm42.27-1.717q-7.9.14-15.85.91c-7.29.71-14.92.58-22.44 1.35q-3.76 2.84-5.9 7.07a.61.61 0 00.56.88l14.45-.47q12.92-1.7 25.94-2.42c1.23-.06 2.16-.62 2.62-1.69q2.79-2.18 3.2-5.2a.45.45 0 00-.47-.52l-2.11.09zm-302.67 11.67l.23.23a.39.39 0 00.63-.1q2.2-4.42 1.49-9.37a1.05 1.05 0 00-1.37-.84l-2.6.87a1.11 1.09 1.6 00-.66.61q-1.51 3.6-1.21 7.52a.88.87 87.5 00.87.8h1.96a.92.91-21.9 01.66.28zm-50.06 41c3.62 4.98 9.13 4.48 12.57-.35 2.7-3.79 6.08-7.56 7.48-11.91q5.58-17.34-.61-34.97c-.98-2.8-6.36-1.19-4.07 2.35 4.82 7.45 4.83 21.74 1.43 29.68-1.63 3.8-4.46 10.22-8.4 12.53-3.6 2.1-7.22-1.8-8.11-4.97-3.28-11.75-2.21-23.23.86-35.13.43-1.63-.17-2.63-1.94-2.48a1.19 1.16-72.4 00-.82.44q-1.84 2.31-2.47 5.25c-2.92 13.51-4.68 27.48 4.08 39.56zm-21.56-32.38a.57.57 0 00.8-.54c-.16-4.39-2.19-6.6 1.53-10.49a.88.88 0 00-.34-1.45l-.69-.25a.93.92-55.8 00-.92.18c-2.99 2.69-5.5 10.27-.38 12.55zm315.8 1.23l2.39 1.02a.81.81 0 00.96-.24q3.06-3.93 4.74-8.6a.84.83 32.2 00-.2-.86l-.9-.91a.58.57 41.6 00-.86.05l-6.46 8.23a.85.85 0 00.33 1.31zm51.377-8.41a.97.97 0 00-1.023-.914l-39.199 2.192a.97.97 0 00-.914 1.022l.022.4a.97.97 0 001.023.914l39.199-2.192a.97.97 0 00.914-1.022l-.022-.4zM207.19 498.56q.45.22.88.22c21.66-.03 42.81-2.36 64.38-4.02a1.16 1.15-77.9 00.92-.6l3.68-6.93q.37-.7-.42-.63-13.47 1.16-26.97 1.54c-11.35.32-25.69 1.51-38.6 1.17a.84.82-79.5 00-.81.57l-1.11 3.23q-.15.44-.4.85l-2.31 3.86a.48.48 0 00.28.71q.23.07.48.03zm-.218-7.134a1.86 1.86 0 00-.856-2.487l-1.438-.702a1.86 1.86 0 00-2.487.857l-2.683 5.5a1.86 1.86 0 00.856 2.487l1.438.702a1.86 1.86 0 002.487-.857l2.683-5.5zM164.84 504.95a.26.26 0 00.43-.22c-.4-4.34-.77-7.21 1.47-11.16a.42.41 23.7 00-.24-.6q-1.05-.35-1.74.07c-4.38 2.67-3.15 9.02.08 11.91zm332.95-9.034a1.07 1.07 0 00-1.153-.981l-40.729 3.277a1.07 1.07 0 00-.98 1.152l.003.04a1.07 1.07 0 001.152.981l40.729-3.277a1.07 1.07 0 00.98-1.152l-.003-.04zm-48.24.914q-2.42 2.08-4.27 5.68-.81 1.55.27 2.86a.67.67 0 001.03.01l1.27-1.5q.28-.34.67-.55 3.36-1.77 3.15-5.6a1.29 1.28-22 00-2.12-.9zm-237.41 6.01c-1.42-.22-7.75-.61-7.5 1.37a.66.66 0 00.59.57q8.5.75 21.02.23c11.17-.47 19.86-.65 28.46-2.08 2.63-.44 7.87.05 8.84-1.34a.73.72-75.1 00-.66-1.14q-24.09 2.35-48.15 2.15c-.47-.01-1.38-.26-1.76.03a1.1 1.06-58.1 01-.84.21zm-11.519 1.203a1.1 1.1 0 00-.397-1.504l-2.04-1.187a1.1 1.1 0 00-1.504.397l-3.601 6.188a1.1 1.1 0 00.397 1.504l2.04 1.187a1.1 1.1 0 001.504-.397l3.601-6.188zm242.652 5.636a1.64 1.18 56.6 00.082-2.019 1.64 1.18 56.6 00-1.888-.72 1.64 1.18 56.6 00-.082 2.02 1.64 1.18 56.6 001.888.72zm-2.007 2.858a1.7 1.03 61.7 00.1-1.985 1.7 1.03 61.7 00-1.712-1.009 1.7 1.03 61.7 00-.1 1.985 1.7 1.03 61.7 001.712 1.009zM197.85 515.24c1.26 1.37 57.49-.92 59.31-2.77q.41-.43-.18-.42c-13.5.15-25.64.66-40.51.98q-9.17.19-18.34 1.44a.46.46 0 00-.28.77zm-4.88.2a.81.81 0 00-.19-1.04l-1.76-1.43a.81.81 0 00-1.18.18l-4.34 6.36a.81.81 0 00-.04.85l1.6 2.86a.81.81 0 001.41.01l4.5-7.79zm-7.444 12.92a2.15 2.15 0 00-.392-3.014l-.174-.135a2.15 2.15 0 00-3.015.392l-3.77 4.896a2.15 2.15 0 00.39 3.015l.175.135a2.15 2.15 0 003.015-.392l3.77-4.896zm-14.156 10.66l5.08-1.39a1.42 1.42 0 00.75-2.24l-.97-1.24a.88.87 64.8 00-.88-.32l-4.04.88a.76.75-5.2 00-.58.69l-.17 2.97a.64.64 0 00.81.65z"/><path fill="#ababac" d="M486.79 155.75q-.28.64-.97.59a.88.86-10.8 01-.74-.49c-4.5-9.2-14.73-13.82-22.42-19.89-3.08-2.45-7.12-3.43-11.35-4.53a1.61 1.58 39.1 00-1.04.1q-1.57.73-3.13-.01a1.82 1.79 52.5 00-1.06-.15c-5.31.8-9.42 2.67-12.54 7.31-8.55 12.73-8.92 27.5-4.04 41.29q.53 1.48-.96 1.53-3.84-11.62-3.5-22.76c.28-9.19 4.57-21.91 13.36-26.39 16.78-8.55 41.95 11.55 48.39 23.4z"/><path fill="#949698" d="M486.79 155.75c12.29 18.38 21.42 58.51-12.65 62.14-14.78 1.58-30.55-9.16-38.35-20.96q-3.82-5.78-7.25-15.43 1.49-.05.96-1.53c-4.88-13.79-4.51-28.56 4.04-41.29 3.12-4.64 7.23-6.51 12.54-7.31a1.82 1.79 52.5 011.06.15q1.56.74 3.13.01a1.61 1.58 39.1 011.04-.1c4.23 1.1 8.27 2.08 11.35 4.53 7.69 6.07 17.92 10.69 22.42 19.89a.88.86-10.8 00.74.49q.69.05.97-.59zm-34.15-7.85c-6.47 8.44-.55 14.21 4.24 20.8 3.66 5.02 10.6 11.08 17.23 8.62 20.25-7.51-11.01-43.07-21.47-29.42zm-9.85 17.6q.04-.52-.72-.55a.77.77 0 00-.79.73l-.18 3.45a.58.57-90 00.6.61q.82-.04.84-.99.92.98 2.37.77a1.16 1.14 10 00.81-.56q1.14-2-.09-4.09a1.12 1.12 0 00-.8-.54q-1.36-.2-2.04 1.17zm8.954 15.84a1.96 1.45 55.7 00.094-2.437 1.96 1.45 55.7 00-2.303-.802 1.96 1.45 55.7 00-.093 2.436 1.96 1.45 55.7 002.303.802zm-10.355 3.451a2.87 1.86 75.7 001.093-3.24 2.87 1.86 75.7 00-2.51-2.322 2.87 1.86 75.7 00-1.094 3.24 2.87 1.86 75.7 002.51 2.322zm22.991-2.671q-.52 1.74 1.15 2.52.93.44.53-.51l-.85-2.05q-.47-1.13-.83.04zm15.81 4.11l-.32-2.41a.62.62 0 00-.85-.49c-2.21.91-1.97 3.97.58 3.66a.68.67 82.9 00.59-.76zm-33.26.12c-4.14-1.48-3.74 8.97 2.39 4.88q2.36-.2 1.81-2.71c-.45-1.99-2.28-3.06-4.2-2.17zm19.87 11.05c.86 2.46 5.32 7.05 7.29 2.66q.9-2 .64-4.44-1.33-6.32-7.72-4.49a.91.91 0 00-.62.62c-.37 1.34-3.39 6.4.41 5.65zm-10.042 2.793a3.08 2.2 70.5 001.046-3.637 3.08 2.2 70.5 00-3.102-2.17 3.08 2.2 70.5 00-1.046 3.638 3.08 2.2 70.5 003.102 2.17zm7.632 10.327l.45-2.89a.69.69 0 00-.83-.78l-2.91.65a.56.55-26.8 00-.3.91l2.23 2.51a.78.78 0 001.36-.4z"/><path fill="#fff" d="M452.64 147.9c10.46-13.65 41.72 21.91 21.47 29.42-6.63 2.46-13.57-3.6-17.23-8.62-4.79-6.59-10.71-12.36-4.24-20.8zm4.01 7.7q-.55 2.57.64 4.86a1.1 1.09 48.6 001.87.12q2.14-3.08-.9-5.54a1 1 0 00-1.61.56zm17.924 12.337a4.55 2.67 65.4 00.534-5.249 4.55 2.67 65.4 00-4.322-3.025 4.55 2.67 65.4 00-.534 5.248 4.55 2.67 65.4 004.322 3.026z"/><path d="M456.65 155.6a1 1 0 011.61-.56q3.04 2.46.9 5.54a1.1 1.09 48.6 01-1.87-.12q-1.19-2.29-.64-4.86z"/><ellipse fill="#242221" transform="rotate(65.4 108.768 450.037)" rx="4.55" ry="2.67"/><path d="M442.54 168.75l.25-3.25q.68-1.37 2.04-1.17a1.12 1.12 0 01.8.54q1.23 2.09.09 4.09a1.16 1.14 10 01-.81.56q-1.45.21-2.37-.77z"/><path fill="#ababac" d="M442.79 165.5l-.25 3.25q-.02.95-.84.99a.58.57-90 01-.6-.61l.18-3.45a.77.77 0 01.79-.73q.76.03.72.55z"/><ellipse transform="rotate(55.7 55.245 516.315)" rx="1.96" ry="1.45"/><ellipse transform="rotate(75.7 103.228 374.554)" rx="2.87" ry="1.86"/><path fill="#ababac" d="M465.21 182.08l.85 2.05q.4.95-.53.51-1.67-.78-1.15-2.52.36-1.17.83-.04z"/><path d="M480.19 186.23a.68.67 82.9 01-.59.76c-2.55.31-2.79-2.75-.58-3.66a.62.62 0 01.85.49l.32 2.41z"/><path fill="#ababac" d="M449.32 191.23q1.1-3.75-2.39-4.88c1.92-.89 3.75.18 4.2 2.17q.55 2.51-1.81 2.71z"/><path fill="#242221" d="M446.93 186.35q3.49 1.13 2.39 4.88c-6.13 4.09-6.53-6.36-2.39-4.88z"/><path fill="#ababac" d="M474.73 195.62q-1.18-1.24-2.33-2.26c-4.09-3.64-5.8.25-5.6 4.04-3.8.75-.78-4.31-.41-5.65a.91.91 0 01.62-.62q6.39-1.83 7.72 4.49z"/><path fill="#242221" d="M474.73 195.62q.26 2.44-.64 4.44c-1.97 4.39-6.43-.2-7.29-2.66-.2-3.79 1.51-7.68 5.6-4.04q1.15 1.02 2.33 2.26z"/><ellipse fill="#242221" transform="rotate(70.5 88.286 421.067)" rx="3.08" ry="2.2"/><path d="M376 196.46q12.3 10.81 19.04 25.79-.06.95-.86 1.09a.73.72-19.5 01-.76-.36c-3.59-6.54-7.12-13.67-12.23-19.17q-2.95-3.18-5.94-6.31a.57.57 0 010-.78q.25-.27.75-.26zM464.39 210.52a.78.78 0 01-1.36.4l-2.23-2.51a.56.55-26.8 01.3-.91l2.91-.65a.69.69 0 01.83.78l-.45 2.89z"/><path fill="#ababac" d="M391.25 237.46q-1.19.59-.79 2.04-17.3 15.43-26.68 24.77-1.44 1.44-1.65 3.59c-.45 4.89 6.18 5.88 9.33 6.8a.46.46 0 01.19.77l-.78.76a.96.95 32.8 01-1 .21c-3.57-1.37-6.93-2.58-9.15-5.91-.84-1.25-5.41-8.33-4.04-9.45a.58.58 0 01.9.21l.9 2.06a.47.47 0 00.76.14l27.39-27.26a1.39 1.37 61.6 00.37-1.27l-1.16-5.26a.46.46 0 01.89-.23q1.33 4.62 4.52 8.03z"/><path fill="#fcfddf" d="M391.25 237.46q4.91 5.99 11.82 9.25a.28.28 0 01.08.45c-1.4 1.4-11.56-6.51-12.69-7.66q-.4-1.45.79-2.04z"/><path d="M426.21 254c2.9 4.15 4.46 15.07 3.5 20.03-.78 4.06-1.48 8.44-3.28 12.02q-5.97 11.81-18.46 17.02l-.24-.4a.45.45 0 01.17-.64q19.67-10.14 20.45-31.85c.18-4.98-1.72-10.35-2.97-15.34-.17-.69.15-.97.83-.84z"/><path fill="#ababac" d="M325.22 301.59c-19.98 19.45-39.3 39.62-59.2 59.18-.73.72-3.29 3.12-3.79.79a1.05 1.02 60.8 01.24-.89q14.85-16.85 31.47-31.9c5.83-5.27 11.27-11.97 15.9-16.43q20-19.25 39.86-38.64 1.23-1.21 2.73-.86a.67.67 0 01.36 1.08c-8.45 10-18.22 18.56-27.57 27.67z"/><path fill="#949698" d="M276.54 338.25q.03-.45-.61-.55a.43.43 0 00-.39.13q-2.59 2.82-5.7 5.21c-3.16 2.42-5.17 4.83-7.71 7.59-.92 1-1.9 2.68-3.27 3.73a1.48 1.46-63.4 01-.9.31q-28.25.2-56.46-1.17-.4-.02-1.29-.75l17.27-7.29a.89.89 0 00.18-1.54l-12.17-8.9a.76.76 0 01.44-1.37q29.34-.17 59.23-1.17c4.88-.17 10.86.48 16.35.14q.55-.04.17.35l-5.14 5.28z"/><path fill="#fff" d="M276.54 338.25l-23.19 23.31a2.04 2.01 21.1 01-1.36.59c-20.49.72-41.48-1.26-61.84-3.49-10.2-1.12-22.63-2.15-33.9-3.63q-.54-.07 0-.1l43.96-2.18q.89.73 1.29.75 28.21 1.37 56.46 1.17a1.48 1.46-63.4 00.9-.31c1.37-1.05 2.35-2.73 3.27-3.73 2.54-2.76 4.55-5.17 7.71-7.59q3.11-2.39 5.7-5.21a.43.43 0 01.39-.13q.64.1.61.55z"/><path fill="#949698" d="M317.75 350.96c-8.42.88-16.88 2.43-25.5 1.75l9.46-9.15a.68.67-52 01.79-.1c5.43 2.97 8.22 6.94 15.25 7.5z"/><path fill="#fff" d="M317.75 350.96q17.85.27 35.18 3.18a.37.37 0 01-.02.74q-15.8 1.71-31.47 3.36c-12.34 1.31-24.71 1.54-37.14 2.03q-.53.02-.14-.33l8.09-7.23c8.62.68 17.08-.87 25.5-1.75z"/><path fill="#ababac" d="M253.75 415.54q.16.69-.21 1.06a1.27 1.25 38.8 01-1.59.16q-10.22-6.71-20.62-12.38c-4.42-2.42-9.37-3.99-14.17-5.98q-4.97-2.05-9.16-2.79c-8.47-1.49-15.77-1.94-25.3-4.37-6.7-1.72-13.55-2.4-20.99-2.92-4.73-.32-9.81-1.53-13.89-2.06-8.45-1.07-15.71-2.85-25-1.97a.9.87 69.4 01-.81-.38q-.19-.27-.26-.62c12.6-2.24 29.82 1.95 40.95 3.44q19.5 2.6 38.76 6.72 2.45.52 5.12.72c11.07.81 21.43 6.99 32.64 13.08q7.35 3.99 14.53 8.29z"/><path fill="#949698" d="M121.75 383.29q.07.35.26.62a.9.87 69.4 00.81.38c9.29-.88 16.55.9 25 1.97 4.08.53 9.16 1.74 13.89 2.06 7.44.52 14.29 1.2 20.99 2.92 9.53 2.43 16.83 2.88 25.3 4.37q4.19.74 9.16 2.79c4.8 1.99 9.75 3.56 14.17 5.98q10.4 5.67 20.62 12.38a1.27 1.25 38.8 001.59-.16q.37-.37.21-1.06 9.74 4.12 18.25 10.42l-1.04.97a1.28 1.28 0 01-.88.35q-36.17.5-72.3 2.04a.35.34-13.6 00-.3.49c1.49 3.15 3.91 2.64 7.68 2.58 22.22-.34 44.94.25 67.07-1.6 3.36-.29 4.94 3.13 4.22 5.92a.46.45 13.3 00.35.56q1.94.41 2.43 2.48 1.28 5.49 3.91 11.34-4.93 2.21-11.64 2.4c-22.54.61-42.61 1.66-60.04.39q-2.61-.19-5.15.22-1.09-.92-2.83-.67a.64.63-15.4 01-.68-.38c-2.3-5.19-9.4-22.47-14.79-24.1q-13.33-4.04-26.61-8.31a.72.71 26.5 00-.8.26q-.25.34-.35.81-8.68-3.22-17.72-5.35l-2.36-.08q-4.71-2.53-9.77-4.16c-10.11-3.26-19.9-7.12-30.16-9.99a.4.39 10 00-.51.35l-2.19 32.33-.71.26a.46.46 0 01-.61-.34l-.26-1.23q.09-13.18 1.24-26.31.24-2.71-.1-5.34a.9.88 6.9 00-.57-.71l-20.92-7.95q-.51-.2.01-.33c5.4-1.36 12.61 2.07 17.48 3.21 16.65 3.9 31.37 8.1 40.4 10.16q20.02 4.57 39.87 10.39a.31.31 0 00.28-.54c-5.81-4.55-12.91-11.53-20.28-13.28-20.49-4.84-41.22-9.05-61.37-14.92q-.35-.11-.61-.36l-.29-.29q-.45-.45.18-.52l30.47-3.42zm144.46 57.91c-.69 3.22 1.8 6.42 5.03 5.54a1.25 1.25 0 00.49-2.14l-4.35-3.79a.72.71-63.3 00-1.17.39z"/><path fill="#ababac" d="M486.27 413.23q-12.64.66-25.27-.25-6.82-.5-14.99-2.51-.98-.25-1.01.74-20.27-5.99-40.61-11.77c-13.63-3.87-29.94-7.04-44.95-11.96a.53.47-3.7 01-.26-.2q-.75-1.13.33-.8c6.05 1.82 13.86 2.77 18.29 3.62 15.99 3.08 31.7 6.01 47.87 9.77q19.77 4.6 26.76 5.72 17.05 2.74 33.84 7.64z"/><path fill="#949698" d="M324.75 389.21q-1.1-.29-1.9.26-.65.45.14.48l7.55.32a1.34 1.31 66.9 01.84.35c3.09 2.77 5.57 6.31 8.49 8.87q7.92 6.95 15.69 14.42a.38.38 0 00.61-.44l-9.77-19.61 4.73.8q2.69 2.18 5.93 1.12 14.98 3.66 29.64 8.45 8.07 3.46 16.27 6.59c9.95 3.79 21.49 8.93 31.27 11.72q1.48.43 1.55-1.54c2.63 1.46.75 12.45.54 16.36-.23 4.26 2.69 9.78 3.96 13.94a.8.79 80.1 01-.72 1.03l-18.25.99q-2.39-1.82-5.46-1.24c-6.22 1.17-12.97 1.6-16.37 1.58-7.72-.03-17.07.74-23.07.95q-14.99.5-30 .86a.65.65 0 01-.67-.6q-.13-1.49.44-2.91a.45.44-61.7 00-.15-.53l-.25-.18q.12-.92 0-1.13a.92.84 52.3 00-1.41-.24l-5.97 6.53a1.38 1.34 18.6 01-.9.43q-24.11 1.8-48.26.51a.59.59 0 01-.55-.53l-.41-4.57q.3.73 1.07.46a.66.66 0 00.43-.75l-1.74-9.18a1.9 1.84 50.6 01.08-.97l.66-1.81q.32.47.7.46a.56.55 1.1 00.55-.52q.47-5.95 4.21-10.68a.96.95 28.5 00-.45-1.5l-4.3-1.47q1.17-.24 1.09-1.3a.76.75-85.3 00-.57-.68q-7.15-1.79-13.17-6.01-.44-.31-.97-.37c-2.73-.32-4.66-2.33-6.76-3.1q-7.59-2.82-14.6-6.85c-1.77-1.03-4.23-1.76-6.52-3.24q-1.56-1-2.5.72-4.16-1.96-7.27-4.6-.91-.78.26-1 18.25-3.43 35.26-3.57l-2.09.49q-.55.13-.12.49l.85.69q.42.34.95.43 5.57.92 11.18.68a1.42 1.4 60.8 01.86.25q7.3 5.3 10.34 6.95c1.68.92 4.52 1.12 6.59 2.27q6.62 3.69 13.8 6.15a.8.79 30.2 00.85-.22q.25-.28.29-.68l1.45.03q.61.02.19-.42-9.51-9.89-19.89-18.88a.63.63 0 01.1-1.03c7.39-4.21 17.38-4.8 25.65-4.28zm-15.96 44.29l.27 1.59a.55.54-16.4 01-.33.59q-.84.36-1.44 1.07c-1.21-4.32-3.41-9.25-8.28-7.68-4.2 1.35-6.18 7.43-6.74 11.51a.74.71 18 00.39.74c2.75 1.46 10.97.71 14.41.64q1.73-.76 2.98-2.18c1.52-1.73.99-4.09.24-6.03-2.47-9.97-13.94-13.53-24.75-18.77q-5.28-2.55-9.51-3.31-.51-.09-.06.17 10 5.7 19.93 11.54c5.23 3.07 10.08 3.02 12.89 10.12zm103.71-.29c-1.38.42-2.59 1.07-4.06 1.1-16.14.33-31.6.85-48.44.92-14.97.05-30.68-.28-45.47 2.31a.57.57 0 00-.47.55c-.04 1.01.94 1.4 1.85 1.39q19.46-.27 38.93.07 1.46.03 3.77-.44c2.9-.59 7.13-.2 8.94-.29q9.43-.5 18.89-.44a1.5 1.49 27.9 00.89-.27q.66-.45 1.73-.45 10.04 0 26.18-.86 1.48-.08 1.55-1.55.48.21.92.14a.66.66 0 00.55-.59q.63-6.43 4.14-11.86a.82.82 0 00-.43-1.22q-6.51-2.16-13.16-3.46c-6.59-1.29-13.2-3.94-19.94-4.57q-2.28-.21-.45 1.18l24.08 18.34zm-42.92-18.74c4.29 2.41 9.41 4.7 10.55 9.82a.43.42 73.1 00.57.31c3.54-1.38 4.01-4.8 1.01-7.2-3.55-2.82-8.01-2.35-12.06-3.13a.11.11 0 00-.07.2zm-2.64 10.34q1.27.98 4.83.51.82-.1.03-.36-5.35-1.74-8.8-6.25a.5.49-45.6 00-.79.01c-.83 1.15 3.81 5.38 4.73 6.09zm54.59 11.48q5.37.84 10.78.05a1.25 1.24-2.1 001.06-1.13c.37-4.21 1.4-11.5-5.01-11.51-5.6-.01-7.63 7.81-7.19 12.2a.43.42-88.4 00.36.39z"/><path fill="#fff" d="M324.75 389.21c8.16.14 14.78-.74 21.65 4.65l9.77 19.61a.38.38 0 01-.61.44q-7.77-7.47-15.69-14.42c-2.92-2.56-5.4-6.1-8.49-8.87a1.34 1.31 66.9 00-.84-.35l-7.55-.32q-.79-.03-.14-.48.8-.55 1.9-.26z"/><path fill="#fcfddf" d="M351.13 394.66q3.19-.1 5.93 1.12-3.24 1.06-5.93-1.12z"/><path fill="#ababac" d="M273.75 396.29l12.22.35a1.17 1.16 70.5 01.83.4c2.96 3.34 6.36 4.75 9.8 6.78q9.9 5.87 20.65 9.97-.04.4-.29.68a.8.79 30.2 01-.85.22q-7.18-2.46-13.8-6.15c-2.07-1.15-4.91-1.35-6.59-2.27q-3.04-1.65-10.34-6.95a1.42 1.4 60.8 00-.86-.25q-5.61.24-11.18-.68-.53-.09-.95-.43l-.85-.69q-.43-.36.12-.49l2.09-.49zM95.96 433.5l.26 1.23a.46.46 0 00.61.34l.71-.26c12.27 9.81 26.33 13.9 39.59 20.77a.28.27-74.5 00.4-.23l2.64-39.07 2.36.08q.06 3.86-.17 5.96-1.89 17.15-2.74 34.13a.97.97 0 00.51.9q9.31 5.14 18.78 8.7c5.13 1.93 12.01 1.35 16.66-.48q9.29-3.68 24.76-12.38a.53.53 0 00.22-.69q-6.06-13.14-8.86-18.69c-2.04-4.06-4.66-3.58-8.36-4.59q-11.73-3.2-23.08-7.51.1-.47.35-.81a.72.71 26.5 01.8-.26q13.28 4.27 26.61 8.31c5.39 1.63 12.49 18.91 14.79 24.1a.64.63-15.4 00.68.38q1.74-.25 2.83.67c-5.35 4.07-11.95 6.51-16.98 9.41-12.88 7.43-22.68 11.54-37.51 5.34-10.59-4.43-19.9-10.47-31.27-16-13.95-6.77-26.26-15.08-38.86-23.56q-7.76-5.23-14.41-11.86a.87.86-53.7 01-.15-1.02q.77-1.42-.31-2.47a.93.92 33.4 01-.21-.99l4.5-11.77a.31.3-69.7 01.38-.18l.25.08a.11.1 15.6 01.07.12c-.86 4.63-4.14 13.73.31 17.09q11.19 8.47 23.12 15.9a.32.32 0 00.48-.19q.06-.29.24-.5z"/><path fill="#242221" d="M140.17 416.28l-2.64 39.07a.28.27-74.5 01-.4.23c-13.26-6.87-27.32-10.96-39.59-20.77l2.19-32.33a.4.39 10 01.51-.35c10.26 2.87 20.05 6.73 30.16 9.99q5.06 1.63 9.77 4.16z"/><path fill="#fff" d="M386.7 404.23q23.41 5.38 45.74 14.08 1.55.61 3.35 2.69-.07 1.97-1.55 1.54c-9.78-2.79-21.32-7.93-31.27-11.72q-8.2-3.13-16.27-6.59z"/><path fill="#ababac" d="M289.5 426.29c-6.39-2.14-12.09-5.91-17.81-8.27q-13.45-5.53-26.19-12.56.94-1.72 2.5-.72c2.29 1.48 4.75 2.21 6.52 3.24q7.01 4.03 14.6 6.85c2.1.77 4.03 2.78 6.76 3.1q.53.06.97.37 6.02 4.22 13.17 6.01a.76.75-85.3 01.57.68q.08 1.06-1.09 1.3z"/><path fill="#fff" d="M486.27 413.23c6.09.17 11.67 1.74 17.7 2.47 10.03 1.19 20.49 13.35 25.82 20.8-.87.61-1.52.31-2.06-.54q-2.52-3.98-6.21-6.88c-3.75-2.95-5.99-6.08-9.29-9.17-3.06-2.86-12.56-3.14-15.92-3.09q-18.57.29-36.46-1.51a.84.84 0 00-.75 1.36c2.95 3.76 8.54 13.65 12.96 14.35q.63.1.2.58l-.7.79a1.03 1.03 0 00-.22.96c1.33 4.68 4.19 6.79 9.17 7.23q9.89.88 19.78-.24.02.76-.39 1.22a1.24 1.22-69.6 01-.9.42l-23.82.29a.92.91 75.9 01-.83-.5c-4.87-9.39-11.81-17.42-16.97-26.77a1.21 1.21 0 00-.71-.57L445 411.21q.03-.99 1.01-.74 8.17 2.01 14.99 2.51 12.63.91 25.27.25zM310.29 433.75l-.39.25a.57.57 0 01-.72-.09l-.39-.41c-2.81-7.1-7.66-7.05-12.89-10.12q-9.93-5.84-19.93-11.54-.45-.26.06-.17 4.23.76 9.51 3.31c10.81 5.24 22.28 8.8 24.75 18.77z"/><path fill="#242221" d="M416.79 435.25q-.66-1.36-1.87-1.12a1.43 1.41-36.4 01-.91-.13l-1.51-.79-24.08-18.34q-1.83-1.39.45-1.18c6.74.63 13.35 3.28 19.94 4.57q6.65 1.3 13.16 3.46a.82.82 0 01.43 1.22q-3.51 5.43-4.14 11.86a.66.66 0 01-.55.59q-.44.07-.92-.14zM369.58 414.47a.11.11 0 01.07-.2c4.05.78 8.51.31 12.06 3.13 3 2.4 2.53 5.82-1.01 7.2a.43.42 73.1 01-.57-.31c-1.14-5.12-6.26-7.41-10.55-9.82z"/><path fill="#949698" d="M529.79 436.5q1.38 1.07 1.82 2.79a.46.45 77.4 01-.35.56q-12.6 2.47-25.43 2.14a1.19 1.19 0 01-.93-.5l-1.72-2.45a.91.91 0 00-1.09-.31q-1.34.55-1.8 1.61-9.89 1.12-19.78.24c-4.98-.44-7.84-2.55-9.17-7.23a1.03 1.03 0 01.22-.96l.7-.79q.43-.48-.2-.58c-4.42-.7-10.01-10.59-12.96-14.35a.84.84 0 01.75-1.36q17.89 1.8 36.46 1.51c3.36-.05 12.86.23 15.92 3.09 3.3 3.09 5.54 6.22 9.29 9.17q3.69 2.9 6.21 6.88c.54.85 1.19 1.15 2.06.54z"/><path fill="#242221" d="M160.25 421.71q11.35 4.31 23.08 7.51c3.7 1.01 6.32.53 8.36 4.59q2.8 5.55 8.86 18.69a.53.53 0 01-.22.69q-15.47 8.7-24.76 12.38c-4.65 1.83-11.53 2.41-16.66.48q-9.47-3.56-18.78-8.7a.97.97 0 01-.51-.9q.85-16.98 2.74-34.13.23-2.1.17-5.96 9.04 2.13 17.72 5.35zm14.59 23.38c-.92 3.68 2.34 5.87 5.42 6.57a.53.53 0 00.64-.42c.39-2.03-4.57-1.98-4.53-6.37a.54.54 0 00-.5-.55q-.83-.08-1.03.77zm-13.12 11.3l10.41 4.06a.63.63 0 00.65-1.06c-2.81-2.53-5.94-2.3-8.84-4.85a1.25 1.22-72.2 01-.42-.84c-.14-1.79.19-5.21-1.48-6.22a.45.45 0 00-.68.36l-.44 7.31a1.26 1.26 0 00.8 1.24z"/><path fill="#fff" d="M366.94 424.81c-.92-.71-5.56-4.94-4.73-6.09a.5.49-45.6 01.79-.01q3.45 4.51 8.8 6.25.79.26-.03.36-3.56.47-4.83-.51z"/><path fill="#242221" d="M421.53 436.29a.43.42-88.4 01-.36-.39c-.44-4.39 1.59-12.21 7.19-12.2 6.41.01 5.38 7.3 5.01 11.51a1.25 1.24-2.1 01-1.06 1.13q-5.41.79-10.78-.05z"/><path fill="#fff" d="M272 425.96l3.25 1.74a1.54 1.52.9 01.66.67c3.59 6.93 7.38 14.96 7.23 22.72q-2.63-5.85-3.91-11.34-.49-2.07-2.43-2.48a.46.45 13.3 01-.35-.56c.72-2.79-.86-6.21-4.22-5.92-22.13 1.85-44.85 1.26-67.07 1.6-3.77.06-6.19.57-7.68-2.58a.35.34-13.6 01.3-.49q36.13-1.54 72.3-2.04a1.28 1.28 0 00.88-.35l1.04-.97z"/><path fill="#242221" d="M307.29 436.75l-.22 5.21c-3.44.07-11.66.82-14.41-.64a.74.71 18 01-.39-.74c.56-4.08 2.54-10.16 6.74-11.51 4.87-1.57 7.07 3.36 8.28 7.68z"/><path fill="#fff" d="M412.5 433.21l1.51.79a1.43 1.41-36.4 00.91.13q1.21-.24 1.87 1.12-.07 1.47-1.55 1.55-16.14.86-26.18.86-1.07 0-1.73.45a1.5 1.49 27.9 01-.89.27q-9.46-.06-18.89.44c-1.81.09-6.04-.3-8.94.29q-2.31.47-3.77.44-19.47-.34-38.93-.07c-.91.01-1.89-.38-1.85-1.39a.57.57 0 01.47-.55c14.79-2.59 30.5-2.26 45.47-2.31 16.84-.07 32.3-.59 48.44-.92 1.47-.03 2.68-.68 4.06-1.1z"/><path fill="#ababac" d="M308.79 433.5l.39.41a.57.57 0 00.72.09l.39-.25c.75 1.94 1.28 4.3-.24 6.03q-1.25 1.42-2.98 2.18l.22-5.21q.6-.71 1.44-1.07a.55.54-16.4 00.33-.59l-.27-1.59zM288.79 440l-.66 1.81a1.9 1.84 50.6 00-.08.97l1.74 9.18a.66.66 0 01-.43.75q-.77.27-1.07-.46-.99-8.93-5-16.99-.23-.45.19-.17 3.02 2.06 5.31 4.91z"/><path fill="#fff" d="M271.24 446.74c-3.23.88-5.72-2.32-5.03-5.54a.72.71-63.3 011.17-.39l4.35 3.79a1.25 1.25 0 01-.49 2.14z"/><path fill="#ababac" d="M180.26 451.66c-3.08-.7-6.34-2.89-5.42-6.57q.2-.85 1.03-.77a.54.54 0 01.5.55c-.04 4.39 4.92 4.34 4.53 6.37a.53.53 0 01-.64.42zM161.72 456.39a1.26 1.26 0 01-.8-1.24l.44-7.31a.45.45 0 01.68-.36c1.67 1.01 1.34 4.43 1.48 6.22a1.25 1.22-72.2 00.42.84c2.9 2.55 6.03 2.32 8.84 4.85a.63.63 0 01-.65 1.06l-10.41-4.06zM89.54 469q.54 1.24 1.52 2.12.43.38.47-.18.1-1.36-1.53-1.98c-.14-3.99.51-18.66 4.29-20.83a1.1 1.08-49.4 01.93-.08q1.24.47.78 1.64-5.16 13.03-.47 25.07c.99 2.54 2.58 3.84 5.19 2.55 3.33-1.65 4.55-13.13 4.39-15.83q-.08-1.44-1.46-6.19-.14-.49.36-.36c6.77 1.7 2.34 16.09.93 20.73-1.08 3.57-4.03 5.1-7.46 5.5a.39.38 76.2 00-.31.52c3.38 8.67 15.91 15.36 23.16 20.08 7.06 4.61 12.87 10.66 20.85 14.84 2.8 1.46 5.8 3.76 8.89 5.31 3.53 1.78 6.47 4.76 9.79 6.92 1.72 1.13 4.11 1.46 5.98 3.16a1.53 1.48-19.4 00.83.38l1.29.15a.47.47 0 01.35.71l-1.39 2.3a.56.54 26.8 01-.68.21c-5.22-2.22-10.84-6.11-14.43-8.25-10.58-6.31-20.42-13.65-30.65-20.47-12.68-8.47-25.73-18.21-31.75-32.78-2.43-5.89-5.35-8.64-3.96-15.6a.51.5-47.8 01.98-.05L89.54 469z"/><path fill="#949698" d="M479.45 458.56a.82.82 0 01-.79-1.06l1.94-6.51a1.33 1.32-83 011.19-.94c12.37-.73 24.53-2.37 36.98-1.94a.61.6.5 01.59.59l.19 6.88a.59.58 87.4 01-.54.6c-12.87.96-26.42 2.4-39.56 2.38z"/><path fill="#ababac" d="M474.95 458.41c-.55-.4-1.96-1.34-2.85-1.12a.25.25 0 01-.31-.31l1.69-6.12a.75.75 0 01.67-.55l3.69-.26a.45.45 0 01.47.55l-1.51 7.1a1.18 1.18 0 01-1.85.71zM345.79 451.25l.25.18a.45.44-61.7 01.15.53q-.57 1.42-.44 2.91a.65.65 0 00.67.6q15.01-.36 30-.86c6-.21 15.35-.98 23.07-.95 3.4.02 10.15-.41 16.37-1.58q3.07-.58 5.46 1.24-16.08 1.08-32.07 1.63c-13.86.48-30.66 1.76-46.12 1.46q-.53-.01-.25-.46l2.91-4.7z"/><path fill="#949698" d="M215.5 469.71l-1.42-6.41a.65.65 0 01.56-.78c11.39-1.16 22.47-1.27 33.58-1.52a.66.66 0 00.6-.38l.12-.25a.41.41 0 00-.36-.59l-1.83-.07 33.14-1.96a.63.63 0 01.67.61l.23 7.85a.69.68 86.9 01-.63.71q-32.29 2.69-64.66 2.79z"/><path fill="#ababac" d="M97.31 467.29c-.11-.5-.87-10.95 1.92-7.76a.64.64 0 01.04.8c-1.69 2.36-.36 6.39-1.26 7.19a.43.43 0 01-.7-.23z"/><path fill="#949698" d="M477.43 462.71a.56.56 0 01.48-.33l40.04-2.75a.66.66 0 01.69.76c-.59 3.7.8 8.26-4.77 8.72-9.71.81-19.05 1.9-29.09 2.08q-5.47.1-10.91.72-.71.08-.41-.57l3.97-8.63z"/><path fill="#ababac" d="M119.86 488.64q2.06-4.1 3.35-8.5c1.19-4.06.75-8.53.83-12.88a.37.37 0 01.5-.34c3.99 1.48 1.05 14.69.29 17.88-1.03 4.31-4.02 8.47-7.78 10.22q-3.36 1.57-5.67-.5c-2.92-2.63-4.78-13.24-4.8-16.19-.01-1.27 2.02-18.65 5.42-18.58a1.22 1.22 0 011.05 1.79q-2.6 4.88-2.99 9.83-.27 3.47-.22 8.19c.06 4.16 1.11 10.48 4.99 12.96a.72.71-47.4 00.82-.04c1.55-1.22 3.3-2.03 4.21-3.84zM246.75 459.71l1.83.07a.41.41 0 01.36.59l-.12.25a.66.66 0 01-.6.38c-11.11.25-22.19.36-33.58 1.52a.65.65 0 00-.56.78l1.42 6.41-1.42.03a.63.63 0 01-.63-.5l-1.75-8.14a.52.52 0 01.47-.63c11.52-.88 23.06-.63 34.58-.76z"/><rect fill="#ababac" x="-2.24" y="-5" transform="rotate(23.6 -879.662 1359.42)" width="4.48" height="10" rx="1.25"/><rect fill="#ababac" x="-2.48" y="-5.14" transform="rotate(-7.3 3763.333 -1393.67)" width="4.96" height="10.28" rx="1.87"/><path fill="#949698" d="M89.54 469l.46-.04q1.63.62 1.53 1.98-.04.56-.47.18-.98-.88-1.52-2.12z"/><path fill="#ababac" d="M138.24 511.56c-5.67 1.5-10.52-6.46-11.47-11.06q-2.11-10.24.43-19.57c.46-1.68.46-3.56 1.84-5.32q.29-.37.36-.83.36-2.39 1.91-4.22a.84.82 29 01.9-.25q1.63.54 1.05 2.46c-1.78 5.82-3.7 10.81-3.9 16.37-.15 3.96.72 15.87 4.4 17.84 2.51 1.34 6.82-1.5 8.09-3.38 5.07-7.49 4.15-18.17 3.61-26.91a.58.57-87.2 01.66-.61q4.21.66 4.23 5.18c.02 8.21.4 15.35-3.71 22.85q-3.35 6.12-8.4 7.45zM115.47 481.88c-4.69-1.11-2.39-8.18.19-10.24a1.08 1.07-57.4 01.89-.2l1.08.24a.41.41 0 01.27.6q-2.22 3.94-1.29 8.49a.94.94 0 01-1.14 1.11z"/><path fill="#949698" d="M217.53 483.88q-.29-1.93-2.69-1.5a.43.43 0 01-.49-.53l1.34-5.14a.76.76 0 01.61-.55l3.97-.63a.56.56 0 00.4-.82q-.22-.39-.67-.42 3.03-.44 8.81-.45c15.68-.02 33.4-2.06 50.53-1.45a.62.61-2.8 01.59.53q.5 3.79-1.11 7.22a.9.89 10 01-.75.52q-30.3 2.58-60.54 3.22z"/><rect fill="#ababac" x="-2.28" y="-5.3" transform="rotate(30 -659.228 1105.48)" width="4.56" height="10.6" rx=".77"/><path fill="#ababac" d="M510.31 478.85q-1.18-2.96.62-5.63l2.11-.09a.45.45 0 01.47.52q-.41 3.02-3.2 5.2z"/><path fill="#949698" d="M510.93 473.22q-1.8 2.67-.62 5.63c-.46 1.07-1.39 1.63-2.62 1.69q-13.02.72-25.94 2.42.42-.48.24-1.09a.59.58-14.6 00-.67-.39c-1.71.34-9.54 1.69-9.58-1.29a1.08 1.07-21.2 01.37-.83q1.82-1.58.53-3.88c7.52-.77 15.15-.64 22.44-1.35q7.95-.77 15.85-.91z"/><path fill="#ababac" d="M220 474.29q.45.03.67.42a.56.56 0 01-.4.82l-3.97.63a.76.76 0 00-.61.55l-1.34 5.14a.43.43 0 00.49.53q2.4-.43 2.69 1.5-2.34.98-4.62.26a.63.63 0 01-.43-.67l.94-8.59a.59.58-86.7 01.58-.52l6-.07zM207.6 484.61h-1.96a.88.87 87.5 01-.87-.8q-.3-3.92 1.21-7.52a1.11 1.09 1.6 01.66-.61l2.6-.87a1.05 1.05 0 011.37.84q.71 4.95-1.49 9.37a.39.39 0 01-.63.1l-.23-.23a.92.91-21.9 00-.66-.28zM472.64 475.48q1.29 2.3-.53 3.88a1.08 1.07-21.2 00-.37.83c.04 2.98 7.87 1.63 9.58 1.29a.59.58-14.6 01.67.39q.18.61-.24 1.09l-14.45.47a.61.61 0 01-.56-.88q2.14-4.23 5.9-7.07zM158.2 525.89c-8.76-12.08-7-26.05-4.08-39.56q.63-2.94 2.47-5.25a1.19 1.16-72.4 01.82-.44c1.77-.15 2.37.85 1.94 2.48-3.07 11.9-4.14 23.38-.86 35.13.89 3.17 4.51 7.07 8.11 4.97 3.94-2.31 6.77-8.73 8.4-12.53 3.4-7.94 3.39-22.23-1.43-29.68-2.29-3.54 3.09-5.15 4.07-2.35q6.19 17.63.61 34.97c-1.4 4.35-4.78 8.12-7.48 11.91-3.44 4.83-8.95 5.33-12.57.35zM136.64 493.51c-5.12-2.28-2.61-9.86.38-12.55a.93.92-55.8 01.92-.18l.69.25a.88.88 0 01.34 1.45c-3.72 3.89-1.69 6.1-1.53 10.49a.57.57 0 01-.8.54zM452.44 494.74a.85.85 0 01-.33-1.31l6.46-8.23a.58.57 41.6 01.86-.05l.9.91a.84.83 32.2 01.2.86q-1.68 4.67-4.74 8.6a.81.81 0 01-.96.24l-2.39-1.02z"/><rect fill="#ababac" x="-20.6" y="-1.17" transform="rotate(-3.2 8971.237 -8406.648)" width="41.2" height="2.34" rx=".97"/><path fill="#949698" d="M207.19 498.56q-.25.04-.48-.03a.48.48 0 01-.28-.71l2.31-3.86q.25-.41.4-.85l1.11-3.23a.84.82-79.5 01.81-.57c12.91.34 27.25-.85 38.6-1.17q13.5-.38 26.97-1.54.79-.07.42.63l-3.68 6.93a1.16 1.15-77.9 01-.92.6c-21.57 1.66-42.72 3.99-64.38 4.02q-.43 0-.88-.22z"/><rect fill="#ababac" x="-2.66" y="-4.92" transform="rotate(26 -966.11 686.67)" width="5.32" height="9.84" rx="1.86"/><path fill="#ababac" d="M164.84 504.95c-3.23-2.89-4.46-9.24-.08-11.91q.69-.42 1.74-.07a.42.41 23.7 01.24.6c-2.24 3.95-1.87 6.82-1.47 11.16a.26.26 0 01-.43.22z"/><rect fill="#ababac" x="-21.5" y="-1.09" transform="rotate(-4.6 6433.506 -5681.334)" width="43" height="2.18" rx="1.07"/><path fill="#ababac" d="M449.55 496.83a1.29 1.28-22 012.12.9q.21 3.83-3.15 5.6-.39.21-.67.55l-1.27 1.5a.67.67 0 01-1.03-.01q-1.08-1.31-.27-2.86 1.85-3.6 4.27-5.68zM212.98 502.63c.38-.29 1.29-.04 1.76-.03q24.06.2 48.15-2.15a.73.72-75.1 01.66 1.14c-.97 1.39-6.21.9-8.84 1.34-8.6 1.43-17.29 1.61-28.46 2.08q-12.52.52-21.02-.23a.66.66 0 01-.59-.57c-.25-1.98 6.08-1.59 7.5-1.37a1.1 1.06-58.1 00.84-.21z"/><rect fill="#ababac" x="-2.28" y="-4.68" transform="rotate(30.2 -839.216 617.774)" width="4.56" height="9.36" rx="1.1"/><ellipse fill="#ababac" transform="rotate(56.6 -250.832 664.94)" rx="1.64" ry="1.18"/><ellipse fill="#ababac" transform="rotate(61.7 -207.56 624.227)" rx="1.7" ry="1.03"/><path fill="#ababac" d="M257.16 512.47c-1.82 1.85-58.05 4.14-59.31 2.77a.46.46 0 01.28-.77q9.17-1.25 18.34-1.44c14.87-.32 27.01-.83 40.51-.98q.59-.01.18.42zM192.97 515.44l-4.5 7.79a.81.81 0 01-1.41-.01l-1.6-2.86a.81.81 0 01.04-.85l4.34-6.36a.81.81 0 011.18-.18l1.76 1.43a.81.81 0 01.19 1.04z"/><rect fill="#ababac" x="-2.26" y="-5.24" transform="rotate(37.6 -686.67 531.805)" width="4.52" height="10.48" rx="2.15"/><path fill="#ababac" d="M170.56 538.37l.17-2.97a.76.75-5.2 01.58-.69l4.04-.88a.88.87 64.8 01.88.32l.97 1.24a1.42 1.42 0 01-.75 2.24l-5.08 1.39a.64.64 0 01-.81-.65z"/><path fill="#fff" d="M590.29 589.75l.71.31v.94h-1.06l-.19-.71.54-.54z"/><path fill="#242221" d="M0 589.94l.25.1c-.14.46-.01.72.5.7q6.23-.17 12.44.26H0v-1.06z"/><path fill="#fcfddf" d="M.25 590.04q3.47.03 6.94.03 291.28.2 582.56.22l.19.71h-13.5q-3.38-.63-6.75 0H13.19q-6.21-.43-12.44-.26c-.51.02-.64-.24-.5-.7z"/><path fill="#242221" d="M576.44 591h-6.75q3.37-.63 6.75 0z"/></svg>