<svg xmlns="http://www.w3.org/2000/svg" viewBox="0 0 591 591"><g stroke-width="2" fill="none"><path stroke="#0f0f0e" vector-effect="non-scaling-stroke" d="M590.06 0l.19.29"/><path stroke="#7e7f71" vector-effect="non-scaling-stroke" d="M590.25.29l.04 589.46"/><path stroke="gray" vector-effect="non-scaling-stroke" d="M590.29 589.75l-.54.54"/><path stroke="#7e7f71" vector-effect="non-scaling-stroke" d="M589.75 590.29q-291.14-.08-582.28-.03c-1.64 0-4.5-.26-6.83.01a.3.29 70.3 00-.21.45q.09.15.26.28M586.25 4.51a.26.26 0 00-.26-.26H4.51a.26.26 0 00-.26.26v581.48a.26.26 0 00.26.26h581.48a.26.26 0 00.26-.26V4.51"/><path stroke="#8f8e8d" vector-effect="non-scaling-stroke" d="M591 590.06l-.29-.31"/><path stroke="#8d8e7e" vector-effect="non-scaling-stroke" d="M590.71 589.75L590.69.49a.19.19 0 00-.18-.19l-.26-.01"/><path stroke="#fdfff0" vector-effect="non-scaling-stroke" d="M590.71 589.75h-.42"/><path stroke="#fbf2c7" vector-effect="non-scaling-stroke" d="M49.63 17.16c-12.72.23-23.61 4.05-23.63 19.1q-.03 20.59.03 41.78a1.25 1.24 68.7 002.08.92c20.85-19.11 40.43-40.14 60.14-60.21a.99.99 0 00-.69-1.68q-19.49-.23-37.93.09"/><path stroke="#c7cabd" vector-effect="non-scaling-stroke" d="M361.75 529.21q1.95.13 3.75-.67"/><path stroke="#8d8e7e" vector-effect="non-scaling-stroke" d="M365.5 528.54q23.21-3.19 45.31-11c7.76-2.74 21.05-9.59 29.6-15.75 24.14-17.4 43.61-40.74 21.85-70.32a.6.59-41 01.06-.76q10.46-10.47 16.17-19.73c8.62-13.97 13.02-33.05-2.97-43.99q-11.78-8.05-25-9.08c-2.88-.23-6.14-.53-8.01.56-1.8 1.04-.98 3.03.79 3.65 7.83 2.73 16.23 3.96 21.07 11.67 5.75 9.18-1.35 21.96-7.72 28.67-4.12 4.34-10.78 8.48-16.17 12.2a2.23 2.23 0 01-2.22.18c-8.78-4.12-16.39-5.51-26.26-7.85q-14.36-3.39-32.8-1.63-38.36 3.66-74.03 17.73c-8.28 3.27-16.52 8.06-24.64 12.4a.31.31 0 01-.46-.26q-.99-22.73 5.42-43.23c1.89-6.07 3.22-12.3 5.61-17.42 19.99-42.98 49.34-81.55 63.4-127.23 2.09-6.78 3.24-14.45 4.65-21.69q2.09-10.71 2.47-16.44c1.35-20.28-2.23-42.41-6.98-61.64q-1.8-7.28-3.48-15.13c-3.32-15.5-8.49-28.08-21.19-38.68q-13.44-11.22-31.01-13.78c-24.21-3.53-53.23 10.9-63.13 33.83-4.78 11.08-8.07 23.8-7.33 35.93 1.05 17.01 5.24 31.23 13.82 46.24q11.88 20.74 27.53 38.93 5.61 6.52 14.15 8.53a.63.62 13.9 01.46.75c-1.85 7.63-18.9 5.09-23.88 3.1-8.35-3.34-16.38-7.06-25.18-8.78-7.98-1.56-17.25-3.86-25.32-1.87-7.34 1.82-13.32 2.68-19.54 7.15q-15.89 11.44-25.1 28.9a.29.29 0 00.42.37q1.24-.88 2.49-2.22 11.92-12.72 27.07-21.61a.3.29 83 01.43.34c-3.35 11.25-4.99 23.33-11.14 33.42a.58.58 0 00.75.83c13.93-6.68 9.66-24.58 20.15-34.88 3.04-2.99 5.43-4.74 9.15-4.69q10.55.14 20.14 2.44c11.33 2.73 22.06 9.85 32.97 10.91 5.71.55 13.52.06 18.54-3.19 3.75-2.43 5.83-7.14 8.45-10.62a1.31 1.3 14.6 01.88-.51q5.13-.63 9.56-3.34 2.09-1.28 1.25 1.03c-9.94 27.29-23.59 50.07-41.4 72.73-24.6 31.31-47.57 70.31-54.55 110.07a.42.41-74.7 01-.55.32c-28.7-10.74-65.22-8.53-90.49 9.83-8.54 6.21-14.6 11.66-18.72 20.83-4.62 10.28-1.83 22.18 4.36 30.7 9.85 13.57 34.29 23.03 50.19 26.73 11.91 2.77 25.38 2.83 37.93 2.32 16.27-.66 33.53-6 48.87-11.27a.85.85 0 01.84.17c21.23 18.99 46.6 26.68 74.98 27.77q23.59.92 43.74-1.97"/><path stroke="#585a5a" vector-effect="non-scaling-stroke" d="M365.5 528.54q-2.07-.42-3.75.67M284.75 237.21q13.59 3.33 22.35-6.87 15.73-18.35 27.79-40.18c11.42-20.68 15.52-41.42 8.53-64.51-6.85-22.56-24.34-36.71-48.18-39.33"/><path stroke="#8f8e8d" vector-effect="non-scaling-stroke" d="M295.24 86.32q-6.49-1.1-11.68 0-38.91 8.25-47.42 44.65c-2.51 10.72-2.38 25.26.05 35.79 3.11 13.45 10.7 25.91 19.04 38.77q8.66 13.35 19 25.49 4.17 4.9 10.52 6.19"/><path stroke="#c9cbcc" vector-effect="non-scaling-stroke" d="M295.24 86.32q-1.56.7-3.15 1.34-1.74.71-3.05 1.52-29.88 18.44-39.83 52.57"/><path stroke="#8f8e8d" vector-effect="non-scaling-stroke" d="M249.21 141.75q-5.69-1.09-10.13 2.41a.84.81 66.6 00-.3.8q1.46 8.5 5.43 15.93c6.52 12.2 21.81 20.08 34.83 23.11"/><path stroke="#c9cbcc" vector-effect="non-scaling-stroke" d="M279.04 184c-3.91 3.16-20.38-2.14-24.48-4.03q-1.24-.58-.74.7c6.95 17.98 16.81 34.67 26.08 51.51q.8 1.46 2.24 2.66 1.37 1.13 2.61 2.37"/><path stroke="#585a5a" vector-effect="non-scaling-stroke" d="M279.04 184c2.52.74 3.47-3.24 3.5-4.98.31-19.14-15.54-33.48-33.33-37.27M333.98 203.85l-9.37 14.27q-.3.46.23.36c10.03-1.78 9.45-5.85 9.78-14.42a.35.35 0 00-.64-.21M333.05 221.66c-7.5.5-18.53 4.73-18.74 13.83a.49.49 0 00.49.5c8.76-.03 21.04-1.2 18.84-13.87a.56.55 82.6 00-.59-.46M312.44 243.19q-2.1 4.03-2.83 7.87a1.04 1.04 0 001.05 1.23c9.52-.21 18.04-.64 19.6-12.16a.5.49 8 00-.43-.56c-4.16-.59-15-.99-17.39 3.62M324.34 256.33q-9.17-1.28-16.49 2.36c-3.35 1.67-4.81 6.48-5.39 9.79a.96.95-88.2 001.04 1.11c8.99-.96 19.43-1.19 21.31-12.61a.56.56 0 00-.47-.65M296.09 283.3c8.83.71 20.64.03 22.53-11a.4.4 0 00-.42-.47q-8.59.54-14.88 1.77c-5.15 1-6.69 3.85-8.08 8.46a.96.96 0 00.85 1.24M285.2 299.8c13.11.62 21.29 3.52 26.1-11.8a.38.38 0 00-.34-.5q-10.37-.76-20.54 1.59a1.08 1.03 7.1 00-.66.49c-.91 1.63-6.11 8.55-5.16 9.89a.79.79 0 00.6.33M269.11 320.3c4.76.45 20.54 2.17 24.38-1.55q2.89-2.8 6.92-11.54a.53.53 0 00-.24-.7c-4.77-2.41-14.33-1.92-19.67-1.68a1.81 1.8 16.8 00-1.37.73l-10.39 13.93a.51.51 0 00.37.81M287.84 326.37c-4.94-1.46-12.65-1.51-17.84-1.43-5.53.09-7.07 1.27-10.09 5.52q-4.56 6.42-8.5 13.41a.8.79-48.7 00.05.86q1.15 1.55 3.82 1.48c9.38-.27 19.52.21 24.64-7.8q4.5-7.01 8.09-11.49a.35.34-62.8 00-.17-.55M271.45 351.11c-4.6-2.26-16.13-1.88-21.18-1.23-2.54.32-3.48 1.09-4.68 3.2q-4.8 8.35-9.46 16.77-1.11 2-1.66 4.96a1.4 1.39-84 001.33 1.65c5.77.12 14.04 1.16 18.81-.82 7.74-3.2 9.78-11.18 13.66-17.67q1.73-2.9 3.48-5.82a.73.73 0 00-.3-1.04M220.6 408.5c1.67 5.29 11.19 4.86 15.34 4.48 8.51-.78 15.19-2.42 16.74-12.17q1.51-9.54 4.31-18.99a.67.67 0 00-.63-.86l-24.62-.33a.81.81 0 00-.68.37q-.55.87-.96 1.83-5.13 12.21-9.49 24.72a1.46 1.43 46.2 00-.01.95M219.61 445.78c3.85 5.89 16.13 6.83 21.98 5.84 3.25-.55 13.13-4.77 12.21-9.63q-2.48-13.08-2.31-26.22a.56.56 0 00-.7-.55q-15.45 3.93-31.02.62a.49.49 0 00-.58.38c-1.56 7.39-4.42 22.17.42 29.56"/><path stroke="#585a5a" vector-effect="non-scaling-stroke" d="M218.79 451.59c2.78 25.8 14.82 29.24 38.2 28.77q6.55-.13 10.08-5.49a1.57 1.57 0 000-1.74q-6.22-9.24-10.15-19.65a.59.58 69.4 00-.75-.35c-12.08 4.47-25.47 4.36-36.98-1.8q-.45-.24-.4.26M368.53 452.5c-5.17.01-5.08 7.33-3.9 10.72a1.53 1.52 73.2 001.83.98l10.31-2.74a1.39 1.37 79.5 001.02-1.5q-.39-3.53.69-6.9a.43.43 0 00-.41-.56h-9.54M200.79 461.67c4.49-10.62-10.22-8.84-15.15-7.97a.46.45 81.1 00-.36.5l1.1 8.85a.64.63 83.1 00.7.55l13.01-1.41a.88.87 8.3 00.7-.52M347.32 455.34c-7.48 1.06-6.73 8.21-3.54 12.89a.8.8 0 00.8.34l15.11-2.79a.34.34 0 00.24-.48q-2.51-5.21-1.84-11.02a.57.57 0 00-.68-.63q-4.88.95-10.09 1.69M206.19 461.44l7.25-2.19a.68.66 86.6 00.46-.53c.76-4.75-4.19-5.07-7.59-4.72a.56.54-2.4 00-.5.53l-.22 6.45a.47.46 82.4 00.6.46M170.23 463.03l11.3.69a.6.6 0 00.64-.54q.55-5.29-3.48-8.5a1.62 1.57-26.6 00-1.11-.35l-12.04.73a.5.5 0 00-.39.77l4.14 6.64a1.2 1.18-13.6 00.94.56M383.88 458.71l3.25-1.14a1.06 1.05-6.4 00.69-.86c.49-4.31-4.15-.65-4.9.93a.78.78 0 00.96 1.07"/><path stroke="#8d8e7e" vector-effect="non-scaling-stroke" d="M156.89 459.51l6.87 2.26a.42.42 0 00.48-.62q-2.52-3.92-7.21-2.83-.76.18-.46.88a.54.53 88.6 00.32.31"/><path stroke="#585a5a" vector-effect="non-scaling-stroke" d="M320.81 469.83a2.24 2.23 62.8 001.61.52l16.19-1.26a.26.26 0 00.22-.36l-3.74-9.71a.76.75 70.2 00-.94-.45l-15.25 5.05a.9.89 80 00-.61.88q.1 3.26 2.52 5.33M308.44 468.63l4.22.62a.56.56 0 00.63-.67l-.36-1.7a.76.75-5.2 00-.73-.6q-2.45-.03-4 1.67a.41.41 0 00.24.68M256.19 501.31c10.37 1.47 27.52 2.2 34.89-5.88a1.22 1.21-56.9 00-.4-1.93q-9.29-4.14-16.07-11.63a.97.95 64.3 00-.86-.31c-4.01.62-8.4 1.97-11.89 2.41q-10.46 1.3-20.94.04c-3.43-.41-6.74-1.61-10.2-2.53q-.49-.13-.19.28 6.48 9.13 15.13 16.13c3.56 2.88 6.08 2.79 10.53 3.42M237.21 498.63c-1.72-2.26-3.94-4.87-6.04-6.8a.73.72-40.2 00-.88-.07q-3.77 2.41-8.01 3.88a1.15 1.14 61.6 00-.53 1.78l3.93 5.08a.79.77 61.9 00.86.27l10.48-3.53a.39.39 0 00.19-.61M436.61 496.79c1.31-.85 2.68-1.96 3.98-2.88a.23.23 0 000-.38c-.11-.07-4.87 2.03-4.6 3.02a.41.41 0 00.62.24M203.28 501.55c1.26 6.89 13.03 3.58 16.65 2.59a.54.54 0 00.35-.76l-2.07-4.26q-.86-1.75-2.75-1.26l-11.78 3.06a.55.55 0 00-.4.63M429.96 498.8c-2.27 1.07-11.06 3.33-9.51 7.27a.42.41-25.5 00.59.2l8.88-5.17a1.08 1.08 0 00.54-.9l.05-1.03a.39.39 0 00-.55-.37M257.91 507.47c9.28 6.46 21.59 12.09 33.02 11.2 5.3-.41 29.85-6.05 30.35-12.65a1.5 1.49-83.3 00-1.25-1.59q-8.16-1.35-15.68-4.75a.98.97-47.8 00-.9.05c-12.12 7.33-32.46 7.99-46.16 6.69a.29.29 0 00-.26.47c.26.34.63.4.88.58"/><path stroke="#8d8e7e" vector-effect="non-scaling-stroke" d="M136.21 500.56l12.89 4.26q.41.13.28-.27c-1.2-3.67-9.84-3.84-13.1-4.31a.17.16 57.8 00-.07.32M183.21 508.5c2.13 1.74 9.4.67 12.08.25"/><path stroke="#585a5a" vector-effect="non-scaling-stroke" d="M195.29 508.75l4.76-.52a.75.74-32.8 00.3-1.38q-3.07-1.84-4.26-5.27a.53.53 0 00-.79-.27l-1.78 1.15a1.47 1.46 27.5 01-.77.24l-11.42.35a.65.65 0 00-.6.49q-.86 3.46 2.48 4.96"/><path stroke="#c7cabd" vector-effect="non-scaling-stroke" d="M195.29 508.75l-.17-.53a1.11 1.1.6 00-.69-.7q-2.56-.88-5.07.31a1.26 1.23-48.9 01-.9.07q-2.81-.82-5.25.6"/><path stroke="#585a5a" vector-effect="non-scaling-stroke" d="M156.21 503.45c1.17 6 14.87 6.15 19.86 5.65a.33.33 0 00.25-.5l-3.21-5.1a.83.8-14.7 00-.68-.38l-15.74-.25a.49.48 85.1 00-.48.58M400.2 507.65c-1.89 1.4-3.79 6.15-5.42 8.34q-.3.41.19.27 7.07-1.99 14.02-4.26c3.3-1.07 4.99-3.19 4.27-6.62a.53.53 0 00-.61-.41c-3.61.62-9.68.62-12.45 2.68M298.43 523.21c7.96.61 17.08 3.1 24.99 1.18 4.88-1.19 25.49-7.69 23.66-14.53a.82.81 86.2 00-.68-.6l-15.39-1.9a1.17 1.15-61.4 00-.92.28c-9.04 7.84-19.57 11.92-31.61 15.15q-.19.05-.22.17a.19.19 0 00.17.25M390.09 509.48q-5.22-.29-9.65.24-.84.1-2.29 1.68-5.56 6.04-12.54 10.4a.41.41 0 00.27.75q9.69-1.34 19.15-3.8a1.77 1.7 14.3 00.79-.45c2.02-2.07 5.46-5.13 4.86-8.3a.64.64 0 00-.59-.52M370.42 510.03c-4.13-.08-8.3-.34-12.43-.51a1.09 1.08 21.5 00-.86.37q-8.36 9.61-19.86 15-.63.29.06.38c12.28 1.54 24.46-5.33 33.74-13.47a1.01 1.01 0 00-.65-1.77"/><path stroke="#c9cbcc" vector-effect="non-scaling-stroke" d="M300.254 97.775a12.71 10.18-37.2 00-16.279-.424 12.71 10.18-37.2 00-3.969 15.793 12.71 10.18-37.2 0016.279.425 12.71 10.18-37.2 003.969-15.794M324.83 113.78a6.79 6.79 0 00-6.79-6.79 6.79 6.79 0 00-6.79 6.79 6.79 6.79 0 006.79 6.79 6.79 6.79 0 006.79-6.79M296.17 183.58q.71 2.43 4.02 1.37 3.02-.97 11.79-3.25c11.06-2.89 26.88-11.78 28.09-24.76.36-3.85-.07-8.42-2.47-11.6a.56.55 55.4 00-.74-.14q-.67.44-1.07 1.05"/><path stroke="#585a5a" vector-effect="non-scaling-stroke" d="M335.79 146.25l-.15-2.01a1.02 1 13.5 00-.5-.79c-11.7-6.89-31.34 7.4-37.15 17.05-4.06 6.74-6.14 12.52-5.25 20.76q.31 2.8 3.43 2.32"/><path stroke="#8f8e8d" vector-effect="non-scaling-stroke" d="M335.79 146.25c-2.94 21.49-20.05 32.52-39.62 37.33"/><path stroke="#585a5a" vector-effect="non-scaling-stroke" d="M287.69 188.92a1.86 1.81 38 00.22 1.63l5.35 7.9a1.29 1.29 0 002.28-.26q2.58-6.74-2.88-10.84c-2.11-1.58-4.15-.77-4.97 1.57M280.61 188.85q-2.09 5.02-1.18 10.48a.48.48 0 00.78.28c2.09-1.82 6.41-6.44 5.66-9.51q-.61-2.49-3.81-2.29a1.71 1.69-80.3 00-1.45 1.04"/><path stroke="#8f8e8d" vector-effect="non-scaling-stroke" d="M253.93 151.15a3.3 3.3 0 00-3.3-3.3 3.3 3.3 0 00-3.3 3.3 3.3 3.3 0 003.3 3.3 3.3 3.3 0 003.3-3.3"/><path stroke="#8d8e7e" vector-effect="non-scaling-stroke" d="M261.77 152.41a2.3 2.3 0 00-2.3-2.3 2.3 2.3 0 00-2.3 2.3 2.3 2.3 0 002.3 2.3 2.3 2.3 0 002.3-2.3"/><path stroke="#8f8e8d" vector-effect="non-scaling-stroke" d="M319.11 152.07a3.26 3.26 0 00-3.26-3.26 3.26 3.26 0 00-3.26 3.26 3.26 3.26 0 003.26 3.26 3.26 3.26 0 003.26-3.26M327.24 152.1a2.32 2.32 0 00-2.32-2.32 2.32 2.32 0 00-2.32 2.32 2.32 2.32 0 002.32 2.32 2.32 2.32 0 002.32-2.32"/><path stroke="#fdfff0" vector-effect="non-scaling-stroke" d="M589.94 591l-.19-.71"/><path stroke="#8d8e7e" vector-effect="non-scaling-stroke" d="M587.94 591q-14.63-.63-29.25 0"/><path stroke="#c7cabd" vector-effect="non-scaling-stroke" d="M547.19 591q-2.13-.63-4.25 0"/><path stroke="#8d8e7e" vector-effect="non-scaling-stroke" d="M436.44 591q-2.38-.63-4.75 0M393.44 591q-2.38-.63-4.75 0M384.44 591q-2.88-.63-5.75 0M368.44 591q-2.38-.63-4.75 0M145.94 591q-5.5-.63-11 0M132.44 591q-3.38-.63-6.75 0M8.44 591q-3.5-.63-7 0"/></g><path d="M0 0h590.06l.19.29.04 589.46-.54.54q-291.14-.08-582.28-.03c-1.64 0-4.5-.26-6.83.01a.3.29 70.3 00-.21.45q.09.15.26.28H0V0zm586.25 4.51a.26.26 0 00-.26-.26H4.51a.26.26 0 00-.26.26v581.48a.26.26 0 00.26.26h581.48a.26.26 0 00.26-.26V4.51z"/><path fill="#1e1d1b" d="M590.06 0h.94v590.06l-.29-.31L590.69.49a.19.19 0 00-.18-.19l-.26-.01-.19-.29z"/><path fill="#fbfee1" d="M590.25.29l.26.01a.19.19 0 01.18.19l.02 589.26h-.42L590.25.29zM586.25 585.99a.26.26 0 01-.26.26H4.51a.26.26 0 01-.26-.26V4.51a.26.26 0 01.26-.26h581.48a.26.26 0 01.26.26v581.48zM49.63 17.16c-12.72.23-23.61 4.05-23.63 19.1q-.03 20.59.03 41.78a1.25 1.24 68.7 002.08.92c20.85-19.11 40.43-40.14 60.14-60.21a.99.99 0 00-.69-1.68q-19.49-.23-37.93.09zm312.12 512.05q1.95.13 3.75-.67 23.21-3.19 45.31-11c7.76-2.74 21.05-9.59 29.6-15.75 24.14-17.4 43.61-40.74 21.85-70.32a.6.59-41 01.06-.76q10.46-10.47 16.17-19.73c8.62-13.97 13.02-33.05-2.97-43.99q-11.78-8.05-25-9.08c-2.88-.23-6.14-.53-8.01.56-1.8 1.04-.98 3.03.79 3.65 7.83 2.73 16.23 3.96 21.07 11.67 5.75 9.18-1.35 21.96-7.72 28.67-4.12 4.34-10.78 8.48-16.17 12.2a2.23 2.23 0 01-2.22.18c-8.78-4.12-16.39-5.51-26.26-7.85q-14.36-3.39-32.8-1.63-38.36 3.66-74.03 17.73c-8.28 3.27-16.52 8.06-24.64 12.4a.31.31 0 01-.46-.26q-.99-22.73 5.42-43.23c1.89-6.07 3.22-12.3 5.61-17.42 19.99-42.98 49.34-81.55 63.4-127.23 2.09-6.78 3.24-14.45 4.65-21.69q2.09-10.71 2.47-16.44c1.35-20.28-2.23-42.41-6.98-61.64q-1.8-7.28-3.48-15.13c-3.32-15.5-8.49-28.08-21.19-38.68q-13.44-11.22-31.01-13.78c-24.21-3.53-53.23 10.9-63.13 33.83-4.78 11.08-8.07 23.8-7.33 35.93 1.05 17.01 5.24 31.23 13.82 46.24q11.88 20.74 27.53 38.93 5.61 6.52 14.15 8.53a.63.62 13.9 01.46.75c-1.85 7.63-18.9 5.09-23.88 3.1-8.35-3.34-16.38-7.06-25.18-8.78-7.98-1.56-17.25-3.86-25.32-1.87-7.34 1.82-13.32 2.68-19.54 7.15q-15.89 11.44-25.1 28.9a.29.29 0 00.42.37q1.24-.88 2.49-2.22 11.92-12.72 27.07-21.61a.3.29 83 01.43.34c-3.35 11.25-4.99 23.33-11.14 33.42a.58.58 0 00.75.83c13.93-6.68 9.66-24.58 20.15-34.88 3.04-2.99 5.43-4.74 9.15-4.69q10.55.14 20.14 2.44c11.33 2.73 22.06 9.85 32.97 10.91 5.71.55 13.52.06 18.54-3.19 3.75-2.43 5.83-7.14 8.45-10.62a1.31 1.3 14.6 01.88-.51q5.13-.63 9.56-3.34 2.09-1.28 1.25 1.03c-9.94 27.29-23.59 50.07-41.4 72.73-24.6 31.31-47.57 70.31-54.55 110.07a.42.41-74.7 01-.55.32c-28.7-10.74-65.22-8.53-90.49 9.83-8.54 6.21-14.6 11.66-18.72 20.83-4.62 10.28-1.83 22.18 4.36 30.7 9.85 13.57 34.29 23.03 50.19 26.73 11.91 2.77 25.38 2.83 37.93 2.32 16.27-.66 33.53-6 48.87-11.27a.85.85 0 01.84.17c21.23 18.99 46.6 26.68 74.98 27.77q23.59.92 43.74-1.97z"/><path fill="#fae5ac" d="M26 36.26c.02-15.05 10.91-18.87 23.63-19.1q18.44-.32 37.93-.09a.99.99 0 01.69 1.68c-19.71 20.07-39.29 41.1-60.14 60.21a1.25 1.24 68.7 01-2.08-.92q-.06-21.19-.03-41.78z"/><path fill="#1e1d1b" d="M365.5 528.54q-2.07-.42-3.75.67-20.15 2.89-43.74 1.97c-28.38-1.09-53.75-8.78-74.98-27.77a.85.85 0 00-.84-.17c-15.34 5.27-32.6 10.61-48.87 11.27-12.55.51-26.02.45-37.93-2.32-15.9-3.7-40.34-13.16-50.19-26.73-6.19-8.52-8.98-20.42-4.36-30.7 4.12-9.17 10.18-14.62 18.72-20.83 25.27-18.36 61.79-20.57 90.49-9.83a.42.41-74.7 00.55-.32c6.98-39.76 29.95-78.76 54.55-110.07 17.81-22.66 31.46-45.44 41.4-72.73q.84-2.31-1.25-1.03-4.43 2.71-9.56 3.34a1.31 1.3 14.6 00-.88.51c-2.62 3.48-4.7 8.19-8.45 10.62-5.02 3.25-12.83 3.74-18.54 3.19-10.91-1.06-21.64-8.18-32.97-10.91q-9.59-2.3-20.14-2.44c-3.72-.05-6.11 1.7-9.15 4.69-10.49 10.3-6.22 28.2-20.15 34.88a.58.58 0 01-.75-.83c6.15-10.09 7.79-22.17 11.14-33.42a.3.29 83 00-.43-.34q-15.15 8.89-27.07 21.61-1.25 1.34-2.49 2.22a.29.29 0 01-.42-.37q9.21-17.46 25.1-28.9c6.22-4.47 12.2-5.33 19.54-7.15 8.07-1.99 17.34.31 25.32 1.87 8.8 1.72 16.83 5.44 25.18 8.78 4.98 1.99 22.03 4.53 23.88-3.1a.63.62 13.9 00-.46-.75q-8.54-2.01-14.15-8.53-15.65-18.19-27.53-38.93c-8.58-15.01-12.77-29.23-13.82-46.24-.74-12.13 2.55-24.85 7.33-35.93 9.9-22.93 38.92-37.36 63.13-33.83q17.57 2.56 31.01 13.78c12.7 10.6 17.87 23.18 21.19 38.68q1.68 7.85 3.48 15.13c4.75 19.23 8.33 41.36 6.98 61.64q-.38 5.73-2.47 16.44c-1.41 7.24-2.56 14.91-4.65 21.69-14.06 45.68-43.41 84.25-63.4 127.23-2.39 5.12-3.72 11.35-5.61 17.42q-6.41 20.5-5.42 43.23a.31.31 0 00.46.26c8.12-4.34 16.36-9.13 24.64-12.4q35.67-14.07 74.03-17.73 18.44-1.76 32.8 1.63c9.87 2.34 17.48 3.73 26.26 7.85a2.23 2.23 0 002.22-.18c5.39-3.72 12.05-7.86 16.17-12.2 6.37-6.71 13.47-19.49 7.72-28.67-4.84-7.71-13.24-8.94-21.07-11.67-1.77-.62-2.59-2.61-.79-3.65 1.87-1.09 5.13-.79 8.01-.56q13.22 1.03 25 9.08c15.99 10.94 11.59 30.02 2.97 43.99q-5.71 9.26-16.17 19.73a.6.59-41 00-.06.76c21.76 29.58 2.29 52.92-21.85 70.32-8.55 6.16-21.84 13.01-29.6 15.75q-22.1 7.81-45.31 11zm-80.75-291.33q13.59 3.33 22.35-6.87 15.73-18.35 27.79-40.18c11.42-20.68 15.52-41.42 8.53-64.51-6.85-22.56-24.34-36.71-48.18-39.33q-6.49-1.1-11.68 0-38.91 8.25-47.42 44.65c-2.51 10.72-2.38 25.26.05 35.79 3.11 13.45 10.7 25.91 19.04 38.77q8.66 13.35 19 25.49 4.17 4.9 10.52 6.19zm49.23-33.36l-9.37 14.27q-.3.46.23.36c10.03-1.78 9.45-5.85 9.78-14.42a.35.35 0 00-.64-.21zm-.93 17.81c-7.5.5-18.53 4.73-18.74 13.83a.49.49 0 00.49.5c8.76-.03 21.04-1.2 18.84-13.87a.56.55 82.6 00-.59-.46zm-20.61 21.53q-2.1 4.03-2.83 7.87a1.04 1.04 0 001.05 1.23c9.52-.21 18.04-.64 19.6-12.16a.5.49 8 00-.43-.56c-4.16-.59-15-.99-17.39 3.62zm11.9 13.14q-9.17-1.28-16.49 2.36c-3.35 1.67-4.81 6.48-5.39 9.79a.96.95-88.2 001.04 1.11c8.99-.96 19.43-1.19 21.31-12.61a.56.56 0 00-.47-.65zm-28.25 26.97c8.83.71 20.64.03 22.53-11a.4.4 0 00-.42-.47q-8.59.54-14.88 1.77c-5.15 1-6.69 3.85-8.08 8.46a.96.96 0 00.85 1.24zm-10.89 16.5c13.11.62 21.29 3.52 26.1-11.8a.38.38 0 00-.34-.5q-10.37-.76-20.54 1.59a1.08 1.03 7.1 00-.66.49c-.91 1.63-6.11 8.55-5.16 9.89a.79.79 0 00.6.33zm-16.09 20.5c4.76.45 20.54 2.17 24.38-1.55q2.89-2.8 6.92-11.54a.53.53 0 00-.24-.7c-4.77-2.41-14.33-1.92-19.67-1.68a1.81 1.8 16.8 00-1.37.73l-10.39 13.93a.51.51 0 00.37.81zm18.73 6.07c-4.94-1.46-12.65-1.51-17.84-1.43-5.53.09-7.07 1.27-10.09 5.52q-4.56 6.42-8.5 13.41a.8.79-48.7 00.05.86q1.15 1.55 3.82 1.48c9.38-.27 19.52.21 24.64-7.8q4.5-7.01 8.09-11.49a.35.34-62.8 00-.17-.55zm-16.39 24.74c-4.6-2.26-16.13-1.88-21.18-1.23-2.54.32-3.48 1.09-4.68 3.2q-4.8 8.35-9.46 16.77-1.11 2-1.66 4.96a1.4 1.39-84 001.33 1.65c5.77.12 14.04 1.16 18.81-.82 7.74-3.2 9.78-11.18 13.66-17.67q1.73-2.9 3.48-5.82a.73.73 0 00-.3-1.04zM220.6 408.5c1.67 5.29 11.19 4.86 15.34 4.48 8.51-.78 15.19-2.42 16.74-12.17q1.51-9.54 4.31-18.99a.67.67 0 00-.63-.86l-24.62-.33a.81.81 0 00-.68.37q-.55.87-.96 1.83-5.13 12.21-9.49 24.72a1.46 1.43 46.2 00-.01.95zm-.99 37.28c3.85 5.89 16.13 6.83 21.98 5.84 3.25-.55 13.13-4.77 12.21-9.63q-2.48-13.08-2.31-26.22a.56.56 0 00-.7-.55q-15.45 3.93-31.02.62a.49.49 0 00-.58.38c-1.56 7.39-4.42 22.17.42 29.56zm-.82 5.81c2.78 25.8 14.82 29.24 38.2 28.77q6.55-.13 10.08-5.49a1.57 1.57 0 000-1.74q-6.22-9.24-10.15-19.65a.59.58 69.4 00-.75-.35c-12.08 4.47-25.47 4.36-36.98-1.8q-.45-.24-.4.26zm149.74.91c-5.17.01-5.08 7.33-3.9 10.72a1.53 1.52 73.2 001.83.98l10.31-2.74a1.39 1.37 79.5 001.02-1.5q-.39-3.53.69-6.9a.43.43 0 00-.41-.56h-9.54zm-167.74 9.17c4.49-10.62-10.22-8.84-15.15-7.97a.46.45 81.1 00-.36.5l1.1 8.85a.64.63 83.1 00.7.55l13.01-1.41a.88.87 8.3 00.7-.52zm146.53-6.33c-7.48 1.06-6.73 8.21-3.54 12.89a.8.8 0 00.8.34l15.11-2.79a.34.34 0 00.24-.48q-2.51-5.21-1.84-11.02a.57.57 0 00-.68-.63q-4.88.95-10.09 1.69zm-141.13 6.1l7.25-2.19a.68.66 86.6 00.46-.53c.76-4.75-4.19-5.07-7.59-4.72a.56.54-2.4 00-.5.53l-.22 6.45a.47.46 82.4 00.6.46zm-35.96 1.59l11.3.69a.6.6 0 00.64-.54q.55-5.29-3.48-8.5a1.62 1.57-26.6 00-1.11-.35l-12.04.73a.5.5 0 00-.39.77l4.14 6.64a1.2 1.18-13.6 00.94.56zm213.65-4.32l3.25-1.14a1.06 1.05-6.4 00.69-.86c.49-4.31-4.15-.65-4.9.93a.78.78 0 00.96 1.07zm-226.99.8l6.87 2.26a.42.42 0 00.48-.62q-2.52-3.92-7.21-2.83-.76.18-.46.88a.54.53 88.6 00.32.31zm163.92 10.32a2.24 2.23 62.8 001.61.52l16.19-1.26a.26.26 0 00.22-.36l-3.74-9.71a.76.75 70.2 00-.94-.45l-15.25 5.05a.9.89 80 00-.61.88q.1 3.26 2.52 5.33zm-12.37-1.2l4.22.62a.56.56 0 00.63-.67l-.36-1.7a.76.75-5.2 00-.73-.6q-2.45-.03-4 1.67a.41.41 0 00.24.68zm-52.25 32.68c10.37 1.47 27.52 2.2 34.89-5.88a1.22 1.21-56.9 00-.4-1.93q-9.29-4.14-16.07-11.63a.97.95 64.3 00-.86-.31c-4.01.62-8.4 1.97-11.89 2.41q-10.46 1.3-20.94.04c-3.43-.41-6.74-1.61-10.2-2.53q-.49-.13-.19.28 6.48 9.13 15.13 16.13c3.56 2.88 6.08 2.79 10.53 3.42zm-18.98-2.68c-1.72-2.26-3.94-4.87-6.04-6.8a.73.72-40.2 00-.88-.07q-3.77 2.41-8.01 3.88a1.15 1.14 61.6 00-.53 1.78l3.93 5.08a.79.77 61.9 00.86.27l10.48-3.53a.39.39 0 00.19-.61zm199.4-1.84c1.31-.85 2.68-1.96 3.98-2.88a.23.23 0 000-.38c-.11-.07-4.87 2.03-4.6 3.02a.41.41 0 00.62.24zm-233.33 4.76c1.26 6.89 13.03 3.58 16.65 2.59a.54.54 0 00.35-.76l-2.07-4.26q-.86-1.75-2.75-1.26l-11.78 3.06a.55.55 0 00-.4.63zm226.68-2.75c-2.27 1.07-11.06 3.33-9.51 7.27a.42.41-25.5 00.59.2l8.88-5.17a1.08 1.08 0 00.54-.9l.05-1.03a.39.39 0 00-.55-.37zm-172.05 8.67c9.28 6.46 21.59 12.09 33.02 11.2 5.3-.41 29.85-6.05 30.35-12.65a1.5 1.49-83.3 00-1.25-1.59q-8.16-1.35-15.68-4.75a.98.97-47.8 00-.9.05c-12.12 7.33-32.46 7.99-46.16 6.69a.29.29 0 00-.26.47c.26.34.63.4.88.58zm-121.7-6.91l12.89 4.26q.41.13.28-.27c-1.2-3.67-9.84-3.84-13.1-4.31a.17.16 57.8 00-.07.32zm47 7.94c2.13 1.74 9.4.67 12.08.25l4.76-.52a.75.74-32.8 00.3-1.38q-3.07-1.84-4.26-5.27a.53.53 0 00-.79-.27l-1.78 1.15a1.47 1.46 27.5 01-.77.24l-11.42.35a.65.65 0 00-.6.49q-.86 3.46 2.48 4.96zm-27-5.05c1.17 6 14.87 6.15 19.86 5.65a.33.33 0 00.25-.5l-3.21-5.1a.83.8-14.7 00-.68-.38l-15.74-.25a.49.48 85.1 00-.48.58zm243.99 4.2c-1.89 1.4-3.79 6.15-5.42 8.34q-.3.41.19.27 7.07-1.99 14.02-4.26c3.3-1.07 4.99-3.19 4.27-6.62a.53.53 0 00-.61-.41c-3.61.62-9.68.62-12.45 2.68zm-101.77 15.56c7.96.61 17.08 3.1 24.99 1.18 4.88-1.19 25.49-7.69 23.66-14.53a.82.81 86.2 00-.68-.6l-15.39-1.9a1.17 1.15-61.4 00-.92.28c-9.04 7.84-19.57 11.92-31.61 15.15q-.19.05-.22.17a.19.19 0 00.17.25zm91.66-13.73q-5.22-.29-9.65.24-.84.1-2.29 1.68-5.56 6.04-12.54 10.4a.41.41 0 00.27.75q9.69-1.34 19.15-3.8a1.77 1.7 14.3 00.79-.45c2.02-2.07 5.46-5.13 4.86-8.3a.64.64 0 00-.59-.52zm-19.67.55c-4.13-.08-8.3-.34-12.43-.51a1.09 1.08 21.5 00-.86.37q-8.36 9.61-19.86 15-.63.29.06.38c12.28 1.54 24.46-5.33 33.74-13.47a1.01 1.01 0 00-.65-1.77z"/><path fill="#fff" d="M295.24 86.32q-1.56.7-3.15 1.34-1.74.71-3.05 1.52-29.88 18.44-39.83 52.57-5.69-1.09-10.13 2.41a.84.81 66.6 00-.3.8q1.46 8.5 5.43 15.93c6.52 12.2 21.81 20.08 34.83 23.11-3.91 3.16-20.38-2.14-24.48-4.03q-1.24-.58-.74.7c6.95 17.98 16.81 34.67 26.08 51.51q.8 1.46 2.24 2.66 1.37 1.13 2.61 2.37-6.35-1.29-10.52-6.19-10.34-12.14-19-25.49c-8.34-12.86-15.93-25.32-19.04-38.77-2.43-10.53-2.56-25.07-.05-35.79q8.51-36.4 47.42-44.65 5.19-1.1 11.68 0z"/><path fill="#929698" d="M295.24 86.32c23.84 2.62 41.33 16.77 48.18 39.33 6.99 23.09 2.89 43.83-8.53 64.51q-12.06 21.83-27.79 40.18-8.76 10.2-22.35 6.87-1.24-1.24-2.61-2.37-1.44-1.2-2.24-2.66c-9.27-16.84-19.13-33.53-26.08-51.51q-.5-1.28.74-.7c4.1 1.89 20.57 7.19 24.48 4.03 2.52.74 3.47-3.24 3.5-4.98.31-19.14-15.54-33.48-33.33-37.27q9.95-34.13 39.83-52.57 1.31-.81 3.05-1.52 1.59-.64 3.15-1.34zm5.014 11.456a12.71 10.18-37.2 00-16.279-.425 12.71 10.18-37.2 00-3.969 15.793 12.71 10.18-37.2 0016.279.425 12.71 10.18-37.2 003.969-15.794zm24.576 16.004a6.79 6.79 0 00-6.79-6.79 6.79 6.79 0 00-6.79 6.79 6.79 6.79 0 006.79 6.79 6.79 6.79 0 006.79-6.79zm-28.66 69.8q.71 2.43 4.02 1.37 3.02-.97 11.79-3.25c11.06-2.89 26.88-11.78 28.09-24.76.36-3.85-.07-8.42-2.47-11.6a.56.55 55.4 00-.74-.14q-.67.44-1.07 1.05l-.15-2.01a1.02 1 13.5 00-.5-.79c-11.7-6.89-31.34 7.4-37.15 17.05-4.06 6.74-6.14 12.52-5.25 20.76q.31 2.8 3.43 2.32zm-8.48 5.34a1.86 1.81 38 00.22 1.63l5.35 7.9a1.29 1.29 0 002.28-.26q2.58-6.74-2.88-10.84c-2.11-1.58-4.15-.77-4.97 1.57zm-7.08-.07q-2.09 5.02-1.18 10.48a.48.48 0 00.78.28c2.09-1.82 6.41-6.44 5.66-9.51q-.61-2.49-3.81-2.29a1.71 1.69-80.3 00-1.45 1.04z"/><ellipse fill="#fff" transform="rotate(-37.2 301.749 -378.322)" rx="12.71" ry="10.18"/><circle fill="#fff" cx="318.04" cy="113.78" r="6.79"/><path fill="#1e1d1b" d="M249.21 141.75c17.79 3.79 33.64 18.13 33.33 37.27-.03 1.74-.98 5.72-3.5 4.98-13.02-3.03-28.31-10.91-34.83-23.11q-3.97-7.43-5.43-15.93a.84.81 66.6 01.3-.8q4.44-3.5 10.13-2.41zm4.72 9.4a3.3 3.3 0 00-3.3-3.3 3.3 3.3 0 00-3.3 3.3 3.3 3.3 0 003.3 3.3 3.3 3.3 0 003.3-3.3zm7.84 1.26a2.3 2.3 0 00-2.3-2.3 2.3 2.3 0 00-2.3 2.3 2.3 2.3 0 002.3 2.3 2.3 2.3 0 002.3-2.3zM335.79 146.25c-2.94 21.49-20.05 32.52-39.62 37.33q-3.12.48-3.43-2.32c-.89-8.24 1.19-14.02 5.25-20.76 5.81-9.65 25.45-23.94 37.15-17.05a1.02 1 13.5 01.5.79l.15 2.01zm-16.68 5.82a3.26 3.26 0 00-3.26-3.26 3.26 3.26 0 00-3.26 3.26 3.26 3.26 0 003.26 3.26 3.26 3.26 0 003.26-3.26zm8.13.03a2.32 2.32 0 00-2.32-2.32 2.32 2.32 0 00-2.32 2.32 2.32 2.32 0 002.32 2.32 2.32 2.32 0 002.32-2.32z"/><path fill="#fff" d="M296.17 183.58c19.57-4.81 36.68-15.84 39.62-37.33q.4-.61 1.07-1.05a.56.55 55.4 01.74.14c2.4 3.18 2.83 7.75 2.47 11.6-1.21 12.98-17.03 21.87-28.09 24.76q-8.77 2.28-11.79 3.25-3.31 1.06-4.02-1.37z"/><circle fill="#fff" cx="250.63" cy="151.15" r="3.3"/><circle fill="#fff" cx="315.85" cy="152.07" r="3.26"/><circle fill="#fff" cx="324.92" cy="152.1" r="2.32"/><circle fill="#fbfee1" cx="259.47" cy="152.41" r="2.3"/><path fill="#1e1d1b" d="M287.69 188.92c.82-2.34 2.86-3.15 4.97-1.57q5.46 4.1 2.88 10.84a1.29 1.29 0 01-2.28.26l-5.35-7.9a1.86 1.81 38 01-.22-1.63zM280.61 188.85a1.71 1.69-80.3 011.45-1.04q3.2-.2 3.81 2.29c.75 3.07-3.57 7.69-5.66 9.51a.48.48 0 01-.78-.28q-.91-5.46 1.18-10.48z"/><path fill="#929698" d="M333.98 203.85a.35.35 0 01.64.21c-.33 8.57.25 12.64-9.78 14.42q-.53.1-.23-.36l9.37-14.27zM314.31 235.49c.21-9.1 11.24-13.33 18.74-13.83a.56.55 82.6 01.59.46c2.2 12.67-10.08 13.84-18.84 13.87a.49.49 0 01-.49-.5zM312.44 243.19c2.39-4.61 13.23-4.21 17.39-3.62a.5.49 8 01.43.56c-1.56 11.52-10.08 11.95-19.6 12.16a1.04 1.04 0 01-1.05-1.23q.73-3.84 2.83-7.87zM324.34 256.33a.56.56 0 01.47.65c-1.88 11.42-12.32 11.65-21.31 12.61a.96.95-88.2 01-1.04-1.11c.58-3.31 2.04-8.12 5.39-9.79q7.32-3.64 16.49-2.36zM296.09 283.3a.96.96 0 01-.85-1.24c1.39-4.61 2.93-7.46 8.08-8.46q6.29-1.23 14.88-1.77a.4.4 0 01.42.47c-1.89 11.03-13.7 11.71-22.53 11zM285.2 299.8a.79.79 0 01-.6-.33c-.95-1.34 4.25-8.26 5.16-9.89a1.08 1.03 7.1 01.66-.49q10.17-2.35 20.54-1.59a.38.38 0 01.34.5c-4.81 15.32-12.99 12.42-26.1 11.8zM269.11 320.3a.51.51 0 01-.37-.81l10.39-13.93a1.81 1.8 16.8 011.37-.73c5.34-.24 14.9-.73 19.67 1.68a.53.53 0 01.24.7q-4.03 8.74-6.92 11.54c-3.84 3.72-19.62 2-24.38 1.55zM270 324.94c5.19-.08 12.9-.03 17.84 1.43a.35.34-62.8 01.17.55q-3.59 4.48-8.09 11.49c-5.12 8.01-15.26 7.53-24.64 7.8q-2.67.07-3.82-1.48a.8.79-48.7 01-.05-.86q3.94-6.99 8.5-13.41c3.02-4.25 4.56-5.43 10.09-5.52zM250.27 349.88c5.05-.65 16.58-1.03 21.18 1.23a.73.73 0 01.3 1.04q-1.75 2.92-3.48 5.82c-3.88 6.49-5.92 14.47-13.66 17.67-4.77 1.98-13.04.94-18.81.82a1.4 1.39-84 01-1.33-1.65q.55-2.96 1.66-4.96 4.66-8.42 9.46-16.77c1.2-2.11 2.14-2.88 4.68-3.2zM235.94 412.98c-4.15.38-13.67.81-15.34-4.48a1.46 1.43 46.2 01.01-.95q4.36-12.51 9.49-24.72.41-.96.96-1.83a.81.81 0 01.68-.37l24.62.33a.67.67 0 01.63.86q-2.8 9.45-4.31 18.99c-1.55 9.75-8.23 11.39-16.74 12.17zM219.61 445.78c-4.84-7.39-1.98-22.17-.42-29.56a.49.49 0 01.58-.38q15.57 3.31 31.02-.62a.56.56 0 01.7.55q-.17 13.14 2.31 26.22c.92 4.86-8.96 9.08-12.21 9.63-5.85.99-18.13.05-21.98-5.84z"/><path fill="#929698" d="M256.99 480.36c-23.38.47-35.42-2.97-38.2-28.77q-.05-.5.4-.26c11.51 6.16 24.9 6.27 36.98 1.8a.59.58 69.4 01.75.35q3.93 10.41 10.15 19.65a1.57 1.57 0 010 1.74q-3.53 5.36-10.08 5.49zM364.63 463.22c-1.18-3.39-1.27-10.71 3.9-10.72h9.54a.43.43 0 01.41.56q-1.08 3.37-.69 6.9a1.39 1.37 79.5 01-1.02 1.5l-10.31 2.74a1.53 1.52 73.2 01-1.83-.98zM185.64 453.7c4.93-.87 19.64-2.65 15.15 7.97a.88.87 8.3 01-.7.52l-13.01 1.41a.64.63 83.1 01-.7-.55l-1.1-8.85a.46.45 81.1 01.36-.5zM343.78 468.23c-3.19-4.68-3.94-11.83 3.54-12.89q5.21-.74 10.09-1.69a.57.57 0 01.68.63q-.67 5.81 1.84 11.02a.34.34 0 01-.24.48l-15.11 2.79a.8.8 0 01-.8-.34zM206.19 461.44a.47.46 82.4 01-.6-.46l.22-6.45a.56.54-2.4 01.5-.53c3.4-.35 8.35-.03 7.59 4.72a.68.66 86.6 01-.46.53l-7.25 2.19zM169.29 462.47l-4.14-6.64a.5.5 0 01.39-.77l12.04-.73a1.62 1.57-26.6 011.11.35q4.03 3.21 3.48 8.5a.6.6 0 01-.64.54l-11.3-.69a1.2 1.18-13.6 01-.94-.56zM383.88 458.71a.78.78 0 01-.96-1.07c.75-1.58 5.39-5.24 4.9-.93a1.06 1.05-6.4 01-.69.86l-3.25 1.14z"/><path fill="#fbfee1" d="M156.89 459.51a.54.53 88.6 01-.32-.31q-.3-.7.46-.88 4.69-1.09 7.21 2.83a.42.42 0 01-.48.62l-6.87-2.26z"/><path fill="#929698" d="M320.81 469.83q-2.42-2.07-2.52-5.33a.9.89 80 01.61-.88l15.25-5.05a.76.75 70.2 01.94.45l3.74 9.71a.26.26 0 01-.22.36l-16.19 1.26a2.24 2.23 62.8 01-1.61-.52zM308.44 468.63a.41.41 0 01-.24-.68q1.55-1.7 4-1.67a.76.75-5.2 01.73.6l.36 1.7a.56.56 0 01-.63.67l-4.22-.62zM256.19 501.31c-4.45-.63-6.97-.54-10.53-3.42q-8.65-7-15.13-16.13-.3-.41.19-.28c3.46.92 6.77 2.12 10.2 2.53q10.48 1.26 20.94-.04c3.49-.44 7.88-1.79 11.89-2.41a.97.95 64.3 01.86.31q6.78 7.49 16.07 11.63a1.22 1.21-56.9 01.4 1.93c-7.37 8.08-24.52 7.35-34.89 5.88zM231.17 491.83c2.1 1.93 4.32 4.54 6.04 6.8a.39.39 0 01-.19.61l-10.48 3.53a.79.77 61.9 01-.86-.27l-3.93-5.08a1.15 1.14 61.6 01.53-1.78q4.24-1.47 8.01-3.88a.73.72-40.2 01.88.07zM440.59 493.91c-1.3.92-2.67 2.03-3.98 2.88a.41.41 0 01-.62-.24c-.27-.99 4.49-3.09 4.6-3.02a.23.23 0 010 .38zM219.93 504.14c-3.62.99-15.39 4.3-16.65-2.59a.55.55 0 01.4-.63l11.78-3.06q1.89-.49 2.75 1.26l2.07 4.26a.54.54 0 01-.35.76zM420.45 506.07c-1.55-3.94 7.24-6.2 9.51-7.27a.39.39 0 01.55.37l-.05 1.03a1.08 1.08 0 01-.54.9l-8.88 5.17a.42.41-25.5 01-.59-.2zM257.91 507.47c-.25-.18-.62-.24-.88-.58a.29.29 0 01.26-.47c13.7 1.3 34.04.64 46.16-6.69a.98.97-47.8 01.9-.05q7.52 3.4 15.68 4.75a1.5 1.49-83.3 011.25 1.59c-.5 6.6-25.05 12.24-30.35 12.65-11.43.89-23.74-4.74-33.02-11.2z"/><path fill="#fbfee1" d="M136.21 500.56a.17.16 57.8 01.07-.32c3.26.47 11.9.64 13.1 4.31q.13.4-.28.27l-12.89-4.26z"/><path fill="#929698" d="M195.29 508.75l-.17-.53a1.11 1.1.6 00-.69-.7q-2.56-.88-5.07.31a1.26 1.23-48.9 01-.9.07q-2.81-.82-5.25.6-3.34-1.5-2.48-4.96a.65.65 0 01.6-.49l11.42-.35a1.47 1.46 27.5 00.77-.24l1.78-1.15a.53.53 0 01.79.27q1.19 3.43 4.26 5.27a.75.74-32.8 01-.3 1.38l-4.76.52zM176.07 509.1c-4.99.5-18.69.35-19.86-5.65a.49.48 85.1 01.48-.58l15.74.25a.83.8-14.7 01.68.38l3.21 5.1a.33.33 0 01-.25.5zM400.2 507.65c2.77-2.06 8.84-2.06 12.45-2.68a.53.53 0 01.61.41c.72 3.43-.97 5.55-4.27 6.62q-6.95 2.27-14.02 4.26-.49.14-.19-.27c1.63-2.19 3.53-6.94 5.42-8.34z"/><path fill="#fbfee1" d="M195.29 508.75c-2.68.42-9.95 1.49-12.08-.25q2.44-1.42 5.25-.6a1.26 1.23-48.9 00.9-.07q2.51-1.19 5.07-.31a1.11 1.1.6 01.69.7l.17.53z"/><path fill="#929698" d="M323.42 524.39c-7.91 1.92-17.03-.57-24.99-1.18a.19.19 0 01-.17-.25q.03-.12.22-.17c12.04-3.23 22.57-7.31 31.61-15.15a1.17 1.15-61.4 01.92-.28l15.39 1.9a.82.81 86.2 01.68.6c1.83 6.84-18.78 13.34-23.66 14.53zM390.09 509.48a.64.64 0 01.59.52c.6 3.17-2.84 6.23-4.86 8.3a1.77 1.7 14.3 01-.79.45q-9.46 2.46-19.15 3.8a.41.41 0 01-.27-.75q6.98-4.36 12.54-10.4 1.45-1.58 2.29-1.68 4.43-.53 9.65-.24zM357.99 509.52c4.13.17 8.3.43 12.43.51a1.01 1.01 0 01.65 1.77c-9.28 8.14-21.46 15.01-33.74 13.47q-.69-.09-.06-.38 11.5-5.39 19.86-15a1.09 1.08 21.5 01.86-.37zM365.5 528.54q-1.8.8-3.75.67 1.68-1.09 3.75-.67z"/><path fill="#fff" d="M590.29 589.75h.42l.29.31v.94h-1.06l-.19-.71.54-.54z"/><path fill="#fbfee1" d="M589.75 590.29l.19.71h-2q-14.63-.63-29.25 0h-11.5q-2.13-.63-4.25 0h-106.5q-2.38-.63-4.75 0h-38.25q-2.38-.63-4.75 0h-4.25q-2.88-.63-5.75 0h-10.25q-2.38-.63-4.75 0H145.94q-5.5-.63-11 0h-2.5q-3.38-.63-6.75 0H8.44q-3.5-.63-7 0H.69q-.17-.13-.26-.28a.3.29 70.3 01.21-.45c2.33-.27 5.19-.01 6.83-.01q291.14-.05 582.28.03z"/><path fill="#1e1d1b" d="M8.44 591h-7q3.5-.63 7 0zM132.44 591h-6.75q3.37-.63 6.75 0zM145.94 591h-11q5.5-.63 11 0zM368.44 591h-4.75q2.37-.63 4.75 0zM384.44 591h-5.75q2.87-.63 5.75 0zM393.44 591h-4.75q2.37-.63 4.75 0zM436.44 591h-4.75q2.37-.63 4.75 0z"/><path fill="#929698" d="M547.19 591h-4.25q2.12-.63 4.25 0z"/><path fill="#1e1d1b" d="M587.94 591h-29.25q14.62-.63 29.25 0z"/></svg>