<svg xmlns="http://www.w3.org/2000/svg" viewBox="0 0 591 591"><g stroke-width="2" fill="none"><path stroke="#111110" vector-effect="non-scaling-stroke" d="M590.06 0l.19.29"/><path stroke="#7d7f70" vector-effect="non-scaling-stroke" d="M590.25.29v589.46a.5.5 0 01-.5.5q-291.66.01-583.31-.22-3.1 0-6.19.01"/><path stroke="#111110" vector-effect="non-scaling-stroke" d="M.25 590.04l-.25-.1"/><path stroke="#7d7f70" vector-effect="non-scaling-stroke" d="M586.25 4.51a.26.26 0 00-.26-.26H4.51a.26.26 0 00-.26.26v581.48a.26.26 0 00.26.26h581.48a.26.26 0 00.26-.26V4.51"/><path stroke="#8e8f7f" vector-effect="non-scaling-stroke" d="M591 587.56c-.84-.45-.25-537.29-.25-587.06a.25.24-86.1 00-.21-.25q-.17-.02-.29.04M12.44 591q-5.83-.43-11.68-.26c-.52.02-.66-.23-.51-.7M295.26 21.28q-11.29 5.62-23.77 7.39-.67.1-1.4 1.13-.3.42.2.29c4.74-1.25 10.07-2.15 14.3-3.6q5.85-2.01 11.43-4.79a.4.4 0 00-.01-.72c-.22-.11-.58.21-.75.3"/><path stroke="#faf1c5" vector-effect="non-scaling-stroke" d="M41.52 28.02c-11.74.11-20.61 8.08-20.69 20.16q-.16 22.13-.05 44.08a.57.57 0 00.87.49q2.33-1.45 4.25-3.35 29.32-28.93 58.49-58.01 1.13-1.12 2.02-2.44a.78.78 0 00-.65-1.22q-22.18.09-44.24.29"/><path stroke="#c5c8b9" vector-effect="non-scaling-stroke" d="M360.25 487.46q4.84-.95 6.75-5.42"/><path stroke="#8e8f7f" vector-effect="non-scaling-stroke" d="M367 482.04c13.92-1.16 28.14-.69 40.47-4.81a1.65 1.62 41.3 01.92-.05l21.13 4.6q.63.13.04.38-8.44 3.47-17.58 4.3c-1.9.17-4.47 1.67-7.06 1.98-6.47.75-14.95 4.92-14.15 12.38 1.16 10.7 14.05 12.06 22.93 15.33a1.61 1.55 81.8 01.76.59q3.64 5.19 6.31 10.92c3.11 6.67 11.29 7.27 17.16 6.12 5.57-1.1 8.77-6.13 9.62-11.59q1.07-6.83 2.33-13.62c2.57-13.91 16.33-22.06 26.26-30.51a1.11 1.07-59.8 01.88-.25c27.14 4.22 53.44 2.65 74.05-17.52q4.97-4.86 6.69-9.27c3.84-9.8-.51-18.57-10.88-19.63q-4.67-.47-9.37.41c-4.41.84-10.43-1.83-14.84-2.72a.3.3 0 01-.17-.49q5.46-6.61 12.29-11.78c2.95-2.23 6.77-1.7 9.42-2.55q8.78-2.84 10.78-11.05c2.69-11.04-10.46-10.36-18.75-9.89-7.38.42-6.25-8.53-10.36-12.17-3.86-3.43-9.09-3.03-12.96.27-4.59 3.93-4.78 10.13-3.54 16.07.71 3.41-13.1 17.2-16.02 19.98a.58.57-46.6 01-.75.03c-6.35-5.23-12.1-11.28-20.3-13.44a1.02 1 86.2 01-.67-.6c-6.9-17.36-21.84-31.53-38.92-38.63-6.73-2.8-15.44-5.19-21.29-9.38"/><path stroke="#c5c8b9" vector-effect="non-scaling-stroke" d="M411.43 355.45l-2.6-6.26"/><path stroke="#8e8f7f" vector-effect="non-scaling-stroke" d="M408.83 349.19q-.7-.82-1.19-2.54-.13-.47-.48-.81l-8.57-8.53a1.16 1.15 26.1 01-.33-.96c.36-3.19 1.31-6.48 1.51-9.28q.52-7.43-1.45-14.73a.56.55-12.1 00-.63-.4q-4.73.83-5.96 1.28c-5.08 1.82-15.58 8.31-19.81 13.89a.49.49 0 01-.88-.3q-.02-7.77-6.15-12.22a1.05 1.04-71.3 01-.42-.86c.15-7.41-3.68-24.25-12.47-25.65a.51.5 8.6 01-.43-.57c.85-5.73-2.54-12.11-6.4-16.17q-.94-.99-1.8-4.42c-1.99-7.91-5-14.09-11.76-19.35a1.52 1.51 11.7 01-.52-.79c-1.66-6.14-3.69-11.32-8.5-15.63a1.06 1.02-68.1 01-.34-.84q.82-13.43-9.26-21.71a.9.89-68.6 01-.32-.75q.77-11.52-8.25-18.36a.62.62 0 01-.23-.66c2.17-8.02-2.23-17.49-9.73-21.63a.81.81 0 01-.42-.74q.31-7.7-4.82-13.15c-1.04-1.11-2.69-1.98-3.93-3.18a1.28 1.25-69.5 01-.38-.86q-.33-8.24-6.94-13a.97.97 0 01-.4-.84q.38-9.94-7.54-15.24c-7.7-5.15-14.57 1.18-13.4 9.49q1.2 8.5 8.55 12.76a.8.79-71.8 01.39.78q-.87 7.89 5.7 11.8a.77.77 0 01.38.68q-.24 11.67 8.59 19.06a.84.83-67.7 01.3.72q-1.08 12.02 8.5 19.09a1.01 1-72 01.41.81c-.12 8.38 1.65 17.1 9.51 21.62a.91.91 0 01.46.79q.15 12.72 10.53 19.97a.97.97 0 01.42.8q.05 9.52 7.46 15.41a1.11 1.1-70.7 01.41.86c-.06 6.77 1.82 16.25 7.18 20.6a1.06 1.06 0 01.4.81q.27 11.17 9.64 17.36.93.61 1.6 1.58a1.4 1.37 29.8 01.25.88q-.94 17.53 14.33 25.38a.86.84 18.8 01.45.89q-.61 3.83.86 7.3a.37.36 78.9 01-.34.51h-2.3a.95.95 0 00-.86.54l-3.13 6.45a.43.43 0 01-.59.19c-7.93-4.12-14.69-8.03-22.37-13.96-18.68-14.44-39.66-24.43-63.09-28.55-11.06-1.95-23.3-1.03-34.38.4-23.06 3-41.7 12.39-62.55 23.57-14.34 7.69-30.1 19.61-41.12 26.45Q98.73 359.8 69.64 370.8c-11.64 4.4-20.57 7.8-28.82 11.29-8.09 3.42-13.58 9.66-8.22 18.63 7.02 11.78 17.4 13.72 31.49 15.54 17.23 2.22 33.43-.19 52.97-3.38 2.19-.35 4.33-.16 6.55-.77q16.75-4.61 34.13-4.96 1.01-.02 1.98.24a1.14 1.12 83.6 01.71.58c5.25 10.4 13.67 22.81 4.28 33.27q-7.21 8.04-3.42 18.59c.83 2.32 2.36 2.91 4.62 3.25a.64.64 0 01.54.55c.67 5.42 5.86 11.75 11.26 5.7a.39.39 0 01.61.04c4.51 6.53 8.17 10.14 15.09 3.15a.54.52-46.6 01.73-.03c2.79 2.46 5.96 4.93 9.22 2.15 4.55-3.87 4.28-9.11 4.19-15.4a.31.31 0 01.44-.29c2.3 1.11 4.79 2.68 7.3 2.2 8.12-1.54 1.16-13.96-.62-18.03q-.2-.46.24-.23c9.06 4.66 18.18 8.68 28.21 11.14 5.15 1.27 10.37 3.43 15.6 4.05 2.73.33 6.61-.1 7.75 2.91 3.64 9.57 12.8 17.4 19.75 24.99 5.4 5.88 7.55 11.31 9.46 18.81q2.34 9.2 12.02 7.98a1.07 1.06-25.7 01.9.31q3.57 3.61 8.41 5.36a.54.54 0 00.66-.25c1.69-3.27 4.08-3.25 4.31-7.57a.56.56 0 011.02-.3q3.09 4.33 8.47 4.77a1.51 1.45 68.5 01.92.42l4.24 4.24q.63.64.79-.25l.47-2.57q.09-.49.36-.9 1.65-2.42 2.3-5.3a.58.57 6.6 01.58-.45c2.82.04 4.92 1.92 7.13 2.41q1.98.44 4.01.72.52.07.95.37l2.7 1.89a.44.44 0 00.68-.3q.82-5.92-.93-11.55a1.87 1.82-80.9 00-.67-.95q-2.25-1.68-1.83-4.62a1.14 1.11-62.1 00-.26-.89l-3.36-3.89a.81.81 0 01-.1-.93c1.65-3.02 7.86-2.87 10.8-5.08"/><path stroke="#595a59" vector-effect="non-scaling-stroke" d="M408.83 349.19q-13.82-5.41-25.24 4.25"/><path stroke="#91908f" vector-effect="non-scaling-stroke" d="M383.59 353.44q-4.09 1.97-7.37 5.02c-7.34 6.82-13.89 14.31-18.03 23.59q-3.03 6.77-6.49 13.36"/><path stroke="#595a59" vector-effect="non-scaling-stroke" d="M351.7 395.41q-9.98 27.46-7.12 56.3c1.38 13.92 4.86 24.34 15.31 34.36a1.17 1.14-69.5 01.36.82v.57"/><path stroke="#c5c8b9" vector-effect="non-scaling-stroke" d="M357.04 398.5l-1.81 3.41a.63.62 34.8 00.14.77q.36.3 1.09.07"/><path stroke="#595a59" vector-effect="non-scaling-stroke" d="M411.43 355.45q-5.3-2.17-10.89-1.48-.99.12-1.95-.35a1.24 1.18-39.9 00-.9-.06q-7.23 2.38-13.46 6.74a1.14 1.05 25.4 01-.64.2h-.3"/><path stroke="#c8c9c9" vector-effect="non-scaling-stroke" d="M383.29 360.5q-1.74-3.73.3-7.06"/><path stroke="#91908f" vector-effect="non-scaling-stroke" d="M383.29 360.5q-1.79 2.41-6.6 6.44-5.93 4.96-10.96 15.09"/><path stroke="gray" vector-effect="non-scaling-stroke" d="M365.73 382.03q-4.63 7.96-7.77 16.47"/><path stroke="#fdfeef" vector-effect="non-scaling-stroke" d="M357.96 398.5h-.92"/><path stroke="#c8c9c9" vector-effect="non-scaling-stroke" d="M357.04 398.5c.01-.33-4.37-2.39-5.34-3.09"/><path stroke="#595a59" vector-effect="non-scaling-stroke" d="M367 482.04q-1.84-.37-3.09-1.26"/><path stroke="#111110" vector-effect="non-scaling-stroke" d="M363.91 480.78q-.7-2.49-2.24-4.46-2.4-3.07-2.84-3.97c-2.63-5.29-3.49-10.58-5.46-16.02-3.53-9.73-2.27-23.03-.97-34.13.81-6.85 4.07-13.85 6.11-20.48q.85-2.77 2.82-6.51 3.25-6.2 4.4-13.18"/><path stroke="#48494a" vector-effect="non-scaling-stroke" d="M363.91 480.78c-4.55-2.57-5.17-5.62-7.34-9.8-7.91-15.21-8.04-31.79-5.69-48.38.93-6.49 3.69-13.2 5.58-19.85"/><path stroke="#7d7f70" vector-effect="non-scaling-stroke" d="M356.46 402.75l1.5-4.25"/><path stroke="#8e8f7f" vector-effect="non-scaling-stroke" d="M269.311 135.82a5.76 3.27 68.5 00.932-6.558 5.76 3.27 68.5 00-5.154-4.161 5.76 3.27 68.5 00-.931 6.558 5.76 3.27 68.5 005.153 4.16M271.56 145.8c3.17 7.28 11.24 3.9 4.51-2.13a.86.85-35.3 00-.9-.15l-3.25 1.37a.69.69 0 00-.36.91M285.104 158.44a3.04 3.04 0 00-4.077-1.365l-.876.437a3.04 3.04 0 00-1.365 4.077l2.33 4.672a3.04 3.04 0 004.077 1.364l.877-.437a3.04 3.04 0 001.364-4.077l-2.33-4.672M295.6 188.28c3 .32 3.07-4.46 2.59-6.11q-1.45-4.91-5.18-8.25a.66.64-39.3 00-.76-.07l-4.99 2.98a.85.83 73 00-.4.77q.44 7.04 5.76 11.71a.55.54 49 00.65.05l1.35-.86a1.54 1.52 32.1 01.98-.22M305.31 207.7c-.26-5.87-.41-8.31-3.76-12.4a.62.62 0 00-.73-.17l-4.86 2.14a.72.71 75.1 00-.41.72c.47 4.94 1.36 9.62 5.73 12.31a.92.92 0 00.99-.01l2.54-1.64a1.11 1.08-17.8 00.5-.95M310.87 216q-1.22 3.24-4.37 2.41a.42.41-84.5 00-.52.43c.23 3.46 3.42 12.76 7.9 12.67a2 1.99-.3 001.95-1.96q.15-7.49-3.79-13.67a.66.66 0 00-1.17.12M315.6 239.86a.97.97 0 00-.25 1.26l3.93 6.84a.6.6 0 00.79.23l4.22-2.2a.67.66 71.8 00.35-.7c-.36-2-2.2-9.53-5.17-6.26a.86.85 27.5 01-.84.26q-1.73-.43-3.03.57M329.23 269.72a.33.33 0 00.42-.08q1.9-2.29 4.92-2.22a.74.73 86.4 00.74-.85c-.62-4.19-2.59-11.35-7.82-11.55a1.25 1.23-64.9 00-.89.33c-2.82 2.66-.75 12.51 2.63 14.37M333.31 279.97c.78 3.71 3.55 8.38 7.57 8.78 7.54.75.74-17.79-7.32-9.62a.93.92 61.9 00-.25.84M351.04 312.48c2.46 2.14 6.25 1.73 5.52-2.07-1.09-5.63-2.06-9.6-6.19-13.92a1.05 1.03 60.3 00-1.02-.29q-2.54.66-4.18 2.83a1.35 1.33-28.2 00-.28.9q.44 7.58 6.15 12.55"/><path stroke="#595a59" vector-effect="non-scaling-stroke" d="M261.47 333.81c-.11.59-5.34-1.34-5.22 2.31.13 3.86 5.76 7.16 9.21 8.66 7.67 3.31 14.1 5.45 22.18 3.33a1.88 1.81 14.1 00.87-.5l.78-.78a.91.91 0 01.98-.21c11.83 4.69 24.2 7.16 31.96 18.3.73 1.05.57 1.93.03 2.96a.76.75-75 00.64 1.11c2.71.1 4.42-.68 6.11-2.96 4.53-6.13 11.59-14.43 13.69-21.69a.9.89-66.9 00-.41-1.03q-18.44-10.72-35.32-23.6c-13.11-9.99-28.12-14.47-43.74-18.13q-3.9-.91-11.98-1.23-43.7-1.71-78.92 21.52a1.09 1.09 0 00-.48.73q-1.15 6.4-6.21 10.36a.54.54 0 00.51.94c4.16-1.39 6.42 3.76 3.01 6.28q-1.98 1.45-2.91 3.08-.25.45.2.2 1.35-.74 2.8-1.19c16.14-5.12 30.97-10.37 48.74-11.4q18.68-1.1 37.27 1.06 3.05.36 5.93 1.39a.43.43 0 01.28.49"/><path stroke="#91908f" vector-effect="non-scaling-stroke" d="M379.71 335q1.74 3.17 5.29 3.54"/><path stroke="#595a59" vector-effect="non-scaling-stroke" d="M385 338.54c10.59 1.77 9.5-12.34 9.2-18.78a.55.54-13.2 00-.76-.47c-4.19 1.76-19.01 9.48-13.73 15.71"/><path stroke="#c8c9c9" vector-effect="non-scaling-stroke" d="M385 338.54q.56-2.4 1.74-4.53c2.08-3.75 3.02-7.24 4.57-11.02a.39.39 0 00-.68-.38l-3.15 4.24q-.31.42-.72.74-4.12 3.14-7.05 7.41"/><path stroke="#91908f" vector-effect="non-scaling-stroke" d="M360.75 360.29q4.56-1.58 3.71-6.54"/><path stroke="#595a59" vector-effect="non-scaling-stroke" d="M364.46 353.75c.07-4.16-6.31-14.11-10.47-16.07a.76.76 0 00-.84.12q-2.63 2.42-3.77 5.87c-1.68 5.15-6.2 15.16 1.44 17.72q5 1.68 9.93-1.1"/><path stroke="#c8c9c9" vector-effect="non-scaling-stroke" d="M364.46 353.75c-1.18-1.12-6.59-8.41-7.12-8.35a.42.41-14.2 00-.34.56q2.62 6.99 3.75 14.33"/><path stroke="#8e8f7f" vector-effect="non-scaling-stroke" d="M129.04 403.75l16.22-3.43q.42-.08 0-.16-11.14-1.95-22.32.42"/><path stroke="#595a59" vector-effect="non-scaling-stroke" d="M122.94 400.58l-7.06.19a1.39 1.36 23 00-.84.33c-.53.47-.97.25-1.39.34q-22.61 4.73-45.64 3.96c-4.76-.16-20.2-2.43-22.39-7.35-1.13-2.56-.24-5.34 2.82-6.1 26.06-6.49 53.35-15.2 78.14-29.73a1.01 1 78.6 00.49-.75c.63-5.42 3.04-6.55 6.12-9.74a.65.64 47.5 00.03-.86l-1.6-1.93a.71.71 0 00-.9-.16q-18.77 10.84-29.13 16.08c-17.33 8.77-37.62 14.17-56.23 22.07q-4.77 2.02-6.41 3.51c-6.42 5.82 4.22 15.31 9.79 16.8 19.2 5.11 40.43 4.24 62.02.68q1.48-.24 5.37-1.27c4.43-1.17 8.52-1.34 12.91-2.9"/><path stroke="#c5c8b9" vector-effect="non-scaling-stroke" d="M122.94 400.58q4.32 1.61 8.77.67"/><path stroke="#595a59" vector-effect="non-scaling-stroke" d="M131.71 401.25l.29.46"/><path stroke="#c5c8b9" vector-effect="non-scaling-stroke" d="M132 401.71l-2.65.54a.79.79 0 00-.61.62q-.09.43.3.88"/><path stroke="#8e8f7f" vector-effect="non-scaling-stroke" d="M132 401.71l1.26.14q.57.06.31-.45l-.45-.9a.4.4 0 00-.66-.08l-.75.83"/><path stroke="#595a59" vector-effect="non-scaling-stroke" d="M300.11 358.418a7.28 3.02 16.5 00-6.122-4.964 7.28 3.02 16.5 00-7.838.828 7.28 3.02 16.5 006.122 4.964 7.28 3.02 16.5 007.838-.828M325.09 376.32q-.38 12.91 11.41 14.93 7 1.2 8.46-5.75"/><path stroke="#91908f" vector-effect="non-scaling-stroke" d="M344.96 385.5c2.77-11.11-12.62-11.63-19.5-11.31a.72.71-83.3 00-.66.53q-.26.96.29 1.6"/><path stroke="#c8c9c9" vector-effect="non-scaling-stroke" d="M344.96 385.5q-9.28-5.99-19.87-9.18"/><path stroke="#595a59" vector-effect="non-scaling-stroke" d="M317.62 375.99c-3.61 9.1-5.4 18.23-7.72 27.71q-.13.55.38.31l4.31-2.03a1.16 1.13-9.4 00.65-.88q1.14-8.33 4.46-16.06a1.69 1.69 0 00.1-.95l-1.61-8.05a.3.3 0 00-.57-.05M226.45 412.59l2.86 2.4a.58.57-73.4 00.94-.51c-.81-7.02-11.75-16.1-17.58-19.27a.28.28 0 00-.37.4c10.2 15.22 5.4 23.38-2.28 37.48a.46.46 0 00.72.55l9.89-9.63a.92.91 49.4 011.38.11l1.69 2.27q1.74 2.35 1.87-.57l.57-13.09q.02-.38.31-.14M315.25 411.04c1.84 3.59 5.18 8.81 9.1 10.14 4.57 1.55 10.17.28 11.11-5.18"/><path stroke="#91908f" vector-effect="non-scaling-stroke" d="M335.46 416c.47-4.1.42-7.6-4.4-8.8q-8.19-2.02-15.96 1a.86.86 0 00-.54.7q-.14 1.22.69 2.14"/><path stroke="#c8c9c9" vector-effect="non-scaling-stroke" d="M335.46 416q-10.31-1.69-20.21-4.96"/><path stroke="#595a59" vector-effect="non-scaling-stroke" d="M308.3 410.99l-.22 32.78a.54.53-29.1 00.99.28c4.84-7.81 3.94-16.12 4.17-24.93a1.82 1.81 30.4 00-.27-1.02l-3.44-5.65a1.4 1.4 0 01-.19-.95q.07-.42-.02-.68a.52.52 0 00-1.02.17M168.67 410.91q-1.5-1.05-.66.58 5.73 11.01 4.77 23.42a.15.15 0 00.29.07c3.78-8.15 3.51-18.56-4.4-24.07M266.27 444.27l-1.28 4.47q-.15.53.36.31c2.45-1.04 3.38-.06 4.35 2.18q8.11 18.72 24.4 31.09.41.31.17-.14c-1.09-2.06-2.25-4.24-3.98-5.95q-11.57-11.44-14.78-25.97-2.97-13.41-2.83-21.76.13-7.76-.4-11.8-.06-.5-.2-.01c-2.49 8.55-3.02 18.96-9.26 24.59a.42.42 0 00.1.69l2.99 1.48a.7.7 0 01.36.82"/><path stroke="#91908f" vector-effect="non-scaling-stroke" d="M316.73 444.95l-1.66 1.89a.44.44 0 00.1.67l.83.53"/><path stroke="#595a59" vector-effect="non-scaling-stroke" d="M316 448.04c5.08 2.34 19.31 6.73 19.63-3.05q.16-4.82-1.1-6.29c-5.49-6.34-10.66-3.74-14.53 1.87q-1.55 2.25-3.27 4.38"/><path stroke="#c8c9c9" vector-effect="non-scaling-stroke" d="M316 448.04q8.03-2.63 16.44-3.71a1.29 1.27 14.9 00.84-.48q1.33-1.68.4-3.93a.65.64 79.6 00-.56-.39l-3.89-.2q-.48-.02-.92.18l-11.58 5.44"/><path stroke="#595a59" vector-effect="non-scaling-stroke" d="M314.4 454.65l-3.75-1.6q-1.22-.52-.97.78 1.9 10.01 5.05 19.72a.65.64-13.6 00.72.43c.63-.11 1.38-3.76 2.48-4.79a.69.68 58.3 00.17-.74q-2.39-6.29-3.12-13.01a.97.96-81.8 00-.58-.79"/><path stroke="#8e8f7f" vector-effect="non-scaling-stroke" d="M164.667 458.419a2.28 1.47 69 00.555-2.656 2.28 1.47 69 00-2.19-1.602 2.28 1.47 69 00-.554 2.656 2.28 1.47 69 002.19 1.602"/><path stroke="#595a59" vector-effect="non-scaling-stroke" d="M172.758 467.161a3.43 1.76 84 001.392-3.595 3.43 1.76 84 00-2.108-3.227 3.43 1.76 84 00-1.392 3.595 3.43 1.76 84 002.108 3.227"/><path stroke="#91908f" vector-effect="non-scaling-stroke" d="M323.63 472.37q-.99.97-1.43 2.34a.47.46-75.5 00.35.6q1.21.25 2.45-.1"/><path stroke="#595a59" vector-effect="non-scaling-stroke" d="M325 475.21c5.35 1.75 17.15.06 13.79-8.46"/><path stroke="#91908f" vector-effect="non-scaling-stroke" d="M338.79 466.75l-2.53-4.21"/><path stroke="#595a59" vector-effect="non-scaling-stroke" d="M336.26 462.54q-5.23-2.12-9.39 1.81-1.72 1.63-3.24 8.02"/><path stroke="#c8c9c9" vector-effect="non-scaling-stroke" d="M336.26 462.54l-1.82.02a1.55 1.52 26.6 00-.9.29l-4.24 3.07q-.42.3-.69.73-2.04 3.24-4.98 5.72M338.79 466.75c-4.52 2.08-7.73 4.57-12.64 6.13q-1.61.51-1.15 2.33"/><path stroke="#595a59" vector-effect="non-scaling-stroke" d="M201.349 470.667a2.97 1.97 81.5 001.51-3.228 2.97 1.97 81.5 00-2.388-2.646 2.97 1.97 81.5 00-1.51 3.228 2.97 1.97 81.5 002.388 2.646"/><path stroke="#8e8f7f" vector-effect="non-scaling-stroke" d="M187.853 466.887a1.55 1.55 0 00-1.89-1.11l-.233.061a1.55 1.55 0 00-1.11 1.89l.747 2.865a1.55 1.55 0 001.89 1.11l.233-.061a1.55 1.55 0 001.11-1.89l-.747-2.865"/><path stroke="#595a59" vector-effect="non-scaling-stroke" d="M348.49 484.13q-4.14-2.06-8.74-1.53a.59.58-3.3 00-.52.58q.04 5.54 1.36 10.9a.53.53 0 00.88.25q4.28-4.12 7.3-9.23a.69.69 0 00-.28-.97"/><path stroke="#8e8f7f" vector-effect="non-scaling-stroke" d="M304.005 510.084a1.78 1.3 58.3 00.171-2.197 1.78 1.3 58.3 00-2.041-.831 1.78 1.3 58.3 00-.171 2.197 1.78 1.3 58.3 002.041.831M350.6 509.56l2.6 1.24q.96.46.54-.52l-1.25-2.98a.75.75 0 00-1.32-.13l-.87 1.3a.75.75 0 00.3 1.09"/><path stroke="#595a59" vector-effect="non-scaling-stroke" d="M316.34 514.183a2.6 1.57 78 00.996-2.87 2.6 1.57 78 00-2.077-2.216 2.6 1.57 78 00-.995 2.87 2.6 1.57 78 002.077 2.216"/><path stroke="#8e8f7f" vector-effect="non-scaling-stroke" d="M334.57 509.74l-.75.05a.67.66 82.7 00-.6.79q.37 1.95 1.49 3.68.65.99.67-.2l.07-3.49a.82.82 0 00-.88-.83"/><path stroke="#595a59" vector-effect="non-scaling-stroke" d="M378.73 374.9q12.89 2.94 24.31 9.62a1.03 1.02-48.2 001.14-.07l2.67-2.02a.7.69 39.1 01.73-.07q7.61 3.84 12.09 11.12.31.51.51-.05c3.26-9.29 11.3-14.99 19.61-19.26a.35.35 0 00.08-.57q-1.52-1.45-3.55-2.18c-9.07-3.23-18.21-6.23-27.16-9.78-3.48-1.37-7.42-2.87-11.16-1.42q-11.51 4.48-19.61 13.63a.64.64 0 00.34 1.05M420.46 441.25c-2.83 3.89-6.94 6.16-10.47 9.32a.78.78 0 00.51 1.36c17.06.29 22.06-11.16 29.3-24.33 4.39-7.97 11.22-14.25 18.08-19.96 2.34-1.95 4.85-2.68 7.64-3.73a.47.46 67.8 00.26-.63q-3.87-8.47-9.13-14.66-2.29-2.69-6.78-6.41"/><path stroke="#91908f" vector-effect="non-scaling-stroke" d="M449.87 382.21q-10.86-2.87-17.4 6.28c-6.32 8.82-7.21 19.72-6.91 30.53.27 9.38-.46 14.99-5.1 22.23"/><path stroke="#c8c9c9" vector-effect="non-scaling-stroke" d="M449.87 382.21l-.93 2.12a1.2 1.2 0 000 .96l1.25 2.95a.75.75 0 01-.21.87c-2.53 2.08-5.43 3.35-7.63 5.67-2.09 2.21-4.56 6.81-8.26 4.27-9.4-6.47-7.3 21.9-7.09 25.45q.53 9.25-4.61 17.54a.74.73-67.3 01-.79.33q-.79-.19-1.14-1.12"/><path stroke="#595a59" vector-effect="non-scaling-stroke" d="M511.96 426.52q2.07.89 3.5.81a1.36 1.33-67.3 00.87-.37c7.56-7.27 13.28-15.38 21.79-17.05 4.48-.88 8.71-1.12 10.63-5.12"/><path stroke="#91908f" vector-effect="non-scaling-stroke" d="M548.75 404.79q1.58-1.54 1.75-3.32a2.41 2.4 4.8 00-2.23-2.63c-4.9-.34-13.96.66-17.9-1.53-5.95-3.29-4.2-8.77-8.52-12.8a1.25 1.24 65.6 00-.87-.33c-11.54.33-4.83 12.07-7.51 18.16-2.49 5.64-10.21 12.71-14.59 17.44a.79.78-54.4 00.2 1.22q6.53 3.53 12.88 5.52"/><path stroke="#c8c9c9" vector-effect="non-scaling-stroke" d="M548.75 404.79c-3.31-1.05-15.8-.48-18.51 1.43q-11.4 8.05-18.28 20.3"/><path stroke="#91908f" vector-effect="non-scaling-stroke" d="M397 407.21q-.49 2.38.79 4.54"/><path stroke="#595a59" vector-effect="non-scaling-stroke" d="M397.79 411.75c3.49 6.25 11.45 7.67 17.31 4.24 9.47-5.53-8.37-22.36-17.52-11.62a1.73 1.63 69.8 00-.38.89l-.2 1.95"/><path stroke="#c8c9c9" vector-effect="non-scaling-stroke" d="M397.79 411.75q2.69-.5 4.28.9"/><path stroke="#595a59" vector-effect="non-scaling-stroke" d="M402.07 412.65q3.1 4.3 7.82 3.27c4.89-1.06 5.64-5.32 2.76-9.09q-4.71-6.15-10.7-2.03"/><path stroke="#c8c9c9" vector-effect="non-scaling-stroke" d="M401.95 404.8l-4.95 2.41"/><path stroke="#91908f" vector-effect="non-scaling-stroke" d="M402.07 412.65c10.14-2.38 3.33-4.74-.12-7.85"/><path stroke="#595a59" vector-effect="non-scaling-stroke" d="M454.03 429.14c11.83 9.42 24.52 12.92 40.74 17.16 2.95.77 4.18 2.78 3.02 5.62a.84.84 0 00.65 1.14q11.37 1.77 22.81 1.08 1.4-.08 2.89 1.56a1.34 1.3 24.7 01.34.88c-.03 4.53-9.8 8.3-13.17 9.34q-4.72 1.46-12.25 1.3c-11.56-.24-21.91-1.44-33.27-5.31q-16.63-5.67-33.39-11.04a.86.86 0 00-.8.15l-4.59 3.74a.14.14 0 00.03.24c9.08 3.77 18.99 8.75 27.25 11.56 20.17 6.85 42.85 10.07 63.97 5.91q18.6-3.66 31.4-18.29c4.68-5.36 7.45-15.79-2.42-17.55a1.21 1.2 32.1 00-.91.2c-3.55 2.49-10.2 6.95-14.68 6.24-3.31-.52-9.2-2.99-6.21-7.25a.51.51 0 00-.36-.8q-13.03-1.59-24.95-6.6c-7.7-3.24-14.56-8.92-21.17-14.31-7.93-6.47-13.79-6.54-21.34.76-5.1 4.94-14.95 15.12-16.55 22.65q-.16.77.37.19 5.01-5.44 11.69-8.67a.84.83 51.1 01.9.1M419.65 472.29q6.62 1.99 13.57 2.37a.77.75-75.6 00.73-.44c4.23-8.92-23.86-26.42-22.36-12.04.51 4.91 3.1 8.62 8.06 10.11M396.27 499.8c-.48 6.86 9.26 8 14.36 9.43a.19.19 0 00.21-.3l-2.63-3.64a1.04 1.03 41.5 01-.07-1.1c2.85-5.26 10.32 4.61 11.61 6.77 3.46 5.8 3.57 17.65 12.18 18.03 7.2.32 9.23-1.1 10.17-8.53.89-6.98 2.14-15.15 5.51-21.65 3.88-7.5 13.97-15.25 20.53-20.59q2.19-1.79-.59-2.32l-9.8-1.86"/><path stroke="#91908f" vector-effect="non-scaling-stroke" d="M457.75 474.04l-5-2.44a1.34 1.34 0 00-1.52.25q-8.88 8.86-18.98 15.75-2.16 1.47-4.86 1.99l-16.31 3.18q-7.44 1.46-8.09 1.7-4.09 1.52-6.72 5.33"/><path stroke="#c8c9c9" vector-effect="non-scaling-stroke" d="M457.75 474.04q.89 1.13 1.04 2.74a1.1 1.08-25.2 01-.32.86q-7.37 7.21-14.38 14.76c-5.21 5.61-3.97 24.03-11.1 25.63-5.07 1.13-7.63-5.58-9.25-8.67-1.92-3.66-8.79-8.88-12.99-8.82q-6.91.11-14.48-.74M446.016 404.54a5.91 4.7 131.6 007.439-1.3 5.91 4.7 131.6 00.409-7.54 5.91 4.7 131.6 00-7.439 1.3 5.91 4.7 131.6 00-.409 7.54M455.1 425.79l1.93 1.14a.98.98 0 001.04-.03l5.48-3.63a.97.96-48.4 01.95-.06c14.53 7.19 28.47 10.35 44.82 12.82.15.03.48-.13.55-.25a.4.4 0 00-.21-.6q-3.4-1.11-13.21-3.89-13.49-3.83-24.66-14.23a.86.86 0 01-.26-.81l.23-1.19a1.14 1.14 0 00-.22-.92q-1.2-1.52-2.8-1.21-10.05 1.97-14.23 10.97a1.48 1.47-62.6 00.59 1.89"/><path stroke="#595a59" vector-effect="non-scaling-stroke" d="M532.783 446.601a6.14 4.07-7.1 00-6.596-3.28 6.14 4.07-7.1 00-5.59 4.798 6.14 4.07-7.1 006.596 3.28 6.14 4.07-7.1 005.59-4.798"/><path stroke="#c8c9c9" vector-effect="non-scaling-stroke" d="M531.13 458.84c4.05.28 12.65-9.01 14.33-11.63q1.1-1.7-.66-3.38a.82.82 0 00-.85-.17c-3.56 1.37-10.54 10.31-13.49 13.47a1.02 1.01-66.5 00.67 1.71"/></g><path d="M0 0h590.06l.19.29v589.46a.5.5 0 01-.5.5q-291.66.01-583.31-.22-3.1 0-6.19.01l-.25-.1V0zm586.25 4.51a.26.26 0 00-.26-.26H4.51a.26.26 0 00-.26.26v581.48a.26.26 0 00.26.26h581.48a.26.26 0 00.26-.26V4.51z"/><path fill="#22211f" d="M590.06 0h.94v587.56c-.84-.45-.25-537.29-.25-587.06a.25.24-86.1 00-.21-.25q-.17-.02-.29.04l-.19-.29z"/><path fill="#fafddf" d="M590.25.29q.12-.06.29-.04a.25.24-86.1 01.21.25c0 49.77-.59 586.61.25 587.06V591H12.44q-5.83-.43-11.68-.26c-.52.02-.66-.23-.51-.7q3.09-.01 6.19-.01 291.65.23 583.31.22a.5.5 0 00.5-.5V.29z"/><path fill="#fafddf" d="M586.25 585.99a.26.26 0 01-.26.26H4.51a.26.26 0 01-.26-.26V4.51a.26.26 0 01.26-.26h581.48a.26.26 0 01.26.26v581.48zM295.26 21.28q-11.29 5.62-23.77 7.39-.67.1-1.4 1.13-.3.42.2.29c4.74-1.25 10.07-2.15 14.3-3.6q5.85-2.01 11.43-4.79a.4.4 0 00-.01-.72c-.22-.11-.58.21-.75.3zM41.52 28.02c-11.74.11-20.61 8.08-20.69 20.16q-.16 22.13-.05 44.08a.57.57 0 00.87.49q2.33-1.45 4.25-3.35 29.32-28.93 58.49-58.01 1.13-1.12 2.02-2.44a.78.78 0 00-.65-1.22q-22.18.09-44.24.29zm318.73 459.44q4.84-.95 6.75-5.42c13.92-1.16 28.14-.69 40.47-4.81a1.65 1.62 41.3 01.92-.05l21.13 4.6q.63.13.04.38-8.44 3.47-17.58 4.3c-1.9.17-4.47 1.67-7.06 1.98-6.47.75-14.95 4.92-14.15 12.38 1.16 10.7 14.05 12.06 22.93 15.33a1.61 1.55 81.8 01.76.59q3.64 5.19 6.31 10.92c3.11 6.67 11.29 7.27 17.16 6.12 5.57-1.1 8.77-6.13 9.62-11.59q1.07-6.83 2.33-13.62c2.57-13.91 16.33-22.06 26.26-30.51a1.11 1.07-59.8 01.88-.25c27.14 4.22 53.44 2.65 74.05-17.52q4.97-4.86 6.69-9.27c3.84-9.8-.51-18.57-10.88-19.63q-4.67-.47-9.37.41c-4.41.84-10.43-1.83-14.84-2.72a.3.3 0 01-.17-.49q5.46-6.61 12.29-11.78c2.95-2.23 6.77-1.7 9.42-2.55q8.78-2.84 10.78-11.05c2.69-11.04-10.46-10.36-18.75-9.89-7.38.42-6.25-8.53-10.36-12.17-3.86-3.43-9.09-3.03-12.96.27-4.59 3.93-4.78 10.13-3.54 16.07.71 3.41-13.1 17.2-16.02 19.98a.58.57-46.6 01-.75.03c-6.35-5.23-12.1-11.28-20.3-13.44a1.02 1 86.2 01-.67-.6c-6.9-17.36-21.84-31.53-38.92-38.63-6.73-2.8-15.44-5.19-21.29-9.38l-2.6-6.26q-.7-.82-1.19-2.54-.13-.47-.48-.81l-8.57-8.53a1.16 1.15 26.1 01-.33-.96c.36-3.19 1.31-6.48 1.51-9.28q.52-7.43-1.45-14.73a.56.55-12.1 00-.63-.4q-4.73.83-5.96 1.28c-5.08 1.82-15.58 8.31-19.81 13.89a.49.49 0 01-.88-.3q-.02-7.77-6.15-12.22a1.05 1.04-71.3 01-.42-.86c.15-7.41-3.68-24.25-12.47-25.65a.51.5 8.6 01-.43-.57c.85-5.73-2.54-12.11-6.4-16.17q-.94-.99-1.8-4.42c-1.99-7.91-5-14.09-11.76-19.35a1.52 1.51 11.7 01-.52-.79c-1.66-6.14-3.69-11.32-8.5-15.63a1.06 1.02-68.1 01-.34-.84q.82-13.43-9.26-21.71a.9.89-68.6 01-.32-.75q.77-11.52-8.25-18.36a.62.62 0 01-.23-.66c2.17-8.02-2.23-17.49-9.73-21.63a.81.81 0 01-.42-.74q.31-7.7-4.82-13.15c-1.04-1.11-2.69-1.98-3.93-3.18a1.28 1.25-69.5 01-.38-.86q-.33-8.24-6.94-13a.97.97 0 01-.4-.84q.38-9.94-7.54-15.24c-7.7-5.15-14.57 1.18-13.4 9.49q1.2 8.5 8.55 12.76a.8.79-71.8 01.39.78q-.87 7.89 5.7 11.8a.77.77 0 01.38.68q-.24 11.67 8.59 19.06a.84.83-67.7 01.3.72q-1.08 12.02 8.5 19.09a1.01 1-72 01.41.81c-.12 8.38 1.65 17.1 9.51 21.62a.91.91 0 01.46.79q.15 12.72 10.53 19.97a.97.97 0 01.42.8q.05 9.52 7.46 15.41a1.11 1.1-70.7 01.41.86c-.06 6.77 1.82 16.25 7.18 20.6a1.06 1.06 0 01.4.81q.27 11.17 9.64 17.36.93.61 1.6 1.58a1.4 1.37 29.8 01.25.88q-.94 17.53 14.33 25.38a.86.84 18.8 01.45.89q-.61 3.83.86 7.3a.37.36 78.9 01-.34.51h-2.3a.95.95 0 00-.86.54l-3.13 6.45a.43.43 0 01-.59.19c-7.93-4.12-14.69-8.03-22.37-13.96-18.68-14.44-39.66-24.43-63.09-28.55-11.06-1.95-23.3-1.03-34.38.4-23.06 3-41.7 12.39-62.55 23.57-14.34 7.69-30.1 19.61-41.12 26.45Q98.73 359.8 69.64 370.8c-11.64 4.4-20.57 7.8-28.82 11.29-8.09 3.42-13.58 9.66-8.22 18.63 7.02 11.78 17.4 13.72 31.49 15.54 17.23 2.22 33.43-.19 52.97-3.38 2.19-.35 4.33-.16 6.55-.77q16.75-4.61 34.13-4.96 1.01-.02 1.98.24a1.14 1.12 83.6 01.71.58c5.25 10.4 13.67 22.81 4.28 33.27q-7.21 8.04-3.42 18.59c.83 2.32 2.36 2.91 4.62 3.25a.64.64 0 01.54.55c.67 5.42 5.86 11.75 11.26 5.7a.39.39 0 01.61.04c4.51 6.53 8.17 10.14 15.09 3.15a.54.52-46.6 01.73-.03c2.79 2.46 5.96 4.93 9.22 2.15 4.55-3.87 4.28-9.11 4.19-15.4a.31.31 0 01.44-.29c2.3 1.11 4.79 2.68 7.3 2.2 8.12-1.54 1.16-13.96-.62-18.03q-.2-.46.24-.23c9.06 4.66 18.18 8.68 28.21 11.14 5.15 1.27 10.37 3.43 15.6 4.05 2.73.33 6.61-.1 7.75 2.91 3.64 9.57 12.8 17.4 19.75 24.99 5.4 5.88 7.55 11.31 9.46 18.81q2.34 9.2 12.02 7.98a1.07 1.06-25.7 01.9.31q3.57 3.61 8.41 5.36a.54.54 0 00.66-.25c1.69-3.27 4.08-3.25 4.31-7.57a.56.56 0 011.02-.3q3.09 4.33 8.47 4.77a1.51 1.45 68.5 01.92.42l4.24 4.24q.63.64.79-.25l.47-2.57q.09-.49.36-.9 1.65-2.42 2.3-5.3a.58.57 6.6 01.58-.45c2.82.04 4.92 1.92 7.13 2.41q1.98.44 4.01.72.52.07.95.37l2.7 1.89a.44.44 0 00.68-.3q.82-5.92-.93-11.55a1.87 1.82-80.9 00-.67-.95q-2.25-1.68-1.83-4.62a1.14 1.11-62.1 00-.26-.89l-3.36-3.89a.81.81 0 01-.1-.93c1.65-3.02 7.86-2.87 10.8-5.08z"/><path fill="#22211f" d="M295.26 21.28c.17-.09.53-.41.75-.3a.4.4 0 01.01.72q-5.58 2.78-11.43 4.79c-4.23 1.45-9.56 2.35-14.3 3.6q-.5.13-.2-.29.73-1.03 1.4-1.13 12.48-1.77 23.77-7.39z"/><path fill="#fae5ab" d="M20.83 48.18c.08-12.08 8.95-20.05 20.69-20.16q22.06-.2 44.24-.29a.78.78 0 01.65 1.22q-.89 1.32-2.02 2.44Q55.22 60.47 25.9 89.4q-1.92 1.9-4.25 3.35a.57.57 0 01-.87-.49q-.11-21.95.05-44.08z"/><path fill="#22211f" d="M408.83 349.19q-13.82-5.41-25.24 4.25-4.09 1.97-7.37 5.02c-7.34 6.82-13.89 14.31-18.03 23.59q-3.03 6.77-6.49 13.36-9.98 27.46-7.12 56.3c1.38 13.92 4.86 24.34 15.31 34.36a1.17 1.14-69.5 01.36.82v.57c-2.94 2.21-9.15 2.06-10.8 5.08a.81.81 0 00.1.93l3.36 3.89a1.14 1.11-62.1 01.26.89q-.42 2.94 1.83 4.62a1.87 1.82-80.9 01.67.95q1.75 5.63.93 11.55a.44.44 0 01-.68.3l-2.7-1.89q-.43-.3-.95-.37-2.03-.28-4.01-.72c-2.21-.49-4.31-2.37-7.13-2.41a.58.57 6.6 00-.58.45q-.65 2.88-2.3 5.3-.27.41-.36.9l-.47 2.57q-.16.89-.79.25l-4.24-4.24a1.51 1.45 68.5 00-.92-.42q-5.38-.44-8.47-4.77a.56.56 0 00-1.02.3c-.23 4.32-2.62 4.3-4.31 7.57a.54.54 0 01-.66.25q-4.84-1.75-8.41-5.36a1.07 1.06-25.7 00-.9-.31q-9.68 1.22-12.02-7.98c-1.91-7.5-4.06-12.93-9.46-18.81-6.95-7.59-16.11-15.42-19.75-24.99-1.14-3.01-5.02-2.58-7.75-2.91-5.23-.62-10.45-2.78-15.6-4.05-10.03-2.46-19.15-6.48-28.21-11.14q-.44-.23-.24.23c1.78 4.07 8.74 16.49.62 18.03-2.51.48-5-1.09-7.3-2.2a.31.31 0 00-.44.29c.09 6.29.36 11.53-4.19 15.4-3.26 2.78-6.43.31-9.22-2.15a.54.52-46.6 00-.73.03c-6.92 6.99-10.58 3.38-15.09-3.15a.39.39 0 00-.61-.04c-5.4 6.05-10.59-.28-11.26-5.7a.64.64 0 00-.54-.55c-2.26-.34-3.79-.93-4.62-3.25q-3.79-10.55 3.42-18.59c9.39-10.46.97-22.87-4.28-33.27a1.14 1.12 83.6 00-.71-.58q-.97-.26-1.98-.24-17.38.35-34.13 4.96c-2.22.61-4.36.42-6.55.77-19.54 3.19-35.74 5.6-52.97 3.38-14.09-1.82-24.47-3.76-31.49-15.54-5.36-8.97.13-15.21 8.22-18.63 8.25-3.49 17.18-6.89 28.82-11.29q29.09-11 52.58-25.57c11.02-6.84 26.78-18.76 41.12-26.45 20.85-11.18 39.49-20.57 62.55-23.57 11.08-1.43 23.32-2.35 34.38-.4 23.43 4.12 44.41 14.11 63.09 28.55 7.68 5.93 14.44 9.84 22.37 13.96a.43.43 0 00.59-.19l3.13-6.45a.95.95 0 01.86-.54h2.3a.37.36 78.9 00.34-.51q-1.47-3.47-.86-7.3a.86.84 18.8 00-.45-.89q-15.27-7.85-14.33-25.38a1.4 1.37 29.8 00-.25-.88q-.67-.97-1.6-1.58-9.37-6.19-9.64-17.36a1.06 1.06 0 00-.4-.81c-5.36-4.35-7.24-13.83-7.18-20.6a1.11 1.1-70.7 00-.41-.86q-7.41-5.89-7.46-15.41a.97.97 0 00-.42-.8q-10.38-7.25-10.53-19.97a.91.91 0 00-.46-.79c-7.86-4.52-9.63-13.24-9.51-21.62a1.01 1-72 00-.41-.81q-9.58-7.07-8.5-19.09a.84.83-67.7 00-.3-.72q-8.83-7.39-8.59-19.06a.77.77 0 00-.38-.68q-6.57-3.91-5.7-11.8a.8.79-71.8 00-.39-.78q-7.35-4.26-8.55-12.76c-1.17-8.31 5.7-14.64 13.4-9.49q7.92 5.3 7.54 15.24a.97.97 0 00.4.84q6.61 4.76 6.94 13a1.28 1.25-69.5 00.38.86c1.24 1.2 2.89 2.07 3.93 3.18q5.13 5.45 4.82 13.15a.81.81 0 00.42.74c7.5 4.14 11.9 13.61 9.73 21.63a.62.62 0 00.23.66q9.02 6.84 8.25 18.36a.9.89-68.6 00.32.75q10.08 8.28 9.26 21.71a1.06 1.02-68.1 00.34.84c4.81 4.31 6.84 9.49 8.5 15.63a1.52 1.51 11.7 00.52.79c6.76 5.26 9.77 11.44 11.76 19.35q.86 3.43 1.8 4.42c3.86 4.06 7.25 10.44 6.4 16.17a.51.5 8.6 00.43.57c8.79 1.4 12.62 18.24 12.47 25.65a1.05 1.04-71.3 00.42.86q6.13 4.45 6.15 12.22a.49.49 0 00.88.3c4.23-5.58 14.73-12.07 19.81-13.89q1.23-.45 5.96-1.28a.56.55-12.1 01.63.4q1.97 7.3 1.45 14.73c-.2 2.8-1.15 6.09-1.51 9.28a1.16 1.15 26.1 00.33.96l8.57 8.53q.35.34.48.81.49 1.72 1.19 2.54zM269.311 135.82a5.76 3.27 68.5 00.932-6.558 5.76 3.27 68.5 00-5.154-4.161 5.76 3.27 68.5 00-.931 6.558 5.76 3.27 68.5 005.153 4.16zm2.249 9.98c3.17 7.28 11.24 3.9 4.51-2.13a.86.85-35.3 00-.9-.15l-3.25 1.37a.69.69 0 00-.36.91zm13.544 12.64a3.04 3.04 0 00-4.077-1.365l-.876.437a3.04 3.04 0 00-1.365 4.077l2.33 4.672a3.04 3.04 0 004.077 1.364l.877-.437a3.04 3.04 0 001.364-4.077l-2.33-4.672zm10.496 29.84c3 .32 3.07-4.46 2.59-6.11q-1.45-4.91-5.18-8.25a.66.64-39.3 00-.76-.07l-4.99 2.98a.85.83 73 00-.4.77q.44 7.04 5.76 11.71a.55.54 49 00.65.05l1.35-.86a1.54 1.52 32.1 01.98-.22zm9.71 19.42c-.26-5.87-.41-8.31-3.76-12.4a.62.62 0 00-.73-.17l-4.86 2.14a.72.71 75.1 00-.41.72c.47 4.94 1.36 9.62 5.73 12.31a.92.92 0 00.99-.01l2.54-1.64a1.11 1.08-17.8 00.5-.95zm5.56 8.3q-1.22 3.24-4.37 2.41a.42.41-84.5 00-.52.43c.23 3.46 3.42 12.76 7.9 12.67a2 1.99-.3 001.95-1.96q.15-7.49-3.79-13.67a.66.66 0 00-1.17.12zm4.73 23.86a.97.97 0 00-.25 1.26l3.93 6.84a.6.6 0 00.79.23l4.22-2.2a.67.66 71.8 00.35-.7c-.36-2-2.2-9.53-5.17-6.26a.86.85 27.5 01-.84.26q-1.73-.43-3.03.57zm13.63 29.86a.33.33 0 00.42-.08q1.9-2.29 4.92-2.22a.74.73 86.4 00.74-.85c-.62-4.19-2.59-11.35-7.82-11.55a1.25 1.23-64.9 00-.89.33c-2.82 2.66-.75 12.51 2.63 14.37zm4.08 10.25c.78 3.71 3.55 8.38 7.57 8.78 7.54.75.74-17.79-7.32-9.62a.93.92 61.9 00-.25.84zm17.73 32.51c2.46 2.14 6.25 1.73 5.52-2.07-1.09-5.63-2.06-9.6-6.19-13.92a1.05 1.03 60.3 00-1.02-.29q-2.54.66-4.18 2.83a1.35 1.33-28.2 00-.28.9q.44 7.58 6.15 12.55zm-89.57 21.33c-.11.59-5.34-1.34-5.22 2.31.13 3.86 5.76 7.16 9.21 8.66 7.67 3.31 14.1 5.45 22.18 3.33a1.88 1.81 14.1 00.87-.5l.78-.78a.91.91 0 01.98-.21c11.83 4.69 24.2 7.16 31.96 18.3.73 1.05.57 1.93.03 2.96a.76.75-75 00.64 1.11c2.71.1 4.42-.68 6.11-2.96 4.53-6.13 11.59-14.43 13.69-21.69a.9.89-66.9 00-.41-1.03q-18.44-10.72-35.32-23.6c-13.11-9.99-28.12-14.47-43.74-18.13q-3.9-.91-11.98-1.23-43.7-1.71-78.92 21.52a1.09 1.09 0 00-.48.73q-1.15 6.4-6.21 10.36a.54.54 0 00.51.94c4.16-1.39 6.42 3.76 3.01 6.28q-1.98 1.45-2.91 3.08-.25.45.2.2 1.35-.74 2.8-1.19c16.14-5.12 30.97-10.37 48.74-11.4q18.68-1.1 37.27 1.06 3.05.36 5.93 1.39a.43.43 0 01.28.49zM379.71 335q1.74 3.17 5.29 3.54c10.59 1.77 9.5-12.34 9.2-18.78a.55.54-13.2 00-.76-.47c-4.19 1.76-19.01 9.48-13.73 15.71zm-18.96 25.29q4.56-1.58 3.71-6.54c.07-4.16-6.31-14.11-10.47-16.07a.76.76 0 00-.84.12q-2.63 2.42-3.77 5.87c-1.68 5.15-6.2 15.16 1.44 17.72q5 1.68 9.93-1.1zm-231.71 43.46l16.22-3.43q.42-.08 0-.16-11.14-1.95-22.32.42l-7.06.19a1.39 1.36 23 00-.84.33c-.53.47-.97.25-1.39.34q-22.61 4.73-45.64 3.96c-4.76-.16-20.2-2.43-22.39-7.35-1.13-2.56-.24-5.34 2.82-6.1 26.06-6.49 53.35-15.2 78.14-29.73a1.01 1 78.6 00.49-.75c.63-5.42 3.04-6.55 6.12-9.74a.65.64 47.5 00.03-.86l-1.6-1.93a.71.71 0 00-.9-.16q-18.77 10.84-29.13 16.08c-17.33 8.77-37.62 14.17-56.23 22.07q-4.77 2.02-6.41 3.51c-6.42 5.82 4.22 15.31 9.79 16.8 19.2 5.11 40.43 4.24 62.02.68q1.48-.24 5.37-1.27c4.43-1.17 8.52-1.34 12.91-2.9zm171.07-45.332a7.28 3.02 16.5 00-6.122-4.964 7.28 3.02 16.5 00-7.838.828 7.28 3.02 16.5 006.122 4.964 7.28 3.02 16.5 007.838-.828zm24.98 17.902q-.38 12.91 11.41 14.93 7 1.2 8.46-5.75c2.77-11.11-12.62-11.63-19.5-11.31a.72.71-83.3 00-.66.53q-.26.96.29 1.6zm-7.47-.33c-3.61 9.1-5.4 18.23-7.72 27.71q-.13.55.38.31l4.31-2.03a1.16 1.13-9.4 00.65-.88q1.14-8.33 4.46-16.06a1.69 1.69 0 00.1-.95l-1.61-8.05a.3.3 0 00-.57-.05zm-91.17 36.6l2.86 2.4a.58.57-73.4 00.94-.51c-.81-7.02-11.75-16.1-17.58-19.27a.28.28 0 00-.37.4c10.2 15.22 5.4 23.38-2.28 37.48a.46.46 0 00.72.55l9.89-9.63a.92.91 49.4 011.38.11l1.69 2.27q1.74 2.35 1.87-.57l.57-13.09q.02-.38.31-.14zm88.8-1.55c1.84 3.59 5.18 8.81 9.1 10.14 4.57 1.55 10.17.28 11.11-5.18.47-4.1.42-7.6-4.4-8.8q-8.19-2.02-15.96 1a.86.86 0 00-.54.7q-.14 1.22.69 2.14zm-6.95-.05l-.22 32.78a.54.53-29.1 00.99.28c4.84-7.81 3.94-16.12 4.17-24.93a1.82 1.81 30.4 00-.27-1.02l-3.44-5.65a1.4 1.4 0 01-.19-.95q.07-.42-.02-.68a.52.52 0 00-1.02.17zm-139.63-.08q-1.5-1.05-.66.58 5.73 11.01 4.77 23.42a.15.15 0 00.29.07c3.78-8.15 3.51-18.56-4.4-24.07zm97.6 33.36l-1.28 4.47q-.15.53.36.31c2.45-1.04 3.38-.06 4.35 2.18q8.11 18.72 24.4 31.09.41.31.17-.14c-1.09-2.06-2.25-4.24-3.98-5.95q-11.57-11.44-14.78-25.97-2.97-13.41-2.83-21.76.13-7.76-.4-11.8-.06-.5-.2-.01c-2.49 8.55-3.02 18.96-9.26 24.59a.42.42 0 00.1.69l2.99 1.48a.7.7 0 01.36.82zm50.46.68l-1.66 1.89a.44.44 0 00.1.67l.83.53c5.08 2.34 19.31 6.73 19.63-3.05q.16-4.82-1.1-6.29c-5.49-6.34-10.66-3.74-14.53 1.87q-1.55 2.25-3.27 4.38zm-2.33 9.7l-3.75-1.6q-1.22-.52-.97.78 1.9 10.01 5.05 19.72a.65.64-13.6 00.72.43c.63-.11 1.38-3.76 2.48-4.79a.69.68 58.3 00.17-.74q-2.39-6.29-3.12-13.01a.97.96-81.8 00-.58-.79zm-149.733 3.769a2.28 1.47 69 00.555-2.656 2.28 1.47 69 00-2.19-1.602 2.28 1.47 69 00-.554 2.656 2.28 1.47 69 002.19 1.602zm8.091 8.742a3.43 1.76 84 001.392-3.595 3.43 1.76 84 00-2.108-3.227 3.43 1.76 84 00-1.392 3.595 3.43 1.76 84 002.108 3.227zm150.872 5.209q-.99.97-1.43 2.34a.47.46-75.5 00.35.6q1.21.25 2.45-.1c5.35 1.75 17.15.06 13.79-8.46l-2.53-4.21q-5.23-2.12-9.39 1.81-1.72 1.63-3.24 8.02zm-122.281-1.703a2.97 1.97 81.5 001.51-3.228 2.97 1.97 81.5 00-2.388-2.646 2.97 1.97 81.5 00-1.51 3.228 2.97 1.97 81.5 002.388 2.646zm-13.496-3.78a1.55 1.55 0 00-1.89-1.11l-.233.061a1.55 1.55 0 00-1.11 1.89l.747 2.865a1.55 1.55 0 001.89 1.11l.233-.061a1.55 1.55 0 001.11-1.89l-.747-2.865zM348.49 484.13q-4.14-2.06-8.74-1.53a.59.58-3.3 00-.52.58q.04 5.54 1.36 10.9a.53.53 0 00.88.25q4.28-4.12 7.3-9.23a.69.69 0 00-.28-.97zm-44.485 25.954a1.78 1.3 58.3 00.171-2.197 1.78 1.3 58.3 00-2.041-.831 1.78 1.3 58.3 00-.171 2.197 1.78 1.3 58.3 002.041.831zm46.595-.524l2.6 1.24q.96.46.54-.52l-1.25-2.98a.75.75 0 00-1.32-.13l-.87 1.3a.75.75 0 00.3 1.09zm-34.26 4.623a2.6 1.57 78 00.996-2.87 2.6 1.57 78 00-2.077-2.216 2.6 1.57 78 00-.995 2.87 2.6 1.57 78 002.077 2.216zm18.23-4.443l-.75.05a.67.66 82.7 00-.6.79q.37 1.95 1.49 3.68.65.99.67-.2l.07-3.49a.82.82 0 00-.88-.83z"/><ellipse fill="#fafddf" transform="rotate(68.5 37.797 261.448)" rx="5.76" ry="3.27"/><path fill="#fafddf" d="M276.07 143.67c6.73 6.03-1.34 9.41-4.51 2.13a.69.69 0 01.36-.91l3.25-1.37a.86.85-35.3 01.9.15z"/><rect fill="#fafddf" x="-3.53" y="-5.65" transform="rotate(-26.5 486.293 -519.988)" width="7.06" height="11.3" rx="3.04"/><path fill="#fafddf" d="M298.19 182.17c.48 1.65.41 6.43-2.59 6.11a1.54 1.52 32.1 00-.98.22l-1.35.86a.55.54 49 01-.65-.05q-5.32-4.67-5.76-11.71a.85.83 73 01.4-.77l4.99-2.98a.66.64-39.3 01.76.07q3.73 3.34 5.18 8.25zM304.81 208.65l-2.54 1.64a.92.92 0 01-.99.01c-4.37-2.69-5.26-7.37-5.73-12.31a.72.71 75.1 01.41-.72l4.86-2.14a.62.62 0 01.73.17c3.35 4.09 3.5 6.53 3.76 12.4a1.11 1.08-17.8 01-.5.95zM310.87 216a.66.66 0 011.17-.12q3.94 6.18 3.79 13.67a2 1.99-.3 01-1.95 1.96c-4.48.09-7.67-9.21-7.9-12.67a.42.41-84.5 01.52-.43q3.15.83 4.37-2.41zM315.6 239.86q1.3-1 3.03-.57a.86.85 27.5 00.84-.26c2.97-3.27 4.81 4.26 5.17 6.26a.67.66 71.8 01-.35.7l-4.22 2.2a.6.6 0 01-.79-.23l-3.93-6.84a.97.97 0 01.25-1.26zM329.23 269.72c-3.38-1.86-5.45-11.71-2.63-14.37a1.25 1.23-64.9 01.89-.33c5.23.2 7.2 7.36 7.82 11.55a.74.73 86.4 01-.74.85q-3.02-.07-4.92 2.22a.33.33 0 01-.42.08zM340.88 288.75c-4.02-.4-6.79-5.07-7.57-8.78a.93.92 61.9 01.25-.84c8.06-8.17 14.86 10.37 7.32 9.62zM351.04 312.48q-5.71-4.97-6.15-12.55a1.35 1.33-28.2 01.28-.9q1.64-2.17 4.18-2.83a1.05 1.03 60.3 011.02.29c4.13 4.32 5.1 8.29 6.19 13.92.73 3.8-3.06 4.21-5.52 2.07z"/><path fill="#909293" d="M256.25 336.12c-.12-3.65 5.11-1.72 5.22-2.31a.43.43 0 00-.28-.49q-2.88-1.03-5.93-1.39-18.59-2.16-37.27-1.06c-17.77 1.03-32.6 6.28-48.74 11.4q-1.45.45-2.8 1.19-.45.25-.2-.2.93-1.63 2.91-3.08c3.41-2.52 1.15-7.67-3.01-6.28a.54.54 0 01-.51-.94q5.06-3.96 6.21-10.36a1.09 1.09 0 01.48-.73q35.22-23.23 78.92-21.52 8.08.32 11.98 1.23c15.62 3.66 30.63 8.14 43.74 18.13q16.88 12.88 35.32 23.6a.9.89-66.9 01.41 1.03c-2.1 7.26-9.16 15.56-13.69 21.69-1.69 2.28-3.4 3.06-6.11 2.96a.76.75-75 01-.64-1.11c.54-1.03.7-1.91-.03-2.96-7.76-11.14-20.13-13.61-31.96-18.3a.91.91 0 00-.98.21l-.78.78a1.88 1.81 14.1 01-.87.5c-8.08 2.12-14.51-.02-22.18-3.33-3.45-1.5-9.08-4.8-9.21-8.66zM385 338.54q.56-2.4 1.74-4.53c2.08-3.75 3.02-7.24 4.57-11.02a.39.39 0 00-.68-.38l-3.15 4.24q-.31.42-.72.74-4.12 3.14-7.05 7.41c-5.28-6.23 9.54-13.95 13.73-15.71a.55.54-13.2 01.76.47c.3 6.44 1.39 20.55-9.2 18.78z"/><path fill="#fff" d="M385 338.54q-3.55-.37-5.29-3.54 2.93-4.27 7.05-7.41.41-.32.72-.74l3.15-4.24a.39.39 0 01.68.38c-1.55 3.78-2.49 7.27-4.57 11.02q-1.18 2.13-1.74 4.53z"/><path fill="#909293" d="M364.46 353.75c-1.18-1.12-6.59-8.41-7.12-8.35a.42.41-14.2 00-.34.56q2.62 6.99 3.75 14.33-4.93 2.78-9.93 1.1c-7.64-2.56-3.12-12.57-1.44-17.72q1.14-3.45 3.77-5.87a.76.76 0 01.84-.12c4.16 1.96 10.54 11.91 10.47 16.07z"/><path fill="#fff" d="M364.46 353.75q.85 4.96-3.71 6.54-1.13-7.34-3.75-14.33a.42.41-14.2 01.34-.56c.53-.06 5.94 7.23 7.12 8.35z"/><path fill="#909293" d="M408.83 349.19l2.6 6.26q-5.3-2.17-10.89-1.48-.99.12-1.95-.35a1.24 1.18-39.9 00-.9-.06q-7.23 2.38-13.46 6.74a1.14 1.05 25.4 01-.64.2h-.3q-1.74-3.73.3-7.06 11.42-9.66 25.24-4.25zM122.94 400.58q4.32 1.61 8.77.67l.29.46-2.65.54a.79.79 0 00-.61.62q-.09.43.3.88c-4.39 1.56-8.48 1.73-12.91 2.9q-3.89 1.03-5.37 1.27c-21.59 3.56-42.82 4.43-62.02-.68-5.57-1.49-16.21-10.98-9.79-16.8q1.64-1.49 6.41-3.51c18.61-7.9 38.9-13.3 56.23-22.07q10.36-5.24 29.13-16.08a.71.71 0 01.9.16l1.6 1.93a.65.64 47.5 01-.03.86c-3.08 3.19-5.49 4.32-6.12 9.74a1.01 1 78.6 01-.49.75c-24.79 14.53-52.08 23.24-78.14 29.73-3.06.76-3.95 3.54-2.82 6.1 2.19 4.92 17.63 7.19 22.39 7.35q23.03.77 45.64-3.96c.42-.09.86.13 1.39-.34a1.39 1.36 23 01.84-.33l7.06-.19z"/><ellipse fill="#909293" transform="rotate(16.5 -1082.287 1189.016)" rx="7.28" ry="3.02"/><path fill="#fff" d="M383.59 353.44q-2.04 3.33-.3 7.06-1.79 2.41-6.6 6.44-5.93 4.96-10.96 15.09-4.63 7.96-7.77 16.47h-.92c.01-.33-4.37-2.39-5.34-3.09q3.46-6.59 6.49-13.36c4.14-9.28 10.69-16.77 18.03-23.59q3.28-3.05 7.37-5.02z"/><path fill="#22211f" d="M411.43 355.45c5.85 4.19 14.56 6.58 21.29 9.38 17.08 7.1 32.02 21.27 38.92 38.63a1.02 1 86.2 00.67.6c8.2 2.16 13.95 8.21 20.3 13.44a.58.57-46.6 00.75-.03c2.92-2.78 16.73-16.57 16.02-19.98-1.24-5.94-1.05-12.14 3.54-16.07 3.87-3.3 9.1-3.7 12.96-.27 4.11 3.64 2.98 12.59 10.36 12.17 8.29-.47 21.44-1.15 18.75 9.89q-2 8.21-10.78 11.05c-2.65.85-6.47.32-9.42 2.55q-6.83 5.17-12.29 11.78a.3.3 0 00.17.49c4.41.89 10.43 3.56 14.84 2.72q4.7-.88 9.37-.41c10.37 1.06 14.72 9.83 10.88 19.63q-1.72 4.41-6.69 9.27c-20.61 20.17-46.91 21.74-74.05 17.52a1.11 1.07-59.8 00-.88.25c-9.93 8.45-23.69 16.6-26.26 30.51q-1.26 6.79-2.33 13.62c-.85 5.46-4.05 10.49-9.62 11.59-5.87 1.15-14.05.55-17.16-6.12q-2.67-5.73-6.31-10.92a1.61 1.55 81.8 00-.76-.59c-8.88-3.27-21.77-4.63-22.93-15.33-.8-7.46 7.68-11.63 14.15-12.38 2.59-.31 5.16-1.81 7.06-1.98q9.14-.83 17.58-4.3.59-.25-.04-.38l-21.13-4.6a1.65 1.62 41.3 00-.92.05c-12.33 4.12-26.55 3.65-40.47 4.81q-1.84-.37-3.09-1.26-.7-2.49-2.24-4.46-2.4-3.07-2.84-3.97c-2.63-5.29-3.49-10.58-5.46-16.02-3.53-9.73-2.27-23.03-.97-34.13.81-6.85 4.07-13.85 6.11-20.48q.85-2.77 2.82-6.51 3.25-6.2 4.4-13.18 5.03-10.13 10.96-15.09 4.81-4.03 6.6-6.44h.3a1.14 1.05 25.4 00.64-.2q6.23-4.36 13.46-6.74a1.24 1.18-39.9 01.9.06q.96.47 1.95.35 5.59-.69 10.89 1.48zm-32.7 19.45q12.89 2.94 24.31 9.62a1.03 1.02-48.2 001.14-.07l2.67-2.02a.7.69 39.1 01.73-.07q7.61 3.84 12.09 11.12.31.51.51-.05c3.26-9.29 11.3-14.99 19.61-19.26a.35.35 0 00.08-.57q-1.52-1.45-3.55-2.18c-9.07-3.23-18.21-6.23-27.16-9.78-3.48-1.37-7.42-2.87-11.16-1.42q-11.51 4.48-19.61 13.63a.64.64 0 00.34 1.05zm41.73 66.35c-2.83 3.89-6.94 6.16-10.47 9.32a.78.78 0 00.51 1.36c17.06.29 22.06-11.16 29.3-24.33 4.39-7.97 11.22-14.25 18.08-19.96 2.34-1.95 4.85-2.68 7.64-3.73a.47.46 67.8 00.26-.63q-3.87-8.47-9.13-14.66-2.29-2.69-6.78-6.41-10.86-2.87-17.4 6.28c-6.32 8.82-7.21 19.72-6.91 30.53.27 9.38-.46 14.99-5.1 22.23zm91.5-14.73q2.07.89 3.5.81a1.36 1.33-67.3 00.87-.37c7.56-7.27 13.28-15.38 21.79-17.05 4.48-.88 8.71-1.12 10.63-5.12q1.58-1.54 1.75-3.32a2.41 2.4 4.8 00-2.23-2.63c-4.9-.34-13.96.66-17.9-1.53-5.95-3.29-4.2-8.77-8.52-12.8a1.25 1.24 65.6 00-.87-.33c-11.54.33-4.83 12.07-7.51 18.16-2.49 5.64-10.21 12.71-14.59 17.44a.79.78-54.4 00.2 1.22q6.53 3.53 12.88 5.52zM397 407.21q-.49 2.38.79 4.54c3.49 6.25 11.45 7.67 17.31 4.24 9.47-5.53-8.37-22.36-17.52-11.62a1.73 1.63 69.8 00-.38.89l-.2 1.95zm57.03 21.93c11.83 9.42 24.52 12.92 40.74 17.16 2.95.77 4.18 2.78 3.02 5.62a.84.84 0 00.65 1.14q11.37 1.77 22.81 1.08 1.4-.08 2.89 1.56a1.34 1.3 24.7 01.34.88c-.03 4.53-9.8 8.3-13.17 9.34q-4.72 1.46-12.25 1.3c-11.56-.24-21.91-1.44-33.27-5.31q-16.63-5.67-33.39-11.04a.86.86 0 00-.8.15l-4.59 3.74a.14.14 0 00.03.24c9.08 3.77 18.99 8.75 27.25 11.56 20.17 6.85 42.85 10.07 63.97 5.91q18.6-3.66 31.4-18.29c4.68-5.36 7.45-15.79-2.42-17.55a1.21 1.2 32.1 00-.91.2c-3.55 2.49-10.2 6.95-14.68 6.24-3.31-.52-9.2-2.99-6.21-7.25a.51.51 0 00-.36-.8q-13.03-1.59-24.95-6.6c-7.7-3.24-14.56-8.92-21.17-14.31-7.93-6.47-13.79-6.54-21.34.76-5.1 4.94-14.95 15.12-16.55 22.65q-.16.77.37.19 5.01-5.44 11.69-8.67a.84.83 51.1 01.9.1zm-34.38 43.15q6.62 1.99 13.57 2.37a.77.75-75.6 00.73-.44c4.23-8.92-23.86-26.42-22.36-12.04.51 4.91 3.1 8.62 8.06 10.11zm-23.38 27.51c-.48 6.86 9.26 8 14.36 9.43a.19.19 0 00.21-.3l-2.63-3.64a1.04 1.03 41.5 01-.07-1.1c2.85-5.26 10.32 4.61 11.61 6.77 3.46 5.8 3.57 17.65 12.18 18.03 7.2.32 9.23-1.1 10.17-8.53.89-6.98 2.14-15.15 5.51-21.65 3.88-7.5 13.97-15.25 20.53-20.59q2.19-1.79-.59-2.32l-9.8-1.86-5-2.44a1.34 1.34 0 00-1.52.25q-8.88 8.86-18.98 15.75-2.16 1.47-4.86 1.99l-16.31 3.18q-7.44 1.46-8.09 1.7-4.09 1.52-6.72 5.33z"/><path fill="#909293" d="M378.73 374.9a.64.64 0 01-.34-1.05q8.1-9.15 19.61-13.63c3.74-1.45 7.68.05 11.16 1.42 8.95 3.55 18.09 6.55 27.16 9.78q2.03.73 3.55 2.18a.35.35 0 01-.08.57c-8.31 4.27-16.35 9.97-19.61 19.26q-.2.56-.51.05-4.48-7.28-12.09-11.12a.7.69 39.1 00-.73.07l-2.67 2.02a1.03 1.02-48.2 01-1.14.07q-11.42-6.68-24.31-9.62z"/><path fill="#fff" d="M344.96 385.5q-9.28-5.99-19.87-9.18-.55-.64-.29-1.6a.72.71-83.3 01.66-.53c6.88-.32 22.27.2 19.5 11.31z"/><path fill="#909293" d="M317.62 375.99a.3.3 0 01.57.05l1.61 8.05a1.69 1.69 0 01-.1.95q-3.32 7.73-4.46 16.06a1.16 1.13-9.4 01-.65.88l-4.31 2.03q-.51.24-.38-.31c2.32-9.48 4.11-18.61 7.72-27.71zM325.09 376.32q10.59 3.19 19.87 9.18-1.46 6.95-8.46 5.75-11.79-2.02-11.41-14.93z"/><path fill="#fff" d="M449.87 382.21l-.93 2.12a1.2 1.2 0 000 .96l1.25 2.95a.75.75 0 01-.21.87c-2.53 2.08-5.43 3.35-7.63 5.67-2.09 2.21-4.56 6.81-8.26 4.27-9.4-6.47-7.3 21.9-7.09 25.45q.53 9.25-4.61 17.54a.74.73-67.3 01-.79.33q-.79-.19-1.14-1.12c4.64-7.24 5.37-12.85 5.1-22.23-.3-10.81.59-21.71 6.91-30.53q6.54-9.15 17.4-6.28z"/><path d="M365.73 382.03q-1.15 6.98-4.4 13.18-1.97 3.74-2.82 6.51c-2.04 6.63-5.3 13.63-6.11 20.48-1.3 11.1-2.56 24.4.97 34.13 1.97 5.44 2.83 10.73 5.46 16.02q.44.9 2.84 3.97 1.54 1.97 2.24 4.46c-4.55-2.57-5.17-5.62-7.34-9.8-7.91-15.21-8.04-31.79-5.69-48.38.93-6.49 3.69-13.2 5.58-19.85l1.5-4.25q3.14-8.51 7.77-16.47z"/><path fill="#909293" d="M449.87 382.21q4.49 3.72 6.78 6.41 5.26 6.19 9.13 14.66a.47.46 67.8 01-.26.63c-2.79 1.05-5.3 1.78-7.64 3.73-6.86 5.71-13.69 11.99-18.08 19.96-7.24 13.17-12.24 24.62-29.3 24.33a.78.78 0 01-.51-1.36c3.53-3.16 7.64-5.43 10.47-9.32q.35.93 1.14 1.12a.74.73-67.3 00.79-.33q5.14-8.29 4.61-17.54c-.21-3.55-2.31-31.92 7.09-25.45 3.7 2.54 6.17-2.06 8.26-4.27 2.2-2.32 5.1-3.59 7.63-5.67a.75.75 0 00.21-.87l-1.25-2.95a1.2 1.2 0 010-.96l.93-2.12zm-3.854 22.33a5.91 4.7 131.6 007.439-1.3 5.91 4.7 131.6 00.409-7.54 5.91 4.7 131.6 00-7.439 1.3 5.91 4.7 131.6 00-.409 7.54z"/><path fill="#fff" d="M548.75 404.79c-3.31-1.05-15.8-.48-18.51 1.43q-11.4 8.05-18.28 20.3-6.35-1.99-12.88-5.52a.79.78-54.4 01-.2-1.22c4.38-4.73 12.1-11.8 14.59-17.44 2.68-6.09-4.03-17.83 7.51-18.16a1.25 1.24 65.6 01.87.33c4.32 4.03 2.57 9.51 8.52 12.8 3.94 2.19 13 1.19 17.9 1.53a2.41 2.4 4.8 012.23 2.63q-.17 1.78-1.75 3.32z"/><ellipse fill="#fff" transform="rotate(131.6 135.06 301.166)" rx="5.91" ry="4.7"/><path fill="#909293" d="M226.14 412.73l-.57 13.09q-.13 2.92-1.87.57l-1.69-2.27a.92.91 49.4 00-1.38-.11l-9.89 9.63a.46.46 0 01-.72-.55c7.68-14.1 12.48-22.26 2.28-37.48a.28.28 0 01.37-.4c5.83 3.17 16.77 12.25 17.58 19.27a.58.57-73.4 01-.94.51l-2.86-2.4q-.29-.24-.31.14zM351.7 395.41c.97.7 5.35 2.76 5.34 3.09l-1.81 3.41a.63.62 34.8 00.14.77q.36.3 1.09.07c-1.89 6.65-4.65 13.36-5.58 19.85-2.35 16.59-2.22 33.17 5.69 48.38 2.17 4.18 2.79 7.23 7.34 9.8q1.25.89 3.09 1.26-1.91 4.47-6.75 5.42v-.57a1.17 1.14-69.5 00-.36-.82c-10.45-10.02-13.93-20.44-15.31-34.36q-2.86-28.84 7.12-56.3z"/><path fill="#fafddf" d="M357.04 398.5h.92l-1.5 4.25q-.73.23-1.09-.07a.63.62 34.8 01-.14-.77l1.81-3.41zM129.04 403.75q-.39-.45-.3-.88a.79.79 0 01.61-.62l2.65-.54 1.26.14q.57.06.31-.45l-.45-.9a.4.4 0 00-.66-.08l-.75.83q-4.45.94-8.77-.67 11.18-2.37 22.32-.42.42.08 0 .16l-16.22 3.43z"/><path fill="#22211f" d="M132 401.71l-.29-.46.75-.83a.4.4 0 01.66.08l.45.9q.26.51-.31.45l-1.26-.14z"/><path fill="#909293" d="M397.79 411.75q2.69-.5 4.28.9 3.1 4.3 7.82 3.27c4.89-1.06 5.64-5.32 2.76-9.09q-4.71-6.15-10.7-2.03l-4.95 2.41.2-1.95a1.73 1.63 69.8 01.38-.89c9.15-10.74 26.99 6.09 17.52 11.62-5.86 3.43-13.82 2.01-17.31-4.24z"/><path fill="#22211f" d="M402.07 412.65c10.14-2.38 3.33-4.74-.12-7.85q5.99-4.12 10.7 2.03c2.88 3.77 2.13 8.03-2.76 9.09q-4.72 1.03-7.82-3.27z"/><path fill="#909293" d="M548.75 404.79c-1.92 4-6.15 4.24-10.63 5.12-8.51 1.67-14.23 9.78-21.79 17.05a1.36 1.33-67.3 01-.87.37q-1.43.08-3.5-.81 6.88-12.25 18.28-20.3c2.71-1.91 15.2-2.48 18.51-1.43z"/><path fill="#fff" d="M401.95 404.8c3.45 3.11 10.26 5.47.12 7.85q-1.59-1.4-4.28-.9-1.28-2.16-.79-4.54l4.95-2.41zM335.46 416q-10.31-1.69-20.21-4.96-.83-.92-.69-2.14a.86.86 0 01.54-.7q7.77-3.02 15.96-1c4.82 1.2 4.87 4.7 4.4 8.8z"/><path fill="#909293" d="M454.03 429.14a.84.83 51.1 00-.9-.1q-6.68 3.23-11.69 8.67-.53.58-.37-.19c1.6-7.53 11.45-17.71 16.55-22.65 7.55-7.3 13.41-7.23 21.34-.76 6.61 5.39 13.47 11.07 21.17 14.31q11.92 5.01 24.95 6.6a.51.51 0 01.36.8c-2.99 4.26 2.9 6.73 6.21 7.25 4.48.71 11.13-3.75 14.68-6.24a1.21 1.2 32.1 01.91-.2c9.87 1.76 7.1 12.19 2.42 17.55q-12.8 14.63-31.4 18.29c-21.12 4.16-43.8.94-63.97-5.91-8.26-2.81-18.17-7.79-27.25-11.56a.14.14 0 01-.03-.24l4.59-3.74a.86.86 0 01.8-.15q16.76 5.37 33.39 11.04c11.36 3.87 21.71 5.07 33.27 5.31q7.53.16 12.25-1.3c3.37-1.04 13.14-4.81 13.17-9.34a1.34 1.3 24.7 00-.34-.88q-1.49-1.64-2.89-1.56-11.44.69-22.81-1.08a.84.84 0 01-.65-1.14c1.16-2.84-.07-4.85-3.02-5.62-16.22-4.24-28.91-7.74-40.74-17.16zm1.07-3.35l1.93 1.14a.98.98 0 001.04-.03l5.48-3.63a.97.96-48.4 01.95-.06c14.53 7.19 28.47 10.35 44.82 12.82.15.03.48-.13.55-.25a.4.4 0 00-.21-.6q-3.4-1.11-13.21-3.89-13.49-3.83-24.66-14.23a.86.86 0 01-.26-.81l.23-1.19a1.14 1.14 0 00-.22-.92q-1.2-1.52-2.8-1.21-10.05 1.97-14.23 10.97a1.48 1.47-62.6 00.59 1.89zm77.683 20.811a6.14 4.07-7.1 00-6.596-3.28 6.14 4.07-7.1 00-5.59 4.798 6.14 4.07-7.1 006.596 3.28 6.14 4.07-7.1 005.59-4.798zm-1.653 12.239c4.05.28 12.65-9.01 14.33-11.63q1.1-1.7-.66-3.38a.82.82 0 00-.85-.17c-3.56 1.37-10.54 10.31-13.49 13.47a1.02 1.01-66.5 00.67 1.71zM308.3 410.99a.52.52 0 011.02-.17q.09.26.02.68a1.4 1.4 0 00.19.95l3.44 5.65a1.82 1.81 30.4 01.27 1.02c-.23 8.81.67 17.12-4.17 24.93a.54.53-29.1 01-.99-.28l.22-32.78zM168.67 410.91c7.91 5.51 8.18 15.92 4.4 24.07a.15.15 0 01-.29-.07q.96-12.41-4.77-23.42-.84-1.63.66-.58zM315.25 411.04q9.9 3.27 20.21 4.96c-.94 5.46-6.54 6.73-11.11 5.18-3.92-1.33-7.26-6.55-9.1-10.14z"/><path fill="#fff" d="M455.1 425.79a1.48 1.47-62.6 01-.59-1.89q4.18-9 14.23-10.97 1.6-.31 2.8 1.21a1.14 1.14 0 01.22.92l-.23 1.19a.86.86 0 00.26.81q11.17 10.4 24.66 14.23 9.81 2.78 13.21 3.89a.4.4 0 01.21.6c-.07.12-.4.28-.55.25-16.35-2.47-30.29-5.63-44.82-12.82a.97.96-48.4 00-.95.06l-5.48 3.63a.98.98 0 01-1.04.03l-1.93-1.14z"/><path fill="#909293" d="M265.91 443.45l-2.99-1.48a.42.42 0 01-.1-.69c6.24-5.63 6.77-16.04 9.26-24.59q.14-.49.2.01.53 4.04.4 11.8-.14 8.35 2.83 21.76 3.21 14.53 14.78 25.97c1.73 1.71 2.89 3.89 3.98 5.95q.24.45-.17.14-16.29-12.37-24.4-31.09c-.97-2.24-1.9-3.22-4.35-2.18q-.51.22-.36-.31l1.28-4.47a.7.7 0 00-.36-.82zM316 448.04q8.03-2.63 16.44-3.71a1.29 1.27 14.9 00.84-.48q1.33-1.68.4-3.93a.65.64 79.6 00-.56-.39l-3.89-.2q-.48-.02-.92.18l-11.58 5.44q1.72-2.13 3.27-4.38c3.87-5.61 9.04-8.21 14.53-1.87q1.26 1.47 1.1 6.29c-.32 9.78-14.55 5.39-19.63 3.05z"/><path fill="#fff" d="M316 448.04l-.83-.53a.44.44 0 01-.1-.67l1.66-1.89 11.58-5.44q.44-.2.92-.18l3.89.2a.65.64 79.6 01.56.39q.93 2.25-.4 3.93a1.29 1.27 14.9 01-.84.48q-8.41 1.08-16.44 3.71z"/><ellipse fill="#22211f" transform="rotate(-7.1 3868.842 -4021.177)" rx="6.14" ry="4.07"/><path fill="#fff" d="M531.13 458.84a1.02 1.01-66.5 01-.67-1.71c2.95-3.16 9.93-12.1 13.49-13.47a.82.82 0 01.85.17q1.76 1.68.66 3.38c-1.68 2.62-10.28 11.91-14.33 11.63z"/><path fill="#909293" d="M314.4 454.65a.97.96-81.8 01.58.79q.73 6.72 3.12 13.01a.69.68 58.3 01-.17.74c-1.1 1.03-1.85 4.68-2.48 4.79a.65.64-13.6 01-.72-.43q-3.15-9.71-5.05-19.72-.25-1.3.97-.78l3.75 1.6z"/><ellipse fill="#fafddf" transform="rotate(69 -250.028 347.347)" rx="2.28" ry="1.47"/><path fill="#909293" d="M419.65 472.29c-4.96-1.49-7.55-5.2-8.06-10.11-1.5-14.38 26.59 3.12 22.36 12.04a.77.75-75.6 01-.73.44q-6.95-.38-13.57-2.37z"/><ellipse fill="#909293" transform="rotate(84 -171.323 327.61)" rx="3.43" ry="1.76"/><path fill="#909293" d="M336.26 462.54l-1.82.02a1.55 1.52 26.6 00-.9.29l-4.24 3.07q-.42.3-.69.73-2.04 3.24-4.98 5.72 1.52-6.39 3.24-8.02 4.16-3.93 9.39-1.81z"/><path fill="#fff" d="M336.26 462.54l2.53 4.21c-4.52 2.08-7.73 4.57-12.64 6.13q-1.61.51-1.15 2.33-1.24.35-2.45.1a.47.46-75.5 01-.35-.6q.44-1.37 1.43-2.34 2.94-2.48 4.98-5.72.27-.43.69-.73l4.24-3.07a1.55 1.52 26.6 01.9-.29l1.82-.02z"/><ellipse fill="#909293" transform="rotate(81.5 -170.959 350.449)" rx="2.97" ry="1.97"/><rect fill="#fafddf" x="-1.67" y="-3.03" transform="rotate(-14.6 1922.85 -493.99)" width="3.34" height="6.06" rx="1.55"/><path fill="#909293" d="M338.79 466.75c3.36 8.52-8.44 10.21-13.79 8.46q-.46-1.82 1.15-2.33c4.91-1.56 8.12-4.05 12.64-6.13z"/><path fill="#fff" d="M457.75 474.04q.89 1.13 1.04 2.74a1.1 1.08-25.2 01-.32.86q-7.37 7.21-14.38 14.76c-5.21 5.61-3.97 24.03-11.1 25.63-5.07 1.13-7.63-5.58-9.25-8.67-1.92-3.66-8.79-8.88-12.99-8.82q-6.91.11-14.48-.74 2.63-3.81 6.72-5.33.65-.24 8.09-1.7l16.31-3.18q2.7-.52 4.86-1.99 10.1-6.89 18.98-15.75a1.34 1.34 0 011.52-.25l5 2.44z"/><path fill="#909293" d="M457.75 474.04l9.8 1.86q2.78.53.59 2.32c-6.56 5.34-16.65 13.09-20.53 20.59-3.37 6.5-4.62 14.67-5.51 21.65-.94 7.43-2.97 8.85-10.17 8.53-8.61-.38-8.72-12.23-12.18-18.03-1.29-2.16-8.76-12.03-11.61-6.77a1.04 1.03 41.5 00.07 1.1l2.63 3.64a.19.19 0 01-.21.3c-5.1-1.43-14.84-2.57-14.36-9.43q7.57.85 14.48.74c4.2-.06 11.07 5.16 12.99 8.82 1.62 3.09 4.18 9.8 9.25 8.67 7.13-1.6 5.89-20.02 11.1-25.63q7.01-7.55 14.38-14.76a1.1 1.08-25.2 00.32-.86q-.15-1.61-1.04-2.74zM348.49 484.13a.69.69 0 01.28.97q-3.02 5.11-7.3 9.23a.53.53 0 01-.88-.25q-1.32-5.36-1.36-10.9a.59.58-3.3 01.52-.58q4.6-.53 8.74 1.53z"/><ellipse fill="#fafddf" transform="rotate(58.3 -304.388 525.981)" rx="1.78" ry="1.3"/><path fill="#fafddf" d="M350.6 509.56a.75.75 0 01-.3-1.09l.87-1.3a.75.75 0 011.32.13l1.25 2.98q.42.98-.54.52l-2.6-1.24z"/><ellipse fill="#909293" transform="rotate(78 -158.011 450.81)" rx="2.6" ry="1.57"/><path fill="#fafddf" d="M335.45 510.57l-.07 3.49q-.02 1.19-.67.2-1.12-1.73-1.49-3.68a.67.66 82.7 01.6-.79l.75-.05a.82.82 0 01.88.83z"/><path fill="#22211f" d="M0 589.94l.25.1c-.15.47-.01.72.51.7q5.85-.17 11.68.26H0v-1.06z"/></svg>