<svg xmlns="http://www.w3.org/2000/svg" viewBox="0 0 591 591"><g stroke-width="2" fill="none"><path stroke="#101010" vector-effect="non-scaling-stroke" d="M590.06 0l.19.29"/><path stroke="#7f7f6f" vector-effect="non-scaling-stroke" d="M590.25.29v589.46a.5.5 0 01-.5.5c-196.41.01-392.84-.2-589.25-.21"/><path stroke="#101010" vector-effect="non-scaling-stroke" d="M.5 590.04l-.5-.1"/><path stroke="#7f7f6f" vector-effect="non-scaling-stroke" d="M586.25 4.51a.26.26 0 00-.26-.26H4.51a.26.26 0 00-.26.26v581.48a.26.26 0 00.26.26h581.48a.26.26 0 00.26-.26V4.51"/><path stroke="#8f8e7f" vector-effect="non-scaling-stroke" d="M591 587.81c-.84-.45-.25-537.52-.25-587.31a.25.24-86.1 00-.21-.25q-.17-.02-.29.04M576.44 591q-3.25-.63-6.5 0M321.44 591q-2.38-.63-4.75 0M19.19 591l-18.54-.31a.26.26 0 01-.24-.33l.09-.32"/><path stroke="#fdf2c4" vector-effect="non-scaling-stroke" d="M56.94 30.46c-12.29.23-22.27 4.82-22.43 18.79q-.23 18.63-.23 37.25 0 2.86.57 5.76a.59.58-27.3 00.98.31c20.2-19.63 41.24-39.08 60.43-59.68a1.49 1.49 0 00-1.07-2.51q-18.97-.29-38.25.08"/><path stroke="#8f8e7f" vector-effect="non-scaling-stroke" d="M204.71 116.75c-19.25 2.74-30.03 19.78-27.53 38.51q1.27 9.51 5.34 18.24a1.55 1.55 0 00.78.75l7.52 3.26a1.03 1-85.4 01.57.69q.51 2.13.11 4.26"/><path stroke="#c8c9ba" vector-effect="non-scaling-stroke" d="M191.5 182.46c-2.18 2.57-5.59 5.72-5.79 9.18q-.36 6.56 5.58 10.1a.43.42 16.8 01.21.38v.31"/><path stroke="#8f8e7f" vector-effect="non-scaling-stroke" d="M191.5 202.43c.52 18.77.23 32.46-14.83 45.74-14.1 12.45-29.84 22.97-41.26 39.27q-7.72 11.02-13.64 23.17c-4.7 9.66-5.42 18.07-5.48 27.89q-.46 70.62-.26 141.26.03 9.11 1.5 13.18c4.98 13.74 25.89 23.54 38.54 27.75 39.75 13.23 83.59 14.56 124.79 8.59 23.13-3.36 48.31-9.95 66.58-25.07q3.99-3.3 6.77-8.46"/><path stroke="#7f7f6f" vector-effect="non-scaling-stroke" d="M354.21 495.75q2.78-5.48 2.78-9.75-.04-76 .65-152 .01-1.28-.43-5.5"/><path stroke="#8f8e7f" vector-effect="non-scaling-stroke" d="M357.21 328.5c-2.04-15.71-11.72-31.86-21.47-45-11.48-15.47-29.57-27.05-43.93-41.63"/><path stroke="#c8c9ba" vector-effect="non-scaling-stroke" d="M291.81 241.87q18.68-8.96 30.24-15.83c10.34-6.14 19.18-11.78 29.11-15.43q4.45-1.64 8.44-3.03a.52.52 0 01.46.93c-14.64 9.58-25.18 22.81-29.49 39.8-1.13 4.43 4.63 7.32 5.94 2.17 4.15-16.32 15.22-27.66 28.33-37.54 2.6-1.96 6.19-3.79 9.11-6.01a.56.55-41.2 01.73.04l6.61 6.53"/><path stroke="#8f8e7f" vector-effect="non-scaling-stroke" d="M381.29 213.5q-7.82 11.57-16.28 22.67c-4.73 6.2-9.11 13.53-14.06 20.08a.48.48 0 00.13.7q19.69 12.29 33.45 30.6c13.19 17.55 23.75 37.06 35.88 55.32q4.78 7.2 9.21 14.7a.91.9-45.6 001.56-.02q8.69-15.37 17.74-30.87 2.1-3.59 4.74-6.88a.53.53 0 01.68-.12l13.98 8.28a.5.49-63.5 00.71-.24c.4-.98.69-2.15 1.16-3.03q28.28-53.01 63.78-101.48 1.63-2.23 4.95-7.89a.45.44 26.8 00-.21-.63q-45.1-20.16-90.71-39.14c-9.89-4.11-18.9-8.85-28.14-13.75a.77.77 0 00-1 .23l-25.62 35.53"/><path stroke="#c8c9ba" vector-effect="non-scaling-stroke" d="M393.24 197.56q-2.3.72-4.52.38a.38.37-67.3 01-.24-.6q10.12-13.43 17.26-28.55c6.71-14.17-3.01-23.73-17.21-18.87-10.56 3.62-16.03 16.75-16.53 27.2a.64.64 0 01-1.06.45c-6.72-5.91-18.45-10.17-26.82-5.51-6.35 3.54-10.45 12.8-5.69 19.12 5.37 7.13 15.39 7.32 22.85 8.72q.49.1.01.22-13.59 3.47-24.48 9.68c-14.77 8.41-29.38 17.23-44.96 24.08q-2.33 1.03-4.81 1.12"/><path stroke="#8f8e7f" vector-effect="non-scaling-stroke" d="M287.04 235q-4.49-12.63-2.79-25.96"/><path stroke="#c8c9ba" vector-effect="non-scaling-stroke" d="M284.25 209.04c3.06-4.32 7.1-9.55 4.73-15.57a.95.93-4 00-.67-.57q-2.41-.53-4.36-.13"/><path stroke="#8f8e7f" vector-effect="non-scaling-stroke" d="M283.95 192.77q-.56-7.19.24-14.45a1.02 1.01-9.2 01.6-.82l6.96-3.05a1.72 1.66 2.4 00.76-.67c4.28-7.13 6.61-20.03 5.82-28.05-1.49-15.12-12.04-26.49-27.29-28.98"/><path stroke="#c8c9ba" vector-effect="non-scaling-stroke" d="M271.04 116.75l.43-7.12a.89.88-71.7 00-.39-.79q-.93-.61-2.77-.89c-20.2-3.05-42.99-4.04-63.05.44a1.35 1.35 0 00-1.06 1.42l.51 6.94"/><path stroke="#5a5a5b" vector-effect="non-scaling-stroke" d="M271.04 116.75l-.81 8.69a.6.6 0 01-.54.55l-6.44.72"/><path stroke="#c9cacb" vector-effect="non-scaling-stroke" d="M263.25 126.71l1.23-13.74a.43.43 0 00-.48-.47q-26 2.57-51.99-.03a.56.56 0 00-.62.56q.04 5.67 1.16 11.46.15.75-.3 2.22"/><path stroke="#5a5a5b" vector-effect="non-scaling-stroke" d="M212.25 126.71l-5.56-.8a1.11 1.1 4.5 01-.95-1.1q.03-4.25-1.03-8.06"/><path stroke="#908f8f" vector-effect="non-scaling-stroke" d="M263.25 126.71q-25.5 3.84-51 0"/><path stroke="#5a5a5b" vector-effect="non-scaling-stroke" d="M283.95 192.77q.19 3.72-1.49 7.01c-1.04 2.04-3.26 3.25-5.19 4.46q-.31.2-.31-.17l.09-23.79a.69.68 86.3 00-.77-.68l-3.99.48a.61.6 87.3 00-.53.59l-.28 26.21a1.72 1.71 85.3 01-1.41 1.67q-14.17 2.52-28.54 2.49a1.68 1.62-27.5 01-.91-.27c-4.38-2.9-11.78-6.42-15.84-1.53a.86.85 24 01-.8.3q-6.37-1.02-11.8-3.28c-1.82-.76-1.13-2.5-1.15-3.88q-.1-5.46.52-11.02a.64.64 0 01.55-.57c11.44-1.58 24.46-3.44 36.01-7.81a.37.37 0 00-.15-.71q-24.12 1.12-48.03-2.69-2.08-.33-2.1 1.77l-.17 16.59q0 .62-.48.23c-2.3-1.89-4.11-3.38-4.67-6.52q-.81-4.57-1.01-9.19M393.24 197.56q1.11.76 2.59.73.49-.01.94.15l3.69 1.31"/><path stroke="#c9cacb" vector-effect="non-scaling-stroke" d="M400.46 199.75l5.57 3.76a1.82 1.73 7.3 01.66.81l1.76 4.44a.75.74 84.7 00.54.45q.3.06.51.25"/><path stroke="#4a4b4b" vector-effect="non-scaling-stroke" d="M409.5 209.46q-.08.89.45 2.86c.94 3.5-2.5 7.22-6.34 5.73a.9.89 5.5 01-.56-.67c-.6-3.09.08-5.37-2.01-8.38"/><path stroke="#c9cacb" vector-effect="non-scaling-stroke" d="M401.04 209q-2.21-2.72-5.75-3.25"/><path stroke="#5a5a5b" vector-effect="non-scaling-stroke" d="M395.29 205.75l-.28-.37a1.02 1.02 0 00-.77-.4l-6.44-.19"/><path stroke="#c9cacb" vector-effect="non-scaling-stroke" d="M387.8 204.79c-2.79-1.1-3.95 1.83-2.84 3.96"/><path stroke="#5a5a5b" vector-effect="non-scaling-stroke" d="M384.96 208.75l-3.67 4.75M291.81 241.87l-.82-.24a1.5 1.48 43.5 00-.95.02q-10.23 3.69-20.54 4.33c-15.12.94-44.17-7.37-40.66-28.25a.49.49 0 00-.41-.56c-3.75-.56-7.49-.87-11-1.95q-12.23-3.75-23.21-10.4a1.85 1.8 2.4 01-.65-.69q-.66-1.23-2.07-1.7"/><path stroke="#5a5a5b" vector-effect="non-scaling-stroke" d="M284.25 209.04c-13.32 8.01-26.28 8.87-40.98 8.74a2.06 2.06 0 00-1.5.65l-4.69 5.08a2.39 2.38 46.5 00-.07 3.14q5.97 7.15 14.44 9.94 11.35 3.74 23.28 1.9a.44.44 0 00.33-.63q-3.74-7.78-3.26-16.48a.96.95-10.7 01.56-.82l3.88-1.78a.48.48 0 01.68.42q.26 8.95 3.34 17.35a.73.72 73.7 00.83.46l5.47-1.14a.56.55 87.2 00.44-.49l.04-.38"/><path stroke="#908f8f" vector-effect="non-scaling-stroke" d="M384.96 208.75l2.84-3.96M395.29 205.75l-35.23 48.89a.7.7 0 00.18.99q9.13 6.14 18.61 11.63c29.12 16.88 57.9 34.34 86.84 51.5a.3.29-59.7 00.41-.11q28.15-52.83 63.91-100.84a.33.33 0 00-.14-.5c-36.12-15.88-73.17-30.37-108.22-48.49a.63.63 0 00-.81.2q-9.61 13.98-19.12 27.96-.87 1.28-1.26 2.77"/><path stroke="#101010" vector-effect="non-scaling-stroke" d="M357.21 328.5q-.62-.18-1.07.08a.92.89 76.2 00-.45.77c-.18 14.21.2 29.25.07 42.59q-.53 56.16.07 112.31.04 3.84-2.8 10.35a.87.87 0 00.1.88q.37.5 1.08.27"/><path stroke="gray" vector-effect="non-scaling-stroke" d="M401.04 209c-.3 1.5-1.42 2.25-1.79 3.52-1.41 4.87 2.93 9.42 7.64 8.03 5.17-1.52 6.63-6.45 3.35-10.85q-.22-.29-.74-.24"/><path stroke="#8f8e7f" vector-effect="non-scaling-stroke" d="M524.04 382.1l1.51.92a.79.78 40.1 00.9-.07c2.52-2.14-.25-3.95-2.81-2.76a.95.95 0 00-.48 1.21q.21.52.6.59.15.03.28.11"/><path stroke="#5a5a5b" vector-effect="non-scaling-stroke" d="M235.07 175.33c-6.53-1.3-12.32-1.21-21.27-3.12-5.14-1.1.28-15.53 1.88-19.12 2.61-5.87 5.28-7.28 11.57-6.86q21.52 1.43 42.63-3.15a2.03 2.03 0 011.48.25c4.64 2.81 15.51 10.87 14.38 17.18q-.77 4.27-3.19 9.58-.21.47.29.42c7.38-.75 8.95-15.83 8.96-21.53q0-10.49-7.7-19.12a.75.75 0 00-.82-.2q-9.08 3.47-18.78 4.36c-22.18 2.03-43.96 1.96-65.91-2.21q-3.15-.6-5.56-2.14a.94.94 0 00-1.17.12c-9.78 9.75-9.66 23.26-5.11 35.42.92 2.46 2.21 4.14 4.88 4.98q13.26 4.14 28.61 4.87 10.11.48 14.82.39.56-.01.01-.12"/><path stroke="#5a5a5b" vector-effect="non-scaling-stroke" d="M194.8 162.42c.88 1.18 3.54 2.88 4.77 3.37a.92.91 13.8 001.24-.75q.89-7.89 3.61-15.38a1.65 1.63-9.2 01.53-.73q.48-.38.72-1.01.32-.84-.38-.26c-5.09 4.2-9.55 7.81-10.7 13.86a1.18 1.15 32.6 00.21.9"/><path stroke="#c8c9ba" vector-effect="non-scaling-stroke" d="M399.78 156.59c-15.23-4.97-21.9 13.06-21.16 24.68q.5 7.77 2.85 12.85a.32.31-38.1 00.53.06q4.81-5.95 8.75-12.48c3.44-5.69 12.23-17.5 9.68-24.48a1.02 1 88.7 00-.65-.63M351.78 176.6c-4.87.01-10.24 5.15-7.84 10 3.21 6.51 21.47 6.3 27.82 6.26a.39.38 82.5 00.37-.49c-2.16-8.43-11.66-15.78-20.35-15.77"/><path stroke="#908f8f" vector-effect="non-scaling-stroke" d="M447.54 315.86L388 280.19a.25.24-2.1 00-.33.35q18.52 25.94 34.8 53.62c2.38 4.04 5.27 7.85 7.97 11.71a.36.36 0 00.62-.04q7.78-14.78 16.73-28.91a.76.76 0 00-.25-1.06"/><path stroke="#c9cacb" vector-effect="non-scaling-stroke" d="M436.97 235.75q-8.22-3.28-16.4-1.68c-15.07 2.95-20.34 20.61-12.17 32.51q8 11.63 22.22 11.71c6.44.04 10.72-2.73 16.88-5.52q14.74-6.66 30.95-6.59a.34.34 0 00.33-.45q-4.67-14.34-3.19-29.39c.48-4.89 1.49-10.76 1.03-15.12-1.29-12.3-12.24-22.17-24.12-22.75-21.48-1.06-28.97 22.46-15.41 37.1q.33.36-.12.18"/><path stroke="#908f8f" vector-effect="non-scaling-stroke" d="M123.04 339.75q-.31 4.52-.33 9.07-.18 34.72-.24 69.44c-.01 4.9-.35 14.12-.01 21.24"/><path stroke="#5a5a5b" vector-effect="non-scaling-stroke" d="M122.46 439.5q.09 19.48.01 39.01c-.04 10.73 4.13 19.23 13.61 24.71 19.82 11.47 42.15 17.4 65.68 20.26q20.85 2.53 36.17 3.1a.29.29 0 00.3-.32c-.02-.4-6.2-1.66-6.8-1.73-16.47-1.81-36.08-6.57-49.55-16.23a1.12 1.07 16.6 01-.45-.79c-.82-10.39-.25-21.36-.03-31.82a.45.45 0 01.5-.44q23.09 3.04 30.53 3.6c26.47 1.99 53.33.63 79.49-3.69 16.32-2.69 34.92-7.65 49.35-16.17a.35.35 0 01.53.23c1.68 7.64.65 17.37.82 25.29.27 12.46-22.77 24.4-31.78 30.1a.27.27 0 00.23.48c15.83-5.29 39.64-14.13 39.33-34.65q-.29-19.17.21-38.33c.02-.6-.23-1.06-.4-1.61"/><path stroke="#908f8f" vector-effect="non-scaling-stroke" d="M350.21 440.5q.28-2.75.31-5.5.42-46.4.48-92.79c0-2.28-.67-4.28-.35-6.62q.77-5.62.27-7.27-6.26-21.06-19.33-38.78"/><path stroke="#5a5a5b" vector-effect="non-scaling-stroke" d="M331.59 289.54c-11.12-15.81-28.64-27-43.13-41.23a1.7 1.7 0 00-1.76-.38l-3.67 1.32a.48.48 0 00-.17.79c4.98 4.95 11.8 10.6 15.43 14.01 20.28 19.03 38.05 43.3 42.9 70.33.39 2.19-.16 3.81-2.21 4.63q-22.2 8.96-45.95 12.12-28.44 3.78-44.28 4.38c-18.24.69-31.13-.41-51.94-2.34q-2.79-.26-7.12-1.13a.53.52-80.8 01-.41-.57q3.46-33.52 12.69-65.91a.16.16 0 00-.29-.13q-18.61 29.88-25 64.59a.64.64 0 01-.76.51l-9.37-1.87a.71.7-81.6 01-.57-.77q3.55-32.93 21.02-60.95c7.89-12.65 19.02-25.29 22.84-39.79 2.27-8.61 1.5-18.82.63-28.05a1.1 1.09-84 00-.75-.94q-5.87-1.86-11.16-4.98-.61-.37-.61.35.08 9.51-2.18 18.67c-3.66 14.81-20.13 25.93-31.19 34.98-18.38 15.06-31.32 31.95-39.63 54.42-2.37 6.4-2.69 11.62-1.91 18.15"/><path stroke="#c9cacb" vector-effect="non-scaling-stroke" d="M331.59 289.54q2.61 7.38 5.14 10.97c1.87 2.64 3.67 4.82 4.97 7.83q3.14 7.26 6.26 14.52c2.27 5.3 1.93 11.27 1.55 16.86a1.56 1.52 68.4 01-.37.89q-1.86 2.09-3.94 3.15c-21.1 10.65-44.92 14.46-68.45 16.46-17.62 1.5-35.58 2.63-53.18 1.89-27.95-1.17-56.9-4.09-82.99-13.22q-9.12-3.19-17.54-9.14M350.21 440.5c-9.11 17.33-44.2 25.1-60.7 27.83-20.76 3.42-42.53 5.44-63.56 4.45-30.53-1.44-68.66-6.35-94.38-22.61q-4.77-3.01-9.11-10.67"/><path stroke="gray" vector-effect="non-scaling-stroke" d="M232.54 389.5c-2.75 12.02 1.68 17.37 5.25 27.5"/><path stroke="#908f8f" vector-effect="non-scaling-stroke" d="M237.79 417q-3.73 8.63 2.96 13.88c3.21 2.53 9.18.13 9.71 4.8a1.03 1.02 83 001.14.9l5.54-.71a.7.7 0 00.61-.69l.01-1.63a.77.77 0 01.59-.75l1.52-.35a.48.48 0 01.59.43l.14 2.07a.46.45 84.7 00.51.43l4.28-.5a.83.82 9.9 00.65-.45c.37-.74.28-2.75 1.59-2.46a.96.95 88.9 01.7.68l.42 1.55a.68.67 80.1 00.7.5l3.52-.26a.97.97 0 00.79-.52c.58-1.15 1.14-3.21 2.74-3.1a.55.55 0 01.51.6l-.14 1.78a.52.51 2 00.52.55h5.5a.7.69 4.3 00.69-.59c.87-5.51 7.45-4.2 10.64-8.05 2.6-3.13 3.72-7.16 2.65-11.24-.52-2.03-.67-3.65.41-5.66 7.39-13.7 7.65-32.49-8.38-40.2-10.87-5.23-27.25-3.35-38.44 1.37q-13.63 5.75-17.92 20.12"/><path stroke="#101010" vector-effect="non-scaling-stroke" d="M237.79 417q.6.09.93-.22a.78.76-33.7 00.18-.85q-.79-2-3.17-6.37-4.52-8.28-1.92-19.17a.79.77-65.7 00-.29-.81q-.43-.31-.98-.08"/><path stroke="#908f8f" vector-effect="non-scaling-stroke" d="M316.71 408.75c6.7 6.98 18.38-4.8 9.61-12.1a.8.78 27 01-.27-.8c2.97-12.08-15.31-9.31-13.83 2.59a1.56 1.56 0 01-.73 1.53l-8.09 4.93a1.5 1.41 88.1 00-.57.65l-1.81 4.13a1.18 1.17-46.2 00.02.99q1.25 2.63 1.01 5.57-.08 1 .78.48l13.25-8.05a.52.5 51.5 01.63.08M220.74 405.86c3.57-9.95-18.01-14.02-14.06.01a.59.58 69.4 01-.3.68c-9.94 4.86 2.06 21.33 10.18 11.39a.71.71 0 01.83-.2l13.96 6.09a.31.3 13.3 00.43-.26c.28-4.7 1.6-7.55-1.2-11.76a1.76 1.72-4.5 00-.79-.66l-8.27-3.51a1.42 1.41-68.7 01-.78-1.78M315.77 437.57q-10.98-1.28-21.74-3.83a.54.53-76.9 00-.65.41l-2.3 10.14a.57.56-78.8 00.45.68l20.12 3.58a.7.68 4.2 01.57.65l.14 3.15a1.57 1.56 24.2 00.36.94c5.75 6.94 14.05-1.15 13.12-8.34a1.39 1.38-33.1 01.2-.93q1.08-1.75 2.4-3.32c1.99-2.36 1.23-9.31-3.42-9.42q-6.6-.15-8.68 5.93a.54.54 0 01-.57.36M282.65 440.49l-.21-3.66a.55.55 0 00-.54-.52l-4.45-.08a.65.64-85.6 00-.66.57l-.37 2.98a.7.7 0 01-.71.62l-1.87-.03a.69.68 7.1 01-.66-.84l.58-2.38a.53.53 0 00-.61-.64l-4.02.76a.7.69 80.6 00-.56.79q.28 1.88-.76 3.36a.65.65 0 01-1.17-.3l-.36-3.04a.61.6-7 00-.68-.53l-4.5.58a.45.44-10.6 00-.38.54l.54 2.38a.63.63 0 01-.6.77l-1.27.03a.8.8 0 01-.81-.72l-.23-2.24a.61.61 0 00-.68-.55l-4.41.52a.65.65 0 00-.54.48c-.23.94.12 4.36-.88 4.42a.74.74 0 01-.77-.59l-1.29-6.17a.93.93 0 00-.71-.72l-2.85-.64q-1.02-.22-.57.71c1.97 4.14 2.75 9.05 3.78 13.58a1.18 1.16 9.2 00.56.76l10.49 5.95a1.45 1.45 0 00.9.18l12.98-1.68a2 1.96 21.7 00.98-.41l9.4-7.24a1.34 1.3-13.6 00.49-.77l3.02-14.44a.55.55 0 00-.78-.6l-1.99.97a.89.89 0 00-.48.64l-1.27 7.26a.55.54-41.7 01-1.08-.06M218.02 446.97c-7.35-11.34-20.83-.65-10.58 8.42a1 .99 23.4 01.33.82q-.72 9.05 7.71 9.77c3.82.33 8.23-4.5 6.25-7.51a.64.63-27 01.31-.95l20.02-7.18q1.87-.67 1.36-2.6l-2.18-8.27a.33.33 0 00-.43-.23l-22.02 7.99a.66.66 0 01-.77-.26"/><path stroke="#101010" vector-effect="non-scaling-stroke" d="M277.72 396.56q-4.3.71-5.86 4.58-3.72 9.27 5.08 12.26"/><path stroke="#908f8f" vector-effect="non-scaling-stroke" d="M276.94 413.4q9.47 1.84 12.69-6.64c2.93-7.7-4.79-13.57-11.91-10.2"/><path stroke="gray" vector-effect="non-scaling-stroke" d="M276.94 413.4q-8.64-8.86.78-16.84"/><path stroke="#908f8f" vector-effect="non-scaling-stroke" d="M247.927 415.07a9.19 8.67 121.8 0012.212-3.241 9.19 8.67 121.8 00-2.526-12.38 9.19 8.67 121.8 00-12.212 3.242 9.19 8.67 121.8 002.526 12.38M267.85 413.54a.58.58 0 00-1.05.02l-6.21 13.3a.58.58 0 00.58.83l12.3-1.16a.58.58 0 00.46-.84l-6.08-12.15"/><path stroke="#5a5a5b" vector-effect="non-scaling-stroke" d="M163.78 498.96q3.15 1.28 5.59 3.61.69.66.69-.29l-.03-28.59a.81.8-81.8 00-.57-.77l-4.3-1.27a.56.55 9 00-.71.51l-.86 26.5a.31.3-78 00.19.3"/></g><path d="M0 0h590.06l.19.29v589.46a.5.5 0 01-.5.5c-196.41.01-392.84-.2-589.25-.21l-.5-.1V0zm586.25 4.51a.26.26 0 00-.26-.26H4.51a.26.26 0 00-.26.26v581.48a.26.26 0 00.26.26h581.48a.26.26 0 00.26-.26V4.51z"/><path fill="#201f1f" d="M590.06 0h.94v587.81c-.84-.45-.25-537.52-.25-587.31a.25.24-86.1 00-.21-.25q-.17-.02-.29.04l-.19-.29z"/><path fill="#fdfdde" d="M590.25.29q.12-.06.29-.04a.25.24-86.1 01.21.25c0 49.79-.59 586.86.25 587.31V591h-14.56q-3.25-.63-6.5 0h-248.5q-2.38-.63-4.75 0H19.19l-18.54-.31a.26.26 0 01-.24-.33l.09-.32c196.41.01 392.84.22 589.25.21a.5.5 0 00.5-.5V.29z"/><path fill="#fdfdde" d="M586.25 585.99a.26.26 0 01-.26.26H4.51a.26.26 0 01-.26-.26V4.51a.26.26 0 01.26-.26h581.48a.26.26 0 01.26.26v581.48zM56.94 30.46c-12.29.23-22.27 4.82-22.43 18.79q-.23 18.63-.23 37.25 0 2.86.57 5.76a.59.58-27.3 00.98.31c20.2-19.63 41.24-39.08 60.43-59.68a1.49 1.49 0 00-1.07-2.51q-18.97-.29-38.25.08zm147.77 86.29c-19.25 2.74-30.03 19.78-27.53 38.51q1.27 9.51 5.34 18.24a1.55 1.55 0 00.78.75l7.52 3.26a1.03 1-85.4 01.57.69q.51 2.13.11 4.26c-2.18 2.57-5.59 5.72-5.79 9.18q-.36 6.56 5.58 10.1a.43.42 16.8 01.21.38v.31c.52 18.77.23 32.46-14.83 45.74-14.1 12.45-29.84 22.97-41.26 39.27q-7.72 11.02-13.64 23.17c-4.7 9.66-5.42 18.07-5.48 27.89q-.46 70.62-.26 141.26.03 9.11 1.5 13.18c4.98 13.74 25.89 23.54 38.54 27.75 39.75 13.23 83.59 14.56 124.79 8.59 23.13-3.36 48.31-9.95 66.58-25.07q3.99-3.3 6.77-8.46 2.78-5.48 2.78-9.75-.04-76 .65-152 .01-1.28-.43-5.5c-2.04-15.71-11.72-31.86-21.47-45-11.48-15.47-29.57-27.05-43.93-41.63q18.68-8.96 30.24-15.83c10.34-6.14 19.18-11.78 29.11-15.43q4.45-1.64 8.44-3.03a.52.52 0 01.46.93c-14.64 9.58-25.18 22.81-29.49 39.8-1.13 4.43 4.63 7.32 5.94 2.17 4.15-16.32 15.22-27.66 28.33-37.54 2.6-1.96 6.19-3.79 9.11-6.01a.56.55-41.2 01.73.04l6.61 6.53q-7.82 11.57-16.28 22.67c-4.73 6.2-9.11 13.53-14.06 20.08a.48.48 0 00.13.7q19.69 12.29 33.45 30.6c13.19 17.55 23.75 37.06 35.88 55.32q4.78 7.2 9.21 14.7a.91.9-45.6 001.56-.02q8.69-15.37 17.74-30.87 2.1-3.59 4.74-6.88a.53.53 0 01.68-.12l13.98 8.28a.5.49-63.5 00.71-.24c.4-.98.69-2.15 1.16-3.03q28.28-53.01 63.78-101.48 1.63-2.23 4.95-7.89a.45.44 26.8 00-.21-.63q-45.1-20.16-90.71-39.14c-9.89-4.11-18.9-8.85-28.14-13.75a.77.77 0 00-1 .23l-25.62 35.53q-2.3.72-4.52.38a.38.37-67.3 01-.24-.6q10.12-13.43 17.26-28.55c6.71-14.17-3.01-23.73-17.21-18.87-10.56 3.62-16.03 16.75-16.53 27.2a.64.64 0 01-1.06.45c-6.72-5.91-18.45-10.17-26.82-5.51-6.35 3.54-10.45 12.8-5.69 19.12 5.37 7.13 15.39 7.32 22.85 8.72q.49.1.01.22-13.59 3.47-24.48 9.68c-14.77 8.41-29.38 17.23-44.96 24.08q-2.33 1.03-4.81 1.12-4.49-12.63-2.79-25.96c3.06-4.32 7.1-9.55 4.73-15.57a.95.93-4 00-.67-.57q-2.41-.53-4.36-.13-.56-7.19.24-14.45a1.02 1.01-9.2 01.6-.82l6.96-3.05a1.72 1.66 2.4 00.76-.67c4.28-7.13 6.61-20.03 5.82-28.05-1.49-15.12-12.04-26.49-27.29-28.98l.43-7.12a.89.88-71.7 00-.39-.79q-.93-.61-2.77-.89c-20.2-3.05-42.99-4.04-63.05.44a1.35 1.35 0 00-1.06 1.42l.51 6.94zM524.04 382.1l1.51.92a.79.78 40.1 00.9-.07c2.52-2.14-.25-3.95-2.81-2.76a.95.95 0 00-.48 1.21q.21.52.6.59.15.03.28.11z"/><path fill="#fce6a9" d="M34.51 49.25c.16-13.97 10.14-18.56 22.43-18.79q19.28-.37 38.25-.08a1.49 1.49 0 011.07 2.51c-19.19 20.6-40.23 40.05-60.43 59.68a.59.58-27.3 01-.98-.31q-.57-2.9-.57-5.76 0-18.62.23-37.25z"/><path fill="#939596" d="M271.04 116.75l-.81 8.69a.6.6 0 01-.54.55l-6.44.72 1.23-13.74a.43.43 0 00-.48-.47q-26 2.57-51.99-.03a.56.56 0 00-.62.56q.04 5.67 1.16 11.46.15.75-.3 2.22l-5.56-.8a1.11 1.1 4.5 01-.95-1.1q.03-4.25-1.03-8.06l-.51-6.94a1.35 1.35 0 011.06-1.42c20.06-4.48 42.85-3.49 63.05-.44q1.84.28 2.77.89a.89.88-71.7 01.39.79l-.43 7.12z"/><path fill="#fff" d="M263.25 126.71q-25.5 3.84-51 0 .45-1.47.3-2.22-1.12-5.79-1.16-11.46a.56.56 0 01.62-.56q25.99 2.6 51.99.03a.43.43 0 01.48.47l-1.23 13.74z"/><path fill="#201f1f" d="M204.71 116.75q1.06 3.81 1.03 8.06a1.11 1.1 4.5 00.95 1.1l5.56.8q25.5 3.84 51 0l6.44-.72a.6.6 0 00.54-.55l.81-8.69c15.25 2.49 25.8 13.86 27.29 28.98.79 8.02-1.54 20.92-5.82 28.05a1.72 1.66 2.4 01-.76.67l-6.96 3.05a1.02 1.01-9.2 00-.6.82q-.8 7.26-.24 14.45.19 3.72-1.49 7.01c-1.04 2.04-3.26 3.25-5.19 4.46q-.31.2-.31-.17l.09-23.79a.69.68 86.3 00-.77-.68l-3.99.48a.61.6 87.3 00-.53.59l-.28 26.21a1.72 1.71 85.3 01-1.41 1.67q-14.17 2.52-28.54 2.49a1.68 1.62-27.5 01-.91-.27c-4.38-2.9-11.78-6.42-15.84-1.53a.86.85 24 01-.8.3q-6.37-1.02-11.8-3.28c-1.82-.76-1.13-2.5-1.15-3.88q-.1-5.46.52-11.02a.64.64 0 01.55-.57c11.44-1.58 24.46-3.44 36.01-7.81a.37.37 0 00-.15-.71q-24.12 1.12-48.03-2.69-2.08-.33-2.1 1.77l-.17 16.59q0 .62-.48.23c-2.3-1.89-4.11-3.38-4.67-6.52q-.81-4.57-1.01-9.19.4-2.13-.11-4.26a1.03 1-85.4 00-.57-.69l-7.52-3.26a1.55 1.55 0 01-.78-.75q-4.07-8.73-5.34-18.24c-2.5-18.73 8.28-35.77 27.53-38.51zm30.36 58.58c-6.53-1.3-12.32-1.21-21.27-3.12-5.14-1.1.28-15.53 1.88-19.12 2.61-5.87 5.28-7.28 11.57-6.86q21.52 1.43 42.63-3.15a2.03 2.03 0 011.48.25c4.64 2.81 15.51 10.87 14.38 17.18q-.77 4.27-3.19 9.58-.21.47.29.42c7.38-.75 8.95-15.83 8.96-21.53q0-10.49-7.7-19.12a.75.75 0 00-.82-.2q-9.08 3.47-18.78 4.36c-22.18 2.03-43.96 1.96-65.91-2.21q-3.15-.6-5.56-2.14a.94.94 0 00-1.17.12c-9.78 9.75-9.66 23.26-5.11 35.42.92 2.46 2.21 4.14 4.88 4.98q13.26 4.14 28.61 4.87 10.11.48 14.82.39.56-.01.01-.12z"/><path fill="#939596" d="M235.06 175.45q-4.71.09-14.82-.39-15.35-.73-28.61-4.87c-2.67-.84-3.96-2.52-4.88-4.98-4.55-12.16-4.67-25.67 5.11-35.42a.94.94 0 011.17-.12q2.41 1.54 5.56 2.14c21.95 4.17 43.73 4.24 65.91 2.21q9.7-.89 18.78-4.36a.75.75 0 01.82.2q7.7 8.63 7.7 19.12c-.01 5.7-1.58 20.78-8.96 21.53q-.5.05-.29-.42 2.42-5.31 3.19-9.58c1.13-6.31-9.74-14.37-14.38-17.18a2.03 2.03 0 00-1.48-.25q-21.11 4.58-42.63 3.15c-6.29-.42-8.96.99-11.57 6.86-1.6 3.59-7.02 18.02-1.88 19.12 8.95 1.91 14.74 1.82 21.27 3.12q.55.11-.01.12zm-40.26-13.03c.88 1.18 3.54 2.88 4.77 3.37a.92.91 13.8 001.24-.75q.89-7.89 3.61-15.38a1.65 1.63-9.2 01.53-.73q.48-.38.72-1.01.32-.84-.38-.26c-5.09 4.2-9.55 7.81-10.7 13.86a1.18 1.15 32.6 00.21.9z"/><path fill="#201f1f" d="M199.57 165.79c-1.23-.49-3.89-2.19-4.77-3.37a1.18 1.15 32.6 01-.21-.9c1.15-6.05 5.61-9.66 10.7-13.86q.7-.58.38.26-.24.63-.72 1.01a1.65 1.63-9.2 00-.53.73q-2.72 7.49-3.61 15.38a.92.91 13.8 01-1.24.75z"/><path fill="#939596" d="M393.24 197.56q1.11.76 2.59.73.49-.01.94.15l3.69 1.31 5.57 3.76a1.82 1.73 7.3 01.66.81l1.76 4.44a.75.74 84.7 00.54.45q.3.06.51.25-.08.89.45 2.86c.94 3.5-2.5 7.22-6.34 5.73a.9.89 5.5 01-.56-.67c-.6-3.09.08-5.37-2.01-8.38q-2.21-2.72-5.75-3.25l-.28-.37a1.02 1.02 0 00-.77-.4l-6.44-.19c-2.79-1.1-3.95 1.83-2.84 3.96l-3.67 4.75-6.61-6.53a.56.55-41.2 00-.73-.04c-2.92 2.22-6.51 4.05-9.11 6.01-13.11 9.88-24.18 21.22-28.33 37.54-1.31 5.15-7.07 2.26-5.94-2.17 4.31-16.99 14.85-30.22 29.49-39.8a.52.52 0 00-.46-.93q-3.99 1.39-8.44 3.03c-9.93 3.65-18.77 9.29-29.11 15.43q-11.56 6.87-30.24 15.83l-.82-.24a1.5 1.48 43.5 00-.95.02q-10.23 3.69-20.54 4.33c-15.12.94-44.17-7.37-40.66-28.25a.49.49 0 00-.41-.56c-3.75-.56-7.49-.87-11-1.95q-12.23-3.75-23.21-10.4a1.85 1.8 2.4 01-.65-.69q-.66-1.23-2.07-1.7v-.31a.43.42 16.8 00-.21-.38q-5.94-3.54-5.58-10.1c.2-3.46 3.61-6.61 5.79-9.18q.2 4.62 1.01 9.19c.56 3.14 2.37 4.63 4.67 6.52q.48.39.48-.23l.17-16.59q.02-2.1 2.1-1.77 23.91 3.81 48.03 2.69a.37.37 0 01.15.71c-11.55 4.37-24.57 6.23-36.01 7.81a.64.64 0 00-.55.57q-.62 5.56-.52 11.02c.02 1.38-.67 3.12 1.15 3.88q5.43 2.26 11.8 3.28a.86.85 24 00.8-.3c4.06-4.89 11.46-1.37 15.84 1.53a1.68 1.62-27.5 00.91.27q14.37.03 28.54-2.49a1.72 1.71 85.3 001.41-1.67l.28-26.21a.61.6 87.3 01.53-.59l3.99-.48a.69.68 86.3 01.77.68l-.09 23.79q0 .37.31.17c1.93-1.21 4.15-2.42 5.19-4.46q1.68-3.29 1.49-7.01 1.95-.4 4.36.13a.95.93-4 01.67.57c2.37 6.02-1.67 11.25-4.73 15.57-13.32 8.01-26.28 8.87-40.98 8.74a2.06 2.06 0 00-1.5.65l-4.69 5.08a2.39 2.38 46.5 00-.07 3.14q5.97 7.15 14.44 9.94 11.35 3.74 23.28 1.9a.44.44 0 00.33-.63q-3.74-7.78-3.26-16.48a.96.95-10.7 01.56-.82l3.88-1.78a.48.48 0 01.68.42q.26 8.95 3.34 17.35a.73.72 73.7 00.83.46l5.47-1.14a.56.55 87.2 00.44-.49l.04-.38q2.48-.09 4.81-1.12c15.58-6.85 30.19-15.67 44.96-24.08q10.89-6.21 24.48-9.68.48-.12-.01-.22c-7.46-1.4-17.48-1.59-22.85-8.72-4.76-6.32-.66-15.58 5.69-19.12 8.37-4.66 20.1-.4 26.82 5.51a.64.64 0 001.06-.45c.5-10.45 5.97-23.58 16.53-27.2 14.2-4.86 23.92 4.7 17.21 18.87q-7.14 15.12-17.26 28.55a.38.37-67.3 00.24.6q2.22.34 4.52-.38zm6.54-40.97c-15.23-4.97-21.9 13.06-21.16 24.68q.5 7.77 2.85 12.85a.32.31-38.1 00.53.06q4.81-5.95 8.75-12.48c3.44-5.69 12.23-17.5 9.68-24.48a1.02 1 88.7 00-.65-.63zm-48 20.01c-4.87.01-10.24 5.15-7.84 10 3.21 6.51 21.47 6.3 27.82 6.26a.39.38 82.5 00.37-.49c-2.16-8.43-11.66-15.78-20.35-15.77z"/><path fill="#fdfdde" d="M378.62 181.27c-.74-11.62 5.93-29.65 21.16-24.68a1.02 1 88.7 01.65.63c2.55 6.98-6.24 18.79-9.68 24.48q-3.94 6.53-8.75 12.48a.32.31-38.1 01-.53-.06q-2.35-5.08-2.85-12.85z"/><path fill="#201f1f" d="M381.29 213.5l3.67-4.75 2.84-3.96 6.44.19a1.02 1.02 0 01.77.4l.28.37-35.23 48.89a.7.7 0 00.18.99q9.13 6.14 18.61 11.63c29.12 16.88 57.9 34.34 86.84 51.5a.3.29-59.7 00.41-.11q28.15-52.83 63.91-100.84a.33.33 0 00-.14-.5c-36.12-15.88-73.17-30.37-108.22-48.49a.63.63 0 00-.81.2q-9.61 13.98-19.12 27.96-.87 1.28-1.26 2.77l-3.69-1.31q-.45-.16-.94-.15-1.48.03-2.59-.73l25.62-35.53a.77.77 0 011-.23c9.24 4.9 18.25 9.64 28.14 13.75q45.61 18.98 90.71 39.14a.45.44 26.8 01.21.63q-3.32 5.66-4.95 7.89-35.5 48.47-63.78 101.48c-.47.88-.76 2.05-1.16 3.03a.5.49-63.5 01-.71.24l-13.98-8.28a.53.53 0 00-.68.12q-2.64 3.29-4.74 6.88-9.05 15.5-17.74 30.87a.91.9-45.6 01-1.56.02q-4.43-7.5-9.21-14.7c-12.13-18.26-22.69-37.77-35.88-55.32q-13.76-18.31-33.45-30.6a.48.48 0 01-.13-.7c4.95-6.55 9.33-13.88 14.06-20.08q8.46-11.1 16.28-22.67zm66.25 102.36L388 280.19a.25.24-2.1 00-.33.35q18.52 25.94 34.8 53.62c2.38 4.04 5.27 7.85 7.97 11.71a.36.36 0 00.62-.04q7.78-14.78 16.73-28.91a.76.76 0 00-.25-1.06z"/><path fill="#fff" d="M395.29 205.75q3.54.53 5.75 3.25c-.3 1.5-1.42 2.25-1.79 3.52-1.41 4.87 2.93 9.42 7.64 8.03 5.17-1.52 6.63-6.45 3.35-10.85q-.22-.29-.74-.24-.21-.19-.51-.25a.75.74 84.7 01-.54-.45l-1.76-4.44a1.82 1.73 7.3 00-.66-.81l-5.57-3.76q.39-1.49 1.26-2.77 9.51-13.98 19.12-27.96a.63.63 0 01.81-.2c35.05 18.12 72.1 32.61 108.22 48.49a.33.33 0 01.14.5q-35.76 48.01-63.91 100.84a.3.29-59.7 01-.41.11c-28.94-17.16-57.72-34.62-86.84-51.5q-9.48-5.49-18.61-11.63a.7.7 0 01-.18-.99l35.23-48.89zm41.68 30q-8.22-3.28-16.4-1.68c-15.07 2.95-20.34 20.61-12.17 32.51q8 11.63 22.22 11.71c6.44.04 10.72-2.73 16.88-5.52q14.74-6.66 30.95-6.59a.34.34 0 00.33-.45q-4.67-14.34-3.19-29.39c.48-4.89 1.49-10.76 1.03-15.12-1.29-12.3-12.24-22.17-24.12-22.75-21.48-1.06-28.97 22.46-15.41 37.1q.33.36-.12.18z"/><path fill="#fdfdde" d="M343.94 186.6c-2.4-4.85 2.97-9.99 7.84-10 8.69-.01 18.19 7.34 20.35 15.77a.39.38 82.5 01-.37.49c-6.35.04-24.61.25-27.82-6.26z"/><path fill="#939596" d="M437.09 235.57c-13.56-14.64-6.07-38.16 15.41-37.1 11.88.58 22.83 10.45 24.12 22.75.46 4.36-.55 10.23-1.03 15.12q-1.48 15.05 3.19 29.39a.34.34 0 01-.33.45q-16.21-.07-30.95 6.59c-6.16 2.79-10.44 5.56-16.88 5.52q-14.22-.08-22.22-11.71c-8.17-11.9-2.9-29.56 12.17-32.51q8.18-1.6 16.4 1.68.45.18.12-.18z"/><path fill="#201f1f" d="M291.81 241.87c14.36 14.58 32.45 26.16 43.93 41.63 9.75 13.14 19.43 29.29 21.47 45q-.62-.18-1.07.08a.92.89 76.2 00-.45.77c-.18 14.21.2 29.25.07 42.59q-.53 56.16.07 112.31.04 3.84-2.8 10.35a.87.87 0 00.1.88q.37.5 1.08.27-2.78 5.16-6.77 8.46c-18.27 15.12-43.45 21.71-66.58 25.07-41.2 5.97-85.04 4.64-124.79-8.59-12.65-4.21-33.56-14.01-38.54-27.75q-1.47-4.07-1.5-13.18-.2-70.64.26-141.26c.06-9.82.78-18.23 5.48-27.89q5.92-12.15 13.64-23.17c11.42-16.3 27.16-26.82 41.26-39.27 15.06-13.28 15.35-26.97 14.83-45.74q1.41.47 2.07 1.7a1.85 1.8 2.4 00.65.69q10.98 6.65 23.21 10.4c3.51 1.08 7.25 1.39 11 1.95a.49.49 0 01.41.56c-3.51 20.88 25.54 29.19 40.66 28.25q10.31-.64 20.54-4.33a1.5 1.48 43.5 01.95-.02l.82.24zm-168.77 97.88q-.31 4.52-.33 9.07-.18 34.72-.24 69.44c-.01 4.9-.35 14.12-.01 21.24q.09 19.48.01 39.01c-.04 10.73 4.13 19.23 13.61 24.71 19.82 11.47 42.15 17.4 65.68 20.26q20.85 2.53 36.17 3.1a.29.29 0 00.3-.32c-.02-.4-6.2-1.66-6.8-1.73-16.47-1.81-36.08-6.57-49.55-16.23a1.12 1.07 16.6 01-.45-.79c-.82-10.39-.25-21.36-.03-31.82a.45.45 0 01.5-.44q23.09 3.04 30.53 3.6c26.47 1.99 53.33.63 79.49-3.69 16.32-2.69 34.92-7.65 49.35-16.17a.35.35 0 01.53.23c1.68 7.64.65 17.37.82 25.29.27 12.46-22.77 24.4-31.78 30.1a.27.27 0 00.23.48c15.83-5.29 39.64-14.13 39.33-34.65q-.29-19.17.21-38.33c.02-.6-.23-1.06-.4-1.61q.28-2.75.31-5.5.42-46.4.48-92.79c0-2.28-.67-4.28-.35-6.62q.77-5.62.27-7.27-6.26-21.06-19.33-38.78c-11.12-15.81-28.64-27-43.13-41.23a1.7 1.7 0 00-1.76-.38l-3.67 1.32a.48.48 0 00-.17.79c4.98 4.95 11.8 10.6 15.43 14.01 20.28 19.03 38.05 43.3 42.9 70.33.39 2.19-.16 3.81-2.21 4.63q-22.2 8.96-45.95 12.12-28.44 3.78-44.28 4.38c-18.24.69-31.13-.41-51.94-2.34q-2.79-.26-7.12-1.13a.53.52-80.8 01-.41-.57q3.46-33.52 12.69-65.91a.16.16 0 00-.29-.13q-18.61 29.88-25 64.59a.64.64 0 01-.76.51l-9.37-1.87a.71.7-81.6 01-.57-.77q3.55-32.93 21.02-60.95c7.89-12.65 19.02-25.29 22.84-39.79 2.27-8.61 1.5-18.82.63-28.05a1.1 1.09-84 00-.75-.94q-5.87-1.86-11.16-4.98-.61-.37-.61.35.08 9.51-2.18 18.67c-3.66 14.81-20.13 25.93-31.19 34.98-18.38 15.06-31.32 31.95-39.63 54.42-2.37 6.4-2.69 11.62-1.91 18.15z"/><path fill="#fff" d="M387.8 204.79l-2.84 3.96c-1.11-2.13.05-5.06 2.84-3.96z"/><path fill="#201f1f" d="M284.25 209.04q-1.7 13.33 2.79 25.96l-.04.38a.56.55 87.2 01-.44.49l-5.47 1.14a.73.72 73.7 01-.83-.46q-3.08-8.4-3.34-17.35a.48.48 0 00-.68-.42l-3.88 1.78a.96.95-10.7 00-.56.82q-.48 8.7 3.26 16.48a.44.44 0 01-.33.63q-11.93 1.84-23.28-1.9-8.47-2.79-14.44-9.94a2.39 2.38 46.5 01.07-3.14l4.69-5.08a2.06 2.06 0 011.5-.65c14.7.13 27.66-.73 40.98-8.74z"/><path d="M401.04 209c2.09 3.01 1.41 5.29 2.01 8.38a.9.89 5.5 00.56.67c3.84 1.49 7.28-2.23 6.34-5.73q-.53-1.97-.45-2.86.52-.05.74.24c3.28 4.4 1.82 9.33-3.35 10.85-4.71 1.39-9.05-3.16-7.64-8.03.37-1.27 1.49-2.02 1.79-3.52z"/><path fill="#939596" d="M331.59 289.54q2.61 7.38 5.14 10.97c1.87 2.64 3.67 4.82 4.97 7.83q3.14 7.26 6.26 14.52c2.27 5.3 1.93 11.27 1.55 16.86a1.56 1.52 68.4 01-.37.89q-1.86 2.09-3.94 3.15c-21.1 10.65-44.92 14.46-68.45 16.46-17.62 1.5-35.58 2.63-53.18 1.89-27.95-1.17-56.9-4.09-82.99-13.22q-9.12-3.19-17.54-9.14c-.78-6.53-.46-11.75 1.91-18.15 8.31-22.47 21.25-39.36 39.63-54.42 11.06-9.05 27.53-20.17 31.19-34.98q2.26-9.16 2.18-18.67 0-.72.61-.35 5.29 3.12 11.16 4.98a1.1 1.09-84 01.75.94c.87 9.23 1.64 19.44-.63 28.05-3.82 14.5-14.95 27.14-22.84 39.79q-17.47 28.02-21.02 60.95a.71.7-81.6 00.57.77l9.37 1.87a.64.64 0 00.76-.51q6.39-34.71 25-64.59a.16.16 0 01.29.13q-9.23 32.39-12.69 65.91a.53.52-80.8 00.41.57q4.33.87 7.12 1.13c20.81 1.93 33.7 3.03 51.94 2.34q15.84-.6 44.28-4.38 23.75-3.16 45.95-12.12c2.05-.82 2.6-2.44 2.21-4.63-4.85-27.03-22.62-51.3-42.9-70.33-3.63-3.41-10.45-9.06-15.43-14.01a.48.48 0 01.17-.79l3.67-1.32a1.7 1.7 0 011.76.38c14.49 14.23 32.01 25.42 43.13 41.23z"/><path fill="#fff" d="M447.54 315.86a.76.76 0 01.25 1.06q-8.95 14.13-16.73 28.91a.36.36 0 01-.62.04c-2.7-3.86-5.59-7.67-7.97-11.71q-16.28-27.68-34.8-53.62a.25.24-2.1 01.33-.35l59.54 35.67zM331.59 289.54q13.07 17.72 19.33 38.78.5 1.65-.27 7.27c-.32 2.34.35 4.34.35 6.62q-.06 46.39-.48 92.79-.03 2.75-.31 5.5c-9.11 17.33-44.2 25.1-60.7 27.83-20.76 3.42-42.53 5.44-63.56 4.45-30.53-1.44-68.66-6.35-94.38-22.61q-4.77-3.01-9.11-10.67c-.34-7.12 0-16.34.01-21.24q.06-34.72.24-69.44.02-4.55.33-9.07 8.42 5.95 17.54 9.14c26.09 9.13 55.04 12.05 82.99 13.22 17.6.74 35.56-.39 53.18-1.89 23.53-2 47.35-5.81 68.45-16.46q2.08-1.06 3.94-3.15a1.56 1.52 68.4 00.37-.89c.38-5.59.72-11.56-1.55-16.86q-3.12-7.26-6.26-14.52c-1.3-3.01-3.1-5.19-4.97-7.83q-2.53-3.59-5.14-10.97zm-99.05 99.96c-2.75 12.02 1.68 17.37 5.25 27.5q-3.73 8.63 2.96 13.88c3.21 2.53 9.18.13 9.71 4.8a1.03 1.02 83 001.14.9l5.54-.71a.7.7 0 00.61-.69l.01-1.63a.77.77 0 01.59-.75l1.52-.35a.48.48 0 01.59.43l.14 2.07a.46.45 84.7 00.51.43l4.28-.5a.83.82 9.9 00.65-.45c.37-.74.28-2.75 1.59-2.46a.96.95 88.9 01.7.68l.42 1.55a.68.67 80.1 00.7.5l3.52-.26a.97.97 0 00.79-.52c.58-1.15 1.14-3.21 2.74-3.1a.55.55 0 01.51.6l-.14 1.78a.52.51 2 00.52.55h5.5a.7.69 4.3 00.69-.59c.87-5.51 7.45-4.2 10.64-8.05 2.6-3.13 3.72-7.16 2.65-11.24-.52-2.03-.67-3.65.41-5.66 7.39-13.7 7.65-32.49-8.38-40.2-10.87-5.23-27.25-3.35-38.44 1.37q-13.63 5.75-17.92 20.12zm84.17 19.25c6.7 6.98 18.38-4.8 9.61-12.1a.8.78 27 01-.27-.8c2.97-12.08-15.31-9.31-13.83 2.59a1.56 1.56 0 01-.73 1.53l-8.09 4.93a1.5 1.41 88.1 00-.57.65l-1.81 4.13a1.18 1.17-46.2 00.02.99q1.25 2.63 1.01 5.57-.08 1 .78.48l13.25-8.05a.52.5 51.5 01.63.08zm-95.97-2.89c3.57-9.95-18.01-14.02-14.06.01a.59.58 69.4 01-.3.68c-9.94 4.86 2.06 21.33 10.18 11.39a.71.71 0 01.83-.2l13.96 6.09a.31.3 13.3 00.43-.26c.28-4.7 1.6-7.55-1.2-11.76a1.76 1.72-4.5 00-.79-.66l-8.27-3.51a1.42 1.41-68.7 01-.78-1.78zm95.03 31.71q-10.98-1.28-21.74-3.83a.54.53-76.9 00-.65.41l-2.3 10.14a.57.56-78.8 00.45.68l20.12 3.58a.7.68 4.2 01.57.65l.14 3.15a1.57 1.56 24.2 00.36.94c5.75 6.94 14.05-1.15 13.12-8.34a1.39 1.38-33.1 01.2-.93q1.08-1.75 2.4-3.32c1.99-2.36 1.23-9.31-3.42-9.42q-6.6-.15-8.68 5.93a.54.54 0 01-.57.36zm-33.12 2.92l-.21-3.66a.55.55 0 00-.54-.52l-4.45-.08a.65.64-85.6 00-.66.57l-.37 2.98a.7.7 0 01-.71.62l-1.87-.03a.69.68 7.1 01-.66-.84l.58-2.38a.53.53 0 00-.61-.64l-4.02.76a.7.69 80.6 00-.56.79q.28 1.88-.76 3.36a.65.65 0 01-1.17-.3l-.36-3.04a.61.6-7 00-.68-.53l-4.5.58a.45.44-10.6 00-.38.54l.54 2.38a.63.63 0 01-.6.77l-1.27.03a.8.8 0 01-.81-.72l-.23-2.24a.61.61 0 00-.68-.55l-4.41.52a.65.65 0 00-.54.48c-.23.94.12 4.36-.88 4.42a.74.74 0 01-.77-.59l-1.29-6.17a.93.93 0 00-.71-.72l-2.85-.64q-1.02-.22-.57.71c1.97 4.14 2.75 9.05 3.78 13.58a1.18 1.16 9.2 00.56.76l10.49 5.95a1.45 1.45 0 00.9.18l12.98-1.68a2 1.96 21.7 00.98-.41l9.4-7.24a1.34 1.3-13.6 00.49-.77l3.02-14.44a.55.55 0 00-.78-.6l-1.99.97a.89.89 0 00-.48.64l-1.27 7.26a.55.54-41.7 01-1.08-.06zm-64.63 6.48c-7.35-11.34-20.83-.65-10.58 8.42a1 .99 23.4 01.33.82q-.72 9.05 7.71 9.77c3.82.33 8.23-4.5 6.25-7.51a.64.63-27 01.31-.95l20.02-7.18q1.87-.67 1.36-2.6l-2.18-8.27a.33.33 0 00-.43-.23l-22.02 7.99a.66.66 0 01-.77-.26z"/><path d="M357.21 328.5q.44 4.22.43 5.5-.69 76-.65 152 0 4.27-2.78 9.75-.71.23-1.08-.27a.87.87 0 01-.1-.88q2.84-6.51 2.8-10.35-.6-56.15-.07-112.31c.13-13.34-.25-28.38-.07-42.59a.92.89 76.2 01.45-.77q.45-.26 1.07-.08z"/><path fill="#201f1f" d="M237.79 417q.6.09.93-.22a.78.76-33.7 00.18-.85q-.79-2-3.17-6.37-4.52-8.28-1.92-19.17a.79.77-65.7 00-.29-.81q-.43-.31-.98-.08 4.29-14.37 17.92-20.12c11.19-4.72 27.57-6.6 38.44-1.37 16.03 7.71 15.77 26.5 8.38 40.2-1.08 2.01-.93 3.63-.41 5.66 1.07 4.08-.05 8.11-2.65 11.24-3.19 3.85-9.77 2.54-10.64 8.05a.7.69 4.3 01-.69.59h-5.5a.52.51 2 01-.52-.55l.14-1.78a.55.55 0 00-.51-.6c-1.6-.11-2.16 1.95-2.74 3.1a.97.97 0 01-.79.52l-3.52.26a.68.67 80.1 01-.7-.5l-.42-1.55a.96.95 88.9 00-.7-.68c-1.31-.29-1.22 1.72-1.59 2.46a.83.82 9.9 01-.65.45l-4.28.5a.46.45 84.7 01-.51-.43l-.14-2.07a.48.48 0 00-.59-.43l-1.52.35a.77.77 0 00-.59.75l-.01 1.63a.7.7 0 01-.61.69l-5.54.71a1.03 1.02 83 01-1.14-.9c-.53-4.67-6.5-2.27-9.71-4.8q-6.69-5.25-2.96-13.88zm39.93-20.44q-4.3.71-5.86 4.58-3.72 9.27 5.08 12.26 9.47 1.84 12.69-6.64c2.93-7.7-4.79-13.57-11.91-10.2zm-29.793 18.51a9.19 8.67 121.8 0012.212-3.241 9.19 8.67 121.8 00-2.526-12.38 9.19 8.67 121.8 00-12.212 3.242 9.19 8.67 121.8 002.526 12.38zm19.923-1.53a.58.58 0 00-1.05.02l-6.21 13.3a.58.58 0 00.58.83l12.3-1.16a.58.58 0 00.46-.84l-6.08-12.15zM523.76 381.99q-.39-.07-.6-.59a.95.95 0 01.48-1.21c2.56-1.19 5.33.62 2.81 2.76a.79.78 40.1 01-.9.07l-1.51-.92q-.13-.08-.28-.11zM316.08 408.67l-13.25 8.05q-.86.52-.78-.48.24-2.94-1.01-5.57a1.18 1.17-46.2 01-.02-.99l1.81-4.13a1.5 1.41 88.1 01.57-.65l8.09-4.93a1.56 1.56 0 00.73-1.53c-1.48-11.9 16.8-14.67 13.83-2.59a.8.78 27 00.27.8c8.77 7.3-2.91 19.08-9.61 12.1a.52.5 51.5 00-.63-.08z"/><path d="M232.54 389.5q.55-.23.98.08a.79.77-65.7 01.29.81q-2.6 10.89 1.92 19.17 2.38 4.37 3.17 6.37a.78.76-33.7 01-.18.85q-.33.31-.93.22c-3.57-10.13-8-15.48-5.25-27.5z"/><path fill="#fff" d="M276.94 413.4q-8.64-8.86.78-16.84c7.12-3.37 14.84 2.5 11.91 10.2q-3.22 8.48-12.69 6.64z"/><path d="M277.72 396.56q-9.42 7.98-.78 16.84-8.8-2.99-5.08-12.26 1.56-3.87 5.86-4.58z"/><path fill="#201f1f" d="M220.74 405.86a1.42 1.41-68.7 00.78 1.78l8.27 3.51a1.76 1.72-4.5 01.79.66c2.8 4.21 1.48 7.06 1.2 11.76a.31.3 13.3 01-.43.26l-13.96-6.09a.71.71 0 00-.83.2c-8.12 9.94-20.12-6.53-10.18-11.39a.59.58 69.4 00.3-.68c-3.95-14.03 17.63-9.96 14.06-.01z"/><ellipse fill="#fff" transform="rotate(121.8 13.046 273.975)" rx="9.19" ry="8.67"/><path fill="#fff" d="M267.85 413.54l6.08 12.15a.58.58 0 01-.46.84l-12.3 1.16a.58.58 0 01-.58-.83l6.21-13.3a.58.58 0 011.05-.02z"/><path fill="#201f1f" d="M316.34 437.21q2.08-6.08 8.68-5.93c4.65.11 5.41 7.06 3.42 9.42q-1.32 1.57-2.4 3.32a1.39 1.38-33.1 00-.2.93c.93 7.19-7.37 15.28-13.12 8.34a1.57 1.56 24.2 01-.36-.94l-.14-3.15a.7.68 4.2 00-.57-.65l-20.12-3.58a.57.56-78.8 01-.45-.68l2.3-10.14a.54.53-76.9 01.65-.41q10.76 2.55 21.74 3.83a.54.54 0 00.57-.36zM282.65 440.49a.55.54-41.7 001.08.06l1.27-7.26a.89.89 0 01.48-.64l1.99-.97a.55.55 0 01.78.6l-3.02 14.44a1.34 1.3-13.6 01-.49.77l-9.4 7.24a2 1.96 21.7 01-.98.41l-12.98 1.68a1.45 1.45 0 01-.9-.18l-10.49-5.95a1.18 1.16 9.2 01-.56-.76c-1.03-4.53-1.81-9.44-3.78-13.58q-.45-.93.57-.71l2.85.64a.93.93 0 01.71.72l1.29 6.17a.74.74 0 00.77.59c1-.06.65-3.48.88-4.42a.65.65 0 01.54-.48l4.41-.52a.61.61 0 01.68.55l.23 2.24a.8.8 0 00.81.72l1.27-.03a.63.63 0 00.6-.77l-.54-2.38a.45.44-10.6 01.38-.54l4.5-.58a.61.6-7 01.68.53l.36 3.04a.65.65 0 001.17.3q1.04-1.48.76-3.36a.7.69 80.6 01.56-.79l4.02-.76a.53.53 0 01.61.64l-.58 2.38a.69.68 7.1 00.66.84l1.87.03a.7.7 0 00.71-.62l.37-2.98a.65.64-85.6 01.66-.57l4.45.08a.55.55 0 01.54.52l.21 3.66zM218.79 447.23l22.02-7.99a.33.33 0 01.43.23l2.18 8.27q.51 1.93-1.36 2.6l-20.02 7.18a.64.63-27 00-.31.95c1.98 3.01-2.43 7.84-6.25 7.51q-8.43-.72-7.71-9.77a1 .99 23.4 00-.33-.82c-10.25-9.07 3.23-19.76 10.58-8.42a.66.66 0 00.77.26z"/><path fill="#939596" d="M122.46 439.5q4.34 7.66 9.11 10.67c25.72 16.26 63.85 21.17 94.38 22.61 21.03.99 42.8-1.03 63.56-4.45 16.5-2.73 51.59-10.5 60.7-27.83.17.55.42 1.01.4 1.61q-.5 19.16-.21 38.33c.31 20.52-23.5 29.36-39.33 34.65a.27.27 0 01-.23-.48c9.01-5.7 32.05-17.64 31.78-30.1-.17-7.92.86-17.65-.82-25.29a.35.35 0 00-.53-.23c-14.43 8.52-33.03 13.48-49.35 16.17-26.16 4.32-53.02 5.68-79.49 3.69q-7.44-.56-30.53-3.6a.45.45 0 00-.5.44c-.22 10.46-.79 21.43.03 31.82a1.12 1.07 16.6 00.45.79c13.47 9.66 33.08 14.42 49.55 16.23.6.07 6.78 1.33 6.8 1.73a.29.29 0 01-.3.32q-15.32-.57-36.17-3.1c-23.53-2.86-45.86-8.79-65.68-20.26-9.48-5.48-13.65-13.98-13.61-24.71q.08-19.53-.01-39.01zm41.32 59.46q3.15 1.28 5.59 3.61.69.66.69-.29l-.03-28.59a.81.8-81.8 00-.57-.77l-4.3-1.27a.56.55 9 00-.71.51l-.86 26.5a.31.3-78 00.19.3z"/><path fill="#201f1f" d="M163.78 498.96a.31.3-78 01-.19-.3l.86-26.5a.56.55 9 01.71-.51l4.3 1.27a.81.8-81.8 01.57.77l.03 28.59q0 .95-.69.29-2.44-2.33-5.59-3.61zM0 589.94l.5.1-.09.32a.26.26 0 00.24.33l18.54.31H0v-1.06zM321.44 591h-4.75q2.37-.63 4.75 0zM576.44 591h-6.5q3.25-.63 6.5 0z"/></svg>