<svg xmlns="http://www.w3.org/2000/svg" viewBox="0 0 591 591"><g stroke-width="2" fill="none"><path stroke="#cccecf" vector-effect="non-scaling-stroke" d="M591 2.56q.13-1.56-.87-2.23a.26.25 28.6 00-.38.11q-.05.11 0 .27"/><path stroke="#4c4e4f" vector-effect="non-scaling-stroke" d="M589.75.71q-.75.14-1.5.14Q294.13.97 0 .94"/><path stroke="gray" vector-effect="non-scaling-stroke" d="M0 589.94q2.51.19 5 .19 292.33.12 584.54.12a.71.71 0 00.71-.71V1.7a1.09 1.08-66.2 00-.28-.73l-.22-.26"/><path stroke="#7e7f70" vector-effect="non-scaling-stroke" d="M585.5 5.52a.26.26 0 00-.26-.26H5.5a.26.26 0 00-.26.26v579.72a.26.26 0 00.26.26h579.74a.26.26 0 00.26-.26V5.52"/><path stroke="#fbf1c5" vector-effect="non-scaling-stroke" d="M36.59 37.12q-3.56 5.55-3.42 11.38.47 20.52.9 41.04c.01.53-.23 2.53-.03 2.84a1.37 1.36 51.9 002.12.26q20.36-19.93 39.6-40.77c6.76-7.34 14.2-14.66 21.29-22.18q1.72-1.83-.78-2.1c-11.58-1.22-24.5.23-36.2.43-9.32.16-17.88.37-23.48 9.1"/><path stroke="#7e7f70" vector-effect="non-scaling-stroke" d="M261.5 191.04c4.81-5.12 8.74-8.7 15.54-9.54"/><path stroke="#8e8f7f" vector-effect="non-scaling-stroke" d="M277.04 181.5q1.69.12 2.76-.28a1.77 1.77 0 012.22.94l4.76 10.55a.34.33-18.6 01-.24.47c-4.9 1.02-12.88 2.64-14.38 7.13q-.16.47-.52.82c-7.09 6.84-11.15 12.05-14.01 21.12a.89.89 0 01-.64.6q-9.09 2.27-18.1 4.74-3.76 1.03-7.18 3.04c-12.35 7.24-26.77 14.53-36.88 23.23q-11.72 10.08-20.18 23.24-.37.57-.17.72a.89.89 0 001.26-.19q5.74-8.01 11.69-13.96c5.01-5 12.55-10.91 18.8-14.1 16.36-8.35 29.29-15.09 45.78-18.58 2.93-.62 6.7-.79 10.05-1.55a1.69 1.69 0 00.84-.47c3.58-3.7 4.97-9.52 6.61-12.43q1.62-2.86 5.57-6.77a.67.67 0 01.91-.03l5.63 5.01a.52.52 0 01-.16.87c-4.26 1.59-10.01 2.76-7.46 9.03q2.28 5.61 5.57 10.85a.43.43 0 01-.19.62c-7.2 3.27 1.83 18.13 4.74 21.57a.49.48 50.3 01-.06.69q-6.81 5.64-4.13 13.93c1.97 6.08 7.97 8.25 9.2 15.52q3.14 18.57-.76 37.89c-4.25 21.04-24.34 32.67-44.63 32.65a1.67 1.64 61.4 01-.92-.28c-3.87-2.57-7.91-5.37-12.38-6.15q-10.02-1.75-18.66 4.34c-3.97 2.79.24 10.42 2.24 13.93q10.29 18.1 26.8 30.48a.45.45 0 01-.27.81q-2.99-.02-5.77.88c-4.23 1.38-6.95-.24-10.59-.98-6.1-1.22-22.87-6.21-19.7 7.47a.94.94 0 01-.22.86q-1.66 1.83-4.53 1.55c-6.52-.63-20.65-1.83-19.09 9.22a.95.93-23.4 01-.36.88l-5.02 3.83a1.66 1.66 0 01-1.02.35c-7.69 0-19.85 3.57-16.76 13.85a1 .99-35.5 01-.15.87l-4.33 5.78a1.69 1.67 9.8 01-.86.6c-6.63 2.03-18.23 9.86-9.93 17.79a.88.87-62.2 01.25.83c-1.47 6.7-6.61 11.68-8.92 19.23-1.18 3.86 1.5 6.79 4.87 8.11a.81.8 9.3 01.51.7c.21 4.01 1.76 9.24.71 13.04-1.88 6.77-2.84 11 4.14 15.15a1.47 1.44 5.4 01.62.73c12.32 30.71 41.4 42.52 73.11 35.55q30.81-6.77 39.96-36.42c6.07-19.68-3.22-38.74-24.29-42.18-11.52-1.88-24.24-1.4-29.43 11.02q-4.22 10.09 2.31 18.36.32.4.22-.1-1.13-5.98 1.01-11.7c3.14-8.4 12.27-9.01 19.9-8.13 13.48 1.56 17.75 9.17 13.52 21.71-5.38 15.96-15.68 26.87-33.09 28.63-14.24 1.44-32.92-13.79-37.7-26.64-7.52-20.23-2.78-45.93 16.5-57.67q13.44-8.19 29.36-12.03c30.83-7.43 68.05-8.9 101.48-17.37q7.8-1.97 15.29-5.04a1.18 1.17 52.7 011.17.16c2.99 2.34 8.28 5.28 12.23 3.76q12.64-4.84 24.45-13.77 3.36-2.53 3.58-6.38a.84.82-10.9 01.48-.7c15.23-7.26 27.31-22.02 36.05-36.79 10.62-17.97 14.56-44.26 10.55-64.77q-3.14-16.04-13.93-32.29a.76.75 45.5 010-.85l1.23-1.8a1.05 1.03 52.4 00.11-.95c-2.28-6-13.73-28.94-22.22-25.57a1.16 1.14 64.9 01-1.43-.53q-6.03-11.14-11.69-22.41c-2.3-4.57-8.57-17.04.48-17.81q2.55-.22 4.57 1.06 5.97 3.82 10.81 5.09c3.53.92 6.01-3.51 7.5-5.85a.35.35 0 01.57-.02c4.33 5.62 9.22 4.85 13.6-.06a.7.7 0 01.79-.18q7.22 2.97 14.38 6.08c2.57 1.12 1.12 3.76 4.19 4.17 2.74.37 4.29.66 6.88 2.29q4.31 2.72 8.7-.65a.81.8-49.9 01.84-.08c5.35 2.59 10.49 3.91 16.15 5.55 5.98 1.73 9.58 3.45 11.87 8.97a1.17 1.17 0 001.48.65c5.72-2.05 10.44-8.52 14.48-12.88 3.61-3.89 5.24-8.23 7.25-12.99a1 .98-49.4 00-.06-.9c-3.65-6.01-12.86 4.54-18.8 2.39q-15.4-5.58-25.58-11.24-1.2-.67-.59-2.49a.85.84-58.2 00-.2-.87q-4.13-4.2-6.93-9.44a1.09 1.07-11.9 00-.88-.56q-2.34-.12-1.86-2.55a1.58 1.5-52.5 00-.09-.86q-1.1-2.56-3.66-1.44a.5.5 0 01-.68-.31l-.39-1.39a1.55 1.52 9.8 00-.59-.82c-4.49-3.1-7.54-9.17-9.34-14.42a1.72 1.72 0 01.52-1.87c4.49-3.79 1.97-9.75-.35-15.02a1.66 1.61-53.8 01-.13-.95c1.83-12.56-9-15.06-9.37-25.94-.14-4.01 1.92-8.89 2.28-12.52.53-5.19-4.15-6.46-7.76-8.2-4.51-2.17-7.97-6.4-10.79-10.42q-.59-.84-1.48-.76a.42.42 0 00-.35.56c1.39 3.71 7.05 10.54 10.59 12.37 3.01 1.56 6.1 1.89 7.45 5.74a1.55 1.48-47.4 01.02.96q-1.92 6.41-2.83 13.02c-1.52 10.94 10.45 13.67 8.8 21.07q-1.23 5.45 1.59 10.25c.85 1.46.84 3.04-.2 4.27a.81.79-53.8 01-1.03.17l-2.44-1.51a1.01 1-73 01-.48-.91c.28-5.59.91-10.17-.98-15.62-1.66-4.8-6.33-6.81-7.85-11.53-1.93-6.02-2.76-20.27-10.22-22.06-5.06-1.22-10.11-1.91-14.64-4.4q-6.85-3.76-13.06-8.47a.74.74 0 00-1.1.92c2.84 5.64 17.66 13.96 23.85 14.66 4.52.5 6.93 2.38 7.67 6.92q.88 5.46 2.16 10.81c1.46 6.08 4.61 9.19 9.31 12.97 2.64 2.13.76 12.92-.01 16.04a1.32 1.31-77.8 01-1.51.98c-5.67-1.05-13.32-3.32-17.22-7.94q-5.27-6.25-8.94-8.67-2.75-1.81-4.49-3.53c-4.83-4.77-3.73-13.41-8.48-18.57q-5.35-5.81-14.08-4.83a1.23 1.21 61 01-.88-.26c-5.32-4.32-8.97-10.06-16.99-7.75-.63.18-1.03.67-.81 1.32a.65.64-13.1 00.7.43c7.82-.93 11.37 3.24 16.13 8.96a1.57 1.56-12.1 00.81.52c3.59.98 11.75 1.97 13.05 5.76.47 1.38 3.12 7.31 1.5 8.2a1.64 1.64 0 01-2.17-.53q-2.67-4.06-4.86-7.13c-3.67-5.16-11.17-2.53-16.07-5.31-1.1-.62-6.05-5.74-6.07-5.73a.6.59-21.2 00-.32.72c4.38 14.22 18.28 4.08 20.56 16.28a.84.84 0 01-1.03.97c-1.83-.45-9.57-2.66-10.86-.94-1.48 1.95 1.68 6.69 3.04 8.18q.33.36-.16.39c-5.03.31-9.48-.47-11.37 5.47a.49.48-71.9 01-.62.32c-2.16-.7-3.78-1.69-6-2.23-27.18-6.49-34.28-37.84-62.61-35.7q-18.98 1.43-39.63 5.77a.87.86-21.1 00-.57 1.28l.48.83a.76.76 0 00.88.34c5.73-1.81 11.53-2.15 17.31-2.93 15.35-2.06 34.32-1.31 45.65 10.94q14.05 15.19 28.48 24.51.47.31-.09.31l-3.87.01a1.34 1.34 0 00-1.24 1.82l1.18 3.05a.53.53 0 01-.39.71c-5.35 1.06-10.17 3.41-15.48 4.16a1.21 1.19 59.1 01-.89-.23q-10.27-7.74-21.64-2.88c-13.97 5.98-25 8.7-38.91 5.07q-2.94-.76-12.01-4.83-10.18-4.57-21.05-7.12c-9.48-2.22-14.92-1.62-22.44 3.94q-9.66 7.14-14.77 15.13a.36.36 0 00.24.55q.92.18 1.54-.69c5.29-7.33 14.66-15.78 23.6-16.85 13.28-1.6 28.6 8.06 41.47 13.24 10.79 4.35 24.68 4.06 35.38-.45 6.83-2.88 13.01-6.81 20.89-3.89a.34.34 0 01.14.54c-5.33 6.15-2.92 12.11-1.18 19.03a.79.79 0 01-.8.98c-6.72-.31-14.33-2.87-18.21 4.53a.95.94-79.6 01-.72.5c-10.25 1.35-18.75 3.83-24.75 12.65a.72.72 0 01-.77.3q-4.77-1.16-14.85-4.4c-28.26-9.09-54.42 8.43-71.84 30.05a.67.67 0 00-.01.83c.64.85 1.51.38 2.08-.33 10.38-12.96 29.2-27.79 46.3-29.05 10.83-.81 19.81 1.53 29.54 6.82 5.61 3.05 9.67 4.35 15.01 1.09"/><path stroke="#111010" vector-effect="non-scaling-stroke" d="M277.04 181.5q-.16-1.17-1.32-.98-9.06 1.47-14.66 9.02-.67.91.44 1.5"/><path stroke="#cacdbf" vector-effect="non-scaling-stroke" d="M37.52 143.82a1.16.28 88.5 00.25-1.167 1.16.28 88.5 00-.31-1.153 1.16.28 88.5 00-.25 1.167 1.16.28 88.5 00.31 1.153M51.272 357.268a1.55.95-26.1 00-1.81-.171 1.55.95-26.1 00-.974 1.535 1.55.95-26.1 001.81.171 1.55.95-26.1 00.974-1.535"/><path stroke="#5d5e5f" vector-effect="non-scaling-stroke" d="M374.66 172.86l4.52 2.38a.49.48-60.3 00.64-.18c6.29-10.34 8.71-22.29 14-33.22a.67.67 0 00-.18-.82l-3.66-2.95"/><path stroke="#90908f" vector-effect="non-scaling-stroke" d="M389.98 138.07q-.08-1.23-.91-1.78a1.35 1.35 0 00-1.93.45c-6.58 11.6-11.92 21.62-14.52 34.7a1.1 1.1 0 00.96 1.31l1.08.11"/><path stroke="#cccecf" vector-effect="non-scaling-stroke" d="M389.98 138.07q-10.83 15.98-15.32 34.79"/><path stroke="#5d5e5f" vector-effect="non-scaling-stroke" d="M323.04 157c10.4 9.98 27.77 21.51 40.45 23.96a.79.78-65.9 00.79-.31q4.12-5.5-1.7-8.49-19.49-10-33.29-21.53"/><path stroke="#90908f" vector-effect="non-scaling-stroke" d="M329.29 150.63l-4.31-3.71a.61.6 55.1 00-.6-.11l-6.59 2.4a1.11 1.1-31.7 00-.43 1.79l5.68 6"/><path stroke="#cccecf" vector-effect="non-scaling-stroke" d="M329.29 150.63q-4.23 2.22-6.25 6.37"/><path stroke="#90908f" vector-effect="non-scaling-stroke" d="M420.16 164.96a10.17 10.17 0 00-10.17-10.17 10.17 10.17 0 00-10.17 10.17 10.17 10.17 0 0010.17 10.17 10.17 10.17 0 0010.17-10.17M369.03 168.79c-2.53-1.02-1.64 2.54-.59 3.48q.65.57.78-.29l.34-2.27a.87.85 15.7 00-.53-.92"/><path stroke="#5d5e5f" vector-effect="non-scaling-stroke" d="M382 186.29c13.19 6.38 27.02 9.82 41.72 9.57a.61.61 0 00.6-.5c.97-5.07-2.56-5.41-6.88-6.64q-12.96-3.68-25.87-7.21"/><path stroke="#90908f" vector-effect="non-scaling-stroke" d="M391.57 181.51l-9.54-2.71a.7.7 0 00-.86.46l-1.69 5.34a.67.66-70.1 00.38.82l2.14.87"/><path stroke="#cccecf" vector-effect="non-scaling-stroke" d="M391.57 181.51q-3.8 1.41-7.18-.85a.34.34 0 00-.52.17l-1.87 5.46"/><path stroke="#5d5e5f" vector-effect="non-scaling-stroke" d="M435.21 182.35c-4.61-2.29-9.67-.98-12.8 3.07a.5.5 0 00.14.73l1.54.91a.64.64 0 00.85-.2c2.15-3.23 5.87-2.68 9.21-2.38.9.08 1.6-.46 1.55-1.37a.9.89 12.6 00-.49-.76"/><path stroke="#90908f" vector-effect="non-scaling-stroke" d="M437.71 185.36q-2.2 4.12.91 7.8a.39.39 0 00.61-.02l1.06-1.39"/><path stroke="#5d5e5f" vector-effect="non-scaling-stroke" d="M440.29 191.75l7.36-4.01a.44.44 0 00.08-.72q-2.67-2.35-4.28-5.51-.42-.82-.47.09l-.03.46a.68.67 77 01-.34.55l-4.9 2.75"/><path stroke="#cccecf" vector-effect="non-scaling-stroke" d="M440.29 191.75l-2.58-6.39"/><path stroke="#5d5e5f" vector-effect="non-scaling-stroke" d="M362.27 183.84a.57.57 0 00-.68-.51l-2.12.41a.55.55 0 00-.37.83c.84 1.38 3.42 1.98 3.17-.73"/><path stroke="#90908f" vector-effect="non-scaling-stroke" d="M292.5 231.21l-11.93 9.36a.81.81 0 00-.25.95l4.58 10.6a.52.52 0 00.84.17l11.8-11.04"/><path stroke="#5d5e5f" vector-effect="non-scaling-stroke" d="M297.54 241.25c19.66-16.56 44.11-27.07 64.22-40.91 5.32-3.66 9.51-6.17 12.25-11.31a.5.5 0 00-.39-.73q-3.2-.29-5.97-1.94a1.14 1.13-35.3 00-.84-.14q-3.83.88-6.03 2.56c-15.22 11.71-29.07 18.29-44.56 26.45q-12.74 6.71-23.72 15.98"/><path stroke="#cccecf" vector-effect="non-scaling-stroke" d="M297.54 241.25l-4.46-9.81a.35.34 81 00-.28-.21l-.3-.02"/><path stroke="#5d5e5f" vector-effect="non-scaling-stroke" d="M378.42 191.61c.58-.8 2.69-3.76-.06-3.61a.64.64 0 00-.61.64l-.01 2.75q0 1.16.68.22M435.05 207.89l4.6 2.85a1.05 1.04 1.5 001.47-1.39q-2.9-5.26-4.69-11.02a.82.82 0 00-.87-.57l-5.89.6a.63.63 0 00-.57.69l.77 7.62a.63.62 89.9 00.56.57l4.02.45q.32.03.6.2M353.25 276.79c.08.33.25.92.49 1.18q6.12 6.61 8.74 15.2a.52.51-19.6 00.69.32c13.39-5.76 29.23-16.01 37.11-28.56a.83.82 45.9 00.01-.85c-1.74-3.02-8.37-14.99-11.25-15.83"/><path stroke="#90908f" vector-effect="non-scaling-stroke" d="M389.04 248.25q-.04-.45-.41-.77a.53.52-48.8 00-.75.05q-4.85 5.56-10.27 10.57c-7.6 7.02-17.02 11.36-26.39 15.5a.48.48 0 00-.23.66q.82 1.55 2.26 2.53"/><path stroke="#cccecf" vector-effect="non-scaling-stroke" d="M389.04 248.25c-5.26 11.32-20.86 21.85-31.75 27.27q-1.91.95-4.04 1.27"/><path stroke="#5d5e5f" vector-effect="non-scaling-stroke" d="M241.5 392.04c12.34 11.32 32.28 14.45 48.26 13.04q46.46-4.12 65.52-43.43c11.27-23.24 8.7-53.59-4.19-75.48q-7.27-12.33-21.05-18.42"/><path stroke="#90908f" vector-effect="non-scaling-stroke" d="M330.04 267.75q-13.17-6.15-27.3-6.96c-4.55-.26-13.8 1.41-16.17 4.79-2.62 3.73 1.6 7.45 3.98 10.02 3.06 3.32 4.86 6.99 5.43 11.16q1.61 11.83.94 26.06c-1.32 27.89-13.96 43.82-40.42 51.45q-9.1 2.62-17.58-.17c-8.24-2.71-12.33-9.4-21.45-3a.59.59 0 00-.19.74c5.59 11.27 13.85 22.91 24.22 30.2"/><path stroke="#cccecf" vector-effect="non-scaling-stroke" d="M330.04 267.75q.07.39-.11.66a.62.61-61.3 01-.78.23q-10.57-4.87-22.1-6.52c-5.21-.75-6.7 6.77-6.3 10.34"/><path stroke="#90908f" vector-effect="non-scaling-stroke" d="M300.75 272.46c-1.13.09-4.76-.03-5.14 1.17a.44.43-78.2 00.37.57q4.66.43 9.02 2.09"/><path stroke="#cccecf" vector-effect="non-scaling-stroke" d="M305 276.29q.06 6.2 3.58 12.41c4.06 7.16 7.63 16.31 8.32 24.52 2.66 31.67-21.92 57.41-51.42 65.28q-3.34.89-6.73 1.79"/><path stroke="#90908f" vector-effect="non-scaling-stroke" d="M258.75 380.29q-8.36-4.49-15.28-11.19a.39.39 0 00-.59.5c8.48 12.47 16.88 21.19 31.37 25.69"/><path stroke="#cccecf" vector-effect="non-scaling-stroke" d="M274.25 395.29q.05.24 0 .44a.52.51 14 01-.64.38q-12.5-3.49-21.23-12.74-2.65-2.81-4.66-3.66c-3.04-1.29-7.43-1.96-10.4-.08a1.09 1.08-12.5 00-.49.76c-.22 1.44-.01 8.03 1.65 8.66q2.21.85 3.31 1.98a.63.62 40.1 01.07.77q-.12.18-.36.24"/><path stroke="#5d5e5f" vector-effect="non-scaling-stroke" d="M258.75 380.29c23.87 15.98 55.05 13.77 73.38-9.39 16.85-21.28 19.06-50.64 3.77-73.27-7.24-10.72-18.72-17.52-30.9-21.34"/><path stroke="#5d5e5f" vector-effect="non-scaling-stroke" d="M274.25 395.29q36.11 8.63 60.28-16.23c5.51-5.67 9.26-12.43 12.52-19.65 9.73-21.61 7.8-45.97-5.4-65.26-9.76-14.25-23.53-21.85-40.9-21.69M325.5 403.21c3.72 6.1 10.74 11.41 17.2 14.21a1.48 1.44 44.7 001.17.01q10.63-4.43 20.28-10.73a.53.53 0 00.05-.85q-9.61-8.3-17.4-18.34a.46.45-39.1 00-.66-.06q-2.9 2.48-5.71 5.06c-4.5 4.13-9.66 6.82-14.76 10a.52.51-31.6 00-.17.7"/><path stroke="#90908f" vector-effect="non-scaling-stroke" d="M411.5 161.39c1.03 2.47-1.32 3.45-3.19 3.81a.84.84 0 01-.91-.46l-.98-2.04a.72.71 77.9 00-.63-.41c-1.87-.03-1.29 3.93-.87 4.78 1.93 3.86 6.75 4.88 9.58 1.36 2.73-3.4.25-10.65-4.97-9.24q-1.23.33-.08.89l1.48.71a1.15 1.15 0 01.57.6"/></g><path fill="#989c9e" d="M0 0h591v2.56q.13-1.56-.87-2.23a.26.25 28.6 00-.38.11q-.05.11 0 .27-.75.14-1.5.14Q294.13.97 0 .94V0z"/><path fill="#fff" d="M591 2.56V591H0v-1.06q2.51.19 5 .19 292.33.12 584.54.12a.71.71 0 00.71-.71V1.7a1.09 1.08-66.2 00-.28-.73l-.22-.26q-.05-.16 0-.27a.26.25 28.6 01.38-.11q1 .67.87 2.23z"/><path d="M589.75.71l.22.26a1.09 1.08-66.2 01.28.73v587.84a.71.71 0 01-.71.71q-292.21 0-584.54-.12-2.49 0-5-.19V.94Q294.13.97 588.25.85q.75 0 1.5-.14zm-4.25 4.81a.26.26 0 00-.26-.26H5.5a.26.26 0 00-.26.26v579.72a.26.26 0 00.26.26h579.74a.26.26 0 00.26-.26V5.52z"/><path fill="#fbfddf" d="M585.5 585.24a.26.26 0 01-.26.26H5.5a.26.26 0 01-.26-.26V5.52a.26.26 0 01.26-.26h579.74a.26.26 0 01.26.26v579.72zM36.59 37.12q-3.56 5.55-3.42 11.38.47 20.52.9 41.04c.01.53-.23 2.53-.03 2.84a1.37 1.36 51.9 002.12.26q20.36-19.93 39.6-40.77c6.76-7.34 14.2-14.66 21.29-22.18q1.72-1.83-.78-2.1c-11.58-1.22-24.5.23-36.2.43-9.32.16-17.88.37-23.48 9.1zM261.5 191.04c4.81-5.12 8.74-8.7 15.54-9.54q1.69.12 2.76-.28a1.77 1.77 0 012.22.94l4.76 10.55a.34.33-18.6 01-.24.47c-4.9 1.02-12.88 2.64-14.38 7.13q-.16.47-.52.82c-7.09 6.84-11.15 12.05-14.01 21.12a.89.89 0 01-.64.6q-9.09 2.27-18.1 4.74-3.76 1.03-7.18 3.04c-12.35 7.24-26.77 14.53-36.88 23.23q-11.72 10.08-20.18 23.24-.37.57-.17.72a.89.89 0 001.26-.19q5.74-8.01 11.69-13.96c5.01-5 12.55-10.91 18.8-14.1 16.36-8.35 29.29-15.09 45.78-18.58 2.93-.62 6.7-.79 10.05-1.55a1.69 1.69 0 00.84-.47c3.58-3.7 4.97-9.52 6.61-12.43q1.62-2.86 5.57-6.77a.67.67 0 01.91-.03l5.63 5.01a.52.52 0 01-.16.87c-4.26 1.59-10.01 2.76-7.46 9.03q2.28 5.61 5.57 10.85a.43.43 0 01-.19.62c-7.2 3.27 1.83 18.13 4.74 21.57a.49.48 50.3 01-.06.69q-6.81 5.64-4.13 13.93c1.97 6.08 7.97 8.25 9.2 15.52q3.14 18.57-.76 37.89c-4.25 21.04-24.34 32.67-44.63 32.65a1.67 1.64 61.4 01-.92-.28c-3.87-2.57-7.91-5.37-12.38-6.15q-10.02-1.75-18.66 4.34c-3.97 2.79.24 10.42 2.24 13.93q10.29 18.1 26.8 30.48a.45.45 0 01-.27.81q-2.99-.02-5.77.88c-4.23 1.38-6.95-.24-10.59-.98-6.1-1.22-22.87-6.21-19.7 7.47a.94.94 0 01-.22.86q-1.66 1.83-4.53 1.55c-6.52-.63-20.65-1.83-19.09 9.22a.95.93-23.4 01-.36.88l-5.02 3.83a1.66 1.66 0 01-1.02.35c-7.69 0-19.85 3.57-16.76 13.85a1 .99-35.5 01-.15.87l-4.33 5.78a1.69 1.67 9.8 01-.86.6c-6.63 2.03-18.23 9.86-9.93 17.79a.88.87-62.2 01.25.83c-1.47 6.7-6.61 11.68-8.92 19.23-1.18 3.86 1.5 6.79 4.87 8.11a.81.8 9.3 01.51.7c.21 4.01 1.76 9.24.71 13.04-1.88 6.77-2.84 11 4.14 15.15a1.47 1.44 5.4 01.62.73c12.32 30.71 41.4 42.52 73.11 35.55q30.81-6.77 39.96-36.42c6.07-19.68-3.22-38.74-24.29-42.18-11.52-1.88-24.24-1.4-29.43 11.02q-4.22 10.09 2.31 18.36.32.4.22-.1-1.13-5.98 1.01-11.7c3.14-8.4 12.27-9.01 19.9-8.13 13.48 1.56 17.75 9.17 13.52 21.71-5.38 15.96-15.68 26.87-33.09 28.63-14.24 1.44-32.92-13.79-37.7-26.64-7.52-20.23-2.78-45.93 16.5-57.67q13.44-8.19 29.36-12.03c30.83-7.43 68.05-8.9 101.48-17.37q7.8-1.97 15.29-5.04a1.18 1.17 52.7 011.17.16c2.99 2.34 8.28 5.28 12.23 3.76q12.64-4.84 24.45-13.77 3.36-2.53 3.58-6.38a.84.82-10.9 01.48-.7c15.23-7.26 27.31-22.02 36.05-36.79 10.62-17.97 14.56-44.26 10.55-64.77q-3.14-16.04-13.93-32.29a.76.75 45.5 010-.85l1.23-1.8a1.05 1.03 52.4 00.11-.95c-2.28-6-13.73-28.94-22.22-25.57a1.16 1.14 64.9 01-1.43-.53q-6.03-11.14-11.69-22.41c-2.3-4.57-8.57-17.04.48-17.81q2.55-.22 4.57 1.06 5.97 3.82 10.81 5.09c3.53.92 6.01-3.51 7.5-5.85a.35.35 0 01.57-.02c4.33 5.62 9.22 4.85 13.6-.06a.7.7 0 01.79-.18q7.22 2.97 14.38 6.08c2.57 1.12 1.12 3.76 4.19 4.17 2.74.37 4.29.66 6.88 2.29q4.31 2.72 8.7-.65a.81.8-49.9 01.84-.08c5.35 2.59 10.49 3.91 16.15 5.55 5.98 1.73 9.58 3.45 11.87 8.97a1.17 1.17 0 001.48.65c5.72-2.05 10.44-8.52 14.48-12.88 3.61-3.89 5.24-8.23 7.25-12.99a1 .98-49.4 00-.06-.9c-3.65-6.01-12.86 4.54-18.8 2.39q-15.4-5.58-25.58-11.24-1.2-.67-.59-2.49a.85.84-58.2 00-.2-.87q-4.13-4.2-6.93-9.44a1.09 1.07-11.9 00-.88-.56q-2.34-.12-1.86-2.55a1.58 1.5-52.5 00-.09-.86q-1.1-2.56-3.66-1.44a.5.5 0 01-.68-.31l-.39-1.39a1.55 1.52 9.8 00-.59-.82c-4.49-3.1-7.54-9.17-9.34-14.42a1.72 1.72 0 01.52-1.87c4.49-3.79 1.97-9.75-.35-15.02a1.66 1.61-53.8 01-.13-.95c1.83-12.56-9-15.06-9.37-25.94-.14-4.01 1.92-8.89 2.28-12.52.53-5.19-4.15-6.46-7.76-8.2-4.51-2.17-7.97-6.4-10.79-10.42q-.59-.84-1.48-.76a.42.42 0 00-.35.56c1.39 3.71 7.05 10.54 10.59 12.37 3.01 1.56 6.1 1.89 7.45 5.74a1.55 1.48-47.4 01.02.96q-1.92 6.41-2.83 13.02c-1.52 10.94 10.45 13.67 8.8 21.07q-1.23 5.45 1.59 10.25c.85 1.46.84 3.04-.2 4.27a.81.79-53.8 01-1.03.17l-2.44-1.51a1.01 1-73 01-.48-.91c.28-5.59.91-10.17-.98-15.62-1.66-4.8-6.33-6.81-7.85-11.53-1.93-6.02-2.76-20.27-10.22-22.06-5.06-1.22-10.11-1.91-14.64-4.4q-6.85-3.76-13.06-8.47a.74.74 0 00-1.1.92c2.84 5.64 17.66 13.96 23.85 14.66 4.52.5 6.93 2.38 7.67 6.92q.88 5.46 2.16 10.81c1.46 6.08 4.61 9.19 9.31 12.97 2.64 2.13.76 12.92-.01 16.04a1.32 1.31-77.8 01-1.51.98c-5.67-1.05-13.32-3.32-17.22-7.94q-5.27-6.25-8.94-8.67-2.75-1.81-4.49-3.53c-4.83-4.77-3.73-13.41-8.48-18.57q-5.35-5.81-14.08-4.83a1.23 1.21 61 01-.88-.26c-5.32-4.32-8.97-10.06-16.99-7.75-.63.18-1.03.67-.81 1.32a.65.64-13.1 00.7.43c7.82-.93 11.37 3.24 16.13 8.96a1.57 1.56-12.1 00.81.52c3.59.98 11.75 1.97 13.05 5.76.47 1.38 3.12 7.31 1.5 8.2a1.64 1.64 0 01-2.17-.53q-2.67-4.06-4.86-7.13c-3.67-5.16-11.17-2.53-16.07-5.31-1.1-.62-6.05-5.74-6.07-5.73a.6.59-21.2 00-.32.72c4.38 14.22 18.28 4.08 20.56 16.28a.84.84 0 01-1.03.97c-1.83-.45-9.57-2.66-10.86-.94-1.48 1.95 1.68 6.69 3.04 8.18q.33.36-.16.39c-5.03.31-9.48-.47-11.37 5.47a.49.48-71.9 01-.62.32c-2.16-.7-3.78-1.69-6-2.23-27.18-6.49-34.28-37.84-62.61-35.7q-18.98 1.43-39.63 5.77a.87.86-21.1 00-.57 1.28l.48.83a.76.76 0 00.88.34c5.73-1.81 11.53-2.15 17.31-2.93 15.35-2.06 34.32-1.31 45.65 10.94q14.05 15.19 28.48 24.51.47.31-.09.31l-3.87.01a1.34 1.34 0 00-1.24 1.82l1.18 3.05a.53.53 0 01-.39.71c-5.35 1.06-10.17 3.41-15.48 4.16a1.21 1.19 59.1 01-.89-.23q-10.27-7.74-21.64-2.88c-13.97 5.98-25 8.7-38.91 5.07q-2.94-.76-12.01-4.83-10.18-4.57-21.05-7.12c-9.48-2.22-14.92-1.62-22.44 3.94q-9.66 7.14-14.77 15.13a.36.36 0 00.24.55q.92.18 1.54-.69c5.29-7.33 14.66-15.78 23.6-16.85 13.28-1.6 28.6 8.06 41.47 13.24 10.79 4.35 24.68 4.06 35.38-.45 6.83-2.88 13.01-6.81 20.89-3.89a.34.34 0 01.14.54c-5.33 6.15-2.92 12.11-1.18 19.03a.79.79 0 01-.8.98c-6.72-.31-14.33-2.87-18.21 4.53a.95.94-79.6 01-.72.5c-10.25 1.35-18.75 3.83-24.75 12.65a.72.72 0 01-.77.3q-4.77-1.16-14.85-4.4c-28.26-9.09-54.42 8.43-71.84 30.05a.67.67 0 00-.01.83c.64.85 1.51.38 2.08-.33 10.38-12.96 29.2-27.79 46.3-29.05 10.83-.81 19.81 1.53 29.54 6.82 5.61 3.05 9.67 4.35 15.01 1.09zM37.52 143.82a1.16.28 88.5 00.25-1.167 1.16.28 88.5 00-.31-1.153 1.16.28 88.5 00-.25 1.167 1.16.28 88.5 00.31 1.153zm13.752 213.448a1.55.95-26.1 00-1.81-.171 1.55.95-26.1 00-.974 1.535 1.55.95-26.1 001.81.171 1.55.95-26.1 00.974-1.535z"/><path fill="#fae5ab" d="M36.59 37.12c5.6-8.73 14.16-8.94 23.48-9.1 11.7-.2 24.62-1.65 36.2-.43q2.5.27.78 2.1c-7.09 7.52-14.53 14.84-21.29 22.18q-19.24 20.84-39.6 40.77a1.37 1.36 51.9 01-2.12-.26c-.2-.31.04-2.31.03-2.84q-.43-20.52-.9-41.04-.14-5.83 3.42-11.38z"/><path fill="#21201f" d="M277.04 181.5q-.16-1.17-1.32-.98-9.06 1.47-14.66 9.02-.67.91.44 1.5c-5.34 3.26-9.4 1.96-15.01-1.09-9.73-5.29-18.71-7.63-29.54-6.82-17.1 1.26-35.92 16.09-46.3 29.05-.57.71-1.44 1.18-2.08.33a.67.67 0 01.01-.83c17.42-21.62 43.58-39.14 71.84-30.05q10.08 3.24 14.85 4.4a.72.72 0 00.77-.3c6-8.82 14.5-11.3 24.75-12.65a.95.94-79.6 00.72-.5c3.88-7.4 11.49-4.84 18.21-4.53a.79.79 0 00.8-.98c-1.74-6.92-4.15-12.88 1.18-19.03a.34.34 0 00-.14-.54c-7.88-2.92-14.06 1.01-20.89 3.89-10.7 4.51-24.59 4.8-35.38.45-12.87-5.18-28.19-14.84-41.47-13.24-8.94 1.07-18.31 9.52-23.6 16.85q-.62.87-1.54.69a.36.36 0 01-.24-.55q5.11-7.99 14.77-15.13c7.52-5.56 12.96-6.16 22.44-3.94q10.87 2.55 21.05 7.12 9.07 4.07 12.01 4.83c13.91 3.63 24.94.91 38.91-5.07q11.37-4.86 21.64 2.88a1.21 1.19 59.1 00.89.23c5.31-.75 10.13-3.1 15.48-4.16a.53.53 0 00.39-.71l-1.18-3.05a1.34 1.34 0 011.24-1.82l3.87-.01q.56 0 .09-.31-14.43-9.32-28.48-24.51c-11.33-12.25-30.3-13-45.65-10.94-5.78.78-11.58 1.12-17.31 2.93a.76.76 0 01-.88-.34l-.48-.83a.87.86-21.1 01.57-1.28q20.65-4.34 39.63-5.77c28.33-2.14 35.43 29.21 62.61 35.7 2.22.54 3.84 1.53 6 2.23a.49.48-71.9 00.62-.32c1.89-5.94 6.34-5.16 11.37-5.47q.49-.03.16-.39c-1.36-1.49-4.52-6.23-3.04-8.18 1.29-1.72 9.03.49 10.86.94a.84.84 0 001.03-.97c-2.28-12.2-16.18-2.06-20.56-16.28a.6.59-21.2 01.32-.72c.02-.01 4.97 5.11 6.07 5.73 4.9 2.78 12.4.15 16.07 5.31q2.19 3.07 4.86 7.13a1.64 1.64 0 002.17.53c1.62-.89-1.03-6.82-1.5-8.2-1.3-3.79-9.46-4.78-13.05-5.76a1.57 1.56-12.1 01-.81-.52c-4.76-5.72-8.31-9.89-16.13-8.96a.65.64-13.1 01-.7-.43c-.22-.65.18-1.14.81-1.32 8.02-2.31 11.67 3.43 16.99 7.75a1.23 1.21 61 00.88.26q8.73-.98 14.08 4.83c4.75 5.16 3.65 13.8 8.48 18.57q1.74 1.72 4.49 3.53 3.67 2.42 8.94 8.67c3.9 4.62 11.55 6.89 17.22 7.94a1.32 1.31-77.8 001.51-.98c.77-3.12 2.65-13.91.01-16.04-4.7-3.78-7.85-6.89-9.31-12.97q-1.28-5.35-2.16-10.81c-.74-4.54-3.15-6.42-7.67-6.92-6.19-.7-21.01-9.02-23.85-14.66a.74.74 0 011.1-.92q6.21 4.71 13.06 8.47c4.53 2.49 9.58 3.18 14.64 4.4 7.46 1.79 8.29 16.04 10.22 22.06 1.52 4.72 6.19 6.73 7.85 11.53 1.89 5.45 1.26 10.03.98 15.62a1.01 1-73 00.48.91l2.44 1.51a.81.79-53.8 001.03-.17c1.04-1.23 1.05-2.81.2-4.27q-2.82-4.8-1.59-10.25c1.65-7.4-10.32-10.13-8.8-21.07q.91-6.61 2.83-13.02a1.55 1.48-47.4 00-.02-.96c-1.35-3.85-4.44-4.18-7.45-5.74-3.54-1.83-9.2-8.66-10.59-12.37a.42.42 0 01.35-.56q.89-.08 1.48.76c2.82 4.02 6.28 8.25 10.79 10.42 3.61 1.74 8.29 3.01 7.76 8.2-.36 3.63-2.42 8.51-2.28 12.52.37 10.88 11.2 13.38 9.37 25.94a1.66 1.61-53.8 00.13.95c2.32 5.27 4.84 11.23.35 15.02a1.72 1.72 0 00-.52 1.87c1.8 5.25 4.85 11.32 9.34 14.42a1.55 1.52 9.8 01.59.82l.39 1.39a.5.5 0 00.68.31q2.56-1.12 3.66 1.44a1.58 1.5-52.5 01.09.86q-.48 2.43 1.86 2.55a1.09 1.07-11.9 01.88.56q2.8 5.24 6.93 9.44a.85.84-58.2 01.2.87q-.61 1.82.59 2.49 10.18 5.66 25.58 11.24c5.94 2.15 15.15-8.4 18.8-2.39a1 .98-49.4 01.06.9c-2.01 4.76-3.64 9.1-7.25 12.99-4.04 4.36-8.76 10.83-14.48 12.88a1.17 1.17 0 01-1.48-.65c-2.29-5.52-5.89-7.24-11.87-8.97-5.66-1.64-10.8-2.96-16.15-5.55a.81.8-49.9 00-.84.08q-4.39 3.37-8.7.65c-2.59-1.63-4.14-1.92-6.88-2.29-3.07-.41-1.62-3.05-4.19-4.17q-7.16-3.11-14.38-6.08a.7.7 0 00-.79.18c-4.38 4.91-9.27 5.68-13.6.06a.35.35 0 00-.57.02c-1.49 2.34-3.97 6.77-7.5 5.85q-4.84-1.27-10.81-5.09-2.02-1.28-4.57-1.06c-9.05.77-2.78 13.24-.48 17.81q5.66 11.27 11.69 22.41a1.16 1.14 64.9 001.43.53c8.49-3.37 19.94 19.57 22.22 25.57a1.05 1.03 52.4 01-.11.95l-1.23 1.8a.76.75 45.5 000 .85q10.79 16.25 13.93 32.29c4.01 20.51.07 46.8-10.55 64.77-8.74 14.77-20.82 29.53-36.05 36.79a.84.82-10.9 00-.48.7q-.22 3.85-3.58 6.38-11.81 8.93-24.45 13.77c-3.95 1.52-9.24-1.42-12.23-3.76a1.18 1.17 52.7 00-1.17-.16q-7.49 3.07-15.29 5.04c-33.43 8.47-70.65 9.94-101.48 17.37q-15.92 3.84-29.36 12.03c-19.28 11.74-24.02 37.44-16.5 57.67 4.78 12.85 23.46 28.08 37.7 26.64 17.41-1.76 27.71-12.67 33.09-28.63 4.23-12.54-.04-20.15-13.52-21.71-7.63-.88-16.76-.27-19.9 8.13q-2.14 5.72-1.01 11.7.1.5-.22.1-6.53-8.27-2.31-18.36c5.19-12.42 17.91-12.9 29.43-11.02 21.07 3.44 30.36 22.5 24.29 42.18q-9.15 29.65-39.96 36.42c-31.71 6.97-60.79-4.84-73.11-35.55a1.47 1.44 5.4 00-.62-.73c-6.98-4.15-6.02-8.38-4.14-15.15 1.05-3.8-.5-9.03-.71-13.04a.81.8 9.3 00-.51-.7c-3.37-1.32-6.05-4.25-4.87-8.11 2.31-7.55 7.45-12.53 8.92-19.23a.88.87-62.2 00-.25-.83c-8.3-7.93 3.3-15.76 9.93-17.79a1.69 1.67 9.8 00.86-.6l4.33-5.78a1 .99-35.5 00.15-.87c-3.09-10.28 9.07-13.85 16.76-13.85a1.66 1.66 0 001.02-.35l5.02-3.83a.95.93-23.4 00.36-.88c-1.56-11.05 12.57-9.85 19.09-9.22q2.87.28 4.53-1.55a.94.94 0 00.22-.86c-3.17-13.68 13.6-8.69 19.7-7.47 3.64.74 6.36 2.36 10.59.98q2.78-.9 5.77-.88a.45.45 0 00.27-.81q-16.51-12.38-26.8-30.48c-2-3.51-6.21-11.14-2.24-13.93q8.64-6.09 18.66-4.34c4.47.78 8.51 3.58 12.38 6.15a1.67 1.64 61.4 00.92.28c20.29.02 40.38-11.61 44.63-32.65q3.9-19.32.76-37.89c-1.23-7.27-7.23-9.44-9.2-15.52q-2.68-8.29 4.13-13.93a.49.48 50.3 00.06-.69c-2.91-3.44-11.94-18.3-4.74-21.57a.43.43 0 00.19-.62q-3.29-5.24-5.57-10.85c-2.55-6.27 3.2-7.44 7.46-9.03a.52.52 0 00.16-.87l-5.63-5.01a.67.67 0 00-.91.03q-3.95 3.91-5.57 6.77c-1.64 2.91-3.03 8.73-6.61 12.43a1.69 1.69 0 01-.84.47c-3.35.76-7.12.93-10.05 1.55-16.49 3.49-29.42 10.23-45.78 18.58-6.25 3.19-13.79 9.1-18.8 14.1q-5.95 5.95-11.69 13.96a.89.89 0 01-1.26.19q-.2-.15.17-.72 8.46-13.16 20.18-23.24c10.11-8.7 24.53-15.99 36.88-23.23q3.42-2.01 7.18-3.04 9.01-2.47 18.1-4.74a.89.89 0 00.64-.6c2.86-9.07 6.92-14.28 14.01-21.12q.36-.35.52-.82c1.5-4.49 9.48-6.11 14.38-7.13a.34.33-18.6 00.24-.47l-4.76-10.55a1.77 1.77 0 00-2.22-.94q-1.07.4-2.76.28zm97.62-8.64l4.52 2.38a.49.48-60.3 00.64-.18c6.29-10.34 8.71-22.29 14-33.22a.67.67 0 00-.18-.82l-3.66-2.95q-.08-1.23-.91-1.78a1.35 1.35 0 00-1.93.45c-6.58 11.6-11.92 21.62-14.52 34.7a1.1 1.1 0 00.96 1.31l1.08.11zM323.04 157c10.4 9.98 27.77 21.51 40.45 23.96a.79.78-65.9 00.79-.31q4.12-5.5-1.7-8.49-19.49-10-33.29-21.53l-4.31-3.71a.61.6 55.1 00-.6-.11l-6.59 2.4a1.11 1.1-31.7 00-.43 1.79l5.68 6zm97.12 7.96a10.17 10.17 0 00-10.17-10.17 10.17 10.17 0 00-10.17 10.17 10.17 10.17 0 0010.17 10.17 10.17 10.17 0 0010.17-10.17zm-51.13 3.83c-2.53-1.02-1.64 2.54-.59 3.48q.65.57.78-.29l.34-2.27a.87.85 15.7 00-.53-.92zm12.97 17.5c13.19 6.38 27.02 9.82 41.72 9.57a.61.61 0 00.6-.5c.97-5.07-2.56-5.41-6.88-6.64q-12.96-3.68-25.87-7.21l-9.54-2.71a.7.7 0 00-.86.46l-1.69 5.34a.67.66-70.1 00.38.82l2.14.87zm53.21-3.94c-4.61-2.29-9.67-.98-12.8 3.07a.5.5 0 00.14.73l1.54.91a.64.64 0 00.85-.2c2.15-3.23 5.87-2.68 9.21-2.38.9.08 1.6-.46 1.55-1.37a.9.89 12.6 00-.49-.76zm2.5 3.01q-2.2 4.12.91 7.8a.39.39 0 00.61-.02l1.06-1.39 7.36-4.01a.44.44 0 00.08-.72q-2.67-2.35-4.28-5.51-.42-.82-.47.09l-.03.46a.68.67 77 01-.34.55l-4.9 2.75zm-75.44-1.52a.57.57 0 00-.68-.51l-2.12.41a.55.55 0 00-.37.83c.84 1.38 3.42 1.98 3.17-.73zm-69.77 47.37l-11.93 9.36a.81.81 0 00-.25.95l4.58 10.6a.52.52 0 00.84.17l11.8-11.04c19.66-16.56 44.11-27.07 64.22-40.91 5.32-3.66 9.51-6.17 12.25-11.31a.5.5 0 00-.39-.73q-3.2-.29-5.97-1.94a1.14 1.13-35.3 00-.84-.14q-3.83.88-6.03 2.56c-15.22 11.71-29.07 18.29-44.56 26.45q-12.74 6.71-23.72 15.98zm85.92-39.6c.58-.8 2.69-3.76-.06-3.61a.64.64 0 00-.61.64l-.01 2.75q0 1.16.68.22zm56.63 16.28l4.6 2.85a1.05 1.04 1.5 001.47-1.39q-2.9-5.26-4.69-11.02a.82.82 0 00-.87-.57l-5.89.6a.63.63 0 00-.57.69l.77 7.62a.63.62 89.9 00.56.57l4.02.45q.32.03.6.2zm-81.8 68.9c.08.33.25.92.49 1.18q6.12 6.61 8.74 15.2a.52.51-19.6 00.69.32c13.39-5.76 29.23-16.01 37.11-28.56a.83.82 45.9 00.01-.85c-1.74-3.02-8.37-14.99-11.25-15.83q-.04-.45-.41-.77a.53.52-48.8 00-.75.05q-4.85 5.56-10.27 10.57c-7.6 7.02-17.02 11.36-26.39 15.5a.48.48 0 00-.23.66q.82 1.55 2.26 2.53zM241.5 392.04c12.34 11.32 32.28 14.45 48.26 13.04q46.46-4.12 65.52-43.43c11.27-23.24 8.7-53.59-4.19-75.48q-7.27-12.33-21.05-18.42-13.17-6.15-27.3-6.96c-4.55-.26-13.8 1.41-16.17 4.79-2.62 3.73 1.6 7.45 3.98 10.02 3.06 3.32 4.86 6.99 5.43 11.16q1.61 11.83.94 26.06c-1.32 27.89-13.96 43.82-40.42 51.45q-9.1 2.62-17.58-.17c-8.24-2.71-12.33-9.4-21.45-3a.59.59 0 00-.19.74c5.59 11.27 13.85 22.91 24.22 30.2zm84 11.17c3.72 6.1 10.74 11.41 17.2 14.21a1.48 1.44 44.7 001.17.01q10.63-4.43 20.28-10.73a.53.53 0 00.05-.85q-9.61-8.3-17.4-18.34a.46.45-39.1 00-.66-.06q-2.9 2.48-5.71 5.06c-4.5 4.13-9.66 6.82-14.76 10a.52.51-31.6 00-.17.7z"/><path fill="#fff" d="M389.98 138.07q-10.83 15.98-15.32 34.79l-1.08-.11a1.1 1.1 0 01-.96-1.31c2.6-13.08 7.94-23.1 14.52-34.7a1.35 1.35 0 011.93-.45q.83.55.91 1.78z"/><path fill="#989c9e" d="M389.98 138.07l3.66 2.95a.67.67 0 01.18.82c-5.29 10.93-7.71 22.88-14 33.22a.49.48-60.3 01-.64.18l-4.52-2.38q4.49-18.81 15.32-34.79z"/><ellipse fill="#989c9e" transform="rotate(88.5 -54.477 90.572)" rx="1.16" ry=".28"/><path fill="#fff" d="M329.29 150.63q-4.23 2.22-6.25 6.37l-5.68-6a1.11 1.1-31.7 01.43-1.79l6.59-2.4a.61.6 55.1 01.6.11l4.31 3.71z"/><path fill="#989c9e" d="M329.29 150.63q13.8 11.53 33.29 21.53 5.82 2.99 1.7 8.49a.79.78-65.9 01-.79.31c-12.68-2.45-30.05-13.98-40.45-23.96q2.02-4.15 6.25-6.37z"/><path fill="#fff" d="M420.16 164.96a10.17 10.17 0 01-10.17 10.17 10.17 10.17 0 01-10.17-10.17 10.17 10.17 0 0110.17-10.17 10.17 10.17 0 0110.17 10.17zm-8.66-3.57c1.03 2.47-1.32 3.45-3.19 3.81a.84.84 0 01-.91-.46l-.98-2.04a.72.71 77.9 00-.63-.41c-1.87-.03-1.29 3.93-.87 4.78 1.93 3.86 6.75 4.88 9.58 1.36 2.73-3.4.25-10.65-4.97-9.24q-1.23.33-.08.89l1.48.71a1.15 1.15 0 01.57.6z"/><path fill="#21201f" d="M410.93 160.79l-1.48-.71q-1.15-.56.08-.89c5.22-1.41 7.7 5.84 4.97 9.24-2.83 3.52-7.65 2.5-9.58-1.36-.42-.85-1-4.81.87-4.78a.72.71 77.9 01.63.41l.98 2.04a.84.84 0 00.91.46c1.87-.36 4.22-1.34 3.19-3.81a1.15 1.15 0 00-.57-.6z"/><path fill="#fff" d="M368.44 172.27c-1.05-.94-1.94-4.5.59-3.48a.87.85 15.7 01.53.92l-.34 2.27q-.13.86-.78.29zM391.57 181.51q-3.8 1.41-7.18-.85a.34.34 0 00-.52.17l-1.87 5.46-2.14-.87a.67.66-70.1 01-.38-.82l1.69-5.34a.7.7 0 01.86-.46l9.54 2.71z"/><path d="M277.04 181.5c-6.8.84-10.73 4.42-15.54 9.54q-1.11-.59-.44-1.5 5.6-7.55 14.66-9.02 1.16-.19 1.32.98z"/><path fill="#989c9e" d="M391.57 181.51q12.91 3.53 25.87 7.21c4.32 1.23 7.85 1.57 6.88 6.64a.61.61 0 01-.6.5c-14.7.25-28.53-3.19-41.72-9.57l1.87-5.46a.34.34 0 01.52-.17q3.38 2.26 7.18.85zM422.41 185.42c3.13-4.05 8.19-5.36 12.8-3.07a.9.89 12.6 01.49.76c.05.91-.65 1.45-1.55 1.37-3.34-.3-7.06-.85-9.21 2.38a.64.64 0 01-.85.2l-1.54-.91a.5.5 0 01-.14-.73zM440.29 191.75l-2.58-6.39 4.9-2.75a.68.67 77 00.34-.55l.03-.46q.05-.91.47-.09 1.61 3.16 4.28 5.51a.44.44 0 01-.08.72l-7.36 4.01zM362.27 183.84c.25 2.71-2.33 2.11-3.17.73a.55.55 0 01.37-.83l2.12-.41a.57.57 0 01.68.51z"/><path fill="#fff" d="M437.71 185.36l2.58 6.39-1.06 1.39a.39.39 0 01-.61.02q-3.11-3.68-.91-7.8z"/><path fill="#989c9e" d="M297.54 241.25l-4.46-9.81a.35.34 81 00-.28-.21l-.3-.02q10.98-9.27 23.72-15.98c15.49-8.16 29.34-14.74 44.56-26.45q2.2-1.68 6.03-2.56a1.14 1.13-35.3 01.84.14q2.77 1.65 5.97 1.94a.5.5 0 01.39.73c-2.74 5.14-6.93 7.65-12.25 11.31-20.11 13.84-44.56 24.35-64.22 40.91zM378.42 191.61q-.68.94-.68-.22l.01-2.75a.64.64 0 01.61-.64c2.75-.15.64 2.81.06 3.61zM434.45 207.69l-4.02-.45a.63.62 89.9 01-.56-.57l-.77-7.62a.63.63 0 01.57-.69l5.89-.6a.82.82 0 01.87.57q1.79 5.76 4.69 11.02a1.05 1.04 1.5 01-1.47 1.39l-4.6-2.85q-.28-.17-.6-.2z"/><path fill="#fff" d="M292.5 231.21l.3.02a.35.34 81 01.28.21l4.46 9.81-11.8 11.04a.52.52 0 01-.84-.17l-4.58-10.6a.81.81 0 01.25-.95l11.93-9.36zM389.04 248.25c-5.26 11.32-20.86 21.85-31.75 27.27q-1.91.95-4.04 1.27-1.44-.98-2.26-2.53a.48.48 0 01.23-.66c9.37-4.14 18.79-8.48 26.39-15.5q5.42-5.01 10.27-10.57a.53.52-48.8 01.75-.05q.37.32.41.77z"/><path fill="#989c9e" d="M389.04 248.25c2.88.84 9.51 12.81 11.25 15.83a.83.82 45.9 01-.01.85c-7.88 12.55-23.72 22.8-37.11 28.56a.52.51-19.6 01-.69-.32q-2.62-8.59-8.74-15.2c-.24-.26-.41-.85-.49-1.18q2.13-.32 4.04-1.27c10.89-5.42 26.49-15.95 31.75-27.27z"/><path fill="#fff" d="M330.04 267.75q.07.39-.11.66a.62.61-61.3 01-.78.23q-10.57-4.87-22.1-6.52c-5.21-.75-6.7 6.77-6.3 10.34-1.13.09-4.76-.03-5.14 1.17a.44.43-78.2 00.37.57q4.66.43 9.02 2.09.06 6.2 3.58 12.41c4.06 7.16 7.63 16.31 8.32 24.52 2.66 31.67-21.92 57.41-51.42 65.28q-3.34.89-6.73 1.79-8.36-4.49-15.28-11.19a.39.39 0 00-.59.5c8.48 12.47 16.88 21.19 31.37 25.69q.05.24 0 .44a.52.51 14 01-.64.38q-12.5-3.49-21.23-12.74-2.65-2.81-4.66-3.66c-3.04-1.29-7.43-1.96-10.4-.08a1.09 1.08-12.5 00-.49.76c-.22 1.44-.01 8.03 1.65 8.66q2.21.85 3.31 1.98a.63.62 40.1 01.07.77q-.12.18-.36.24c-10.37-7.29-18.63-18.93-24.22-30.2a.59.59 0 01.19-.74c9.12-6.4 13.21.29 21.45 3q8.48 2.79 17.58.17c26.46-7.63 39.1-23.56 40.42-51.45q.67-14.23-.94-26.06c-.57-4.17-2.37-7.84-5.43-11.16-2.38-2.57-6.6-6.29-3.98-10.02 2.37-3.38 11.62-5.05 16.17-4.79q14.13.81 27.3 6.96z"/><path fill="#989c9e" d="M330.04 267.75q13.78 6.09 21.05 18.42c12.89 21.89 15.46 52.24 4.19 75.48q-19.06 39.31-65.52 43.43c-15.98 1.41-35.92-1.72-48.26-13.04q.24-.06.36-.24a.63.62 40.1 00-.07-.77q-1.1-1.13-3.31-1.98c-1.66-.63-1.87-7.22-1.65-8.66a1.09 1.08-12.5 01.49-.76c2.97-1.88 7.36-1.21 10.4.08q2.01.85 4.66 3.66 8.73 9.25 21.23 12.74a.52.51 14 00.64-.38q.05-.2 0-.44 36.11 8.63 60.28-16.23c5.51-5.67 9.26-12.43 12.52-19.65 9.73-21.61 7.8-45.97-5.4-65.26-9.76-14.25-23.53-21.85-40.9-21.69-.4-3.57 1.09-11.09 6.3-10.34q11.53 1.65 22.1 6.52a.62.61-61.3 00.78-.23q.18-.27.11-.66z"/><path fill="#21201f" d="M300.75 272.46c17.37-.16 31.14 7.44 40.9 21.69 13.2 19.29 15.13 43.65 5.4 65.26-3.26 7.22-7.01 13.98-12.52 19.65q-24.17 24.86-60.28 16.23c-14.49-4.5-22.89-13.22-31.37-25.69a.39.39 0 01.59-.5q6.92 6.7 15.28 11.19c23.87 15.98 55.05 13.77 73.38-9.39 16.85-21.28 19.06-50.64 3.77-73.27-7.24-10.72-18.72-17.52-30.9-21.34q-4.36-1.66-9.02-2.09a.44.43-78.2 01-.37-.57c.38-1.2 4.01-1.08 5.14-1.17z"/><path fill="#989c9e" d="M305 276.29c12.18 3.82 23.66 10.62 30.9 21.34 15.29 22.63 13.08 51.99-3.77 73.27-18.33 23.16-49.51 25.37-73.38 9.39q3.39-.9 6.73-1.79c29.5-7.87 54.08-33.61 51.42-65.28-.69-8.21-4.26-17.36-8.32-24.52q-3.52-6.21-3.58-12.41z"/><ellipse fill="#989c9e" transform="rotate(-26.1 797.091 71.376)" rx="1.55" ry=".95"/><path fill="#989c9e" d="M342.7 417.42c-6.46-2.8-13.48-8.11-17.2-14.21a.52.51-31.6 01.17-.7c5.1-3.18 10.26-5.87 14.76-10q2.81-2.58 5.71-5.06a.46.45-39.1 01.66.06q7.79 10.04 17.4 18.34a.53.53 0 01-.05.85q-9.65 6.3-20.28 10.73a1.48 1.44 44.7 01-1.17-.01z"/></svg>