<svg xmlns="http://www.w3.org/2000/svg" viewBox="0 0 591 591"><g stroke-width="2" fill="none"><path stroke="#100f0f" vector-effect="non-scaling-stroke" d="M590.06 0l.19.29"/><path stroke="#7f7e6f" vector-effect="non-scaling-stroke" d="M590.25.29l.04 589.46"/><path stroke="gray" vector-effect="non-scaling-stroke" d="M590.29 589.75l-.54.54"/><path stroke="#7f7e6f" vector-effect="non-scaling-stroke" d="M589.75 590.29q-291.97-.05-583.94-.17-2.78 0-5.56-.08"/><path stroke="#100f0f" vector-effect="non-scaling-stroke" d="M.25 590.04l-.25-.1"/><path stroke="#7f7e6f" vector-effect="non-scaling-stroke" d="M586.25 4.51a.26.26 0 00-.26-.26H4.51a.26.26 0 00-.26.26v581.48a.26.26 0 00.26.26h581.48a.26.26 0 00.26-.26V4.51"/><path stroke="#8e8d7e" vector-effect="non-scaling-stroke" d="M591 587.31c-.84-.45-.25-537.06-.25-586.81a.25.24-86.1 00-.21-.25q-.17-.02-.29.04"/><path stroke="#fefeef" vector-effect="non-scaling-stroke" d="M591 590.06l-.71-.31"/><path stroke="#fcefc4" vector-effect="non-scaling-stroke" d="M56.32 33.42c-18.87-2.77-28.13 7.01-28.09 25.33q.05 19.37 0 38.82a.68.67 70.7 001.1.53q4.81-3.92 9.47-8.55 27.32-27.18 53.68-54.31a1.35 1.35 0 00-1.02-2.29q-14.98.61-29.56.08c-1.77-.06-3.57.69-5.58.39"/><path stroke="#c7c8b9" vector-effect="non-scaling-stroke" d="M121.64 425.62q3.39 1.72 7.18.91"/><path stroke="#8e8d7e" vector-effect="non-scaling-stroke" d="M128.82 426.53l4.86 1.04a.88.87-2.2 01.65.59l10.13 32.52a1.54 1.54 0 01-.03 1.01l-5.76 15.51a1.54 1.54 0 00-.03 1.01c5.52 17.75 12.35 34.91 17.87 52.65.82 2.63 2.48 4.16 5.26 3.44q8.72-2.28 29.01-8.46 2.53-.78 4.69-2.51a.72.71-28.2 00.24-.78c-5.35-17.74-12.35-35.14-18.16-52.78-1.8-5.47-11.13-8.63-17.66-12.43a1.45 1.39-84.8 01-.64-.8l-8.51-27.06a.38.38 0 01.41-.49l14.58 1.81a.64.64 0 01.57.59c.19 2.17-.14 8.1 2.42 8.88q2.27.7 3.47 1.36a.87.85-78.3 01.44.68l.48 4.79a.98.97-86.2 00.74.85l11.47 2.75a1.03 1.02 80.9 01.62.45q3.2 5.01 6.42 10.02c4.61 7.16-1.74 11.39 1.47 18.16q8.43 17.81 17.82 35.27a1.01 1-29.2 001.39.39l21.18-12.31a.49.49 0 00.15-.71c-8.55-12.05-16.03-24.79-24.4-37.02a1.74 1.66 82.8 00-.75-.61q-3.22-1.37-6.73-1.74c-2.99-.31-6.49-6.24-7.88-8.58a.73.73 0 01.73-1.1q45.26 6.15 89.92 11.78 4.45.56 7.96-1.51a1.08 1.04-13.3 00.52-.81l1.27-12.11a1.18 1.17-85.9 011.22-1.06l30.25 1.24q.81.04.36.71c-4.59 6.79-8.59 14.15-13.48 21a1.55 1.53 8.1 01-.77.57c-4.42 1.49-19.41 6.13-21.88 9.47-10.54 14.23-18.21 29.75-28.52 43.76q-1.52 2.07-2 3.77a2.44 2.43-59.4 00.61 2.38q17.44 17.65 34.87 35.23c2.63 2.65 4.81 2.17 6.72-.98q13.64-22.52 27.01-45.19c3.05-5.16 5.65-8.52 4.99-14.85q-1.24-11.85-2.55-23.68-.06-.49.09-.96.1-.36.12-.73.01-.49.27-.92l14.74-24.35a.61.61 0 01.95-.12c3.24 3.2 10.22 2.03 13.92.55 5.44-2.18 10.7 1.29 15.75-2.56a.29.29 0 01.46.19q1.45 10.84 3.57 21.57.2 1.02-.02 2.82a1.01 1 78.6 01-.49.75c-4.01 2.31-9.63 6.86-8.85 12.1q2.48 16.66 4.6 33.36.59 4.6 5.35 4.84 12.12.62 25.71.15a1.25 1.25 0 001.19-1.46q-3.48-20.46-6.57-41.6c-.62-4.28-6.72-7.69-10.33-9.14a.88.87-82.9 01-.55-.72l-.71-6.08a.49.48-4.3 01.47-.54q5.1-.2 8.17.07 13.46 1.19 26.98 1.69a1.36 1.34 23.5 00.99-.38l1.67-1.59a1.27 1.27 0 01.91-.36q22.5.58 45.02.55c8.36-.01 11.65-3.83 12.15-11.92a.64.63 1.9 01.65-.6l12.58.27a.53.53 0 01.52.52q.26 16.73.63 33.47.08 3.85 4.04 3.91 13.74.19 27.5.01 3.14-.04 6.51-2.9a1.27 1.24-20.9 00.44-.95l-.07-6.48a.65.64 6.1 00-.51-.63c-7.98-1.74-17.16-1.34-26.53-1.22a.45.45 0 01-.45-.45l.06-25.92a1.74 1.72-29.5 01.26-.91c2.09-3.44 4.4-13.07-2.08-13.1q-11.57-.07-22.52-.42a1.1 1.1 0 01-1.07-1.09c-.49-40.17-.37-80.46-3.11-120.43q-1.01-14.66-2.7-20.95c-3.03-11.26-13.44-18.54-24.2-21.42a.5.49 16.9 01-.34-.63q.16-.48.49-.64"/><path stroke="#7f7e6f" vector-effect="non-scaling-stroke" d="M457.5 277.29q16.53-7.8 21.73-24.08c7.04-22.08 3.03-43.75-8.79-63.27-22.69-37.47-66.39-58.47-105.28-78.58-2.25-1.16-4.51-1.88-6.9-2.79a.75.73-81.2 01-.48-.67l-.57-16.65"/><path stroke="#8e8d7e" vector-effect="non-scaling-stroke" d="M357.21 91.25l-.48-14.8a.56.56 0 00-.55-.54l-41.49-.96a.54.54 0 00-.55.49l-2.39 28.11a1.7 1.69-85.1 001.54 1.84q19.36 1.71 38.12-3.1.56-.14.38.41c-.6 1.9-2.27 3.93-2.97 5.34-19.03 38.5-39.26 76.03-58.35 114.84-1.75 3.57-4.73 7.61-6.61 11.97q-1.09 2.52 1.65 2.31c12.62-.97 25.14-1.75 38.88-.27a1.26 1.2-21 01.65.27q.2.17.39.21 15.24 3.19 30.31 7.25a.85.85 0 01.61.62c.65 2.56.06 5.49.19 7.53q.38 6.15.08 12.45a.49.48-87 01-.5.46l-39.86-1.6a1.16 1.16 0 01-.85-.42c-1.86-2.2-3.59-3.62-4.58-6.47q-1.22-3.49-2.78-6.86c-6.31-13.53-24.09 25.52-25.51 28.28a.44.43-52.6 01-.71.1l-6.67-7.47a.84.83 34 01-.17-.83q1.8-5.31 2.97-10.8c.81-3.78 2.47-6.26 4.33-9.47a1.78 1.73-31.2 00.24-.92c-.15-4.83-.28-11.06-6.33-10.21a.9.88 65.9 01-.81-.32c-3.41-4.31-5.09-10-10.9-11.42-7.13-1.73-16.2-1.87-22.41 3.09q-7.44 5.93-4.67 15.2a2.03 1.93-48.2 01.03.98q-1.23 5.06-.42 10.2a1.58 1.56-35.9 01-.16.97c-1.77 3.37-2.27 9.98-6.68 10.01q-17.8.11-35.62-.08-1.57-.02-3-.55a1.66 1.62-5.7 01-.79-.63q-2.44-3.65-6.89-3.49a.77.76 74.2 01-.7-.4q-16.79-30.66-33.87-60.88-.51-.92-1.79-2.48a.69.69 0 00-.79-.2q-14 5.67-21.98 12.73c-2.05 1.82-3.87 6.76-6.83 9.11-3.01 2.38-8.15 1.57-12.03 3.92a.56.55 61.7 00-.21.72q7.28 15.29 16.18 29.71c3.64 5.9 17.35-3.82 19.37-7.85 1.48-2.97 2.24-4.8 5.16-6.77q5.51-3.71 10.4-6.97a1.45 1.44 58.7 012.07.51l15.48 28.63a.39.39 0 01-.18.53l-4.64 2.08a1.31 1.3-.8 00-.67.68l-1.29 2.98a.82.81-78.6 01-.75.5c-21.55.06-51.82 4.85-62.3 26.98q-2.22 4.69-4.13 9.53a1.44 1.4 88 01-.67.74l-1.63.83a1.07 1.07 0 00-.56.67q-1.04 3.62-.02 7.09a1.11 1.1-39.7 01-.08.83l-2.75 5.34a1.14 1.13 49.2 00-.06.89l1.15 3.12a.69.68 64.6 01-.29.83c-6.07 3.71-.52 9.06-4.89 11.98q-.38.25-.6.65-2.13 3.88.03 7.72a.52.52 0 01-.23.73c-4.95 2.31-3.43 5.88-2.41 10.15a.9.9 0 01-.25.84q-4.6 4.46-1.74 10.22a1.35 1.31 38.4 01.11.85c-3.12 15.12-9.2 45.08-.56 53.31 4.45 4.24 14.43 6.05 20.65 7.18a1.83 1.83 0 002.03-1.13c1.44-3.7.26-8.08 1.52-12.23a.67.67 0 01.7-.47l11.99 1.2a.36.36 0 01.22.61q-3.7 3.65-.4 7.64"/><path stroke="#100f0f" vector-effect="non-scaling-stroke" d="M357.21 91.25l-.76-.16a.72.71-66.4 00-.72.29l-.27.37"/><path stroke="#616161" vector-effect="non-scaling-stroke" d="M355.46 91.75q-.6-.03-.71.5-1.27 6.33.33 12.55"/><path stroke="#100f0f" vector-effect="non-scaling-stroke" d="M355.08 104.8l.13 2.95"/><path stroke="#616161" vector-effect="non-scaling-stroke" d="M355.21 107.75q-.05-.32-.32-.42a.4.39-77.1 00-.53.34q-1.3 12.52 1.15 24.95"/><path stroke="#100f0f" vector-effect="non-scaling-stroke" d="M355.51 132.62q2.76 8.44 2.23 17.4a.74.73-78.8 00.5.75l.57.19a.6.6 0 00.8-.53l.18-2.68"/><path stroke="#8e8d7e" vector-effect="non-scaling-stroke" d="M359.79 147.75q2.18 41.66 3.95 83.34c.36 8.4 1.66 22.89 1.54 34.4a.98.97 2.9 00.89.98q14.12 1.21 27.55 3.21c3.9.58 5.55-3.77 6.41-6.38a.37.37 0 00-.33-.49l-4.05-.27"/><path stroke="#100f0f" vector-effect="non-scaling-stroke" d="M395.75 262.54l.84-.1q.13-.01.01-.07l-.33-.14q-.53-.23.05-.23l2.04-.01a.84.83 13.1 00.75-.46c.77-1.53-.77-2.25-1.86-2.74"/><path stroke="#585959" vector-effect="non-scaling-stroke" d="M397.25 258.79q3.55.65 6.79-.6"/><path stroke="#616161" vector-effect="non-scaling-stroke" d="M404.04 258.19c1.99-4.54 5.06-8.13 7.19-12.24q1.28-2.47 2.56-4.95"/><path stroke="#585959" vector-effect="non-scaling-stroke" d="M413.79 241l3.91-5.57a.88.86 51.5 00.09-.86l-1.5-3.57"/><path stroke="#100f0f" vector-effect="non-scaling-stroke" d="M416.29 231q1.01-.19 1.56.58a.9.89 70.2 00.78.37q1.18-.07 2.12-.91"/><path stroke="#8e8d7e" vector-effect="non-scaling-stroke" d="M420.75 231.04q6.04-13.08 8.25-27.33"/><path stroke="#100f0f" vector-effect="non-scaling-stroke" d="M429 203.71q1.72 1.92 4.21 1.54"/><path stroke="#8f8f8e" vector-effect="non-scaling-stroke" d="M433.21 205.25q-.71 11.62-3.88 18.82c-8.04 18.24-18.93 35.06-29.34 52.06a.41.41 0 00.42.61l3.09-.53"/><path stroke="#585959" vector-effect="non-scaling-stroke" d="M403.5 276.21q7.86.39 15.68-.37c5.42-.53 10.17-.24 15.32.02q10.79.54 21.25-2.07"/><path stroke="#100f0f" vector-effect="non-scaling-stroke" d="M455.75 273.79l.37 3.46q.05.49.43.17.44-.38.95-.13"/><path stroke="#585959" vector-effect="non-scaling-stroke" d="M128.82 426.53q-3.45-1.53-7.18-.91"/><path stroke="#999b9c" vector-effect="non-scaling-stroke" d="M389.75 164.46q-1.38.42-.7 1.74c5.4 10.43 9.69 21.5 14.35 32.02.74 1.67 5.32 16.5 7.64 16.03M413.79 241q-2.56 2.08-4.05 5c-1.8 3.53-5.83 7.35-6.45 10.97a.91.91 0 00.3.83l.45.39M382.96 257.75l.04-.64a.54.54 0 00-.51-.59l-8.7-.52"/><path stroke="#484a4a" vector-effect="non-scaling-stroke" d="M455.75 273.79l5.95-2.79"/><path stroke="#515252" vector-effect="non-scaling-stroke" d="M461.7 271q12.37-9.03 15.38-24.46"/><path stroke="#484a4a" vector-effect="non-scaling-stroke" d="M477.08 246.54q1.89-3.61 1.63-8.04"/><path stroke="gray" vector-effect="non-scaling-stroke" d="M478.71 238.5q1.83-15.18-3.37-28.57c-11.09-28.56-32.39-49.84-57.51-67.26q-5.63-3.91-10.53-6.21-.46-.22-.09.13c9.33 8.64 14.02 15.45 19.14 26.6 6.19 13.49 8.5 27.21 6.86 42.06"/><path stroke="#7f7e6f" vector-effect="non-scaling-stroke" d="M429 203.71c-.02-1.87.57-3.52.47-5.3q-.77-13.98-1.72-18.42-5.38-25.13-24.19-41.34-4.77-4.12-13.36-8.77-12.57-6.79-25.28-13.41-.45-.24-.19.2c2.2 3.73 5.61 7.21 7.63 10.38 17.23 27.06 30.69 55.29 41.42 85.49q3.31 9.32 6.97 18.5"/><path stroke="#484a4a" vector-effect="non-scaling-stroke" d="M416.29 231l-5.25-16.75"/><path stroke="#515252" vector-effect="non-scaling-stroke" d="M411.04 214.25q-9-25.6-21.29-49.79"/><path stroke="#484a4a" vector-effect="non-scaling-stroke" d="M389.75 164.46c-7.24-15-15.73-31.74-26.83-44.25a.42.42 0 00-.71.43c1.92 5.18 2.82 11.42 3.74 15.7 8.5 39.52 12.35 79.32 7.84 119.66"/><path stroke="#515252" vector-effect="non-scaling-stroke" d="M373.79 256q-.33.48-.25.91a.67.67 0 00.63.54l8.79.3"/><path stroke="#484a4a" vector-effect="non-scaling-stroke" d="M382.96 257.75l14.29 1.04"/><path stroke="#7f7e6f" vector-effect="non-scaling-stroke" d="M395.75 262.54c-8.79-.18-16.99-1.38-25.57-2.21a.5.49 5.8 01-.45-.54c4.28-44.84 2.07-89.37-9.28-132.53q-.47-1.79-.43-6.05 0-.51-.28-.08c-2.22 3.44-.54 19.36.05 26.62"/><path stroke="#515252" vector-effect="non-scaling-stroke" d="M355.51 132.62q.54-10.9.26-21.52c-.02-1.09-.52-2.16-.56-3.35M355.08 104.8q.95-6.56.38-13.05"/><path stroke="#999b9c" vector-effect="non-scaling-stroke" d="M477.08 246.54q-3.12 3-4.41 7.1-1.17 3.72-1.97 5.04-3.84 6.37-9.57 11.22-.47.4.57 1.1"/><path stroke="#c8c9ca" vector-effect="non-scaling-stroke" d="M478.71 238.5c-1.03-.01-1.91-.1-2.9.26-17.55 6.46-35.76 14.15-51.74 24.35q-10.28 6.56-20.57 13.1"/><path stroke="#8f8f8e" vector-effect="non-scaling-stroke" d="M330.53 86.45c-.81.04-4.78-.13-5.2.15a.24.24 0 000 .4l3.06 2.14a.84.84 0 01.29 1.04l-2.64 5.89a.39.39 0 00.57.48l5.89-3.81a1.52 1.52 0 011.67.02l5.16 3.49a.42.42 0 00.61-.54l-2.09-3.99a1.6 1.59-31.6 01.49-2.04l3.38-2.38q.76-.54-.17-.59l-6.38-.3a.81.8 84.7 01-.74-.62l-.51-2.02a.69.69 0 00-.67-.52h-.68a.67.67 0 00-.64.48l-.64 2.13a.82.81 6.8 01-.76.59"/><path stroke="#616161" vector-effect="non-scaling-stroke" d="M340.29 134.5l-11.58 22.25"/><path stroke="#585959" vector-effect="non-scaling-stroke" d="M328.71 156.75l-3.02 5.97"/><path stroke="#616161" vector-effect="non-scaling-stroke" d="M325.69 162.72l-4.9 8.78"/><path stroke="#585959" vector-effect="non-scaling-stroke" d="M320.79 171.5c-9.85 19.76-20.22 38.88-29.27 59.22a.81.8-80 00.79 1.13l16.15-1.1"/><path stroke="#616161" vector-effect="non-scaling-stroke" d="M308.46 230.75l13.79.79"/><path stroke="#585959" vector-effect="non-scaling-stroke" d="M322.25 231.54l27.46 5.96"/><path stroke="#616161" vector-effect="non-scaling-stroke" d="M349.71 237.5l4.07 1.58a.34.34 0 00.46-.33l-.53-26.75"/><path stroke="#585959" vector-effect="non-scaling-stroke" d="M353.71 212l-.5-16"/><path stroke="#616161" vector-effect="non-scaling-stroke" d="M353.21 196l-1.16-33.78"/><path stroke="#585959" vector-effect="non-scaling-stroke" d="M352.05 162.22q.67-21.35-.93-42.73-.2-2.59.02-4.99a.4.4 0 00-.74-.25c-.94 1.54-1.2 3.54-2.01 4.91q-4.42 7.47-8.1 15.34"/><path stroke="#999b9c" vector-effect="non-scaling-stroke" d="M352.05 162.22q-1.72 11.21-.73 22.48c.33 3.74-.2 7.62.22 11.54a.67.66.6 00.57.58q.82.1 1.1-.82M353.71 212q-1-.58-1.81-.14a.79.77 71.5 00-.39.8q1.75 11.26.41 22.61a1.16 1.14-17.2 01-.41.76l-1.8 1.47M322.25 231.54l.56-.04a.46.46 0 00.4-.59q-.12-.37-.65-.47-7.1-1.22-14.1.31M320.79 171.5q.62.01 1.21.5a.45.44-50.9 00.65-.07q3.05-4.09 3.04-9.21M328.71 156.75q.41.47.86.5a.74.72 15.9 00.67-.36q5.75-9.95 10.51-19.87.8-1.66-.46-2.52"/><path stroke="#8e8d7e" vector-effect="non-scaling-stroke" d="M147.583 202.832a1.04 1.04 0 00-1.41-.417l-.035.019a1.04 1.04 0 00-.418 1.41l32.037 59.004a1.04 1.04 0 001.41.417l.035-.019a1.04 1.04 0 00.418-1.41l-32.037-59.004"/><path stroke="#8f8f8e" vector-effect="non-scaling-stroke" d="M132.61 224.47c-1.03-.74-2.46-2.05-3.39-1.29a.72.72 0 00-.21.84l1.56 3.69a1.29 1.28-43.6 01-.03 1.05l-1.79 3.79a.7.7 0 00.81.98l2.28-.6a.57.57 0 01.68.38l1.56 5.03q.56 1.77.73-.08l.54-5.54a1.04 1.03-89.3 01.94-.93l5.04-.44a.68.67 62.5 00.37-1.19l-4.03-3.4a1.18 1.17-70.2 01-.42-.9v-3.66a.64.64 0 00-1.09-.45l-2.71 2.66a.66.65 40.5 01-.84.06"/><path stroke="#616161" vector-effect="non-scaling-stroke" d="M249.28 231.25q-5.17 3.27-7.69 8.88a1.11 1.1-46 00.01.93q.64 1.33 2.46.58"/><path stroke="#585959" vector-effect="non-scaling-stroke" d="M244.06 241.64l9.19-.43"/><path stroke="#616161" vector-effect="non-scaling-stroke" d="M253.25 241.21q3.67.75 5.81-2.18a1.25 1.24 15.6 01.93-.52l7.31-.58a.94.94 0 00.68-1.5q-3.37-4.52-8.23-5.47"/><path stroke="#585959" vector-effect="non-scaling-stroke" d="M259.75 230.96q-5.12-1.09-10.47.29"/><path stroke="#999b9c" vector-effect="non-scaling-stroke" d="M259.75 230.96q-.58.1-.74.49a.56.55 27.1 00.23.69l5.07 2.98a.5.49-27.6 01-.29.92q-4.98-.36-8.05 3.4a1.04 1.03 21.1 01-.89.39q-1.66-.14-1.83 1.38M244.06 241.64q.9-5.47 5.17-9.05a.78.77 60.5 00.23-.84l-.18-.5"/><path stroke="#585959" vector-effect="non-scaling-stroke" d="M360.09 264.86a1.1 1.1 0 001.99-.6q.68-14.21-1.89-28.27-.12-.65-.3-.01c-.99 3.55-1.62 26.37.2 28.88M275.54 252.5l-.54.29"/><path stroke="#8f8f8e" vector-effect="non-scaling-stroke" d="M275 252.79q-1.37-.52-2.58.38-7.29 5.42-13.59.12a1.09 1.09 0 00-1.78.97q.62 4.87-2.35 8.6a.57.56 40.4 00.07.77q5.54 4.9 12.86 5.91c3.62.5 4.83-1.23 3.32-4.7q-.27-.62.36-.39 2.34.83 3.21-1.31a.41.41 0 00-.36-.56c-1.03-.06-5.27.3-5.39-.92a.72.71 79.4 01.51-.76q2.42-.71 4.98-.33a.56.56 0 00.44-.14l.3-.29q.53-.51-.19-.66l-2.89-.57q-.56-.11-.18-.54 1.09-1.22 2.8-.84a1.06 1.05 30 00.96-.25q1.24-1.12.71-3.03"/><path stroke="#585959" vector-effect="non-scaling-stroke" d="M276.21 254.25l.54-1.46"/><path stroke="#8f8f8e" vector-effect="non-scaling-stroke" d="M276.75 252.79l.66-.82a.96.96 0 00.16-.91c-.55-1.59-1.43-6.22 1.2-6.58a.58.58 0 00.5-.56c.02-2.05-3.24-1.5-4.5-1.09a.82.81-31.6 01-.82-.19c-2.46-2.36-7.23-1.67-10.53-1.64a1.37 1.34 24.1 00-.89.33c-4.35 3.69-1.94 12.2 4.65 11.67 2.06-.17 7.73-.22 6.08-3.94a.41.41 0 00-.27-.23l-.25-.07a.82.81-84.2 01-.61-.75l-.17-3.55a.37.37 0 01.45-.38c.86.21.88.98.7 1.78-.65 2.95 1.88 4.21 2.43 6.64"/><path stroke="#c8c9ca" vector-effect="non-scaling-stroke" d="M276.75 252.79l-1.21-.29M275 252.79l1.21 1.46"/><path stroke="#8e8d7e" vector-effect="non-scaling-stroke" d="M259.199 243.968a.26.26 0 00-.269-.25l-16.49.546a.26.26 0 00-.252.269l.054 1.619a.26.26 0 00.268.25l16.49-.546a.26.26 0 00.252-.269l-.053-1.619"/><path stroke="#585959" vector-effect="non-scaling-stroke" d="M245.25 259.54l1.46 1.46"/><path stroke="#8f8f8e" vector-effect="non-scaling-stroke" d="M246.71 261c3.49 3.08 8.12.04 8.78-3.97q.61-3.72 1.83-7.36a.57.56-8.8 00-.87-.63c-4.46 3.21-.47 8.44-6.2 11"/><path stroke="#585959" vector-effect="non-scaling-stroke" d="M250.25 260.04q-.17-.07-.28-.18a.43.43 0 01-.04-.58q2.71-3.33 2.28-7.78"/><path stroke="#616161" vector-effect="non-scaling-stroke" d="M252.21 251.5q1.06-.77 1.53-1.55a.59.58 15.2 00-.51-.89l-10.77.25a.71.71 0 00-.67.57c-.77 3.81-.56 7.9 3.46 9.66"/><path stroke="#999b9c" vector-effect="non-scaling-stroke" d="M252.21 251.5l-7.74-.78a.75.73-79.2 00-.78.54q-1.11 4.1 1.69 7.07a.78.78 0 01.16.82q-.1.23-.29.39"/><path stroke="#c8c9ca" vector-effect="non-scaling-stroke" d="M246.71 261l3.54-.96"/><path stroke="#8f8f8e" vector-effect="non-scaling-stroke" d="M259.58 252.438a1.65.48 86.9 00.39-1.674 1.65.48 86.9 00-.57-1.622 1.65.48 86.9 00-.39 1.674 1.65.48 86.9 00.57 1.622M303.75 253.46l-1.25 1.08"/><path stroke="#616161" vector-effect="non-scaling-stroke" d="M302.5 254.54c-1.77-1.98-5.84 8.03-6.04 8.99a.65.64 76.7 001.03.64q3.83-3.03 8.12-4.78"/><path stroke="#8f8f8e" vector-effect="non-scaling-stroke" d="M305.61 259.39l1.35-.19a.38.37-14.4 00.3-.5l-2.01-5.49"/><path stroke="#585959" vector-effect="non-scaling-stroke" d="M305.25 253.21l-.03-.48a.4.39 79.8 00-.5-.35q-.77.21-.97 1.08"/><path stroke="#c8c9ca" vector-effect="non-scaling-stroke" d="M305.25 253.21l-1.5.25"/><path stroke="#d1d1d2" vector-effect="non-scaling-stroke" d="M305.61 259.39q-.87-.33-1.6-.28a.73.71 74.1 01-.7-.4q-.96-1.95-.81-4.17"/><path stroke="#616161" vector-effect="non-scaling-stroke" d="M239.29 264.84l15.65 10.03a1.03 1.03 0 001.53-.53l.55-1.56a.95.94 32.5 00-.22-.97q-6.73-6.89-15.17-11.53a.73.73 0 00-1.01.3l-1.64 3.11a.88.87 30.4 00.31 1.15M266.25 297.04l-7.25 1.17"/><path stroke="#8f8f8e" vector-effect="non-scaling-stroke" d="M259 298.21l-9.39-.04a.38.36-10.1 01-.35-.23q-.08-.19-.21-.23-9.51-3.32-13.1-12.02c-1.84-4.43-1.54-10.13-1.74-15.24a1.31 1.31 0 00-1.91-1.12q-2.12 1.08-2.15 2.98c-.31 24.39 13.85 34.01 36.85 29.4"/><path stroke="#585959" vector-effect="non-scaling-stroke" d="M267 301.71q2.54.1 4.25-1.67"/><path stroke="#8f8f8e" vector-effect="non-scaling-stroke" d="M271.25 300.04c9.97-4.23 18.7-14.47 24.15-23.54 3.98-6.62 9.25-10.23 16.83-11.68a.63.61 82.8 00.5-.66l-.08-1.07a.7.68 2.1 00-.6-.63c-8.84-1.18-15.01 4.95-19.17 11.85-6.36 10.53-14.43 19.56-26.63 22.73"/><path stroke="#c8c9ca" vector-effect="non-scaling-stroke" d="M271.25 300.04q-2.32.36-4.25 1.67"/><path stroke="#d1d1d2" vector-effect="non-scaling-stroke" d="M259 298.21q3.95.8 7.25-1.17"/><path stroke="#8f8f8e" vector-effect="non-scaling-stroke" d="M187.9 270.86c3.03-6.1-17.02-7.56-16.29.37a.67.66-3.1 00.69.61l14.85-.5a.88.87 12 00.75-.48"/><path stroke="#616161" vector-effect="non-scaling-stroke" d="M256.75 268.17c.61 3.02 9.12 4.28 11.39 4.21a.43.42-39.6 00.08-.84q-5.73-1.27-11.08-3.69-.5-.23-.39.32M246.5 290.71l4 2.33"/><path stroke="#585959" vector-effect="non-scaling-stroke" d="M250.5 293.04q2.54 1.65 4.25-.5"/><path stroke="#616161" vector-effect="non-scaling-stroke" d="M254.75 292.54q1.61-.19 2.09-1.43a1.18 1.13 43.8 00-.04-.92l-3.97-8.29"/><path stroke="#585959" vector-effect="non-scaling-stroke" d="M252.83 281.9q-.57-.47-.45-1.13a.45.44 13.4 01.58-.35q1.87.63 2.28-1.15c.57-2.49-17-13.62-15.9-4.25.83 7.05 1.68 11.58 7.16 15.69"/><path stroke="#999b9c" vector-effect="non-scaling-stroke" d="M252.83 281.9q-1.73 3.95 1.19 6.89a.86.86 0 01-.29 1.41q-2.77 1.09-5.12-.49a1.26 1.23 55 00-.97-.18q-.88.19-1.14 1.18M254.75 292.54l-4.25.5"/><path stroke="#585959" vector-effect="non-scaling-stroke" d="M273.164 275.02a1.63.62 65.2 00-.121-1.74 1.63.62 65.2 00-1.247-1.22 1.63.62 65.2 00.121 1.74 1.63.62 65.2 001.247 1.22"/><path stroke="#616161" vector-effect="non-scaling-stroke" d="M276.02 285.95c-3.21 1.91-11.58-1.18-15.35-2.01q-2.15-.47-1.14 1.49l3.28 6.39a.74.74 0 00.8.38q7.69-1.49 13.85-6.35a.49.49 0 00.11-.65c-2.52-4.06-3.86-8.98-9.07-10.22q-5.99-1.44-9.68-2.62-.87-.28-.35.48 1.63 2.36.11 5.07a1.04 1.04 0 00.69 1.52c3.26.69 16.4 2.59 17.09 5.75a.73.71-21.9 01-.34.77"/><path stroke="#585959" vector-effect="non-scaling-stroke" d="M117.96 288.35l-8.19 8.63q-.38.41.14.21c8.9-3.32 18.52-4.39 27.84-5.98"/><path stroke="#616161" vector-effect="non-scaling-stroke" d="M137.75 291.21q17.36-1.36 34.75-.25"/><path stroke="#585959" vector-effect="non-scaling-stroke" d="M172.5 290.96l55.99 2.76a.39.38-80.6 01.35.5q-.51 1.72-1.31 3.31c-1.96 3.91-2 8.61-1.53 12.89a.37.37 0 00.56.27q.49-.3.53-1.13c.24-4.71.84-12.06 4.63-15.45a.74.73 57.6 00.18-.84l-3.19-7.27"/><path stroke="#8f8f8e" vector-effect="non-scaling-stroke" d="M228.71 286q-1.39-3.99-1.44-7.81a1.24 1.23-.5 00-1.24-1.21q-24.28.18-48.46-.41-20.57-.5-34.38.53-14.19 1.07-25.23 11.25"/><path stroke="#c8c9ca" vector-effect="non-scaling-stroke" d="M228.71 286q-28.78-.76-57.53-2.08-23.13-1.06-32.93-.43-8.95.58-20.29 4.86"/><path stroke="#999b9c" vector-effect="non-scaling-stroke" d="M172.5 290.96q.73-.35.69-1.04a.57.57 0 00-.55-.54q-16.55-.71-33.06.03-1.87.08-1.83 1.8"/><path stroke="#585959" vector-effect="non-scaling-stroke" d="M292.24 288.69l-7.16 7.44q-.37.39.16.41c10.23.39 19.94.58 30.66 1.24 13.2.81 26.88.13 39.91 2.1 5.77.87 11.68.09 17.65.67q.51.05.09.35c-3.96 2.8-6.29 3.18-6.29 8.85q-.02 17.57-.01 35.14c0 5.7.73 9.66 6.63 10.99a.2.2 0 00.16-.36q-3.57-2.58-3.57-7.02-.01-19.97.28-39.93.02-1.02.18-2.06a1.35 1.35 0 01.5-.86l5.11-4.03q.32-.25.53-.59c.54-.88 1.44-.21 1.95-.17 17.51 1.05 34.98 1.54 52.48 2.84a.78.77 15.1 00.74-.42q1.16-2.21.97-4.78"/><path stroke="#8f8f8e" vector-effect="non-scaling-stroke" d="M433.21 298.5l.7-5.17a.67.67 0 00-.4-.71q-2.99-1.32-6.26-1.66"/><path stroke="#585959" vector-effect="non-scaling-stroke" d="M427.25 290.96l-2.5-.67"/><path stroke="#8f8f8e" vector-effect="non-scaling-stroke" d="M424.75 290.29c-.47-.21-1.2-.59-1.7-.65q-54.54-6.72-109.36-10.64c-3.55-.26-7.73-1.29-11.68-1.51a1.21 1.18 24.9 00-.88.31q-5.2 4.65-8.89 10.89"/><path stroke="#c8c9ca" vector-effect="non-scaling-stroke" d="M424.75 290.29l-1.68 5.54a.57.57 0 01-.63.4c-41.67-6.06-83.59-6.82-130.2-7.54M427.25 290.96q-1.65 2.29-1.43 5.24a.72.71 4.5 00.55.64l6.84 1.66"/><path stroke="#616161" vector-effect="non-scaling-stroke" d="M281.09 279.83q-1.58.89-.62 2.34a.56.56 0 001.02-.21l.3-1.64q.18-.99-.7-.49"/><path stroke="#8f8f8e" vector-effect="non-scaling-stroke" d="M430.3 463.22c14.37.01 28.82.9 43.21 1.39q4.11.14 6.1-3.91.22-.45-.25-.25c-3.3 1.43-6.5 1.26-10.01 1.81-2.93.46-3.61-.71-3.56-3.45.37-18.04-1.3-38.26-1.3-57.31l.02-83.46c0-4.93.99-23.29 9.07-22.34a.68.68 0 00.66-1.03c-3.48-5.69-13.58-10.63-19.99-12.55-5.75-1.72-10.43-1.01-12.63 4.97-6.12 16.58-8.79 37.25-10.06 55.88Q430 365.99 430 373.25c.04 29.82-.69 59.67-.21 89.47a.51.51 0 00.51.5"/><path stroke="#585959" vector-effect="non-scaling-stroke" d="M180.19 300.31c2.45 3.13 1.26 6.17 1.45 9.71q.03.53.33.09c1.54-2.32 2.85-10.07-1.95-10.23q-.37-.01-.16.3.12.18.33.13M217.57 301.14c-.77 3.25 3.15 4.46.18 8.65a.33.33 0 00.2.52c3.48.7 2.72-5.9 1.96-7.88q-.58-1.51-1.7-1.72a.56.56 0 00-.64.43"/><path stroke="#616161" vector-effect="non-scaling-stroke" d="M472.53 318.98q.57.19 1.2-.11a.8.78-15.7 00.45-.78l-1.6-17.21a.47.47 0 00-.93-.02l-2.27 17.58a.92.91 82.9 001.24.97l1.03-.41a1.3 1.27-45.7 01.88-.02M269.79 336c-.05 2.67 2.17 1.75 3.75 2.4a.52.51 10.9 01.33.48l-.28 22.75a1.21 1.21 0 01-1.18 1.19c-2.63.09-3.46 1.63-3.36 4.15q.32 8 .19 16.07a.67.66 3.8 00.59.67l2.19.28a1.07 1.06-13.1 01.76.47q1.7 2.61.19 4.75-5.73 8.18-7.81 12.53a.61.6 19.7 01-.69.32q-.98-.26-1.99-.33-17.52-1.3-34.61-3.33a.71.7-86.8 01-.62-.7v-78.68a.42.42 0 00-.82-.15q-.59 1.64-.59 3.38c.03 25.61-.09 51.22.27 76.86a.59.59 0 00.51.57c12.94 1.95 25.99 3.25 39.09 4.88a1.16 1.14-74.2 001.18-.67q2.89-6.37 7.89-11.59c2.05-2.15 2.39-4.05 2.24-6.85a.92.92 0 01.53-.88l1.85-.86a.82.81-7.6 00.47-.61q.73-4.26.66-8.61c-.05-3.74-5.64-2.74-8.18-2.82a.71.71 0 01-.68-.71l.04-4.57a1.06 1.06 0 01.5-.9q3.18-1.99 5.77.07a1.4 1.37-75.4 01.51.89l.3 2.01q.11.77.65.21c2.53-2.62.63-4.73-1.79-6.23a.87.85-74.3 01-.4-.73v-23.08a.69.69 0 01.62-.69l2.15-.24a.62.61 86.5 00.54-.63l-.27-10.67"/><path stroke="#585959" vector-effect="non-scaling-stroke" d="M280.29 326.4q-3.98-1.13-7.35-.54a.99.99 0 01-1.16-.98l.04-5.08a.87.86-6.3 01.68-.84q4.12-.91 7.74 1.39 1.2.75.68-.56l-.9-2.32a.91.9-7.7 00-.77-.58l-1.93-.19a.65.65 0 01-.6-.65l.03-14.73a.47.47 0 00-.77-.37c-2.72 2.21-2.33 11.53-2.24 14.87a.78.77-8.5 01-.58.77l-2.61.67a.79.79 0 00-.55.55c-1.47 5.23-.49 14.25-.21 18.19"/><path stroke="#999b9c" vector-effect="non-scaling-stroke" d="M280.29 326.4l-1.6.15a.44.43-7.5 00-.39.5q.77 4.65-.74 9.15a.8.79 7.8 01-.73.55q-3.65.17-7.04-.75"/><path stroke="#616161" vector-effect="non-scaling-stroke" d="M304.26 337.75c-.12 6.16-1.3 16.5 7.05 17.76q.51.07.16-.31c-2.4-2.71-4.23-4.83-4.39-8.7q-.2-4.69.15-10.76.45-7.89.52-26.91c.02-3.84 1.48-5.7 4.78-7.17a.41.41 0 00-.21-.79q-7.78.81-7.86 9.14c-.08 9.26.01 16.67-.2 27.74M323.55 309.31c.06-4.67 2-5.14 4.81-8.08q.36-.38-.16-.3-8.26 1.25-8.39 9.82-.2 13.2.09 36.19.09 7.17 6.78 8.37.49.09.14-.27-4.13-4.22-3.69-9.97c1.01-13.15.3-25.9.42-35.76M337.19 352.31q1.95 2.25 5.07 3.25.49.16.26-.3-.83-1.63-1.73-3.24c-2.35-4.24-1.6-10.18-1.31-15.52q.33-5.93-.18-27.44c-.13-5.48 4.3-4.52 5.06-7.48a.35.34 1.6 00-.4-.42c-9.5 1.81-8.88 9.08-8.67 16.64.17 6.11-1.18 30.97 1.9 34.51M351.05 346.09c.04 4.85 2.2 9.36 7.7 9.58q.52.02.21-.4c-2.36-3.14-3.37-3.15-3.42-7.52q-.2-20.5.18-41.02a1.22 1.19-21.6 01.38-.85c.88-.82 4.15-2.98 4.32-4.37a.47.47 0 00-.63-.5l-7.01 2.53a1.02 1.02 0 00-.64.69q-1.32 4.71-1.29 10.46.09 15.7.2 31.4M173.61 350.5c-1.51-3.09-2.8-8.73 1.07-10.72a.86.83-13.1 00.46-.71c.18-5.91 1.06-12.8-1.57-15.75q-.33-.37-.43-.86c-.77-3.71-2.42-6.93 1.38-9.7a1.61 1.59 81.1 00.59-.82q1.24-4.03 4.31-6.95a.9.9 0 00-.31-1.5q-4.79-1.74-7.85 1.89a1.67 1.65-24.3 00-.39 1.01c-.19 4.9-.39 9.64-.27 14.79.2 8.65-.3 17.82-.22 25.84q.16 13.74-.21 27.47c-.55 20.81-.17 41.76-.17 62.59a.7.7 0 00.58.69l3.33.59q1.28.23.36-.68c-2.96-2.94-4.31-8.58.2-10.99a.74.73-14.6 00.38-.64l-.15-16.68a1.23 1.21-68.6 00-.38-.89q-3.48-3.36-2.44-8.3a1.82 1.79 73.7 01.47-.88c3.79-3.89 2.35-10.68 2.44-15.77a1.77 1.72-60.7 00-.25-.94c-2.4-4.08-5.53-9.88-.67-12.77a1.78 1.78 0 00.87-1.51c.05-4.84.94-13.55-1.13-17.81"/><path stroke="#100f0f" vector-effect="non-scaling-stroke" d="M208.25 305.29l-1.11-.03a.79.78-76.4 00-.74.46q-1.73 3.86-1.61 8.08c.05 1.78-.65 3.06-1.04 4.74"/><path stroke="#585959" vector-effect="non-scaling-stroke" d="M203.75 318.54l-.25-.42a.9.89-13.5 00-.71-.43l-26.72-1.62a.62.61-76.7 00-.61.38q-1.03 2.52.34 4.7a1.16 1.16 0 00.86.54q13.56 1.5 27.09.77"/><path stroke="#100f0f" vector-effect="non-scaling-stroke" d="M203.75 322.46q.83 1.48.95 2.61 1.11 10.73-1.44 20.92"/><path stroke="#616161" vector-effect="non-scaling-stroke" d="M203.26 345.99q-13.8-2.63-27.14-2.76a.9.88 16 00-.75.4q-1.17 1.77-.2 3.63a1.09 1.07-10.1 00.82.56l27.76 3.14"/><path stroke="#100f0f" vector-effect="non-scaling-stroke" d="M203.75 350.96q.64 1.61.84 4.48.82 11.46-.98 21.19"/><path stroke="#616161" vector-effect="non-scaling-stroke" d="M203.61 376.63q-13.92-3.28-27.65-4a.97.96 20.4 00-.82.37c-2.1 2.63.91 4.41 3.11 4.75q12.46 1.93 25 3.21"/><path stroke="#100f0f" vector-effect="non-scaling-stroke" d="M203.25 380.96l.7.9a1.78 1.71-67.6 01.35.89q1.16 11.26-.26 22.5"/><path stroke="#616161" vector-effect="non-scaling-stroke" d="M204.04 405.25q-.49-1.71-2.23-1.89-12.88-1.36-25.75-3.15a.98.95 24.6 00-.82.29q-1.29 1.35-.52 3.21a1.11 1.09-.5 00.62.6c8.04 3.1 16.37 3.05 27.37 4.69a.57.56-77.6 00.62-.41l.71-2.59"/><path stroke="#100f0f" vector-effect="non-scaling-stroke" d="M204.04 406q.75 12.01.5 24.04c-.05 1.89-.81 3.77-1.08 5.71"/><path stroke="#616161" vector-effect="non-scaling-stroke" d="M203.46 435.75q-.31-1.42-1.45-1.57-13.26-1.72-26.52-3.5a.61.59 11.4 00-.65.42c-1.06 3.49 2.74 5.08 5.36 5.3q11 .93 21.85 3.29a.76.75-66.7 00.79-.32q.58-.84.66-1.91"/><path stroke="#100f0f" vector-effect="non-scaling-stroke" d="M203.5 437.46l1.3 7.67a.56.56 0 00.81.4q.31-.17.68-.78"/><path stroke="#616161" vector-effect="non-scaling-stroke" d="M206.29 444.75l3.9.24a.76.76 0 00.81-.72c1.71-34.42 1.03-69.05 1.34-103.52.08-8.47-.36-21.3.11-31.98a1.07 1.05-14.1 01.52-.85l2.16-1.29a1.81 1.77-2.3 00.66-.7q.93-1.78-.68-2.44-4.09-1.71-6.86 1.8"/><path stroke="#515252" vector-effect="non-scaling-stroke" d="M206.29 444.75q-.31-8.34-.27-16.69.26-50.13.25-100.27c0-4.93.56-10.91.51-16.37-.03-2.23.74-4.12 1.47-6.13M203.5 437.46l-.04-1.71M204.04 406v-.75M203.25 380.96l.36-4.33M203.75 350.96q-.91-2.43-.49-4.97"/><path stroke="#484a4a" vector-effect="non-scaling-stroke" d="M203.75 322.46v-3.92"/><path stroke="#616161" vector-effect="non-scaling-stroke" d="M233.05 314.55c1.2-.02 3.1.45 4.5.16a1.6 1.6 0 001.1-2.28q-1.55-3.07-4.37-1.97-6.25 2.43-12.32 5.44-.49.24.01.45 1.08.46 2.31-.02 4.42-1.73 8.77-1.78"/><path stroke="#8f8f8e" vector-effect="non-scaling-stroke" d="M116.026 314.688a1.99 1.99 0 00-1.574-2.333l-10.916-2.122a1.99 1.99 0 00-2.333 1.574l-.149.765a1.99 1.99 0 001.574 2.333l10.916 2.122a1.99 1.99 0 002.333-1.574l.149-.765"/><path stroke="#585959" vector-effect="non-scaling-stroke" d="M241.48 314.69l-.43 1.45q-.33 1.14.51.31c1.11-1.08 3.33-3.38 1.62-4.32a.83.83 0 00-.9.06q-.7.51-.67 1.44.02.54-.13 1.06"/><path stroke="#8f8f8e" vector-effect="non-scaling-stroke" d="M113.83 324.512a1.99 1.99 0 00-1.61-2.308l-10.968-1.954a1.99 1.99 0 00-2.308 1.61l-.133.748a1.99 1.99 0 001.61 2.308l10.967 1.954a1.99 1.99 0 002.308-1.61l.133-.748M470.53 323.16c-.35.92-.49 1.36-.57 2.36q-.68 9.12-1.23 18.24c-.61 9.96.53 20.49.72 32.8.1 6.02-1.21 13.18-.71 20.01q1.24 17.26.7 34.7a.38.37-7.7 00.49.37c1.22-.38.83-2.21.83-3.12q-.14-32.86.3-65.72c.15-11.14-.2-23.98-.03-35.99.02-1.14-.93-2.29.58-3.38q.64-.45-.14-.44l-.71.01a.25.25 0 00-.23.16"/><path stroke="#585959" vector-effect="non-scaling-stroke" d="M474.84 324.89l-1.86-.17a.6.6 0 00-.65.62c.5 17.12-.24 36.33.31 54.6.52 17.18-.04 33.92.19 51.05a.55.55 0 00.87.45q.07-.05.26-.46.11-.22.11-.49c-.08-7.91-.4-42.55.88-42.98a.64.63 81.9 00.42-.57q1.14-30.69.11-61.38a.71.69 1.9 00-.64-.67"/><path stroke="#8f8f8e" vector-effect="non-scaling-stroke" d="M111.205 333.975a1.61 1.61 0 00-1.364-1.823l-11.64-1.678a1.61 1.61 0 00-1.823 1.364l-.183 1.267a1.61 1.61 0 001.364 1.823l11.64 1.678a1.61 1.61 0 001.823-1.364l.183-1.267M108.358 345.574a2.07 2.07 0 00-1.611-2.444l-10.933-2.244a2.07 2.07 0 00-2.443 1.611l-.109.53a2.07 2.07 0 001.611 2.443l10.932 2.244a2.07 2.07 0 002.444-1.611l.109-.53M105.645 355.4a1.72 1.72 0 00-1.46-1.945l-11.841-1.685a1.72 1.72 0 00-1.945 1.46l-.164 1.15a1.72 1.72 0 001.46 1.945l11.841 1.685a1.72 1.72 0 001.945-1.46l.164-1.15M103.43 367.223a2.21 2.21 0 00-1.775-2.572l-11.252-2.065a2.21 2.21 0 00-2.573 1.774l-.04.217a2.21 2.21 0 001.775 2.572l11.252 2.065a2.21 2.21 0 002.573-1.774l.04-.217"/><path stroke="#616161" vector-effect="non-scaling-stroke" d="M476.48 393.22q-.31 1.49-.32 2.78-.17 16.94-.15 33.9a.63.63 0 00.7.63l1.76-.18a.58.57 85.3 00.51-.61l-2.19-36.5a.16.16 0 00-.31-.02M135.11 403.49c2.6-.22 4.43 1.87 5.77 3.84a.52.52 0 00.95-.38q-1.07-6.01-6.87-7.27a1.42 1.41-52.3 00-.92.12q-6.7 3.43-6.62 10.95a.59.59 0 001.13.25c1.56-3.33 1.98-7.11 6.56-7.51M150.96 501l9.46 28.02a.61.6-13.9 00.68.4q.49-.09.9-.46"/><path stroke="#585959" vector-effect="non-scaling-stroke" d="M162 528.96l16.5-4.17"/><path stroke="#616161" vector-effect="non-scaling-stroke" d="M178.5 524.79l12.33-3.46a.41.41 0 00.27-.53q-9.42-25.71-18.39-51.5-.56-1.63-4.02-1.84"/><path stroke="#585959" vector-effect="non-scaling-stroke" d="M168.69 467.46l-8.19-5.47a.37.36-81.4 00-.55.41c.54 1.82 4.95 16.29.68 16.02a.52.51-84.8 01-.48-.58q.43-3.01-.18-5.08-6.19-21.13-15.66-46.12c-1.85-4.89-3.66-15.51-6.98-19.16a.97.95-26.9 00-.92-.29q-2 .45-3.52 1.85a.85.83-30.5 00-.23.85q8.48 27.35 17.42 54.54 2.52 7.65 6.22 14.9a.37.37 0 01-.59.42q-5.43-5.72-7.83-13.3a.38.38 0 00-.71-.03l-4.63 11.12a1.46 1.45 46.2 00-.02 1.09l8.44 22.37"/><path stroke="#999b9c" vector-effect="non-scaling-stroke" d="M168.69 467.46q4.43 3.69 4.92 9.28.04.5.31.93.89 1.41 1.4 3.01 3.2 10.12 6.56 20.17c2.11 6.32 4.81 12.49 7.39 18.62a.34.34 0 01-.17.44q-4.98 2.37-10.35 3.48a.59.58 82.6 00-.46.61q.03.45.21.79M162 528.96c-3.77-8.83-5.76-18.34-9.73-27.76a.8.8 0 00-.72-.49q-.34 0-.59.29"/><path stroke="#616161" vector-effect="non-scaling-stroke" d="M344.22 413.89l.16 5.84a1.12 1.1-19.9 01-.44.92q-5.92 4.5-5.9 12.12.01 1.11.35.06c3.38-10.32 18.47-13.08 19.43.16q.04.5.29.06c3.62-6.42-2.68-13.04-8.84-13.98a.61.6 4 01-.51-.58l-.05-6.45a2.15 2.15 0 00-1.48-2.03c-6.79-2.21-25.1-5.45-30.47 1.09q-.39.48.23.44 12.73-.82 25.42.4a2 2 0 011.81 1.95"/><path stroke="#8e8d7e" vector-effect="non-scaling-stroke" d="M129.16 419.65l1.34 1.35q.79.8 1-.31l.32-1.74q.16-.88-.66-.53l-1.92.83a.25.25 0 00-.08.4"/><path stroke="#616161" vector-effect="non-scaling-stroke" d="M149.69 423.06q7.76.58 15.51 1.45.51.05.1-.26c-3.66-2.73-12.36-2.74-17.02-3.42a.37.37 0 00-.42.43q.3 1.69 1.83 1.8"/><path stroke="#8e8d7e" vector-effect="non-scaling-stroke" d="M287.64 459.88l1.28-.62a.96.96 0 00.54-.76q1.32-13.13 5.15-25.74c.78-2.57 2.2-5.16 3.21-7.81q.18-.49-.15-.09c-7.43 8.67-9.57 23.48-10.84 34.44a.57.57 0 00.81.58"/><path stroke="#585959" vector-effect="non-scaling-stroke" d="M301.95 428.93q-1.56 1.86-2.35 4.52a.36.35 7.4 00.36.46c9.92-.38 20.15.7 30.2.68a.57.57 0 00.56-.54l.24-5.3"/><path stroke="#616161" vector-effect="non-scaling-stroke" d="M330.96 428.75l.23-1.24a.46.46 0 00-.45-.54q-13.18.19-26.34-.21c-1.57-.05-2.17.76-2.45 2.17"/><path stroke="#999b9c" vector-effect="non-scaling-stroke" d="M330.96 428.75q-11.42-.38-22.85-.43c-2.19-.01-3.89 1.11-6.16.61"/><path stroke="#585959" vector-effect="non-scaling-stroke" d="M350.04 430.22q-2.82-1.86-4.67 1.2c-9.95 16.47-19.06 30.15-27.19 45.07-4.47 8.2-9.92 15.98-11.71 25.26a.75.74 79.2 001.13.77c6.85-4.4 11.84-11.9 15.81-18.79 1.35-2.33 3.29-4.17 4.69-6.48q5.51-9.08 20.65-35.22c2.15-3.71 6.36-8.48 1.29-11.81"/><path stroke="#8e8d7e" vector-effect="non-scaling-stroke" d="M470.46 455.75q.2 1.25 1.22 1.42a.89.86-66.5 00.83-.34q.83-1.08-.3-2.33"/><path stroke="#616161" vector-effect="non-scaling-stroke" d="M472.21 454.5c-.94-7.23.42-9.94 2.09-15.62a.51.5-74.5 01.61-.35c3.52.85 4.97-2.45 2.14-4.28a1.18 1.17 55.4 00-.91-.17l-6.13 1.41a.58.57 83.7 00-.44.56q.05 8.62-.1 17.2-.03 2.06.99 2.5"/><path stroke="#d0d0c1" vector-effect="non-scaling-stroke" d="M472.21 454.5q-1.4-.1-1.75 1.25"/><path stroke="#616161" vector-effect="non-scaling-stroke" d="M475.21 445.5q-.87 1.23-.67 2.75"/><path stroke="#8f8f8e" vector-effect="non-scaling-stroke" d="M474.54 448.25l-.24 2.82a.48.48 0 00.48.52c1.09 0 5.59-1.04 5.83.74a.67.66 75.5 01-.41.71c-.76.32-3.06.59-3.47 1.15q-.33.46.23.5l4.36.32a.86.83-75.1 00.82-.49l1.82-3.87a.79.79 0 01.72-.46l19.97.21a.58.57 87.2 01.57.52c1.09 12.62.25 25.78.91 38.55a.85.83 4.5 00.68.78l1.4.28a.57.57 0 00.68-.56q-.13-15.16-.38-30.34c-.06-3.94-2.21-6.39-1.43-10.86a.78.78 0 00-.74-.91l-23.21-.82a.83.83 0 01-.68-1.25l1.01-1.68q.36-.61-.35-.61h-6.61a.74.73 10.3 00-.69.47l-.6 1.53"/><path stroke="#d1d1d2" vector-effect="non-scaling-stroke" d="M474.54 448.25l.2.22q.2.22.22-.08l.25-2.89"/><path stroke="#8f8f8e" vector-effect="non-scaling-stroke" d="M509.23 452.627a2.48.85 99.3 001.239-2.31 2.48.85 99.3 00-.438-2.584 2.48.85 99.3 00-1.24 2.31 2.48.85 99.3 00.438 2.584"/><path stroke="#616161" vector-effect="non-scaling-stroke" d="M296.39 483.9q-8.58 11.13-12.47 17.52-6.91 11.34-13.96 22.58"/><path stroke="#585959" vector-effect="non-scaling-stroke" d="M269.96 524l-3.56 5.81a.73.72 38.9 00.1.89l30.36 30.95a.6.58 47.2 00.8.04q1.71-1.47 2.59-3.65"/><path stroke="#616161" vector-effect="non-scaling-stroke" d="M300.25 558.04q7.24-13.34 15.05-26.35c4.49-7.49 8.58-15.5 12.99-23.19"/><path stroke="#585959" vector-effect="non-scaling-stroke" d="M328.29 508.5l-1.05-23.38q-.14-2.94-1.81-.52c-5.02 7.28-8.79 16.72-17.26 20.8a1.36 1.34 39 01-.94.09q-2.42-.67-2.36-3.04.32-12.8 7.66-23.26a.56.56 0 00-.65-.85l-15.49 5.56"/><path stroke="#999b9c" vector-effect="non-scaling-stroke" d="M328.29 508.5l-.35-1.82a.39.39 0 00-.71-.13c-6.23 9.98-10.76 20.01-16.67 29.44-4.41 7.03-7.93 13.5-11.64 20.41a1.04 1.02-44.4 00-.02.92q.39.78 1.35.72M269.96 524l.03.3a.49.49 0 00.46.44l.5.03a.94.9 17 00.81-.41q6.74-10.39 12.95-21.14c2.97-5.12 7.01-8.7 9.18-14.86a1.18 1.15-3.5 01.61-.67c1.22-.57 4.44-2.51 1.89-3.79"/><path stroke="#8e8d7e" vector-effect="non-scaling-stroke" d="M538.158 486.767a.56.56 0 00-.58-.54l-.24.009a.56.56 0 00-.54.579l.125 3.558a.56.56 0 00.579.54l.24-.009a.56.56 0 00.54-.579l-.125-3.558"/><path stroke="gray" vector-effect="non-scaling-stroke" d="M265.99 245.07c-1.3 3.04-.75 5.87 3.12 6.17a1.32 1.32 0 001.42-1.41l-.36-4.87a.7.69-17.3 01.35-.65l1.03-.59q.84-.48-.09-.77c-2.36-.73-4.41-.34-5.47 2.12"/><path stroke="#c8c9ca" vector-effect="non-scaling-stroke" d="M435.5 377.54q-.15 37.48-.67 74.96-.03 2.2.06 4.48a.5.49 88.8 00.49.48l21.69.23a1.5 1.49.6 001.51-1.47l1.06-79.4"/><path stroke="#8f8f8e" vector-effect="non-scaling-stroke" d="M459.64 376.82c-.13-10.56-1.05-22.34-.82-31.78q.3-12.25 1.67-29.79.76-9.77 1.84-14.58a.46.46 0 00-.42-.56l-18.35-1.68a.65.65 0 00-.69.51q-7.64 35.33-7.79 73.55-.01 3.43.42 5.05"/><path stroke="#585959" vector-effect="non-scaling-stroke" d="M459.64 376.82q-9.72-6.05-20.08-.8-1.96.99-4.06 1.52"/><path stroke="#fefeef" vector-effect="non-scaling-stroke" d="M589.94 591l-.19-.71"/><path stroke="#8e8d7e" vector-effect="non-scaling-stroke" d="M.25 590.04c-.15.47-.01.72.5.7q5.73-.17 11.44.26M576.44 591q-3.38-.63-6.75 0"/><path stroke="#c7c8b9" vector-effect="non-scaling-stroke" d="M322.44 591q-2.75-.63-5.5 0"/><path stroke="#8e8d7e" vector-effect="non-scaling-stroke" d="M315.19 591q-2.75-.63-5.5 0"/><path stroke="#c7c8b9" vector-effect="non-scaling-stroke" d="M304.44 591q-2.75-.63-5.5 0M32.44 591q-3.38-.63-6.75 0"/></g><path d="M0 0h590.06l.19.29.04 589.46-.54.54q-291.97-.05-583.94-.17-2.78 0-5.56-.08l-.25-.1V0zm586.25 4.51a.26.26 0 00-.26-.26H4.51a.26.26 0 00-.26.26v581.48a.26.26 0 00.26.26h581.48a.26.26 0 00.26-.26V4.51z"/><path fill="#1f1e1d" d="M590.06 0h.94v587.31c-.84-.45-.25-537.06-.25-586.81a.25.24-86.1 00-.21-.25q-.17-.02-.29.04l-.19-.29z"/><path fill="#fdfcde" d="M590.25.29q.12-.06.29-.04a.25.24-86.1 01.21.25c0 49.75-.59 586.36.25 586.81v2.75l-.71-.31L590.25.29zM586.25 585.99a.26.26 0 01-.26.26H4.51a.26.26 0 01-.26-.26V4.51a.26.26 0 01.26-.26h581.48a.26.26 0 01.26.26v581.48zM56.32 33.42c-18.87-2.77-28.13 7.01-28.09 25.33q.05 19.37 0 38.82a.68.67 70.7 001.1.53q4.81-3.92 9.47-8.55 27.32-27.18 53.68-54.31a1.35 1.35 0 00-1.02-2.29q-14.98.61-29.56.08c-1.77-.06-3.57.69-5.58.39zm65.32 392.2q3.39 1.72 7.18.91l4.86 1.04a.88.87-2.2 01.65.59l10.13 32.52a1.54 1.54 0 01-.03 1.01l-5.76 15.51a1.54 1.54 0 00-.03 1.01c5.52 17.75 12.35 34.91 17.87 52.65.82 2.63 2.48 4.16 5.26 3.44q8.72-2.28 29.01-8.46 2.53-.78 4.69-2.51a.72.71-28.2 00.24-.78c-5.35-17.74-12.35-35.14-18.16-52.78-1.8-5.47-11.13-8.63-17.66-12.43a1.45 1.39-84.8 01-.64-.8l-8.51-27.06a.38.38 0 01.41-.49l14.58 1.81a.64.64 0 01.57.59c.19 2.17-.14 8.1 2.42 8.88q2.27.7 3.47 1.36a.87.85-78.3 01.44.68l.48 4.79a.98.97-86.2 00.74.85l11.47 2.75a1.03 1.02 80.9 01.62.45q3.2 5.01 6.42 10.02c4.61 7.16-1.74 11.39 1.47 18.16q8.43 17.81 17.82 35.27a1.01 1-29.2 001.39.39l21.18-12.31a.49.49 0 00.15-.71c-8.55-12.05-16.03-24.79-24.4-37.02a1.74 1.66 82.8 00-.75-.61q-3.22-1.37-6.73-1.74c-2.99-.31-6.49-6.24-7.88-8.58a.73.73 0 01.73-1.1q45.26 6.15 89.92 11.78 4.45.56 7.96-1.51a1.08 1.04-13.3 00.52-.81l1.27-12.11a1.18 1.17-85.9 011.22-1.06l30.25 1.24q.81.04.36.71c-4.59 6.79-8.59 14.15-13.48 21a1.55 1.53 8.1 01-.77.57c-4.42 1.49-19.41 6.13-21.88 9.47-10.54 14.23-18.21 29.75-28.52 43.76q-1.52 2.07-2 3.77a2.44 2.43-59.4 00.61 2.38q17.44 17.65 34.87 35.23c2.63 2.65 4.81 2.17 6.72-.98q13.64-22.52 27.01-45.19c3.05-5.16 5.65-8.52 4.99-14.85q-1.24-11.85-2.55-23.68-.06-.49.09-.96.1-.36.12-.73.01-.49.27-.92l14.74-24.35a.61.61 0 01.95-.12c3.24 3.2 10.22 2.03 13.92.55 5.44-2.18 10.7 1.29 15.75-2.56a.29.29 0 01.46.19q1.45 10.84 3.57 21.57.2 1.02-.02 2.82a1.01 1 78.6 01-.49.75c-4.01 2.31-9.63 6.86-8.85 12.1q2.48 16.66 4.6 33.36.59 4.6 5.35 4.84 12.12.62 25.71.15a1.25 1.25 0 001.19-1.46q-3.48-20.46-6.57-41.6c-.62-4.28-6.72-7.69-10.33-9.14a.88.87-82.9 01-.55-.72l-.71-6.08a.49.48-4.3 01.47-.54q5.1-.2 8.17.07 13.46 1.19 26.98 1.69a1.36 1.34 23.5 00.99-.38l1.67-1.59a1.27 1.27 0 01.91-.36q22.5.58 45.02.55c8.36-.01 11.65-3.83 12.15-11.92a.64.63 1.9 01.65-.6l12.58.27a.53.53 0 01.52.52q.26 16.73.63 33.47.08 3.85 4.04 3.91 13.74.19 27.5.01 3.14-.04 6.51-2.9a1.27 1.24-20.9 00.44-.95l-.07-6.48a.65.64 6.1 00-.51-.63c-7.98-1.74-17.16-1.34-26.53-1.22a.45.45 0 01-.45-.45l.06-25.92a1.74 1.72-29.5 01.26-.91c2.09-3.44 4.4-13.07-2.08-13.1q-11.57-.07-22.52-.42a1.1 1.1 0 01-1.07-1.09c-.49-40.17-.37-80.46-3.11-120.43q-1.01-14.66-2.7-20.95c-3.03-11.26-13.44-18.54-24.2-21.42a.5.49 16.9 01-.34-.63q.16-.48.49-.64 16.53-7.8 21.73-24.08c7.04-22.08 3.03-43.75-8.79-63.27-22.69-37.47-66.39-58.47-105.28-78.58-2.25-1.16-4.51-1.88-6.9-2.79a.75.73-81.2 01-.48-.67l-.57-16.65-.48-14.8a.56.56 0 00-.55-.54l-41.49-.96a.54.54 0 00-.55.49l-2.39 28.11a1.7 1.69-85.1 001.54 1.84q19.36 1.71 38.12-3.1.56-.14.38.41c-.6 1.9-2.27 3.93-2.97 5.34-19.03 38.5-39.26 76.03-58.35 114.84-1.75 3.57-4.73 7.61-6.61 11.97q-1.09 2.52 1.65 2.31c12.62-.97 25.14-1.75 38.88-.27a1.26 1.2-21 01.65.27q.2.17.39.21 15.24 3.19 30.31 7.25a.85.85 0 01.61.62c.65 2.56.06 5.49.19 7.53q.38 6.15.08 12.45a.49.48-87 01-.5.46l-39.86-1.6a1.16 1.16 0 01-.85-.42c-1.86-2.2-3.59-3.62-4.58-6.47q-1.22-3.49-2.78-6.86c-6.31-13.53-24.09 25.52-25.51 28.28a.44.43-52.6 01-.71.1l-6.67-7.47a.84.83 34 01-.17-.83q1.8-5.31 2.97-10.8c.81-3.78 2.47-6.26 4.33-9.47a1.78 1.73-31.2 00.24-.92c-.15-4.83-.28-11.06-6.33-10.21a.9.88 65.9 01-.81-.32c-3.41-4.31-5.09-10-10.9-11.42-7.13-1.73-16.2-1.87-22.41 3.09q-7.44 5.93-4.67 15.2a2.03 1.93-48.2 01.03.98q-1.23 5.06-.42 10.2a1.58 1.56-35.9 01-.16.97c-1.77 3.37-2.27 9.98-6.68 10.01q-17.8.11-35.62-.08-1.57-.02-3-.55a1.66 1.62-5.7 01-.79-.63q-2.44-3.65-6.89-3.49a.77.76 74.2 01-.7-.4q-16.79-30.66-33.87-60.88-.51-.92-1.79-2.48a.69.69 0 00-.79-.2q-14 5.67-21.98 12.73c-2.05 1.82-3.87 6.76-6.83 9.11-3.01 2.38-8.15 1.57-12.03 3.92a.56.55 61.7 00-.21.72q7.28 15.29 16.18 29.71c3.64 5.9 17.35-3.82 19.37-7.85 1.48-2.97 2.24-4.8 5.16-6.77q5.51-3.71 10.4-6.97a1.45 1.44 58.7 012.07.51l15.48 28.63a.39.39 0 01-.18.53l-4.64 2.08a1.31 1.3-.8 00-.67.68l-1.29 2.98a.82.81-78.6 01-.75.5c-21.55.06-51.82 4.85-62.3 26.98q-2.22 4.69-4.13 9.53a1.44 1.4 88 01-.67.74l-1.63.83a1.07 1.07 0 00-.56.67q-1.04 3.62-.02 7.09a1.11 1.1-39.7 01-.08.83l-2.75 5.34a1.14 1.13 49.2 00-.06.89l1.15 3.12a.69.68 64.6 01-.29.83c-6.07 3.71-.52 9.06-4.89 11.98q-.38.25-.6.65-2.13 3.88.03 7.72a.52.52 0 01-.23.73c-4.95 2.31-3.43 5.88-2.41 10.15a.9.9 0 01-.25.84q-4.6 4.46-1.74 10.22a1.35 1.31 38.4 01.11.85c-3.12 15.12-9.2 45.08-.56 53.31 4.45 4.24 14.43 6.05 20.65 7.18a1.83 1.83 0 002.03-1.13c1.44-3.7.26-8.08 1.52-12.23a.67.67 0 01.7-.47l11.99 1.2a.36.36 0 01.22.61q-3.7 3.65-.4 7.64z"/><path fill="#fae1a9" d="M56.32 33.42c2.01.3 3.81-.45 5.58-.39q14.58.53 29.56-.08a1.35 1.35 0 011.02 2.29Q66.12 62.37 38.8 89.55q-4.66 4.63-9.47 8.55a.68.67 70.7 01-1.1-.53q.05-19.45 0-38.82c-.04-18.32 9.22-28.1 28.09-25.33z"/><path fill="#1f1e1d" d="M357.21 91.25l-.76-.16a.72.71-66.4 00-.72.29l-.27.37q-.6-.03-.71.5-1.27 6.33.33 12.55l.13 2.95q-.05-.32-.32-.42a.4.39-77.1 00-.53.34q-1.3 12.52 1.15 24.95 2.76 8.44 2.23 17.4a.74.73-78.8 00.5.75l.57.19a.6.6 0 00.8-.53l.18-2.68q2.18 41.66 3.95 83.34c.36 8.4 1.66 22.89 1.54 34.4a.98.97 2.9 00.89.98q14.12 1.21 27.55 3.21c3.9.58 5.55-3.77 6.41-6.38a.37.37 0 00-.33-.49l-4.05-.27.84-.1q.13-.01.01-.07l-.33-.14q-.53-.23.05-.23l2.04-.01a.84.83 13.1 00.75-.46c.77-1.53-.77-2.25-1.86-2.74q3.55.65 6.79-.6c1.99-4.54 5.06-8.13 7.19-12.24q1.28-2.47 2.56-4.95l3.91-5.57a.88.86 51.5 00.09-.86l-1.5-3.57q1.01-.19 1.56.58a.9.89 70.2 00.78.37q1.18-.07 2.12-.91 6.04-13.08 8.25-27.33 1.72 1.92 4.21 1.54-.71 11.62-3.88 18.82c-8.04 18.24-18.93 35.06-29.34 52.06a.41.41 0 00.42.61l3.09-.53q7.86.39 15.68-.37c5.42-.53 10.17-.24 15.32.02q10.79.54 21.25-2.07l.37 3.46q.05.49.43.17.44-.38.95-.13-.33.16-.49.64a.5.49 16.9 00.34.63c10.76 2.88 21.17 10.16 24.2 21.42q1.69 6.29 2.7 20.95c2.74 39.97 2.62 80.26 3.11 120.43a1.1 1.1 0 001.07 1.09q10.95.35 22.52.42c6.48.03 4.17 9.66 2.08 13.1a1.74 1.72-29.5 00-.26.91l-.06 25.92a.45.45 0 00.45.45c9.37-.12 18.55-.52 26.53 1.22a.65.64 6.1 01.51.63l.07 6.48a1.27 1.24-20.9 01-.44.95q-3.37 2.86-6.51 2.9-13.76.18-27.5-.01-3.96-.06-4.04-3.91-.37-16.74-.63-33.47a.53.53 0 00-.52-.52l-12.58-.27a.64.63 1.9 00-.65.6c-.5 8.09-3.79 11.91-12.15 11.92q-22.52.03-45.02-.55a1.27 1.27 0 00-.91.36l-1.67 1.59a1.36 1.34 23.5 01-.99.38q-13.52-.5-26.98-1.69-3.07-.27-8.17-.07a.49.48-4.3 00-.47.54l.71 6.08a.88.87-82.9 00.55.72c3.61 1.45 9.71 4.86 10.33 9.14q3.09 21.14 6.57 41.6a1.25 1.25 0 01-1.19 1.46q-13.59.47-25.71-.15-4.76-.24-5.35-4.84-2.12-16.7-4.6-33.36c-.78-5.24 4.84-9.79 8.85-12.1a1.01 1 78.6 00.49-.75q.22-1.8.02-2.82-2.12-10.73-3.57-21.57a.29.29 0 00-.46-.19c-5.05 3.85-10.31.38-15.75 2.56-3.7 1.48-10.68 2.65-13.92-.55a.61.61 0 00-.95.12l-14.74 24.35q-.26.43-.27.92-.02.37-.12.73-.15.47-.09.96 1.31 11.83 2.55 23.68c.66 6.33-1.94 9.69-4.99 14.85q-13.37 22.67-27.01 45.19c-1.91 3.15-4.09 3.63-6.72.98q-17.43-17.58-34.87-35.23a2.44 2.43-59.4 01-.61-2.38q.48-1.7 2-3.77c10.31-14.01 17.98-29.53 28.52-43.76 2.47-3.34 17.46-7.98 21.88-9.47a1.55 1.53 8.1 00.77-.57c4.89-6.85 8.89-14.21 13.48-21q.45-.67-.36-.71l-30.25-1.24a1.18 1.17-85.9 00-1.22 1.06l-1.27 12.11a1.08 1.04-13.3 01-.52.81q-3.51 2.07-7.96 1.51-44.66-5.63-89.92-11.78a.73.73 0 00-.73 1.1c1.39 2.34 4.89 8.27 7.88 8.58q3.51.37 6.73 1.74a1.74 1.66 82.8 01.75.61c8.37 12.23 15.85 24.97 24.4 37.02a.49.49 0 01-.15.71l-21.18 12.31a1.01 1-29.2 01-1.39-.39q-9.39-17.46-17.82-35.27c-3.21-6.77 3.14-11-1.47-18.16q-3.22-5.01-6.42-10.02a1.03 1.02 80.9 00-.62-.45l-11.47-2.75a.98.97-86.2 01-.74-.85l-.48-4.79a.87.85-78.3 00-.44-.68q-1.2-.66-3.47-1.36c-2.56-.78-2.23-6.71-2.42-8.88a.64.64 0 00-.57-.59l-14.58-1.81a.38.38 0 00-.41.49l8.51 27.06a1.45 1.39-84.8 00.64.8c6.53 3.8 15.86 6.96 17.66 12.43 5.81 17.64 12.81 35.04 18.16 52.78a.72.71-28.2 01-.24.78q-2.16 1.73-4.69 2.51-20.29 6.18-29.01 8.46c-2.78.72-4.44-.81-5.26-3.44-5.52-17.74-12.35-34.9-17.87-52.65a1.54 1.54 0 01.03-1.01l5.76-15.51a1.54 1.54 0 00.03-1.01l-10.13-32.52a.88.87-2.2 00-.65-.59l-4.86-1.04q-3.45-1.53-7.18-.91-3.3-3.99.4-7.64a.36.36 0 00-.22-.61l-11.99-1.2a.67.67 0 00-.7.47c-1.26 4.15-.08 8.53-1.52 12.23a1.83 1.83 0 01-2.03 1.13c-6.22-1.13-16.2-2.94-20.65-7.18-8.64-8.23-2.56-38.19.56-53.31a1.35 1.31 38.4 00-.11-.85q-2.86-5.76 1.74-10.22a.9.9 0 00.25-.84c-1.02-4.27-2.54-7.84 2.41-10.15a.52.52 0 00.23-.73q-2.16-3.84-.03-7.72.22-.4.6-.65c4.37-2.92-1.18-8.27 4.89-11.98a.69.68 64.6 00.29-.83l-1.15-3.12a1.14 1.13 49.2 01.06-.89l2.75-5.34a1.11 1.1-39.7 00.08-.83q-1.02-3.47.02-7.09a1.07 1.07 0 01.56-.67l1.63-.83a1.44 1.4 88 00.67-.74q1.91-4.84 4.13-9.53c10.48-22.13 40.75-26.92 62.3-26.98a.82.81-78.6 00.75-.5l1.29-2.98a1.31 1.3-.8 01.67-.68l4.64-2.08a.39.39 0 00.18-.53l-15.48-28.63a1.45 1.44 58.7 00-2.07-.51q-4.89 3.26-10.4 6.97c-2.92 1.97-3.68 3.8-5.16 6.77-2.02 4.03-15.73 13.75-19.37 7.85q-8.9-14.42-16.18-29.71a.56.55 61.7 01.21-.72c3.88-2.35 9.02-1.54 12.03-3.92 2.96-2.35 4.78-7.29 6.83-9.11q7.98-7.06 21.98-12.73a.69.69 0 01.79.2q1.28 1.56 1.79 2.48 17.08 30.22 33.87 60.88a.77.76 74.2 00.7.4q4.45-.16 6.89 3.49a1.66 1.62-5.7 00.79.63q1.43.53 3 .55 17.82.19 35.62.08c4.41-.03 4.91-6.64 6.68-10.01a1.58 1.56-35.9 00.16-.97q-.81-5.14.42-10.2a2.03 1.93-48.2 00-.03-.98q-2.77-9.27 4.67-15.2c6.21-4.96 15.28-4.82 22.41-3.09 5.81 1.42 7.49 7.11 10.9 11.42a.9.88 65.9 00.81.32c6.05-.85 6.18 5.38 6.33 10.21a1.78 1.73-31.2 01-.24.92c-1.86 3.21-3.52 5.69-4.33 9.47q-1.17 5.49-2.97 10.8a.84.83 34 00.17.83l6.67 7.47a.44.43-52.6 00.71-.1c1.42-2.76 19.2-41.81 25.51-28.28q1.56 3.37 2.78 6.86c.99 2.85 2.72 4.27 4.58 6.47a1.16 1.16 0 00.85.42l39.86 1.6a.49.48-87 00.5-.46q.3-6.3-.08-12.45c-.13-2.04.46-4.97-.19-7.53a.85.85 0 00-.61-.62q-15.07-4.06-30.31-7.25-.19-.04-.39-.21a1.26 1.2-21 00-.65-.27c-13.74-1.48-26.26-.7-38.88.27q-2.74.21-1.65-2.31c1.88-4.36 4.86-8.4 6.61-11.97 19.09-38.81 39.32-76.34 58.35-114.84.7-1.41 2.37-3.44 2.97-5.34q.18-.55-.38-.41-18.76 4.81-38.12 3.1a1.7 1.69-85.1 01-1.54-1.84l2.39-28.11a.54.54 0 01.55-.49l41.49.96a.56.56 0 01.55.54l.48 14.8zm-26.68-4.8c-.81.04-4.78-.13-5.2.15a.24.24 0 000 .4l3.06 2.14a.84.84 0 01.29 1.04l-2.64 5.89a.39.39 0 00.57.48l5.89-3.81a1.52 1.52 0 011.67.02l5.16 3.49a.42.42 0 00.61-.54l-2.09-3.99a1.6 1.59-31.6 01.49-2.04l3.38-2.38q.76-.54-.17-.59l-6.38-.3a.81.8 84.7 01-.74-.62l-.51-2.02a.69.69 0 00-.67-.52h-.68a.67.67 0 00-.64.48l-.64 2.13a.82.81 6.8 01-.76.59zm9.76 48.05l-11.58 22.25-3.02 5.97-4.9 8.78c-9.85 19.76-20.22 38.88-29.27 59.22a.81.8-80 00.79 1.13l16.15-1.1 13.79.79 27.46 5.96 4.07 1.58a.34.34 0 00.46-.33l-.53-26.75-.5-16-1.16-33.78q.67-21.35-.93-42.73-.2-2.59.02-4.99a.4.4 0 00-.74-.25c-.94 1.54-1.2 3.54-2.01 4.91q-4.42 7.47-8.1 15.34zm-192.707 68.332a1.04 1.04 0 00-1.41-.417l-.035.019a1.04 1.04 0 00-.418 1.41l32.037 59.004a1.04 1.04 0 001.41.417l.035-.019a1.04 1.04 0 00.418-1.41l-32.037-59.004zM132.61 224.47c-1.03-.74-2.46-2.05-3.39-1.29a.72.72 0 00-.21.84l1.56 3.69a1.29 1.28-43.6 01-.03 1.05l-1.79 3.79a.7.7 0 00.81.98l2.28-.6a.57.57 0 01.68.38l1.56 5.03q.56 1.77.73-.08l.54-5.54a1.04 1.03-89.3 01.94-.93l5.04-.44a.68.67 62.5 00.37-1.19l-4.03-3.4a1.18 1.17-70.2 01-.42-.9v-3.66a.64.64 0 00-1.09-.45l-2.71 2.66a.66.65 40.5 01-.84.06zm116.67 6.78q-5.17 3.27-7.69 8.88a1.11 1.1-46 00.01.93q.64 1.33 2.46.58l9.19-.43q3.67.75 5.81-2.18a1.25 1.24 15.6 01.93-.52l7.31-.58a.94.94 0 00.68-1.5q-3.37-4.52-8.23-5.47-5.12-1.09-10.47.29zm110.81 33.61a1.1 1.1 0 001.99-.6q.68-14.21-1.89-28.27-.12-.65-.3-.01c-.99 3.55-1.62 26.37.2 28.88zm-84.55-12.36l-.54.29q-1.37-.52-2.58.38-7.29 5.42-13.59.12a1.09 1.09 0 00-1.78.97q.62 4.87-2.35 8.6a.57.56 40.4 00.07.77q5.54 4.9 12.86 5.91c3.62.5 4.83-1.23 3.32-4.7q-.27-.62.36-.39 2.34.83 3.21-1.31a.41.41 0 00-.36-.56c-1.03-.06-5.27.3-5.39-.92a.72.71 79.4 01.51-.76q2.42-.71 4.98-.33a.56.56 0 00.44-.14l.3-.29q.53-.51-.19-.66l-2.89-.57q-.56-.11-.18-.54 1.09-1.22 2.8-.84a1.06 1.05 30 00.96-.25q1.24-1.12.71-3.03l.54-1.46.66-.82a.96.96 0 00.16-.91c-.55-1.59-1.43-6.22 1.2-6.58a.58.58 0 00.5-.56c.02-2.05-3.24-1.5-4.5-1.09a.82.81-31.6 01-.82-.19c-2.46-2.36-7.23-1.67-10.53-1.64a1.37 1.34 24.1 00-.89.33c-4.35 3.69-1.94 12.2 4.65 11.67 2.06-.17 7.73-.22 6.08-3.94a.41.41 0 00-.27-.23l-.25-.07a.82.81-84.2 01-.61-.75l-.17-3.55a.37.37 0 01.45-.38c.86.21.88.98.7 1.78-.65 2.95 1.88 4.21 2.43 6.64zm-16.341-8.532a.26.26 0 00-.269-.25l-16.49.546a.26.26 0 00-.252.269l.054 1.619a.26.26 0 00.268.25l16.49-.546a.26.26 0 00.252-.269l-.053-1.619zM245.25 259.54l1.46 1.46c3.49 3.08 8.12.04 8.78-3.97q.61-3.72 1.83-7.36a.57.56-8.8 00-.87-.63c-4.46 3.21-.47 8.44-6.2 11q-.17-.07-.28-.18a.43.43 0 01-.04-.58q2.71-3.33 2.28-7.78 1.06-.77 1.53-1.55a.59.58 15.2 00-.51-.89l-10.77.25a.71.71 0 00-.67.57c-.77 3.81-.56 7.9 3.46 9.66zm14.33-7.102a1.65.48 86.9 00.39-1.674 1.65.48 86.9 00-.57-1.622 1.65.48 86.9 00-.39 1.674 1.65.48 86.9 00.57 1.622zm44.17 1.022l-1.25 1.08c-1.77-1.98-5.84 8.03-6.04 8.99a.65.64 76.7 001.03.64q3.83-3.03 8.12-4.78l1.35-.19a.38.37-14.4 00.3-.5l-2.01-5.49-.03-.48a.4.39 79.8 00-.5-.35q-.77.21-.97 1.08zm-64.46 11.38l15.65 10.03a1.03 1.03 0 001.53-.53l.55-1.56a.95.94 32.5 00-.22-.97q-6.73-6.89-15.17-11.53a.73.73 0 00-1.01.3l-1.64 3.11a.88.87 30.4 00.31 1.15zm26.96 32.2l-7.25 1.17-9.39-.04a.38.36-10.1 01-.35-.23q-.08-.19-.21-.23-9.51-3.32-13.1-12.02c-1.84-4.43-1.54-10.13-1.74-15.24a1.31 1.31 0 00-1.91-1.12q-2.12 1.08-2.15 2.98c-.31 24.39 13.85 34.01 36.85 29.4q2.54.1 4.25-1.67c9.97-4.23 18.7-14.47 24.15-23.54 3.98-6.62 9.25-10.23 16.83-11.68a.63.61 82.8 00.5-.66l-.08-1.07a.7.68 2.1 00-.6-.63c-8.84-1.18-15.01 4.95-19.17 11.85-6.36 10.53-14.43 19.56-26.63 22.73zm-78.35-26.18c3.03-6.1-17.02-7.56-16.29.37a.67.66-3.1 00.69.61l14.85-.5a.88.87 12 00.75-.48zm68.85-2.69c.61 3.02 9.12 4.28 11.39 4.21a.43.42-39.6 00.08-.84q-5.73-1.27-11.08-3.69-.5-.23-.39.32zm-10.25 22.54l4 2.33q2.54 1.65 4.25-.5 1.61-.19 2.09-1.43a1.18 1.13 43.8 00-.04-.92l-3.97-8.29q-.57-.47-.45-1.13a.45.44 13.4 01.58-.35q1.87.63 2.28-1.15c.57-2.49-17-13.62-15.9-4.25.83 7.05 1.68 11.58 7.16 15.69zm26.664-15.69a1.63.62 65.2 00-.121-1.74 1.63.62 65.2 00-1.247-1.22 1.63.62 65.2 00.121 1.74 1.63.62 65.2 001.247 1.22zm2.856 10.93c-3.21 1.91-11.58-1.18-15.35-2.01q-2.15-.47-1.14 1.49l3.28 6.39a.74.74 0 00.8.38q7.69-1.49 13.85-6.35a.49.49 0 00.11-.65c-2.52-4.06-3.86-8.98-9.07-10.22q-5.99-1.44-9.68-2.62-.87-.28-.35.48 1.63 2.36.11 5.07a1.04 1.04 0 00.69 1.52c3.26.69 16.4 2.59 17.09 5.75a.73.71-21.9 01-.34.77zm-158.06 2.4l-8.19 8.63q-.38.41.14.21c8.9-3.32 18.52-4.39 27.84-5.98q17.36-1.36 34.75-.25l55.99 2.76a.39.38-80.6 01.35.5q-.51 1.72-1.31 3.31c-1.96 3.91-2 8.61-1.53 12.89a.37.37 0 00.56.27q.49-.3.53-1.13c.24-4.71.84-12.06 4.63-15.45a.74.73 57.6 00.18-.84l-3.19-7.27q-1.39-3.99-1.44-7.81a1.24 1.23-.5 00-1.24-1.21q-24.28.18-48.46-.41-20.57-.5-34.38.53-14.19 1.07-25.23 11.25zm174.28.34l-7.16 7.44q-.37.39.16.41c10.23.39 19.94.58 30.66 1.24 13.2.81 26.88.13 39.91 2.1 5.77.87 11.68.09 17.65.67q.51.05.09.35c-3.96 2.8-6.29 3.18-6.29 8.85q-.02 17.57-.01 35.14c0 5.7.73 9.66 6.63 10.99a.2.2 0 00.16-.36q-3.57-2.58-3.57-7.02-.01-19.97.28-39.93.02-1.02.18-2.06a1.35 1.35 0 01.5-.86l5.11-4.03q.32-.25.53-.59c.54-.88 1.44-.21 1.95-.17 17.51 1.05 34.98 1.54 52.48 2.84a.78.77 15.1 00.74-.42q1.16-2.21.97-4.78l.7-5.17a.67.67 0 00-.4-.71q-2.99-1.32-6.26-1.66l-2.5-.67c-.47-.21-1.2-.59-1.7-.65q-54.54-6.72-109.36-10.64c-3.55-.26-7.73-1.29-11.68-1.51a1.21 1.18 24.9 00-.88.31q-5.2 4.65-8.89 10.89zm-11.15-8.86q-1.58.89-.62 2.34a.56.56 0 001.02-.21l.3-1.64q.18-.99-.7-.49zM430.3 463.22c14.37.01 28.82.9 43.21 1.39q4.11.14 6.1-3.91.22-.45-.25-.25c-3.3 1.43-6.5 1.26-10.01 1.81-2.93.46-3.61-.71-3.56-3.45.37-18.04-1.3-38.26-1.3-57.31l.02-83.46c0-4.93.99-23.29 9.07-22.34a.68.68 0 00.66-1.03c-3.48-5.69-13.58-10.63-19.99-12.55-5.75-1.72-10.43-1.01-12.63 4.97-6.12 16.58-8.79 37.25-10.06 55.88Q430 365.99 430 373.25c.04 29.82-.69 59.67-.21 89.47a.51.51 0 00.51.5zM180.19 300.31c2.45 3.13 1.26 6.17 1.45 9.71q.03.53.33.09c1.54-2.32 2.85-10.07-1.95-10.23q-.37-.01-.16.3.12.18.33.13zm37.38.83c-.77 3.25 3.15 4.46.18 8.65a.33.33 0 00.2.52c3.48.7 2.72-5.9 1.96-7.88q-.58-1.51-1.7-1.72a.56.56 0 00-.64.43zm254.96 17.84q.57.19 1.2-.11a.8.78-15.7 00.45-.78l-1.6-17.21a.47.47 0 00-.93-.02l-2.27 17.58a.92.91 82.9 001.24.97l1.03-.41a1.3 1.27-45.7 01.88-.02zM269.79 336c-.05 2.67 2.17 1.75 3.75 2.4a.52.51 10.9 01.33.48l-.28 22.75a1.21 1.21 0 01-1.18 1.19c-2.63.09-3.46 1.63-3.36 4.15q.32 8 .19 16.07a.67.66 3.8 00.59.67l2.19.28a1.07 1.06-13.1 01.76.47q1.7 2.61.19 4.75-5.73 8.18-7.81 12.53a.61.6 19.7 01-.69.32q-.98-.26-1.99-.33-17.52-1.3-34.61-3.33a.71.7-86.8 01-.62-.7v-78.68a.42.42 0 00-.82-.15q-.59 1.64-.59 3.38c.03 25.61-.09 51.22.27 76.86a.59.59 0 00.51.57c12.94 1.95 25.99 3.25 39.09 4.88a1.16 1.14-74.2 001.18-.67q2.89-6.37 7.89-11.59c2.05-2.15 2.39-4.05 2.24-6.85a.92.92 0 01.53-.88l1.85-.86a.82.81-7.6 00.47-.61q.73-4.26.66-8.61c-.05-3.74-5.64-2.74-8.18-2.82a.71.71 0 01-.68-.71l.04-4.57a1.06 1.06 0 01.5-.9q3.18-1.99 5.77.07a1.4 1.37-75.4 01.51.89l.3 2.01q.11.77.65.21c2.53-2.62.63-4.73-1.79-6.23a.87.85-74.3 01-.4-.73v-23.08a.69.69 0 01.62-.69l2.15-.24a.62.61 86.5 00.54-.63l-.27-10.67q-3.98-1.13-7.35-.54a.99.99 0 01-1.16-.98l.04-5.08a.87.86-6.3 01.68-.84q4.12-.91 7.74 1.39 1.2.75.68-.56l-.9-2.32a.91.9-7.7 00-.77-.58l-1.93-.19a.65.65 0 01-.6-.65l.03-14.73a.47.47 0 00-.77-.37c-2.72 2.21-2.33 11.53-2.24 14.87a.78.77-8.5 01-.58.77l-2.61.67a.79.79 0 00-.55.55c-1.47 5.23-.49 14.25-.21 18.19zm34.47 1.75c-.12 6.16-1.3 16.5 7.05 17.76q.51.07.16-.31c-2.4-2.71-4.23-4.83-4.39-8.7q-.2-4.69.15-10.76.45-7.89.52-26.91c.02-3.84 1.48-5.7 4.78-7.17a.41.41 0 00-.21-.79q-7.78.81-7.86 9.14c-.08 9.26.01 16.67-.2 27.74zm19.29-28.44c.06-4.67 2-5.14 4.81-8.08q.36-.38-.16-.3-8.26 1.25-8.39 9.82-.2 13.2.09 36.19.09 7.17 6.78 8.37.49.09.14-.27-4.13-4.22-3.69-9.97c1.01-13.15.3-25.9.42-35.76zm13.64 43q1.95 2.25 5.07 3.25.49.16.26-.3-.83-1.63-1.73-3.24c-2.35-4.24-1.6-10.18-1.31-15.52q.33-5.93-.18-27.44c-.13-5.48 4.3-4.52 5.06-7.48a.35.34 1.6 00-.4-.42c-9.5 1.81-8.88 9.08-8.67 16.64.17 6.11-1.18 30.97 1.9 34.51zm13.86-6.22c.04 4.85 2.2 9.36 7.7 9.58q.52.02.21-.4c-2.36-3.14-3.37-3.15-3.42-7.52q-.2-20.5.18-41.02a1.22 1.19-21.6 01.38-.85c.88-.82 4.15-2.98 4.32-4.37a.47.47 0 00-.63-.5l-7.01 2.53a1.02 1.02 0 00-.64.69q-1.32 4.71-1.29 10.46.09 15.7.2 31.4zm-177.44 4.41c-1.51-3.09-2.8-8.73 1.07-10.72a.86.83-13.1 00.46-.71c.18-5.91 1.06-12.8-1.57-15.75q-.33-.37-.43-.86c-.77-3.71-2.42-6.93 1.38-9.7a1.61 1.59 81.1 00.59-.82q1.24-4.03 4.31-6.95a.9.9 0 00-.31-1.5q-4.79-1.74-7.85 1.89a1.67 1.65-24.3 00-.39 1.01c-.19 4.9-.39 9.64-.27 14.79.2 8.65-.3 17.82-.22 25.84q.16 13.74-.21 27.47c-.55 20.81-.17 41.76-.17 62.59a.7.7 0 00.58.69l3.33.59q1.28.23.36-.68c-2.96-2.94-4.31-8.58.2-10.99a.74.73-14.6 00.38-.64l-.15-16.68a1.23 1.21-68.6 00-.38-.89q-3.48-3.36-2.44-8.3a1.82 1.79 73.7 01.47-.88c3.79-3.89 2.35-10.68 2.44-15.77a1.77 1.72-60.7 00-.25-.94c-2.4-4.08-5.53-9.88-.67-12.77a1.78 1.78 0 00.87-1.51c.05-4.84.94-13.55-1.13-17.81zm34.64-45.21l-1.11-.03a.79.78-76.4 00-.74.46q-1.73 3.86-1.61 8.08c.05 1.78-.65 3.06-1.04 4.74l-.25-.42a.9.89-13.5 00-.71-.43l-26.72-1.62a.62.61-76.7 00-.61.38q-1.03 2.52.34 4.7a1.16 1.16 0 00.86.54q13.56 1.5 27.09.77.83 1.48.95 2.61 1.11 10.73-1.44 20.92-13.8-2.63-27.14-2.76a.9.88 16 00-.75.4q-1.17 1.77-.2 3.63a1.09 1.07-10.1 00.82.56l27.76 3.14q.64 1.61.84 4.48.82 11.46-.98 21.19-13.92-3.28-27.65-4a.97.96 20.4 00-.82.37c-2.1 2.63.91 4.41 3.11 4.75q12.46 1.93 25 3.21l.7.9a1.78 1.71-67.6 01.35.89q1.16 11.26-.26 22.5-.49-1.71-2.23-1.89-12.88-1.36-25.75-3.15a.98.95 24.6 00-.82.29q-1.29 1.35-.52 3.21a1.11 1.09-.5 00.62.6c8.04 3.1 16.37 3.05 27.37 4.69a.57.56-77.6 00.62-.41l.71-2.59q.75 12.01.5 24.04c-.05 1.89-.81 3.77-1.08 5.71q-.31-1.42-1.45-1.57-13.26-1.72-26.52-3.5a.61.59 11.4 00-.65.42c-1.06 3.49 2.74 5.08 5.36 5.3q11 .93 21.85 3.29a.76.75-66.7 00.79-.32q.58-.84.66-1.91l1.3 7.67a.56.56 0 00.81.4q.31-.17.68-.78l3.9.24a.76.76 0 00.81-.72c1.71-34.42 1.03-69.05 1.34-103.52.08-8.47-.36-21.3.11-31.98a1.07 1.05-14.1 01.52-.85l2.16-1.29a1.81 1.77-2.3 00.66-.7q.93-1.78-.68-2.44-4.09-1.71-6.86 1.8zm24.8 9.26c1.2-.02 3.1.45 4.5.16a1.6 1.6 0 001.1-2.28q-1.55-3.07-4.37-1.97-6.25 2.43-12.32 5.44-.49.24.01.45 1.08.46 2.31-.02 4.42-1.73 8.77-1.78zm-117.024.138a1.99 1.99 0 00-1.574-2.333l-10.916-2.122a1.99 1.99 0 00-2.333 1.574l-.149.765a1.99 1.99 0 001.574 2.333l10.916 2.122a1.99 1.99 0 002.333-1.574l.149-.765zm125.454.002l-.43 1.45q-.33 1.14.51.31c1.11-1.08 3.33-3.38 1.62-4.32a.83.83 0 00-.9.06q-.7.51-.67 1.44.02.54-.13 1.06zm-127.65 9.822a1.99 1.99 0 00-1.61-2.308l-10.968-1.954a1.99 1.99 0 00-2.308 1.61l-.133.748a1.99 1.99 0 001.61 2.308l10.967 1.954a1.99 1.99 0 002.308-1.61l.133-.748zm356.7-1.352c-.35.92-.49 1.36-.57 2.36q-.68 9.12-1.23 18.24c-.61 9.96.53 20.49.72 32.8.1 6.02-1.21 13.18-.71 20.01q1.24 17.26.7 34.7a.38.37-7.7 00.49.37c1.22-.38.83-2.21.83-3.12q-.14-32.86.3-65.72c.15-11.14-.2-23.98-.03-35.99.02-1.14-.93-2.29.58-3.38q.64-.45-.14-.44l-.71.01a.25.25 0 00-.23.16zm4.31 1.73l-1.86-.17a.6.6 0 00-.65.62c.5 17.12-.24 36.33.31 54.6.52 17.18-.04 33.92.19 51.05a.55.55 0 00.87.45q.07-.05.26-.46.11-.22.11-.49c-.08-7.91-.4-42.55.88-42.98a.64.63 81.9 00.42-.57q1.14-30.69.11-61.38a.71.69 1.9 00-.64-.67zm-363.635 9.085a1.61 1.61 0 00-1.364-1.823l-11.64-1.678a1.61 1.61 0 00-1.823 1.364l-.183 1.267a1.61 1.61 0 001.364 1.823l11.64 1.678a1.61 1.61 0 001.823-1.364l.183-1.267zm-2.847 11.599a2.07 2.07 0 00-1.611-2.444l-10.933-2.244a2.07 2.07 0 00-2.443 1.611l-.109.53a2.07 2.07 0 001.611 2.443l10.932 2.244a2.07 2.07 0 002.444-1.611l.109-.53zm-2.713 9.827a1.72 1.72 0 00-1.46-1.946l-11.841-1.685a1.72 1.72 0 00-1.945 1.46l-.164 1.15a1.72 1.72 0 001.46 1.945l11.841 1.685a1.72 1.72 0 001.945-1.46l.164-1.15zm-2.215 11.822a2.21 2.21 0 00-1.775-2.572l-11.252-2.065a2.21 2.21 0 00-2.573 1.774l-.04.217a2.21 2.21 0 001.775 2.572l11.252 2.065a2.21 2.21 0 002.573-1.774l.04-.217zm373.05 25.997q-.31 1.49-.32 2.78-.17 16.94-.15 33.9a.63.63 0 00.7.63l1.76-.18a.58.57 85.3 00.51-.61l-2.19-36.5a.16.16 0 00-.31-.02zm-341.37 10.27c2.6-.22 4.43 1.87 5.77 3.84a.52.52 0 00.95-.38q-1.07-6.01-6.87-7.27a1.42 1.41-52.3 00-.92.12q-6.7 3.43-6.62 10.95a.59.59 0 001.13.25c1.56-3.33 1.98-7.11 6.56-7.51zM150.96 501l9.46 28.02a.61.6-13.9 00.68.4q.49-.09.9-.46l16.5-4.17 12.33-3.46a.41.41 0 00.27-.53q-9.42-25.71-18.39-51.5-.56-1.63-4.02-1.84l-8.19-5.47a.37.36-81.4 00-.55.41c.54 1.82 4.95 16.29.68 16.02a.52.51-84.8 01-.48-.58q.43-3.01-.18-5.08-6.19-21.13-15.66-46.12c-1.85-4.89-3.66-15.51-6.98-19.16a.97.95-26.9 00-.92-.29q-2 .45-3.52 1.85a.85.83-30.5 00-.23.85q8.48 27.35 17.42 54.54 2.52 7.65 6.22 14.9a.37.37 0 01-.59.42q-5.43-5.72-7.83-13.3a.38.38 0 00-.71-.03l-4.63 11.12a1.46 1.45 46.2 00-.02 1.09l8.44 22.37zm193.26-87.11l.16 5.84a1.12 1.1-19.9 01-.44.92q-5.92 4.5-5.9 12.12.01 1.11.35.06c3.38-10.32 18.47-13.08 19.43.16q.04.5.29.06c3.62-6.42-2.68-13.04-8.84-13.98a.61.6 4 01-.51-.58l-.05-6.45a2.15 2.15 0 00-1.48-2.03c-6.79-2.21-25.1-5.45-30.47 1.09q-.39.48.23.44 12.73-.82 25.42.4a2 2 0 011.81 1.95zm-215.06 5.76l1.34 1.35q.79.8 1-.31l.32-1.74q.16-.88-.66-.53l-1.92.83a.25.25 0 00-.08.4zm20.53 3.41q7.76.58 15.51 1.45.51.05.1-.26c-3.66-2.73-12.36-2.74-17.02-3.42a.37.37 0 00-.42.43q.3 1.69 1.83 1.8zm137.95 36.82l1.28-.62a.96.96 0 00.54-.76q1.32-13.13 5.15-25.74c.78-2.57 2.2-5.16 3.21-7.81q.18-.49-.15-.09c-7.43 8.67-9.57 23.48-10.84 34.44a.57.57 0 00.81.58zm14.31-30.95q-1.56 1.86-2.35 4.52a.36.35 7.4 00.36.46c9.92-.38 20.15.7 30.2.68a.57.57 0 00.56-.54l.24-5.3.23-1.24a.46.46 0 00-.45-.54q-13.18.19-26.34-.21c-1.57-.05-2.17.76-2.45 2.17zm48.09 1.29q-2.82-1.86-4.67 1.2c-9.95 16.47-19.06 30.15-27.19 45.07-4.47 8.2-9.92 15.98-11.71 25.26a.75.74 79.2 001.13.77c6.85-4.4 11.84-11.9 15.81-18.79 1.35-2.33 3.29-4.17 4.69-6.48q5.51-9.08 20.65-35.22c2.15-3.71 6.36-8.48 1.29-11.81zm120.42 25.53q.2 1.25 1.22 1.42a.89.86-66.5 00.83-.34q.83-1.08-.3-2.33c-.94-7.23.42-9.94 2.09-15.62a.51.5-74.5 01.61-.35c3.52.85 4.97-2.45 2.14-4.28a1.18 1.17 55.4 00-.91-.17l-6.13 1.41a.58.57 83.7 00-.44.56q.05 8.62-.1 17.2-.03 2.06.99 2.5zm4.75-10.25q-.87 1.23-.67 2.75l-.24 2.82a.48.48 0 00.48.52c1.09 0 5.59-1.04 5.83.74a.67.66 75.5 01-.41.71c-.76.32-3.06.59-3.47 1.15q-.33.46.23.5l4.36.32a.86.83-75.1 00.82-.49l1.82-3.87a.79.79 0 01.72-.46l19.97.21a.58.57 87.2 01.57.52c1.09 12.62.25 25.78.91 38.55a.85.83 4.5 00.68.78l1.4.28a.57.57 0 00.68-.56q-.13-15.16-.38-30.34c-.06-3.94-2.21-6.39-1.43-10.86a.78.78 0 00-.74-.91l-23.21-.82a.83.83 0 01-.68-1.25l1.01-1.68q.36-.61-.35-.61h-6.61a.74.73 10.3 00-.69.47l-.6 1.53zm34.02 7.127a2.48.85 99.3 001.239-2.31 2.48.85 99.3 00-.438-2.584 2.48.85 99.3 00-1.24 2.31 2.48.85 99.3 00.438 2.584zM296.39 483.9q-8.58 11.13-12.47 17.52-6.91 11.34-13.96 22.58l-3.56 5.81a.73.72 38.9 00.1.89l30.36 30.95a.6.58 47.2 00.8.04q1.71-1.47 2.59-3.65 7.24-13.34 15.05-26.35c4.49-7.49 8.58-15.5 12.99-23.19l-1.05-23.38q-.14-2.94-1.81-.52c-5.02 7.28-8.79 16.72-17.26 20.8a1.36 1.34 39 01-.94.09q-2.42-.67-2.36-3.04.32-12.8 7.66-23.26a.56.56 0 00-.65-.85l-15.49 5.56zm241.768 2.867a.56.56 0 00-.58-.54l-.24.009a.56.56 0 00-.54.579l.125 3.558a.56.56 0 00.579.54l.24-.009a.56.56 0 00.54-.579l-.125-3.558z"/><path fill="#fff" d="M331.29 85.86l.64-2.13a.67.67 0 01.64-.48h.68a.69.69 0 01.67.52l.51 2.02a.81.8 84.7 00.74.62l6.38.3q.93.05.17.59l-3.38 2.38a1.6 1.59-31.6 00-.49 2.04l2.09 3.99a.42.42 0 01-.61.54l-5.16-3.49a1.52 1.52 0 00-1.67-.02l-5.89 3.81a.39.39 0 01-.57-.48l2.64-5.89a.84.84 0 00-.29-1.04L325.33 87a.24.24 0 010-.4c.42-.28 4.39-.11 5.2-.15a.82.81 6.8 00.76-.59z"/><path d="M357.21 91.25l.57 16.65a.75.73-81.2 00.48.67c2.39.91 4.65 1.63 6.9 2.79 38.89 20.11 82.59 41.11 105.28 78.58 11.82 19.52 15.83 41.19 8.79 63.27q-5.2 16.28-21.73 24.08-.51-.25-.95.13-.38.32-.43-.17l-.37-3.46 5.95-2.79q12.37-9.03 15.38-24.46 1.89-3.61 1.63-8.04 1.83-15.18-3.37-28.57c-11.09-28.56-32.39-49.84-57.51-67.26q-5.63-3.91-10.53-6.21-.46-.22-.09.13c9.33 8.64 14.02 15.45 19.14 26.6 6.19 13.49 8.5 27.21 6.86 42.06q-2.49.38-4.21-1.54c-.02-1.87.57-3.52.47-5.3q-.77-13.98-1.72-18.42-5.38-25.13-24.19-41.34-4.77-4.12-13.36-8.77-12.57-6.79-25.28-13.41-.45-.24-.19.2c2.2 3.73 5.61 7.21 7.63 10.38 17.23 27.06 30.69 55.29 41.42 85.49q3.31 9.32 6.97 18.5-.94.84-2.12.91a.9.89 70.2 01-.78-.37q-.55-.77-1.56-.58l-5.25-16.75q-9-25.6-21.29-49.79c-7.24-15-15.73-31.74-26.83-44.25a.42.42 0 00-.71.43c1.92 5.18 2.82 11.42 3.74 15.7 8.5 39.52 12.35 79.32 7.84 119.66q-.33.48-.25.91a.67.67 0 00.63.54l8.79.3 14.29 1.04c1.09.49 2.63 1.21 1.86 2.74a.84.83 13.1 01-.75.46l-2.04.01q-.58 0-.05.23l.33.14q.12.06-.01.07l-.84.1c-8.79-.18-16.99-1.38-25.57-2.21a.5.49 5.8 01-.45-.54c4.28-44.84 2.07-89.37-9.28-132.53q-.47-1.79-.43-6.05 0-.51-.28-.08c-2.22 3.44-.54 19.36.05 26.62l-.18 2.68a.6.6 0 01-.8.53l-.57-.19a.74.73-78.8 01-.5-.75q.53-8.96-2.23-17.4.54-10.9.26-21.52c-.02-1.09-.52-2.16-.56-3.35l-.13-2.95q.95-6.56.38-13.05l.27-.37a.72.71-66.4 01.72-.29l.76.16z"/><path fill="#a2a3a4" d="M355.46 91.75q.57 6.49-.38 13.05-1.6-6.22-.33-12.55.11-.53.71-.5zM355.21 107.75c.04 1.19.54 2.26.56 3.35q.28 10.62-.26 21.52-2.45-12.43-1.15-24.95a.4.39-77.1 01.53-.34q.27.1.32.42z"/><path fill="#909394" d="M352.05 162.22q-1.72 11.21-.73 22.48c.33 3.74-.2 7.62.22 11.54a.67.66.6 00.57.58q.82.1 1.1-.82l.5 16q-1-.58-1.81-.14a.79.77 71.5 00-.39.8q1.75 11.26.41 22.61a1.16 1.14-17.2 01-.41.76l-1.8 1.47-27.46-5.96.56-.04a.46.46 0 00.4-.59q-.12-.37-.65-.47-7.1-1.22-14.1.31l-16.15 1.1a.81.8-80 01-.79-1.13c9.05-20.34 19.42-39.46 29.27-59.22q.62.01 1.21.5a.45.44-50.9 00.65-.07q3.05-4.09 3.04-9.21l3.02-5.97q.41.47.86.5a.74.72 15.9 00.67-.36q5.75-9.95 10.51-19.87.8-1.66-.46-2.52 3.68-7.87 8.1-15.34c.81-1.37 1.07-3.37 2.01-4.91a.4.4 0 01.74.25q-.22 2.4-.02 4.99 1.6 21.38.93 42.73z"/><path fill="#fdfcde" d="M429 203.71q-2.21 14.25-8.25 27.33-3.66-9.18-6.97-18.5c-10.73-30.2-24.19-58.43-41.42-85.49-2.02-3.17-5.43-6.65-7.63-10.38q-.26-.44.19-.2 12.71 6.62 25.28 13.41 8.59 4.65 13.36 8.77 18.81 16.21 24.19 41.34.95 4.44 1.72 18.42c.1 1.78-.49 3.43-.47 5.3z"/><path fill="#909394" d="M389.75 164.46q-1.38.42-.7 1.74c5.4 10.43 9.69 21.5 14.35 32.02.74 1.67 5.32 16.5 7.64 16.03l5.25 16.75 1.5 3.57a.88.86 51.5 01-.09.86l-3.91 5.57q-2.56 2.08-4.05 5c-1.8 3.53-5.83 7.35-6.45 10.97a.91.91 0 00.3.83l.45.39q-3.24 1.25-6.79.6l-14.29-1.04.04-.64a.54.54 0 00-.51-.59l-8.7-.52c4.51-40.34.66-80.14-7.84-119.66-.92-4.28-1.82-10.52-3.74-15.7a.42.42 0 01.71-.43c11.1 12.51 19.59 29.25 26.83 44.25z"/><path fill="#fdfcde" d="M395.75 262.54l4.05.27a.37.37 0 01.33.49c-.86 2.61-2.51 6.96-6.41 6.38q-13.43-2-27.55-3.21a.98.97 2.9 01-.89-.98c.12-11.51-1.18-26-1.54-34.4q-1.77-41.68-3.95-83.34c-.59-7.26-2.27-23.18-.05-26.62q.28-.43.28.08-.04 4.26.43 6.05c11.35 43.16 13.56 87.69 9.28 132.53a.5.49 5.8 00.45.54c8.58.83 16.78 2.03 25.57 2.21z"/><path fill="#a2a3a4" d="M340.29 134.5q1.26.86.46 2.52-4.76 9.92-10.51 19.87a.74.72 15.9 01-.67.36q-.45-.03-.86-.5l11.58-22.25z"/><path fill="#fff" d="M478.71 238.5c-1.03-.01-1.91-.1-2.9.26-17.55 6.46-35.76 14.15-51.74 24.35q-10.28 6.56-20.57 13.1l-3.09.53a.41.41 0 01-.42-.61c10.41-17 21.3-33.82 29.34-52.06q3.17-7.2 3.88-18.82c1.64-14.85-.67-28.57-6.86-42.06-5.12-11.15-9.81-17.96-19.14-26.6q-.37-.35.09-.13 4.9 2.3 10.53 6.21c25.12 17.42 46.42 38.7 57.51 67.26q5.2 13.39 3.37 28.57z"/><path fill="#a2a3a4" d="M352.05 162.22l1.16 33.78q-.28.92-1.1.82a.67.66.6 01-.57-.58c-.42-3.92.11-7.8-.22-11.54q-.99-11.27.73-22.48zM325.69 162.72q.01 5.12-3.04 9.21a.45.44-50.9 01-.65.07q-.59-.49-1.21-.5l4.9-8.78zM389.75 164.46q12.29 24.19 21.29 49.79c-2.32.47-6.9-14.36-7.64-16.03-4.66-10.52-8.95-21.59-14.35-32.02q-.68-1.32.7-1.74z"/><rect fill="#fdfcde" x="-1.06" y="-34.61" transform="rotate(-28.5 539.74 -203.837)" width="2.12" height="69.22" rx="1.04"/><path fill="#a2a3a4" d="M353.71 212l.53 26.75a.34.34 0 01-.46.33l-4.07-1.58 1.8-1.47a1.16 1.14-17.2 00.41-.76q1.34-11.35-.41-22.61a.79.77 71.5 01.39-.8q.81-.44 1.81.14z"/><path fill="#fff" d="M133.45 224.41l2.71-2.66a.64.64 0 011.09.45v3.66a1.18 1.17-70.2 00.42.9l4.03 3.4a.68.67 62.5 01-.37 1.19l-5.04.44a1.04 1.03-89.3 00-.94.93l-.54 5.54q-.17 1.85-.73.08l-1.56-5.03a.57.57 0 00-.68-.38l-2.28.6a.7.7 0 01-.81-.98l1.79-3.79a1.29 1.28-43.6 00.03-1.05l-1.56-3.69a.72.72 0 01.21-.84c.93-.76 2.36.55 3.39 1.29a.66.65 40.5 00.84-.06z"/><path fill="#a2a3a4" d="M322.25 231.54l-13.79-.79q7-1.53 14.1-.31.53.1.65.47a.46.46 0 01-.4.59l-.56.04z"/><path fill="#909394" d="M259.75 230.96q-.58.1-.74.49a.56.55 27.1 00.23.69l5.07 2.98a.5.49-27.6 01-.29.92q-4.98-.36-8.05 3.4a1.04 1.03 21.1 01-.89.39q-1.66-.14-1.83 1.38l-9.19.43q.9-5.47 5.17-9.05a.78.77 60.5 00.23-.84l-.18-.5q5.35-1.38 10.47-.29z"/><path fill="#a2a3a4" d="M259.75 230.96q4.86.95 8.23 5.47a.94.94 0 01-.68 1.5l-7.31.58a1.25 1.24 15.6 00-.93.52q-2.14 2.93-5.81 2.18.17-1.52 1.83-1.38a1.04 1.03 21.1 00.89-.39q3.07-3.76 8.05-3.4a.5.49-27.6 00.29-.92l-5.07-2.98a.56.55 27.1 01-.23-.69q.16-.39.74-.49zM249.28 231.25l.18.5a.78.77 60.5 01-.23.84q-4.27 3.58-5.17 9.05-1.82.75-2.46-.58a1.11 1.1-46 01-.01-.93q2.52-5.61 7.69-8.88z"/><path fill="#909394" d="M360.09 264.86c-1.82-2.51-1.19-25.33-.2-28.88q.18-.64.3.01 2.57 14.06 1.89 28.27a1.1 1.1 0 01-1.99.6zM478.71 238.5q.26 4.43-1.63 8.04-3.12 3-4.41 7.1-1.17 3.72-1.97 5.04-3.84 6.37-9.57 11.22-.47.4.57 1.1l-5.95 2.79q-10.46 2.61-21.25 2.07c-5.15-.26-9.9-.55-15.32-.02q-7.82.76-15.68.37 10.29-6.54 20.57-13.1c15.98-10.2 34.19-17.89 51.74-24.35.99-.36 1.87-.27 2.9-.26z"/><path fill="#a2a3a4" d="M413.79 241q-1.28 2.48-2.56 4.95c-2.13 4.11-5.2 7.7-7.19 12.24l-.45-.39a.91.91 0 01-.3-.83c.62-3.62 4.65-7.44 6.45-10.97q1.49-2.92 4.05-5z"/><path fill="#fff" d="M276.75 252.79l-1.21-.29c-.55-2.43-3.08-3.69-2.43-6.64.18-.8.16-1.57-.7-1.78a.37.37 0 00-.45.38l.17 3.55a.82.81-84.2 00.61.75l.25.07a.41.41 0 01.27.23c1.65 3.72-4.02 3.77-6.08 3.94-6.59.53-9-7.98-4.65-11.67a1.37 1.34 24.1 01.89-.33c3.3-.03 8.07-.72 10.53 1.64a.82.81-31.6 00.82.19c1.26-.41 4.52-.96 4.5 1.09a.58.58 0 01-.5.56c-2.63.36-1.75 4.99-1.2 6.58a.96.96 0 01-.16.91l-.66.82zm-10.76-7.72c-1.3 3.04-.75 5.87 3.12 6.17a1.32 1.32 0 001.42-1.41l-.36-4.87a.7.69-17.3 01.35-.65l1.03-.59q.84-.48-.09-.77c-2.36-.73-4.41-.34-5.47 2.12z"/><path d="M265.99 245.07c1.06-2.46 3.11-2.85 5.47-2.12q.93.29.09.77l-1.03.59a.7.69-17.3 00-.35.65l.36 4.87a1.32 1.32 0 01-1.42 1.41c-3.87-.3-4.42-3.13-3.12-6.17z"/><rect fill="#fdfcde" x="-8.51" y="-1.07" transform="rotate(-1.9 7514.632 -7437.408)" width="17.02" height="2.14" rx=".26"/><path fill="#a2a3a4" d="M477.08 246.54q-3.01 15.43-15.38 24.46-1.04-.7-.57-1.1 5.73-4.85 9.57-11.22.8-1.32 1.97-5.04 1.29-4.1 4.41-7.1zM252.21 251.5l-7.74-.78a.75.73-79.2 00-.78.54q-1.11 4.1 1.69 7.07a.78.78 0 01.16.82q-.1.23-.29.39c-4.02-1.76-4.23-5.85-3.46-9.66a.71.71 0 01.67-.57l10.77-.25a.59.58 15.2 01.51.89q-.47.78-1.53 1.55z"/><path fill="#fff" d="M246.71 261l3.54-.96c5.73-2.56 1.74-7.79 6.2-11a.57.56-8.8 01.87.63q-1.22 3.64-1.83 7.36c-.66 4.01-5.29 7.05-8.78 3.97z"/><ellipse fill="#fff" transform="rotate(86.9 -2.625 262.357)" rx="1.65" ry=".48"/><path fill="#909394" d="M252.21 251.5q.43 4.45-2.28 7.78a.43.43 0 00.04.58q.11.11.28.18l-3.54.96-1.46-1.46q.19-.16.29-.39a.78.78 0 00-.16-.82q-2.8-2.97-1.69-7.07a.75.73-79.2 01.78-.54l7.74.78zM305.25 253.21l-1.5.25q.2-.87.97-1.08a.4.39 79.8 01.5.35l.03.48z"/><path fill="#fff" d="M275 252.79l1.21 1.46q.53 1.91-.71 3.03a1.06 1.05 30 01-.96.25q-1.71-.38-2.8.84-.38.43.18.54l2.89.57q.72.15.19.66l-.3.29a.56.56 0 01-.44.14q-2.56-.38-4.98.33a.72.71 79.4 00-.51.76c.12 1.22 4.36.86 5.39.92a.41.41 0 01.36.56q-.87 2.14-3.21 1.31-.63-.23-.36.39c1.51 3.47.3 5.2-3.32 4.7q-7.32-1.01-12.86-5.91a.57.56 40.4 01-.07-.77q2.97-3.73 2.35-8.6a1.09 1.09 0 011.78-.97q6.3 5.3 13.59-.12 1.21-.9 2.58-.38z"/><path fill="#909394" d="M275.54 252.5l1.21.29-.54 1.46-1.21-1.46.54-.29z"/><path fill="#fff" d="M305.25 253.21l2.01 5.49a.38.37-14.4 01-.3.5l-1.35.19q-.87-.33-1.6-.28a.73.71 74.1 01-.7-.4q-.96-1.95-.81-4.17l1.25-1.08 1.5-.25z"/><path fill="#a2a3a4" d="M302.5 254.54q-.15 2.22.81 4.17a.73.71 74.1 00.7.4q.73-.05 1.6.28-4.29 1.75-8.12 4.78a.65.64 76.7 01-1.03-.64c.2-.96 4.27-10.97 6.04-8.99zM382.96 257.75l-8.79-.3a.67.67 0 01-.63-.54q-.08-.43.25-.91l8.7.52a.54.54 0 01.51.59l-.04.64zM239.29 264.84a.88.87 30.4 01-.31-1.15l1.64-3.11a.73.73 0 011.01-.3q8.44 4.64 15.17 11.53a.95.94 32.5 01.22.97l-.55 1.56a1.03 1.03 0 01-1.53.53l-15.65-10.03z"/><path fill="#fff" d="M271.25 300.04q-2.32.36-4.25 1.67c-23 4.61-37.16-5.01-36.85-29.4q.03-1.9 2.15-2.98a1.31 1.31 0 011.91 1.12c.2 5.11-.1 10.81 1.74 15.24q3.59 8.7 13.1 12.02.13.04.21.23a.38.36-10.1 00.35.23l9.39.04q3.95.8 7.25-1.17c12.2-3.17 20.27-12.2 26.63-22.73 4.16-6.9 10.33-13.03 19.17-11.85a.7.68 2.1 01.6.63l.08 1.07a.63.61 82.8 01-.5.66c-7.58 1.45-12.85 5.06-16.83 11.68-5.45 9.07-14.18 19.31-24.15 23.54zM171.61 271.23c-.73-7.93 19.32-6.47 16.29-.37a.88.87 12 01-.75.48l-14.85.5a.67.66-3.1 01-.69-.61z"/><path fill="#a2a3a4" d="M268.14 272.38c-2.27.07-10.78-1.19-11.39-4.21q-.11-.55.39-.32 5.35 2.42 11.08 3.69a.43.42-39.6 01-.08.84z"/><path fill="#909394" d="M252.83 281.9q-1.73 3.95 1.19 6.89a.86.86 0 01-.29 1.41q-2.77 1.09-5.12-.49a1.26 1.23 55 00-.97-.18q-.88.19-1.14 1.18c-5.48-4.11-6.33-8.64-7.16-15.69-1.1-9.37 16.47 1.76 15.9 4.25q-.41 1.78-2.28 1.15a.45.44 13.4 00-.58.35q-.12.66.45 1.13z"/><ellipse fill="#909394" transform="rotate(65.2 -77.621 349.803)" rx="1.63" ry=".62"/><path fill="#a2a3a4" d="M276.36 285.18c-.69-3.16-13.83-5.06-17.09-5.75a1.04 1.04 0 01-.69-1.52q1.52-2.71-.11-5.07-.52-.76.35-.48 3.69 1.18 9.68 2.62c5.21 1.24 6.55 6.16 9.07 10.22a.49.49 0 01-.11.65q-6.16 4.86-13.85 6.35a.74.74 0 01-.8-.38l-3.28-6.39q-1.01-1.96 1.14-1.49c3.77.83 12.14 3.92 15.35 2.01a.73.71-21.9 00.34-.77z"/><path fill="#fff" d="M228.71 286q-28.78-.76-57.53-2.08-23.13-1.06-32.93-.43-8.95.58-20.29 4.86 11.04-10.18 25.23-11.25 13.81-1.03 34.38-.53 24.18.59 48.46.41a1.24 1.23-.5 011.24 1.21q.05 3.82 1.44 7.81zM424.75 290.29l-1.68 5.54a.57.57 0 01-.63.4c-41.67-6.06-83.59-6.82-130.2-7.54q3.69-6.24 8.89-10.89a1.21 1.18 24.9 01.88-.31c3.95.22 8.13 1.25 11.68 1.51q54.82 3.92 109.36 10.64c.5.06 1.23.44 1.7.65z"/><path fill="#a2a3a4" d="M281.09 279.83q.88-.5.7.49l-.3 1.64a.56.56 0 01-1.02.21q-.96-1.45.62-2.34z"/><path fill="#fff" d="M473.51 464.61c-14.39-.49-28.84-1.38-43.21-1.39a.51.51 0 01-.51-.5c-.48-29.8.25-59.65.21-89.47q0-7.26 1.56-30.28c1.27-18.63 3.94-39.3 10.06-55.88 2.2-5.98 6.88-6.69 12.63-4.97 6.41 1.92 16.51 6.86 19.99 12.55a.68.68 0 01-.66 1.03c-8.08-.95-9.07 17.41-9.07 22.34l-.02 83.46c0 19.05 1.67 39.27 1.3 57.31-.05 2.74.63 3.91 3.56 3.45 3.51-.55 6.71-.38 10.01-1.81q.47-.2.25.25-1.99 4.05-6.1 3.91zm-38.01-87.07q-.15 37.48-.67 74.96-.03 2.2.06 4.48a.5.49 88.8 00.49.48l21.69.23a1.5 1.49.6 001.51-1.47l1.06-79.4c-.13-10.56-1.05-22.34-.82-31.78q.3-12.25 1.67-29.79.76-9.77 1.84-14.58a.46.46 0 00-.42-.56l-18.35-1.68a.65.65 0 00-.69.51q-7.64 35.33-7.79 73.55-.01 3.43.42 5.05z"/><path fill="#a2a3a4" d="M252.83 281.9l3.97 8.29a1.18 1.13 43.8 01.04.92q-.48 1.24-2.09 1.43l-4.25.5-4-2.33q.26-.99 1.14-1.18a1.26 1.23 55 01.97.18q2.35 1.58 5.12.49a.86.86 0 00.29-1.41q-2.92-2.94-1.19-6.89z"/><path fill="#909394" d="M228.71 286l3.19 7.27a.74.73 57.6 01-.18.84c-3.79 3.39-4.39 10.74-4.63 15.45q-.04.83-.53 1.13a.37.37 0 01-.56-.27c-.47-4.28-.43-8.98 1.53-12.89q.8-1.59 1.31-3.31a.39.38-80.6 00-.35-.5l-55.99-2.76q.73-.35.69-1.04a.57.57 0 00-.55-.54q-16.55-.71-33.06.03-1.87.08-1.83 1.8c-9.32 1.59-18.94 2.66-27.84 5.98q-.52.2-.14-.21l8.19-8.63q11.34-4.28 20.29-4.86 9.8-.63 32.93.43 28.75 1.32 57.53 2.08zM292.24 288.69c46.61.72 88.53 1.48 130.2 7.54a.57.57 0 00.63-.4l1.68-5.54 2.5.67q-1.65 2.29-1.43 5.24a.72.71 4.5 00.55.64l6.84 1.66q.19 2.57-.97 4.78a.78.77 15.1 01-.74.42c-17.5-1.3-34.97-1.79-52.48-2.84-.51-.04-1.41-.71-1.95.17q-.21.34-.53.59l-5.11 4.03a1.35 1.35 0 00-.5.86q-.16 1.04-.18 2.06-.29 19.96-.28 39.93 0 4.44 3.57 7.02a.2.2 0 01-.16.36c-5.9-1.33-6.63-5.29-6.63-10.99q-.01-17.57.01-35.14c0-5.67 2.33-6.05 6.29-8.85q.42-.3-.09-.35c-5.97-.58-11.88.2-17.65-.67-13.03-1.97-26.71-1.29-39.91-2.1-10.72-.66-20.43-.85-30.66-1.24q-.53-.02-.16-.41l7.16-7.44z"/><path fill="#a2a3a4" d="M172.5 290.96q-17.39-1.11-34.75.25-.04-1.72 1.83-1.8 16.51-.74 33.06-.03a.57.57 0 01.55.54q.04.69-.69 1.04z"/><path fill="#fff" d="M427.25 290.96q3.27.34 6.26 1.66a.67.67 0 01.4.71l-.7 5.17-6.84-1.66a.72.71 4.5 01-.55-.64q-.22-2.95 1.43-5.24z"/><path fill="#909394" d="M254.75 292.54q-1.71 2.15-4.25.5l4.25-.5z"/><path fill="#a2a3a4" d="M266.25 297.04q-3.3 1.97-7.25 1.17l7.25-1.17z"/><path fill="#1f1e1d" d="M459.64 376.82q-9.72-6.05-20.08-.8-1.96.99-4.06 1.52-.43-1.62-.42-5.05.15-38.22 7.79-73.55a.65.65 0 01.69-.51l18.35 1.68a.46.46 0 01.42.56q-1.08 4.81-1.84 14.58-1.37 17.54-1.67 29.79c-.23 9.44.69 21.22.82 31.78z"/><path fill="#909394" d="M180.19 300.31q-.21.05-.33-.13-.21-.31.16-.3c4.8.16 3.49 7.91 1.95 10.23q-.3.44-.33-.09c-.19-3.54 1-6.58-1.45-9.71zM271.25 300.04q-1.71 1.77-4.25 1.67 1.93-1.31 4.25-1.67zM218.21 300.71q1.12.21 1.7 1.72c.76 1.98 1.52 8.58-1.96 7.88a.33.33 0 01-.2-.52c2.97-4.19-.95-5.4-.18-8.65a.56.56 0 01.64-.43z"/><path fill="#a2a3a4" d="M471.65 319l-1.03.41a.92.91 82.9 01-1.24-.97l2.27-17.58a.47.47 0 01.93.02l1.6 17.21a.8.78-15.7 01-.45.78q-.63.3-1.2.11a1.3 1.27-45.7 00-.88.02z"/><path fill="#909394" d="M280.29 326.4l-1.6.15a.44.43-7.5 00-.39.5q.77 4.65-.74 9.15a.8.79 7.8 01-.73.55q-3.65.17-7.04-.75c-.28-3.94-1.26-12.96.21-18.19a.79.79 0 01.55-.55l2.61-.67a.78.77-8.5 00.58-.77c-.09-3.34-.48-12.66 2.24-14.87a.47.47 0 01.77.37l-.03 14.73a.65.65 0 00.6.65l1.93.19a.91.9-7.7 01.77.58l.9 2.32q.52 1.31-.68.56-3.62-2.3-7.74-1.39a.87.86-6.3 00-.68.84l-.04 5.08a.99.99 0 001.16.98q3.37-.59 7.35.54z"/><path fill="#a2a3a4" d="M311.31 355.51c-8.35-1.26-7.17-11.6-7.05-17.76.21-11.07.12-18.48.2-27.74q.08-8.33 7.86-9.14a.41.41 0 01.21.79c-3.3 1.47-4.76 3.33-4.78 7.17q-.07 19.02-.52 26.91-.35 6.07-.15 10.76c.16 3.87 1.99 5.99 4.39 8.7q.35.38-.16.31zM328.36 301.23c-2.81 2.94-4.75 3.41-4.81 8.08-.12 9.86.59 22.61-.42 35.76q-.44 5.75 3.69 9.97.35.36-.14.27-6.69-1.2-6.78-8.37-.29-22.99-.09-36.19.13-8.57 8.39-9.82.52-.08.16.3zM337.19 352.31c-3.08-3.54-1.73-28.4-1.9-34.51-.21-7.56-.83-14.83 8.67-16.64a.35.34 1.6 01.4.42c-.76 2.96-5.19 2-5.06 7.48q.51 21.51.18 27.44c-.29 5.34-1.04 11.28 1.31 15.52q.9 1.61 1.73 3.24.23.46-.26.3-3.12-1-5.07-3.25zM358.75 355.67c-5.5-.22-7.66-4.73-7.7-9.58q-.11-15.7-.2-31.4-.03-5.75 1.29-10.46a1.02 1.02 0 01.64-.69l7.01-2.53a.47.47 0 01.63.5c-.17 1.39-3.44 3.55-4.32 4.37a1.22 1.19-21.6 00-.38.85q-.38 20.52-.18 41.02c.05 4.37 1.06 4.38 3.42 7.52q.31.42-.21.4zM174.68 339.78c-3.87 1.99-2.58 7.63-1.07 10.72 2.07 4.26 1.18 12.97 1.13 17.81a1.78 1.78 0 01-.87 1.51c-4.86 2.89-1.73 8.69.67 12.77a1.77 1.72-60.7 01.25.94c-.09 5.09 1.35 11.88-2.44 15.77a1.82 1.79 73.7 00-.47.88q-1.04 4.94 2.44 8.3a1.23 1.21-68.6 01.38.89l.15 16.68a.74.73-14.6 01-.38.64c-4.51 2.41-3.16 8.05-.2 10.99q.92.91-.36.68l-3.33-.59a.7.7 0 01-.58-.69c0-20.83-.38-41.78.17-62.59q.37-13.73.21-27.47c-.08-8.02.42-17.19.22-25.84-.12-5.15.08-9.89.27-14.79a1.67 1.65-24.3 01.39-1.01q3.06-3.63 7.85-1.89a.9.9 0 01.31 1.5q-3.07 2.92-4.31 6.95a1.61 1.59 81.1 01-.59.82c-3.8 2.77-2.15 5.99-1.38 9.7q.1.49.43.86c2.63 2.95 1.75 9.84 1.57 15.75a.86.83-13.1 01-.46.71zM206.29 444.75q-.31-8.34-.27-16.69.26-50.13.25-100.27c0-4.93.56-10.91.51-16.37-.03-2.23.74-4.12 1.47-6.13q2.77-3.51 6.86-1.8 1.61.66.68 2.44a1.81 1.77-2.3 01-.66.7l-2.16 1.29a1.07 1.05-14.1 00-.52.85c-.47 10.68-.03 23.51-.11 31.98-.31 34.47.37 69.1-1.34 103.52a.76.76 0 01-.81.72l-3.9-.24z"/><path d="M208.25 305.29c-.73 2.01-1.5 3.9-1.47 6.13.05 5.46-.51 11.44-.51 16.37q.01 50.14-.25 100.27-.04 8.35.27 16.69-.37.61-.68.78a.56.56 0 01-.81-.4l-1.3-7.67-.04-1.71c.27-1.94 1.03-3.82 1.08-5.71q.25-12.03-.5-24.04v-.75q1.42-11.24.26-22.5a1.78 1.71-67.6 00-.35-.89l-.7-.9.36-4.33q1.8-9.73.98-21.19-.2-2.87-.84-4.48-.91-2.43-.49-4.97 2.55-10.19 1.44-20.92-.12-1.13-.95-2.61v-3.92c.39-1.68 1.09-2.96 1.04-4.74q-.12-4.22 1.61-8.08a.79.78-76.4 01.74-.46l1.11.03z"/><path fill="#a2a3a4" d="M233.05 314.55q-4.35.05-8.77 1.78-1.23.48-2.31.02-.5-.21-.01-.45 6.07-3.01 12.32-5.44 2.82-1.1 4.37 1.97a1.6 1.6 0 01-1.1 2.28c-1.4.29-3.3-.18-4.5-.16z"/><rect fill="#fff" x="-7.55" y="-2.38" transform="rotate(11 -1574.316 720.43)" width="15.1" height="4.76" rx="1.99"/><path fill="#909394" d="M241.61 313.63q-.03-.93.67-1.44a.83.83 0 01.9-.06c1.71.94-.51 3.24-1.62 4.32q-.84.83-.51-.31l.43-1.45q.15-.52.13-1.06zM203.75 318.54v3.92q-13.53.73-27.09-.77a1.16 1.16 0 01-.86-.54q-1.37-2.18-.34-4.7a.62.61-76.7 01.61-.38l26.72 1.62a.9.89-13.5 01.71.43l.25.42z"/><path fill="#a2a3a4" d="M269.79 336q3.39.92 7.04.75a.8.79 7.8 00.73-.55q1.51-4.5.74-9.15a.44.43-7.5 01.39-.5l1.6-.15.27 10.67a.62.61 86.5 01-.54.63l-2.15.24a.69.69 0 00-.62.69v23.08a.87.85-74.3 00.4.73c2.42 1.5 4.32 3.61 1.79 6.23q-.54.56-.65-.21l-.3-2.01a1.4 1.37-75.4 00-.51-.89q-2.59-2.06-5.77-.07a1.06 1.06 0 00-.5.9l-.04 4.57a.71.71 0 00.68.71c2.54.08 8.13-.92 8.18 2.82q.07 4.35-.66 8.61a.82.81-7.6 01-.47.61l-1.85.86a.92.92 0 00-.53.88c.15 2.8-.19 4.7-2.24 6.85q-5 5.22-7.89 11.59a1.16 1.14-74.2 01-1.18.67c-13.1-1.63-26.15-2.93-39.09-4.88a.59.59 0 01-.51-.57c-.36-25.64-.24-51.25-.27-76.86q0-1.74.59-3.38a.42.42 0 01.82.15v78.68a.71.7-86.8 00.62.7q17.09 2.03 34.61 3.33 1.01.07 1.99.33a.61.6 19.7 00.69-.32q2.08-4.35 7.81-12.53 1.51-2.14-.19-4.75a1.07 1.06-13.1 00-.76-.47l-2.19-.28a.67.66 3.8 01-.59-.67q.13-8.07-.19-16.07c-.1-2.52.73-4.06 3.36-4.15a1.21 1.21 0 001.18-1.19l.28-22.75a.52.51 10.9 00-.33-.48c-1.58-.65-3.8.27-3.75-2.4z"/><rect fill="#fff" x="-7.56" y="-2.37" transform="rotate(10.1 -1777.592 763.355)" width="15.12" height="4.74" rx="1.99"/><path fill="#fff" d="M469.96 325.52c.08-1 .22-1.44.57-2.36a.25.25 0 01.23-.16l.71-.01q.78-.01.14.44c-1.51 1.09-.56 2.24-.58 3.38-.17 12.01.18 24.85.03 35.99q-.44 32.86-.3 65.72c0 .91.39 2.74-.83 3.12a.38.37-7.7 01-.49-.37q.54-17.44-.7-34.7c-.5-6.83.81-13.99.71-20.01-.19-12.31-1.33-22.84-.72-32.8q.55-9.12 1.23-18.24z"/><path fill="#909394" d="M474.84 324.89a.71.69 1.9 01.64.67q1.03 30.69-.11 61.38a.64.63 81.9 01-.42.57c-1.28.43-.96 35.07-.88 42.98q0 .27-.11.49-.19.41-.26.46a.55.55 0 01-.87-.45c-.23-17.13.33-33.87-.19-51.05-.55-18.27.19-37.48-.31-54.6a.6.6 0 01.65-.62l1.86.17z"/><rect fill="#fff" x="-7.49" y="-2.25" transform="rotate(8.2 -2274.711 890.115)" width="14.98" height="4.5" rx="1.61"/><rect fill="#fff" x="-7.65" y="-2.34" transform="rotate(11.6 -1644.38 668.378)" width="15.3" height="4.68" rx="2.07"/><path fill="#a2a3a4" d="M203.26 345.99q-.42 2.54.49 4.97l-27.76-3.14a1.09 1.07-10.1 01-.82-.56q-.97-1.86.2-3.63a.9.88 16 01.75-.4q13.34.13 27.14 2.76z"/><rect fill="#fff" x="-7.7" y="-2.3" transform="rotate(8.1 -2457.18 869.075)" width="15.4" height="4.6" rx="1.72"/><rect fill="#fff" x="-7.93" y="-2.32" transform="rotate(10.4 -1962.477 708.239)" width="15.86" height="4.64" rx="2.21"/><path fill="#a2a3a4" d="M203.61 376.63l-.36 4.33q-12.54-1.28-25-3.21c-2.2-.34-5.21-2.12-3.11-4.75a.97.96 20.4 01.82-.37q13.73.72 27.65 4z"/><path fill="#909394" d="M459.64 376.82l-1.06 79.4a1.5 1.49.6 01-1.51 1.47l-21.69-.23a.5.49 88.8 01-.49-.48q-.09-2.28-.06-4.48.52-37.48.67-74.96 2.1-.53 4.06-1.52 10.36-5.25 20.08.8z"/><path fill="#a2a3a4" d="M476.48 393.22a.16.16 0 01.31.02l2.19 36.5a.58.57 85.3 01-.51.61l-1.76.18a.63.63 0 01-.7-.63q-.02-16.96.15-33.9.01-1.29.32-2.78zM135.11 403.49c-4.58.4-5 4.18-6.56 7.51a.59.59 0 01-1.13-.25q-.08-7.52 6.62-10.95a1.42 1.41-52.3 01.92-.12q5.8 1.26 6.87 7.27a.52.52 0 01-.95.38c-1.34-1.97-3.17-4.06-5.77-3.84zM204.04 405.25v.75l-.71 2.59a.57.56-77.6 01-.62.41c-11-1.64-19.33-1.59-27.37-4.69a1.11 1.09-.5 01-.62-.6q-.77-1.86.52-3.21a.98.95 24.6 01.82-.29q12.87 1.79 25.75 3.15 1.74.18 2.23 1.89z"/><path fill="#909394" d="M168.69 467.46q4.43 3.69 4.92 9.28.04.5.31.93.89 1.41 1.4 3.01 3.2 10.12 6.56 20.17c2.11 6.32 4.81 12.49 7.39 18.62a.34.34 0 01-.17.44q-4.98 2.37-10.35 3.48a.59.58 82.6 00-.46.61q.03.45.21.79l-16.5 4.17c-3.77-8.83-5.76-18.34-9.73-27.76a.8.8 0 00-.72-.49q-.34 0-.59.29l-8.44-22.37a1.46 1.45 46.2 01.02-1.09l4.63-11.12a.38.38 0 01.71.03q2.4 7.58 7.83 13.3a.37.37 0 00.59-.42q-3.7-7.25-6.22-14.9-8.94-27.19-17.42-54.54a.85.83-30.5 01.23-.85q1.52-1.4 3.52-1.85a.97.95-26.9 01.92.29c3.32 3.65 5.13 14.27 6.98 19.16q9.47 24.99 15.66 46.12.61 2.07.18 5.08a.52.51-84.8 00.48.58c4.27.27-.14-14.2-.68-16.02a.37.36-81.4 01.55-.41l8.19 5.47z"/><path fill="#a2a3a4" d="M344.22 413.89a2 2 0 00-1.81-1.95q-12.69-1.22-25.42-.4-.62.04-.23-.44c5.37-6.54 23.68-3.3 30.47-1.09a2.15 2.15 0 011.48 2.03l.05 6.45a.61.6 4 00.51.58c6.16.94 12.46 7.56 8.84 13.98q-.25.44-.29-.06c-.96-13.24-16.05-10.48-19.43-.16q-.34 1.05-.35-.06-.02-7.62 5.9-12.12a1.12 1.1-19.9 00.44-.92l-.16-5.84z"/><path fill="#fdfcde" d="M129.16 419.65a.25.25 0 01.08-.4l1.92-.83q.82-.35.66.53l-.32 1.74q-.21 1.11-1 .31l-1.34-1.35z"/><path fill="#a2a3a4" d="M149.69 423.06q-1.53-.11-1.83-1.8a.37.37 0 01.42-.43c4.66.68 13.36.69 17.02 3.42q.41.31-.1.26-7.75-.87-15.51-1.45z"/><path fill="#fdfcde" d="M287.64 459.88a.57.57 0 01-.81-.58c1.27-10.96 3.41-25.77 10.84-34.44q.33-.4.15.09c-1.01 2.65-2.43 5.24-3.21 7.81q-3.83 12.61-5.15 25.74a.96.96 0 01-.54.76l-1.28.62z"/><path fill="#909394" d="M128.82 426.53q-3.79.81-7.18-.91 3.73-.62 7.18.91z"/><path fill="#a2a3a4" d="M330.96 428.75q-11.42-.38-22.85-.43c-2.19-.01-3.89 1.11-6.16.61.28-1.41.88-2.22 2.45-2.17q13.16.4 26.34.21a.46.46 0 01.45.54l-.23 1.24z"/><path fill="#909394" d="M330.96 428.75l-.24 5.3a.57.57 0 01-.56.54c-10.05.02-20.28-1.06-30.2-.68a.36.35 7.4 01-.36-.46q.79-2.66 2.35-4.52c2.27.5 3.97-.62 6.16-.61q11.43.05 22.85.43zM350.04 430.22c5.07 3.33.86 8.1-1.29 11.81q-15.14 26.14-20.65 35.22c-1.4 2.31-3.34 4.15-4.69 6.48-3.97 6.89-8.96 14.39-15.81 18.79a.75.74 79.2 01-1.13-.77c1.79-9.28 7.24-17.06 11.71-25.26 8.13-14.92 17.24-28.6 27.19-45.07q1.85-3.06 4.67-1.2z"/><path fill="#a2a3a4" d="M203.46 435.75l.04 1.71q-.08 1.07-.66 1.91a.76.75-66.7 01-.79.32q-10.85-2.36-21.85-3.29c-2.62-.22-6.42-1.81-5.36-5.3a.61.59 11.4 01.65-.42q13.26 1.78 26.52 3.5 1.14.15 1.45 1.57zM472.21 454.5q-1.4-.1-1.75 1.25-1.02-.44-.99-2.5.15-8.58.1-17.2a.58.57 83.7 01.44-.56l6.13-1.41a1.18 1.17 55.4 01.91.17c2.83 1.83 1.38 5.13-2.14 4.28a.51.5-74.5 00-.61.35c-1.67 5.68-3.03 8.39-2.09 15.62z"/><path fill="#fff" d="M474.54 448.25l.2.22q.2.22.22-.08l.25-2.89.6-1.53a.74.73 10.3 01.69-.47h6.61q.71 0 .35.61l-1.01 1.68a.83.83 0 00.68 1.25l23.21.82a.78.78 0 01.74.91c-.78 4.47 1.37 6.92 1.43 10.86q.25 15.18.38 30.34a.57.57 0 01-.68.56l-1.4-.28a.85.83 4.5 01-.68-.78c-.66-12.77.18-25.93-.91-38.55a.58.57 87.2 00-.57-.52l-19.97-.21a.79.79 0 00-.72.46l-1.82 3.87a.86.83-75.1 01-.82.49l-4.36-.32q-.56-.04-.23-.5c.41-.56 2.71-.83 3.47-1.15a.67.66 75.5 00.41-.71c-.24-1.78-4.74-.74-5.83-.74a.48.48 0 01-.48-.52l.24-2.82z"/><path fill="#a2a3a4" d="M475.21 445.5l-.25 2.89q-.02.3-.22.08l-.2-.22q-.2-1.52.67-2.75z"/><ellipse fill="#fff" transform="rotate(99.3 63.587 441.571)" rx="2.48" ry=".85"/><path fill="#fdfcde" d="M472.21 454.5q1.13 1.25.3 2.33a.89.86-66.5 01-.83.34q-1.02-.17-1.22-1.42.35-1.35 1.75-1.25z"/><path fill="#a2a3a4" d="M168.69 467.46q3.46.21 4.02 1.84 8.97 25.79 18.39 51.5a.41.41 0 01-.27.53l-12.33 3.46q-.18-.34-.21-.79a.59.58 82.6 01.46-.61q5.37-1.11 10.35-3.48a.34.34 0 00.17-.44c-2.58-6.13-5.28-12.3-7.39-18.62q-3.36-10.05-6.56-20.17-.51-1.6-1.4-3.01-.27-.43-.31-.93-.49-5.59-4.92-9.28z"/><path fill="#909394" d="M328.29 508.5l-.35-1.82a.39.39 0 00-.71-.13c-6.23 9.98-10.76 20.01-16.67 29.44-4.41 7.03-7.93 13.5-11.64 20.41a1.04 1.02-44.4 00-.02.92q.39.78 1.35.72-.88 2.18-2.59 3.65a.6.58 47.2 01-.8-.04L266.5 530.7a.73.72 38.9 01-.1-.89l3.56-5.81.03.3a.49.49 0 00.46.44l.5.03a.94.9 17 00.81-.41q6.74-10.39 12.95-21.14c2.97-5.12 7.01-8.7 9.18-14.86a1.18 1.15-3.5 01.61-.67c1.22-.57 4.44-2.51 1.89-3.79l15.49-5.56a.56.56 0 01.65.85q-7.34 10.46-7.66 23.26-.06 2.37 2.36 3.04a1.36 1.34 39 00.94-.09c8.47-4.08 12.24-13.52 17.26-20.8q1.67-2.42 1.81.52l1.05 23.38z"/><path fill="#a2a3a4" d="M296.39 483.9c2.55 1.28-.67 3.22-1.89 3.79a1.18 1.15-3.5 00-.61.67c-2.17 6.16-6.21 9.74-9.18 14.86q-6.21 10.75-12.95 21.14a.94.9 17 01-.81.41l-.5-.03a.49.49 0 01-.46-.44l-.03-.3q7.05-11.24 13.96-22.58 3.89-6.39 12.47-17.52z"/><rect fill="#fdfcde" x="-.68" y="-2.34" transform="rotate(-2 14263.848 -15153.538)" width="1.36" height="4.68" rx=".56"/><path fill="#a2a3a4" d="M162 528.96q-.41.37-.9.46a.61.6-13.9 01-.68-.4L150.96 501q.25-.29.59-.29a.8.8 0 01.72.49c3.97 9.42 5.96 18.93 9.73 27.76zM328.29 508.5c-4.41 7.69-8.5 15.7-12.99 23.19q-7.81 13.01-15.05 26.35-.96.06-1.35-.72a1.04 1.02-44.4 01.02-.92c3.71-6.91 7.23-13.38 11.64-20.41 5.91-9.43 10.44-19.46 16.67-29.44a.39.39 0 01.71.13l.35 1.82z"/><path fill="#fff" d="M590.29 589.75l.71.31v.94h-1.06l-.19-.71.54-.54z"/><path fill="#1f1e1d" d="M0 589.94l.25.1c-.15.47-.01.72.5.7q5.73-.17 11.44.26H0v-1.06z"/><path fill="#fdfcde" d="M.25 590.04q2.78.08 5.56.08 291.97.12 583.94.17l.19.71h-13.5q-3.38-.63-6.75 0H322.44q-2.75-.63-5.5 0h-1.75q-2.75-.63-5.5 0h-5.25q-2.75-.63-5.5 0H32.44q-3.38-.63-6.75 0h-13.5q-5.71-.43-11.44-.26c-.51.02-.65-.23-.5-.7z"/><path fill="#909394" d="M32.44 591h-6.75q3.37-.63 6.75 0zM304.44 591h-5.5q2.75-.63 5.5 0z"/><path fill="#1f1e1d" d="M315.19 591h-5.5q2.75-.63 5.5 0z"/><path fill="#909394" d="M322.44 591h-5.5q2.75-.63 5.5 0z"/><path fill="#1f1e1d" d="M576.44 591h-6.75q3.37-.63 6.75 0z"/></svg>