<svg xmlns="http://www.w3.org/2000/svg" viewBox="0 0 591 591"><g stroke-width="2" fill="none"><path stroke="#111010" vector-effect="non-scaling-stroke" d="M590.06 0l.19.29"/><path stroke="gray" vector-effect="non-scaling-stroke" d="M590.25.29V589.8a.46.46 0 01-.46.46L.63 590.24q-.65 0-.21.48l.27.28"/><path stroke="#7e7e70" vector-effect="non-scaling-stroke" d="M586.25 4.52a.27.27 0 00-.27-.27H4.52a.27.27 0 00-.27.27v581.46a.27.27 0 00.27.27h581.46a.27.27 0 00.27-.27V4.52"/><path stroke="#919090" vector-effect="non-scaling-stroke" d="M591 587.56c-.84-.45-.25-537.29-.25-587.06a.25.24-86.1 00-.21-.25q-.17-.02-.29.04M576.44 591q-7.38-.63-14.75 0M561.19 591q-7.13-.63-14.25 0M536.19 591q-4.25-.63-8.5 0M526.44 591q-10.38-.63-20.75 0M502.19 591q-2.63-.63-5.25 0M460.19 591q-4.13-.63-8.25 0M445.44 591q-7.38-.63-14.75 0M430.44 591q-17.75-.63-35.5 0M392.44 591q-22.75-.63-45.5 0"/><path stroke="#cacbcc" vector-effect="non-scaling-stroke" d="M344.44 591q-4.25-.63-8.5 0M308.44 591q-2.25-.63-4.5 0"/><path stroke="#919090" vector-effect="non-scaling-stroke" d="M297.19 591q-3.75-.63-7.5 0M254.44 591q-2.38-.63-4.75 0M246.44 591q-11.88-.63-23.75 0M188.44 591q-3.88-.63-7.75 0M179.44 591q-3.25-.63-6.5 0M156.44 591q-8.38-.63-16.75 0M129.44 591q-2.75-.63-5.5 0M109.44 591q-3.25-.63-6.5 0M32.44 591q-3.38-.63-6.75 0"/><path stroke="#cacbcc" vector-effect="non-scaling-stroke" d="M25.19 591q-2.25-.63-4.5 0"/><path stroke="#919090" vector-effect="non-scaling-stroke" d="M12.44 591q-5.63-.63-11.25 0"/><path stroke="#f9efc5" vector-effect="non-scaling-stroke" d="M31.6 80.08q28.32-27.54 55.95-55.76c.8-.82 1.43-1.88 2.21-2.79a.84.84 0 00-.62-1.39q-20.69-.57-40.46-.35c-20.82.22-26.32 7.09-26.59 27.46q-.26 20.13.18 40.35a.8.79-21.5 001.32.57c2.82-2.49 5.66-5.8 8.01-8.09"/><path stroke="#c8c9bc" vector-effect="non-scaling-stroke" d="M243.29 456.25q.72-2.33-.79-4.21"/><path stroke="#8f8e80" vector-effect="non-scaling-stroke" d="M242.5 452.04l-1.99-15.27a.75.75 0 01.37-.74q19.22-10.92 26.98-31.74"/><path stroke="#fdfef0" vector-effect="non-scaling-stroke" d="M267.86 404.29q.51-7.79.14-20.79-.09-2.96 2.46-5"/><path stroke="#8f8e80" vector-effect="non-scaling-stroke" d="M270.46 378.5q1.87 13.03 2.05 26.26a1.2 1.15 67.8 01-.34.86q-5.79 5.95-5.74 14.18c.02 4.11 2.21 6.28-.13 10.43-2.02 3.57-4.82 9.92-3.87 14.21a.85.84-3.2 00.75.66l9.94.95a.54.53-81.9 00.58-.44l1.63-8.94a.46.45-71.8 01.64-.33q7.92 3.76 16.47 1.35a.68.68 0 01.86.67c-.07 3.53-3.91 12.64 4.16 10.98a.81.81 0 01.82.31l.37.52a1.14 1.14 0 00.99.46q6.08-.38 11.37-3.39a.84.83 73.2 00.42-.79q-.88-11.4-6.21-21.48a1.56 1.54-54.2 01-.16-1.02q2.42-13.36-8.42-20.84a1.02 1.02 0 01-.44-.86c.14-22.79-6.24-49.77-14.49-71.61a1.2 1.2 0 01.63-1.51c16.94-7.67 32.37-17.15 48.4-26.58 11.84-6.97 42.93-25.2 54.57-11.53q10.49 12.31 7.87 27.81-.83 4.86-5.38 15.06-7.14 16.04-13.46 32.42c-1.29 3.34-4.59 3.55-6.55 6.19q-.97 1.3-1.81 2.74a.99.97 14.7 01-.85.48l-10.61-.02a.73.73 0 00-.73.72l-.08 18.52a.57.57 0 01-.58.57l-33.94-.04a.59.59 0 00-.59.59l-.14 22.79a.64.64 0 00.64.65h5.05a.65.64 90 01.64.65l-.13 120.91a.71.71 0 01-.72.7l-4.37-.04a.53.53 0 00-.54.53l-.1 27a.5.49 3.3 00.44.49q3.79.4 5.63.26c6.2-.5 14.07-.05 18.46-.04 70.07.1 140.12.73 210.2.47a.52.52 0 00.52-.52l.1-27.12a.51.5-89.4 00-.49-.51l-5.02-.1a.64.63-89.5 01-.62-.64q.2-55.89.07-111.79-.01-2.26.39-9.29a.58.57.5 01.56-.54l6.24-.23a.61.61 0 00.59-.61v-22.96a.63.62 0 00-.63-.62l-33.83.01a.54.54 0 01-.54-.54v-17.54a1.36 1.35-89.4 00-1.32-1.36l-10.41-.23a1.09 1.07 71.6 01-.84-.43c-3.62-4.67-9.26-7.44-15.23-5.96a.94.92 59.6 01-.86-.23q-6.82-6.47-8.46-15.59c-1.8-9.96 14.31-21.46 19.21-27 11.52-13.01 15.54-30.51 8.78-46.66-7.39-17.66-25.2-31.37-42.3-38.18-34.4-13.71-78.67-2.51-108.54 16.8q-4.72 3.05-16.09 11.9-32.8 25.53-68 47.79a.47.46-29.9 01-.66-.17l-7.53-13.82a1.12 1.09-49.6 01-.06-.92c4.42-11.69-5.64-23.07-17.25-21.82-6.5.7-11.1 5-14.28 10.8a.63.61 18.9 01-.66.31l-12.51-2.29a.79.79 0 01-.63-.63q-.67-3.44.04-6.89a.81.8-3.9 01.54-.61c19.98-6.78 39.1-13.47 57.26-24.46a2.36 2.34 84.3 001.02-1.26c8.03-22.51 9.12-47.21 7.42-70.84q-2.01-28.04-8.41-55.43-2.82-12.09-8.55-23.26a1.39 1.35-.9 00-.68-.64c-16.15-7.07-36.98-8.16-54.05-7.24-11.81.64-23.86.46-35.3 2.78-21.87 4.43-43.62 10.04-63.08 21.43q-.7.41-1.84 1.6a1.37 1.36-22.7 00-.36.87q-.37 15.41 1.79 30.72a.94.91 65.6 01-.29.8q-6 5.59.4 10.52a1.45 1.44 12.1 01.52.8q1.55 5.99 1.7 12.22a1.31 1.28-24.3 01-.37.95c-6.81 6.95-9.96 18.7-8.78 28.26q3.15 25.41 26.51 35.72a1.45 1.45 0 01.69.66q7.65 15.24 16.98 29.53c3.64 5.57 5.8 8.69 12.99 9.2q14.7 1.03 29.46.93a.56.56 0 01.57.6l-.17 3.02a.65.65 0 01-.62.62q-12.69.65-24.56 5.08a1.77 1.75-37.4 01-1.64-.21c-14.32-10.22-29.76 1.81-25.85 17.59a1.21 1.17 54.6 01-.14.91c-17.97 29.52-28.88 62.81-29.44 96.07a1.27 1.27 0 01-.36.86c-6.37 6.54-10.1 12.18-7.79 22.14q.11.48-.03.96-2.45 8.52-3.91 17.29c-.32 1.89-.98 3.33 1.65 3.81q5.13.92 7.95 1.27a.92.91-66.3 00.81-.32l.53-.65a1.08 1.06 19.4 01.83-.39h3.7a.5.5 0 00.5-.5l.01-7.53a.8.8 0 011.03-.77q5.62 1.64 11.2-.18 2.06-.67 2.46 1.46l1.39 7.34a.92.91-13 001.15.71l9.55-2.62a1.11 1.11 0 00.77-1.37l-3.77-13.4a1.53 1.53 0 01.03-.95c.76-2.23 1.95-4.49 2.25-6.65 1.08-7.97-2.63-13.39-7.84-18.9a1.18 1.16 24.8 01-.32-.85c.58-10.24.8-20.44 2.77-30.54 1.71-8.76 5.42-18.33 8.64-27.13a.29.29 0 01.56.15c-1.48 7.5-9.53 43.69-5.18 48.05q4.81 4.81 6.94 9.61c3.91 8.8 9.13 16.04 16.42 22.43a1.79 1.77 26.5 01.57 1.68c-1.35 6.75-2.78 13.59-3.89 20.49q-.44 2.77-1.34 5.47a1.34 1.31 84.7 01-.59.73c-7.72 4.52-10.37 13.22-9.21 21.59 1.08 7.79 6.02 12.9 13.07 15.79a1.5 1.5 0 01.91 1.21l2.5 20.6a.47.47 0 01-.5.53c-11.55-.89-22.39 1.15-33.87 4.28q-28.08 7.66-46.4 31.08c-1.72 2.2-9.19 12.24-1.31 12.7q11.78.69 19.32.49c28.81-.73 59.19-3.26 86.35-5.25q6.53-.47 7.5-6.89 2.66-17.81-10.99-28.57a1.09 1.07 18.5 01-.41-.8q-.31-9.49-1.66-18.89c-.62-4.28-.81-8.51-1.27-12.8a1.01 1-24.7 01.31-.83c10.98-10.24 9.85-22.75-.92-32.65a.98.98 0 01-.31-.89q1.54-9.48 4.3-18.68a.56.55-75.3 01.65-.38q10.94 2.27 22.01.81a.6.6 0 01.65.43l5.09 18.2a.79.79 0 01-.2.78c-9.82 9.91-9.87 22.58-.72 33.04a1.2 1.19 26.9 01.29.88c-.43 4.9-.59 9.52-1.27 14.62-.68 5.09.07 15.85-2.65 19.8-10.02 14.57-17.99 36.97 9.96 38.15 25.24 1.07 45.23 1.32 68.69-1.76 5.27-.69 10.24-1.05 8.38-7.84-4.98-18.13-12.81-31.49-31.3-38.25q-15.16-5.54-31.75-3.51a.44.43-2.9 01-.49-.44q.06-3.33.6-6.6c.64-3.83.52-7.94 1.49-11.87a.99.98-3.2 01.6-.66c13.01-4.9 15.76-19.8 8.92-30.79-3.01-4.84-6.95-4.5-6.88-11.86"/><path stroke="#919090" vector-effect="non-scaling-stroke" d="M270.46 378.5q-.24-6.7-2.3-13.03-.16-.48-.18.03-.93 19.35-.12 38.79"/><path stroke="#5b5b5c" vector-effect="non-scaling-stroke" d="M242.5 452.04q-.13 2.21.79 4.21"/><path stroke="#8f8e80" vector-effect="non-scaling-stroke" d="M25.836 431.95a1.2.47 11.5 00-1.082-.7 1.2.47 11.5 00-1.27.22 1.2.47 11.5 001.082.7 1.2.47 11.5 001.27-.22"/><path stroke="#919090" vector-effect="non-scaling-stroke" d="M264.3 110.49c-12.52-3.84-26.46-5.12-39.49-4.99q-.52 0-.09.28 1.55 1 3.31 1.4c4.79 1.1 9.03 3.13 13.5 5.1 5.4 2.37 16.17.02 22.76-1.52q.49-.12.01-.27"/><path stroke="#5b5b5c" vector-effect="non-scaling-stroke" d="M186.83 216.45c-2.08 20.66-15.31 34.83-37.93 32.11a.4.39-9 00-.41.56q6.76 14.19 16 26.79c1.19 1.62 1.92 1.97 3.83 2.25 22.72 3.28 48.81 2.62 68.97-9.39 9.62-5.73 14.04-33.68 15.02-45.09q.08-.94-.59-.27l-1.14 1.13q-.37.37-.85.58c-23.63 10.37-43.36-16.21-36.19-37.61 5.73-17.12 25-21.42 38.26-9.55q.5.45.42-.22l-2.21-16.88a.42.42 0 00-.75-.2c-1.98 2.59-4.02 1.76-6.65.65q-12.39-5.22-23.86-8.04c-2.32-.57-3.15-1.64-3.02-4.12q.54-10.41 3.49-20.49a2.01 2-82 011.91-1.44c6.75-.06 16.05 3.7 22.08 6.32a1.02 1.01 3.7 001.38-1.21L240.78 119a1.83 1.76-78.6 00-.56-.88q-1.44-1.21-3.28-1.64c-8.55-1.99-16.03-4.61-22.52-5.39-29.19-3.55-61.88 1.06-87.8 15.53a2.59 2.58 76.1 00-1.33 2.21l-.37 20.03q-.01.56.36.14 6.08-6.82 13.93-11.57a2.08 2.07 55.9 012.74.53q5.44 7.24 9.4 15.65c1.2 2.53 1.44 5.09-1.16 6.61-7.94 4.61-14.94 8.34-22.31 15.2q-.36.33.09.13c12.88-5.67 34.56-6.41 45.27 4.22q15.71 15.58 13.59 36.68M253.157 139.973a.79.69 59.8 00.2-1.03.79.69 59.8 00-.994-.336.79.69 59.8 00-.2 1.03.79.69 59.8 00.994.336"/><path stroke="#5b5b5c" vector-effect="non-scaling-stroke" d="M244.896 219.317a21.55 18.96 69.9 0010.4-26.753 21.55 18.96 69.9 00-25.212-13.721 21.55 18.96 69.9 00-10.4 26.753 21.55 18.96 69.9 0025.212 13.721M158.07 238.975a31.69 27.8 68.8 0014.459-39.598 31.69 27.8 68.8 00-37.379-19.492 31.69 27.8 68.8 00-14.459 39.598 31.69 27.8 68.8 0037.379 19.492"/><path stroke="#919090" vector-effect="non-scaling-stroke" d="M181.5 212.13c2.65-8.61-6.04-27.59-14.54-31.13q-.51-.21-.19.24c3.27 4.59 7.14 8.1 9.86 14.31 2.26 5.18 3.26 10.85 4.05 16.52a.42.42 0 00.82.06"/><path stroke="#8f8e80" vector-effect="non-scaling-stroke" d="M461.17 383.34l-.2 11.52a.63.63 0 00.63.64h7.35a.7.7 0 00.7-.69l.15-18.3a.46.46 0 01.45-.46l10.54-.18a1.14 1.13 17.2 00.9-.47l1.83-2.48a.76.75-46.1 00-.01-.92c-14.62-18.33-7.49-32.2 8.05-45.55 9.71-8.33 18.09-23.46 14.81-36.61-5.05-20.26-25.12-35.64-43.99-41.65-13.89-4.42-32.31-4.5-46.63-2.18q-27.06 4.38-51.54 20.46c-7.88 5.18-18.42 14.32-28.72 21.64q-4.15 2.95-8.05 6.28-.38.33.06.08c17.81-10.15 51.38-29.15 67.19-4.96q13.02 19.92 2.61 43.52c-5.79 13.13-10.73 22.77-14.56 34.68a.49.48-74.3 00.34.62q5.77 1.47 8.48 6.67a1.4 1.39-13.7 001.24.75h11.45a.5.5 0 01.5.5v18.79a.53.52 89 00.54.53l6.82-.27a.66.66 0 00.64-.66l.01-10.4a1.49 1.49 0 011.49-1.49h46.34a.58.58 0 01.58.59"/><path stroke="#5b5b5c" vector-effect="non-scaling-stroke" d="M259.64 298.91c9.37-11.05-13.09-17.81-16.62-3.51a1.27 1.21-52.6 00.09.85q1.96 3.98 5.12 7.11a1.21 1.16 66.8 00.8.34q6.49.07 10.61-4.79"/><path stroke="#919090" vector-effect="non-scaling-stroke" d="M178.75 392.54l26.79-.41"/><path stroke="#5b5b5c" vector-effect="non-scaling-stroke" d="M205.54 392.13l38.94 4.84a.46.45-85.4 00.51-.44c.37-12.38.91-24.91.9-37.13 0-13.07-.4-26.21.26-39.27.37-7.46-3.47-19.49-12.17-21.32-18.91-4-39.83-3.97-57.74 2.78a1.3 1.25-85.7 00-.69.62q-8.05 16.15-10.08 22.03-9.34 27-13.73 59.5-1.16 8.54-.74 13.85a.38.38 0 00.51.33c8.24-2.97 17.06-3.94 27.24-5.38"/><path stroke="#cacbcc" vector-effect="non-scaling-stroke" d="M205.54 392.13q-14.21-2.09-28.54-.66a.36.36 0 00-.28.53q.55 1.02 2.03.54"/><path stroke="#5b5b5c" vector-effect="non-scaling-stroke" d="M154.26 312.75c9.04 2.49 11.05-6 14.31-12.12a.76.75-51.7 00-.09-.83q-2.01-2.44-5.03-2.56-11.41-.44-12.24 11.28c-.14 1.95 1.05 3.67 3.05 4.23M260.42 319.26q1.97-3.83 6.33-3.79a.39.39 0 00.35-.57l-2.4-4.6a.5.5 0 00-.69-.2l-6.22 3.51a.45.44 62.8 00-.18.58l2.37 5.06q.21.46.44.01M145.31 329.07a.35.35 0 00.2.5l6.91 2.32a.35.35 0 00.43-.18l3.75-7.97a.35.35 0 00-.14-.44l-5.59-3.47a.35.35 0 00-.49.13l-5.07 9.11M269.33 320.21q-4.06.17-7.47 2.28a.73.73 0 00-.27.94l3.65 7.38a.73.73 0 00.97.33l6.88-3.3a.7.69 64.4 00.32-.93l-2.97-6.04a1.19 1.18-14.2 00-1.11-.66M271.22 349q4.08-2.39 8.79-3.01a.54.53-15 00.43-.73l-4.72-11.56a.5.49 67.6 00-.64-.27l-7.4 3.03a.45.45 0 00-.24.61q2.54 5.69 3.58 11.83a.14.13 70.8 00.2.1M137.33 345.48a.99.99 0 00.62 1.34l6.21 1.93a.99.99 0 001.2-.54l4.63-10.27a.99.99 0 00-.62-1.36l-6.42-1.93a.99.99 0 00-1.2.56l-4.42 10.27M131.56 363.4q3.91-.47 7.14 1.49a.45.45 0 00.66-.25l3.07-10.38a.59.59 0 00-.41-.73l-6.58-1.86a.67.67 0 00-.8.4l-3.91 10.26a.79.79 0 00.83 1.07M282.177 352.09a.27.27 0 00-.323-.204l-9.4 2.135a.27.27 0 00-.204.323l2.973 13.087a.27.27 0 00.323.203l9.4-2.135a.27.27 0 00.204-.323l-2.973-13.087M137.442 370.32a.27.27 0 00-.21-.319l-8.029-1.663a.27.27 0 00-.319.21l-2.226 10.752a.27.27 0 00.21.319l8.029 1.663a.27.27 0 00.319-.21l2.226-10.752M277.47 384.39a.72.72 0 00.85.61l9.6-1.75a.72.72 0 00.57-.85l-1.84-8.99a.72.72 0 00-.77-.57l-9.02.74a.72.72 0 00-.66.81l1.27 10M397.49 382.563a.27.27 0 00-.269-.271l-36.68-.064a.27.27 0 00-.27.27l-.022 12.52a.27.27 0 00.27.27l36.68.064a.27.27 0 00.27-.27l.022-12.52M514.632 382.917a.37.37 0 00-.37-.371l-37.519-.131a.37.37 0 00-.371.368l-.044 12.44a.37.37 0 00.37.371l37.519.131a.37.37 0 00.371-.368l.044-12.44M134.089 386.165a.26.26 0 00-.239-.28l-7.914-.637a.26.26 0 00-.28.238l-.785 9.749a.26.26 0 00.239.28l7.914.637a.26.26 0 00.28-.238l.785-9.749M289.359 390.44a.45.45 0 00-.482-.415l-10.033.737a.45.45 0 00-.416.481l.653 8.896a.45.45 0 00.482.416l10.033-.737a.45.45 0 00.416-.481l-.653-8.896M156.68 403.3c3.21 10.24 12.35 25.2 24.3 26.01 20.08 1.36 37.85-10.67 47.79-27.42a.39.39 0 00-.29-.58q-18.36-2.36-36.98-2.56c-11.46-.12-23.1 2.08-34.48 3.98a.44.44 0 00-.34.57"/><path stroke="#919090" vector-effect="non-scaling-stroke" d="M325.04 408.75l-.05 3.49a.49.49 0 00.49.49l19.07-.2"/><path stroke="#5b5b5c" vector-effect="non-scaling-stroke" d="M344.55 412.53q9.68.41 19.46.13c3.55-.1 7.3.34 10.99.35q62.85.26 125.69.39c16.09.03 32.55.22 48.37-.21a.56.55-.5 00.55-.55l-.03-9.7a.69.69 0 00-.69-.69q-92.82-.1-185.63-.87c-10.57-.09-24.46.25-36.78 0a1.45 1.45 0 00-1.48 1.46l.04 5.91"/><path stroke="#cacbcc" vector-effect="non-scaling-stroke" d="M344.55 412.53q-2.73-1.38-3.78-1.26-4 .49-7.96.13c-3-.28-6.06 1.51-7.77-2.65"/><path stroke="#5b5b5c" vector-effect="non-scaling-stroke" d="M132.568 402.824a1.25 1.25 0 00-1.276-1.224l-5.759.121a1.25 1.25 0 00-1.224 1.276l.083 3.96a1.25 1.25 0 001.276 1.223l5.759-.121a1.25 1.25 0 001.224-1.276l-.083-3.96M273.94 425.14q11.09 3.4 18.85-3.36c4.86-4.23 5.15-9.96-.28-13.83-5.37-3.83-12.78-1.67-16.87 2.57-3.51 3.62-3.96 8.28-3.06 13.1a1.97 1.97 0 001.36 1.52M116.07 433.24c2.94.18 5.08 1.46 6.67 1.28 5.17-.6 12.71-3.72 14.71-8.95q.92-2.42.6-3.6c-4.61-17.05-30.96-3.51-22.73 10.8a.96.95-12.6 00.75.47M331.46 436q-.54 9.86-.31 19.72c.16 7.57-.43 16.88.29 25.35.12 1.33-.47 2.32-.35 3.72q.16 1.81.16 1.92-.02 26.99-.22 53.76a.9.89 1 00.88.9c51.93.78 103.92.84 155.84.59"/><path stroke="#919090" vector-effect="non-scaling-stroke" d="M487.75 541.96l53.28.02a.67.66 0 00.67-.66l.21-114.1a.98.98 0 00-.98-.98l-41.43.05"/><path stroke="#5b5b5c" vector-effect="non-scaling-stroke" d="M499.5 426.29q-1.25-.11-2.5-.11-58.63-.04-117.25-.14"/><path stroke="#919090" vector-effect="non-scaling-stroke" d="M379.75 426.04l-47.6-.1a.53.52-89.4 00-.52.52l-.17 9.54"/><path stroke="#cacbcc" vector-effect="non-scaling-stroke" d="M379.75 426.04q1.27.46-.24 1.07a1.01.86-49.7 01-.3.05l-46-.32a.8.79 3.2 00-.79.7q-.53 4.5.21 8.95a.25.24-25.8 01-.08.22q-.42.39-1.09-.71M499.5 426.29q-.14.17-.2.33a.3.3 0 00.28.41l40.76.22a.68.68 0 01.68.68q.15 49.9-.1 99.82-.03 5.37.13 11.41a1.79 1.79 0 01-1.79 1.84h-51.51a.32.31 75.3 00-.27.47l.27.49"/><path stroke="#5b5b5c" vector-effect="non-scaling-stroke" d="M270.11 441.18a.61.61 0 00.63-.47c.61-2.62 3.53-10.21 1.15-12.17a.47.46-58.2 00-.72.17l-5.21 11.47a.54.54 0 00.46.76l3.69.24M300.87 431.69c-.98.88-1.37 1.77-.86 3.13q1.95 5.17 1.92 10.77a.53.53 0 00.57.53l3.9-.31a.64.64 0 00.59-.7q-.65-7.67-3.89-14.67a.57.57 0 00-.72-.3q-.66.26-1.03.95-.19.34-.48.6M141.247 438.72a1.07 1.07 0 00-1.313-.751l-1.64.445a1.07 1.07 0 00-.752 1.314l2.61 9.611a1.07 1.07 0 001.314.752l1.64-.445a1.07 1.07 0 00.752-1.314l-2.61-9.611M174.49 446.97c3.16.11 6.01.44 8.99 1.65a.56.55-67.8 00.72-.31q1.2-3 1.22-6.21a.64.64 0 00-.54-.64q-4.79-.71-8.63-3.57a.44.43-66.8 00-.69.28l-1.46 8.31a.41.41 0 00.39.49M110.08 450.84l2.07.06a.87.86-80.2 00.85-.6c1.14-3.35 3.21-8.47-.36-10.15a.59.59 0 00-.83.41l-2.19 9.68a.49.49 0 00.46.6M231.78 440.799a.27.27 0 00-.33-.195l-9.472 2.433a.27.27 0 00-.195.328l1.458 5.676a.27.27 0 00.328.195l9.473-2.433a.27.27 0 00.195-.328l-1.458-5.676M180.75 453.73l-7.03-.69a.85.84-80.6 00-.9.65l-1.47 6.4a.54.53 6.7 00.53.66l7.19-.01a2.09 2.09 0 002.01-1.52l.99-3.56a1.53 1.53 0 00-1.32-1.93"/><path stroke="#919090" vector-effect="non-scaling-stroke" d="M225.75 457.54l.26 2.65a.58.58 0 00.55.52l1.15.04"/><path stroke="#5b5b5c" vector-effect="non-scaling-stroke" d="M227.71 460.75q3.45.57 6.97.09a.5.5 0 00.43-.54l-.51-6.26a1.16 1.16 0 00-1.43-1.03l-7.44 1.76a.8.8 0 00-.62.77q0 1.15.64 2"/><path stroke="#cacbcc" vector-effect="non-scaling-stroke" d="M227.71 460.75l-1.06-2.92a.51.5-12.7 00-.54-.33l-.36.04"/><path stroke="#5b5b5c" vector-effect="non-scaling-stroke" d="M166.85 490.93c4.14.3 12.84-7.38 15.92-10.17 6.66-6.03 5.29-14.05-4.8-13.86-3.51.06-13-.79-14.94 2.9-2.97 5.61-3.74 14.46.92 19.59q1.3 1.43 2.9 1.54M222.91 489.98q5.87-1.08 10.75-4.42c2.28-1.56 3.77-3.95 5.59-6.12 2.85-3.4 3.18-4.93 2.48-9.19-.41-2.49-1.04-3.7-3.9-3.38-5.32.58-13.98-.67-17.08 4.38-2.87 4.67-3.96 14.56 1.27 18.52a1.14 1.14 0 00.89.21"/><path stroke="#919090" vector-effect="non-scaling-stroke" d="M181.2 502.65q1.57-1.51.76-3.72a.69.68-9.3 00-.63-.45q-.16-.01-.33.06"/><path stroke="#5b5b5c" vector-effect="non-scaling-stroke" d="M181 498.54l-5.41 1.26a.67.66-5.8 00-.51.62l-.08 2.3a.51.5-10.2 00.7.48q2.49-1.04 5.5-.55"/><path stroke="#cacbcc" vector-effect="non-scaling-stroke" d="M181 498.54l.2 4.11"/><path stroke="#5b5b5c" vector-effect="non-scaling-stroke" d="M225.39 501.88c2.98-.96 5.51.28 8 .52a.57.56-82.6 00.62-.48l.27-1.85a.51.51 0 00-.46-.58l-8.11-.72a.6.59 5.8 00-.66.53l-.24 2.1a.45.45 0 00.58.48M233.29 508.824a.27.27 0 00-.248-.29l-8.395-.646a.27.27 0 00-.29.248l-.528 6.86a.27.27 0 00.249.29l8.395.646a.27.27 0 00.29-.248l.528-6.86M183.45 508.574a.26.26 0 00-.277-.24l-7.023.49a.26.26 0 00-.241.278l.46 6.584a.26.26 0 00.278.24l7.023-.49a.26.26 0 00.241-.278l-.46-6.584M184.32 524.77a.3.3 0 00.4-.28l.05-3.38a.3.3 0 00-.38-.3l-5.55 1.61a.3.3 0 00-.01.57l5.49 1.78M223.27 522.01l-.07 1.98a.27.27 0 00.39.25l5.7-2.82q.72-.36-.08-.41-2.62-.14-5.21.2a.84.83-2.8 00-.73.8M235.5 526.54q-20.43 6.52-23.56 27.99c-1.1 7.59 8.31 8.74 13.62 8.82q18.51.27 45.51.03 8.05-.07 14.84-1.38a.55.54-9.1 00.44-.6c-1.55-13.56-11.13-25.46-22.52-32.54"/><path stroke="#919090" vector-effect="non-scaling-stroke" d="M263.83 528.86q-13.61-7.1-28.33-2.32"/><path stroke="#cacbcc" vector-effect="non-scaling-stroke" d="M263.83 528.86q3.25 6.81 4.55 13.9a.49.48-67.1 01-.88.36c-6.69-10-18.52-20.27-31.42-15.85a.35.34 72.3 01-.45-.24l-.13-.49"/><path stroke="#919090" vector-effect="non-scaling-stroke" d="M124.25 562.46l27.26-1.79"/><path stroke="#5b5b5c" vector-effect="non-scaling-stroke" d="M151.51 560.67q21.79-.61 43.62-2.9a.8.8 0 00.7-.63q2.03-9.64-3.13-17.08c-8.35-12.07-25.18-14.08-38.94-11.48-24.07 4.55-42.38 11.52-57.59 31.54q-.9 1.17-1.23 2.03a.84.84 0 00.81 1.14l28.5-.83"/><path stroke="#cacbcc" vector-effect="non-scaling-stroke" d="M151.51 560.67q-15.14-.46-30.27.64c-.25.01-.41.15-.48.37a.41.4-79.4 00.35.52l3.14.26"/><path stroke="#5b5b5c" vector-effect="non-scaling-stroke" d="M547.582 549.344a.57.57 0 00-.57-.571l-220.819-.386a.57.57 0 00-.57.57l-.025 13.78a.57.57 0 00.57.57l220.819.386a.57.57 0 00.57-.57l.025-13.78M220.69 257.37c.72-1.53 1.3-3.9 1.6-5.56a.92.91 2.1 00-1-1.07q-20.27 2.15-40.18 6.52a1.05 1.05 0 00-.73 1.47l1.9 4.2a.97.97 0 00.81.56q1.56.1 2.35-.05 17.4-3.29 34.92-5.83a.46.44 7.4 00.33-.24M243.063 215.473a17.21 15.06 70.4 008.414-21.265 17.21 15.06 70.4 00-19.96-11.16 17.21 15.06 70.4 00-8.414 21.264 17.21 15.06 70.4 0019.96 11.16M154.771 233.76a25.98 22.6 70.9 0012.855-31.945 25.98 22.6 70.9 00-29.857-17.155 25.98 22.6 70.9 00-12.855 31.945 25.98 22.6 70.9 0029.857 17.155M227.55 200.79c1.12 2.97 16.78-.17 19.45-3"/><path stroke="#919090" vector-effect="non-scaling-stroke" d="M247 197.79c-2.28-15.88-24.17-12.13-19.45 3"/><path stroke="#cacbcc" vector-effect="non-scaling-stroke" d="M247 197.79l-.38-.04a.57.55 84.2 01-.47-.4c-1.67-5.88-8.92-10.33-13.95-5.27q-3.51 3.53-4.65 8.71"/><path stroke="#5b5b5c" vector-effect="non-scaling-stroke" d="M231.16 208.12q10.29 6.98 16.04-3.32c.06-.11.07-1.15.05-1.19a.45.45 0 00-.69-.12c-2.66 2.37-15.66 3.69-15.59 4.33a.45.45 0 00.19.3M128.37 207.63c-.42 3.8.49 9.96 5.45 10.3q15.19 1.03 28.22-6.69 3.33-1.97 1.64-5.14"/><path stroke="#919090" vector-effect="non-scaling-stroke" d="M163.68 206.1q-2.81-12.71-14.8-16.56c-2.61-.84-4.51-1.49-6.88-.84-7.27 1.97-16.6 10.35-13.63 18.93"/><path stroke="#cacbcc" vector-effect="non-scaling-stroke" d="M163.68 206.1q-3.23-3.14-4.33-7.61a1.29 1.24-81 00-.53-.76c-5.42-3.56-12.47-6.17-18.82-3.96q-9.28 3.22-11.63 13.86"/><path stroke="#5b5b5c" vector-effect="non-scaling-stroke" d="M139.91 223.76c-.99-.05-2.91-.46-4.37-.29q-.53.07-.15.43c9.63 9.35 21.76 7.3 27.77-4.44a.45.45 0 00-.6-.6q-10.72 5.5-22.65 4.9M179.85 380.56c.14 4.8 6.59 2.93 9.12 2.94q14.66.01 29.33-.01c2.45 0 3.51-1.24 3.64-3.56q2-36.63 4.42-73.24c.11-1.64-.51-2.73-2.15-3.26-10.69-3.49-19.09-2.98-30.26-.64-.98.21-3.62.32-3.91 1.77q-3.34 16.6-6.79 33.19-4.06 19.55-3.4 42.81"/><path stroke="#5b5b5c" vector-effect="non-scaling-stroke" d="M202.25 377.54l.16.33a.6.59-10.7 00.51.34q5.56.3 11.08-.42"/><path stroke="#919090" vector-effect="non-scaling-stroke" d="M214 377.79l2.02.06a.52.51-84.9 00.52-.44c1.04-6.9.42-14.44.84-21.48q1.38-23.36 3.39-46.69a1.02 1.01-79.1 00-.71-1.06q-11.83-3.75-23.75-.2a1.01.99.4 00-.68.66q-10.66 33.62-10.16 68.89a.47.47 0 00.52.46q8.06-.84 16.26-.45"/><path stroke="#cacbcc" vector-effect="non-scaling-stroke" d="M214 377.79l-11.75-.25"/><path stroke="#919090" vector-effect="non-scaling-stroke" d="M190.87 351.56c-.33 3.01-.59 5.76-1.01 8.75a.46.45 3.7 00.46.52l22.19-.4a.7.7 0 00.69-.68l.26-8.17a.57.56 1 00-.57-.58h-21.4a.63.62-86.9 00-.62.56"/><path stroke="#cacbcc" vector-effect="non-scaling-stroke" d="M212.75 374.46q.8-3.61.53-8.84"/><path stroke="#919090" vector-effect="non-scaling-stroke" d="M213.28 365.62l-23-.13a.53.53 0 00-.53.53v8.17a.48.48 0 00.49.48l22.51-.21"/><path stroke="#5b5b5c" vector-effect="non-scaling-stroke" d="M213.28 365.62l-.57 1.26q-.21.45-.19.94l.23 6.64"/><path stroke="#cacbcc" vector-effect="non-scaling-stroke" d="M126.12 417.86c-2.94-.63-4.29 1.45-4.27 4.11a.54.54 0 00.54.53h3.26a.87.87 0 00.87-.83l.15-3.11a.69.69 0 00-.55-.7M410.67 464.03a33.37 33.37 0 00-33.37-33.37 33.37 33.37 0 00-33.37 33.37 33.37 33.37 0 0033.37 33.37 33.37 33.37 0 0033.37-33.37M525.678 461.98a33.68 33.29-4 00-35.92-30.859 33.68 33.29-4 00-31.276 35.558 33.68 33.29-4 0035.92 30.86 33.68 33.29-4 0031.276-35.558"/><path stroke="#919090" vector-effect="non-scaling-stroke" d="M370.13 469.75a.32.32 0 01.32.33l-.3 18.09a.32.32 0 00.32.33h11.73a.32.32 0 00.32-.32l-.06-18.01a.32.32 0 01.32-.32l19.15-.15a.32.32 0 00.32-.32v-11.73a.32.32 0 00-.31-.32l-19.19-.31a.32.32 0 01-.32-.33l.24-18.87a.32.32 0 00-.32-.32h-11.28a.32.32 0 00-.32.32l-.18 19.01a.32.32 0 01-.32.32l-18.37-.08a.32.32 0 00-.32.32l-.19 12.03a.32.32 0 00.32.33h18.44M514.764 455.96a.38.38 0 00-.379-.38l-45.48-.16a.38.38 0 00-.381.38l-.048 13.64a.38.38 0 00.379.38l45.48.16a.38.38 0 00.381-.38l.048-13.64"/></g><path d="M0 0h590.06l.19.29V589.8a.46.46 0 01-.46.46L.63 590.24q-.65 0-.21.48l.27.28H0V0zm586.25 4.52a.27.27 0 00-.27-.27H4.52a.27.27 0 00-.27.27v581.46a.27.27 0 00.27.27h581.46a.27.27 0 00.27-.27V4.52z"/><path fill="#222020" d="M590.06 0h.94v587.56c-.84-.45-.25-537.29-.25-587.06a.25.24-86.1 00-.21-.25q-.17-.02-.29.04l-.19-.29z"/><path fill="#fff" d="M590.25.29q.12-.06.29-.04a.25.24-86.1 01.21.25c0 49.77-.59 586.61.25 587.06V591h-14.56q-7.38-.63-14.75 0h-.5q-7.13-.63-14.25 0h-10.75q-4.25-.63-8.5 0h-1.25q-10.38-.63-20.75 0h-3.5q-2.63-.63-5.25 0h-36.75q-4.13-.63-8.25 0h-6.5q-7.38-.63-14.75 0h-.25q-17.75-.63-35.5 0h-2.5q-22.75-.63-45.5 0h-2.5q-4.25-.63-8.5 0h-27.5q-2.25-.63-4.5 0h-6.75q-3.75-.63-7.5 0h-35.25q-2.38-.63-4.75 0h-3.25q-11.88-.63-23.75 0h-34.25q-3.88-.63-7.75 0h-1.25q-3.25-.63-6.5 0h-16.5q-8.38-.63-16.75 0h-10.25q-2.75-.63-5.5 0h-14.5q-3.25-.63-6.5 0h-70.5q-3.38-.63-6.75 0h-.5q-2.25-.63-4.5 0h-8.25q-5.63-.63-11.25 0h-.5l-.27-.28q-.44-.48.21-.48l589.16.02a.46.46 0 00.46-.46V.29z"/><path fill="#fbfce0" d="M586.25 585.98a.27.27 0 01-.27.27H4.52a.27.27 0 01-.27-.27V4.52a.27.27 0 01.27-.27h581.46a.27.27 0 01.27.27v581.46zM31.6 80.08q28.32-27.54 55.95-55.76c.8-.82 1.43-1.88 2.21-2.79a.84.84 0 00-.62-1.39q-20.69-.57-40.46-.35c-20.82.22-26.32 7.09-26.59 27.46q-.26 20.13.18 40.35a.8.79-21.5 001.32.57c2.82-2.49 5.66-5.8 8.01-8.09zm211.69 376.17q.72-2.33-.79-4.21l-1.99-15.27a.75.75 0 01.37-.74q19.22-10.92 26.98-31.74.51-7.79.14-20.79-.09-2.96 2.46-5 1.87 13.03 2.05 26.26a1.2 1.15 67.8 01-.34.86q-5.79 5.95-5.74 14.18c.02 4.11 2.21 6.28-.13 10.43-2.02 3.57-4.82 9.92-3.87 14.21a.85.84-3.2 00.75.66l9.94.95a.54.53-81.9 00.58-.44l1.63-8.94a.46.45-71.8 01.64-.33q7.92 3.76 16.47 1.35a.68.68 0 01.86.67c-.07 3.53-3.91 12.64 4.16 10.98a.81.81 0 01.82.31l.37.52a1.14 1.14 0 00.99.46q6.08-.38 11.37-3.39a.84.83 73.2 00.42-.79q-.88-11.4-6.21-21.48a1.56 1.54-54.2 01-.16-1.02q2.42-13.36-8.42-20.84a1.02 1.02 0 01-.44-.86c.14-22.79-6.24-49.77-14.49-71.61a1.2 1.2 0 01.63-1.51c16.94-7.67 32.37-17.15 48.4-26.58 11.84-6.97 42.93-25.2 54.57-11.53q10.49 12.31 7.87 27.81-.83 4.86-5.38 15.06-7.14 16.04-13.46 32.42c-1.29 3.34-4.59 3.55-6.55 6.19q-.97 1.3-1.81 2.74a.99.97 14.7 01-.85.48l-10.61-.02a.73.73 0 00-.73.72l-.08 18.52a.57.57 0 01-.58.57l-33.94-.04a.59.59 0 00-.59.59l-.14 22.79a.64.64 0 00.64.65h5.05a.65.64 90 01.64.65l-.13 120.91a.71.71 0 01-.72.7l-4.37-.04a.53.53 0 00-.54.53l-.1 27a.5.49 3.3 00.44.49q3.79.4 5.63.26c6.2-.5 14.07-.05 18.46-.04 70.07.1 140.12.73 210.2.47a.52.52 0 00.52-.52l.1-27.12a.51.5-89.4 00-.49-.51l-5.02-.1a.64.63-89.5 01-.62-.64q.2-55.89.07-111.79-.01-2.26.39-9.29a.58.57.5 01.56-.54l6.24-.23a.61.61 0 00.59-.61v-22.96a.63.62 0 00-.63-.62l-33.83.01a.54.54 0 01-.54-.54v-17.54a1.36 1.35-89.4 00-1.32-1.36l-10.41-.23a1.09 1.07 71.6 01-.84-.43c-3.62-4.67-9.26-7.44-15.23-5.96a.94.92 59.6 01-.86-.23q-6.82-6.47-8.46-15.59c-1.8-9.96 14.31-21.46 19.21-27 11.52-13.01 15.54-30.51 8.78-46.66-7.39-17.66-25.2-31.37-42.3-38.18-34.4-13.71-78.67-2.51-108.54 16.8q-4.72 3.05-16.09 11.9-32.8 25.53-68 47.79a.47.46-29.9 01-.66-.17l-7.53-13.82a1.12 1.09-49.6 01-.06-.92c4.42-11.69-5.64-23.07-17.25-21.82-6.5.7-11.1 5-14.28 10.8a.63.61 18.9 01-.66.31l-12.51-2.29a.79.79 0 01-.63-.63q-.67-3.44.04-6.89a.81.8-3.9 01.54-.61c19.98-6.78 39.1-13.47 57.26-24.46a2.36 2.34 84.3 001.02-1.26c8.03-22.51 9.12-47.21 7.42-70.84q-2.01-28.04-8.41-55.43-2.82-12.09-8.55-23.26a1.39 1.35-.9 00-.68-.64c-16.15-7.07-36.98-8.16-54.05-7.24-11.81.64-23.86.46-35.3 2.78-21.87 4.43-43.62 10.04-63.08 21.43q-.7.41-1.84 1.6a1.37 1.36-22.7 00-.36.87q-.37 15.41 1.79 30.72a.94.91 65.6 01-.29.8q-6 5.59.4 10.52a1.45 1.44 12.1 01.52.8q1.55 5.99 1.7 12.22a1.31 1.28-24.3 01-.37.95c-6.81 6.95-9.96 18.7-8.78 28.26q3.15 25.41 26.51 35.72a1.45 1.45 0 01.69.66q7.65 15.24 16.98 29.53c3.64 5.57 5.8 8.69 12.99 9.2q14.7 1.03 29.46.93a.56.56 0 01.57.6l-.17 3.02a.65.65 0 01-.62.62q-12.69.65-24.56 5.08a1.77 1.75-37.4 01-1.64-.21c-14.32-10.22-29.76 1.81-25.85 17.59a1.21 1.17 54.6 01-.14.91c-17.97 29.52-28.88 62.81-29.44 96.07a1.27 1.27 0 01-.36.86c-6.37 6.54-10.1 12.18-7.79 22.14q.11.48-.03.96-2.45 8.52-3.91 17.29c-.32 1.89-.98 3.33 1.65 3.81q5.13.92 7.95 1.27a.92.91-66.3 00.81-.32l.53-.65a1.08 1.06 19.4 01.83-.39h3.7a.5.5 0 00.5-.5l.01-7.53a.8.8 0 011.03-.77q5.62 1.64 11.2-.18 2.06-.67 2.46 1.46l1.39 7.34a.92.91-13 001.15.71l9.55-2.62a1.11 1.11 0 00.77-1.37l-3.77-13.4a1.53 1.53 0 01.03-.95c.76-2.23 1.95-4.49 2.25-6.65 1.08-7.97-2.63-13.39-7.84-18.9a1.18 1.16 24.8 01-.32-.85c.58-10.24.8-20.44 2.77-30.54 1.71-8.76 5.42-18.33 8.64-27.13a.29.29 0 01.56.15c-1.48 7.5-9.53 43.69-5.18 48.05q4.81 4.81 6.94 9.61c3.91 8.8 9.13 16.04 16.42 22.43a1.79 1.77 26.5 01.57 1.68c-1.35 6.75-2.78 13.59-3.89 20.49q-.44 2.77-1.34 5.47a1.34 1.31 84.7 01-.59.73c-7.72 4.52-10.37 13.22-9.21 21.59 1.08 7.79 6.02 12.9 13.07 15.79a1.5 1.5 0 01.91 1.21l2.5 20.6a.47.47 0 01-.5.53c-11.55-.89-22.39 1.15-33.87 4.28q-28.08 7.66-46.4 31.08c-1.72 2.2-9.19 12.24-1.31 12.7q11.78.69 19.32.49c28.81-.73 59.19-3.26 86.35-5.25q6.53-.47 7.5-6.89 2.66-17.81-10.99-28.57a1.09 1.07 18.5 01-.41-.8q-.31-9.49-1.66-18.89c-.62-4.28-.81-8.51-1.27-12.8a1.01 1-24.7 01.31-.83c10.98-10.24 9.85-22.75-.92-32.65a.98.98 0 01-.31-.89q1.54-9.48 4.3-18.68a.56.55-75.3 01.65-.38q10.94 2.27 22.01.81a.6.6 0 01.65.43l5.09 18.2a.79.79 0 01-.2.78c-9.82 9.91-9.87 22.58-.72 33.04a1.2 1.19 26.9 01.29.88c-.43 4.9-.59 9.52-1.27 14.62-.68 5.09.07 15.85-2.65 19.8-10.02 14.57-17.99 36.97 9.96 38.15 25.24 1.07 45.23 1.32 68.69-1.76 5.27-.69 10.24-1.05 8.38-7.84-4.98-18.13-12.81-31.49-31.3-38.25q-15.16-5.54-31.75-3.51a.44.43-2.9 01-.49-.44q.06-3.33.6-6.6c.64-3.83.52-7.94 1.49-11.87a.99.98-3.2 01.6-.66c13.01-4.9 15.76-19.8 8.92-30.79-3.01-4.84-6.95-4.5-6.88-11.86zm-217.454-24.3a1.2.47 11.5 00-1.082-.7 1.2.47 11.5 00-1.27.22 1.2.47 11.5 001.082.7 1.2.47 11.5 001.27-.22z"/><path fill="#f7e1aa" d="M31.6 80.08c-2.35 2.29-5.19 5.6-8.01 8.09a.8.79-21.5 01-1.32-.57q-.44-20.22-.18-40.35c.27-20.37 5.77-27.24 26.59-27.46q19.77-.22 40.46.35a.84.84 0 01.62 1.39c-.78.91-1.41 1.97-2.21 2.79Q59.92 52.54 31.6 80.08z"/><path fill="#222020" d="M270.46 378.5q-.24-6.7-2.3-13.03-.16-.48-.18.03-.93 19.35-.12 38.79-7.76 20.82-26.98 31.74a.75.75 0 00-.37.74l1.99 15.27q-.13 2.21.79 4.21c-.07 7.36 3.87 7.02 6.88 11.86 6.84 10.99 4.09 25.89-8.92 30.79a.99.98-3.2 00-.6.66c-.97 3.93-.85 8.04-1.49 11.87q-.54 3.27-.6 6.6a.44.43-2.9 00.49.44q16.59-2.03 31.75 3.51c18.49 6.76 26.32 20.12 31.3 38.25 1.86 6.79-3.11 7.15-8.38 7.84-23.46 3.08-43.45 2.83-68.69 1.76-27.95-1.18-19.98-23.58-9.96-38.15 2.72-3.95 1.97-14.71 2.65-19.8.68-5.1.84-9.72 1.27-14.62a1.2 1.19 26.9 00-.29-.88c-9.15-10.46-9.1-23.13.72-33.04a.79.79 0 00.2-.78l-5.09-18.2a.6.6 0 00-.65-.43q-11.07 1.46-22.01-.81a.56.55-75.3 00-.65.38q-2.76 9.2-4.3 18.68a.98.98 0 00.31.89c10.77 9.9 11.9 22.41.92 32.65a1.01 1-24.7 00-.31.83c.46 4.29.65 8.52 1.27 12.8q1.35 9.4 1.66 18.89a1.09 1.07 18.5 00.41.8q13.65 10.76 10.99 28.57-.97 6.42-7.5 6.89c-27.16 1.99-57.54 4.52-86.35 5.25q-7.54.2-19.32-.49c-7.88-.46-.41-10.5 1.31-12.7q18.32-23.42 46.4-31.08c11.48-3.13 22.32-5.17 33.87-4.28a.47.47 0 00.5-.53l-2.5-20.6a1.5 1.5 0 00-.91-1.21c-7.05-2.89-11.99-8-13.07-15.79-1.16-8.37 1.49-17.07 9.21-21.59a1.34 1.31 84.7 00.59-.73q.9-2.7 1.34-5.47c1.11-6.9 2.54-13.74 3.89-20.49a1.79 1.77 26.5 00-.57-1.68c-7.29-6.39-12.51-13.63-16.42-22.43q-2.13-4.8-6.94-9.61c-4.35-4.36 3.7-40.55 5.18-48.05a.29.29 0 00-.56-.15c-3.22 8.8-6.93 18.37-8.64 27.13-1.97 10.1-2.19 20.3-2.77 30.54a1.18 1.16 24.8 00.32.85c5.21 5.51 8.92 10.93 7.84 18.9-.3 2.16-1.49 4.42-2.25 6.65a1.53 1.53 0 00-.03.95l3.77 13.4a1.11 1.11 0 01-.77 1.37l-9.55 2.62a.92.91-13 01-1.15-.71l-1.39-7.34q-.4-2.13-2.46-1.46-5.58 1.82-11.2.18a.8.8 0 00-1.03.77l-.01 7.53a.5.5 0 01-.5.5h-3.7a1.08 1.06 19.4 00-.83.39l-.53.65a.92.91-66.3 01-.81.32q-2.82-.35-7.95-1.27c-2.63-.48-1.97-1.92-1.65-3.81q1.46-8.77 3.91-17.29.14-.48.03-.96c-2.31-9.96 1.42-15.6 7.79-22.14a1.27 1.27 0 00.36-.86c.56-33.26 11.47-66.55 29.44-96.07a1.21 1.17 54.6 00.14-.91c-3.91-15.78 11.53-27.81 25.85-17.59a1.77 1.75-37.4 001.64.21q11.87-4.43 24.56-5.08a.65.65 0 00.62-.62l.17-3.02a.56.56 0 00-.57-.6q-14.76.1-29.46-.93c-7.19-.51-9.35-3.63-12.99-9.2q-9.33-14.29-16.98-29.53a1.45 1.45 0 00-.69-.66q-23.36-10.31-26.51-35.72c-1.18-9.56 1.97-21.31 8.78-28.26a1.31 1.28-24.3 00.37-.95q-.15-6.23-1.7-12.22a1.45 1.44 12.1 00-.52-.8q-6.4-4.93-.4-10.52a.94.91 65.6 00.29-.8q-2.16-15.31-1.79-30.72a1.37 1.36-22.7 01.36-.87q1.14-1.19 1.84-1.6c19.46-11.39 41.21-17 63.08-21.43 11.44-2.32 23.49-2.14 35.3-2.78 17.07-.92 37.9.17 54.05 7.24a1.39 1.35-.9 01.68.64q5.73 11.17 8.55 23.26 6.4 27.39 8.41 55.43c1.7 23.63.61 48.33-7.42 70.84a2.36 2.34 84.3 01-1.02 1.26c-18.16 10.99-37.28 17.68-57.26 24.46a.81.8-3.9 00-.54.61q-.71 3.45-.04 6.89a.79.79 0 00.63.63l12.51 2.29a.63.61 18.9 00.66-.31c3.18-5.8 7.78-10.1 14.28-10.8 11.61-1.25 21.67 10.13 17.25 21.82a1.12 1.09-49.6 00.06.92l7.53 13.82a.47.46-29.9 00.66.17q35.2-22.26 68-47.79 11.37-8.85 16.09-11.9c29.87-19.31 74.14-30.51 108.54-16.8 17.1 6.81 34.91 20.52 42.3 38.18 6.76 16.15 2.74 33.65-8.78 46.66-4.9 5.54-21.01 17.04-19.21 27q1.64 9.12 8.46 15.59a.94.92 59.6 00.86.23c5.97-1.48 11.61 1.29 15.23 5.96a1.09 1.07 71.6 00.84.43l10.41.23a1.36 1.35-89.4 011.32 1.36v17.54a.54.54 0 00.54.54l33.83-.01a.63.62 0 01.63.62v22.96a.61.61 0 01-.59.61l-6.24.23a.58.57.5 00-.56.54q-.4 7.03-.39 9.29.13 55.9-.07 111.79a.64.63-89.5 00.62.64l5.02.1a.51.5-89.4 01.49.51l-.1 27.12a.52.52 0 01-.52.52c-70.08.26-140.13-.37-210.2-.47-4.39-.01-12.26-.46-18.46.04q-1.84.14-5.63-.26a.5.49 3.3 01-.44-.49l.1-27a.53.53 0 01.54-.53l4.37.04a.71.71 0 00.72-.7l.13-120.91a.65.64 90 00-.64-.65h-5.05a.64.64 0 01-.64-.65l.14-22.79a.59.59 0 01.59-.59l33.94.04a.57.57 0 00.58-.57l.08-18.52a.73.73 0 01.73-.72l10.61.02a.99.97 14.7 00.85-.48q.84-1.44 1.81-2.74c1.96-2.64 5.26-2.85 6.55-6.19q6.32-16.38 13.46-32.42 4.55-10.2 5.38-15.06 2.62-15.5-7.87-27.81c-11.64-13.67-42.73 4.56-54.57 11.53-16.03 9.43-31.46 18.91-48.4 26.58a1.2 1.2 0 00-.63 1.51c8.25 21.84 14.63 48.82 14.49 71.61a1.02 1.02 0 00.44.86q10.84 7.48 8.42 20.84a1.56 1.54-54.2 00.16 1.02q5.33 10.08 6.21 21.48a.84.83 73.2 01-.42.79q-5.29 3.01-11.37 3.39a1.14 1.14 0 01-.99-.46l-.37-.52a.81.81 0 00-.82-.31c-8.07 1.66-4.23-7.45-4.16-10.98a.68.68 0 00-.86-.67q-8.55 2.41-16.47-1.35a.46.45-71.8 00-.64.33l-1.63 8.94a.54.53-81.9 01-.58.44l-9.94-.95a.85.84-3.2 01-.75-.66c-.95-4.29 1.85-10.64 3.87-14.21 2.34-4.15.15-6.32.13-10.43q-.05-8.23 5.74-14.18a1.2 1.15 67.8 00.34-.86q-.18-13.23-2.05-26.26zm-6.16-268.01c-12.52-3.84-26.46-5.12-39.49-4.99q-.52 0-.09.28 1.55 1 3.31 1.4c4.79 1.1 9.03 3.13 13.5 5.1 5.4 2.37 16.17.02 22.76-1.52q.49-.12.01-.27zm-77.47 105.96c-2.08 20.66-15.31 34.83-37.93 32.11a.4.39-9 00-.41.56q6.76 14.19 16 26.79c1.19 1.62 1.92 1.97 3.83 2.25 22.72 3.28 48.81 2.62 68.97-9.39 9.62-5.73 14.04-33.68 15.02-45.09q.08-.94-.59-.27l-1.14 1.13q-.37.37-.85.58c-23.63 10.37-43.36-16.21-36.19-37.61 5.73-17.12 25-21.42 38.26-9.55q.5.45.42-.22l-2.21-16.88a.42.42 0 00-.75-.2c-1.98 2.59-4.02 1.76-6.65.65q-12.39-5.22-23.86-8.04c-2.32-.57-3.15-1.64-3.02-4.12q.54-10.41 3.49-20.49a2.01 2-82 011.91-1.44c6.75-.06 16.05 3.7 22.08 6.32a1.02 1.01 3.7 001.38-1.21L240.78 119a1.83 1.76-78.6 00-.56-.88q-1.44-1.21-3.28-1.64c-8.55-1.99-16.03-4.61-22.52-5.39-29.19-3.55-61.88 1.06-87.8 15.53a2.59 2.58 76.1 00-1.33 2.21l-.37 20.03q-.01.56.36.14 6.08-6.82 13.93-11.57a2.08 2.07 55.9 012.74.53q5.44 7.24 9.4 15.65c1.2 2.53 1.44 5.09-1.16 6.61-7.94 4.61-14.94 8.34-22.31 15.2q-.36.33.09.13c12.88-5.67 34.56-6.41 45.27 4.22q15.71 15.58 13.59 36.68zm66.327-76.477a.79.69 59.8 00.2-1.03.79.69 59.8 00-.994-.336.79.69 59.8 00-.2 1.03.79.69 59.8 00.994.336zm-8.261 79.344a21.55 18.96 69.9 0010.4-26.753 21.55 18.96 69.9 00-25.212-13.721 21.55 18.96 69.9 00-10.4 26.753 21.55 18.96 69.9 0025.212 13.721zm-86.826 19.658a31.69 27.8 68.8 0014.459-39.598 31.69 27.8 68.8 00-37.379-19.492 31.69 27.8 68.8 00-14.459 39.598 31.69 27.8 68.8 0037.379 19.492zm23.43-26.845c2.65-8.61-6.04-27.59-14.54-31.13q-.51-.21-.19.24c3.27 4.59 7.14 8.1 9.86 14.31 2.26 5.18 3.26 10.85 4.05 16.52a.42.42 0 00.82.06zm279.67 171.21l-.2 11.52a.63.63 0 00.63.64h7.35a.7.7 0 00.7-.69l.15-18.3a.46.46 0 01.45-.46l10.54-.18a1.14 1.13 17.2 00.9-.47l1.83-2.48a.76.75-46.1 00-.01-.92c-14.62-18.33-7.49-32.2 8.05-45.55 9.71-8.33 18.09-23.46 14.81-36.61-5.05-20.26-25.12-35.64-43.99-41.65-13.89-4.42-32.31-4.5-46.63-2.18q-27.06 4.38-51.54 20.46c-7.88 5.18-18.42 14.32-28.72 21.64q-4.15 2.95-8.05 6.28-.38.33.06.08c17.81-10.15 51.38-29.15 67.19-4.96q13.02 19.92 2.61 43.52c-5.79 13.13-10.73 22.77-14.56 34.68a.49.48-74.3 00.34.62q5.77 1.47 8.48 6.67a1.4 1.39-13.7 001.24.75h11.45a.5.5 0 01.5.5v18.79a.53.52 89 00.54.53l6.82-.27a.66.66 0 00.64-.66l.01-10.4a1.49 1.49 0 011.49-1.49h46.34a.58.58 0 01.58.59zm-201.53-84.43c9.37-11.05-13.09-17.81-16.62-3.51a1.27 1.21-52.6 00.09.85q1.96 3.98 5.12 7.11a1.21 1.16 66.8 00.8.34q6.49.07 10.61-4.79zm-80.89 93.63l26.79-.41 38.94 4.84a.46.45-85.4 00.51-.44c.37-12.38.91-24.91.9-37.13 0-13.07-.4-26.21.26-39.27.37-7.46-3.47-19.49-12.17-21.32-18.91-4-39.83-3.97-57.74 2.78a1.3 1.25-85.7 00-.69.62q-8.05 16.15-10.08 22.03-9.34 27-13.73 59.5-1.16 8.54-.74 13.85a.38.38 0 00.51.33c8.24-2.97 17.06-3.94 27.24-5.38zm-24.49-79.79c9.04 2.49 11.05-6 14.31-12.12a.76.75-51.7 00-.09-.83q-2.01-2.44-5.03-2.56-11.41-.44-12.24 11.28c-.14 1.95 1.05 3.67 3.05 4.23zm106.16 6.51q1.97-3.83 6.33-3.79a.39.39 0 00.35-.57l-2.4-4.6a.5.5 0 00-.69-.2l-6.22 3.51a.45.44 62.8 00-.18.58l2.37 5.06q.21.46.44.01zm-115.11 9.81a.35.35 0 00.2.5l6.91 2.32a.35.35 0 00.43-.18l3.75-7.97a.35.35 0 00-.14-.44l-5.59-3.47a.35.35 0 00-.49.13l-5.07 9.11zm124.02-8.86q-4.06.17-7.47 2.28a.73.73 0 00-.27.94l3.65 7.38a.73.73 0 00.97.33l6.88-3.3a.7.69 64.4 00.32-.93l-2.97-6.04a1.19 1.18-14.2 00-1.11-.66zm1.89 28.79q4.08-2.39 8.79-3.01a.54.53-15 00.43-.73l-4.72-11.56a.5.49 67.6 00-.64-.27l-7.4 3.03a.45.45 0 00-.24.61q2.54 5.69 3.58 11.83a.14.13 70.8 00.2.1zm-133.89-3.52a.99.99 0 00.62 1.34l6.21 1.93a.99.99 0 001.2-.54l4.63-10.27a.99.99 0 00-.62-1.36l-6.42-1.93a.99.99 0 00-1.2.56l-4.42 10.27zm-5.77 17.92q3.91-.47 7.14 1.49a.45.45 0 00.66-.25l3.07-10.38a.59.59 0 00-.41-.73l-6.58-1.86a.67.67 0 00-.8.4l-3.91 10.26a.79.79 0 00.83 1.07zm150.617-11.31a.27.27 0 00-.323-.204l-9.4 2.135a.27.27 0 00-.204.323l2.973 13.087a.27.27 0 00.323.203l9.4-2.135a.27.27 0 00.204-.323l-2.973-13.087zm-144.735 18.23a.27.27 0 00-.21-.319l-8.029-1.663a.27.27 0 00-.319.21l-2.226 10.752a.27.27 0 00.21.319l8.029 1.663a.27.27 0 00.319-.21l2.226-10.752zm140.028 14.07a.72.72 0 00.85.61l9.6-1.75a.72.72 0 00.57-.85l-1.84-8.99a.72.72 0 00-.77-.57l-9.02.74a.72.72 0 00-.66.81l1.27 10zm120.02-1.827a.27.27 0 00-.269-.271l-36.68-.064a.27.27 0 00-.27.27l-.022 12.52a.27.27 0 00.27.27l36.68.064a.27.27 0 00.27-.27l.022-12.52zm117.142.354a.37.37 0 00-.37-.371l-37.519-.131a.37.37 0 00-.371.368l-.044 12.44a.37.37 0 00.37.371l37.519.131a.37.37 0 00.371-.368l.044-12.44zm-380.543 3.248a.26.26 0 00-.239-.28l-7.914-.637a.26.26 0 00-.28.238l-.785 9.749a.26.26 0 00.239.28l7.914.637a.26.26 0 00.28-.238l.785-9.749zm155.27 4.276a.45.45 0 00-.482-.416l-10.033.737a.45.45 0 00-.416.481l.653 8.896a.45.45 0 00.482.416l10.033-.737a.45.45 0 00.416-.481l-.653-8.896zM156.68 403.3c3.21 10.24 12.35 25.2 24.3 26.01 20.08 1.36 37.85-10.67 47.79-27.42a.39.39 0 00-.29-.58q-18.36-2.36-36.98-2.56c-11.46-.12-23.1 2.08-34.48 3.98a.44.44 0 00-.34.57zm168.36 5.45l-.05 3.49a.49.49 0 00.49.49l19.07-.2q9.68.41 19.46.13c3.55-.1 7.3.34 10.99.35q62.85.26 125.69.39c16.09.03 32.55.22 48.37-.21a.56.55-.5 00.55-.55l-.03-9.7a.69.69 0 00-.69-.69q-92.82-.1-185.63-.87c-10.57-.09-24.46.25-36.78 0a1.45 1.45 0 00-1.48 1.46l.04 5.91zm-192.472-5.926a1.25 1.25 0 00-1.276-1.224l-5.759.121a1.25 1.25 0 00-1.224 1.276l.083 3.96a1.25 1.25 0 001.276 1.223l5.759-.121a1.25 1.25 0 001.224-1.276l-.083-3.96zM273.94 425.14q11.09 3.4 18.85-3.36c4.86-4.23 5.15-9.96-.28-13.83-5.37-3.83-12.78-1.67-16.87 2.57-3.51 3.62-3.96 8.28-3.06 13.1a1.97 1.97 0 001.36 1.52zm-157.87 8.1c2.94.18 5.08 1.46 6.67 1.28 5.17-.6 12.71-3.72 14.71-8.95q.92-2.42.6-3.6c-4.61-17.05-30.96-3.51-22.73 10.8a.96.95-12.6 00.75.47zM331.46 436q-.54 9.86-.31 19.72c.16 7.57-.43 16.88.29 25.35.12 1.33-.47 2.32-.35 3.72q.16 1.81.16 1.92-.02 26.99-.22 53.76a.9.89 1 00.88.9c51.93.78 103.92.84 155.84.59l53.28.02a.67.66 0 00.67-.66l.21-114.1a.98.98 0 00-.98-.98l-41.43.05q-1.25-.11-2.5-.11-58.63-.04-117.25-.14l-47.6-.1a.53.52-89.4 00-.52.52l-.17 9.54zm-61.35 5.18a.61.61 0 00.63-.47c.61-2.62 3.53-10.21 1.15-12.17a.47.46-58.2 00-.72.17l-5.21 11.47a.54.54 0 00.46.76l3.69.24zm30.76-9.49c-.98.88-1.37 1.77-.86 3.13q1.95 5.17 1.92 10.77a.53.53 0 00.57.53l3.9-.31a.64.64 0 00.59-.7q-.65-7.67-3.89-14.67a.57.57 0 00-.72-.3q-.66.26-1.03.95-.19.34-.48.6zm-159.623 7.03a1.07 1.07 0 00-1.313-.751l-1.64.445a1.07 1.07 0 00-.752 1.314l2.61 9.611a1.07 1.07 0 001.314.752l1.64-.445a1.07 1.07 0 00.752-1.314l-2.61-9.611zm33.243 8.25c3.16.11 6.01.44 8.99 1.65a.56.55-67.8 00.72-.31q1.2-3 1.22-6.21a.64.64 0 00-.54-.64q-4.79-.71-8.63-3.57a.44.43-66.8 00-.69.28l-1.46 8.31a.41.41 0 00.39.49zm-64.41 3.87l2.07.06a.87.86-80.2 00.85-.6c1.14-3.35 3.21-8.47-.36-10.15a.59.59 0 00-.83.41l-2.19 9.68a.49.49 0 00.46.6zm121.7-10.041a.27.27 0 00-.33-.195l-9.472 2.433a.27.27 0 00-.195.328l1.458 5.676a.27.27 0 00.328.195l9.473-2.433a.27.27 0 00.195-.328l-1.458-5.676zm-51.03 12.931l-7.03-.69a.85.84-80.6 00-.9.65l-1.47 6.4a.54.53 6.7 00.53.66l7.19-.01a2.09 2.09 0 002.01-1.52l.99-3.56a1.53 1.53 0 00-1.32-1.93zm45 3.81l.26 2.65a.58.58 0 00.55.52l1.15.04q3.45.57 6.97.09a.5.5 0 00.43-.54l-.51-6.26a1.16 1.16 0 00-1.43-1.03l-7.44 1.76a.8.8 0 00-.62.77q0 1.15.64 2zm-58.9 33.39c4.14.3 12.84-7.38 15.92-10.17 6.66-6.03 5.29-14.05-4.8-13.86-3.51.06-13-.79-14.94 2.9-2.97 5.61-3.74 14.46.92 19.59q1.3 1.43 2.9 1.54zm56.06-.95q5.87-1.08 10.75-4.42c2.28-1.56 3.77-3.95 5.59-6.12 2.85-3.4 3.18-4.93 2.48-9.19-.41-2.49-1.04-3.7-3.9-3.38-5.32.58-13.98-.67-17.08 4.38-2.87 4.67-3.96 14.56 1.27 18.52a1.14 1.14 0 00.89.21zm-41.71 12.67q1.57-1.51.76-3.72a.69.68-9.3 00-.63-.45q-.16-.01-.33.06l-5.41 1.26a.67.66-5.8 00-.51.62l-.08 2.3a.51.5-10.2 00.7.48q2.49-1.04 5.5-.55zm44.19-.77c2.98-.96 5.51.28 8 .52a.57.56-82.6 00.62-.48l.27-1.85a.51.51 0 00-.46-.58l-8.11-.72a.6.59 5.8 00-.66.53l-.24 2.1a.45.45 0 00.58.48zm7.9 6.944a.27.27 0 00-.248-.29l-8.395-.646a.27.27 0 00-.29.248l-.528 6.86a.27.27 0 00.249.29l8.395.646a.27.27 0 00.29-.248l.528-6.86zm-49.84-.25a.26.26 0 00-.277-.24l-7.023.49a.26.26 0 00-.241.278l.46 6.584a.26.26 0 00.278.24l7.023-.49a.26.26 0 00.241-.278l-.46-6.584zm.87 16.196a.3.3 0 00.4-.28l.05-3.38a.3.3 0 00-.38-.3l-5.55 1.61a.3.3 0 00-.01.57l5.49 1.78zm38.95-2.76l-.07 1.98a.27.27 0 00.39.25l5.7-2.82q.72-.36-.08-.41-2.62-.14-5.21.2a.84.83-2.8 00-.73.8zm12.23 4.53q-20.43 6.52-23.56 27.99c-1.1 7.59 8.31 8.74 13.62 8.82q18.51.27 45.51.03 8.05-.07 14.84-1.38a.55.54-9.1 00.44-.6c-1.55-13.56-11.13-25.46-22.52-32.54q-13.61-7.1-28.33-2.32zm-111.25 35.92l27.26-1.79q21.79-.61 43.62-2.9a.8.8 0 00.7-.63q2.03-9.64-3.13-17.08c-8.35-12.07-25.18-14.08-38.94-11.48-24.07 4.55-42.38 11.52-57.59 31.54q-.9 1.17-1.23 2.03a.84.84 0 00.81 1.14l28.5-.83zm423.332-13.116a.57.57 0 00-.57-.571l-220.819-.386a.57.57 0 00-.57.57l-.025 13.78a.57.57 0 00.57.57l220.819.386a.57.57 0 00.57-.57l.025-13.78z"/><path fill="#fff" d="M224.81 105.5c13.03-.13 26.97 1.15 39.49 4.99q.48.15-.01.27c-6.59 1.54-17.36 3.89-22.76 1.52-4.47-1.97-8.71-4-13.5-5.1q-1.76-.4-3.31-1.4-.43-.28.09-.28z"/><path fill="#949698" d="M148.9 248.56c22.62 2.72 35.85-11.45 37.93-32.11q2.12-21.1-13.59-36.68c-10.71-10.63-32.39-9.89-45.27-4.22q-.45.2-.09-.13c7.37-6.86 14.37-10.59 22.31-15.2 2.6-1.52 2.36-4.08 1.16-6.61q-3.96-8.41-9.4-15.65a2.08 2.07 55.9 00-2.74-.53q-7.85 4.75-13.93 11.57-.37.42-.36-.14l.37-20.03a2.59 2.58 76.1 011.33-2.21c25.92-14.47 58.61-19.08 87.8-15.53 6.49.78 13.97 3.4 22.52 5.39q1.84.43 3.28 1.64a1.83 1.76-78.6 01.56.88l3.81 13.33a1.02 1.01 3.7 01-1.38 1.21c-6.03-2.62-15.33-6.38-22.08-6.32a2.01 2-82 00-1.91 1.44q-2.95 10.08-3.49 20.49c-.13 2.48.7 3.55 3.02 4.12q11.47 2.82 23.86 8.04c2.63 1.11 4.67 1.94 6.65-.65a.42.42 0 01.75.2l2.21 16.88q.08.67-.42.22c-13.26-11.87-32.53-7.57-38.26 9.55-7.17 21.4 12.56 47.98 36.19 37.61q.48-.21.85-.58l1.14-1.13q.67-.67.59.27c-.98 11.41-5.4 39.36-15.02 45.09-20.16 12.01-46.25 12.67-68.97 9.39-1.91-.28-2.64-.63-3.83-2.25q-9.24-12.6-16-26.79a.4.39-9 01.41-.56zm71.79 8.81c.72-1.53 1.3-3.9 1.6-5.56a.92.91 2.1 00-1-1.07q-20.27 2.15-40.18 6.52a1.05 1.05 0 00-.73 1.47l1.9 4.2a.97.97 0 00.81.56q1.56.1 2.35-.05 17.4-3.29 34.92-5.83a.46.44 7.4 00.33-.24z"/><ellipse fill="#949698" transform="rotate(59.8 5.264 289.427)" rx=".79" ry=".69"/><path fill="#949698" d="M244.896 219.317a21.55 18.96 69.9 01-25.211-13.721 21.55 18.96 69.9 0110.4-26.754 21.55 18.96 69.9 0125.21 13.722 21.55 18.96 69.9 01-10.4 26.754zm-1.833-3.844a17.21 15.06 70.4 008.414-21.265 17.21 15.06 70.4 00-19.96-11.16 17.21 15.06 70.4 00-8.414 21.264 17.21 15.06 70.4 0019.96 11.16zM158.07 238.975a31.69 27.8 68.8 01-37.379-19.492 31.69 27.8 68.8 0114.46-39.598 31.69 27.8 68.8 0137.378 19.492 31.69 27.8 68.8 01-14.46 39.598zm-3.299-5.215a25.98 22.6 70.9 0012.855-31.945 25.98 22.6 70.9 00-29.857-17.155 25.98 22.6 70.9 00-12.855 31.945 25.98 22.6 70.9 0029.857 17.155z"/><path fill="#fff" d="M166.96 181c8.5 3.54 17.19 22.52 14.54 31.13a.42.42 0 01-.82-.06c-.79-5.67-1.79-11.34-4.05-16.52-2.72-6.21-6.59-9.72-9.86-14.31q-.32-.45.19-.24z"/><path fill="#222020" d="M243.063 215.473a17.21 15.06 70.4 01-19.96-11.161 17.21 15.06 70.4 018.414-21.265 17.21 15.06 70.4 0119.96 11.161 17.21 15.06 70.4 01-8.414 21.265zM227.55 200.79c1.12 2.97 16.78-.17 19.45-3-2.28-15.88-24.17-12.13-19.45 3zm3.61 7.33q10.29 6.98 16.04-3.32c.06-.11.07-1.15.05-1.19a.45.45 0 00-.69-.12c-2.66 2.37-15.66 3.69-15.59 4.33a.45.45 0 00.19.3zM154.771 233.76a25.98 22.6 70.9 01-29.857-17.155 25.98 22.6 70.9 0112.855-31.945 25.98 22.6 70.9 0129.857 17.155 25.98 22.6 70.9 01-12.855 31.945zm-26.401-26.13c-.42 3.8.49 9.96 5.45 10.3q15.19 1.03 28.22-6.69 3.33-1.97 1.64-5.14-2.81-12.71-14.8-16.56c-2.61-.84-4.51-1.49-6.88-.84-7.27 1.97-16.6 10.35-13.63 18.93zm11.54 16.13c-.99-.05-2.91-.46-4.37-.29q-.53.07-.15.43c9.63 9.35 21.76 7.3 27.77-4.44a.45.45 0 00-.6-.6q-10.72 5.5-22.65 4.9z"/><path fill="#fff" d="M247 197.79l-.38-.04a.57.55 84.2 01-.47-.4c-1.67-5.88-8.92-10.33-13.95-5.27q-3.51 3.53-4.65 8.71c-4.72-15.13 17.17-18.88 19.45-3zM163.68 206.1q-3.23-3.14-4.33-7.61a1.29 1.24-81 00-.53-.76c-5.42-3.56-12.47-6.17-18.82-3.96q-9.28 3.22-11.63 13.86c-2.97-8.58 6.36-16.96 13.63-18.93 2.37-.65 4.27 0 6.88.84q11.99 3.85 14.8 16.56z"/><path fill="#949698" d="M247 197.79c-2.67 2.83-18.33 5.97-19.45 3q1.14-5.18 4.65-8.71c5.03-5.06 12.28-.61 13.95 5.27a.57.55 84.2 00.47.4l.38.04zM163.68 206.1q1.69 3.17-1.64 5.14-13.03 7.72-28.22 6.69c-4.96-.34-5.87-6.5-5.45-10.3q2.35-10.64 11.63-13.86c6.35-2.21 13.4.4 18.82 3.96a1.29 1.24-81 01.53.76q1.1 4.47 4.33 7.61zM231.16 208.12a.45.45 0 01-.19-.3c-.07-.64 12.93-1.96 15.59-4.33a.45.45 0 01.69.12c.02.04.01 1.08-.05 1.19q-5.75 10.3-16.04 3.32zM139.91 223.76q11.93.6 22.65-4.9a.45.45 0 01.6.6c-6.01 11.74-18.14 13.79-27.77 4.44q-.38-.36.15-.43c1.46-.17 3.38.24 4.37.29z"/><path fill="#fbfce0" d="M460.59 382.75h-46.34a1.49 1.49 0 00-1.49 1.49l-.01 10.4a.66.66 0 01-.64.66l-6.82.27a.53.52 89 01-.54-.53v-18.79a.5.5 0 00-.5-.5H392.8a1.4 1.39-13.7 01-1.24-.75q-2.71-5.2-8.48-6.67a.49.48-74.3 01-.34-.62c3.83-11.91 8.77-21.55 14.56-34.68q10.41-23.6-2.61-43.52c-15.81-24.19-49.38-5.19-67.19 4.96q-.44.25-.06-.08 3.9-3.33 8.05-6.28c10.3-7.32 20.84-16.46 28.72-21.64q24.48-16.08 51.54-20.46c14.32-2.32 32.74-2.24 46.63 2.18 18.87 6.01 38.94 21.39 43.99 41.65 3.28 13.15-5.1 28.28-14.81 36.61-15.54 13.35-22.67 27.22-8.05 45.55a.76.75-46.1 01.01.92l-1.83 2.48a1.14 1.13 17.2 01-.9.47l-10.54.18a.46.46 0 00-.45.46l-.15 18.3a.7.7 0 01-.7.69h-7.35a.63.63 0 01-.63-.64l.2-11.52a.58.58 0 00-.58-.59z"/><path fill="#222020" d="M222.29 251.81c-.3 1.66-.88 4.03-1.6 5.56a.46.44 7.4 01-.33.24q-17.52 2.54-34.92 5.83-.79.15-2.35.05a.97.97 0 01-.81-.56l-1.9-4.2a1.05 1.05 0 01.73-1.47q19.91-4.37 40.18-6.52a.92.91 2.1 011 1.07z"/><path fill="#949698" d="M243.02 295.4c3.53-14.3 25.99-7.54 16.62 3.51q-4.12 4.86-10.61 4.79a1.21 1.16 66.8 01-.8-.34q-3.16-3.13-5.12-7.11a1.27 1.21-52.6 01-.09-.85zM205.54 392.13q-14.21-2.09-28.54-.66a.36.36 0 00-.28.53q.55 1.02 2.03.54c-10.18 1.44-19 2.41-27.24 5.38a.38.38 0 01-.51-.33q-.42-5.31.74-13.85 4.39-32.5 13.73-59.5 2.03-5.88 10.08-22.03a1.3 1.25-85.7 01.69-.62c17.91-6.75 38.83-6.78 57.74-2.78 8.7 1.83 12.54 13.86 12.17 21.32-.66 13.06-.26 26.2-.26 39.27.01 12.22-.53 24.75-.9 37.13a.46.45-85.4 01-.51.44l-38.94-4.84zm-25.69-11.57c.14 4.8 6.59 2.93 9.12 2.94q14.66.01 29.33-.01c2.45 0 3.51-1.24 3.64-3.56q2-36.63 4.42-73.24c.11-1.64-.51-2.73-2.15-3.26-10.69-3.49-19.09-2.98-30.26-.64-.98.21-3.62.32-3.91 1.77q-3.34 16.6-6.79 33.19-4.06 19.55-3.4 42.81zM154.26 312.75c-2-.56-3.19-2.28-3.05-4.23q.83-11.72 12.24-11.28 3.02.12 5.03 2.56a.76.75-51.7 01.09.83c-3.26 6.12-5.27 14.61-14.31 12.12z"/><path fill="#222020" d="M188.97 383.5c-2.53-.01-8.98 1.86-9.12-2.94q-.66-23.26 3.4-42.81 3.45-16.59 6.79-33.19c.29-1.45 2.93-1.56 3.91-1.77 11.17-2.34 19.57-2.85 30.26.64 1.64.53 2.26 1.62 2.15 3.26q-2.42 36.61-4.42 73.24c-.13 2.32-1.19 3.56-3.64 3.56q-14.67.02-29.33.01zm13.28-5.96l.16.33a.6.59-10.7 00.51.34q5.56.3 11.08-.42l2.02.06a.52.51-84.9 00.52-.44c1.04-6.9.42-14.44.84-21.48q1.38-23.36 3.39-46.69a1.02 1.01-79.1 00-.71-1.06q-11.83-3.75-23.75-.2a1.01.99.4 00-.68.66q-10.66 33.62-10.16 68.89a.47.47 0 00.52.46q8.06-.84 16.26-.45z"/><path fill="#fff" d="M214 377.79l-11.75-.25q-8.2-.39-16.26.45a.47.47 0 01-.52-.46q-.5-35.27 10.16-68.89a1.01.99.4 01.68-.66q11.92-3.55 23.75.2a1.02 1.01-79.1 01.71 1.06q-2.01 23.33-3.39 46.69c-.42 7.04.2 14.58-.84 21.48a.52.51-84.9 01-.52.44l-2.02-.06zm-23.13-26.23c-.33 3.01-.59 5.76-1.01 8.75a.46.45 3.7 00.46.52l22.19-.4a.7.7 0 00.69-.68l.26-8.17a.57.56 1 00-.57-.58h-21.4a.63.62-86.9 00-.62.56zm21.88 22.9q.8-3.61.53-8.84l-23-.13a.53.53 0 00-.53.53v8.17a.48.48 0 00.49.48l22.51-.21z"/><path fill="#949698" d="M260.42 319.26q-.23.45-.44-.01l-2.37-5.06a.45.44 62.8 01.18-.58l6.22-3.51a.5.5 0 01.69.2l2.4 4.6a.39.39 0 01-.35.57q-4.36-.04-6.33 3.79zM145.31 329.07l5.07-9.11a.35.35 0 01.49-.13l5.59 3.47a.35.35 0 01.14.44l-3.75 7.97a.35.35 0 01-.43.18l-6.91-2.32a.35.35 0 01-.2-.5zM270.44 320.87l2.97 6.04a.7.69 64.4 01-.32.93l-6.88 3.3a.73.73 0 01-.97-.33l-3.65-7.38a.73.73 0 01.27-.94q3.41-2.11 7.47-2.28a1.19 1.18-14.2 011.11.66zM271.22 349a.14.13 70.8 01-.2-.1q-1.04-6.14-3.58-11.83a.45.45 0 01.24-.61l7.4-3.03a.5.49 67.6 01.64.27l4.72 11.56a.54.53-15 01-.43.73q-4.71.62-8.79 3.01zM137.33 345.48l4.42-10.27a.99.99 0 011.2-.56l6.42 1.93a.99.99 0 01.62 1.36l-4.63 10.27a.99.99 0 01-1.2.54l-6.21-1.93a.99.99 0 01-.62-1.34z"/><path fill="#222020" d="M189.86 360.31c.42-2.99.68-5.74 1.01-8.75a.63.62-86.9 01.62-.56h21.4a.57.56 1 01.57.58l-.26 8.17a.7.7 0 01-.69.68l-22.19.4a.46.45 3.7 01-.46-.52z"/><path fill="#949698" d="M131.56 363.4a.79.79 0 01-.83-1.07l3.91-10.26a.67.67 0 01.8-.4l6.58 1.86a.59.59 0 01.41.73l-3.07 10.38a.45.45 0 01-.66.25q-3.23-1.96-7.14-1.49z"/><rect fill="#949698" x="-5.09" y="-6.98" transform="rotate(-12.8 1743.016 -1062.453)" width="10.18" height="13.96" rx=".27"/><path fill="#fff" d="M270.46 378.5q-2.55 2.04-2.46 5 .37 13-.14 20.79-.81-19.44.12-38.79.02-.51.18-.03 2.06 6.33 2.3 13.03z"/><path fill="#222020" d="M213.28 365.62l-.57 1.26q-.21.45-.19.94l.23 6.64-22.51.21a.48.48 0 01-.49-.48v-8.17a.53.53 0 01.53-.53l23 .13z"/><path fill="#949698" d="M213.28 365.62q.27 5.23-.53 8.84l-.23-6.64q-.02-.49.19-.94l.57-1.26z"/><rect fill="#949698" x="-4.37" y="-5.76" transform="rotate(11.7 -1763.065 831.815)" width="8.74" height="11.52" rx=".27"/><path fill="#949698" d="M277.47 384.39l-1.27-10a.72.72 0 01.66-.81l9.02-.74a.72.72 0 01.77.57l1.84 8.99a.72.72 0 01-.57.85l-9.6 1.75a.72.72 0 01-.85-.61zM214 377.79q-5.52.72-11.08.42a.6.59-10.7 01-.51-.34l-.16-.33 11.75.25z"/><rect fill="#949698" x="-18.61" y="-6.53" transform="rotate(.1 -222570.77 217270.86)" width="37.22" height="13.06" rx=".27"/><rect fill="#949698" x="-19.13" y="-6.59" transform="rotate(.2 -111212.491 142138.955)" width="38.26" height="13.18" rx=".37"/><rect fill="#949698" x="-4.23" y="-5.15" transform="rotate(4.6 -4799.05 1807.235)" width="8.46" height="10.3" rx=".26"/><rect fill="#949698" x="-5.48" y="-4.91" transform="rotate(-4.2 5532.183 -3677.906)" width="10.96" height="9.82" rx=".45"/><path fill="#fff" d="M205.54 392.13l-26.79.41q-1.48.48-2.03-.54a.36.36 0 01.28-.53q14.33-1.43 28.54.66z"/><path fill="#949698" d="M180.98 429.31c-11.95-.81-21.09-15.77-24.3-26.01a.44.44 0 01.34-.57c11.38-1.9 23.02-4.1 34.48-3.98q18.62.2 36.98 2.56a.39.39 0 01.29.58c-9.94 16.75-27.71 28.78-47.79 27.42zM344.55 412.53q-2.73-1.38-3.78-1.26-4 .49-7.96.13c-3-.28-6.06 1.51-7.77-2.65l-.04-5.91a1.45 1.45 0 011.48-1.46c12.32.25 26.21-.09 36.78 0q92.81.77 185.63.87a.69.69 0 01.69.69l.03 9.7a.56.55-.5 01-.55.55c-15.82.43-32.28.24-48.37.21q-62.84-.13-125.69-.39c-3.69-.01-7.44-.45-10.99-.35q-9.78.28-19.46-.13z"/><rect fill="#949698" x="-4.13" y="-3.23" transform="rotate(-1.2 19395.607 -5931.799)" width="8.26" height="6.46" rx="1.25"/><path fill="#949698" d="M273.94 425.14a1.97 1.97 0 01-1.36-1.52c-.9-4.82-.45-9.48 3.06-13.1 4.09-4.24 11.5-6.4 16.87-2.57 5.43 3.87 5.14 9.6.28 13.83q-7.76 6.76-18.85 3.36z"/><path fill="#fff" d="M325.04 408.75c1.71 4.16 4.77 2.37 7.77 2.65q3.96.36 7.96-.13 1.05-.12 3.78 1.26l-19.07.2a.49.49 0 01-.49-.49l.05-3.49z"/><path fill="#949698" d="M122.74 434.52c-1.59.18-3.73-1.1-6.67-1.28a.96.95-12.6 01-.75-.47c-8.23-14.31 18.12-27.85 22.73-10.8q.32 1.18-.6 3.6c-2 5.23-9.54 8.35-14.71 8.95zm3.38-16.66c-2.94-.63-4.29 1.45-4.27 4.11a.54.54 0 00.54.53h3.26a.87.87 0 00.87-.83l.15-3.11a.69.69 0 00-.55-.7z"/><path fill="#fff" d="M121.85 421.97c-.02-2.66 1.33-4.74 4.27-4.11a.69.69 0 01.55.7l-.15 3.11a.87.87 0 01-.87.83h-3.26a.54.54 0 01-.54-.53zM379.75 426.04q1.27.46-.24 1.07a1.01.86-49.7 01-.3.05l-46-.32a.8.79 3.2 00-.79.7q-.53 4.5.21 8.95a.25.24-25.8 01-.08.22q-.42.39-1.09-.71l.17-9.54a.53.52-89.4 01.52-.52l47.6.1z"/><path fill="#949698" d="M379.75 426.04q58.62.1 117.25.14 1.25 0 2.5.11-.14.17-.2.33a.3.3 0 00.28.41l40.76.22a.68.68 0 01.68.68q.15 49.9-.1 99.82-.03 5.37.13 11.41a1.79 1.79 0 01-1.79 1.84h-51.51a.32.31 75.3 00-.27.47l.27.49c-51.92.25-103.91.19-155.84-.59a.9.89 1 01-.88-.9q.2-26.77.22-53.76 0-.11-.16-1.92c-.12-1.4.47-2.39.35-3.72-.72-8.47-.13-17.78-.29-25.35q-.23-9.86.31-19.72.67 1.1 1.09.71a.25.24-25.8 00.08-.22q-.74-4.45-.21-8.95a.8.79 3.2 01.79-.7l46 .32a1.01.86-49.7 00.3-.05q1.51-.61.24-1.07zm30.92 37.99a33.37 33.37 0 00-33.37-33.37 33.37 33.37 0 00-33.37 33.37 33.37 33.37 0 0033.37 33.37 33.37 33.37 0 0033.37-33.37zm115.008-2.05a33.68 33.29-4 00-35.92-30.859 33.68 33.29-4 00-31.276 35.558 33.68 33.29-4 0035.92 30.86 33.68 33.29-4 0031.276-35.558z"/><path fill="#fff" d="M487.75 541.96l-.27-.49a.32.31 75.3 01.27-.47h51.51a1.79 1.79 0 001.79-1.84q-.16-6.04-.13-11.41.25-49.92.1-99.82a.68.68 0 00-.68-.68l-40.76-.22a.3.3 0 01-.28-.41q.06-.16.2-.33l41.43-.05a.98.98 0 01.98.98l-.21 114.1a.67.66 0 01-.67.66l-53.28-.02z"/><path fill="#949698" d="M270.11 441.18l-3.69-.24a.54.54 0 01-.46-.76l5.21-11.47a.47.46-58.2 01.72-.17c2.38 1.96-.54 9.55-1.15 12.17a.61.61 0 01-.63.47zM301.35 431.09q.37-.69 1.03-.95a.57.57 0 01.72.3q3.24 7 3.89 14.67a.64.64 0 01-.59.7l-3.9.31a.53.53 0 01-.57-.53q.03-5.6-1.92-10.77c-.51-1.36-.12-2.25.86-3.13q.29-.26.48-.6z"/><path fill="#fff" d="M410.67 464.03a33.37 33.37 0 01-33.37 33.37 33.37 33.37 0 01-33.37-33.37 33.37 33.37 0 0133.37-33.37 33.37 33.37 0 0133.37 33.37zm-40.54 5.72a.32.32 0 01.32.33l-.3 18.09a.32.32 0 00.32.33h11.73a.32.32 0 00.32-.32l-.06-18.01a.32.32 0 01.32-.32l19.15-.15a.32.32 0 00.32-.32v-11.73a.32.32 0 00-.31-.32l-19.19-.31a.32.32 0 01-.32-.33l.24-18.87a.32.32 0 00-.32-.32h-11.28a.32.32 0 00-.32.32l-.18 19.01a.32.32 0 01-.32.32l-18.37-.08a.32.32 0 00-.32.32l-.19 12.03a.32.32 0 00.32.33h18.44zM525.678 461.98a33.68 33.29-4 01-31.276 35.559 33.68 33.29-4 01-35.92-30.86 33.68 33.29-4 0131.276-35.558 33.68 33.29-4 0135.92 30.86zm-10.914-6.02a.38.38 0 00-.379-.38l-45.48-.16a.38.38 0 00-.381.38l-.048 13.64a.38.38 0 00.379.38l45.48.16a.38.38 0 00.381-.38l.048-13.64z"/><ellipse fill="#222020" transform="rotate(11.5 -2131.328 338.304)" rx="1.2" ry=".47"/><path fill="#222020" d="M370.13 469.75h-18.44a.32.32 0 01-.32-.33l.19-12.03a.32.32 0 01.32-.32l18.37.08a.32.32 0 00.32-.32l.18-19.01a.32.32 0 01.32-.32h11.28a.32.32 0 01.32.32l-.24 18.87a.32.32 0 00.32.33l19.19.31a.32.32 0 01.31.32v11.73a.32.32 0 01-.32.32l-19.15.15a.32.32 0 00-.32.32l.06 18.01a.32.32 0 01-.32.32h-11.73a.32.32 0 01-.32-.33l.3-18.09a.32.32 0 00-.32-.33z"/><rect fill="#949698" x="-1.92" y="-6.05" transform="rotate(-15.2 1734.275 -305.234)" width="3.84" height="12.1" rx="1.07"/><path fill="#949698" d="M183.48 448.62c-2.98-1.21-5.83-1.54-8.99-1.65a.41.41 0 01-.39-.49l1.46-8.31a.44.43-66.8 01.69-.28q3.84 2.86 8.63 3.57a.64.64 0 01.54.64q-.02 3.21-1.22 6.21a.56.55-67.8 01-.72.31zM110.08 450.84a.49.49 0 01-.46-.6l2.19-9.68a.59.59 0 01.83-.41c3.57 1.68 1.5 6.8.36 10.15a.87.86-80.2 01-.85.6l-2.07-.06z"/><rect fill="#949698" x="-5.16" y="-3.2" transform="rotate(-14.4 1874.707 -678.004)" width="10.32" height="6.4" rx=".27"/><path fill="#949698" d="M242.5 452.04q1.51 1.88.79 4.21-.92-2-.79-4.21zM180.75 453.73a1.53 1.53 0 011.32 1.93l-.99 3.56a2.09 2.09 0 01-2.01 1.52l-7.19.01a.54.53 6.7 01-.53-.66l1.47-6.4a.85.84-80.6 01.9-.65l7.03.69zM227.71 460.75l-1.06-2.92a.51.5-12.7 00-.54-.33l-.36.04q-.64-.85-.64-2a.8.8 0 01.62-.77l7.44-1.76a1.16 1.16 0 011.43 1.03l.51 6.26a.5.5 0 01-.43.54q-3.52.48-6.97-.09z"/><rect fill="#222020" x="-23.12" y="-7.2" transform="rotate(.2 -132307.841 141069.963)" width="46.24" height="14.4" rx=".38"/><path fill="#fff" d="M225.75 457.54l.36-.04a.51.5-12.7 01.54.33l1.06 2.92-1.15-.04a.58.58 0 01-.55-.52l-.26-2.65z"/><path fill="#949698" d="M163.95 489.39c-4.66-5.13-3.89-13.98-.92-19.59 1.94-3.69 11.43-2.84 14.94-2.9 10.09-.19 11.46 7.83 4.8 13.86-3.08 2.79-11.78 10.47-15.92 10.17q-1.6-.11-2.9-1.54zM222.02 489.77c-5.23-3.96-4.14-13.85-1.27-18.52 3.1-5.05 11.76-3.8 17.08-4.38 2.86-.32 3.49.89 3.9 3.38.7 4.26.37 5.79-2.48 9.19-1.82 2.17-3.31 4.56-5.59 6.12q-4.88 3.34-10.75 4.42a1.14 1.14 0 01-.89-.21zM181 498.54l.2 4.11q-3.01-.49-5.5.55a.51.5-10.2 01-.7-.48l.08-2.3a.67.66-5.8 01.51-.62l5.41-1.26z"/><path fill="#fff" d="M181 498.54q.17-.07.33-.06a.69.68-9.3 01.63.45q.81 2.21-.76 3.72l-.2-4.11z"/><path fill="#949698" d="M233.39 502.4c-2.49-.24-5.02-1.48-8-.52a.45.45 0 01-.58-.48l.24-2.1a.6.59 5.8 01.66-.53l8.11.72a.51.51 0 01.46.58l-.27 1.85a.57.56-82.6 01-.62.48z"/><rect fill="#949698" x="-4.48" y="-3.71" transform="rotate(4.4 -6548.417 3230.747)" width="8.96" height="7.42" rx=".27"/><rect fill="#949698" x="-3.78" y="-3.56" transform="rotate(-4 7422.697 -2319.91)" width="7.56" height="7.12" rx=".26"/><path fill="#949698" d="M184.32 524.77l-5.49-1.78a.3.3 0 01.01-.57l5.55-1.61a.3.3 0 01.38.3l-.05 3.38a.3.3 0 01-.4.28zM224 521.21q2.59-.34 5.21-.2.8.05.08.41l-5.7 2.82a.27.27 0 01-.39-.25l.07-1.98a.84.83-2.8 01.73-.8z"/><path fill="#fff" d="M263.83 528.86q3.25 6.81 4.55 13.9a.49.48-67.1 01-.88.36c-6.69-10-18.52-20.27-31.42-15.85a.35.34 72.3 01-.45-.24l-.13-.49q14.72-4.78 28.33 2.32z"/><path fill="#949698" d="M263.83 528.86c11.39 7.08 20.97 18.98 22.52 32.54a.55.54-9.1 01-.44.6q-6.79 1.31-14.84 1.38-27 .24-45.51-.03c-5.31-.08-14.72-1.23-13.62-8.82q3.13-21.47 23.56-27.99l.13.49a.35.34 72.3 00.45.24c12.9-4.42 24.73 5.85 31.42 15.85a.49.48-67.1 00.88-.36q-1.3-7.09-4.55-13.9zM151.51 560.67q-15.14-.46-30.27.64c-.25.01-.41.15-.48.37a.41.4-79.4 00.35.52l3.14.26-28.5.83a.84.84 0 01-.81-1.14q.33-.86 1.23-2.03c15.21-20.02 33.52-26.99 57.59-31.54 13.76-2.6 30.59-.59 38.94 11.48q5.16 7.44 3.13 17.08a.8.8 0 01-.7.63q-21.83 2.29-43.62 2.9z"/><rect fill="#949698" x="-110.98" y="-7.46" transform="rotate(.1 -318369.077 250425.6)" width="221.96" height="14.92" rx=".57"/><path fill="#fff" d="M151.51 560.67l-27.26 1.79-3.14-.26a.41.4-79.4 01-.35-.52c.07-.22.23-.36.48-.37q15.13-1.1 30.27-.64z"/><path fill="#222020" d="M12.44 591H1.19q5.62-.63 11.25 0z"/><path fill="#949698" d="M25.19 591h-4.5q2.25-.63 4.5 0z"/><path fill="#222020" d="M32.44 591h-6.75q3.37-.63 6.75 0zM109.44 591h-6.5q3.25-.63 6.5 0zM129.44 591h-5.5q2.75-.63 5.5 0zM156.44 591h-16.75q8.37-.63 16.75 0zM179.44 591h-6.5q3.25-.63 6.5 0zM188.44 591h-7.75q3.87-.63 7.75 0zM246.44 591h-23.75q11.87-.63 23.75 0zM254.44 591h-4.75q2.37-.63 4.75 0zM297.19 591h-7.5q3.75-.63 7.5 0z"/><path fill="#949698" d="M308.44 591h-4.5q2.25-.63 4.5 0zM344.44 591h-8.5q4.25-.63 8.5 0z"/><path fill="#222020" d="M392.44 591h-45.5q22.75-.63 45.5 0zM430.44 591h-35.5q17.75-.63 35.5 0zM445.44 591h-14.75q7.37-.63 14.75 0zM460.19 591h-8.25q4.12-.63 8.25 0zM502.19 591h-5.25q2.62-.63 5.25 0zM526.44 591h-20.75q10.37-.63 20.75 0zM536.19 591h-8.5q4.25-.63 8.5 0zM561.19 591h-14.25q7.12-.63 14.25 0zM576.44 591h-14.75q7.37-.63 14.75 0z"/></svg>