<svg xmlns="http://www.w3.org/2000/svg" viewBox="0 0 591 591"><g stroke-width="2" fill="none"><path stroke="#c6c9bb" vector-effect="non-scaling-stroke" d="M591 2.56q.13-1.56-.87-2.23a.26.25 28.6 00-.38.11q-.05.11 0 .27"/><path stroke="#494a4b" vector-effect="non-scaling-stroke" d="M589.75.71q-.75.14-1.5.14Q294.13.97 0 .94"/><path stroke="#fdfef0" vector-effect="non-scaling-stroke" d="M591 590.06l-.75-.35"/><path stroke="#7d7f70" vector-effect="non-scaling-stroke" d="M590.25 589.71l-.06-588.36a.61.6-70.8 00-.22-.47l-.22-.17"/><path stroke="gray" vector-effect="non-scaling-stroke" d="M590.25 589.71l-.54.54"/><path stroke="#7d7f70" vector-effect="non-scaling-stroke" d="M589.71 590.25q-294.2-.03-588.4-.19-.65 0-1.31-.12M585.5 5.52a.26.26 0 00-.26-.26H5.5a.26.26 0 00-.26.26v579.72a.26.26 0 00.26.26h579.74a.26.26 0 00.26-.26V5.52"/><path stroke="#fbf2c7" vector-effect="non-scaling-stroke" d="M32.28 40.71c-1.45 14.27-.81 29.22-.47 43.56.03 1.15-.65 2.61-.53 3.84a.37.37 0 00.62.23q31.03-29.53 59.92-58.27 1.77-1.76 4.4-5.34a.37.37 0 00-.19-.57q-1.06-.33-3.03-.36l-35.05-.52c-7.92-.12-13.78.92-20.16 4.56-4.9 2.8-4.88 6.74-5.51 12.87"/><path stroke="#d5d6c8" vector-effect="non-scaling-stroke" d="M495.81 42.69q-.05-.51-.09-1.03a.42.42 0 00-.57-.36c-1.16.47-.74 2.19.03 2.69a.5.49 27 00.72-.23q.27-.65-.09-1.07"/><path stroke="#7d7f70" vector-effect="non-scaling-stroke" d="M72.54 373.25c-5.13 15.22-6.95 34.17-6.93 50.76.02 14.62 3.47 29.09 8.68 42.74"/><path stroke="#8c8d7e" vector-effect="non-scaling-stroke" d="M74.29 466.75c5.26 14.72 16.01 23.05 29.09 31.6q4.78 3.13 9.77 4.17a.95.93 84.5 01.68.57c6.01 14.76 19.07 20.61 33.5 24.02 4.5 1.06 13.53 1.84 15.91-1.89 6.68-10.5 2.09-18.71-4.83-27.19a.19.19 0 01.26-.28c6.78 4.75 33.01 21.11 37.38 5.53q3.43-12.24-3.1-22.5c-5.71-8.97-16.5-13.65-19.6-24.59-3.78-13.37-3.07-25.77 12.66-29.39a1.76 1.75 47.2 01.97.04c13.09 4.3 31.15 8.52 41.07-5q9.94-13.55 0-26.7-2.97-3.93-5.21-4.25-17.23-2.5-30.6-5.37c-8.57-1.84-19.71-5.22-22.67-14.59-2.2-6.95-6.69-10.76-12.22-14.88a.42.42 0 01-.04-.64c6.74-6.48 7.73-18.54 5.82-27.08-1.72-7.69-6.02-11.79-11.38-16.27a1.57 1.55-60.6 01-.47-1.72l44.31-125.57a.42.42 0 01.61-.22q50.83 32.09 101.68 64.15c3.22 2.03 3.31 5.28 4.43 8.54a.78.77-31.3 01-.21.83q-3.22 2.98-1.8 7.38a1.69 1.64-80.9 00.56.8c3.43 2.65 2.73 7.35 3.52 11.29q2.66 13.24 4.6 26.63a.8.78 74.2 01-.45.83l-.53.24a.75.75 0 00-.43.81c7.6 43.48 16.33 86.74 24.19 130.19a.37.36-3 01-.39.43l-11.67-1.09a2.44 2.43 2.7 00-2.66 2.41l-.06 17.43a1.45 1.44 26.4 00.3.88q1.27 1.62 2.73 1.7 13.15.73 45.86 1.26a.65.64-89.6 01.63.65v5.54a.65.65 0 01-.64.65q-14.43.18-28.82 1.06c-22.79 1.39-45.26 1.17-67.86 2.24-1.41.06-2.84.1-4.07.96-11.03 7.73-17.04 24.81-15.38 37.86 1.49 11.67 3.73 21.04 13.85 27.94 4.14 2.82 10.22 2.84 15.11 3.15q13.07.84 26.06 2.42 1.08.14 3.51-.24 23.96-3.73 48.01-7.51a.71.71 0 01.74.37c3.5 6.34 6.99 11.05 14.74 11.39q13.8.62 40.41 2.73 3.6.28 7.13-.45 54.12-11.16 108.16-22.72c.82-.17 2.35-1.23 2.75-1.94 8.81-15.68 8.88-33.57 3.28-50.14q-2.83-8.39-11.73-6.68"/><path stroke="#c6c9bb" vector-effect="non-scaling-stroke" d="M521.75 466.54q-4.7-.48-9.25.67"/><path stroke="#8c8d7e" vector-effect="non-scaling-stroke" d="M512.5 467.21q-11.22.42-22.45.51c-1.54.02-2.68 1.04-4.48-.03a.28.27-55.2 00-.35.07l-.22.27q-.89 1.08-.9-.31l-.03-3.78a.76.75-3.4 01.67-.75c11.44-1.41 24.11-1.69 34.37-2.59q10.07-.87 20.19-1.46a1.41 1.37-67.9 00.87-.38q1.79-1.71 1.8-4.32c.05-14.19.84-29.05-1.09-42.86q-1.42-10.16-3.47-20.22c-.53-2.62-.46-5.46-3.89-5.64-22.35-1.13-44.03-2.76-66.1-3.73a1.28 1.28 0 01-1.23-1.15q-.68-6.8-1.02-13.69c-.67-13.41-2.15-26.64-2.61-40.06-.1-2.91-1.77-4.88-4.56-5.15-13.22-1.25-22.77-3.96-34.94-3.33q-26.42 1.36-41.6 2.51c-2.05.16-3.17.94-3.6 2.91q-1.38 6.32-2.21 12.74-.06.51-.25.03c-2.46-6.23-2.73-12.52-4.56-21.27q-7.96-38.14-15.27-76.41c-.54-2.81-1.35-3.8-3.5-5.44q-18.02-13.72-48.13-37.79c-4.76-3.81-8.89-6.44-14-8.83q-23.16-10.84-46.45-21.41c-1.41-.64-3.27-.28-3.78 1.15a1.62 1.62 0 01-2.3.89c-4.82-2.62-9.32-6.06-14.96-5.52a1.63 1.59 56.6 01-.96-.21l-18.03-10.13a.9.9 0 01-.46-.73q-1.63-25.97-3.69-51.91-.42-5.23-1.21-10.42c-1.05-6.9-2.56-9.7-10.26-6.88q-8.93 3.27-17.87 6.57-3 1.11-3.98 5.04c-10.53 42.26-20.51 84.68-31.31 126.87q-10.11 39.43-19.41 79.08a.65.64 5.2 01-.61.5c-8 .23-16.45 1.45-23.56 5.27-13.93 7.49-21.5 20.2-19.79 36.49q.46 4.34 4.68 10.16a1.78 1.71 26.7 01.32.9c.34 6.46-1.8 13.49-3.77 20.48"/><path stroke="#585959" vector-effect="non-scaling-stroke" d="M512.5 467.21q4.66.24 9.25-.67"/><path stroke="#0f0f0e" vector-effect="non-scaling-stroke" d="M74.29 466.75c2.62-.61.16-5.87-.49-7.3q-1.47-3.19-1.91-5.14c-2.27-10.19-4.5-19.59-5.05-29.89-.25-4.88.61-10.38.75-15.64.17-6.44 1.06-13.22 2.77-19.51 1.01-3.7 1.09-7.39 2.1-11.02q.6-2.14 1.07-4.3a.53.52-80.4 00-.44-.63l-.55-.07"/><path stroke="#fbf2c7" vector-effect="non-scaling-stroke" d="M215.533 517.995a1.29.53 73.2 00.134-1.388 1.29.53 73.2 00-.88-1.082 1.29.53 73.2 00-.134 1.388 1.29.53 73.2 00.88 1.082"/><path stroke="#585959" vector-effect="non-scaling-stroke" d="M180.85 129.97l-9.56 38.53"/><path stroke="#676666" vector-effect="non-scaling-stroke" d="M171.29 168.5l-4.08 16"/><path stroke="#585959" vector-effect="non-scaling-stroke" d="M167.21 184.5l-14.67 58.75"/><path stroke="#676666" vector-effect="non-scaling-stroke" d="M152.54 243.25l-4.08 17.25"/><path stroke="#585959" vector-effect="non-scaling-stroke" d="M148.46 260.5c-3.83 13.73-6.95 27.62-10.17 41.5"/><path stroke="#676666" vector-effect="non-scaling-stroke" d="M138.29 302l-5.67 21.3a.55.55 0 00.37.67q.6.17 1.26-.01"/><path stroke="#585959" vector-effect="non-scaling-stroke" d="M134.25 323.96l4.25-.25"/><path stroke="#676666" vector-effect="non-scaling-stroke" d="M138.5 323.71q1.77.37 2.18-1.03c3.56-11.94 7.69-21.73 11.28-32.18 5.17-15.05 10.67-29.93 15.79-44.96"/><path stroke="#585959" vector-effect="non-scaling-stroke" d="M167.75 245.54q1.62-3.12 1.87-6.57"/><path stroke="#676666" vector-effect="non-scaling-stroke" d="M169.62 238.97q3.41-7.91 6.16-15.98 3.59-10.6 5.71-16.14c4.81-12.59 8.78-25.41 13.33-38.09a.67.67 0 00-.25-.77l-4.49-3"/><path stroke="#585959" vector-effect="non-scaling-stroke" d="M190.08 164.99c-5.05-5.34-4.15-16.99 6.29-16.01"/><path stroke="#676666" vector-effect="non-scaling-stroke" d="M196.37 148.98q-.1-22.69-2.45-45.22-.82-7.87-2-15.57a.37.37 0 00-.73-.02q-4.59 21.07-10.34 41.8"/><path stroke="#a0a2a3" vector-effect="non-scaling-stroke" d="M196.37 148.98q-1.73-8.15-1.94-16.29-.15-5.62-.71-10.31c-.99-8.34-.06-17.08-2.67-25.22q-.27-.85-.7-.06-.89 1.64-.5 3.52.11.52-.03 1.04c-.56 2.06-1.53 3.77-1.8 5.92q-.54 4.35-2.23 8.42c-.5 1.2-.06 2.26-.36 3.18q-1.71 5.25-3.18 10.57-.41 1.48-1.4.22M190.08 164.99q-.62 2.22 1.97 2.66a1.43 1.42 19.3 011.01 2.09q-2.8 5.06-3.77 10.69c-.49 2.91-2.5 5.81-3.4 8.74q-4.36 14.14-8.88 25.59-4.89 12.38-7.39 24.21M167.75 245.54l-1.13-.04a.74.73 10.5 00-.71.48c-2.56 6.9-4.91 13.71-6.9 20.79q-1.02 3.67-3.11 8.4c-2.25 5.09-4.04 13.44-7.39 20.7-1.54 3.33-2.35 7.18-3.51 10.19q-1 2.58-1.91 5.19a1.81 1.76 80.8 01-.57.81l-1.05.83a1.57 1.56 78.1 00-.55.85l-2.42 9.97M134.25 323.96q.97-3.25 3.22-5.9a1.54 1.49-23.9 00.36-.89c.19-2.57-.52-4.49 0-7.01q.77-3.71 1.65-7.38a.72.7-68.7 00-.33-.78q-.34-.2-.86 0M148.46 260.5l.17 1.44a.63.63 0 00.63.56c1.98 0 2.48-3.78 2.01-5.14q-.16-.47-.07-.96c.47-2.8 3.35-11.29 1.34-13.15M167.21 184.5q.49.41.99.36a.68.67-86.2 00.58-.52l3.68-15.09a.69.68-67.6 00-.31-.75q-.33-.19-.86 0"/><path stroke="#585959" vector-effect="non-scaling-stroke" d="M219.31 166.94c-8.39-5.1-16.16-10.18-24.94-12.17a.6.59-76 00-.71.43l-.86 3.19a.8.8 0 00.29.83c8.6 6.46 17.82 11.79 26.73 17.8a.37.37 0 00.56-.2c.69-2.48 1.51-8.32-1.07-9.88M252.75 202.29l7.75 5.11"/><path stroke="#676666" vector-effect="non-scaling-stroke" d="M260.5 207.4q36.65 24.04 73.54 47.58c1.63 1.05 4.79 19.62 5.69 22.77q5.62 19.64 10.17 39.57.13.54.33.02c.94-2.44-4.64-15.15-1.18-16.73a1.45 1.44-16.9 00.83-1.54q-1.6-10-3.71-19.59c-.22-1.03-.9-1.68-.98-2.88-.25-4.1-1.68-8.47-2.4-12.59a.58.58 0 00-.56-.48l-3.34-.1a.87.87 0 01-.75-.46q-1.81-3.45-.96-7.54"/><path stroke="#585959" vector-effect="non-scaling-stroke" d="M337.18 255.43q6.28-1.45 12.95-.17"/><path stroke="#676666" vector-effect="non-scaling-stroke" d="M350.13 255.26q2.9 4.24.4 8.72a1.34 1.29 54.3 00-.13.9l6.99 34.4a1.05 1.04 7.8 00.56.73q2.35 1.19 2.89 4.42 4.5 26.75 10.1 54.26.61 3.02 1.18-.01c.99-5.3-.51-11.91-1.77-17.7q-8.97-41.27-16.99-82.73c-.89-4.57-2.81-11.24-3.53-16.98-.31-2.49-6.19-6.44-9.33-8.81"/><path stroke="#585959" vector-effect="non-scaling-stroke" d="M340.5 232.46l-17.21-13.71"/><path stroke="#676666" vector-effect="non-scaling-stroke" d="M323.29 218.75q-10.77-8.55-21.75-16.82c-4.4-3.32-8.69-6.81-13.45-9.07q-12.12-5.75-43.94-20.15a.55.55 0 00-.76.37q-.54 2.3-2.72 2.76a1.66 1.62 52.4 01-1.13-.16l-11.85-6.26a.35.35 0 00-.51.29l-.75 14.88a.77.76 18.3 00.34.67l25.98 17.03"/><path stroke="#a0a2a3" vector-effect="non-scaling-stroke" d="M323.29 218.75q-.28.55-.81.84a.79.78 49.3 01-.86-.07q-11.6-9.08-23.09-18.3-8.49-6.81-17.02-9.98-5.5-2.05-9.83-4.28c-8.56-4.41-17.14-8.39-25.92-12.35a.89.87 41.5 00-.81.04l-3.58 2.11a1.2 1.18-48.8 01-1.05.08l-10.42-4.08a.83.82-81.1 00-1.13.83q.26 3.95-.99 7.72a2.4 2.39-58.1 00.56 2.43c1.57 1.6 3.18 3.13 5.18 4.35q10.15 6.22 19.9 13.08 1.04.73-.2 1.02l-.47.1M340.5 232.46c-3.17.84 6.84 6.99 7.6 7.52a1.31 1.28 11.5 01.53.78c.56 2.47.23 4.5 1.03 7.04q1.15 3.66.47 7.46M337.18 255.43c-2.75-1.48-4.85-3.76-7.52-5.19q-9.93-5.31-19.14-11.78c-4.25-2.99-9.99-5.83-13.23-8.49q-3.23-2.64-5.6-4.2-3.27-2.14-5.34-3.78c-2.91-2.29-6.29-3.88-9.22-5.95-3.35-2.37-7.11-3.72-10.16-6.52q-2.66-2.43-6.47-2.12"/><path stroke="#676666" vector-effect="non-scaling-stroke" d="M348.72 261.42a.88.88 0 001.23-.89l-.27-2.82a.75.75 0 00-.8-.68c-2.68.2-2.96 3.17-.16 4.39"/><path stroke="#0f0f0e" vector-effect="non-scaling-stroke" d="M323.44 339.24q-1.47 1.37-.89 3.02.85 2.41.88 2.64c1.52 11.22 2.56 22.71 5.25 33.72q2.04 8.32 2.27 11.4.4 5.34 1.35 8.17a1.2 1.14 5.1 00.59.67l1.32.64"/><path stroke="#8c8d7e" vector-effect="non-scaling-stroke" d="M334.21 399.5l3.59 21.81a.21.15 88.6 00.13.17l.26.05a.1.09-82 00.11-.09q.83-16.18 1.04-32.37c.07-4.62 4.5-4.18 7.64-3.58a.48.48 0 00.55-.62c-1.79-5.55-4.31-11.48-5.94-16.25-7.1-20.81-14.2-41.62-21.91-62.21q-4.89-13.06-9.25-26.08a.36.36 0 00-.7.18l4.16 22.51a.91.91 0 00.67.71l1.18.28a1.02 1.01 87.3 01.73.67q.76 2.27 1.22 4.58 2.96 14.99 5.75 29.98"/><path stroke="#7d7f70" vector-effect="non-scaling-stroke" d="M334.21 399.5l-10.77-60.26"/><path stroke="#8c8d7e" vector-effect="non-scaling-stroke" d="M368.66 375.23q.85-3.81.33-6.98c-3.39-20.76-8.07-40.19-11.21-62.24q-.21-1.52-1.54-1.38a.5.49 82.9 00-.44.57q1.94 12.96 4.43 25.82c2.76 14.22 5.1 29.51 8.04 44.21q.18.94.39 0"/><path stroke="#676666" vector-effect="non-scaling-stroke" d="M99.25 307.54q-.65-.13-.99 0-9.71 3.72-16.41 12.07-2.98 3.71-3.13 8.63"/><path stroke="#585959" vector-effect="non-scaling-stroke" d="M78.72 328.24q-1.19 4.52-.47 9.28.65 4.23 1.72 6.9c4.36 10.88 16.69 13.63 25.83 18.52q.51.26-.06.19l-14.49-1.84"/><path stroke="#8c8d7e" vector-effect="non-scaling-stroke" d="M91.25 361.29q-4.57-1.09-8.58-3.53a.37.36-67.4 00-.54.23q-2.99 12.16-3.37 24.79"/><path stroke="#585959" vector-effect="non-scaling-stroke" d="M78.76 382.78q-2.08 5.14-.34 10.38"/><path stroke="#676666" vector-effect="non-scaling-stroke" d="M78.42 393.16q.66 9.35 1.69 18.52c1.6 14.34 9.31 29.4 16.89 42.86"/><path stroke="#585959" vector-effect="non-scaling-stroke" d="M97 454.54l2.46 4.71"/><path stroke="#676666" vector-effect="non-scaling-stroke" d="M99.46 459.25q.72 1.91.59 3.99a1.5 1.49 31.6 00.22.91c3.03 5.09 6.79 10.21 9.32 15.05 4.23 8.11 7.21 16.71 11.44 24.8"/><path stroke="#585959" vector-effect="non-scaling-stroke" d="M121.03 504q6.33 9.49 17.07 14.87c5.11 2.56 15.02 6.03 20.54 3.5"/><path stroke="#8f8e8e" vector-effect="non-scaling-stroke" d="M158.64 522.37q2.82-1.78 2.83-5.39c.02-7.07-2.36-9.51-7.27-15.52-8.98-11.01-16.84-20.21-23.08-30.23"/><path stroke="#585959" vector-effect="non-scaling-stroke" d="M131.12 471.23c-.63-1.75-5.15-10.93-3.64-11.8a.65.64-37.3 01.79.1l.94.97"/><path stroke="#676666" vector-effect="non-scaling-stroke" d="M129.21 460.5c5.03 10.07 14.23 17.83 21.75 24.28q15.22 13.02 33.93 20.22c6.6 2.54 7.64-8.88 6.57-13"/><path stroke="#8f8e8e" vector-effect="non-scaling-stroke" d="M191.46 492c-.41-8.97-6.14-13.44-12.77-18.86-7.99-6.54-13.45-22.45-12.21-32.38 1.06-8.6 5.12-15.29 12.4-20.55"/><path stroke="#585959" vector-effect="non-scaling-stroke" d="M178.88 420.21q1.18 1.17 2 .06"/><path stroke="#8c8d7e" vector-effect="non-scaling-stroke" d="M180.88 420.27l6.12.19"/><path stroke="#585959" vector-effect="non-scaling-stroke" d="M187 420.46q6.19 2.38 12.45 3.54"/><path stroke="#676666" vector-effect="non-scaling-stroke" d="M199.45 424c8.25 2.18 19.17 1.09 24.2-6.78"/><path stroke="#585959" vector-effect="non-scaling-stroke" d="M223.65 417.22q1.69-1.06 2.01-3.6"/><path stroke="#8f8e8e" vector-effect="non-scaling-stroke" d="M225.66 413.62q4-7.29-.48-13.38c-2.93-3.98-10.83-3.67-14.4-4.47-10.04-2.26-23.94-3.91-35.16-9.31-7.98-3.84-9.94-8.65-12.97-16.33-1.72-4.36-7.3-8.49-10.78-11.57a.75.75 0 00-.82-.12q-6.18 2.98-12.8 4.77"/><path stroke="#585959" vector-effect="non-scaling-stroke" d="M138.25 363.21c2.66-2.6 6.14-3.9 9-6.17"/><path stroke="#676666" vector-effect="non-scaling-stroke" d="M147.25 357.04q4.52-2.4 7.54-6.54"/><path stroke="#585959" vector-effect="non-scaling-stroke" d="M154.79 350.5q5.69-6.8 4.25-15.75"/><path stroke="#8f8e8e" vector-effect="non-scaling-stroke" d="M159.04 334.75q-.43-11.06-9.26-17.44a.56.56 0 00-.83.2l-1.59 3.21a.52.52 0 00.3.72l1.38.46a1.27 1.25-3.2 01.75.66c.83 1.77.15 2.83-1.6 3.46-13.24 4.68-37.13 5.14-44.77-9.84a1.71 1.71 0 011.28-2.47l1.14-.17a.99.98-20.5 01.95.43l2.83 4.26a.32.32 0 00.54-.01q3.1-5.16-1.66-9.01"/><path stroke="#585959" vector-effect="non-scaling-stroke" d="M108.5 309.21q-3.63-4.67-9.25-1.67"/><path stroke="#c8caca" vector-effect="non-scaling-stroke" d="M108.5 309.21q-12.06 1.43-18.74 10.56c-3.94 5.38-3.92 12.52.88 17.48 15.09 15.59 50.7 15.23 66.27.12a1.64 1.55 74.8 00.43-.8q.2-.91 1.11-.83a.51.5 4.5 00.55-.46l.04-.53"/><path stroke="#a0a2a3" vector-effect="non-scaling-stroke" d="M154.79 350.5l-.24-.37a.33.33 0 00-.52-.05q-3.17 3.42-7.17 5.83a.55.55 0 00-.16.8q.2.28.55.33"/><path stroke="#c8caca" vector-effect="non-scaling-stroke" d="M138.25 363.21q-9.01 3.6-17.93 2.44c-3.73-.49-7.24-1.66-10.43-.02q-6.27 3.22-7.82 9.85c-5.13 21.89.96 41.23 16.35 56.96q13.33 13.62 26.45 27.44c12.26 12.9 25.89 27.36 44.13 29.72 1.25.16 2 .86 1.71 2.15"/><path stroke="#a0a2a3" vector-effect="non-scaling-stroke" d="M190.71 491.75q.29 4.68-.97 9.06c-1.85 6.44-8.69 1.26-12.13-.28-4.69-2.11-8.82-5.6-12.7-7.68-9.67-5.2-16.11-11.07-25.28-19.97q-5.78-5.61-8.18-13.4a.73.73 0 00-1.13-.38q-.67.49-1.11 1.4"/><path stroke="#c8caca" vector-effect="non-scaling-stroke" d="M131.12 471.23q.81 4.45 3.88 7.87a1.4 1.38-67.3 01.35.87c.4 7.4 2.65 21.46 10.42 24.99q5.58 2.54 11.7 3.5c2.97.46 2.18 6.49 2.28 8.71a1.35 1.34 63.2 01-.29.89q-1.51 1.95-.82 4.31"/><path stroke="#a0a2a3" vector-effect="non-scaling-stroke" d="M121.03 504q-3.11-11.57-5.22-15.56-3.25-6.14-6.27-12.4c-2.04-4.22-5.37-7.81-7.7-12.15-.78-1.46-.76-3.33-1.42-4.99q-.58-1.42-.9.08l-.06.27M97 454.54l.38-.29a.81.8 68.2 00.32-.75q-.36-3.21-2.75-5.31a1.36 1.33 17.9 01-.44-.84c-.08-.64-.2-1.37-.53-1.96q-4.12-7.2-7.06-14.94c-1.81-4.76-5.22-12.16-5.7-18.2q-.95-12.1-2.8-19.09"/><path stroke="#c6c9bb" vector-effect="non-scaling-stroke" d="M78.76 382.78q2.17-9.05 2.97-18.34.2-2.34 1.34-4.48a.58.58 0 01.72-.27l6.83 2.48a.5.5 0 00.66-.34q.06-.25-.03-.54"/><path stroke="#a0a2a3" vector-effect="non-scaling-stroke" d="M78.72 328.24q2.63-5.62 6.69-10.25c1.18-1.34 4.02-5.12 5.61-5.74 1.25-.49 8.46-3.26 8.23-4.71"/><path stroke="#c8caca" vector-effect="non-scaling-stroke" d="M225.66 413.62q-3.64.69-7.28 1.51c-7.84 1.77-18.1 1.3-24.56 1.19q-8.39-.15-14.94 3.89"/><path stroke="#d7d7d8" vector-effect="non-scaling-stroke" d="M191.46 492l-.75-.25"/><path stroke="#a0a2a3" vector-effect="non-scaling-stroke" d="M223.65 417.22q-4.58 2.51-9.34 4.64-2.39 1.08-5.36 1.24-4.76.25-9.5.9"/><path stroke="#c6c9bb" vector-effect="non-scaling-stroke" d="M187 420.46q.99-.38.9-1.11a.72.7 1.7 00-.59-.61q-3.59-.6-6.43 1.53"/><path stroke="#676666" vector-effect="non-scaling-stroke" d="M382.49 326.21q-5.38 24.02-9.25 48.15c-2.42 15.09-6.08 29.9-8.92 44.9q-.09.49.37.31c.74-.28 1.47-.6 2.28-.61q20.78-.18 41.58-.66c2.4-.05 2.82-.96 3.18-3.11 5-30.27 10.38-60.42 14.25-90.88a.45.43-86.5 00-.43-.5c-14.28.02-29.33 1.64-42.88 2.25a.2.19 3.7 00-.18.15M455.71 328.19l-24.26-3.55a.51.51 0 00-.57.4q-3.48 16.48-6.1 36.96c-.09.73-.65 1.84-.75 2.78q-3.26 28.76-8.33 57.25-.4 2.22.03 2.98 4.66 8.35 8.57 17.17a1.13 1.13 0 001.05.68l38.28-.4a.68.68 0 00.67-.72q-1.42-23.43-3.42-46.78c-1.89-22.06-2.95-44.21-4.69-66.26a.57.57 0 00-.48-.51"/><path stroke="#585959" vector-effect="non-scaling-stroke" d="M486.52 438.77l47.73-1.31"/><path stroke="#8c8d7e" vector-effect="non-scaling-stroke" d="M534.25 437.46q.7.27 1.25-.06a1.03 1.03 0 00.51-.89l.1-17.3a.76.76 0 00-.55-.73q-.26-.08-.56-.02"/><path stroke="#585959" vector-effect="non-scaling-stroke" d="M535 418.46q-4.91-.84-9.68-.16"/><path stroke="#676666" vector-effect="non-scaling-stroke" d="M525.32 418.3l-8.89-.43"/><path stroke="#585959" vector-effect="non-scaling-stroke" d="M516.43 417.87q-.92-2.46-.15-4.59a.86.85 6.9 01.73-.57q8.73-.8 17.47-.19a.64.63-.3 00.69-.69l-.18-2.23a.74.73-89.6 00-.66-.68c-6.12-.66-12.28-.18-17.88-.53a.78.78 0 01-.68-.5c-.99-2.64.37-4.09 3.1-4.13q7.2-.12 14.41-.14a.55.55 0 00.52-.73l-.72-2.07a.81.79 81.1 00-.74-.55l-15.97-.26a.86.86 0 01-.79-.55q-.8-1.97.61-3.69a1.32 1.31 16.2 01.88-.48l2.68-.33"/><path stroke="#676666" vector-effect="non-scaling-stroke" d="M519.75 394.96l11.44.13a.58.58 0 00.59-.62l-.12-1.87a.65.64-89.5 00-.58-.6c-13.39-1.34-28.25-1.65-40.19-2.58q-9.69-.75-19.38-1.47-2.16-.15-4.22.26a.53.52-7.5 00-.43.55l3.02 49.77a.6.6 0 00.55.56q8.11.54 16.09-.32"/><path stroke="#a0a2a3" vector-effect="non-scaling-stroke" d="M519.75 394.96q-1.17-.4-1.35-1.61a.78.78 0 00-.53-.63c-1.32-.42-2.56-.94-3.98-.95q-11.68-.01-23.31-1.06c-6.38-.57-13.79 0-20.73-1.02a1.19 1.19 0 00-1.36 1.24c.54 9.8.99 19.67 2.03 29.42.39 3.55-.02 7.29.22 10.72q.22 3.05.07 6.14a.63.63 0 00.45.64q2.46.73 3.99.54 5.71-.71 11.27.38M516.43 417.87q4.5 2.19 8.89.43"/><path stroke="#c6c9bb" vector-effect="non-scaling-stroke" d="M535 418.46q.38 9.53-.75 19"/><path stroke="#8c8d7e" vector-effect="non-scaling-stroke" d="M532 453.46l3.4.13a.58.58 0 00.6-.58v-12.07a.62.61-85.7 00-.52-.61q-.36-.06-.73.21"/><path stroke="#585959" vector-effect="non-scaling-stroke" d="M534.75 440.54c-21.17-.7-42.65 1.13-63.85 1.94a.68.68 0 00-.65.75c.37 3.84-1.64 5.49-5.4 5.53q-17.31.21-34.7.39a.66.66 0 00-.65.66v9.87a.6.6 0 00.65.6c35.93-2.59 69.32-4.18 101.85-6.82"/><path stroke="#c6c9bb" vector-effect="non-scaling-stroke" d="M534.75 440.54q1.06 5.72-.2 11.39a.5.5 0 01-.57.39q-1.39-.26-1.98 1.14"/><path stroke="#676666" vector-effect="non-scaling-stroke" d="M405.25 460.29l17.87.21a.86.86 0 00.76-.46q.23-.45.08-1.04"/><path stroke="#585959" vector-effect="non-scaling-stroke" d="M423.96 459l.02-8.97a.91.91 0 00-1.23-.85l-27.92 10.66a.31.3-55.6 00.11.59l10.31-.14"/><path stroke="#a0a2a3" vector-effect="non-scaling-stroke" d="M423.96 459c-2.21-.05-18.71-1.18-18.71 1.29"/><path stroke="#585959" vector-effect="non-scaling-stroke" d="M88.43 477.14c5.05 6.7 13.7 12.23 20.92 17.61a.52.52 0 00.78-.63q-5.77-12.4-12.22-24.04c-1.14-2.06-2.06-3.48-4.24-4.7q-6.87-3.85-13-8.89a.5.5 0 00-.81.47q1.89 11.31 8.57 20.18"/><path stroke="#676666" vector-effect="non-scaling-stroke" d="M411.29 539.62c1.32 1.17 1.97 2.31 3.02 3.57a.79.78-28 00.83.25l.44-.14q.7-.22.15-.7c-7.52-6.55-7.97-14.3-9.15-24.27-1.74-14.74.59-29.39 10.53-40.8a1.31 1.3 17 01.83-.44c11.31-1.41 19.29-.97 29-1.72q6.53-.51 13.14-.7c6.91-.2 13.59-1.27 20.49-1.45a.19.18-1.7 00.18-.18v-.26a.24.24 0 00-.25-.25c-6.02.21-12.16.96-17.96 1q-20.74.12-41.47 1.29c-8.61.48-13.44 14.53-14.46 21.44-.71 4.83-2.26 9.67-2.03 14.4.31 6.31 1.92 24.68 6.71 28.96M273.44 477.91q13.04.15 26.1.09c2.94-.02 3.72-1.34 5.06-3.61q.85-1.44-.81-1.27-2.05.2-5.04.19-14.89-.08-29.73 1.25c-2.1.19-3.25 1.32-4.07 3.09a.32.32 0 00.3.45q4.16-.23 8.19-.19M516.04 479.59l2.61 3.17q1.37 1.66.48-.29l-3.52-7.69a2.01 2 59.2 00-3.03-.77q-2.76 2.08-3.97 5.24a.34.34 0 00.34.45l6.21-.48a1.06 1.05 67.3 01.88.37M367.34 479.56q19.76.03 39.46-.08c3.58-.02 5.37-1.34 6.99-4.29a.3.3 0 00-.28-.44q-20.27 1.09-40.57 1.22c-2.64.02-4.14 1.23-5.87 2.94a.38.38 0 00.27.65"/><path stroke="#585959" vector-effect="non-scaling-stroke" d="M262.19 488.81q19.22.19 32.71-.04a.88.86 13.5 00.75-.45l3.5-6.38a.63.63 0 00-.55-.94q-17.09-.07-34.1.06-1.61.01-3.14.54a1.49 1.45 5 00-.78.64l-3.34 5.67a.45.45 0 00.34.67q1.85.2 4.61.23"/><path stroke="#676666" vector-effect="non-scaling-stroke" d="M442.5 487.71q-10.27.23-20.51 1.82"/><path stroke="#585959" vector-effect="non-scaling-stroke" d="M421.99 489.53q-4.71-.6-9.56.48a1.18 1.17 5.8 00-.8.65q-1.78 3.92-2.31 8.22a.46.45 5.3 00.43.51c2.75.19 8.65-.75 10.09 2.05q3.78 7.37-.16 15.57a1.4 1.39 2.1 01-.77.71q-4.37 1.72-9.05.76a1.08 1.07-88.5 00-1.28 1.22l1.19 7.45a1.08 1.08 0 001.17.9c16.64-1.76 33.09-4.06 49.65-5.71q10.07-1.01 19.7-4.34"/><path stroke="#676666" vector-effect="non-scaling-stroke" d="M480.29 518l32.81-8.41a1.14 1.13 4.4 00.75-.64l1.9-4.35q.33-.77-.49-.63-3.29.52-4.69-2-3.95-7.09.93-13.76"/><path stroke="#585959" vector-effect="non-scaling-stroke" d="M511.5 488.21q2.29-.85 4.76-.32a.52.52 0 00.61-.38c1.35-5.41-2.85-5.67-6.69-5.37q-47.46 3.7-67.68 5.57"/><path stroke="#a0a2a3" vector-effect="non-scaling-stroke" d="M511.5 488.21q-.17-.84-.94-.79a1.08 1.07 15 00-.8.46q-3.47 4.96-2.72 10.89c.5 3.95 5.24 5.19 5.17 9.15a.6.6 0 01-.46.57q-15.64 3.61-31.02 8.22a.68.66-11.2 00-.48.7l.04.59M421.99 489.53q10.74.56 21.34-1.29.53-.1.1-.44-.32-.26-.93-.09"/><path stroke="#585959" vector-effect="non-scaling-stroke" d="M364 483.71q-2.24 2.33-2.77 5.73a.53.53 0 00.52.61l41.56-.04q.48 0 .92.19c2.2.97 3.01-3.58 3.3-5.27"/><path stroke="#676666" vector-effect="non-scaling-stroke" d="M407.53 484.93l.8-1.79a.36.36 0 00-.33-.51q-21.42.36-42.81.27c-.67 0-.86.28-1.19.81"/><path stroke="#a0a2a3" vector-effect="non-scaling-stroke" d="M407.53 484.93q-3.37-1-6.87-.93c-11.68.25-23.41-.33-35.1-.06q-.78.02-1.56-.23"/><path stroke="#676666" vector-effect="non-scaling-stroke" d="M523.29 497q-.61 5.63-2.33 11"/><path stroke="#585959" vector-effect="non-scaling-stroke" d="M520.96 508c-2.29 4.92-3.7 8.89-6.76 10.98a1.08 1.05-53.7 01-.9.15c-2.13-.6-4.38.11-6.06.13q-5.5.04-11 .14c-11.94.21-22.01 4.44-33.59 5.75q-21.8 2.47-43.62 4.99a.82.81 6.4 00-.67.53c-.74 1.91-6.07 9.9-1.09 9.67q3.86-.19 17.02-3.84"/><path stroke="#676666" vector-effect="non-scaling-stroke" d="M434.29 536.5l14.71-3.04"/><path stroke="#585959" vector-effect="non-scaling-stroke" d="M449 533.46q29.08-5.63 38.74-8 13.82-3.39 23.59-4.94c4.84-.76 9.53-2.44 14.45-3.43a1.02 1.02 0 00.71-.55q2.87-5.75 3.97-12.04"/><path stroke="#676666" vector-effect="non-scaling-stroke" d="M530.46 504.5q1.59-6.88.3-14.07"/><path stroke="#585959" vector-effect="non-scaling-stroke" d="M530.76 490.43c1.64-2.25-6.45-1.41-7.26-1.39a.57.56 88 00-.55.6l.34 7.36"/><path stroke="#a0a2a3" vector-effect="non-scaling-stroke" d="M530.76 490.43q-1.6 2.7-1.21 4.39 1.1 4.67-.24 9.3a.51.51 0 00.37.64q.42.1.78-.26M449 533.46q.2-.23.25-.51a.56.56 0 00-.66-.64l-14.19 2.82a.48.48 0 00-.37.5q.04.46.26.87M520.96 508q2.35.7 2.37-1.78.05-5.02 1.4-8.21a.48.47-70 00-.29-.64l-1.15-.37"/><path stroke="#676666" vector-effect="non-scaling-stroke" d="M512.21 491q-1.25 2.34-.96 4.97a.56.56 0 00.48.49l3.18.48a.56.56 0 00.63-.46l.67-4.23"/><path stroke="#8c8d7e" vector-effect="non-scaling-stroke" d="M516.21 492.25q.74-1.06.29-1.97a1.1 1.1 0 00-.73-.58q-2.35-.55-3.56 1.3"/><path stroke="#d5d6c8" vector-effect="non-scaling-stroke" d="M516.21 492.25c-1.28.11-4.23.92-4-1.25"/><path stroke="#676666" vector-effect="non-scaling-stroke" d="M518.13 500.73c3.52 1.05 2.49-8.39 2.06-9.85a1.1 1.1 0 00-2.15.23l-.62 8.59a1 1 0 00.71 1.03"/><path stroke="#585959" vector-effect="non-scaling-stroke" d="M255.74 499.48c11.93-.72 24.12.16 36.12.04a.75.75 0 00.73-.59l1.53-6.77a.51.51 0 00-.49-.62l-36.68-.1a.7.7 0 00-.69.61l-.99 6.93a.45.44 2.1 00.47.5M387.13 500.79c3.54.02 10.1.39 15.2.12a.57.57 0 00.51-.43l1.54-6.47a.36.35 6.9 00-.35-.44l-43.66-.58a.69.68 11.9 00-.65.42q-1.41 3.22-1.22 6.72a.66.65-1.4 00.66.62q14.02-.04 27.97.04"/><path stroke="#676666" vector-effect="non-scaling-stroke" d="M408.29 504.75l-.27 5.08a.84.83-80.8 00.6.84l2.17.64a.66.65-77.7 00.83-.54l.84-6.02"/><path stroke="#8c8d7e" vector-effect="non-scaling-stroke" d="M412.46 504.75l1.13-2.36a.37.37 0 00-.28-.53c-2.12-.32-5.92-.77-5.02 2.89"/><path stroke="#d5d6c8" vector-effect="non-scaling-stroke" d="M412.46 504.75q-2.09 1.66-4.17 0"/><path stroke="#8c8d7e" vector-effect="non-scaling-stroke" d="M290.5 510.21q1.23.43 1.46-.52.89-3.64-.84-7.44"/><path stroke="#585959" vector-effect="non-scaling-stroke" d="M291.12 502.25q-8.96-.54-17.62-.04"/><path stroke="#676666" vector-effect="non-scaling-stroke" d="M273.5 502.21l-13.75-.17"/><path stroke="#585959" vector-effect="non-scaling-stroke" d="M259.75 502.04l-4.06.14a.65.65 0 00-.62.66l.13 5.99a.69.68 90 00.67.68l34.63.7"/><path stroke="#a0a2a3" vector-effect="non-scaling-stroke" d="M259.75 502.04q-1.79-.31-2.32.94a.34.33 10.7 00.32.46l17.38-.3a.13.12 90 00.12-.13v-.33a.41.4 90 00-.39-.4l-1.36-.07"/><path stroke="#c6c9bb" vector-effect="non-scaling-stroke" d="M291.12 502.25l-.62 7.96"/><path stroke="#676666" vector-effect="non-scaling-stroke" d="M416.835 515.18a6.42 2 90.4 002.045-6.406 6.42 2 90.4 00-1.955-6.434 6.42 2 90.4 00-2.045 6.406 6.42 2 90.4 001.955 6.434"/><path stroke="#585959" vector-effect="non-scaling-stroke" d="M402.532 504.596a.81.81 0 00-.802-.818l-43.457-.455a.81.81 0 00-.819.801l-.066 6.3a.81.81 0 00.802.818l43.457.455a.81.81 0 00.819-.801l.066-6.3"/><path stroke="#676666" vector-effect="non-scaling-stroke" d="M508.45 514.9c6.94 6.35 9.21-4.98 10.01-9.18q.36-1.85-.41-.13l-2.81 6.33a1.32 1.31-.8 01-.66.67q-2.72 1.25-5.75 1.31-1.43.03-.38 1M292.235 514.406a.8.8 0 00-.78-.82l-34.91-.852a.8.8 0 00-.819.78l-.001.06a.8.8 0 00.78.82l34.91.852a.8.8 0 00.819-.78l.001-.06"/><path stroke="#585959" vector-effect="non-scaling-stroke" d="M358.93 520.18c14.43.43 28.87.71 43.33.7a.59.58 86.5 00.58-.66l-.58-4.44a.78.77 86.9 00-.74-.67l-43.57-1.36a.5.5 0 00-.51.57l.78 5.22a.75.74 86.7 00.71.64"/><path stroke="#676666" vector-effect="non-scaling-stroke" d="M404.118 526.152a.26.26 0 00-.254-.265l-43.61-.914a.26.26 0 00-.266.255l-.026 1.24a.26.26 0 00.254.265l43.61.914a.26.26 0 00.266-.255l.026-1.24M412.27 530.42a.71.7 5 00-.82.68l-.02 2.25a.58.58 0 00.82.54q1.72-.78 2.43-2.56a.4.4 0 00-.3-.55l-2.11-.36M383.45 328.6q-3.4 19.19-6.91 38.32c-2.98 16.22-5.26 32.71-7.92 49.1a.37.36 3.9 00.37.42l38.55-1.19a1.9 1.89 4.6 001.8-1.52q8.65-43.85 15.25-88.03a.63.62-86.9 00-.64-.72q-11.69.39-23.56 1.26c-4.14.3-10.37.1-15.56.99a1.69 1.69 0 00-1.38 1.37M453.48 329.12q-10.27-.85-20.36-2.9a.52.52 0 00-.62.45q-1.32 12.12-3.21 24.14c-3.77 23.93-6.8 47.94-9.68 72.02a.85.8 35.9 00.09.48l7.99 15.43a.98.97 75.6 00.88.53q14.25-.04 28.49-.4 2.35-.06 3.76-.63a.73.72 77.9 00.45-.7c-1.82-35.63-4.62-71.22-6.28-106.85a1.66 1.65-89 00-1.51-1.57"/><path stroke="#676666" vector-effect="non-scaling-stroke" d="M382.82 367.55l-5.62 30.61q-.11.6.45.37 15.71-6.57 31.34-13.37c2.13-.92 2.61-1.78 2.95-3.97q1.31-8.46 4.39-23.12.54-2.56.62-4.05a.4.4 0 00-.48-.41q-2.42.51-3.19.88-14.68 6.96-30.03 12.55a.67.67 0 00-.43.51"/><path stroke="#8f8e8e" vector-effect="non-scaling-stroke" d="M448.67 334.09l-13.85-1.5a.37.36-82.8 00-.4.32q-4.1 33.41-9.23 66.62-.53 3.43-.76 7.13a.56.56 0 00.56.59h27.75a.59.58 89 00.58-.61c-.86-23.92-2.85-47.88-3.84-71.68a.92.92 0 00-.81-.87"/><path stroke="#676666" vector-effect="non-scaling-stroke" d="M451.57 411.21q-8.87-.92-17.57-.75"/><path stroke="#585959" vector-effect="non-scaling-stroke" d="M434 410.46l-9.48-.39a.58.58 0 00-.59.45c-.79 3.62-2.47 9.8-.8 13.25q3.09 6.38 6.5 12.58a.9.89-14.9 00.82.47l27.33-.83a.55.55 0 00.53-.59l-1.7-24.2a.64.63-6 00-.72-.58l-4.32.59"/><path stroke="#a0a2a3" vector-effect="non-scaling-stroke" d="M434 410.46c-1.01.03-5.86-.21-6.3.44a.38.38 0 00.25.59c2.63.47 5.67.04 7.71.07q7.93.12 15.91-.35M408.56 383.81q1.08-.62 1.41-2.32 1.32-6.78 5.31-23.22.49-1.99-.73-2.64a1.07 1.07 0 00-.92-.04q-7.91 3.33-15.61 7.1c-4.37 2.14-8.92 3.58-13.45 5.33a.99.98 84.4 00-.63.77l-4.22 25.42a1.15 1.14 81.4 001.64 1.21c4.58-2.27 9.87-3.57 14.31-5.65 1.72-.8 12.45-5.02 12.89-5.96"/><path stroke="#fdfef0" vector-effect="non-scaling-stroke" d="M589.94 591l-.23-.75"/></g><path fill="#919495" d="M0 0h591v2.56q.13-1.56-.87-2.23a.26.25 28.6 00-.38.11q-.05.11 0 .27-.75.14-1.5.14Q294.13.97 0 .94V0z"/><path fill="#fafde0" d="M591 2.56v587.5l-.75-.35-.06-588.36a.61.6-70.8 00-.22-.47l-.22-.17q-.05-.16 0-.27a.26.25 28.6 01.38-.11q1 .67.87 2.23z"/><path d="M589.75.71l.22.17a.61.6-70.8 01.22.47l.06 588.36-.54.54q-294.2-.03-588.4-.19-.65 0-1.31-.12V.94Q294.13.97 588.25.85q.75 0 1.5-.14zm-4.25 4.81a.26.26 0 00-.26-.26H5.5a.26.26 0 00-.26.26v579.72a.26.26 0 00.26.26h579.74a.26.26 0 00.26-.26V5.52z"/><path fill="#fafde0" d="M585.5 585.24a.26.26 0 01-.26.26H5.5a.26.26 0 01-.26-.26V5.52a.26.26 0 01.26-.26h579.74a.26.26 0 01.26.26v579.72zM32.28 40.71c-1.45 14.27-.81 29.22-.47 43.56.03 1.15-.65 2.61-.53 3.84a.37.37 0 00.62.23q31.03-29.53 59.92-58.27 1.77-1.76 4.4-5.34a.37.37 0 00-.19-.57q-1.06-.33-3.03-.36l-35.05-.52c-7.92-.12-13.78.92-20.16 4.56-4.9 2.8-4.88 6.74-5.51 12.87zm463.53 1.98q-.05-.51-.09-1.03a.42.42 0 00-.57-.36c-1.16.47-.74 2.19.03 2.69a.5.49 27 00.72-.23q.27-.65-.09-1.07zM72.54 373.25c-5.13 15.22-6.95 34.17-6.93 50.76.02 14.62 3.47 29.09 8.68 42.74 5.26 14.72 16.01 23.05 29.09 31.6q4.78 3.13 9.77 4.17a.95.93 84.5 01.68.57c6.01 14.76 19.07 20.61 33.5 24.02 4.5 1.06 13.53 1.84 15.91-1.89 6.68-10.5 2.09-18.71-4.83-27.19a.19.19 0 01.26-.28c6.78 4.75 33.01 21.11 37.38 5.53q3.43-12.24-3.1-22.5c-5.71-8.97-16.5-13.65-19.6-24.59-3.78-13.37-3.07-25.77 12.66-29.39a1.76 1.75 47.2 01.97.04c13.09 4.3 31.15 8.52 41.07-5q9.94-13.55 0-26.7-2.97-3.93-5.21-4.25-17.23-2.5-30.6-5.37c-8.57-1.84-19.71-5.22-22.67-14.59-2.2-6.95-6.69-10.76-12.22-14.88a.42.42 0 01-.04-.64c6.74-6.48 7.73-18.54 5.82-27.08-1.72-7.69-6.02-11.79-11.38-16.27a1.57 1.55-60.6 01-.47-1.72l44.31-125.57a.42.42 0 01.61-.22q50.83 32.09 101.68 64.15c3.22 2.03 3.31 5.28 4.43 8.54a.78.77-31.3 01-.21.83q-3.22 2.98-1.8 7.38a1.69 1.64-80.9 00.56.8c3.43 2.65 2.73 7.35 3.52 11.29q2.66 13.24 4.6 26.63a.8.78 74.2 01-.45.83l-.53.24a.75.75 0 00-.43.81c7.6 43.48 16.33 86.74 24.19 130.19a.37.36-3 01-.39.43l-11.67-1.09a2.44 2.43 2.7 00-2.66 2.41l-.06 17.43a1.45 1.44 26.4 00.3.88q1.27 1.62 2.73 1.7 13.15.73 45.86 1.26a.65.64-89.6 01.63.65v5.54a.65.65 0 01-.64.65q-14.43.18-28.82 1.06c-22.79 1.39-45.26 1.17-67.86 2.24-1.41.06-2.84.1-4.07.96-11.03 7.73-17.04 24.81-15.38 37.86 1.49 11.67 3.73 21.04 13.85 27.94 4.14 2.82 10.22 2.84 15.11 3.15q13.07.84 26.06 2.42 1.08.14 3.51-.24 23.96-3.73 48.01-7.51a.71.71 0 01.74.37c3.5 6.34 6.99 11.05 14.74 11.39q13.8.62 40.41 2.73 3.6.28 7.13-.45 54.12-11.16 108.16-22.72c.82-.17 2.35-1.23 2.75-1.94 8.81-15.68 8.88-33.57 3.28-50.14q-2.83-8.39-11.73-6.68-4.7-.48-9.25.67-11.22.42-22.45.51c-1.54.02-2.68 1.04-4.48-.03a.28.27-55.2 00-.35.07l-.22.27q-.89 1.08-.9-.31l-.03-3.78a.76.75-3.4 01.67-.75c11.44-1.41 24.11-1.69 34.37-2.59q10.07-.87 20.19-1.46a1.41 1.37-67.9 00.87-.38q1.79-1.71 1.8-4.32c.05-14.19.84-29.05-1.09-42.86q-1.42-10.16-3.47-20.22c-.53-2.62-.46-5.46-3.89-5.64-22.35-1.13-44.03-2.76-66.1-3.73a1.28 1.28 0 01-1.23-1.15q-.68-6.8-1.02-13.69c-.67-13.41-2.15-26.64-2.61-40.06-.1-2.91-1.77-4.88-4.56-5.15-13.22-1.25-22.77-3.96-34.94-3.33q-26.42 1.36-41.6 2.51c-2.05.16-3.17.94-3.6 2.91q-1.38 6.32-2.21 12.74-.06.51-.25.03c-2.46-6.23-2.73-12.52-4.56-21.27q-7.96-38.14-15.27-76.41c-.54-2.81-1.35-3.8-3.5-5.44q-18.02-13.72-48.13-37.79c-4.76-3.81-8.89-6.44-14-8.83q-23.16-10.84-46.45-21.41c-1.41-.64-3.27-.28-3.78 1.15a1.62 1.62 0 01-2.3.89c-4.82-2.62-9.32-6.06-14.96-5.52a1.63 1.59 56.6 01-.96-.21l-18.03-10.13a.9.9 0 01-.46-.73q-1.63-25.97-3.69-51.91-.42-5.23-1.21-10.42c-1.05-6.9-2.56-9.7-10.26-6.88q-8.93 3.27-17.87 6.57-3 1.11-3.98 5.04c-10.53 42.26-20.51 84.68-31.31 126.87q-10.11 39.43-19.41 79.08a.65.64 5.2 01-.61.5c-8 .23-16.45 1.45-23.56 5.27-13.93 7.49-21.5 20.2-19.79 36.49q.46 4.34 4.68 10.16a1.78 1.71 26.7 01.32.9c.34 6.46-1.8 13.49-3.77 20.48zm142.993 144.745a1.29.53 73.2 00.134-1.388 1.29.53 73.2 00-.88-1.082 1.29.53 73.2 00-.134 1.388 1.29.53 73.2 00.88 1.082z"/><path fill="#fbe6ad" d="M32.28 40.71c.63-6.13.61-10.07 5.51-12.87 6.38-3.64 12.24-4.68 20.16-4.56L93 23.8q1.97.03 3.03.36a.37.37 0 01.19.57q-2.63 3.58-4.4 5.34Q62.93 58.81 31.9 88.34a.37.37 0 01-.62-.23c-.12-1.23.56-2.69.53-3.84-.34-14.34-.98-29.29.47-43.56z"/><path fill="#afafb0" d="M495.81 42.69q.36.42.09 1.07a.5.49 27 01-.72.23c-.77-.5-1.19-2.22-.03-2.69a.42.42 0 01.57.36q.04.52.09 1.03z"/><path fill="#1e1d1c" d="M512.5 467.21q4.66.24 9.25-.67 8.9-1.71 11.73 6.68c5.6 16.57 5.53 34.46-3.28 50.14-.4.71-1.93 1.77-2.75 1.94q-54.04 11.56-108.16 22.72-3.53.73-7.13.45-26.61-2.11-40.41-2.73c-7.75-.34-11.24-5.05-14.74-11.39a.71.71 0 00-.74-.37q-24.05 3.78-48.01 7.51-2.43.38-3.51.24-12.99-1.58-26.06-2.42c-4.89-.31-10.97-.33-15.11-3.15-10.12-6.9-12.36-16.27-13.85-27.94-1.66-13.05 4.35-30.13 15.38-37.86 1.23-.86 2.66-.9 4.07-.96 22.6-1.07 45.07-.85 67.86-2.24q14.39-.88 28.82-1.06a.65.65 0 00.64-.65v-5.54a.65.64-89.6 00-.63-.65q-32.71-.53-45.86-1.26-1.46-.08-2.73-1.7a1.45 1.44 26.4 01-.3-.88l.06-17.43a2.44 2.43 2.7 012.66-2.41l11.67 1.09a.37.36-3 00.39-.43c-7.86-43.45-16.59-86.71-24.19-130.19a.75.75 0 01.43-.81l.53-.24a.8.78 74.2 00.45-.83q-1.94-13.39-4.6-26.63c-.79-3.94-.09-8.64-3.52-11.29a1.69 1.64-80.9 01-.56-.8q-1.42-4.4 1.8-7.38a.78.77-31.3 00.21-.83c-1.12-3.26-1.21-6.51-4.43-8.54q-50.85-32.06-101.68-64.15a.42.42 0 00-.61.22l-44.31 125.57a1.57 1.55-60.6 00.47 1.72c5.36 4.48 9.66 8.58 11.38 16.27 1.91 8.54.92 20.6-5.82 27.08a.42.42 0 00.04.64c5.53 4.12 10.02 7.93 12.22 14.88 2.96 9.37 14.1 12.75 22.67 14.59q13.37 2.87 30.6 5.37 2.24.32 5.21 4.25 9.94 13.15 0 26.7c-9.92 13.52-27.98 9.3-41.07 5a1.76 1.75 47.2 00-.97-.04c-15.73 3.62-16.44 16.02-12.66 29.39 3.1 10.94 13.89 15.62 19.6 24.59q6.53 10.26 3.1 22.5c-4.37 15.58-30.6-.78-37.38-5.53a.19.19 0 00-.26.28c6.92 8.48 11.51 16.69 4.83 27.19-2.38 3.73-11.41 2.95-15.91 1.89-14.43-3.41-27.49-9.26-33.5-24.02a.95.93 84.5 00-.68-.57q-4.99-1.04-9.77-4.17c-13.08-8.55-23.83-16.88-29.09-31.6 2.62-.61.16-5.87-.49-7.3q-1.47-3.19-1.91-5.14c-2.27-10.19-4.5-19.59-5.05-29.89-.25-4.88.61-10.38.75-15.64.17-6.44 1.06-13.22 2.77-19.51 1.01-3.7 1.09-7.39 2.1-11.02q.6-2.14 1.07-4.3a.53.52-80.4 00-.44-.63l-.55-.07c1.97-6.99 4.11-14.02 3.77-20.48a1.78 1.71 26.7 00-.32-.9q-4.22-5.82-4.68-10.16c-1.71-16.29 5.86-29 19.79-36.49 7.11-3.82 15.56-5.04 23.56-5.27a.65.64 5.2 00.61-.5q9.3-39.65 19.41-79.08c10.8-42.19 20.78-84.61 31.31-126.87q.98-3.93 3.98-5.04 8.94-3.3 17.87-6.57c7.7-2.82 9.21-.02 10.26 6.88q.79 5.19 1.21 10.42 2.06 25.94 3.69 51.91a.9.9 0 00.46.73l18.03 10.13a1.63 1.59 56.6 00.96.21c5.64-.54 10.14 2.9 14.96 5.52a1.62 1.62 0 002.3-.89c.51-1.43 2.37-1.79 3.78-1.15q23.29 10.57 46.45 21.41c5.11 2.39 9.24 5.02 14 8.83q30.11 24.07 48.13 37.79c2.15 1.64 2.96 2.63 3.5 5.44q7.31 38.27 15.27 76.41c1.83 8.75 2.1 15.04 4.56 21.27q.19.48.25-.03.83-6.42 2.21-12.74c.43-1.97 1.55-2.75 3.6-2.91q15.18-1.15 41.6-2.51c12.17-.63 21.72 2.08 34.94 3.33 2.79.27 4.46 2.24 4.56 5.15.46 13.42 1.94 26.65 2.61 40.06q.34 6.89 1.02 13.69a1.28 1.28 0 001.23 1.15c22.07.97 43.75 2.6 66.1 3.73 3.43.18 3.36 3.02 3.89 5.64q2.05 10.06 3.47 20.22c1.93 13.81 1.14 28.67 1.09 42.86q-.01 2.61-1.8 4.32a1.41 1.37-67.9 01-.87.38q-10.12.59-20.19 1.46c-10.26.9-22.93 1.18-34.37 2.59a.76.75-3.4 00-.67.75l.03 3.78q.01 1.39.9.31l.22-.27a.28.27-55.2 01.35-.07c1.8 1.07 2.94.05 4.48.03q11.23-.09 22.45-.51zM180.85 129.97l-9.56 38.53-4.08 16-14.67 58.75-4.08 17.25c-3.83 13.73-6.95 27.62-10.17 41.5l-5.67 21.3a.55.55 0 00.37.67q.6.17 1.26-.01l4.25-.25q1.77.37 2.18-1.03c3.56-11.94 7.69-21.73 11.28-32.18 5.17-15.05 10.67-29.93 15.79-44.96q1.62-3.12 1.87-6.57 3.41-7.91 6.16-15.98 3.59-10.6 5.71-16.14c4.81-12.59 8.78-25.41 13.33-38.09a.67.67 0 00-.25-.77l-4.49-3c-5.05-5.34-4.15-16.99 6.29-16.01q-.1-22.69-2.45-45.22-.82-7.87-2-15.57a.37.37 0 00-.73-.02q-4.59 21.07-10.34 41.8zm38.46 36.97c-8.39-5.1-16.16-10.18-24.94-12.17a.6.59-76 00-.71.43l-.86 3.19a.8.8 0 00.29.83c8.6 6.46 17.82 11.79 26.73 17.8a.37.37 0 00.56-.2c.69-2.48 1.51-8.32-1.07-9.88zm33.44 35.35l7.75 5.11q36.65 24.04 73.54 47.58c1.63 1.05 4.79 19.62 5.69 22.77q5.62 19.64 10.17 39.57.13.54.33.02c.94-2.44-4.64-15.15-1.18-16.73a1.45 1.44-16.9 00.83-1.54q-1.6-10-3.71-19.59c-.22-1.03-.9-1.68-.98-2.88-.25-4.1-1.68-8.47-2.4-12.59a.58.58 0 00-.56-.48l-3.34-.1a.87.87 0 01-.75-.46q-1.81-3.45-.96-7.54 6.28-1.45 12.95-.17 2.9 4.24.4 8.72a1.34 1.29 54.3 00-.13.9l6.99 34.4a1.05 1.04 7.8 00.56.73q2.35 1.19 2.89 4.42 4.5 26.75 10.1 54.26.61 3.02 1.18-.01c.99-5.3-.51-11.91-1.77-17.7q-8.97-41.27-16.99-82.73c-.89-4.57-2.81-11.24-3.53-16.98-.31-2.49-6.19-6.44-9.33-8.81l-17.21-13.71q-10.77-8.55-21.75-16.82c-4.4-3.32-8.69-6.81-13.45-9.07q-12.12-5.75-43.94-20.15a.55.55 0 00-.76.37q-.54 2.3-2.72 2.76a1.66 1.62 52.4 01-1.13-.16l-11.85-6.26a.35.35 0 00-.51.29l-.75 14.88a.77.76 18.3 00.34.67l25.98 17.03zm95.97 59.13a.88.88 0 001.23-.89l-.27-2.82a.75.75 0 00-.8-.68c-2.68.2-2.96 3.17-.16 4.39zm-25.28 77.82q-1.47 1.37-.89 3.02.85 2.41.88 2.64c1.52 11.22 2.56 22.71 5.25 33.72q2.04 8.32 2.27 11.4.4 5.34 1.35 8.17a1.2 1.14 5.1 00.59.67l1.32.64 3.59 21.81a.21.15 88.6 00.13.17l.26.05a.1.09-82 00.11-.09q.83-16.18 1.04-32.37c.07-4.62 4.5-4.18 7.64-3.58a.48.48 0 00.55-.62c-1.79-5.55-4.31-11.48-5.94-16.25-7.1-20.81-14.2-41.62-21.91-62.21q-4.89-13.06-9.25-26.08a.36.36 0 00-.7.18l4.16 22.51a.91.91 0 00.67.71l1.18.28a1.02 1.01 87.3 01.73.67q.76 2.27 1.22 4.58 2.96 14.99 5.75 29.98zm45.22 35.99q.85-3.81.33-6.98c-3.39-20.76-8.07-40.19-11.21-62.24q-.21-1.52-1.54-1.38a.5.49 82.9 00-.44.57q1.94 12.96 4.43 25.82c2.76 14.22 5.1 29.51 8.04 44.21q.18.94.39 0zM99.25 307.54q-.65-.13-.99 0-9.71 3.72-16.41 12.07-2.98 3.71-3.13 8.63-1.19 4.52-.47 9.28.65 4.23 1.72 6.9c4.36 10.88 16.69 13.63 25.83 18.52q.51.26-.06.19l-14.49-1.84q-4.57-1.09-8.58-3.53a.37.36-67.4 00-.54.23q-2.99 12.16-3.37 24.79-2.08 5.14-.34 10.38.66 9.35 1.69 18.52c1.6 14.34 9.31 29.4 16.89 42.86l2.46 4.71q.72 1.91.59 3.99a1.5 1.49 31.6 00.22.91c3.03 5.09 6.79 10.21 9.32 15.05 4.23 8.11 7.21 16.71 11.44 24.8q6.33 9.49 17.07 14.87c5.11 2.56 15.02 6.03 20.54 3.5q2.82-1.78 2.83-5.39c.02-7.07-2.36-9.51-7.27-15.52-8.98-11.01-16.84-20.21-23.08-30.23-.63-1.75-5.15-10.93-3.64-11.8a.65.64-37.3 01.79.1l.94.97c5.03 10.07 14.23 17.83 21.75 24.28q15.22 13.02 33.93 20.22c6.6 2.54 7.64-8.88 6.57-13-.41-8.97-6.14-13.44-12.77-18.86-7.99-6.54-13.45-22.45-12.21-32.38 1.06-8.6 5.12-15.29 12.4-20.55q1.18 1.17 2 .06l6.12.19q6.19 2.38 12.45 3.54c8.25 2.18 19.17 1.09 24.2-6.78q1.69-1.06 2.01-3.6 4-7.29-.48-13.38c-2.93-3.98-10.83-3.67-14.4-4.47-10.04-2.26-23.94-3.91-35.16-9.31-7.98-3.84-9.94-8.65-12.97-16.33-1.72-4.36-7.3-8.49-10.78-11.57a.75.75 0 00-.82-.12q-6.18 2.98-12.8 4.77c2.66-2.6 6.14-3.9 9-6.17q4.52-2.4 7.54-6.54 5.69-6.8 4.25-15.75-.43-11.06-9.26-17.44a.56.56 0 00-.83.2l-1.59 3.21a.52.52 0 00.3.72l1.38.46a1.27 1.25-3.2 01.75.66c.83 1.77.15 2.83-1.6 3.46-13.24 4.68-37.13 5.14-44.77-9.84a1.71 1.71 0 011.28-2.47l1.14-.17a.99.98-20.5 01.95.43l2.83 4.26a.32.32 0 00.54-.01q3.1-5.16-1.66-9.01-3.63-4.67-9.25-1.67zm283.24 18.67q-5.38 24.02-9.25 48.15c-2.42 15.09-6.08 29.9-8.92 44.9q-.09.49.37.31c.74-.28 1.47-.6 2.28-.61q20.78-.18 41.58-.66c2.4-.05 2.82-.96 3.18-3.11 5-30.27 10.38-60.42 14.25-90.88a.45.43-86.5 00-.43-.5c-14.28.02-29.33 1.64-42.88 2.25a.2.19 3.7 00-.18.15zm73.22 1.98l-24.26-3.55a.51.51 0 00-.57.4q-3.48 16.48-6.1 36.96c-.09.73-.65 1.84-.75 2.78q-3.26 28.76-8.33 57.25-.4 2.22.03 2.98 4.66 8.35 8.57 17.17a1.13 1.13 0 001.05.68l38.28-.4a.68.68 0 00.67-.72q-1.42-23.43-3.42-46.78c-1.89-22.06-2.95-44.21-4.69-66.26a.57.57 0 00-.48-.51zm30.81 110.58l47.73-1.31q.7.27 1.25-.06a1.03 1.03 0 00.51-.89l.1-17.3a.76.76 0 00-.55-.73q-.26-.08-.56-.02-4.91-.84-9.68-.16l-8.89-.43q-.92-2.46-.15-4.59a.86.85 6.9 01.73-.57q8.73-.8 17.47-.19a.64.63-.3 00.69-.69l-.18-2.23a.74.73-89.6 00-.66-.68c-6.12-.66-12.28-.18-17.88-.53a.78.78 0 01-.68-.5c-.99-2.64.37-4.09 3.1-4.13q7.2-.12 14.41-.14a.55.55 0 00.52-.73l-.72-2.07a.81.79 81.1 00-.74-.55l-15.97-.26a.86.86 0 01-.79-.55q-.8-1.97.61-3.69a1.32 1.31 16.2 01.88-.48l2.68-.33 11.44.13a.58.58 0 00.59-.62l-.12-1.87a.65.64-89.5 00-.58-.6c-13.39-1.34-28.25-1.65-40.19-2.58q-9.69-.75-19.38-1.47-2.16-.15-4.22.26a.53.52-7.5 00-.43.55l3.02 49.77a.6.6 0 00.55.56q8.11.54 16.09-.32zM532 453.46l3.4.13a.58.58 0 00.6-.58v-12.07a.62.61-85.7 00-.52-.61q-.36-.06-.73.21c-21.17-.7-42.65 1.13-63.85 1.94a.68.68 0 00-.65.75c.37 3.84-1.64 5.49-5.4 5.53q-17.31.21-34.7.39a.66.66 0 00-.65.66v9.87a.6.6 0 00.65.6c35.93-2.59 69.32-4.18 101.85-6.82zm-126.75 6.83l17.87.21a.86.86 0 00.76-.46q.23-.45.08-1.04l.02-8.97a.91.91 0 00-1.23-.85l-27.92 10.66a.31.3-55.6 00.11.59l10.31-.14zM88.43 477.14c5.05 6.7 13.7 12.23 20.92 17.61a.52.52 0 00.78-.63q-5.77-12.4-12.22-24.04c-1.14-2.06-2.06-3.48-4.24-4.7q-6.87-3.85-13-8.89a.5.5 0 00-.81.47q1.89 11.31 8.57 20.18zm322.86 62.48c1.32 1.17 1.97 2.31 3.02 3.57a.79.78-28 00.83.25l.44-.14q.7-.22.15-.7c-7.52-6.55-7.97-14.3-9.15-24.27-1.74-14.74.59-29.39 10.53-40.8a1.31 1.3 17 01.83-.44c11.31-1.41 19.29-.97 29-1.72q6.53-.51 13.14-.7c6.91-.2 13.59-1.27 20.49-1.45a.19.18-1.7 00.18-.18v-.26a.24.24 0 00-.25-.25c-6.02.21-12.16.96-17.96 1q-20.74.12-41.47 1.29c-8.61.48-13.44 14.53-14.46 21.44-.71 4.83-2.26 9.67-2.03 14.4.31 6.31 1.92 24.68 6.71 28.96zm-137.85-61.71q13.04.15 26.1.09c2.94-.02 3.72-1.34 5.06-3.61q.85-1.44-.81-1.27-2.05.2-5.04.19-14.89-.08-29.73 1.25c-2.1.19-3.25 1.32-4.07 3.09a.32.32 0 00.3.45q4.16-.23 8.19-.19zm242.6 1.68l2.61 3.17q1.37 1.66.48-.29l-3.52-7.69a2.01 2 59.2 00-3.03-.77q-2.76 2.08-3.97 5.24a.34.34 0 00.34.45l6.21-.48a1.06 1.05 67.3 01.88.37zm-148.7-.03q19.76.03 39.46-.08c3.58-.02 5.37-1.34 6.99-4.29a.3.3 0 00-.28-.44q-20.27 1.09-40.57 1.22c-2.64.02-4.14 1.23-5.87 2.94a.38.38 0 00.27.65zm-105.15 9.25q19.22.19 32.71-.04a.88.86 13.5 00.75-.45l3.5-6.38a.63.63 0 00-.55-.94q-17.09-.07-34.1.06-1.61.01-3.14.54a1.49 1.45 5 00-.78.64l-3.34 5.67a.45.45 0 00.34.67q1.85.2 4.61.23zm180.31-1.1q-10.27.23-20.51 1.82-4.71-.6-9.56.48a1.18 1.17 5.8 00-.8.65q-1.78 3.92-2.31 8.22a.46.45 5.3 00.43.51c2.75.19 8.65-.75 10.09 2.05q3.78 7.37-.16 15.57a1.4 1.39 2.1 01-.77.71q-4.37 1.72-9.05.76a1.08 1.07-88.5 00-1.28 1.22l1.19 7.45a1.08 1.08 0 001.17.9c16.64-1.76 33.09-4.06 49.65-5.71q10.07-1.01 19.7-4.34l32.81-8.41a1.14 1.13 4.4 00.75-.64l1.9-4.35q.33-.77-.49-.63-3.29.52-4.69-2-3.95-7.09.93-13.76 2.29-.85 4.76-.32a.52.52 0 00.61-.38c1.35-5.41-2.85-5.67-6.69-5.37q-47.46 3.7-67.68 5.57zm-78.5-4q-2.24 2.33-2.77 5.73a.53.53 0 00.52.61l41.56-.04q.48 0 .92.19c2.2.97 3.01-3.58 3.3-5.27l.8-1.79a.36.36 0 00-.33-.51q-21.42.36-42.81.27c-.67 0-.86.28-1.19.81zM523.29 497q-.61 5.63-2.33 11c-2.29 4.92-3.7 8.89-6.76 10.98a1.08 1.05-53.7 01-.9.15c-2.13-.6-4.38.11-6.06.13q-5.5.04-11 .14c-11.94.21-22.01 4.44-33.59 5.75q-21.8 2.47-43.62 4.99a.82.81 6.4 00-.67.53c-.74 1.91-6.07 9.9-1.09 9.67q3.86-.19 17.02-3.84l14.71-3.04q29.08-5.63 38.74-8 13.82-3.39 23.59-4.94c4.84-.76 9.53-2.44 14.45-3.43a1.02 1.02 0 00.71-.55q2.87-5.75 3.97-12.04 1.59-6.88.3-14.07c1.64-2.25-6.45-1.41-7.26-1.39a.57.56 88 00-.55.6l.34 7.36zm-11.08-6q-1.25 2.34-.96 4.97a.56.56 0 00.48.49l3.18.48a.56.56 0 00.63-.46l.67-4.23q.74-1.06.29-1.97a1.1 1.1 0 00-.73-.58q-2.35-.55-3.56 1.3zm5.92 9.73c3.52 1.05 2.49-8.39 2.06-9.85a1.1 1.1 0 00-2.15.23l-.62 8.59a1 1 0 00.71 1.03zm-262.39-1.25c11.93-.72 24.12.16 36.12.04a.75.75 0 00.73-.59l1.53-6.77a.51.51 0 00-.49-.62l-36.68-.1a.7.7 0 00-.69.61l-.99 6.93a.45.44 2.1 00.47.5zm131.39 1.31c3.54.02 10.1.39 15.2.12a.57.57 0 00.51-.43l1.54-6.47a.36.35 6.9 00-.35-.44l-43.66-.58a.69.68 11.9 00-.65.42q-1.41 3.22-1.22 6.72a.66.65-1.4 00.66.62q14.02-.04 27.97.04zm21.16 3.96l-.27 5.08a.84.83-80.8 00.6.84l2.17.64a.66.65-77.7 00.83-.54l.84-6.02 1.13-2.36a.37.37 0 00-.28-.53c-2.12-.32-5.92-.77-5.02 2.89zm-117.79 5.46q1.23.43 1.46-.52.89-3.64-.84-7.44-8.96-.54-17.62-.04l-13.75-.17-4.06.14a.65.65 0 00-.62.66l.13 5.99a.69.68 90 00.67.68l34.63.7zm126.335 4.97a6.42 2 90.4 002.045-6.406 6.42 2 90.4 00-1.955-6.434 6.42 2 90.4 00-2.045 6.406 6.42 2 90.4 001.955 6.434zm-14.303-10.584a.81.81 0 00-.802-.818l-43.457-.455a.81.81 0 00-.819.801l-.066 6.3a.81.81 0 00.802.818l43.457.455a.81.81 0 00.819-.801l.066-6.3zM508.45 514.9c6.94 6.35 9.21-4.98 10.01-9.18q.36-1.85-.41-.13l-2.81 6.33a1.32 1.31-.8 01-.66.67q-2.72 1.25-5.75 1.31-1.43.03-.38 1zm-216.215-.494a.8.8 0 00-.78-.82l-34.91-.852a.8.8 0 00-.819.78l-.001.06a.8.8 0 00.78.82l34.91.852a.8.8 0 00.819-.78l.001-.06zm66.695 5.774c14.43.43 28.87.71 43.33.7a.59.58 86.5 00.58-.66l-.58-4.44a.78.77 86.9 00-.74-.67l-43.57-1.36a.5.5 0 00-.51.57l.78 5.22a.75.74 86.7 00.71.64zm45.188 5.972a.26.26 0 00-.254-.265l-43.61-.914a.26.26 0 00-.266.255l-.026 1.24a.26.26 0 00.254.265l43.61.914a.26.26 0 00.266-.255l.026-1.24zm8.152 4.268a.71.7 5 00-.82.68l-.02 2.25a.58.58 0 00.82.54q1.72-.78 2.43-2.56a.4.4 0 00-.3-.55l-2.11-.36z"/><path fill="#afafb0" d="M196.37 148.98q-1.73-8.15-1.94-16.29-.15-5.62-.71-10.31c-.99-8.34-.06-17.08-2.67-25.22q-.27-.85-.7-.06-.89 1.64-.5 3.52.11.52-.03 1.04c-.56 2.06-1.53 3.77-1.8 5.92q-.54 4.35-2.23 8.42c-.5 1.2-.06 2.26-.36 3.18q-1.71 5.25-3.18 10.57-.41 1.48-1.4.22 5.75-20.73 10.34-41.8a.37.37 0 01.73.02q1.18 7.7 2 15.57 2.35 22.53 2.45 45.22z"/><path fill="#919495" d="M196.37 148.98c-10.44-.98-11.34 10.67-6.29 16.01q-.62 2.22 1.97 2.66a1.43 1.42 19.3 011.01 2.09q-2.8 5.06-3.77 10.69c-.49 2.91-2.5 5.81-3.4 8.74q-4.36 14.14-8.88 25.59-4.89 12.38-7.39 24.21-.25 3.45-1.87 6.57l-1.13-.04a.74.73 10.5 00-.71.48c-2.56 6.9-4.91 13.71-6.9 20.79q-1.02 3.67-3.11 8.4c-2.25 5.09-4.04 13.44-7.39 20.7-1.54 3.33-2.35 7.18-3.51 10.19q-1 2.58-1.91 5.19a1.81 1.76 80.8 01-.57.81l-1.05.83a1.57 1.56 78.1 00-.55.85l-2.42 9.97-4.25.25q.97-3.25 3.22-5.9a1.54 1.49-23.9 00.36-.89c.19-2.57-.52-4.49 0-7.01q.77-3.71 1.65-7.38a.72.7-68.7 00-.33-.78q-.34-.2-.86 0c3.22-13.88 6.34-27.77 10.17-41.5l.17 1.44a.63.63 0 00.63.56c1.98 0 2.48-3.78 2.01-5.14q-.16-.47-.07-.96c.47-2.8 3.35-11.29 1.34-13.15l14.67-58.75q.49.41.99.36a.68.67-86.2 00.58-.52l3.68-15.09a.69.68-67.6 00-.31-.75q-.33-.19-.86 0l9.56-38.53q.99 1.26 1.4-.22 1.47-5.32 3.18-10.57c.3-.92-.14-1.98.36-3.18q1.69-4.07 2.23-8.42c.27-2.15 1.24-3.86 1.8-5.92q.14-.52.03-1.04-.39-1.88.5-3.52.43-.79.7.06c2.61 8.14 1.68 16.88 2.67 25.22q.56 4.69.71 10.31.21 8.14 1.94 16.29z"/><path fill="#919495" d="M219.31 166.94c2.58 1.56 1.76 7.4 1.07 9.88a.37.37 0 01-.56.2c-8.91-6.01-18.13-11.34-26.73-17.8a.8.8 0 01-.29-.83l.86-3.19a.6.59-76 01.71-.43c8.78 1.99 16.55 7.07 24.94 12.17z"/><path fill="#afafb0" d="M190.08 164.99l4.49 3a.67.67 0 01.25.77c-4.55 12.68-8.52 25.5-13.33 38.09q-2.12 5.54-5.71 16.14-2.75 8.07-6.16 15.98 2.5-11.83 7.39-24.21 4.52-11.45 8.88-25.59c.9-2.93 2.91-5.83 3.4-8.74q.97-5.63 3.77-10.69a1.43 1.42 19.3 00-1.01-2.09q-2.59-.44-1.97-2.66zM171.29 168.5q.53-.19.86 0a.69.68-67.6 01.31.75l-3.68 15.09a.68.67-86.2 01-.58.52q-.5.05-.99-.36l4.08-16zM323.29 218.75q-.28.55-.81.84a.79.78 49.3 01-.86-.07q-11.6-9.08-23.09-18.3-8.49-6.81-17.02-9.98-5.5-2.05-9.83-4.28c-8.56-4.41-17.14-8.39-25.92-12.35a.89.87 41.5 00-.81.04l-3.58 2.11a1.2 1.18-48.8 01-1.05.08l-10.42-4.08a.83.82-81.1 00-1.13.83q.26 3.95-.99 7.72a2.4 2.39-58.1 00.56 2.43c1.57 1.6 3.18 3.13 5.18 4.35q10.15 6.22 19.9 13.08 1.04.73-.2 1.02l-.47.1-25.98-17.03a.77.76 18.3 01-.34-.67l.75-14.88a.35.35 0 01.51-.29l11.85 6.26a1.66 1.62 52.4 001.13.16q2.18-.46 2.72-2.76a.55.55 0 01.76-.37q31.82 14.4 43.94 20.15c4.76 2.26 9.05 5.75 13.45 9.07q10.98 8.27 21.75 16.82z"/><path fill="#919495" d="M323.29 218.75l17.21 13.71c-3.17.84 6.84 6.99 7.6 7.52a1.31 1.28 11.5 01.53.78c.56 2.47.23 4.5 1.03 7.04q1.15 3.66.47 7.46-6.67-1.28-12.95.17c-2.75-1.48-4.85-3.76-7.52-5.19q-9.93-5.31-19.14-11.78c-4.25-2.99-9.99-5.83-13.23-8.49q-3.23-2.64-5.6-4.2-3.27-2.14-5.34-3.78c-2.91-2.29-6.29-3.88-9.22-5.95-3.35-2.37-7.11-3.72-10.16-6.52q-2.66-2.43-6.47-2.12l-7.75-5.11.47-.1q1.24-.29.2-1.02-9.75-6.86-19.9-13.08c-2-1.22-3.61-2.75-5.18-4.35a2.4 2.39-58.1 01-.56-2.43q1.25-3.77.99-7.72a.83.82-81.1 011.13-.83l10.42 4.08a1.2 1.18-48.8 001.05-.08l3.58-2.11a.89.87 41.5 01.81-.04c8.78 3.96 17.36 7.94 25.92 12.35q4.33 2.23 9.83 4.28 8.53 3.17 17.02 9.98 11.49 9.22 23.09 18.3a.79.78 49.3 00.86.07q.53-.29.81-.84z"/><path fill="#afafb0" d="M337.18 255.43q-.85 4.09.96 7.54a.87.87 0 00.75.46l3.34.1a.58.58 0 01.56.48c.72 4.12 2.15 8.49 2.4 12.59.08 1.2.76 1.85.98 2.88q2.11 9.59 3.71 19.59a1.45 1.44-16.9 01-.83 1.54c-3.46 1.58 2.12 14.29 1.18 16.73q-.2.52-.33-.02-4.55-19.93-10.17-39.57c-.9-3.15-4.06-21.72-5.69-22.77q-36.89-23.54-73.54-47.58 3.81-.31 6.47 2.12c3.05 2.8 6.81 4.15 10.16 6.52 2.93 2.07 6.31 3.66 9.22 5.95q2.07 1.64 5.34 3.78 2.37 1.56 5.6 4.2c3.24 2.66 8.98 5.5 13.23 8.49q9.21 6.47 19.14 11.78c2.67 1.43 4.77 3.71 7.52 5.19zM340.5 232.46c3.14 2.37 9.02 6.32 9.33 8.81.72 5.74 2.64 12.41 3.53 16.98q8.02 41.46 16.99 82.73c1.26 5.79 2.76 12.4 1.77 17.7q-.57 3.03-1.18.01-5.6-27.51-10.1-54.26-.54-3.23-2.89-4.42a1.05 1.04 7.8 01-.56-.73l-6.99-34.4a1.34 1.29 54.3 01.13-.9q2.5-4.48-.4-8.72.68-3.8-.47-7.46c-.8-2.54-.47-4.57-1.03-7.04a1.31 1.28 11.5 00-.53-.78c-.76-.53-10.77-6.68-7.6-7.52zM152.54 243.25c2.01 1.86-.87 10.35-1.34 13.15q-.09.49.07.96c.47 1.36-.03 5.14-2.01 5.14a.63.63 0 01-.63-.56l-.17-1.44 4.08-17.25zM167.75 245.54c-5.12 15.03-10.62 29.91-15.79 44.96-3.59 10.45-7.72 20.24-11.28 32.18q-.41 1.4-2.18 1.03l2.42-9.97a1.57 1.56 78.1 01.55-.85l1.05-.83a1.81 1.76 80.8 00.57-.81q.91-2.61 1.91-5.19c1.16-3.01 1.97-6.86 3.51-10.19 3.35-7.26 5.14-15.61 7.39-20.7q2.09-4.73 3.11-8.4c1.99-7.08 4.34-13.89 6.9-20.79a.74.73 10.5 01.71-.48l1.13.04z"/><path fill="#afafb0" d="M348.72 261.42c-2.8-1.22-2.52-4.19.16-4.39a.75.75 0 01.8.68l.27 2.82a.88.88 0 01-1.23.89z"/><path fill="#fafde0" d="M334.21 399.5l-10.77-60.26q-2.79-14.99-5.75-29.98-.46-2.31-1.22-4.58a1.02 1.01 87.3 00-.73-.67l-1.18-.28a.91.91 0 01-.67-.71l-4.16-22.51a.36.36 0 01.7-.18q4.36 13.02 9.25 26.08c7.71 20.59 14.81 41.4 21.91 62.21 1.63 4.77 4.15 10.7 5.94 16.25a.48.48 0 01-.55.62c-3.14-.6-7.57-1.04-7.64 3.58q-.21 16.19-1.04 32.37a.1.09-82 01-.11.09l-.26-.05a.21.15 88.6 01-.13-.17l-3.59-21.81z"/><path fill="#afafb0" d="M138.29 302q.52-.2.86 0a.72.7-68.7 01.33.78q-.88 3.67-1.65 7.38c-.52 2.52.19 4.44 0 7.01a1.54 1.49-23.9 01-.36.89q-2.25 2.65-3.22 5.9-.66.18-1.26.01a.55.55 0 01-.37-.67l5.67-21.3z"/><path fill="#fafde0" d="M368.66 375.23q-.21.94-.39 0c-2.94-14.7-5.28-29.99-8.04-44.21q-2.49-12.86-4.43-25.82a.5.49 82.9 01.44-.57q1.33-.14 1.54 1.38c3.14 22.05 7.82 41.48 11.21 62.24q.52 3.17-.33 6.98z"/><path fill="#919495" d="M108.5 309.21q-12.06 1.43-18.74 10.56c-3.94 5.38-3.92 12.52.88 17.48 15.09 15.59 50.7 15.23 66.27.12a1.64 1.55 74.8 00.43-.8q.2-.91 1.11-.83a.51.5 4.5 00.55-.46l.04-.53q1.44 8.95-4.25 15.75l-.24-.37a.33.33 0 00-.52-.05q-3.17 3.42-7.17 5.83a.55.55 0 00-.16.8q.2.28.55.33c-2.86 2.27-6.34 3.57-9 6.17q-9.01 3.6-17.93 2.44c-3.73-.49-7.24-1.66-10.43-.02q-6.27 3.22-7.82 9.85c-5.13 21.89.96 41.23 16.35 56.96q13.33 13.62 26.45 27.44c12.26 12.9 25.89 27.36 44.13 29.72 1.25.16 2 .86 1.71 2.15q.29 4.68-.97 9.06c-1.85 6.44-8.69 1.26-12.13-.28-4.69-2.11-8.82-5.6-12.7-7.68-9.67-5.2-16.11-11.07-25.28-19.97q-5.78-5.61-8.18-13.4a.73.73 0 00-1.13-.38q-.67.49-1.11 1.4l-.94-.97a.65.64-37.3 00-.79-.1c-1.51.87 3.01 10.05 3.64 11.8q.81 4.45 3.88 7.87a1.4 1.38-67.3 01.35.87c.4 7.4 2.65 21.46 10.42 24.99q5.58 2.54 11.7 3.5c2.97.46 2.18 6.49 2.28 8.71a1.35 1.34 63.2 01-.29.89q-1.51 1.95-.82 4.31c-5.52 2.53-15.43-.94-20.54-3.5q-10.74-5.38-17.07-14.87-3.11-11.57-5.22-15.56-3.25-6.14-6.27-12.4c-2.04-4.22-5.37-7.81-7.7-12.15-.78-1.46-.76-3.33-1.42-4.99q-.58-1.42-.9.08l-.06.27-2.46-4.71.38-.29a.81.8 68.2 00.32-.75q-.36-3.21-2.75-5.31a1.36 1.33 17.9 01-.44-.84c-.08-.64-.2-1.37-.53-1.96q-4.12-7.2-7.06-14.94c-1.81-4.76-5.22-12.16-5.7-18.2q-.95-12.1-2.8-19.09-1.74-5.24.34-10.38 2.17-9.05 2.97-18.34.2-2.34 1.34-4.48a.58.58 0 01.72-.27l6.83 2.48a.5.5 0 00.66-.34q.06-.25-.03-.54l14.49 1.84q.57.07.06-.19c-9.14-4.89-21.47-7.64-25.83-18.52q-1.07-2.67-1.72-6.9-.72-4.76.47-9.28 2.63-5.62 6.69-10.25c1.18-1.34 4.02-5.12 5.61-5.74 1.25-.49 8.46-3.26 8.23-4.71q5.62-3 9.25 1.67z"/><path fill="#afafb0" d="M99.25 307.54c.23 1.45-6.98 4.22-8.23 4.71-1.59.62-4.43 4.4-5.61 5.74q-4.06 4.63-6.69 10.25.15-4.92 3.13-8.63 6.7-8.35 16.41-12.07.34-.13.99 0z"/><path fill="#fff" d="M108.5 309.21q4.76 3.85 1.66 9.01a.32.32 0 01-.54.01l-2.83-4.26a.99.98-20.5 00-.95-.43l-1.14.17a1.71 1.71 0 00-1.28 2.47c7.64 14.98 31.53 14.52 44.77 9.84 1.75-.63 2.43-1.69 1.6-3.46a1.27 1.25-3.2 00-.75-.66l-1.38-.46a.52.52 0 01-.3-.72l1.59-3.21a.56.56 0 01.83-.2q8.83 6.38 9.26 17.44l-.04.53a.51.5 4.5 01-.55.46q-.91-.08-1.11.83a1.64 1.55 74.8 01-.43.8c-15.57 15.11-51.18 15.47-66.27-.12-4.8-4.96-4.82-12.1-.88-17.48q6.68-9.13 18.74-10.56z"/><path fill="#afafb0" d="M382.49 326.21a.2.19 3.7 01.18-.15c13.55-.61 28.6-2.23 42.88-2.25a.45.43-86.5 01.43.5c-3.87 30.46-9.25 60.61-14.25 90.88-.36 2.15-.78 3.06-3.18 3.11q-20.8.48-41.58.66c-.81.01-1.54.33-2.28.61q-.46.18-.37-.31c2.84-15 6.5-29.81 8.92-44.9q3.87-24.13 9.25-48.15zm.96 2.39q-3.4 19.19-6.91 38.32c-2.98 16.22-5.26 32.71-7.92 49.1a.37.36 3.9 00.37.42l38.55-1.19a1.9 1.89 4.6 001.8-1.52q8.65-43.85 15.25-88.03a.63.62-86.9 00-.64-.72q-11.69.39-23.56 1.26c-4.14.3-10.37.1-15.56.99a1.69 1.69 0 00-1.38 1.37zM455.71 328.19a.57.57 0 01.48.51c1.74 22.05 2.8 44.2 4.69 66.26q2 23.35 3.42 46.78a.68.68 0 01-.67.72l-38.28.4a1.13 1.13 0 01-1.05-.68q-3.91-8.82-8.57-17.17-.43-.76-.03-2.98 5.07-28.49 8.33-57.25c.1-.94.66-2.05.75-2.78q2.62-20.48 6.1-36.96a.51.51 0 01.57-.4l24.26 3.55zm-2.23.93q-10.27-.85-20.36-2.9a.52.52 0 00-.62.45q-1.32 12.12-3.21 24.14c-3.77 23.93-6.8 47.94-9.68 72.02a.85.8 35.9 00.09.48l7.99 15.43a.98.97 75.6 00.88.53q14.25-.04 28.49-.4 2.35-.06 3.76-.63a.73.72 77.9 00.45-.7c-1.82-35.63-4.62-71.22-6.28-106.85a1.66 1.65-89 00-1.51-1.57z"/><path fill="#1e1d1c" d="M383.45 328.6a1.69 1.69 0 011.38-1.37c5.19-.89 11.42-.69 15.56-.99q11.87-.87 23.56-1.26a.63.62-86.9 01.64.72q-6.6 44.18-15.25 88.03a1.9 1.89 4.6 01-1.8 1.52l-38.55 1.19a.37.36 3.9 01-.37-.42c2.66-16.39 4.94-32.88 7.92-49.1q3.51-19.13 6.91-38.32zm-.63 38.95l-5.62 30.61q-.11.6.45.37 15.71-6.57 31.34-13.37c2.13-.92 2.61-1.78 2.95-3.97q1.31-8.46 4.39-23.12.54-2.56.62-4.05a.4.4 0 00-.48-.41q-2.42.51-3.19.88-14.68 6.96-30.03 12.55a.67.67 0 00-.43.51zM453.48 329.12a1.66 1.65-89 011.51 1.57c1.66 35.63 4.46 71.22 6.28 106.85a.73.72 77.9 01-.45.7q-1.41.57-3.76.63-14.24.36-28.49.4a.98.97 75.6 01-.88-.53l-7.99-15.43a.85.8 35.9 01-.09-.48c2.88-24.08 5.91-48.09 9.68-72.02q1.89-12.02 3.21-24.14a.52.52 0 01.62-.45q10.09 2.05 20.36 2.9zm-4.81 4.97l-13.85-1.5a.37.36-82.8 00-.4.32q-4.1 33.41-9.23 66.62-.53 3.43-.76 7.13a.56.56 0 00.56.59h27.75a.59.58 89 00.58-.61c-.86-23.92-2.85-47.88-3.84-71.68a.92.92 0 00-.81-.87zm2.9 77.12q-8.87-.92-17.57-.75l-9.48-.39a.58.58 0 00-.59.45c-.79 3.62-2.47 9.8-.8 13.25q3.09 6.38 6.5 12.58a.9.89-14.9 00.82.47l27.33-.83a.55.55 0 00.53-.59l-1.7-24.2a.64.63-6 00-.72-.58l-4.32.59z"/><path fill="#fff" d="M448.67 334.09a.92.92 0 01.81.87c.99 23.8 2.98 47.76 3.84 71.68a.59.58 89 01-.58.61h-27.75a.56.56 0 01-.56-.59q.23-3.7.76-7.13 5.13-33.21 9.23-66.62a.37.36-82.8 01.4-.32l13.85 1.5z"/><path d="M323.44 339.24l10.77 60.26-1.32-.64a1.2 1.14 5.1 01-.59-.67q-.95-2.83-1.35-8.17-.23-3.08-2.27-11.4c-2.69-11.01-3.73-22.5-5.25-33.72q-.03-.23-.88-2.64-.58-1.65.89-3.02z"/><path fill="#afafb0" d="M154.79 350.5q-3.02 4.14-7.54 6.54-.35-.05-.55-.33a.55.55 0 01.16-.8q4-2.41 7.17-5.83a.33.33 0 01.52.05l.24.37zM382.82 367.55a.67.67 0 01.43-.51q15.35-5.59 30.03-12.55.77-.37 3.19-.88a.4.4 0 01.48.41q-.08 1.49-.62 4.05-3.08 14.66-4.39 23.12c-.34 2.19-.82 3.05-2.95 3.97q-15.63 6.8-31.34 13.37-.56.23-.45-.37l5.62-30.61zm25.74 16.26q1.08-.62 1.41-2.32 1.32-6.78 5.31-23.22.49-1.99-.73-2.64a1.07 1.07 0 00-.92-.04q-7.91 3.33-15.61 7.1c-4.37 2.14-8.92 3.58-13.45 5.33a.99.98 84.4 00-.63.77l-4.22 25.42a1.15 1.14 81.4 001.64 1.21c4.58-2.27 9.87-3.57 14.31-5.65 1.72-.8 12.45-5.02 12.89-5.96z"/><path fill="#919495" d="M408.56 383.81c-.44.94-11.17 5.16-12.89 5.96-4.44 2.08-9.73 3.38-14.31 5.65a1.15 1.14 81.4 01-1.64-1.21l4.22-25.42a.99.98 84.4 01.63-.77c4.53-1.75 9.08-3.19 13.45-5.33q7.7-3.77 15.61-7.1a1.07 1.07 0 01.92.04q1.22.65.73 2.64-3.99 16.44-5.31 23.22-.33 1.7-1.41 2.32z"/><path fill="#fafde0" d="M91.25 361.29q.09.29.03.54a.5.5 0 01-.66.34l-6.83-2.48a.58.58 0 00-.72.27q-1.14 2.14-1.34 4.48-.8 9.29-2.97 18.34.38-12.63 3.37-24.79a.37.36-67.4 01.54-.23q4.01 2.44 8.58 3.53z"/><path fill="#fff" d="M225.66 413.62q-3.64.69-7.28 1.51c-7.84 1.77-18.1 1.3-24.56 1.19q-8.39-.15-14.94 3.89c-7.28 5.26-11.34 11.95-12.4 20.55-1.24 9.93 4.22 25.84 12.21 32.38 6.63 5.42 12.36 9.89 12.77 18.86l-.75-.25c.29-1.29-.46-1.99-1.71-2.15-18.24-2.36-31.87-16.82-44.13-29.72q-13.12-13.82-26.45-27.44c-15.39-15.73-21.48-35.07-16.35-56.96q1.55-6.63 7.82-9.85c3.19-1.64 6.7-.47 10.43.02q8.92 1.16 17.93-2.44 6.62-1.79 12.8-4.77a.75.75 0 01.82.12c3.48 3.08 9.06 7.21 10.78 11.57 3.03 7.68 4.99 12.49 12.97 16.33 11.22 5.4 25.12 7.05 35.16 9.31 3.57.8 11.47.49 14.4 4.47q4.48 6.09.48 13.38z"/><path d="M72.54 373.25l.55.07a.53.52-80.4 01.44.63q-.47 2.16-1.07 4.3c-1.01 3.63-1.09 7.32-2.1 11.02-1.71 6.29-2.6 13.07-2.77 19.51-.14 5.26-1 10.76-.75 15.64.55 10.3 2.78 19.7 5.05 29.89q.44 1.95 1.91 5.14c.65 1.43 3.11 6.69.49 7.3-5.21-13.65-8.66-28.12-8.68-42.74-.02-16.59 1.8-35.54 6.93-50.76z"/><path fill="#afafb0" d="M519.75 394.96q-1.17-.4-1.35-1.61a.78.78 0 00-.53-.63c-1.32-.42-2.56-.94-3.98-.95q-11.68-.01-23.31-1.06c-6.38-.57-13.79 0-20.73-1.02a1.19 1.19 0 00-1.36 1.24c.54 9.8.99 19.67 2.03 29.42.39 3.55-.02 7.29.22 10.72q.22 3.05.07 6.14a.63.63 0 00.45.64q2.46.73 3.99.54 5.71-.71 11.27.38-7.98.86-16.09.32a.6.6 0 01-.55-.56l-3.02-49.77a.53.52-7.5 01.43-.55q2.06-.41 4.22-.26 9.69.72 19.38 1.47c11.94.93 26.8 1.24 40.19 2.58a.65.64-89.5 01.58.6l.12 1.87a.58.58 0 01-.59.62l-11.44-.13z"/><path fill="#919495" d="M519.75 394.96l-2.68.33a1.32 1.31 16.2 00-.88.48q-1.41 1.72-.61 3.69a.86.86 0 00.79.55l15.97.26a.81.79 81.1 01.74.55l.72 2.07a.55.55 0 01-.52.73q-7.21.02-14.41.14c-2.73.04-4.09 1.49-3.1 4.13a.78.78 0 00.68.5c5.6.35 11.76-.13 17.88.53a.74.73-89.6 01.66.68l.18 2.23a.64.63-.3 01-.69.69q-8.74-.61-17.47.19a.86.85 6.9 00-.73.57q-.77 2.13.15 4.59 4.5 2.19 8.89.43 4.77-.68 9.68.16.38 9.53-.75 19l-47.73 1.31q-5.56-1.09-11.27-.38-1.53.19-3.99-.54a.63.63 0 01-.45-.64q.15-3.09-.07-6.14c-.24-3.43.17-7.17-.22-10.72-1.04-9.75-1.49-19.62-2.03-29.42a1.19 1.19 0 011.36-1.24c6.94 1.02 14.35.45 20.73 1.02q11.63 1.05 23.31 1.06c1.42.01 2.66.53 3.98.95a.78.78 0 01.53.63q.18 1.21 1.35 1.61z"/><path fill="#afafb0" d="M78.42 393.16q1.85 6.99 2.8 19.09c.48 6.04 3.89 13.44 5.7 18.2q2.94 7.74 7.06 14.94c.33.59.45 1.32.53 1.96a1.36 1.33 17.9 00.44.84q2.39 2.1 2.75 5.31a.81.8 68.2 01-.32.75l-.38.29c-7.58-13.46-15.29-28.52-16.89-42.86q-1.03-9.17-1.69-18.52z"/><path fill="#919495" d="M434 410.46c-1.01.03-5.86-.21-6.3.44a.38.38 0 00.25.59c2.63.47 5.67.04 7.71.07q7.93.12 15.91-.35l4.32-.59a.64.63-6 01.72.58l1.7 24.2a.55.55 0 01-.53.59l-27.33.83a.9.89-14.9 01-.82-.47q-3.41-6.2-6.5-12.58c-1.67-3.45.01-9.63.8-13.25a.58.58 0 01.59-.45l9.48.39z"/><path fill="#afafb0" d="M434 410.46q8.7-.17 17.57.75-7.98.47-15.91.35c-2.04-.03-5.08.4-7.71-.07a.38.38 0 01-.25-.59c.44-.65 5.29-.41 6.3-.44z"/><path fill="#919495" d="M225.66 413.62q-.32 2.54-2.01 3.6-4.58 2.51-9.34 4.64-2.39 1.08-5.36 1.24-4.76.25-9.5.9-6.26-1.16-12.45-3.54.99-.38.9-1.11a.72.7 1.7 00-.59-.61q-3.59-.6-6.43 1.53-.82 1.11-2-.06 6.55-4.04 14.94-3.89c6.46.11 16.72.58 24.56-1.19q3.64-.82 7.28-1.51z"/><path fill="#afafb0" d="M223.65 417.22c-5.03 7.87-15.95 8.96-24.2 6.78q4.74-.65 9.5-.9 2.97-.16 5.36-1.24 4.76-2.13 9.34-4.64zM516.43 417.87l8.89.43q-4.39 1.76-8.89-.43z"/><path fill="#fafde0" d="M535 418.46q.3-.06.56.02a.76.76 0 01.55.73l-.1 17.3a1.03 1.03 0 01-.51.89q-.55.33-1.25.06 1.13-9.47.75-19zM187 420.46l-6.12-.19q2.84-2.13 6.43-1.53a.72.7 1.7 01.59.61q.09.73-.9 1.11z"/><path fill="#919495" d="M534.75 440.54q1.06 5.72-.2 11.39a.5.5 0 01-.57.39q-1.39-.26-1.98 1.14c-32.53 2.64-65.92 4.23-101.85 6.82a.6.6 0 01-.65-.6v-9.87a.66.66 0 01.65-.66q17.39-.18 34.7-.39c3.76-.04 5.77-1.69 5.4-5.53a.68.68 0 01.65-.75c21.2-.81 42.68-2.64 63.85-1.94z"/><path fill="#fafde0" d="M532 453.46q.59-1.4 1.98-1.14a.5.5 0 00.57-.39q1.26-5.67.2-11.39.37-.27.73-.21a.62.61-85.7 01.52.61v12.07a.58.58 0 01-.6.58l-3.4-.13z"/><path fill="#919495" d="M423.96 459c-2.21-.05-18.71-1.18-18.71 1.29l-10.31.14a.31.3-55.6 01-.11-.59l27.92-10.66a.91.91 0 011.23.85l-.02 8.97zM88.43 477.14q-6.68-8.87-8.57-20.18a.5.5 0 01.81-.47q6.13 5.04 13 8.89c2.18 1.22 3.1 2.64 4.24 4.7q6.45 11.64 12.22 24.04a.52.52 0 01-.78.63c-7.22-5.38-15.87-10.91-20.92-17.61z"/><path fill="#afafb0" d="M121.03 504c-4.23-8.09-7.21-16.69-11.44-24.8-2.53-4.84-6.29-9.96-9.32-15.05a1.5 1.49 31.6 01-.22-.91q.13-2.08-.59-3.99l.06-.27q.32-1.5.9-.08c.66 1.66.64 3.53 1.42 4.99 2.33 4.34 5.66 7.93 7.7 12.15q3.02 6.26 6.27 12.4 2.11 3.99 5.22 15.56zM423.96 459q.15.59-.08 1.04a.86.86 0 01-.76.46l-17.87-.21c0-2.47 16.5-1.34 18.71-1.29zM190.71 491.75l.75.25c1.07 4.12.03 15.54-6.57 13q-18.71-7.2-33.93-20.22c-7.52-6.45-16.72-14.21-21.75-24.28q.44-.91 1.11-1.4a.73.73 0 011.13.38q2.4 7.79 8.18 13.4c9.17 8.9 15.61 14.77 25.28 19.97 3.88 2.08 8.01 5.57 12.7 7.68 3.44 1.54 10.28 6.72 12.13.28q1.26-4.38.97-9.06z"/><path fill="#919495" d="M521.75 466.54q-4.59.91-9.25.67 4.55-1.15 9.25-.67z"/><path fill="#fff" d="M131.12 471.23c6.24 10.02 14.1 19.22 23.08 30.23 4.91 6.01 7.29 8.45 7.27 15.52q-.01 3.61-2.83 5.39-.69-2.36.82-4.31a1.35 1.34 63.2 00.29-.89c-.1-2.22.69-8.25-2.28-8.71q-6.12-.96-11.7-3.5c-7.77-3.53-10.02-17.59-10.42-24.99a1.4 1.38-67.3 00-.35-.87q-3.07-3.42-3.88-7.87z"/><path fill="#afafb0" d="M411.29 539.62c-4.79-4.28-6.4-22.65-6.71-28.96-.23-4.73 1.32-9.57 2.03-14.4 1.02-6.91 5.85-20.96 14.46-21.44q20.73-1.17 41.47-1.29c5.8-.04 11.94-.79 17.96-1a.24.24 0 01.25.25v.26a.19.18-1.7 01-.18.18c-6.9.18-13.58 1.25-20.49 1.45q-6.61.19-13.14.7c-9.71.75-17.69.31-29 1.72a1.31 1.3 17 00-.83.44c-9.94 11.41-12.27 26.06-10.53 40.8 1.18 9.97 1.63 17.72 9.15 24.27q.55.48-.15.7l-.44.14a.79.78-28 01-.83-.25c-1.05-1.26-1.7-2.4-3.02-3.57zM273.44 477.91q-4.03-.04-8.19.19a.32.32 0 01-.3-.45c.82-1.77 1.97-2.9 4.07-3.09q14.84-1.33 29.73-1.25 2.99.01 5.04-.19 1.66-.17.81 1.27c-1.34 2.27-2.12 3.59-5.06 3.61q-13.06.06-26.1-.09zM515.16 479.22l-6.21.48a.34.34 0 01-.34-.45q1.21-3.16 3.97-5.24a2.01 2 59.2 013.03.77l3.52 7.69q.89 1.95-.48.29l-2.61-3.17a1.06 1.05 67.3 00-.88-.37zM367.34 479.56a.38.38 0 01-.27-.65c1.73-1.71 3.23-2.92 5.87-2.94q20.3-.13 40.57-1.22a.3.3 0 01.28.44c-1.62 2.95-3.41 4.27-6.99 4.29q-19.7.11-39.46.08z"/><path fill="#919495" d="M262.19 488.81q-2.76-.03-4.61-.23a.45.45 0 01-.34-.67l3.34-5.67a1.49 1.45 5 01.78-.64q1.53-.53 3.14-.54 17.01-.13 34.1-.06a.63.63 0 01.55.94l-3.5 6.38a.88.86 13.5 01-.75.45q-13.49.23-32.71.04zM511.5 488.21q-.17-.84-.94-.79a1.08 1.07 15 00-.8.46q-3.47 4.96-2.72 10.89c.5 3.95 5.24 5.19 5.17 9.15a.6.6 0 01-.46.57q-15.64 3.61-31.02 8.22a.68.66-11.2 00-.48.7l.04.59q-9.63 3.33-19.7 4.34c-16.56 1.65-33.01 3.95-49.65 5.71a1.08 1.08 0 01-1.17-.9l-1.19-7.45a1.08 1.07-88.5 011.28-1.22q4.68.96 9.05-.76a1.4 1.39 2.1 00.77-.71q3.94-8.2.16-15.57c-1.44-2.8-7.34-1.86-10.09-2.05a.46.45 5.3 01-.43-.51q.53-4.3 2.31-8.22a1.18 1.17 5.8 01.8-.65q4.85-1.08 9.56-.48 10.74.56 21.34-1.29.53-.1.1-.44-.32-.26-.93-.09 20.22-1.87 67.68-5.57c3.84-.3 8.04-.04 6.69 5.37a.52.52 0 01-.61.38q-2.47-.53-4.76.32z"/><path fill="#afafb0" d="M407.53 484.93q-3.37-1-6.87-.93c-11.68.25-23.41-.33-35.1-.06q-.78.02-1.56-.23c.33-.53.52-.81 1.19-.81q21.39.09 42.81-.27a.36.36 0 01.33.51l-.8 1.79z"/><path fill="#919495" d="M364 483.71q.78.25 1.56.23c11.69-.27 23.42.31 35.1.06q3.5-.07 6.87.93c-.29 1.69-1.1 6.24-3.3 5.27q-.44-.19-.92-.19l-41.56.04a.53.53 0 01-.52-.61q.53-3.4 2.77-5.73z"/><path fill="#afafb0" d="M511.5 488.21q-4.88 6.67-.93 13.76 1.4 2.52 4.69 2 .82-.14.49.63l-1.9 4.35a1.14 1.13 4.4 01-.75.64L480.29 518l-.04-.59a.68.66-11.2 01.48-.7q15.38-4.61 31.02-8.22a.6.6 0 00.46-.57c.07-3.96-4.67-5.2-5.17-9.15q-.75-5.93 2.72-10.89a1.08 1.07 15 01.8-.46q.77-.05.94.79zM442.5 487.71q.61-.17.93.09.43.34-.1.44-10.6 1.85-21.34 1.29 10.24-1.59 20.51-1.82z"/><path fill="#919495" d="M530.76 490.43q-1.6 2.7-1.21 4.39 1.1 4.67-.24 9.3a.51.51 0 00.37.64q.42.1.78-.26-1.1 6.29-3.97 12.04a1.02 1.02 0 01-.71.55c-4.92.99-9.61 2.67-14.45 3.43q-9.77 1.55-23.59 4.94-9.66 2.37-38.74 8 .2-.23.25-.51a.56.56 0 00-.66-.64l-14.19 2.82a.48.48 0 00-.37.5q.04.46.26.87-13.16 3.65-17.02 3.84c-4.98.23.35-7.76 1.09-9.67a.82.81 6.4 01.67-.53q21.82-2.52 43.62-4.99c11.58-1.31 21.65-5.54 33.59-5.75q5.5-.1 11-.14c1.68-.02 3.93-.73 6.06-.13a1.08 1.05-53.7 00.9-.15c3.06-2.09 4.47-6.06 6.76-10.98q2.35.7 2.37-1.78.05-5.02 1.4-8.21a.48.47-70 00-.29-.64l-1.15-.37-.34-7.36a.57.56 88 01.55-.6c.81-.02 8.9-.86 7.26 1.39z"/><path fill="#fafde0" d="M516.21 492.25c-1.28.11-4.23.92-4-1.25q1.21-1.85 3.56-1.3a1.1 1.1 0 01.73.58q.45.91-.29 1.97z"/><path fill="#afafb0" d="M518.13 500.73a1 1 0 01-.71-1.03l.62-8.59a1.1 1.1 0 012.15-.23c.43 1.46 1.46 10.9-2.06 9.85zM530.76 490.43q1.29 7.19-.3 14.07-.36.36-.78.26a.51.51 0 01-.37-.64q1.34-4.63.24-9.3-.39-1.69 1.21-4.39zM512.21 491c-.23 2.17 2.72 1.36 4 1.25l-.67 4.23a.56.56 0 01-.63.46l-3.18-.48a.56.56 0 01-.48-.49q-.29-2.63.96-4.97z"/><path fill="#919495" d="M291.86 499.52c-12 .12-24.19-.76-36.12-.04a.45.44 2.1 01-.47-.5l.99-6.93a.7.7 0 01.69-.61l36.68.1a.51.51 0 01.49.62l-1.53 6.77a.75.75 0 01-.73.59zM387.13 500.79q-13.95-.08-27.97-.04a.66.65-1.4 01-.66-.62q-.19-3.5 1.22-6.72a.69.68 11.9 01.65-.42l43.66.58a.36.35 6.9 01.35.44l-1.54 6.47a.57.57 0 01-.51.43c-5.1.27-11.66-.1-15.2-.12z"/><path fill="#afafb0" d="M523.29 497l1.15.37a.48.47-70 01.29.64q-1.35 3.19-1.4 8.21-.02 2.48-2.37 1.78 1.72-5.37 2.33-11z"/><path fill="#fafde0" d="M412.46 504.75q-2.09 1.66-4.17 0c-.9-3.66 2.9-3.21 5.02-2.89a.37.37 0 01.28.53l-1.13 2.36z"/><path fill="#919495" d="M259.75 502.04q-1.79-.31-2.32.94a.34.33 10.7 00.32.46l17.38-.3a.13.12 90 00.12-.13v-.33a.41.4 90 00-.39-.4l-1.36-.07q8.66-.5 17.62.04l-.62 7.96-34.63-.7a.69.68 90 01-.67-.68l-.13-5.99a.65.65 0 01.62-.66l4.06-.14z"/><path fill="#afafb0" d="M259.75 502.04l13.75.17 1.36.07a.41.4 90 01.39.4v.33a.13.12 90 01-.12.13l-17.38.3a.34.33 10.7 01-.32-.46q.53-1.25 2.32-.94z"/><path fill="#fafde0" d="M291.12 502.25q1.73 3.8.84 7.44-.23.95-1.46.52l.62-7.96z"/><ellipse fill="#afafb0" transform="rotate(90.4 -44.17 461.37)" rx="6.42" ry="2"/><rect fill="#919495" x="-22.54" y="-3.96" transform="rotate(.6 -48273.212 36536.93)" width="45.08" height="7.92" rx=".81"/><path fill="#afafb0" d="M408.29 504.75q2.08 1.66 4.17 0l-.84 6.02a.66.65-77.7 01-.83.54l-2.17-.64a.84.83-80.8 01-.6-.84l.27-5.08zM508.45 514.9q-1.05-.97.38-1 3.03-.06 5.75-1.31a1.32 1.31-.8 00.66-.67l2.81-6.33q.77-1.72.41.13c-.8 4.2-3.07 15.53-10.01 9.18z"/><rect fill="#afafb0" x="-18.26" y="-.83" transform="rotate(1.4 -20897.29 11469.221)" width="36.52" height="1.66" rx=".8"/><path fill="#919495" d="M402.26 520.88c-14.46.01-28.9-.27-43.33-.7a.75.74 86.7 01-.71-.64l-.78-5.22a.5.5 0 01.51-.57l43.57 1.36a.78.77 86.9 01.74.67l.58 4.44a.59.58 86.5 01-.58.66z"/><ellipse fill="#fbe6ad" transform="rotate(73.2 -240.329 403.237)" rx="1.29" ry=".53"/><rect fill="#afafb0" x="-22.07" y="-.88" transform="rotate(1.2 -24937.513 18503.555)" width="44.14" height="1.76" rx=".26"/><path fill="#afafb0" d="M412.27 530.42l2.11.36a.4.4 0 01.3.55q-.71 1.78-2.43 2.56a.58.58 0 01-.82-.54l.02-2.25a.71.7 5 01.82-.68zM449 533.46l-14.71 3.04q-.22-.41-.26-.87a.48.48 0 01.37-.5l14.19-2.82a.56.56 0 01.66.64q-.05.28-.25.51z"/><path fill="#fff" d="M590.25 589.71l.75.35v.94h-1.06l-.23-.75.54-.54z"/><path fill="#fafde0" d="M0 589.94q.66.12 1.31.12 294.2.16 588.4.19l.23.75H0v-1.06z"/></svg>