<svg xmlns="http://www.w3.org/2000/svg" viewBox="0 0 591 591"><g stroke-width="2" fill="none"><path stroke="#101010" vector-effect="non-scaling-stroke" d="M589.81 0l.19.29"/><path stroke="#494a4c" vector-effect="non-scaling-stroke" d="M590 .29l.29 3.71"/><path stroke="#101010" vector-effect="non-scaling-stroke" d="M590.29 4v1"/><path stroke="#494a4c" vector-effect="non-scaling-stroke" d="M590.29 5l-.04 584.71"/><path stroke="#5a5a59" vector-effect="non-scaling-stroke" d="M590.25 589.71l-.46.32a1.18 1.16 27.1 01-.67.21q-291.53.02-583.06 0-3.03 0-6.06-.3"/><path stroke="#7d7e70" vector-effect="non-scaling-stroke" d="M585.49 5.52a.27.27 0 00-.27-.27H5.52a.27.27 0 00-.27.27v579.7a.27.27 0 00.27.27h579.7a.27.27 0 00.27-.27V5.52"/><path stroke="#6a6969" vector-effect="non-scaling-stroke" d="M590.44 591l.27-1.25"/><path stroke="#595a5b" vector-effect="non-scaling-stroke" d="M590.71 589.75l-.02-584.56a.15.15 0 00-.13-.15l-.27-.04M590.29 4q.96-1.72.27-3.58a.26.26 0 00-.29-.17l-.27.04"/><path stroke="#a2a4a5" vector-effect="non-scaling-stroke" d="M590.71 589.75l-.46-.04"/><path stroke="#faf0c4" vector-effect="non-scaling-stroke" d="M35 74.79q21.39-22.14 42.36-44.67 3.51-3.77 6.59-7.64a.47.46 17.8 00-.39-.75q-20.23.96-40.41 1.38-7.96.16-11.59 1.61C16.8 30.6 19.52 46.26 20.22 58.76q.51 9.26.26 28.27a.76.75-77.9 00.45.71q1.44.65 2.44-.59c3.44-4.21 8.35-8.97 11.63-12.36"/><path stroke="#7d7e70" vector-effect="non-scaling-stroke" d="M176.71 309.5c-.32-12.96-.51-26 .75-38.92q.85-8.66.79-13.7c-.1-8.91-1.38-18.27-.75-27.08a1.32 1.31-87.5 011.33-1.22l12.51.15q2.04.02 2.39-1.98c1.13-6.44 3.5-12.96 3.84-19.28.2-3.63.92-9.95-.61-13.22"/><path stroke="#8d8e7f" vector-effect="non-scaling-stroke" d="M196.96 194.25q-2.13-2.9-4.21-3.09c-10.49-.94-27.95-.46-41.94-1.96q-7.21-.78-14.43-1.38c-7.43-.63-18.16-2.57-27.48-2.54-1.09.01-2.94.57-3.86 1.19q-8.28 5.56-17.76 8.39c-10.99 3.28-20.9 7.53-31.19 12.54-5.09 2.47-10.3 4.1-16.02 6.17-7.9 2.87-7.6 7.95-7.6 15.99q0 5.27.42 11.24c.55 7.8 9.02 5.89 13.96 4.86a.85.85 0 011.02.76c1.15 15.16-.64 30.5-1.72 45.64-.64 8.93.69 17.62 1.62 26.44 2.56 24.29 2.46 49.33 2.52 73.75q.01 5.62 1.02 14.37c1.22 10.5 1.24 19.88 1.41 29.98a1.42 1.41 71 01-.55 1.14q-1.87 1.47-2.52 3.83a.77.77 0 01-1.4.21q-3.98-6.29-9.33-11.48a.65.65 0 00-1.1.49q.33 6.96 3.68 12.69 1.75 2.99-.23 5.85a.55.55 0 01-.73.16c-2.64-1.55-8.19-6.06-10.82-3.48a1.27 1.27 0 000 1.81l8.22 7.99a1.66 1.64 70.3 00.92.44c4.6.56 8.56 1.08 13.38.87 14.18-.61 28.28.76 42.34 2.44 3.2.38 5.95-.55 8.67-.76 15.3-1.17 34.16 3.26 51.67.58a1.74 1.71-37.4 01.96.12q3.11 1.31 5.87 1.28 14.66-.14 29.31.09 6.9.1 11.69 1.47a1.29 1.29 0 00.93-.08c1.42-.71 2.24-.92 3.92-.49q3.52.89 8.65.94 45.5.46 90.99.56c3.79.01 7.97-.7 12.01-.8q5.92-.15 8.98-.51 41.42-4.93 83.13-6.34c6.07-.21 13.13 1.01 19.58.57q18.59-1.26 42.96-4.21a.69.68 86.7 00.6-.68v-2.01a.54.54 0 01.51-.54q20.17-1.18 40.37-1.54c4.63-.08 10.35-1.01 15.94.34 3.89.94 6.51.99 9.95-.14q1.32-.43 3.03.83c4 2.93 8.78 1.54 12.61 1.53q6.23-.03 12.48-.58a.42.42 0 00.38-.38l.34-3.6a1.1 1.1 0 01.72-.94l6.97-2.57a.84.84 0 00-.1-1.6l-6.73-1.55q-.58-.13-.17-.56 3.19-3.3 7.63-6.29.58-.38.07-1.62"/><path stroke="#c6c8bb" vector-effect="non-scaling-stroke" d="M578.5 430.08q-3.68-1.54-6.25 1.63"/><path stroke="#8d8e7f" vector-effect="non-scaling-stroke" d="M572.25 431.71q-2 .64-3.33-.64a1.13 1.12 23.5 01-.35-.88q.05-.86.39-1.31"/><path stroke="#7d7e70" vector-effect="non-scaling-stroke" d="M568.96 428.88l.34-7.13a1.13 1.11 24.6 00-.33-.86c-3.83-3.89-5.94-4.28-6.2-10.39-1.43-33.24 2.46-66.31-.59-99.45-1.35-14.74-1.29-28.33-1.72-42.55"/><path stroke="#8d8e7f" vector-effect="non-scaling-stroke" d="M560.46 268.5c-.06-7.58.64-17.95-2.11-24.59-4.12-9.96-15.51-14.98-25.23-17.37-3.7-.91-6.2-3.2-10.87-3.11q-15.24.27-30.44 1.18c-9.07.55-9.57 12.23-11.24 18.59q-1.41 5.36-1.65 9.1c-.45 6.75.37 14.38.33 20.27q-.13 17.69 1 39.93c.35 6.79.25 16.27.62 24.25 1.49 32.3 3.19 64.67 3.11 97a.41.41 0 01-.73.25l-4.72-6.11a.75.74-30.1 00-.89-.23c-1.64.7.98 6.69 1.46 7.91a.59.59 0 01-.89.69q-4.26-3.01-7.43.83-.38.46-.51-.13c-.3-1.35 2.87-3.64 3.74-4.93a1.52 1.51-28.8 00.26-.88l-.16-6.13a.45.44 84.3 00-.51-.43l-2.6.37"/><path stroke="#7d7e70" vector-effect="non-scaling-stroke" d="M471 424.96c-.04-2.57.8-4.94.91-7.21q.61-12.29-.95-24.5"/><path stroke="#8d8e7f" vector-effect="non-scaling-stroke" d="M470.96 393.25q-2.79-17.04-2.74-25.5c.09-12.66.83-26.25-.72-38.79"/><path stroke="#7d7e70" vector-effect="non-scaling-stroke" d="M467.5 328.96q-.99-13.41-2.31-26.79c-1.34-13.6-.69-24.62 1.78-37.18q.32-1.6.32-3.24"/><path stroke="#8d8e7f" vector-effect="non-scaling-stroke" d="M467.29 261.75q2.58-20.59-6.57-38.95a.39.38 70.7 01.26-.56c2.37-.53 6.16-.52 7.89-2.21 2.34-2.28 2.16-7.73 2.29-12.36.26-9.86 2.96-21.54 2.56-29.17-.22-4.09.38-11.19-4.57-11.67q-10.18-.99-20.4-.5-7.64.37-21-1.06c-11.1-1.19-26.68-1.62-40-1.39q-32.17.55-64.32 1.86c-17.58.72-36.92.37-52.54.59-8.88.12-20.38-.88-30.57-.17-4.99.35-18.88 7.44-17.07 13.84 3.47 12.22 2.1 27.2 2.26 37.26q.04 2.46-1.99 3.31c-4.26 1.78-8.62 3.75-10.52 8.11q-4.43 10.19-10.41 19.58c-1.3 2.04-2.18 4.9-4.89 6.43-6.39 3.62-11.22 5.75-12.46 13.56-1.42 8.98-4.13 17.96-4.94 26.9-1.37 15.14-1.65 36 .44 53.46 1.82 15.12 3.84 29.36 5.28 45.35q1.48 16.34 4.16 33.18.31 1.99-1.52 1.17l-2.43-1.08a.89.88-79.6 01-.52-.76c-.32-8.59-1.61-17.57-1.96-25.59-.88-20.03-3.27-34.62-5.32-52.02-1.47-12.54-1.18-26.17-1.72-39.36"/><path stroke="#101010" vector-effect="non-scaling-stroke" d="M467.29 261.75l-.05-.64a.3.29 71.7 00-.45-.23l-.31.18a.58.57-10.8 00-.25.36c-2.53 11.83-5.04 26.19-3.13 38.23q.39 2.51.61 5.9.69 11.15 2.59 23.63a.37.36 67.3 00.58.24l.62-.46M470.96 393.25q-1.2-.11-1.15.82.49 9.86.74 19.75c.1 3.5-.53 6.95-.81 10.53a.63.63 0 00.47.66q.38.1.79-.05M560.46 268.5q-.23-.52-.81-.52a.77.77 0 00-.76.76c-.12 10.23.98 19.96 1.05 30.7.07 11.45 2.26 25.89 2.24 34.25-.02 14.29-1.27 29.82-1.39 42.12q-.09 8.34.05 35.94c.03 4.86 3.88 6.79 6.56 9.89a1.27 1.26 25.8 01.31.88q-.15 3.36 1.25 6.36"/><path stroke="#595a5b" vector-effect="non-scaling-stroke" d="M572.25 431.71l6.25-1.63"/><path stroke="#101010" vector-effect="non-scaling-stroke" d="M196.96 194.25q-.24-.19-.54-.14a.58.57-6.5 00-.49.61q.78 11.44-.15 15.59-1.77 7.93-3.43 15.92a.74.74 0 01-.59.58q-6.13 1.11-12.31.31c-2.42-.31-3.48.77-3.47 3.17.04 14.48.99 28.67-.22 43.15-1.03 12.38-.67 23.69-.79 35.62a.67.66-83.5 00.51.65q.63.14 1.23-.21"/><path stroke="#faf0c4" vector-effect="non-scaling-stroke" d="M33.19 334.69q-.7.61-.39 1.69a.41.41 0 00.8-.04l.31-1.7q.11-.64-.47-.36-.28.13-.25.41"/><path stroke="#6a6969" vector-effect="non-scaling-stroke" d="M232.71 189.25l.93 22.42a1.04 1.04 0 00.64.93c2.91 1.22 2.19-6.42 2.07-7.59-.81-7.99-2.03-16.45-1.1-24.47"/><path stroke="#595a5b" vector-effect="non-scaling-stroke" d="M235.25 180.54c1.4-4.79 9.37-4.61 13.43-4.55 18.14.26 33.11 1.46 44-.53 17.48-3.18 34.66.29 52.07 1.25"/><path stroke="#6a6969" vector-effect="non-scaling-stroke" d="M344.75 176.71q14.46 3.1 29.02.31"/><path stroke="#595a5b" vector-effect="non-scaling-stroke" d="M373.77 177.02q16.02-1.31 32.05-.33 3.04.18 14.76 1.81c14.67 2.05 29.96.83 44.86-.14a.89.88.7 00.83-.8q.56-5.24-5.04-5.25-16.52-.04-32.98 1.5c-2.97.28-7.9-1.53-11.03-1.89-12.78-1.45-26.89-.4-37.81-.55q-42.57-.55-101.41.68c-8.29.17-17.04 1.21-23.33 1.45-8.55.33-18.19-.4-23.19 6.3a1.45 1.42 62.3 00-.27.9q.19 4.42 1.5 8.55"/><path stroke="#a2a4a5" vector-effect="non-scaling-stroke" d="M373.77 177.02q-1.74-2.17-4.04-1.58-12.6 3.19-23.82-.15a.89.88 31.1 00-.87.21q-.5.46-.29 1.21M235.25 180.54l-.38-.02a.56.55-75.7 00-.53.32q-1.83 3.99-1.63 8.41"/><path stroke="#595a5b" vector-effect="non-scaling-stroke" d="M43.29 237.5c.33 0 .89.01 1.2-.13q12.67-5.93 25.25-9.38 7.01-1.92 12.26-3.95"/><path stroke="#6a6969" vector-effect="non-scaling-stroke" d="M82 224.04c10.18-2.75 20.02-5.26 29.26-10.57a.94.92-25.6 00.41-1.13c-.7-1.84-1.93-3.3-2.19-5.25q-.82-6.14-.4-12.39a.49.48-14.5 00-.75-.44q-8.4 5.48-17.96 8.2c-7.49 2.13-14.12 4.62-21.43 8.3-8 4.02-16.52 7-24.81 10.32-6.71 2.69-4.72 10.52-4.14 16.21a.74.73-85.5 00.54.64q1.38.38 2.76-.43"/><path stroke="#a2a4a5" vector-effect="non-scaling-stroke" d="M82 224.04q-.36-.02-.66-.25-.78-.62.18-.86c4.51-1.16 8.68-2.12 13.13-3.99q6.74-2.83 14.36-5.2a1.65 1.65 0 00.8-2.61q-2.9-3.64-2.75-8.85c.05-1.98-.6-3.05-1.93-4.31a.76.75 54.4 00-.83-.14c-2.19 1.04-4.05 2.58-6.06 3.48-4.77 2.14-10.17 2.99-14.46 4.65-3.95 1.53-8.5 2.81-12.16 4.93-2.28 1.32-4.03 2.63-6.59 3.41q-7.2 2.2-13.9 5.62c-2.84 1.44-10.48 1.81-10.29 5.91q.23 4.67.18 9.52a.98.97-71.9 00.39.78l1.88 1.37"/><path stroke="#6a6969" vector-effect="non-scaling-stroke" d="M273.71 217l-20.96 1.54"/><path stroke="#595a5b" vector-effect="non-scaling-stroke" d="M252.75 218.54q-4.97.6-10.47.17"/><path stroke="#6a6969" vector-effect="non-scaling-stroke" d="M242.28 218.71q-11.71 4.64-21.94 11.98a1.76 1.74 83.6 00-.59.75q-3.81 9.47-8.79 18.31"/><path stroke="#595a5b" vector-effect="non-scaling-stroke" d="M210.96 249.75q-2.45 4.94-6.21 8.96"/><path stroke="#6a6969" vector-effect="non-scaling-stroke" d="M204.75 258.71c-4.47 3.61-12.51 7.87-13.96 12.09q-1.89 5.52-2.25 16.71-.51 16.34-1.43 32.8"/><path stroke="#595a5b" vector-effect="non-scaling-stroke" d="M187.11 320.31l-.57 4.94"/><path stroke="#6a6969" vector-effect="non-scaling-stroke" d="M186.54 325.25q-.87 18.45 2.71 36.54"/><path stroke="#595a5b" vector-effect="non-scaling-stroke" d="M189.25 361.79l.05.79"/><path stroke="#6a6969" vector-effect="non-scaling-stroke" d="M189.3 362.58q.96 8.4 2 16.98c.14 1.2.07 3.22.54 4.79 1.58 5.29 1.93 11.19 2.54 16.67q.06.59.18.01.26-1.26-.02-3.59-1.79-14.72-1.92-35.88-.05-8.79-1.05-13.58"/><path stroke="#595a5b" vector-effect="non-scaling-stroke" d="M191.57 347.98c.54-5.83-.86-12.6-.1-19.71.6-5.57 2.99-10.79 4.74-16.27"/><path stroke="#6a6969" vector-effect="non-scaling-stroke" d="M196.21 312l3.79-15.71"/><path stroke="#595a5b" vector-effect="non-scaling-stroke" d="M200 296.29q1.26-3.7 1.4-7.51"/><path stroke="#6a6969" vector-effect="non-scaling-stroke" d="M201.4 288.78l2.35-15.24"/><path stroke="#595a5b" vector-effect="non-scaling-stroke" d="M203.75 273.54c3.1-7.45 4.03-12.95 10.5-18.75"/><path stroke="#6a6969" vector-effect="non-scaling-stroke" d="M214.25 254.79c3.94-3.71 9.85-7.48 12.48-12.16"/><path stroke="#595a5b" vector-effect="non-scaling-stroke" d="M226.73 242.63q6.15-5.99 11.11-13.11c3.23-4.63 11.28-5.57 16.45-6.02"/><path stroke="#6a6969" vector-effect="non-scaling-stroke" d="M254.29 223.5q21.17-.49 42.35-.97c3.15-.08 6.41-.65 9.69-.88a.4.4 0 00.35-.52q-.77-2.38-2.68-3.84"/><path stroke="#595a5b" vector-effect="non-scaling-stroke" d="M304 217.29l-1.96-.29"/><path stroke="#6a6969" vector-effect="non-scaling-stroke" d="M302.04 217q-1.29-.58-2.55-.12a.72.72 0 00-.48.72l.07 1.86"/><path stroke="#595a5b" vector-effect="non-scaling-stroke" d="M299.08 219.46q-1.09-.9-1.46-2.43a.66.65-4.7 00-.6-.5q-11.7-.55-23.31.47"/><path stroke="#a2a4a5" vector-effect="non-scaling-stroke" d="M299.08 219.46q.67.05.78.75a.58.58 0 01-.42.66c-6.98 1.91-13.01-.35-19.24.88-.5.1-.52-.01-.79-.32a.88.87-23.3 00-.76-.3c-8 .89-16.46.58-24.29 1.1a.55.54-3.7 00-.51.57q.03.5.44.7M226.73 242.63q-2.54.83-4.08 2.94c-2.44 3.33-6.25 5.58-9.47 8.43a.41.41 0 00.23.71l.84.08M203.75 273.54q-2.41.98-2.34 3.23.14 4.43-.47 6.21-.65 1.92.46 5.8M200 296.29q-.41-.71-1.02-.57a.8.79 88.4 00-.6.64c-.4 2.36-.98 4.36-1.19 6.85q-.35 4.18-1.88 8.12a.52.51-70 00.31.68q.31.1.59-.01M191.57 347.98q-.48-.56-.95-.7a.53.53 0 00-.69.57l.21 1.85a.21.2 78.1 01-.14.22l-.31.1a.37.37 0 01-.48-.3l-.69-4.59a1.79 1.72 53 01.11-.92q.4-.94-.34-1.64a.91.89 27.2 01-.27-.82q.55-2.82-.04-6.79-.52-3.46.1-9.45a.4.4 0 00-.47-.44l-1.07.18"/><path stroke="#a2a4a5" vector-effect="non-scaling-stroke" d="M187.11 320.31q2.23-1.53 1.88-3.96c-1.44-10 .17-22.36 1.09-32.49.2-2.18 1.75-14.22 3.18-15.12q6.46-4.05 12.15-9.14a.36.35 37.7 00-.08-.58l-.58-.31M210.96 249.75l.13.81a.35.34-32.9 00.63.13q2.78-4.11 4.53-8.05c1.33-2.99 3.8-6 4.13-9.75.18-1.97 6.29-4.77 7.98-5.7 4.26-2.33 7.47-5.95 13.2-6.38q1.24-.09.72-2.1M252.75 218.54c-.71 2.24 3.83 1.6 5.17 1.43a1.26 1.23-26.5 011 .32q.56.52 1.04-.13a1.06 1.04-71.4 01.81-.41l9.2-.17a1.42 1.41-67.2 00.95-.39l.38-.36a1.04 1.03-64.5 01.81-.29q1.6.1 1.6-1.54M302.04 217l-.59 3.46a.38.38 0 00.38.44l2.97-.03a.25.25 0 00.24-.33l-1.04-3.25M189.3 362.58q3.05-1.37 1.07-4.41a1.06 1.04-52.7 01-.11-.88c.28-.85.85-6.42-.91-6a.65.65 0 00-.49.72l1.24 8.82a.82.82 0 01-.33.78q-.27.2-.52.18"/><path stroke="#8d8e7f" vector-effect="non-scaling-stroke" d="M313.14 234.32c.09 2.44-.79 5.07-.67 7.43.63 12.48 2.64 26.7 3.53 40.79 1.1 17.6 1.74 35.18 2.54 52.8.92 20.07-.3 40.08-.53 60.17-.03 2.41.39 5.84 1.49 8.04q3.98 8.04 4.49 17.47.11 1.97 1.39.47c.91-1.08 1.46-2.27 1.52-3.85.45-12.19.87-23.68-.28-36.14q-2.93-31.53-2.87-42 .13-22.97.38-45.94c.08-7.26.54-13.33 7.86-14.44 2.34-.35 11.26-1.15 12.62-2.53 1.45-1.46 1.82-32.92 1.97-37.29.19-5.67 4.62-13.72 6.71-19.21a.86.85-78.8 00-.77-1.16q-6.7-.19-13.58-.33c-8.4-.17-17.71-1.15-26.7-1.41a1.26 1.25-6.1 00-1.26 1.55q1.87 7.6 2.16 15.58"/><path stroke="#6a6969" vector-effect="non-scaling-stroke" d="M398 219.21q-4.53-.01-9.04 1.25"/><path stroke="#595a5b" vector-effect="non-scaling-stroke" d="M388.96 220.46q-9.52.81-19.18.97-4.33.08-6.38 1.15c-6.29 3.28-9.7 12.85-10.31 19.18q-1.55 15.9-1.5 31.84c.02 7.9 1.08 20.32.78 30.58q-.07 2.33-.58 4.57"/><path stroke="#101010" vector-effect="non-scaling-stroke" d="M351.79 308.75q.11-.85-.26-1.36a.49.49 0 00-.87.21c-1.22 7.22-2.69 14.4-2.77 21.61q-.19 15.66 1.58 27.79 1.43 9.72 1.41 14.86a.55.54-88.3 00.51.55q.56.03 1.07-.16"/><path stroke="#595a5b" vector-effect="non-scaling-stroke" d="M352.46 372.25q1.63 11.33.87 22.77a.19.18 1.2 00.2.2c1.98-.07.9-32.59.85-35.79-.17-12.05.97-24.92 1.33-37.43"/><path stroke="#6a6969" vector-effect="non-scaling-stroke" d="M355.71 322l.25-3.25"/><path stroke="#595a5b" vector-effect="non-scaling-stroke" d="M355.96 318.75c1.73-12.11 4.19-24.02 5.04-36.25q1.12-16.12 1.96-32.25"/><path stroke="#6a6969" vector-effect="non-scaling-stroke" d="M362.96 250.25c1.05-6.55 5.04-12.75 7.83-18.75"/><path stroke="#595a5b" vector-effect="non-scaling-stroke" d="M370.79 231.5q2.18-1.91 4.47-2.04 12.9-.72 23.82-4.58c3.8-1.34 10.02-1.46 13.93-1.3 14.12.59 28.85 3.69 42.01 1.87a1.66 1.66 0 00.87-2.89c-3.04-2.69-12.96-2.88-17.14-2.88q-15.72.01-31.41-.81c-3.24-.17-6.21.05-9.34.34"/><path stroke="#a2a4a5" vector-effect="non-scaling-stroke" d="M370.79 231.5l-.17-.61a.3.3 0 00-.55-.05c-3.18 6.39-6.72 12.12-8.3 19.12a.45.45 0 00.41.55q.5.04.78-.26M355.96 318.75q-1.5.64-1.06 2.62a.69.68 4 00.44.5l.37.13"/><path stroke="#494a4c" vector-effect="non-scaling-stroke" d="M352.46 372.25q-1.36-16.14-3.02-32.25c-1.2-11.66 1.13-21.07 2.35-31.25"/><path stroke="#a2a4a5" vector-effect="non-scaling-stroke" d="M388.96 220.46q4.93.69 9.86-.19c.42-.07.39-.03.47-.44a.47.47 0 00-.44-.56l-.85-.06"/><path stroke="#908f8f" vector-effect="non-scaling-stroke" d="M102.79 253.5q-.76 4.63-1.12 9.31c-.27 3.6.72 7.02 1.12 10.69"/><path stroke="#595a5b" vector-effect="non-scaling-stroke" d="M102.79 273.5c-.05 10.92-2.1 25.08.17 38.75"/><path stroke="#908f8f" vector-effect="non-scaling-stroke" d="M102.96 312.25V318"/><path stroke="#595a5b" vector-effect="non-scaling-stroke" d="M102.96 318l-.25-.72q-.19-.56-.19.03.32 22.52 1.62 45c.09 1.51.73 3.09.9 4.69"/><path stroke="#908f8f" vector-effect="non-scaling-stroke" d="M105.04 367q-.21 7.4.67 14.75"/><path stroke="#101010" vector-effect="non-scaling-stroke" d="M105.71 381.75q-1.48.03-1.38 1.26c1.15 14.11.6 28.31.44 42.45-.06 5.18 1.09 10.82 1.4 15.3q.28 3.96 2.64 2.54"/><path stroke="#6a6969" vector-effect="non-scaling-stroke" d="M108.81 443.3c1.24 1.65 3.42 8.14 5.19 8.24"/><path stroke="#595a5b" vector-effect="non-scaling-stroke" d="M114 451.54l4.5.42"/><path stroke="#6a6969" vector-effect="non-scaling-stroke" d="M118.5 451.96q10.8-.19 21.05 1.56a1.08 1.07-85 001.25-1.06l.16-17.96"/><path stroke="#595a5b" vector-effect="non-scaling-stroke" d="M140.96 434.5q.34-5.64.48-16.44.05-4.09-1.26-7.29"/><path stroke="#6a6969" vector-effect="non-scaling-stroke" d="M140.18 410.77q-.21-12.8-2.72-25.27"/><path stroke="#595a5b" vector-effect="non-scaling-stroke" d="M137.46 385.5c-.38-7.81-2.61-16.15-3.18-22.78q-1.66-19.51-.45-39.05c.44-7.09.03-12.99-.62-19.67"/><path stroke="#6a6969" vector-effect="non-scaling-stroke" d="M133.21 304q.45-15.73-.88-31.53"/><path stroke="#595a5b" vector-effect="non-scaling-stroke" d="M132.33 272.47q.49-4.38-.79-8.72"/><path stroke="#908f8f" vector-effect="non-scaling-stroke" d="M131.54 263.75l-.98-12.74"/><path stroke="#595a5b" vector-effect="non-scaling-stroke" d="M130.56 251.01l-1.85-23.51"/><path stroke="#6a6969" vector-effect="non-scaling-stroke" d="M128.71 227.5q-.03-.65-.38-1.17a.67.67 0 00-.78-.26q-7.76 2.63-15.53 5.26c-4.56 1.54-9.3 1.03-9.48 7.17q-.22 7.51.25 15"/><path stroke="#a2a4a5" vector-effect="non-scaling-stroke" d="M128.71 227.5q-.22 1.02-1.01 1.04a1.16 1.12-22 01-.84-.34q-.73-.76-1.89-.28-8.57 3.53-17.48 6.04-2.21.62-3.29 1.56a1.12 1.1 69.8 00-.38.84q0 7.16-.09 14.24c-.01.69.33 1.04 1.02.94"/><path stroke="#d9d9d9" vector-effect="non-scaling-stroke" d="M104.75 251.54l-1.96 1.96"/><path stroke="#c8cacb" vector-effect="non-scaling-stroke" d="M130.56 251.01q-1.16-3.28-3.86-5.09a.73.72-46.2 00-.83.02c-6.53 4.78-4.72 19.14-2.62 25.59 1.74 5.33 6.08 1.51 6.89-1.75q.74-3 1.4-6.03"/><path stroke="#a2a4a5" vector-effect="non-scaling-stroke" d="M132.33 272.47q-.13 15.33-.28 30.61c-.01.83.31 1.15 1.16.92M137.46 385.5q-.21-.16-.26-.43a.37.36 85.4 00-.36-.31l-.37-.01a.14.14 0 00-.14.16l3.85 25.86M140.96 434.5l-.3-1.37a.57.56-6.8 00-.57-.44c-1.07.04-.73 17.08-.69 18.86a.48.47 2.2 01-.52.48q-9.73-.98-19.38-1.31-1.11-.03-1 1.24M114 451.54l.53-.04q.8-.06.12-.48l-.54-.34a1.4 1.39-82.3 01-.6-.79c-.58-2.01-1.8-8.02-4.8-7.14"/><path stroke="#494a4c" vector-effect="non-scaling-stroke" d="M108.71 442.75q-1.71-2.26-1.17-5"/><path stroke="#c8cacb" vector-effect="non-scaling-stroke" d="M107.54 437.75c2.81 1.62 4.71 2.48 6.09-1.21 2.4-6.45 3.07-19.61-2.98-24.99a.55.55 0 00-.7-.02l-3.41 2.72"/><path stroke="#494a4c" vector-effect="non-scaling-stroke" d="M106.54 414.25q-.36-4.97-.12-9.94c.29-5.82-.26-11.51.12-17.31"/><path stroke="#c8cacb" vector-effect="non-scaling-stroke" d="M106.54 387q2.15 1.89 4.63.55a1.26 1.25-4.7 00.58-.68q4.53-12.64-.79-24.75a1.87 1.87 0 00-3.02-.58q-1.92 1.9-2.9 5.46M102.96 318l3.3 10.51a1.33 1.33 0 002.29.45c4.47-5.36 3.94-15.69 2.29-21.99q-.73-2.83-2.34-4.34a1.64 1.64 0 00-2.69.7l-2.85 8.92M102.79 273.5l2.71 3.81a.48.48 0 00.7.09c5.16-4.34 6.14-24.22.51-27.51a.62.62 0 00-.8.16l-1.16 1.49"/><path stroke="gray" vector-effect="non-scaling-stroke" d="M106.54 387l-.83-5.25M106.54 414.25q-1.15 11.82 1 23.5"/><path stroke="#5a5a59" vector-effect="non-scaling-stroke" d="M108.71 442.75l.1.55"/><path stroke="#6a6969" vector-effect="non-scaling-stroke" d="M503.25 228.96l-9.98 2.86a1.63 1.57-77.8 00-.8.54c-3.96 4.86-4.9 11.13-5.26 17.39"/><path stroke="#595a5b" vector-effect="non-scaling-stroke" d="M487.21 249.75q-1.09 8.17.04 16.26"/><path stroke="#6a6969" vector-effect="non-scaling-stroke" d="M487.25 266.01c-.04 15.8 1.88 32.15 2.24 46.98q.79 31.76 1.55 63.51"/><path stroke="#595a5b" vector-effect="non-scaling-stroke" d="M491.04 376.5q.29 17.8 2.17 35.5"/><path stroke="#6a6969" vector-effect="non-scaling-stroke" d="M493.21 412l.53 24.77a.76.76 0 00.47.69q1.7.71 3.54.33"/><path stroke="#595a5b" vector-effect="non-scaling-stroke" d="M497.75 437.79l3.75-.08"/><path stroke="#6a6969" vector-effect="non-scaling-stroke" d="M501.5 437.71l.49-.01a.66.65-81.9 00.61-.47l1.52-5.05"/><path stroke="#595a5b" vector-effect="non-scaling-stroke" d="M504.12 432.18c1.15-2.28 10.81-17.06 12.84-16.25a.44.44 0 01.24.55l-.8 2.21"/><path stroke="#6a6969" vector-effect="non-scaling-stroke" d="M516.4 418.69q-3.48 5.03-6 10.77a.81.81 0 00.94 1.11q2.13-.54 3.16-2.48a1.36 1.34-84.9 01.73-.62l1.52-.51"/><path stroke="#595a5b" vector-effect="non-scaling-stroke" d="M516.75 426.96l2.17-.07a.58.58 0 01.6.53q.18 2.13-1.63 3.25a1.2 1.2 0 00.24 2.15q1.91.66 4.37-.11"/><path stroke="#6a6969" vector-effect="non-scaling-stroke" d="M522.5 432.71q4.62-.46 5.61 3.64a.66.66 0 001.27.04c1.06-3.37.5-6.08.31-9.47q-.8-14.18-2.15-28.47"/><path stroke="#595a5b" vector-effect="non-scaling-stroke" d="M527.54 398.45c-.16-12.42-2.49-25.07-3.58-37.49-.58-6.68-.58-13.92-.83-20.89-1.18-33.08.39-66.17-1.03-99.31-.54-12.85-8.39-13.66-18.85-11.8"/><path stroke="#a2a4a5" vector-effect="non-scaling-stroke" d="M527.54 398.45q-.96 6.47-.4 12.96a1.24 1.2-65.9 00.21.58c1.35 1.92 1.07 17.11 1.07 20.48a.4.39 6.9 01-.49.38c-1.34-.32-4.58-2.14-5.43-.14M516.75 426.96q-.87-1.49-2.4-.6-.55.32-.48-.31l.15-1.21a1.35 1.34 73.9 01.5-.91q2.56-2.07 1.88-5.24M504.12 432.18q-2.38 2.18-2.62 5.53M497.75 437.79q-.77-1.21-2.16-1.68a.92.9-85.9 01-.61-.72q-.3-1.79.28-3.54a1.7 1.67-46.1 00-.01-1.03c-1.01-2.92-.33-6.07-.4-8.26q-.19-6.39.02-12.76a.38.38 0 00-.58-.34q-1.39.82-1.08 2.54M491.04 376.5l.14.27a.86.86 0 00.69.46l.44.03a.22.21-87.6 00.23-.22c-.09-4.78-.47-9.41-.36-14.25.25-10.84-1.15-22.01-1.2-32.27q-.1-17.81-1.49-35.58c-.14-1.76.19-4-.19-6.03-1.32-6.97-.63-14.99-.9-22.16q-.02-.56-1.15-.74M487.21 249.75c.06.99-.4 3.14 1.26 3.03a.54.54 0 00.51-.55c-.07-7.67-.6-13.1 5.05-19.04a1.53 1.5-72.1 01.84-.44c1.33-.23 9.18-2.17 9.16-3.33a.43.43 0 00-.38-.42l-.4-.04"/><path stroke="#6a6969" vector-effect="non-scaling-stroke" d="M55.29 250.75c.45 14.24-1.03 28.58-2.23 42.75q-.79 9.31 1.86 25.08"/><path stroke="#595a5b" vector-effect="non-scaling-stroke" d="M54.92 318.58l1.29 16.92"/><path stroke="#908f8f" vector-effect="non-scaling-stroke" d="M56.21 335.5l.33 4.25"/><path stroke="#6a6969" vector-effect="non-scaling-stroke" d="M56.54 339.75l.26 18.8"/><path stroke="#595a5b" vector-effect="non-scaling-stroke" d="M56.8 358.55l.66 8.95"/><path stroke="#6a6969" vector-effect="non-scaling-stroke" d="M57.46 367.5q-.17 16.21.98 32.36.93 13.11 1.13 19.3c.21 6.87.8 14.09.46 20.93q-.12 2.44 1.86 3.5"/><path stroke="#595a5b" vector-effect="non-scaling-stroke" d="M61.89 443.59l3.83-.12a1.07 1.05-21.3 01.84.36c3.12 3.49 8.42 3.42 14.44 4.05 2.43.25 4.72-.16 4.61-3.06q-.57-15.69-.06-26.75c.86-18.63-.72-34.83-2.57-55.28-.87-9.63-.93-20.83-1.92-31.26"/><path stroke="#6a6969" vector-effect="non-scaling-stroke" d="M81.06 331.53q.7-16.58-.6-33.03"/><path stroke="#595a5b" vector-effect="non-scaling-stroke" d="M80.46 298.5q.29-5.56-.62-11.06"/><path stroke="#908f8f" vector-effect="non-scaling-stroke" d="M79.84 287.44l-.13-14.69"/><path stroke="#595a5b" vector-effect="non-scaling-stroke" d="M79.71 272.75q.4-1.97.34-4-.39-13.41-.66-27.32a1.12 1.12 0 00-1.14-1.1c-4.37.08-23.02 4.17-22.96 10.42"/><path stroke="#c8cacb" vector-effect="non-scaling-stroke" d="M79.71 272.75q-1.64-1.05-2.32-3.17a2 1.99 68.4 00-2.75-1.19c-4.82 2.28-2.07 21.28-.86 25.58a1.08 1.08 0 001.73.53l3.34-2.79a1.03 1.03 0 00.37-.87q-.1-1.73.62-3.4"/><path stroke="#a2a4a5" vector-effect="non-scaling-stroke" d="M80.46 298.5q-.84 2.87-.61 5.81c.56 6.95.61 13.96.15 20.91q-.22 3.26 1.06 6.31M61.89 443.59q-.55-2.84-.74-9.84c-.31-11.51.19-20.51-1.11-30.39-.9-6.78.07-11.85-.35-17.59-.47-6.4-.47-12.77-1.01-19.17a.42.41 87.6 00-.4-.37c-.8-.03-.87.67-.82 1.27M56.8 358.55q8.41-2.38 19.21-4.51.85-.17.95-.85a.39.38-82.9 00-.34-.44l-.37-.04"/><path stroke="#595a5b" vector-effect="non-scaling-stroke" d="M76.25 352.71q3.57.1 3.59-2.75a.5.5 0 00-.51-.5l-6.05.15"/><path stroke="#a2a4a5" vector-effect="non-scaling-stroke" d="M73.28 349.61q-5.92-.38-11.72.94c-4.72 1.07-2.35-3.94-1.56-5.76"/><path stroke="#c8cacb" vector-effect="non-scaling-stroke" d="M60 344.79c4.87-5.31 4.38-19.9.09-25.5a.42.42 0 00-.65-.02c-3.89 4.47-3.28 10.73-3.23 16.23"/><path stroke="#a2a4a5" vector-effect="non-scaling-stroke" d="M54.92 318.58q1.02-4.84.36-9.69c-1.72-12.51-.9-24.99 1.01-37.45.29-1.87 1.23-3.21 1.2-5.07q-.15-7.55-.56-15.09a.54.54 0 00-.54-.52l-1.1-.01"/><path stroke="#d9d9d9" vector-effect="non-scaling-stroke" d="M60 344.79q-1.81-1.52-2.45-3.77a1.67 1.67 0 00-.5-.81l-.51-.46"/><path stroke="#6a6969" vector-effect="non-scaling-stroke" d="M73.28 349.61l-13.53 2.42a.73.72 89.5 00-.59.61q-.27 1.73.61 3.23a.86.86 0 00.93.4l15.55-3.56"/><path stroke="#908f8f" vector-effect="non-scaling-stroke" d="M427.8 265.37q10.82 4.94 17.04-2.48c4.36-5.22 4.73-11.94.16-17.18"/><path stroke="#595a5b" vector-effect="non-scaling-stroke" d="M445 245.71q-2.67-2.71-6.21-3.9"/><path stroke="#6a6969" vector-effect="non-scaling-stroke" d="M438.79 241.81q-3.18-1.69-6.88-.41c-11.02 3.81-12.68 16.37-4.11 23.97"/><path stroke="#a2a4a5" vector-effect="non-scaling-stroke" d="M438.79 241.81q-10.86-.88-14.69 8.31c-1.69 4.04.12 8.05 2.34 11.44a.63.63 0 00.76.24q.61-.23 1.01-.8"/><path stroke="#d9d9d9" vector-effect="non-scaling-stroke" d="M428.21 261q.39 1.73-.41 4.37"/><path stroke="#c8cacb" vector-effect="non-scaling-stroke" d="M445 245.71c-8.15 4.16-15.58 4.77-16.79 15.29"/><path stroke="#908f8f" vector-effect="non-scaling-stroke" d="M272.84 278.32q10.68 5.14 16.85-2.03c5.5-6.39 5.11-14.85-2.19-19.83"/><path stroke="#595a5b" vector-effect="non-scaling-stroke" d="M287.5 256.46c-11.41-8.45-24.8 4.79-18.96 16.25q1.57 3.1 4.3 5.61"/><path stroke="#c8cacb" vector-effect="non-scaling-stroke" d="M287.5 256.46l-1.2 1.6a1.49 1.48 10 01-.79.55c-8.68 2.56-13.51 6.78-12.1 16.59.18 1.26-.19 1.92-.57 3.12"/><path stroke="#908f8f" vector-effect="non-scaling-stroke" d="M213.71 277.25c8.91 14.88 34.36-5.59 16.66-19.17"/><path stroke="#595a5b" vector-effect="non-scaling-stroke" d="M230.37 258.08q-2.99-1.89-6.37-2.29"/><path stroke="#6a6969" vector-effect="non-scaling-stroke" d="M224 255.79q-12.73.15-14.25 12.21-.68 5.38 3.96 9.25"/><path stroke="#a2a4a5" vector-effect="non-scaling-stroke" d="M224 255.79q.37.46.25.92a.7.7 0 01-.67.5q-3.83.02-6.99 1.83-2.01 1.15-2.85 3.54-2.15 6.21-.65 12.86a.8.79-89.5 00.57.59l.8.22"/><path stroke="#d9d9d9" vector-effect="non-scaling-stroke" d="M214.46 276.25l-.75 1"/><path stroke="#c8cacb" vector-effect="non-scaling-stroke" d="M230.37 258.08c-8.97 3.53-16.53 6.98-15.49 16.69.06.57-.15 1.02-.42 1.48"/><path stroke="#595a5b" vector-effect="non-scaling-stroke" d="M403.5 266.54q-6.56 2.13-9.21 8.46"/><path stroke="#6a6969" vector-effect="non-scaling-stroke" d="M394.29 275q-1.25 4.59.5 9.33"/><path stroke="#595a5b" vector-effect="non-scaling-stroke" d="M394.79 284.33q.41 3.44 4.17 4.67"/><path stroke="#908f8f" vector-effect="non-scaling-stroke" d="M398.96 289l2.29 2.42a1.8 1.69 73.5 00.82.48c13.48 3.54 24.72-11.92 13.43-21.94"/><path stroke="#595a5b" vector-effect="non-scaling-stroke" d="M415.5 269.96q-2.46-2.73-6-3.67"/><path stroke="#6a6969" vector-effect="non-scaling-stroke" d="M409.5 266.29q-3.04-.52-6 .25"/><path stroke="#a2a4a5" vector-effect="non-scaling-stroke" d="M409.5 266.29l.12.43a.32.32 0 01-.35.4c-1.16-.17-5.75.86-5.77-.58"/><path stroke="#c8cacb" vector-effect="non-scaling-stroke" d="M415.5 269.96c-7.74 4.77-16.06 5.43-14.94 16.86a1.11 1.08-25.8 01-.32.88l-1.28 1.3"/><path stroke="#a2a4a5" vector-effect="non-scaling-stroke" d="M394.79 284.33l.8-8.61a.67.67 0 00-.47-.7q-.42-.14-.83-.02"/><path stroke="#595a5b" vector-effect="non-scaling-stroke" d="M544.627 301.6a13.09 3.39 85.5 002.353-13.316 13.09 3.39 85.5 00-4.407-12.784 13.09 3.39 85.5 00-2.352 13.316 13.09 3.39 85.5 004.406 12.784"/><path stroke="#908f8f" vector-effect="non-scaling-stroke" d="M369.53 314.73q5.63 6.32 12.69 4.24c9.91-2.91 14.06-15.86 5.28-22.76"/><path stroke="#595a5b" vector-effect="non-scaling-stroke" d="M387.5 296.21q-1.08-1.32-2.75-1.75"/><path stroke="#6a6969" vector-effect="non-scaling-stroke" d="M384.75 294.46c-8.27-5.8-19.73 3.66-18.55 12.77q.53 4.02 3.33 7.5"/><path stroke="#a2a4a5" vector-effect="non-scaling-stroke" d="M384.75 294.46l-1.13.82a.86.86 0 01-.86.1c-6.59-2.74-13.88 2.53-15.13 8.99a.31.3-86 01-.27.24c-1.35.06.53 4.06.92 4.56q.3.39.37.86l.26 1.6a.75.74 82.7 00.81.63q.63-.06.99-.51"/><path stroke="#d9d9d9" vector-effect="non-scaling-stroke" d="M370.71 311.75q.28 1.42-1.18 2.98"/><path stroke="#c8cacb" vector-effect="non-scaling-stroke" d="M387.5 296.21c-.5.65-.92 1.3-1.74 1.61-7.26 2.72-13.73 5.5-15.05 13.93"/><path stroke="#595a5b" vector-effect="non-scaling-stroke" d="M268.71 317.5q-.22 6.94 5.5 10.75"/><path stroke="#908f8f" vector-effect="non-scaling-stroke" d="M274.21 328.25c4.98 3.68 10.38 3.15 15.22-.61q9.65-7.5 1.51-19.43"/><path stroke="#595a5b" vector-effect="non-scaling-stroke" d="M290.94 308.21l-4.68-2.97"/><path stroke="#6a6969" vector-effect="non-scaling-stroke" d="M286.26 305.24q-15.72-3.59-17.55 12.26"/><path stroke="#a2a4a5" vector-effect="non-scaling-stroke" d="M286.26 305.24q-1.19 1.38-2.85.5a1.43 1.41-36.4 00-.91-.13c-1.71.34-3.9.02-5.41.59-3.82 1.45-6.02 7.91-6.39 11.56a.72.71-86.9 01-.71.64h-.71a.54.53 87 01-.53-.48l-.04-.42"/><path stroke="#c8cacb" vector-effect="non-scaling-stroke" d="M290.94 308.21q-8.49 2.98-14.07 8.72c-3.38 3.48-2.05 7.41-2.66 11.32"/><path stroke="#6a6969" vector-effect="non-scaling-stroke" d="M214.85 310.03q-7.37 10.02.86 18.72"/><path stroke="#908f8f" vector-effect="non-scaling-stroke" d="M215.71 328.75c7.9 8.09 21.12 1.37 21.74-9.22q.4-6.83-4.87-10.3"/><path stroke="#595a5b" vector-effect="non-scaling-stroke" d="M232.58 309.23q-9.43-7.07-17.73.8"/><path stroke="#c8cacb" vector-effect="non-scaling-stroke" d="M232.58 309.23c-8.09 4.21-16.96 6.58-16.87 17.77"/><path stroke="#a2a4a5" vector-effect="non-scaling-stroke" d="M215.71 327q-5.04-7.71-.21-15.5.32-.52-.65-1.47"/><path stroke="#d9d9d9" vector-effect="non-scaling-stroke" d="M215.71 328.75V327"/><path stroke="#908f8f" vector-effect="non-scaling-stroke" d="M366.58 336.44c4.26.89 7.65.47 11.83.22q28.14-1.66 56.33-1.58c2.04 0 9.97.22 9.77-2.75a.93.93 0 00-.48-.74q-1.64-.87-3.78-.86-23.15.14-38.9.5c-4.28.1-9.29.94-13.1 1q-10.83.14-21.66 1a.76.76 0 00-.7.7l-.12 1.43a1.01 1.01 0 00.81 1.08"/><path stroke="#6a6969" vector-effect="non-scaling-stroke" d="M533.82 341.16q2.47 1.99 4.18 2.36c2.07.45 15.49 2.92 16.14 1.02a.97.97 0 00-.8-1.28q-8.78-1.13-17.37-2.83-1.05-.21-1.87-.15a.5.49-27.6 00-.28.88"/><path stroke="#908f8f" vector-effect="non-scaling-stroke" d="M279.79 348.34q-1.37-.91-2.79-.89-37.08.45-73.99 4.09a.75.75 0 00-.68.7l-.1 1.77a.71.69-84 00.58.73q3.71.64 4.94.52c10.01-.99 18.92-1.55 30.11-2.44 4.86-.39 39.32-.01 42.09-3.46a.7.7 0 00-.16-1.02"/><path stroke="#6a6969" vector-effect="non-scaling-stroke" d="M433.38 349.73q-13.37 7.01-5.77 20.58"/><path stroke="#595a5b" vector-effect="non-scaling-stroke" d="M427.61 370.31q.7 1.68 2.71 2.75"/><path stroke="#908f8f" vector-effect="non-scaling-stroke" d="M430.32 373.06c6.59 4.94 14.14 2.97 18.42-3.73q5.9-9.23-3.7-18.12"/><path stroke="#595a5b" vector-effect="non-scaling-stroke" d="M445.04 351.21q-5.61-2.79-11.66-1.48"/><path stroke="#c8cacb" vector-effect="non-scaling-stroke" d="M445.04 351.21l-1.02 1.84a1.21 1.21 0 01-.74.57c-11.85 3.03-12.04 8.32-12.96 19.44"/><path stroke="#a2a4a5" vector-effect="non-scaling-stroke" d="M427.61 370.31q-1.04-3.48-1.25-6.98c-.36-5.69 2.57-9.86 7.51-12.25a.53.53 0 00.24-.73q-.19-.33-.73-.62"/><path stroke="#595a5b" vector-effect="non-scaling-stroke" d="M273.21 384.25q1.26 2.01 3.42 2.86"/><path stroke="#908f8f" vector-effect="non-scaling-stroke" d="M276.63 387.11q10.46 4.46 16.15-2.99c3.39-4.44 4.82-14.66-1.03-17.91"/><path stroke="#595a5b" vector-effect="non-scaling-stroke" d="M291.75 366.21l-1.25-1"/><path stroke="#6a6969" vector-effect="non-scaling-stroke" d="M290.5 365.21c-5.83-4.4-15.51-4.03-18.57 3.72q-3.35 8.52 1.28 15.32"/><path stroke="#a2a4a5" vector-effect="non-scaling-stroke" d="M290.5 365.21c-2.31.83-3.63-.69-5.33-1.02-2.12-.4-3.78-1-5.88-.24-8 2.9-8.76 12.28-5.49 19.03a.67.67 0 01-.11.76l-.48.51"/><path stroke="#c8cacb" vector-effect="non-scaling-stroke" d="M291.75 366.21c-2.88 2.31-6.57 3.12-9 4.79q-7.96 5.49-6.12 16.11"/><path stroke="#595a5b" vector-effect="non-scaling-stroke" d="M547.12 396.733a13.06 3.55 85.7 002.56-13.29 13.06 3.55 85.7 00-4.52-12.756 13.06 3.55 85.7 00-2.56 13.29 13.06 3.55 85.7 004.52 12.756"/><path stroke="#908f8f" vector-effect="non-scaling-stroke" d="M249 412.38c13.34 7.6 26.79-13.29 13.43-22.04"/><path stroke="#595a5b" vector-effect="non-scaling-stroke" d="M262.43 390.34q-3.8-3.04-9.06-3.48"/><path stroke="#6a6969" vector-effect="non-scaling-stroke" d="M253.37 386.86q-22.2 9.75-4.37 25.52"/><path stroke="#a2a4a5" vector-effect="non-scaling-stroke" d="M253.37 386.86q.39 2.41-.81 2.38-.52-.01-.98.23-11.06 5.57-5.04 17.02a1.94 1.85 34.2 01.22 1.03q-.18 2.55 2.45 3.23"/><path stroke="#d9d9d9" vector-effect="non-scaling-stroke" d="M249.21 410.75l-.21 1.63"/><path stroke="#c8cacb" vector-effect="non-scaling-stroke" d="M262.43 390.34q-3.46 2.86-7.44 4.72c-6.34 2.95-7.96 9.11-5.78 15.69"/><path stroke="#595a5b" vector-effect="non-scaling-stroke" d="M369.59 418.08q.74 2.84 3.12 4.92"/><path stroke="#908f8f" vector-effect="non-scaling-stroke" d="M372.71 423q4.55 6.52 11.72 4.45 12.82-3.71 9.8-17.71-.96-4.48-5.98-6.78"/><path stroke="#595a5b" vector-effect="non-scaling-stroke" d="M388.25 402.96q-2.54-1.93-5.75-1.92"/><path stroke="#6a6969" vector-effect="non-scaling-stroke" d="M382.5 401.04c-8.23.33-16.58 8.41-12.91 17.04"/><path stroke="#a2a4a5" vector-effect="non-scaling-stroke" d="M382.5 401.04l.72.41q1.29.72-.18.77c-2.58.08-4.47.48-6.43 2.33q-3.81 3.62-5.89 8.44a1.65 1.57-39.7 00-.11.94q.43 2.35-1.02 4.15"/><path stroke="#c8cacb" vector-effect="non-scaling-stroke" d="M388.25 402.96c-1.41.62-2.37 1.65-3.85 2.08q-12.14 3.51-11.08 16.63a1.28 1.24-29.3 01-.26.87l-.35.46"/><path stroke="#6a6969" vector-effect="non-scaling-stroke" d="M215.29 421.5q-3 7.14 1.21 13.54"/><path stroke="#595a5b" vector-effect="non-scaling-stroke" d="M216.5 435.04l1.27 1.79"/><path stroke="#908f8f" vector-effect="non-scaling-stroke" d="M217.77 436.83c6.52 5.94 15.95 5.07 20.44-2.55 2.31-3.92 3-13.16-2.21-16.32"/><path stroke="#595a5b" vector-effect="non-scaling-stroke" d="M236 417.96q-10.36-8.25-19.56 1.23-.64.65-1.15 2.31"/><path stroke="#c8cacb" vector-effect="non-scaling-stroke" d="M236 417.96c-8.5 1.48-17.27 6.42-17.3 16.25 0 1.08-.45 1.66-.93 2.62"/><path stroke="#a2a4a5" vector-effect="non-scaling-stroke" d="M216.5 435.04c.44-.34.54-.79.35-1.34q-1.83-5.37-.39-10.84a1.08 1.03-57.6 00-.18-.91q-.35-.44-.99-.45"/><path stroke="#908f8f" vector-effect="non-scaling-stroke" d="M185.79 432.74c-1.67 4.19 2.72 6.14 5.56 6.86q.6.15.35-.42-1.77-3.96-5.2-6.63a.46.46 0 00-.71.19"/><path stroke="#c8cacb" vector-effect="non-scaling-stroke" d="M116.797 301.878a14.18 4.63 89 004.382-14.259 14.18 4.63 89 00-4.877-14.097 14.18 4.63 89 00-4.381 14.259 14.18 4.63 89 004.876 14.097"/><path stroke="#c8cacb" vector-effect="non-scaling-stroke" d="M127.608 325.14a13.98 4.81 89.6 004.712-14.014 13.98 4.81 89.6 00-4.908-13.946 13.98 4.81 89.6 00-4.712 14.014 13.98 4.81 89.6 004.908 13.946"/><path stroke="#595a5b" vector-effect="non-scaling-stroke" d="M107.14 349.98q12.11 0 24.12-1.64a.79.78 86.3 00.68-.78l.01-2.65a.66.66 0 00-.71-.66q-8.52.55-17.06 1.05c-3.12.18-9.78.37-7.74 4.26a.79.78-13.6 00.7.42"/><path stroke="#c8cacb" vector-effect="non-scaling-stroke" d="M129.436 387.447a14.14 4.72 88.8 004.423-14.236 14.14 4.72 88.8 00-5.015-14.038 14.14 4.72 88.8 00-4.423 14.236 14.14 4.72 88.8 005.015 14.038"/><path stroke="#c8cacb" vector-effect="non-scaling-stroke" d="M130.975 439.602a14.03 4.71 88.1 004.242-14.178 14.03 4.71 88.1 00-5.172-13.866 14.03 4.71 88.1 00-4.242 14.178 14.03 4.71 88.1 005.172 13.866M70.631 421.254a12.77 3.83 88.2 003.427-12.884 12.77 3.83 88.2 00-4.23-12.644 12.77 3.83 88.2 00-3.426 12.884 12.77 3.83 88.2 004.23 12.644"/><path stroke="#6a6969" vector-effect="non-scaling-stroke" d="M589.94 591q-4.88-.63-9.75 0M566.94 591q-7.38-.63-14.75 0M551.94 591q-2.88-.63-5.75 0M519.94 591q-6.63-.63-13.25 0M503.94 591q-2.88-.63-5.75 0M495.94 591q-10.63-.63-21.25 0M464.44 591q-2.13-.63-4.25 0M423.94 591q-2.88-.63-5.75 0M415.94 591q-6.88-.63-13.75 0M391.94 591q-2.88-.63-5.75 0M383.94 591q-2.63-.63-5.25 0M359.94 591q-2.88-.63-5.75 0M351.94 591q-7.38-.63-14.75 0M336.94 591q-3.38-.63-6.75 0M328.94 591q-3.88-.63-7.75 0M320.94 591q-3.88-.63-7.75 0M312.94 591q-3.88-.63-7.75 0M285.94 591q-5.88-.63-11.75 0M255.94 591q-7.38-.63-14.75 0M240.94 591q-3.88-.63-7.75 0M232.94 591q-5.88-.63-11.75 0M204.94 591q-2.38-.63-4.75 0M199.94 591q-5.38-.63-10.75 0M172.94 591q-5.88-.63-11.75 0M160.94 591q-3.88-.63-7.75 0M152.94 591q-3.88-.63-7.75 0M143.94 591q-2.88-.63-5.75 0M118.94 591q-14.88-.63-29.75 0M88.94 591q-6.38-.63-12.75 0M63.94 591q-2.88-.63-5.75 0M57.94 591q-3.88-.63-7.75 0M49.94 591q-3.88-.63-7.75 0M40.94 591q-3.38-.63-6.75 0M31.94 591q-2.88-.63-5.75 0M24.94 591q-4.38-.63-8.75 0M15.94 591L0 590.44"/></g><path d="M0 0h589.81l.19.29.29 3.71v1l-.04 584.71-.46.32a1.18 1.16 27.1 01-.67.21q-291.53.02-583.06 0-3.03 0-6.06-.3V0zm585.49 5.52a.27.27 0 00-.27-.27H5.52a.27.27 0 00-.27.27v579.7a.27.27 0 00.27.27h579.7a.27.27 0 00.27-.27V5.52z"/><path fill="#201f1f" d="M589.81 0H591v591h-.56l.27-1.25-.02-584.56a.15.15 0 00-.13-.15l-.27-.04V4q.96-1.72.27-3.58a.26.26 0 00-.29-.17l-.27.04-.19-.29z"/><path fill="#919497" d="M590 .29l.27-.04a.26.26 0 01.29.17q.69 1.86-.27 3.58L590 .29zM590.29 5l.27.04a.15.15 0 01.13.15l.02 584.56-.46-.04L590.29 5z"/><path fill="#fafcdf" d="M585.49 585.22a.27.27 0 01-.27.27H5.52a.27.27 0 01-.27-.27V5.52a.27.27 0 01.27-.27h579.7a.27.27 0 01.27.27v579.7zM35 74.79q21.39-22.14 42.36-44.67 3.51-3.77 6.59-7.64a.47.46 17.8 00-.39-.75q-20.23.96-40.41 1.38-7.96.16-11.59 1.61C16.8 30.6 19.52 46.26 20.22 58.76q.51 9.26.26 28.27a.76.75-77.9 00.45.71q1.44.65 2.44-.59c3.44-4.21 8.35-8.97 11.63-12.36zM176.71 309.5c-.32-12.96-.51-26 .75-38.92q.85-8.66.79-13.7c-.1-8.91-1.38-18.27-.75-27.08a1.32 1.31-87.5 011.33-1.22l12.51.15q2.04.02 2.39-1.98c1.13-6.44 3.5-12.96 3.84-19.28.2-3.63.92-9.95-.61-13.22q-2.13-2.9-4.21-3.09c-10.49-.94-27.95-.46-41.94-1.96q-7.21-.78-14.43-1.38c-7.43-.63-18.16-2.57-27.48-2.54-1.09.01-2.94.57-3.86 1.19q-8.28 5.56-17.76 8.39c-10.99 3.28-20.9 7.53-31.19 12.54-5.09 2.47-10.3 4.1-16.02 6.17-7.9 2.87-7.6 7.95-7.6 15.99q0 5.27.42 11.24c.55 7.8 9.02 5.89 13.96 4.86a.85.85 0 011.02.76c1.15 15.16-.64 30.5-1.72 45.64-.64 8.93.69 17.62 1.62 26.44 2.56 24.29 2.46 49.33 2.52 73.75q.01 5.62 1.02 14.37c1.22 10.5 1.24 19.88 1.41 29.98a1.42 1.41 71 01-.55 1.14q-1.87 1.47-2.52 3.83a.77.77 0 01-1.4.21q-3.98-6.29-9.33-11.48a.65.65 0 00-1.1.49q.33 6.96 3.68 12.69 1.75 2.99-.23 5.85a.55.55 0 01-.73.16c-2.64-1.55-8.19-6.06-10.82-3.48a1.27 1.27 0 000 1.81l8.22 7.99a1.66 1.64 70.3 00.92.44c4.6.56 8.56 1.08 13.38.87 14.18-.61 28.28.76 42.34 2.44 3.2.38 5.95-.55 8.67-.76 15.3-1.17 34.16 3.26 51.67.58a1.74 1.71-37.4 01.96.12q3.11 1.31 5.87 1.28 14.66-.14 29.31.09 6.9.1 11.69 1.47a1.29 1.29 0 00.93-.08c1.42-.71 2.24-.92 3.92-.49q3.52.89 8.65.94 45.5.46 90.99.56c3.79.01 7.97-.7 12.01-.8q5.92-.15 8.98-.51 41.42-4.93 83.13-6.34c6.07-.21 13.13 1.01 19.58.57q18.59-1.26 42.96-4.21a.69.68 86.7 00.6-.68v-2.01a.54.54 0 01.51-.54q20.17-1.18 40.37-1.54c4.63-.08 10.35-1.01 15.94.34 3.89.94 6.51.99 9.95-.14q1.32-.43 3.03.83c4 2.93 8.78 1.54 12.61 1.53q6.23-.03 12.48-.58a.42.42 0 00.38-.38l.34-3.6a1.1 1.1 0 01.72-.94l6.97-2.57a.84.84 0 00-.1-1.6l-6.73-1.55q-.58-.13-.17-.56 3.19-3.3 7.63-6.29.58-.38.07-1.62-3.68-1.54-6.25 1.63-2 .64-3.33-.64a1.13 1.12 23.5 01-.35-.88q.05-.86.39-1.31l.34-7.13a1.13 1.11 24.6 00-.33-.86c-3.83-3.89-5.94-4.28-6.2-10.39-1.43-33.24 2.46-66.31-.59-99.45-1.35-14.74-1.29-28.33-1.72-42.55-.06-7.58.64-17.95-2.11-24.59-4.12-9.96-15.51-14.98-25.23-17.37-3.7-.91-6.2-3.2-10.87-3.11q-15.24.27-30.44 1.18c-9.07.55-9.57 12.23-11.24 18.59q-1.41 5.36-1.65 9.1c-.45 6.75.37 14.38.33 20.27q-.13 17.69 1 39.93c.35 6.79.25 16.27.62 24.25 1.49 32.3 3.19 64.67 3.11 97a.41.41 0 01-.73.25l-4.72-6.11a.75.74-30.1 00-.89-.23c-1.64.7.98 6.69 1.46 7.91a.59.59 0 01-.89.69q-4.26-3.01-7.43.83-.38.46-.51-.13c-.3-1.35 2.87-3.64 3.74-4.93a1.52 1.51-28.8 00.26-.88l-.16-6.13a.45.44 84.3 00-.51-.43l-2.6.37c-.04-2.57.8-4.94.91-7.21q.61-12.29-.95-24.5-2.79-17.04-2.74-25.5c.09-12.66.83-26.25-.72-38.79q-.99-13.41-2.31-26.79c-1.34-13.6-.69-24.62 1.78-37.18q.32-1.6.32-3.24 2.58-20.59-6.57-38.95a.39.38 70.7 01.26-.56c2.37-.53 6.16-.52 7.89-2.21 2.34-2.28 2.16-7.73 2.29-12.36.26-9.86 2.96-21.54 2.56-29.17-.22-4.09.38-11.19-4.57-11.67q-10.18-.99-20.4-.5-7.64.37-21-1.06c-11.1-1.19-26.68-1.62-40-1.39q-32.17.55-64.32 1.86c-17.58.72-36.92.37-52.54.59-8.88.12-20.38-.88-30.57-.17-4.99.35-18.88 7.44-17.07 13.84 3.47 12.22 2.1 27.2 2.26 37.26q.04 2.46-1.99 3.31c-4.26 1.78-8.62 3.75-10.52 8.11q-4.43 10.19-10.41 19.58c-1.3 2.04-2.18 4.9-4.89 6.43-6.39 3.62-11.22 5.75-12.46 13.56-1.42 8.98-4.13 17.96-4.94 26.9-1.37 15.14-1.65 36 .44 53.46 1.82 15.12 3.84 29.36 5.28 45.35q1.48 16.34 4.16 33.18.31 1.99-1.52 1.17l-2.43-1.08a.89.88-79.6 01-.52-.76c-.32-8.59-1.61-17.57-1.96-25.59-.88-20.03-3.27-34.62-5.32-52.02-1.47-12.54-1.18-26.17-1.72-39.36zM33.19 334.69q-.7.61-.39 1.69a.41.41 0 00.8-.04l.31-1.7q.11-.64-.47-.36-.28.13-.25.41z"/><path fill="#fae4a9" d="M35 74.79c-3.28 3.39-8.19 8.15-11.63 12.36q-1 1.24-2.44.59a.76.75-77.9 01-.45-.71q.25-19.01-.26-28.27c-.7-12.5-3.42-28.16 11.34-34.04q3.63-1.45 11.59-1.61 20.18-.42 40.41-1.38a.47.46 17.8 01.39.75q-3.08 3.87-6.59 7.64Q56.39 52.65 35 74.79z"/><path fill="#201f1f" d="M467.29 261.75l-.05-.64a.3.29 71.7 00-.45-.23l-.31.18a.58.57-10.8 00-.25.36c-2.53 11.83-5.04 26.19-3.13 38.23q.39 2.51.61 5.9.69 11.15 2.59 23.63a.37.36 67.3 00.58.24l.62-.46c1.55 12.54.81 26.13.72 38.79q-.05 8.46 2.74 25.5-1.2-.11-1.15.82.49 9.86.74 19.75c.1 3.5-.53 6.95-.81 10.53a.63.63 0 00.47.66q.38.1.79-.05l2.6-.37a.45.44 84.3 01.51.43l.16 6.13a1.52 1.51-28.8 01-.26.88c-.87 1.29-4.04 3.58-3.74 4.93q.13.59.51.13 3.17-3.84 7.43-.83a.59.59 0 00.89-.69c-.48-1.22-3.1-7.21-1.46-7.91a.75.74-30.1 01.89.23l4.72 6.11a.41.41 0 00.73-.25c.08-32.33-1.62-64.7-3.11-97-.37-7.98-.27-17.46-.62-24.25q-1.13-22.24-1-39.93c.04-5.89-.78-13.52-.33-20.27q.24-3.74 1.65-9.1c1.67-6.36 2.17-18.04 11.24-18.59q15.2-.91 30.44-1.18c4.67-.09 7.17 2.2 10.87 3.11 9.72 2.39 21.11 7.41 25.23 17.37 2.75 6.64 2.05 17.01 2.11 24.59q-.23-.52-.81-.52a.77.77 0 00-.76.76c-.12 10.23.98 19.96 1.05 30.7.07 11.45 2.26 25.89 2.24 34.25-.02 14.29-1.27 29.82-1.39 42.12q-.09 8.34.05 35.94c.03 4.86 3.88 6.79 6.56 9.89a1.27 1.26 25.8 01.31.88q-.15 3.36 1.25 6.36-.34.45-.39 1.31a1.13 1.12 23.5 00.35.88q1.33 1.28 3.33.64l6.25-1.63q.51 1.24-.07 1.62-4.44 2.99-7.63 6.29-.41.43.17.56l6.73 1.55a.84.84 0 01.1 1.6l-6.97 2.57a1.1 1.1 0 00-.72.94l-.34 3.6a.42.42 0 01-.38.38q-6.25.55-12.48.58c-3.83.01-8.61 1.4-12.61-1.53q-1.71-1.26-3.03-.83c-3.44 1.13-6.06 1.08-9.95.14-5.59-1.35-11.31-.42-15.94-.34q-20.2.36-40.37 1.54a.54.54 0 00-.51.54v2.01a.69.68 86.7 01-.6.68q-24.37 2.95-42.96 4.21c-6.45.44-13.51-.78-19.58-.57q-41.71 1.41-83.13 6.34-3.06.36-8.98.51c-4.04.1-8.22.81-12.01.8q-45.49-.1-90.99-.56-5.13-.05-8.65-.94c-1.68-.43-2.5-.22-3.92.49a1.29 1.29 0 01-.93.08q-4.79-1.37-11.69-1.47-14.65-.23-29.31-.09-2.76.03-5.87-1.28a1.74 1.71-37.4 00-.96-.12c-17.51 2.68-36.37-1.75-51.67-.58-2.72.21-5.47 1.14-8.67.76-14.06-1.68-28.16-3.05-42.34-2.44-4.82.21-8.78-.31-13.38-.87a1.66 1.64 70.3 01-.92-.44l-8.22-7.99a1.27 1.27 0 010-1.81c2.63-2.58 8.18 1.93 10.82 3.48a.55.55 0 00.73-.16q1.98-2.86.23-5.85-3.35-5.73-3.68-12.69a.65.65 0 011.1-.49q5.35 5.19 9.33 11.48a.77.77 0 001.4-.21q.65-2.36 2.52-3.83a1.42 1.41 71 00.55-1.14c-.17-10.1-.19-19.48-1.41-29.98q-1.01-8.75-1.02-14.37c-.06-24.42.04-49.46-2.52-73.75-.93-8.82-2.26-17.51-1.62-26.44 1.08-15.14 2.87-30.48 1.72-45.64a.85.85 0 00-1.02-.76c-4.94 1.03-13.41 2.94-13.96-4.86q-.42-5.97-.42-11.24c0-8.04-.3-13.12 7.6-15.99 5.72-2.07 10.93-3.7 16.02-6.17 10.29-5.01 20.2-9.26 31.19-12.54q9.48-2.83 17.76-8.39c.92-.62 2.77-1.18 3.86-1.19 9.32-.03 20.05 1.91 27.48 2.54q7.22.6 14.43 1.38c13.99 1.5 31.45 1.02 41.94 1.96q2.08.19 4.21 3.09-.24-.19-.54-.14a.58.57-6.5 00-.49.61q.78 11.44-.15 15.59-1.77 7.93-3.43 15.92a.74.74 0 01-.59.58q-6.13 1.11-12.31.31c-2.42-.31-3.48.77-3.47 3.17.04 14.48.99 28.67-.22 43.15-1.03 12.38-.67 23.69-.79 35.62a.67.66-83.5 00.51.65q.63.14 1.23-.21c.54 13.19.25 26.82 1.72 39.36 2.05 17.4 4.44 31.99 5.32 52.02.35 8.02 1.64 17 1.96 25.59a.89.88-79.6 00.52.76l2.43 1.08q1.83.82 1.52-1.17-2.68-16.84-4.16-33.18c-1.44-15.99-3.46-30.23-5.28-45.35-2.09-17.46-1.81-38.32-.44-53.46.81-8.94 3.52-17.92 4.94-26.9 1.24-7.81 6.07-9.94 12.46-13.56 2.71-1.53 3.59-4.39 4.89-6.43q5.98-9.39 10.41-19.58c1.9-4.36 6.26-6.33 10.52-8.11q2.03-.85 1.99-3.31c-.16-10.06 1.21-25.04-2.26-37.26-1.81-6.4 12.08-13.49 17.07-13.84 10.19-.71 21.69.29 30.57.17 15.62-.22 34.96.13 52.54-.59q32.15-1.31 64.32-1.86c13.32-.23 28.9.2 40 1.39q13.36 1.43 21 1.06 10.22-.49 20.4.5c4.95.48 4.35 7.58 4.57 11.67.4 7.63-2.3 19.31-2.56 29.17-.13 4.63.05 10.08-2.29 12.36-1.73 1.69-5.52 1.68-7.89 2.21a.39.38 70.7 00-.26.56q9.15 18.36 6.57 38.95zm-234.58-72.5l.93 22.42a1.04 1.04 0 00.64.93c2.91 1.22 2.19-6.42 2.07-7.59-.81-7.99-2.03-16.45-1.1-24.47 1.4-4.79 9.37-4.61 13.43-4.55 18.14.26 33.11 1.46 44-.53 17.48-3.18 34.66.29 52.07 1.25q14.46 3.1 29.02.31 16.02-1.31 32.05-.33 3.04.18 14.76 1.81c14.67 2.05 29.96.83 44.86-.14a.89.88.7 00.83-.8q.56-5.24-5.04-5.25-16.52-.04-32.98 1.5c-2.97.28-7.9-1.53-11.03-1.89-12.78-1.45-26.89-.4-37.81-.55q-42.57-.55-101.41.68c-8.29.17-17.04 1.21-23.33 1.45-8.55.33-18.19-.4-23.19 6.3a1.45 1.42 62.3 00-.27.9q.19 4.42 1.5 8.55zM43.29 237.5c.33 0 .89.01 1.2-.13q12.67-5.93 25.25-9.38 7.01-1.92 12.26-3.95c10.18-2.75 20.02-5.26 29.26-10.57a.94.92-25.6 00.41-1.13c-.7-1.84-1.93-3.3-2.19-5.25q-.82-6.14-.4-12.39a.49.48-14.5 00-.75-.44q-8.4 5.48-17.96 8.2c-7.49 2.13-14.12 4.62-21.43 8.3-8 4.02-16.52 7-24.81 10.32-6.71 2.69-4.72 10.52-4.14 16.21a.74.73-85.5 00.54.64q1.38.38 2.76-.43zM273.71 217l-20.96 1.54q-4.97.6-10.47.17-11.71 4.64-21.94 11.98a1.76 1.74 83.6 00-.59.75q-3.81 9.47-8.79 18.31-2.45 4.94-6.21 8.96c-4.47 3.61-12.51 7.87-13.96 12.09q-1.89 5.52-2.25 16.71-.51 16.34-1.43 32.8l-.57 4.94q-.87 18.45 2.71 36.54l.05.79q.96 8.4 2 16.98c.14 1.2.07 3.22.54 4.79 1.58 5.29 1.93 11.19 2.54 16.67q.06.59.18.01.26-1.26-.02-3.59-1.79-14.72-1.92-35.88-.05-8.79-1.05-13.58c.54-5.83-.86-12.6-.1-19.71.6-5.57 2.99-10.79 4.74-16.27l3.79-15.71q1.26-3.7 1.4-7.51l2.35-15.24c3.1-7.45 4.03-12.95 10.5-18.75 3.94-3.71 9.85-7.48 12.48-12.16q6.15-5.99 11.11-13.11c3.23-4.63 11.28-5.57 16.45-6.02q21.17-.49 42.35-.97c3.15-.08 6.41-.65 9.69-.88a.4.4 0 00.35-.52q-.77-2.38-2.68-3.84l-1.96-.29q-1.29-.58-2.55-.12a.72.72 0 00-.48.72l.07 1.86q-1.09-.9-1.46-2.43a.66.65-4.7 00-.6-.5q-11.7-.55-23.31.47zm39.43 17.32c.09 2.44-.79 5.07-.67 7.43.63 12.48 2.64 26.7 3.53 40.79 1.1 17.6 1.74 35.18 2.54 52.8.92 20.07-.3 40.08-.53 60.17-.03 2.41.39 5.84 1.49 8.04q3.98 8.04 4.49 17.47.11 1.97 1.39.47c.91-1.08 1.46-2.27 1.52-3.85.45-12.19.87-23.68-.28-36.14q-2.93-31.53-2.87-42 .13-22.97.38-45.94c.08-7.26.54-13.33 7.86-14.44 2.34-.35 11.26-1.15 12.62-2.53 1.45-1.46 1.82-32.92 1.97-37.29.19-5.67 4.62-13.72 6.71-19.21a.86.85-78.8 00-.77-1.16q-6.7-.19-13.58-.33c-8.4-.17-17.71-1.15-26.7-1.41a1.26 1.25-6.1 00-1.26 1.55q1.87 7.6 2.16 15.58zM398 219.21q-4.53-.01-9.04 1.25-9.52.81-19.18.97-4.33.08-6.38 1.15c-6.29 3.28-9.7 12.85-10.31 19.18q-1.55 15.9-1.5 31.84c.02 7.9 1.08 20.32.78 30.58q-.07 2.33-.58 4.57.11-.85-.26-1.36a.49.49 0 00-.87.21c-1.22 7.22-2.69 14.4-2.77 21.61q-.19 15.66 1.58 27.79 1.43 9.72 1.41 14.86a.55.54-88.3 00.51.55q.56.03 1.07-.16 1.63 11.33.87 22.77a.19.18 1.2 00.2.2c1.98-.07.9-32.59.85-35.79-.17-12.05.97-24.92 1.33-37.43l.25-3.25c1.73-12.11 4.19-24.02 5.04-36.25q1.12-16.12 1.96-32.25c1.05-6.55 5.04-12.75 7.83-18.75q2.18-1.91 4.47-2.04 12.9-.72 23.82-4.58c3.8-1.34 10.02-1.46 13.93-1.3 14.12.59 28.85 3.69 42.01 1.87a1.66 1.66 0 00.87-2.89c-3.04-2.69-12.96-2.88-17.14-2.88q-15.72.01-31.41-.81c-3.24-.17-6.21.05-9.34.34zM102.79 253.5q-.76 4.63-1.12 9.31c-.27 3.6.72 7.02 1.12 10.69-.05 10.92-2.1 25.08.17 38.75V318l-.25-.72q-.19-.56-.19.03.32 22.52 1.62 45c.09 1.51.73 3.09.9 4.69q-.21 7.4.67 14.75-1.48.03-1.38 1.26c1.15 14.11.6 28.31.44 42.45-.06 5.18 1.09 10.82 1.4 15.3q.28 3.96 2.64 2.54c1.24 1.65 3.42 8.14 5.19 8.24l4.5.42q10.8-.19 21.05 1.56a1.08 1.07-85 001.25-1.06l.16-17.96q.34-5.64.48-16.44.05-4.09-1.26-7.29-.21-12.8-2.72-25.27c-.38-7.81-2.61-16.15-3.18-22.78q-1.66-19.51-.45-39.05c.44-7.09.03-12.99-.62-19.67q.45-15.73-.88-31.53.49-4.38-.79-8.72l-.98-12.74-1.85-23.51q-.03-.65-.38-1.17a.67.67 0 00-.78-.26q-7.76 2.63-15.53 5.26c-4.56 1.54-9.3 1.03-9.48 7.17q-.22 7.51.25 15zm400.46-24.54l-9.98 2.86a1.63 1.57-77.8 00-.8.54c-3.96 4.86-4.9 11.13-5.26 17.39q-1.09 8.17.04 16.26c-.04 15.8 1.88 32.15 2.24 46.98q.79 31.76 1.55 63.51.29 17.8 2.17 35.5l.53 24.77a.76.76 0 00.47.69q1.7.71 3.54.33l3.75-.08.49-.01a.66.65-81.9 00.61-.47l1.52-5.05c1.15-2.28 10.81-17.06 12.84-16.25a.44.44 0 01.24.55l-.8 2.21q-3.48 5.03-6 10.77a.81.81 0 00.94 1.11q2.13-.54 3.16-2.48a1.36 1.34-84.9 01.73-.62l1.52-.51 2.17-.07a.58.58 0 01.6.53q.18 2.13-1.63 3.25a1.2 1.2 0 00.24 2.15q1.91.66 4.37-.11 4.62-.46 5.61 3.64a.66.66 0 001.27.04c1.06-3.37.5-6.08.31-9.47q-.8-14.18-2.15-28.47c-.16-12.42-2.49-25.07-3.58-37.49-.58-6.68-.58-13.92-.83-20.89-1.18-33.08.39-66.17-1.03-99.31-.54-12.85-8.39-13.66-18.85-11.8zM55.29 250.75c.45 14.24-1.03 28.58-2.23 42.75q-.79 9.31 1.86 25.08l1.29 16.92.33 4.25.26 18.8.66 8.95q-.17 16.21.98 32.36.93 13.11 1.13 19.3c.21 6.87.8 14.09.46 20.93q-.12 2.44 1.86 3.5l3.83-.12a1.07 1.05-21.3 01.84.36c3.12 3.49 8.42 3.42 14.44 4.05 2.43.25 4.72-.16 4.61-3.06q-.57-15.69-.06-26.75c.86-18.63-.72-34.83-2.57-55.28-.87-9.63-.93-20.83-1.92-31.26q.7-16.58-.6-33.03.29-5.56-.62-11.06l-.13-14.69q.4-1.97.34-4-.39-13.41-.66-27.32a1.12 1.12 0 00-1.14-1.1c-4.37.08-23.02 4.17-22.96 10.42zm372.51 14.62q10.82 4.94 17.04-2.48c4.36-5.22 4.73-11.94.16-17.18q-2.67-2.71-6.21-3.9-3.18-1.69-6.88-.41c-11.02 3.81-12.68 16.37-4.11 23.97zm-154.96 12.95q10.68 5.14 16.85-2.03c5.5-6.39 5.11-14.85-2.19-19.83-11.41-8.45-24.8 4.79-18.96 16.25q1.57 3.1 4.3 5.61zm-59.13-1.07c8.91 14.88 34.36-5.59 16.66-19.17q-2.99-1.89-6.37-2.29-12.73.15-14.25 12.21-.68 5.38 3.96 9.25zm189.79-10.71q-6.56 2.13-9.21 8.46-1.25 4.59.5 9.33.41 3.44 4.17 4.67l2.29 2.42a1.8 1.69 73.5 00.82.48c13.48 3.54 24.72-11.92 13.43-21.94q-2.46-2.73-6-3.67-3.04-.52-6 .25zm141.127 35.06a13.09 3.39 85.5 002.353-13.316 13.09 3.39 85.5 00-4.407-12.784 13.09 3.39 85.5 00-2.352 13.316 13.09 3.39 85.5 004.406 12.784zM369.53 314.73q5.63 6.32 12.69 4.24c9.91-2.91 14.06-15.86 5.28-22.76q-1.08-1.32-2.75-1.75c-8.27-5.8-19.73 3.66-18.55 12.77q.53 4.02 3.33 7.5zm-100.82 2.77q-.22 6.94 5.5 10.75c4.98 3.68 10.38 3.15 15.22-.61q9.65-7.5 1.51-19.43l-4.68-2.97q-15.72-3.59-17.55 12.26zm-53.86-7.47q-7.37 10.02.86 18.72c7.9 8.09 21.12 1.37 21.74-9.22q.4-6.83-4.87-10.3-9.43-7.07-17.73.8zm151.73 26.41c4.26.89 7.65.47 11.83.22q28.14-1.66 56.33-1.58c2.04 0 9.97.22 9.77-2.75a.93.93 0 00-.48-.74q-1.64-.87-3.78-.86-23.15.14-38.9.5c-4.28.1-9.29.94-13.1 1q-10.83.14-21.66 1a.76.76 0 00-.7.7l-.12 1.43a1.01 1.01 0 00.81 1.08zm167.24 4.72q2.47 1.99 4.18 2.36c2.07.45 15.49 2.92 16.14 1.02a.97.97 0 00-.8-1.28q-8.78-1.13-17.37-2.83-1.05-.21-1.87-.15a.5.49-27.6 00-.28.88zm-254.03 7.18q-1.37-.91-2.79-.89-37.08.45-73.99 4.09a.75.75 0 00-.68.7l-.1 1.77a.71.69-84 00.58.73q3.71.64 4.94.52c10.01-.99 18.92-1.55 30.11-2.44 4.86-.39 39.32-.01 42.09-3.46a.7.7 0 00-.16-1.02zm153.59 1.39q-13.37 7.01-5.77 20.58.7 1.68 2.71 2.75c6.59 4.94 14.14 2.97 18.42-3.73q5.9-9.23-3.7-18.12-5.61-2.79-11.66-1.48zm-160.17 34.52q1.26 2.01 3.42 2.86 10.46 4.46 16.15-2.99c3.39-4.44 4.82-14.66-1.03-17.91l-1.25-1c-5.83-4.4-15.51-4.03-18.57 3.72q-3.35 8.52 1.28 15.32zm273.91 12.483a13.06 3.55 85.7 002.56-13.29 13.06 3.55 85.7 00-4.52-12.756 13.06 3.55 85.7 00-2.56 13.29 13.06 3.55 85.7 004.52 12.756zM249 412.38c13.34 7.6 26.79-13.29 13.43-22.04q-3.8-3.04-9.06-3.48-22.2 9.75-4.37 25.52zm120.59 5.7q.74 2.84 3.12 4.92 4.55 6.52 11.72 4.45 12.82-3.71 9.8-17.71-.96-4.48-5.98-6.78-2.54-1.93-5.75-1.92c-8.23.33-16.58 8.41-12.91 17.04zm-154.3 3.42q-3 7.14 1.21 13.54l1.27 1.79c6.52 5.94 15.95 5.07 20.44-2.55 2.31-3.92 3-13.16-2.21-16.32q-10.36-8.25-19.56 1.23-.64.65-1.15 2.31zm-29.5 11.24c-1.67 4.19 2.72 6.14 5.56 6.86q.6.15.35-.42-1.77-3.96-5.2-6.63a.46.46 0 00-.71.19z"/><path fill="#919497" d="M373.77 177.02q-1.74-2.17-4.04-1.58-12.6 3.19-23.82-.15a.89.88 31.1 00-.87.21q-.5.46-.29 1.21c-17.41-.96-34.59-4.43-52.07-1.25-10.89 1.99-25.86.79-44 .53-4.06-.06-12.03-.24-13.43 4.55l-.38-.02a.56.55-75.7 00-.53.32q-1.83 3.99-1.63 8.41-1.31-4.13-1.5-8.55a1.45 1.42 62.3 01.27-.9c5-6.7 14.64-5.97 23.19-6.3 6.29-.24 15.04-1.28 23.33-1.45q58.84-1.23 101.41-.68c10.92.15 25.03-.9 37.81.55 3.13.36 8.06 2.17 11.03 1.89q16.46-1.54 32.98-1.5 5.6.01 5.04 5.25a.89.88.7 01-.83.8c-14.9.97-30.19 2.19-44.86.14q-11.72-1.63-14.76-1.81-16.03-.98-32.05.33z"/><path fill="#b3b3b2" d="M373.77 177.02q-14.56 2.79-29.02-.31-.21-.75.29-1.21a.89.88 31.1 01.87-.21q11.22 3.34 23.82.15 2.3-.59 4.04 1.58zM235.25 180.54c-.93 8.02.29 16.48 1.1 24.47.12 1.17.84 8.81-2.07 7.59a1.04 1.04 0 01-.64-.93l-.93-22.42q-.2-4.42 1.63-8.41a.56.55-75.7 01.53-.32l.38.02z"/><path d="M196.96 194.25c1.53 3.27.81 9.59.61 13.22-.34 6.32-2.71 12.84-3.84 19.28q-.35 2-2.39 1.98l-12.51-.15a1.32 1.31-87.5 00-1.33 1.22c-.63 8.81.65 18.17.75 27.08q.06 5.04-.79 13.7c-1.26 12.92-1.07 25.96-.75 38.92q-.6.35-1.23.21a.67.66-83.5 01-.51-.65c.12-11.93-.24-23.24.79-35.62 1.21-14.48.26-28.67.22-43.15-.01-2.4 1.05-3.48 3.47-3.17q6.18.8 12.31-.31a.74.74 0 00.59-.58q1.66-7.99 3.43-15.92.93-4.15.15-15.59a.58.57-6.5 01.49-.61q.3-.05.54.14z"/><path fill="#b3b3b2" d="M82 224.04q-.36-.02-.66-.25-.78-.62.18-.86c4.51-1.16 8.68-2.12 13.13-3.99q6.74-2.83 14.36-5.2a1.65 1.65 0 00.8-2.61q-2.9-3.64-2.75-8.85c.05-1.98-.6-3.05-1.93-4.31a.76.75 54.4 00-.83-.14c-2.19 1.04-4.05 2.58-6.06 3.48-4.77 2.14-10.17 2.99-14.46 4.65-3.95 1.53-8.5 2.81-12.16 4.93-2.28 1.32-4.03 2.63-6.59 3.41q-7.2 2.2-13.9 5.62c-2.84 1.44-10.48 1.81-10.29 5.91q.23 4.67.18 9.52a.98.97-71.9 00.39.78l1.88 1.37q-1.38.81-2.76.43a.74.73-85.5 01-.54-.64c-.58-5.69-2.57-13.52 4.14-16.21 8.29-3.32 16.81-6.3 24.81-10.32 7.31-3.68 13.94-6.17 21.43-8.3q9.56-2.72 17.96-8.2a.49.48-14.5 01.75.44q-.42 6.25.4 12.39c.26 1.95 1.49 3.41 2.19 5.25a.94.92-25.6 01-.41 1.13c-9.24 5.31-19.08 7.82-29.26 10.57z"/><path fill="#919497" d="M82 224.04q-5.25 2.03-12.26 3.95-12.58 3.45-25.25 9.38c-.31.14-.87.13-1.2.13l-1.88-1.37a.98.97-71.9 01-.39-.78q.05-4.85-.18-9.52c-.19-4.1 7.45-4.47 10.29-5.91q6.7-3.42 13.9-5.62c2.56-.78 4.31-2.09 6.59-3.41 3.66-2.12 8.21-3.4 12.16-4.93 4.29-1.66 9.69-2.51 14.46-4.65 2.01-.9 3.87-2.44 6.06-3.48a.76.75 54.4 01.83.14c1.33 1.26 1.98 2.33 1.93 4.31q-.15 5.21 2.75 8.85a1.65 1.65 0 01-.8 2.61q-7.62 2.37-14.36 5.2c-4.45 1.87-8.62 2.83-13.13 3.99q-.96.24-.18.86.3.23.66.25zM299.08 219.46q.67.05.78.75a.58.58 0 01-.42.66c-6.98 1.91-13.01-.35-19.24.88-.5.1-.52-.01-.79-.32a.88.87-23.3 00-.76-.3c-8 .89-16.46.58-24.29 1.1a.55.54-3.7 00-.51.57q.03.5.44.7c-5.17.45-13.22 1.39-16.45 6.02q-4.96 7.12-11.11 13.11-2.54.83-4.08 2.94c-2.44 3.33-6.25 5.58-9.47 8.43a.41.41 0 00.23.71l.84.08c-6.47 5.8-7.4 11.3-10.5 18.75q-2.41.98-2.34 3.23.14 4.43-.47 6.21-.65 1.92.46 5.8-.14 3.81-1.4 7.51-.41-.71-1.02-.57a.8.79 88.4 00-.6.64c-.4 2.36-.98 4.36-1.19 6.85q-.35 4.18-1.88 8.12a.52.51-70 00.31.68q.31.1.59-.01c-1.75 5.48-4.14 10.7-4.74 16.27-.76 7.11.64 13.88.1 19.71q-.48-.56-.95-.7a.53.53 0 00-.69.57l.21 1.85a.21.2 78.1 01-.14.22l-.31.1a.37.37 0 01-.48-.3l-.69-4.59a1.79 1.72 53 01.11-.92q.4-.94-.34-1.64a.91.89 27.2 01-.27-.82q.55-2.82-.04-6.79-.52-3.46.1-9.45a.4.4 0 00-.47-.44l-1.07.18.57-4.94q2.23-1.53 1.88-3.96c-1.44-10 .17-22.36 1.09-32.49.2-2.18 1.75-14.22 3.18-15.12q6.46-4.05 12.15-9.14a.36.35 37.7 00-.08-.58l-.58-.31q3.76-4.02 6.21-8.96l.13.81a.35.34-32.9 00.63.13q2.78-4.11 4.53-8.05c1.33-2.99 3.8-6 4.13-9.75.18-1.97 6.29-4.77 7.98-5.7 4.26-2.33 7.47-5.95 13.2-6.38q1.24-.09.72-2.1 5.5.43 10.47-.17c-.71 2.24 3.83 1.6 5.17 1.43a1.26 1.23-26.5 011 .32q.56.52 1.04-.13a1.06 1.04-71.4 01.81-.41l9.2-.17a1.42 1.41-67.2 00.95-.39l.38-.36a1.04 1.03-64.5 01.81-.29q1.6.1 1.6-1.54 11.61-1.02 23.31-.47a.66.65-4.7 01.6.5q.37 1.53 1.46 2.43z"/><path fill="#b3b3b2" d="M302.04 217l-.59 3.46a.38.38 0 00.38.44l2.97-.03a.25.25 0 00.24-.33l-1.04-3.25q1.91 1.46 2.68 3.84a.4.4 0 01-.35.52c-3.28.23-6.54.8-9.69.88q-21.18.48-42.35.97-.41-.2-.44-.7a.55.54-3.7 01.51-.57c7.83-.52 16.29-.21 24.29-1.1a.88.87-23.3 01.76.3c.27.31.29.42.79.32 6.23-1.23 12.26 1.03 19.24-.88a.58.58 0 00.42-.66q-.11-.7-.78-.75l-.07-1.86a.72.72 0 01.48-.72q1.26-.46 2.55.12zM273.71 217q0 1.64-1.6 1.54a1.04 1.03-64.5 00-.81.29l-.38.36a1.42 1.41-67.2 01-.95.39l-9.2.17a1.06 1.04-71.4 00-.81.41q-.48.65-1.04.13a1.26 1.23-26.5 00-1-.32c-1.34.17-5.88.81-5.17-1.43l20.96-1.54z"/><path fill="#919497" d="M302.04 217l1.96.29 1.04 3.25a.25.25 0 01-.24.33l-2.97.03a.38.38 0 01-.38-.44l.59-3.46z"/><path fill="#fafcdf" d="M313.14 234.32q-.29-7.98-2.16-15.58a1.26 1.25-6.1 011.26-1.55c8.99.26 18.3 1.24 26.7 1.41q6.88.14 13.58.33a.86.85-78.8 01.77 1.16c-2.09 5.49-6.52 13.54-6.71 19.21-.15 4.37-.52 35.83-1.97 37.29-1.36 1.38-10.28 2.18-12.62 2.53-7.32 1.11-7.78 7.18-7.86 14.44q-.25 22.97-.38 45.94-.06 10.47 2.87 42c1.15 12.46.73 23.95.28 36.14-.06 1.58-.61 2.77-1.52 3.85q-1.28 1.5-1.39-.47-.51-9.43-4.49-17.47c-1.1-2.2-1.52-5.63-1.49-8.04.23-20.09 1.45-40.1.53-60.17-.8-17.62-1.44-35.2-2.54-52.8-.89-14.09-2.9-28.31-3.53-40.79-.12-2.36.76-4.99.67-7.43z"/><path fill="#919497" d="M370.79 231.5l-.17-.61a.3.3 0 00-.55-.05c-3.18 6.39-6.72 12.12-8.3 19.12a.45.45 0 00.41.55q.5.04.78-.26-.84 16.13-1.96 32.25c-.85 12.23-3.31 24.14-5.04 36.25q-1.5.64-1.06 2.62a.69.68 4 00.44.5l.37.13c-.36 12.51-1.5 25.38-1.33 37.43.05 3.2 1.13 35.72-.85 35.79a.19.18 1.2 01-.2-.2q.76-11.44-.87-22.77-1.36-16.14-3.02-32.25c-1.2-11.66 1.13-21.07 2.35-31.25q.51-2.24.58-4.57c.3-10.26-.76-22.68-.78-30.58q-.05-15.94 1.5-31.84c.61-6.33 4.02-15.9 10.31-19.18q2.05-1.07 6.38-1.15 9.66-.16 19.18-.97 4.93.69 9.86-.19c.42-.07.39-.03.47-.44a.47.47 0 00-.44-.56l-.85-.06c3.13-.29 6.1-.51 9.34-.34q15.69.82 31.41.81c4.18 0 14.1.19 17.14 2.88a1.66 1.66 0 01-.87 2.89c-13.16 1.82-27.89-1.28-42.01-1.87-3.91-.16-10.13-.04-13.93 1.3q-10.92 3.86-23.82 4.58-2.29.13-4.47 2.04z"/><path fill="#b3b3b2" d="M242.28 218.71q.52 2.01-.72 2.1c-5.73.43-8.94 4.05-13.2 6.38-1.69.93-7.8 3.73-7.98 5.7-.33 3.75-2.8 6.76-4.13 9.75q-1.75 3.94-4.53 8.05a.35.34-32.9 01-.63-.13l-.13-.81q4.98-8.84 8.79-18.31a1.76 1.74 83.6 01.59-.75q10.23-7.34 21.94-11.98zM398 219.21l.85.06a.47.47 0 01.44.56c-.08.41-.05.37-.47.44q-4.93.88-9.86.19 4.51-1.26 9.04-1.25zM128.71 227.5q-.22 1.02-1.01 1.04a1.16 1.12-22 01-.84-.34q-.73-.76-1.89-.28-8.57 3.53-17.48 6.04-2.21.62-3.29 1.56a1.12 1.1 69.8 00-.38.84q0 7.16-.09 14.24c-.01.69.33 1.04 1.02.94l-1.96 1.96q-.47-7.49-.25-15c.18-6.14 4.92-5.63 9.48-7.17q7.77-2.63 15.53-5.26a.67.67 0 01.78.26q.35.52.38 1.17z"/><path fill="#919497" d="M128.71 227.5l1.85 23.51q-1.16-3.28-3.86-5.09a.73.72-46.2 00-.83.02c-6.53 4.78-4.72 19.14-2.62 25.59 1.74 5.33 6.08 1.51 6.89-1.75q.74-3 1.4-6.03 1.28 4.34.79 8.72-.13 15.33-.28 30.61c-.01.83.31 1.15 1.16.92.65 6.68 1.06 12.58.62 19.67q-1.21 19.54.45 39.05c.57 6.63 2.8 14.97 3.18 22.78q-.21-.16-.26-.43a.37.36 85.4 00-.36-.31l-.37-.01a.14.14 0 00-.14.16l3.85 25.86q1.31 3.2 1.26 7.29-.14 10.8-.48 16.44l-.3-1.37a.57.56-6.8 00-.57-.44c-1.07.04-.73 17.08-.69 18.86a.48.47 2.2 01-.52.48q-9.73-.98-19.38-1.31-1.11-.03-1 1.24l-4.5-.42.53-.04q.8-.06.12-.48l-.54-.34a1.4 1.39-82.3 01-.6-.79c-.58-2.01-1.8-8.02-4.8-7.14q-1.71-2.26-1.17-5c2.81 1.62 4.71 2.48 6.09-1.21 2.4-6.45 3.07-19.61-2.98-24.99a.55.55 0 00-.7-.02l-3.41 2.72q-.36-4.97-.12-9.94c.29-5.82-.26-11.51.12-17.31q2.15 1.89 4.63.55a1.26 1.25-4.7 00.58-.68q4.53-12.64-.79-24.75a1.87 1.87 0 00-3.02-.58q-1.92 1.9-2.9 5.46c-.17-1.6-.81-3.18-.9-4.69q-1.3-22.48-1.62-45 0-.59.19-.03l.25.72 3.3 10.51a1.33 1.33 0 002.29.45c4.47-5.36 3.94-15.69 2.29-21.99q-.73-2.83-2.34-4.34a1.64 1.64 0 00-2.69.7l-2.85 8.92c-2.27-13.67-.22-27.83-.17-38.75l2.71 3.81a.48.48 0 00.7.09c5.16-4.34 6.14-24.22.51-27.51a.62.62 0 00-.8.16l-1.16 1.49c-.69.1-1.03-.25-1.02-.94q.09-7.08.09-14.24a1.12 1.1 69.8 01.38-.84q1.08-.94 3.29-1.56 8.91-2.51 17.48-6.04 1.16-.48 1.89.28a1.16 1.12-22 00.84.34q.79-.02 1.01-1.04zm-11.913 74.378a14.18 4.63 89 004.382-14.259 14.18 4.63 89 00-4.877-14.097 14.18 4.63 89 00-4.381 14.259 14.18 4.63 89 004.876 14.097zm10.81 23.262a13.98 4.81 89.6 004.713-14.014 13.98 4.81 89.6 00-4.908-13.946 13.98 4.81 89.6 00-4.712 14.014 13.98 4.81 89.6 004.908 13.946zm-20.467 24.84q12.11 0 24.12-1.64a.79.78 86.3 00.68-.78l.01-2.65a.66.66 0 00-.71-.66q-8.52.55-17.06 1.05c-3.12.18-9.78.37-7.74 4.26a.79.78-13.6 00.7.42zm22.296 37.467a14.14 4.72 88.8 004.423-14.236 14.14 4.72 88.8 00-5.015-14.038 14.14 4.72 88.8 00-4.423 14.236 14.14 4.72 88.8 005.015 14.038zm1.54 52.155a14.03 4.71 88.1 004.241-14.178 14.03 4.71 88.1 00-5.172-13.866 14.03 4.71 88.1 00-4.242 14.178 14.03 4.71 88.1 005.172 13.866zM527.54 398.45q-.96 6.47-.4 12.96a1.24 1.2-65.9 00.21.58c1.35 1.92 1.07 17.11 1.07 20.48a.4.39 6.9 01-.49.38c-1.34-.32-4.58-2.14-5.43-.14q-2.46.77-4.37.11a1.2 1.2 0 01-.24-2.15q1.81-1.12 1.63-3.25a.58.58 0 00-.6-.53l-2.17.07q-.87-1.49-2.4-.6-.55.32-.48-.31l.15-1.21a1.35 1.34 73.9 01.5-.91q2.56-2.07 1.88-5.24l.8-2.21a.44.44 0 00-.24-.55c-2.03-.81-11.69 13.97-12.84 16.25q-2.38 2.18-2.62 5.53l-3.75.08q-.77-1.21-2.16-1.68a.92.9-85.9 01-.61-.72q-.3-1.79.28-3.54a1.7 1.67-46.1 00-.01-1.03c-1.01-2.92-.33-6.07-.4-8.26q-.19-6.39.02-12.76a.38.38 0 00-.58-.34q-1.39.82-1.08 2.54-1.88-17.7-2.17-35.5l.14.27a.86.86 0 00.69.46l.44.03a.22.21-87.6 00.23-.22c-.09-4.78-.47-9.41-.36-14.25.25-10.84-1.15-22.01-1.2-32.27q-.1-17.81-1.49-35.58c-.14-1.76.19-4-.19-6.03-1.32-6.97-.63-14.99-.9-22.16q-.02-.56-1.15-.74-1.13-8.09-.04-16.26c.06.99-.4 3.14 1.26 3.03a.54.54 0 00.51-.55c-.07-7.67-.6-13.1 5.05-19.04a1.53 1.5-72.1 01.84-.44c1.33-.23 9.18-2.17 9.16-3.33a.43.43 0 00-.38-.42l-.4-.04c10.46-1.86 18.31-1.05 18.85 11.8 1.42 33.14-.15 66.23 1.03 99.31.25 6.97.25 14.21.83 20.89 1.09 12.42 3.42 25.07 3.58 37.49z"/><path fill="#b3b3b2" d="M503.25 228.96l.4.04a.43.43 0 01.38.42c.02 1.16-7.83 3.1-9.16 3.33a1.53 1.5-72.1 00-.84.44c-5.65 5.94-5.12 11.37-5.05 19.04a.54.54 0 01-.51.55c-1.66.11-1.2-2.04-1.26-3.03.36-6.26 1.3-12.53 5.26-17.39a1.63 1.57-77.8 01.8-.54l9.98-2.86zM370.79 231.5c-2.79 6-6.78 12.2-7.83 18.75q-.28.3-.78.26a.45.45 0 01-.41-.55c1.58-7 5.12-12.73 8.3-19.12a.3.3 0 01.55.05l.17.61z"/><path fill="#919497" d="M79.71 272.75q-1.64-1.05-2.32-3.17a2 1.99 68.4 00-2.75-1.19c-4.82 2.28-2.07 21.28-.86 25.58a1.08 1.08 0 001.73.53l3.34-2.79a1.03 1.03 0 00.37-.87q-.1-1.73.62-3.4.91 5.5.62 11.06-.84 2.87-.61 5.81c.56 6.95.61 13.96.15 20.91q-.22 3.26 1.06 6.31c.99 10.43 1.05 21.63 1.92 31.26 1.85 20.45 3.43 36.65 2.57 55.28q-.51 11.06.06 26.75c.11 2.9-2.18 3.31-4.61 3.06-6.02-.63-11.32-.56-14.44-4.05a1.07 1.05-21.3 00-.84-.36l-3.83.12q-.55-2.84-.74-9.84c-.31-11.51.19-20.51-1.11-30.39-.9-6.78.07-11.85-.35-17.59-.47-6.4-.47-12.77-1.01-19.17a.42.41 87.6 00-.4-.37c-.8-.03-.87.67-.82 1.27l-.66-8.95q8.41-2.38 19.21-4.51.85-.17.95-.85a.39.38-82.9 00-.34-.44l-.37-.04q3.57.1 3.59-2.75a.5.5 0 00-.51-.5l-6.05.15q-5.92-.38-11.72.94c-4.72 1.07-2.35-3.94-1.56-5.76 4.87-5.31 4.38-19.9.09-25.5a.42.42 0 00-.65-.02c-3.89 4.47-3.28 10.73-3.23 16.23l-1.29-16.92q1.02-4.84.36-9.69c-1.72-12.51-.9-24.99 1.01-37.45.29-1.87 1.23-3.21 1.2-5.07q-.15-7.55-.56-15.09a.54.54 0 00-.54-.52l-1.1-.01c-.06-6.25 18.59-10.34 22.96-10.42a1.12 1.12 0 011.14 1.1q.27 13.91.66 27.32.06 2.03-.34 4zm-9.079 148.504a12.77 3.83 88.2 003.427-12.884 12.77 3.83 88.2 00-4.23-12.644 12.77 3.83 88.2 00-3.426 12.884 12.77 3.83 88.2 004.23 12.644z"/><path fill="#b3b3b2" d="M438.79 241.81q-10.86-.88-14.69 8.31c-1.69 4.04.12 8.05 2.34 11.44a.63.63 0 00.76.24q.61-.23 1.01-.8.39 1.73-.41 4.37c-8.57-7.6-6.91-20.16 4.11-23.97q3.7-1.28 6.88.41z"/><path fill="#919497" d="M438.79 241.81q3.54 1.19 6.21 3.9c-8.15 4.16-15.58 4.77-16.79 15.29q-.4.57-1.01.8a.63.63 0 01-.76-.24c-2.22-3.39-4.03-7.4-2.34-11.44q3.83-9.19 14.69-8.31z"/><path fill="#b3b3b2" d="M226.73 242.63c-2.63 4.68-8.54 8.45-12.48 12.16l-.84-.08a.41.41 0 01-.23-.71c3.22-2.85 7.03-5.1 9.47-8.43q1.54-2.11 4.08-2.94z"/><path fill="#fff" d="M130.56 251.01l.98 12.74q-.66 3.03-1.4 6.03c-.81 3.26-5.15 7.08-6.89 1.75-2.1-6.45-3.91-20.81 2.62-25.59a.73.72-46.2 01.83-.02q2.7 1.81 3.86 5.09zM445 245.71c4.57 5.24 4.2 11.96-.16 17.18q-6.22 7.42-17.04 2.48.8-2.64.41-4.37c1.21-10.52 8.64-11.13 16.79-15.29zM102.79 273.5c-.4-3.67-1.39-7.09-1.12-10.69q.36-4.68 1.12-9.31l1.96-1.96 1.16-1.49a.62.62 0 01.8-.16c5.63 3.29 4.65 23.17-.51 27.51a.48.48 0 01-.7-.09l-2.71-3.81z"/><path fill="#b3b3b2" d="M55.29 250.75l1.1.01a.54.54 0 01.54.52q.41 7.54.56 15.09c.03 1.86-.91 3.2-1.2 5.07-1.91 12.46-2.73 24.94-1.01 37.45q.66 4.85-.36 9.69-2.65-15.77-1.86-25.08c1.2-14.17 2.68-28.51 2.23-42.75z"/><path fill="#919497" d="M287.5 256.46l-1.2 1.6a1.49 1.48 10 01-.79.55c-8.68 2.56-13.51 6.78-12.1 16.59.18 1.26-.19 1.92-.57 3.12q-2.73-2.51-4.3-5.61c-5.84-11.46 7.55-24.7 18.96-16.25z"/><path fill="#b3b3b2" d="M224 255.79q.37.46.25.92a.7.7 0 01-.67.5q-3.83.02-6.99 1.83-2.01 1.15-2.85 3.54-2.15 6.21-.65 12.86a.8.79-89.5 00.57.59l.8.22-.75 1q-4.64-3.87-3.96-9.25 1.52-12.06 14.25-12.21z"/><path fill="#919497" d="M224 255.79q3.38.4 6.37 2.29c-8.97 3.53-16.53 6.98-15.49 16.69.06.57-.15 1.02-.42 1.48l-.8-.22a.8.79-89.5 01-.57-.59q-1.5-6.65.65-12.86.84-2.39 2.85-3.54 3.16-1.81 6.99-1.83a.7.7 0 00.67-.5q.12-.46-.25-.92z"/><path fill="#fff" d="M287.5 256.46c7.3 4.98 7.69 13.44 2.19 19.83q-6.17 7.17-16.85 2.03c.38-1.2.75-1.86.57-3.12-1.41-9.81 3.42-14.03 12.1-16.59a1.49 1.48 10 00.79-.55l1.2-1.6zM230.37 258.08c17.7 13.58-7.75 34.05-16.66 19.17l.75-1c.27-.46.48-.91.42-1.48-1.04-9.71 6.52-13.16 15.49-16.69z"/><path fill="#b3b3b2" d="M204.75 258.71l.58.31a.36.35 37.7 01.08.58q-5.69 5.09-12.15 9.14c-1.43.9-2.98 12.94-3.18 15.12-.92 10.13-2.53 22.49-1.09 32.49q.35 2.43-1.88 3.96.92-16.46 1.43-32.8.36-11.19 2.25-16.71c1.45-4.22 9.49-8.48 13.96-12.09z"/><path d="M467.29 261.75q0 1.64-.32 3.24c-2.47 12.56-3.12 23.58-1.78 37.18q1.32 13.38 2.31 26.79l-.62.46a.37.36 67.3 01-.58-.24q-1.9-12.48-2.59-23.63-.22-3.39-.61-5.9c-1.91-12.04.6-26.4 3.13-38.23a.58.57-10.8 01.25-.36l.31-.18a.3.29 71.7 01.45.23l.05.64z"/><path fill="#b3b3b2" d="M409.5 266.29l.12.43a.32.32 0 01-.35.4c-1.16-.17-5.75.86-5.77-.58q2.96-.77 6-.25zM487.25 266.01q1.13.18 1.15.74c.27 7.17-.42 15.19.9 22.16.38 2.03.05 4.27.19 6.03q1.39 17.77 1.49 35.58c.05 10.26 1.45 21.43 1.2 32.27-.11 4.84.27 9.47.36 14.25a.22.21-87.6 01-.23.22l-.44-.03a.86.86 0 01-.69-.46l-.14-.27q-.76-31.75-1.55-63.51c-.36-14.83-2.28-31.18-2.24-46.98z"/><path fill="#919497" d="M409.5 266.29q3.54.94 6 3.67c-7.74 4.77-16.06 5.43-14.94 16.86a1.11 1.08-25.8 01-.32.88l-1.28 1.3q-3.76-1.23-4.17-4.67l.8-8.61a.67.67 0 00-.47-.7q-.42-.14-.83-.02 2.65-6.33 9.21-8.46c.02 1.44 4.61.41 5.77.58a.32.32 0 00.35-.4l-.12-.43z"/><path d="M560.46 268.5c.43 14.22.37 27.81 1.72 42.55 3.05 33.14-.84 66.21.59 99.45.26 6.11 2.37 6.5 6.2 10.39a1.13 1.11 24.6 01.33.86l-.34 7.13q-1.4-3-1.25-6.36a1.27 1.26 25.8 00-.31-.88c-2.68-3.1-6.53-5.03-6.56-9.89q-.14-27.6-.05-35.94c.12-12.3 1.37-27.83 1.39-42.12.02-8.36-2.17-22.8-2.24-34.25-.07-10.74-1.17-20.47-1.05-30.7a.77.77 0 01.76-.76q.58 0 .81.52z"/><path fill="#fff" d="M79.71 272.75l.13 14.69q-.72 1.67-.62 3.4a1.03 1.03 0 01-.37.87l-3.34 2.79a1.08 1.08 0 01-1.73-.53c-1.21-4.3-3.96-23.3.86-25.58a2 1.99 68.4 012.75 1.19q.68 2.12 2.32 3.17zM415.5 269.96c11.29 10.02.05 25.48-13.43 21.94a1.8 1.69 73.5 01-.82-.48l-2.29-2.42 1.28-1.3a1.11 1.08-25.8 00.32-.88c-1.12-11.43 7.2-12.09 14.94-16.86z"/><path fill="#b3b3b2" d="M132.33 272.47q1.33 15.8.88 31.53c-.85.23-1.17-.09-1.16-.92q.15-15.28.28-30.61z"/><ellipse fill="#fff" transform="rotate(89 -88.108 203.151)" rx="14.18" ry="4.63"/><path fill="#b3b3b2" d="M203.75 273.54l-2.35 15.24q-1.11-3.88-.46-5.8.61-1.78.47-6.21-.07-2.25 2.34-3.23zM394.29 275q.41-.12.83.02a.67.67 0 01.47.7l-.8 8.61q-1.75-4.74-.5-9.33z"/><ellipse fill="#919497" transform="rotate(85.5 115.724 438.307)" rx="13.09" ry="3.39"/><path fill="#b3b3b2" d="M384.75 294.46l-1.13.82a.86.86 0 01-.86.1c-6.59-2.74-13.88 2.53-15.13 8.99a.31.3-86 01-.27.24c-1.35.06.53 4.06.92 4.56q.3.39.37.86l.26 1.6a.75.74 82.7 00.81.63q.63-.06.99-.51.28 1.42-1.18 2.98-2.8-3.48-3.33-7.5c-1.18-9.11 10.28-18.57 18.55-12.77z"/><path fill="#919497" d="M384.75 294.46q1.67.43 2.75 1.75c-.5.65-.92 1.3-1.74 1.61-7.26 2.72-13.73 5.5-15.05 13.93q-.36.45-.99.51a.75.74 82.7 01-.81-.63l-.26-1.6q-.07-.47-.37-.86c-.39-.5-2.27-4.5-.92-4.56a.31.3-86 00.27-.24c1.25-6.46 8.54-11.73 15.13-8.99a.86.86 0 00.86-.1l1.13-.82z"/><path fill="#b3b3b2" d="M200 296.29L196.21 312q-.28.11-.59.01a.52.51-70 01-.31-.68q1.53-3.94 1.88-8.12c.21-2.49.79-4.49 1.19-6.85a.8.79 88.4 01.6-.64q.61-.14 1.02.57z"/><path fill="#fff" d="M387.5 296.21c8.78 6.9 4.63 19.85-5.28 22.76q-7.06 2.08-12.69-4.24 1.46-1.56 1.18-2.98c1.32-8.43 7.79-11.21 15.05-13.93.82-.31 1.24-.96 1.74-1.61z"/><ellipse fill="#fff" transform="rotate(89.6 -92.915 219.782)" rx="13.98" ry="4.81"/><path fill="#b3b3b2" d="M80.46 298.5q1.3 16.45.6 33.03-1.28-3.05-1.06-6.31c.46-6.95.41-13.96-.15-20.91q-.23-2.94.61-5.81z"/><path fill="#fff" d="M102.96 318v-5.75l2.85-8.92a1.64 1.64 0 012.69-.7q1.61 1.51 2.34 4.34c1.65 6.3 2.18 16.63-2.29 21.99a1.33 1.33 0 01-2.29-.45l-3.3-10.51z"/><path fill="#b3b3b2" d="M286.26 305.24q-1.19 1.38-2.85.5a1.43 1.41-36.4 00-.91-.13c-1.71.34-3.9.02-5.41.59-3.82 1.45-6.02 7.91-6.39 11.56a.72.71-86.9 01-.71.64h-.71a.54.53 87 01-.53-.48l-.04-.42q1.83-15.85 17.55-12.26z"/><path fill="#919497" d="M286.26 305.24l4.68 2.97q-8.49 2.98-14.07 8.72c-3.38 3.48-2.05 7.41-2.66 11.32q-5.72-3.81-5.5-10.75l.04.42a.54.53 87 00.53.48h.71a.72.71-86.9 00.71-.64c.37-3.65 2.57-10.11 6.39-11.56 1.51-.57 3.7-.25 5.41-.59a1.43 1.41-36.4 01.91.13q1.66.88 2.85-.5zM232.58 309.23c-8.09 4.21-16.96 6.58-16.87 17.77q-5.04-7.71-.21-15.5.32-.52-.65-1.47 8.3-7.87 17.73-.8z"/><path d="M351.79 308.75c-1.22 10.18-3.55 19.59-2.35 31.25q1.66 16.11 3.02 32.25-.51.19-1.07.16a.55.54-88.3 01-.51-.55q.02-5.14-1.41-14.86-1.77-12.13-1.58-27.79c.08-7.21 1.55-14.39 2.77-21.61a.49.49 0 01.87-.21q.37.51.26 1.36z"/><path fill="#fff" d="M290.94 308.21q8.14 11.93-1.51 19.43c-4.84 3.76-10.24 4.29-15.22.61.61-3.91-.72-7.84 2.66-11.32q5.58-5.74 14.07-8.72zM232.58 309.23q5.27 3.47 4.87 10.3c-.62 10.59-13.84 17.31-21.74 9.22V327c-.09-11.19 8.78-13.56 16.87-17.77z"/><path fill="#b3b3b2" d="M214.85 310.03q.97.95.65 1.47-4.83 7.79.21 15.5v1.75q-8.23-8.7-.86-18.72zM355.96 318.75l-.25 3.25-.37-.13a.69.68 4 01-.44-.5q-.44-1.98 1.06-2.62z"/><path fill="#fff" d="M60 344.79q-1.81-1.52-2.45-3.77a1.67 1.67 0 00-.5-.81l-.51-.46-.33-4.25c-.05-5.5-.66-11.76 3.23-16.23a.42.42 0 01.65.02c4.29 5.6 4.78 20.19-.09 25.5z"/><path fill="#b3b3b2" d="M191.57 347.98q1 4.79 1.05 13.58.13 21.16 1.92 35.88.28 2.33.02 3.59-.12.58-.18-.01c-.61-5.48-.96-11.38-2.54-16.67-.47-1.57-.4-3.59-.54-4.79q-1.04-8.58-2-16.98 3.05-1.37 1.07-4.41a1.06 1.04-52.7 01-.11-.88c.28-.85.85-6.42-.91-6a.65.65 0 00-.49.72l1.24 8.82a.82.82 0 01-.33.78q-.27.2-.52.18-3.58-18.09-2.71-36.54l1.07-.18a.4.4 0 01.47.44q-.62 5.99-.1 9.45.59 3.97.04 6.79a.91.89 27.2 00.27.82q.74.7.34 1.64a1.79 1.72 53 00-.11.92l.69 4.59a.37.37 0 00.48.3l.31-.1a.21.2 78.1 00.14-.22l-.21-1.85a.53.53 0 01.69-.57q.47.14.95.7z"/><path fill="#fff" d="M366.58 336.44a1.01 1.01 0 01-.81-1.08l.12-1.43a.76.76 0 01.7-.7q10.83-.86 21.66-1c3.81-.06 8.82-.9 13.1-1q15.75-.36 38.9-.5 2.14-.01 3.78.86a.93.93 0 01.48.74c.2 2.97-7.73 2.75-9.77 2.75q-28.19-.08-56.33 1.58c-4.18.25-7.57.67-11.83-.22z"/><path fill="#fae4a9" d="M33.19 334.69q-.03-.28.25-.41.58-.28.47.36l-.31 1.7a.41.41 0 01-.8.04q-.31-1.08.39-1.69z"/><path fill="#b3b3b2" d="M56.54 339.75l.51.46a1.67 1.67 0 01.5.81q.64 2.25 2.45 3.77c-.79 1.82-3.16 6.83 1.56 5.76q5.8-1.32 11.72-.94l-13.53 2.42a.73.72 89.5 00-.59.61q-.27 1.73.61 3.23a.86.86 0 00.93.4l15.55-3.56.37.04a.39.38-82.9 01.34.44q-.1.68-.95.85-10.8 2.13-19.21 4.51l-.26-18.8zM533.82 341.16a.5.49-27.6 01.28-.88q.82-.06 1.87.15 8.59 1.7 17.37 2.83a.97.97 0 01.8 1.28c-.65 1.9-14.07-.57-16.14-1.02q-1.71-.37-4.18-2.36z"/><path fill="#201f1f" d="M107.14 349.98a.79.78-13.6 01-.7-.42c-2.04-3.89 4.62-4.08 7.74-4.26q8.54-.5 17.06-1.05a.66.66 0 01.71.66l-.01 2.65a.79.78 86.3 01-.68.78q-12.01 1.64-24.12 1.64z"/><path fill="#fff" d="M279.79 348.34a.7.7 0 01.16 1.02c-2.77 3.45-37.23 3.07-42.09 3.46-11.19.89-20.1 1.45-30.11 2.44q-1.23.12-4.94-.52a.71.69-84 01-.58-.73l.1-1.77a.75.75 0 01.68-.7q36.91-3.64 73.99-4.09 1.42-.02 2.79.89z"/><path fill="#201f1f" d="M76.25 352.71l-15.55 3.56a.86.86 0 01-.93-.4q-.88-1.5-.61-3.23a.73.72 89.5 01.59-.61l13.53-2.42 6.05-.15a.5.5 0 01.51.5q-.02 2.85-3.59 2.75z"/><path fill="#919497" d="M445.04 351.21l-1.02 1.84a1.21 1.21 0 01-.74.57c-11.85 3.03-12.04 8.32-12.96 19.44q-2.01-1.07-2.71-2.75-1.04-3.48-1.25-6.98c-.36-5.69 2.57-9.86 7.51-12.25a.53.53 0 00.24-.73q-.19-.33-.73-.62 6.05-1.31 11.66 1.48z"/><path fill="#b3b3b2" d="M433.38 349.73q.54.29.73.62a.53.53 0 01-.24.73c-4.94 2.39-7.87 6.56-7.51 12.25q.21 3.5 1.25 6.98-7.6-13.57 5.77-20.58z"/><path fill="#919497" d="M189.3 362.58l-.05-.79q.25.02.52-.18a.82.82 0 00.33-.78l-1.24-8.82a.65.65 0 01.49-.72c1.76-.42 1.19 5.15.91 6a1.06 1.04-52.7 00.11.88q1.98 3.04-1.07 4.41z"/><path fill="#fff" d="M445.04 351.21q9.6 8.89 3.7 18.12c-4.28 6.7-11.83 8.67-18.42 3.73.92-11.12 1.11-16.41 12.96-19.44a1.21 1.21 0 00.74-.57l1.02-1.84z"/><ellipse fill="#fff" transform="rotate(88.8 -126.036 252.592)" rx="14.14" ry="4.72"/><path fill="#fff" d="M106.54 387l-.83-5.25q-.88-7.35-.67-14.75.98-3.56 2.9-5.46a1.87 1.87 0 013.02.58q5.32 12.11.79 24.75a1.26 1.25-4.7 01-.58.68q-2.48 1.34-4.63-.55z"/><path fill="#b3b3b2" d="M290.5 365.21c-2.31.83-3.63-.69-5.33-1.02-2.12-.4-3.78-1-5.88-.24-8 2.9-8.76 12.28-5.49 19.03a.67.67 0 01-.11.76l-.48.51q-4.63-6.8-1.28-15.32c3.06-7.75 12.74-8.12 18.57-3.72z"/><path fill="#919497" d="M290.5 365.21l1.25 1c-2.88 2.31-6.57 3.12-9 4.79q-7.96 5.49-6.12 16.11-2.16-.85-3.42-2.86l.48-.51a.67.67 0 00.11-.76c-3.27-6.75-2.51-16.13 5.49-19.03 2.1-.76 3.76-.16 5.88.24 1.7.33 3.02 1.85 5.33 1.02z"/><path fill="#b3b3b2" d="M61.89 443.59q-1.98-1.06-1.86-3.5c.34-6.84-.25-14.06-.46-20.93q-.2-6.19-1.13-19.3-1.15-16.15-.98-32.36c-.05-.6.02-1.3.82-1.27a.42.41 87.6 01.4.37c.54 6.4.54 12.77 1.01 19.17.42 5.74-.55 10.81.35 17.59 1.3 9.88.8 18.88 1.11 30.39q.19 7 .74 9.84z"/><path fill="#fff" d="M291.75 366.21c5.85 3.25 4.42 13.47 1.03 17.91q-5.69 7.45-16.15 2.99-1.84-10.62 6.12-16.11c2.43-1.67 6.12-2.48 9-4.79z"/><ellipse fill="#919497" transform="rotate(85.7 66.248 486.228)" rx="13.06" ry="3.55"/><path d="M105.71 381.75l.83 5.25c-.38 5.8.17 11.49-.12 17.31q-.24 4.97.12 9.94-1.15 11.82 1 23.5-.54 2.74 1.17 5l.1.55q-2.36 1.42-2.64-2.54c-.31-4.48-1.46-10.12-1.4-15.3.16-14.14.71-28.34-.44-42.45q-.1-1.23 1.38-1.26z"/><path fill="#b3b3b2" d="M137.46 385.5q2.51 12.47 2.72 25.27l-3.85-25.86a.14.14 0 01.14-.16l.37.01a.37.36 85.4 01.36.31q.05.27.26.43zM253.37 386.86q.39 2.41-.81 2.38-.52-.01-.98.23-11.06 5.57-5.04 17.02a1.94 1.85 34.2 01.22 1.03q-.18 2.55 2.45 3.23l-.21 1.63q-17.83-15.77 4.37-25.52z"/><path fill="#919497" d="M253.37 386.86q5.26.44 9.06 3.48-3.46 2.86-7.44 4.72c-6.34 2.95-7.96 9.11-5.78 15.69q-2.63-.68-2.45-3.23a1.94 1.85 34.2 00-.22-1.03q-6.02-11.45 5.04-17.02.46-.24.98-.23 1.2.03.81-2.38z"/><path fill="#fff" d="M262.43 390.34c13.36 8.75-.09 29.64-13.43 22.04l.21-1.63c-2.18-6.58-.56-12.74 5.78-15.69q3.98-1.86 7.44-4.72z"/><path d="M470.96 393.25q1.56 12.21.95 24.5c-.11 2.27-.95 4.64-.91 7.21q-.41.15-.79.05a.63.63 0 01-.47-.66c.28-3.58.91-7.03.81-10.53q-.25-9.89-.74-19.75-.05-.93 1.15-.82z"/><ellipse fill="#fff" transform="rotate(88.2 -175.65 240.48)" rx="12.77" ry="3.83"/><path fill="#b3b3b2" d="M527.54 398.45q1.35 14.29 2.15 28.47c.19 3.39.75 6.1-.31 9.47a.66.66 0 01-1.27-.04q-.99-4.1-5.61-3.64c.85-2 4.09-.18 5.43.14a.4.39 6.9 00.49-.38c0-3.37.28-18.56-1.07-20.48a1.24 1.2-65.9 01-.21-.58q-.56-6.49.4-12.96zM382.5 401.04l.72.41q1.29.72-.18.77c-2.58.08-4.47.48-6.43 2.33q-3.81 3.62-5.89 8.44a1.65 1.57-39.7 00-.11.94q.43 2.35-1.02 4.15c-3.67-8.63 4.68-16.71 12.91-17.04z"/><path fill="#919497" d="M382.5 401.04q3.21-.01 5.75 1.92c-1.41.62-2.37 1.65-3.85 2.08q-12.14 3.51-11.08 16.63a1.28 1.24-29.3 01-.26.87l-.35.46q-2.38-2.08-3.12-4.92 1.45-1.8 1.02-4.15a1.65 1.57-39.7 01.11-.94q2.08-4.82 5.89-8.44c1.96-1.85 3.85-2.25 6.43-2.33q1.47-.05.18-.77l-.72-.41z"/><path fill="#fff" d="M388.25 402.96q5.02 2.3 5.98 6.78 3.02 14-9.8 17.71-7.17 2.07-11.72-4.45l.35-.46a1.28 1.24-29.3 00.26-.87q-1.06-13.12 11.08-16.63c1.48-.43 2.44-1.46 3.85-2.08z"/><path fill="#b3b3b2" d="M497.75 437.79q-1.84.38-3.54-.33a.76.76 0 01-.47-.69l-.53-24.77q-.31-1.72 1.08-2.54a.38.38 0 01.58.34q-.21 6.37-.02 12.76c.07 2.19-.61 5.34.4 8.26a1.7 1.67-46.1 01.01 1.03q-.58 1.75-.28 3.54a.92.9-85.9 00.61.72q1.39.47 2.16 1.68z"/><path fill="#fff" d="M107.54 437.75q-2.15-11.68-1-23.5l3.41-2.72a.55.55 0 01.7.02c6.05 5.38 5.38 18.54 2.98 24.99-1.38 3.69-3.28 2.83-6.09 1.21z"/><ellipse fill="#fff" transform="rotate(88.1 -154.711 280.246)" rx="14.03" ry="4.71"/><path fill="#919497" d="M236 417.96c-8.5 1.48-17.27 6.42-17.3 16.25 0 1.08-.45 1.66-.93 2.62l-1.27-1.79c.44-.34.54-.79.35-1.34q-1.83-5.37-.39-10.84a1.08 1.03-57.6 00-.18-.91q-.35-.44-.99-.45.51-1.66 1.15-2.31 9.2-9.48 19.56-1.23z"/><path fill="#fff" d="M236 417.96c5.21 3.16 4.52 12.4 2.21 16.32-4.49 7.62-13.92 8.49-20.44 2.55.48-.96.93-1.54.93-2.62.03-9.83 8.8-14.77 17.3-16.25z"/><path fill="#b3b3b2" d="M516.4 418.69q.68 3.17-1.88 5.24a1.35 1.34 73.9 00-.5.91l-.15 1.21q-.07.63.48.31 1.53-.89 2.4.6l-1.52.51a1.36 1.34-84.9 00-.73.62q-1.03 1.94-3.16 2.48a.81.81 0 01-.94-1.11q2.52-5.74 6-10.77zM215.29 421.5q.64.01.99.45a1.08 1.03-57.6 01.18.91q-1.44 5.47.39 10.84c.19.55.09 1-.35 1.34q-4.21-6.4-1.21-13.54z"/><path fill="#919497" d="M578.5 430.08l-6.25 1.63q2.57-3.17 6.25-1.63z"/><path fill="#b3b3b2" d="M504.12 432.18l-1.52 5.05a.66.65-81.9 01-.61.47l-.49.01q.24-3.35 2.62-5.53z"/><path fill="#fff" d="M191.35 439.6c-2.84-.72-7.23-2.67-5.56-6.86a.46.46 0 01.71-.19q3.43 2.67 5.2 6.63.25.57-.35.42z"/><path fill="#b3b3b2" d="M140.96 434.5l-.16 17.96a1.08 1.07-85 01-1.25 1.06q-10.25-1.75-21.05-1.56-.11-1.27 1-1.24 9.65.33 19.38 1.31a.48.47 2.2 00.52-.48c-.04-1.78-.38-18.82.69-18.86a.57.56-6.8 01.57.44l.3 1.37zM114 451.54c-1.77-.1-3.95-6.59-5.19-8.24l-.1-.55c3-.88 4.22 5.13 4.8 7.14a1.4 1.39-82.3 00.6.79l.54.34q.68.42-.12.48l-.53.04zM590.25 589.71l.46.04-.27 1.25h-.5q-4.88-.63-9.75 0h-13.25q-7.38-.63-14.75 0h-.25q-2.88-.63-5.75 0h-26.25q-6.63-.63-13.25 0h-2.75q-2.88-.63-5.75 0h-2.25q-10.63-.63-21.25 0h-10.25q-2.13-.63-4.25 0h-36.25q-2.88-.63-5.75 0h-2.25q-6.88-.63-13.75 0h-10.25q-2.88-.63-5.75 0h-2.25q-2.63-.63-5.25 0h-18.75q-2.88-.63-5.75 0h-2.25q-7.38-.63-14.75 0h-.25q-3.38-.63-6.75 0h-1.25q-3.88-.63-7.75 0h-.25q-3.88-.63-7.75 0h-.25q-3.88-.63-7.75 0h-19.25q-5.88-.63-11.75 0h-18.25q-7.38-.63-14.75 0h-.25q-3.88-.63-7.75 0h-.25q-5.88-.63-11.75 0h-16.25q-2.38-.63-4.75 0h-.25q-5.38-.63-10.75 0h-16.25q-5.88-.63-11.75 0h-.25q-3.88-.63-7.75 0h-.25q-3.88-.63-7.75 0h-1.25q-2.88-.63-5.75 0h-19.25q-14.88-.63-29.75 0h-.25q-6.38-.63-12.75 0H63.94q-2.88-.63-5.75 0h-.25q-3.88-.63-7.75 0h-.25q-3.88-.63-7.75 0h-1.25q-3.38-.63-6.75 0h-2.25q-2.88-.63-5.75 0h-1.25q-4.38-.63-8.75 0h-.25L0 590.44v-.5q3.03.3 6.06.3 291.53.02 583.06 0a1.18 1.16 27.1 00.67-.21l.46-.32z"/><path fill="#201f1f" d="M0 590.44l15.94.56H0v-.56zM24.94 591h-8.75q4.37-.63 8.75 0zM31.94 591h-5.75q2.87-.63 5.75 0zM40.94 591h-6.75q3.37-.63 6.75 0zM49.94 591h-7.75q3.87-.63 7.75 0zM57.94 591h-7.75q3.87-.63 7.75 0zM63.94 591h-5.75q2.87-.63 5.75 0zM88.94 591H76.19q6.37-.63 12.75 0zM118.94 591H89.19q14.87-.63 29.75 0zM143.94 591h-5.75q2.87-.63 5.75 0zM152.94 591h-7.75q3.87-.63 7.75 0zM160.94 591h-7.75q3.87-.63 7.75 0zM172.94 591h-11.75q5.87-.63 11.75 0zM199.94 591h-10.75q5.37-.63 10.75 0zM204.94 591h-4.75q2.37-.63 4.75 0zM232.94 591h-11.75q5.87-.63 11.75 0zM240.94 591h-7.75q3.87-.63 7.75 0zM255.94 591h-14.75q7.37-.63 14.75 0zM285.94 591h-11.75q5.87-.63 11.75 0zM312.94 591h-7.75q3.87-.63 7.75 0zM320.94 591h-7.75q3.87-.63 7.75 0zM328.94 591h-7.75q3.87-.63 7.75 0zM336.94 591h-6.75q3.37-.63 6.75 0zM351.94 591h-14.75q7.37-.63 14.75 0zM359.94 591h-5.75q2.87-.63 5.75 0zM383.94 591h-5.25q2.62-.63 5.25 0zM391.94 591h-5.75q2.87-.63 5.75 0zM415.94 591h-13.75q6.87-.63 13.75 0zM423.94 591h-5.75q2.87-.63 5.75 0zM464.44 591h-4.25q2.12-.63 4.25 0zM495.94 591h-21.25q10.62-.63 21.25 0zM503.94 591h-5.75q2.87-.63 5.75 0zM519.94 591h-13.25q6.62-.63 13.25 0zM551.94 591h-5.75q2.87-.63 5.75 0zM566.94 591h-14.75q7.37-.63 14.75 0zM589.94 591h-9.75q4.87-.63 9.75 0z"/></svg>