<svg xmlns="http://www.w3.org/2000/svg" viewBox="0 0 591 591"><g stroke-width="2" fill="none"><path stroke="#494b4c" vector-effect="non-scaling-stroke" d="M589.81 0c.08.53.44 1.3.44 1.78v587.79a.67.67 0 01-.67.67q-292.27.02-584.64 0-2.5 0-4.94-.3"/><path stroke="#7d7f71" vector-effect="non-scaling-stroke" d="M585.5 5.51a.26.26 0 00-.26-.26H5.5a.26.26 0 00-.26.26v579.72a.26.26 0 00.26.26h579.74a.26.26 0 00.26-.26V5.51"/><path stroke="#575859" vector-effect="non-scaling-stroke" d="M590.56 0l.13 591M589.94 591q-4.63-.63-9.25 0M578.44 591q-5.13-.63-10.25 0M566.44 591q-3.13-.63-6.25 0M543.94 591q-2.88-.63-5.75 0M527.94 591l-15.69-.21M512.25 590.79l-23.06.21M477.94 591q-5.88-.63-11.75 0M463.94 591q-6.88-.63-13.75 0M423.94 591q-7.38-.63-14.75 0M407.94 591q-3.38-.63-6.75 0M400.94 591q-7.63-.63-15.25 0M373.94 591q-17.88-.63-35.75 0M319.94 591q-2.88-.63-5.75 0M313.94 591q-3.88-.63-7.75 0M304.94 591q-11.38-.63-22.75 0M271.94 591q-5.88-.63-11.75 0M254.94 591q-10.38-.63-20.75 0M230.94 591q-2.13-.63-4.25 0M223.94 591q-2.88-.63-5.75 0M215.94 591q-2.88-.63-5.75 0M207.94 591q-7.88-.63-15.75 0M191.94 591q-2.88-.63-5.75 0M183.94 591q-2.88-.63-5.75 0M145.94 591q-23.88-.63-47.75 0M96.94 591q-3.38-.63-6.75 0M87.94 591q-19.38-.63-38.75 0M48.94 591q-7.13-.63-14.25 0M27.94 591c-5.54-.18-26.84.29-27.94-.56"/><path stroke="#fbf2c7" vector-effect="non-scaling-stroke" d="M59.04 23.55C46 23.63 33.76 27.96 33.97 43.5q.3 22.59.74 33.56.21 5.16-.22 9.72a1.32 1.32 0 002.26 1.05l60.87-62.06q1.57-1.61-.61-2.15-.75-.19-2.76-.19-17.61.01-35.21.12"/><path stroke="#c6c9bc" vector-effect="non-scaling-stroke" d="M227.25 247.79c-.13.59-.49.83-1.1.67q-9.58-2.59-19.08-5.44-5.16-1.54-10.39-2.82c-4.52-1.1-8.5-.55-12.93.23q-37.02 6.61-69.54 25.27-17.3 9.93-26.52 28.97"/><path stroke="#8b8c7e" vector-effect="non-scaling-stroke" d="M87.69 294.67c-8.65 27.61 8.28 42.15 31.83 49.77 18.17 5.88 35.65 8.72 55.76 10.99q7 .79 12.24 1.66c6.59 1.09 25.39 2.9 22.28 12.73-.87 2.77-8.48 10.34-11.02 12.07-12.38 8.44-27.92 23.19-20.28 39.81 8.18 17.78 53.26 27.84 71.2 30.49 18.15 2.68 36.06 4.77 54.4 5.65a.63.62-2.9 01.58.52c.63 3.78-.4 5.66-4.44 5.64-11.47-.06-23.19-2.11-34.85-3.48-7.54-.89-15.44-1.32-22.97-.03-6.6 1.13-23.86 4.15-23.58 12.92q.5 15.65.43 31.28c-.02 4.42 1.31 6.27 5.25 7.77q7.33 2.81 13.32 4.07 6 1.27 8.5 2.26c11.24 4.44 17.89 12.04 31.03 5.43a.83.83 0 011.14.44c1.09 2.79 1.06 9.92 2.53 11.25 13.74 12.37 28.43 13.26 45.82 8.9 11.41-2.86 4.55-15.05 6.8-24.26a1.04 1.04 0 01.58-.7q4.29-1.95 8.93-.98 13.86 2.89 27.83 5.1c5.8.92 14.79-8.64 14.52-14.22q-.69-14.37-1.03-28.75c-.05-1.95.9-3.47.76-5.08-.67-7.72-12.03-13.83-18.98-17.04-2.41-1.12-4.63-.93-7.23-1.38q-.53-.1 0-.18 1.91-.31 5.27-.5 33.67-1.9 66.31-12.64c15.75-5.18 30.34-10.17 44.95-19.43 5.98-3.79 12.96-7.86 18.04-11.63 11.48-8.54 25.9-22.97 30.64-36.83"/><path stroke="#c6c9bc" vector-effect="non-scaling-stroke" d="M524.25 376.29c5.67-14.9 3.89-31.37-11.46-39.41q-4.96-2.61-8.28-3.42-19.15-4.73-38.34-9.3c-1.57-.38-3.02-1.37-4.29-2.26"/><path stroke="#8b8c7e" vector-effect="non-scaling-stroke" d="M461.88 321.9q-.24-4.45.59-8.55c.71-3.51 3.66-5.22 3.33-9.36q-.51-6.29-4.35-13.51"/><path stroke="#c6c9bc" vector-effect="non-scaling-stroke" d="M461.45 290.48q.21-2.49-1.74-4.48"/><path stroke="#8b8c7e" vector-effect="non-scaling-stroke" d="M459.71 286c1.21-1.7 4.66-7.51 6.98-6.44 9.34 4.32 19.04 9.06 28.73 10.07q9.2.96 18.06-.85c6.09-1.25 13.42-6.62 13.08-13.55-.18-3.58-.57-6.54-3.05-9.4-13.61-15.64-28.99-18.11-48.57-20.78a.81.81 0 01-.71-.73c-2.05-21.33-18.32-38.82-40.06-40.81q-5.82-.54-8.75-1.18c-18.89-4.17-37.75-7.74-56.73-11.33a.35.35 0 01-.21-.57q2.18-2.7 5.65-2.98a.6.59 87.5 00.55-.61q-.19-9.31 7.35-14.62a.61.61 0 00.13-.88q-.45-.57-1.12-.9-.48-.23-.81-.65-4.67-5.86-3.87-13.29a.91.89 22.9 00-.33-.79c-4.46-3.64-7.12-3.97-7.27-10.64a.79.79 0 00-1.09-.71q-6.52 2.71-13.61 1.76-.53-.07-.2-.48c5.41-6.66 3.14-17.15-1.56-23.42q-1.89-2.52-2.47-4.21-1.5-4.39-2.14-8.95-.86-6.17-1.66-8.04c-2.82-6.63-10.61-12.15-17.99-10.03-5.64 1.63-7.49 6.14-10.6 10.55-7.62 10.83-10.06 26.49-8.9 39.48a.26.26 0 01-.45.19q-6.11-7.07-12.14-14.15c-2.11-2.47-4.96-.64-5.67 1.97a1.03 1.02 34.3 00.17.88c3.53 4.62 8.14 7.8 12.71 13.93q6.82 9.12 8.49 18.05a.61.61 0 01-.46.71q-2.39.56-3.48 2.76a.61.6 24.3 01-.78.29c-12.48-5.13-19.46-13.77-26.35-24.95-2.48-4.02-7.98-.09-4.27 4.51q5.36 6.66 10.84 13.37.32.39-.16.24-11.43-3.61-19.99-2.56c-11.85 1.46-17.08 2.51-26.79 7.86a1.53 1.51 34.4 01-.94.17c-15.7-2.17-31.44-6.21-47.02-9.32-18.86-3.78-35.84-.55-47.31 16.32a.65.64-63.1 01-.74.25c-2.45-.84-4.88-1.32-7.19-2.52q-14.17-7.32-30.33-5.9c-4.53.4-11.84 2.91-12.86 8.07-.8 4.07-.05 7.28 3.2 10.19 11.3 10.14 26.29 10.6 40.03 10.03a.69.69 0 01.72.72c-.65 15.34 8.82 32.03 23.66 36.7q16.69 5.24 65.82 18.96"/><path stroke="#575859" vector-effect="non-scaling-stroke" d="M459.71 286q-16.83 16.6-40.79 14.19-6.23-.62-8.17-1.2c-40.38-12.03-81.14-22.81-121.84-33.67-20.64-5.5-41.09-11.77-61.66-17.53M461.45 290.48q.05 7.44-1.25 14.73c-.91 5.05-3.85 6.93-2.86 12.92a1.27 1.25 14.1 00.5.82l4.04 2.95M524.25 376.29c-5.46 9.14-16.6 17.24-24.92 23.86-6.37 5.07-13.74 8.97-20.87 13.28-22.38 13.54-48.4 23.9-72.53 29.22q-20.58 4.54-50.72 6.32a.8.79 77.7 01-.8-.52l-.46-1.22a1.57 1.56 5.5 00-.65-.78q-3.77-2.31-6.48-5.74c-1.8-2.27-1.93-5.65-3.79-7.77-7.06-8.11-20.81-10.52-29.56-3.25-2.76 2.29-4.29 6.87-6.67 10.12q-1.34 1.85-2.39 8.28a.59.58 5.1 01-.59.49q-9.73-.16-19.39-1.21c-29.81-3.25-57.9-7.25-86.29-19.6-26.71-11.62-14.5-32.61 1.94-44.5 3.03-2.19 4.78-5.35 8.04-7.5 7.42-4.89 13.86-15.64 2.78-20.25-12.11-5.05-24.46-6.19-38.4-7.79q-19.55-2.25-41.26-6.74c-10.31-2.13-24.9-7.57-32.26-15.86q-6.82-7.67-9.79-16.83-1.83-5.61-1.5-13.63"/><path stroke="#c6c9bc" vector-effect="non-scaling-stroke" d="M119.2 232.32a2.78 2.53-31.9 00-3.697-.678 2.78 2.53-31.9 00-1.023 3.617 2.78 2.53-31.9 003.697.679 2.78 2.53-31.9 001.023-3.617M157.447 238.288a2.19 2.19 0 00-2.693-1.53l-1.022.282a2.19 2.19 0 00-1.53 2.693l.451 1.639a2.19 2.19 0 002.693 1.53l1.022-.282a2.19 2.19 0 001.53-2.693l-.451-1.639M117.485 239.974a2.94 2.94 0 00-4.123-.535l-1.046.805a2.94 2.94 0 00-.536 4.123l.415.539a2.94 2.94 0 004.123.535l1.046-.805a2.94 2.94 0 00.536-4.123l-.415-.539M135.304 247.02a3.73 3.16 90.4 003.186-3.708 3.73 3.16 90.4 00-3.134-3.752 3.73 3.16 90.4 00-3.186 3.708 3.73 3.16 90.4 003.134 3.752M97.63 247.34q-1.44-1.21-3.29-1.41a.78.78 0 00-.85.85l.22 2.17a.83.82-12.2 001.09.7l2.57-.89q1.38-.47.26-1.42M126.87 250.78a3.32 3.32 0 00-3.32-3.32 3.32 3.32 0 00-3.32 3.32 3.32 3.32 0 003.32 3.32 3.32 3.32 0 003.32-3.32M514.38 301.1a2.32 2.32 0 00-2.32-2.32 2.32 2.32 0 00-2.32 2.32 2.32 2.32 0 002.32 2.32 2.32 2.32 0 002.32-2.32M480.24 304.56c-.86 4.07 3.94 5.6 6.07 3.37a1.05 1.04-32 00.24-1.01l-.89-2.91a1.09 1.07 1.2 00-.68-.7q-2.17-.74-4.11.39a1.3 1.29-9 00-.63.86M497.67 311.81c1.07 1.02 3.43 1.58 4.8 1.29a1.85 1.85 0 001.25-2.7q-1.07-1.97-3.37-2.43a.79.79 0 00-.81.34l-1.93 2.93a.45.44 39 00.06.57M474.605 314.95a3.09 2.6 98.1 003.01-2.694 3.09 2.6 98.1 00-2.14-3.425 3.09 2.6 98.1 00-3.01 2.693 3.09 2.6 98.1 002.14 3.425M526.07 314.41a2.94 2.94 0 00-2.94-2.94 2.94 2.94 0 00-2.94 2.94 2.94 2.94 0 002.94 2.94 2.94 2.94 0 002.94-2.94M481.85 319.7c2.26 6.11 8.85-.03 4.38-3.51a.99.97 54.5 00-.92-.16q-2.16.73-3.36 2.64a1.19 1.18 50.6 00-.1 1.03M501.68 326.05q2.27-.28 3.07-2.44a.59.59 0 00-.29-.74l-2.65-1.35a.57.57 0 00-.76.23q-.98 1.75-.36 3.68a.92.92 0 00.99.62M498.841 427.249a3.45 2.88 103.9 003.625-2.657 3.45 2.88 103.9 00-1.967-4.041 3.45 2.88 103.9 00-3.625 2.657 3.45 2.88 103.9 001.967 4.041M168.19 427.29a2.95 2.95 0 00-2.95-2.95 2.95 2.95 0 00-2.95 2.95 2.95 2.95 0 002.95 2.95 2.95 2.95 0 002.95-2.95M487.21 428.64a2.18 2.18 0 00-2.906-1.03l-1.354.646a2.18 2.18 0 00-1.029 2.907l.629 1.317a2.18 2.18 0 002.906 1.03l1.354-.646a2.18 2.18 0 001.029-2.906l-.629-1.318M498.846 441.008a3.69 3.45 26.7 00-1.746-4.74 3.69 3.45 26.7 00-4.847 1.424 3.69 3.45 26.7 001.747 4.74 3.69 3.45 26.7 004.846-1.424M459.782 441.298a2.59 2.04 111 002.833-1.687 2.59 2.04 111 00-.977-3.149 2.59 2.04 111 00-2.832 1.687 2.59 2.04 111 00.976 3.149M472.168 440.13a1.84 1.84 0 00-1.906-1.772l-1.84.067a1.84 1.84 0 00-1.77 1.907l.06 1.659a1.84 1.84 0 001.906 1.77l1.84-.067a1.84 1.84 0 001.77-1.906l-.06-1.659M132.105 447.656a3.33 2.86 98.2 003.306-2.888 3.33 2.86 98.2 00-2.356-3.704 3.33 2.86 98.2 00-3.306 2.888 3.33 2.86 98.2 002.356 3.704M198.691 443.962a3.27 2.73-25.5 00-4.126-1.056 3.27 2.73-25.5 00-1.776 3.872 3.27 2.73-25.5 004.126 1.056 3.27 2.73-25.5 001.776-3.872M520.594 448.628a2.52 2.3 71.4 001.376-3.122 2.52 2.3 71.4 00-2.984-1.654 2.52 2.3 71.4 00-1.376 3.122 2.52 2.3 71.4 002.984 1.654M531.72 445.78c-1.23 4.59 3.01 6.96 5.87 3.05a2.15 2.15 0 00-.81-3.21l-2.32-1.1a1.96 1.96 0 00-2.74 1.26M177.46 451.02a3.2 3.2 0 00-3.2-3.2 3.2 3.2 0 00-3.2 3.2 3.2 3.2 0 003.2 3.2 3.2 3.2 0 003.2-3.2M434.15 452.24a3.38 3.38 0 00-3.38-3.38 3.38 3.38 0 00-3.38 3.38 3.38 3.38 0 003.38 3.38 3.38 3.38 0 003.38-3.38M512.59 453.94c.9 7.64 10.06-1.33 3.41-2.91a1.09 1.08 31.4 00-.96.23l-2.12 1.83a.98.97-24 00-.33.85M190.424 458.874a2.96 2.55 104.6 003.214-2.221 2.96 2.55 104.6 00-1.722-3.507 2.96 2.55 104.6 00-3.214 2.221 2.96 2.55 104.6 001.722 3.507M437.7 453.59c-7.44 4.99 4.34 10.87 4.53 3.45a1.19 1.17-70.7 00-.45-.95l-3.18-2.47a.78.76-42.3 00-.9-.03M455.88 456.97a3.1 3.1 0 00-3.1-3.1 3.1 3.1 0 00-3.1 3.1 3.1 3.1 0 003.1 3.1 3.1 3.1 0 003.1-3.1M162.78 466.01a2.64 2.64 0 00-2.64-2.64 2.64 2.64 0 00-2.64 2.64 2.64 2.64 0 002.64 2.64 2.64 2.64 0 002.64-2.64M483.46 475.55q2.67-.1 3.38-2.75a1.14 1.13-56.7 00-.2-.98q-1.68-2.17-4.57-1.47a.75.73-2.6 00-.55.59q-.38 2.26.86 4.07a1.24 1.24 0 001.08.54M527.63 475.81a1.96 1.95 31.4 002.58-.62q1.58-2.34.22-4.46a1.02 1.01-15.4 00-.84-.47c-3.33-.04-6.01 3.31-1.96 5.55M206.85 492.997a2.72 2.46 81.1 002.01-3.068 2.72 2.46 81.1 00-2.85-2.306 2.72 2.46 81.1 00-2.01 3.068 2.72 2.46 81.1 002.85 2.306M186.44 491.61a2.78 2.78 0 00-2.78-2.78 2.78 2.78 0 00-2.78 2.78 2.78 2.78 0 002.78 2.78 2.78 2.78 0 002.78-2.78M200.827 498.894a2.9 2.54 43.7 00-.342-3.84 2.9 2.54 43.7 00-3.852-.168 2.9 2.54 43.7 00.342 3.84 2.9 2.54 43.7 003.852.168"/><path stroke="#8b8c7e" vector-effect="non-scaling-stroke" d="M511.67 569.58q-.79 1.63-.68 3.43.08 1.31.73.17l1.68-2.94a.59.59 0 00-.44-.87l-.74-.09a.55.55 0 00-.55.3"/><path stroke="#8d8d8d" vector-effect="non-scaling-stroke" d="M329.26 106.16c-3.71 1.59-8.47 4.06-7.79 8.81a1.74 1.7 53.8 01-.14.99q-1.51 3.25-1.02 6.85a.43.42 68 00.67.29l3.06-2.24a1.86 1.8 23.8 01.95-.35c2.75-.21 2.87-5.96 3.57-8.23.49-1.57 1.98-3.37 2.25-4.9q.36-2.04-1.55-1.22M333.75 106.46q-3.2 5.93-5.09 12.39a.35.35 0 00.39.45l6.36-.96a.88.87 3.5 00.73-.64q1.42-5.27 4.78-9.57a.61.6-56.9 00-.19-.91q-3.02-1.62-6.42-1.14a.76.74 10.2 00-.56.38M318.18 113.11q-5.24 6.34-5.49 14.59a.35.34-12.3 00.5.32c5.87-3 5.14-8.66 6.38-14.23a.8.79-18.9 00-1.39-.68M345.155 116.037a2.94 2.65 5.8 00-2.657-2.933 2.94 2.65 5.8 00-3.193 2.339 2.94 2.65 5.8 002.657 2.933 2.94 2.65 5.8 003.193-2.339"/><path stroke="#575859" vector-effect="non-scaling-stroke" d="M331.44 125.07q-3.54 3.27-.66 7.47.42.61.65-.09l2.01-6.1a1.23 1.22-12.3 00-2-1.28M338.38 125.11q-2.53 5.94-6.3 11.16a1.73 1.72-27.5 00-.32 1l.09 5.76q.02 1.72 1.08.37l11.88-15.21a.81.8 28.5 00-.38-1.26l-5.8-1.94a.21.21 0 00-.25.12M334.19 146.19c-1.28 1.32-2.38 2.96-2.67 4.99q-.84 5.97-4.05 11.18-.28.46.26.44 1.22-.04 1.9-1.23c1.8-3.15 4.53-4.99 6.32-6.9q6.6-7.01 13.75-13.47c2.43-2.2.11-6.2.27-8.92a.42.42 0 00-.69-.34q-7.92 6.79-15.09 14.25M326.18 134.24c-4.58 3.53-8.01 10.27-8.61 15.87-.48 4.56 1.74 9.44 2.65 13.92q.6 2.92 1.95.26 3.11-6.13 5.02-12.63c1.75-5.98.84-11.05-.24-17.13a.48.48 0 00-.77-.29M349.79 151.97q-2.3 4.63-3.55 9.65-.13.52.38.36 7.99-2.6 14.61-7.77a1.08 1.08 0 00-.75-1.93q-4.88.38-9.64-.79a.93.92 20.3 00-1.05.48M338.1 159.96a.74.74 0 00.5 1.29l3.31-.01a.82.81 9.6 00.77-.54l2.07-5.91q.38-1.1-.48-.32l-6.17 5.49M368.13 158.54c-.41-.97-1.78-2.05-2.67-2.58a.75.75 0 00-.85.07q-3.56 2.95-7.21 5.78c-1.77 1.38-3.42 1.49-5.46 2.25a.54.54 0 00-.32.69c.46 1.29 7.56-2.04 10.81-3.41 1.59-.68 3.74-.83 5.48-2.03a.63.62-29.6 00.22-.77"/><path stroke="#8d8d8d" vector-effect="non-scaling-stroke" d="M283 211.54l.7-6.57q.05-.55-.44-.31c-8.42 4.21-18.55-.68-23.93-7.51a1.9 1.84 80.3 00-.79-.58q-2.94-1.13-5.64-2.52-2.2-1.14-5.24-1.97-11.76-3.24-14.41-15.87"/><path stroke="#575859" vector-effect="non-scaling-stroke" d="M233.25 176.21l.41-5.49a.57.56 8.9 00-.44-.59c-16.49-3.48-32.86-7.69-49.63-9.55q-5.54-.61-9.14-.01c-9.52 1.62-20.87 7.25-24.98 16.26-2.67 5.88-3.86 15.88 3.4 19.51q3.17 1.59 6.62 2.44 64.72 15.89 129.26 32.49 2.55.65 11.51 2.62.5.11.24-.33c-2.56-4.21-7.42-3.89-11.21-4.98a.9.89 88.6 01-.6-.58l-1.55-4.91a1.27 1.26 4.9 00-.62-.73l-5.86-3.07a.93.92 10.8 01-.5-.73q-.21-2.01 1.48-3.29a1.37 1.3-12 00.47-.68l.89-3.05"/><path stroke="#c9cacb" vector-effect="non-scaling-stroke" d="M233.25 176.21q-1 .07-1.96-.14-18.9-4.05-37.85-7.77c-6.76-1.32-13.7-4.58-20.34-4.32q-9.38.37-16.92 6.57a1.16 1.14-18.6 00-.43.85l-.27 5.31a.9.89 11.9 00.59.89c2.29.84 4.7 1.75 7.08 2.35q39.26 9.75 78.19 20.76c2.01.57 5.4.91 7.98 2.36q.43.24.92.26c4.28.17 8.33 2.16 11.67 2.89q10.63 2.32 21.09 5.32"/><path stroke="#8d8d8d" vector-effect="non-scaling-stroke" d="M268.6 164.9c1.35.63 3.85-2.29 4.64-3.28q.38-.49-.23-.54-8.14-.75-15.44 2.79a.78.78 0 00.39 1.49l9.87-.6q.41-.03.77.14"/><path stroke="#575859" vector-effect="non-scaling-stroke" d="M359.23 167.02c-.01.78 6.67 1.05 7.57.85a1.89 1.82 46.1 011 .04l2.9.95q.9.3.63-.61l-1.38-4.64a.64.64 0 00-.88-.4l-3.67 1.68q-.47.21-.97.33l-4.6 1.04a.78.78 0 00-.6.76M332.95 165.99c-2.82.56-4.1 3.85-5.16 5.79a.38.37 20 00.26.55c4.52.86 11.48-1.57 16.2-2.33a1.36 1.36 0 00.89-.55q.6-.88 1.73-.97a.69.69 0 00.14-1.36q-8.06-2.32-14.06-1.13"/><path stroke="#8d8d8d" vector-effect="non-scaling-stroke" d="M261.55 173.02c2.63.11 4-2.95 5.43-4.71a.34.34 0 00-.26-.55l-12.11-.01a1.53 1.52-64.5 00-.96.34q-3.12 2.57-5.38 5.91a.58.57-82.3 00.66.87q6.16-2.14 12.62-1.85M134.79 174.5l-2.54-1.29"/><path stroke="#575859" vector-effect="non-scaling-stroke" d="M132.25 173.21q-2.97-2.28-6.75-2.42"/><path stroke="#8d8d8d" vector-effect="non-scaling-stroke" d="M125.5 170.79l-5.5-.83"/><path stroke="#575859" vector-effect="non-scaling-stroke" d="M120 169.96q-9.3-2.28-18.53.37a1.45 1.42 9.1 00-.78.55c-2.26 3.25-.66 5.84 2.41 7.73 8.01 4.95 15.65 6.66 25.34 6.65 1.19 0 10.55.2 10.73-.36a.17.17 0 00-.14-.22c-7.64-1-15.18.98-22.44-1.72q-6.93-2.57-13.01-7.72a1.11 1.11 0 01.45-1.92l1.73-.42a.99.98-31.5 01.87.2q.92.8 2 .65a1.14 1.13 61.4 01.87.26c1.95 1.68 4.23 1.42 6.17 2.15 4.83 1.84 7.95 1.83 12.37 2.18 3.08.25 6.78 1.74 10.53 1.43a.41.41 0 01.41.22l.19.32q.33.59.65-.01l1.23-2.29a.56.55-64.1 00-.26-.76l-6-2.75"/><path stroke="#c9cacb" vector-effect="non-scaling-stroke" d="M120 169.96q-3.83.83-7.78.76c-1.33-.02-2.24.61-1.63 2.02a.79.79 0 00.71.48q3.95.1 5.53.69c2.27.86 10.76 3.48 10.49.18a1.41 1.36 21.3 00-.39-.85q-1.02-1.05-1.43-2.45M132.25 173.21q-1.83-.32-2.29 1.47-.59 2.32 1.8 2.48 2.48.16 3.03-2.66"/><path stroke="#575859" vector-effect="non-scaling-stroke" d="M308.62 175.05c-3.57-1.6-7.22-3.83-10.63-4.61q-11.13-2.56-20.45 4.78a.3.3 0 00.06.51c5.71 2.43 13.16 4.42 19.12 3.07 3.92-.89 8.21-1.1 11.93-3.2a.31.31 0 00-.03-.55M365.83 185c3.09-2.49 3.05-6.13 4.79-9.62a1.21 1.2 49.4 00.07-.93q-.46-1.44-1.91-1.64c-5.95-.81-17.04-4.82-22.19.07q-.39.37.14.49 11.3 2.41 18.38 11.54a.51.51 0 00.72.09"/><path stroke="#8d8d8d" vector-effect="non-scaling-stroke" d="M260.5 181.29l1.51-5.86a.35.35 0 00-.34-.44q-6.91.06-13.14 2.93a1.53 1.48 89.9 00-.75.78q-1.35 3.21.71 6.1a.56.55 56.8 00.73.16q4.97-2.89 10.74-3.22a.61.6-84.6 00.54-.45"/><path stroke="#575859" vector-effect="non-scaling-stroke" d="M361.68 187.88c-6.45-11.58-20.77-11.56-33.64-11.56q-.5 0-.13.33c7.44 6.58 23.15 10.68 32.94 12.4q1.65.3.83-1.17M267.14 178.42l-.33 2.48a.32.32 0 00.38.36l7.47-1.57a.47.47 0 00.16-.85q-3.15-2.04-6.8-1.36a1.1 1.1 0 00-.88.94M268.06 192.81c3.2-1.88 16.98-9.03 17-10.15a.53.53 0 00-.59-.53q-2.47.3-4.35-.95a1.1 1.08 51 00-.99-.11l-12.7 4.72a.53.53 0 00-.34.61l1.32 6.6a.31.31 0 00.42.23q.25-.09.23-.42M292.76 183.15c-1.16.07-2.09-.38-3.36.52q-9.29 6.58-18.26 13.76a.51.51 0 00.11.87l5.61 2.45a1.22 1.18 42.4 001.03-.03c10.15-5.24 17.39-14.2 28.11-18.97q.46-.2-.03-.11-6.59 1.15-13.21 1.51M312.3 183.38c-7.53 1.54-6.86 13.86-6.18 19.15q.07.51.43.15c4.56-4.45 5.53-11.28 7.71-16.99a1.73 1.73 0 00-1.96-2.31M318.32 186.74c-2.53 11.69-3.75 25.29 6 33.63q.43.37.46-.19.89-18.49-5.74-35.75-.22-.59-.52-.04-.35.64-.2 1.39.1.48 0 .96"/><path stroke="#8d8d8d" vector-effect="non-scaling-stroke" d="M259.02 187.7a2.93 2.93 0 00-2.93-2.93 2.93 2.93 0 00-2.93 2.93 2.93 2.93 0 002.93 2.93 2.93 2.93 0 002.93-2.93M347.25 203.04l.24 4.16a2.14 2.14 0 01-2.61 2.21c-6.09-1.39-6.99-6.02-10.38-10.2"/><path stroke="#575859" vector-effect="non-scaling-stroke" d="M334.5 199.21l-5.17-6.33q-.32-.39-.25.11l.96 6.51"/><path stroke="#8d8d8d" vector-effect="non-scaling-stroke" d="M330.04 199.5q2.24 12.42 1 25"/><path stroke="#575859" vector-effect="non-scaling-stroke" d="M331.04 224.5l-.51 1.51a.53.53 0 01-.67.33c-4.38-1.47-7.35 2.98-9.38 6.3a.67.66 24.5 01-.76.28q-6.32-1.94-11.67 1.9a.58.58 0 00.21 1.04q29.05 6.75 57.73 13.89c4.5 1.12 7.51 3.45 12.11.41 6.39-4.21 8.61-12.14 11.36-18.66"/><path stroke="#8d8d8d" vector-effect="non-scaling-stroke" d="M389.46 231.5q3.21-6.97 8.14-12.62"/><path stroke="#575859" vector-effect="non-scaling-stroke" d="M397.6 218.88q7.37-7.41 16.68-11.85a.21.21 0 00-.04-.39c-13.25-3.28-29.44-6.03-40.03-8.16q-12.01-2.41-24.1-4.49c-3.43-.6-7.61-2.1-11.35-2.48a1.03 1.03 0 00-.76 1.81q5.46 4.52 9.25 9.72"/><path stroke="#c9cacb" vector-effect="non-scaling-stroke" d="M397.6 218.88l-2.08-4a1.08 1.07 82.6 00-.72-.56q-20.31-4.52-46.55-11.33-.2-.05-1 .05M389.46 231.5l-.8-.13a1.79 1.75 37 00-.94.12c-4.3 1.81-7.99 2.87-12.81 1.79q-20.92-4.7-41.71-10.03a.83.82 28.1 00-.81.24q-.61.68-1.35 1.01M334.5 199.21l-4.46.29"/><path stroke="#575859" vector-effect="non-scaling-stroke" d="M299.49 192.11l-4.89 4.51q-.45.41.15.31l5.55-.95a.66.65 82.1 00.54-.72l-.31-2.77q-.14-1.21-1.04-.38M289.52 203.17q.72 4.92-.74 9.6a.53.52 14.5 00.4.67q1.84.39 2.79-1.28 1.72-3 4.23-4.5a1.54 1.51-2.5 00.59-.63l3.24-6.54a.23.23 0 00-.25-.33l-9.28 1.65a1.2 1.2 0 00-.98 1.36M311.26 202.85c-3.28 1.51-3.5 17.2-3.25 18.66q.56 3.25.34 4.93a.52.51-88.6 00.55.58q1.73-.13 3.31-.99.39-.21.84-.24l4.57-.28a1.47 1.43 20.4 00.95-.42c1.5-1.5 1.45-2.87.07-4.56q-6.08-7.46-6.7-17.27a.49.48 75.7 00-.68-.41M301.31 206.39q-4.02 6.18-9.53 11.21a.63.61-36.7 00-.12.76l1.8 3.18a.33.33 0 00.55.04c1.15-1.49 9.27-14.95 8.55-15.92a.53.53 0 00-.74-.1c-.31.23-.35.58-.51.83M297.18 223.78a.34.34 0 00.2.51l5.71 1.65a.34.34 0 00.43-.33l.08-11a.34.34 0 00-.62-.18l-5.8 9.35M515.5 273.96c-2.39 4.49-7.57 5.3-12.44 5.44q-15.42.45-28.57-5.43-1.79-.8-12.16-7.04-14.67-8.83-31.55-12.82-.51-.12-.3.36 1.07 2.43 4.3 3.25 6.8 1.73 15.21 6.04c11.32 5.8 22.31 11.49 34.15 16.2 6.94 2.76 12.85 3.77 19.91 3.95 3.06.08 5.39-.91 8.31-1.68 8.05-2.14 11.27-7.08 4.73-13.98q-10.47-11.03-24.86-13.97c-16.88-3.46-36.84-4.2-54.72-7.76q-5.19-1.04-7.37 3.59a.36.36 0 00.28.51c11.85 1.32 25.79 3.42 36.13 9.84q13.98 8.67 30.46 9.65l12.38.74c2.28.14 3.92 1.44 5.9 2.44a.49.48-62.9 01.21.67"/><path stroke="#c6c9bc" vector-effect="non-scaling-stroke" d="M376.12 352.76q-.45 3.08-.37 6.24.04 1.61-.8 2.7"/><path stroke="#575859" vector-effect="non-scaling-stroke" d="M374.95 361.7q-21.81-4.22-45.2-5.87-14.14-1-27.18 3.14c-3.36 1.07-18.77 7.57-10.32 12.74"/><path stroke="#c6c9bc" vector-effect="non-scaling-stroke" d="M292.25 371.71c3.23 4.95 14.73 6.99 20.27 8.06 8.43 1.62 15.49 7.69 23.06 9.01q6.38 1.12 12.74-1.43"/><path stroke="#575859" vector-effect="non-scaling-stroke" d="M348.32 387.35q-.08 4.38-1.8 7.01a.48.48 0 00.16.68q1.35.78 2.78.21"/><path stroke="#c6c9bc" vector-effect="non-scaling-stroke" d="M349.46 395.25q.14.51.43.82c14.08 15.14 32.72 16.21 51.44 9.8"/><path stroke="#575859" vector-effect="non-scaling-stroke" d="M401.33 405.87c10.37-4.56 2.77-12.36 2.05-18.97l-.34-3.15"/><path stroke="#c6c9bc" vector-effect="non-scaling-stroke" d="M403.04 383.75q4.91-3.88 11.8-2.61 10.31 1.89 20.59 3.93c4.25.84 8.27 2.52 11.8.47q1.71-1 3.44-2.08"/><path stroke="#575859" vector-effect="non-scaling-stroke" d="M450.67 383.46q4.61-4.43 5.82-9.02c2.99-11.37-16.8-20.42-25.72-20.77q-2.49-.09-5.32-.29a.53.53 0 01-.2-1.01q2.72-1.37 4.22-4.09a.96.94 46.9 00.02-.88c-1.23-2.48-2.24-4.01-4.91-5.43q-6.27-3.32-8.71-9.91c-4.3-11.59-24.7-14.61-32.01-4.72-3.24 4.39-7.61 10.53-7.83 16.14q-.19 4.64.09 9.28"/><path stroke="#8b8c7e" vector-effect="non-scaling-stroke" d="M450.67 383.46q3.46-3.58 1.73-7.88c-3.03-7.53-8.57-9.03-15.15-12.61-1.56-.85-14.08-.5-14.02-4.18.03-2.16-.78-6.6 1.9-7.38a.61.61 0 00.13-1.11c-4.41-2.55-8.83-5.81-10.86-10.65q-4.37-10.37-16.23-11.87c-13.54-1.71-21.16 13.51-22.05 24.98M403.04 383.75c-3.75 8.44-1.09 13.78-1.71 22.12M349.46 395.25c.15-2.71 1.22-5.69-1.14-7.9M292.25 371.71c1.26-8.15 24.23-9.82 30.69-9.66q10.04.26 32.95 3.3c7.06.94 14.87 5.82 19.06-3.65"/><path stroke="#c9cacb" vector-effect="non-scaling-stroke" d="M466.87 255.66c.55 2.21 2.31 2.86 4.34 3.24a.86.85 22 00.86-.36q1.23-1.84.88-4.05a1.79 1.79 0 00-1.77-1.51q-2.48.01-4.1 1.83a.94.93-31.2 00-.21.85M490.74 263.5c.81 0 1.16.34 1.75.78a2.08 2 65.2 00.97.38q6.61.69 12.81 2.93a1.27 1.27 0 001.37-2.04c-5.57-6.15-20.06-10.56-28.09-9.88a.94.94 0 00-.81.63q-.86 2.59-.43 5.38a.75.75 0 00.6.62q5.86 1.22 11.83 1.2"/><path stroke="#575859" vector-effect="non-scaling-stroke" d="M326.827 432.274a.26.26 0 00-.262-.258l-4.1.029a.26.26 0 00-.258.262l.187 26.779a.26.26 0 00.261.258l4.1-.029a.26.26 0 00.258-.262l-.186-26.779"/><path stroke="#8d8d8d" vector-effect="non-scaling-stroke" d="M313.67 441.41q-4.28 7.43-2.32 15.52c.62 2.53.2 4.99.56 7.56a.32.32 0 00.5.22q1.03-.74 1.63-1.71"/><path stroke="#575859" vector-effect="non-scaling-stroke" d="M314.04 463l4-2.45a.8.8 0 00.38-.7l-.62-23.84q-.03-1.17-.73-.23-.96 1.31-1.12 2.88a1.35 1.34 70.4 01-.37.79l-1.91 1.96"/><path stroke="#c9cacb" vector-effect="non-scaling-stroke" d="M314.04 463q.99-10.77-.37-21.59"/><path stroke="#575859" vector-effect="non-scaling-stroke" d="M356.96 481.25l6.29.71"/><path stroke="#8d8d8d" vector-effect="non-scaling-stroke" d="M363.25 481.96l.87.26a.44.44 0 00.56-.44l-.29-7.24q-.02-.5.14-.98.49-1.51-.07-3.03a1.14 1.1 47.4 01.02-.84c2.76-6.35-6.33-4.89-9.19-5.13a.47.47 0 00-.51.46q-.09 7.39.02 14.66.02 1.61 2.16 1.57"/><path stroke="#c9cacb" vector-effect="non-scaling-stroke" d="M363.25 481.96c.1-3.86-.61-10.42.58-13.9a1.04 1.04 0 00-.15-.96q-1.86-2.51-5.13-1.42a.67.67 0 00-.45.65c.03 3.47 1.16 12.63-1.14 14.92"/><path stroke="#8b8c7e" vector-effect="non-scaling-stroke" d="M299.11 505.17c1.55 3.27 15.39 1.75 18.38.98q3.82-.97 7.18-1.59a1.57 1.56 85.3 001.28-1.52c.09-5.1-.97-14.1 1.05-18.38 2.95-6.25 7.12-5.54 13.08-6.54a.38.38 0 00.27-.54c-1.61-3.39-1.81-7.34-5.03-9.12-5.39-2.99-15.41-4.26-18.57 2.71-2.06 4.56-4.8 5.44-4.77 11.23.02 5.03.98 12.96-1.23 17.25-2.14 4.15-6.44 7.02-11.36 5.21q-.52-.19-.28.31"/><path stroke="#575859" vector-effect="non-scaling-stroke" d="M248.75 466.54l-3.5.42"/><path stroke="#8d8d8d" vector-effect="non-scaling-stroke" d="M245.25 466.96c-4.17.74-13.8 2.23-17.42 5.29a.31.31 0 00.08.53q6.89 2.9 14.21 4.01c5.2.79 9.01 2.73 13.59 4.71"/><path stroke="#575859" vector-effect="non-scaling-stroke" d="M255.71 481.5q3.9 2.6 8.35 4.31a.35.34 10.5 00.47-.32l-.04-17.22a.66.66 0 00-.47-.63q-4.34-1.26-8.77-1.1"/><path stroke="#8d8d8d" vector-effect="non-scaling-stroke" d="M255.25 466.54q-3.25-.7-6.5 0"/><path stroke="#c9cacb" vector-effect="non-scaling-stroke" d="M255.25 466.54l.46 14.96M245.25 466.96l.43.03a.47.46 4.9 01.43.5c-.19 2.01-.68 10.02 2.68 9.92a.58.58 0 00.56-.53q.45-5.25-.6-10.34"/><path stroke="#575859" vector-effect="non-scaling-stroke" d="M274.04 468.03a.35.35 0 00-.33-.35l-5.11-.2a.35.35 0 00-.36.36l.37 17.9a.35.35 0 00.49.32l4.5-1.91a.35.35 0 00.21-.32l.23-15.8"/><path stroke="#575859" vector-effect="non-scaling-stroke" d="M281.446 485.528a8.4.97 88.8 00.794-8.418 8.4.97 88.8 00-1.146-8.378 8.4.97 88.8 00-.794 8.418 8.4.97 88.8 001.146 8.378M378.07 512.04q.68-.45 1.07-1.24a.4.4 0 00-.24-.57l-.42-.12q-.64-.19-.08-.55c1.51-.97.92-4.82.84-6.14-.31-5.19.23-9.72-.96-14.92a.48.47-15.8 00-.61-.34q-1.75.6-1.7 3.1.23 11 0 22.18a.41.4 62.8 00.74.24l.65-.94q.29-.42.71-.7"/><path stroke="#0e0e0e" vector-effect="non-scaling-stroke" d="M363.71 489.75l-1.1.44a.85.85 0 00-.53.8l.51 23.95a1.43 1.26 84.8 001.49 1.41q.26-.05.96-.85"/><path stroke="#8d8d8d" vector-effect="non-scaling-stroke" d="M365.04 515.5q1.12 1.74 3.21.96"/><path stroke="#575859" vector-effect="non-scaling-stroke" d="M368.25 516.46q1.28-.16 2.53.62a.84.84 0 001.29-.74q-.13-3.24-.38-6.2c-.53-6.26-.16-12.62-.5-18.93a.9.87-78.4 00-.47-.74q-1-.52-2.74-.17"/><path stroke="#8d8d8d" vector-effect="non-scaling-stroke" d="M367.98 490.3q-1.8-1.14-4.27-.55"/><path stroke="#c9cacb" vector-effect="non-scaling-stroke" d="M367.98 490.3q-.71 13.06.27 26.16"/><path stroke="gray" vector-effect="non-scaling-stroke" d="M365.04 515.5c-2.22-6.94-1.11-18.21-1.33-25.75"/><path stroke="#8d8d8d" vector-effect="non-scaling-stroke" d="M273.71 492.25l-5.36 1.3a.62.61-7.7 00-.47.61l.45 25.61a.44.44 0 00.67.37q2.44-1.48 5.25-1.93"/><path stroke="#575859" vector-effect="non-scaling-stroke" d="M274.25 518.21l4.9-.08a.5.5 0 00.49-.52q-.42-10.77-.44-21.54-.01-1.58-.85-4.56a.69.69 0 00-.65-.5q-2.22-.05-3.99 1.24"/><path stroke="#c9cacb" vector-effect="non-scaling-stroke" d="M274.25 518.21c-.24-.69-.54-.8-.59-1.57q-.75-12.2.05-24.39"/><path stroke="#8d8d8d" vector-effect="non-scaling-stroke" d="M321.25 512.21l-3.88.6a.7.69 86.1 00-.58.68l-.06 26.22a.44.44 0 00.57.42l5.2-1.67"/><path stroke="#575859" vector-effect="non-scaling-stroke" d="M322.5 538.46q2.79.34 4.23-1.75a1.28 1.27-32 00.21-.9c-1.36-9.27.05-16.02.24-23.9a.53.53 0 00-.5-.54q-2.93-.17-5.43.84"/><path stroke="#c9cacb" vector-effect="non-scaling-stroke" d="M322.5 538.46q-1.37-4.11.04-8.2.27-.81-.52-1.88a1.56 1.51 26.8 01-.31-.89l-.46-15.28"/><path stroke="#575859" vector-effect="non-scaling-stroke" d="M311.634 513.233a.28.28 0 00-.284-.277l-2.4.03a.28.28 0 00-.276.283l.332 27.178a.28.28 0 00.284.277l2.4-.03a.28.28 0 00.276-.283l-.332-27.178"/><path stroke="#1b1b1b" vector-effect="non-scaling-stroke" d="M512.25 590.79l-.06.21"/></g><path d="M0 0h589.81c.08.53.44 1.3.44 1.78v587.79a.67.67 0 01-.67.67q-292.27.02-584.64 0-2.5 0-4.94-.3V0zm585.5 5.51a.26.26 0 00-.26-.26H5.5a.26.26 0 00-.26.26v579.72a.26.26 0 00.26.26h579.74a.26.26 0 00.26-.26V5.51z"/><path fill="#929597" d="M589.81 0h.75l.13 591h-.75q-4.63-.63-9.25 0h-2.25q-5.13-.63-10.25 0h-1.75q-3.13-.63-6.25 0h-16.25q-2.88-.63-5.75 0h-10.25l-15.69-.21-23.06.21h-11.25q-5.88-.63-11.75 0h-2.25q-6.88-.63-13.75 0h-26.25q-7.38-.63-14.75 0h-1.25q-3.38-.63-6.75 0h-.25q-7.63-.63-15.25 0h-11.75q-17.88-.63-35.75 0h-18.25q-2.88-.63-5.75 0h-.25q-3.88-.63-7.75 0h-1.25q-11.38-.63-22.75 0h-10.25q-5.88-.63-11.75 0h-5.25q-10.38-.63-20.75 0h-3.25q-2.13-.63-4.25 0h-2.75q-2.88-.63-5.75 0h-2.25q-2.88-.63-5.75 0h-2.25q-7.88-.63-15.75 0h-.25q-2.88-.63-5.75 0h-2.25q-2.88-.63-5.75 0h-32.25q-23.88-.63-47.75 0h-1.25q-3.38-.63-6.75 0h-2.25q-19.38-.63-38.75 0h-.25q-7.13-.63-14.25 0h-6.75c-5.54-.18-26.84.29-27.94-.56v-.5q2.44.3 4.94.3 292.37.02 584.64 0a.67.67 0 00.67-.67V1.78c0-.48-.36-1.25-.44-1.78z"/><path fill="#1b1b1b" d="M590.56 0h.44v591h-.31l-.13-591z"/><path fill="#fafde1" d="M585.5 585.23a.26.26 0 01-.26.26H5.5a.26.26 0 01-.26-.26V5.51a.26.26 0 01.26-.26h579.74a.26.26 0 01.26.26v579.72zM59.04 23.55C46 23.63 33.76 27.96 33.97 43.5q.3 22.59.74 33.56.21 5.16-.22 9.72a1.32 1.32 0 002.26 1.05l60.87-62.06q1.57-1.61-.61-2.15-.75-.19-2.76-.19-17.61.01-35.21.12zm168.21 224.24c-.13.59-.49.83-1.1.67q-9.58-2.59-19.08-5.44-5.16-1.54-10.39-2.82c-4.52-1.1-8.5-.55-12.93.23q-37.02 6.61-69.54 25.27-17.3 9.93-26.52 28.97c-8.65 27.61 8.28 42.15 31.83 49.77 18.17 5.88 35.65 8.72 55.76 10.99q7 .79 12.24 1.66c6.59 1.09 25.39 2.9 22.28 12.73-.87 2.77-8.48 10.34-11.02 12.07-12.38 8.44-27.92 23.19-20.28 39.81 8.18 17.78 53.26 27.84 71.2 30.49 18.15 2.68 36.06 4.77 54.4 5.65a.63.62-2.9 01.58.52c.63 3.78-.4 5.66-4.44 5.64-11.47-.06-23.19-2.11-34.85-3.48-7.54-.89-15.44-1.32-22.97-.03-6.6 1.13-23.86 4.15-23.58 12.92q.5 15.65.43 31.28c-.02 4.42 1.31 6.27 5.25 7.77q7.33 2.81 13.32 4.07 6 1.27 8.5 2.26c11.24 4.44 17.89 12.04 31.03 5.43a.83.83 0 011.14.44c1.09 2.79 1.06 9.92 2.53 11.25 13.74 12.37 28.43 13.26 45.82 8.9 11.41-2.86 4.55-15.05 6.8-24.26a1.04 1.04 0 01.58-.7q4.29-1.95 8.93-.98 13.86 2.89 27.83 5.1c5.8.92 14.79-8.64 14.52-14.22q-.69-14.37-1.03-28.75c-.05-1.95.9-3.47.76-5.08-.67-7.72-12.03-13.83-18.98-17.04-2.41-1.12-4.63-.93-7.23-1.38q-.53-.1 0-.18 1.91-.31 5.27-.5 33.67-1.9 66.31-12.64c15.75-5.18 30.34-10.17 44.95-19.43 5.98-3.79 12.96-7.86 18.04-11.63 11.48-8.54 25.9-22.97 30.64-36.83 5.67-14.9 3.89-31.37-11.46-39.41q-4.96-2.61-8.28-3.42-19.15-4.73-38.34-9.3c-1.57-.38-3.02-1.37-4.29-2.26q-.24-4.45.59-8.55c.71-3.51 3.66-5.22 3.33-9.36q-.51-6.29-4.35-13.51.21-2.49-1.74-4.48c1.21-1.7 4.66-7.51 6.98-6.44 9.34 4.32 19.04 9.06 28.73 10.07q9.2.96 18.06-.85c6.09-1.25 13.42-6.62 13.08-13.55-.18-3.58-.57-6.54-3.05-9.4-13.61-15.64-28.99-18.11-48.57-20.78a.81.81 0 01-.71-.73c-2.05-21.33-18.32-38.82-40.06-40.81q-5.82-.54-8.75-1.18c-18.89-4.17-37.75-7.74-56.73-11.33a.35.35 0 01-.21-.57q2.18-2.7 5.65-2.98a.6.59 87.5 00.55-.61q-.19-9.31 7.35-14.62a.61.61 0 00.13-.88q-.45-.57-1.12-.9-.48-.23-.81-.65-4.67-5.86-3.87-13.29a.91.89 22.9 00-.33-.79c-4.46-3.64-7.12-3.97-7.27-10.64a.79.79 0 00-1.09-.71q-6.52 2.71-13.61 1.76-.53-.07-.2-.48c5.41-6.66 3.14-17.15-1.56-23.42q-1.89-2.52-2.47-4.21-1.5-4.39-2.14-8.95-.86-6.17-1.66-8.04c-2.82-6.63-10.61-12.15-17.99-10.03-5.64 1.63-7.49 6.14-10.6 10.55-7.62 10.83-10.06 26.49-8.9 39.48a.26.26 0 01-.45.19q-6.11-7.07-12.14-14.15c-2.11-2.47-4.96-.64-5.67 1.97a1.03 1.02 34.3 00.17.88c3.53 4.62 8.14 7.8 12.71 13.93q6.82 9.12 8.49 18.05a.61.61 0 01-.46.71q-2.39.56-3.48 2.76a.61.6 24.3 01-.78.29c-12.48-5.13-19.46-13.77-26.35-24.95-2.48-4.02-7.98-.09-4.27 4.51q5.36 6.66 10.84 13.37.32.39-.16.24-11.43-3.61-19.99-2.56c-11.85 1.46-17.08 2.51-26.79 7.86a1.53 1.51 34.4 01-.94.17c-15.7-2.17-31.44-6.21-47.02-9.32-18.86-3.78-35.84-.55-47.31 16.32a.65.64-63.1 01-.74.25c-2.45-.84-4.88-1.32-7.19-2.52q-14.17-7.32-30.33-5.9c-4.53.4-11.84 2.91-12.86 8.07-.8 4.07-.05 7.28 3.2 10.19 11.3 10.14 26.29 10.6 40.03 10.03a.69.69 0 01.72.72c-.65 15.34 8.82 32.03 23.66 36.7q16.69 5.24 65.82 18.96zM119.2 232.32a2.78 2.53-31.9 00-3.697-.678 2.78 2.53-31.9 00-1.023 3.617 2.78 2.53-31.9 003.697.679 2.78 2.53-31.9 001.023-3.617zm38.247 5.968a2.19 2.19 0 00-2.693-1.53l-1.022.282a2.19 2.19 0 00-1.53 2.693l.451 1.639a2.19 2.19 0 002.693 1.53l1.022-.282a2.19 2.19 0 001.53-2.693l-.451-1.639zm-39.962 1.686a2.94 2.94 0 00-4.123-.535l-1.046.805a2.94 2.94 0 00-.536 4.123l.415.539a2.94 2.94 0 004.123.535l1.046-.805a2.94 2.94 0 00.536-4.123l-.415-.539zm17.819 7.046a3.73 3.16 90.4 003.186-3.708 3.73 3.16 90.4 00-3.134-3.752 3.73 3.16 90.4 00-3.186 3.708 3.73 3.16 90.4 003.134 3.752zm-37.674.32q-1.44-1.21-3.29-1.41a.78.78 0 00-.85.85l.22 2.17a.83.82-12.2 001.09.7l2.57-.89q1.38-.47.26-1.42zm29.24 3.44a3.32 3.32 0 00-3.32-3.32 3.32 3.32 0 00-3.32 3.32 3.32 3.32 0 003.32 3.32 3.32 3.32 0 003.32-3.32zm387.51 50.32a2.32 2.32 0 00-2.32-2.32 2.32 2.32 0 00-2.32 2.32 2.32 2.32 0 002.32 2.32 2.32 2.32 0 002.32-2.32zm-34.14 3.46c-.86 4.07 3.94 5.6 6.07 3.37a1.05 1.04-32 00.24-1.01l-.89-2.91a1.09 1.07 1.2 00-.68-.7q-2.17-.74-4.11.39a1.3 1.29-9 00-.63.86zm17.43 7.25c1.07 1.02 3.43 1.58 4.8 1.29a1.85 1.85 0 001.25-2.7q-1.07-1.97-3.37-2.43a.79.79 0 00-.81.34l-1.93 2.93a.45.44 39 00.06.57zm-23.065 3.14a3.09 2.6 98.1 003.01-2.694 3.09 2.6 98.1 00-2.14-3.425 3.09 2.6 98.1 00-3.01 2.693 3.09 2.6 98.1 002.14 3.425zm51.465-.54a2.94 2.94 0 00-2.94-2.94 2.94 2.94 0 00-2.94 2.94 2.94 2.94 0 002.94 2.94 2.94 2.94 0 002.94-2.94zm-44.22 5.29c2.26 6.11 8.85-.03 4.38-3.51a.99.97 54.5 00-.92-.16q-2.16.73-3.36 2.64a1.19 1.18 50.6 00-.1 1.03zm19.83 6.35q2.27-.28 3.07-2.44a.59.59 0 00-.29-.74l-2.65-1.35a.57.57 0 00-.76.23q-.98 1.75-.36 3.68a.92.92 0 00.99.62zm-2.839 101.199a3.45 2.88 103.9 003.625-2.657 3.45 2.88 103.9 00-1.967-4.041 3.45 2.88 103.9 00-3.625 2.657 3.45 2.88 103.9 001.967 4.041zm-330.651.041a2.95 2.95 0 00-2.95-2.95 2.95 2.95 0 00-2.95 2.95 2.95 2.95 0 002.95 2.95 2.95 2.95 0 002.95-2.95zm319.02 1.35a2.18 2.18 0 00-2.906-1.03l-1.354.646a2.18 2.18 0 00-1.029 2.907l.629 1.317a2.18 2.18 0 002.906 1.03l1.354-.646a2.18 2.18 0 001.029-2.906l-.629-1.318zm11.637 12.368a3.69 3.45 26.7 00-1.747-4.74 3.69 3.45 26.7 00-4.847 1.424 3.69 3.45 26.7 001.747 4.74 3.69 3.45 26.7 004.846-1.424zm-39.065.29a2.59 2.04 111 002.833-1.687 2.59 2.04 111 00-.977-3.149 2.59 2.04 111 00-2.832 1.687 2.59 2.04 111 00.976 3.149zm12.386-1.169a1.84 1.84 0 00-1.906-1.77l-1.84.067a1.84 1.84 0 00-1.77 1.906l.06 1.659a1.84 1.84 0 001.906 1.77l1.84-.067a1.84 1.84 0 001.77-1.906l-.06-1.659zm-340.063 7.527a3.33 2.86 98.2 003.306-2.888 3.33 2.86 98.2 00-2.356-3.704 3.33 2.86 98.2 00-3.306 2.888 3.33 2.86 98.2 002.356 3.704zm66.587-3.694a3.27 2.73-25.5 00-4.127-1.056 3.27 2.73-25.5 00-1.776 3.872 3.27 2.73-25.5 004.126 1.056 3.27 2.73-25.5 001.776-3.872zm321.902 4.666a2.52 2.3 71.4 001.376-3.122 2.52 2.3 71.4 00-2.984-1.654 2.52 2.3 71.4 00-1.376 3.122 2.52 2.3 71.4 002.984 1.654zm11.126-2.848c-1.23 4.59 3.01 6.96 5.87 3.05a2.15 2.15 0 00-.81-3.21l-2.32-1.1a1.96 1.96 0 00-2.74 1.26zm-354.26 5.24a3.2 3.2 0 00-3.2-3.2 3.2 3.2 0 00-3.2 3.2 3.2 3.2 0 003.2 3.2 3.2 3.2 0 003.2-3.2zm256.69 1.22a3.38 3.38 0 00-3.38-3.38 3.38 3.38 0 00-3.38 3.38 3.38 3.38 0 003.38 3.38 3.38 3.38 0 003.38-3.38zm78.44 1.7c.9 7.64 10.06-1.33 3.41-2.91a1.09 1.08 31.4 00-.96.23l-2.12 1.83a.98.97-24 00-.33.85zm-322.166 4.934a2.96 2.55 104.6 003.214-2.221 2.96 2.55 104.6 00-1.722-3.507 2.96 2.55 104.6 00-3.214 2.221 2.96 2.55 104.6 001.722 3.507zM437.7 453.59c-7.44 4.99 4.34 10.87 4.53 3.45a1.19 1.17-70.7 00-.45-.95l-3.18-2.47a.78.76-42.3 00-.9-.03zm18.18 3.38a3.1 3.1 0 00-3.1-3.1 3.1 3.1 0 00-3.1 3.1 3.1 3.1 0 003.1 3.1 3.1 3.1 0 003.1-3.1zm-293.1 9.04a2.64 2.64 0 00-2.64-2.64 2.64 2.64 0 00-2.64 2.64 2.64 2.64 0 002.64 2.64 2.64 2.64 0 002.64-2.64zm320.68 9.54q2.67-.1 3.38-2.75a1.14 1.13-56.7 00-.2-.98q-1.68-2.17-4.57-1.47a.75.73-2.6 00-.55.59q-.38 2.26.86 4.07a1.24 1.24 0 001.08.54zm44.17.26a1.96 1.95 31.4 002.58-.62q1.58-2.34.22-4.46a1.02 1.01-15.4 00-.84-.47c-3.33-.04-6.01 3.31-1.96 5.55zm-320.78 17.187a2.72 2.46 81.1 002.01-3.068 2.72 2.46 81.1 00-2.85-2.306 2.72 2.46 81.1 00-2.01 3.068 2.72 2.46 81.1 002.85 2.306zm-20.41-1.387a2.78 2.78 0 00-2.78-2.78 2.78 2.78 0 00-2.78 2.78 2.78 2.78 0 002.78 2.78 2.78 2.78 0 002.78-2.78zm14.387 7.284a2.9 2.54 43.7 00-.342-3.84 2.9 2.54 43.7 00-3.852-.168 2.9 2.54 43.7 00.342 3.84 2.9 2.54 43.7 003.852.168zM511.67 569.58q-.79 1.63-.68 3.43.08 1.31.73.17l1.68-2.94a.59.59 0 00-.44-.87l-.74-.09a.55.55 0 00-.55.3z"/><path fill="#fbe6ad" d="M33.97 43.5C33.76 27.96 46 23.63 59.04 23.55q17.6-.11 35.21-.12 2.01 0 2.76.19 2.18.54.61 2.15L36.75 87.83a1.32 1.32 0 01-2.26-1.05q.43-4.56.22-9.72-.44-10.97-.74-33.56z"/><path fill="#1b1b1b" d="M459.71 286q-16.83 16.6-40.79 14.19-6.23-.62-8.17-1.2c-40.38-12.03-81.14-22.81-121.84-33.67-20.64-5.5-41.09-11.77-61.66-17.53q-49.13-13.72-65.82-18.96c-14.84-4.67-24.31-21.36-23.66-36.7a.69.69 0 00-.72-.72c-13.74.57-28.73.11-40.03-10.03-3.25-2.91-4-6.12-3.2-10.19 1.02-5.16 8.33-7.67 12.86-8.07q16.16-1.42 30.33 5.9c2.31 1.2 4.74 1.68 7.19 2.52a.65.64-63.1 00.74-.25c11.47-16.87 28.45-20.1 47.31-16.32 15.58 3.11 31.32 7.15 47.02 9.32a1.53 1.51 34.4 00.94-.17c9.71-5.35 14.94-6.4 26.79-7.86q8.56-1.05 19.99 2.56.48.15.16-.24-5.48-6.71-10.84-13.37c-3.71-4.6 1.79-8.53 4.27-4.51 6.89 11.18 13.87 19.82 26.35 24.95a.61.6 24.3 00.78-.29q1.09-2.2 3.48-2.76a.61.61 0 00.46-.71q-1.67-8.93-8.49-18.05c-4.57-6.13-9.18-9.31-12.71-13.93a1.03 1.02 34.3 01-.17-.88c.71-2.61 3.56-4.44 5.67-1.97q6.03 7.08 12.14 14.15a.26.26 0 00.45-.19c-1.16-12.99 1.28-28.65 8.9-39.48 3.11-4.41 4.96-8.92 10.6-10.55 7.38-2.12 15.17 3.4 17.99 10.03q.8 1.87 1.66 8.04.64 4.56 2.14 8.95.58 1.69 2.47 4.21c4.7 6.27 6.97 16.76 1.56 23.42q-.33.41.2.48 7.09.95 13.61-1.76a.79.79 0 011.09.71c.15 6.67 2.81 7 7.27 10.64a.91.89 22.9 01.33.79q-.8 7.43 3.87 13.29.33.42.81.65.67.33 1.12.9a.61.61 0 01-.13.88q-7.54 5.31-7.35 14.62a.6.59 87.5 01-.55.61q-3.47.28-5.65 2.98a.35.35 0 00.21.57c18.98 3.59 37.84 7.16 56.73 11.33q2.93.64 8.75 1.18c21.74 1.99 38.01 19.48 40.06 40.81a.81.81 0 00.71.73c19.58 2.67 34.96 5.14 48.57 20.78 2.48 2.86 2.87 5.82 3.05 9.4.34 6.93-6.99 12.3-13.08 13.55q-8.86 1.81-18.06.85c-9.69-1.01-19.39-5.75-28.73-10.07-2.32-1.07-5.77 4.74-6.98 6.44zM329.26 106.16c-3.71 1.59-8.47 4.06-7.79 8.81a1.74 1.7 53.8 01-.14.99q-1.51 3.25-1.02 6.85a.43.42 68 00.67.29l3.06-2.24a1.86 1.8 23.8 01.95-.35c2.75-.21 2.87-5.96 3.57-8.23.49-1.57 1.98-3.37 2.25-4.9q.36-2.04-1.55-1.22zm4.49.3q-3.2 5.93-5.09 12.39a.35.35 0 00.39.45l6.36-.96a.88.87 3.5 00.73-.64q1.42-5.27 4.78-9.57a.61.6-56.9 00-.19-.91q-3.02-1.62-6.42-1.14a.76.74 10.2 00-.56.38zm-15.57 6.65q-5.24 6.34-5.49 14.59a.35.34-12.3 00.5.32c5.87-3 5.14-8.66 6.38-14.23a.8.79-18.9 00-1.39-.68zm26.975 2.927a2.94 2.65 5.8 00-2.657-2.933 2.94 2.65 5.8 00-3.193 2.339 2.94 2.65 5.8 002.657 2.933 2.94 2.65 5.8 003.193-2.339zm-13.715 9.033q-3.54 3.27-.66 7.47.42.61.65-.09l2.01-6.1a1.23 1.22-12.3 00-2-1.28zm6.94.04q-2.53 5.94-6.3 11.16a1.73 1.72-27.5 00-.32 1l.09 5.76q.02 1.72 1.08.37l11.88-15.21a.81.8 28.5 00-.38-1.26l-5.8-1.94a.21.21 0 00-.25.12zm-4.19 21.08c-1.28 1.32-2.38 2.96-2.67 4.99q-.84 5.97-4.05 11.18-.28.46.26.44 1.22-.04 1.9-1.23c1.8-3.15 4.53-4.99 6.32-6.9q6.6-7.01 13.75-13.47c2.43-2.2.11-6.2.27-8.92a.42.42 0 00-.69-.34q-7.92 6.79-15.09 14.25zm-8.01-11.95c-4.58 3.53-8.01 10.27-8.61 15.87-.48 4.56 1.74 9.44 2.65 13.92q.6 2.92 1.95.26 3.11-6.13 5.02-12.63c1.75-5.98.84-11.05-.24-17.13a.48.48 0 00-.77-.29zm23.61 17.73q-2.3 4.63-3.55 9.65-.13.52.38.36 7.99-2.6 14.61-7.77a1.08 1.08 0 00-.75-1.93q-4.88.38-9.64-.79a.93.92 20.3 00-1.05.48zm-11.69 7.99a.74.74 0 00.5 1.29l3.31-.01a.82.81 9.6 00.77-.54l2.07-5.91q.38-1.1-.48-.32l-6.17 5.49zm30.03-1.42c-.41-.97-1.78-2.05-2.67-2.58a.75.75 0 00-.85.07q-3.56 2.95-7.21 5.78c-1.77 1.38-3.42 1.49-5.46 2.25a.54.54 0 00-.32.69c.46 1.29 7.56-2.04 10.81-3.41 1.59-.68 3.74-.83 5.48-2.03a.63.62-29.6 00.22-.77zm-85.13 53l.7-6.57q.05-.55-.44-.31c-8.42 4.21-18.55-.68-23.93-7.51a1.9 1.84 80.3 00-.79-.58q-2.94-1.13-5.64-2.52-2.2-1.14-5.24-1.97-11.76-3.24-14.41-15.87l.41-5.49a.57.56 8.9 00-.44-.59c-16.49-3.48-32.86-7.69-49.63-9.55q-5.54-.61-9.14-.01c-9.52 1.62-20.87 7.25-24.98 16.26-2.67 5.88-3.86 15.88 3.4 19.51q3.17 1.59 6.62 2.44 64.72 15.89 129.26 32.49 2.55.65 11.51 2.62.5.11.24-.33c-2.56-4.21-7.42-3.89-11.21-4.98a.9.89 88.6 01-.6-.58l-1.55-4.91a1.27 1.26 4.9 00-.62-.73l-5.86-3.07a.93.92 10.8 01-.5-.73q-.21-2.01 1.48-3.29a1.37 1.3-12 00.47-.68l.89-3.05zm-14.4-46.64c1.35.63 3.85-2.29 4.64-3.28q.38-.49-.23-.54-8.14-.75-15.44 2.79a.78.78 0 00.39 1.49l9.87-.6q.41-.03.77.14zm90.63 2.12c-.01.78 6.67 1.05 7.57.85a1.89 1.82 46.1 011 .04l2.9.95q.9.3.63-.61l-1.38-4.64a.64.64 0 00-.88-.4l-3.67 1.68q-.47.21-.97.33l-4.6 1.04a.78.78 0 00-.6.76zm-26.28-1.03c-2.82.56-4.1 3.85-5.16 5.79a.38.37 20 00.26.55c4.52.86 11.48-1.57 16.2-2.33a1.36 1.36 0 00.89-.55q.6-.88 1.73-.97a.69.69 0 00.14-1.36q-8.06-2.32-14.06-1.13zm-71.4 7.03c2.63.11 4-2.95 5.43-4.71a.34.34 0 00-.26-.55l-12.11-.01a1.53 1.52-64.5 00-.96.34q-3.12 2.57-5.38 5.91a.58.57-82.3 00.66.87q6.16-2.14 12.62-1.85zm-126.76 1.48l-2.54-1.29q-2.97-2.28-6.75-2.42l-5.5-.83q-9.3-2.28-18.53.37a1.45 1.42 9.1 00-.78.55c-2.26 3.25-.66 5.84 2.41 7.73 8.01 4.95 15.65 6.66 25.34 6.65 1.19 0 10.55.2 10.73-.36a.17.17 0 00-.14-.22c-7.64-1-15.18.98-22.44-1.72q-6.93-2.57-13.01-7.72a1.11 1.11 0 01.45-1.92l1.73-.42a.99.98-31.5 01.87.2q.92.8 2 .65a1.14 1.13 61.4 01.87.26c1.95 1.68 4.23 1.42 6.17 2.15 4.83 1.84 7.95 1.83 12.37 2.18 3.08.25 6.78 1.74 10.53 1.43a.41.41 0 01.41.22l.19.32q.33.59.65-.01l1.23-2.29a.56.55-64.1 00-.26-.76l-6-2.75zm173.83.55c-3.57-1.6-7.22-3.83-10.63-4.61q-11.13-2.56-20.45 4.78a.3.3 0 00.06.51c5.71 2.43 13.16 4.42 19.12 3.07 3.92-.89 8.21-1.1 11.93-3.2a.31.31 0 00-.03-.55zm57.21 9.95c3.09-2.49 3.05-6.13 4.79-9.62a1.21 1.2 49.4 00.07-.93q-.46-1.44-1.91-1.64c-5.95-.81-17.04-4.82-22.19.07q-.39.37.14.49 11.3 2.41 18.38 11.54a.51.51 0 00.72.09zm-105.33-3.71l1.51-5.86a.35.35 0 00-.34-.44q-6.91.06-13.14 2.93a1.53 1.48 89.9 00-.75.78q-1.35 3.21.71 6.1a.56.55 56.8 00.73.16q4.97-2.89 10.74-3.22a.61.6-84.6 00.54-.45zm101.18 6.59c-6.45-11.58-20.77-11.56-33.64-11.56q-.5 0-.13.33c7.44 6.58 23.15 10.68 32.94 12.4q1.65.3.83-1.17zm-94.54-9.46l-.33 2.48a.32.32 0 00.38.36l7.47-1.57a.47.47 0 00.16-.85q-3.15-2.04-6.8-1.36a1.1 1.1 0 00-.88.94zm.92 14.39c3.2-1.88 16.98-9.03 17-10.15a.53.53 0 00-.59-.53q-2.47.3-4.35-.95a1.1 1.08 51 00-.99-.11l-12.7 4.72a.53.53 0 00-.34.61l1.32 6.6a.31.31 0 00.42.23q.25-.09.23-.42zm24.7-9.66c-1.16.07-2.09-.38-3.36.52q-9.29 6.58-18.26 13.76a.51.51 0 00.11.87l5.61 2.45a1.22 1.18 42.4 001.03-.03c10.15-5.24 17.39-14.2 28.11-18.97q.46-.2-.03-.11-6.59 1.15-13.21 1.51zm19.54.23c-7.53 1.54-6.86 13.86-6.18 19.15q.07.51.43.15c4.56-4.45 5.53-11.28 7.71-16.99a1.73 1.73 0 00-1.96-2.31zm6.02 3.36c-2.53 11.69-3.75 25.29 6 33.63q.43.37.46-.19.89-18.49-5.74-35.75-.22-.59-.52-.04-.35.64-.2 1.39.1.48 0 .96zm-59.3.96a2.93 2.93 0 00-2.93-2.93 2.93 2.93 0 00-2.93 2.93 2.93 2.93 0 002.93 2.93 2.93 2.93 0 002.93-2.93zm88.23 15.34l.24 4.16a2.14 2.14 0 01-2.61 2.21c-6.09-1.39-6.99-6.02-10.38-10.2l-5.17-6.33q-.32-.39-.25.11l.96 6.51q2.24 12.42 1 25l-.51 1.51a.53.53 0 01-.67.33c-4.38-1.47-7.35 2.98-9.38 6.3a.67.66 24.5 01-.76.28q-6.32-1.94-11.67 1.9a.58.58 0 00.21 1.04q29.05 6.75 57.73 13.89c4.5 1.12 7.51 3.45 12.11.41 6.39-4.21 8.61-12.14 11.36-18.66q3.21-6.97 8.14-12.62 7.37-7.41 16.68-11.85a.21.21 0 00-.04-.39c-13.25-3.28-29.44-6.03-40.03-8.16q-12.01-2.41-24.1-4.49c-3.43-.6-7.61-2.1-11.35-2.48a1.03 1.03 0 00-.76 1.81q5.46 4.52 9.25 9.72zm-47.76-10.93l-4.89 4.51q-.45.41.15.31l5.55-.95a.66.65 82.1 00.54-.72l-.31-2.77q-.14-1.21-1.04-.38zm-9.97 11.06q.72 4.92-.74 9.6a.53.52 14.5 00.4.67q1.84.39 2.79-1.28 1.72-3 4.23-4.5a1.54 1.51-2.5 00.59-.63l3.24-6.54a.23.23 0 00-.25-.33l-9.28 1.65a1.2 1.2 0 00-.98 1.36zm21.74-.32c-3.28 1.51-3.5 17.2-3.25 18.66q.56 3.25.34 4.93a.52.51-88.6 00.55.58q1.73-.13 3.31-.99.39-.21.84-.24l4.57-.28a1.47 1.43 20.4 00.95-.42c1.5-1.5 1.45-2.87.07-4.56q-6.08-7.46-6.7-17.27a.49.48 75.7 00-.68-.41zm-9.95 3.54q-4.02 6.18-9.53 11.21a.63.61-36.7 00-.12.76l1.8 3.18a.33.33 0 00.55.04c1.15-1.49 9.27-14.95 8.55-15.92a.53.53 0 00-.74-.1c-.31.23-.35.58-.51.83zm-4.13 17.39a.34.34 0 00.2.51l5.71 1.65a.34.34 0 00.43-.33l.08-11a.34.34 0 00-.62-.18l-5.8 9.35zm218.32 50.18c-2.39 4.49-7.57 5.3-12.44 5.44q-15.42.45-28.57-5.43-1.79-.8-12.16-7.04-14.67-8.83-31.55-12.82-.51-.12-.3.36 1.07 2.43 4.3 3.25 6.8 1.73 15.21 6.04c11.32 5.8 22.31 11.49 34.15 16.2 6.94 2.76 12.85 3.77 19.91 3.95 3.06.08 5.39-.91 8.31-1.68 8.05-2.14 11.27-7.08 4.73-13.98q-10.47-11.03-24.86-13.97c-16.88-3.46-36.84-4.2-54.72-7.76q-5.19-1.04-7.37 3.59a.36.36 0 00.28.51c11.85 1.32 25.79 3.42 36.13 9.84q13.98 8.67 30.46 9.65l12.38.74c2.28.14 3.92 1.44 5.9 2.44a.49.48-62.9 01.21.67z"/><path fill="#fff" d="M321.47 114.97c-.68-4.75 4.08-7.22 7.79-8.81q1.91-.82 1.55 1.22c-.27 1.53-1.76 3.33-2.25 4.9-.7 2.27-.82 8.02-3.57 8.23a1.86 1.8 23.8 00-.95.35l-3.06 2.24a.43.42 68 01-.67-.29q-.49-3.6 1.02-6.85a1.74 1.7 53.8 00.14-.99zM333.75 106.46a.76.74 10.2 01.56-.38q3.4-.48 6.42 1.14a.61.6-56.9 01.19.91q-3.36 4.3-4.78 9.57a.88.87 3.5 01-.73.64l-6.36.96a.35.35 0 01-.39-.45q1.89-6.46 5.09-12.39zM318.18 113.11a.8.79-18.9 011.39.68c-1.24 5.57-.51 11.23-6.38 14.23a.35.34-12.3 01-.5-.32q.25-8.25 5.49-14.59z"/><ellipse fill="#fff" transform="rotate(5.8 -971.256 3435.73)" rx="2.94" ry="2.65"/><path fill="#929597" d="M331.44 125.07a1.23 1.22-12.3 012 1.28l-2.01 6.1q-.23.7-.65.09-2.88-4.2.66-7.47zM338.38 125.11a.21.21 0 01.25-.12l5.8 1.94a.81.8 28.5 01.38 1.26l-11.88 15.21q-1.06 1.35-1.08-.37l-.09-5.76a1.73 1.72-27.5 01.32-1q3.77-5.22 6.3-11.16zM334.19 146.19q7.17-7.46 15.09-14.25a.42.42 0 01.69.34c-.16 2.72 2.16 6.72-.27 8.92q-7.15 6.46-13.75 13.47c-1.79 1.91-4.52 3.75-6.32 6.9q-.68 1.19-1.9 1.23-.54.02-.26-.44 3.21-5.21 4.05-11.18c.29-2.03 1.39-3.67 2.67-4.99zM317.57 150.11c.6-5.6 4.03-12.34 8.61-15.87a.48.48 0 01.77.29c1.08 6.08 1.99 11.15.24 17.13q-1.91 6.5-5.02 12.63-1.35 2.66-1.95-.26c-.91-4.48-3.13-9.36-2.65-13.92zM349.79 151.97a.93.92 20.3 011.05-.48q4.76 1.17 9.64.79a1.08 1.08 0 01.75 1.93q-6.62 5.17-14.61 7.77-.51.16-.38-.36 1.25-5.02 3.55-9.65zM338.1 159.96l6.17-5.49q.86-.78.48.32l-2.07 5.91a.82.81 9.6 01-.77.54l-3.31.01a.74.74 0 01-.5-1.29zM365.46 155.96c.89.53 2.26 1.61 2.67 2.58a.63.62-29.6 01-.22.77c-1.74 1.2-3.89 1.35-5.48 2.03-3.25 1.37-10.35 4.7-10.81 3.41a.54.54 0 01.32-.69c2.04-.76 3.69-.87 5.46-2.25q3.65-2.83 7.21-5.78a.75.75 0 01.85-.07zM233.25 176.21q-1 .07-1.96-.14-18.9-4.05-37.85-7.77c-6.76-1.32-13.7-4.58-20.34-4.32q-9.38.37-16.92 6.57a1.16 1.14-18.6 00-.43.85l-.27 5.31a.9.89 11.9 00.59.89c2.29.84 4.7 1.75 7.08 2.35q39.26 9.75 78.19 20.76c2.01.57 5.4.91 7.98 2.36q.43.24.92.26c4.28.17 8.33 2.16 11.67 2.89q10.63 2.32 21.09 5.32l-.89 3.05a1.37 1.3-12 01-.47.68q-1.69 1.28-1.48 3.29a.93.92 10.8 00.5.73l5.86 3.07a1.27 1.26 4.9 01.62.73l1.55 4.91a.9.89 88.6 00.6.58c3.79 1.09 8.65.77 11.21 4.98q.26.44-.24.33-8.96-1.97-11.51-2.62-64.54-16.6-129.26-32.49-3.45-.85-6.62-2.44c-7.26-3.63-6.07-13.63-3.4-19.51 4.11-9.01 15.46-14.64 24.98-16.26q3.6-.6 9.14.01c16.77 1.86 33.14 6.07 49.63 9.55a.57.56 8.9 01.44.59l-.41 5.49z"/><path fill="#fff" d="M267.83 164.76l-9.87.6a.78.78 0 01-.39-1.49q7.3-3.54 15.44-2.79.61.05.23.54c-.79.99-3.29 3.91-4.64 3.28q-.36-.17-.77-.14z"/><path fill="#929597" d="M366.8 167.87c-.9.2-7.58-.07-7.57-.85a.78.78 0 01.6-.76l4.6-1.04q.5-.12.97-.33l3.67-1.68a.64.64 0 01.88.4l1.38 4.64q.27.91-.63.61l-2.9-.95a1.89 1.82 46.1 00-1-.04z"/><path fill="#fff" d="M233.25 176.21q2.65 12.63 14.41 15.87 3.04.83 5.24 1.97 2.7 1.39 5.64 2.52a1.9 1.84 80.3 01.79.58c5.38 6.83 15.51 11.72 23.93 7.51q.49-.24.44.31l-.7 6.57q-10.46-3-21.09-5.32c-3.34-.73-7.39-2.72-11.67-2.89q-.49-.02-.92-.26c-2.58-1.45-5.97-1.79-7.98-2.36q-38.93-11.01-78.19-20.76c-2.38-.6-4.79-1.51-7.08-2.35a.9.89 11.9 01-.59-.89l.27-5.31a1.16 1.14-18.6 01.43-.85q7.54-6.2 16.92-6.57c6.64-.26 13.58 3 20.34 4.32q18.95 3.72 37.85 7.77.96.21 1.96.14z"/><path fill="#929597" d="M327.79 171.78c1.06-1.94 2.34-5.23 5.16-5.79q6-1.19 14.06 1.13a.69.69 0 01-.14 1.36q-1.13.09-1.73.97a1.36 1.36 0 01-.89.55c-4.72.76-11.68 3.19-16.2 2.33a.38.37 20 01-.26-.55z"/><path fill="#fff" d="M266.98 168.31c-1.43 1.76-2.8 4.82-5.43 4.71q-6.46-.29-12.62 1.85a.58.57-82.3 01-.66-.87q2.26-3.34 5.38-5.91a1.53 1.52-64.5 01.96-.34l12.11.01a.34.34 0 01.26.55z"/><path fill="#929597" d="M120 169.96q-3.83.83-7.78.76c-1.33-.02-2.24.61-1.63 2.02a.79.79 0 00.71.48q3.95.1 5.53.69c2.27.86 10.76 3.48 10.49.18a1.41 1.36 21.3 00-.39-.85q-1.02-1.05-1.43-2.45 3.78.14 6.75 2.42-1.83-.32-2.29 1.47-.59 2.32 1.8 2.48 2.48.16 3.03-2.66l6 2.75a.56.55-64.1 01.26.76l-1.23 2.29q-.32.6-.65.01l-.19-.32a.41.41 0 00-.41-.22c-3.75.31-7.45-1.18-10.53-1.43-4.42-.35-7.54-.34-12.37-2.18-1.94-.73-4.22-.47-6.17-2.15a1.14 1.13 61.4 00-.87-.26q-1.08.15-2-.65a.99.98-31.5 00-.87-.2l-1.73.42a1.11 1.11 0 00-.45 1.92q6.08 5.15 13.01 7.72c7.26 2.7 14.8.72 22.44 1.72a.17.17 0 01.14.22c-.18.56-9.54.36-10.73.36-9.69.01-17.33-1.7-25.34-6.65-3.07-1.89-4.67-4.48-2.41-7.73a1.45 1.42 9.1 01.78-.55q9.23-2.65 18.53-.37zM308.62 175.05a.31.31 0 01.03.55c-3.72 2.1-8.01 2.31-11.93 3.2-5.96 1.35-13.41-.64-19.12-3.07a.3.3 0 01-.06-.51q9.32-7.34 20.45-4.78c3.41.78 7.06 3.01 10.63 4.61z"/><path fill="#fff" d="M120 169.96l5.5.83q.41 1.4 1.43 2.45a1.41 1.36 21.3 01.39.85c.27 3.3-8.22.68-10.49-.18q-1.58-.59-5.53-.69a.79.79 0 01-.71-.48c-.61-1.41.3-2.04 1.63-2.02q3.95.07 7.78-.76z"/><path fill="#929597" d="M370.62 175.38c-1.74 3.49-1.7 7.13-4.79 9.62a.51.51 0 01-.72-.09q-7.08-9.13-18.38-11.54-.53-.12-.14-.49c5.15-4.89 16.24-.88 22.19-.07q1.45.2 1.91 1.64a1.21 1.2 49.4 01-.07.93z"/><path fill="#fff" d="M132.25 173.21l2.54 1.29q-.55 2.82-3.03 2.66-2.39-.16-1.8-2.48.46-1.79 2.29-1.47zM260.5 181.29a.61.6-84.6 01-.54.45q-5.77.33-10.74 3.22a.56.55 56.8 01-.73-.16q-2.06-2.89-.71-6.1a1.53 1.48 89.9 01.75-.78q6.23-2.87 13.14-2.93a.35.35 0 01.34.44l-1.51 5.86z"/><path fill="#929597" d="M328.04 176.32c12.87 0 27.19-.02 33.64 11.56q.82 1.47-.83 1.17c-9.79-1.72-25.5-5.82-32.94-12.4q-.37-.33.13-.33zM267.14 178.42a1.1 1.1 0 01.88-.94q3.65-.68 6.8 1.36a.47.47 0 01-.16.85l-7.47 1.57a.32.32 0 01-.38-.36l.33-2.48zM268.06 192.81q.02.33-.23.42a.31.31 0 01-.42-.23l-1.32-6.6a.53.53 0 01.34-.61l12.7-4.72a1.1 1.08 51 01.99.11q1.88 1.25 4.35.95a.53.53 0 01.59.53c-.02 1.12-13.8 8.27-17 10.15zM292.76 183.15q6.62-.36 13.21-1.51.49-.09.03.11c-10.72 4.77-17.96 13.73-28.11 18.97a1.22 1.18 42.4 01-1.03.03l-5.61-2.45a.51.51 0 01-.11-.87q8.97-7.18 18.26-13.76c1.27-.9 2.2-.45 3.36-.52zM306.12 202.53c-.68-5.29-1.35-17.61 6.18-19.15a1.73 1.73 0 011.96 2.31c-2.18 5.71-3.15 12.54-7.71 16.99q-.36.36-.43-.15zM318.32 185.78q-.15-.75.2-1.39.3-.55.52.04 6.63 17.26 5.74 35.75-.03.56-.46.19c-9.75-8.34-8.53-21.94-6-33.63q.1-.48 0-.96z"/><circle fill="#fff" cx="256.09" cy="187.7" r="2.93"/><path fill="#929597" d="M397.6 218.88l-2.08-4a1.08 1.07 82.6 00-.72-.56q-20.31-4.52-46.55-11.33-.2-.05-1 .05-3.79-5.2-9.25-9.72a1.03 1.03 0 01.76-1.81c3.74.38 7.92 1.88 11.35 2.48q12.09 2.08 24.1 4.49c10.59 2.13 26.78 4.88 40.03 8.16a.21.21 0 01.04.39q-9.31 4.44-16.68 11.85zM299.49 192.11q.9-.83 1.04.38l.31 2.77a.66.65 82.1 01-.54.72l-5.55.95q-.6.1-.15-.31l4.89-4.51zM334.5 199.21l-4.46.29-.96-6.51q-.07-.5.25-.11l5.17 6.33z"/><path fill="#fff" d="M334.5 199.21c3.39 4.18 4.29 8.81 10.38 10.2a2.14 2.14 0 002.61-2.21l-.24-4.16q.8-.1 1-.05 26.24 6.81 46.55 11.33a1.08 1.07 82.6 01.72.56l2.08 4q-4.93 5.65-8.14 12.62l-.8-.13a1.79 1.75 37 00-.94.12c-4.3 1.81-7.99 2.87-12.81 1.79q-20.92-4.7-41.71-10.03a.83.82 28.1 00-.81.24q-.61.68-1.35 1.01 1.24-12.58-1-25l4.46-.29z"/><path fill="#929597" d="M289.52 203.17a1.2 1.2 0 01.98-1.36l9.28-1.65a.23.23 0 01.25.33l-3.24 6.54a1.54 1.51-2.5 01-.59.63q-2.51 1.5-4.23 4.5-.95 1.67-2.79 1.28a.53.52 14.5 01-.4-.67q1.46-4.68.74-9.6zM308.01 221.51c-.25-1.46-.03-17.15 3.25-18.66a.49.48 75.7 01.68.41q.62 9.81 6.7 17.27c1.38 1.69 1.43 3.06-.07 4.56a1.47 1.43 20.4 01-.95.42l-4.57.28q-.45.03-.84.24-1.58.86-3.31.99a.52.51-88.6 01-.55-.58q.22-1.68-.34-4.93zM301.31 206.39c.16-.25.2-.6.51-.83a.53.53 0 01.74.1c.72.97-7.4 14.43-8.55 15.92a.33.33 0 01-.55-.04l-1.8-3.18a.63.61-36.7 01.12-.76q5.51-5.03 9.53-11.21zM297.18 223.78l5.8-9.35a.34.34 0 01.62.18l-.08 11a.34.34 0 01-.43.33l-5.71-1.65a.34.34 0 01-.2-.51zM389.46 231.5c-2.75 6.52-4.97 14.45-11.36 18.66-4.6 3.04-7.61.71-12.11-.41q-28.68-7.14-57.73-13.89a.58.58 0 01-.21-1.04q5.35-3.84 11.67-1.9a.67.66 24.5 00.76-.28c2.03-3.32 5-7.77 9.38-6.3a.53.53 0 00.67-.33l.51-1.51q.74-.33 1.35-1.01a.83.82 28.1 01.81-.24q20.79 5.33 41.71 10.03c4.82 1.08 8.51.02 12.81-1.79a1.79 1.75 37 01.94-.12l.8.13z"/><ellipse fill="#929597" transform="rotate(-31.9 467.428 -87.513)" rx="2.78" ry="2.53"/><rect fill="#929597" x="-2.72" y="-3.04" transform="rotate(-15.4 964.435 -453.472)" width="5.44" height="6.08" rx="2.19"/><rect fill="#929597" x="-3.6" y="-3.28" transform="rotate(-37.6 413.501 -47.45)" width="7.2" height="6.56" rx="2.94"/><ellipse fill="#929597" transform="rotate(90.4 -53.134 188.84)" rx="3.73" ry="3.16"/><path fill="#929597" d="M227.25 247.79c20.57 5.76 41.02 12.03 61.66 17.53 40.7 10.86 81.46 21.64 121.84 33.67q1.94.58 8.17 1.2 23.96 2.41 40.79-14.19 1.95 1.99 1.74 4.48.05 7.44-1.25 14.73c-.91 5.05-3.85 6.93-2.86 12.92a1.27 1.25 14.1 00.5.82l4.04 2.95c1.27.89 2.72 1.88 4.29 2.26q19.19 4.57 38.34 9.3 3.32.81 8.28 3.42c15.35 8.04 17.13 24.51 11.46 39.41-5.46 9.14-16.6 17.24-24.92 23.86-6.37 5.07-13.74 8.97-20.87 13.28-22.38 13.54-48.4 23.9-72.53 29.22q-20.58 4.54-50.72 6.32a.8.79 77.7 01-.8-.52l-.46-1.22a1.57 1.56 5.5 00-.65-.78q-3.77-2.31-6.48-5.74c-1.8-2.27-1.93-5.65-3.79-7.77-7.06-8.11-20.81-10.52-29.56-3.25-2.76 2.29-4.29 6.87-6.67 10.12q-1.34 1.85-2.39 8.28a.59.58 5.1 01-.59.49q-9.73-.16-19.39-1.21c-29.81-3.25-57.9-7.25-86.29-19.6-26.71-11.62-14.5-32.61 1.94-44.5 3.03-2.19 4.78-5.35 8.04-7.5 7.42-4.89 13.86-15.64 2.78-20.25-12.11-5.05-24.46-6.19-38.4-7.79q-19.55-2.25-41.26-6.74c-10.31-2.13-24.9-7.57-32.26-15.86q-6.82-7.67-9.79-16.83-1.83-5.61-1.5-13.63 9.22-19.04 26.52-28.97 32.52-18.66 69.54-25.27c4.43-.78 8.41-1.33 12.93-.23q5.23 1.28 10.39 2.82 9.5 2.85 19.08 5.44c.61.16.97-.08 1.1-.67zm148.87 104.97q-.45 3.08-.37 6.24.04 1.61-.8 2.7-21.81-4.22-45.2-5.87-14.14-1-27.18 3.14c-3.36 1.07-18.77 7.57-10.32 12.74 3.23 4.95 14.73 6.99 20.27 8.06 8.43 1.62 15.49 7.69 23.06 9.01q6.38 1.12 12.74-1.43-.08 4.38-1.8 7.01a.48.48 0 00.16.68q1.35.78 2.78.21.14.51.43.82c14.08 15.14 32.72 16.21 51.44 9.8 10.37-4.56 2.77-12.36 2.05-18.97l-.34-3.15q4.91-3.88 11.8-2.61 10.31 1.89 20.59 3.93c4.25.84 8.27 2.52 11.8.47q1.71-1 3.44-2.08 4.61-4.43 5.82-9.02c2.99-11.37-16.8-20.42-25.72-20.77q-2.49-.09-5.32-.29a.53.53 0 01-.2-1.01q2.72-1.37 4.22-4.09a.96.94 46.9 00.02-.88c-1.23-2.48-2.24-4.01-4.91-5.43q-6.27-3.32-8.71-9.91c-4.3-11.59-24.7-14.61-32.01-4.72-3.24 4.39-7.61 10.53-7.83 16.14q-.19 4.64.09 9.28zM97.63 247.34q1.12.95-.26 1.42l-2.57.89a.83.82-12.2 01-1.09-.7l-.22-2.17a.78.78 0 01.85-.85q1.85.2 3.29 1.41zM503.06 279.4c4.87-.14 10.05-.95 12.44-5.44a.49.48-62.9 00-.21-.67c-1.98-1-3.62-2.3-5.9-2.44l-12.38-.74q-16.48-.98-30.46-9.65c-10.34-6.42-24.28-8.52-36.13-9.84a.36.36 0 01-.28-.51q2.18-4.63 7.37-3.59c17.88 3.56 37.84 4.3 54.72 7.76q14.39 2.94 24.86 13.97c6.54 6.9 3.32 11.84-4.73 13.98-2.92.77-5.25 1.76-8.31 1.68-7.06-.18-12.97-1.19-19.91-3.95-11.84-4.71-22.83-10.4-34.15-16.2q-8.41-4.31-15.21-6.04-3.23-.82-4.3-3.25-.21-.48.3-.36 16.88 3.99 31.55 12.82 10.37 6.24 12.16 7.04 13.15 5.88 28.57 5.43zm-36.19-23.74c.55 2.21 2.31 2.86 4.34 3.24a.86.85 22 00.86-.36q1.23-1.84.88-4.05a1.79 1.79 0 00-1.77-1.51q-2.48.01-4.1 1.83a.94.93-31.2 00-.21.85zm23.87 7.84c.81 0 1.16.34 1.75.78a2.08 2 65.2 00.97.38q6.61.69 12.81 2.93a1.27 1.27 0 001.37-2.04c-5.57-6.15-20.06-10.56-28.09-9.88a.94.94 0 00-.81.63q-.86 2.59-.43 5.38a.75.75 0 00.6.62q5.86 1.22 11.83 1.2z"/><circle fill="#929597" cx="123.55" cy="250.78" r="3.32"/><path fill="#fff" d="M471.21 258.9c-2.03-.38-3.79-1.03-4.34-3.24a.94.93-31.2 01.21-.85q1.62-1.82 4.1-1.83a1.79 1.79 0 011.77 1.51q.35 2.21-.88 4.05a.86.85 22 01-.86.36zM490.74 263.5q-5.97.02-11.83-1.2a.75.75 0 01-.6-.62q-.43-2.79.43-5.38a.94.94 0 01.81-.63c8.03-.68 22.52 3.73 28.09 9.88a1.27 1.27 0 01-1.37 2.04q-6.2-2.24-12.81-2.93a2.08 2 65.2 01-.97-.38c-.59-.44-.94-.78-1.75-.78z"/><path fill="#1b1b1b" d="M461.45 290.48q3.84 7.22 4.35 13.51c.33 4.14-2.62 5.85-3.33 9.36q-.83 4.1-.59 8.55l-4.04-2.95a1.27 1.25 14.1 01-.5-.82c-.99-5.99 1.95-7.87 2.86-12.92q1.3-7.29 1.25-14.73zM87.69 294.67q-.33 8.02 1.5 13.63 2.97 9.16 9.79 16.83c7.36 8.29 21.95 13.73 32.26 15.86q21.71 4.49 41.26 6.74c13.94 1.6 26.29 2.74 38.4 7.79 11.08 4.61 4.64 15.36-2.78 20.25-3.26 2.15-5.01 5.31-8.04 7.5-16.44 11.89-28.65 32.88-1.94 44.5 28.39 12.35 56.48 16.35 86.29 19.6q9.66 1.05 19.39 1.21a.59.58 5.1 00.59-.49q1.05-6.43 2.39-8.28c2.38-3.25 3.91-7.83 6.67-10.12 8.75-7.27 22.5-4.86 29.56 3.25 1.86 2.12 1.99 5.5 3.79 7.77q2.71 3.43 6.48 5.74a1.57 1.56 5.5 01.65.78l.46 1.22a.8.79 77.7 00.8.52q30.14-1.78 50.72-6.32c24.13-5.32 50.15-15.68 72.53-29.22 7.13-4.31 14.5-8.21 20.87-13.28 8.32-6.62 19.46-14.72 24.92-23.86-4.74 13.86-19.16 28.29-30.64 36.83-5.08 3.77-12.06 7.84-18.04 11.63-14.61 9.26-29.2 14.25-44.95 19.43q-32.64 10.74-66.31 12.64-3.36.19-5.27.5-.53.08 0 .18c2.6.45 4.82.26 7.23 1.38 6.95 3.21 18.31 9.32 18.98 17.04.14 1.61-.81 3.13-.76 5.08q.34 14.38 1.03 28.75c.27 5.58-8.72 15.14-14.52 14.22q-13.97-2.21-27.83-5.1-4.64-.97-8.93.98a1.04 1.04 0 00-.58.7c-2.25 9.21 4.61 21.4-6.8 24.26-17.39 4.36-32.08 3.47-45.82-8.9-1.47-1.33-1.44-8.46-2.53-11.25a.83.83 0 00-1.14-.44c-13.14 6.61-19.79-.99-31.03-5.43q-2.5-.99-8.5-2.26-5.99-1.26-13.32-4.07c-3.94-1.5-5.27-3.35-5.25-7.77q.07-15.63-.43-31.28c-.28-8.77 16.98-11.79 23.58-12.92 7.53-1.29 15.43-.86 22.97.03 11.66 1.37 23.38 3.42 34.85 3.48 4.04.02 5.07-1.86 4.44-5.64a.63.62-2.9 00-.58-.52c-18.34-.88-36.25-2.97-54.4-5.65-17.94-2.65-63.02-12.71-71.2-30.49-7.64-16.62 7.9-31.37 20.28-39.81 2.54-1.73 10.15-9.3 11.02-12.07 3.11-9.83-15.69-11.64-22.28-12.73q-5.24-.87-12.24-1.66c-20.11-2.27-37.59-5.11-55.76-10.99-23.55-7.62-40.48-22.16-31.83-49.77zm239.137 137.604a.26.26 0 00-.262-.258l-4.1.029a.26.26 0 00-.258.262l.187 26.779a.26.26 0 00.261.258l4.1-.029a.26.26 0 00.258-.262l-.186-26.779zm-13.157 9.136q-4.28 7.43-2.32 15.52c.62 2.53.2 4.99.56 7.56a.32.32 0 00.5.22q1.03-.74 1.63-1.71l4-2.45a.8.8 0 00.38-.7l-.62-23.84q-.03-1.17-.73-.23-.96 1.31-1.12 2.88a1.35 1.34 70.4 01-.37.79l-1.91 1.96zm43.29 39.84l6.29.71.87.26a.44.44 0 00.56-.44l-.29-7.24q-.02-.5.14-.98.49-1.51-.07-3.03a1.14 1.1 47.4 01.02-.84c2.76-6.35-6.33-4.89-9.19-5.13a.47.47 0 00-.51.46q-.09 7.39.02 14.66.02 1.61 2.16 1.57zm-57.85 23.92c1.55 3.27 15.39 1.75 18.38.98q3.82-.97 7.18-1.59a1.57 1.56 85.3 001.28-1.52c.09-5.1-.97-14.1 1.05-18.38 2.95-6.25 7.12-5.54 13.08-6.54a.38.38 0 00.27-.54c-1.61-3.39-1.81-7.34-5.03-9.12-5.39-2.99-15.41-4.26-18.57 2.71-2.06 4.56-4.8 5.44-4.77 11.23.02 5.03.98 12.96-1.23 17.25-2.14 4.15-6.44 7.02-11.36 5.21q-.52-.19-.28.31zm-50.36-38.63l-3.5.42c-4.17.74-13.8 2.23-17.42 5.29a.31.31 0 00.08.53q6.89 2.9 14.21 4.01c5.2.79 9.01 2.73 13.59 4.71q3.9 2.6 8.35 4.31a.35.34 10.5 00.47-.32l-.04-17.22a.66.66 0 00-.47-.63q-4.34-1.26-8.77-1.1-3.25-.7-6.5 0zm25.29 1.49a.35.35 0 00-.33-.35l-5.11-.2a.35.35 0 00-.36.36l.37 17.9a.35.35 0 00.49.32l4.5-1.91a.35.35 0 00.21-.32l.23-15.8zm7.406 17.498a8.4.97 88.8 00.794-8.418 8.4.97 88.8 00-1.146-8.378 8.4.97 88.8 00-.794 8.418 8.4.97 88.8 001.146 8.378zm96.624 26.512q.68-.45 1.07-1.24a.4.4 0 00-.24-.57l-.42-.12q-.64-.19-.08-.55c1.51-.97.92-4.82.84-6.14-.31-5.19.23-9.72-.96-14.92a.48.47-15.8 00-.61-.34q-1.75.6-1.7 3.1.23 11 0 22.18a.41.4 62.8 00.74.24l.65-.94q.29-.42.71-.7zm-14.36-22.29l-1.1.44a.85.85 0 00-.53.8l.51 23.95a1.43 1.26 84.8 001.49 1.41q.26-.05.96-.85 1.12 1.74 3.21.96 1.28-.16 2.53.62a.84.84 0 001.29-.74q-.13-3.24-.38-6.2c-.53-6.26-.16-12.62-.5-18.93a.9.87-78.4 00-.47-.74q-1-.52-2.74-.17-1.8-1.14-4.27-.55zm-90 2.5l-5.36 1.3a.62.61-7.7 00-.47.61l.45 25.61a.44.44 0 00.67.37q2.44-1.48 5.25-1.93l4.9-.08a.5.5 0 00.49-.52q-.42-10.77-.44-21.54-.01-1.58-.85-4.56a.69.69 0 00-.65-.5q-2.22-.05-3.99 1.24zm47.54 19.96l-3.88.6a.7.69 86.1 00-.58.68l-.06 26.22a.44.44 0 00.57.42l5.2-1.67q2.79.34 4.23-1.75a1.28 1.27-32 00.21-.9c-1.36-9.27.05-16.02.24-23.9a.53.53 0 00-.5-.54q-2.93-.17-5.43.84zm-9.616 1.023a.28.28 0 00-.284-.277l-2.4.03a.28.28 0 00-.276.283l.332 27.178a.28.28 0 00.284.277l2.4-.03a.28.28 0 00.276-.283l-.332-27.178z"/><circle fill="#929597" cx="512.06" cy="301.1" r="2.32"/><path fill="#929597" d="M486.31 307.93c-2.13 2.23-6.93.7-6.07-3.37a1.3 1.29-9 01.63-.86q1.94-1.13 4.11-.39a1.09 1.07 1.2 01.68.7l.89 2.91a1.05 1.04-32 01-.24 1.01zM502.47 313.1c-1.37.29-3.73-.27-4.8-1.29a.45.44 39 01-.06-.57l1.93-2.93a.79.79 0 01.81-.34q2.3.46 3.37 2.43a1.85 1.85 0 01-1.25 2.7z"/><ellipse fill="#929597" transform="rotate(98.1 102.198 362.054)" rx="3.09" ry="2.6"/><circle fill="#929597" cx="523.13" cy="314.41" r="2.94"/><path fill="#929597" d="M486.23 316.19c4.47 3.48-2.12 9.62-4.38 3.51a1.19 1.18 50.6 01.1-1.03q1.2-1.91 3.36-2.64a.99.97 54.5 01.92.16z"/><path fill="#1b1b1b" d="M450.67 383.46q3.46-3.58 1.73-7.88c-3.03-7.53-8.57-9.03-15.15-12.61-1.56-.85-14.08-.5-14.02-4.18.03-2.16-.78-6.6 1.9-7.38a.61.61 0 00.13-1.11c-4.41-2.55-8.83-5.81-10.86-10.65q-4.37-10.37-16.23-11.87c-13.54-1.71-21.16 13.51-22.05 24.98q-.28-4.64-.09-9.28c.22-5.61 4.59-11.75 7.83-16.14 7.31-9.89 27.71-6.87 32.01 4.72q2.44 6.59 8.71 9.91c2.67 1.42 3.68 2.95 4.91 5.43a.96.94 46.9 01-.02.88q-1.5 2.72-4.22 4.09a.53.53 0 00.2 1.01q2.83.2 5.32.29c8.92.35 28.71 9.4 25.72 20.77q-1.21 4.59-5.82 9.02z"/><path fill="#929597" d="M500.69 325.43q-.62-1.93.36-3.68a.57.57 0 01.76-.23l2.65 1.35a.59.59 0 01.29.74q-.8 2.16-3.07 2.44a.92.92 0 01-.99-.62z"/><path fill="#fafde1" d="M450.67 383.46q-1.73 1.08-3.44 2.08c-3.53 2.05-7.55.37-11.8-.47q-10.28-2.04-20.59-3.93-6.89-1.27-11.8 2.61c-3.75 8.44-1.09 13.78-1.71 22.12-18.72 6.41-37.36 5.34-51.44-9.8q-.29-.31-.43-.82c.15-2.71 1.22-5.69-1.14-7.9q-6.36 2.55-12.74 1.43c-7.57-1.32-14.63-7.39-23.06-9.01-5.54-1.07-17.04-3.11-20.27-8.06 1.26-8.15 24.23-9.82 30.69-9.66q10.04.26 32.95 3.3c7.06.94 14.87 5.82 19.06-3.65q.84-1.09.8-2.7-.08-3.16.37-6.24c.89-11.47 8.51-26.69 22.05-24.98q11.86 1.5 16.23 11.87c2.03 4.84 6.45 8.1 10.86 10.65a.61.61 0 01-.13 1.11c-2.68.78-1.87 5.22-1.9 7.38-.06 3.68 12.46 3.33 14.02 4.18 6.58 3.58 12.12 5.08 15.15 12.61q1.73 4.3-1.73 7.88z"/><path fill="#1b1b1b" d="M374.95 361.7c-4.19 9.47-12 4.59-19.06 3.65q-22.91-3.04-32.95-3.3c-6.46-.16-29.43 1.51-30.69 9.66-8.45-5.17 6.96-11.67 10.32-12.74q13.04-4.14 27.18-3.14 23.39 1.65 45.2 5.87zM403.04 383.75l.34 3.15c.72 6.61 8.32 14.41-2.05 18.97.62-8.34-2.04-13.68 1.71-22.12zM348.32 387.35c2.36 2.21 1.29 5.19 1.14 7.9q-1.43.57-2.78-.21a.48.48 0 01-.16-.68q1.72-2.63 1.8-7.01z"/><ellipse fill="#929597" transform="rotate(103.9 83.943 407.494)" rx="3.45" ry="2.88"/><circle fill="#929597" cx="165.24" cy="427.29" r="2.95"/><rect fill="#929597" x="-2.93" y="-2.91" transform="rotate(-25.5 1193.84 -856.15)" width="5.86" height="5.82" rx="2.18"/><rect fill="#929597" x="-2.31" y="-13.65" transform="rotate(-.4 64001.003 -46273.929)" width="4.62" height="27.3" rx=".26"/><path fill="#929597" d="M314.04 463q.99-10.77-.37-21.59l1.91-1.96a1.35 1.34 70.4 00.37-.79q.16-1.57 1.12-2.88.7-.94.73.23l.62 23.84a.8.8 0 01-.38.7l-4 2.45z"/><ellipse fill="#929597" transform="rotate(26.7 -677.907 1263.766)" rx="3.69" ry="3.45"/><ellipse fill="#929597" transform="rotate(111 79.538 377.759)" rx="2.59" ry="2.04"/><rect fill="#929597" x="-2.76" y="-2.67" transform="rotate(-2.1 12267.124 -12586.098)" width="5.52" height="5.34" rx="1.84"/><ellipse fill="#929597" transform="rotate(98.2 -126.168 279.602)" rx="3.33" ry="2.86"/><path fill="#fff" d="M313.67 441.41q1.36 10.82.37 21.59-.6.97-1.63 1.71a.32.32 0 01-.5-.22c-.36-2.57.06-5.03-.56-7.56q-1.96-8.09 2.32-15.52z"/><ellipse fill="#929597" transform="rotate(-25.5 1081.996 -209.838)" rx="3.27" ry="2.73"/><ellipse fill="#929597" transform="rotate(71.4 -50.61 584.802)" rx="2.52" ry="2.3"/><path fill="#929597" d="M537.59 448.83c-2.86 3.91-7.1 1.54-5.87-3.05a1.96 1.96 0 012.74-1.26l2.32 1.1a2.15 2.15 0 01.81 3.21z"/><circle fill="#929597" cx="174.26" cy="451.02" r="3.2"/><circle fill="#929597" cx="430.77" cy="452.24" r="3.38"/><path fill="#929597" d="M516 451.03c6.65 1.58-2.51 10.55-3.41 2.91a.98.97-24 01.33-.85l2.12-1.83a1.09 1.08 31.4 01.96-.23z"/><ellipse fill="#929597" transform="rotate(104.6 -80.637 301.881)" rx="2.96" ry="2.55"/><path fill="#929597" d="M442.23 457.04c-.19 7.42-11.97 1.54-4.53-3.45a.78.76-42.3 01.9.03l3.18 2.47a1.19 1.17-70.7 01.45.95z"/><circle fill="#929597" cx="452.78" cy="456.97" r="3.1"/><circle fill="#929597" cx="160.14" cy="466.01" r="2.64"/><path fill="#fff" d="M363.25 481.96c.1-3.86-.61-10.42.58-13.9a1.04 1.04 0 00-.15-.96q-1.86-2.51-5.13-1.42a.67.67 0 00-.45.65c.03 3.47 1.16 12.63-1.14 14.92q-2.14.04-2.16-1.57-.11-7.27-.02-14.66a.47.47 0 01.51-.46c2.86.24 11.95-1.22 9.19 5.13a1.14 1.1 47.4 00-.02.84q.56 1.52.07 3.03-.16.48-.14.98l.29 7.24a.44.44 0 01-.56.44l-.87-.26z"/><path fill="#929597" d="M363.25 481.96l-6.29-.71c2.3-2.29 1.17-11.45 1.14-14.92a.67.67 0 01.45-.65q3.27-1.09 5.13 1.42a1.04 1.04 0 01.15.96c-1.19 3.48-.48 10.04-.58 13.9z"/><path fill="#fafde1" d="M317.49 506.15c-2.99.77-16.83 2.29-18.38-.98q-.24-.5.28-.31c4.92 1.81 9.22-1.06 11.36-5.21 2.21-4.29 1.25-12.22 1.23-17.25-.03-5.79 2.71-6.67 4.77-11.23 3.16-6.97 13.18-5.7 18.57-2.71 3.22 1.78 3.42 5.73 5.03 9.12a.38.38 0 01-.27.54c-5.96 1-10.13.29-13.08 6.54-2.02 4.28-.96 13.28-1.05 18.38a1.57 1.56 85.3 01-1.28 1.52q-3.36.62-7.18 1.59z"/><path fill="#fff" d="M255.25 466.54l.46 14.96c-4.58-1.98-8.39-3.92-13.59-4.71q-7.32-1.11-14.21-4.01a.31.31 0 01-.08-.53c3.62-3.06 13.25-4.55 17.42-5.29l.43.03a.47.46 4.9 01.43.5c-.19 2.01-.68 10.02 2.68 9.92a.58.58 0 00.56-.53q.45-5.25-.6-10.34 3.25-.7 6.5 0z"/><path fill="#929597" d="M255.71 481.5l-.46-14.96q4.43-.16 8.77 1.1a.66.66 0 01.47.63l.04 17.22a.35.34 10.5 01-.47.32q-4.45-1.71-8.35-4.31zM248.75 466.54q1.05 5.09.6 10.34a.58.58 0 01-.56.53c-3.36.1-2.87-7.91-2.68-9.92a.47.46 4.9 00-.43-.5l-.43-.03 3.5-.42zM274.04 468.03l-.23 15.8a.35.35 0 01-.21.32l-4.5 1.91a.35.35 0 01-.49-.32l-.37-17.9a.35.35 0 01.36-.36l5.11.2a.35.35 0 01.33.35z"/><ellipse fill="#929597" transform="rotate(88.8 -102.98 382.177)" rx="8.4" ry=".97"/><path fill="#929597" d="M482.38 475.01q-1.24-1.81-.86-4.07a.75.73-2.6 01.55-.59q2.89-.7 4.57 1.47a1.14 1.13-56.7 01.2.98q-.71 2.65-3.38 2.75a1.24 1.24 0 01-1.08-.54zM527.63 475.81c-4.05-2.24-1.37-5.59 1.96-5.55a1.02 1.01-15.4 01.84.47q1.36 2.12-.22 4.46a1.96 1.95 31.4 01-2.58.62z"/><ellipse fill="#929597" transform="rotate(81.1 -183.318 365.79)" rx="2.72" ry="2.46"/><path fill="#929597" d="M377.36 512.74l-.65.94a.41.4 62.8 01-.74-.24q.23-11.18 0-22.18-.05-2.5 1.7-3.1a.48.47-15.8 01.61.34c1.19 5.2.65 9.73.96 14.92.08 1.32.67 5.17-.84 6.14q-.56.36.08.55l.42.12a.4.4 0 01.24.57q-.39.79-1.07 1.24-.42.28-.71.7z"/><circle fill="#929597" cx="183.66" cy="491.61" r="2.78"/><path fill="#fff" d="M367.98 490.3q-.71 13.06.27 26.16-2.09.78-3.21-.96c-2.22-6.94-1.11-18.21-1.33-25.75q2.47-.59 4.27.55z"/><path d="M363.71 489.75c.22 7.54-.89 18.81 1.33 25.75q-.7.8-.96.85a1.43 1.26 84.8 01-1.49-1.41l-.51-23.95a.85.85 0 01.53-.8l1.1-.44z"/><path fill="#929597" d="M367.98 490.3q1.74-.35 2.74.17a.9.87-78.4 01.47.74c.34 6.31-.03 12.67.5 18.93q.25 2.96.38 6.2a.84.84 0 01-1.29.74q-1.25-.78-2.53-.62-.98-13.1-.27-26.16zM274.25 518.21c-.24-.69-.54-.8-.59-1.57q-.75-12.2.05-24.39 1.77-1.29 3.99-1.24a.69.69 0 01.65.5q.84 2.98.85 4.56.02 10.77.44 21.54a.5.5 0 01-.49.52l-4.9.08z"/><path fill="#fff" d="M273.71 492.25q-.8 12.19-.05 24.39c.05.77.35.88.59 1.57q-2.81.45-5.25 1.93a.44.44 0 01-.67-.37l-.45-25.61a.62.61-7.7 01.47-.61l5.36-1.3z"/><ellipse fill="#929597" transform="rotate(43.7 -520.223 496.248)" rx="2.9" ry="2.54"/><path fill="#929597" d="M322.5 538.46q-1.37-4.11.04-8.2.27-.81-.52-1.88a1.56 1.51 26.8 01-.31-.89l-.46-15.28q2.5-1.01 5.43-.84a.53.53 0 01.5.54c-.19 7.88-1.6 14.63-.24 23.9a1.28 1.27-32 01-.21.9q-1.44 2.09-4.23 1.75z"/><path fill="#fff" d="M321.25 512.21l.46 15.28a1.56 1.51 26.8 00.31.89q.79 1.07.52 1.88-1.41 4.09-.04 8.2l-5.2 1.67a.44.44 0 01-.57-.42l.06-26.22a.7.69 86.1 01.58-.68l3.88-.6z"/><rect fill="#929597" x="-1.48" y="-13.87" transform="rotate(-.7 43277.064 -25136.302)" width="2.96" height="27.74" rx=".28"/><path fill="#1b1b1b" d="M511.67 569.58a.55.55 0 01.55-.3l.74.09a.59.59 0 01.44.87l-1.68 2.94q-.65 1.14-.73-.17-.11-1.8.68-3.43zM0 590.44c1.1.85 22.4.38 27.94.56H0v-.56zM48.94 591H34.69q7.12-.63 14.25 0zM87.94 591H49.19q19.37-.63 38.75 0zM96.94 591h-6.75q3.37-.63 6.75 0zM145.94 591H98.19q23.87-.63 47.75 0zM183.94 591h-5.75q2.87-.63 5.75 0zM191.94 591h-5.75q2.87-.63 5.75 0zM207.94 591h-15.75q7.87-.63 15.75 0zM215.94 591h-5.75q2.87-.63 5.75 0zM223.94 591h-5.75q2.87-.63 5.75 0zM230.94 591h-4.25q2.12-.63 4.25 0zM254.94 591h-20.75q10.37-.63 20.75 0zM271.94 591h-11.75q5.87-.63 11.75 0zM304.94 591h-22.75q11.37-.63 22.75 0zM313.94 591h-7.75q3.87-.63 7.75 0zM319.94 591h-5.75q2.87-.63 5.75 0zM373.94 591h-35.75q17.87-.63 35.75 0zM400.94 591h-15.25q7.62-.63 15.25 0zM407.94 591h-6.75q3.37-.63 6.75 0zM423.94 591h-14.75q7.37-.63 14.75 0zM463.94 591h-13.75q6.87-.63 13.75 0zM477.94 591h-11.75q5.87-.63 11.75 0zM512.25 590.79l-.06.21h-23l23.06-.21z"/><path fill="#1b1b1b" d="M512.25 590.79l15.69.21h-15.75l.06-.21zM543.94 591h-5.75q2.87-.63 5.75 0zM566.44 591h-6.25q3.12-.63 6.25 0zM578.44 591h-10.25q5.12-.63 10.25 0zM589.94 591h-9.25q4.62-.63 9.25 0z"/></svg>