<svg xmlns="http://www.w3.org/2000/svg" viewBox="0 0 591 591"><g stroke-width="2" fill="none"><path stroke="#cbcbcb" vector-effect="non-scaling-stroke" d="M591 2.56q-.28-2.76-.76-1.81"/><path stroke="#4b4c4b" vector-effect="non-scaling-stroke" d="M590.24.75q-1.47.03-2.24.03Q294 .97 0 .94"/><path stroke="#cbcbcb" vector-effect="non-scaling-stroke" d="M8.19 591q-2.38-.63-4.75 0"/><path stroke="gray" vector-effect="non-scaling-stroke" d="M0 589.94q4 .14 8 .14 290.84.17 581.58.17a.68.67 90 00.67-.68L590.24.75"/><path stroke="#7e7f71" vector-effect="non-scaling-stroke" d="M585.5 5.52a.26.26 0 00-.26-.26H5.5a.26.26 0 00-.26.26v579.72a.26.26 0 00.26.26h579.74a.26.26 0 00.26-.26V5.52"/><path stroke="#fbf2c8" vector-effect="non-scaling-stroke" d="M80.4 18.86c-14.62-.66-27.02.1-41.96.56-10.25.32-19.88 4.58-21.2 15.83q-.32 2.73-.26 10 .14 19 .52 38.14a.76.76 0 001.25.57Q25.03 78.68 31 72.5c16.14-16.69 32.76-34.65 49.79-51.21q.63-.61.66-1.27a1.1 1.09 3.1 00-1.05-1.16"/><path stroke="#c9cbbc" vector-effect="non-scaling-stroke" d="M295.75 447.96q.63.76.3 1.57a.99.99 0 01-.7.58q-5.01 1.09-10.07.37c-1.93-.28-3.67-2.1-5.57-.23q-1.59 1.57-.07 4.14"/><path stroke="#8d8f80" vector-effect="non-scaling-stroke" d="M279.64 454.39c-6.58.37-23.7 2.44-25.08 11.29-.71 4.53.62 7.74 4.16 10.84 10.28 8.96 22.12 13.09 35.97 11.42"/><path stroke="#c9cbbc" vector-effect="non-scaling-stroke" d="M294.69 487.94c-1.43 15.05-17.2 17.39-28.64 20.4q-10.07 2.64-13.37 4.07c-6.62 2.87-18.02 8.87-21.38 15.74a.44.44 0 00.28.62l5.39 1.47a.8.79 29.8 00.79-.21q6.51-6.62 14.72-10.59c15.85-7.67 48.36-6.8 48.22-31.76a.74.73 75.4 01.37-.64l.43-.25"/><path stroke="#8d8f80" vector-effect="non-scaling-stroke" d="M301.5 486.79c10.45-2.37 10.77-7.48 6.33-15.98-2.24-4.3-6.16-7.31-9.62-10.81"/><path stroke="#c9cbbc" vector-effect="non-scaling-stroke" d="M298.21 460q1.56-.73 2.34-2.08a1.51 1.45 55.5 00.16-.97l-.64-3.7a.67.66 71.8 01.35-.7l1.64-.82a1.03 1.03 0 00.58-.82l.36-3.12"/><path stroke="#8d8f80" vector-effect="non-scaling-stroke" d="M303 447.79q29.52-17.83 55.94-39.9c17.73-14.81 32.63-32.63 47.44-50.26q24.8-29.52 39.43-65.05c12.06-29.3 10.22-67.18 1.77-97.11-9.56-33.87-26.14-61.07-53.88-82.92-28.34-22.32-63.89-33.84-100.13-32.72-48.76 1.5-89.91 18.04-121.62 55.35-3.99 4.69-7.97 9.26-11.22 14.34q-30.2 47.28-23.98 103.47c2.55 23.01 9.86 45.61 21.36 65.97 10.61 18.77 23.49 38.46 38.07 54.11q24.82 26.64 53.41 50.77c9.78 8.26 21.49 15.98 32.31 23.93 4.23 3.12 9.43 2.44 13.85.19"/><path stroke="#5b5b5a" vector-effect="non-scaling-stroke" d="M303 447.79q-3.66-1.19-7.25.17M298.21 460l-3.43-1.36a.47.47 0 00-.63.34c-1.74 8.35 6.86 17.72 6.65 27.17a.63.61-78.4 00.38.59q.15.05.32.05M294.69 487.94l-.93-6.72a.87.86 83.3 00-.93-.74q-17.44 1.58-29.71-10.01c-1.87-1.77-2.69-4.08-3.69-6.4a.63.63 0 01.46-.87q1.9-.37 2.78-2.06.58-1.09.84.11l.6 2.76a1.45 1.44 73 001.95 1.04q5.46-2.19 11.12-3.36 2.36-.49.21.6l-5.06 2.55a.37.37 0 00-.06.61c.97.78 7.53-2.9 8.67-3.65a.32.32 0 01.49.25c.11 1.43-8.79 7.31-10.36 8.24a.51.51 0 00-.05.85l2.63 1.97a.79.77 43.9 00.96-.01l6.79-5.4q.71-.57.39.28-1.29 3.47-4.07 5.9a.66.66 0 00.21 1.11q6.97 2.54 14.33 3.21.44.04.24-.35-4.93-9.66-4.32-20.59a.68.67 6.6 00-.57-.71l-5.87-.96a1.35 1.35 0 01-.78-.41q-.6-.65-1.32-.79"/><path stroke="#c9cbbc" vector-effect="non-scaling-stroke" d="M434.24 421.63a.3.3 0 00.19.5l.97.11a.39.39 0 00.32-.66q-.75-.76-1.48.05M369.436 444.632a.7.49 77.1 00.322-.791.7.49 77.1 00-.634-.573.7.49 77.1 00-.322.791.7.49 77.1 00.634.573"/><path stroke="#10100f" vector-effect="non-scaling-stroke" d="M169 175.79q-1.62-.76-2.36.8c-4.61 9.68-7.07 18.64-8.17 29.79-.9 9.12-2.52 18.67-1.32 27.84 1.36 10.48 2.63 20.61 6 30.69 3.15 9.41 5.85 16.23 10.41 24.89a.84.82 75.4 00.75.45q.64-.01 1.19-.29"/><path stroke="#8f8f8f" vector-effect="non-scaling-stroke" d="M175.5 289.96c17.7 29.6 47.33 47.8 81.7 51.43 13.68 1.44 28.64-.93 41.66-4.81 43.57-13 81.72-55.06 85.03-101.27 4.35-60.76-51.81-124.23-113.89-124.52"/><path stroke="#5b5b5a" vector-effect="non-scaling-stroke" d="M270 110.79l-2.75-.25"/><path stroke="#8f8f8f" vector-effect="non-scaling-stroke" d="M267.25 110.54c-41.64 2.17-81.14 27.16-98.25 65.25"/><path stroke="#cbcbcb" vector-effect="non-scaling-stroke" d="M267.25 110.54l.22.26a.35.34-59 01.07.3l-4.9 21.52"/><path stroke="#8f8f8f" vector-effect="non-scaling-stroke" d="M262.64 132.62q-4.62.54-9.1 1.08c-17.67 2.13-34.97 10.4-47.78 22.06q-29.08 26.5-30.55 66.24"/><path stroke="#cbcbcb" vector-effect="non-scaling-stroke" d="M175.21 222l-13.75 1.38a1 .99-81.3 00-.81.6q-.87 2.1.78 3.8a1.03 1 66.2 00.77.31l13.05-.55"/><path stroke="gray" vector-effect="non-scaling-stroke" d="M175.25 227.54q.55 31.09 18.79 55.96"/><path stroke="#8f8f8f" vector-effect="non-scaling-stroke" d="M194.04 283.5q24.86 32.26 66.29 33.41"/><path stroke="#cbcbcb" vector-effect="non-scaling-stroke" d="M260.33 316.91q2.35 10.7 4.7 21.34c.44 1.99 1.7 3.35 3.78 2.46a1.3 1.29-16.9 00.77-1.43l-4.04-22.53"/><path stroke="#8f8f8f" vector-effect="non-scaling-stroke" d="M265.54 316.75q33.01-2.2 57.15-22.94c21.09-18.11 31.97-41.68 34.06-69.27"/><path stroke="#cbcbcb" vector-effect="non-scaling-stroke" d="M356.75 224.54q11.52-.47 23.05-.04c2.46.09 3.64-1.11 2.38-3.55a1.76 1.75-13.1 00-1.53-.95l-23.97-.53a.17.16-3.8 01-.17-.14l-.03-.29"/><path stroke="#8f8f8f" vector-effect="non-scaling-stroke" d="M356.48 219.04q-1.59-9.93-3.73-17.31c-9.66-33.33-35.94-60.1-70.58-67.3-4.48-.93-9.85-1.3-14.88-1.99"/><path stroke="#cbcbcb" vector-effect="non-scaling-stroke" d="M267.29 132.44l2.71-21.65"/><path stroke="gray" vector-effect="non-scaling-stroke" d="M175.5 289.96c-7.21-13.22-12.89-28.12-15.02-42.71q-3.84-26.32 1.04-50.9c1.4-7.07 4.55-13.85 7.48-20.56"/><path stroke="#8f8f8f" vector-effect="non-scaling-stroke" d="M259.71 150c-39.25 2.13-67.85 32.54-71 71.25"/><path stroke="#5b5b5a" vector-effect="non-scaling-stroke" d="M188.71 221.25l-.23.25a.93.91 17.7 01-.57.29q-6.34.71-12.7.21M256.46 297.83l4.21 17.99a.96.94 54.3 01-.11.71l-.23.38"/><path stroke="#10100f" vector-effect="non-scaling-stroke" d="M194.04 283.5l.78.25a.42.42 0 00.47-.17l.16-.23a.35.35 0 00-.02-.4c-6.43-7.74-9.89-15.69-13.46-25.07-3.11-8.19-3.99-16.99-5.37-25.65q-.27-1.74.13-3.06a.74.74 0 01.65-.52q1.9-.17.43-1.51"/><path stroke="#5b5b5a" vector-effect="non-scaling-stroke" d="M265.54 316.75q-2.34-9.43-2.93-18.96M356.48 219.04q-10.05 1.12-20.21.71a.79.79 0 01-.56-.28l-.17-.22"/><path stroke="#8f8f8f" vector-effect="non-scaling-stroke" d="M335.54 219.25c-4.22-37.38-32.61-68.32-71.25-69.25"/><path stroke="#5b5b5a" vector-effect="non-scaling-stroke" d="M356.75 224.54q-10.61-.63-21.21-.04"/><path stroke="#cbcbcb" vector-effect="non-scaling-stroke" d="M335.54 224.5c-3.47-.2-22.29-1.6-25.83.5"/><path stroke="#5b5b5a" vector-effect="non-scaling-stroke" d="M309.71 225l-.35-.26a1.43 1.39-24.1 00-.8-.29q-10.37-.54-20.62.24M267.29 132.44q-2.08 8.65-3 17.56"/><path stroke="#cbcbcb" vector-effect="non-scaling-stroke" d="M264.29 150q-2.6 10.51-2.61 21.25"/><path stroke="#5b5b5a" vector-effect="non-scaling-stroke" d="M261.68 171.25l-2.2 19.4a.64.6-67.5 00.21.55l.31.26"/><path stroke="#cbcbcb" vector-effect="non-scaling-stroke" d="M260 191.46q-1.8.66-1.66 2.37.66 7.88-2.68 13.9"/><path stroke="#4b4c4b" vector-effect="non-scaling-stroke" d="M255.66 207.73l-1.91-.27"/><path stroke="#cbcbcb" vector-effect="non-scaling-stroke" d="M253.75 207.46c1.52-4.96.54-10.82 1.34-16.1a.11.1 10.8 00-.09-.12l-.25-.03"/><path stroke="#4b4c4b" vector-effect="non-scaling-stroke" d="M254.75 191.21l.25-.5"/><path stroke="#cbcbcb" vector-effect="non-scaling-stroke" d="M255 190.71c1.55.28 1.45-8.92 1.39-10.75a.48.48 0 00-.57-.46q-.26.05-.53.25"/><path stroke="#4b4c4b" vector-effect="non-scaling-stroke" d="M255.29 179.75l.21-4.71"/><path stroke="#5b5b5a" vector-effect="non-scaling-stroke" d="M255.5 175.04q.82-1.86.5-3.83"/><path stroke="#cbcbcb" vector-effect="non-scaling-stroke" d="M256 171.21l3.71-21.21"/><path stroke="#5b5b5a" vector-effect="non-scaling-stroke" d="M259.71 150l2.93-17.38M225.39 225.97q-8.81-.79-17.89.32"/><path stroke="#cbcbcb" vector-effect="non-scaling-stroke" d="M207.5 226.29c-1.12-.87-16.28.32-18.79.46"/><path stroke="#4b4c4b" vector-effect="non-scaling-stroke" d="M188.71 226.75q-.99-.6-1.96.04"/><path stroke="#5b5b5a" vector-effect="non-scaling-stroke" d="M186.75 226.79l-8.94.35"/><path stroke="#4b4c4b" vector-effect="non-scaling-stroke" d="M177.81 227.14l-2.56.4"/><path stroke="#8f8f8f" vector-effect="non-scaling-stroke" d="M256 171.21c-26.75 4.14-45.73 22.18-48.5 49.5"/><path stroke="#cbcbcb" vector-effect="non-scaling-stroke" d="M207.5 220.71l-18.53.98a.21.21 0 01-.22-.18l-.04-.26M254.4 274.52q1.54 11.58 2.06 23.31"/><path stroke="#8f8f8f" vector-effect="non-scaling-stroke" d="M256.46 297.83q-29.16-1.55-48.67-22.33"/><path stroke="gray" vector-effect="non-scaling-stroke" d="M207.79 275.5q-18.19-20.82-19.08-48.75"/><path stroke="#10100f" vector-effect="non-scaling-stroke" d="M207.79 275.5q-.18.88-.85.98a.93.92 66.2 01-.84-.33q-5.5-6.81-9.83-14.41c-1.03-1.8-1.34-3.78-2.32-5.47-2.52-4.35-3.62-9.22-5.22-14.09-1.65-5.05-1.4-10.17-1.98-15.39"/><path stroke="#8f8f8f" vector-effect="non-scaling-stroke" d="M335.54 224.5c-1.63 39.22-34.7 70.12-72.93 73.29"/><path stroke="#cbcbcb" vector-effect="non-scaling-stroke" d="M262.61 297.79q-2.01-11.16-3.39-22.29-.12-.97.78-1.04"/><path stroke="#8f8f8f" vector-effect="non-scaling-stroke" d="M260 274.46c25.58-1.32 48.08-24.1 49.71-49.46"/><path stroke="#cbcbcb" vector-effect="non-scaling-stroke" d="M335.54 219.25l-.04.28a.19.18-84.2 01-.18.15l-25.78-.68"/><path stroke="#8f8f8f" vector-effect="non-scaling-stroke" d="M309.54 219c-.87-26.64-22.27-45.27-47.86-47.75"/><path stroke="#cbcbcb" vector-effect="non-scaling-stroke" d="M288.04 219.25c-3.94.34-10.24-.13-15.67.82a.75.75 0 00-.62.76l.08 3.14a.6.59-2.3 00.64.58q7.61-.56 15.47.14"/><path stroke="#8f8f8f" vector-effect="non-scaling-stroke" d="M287.94 224.69c-2.85 14.55-14.6 28.4-30.34 28.54"/><path stroke="#cbcbcb" vector-effect="non-scaling-stroke" d="M257.6 253.23c-.64-1.67.56-15.38-2.94-14.49a.99.99 0 00-.69.6c-1.22 3.08-.06 10.31-.51 14.16"/><path stroke="#8f8f8f" vector-effect="non-scaling-stroke" d="M253.46 253.5q-24.26-3.05-28.07-27.53"/><path stroke="#cbcbcb" vector-effect="non-scaling-stroke" d="M225.39 225.97q.03-.26.91-.86a1.81 1.75 26.3 01.91-.29l13.77-.46"/><path stroke="gray" vector-effect="non-scaling-stroke" d="M240.98 224.36l1.31 5.14"/><path stroke="#8f8f8f" vector-effect="non-scaling-stroke" d="M242.29 229.5q6.34 11.8 19.65 6.78"/><path stroke="gray" vector-effect="non-scaling-stroke" d="M261.94 236.28q10.78-6.66 8.29-17.92c-1.64-7.36-6.93-11.73-14.57-10.63"/><path stroke="#5b5b5a" vector-effect="non-scaling-stroke" d="M260 274.46l-.33-.25a.94.94 0 01-.39-.68l-1.68-20.3M309.54 219q-10.74 1.01-21.5.25"/><path stroke="#8f8f8f" vector-effect="non-scaling-stroke" d="M288.04 219.25c-2.59-15.54-12.43-25.43-28.04-27.79"/><path stroke="#5b5b5a" vector-effect="non-scaling-stroke" d="M253.46 253.5l.94 21.02"/><path stroke="#8f8f8f" vector-effect="non-scaling-stroke" d="M254.4 274.52c-26.72-1.08-45.29-21.91-46.9-48.23"/><path stroke="gray" vector-effect="non-scaling-stroke" d="M255.29 179.75l-.29 10.96M254.75 191.21c-3.25 1.03-6.72 1.73-9.59 2.97q-14.8 6.44-18.95 22.57M253.75 207.46q-11.3 2.43-12.79 14.04"/><path stroke="#cbcbcb" vector-effect="non-scaling-stroke" d="M240.96 221.5q-7.6-2-15.5-.98"/><path stroke="#10100f" vector-effect="non-scaling-stroke" d="M261.94 236.28l-.54-.22a.43.43 0 01-.16-.68q1.15-1.28 2.57-2.29c6.56-4.62 6.87-18.15.09-22.6-3.65-2.4-6.17-1.5-10.18-1.3-9.08.46-13.17 10.61-10.7 18.29q.42 1.29-.73 2.02"/><path stroke="#4b4c4b" vector-effect="non-scaling-stroke" d="M240.98 224.36l-.02-2.86"/><path stroke="#10100f" vector-effect="non-scaling-stroke" d="M255.5 175.04q-1.17-.22-1.21.78-.31 8.28-1.22 13.44a1.2 1.18 78.7 01-.52.79q-1.18.77-3.86 1.45c-11.13 2.84-20.65 12.22-23.76 24.04a.86.84-62.6 00.26.85q.42.35 1.02.36"/><path stroke="#8f8f8f" vector-effect="non-scaling-stroke" d="M226.21 216.75l-.75 3.77"/><path stroke="#5b5b5a" vector-effect="non-scaling-stroke" d="M225.46 220.52l-17.96.19"/><path stroke="#8f8f8f" vector-effect="non-scaling-stroke" d="M346.99 121.43c.34-.5.53-1.4-.22-1.66a.38.37 9.9 00-.51.35l-.02 1.07a.41.41 0 00.75.24"/><path stroke="#5b5b5a" vector-effect="non-scaling-stroke" d="M380.86 136.88c-6.18 8.01-.71 18.89 5.27 25.09 3.65 3.78 16.25 12.41 21.41 8.17 18.46-15.18-10.31-54.45-26.68-33.26M419.728 204.143a10.56 9.32 77.1 006.727-12.374 10.56 9.32 77.1 00-11.442-8.213 10.56 9.32 77.1 00-6.728 12.375 10.56 9.32 77.1 0011.442 8.212"/></g><path fill="#969796" d="M0 0h591v2.56q-.28-2.76-.76-1.81-1.47.03-2.24.03Q294 .97 0 .94V0z"/><path fill="#fff" d="M591 2.56V591H8.19q-2.38-.63-4.75 0H0v-1.06q4 .14 8 .14 290.84.17 581.58.17a.68.67 90 00.67-.68L590.24.75q.48-.95.76 1.81z"/><path d="M590.24.75l.01 588.82a.68.67-90 01-.67.68q-290.74 0-581.58-.17-4 0-8-.14V.94q294 .03 588-.16.77 0 2.24-.03zm-4.74 4.77a.26.26 0 00-.26-.26H5.5a.26.26 0 00-.26.26v579.72a.26.26 0 00.26.26h579.74a.26.26 0 00.26-.26V5.52z"/><path fill="#fbfee1" d="M585.5 585.24a.26.26 0 01-.26.26H5.5a.26.26 0 01-.26-.26V5.52a.26.26 0 01.26-.26h579.74a.26.26 0 01.26.26v579.72zM80.4 18.86c-14.62-.66-27.02.1-41.96.56-10.25.32-19.88 4.58-21.2 15.83q-.32 2.73-.26 10 .14 19 .52 38.14a.76.76 0 001.25.57Q25.03 78.68 31 72.5c16.14-16.69 32.76-34.65 49.79-51.21q.63-.61.66-1.27a1.1 1.09 3.1 00-1.05-1.16zm215.35 429.1q.63.76.3 1.57a.99.99 0 01-.7.58q-5.01 1.09-10.07.37c-1.93-.28-3.67-2.1-5.57-.23q-1.59 1.57-.07 4.14c-6.58.37-23.7 2.44-25.08 11.29-.71 4.53.62 7.74 4.16 10.84 10.28 8.96 22.12 13.09 35.97 11.42-1.43 15.05-17.2 17.39-28.64 20.4q-10.07 2.64-13.37 4.07c-6.62 2.87-18.02 8.87-21.38 15.74a.44.44 0 00.28.62l5.39 1.47a.8.79 29.8 00.79-.21q6.51-6.62 14.72-10.59c15.85-7.67 48.36-6.8 48.22-31.76a.74.73 75.4 01.37-.64l.43-.25c10.45-2.37 10.77-7.48 6.33-15.98-2.24-4.3-6.16-7.31-9.62-10.81q1.56-.73 2.34-2.08a1.51 1.45 55.5 00.16-.97l-.64-3.7a.67.66 71.8 01.35-.7l1.64-.82a1.03 1.03 0 00.58-.82l.36-3.12q29.52-17.83 55.94-39.9c17.73-14.81 32.63-32.63 47.44-50.26q24.8-29.52 39.43-65.05c12.06-29.3 10.22-67.18 1.77-97.11-9.56-33.87-26.14-61.07-53.88-82.92-28.34-22.32-63.89-33.84-100.13-32.72-48.76 1.5-89.91 18.04-121.62 55.35-3.99 4.69-7.97 9.26-11.22 14.34q-30.2 47.28-23.98 103.47c2.55 23.01 9.86 45.61 21.36 65.97 10.61 18.77 23.49 38.46 38.07 54.11q24.82 26.64 53.41 50.77c9.78 8.26 21.49 15.98 32.31 23.93 4.23 3.12 9.43 2.44 13.85.19zm138.49-26.33a.3.3 0 00.19.5l.97.11a.39.39 0 00.32-.66q-.75-.76-1.48.05zm-64.804 23.002a.7.49 77.1 00.322-.791.7.49 77.1 00-.634-.573.7.49 77.1 00-.322.791.7.49 77.1 00.634.573z"/><path fill="#fae5af" d="M38.44 19.42c14.94-.46 27.34-1.22 41.96-.56a1.1 1.09 3.1 011.05 1.16q-.03.66-.66 1.27C63.76 37.85 47.14 55.81 31 72.5q-5.97 6.18-12.25 11.46a.76.76 0 01-1.25-.57q-.38-19.14-.52-38.14-.06-7.27.26-10C18.56 24 28.19 19.74 38.44 19.42z"/><path fill="#1f1f1e" d="M303 447.79q-3.66-1.19-7.25.17c-4.42 2.25-9.62 2.93-13.85-.19-10.82-7.95-22.53-15.67-32.31-23.93q-28.59-24.13-53.41-50.77c-14.58-15.65-27.46-35.34-38.07-54.11-11.5-20.36-18.81-42.96-21.36-65.97q-6.22-56.19 23.98-103.47c3.25-5.08 7.23-9.65 11.22-14.34 31.71-37.31 72.86-53.85 121.62-55.35 36.24-1.12 71.79 10.4 100.13 32.72 27.74 21.85 44.32 49.05 53.88 82.92 8.45 29.93 10.29 67.81-1.77 97.11q-14.63 35.53-39.43 65.05c-14.81 17.63-29.71 35.45-47.44 50.26q-26.42 22.07-55.94 39.9zm-134-272q-1.62-.76-2.36.8c-4.61 9.68-7.07 18.64-8.17 29.79-.9 9.12-2.52 18.67-1.32 27.84 1.36 10.48 2.63 20.61 6 30.69 3.15 9.41 5.85 16.23 10.41 24.89a.84.82 75.4 00.75.45q.64-.01 1.19-.29c17.7 29.6 47.33 47.8 81.7 51.43 13.68 1.44 28.64-.93 41.66-4.81 43.57-13 81.72-55.06 85.03-101.27 4.35-60.76-51.81-124.23-113.89-124.52l-2.75-.25c-41.64 2.17-81.14 27.16-98.25 65.25zm177.99-54.36c.34-.5.53-1.4-.22-1.66a.38.37 9.9 00-.51.35l-.02 1.07a.41.41 0 00.75.24zm33.87 15.45c-6.18 8.01-.71 18.89 5.27 25.09 3.65 3.78 16.25 12.41 21.41 8.17 18.46-15.18-10.31-54.45-26.68-33.26zm38.868 67.263a10.56 9.32 77.1 006.727-12.374 10.56 9.32 77.1 00-11.442-8.213 10.56 9.32 77.1 00-6.728 12.375 10.56 9.32 77.1 0011.442 8.212z"/><path fill="#fff" d="M267.25 110.54l.22.26a.35.34-59 01.07.3l-4.9 21.52q-4.62.54-9.1 1.08c-17.67 2.13-34.97 10.4-47.78 22.06q-29.08 26.5-30.55 66.24l-13.75 1.38a1 .99-81.3 00-.81.6q-.87 2.1.78 3.8a1.03 1 66.2 00.77.31l13.05-.55q.55 31.09 18.79 55.96 24.86 32.26 66.29 33.41 2.35 10.7 4.7 21.34c.44 1.99 1.7 3.35 3.78 2.46a1.3 1.29-16.9 00.77-1.43l-4.04-22.53q33.01-2.2 57.15-22.94c21.09-18.11 31.97-41.68 34.06-69.27q11.52-.47 23.05-.04c2.46.09 3.64-1.11 2.38-3.55a1.76 1.75-13.1 00-1.53-.95l-23.97-.53a.17.16-3.8 01-.17-.14l-.03-.29q-1.59-9.93-3.73-17.31c-9.66-33.33-35.94-60.1-70.58-67.3-4.48-.93-9.85-1.3-14.88-1.99l2.71-21.65c62.08.29 118.24 63.76 113.89 124.52-3.31 46.21-41.46 88.27-85.03 101.27-13.02 3.88-27.98 6.25-41.66 4.81-34.37-3.63-64-21.83-81.7-51.43-7.21-13.22-12.89-28.12-15.02-42.71q-3.84-26.32 1.04-50.9c1.4-7.07 4.55-13.85 7.48-20.56 17.11-38.09 56.61-63.08 98.25-65.25z"/><path fill="#969796" d="M267.25 110.54l2.75.25-2.71 21.65q-2.08 8.65-3 17.56-2.6 10.51-2.61 21.25l-2.2 19.4a.64.6-67.5 00.21.55l.31.26q-1.8.66-1.66 2.37.66 7.88-2.68 13.9l-1.91-.27c1.52-4.96.54-10.82 1.34-16.1a.11.1 10.8 00-.09-.12l-.25-.03.25-.5c1.55.28 1.45-8.92 1.39-10.75a.48.48 0 00-.57-.46q-.26.05-.53.25l.21-4.71q.82-1.86.5-3.83l3.71-21.21 2.93-17.38 4.9-21.52a.35.34-59 00-.07-.3l-.22-.26z"/><path fill="#fff" d="M346.99 121.43a.41.41 0 01-.75-.24l.02-1.07a.38.37 9.9 01.51-.35c.75.26.56 1.16.22 1.66z"/><path fill="#969796" d="M380.86 136.88c16.37-21.19 45.14 18.08 26.68 33.26-5.16 4.24-17.76-4.39-21.41-8.17-5.98-6.2-11.45-17.08-5.27-25.09z"/><path fill="#1f1f1e" d="M262.64 132.62L259.71 150c-39.25 2.13-67.85 32.54-71 71.25l-.23.25a.93.91 17.7 01-.57.29q-6.34.71-12.7.21 1.47-39.74 30.55-66.24c12.81-11.66 30.11-19.93 47.78-22.06q4.48-.54 9.1-1.08zM267.29 132.44c5.03.69 10.4 1.06 14.88 1.99 34.64 7.2 60.92 33.97 70.58 67.3q2.14 7.38 3.73 17.31-10.05 1.12-20.21.71a.79.79 0 01-.56-.28l-.17-.22c-4.22-37.38-32.61-68.32-71.25-69.25q.92-8.91 3-17.56z"/><path fill="#fff" d="M259.71 150L256 171.21c-26.75 4.14-45.73 22.18-48.5 49.5l-18.53.98a.21.21 0 01-.22-.18l-.04-.26c3.15-38.71 31.75-69.12 71-71.25zM264.29 150c38.64.93 67.03 31.87 71.25 69.25l-.04.28a.19.18-84.2 01-.18.15l-25.78-.68c-.87-26.64-22.27-45.27-47.86-47.75q.01-10.74 2.61-21.25z"/><path fill="#1f1f1e" d="M256 171.21q.32 1.97-.5 3.83-1.17-.22-1.21.78-.31 8.28-1.22 13.44a1.2 1.18 78.7 01-.52.79q-1.18.77-3.86 1.45c-11.13 2.84-20.65 12.22-23.76 24.04a.86.84-62.6 00.26.85q.42.35 1.02.36l-.75 3.77-17.96.19c2.77-27.32 21.75-45.36 48.5-49.5zM261.68 171.25c25.59 2.48 46.99 21.11 47.86 47.75q-10.74 1.01-21.5.25c-2.59-15.54-12.43-25.43-28.04-27.79l-.31-.26a.64.6-67.5 01-.21-.55l2.2-19.4z"/><path d="M255.5 175.04l-.21 4.71-.29 10.96-.25.5c-3.25 1.03-6.72 1.73-9.59 2.97q-14.8 6.44-18.95 22.57-.6-.01-1.02-.36a.86.84-62.6 01-.26-.85c3.11-11.82 12.63-21.2 23.76-24.04q2.68-.68 3.86-1.45a1.2 1.18 78.7 00.52-.79q.91-5.16 1.22-13.44.04-1 1.21-.78zM169 175.79c-2.93 6.71-6.08 13.49-7.48 20.56q-4.88 24.58-1.04 50.9c2.13 14.59 7.81 29.49 15.02 42.71q-.55.28-1.19.29a.84.82 75.4 01-.75-.45c-4.56-8.66-7.26-15.48-10.41-24.89-3.37-10.08-4.64-20.21-6-30.69-1.2-9.17.42-18.72 1.32-27.84 1.1-11.15 3.56-20.11 8.17-29.79q.74-1.56 2.36-.8z"/><path fill="#fff" d="M255 190.71l.29-10.96q.27-.2.53-.25a.48.48 0 01.57.46c.06 1.83.16 11.03-1.39 10.75z"/><ellipse fill="#969796" transform="rotate(77.1 87.052 358.809)" rx="10.56" ry="9.32"/><path fill="#fff" d="M254.75 191.21l.25.03a.11.1 10.8 01.09.12c-.8 5.28.18 11.14-1.34 16.1q-11.3 2.43-12.79 14.04-7.6-2-15.5-.98l.75-3.77q4.15-16.13 18.95-22.57c2.87-1.24 6.34-1.94 9.59-2.97z"/><path fill="#fff" d="M260 191.46c15.61 2.36 25.45 12.25 28.04 27.79-3.94.34-10.24-.13-15.67.82a.75.75 0 00-.62.76l.08 3.14a.6.59-2.3 00.64.58q7.61-.56 15.47.14c-2.85 14.55-14.6 28.4-30.34 28.54-.64-1.67.56-15.38-2.94-14.49a.99.99 0 00-.69.6c-1.22 3.08-.06 10.31-.51 14.16q-24.26-3.05-28.07-27.53.03-.26.91-.86a1.81 1.75 26.3 01.91-.29l13.77-.46 1.31 5.14q6.34 11.8 19.65 6.78 10.78-6.66 8.29-17.92c-1.64-7.36-6.93-11.73-14.57-10.63q3.34-6.02 2.68-13.9-.14-1.71 1.66-2.37z"/><path d="M253.75 207.46l1.91.27c7.64-1.1 12.93 3.27 14.57 10.63q2.49 11.26-8.29 17.92l-.54-.22a.43.43 0 01-.16-.68q1.15-1.28 2.57-2.29c6.56-4.62 6.87-18.15.09-22.6-3.65-2.4-6.17-1.5-10.18-1.3-9.08.46-13.17 10.61-10.7 18.29q.42 1.29-.73 2.02l-1.31-5.14-.02-2.86q1.49-11.61 12.79-14.04z"/><path fill="#1f1f1e" d="M261.94 236.28q-13.31 5.02-19.65-6.78 1.15-.73.73-2.02c-2.47-7.68 1.62-17.83 10.7-18.29 4.01-.2 6.53-1.1 10.18 1.3 6.78 4.45 6.47 17.98-.09 22.6q-1.42 1.01-2.57 2.29a.43.43 0 00.16.68l.54.22z"/><path fill="#969796" d="M356.48 219.04l.03.29a.17.16-3.8 00.17.14l23.97.53a1.76 1.75-13.1 011.53.95c1.26 2.44.08 3.64-2.38 3.55q-11.53-.43-23.05.04-10.61-.63-21.21-.04c-3.47-.2-22.29-1.6-25.83.5l-.35-.26a1.43 1.39-24.1 00-.8-.29q-10.37-.54-20.62.24-7.86-.7-15.47-.14a.6.59-2.3 01-.64-.58l-.08-3.14a.75.75 0 01.62-.76c5.43-.95 11.73-.48 15.67-.82q10.76.76 21.5-.25l25.78.68a.19.18-84.2 00.18-.15l.04-.28.17.22a.79.79 0 00.56.28q10.16.41 20.21-.71zM225.46 220.52q7.9-1.02 15.5.98l.02 2.86-13.77.46a1.81 1.75 26.3 00-.91.29q-.88.6-.91.86-8.81-.79-17.89.32c-1.12-.87-16.28.32-18.79.46q-.99-.6-1.96.04l-8.94.35-2.56.4-13.05.55a1.03 1 66.2 01-.77-.31q-1.65-1.7-.78-3.8a1 .99-81.3 01.81-.6l13.75-1.38q6.36.5 12.7-.21a.93.91 17.7 00.57-.29l.23-.25.04.26a.21.21 0 00.22.18l18.53-.98 17.96-.19z"/><path fill="#fff" d="M335.54 224.5c-1.63 39.22-34.7 70.12-72.93 73.29q-2.01-11.16-3.39-22.29-.12-.97.78-1.04c25.58-1.32 48.08-24.1 49.71-49.46 3.54-2.1 22.36-.7 25.83-.5z"/><path fill="#1f1f1e" d="M309.71 225c-1.63 25.36-24.13 48.14-49.71 49.46l-.33-.25a.94.94 0 01-.39-.68l-1.68-20.3c15.74-.14 27.49-13.99 30.34-28.54q10.25-.78 20.62-.24a1.43 1.39-24.1 01.8.29l.35.26zM356.75 224.54c-2.09 27.59-12.97 51.16-34.06 69.27q-24.14 20.74-57.15 22.94-2.34-9.43-2.93-18.96c38.23-3.17 71.3-34.07 72.93-73.29q10.6-.59 21.21.04zM225.39 225.97q3.81 24.48 28.07 27.53l.94 21.02c-26.72-1.08-45.29-21.91-46.9-48.23q9.08-1.11 17.89-.32z"/><path fill="#fff" d="M207.5 226.29c1.61 26.32 20.18 47.15 46.9 48.23q1.54 11.58 2.06 23.31-29.16-1.55-48.67-22.33-18.19-20.82-19.08-48.75c2.51-.14 17.67-1.33 18.79-.46z"/><path d="M188.71 226.75q.89 27.93 19.08 48.75-.18.88-.85.98a.93.92 66.2 01-.84-.33q-5.5-6.81-9.83-14.41c-1.03-1.8-1.34-3.78-2.32-5.47-2.52-4.35-3.62-9.22-5.22-14.09-1.65-5.05-1.4-10.17-1.98-15.39q.97-.64 1.96-.04z"/><path fill="#1f1f1e" d="M186.75 226.79c.58 5.22.33 10.34 1.98 15.39 1.6 4.87 2.7 9.74 5.22 14.09.98 1.69 1.29 3.67 2.32 5.47q4.33 7.6 9.83 14.41a.93.92 66.2 00.84.33q.67-.1.85-.98 19.51 20.78 48.67 22.33l4.21 17.99a.96.94 54.3 01-.11.71l-.23.38q-41.43-1.15-66.29-33.41l.78.25a.42.42 0 00.47-.17l.16-.23a.35.35 0 00-.02-.4c-6.43-7.74-9.89-15.69-13.46-25.07-3.11-8.19-3.99-16.99-5.37-25.65q-.27-1.74.13-3.06a.74.74 0 01.65-.52q1.9-.17.43-1.51l8.94-.35z"/><path d="M177.81 227.14q1.47 1.34-.43 1.51a.74.74 0 00-.65.52q-.4 1.32-.13 3.06c1.38 8.66 2.26 17.46 5.37 25.65 3.57 9.38 7.03 17.33 13.46 25.07a.35.35 0 01.02.4l-.16.23a.42.42 0 01-.47.17l-.78-.25q-18.24-24.87-18.79-55.96l2.56-.4z"/><path fill="#969796" d="M257.6 253.23l1.68 20.3a.94.94 0 00.39.68l.33.25q-.9.07-.78 1.04 1.38 11.13 3.39 22.29.59 9.53 2.93 18.96l4.04 22.53a1.3 1.29-16.9 01-.77 1.43c-2.08.89-3.34-.47-3.78-2.46q-2.35-10.64-4.7-21.34l.23-.38a.96.94 54.3 00.11-.71l-4.21-17.99q-.52-11.73-2.06-23.31l-.94-21.02c.45-3.85-.71-11.08.51-14.16a.99.99 0 01.69-.6c3.5-.89 2.3 12.82 2.94 14.49zM434.24 421.63q.73-.81 1.48-.05a.39.39 0 01-.32.66l-.97-.11a.3.3 0 01-.19-.5z"/><ellipse fill="#969796" transform="rotate(77.1 -93.922 453.684)" rx=".7" ry=".49"/><path fill="#969796" d="M303 447.79l-.36 3.12a1.03 1.03 0 01-.58.82l-1.64.82a.67.66 71.8 00-.35.7l.64 3.7a1.51 1.45 55.5 01-.16.97q-.78 1.35-2.34 2.08l-3.43-1.36a.47.47 0 00-.63.34c-1.74 8.35 6.86 17.72 6.65 27.17a.63.61-78.4 00.38.59q.15.05.32.05l-.43.25a.74.73 75.4 00-.37.64c.14 24.96-32.37 24.09-48.22 31.76q-8.21 3.97-14.72 10.59a.8.79 29.8 01-.79.21l-5.39-1.47a.44.44 0 01-.28-.62c3.36-6.87 14.76-12.87 21.38-15.74q3.3-1.43 13.37-4.07c11.44-3.01 27.21-5.35 28.64-20.4l-.93-6.72a.87.86 83.3 00-.93-.74q-17.44 1.58-29.71-10.01c-1.87-1.77-2.69-4.08-3.69-6.4a.63.63 0 01.46-.87q1.9-.37 2.78-2.06.58-1.09.84.11l.6 2.76a1.45 1.44 73 001.95 1.04q5.46-2.19 11.12-3.36 2.36-.49.21.6l-5.06 2.55a.37.37 0 00-.06.61c.97.78 7.53-2.9 8.67-3.65a.32.32 0 01.49.25c.11 1.43-8.79 7.31-10.36 8.24a.51.51 0 00-.05.85l2.63 1.97a.79.77 43.9 00.96-.01l6.79-5.4q.71-.57.39.28-1.29 3.47-4.07 5.9a.66.66 0 00.21 1.11q6.97 2.54 14.33 3.21.44.04.24-.35-4.93-9.66-4.32-20.59a.68.67 6.6 00-.57-.71l-5.87-.96a1.35 1.35 0 01-.78-.41q-.6-.65-1.32-.79-1.52-2.57.07-4.14c1.9-1.87 3.64-.05 5.57.23q5.06.72 10.07-.37a.99.99 0 00.7-.58q.33-.81-.3-1.57 3.59-1.36 7.25-.17z"/><path fill="#1f1f1e" d="M279.64 454.39q.72.14 1.32.79a1.35 1.35 0 00.78.41l5.87.96a.68.67 6.6 01.57.71q-.61 10.93 4.32 20.59.2.39-.24.35-7.36-.67-14.33-3.21a.66.66 0 01-.21-1.11q2.78-2.43 4.07-5.9.32-.85-.39-.28l-6.79 5.4a.79.77 43.9 01-.96.01l-2.63-1.97a.51.51 0 01.05-.85c1.57-.93 10.47-6.81 10.36-8.24a.32.32 0 00-.49-.25c-1.14.75-7.7 4.43-8.67 3.65a.37.37 0 01.06-.61l5.06-2.55q2.15-1.09-.21-.6-5.66 1.17-11.12 3.36a1.45 1.44 73 01-1.95-1.04l-.6-2.76q-.26-1.2-.84-.11-.88 1.69-2.78 2.06a.63.63 0 00-.46.87c1 2.32 1.82 4.63 3.69 6.4q12.27 11.59 29.71 10.01a.87.86 83.3 01.93.74l.93 6.72c-13.85 1.67-25.69-2.46-35.97-11.42-3.54-3.1-4.87-6.31-4.16-10.84 1.38-8.85 18.5-10.92 25.08-11.29zM298.21 460c3.46 3.5 7.38 6.51 9.62 10.81 4.44 8.5 4.12 13.61-6.33 15.98q-.17 0-.32-.05a.63.61-78.4 01-.38-.59c.21-9.45-8.39-18.82-6.65-27.17a.47.47 0 01.63-.34l3.43 1.36z"/><path fill="#969796" d="M8.19 591H3.44q2.37-.63 4.75 0z"/></svg>