<svg xmlns="http://www.w3.org/2000/svg" viewBox="0 0 591 591"><g stroke-width="2" fill="none"><path stroke="#10100f" vector-effect="non-scaling-stroke" d="M590.06 0l.19.29"/><path stroke="#7e7f71" vector-effect="non-scaling-stroke" d="M590.25.29l.04 589.46"/><path stroke="gray" vector-effect="non-scaling-stroke" d="M590.29 589.75l-.54.54"/><path stroke="#7e7f71" vector-effect="non-scaling-stroke" d="M589.75 590.29q-293.34-.05-586.69-.17-1.4 0-2.81-.08"/><path stroke="#10100f" vector-effect="non-scaling-stroke" d="M.25 590.04l-.25-.1"/><path stroke="#7e7f71" vector-effect="non-scaling-stroke" d="M586.25 4.52a.27.27 0 00-.27-.27H4.52a.27.27 0 00-.27.27v581.46a.27.27 0 00.27.27h581.46a.27.27 0 00.27-.27V4.52"/><path stroke="#8e8e80" vector-effect="non-scaling-stroke" d="M591 586.81c-.84-.45-.25-536.6-.25-586.31a.25.24-86.1 00-.21-.25q-.17-.02-.29.04"/><path stroke="#fdfef1" vector-effect="non-scaling-stroke" d="M591 590.06l-.71-.31"/><path stroke="#fbf2c9" vector-effect="non-scaling-stroke" d="M31.8 42.33c.22 14.96-.39 30.07-.63 45.25a.6.59 77 00.86.54c1.48-.75 2.64-2.25 3.6-3.17q30.52-29.26 60.64-58.93 2.19-2.15 3.63-4.72a.97.97 0 00-.87-1.45q-19.36.38-38.63.03-9.81-.18-14.16 1.08-14.69 4.25-14.44 21.37"/><path stroke="#8e8e80" vector-effect="non-scaling-stroke" d="M154.86 115.493a11.48 9.4 54.3 00.934-14.808 11.48 9.4 54.3 00-14.333-3.838 11.48 9.4 54.3 00-.935 14.808 11.48 9.4 54.3 0014.333 3.838"/><path stroke="#7e7f71" vector-effect="non-scaling-stroke" d="M151.46 119.63q-6.21 18.32-10.8 37.1-.34 1.4-.24 3.47.02.5-.19.95c-4.66 9.82-3.74 23.97-3.14 34.6q.27 4.89 1.31 7.38a1.25 1.2-.1 00.7.67q2.59 1 5.12-.14a1.46 1.44.4 00.73-.71q1.27-2.63 1.62-5.8"/><path stroke="#8e8e80" vector-effect="non-scaling-stroke" d="M146.57 197.15c1.13-7.13 1.39-14.02 3.08-21.14a.67.66-83.8 01.63-.51l.41-.01a.62.62 0 01.63.67q-.61 7.37.47 14.69c1.29 8.76 8.14 10.52 14.95 13.85 9.62 4.69 14.87 12.55 19.91 21.63 7.59 13.66 19.73 11.68 34.84 11.78"/><path stroke="#7e7f71" vector-effect="non-scaling-stroke" d="M221.49 238.11q.57 1.34.56 3.64-.2 32.86-.62 65.74a.47.47 0 01-.48.46l-68.75-.35a1.26 1.25 25.6 00-.83.29c-3.86 3.05-1.72 17.47-1.02 21.12 2.37 12.29 16.11 10.91 22.95 18.6q7.2 8.1 12.58 17.5c7.26 12.69 21.37 10.4 33.56 10.53a1.12 1.12 0 011.11 1.13q-.1 14.25-.21 28.01c-.15 19.42 2.67 32.91 16.62 46.22"/><path stroke="#8e8e80" vector-effect="non-scaling-stroke" d="M236.96 451c17.83 17.33 37.73 15.94 64.22 15.48a.53.53 0 01.54.49q.38 6.35.28 12.78c-.05 3.29 1.23 4.9 3.76 6.59a1.26 1.25 10.7 01.53.77q.42 1.93.43 3.89.34 42.44-.56 84.87a.53.53 0 00.53.54l32.72.36a.48.48 0 00.49-.47q.49-42.65.95-85.3c.05-4.88 4.31-5.29 4.45-9.48q.22-6.84.45-13.36a1.47 1.47 0 011.5-1.42c12.4.26 27.13 1.25 37.94-.83q28.73-5.52 41.1-33.91 4.27-9.78 4.26-20.51-.01-16.59-.05-33.2a.52.52 0 01.52-.53q8.38.03 16.81-.41c17.87-.93 18.21-15.05 28.7-25.45q5.65-5.59 11.9-7.77c5.68-1.99 12.12-5.62 13.16-11.36q1.95-10.69.83-20.92a1.74 1.74 0 00-1.72-1.55l-68.19-.58a.51.51 0 01-.51-.5q-.39-32.59.32-65.22.05-2.38.42-3.7a.69.69 0 01.65-.5c6.69-.01 16.53.26 21.47-.82 8.85-1.94 13.09-10.78 18.33-18.8q6.35-9.7 17.82-14.15c8.51-3.29 12.15-6.61 13.03-16.03q.66-7.11.34-14.27c-.09-1.84-2.11-2.82-3.76-2.83q-34.79-.33-69.66-.92a.91.9 74.6 01-.75-.43c-3.35-5.53-6.74-12.02-10.52-16.52q-12.2-14.47-30.93-18.28c-5.89-1.2-12.89-1.15-19.26-1.19q-44.21-.31-88.42-.54-10.34-.05-16.05 1.26-17.73 4.1-29.48 18.19c-3.63 4.36-6.5 10.09-9.33 15.35a.84.83-75.3 01-.73.43H182.8a.28.27-79 01-.25-.38c5.85-14.87-2.12-34.79-11.71-46.2-4.49-5.33-12.91-9.78-19.38-4.04"/><path stroke="#10100f" vector-effect="non-scaling-stroke" d="M236.96 451q.77-2.15-1.05-3.07-.44-.22-.73-.62c-5.54-7.68-11.31-15.61-12.87-25.62q-1.14-7.28-.63-18.94c.35-8.24.21-15.99.58-24q.08-1.81-1.05-3.78a.91.91 0 00-.75-.45q-8.75-.32-17.53-.32c-7.86 0-12.88-4.55-16.72-11.16q-4.49-7.75-8.99-13.28c-5.58-6.86-14-8.53-21.13-13.63a1.74 1.69 8.5 01-.61-.8q-.3-.83-1.23-.62a.67.66 70.7 01-.76-.37q-2.18-4.81 1.52-7.9"/><path stroke="#59595a" vector-effect="non-scaling-stroke" d="M155.01 326.44l65.24.53a.99.99 0 001-.99l-.04-7.48"/><path stroke="#908f8f" vector-effect="non-scaling-stroke" d="M221.21 318.5l.29-2.04"/><path stroke="#10100f" vector-effect="non-scaling-stroke" d="M221.5 316.46q.7 1.01.6 2.24-.03.4.1.02 1.03-2.98.78-6.16a1.09 1.09 0 00-.38-.76c-.91-.8-.74-1.64-.14-2.7 1.23-2.17.45-4.45.54-6.13.5-8.72.03-19.78.06-26.05.07-12.51-.19-25.16.67-37.63.1-1.43-.78-3.33-2.24-1.18M146.57 197.15q-1.97.45-2.67 2.26a.72.72 0 01-.66.47l-3.68.1a.52.52 0 01-.53-.47c-.93-9.03-.37-18.08-.15-27.13q.06-2.68 1.02-5.68 4.49-13.95 8.18-30.18 1.65-7.27 5.08-15.19a.92.91 38.9 00-.1-.89q-.42-.59-1.6-.81"/><path stroke="#c8c9cb" vector-effect="non-scaling-stroke" d="M221.21 318.5l-.25.34a.85.84 18.8 01-.7.34l-65.72-.43"/><path stroke="gray" vector-effect="non-scaling-stroke" d="M221.5 316.46q.1-.39-.03-.73a.74.73 81 00-.66-.49q-32.9-1.65-65.83-.76a.62.62 0 00-.6.51q-.32 1.89.16 3.76"/><path stroke="#494a4b" vector-effect="non-scaling-stroke" d="M154.54 318.75l.47 7.69"/><path stroke="#8e8e80" vector-effect="non-scaling-stroke" d="M156.5 137.96q-4.8 9.55-7.02 20.23a.27.27 0 00.35.31c4.93-1.72 10.01-2.64 14.67-5.04"/><path stroke="#10100f" vector-effect="non-scaling-stroke" d="M164.5 153.46q.36.51.96.83a.64.64 0 00.8-.17q.72-.91-.01-2.67c-1.99-4.85-4.84-14.42-9.75-13.49"/><path stroke="#7e7f71" vector-effect="non-scaling-stroke" d="M164.5 153.46q-2.23-8.7-8-15.5"/><path stroke="#59595a" vector-effect="non-scaling-stroke" d="M230.61 184.59q-.87 1.77-.9 2.66-.72 21.92-.51 40.31.11 9.35-.49 16.94"/><path stroke="#10100f" vector-effect="non-scaling-stroke" d="M228.71 244.5q-.17-.78-.65-1.2-.43-.37-.52.2-.31 2.01-.31 5.75 0 8.13-.43 27.61c-.24 11.27.64 26.52-.23 39.86a.47.47 0 00.49.5q.47-.02.9-.22"/><path stroke="#59595a" vector-effect="non-scaling-stroke" d="M227.96 317l-.76 67.1a.4.39-9.9 00.53.37q14.43-5.25 29.26-9.27a.66.66 0 00.49-.64q.14-15.91 7.83-29.74c2.65-4.76 7.01-12.44 11.93-17.19 15.14-14.63 30.59-19.44 51.72-18.79"/><path stroke="#8e8e80" vector-effect="non-scaling-stroke" d="M328.96 308.84l14.08 1.54"/><path stroke="#59595a" vector-effect="non-scaling-stroke" d="M343.04 310.38l10.71 3.58"/><path stroke="#8e8e80" vector-effect="non-scaling-stroke" d="M353.75 313.96q17.03 7.25 27.21 22.62a.64.63-26 00.74.25q11.69-4.05 23.65-7.21c5.74-1.52 11.56-3.58 17.36-5.18a1.71 1.7 82.7 001.25-1.62l.87-72.54"/><path stroke="#59595a" vector-effect="non-scaling-stroke" d="M424.83 250.28l.88-54.28"/><path stroke="#908f8f" vector-effect="non-scaling-stroke" d="M425.71 196c-.63-34.87-20.93-53.26-55.21-53.47-28.48-.17-56.93-.81-85.42-.77q-9.61.01-14.96 1.14c-22.8 4.84-35.89 18.99-39.51 41.69"/><path stroke="#c8c9cb" vector-effect="non-scaling-stroke" d="M425.71 196q-.93-.01-1-.7c-.82-7.92-1.44-16.33-4.88-22.91-7.97-15.28-26.18-23.87-42.83-23.83q-48.8.12-97.61-.48c-18.26-.22-36.06 8.24-44.62 24.88q-.83 1.6-1.67 5.33-.75 3.32-2.49 6.3"/><path stroke="#c6c8bc" vector-effect="non-scaling-stroke" d="M424.83 250.28c-2.69-.87-1.14 3.17-1.28 4.71-.37 4.04.24 8.02-.11 12.08-.26 3.02-.02 7.26-.06 9.06-.29 15.41-.09 30.74-.43 46.19a1.48 1.48 0 01-1.06 1.39q-4.74 1.42-9.57 3-4.67 1.53-9.65 2.73-8.49 2.05-16.85 4.56c-1.54.47-2.95 1.98-5.09.98a1.28 1.27-88.8 01-.64-.67q-1.52-3.61-4.24-6.42-8.13-8.38-19.95-15.33a1.23 1.22-61.5 00-1.72.52l-.43.88M343.04 310.38q-6.69-3.89-14.08-1.54"/><path stroke="#494a4b" vector-effect="non-scaling-stroke" d="M227.96 317c-.16-24.1.22-48.4.75-72.5"/><path stroke="#59595a" vector-effect="non-scaling-stroke" d="M156.97 181.69q-.31 3.72.46 6.85a.62.6 82.2 00.6.47l63.49-.06a.73.73 0 00.7-.53q.95-3.37.74-6.67"/><path stroke="#908f8f" vector-effect="non-scaling-stroke" d="M222.96 181.75l.34-3.6a.52.52 0 00-.5-.58q-32.64-1.17-65.3-.75a.51.51 0 00-.51.5l-.02 4.37"/><path stroke="#c8c9cb" vector-effect="non-scaling-stroke" d="M222.96 181.75l-65.99-.06"/><path stroke="#59595a" vector-effect="non-scaling-stroke" d="M432.79 184.25V186"/><path stroke="#8e8e80" vector-effect="non-scaling-stroke" d="M432.79 186l.25 2.75"/><path stroke="#59595a" vector-effect="non-scaling-stroke" d="M433.04 188.75q-.21.86.05 1.9a.68.67-6.8 00.64.5q29.51.53 59.04.32c1.32-.01 3.19.51 5.09-.04a.73.73 0 00.52-.64l.33-5.04"/><path stroke="#908f8f" vector-effect="non-scaling-stroke" d="M498.71 185.75l.26-5.4a.53.53 0 00-.5-.56c-21.69-1.46-44.05-.55-65.84-.51a.48.48 0 00-.47.55l.63 4.42"/><path stroke="#c8c9cb" vector-effect="non-scaling-stroke" d="M498.71 185.75c-1.05-.19-1.88-.47-2.95-.47q-24.99.02-43.08-.92-11.62-.61-19.89-.11"/><path stroke="#c6c8bc" vector-effect="non-scaling-stroke" d="M433.04 188.75l.36-.32a1.23 1.21 75.5 00.41-.71q.24-1.33-1.02-1.72"/><path stroke="#59595a" vector-effect="non-scaling-stroke" d="M432.24 328.6c21.06 1.29 42.81.4 63.99.4a.55.54 1.7 00.55-.51l.43-8.99"/><path stroke="#908f8f" vector-effect="non-scaling-stroke" d="M497.21 319.5q.2-.65-.02-1.38a.72.72 0 00-.66-.51q-31.91-1.17-63.83-.76a.57.57 0 00-.57.58l.11 11.17"/><path stroke="#c8c9cb" vector-effect="non-scaling-stroke" d="M497.21 319.5q-.22.96-.81 1.5c-1.04.93-16.67.14-19.12.07-14.56-.4-29.29-.1-43.97-.49a.55.55 0 00-.56.57l.24 6.81a.58.57 84.1 01-.46.58l-.29.06"/><path stroke="#908f8f" vector-effect="non-scaling-stroke" d="M379.781 361.032a56.32 56.14-16.1 00-69.68-38.32 56.32 56.14-16.1 00-38.542 69.556 56.32 56.14-16.1 0069.68 38.32 56.32 56.14-16.1 0038.542-69.556"/><path stroke="#c6c8bc" vector-effect="non-scaling-stroke" d="M275.79 193q-.28-.25-.62-.29a.93.91-67.4 00-.83.35c-9.13 11.79-16.44 24.95-16.59 41.25a.44.44 0 00.54.43q.2-.05.42-.24"/><path stroke="#59595a" vector-effect="non-scaling-stroke" d="M258.71 234.5l-.12 3.73a.65.64-88.7 00.63.67l11.18.1a.77.77 0 00.77-.69c.27-2.55-.58-10.03 3.89-8.73a.66.65 8.7 01.48.64c-.12 6.41-.5 13.25 1.03 19.18 6.79 26.26 29.7 43.97 57.26 40.49 19.15-2.41 34.77-15.35 42.06-33.03 3.2-7.74 3.6-16.3 3.36-24.71a.64.63 89.6 01.63-.65h2.89a.8.79-.7 01.8.77l.25 6.58a1.29 1.29 0 001.27 1.25l9.65.16a.66.65-89.1 00.66-.65c.25-17.1-5.2-30.84-15.61-44.43-18.65-24.35-50.02-28.91-77.95-20.29-10.59 3.27-18.58 10.03-26.05 18.11"/><path stroke="#8e8e80" vector-effect="non-scaling-stroke" d="M258.71 234.5q2.31-23.35 17.08-41.5"/><path stroke="#10100f" vector-effect="non-scaling-stroke" d="M156.21 311.87q.19 1.26 1.86 1.25 10.98-.11 42.04.19a.84.83-73.1 00.7-.38q.27-.43-.17-.78a.69.69 0 01-.12-.93l1.27-1.74a.46.45 16.8 00-.39-.72q-20.8.68-41.15-.05-2.43-.08-5.09.24-.86.1-.33.78l1.01 1.29q.29.37.37.85"/><path stroke="#908f8f" vector-effect="non-scaling-stroke" d="M378.7 376.58a53.05 53.05 0 00-53.05-53.05 53.05 53.05 0 00-53.05 53.05 53.05 53.05 0 0053.05 53.05 53.05 53.05 0 0053.05-53.05"/><path stroke="#908f8f" vector-effect="non-scaling-stroke" d="M325.658 349.3a10.49 8.56 97.9 009.92-9.214 10.49 8.56 97.9 00-7.036-11.566 10.49 8.56 97.9 00-9.92 9.214 10.49 8.56 97.9 007.036 11.566"/><path stroke="#10100f" vector-effect="non-scaling-stroke" d="M310.25 415.71q1.73 1.08 2.65-.8 1.25-2.56 6.05-10.97a1.03 1-43.2 00.04-.93l-.7-1.51"/><path stroke="#908f8f" vector-effect="non-scaling-stroke" d="M318.29 401.5q3.26-5.23 5.44-10.97.18-.47.43-.04 7.91 13.14 15.02 26.71c2.49 4.74 8.94 2.4 6.38-4.16q-5.43-13.9-10.51-27.92c-1.68-4.65-.73-11.69-.81-16.61a.55.55 0 01.96-.38c2.59 2.8 5.52 5.8 9.58 5.96q5.79.22 11.29.16a1.89 1.89 0 001.82-1.49c1.16-5.28-11.13-4.7-13.96-7.69-5.74-6.06-13.1-18.48-23.17-12.76-4.52 2.57-11.91 7.01-14.13 11.88q-3.17 6.93-5.81 14.1c-1.05 2.85 3.33 5.85 5.2 2.8 3.13-5.1 5.38-11.22 10.44-14.71a.35.34 73.2 01.54.29c-.49 17.62-8.3 32.93-14.27 49.08-1.42 3.83 5.59 5.24 7.52-.04"/><path stroke="gray" vector-effect="non-scaling-stroke" d="M318.29 401.5l-8.04 14.21"/><path stroke="#fdfef1" vector-effect="non-scaling-stroke" d="M589.94 591l-.19-.71"/><path stroke="#8e8e80" vector-effect="non-scaling-stroke" d="M.25 590.04c-.15.48-.01.72.51.7q7.22-.17 14.43.26M574.44 591q-2.38-.63-4.75 0M333.44 591q-12.88-.63-25.75 0M304.44 591q-4.25-.63-8.5 0"/></g><path d="M0 0h590.06l.19.29.04 589.46-.54.54q-293.34-.05-586.69-.17-1.4 0-2.81-.08l-.25-.1V0zm586.25 4.52a.27.27 0 00-.27-.27H4.52a.27.27 0 00-.27.27v581.46a.27.27 0 00.27.27h581.46a.27.27 0 00.27-.27V4.52z"/><path fill="#201f1e" d="M590.06 0h.94v586.81c-.84-.45-.25-536.6-.25-586.31a.25.24-86.1 00-.21-.25q-.17-.02-.29.04l-.19-.29z"/><path fill="#fbfde2" d="M590.25.29q.12-.06.29-.04a.25.24-86.1 01.21.25c0 49.71-.59 585.86.25 586.31v3.25l-.71-.31L590.25.29zM586.25 585.98a.27.27 0 01-.27.27H4.52a.27.27 0 01-.27-.27V4.52a.27.27 0 01.27-.27h581.46a.27.27 0 01.27.27v581.46zM31.8 42.33c.22 14.96-.39 30.07-.63 45.25a.6.59 77 00.86.54c1.48-.75 2.64-2.25 3.6-3.17q30.52-29.26 60.64-58.93 2.19-2.15 3.63-4.72a.97.97 0 00-.87-1.45q-19.36.38-38.63.03-9.81-.18-14.16 1.08-14.69 4.25-14.44 21.37zm123.06 73.163a11.48 9.4 54.3 00.934-14.808 11.48 9.4 54.3 00-14.333-3.838 11.48 9.4 54.3 00-.935 14.808 11.48 9.4 54.3 0014.333 3.838zm-3.4 4.137q-6.21 18.32-10.8 37.1-.34 1.4-.24 3.47.02.5-.19.95c-4.66 9.82-3.74 23.97-3.14 34.6q.27 4.89 1.31 7.38a1.25 1.2-.1 00.7.67q2.59 1 5.12-.14a1.46 1.44.4 00.73-.71q1.27-2.63 1.62-5.8c1.13-7.13 1.39-14.02 3.08-21.14a.67.66-83.8 01.63-.51l.41-.01a.62.62 0 01.63.67q-.61 7.37.47 14.69c1.29 8.76 8.14 10.52 14.95 13.85 9.62 4.69 14.87 12.55 19.91 21.63 7.59 13.66 19.73 11.68 34.84 11.78q.57 1.34.56 3.64-.2 32.86-.62 65.74a.47.47 0 01-.48.46l-68.75-.35a1.26 1.25 25.6 00-.83.29c-3.86 3.05-1.72 17.47-1.02 21.12 2.37 12.29 16.11 10.91 22.95 18.6q7.2 8.1 12.58 17.5c7.26 12.69 21.37 10.4 33.56 10.53a1.12 1.12 0 011.11 1.13q-.1 14.25-.21 28.01c-.15 19.42 2.67 32.91 16.62 46.22 17.83 17.33 37.73 15.94 64.22 15.48a.53.53 0 01.54.49q.38 6.35.28 12.78c-.05 3.29 1.23 4.9 3.76 6.59a1.26 1.25 10.7 01.53.77q.42 1.93.43 3.89.34 42.44-.56 84.87a.53.53 0 00.53.54l32.72.36a.48.48 0 00.49-.47q.49-42.65.95-85.3c.05-4.88 4.31-5.29 4.45-9.48q.22-6.84.45-13.36a1.47 1.47 0 011.5-1.42c12.4.26 27.13 1.25 37.94-.83q28.73-5.52 41.1-33.91 4.27-9.78 4.26-20.51-.01-16.59-.05-33.2a.52.52 0 01.52-.53q8.38.03 16.81-.41c17.87-.93 18.21-15.05 28.7-25.45q5.65-5.59 11.9-7.77c5.68-1.99 12.12-5.62 13.16-11.36q1.95-10.69.83-20.92a1.74 1.74 0 00-1.72-1.55l-68.19-.58a.51.51 0 01-.51-.5q-.39-32.59.32-65.22.05-2.38.42-3.7a.69.69 0 01.65-.5c6.69-.01 16.53.26 21.47-.82 8.85-1.94 13.09-10.78 18.33-18.8q6.35-9.7 17.82-14.15c8.51-3.29 12.15-6.61 13.03-16.03q.66-7.11.34-14.27c-.09-1.84-2.11-2.82-3.76-2.83q-34.79-.33-69.66-.92a.91.9 74.6 01-.75-.43c-3.35-5.53-6.74-12.02-10.52-16.52q-12.2-14.47-30.93-18.28c-5.89-1.2-12.89-1.15-19.26-1.19q-44.21-.31-88.42-.54-10.34-.05-16.05 1.26-17.73 4.1-29.48 18.19c-3.63 4.36-6.5 10.09-9.33 15.35a.84.83-75.3 01-.73.43H182.8a.28.27-79 01-.25-.38c5.85-14.87-2.12-34.79-11.71-46.2-4.49-5.33-12.91-9.78-19.38-4.04z"/><path fill="#fae6af" d="M31.8 42.33q-.25-17.12 14.44-21.37 4.35-1.26 14.16-1.08 19.27.35 38.63-.03a.97.97 0 01.87 1.45q-1.44 2.57-3.63 4.72-30.12 29.67-60.64 58.93c-.96.92-2.12 2.42-3.6 3.17a.6.59 77 01-.86-.54c.24-15.18.85-30.29.63-45.25z"/><ellipse fill="#201f1e" transform="rotate(54.3 -29.434 197.539)" rx="11.48" ry="9.4"/><path fill="#201f1e" d="M236.96 451q.77-2.15-1.05-3.07-.44-.22-.73-.62c-5.54-7.68-11.31-15.61-12.87-25.62q-1.14-7.28-.63-18.94c.35-8.24.21-15.99.58-24q.08-1.81-1.05-3.78a.91.91 0 00-.75-.45q-8.75-.32-17.53-.32c-7.86 0-12.88-4.55-16.72-11.16q-4.49-7.75-8.99-13.28c-5.58-6.86-14-8.53-21.13-13.63a1.74 1.69 8.5 01-.61-.8q-.3-.83-1.23-.62a.67.66 70.7 01-.76-.37q-2.18-4.81 1.52-7.9l65.24.53a.99.99 0 001-.99l-.04-7.48.29-2.04q.7 1.01.6 2.24-.03.4.1.02 1.03-2.98.78-6.16a1.09 1.09 0 00-.38-.76c-.91-.8-.74-1.64-.14-2.7 1.23-2.17.45-4.45.54-6.13.5-8.72.03-19.78.06-26.05.07-12.51-.19-25.16.67-37.63.1-1.43-.78-3.33-2.24-1.18-15.11-.1-27.25 1.88-34.84-11.78-5.04-9.08-10.29-16.94-19.91-21.63-6.81-3.33-13.66-5.09-14.95-13.85q-1.08-7.32-.47-14.69a.62.62 0 00-.63-.67l-.41.01a.67.66-83.8 00-.63.51c-1.69 7.12-1.95 14.01-3.08 21.14q-1.97.45-2.67 2.26a.72.72 0 01-.66.47l-3.68.1a.52.52 0 01-.53-.47c-.93-9.03-.37-18.08-.15-27.13q.06-2.68 1.02-5.68 4.49-13.95 8.18-30.18 1.65-7.27 5.08-15.19a.92.91 38.9 00-.1-.89q-.42-.59-1.6-.81c6.47-5.74 14.89-1.29 19.38 4.04 9.59 11.41 17.56 31.33 11.71 46.2a.28.27-79 00.25.38h42.69a.84.83-75.3 00.73-.43c2.83-5.26 5.7-10.99 9.33-15.35q11.75-14.09 29.48-18.19 5.71-1.31 16.05-1.26 44.21.23 88.42.54c6.37.04 13.37-.01 19.26 1.19q18.73 3.81 30.93 18.28c3.78 4.5 7.17 10.99 10.52 16.52a.91.9 74.6 00.75.43q34.87.59 69.66.92c1.65.01 3.67.99 3.76 2.83q.32 7.16-.34 14.27c-.88 9.42-4.52 12.74-13.03 16.03q-11.47 4.45-17.82 14.15c-5.24 8.02-9.48 16.86-18.33 18.8-4.94 1.08-14.78.81-21.47.82a.69.69 0 00-.65.5q-.37 1.32-.42 3.7-.71 32.63-.32 65.22a.51.51 0 00.51.5l68.19.58a1.74 1.74 0 011.72 1.55q1.12 10.23-.83 20.92c-1.04 5.74-7.48 9.37-13.16 11.36q-6.25 2.18-11.9 7.77c-10.49 10.4-10.83 24.52-28.7 25.45q-8.43.44-16.81.41a.52.52 0 00-.52.53q.04 16.61.05 33.2.01 10.73-4.26 20.51-12.37 28.39-41.1 33.91c-10.81 2.08-25.54 1.09-37.94.83a1.47 1.47 0 00-1.5 1.42q-.23 6.52-.45 13.36c-.14 4.19-4.4 4.6-4.45 9.48q-.46 42.65-.95 85.3a.48.48 0 01-.49.47l-32.72-.36a.53.53 0 01-.53-.54q.9-42.43.56-84.87-.01-1.96-.43-3.89a1.26 1.25 10.7 00-.53-.77c-2.53-1.69-3.81-3.3-3.76-6.59q.1-6.43-.28-12.78a.53.53 0 00-.54-.49c-26.49.46-46.39 1.85-64.22-15.48zM156.5 137.96q-4.8 9.55-7.02 20.23a.27.27 0 00.35.31c4.93-1.72 10.01-2.64 14.67-5.04q.36.51.96.83a.64.64 0 00.8-.17q.72-.91-.01-2.67c-1.99-4.85-4.84-14.42-9.75-13.49zm74.11 46.63q-.87 1.77-.9 2.66-.72 21.92-.51 40.31.11 9.35-.49 16.94-.17-.78-.65-1.2-.43-.37-.52.2-.31 2.01-.31 5.75 0 8.13-.43 27.61c-.24 11.27.64 26.52-.23 39.86a.47.47 0 00.49.5q.47-.02.9-.22l-.76 67.1a.4.39-9.9 00.53.37q14.43-5.25 29.26-9.27a.66.66 0 00.49-.64q.14-15.91 7.83-29.74c2.65-4.76 7.01-12.44 11.93-17.19 15.14-14.63 30.59-19.44 51.72-18.79l14.08 1.54 10.71 3.58q17.03 7.25 27.21 22.62a.64.63-26 00.74.25q11.69-4.05 23.65-7.21c5.74-1.52 11.56-3.58 17.36-5.18a1.71 1.7 82.7 001.25-1.62l.87-72.54.88-54.28c-.63-34.87-20.93-53.26-55.21-53.47-28.48-.17-56.93-.81-85.42-.77q-9.61.01-14.96 1.14c-22.8 4.84-35.89 18.99-39.51 41.69zm-73.64-2.9q-.31 3.72.46 6.85a.62.6 82.2 00.6.47l63.49-.06a.73.73 0 00.7-.53q.95-3.37.74-6.67l.34-3.6a.52.52 0 00-.5-.58q-32.64-1.17-65.3-.75a.51.51 0 00-.51.5l-.02 4.37zm275.82 2.56V186l.25 2.75q-.21.86.05 1.9a.68.67-6.8 00.64.5q29.51.53 59.04.32c1.32-.01 3.19.51 5.09-.04a.73.73 0 00.52-.64l.33-5.04.26-5.4a.53.53 0 00-.5-.56c-21.69-1.46-44.05-.55-65.84-.51a.48.48 0 00-.47.55l.63 4.42zm-.55 144.35c21.06 1.29 42.81.4 63.99.4a.55.54 1.7 00.55-.51l.43-8.99q.2-.65-.02-1.38a.72.72 0 00-.66-.51q-31.91-1.17-63.83-.76a.57.57 0 00-.57.58l.11 11.17zm-52.459 32.432a56.32 56.14-16.1 00-69.68-38.32 56.32 56.14-16.1 00-38.542 69.556 56.32 56.14-16.1 0069.68 38.32 56.32 56.14-16.1 0038.542-69.556z"/><path d="M151.46 119.63q1.18.22 1.6.81a.92.91 38.9 01.1.89q-3.43 7.92-5.08 15.19-3.69 16.23-8.18 30.18-.96 3-1.02 5.68c-.22 9.05-.78 18.1.15 27.13a.52.52 0 00.53.47l3.68-.1a.72.72 0 00.66-.47q.7-1.81 2.67-2.26-.35 3.17-1.62 5.8a1.46 1.44.4 01-.73.71q-2.53 1.14-5.12.14a1.25 1.2-.1 01-.7-.67q-1.04-2.49-1.31-7.38c-.6-10.63-1.52-24.78 3.14-34.6q.21-.45.19-.95-.1-2.07.24-3.47 4.59-18.78 10.8-37.1zM164.5 153.46q-2.23-8.7-8-15.5c4.91-.93 7.76 8.64 9.75 13.49q.73 1.76.01 2.67a.64.64 0 01-.8.17q-.6-.32-.96-.83z"/><path fill="#fbfde2" d="M156.5 137.96q5.77 6.8 8 15.5c-4.66 2.4-9.74 3.32-14.67 5.04a.27.27 0 01-.35-.31q2.22-10.68 7.02-20.23z"/><path fill="#fff" d="M425.71 196q-.93-.01-1-.7c-.82-7.92-1.44-16.33-4.88-22.91-7.97-15.28-26.18-23.87-42.83-23.83q-48.8.12-97.61-.48c-18.26-.22-36.06 8.24-44.62 24.88q-.83 1.6-1.67 5.33-.75 3.32-2.49 6.3c3.62-22.7 16.71-36.85 39.51-41.69q5.35-1.13 14.96-1.14c28.49-.04 56.94.6 85.42.77 34.28.21 54.58 18.6 55.21 53.47z"/><path fill="#919396" d="M425.71 196l-.88 54.28c-2.69-.87-1.14 3.17-1.28 4.71-.37 4.04.24 8.02-.11 12.08-.26 3.02-.02 7.26-.06 9.06-.29 15.41-.09 30.74-.43 46.19a1.48 1.48 0 01-1.06 1.39q-4.74 1.42-9.57 3-4.67 1.53-9.65 2.73-8.49 2.05-16.85 4.56c-1.54.47-2.95 1.98-5.09.98a1.28 1.27-88.8 01-.64-.67q-1.52-3.61-4.24-6.42-8.13-8.38-19.95-15.33a1.23 1.22-61.5 00-1.72.52l-.43.88-10.71-3.58q-6.69-3.89-14.08-1.54c-21.13-.65-36.58 4.16-51.72 18.79-4.92 4.75-9.28 12.43-11.93 17.19q-7.69 13.83-7.83 29.74a.66.66 0 01-.49.64q-14.83 4.02-29.26 9.27a.4.39-9.9 01-.53-.37l.76-67.1c-.16-24.1.22-48.4.75-72.5q.6-7.59.49-16.94-.21-18.39.51-40.31.03-.89.9-2.66 1.74-2.98 2.49-6.3.84-3.73 1.67-5.33c8.56-16.64 26.36-25.1 44.62-24.88q48.81.6 97.61.48c16.65-.04 34.86 8.55 42.83 23.83 3.44 6.58 4.06 14.99 4.88 22.91q.07.69 1 .7zm-149.92-3q-.28-.25-.62-.29a.93.91-67.4 00-.83.35c-9.13 11.79-16.44 24.95-16.59 41.25a.44.44 0 00.54.43q.2-.05.42-.24l-.12 3.73a.65.64-88.7 00.63.67l11.18.1a.77.77 0 00.77-.69c.27-2.55-.58-10.03 3.89-8.73a.66.65 8.7 01.48.64c-.12 6.41-.5 13.25 1.03 19.18 6.79 26.26 29.7 43.97 57.26 40.49 19.15-2.41 34.77-15.35 42.06-33.03 3.2-7.74 3.6-16.3 3.36-24.71a.64.63 89.6 01.63-.65h2.89a.8.79-.7 01.8.77l.25 6.58a1.29 1.29 0 001.27 1.25l9.65.16a.66.65-89.1 00.66-.65c.25-17.1-5.2-30.84-15.61-44.43-18.65-24.35-50.02-28.91-77.95-20.29-10.59 3.27-18.58 10.03-26.05 18.11z"/><path fill="#201f1e" d="M258.71 234.5q2.31-23.35 17.08-41.5c7.47-8.08 15.46-14.84 26.05-18.11 27.93-8.62 59.3-4.06 77.95 20.29 10.41 13.59 15.86 27.33 15.61 44.43a.66.65-89.1 01-.66.65l-9.65-.16a1.29 1.29 0 01-1.27-1.25l-.25-6.58a.8.79-.7 00-.8-.77h-2.89a.64.63 89.6 00-.63.65c.24 8.41-.16 16.97-3.36 24.71-7.29 17.68-22.91 30.62-42.06 33.03-27.56 3.48-50.47-14.23-57.26-40.49-1.53-5.93-1.15-12.77-1.03-19.18a.66.65 8.7 00-.48-.64c-4.47-1.3-3.62 6.18-3.89 8.73a.77.77 0 01-.77.69l-11.18-.1a.65.64-88.7 01-.63-.67l.12-3.73z"/><path fill="#fff" d="M222.96 181.75l-65.99-.06.02-4.37a.51.51 0 01.51-.5q32.66-.42 65.3.75a.52.52 0 01.5.58l-.34 3.6zM498.71 185.75c-1.05-.19-1.88-.47-2.95-.47q-24.99.02-43.08-.92-11.62-.61-19.89-.11l-.63-4.42a.48.48 0 01.47-.55c21.79-.04 44.15-.95 65.84.51a.53.53 0 01.5.56l-.26 5.4z"/><path fill="#919396" d="M222.96 181.75q.21 3.3-.74 6.67a.73.73 0 01-.7.53l-63.49.06a.62.6 82.2 01-.6-.47q-.77-3.13-.46-6.85l65.99.06zM498.71 185.75l-.33 5.04a.73.73 0 01-.52.64c-1.9.55-3.77.03-5.09.04q-29.53.21-59.04-.32a.68.67-6.8 01-.64-.5q-.26-1.04-.05-1.9l.36-.32a1.23 1.21 75.5 00.41-.71q.24-1.33-1.02-1.72v-1.75q8.27-.5 19.89.11 18.09.94 43.08.92c1.07 0 1.9.28 2.95.47z"/><path fill="#fbfde2" d="M432.79 186q1.26.39 1.02 1.72a1.23 1.21 75.5 01-.41.71l-.36.32-.25-2.75zM275.79 193q-14.77 18.15-17.08 41.5-.22.19-.42.24a.44.44 0 01-.54-.43c.15-16.3 7.46-29.46 16.59-41.25a.93.91-67.4 01.83-.35q.34.04.62.29z"/><path d="M221.5 316.46q.1-.39-.03-.73a.74.73 81 00-.66-.49q-32.9-1.65-65.83-.76a.62.62 0 00-.6.51q-.32 1.89.16 3.76l.47 7.69q-3.7 3.09-1.52 7.9a.67.66 70.7 00.76.37q.93-.21 1.23.62a1.74 1.69 8.5 00.61.8c7.13 5.1 15.55 6.77 21.13 13.63q4.5 5.53 8.99 13.28c3.84 6.61 8.86 11.16 16.72 11.16q8.78 0 17.53.32a.91.91 0 01.75.45q1.13 1.97 1.05 3.78c-.37 8.01-.23 15.76-.58 24q-.51 11.66.63 18.94c1.56 10.01 7.33 17.94 12.87 25.62q.29.4.73.62 1.82.92 1.05 3.07c-13.95-13.31-16.77-26.8-16.62-46.22q.11-13.76.21-28.01a1.12 1.12 0 00-1.11-1.13c-12.19-.13-26.3 2.16-33.56-10.53q-5.38-9.4-12.58-17.5c-6.84-7.69-20.58-6.31-22.95-18.6-.7-3.65-2.84-18.07 1.02-21.12a1.26 1.25 25.6 01.83-.29l68.75.35a.47.47 0 00.48-.46q.42-32.88.62-65.74.01-2.3-.56-3.64c1.46-2.15 2.34-.25 2.24 1.18-.86 12.47-.6 25.12-.67 37.63-.03 6.27.44 17.33-.06 26.05-.09 1.68.69 3.96-.54 6.13-.6 1.06-.77 1.9.14 2.7a1.09 1.09 0 01.38.76q.25 3.18-.78 6.16-.13.38-.1-.02.1-1.23-.6-2.24zm-65.29-4.59q.19 1.26 1.86 1.25 10.98-.11 42.04.19a.84.83-73.1 00.7-.38q.27-.43-.17-.78a.69.69 0 01-.12-.93l1.27-1.74a.46.45 16.8 00-.39-.72q-20.8.68-41.15-.05-2.43-.08-5.09.24-.86.1-.33.78l1.01 1.29q.29.37.37.85z"/><path d="M228.71 244.5c-.53 24.1-.91 48.4-.75 72.5q-.43.2-.9.22a.47.47 0 01-.49-.5c.87-13.34-.01-28.59.23-39.86q.43-19.48.43-27.61 0-3.74.31-5.75.09-.57.52-.2.48.42.65 1.2z"/><path fill="#fbfde2" d="M424.83 250.28l-.87 72.54a1.71 1.7 82.7 01-1.25 1.62c-5.8 1.6-11.62 3.66-17.36 5.18q-11.96 3.16-23.65 7.21a.64.63-26 01-.74-.25q-10.18-15.37-27.21-22.62l.43-.88a1.23 1.22-61.5 011.72-.52q11.82 6.95 19.95 15.33 2.72 2.81 4.24 6.42a1.28 1.27-88.8 00.64.67c2.14 1 3.55-.51 5.09-.98q8.36-2.51 16.85-4.56 4.98-1.2 9.65-2.73 4.83-1.58 9.57-3a1.48 1.48 0 001.06-1.39c.34-15.45.14-30.78.43-46.19.04-1.8-.2-6.04.06-9.06.35-4.06-.26-8.04.11-12.08.14-1.54-1.41-5.58 1.28-4.71zM343.04 310.38l-14.08-1.54q7.39-2.35 14.08 1.54z"/><path fill="#201f1e" d="M155.84 311.02l-1.01-1.29q-.53-.68.33-.78 2.66-.32 5.09-.24 20.35.73 41.15.05a.46.45 16.8 01.39.72l-1.27 1.74a.69.69 0 00.12.93q.44.35.17.78a.84.83-73.1 01-.7.38q-31.06-.3-42.04-.19-1.67.01-1.86-1.25-.08-.48-.37-.85z"/><path fill="#fff" d="M221.5 316.46l-.29 2.04-.25.34a.85.84 18.8 01-.7.34l-65.72-.43q-.48-1.87-.16-3.76a.62.62 0 01.6-.51q32.93-.89 65.83.76a.74.73 81 01.66.49q.13.34.03.73zM497.21 319.5q-.22.96-.81 1.5c-1.04.93-16.67.14-19.12.07-14.56-.4-29.29-.1-43.97-.49a.55.55 0 00-.56.57l.24 6.81a.58.57 84.1 01-.46.58l-.29.06-.11-11.17a.57.57 0 01.57-.58q31.92-.41 63.83.76a.72.72 0 01.66.51q.22.73.02 1.38z"/><path fill="#919396" d="M221.21 318.5l.04 7.48a.99.99 0 01-1 .99l-65.24-.53-.47-7.69 65.72.43a.85.84 18.8 00.7-.34l.25-.34zM497.21 319.5l-.43 8.99a.55.54 1.7 01-.55.51c-21.18 0-42.93.89-63.99-.4l.29-.06a.58.57 84.1 00.46-.58l-.24-6.81a.55.55 0 01.56-.57c14.68.39 29.41.09 43.97.49 2.45.07 18.08.86 19.12-.07q.59-.54.81-1.5z"/><path fill="#fff" d="M379.781 361.032a56.32 56.14-16.1 01-38.543 69.556 56.32 56.14-16.1 01-69.68-38.32 56.32 56.14-16.1 0138.544-69.556 56.32 56.14-16.1 0169.68 38.32zM378.7 376.58a53.05 53.05 0 00-53.05-53.05 53.05 53.05 0 00-53.05 53.05 53.05 53.05 0 0053.05 53.05 53.05 53.05 0 0053.05-53.05z"/><path fill="#201f1e" d="M378.7 376.58a53.05 53.05 0 01-53.05 53.05 53.05 53.05 0 01-53.05-53.05 53.05 53.05 0 0153.05-53.05 53.05 53.05 0 0153.05 53.05zm-53.042-27.28a10.49 8.56 97.9 009.92-9.214 10.49 8.56 97.9 00-7.036-11.566 10.49 8.56 97.9 00-9.92 9.214 10.49 8.56 97.9 007.036 11.566zm-15.408 66.41q1.73 1.08 2.65-.8 1.25-2.56 6.05-10.97a1.03 1-43.2 00.04-.93l-.7-1.51q3.26-5.23 5.44-10.97.18-.47.43-.04 7.91 13.14 15.02 26.71c2.49 4.74 8.94 2.4 6.38-4.16q-5.43-13.9-10.51-27.92c-1.68-4.65-.73-11.69-.81-16.61a.55.55 0 01.96-.38c2.59 2.8 5.52 5.8 9.58 5.96q5.79.22 11.29.16a1.89 1.89 0 001.82-1.49c1.16-5.28-11.13-4.7-13.96-7.69-5.74-6.06-13.1-18.48-23.17-12.76-4.52 2.57-11.91 7.01-14.13 11.88q-3.17 6.93-5.81 14.1c-1.05 2.85 3.33 5.85 5.2 2.8 3.13-5.1 5.38-11.22 10.44-14.71a.35.34 73.2 01.54.29c-.49 17.62-8.3 32.93-14.27 49.08-1.42 3.83 5.59 5.24 7.52-.04z"/><ellipse fill="#fff" transform="rotate(97.9 15.985 311.878)" rx="10.49" ry="8.56"/><path fill="#fff" d="M318.29 401.5l-8.04 14.21c-1.93 5.28-8.94 3.87-7.52.04 5.97-16.15 13.78-31.46 14.27-49.08a.35.34 73.2 00-.54-.29c-5.06 3.49-7.31 9.61-10.44 14.71-1.87 3.05-6.25.05-5.2-2.8q2.64-7.17 5.81-14.1c2.22-4.87 9.61-9.31 14.13-11.88 10.07-5.72 17.43 6.7 23.17 12.76 2.83 2.99 15.12 2.41 13.96 7.69a1.89 1.89 0 01-1.82 1.49q-5.5.06-11.29-.16c-4.06-.16-6.99-3.16-9.58-5.96a.55.55 0 00-.96.38c.08 4.92-.87 11.96.81 16.61q5.08 14.02 10.51 27.92c2.56 6.56-3.89 8.9-6.38 4.16q-7.11-13.57-15.02-26.71-.25-.43-.43.04-2.18 5.74-5.44 10.97z"/><path d="M318.29 401.5l.7 1.51a1.03 1-43.2 01-.04.93q-4.8 8.41-6.05 10.97-.92 1.88-2.65.8l8.04-14.21z"/><path fill="#fff" d="M590.29 589.75l.71.31v.94h-1.06l-.19-.71.54-.54z"/><path fill="#201f1e" d="M0 589.94l.25.1c-.15.48-.01.72.51.7q7.22-.17 14.43.26H0v-1.06z"/><path fill="#fbfde2" d="M.25 590.04q1.41.08 2.81.08 293.35.12 586.69.17l.19.71h-15.5q-2.38-.63-4.75 0H333.44q-12.88-.63-25.75 0h-3.25q-4.25-.63-8.5 0H15.19q-7.21-.43-14.43-.26c-.52.02-.66-.22-.51-.7z"/><path fill="#201f1e" d="M304.44 591h-8.5q4.25-.63 8.5 0zM333.44 591h-25.75q12.87-.63 25.75 0zM574.44 591h-4.75q2.37-.63 4.75 0z"/></svg>