<svg xmlns="http://www.w3.org/2000/svg" viewBox="0 0 591 591"><g stroke-width="2" fill="none"><path stroke="#cacccd" vector-effect="non-scaling-stroke" d="M591 2.56q-.28-2.76-.76-1.81"/><path stroke="#4b4c4e" vector-effect="non-scaling-stroke" d="M590.24.75q-1.47.03-2.24.03Q294 .97 0 .94"/><path stroke="gray" vector-effect="non-scaling-stroke" d="M0 589.94q4.12.13 8.25.14 290.72.17 581.33.17a.68.67 90 00.67-.68L590.24.75"/><path stroke="#7e7f71" vector-effect="non-scaling-stroke" d="M585.5 5.52a.26.26 0 00-.26-.26H5.5a.26.26 0 00-.26.26v579.72a.26.26 0 00.26.26h579.74a.26.26 0 00.26-.26V5.52"/><path stroke="#fbf2c8" vector-effect="non-scaling-stroke" d="M25.1 75.3q26.54-26.39 53.22-54.14a1.85 1.84 49.8 00.19-2.32q-.75-1.07-3.02-.99-19.61.71-39.27 1.2-6.37.16-9.77 1.55-8.51 3.5-11.74 12.68c-1.02 2.9-.47 7.17-.47 9.59q-.02 20.45.49 40.97a.83.83 0 001.35.63c3.38-2.74 6.63-6.8 9.02-9.17"/><path stroke="#8c8d7e" vector-effect="non-scaling-stroke" d="M264.53 110.7c-.35-4.02-3.03-5.5-6.93-4.69q-7.62 1.58-15.12 3.67c-3.41.95-2.23 8.5-2.24 11.27a.94.94 0 01-.44.78l-4.63 2.93q-.35.22-.77.24l-7.42.32a1.44 1.42 20 00-.96.44q-1.89 1.97-2.76 4.63a1.25 1.19 85.3 01-.56.69c-21.2 12.18-36.66 21.36-42.54 46.33a.38.38 0 01-.55.25c-8.51-4.38-16.46 6.01-17.78 13.19a.76.74 89 01-.56.6c-8.43 1.93-13.38 8.61-16.24 15.42q-6.34 15.08-11 32.96c-2.67 10.29-4.38 22.26-6.43 33.44-3.75 20.39-5.37 41.32-7.27 61.94-.68 7.34-.6 15.05-.92 22.64q-1.34 32.44.57 64.83c.81 13.94 2.88 29.61 4.76 42.68 2.85 19.84 8.3 41.52 19.65 58.93 9.85 15.11 19.54 25.14 38.53 23.42 23.95-2.15 34.3-35.2 39.55-55.12q2.41-9.12 2.61-18.63a.63.63 0 01.45-.59l5.74-1.71a2.03 1.99 12.4 00.93-.58l2.58-2.86a1.34 1.34 0 01.97-.44q31.11-.32 62.21-.59c8.05-.07 15.11 1.16 21.73-4.15q9.73-7.79 12.2-20.86 1.62-8.5 1.63-8.56c9.5-39.66 18.11-79.56 27.53-119.24 3.4-14.31 6.38-29 9.81-43q6.1-24.85 11.69-49.9a.45.45 0 01.59-.32c24.35 8.74 53.43 8.63 78.66 4.45 9.96-1.65 35.47-10.02 26.58-25.19q-5.8-9.89-16.7-11.87a1.38 1.36 75.1 01-.81-.48q-6.98-8.51-8.4-17.96-1.91-12.73-1.95-30.42c-.01-5.28-1.66-10.18-1.98-15.48-.21-3.55-5.05-12.09-7.61-14.31-10.23-8.93-24.04-10.03-37.27-9.95a1.68 1.62-27.5 01-.91-.27q-8.83-5.92-17.83-.5c-.95.57-2.17.65-3.22.67a1.71 1.7-27.3 01-.98-.31q-3.68-2.69-8.17-3.49a.49.49 0 01-.37-.65c.92-2.54 4.49-9.81-.44-10.56q-10.19-1.56-23.33-.14a.75.75 0 00-.66.58l-1.92 8.57a.65.64 5.7 01-.62.5q-17.31.29-34.6 1.24c-2.09.12-3.79.91-5.92 1.12q-26.14 2.66-49.68 14.36a.34.33 74.1 01-.48-.27"/><path stroke="#fdfff0" vector-effect="non-scaling-stroke" d="M18.504 183.318a1.05.73 18.8 00-.759-1.03 1.05.73 18.8 00-1.229.354 1.05.73 18.8 00.759 1.03 1.05.73 18.8 001.229-.354M411.58 333.77c-1.25.9 1.07 5.83 3.55 5.17a.47.46 65 00.26-.72l-3.15-4.34a.48.47 54.1 00-.66-.11"/><path stroke="#c8cbbe" vector-effect="non-scaling-stroke" d="M358.27 457.335a.47.47 0 00-.528-.403l-.04.005a.47.47 0 00-.403.529l1.79 13.24a.47.47 0 00.53.402l.039-.005a.47.47 0 00.403-.529l-1.79-13.24"/><path stroke="#8e8d8d" vector-effect="non-scaling-stroke" d="M363.67 91.43q-3.93 19.35-7.15 38.83c-1.12 6.76 4.18 6.61 6.62 11.8 2.23 4.73-3.31 21.63-4.8 27.61a.58.57-82.9 00.55.72l4.61.03a.83.82-83.6 00.82-.66q1.39-6.43 3.38-12.62c5.09-15.85 19.8 12.56 23.99-14.41a.4.4 0 00-.46-.46l-2.72.5a.77.76 88.5 00-.62.66q-.38 2.97-2.51 5.04a1.35 1.32-64.9 01-.99.37c-7.63-.35-16.92-5.09-17.8-13.47-.85-8.17.88-15.66 2.14-23.43q.43-2.67 2.22-9.73 1.24-4.89 1.66-9.96a.49.48 6.5 00-.41-.51l-7.95-1.14a.45.44 7.9 00-.5.37q-.03.24-.08.46"/><path stroke="#595a5b" vector-effect="non-scaling-stroke" d="M379.04 108.5l-1.16 11.26a.48.48 0 00.59.51l10.83-2.74a.66.66 0 00.5-.57l.91-7.46"/><path stroke="#8e8d8d" vector-effect="non-scaling-stroke" d="M390.71 109.5l.71-3.55a.56.56 0 00-.45-.67l-10.64-1.96a.61.61 0 00-.71.52l-.58 4.66"/><path stroke="#cacccd" vector-effect="non-scaling-stroke" d="M390.71 109.5l-9.69-1.89a.88.86-63 00-.8.27q-.47.53-1.18.62"/><path stroke="#595a5b" vector-effect="non-scaling-stroke" d="M262.97 123.53q.59 5.37.16 10.66"/><path stroke="#8e8d8d" vector-effect="non-scaling-stroke" d="M263.13 134.19q2.25 1.67 5.12.52"/><path stroke="#595a5b" vector-effect="non-scaling-stroke" d="M268.25 134.71q29.63-2.59 59.11-6.53c7.43-.99 14.71-2.78 22.07-4.41a.83.8-89.2 00.61-.61l2.92-12.16"/><path stroke="#8e8d8d" vector-effect="non-scaling-stroke" d="M352.96 111q1.17-2.91.88-6.01a.58.57-1.1 00-.55-.52q-23.87-.52-33.54.57c-15.96 1.79-31.34 3.38-46.43 9.28q-7.71 3.01-10.35 9.21"/><path stroke="#cacccd" vector-effect="non-scaling-stroke" d="M352.96 111q-5.18-1.08-10.45-.88-14.28.53-28.52 1.52c-9.08.62-46.26 4.99-49.67 14.63a.36.35 8.5 01-.32.23l-.4.01a.15.15 0 01-.15-.21q.5-1.16-.48-2.77M268.25 134.71l.01-.41a.57.56-85.9 00-.48-.56q-2.18-.3-4.65.45"/><path stroke="#8e8d8d" vector-effect="non-scaling-stroke" d="M398.69 107.69c-1.4 4.08-3.42 18.03-.12 22a.42.42 0 00.75-.25l1.09-20.03q.03-.59.35-1.1l.7-1.11a.46.45-69.4 00-.31-.69q-1.96-.29-2.46 1.18M407.79 107.23c-.05 2.16 0 2.96-.82 4.97a.38.38 0 00.32.52c4.38.39 9.12-3.01 13.05-.5a.74.74 0 00.81-.01q2.01-1.35 4.64-.47c9.23 3.11 19.47 6.37 21.98 17.26q.92 3.99 2.63 20.06c1.26 11.79 3.68 24.41 9.09 35.55a.23.23 0 00.44-.14c-2.07-12.15-4.38-24.06-5.38-36.41q-.63-7.74-1.29-15.48-.64-7.51-2.38-10.88c-4.58-8.87-15.38-12.18-24.63-13.15-7.07-.74-11.98-1.64-17.95-1.81a.5.5 0 00-.51.49M248.62 153.68c.06 3.38 6.52 4.9 9.1 5.87 3.33 1.27 2.34 3.61 2.31 6.3q-.06 5.25-.03 10.54a.61.61 0 00.61.61h2.02a.68.67 2.3 00.68-.62l1.23-15.32a.9.9 0 00-.62-.93c-8.36-2.64-9.58-8.14-9.33-16.62q.43-14.5 1.62-29.01a.61.6-1.9 00-.7-.65l-6.02.91a.8.79-3.9 00-.68.77q-.49 19.1-.19 38.15"/><path stroke="#8e8d8d" vector-effect="non-scaling-stroke" d="M417.17 121.01c14.25 21.45 2.12 47.87-10.45 66.85q-.92 1.4.71 1.03 5.22-1.18 10.53-.84a.58.57 6.8 00.6-.47c1.4-7.76 6.21-16.33 9.24-23.83a1.1 1.1 0 012.04 0c1.89 4.67.36 16.02.06 21.4a.43.43 0 00.45.46l5.88-.16a.44.43 86.9 00.42-.48q-.81-7.65-.66-9.97 1.16-16.97.52-33.95-.13-3.41-1.26-6.93c-1.44-4.47-2.51-12.86-8.56-13.29q-4.59-.32-9.05-.61a.52.51-14.6 00-.47.79M412.37 125.59c-1.3-.64-6.93-2.2-5.63 1.26a.96.96 0 001.06.61l4.12-.68a.7.69-5.4 00.58-.69v-.31a.22.2 13.7 00-.13-.19"/><path stroke="#595a5b" vector-effect="non-scaling-stroke" d="M234.96 141.25q-2.55 9.67 5.43 14.56.45.28.4-.25l-.76-7.47"/><path stroke="#8e8d8d" vector-effect="non-scaling-stroke" d="M240.03 148.09l.23-19.96a.12.12 0 00-.12-.12l-.28-.02a.29.29 0 00-.31.3q.12 5.36-3.34 9.26c-1.04 1.17-1.29 2.24-1.25 3.7"/><path stroke="#cacccd" vector-effect="non-scaling-stroke" d="M240.03 148.09q-1.6-5.47-1.13-11.3a.28.28 0 00-.47-.23q-2.22 1.99-2.85 4.92a.26.25-51.9 01-.48.06l-.14-.29"/><path stroke="#8e8d8d" vector-effect="non-scaling-stroke" d="M391.25 134.04q.26-1.71-.54-3.29"/><path stroke="#595a5b" vector-effect="non-scaling-stroke" d="M390.71 130.75q.02-1.19-.69-2.22a.66.65 60.2 00-.79-.22l-8.58 3.67a.55.55 0 00-.17.9l2.57 2.5a1.38 1.35 66.7 00.95.39q3.85-.03 7.25-1.73"/><path stroke="#cacccd" vector-effect="non-scaling-stroke" d="M390.71 130.75q-1.48 1.85.54 3.29"/><path stroke="#8c8d7e" vector-effect="non-scaling-stroke" d="M413.78 132.67c-1.52 8.28-9.73 6.46-15.75 7.04a.73.72 4.6 00-.63.53q-2.33 8.41-6.1 16.34c-3.95 8.33-11.91 6.38-19.93 3.39a.56.55 18.6 00-.72.35l-3.14 10.3a.66.65 23.2 00.31.76c7.99 4.51 13.56 10.03 20 15.8 2.42 2.16 1.56 4.48 1.48 7.32q-.02.67.52.28l2.8-1.95a1.45 1.42-11.8 00.57-.85q.56-2.38 1.88-3.18c15.99-9.7 20.24-30.72 20.62-48.2.02-1.1-.24-8.25-1.75-8.08a.2.19-87.7 00-.16.15"/><path stroke="#8e8d8d" vector-effect="non-scaling-stroke" d="M227.59 139.14a.37.37 0 00-.33-.39l-2.17-.23a.37.37 0 00-.4.45l1.73 8.19a.37.37 0 00.73-.06l.44-7.96"/><path stroke="#595a5b" vector-effect="non-scaling-stroke" d="M298.28 151.09c-.32-.11-1-.32-1.32-.32-10.28.11-21.31.55-31.28-2.34a.48.48 0 00-.55.7q2.22 3.93 6.94 4.16 17.83.85 35.68 1.01c15.9.15 29.79-1.19 43.48-8.23a1.13 1.13 0 00.46-1.58l-2.35-3.97a.51.5 57.1 00-.72-.16q-11.35 7.89-24.94 9.04c-7.3.62-12.71 1.25-19.1 1.7-1.79.13-3.44-.65-5.42 0a1.33 1.32 45.3 01-.88-.01"/><path stroke="#8e8d8d" vector-effect="non-scaling-stroke" d="M216.01 141.75c-16.92 9.14-26.62 24.37-33.41 42.15q-3.99 10.45-3.45 21.69.03.6.42.15 7.24-8.13 16.26-14.19a1.68 1.65 84.1 00.62-.78c2.56-6.76 2.37-15.7 7.18-22.45 4.57-6.42 8.21-11.92 14.64-15.3a.77.77 0 00.4-.84l-2.21-10.22a.31.31 0 00-.45-.21"/><path stroke="#595a5b" vector-effect="non-scaling-stroke" d="M226.857 150.96a.27.27 0 00-.367-.106l-.385.214a.27.27 0 00-.105.367l2.763 4.985a.27.27 0 00.367.106l.385-.214a.27.27 0 00.105-.367l-2.763-4.985"/><path stroke="#8c8d7e" vector-effect="non-scaling-stroke" d="M272.62 161.27q-1.17 2.37-3.64 3.18a.97.96-8 00-.66.87l-.52 10.58a.48.48 0 00.48.51c10.14-.03 23.15-1.54 30.18-2q25.58-1.67 51.19-3.41a.84.83 7.4 00.73-.55q3-8.57 4.98-17.42.16-.73-.52-.45-13.74 5.54-22.91 6.6-29.1 3.34-58.36 1.54a.99.99 0 00-.95.55"/><path stroke="#8e8d8d" vector-effect="non-scaling-stroke" d="M241.718 159.542a1.22.6 73.9 00.239-1.338 1.22.6 73.9 00-.915-1.006 1.22.6 73.9 00-.238 1.338 1.22.6 73.9 00.914 1.006M225.98 164.33a.6.6 0 00-.89.1c-3.88 5.39-9.71 14.43-7.04 21.17a.91.89 83.4 00.69.56l2.23.37q.78.13.47-.6c-2.54-6-1.77-9.25 2.53-13.96q1.08-1.17 3.02-5.99a.82.81-58.3 00-.21-.92l-.8-.73"/><path stroke="#8c8d7e" vector-effect="non-scaling-stroke" d="M253.28 177.79a.4.39 0 00.38-.37l.59-10.47a1.34 1.33 6.5 00-1.11-1.39c-3.77-.65-8.19.95-10.83 1.28q-4.29.53-8.66.75a.87.86 12.3 00-.74.47c-3.39 6.61-6.41 11.62-5.48 17.35q.08.5.44.15c7.39-7.06 16.68-7.26 25.41-7.77"/><path stroke="#595a5b" vector-effect="non-scaling-stroke" d="M241 406.21q7.28.44 21.31.1 23.22-.56 46.44-1.35"/><path stroke="#8e8d8d" vector-effect="non-scaling-stroke" d="M308.75 404.96q2.78.16 5.4-.89a1.4 1.38-86.9 00.72-.65q1.15-2.21 2.02-5.25c3-10.47 5-22.29 7.37-31.16 2.16-8.06 4.47-15.92 6.24-24.12 3.81-17.72 8.47-35.22 12.07-52.99 2.35-11.6 6.78-24.6 9.05-34.08 4.12-17.18 7.81-34.44 11.72-51.67q2.33-10.27 3.88-21.66.4-2.95-.74-5.29a1.13 1.13 0 00-.7-.59q-1.32-.41-3.28-.36c-18.4.48-37.88 2.1-54.94 2.98-12.83.67-26.76 2.06-40.21 2.61-10 .4-19.94 1.14-28.1 1.92-5.2.49-6.82 5.04-7.94 9.39-3.75 14.58-6.54 25.92-11.17 43.76-5.07 19.49-9.3 37.56-15.75 59.02-4.43 14.72-7.1 28.79-11.9 45.96-4.11 14.71-7.14 30.14-11.11 45.14q-3.1 11.71-3.63 15.97-.55 4.46 3.75 4.36c22.58-.53 42.02.03 59.5-1.15"/><path stroke="#cacccd" vector-effect="non-scaling-stroke" d="M308.75 404.96q.66-1.75 2.3-8.7 5.87-24.82 8.9-38.42c3.07-13.72 7.7-28.81 10.35-43.72a.42.42 0 00-.72-.37q-43.63 45.08-87.54 90.29-.54.55-1.04 2.17"/><path stroke="#595a5b" vector-effect="non-scaling-stroke" d="M177.23 183.79c-9.94-.13-10.83 14.36-10.41 21.45a.28.28 0 00.4.24l3.9-1.82a.7.7 0 00.41-.62c.08-4.18.47-9.11 3.28-12.45q2.26-2.68 2.85-6.29a.44.43 5 00-.43-.51M385.54 212.75q4.23-4.98 7.72-5.99 26.89-7.78 57.24-6.77c8.26.27 25.73 1.95 30.01 9.87q.56 1.02 1.25 2.04.29.43.45-.06 1.35-4.3-.47-8.35"/><path stroke="#8e8d8d" vector-effect="non-scaling-stroke" d="M481.74 203.49q-2.47-5.89-8.99-7.75-17.93-5.11-35.89-2.72-7.18.96-11.84 1.32-14 1.09-27.48 5.01c-3.85 1.12-20.79 8.15-12.92 14.11a.53.52 35.7 00.75-.12q.16-.25.17-.59"/><path stroke="#cacccd" vector-effect="non-scaling-stroke" d="M481.74 203.49q-4.87-5.26-10.31-6.42-15.63-3.32-34.74-1.82c-1.05.08-1.73-.15-2.71-.4a1.78 1.76-45.3 00-.96.01q-7 2.06-17.51 3.17c-6.82.73-27.59 4.91-31.25 12.35a1.07 1.06 45.9 00-.01.93q.41.91 1.29 1.44"/><path stroke="#595a5b" vector-effect="non-scaling-stroke" d="M220.8 193.46c-17.71-.31-27.23 7.53-38.07 19.82-8.58 9.74-12.25 24.49-12.72 37.21-.47 12.79 6.75 18.42 15.43 25.93a.56.55 8.2 00.87-.65c-3.28-7.18-3.75-13.1-4.27-21.11-.77-11.82 3.15-18.81 6.73-29.43 1.29-3.8 2.43-9.09 5.35-11.86q5.78-5.5 14.16-12.84c3.66-3.2 8.29-4.57 12.65-6.42a.34.34 0 00-.13-.65M133.15 261.29q-1.13 4.16-1.66 8.45-2.56 20.96-4.87 41.94c-.13 1.25-.59 2.81-.67 4.26q-1.26 22.35-1.39 44.72a1.2 1.19-29.3 01-.18.63l-.18.29a1.84 1.79 62.1 00-.27.92q-.22 18.8.45 37.58c.43 11.96.47 24.85 1.6 35.98q1.49 14.62 4.01 29.09c4.56 26.2 9.76 47.22 28.44 66.87q.35.37.08-.05c-9.76-14.96-15.5-25.99-19.34-41.35-1.63-6.51-4.3-13.89-5.44-21.12-1.94-12.34-3.24-24.74-3.8-37.22-.38-8.56-2.79-16.39-3.15-23.03q-.52-9.68-.52-31.41c0-3.71.62-8.06.63-12.09.02-8.28-.41-17.01.78-25.2q1.89-12.92 2.54-25.95c.52-10.45 1.73-20.17 2.4-30.3q.4-6.09 1.65-11.47c5.42-23.39 9.09-42.67 17.24-59.14 1.69-3.43 4.91-5.78 7.42-8.71a1.49 1.46 68.3 00.35-.84l.32-3.87a.32.32 0 00-.45-.32c-4.32 1.92-8.72 9.87-10.93 13.95-3.7 6.8-6.12 16.05-8.92 24.28-2.55 7.47-3.89 14.92-6.14 23.11"/><path stroke="#8c8d7e" vector-effect="non-scaling-stroke" d="M164.94 525.31c8.98 8.81 21.33 9.26 27.78-2.57 8.74-16.04 12.82-32.21 17.14-49.36a1.17 1.16 8.5 00-1.08-1.45q-4.97-.25-8.3-3.85a1.11 1.09 65.3 00-.9-.34c-7.23.68-13.67.81-19.45-3.5-4.25-3.17-8.6-6.09-12.93-9.12-9.18-6.42-3.73-16.84-1.66-25.9 10.09-44.32 23.95-87.5 34.07-131.8q.91-4.03 1.2-8.28a1.16 1.15-87.9 00-1.15-1.24c-6.53-.02-17.9-1.46-22.53-6.67-6.62-7.44-13.27-16.58-13.81-26.99q-.92-17.86 6.28-33.54c1.32-2.87 1.74-5.37 1.65-8.3a.64.64 0 00-.86-.58l-7.05 2.49a1.31 1.3 5.2 00-.69.57c-9.02 15.85-14.21 36.24-17.21 52.06-9.03 47.7-10.01 97.98-7.66 148.57 1.03 22.29 4.49 44.6 8.52 66.53 2.81 15.25 6.99 31.85 18.64 43.27"/><path stroke="#595a5b" vector-effect="non-scaling-stroke" d="M312.67 409.98c-1.87.06-3.76-.07-5.67-.05-43.6.5-87.16 2.05-130.76 2.09a.65.65 0 00-.63.48q-3.96 15.62-7.72 31.3c-2.03 8.47 7.96 7.23 13.92 7.13q53.69-.92 107.38-.7c3.94.02 15.58-1 16.58-6.07q3.23-16.51 7.81-33.02a.92.92 0 00-.91-1.16M285.32 452.87l.49.59a.46.45 33.6 00.78-.15l.16-.48a.45.44-81.3 00-.42-.58h-.72q-.81 0-.29.62M212.17 463.5c2.6-.07 2.59 2.73 2.35 4.5-1.78 12.81-4.86 25.74-9.58 38-2.8 7.29-8.73 25.79-18.19 28.26q-2.7.7-4.29 1.66-.45.27.08.29c16.27.55 17.82-8.98 22.82-20.81 2.24-5.3 7.15-14.21 8.64-21.41q3.23-15.63 6.47-31.29a1.05 1.03-63.9 00-.34-1.01l-3.5-2.96a1.14 1.14 0 00-.88-.27q-5.6.65-9.97 4.24a.83.82 61.2 00-.26.9q1.06 3.08 4.15 4.27a.39.39 0 00.51-.24l1.19-3.54a.88.88 0 01.8-.59"/><path stroke="#cacccd" vector-effect="non-scaling-stroke" d="M207.43 326.65c47.73-48.31 95.46-96.6 143.13-144.99a.69.69 0 00-.53-1.18q-12.08.65-24.52 1.82c-16.22 1.53-30 .79-44.51 2.22q-19.02 1.88-36.5 1.95-2.18 0-4.55 1.07a1.21 1.19-2.7 00-.62.67q-1.64 4.55-5.32 18.05-6.89 25.29-10.38 39.02c-4.01 15.78-8.66 31.51-12.23 47.52-2.87 12.87-7.82 24.84-10.63 37.87a.82.82 0 001.37.76c1.64-1.61 3.68-3.15 5.29-4.78M184.96 403.3c15.38-17.87 31.95-35.37 48.71-51.88q3.6-3.54 7.77-8.23c7.55-8.48 17.52-17.51 25.45-26.21 27.19-29.8 57.71-56.55 83.41-87.68q2.11-2.57 2.91-5.81 3.68-14.91 6.57-30.24a.38.38 0 00-.67-.3q-1.81 2.34-4.08 4.58-77.26 76.13-153.84 152.96c-4.86 4.88-7.31 8.01-8.72 14.25q-3.54 15.68-8.69 35.38-.36 1.38-.23 2.73a.81.8 62.5 001.41.45"/><path stroke="#4b4c4e" vector-effect="non-scaling-stroke" d="M178.81 265.32l.25-.36a.41.38 59.6 00.06-.27q-3.66-27.12 10.63-50.23 6.21-10.04 13-14.72 1.69-1.15 8.72-3.57c.08-.03.26-.29.26-.38a.22.21-4.2 00-.26-.22q-11.44 2.51-19.66 10.52c-3.14 3.06-5.18 7.2-7.5 11.08-7.73 12.91-14.91 35.64-5.85 48.72q.3.42.29-.1v-.26a.4.34 66.3 01.06-.21"/><path stroke="#cacccd" vector-effect="non-scaling-stroke" d="M218.09 421.17q-5.25 5.65-2.28 13.3.72 1.85 2.23 1.28"/><path stroke="#4b4c4e" vector-effect="non-scaling-stroke" d="M218.04 435.75q11.65 10.81 25.77 2.79c7.75-4.41 8.34-15.63 1.54-20.76-3.9-2.93-11.45-3.43-16.03-2.69q-5.66.91-11.23 6.08"/><path stroke="gray" vector-effect="non-scaling-stroke" d="M218.04 435.75q-4.3-7.16.05-14.58"/><path stroke="#4b4c4e" vector-effect="non-scaling-stroke" d="M221.41 432.64c3.01 5.63 11.81 5.3 17.08 3.88q10.54-2.86 7.52-12.61c-3.28-10.56-32.17-5.4-24.6 8.73"/></g><path fill="#95989b" d="M0 0h591v2.56q-.28-2.76-.76-1.81-1.47.03-2.24.03Q294 .97 0 .94V0z"/><path fill="#fff" d="M591 2.56V591H0v-1.06q4.12.13 8.25.14 290.72.17 581.33.17a.68.67 90 00.67-.68L590.24.75q.48-.95.76 1.81z"/><path d="M590.24.75l.01 588.82a.68.67-90 01-.67.68q-290.61 0-581.33-.17-4.13-.01-8.25-.14V.94q294 .03 588-.16.77 0 2.24-.03zm-4.74 4.77a.26.26 0 00-.26-.26H5.5a.26.26 0 00-.26.26v579.72a.26.26 0 00.26.26h579.74a.26.26 0 00.26-.26V5.52z"/><path fill="#fbfee1" d="M585.5 585.24a.26.26 0 01-.26.26H5.5a.26.26 0 01-.26-.26V5.52a.26.26 0 01.26-.26h579.74a.26.26 0 01.26.26v579.72zM25.1 75.3q26.54-26.39 53.22-54.14a1.85 1.84 49.8 00.19-2.32q-.75-1.07-3.02-.99-19.61.71-39.27 1.2-6.37.16-9.77 1.55-8.51 3.5-11.74 12.68c-1.02 2.9-.47 7.17-.47 9.59q-.02 20.45.49 40.97a.83.83 0 001.35.63c3.38-2.74 6.63-6.8 9.02-9.17zm239.43 35.4c-.35-4.02-3.03-5.5-6.93-4.69q-7.62 1.58-15.12 3.67c-3.41.95-2.23 8.5-2.24 11.27a.94.94 0 01-.44.78l-4.63 2.93q-.35.22-.77.24l-7.42.32a1.44 1.42 20 00-.96.44q-1.89 1.97-2.76 4.63a1.25 1.19 85.3 01-.56.69c-21.2 12.18-36.66 21.36-42.54 46.33a.38.38 0 01-.55.25c-8.51-4.38-16.46 6.01-17.78 13.19a.76.74 89 01-.56.6c-8.43 1.93-13.38 8.61-16.24 15.42q-6.34 15.08-11 32.96c-2.67 10.29-4.38 22.26-6.43 33.44-3.75 20.39-5.37 41.32-7.27 61.94-.68 7.34-.6 15.05-.92 22.64q-1.34 32.44.57 64.83c.81 13.94 2.88 29.61 4.76 42.68 2.85 19.84 8.3 41.52 19.65 58.93 9.85 15.11 19.54 25.14 38.53 23.42 23.95-2.15 34.3-35.2 39.55-55.12q2.41-9.12 2.61-18.63a.63.63 0 01.45-.59l5.74-1.71a2.03 1.99 12.4 00.93-.58l2.58-2.86a1.34 1.34 0 01.97-.44q31.11-.32 62.21-.59c8.05-.07 15.11 1.16 21.73-4.15q9.73-7.79 12.2-20.86 1.62-8.5 1.63-8.56c9.5-39.66 18.11-79.56 27.53-119.24 3.4-14.31 6.38-29 9.81-43q6.1-24.85 11.69-49.9a.45.45 0 01.59-.32c24.35 8.74 53.43 8.63 78.66 4.45 9.96-1.65 35.47-10.02 26.58-25.19q-5.8-9.89-16.7-11.87a1.38 1.36 75.1 01-.81-.48q-6.98-8.51-8.4-17.96-1.91-12.73-1.95-30.42c-.01-5.28-1.66-10.18-1.98-15.48-.21-3.55-5.05-12.09-7.61-14.31-10.23-8.93-24.04-10.03-37.27-9.95a1.68 1.62-27.5 01-.91-.27q-8.83-5.92-17.83-.5c-.95.57-2.17.65-3.22.67a1.71 1.7-27.3 01-.98-.31q-3.68-2.69-8.17-3.49a.49.49 0 01-.37-.65c.92-2.54 4.49-9.81-.44-10.56q-10.19-1.56-23.33-.14a.75.75 0 00-.66.58l-1.92 8.57a.65.64 5.7 01-.62.5q-17.31.29-34.6 1.24c-2.09.12-3.79.91-5.92 1.12q-26.14 2.66-49.68 14.36a.34.33 74.1 01-.48-.27zM18.504 183.318a1.05.73 18.8 00-.759-1.03 1.05.73 18.8 00-1.229.354 1.05.73 18.8 00.759 1.03 1.05.73 18.8 001.229-.354zM411.58 333.77c-1.25.9 1.07 5.83 3.55 5.17a.47.46 65 00.26-.72l-3.15-4.34a.48.47 54.1 00-.66-.11zm-53.31 123.565a.47.47 0 00-.528-.403l-.04.005a.47.47 0 00-.403.529l1.79 13.24a.47.47 0 00.53.402l.039-.005a.47.47 0 00.403-.529l-1.79-13.24z"/><path fill="#fbe6ae" d="M25.1 75.3c-2.39 2.37-5.64 6.43-9.02 9.17a.83.83 0 01-1.35-.63q-.51-20.52-.49-40.97c0-2.42-.55-6.69.47-9.59q3.23-9.18 11.74-12.68 3.4-1.39 9.77-1.55 19.66-.49 39.27-1.2 2.27-.08 3.02.99a1.85 1.84 49.8 01-.19 2.32Q51.64 48.91 25.1 75.3z"/><path fill="#1c1b1b" d="M265.01 110.97q23.54-11.7 49.68-14.36c2.13-.21 3.83-1 5.92-1.12q17.29-.95 34.6-1.24a.65.64 5.7 00.62-.5l1.92-8.57a.75.75 0 01.66-.58q13.14-1.42 23.33.14c4.93.75 1.36 8.02.44 10.56a.49.49 0 00.37.65q4.49.8 8.17 3.49a1.71 1.7-27.3 00.98.31c1.05-.02 2.27-.1 3.22-.67q9-5.42 17.83.5a1.68 1.62-27.5 00.91.27c13.23-.08 27.04 1.02 37.27 9.95 2.56 2.22 7.4 10.76 7.61 14.31.32 5.3 1.97 10.2 1.98 15.48q.04 17.69 1.95 30.42 1.42 9.45 8.4 17.96a1.38 1.36 75.1 00.81.48q10.9 1.98 16.7 11.87c8.89 15.17-16.62 23.54-26.58 25.19-25.23 4.18-54.31 4.29-78.66-4.45a.45.45 0 00-.59.32q-5.59 25.05-11.69 49.9c-3.43 14-6.41 28.69-9.81 43-9.42 39.68-18.03 79.58-27.53 119.24q-.01.06-1.63 8.56-2.47 13.07-12.2 20.86c-6.62 5.31-13.68 4.08-21.73 4.15q-31.1.27-62.21.59a1.34 1.34 0 00-.97.44l-2.58 2.86a2.03 1.99 12.4 01-.93.58l-5.74 1.71a.63.63 0 00-.45.59q-.2 9.51-2.61 18.63c-5.25 19.92-15.6 52.97-39.55 55.12-18.99 1.72-28.68-8.31-38.53-23.42-11.35-17.41-16.8-39.09-19.65-58.93-1.88-13.07-3.95-28.74-4.76-42.68q-1.91-32.39-.57-64.83c.32-7.59.24-15.3.92-22.64 1.9-20.62 3.52-41.55 7.27-61.94 2.05-11.18 3.76-23.15 6.43-33.44q4.66-17.88 11-32.96c2.86-6.81 7.81-13.49 16.24-15.42a.76.74 89 00.56-.6c1.32-7.18 9.27-17.57 17.78-13.19a.38.38 0 00.55-.25c5.88-24.97 21.34-34.15 42.54-46.33a1.25 1.19 85.3 00.56-.69q.87-2.66 2.76-4.63a1.44 1.42 20 01.96-.44l7.42-.32q.42-.02.77-.24l4.63-2.93a.94.94 0 00.44-.78c.01-2.77-1.17-10.32 2.24-11.27q7.5-2.09 15.12-3.67c3.9-.81 6.58.67 6.93 4.69a.34.33 74.1 00.48.27zm98.66-19.54q-3.93 19.35-7.15 38.83c-1.12 6.76 4.18 6.61 6.62 11.8 2.23 4.73-3.31 21.63-4.8 27.61a.58.57-82.9 00.55.72l4.61.03a.83.82-83.6 00.82-.66q1.39-6.43 3.38-12.62c5.09-15.85 19.8 12.56 23.99-14.41a.4.4 0 00-.46-.46l-2.72.5a.77.76 88.5 00-.62.66q-.38 2.97-2.51 5.04a1.35 1.32-64.9 01-.99.37c-7.63-.35-16.92-5.09-17.8-13.47-.85-8.17.88-15.66 2.14-23.43q.43-2.67 2.22-9.73 1.24-4.89 1.66-9.96a.49.48 6.5 00-.41-.51l-7.95-1.14a.45.44 7.9 00-.5.37q-.03.24-.08.46zm15.37 17.07l-1.16 11.26a.48.48 0 00.59.51l10.83-2.74a.66.66 0 00.5-.57l.91-7.46.71-3.55a.56.56 0 00-.45-.67l-10.64-1.96a.61.61 0 00-.71.52l-.58 4.66zm-116.07 15.03q.59 5.37.16 10.66 2.25 1.67 5.12.52 29.63-2.59 59.11-6.53c7.43-.99 14.71-2.78 22.07-4.41a.83.8-89.2 00.61-.61l2.92-12.16q1.17-2.91.88-6.01a.58.57-1.1 00-.55-.52q-23.87-.52-33.54.57c-15.96 1.79-31.34 3.38-46.43 9.28q-7.71 3.01-10.35 9.21zm135.72-15.84c-1.4 4.08-3.42 18.03-.12 22a.42.42 0 00.75-.25l1.09-20.03q.03-.59.35-1.1l.7-1.11a.46.45-69.4 00-.31-.69q-1.96-.29-2.46 1.18zm9.1-.46c-.05 2.16 0 2.96-.82 4.97a.38.38 0 00.32.52c4.38.39 9.12-3.01 13.05-.5a.74.74 0 00.81-.01q2.01-1.35 4.64-.47c9.23 3.11 19.47 6.37 21.98 17.26q.92 3.99 2.63 20.06c1.26 11.79 3.68 24.41 9.09 35.55a.23.23 0 00.44-.14c-2.07-12.15-4.38-24.06-5.38-36.41q-.63-7.74-1.29-15.48-.64-7.51-2.38-10.88c-4.58-8.87-15.38-12.18-24.63-13.15-7.07-.74-11.98-1.64-17.95-1.81a.5.5 0 00-.51.49zm-159.17 46.45c.06 3.38 6.52 4.9 9.1 5.87 3.33 1.27 2.34 3.61 2.31 6.3q-.06 5.25-.03 10.54a.61.61 0 00.61.61h2.02a.68.67 2.3 00.68-.62l1.23-15.32a.9.9 0 00-.62-.93c-8.36-2.64-9.58-8.14-9.33-16.62q.43-14.5 1.62-29.01a.61.6-1.9 00-.7-.65l-6.02.91a.8.79-3.9 00-.68.77q-.49 19.1-.19 38.15zm168.55-32.67c14.25 21.45 2.12 47.87-10.45 66.85q-.92 1.4.71 1.03 5.22-1.18 10.53-.84a.58.57 6.8 00.6-.47c1.4-7.76 6.21-16.33 9.24-23.83a1.1 1.1 0 012.04 0c1.89 4.67.36 16.02.06 21.4a.43.43 0 00.45.46l5.88-.16a.44.43 86.9 00.42-.48q-.81-7.65-.66-9.97 1.16-16.97.52-33.95-.13-3.41-1.26-6.93c-1.44-4.47-2.51-12.86-8.56-13.29q-4.59-.32-9.05-.61a.52.51-14.6 00-.47.79zm-4.8 4.58c-1.3-.64-6.93-2.2-5.63 1.26a.96.96 0 001.06.61l4.12-.68a.7.69-5.4 00.58-.69v-.31a.22.2 13.7 00-.13-.19zm-177.41 15.66q-2.55 9.67 5.43 14.56.45.28.4-.25l-.76-7.47.23-19.96a.12.12 0 00-.12-.12l-.28-.02a.29.29 0 00-.31.3q.12 5.36-3.34 9.26c-1.04 1.17-1.29 2.24-1.25 3.7zm156.29-7.21q.26-1.71-.54-3.29.02-1.19-.69-2.22a.66.65 60.2 00-.79-.22l-8.58 3.67a.55.55 0 00-.17.9l2.57 2.5a1.38 1.35 66.7 00.95.39q3.85-.03 7.25-1.73zm22.53-1.37c-1.52 8.28-9.73 6.46-15.75 7.04a.73.72 4.6 00-.63.53q-2.33 8.41-6.1 16.34c-3.95 8.33-11.91 6.38-19.93 3.39a.56.55 18.6 00-.72.35l-3.14 10.3a.66.65 23.2 00.31.76c7.99 4.51 13.56 10.03 20 15.8 2.42 2.16 1.56 4.48 1.48 7.32q-.02.67.52.28l2.8-1.95a1.45 1.42-11.8 00.57-.85q.56-2.38 1.88-3.18c15.99-9.7 20.24-30.72 20.62-48.2.02-1.1-.24-8.25-1.75-8.08a.2.19-87.7 00-.16.15zm-186.19 6.47a.37.37 0 00-.33-.39l-2.17-.23a.37.37 0 00-.4.45l1.73 8.19a.37.37 0 00.73-.06l.44-7.96zm70.69 11.95c-.32-.11-1-.32-1.32-.32-10.28.11-21.31.55-31.28-2.34a.48.48 0 00-.55.7q2.22 3.93 6.94 4.16 17.83.85 35.68 1.01c15.9.15 29.79-1.19 43.48-8.23a1.13 1.13 0 00.46-1.58l-2.35-3.97a.51.5 57.1 00-.72-.16q-11.35 7.89-24.94 9.04c-7.3.62-12.71 1.25-19.1 1.7-1.79.13-3.44-.65-5.42 0a1.33 1.32 45.3 01-.88-.01zm-82.27-9.34c-16.92 9.14-26.62 24.37-33.41 42.15q-3.99 10.45-3.45 21.69.03.6.42.15 7.24-8.13 16.26-14.19a1.68 1.65 84.1 00.62-.78c2.56-6.76 2.37-15.7 7.18-22.45 4.57-6.42 8.21-11.92 14.64-15.3a.77.77 0 00.4-.84l-2.21-10.22a.31.31 0 00-.45-.21zm10.847 9.21a.27.27 0 00-.367-.106l-.385.214a.27.27 0 00-.105.367l2.763 4.985a.27.27 0 00.367.106l.385-.214a.27.27 0 00.105-.367l-2.763-4.985zm45.763 10.31q-1.17 2.37-3.64 3.18a.97.96-8 00-.66.87l-.52 10.58a.48.48 0 00.48.51c10.14-.03 23.15-1.54 30.18-2q25.58-1.67 51.19-3.41a.84.83 7.4 00.73-.55q3-8.57 4.98-17.42.16-.73-.52-.45-13.74 5.54-22.91 6.6-29.1 3.34-58.36 1.54a.99.99 0 00-.95.55zm-30.902-1.728a1.22.6 73.9 00.239-1.338 1.22.6 73.9 00-.915-1.006 1.22.6 73.9 00-.238 1.338 1.22.6 73.9 00.914 1.006zm-15.738 4.788a.6.6 0 00-.89.1c-3.88 5.39-9.71 14.43-7.04 21.17a.91.89 83.4 00.69.56l2.23.37q.78.13.47-.6c-2.54-6-1.77-9.25 2.53-13.96q1.08-1.17 3.02-5.99a.82.81-58.3 00-.21-.92l-.8-.73zm27.3 13.46a.4.39 0 00.38-.37l.59-10.47a1.34 1.33 6.5 00-1.11-1.39c-3.77-.65-8.19.95-10.83 1.28q-4.29.53-8.66.75a.87.86 12.3 00-.74.47c-3.39 6.61-6.41 11.62-5.48 17.35q.08.5.44.15c7.39-7.06 16.68-7.26 25.41-7.77zM241 406.21q7.28.44 21.31.1 23.22-.56 46.44-1.35 2.78.16 5.4-.89a1.4 1.38-86.9 00.72-.65q1.15-2.21 2.02-5.25c3-10.47 5-22.29 7.37-31.16 2.16-8.06 4.47-15.92 6.24-24.12 3.81-17.72 8.47-35.22 12.07-52.99 2.35-11.6 6.78-24.6 9.05-34.08 4.12-17.18 7.81-34.44 11.72-51.67q2.33-10.27 3.88-21.66.4-2.95-.74-5.29a1.13 1.13 0 00-.7-.59q-1.32-.41-3.28-.36c-18.4.48-37.88 2.1-54.94 2.98-12.83.67-26.76 2.06-40.21 2.61-10 .4-19.94 1.14-28.1 1.92-5.2.49-6.82 5.04-7.94 9.39-3.75 14.58-6.54 25.92-11.17 43.76-5.07 19.49-9.3 37.56-15.75 59.02-4.43 14.72-7.1 28.79-11.9 45.96-4.11 14.71-7.14 30.14-11.11 45.14q-3.1 11.71-3.63 15.97-.55 4.46 3.75 4.36c22.58-.53 42.02.03 59.5-1.15zm-63.77-222.42c-9.94-.13-10.83 14.36-10.41 21.45a.28.28 0 00.4.24l3.9-1.82a.7.7 0 00.41-.62c.08-4.18.47-9.11 3.28-12.45q2.26-2.68 2.85-6.29a.44.43 5 00-.43-.51zm208.31 28.96q4.23-4.98 7.72-5.99 26.89-7.78 57.24-6.77c8.26.27 25.73 1.95 30.01 9.87q.56 1.02 1.25 2.04.29.43.45-.06 1.35-4.3-.47-8.35-2.47-5.89-8.99-7.75-17.93-5.11-35.89-2.72-7.18.96-11.84 1.32-14 1.09-27.48 5.01c-3.85 1.12-20.79 8.15-12.92 14.11a.53.52 35.7 00.75-.12q.16-.25.17-.59zM220.8 193.46c-17.71-.31-27.23 7.53-38.07 19.82-8.58 9.74-12.25 24.49-12.72 37.21-.47 12.79 6.75 18.42 15.43 25.93a.56.55 8.2 00.87-.65c-3.28-7.18-3.75-13.1-4.27-21.11-.77-11.82 3.15-18.81 6.73-29.43 1.29-3.8 2.43-9.09 5.35-11.86q5.78-5.5 14.16-12.84c3.66-3.2 8.29-4.57 12.65-6.42a.34.34 0 00-.13-.65zm-87.65 67.83q-1.13 4.16-1.66 8.45-2.56 20.96-4.87 41.94c-.13 1.25-.59 2.81-.67 4.26q-1.26 22.35-1.39 44.72a1.2 1.19-29.3 01-.18.63l-.18.29a1.84 1.79 62.1 00-.27.92q-.22 18.8.45 37.58c.43 11.96.47 24.85 1.6 35.98q1.49 14.62 4.01 29.09c4.56 26.2 9.76 47.22 28.44 66.87q.35.37.08-.05c-9.76-14.96-15.5-25.99-19.34-41.35-1.63-6.51-4.3-13.89-5.44-21.12-1.94-12.34-3.24-24.74-3.8-37.22-.38-8.56-2.79-16.39-3.15-23.03q-.52-9.68-.52-31.41c0-3.71.62-8.06.63-12.09.02-8.28-.41-17.01.78-25.2q1.89-12.92 2.54-25.95c.52-10.45 1.73-20.17 2.4-30.3q.4-6.09 1.65-11.47c5.42-23.39 9.09-42.67 17.24-59.14 1.69-3.43 4.91-5.78 7.42-8.71a1.49 1.46 68.3 00.35-.84l.32-3.87a.32.32 0 00-.45-.32c-4.32 1.92-8.72 9.87-10.93 13.95-3.7 6.8-6.12 16.05-8.92 24.28-2.55 7.47-3.89 14.92-6.14 23.11zm31.79 264.02c8.98 8.81 21.33 9.26 27.78-2.57 8.74-16.04 12.82-32.21 17.14-49.36a1.17 1.16 8.5 00-1.08-1.45q-4.97-.25-8.3-3.85a1.11 1.09 65.3 00-.9-.34c-7.23.68-13.67.81-19.45-3.5-4.25-3.17-8.6-6.09-12.93-9.12-9.18-6.42-3.73-16.84-1.66-25.9 10.09-44.32 23.95-87.5 34.07-131.8q.91-4.03 1.2-8.28a1.16 1.15-87.9 00-1.15-1.24c-6.53-.02-17.9-1.46-22.53-6.67-6.62-7.44-13.27-16.58-13.81-26.99q-.92-17.86 6.28-33.54c1.32-2.87 1.74-5.37 1.65-8.3a.64.64 0 00-.86-.58l-7.05 2.49a1.31 1.3 5.2 00-.69.57c-9.02 15.85-14.21 36.24-17.21 52.06-9.03 47.7-10.01 97.98-7.66 148.57 1.03 22.29 4.49 44.6 8.52 66.53 2.81 15.25 6.99 31.85 18.64 43.27zm147.73-115.33c-1.87.06-3.76-.07-5.67-.05-43.6.5-87.16 2.05-130.76 2.09a.65.65 0 00-.63.48q-3.96 15.62-7.72 31.3c-2.03 8.47 7.96 7.23 13.92 7.13q53.69-.92 107.38-.7c3.94.02 15.58-1 16.58-6.07q3.23-16.51 7.81-33.02a.92.92 0 00-.91-1.16zm-27.35 42.89l.49.59a.46.45 33.6 00.78-.15l.16-.48a.45.44-81.3 00-.42-.58h-.72q-.81 0-.29.62zm-73.15 10.63c2.6-.07 2.59 2.73 2.35 4.5-1.78 12.81-4.86 25.74-9.58 38-2.8 7.29-8.73 25.79-18.19 28.26q-2.7.7-4.29 1.66-.45.27.08.29c16.27.55 17.82-8.98 22.82-20.81 2.24-5.3 7.15-14.21 8.64-21.41q3.23-15.63 6.47-31.29a1.05 1.03-63.9 00-.34-1.01l-3.5-2.96a1.14 1.14 0 00-.88-.27q-5.6.65-9.97 4.24a.83.82 61.2 00-.26.9q1.06 3.08 4.15 4.27a.39.39 0 00.51-.24l1.19-3.54a.88.88 0 01.8-.59z"/><path fill="#fff" d="M363.67 91.43q.05-.22.08-.46a.45.44 7.9 01.5-.37l7.95 1.14a.49.48 6.5 01.41.51q-.42 5.07-1.66 9.96-1.79 7.06-2.22 9.73c-1.26 7.77-2.99 15.26-2.14 23.43.88 8.38 10.17 13.12 17.8 13.47a1.35 1.32-64.9 00.99-.37q2.13-2.07 2.51-5.04a.77.76 88.5 01.62-.66l2.72-.5a.4.4 0 01.46.46c-4.19 26.97-18.9-1.44-23.99 14.41q-1.99 6.19-3.38 12.62a.83.82-83.6 01-.82.66l-4.61-.03a.58.57-82.9 01-.55-.72c1.49-5.98 7.03-22.88 4.8-27.61-2.44-5.19-7.74-5.04-6.62-11.8q3.22-19.48 7.15-38.83zM390.71 109.5l-9.69-1.89a.88.86-63 00-.8.27q-.47.53-1.18.62l.58-4.66a.61.61 0 01.71-.52l10.64 1.96a.56.56 0 01.45.67l-.71 3.55zM352.96 111q-5.18-1.08-10.45-.88-14.28.53-28.52 1.52c-9.08.62-46.26 4.99-49.67 14.63a.36.35 8.5 01-.32.23l-.4.01a.15.15 0 01-.15-.21q.5-1.16-.48-2.77 2.64-6.2 10.35-9.21c15.09-5.9 30.47-7.49 46.43-9.28q9.67-1.09 33.54-.57a.58.57-1.1 01.55.52q.29 3.1-.88 6.01zM398.69 107.69q.5-1.47 2.46-1.18a.46.45-69.4 01.31.69l-.7 1.11q-.32.51-.35 1.1l-1.09 20.03a.42.42 0 01-.75.25c-3.3-3.97-1.28-17.92.12-22zM406.97 112.2c.82-2.01.77-2.81.82-4.97a.5.5 0 01.51-.49c5.97.17 10.88 1.07 17.95 1.81 9.25.97 20.05 4.28 24.63 13.15q1.74 3.37 2.38 10.88.66 7.74 1.29 15.48c1 12.35 3.31 24.26 5.38 36.41a.23.23 0 01-.44.14c-5.41-11.14-7.83-23.76-9.09-35.55q-1.71-16.07-2.63-20.06c-2.51-10.89-12.75-14.15-21.98-17.26q-2.63-.88-4.64.47a.74.74 0 01-.81.01c-3.93-2.51-8.67.89-13.05.5a.38.38 0 01-.32-.52z"/><path fill="#95989b" d="M390.71 109.5l-.91 7.46a.66.66 0 01-.5.57l-10.83 2.74a.48.48 0 01-.59-.51l1.16-11.26q.71-.09 1.18-.62a.88.86-63 01.8-.27l9.69 1.89zM352.96 111l-2.92 12.16a.83.8-89.2 01-.61.61c-7.36 1.63-14.64 3.42-22.07 4.41q-29.48 3.94-59.11 6.53l.01-.41a.57.56-85.9 00-.48-.56q-2.18-.3-4.65.45.43-5.29-.16-10.66.98 1.61.48 2.77a.15.15 0 00.15.21l.4-.01a.36.35 8.5 00.32-.23c3.41-9.64 40.59-14.01 49.67-14.63q14.24-.99 28.52-1.52 5.27-.2 10.45.88z"/><path fill="#fff" d="M257.72 159.55c-2.58-.97-9.04-2.49-9.1-5.87q-.3-19.05.19-38.15a.8.79-3.9 01.68-.77l6.02-.91a.61.6-1.9 01.7.65q-1.19 14.51-1.62 29.01c-.25 8.48.97 13.98 9.33 16.62a.9.9 0 01.62.93l-1.23 15.32a.68.67 2.3 01-.68.62h-2.02a.61.61 0 01-.61-.61q-.03-5.29.03-10.54c.03-2.69 1.02-5.03-2.31-6.3zM406.72 187.86c12.57-18.98 24.7-45.4 10.45-66.85a.52.51-14.6 01.47-.79q4.46.29 9.05.61c6.05.43 7.12 8.82 8.56 13.29q1.13 3.52 1.26 6.93.64 16.98-.52 33.95-.15 2.32.66 9.97a.44.43 86.9 01-.42.48l-5.88.16a.43.43 0 01-.45-.46c.3-5.38 1.83-16.73-.06-21.4a1.1 1.1 0 00-2.04 0c-3.03 7.5-7.84 16.07-9.24 23.83a.58.57 6.8 01-.6.47q-5.31-.34-10.53.84-1.63.37-.71-1.03zM412.37 125.59a.22.2 13.7 01.13.19v.31a.7.69-5.4 01-.58.69l-4.12.68a.96.96 0 01-1.06-.61c-1.3-3.46 4.33-1.9 5.63-1.26zM240.03 148.09q-1.6-5.47-1.13-11.3a.28.28 0 00-.47-.23q-2.22 1.99-2.85 4.92a.26.25-51.9 01-.48.06l-.14-.29c-.04-1.46.21-2.53 1.25-3.7q3.46-3.9 3.34-9.26a.29.29 0 01.31-.3l.28.02a.12.12 0 01.12.12l-.23 19.96z"/><path fill="#95989b" d="M390.71 130.75q-1.48 1.85.54 3.29-3.4 1.7-7.25 1.73a1.38 1.35 66.7 01-.95-.39l-2.57-2.5a.55.55 0 01.17-.9l8.58-3.67a.66.65 60.2 01.79.22q.71 1.03.69 2.22z"/><path fill="#fff" d="M390.71 130.75q.8 1.58.54 3.29-2.02-1.44-.54-3.29z"/><path fill="#fbfee1" d="M413.78 132.67a.2.19-87.7 01.16-.15c1.51-.17 1.77 6.98 1.75 8.08-.38 17.48-4.63 38.5-20.62 48.2q-1.32.8-1.88 3.18a1.45 1.42-11.8 01-.57.85l-2.8 1.95q-.54.39-.52-.28c.08-2.84.94-5.16-1.48-7.32-6.44-5.77-12.01-11.29-20-15.8a.66.65 23.2 01-.31-.76l3.14-10.3a.56.55 18.6 01.72-.35c8.02 2.99 15.98 4.94 19.93-3.39q3.77-7.93 6.1-16.34a.73.72 4.6 01.63-.53c6.02-.58 14.23 1.24 15.75-7.04z"/><path fill="#fff" d="M268.25 134.71q-2.87 1.15-5.12-.52 2.47-.75 4.65-.45a.57.56-85.9 01.48.56l-.01.41z"/><path fill="#95989b" d="M240.03 148.09l.76 7.47q.05.53-.4.25-7.98-4.89-5.43-14.56l.14.29a.26.25-51.9 00.48-.06q.63-2.93 2.85-4.92a.28.28 0 01.47.23q-.47 5.83 1.13 11.3z"/><path fill="#fff" d="M227.59 139.14l-.44 7.96a.37.37 0 01-.73.06l-1.73-8.19a.37.37 0 01.4-.45l2.17.23a.37.37 0 01.33.39z"/><path fill="#95989b" d="M299.16 151.1c1.98-.65 3.63.13 5.42 0 6.39-.45 11.8-1.08 19.1-1.7q13.59-1.15 24.94-9.04a.51.5 57.1 01.72.16l2.35 3.97a1.13 1.13 0 01-.46 1.58c-13.69 7.04-27.58 8.38-43.48 8.23q-17.85-.16-35.68-1.01-4.72-.23-6.94-4.16a.48.48 0 01.55-.7c9.97 2.89 21 2.45 31.28 2.34.32 0 1 .21 1.32.32a1.33 1.32 45.3 00.88.01z"/><path fill="#fff" d="M182.6 183.9c6.79-17.78 16.49-33.01 33.41-42.15a.31.31 0 01.45.21l2.21 10.22a.77.77 0 01-.4.84c-6.43 3.38-10.07 8.88-14.64 15.3-4.81 6.75-4.62 15.69-7.18 22.45a1.68 1.65 84.1 01-.62.78q-9.02 6.06-16.26 14.19-.39.45-.42-.15-.54-11.24 3.45-21.69z"/><rect fill="#95989b" x="-.49" y="-3.12" transform="rotate(-29 411.043 -363.593)" width=".98" height="6.24" rx=".27"/><path fill="#fbfee1" d="M272.62 161.27a.99.99 0 01.95-.55q29.26 1.8 58.36-1.54 9.17-1.06 22.91-6.6.68-.28.52.45-1.98 8.85-4.98 17.42a.84.83 7.4 01-.73.55q-25.61 1.74-51.19 3.41c-7.03.46-20.04 1.97-30.18 2a.48.48 0 01-.48-.51l.52-10.58a.97.96-8 01.66-.87q2.47-.81 3.64-3.18z"/><ellipse fill="#fff" transform="rotate(73.9 15.417 239.637)" rx="1.22" ry=".6"/><path fill="#fff" d="M225.98 164.33l.8.73a.82.81-58.3 01.21.92q-1.94 4.82-3.02 5.99c-4.3 4.71-5.07 7.96-2.53 13.96q.31.73-.47.6l-2.23-.37a.91.89 83.4 01-.69-.56c-2.67-6.74 3.16-15.78 7.04-21.17a.6.6 0 01.89-.1z"/><path fill="#fbfee1" d="M253.28 177.79c-8.73.51-18.02.71-25.41 7.77q-.36.35-.44-.15c-.93-5.73 2.09-10.74 5.48-17.35a.87.86 12.3 01.74-.47q4.37-.22 8.66-.75c2.64-.33 7.06-1.93 10.83-1.28a1.34 1.33 6.5 011.11 1.39l-.59 10.47a.4.39 0 01-.38.37z"/><path fill="#fff" d="M308.75 404.96q.66-1.75 2.3-8.7 5.87-24.82 8.9-38.42c3.07-13.72 7.7-28.81 10.35-43.72a.42.42 0 00-.72-.37q-43.63 45.08-87.54 90.29-.54.55-1.04 2.17c-17.48 1.18-36.92.62-59.5 1.15q-4.3.1-3.75-4.36.53-4.26 3.63-15.97c3.97-15 7-30.43 11.11-45.14 4.8-17.17 7.47-31.24 11.9-45.96 6.45-21.46 10.68-39.53 15.75-59.02 4.63-17.84 7.42-29.18 11.17-43.76 1.12-4.35 2.74-8.9 7.94-9.39 8.16-.78 18.1-1.52 28.1-1.92 13.45-.55 27.38-1.94 40.21-2.61 17.06-.88 36.54-2.5 54.94-2.98q1.96-.05 3.28.36a1.13 1.13 0 01.7.59q1.14 2.34.74 5.29-1.55 11.39-3.88 21.66c-3.91 17.23-7.6 34.49-11.72 51.67-2.27 9.48-6.7 22.48-9.05 34.08-3.6 17.77-8.26 35.27-12.07 52.99-1.77 8.2-4.08 16.06-6.24 24.12-2.37 8.87-4.37 20.69-7.37 31.16q-.87 3.04-2.02 5.25a1.4 1.38-86.9 01-.72.65q-2.62 1.05-5.4.89zm-101.32-78.31c47.73-48.31 95.46-96.6 143.13-144.99a.69.69 0 00-.53-1.18q-12.08.65-24.52 1.82c-16.22 1.53-30 .79-44.51 2.22q-19.02 1.88-36.5 1.95-2.18 0-4.55 1.07a1.21 1.19-2.7 00-.62.67q-1.64 4.55-5.32 18.05-6.89 25.29-10.38 39.02c-4.01 15.78-8.66 31.51-12.23 47.52-2.87 12.87-7.82 24.84-10.63 37.87a.82.82 0 001.37.76c1.64-1.61 3.68-3.15 5.29-4.78zm-22.47 76.65c15.38-17.87 31.95-35.37 48.71-51.88q3.6-3.54 7.77-8.23c7.55-8.48 17.52-17.51 25.45-26.21 27.19-29.8 57.71-56.55 83.41-87.68q2.11-2.57 2.91-5.81 3.68-14.91 6.57-30.24a.38.38 0 00-.67-.3q-1.81 2.34-4.08 4.58-77.26 76.13-153.84 152.96c-4.86 4.88-7.31 8.01-8.72 14.25q-3.54 15.68-8.69 35.38-.36 1.38-.23 2.73a.81.8 62.5 001.41.45z"/><path fill="#95989b" d="M350.56 181.66c-47.67 48.39-95.4 96.68-143.13 144.99-1.61 1.63-3.65 3.17-5.29 4.78a.82.82 0 01-1.37-.76c2.81-13.03 7.76-25 10.63-37.87 3.57-16.01 8.22-31.74 12.23-47.52q3.49-13.73 10.38-39.02 3.68-13.5 5.32-18.05a1.21 1.19-2.7 01.62-.67q2.37-1.07 4.55-1.07 17.48-.07 36.5-1.95c14.51-1.43 28.29-.69 44.51-2.22q12.44-1.17 24.52-1.82a.69.69 0 01.53 1.18z"/><ellipse fill="#fff" transform="rotate(18.8 -543.891 144.375)" rx="1.05" ry=".73"/><path fill="#95989b" d="M166.82 205.24c-.42-7.09.47-21.58 10.41-21.45a.44.43 5 01.43.51q-.59 3.61-2.85 6.29c-2.81 3.34-3.2 8.27-3.28 12.45a.7.7 0 01-.41.62l-3.9 1.82a.28.28 0 01-.4-.24z"/><path fill="#fff" d="M481.74 203.49q-4.87-5.26-10.31-6.42-15.63-3.32-34.74-1.82c-1.05.08-1.73-.15-2.71-.4a1.78 1.76-45.3 00-.96.01q-7 2.06-17.51 3.17c-6.82.73-27.59 4.91-31.25 12.35a1.07 1.06 45.9 00-.01.93q.41.91 1.29 1.44-.01.34-.17.59a.53.52 35.7 01-.75.12c-7.87-5.96 9.07-12.99 12.92-14.11q13.48-3.92 27.48-5.01 4.66-.36 11.84-1.32 17.96-2.39 35.89 2.72 6.52 1.86 8.99 7.75z"/><path fill="#95989b" d="M233.67 351.42c-16.76 16.51-33.33 34.01-48.71 51.88a.81.8 62.5 01-1.41-.45q-.13-1.35.23-2.73 5.15-19.7 8.69-35.38c1.41-6.24 3.86-9.37 8.72-14.25q76.58-76.83 153.84-152.96 2.27-2.24 4.08-4.58a.38.38 0 01.67.3q-2.89 15.33-6.57 30.24-.8 3.24-2.91 5.81c-25.7 31.13-56.22 57.88-83.41 87.68-7.93 8.7-17.9 17.73-25.45 26.21q-4.17 4.69-7.77 8.23zM220.8 193.46a.34.34 0 01.13.65c-4.36 1.85-8.99 3.22-12.65 6.42q-8.38 7.34-14.16 12.84c-2.92 2.77-4.06 8.06-5.35 11.86-3.58 10.62-7.5 17.61-6.73 29.43.52 8.01.99 13.93 4.27 21.11a.56.55 8.2 01-.87.65c-8.68-7.51-15.9-13.14-15.43-25.93.47-12.72 4.14-27.47 12.72-37.21 10.84-12.29 20.36-20.13 38.07-19.82zm-41.99 71.86l.25-.36a.41.38 59.6 00.06-.27q-3.66-27.12 10.63-50.23 6.21-10.04 13-14.72 1.69-1.15 8.72-3.57c.08-.03.26-.29.26-.38a.22.21-4.2 00-.26-.22q-11.44 2.51-19.66 10.52c-3.14 3.06-5.18 7.2-7.5 11.08-7.73 12.91-14.91 35.64-5.85 48.72q.3.42.29-.1v-.26a.4.34 66.3 01.06-.21zM481.74 203.49q1.82 4.05.47 8.35-.16.49-.45.06-.69-1.02-1.25-2.04c-4.28-7.92-21.75-9.6-30.01-9.87q-30.35-1.01-57.24 6.77-3.49 1.01-7.72 5.99-.88-.53-1.29-1.44a1.07 1.06 45.9 01.01-.93c3.66-7.44 24.43-11.62 31.25-12.35q10.51-1.11 17.51-3.17a1.78 1.76-45.3 01.96-.01c.98.25 1.66.48 2.71.4q19.11-1.5 34.74 1.82 5.44 1.16 10.31 6.42z"/><path d="M178.75 265.53v.26q.01.52-.29.1c-9.06-13.08-1.88-35.81 5.85-48.72 2.32-3.88 4.36-8.02 7.5-11.08q8.22-8.01 19.66-10.52a.22.21-4.2 01.26.22c0 .09-.18.35-.26.38q-7.03 2.42-8.72 3.57-6.79 4.68-13 14.72-14.29 23.11-10.63 50.23a.41.38 59.6 01-.06.27l-.25.36a.4.34 66.3 00-.06.21z"/><path fill="#95989b" d="M133.15 261.29c2.25-8.19 3.59-15.64 6.14-23.11 2.8-8.23 5.22-17.48 8.92-24.28 2.21-4.08 6.61-12.03 10.93-13.95a.32.32 0 01.45.32l-.32 3.87a1.49 1.46 68.3 01-.35.84c-2.51 2.93-5.73 5.28-7.42 8.71-8.15 16.47-11.82 35.75-17.24 59.14q-1.25 5.38-1.65 11.47c-.67 10.13-1.88 19.85-2.4 30.3q-.65 13.03-2.54 25.95c-1.19 8.19-.76 16.92-.78 25.2-.01 4.03-.63 8.38-.63 12.09q0 21.73.52 31.41c.36 6.64 2.77 14.47 3.15 23.03.56 12.48 1.86 24.88 3.8 37.22 1.14 7.23 3.81 14.61 5.44 21.12 3.84 15.36 9.58 26.39 19.34 41.35q.27.42-.08.05c-18.68-19.65-23.88-40.67-28.44-66.87q-2.52-14.47-4.01-29.09c-1.13-11.13-1.17-24.02-1.6-35.98q-.67-18.78-.45-37.58a1.84 1.79 62.1 01.27-.92l.18-.29a1.2 1.19-29.3 00.18-.63q.13-22.37 1.39-44.72c.08-1.45.54-3.01.67-4.26q2.31-20.98 4.87-41.94.53-4.29 1.66-8.45z"/><path fill="#fbfee1" d="M164.94 525.31c-11.65-11.42-15.83-28.02-18.64-43.27-4.03-21.93-7.49-44.24-8.52-66.53-2.35-50.59-1.37-100.87 7.66-148.57 3-15.82 8.19-36.21 17.21-52.06a1.31 1.3 5.2 01.69-.57l7.05-2.49a.64.64 0 01.86.58c.09 2.93-.33 5.43-1.65 8.3q-7.2 15.68-6.28 33.54c.54 10.41 7.19 19.55 13.81 26.99 4.63 5.21 16 6.65 22.53 6.67a1.16 1.15-87.9 011.15 1.24q-.29 4.25-1.2 8.28c-10.12 44.3-23.98 87.48-34.07 131.8-2.07 9.06-7.52 19.48 1.66 25.9 4.33 3.03 8.68 5.95 12.93 9.12 5.78 4.31 12.22 4.18 19.45 3.5a1.11 1.09 65.3 01.9.34q3.33 3.6 8.3 3.85a1.17 1.16 8.5 011.08 1.45c-4.32 17.15-8.4 33.32-17.14 49.36-6.45 11.83-18.8 11.38-27.78 2.57z"/><path fill="#95989b" d="M308.75 404.96q-23.22.79-46.44 1.35-14.03.34-21.31-.1.5-1.62 1.04-2.17 43.91-45.21 87.54-90.29a.42.42 0 01.72.37c-2.65 14.91-7.28 30-10.35 43.72q-3.03 13.6-8.9 38.42-1.64 6.95-2.3 8.7z"/><path fill="#fff" d="M415.13 338.94c-2.48.66-4.8-4.27-3.55-5.17a.48.47 54.1 01.66.11l3.15 4.34a.47.46 65 01-.26.72z"/><path fill="#95989b" d="M307 409.93c1.91-.02 3.8.11 5.67.05a.92.92 0 01.91 1.16q-4.58 16.51-7.81 33.02c-1 5.07-12.64 6.09-16.58 6.07q-53.69-.22-107.38.7c-5.96.1-15.95 1.34-13.92-7.13q3.76-15.68 7.72-31.3a.65.65 0 01.63-.48c43.6-.04 87.16-1.59 130.76-2.09zm-88.91 11.24q-5.25 5.65-2.28 13.3.72 1.85 2.23 1.28 11.65 10.81 25.77 2.79c7.75-4.41 8.34-15.63 1.54-20.76-3.9-2.93-11.45-3.43-16.03-2.69q-5.66.91-11.23 6.08z"/><path d="M218.04 435.75q-4.3-7.16.05-14.58 5.57-5.17 11.23-6.08c4.58-.74 12.13-.24 16.03 2.69 6.8 5.13 6.21 16.35-1.54 20.76q-14.12 8.02-25.77-2.79zm3.37-3.11c3.01 5.63 11.81 5.3 17.08 3.88q10.54-2.86 7.52-12.61c-3.28-10.56-32.17-5.4-24.6 8.73z"/><path fill="#95989b" d="M221.41 432.64c-7.57-14.13 21.32-19.29 24.6-8.73q3.02 9.75-7.52 12.61c-5.27 1.42-14.07 1.75-17.08-3.88z"/><path fill="#fff" d="M218.09 421.17q-4.35 7.42-.05 14.58-1.51.57-2.23-1.28-2.97-7.65 2.28-13.3z"/><path fill="#95989b" d="M285.61 452.25h.72a.45.44-81.3 01.42.58l-.16.48a.46.45 33.6 01-.78.15l-.49-.59q-.52-.62.29-.62z"/><rect fill="#95989b" x="-.49" y="-7.15" transform="rotate(-7.7 3626.92 -2432.913)" width=".98" height="14.3" rx=".47"/><path fill="#95989b" d="M214.52 468c.24-1.77.25-4.57-2.35-4.5a.88.88 0 00-.8.59l-1.19 3.54a.39.39 0 01-.51.24q-3.09-1.19-4.15-4.27a.83.82 61.2 01.26-.9q4.37-3.59 9.97-4.24a1.14 1.14 0 01.88.27l3.5 2.96a1.05 1.03-63.9 01.34 1.01q-3.24 15.66-6.47 31.29c-1.49 7.2-6.4 16.11-8.64 21.41-5 11.83-6.55 21.36-22.82 20.81q-.53-.02-.08-.29 1.59-.96 4.29-1.66c9.46-2.47 15.39-20.97 18.19-28.26 4.72-12.26 7.8-25.19 9.58-38z"/></svg>