<svg xmlns="http://www.w3.org/2000/svg" viewBox="0 0 591 591"><g stroke-width="2" fill="none"><path stroke="#111010" vector-effect="non-scaling-stroke" d="M589.81 0l.19.29"/><path stroke="#4b4c4e" vector-effect="non-scaling-stroke" d="M590 .29l.29 3.71"/><path stroke="#111010" vector-effect="non-scaling-stroke" d="M590.29 4v1"/><path stroke="#4b4c4e" vector-effect="non-scaling-stroke" d="M590.29 5l-.04 584.71"/><path stroke="#535454" vector-effect="non-scaling-stroke" d="M590.25 589.71l-.46.32a1.18 1.16 27.1 01-.67.21q-292.09.02-584.18-.04-2.49 0-4.94-.26"/><path stroke="#7e7f71" vector-effect="non-scaling-stroke" d="M585.49 5.52a.27.27 0 00-.27-.27H5.52a.27.27 0 00-.27.27v579.7a.27.27 0 00.27.27h579.7a.27.27 0 00.27-.27V5.52"/><path stroke="#636463" vector-effect="non-scaling-stroke" d="M591 590.06l-.29-.31"/><path stroke="#5b5c5d" vector-effect="non-scaling-stroke" d="M590.71 589.75l-.02-584.56a.15.15 0 00-.13-.15l-.27-.04M590.29 4q.96-1.72.27-3.58a.26.26 0 00-.29-.17l-.27.04"/><path stroke="#9da0a1" vector-effect="non-scaling-stroke" d="M590.71 589.75l-.46-.04"/><path stroke="#fcf3ca" vector-effect="non-scaling-stroke" d="M15.94 46.19c-1.16 17.57-.44 36.03.14 51.5a.66.65-17.8 001.02.52q2.65-1.8 4.8-4.06 25.44-26.8 51.49-53.02 4.94-4.97 8.31-9.41 1.7-2.23-1.1-2.22-22.09.04-43.46.77c-7.41.26-12.86 2.82-17.99 7.69-2.64 2.52-2.98 4.72-3.21 8.23"/><path stroke="#8e8f81" vector-effect="non-scaling-stroke" d="M217.3 307.63q-9.4 7.66-21.31 10c-3.75.74-11.19 1.13-13.34 4.72q-4.7 7.82-7.18 14.64c-.91 2.5-2.94 11.48-.93 13.98q5.48 6.8 12.61 11.99a.52.51 34.7 01.13.7c-5.47 8.36-11.29 17.08-14.13 26.73-2.03 6.88 6.25 21.58 10.8 26.02a1.82 1.75-75.3 01.47.84c1.29 5.46 2.21 11.27 5.39 15.87q2.76 4 6.21 7.48c1.38 1.38.2 2.63.2 4.07q-.01 6.81 3.64 12.34c4.31 6.53 6.47 5.01 12.98 3.03a.53.53 0 01.65.33c2.56 6.83 5.76 13.54 7.18 20.67a1.2 1.19-16.1 01-.75 1.35q-38.85 14.55-77.89 27.96-4.29 1.48-8.33 3.23c-15.92 6.91-28.18 11.21-26.85 31.19 1.23 18.57 24.14 32.79 41.59 30.63q8.49-1.05 18.55-4.19 22.11-6.9 43.6-15.59c37.37-15.12 74.55-30.73 112.4-44.64 17.13-6.28 42.93-16.49 66.41-25.5q33.48-12.85 66.26-27.38 15.27-6.76 18.19-8.32c12.9-6.91 30.83-20.62 34.15-35.77 3.68-16.8-3.87-38.06-22.04-42.67-16.94-4.29-32.92 2.66-47.74 10.17-30.54 15.48-60.14 32.66-90.08 49.18a.46.46 0 01-.68-.4q0-11.29-1.18-22.49a.85.83 69.7 01.34-.77c6.01-4.29 6.01-10.22 4.73-17.05-1.09-5.85-3.78-9.55-9.24-11.52a.98.97-85.3 01-.62-.74q-1.33-7.12-3.98-13.85a.54.53 64 01.22-.66l14.92-8.83a2.13 2.11 40 011.82-.15c5.49 2.12 10.67 3.13 16.4.94 9.78-3.75 23.26-14.9 22.1-26.68q-.69-6.96-4.04-15.24a.57.56 64.7 01.25-.7q16.9-9.33 30.31-23.02c6.23-6.37 10.37-13.49 15.05-21.47 13.63-23.26 14.92-48 8.99-74.33a.4.4 0 01.39-.49q2.05-.02 4.07.25c3.51.48 5.85-3.22 7.76-5.81 2.57-3.5 3.21-7.9 4.47-12.07a1.25 1.22-5.8 01.6-.72l6.87-3.6a.91.91 0 01.89.02c8.43 4.82 14.7 4.53 17.63-5.97a.44.44 0 01.53-.32l3.78.86a1.11 1.09 82.1 01.74.57c2.2 4.3 5.21 3.2 9.25 2.78a1.84 1.72 53.2 01.95.17c2.84 1.34 6.09 3.34 8.54-.19a1.47 1.45 60.8 00.25-.91c-.22-3.73.02-10.58-3.15-13.09-4.51-3.58-8.87-8.78-14.49-10.25-2.96-.78-5.16-3.31-7.96-4.74a1.66 1.65 55 00-.95-.17q-2.7.35-3.43.72-10.18 5.18-21.3 8.18a.56.56 0 01-.67-.34c-4.5-11.59-14.68-8.7-20.58-.51a.56.55 36.7 01-.78.11q-5.91-4.47-13.33-3.67a.75.74 72.4 01-.74-.39q-3.68-6.79-10.19-12.32-36.58-31.07-84.78-28.49-8.48.46-16.94 1.18c-6.65.57-14.4 2.32-21.74 3.02a1.81 1.78 54.2 01-.94-.16c-19.29-8.96-41.69 3.72-53.58 18.81-5.48 6.95-8.6 10.4-16.5 12.14a.89.89 0 01-1-.5c-4.51-9.85-15.59-10.1-20.41-.16-4.54 9.39 7.37 19.19 15.84 13.51a.68.68 0 01.98.9c-1.97 3.53-4.54 6.76-6.07 10.17q-5 11.18-6.49 23.5a.47.46 8.7 01-.55.4c-4.47-.83-7.85.21-12.18.35a1.55 1.52-64.5 00-.93.34l-2.7 2.16a1.85 1.8 22.3 01-.99.4q-5.1.46-6.68 5.87-.35 1.19-1.8 1.04a1.08 1.08 0 00-.86.3c-2.71 2.62-3.18 8.31-3.57 11.81a.9.9 0 01-.52.71q-12.95 5.74-21.54 14.86c-1.26 1.34-3.53 5.94-2.16 7.95 2.17 3.17 5.76 2.42 9.21 2.81a.42.41 12.2 01.35.53c-1.5 4.61-3.67 16.52 4.56 16a1.47 1.46-66.6 00.85-.34l5.46-4.66q.45-.38.33.19c-1.99 9.78 2.16 13.44 8.44 19.59 5.31 5.2 7.43 14.46 11.24 20.65 5.89 9.56 12.37 14.22 21.3 20.68 2.58 1.86 5.99.44 8.88-.01q.51-.07.11.25"/><path stroke="#fdfff1" vector-effect="non-scaling-stroke" d="M515.79 146.292a1.94.98-37 00-2.14.385 1.94.98-37 00-.96 1.95 1.94.98-37 002.14-.384 1.94.98-37 00.96-1.95"/><path stroke="#636463" vector-effect="non-scaling-stroke" d="M320.25 110.21l-13.5 1.08"/><path stroke="#5b5c5d" vector-effect="non-scaling-stroke" d="M306.75 111.29l-5 .67"/><path stroke="#636463" vector-effect="non-scaling-stroke" d="M301.75 111.96l-3.71.67a.38.37 67.9 00-.24.58q3.53 5.32 8.36 9.46a1.92 1.9-79.5 01.57.84c2.47 7.23 1.97 13.63 2.14 20.7q.15 6.89 6.56 10.44"/><path stroke="#5b5c5d" vector-effect="non-scaling-stroke" d="M315.43 154.65q1.26 3.08 4.61 4.35"/><path stroke="#636463" vector-effect="non-scaling-stroke" d="M320.04 159q1.99-.36 3.87-1.13 6.61-2.69 13.84-4.43"/><path stroke="#5b5c5d" vector-effect="non-scaling-stroke" d="M337.75 153.44q5.2-.05 10.44-.12c8.03-.11 13.74 4.96 22.06 3.19q5.77-1.23 11.11-2.72a.78.78 0 00.57-.8q-.61-12.17-9.08-20.67a.39.39 0 01-.04-.5q.12-.18.19-.11"/><path stroke="#636463" vector-effect="non-scaling-stroke" d="M373 131.71c8.24.34 11.72 3.61 17.64 7.55a.52.52 0 00.8-.54c-1.56-7.73-5.68-14.92-12.79-18.57"/><path stroke="#5b5c5d" vector-effect="non-scaling-stroke" d="M378.65 120.15c-9.47-5.76-25.62-8.43-36.56-9.4-7.3-.65-14.2-1.64-21.84-.54"/><path stroke="#9da0a1" vector-effect="non-scaling-stroke" d="M378.65 120.15q-.5 2.18 1.27 3.16c3.7 2.07 7.05 6 7.87 9.62q.69 3.04-2 1.47-5.56-3.26-11.93-4.18a.89.86 27.5 00-.71.21q-.75.65-.15 1.28M337.75 153.44q-8.55.11-16.44 3.49c-.98.42-1.29 1.07-1.27 2.07M315.43 154.65q-1.09-3.35-2.91-6.45c-4.66-7.9-1.36-16.93-3.66-25.68a1.28 1.28 0 00-.57-.77q-4.21-2.51-6.73-6.8a.75.74-41.9 01.05-.85q.74-.95.14-2.14M306.75 111.29l.28 1.07a.64.63 78.4 00.69.46c1.39-.18 13.48-1.45 13.57-2a.49.48-83.4 00-.44-.56l-.6-.05"/><path stroke="#636463" vector-effect="non-scaling-stroke" d="M251.75 118.46q-7.06 4.96-12.62 11.48c-7.15 8.37-10.84 12.6-21.09 14.36a.59.59 0 00-.06 1.14c13.82 3.89 21.76-5.98 27.81-16.88q.49-.9 3.21-2.85"/><path stroke="#5b5c5d" vector-effect="non-scaling-stroke" d="M249 125.71q1.34-.56 2.75-.17"/><path stroke="#636463" vector-effect="non-scaling-stroke" d="M251.75 125.54l-2.47 4.7a.4.4 0 00.67.42q5.21-7.1 12.3-11.04"/><path stroke="#5b5c5d" vector-effect="non-scaling-stroke" d="M262.25 119.62q14.16-7.54 29.29-3.22a.43.42-24.4 00.3-.79q-5.74-2.68-11.39-4.72c-8.55-3.09-22.04 2.72-28.7 7.57"/><path stroke="#9da0a1" vector-effect="non-scaling-stroke" d="M262.25 119.62q-5.06.43-8.31 4.34c-.65.78-1.38 1.05-2.19 1.58M249 125.71c-.32-3.67 4.75-5.07 2.75-7.25"/><path stroke="#5b5c5d" vector-effect="non-scaling-stroke" d="M254.21 134.25l-.71.96"/><path stroke="#636463" vector-effect="non-scaling-stroke" d="M253.5 135.21q-4.12 5.21-1.39 10.06 1.54 2.73 3.75 1.17a1.49 1.48 81.1 00.56-.77q1.04-3.41 3.83-5.63"/><path stroke="#90908f" vector-effect="non-scaling-stroke" d="M260.25 140.04q5.39-5.52 10.79-7.02c12.28-3.39 21.84-4.96 32.31 2.95q.71.54.61-.35l-1-8.63a1.59 1.58-72.6 00-.52-1c-4.81-4.24-14.21-5.83-20.22-6.07-11.51-.48-21.49 4.98-28.01 14.33"/><path stroke="#d2d3d3" vector-effect="non-scaling-stroke" d="M260.25 140.04l-4.21-2.54"/><path stroke="#cacccd" vector-effect="non-scaling-stroke" d="M256.04 137.5l-1.83-3.25"/><path stroke="#9da0a1" vector-effect="non-scaling-stroke" d="M256.04 137.5l-1.29 6.43a.58.57-82.2 01-.61.47c-2.36-.2-.71-7.17-.15-8.65a.4.4 0 00-.18-.5q-.15-.08-.31-.04"/><path stroke="#5b5c5d" vector-effect="non-scaling-stroke" d="M201.11 143.12q3.79 6.61 10.33 2.16"/><path stroke="#90908f" vector-effect="non-scaling-stroke" d="M211.44 145.28c7.3-10.09-10.91-17.3-10.33-2.16"/><path stroke="#cacccd" vector-effect="non-scaling-stroke" d="M211.44 145.28l.46-4.19a.64.64 0 00-1.06-.55c-2.92 2.63-5.29.96-8.49.3a.32.32 0 00-.38.36q.16 1.01-.86 1.92"/><path stroke="#90908f" vector-effect="non-scaling-stroke" d="M292.24 135.55c-8.04-.78-19.34.81-25.25 5.47q-.49.39.11.22 12.37-3.54 25.14-5.05a.32.32 0 000-.64M289.256 140.983a1.31 1.31 0 00-1.143-1.458l-.12-.014a1.31 1.31 0 00-1.458 1.143l-1.27 10.503a1.31 1.31 0 001.143 1.458l.119.014a1.31 1.31 0 001.458-1.143l1.27-10.503M263.92 148.19c-2.2 8.39 8.07 13.54 13.98 7.98 1.51-1.42 2.55-1.65 4.34-2.41a.84.83-12.1 00.52-.8q-.16-6.22 1.14-12.26a.35.35 0 00-.43-.41c-6.33 1.71-12.64 2.08-16.82 4.31q-2.08 1.1-2.73 3.59M478.92 149.81c6.39.03 5.9 10.02 15.16 4.36a.29.28 50.2 00.04-.46l-10.01-8.86a.96.95-29.5 00-.84-.23q-1.51.32-2.87 1.02c-3.66 1.86-8.21 4.03-12.22 4.93q-3.79.86-7.45 2.2c-3.45 1.26-7.17 6.07-7.2 9.79-.03 3.19 2.94 4.64 5.78 4.39a1.28 1.28 0 00.84-.41c3.03-3.25 11.7 1.42 15.93 3.4a1.5 1.47 51.1 00.93.11c3.53-.72 7.24-6.66 2-7.87-2.98-.68-12.88-3.85-13.42-6.81a.61.61 0 01.61-.72q6.66.08 12.86 2.39a.49.49 0 00.65-.56l-1.31-6.04a.53.52-5.8 01.52-.63"/><path stroke="#5b5c5d" vector-effect="non-scaling-stroke" d="M210.25 184.29c1.81-2.1 5.93-6.38 9.03-4.91q2.11 1.01 1.01 3.08l-1.5 2.79"/><path stroke="#636463" vector-effect="non-scaling-stroke" d="M218.79 185.25l-2.5 4.28q-.26.44.24.32c6-1.53 10.3-4.4 13.52-9.8 3.22-5.4 6.81-8.34 12.81-13a1.71 1.7 79.9 00.59-.85l3.82-11.82a1.21 1.18 41.1 00-.07-.88l-3.07-6.31a.41.41 0 00-.58-.17q-6.17 3.65-13.02 5.7c-3.8 1.14-8.19.77-12.42 1.54a.97.96 7.2 00-.7.54c-5.7 12.07-10.51 23.09-10.93 36.03a.47.46 3.9 00.43.48q.33.02.39-.3.83-3.98 2.95-6.72"/><path stroke="#9da0a1" vector-effect="non-scaling-stroke" d="M218.79 185.25c2.54 2.4 4.83-.78 7.18-1.83a1.49 1.47-89.2 00.7-.69q4.97-10.33 14.45-16.89a1.42 1.42 0 00.56-.78q1.09-3.69 3.05-8.34 1.7-4.01-2.07-6.24a1.05 1.01 49.9 00-.89-.09q-6.39 2.34-12.94 4.18c-3.54 1-6.92.58-10.62.81a.68.68 0 00-.62.53c-.25 1.04-.27 1.8-.84 2.78-1.52 2.61-1.73 5.5-2.92 7.97-1.84 3.85-4.46 8.48-4.11 12.83a1.43 1.37 59.4 01-.19.81q-1.01 1.67-1.25 3.61a.38.38 0 00.39.43l1.58-.05"/><path stroke="#5b5c5d" vector-effect="non-scaling-stroke" d="M436.46 159.25l-1.96 3.32q-.25.43-.43-.04l-.78-2.03"/><path stroke="#636463" vector-effect="non-scaling-stroke" d="M433.29 160.5q.04-3.43 1.09-6.7a.6.59-67.6 00-.29-.71c-7.71-4.04-14.42-.25-22.01 1.12q-6.16 1.11-12.33 2.08"/><path stroke="#5b5c5d" vector-effect="non-scaling-stroke" d="M399.75 156.29q-10.68.76-21 3.67"/><path stroke="#636463" vector-effect="non-scaling-stroke" d="M378.75 159.96q-11.27 2.93-25 1.54-11.04-1.12-15.04 9.5"/><path stroke="#5b5c5d" vector-effect="non-scaling-stroke" d="M338.71 171l-1.36 2.02q-.26.38-.23-.08l.28-3.88"/><path stroke="#636463" vector-effect="non-scaling-stroke" d="M337.4 169.06q1.23-4.31 3.95-7.47a.41.41 0 00-.3-.68q-6.96-.16-12.8 2.88"/><path stroke="#5b5c5d" vector-effect="non-scaling-stroke" d="M328.25 163.79l-3.51 2.02a.62.61 65.8 00-.27.73l1.24 3.71"/><path stroke="#636463" vector-effect="non-scaling-stroke" d="M325.71 170.25q4.52 15.82-6.11 27.32c-1.69 1.83-3.94 3.41-5.97 5.13-3.51 2.97-4.02 7.6-6.35 11.41q-5 8.15-14.01 11.78a1.6 1.56 4.7 00-.74.61c-6.56 10.35-12.53 18.62-26.73 13.02a.94.93-51.4 00-.87.1q-4.71 3.28-10.35 4.29a.75.74-88.8 00-.59.57q-1.32 5.93-.74 11.81"/><path stroke="#5b5c5d" vector-effect="non-scaling-stroke" d="M253.25 256.29q-.07 4.07 1.34 8.08a.46.45 67.6 00.62.26c4.71-2.15 11.46-5.71 15.42-1.5a.77.77 0 00.81.2q5.31-1.84 10.67-3.39c12.04-3.51 26.36-2.66 38.64-.73"/><path stroke="#636463" vector-effect="non-scaling-stroke" d="M320.75 259.21q9.85 1.86 18.38 7.13a.49.49 0 00.67-.15q9.68-14.46 11.08-31.94.06-.7-.39-.16c-6.14 7.5-12.77 13.95-21.49 17.95"/><path stroke="#5b5c5d" vector-effect="non-scaling-stroke" d="M329 252.04q-1.52.85-2.79-.04"/><path stroke="#636463" vector-effect="non-scaling-stroke" d="M326.21 252c4.66-8.66 10.03-17.23 13.97-26.23 1.88-4.29 5.59-10.54 2.94-14.51q-5.9-8.86-4.37-19.72"/><path stroke="#5b5c5d" vector-effect="non-scaling-stroke" d="M338.75 191.54q.24-.56.68-.8a.62.6-33.5 01.79.15l1.28 1.65"/><path stroke="#636463" vector-effect="non-scaling-stroke" d="M341.5 192.54q4.65 9.55 14.99 7.19c13.73-3.13 24.04-9.03 36.95-17.95q15.01-10.38 30.31-20.32"/><path stroke="#5b5c5d" vector-effect="non-scaling-stroke" d="M423.75 161.46l3.23-2.47q.42-.32.48.2c.11.9-13.92 19.04-15.24 20.81q-1.32 1.76.85 1.38l17.98-3.14a1.17 1.17 0 00.96-1.3c-.23-1.78 0-8.77 2.7-9.19"/><path stroke="#636463" vector-effect="non-scaling-stroke" d="M434.71 167.75q-.26 4.16.58 8.25"/><path stroke="#5b5c5d" vector-effect="non-scaling-stroke" d="M435.29 176q.21 3.12 2.19 5.42"/><path stroke="#90908f" vector-effect="non-scaling-stroke" d="M437.48 181.42q3.19 4.62 8.27 6.79"/><path stroke="#5b5c5d" vector-effect="non-scaling-stroke" d="M445.75 188.21h1.75"/><path stroke="#90908f" vector-effect="non-scaling-stroke" d="M447.5 188.21l.37.14a.66.65 34.6 00.68-.12l2.95-2.69"/><path stroke="#5b5c5d" vector-effect="non-scaling-stroke" d="M451.5 185.54l.96-1.54"/><path stroke="#636463" vector-effect="non-scaling-stroke" d="M452.46 184l2.02-4.68a.63.63 0 00-.43-.86l-2.11-.52a.44.43-84.4 00-.53.44l.05 1.87"/><path stroke="#5b5c5d" vector-effect="non-scaling-stroke" d="M451.46 180.25l-3.73-.29"/><path stroke="#90908f" vector-effect="non-scaling-stroke" d="M447.73 179.96c-7.22-8.39-1.34-21.55 4.11-29.02a.82.8-41 00.07-.85c-4.63-8.93-14.16 4.67-15.45 9.16"/><path stroke="#cacccd" vector-effect="non-scaling-stroke" d="M447.73 179.96c-9.74-2.33-10.23-11.95-11.27-20.71"/><path stroke="#9da0a1" vector-effect="non-scaling-stroke" d="M451.46 180.25c.11 1.08-.82 3.85 1 3.75"/><path stroke="#cacccd" vector-effect="non-scaling-stroke" d="M451.5 185.54q-3.17-.31-4 2.67M445.75 188.21q-1.18-3.15-4.29-4.01a1.37 1.37 0 01-.76-.51q-1.26-1.66-3.22-2.27"/><path stroke="#9da0a1" vector-effect="non-scaling-stroke" d="M435.29 176c1.46.03 1.85-.95 1.57-2.25-.19-.89-1.07-7.53-1.48-7.53a.33.33 0 00-.33.34q.02.66-.34 1.19M423.75 161.46q.34-1.01-.28-1.52a.7.69-43.4 00-.84-.02c-1.91 1.36-3.4 3.02-5.29 4.25q-7.87 5.11-15.58 10.46c-4.72 3.27-10.38 6.4-15.42 9.91-3.1 2.16-7.61 3.96-10.87 7.14-.94.91-5.88 1.92-7.77 2.77q-7.22 3.27-15.2 3.84c-3.54.26-6.65-3.52-9.17-5.5a1.38 1.35 61.7 00-.92-.29l-.91.04M338.75 191.54c-2.54-.12-2.1 4.51-2.17 6.01-.15 3.13 1.61 5.81 1.88 9.15a1.72 1.69 23 00.41.99l2.82 3.33a1.98 1.9 20.9 01.44.93c1.13 6.56-4.12 15.69-7.41 21.33-3.81 6.53-6.3 11.32-9.43 17.02-.49.91-.24 1.76.92 1.7M329 252.04c.59 3.99 15.05-8.32 16.46-8.56q1.18-.21 2 .49a.76.75 30.5 01.22.82q-1.62 4.61-3.27 9.21c-1.13 3.15-3.22 6.17-4.55 9.5a.53.52 19.9 01-.66.3c-5.1-1.81-12.73-6.07-17.96-5.77a.64.64 0 00-.6.55q-.05.34.11.63M253.25 256.29q2.36-3.44 1.53-7.96a2.6 2.59-10.7 012.06-3.01c3.03-.59 8.55-4.6 11.09-3.73 5.39 1.84 12.19.52 17.01-2.99 3.24-2.35 5.94-7.01 9.21-10.28a.96.96 0 00.28-.7c-.03-.77.28-.42.49-.52 10.39-5 13.45-10.5 18.47-21.3q.91-1.95 2.64-3.36 5.93-4.86 7.77-8.14c4.75-8.46 4.97-13.63 3.57-23.48a1.03 1.03 0 00-.51-.75q-.55-.33-1.15.18M328.25 163.79c.04 1.06.67 1.16 1.5.81q3.51-1.46 7.85-1.89a.49.48 9.7 01.49.69q-1.22 2.64-.69 5.66M338.71 171q1.19 1.22 1.99-.06c2.74-4.37 6.22-8.39 11.81-7.72q13.3 1.61 25.88-1.69a.87.87 0 00.62-.62q.15-.6-.26-.95"/><path stroke="#9da0a1" vector-effect="non-scaling-stroke" d="M433.29 160.5q.1.35-.11.65a.53.53 0 01-.73.14q-3.37-2.26-1.2-6.13a1.3 1.3 0 00-1.24-1.94q-1.99.16-3.68-.5a1.54 1.51 49.6 00-.9-.08l-24.89 5.19a.86.85 79.9 01-1.02-.72q-.06-.49.23-.82"/><path stroke="#90908f" vector-effect="non-scaling-stroke" d="M292.75 159.21q-1.57.07-2.79 1.04"/><path stroke="#5b5c5d" vector-effect="non-scaling-stroke" d="M289.96 160.25l-2.96 2.21"/><path stroke="#90908f" vector-effect="non-scaling-stroke" d="M287 162.46l-5.35-.07"/><path stroke="#5b5c5d" vector-effect="non-scaling-stroke" d="M281.65 162.39q-2.95.84-3.83-1.85a.43.43 0 00-.59-.26q-7 3.31-13.16-1.4"/><path stroke="#636463" vector-effect="non-scaling-stroke" d="M264.07 158.88l-2.61-3.56a.66.66 0 00-.76-.23q-4.68 1.79-7.03 6.35c-5.49 10.68-8.65 22.48-4.13 34.56"/><path stroke="#5b5c5d" vector-effect="non-scaling-stroke" d="M249.54 196l1.02 2.68a.66.66 0 01-.95.81q-3.56-2.01-5.58-5.55a.35.35 0 00-.58-.04c-4.03 5.2-6.92 10.19-5.66 17.1"/><path stroke="#636463" vector-effect="non-scaling-stroke" d="M237.79 211q.28 4.31 2.3 8.73"/><path stroke="#5b5c5d" vector-effect="non-scaling-stroke" d="M240.09 219.73q-.96.76-2.4.1a.33.33 0 00-.47.28c-1.09 15.7 14.26 24.41 26.66 14.11 1.63-1.35 2.11-3.21 3.17-5.05q.58-1.01.48.16l-.32 3.63a.92.92 0 00.37.83c6.81 5.06 15.52-.04 18.48-6.83a.5.49 7.1 00-.54-.68q-4.41.69-8.73-.31a.4.39-39.3 01.08-.78q3.66-.13 7.38-1.4"/><path stroke="#636463" vector-effect="non-scaling-stroke" d="M284.25 223.79q16.07-4.16 20.32-20.02a.58.58 0 00-.36-.7q-.75-.27-1.21.27"/><path stroke="#5b5c5d" vector-effect="non-scaling-stroke" d="M303 203.34l-3.32-.09"/><path stroke="#90908f" vector-effect="non-scaling-stroke" d="M299.68 203.25q-1.69-1.52-.89-2.5"/><path stroke="#5b5c5d" vector-effect="non-scaling-stroke" d="M298.79 200.75l.92.25"/><path stroke="#636463" vector-effect="non-scaling-stroke" d="M299.71 201q.31.68 1.04.52c17.52-3.86 27.36-21.14 16.71-37.27"/><path stroke="#5b5c5d" vector-effect="non-scaling-stroke" d="M317.46 164.25q-4.26-6.18-10.08-10.89a1.89 1.86-79.8 01-.58-.85q-.63-1.87-2.09-3.17a.64.63 26.3 00-1.05.35c-.84 4.33-4.82 8.96-9.71 6.73a.47.46-71.3 00-.64.32l-.56 2.47"/><path stroke="#9da0a1" vector-effect="non-scaling-stroke" d="M317.46 164.25q-1.34.17-.97 1.27c1.88 5.5 4.6 12.23 2.79 17.57q-2.91 8.62-9.77 12.92c-.35.22-9.41 3.09-9.8 4.99"/><path stroke="#cacccd" vector-effect="non-scaling-stroke" d="M298.79 200.75c-.55-3.15.63-4.07 3.57-4.76 7.79-1.83 16.21-8.69 15.59-17.46-.64-8.88-5.01-19.23-13.35-23.61a.85.84-51.4 00-.95.11l-2.27 1.97a1.37 1.36-18.2 00-.46.9c-.28 2.75-6.08 1.8-8.17 1.31M299.68 203.25q-2.84 4.95-7.11 8.64c-3.3 2.84-8.08 4.87-12.24 6.87-2.87 1.38-2.58 4.29-5.44 5.75q-6.83 3.49-13.23-1.22a1.17 1.17 0 01.14-1.97l3.47-1.84a.38.38 0 00.1-.59q-.13-.15-.4-.16c-11.48-.58-15.16-9.45-11.29-19.38a.29.28 37.3 01.49-.06l3.97 5.24a.72.72 0 001.22-.74q-8.69-18.49-1.87-37.52 1.16-3.26 3.67-3.37a1.1 1.09 66.3 01.82.32q4.24 4.28 9.88 6.49a.88.87-53.2 00.87-.13l8.92-7.19M287 162.46q2.64.37 2.96-2.21"/><path stroke="#9da0a1" vector-effect="non-scaling-stroke" d="M303 203.34q-1.57 5.51-4.9 9.89c-3.54 4.64-8.82 7.48-14.38 9.23a.5.5 0 00-.13.89l.66.44M240.09 219.73c2.09-1.56-.1-5.95-.79-7.91a.94.92-1.6 00-.64-.59l-.87-.23M264.07 158.88q-2.49 1.57-3.92-1.24a.85.84-12.8 00-.74-.46q-1.57-.02-2.37 1.64c-3.7 7.72-7.8 14.33-8.04 23.55a.5.49-64.3 00.12.35l.18.24a.9.87-60 01.18.71q-1.04 5.95 1.03 11.62a.55.54-19.4 01-.34.7q-.34.12-.63.01"/><path stroke="#636463" vector-effect="non-scaling-stroke" d="M283.07 159.79q2.15.49 4.21-.39a1.45 1.45 0 00.68-2.08l-1.23-2.04a.85.85 0 00-.92-.39q-3.96.92-6.26 4.22-.6.85.43.77l2.1-.16q.5-.04.99.07"/><path stroke="#90908f" vector-effect="non-scaling-stroke" d="M501.72 156.33l1.68 9.68a.6.6 0 00.59.49h1.9a.53.53 0 00.51-.67c-1.04-3.87-.46-7.02-3.75-10.01q-1.21-1.11-.93.51M495.64 165.06a.33.33 0 00.31.2l2.97-.01a.33.33 0 00.32-.4l-1.46-7.11a.33.33 0 00-.49-.22l-3.64 2.08a.33.33 0 00-.14.42l2.13 5.04M185.38 198.8c1.01 1.8 3.91 5.03 6.04 2.88a.73.71-38.4 00.11-.87l-3.25-5.37a.8.79 62.6 01.35-1.13c1.01-.44 4.75 4.58 5.63 5.51a1.94 1.93-34 002.24.43c2.71-1.25-.89-5.99-1.72-7.61a.6.59 70.9 01.41-.86c2.9-.59 4.36 8.27 8.21 4.05a.73.72 52.8 00.11-.82c-1.99-3.87-4.37-7.1-9.15-6.04a1.21 1.2-80.7 00-.79.57q-1.34 2.26-3.98 1.2a.93.92-52.6 00-.93.13c-1.9 1.46-2.64 4.1-5.67 3.13a1.3 1.29-67.6 00-1.55.65l-1.88 3.71a2.05 2.01 87.9 01-.7.77q-3.19 2.02-3.63 5.86c-.07.58-.64 1.26.38 1.69a.63.63 0 00.78-.25l1.21-1.89a.48.48 0 01.65-.16l5.02 2.91a1.06 1.06 0 001.16-.06l2.21-1.66a.52.52 0 00.05-.79c-1.2-1.16-5.93-4.72-4.15-6.41q1.7-1.6 2.84.43"/><path stroke="#8e8f81" vector-effect="non-scaling-stroke" d="M207.99 243.29c2.1 3.39 4.69 5.9 7.56 8.62a.41.41 0 00.63-.08c2.92-4.68 5.62-9.94 5.29-15.66q-.31-5.34-.52-10.68c-.29-7.88 7.25-14.51 11.05-20.29a.48.48 0 00-.52-.73l-18.84 4.76a.81.79-2.4 00-.59.63c-1.3 7.28-6.96 7.04-9.54 13.14a.71.7 33.1 00.17.8c5.79 5.44 1.54 13.38 5.31 19.49"/><path stroke="#5b5c5d" vector-effect="non-scaling-stroke" d="M371.29 230.5l-4.82 16.73q-.13.45.31.26 3.13-1.37 5.47-3.7"/><path stroke="#636463" vector-effect="non-scaling-stroke" d="M372.25 243.79q6.84-3.66 12.8-8.37c3.57-2.83 4.02-5.16 5.26-9.36q4.26-14.44 5.61-20.51a.42.41-1.8 00-.52-.48l-20.53 5.98a1.31 1.3-6.5 00-.93 1.16q-.65 9.3-2.65 18.29"/><path stroke="#9da0a1" vector-effect="non-scaling-stroke" d="M372.25 243.79q5.41-4.93 11.45-9.03.95-.65 2.09-1.13a1.17 1.16-.7 00.64-.65q3.03-7.64 4.47-15.75.78-4.42 2.2-8.24a1.07 1.07 0 00-1.27-1.41l-15.95 4.21a.87.87 0 00-.64.81c-.16 6.48-2.25 12.35-2.52 18.63a.51.51 0 01-.44.48l-.32.05a.35.34-4.3 01-.4-.34q0-.5-.27-.92"/><path stroke="#90908f" vector-effect="non-scaling-stroke" d="M207.188 210.27a2.41 2.41 0 00-2.565-2.245l-3.053.202a2.41 2.41 0 00-2.245 2.565l.048.718a2.41 2.41 0 002.564 2.245l3.053-.202a2.41 2.41 0 002.245-2.565l-.048-.718"/><path stroke="#636463" vector-effect="non-scaling-stroke" d="M192.07 219.67l-1.45 2.39a.54.54 0 00.22.76c3.97 2 8.75-2.11 10.67-5.37a.51.51 0 00-.2-.7l-4.22-2.24a.58.58 0 00-.67.1l-1.92 1.85a.85.84-51.3 01-1.02.12l-2.78-1.68a.47.46 29.8 00-.65.17c-1.46 2.61-5.22 1.89-7.84 2.23a.67.67 0 00-.59.6l-.5 5.34a.9.9 0 00.34.78c1.08.84 3.52-.55 4.89-.55a1.28 1.25 21.6 00.91-.38q1.99-2 2.94-4.68a.58.58 0 01.89-.28l.79.59a.72.72 0 01.19.95"/><path stroke="#90908f" vector-effect="non-scaling-stroke" d="M178.5 240.71c-1.12-5.21-3.69-9.36-4.14-14.62a.42.42 0 00-.77-.18l-1.13 1.84"/><path stroke="#5b5c5d" vector-effect="non-scaling-stroke" d="M172.46 227.75l-3.43 4.09q-.33.39-.8.56-1.72.63-3.06 1.95a1.11 1.1-64.1 01-.88.31l-.76-.08"/><path stroke="#636463" vector-effect="non-scaling-stroke" d="M163.53 234.58c-2.78-2.26.29-8.82 1.56-11.35a.35.35 0 00-.52-.43l-5.12 3.95a.96.95 40.3 01-1.04.08c-2.72-1.53-.07-4.95 1.02-6.66a.32.32 0 00-.45-.43q-5.36 3.84-8.71 9.52a.52.51-76.8 00.48.78q4.78-.4 8.57 2.36a.94.94 0 01.38.86c-.55 4.89-1.77 8.07-1.2 12.9a1.6 1.6 0 002.71.95c4.01-3.95 7.06-7.92 13.18-3.98q.39.25.84.32 1.26.18 2.46.55a.9.9 0 00.91-.24q1.32-1.42-.1-3.05"/><path stroke="#9da0a1" vector-effect="non-scaling-stroke" d="M163.53 234.58q-3.45 4.12-2.4 9.16a.31.31 0 00.5.18c3.9-3.06 7.61-4.59 12.4-2.82a.72.7 30.8 00.78-.19q.79-.87 1.98-1.16"/><path stroke="#d2d3d3" vector-effect="non-scaling-stroke" d="M176.79 239.75q.56 1.12 1.71.96"/><path stroke="#cacccd" vector-effect="non-scaling-stroke" d="M176.79 239.75q-2.14-4.04-2.95-8.51c-.24-1.35-.96-2.21-1.38-3.49"/><path stroke="#5b5c5d" vector-effect="non-scaling-stroke" d="M197 228.04q-1.04 3.11-1.04 6.46"/><path stroke="#90908f" vector-effect="non-scaling-stroke" d="M195.96 234.5q-2.39 7.3-7 13.5"/><path stroke="#5b5c5d" vector-effect="non-scaling-stroke" d="M188.96 248q-2.79 2.3-6.21 3.54"/><path stroke="#90908f" vector-effect="non-scaling-stroke" d="M182.75 251.54q-3.24.56-6.46.1a.46.45 5.2 00-.52.43q-.03 1.29.63 2.06"/><path stroke="#5b5c5d" vector-effect="non-scaling-stroke" d="M176.4 254.13q.88 2.15 3.18 2.45c10.2 1.35 15.55-4.82 21.01-12.23q2.23-3.03 2.12-6.35"/><path stroke="#90908f" vector-effect="non-scaling-stroke" d="M202.71 238l-.25-7.73a1.09 1.09 0 00-.45-.84l-3.72-2.66a.41.4-56.3 00-.58.12l-.71 1.15"/><path stroke="#cacccd" vector-effect="non-scaling-stroke" d="M202.71 238q-1.88 4.25-4.62 7.92c-1.32 1.78-8.79 6.78-9.13 2.08M195.96 234.5l.05.94q.04.58.18.02.91-3.66.81-7.42M176.4 254.13q2.71-1.56 5.88-1.68a.5.49 89.4 00.48-.5l-.01-.41"/><path stroke="#636463" vector-effect="non-scaling-stroke" d="M187.45 233.94a.74.73-8.6 01-1.16-.85l2.03-4.5q.24-.52-.33-.41l-5.53 1.02a.89.89 0 00-.68 1.19c1.74 4.68 3.55 8.76 1.86 13.83q-.16.49.33.34c4.45-1.31 7.41-9.29 8.28-13.14a.44.44 0 00-.3-.51l-.32-.09a.87.86 32 00-.83.19l-3.35 2.93"/><path stroke="#5b5c5d" vector-effect="non-scaling-stroke" d="M237.6 277.31q3.19-1.83 3.61-4.81"/><path stroke="#636463" vector-effect="non-scaling-stroke" d="M241.21 272.5c1.33-3.39 6.82-5.27 10.05-6.14a.49.48-16.1 00.34-.61q-3.21-10.23-1.35-20.79a.55.55 0 00-.44-.64q-5.43-.99-10.46-3.23a.5.5 0 00-.66.27c-1.65 3.91-4.18 7.85-5.09 11.61-1.43 5.85-1.31 13.78.46 19.57q.9 2.92 3.54 4.77"/><path stroke="#9da0a1" vector-effect="non-scaling-stroke" d="M241.21 272.5q-.77-1.18-.57-2.51a.9.89-9.4 01.48-.66l5.98-2.97a2.37 2.36 77.3 001.32-2.09l.07-3.87a1.09 1.08-63.9 00-.24-.71c-1.58-2.01-.05-10.67.21-13.58a.73.72-81.6 00-.57-.78l-6.73-1.4a.86.85-67.4 00-.89.37c-2.66 4.05-6.13 9.35-6.11 14.36.01 3.77.49 8.08 1.85 10.64a.41.41 0 01-.34.6q-1.12.05-1.13 1.68a.17.17 0 00.17.17h.3a.75.74-10.1 01.7.48l1.89 5.08"/><path stroke="#5b5c5d" vector-effect="non-scaling-stroke" d="M217.29 269.75l.56-3.76q.11-.76.32-.02l.29 1.03"/><path stroke="#636463" vector-effect="non-scaling-stroke" d="M218.46 267q3.47 8.52-1.07 16.15c-.49.81-.55 1.87-.68 2.79a1.04 1.04 0 001.21 1.17c3.56-.64 6.03-1.92 7.03-5.67 4.35-16.28-11.08-23.83-19.97-33.91a.56.56 0 00-.85.02q-5.74 7.05-12.12 13.47-1.62 1.63.04 3.67c5.87 7.26 11.18 14.03 18.27 17.37a1.64 1.62 52.9 00.96.14c5.02-.77 6.4-8.04 6.01-12.45"/><path stroke="#9da0a1" vector-effect="non-scaling-stroke" d="M218.46 267c.64-4.56-4.09-7.54-7.21-10.99-1.95-2.16-4.85-2.82-5.94-6.07a.42.41 56.7 00-.7-.15l-11.55 12.57a1.31 1.31 0 00.15 1.91c2.86 2.33 4.45 5.43 7.02 7.69 3.13 2.75 9.64 11.98 13.98 7.33 1.94-2.07 1.42-10.81 2.54-11.42a.32.32 0 01.47.27l.07 1.61"/><path stroke="#90908f" vector-effect="non-scaling-stroke" d="M266.04 266.18c-3.39-.67-18.78 5.61-21.1 8.39a1.01.98-32.7 00-.2.87q1.44 5.64 1.55 7.55c.32 5.68 17.36-2.74 20.08-3.74a1.1 1.1 0 00.72-1.06l-.36-11.19a.88.87-85.3 00-.69-.82"/><path stroke="#5b5c5d" vector-effect="non-scaling-stroke" d="M258.05 287.39c-1.31 2.89-3.2 6.57-3.92 9.55q-.12.5.36.33c6.91-2.49 13.09-4.28 19.65-9.11 7.03-5.18 13.17-11.75 21.84-16.31a.22.22 0 00-.15-.41q-11.37 2.35-22.53 5.87-1.97.62-2.03 3.2a.97.96 75.5 01-.46.79q-5.68 3.41-12.01 5.42a1.26 1.25-86.5 00-.75.67M238.25 310.21q.38 6.64 2.78 12.84a.75.74 80 00.68.48c6.79.21 16.13-4.27 21.12-7.93q14.14-10.39 24.42-16.56"/><path stroke="#636463" vector-effect="non-scaling-stroke" d="M287.25 299.04q9.26-5.39 16.33-7.41c23.27-6.65 49.59 6.87 65.17 23.16"/><path stroke="#5b5c5d" vector-effect="non-scaling-stroke" d="M368.75 314.79c5.91 7 10.56 14.02 10.75 23.42"/><path stroke="#636463" vector-effect="non-scaling-stroke" d="M379.5 338.21q.01 2.28-2 2.5"/><path stroke="#5b5c5d" vector-effect="non-scaling-stroke" d="M377.5 340.71l-.13-3.81"/><path stroke="#636463" vector-effect="non-scaling-stroke" d="M377.37 336.9q-2.11-6.13-6.62-10.58a.36.36 0 00-.58.13q-4.34 11-10.5 21.1a.42.42 0 00.22.61c7.91 2.77 22.07-7.26 25.95-13.48 3.19-5.09 1.38-10.62-1.06-15.72q-10.65-22.24-30.49-34.46"/><path stroke="#90908f" vector-effect="non-scaling-stroke" d="M354.29 284.5c-17.15-10.91-38.03-15.13-57.02-7.08-6.91 2.93-13.63 8.69-20.08 13.46q-16.91 12.49-38.01 13.3a.61.6-88.9 00-.58.56l-.35 5.47"/><path stroke="#d2d3d3" vector-effect="non-scaling-stroke" d="M354.29 284.5l-.33 1"/><path stroke="#cacccd" vector-effect="non-scaling-stroke" d="M353.96 285.5c-11.77-6.24-26.01-6.23-38.69-6.34-9.08-.08-14.72 1.82-21.75 6.88-14.22 10.22-34.41 24.97-55.27 24.17"/><path stroke="#9da0a1" vector-effect="non-scaling-stroke" d="M377.37 336.9q-2.09-.16-2.49-2.04-.1-.47-.37-.86l-3.28-4.72a.27.27 0 00-.43-.02c-1.67 1.95-2.22 4.38-3.05 6.2q-2.5 5.48-5.24 10.47a1.07 1.06 7.8 001.18 1.55q8.05-1.87 13.81-6.77M353.96 285.5c4.79 4.18 10.31 7.75 14.39 12.71 5.4 6.56 9.87 11.27 14.61 20.78 3.4 6.81 4.08 12.6-.84 18.5a1.27 1.26 15.7 01-.79.44l-1.83.28"/><path stroke="#9da0a1" vector-effect="non-scaling-stroke" d="M368.75 314.79q.37-.34.59-.81a.92.92 0 00-.07-.9q-2.2-3.28-7.05-6.56c-11.41-7.72-23.11-15.4-35.89-17.52-7.02-1.16-20.16-1.63-26.41 2.76q-.41.29-.9.36c-3.41.49-6.08 2.43-8.85 3.4q-2.18.76-4.34 1.64a.72.71 77.3 00-.45.72c.07.8 1.19 1.06 1.87 1.16"/><path stroke="#5b5c5d" vector-effect="non-scaling-stroke" d="M252.73 289.33c-3.97 1.01-7.04 1.41-9.24-2.83a.67.67 0 00-1.17-.04c-1.92 3.1-2.9 6.74-4.82 9.47-6.2 8.83-13.94 15.38-22.68 21.8-2.77 2.03-5.99 3.28-9.07 4.95q-.45.24.06.25 8.76.2 17.56-.01c5.85-.14 11.05-5.3 10.81-11.25-.2-4.78-2.28-13.62 6.08-12.9q2.14.18 6.63-.14a1.14 1.14 0 00.82-.45l5.74-7.8a.68.67 10.8 00-.72-1.05M301 300.54l-4.25 1.42"/><path stroke="#636463" vector-effect="non-scaling-stroke" d="M296.75 301.96q-23.57 8.65-37.54 29.54c-3.75 5.61-.39 12.97 2.21 19.09q.8 1.88 2.49 3.18 7.21 5.52 14.07 11.49c6.1 5.3 10.93 11.68 16.01 18.06a.68.67 59.1 00.79.2q16.87-7.09 35.18-7.73a.82.81-85 00.77-.65q.89-4.51-.1-8.93c-2.86-12.74-23.39-23.05-34.38-27.17"/><path stroke="#5b5c5d" vector-effect="non-scaling-stroke" d="M296.25 339.04q11.17-1.91 21.46 1.91a.7.7 0 00.8-1.08q-3.71-4.73-9.27-6.84-.21-.08 0-.02 1.97.59 3.7 0"/><path stroke="#636463" vector-effect="non-scaling-stroke" d="M312.94 333.01q10.14-.93 13.51 7.5.18.45.47.05c4.81-6.72 14.52-29.85 5.19-35.9q-14.2-9.21-31.11-4.12"/><path stroke="#9da0a1" vector-effect="non-scaling-stroke" d="M312.94 333.01q7.4-2.06 13.85 2.01a.6.59 37.1 00.75-.1c4.4-4.79 5.15-9.69 6.48-15.76q.65-2.99-.15-5.98c-.48-1.83-2.13-2.78-2.16-5.2a1.06 1.06 0 00-.39-.8c-2.24-1.82-3.84-3.82-6.55-4.81q-11.11-4.08-22.61-.7a.78.77 61.6 01-.82-.25q-.31-.38-.34-.88M296.25 339.04q-.99-.26-1.42.37a.59.59 0 00.23.86l12.32 5.97q.46.22.74.63c.5.71.36.7 1.22 1.03q6.36 2.47 10.63 7.81c.6.76 1.66.68 2.31 1.61q3.53 5.06 6.13 10.63c1.07 2.3.81 7.76-3.21 6.07-5.03-2.1-23.91 5.6-29.57 7.71a1.53 1.53 0 01-1.72-.45q-4.41-5.35-8.72-11.23c-.78-1.06-.99-2.78-2.31-3.58-2.81-1.7-4.68-4.13-7.54-5.49-2.2-1.04-4.42-3.48-5.61-4.35-2.4-1.76-6.28-4.28-6.99-6.77-.76-2.71-2.36-5.38-3.04-7.59-1.44-4.67 1.8-12.08 4.55-16.02q.28-.41.73-.63.78-.38 1.38-1.01 12.94-13.6 30.1-21.21a.96.94 83.7 00.56-.71q.07-.41-.27-.73"/><path stroke="#5b5c5d" vector-effect="non-scaling-stroke" d="M183.83 332.6q-3.79 6.63-3.95 14.44a1.7 1.69 26.9 00.35 1.06q4.53 5.87 10.58 10.14a.56.56 0 00.79-.15l4.45-6.68a.58.57 44.6 00-.01-.64l-2.72-3.91a1.2 1.19 76.1 00-.86-.52q-5.67-.69-10.48 2.21a.53.53 0 01-.76-.66c1.92-4.6 5.88-4.68 10.03-5.43"/><path stroke="#636463" vector-effect="non-scaling-stroke" d="M191.25 342.46l23.5.5"/><path stroke="#5b5c5d" vector-effect="non-scaling-stroke" d="M214.75 342.96q7.89.14 15.22-2.59a.93.91 85.4 00.57-.68q.95-5.07-.79-9.98"/><path stroke="#90908f" vector-effect="non-scaling-stroke" d="M229.75 329.71q.15-1.28-.29-2.55a.52.51-18.3 00-.65-.32c-6.35 2.03-18.39.57-24.83-.29-6.64-.89-18.06-2.94-20.15 6.05"/><path stroke="#cacccd" vector-effect="non-scaling-stroke" d="M229.75 329.71c-1.36.25-2.66.84-4.03.82q-15.98-.19-31.95-.47c-2.15-.03-4.49.48-6.76.59a1.32 1.3 20.4 00-.85.38q-1.06 1.08-2.33 1.57"/><path stroke="#9da0a1" vector-effect="non-scaling-stroke" d="M214.75 342.96q.52-.22.52-.46a.8.8 0 00-.87-.78q-9.49.8-18.57-.24c-.85-.1-5.28-1-5.57.21a.42.41 9.4 00.37.51q.37.02.62.26"/><path stroke="#636463" vector-effect="non-scaling-stroke" d="M241 332.71l-4.75 1.64a.69.68 80.7 00-.45.63l-.16 7.36a2.22 2.22 0 01-1.41 2.02q-9.13 3.59-18.69 3.41c-4.7-.08-14.98 11.33-18.8 14.42-4.7 3.82-18.73 24.8-17.55 30.57.92 4.47 5.46 15.32 10.49 18.51q9.22 5.84 16.9 13.73a.68.67-10.7 01-.75 1.09l-12.06-5.03a.37.36-81.9 00-.5.38q.97 7.64 7.56 11.28a.95.93-45.6 00.94-.02c1.4-.84 2.88-1.86 4.06-3.14q11.76-12.82 29.26-15.46a1.18 1.18 0 00.94-1.54q-3.01-9.03-9.38-15.96-2.69-2.92-6.53-3.97"/><path stroke="#5b5c5d" vector-effect="non-scaling-stroke" d="M220.12 392.63q-2.92-3.47-7.67-4.35a.2.13.4 01-.14-.09l-.1-.3a.24.23-7.4 01.24-.3l17.72 1a.59.58 6.6 00.61-.48c.51-2.99-7.85-5.77-10.02-6.62a1.04 1.03 1.9 01-.6-.64l-.11-.37a.54.53 81 01.5-.7l4.95-.07"/><path stroke="#636463" vector-effect="non-scaling-stroke" d="M225.5 379.71q5.72.26 10.71 2.74a.57.56-59.5 00.72-.19c5.34-7.83 11.27-13.85 17.03-20.68a.59.58 48.6 00.04-.72q-5.26-7.42-7.79-16.11"/><path stroke="#5b5c5d" vector-effect="non-scaling-stroke" d="M246.21 344.75L244 332.04a.4.39 74.1 00-.53-.3l-2.47.97"/><path stroke="#9da0a1" vector-effect="non-scaling-stroke" d="M246.21 344.75q-.8-.11-1.36.34a.75.73 61.6 00-.23.82c1.85 5.46 5.06 9.82 7.71 14.96a.74.74 0 01-.13.85q-8.59 8.73-15.87 18.61a.82.81 25 01-.85.3c-1.78-.44-9.39-3.54-9.98-.92"/><path stroke="#9da0a1" vector-effect="non-scaling-stroke" d="M220.12 392.63q5.98 6.04 11.32 12.63 2.31 2.85 2.88 6.53a1.37 1.37 0 01-1.09 1.55q-5.64 1.09-11.12 2.97c-4.52 1.54-8.54 4.89-13.29 6.88a1.21 1.2 55.9 01-1.3-.26c-3.57-3.56-7.97-6.2-11.47-9.14-1.46-1.24-8.09-5.13-7.14-6.99a1.37 1.31-40.2 00.1-.92q-1.14-4.51-4.16-8.1-.54-.64-.77.16l-.41 1.43a.2.19 6.7 01-.17.13l-.25.01a.57.56 78.9 01-.56-.38l-2.32-6.97a1.49 1.47-46.7 01-.02-.89c1.5-5.11 5.14-9.7 7.01-13.06 2.41-4.33 4.47-8.81 7.85-12.51q.36-.4.49-.92.34-1.4 1.76-1.76.52-.13.92-.49c2.59-2.33 5.29-4.13 7.71-6.75 2.23-2.41 6.39-6.85 9.92-6.77q5.3.11 10.58-.52c2.91-.35 5.14-1.91 7.94-2.9 3.64-1.29 3.2-5.32 2.75-8.22q-.29-1.9 1.62-2.16 2.63-.36 2.1-2.5"/><path stroke="#5b5c5d" vector-effect="non-scaling-stroke" d="M254.274 366.22a.88.48 116 00.817-.58.88.48 116 00-.045-1 .88.48 116 00-.817.58.88.48 116 00.045 1"/><path stroke="#636463" vector-effect="non-scaling-stroke" d="M284.69 390.96c2.59-.64 5.61-2.98 3.25-5.91q-5.11-6.36-11-12.09a.21.21 0 00-.35.19c1.59 7.74 1.1 11.65 7.24 17.57a.93.91 59.8 00.86.24M487.94 377.56q.46.36 1.11.08a.36.35-46.9 00-.02-.66c-15.28-5.21-29.21-.95-42.75 6.28q-41.65 22.26-82.85 45.33c-23.67 13.25-48.92 24.16-74.26 33.8q-58.47 22.23-117.38 43.26c-8.45 3.02-19.15 7.43-28.89 10.72-11.97 4.04-31.38 10.2-31.18 26.1q.01.5.23.05 5.46-10.91 15.35-15.46c12.7-5.83 30.3-10.42 43.81-15.19q76.44-27.03 137.59-51.66 47.8-19.26 92.36-45.15 20.56-11.94 41.21-23.72c15.03-8.57 28.54-13.33 45.67-13.78"/><path stroke="#8e8f81" vector-effect="non-scaling-stroke" d="M250.96 414.15c5.2 1 10.12 3.96 11.55 9.35 1.37 5.2 2.6 13.68-2.53 16.82a.64.64 0 00-.29.73c2.57 9.24 2.52 16.33 4.41 24.51a.42.42 0 00.57.3l39.35-15.6a.66.66 0 00.42-.72q-.59-4.05-2.14-8.11-4.29-11.22-9.42-22.19a.95.94-7.7 00-.71-.54q-13.11-2.23-13.55-15.33c-.08-2.44.97-4.08 2.09-6.15a.65.64 34.2 00-.16-.8q-.33-.27-.77-.18a1.67 1.66-39.6 01-.99-.09c-6.24-2.57-8.81-4.92-9.61-11.9a1.56 1.56 0 00-2.29-1.2q-12.01 6.43-21.83 15.87a.72.72 0 00-.09.92q4.23 6.21 5.37 13.66a.78.77-89 00.62.65"/><path stroke="#636463" vector-effect="non-scaling-stroke" d="M287.21 399.5q-.47.51-.58.93"/><path stroke="#90908f" vector-effect="non-scaling-stroke" d="M286.63 400.43l-1.13 2.28"/><path stroke="#636463" vector-effect="non-scaling-stroke" d="M285.5 402.71q-.88 6.25 4.48 9.34a.61.6-54.4 00.76-.13c6.97-8.13 18.89-13.63 29-16.46q7.6-2.12 19.51-1"/><path stroke="#90908f" vector-effect="non-scaling-stroke" d="M339.25 394.46q.3.12.59.07a.65.65 0 00.52-.65c-.22-7.57-4.97-11.08-12.28-10.96-12.69.21-33.44 5.04-40.87 16.58"/><path stroke="#d2d3d3" vector-effect="non-scaling-stroke" d="M339.25 394.46l-.99-2.42a.9.88 82 00-.72-.55c-5.08-.53-11.03.66-14.73 1.08q-10.9 1.25-20.59 6.55c-3.44 1.88-8.64 4.72-12.17 4.04a1.21 1.18-10.4 01-.76-.51l-2.08-3.15M285.5 402.71q2.17-.21 1.13-2.28"/><path stroke="#5b5c5d" vector-effect="non-scaling-stroke" d="M464.21 393.52a1.49 1.49 0 00-1.49-1.49 1.49 1.49 0 00-1.49 1.49 1.49 1.49 0 001.49 1.49 1.49 1.49 0 001.49-1.49M309.04 440l1.83 6.52a.45.45 0 00.6.3q12.75-4.84 25.04-10.76"/><path stroke="#636463" vector-effect="non-scaling-stroke" d="M336.51 436.06c1.58-.23 2.37-1.1 2.27-2.78q-.81-13.32-3.23-25.98a2.17 2.15-5.4 00-2.14-1.76c-11.24.11-23.56 1.91-32.34 8.86a.72.71 61.7 00-.23.79l8.2 24.81"/><path stroke="#9da0a1" vector-effect="non-scaling-stroke" d="M336.51 436.06q.36-6.08-.31-12.12c-.4-3.74-.72-14.22-3.35-16.59a1.23 1.23 0 00-.88-.3q-4.88.29-9.76.74c-6.42.61-12.32 3.4-18.32 5.7a1.83 1.82 71.4 00-1.1 2.23q3.15 10.6 6.68 21.28.63 1.91-.43 3"/><path stroke="#5b5c5d" vector-effect="non-scaling-stroke" d="M204.71 441.25q-1.36 1.01-.92 2.75"/><path stroke="#636463" vector-effect="non-scaling-stroke" d="M203.79 444q-.82 5.92 2.65 10.6a.37.36-46.3 00.59-.02q3.87-5.75 9.51-9.83"/><path stroke="#5b5c5d" vector-effect="non-scaling-stroke" d="M216.54 444.75c10.81-8.23 20.98-11.51 33.7-14.3 1.36-.3 1.81-1.15 1.47-2.45"/><path stroke="#90908f" vector-effect="non-scaling-stroke" d="M251.71 428q.96-5-2.79-7.99a1.59 1.55 65.4 00-.88-.34c-9.98-.49-23 2.8-31.19 8.78-3.76 2.74-10.59 8.31-12.14 12.8"/><path stroke="#cacccd" vector-effect="non-scaling-stroke" d="M251.71 428c-9.17-.3-18.4 3.6-26.55 7.44-4.48 2.11-9.49 6.17-14.18 8.02q-3.81 1.5-6.27-2.21"/><path stroke="#9da0a1" vector-effect="non-scaling-stroke" d="M216.54 444.75q-.19-1.71-1.83-1.02c-3.34 1.4-5.04 6.3-8.87 7.06a.51.5-10.7 01-.6-.4c-.15-.74-.23-6.61-1.45-6.39"/><path stroke="#636463" vector-effect="non-scaling-stroke" d="M237.37 444.45q-4.78 1.51-13.56 5.91c-6.61 3.3-3.28 6.12-1.91 10.75q2.65 9 6.03 17.83a.55.55 0 00.66.34q4.94-1.3 9.48-3.79"/><path stroke="#5b5c5d" vector-effect="non-scaling-stroke" d="M238.07 475.49l13.28-4.5a.8.79 84.2 00.53-.66q.21-1.82-.42-3.58"/><path stroke="#636463" vector-effect="non-scaling-stroke" d="M251.46 466.75q-.88-11.92-4.67-23.35"/><path stroke="#5b5c5d" vector-effect="non-scaling-stroke" d="M246.79 443.4q-.07-.66-.46-1.24a.82.8-20.5 00-.79-.35q-4.38.62-8.17 2.64"/><path stroke="#9da0a1" vector-effect="non-scaling-stroke" d="M246.79 443.4q-1.15 1.8-.59 4.11 1.91 7.89 3.93 18.61a.8.79-88.4 00.6.64q.35.09.73-.01M238.07 475.49q-4.43-.61-8.21 2.05a.55.54-37.7 01-.73-.09c-3.5-4.12-4.57-11.94-5.68-17.14-.36-1.69-2.17-2.68-2.34-4.59-.23-2.65 4.21-5.03 6.34-5.89q5.27-2.12 9.92-5.38"/><path stroke="#5b5c5d" vector-effect="non-scaling-stroke" d="M395.313 479.173a1.12.7 83.7 00.573-1.19 1.12.7 83.7 00-.819-1.036 1.12.7 83.7 00-.573 1.19 1.12.7 83.7 00.819 1.036M358.25 182.29l-.94 1.1q-.31.36.17.36h.48"/><path stroke="#9da0a1" vector-effect="non-scaling-stroke" d="M357.96 183.75l.89.91a.94.93-28.6 00.86.25c12.9-2.99 23.42-8.44 33.89-16.43a1.3 1.27 77.2 00.49-.8c.46-2.46-.76-4.66-3.21-5.25-2.45-.59-5.41 1.1-8.75 2.74-2.93 1.44-6.63 1.96-9.47 5.32q-.33.38-.79.57c-5.24 2.05-9.13 5.24-13.9 8.23a2.08 2.07-20.7 00-.94 2.07q.13.79 1.22.93"/><path stroke="#636463" vector-effect="non-scaling-stroke" d="M357.96 183.75q18.31-3.56 32.94-14.99c2.11-1.65 2.8-2.74.56-4.87a1.57 1.57 0 00-1.38-.39q-3.79.78-7.31 2.73-12.88 7.09-24.52 16.06"/><path stroke="#90908f" vector-effect="non-scaling-stroke" d="M281.95 178.73c6.81 1.71 16.05.2 18.43-7.57a.61.61 0 01.67-.43q5.13.71 8.3-3.37.35-.45-.22-.45c-3.26.02-5.75.38-9.12-.6-10.16-2.94-16.62 3.53-24.19 8.83-2.96 2.07-5.08 2.42-8.55 2.8a.31.31 0 00-.08.59c4.62 1.91 10.52-3.62 13.92-.27a1.98 1.97-15.5 00.84.47"/><path stroke="#cacccd" vector-effect="non-scaling-stroke" d="M258.13 224.79c-4.22-.11-8.41-5.63-9.98-9.12a.41.41 0 00-.62-.16c-2.25 1.69-1.35 5.33-1.28 7.76a1.65 1.6-65.8 00.34.94q3.79 4.9 10.04 4.3a1.04 1.03-81.3 00.85-.63l1.06-2.45a.46.46 0 00-.41-.64"/><path stroke="#90908f" vector-effect="non-scaling-stroke" d="M292.29 171.53l2.29-1.86q1.07-.88-.31-.73-5.62.6-10.22 3.86-.93.66.21.77l2.42.22q.6.06.23.53c-.69.9-2.66.44-2.66 1.67a.55.55 0 00.51.56c1.43.13 12.16-1.35 12.15-4.49a.61.61 0 00-.73-.59l-3.45.68a.33.33 0 01-.34-.15l-.14-.22a.19.19 0 01.04-.25M249.25 282.29c4.68-2.18 9.69-3.99 14.54-5.86a.81.81 0 00.52-.85l-.75-6.7a.54.54 0 00-.74-.44l-14.64 6.08a.77.77 0 00-.46.81l.97 6.65a.4.4 0 00.56.31"/><path stroke="#9da0a1" vector-effect="non-scaling-stroke" d="M204.47 427.8q-4.88-1.89-9.15-4.89-.57-.4-.29.24 1.48 3.48 4.18 5.62a1.75 1.71-81.6 01.55.76l.42 1.15a.44.44 0 00.65.22l3.71-2.38a.41.4-50.6 00-.07-.72"/><path stroke="#636463" vector-effect="non-scaling-stroke" d="M589.94 591q-4.88-.63-9.75 0M566.44 591l-29.19-.21"/><path stroke="#9da0a1" vector-effect="non-scaling-stroke" d="M537.25 590.79H524.5"/><path stroke="#636463" vector-effect="non-scaling-stroke" d="M524.5 590.79l-11.31.21"/><path stroke="#9da0a1" vector-effect="non-scaling-stroke" d="M512.94 591q-3.88-.63-7.75 0"/><path stroke="#636463" vector-effect="non-scaling-stroke" d="M502.94 591q-10.38-.63-20.75 0"/><path stroke="#9da0a1" vector-effect="non-scaling-stroke" d="M478.94 591q-6.38-.63-12.75 0"/><path stroke="#636463" vector-effect="non-scaling-stroke" d="M463.94 591l-87.69-.21"/><path stroke="#9da0a1" vector-effect="non-scaling-stroke" d="M376.25 590.79l-8.06.21M367.94 591q-3.88-.63-7.75 0M359.94 591l-15.44-.21"/><path stroke="#636463" vector-effect="non-scaling-stroke" d="M344.5 590.79l-7.31.21"/><path stroke="#9da0a1" vector-effect="non-scaling-stroke" d="M336.94 591q-3.88-.63-7.75 0M319.94 591q-2.63-.63-5.25 0M311.94 591q-2.88-.63-5.75 0"/><path stroke="#636463" vector-effect="non-scaling-stroke" d="M304.94 591q-4.38-.63-8.75 0"/><path stroke="#9da0a1" vector-effect="non-scaling-stroke" d="M295.94 591q-2.88-.63-5.75 0M287.94 591q-5.38-.63-10.75 0M255.94 591q-2.88-.63-5.75 0M247.94 591l-5.19-.21"/><path stroke="#636463" vector-effect="non-scaling-stroke" d="M242.75 590.79h-18.5"/><path stroke="#9da0a1" vector-effect="non-scaling-stroke" d="M224.25 590.79l-8.06.21M215.44 591q-2.63-.63-5.25 0M205.94 591q-2.88-.63-5.75 0"/><path stroke="#636463" vector-effect="non-scaling-stroke" d="M199.44 591q-27.63-.63-55.25 0M143.94 591q-5.88-.63-11.75 0M129.94 591q-7.38-.63-14.75 0"/><path stroke="#9da0a1" vector-effect="non-scaling-stroke" d="M103.94 591q-3.38-.63-6.75 0M94.94 591q-2.38-.63-4.75 0"/><path stroke="#636463" vector-effect="non-scaling-stroke" d="M88.94 591q-23.88-.63-47.75 0M23.94 591q-3.88-.63-7.75 0M13.94 591L0 590.44"/><path stroke="#5b5c5d" vector-effect="non-scaling-stroke" d="M224.25 590.79l-.06.21M242.75 590.79l-.06.21M344.5 590.79l-.06.21M376.25 590.79l-.06.21M524.5 590.79l-.06.21M537.25 590.79l-.06.21"/></g><path d="M0 0h589.81l.19.29.29 3.71v1l-.04 584.71-.46.32a1.18 1.16 27.1 01-.67.21q-292.09.02-584.18-.04-2.49 0-4.94-.26V0zm585.49 5.52a.27.27 0 00-.27-.27H5.52a.27.27 0 00-.27.27v579.7a.27.27 0 00.27.27h579.7a.27.27 0 00.27-.27V5.52z"/><path fill="#21201f" d="M589.81 0H591v590.06l-.29-.31-.02-584.56a.15.15 0 00-.13-.15l-.27-.04V4q.96-1.72.27-3.58a.26.26 0 00-.29-.17l-.27.04-.19-.29z"/><path fill="#95989b" d="M590 .29l.27-.04a.26.26 0 01.29.17q.69 1.86-.27 3.58L590 .29zM590.29 5l.27.04a.15.15 0 01.13.15l.02 584.56-.46-.04L590.29 5z"/><path fill="#fbfee2" d="M585.49 585.22a.27.27 0 01-.27.27H5.52a.27.27 0 01-.27-.27V5.52a.27.27 0 01.27-.27h579.7a.27.27 0 01.27.27v579.7zM15.94 46.19c-1.16 17.57-.44 36.03.14 51.5a.66.65-17.8 001.02.52q2.65-1.8 4.8-4.06 25.44-26.8 51.49-53.02 4.94-4.97 8.31-9.41 1.7-2.23-1.1-2.22-22.09.04-43.46.77c-7.41.26-12.86 2.82-17.99 7.69-2.64 2.52-2.98 4.72-3.21 8.23zM217.3 307.63q-9.4 7.66-21.31 10c-3.75.74-11.19 1.13-13.34 4.72q-4.7 7.82-7.18 14.64c-.91 2.5-2.94 11.48-.93 13.98q5.48 6.8 12.61 11.99a.52.51 34.7 01.13.7c-5.47 8.36-11.29 17.08-14.13 26.73-2.03 6.88 6.25 21.58 10.8 26.02a1.82 1.75-75.3 01.47.84c1.29 5.46 2.21 11.27 5.39 15.87q2.76 4 6.21 7.48c1.38 1.38.2 2.63.2 4.07q-.01 6.81 3.64 12.34c4.31 6.53 6.47 5.01 12.98 3.03a.53.53 0 01.65.33c2.56 6.83 5.76 13.54 7.18 20.67a1.2 1.19-16.1 01-.75 1.35q-38.85 14.55-77.89 27.96-4.29 1.48-8.33 3.23c-15.92 6.91-28.18 11.21-26.85 31.19 1.23 18.57 24.14 32.79 41.59 30.63q8.49-1.05 18.55-4.19 22.11-6.9 43.6-15.59c37.37-15.12 74.55-30.73 112.4-44.64 17.13-6.28 42.93-16.49 66.41-25.5q33.48-12.85 66.26-27.38 15.27-6.76 18.19-8.32c12.9-6.91 30.83-20.62 34.15-35.77 3.68-16.8-3.87-38.06-22.04-42.67-16.94-4.29-32.92 2.66-47.74 10.17-30.54 15.48-60.14 32.66-90.08 49.18a.46.46 0 01-.68-.4q0-11.29-1.18-22.49a.85.83 69.7 01.34-.77c6.01-4.29 6.01-10.22 4.73-17.05-1.09-5.85-3.78-9.55-9.24-11.52a.98.97-85.3 01-.62-.74q-1.33-7.12-3.98-13.85a.54.53 64 01.22-.66l14.92-8.83a2.13 2.11 40 011.82-.15c5.49 2.12 10.67 3.13 16.4.94 9.78-3.75 23.26-14.9 22.1-26.68q-.69-6.96-4.04-15.24a.57.56 64.7 01.25-.7q16.9-9.33 30.31-23.02c6.23-6.37 10.37-13.49 15.05-21.47 13.63-23.26 14.92-48 8.99-74.33a.4.4 0 01.39-.49q2.05-.02 4.07.25c3.51.48 5.85-3.22 7.76-5.81 2.57-3.5 3.21-7.9 4.47-12.07a1.25 1.22-5.8 01.6-.72l6.87-3.6a.91.91 0 01.89.02c8.43 4.82 14.7 4.53 17.63-5.97a.44.44 0 01.53-.32l3.78.86a1.11 1.09 82.1 01.74.57c2.2 4.3 5.21 3.2 9.25 2.78a1.84 1.72 53.2 01.95.17c2.84 1.34 6.09 3.34 8.54-.19a1.47 1.45 60.8 00.25-.91c-.22-3.73.02-10.58-3.15-13.09-4.51-3.58-8.87-8.78-14.49-10.25-2.96-.78-5.16-3.31-7.96-4.74a1.66 1.65 55 00-.95-.17q-2.7.35-3.43.72-10.18 5.18-21.3 8.18a.56.56 0 01-.67-.34c-4.5-11.59-14.68-8.7-20.58-.51a.56.55 36.7 01-.78.11q-5.91-4.47-13.33-3.67a.75.74 72.4 01-.74-.39q-3.68-6.79-10.19-12.32-36.58-31.07-84.78-28.49-8.48.46-16.94 1.18c-6.65.57-14.4 2.32-21.74 3.02a1.81 1.78 54.2 01-.94-.16c-19.29-8.96-41.69 3.72-53.58 18.81-5.48 6.95-8.6 10.4-16.5 12.14a.89.89 0 01-1-.5c-4.51-9.85-15.59-10.1-20.41-.16-4.54 9.39 7.37 19.19 15.84 13.51a.68.68 0 01.98.9c-1.97 3.53-4.54 6.76-6.07 10.17q-5 11.18-6.49 23.5a.47.46 8.7 01-.55.4c-4.47-.83-7.85.21-12.18.35a1.55 1.52-64.5 00-.93.34l-2.7 2.16a1.85 1.8 22.3 01-.99.4q-5.1.46-6.68 5.87-.35 1.19-1.8 1.04a1.08 1.08 0 00-.86.3c-2.71 2.62-3.18 8.31-3.57 11.81a.9.9 0 01-.52.71q-12.95 5.74-21.54 14.86c-1.26 1.34-3.53 5.94-2.16 7.95 2.17 3.17 5.76 2.42 9.21 2.81a.42.41 12.2 01.35.53c-1.5 4.61-3.67 16.52 4.56 16a1.47 1.46-66.6 00.85-.34l5.46-4.66q.45-.38.33.19c-1.99 9.78 2.16 13.44 8.44 19.59 5.31 5.2 7.43 14.46 11.24 20.65 5.89 9.56 12.37 14.22 21.3 20.68 2.58 1.86 5.99.44 8.88-.01q.51-.07.11.25zm298.49-161.338a1.94.98-37 00-2.14.385 1.94.98-37 00-.96 1.95 1.94.98-37 002.14-.384 1.94.98-37 00.96-1.95z"/><path fill="#fce8b1" d="M15.94 46.19c.23-3.51.57-5.71 3.21-8.23 5.13-4.87 10.58-7.43 17.99-7.69q21.37-.73 43.46-.77 2.8-.01 1.1 2.22-3.37 4.44-8.31 9.41Q47.34 67.35 21.9 94.15q-2.15 2.26-4.8 4.06a.66.65-17.8 01-1.02-.52c-.58-15.47-1.3-33.93-.14-51.5z"/><path fill="#21201f" d="M217.19 307.38c-2.89.45-6.3 1.87-8.88.01-8.93-6.46-15.41-11.12-21.3-20.68-3.81-6.19-5.93-15.45-11.24-20.65-6.28-6.15-10.43-9.81-8.44-19.59q.12-.57-.33-.19l-5.46 4.66a1.47 1.46-66.6 01-.85.34c-8.23.52-6.06-11.39-4.56-16a.42.41 12.2 00-.35-.53c-3.45-.39-7.04.36-9.21-2.81-1.37-2.01.9-6.61 2.16-7.95q8.59-9.12 21.54-14.86a.9.9 0 00.52-.71c.39-3.5.86-9.19 3.57-11.81a1.08 1.08 0 01.86-.3q1.45.15 1.8-1.04 1.58-5.41 6.68-5.87a1.85 1.8 22.3 00.99-.4l2.7-2.16a1.55 1.52-64.5 01.93-.34c4.33-.14 7.71-1.18 12.18-.35a.47.46 8.7 00.55-.4q1.49-12.32 6.49-23.5c1.53-3.41 4.1-6.64 6.07-10.17a.68.68 0 00-.98-.9c-8.47 5.68-20.38-4.12-15.84-13.51 4.82-9.94 15.9-9.69 20.41.16a.89.89 0 001 .5c7.9-1.74 11.02-5.19 16.5-12.14 11.89-15.09 34.29-27.77 53.58-18.81a1.81 1.78 54.2 00.94.16c7.34-.7 15.09-2.45 21.74-3.02q8.46-.72 16.94-1.18 48.2-2.58 84.78 28.49 6.51 5.53 10.19 12.32a.75.74 72.4 00.74.39q7.42-.8 13.33 3.67a.56.55 36.7 00.78-.11c5.9-8.19 16.08-11.08 20.58.51a.56.56 0 00.67.34q11.12-3 21.3-8.18.73-.37 3.43-.72a1.66 1.65 55 01.95.17c2.8 1.43 5 3.96 7.96 4.74 5.62 1.47 9.98 6.67 14.49 10.25 3.17 2.51 2.93 9.36 3.15 13.09a1.47 1.45 60.8 01-.25.91c-2.45 3.53-5.7 1.53-8.54.19a1.84 1.72 53.2 00-.95-.17c-4.04.42-7.05 1.52-9.25-2.78a1.11 1.09 82.1 00-.74-.57l-3.78-.86a.44.44 0 00-.53.32c-2.93 10.5-9.2 10.79-17.63 5.97a.91.91 0 00-.89-.02l-6.87 3.6a1.25 1.22-5.8 00-.6.72c-1.26 4.17-1.9 8.57-4.47 12.07-1.91 2.59-4.25 6.29-7.76 5.81q-2.02-.27-4.07-.25a.4.4 0 00-.39.49c5.93 26.33 4.64 51.07-8.99 74.33-4.68 7.98-8.82 15.1-15.05 21.47q-13.41 13.69-30.31 23.02a.57.56 64.7 00-.25.7q3.35 8.28 4.04 15.24c1.16 11.78-12.32 22.93-22.1 26.68-5.73 2.19-10.91 1.18-16.4-.94a2.13 2.11 40 00-1.82.15l-14.92 8.83a.54.53 64 00-.22.66q2.65 6.73 3.98 13.85a.98.97-85.3 00.62.74c5.46 1.97 8.15 5.67 9.24 11.52 1.28 6.83 1.28 12.76-4.73 17.05a.85.83 69.7 00-.34.77q1.18 11.2 1.18 22.49a.46.46 0 00.68.4c29.94-16.52 59.54-33.7 90.08-49.18 14.82-7.51 30.8-14.46 47.74-10.17 18.17 4.61 25.72 25.87 22.04 42.67-3.32 15.15-21.25 28.86-34.15 35.77q-2.92 1.56-18.19 8.32-32.78 14.53-66.26 27.38c-23.48 9.01-49.28 19.22-66.41 25.5-37.85 13.91-75.03 29.52-112.4 44.64q-21.49 8.69-43.6 15.59-10.06 3.14-18.55 4.19c-17.45 2.16-40.36-12.06-41.59-30.63-1.33-19.98 10.93-24.28 26.85-31.19q4.04-1.75 8.33-3.23 39.04-13.41 77.89-27.96a1.2 1.19-16.1 00.75-1.35c-1.42-7.13-4.62-13.84-7.18-20.67a.53.53 0 00-.65-.33c-6.51 1.98-8.67 3.5-12.98-3.03q-3.65-5.53-3.64-12.34c0-1.44 1.18-2.69-.2-4.07q-3.45-3.48-6.21-7.48c-3.18-4.6-4.1-10.41-5.39-15.87a1.82 1.75-75.3 00-.47-.84c-4.55-4.44-12.83-19.14-10.8-26.02 2.84-9.65 8.66-18.37 14.13-26.73a.52.51 34.7 00-.13-.7q-7.13-5.19-12.61-11.99c-2.01-2.5.02-11.48.93-13.98q2.48-6.82 7.18-14.64c2.15-3.59 9.59-3.98 13.34-4.72q11.91-2.34 21.31-10 .4-.32-.11-.25zm103.06-197.17l-13.5 1.08-5 .67-3.71.67a.38.37 67.9 00-.24.58q3.53 5.32 8.36 9.46a1.92 1.9-79.5 01.57.84c2.47 7.23 1.97 13.63 2.14 20.7q.15 6.89 6.56 10.44 1.26 3.08 4.61 4.35 1.99-.36 3.87-1.13 6.61-2.69 13.84-4.43 5.2-.05 10.44-.12c8.03-.11 13.74 4.96 22.06 3.19q5.77-1.23 11.11-2.72a.78.78 0 00.57-.8q-.61-12.17-9.08-20.67a.39.39 0 01-.04-.5q.12-.18.19-.11c8.24.34 11.72 3.61 17.64 7.55a.52.52 0 00.8-.54c-1.56-7.73-5.68-14.92-12.79-18.57-9.47-5.76-25.62-8.43-36.56-9.4-7.3-.65-14.2-1.64-21.84-.54zm-68.5 8.25q-7.06 4.96-12.62 11.48c-7.15 8.37-10.84 12.6-21.09 14.36a.59.59 0 00-.06 1.14c13.82 3.89 21.76-5.98 27.81-16.88q.49-.9 3.21-2.85 1.34-.56 2.75-.17l-2.47 4.7a.4.4 0 00.67.42q5.21-7.1 12.3-11.04 14.16-7.54 29.29-3.22a.43.42-24.4 00.3-.79q-5.74-2.68-11.39-4.72c-8.55-3.09-22.04 2.72-28.7 7.57zm2.46 15.79l-.71.96q-4.12 5.21-1.39 10.06 1.54 2.73 3.75 1.17a1.49 1.48 81.1 00.56-.77q1.04-3.41 3.83-5.63 5.39-5.52 10.79-7.02c12.28-3.39 21.84-4.96 32.31 2.95q.71.54.61-.35l-1-8.63a1.59 1.58-72.6 00-.52-1c-4.81-4.24-14.21-5.83-20.22-6.07-11.51-.48-21.49 4.98-28.01 14.33zm-53.1 8.87q3.79 6.61 10.33 2.16c7.3-10.09-10.91-17.3-10.33-2.16zm91.13-7.57c-8.04-.78-19.34.81-25.25 5.47q-.49.39.11.22 12.37-3.54 25.14-5.05a.32.32 0 000-.64zm-2.984 5.433a1.31 1.31 0 00-1.143-1.458l-.12-.014a1.31 1.31 0 00-1.458 1.143l-1.27 10.503a1.31 1.31 0 001.143 1.458l.119.014a1.31 1.31 0 001.458-1.143l1.27-10.503zm-25.336 7.207c-2.2 8.39 8.07 13.54 13.98 7.98 1.51-1.42 2.55-1.65 4.34-2.41a.84.83-12.1 00.52-.8q-.16-6.22 1.14-12.26a.35.35 0 00-.43-.41c-6.33 1.71-12.64 2.08-16.82 4.31q-2.08 1.1-2.73 3.59zm215 1.62c6.39.03 5.9 10.02 15.16 4.36a.29.28 50.2 00.04-.46l-10.01-8.86a.96.95-29.5 00-.84-.23q-1.51.32-2.87 1.02c-3.66 1.86-8.21 4.03-12.22 4.93q-3.79.86-7.45 2.2c-3.45 1.26-7.17 6.07-7.2 9.79-.03 3.19 2.94 4.64 5.78 4.39a1.28 1.28 0 00.84-.41c3.03-3.25 11.7 1.42 15.93 3.4a1.5 1.47 51.1 00.93.11c3.53-.72 7.24-6.66 2-7.87-2.98-.68-12.88-3.85-13.42-6.81a.61.61 0 01.61-.72q6.66.08 12.86 2.39a.49.49 0 00.65-.56l-1.31-6.04a.53.52-5.8 01.52-.63zm-268.67 34.48c1.81-2.1 5.93-6.38 9.03-4.91q2.11 1.01 1.01 3.08l-1.5 2.79-2.5 4.28q-.26.44.24.32c6-1.53 10.3-4.4 13.52-9.8 3.22-5.4 6.81-8.34 12.81-13a1.71 1.7 79.9 00.59-.85l3.82-11.82a1.21 1.18 41.1 00-.07-.88l-3.07-6.31a.41.41 0 00-.58-.17q-6.17 3.65-13.02 5.7c-3.8 1.14-8.19.77-12.42 1.54a.97.96 7.2 00-.7.54c-5.7 12.07-10.51 23.09-10.93 36.03a.47.46 3.9 00.43.48q.33.02.39-.3.83-3.98 2.95-6.72zm226.21-25.04l-1.96 3.32q-.25.43-.43-.04l-.78-2.03q.04-3.43 1.09-6.7a.6.59-67.6 00-.29-.71c-7.71-4.04-14.42-.25-22.01 1.12q-6.16 1.11-12.33 2.08-10.68.76-21 3.67-11.27 2.93-25 1.54-11.04-1.12-15.04 9.5l-1.36 2.02q-.26.38-.23-.08l.28-3.88q1.23-4.31 3.95-7.47a.41.41 0 00-.3-.68q-6.96-.16-12.8 2.88l-3.51 2.02a.62.61 65.8 00-.27.73l1.24 3.71q4.52 15.82-6.11 27.32c-1.69 1.83-3.94 3.41-5.97 5.13-3.51 2.97-4.02 7.6-6.35 11.41q-5 8.15-14.01 11.78a1.6 1.56 4.7 00-.74.61c-6.56 10.35-12.53 18.62-26.73 13.02a.94.93-51.4 00-.87.1q-4.71 3.28-10.35 4.29a.75.74-88.8 00-.59.57q-1.32 5.93-.74 11.81-.07 4.07 1.34 8.08a.46.45 67.6 00.62.26c4.71-2.15 11.46-5.71 15.42-1.5a.77.77 0 00.81.2q5.31-1.84 10.67-3.39c12.04-3.51 26.36-2.66 38.64-.73q9.85 1.86 18.38 7.13a.49.49 0 00.67-.15q9.68-14.46 11.08-31.94.06-.7-.39-.16c-6.14 7.5-12.77 13.95-21.49 17.95q-1.52.85-2.79-.04c4.66-8.66 10.03-17.23 13.97-26.23 1.88-4.29 5.59-10.54 2.94-14.51q-5.9-8.86-4.37-19.72.24-.56.68-.8a.62.6-33.5 01.79.15l1.28 1.65q4.65 9.55 14.99 7.19c13.73-3.13 24.04-9.03 36.95-17.95q15.01-10.38 30.31-20.32l3.23-2.47q.42-.32.48.2c.11.9-13.92 19.04-15.24 20.81q-1.32 1.76.85 1.38l17.98-3.14a1.17 1.17 0 00.96-1.3c-.23-1.78 0-8.77 2.7-9.19q-.26 4.16.58 8.25.21 3.12 2.19 5.42 3.19 4.62 8.27 6.79h1.75l.37.14a.66.65 34.6 00.68-.12l2.95-2.69.96-1.54 2.02-4.68a.63.63 0 00-.43-.86l-2.11-.52a.44.43-84.4 00-.53.44l.05 1.87-3.73-.29c-7.22-8.39-1.34-21.55 4.11-29.02a.82.8-41 00.07-.85c-4.63-8.93-14.16 4.67-15.45 9.16zm-143.71-.04q-1.57.07-2.79 1.04l-2.96 2.21-5.35-.07q-2.95.84-3.83-1.85a.43.43 0 00-.59-.26q-7 3.31-13.16-1.4l-2.61-3.56a.66.66 0 00-.76-.23q-4.68 1.79-7.03 6.35c-5.49 10.68-8.65 22.48-4.13 34.56l1.02 2.68a.66.66 0 01-.95.81q-3.56-2.01-5.58-5.55a.35.35 0 00-.58-.04c-4.03 5.2-6.92 10.19-5.66 17.1q.28 4.31 2.3 8.73-.96.76-2.4.1a.33.33 0 00-.47.28c-1.09 15.7 14.26 24.41 26.66 14.11 1.63-1.35 2.11-3.21 3.17-5.05q.58-1.01.48.16l-.32 3.63a.92.92 0 00.37.83c6.81 5.06 15.52-.04 18.48-6.83a.5.49 7.1 00-.54-.68q-4.41.69-8.73-.31a.4.39-39.3 01.08-.78q3.66-.13 7.38-1.4 16.07-4.16 20.32-20.02a.58.58 0 00-.36-.7q-.75-.27-1.21.27l-3.32-.09q-1.69-1.52-.89-2.5l.92.25q.31.68 1.04.52c17.52-3.86 27.36-21.14 16.71-37.27q-4.26-6.18-10.08-10.89a1.89 1.86-79.8 01-.58-.85q-.63-1.87-2.09-3.17a.64.63 26.3 00-1.05.35c-.84 4.33-4.82 8.96-9.71 6.73a.47.46-71.3 00-.64.32l-.56 2.47zm-9.68.58q2.15.49 4.21-.39a1.45 1.45 0 00.68-2.08l-1.23-2.04a.85.85 0 00-.92-.39q-3.96.92-6.26 4.22-.6.85.43.77l2.1-.16q.5-.04.99.07zm218.65-3.46l1.68 9.68a.6.6 0 00.59.49h1.9a.53.53 0 00.51-.67c-1.04-3.87-.46-7.02-3.75-10.01q-1.21-1.11-.93.51zm-6.08 8.73a.33.33 0 00.31.2l2.97-.01a.33.33 0 00.32-.4l-1.46-7.11a.33.33 0 00-.49-.22l-3.64 2.08a.33.33 0 00-.14.42l2.13 5.04zM185.38 198.8c1.01 1.8 3.91 5.03 6.04 2.88a.73.71-38.4 00.11-.87l-3.25-5.37a.8.79 62.6 01.35-1.13c1.01-.44 4.75 4.58 5.63 5.51a1.94 1.93-34 002.24.43c2.71-1.25-.89-5.99-1.72-7.61a.6.59 70.9 01.41-.86c2.9-.59 4.36 8.27 8.21 4.05a.73.72 52.8 00.11-.82c-1.99-3.87-4.37-7.1-9.15-6.04a1.21 1.2-80.7 00-.79.57q-1.34 2.26-3.98 1.2a.93.92-52.6 00-.93.13c-1.9 1.46-2.64 4.1-5.67 3.13a1.3 1.29-67.6 00-1.55.65l-1.88 3.71a2.05 2.01 87.9 01-.7.77q-3.19 2.02-3.63 5.86c-.07.58-.64 1.26.38 1.69a.63.63 0 00.78-.25l1.21-1.89a.48.48 0 01.65-.16l5.02 2.91a1.06 1.06 0 001.16-.06l2.21-1.66a.52.52 0 00.05-.79c-1.2-1.16-5.93-4.72-4.15-6.41q1.7-1.6 2.84.43zm22.61 44.49c2.1 3.39 4.69 5.9 7.56 8.62a.41.41 0 00.63-.08c2.92-4.68 5.62-9.94 5.29-15.66q-.31-5.34-.52-10.68c-.29-7.88 7.25-14.51 11.05-20.29a.48.48 0 00-.52-.73l-18.84 4.76a.81.79-2.4 00-.59.63c-1.3 7.28-6.96 7.04-9.54 13.14a.71.7 33.1 00.17.8c5.79 5.44 1.54 13.38 5.31 19.49zm163.3-12.79l-4.82 16.73q-.13.45.31.26 3.13-1.37 5.47-3.7 6.84-3.66 12.8-8.37c3.57-2.83 4.02-5.16 5.26-9.36q4.26-14.44 5.61-20.51a.42.41-1.8 00-.52-.48l-20.53 5.98a1.31 1.3-6.5 00-.93 1.16q-.65 9.3-2.65 18.29zm-164.103-20.23a2.41 2.41 0 00-2.564-2.245l-3.053.202a2.41 2.41 0 00-2.245 2.565l.048.718a2.41 2.41 0 002.564 2.245l3.053-.202a2.41 2.41 0 002.245-2.565l-.048-.718zm-15.117 9.4l-1.45 2.39a.54.54 0 00.22.76c3.97 2 8.75-2.11 10.67-5.37a.51.51 0 00-.2-.7l-4.22-2.24a.58.58 0 00-.67.1l-1.92 1.85a.85.84-51.3 01-1.02.12l-2.78-1.68a.47.46 29.8 00-.65.17c-1.46 2.61-5.22 1.89-7.84 2.23a.67.67 0 00-.59.6l-.5 5.34a.9.9 0 00.34.78c1.08.84 3.52-.55 4.89-.55a1.28 1.25 21.6 00.91-.38q1.99-2 2.94-4.68a.58.58 0 01.89-.28l.79.59a.72.72 0 01.19.95zm-13.57 21.04c-1.12-5.21-3.69-9.36-4.14-14.62a.42.42 0 00-.77-.18l-1.13 1.84-3.43 4.09q-.33.39-.8.56-1.72.63-3.06 1.95a1.11 1.1-64.1 01-.88.31l-.76-.08c-2.78-2.26.29-8.82 1.56-11.35a.35.35 0 00-.52-.43l-5.12 3.95a.96.95 40.3 01-1.04.08c-2.72-1.53-.07-4.95 1.02-6.66a.32.32 0 00-.45-.43q-5.36 3.84-8.71 9.52a.52.51-76.8 00.48.78q4.78-.4 8.57 2.36a.94.94 0 01.38.86c-.55 4.89-1.77 8.07-1.2 12.9a1.6 1.6 0 002.71.95c4.01-3.95 7.06-7.92 13.18-3.98q.39.25.84.32 1.26.18 2.46.55a.9.9 0 00.91-.24q1.32-1.42-.1-3.05zm18.5-12.67q-1.04 3.11-1.04 6.46-2.39 7.3-7 13.5-2.79 2.3-6.21 3.54-3.24.56-6.46.1a.46.45 5.2 00-.52.43q-.03 1.29.63 2.06.88 2.15 3.18 2.45c10.2 1.35 15.55-4.82 21.01-12.23q2.23-3.03 2.12-6.35l-.25-7.73a1.09 1.09 0 00-.45-.84l-3.72-2.66a.41.4-56.3 00-.58.12l-.71 1.15zm-9.55 5.9a.74.73-8.6 01-1.16-.85l2.03-4.5q.24-.52-.33-.41l-5.53 1.02a.89.89 0 00-.68 1.19c1.74 4.68 3.55 8.76 1.86 13.83q-.16.49.33.34c4.45-1.31 7.41-9.29 8.28-13.14a.44.44 0 00-.3-.51l-.32-.09a.87.86 32 00-.83.19l-3.35 2.93zm50.15 43.37q3.19-1.83 3.61-4.81c1.33-3.39 6.82-5.27 10.05-6.14a.49.48-16.1 00.34-.61q-3.21-10.23-1.35-20.79a.55.55 0 00-.44-.64q-5.43-.99-10.46-3.23a.5.5 0 00-.66.27c-1.65 3.91-4.18 7.85-5.09 11.61-1.43 5.85-1.31 13.78.46 19.57q.9 2.92 3.54 4.77zm-20.31-7.56l.56-3.76q.11-.76.32-.02l.29 1.03q3.47 8.52-1.07 16.15c-.49.81-.55 1.87-.68 2.79a1.04 1.04 0 001.21 1.17c3.56-.64 6.03-1.92 7.03-5.67 4.35-16.28-11.08-23.83-19.97-33.91a.56.56 0 00-.85.02q-5.74 7.05-12.12 13.47-1.62 1.63.04 3.67c5.87 7.26 11.18 14.03 18.27 17.37a1.64 1.62 52.9 00.96.14c5.02-.77 6.4-8.04 6.01-12.45zm48.75-3.57c-3.39-.67-18.78 5.61-21.1 8.39a1.01.98-32.7 00-.2.87q1.44 5.64 1.55 7.55c.32 5.68 17.36-2.74 20.08-3.74a1.1 1.1 0 00.72-1.06l-.36-11.19a.88.87-85.3 00-.69-.82zm-7.99 21.21c-1.31 2.89-3.2 6.57-3.92 9.55q-.12.5.36.33c6.91-2.49 13.09-4.28 19.65-9.11 7.03-5.18 13.17-11.75 21.84-16.31a.22.22 0 00-.15-.41q-11.37 2.35-22.53 5.87-1.97.62-2.03 3.2a.97.96 75.5 01-.46.79q-5.68 3.41-12.01 5.42a1.26 1.25-86.5 00-.75.67zm-19.8 22.82q.38 6.64 2.78 12.84a.75.74 80 00.68.48c6.79.21 16.13-4.27 21.12-7.93q14.14-10.39 24.42-16.56 9.26-5.39 16.33-7.41c23.27-6.65 49.59 6.87 65.17 23.16 5.91 7 10.56 14.02 10.75 23.42q.01 2.28-2 2.5l-.13-3.81q-2.11-6.13-6.62-10.58a.36.36 0 00-.58.13q-4.34 11-10.5 21.1a.42.42 0 00.22.61c7.91 2.77 22.07-7.26 25.95-13.48 3.19-5.09 1.38-10.62-1.06-15.72q-10.65-22.24-30.49-34.46c-17.15-10.91-38.03-15.13-57.02-7.08-6.91 2.93-13.63 8.69-20.08 13.46q-16.91 12.49-38.01 13.3a.61.6-88.9 00-.58.56l-.35 5.47zm14.48-20.88c-3.97 1.01-7.04 1.41-9.24-2.83a.67.67 0 00-1.17-.04c-1.92 3.1-2.9 6.74-4.82 9.47-6.2 8.83-13.94 15.38-22.68 21.8-2.77 2.03-5.99 3.28-9.07 4.95q-.45.24.06.25 8.76.2 17.56-.01c5.85-.14 11.05-5.3 10.81-11.25-.2-4.78-2.28-13.62 6.08-12.9q2.14.18 6.63-.14a1.14 1.14 0 00.82-.45l5.74-7.8a.68.67 10.8 00-.72-1.05zM301 300.54l-4.25 1.42q-23.57 8.65-37.54 29.54c-3.75 5.61-.39 12.97 2.21 19.09q.8 1.88 2.49 3.18 7.21 5.52 14.07 11.49c6.1 5.3 10.93 11.68 16.01 18.06a.68.67 59.1 00.79.2q16.87-7.09 35.18-7.73a.82.81-85 00.77-.65q.89-4.51-.1-8.93c-2.86-12.74-23.39-23.05-34.38-27.17q11.17-1.91 21.46 1.91a.7.7 0 00.8-1.08q-3.71-4.73-9.27-6.84-.21-.08 0-.02 1.97.59 3.7 0 10.14-.93 13.51 7.5.18.45.47.05c4.81-6.72 14.52-29.85 5.19-35.9q-14.2-9.21-31.11-4.12zM183.83 332.6q-3.79 6.63-3.95 14.44a1.7 1.69 26.9 00.35 1.06q4.53 5.87 10.58 10.14a.56.56 0 00.79-.15l4.45-6.68a.58.57 44.6 00-.01-.64l-2.72-3.91a1.2 1.19 76.1 00-.86-.52q-5.67-.69-10.48 2.21a.53.53 0 01-.76-.66c1.92-4.6 5.88-4.68 10.03-5.43l23.5.5q7.89.14 15.22-2.59a.93.91 85.4 00.57-.68q.95-5.07-.79-9.98.15-1.28-.29-2.55a.52.51-18.3 00-.65-.32c-6.35 2.03-18.39.57-24.83-.29-6.64-.89-18.06-2.94-20.15 6.05zm57.17.11l-4.75 1.64a.69.68 80.7 00-.45.63l-.16 7.36a2.22 2.22 0 01-1.41 2.02q-9.13 3.59-18.69 3.41c-4.7-.08-14.98 11.33-18.8 14.42-4.7 3.82-18.73 24.8-17.55 30.57.92 4.47 5.46 15.32 10.49 18.51q9.22 5.84 16.9 13.73a.68.67-10.7 01-.75 1.09l-12.06-5.03a.37.36-81.9 00-.5.38q.97 7.64 7.56 11.28a.95.93-45.6 00.94-.02c1.4-.84 2.88-1.86 4.06-3.14q11.76-12.82 29.26-15.46a1.18 1.18 0 00.94-1.54q-3.01-9.03-9.38-15.96-2.69-2.92-6.53-3.97-2.92-3.47-7.67-4.35a.2.13.4 01-.14-.09l-.1-.3a.24.23-7.4 01.24-.3l17.72 1a.59.58 6.6 00.61-.48c.51-2.99-7.85-5.77-10.02-6.62a1.04 1.03 1.9 01-.6-.64l-.11-.37a.54.53 81 01.5-.7l4.95-.07q5.72.26 10.71 2.74a.57.56-59.5 00.72-.19c5.34-7.83 11.27-13.85 17.03-20.68a.59.58 48.6 00.04-.72q-5.26-7.42-7.79-16.11L244 332.04a.4.39 74.1 00-.53-.3l-2.47.97zm13.274 33.51a.88.48 116 00.817-.58.88.48 116 00-.045-1 .88.48 116 00-.817.58.88.48 116 00.045 1zm30.416 24.74c2.59-.64 5.61-2.98 3.25-5.91q-5.11-6.36-11-12.09a.21.21 0 00-.35.19c1.59 7.74 1.1 11.65 7.24 17.57a.93.91 59.8 00.86.24zm203.25-13.4q.46.36 1.11.08a.36.35-46.9 00-.02-.66c-15.28-5.21-29.21-.95-42.75 6.28q-41.65 22.26-82.85 45.33c-23.67 13.25-48.92 24.16-74.26 33.8q-58.47 22.23-117.38 43.26c-8.45 3.02-19.15 7.43-28.89 10.72-11.97 4.04-31.38 10.2-31.18 26.1q.01.5.23.05 5.46-10.91 15.35-15.46c12.7-5.83 30.3-10.42 43.81-15.19q76.44-27.03 137.59-51.66 47.8-19.26 92.36-45.15 20.56-11.94 41.21-23.72c15.03-8.57 28.54-13.33 45.67-13.78zm-236.98 36.59c5.2 1 10.12 3.96 11.55 9.35 1.37 5.2 2.6 13.68-2.53 16.82a.64.64 0 00-.29.73c2.57 9.24 2.52 16.33 4.41 24.51a.42.42 0 00.57.3l39.35-15.6a.66.66 0 00.42-.72q-.59-4.05-2.14-8.11-4.29-11.22-9.42-22.19a.95.94-7.7 00-.71-.54q-13.11-2.23-13.55-15.33c-.08-2.44.97-4.08 2.09-6.15a.65.64 34.2 00-.16-.8q-.33-.27-.77-.18a1.67 1.66-39.6 01-.99-.09c-6.24-2.57-8.81-4.92-9.61-11.9a1.56 1.56 0 00-2.29-1.2q-12.01 6.43-21.83 15.87a.72.72 0 00-.09.92q4.23 6.21 5.37 13.66a.78.77-89 00.62.65zm36.25-14.65q-.47.51-.58.93l-1.13 2.28q-.88 6.25 4.48 9.34a.61.6-54.4 00.76-.13c6.97-8.13 18.89-13.63 29-16.46q7.6-2.12 19.51-1 .3.12.59.07a.65.65 0 00.52-.65c-.22-7.57-4.97-11.08-12.28-10.96-12.69.21-33.44 5.04-40.87 16.58zm177-5.98a1.49 1.49 0 00-1.49-1.49 1.49 1.49 0 00-1.49 1.49 1.49 1.49 0 001.49 1.49 1.49 1.49 0 001.49-1.49zM309.04 440l1.83 6.52a.45.45 0 00.6.3q12.75-4.84 25.04-10.76c1.58-.23 2.37-1.1 2.27-2.78q-.81-13.32-3.23-25.98a2.17 2.15-5.4 00-2.14-1.76c-11.24.11-23.56 1.91-32.34 8.86a.72.71 61.7 00-.23.79l8.2 24.81zm-104.33 1.25q-1.36 1.01-.92 2.75-.82 5.92 2.65 10.6a.37.36-46.3 00.59-.02q3.87-5.75 9.51-9.83c10.81-8.23 20.98-11.51 33.7-14.3 1.36-.3 1.81-1.15 1.47-2.45q.96-5-2.79-7.99a1.59 1.55 65.4 00-.88-.34c-9.98-.49-23 2.8-31.19 8.78-3.76 2.74-10.59 8.31-12.14 12.8zm32.66 3.2q-4.78 1.51-13.56 5.91c-6.61 3.3-3.28 6.12-1.91 10.75q2.65 9 6.03 17.83a.55.55 0 00.66.34q4.94-1.3 9.48-3.79l13.28-4.5a.8.79 84.2 00.53-.66q.21-1.82-.42-3.58-.88-11.92-4.67-23.35-.07-.66-.46-1.24a.82.8-20.5 00-.79-.35q-4.38.62-8.17 2.64zm157.943 34.723a1.12.7 83.7 00.573-1.19 1.12.7 83.7 00-.819-1.036 1.12.7 83.7 00-.573 1.19 1.12.7 83.7 00.819 1.036z"/><path fill="#95989b" d="M378.65 120.15q-.5 2.18 1.27 3.16c3.7 2.07 7.05 6 7.87 9.62q.69 3.04-2 1.47-5.56-3.26-11.93-4.18a.89.86 27.5 00-.71.21q-.75.65-.15 1.28-.07-.07-.19.11a.39.39 0 00.04.5q8.47 8.5 9.08 20.67a.78.78 0 01-.57.8q-5.34 1.49-11.11 2.72c-8.32 1.77-14.03-3.3-22.06-3.19q-5.24.07-10.44.12-8.55.11-16.44 3.49c-.98.42-1.29 1.07-1.27 2.07q-3.35-1.27-4.61-4.35-1.09-3.35-2.91-6.45c-4.66-7.9-1.36-16.93-3.66-25.68a1.28 1.28 0 00-.57-.77q-4.21-2.51-6.73-6.8a.75.74-41.9 01.05-.85q.74-.95.14-2.14l5-.67.28 1.07a.64.63 78.4 00.69.46c1.39-.18 13.48-1.45 13.57-2a.49.48-83.4 00-.44-.56l-.6-.05c7.64-1.1 14.54-.11 21.84.54 10.94.97 27.09 3.64 36.56 9.4zM262.25 119.62q-5.06.43-8.31 4.34c-.65.78-1.38 1.05-2.19 1.58q-1.41-.39-2.75.17c-.32-3.67 4.75-5.07 2.75-7.25 6.66-4.85 20.15-10.66 28.7-7.57q5.65 2.04 11.39 4.72a.43.42-24.4 01-.3.79q-15.13-4.32-29.29 3.22z"/><path fill="#a5a7a7" d="M320.25 110.21l.6.05a.49.48-83.4 01.44.56c-.09.55-12.18 1.82-13.57 2a.64.63 78.4 01-.69-.46l-.28-1.07 13.5-1.08zM301.75 111.96q.6 1.19-.14 2.14a.75.74-41.9 00-.05.85q2.52 4.29 6.73 6.8a1.28 1.28 0 01.57.77c2.3 8.75-1 17.78 3.66 25.68q1.82 3.1 2.91 6.45-6.41-3.55-6.56-10.44c-.17-7.07.33-13.47-2.14-20.7a1.92 1.9-79.5 00-.57-.84q-4.83-4.14-8.36-9.46a.38.37 67.9 01.24-.58l3.71-.67zM251.75 118.46c2 2.18-3.07 3.58-2.75 7.25q-2.72 1.95-3.21 2.85c-6.05 10.9-13.99 20.77-27.81 16.88a.59.59 0 01.06-1.14c10.25-1.76 13.94-5.99 21.09-14.36q5.56-6.52 12.62-11.48zM262.25 119.62q-7.09 3.94-12.3 11.04a.4.4 0 01-.67-.42l2.47-4.7c.81-.53 1.54-.8 2.19-1.58q3.25-3.91 8.31-4.34z"/><path fill="#fff" d="M260.25 140.04l-4.21-2.54-1.83-3.25c6.52-9.35 16.5-14.81 28.01-14.33 6.01.24 15.41 1.83 20.22 6.07a1.59 1.58-72.6 01.52 1l1 8.63q.1.89-.61.35c-10.47-7.91-20.03-6.34-32.31-2.95q-5.4 1.5-10.79 7.02z"/><path fill="#a5a7a7" d="M378.65 120.15c7.11 3.65 11.23 10.84 12.79 18.57a.52.52 0 01-.8.54c-5.92-3.94-9.4-7.21-17.64-7.55q-.6-.63.15-1.28a.89.86 27.5 01.71-.21q6.37.92 11.93 4.18 2.69 1.57 2-1.47c-.82-3.62-4.17-7.55-7.87-9.62q-1.77-.98-1.27-3.16z"/><path fill="#95989b" d="M254.21 134.25l1.83 3.25-1.29 6.43a.58.57-82.2 01-.61.47c-2.36-.2-.71-7.17-.15-8.65a.4.4 0 00-.18-.5q-.15-.08-.31-.04l.71-.96z"/><path fill="#fff" d="M211.44 145.28l.46-4.19a.64.64 0 00-1.06-.55c-2.92 2.63-5.29.96-8.49.3a.32.32 0 00-.38.36q.16 1.01-.86 1.92c-.58-15.14 17.63-7.93 10.33 2.16z"/><path fill="#a5a7a7" d="M253.5 135.21q.16-.04.31.04a.4.4 0 01.18.5c-.56 1.48-2.21 8.45.15 8.65a.58.57-82.2 00.61-.47l1.29-6.43 4.21 2.54q-2.79 2.22-3.83 5.63a1.49 1.48 81.1 01-.56.77q-2.21 1.56-3.75-1.17-2.73-4.85 1.39-10.06z"/><path fill="#fff" d="M292.24 135.55a.32.32 0 010 .64q-12.77 1.51-25.14 5.05-.6.17-.11-.22c5.91-4.66 17.21-6.25 25.25-5.47z"/><rect fill="#fff" x="-1.37" y="-6.6" transform="rotate(6.9 -1067.83 2455.483)" width="2.74" height="13.2" rx="1.31"/><path fill="#fff" d="M266.65 144.6c4.18-2.23 10.49-2.6 16.82-4.31a.35.35 0 01.43.41q-1.3 6.04-1.14 12.26a.84.83-12.1 01-.52.8c-1.79.76-2.83.99-4.34 2.41-5.91 5.56-16.18.41-13.98-7.98q.65-2.49 2.73-3.59z"/><path fill="#95989b" d="M211.44 145.28q-6.54 4.45-10.33-2.16 1.02-.91.86-1.92a.32.32 0 01.38-.36c3.2.66 5.57 2.33 8.49-.3a.64.64 0 011.06.55l-.46 4.19z"/><path fill="#fff" d="M478.4 150.44l1.31 6.04a.49.49 0 01-.65.56q-6.2-2.31-12.86-2.39a.61.61 0 00-.61.72c.54 2.96 10.44 6.13 13.42 6.81 5.24 1.21 1.53 7.15-2 7.87a1.5 1.47 51.1 01-.93-.11c-4.23-1.98-12.9-6.65-15.93-3.4a1.28 1.28 0 01-.84.41c-2.84.25-5.81-1.2-5.78-4.39.03-3.72 3.75-8.53 7.2-9.79q3.66-1.34 7.45-2.2c4.01-.9 8.56-3.07 12.22-4.93q1.36-.7 2.87-1.02a.96.95-29.5 01.84.23l10.01 8.86a.29.28 50.2 01-.04.46c-9.26 5.66-8.77-4.33-15.16-4.36a.53.52-5.8 00-.52.63z"/><ellipse fill="#fff" transform="rotate(-37 477.476 -694.72)" rx="1.94" ry=".98"/><path fill="#a5a7a7" d="M218.79 185.25c2.54 2.4 4.83-.78 7.18-1.83a1.49 1.47-89.2 00.7-.69q4.97-10.33 14.45-16.89a1.42 1.42 0 00.56-.78q1.09-3.69 3.05-8.34 1.7-4.01-2.07-6.24a1.05 1.01 49.9 00-.89-.09q-6.39 2.34-12.94 4.18c-3.54 1-6.92.58-10.62.81a.68.68 0 00-.62.53c-.25 1.04-.27 1.8-.84 2.78-1.52 2.61-1.73 5.5-2.92 7.97-1.84 3.85-4.46 8.48-4.11 12.83a1.43 1.37 59.4 01-.19.81q-1.01 1.67-1.25 3.61a.38.38 0 00.39.43l1.58-.05q-2.12 2.74-2.95 6.72-.06.32-.39.3a.47.46 3.9 01-.43-.48c.42-12.94 5.23-23.96 10.93-36.03a.97.96 7.2 01.7-.54c4.23-.77 8.62-.4 12.42-1.54q6.85-2.05 13.02-5.7a.41.41 0 01.58.17l3.07 6.31a1.21 1.18 41.1 01.07.88l-3.82 11.82a1.71 1.7 79.9 01-.59.85c-6 4.66-9.59 7.6-12.81 13-3.22 5.4-7.52 8.27-13.52 9.8q-.5.12-.24-.32l2.5-4.28z"/><path fill="#fff" d="M447.73 179.96c-9.74-2.33-10.23-11.95-11.27-20.71 1.29-4.49 10.82-18.09 15.45-9.16a.82.8-41 01-.07.85c-5.45 7.47-11.33 20.63-4.11 29.02z"/><path fill="#95989b" d="M317.46 164.25q-1.34.17-.97 1.27c1.88 5.5 4.6 12.23 2.79 17.57q-2.91 8.62-9.77 12.92c-.35.22-9.41 3.09-9.8 4.99l-.92-.25c-.55-3.15.63-4.07 3.57-4.76 7.79-1.83 16.21-8.69 15.59-17.46-.64-8.88-5.01-19.23-13.35-23.61a.85.84-51.4 00-.95.11l-2.27 1.97a1.37 1.36-18.2 00-.46.9c-.28 2.75-6.08 1.8-8.17 1.31l.56-2.47a.47.46-71.3 01.64-.32c4.89 2.23 8.87-2.4 9.71-6.73a.64.63 26.3 011.05-.35q1.46 1.3 2.09 3.17a1.89 1.86-79.8 00.58.85q5.82 4.71 10.08 10.89zM218.79 185.25l1.5-2.79q1.1-2.07-1.01-3.08c-3.1-1.47-7.22 2.81-9.03 4.91l-1.58.05a.38.38 0 01-.39-.43q.24-1.94 1.25-3.61a1.43 1.37 59.4 00.19-.81c-.35-4.35 2.27-8.98 4.11-12.83 1.19-2.47 1.4-5.36 2.92-7.97.57-.98.59-1.74.84-2.78a.68.68 0 01.62-.53c3.7-.23 7.08.19 10.62-.81q6.55-1.84 12.94-4.18a1.05 1.01 49.9 01.89.09q3.77 2.23 2.07 6.24-1.96 4.65-3.05 8.34a1.42 1.42 0 01-.56.78q-9.48 6.56-14.45 16.89a1.49 1.47-89.2 01-.7.69c-2.35 1.05-4.64 4.23-7.18 1.83z"/><path fill="#a5a7a7" d="M433.29 160.5q.1.35-.11.65a.53.53 0 01-.73.14q-3.37-2.26-1.2-6.13a1.3 1.3 0 00-1.24-1.94q-1.99.16-3.68-.5a1.54 1.51 49.6 00-.9-.08l-24.89 5.19a.86.85 79.9 01-1.02-.72q-.06-.49.23-.82 6.17-.97 12.33-2.08c7.59-1.37 14.3-5.16 22.01-1.12a.6.59-67.6 01.29.71q-1.05 3.27-1.09 6.7z"/><path fill="#95989b" d="M433.29 160.5l.78 2.03q.18.47.43.04l1.96-3.32c1.04 8.76 1.53 18.38 11.27 20.71l3.73.29c.11 1.08-.82 3.85 1 3.75l-.96 1.54q-3.17-.31-4 2.67h-1.75q-1.18-3.15-4.29-4.01a1.37 1.37 0 01-.76-.51q-1.26-1.66-3.22-2.27-1.98-2.3-2.19-5.42c1.46.03 1.85-.95 1.57-2.25-.19-.89-1.07-7.53-1.48-7.53a.33.33 0 00-.33.34q.02.66-.34 1.19c-2.7.42-2.93 7.41-2.7 9.19a1.17 1.17 0 01-.96 1.3l-17.98 3.14q-2.17.38-.85-1.38c1.32-1.77 15.35-19.91 15.24-20.81q-.06-.52-.48-.2l-3.23 2.47q.34-1.01-.28-1.52a.7.69-43.4 00-.84-.02c-1.91 1.36-3.4 3.02-5.29 4.25q-7.87 5.11-15.58 10.46c-4.72 3.27-10.38 6.4-15.42 9.91-3.1 2.16-7.61 3.96-10.87 7.14-.94.91-5.88 1.92-7.77 2.77q-7.22 3.27-15.2 3.84c-3.54.26-6.65-3.52-9.17-5.5a1.38 1.35 61.7 00-.92-.29l-.91.04-1.28-1.65a.62.6-33.5 00-.79-.15q-.44.24-.68.8c-2.54-.12-2.1 4.51-2.17 6.01-.15 3.13 1.61 5.81 1.88 9.15a1.72 1.69 23 00.41.99l2.82 3.33a1.98 1.9 20.9 01.44.93c1.13 6.56-4.12 15.69-7.41 21.33-3.81 6.53-6.3 11.32-9.43 17.02-.49.91-.24 1.76.92 1.7q1.27.89 2.79.04c.59 3.99 15.05-8.32 16.46-8.56q1.18-.21 2 .49a.76.75 30.5 01.22.82q-1.62 4.61-3.27 9.21c-1.13 3.15-3.22 6.17-4.55 9.5a.53.52 19.9 01-.66.3c-5.1-1.81-12.73-6.07-17.96-5.77a.64.64 0 00-.6.55q-.05.34.11.63c-12.28-1.93-26.6-2.78-38.64.73q-5.36 1.55-10.67 3.39a.77.77 0 01-.81-.2c-3.96-4.21-10.71-.65-15.42 1.5a.46.45 67.6 01-.62-.26q-1.41-4.01-1.34-8.08 2.36-3.44 1.53-7.96a2.6 2.59-10.7 012.06-3.01c3.03-.59 8.55-4.6 11.09-3.73 5.39 1.84 12.19.52 17.01-2.99 3.24-2.35 5.94-7.01 9.21-10.28a.96.96 0 00.28-.7c-.03-.77.28-.42.49-.52 10.39-5 13.45-10.5 18.47-21.3q.91-1.95 2.64-3.36 5.93-4.86 7.77-8.14c4.75-8.46 4.97-13.63 3.57-23.48a1.03 1.03 0 00-.51-.75q-.55-.33-1.15.18l-1.24-3.71a.62.61 65.8 01.27-.73l3.51-2.02c.04 1.06.67 1.16 1.5.81q3.51-1.46 7.85-1.89a.49.48 9.7 01.49.69q-1.22 2.64-.69 5.66l-.28 3.88q-.03.46.23.08l1.36-2.02q1.19 1.22 1.99-.06c2.74-4.37 6.22-8.39 11.81-7.72q13.3 1.61 25.88-1.69a.87.87 0 00.62-.62q.15-.6-.26-.95 10.32-2.91 21-3.67-.29.33-.23.82a.86.85 79.9 001.02.72l24.89-5.19a1.54 1.51 49.6 01.9.08q1.69.66 3.68.5a1.3 1.3 0 011.24 1.94q-2.17 3.87 1.2 6.13a.53.53 0 00.73-.14q.21-.3.11-.65zm-75.04 21.79l-.94 1.1q-.31.36.17.36h.48l.89.91a.94.93-28.6 00.86.25c12.9-2.99 23.42-8.44 33.89-16.43a1.3 1.27 77.2 00.49-.8c.46-2.46-.76-4.66-3.21-5.25-2.45-.59-5.41 1.1-8.75 2.74-2.93 1.44-6.63 1.96-9.47 5.32q-.33.38-.79.57c-5.24 2.05-9.13 5.24-13.9 8.23a2.08 2.07-20.7 00-.94 2.07q.13.79 1.22.93z"/><path fill="#a5a7a7" d="M337.75 153.44q-7.23 1.74-13.84 4.43-1.88.77-3.87 1.13c-.02-1 .29-1.65 1.27-2.07q7.89-3.38 16.44-3.49z"/><path fill="#fff" d="M298.79 200.75q-.8.98.89 2.5-2.84 4.95-7.11 8.64c-3.3 2.84-8.08 4.87-12.24 6.87-2.87 1.38-2.58 4.29-5.44 5.75q-6.83 3.49-13.23-1.22a1.17 1.17 0 01.14-1.97l3.47-1.84a.38.38 0 00.1-.59q-.13-.15-.4-.16c-11.48-.58-15.16-9.45-11.29-19.38a.29.28 37.3 01.49-.06l3.97 5.24a.72.72 0 001.22-.74q-8.69-18.49-1.87-37.52 1.16-3.26 3.67-3.37a1.1 1.09 66.3 01.82.32q4.24 4.28 9.88 6.49a.88.87-53.2 00.87-.13l8.92-7.19 5.35.07q2.64.37 2.96-2.21 1.22-.97 2.79-1.04c2.09.49 7.89 1.44 8.17-1.31a1.37 1.36-18.2 01.46-.9l2.27-1.97a.85.84-51.4 01.95-.11c8.34 4.38 12.71 14.73 13.35 23.61.62 8.77-7.8 15.63-15.59 17.46-2.94.69-4.12 1.61-3.57 4.76zm-16.84-22.02c6.81 1.71 16.05.2 18.43-7.57a.61.61 0 01.67-.43q5.13.71 8.3-3.37.35-.45-.22-.45c-3.26.02-5.75.38-9.12-.6-10.16-2.94-16.62 3.53-24.19 8.83-2.96 2.07-5.08 2.42-8.55 2.8a.31.31 0 00-.08.59c4.62 1.91 10.52-3.62 13.92-.27a1.98 1.97-15.5 00.84.47z"/><path fill="#a5a7a7" d="M264.07 158.88q-2.49 1.57-3.92-1.24a.85.84-12.8 00-.74-.46q-1.57-.02-2.37 1.64c-3.7 7.72-7.8 14.33-8.04 23.55a.5.49-64.3 00.12.35l.18.24a.9.87-60 01.18.71q-1.04 5.95 1.03 11.62a.55.54-19.4 01-.34.7q-.34.12-.63.01c-4.52-12.08-1.36-23.88 4.13-34.56q2.35-4.56 7.03-6.35a.66.66 0 01.76.23l2.61 3.56zM282.08 159.72l-2.1.16q-1.03.08-.43-.77 2.3-3.3 6.26-4.22a.85.85 0 01.92.39l1.23 2.04a1.45 1.45 0 01-.68 2.08q-2.06.88-4.21.39-.49-.11-.99-.07z"/><path fill="#fff" d="M501.72 156.33q-.28-1.62.93-.51c3.29 2.99 2.71 6.14 3.75 10.01a.53.53 0 01-.51.67h-1.9a.6.6 0 01-.59-.49l-1.68-9.68z"/><path fill="#95989b" d="M264.07 158.88q6.16 4.71 13.16 1.4a.43.43 0 01.59.26q.88 2.69 3.83 1.85l-8.92 7.19a.88.87-53.2 01-.87.13q-5.64-2.21-9.88-6.49a1.1 1.09 66.3 00-.82-.32q-2.51.11-3.67 3.37-6.82 19.03 1.87 37.52a.72.72 0 01-1.22.74l-3.97-5.24a.29.28 37.3 00-.49.06c-3.87 9.93-.19 18.8 11.29 19.38q.27.01.4.16a.38.38 0 01-.1.59l-3.47 1.84a1.17 1.17 0 00-.14 1.97q6.4 4.71 13.23 1.22c2.86-1.46 2.57-4.37 5.44-5.75 4.16-2 8.94-4.03 12.24-6.87q4.27-3.69 7.11-8.64l3.32.09q-1.57 5.51-4.9 9.89c-3.54 4.64-8.82 7.48-14.38 9.23a.5.5 0 00-.13.89l.66.44q-3.72 1.27-7.38 1.4a.4.39-39.3 00-.08.78q4.32 1 8.73.31a.5.49 7.1 01.54.68c-2.96 6.79-11.67 11.89-18.48 6.83a.92.92 0 01-.37-.83l.32-3.63q.1-1.17-.48-.16c-1.06 1.84-1.54 3.7-3.17 5.05-12.4 10.3-27.75 1.59-26.66-14.11a.33.33 0 01.47-.28q1.44.66 2.4-.1c2.09-1.56-.1-5.95-.79-7.91a.94.92-1.6 00-.64-.59l-.87-.23c-1.26-6.91 1.63-11.9 5.66-17.1a.35.35 0 01.58.04q2.02 3.54 5.58 5.55a.66.66 0 00.95-.81l-1.02-2.68q.29.11.63-.01a.55.54-19.4 00.34-.7q-2.07-5.67-1.03-11.62a.9.87-60 00-.18-.71l-.18-.24a.5.49-64.3 01-.12-.35c.24-9.22 4.34-15.83 8.04-23.55q.8-1.66 2.37-1.64a.85.84-12.8 01.74.46q1.43 2.81 3.92 1.24zm-5.94 65.91c-4.22-.11-8.41-5.63-9.98-9.12a.41.41 0 00-.62-.16c-2.25 1.69-1.35 5.33-1.28 7.76a1.65 1.6-65.8 00.34.94q3.79 4.9 10.04 4.3a1.04 1.03-81.3 00.85-.63l1.06-2.45a.46.46 0 00-.41-.64z"/><path fill="#fff" d="M495.64 165.06l-2.13-5.04a.33.33 0 01.14-.42l3.64-2.08a.33.33 0 01.49.22l1.46 7.11a.33.33 0 01-.32.4l-2.97.01a.33.33 0 01-.31-.2z"/><path fill="#a5a7a7" d="M423.75 161.46q-15.3 9.94-30.31 20.32c-12.91 8.92-23.22 14.82-36.95 17.95q-10.34 2.36-14.99-7.19l.91-.04a1.38 1.35 61.7 01.92.29c2.52 1.98 5.63 5.76 9.17 5.5q7.98-.57 15.2-3.84c1.89-.85 6.83-1.86 7.77-2.77 3.26-3.18 7.77-4.98 10.87-7.14 5.04-3.51 10.7-6.64 15.42-9.91q7.71-5.35 15.58-10.46c1.89-1.23 3.38-2.89 5.29-4.25a.7.69-43.4 01.84.02q.62.51.28 1.52zM378.75 159.96q.41.35.26.95a.87.87 0 01-.62.62q-12.58 3.3-25.88 1.69c-5.59-.67-9.07 3.35-11.81 7.72q-.8 1.28-1.99.06 4-10.62 15.04-9.5 13.73 1.39 25-1.54z"/><path fill="#95989b" d="M289.96 160.25q-.32 2.58-2.96 2.21l2.96-2.21z"/><path fill="#a5a7a7" d="M337.4 169.06q-.53-3.02.69-5.66a.49.48 9.7 00-.49-.69q-4.34.43-7.85 1.89c-.83.35-1.46.25-1.5-.81q5.84-3.04 12.8-2.88a.41.41 0 01.3.68q-2.72 3.16-3.95 7.47zM357.96 183.75q18.31-3.56 32.94-14.99c2.11-1.65 2.8-2.74.56-4.87a1.57 1.57 0 00-1.38-.39q-3.79.78-7.31 2.73-12.88 7.09-24.52 16.06-1.09-.14-1.22-.93a2.08 2.07-20.7 01.94-2.07c4.77-2.99 8.66-6.18 13.9-8.23q.46-.19.79-.57c2.84-3.36 6.54-3.88 9.47-5.32 3.34-1.64 6.3-3.33 8.75-2.74 2.45.59 3.67 2.79 3.21 5.25a1.3 1.27 77.2 01-.49.8c-10.47 7.99-20.99 13.44-33.89 16.43a.94.93-28.6 01-.86-.25l-.89-.91z"/><path fill="#21201f" d="M357.96 183.75h-.48q-.48 0-.17-.36l.94-1.1q11.64-8.97 24.52-16.06 3.52-1.95 7.31-2.73a1.57 1.57 0 011.38.39c2.24 2.13 1.55 3.22-.56 4.87q-14.63 11.43-32.94 14.99z"/><path fill="#a5a7a7" d="M317.46 164.25c10.65 16.13.81 33.41-16.71 37.27q-.73.16-1.04-.52c.39-1.9 9.45-4.77 9.8-4.99q6.86-4.3 9.77-12.92c1.81-5.34-.91-12.07-2.79-17.57q-.37-1.1.97-1.27z"/><path fill="#21201f" d="M300.38 171.16c-2.38 7.77-11.62 9.28-18.43 7.57a1.98 1.97-15.5 01-.84-.47c-3.4-3.35-9.3 2.18-13.92.27a.31.31 0 01.08-.59c3.47-.38 5.59-.73 8.55-2.8 7.57-5.3 14.03-11.77 24.19-8.83 3.37.98 5.86.62 9.12.6q.57 0 .22.45-3.17 4.08-8.3 3.37a.61.61 0 00-.67.43zm-8.09.37l2.29-1.86q1.07-.88-.31-.73-5.62.6-10.22 3.86-.93.66.21.77l2.42.22q.6.06.23.53c-.69.9-2.66.44-2.66 1.67a.55.55 0 00.51.56c1.43.13 12.16-1.35 12.15-4.49a.61.61 0 00-.73-.59l-3.45.68a.33.33 0 01-.34-.15l-.14-.22a.19.19 0 01.04-.25z"/><path fill="#a5a7a7" d="M435.29 176q-.84-4.09-.58-8.25.36-.53.34-1.19a.33.33 0 01.33-.34c.41 0 1.29 6.64 1.48 7.53.28 1.3-.11 2.28-1.57 2.25z"/><path fill="#fff" d="M292.25 171.78l.14.22a.33.33 0 00.34.15l3.45-.68a.61.61 0 01.73.59c.01 3.14-10.72 4.62-12.15 4.49a.55.55 0 01-.51-.56c0-1.23 1.97-.77 2.66-1.67q.37-.47-.23-.53l-2.42-.22q-1.14-.11-.21-.77 4.6-3.26 10.22-3.86 1.38-.15.31.73l-2.29 1.86a.19.19 0 00-.04.25z"/><path fill="#a5a7a7" d="M253.25 256.29q-.58-5.88.74-11.81a.75.74-88.8 01.59-.57q5.64-1.01 10.35-4.29a.94.93-51.4 01.87-.1c14.2 5.6 20.17-2.67 26.73-13.02a1.6 1.56 4.7 01.74-.61q9.01-3.63 14.01-11.78c2.33-3.81 2.84-8.44 6.35-11.41 2.03-1.72 4.28-3.3 5.97-5.13q10.63-11.5 6.11-27.32.6-.51 1.15-.18a1.03 1.03 0 01.51.75c1.4 9.85 1.18 15.02-3.57 23.48q-1.84 3.28-7.77 8.14-1.73 1.41-2.64 3.36c-5.02 10.8-8.08 16.3-18.47 21.3-.21.1-.52-.25-.49.52a.96.96 0 01-.28.7c-3.27 3.27-5.97 7.93-9.21 10.28-4.82 3.51-11.62 4.83-17.01 2.99-2.54-.87-8.06 3.14-11.09 3.73a2.6 2.59-10.7 00-2.06 3.01q.83 4.52-1.53 7.96zM452.46 184c-1.82.1-.89-2.67-1-3.75l-.05-1.87a.44.43-84.4 01.53-.44l2.11.52a.63.63 0 01.43.86l-2.02 4.68z"/><path fill="#fff" d="M445.75 188.21q-5.08-2.17-8.27-6.79 1.96.61 3.22 2.27a1.37 1.37 0 00.76.51q3.11.86 4.29 4.01zM451.5 185.54l-2.95 2.69a.66.65 34.6 01-.68.12l-.37-.14q.83-2.98 4-2.67zM185.38 198.8q-1.14-2.03-2.84-.43c-1.78 1.69 2.95 5.25 4.15 6.41a.52.52 0 01-.05.79l-2.21 1.66a1.06 1.06 0 01-1.16.06l-5.02-2.91a.48.48 0 00-.65.16l-1.21 1.89a.63.63 0 01-.78.25c-1.02-.43-.45-1.11-.38-1.69q.44-3.84 3.63-5.86a2.05 2.01 87.9 00.7-.77l1.88-3.71a1.3 1.29-67.6 011.55-.65c3.03.97 3.77-1.67 5.67-3.13a.93.92-52.6 01.93-.13q2.64 1.06 3.98-1.2a1.21 1.2-80.7 01.79-.57c4.78-1.06 7.16 2.17 9.15 6.04a.73.72 52.8 01-.11.82c-3.85 4.22-5.31-4.64-8.21-4.05a.6.59 70.9 00-.41.86c.83 1.62 4.43 6.36 1.72 7.61a1.94 1.93-34 01-2.24-.43c-.88-.93-4.62-5.95-5.63-5.51a.8.79 62.6 00-.35 1.13l3.25 5.37a.73.71-38.4 01-.11.87c-2.13 2.15-5.03-1.08-6.04-2.88z"/><path fill="#a5a7a7" d="M338.75 191.54q-1.53 10.86 4.37 19.72c2.65 3.97-1.06 10.22-2.94 14.51-3.94 9-9.31 17.57-13.97 26.23-1.16.06-1.41-.79-.92-1.7 3.13-5.7 5.62-10.49 9.43-17.02 3.29-5.64 8.54-14.77 7.41-21.33a1.98 1.9 20.9 00-.44-.93l-2.82-3.33a1.72 1.69 23 01-.41-.99c-.27-3.34-2.03-6.02-1.88-9.15.07-1.5-.37-6.13 2.17-6.01zM284.25 223.79l-.66-.44a.5.5 0 01.13-.89c5.56-1.75 10.84-4.59 14.38-9.23q3.33-4.38 4.9-9.89.46-.54 1.21-.27a.58.58 0 01.36.7q-4.25 15.86-20.32 20.02z"/><path fill="#fbfee2" d="M215.55 251.91c-2.87-2.72-5.46-5.23-7.56-8.62-3.77-6.11.48-14.05-5.31-19.49a.71.7 33.1 01-.17-.8c2.58-6.1 8.24-5.86 9.54-13.14a.81.79-2.4 01.59-.63l18.84-4.76a.48.48 0 01.52.73c-3.8 5.78-11.34 12.41-11.05 20.29q.21 5.34.52 10.68c.33 5.72-2.37 10.98-5.29 15.66a.41.41 0 01-.63.08z"/><path fill="#a5a7a7" d="M372.25 243.79q5.41-4.93 11.45-9.03.95-.65 2.09-1.13a1.17 1.16-.7 00.64-.65q3.03-7.64 4.47-15.75.78-4.42 2.2-8.24a1.07 1.07 0 00-1.27-1.41l-15.95 4.21a.87.87 0 00-.64.81c-.16 6.48-2.25 12.35-2.52 18.63a.51.51 0 01-.44.48l-.32.05a.35.34-4.3 01-.4-.34q0-.5-.27-.92 2-8.99 2.65-18.29a1.31 1.3-6.5 01.93-1.16l20.53-5.98a.42.41-1.8 01.52.48q-1.35 6.07-5.61 20.51c-1.24 4.2-1.69 6.53-5.26 9.36q-5.96 4.71-12.8 8.37z"/><path fill="#95989b" d="M372.25 243.79q-2.34 2.33-5.47 3.7-.44.19-.31-.26l4.82-16.73q.27.42.27.92a.35.34-4.3 00.4.34l.32-.05a.51.51 0 00.44-.48c.27-6.28 2.36-12.15 2.52-18.63a.87.87 0 01.64-.81l15.95-4.21a1.07 1.07 0 011.27 1.41q-1.42 3.82-2.2 8.24-1.44 8.11-4.47 15.75a1.17 1.16-.7 01-.64.65q-1.14.48-2.09 1.13-6.04 4.1-11.45 9.03z"/><rect fill="#fff" x="-3.94" y="-2.77" transform="rotate(-3.8 3280.24 -2958.454)" width="7.88" height="5.54" rx="2.41"/><path fill="#a5a7a7" d="M237.79 211l.87.23a.94.92-1.6 01.64.59c.69 1.96 2.88 6.35.79 7.91q-2.02-4.42-2.3-8.73zM191.88 218.72l-.79-.59a.58.58 0 00-.89.28q-.95 2.68-2.94 4.68a1.28 1.25 21.6 01-.91.38c-1.37 0-3.81 1.39-4.89.55a.9.9 0 01-.34-.78l.5-5.34a.67.67 0 01.59-.6c2.62-.34 6.38.38 7.84-2.23a.47.46 29.8 01.65-.17l2.78 1.68a.85.84-51.3 001.02-.12l1.92-1.85a.58.58 0 01.67-.1l4.22 2.24a.51.51 0 01.2.7c-1.92 3.26-6.7 7.37-10.67 5.37a.54.54 0 01-.22-.76l1.45-2.39a.72.72 0 00-.19-.95z"/><path fill="#fff" d="M248.15 215.67c1.57 3.49 5.76 9.01 9.98 9.12a.46.46 0 01.41.64l-1.06 2.45a1.04 1.03-81.3 01-.85.63q-6.25.6-10.04-4.3a1.65 1.6-65.8 01-.34-.94c-.07-2.43-.97-6.07 1.28-7.76a.41.41 0 01.62.16z"/><path fill="#a5a7a7" d="M163.53 234.58q-3.45 4.12-2.4 9.16a.31.31 0 00.5.18c3.9-3.06 7.61-4.59 12.4-2.82a.72.7 30.8 00.78-.19q.79-.87 1.98-1.16.56 1.12 1.71.96 1.42 1.63.1 3.05a.9.9 0 01-.91.24q-1.2-.37-2.46-.55-.45-.07-.84-.32c-6.12-3.94-9.17.03-13.18 3.98a1.6 1.6 0 01-2.71-.95c-.57-4.83.65-8.01 1.2-12.9a.94.94 0 00-.38-.86q-3.79-2.76-8.57-2.36a.52.51-76.8 01-.48-.78q3.35-5.68 8.71-9.52a.32.32 0 01.45.43c-1.09 1.71-3.74 5.13-1.02 6.66a.96.95 40.3 001.04-.08l5.12-3.95a.35.35 0 01.52.43c-1.27 2.53-4.34 9.09-1.56 11.35z"/><path fill="#fff" d="M178.5 240.71q-1.15.16-1.71-.96-2.14-4.04-2.95-8.51c-.24-1.35-.96-2.21-1.38-3.49l1.13-1.84a.42.42 0 01.77.18c.45 5.26 3.02 9.41 4.14 14.62zM202.71 238q-1.88 4.25-4.62 7.92c-1.32 1.78-8.79 6.78-9.13 2.08q4.61-6.2 7-13.5l.05.94q.04.58.18.02.91-3.66.81-7.42l.71-1.15a.41.4-56.3 01.58-.12l3.72 2.66a1.09 1.09 0 01.45.84l.25 7.73z"/><path fill="#95989b" d="M172.46 227.75c.42 1.28 1.14 2.14 1.38 3.49q.81 4.47 2.95 8.51-1.19.29-1.98 1.16a.72.7 30.8 01-.78.19c-4.79-1.77-8.5-.24-12.4 2.82a.31.31 0 01-.5-.18q-1.05-5.04 2.4-9.16l.76.08a1.11 1.1-64.1 00.88-.31q1.34-1.32 3.06-1.95.47-.17.8-.56l3.43-4.09z"/><path fill="#a5a7a7" d="M187.45 233.94l3.35-2.93a.87.86 32 01.83-.19l.32.09a.44.44 0 01.3.51c-.87 3.85-3.83 11.83-8.28 13.14q-.49.15-.33-.34c1.69-5.07-.12-9.15-1.86-13.83a.89.89 0 01.68-1.19l5.53-1.02q.57-.11.33.41l-2.03 4.5a.74.73-8.6 001.16.85z"/><path fill="#95989b" d="M197 228.04q.1 3.76-.81 7.42-.14.56-.18-.02l-.05-.94q0-3.35 1.04-6.46z"/><path fill="#a5a7a7" d="M320.75 259.21q-.16-.29-.11-.63a.64.64 0 01.6-.55c5.23-.3 12.86 3.96 17.96 5.77a.53.52 19.9 00.66-.3c1.33-3.33 3.42-6.35 4.55-9.5q1.65-4.6 3.27-9.21a.76.75 30.5 00-.22-.82q-.82-.7-2-.49c-1.41.24-15.87 12.55-16.46 8.56 8.72-4 15.35-10.45 21.49-17.95q.45-.54.39.16-1.4 17.48-11.08 31.94a.49.49 0 01-.67.15q-8.53-5.27-18.38-7.13z"/><path fill="#95989b" d="M202.71 238q.11 3.32-2.12 6.35c-5.46 7.41-10.81 13.58-21.01 12.23q-2.3-.3-3.18-2.45 2.71-1.56 5.88-1.68a.5.49 89.4 00.48-.5l-.01-.41q3.42-1.24 6.21-3.54c.34 4.7 7.81-.3 9.13-2.08q2.74-3.67 4.62-7.92z"/><path fill="#a5a7a7" d="M241.21 272.5q-.77-1.18-.57-2.51a.9.89-9.4 01.48-.66l5.98-2.97a2.37 2.36 77.3 001.32-2.09l.07-3.87a1.09 1.08-63.9 00-.24-.71c-1.58-2.01-.05-10.67.21-13.58a.73.72-81.6 00-.57-.78l-6.73-1.4a.86.85-67.4 00-.89.37c-2.66 4.05-6.13 9.35-6.11 14.36.01 3.77.49 8.08 1.85 10.64a.41.41 0 01-.34.6q-1.12.05-1.13 1.68a.17.17 0 00.17.17h.3a.75.74-10.1 01.7.48l1.89 5.08q-2.64-1.85-3.54-4.77c-1.77-5.79-1.89-13.72-.46-19.57.91-3.76 3.44-7.7 5.09-11.61a.5.5 0 01.66-.27q5.03 2.24 10.46 3.23a.55.55 0 01.44.64q-1.86 10.56 1.35 20.79a.49.48-16.1 01-.34.61c-3.23.87-8.72 2.75-10.05 6.14z"/><path fill="#95989b" d="M241.21 272.5q-.42 2.98-3.61 4.81l-1.89-5.08a.75.74-10.1 00-.7-.48h-.3a.17.17 0 01-.17-.17q.01-1.63 1.13-1.68a.41.41 0 00.34-.6c-1.36-2.56-1.84-6.87-1.85-10.64-.02-5.01 3.45-10.31 6.11-14.36a.86.85-67.4 01.89-.37l6.73 1.4a.73.72-81.6 01.57.78c-.26 2.91-1.79 11.57-.21 13.58a1.09 1.08-63.9 01.24.71l-.07 3.87a2.37 2.36 77.3 01-1.32 2.09l-5.98 2.97a.9.89-9.4 00-.48.66q-.2 1.33.57 2.51z"/><path fill="#a5a7a7" d="M218.46 267c.64-4.56-4.09-7.54-7.21-10.99-1.95-2.16-4.85-2.82-5.94-6.07a.42.41 56.7 00-.7-.15l-11.55 12.57a1.31 1.31 0 00.15 1.91c2.86 2.33 4.45 5.43 7.02 7.69 3.13 2.75 9.64 11.98 13.98 7.33 1.94-2.07 1.42-10.81 2.54-11.42a.32.32 0 01.47.27l.07 1.61c.39 4.41-.99 11.68-6.01 12.45a1.64 1.62 52.9 01-.96-.14c-7.09-3.34-12.4-10.11-18.27-17.37q-1.66-2.04-.04-3.67 6.38-6.42 12.12-13.47a.56.56 0 01.85-.02c8.89 10.08 24.32 17.63 19.97 33.91-1 3.75-3.47 5.03-7.03 5.67a1.04 1.04 0 01-1.21-1.17c.13-.92.19-1.98.68-2.79q4.54-7.63 1.07-16.15z"/><path fill="#95989b" d="M218.46 267l-.29-1.03q-.21-.74-.32.02l-.56 3.76-.07-1.61a.32.32 0 00-.47-.27c-1.12.61-.6 9.35-2.54 11.42-4.34 4.65-10.85-4.58-13.98-7.33-2.57-2.26-4.16-5.36-7.02-7.69a1.31 1.31 0 01-.15-1.91l11.55-12.57a.42.41 56.7 01.7.15c1.09 3.25 3.99 3.91 5.94 6.07 3.12 3.45 7.85 6.43 7.21 10.99z"/><path fill="#fff" d="M182.75 251.54l.01.41a.5.49 89.4 01-.48.5q-3.17.12-5.88 1.68-.66-.77-.63-2.06a.46.45 5.2 01.52-.43q3.22.46 6.46-.1zM266.04 266.18a.88.87-85.3 01.69.82l.36 11.19a1.1 1.1 0 01-.72 1.06c-2.72 1-19.76 9.42-20.08 3.74q-.11-1.91-1.55-7.55a1.01.98-32.7 01.2-.87c2.32-2.78 17.71-9.06 21.1-8.39zm-16.79 16.11c4.68-2.18 9.69-3.99 14.54-5.86a.81.81 0 00.52-.85l-.75-6.7a.54.54 0 00-.74-.44l-14.64 6.08a.77.77 0 00-.46.81l.97 6.65a.4.4 0 00.56.31z"/><path fill="#21201f" d="M263.79 276.43c-4.85 1.87-9.86 3.68-14.54 5.86a.4.4 0 01-.56-.31l-.97-6.65a.77.77 0 01.46-.81l14.64-6.08a.54.54 0 01.74.44l.75 6.7a.81.81 0 01-.52.85z"/><path fill="#95989b" d="M254.13 296.94c.72-2.98 2.61-6.66 3.92-9.55a1.26 1.25-86.5 01.75-.67q6.33-2.01 12.01-5.42a.97.96 75.5 00.46-.79q.06-2.58 2.03-3.2 11.16-3.52 22.53-5.87a.22.22 0 01.15.41c-8.67 4.56-14.81 11.13-21.84 16.31-6.56 4.83-12.74 6.62-19.65 9.11q-.48.17-.36-.33z"/><path fill="#fff" d="M354.29 284.5l-.33 1c-11.77-6.24-26.01-6.23-38.69-6.34-9.08-.08-14.72 1.82-21.75 6.88-14.22 10.22-34.41 24.97-55.27 24.17l.35-5.47a.61.6-88.9 01.58-.56q21.1-.81 38.01-13.3c6.45-4.77 13.17-10.53 20.08-13.46 18.99-8.05 39.87-3.83 57.02 7.08z"/><path fill="#95989b" d="M353.96 285.5c4.79 4.18 10.31 7.75 14.39 12.71 5.4 6.56 9.87 11.27 14.61 20.78 3.4 6.81 4.08 12.6-.84 18.5a1.27 1.26 15.7 01-.79.44l-1.83.28c-.19-9.4-4.84-16.42-10.75-23.42q.37-.34.59-.81a.92.92 0 00-.07-.9q-2.2-3.28-7.05-6.56c-11.41-7.72-23.11-15.4-35.89-17.52-7.02-1.16-20.16-1.63-26.41 2.76q-.41.29-.9.36c-3.41.49-6.08 2.43-8.85 3.4q-2.18.76-4.34 1.64a.72.71 77.3 00-.45.72c.07.8 1.19 1.06 1.87 1.16q-10.28 6.17-24.42 16.56c-4.99 3.66-14.33 8.14-21.12 7.93a.75.74 80 01-.68-.48q-2.4-6.2-2.78-12.84c20.86.8 41.05-13.95 55.27-24.17 7.03-5.06 12.67-6.96 21.75-6.88 12.68.11 26.92.1 38.69 6.34z"/><path fill="#a5a7a7" d="M354.29 284.5q19.84 12.22 30.49 34.46c2.44 5.1 4.25 10.63 1.06 15.72-3.88 6.22-18.04 16.25-25.95 13.48a.42.42 0 01-.22-.61q6.16-10.1 10.5-21.1a.36.36 0 01.58-.13q4.51 4.45 6.62 10.58-2.09-.16-2.49-2.04-.1-.47-.37-.86l-3.28-4.72a.27.27 0 00-.43-.02c-1.67 1.95-2.22 4.38-3.05 6.2q-2.5 5.48-5.24 10.47a1.07 1.06 7.8 001.18 1.55q8.05-1.87 13.81-6.77 2.01-.22 2-2.5l1.83-.28a1.27 1.26 15.7 00.79-.44c4.92-5.9 4.24-11.69.84-18.5-4.74-9.51-9.21-14.22-14.61-20.78-4.08-4.96-9.6-8.53-14.39-12.71l.33-1z"/><path fill="#95989b" d="M243.49 286.5c2.2 4.24 5.27 3.84 9.24 2.83a.68.67 10.8 01.72 1.05l-5.74 7.8a1.14 1.14 0 01-.82.45q-4.49.32-6.63.14c-8.36-.72-6.28 8.12-6.08 12.9.24 5.95-4.96 11.11-10.81 11.25q-8.8.21-17.56.01-.51-.01-.06-.25c3.08-1.67 6.3-2.92 9.07-4.95 8.74-6.42 16.48-12.97 22.68-21.8 1.92-2.73 2.9-6.37 4.82-9.47a.67.67 0 011.17.04z"/><path fill="#a5a7a7" d="M368.75 314.79c-15.58-16.29-41.9-29.81-65.17-23.16q-7.07 2.02-16.33 7.41c-.68-.1-1.8-.36-1.87-1.16a.72.71 77.3 01.45-.72q2.16-.88 4.34-1.64c2.77-.97 5.44-2.91 8.85-3.4q.49-.07.9-.36c6.25-4.39 19.39-3.92 26.41-2.76 12.78 2.12 24.48 9.8 35.89 17.52q4.85 3.28 7.05 6.56a.92.92 0 01.07.9q-.22.47-.59.81z"/><path fill="#a5a7a7" d="M312.94 333.01q7.4-2.06 13.85 2.01a.6.59 37.1 00.75-.1c4.4-4.79 5.15-9.69 6.48-15.76q.65-2.99-.15-5.98c-.48-1.83-2.13-2.78-2.16-5.2a1.06 1.06 0 00-.39-.8c-2.24-1.82-3.84-3.82-6.55-4.81q-11.11-4.08-22.61-.7a.78.77 61.6 01-.82-.25q-.31-.38-.34-.88 16.91-5.09 31.11 4.12c9.33 6.05-.38 29.18-5.19 35.9q-.29.4-.47-.05-3.37-8.43-13.51-7.5z"/><path fill="#95989b" d="M312.94 333.01q-1.73.59-3.7 0-.21-.06 0 .02 5.56 2.11 9.27 6.84a.7.7 0 01-.8 1.08q-10.29-3.82-21.46-1.91-.99-.26-1.42.37a.59.59 0 00.23.86l12.32 5.97q.46.22.74.63c.5.71.36.7 1.22 1.03q6.36 2.47 10.63 7.81c.6.76 1.66.68 2.31 1.61q3.53 5.06 6.13 10.63c1.07 2.3.81 7.76-3.21 6.07-5.03-2.1-23.91 5.6-29.57 7.71a1.53 1.53 0 01-1.72-.45q-4.41-5.35-8.72-11.23c-.78-1.06-.99-2.78-2.31-3.58-2.81-1.7-4.68-4.13-7.54-5.49-2.2-1.04-4.42-3.48-5.61-4.35-2.4-1.76-6.28-4.28-6.99-6.77-.76-2.71-2.36-5.38-3.04-7.59-1.44-4.67 1.8-12.08 4.55-16.02q.28-.41.73-.63.78-.38 1.38-1.01 12.94-13.6 30.1-21.21a.96.94 83.7 00.56-.71q.07-.41-.27-.73l4.25-1.42q.03.5.34.88a.78.77 61.6 00.82.25q11.5-3.38 22.61.7c2.71.99 4.31 2.99 6.55 4.81a1.06 1.06 0 01.39.8c.03 2.42 1.68 3.37 2.16 5.2q.8 2.99.15 5.98c-1.33 6.07-2.08 10.97-6.48 15.76a.6.59 37.1 01-.75.1q-6.45-4.07-13.85-2.01z"/><path fill="#a5a7a7" d="M296.75 301.96q.34.32.27.73a.96.94 83.7 01-.56.71q-17.16 7.61-30.1 21.21-.6.63-1.38 1.01-.45.22-.73.63c-2.75 3.94-5.99 11.35-4.55 16.02.68 2.21 2.28 4.88 3.04 7.59.71 2.49 4.59 5.01 6.99 6.77 1.19.87 3.41 3.31 5.61 4.35 2.86 1.36 4.73 3.79 7.54 5.49 1.32.8 1.53 2.52 2.31 3.58q4.31 5.88 8.72 11.23a1.53 1.53 0 001.72.45c5.66-2.11 24.54-9.81 29.57-7.71 4.02 1.69 4.28-3.77 3.21-6.07q-2.6-5.57-6.13-10.63c-.65-.93-1.71-.85-2.31-1.61q-4.27-5.34-10.63-7.81c-.86-.33-.72-.32-1.22-1.03q-.28-.41-.74-.63l-12.32-5.97a.59.59 0 01-.23-.86q.43-.63 1.42-.37c10.99 4.12 31.52 14.43 34.38 27.17q.99 4.42.1 8.93a.82.81-85 01-.77.65q-18.31.64-35.18 7.73a.68.67 59.1 01-.79-.2c-5.08-6.38-9.91-12.76-16.01-18.06q-6.86-5.97-14.07-11.49-1.69-1.3-2.49-3.18c-2.6-6.12-5.96-13.48-2.21-19.09q13.97-20.89 37.54-29.54z"/><path fill="#fff" d="M229.75 329.71c-1.36.25-2.66.84-4.03.82q-15.98-.19-31.95-.47c-2.15-.03-4.49.48-6.76.59a1.32 1.3 20.4 00-.85.38q-1.06 1.08-2.33 1.57c2.09-8.99 13.51-6.94 20.15-6.05 6.44.86 18.48 2.32 24.83.29a.52.51-18.3 01.65.32q.44 1.27.29 2.55z"/><path fill="#95989b" d="M377.37 336.9l.13 3.81q-5.76 4.9-13.81 6.77a1.07 1.06 7.8 01-1.18-1.55q2.74-4.99 5.24-10.47c.83-1.82 1.38-4.25 3.05-6.2a.27.27 0 01.43.02l3.28 4.72q.27.39.37.86.4 1.88 2.49 2.04zM229.75 329.71q1.74 4.91.79 9.98a.93.91 85.4 01-.57.68q-7.33 2.73-15.22 2.59.52-.22.52-.46a.8.8 0 00-.87-.78q-9.49.8-18.57-.24c-.85-.1-5.28-1-5.57.21a.42.41 9.4 00.37.51q.37.02.62.26c-4.15.75-8.11.83-10.03 5.43a.53.53 0 00.76.66q4.81-2.9 10.48-2.21a1.2 1.19 76.1 01.86.52l2.72 3.91a.58.57 44.6 01.01.64l-4.45 6.68a.56.56 0 01-.79.15q-6.05-4.27-10.58-10.14a1.7 1.69 26.9 01-.35-1.06q.16-7.81 3.95-14.44 1.27-.49 2.33-1.57a1.32 1.3 20.4 01.85-.38c2.27-.11 4.61-.62 6.76-.59q15.97.28 31.95.47c1.37.02 2.67-.57 4.03-.82z"/><path fill="#95989b" d="M246.21 344.75q-.8-.11-1.36.34a.75.73 61.6 00-.23.82c1.85 5.46 5.06 9.82 7.71 14.96a.74.74 0 01-.13.85q-8.59 8.73-15.87 18.61a.82.81 25 01-.85.3c-1.78-.44-9.39-3.54-9.98-.92l-4.95.07a.54.53 81 00-.5.7l.11.37a1.04 1.03 1.9 00.6.64c2.17.85 10.53 3.63 10.02 6.62a.59.58 6.6 01-.61.48l-17.72-1a.24.23-7.4 00-.24.3l.1.3a.2.13.4 00.14.09q4.75.88 7.67 4.35 5.98 6.04 11.32 12.63 2.31 2.85 2.88 6.53a1.37 1.37 0 01-1.09 1.55q-5.64 1.09-11.12 2.97c-4.52 1.54-8.54 4.89-13.29 6.88a1.21 1.2 55.9 01-1.3-.26c-3.57-3.56-7.97-6.2-11.47-9.14-1.46-1.24-8.09-5.13-7.14-6.99a1.37 1.31-40.2 00.1-.92q-1.14-4.51-4.16-8.1-.54-.64-.77.16l-.41 1.43a.2.19 6.7 01-.17.13l-.25.01a.57.56 78.9 01-.56-.38l-2.32-6.97a1.49 1.47-46.7 01-.02-.89c1.5-5.11 5.14-9.7 7.01-13.06 2.41-4.33 4.47-8.81 7.85-12.51q.36-.4.49-.92.34-1.4 1.76-1.76.52-.13.92-.49c2.59-2.33 5.29-4.13 7.71-6.75 2.23-2.41 6.39-6.85 9.92-6.77q5.3.11 10.58-.52c2.91-.35 5.14-1.91 7.94-2.9 3.64-1.29 3.2-5.32 2.75-8.22q-.29-1.9 1.62-2.16 2.63-.36 2.1-2.5l2.47-.97a.4.39 74.1 01.53.3l2.21 12.71z"/><path fill="#a5a7a7" d="M241 332.71q.53 2.14-2.1 2.5-1.91.26-1.62 2.16c.45 2.9.89 6.93-2.75 8.22-2.8.99-5.03 2.55-7.94 2.9q-5.28.63-10.58.52c-3.53-.08-7.69 4.36-9.92 6.77-2.42 2.62-5.12 4.42-7.71 6.75q-.4.36-.92.49-1.42.36-1.76 1.76-.13.52-.49.92c-3.38 3.7-5.44 8.18-7.85 12.51-1.87 3.36-5.51 7.95-7.01 13.06a1.49 1.47-46.7 00.02.89l2.32 6.97a.57.56 78.9 00.56.38l.25-.01a.2.19 6.7 00.17-.13l.41-1.43q.23-.8.77-.16 3.02 3.59 4.16 8.1a1.37 1.31-40.2 01-.1.92c-.95 1.86 5.68 5.75 7.14 6.99 3.5 2.94 7.9 5.58 11.47 9.14a1.21 1.2 55.9 001.3.26c4.75-1.99 8.77-5.34 13.29-6.88q5.48-1.88 11.12-2.97a1.37 1.37 0 001.09-1.55q-.57-3.68-2.88-6.53-5.34-6.59-11.32-12.63 3.84 1.05 6.53 3.97 6.37 6.93 9.38 15.96a1.18 1.18 0 01-.94 1.54q-17.5 2.64-29.26 15.46c-1.18 1.28-2.66 2.3-4.06 3.14a.95.93-45.6 01-.94.02q-6.59-3.64-7.56-11.28a.37.36-81.9 01.5-.38l12.06 5.03a.68.67-10.7 00.75-1.09q-7.68-7.89-16.9-13.73c-5.03-3.19-9.57-14.04-10.49-18.51-1.18-5.77 12.85-26.75 17.55-30.57 3.82-3.09 14.1-14.5 18.8-14.42q9.56.18 18.69-3.41a2.22 2.22 0 001.41-2.02l.16-7.36a.69.68 80.7 01.45-.63l4.75-1.64zm-36.53 95.09q-4.88-1.89-9.15-4.89-.57-.4-.29.24 1.48 3.48 4.18 5.62a1.75 1.71-81.6 01.55.76l.42 1.15a.44.44 0 00.65.22l3.71-2.38a.41.4-50.6 00-.07-.72zM214.75 342.96l-23.5-.5q-.25-.24-.62-.26a.42.41 9.4 01-.37-.51c.29-1.21 4.72-.31 5.57-.21q9.08 1.04 18.57.24a.8.8 0 01.87.78q0 .24-.52.46z"/><path fill="#a5a7a7" d="M246.21 344.75q2.53 8.69 7.79 16.11a.59.58 48.6 01-.04.72c-5.76 6.83-11.69 12.85-17.03 20.68a.57.56-59.5 01-.72.19q-4.99-2.48-10.71-2.74c.59-2.62 8.2.48 9.98.92a.82.81 25 00.85-.3q7.28-9.88 15.87-18.61a.74.74 0 00.13-.85c-2.65-5.14-5.86-9.5-7.71-14.96a.75.73 61.6 01.23-.82q.56-.45 1.36-.34z"/><ellipse fill="#95989b" transform="rotate(116 13.157 262.28)" rx=".88" ry=".48"/><path fill="#a5a7a7" d="M283.83 390.72c-6.14-5.92-5.65-9.83-7.24-17.57a.21.21 0 01.35-.19q5.89 5.73 11 12.09c2.36 2.93-.66 5.27-3.25 5.91a.93.91 59.8 01-.86-.24zM487.94 377.56c-17.13.45-30.64 5.21-45.67 13.78q-20.65 11.78-41.21 23.72-44.56 25.89-92.36 45.15-61.15 24.63-137.59 51.66c-13.51 4.77-31.11 9.36-43.81 15.19q-9.89 4.55-15.35 15.46-.22.45-.23-.05c-.2-15.9 19.21-22.06 31.18-26.1 9.74-3.29 20.44-7.7 28.89-10.72q58.91-21.03 117.38-43.26c25.34-9.64 50.59-20.55 74.26-33.8q41.2-23.07 82.85-45.33c13.54-7.23 27.47-11.49 42.75-6.28a.36.35-46.9 01.02.66q-.65.28-1.11-.08z"/><path fill="#fbfee2" d="M262.51 423.5c-1.43-5.39-6.35-8.35-11.55-9.35a.78.77-89 01-.62-.65q-1.14-7.45-5.37-13.66a.72.72 0 01.09-.92q9.82-9.44 21.83-15.87a1.56 1.56 0 012.29 1.2c.8 6.98 3.37 9.33 9.61 11.9a1.67 1.66-39.6 00.99.09q.44-.09.77.18a.65.64 34.2 01.16.8c-1.12 2.07-2.17 3.71-2.09 6.15q.44 13.1 13.55 15.33a.95.94-7.7 01.71.54q5.13 10.97 9.42 22.19 1.55 4.06 2.14 8.11a.66.66 0 01-.42.72l-39.35 15.6a.42.42 0 01-.57-.3c-1.89-8.18-1.84-15.27-4.41-24.51a.64.64 0 01.29-.73c5.13-3.14 3.9-11.62 2.53-16.82z"/><path fill="#fff" d="M339.25 394.46l-.99-2.42a.9.88 82 00-.72-.55c-5.08-.53-11.03.66-14.73 1.08q-10.9 1.25-20.59 6.55c-3.44 1.88-8.64 4.72-12.17 4.04a1.21 1.18-10.4 01-.76-.51l-2.08-3.15c7.43-11.54 28.18-16.37 40.87-16.58 7.31-.12 12.06 3.39 12.28 10.96a.65.65 0 01-.52.65q-.29.05-.59-.07z"/><path fill="#a5a7a7" d="M339.25 394.46q-11.91-1.12-19.51 1c-10.11 2.83-22.03 8.33-29 16.46a.61.6-54.4 01-.76.13q-5.36-3.09-4.48-9.34 2.17-.21 1.13-2.28.11-.42.58-.93l2.08 3.15a1.21 1.18-10.4 00.76.51c3.53.68 8.73-2.16 12.17-4.04q9.69-5.3 20.59-6.55c3.7-.42 9.65-1.61 14.73-1.08a.9.88 82 01.72.55l.99 2.42z"/><circle fill="#95989b" cx="462.72" cy="393.52" r="1.49"/><path fill="#fff" d="M286.63 400.43q1.04 2.07-1.13 2.28l1.13-2.28z"/><path fill="#a5a7a7" d="M336.51 436.06q.36-6.08-.31-12.12c-.4-3.74-.72-14.22-3.35-16.59a1.23 1.23 0 00-.88-.3q-4.88.29-9.76.74c-6.42.61-12.32 3.4-18.32 5.7a1.83 1.82 71.4 00-1.1 2.23q3.15 10.6 6.68 21.28.63 1.91-.43 3l-8.2-24.81a.72.71 61.7 01.23-.79c8.78-6.95 21.1-8.75 32.34-8.86a2.17 2.15-5.4 012.14 1.76q2.42 12.66 3.23 25.98c.1 1.68-.69 2.55-2.27 2.78z"/><path fill="#95989b" d="M336.51 436.06q-12.29 5.92-25.04 10.76a.45.45 0 01-.6-.3l-1.83-6.52q1.06-1.09.43-3-3.53-10.68-6.68-21.28a1.83 1.82 71.4 011.1-2.23c6-2.3 11.9-5.09 18.32-5.7q4.88-.45 9.76-.74a1.23 1.23 0 01.88.3c2.63 2.37 2.95 12.85 3.35 16.59q.67 6.04.31 12.12z"/><path fill="#fff" d="M251.71 428c-9.17-.3-18.4 3.6-26.55 7.44-4.48 2.11-9.49 6.17-14.18 8.02q-3.81 1.5-6.27-2.21c1.55-4.49 8.38-10.06 12.14-12.8 8.19-5.98 21.21-9.27 31.19-8.78a1.59 1.55 65.4 01.88.34q3.75 2.99 2.79 7.99z"/><path fill="#95989b" d="M204.47 427.8a.41.4-50.6 01.07.72l-3.71 2.38a.44.44 0 01-.65-.22l-.42-1.15a1.75 1.71-81.6 00-.55-.76q-2.7-2.14-4.18-5.62-.28-.64.29-.24 4.27 3 9.15 4.89zM251.71 428c.34 1.3-.11 2.15-1.47 2.45-12.72 2.79-22.89 6.07-33.7 14.3q-.19-1.71-1.83-1.02c-3.34 1.4-5.04 6.3-8.87 7.06a.51.5-10.7 01-.6-.4c-.15-.74-.23-6.61-1.45-6.39q-.44-1.74.92-2.75 2.46 3.71 6.27 2.21c4.69-1.85 9.7-5.91 14.18-8.02 8.15-3.84 17.38-7.74 26.55-7.44zM246.79 443.4q-1.15 1.8-.59 4.11 1.91 7.89 3.93 18.61a.8.79-88.4 00.6.64q.35.09.73-.01.63 1.76.42 3.58a.8.79 84.2 01-.53.66l-13.28 4.5q-4.43-.61-8.21 2.05a.55.54-37.7 01-.73-.09c-3.5-4.12-4.57-11.94-5.68-17.14-.36-1.69-2.17-2.68-2.34-4.59-.23-2.65 4.21-5.03 6.34-5.89q5.27-2.12 9.92-5.38 3.79-2.02 8.17-2.64a.82.8-20.5 01.79.35q.39.58.46 1.24z"/><path fill="#a5a7a7" d="M246.79 443.4q3.79 11.43 4.67 23.35-.38.1-.73.01a.8.79-88.4 01-.6-.64q-2.02-10.72-3.93-18.61-.56-2.31.59-4.11zM216.54 444.75q-5.64 4.08-9.51 9.83a.37.36-46.3 01-.59.02q-3.47-4.68-2.65-10.6c1.22-.22 1.3 5.65 1.45 6.39a.51.5-10.7 00.6.4c3.83-.76 5.53-5.66 8.87-7.06q1.64-.69 1.83 1.02zM237.37 444.45q-4.65 3.26-9.92 5.38c-2.13.86-6.57 3.24-6.34 5.89.17 1.91 1.98 2.9 2.34 4.59 1.11 5.2 2.18 13.02 5.68 17.14a.55.54-37.7 00.73.09q3.78-2.66 8.21-2.05-4.54 2.49-9.48 3.79a.55.55 0 01-.66-.34q-3.38-8.83-6.03-17.83c-1.37-4.63-4.7-7.45 1.91-10.75q8.78-4.4 13.56-5.91z"/><ellipse fill="#95989b" transform="rotate(83.7 -69.276 459.64)" rx="1.12" ry=".7"/><path fill="#a5a7a7" d="M590.25 589.71l.46.04.29.31v.94h-1.06q-4.88-.63-9.75 0h-13.75l-29.19-.21H524.5l-11.31.21h-.25q-3.88-.63-7.75 0h-2.25q-10.38-.63-20.75 0h-3.25q-6.38-.63-12.75 0h-2.25l-87.69-.21-8.06.21h-.25q-3.88-.63-7.75 0h-.25l-15.44-.21-7.31.21h-.25q-3.88-.63-7.75 0h-9.25q-2.63-.63-5.25 0h-2.75q-2.88-.63-5.75 0h-1.25q-4.38-.63-8.75 0h-.25q-2.88-.63-5.75 0h-2.25q-5.38-.63-10.75 0h-21.25q-2.88-.63-5.75 0h-2.25l-5.19-.21h-18.5l-8.06.21h-.75q-2.63-.63-5.25 0h-4.25q-2.88-.63-5.75 0h-.75q-27.63-.63-55.25 0h-.25q-5.88-.63-11.75 0h-2.25q-7.38-.63-14.75 0h-11.25q-3.38-.63-6.75 0h-2.25q-2.38-.63-4.75 0h-1.25q-23.88-.63-47.75 0H23.94q-3.88-.63-7.75 0h-2.25L0 590.44v-.5q2.45.26 4.94.26 292.09.06 584.18.04a1.18 1.16 27.1 00.67-.21l.46-.32z"/><path fill="#21201f" d="M0 590.44l13.94.56H0v-.56zM23.94 591h-7.75q3.87-.63 7.75 0zM88.94 591H41.19q23.87-.63 47.75 0z"/><path fill="#95989b" d="M94.94 591h-4.75q2.37-.63 4.75 0zM103.94 591h-6.75q3.37-.63 6.75 0z"/><path fill="#21201f" d="M129.94 591h-14.75q7.37-.63 14.75 0zM143.94 591h-11.75q5.87-.63 11.75 0zM199.44 591h-55.25q27.62-.63 55.25 0z"/><path fill="#95989b" d="M205.94 591h-5.75q2.87-.63 5.75 0zM215.44 591h-5.25q2.62-.63 5.25 0zM224.25 590.79l-.06.21h-8l8.06-.21z"/><path fill="#21201f" d="M224.25 590.79h18.5l-.06.21h-18.5l.06-.21z"/><path fill="#95989b" d="M242.75 590.79l5.19.21h-5.25l.06-.21zM255.94 591h-5.75q2.87-.63 5.75 0zM287.94 591h-10.75q5.37-.63 10.75 0zM295.94 591h-5.75q2.87-.63 5.75 0z"/><path fill="#21201f" d="M304.94 591h-8.75q4.37-.63 8.75 0z"/><path fill="#95989b" d="M311.94 591h-5.75q2.87-.63 5.75 0zM319.94 591h-5.25q2.62-.63 5.25 0zM336.94 591h-7.75q3.87-.63 7.75 0z"/><path fill="#21201f" d="M344.5 590.79l-.06.21h-7.25l7.31-.21z"/><path fill="#95989b" d="M344.5 590.79l15.44.21h-15.5l.06-.21zM367.94 591h-7.75q3.87-.63 7.75 0zM376.25 590.79l-.06.21h-8l8.06-.21z"/><path fill="#21201f" d="M376.25 590.79l87.69.21h-87.75l.06-.21z"/><path fill="#95989b" d="M478.94 591h-12.75q6.37-.63 12.75 0z"/><path fill="#21201f" d="M502.94 591h-20.75q10.37-.63 20.75 0z"/><path fill="#95989b" d="M512.94 591h-7.75q3.87-.63 7.75 0z"/><path fill="#21201f" d="M524.5 590.79l-.06.21h-11.25l11.31-.21z"/><path fill="#95989b" d="M524.5 590.79h12.75l-.06.21h-12.75l.06-.21z"/><path fill="#21201f" d="M537.25 590.79l29.19.21h-29.25l.06-.21zM589.94 591h-9.75q4.87-.63 9.75 0z"/></svg>