<svg xmlns="http://www.w3.org/2000/svg" viewBox="0 0 591 591"><g stroke-width="2" fill="none"><path stroke="#cbcccd" vector-effect="non-scaling-stroke" d="M591 2.56q.13-1.56-.87-2.23a.26.25 28.6 00-.38.11q-.05.11 0 .27"/><path stroke="#4b4c4d" vector-effect="non-scaling-stroke" d="M589.75.71q-.75.14-1.5.14Q294.13.97 0 .94"/><path stroke="#cbcccd" vector-effect="non-scaling-stroke" d="M588.19 591q-2.88-.63-5.75 0"/><path stroke="gray" vector-effect="non-scaling-stroke" d="M0 590.09q289.49.28 578.99.16c2.56 0 6.85-.43 10.41.08a.75.75 0 00.85-.74V1.25q0-.33-.5-.54"/><path stroke="#4b4c4d" vector-effect="non-scaling-stroke" d="M574 585.46h6"/><path stroke="gray" vector-effect="non-scaling-stroke" d="M580 585.46l4.94-.02a.5.5 0 00.5-.5l.02-3.44"/><path stroke="#4b4c4d" vector-effect="non-scaling-stroke" d="M585.46 581.5v-3.75"/><path stroke="#7e7f70" vector-effect="non-scaling-stroke" d="M585.46 577.75l.03-572a.5.5 0 00-.5-.5H5.75a.5.5 0 00-.5.5v579.21a.5.5 0 00.5.5H574"/><path stroke="#c9cbbd" vector-effect="non-scaling-stroke" d="M585.46 577.75q-5.39 4.38-11.46 7.71"/><path stroke="#cbcccd" vector-effect="non-scaling-stroke" d="M585.46 581.5q-3.49.52-5.6 3.35a.31.31 0 00-.02.35l.16.26"/><path stroke="#fcf3c6" vector-effect="non-scaling-stroke" d="M103.31 29q-4.46-1.06-8.81-1.07-16.73-.03-33.43.16c-8.99.1-17.08 6.38-17.68 15.85q-1.42 22.47-.67 44.4a.96.96 0 001.63.66q27.36-26.41 53.49-52.66 3.13-3.14 5.82-6.28a.65.65 0 00-.35-1.06"/><path stroke="#c9cbbd" vector-effect="non-scaling-stroke" d="M329.88 287.63c-.6-.93-1.86-1.83-2.23-2.91a.33.33 0 01.35-.44q13.03 1.53 15.52 13.65 1.07 5.19-1.09 9.86c-5.27 11.42-22.47 11.97-32.82 10.58-17.41-2.35-36.05-6.82-52.42-.9q-5.64 2.04-7.62 3.56c-3.93 3.02-5.45 9.76-4.55 14.48 1.49 7.84 5.75 14.03 12.86 17.71q8.62 4.46 16.52 10.25.41.3.42-.2c.19-6.25-6.11-9.64-8.75-13.6-6.61-9.92-.96-16.72 8.33-20.69 10.64-4.55 20.4-2.4 31.26.07 2.61.59 5.22-.1 7.58.46 8.51 1.99 18.62 3.31 27.52 1.79 13.3-2.27 22.4-15.01 16.97-28.32q-2.21-5.41-5.86-10.04c-1.79-2.26-1.68-4.12-1.97-6.88-.53-4.98-5.34-9.96-1.68-14.38a1.26 1.26 0 012.14.35c1.1 2.81 2.25 6.29 6.35 4.69a.63.63 0 00.04-1.16c-2.87-1.36-1.59-4.41.2-6.36a1.9 1.83 11.8 01.83-.52q4.98-1.46 7.78-5.75c.99-1.5.09-4.14.19-5.68q.43-6.47 7.23-7.04a1.56 1.56 0 01.93.22c2.82 1.73 9.08-2.68 13.51-5.25q7.56-4.38 6.56-13.71a1.25 1.22-30.4 01.24-.89c4.26-5.68 9.29-9.08 10.97-16.99q.79-3.71 1.67-6.04c1.5-3.96 2.15-8.59 4.01-12.17 1.01-1.95 4.15-5.6 3.88-7.63q-1.43-10.9-3.97-21.59-.74-3.1-.6-6.4.59-14.34-2.09-28.48c-1.48-7.83-8.65-13.52-13.38-19.72Q384.1 97.65 374.2 87.3q-11.77-12.32-28.91-13.08c-8.7-.39-17.36-1.13-26.15-2.85-11.87-2.31-26.67-1.92-38.73 2.2-3.93 1.34-7.84 3.36-12.12 3.1-4.48-.28-11.44-.65-13.78 3.17q-2.09 3.41-5.23 4.31c-3.93 1.13-8.96 3.39-11.08 5.79-7.01 7.95-16.05 16.05-21.51 23.44q-7.24 9.79-12.72 22.32-2.06 4.73-.51 8.86a1.11 1.11 0 01-.07.91c-1.34 2.45-3.05 4.52-3.69 7.15-1.32 5.5-.48 11.58.11 17.16.97 9.16.82 18.55 1.28 27.77.18 3.59 1.66 5.55 4.5 7.34a1.8 1.78 3.9 01.66.75l3.71 8.02a.6.59-30.2 01-.2.74l-1.93 1.34a1.24 1.21-15 00-.51.86c-1.06 10.62 4.37 15.92 11.32 22.58 4.42 4.23 8.6 9.5 14.69 13.1.98.58 2.56 2.02 2.84 2.83q3.41 9.68 13.06 6.52.42-.13.73-.46l1.05-1.08a1.6 1.59 52.1 012.53.32q10.33 18.08 29.91 24.38 4.61 1.48 7.3.65c3.24-.98 2.71-3.82 3.91-6.09a1.3 1.3 0 011.48-.65q3.12.83 5.97 2.15c6.73 3.1 11.21 11.13 19.64 7.91a.55.54 65.2 01.68.26c3.29 6.29 10.12 2.81 7.45-1.39M417.88 87.03c-6.67-1.28-13.42 4-12.93 11.08.49 6.92 7.4 11.57 13.78 12.64 11.9 2.01 11.44-21.35-.85-23.72M190.787 224.374a8.08 7.65 71.1 004.62-10.122 8.08 7.65 71.1 00-9.854-5.166 8.08 7.65 71.1 00-4.62 10.122 8.08 7.65 71.1 009.854 5.166"/><path stroke="#c9cbbd" vector-effect="non-scaling-stroke" d="M355.563 290.227a1.83 1.03 96.8 001.24-1.695 1.83 1.03 96.8 00-.806-1.94 1.83 1.03 96.8 00-1.24 1.696 1.83 1.03 96.8 00.806 1.94M331.4 293.06l1.99.97a.44.44 0 00.63-.42l-.11-2.38a.64.64 0 00-.91-.55q-1.35.61-1.75 2.04a.29.28 21.9 00.15.34M259.01 296.34a2.35 2.35 0 00-2.35-2.35 2.35 2.35 0 00-2.35 2.35 2.35 2.35 0 002.35 2.35 2.35 2.35 0 002.35-2.35M458.701 296.935a1.04.6 17.6 00-.81-.887 1.04.6 17.6 00-1.172.257 1.04.6 17.6 00.81.887 1.04.6 17.6 001.172-.257M297.153 356.59a6.92 6.37 11 00-5.578-7.573 6.92 6.37 11 00-8.008 4.933 6.92 6.37 11 005.577 7.573 6.92 6.37 11 008.009-4.933"/><path stroke="#909080" vector-effect="non-scaling-stroke" d="M243.26 465.96c-11.33 1.17-58.53 8.85-59.97 23.31-1.07 10.78 22 17.9 29.2 20.05q76.67 22.88 155.32 7.28c7.84-1.56 54.95-12.26 49.65-26.79-4.99-13.66-45.79-21.16-59.53-22.85a.63.63 0 01-.4-1.03l4.81-5.74a.49.49 0 01.69-.07l3.58 2.92a1.54 1.52 61.9 001.09.34q3.62-.31 4.7-3.77a1.08 1.07-52.5 00-.11-.85q-2.11-3.43 1.49-5.28 12.85-6.57 21.38-11.24 7.86-4.3 10.76-7.67c14.93-17.39-5.59-55.38-27.79-40.01a.43.43 0 01-.67-.32l-.62-9.3a1.76 1.75 24.4 00-.35-.92c-3.86-4.91-18.65-7.38-25.08-8.32q-29.67-4.38-59.65-3.44c-17 .53-30.7.58-50.01 3.95q-8.92 1.55-15.83 6.49a1.05 1.04-16 00-.44.79c-1.9 27.19.59 59.45 18.03 81.86a.38.37 67.8 01-.25.61"/><path stroke="#c9cbbd" vector-effect="non-scaling-stroke" d="M321.55 103.12c-.38 18.65-.84 37.3-1.43 55.95-.07 2.35-2.44 13.26-1.06 15.37q9.41 14.38 12.73 17.78 16.84 17.28 37.62 28.89a.96.95-58.9 001.28-.32c6.11-9.46 12.23-23.52 10.57-35.04q-1.51-10.48-.48-20.98.19-1.87-.16-3.34-4.11-17.04-12.08-33.48c-7.92-16.33-27.11-25.53-44.91-26.74q-2.04-.14-2.08 1.91M240.44 223.81c3.35 3 4.35 1.21 7.24-1.34q10.47-9.31 20.96-18.6c10.46-9.26 15.5-21.95 23.74-33.51 4.27-5.98 5.27-11.41 5.66-19.08.77-15.06-1.34-31.29-3.47-46.59a1.38 1.38 0 00-1.56-1.18q-27.43 3.77-46.09 24.14c-4.8 5.24-8.57 8.85-13.04 13.15-4.3 4.12-4.96 7.7-5.64 13.45q-3.24 27.31 1.71 51.97 2.01 10.01 10.49 17.59M276.77 225.87c-4.25 5-8.93 8.73-14.19 12.33a.8.8 0 00-.15 1.19c3.77 4.29 10.13 10.54 16.03 11.46q4.87.77 9.9.75a.71.71 0 00.67-.47c2.92-8.16 6.37-16.85 7.2-25.13q.96-9.56-.27-19.29a.29.29 0 00-.46-.19c-8.41 6.26-12.73 12.3-18.73 19.35M323.23 216.7c-.11 6.46-1.17 12.13-2.52 18.4-1.24 5.8.38 12.78 1.6 18.49a.56.55-9 00.61.44q4.14-.45 6.42-1.91 10.37-6.67 21.12-12.68.51-.29.49-.85a.64.64 0 00-.6-.62c-8.53-.62-7.4-7.85-12.97-11.71q-6.9-4.78-13.74-9.77-.4-.29-.41.21"/><path stroke="#919190" vector-effect="non-scaling-stroke" d="M232.09 385.11q-2.25 1.72-1.3 4.89"/><path stroke="#5d5d5e" vector-effect="non-scaling-stroke" d="M230.79 390q-.73 4.09-.73 8.26c-.03 16.53 2.41 36.01 9.27 50.81 6.08 13.12 18.82 27.91 33.22 32.66 4.86 1.61 9.88 3.69 14.35 4.55 24.02 4.62 49.76-2.59 65.58-21.61 3.55-4.26 6.64-9.8 9.51-14.9 4.72-8.41 6.39-16.14 8.11-26.55q2.75-16.55 1.78-33.42-.23-3.97-4.08-5.13c-19.47-5.83-39.32-6.52-59.64-7.43-12.71-.56-25.52.05-38.22.7q-18.05.94-35.39 5.97-1.16.33-2.46 1.2"/><path stroke="#cbcccd" vector-effect="non-scaling-stroke" d="M230.79 390l4.26 1.23a.67.65-80.9 01.48.68q-.98 17.13 2.06 33.91c2.33 12.84 8.45 29.14 18.72 37.87q9.38 7.96 16.31 11.86"/><path stroke="#5d5d5e" vector-effect="non-scaling-stroke" d="M272.62 475.55c22.59 10.84 48.82 8.71 68.74-7.21 20.12-16.08 27.2-50.27 25.36-74.47a.64.64 0 00-.79-.57c-16.08 3.84-29.83 5.05-49.18 5.39"/><path stroke="#cbcccd" vector-effect="non-scaling-stroke" d="M316.75 398.69q1.11-1.42 1.21-2.69"/><path stroke="#5d5d5e" vector-effect="non-scaling-stroke" d="M317.96 396q18.55-.36 36.8-3.63c1.51-.27 2.88-1.31 4.8-.94a.22.21-59 00.18-.05l.2-.19q.38-.35-.11-.5-10.09-2.95-21.83-4.2-26.71-2.84-51.81-1.92c-8.99.33-18.15-.02-26.99 1.19q-5.53.77-11.06 1.59-1.5.22-3.01.95-1.44.7-2.91 1.31"/><path stroke="#cbcccd" vector-effect="non-scaling-stroke" d="M242.22 389.61q-6.06-.07-10.13-4.5M308 396.04q-.9 2.1-3.29 2.71"/><path stroke="#919190" vector-effect="non-scaling-stroke" d="M304.71 398.75l-2.71.54"/><path stroke="#cbcccd" vector-effect="non-scaling-stroke" d="M302 399.29c-15.31-.68-30.03-1.53-45.33-3.42a1.05 1.04 5.5 00-1.17.96c-.19 2.59-.5 5.27-.44 7.89.58 22.89 1.2 40.22 11.01 58.89"/><path stroke="#919190" vector-effect="non-scaling-stroke" d="M266.07 463.61q2.37 6.24 6.55 11.94"/><path stroke="#cbcccd" vector-effect="non-scaling-stroke" d="M309.5 398.96c.63-1.33 2.57-.99 2.25-2.67"/><path stroke="#919190" vector-effect="non-scaling-stroke" d="M317.96 396l-6.21.29"/><path stroke="#5d5d5e" vector-effect="non-scaling-stroke" d="M311.75 396.29l-3.75-.25"/><path stroke="#919190" vector-effect="non-scaling-stroke" d="M308 396.04q-22.43-.28-44.75-2.55-10.61-1.08-21.03-3.88"/><path stroke="#5d5d5e" vector-effect="non-scaling-stroke" d="M266.07 463.61q8.51 5.35 17.99 7.42c10.81 2.36 20.61-5.1 24.7-14.78a.38.38 0 00-.3-.52c-10.79-1.25-9.48-12.8-8.7-20.62q1.79-17.87 2.24-35.82M304.71 398.75l4.79.21"/><path stroke="#919190" vector-effect="non-scaling-stroke" d="M309.5 398.96q3.71.68 7.25-.27"/><path stroke="#909080" vector-effect="non-scaling-stroke" d="M394.12 403.62c-3.76-3.17-11.23-1.02-14.24 1.65a1.45 1.44 74.5 00-.46.82q-.46 2.41-2.04 4.3a1.56 1.52-22.5 00-.35.82q-1.78 16.28-6.52 31.95-.15.5.32.27c7.98-3.83 18.75-7.23 25.15-13.2 7.21-6.71 5.34-20.53-1.86-26.61"/><path stroke="#919190" vector-effect="non-scaling-stroke" d="M190.5 486.96l-1.83 3.02a.95.94 48 00-.04.91c6.74 14.01 57.86 19.92 72.08 21.57 9.32 1.08 19.47 1.38 29.26 1.94 18.36 1.05 35.97-.45 54.59-1.57q14.18-.86 33.4-4.77c3.68-.75 42.74-10.02 32.99-19.01q-5.86-5.39-14.41-7.24"/><path stroke="#5d5d5e" vector-effect="non-scaling-stroke" d="M396.54 481.81q-2.1-1.54-4.85-2.29-18.75-5.09-38.04-7.97a.71.69 24.2 00-.64.23q-7.78 8.73-18.66 13.04a.46.46 0 00.13.88c3.43.29 12.58 1.78 13.76 5.64a1.04 1.04 0 01-.16.9c-3.89 5.19-25.58 6.47-30.83 6.72-9.59.45-62.07 1.46-65.43-8.97a.67.67 0 01.27-.77c3.95-2.59 8.71-3.33 13.22-4.6q.59-.16.06-.46-9.63-5.44-17.72-13.02a1.29 1.28 65.3 00-.92-.34q-3.76.13-7.47.71-17.2 2.7-33.76 7.96-8.54 2.72-15 7.49"/><path stroke="#cbcccd" vector-effect="non-scaling-stroke" d="M396.54 481.81q6.6 4.31 13.75 7.71a2.02 2.02 0 01.42 3.38c-4.78 3.96-10.06 6.47-16.41 8.51q-17.96 5.75-35.56 7.55c-43.81 4.48-89.86 4.04-133.83-4.22-12.56-2.36-25.01-6.26-34.91-14.28a.8.79-54.2 01-.17-1.06l1.2-1.83a.37.37 0 00-.17-.55q-.15-.07-.36-.06"/></g><path fill="#96989a" d="M0 0h591v2.56q.13-1.56-.87-2.23a.26.25 28.6 00-.38.11q-.05.11 0 .27-.75.14-1.5.14Q294.13.97 0 .94V0z"/><path fill="#fff" d="M591 2.56V591h-2.81q-2.88-.63-5.75 0H0v-.91q289.49.28 578.99.16c2.56 0 6.85-.43 10.41.08a.75.75 0 00.85-.74V1.25q0-.33-.5-.54-.05-.16 0-.27a.26.25 28.6 01.38-.11q1 .67.87 2.23z"/><path d="M589.75.71q.5.21.5.54v588.34a.75.75 0 01-.85.74c-3.56-.51-7.85-.08-10.41-.08q-289.5.12-578.99-.16V.94Q294.13.97 588.25.85q.75 0 1.5-.14zM574 585.46h6l4.94-.02a.5.5 0 00.5-.5l.02-3.44v-3.75l.03-572a.5.5 0 00-.5-.5H5.75a.5.5 0 00-.5.5v579.21a.5.5 0 00.5.5H574z"/><path fill="#fcfedf" d="M585.46 577.75q-5.39 4.38-11.46 7.71H5.75a.5.5 0 01-.5-.5V5.75a.5.5 0 01.5-.5h579.24a.5.5 0 01.5.5l-.03 572zM103.31 29q-4.46-1.06-8.81-1.07-16.73-.03-33.43.16c-8.99.1-17.08 6.38-17.68 15.85q-1.42 22.47-.67 44.4a.96.96 0 001.63.66q27.36-26.41 53.49-52.66 3.13-3.14 5.82-6.28a.65.65 0 00-.35-1.06zm226.57 258.63c-.6-.93-1.86-1.83-2.23-2.91a.33.33 0 01.35-.44q13.03 1.53 15.52 13.65 1.07 5.19-1.09 9.86c-5.27 11.42-22.47 11.97-32.82 10.58-17.41-2.35-36.05-6.82-52.42-.9q-5.64 2.04-7.62 3.56c-3.93 3.02-5.45 9.76-4.55 14.48 1.49 7.84 5.75 14.03 12.86 17.71q8.62 4.46 16.52 10.25.41.3.42-.2c.19-6.25-6.11-9.64-8.75-13.6-6.61-9.92-.96-16.72 8.33-20.69 10.64-4.55 20.4-2.4 31.26.07 2.61.59 5.22-.1 7.58.46 8.51 1.99 18.62 3.31 27.52 1.79 13.3-2.27 22.4-15.01 16.97-28.32q-2.21-5.41-5.86-10.04c-1.79-2.26-1.68-4.12-1.97-6.88-.53-4.98-5.34-9.96-1.68-14.38a1.26 1.26 0 012.14.35c1.1 2.81 2.25 6.29 6.35 4.69a.63.63 0 00.04-1.16c-2.87-1.36-1.59-4.41.2-6.36a1.9 1.83 11.8 01.83-.52q4.98-1.46 7.78-5.75c.99-1.5.09-4.14.19-5.68q.43-6.47 7.23-7.04a1.56 1.56 0 01.93.22c2.82 1.73 9.08-2.68 13.51-5.25q7.56-4.38 6.56-13.71a1.25 1.22-30.4 01.24-.89c4.26-5.68 9.29-9.08 10.97-16.99q.79-3.71 1.67-6.04c1.5-3.96 2.15-8.59 4.01-12.17 1.01-1.95 4.15-5.6 3.88-7.63q-1.43-10.9-3.97-21.59-.74-3.1-.6-6.4.59-14.34-2.09-28.48c-1.48-7.83-8.65-13.52-13.38-19.72Q384.1 97.65 374.2 87.3q-11.77-12.32-28.91-13.08c-8.7-.39-17.36-1.13-26.15-2.85-11.87-2.31-26.67-1.92-38.73 2.2-3.93 1.34-7.84 3.36-12.12 3.1-4.48-.28-11.44-.65-13.78 3.17q-2.09 3.41-5.23 4.31c-3.93 1.13-8.96 3.39-11.08 5.79-7.01 7.95-16.05 16.05-21.51 23.44q-7.24 9.79-12.72 22.32-2.06 4.73-.51 8.86a1.11 1.11 0 01-.07.91c-1.34 2.45-3.05 4.52-3.69 7.15-1.32 5.5-.48 11.58.11 17.16.97 9.16.82 18.55 1.28 27.77.18 3.59 1.66 5.55 4.5 7.34a1.8 1.78 3.9 01.66.75l3.71 8.02a.6.59-30.2 01-.2.74l-1.93 1.34a1.24 1.21-15 00-.51.86c-1.06 10.62 4.37 15.92 11.32 22.58 4.42 4.23 8.6 9.5 14.69 13.1.98.58 2.56 2.02 2.84 2.83q3.41 9.68 13.06 6.52.42-.13.73-.46l1.05-1.08a1.6 1.59 52.1 012.53.32q10.33 18.08 29.91 24.38 4.61 1.48 7.3.65c3.24-.98 2.71-3.82 3.91-6.09a1.3 1.3 0 011.48-.65q3.12.83 5.97 2.15c6.73 3.1 11.21 11.13 19.64 7.91a.55.54 65.2 01.68.26c3.29 6.29 10.12 2.81 7.45-1.39zm88-200.6c-6.67-1.28-13.42 4-12.93 11.08.49 6.92 7.4 11.57 13.78 12.64 11.9 2.01 11.44-21.35-.85-23.72zM190.787 224.374a8.08 7.65 71.1 004.62-10.122 8.08 7.65 71.1 00-9.854-5.166 8.08 7.65 71.1 00-4.62 10.122 8.08 7.65 71.1 009.854 5.166zm164.776 65.853a1.83 1.03 96.8 001.24-1.695 1.83 1.03 96.8 00-.806-1.94 1.83 1.03 96.8 00-1.24 1.696 1.83 1.03 96.8 00.806 1.94zM331.4 293.06l1.99.97a.44.44 0 00.63-.42l-.11-2.38a.64.64 0 00-.91-.55q-1.35.61-1.75 2.04a.29.28 21.9 00.15.34zm-72.39 3.28a2.35 2.35 0 00-2.35-2.35 2.35 2.35 0 00-2.35 2.35 2.35 2.35 0 002.35 2.35 2.35 2.35 0 002.35-2.35zm199.691.595a1.04.6 17.6 00-.81-.887 1.04.6 17.6 00-1.172.257 1.04.6 17.6 00.81.887 1.04.6 17.6 001.172-.257zM297.153 356.59a6.92 6.37 11 00-5.578-7.573 6.92 6.37 11 00-8.008 4.933 6.92 6.37 11 005.577 7.573 6.92 6.37 11 008.009-4.933zM243.26 465.96c-11.33 1.17-58.53 8.85-59.97 23.31-1.07 10.78 22 17.9 29.2 20.05q76.67 22.88 155.32 7.28c7.84-1.56 54.95-12.26 49.65-26.79-4.99-13.66-45.79-21.16-59.53-22.85a.63.63 0 01-.4-1.03l4.81-5.74a.49.49 0 01.69-.07l3.58 2.92a1.54 1.52 61.9 001.09.34q3.62-.31 4.7-3.77a1.08 1.07-52.5 00-.11-.85q-2.11-3.43 1.49-5.28 12.85-6.57 21.38-11.24 7.86-4.3 10.76-7.67c14.93-17.39-5.59-55.38-27.79-40.01a.43.43 0 01-.67-.32l-.62-9.3a1.76 1.75 24.4 00-.35-.92c-3.86-4.91-18.65-7.38-25.08-8.32q-29.67-4.38-59.65-3.44c-17 .53-30.7.58-50.01 3.95q-8.92 1.55-15.83 6.49a1.05 1.04-16 00-.44.79c-1.9 27.19.59 59.45 18.03 81.86a.38.37 67.8 01-.25.61z"/><path fill="#fce7ac" d="M103.31 29a.65.65 0 01.35 1.06q-2.69 3.14-5.82 6.28Q71.71 62.59 44.35 89a.96.96 0 01-1.63-.66q-.75-21.93.67-44.4c.6-9.47 8.69-15.75 17.68-15.85q16.7-.19 33.43-.16 4.35.01 8.81 1.07z"/><path fill="#96989a" d="M327.65 284.72c.37 1.08 1.63 1.98 2.23 2.91 2.67 4.2-4.16 7.68-7.45 1.39a.55.54 65.2 00-.68-.26c-8.43 3.22-12.91-4.81-19.64-7.91q-2.85-1.32-5.97-2.15a1.3 1.3 0 00-1.48.65c-1.2 2.27-.67 5.11-3.91 6.09q-2.69.83-7.3-.65-19.58-6.3-29.91-24.38a1.6 1.59 52.1 00-2.53-.32l-1.05 1.08q-.31.33-.73.46-9.65 3.16-13.06-6.52c-.28-.81-1.86-2.25-2.84-2.83-6.09-3.6-10.27-8.87-14.69-13.1-6.95-6.66-12.38-11.96-11.32-22.58a1.24 1.21-15 01.51-.86l1.93-1.34a.6.59-30.2 00.2-.74l-3.71-8.02a1.8 1.78 3.9 00-.66-.75c-2.84-1.79-4.32-3.75-4.5-7.34-.46-9.22-.31-18.61-1.28-27.77-.59-5.58-1.43-11.66-.11-17.16.64-2.63 2.35-4.7 3.69-7.15a1.11 1.11 0 00.07-.91q-1.55-4.13.51-8.86 5.48-12.53 12.72-22.32c5.46-7.39 14.5-15.49 21.51-23.44 2.12-2.4 7.15-4.66 11.08-5.79q3.14-.9 5.23-4.31c2.34-3.82 9.3-3.45 13.78-3.17 4.28.26 8.19-1.76 12.12-3.1 12.06-4.12 26.86-4.51 38.73-2.2 8.79 1.72 17.45 2.46 26.15 2.85q17.14.76 28.91 13.08 9.9 10.35 20.51 24.26c4.73 6.2 11.9 11.89 13.38 19.72q2.68 14.14 2.09 28.48-.14 3.3.6 6.4 2.54 10.69 3.97 21.59c.27 2.03-2.87 5.68-3.88 7.63-1.86 3.58-2.51 8.21-4.01 12.17q-.88 2.33-1.67 6.04c-1.68 7.91-6.71 11.31-10.97 16.99a1.25 1.22-30.4 00-.24.89q1 9.33-6.56 13.71c-4.43 2.57-10.69 6.98-13.51 5.25a1.56 1.56 0 00-.93-.22q-6.8.57-7.23 7.04c-.1 1.54.8 4.18-.19 5.68q-2.8 4.29-7.78 5.75a1.9 1.83 11.8 00-.83.52c-1.79 1.95-3.07 5-.2 6.36a.63.63 0 01-.04 1.16c-4.1 1.6-5.25-1.88-6.35-4.69a1.26 1.26 0 00-2.14-.35c-3.66 4.42 1.15 9.4 1.68 14.38.29 2.76.18 4.62 1.97 6.88q3.65 4.63 5.86 10.04c5.43 13.31-3.67 26.05-16.97 28.32-8.9 1.52-19.01.2-27.52-1.79-2.36-.56-4.97.13-7.58-.46-10.86-2.47-20.62-4.62-31.26-.07-9.29 3.97-14.94 10.77-8.33 20.69 2.64 3.96 8.94 7.35 8.75 13.6q-.01.5-.42.2-7.9-5.79-16.52-10.25c-7.11-3.68-11.37-9.87-12.86-17.71-.9-4.72.62-11.46 4.55-14.48q1.98-1.52 7.62-3.56c16.37-5.92 35.01-1.45 52.42.9 10.35 1.39 27.55.84 32.82-10.58q2.16-4.67 1.09-9.86-2.49-12.12-15.52-13.65a.33.33 0 00-.35.44zm-6.1-181.6c-.38 18.65-.84 37.3-1.43 55.95-.07 2.35-2.44 13.26-1.06 15.37q9.41 14.38 12.73 17.78 16.84 17.28 37.62 28.89a.96.95-58.9 001.28-.32c6.11-9.46 12.23-23.52 10.57-35.04q-1.51-10.48-.48-20.98.19-1.87-.16-3.34-4.11-17.04-12.08-33.48c-7.92-16.33-27.11-25.53-44.91-26.74q-2.04-.14-2.08 1.91zm-81.11 120.69c3.35 3 4.35 1.21 7.24-1.34q10.47-9.31 20.96-18.6c10.46-9.26 15.5-21.95 23.74-33.51 4.27-5.98 5.27-11.41 5.66-19.08.77-15.06-1.34-31.29-3.47-46.59a1.38 1.38 0 00-1.56-1.18q-27.43 3.77-46.09 24.14c-4.8 5.24-8.57 8.85-13.04 13.15-4.3 4.12-4.96 7.7-5.64 13.45q-3.24 27.31 1.71 51.97 2.01 10.01 10.49 17.59zm36.33 2.06c-4.25 5-8.93 8.73-14.19 12.33a.8.8 0 00-.15 1.19c3.77 4.29 10.13 10.54 16.03 11.46q4.87.77 9.9.75a.71.71 0 00.67-.47c2.92-8.16 6.37-16.85 7.2-25.13q.96-9.56-.27-19.29a.29.29 0 00-.46-.19c-8.41 6.26-12.73 12.3-18.73 19.35zm46.46-9.17c-.11 6.46-1.17 12.13-2.52 18.4-1.24 5.8.38 12.78 1.6 18.49a.56.55-9 00.61.44q4.14-.45 6.42-1.91 10.37-6.67 21.12-12.68.51-.29.49-.85a.64.64 0 00-.6-.62c-8.53-.62-7.4-7.85-12.97-11.71q-6.9-4.78-13.74-9.77-.4-.29-.41.21zM404.95 98.11c-.49-7.08 6.26-12.36 12.93-11.08 12.29 2.37 12.75 25.73.85 23.72-6.38-1.07-13.29-5.72-13.78-12.64z"/><path fill="#fcfedf" d="M320.12 159.07c.59-18.65 1.05-37.3 1.43-55.95q.04-2.05 2.08-1.91c17.8 1.21 36.99 10.41 44.91 26.74q7.97 16.44 12.08 33.48.35 1.47.16 3.34-1.03 10.5.48 20.98c1.66 11.52-4.46 25.58-10.57 35.04a.96.95-58.9 01-1.28.32q-20.78-11.61-37.62-28.89-3.32-3.4-12.73-17.78c-1.38-2.11.99-13.02 1.06-15.37zM240.44 223.81q-8.48-7.58-10.49-17.59-4.95-24.66-1.71-51.97c.68-5.75 1.34-9.33 5.64-13.45 4.47-4.3 8.24-7.91 13.04-13.15q18.66-20.37 46.09-24.14a1.38 1.38 0 011.56 1.18c2.13 15.3 4.24 31.53 3.47 46.59-.39 7.67-1.39 13.1-5.66 19.08-8.24 11.56-13.28 24.25-23.74 33.51q-10.49 9.29-20.96 18.6c-2.89 2.55-3.89 4.34-7.24 1.34zM276.77 225.87c6-7.05 10.32-13.09 18.73-19.35a.29.29 0 01.46.19q1.23 9.73.27 19.29c-.83 8.28-4.28 16.97-7.2 25.13a.71.71 0 01-.67.47q-5.03.02-9.9-.75c-5.9-.92-12.26-7.17-16.03-11.46a.8.8 0 01.15-1.19c5.26-3.6 9.94-7.33 14.19-12.33z"/><ellipse fill="#96989a" transform="rotate(71.1 -57.557 240.024)" rx="8.08" ry="7.65"/><path fill="#fcfedf" d="M320.71 235.1c1.35-6.27 2.41-11.94 2.52-18.4q.01-.5.41-.21 6.84 4.99 13.74 9.77c5.57 3.86 4.44 11.09 12.97 11.71a.64.64 0 01.6.62q.02.56-.49.85-10.75 6.01-21.12 12.68-2.28 1.46-6.42 1.91a.56.55-9 01-.61-.44c-1.22-5.71-2.84-12.69-1.6-18.49z"/><ellipse fill="#96989a" transform="rotate(96.8 49.859 302.143)" rx="1.83" ry="1.03"/><path fill="#96989a" d="M331.4 293.06a.29.28 21.9 01-.15-.34q.4-1.43 1.75-2.04a.64.64 0 01.91.55l.11 2.38a.44.44 0 01-.63.42l-1.99-.97z"/><circle fill="#96989a" cx="256.66" cy="296.34" r="2.35"/><ellipse fill="#96989a" transform="rotate(17.6 -729.17 1626.623)" rx="1.04" ry=".6"/><ellipse fill="#96989a" transform="rotate(11 -1699.63 1685.387)" rx="6.92" ry="6.37"/><path fill="#232221" d="M243.26 465.96a.38.37 67.8 00.25-.61c-17.44-22.41-19.93-54.67-18.03-81.86a1.05 1.04-16 01.44-.79q6.91-4.94 15.83-6.49c19.31-3.37 33.01-3.42 50.01-3.95q29.98-.94 59.65 3.44c6.43.94 21.22 3.41 25.08 8.32a1.76 1.75 24.4 01.35.92l.62 9.3a.43.43 0 00.67.32c22.2-15.37 42.72 22.62 27.79 40.01q-2.9 3.37-10.76 7.67-8.53 4.67-21.38 11.24-3.6 1.85-1.49 5.28a1.08 1.07-52.5 01.11.85q-1.08 3.46-4.7 3.77a1.54 1.52 61.9 01-1.09-.34l-3.58-2.92a.49.49 0 00-.69.07l-4.81 5.74a.63.63 0 00.4 1.03c13.74 1.69 54.54 9.19 59.53 22.85 5.3 14.53-41.81 25.23-49.65 26.79q-78.65 15.6-155.32-7.28c-7.2-2.15-30.27-9.27-29.2-20.05 1.44-14.46 48.64-22.14 59.97-23.31zm-11.17-80.85q-2.25 1.72-1.3 4.89-.73 4.09-.73 8.26c-.03 16.53 2.41 36.01 9.27 50.81 6.08 13.12 18.82 27.91 33.22 32.66 4.86 1.61 9.88 3.69 14.35 4.55 24.02 4.62 49.76-2.59 65.58-21.61 3.55-4.26 6.64-9.8 9.51-14.9 4.72-8.41 6.39-16.14 8.11-26.55q2.75-16.55 1.78-33.42-.23-3.97-4.08-5.13c-19.47-5.83-39.32-6.52-59.64-7.43-12.71-.56-25.52.05-38.22.7q-18.05.94-35.39 5.97-1.16.33-2.46 1.2zm162.03 18.51c-3.76-3.17-11.23-1.02-14.24 1.65a1.45 1.44 74.5 00-.46.82q-.46 2.41-2.04 4.3a1.56 1.52-22.5 00-.35.82q-1.78 16.28-6.52 31.95-.15.5.32.27c7.98-3.83 18.75-7.23 25.15-13.2 7.21-6.71 5.34-20.53-1.86-26.61zM190.5 486.96l-1.83 3.02a.95.94 48 00-.04.91c6.74 14.01 57.86 19.92 72.08 21.57 9.32 1.08 19.47 1.38 29.26 1.94 18.36 1.05 35.97-.45 54.59-1.57q14.18-.86 33.4-4.77c3.68-.75 42.74-10.02 32.99-19.01q-5.86-5.39-14.41-7.24-2.1-1.54-4.85-2.29-18.75-5.09-38.04-7.97a.71.69 24.2 00-.64.23q-7.78 8.73-18.66 13.04a.46.46 0 00.13.88c3.43.29 12.58 1.78 13.76 5.64a1.04 1.04 0 01-.16.9c-3.89 5.19-25.58 6.47-30.83 6.72-9.59.45-62.07 1.46-65.43-8.97a.67.67 0 01.27-.77c3.95-2.59 8.71-3.33 13.22-4.6q.59-.16.06-.46-9.63-5.44-17.72-13.02a1.29 1.28 65.3 00-.92-.34q-3.76.13-7.47.71-17.2 2.7-33.76 7.96-8.54 2.72-15 7.49z"/><path fill="#96989a" d="M230.79 390l4.26 1.23a.67.65-80.9 01.48.68q-.98 17.13 2.06 33.91c2.33 12.84 8.45 29.14 18.72 37.87q9.38 7.96 16.31 11.86c22.59 10.84 48.82 8.71 68.74-7.21 20.12-16.08 27.2-50.27 25.36-74.47a.64.64 0 00-.79-.57c-16.08 3.84-29.83 5.05-49.18 5.39q1.11-1.42 1.21-2.69 18.55-.36 36.8-3.63c1.51-.27 2.88-1.31 4.8-.94a.22.21-59 00.18-.05l.2-.19q.38-.35-.11-.5-10.09-2.95-21.83-4.2-26.71-2.84-51.81-1.92c-8.99.33-18.15-.02-26.99 1.19q-5.53.77-11.06 1.59-1.5.22-3.01.95-1.44.7-2.91 1.31-6.06-.07-10.13-4.5 1.3-.87 2.46-1.2 17.34-5.03 35.39-5.97c12.7-.65 25.51-1.26 38.22-.7 20.32.91 40.17 1.6 59.64 7.43q3.85 1.16 4.08 5.13.97 16.87-1.78 33.42c-1.72 10.41-3.39 18.14-8.11 26.55-2.87 5.1-5.96 10.64-9.51 14.9-15.82 19.02-41.56 26.23-65.58 21.61-4.47-.86-9.49-2.94-14.35-4.55-14.4-4.75-27.14-19.54-33.22-32.66-6.86-14.8-9.3-34.28-9.27-50.81q0-4.17.73-8.26z"/><path fill="#232221" d="M317.96 396l-6.21.29-3.75-.25q-22.43-.28-44.75-2.55-10.61-1.08-21.03-3.88 1.47-.61 2.91-1.31 1.51-.73 3.01-.95 5.53-.82 11.06-1.59c8.84-1.21 18-.86 26.99-1.19q25.1-.92 51.81 1.92 11.74 1.25 21.83 4.2.49.15.11.5l-.2.19a.22.21-59 01-.18.05c-1.92-.37-3.29.67-4.8.94q-18.25 3.27-36.8 3.63z"/><path fill="#fff" d="M232.09 385.11q4.07 4.43 10.13 4.5 10.42 2.8 21.03 3.88 22.32 2.27 44.75 2.55-.9 2.1-3.29 2.71l-2.71.54c-15.31-.68-30.03-1.53-45.33-3.42a1.05 1.04 5.5 00-1.17.96c-.19 2.59-.5 5.27-.44 7.89.58 22.89 1.2 40.22 11.01 58.89q2.37 6.24 6.55 11.94-6.93-3.9-16.31-11.86c-10.27-8.73-16.39-25.03-18.72-37.87q-3.04-16.78-2.06-33.91a.67.65-80.9 00-.48-.68l-4.26-1.23q-.95-3.17 1.3-4.89z"/><path fill="#232221" d="M272.62 475.55q-4.18-5.7-6.55-11.94 8.51 5.35 17.99 7.42c10.81 2.36 20.61-5.1 24.7-14.78a.38.38 0 00-.3-.52c-10.79-1.25-9.48-12.8-8.7-20.62q1.79-17.87 2.24-35.82l2.71-.54 4.79.21q3.71.68 7.25-.27c19.35-.34 33.1-1.55 49.18-5.39a.64.64 0 01.79.57c1.84 24.2-5.24 58.39-25.36 74.47-19.92 15.92-46.15 18.05-68.74 7.21z"/><path fill="#fff" d="M317.96 396q-.1 1.27-1.21 2.69-3.54.95-7.25.27c.63-1.33 2.57-.99 2.25-2.67l6.21-.29z"/><path fill="#96989a" d="M302 399.29q-.45 17.95-2.24 35.82c-.78 7.82-2.09 19.37 8.7 20.62a.38.38 0 01.3.52c-4.09 9.68-13.89 17.14-24.7 14.78q-9.48-2.07-17.99-7.42c-9.81-18.67-10.43-36-11.01-58.89-.06-2.62.25-5.3.44-7.89a1.05 1.04 5.5 011.17-.96c15.3 1.89 30.02 2.74 45.33 3.42zM308 396.04l3.75.25c.32 1.68-1.62 1.34-2.25 2.67l-4.79-.21q2.39-.61 3.29-2.71z"/><path fill="#fcfedf" d="M394.12 403.62c7.2 6.08 9.07 19.9 1.86 26.61-6.4 5.97-17.17 9.37-25.15 13.2q-.47.23-.32-.27 4.74-15.67 6.52-31.95a1.56 1.52-22.5 01.35-.82q1.58-1.89 2.04-4.3a1.45 1.44 74.5 01.46-.82c3.01-2.67 10.48-4.82 14.24-1.65z"/><path fill="#96989a" d="M396.54 481.81q6.6 4.31 13.75 7.71a2.02 2.02 0 01.42 3.38c-4.78 3.96-10.06 6.47-16.41 8.51q-17.96 5.75-35.56 7.55c-43.81 4.48-89.86 4.04-133.83-4.22-12.56-2.36-25.01-6.26-34.91-14.28a.8.79-54.2 01-.17-1.06l1.2-1.83a.37.37 0 00-.17-.55q-.15-.07-.36-.06 6.46-4.77 15-7.49 16.56-5.26 33.76-7.96 3.71-.58 7.47-.71a1.29 1.28 65.3 01.92.34q8.09 7.58 17.72 13.02.53.3-.06.46c-4.51 1.27-9.27 2.01-13.22 4.6a.67.67 0 00-.27.77c3.36 10.43 55.84 9.42 65.43 8.97 5.25-.25 26.94-1.53 30.83-6.72a1.04 1.04 0 00.16-.9c-1.18-3.86-10.33-5.35-13.76-5.64a.46.46 0 01-.13-.88q10.88-4.31 18.66-13.04a.71.69 24.2 01.64-.23q19.29 2.88 38.04 7.97 2.75.75 4.85 2.29z"/><path fill="#fff" d="M396.54 481.81q8.55 1.85 14.41 7.24c9.75 8.99-29.31 18.26-32.99 19.01q-19.22 3.91-33.4 4.77c-18.62 1.12-36.23 2.62-54.59 1.57-9.79-.56-19.94-.86-29.26-1.94-14.22-1.65-65.34-7.56-72.08-21.57a.95.94 48 01.04-.91l1.83-3.02q.21-.01.36.06a.37.37 0 01.17.55l-1.2 1.83a.8.79-54.2 00.17 1.06c9.9 8.02 22.35 11.92 34.91 14.28 43.97 8.26 90.02 8.7 133.83 4.22q17.6-1.8 35.56-7.55c6.35-2.04 11.63-4.55 16.41-8.51a2.02 2.02 0 00-.42-3.38q-7.15-3.4-13.75-7.71z"/><path fill="#96989a" d="M585.46 577.75v3.75q-3.49.52-5.6 3.35a.31.31 0 00-.02.35l.16.26h-6q6.07-3.33 11.46-7.71z"/><path fill="#fff" d="M585.46 581.5l-.02 3.44a.5.5 0 01-.5.5l-4.94.02-.16-.26a.31.31 0 01.02-.35q2.11-2.83 5.6-3.35z"/><path fill="#96989a" d="M588.19 591h-5.75q2.87-.63 5.75 0z"/></svg>