<svg xmlns="http://www.w3.org/2000/svg" viewBox="0 0 591 591"><g stroke-width="2" fill="none"><path stroke="#4b4c4d" vector-effect="non-scaling-stroke" d="M590.06 0l.23 4"/><path stroke="#111010" vector-effect="non-scaling-stroke" d="M590.29 4v1"/><path stroke="#4b4c4d" vector-effect="non-scaling-stroke" d="M590.29 5l-.04 584.71"/><path stroke="#59595a" vector-effect="non-scaling-stroke" d="M590.25 589.71l-.45.32a1.26 1.25 27.6 01-.71.22H1.22a1.14 1.12 61 01-.61-.18q-.28-.17-.61-.13"/><path stroke="#7e7f70" vector-effect="non-scaling-stroke" d="M585.49 5.52a.27.27 0 00-.27-.27H5.52a.27.27 0 00-.27.27v579.7a.27.27 0 00.27.27h579.7a.27.27 0 00.27-.27V5.52"/><path stroke="#5b5c5d" vector-effect="non-scaling-stroke" d="M590.81 0q.25 2.1-.52 4"/><path stroke="#212020" vector-effect="non-scaling-stroke" d="M591 316.31l-.21-.06"/><path stroke="#5b5c5d" vector-effect="non-scaling-stroke" d="M590.79 316.25l-.1-311.06a.15.15 0 00-.13-.15l-.27-.04M590.79 316.25l-.08 273.5"/><path stroke="#a3a4a7" vector-effect="non-scaling-stroke" d="M590.71 589.75l-.46-.04"/><path stroke="#fbf1c4" vector-effect="non-scaling-stroke" d="M38.5 97.53c20.99-19.89 42.18-40.2 62.29-61.24a1.32 1.32 0 00-.48-2.14q-1.22-.48-3.56-.45-16.09.18-32.17-.08-11.39-.18-15.52 1.2Q37.58 38.67 37.29 53c-.3 14.55-1.03 29.31-.45 43.85a.98.98 0 001.66.68"/><path stroke="#7e7f70" vector-effect="non-scaling-stroke" d="M140.79 260.5c-4.96 26.05-4.87 48.22 1.14 74.02.98 4.2 3.23 8.32 4.37 11.99 4.71 15.16 12.14 27.53 21.74 40.74"/><path stroke="#8f8f80" vector-effect="non-scaling-stroke" d="M168.04 387.25q19.16 25.28 46.74 41.15a.48.48 0 01.2.63l-6.25 12.9a.46.46 0 01-.63.2q-10.86-5.96-20.85-13.29c-15.1-11.08-26.44 7.14-12.17 18.34q8 6.28 22.41 14.32a.65.64-62.8 01.26.84l-1.19 2.47a.67.67 0 00.29.88l9.97 5.06a.7.7 0 001-.45l.56-2.25a.67.66-70.7 01.93-.45q25.82 12.15 54.11 16.06a.75.74 6.5 01.64.8q-.36 4.65-2.26 8.94a.8.79 9.4 01-.66.47c-7.26.64-14.11 1.2-21.37 2.82-10.87 2.44-29.39 5.42-36.67 14.24-3.09 3.74-2.75 15.14-2.62 19.9.1 3.91 1.41 5.89 4.44 8.02 10.1 7.12 20.62 11.18 32.34 14.28 5.7 1.5 11.96 1.76 17.97 2.65 6.94 1.02 14.39 1.36 21.35 1.06 24-1.04 47.37-4.12 68.65-13.29 3.25-1.4 12.71-8.17 12.93-11.87.23-3.71 2.15-17.3-.91-19.49-16.94-12.07-34.87-15.51-55.65-16.25a.5.49 87.3 01-.48-.44l-1.31-9.48a.47.46-7 01.42-.53q16.19-1.58 24.58-3.18c69.36-13.22 127.18-64.59 147.73-132.7 11.2-37.12 10.6-78.79-1.65-115.56-15.73-47.25-48.52-84.45-92.24-108.02a1.27 1.27 0 01-.5-1.75l1.18-2.07a.51.51 0 00-.2-.71l-9.59-5.13a.57.57 0 00-.79.28l-1.37 3.18a.86.85-65.7 01-1.15.44c-6.73-3.15-19.6-8.96-26.91-8.14-5.22.59-9.79 4.86-9.97 10.23-.15 4.44 4.8 9.21 8.22 10.32q9.85 3.23 19.24 7.1a.7.7 0 01.36.94l-6.16 12.96a.59.58-66 01-.75.29c-67.23-27.81-142.73-6.64-184.99 52.32-3.77 5.26-7.07 11.3-10.39 17.14-6.61 11.61-10.7 24.33-14.09 37.07"/><path stroke="#111010" vector-effect="non-scaling-stroke" d="M168.04 387.25q.87.24 1.26-.28a.6.6 0 00-.06-.79q-2.62-2.61-3.53-4.13-7.55-12.53-14.23-25.54c-2.73-5.33-3.19-10.72-5.96-15.59q-1.32-2.31-1.68-4.25c-1.45-7.67-3.56-15.76-4.3-22.97-1.74-17.15-.39-30.63 2.09-50.89q.14-1.15-.84-2.31"/><path stroke="#d7d7c9" vector-effect="non-scaling-stroke" d="M104.25 388c9.15 3.12 4.87 9.09 9.91 14.39q.35.36.11-.08-2.08-3.9-3.1-8.21c-.93-3.91-3.12-5.75-6.75-6.83a.75.74 13.3 01-.53-.85l.27-1.5q.21-1.2-.52-.23-.95 1.26-.22 2.6a1.52 1.49 84.9 00.83.71"/><path stroke="#5b5c5d" vector-effect="non-scaling-stroke" d="M352.71 130.75l17.28 7.55"/><path stroke="#69696a" vector-effect="non-scaling-stroke" d="M369.99 138.3q13.91 7.3 26.26 16.74"/><path stroke="#5b5c5d" vector-effect="non-scaling-stroke" d="M396.25 155.04q31.2 23.7 49.75 58.25"/><path stroke="#69696a" vector-effect="non-scaling-stroke" d="M446 213.29q9.54 19.53 15.25 40.5"/><path stroke="#5b5c5d" vector-effect="non-scaling-stroke" d="M461.25 253.79l1.71 7.96"/><path stroke="#69696a" vector-effect="non-scaling-stroke" d="M462.96 261.75l2.14 11.8"/><path stroke="#5b5c5d" vector-effect="non-scaling-stroke" d="M465.1 273.55q-.5 6.06.33 12.19"/><path stroke="#69696a" vector-effect="non-scaling-stroke" d="M465.43 285.74q1.13 24.21-3.6 48.08"/><path stroke="#5b5c5d" vector-effect="non-scaling-stroke" d="M461.83 333.82c-6.23 19.6-11.75 35.69-20.76 50.49q-7.64 12.55-19.57 26.4"/><path stroke="#69696a" vector-effect="non-scaling-stroke" d="M421.5 410.71q-13.55 15.29-30.25 27.08"/><path stroke="#5b5c5d" vector-effect="non-scaling-stroke" d="M391.25 437.79q-11.73 7.99-24.25 14.67"/><path stroke="#69696a" vector-effect="non-scaling-stroke" d="M367 452.46q-19.66 9.48-41 14.08"/><path stroke="#5b5c5d" vector-effect="non-scaling-stroke" d="M326 466.54c-21.53 4.52-41.79 4.51-62.5 1.75"/><path stroke="#69696a" vector-effect="non-scaling-stroke" d="M263.5 468.29q-11.78-1.58-18.68-3.86c-6.36-2.09-13-3.78-18.96-6.26q-7.62-3.16-15.25-6.61"/><path stroke="#5b5c5d" vector-effect="non-scaling-stroke" d="M210.61 451.56l-6.86-4.02"/><path stroke="#69696a" vector-effect="non-scaling-stroke" d="M203.75 447.54q-5.08-2.41-9.61-6.06"/><path stroke="#5b5c5d" vector-effect="non-scaling-stroke" d="M194.14 441.48q-2.43-2.01-5.6-2.98"/><path stroke="#69696a" vector-effect="non-scaling-stroke" d="M188.54 438.5c-2.75-2.71-8.12-7.58-12.25-6.16-3.35 1.17-1.67 6.31.38 7.77q12.32 8.74 25.32 16.34 8.75 5.12 26.01 11.59"/><path stroke="#5b5c5d" vector-effect="non-scaling-stroke" d="M228 468.04q6.43 2.66 13.21 4.21"/><path stroke="#69696a" vector-effect="non-scaling-stroke" d="M241.21 472.25q8.51 2.55 17.29 3.96"/><path stroke="#5b5c5d" vector-effect="non-scaling-stroke" d="M258.5 476.21c14.84 3.3 29.31 4.04 44.52 2.5 31.94-3.22 60.6-12.78 87.77-30.41q5.75-3.73 8.96-6.51"/><path stroke="#69696a" vector-effect="non-scaling-stroke" d="M399.75 441.79c22.41-16.19 42.24-38.99 54.34-64.65 3.94-8.35 7.8-16.26 10.81-24.92"/><path stroke="#5b5c5d" vector-effect="non-scaling-stroke" d="M464.9 352.22l3.56-12.47"/><path stroke="#69696a" vector-effect="non-scaling-stroke" d="M468.46 339.75q4.44-17.88 6.31-36.18c1.11-10.9-.49-21.13-1.81-31.77-2.25-18.05-8.16-39.8-16.16-55.1q-3.74-7.17-7.92-14.23"/><path stroke="#5b5c5d" vector-effect="non-scaling-stroke" d="M448.88 202.47q-2.06-4.61-5.94-10.41-20.6-30.75-51.15-50.31"/><path stroke="#69696a" vector-effect="non-scaling-stroke" d="M391.79 141.75l-8.54-5.29"/><path stroke="#5b5c5d" vector-effect="non-scaling-stroke" d="M383.25 136.46l-1.46-.71"/><path stroke="#69696a" vector-effect="non-scaling-stroke" d="M381.79 135.75q-18.05-10.46-38-16.74c-4.15-1.31-7.25-1.11-8.17 3.75a.91.89-63.3 00.27.84c2.86 2.64 6.1 3.02 9 4.15q3.9 1.52 7.82 3"/><path stroke="#a3a4a7" vector-effect="non-scaling-stroke" d="M381.79 135.75q-.41.92-1.31.48c-8.43-4.08-14.9-8.32-22.9-10.41-5.09-1.34-9.78-4.36-14.68-6.31q-4.24-1.69-5.76 2.71a1.38 1.38 0 00.68 1.68c1.3.65 16.63 5.24 14.89 6.85M383.25 136.46q-.48.37-.62.88a1.05 1.02 33.3 00.2.91c1.22 1.43 2.76 1.33 4.08 2.15.97.61 4.33 3.35 4.88 1.35M448.88 202.47q2.91 11.13 5.32 14.84c4.38 6.77 6.9 14.63 9.36 21.15q1.57 4.17 2.77 8.47c.86 3.01 1.21 8.5 3.38 12.57 1.17 2.18 1.1 3.58.81 5.87a1.49 1.44 32 00.26 1.05q1.39 1.97.77 4.29a1.76 1.74-46.6 00.02.97q.63 2.07.81 4.2c.12 1.39-.67 2.63.2 4.31a1.22 1.2-50.5 01.08.92q-.71 2.28.24 4.53a1.34 1.29 43.8 01.04.94q-2.19 6.41-.75 12.93c.66 2.97.08 5.42.08 8.33 0 11.05-3.08 20.8-5.03 31.5a.59.59 0 00.43.67q.44.11.79-.26M464.9 352.22q-1.81-1.42-2.05.5c-.44 3.7-3.26 9.1-4.93 12.5-2.37 4.82-3.9 11.1-7.34 14.97q-3.23 3.63-4.11 8.53-.2 1.12-1.24 1.1a.61.61 0 00-.6.44c-.73 2.53-2.67 4.33-3.69 6.15-5.86 10.42-14.42 19.1-22.24 28.05-3.15 3.62-8.39 6.94-11.11 9.15q-4.38 3.55-8.7 7.41a.39.39 0 00.2.68l.66.09M258.5 476.21l.6-.34q1.34-.76-.15-1.14c-5.42-1.39-10.91-1.96-16.28-3.42q-1-.27-1.46.94M228 468.04q.56-1.41-1-1.77-4.57-1.07-8.3-3.68c-3.97-2.78-8.52-3.13-12.69-6.28-2.01-1.52-4.26-2.23-6.51-3.05q-2.57-.93-4.75-2.54-8.84-6.48-18.09-12.36c-1.44-.91-.3-6.59 3.12-4.6q4.11 2.38 7.4 5.68a.68.68 0 00.82.11q.61-.34.54-1.05"/><path stroke="#a3a4a7" vector-effect="non-scaling-stroke" d="M194.14 441.48q-.16 2.48 1.84 3.43c2.3 1.08 4.45 2.43 6.77 3.4a.57.57 0 00.72-.26l.28-.51M210.61 451.56q1.87 2.64 5.55 4.53c3.41 1.76 7.1 2.28 9.81 3.33q4.67 1.81 9.39 3.52a1.19 1.18 86.5 01.64.57l.51 1.02a.55.54 60.6 00.77.22l1.42-.86a.81.8-44.1 01.85.01c3.94 2.55 7.88 2.23 11.78 3.33q5.8 1.63 11.83 2.24a.55.55 0 00.61-.48q.05-.36-.27-.7M326 466.54q-.22.62.27 1.03a.94.93-35 00.89.15q5.9-2.09 12.06-2.99 3.65-.54 6.46-1.7c7.17-2.96 14.87-5.45 21.53-9.43a.6.6 0 00.23-.77q-.12-.24-.44-.37M391.25 437.79q.05.38.27.6a.62.62 0 00.81.08c5.46-3.86 11.5-8.23 16.09-13.07q1.01-1.06 3.27-2.45 2.83-1.74 9.54-9.68 1.41-1.66.27-2.56M461.83 333.82q2.64-2.35 2.81-5.81c.21-4.61.93-8.57 1.45-13 .53-4.56 3.26-8 2.51-12.71-.21-1.36-1.32-7.86.04-9.11a.73.72-28.5 00.21-.7l-1.61-6.96a.85.83 2 00-.58-.61q-.83-.24-1.23.82M465.1 273.55q1.3-6.01-.73-11.84a.8.79-7.3 00-.69-.53q-.6-.05-.72.57M461.25 253.79c1.47.2 1.93-.71 1.59-2.01q-1.46-5.7-3.41-11.26c-1.14-3.25-3.49-6.86-4.59-10.61-1.8-6.11-4.7-11.02-7.49-16.53a.72.72 0 00-.76-.38q-.32.05-.59.29M396.25 155.04q.7-.6.44-1.34a.86.85 85 00-.64-.54q-1.03-.21-1.52-1.13-.25-.46-.68-.77c-4.78-3.46-9.76-6.17-14.56-9.7q-4.07-3-9.3-3.26"/><path stroke="#8f8f80" vector-effect="non-scaling-stroke" d="M256.42 460.39c66.07 14.79 137.63-16.92 174.43-72.86 18.81-28.61 30.61-65.85 28.72-100.13-.87-15.73-4.28-31.33-9.02-45.59-6.94-20.92-16.96-38.64-30.79-55.72-13.45-16.63-31.96-30.11-50.62-40.4a.44.44 0 00-.59.16q-3.65 6.08-6.4 12.63a1.22 1.22 0 00.55 1.54q31.48 16.72 52.13 45.46c27.06 37.64 34.59 84.24 23.84 127.29-1.92 7.72-5.35 15.64-8.52 23.22-6.47 15.46-15.09 28.39-26.4 40.82-45.72 50.25-115 65.44-177.31 37.6a.75.75 0 00-.93.27q-3.9 5.73-5.85 12.41a.74.72 25.2 00.3.81q3.01 1.98 8.24 3.9 15.64 5.77 28.22 8.59"/><path stroke="#909090" vector-effect="non-scaling-stroke" d="M325.13 152.64c-36.73-9.94-75.3-3.25-108.06 15.41a.34.33-33 00-.11.49q5.96 8.52 10.26 18a.78.77 73.9 00.8.45q29.03-3.63 58.03.35a1.32 1.31 29.8 00.97-.26c14.61-11.34 27.12-19.24 44.24-23.72a.45.45 0 00.27-.66l-5.59-9.45a1.34 1.34 0 00-.81-.61"/><path stroke="#69696a" vector-effect="non-scaling-stroke" d="M306.25 241.29q7.41 4.41 15.53 7.47"/><path stroke="#5b5c5d" vector-effect="non-scaling-stroke" d="M321.78 248.76l13.72 6.95"/><path stroke="#69696a" vector-effect="non-scaling-stroke" d="M335.5 255.71q13.24 6.86 25.58 15.31a1.47 1.45-39.4 001.4.13c5.3-2.34 11.51-6.44 15.11-8.45q11.8-6.61 23.47-13.51a1.49 1.45-5.5 00.61-.72c.72-1.88.14-3.76.04-5.35q-1.08-17.91-6.42-34.94c-2.96-9.47-6.12-22.47-15.75-25.43"/><path stroke="#5b5c5d" vector-effect="non-scaling-stroke" d="M379.54 182.75q-3.98-2.13-8.25-3.04"/><path stroke="#69696a" vector-effect="non-scaling-stroke" d="M371.29 179.71l-9.5-3.71"/><path stroke="#5b5c5d" vector-effect="non-scaling-stroke" d="M361.79 176l-2.29-.71"/><path stroke="#909090" vector-effect="non-scaling-stroke" d="M359.5 175.29c-5.91-3.73-13.13-4.7-21.73-7.62-5.73-1.94-22.04 6-25.25 7.83q-7.29 4.18-19.37 14.23a.95.94 67.3 00-.33.82q.13 1.39.64 2.72c5.74 15.25 6.9 30.09 7.73 46.21a.68.67 5.3 00.51.61l4.55 1.2"/><path stroke="#cacbcd" vector-effect="non-scaling-stroke" d="M359.5 175.29c3.75 9.64 11.5 17.72 11.71 28.45q.5 25.96-6.12 50.5a.96.96 0 01-1.31.63q-24.9-10.6-51.3-13.67-1.74-.21-3.48-.16"/><path stroke="#d8d8d9" vector-effect="non-scaling-stroke" d="M309 241.04l-2.75.25"/><path stroke="#a3a4a7" vector-effect="non-scaling-stroke" d="M361.79 176q.12.95 1.28 1.47 4.25 1.94 8.22 2.24M379.54 182.75q-.71.43-.77 1.15a.59.59 0 00.46.63c4.8 1.04 6.32 5.3 8.93 8.8 1.81 2.42 2.41 5.04 3.56 7.78.98 2.33 1.23 5.25 2.77 7.72a1.6 1.51 32 01.24.92q-.13 2.92 1.02 6.48c2.71 8.43 2.81 18.22 4.73 27.26q.75 3.5-1.53 5.22c-7.09 5.32-16.26 9.62-24.17 14.44q-4.72 2.88-9.57 5.59-3.8 2.12-7.22-.76-6.08-5.11-13.11-8.71c-2.44-1.26-5.06-3.58-8.32-4.43a.79.78 26.5 00-.83.27q-.19.24-.23.6M321.78 248.76q1.13-1.27-.59-1.7c-1.51-.37-12.2-5.36-12.19-6.02"/><path stroke="#111010" vector-effect="non-scaling-stroke" d="M199.04 237.25c1.79-.53.94-2.18 2.25-2.89a1.55 1.53-2.2 00.64-.68c3.19-6.83 5.66-13.96 9-20.64.85-1.7 5.44-9.33 3.57-10.58"/><path stroke="#909090" vector-effect="non-scaling-stroke" d="M214.5 202.46q2.88-6.65 7.51-11.99a.84.84 0 00.15-.85q-3.46-8.98-8.33-17.26a2.08 2.08 0 00-2.86-.73c-18.59 11.17-33.99 27.77-45.39 46.2-5.38 8.69-9.88 19.08-14.03 28.94q-2.09 4.96-3.27 10.22c-1.05 4.71 4.58 9.74 7.86 12.51a.62.62 0 00.85-.05c10.84-11.82 25.55-19.98 39.75-27.1a1.31 1.3-3.1 00.64-.71l1.66-4.39"/><path stroke="gray" vector-effect="non-scaling-stroke" d="M214.5 202.46c-5.76 10.13-9.83 21.48-14.75 32.07q-.35.75-.71 2.72"/><path stroke="#5b5c5d" vector-effect="non-scaling-stroke" d="M404.29 222l1.67 13.5"/><path stroke="#69696a" vector-effect="non-scaling-stroke" d="M405.96 235.5l1.35 12.43a.93.92-79.3 00.49.73q2.21 1.19 4.68 4.35 13.97 17.91 21.57 35.78a.53.52-22.3 00.68.28c1.87-.75 2.4-2.15 2.17-4.2-2.3-20.86-7.5-40.74-17.5-58.68"/><path stroke="#5b5c5d" vector-effect="non-scaling-stroke" d="M419.4 226.19q-3.32-7.94-8.64-14.56"/><path stroke="#69696a" vector-effect="non-scaling-stroke" d="M410.76 211.63q-7-10.86-16.16-19.57-.36-.35-.13.1 7.26 14.2 9.82 29.84"/><path stroke="#a3a4a7" vector-effect="non-scaling-stroke" d="M410.76 211.63q-2.92.56-4.33-1.83c-.79-1.34-4.05-7.38-5.13-7.88q-.59-.27-.26.29.17.3.28.64 2.67 8.86 4.02 18.01a1.13 1.12 60.2 01-.24.89q-.35.43-.81.25M419.4 226.19q-1.35 1.99.65 3.66.39.32.57.79c2.47 6.16 5.36 12.42 7.04 18.67 1.98 7.41 5.39 16.6 6.02 22.7q.52 4.92 1.42 7.52a.45.44 74.7 01-.33.59q-1.49.31-2.73-1.42-5.62-7.85-8.27-12.85c-1.95-3.69-5.02-5.93-7.15-9.73q-2.32-4.15-6.18-7.06c-2.45-1.84-1.5-4.18-2.03-6.36q-.91-3.69-1.14-7.49a.65.64 73.2 00-.96-.52q-.45.26-.35.81"/><path stroke="#5b5c5d" vector-effect="non-scaling-stroke" d="M255.5 348.54l4.81 2.82"/><path stroke="#69696a" vector-effect="non-scaling-stroke" d="M260.31 351.36c14.37 9.15 28.77 16.96 45.2 21.85a1.28 1.26-50.1 00.93-.09c13.19-6.68 25.88-14.69 38.74-22.44q6.97-4.2 18.65-14.87"/><path stroke="#5b5c5d" vector-effect="non-scaling-stroke" d="M363.83 335.81q1.12-3.61.63-8.06"/><path stroke="#69696a" vector-effect="non-scaling-stroke" d="M364.46 327.75q.76-20.49-2.72-40.77"/><path stroke="#5b5c5d" vector-effect="non-scaling-stroke" d="M361.74 286.98c-.12-2.56-.4-9.85-3.7-10.48"/><path stroke="#909090" vector-effect="non-scaling-stroke" d="M358.04 276.5c-17.25-12.23-36.37-22.28-55.41-31.49a1.26 1.25-52.8 00-1.36.19c-15.81 13.86-33.87 25.19-52.28 35.26-1.79.98-1.85 1.9-1.79 3.79.68 22.08 1.51 42.38 3.99 61.43a.99.96-79.1 00.48.73l3.83 2.13"/><path stroke="#cacbcd" vector-effect="non-scaling-stroke" d="M358.04 276.5q-8.74 21.02-17.93 34.59-13.66 20.18-20.15 27.87-3.25 3.86-17.55 17.7-1.21 1.17-3.06 4.31a.96.94-76 01-.76.47q-1.3.09-3.41-.37c-13.62-2.94-21.88-5.86-36.17-11.83q-1.71-.71-3.51-.7"/><path stroke="#a3a4a7" vector-effect="non-scaling-stroke" d="M361.74 286.98q-.18 8.33.68 15.33 1.45 11.89.51 22.92-.21 2.36 1.53 2.52M363.83 335.81q-6.04 3.88-11.85 7.77c-4.83 3.25-11.28 9.04-18.34 12.26-4.59 2.08-8 5.82-12.34 7.93q-6.99 3.41-11.1 6.19-2.22 1.51-4.88 1.79a1.34 1.34 0 01-.91-.24q-2.81-1.92-4.43-2.22-10.57-1.94-18.98-8.6-.39-.3-.88-.38c-3.21-.51-5.6-3-7.9-4.05q-5.86-2.68-11.91-4.9"/><path stroke="#111010" vector-effect="non-scaling-stroke" d="M157.71 290.75q-1.41.03-1.45 1.25-.49 13.21-.22 32.34c.05 3.44.68 6.49 1.39 9.77a.58.58 0 00.76.42q.61-.22.6-.78"/><path stroke="#909090" vector-effect="non-scaling-stroke" d="M158.79 333.75l1.46 1.29"/><path stroke="#5b5c5d" vector-effect="non-scaling-stroke" d="M160.25 335.04l-.38.23a.44.44 0 00-.14.6l.27.42"/><path stroke="#69696a" vector-effect="non-scaling-stroke" d="M160 336.29c3.09 4.36 8.49 8.48 11.23 10.94 8.27 7.44 20.11 14.82 28.52 19.31"/><path stroke="#5b5c5d" vector-effect="non-scaling-stroke" d="M199.75 366.54l4.96 2.46"/><path stroke="#69696a" vector-effect="non-scaling-stroke" d="M204.71 369l4.98 1.89a1.01.99 38.3 00.92-.1q12.55-8.21 32.94-22.73 1.35-.97 1.2-2.1"/><path stroke="#5b5c5d" vector-effect="non-scaling-stroke" d="M244.75 345.96l-.54-1.46"/><path stroke="#909090" vector-effect="non-scaling-stroke" d="M244.21 344.5q-2.5-32.7-2.23-65.02a1.78 1.76-73.8 00-.81-1.49q-19.61-12.64-37.46-27.46-2.39-1.99-3.88-3.67a.64.63 55.6 00-.77-.15c-14.1 7.2-28.63 15.87-40.25 27.16a1.7 1.62 75.5 00-.46.83c-1.04 4.89-.22 10.91-.64 16.05"/><path stroke="#cacbcd" vector-effect="non-scaling-stroke" d="M244.21 344.5q-18.5 9.23-38.7 13.67c-.62.14-1.37.04-2.03.09q-.5.04-.94-.17-13.49-6.41-26.59-13.59c-4.85-2.66-10.3-6.49-15.7-9.46"/><path stroke="gray" vector-effect="non-scaling-stroke" d="M158.79 333.75c-.73-3.33-1.54-5.88-1.54-9.39q-.01-16.81.46-33.61"/><path stroke="#a3a4a7" vector-effect="non-scaling-stroke" d="M244.75 345.96c-7.25 3.83-14.99 10.48-19.67 13.72q-6.69 4.64-13.4 9.27-2.37 1.63-5.28-.32a.86.86 0 00-.87-.05l-.82.42M199.75 366.54q.45-.3.54-.71a.7.69-69.5 00-.35-.77q-10.17-5.45-19.57-12.05c-3.54-2.48-6.61-7.65-9.86-9.51q-5.17-2.95-9.56-7.04a.82.81-26.4 00-.64-.21l-.31.04"/><path stroke="#69696a" vector-effect="non-scaling-stroke" d="M411.04 367.5l-.32 9.55a.34.34 0 00.63.19c11.13-18.35 19.77-37.71 23.44-58.99"/><path stroke="#5b5c5d" vector-effect="non-scaling-stroke" d="M434.79 318.25c1.97-7.64 2.93-14.95 2.66-22.82a.35.35 0 00-.66-.15c-5.44 10.25-7.74 19.98-14.46 30.79-2.77 4.46-5.23 11.03-8.85 16-1.5 2.05-4.52 5.95-4.08 8.5q1.44 8.4 1.64 16.93"/><path stroke="#a3a4a7" vector-effect="non-scaling-stroke" d="M434.79 318.25q0-1.01-1.14-1a.7.7 0 00-.7.68q-.22 5.79-1.95 11.23c-.9 2.8-1.22 5.77-2.21 8.6q-3.55 10.18-8.23 19.88c-.9 1.87-2.93 4.33-3.57 7.17-.41 1.84-1.36 2.77-2.44 4.18a.58.57-56.1 01-.75.15l-2.76-1.64"/><path stroke="#5b5c5d" vector-effect="non-scaling-stroke" d="M172.29 382l1.71 2.29"/><path stroke="#69696a" vector-effect="non-scaling-stroke" d="M174 384.29l4.91 5.7"/><path stroke="#5b5c5d" vector-effect="non-scaling-stroke" d="M178.91 389.99q13.08 16.37 31.09 27.47"/><path stroke="#69696a" vector-effect="non-scaling-stroke" d="M210 417.46c5.78 3.93 10.77 7.79 17.05 3.84"/><path stroke="#5b5c5d" vector-effect="non-scaling-stroke" d="M227.05 421.3q3.98-.93 6.42-4.39a.55.54 38.5 00-.09-.73l-1.63-1.39"/><path stroke="#909090" vector-effect="non-scaling-stroke" d="M231.75 414.79q-7.81-5.89-9.71-9.09c-5.66-9.51-12.11-18.93-16.1-29.34a1.31 1.27 2.1 00-.69-.72q-27.67-12.19-48.37-34.17a.63.63 0 00-.86-.06l-3.88 3.11a.69.69 0 00-.19.83c6.15 12.83 11.12 24.26 20.34 36.65"/><path stroke="#cacbcd" vector-effect="non-scaling-stroke" d="M231.75 414.79c-.87 1.02-1.51-.02-2.15-.4q-7.71-4.53-10.74-12.28a2.18 2.18 0 00-1.8-1.38c-14.54-1.56-31.48-10.11-43.23-18.6a1.22 1.18 57.8 00-.9-.22l-.64.09"/><path stroke="#a3a4a7" vector-effect="non-scaling-stroke" d="M227.05 421.3l-6.97.65a1.71 1.68-31.1 01-1.05-.25l-7.99-4.98a.64.63 37.4 00-.79.1q-.23.23-.25.64M178.91 389.99q-.48-4.28-4.91-5.7"/><path stroke="#5b5c5d" vector-effect="non-scaling-stroke" d="M310.83 377.41l.21 1.84"/><path stroke="#69696a" vector-effect="non-scaling-stroke" d="M311.04 379.25c-1.23 10.86-5.44 22.01-8.56 32.49q-.48 1.61-.42 3.1a.99.98 15.9 00.44.78q15.11 9.92 32.79 13.7"/><path stroke="#5b5c5d" vector-effect="non-scaling-stroke" d="M335.29 429.32l5.21 1.39"/><path stroke="#69696a" vector-effect="non-scaling-stroke" d="M340.5 430.71l2.07.79a1.16 1.15 42.2 00.9-.04c6.73-3.31 14.12-6.5 20.12-10.05 16-9.45 30.03-21.22 41.08-36.03a1.29 1.28 60.7 00.25-.9q-.22-2.54.28-6.97.79-7.06-.49-23.76"/><path stroke="#5b5c5d" vector-effect="non-scaling-stroke" d="M404.71 353.75l-.31-3.94a.68.67 1.7 00-.57-.6l-11.08-1.67"/><path stroke="#69696a" vector-effect="non-scaling-stroke" d="M392.75 347.54q-11.39-2.43-22.58-5.69c-1.8-.53-3.71-.6-5.3.72-16.84 14.05-33.08 23.33-54.04 34.84"/><path stroke="#a3a4a7" vector-effect="non-scaling-stroke" d="M392.75 347.54c.03.96-.68 1.29-1.54 1.1q-11.69-2.63-23.27-6.02a.95.93 33.1 00-.86.17q-15.29 12.65-20.12 15.43-16.35 9.41-32.71 18.78-1.59.91-3.42.41M404.71 353.75q-.96 3.25-.8 6.59c.31 6.49 1.68 22.36-2.81 27.05-7.7 8.06-13.94 16.31-23.54 22.38-5.75 3.63-9.91 7.37-16.93 10.88-4.88 2.43-10.82 6.62-17.11 8.72a1.8 1.8 0 01-.95.04q-1.66-.4-2.07 1.3M335.29 429.32q-6.34-2.88-15.95-6.69-1.08-.43-2.02-.48-.51-.03-.97-.27l-12.7-6.81a.67.66 21.7 01-.33-.76q3.65-13.13 7.97-26.05.96-2.9.75-8.79a.5.49 85.7 00-.55-.48q-.23.02-.45.26"/><path stroke="#5b5c5d" vector-effect="non-scaling-stroke" d="M251.33 400.71a.45.45 0 00-.74.31l-.06.85q-.07 1.19.82.4.89-.78-.02-1.56"/><path stroke="#69696a" vector-effect="non-scaling-stroke" d="M231.71 429l3.25 1.5"/><path stroke="#5b5c5d" vector-effect="non-scaling-stroke" d="M234.96 430.5q4.26 2.15 8.82 3.26"/><path stroke="#69696a" vector-effect="non-scaling-stroke" d="M243.78 433.76q11.73 4.2 23.97 6.2"/><path stroke="#5b5c5d" vector-effect="non-scaling-stroke" d="M267.75 439.96q13 2.74 26.25 1.75"/><path stroke="#69696a" vector-effect="non-scaling-stroke" d="M294 441.71c4.93.21 10.52-1.12 14.34-1.55q5.97-.68 11.92-2.1"/><path stroke="#5b5c5d" vector-effect="non-scaling-stroke" d="M320.26 438.06q3.3.12 6.49-1.27"/><path stroke="#69696a" vector-effect="non-scaling-stroke" d="M326.75 436.79l4.06-1.74q.54-.23-.03-.39-15.84-4.52-29.7-13.36c-3.66-2.34-7.4-2.04-11.33-1.01"/><path stroke="#5b5c5d" vector-effect="non-scaling-stroke" d="M289.75 420.29q-6.09.14-11.91 1.64"/><path stroke="#69696a" vector-effect="non-scaling-stroke" d="M277.84 421.93l-32.59-.39"/><path stroke="#5b5c5d" vector-effect="non-scaling-stroke" d="M245.25 421.54q-3.09-.49-5.92-2.2a.61.61 0 00-.75.09q-4.48 4.47-9.81 7.85-.48.31.04.52l2.9 1.2"/><path stroke="#a3a4a7" vector-effect="non-scaling-stroke" d="M245.25 421.54l-.55.29a.32.31 33.9 00.12.59q16.83 1.71 33.02-.49M289.75 420.29q-.49.26-.93.96a.39.38 10.1 00.41.58c5.9-1.24 9.95-.3 15.01 2.75q8.24 4.96 17.13 8.63c2.05.84 4.84-.09 5.38 3.58M320.26 438.06q-8.13-.02-16.07 1.62c-3.22.67-5.9.71-9.04.78a1 1 0 00-.8.43q-.25.36-.35.82M267.75 439.96c-.84-3.05-3.28-2.13-5.3-2.53q-9.33-1.83-18.67-3.67M234.96 430.5q-.34-1.65-1.83-2.08a1.05 1.03 33.7 00-.89.17l-.53.41"/><path stroke="#5b5c5d" vector-effect="non-scaling-stroke" d="M282.25 489.54l-3.25-.25"/><path stroke="#69696a" vector-effect="non-scaling-stroke" d="M279 489.29l-8.51-1.41a.5.49-77.5 00-.55.36l-3.27 12.11a.63.62 24.1 00.27.69q4.69 2.93 10.28 2.43c.43-.04.71.11 1.06.29a.69.67 33.9 00.78-.14q4.87-5.1 6.99-11.77a1.36 1.35-75.4 00-1.01-1.74l-2.79-.57"/><path stroke="#a3a4a7" vector-effect="non-scaling-stroke" d="M279 489.29q.43.49-.02 1.12a1.13 1.13 0 01-1.19.45l-6.17-1.52a.7.7 0 00-.82.41q-.48 1.16-.76 2.39c-.53 2.38.67 4.04-.5 6.61a.73.71-55.5 00.14.81c2.38 2.4 5.19 2.11 8.1 2.55a.93.9-65.8 00.83-.33q3.07-3.81 4.46-8.48a.86.85-59.7 00-.22-.86q-1.29-1.27-.6-2.9"/><path stroke="#5b5c5d" vector-effect="non-scaling-stroke" d="M240.46 528q6.85 1.97 13.96 2.73a.55.55 0 01.49.6c-.1 1.08-5 .84-5.84.82"/><path stroke="#69696a" vector-effect="non-scaling-stroke" d="M249.07 532.15c-14.82-.05-27.95-2.03-40.84-9.12a.28.28 0 00-.41.24l-.27 9.51a1.88 1.87 15 001 1.72l8.91 4.75"/><path stroke="#5b5c5d" vector-effect="non-scaling-stroke" d="M217.46 539.25q3.73 2.39 8.04 3.46"/><path stroke="#69696a" vector-effect="non-scaling-stroke" d="M225.5 542.71q5.27 2.26 11 2.25"/><path stroke="#5b5c5d" vector-effect="non-scaling-stroke" d="M236.5 544.96q11.39.54 22.44-2.51a1.17 1.16 5.2 00.73-.6l4.04-8.08a.4.4 0 00-.16-.53l-1.47-.87a1.43.89-16.9 011.51-1.72q19.25.82 36.72-1.31c14.8-1.8 27.22-3.24 42.69-9.05"/><path stroke="#69696a" vector-effect="non-scaling-stroke" d="M343 520.29q4.87-1.34 8.43-3.91a1.39 1.39 0 00-.16-2.36q-10.73-5.63-21.84-8.79c-5.71-1.63-12.63-2.22-19.09-3.41a.49.49 0 00-.39.87q3.17 2.46 4.03 6.25c2.2 9.75-9.21 11.11-15.48 12.35"/><path stroke="#5b5c5d" vector-effect="non-scaling-stroke" d="M298.5 521.29q-20.08 2.98-39.94-.49"/><path stroke="#69696a" vector-effect="non-scaling-stroke" d="M258.56 520.8q-5.88-1.94-8.98-3.63c-5.59-3.06-6.59-8.12-1.11-12.13q2.47-1.8 4.54-4.23.33-.39-.18-.36-3.77.23-8.35 1.23c-12.28 2.71-22.84 4.9-33.67 10.12q-1.78.86-3.07 2.77a.85.84 48 00-.04.87c3.2 5.74 26.03 10.92 32.76 12.56"/><path stroke="#a3a4a7" vector-effect="non-scaling-stroke" d="M258.56 520.8q-10.58.23-15.36-8.92a1.83 1.81-56.8 01-.2-.98l.45-6.16a.83.83 0 00-.96-.88q-11.79 1.82-23.04 5.63-5.49 1.85-8.76 4.1a1.35 1.33 79.7 00-.54.79q-.5 2.15 1.81 3.18 13.37 5.96 27.77 8.73c.9.18 1.47.93.73 1.71M236.5 544.96l.14-.24a.2.2 0 00-.13-.3l-10.17-2.45a.7.69-66.6 00-.74.3q-.14.23-.1.44M217.46 539.25l.11-.46a.51.48-66.6 00-.2-.54l-5.49-3.65a1.98 1.98 0 00-1.01-.32c-2.84-.12-1.84-6.23-2.02-8.11a.92.92 0 011.32-.91q7.23 3.56 14.69 5.52c2.17.57 5.06.97 7.6 1.66 4.7 1.28 9.47 1.02 13.53 1.6q2.68.39 3.08-1.89M343 520.29q-.76-.34-.74-.95a.83.82-8.2 01.57-.75l4.9-1.64a1.15 1.15 0 00.41-1.94c-6.33-5.75-21.12-9.09-29.42-10.65q-2.21-.41-4.59-.23a.54.54 0 00-.47.68q.8 2.94 2.7 5.37a1.53 1.53 0 01.16 1.62q-2.35 4.65-6.14 8.09a1.93 1.92 18.6 01-.93.46l-10.56 1.96a.5.49 79.1 01-.58-.4q-.06-.34.19-.62"/><path stroke="#5b5c5d" vector-effect="non-scaling-stroke" d="M255.89 513.72q11.68 3.23 23.97 3.65c5.13.18 10.83-1.34 16.46-1.49a.98.98 0 00.9-1.3c-1.5-4.43-4.65-5.63-9.33-5.37-5.69.32-13.45.72-18.92-.95q-1.61-.5-3.15-.77"/><path stroke="#69696a" vector-effect="non-scaling-stroke" d="M265.82 507.49l-4.61-3.53a1.01 1 53 00-.95-.14q-5.18 1.91-8.34 6.34a.81.81 0 00.01.95q1.48 2 3.96 2.61"/><path stroke="#a3a4a7" vector-effect="non-scaling-stroke" d="M265.82 507.49q-3.08 1.01-5.31-1.57a.71.69 58 00-.78-.19q-5.53 2.2-3.84 7.99"/><path stroke="#5b5c5d" vector-effect="non-scaling-stroke" d="M271 551h8.3a1.1 1.08 14.2 00.96-.56l6.76-12.13a.55.54 14.6 00-.48-.81h-8.41a.72.7-79 00-.66.46q-2.41 6.46-6.57 11.94-.28.37-.14.68a.5.05 65.9 00.24.42"/><path stroke="#69696a" vector-effect="non-scaling-stroke" d="M590.44 591l.27-1.25M589.94 591q-6.88-.63-13.75 0M566.94 591q-3.38-.63-6.75 0M536.44 591q-3.13-.63-6.25 0"/><path stroke="#a3a4a7" vector-effect="non-scaling-stroke" d="M528.94 591l-8.94-.21"/><path stroke="#69696a" vector-effect="non-scaling-stroke" d="M520 590.79l-5.81.21M479.94 591q-2.88-.63-5.75 0"/><path stroke="#a3a4a7" vector-effect="non-scaling-stroke" d="M471.94 591l-5.69-.21"/><path stroke="#69696a" vector-effect="non-scaling-stroke" d="M466.25 590.79l-25.06.21M440.94 591q-3.38-.63-6.75 0M413.94 591q-5.88-.63-11.75 0M399.94 591q-2.88-.63-5.75 0"/><path stroke="#a3a4a7" vector-effect="non-scaling-stroke" d="M374.94 591q-10.13-.63-20.25 0"/><path stroke="#69696a" vector-effect="non-scaling-stroke" d="M351.94 591q-2.88-.63-5.75 0M345.94 591q-8.88-.63-17.75 0M327.94 591q-46.88-.63-93.75 0M233.94 591q-3.88-.63-7.75 0M215.94 591q-2.88-.63-5.75 0"/><path stroke="#a3a4a7" vector-effect="non-scaling-stroke" d="M209.94 591q-4.88-.63-9.75 0"/><path stroke="#69696a" vector-effect="non-scaling-stroke" d="M199.94 591q-2.88-.63-5.75 0M191.94 591q-2.88-.63-5.75 0M184.94 591l-26.19-.21"/><path stroke="#a3a4a7" vector-effect="non-scaling-stroke" d="M158.75 590.79l-4.56.21M153.94 591l-9.44-.21"/><path stroke="#69696a" vector-effect="non-scaling-stroke" d="M144.5 590.79l-22.31.21"/><path stroke="#a3a4a7" vector-effect="non-scaling-stroke" d="M111.94 591q-2.88-.63-5.75 0"/><path stroke="#69696a" vector-effect="non-scaling-stroke" d="M103.94 591q-2.88-.63-5.75 0"/><path stroke="#a3a4a7" vector-effect="non-scaling-stroke" d="M96.94 591q-3.38-.63-6.75 0"/><path stroke="#69696a" vector-effect="non-scaling-stroke" d="M80.94 591q-3.38-.63-6.75 0M73.94 591l-7.69-.21"/><path stroke="#a3a4a7" vector-effect="non-scaling-stroke" d="M66.25 590.79l-10.06.21M52.94 591q-5.88-.63-11.75 0"/><path stroke="#69696a" vector-effect="non-scaling-stroke" d="M40.94 591q-3.88-.63-7.75 0M32.94 591q-8.13-.63-16.25 0M13.94 591L0 590.44"/><path stroke="#5b5c5d" vector-effect="non-scaling-stroke" d="M66.25 590.79l-.06.21M144.5 590.79l-.06.21M158.75 590.79l-.06.21M466.25 590.79l-.06.21M520 590.79l-.06.21"/></g><path d="M0 0h590.06l.23 4v1l-.04 584.71-.45.32a1.26 1.25 27.6 01-.71.22H1.22a1.14 1.12 61 01-.61-.18q-.28-.17-.61-.13V0zm585.49 5.52a.27.27 0 00-.27-.27H5.52a.27.27 0 00-.27.27v579.7a.27.27 0 00.27.27h579.7a.27.27 0 00.27-.27V5.52z"/><path fill="#95979a" d="M590.06 0h.75q.25 2.1-.52 4l-.23-4z"/><path fill="#212020" d="M590.81 0h.19v316.31l-.21-.06-.1-311.06a.15.15 0 00-.13-.15l-.27-.04V4q.77-1.9.52-4z"/><path fill="#95979a" d="M590.29 5l.27.04a.15.15 0 01.13.15l.1 311.06-.08 273.5-.46-.04L590.29 5z"/><path fill="#fcfddf" d="M585.49 585.22a.27.27 0 01-.27.27H5.52a.27.27 0 01-.27-.27V5.52a.27.27 0 01.27-.27h579.7a.27.27 0 01.27.27v579.7zM38.5 97.53c20.99-19.89 42.18-40.2 62.29-61.24a1.32 1.32 0 00-.48-2.14q-1.22-.48-3.56-.45-16.09.18-32.17-.08-11.39-.18-15.52 1.2Q37.58 38.67 37.29 53c-.3 14.55-1.03 29.31-.45 43.85a.98.98 0 001.66.68zM140.79 260.5c-4.96 26.05-4.87 48.22 1.14 74.02.98 4.2 3.23 8.32 4.37 11.99 4.71 15.16 12.14 27.53 21.74 40.74q19.16 25.28 46.74 41.15a.48.48 0 01.2.63l-6.25 12.9a.46.46 0 01-.63.2q-10.86-5.96-20.85-13.29c-15.1-11.08-26.44 7.14-12.17 18.34q8 6.28 22.41 14.32a.65.64-62.8 01.26.84l-1.19 2.47a.67.67 0 00.29.88l9.97 5.06a.7.7 0 001-.45l.56-2.25a.67.66-70.7 01.93-.45q25.82 12.15 54.11 16.06a.75.74 6.5 01.64.8q-.36 4.65-2.26 8.94a.8.79 9.4 01-.66.47c-7.26.64-14.11 1.2-21.37 2.82-10.87 2.44-29.39 5.42-36.67 14.24-3.09 3.74-2.75 15.14-2.62 19.9.1 3.91 1.41 5.89 4.44 8.02 10.1 7.12 20.62 11.18 32.34 14.28 5.7 1.5 11.96 1.76 17.97 2.65 6.94 1.02 14.39 1.36 21.35 1.06 24-1.04 47.37-4.12 68.65-13.29 3.25-1.4 12.71-8.17 12.93-11.87.23-3.71 2.15-17.3-.91-19.49-16.94-12.07-34.87-15.51-55.65-16.25a.5.49 87.3 01-.48-.44l-1.31-9.48a.47.46-7 01.42-.53q16.19-1.58 24.58-3.18c69.36-13.22 127.18-64.59 147.73-132.7 11.2-37.12 10.6-78.79-1.65-115.56-15.73-47.25-48.52-84.45-92.24-108.02a1.27 1.27 0 01-.5-1.75l1.18-2.07a.51.51 0 00-.2-.71l-9.59-5.13a.57.57 0 00-.79.28l-1.37 3.18a.86.85-65.7 01-1.15.44c-6.73-3.15-19.6-8.96-26.91-8.14-5.22.59-9.79 4.86-9.97 10.23-.15 4.44 4.8 9.21 8.22 10.32q9.85 3.23 19.24 7.1a.7.7 0 01.36.94l-6.16 12.96a.59.58-66 01-.75.29c-67.23-27.81-142.73-6.64-184.99 52.32-3.77 5.26-7.07 11.3-10.39 17.14-6.61 11.61-10.7 24.33-14.09 37.07zM104.25 388c9.15 3.12 4.87 9.09 9.91 14.39q.35.36.11-.08-2.08-3.9-3.1-8.21c-.93-3.91-3.12-5.75-6.75-6.83a.75.74 13.3 01-.53-.85l.27-1.5q.21-1.2-.52-.23-.95 1.26-.22 2.6a1.52 1.49 84.9 00.83.71z"/><path fill="#fae4a9" d="M100.79 36.29C80.68 57.33 59.49 77.64 38.5 97.53a.98.98 0 01-1.66-.68c-.58-14.54.15-29.3.45-43.85q.29-14.33 11.77-18.18 4.13-1.38 15.52-1.2 16.08.26 32.17.08 2.34-.03 3.56.45a1.32 1.32 0 01.48 2.14z"/><path fill="#212020" d="M168.04 387.25q.87.24 1.26-.28a.6.6 0 00-.06-.79q-2.62-2.61-3.53-4.13-7.55-12.53-14.23-25.54c-2.73-5.33-3.19-10.72-5.96-15.59q-1.32-2.31-1.68-4.25c-1.45-7.67-3.56-15.76-4.3-22.97-1.74-17.15-.39-30.63 2.09-50.89q.14-1.15-.84-2.31c3.39-12.74 7.48-25.46 14.09-37.07 3.32-5.84 6.62-11.88 10.39-17.14 42.26-58.96 117.76-80.13 184.99-52.32a.59.58-66 00.75-.29l6.16-12.96a.7.7 0 00-.36-.94q-9.39-3.87-19.24-7.1c-3.42-1.11-8.37-5.88-8.22-10.32.18-5.37 4.75-9.64 9.97-10.23 7.31-.82 20.18 4.99 26.91 8.14a.86.85-65.7 001.15-.44l1.37-3.18a.57.57 0 01.79-.28l9.59 5.13a.51.51 0 01.2.71l-1.18 2.07a1.27 1.27 0 00.5 1.75c43.72 23.57 76.51 60.77 92.24 108.02 12.25 36.77 12.85 78.44 1.65 115.56-20.55 68.11-78.37 119.48-147.73 132.7q-8.39 1.6-24.58 3.18a.47.46-7 00-.42.53l1.31 9.48a.5.49 87.3 00.48.44c20.78.74 38.71 4.18 55.65 16.25 3.06 2.19 1.14 15.78.91 19.49-.22 3.7-9.68 10.47-12.93 11.87-21.28 9.17-44.65 12.25-68.65 13.29-6.96.3-14.41-.04-21.35-1.06-6.01-.89-12.27-1.15-17.97-2.65-11.72-3.1-22.24-7.16-32.34-14.28-3.03-2.13-4.34-4.11-4.44-8.02-.13-4.76-.47-16.16 2.62-19.9 7.28-8.82 25.8-11.8 36.67-14.24 7.26-1.62 14.11-2.18 21.37-2.82a.8.79 9.4 00.66-.47q1.9-4.29 2.26-8.94a.75.74 6.5 00-.64-.8q-28.29-3.91-54.11-16.06a.67.66-70.7 00-.93.45l-.56 2.25a.7.7 0 01-1 .45l-9.97-5.06a.67.67 0 01-.29-.88l1.19-2.47a.65.64-62.8 00-.26-.84q-14.41-8.04-22.41-14.32c-14.27-11.2-2.93-29.42 12.17-18.34q9.99 7.33 20.85 13.29a.46.46 0 00.63-.2l6.25-12.9a.48.48 0 00-.2-.63q-27.58-15.87-46.74-41.15zm184.67-256.5l17.28 7.55q13.91 7.3 26.26 16.74 31.2 23.7 49.75 58.25 9.54 19.53 15.25 40.5l1.71 7.96 2.14 11.8q-.5 6.06.33 12.19 1.13 24.21-3.6 48.08c-6.23 19.6-11.75 35.69-20.76 50.49q-7.64 12.55-19.57 26.4-13.55 15.29-30.25 27.08-11.73 7.99-24.25 14.67-19.66 9.48-41 14.08c-21.53 4.52-41.79 4.51-62.5 1.75q-11.78-1.58-18.68-3.86c-6.36-2.09-13-3.78-18.96-6.26q-7.62-3.16-15.25-6.61l-6.86-4.02q-5.08-2.41-9.61-6.06-2.43-2.01-5.6-2.98c-2.75-2.71-8.12-7.58-12.25-6.16-3.35 1.17-1.67 6.31.38 7.77q12.32 8.74 25.32 16.34 8.75 5.12 26.01 11.59 6.43 2.66 13.21 4.21 8.51 2.55 17.29 3.96c14.84 3.3 29.31 4.04 44.52 2.5 31.94-3.22 60.6-12.78 87.77-30.41q5.75-3.73 8.96-6.51c22.41-16.19 42.24-38.99 54.34-64.65 3.94-8.35 7.8-16.26 10.81-24.92l3.56-12.47q4.44-17.88 6.31-36.18c1.11-10.9-.49-21.13-1.81-31.77-2.25-18.05-8.16-39.8-16.16-55.1q-3.74-7.17-7.92-14.23-2.06-4.61-5.94-10.41-20.6-30.75-51.15-50.31l-8.54-5.29-1.46-.71q-18.05-10.46-38-16.74c-4.15-1.31-7.25-1.11-8.17 3.75a.91.89-63.3 00.27.84c2.86 2.64 6.1 3.02 9 4.15q3.9 1.52 7.82 3zm-96.29 329.64c66.07 14.79 137.63-16.92 174.43-72.86 18.81-28.61 30.61-65.85 28.72-100.13-.87-15.73-4.28-31.33-9.02-45.59-6.94-20.92-16.96-38.64-30.79-55.72-13.45-16.63-31.96-30.11-50.62-40.4a.44.44 0 00-.59.16q-3.65 6.08-6.4 12.63a1.22 1.22 0 00.55 1.54q31.48 16.72 52.13 45.46c27.06 37.64 34.59 84.24 23.84 127.29-1.92 7.72-5.35 15.64-8.52 23.22-6.47 15.46-15.09 28.39-26.4 40.82-45.72 50.25-115 65.44-177.31 37.6a.75.75 0 00-.93.27q-3.9 5.73-5.85 12.41a.74.72 25.2 00.3.81q3.01 1.98 8.24 3.9 15.64 5.77 28.22 8.59zm68.71-307.75c-36.73-9.94-75.3-3.25-108.06 15.41a.34.33-33 00-.11.49q5.96 8.52 10.26 18a.78.77 73.9 00.8.45q29.03-3.63 58.03.35a1.32 1.31 29.8 00.97-.26c14.61-11.34 27.12-19.24 44.24-23.72a.45.45 0 00.27-.66l-5.59-9.45a1.34 1.34 0 00-.81-.61zm-18.88 88.65q7.41 4.41 15.53 7.47l13.72 6.95q13.24 6.86 25.58 15.31a1.47 1.45-39.4 001.4.13c5.3-2.34 11.51-6.44 15.11-8.45q11.8-6.61 23.47-13.51a1.49 1.45-5.5 00.61-.72c.72-1.88.14-3.76.04-5.35q-1.08-17.91-6.42-34.94c-2.96-9.47-6.12-22.47-15.75-25.43q-3.98-2.13-8.25-3.04l-9.5-3.71-2.29-.71c-5.91-3.73-13.13-4.7-21.73-7.62-5.73-1.94-22.04 6-25.25 7.83q-7.29 4.18-19.37 14.23a.95.94 67.3 00-.33.82q.13 1.39.64 2.72c5.74 15.25 6.9 30.09 7.73 46.21a.68.67 5.3 00.51.61l4.55 1.2zm-107.21-4.04c1.79-.53.94-2.18 2.25-2.89a1.55 1.53-2.2 00.64-.68c3.19-6.83 5.66-13.96 9-20.64.85-1.7 5.44-9.33 3.57-10.58q2.88-6.65 7.51-11.99a.84.84 0 00.15-.85q-3.46-8.98-8.33-17.26a2.08 2.08 0 00-2.86-.73c-18.59 11.17-33.99 27.77-45.39 46.2-5.38 8.69-9.88 19.08-14.03 28.94q-2.09 4.96-3.27 10.22c-1.05 4.71 4.58 9.74 7.86 12.51a.62.62 0 00.85-.05c10.84-11.82 25.55-19.98 39.75-27.1a1.31 1.3-3.1 00.64-.71l1.66-4.39zM404.29 222l1.67 13.5 1.35 12.43a.93.92-79.3 00.49.73q2.21 1.19 4.68 4.35 13.97 17.91 21.57 35.78a.53.52-22.3 00.68.28c1.87-.75 2.4-2.15 2.17-4.2-2.3-20.86-7.5-40.74-17.5-58.68q-3.32-7.94-8.64-14.56-7-10.86-16.16-19.57-.36-.35-.13.1 7.26 14.2 9.82 29.84zM255.5 348.54l4.81 2.82c14.37 9.15 28.77 16.96 45.2 21.85a1.28 1.26-50.1 00.93-.09c13.19-6.68 25.88-14.69 38.74-22.44q6.97-4.2 18.65-14.87 1.12-3.61.63-8.06.76-20.49-2.72-40.77c-.12-2.56-.4-9.85-3.7-10.48-17.25-12.23-36.37-22.28-55.41-31.49a1.26 1.25-52.8 00-1.36.19c-15.81 13.86-33.87 25.19-52.28 35.26-1.79.98-1.85 1.9-1.79 3.79.68 22.08 1.51 42.38 3.99 61.43a.99.96-79.1 00.48.73l3.83 2.13zm-97.79-57.79q-1.41.03-1.45 1.25-.49 13.21-.22 32.34c.05 3.44.68 6.49 1.39 9.77a.58.58 0 00.76.42q.61-.22.6-.78l1.46 1.29-.38.23a.44.44 0 00-.14.6l.27.42c3.09 4.36 8.49 8.48 11.23 10.94 8.27 7.44 20.11 14.82 28.52 19.31l4.96 2.46 4.98 1.89a1.01.99 38.3 00.92-.1q12.55-8.21 32.94-22.73 1.35-.97 1.2-2.1l-.54-1.46q-2.5-32.7-2.23-65.02a1.78 1.76-73.8 00-.81-1.49q-19.61-12.64-37.46-27.46-2.39-1.99-3.88-3.67a.64.63 55.6 00-.77-.15c-14.1 7.2-28.63 15.87-40.25 27.16a1.7 1.62 75.5 00-.46.83c-1.04 4.89-.22 10.91-.64 16.05zm253.33 76.75l-.32 9.55a.34.34 0 00.63.19c11.13-18.35 19.77-37.71 23.44-58.99 1.97-7.64 2.93-14.95 2.66-22.82a.35.35 0 00-.66-.15c-5.44 10.25-7.74 19.98-14.46 30.79-2.77 4.46-5.23 11.03-8.85 16-1.5 2.05-4.52 5.95-4.08 8.5q1.44 8.4 1.64 16.93zM172.29 382l1.71 2.29 4.91 5.7q13.08 16.37 31.09 27.47c5.78 3.93 10.77 7.79 17.05 3.84q3.98-.93 6.42-4.39a.55.54 38.5 00-.09-.73l-1.63-1.39q-7.81-5.89-9.71-9.09c-5.66-9.51-12.11-18.93-16.1-29.34a1.31 1.27 2.1 00-.69-.72q-27.67-12.19-48.37-34.17a.63.63 0 00-.86-.06l-3.88 3.11a.69.69 0 00-.19.83c6.15 12.83 11.12 24.26 20.34 36.65zm138.54-4.59l.21 1.84c-1.23 10.86-5.44 22.01-8.56 32.49q-.48 1.61-.42 3.1a.99.98 15.9 00.44.78q15.11 9.92 32.79 13.7l5.21 1.39 2.07.79a1.16 1.15 42.2 00.9-.04c6.73-3.31 14.12-6.5 20.12-10.05 16-9.45 30.03-21.22 41.08-36.03a1.29 1.28 60.7 00.25-.9q-.22-2.54.28-6.97.79-7.06-.49-23.76l-.31-3.94a.68.67 1.7 00-.57-.6l-11.08-1.67q-11.39-2.43-22.58-5.69c-1.8-.53-3.71-.6-5.3.72-16.84 14.05-33.08 23.33-54.04 34.84zm-59.5 23.3a.45.45 0 00-.74.31l-.06.85q-.07 1.19.82.4.89-.78-.02-1.56zM231.71 429l3.25 1.5q4.26 2.15 8.82 3.26 11.73 4.2 23.97 6.2 13 2.74 26.25 1.75c4.93.21 10.52-1.12 14.34-1.55q5.97-.68 11.92-2.1 3.3.12 6.49-1.27l4.06-1.74q.54-.23-.03-.39-15.84-4.52-29.7-13.36c-3.66-2.34-7.4-2.04-11.33-1.01q-6.09.14-11.91 1.64l-32.59-.39q-3.09-.49-5.92-2.2a.61.61 0 00-.75.09q-4.48 4.47-9.81 7.85-.48.31.04.52l2.9 1.2zm50.54 60.54l-3.25-.25-8.51-1.41a.5.49-77.5 00-.55.36l-3.27 12.11a.63.62 24.1 00.27.69q4.69 2.93 10.28 2.43c.43-.04.71.11 1.06.29a.69.67 33.9 00.78-.14q4.87-5.1 6.99-11.77a1.36 1.35-75.4 00-1.01-1.74l-2.79-.57zM240.46 528q6.85 1.97 13.96 2.73a.55.55 0 01.49.6c-.1 1.08-5 .84-5.84.82-14.82-.05-27.95-2.03-40.84-9.12a.28.28 0 00-.41.24l-.27 9.51a1.88 1.87 15 001 1.72l8.91 4.75q3.73 2.39 8.04 3.46 5.27 2.26 11 2.25 11.39.54 22.44-2.51a1.17 1.16 5.2 00.73-.6l4.04-8.08a.4.4 0 00-.16-.53l-1.47-.87a1.43.89-16.9 011.51-1.72q19.25.82 36.72-1.31c14.8-1.8 27.22-3.24 42.69-9.05q4.87-1.34 8.43-3.91a1.39 1.39 0 00-.16-2.36q-10.73-5.63-21.84-8.79c-5.71-1.63-12.63-2.22-19.09-3.41a.49.49 0 00-.39.87q3.17 2.46 4.03 6.25c2.2 9.75-9.21 11.11-15.48 12.35q-20.08 2.98-39.94-.49-5.88-1.94-8.98-3.63c-5.59-3.06-6.59-8.12-1.11-12.13q2.47-1.8 4.54-4.23.33-.39-.18-.36-3.77.23-8.35 1.23c-12.28 2.71-22.84 4.9-33.67 10.12q-1.78.86-3.07 2.77a.85.84 48 00-.04.87c3.2 5.74 26.03 10.92 32.76 12.56zm15.43-14.28q11.68 3.23 23.97 3.65c5.13.18 10.83-1.34 16.46-1.49a.98.98 0 00.9-1.3c-1.5-4.43-4.65-5.63-9.33-5.37-5.69.32-13.45.72-18.92-.95q-1.61-.5-3.15-.77l-4.61-3.53a1.01 1 53 00-.95-.14q-5.18 1.91-8.34 6.34a.81.81 0 00.01.95q1.48 2 3.96 2.61zM271 551h8.3a1.1 1.08 14.2 00.96-.56l6.76-12.13a.55.54 14.6 00-.48-.81h-8.41a.72.7-79 00-.66.46q-2.41 6.46-6.57 11.94-.28.37-.14.68a.5.05 65.9 00.24.42z"/><path fill="#b1b1b3" d="M381.79 135.75q-.41.92-1.31.48c-8.43-4.08-14.9-8.32-22.9-10.41-5.09-1.34-9.78-4.36-14.68-6.31q-4.24-1.69-5.76 2.71a1.38 1.38 0 00.68 1.68c1.3.65 16.63 5.24 14.89 6.85q-3.92-1.48-7.82-3c-2.9-1.13-6.14-1.51-9-4.15a.91.89-63.3 01-.27-.84c.92-4.86 4.02-5.06 8.17-3.75q19.95 6.28 38 16.74z"/><path fill="#95979a" d="M381.79 135.75l1.46.71q-.48.37-.62.88a1.05 1.02 33.3 00.2.91c1.22 1.43 2.76 1.33 4.08 2.15.97.61 4.33 3.35 4.88 1.35q30.55 19.56 51.15 50.31 3.88 5.8 5.94 10.41 2.91 11.13 5.32 14.84c4.38 6.77 6.9 14.63 9.36 21.15q1.57 4.17 2.77 8.47c.86 3.01 1.21 8.5 3.38 12.57 1.17 2.18 1.1 3.58.81 5.87a1.49 1.44 32 00.26 1.05q1.39 1.97.77 4.29a1.76 1.74-46.6 00.02.97q.63 2.07.81 4.2c.12 1.39-.67 2.63.2 4.31a1.22 1.2-50.5 01.08.92q-.71 2.28.24 4.53a1.34 1.29 43.8 01.04.94q-2.19 6.41-.75 12.93c.66 2.97.08 5.42.08 8.33 0 11.05-3.08 20.8-5.03 31.5a.59.59 0 00.43.67q.44.11.79-.26l-3.56 12.47q-1.81-1.42-2.05.5c-.44 3.7-3.26 9.1-4.93 12.5-2.37 4.82-3.9 11.1-7.34 14.97q-3.23 3.63-4.11 8.53-.2 1.12-1.24 1.1a.61.61 0 00-.6.44c-.73 2.53-2.67 4.33-3.69 6.15-5.86 10.42-14.42 19.1-22.24 28.05-3.15 3.62-8.39 6.94-11.11 9.15q-4.38 3.55-8.7 7.41a.39.39 0 00.2.68l.66.09q-3.21 2.78-8.96 6.51c-27.17 17.63-55.83 27.19-87.77 30.41-15.21 1.54-29.68.8-44.52-2.5l.6-.34q1.34-.76-.15-1.14c-5.42-1.39-10.91-1.96-16.28-3.42q-1-.27-1.46.94-6.78-1.55-13.21-4.21.56-1.41-1-1.77-4.57-1.07-8.3-3.68c-3.97-2.78-8.52-3.13-12.69-6.28-2.01-1.52-4.26-2.23-6.51-3.05q-2.57-.93-4.75-2.54-8.84-6.48-18.09-12.36c-1.44-.91-.3-6.59 3.12-4.6q4.11 2.38 7.4 5.68a.68.68 0 00.82.11q.61-.34.54-1.05 3.17.97 5.6 2.98-.16 2.48 1.84 3.43c2.3 1.08 4.45 2.43 6.77 3.4a.57.57 0 00.72-.26l.28-.51 6.86 4.02q1.87 2.64 5.55 4.53c3.41 1.76 7.1 2.28 9.81 3.33q4.67 1.81 9.39 3.52a1.19 1.18 86.5 01.64.57l.51 1.02a.55.54 60.6 00.77.22l1.42-.86a.81.8-44.1 01.85.01c3.94 2.55 7.88 2.23 11.78 3.33q5.8 1.63 11.83 2.24a.55.55 0 00.61-.48q.05-.36-.27-.7c20.71 2.76 40.97 2.77 62.5-1.75q-.22.62.27 1.03a.94.93-35 00.89.15q5.9-2.09 12.06-2.99 3.65-.54 6.46-1.7c7.17-2.96 14.87-5.45 21.53-9.43a.6.6 0 00.23-.77q-.12-.24-.44-.37 12.52-6.68 24.25-14.67.05.38.27.6a.62.62 0 00.81.08c5.46-3.86 11.5-8.23 16.09-13.07q1.01-1.06 3.27-2.45 2.83-1.74 9.54-9.68 1.41-1.66.27-2.56 11.93-13.85 19.57-26.4c9.01-14.8 14.53-30.89 20.76-50.49q2.64-2.35 2.81-5.81c.21-4.61.93-8.57 1.45-13 .53-4.56 3.26-8 2.51-12.71-.21-1.36-1.32-7.86.04-9.11a.73.72-28.5 00.21-.7l-1.61-6.96a.85.83 2 00-.58-.61q-.83-.24-1.23.82-.83-6.13-.33-12.19 1.3-6.01-.73-11.84a.8.79-7.3 00-.69-.53q-.6-.05-.72.57l-1.71-7.96c1.47.2 1.93-.71 1.59-2.01q-1.46-5.7-3.41-11.26c-1.14-3.25-3.49-6.86-4.59-10.61-1.8-6.11-4.7-11.02-7.49-16.53a.72.72 0 00-.76-.38q-.32.05-.59.29-18.55-34.55-49.75-58.25.7-.6.44-1.34a.86.85 85 00-.64-.54q-1.03-.21-1.52-1.13-.25-.46-.68-.77c-4.78-3.46-9.76-6.17-14.56-9.7q-4.07-3-9.3-3.26l-17.28-7.55c1.74-1.61-13.59-6.2-14.89-6.85a1.38 1.38 0 01-.68-1.68q1.52-4.4 5.76-2.71c4.9 1.95 9.59 4.97 14.68 6.31 8 2.09 14.47 6.33 22.9 10.41q.9.44 1.31-.48z"/><path fill="#b1b1b3" d="M383.25 136.46l8.54 5.29c-.55 2-3.91-.74-4.88-1.35-1.32-.82-2.86-.72-4.08-2.15a1.05 1.02 33.3 01-.2-.91q.14-.51.62-.88zM396.25 155.04q-12.35-9.44-26.26-16.74 5.23.26 9.3 3.26c4.8 3.53 9.78 6.24 14.56 9.7q.43.31.68.77.49.92 1.52 1.13a.86.85 85 01.64.54q.26.74-.44 1.34z"/><path fill="#fcfddf" d="M256.42 460.39q-12.58-2.82-28.22-8.59-5.23-1.92-8.24-3.9a.74.72 25.2 01-.3-.81q1.95-6.68 5.85-12.41a.75.75 0 01.93-.27c62.31 27.84 131.59 12.65 177.31-37.6 11.31-12.43 19.93-25.36 26.4-40.82 3.17-7.58 6.6-15.5 8.52-23.22 10.75-43.05 3.22-89.65-23.84-127.29q-20.65-28.74-52.13-45.46a1.22 1.22 0 01-.55-1.54q2.75-6.55 6.4-12.63a.44.44 0 01.59-.16c18.66 10.29 37.17 23.77 50.62 40.4 13.83 17.08 23.85 34.8 30.79 55.72 4.74 14.26 8.15 29.86 9.02 45.59 1.89 34.28-9.91 71.52-28.72 100.13-36.8 55.94-108.36 87.65-174.43 72.86z"/><path fill="#fff" d="M325.94 153.25l5.59 9.45a.45.45 0 01-.27.66c-17.12 4.48-29.63 12.38-44.24 23.72a1.32 1.31 29.8 01-.97.26q-29-3.98-58.03-.35a.78.77 73.9 01-.8-.45q-4.3-9.48-10.26-18a.34.33-33 01.11-.49c32.76-18.66 71.33-25.35 108.06-15.41a1.34 1.34 0 01.81.61zM359.5 175.29c3.75 9.64 11.5 17.72 11.71 28.45q.5 25.96-6.12 50.5a.96.96 0 01-1.31.63q-24.9-10.6-51.3-13.67-1.74-.21-3.48-.16l-2.75.25-4.55-1.2a.68.67 5.3 01-.51-.61c-.83-16.12-1.99-30.96-7.73-46.21q-.51-1.33-.64-2.72a.95.94 67.3 01.33-.82q12.08-10.05 19.37-14.23c3.21-1.83 19.52-9.77 25.25-7.83 8.6 2.92 15.82 3.89 21.73 7.62zM214.5 202.46c-5.76 10.13-9.83 21.48-14.75 32.07q-.35.75-.71 2.72l-1.66 4.39a1.31 1.3-3.1 01-.64.71c-14.2 7.12-28.91 15.28-39.75 27.1a.62.62 0 01-.85.05c-3.28-2.77-8.91-7.8-7.86-12.51q1.18-5.26 3.27-10.22c4.15-9.86 8.65-20.25 14.03-28.94 11.4-18.43 26.8-35.03 45.39-46.2a2.08 2.08 0 012.86.73q4.87 8.28 8.33 17.26a.84.84 0 01-.15.85q-4.63 5.34-7.51 11.99z"/><path fill="#95979a" d="M359.5 175.29l2.29.71q.12.95 1.28 1.47 4.25 1.94 8.22 2.24 4.27.91 8.25 3.04-.71.43-.77 1.15a.59.59 0 00.46.63c4.8 1.04 6.32 5.3 8.93 8.8 1.81 2.42 2.41 5.04 3.56 7.78.98 2.33 1.23 5.25 2.77 7.72a1.6 1.51 32 01.24.92q-.13 2.92 1.02 6.48c2.71 8.43 2.81 18.22 4.73 27.26q.75 3.5-1.53 5.22c-7.09 5.32-16.26 9.62-24.17 14.44q-4.72 2.88-9.57 5.59-3.8 2.12-7.22-.76-6.08-5.11-13.11-8.71c-2.44-1.26-5.06-3.58-8.32-4.43a.79.78 26.5 00-.83.27q-.19.24-.23.6l-13.72-6.95q1.13-1.27-.59-1.7c-1.51-.37-12.2-5.36-12.19-6.02q1.74-.05 3.48.16 26.4 3.07 51.3 13.67a.96.96 0 001.31-.63q6.62-24.54 6.12-50.5c-.21-10.73-7.96-18.81-11.71-28.45z"/><path fill="#b1b1b3" d="M361.79 176l9.5 3.71q-3.97-.3-8.22-2.24-1.16-.52-1.28-1.47zM379.54 182.75c9.63 2.96 12.79 15.96 15.75 25.43q5.34 17.03 6.42 34.94c.1 1.59.68 3.47-.04 5.35a1.49 1.45-5.5 01-.61.72q-11.67 6.9-23.47 13.51c-3.6 2.01-9.81 6.11-15.11 8.45a1.47 1.45-39.4 01-1.4-.13q-12.34-8.45-25.58-15.31.04-.36.23-.6a.79.78 26.5 01.83-.27c3.26.85 5.88 3.17 8.32 4.43q7.03 3.6 13.11 8.71 3.42 2.88 7.22.76 4.85-2.71 9.57-5.59c7.91-4.82 17.08-9.12 24.17-14.44q2.28-1.72 1.53-5.22c-1.92-9.04-2.02-18.83-4.73-27.26q-1.15-3.56-1.02-6.48a1.6 1.51 32 00-.24-.92c-1.54-2.47-1.79-5.39-2.77-7.72-1.15-2.74-1.75-5.36-3.56-7.78-2.61-3.5-4.13-7.76-8.93-8.8a.59.59 0 01-.46-.63q.06-.72.77-1.15zM410.76 211.63q-2.92.56-4.33-1.83c-.79-1.34-4.05-7.38-5.13-7.88q-.59-.27-.26.29.17.3.28.64 2.67 8.86 4.02 18.01a1.13 1.12 60.2 01-.24.89q-.35.43-.81.25-2.56-15.64-9.82-29.84-.23-.45.13-.1 9.16 8.71 16.16 19.57z"/><path fill="#95979a" d="M410.76 211.63q5.32 6.62 8.64 14.56-1.35 1.99.65 3.66.39.32.57.79c2.47 6.16 5.36 12.42 7.04 18.67 1.98 7.41 5.39 16.6 6.02 22.7q.52 4.92 1.42 7.52a.45.44 74.7 01-.33.59q-1.49.31-2.73-1.42-5.62-7.85-8.27-12.85c-1.95-3.69-5.02-5.93-7.15-9.73q-2.32-4.15-6.18-7.06c-2.45-1.84-1.5-4.18-2.03-6.36q-.91-3.69-1.14-7.49a.65.64 73.2 00-.96-.52q-.45.26-.35.81l-1.67-13.5q.46.18.81-.25a1.13 1.12 60.2 00.24-.89q-1.35-9.15-4.02-18.01-.11-.34-.28-.64-.33-.56.26-.29c1.08.5 4.34 6.54 5.13 7.88q1.41 2.39 4.33 1.83z"/><path d="M214.5 202.46c1.87 1.25-2.72 8.88-3.57 10.58-3.34 6.68-5.81 13.81-9 20.64a1.55 1.53-2.2 01-.64.68c-1.31.71-.46 2.36-2.25 2.89q.36-1.97.71-2.72c4.92-10.59 8.99-21.94 14.75-32.07z"/><path fill="#b1b1b3" d="M448.88 202.47q4.18 7.06 7.92 14.23c8 15.3 13.91 37.05 16.16 55.1 1.32 10.64 2.92 20.87 1.81 31.77q-1.87 18.3-6.31 36.18-.35.37-.79.26a.59.59 0 01-.43-.67c1.95-10.7 5.03-20.45 5.03-31.5 0-2.91.58-5.36-.08-8.33q-1.44-6.52.75-12.93a1.34 1.29 43.8 00-.04-.94q-.95-2.25-.24-4.53a1.22 1.2-50.5 00-.08-.92c-.87-1.68-.08-2.92-.2-4.31q-.18-2.13-.81-4.2a1.76 1.74-46.6 01-.02-.97q.62-2.32-.77-4.29a1.49 1.44 32 01-.26-1.05c.29-2.29.36-3.69-.81-5.87-2.17-4.07-2.52-9.56-3.38-12.57q-1.2-4.3-2.77-8.47c-2.46-6.52-4.98-14.38-9.36-21.15q-2.41-3.71-5.32-14.84z"/><path fill="#b1b1b3" d="M461.25 253.79q-5.71-20.97-15.25-40.5.27-.24.59-.29a.72.72 0 01.76.38c2.79 5.51 5.69 10.42 7.49 16.53 1.1 3.75 3.45 7.36 4.59 10.61q1.95 5.56 3.41 11.26c.34 1.3-.12 2.21-1.59 2.01zM419.4 226.19c10 17.94 15.2 37.82 17.5 58.68.23 2.05-.3 3.45-2.17 4.2a.53.52-22.3 01-.68-.28q-7.6-17.87-21.57-35.78-2.47-3.16-4.68-4.35a.93.92-79.3 01-.49-.73l-1.35-12.43q-.1-.55.35-.81a.65.64 73.2 01.96.52q.23 3.8 1.14 7.49c.53 2.18-.42 4.52 2.03 6.36q3.86 2.91 6.18 7.06c2.13 3.8 5.2 6.04 7.15 9.73q2.65 5 8.27 12.85 1.24 1.73 2.73 1.42a.45.44 74.7 00.33-.59q-.9-2.6-1.42-7.52c-.63-6.1-4.04-15.29-6.02-22.7-1.68-6.25-4.57-12.51-7.04-18.67q-.18-.47-.57-.79-2-1.67-.65-3.66zM309 241.04c-.01.66 10.68 5.65 12.19 6.02q1.72.43.59 1.7-8.12-3.06-15.53-7.47l2.75-.25z"/><path fill="#fff" d="M358.04 276.5q-8.74 21.02-17.93 34.59-13.66 20.18-20.15 27.87-3.25 3.86-17.55 17.7-1.21 1.17-3.06 4.31a.96.94-76 01-.76.47q-1.3.09-3.41-.37c-13.62-2.94-21.88-5.86-36.17-11.83q-1.71-.71-3.51-.7l-3.83-2.13a.99.96-79.1 01-.48-.73c-2.48-19.05-3.31-39.35-3.99-61.43-.06-1.89 0-2.81 1.79-3.79 18.41-10.07 36.47-21.4 52.28-35.26a1.26 1.25-52.8 011.36-.19c19.04 9.21 38.16 19.26 55.41 31.49zM244.21 344.5q-18.5 9.23-38.7 13.67c-.62.14-1.37.04-2.03.09q-.5.04-.94-.17-13.49-6.41-26.59-13.59c-4.85-2.66-10.3-6.49-15.7-9.46l-1.46-1.29c-.73-3.33-1.54-5.88-1.54-9.39q-.01-16.81.46-33.61c.42-5.14-.4-11.16.64-16.05a1.7 1.62 75.5 01.46-.83c11.62-11.29 26.15-19.96 40.25-27.16a.64.63 55.6 01.77.15q1.49 1.68 3.88 3.67 17.85 14.82 37.46 27.46a1.78 1.76-73.8 01.81 1.49q-.27 32.32 2.23 65.02z"/><path d="M140.79 260.5q.98 1.16.84 2.31c-2.48 20.26-3.83 33.74-2.09 50.89.74 7.21 2.85 15.3 4.3 22.97q.36 1.94 1.68 4.25c2.77 4.87 3.23 10.26 5.96 15.59q6.68 13.01 14.23 25.54.91 1.52 3.53 4.13a.6.6 0 01.06.79q-.39.52-1.26.28c-9.6-13.21-17.03-25.58-21.74-40.74-1.14-3.67-3.39-7.79-4.37-11.99-6.01-25.8-6.1-47.97-1.14-74.02z"/><path fill="#b1b1b3" d="M465.1 273.55l-2.14-11.8q.12-.62.72-.57a.8.79-7.3 01.69.53q2.03 5.83.73 11.84z"/><path fill="#95979a" d="M358.04 276.5c3.3.63 3.58 7.92 3.7 10.48q-.18 8.33.68 15.33 1.45 11.89.51 22.92-.21 2.36 1.53 2.52.49 4.45-.63 8.06-6.04 3.88-11.85 7.77c-4.83 3.25-11.28 9.04-18.34 12.26-4.59 2.08-8 5.82-12.34 7.93q-6.99 3.41-11.1 6.19-2.22 1.51-4.88 1.79a1.34 1.34 0 01-.91-.24q-2.81-1.92-4.43-2.22-10.57-1.94-18.98-8.6-.39-.3-.88-.38c-3.21-.51-5.6-3-7.9-4.05q-5.86-2.68-11.91-4.9l-4.81-2.82q1.8-.01 3.51.7c14.29 5.97 22.55 8.89 36.17 11.83q2.11.46 3.41.37a.96.94-76 00.76-.47q1.85-3.14 3.06-4.31 14.3-13.84 17.55-17.7 6.49-7.69 20.15-27.87 9.19-13.57 17.93-34.59z"/><path fill="#b1b1b3" d="M461.83 333.82q4.73-23.87 3.6-48.08.4-1.06 1.23-.82a.85.83 2 01.58.61l1.61 6.96a.73.72-28.5 01-.21.7c-1.36 1.25-.25 7.75-.04 9.11.75 4.71-1.98 8.15-2.51 12.71-.52 4.43-1.24 8.39-1.45 13q-.17 3.46-2.81 5.81zM361.74 286.98q3.48 20.28 2.72 40.77-1.74-.16-1.53-2.52.94-11.03-.51-22.92-.86-7-.68-15.33z"/><path d="M157.71 290.75q-.47 16.8-.46 33.61c0 3.51.81 6.06 1.54 9.39q.01.56-.6.78a.58.58 0 01-.76-.42c-.71-3.28-1.34-6.33-1.39-9.77q-.27-19.13.22-32.34.04-1.22 1.45-1.25z"/><path fill="#95979a" d="M434.79 318.25q0-1.01-1.14-1a.7.7 0 00-.7.68q-.22 5.79-1.95 11.23c-.9 2.8-1.22 5.77-2.21 8.6q-3.55 10.18-8.23 19.88c-.9 1.87-2.93 4.33-3.57 7.17-.41 1.84-1.36 2.77-2.44 4.18a.58.57-56.1 01-.75.15l-2.76-1.64q-.2-8.53-1.64-16.93c-.44-2.55 2.58-6.45 4.08-8.5 3.62-4.97 6.08-11.54 8.85-16 6.72-10.81 9.02-20.54 14.46-30.79a.35.35 0 01.66.15c.27 7.87-.69 15.18-2.66 22.82z"/><path fill="#212020" d="M590.79 316.25l.21.06V591h-.56l.27-1.25.08-273.5z"/><path fill="#b1b1b3" d="M434.79 318.25c-3.67 21.28-12.31 40.64-23.44 58.99a.34.34 0 01-.63-.19l.32-9.55 2.76 1.64a.58.57-56.1 00.75-.15c1.08-1.41 2.03-2.34 2.44-4.18.64-2.84 2.67-5.3 3.57-7.17q4.68-9.7 8.23-19.88c.99-2.83 1.31-5.8 2.21-8.6q1.73-5.44 1.95-11.23a.7.7 0 01.7-.68q1.14-.01 1.14 1z"/><path fill="#95979a" d="M160.25 335.04c5.4 2.97 10.85 6.8 15.7 9.46q13.1 7.18 26.59 13.59.44.21.94.17c.66-.05 1.41.05 2.03-.09q20.2-4.44 38.7-13.67l.54 1.46c-7.25 3.83-14.99 10.48-19.67 13.72q-6.69 4.64-13.4 9.27-2.37 1.63-5.28-.32a.86.86 0 00-.87-.05l-.82.42-4.96-2.46q.45-.3.54-.71a.7.69-69.5 00-.35-.77q-10.17-5.45-19.57-12.05c-3.54-2.48-6.61-7.65-9.86-9.51q-5.17-2.95-9.56-7.04a.82.81-26.4 00-.64-.21l-.31.04-.27-.42a.44.44 0 01.14-.6l.38-.23z"/><path fill="#b1b1b3" d="M363.83 335.81q-11.68 10.67-18.65 14.87c-12.86 7.75-25.55 15.76-38.74 22.44a1.28 1.26-50.1 01-.93.09c-16.43-4.89-30.83-12.7-45.2-21.85q6.05 2.22 11.91 4.9c2.3 1.05 4.69 3.54 7.9 4.05q.49.08.88.38 8.41 6.66 18.98 8.6 1.62.3 4.43 2.22a1.34 1.34 0 00.91.24q2.66-.28 4.88-1.79 4.11-2.78 11.1-6.19c4.34-2.11 7.75-5.85 12.34-7.93 7.06-3.22 13.51-9.01 18.34-12.26q5.81-3.89 11.85-7.77zM160 336.29l.31-.04a.82.81-26.4 01.64.21q4.39 4.09 9.56 7.04c3.25 1.86 6.32 7.03 9.86 9.51q9.4 6.6 19.57 12.05a.7.69-69.5 01.35.77q-.09.41-.54.71c-8.41-4.49-20.25-11.87-28.52-19.31-2.74-2.46-8.14-6.58-11.23-10.94z"/><path fill="#fff" d="M231.75 414.79c-.87 1.02-1.51-.02-2.15-.4q-7.71-4.53-10.74-12.28a2.18 2.18 0 00-1.8-1.38c-14.54-1.56-31.48-10.11-43.23-18.6a1.22 1.18 57.8 00-.9-.22l-.64.09c-9.22-12.39-14.19-23.82-20.34-36.65a.69.69 0 01.19-.83l3.88-3.11a.63.63 0 01.86.06q20.7 21.98 48.37 34.17a1.31 1.27 2.1 01.69.72c3.99 10.41 10.44 19.83 16.1 29.34q1.9 3.2 9.71 9.09z"/><path fill="#b1b1b3" d="M392.75 347.54c.03.96-.68 1.29-1.54 1.1q-11.69-2.63-23.27-6.02a.95.93 33.1 00-.86.17q-15.29 12.65-20.12 15.43-16.35 9.41-32.71 18.78-1.59.91-3.42.41c20.96-11.51 37.2-20.79 54.04-34.84 1.59-1.32 3.5-1.25 5.3-.72q11.19 3.26 22.58 5.69z"/><path fill="#95979a" d="M392.75 347.54l11.08 1.67a.68.67 1.7 01.57.6l.31 3.94q-.96 3.25-.8 6.59c.31 6.49 1.68 22.36-2.81 27.05-7.7 8.06-13.94 16.31-23.54 22.38-5.75 3.63-9.91 7.37-16.93 10.88-4.88 2.43-10.82 6.62-17.11 8.72a1.8 1.8 0 01-.95.04q-1.66-.4-2.07 1.3l-5.21-1.39q-6.34-2.88-15.95-6.69-1.08-.43-2.02-.48-.51-.03-.97-.27l-12.7-6.81a.67.66 21.7 01-.33-.76q3.65-13.13 7.97-26.05.96-2.9.75-8.79a.5.49 85.7 00-.55-.48q-.23.02-.45.26l-.21-1.84q1.83.5 3.42-.41 16.36-9.37 32.71-18.78 4.83-2.78 20.12-15.43a.95.93 33.1 01.86-.17q11.58 3.39 23.27 6.02c.86.19 1.57-.14 1.54-1.1z"/><path fill="#b1b1b3" d="M244.75 345.96q.15 1.13-1.2 2.1-20.39 14.52-32.94 22.73a1.01.99 38.3 01-.92.1l-4.98-1.89.82-.42a.86.86 0 01.87.05q2.91 1.95 5.28.32 6.71-4.63 13.4-9.27c4.68-3.24 12.42-9.89 19.67-13.72zM464.9 352.22c-3.01 8.66-6.87 16.57-10.81 24.92-12.1 25.66-31.93 48.46-54.34 64.65l-.66-.09a.39.39 0 01-.2-.68q4.32-3.86 8.7-7.41c2.72-2.21 7.96-5.53 11.11-9.15 7.82-8.95 16.38-17.63 22.24-28.05 1.02-1.82 2.96-3.62 3.69-6.15a.61.61 0 01.6-.44q1.04.02 1.24-1.1.88-4.9 4.11-8.53c3.44-3.87 4.97-10.15 7.34-14.97 1.67-3.4 4.49-8.8 4.93-12.5q.24-1.92 2.05-.5zM404.71 353.75q1.28 16.7.49 23.76-.5 4.43-.28 6.97a1.29 1.28 60.7 01-.25.9c-11.05 14.81-25.08 26.58-41.08 36.03-6 3.55-13.39 6.74-20.12 10.05a1.16 1.15 42.2 01-.9.04l-2.07-.79q.41-1.7 2.07-1.3a1.8 1.8 0 00.95-.04c6.29-2.1 12.23-6.29 17.11-8.72 7.02-3.51 11.18-7.25 16.93-10.88 9.6-6.07 15.84-14.32 23.54-22.38 4.49-4.69 3.12-20.56 2.81-27.05q-.16-3.34.8-6.59zM335.29 429.32q-17.68-3.78-32.79-13.7a.99.98 15.9 01-.44-.78q-.06-1.49.42-3.1c3.12-10.48 7.33-21.63 8.56-32.49q.22-.24.45-.26a.5.49 85.7 01.55.48q.21 5.89-.75 8.79-4.32 12.92-7.97 26.05a.67.66 21.7 00.33.76l12.7 6.81q.46.24.97.27.94.05 2.02.48 9.61 3.81 15.95 6.69z"/><path fill="#95979a" d="M231.75 414.79l1.63 1.39a.55.54 38.5 01.09.73q-2.44 3.46-6.42 4.39l-6.97.65a1.71 1.68-31.1 01-1.05-.25l-7.99-4.98a.64.63 37.4 00-.79.1q-.23.23-.25.64-18.01-11.1-31.09-27.47-.48-4.28-4.91-5.7l-1.71-2.29.64-.09a1.22 1.18 57.8 01.9.22c11.75 8.49 28.69 17.04 43.23 18.6a2.18 2.18 0 011.8 1.38q3.03 7.75 10.74 12.28c.64.38 1.28 1.42 2.15.4z"/><path fill="#b1b1b3" d="M174 384.29q4.43 1.42 4.91 5.7l-4.91-5.7zM104.25 388a1.52 1.49 84.9 01-.83-.71q-.73-1.34.22-2.6.73-.97.52.23l-.27 1.5a.75.74 13.3 00.53.85c3.63 1.08 5.82 2.92 6.75 6.83q1.02 4.31 3.1 8.21.24.44-.11.08c-5.04-5.3-.76-11.27-9.91-14.39z"/><path fill="#95979a" d="M251.33 400.71q.91.78.02 1.56-.89.79-.82-.4l.06-.85a.45.45 0 01.74-.31z"/><path fill="#b1b1b3" d="M421.5 410.71q1.14.9-.27 2.56-6.71 7.94-9.54 9.68-2.26 1.39-3.27 2.45c-4.59 4.84-10.63 9.21-16.09 13.07a.62.62 0 01-.81-.08q-.22-.22-.27-.6 16.7-11.79 30.25-27.08zM227.05 421.3c-6.28 3.95-11.27.09-17.05-3.84q.02-.41.25-.64a.64.63 37.4 01.79-.1l7.99 4.98a1.71 1.68-31.1 001.05.25l6.97-.65z"/><path fill="#95979a" d="M245.25 421.54l-.55.29a.32.31 33.9 00.12.59q16.83 1.71 33.02-.49 5.82-1.5 11.91-1.64-.49.26-.93.96a.39.38 10.1 00.41.58c5.9-1.24 9.95-.3 15.01 2.75q8.24 4.96 17.13 8.63c2.05.84 4.84-.09 5.38 3.58q-3.19 1.39-6.49 1.27-8.13-.02-16.07 1.62c-3.22.67-5.9.71-9.04.78a1 1 0 00-.8.43q-.25.36-.35.82-13.25.99-26.25-1.75c-.84-3.05-3.28-2.13-5.3-2.53q-9.33-1.83-18.67-3.67-4.56-1.11-8.82-3.26-.34-1.65-1.83-2.08a1.05 1.03 33.7 00-.89.17l-.53.41-2.9-1.2q-.52-.21-.04-.52 5.33-3.38 9.81-7.85a.61.61 0 01.75-.09q2.83 1.71 5.92 2.2z"/><path fill="#b1b1b3" d="M326.75 436.79c-.54-3.67-3.33-2.74-5.38-3.58q-8.89-3.67-17.13-8.63c-5.06-3.05-9.11-3.99-15.01-2.75a.39.38 10.1 01-.41-.58q.44-.7.93-.96c3.93-1.03 7.67-1.33 11.33 1.01q13.86 8.84 29.7 13.36.57.16.03.39l-4.06 1.74zM245.25 421.54l32.59.39q-16.19 2.2-33.02.49a.32.31 33.9 01-.12-.59l.55-.29zM234.96 430.5l-3.25-1.5.53-.41a1.05 1.03 33.7 01.89-.17q1.49.43 1.83 2.08zM188.54 438.5q.07.71-.54 1.05a.68.68 0 01-.82-.11q-3.29-3.3-7.4-5.68c-3.42-1.99-4.56 3.69-3.12 4.6q9.25 5.88 18.09 12.36 2.18 1.61 4.75 2.54c2.25.82 4.5 1.53 6.51 3.05 4.17 3.15 8.72 3.5 12.69 6.28q3.73 2.61 8.3 3.68 1.56.36 1 1.77-17.26-6.47-26.01-11.59-13-7.6-25.32-16.34c-2.05-1.46-3.73-6.6-.38-7.77 4.13-1.42 9.5 3.45 12.25 6.16zM267.75 439.96q-12.24-2-23.97-6.2 9.34 1.84 18.67 3.67c2.02.4 4.46-.52 5.3 2.53zM320.26 438.06q-5.95 1.42-11.92 2.1c-3.82.43-9.41 1.76-14.34 1.55q.1-.46.35-.82a1 1 0 01.8-.43c3.14-.07 5.82-.11 9.04-.78q7.94-1.64 16.07-1.62z"/><path fill="#b1b1b3" d="M194.14 441.48q4.53 3.65 9.61 6.06l-.28.51a.57.57 0 01-.72.26c-2.32-.97-4.47-2.32-6.77-3.4q-2-.95-1.84-3.43zM210.61 451.56q7.63 3.45 15.25 6.61c5.96 2.48 12.6 4.17 18.96 6.26q6.9 2.28 18.68 3.86.32.34.27.7a.55.55 0 01-.61.48q-6.03-.61-11.83-2.24c-3.9-1.1-7.84-.78-11.78-3.33a.81.8-44.1 00-.85-.01l-1.42.86a.55.54 60.6 01-.77-.22l-.51-1.02a1.19 1.18 86.5 00-.64-.57q-4.72-1.71-9.39-3.52c-2.71-1.05-6.4-1.57-9.81-3.33q-3.68-1.89-5.55-4.53zM367 452.46q.32.13.44.37a.6.6 0 01-.23.77c-6.66 3.98-14.36 6.47-21.53 9.43q-2.81 1.16-6.46 1.7-6.16.9-12.06 2.99a.94.93-35 01-.89-.15q-.49-.41-.27-1.03 21.34-4.6 41-14.08zM258.5 476.21q-8.78-1.41-17.29-3.96.46-1.21 1.46-.94c5.37 1.46 10.86 2.03 16.28 3.42q1.49.38.15 1.14l-.6.34zM279 489.29q.43.49-.02 1.12a1.13 1.13 0 01-1.19.45l-6.17-1.52a.7.7 0 00-.82.41q-.48 1.16-.76 2.39c-.53 2.38.67 4.04-.5 6.61a.73.71-55.5 00.14.81c2.38 2.4 5.19 2.11 8.1 2.55a.93.9-65.8 00.83-.33q3.07-3.81 4.46-8.48a.86.85-59.7 00-.22-.86q-1.29-1.27-.6-2.9l2.79.57a1.36 1.35-75.4 011.01 1.74q-2.12 6.67-6.99 11.77a.69.67 33.9 01-.78.14c-.35-.18-.63-.33-1.06-.29q-5.59.5-10.28-2.43a.63.62 24.1 01-.27-.69l3.27-12.11a.5.49-77.5 01.55-.36l8.51 1.41z"/><path fill="#95979a" d="M279 489.29l3.25.25q-.69 1.63.6 2.9a.86.85-59.7 01.22.86q-1.39 4.67-4.46 8.48a.93.9-65.8 01-.83.33c-2.91-.44-5.72-.15-8.1-2.55a.73.71-55.5 01-.14-.81c1.17-2.57-.03-4.23.5-6.61q.28-1.23.76-2.39a.7.7 0 01.82-.41l6.17 1.52a1.13 1.13 0 001.19-.45q.45-.63.02-1.12z"/><path fill="#b1b1b3" d="M258.56 520.8q-10.58.23-15.36-8.92a1.83 1.81-56.8 01-.2-.98l.45-6.16a.83.83 0 00-.96-.88q-11.79 1.82-23.04 5.63-5.49 1.85-8.76 4.1a1.35 1.33 79.7 00-.54.79q-.5 2.15 1.81 3.18 13.37 5.96 27.77 8.73c.9.18 1.47.93.73 1.71-6.73-1.64-29.56-6.82-32.76-12.56a.85.84 48 01.04-.87q1.29-1.91 3.07-2.77c10.83-5.22 21.39-7.41 33.67-10.12q4.58-1 8.35-1.23.51-.03.18.36-2.07 2.43-4.54 4.23c-5.48 4.01-4.48 9.07 1.11 12.13q3.1 1.69 8.98 3.63zM343 520.29q-.76-.34-.74-.95a.83.82-8.2 01.57-.75l4.9-1.64a1.15 1.15 0 00.41-1.94c-6.33-5.75-21.12-9.09-29.42-10.65q-2.21-.41-4.59-.23a.54.54 0 00-.47.68q.8 2.94 2.7 5.37a1.53 1.53 0 01.16 1.62q-2.35 4.65-6.14 8.09a1.93 1.92 18.6 01-.93.46l-10.56 1.96a.5.49 79.1 01-.58-.4q-.06-.34.19-.62c6.27-1.24 17.68-2.6 15.48-12.35q-.86-3.79-4.03-6.25a.49.49 0 01.39-.87c6.46 1.19 13.38 1.78 19.09 3.41q11.11 3.16 21.84 8.79a1.39 1.39 0 01.16 2.36q-3.56 2.57-8.43 3.91z"/><path fill="#b1b1b3" d="M265.82 507.49q-3.08 1.01-5.31-1.57a.71.69 58 00-.78-.19q-5.53 2.2-3.84 7.99-2.48-.61-3.96-2.61a.81.81 0 01-.01-.95q3.16-4.43 8.34-6.34a1.01 1 53 01.95.14l4.61 3.53z"/><path fill="#95979a" d="M258.56 520.8q19.86 3.47 39.94.49-.25.28-.19.62a.5.49 79.1 00.58.4l10.56-1.96a1.93 1.92 18.6 00.93-.46q3.79-3.44 6.14-8.09a1.53 1.53 0 00-.16-1.62q-1.9-2.43-2.7-5.37a.54.54 0 01.47-.68q2.38-.18 4.59.23c8.3 1.56 23.09 4.9 29.42 10.65a1.15 1.15 0 01-.41 1.94l-4.9 1.64a.83.82-8.2 00-.57.75q-.02.61.74.95c-15.47 5.81-27.89 7.25-42.69 9.05q-17.47 2.13-36.72 1.31a1.43.89-16.9 00-1.51 1.72l1.47.87a.4.4 0 01.16.53l-4.04 8.08a1.17 1.16 5.2 01-.73.6q-11.05 3.05-22.44 2.51l.14-.24a.2.2 0 00-.13-.3l-10.17-2.45a.7.69-66.6 00-.74.3q-.14.23-.1.44-4.31-1.07-8.04-3.46l.11-.46a.51.48-66.6 00-.2-.54l-5.49-3.65a1.98 1.98 0 00-1.01-.32c-2.84-.12-1.84-6.23-2.02-8.11a.92.92 0 011.32-.91q7.23 3.56 14.69 5.52c2.17.57 5.06.97 7.6 1.66 4.7 1.28 9.47 1.02 13.53 1.6q2.68.39 3.08-1.89c.84.02 5.74.26 5.84-.82a.55.55 0 00-.49-.6q-7.11-.76-13.96-2.73c.74-.78.17-1.53-.73-1.71q-14.4-2.77-27.77-8.73-2.31-1.03-1.81-3.18a1.35 1.33 79.7 01.54-.79q3.27-2.25 8.76-4.1 11.25-3.81 23.04-5.63a.83.83 0 01.96.88l-.45 6.16a1.83 1.81-56.8 00.2.98q4.78 9.15 15.36 8.92z"/><path fill="#95979a" d="M265.82 507.49q1.54.27 3.15.77c5.47 1.67 13.23 1.27 18.92.95 4.68-.26 7.83.94 9.33 5.37a.98.98 0 01-.9 1.3c-5.63.15-11.33 1.67-16.46 1.49q-12.29-.42-23.97-3.65-1.69-5.79 3.84-7.99a.71.69 58 01.78.19q2.23 2.58 5.31 1.57z"/><path fill="#b1b1b3" d="M249.07 532.15q-.4 2.28-3.08 1.89c-4.06-.58-8.83-.32-13.53-1.6-2.54-.69-5.43-1.09-7.6-1.66q-7.46-1.96-14.69-5.52a.92.92 0 00-1.32.91c.18 1.88-.82 7.99 2.02 8.11a1.98 1.98 0 011.01.32l5.49 3.65a.51.48-66.6 01.2.54l-.11.46-8.91-4.75a1.88 1.87 15 01-1-1.72l.27-9.51a.28.28 0 01.41-.24c12.89 7.09 26.02 9.07 40.84 9.12z"/><path fill="#95979a" d="M271 551a.5.05 65.9 01-.24-.42q-.14-.31.14-.68 4.16-5.48 6.57-11.94a.72.7-79 01.66-.46h8.41a.55.54 14.6 01.48.81l-6.76 12.13a1.1 1.08 14.2 01-.96.56H271z"/><path fill="#b1b1b3" d="M236.5 544.96q-5.73.01-11-2.25-.04-.21.1-.44a.7.69-66.6 01.74-.3l10.17 2.45a.2.2 0 01.13.3l-.14.24zM590.25 589.71l.46.04-.27 1.25h-.5q-6.88-.63-13.75 0h-9.25q-3.38-.63-6.75 0h-23.75q-3.13-.63-6.25 0h-1.25l-8.94-.21-5.81.21h-34.25q-2.88-.63-5.75 0h-2.25l-5.69-.21-25.06.21h-.25q-3.38-.63-6.75 0h-20.25q-5.88-.63-11.75 0h-2.25q-2.88-.63-5.75 0h-19.25q-10.13-.63-20.25 0h-2.75q-2.88-.63-5.75 0h-.25q-8.88-.63-17.75 0h-.25q-46.88-.63-93.75 0h-.25q-3.88-.63-7.75 0h-10.25q-2.88-.63-5.75 0h-.25q-4.88-.63-9.75 0h-.25q-2.88-.63-5.75 0h-2.25q-2.88-.63-5.75 0h-1.25l-26.19-.21-4.56.21h-.25l-9.44-.21-22.31.21h-10.25q-2.88-.63-5.75 0h-2.25q-2.88-.63-5.75 0h-1.25q-3.38-.63-6.75 0h-9.25q-3.38-.63-6.75 0h-.25l-7.69-.21-10.06.21h-3.25q-5.88-.63-11.75 0h-.25q-3.88-.63-7.75 0h-.25q-8.13-.63-16.25 0h-2.75L0 590.44v-.5q.33-.04.61.13a1.14 1.12 61 00.61.18h587.87a1.26 1.25 27.6 00.71-.22l.45-.32z"/><path fill="#212020" d="M0 590.44l13.94.56H0v-.56zM32.94 591H16.69q8.12-.63 16.25 0zM40.94 591h-7.75q3.87-.63 7.75 0z"/><path fill="#95979a" d="M52.94 591H41.19q5.87-.63 11.75 0zM66.25 590.79l-.06.21h-10l10.06-.21z"/><path fill="#212020" d="M66.25 590.79l7.69.21h-7.75l.06-.21zM80.94 591h-6.75q3.37-.63 6.75 0z"/><path fill="#95979a" d="M96.94 591h-6.75q3.37-.63 6.75 0z"/><path fill="#212020" d="M103.94 591h-5.75q2.87-.63 5.75 0z"/><path fill="#95979a" d="M111.94 591h-5.75q2.87-.63 5.75 0z"/><path fill="#212020" d="M144.5 590.79l-.06.21h-22.25l22.31-.21z"/><path fill="#95979a" d="M144.5 590.79l9.44.21h-9.5l.06-.21zM158.75 590.79l-.06.21h-4.5l4.56-.21z"/><path fill="#212020" d="M158.75 590.79l26.19.21h-26.25l.06-.21zM191.94 591h-5.75q2.87-.63 5.75 0zM199.94 591h-5.75q2.87-.63 5.75 0z"/><path fill="#95979a" d="M209.94 591h-9.75q4.87-.63 9.75 0z"/><path fill="#212020" d="M215.94 591h-5.75q2.87-.63 5.75 0zM233.94 591h-7.75q3.87-.63 7.75 0zM327.94 591h-93.75q46.87-.63 93.75 0zM345.94 591h-17.75q8.87-.63 17.75 0zM351.94 591h-5.75q2.87-.63 5.75 0z"/><path fill="#95979a" d="M374.94 591h-20.25q10.12-.63 20.25 0z"/><path fill="#212020" d="M399.94 591h-5.75q2.87-.63 5.75 0zM413.94 591h-11.75q5.87-.63 11.75 0zM440.94 591h-6.75q3.37-.63 6.75 0zM466.25 590.79l-.06.21h-25l25.06-.21z"/><path fill="#95979a" d="M466.25 590.79l5.69.21h-5.75l.06-.21z"/><path fill="#212020" d="M479.94 591h-5.75q2.87-.63 5.75 0zM520 590.79l-.06.21h-5.75l5.81-.21z"/><path fill="#95979a" d="M520 590.79l8.94.21h-9l.06-.21z"/><path fill="#212020" d="M536.44 591h-6.25q3.12-.63 6.25 0zM566.94 591h-6.75q3.37-.63 6.75 0zM589.94 591h-13.75q6.87-.63 13.75 0z"/></svg>