<svg xmlns="http://www.w3.org/2000/svg" viewBox="0 0 591 591"><g stroke-width="2" fill="none"><path stroke="#111010" vector-effect="non-scaling-stroke" d="M590.06 0l.19.29"/><path stroke="#7e7f70" vector-effect="non-scaling-stroke" d="M590.25.29v589.15a.57.56-3.4 01-.5.56q-2.05.23-5.06.23-291.72.06-583.44-.02"/><path stroke="#111010" vector-effect="non-scaling-stroke" d="M1.25 590.21L0 589.94"/><path stroke="#7e7f70" vector-effect="non-scaling-stroke" d="M586.25 4.52a.27.27 0 00-.27-.27H4.52a.27.27 0 00-.27.27v581.46a.27.27 0 00.27.27h581.46a.27.27 0 00.27-.27V4.52"/><path stroke="#8e8f7f" vector-effect="non-scaling-stroke" d="M590.69 591V.49a.19.19 0 00-.18-.19l-.26-.01M588.19 591q-3.63-.63-7.25 0"/><path stroke="#c7cabc" vector-effect="non-scaling-stroke" d="M24.44 591q-5.38-.63-10.75 0"/><path stroke="#8e8f7f" vector-effect="non-scaling-stroke" d="M12.19 591l-11.44-.48q-.5-.02-.02-.16l.52-.15"/><path stroke="#d4d6c7" vector-effect="non-scaling-stroke" d="M133.654 16.42a1.31.61 26.3 00-.904-1.127 1.31.61 26.3 00-1.444-.033 1.31.61 26.3 00.904 1.127 1.31.61 26.3 001.444.033"/><path stroke="#fbf2c5" vector-effect="non-scaling-stroke" d="M98.79 32.7a.88.86-29.6 00-.34-.09q-18.16-.35-36.59-.56-8.42-.1-12.05 1.24c-6.59 2.44-10.87 7.73-11.47 14.88-1.26 15.04-.87 30.09-.82 45.11a.58.58 0 00.94.45q5-3.99 9.73-8.54c17.45-16.79 34.74-33.83 51.92-50.9a.62.62 0 00-.16-.99l-1.16-.6"/><path stroke="#c7cabc" vector-effect="non-scaling-stroke" d="M338.113 117.012a1.54 1.54 0 00-1.644-1.43l-3.75.263a1.54 1.54 0 00-1.43 1.644l.018.26a1.54 1.54 0 001.644 1.428l3.75-.262a1.54 1.54 0 001.43-1.644l-.018-.26M185.5 196.96q-2.02 2.09-1.98 5.01a.49.49 0 00.54.48c2.39-.22 1.58-3.32 2.69-4.74"/><path stroke="#8e8f7f" vector-effect="non-scaling-stroke" d="M186.75 197.71c2.55 1.57 1.37 4.57-.9 5.33-2.57.86-5.38-.61-7.99 1.29q-3.72 2.71-6.34 7.99-.22.44-.43-.01-3.46-7.38-8.2-14.1"/><path stroke="#c7cabc" vector-effect="non-scaling-stroke" d="M162.89 198.21q-2.41-2.07-4.14-4.92"/><path stroke="#8e8f7f" vector-effect="non-scaling-stroke" d="M158.75 193.29c-5.39-5.89-10.76-11.97-16.7-17.32-3.59-3.23-5.85-6.13-10.55-9.26"/><path stroke="#c7cabc" vector-effect="non-scaling-stroke" d="M131.5 166.71l-4.47-3.99a.81.81 0 00-1.26.24q-4.64 9.16-6.29 19.31a.57.57 0 01-.56.48h-.66a.57.56-81.4 01-.54-.74l.56-1.75a.32.32 0 00-.22-.41l-2.37-.69a.71.71 0 00-.88.51q-.77 3.15.31 6.23a1.25 1.24 84.4 01-1.35 1.65l-2.54-.37a.42.42 0 00-.48.47q.1.74.65 1.34a1.73 1.66 20 01.43.88c.45 2.64 1.5 4.95 1.9 7.59q.48 3.28 1.81 6.35a.08.08 0 01-.04.11l-.25.08a.19.18 53.2 01-.17-.03l-2.04-1.69q-.96-.79-.87.45.49 7.07 5.04 12.27"/><path stroke="#8e8f7f" vector-effect="non-scaling-stroke" d="M117.21 215q1.46 5.84 6.82 8.07a.53.53 0 01.3.66q-.49 1.4-1.09 2.78c-5.37 12.25 6.39 15.65 12.72 22.37a1.76 1.72 17.9 01.44.84c1.79 8.84-.98 13.62 11.49 12.3a.33.32 7.3 01.34.43c-2 5.26-7.27.62-9.98-1.14q-.45-.29-.71-.76-3.1-5.7-9.48-6.9-2.24-.42-1.02-2.35l1.88-2.95a.57.57 0 00-.39-.87l-13.88-2.22q-.57-.09-.14-.46l5.28-4.56a1.29 1.29 0 00-.27-2.13q-4.63-2.31-9.8-2.75a.7.7 0 01-.18-1.36q3.88-1.44 5.64-5.16a.72.71 15.4 00-.58-1.01l-9.44-.94q-2.05-.21-.43-1.47l9.18-7.16a.49.48 52.8 00.09-.67l-5.29-7.09"/><path stroke="#c7cabc" vector-effect="non-scaling-stroke" d="M108.71 210.5l.42-.69a1.11 1.08-35.4 00.15-.81l-2.36-11.73a.6.6 0 01.6-.71l3.14.07q.67.02.25-.51l-1.23-1.54q-.34-.43-.47-.96l-2.66-11.56a.67.67 0 01.39-.77l2.86-1.19q.52-.21.88-.64l3.24-3.82a1.39 1.35 17.3 01.92-.47l2.4-.21a.88.88 0 00.78-.7l2.93-14.74a1.23 1.22-56.5 00-.18-.92q-.77-1.15-2.27-1.06"/><path stroke="#d4d6c7" vector-effect="non-scaling-stroke" d="M118.5 157.54l-1.46-.29"/><path stroke="#8e8f7f" vector-effect="non-scaling-stroke" d="M117.04 157.25c-.18-4.56-17.39-8.27-21.03-8.74-10.14-1.31-12.05 2.3-14.02 10.78-1.66 7.14-.14 13.71 4.44 19.38a1.33 1.31 26.7 01.3.89c-.39 10.07 3.11 34 16.35 34.92a.41.41 0 01.14.79c-6.59 3.01-11.72 7.78-10.65 15.73 1.16 8.58 4.56 19.5 10.8 25.85 2.42 2.46 5.19 2.88 8.41 3.87q.48.15.06.42c-11 7.17-22.62 13.27-33.51 20.52-4.78 3.18-14.37 7.1-14.36 13.84 0 5.33-1.22 29.86 1.29 32.99q3.83 4.77 18.26 20.5 3.07 3.35 8.27 1.84a.89.88 57.4 01.84.19q6.57 5.88 16.43 16.17 13.64 14.23 64.6 64.01c14.24 13.91 28.17 28.12 42.23 42.22a1.79 1.79 0 01.47.83q1.46 5.57 3.04 7.08 10.33 9.92 20.37 20.1c4.01 4.07 8.01 6.27 13.16 3.27 9.72-5.65 18.15-13.76 30.27-22 3.35-2.27 4.14-7.12 7.86-9.93 30.76-23.27 61.95-46.15 92.26-70q54.64-43.02 108.54-86.95c.4-.33 1.3-.7 1.8-1.02a1.77 1.73 28.6 01.92-.26c6.99.11 21.88-14.96 29.34-20.42 8.69-6.34 19.8-13.34 4.2-21.97q-5.49-3.04-10.93-6.1a1 1 0 01-.5-.75c-.67-6.04 4.48-8.66 8.35-12.27 3.98-3.7 5.14-10.46-.27-13.57-10.11-5.79-20.82-12.43-31.54-16.82a1.82 1.82 0 00-.97-.11l-3.15.46a1.56 1.52-34 01-.99-.18l-135.19-75.48a1.66 1.62 4.6 01-.72-.83l-1.63-4.12a1.72 1.71 5.9 00-.66-.81c-13.67-8.87-23.22-8.55-36.98-.63q-42.77 24.63-85.22 49.82c-6.97 4.14-13.88 6.69-21.31 9.54a.51.5-13.9 01-.68-.4l-.38-2.79a1.5 1.46 18.4 00-.45-.87q-5.17-4.91-12.38-5.02a1.5 1.48-63.3 00-.95.32l-2.6 2.05a1.52 1.52 0 01-2.4-.75q-2.94-9.64-10.85-16.28c-3.63-3.05-7.97 2.57-4.44 5.17 5.36 3.96 12.63 8.28 14.22 15.23"/><path stroke="#676767" vector-effect="non-scaling-stroke" d="M117.04 157.25l-1.5 7.75"/><path stroke="#5a5b5c" vector-effect="non-scaling-stroke" d="M115.54 165l-.35 5.97a.28.28 0 01-.42.22q-3.02-1.74-6.63-.85c-2.71.67-3.1 7.97-3.63 10.45a1.83 1.78 42.1 00.06.95q1.93 5.44.37 10.81"/><path stroke="#676767" vector-effect="non-scaling-stroke" d="M104.94 192.55q-2.97 2.59-2.43 6.2.65 4.34 3.03 8"/><path stroke="#5a5b5c" vector-effect="non-scaling-stroke" d="M105.54 206.75l3.17 3.75M117.21 215q.01-3.24 1.75-4.04a2.02 2.02 0 00.96-2.75q-5.89-11.59-.88-23.73.23-.56.49-.02l2.83 5.71q.28.56.46-.04.25-.79.18-1.66-.04-.51.07-.99l1.89-7.73"/><path stroke="#676767" vector-effect="non-scaling-stroke" d="M124.96 179.75q1.35-5.79 4.87-11.16"/><path stroke="#5a5b5c" vector-effect="non-scaling-stroke" d="M129.83 168.59l1.67-1.88M158.75 193.29l-.64 7.49a.35.34-74.4 01-.49.28c-11.74-5.45-14.91 4.8-10.65 13.32a.8.79-38.6 01-.1.86q-.4.47-1.12.3"/><path stroke="#8e8f7f" vector-effect="non-scaling-stroke" d="M145.75 215.54c-6.43-.27-5.46 7.3-4.58 11.03"/><path stroke="#5a5b5c" vector-effect="non-scaling-stroke" d="M141.17 226.57l.83 5.72"/><path stroke="#90908f" vector-effect="non-scaling-stroke" d="M142 232.29q-5.32-3.45-11.24-5.88a.5.49-67.8 00-.65.28c-4.36 10.91 4.84 10.01 9.18 15.56"/><path stroke="#5a5b5c" vector-effect="non-scaling-stroke" d="M139.29 242.25l2.16 3.08"/><path stroke="#90908f" vector-effect="non-scaling-stroke" d="M141.45 245.33q.62 4.29-.45 9.17-.6 2.76 2.25 3.04"/><path stroke="#5a5b5c" vector-effect="non-scaling-stroke" d="M143.25 257.54q2.21 1.7 4.75.5"/><path stroke="#90908f" vector-effect="non-scaling-stroke" d="M148 258.04l3.63-1.26a1.15 1.12-89.8 00.7-.71q3.65-11.01 12.35-18.62a.26.26 0 00-.2-.46q-7.56.7-15.04-1.24"/><path stroke="#5a5b5c" vector-effect="non-scaling-stroke" d="M149.44 235.75c.89-2.47-1.1-9.67-1.36-12.74a.47.46-2.9 01.46-.5l2.93-.04a1.5 1.49-10.3 001.39-2q-1.65-4.55-3.9-8.48c-1.15-1.99-1.06-3.94.81-5.25a1.42 1.4-60.2 01.93-.26c2.83.21 5.97 2.45 8.87 4.38a.78.78 0 00.85.01c4.1-2.49 2.09-8.44 2.47-12.66M186.75 197.71l-1.25-.75"/><path stroke="#c9cbcc" vector-effect="non-scaling-stroke" d="M148 258.04c-4.53.47 1.16-7.08 2.3-8.22a.67.66 51.4 00.09-.84l-.37-.59a.71.71 0 00-1.08-.13l-6.7 6.2a.63.63 0 00.23 1.06l.89.29a.67.67 0 01.45.57q.06.73-.56 1.16M141.45 245.33l7.67-1.63a.63.63 0 00.21-1.15q-2.75-1.76-6.05-1.53a1.66 1.6 58.1 01-.99-.25q-.91-.57-1.76-.04a.99.98 75.7 00-.46.78q-.05.64-.78.74"/><path stroke="#9fa2a4" vector-effect="non-scaling-stroke" d="M105.54 206.75q1.09-1.14.52-2.55-1.95-4.71-1.83-8.79a1.35 1.32 69.5 01.4-.91l.75-.75a.62.6-38.2 00.1-.74q-.35-.6-.54-.46M118.5 157.54q.45 3.63-.43 7.16a.61.6-80.2 01-.63.45l-1.9-.15"/><path stroke="#c9cbcc" vector-effect="non-scaling-stroke" d="M149.44 235.75l-7.44-3.46"/><path stroke="#c7cabc" vector-effect="non-scaling-stroke" d="M141.17 226.57l1.18-8.14a.67.66 88.8 01.53-.56q2.19-.47 2.87-2.33"/><path stroke="#9fa2a4" vector-effect="non-scaling-stroke" d="M129.83 168.59q-3.94.73-4.79 3.41-1.1 3.49-2.63 6.85a.81.79-53.7 00.12.85q1.01 1.17 2.43.05"/><path stroke="#d4d6c7" vector-effect="non-scaling-stroke" d="M147.58 156.76q-1.12 6.04-2.59 12c-.2.82.19 1.39 1.07 1.23a1.1 1.1 0 00.9-1.23c-.67-4.93 1.69-8.68.86-13.74q-.11-.64-.3-.02-.13.42 0 .83.15.46.06.93"/><path stroke="#676767" vector-effect="non-scaling-stroke" d="M289 162.46q-28.6 16.54-56.81 33.73-1.56.95-1.63 2.7"/><path stroke="#5a5b5c" vector-effect="non-scaling-stroke" d="M230.56 198.89l-1.72 2.53a.84.83 21.1 01-.8.35c-5.92-.78-8.5 1.82-12.67 4.54-2.46 1.61-6.05 2.97-8.81 5.13a.67.67 0 00-.22.74q2.06 6.27.67 12.78a.41.41 0 00.6.44l7.64-4.19"/><path stroke="#676767" vector-effect="non-scaling-stroke" d="M215.25 221.21l34.79-21.46"/><path stroke="#5a5b5c" vector-effect="non-scaling-stroke" d="M250.04 199.75l89.65-53.57a1.61 1.61 0 00.02-2.75q-9.7-5.94-19.77.53-6.49 4.18-30.94 18.5"/><path stroke="#9fa2a4" vector-effect="non-scaling-stroke" d="M250.04 199.75c-.05-2.61-10.41 4.11-12.29 5.29-2.48 1.55-23.72 14.34-23.57 15.4a.59.59 0 00.52.51q.32.04.55.26M230.56 198.89q2.75-.77 5.04-2.41 3.83-2.74 4.51-3.13c7.32-4.13 14.29-8.76 21.48-13.07q8.67-5.2 17.43-10.24c2.73-1.57 7.42-3.53 10.81-6.33a.66.65 48.8 00.06-.95q-.33-.37-.89-.3"/><path stroke="#676767" vector-effect="non-scaling-stroke" d="M100.65 157.8c-.92-1.37-7.57-2.82-9.49-3.4a.59.58-71.7 00-.71.36l-1.82 5.04a.37.36-81.1 00.35.49c2.22-.08 4.46-1.01 6.3-1.17q2.35-.2 4.72-.14 1.47.05.65-1.18M110.19 159.39l-2.51-1.69a.93.92 45.3 00-1.02-.01c-3.21 2.08-5.88 8.34-1.81 11.1q.56.38.57-.3.03-5.66 4.76-8.67a.26.26 0 00.01-.43M97.38 164.93q-3.69-2.39-8.08-2.51a.81.81 0 00-.79.54q-.97 2.7-.05 5.38a.57.57 0 00.76.34q3.56-1.55 7.5-1.53a1.21 1.21 0 00.66-2.22M95.22 171.33q-2.86-1.82-6.18-1.12a.61.61 0 00-.44.84l2.06 4.79a1.05 1.04-31.5 001.63.39l3.08-2.55a1.46 1.46 0 00-.15-2.35M94.99 179.55q-1.74-1.3-1.74.87v4.74a.52.52 0 00.64.5c3.71-.88 4.12-3.84 1.1-6.11M134.06 190.138a3.41 3.23 85.3 002.94-3.663 3.41 3.23 85.3 00-3.5-3.133 3.41 3.23 85.3 00-2.94 3.663 3.41 3.23 85.3 003.5 3.133M95.28 190.34a1.04 1.03 12.8 00-1.67 1.05l1.01 3.83q.29 1.11 1.07.27l1.99-2.11a.74.74 0 00-.06-1.06l-2.34-1.98"/><path stroke="#5a5b5c" vector-effect="non-scaling-stroke" d="M335.18 203.2c-2.7 4.37-6.8 5.22-11.29 7.23a.69.68-59.3 00.33 1.31q11.09-.93 22.13-.05a.74.73 84.4 00.76-.93q-2.9-10.08-13.03-12.85a.48.47 85.1 00-.55.66l1.71 3.66a1.03 1.03 0 01-.06.97M368.34 202.17c-2.87 10.16-9.53 5.46-15.66 8.84q-2.21 1.23.3 1.52 9.96 1.15 19.1 5.32a.74.73-64.3 00.96-.34q4.98-9.83-3.83-15.67a.58.58 0 00-.87.33"/><path stroke="#676767" vector-effect="non-scaling-stroke" d="M203.069 210.04a3.29 2.82 100 003.348-2.75 3.29 2.82 100 00-2.206-3.73 3.29 2.82 100 00-3.348 2.75 3.29 2.82 100 002.206 3.73"/><path stroke="#5a5b5c" vector-effect="non-scaling-stroke" d="M302.8 207.89c1.29 3.94-2.25 6.49-5.52 7.52a1.72 1.72 0 00-1.07 2.3c.27.67.73.93 1.46.65q9.86-3.81 20.42-5.26a.69.68-19.4 00.5-1.03c-3.65-5.97-13.46-8.54-20.18-8.52a.36.36 0 00-.06.71q3.47.63 4.45 3.63"/><path stroke="#90908f" vector-effect="non-scaling-stroke" d="M187.32 233.97l1.75-1.84a.96.95 30.5 01.98-.25c6.67 2.15 10.46-4.98 9.37-10.47q-.62-3.12-3.14-5.39c-7.82-7.05-19.15-3.4-20.24 7.2-.39 3.78 3.4 4.48 5.81 5.81a1.05 1.04 9.2 01.53.73c.82 4.65-3.95 4.56-6.93 5.61a.4.39-28.2 00-.19.61q2.77 3.66 7.09 2.37a.91.9-30.3 01.91.23q2.53 2.59 6.27 2.36 1.63-.1.48-1.27-1.96-1.99-2.92-4.61a1.04 1.04 0 01.23-1.09"/><path stroke="#5a5b5c" vector-effect="non-scaling-stroke" d="M398.33 214.12c-4.48 7.64-14.22 4.57-21.33 4.2a.43.43 0 00-.44.51c.16.8 6.04 3.13 7.28 4.05q4.74 3.49 9.18 7.37a.57.57 0 00.74.01c5.35-4.52 8.12-9.67 5.81-16.77a.41.39 70.7 00-.52-.26c-.57.21-.47.47-.72.89"/><path stroke="#90908f" vector-effect="non-scaling-stroke" d="M238.51 262.82q-2-.52-2.55 3.18"/><path stroke="#5a5b5c" vector-effect="non-scaling-stroke" d="M235.96 266q-1.3 1.23-1.67 3"/><path stroke="#90908f" vector-effect="non-scaling-stroke" d="M234.29 269q-1.49 3.05-5.25 5.05c-5.17 2.75-7.3 1.22-12.29.66"/><path stroke="#5a5b5c" vector-effect="non-scaling-stroke" d="M216.75 274.71q-3.46-1.05-6 1.25"/><path stroke="#90908f" vector-effect="non-scaling-stroke" d="M210.75 275.96l-1 .33"/><path stroke="#5a5b5c" vector-effect="non-scaling-stroke" d="M209.75 276.29q-1.76 1.04-2.46 2.96"/><path stroke="#90908f" vector-effect="non-scaling-stroke" d="M207.29 279.25c-3.85 6.41-9.28 2.98-13.49-.39q-.62-.49-.58.3l.11 1.96a.85.84 10.5 00.5.72c3.99 1.74 6.97 2.19 11.42 1.03q4.24-1.11 8.39.7c2.57 1.11 5.66-1.31 3.64-3.52a.43.42-38.2 01.08-.65c1.51-.93 10.64 5.08 12.76 6.43a.28.28 0 00.42-.31c-.73-2.85-1.9-5.79-.99-8.93a.36.36 0 01.44-.25q.15.04.26.2"/><path stroke="#676767" vector-effect="non-scaling-stroke" d="M230.25 276.54q.99 1.83 3.25 1.17"/><path stroke="#90908f" vector-effect="non-scaling-stroke" d="M233.5 277.71l6.25 3.08"/><path stroke="#5a5b5c" vector-effect="non-scaling-stroke" d="M239.75 280.79q.75.51 1.51.37a.54.54 0 00.43-.63l-1.42-7.81"/><path stroke="#90908f" vector-effect="non-scaling-stroke" d="M240.27 272.72l7.25 3.33a2.01 1.94 83.8 01.79.66q.93 1.32 2.64 1.23a.44.44 0 00.37-.63q-1.5-3.03-1.61-6.31"/><path stroke="#5a5b5c" vector-effect="non-scaling-stroke" d="M249.71 271l-.47-3.99a.54.54 0 00-.5-.48l-.45-.03"/><path stroke="#90908f" vector-effect="non-scaling-stroke" d="M248.29 266.5q.57-1.71 2.64-2.15"/><path stroke="#5a5b5c" vector-effect="non-scaling-stroke" d="M250.93 264.35c4.76-1.42 11.15-1.99 14.89-4.49 2.73-1.82 7.4-5.58 5.76-9.46a.78.77-35.8 01.14-.82c1.91-2.1 3.13-4.33 5.23-6.26 3.08-2.83 7.45-7.37 5.5-11.59a1.45 1.41 1.6 00-.68-.7l-5.3-2.61a.76.76 0 01-.16-1.25q5.44-4.78 8.15-11.43a.56.56 0 00-.27-.71q-1.37-.71-2.57-.41"/><path stroke="#90908f" vector-effect="non-scaling-stroke" d="M281.62 214.62l-7.41-.77"/><path stroke="#5a5b5c" vector-effect="non-scaling-stroke" d="M274.21 213.85l-6.48.26a.59.59 0 00-.57.58c-.19 8.43-3.43 15.57-7.4 22.74q-.26.48.27.36 2.91-.62 4.96-2.73a.32.32 0 01.53.33c-1.88 4.9-4.33 10.78-8.77 13.91q-3.92 2.76-8.11 5.17a.93.92-13.6 00-.46.74q-.44 8.86-9.67 7.61"/><path stroke="#c9cbcc" vector-effect="non-scaling-stroke" d="M274.21 213.85q-.94 5.02-2.53 9.8c-.97 2.91-3.19 4.69-4.63 7.52a.41.41 0 00.37.59l.69-.01a.56.55-2.2 01.56.51c.23 2.64-.66 4.67 2.35 6.08a.41.41 0 01.08.69l-1.17.92q-.42.33-.66.82-3.63 7.58-10.33 12.56-.57.42.14.43 2.31.01 4.06-1.41a.29.29 0 01.44.09l.16.3a.59.58-34.4 01-.14.73c-4.47 3.73-9.32 6.16-14.24 9.2-3.98 2.47-7.09 2.72-10.85.15"/><path stroke="#c9cbcc" vector-effect="non-scaling-stroke" d="M281.62 214.62q-.63.95-1.45 1.74c-2.68 2.57-4.87 6.82-6.76 10.06a1.11 1.08-38.5 00-.11.88q.76 2.55-.12 5.03a.82.81 27.7 00.3.94c5.13 3.64-.04 9.96-3.81 12.37-2.85 1.82-.26 3.51-.29 5.3-.03 1.8-3.46 4.85-4.98 5.72q-6.72 3.84-13.47 7.69M248.29 266.5q-.25 2.64 1.42 4.5M240.27 272.72q-.88 3.93.08 7.65a.31.31 0 01-.26.39l-.34.03"/><path stroke="#d6d6d7" vector-effect="non-scaling-stroke" d="M233.5 277.71q-1.49-1.11-3.25-1.17"/><path stroke="#c9cbcc" vector-effect="non-scaling-stroke" d="M207.29 279.25q2.2-.72 2.46-2.96M210.75 275.96q3.15.07 6-1.25M234.29 269q1.76-.94 1.67-3"/><path stroke="#676767" vector-effect="non-scaling-stroke" d="M313.44 230.36c-2.78 10.16-7.37 19.59-18.27 21.3a1.06 1.04-77.8 00-.74.49c-.32.52-.33.74-.78 1.18-7.17 6.96-21.27 20.74-32.38 17.32a.36.36 0 00-.46.39l.44 3"/><path stroke="#5a5b5c" vector-effect="non-scaling-stroke" d="M261.25 274.04l1.36 5.25"/><path stroke="#676767" vector-effect="non-scaling-stroke" d="M262.61 279.29q12.27 21.03 35.89 27.75"/><path stroke="#5a5b5c" vector-effect="non-scaling-stroke" d="M298.5 307.04q36.7 9.88 71.05-6.01 5.87-2.72 10.95-6.74"/><path stroke="#676767" vector-effect="non-scaling-stroke" d="M380.5 294.29q5.91-4.31 10.89-9.63c12.43-13.28 14.61-33.3 2.62-47.67q-8.86-10.63-22.74-16.02"/><path stroke="#5a5b5c" vector-effect="non-scaling-stroke" d="M371.27 220.97c-16.4-7.01-35.26-7.9-53.1-5.14-5.15.8-10.27 2.45-15.42 3.99q-.48.14-.07.42 6.17 4.26 10.76 10.12"/><path stroke="#9fa2a4" vector-effect="non-scaling-stroke" d="M371.27 220.97q.84 2.68 3.12 3.42 3.63 1.18 5.38 2.38c11.44 7.88 21.08 17.67 20.67 32.62-.21 7.49-4.01 17.19-9.36 22.44-4.29 4.2-7.3 7.55-11.48 10.7a.82.81-24.3 00-.31.81q.16.85 1.21.95M298.5 307.04q.47.04.51-.34a1.59 1.59 0 00-1.47-1.75c-3.11-.22-6.02-2.51-9.69-4.17-6.91-3.11-13.16-8.65-18.2-14.23-2.17-2.39-3.34-5.62-4.92-8.5a.67.66-22.9 00-.78-.31q-.74.24-1.34 1.55M261.25 274.04l1.97-.91q.44-.21.93-.18c6.52.35 11.16-2.97 16.65-5.76q3.95-2 6.54-4.52 4.48-4.37 8.18-9.47a1.09 1.07 15.3 01.79-.44c11.43-.82 16.03-11.62 19.12-21.3a.94.94 0 00-.75-1.22q-.64-.09-1.24.12"/><path stroke="#90908f" vector-effect="non-scaling-stroke" d="M208.73 256.02q-6.35-1.88-11.16-7.22a.61.61 0 00-1.06.51l.95 6.19"/><path stroke="#5a5b5c" vector-effect="non-scaling-stroke" d="M197.46 255.5l-.92 5.75"/><path stroke="#90908f" vector-effect="non-scaling-stroke" d="M196.54 261.25l-2.17 10.15a1.7 1.66-50.5 00.08.95q.8 2.07 2.96 3.52"/><path stroke="#5a5b5c" vector-effect="non-scaling-stroke" d="M197.41 275.87q1.4 1.7 3.84 2.28a1 .99-59.1 00.87-.22l1.09-.93"/><path stroke="#90908f" vector-effect="non-scaling-stroke" d="M203.21 277q2.39-2.97 3.83-6.5"/><path stroke="#5a5b5c" vector-effect="non-scaling-stroke" d="M207.04 270.5l2.88-1.55a1.18 1.18 0 01.94-.09c1.93.64 6.22-.35 8.14-.82"/><path stroke="#90908f" vector-effect="non-scaling-stroke" d="M219 268.04l.75-.08"/><path stroke="#5a5b5c" vector-effect="non-scaling-stroke" d="M219.75 267.96c3.37.12 7.16 1.75 8.96-2.46"/><path stroke="#90908f" vector-effect="non-scaling-stroke" d="M228.71 265.5l.71-4.28a.88.88 0 00-.73-1.02l-11.82-1.86"/><path stroke="#5a5b5c" vector-effect="non-scaling-stroke" d="M216.87 258.34c5.36-3.97 14.54-10.02 7.8-15.95q-.36-.32.1-.46c4.18-1.33 9.53-6.45 7.84-11.08q-1.93-5.25-7.71-5.61a.42.42 0 01-.32-.65l4.03-5.95q.37-.55-.29-.53c-5.06.14-7.32 3.7-10.91 8.03-1.64 1.98-.99 4.24 1.08 5.37 2.83 1.54 10.18-1.48 9.22 5.03a2.23 2.22 80.8 01-1.18 1.65c-3.38 1.73-8.13 2.83-10.22 6.21a.74.73 38.3 00.11.9l1.56 1.54a1.23 1.23 0 01.08 1.66q-3.91 4.7-9.33 7.52"/><path stroke="#c9cbcc" vector-effect="non-scaling-stroke" d="M216.87 258.34l-8.14-2.32M228.71 265.5c-6.7-3.28-12.31-5.96-19.8-6.78a.68.68 0 00-.35 1.3q6.33 2.77 11.92 6.79a.57.57 0 01.14.78q-.24.36-.87.37M219 268.04l-5.8.1a1.27 1.24 64.9 01-.86-.32c-1.92-1.76-3.98-6.84-6.75-6.12a.54.53-13.5 00-.39.63l1.84 8.17M203.21 277q-1.72-.79-.67-2.75"/><path stroke="#d6d6d7" vector-effect="non-scaling-stroke" d="M202.54 274.25q1.53-1.1.67-3"/><path stroke="#c9cbcc" vector-effect="non-scaling-stroke" d="M203.21 271.25c1.44-3.32-1.08-6.94-2.7-9.59a.72.72 0 00-1.33.47q.87 7.18-1.77 13.74M196.54 261.25q1.63-2.61.92-5.75"/><path stroke="#9fa2a4" vector-effect="non-scaling-stroke" d="M203.21 271.25q-.96 1.35-.67 3"/><path stroke="#5a5b5c" vector-effect="non-scaling-stroke" d="M287.62 222.82q2.19 5.21-1.35 9.74-.67.86.4.62c5.24-1.18 9.61-10.22 1.72-11.36a.73.72-7.4 00-.77 1"/><path stroke="#676767" vector-effect="non-scaling-stroke" d="M101.29 238.75q2.52 7.25 6.31 13.99a1.92 1.9 77.5 001.51.97c7.86.68 14.72 3.02 19.22 9.62 2.82 4.13 5.07 6.26 10.04 4.29q.73-.29.02-.65l-4.32-2.19q-.49-.25-.81-.7-4.58-6.4-11.85-9.55a.94.93 39.2 01-.17-1.63l1.48-1.03a.41.41 0 00-.17-.74l-12.49-2.02a1.85 1.85 0 01-1.07-3.08l5.75-6.26q.37-.4-.18-.39c-2.72.01-11.7 2.41-12.77-1.38"/><path stroke="#8e8f7f" vector-effect="non-scaling-stroke" d="M101.79 238q-.74-4.39 3-6.93.81-.55-.17-.64l-2.87-.29a1.51 1.48-19.5 01-.92-.43l-1.46-1.46a.75.74-47 01-.03-1.02l3.77-4.36q1.35-1.56-.22-.23l-4.3 3.65a.99.97-28 00-.31.98l3.01 11.48"/><path stroke="#d4d6c7" vector-effect="non-scaling-stroke" d="M101.79 238l-.5.75"/><path stroke="#5a5b5c" vector-effect="non-scaling-stroke" d="M255.96 228.58a3.2 3.2 0 00-3.2-3.2 3.2 3.2 0 00-3.2 3.2 3.2 3.2 0 003.2 3.2 3.2 3.2 0 003.2-3.2"/><path stroke="#676767" vector-effect="non-scaling-stroke" d="M303.97 236.18l2.44-4.71a.61.61 0 00-.23-.81q-4.15-2.42-8.71-3.8a.93.93 0 00-1.06 1.39c1.83 2.89 5.32 4.1 6.07 7.72a.8.8 0 001.49.21"/><path stroke="#5a5b5c" vector-effect="non-scaling-stroke" d="M491.04 264.25l2.38 4.25a.57.56-31.7 00.82.19q13.42-9.3 25.28-19.53"/><path stroke="#676767" vector-effect="non-scaling-stroke" d="M519.52 249.16c2.78-2.53 1.35-4.43-1.32-5.92q-11.86-6.63-23.34-13.62a.39.39 0 00-.59.3q-1.24 15.14-3.81 30.02-.47 2.76.58 4.31"/><path stroke="#9fa2a4" vector-effect="non-scaling-stroke" d="M519.52 249.16q-.24-3.05-1.6-3.83-9.31-5.33-18.3-11.17c-5.22-3.39-4.5 6.42-4.51 9.2-.01 6.68-2.14 13.09-2.31 19.91a.69.68 83.3 01-.51.65l-1.25.33"/><path stroke="#5a5b5c" vector-effect="non-scaling-stroke" d="M405.41 247.31c6.6-2.15 14.94-7.02 15.39-14.88a.45.45 0 00-.75-.37q-5.65 4.9-13.14 3.01c-2.81-.71-6.65-3.81-10.27-2.91q-.61.15-.17.61 5.89 6.05 8.28 14.19a.52.52 0 00.66.35"/><path stroke="#676767" vector-effect="non-scaling-stroke" d="M298.21 242.95c3.1.2 5.46-4.31 2.43-6.34q-3.45-2.3-7.24-1.95a.79.78 63.8 00-.46 1.36q2.92 2.71 4.5 6.38a.92.91 80.3 00.77.55"/><path stroke="#5a5b5c" vector-effect="non-scaling-stroke" d="M290.32 242.8l.97 4.38a.48.47 69.1 00.7.32l4.42-2.49a1.34 1.34 0 00-.01-2.35l-4.05-2.23a.82.81-53.7 00-.97.15l-1.66 1.73a.07.07 0 00.03.11l.32.1a.4.39-87.4 01.25.28"/><path stroke="#90908f" vector-effect="non-scaling-stroke" d="M185.62 244.53l-9.96-3.35q-.75-.25-.53.5c1.51 5.06 6.28 6.94 10.63 3.66a.47.46 35.5 00-.14-.81"/><path stroke="#8e8f7f" vector-effect="non-scaling-stroke" d="M169.5 253.04q6.98 3.05 14.5 4.17"/><path stroke="#90908f" vector-effect="non-scaling-stroke" d="M184 257.21q3.75.47 6.18-2.11a1.29 1.25-25.3 00.34-.91l-.1-2.65a.59.58 0 00-.57-.56q-2.52-.08-4.84.93a1.53 1.49-50 01-.88.09q-1.69-.37-2.88.79"/><path stroke="#5a5b5c" vector-effect="non-scaling-stroke" d="M181.25 252.79l-1.5 1.17"/><path stroke="#8e8f7f" vector-effect="non-scaling-stroke" d="M179.75 253.96q-2.99.8-4.5-1.75"/><path stroke="#5a5b5c" vector-effect="non-scaling-stroke" d="M175.25 252.21l-.96-1.96"/><path stroke="#90908f" vector-effect="non-scaling-stroke" d="M174.29 250.25c-.18-1.65-3.73-4.8-4.84-6.58a.49.49 0 00-.68-.16c-4.21 2.76-3.94 7.6.73 9.53"/><path stroke="#c9cbcc" vector-effect="non-scaling-stroke" d="M174.29 250.25l-2.58 1.5"/><path stroke="#fdffef" vector-effect="non-scaling-stroke" d="M171.71 251.75l-2.21 1.29"/><path stroke="#c7cabc" vector-effect="non-scaling-stroke" d="M179.75 253.96q.92 2.22 3.29 2.04M175.25 252.21q-1.99.86-3.54-.46"/><path stroke="#fdffef" vector-effect="non-scaling-stroke" d="M184 257.21l-.96-1.21"/><path stroke="#c9cbcc" vector-effect="non-scaling-stroke" d="M183.04 256l-1.79-3.21"/><path stroke="#676767" vector-effect="non-scaling-stroke" d="M287.35 247.61c-3.15-.59-6.18 2.29-3.55 4.83a.84.84 0 001.24-.09l2.77-3.54a.75.75 0 00-.46-1.2"/><path stroke="#5a5b5c" vector-effect="non-scaling-stroke" d="M428.59 256.56c-6.68 2.54-13.58.56-18.31-4.6q-1.35-1.48-3.09-1.74a.5.49 86.2 00-.55.63q2.3 7.85-.16 15.7a.53.52 8.5 00.51.68q13.23-.16 22.48-9.29a.84.84 0 00-.88-1.38M164.75 267.04q9.08 5.68 19.75 5.22"/><path stroke="#90908f" vector-effect="non-scaling-stroke" d="M184.5 272.26q3.44-3.6 4.97-7.98a.62.61-80.1 00-.57-.82q-3.68-.04-7.46-1.44-2-.74-2.98 1.73"/><path stroke="#5a5b5c" vector-effect="non-scaling-stroke" d="M178.46 263.75c-2.71-.84-5.72-1.07-7.75-3.25"/><path stroke="#90908f" vector-effect="non-scaling-stroke" d="M170.71 260.5q.2-1.07-.26-2a.95.94-5.3 00-.63-.52q-4.05-1.02-7.33-3.57a1.77 1.76-57.3 00-2.65.58q-4.37 8.39 4.91 12.05"/><path stroke="#c9cbcc" vector-effect="non-scaling-stroke" d="M170.71 260.5q-2.49 3.69-5.96 6.54M178.46 263.75l-.47 6.29a1.13 1.13 0 00.93 1.2l5.58 1.02"/><path stroke="#676767" vector-effect="non-scaling-stroke" d="M276.25 255.54q-.97 1.38-.55 3.14a.58.58 0 00.72.43q2.61-.72 4.22-2.97a.46.46 0 00-.22-.7l-.67-.23"/><path stroke="#5a5b5c" vector-effect="non-scaling-stroke" d="M279.75 255.21q-2.23-1.76-3.5.33"/><path stroke="#9fa2a4" vector-effect="non-scaling-stroke" d="M279.75 255.21l-3.5.33"/><path stroke="#676767" vector-effect="non-scaling-stroke" d="M112.5 269.21l-12.5 7.58"/><path stroke="#5a5b5c" vector-effect="non-scaling-stroke" d="M100 276.79q-13.74 8.55-27.63 16.86c-3.01 1.8-3.67 3.21-3.65 6.6q.09 12.15.71 24.29c.16 3.19 14.57 17.66 17.48 21.06a.46.45-42 00.66.03l2.86-2.67a1.43 1.42-45.4 00-.01-2.08c-3.98-3.65-15.93-14.51-16.1-19.44q-.5-14.7.49-21.39.88-5.96 7.45-7.13a1.52 1.51 52.6 01.94.13q4.45 2.11 8.19 5.35a.82.82 0 00.97.07q16.39-10.35 32.76-20.56 2.29-1.42 4.33-3.07a.39.38 44.2 00-.01-.61q-5.18-3.84-8.83-9.16a1.32 1.32 0 00-1.86-.32l-6.25 4.46"/><path stroke="#9fa2a4" vector-effect="non-scaling-stroke" d="M100 276.79c.44 1.26 1.51 1.49 2.62.79q5.17-3.25 10.04-6.95a.77.76-27.2 00.27-.81q-.1-.34-.43-.61"/><path stroke="#5a5b5c" vector-effect="non-scaling-stroke" d="M499.21 273.75q-2.57 2.02-5.68 2.86-.48.14-.96.01-2.15-.54-3.82.84"/><path stroke="#676767" vector-effect="non-scaling-stroke" d="M488.75 277.46q-8.52 6.08-16.8 12.49c-57.18 44.29-112.64 86.64-173.39 130.62-1.3.94-2.33 4.76-3.71 6.38q-3.1 3.62-7.18 6.21-9.49 5.99-18.44 12.7c-5.05 3.78-8.2 6.29-14.98 6.1"/><path stroke="#5a5b5c" vector-effect="non-scaling-stroke" d="M254.25 451.96q-3.82-1.36-6.96-3.96"/><path stroke="#90908f" vector-effect="non-scaling-stroke" d="M247.29 448q-10.11-10.71-21.59-20.01a1.64 1.61-79.8 01-.54-.79c-1.08-3.42-1.42-5.54-4.24-8.09-40.6-36.74-81.59-73.07-121.89-110.14q-.72-.66-1.64-1.1a1.42 1.39-39.1 00-.96-.09q-1.8.48-3.64-.15-.44-.15-.76-.49-3.81-3.98-8.42-7-.67-.44-.46.33 3.18 11.84.25 23.67c-.47 1.93-.02 3.12 1.21 4.5q5.06 5.68 10.51 11c47.05 45.95 94.12 92.13 142.46 136.73 2.38 2.2 4.77 5.27 7.56 7.67"/><path stroke="#5a5b5c" vector-effect="non-scaling-stroke" d="M245.14 484.04q.54 1.18 1.66 1.94a.74.73 44.2 00.83-.01c15.59-11.31 32.03-21.54 47.4-32.94q100.52-74.54 197.99-153.02 11.07-8.91 22.29-18.39a1.04 1.04 0 00.16-1.43c-2.68-3.51-3.01-8.7-3.72-12.98"/><path stroke="#676767" vector-effect="non-scaling-stroke" d="M511.75 267.21q.29-.89.13-1.72a.35.35 0 00-.55-.22l-12.12 8.48"/><path stroke="#9fa2a4" vector-effect="non-scaling-stroke" d="M511.75 267.21c-1.41.87-2.85 1.05-4.11 2.06q-3.48 2.77-6.87 5.68a.8.79 37 01-.86.12q-.75-.34-.7-1.32"/><path stroke="#c9cbcc" vector-effect="non-scaling-stroke" d="M245.14 484.04q-.17-2.42-1.35-4.56a.56.56 0 01.17-.73q17.11-12.02 34.13-24.17c10.1-7.2 19.79-14.98 29.58-22.67q4.22-3.31 8.17-7.01.38-.35-.07-.09-4.62 2.62-7.72 4.75-22.73 15.68-63.71 44.36a.5.49-34.7 01-.69-.12c-1.42-2.02-2.58-3.67-4.49-5.36-8.18-7.21-14.79-13.16-24.18-21.96-1.52-1.43-14.12-12.46-14.16-13.06a.54.54 0 01.84-.49q9.31 6.33 17.72 13.5c8.08 6.88 14.96 12.13 22.44 18.24a.55.55 0 00.75-.05c2.15-2.36-7.01-9.84-8.71-11.45q-5.01-4.73-8.34-8.23-21.4-22.47-45.99-44.97-6.35-5.81-12.29-13.54-.33-.42.14-.17 2.09 1.09 4.78 3.58c16.61 15.44 37.8 32.47 55.41 50.18q8.02 8.07 16.62 15.46a.31.3-65.6 00.5-.19q.59-3.93 2.6-7.29"/><path stroke="#9fa2a4" vector-effect="non-scaling-stroke" d="M254.25 451.96q-1.08.07-1.34 1a.47.46 12.5 00.38.59c10.22 1.63 14.34-4.88 21.74-9.82 6.29-4.2 12.55-8.08 19.33-13.52 2.62-2.1 3.66-4.88 5.85-7.45q1.58-1.84 5.53-4.4c4.06-2.62 7.87-6.45 11.21-8.91q19.1-14.01 38.7-27.3 1.1-.75 2.15-1.84c2.15-2.22 4.96-3.5 7.3-5.52q4.22-3.66 4.77-4.08 18-13.67 35.9-27.45 12.84-9.89 20.57-14.82c2.55-1.63 4.6-4.16 7.1-6.04 5.21-3.91 10.04-8.49 15.09-12.11q18.56-13.32 36.24-27.77c1.89-1.54 4.65-2.21 6.47-4.42q.37-.44-.21-.48l-2.28-.16"/><path stroke="#5a5b5c" vector-effect="non-scaling-stroke" d="M160.25 281.29q5.7 4.83 13.25 4.17"/><path stroke="#90908f" vector-effect="non-scaling-stroke" d="M173.5 285.46c4.78 1.06 8.07-2.67 9.37-6.82a.42.42 0 00-.31-.53l-6.27-1.42a.7.68 24.3 00-.69.25l-1.6 2.1"/><path stroke="#5a5b5c" vector-effect="non-scaling-stroke" d="M174 279.04c-3.42-1.28-7.07-.53-9.21-4.29"/><path stroke="#90908f" vector-effect="non-scaling-stroke" d="M164.79 274.75l-1.02-2.31a1.23 1.22-3.6 00-.78-.68q-3.05-.88-5.52-2.78a.56.56 0 00-.88.29l-1.7 6.09a1.29 1.26-53.5 00.14 1.01q1.98 3.17 5.22 4.92"/><path stroke="#c9cbcc" vector-effect="non-scaling-stroke" d="M164.79 274.75q-2.69 2.98-4.54 6.54M174 279.04l-.5 6.42"/><path stroke="#5a5b5c" vector-effect="non-scaling-stroke" d="M395.8 287.4q14.66 3.66 27.75-3.58a.57.57 0 00-.31-1.06c-4.36.27-10.81.27-13.22-4.13-1.76-3.21.71-5.95-3.9-8.26a.51.51 0 00-.72.31q-2.73 9.35-9.8 15.98a.44.44 0 00.2.74"/><path stroke="#676767" vector-effect="non-scaling-stroke" d="M517.43 275.22c1.36 2.07 4.27 3.48 5.14 5.47a.74.74 0 01-.18.83q-10.9 9.95-22.37 19.24-2.35 1.91-3.44 5.04a.55.55 0 00.86.61l29.86-24.06a1.68 1.67-44.9 00.01-2.6q-4.23-3.45-9.3-5.27a.5.49 83.2 00-.58.74"/><path stroke="#5a5b5c" vector-effect="non-scaling-stroke" d="M253.87 281.3q1.26-2.21.01-5.16-.42-1-.53.08l-.47 4.51a1.84 1.84 0 01-2.29 1.59q-2.31-.59-3.53-2.65-1.01-1.7-.44.42 1.22 4.5-1.65 8.18a.53.52 1.3 00.72.75c2.72-1.9 6.77-5.27 8.18-7.72"/><path stroke="#8e8f7f" vector-effect="non-scaling-stroke" d="M234.04 286.75l-.03 3.72"/><path stroke="#5a5b5c" vector-effect="non-scaling-stroke" d="M234.01 290.47c-1.51 3.6-11.03-3.9-13.27-5.89q-.5-.45-.58.22l-.39 3.53a.86.85 9.9 01-1.05.73q-3.31-.77-6.61-.4c-2.16.25-3.42-.96-5.84-.31q-4.07 1.09-8.11-.71a.39.39 0 00-.47.58c1.37 1.95 5.01 5.9 7.72 4.59 7.63-3.68 17.19-.87 24.16 3.43a.69.69 0 00.8-.05q.64-.53 1.12-.66 6.6-1.75 12.06-5.69a.29.29 0 00-.04-.5q-4.36-2.2-7.15-6.24-.32-.46-.82-.71l-1.6-.81q-.33-.17-.3.21l.4 4.96"/><path stroke="#c7cabc" vector-effect="non-scaling-stroke" d="M234.01 290.47q2.35.01 1.68-3.02-.24-1.07-1.65-.7"/><path stroke="#5a5b5c" vector-effect="non-scaling-stroke" d="M155.75 291.54q7.13 6.14 16.54 4.51"/><path stroke="#90908f" vector-effect="non-scaling-stroke" d="M172.29 296.05q2.57-1.72 3.09-4.48a.59.58-75.4 00-.39-.67q-3.5-1.19-6.34 1.01"/><path stroke="#5a5b5c" vector-effect="non-scaling-stroke" d="M168.65 291.91q-6.17.36-9.14-4.89"/><path stroke="#90908f" vector-effect="non-scaling-stroke" d="M159.51 287.02q-2.15-2.38-5.33-3a.57.56-75.8 00-.65.39q-1.4 4.37 2.22 7.13"/><path stroke="#c9cbcc" vector-effect="non-scaling-stroke" d="M159.51 287.02q-.32 3.4-3.76 4.52M168.65 291.91q-.24 3.66 3.64 4.14"/><path stroke="#5a5b5c" vector-effect="non-scaling-stroke" d="M257.06 287.72a.6.6 0 00.46.97l4.45.11a.6.6 0 00.5-.95l-2.16-2.96a.6.6 0 00-.95-.02l-2.3 2.85M374.02 303.83c8.05 4.34 19.44 7.53 28.11 3.5a.28.28 0 00-.07-.53c-4.74-.78-8.11-1.84-9.79-6.81a1.13 1.1-40.1 01.09-.91c1.43-2.54 3.53-7.1 1.03-9.56a.5.49 43 00-.71.02c-6.32 7-11.57 9.64-18.67 13.55a.42.42 0 00.01.74M257.04 310c7.12-8.47 15.63-4.57 23.76-4.21a.63.63 0 00.32-1.19q-7.76-4.02-13.83-10.6"/><path stroke="#676767" vector-effect="non-scaling-stroke" d="M267.29 294l-2.09-2.39a.57.56 49.9 00-.78-.07c-6 4.77-11.31 11.01-9.64 19.66a.53.52-28.7 00.9.26l1.36-1.46"/><path stroke="#9fa2a4" vector-effect="non-scaling-stroke" d="M267.29 294q-.22.94-.92 1.31a1.03 1.02-46.7 01-.87.03l-1.32-.57a.87.85-54.6 00-.94.17c-3.44 3.29-9.63 10.02-6.2 15.06"/><path stroke="#90908f" vector-effect="non-scaling-stroke" d="M152.54 296.25q.01 2.13.96 4.04"/><path stroke="#676767" vector-effect="non-scaling-stroke" d="M153.5 300.29q1.93 3.07 4.96 4.94a1.37 1.36-34.1 00.95.18l6.59-1.12"/><path stroke="#90908f" vector-effect="non-scaling-stroke" d="M166 304.29q2.18-.87 3.08-3.01a.46.46 0 00-.33-.63l-3.77-.79a.67.66-67.4 00-.69.29l-1.08 1.6"/><path stroke="#676767" vector-effect="non-scaling-stroke" d="M163.21 301.75q-4.13.91-5.5-3"/><path stroke="#90908f" vector-effect="non-scaling-stroke" d="M157.71 298.75V297"/><path stroke="#5a5b5c" vector-effect="non-scaling-stroke" d="M157.71 297q-2.18-1.31-4.68-1.63a.42.42 0 00-.48.41l-.01.47"/><path stroke="#c9cbcc" vector-effect="non-scaling-stroke" d="M157.71 297l-5.17-.75"/><path stroke="#d6d6d7" vector-effect="non-scaling-stroke" d="M157.71 298.75q-1.83 1.73-4.21 1.54M163.21 301.75q.18 2.68 2.79 2.54"/><path stroke="#5a5b5c" vector-effect="non-scaling-stroke" d="M344.08 312.95c5.84 8.04 14.18 12.71 24.22 12.4a.37.37 0 00.14-.71q-7.89-3.64-4.4-10.68c1.38-2.8 6.54-4.76 6.06-8.1a.41.4 74.3 00-.55-.32c-8.75 3.68-15.66 6.17-25.26 6.96q-.51.04-.21.45M286.54 326.94a.8.8 0 001.35-.6c-.08-6.29 5.27-10.42 11.01-9.85q4.27.42 8.22-1.4a1.13 1.13 0 00-.35-2.15q-11.29-1.22-21.06-6.7a.69.68-54.7 00-.86.15q-.99 1.13-1.83 3.5-3.66 10.3 3.52 17.05"/><path stroke="#90908f" vector-effect="non-scaling-stroke" d="M153.17 307.63c-.37 8.09 3.44 8.26 7.77 2.75a.33.33 0 00-.19-.53q-3.71-.75-7.09-2.5a.34.34 0 00-.49.28"/><path stroke="#5a5b5c" vector-effect="non-scaling-stroke" d="M313.01 314.04c-.41 9.44 5.79 15.48 14.19 18.32q.49.17.37-.33c-.41-1.62-1.4-3.14-1.53-4.63-.88-9.89 11.47-6.54 13.55-13.37a.33.33 0 00-.36-.42q-12.85 1.75-25.7-.01a.46.46 0 00-.52.44"/><path stroke="#676767" vector-effect="non-scaling-stroke" d="M270.75 416.71q-16.73.31-33.44.33c-2.77 0-5.42.98-7.29 2.74a1.67 1.66-46.6 00.07 2.48q8.46 7.12 16.21 14.55c6.17 5.92 9.75 11.07 17.34 4.89q8.09-6.59 14.9-10.95"/><path stroke="#5a5b5c" vector-effect="non-scaling-stroke" d="M278.54 430.75c2.52-1.44 15.24-8.41 12.29-12.22-2.05-2.66-16.72-2.08-20.08-1.82"/><path stroke="#9fa2a4" vector-effect="non-scaling-stroke" d="M278.54 430.75q.27-1.01-.29-1.52a.84.82-34.7 00-.86-.15c-5.97 2.4-11.11 7.47-15.95 11.61q-1.87 1.61-5.17 1.83a1.23 1.2 63.7 01-.88-.31q-3.84-3.47-7.83-6.76c-5.27-4.35-10.51-9.77-16.25-14.17a.5.49 50.7 01.08-.84l4.33-2.15q.47-.24 1-.23 17.78.29 35.56.28c.74 0 1.04-.28 1-1.03a.56.56 0 00-.54-.54l-1.99-.06"/><path stroke="#676767" vector-effect="non-scaling-stroke" d="M227.73 479.56q8.98 8.51 17.33 17.62 1.16 1.26 4.87 1.32a1.81 1.74-58.7 00.94-.25c10.1-6.01 18.09-14.38 27.77-20.89q3.63-2.45 3.05-7.22a.55.55 0 00-.86-.39l-33.26 23.09a1.52 1.52 0 01-2.03-.27c-6.77-8.08-15.42-14.57-21.96-22.38a.47.46-63.6 00-.82.28c-.22 4.5 2.02 6.3 4.97 9.09"/><path stroke="#90908f" vector-effect="non-scaling-stroke" d="M186.253 221.17a3.39 2.39-38.5 00-4.14.24 3.39 2.39-38.5 00-1.166 3.98 3.39 2.39-38.5 004.14-.24 3.39 2.39-38.5 001.166-3.98M192.901 228.815a3.24 2.23 69 00.92-3.824 3.24 2.23 69 00-3.242-2.226 3.24 2.23 69 00-.92 3.824 3.24 2.23 69 003.242 2.226"/><path stroke="#c9cbcc" vector-effect="non-scaling-stroke" d="M151.04 239.56c-.58-1.24-12.74-7.4-14.8-8.54q-2.65-1.46-5.21-1.27a.76.76 0 00-.7.77l.03 2.84a.91.91 0 00.59.84q9.58 3.68 19.59 5.98a.44.44 0 00.5-.62"/></g><path d="M0 0h590.06l.19.29v589.15a.57.56-3.4 01-.5.56q-2.05.23-5.06.23-291.72.06-583.44-.02L0 589.94V0zm586.25 4.52a.27.27 0 00-.27-.27H4.52a.27.27 0 00-.27.27v581.46a.27.27 0 00.27.27h581.46a.27.27 0 00.27-.27V4.52z"/><path fill="#21201f" d="M590.06 0h.94v591h-.31V.49a.19.19 0 00-.18-.19l-.26-.01-.19-.29z"/><path fill="#fbfedf" d="M590.25.29l.26.01a.19.19 0 01.18.19V591h-2.5q-3.63-.63-7.25 0H24.44q-5.38-.63-10.75 0h-1.5l-11.44-.48q-.5-.02-.02-.16l.52-.15q291.72.08 583.44.02 3.01 0 5.06-.23a.57.56-3.4 00.5-.56V.29z"/><path fill="#fbfedf" d="M586.25 585.98a.27.27 0 01-.27.27H4.52a.27.27 0 01-.27-.27V4.52a.27.27 0 01.27-.27h581.46a.27.27 0 01.27.27v581.46zM133.654 16.42a1.31.61 26.3 00-.904-1.127 1.31.61 26.3 00-1.444-.033 1.31.61 26.3 00.904 1.127 1.31.61 26.3 001.444.033zM98.79 32.7a.88.86-29.6 00-.34-.09q-18.16-.35-36.59-.56-8.42-.1-12.05 1.24c-6.59 2.44-10.87 7.73-11.47 14.88-1.26 15.04-.87 30.09-.82 45.11a.58.58 0 00.94.45q5-3.99 9.73-8.54c17.45-16.79 34.74-33.83 51.92-50.9a.62.62 0 00-.16-.99l-1.16-.6zm239.323 84.312a1.54 1.54 0 00-1.644-1.43l-3.75.263a1.54 1.54 0 00-1.43 1.644l.018.26a1.54 1.54 0 001.644 1.428l3.75-.262a1.54 1.54 0 001.43-1.644l-.018-.26zM185.5 196.96q-2.02 2.09-1.98 5.01a.49.49 0 00.54.48c2.39-.22 1.58-3.32 2.69-4.74 2.55 1.57 1.37 4.57-.9 5.33-2.57.86-5.38-.61-7.99 1.29q-3.72 2.71-6.34 7.99-.22.44-.43-.01-3.46-7.38-8.2-14.1-2.41-2.07-4.14-4.92c-5.39-5.89-10.76-11.97-16.7-17.32-3.59-3.23-5.85-6.13-10.55-9.26l-4.47-3.99a.81.81 0 00-1.26.24q-4.64 9.16-6.29 19.31a.57.57 0 01-.56.48h-.66a.57.56-81.4 01-.54-.74l.56-1.75a.32.32 0 00-.22-.41l-2.37-.69a.71.71 0 00-.88.51q-.77 3.15.31 6.23a1.25 1.24 84.4 01-1.35 1.65l-2.54-.37a.42.42 0 00-.48.47q.1.74.65 1.34a1.73 1.66 20 01.43.88c.45 2.64 1.5 4.95 1.9 7.59q.48 3.28 1.81 6.35a.08.08 0 01-.04.11l-.25.08a.19.18 53.2 01-.17-.03l-2.04-1.69q-.96-.79-.87.45.49 7.07 5.04 12.27 1.46 5.84 6.82 8.07a.53.53 0 01.3.66q-.49 1.4-1.09 2.78c-5.37 12.25 6.39 15.65 12.72 22.37a1.76 1.72 17.9 01.44.84c1.79 8.84-.98 13.62 11.49 12.3a.33.32 7.3 01.34.43c-2 5.26-7.27.62-9.98-1.14q-.45-.29-.71-.76-3.1-5.7-9.48-6.9-2.24-.42-1.02-2.35l1.88-2.95a.57.57 0 00-.39-.87l-13.88-2.22q-.57-.09-.14-.46l5.28-4.56a1.29 1.29 0 00-.27-2.13q-4.63-2.31-9.8-2.75a.7.7 0 01-.18-1.36q3.88-1.44 5.64-5.16a.72.71 15.4 00-.58-1.01l-9.44-.94q-2.05-.21-.43-1.47l9.18-7.16a.49.48 52.8 00.09-.67l-5.29-7.09.42-.69a1.11 1.08-35.4 00.15-.81l-2.36-11.73a.6.6 0 01.6-.71l3.14.07q.67.02.25-.51l-1.23-1.54q-.34-.43-.47-.96l-2.66-11.56a.67.67 0 01.39-.77l2.86-1.19q.52-.21.88-.64l3.24-3.82a1.39 1.35 17.3 01.92-.47l2.4-.21a.88.88 0 00.78-.7l2.93-14.74a1.23 1.22-56.5 00-.18-.92q-.77-1.15-2.27-1.06l-1.46-.29c-.18-4.56-17.39-8.27-21.03-8.74-10.14-1.31-12.05 2.3-14.02 10.78-1.66 7.14-.14 13.71 4.44 19.38a1.33 1.31 26.7 01.3.89c-.39 10.07 3.11 34 16.35 34.92a.41.41 0 01.14.79c-6.59 3.01-11.72 7.78-10.65 15.73 1.16 8.58 4.56 19.5 10.8 25.85 2.42 2.46 5.19 2.88 8.41 3.87q.48.15.06.42c-11 7.17-22.62 13.27-33.51 20.52-4.78 3.18-14.37 7.1-14.36 13.84 0 5.33-1.22 29.86 1.29 32.99q3.83 4.77 18.26 20.5 3.07 3.35 8.27 1.84a.89.88 57.4 01.84.19q6.57 5.88 16.43 16.17 13.64 14.23 64.6 64.01c14.24 13.91 28.17 28.12 42.23 42.22a1.79 1.79 0 01.47.83q1.46 5.57 3.04 7.08 10.33 9.92 20.37 20.1c4.01 4.07 8.01 6.27 13.16 3.27 9.72-5.65 18.15-13.76 30.27-22 3.35-2.27 4.14-7.12 7.86-9.93 30.76-23.27 61.95-46.15 92.26-70q54.64-43.02 108.54-86.95c.4-.33 1.3-.7 1.8-1.02a1.77 1.73 28.6 01.92-.26c6.99.11 21.88-14.96 29.34-20.42 8.69-6.34 19.8-13.34 4.2-21.97q-5.49-3.04-10.93-6.1a1 1 0 01-.5-.75c-.67-6.04 4.48-8.66 8.35-12.27 3.98-3.7 5.14-10.46-.27-13.57-10.11-5.79-20.82-12.43-31.54-16.82a1.82 1.82 0 00-.97-.11l-3.15.46a1.56 1.52-34 01-.99-.18l-135.19-75.48a1.66 1.62 4.6 01-.72-.83l-1.63-4.12a1.72 1.71 5.9 00-.66-.81c-13.67-8.87-23.22-8.55-36.98-.63q-42.77 24.63-85.22 49.82c-6.97 4.14-13.88 6.69-21.31 9.54a.51.5-13.9 01-.68-.4l-.38-2.79a1.5 1.46 18.4 00-.45-.87q-5.17-4.91-12.38-5.02a1.5 1.48-63.3 00-.95.32l-2.6 2.05a1.52 1.52 0 01-2.4-.75q-2.94-9.64-10.85-16.28c-3.63-3.05-7.97 2.57-4.44 5.17 5.36 3.96 12.63 8.28 14.22 15.23zm-37.92-40.2q-1.12 6.04-2.59 12c-.2.82.19 1.39 1.07 1.23a1.1 1.1 0 00.9-1.23c-.67-4.93 1.69-8.68.86-13.74q-.11-.64-.3-.02-.13.42 0 .83.15.46.06.93z"/><ellipse fill="#acadae" transform="rotate(26.3 32.34 291.448)" rx="1.31" ry=".61"/><path fill="#fae5ab" d="M98.79 32.7l1.16.6a.62.62 0 01.16.99C82.93 51.36 65.64 68.4 48.19 85.19q-4.73 4.55-9.73 8.54a.58.58 0 01-.94-.45c-.05-15.02-.44-30.07.82-45.11.6-7.15 4.88-12.44 11.47-14.88q3.63-1.34 12.05-1.24 18.43.21 36.59.56a.88.86-29.6 01.34.09z"/><rect fill="#929699" x="-3.42" y="-1.67" transform="rotate(-4 1848.017 -4733.73)" width="6.84" height="3.34" rx="1.54"/><path fill="#21201f" d="M117.04 157.25l-1.5 7.75-.35 5.97a.28.28 0 01-.42.22q-3.02-1.74-6.63-.85c-2.71.67-3.1 7.97-3.63 10.45a1.83 1.78 42.1 00.06.95q1.93 5.44.37 10.81-2.97 2.59-2.43 6.2.65 4.34 3.03 8l3.17 3.75 5.29 7.09a.49.48 52.8 01-.09.67l-9.18 7.16q-1.62 1.26.43 1.47l9.44.94a.72.71 15.4 01.58 1.01q-1.76 3.72-5.64 5.16a.7.7 0 00.18 1.36q5.17.44 9.8 2.75a1.29 1.29 0 01.27 2.13l-5.28 4.56q-.43.37.14.46l13.88 2.22a.57.57 0 01.39.87l-1.88 2.95q-1.22 1.93 1.02 2.35 6.38 1.2 9.48 6.9.26.47.71.76c2.71 1.76 7.98 6.4 9.98 1.14a.33.32 7.3 00-.34-.43c-12.47 1.32-9.7-3.46-11.49-12.3a1.76 1.72 17.9 00-.44-.84c-6.33-6.72-18.09-10.12-12.72-22.37q.6-1.38 1.09-2.78a.53.53 0 00-.3-.66q-5.36-2.23-6.82-8.07.01-3.24 1.75-4.04a2.02 2.02 0 00.96-2.75q-5.89-11.59-.88-23.73.23-.56.49-.02l2.83 5.71q.28.56.46-.04.25-.79.18-1.66-.04-.51.07-.99l1.89-7.73q1.35-5.79 4.87-11.16l1.67-1.88c4.7 3.13 6.96 6.03 10.55 9.26 5.94 5.35 11.31 11.43 16.7 17.32l-.64 7.49a.35.34-74.4 01-.49.28c-11.74-5.45-14.91 4.8-10.65 13.32a.8.79-38.6 01-.1.86q-.4.47-1.12.3c-6.43-.27-5.46 7.3-4.58 11.03l.83 5.72q-5.32-3.45-11.24-5.88a.5.49-67.8 00-.65.28c-4.36 10.91 4.84 10.01 9.18 15.56l2.16 3.08q.62 4.29-.45 9.17-.6 2.76 2.25 3.04 2.21 1.7 4.75.5l3.63-1.26a1.15 1.12-89.8 00.7-.71q3.65-11.01 12.35-18.62a.26.26 0 00-.2-.46q-7.56.7-15.04-1.24c.89-2.47-1.1-9.67-1.36-12.74a.47.46-2.9 01.46-.5l2.93-.04a1.5 1.49-10.3 001.39-2q-1.65-4.55-3.9-8.48c-1.15-1.99-1.06-3.94.81-5.25a1.42 1.4-60.2 01.93-.26c2.83.21 5.97 2.45 8.87 4.38a.78.78 0 00.85.01c4.1-2.49 2.09-8.44 2.47-12.66q4.74 6.72 8.2 14.1.21.45.43.01 2.62-5.28 6.34-7.99c2.61-1.9 5.42-.43 7.99-1.29 2.27-.76 3.45-3.76.9-5.33l-1.25-.75c-1.59-6.95-8.86-11.27-14.22-15.23-3.53-2.6.81-8.22 4.44-5.17q7.91 6.64 10.85 16.28a1.52 1.52 0 002.4.75l2.6-2.05a1.5 1.48-63.3 01.95-.32q7.21.11 12.38 5.02a1.5 1.46 18.4 01.45.87l.38 2.79a.51.5-13.9 00.68.4c7.43-2.85 14.34-5.4 21.31-9.54q42.45-25.19 85.22-49.82c13.76-7.92 23.31-8.24 36.98.63a1.72 1.71 5.9 01.66.81l1.63 4.12a1.66 1.62 4.6 00.72.83l135.19 75.48a1.56 1.52-34 00.99.18l3.15-.46a1.82 1.82 0 01.97.11c10.72 4.39 21.43 11.03 31.54 16.82 5.41 3.11 4.25 9.87.27 13.57-3.87 3.61-9.02 6.23-8.35 12.27a1 1 0 00.5.75q5.44 3.06 10.93 6.1c15.6 8.63 4.49 15.63-4.2 21.97-7.46 5.46-22.35 20.53-29.34 20.42a1.77 1.73 28.6 00-.92.26c-.5.32-1.4.69-1.8 1.02q-53.9 43.93-108.54 86.95c-30.31 23.85-61.5 46.73-92.26 70-3.72 2.81-4.51 7.66-7.86 9.93-12.12 8.24-20.55 16.35-30.27 22-5.15 3-9.15.8-13.16-3.27q-10.04-10.18-20.37-20.1-1.58-1.51-3.04-7.08a1.79 1.79 0 00-.47-.83c-14.06-14.1-27.99-28.31-42.23-42.22q-50.96-49.78-64.6-64.01-9.86-10.29-16.43-16.17a.89.88 57.4 00-.84-.19q-5.2 1.51-8.27-1.84-14.43-15.73-18.26-20.5c-2.51-3.13-1.29-27.66-1.29-32.99-.01-6.74 9.58-10.66 14.36-13.84 10.89-7.25 22.51-13.35 33.51-20.52q.42-.27-.06-.42c-3.22-.99-5.99-1.41-8.41-3.87-6.24-6.35-9.64-17.27-10.8-25.85-1.07-7.95 4.06-12.72 10.65-15.73a.41.41 0 00-.14-.79c-13.24-.92-16.74-24.85-16.35-34.92a1.33 1.31 26.7 00-.3-.89c-4.58-5.67-6.1-12.24-4.44-19.38 1.97-8.48 3.88-12.09 14.02-10.78 3.64.47 20.85 4.18 21.03 8.74zM289 162.46q-28.6 16.54-56.81 33.73-1.56.95-1.63 2.7l-1.72 2.53a.84.83 21.1 01-.8.35c-5.92-.78-8.5 1.82-12.67 4.54-2.46 1.61-6.05 2.97-8.81 5.13a.67.67 0 00-.22.74q2.06 6.27.67 12.78a.41.41 0 00.6.44l7.64-4.19 34.79-21.46 89.65-53.57a1.61 1.61 0 00.02-2.75q-9.7-5.94-19.77.53-6.49 4.18-30.94 18.5zm-188.35-4.66c-.92-1.37-7.57-2.82-9.49-3.4a.59.58-71.7 00-.71.36l-1.82 5.04a.37.36-81.1 00.35.49c2.22-.08 4.46-1.01 6.3-1.17q2.35-.2 4.72-.14 1.47.05.65-1.18zm9.54 1.59l-2.51-1.69a.93.92 45.3 00-1.02-.01c-3.21 2.08-5.88 8.34-1.81 11.1q.56.38.57-.3.03-5.66 4.76-8.67a.26.26 0 00.01-.43zm-12.81 5.54q-3.69-2.39-8.08-2.51a.81.81 0 00-.79.54q-.97 2.7-.05 5.38a.57.57 0 00.76.34q3.56-1.55 7.5-1.53a1.21 1.21 0 00.66-2.22zm-2.16 6.4q-2.86-1.82-6.18-1.12a.61.61 0 00-.44.84l2.06 4.79a1.05 1.04-31.5 001.63.39l3.08-2.55a1.46 1.46 0 00-.15-2.35zm-.23 8.22q-1.74-1.3-1.74.87v4.74a.52.52 0 00.64.5c3.71-.88 4.12-3.84 1.1-6.11zm39.07 10.588a3.41 3.23 85.3 002.94-3.663 3.41 3.23 85.3 00-3.5-3.133 3.41 3.23 85.3 00-2.94 3.663 3.41 3.23 85.3 003.5 3.133zm-38.78.202a1.04 1.03 12.8 00-1.67 1.05l1.01 3.83q.29 1.11 1.07.27l1.99-2.11a.74.74 0 00-.06-1.06l-2.34-1.98zm239.9 12.86c-2.7 4.37-6.8 5.22-11.29 7.23a.69.68-59.3 00.33 1.31q11.09-.93 22.13-.05a.74.73 84.4 00.76-.93q-2.9-10.08-13.03-12.85a.48.47 85.1 00-.55.66l1.71 3.66a1.03 1.03 0 01-.06.97zm33.16-1.03c-2.87 10.16-9.53 5.46-15.66 8.84q-2.21 1.23.3 1.52 9.96 1.15 19.1 5.32a.74.73-64.3 00.96-.34q4.98-9.83-3.83-15.67a.58.58 0 00-.87.33zm-165.271 7.87a3.29 2.82 100 003.348-2.75 3.29 2.82 100 00-2.206-3.73 3.29 2.82 100 00-3.348 2.75 3.29 2.82 100 002.206 3.73zm99.731-2.15c1.29 3.94-2.25 6.49-5.52 7.52a1.72 1.72 0 00-1.07 2.3c.27.67.73.93 1.46.65q9.86-3.81 20.42-5.26a.69.68-19.4 00.5-1.03c-3.65-5.97-13.46-8.54-20.18-8.52a.36.36 0 00-.06.71q3.47.63 4.45 3.63zm-115.48 26.08l1.75-1.84a.96.95 30.5 01.98-.25c6.67 2.15 10.46-4.98 9.37-10.47q-.62-3.12-3.14-5.39c-7.82-7.05-19.15-3.4-20.24 7.2-.39 3.78 3.4 4.48 5.81 5.81a1.05 1.04 9.2 01.53.73c.82 4.65-3.95 4.56-6.93 5.61a.4.39-28.2 00-.19.61q2.77 3.66 7.09 2.37a.91.9-30.3 01.91.23q2.53 2.59 6.27 2.36 1.63-.1.48-1.27-1.96-1.99-2.92-4.61a1.04 1.04 0 01.23-1.09zm211.01-19.85c-4.48 7.64-14.22 4.57-21.33 4.2a.43.43 0 00-.44.51c.16.8 6.04 3.13 7.28 4.05q4.74 3.49 9.18 7.37a.57.57 0 00.74.01c5.35-4.52 8.12-9.67 5.81-16.77a.41.39 70.7 00-.52-.26c-.57.21-.47.47-.72.89zm-159.82 48.7q-2-.52-2.55 3.18-1.3 1.23-1.67 3-1.49 3.05-5.25 5.05c-5.17 2.75-7.3 1.22-12.29.66q-3.46-1.05-6 1.25l-1 .33q-1.76 1.04-2.46 2.96c-3.85 6.41-9.28 2.98-13.49-.39q-.62-.49-.58.3l.11 1.96a.85.84 10.5 00.5.72c3.99 1.74 6.97 2.19 11.42 1.03q4.24-1.11 8.39.7c2.57 1.11 5.66-1.31 3.64-3.52a.43.42-38.2 01.08-.65c1.51-.93 10.64 5.08 12.76 6.43a.28.28 0 00.42-.31c-.73-2.85-1.9-5.79-.99-8.93a.36.36 0 01.44-.25q.15.04.26.2.99 1.83 3.25 1.17l6.25 3.08q.75.51 1.51.37a.54.54 0 00.43-.63l-1.42-7.81 7.25 3.33a2.01 1.94 83.8 01.79.66q.93 1.32 2.64 1.23a.44.44 0 00.37-.63q-1.5-3.03-1.61-6.31l-.47-3.99a.54.54 0 00-.5-.48l-.45-.03q.57-1.71 2.64-2.15c4.76-1.42 11.15-1.99 14.89-4.49 2.73-1.82 7.4-5.58 5.76-9.46a.78.77-35.8 01.14-.82c1.91-2.1 3.13-4.33 5.23-6.26 3.08-2.83 7.45-7.37 5.5-11.59a1.45 1.41 1.6 00-.68-.7l-5.3-2.61a.76.76 0 01-.16-1.25q5.44-4.78 8.15-11.43a.56.56 0 00-.27-.71q-1.37-.71-2.57-.41l-7.41-.77-6.48.26a.59.59 0 00-.57.58c-.19 8.43-3.43 15.57-7.4 22.74q-.26.48.27.36 2.91-.62 4.96-2.73a.32.32 0 01.53.33c-1.88 4.9-4.33 10.78-8.77 13.91q-3.92 2.76-8.11 5.17a.93.92-13.6 00-.46.74q-.44 8.86-9.67 7.61zm74.93-32.46c-2.78 10.16-7.37 19.59-18.27 21.3a1.06 1.04-77.8 00-.74.49c-.32.52-.33.74-.78 1.18-7.17 6.96-21.27 20.74-32.38 17.32a.36.36 0 00-.46.39l.44 3 1.36 5.25q12.27 21.03 35.89 27.75 36.7 9.88 71.05-6.01 5.87-2.72 10.95-6.74 5.91-4.31 10.89-9.63c12.43-13.28 14.61-33.3 2.62-47.67q-8.86-10.63-22.74-16.02c-16.4-7.01-35.26-7.9-53.1-5.14-5.15.8-10.27 2.45-15.42 3.99q-.48.14-.07.42 6.17 4.26 10.76 10.12zm-104.71 25.66q-6.35-1.88-11.16-7.22a.61.61 0 00-1.06.51l.95 6.19-.92 5.75-2.17 10.15a1.7 1.66-50.5 00.08.95q.8 2.07 2.96 3.52 1.4 1.7 3.84 2.28a1 .99-59.1 00.87-.22l1.09-.93q2.39-2.97 3.83-6.5l2.88-1.55a1.18 1.18 0 01.94-.09c1.93.64 6.22-.35 8.14-.82l.75-.08c3.37.12 7.16 1.75 8.96-2.46l.71-4.28a.88.88 0 00-.73-1.02l-11.82-1.86c5.36-3.97 14.54-10.02 7.8-15.95q-.36-.32.1-.46c4.18-1.33 9.53-6.45 7.84-11.08q-1.93-5.25-7.71-5.61a.42.42 0 01-.32-.65l4.03-5.95q.37-.55-.29-.53c-5.06.14-7.32 3.7-10.91 8.03-1.64 1.98-.99 4.24 1.08 5.37 2.83 1.54 10.18-1.48 9.22 5.03a2.23 2.22 80.8 01-1.18 1.65c-3.38 1.73-8.13 2.83-10.22 6.21a.74.73 38.3 00.11.9l1.56 1.54a1.23 1.23 0 01.08 1.66q-3.91 4.7-9.33 7.52zm78.89-33.2q2.19 5.21-1.35 9.74-.67.86.4.62c5.24-1.18 9.61-10.22 1.72-11.36a.73.72-7.4 00-.77 1zm-186.33 15.93q2.52 7.25 6.31 13.99a1.92 1.9 77.5 001.51.97c7.86.68 14.72 3.02 19.22 9.62 2.82 4.13 5.07 6.26 10.04 4.29q.73-.29.02-.65l-4.32-2.19q-.49-.25-.81-.7-4.58-6.4-11.85-9.55a.94.93 39.2 01-.17-1.63l1.48-1.03a.41.41 0 00-.17-.74l-12.49-2.02a1.85 1.85 0 01-1.07-3.08l5.75-6.26q.37-.4-.18-.39c-2.72.01-11.7 2.41-12.77-1.38q-.74-4.39 3-6.93.81-.55-.17-.64l-2.87-.29a1.51 1.48-19.5 01-.92-.43l-1.46-1.46a.75.74-47 01-.03-1.02l3.77-4.36q1.35-1.56-.22-.23l-4.3 3.65a.99.97-28 00-.31.98l3.01 11.48zm154.67-10.17a3.2 3.2 0 00-3.2-3.2 3.2 3.2 0 00-3.2 3.2 3.2 3.2 0 003.2 3.2 3.2 3.2 0 003.2-3.2zm48.01 7.6l2.44-4.71a.61.61 0 00-.23-.81q-4.15-2.42-8.71-3.8a.93.93 0 00-1.06 1.39c1.83 2.89 5.32 4.1 6.07 7.72a.8.8 0 001.49.21zm187.07 28.07l2.38 4.25a.57.56-31.7 00.82.19q13.42-9.3 25.28-19.53c2.78-2.53 1.35-4.43-1.32-5.92q-11.86-6.63-23.34-13.62a.39.39 0 00-.59.3q-1.24 15.14-3.81 30.02-.47 2.76.58 4.31zm-85.63-16.94c6.6-2.15 14.94-7.02 15.39-14.88a.45.45 0 00-.75-.37q-5.65 4.9-13.14 3.01c-2.81-.71-6.65-3.81-10.27-2.91q-.61.15-.17.61 5.89 6.05 8.28 14.19a.52.52 0 00.66.35zm-107.2-4.36c3.1.2 5.46-4.31 2.43-6.34q-3.45-2.3-7.24-1.95a.79.78 63.8 00-.46 1.36q2.92 2.71 4.5 6.38a.92.91 80.3 00.77.55zm-7.89-.15l.97 4.38a.48.47 69.1 00.7.32l4.42-2.49a1.34 1.34 0 00-.01-2.35l-4.05-2.23a.82.81-53.7 00-.97.15l-1.66 1.73a.07.07 0 00.03.11l.32.1a.4.39-87.4 01.25.28zm-104.7 1.73l-9.96-3.35q-.75-.25-.53.5c1.51 5.06 6.28 6.94 10.63 3.66a.47.46 35.5 00-.14-.81zm-16.12 8.51q6.98 3.05 14.5 4.17 3.75.47 6.18-2.11a1.29 1.25-25.3 00.34-.91l-.1-2.65a.59.58 0 00-.57-.56q-2.52-.08-4.84.93a1.53 1.49-50 01-.88.09q-1.69-.37-2.88.79l-1.5 1.17q-2.99.8-4.5-1.75l-.96-1.96c-.18-1.65-3.73-4.8-4.84-6.58a.49.49 0 00-.68-.16c-4.21 2.76-3.94 7.6.73 9.53zm117.85-5.43c-3.15-.59-6.18 2.29-3.55 4.83a.84.84 0 001.24-.09l2.77-3.54a.75.75 0 00-.46-1.2zm141.24 8.95c-6.68 2.54-13.58.56-18.31-4.6q-1.35-1.48-3.09-1.74a.5.49 86.2 00-.55.63q2.3 7.85-.16 15.7a.53.52 8.5 00.51.68q13.23-.16 22.48-9.29a.84.84 0 00-.88-1.38zm-263.84 10.48q9.08 5.68 19.75 5.22 3.44-3.6 4.97-7.98a.62.61-80.1 00-.57-.82q-3.68-.04-7.46-1.44-2-.74-2.98 1.73c-2.71-.84-5.72-1.07-7.75-3.25q.2-1.07-.26-2a.95.94-5.3 00-.63-.52q-4.05-1.02-7.33-3.57a1.77 1.76-57.3 00-2.65.58q-4.37 8.39 4.91 12.05zm111.5-11.5q-.97 1.38-.55 3.14a.58.58 0 00.72.43q2.61-.72 4.22-2.97a.46.46 0 00-.22-.7l-.67-.23q-2.23-1.76-3.5.33zM112.5 269.21l-12.5 7.58q-13.74 8.55-27.63 16.86c-3.01 1.8-3.67 3.21-3.65 6.6q.09 12.15.71 24.29c.16 3.19 14.57 17.66 17.48 21.06a.46.45-42 00.66.03l2.86-2.67a1.43 1.42-45.4 00-.01-2.08c-3.98-3.65-15.93-14.51-16.1-19.44q-.5-14.7.49-21.39.88-5.96 7.45-7.13a1.52 1.51 52.6 01.94.13q4.45 2.11 8.19 5.35a.82.82 0 00.97.07q16.39-10.35 32.76-20.56 2.29-1.42 4.33-3.07a.39.38 44.2 00-.01-.61q-5.18-3.84-8.83-9.16a1.32 1.32 0 00-1.86-.32l-6.25 4.46zm386.71 4.54q-2.57 2.02-5.68 2.86-.48.14-.96.01-2.15-.54-3.82.84-8.52 6.08-16.8 12.49c-57.18 44.29-112.64 86.64-173.39 130.62-1.3.94-2.33 4.76-3.71 6.38q-3.1 3.62-7.18 6.21-9.49 5.99-18.44 12.7c-5.05 3.78-8.2 6.29-14.98 6.1q-3.82-1.36-6.96-3.96-10.11-10.71-21.59-20.01a1.64 1.61-79.8 01-.54-.79c-1.08-3.42-1.42-5.54-4.24-8.09-40.6-36.74-81.59-73.07-121.89-110.14q-.72-.66-1.64-1.1a1.42 1.39-39.1 00-.96-.09q-1.8.48-3.64-.15-.44-.15-.76-.49-3.81-3.98-8.42-7-.67-.44-.46.33 3.18 11.84.25 23.67c-.47 1.93-.02 3.12 1.21 4.5q5.06 5.68 10.51 11c47.05 45.95 94.12 92.13 142.46 136.73 2.38 2.2 4.77 5.27 7.56 7.67q.54 1.18 1.66 1.94a.74.73 44.2 00.83-.01c15.59-11.31 32.03-21.54 47.4-32.94q100.52-74.54 197.99-153.02 11.07-8.91 22.29-18.39a1.04 1.04 0 00.16-1.43c-2.68-3.51-3.01-8.7-3.72-12.98q.29-.89.13-1.72a.35.35 0 00-.55-.22l-12.12 8.48zm-338.96 7.54q5.7 4.83 13.25 4.17c4.78 1.06 8.07-2.67 9.37-6.82a.42.42 0 00-.31-.53l-6.27-1.42a.7.68 24.3 00-.69.25l-1.6 2.1c-3.42-1.28-7.07-.53-9.21-4.29l-1.02-2.31a1.23 1.22-3.6 00-.78-.68q-3.05-.88-5.52-2.78a.56.56 0 00-.88.29l-1.7 6.09a1.29 1.26-53.5 00.14 1.01q1.98 3.17 5.22 4.92zm235.55 6.11q14.66 3.66 27.75-3.58a.57.57 0 00-.31-1.06c-4.36.27-10.81.27-13.22-4.13-1.76-3.21.71-5.95-3.9-8.26a.51.51 0 00-.72.31q-2.73 9.35-9.8 15.98a.44.44 0 00.2.74zm121.63-12.18c1.36 2.07 4.27 3.48 5.14 5.47a.74.74 0 01-.18.83q-10.9 9.95-22.37 19.24-2.35 1.91-3.44 5.04a.55.55 0 00.86.61l29.86-24.06a1.68 1.67-44.9 00.01-2.6q-4.23-3.45-9.3-5.27a.5.49 83.2 00-.58.74zm-263.56 6.08q1.26-2.21.01-5.16-.42-1-.53.08l-.47 4.51a1.84 1.84 0 01-2.29 1.59q-2.31-.59-3.53-2.65-1.01-1.7-.44.42 1.22 4.5-1.65 8.18a.53.52 1.3 00.72.75c2.72-1.9 6.77-5.27 8.18-7.72zm-19.83 5.45l-.03 3.72c-1.51 3.6-11.03-3.9-13.27-5.89q-.5-.45-.58.22l-.39 3.53a.86.85 9.9 01-1.05.73q-3.31-.77-6.61-.4c-2.16.25-3.42-.96-5.84-.31q-4.07 1.09-8.11-.71a.39.39 0 00-.47.58c1.37 1.95 5.01 5.9 7.72 4.59 7.63-3.68 17.19-.87 24.16 3.43a.69.69 0 00.8-.05q.64-.53 1.12-.66 6.6-1.75 12.06-5.69a.29.29 0 00-.04-.5q-4.36-2.2-7.15-6.24-.32-.46-.82-.71l-1.6-.81q-.33-.17-.3.21l.4 4.96zm-78.29 4.79q7.13 6.14 16.54 4.51 2.57-1.72 3.09-4.48a.59.58-75.4 00-.39-.67q-3.5-1.19-6.34 1.01-6.17.36-9.14-4.89-2.15-2.38-5.33-3a.57.56-75.8 00-.65.39q-1.4 4.37 2.22 7.13zm101.31-3.82a.6.6 0 00.46.97l4.45.11a.6.6 0 00.5-.95l-2.16-2.96a.6.6 0 00-.95-.02l-2.3 2.85zm116.96 16.11c8.05 4.34 19.44 7.53 28.11 3.5a.28.28 0 00-.07-.53c-4.74-.78-8.11-1.84-9.79-6.81a1.13 1.1-40.1 01.09-.91c1.43-2.54 3.53-7.1 1.03-9.56a.5.49 43 00-.71.02c-6.32 7-11.57 9.64-18.67 13.55a.42.42 0 00.01.74zM257.04 310c7.12-8.47 15.63-4.57 23.76-4.21a.63.63 0 00.32-1.19q-7.76-4.02-13.83-10.6l-2.09-2.39a.57.56 49.9 00-.78-.07c-6 4.77-11.31 11.01-9.64 19.66a.53.52-28.7 00.9.26l1.36-1.46zm-104.5-13.75q.01 2.13.96 4.04 1.93 3.07 4.96 4.94a1.37 1.36-34.1 00.95.18l6.59-1.12q2.18-.87 3.08-3.01a.46.46 0 00-.33-.63l-3.77-.79a.67.66-67.4 00-.69.29l-1.08 1.6q-4.13.91-5.5-3V297q-2.18-1.31-4.68-1.63a.42.42 0 00-.48.41l-.01.47zm191.54 16.7c5.84 8.04 14.18 12.71 24.22 12.4a.37.37 0 00.14-.71q-7.89-3.64-4.4-10.68c1.38-2.8 6.54-4.76 6.06-8.1a.41.4 74.3 00-.55-.32c-8.75 3.68-15.66 6.17-25.26 6.96q-.51.04-.21.45zm-57.54 13.99a.8.8 0 001.35-.6c-.08-6.29 5.27-10.42 11.01-9.85q4.27.42 8.22-1.4a1.13 1.13 0 00-.35-2.15q-11.29-1.22-21.06-6.7a.69.68-54.7 00-.86.15q-.99 1.13-1.83 3.5-3.66 10.3 3.52 17.05zm-133.37-19.31c-.37 8.09 3.44 8.26 7.77 2.75a.33.33 0 00-.19-.53q-3.71-.75-7.09-2.5a.34.34 0 00-.49.28zm159.84 6.41c-.41 9.44 5.79 15.48 14.19 18.32q.49.17.37-.33c-.41-1.62-1.4-3.14-1.53-4.63-.88-9.89 11.47-6.54 13.55-13.37a.33.33 0 00-.36-.42q-12.85 1.75-25.7-.01a.46.46 0 00-.52.44zm-42.26 102.67q-16.73.31-33.44.33c-2.77 0-5.42.98-7.29 2.74a1.67 1.66-46.6 00.07 2.48q8.46 7.12 16.21 14.55c6.17 5.92 9.75 11.07 17.34 4.89q8.09-6.59 14.9-10.95c2.52-1.44 15.24-8.41 12.29-12.22-2.05-2.66-16.72-2.08-20.08-1.82zm-43.02 62.85q8.98 8.51 17.33 17.62 1.16 1.26 4.87 1.32a1.81 1.74-58.7 00.94-.25c10.1-6.01 18.09-14.38 27.77-20.89q3.63-2.45 3.05-7.22a.55.55 0 00-.86-.39l-33.26 23.09a1.52 1.52 0 01-2.03-.27c-6.77-8.08-15.42-14.57-21.96-22.38a.47.46-63.6 00-.82.28c-.22 4.5 2.02 6.3 4.97 9.09z"/><path fill="#929699" d="M250.04 199.75c-.05-2.61-10.41 4.11-12.29 5.29-2.48 1.55-23.72 14.34-23.57 15.4a.59.59 0 00.52.51q.32.04.55.26l-7.64 4.19a.41.41 0 01-.6-.44q1.39-6.51-.67-12.78a.67.67 0 01.22-.74c2.76-2.16 6.35-3.52 8.81-5.13 4.17-2.72 6.75-5.32 12.67-4.54a.84.83 21.1 00.8-.35l1.72-2.53q2.75-.77 5.04-2.41 3.83-2.74 4.51-3.13c7.32-4.13 14.29-8.76 21.48-13.07q8.67-5.2 17.43-10.24c2.73-1.57 7.42-3.53 10.81-6.33a.66.65 48.8 00.06-.95q-.33-.37-.89-.3 24.45-14.32 30.94-18.5 10.07-6.47 19.77-.53a1.61 1.61 0 01-.02 2.75l-89.65 53.57z"/><path fill="#acadae" d="M91.16 154.4c1.92.58 8.57 2.03 9.49 3.4q.82 1.23-.65 1.18-2.37-.06-4.72.14c-1.84.16-4.08 1.09-6.3 1.17a.37.36-81.1 01-.35-.49l1.82-5.04a.59.58-71.7 01.71-.36zM147.52 155.83q-.13-.41 0-.83.19-.62.3.02c.83 5.06-1.53 8.81-.86 13.74a1.1 1.1 0 01-.9 1.23c-.88.16-1.27-.41-1.07-1.23q1.47-5.96 2.59-12 .09-.47-.06-.93zM117.04 157.25l1.46.29q.45 3.63-.43 7.16a.61.6-80.2 01-.63.45l-1.9-.15 1.5-7.75zM110.19 159.39a.26.26 0 01-.01.43q-4.73 3.01-4.76 8.67-.01.68-.57.3c-4.07-2.76-1.4-9.02 1.81-11.1a.93.92 45.3 011.02.01l2.51 1.69z"/><path fill="#929699" d="M118.5 157.54q1.5-.09 2.27 1.06a1.23 1.22-56.5 01.18.92l-2.93 14.74a.88.88 0 01-.78.7l-2.4.21a1.39 1.35 17.3 00-.92.47l-3.24 3.82q-.36.43-.88.64l-2.86 1.19a.67.67 0 00-.39.77l2.66 11.56q.13.53.47.96l1.23 1.54q.42.53-.25.51l-3.14-.07a.6.6 0 00-.6.71l2.36 11.73a1.11 1.08-35.4 01-.15.81l-.42.69-3.17-3.75q1.09-1.14.52-2.55-1.95-4.71-1.83-8.79a1.35 1.32 69.5 01.4-.91l.75-.75a.62.6-38.2 00.1-.74q-.35-.6-.54-.46 1.56-5.37-.37-10.81a1.83 1.78 42.1 01-.06-.95c.53-2.48.92-9.78 3.63-10.45q3.61-.89 6.63.85a.28.28 0 00.42-.22l.35-5.97 1.9.15a.61.6-80.2 00.63-.45q.88-3.53.43-7.16z"/><path fill="#acadae" d="M97.38 164.93a1.21 1.21 0 01-.66 2.22q-3.94-.02-7.5 1.53a.57.57 0 01-.76-.34q-.92-2.68.05-5.38a.81.81 0 01.79-.54q4.39.12 8.08 2.51z"/><path fill="#929699" d="M131.5 166.71l-1.67 1.88q-3.94.73-4.79 3.41-1.1 3.49-2.63 6.85a.81.79-53.7 00.12.85q1.01 1.17 2.43.05l-1.89 7.73q-.11.48-.07.99.07.87-.18 1.66-.18.6-.46.04l-2.83-5.71q-.26-.54-.49.02-5.01 12.14.88 23.73a2.02 2.02 0 01-.96 2.75q-1.74.8-1.75 4.04-4.55-5.2-5.04-12.27-.09-1.24.87-.45l2.04 1.69a.19.18 53.2 00.17.03l.25-.08a.08.08 0 00.04-.11q-1.33-3.07-1.81-6.35c-.4-2.64-1.45-4.95-1.9-7.59a1.73 1.66 20 00-.43-.88q-.55-.6-.65-1.34a.42.42 0 01.48-.47l2.54.37a1.25 1.24 84.4 001.35-1.65q-1.08-3.08-.31-6.23a.71.71 0 01.88-.51l2.37.69a.32.32 0 01.22.41l-.56 1.75a.57.56-81.4 00.54.74h.66a.57.57 0 00.56-.48q1.65-10.15 6.29-19.31a.81.81 0 011.26-.24l4.47 3.99z"/><path fill="#acadae" d="M289 162.46q.56-.07.89.3a.66.65 48.8 01-.06.95c-3.39 2.8-8.08 4.76-10.81 6.33q-8.76 5.04-17.43 10.24c-7.19 4.31-14.16 8.94-21.48 13.07q-.68.39-4.51 3.13-2.29 1.64-5.04 2.41.07-1.75 1.63-2.7Q260.4 179 289 162.46zM129.83 168.59q-3.52 5.37-4.87 11.16-1.42 1.12-2.43-.05a.81.79-53.7 01-.12-.85q1.53-3.36 2.63-6.85.85-2.68 4.79-3.41zM95.22 171.33a1.46 1.46 0 01.15 2.35l-3.08 2.55a1.05 1.04-31.5 01-1.63-.39l-2.06-4.79a.61.61 0 01.44-.84q3.32-.7 6.18 1.12zM94.99 179.55c3.02 2.27 2.61 5.23-1.1 6.11a.52.52 0 01-.64-.5v-4.74q0-2.17 1.74-.87z"/><ellipse fill="#acadae" transform="rotate(85.3 -34.471 165.985)" rx="3.41" ry="3.23"/><path fill="#acadae" d="M95.28 190.34l2.34 1.98a.74.74 0 01.06 1.06l-1.99 2.11q-.78.84-1.07-.27l-1.01-3.83a1.04 1.03 12.8 011.67-1.05zM104.94 192.55q.19-.14.54.46a.62.6-38.2 01-.1.74l-.75.75a1.35 1.32 69.5 00-.4.91q-.12 4.08 1.83 8.79.57 1.41-.52 2.55-2.38-3.66-3.03-8-.54-3.61 2.43-6.2z"/><path fill="#929699" d="M158.75 193.29q1.73 2.85 4.14 4.92c-.38 4.22 1.63 10.17-2.47 12.66a.78.78 0 01-.85-.01c-2.9-1.93-6.04-4.17-8.87-4.38a1.42 1.4-60.2 00-.93.26c-1.87 1.31-1.96 3.26-.81 5.25q2.25 3.93 3.9 8.48a1.5 1.49-10.3 01-1.39 2l-2.93.04a.47.46-2.9 00-.46.5c.26 3.07 2.25 10.27 1.36 12.74l-7.44-3.46-.83-5.72 1.18-8.14a.67.66 88.8 01.53-.56q2.19-.47 2.87-2.33.72.17 1.12-.3a.8.79-38.6 00.1-.86c-4.26-8.52-1.09-18.77 10.65-13.32a.35.34-74.4 00.49-.28l.64-7.49zM185.5 196.96l1.25.75c-1.11 1.42-.3 4.52-2.69 4.74a.49.49 0 01-.54-.48q-.04-2.92 1.98-5.01zM335.24 202.23l-1.71-3.66a.48.47 85.1 01.55-.66q10.13 2.77 13.03 12.85a.74.73 84.4 01-.76.93q-11.04-.88-22.13.05a.69.68-59.3 01-.33-1.31c4.49-2.01 8.59-2.86 11.29-7.23a1.03 1.03 0 00.06-.97z"/><path fill="#acadae" d="M250.04 199.75l-34.79 21.46q-.23-.22-.55-.26a.59.59 0 01-.52-.51c-.15-1.06 21.09-13.85 23.57-15.4 1.88-1.18 12.24-7.9 12.29-5.29z"/><path fill="#929699" d="M368.34 202.17a.58.58 0 01.87-.33q8.81 5.84 3.83 15.67a.74.73-64.3 01-.96.34q-9.14-4.17-19.1-5.32-2.51-.29-.3-1.52c6.13-3.38 12.79 1.32 15.66-8.84z"/><ellipse fill="#acadae" transform="rotate(100 15.057 188.837)" rx="3.29" ry="2.82"/><path fill="#929699" d="M302.8 207.89q-.98-3-4.45-3.63a.36.36 0 01.06-.71c6.72-.02 16.53 2.55 20.18 8.52a.69.68-19.4 01-.5 1.03q-10.56 1.45-20.42 5.26c-.73.28-1.19.02-1.46-.65a1.72 1.72 0 011.07-2.3c3.27-1.03 6.81-3.58 5.52-7.52z"/><path fill="#fff" d="M187.09 235.06q.96 2.62 2.92 4.61 1.15 1.17-.48 1.27-3.74.23-6.27-2.36a.91.9-30.3 00-.91-.23q-4.32 1.29-7.09-2.37a.4.39-28.2 01.19-.61c2.98-1.05 7.75-.96 6.93-5.61a1.05 1.04 9.2 00-.53-.73c-2.41-1.33-6.2-2.03-5.81-5.81 1.09-10.6 12.42-14.25 20.24-7.2q2.52 2.27 3.14 5.39c1.09 5.49-2.7 12.62-9.37 10.47a.96.95 30.5 00-.98.25l-1.75 1.84a1.04 1.04 0 00-.23 1.09zm-.837-13.89a3.39 2.39-38.5 00-4.14.24 3.39 2.39-38.5 00-1.166 3.98 3.39 2.39-38.5 004.14-.24 3.39 2.39-38.5 001.166-3.98zm6.648 7.645a3.24 2.23 69 00.92-3.824 3.24 2.23 69 00-3.242-2.226 3.24 2.23 69 00-.92 3.824 3.24 2.23 69 003.242 2.226z"/><path fill="#929699" d="M398.33 214.12c.25-.42.15-.68.72-.89a.41.39 70.7 01.52.26c2.31 7.1-.46 12.25-5.81 16.77a.57.57 0 01-.74-.01q-4.44-3.88-9.18-7.37c-1.24-.92-7.12-3.25-7.28-4.05a.43.43 0 01.44-.51c7.11.37 16.85 3.44 21.33-4.2zM274.21 213.85q-.94 5.02-2.53 9.8c-.97 2.91-3.19 4.69-4.63 7.52a.41.41 0 00.37.59l.69-.01a.56.55-2.2 01.56.51c.23 2.64-.66 4.67 2.35 6.08a.41.41 0 01.08.69l-1.17.92q-.42.33-.66.82-3.63 7.58-10.33 12.56-.57.42.14.43 2.31.01 4.06-1.41a.29.29 0 01.44.09l.16.3a.59.58-34.4 01-.14.73c-4.47 3.73-9.32 6.16-14.24 9.2-3.98 2.47-7.09 2.72-10.85.15q9.23 1.25 9.67-7.61a.93.92-13.6 01.46-.74q4.19-2.41 8.11-5.17c4.44-3.13 6.89-9.01 8.77-13.91a.32.32 0 00-.53-.33q-2.05 2.11-4.96 2.73-.53.12-.27-.36c3.97-7.17 7.21-14.31 7.4-22.74a.59.59 0 01.57-.58l6.48-.26z"/><path fill="#fff" d="M274.21 213.85l7.41.77q-.63.95-1.45 1.74c-2.68 2.57-4.87 6.82-6.76 10.06a1.11 1.08-38.5 00-.11.88q.76 2.55-.12 5.03a.82.81 27.7 00.3.94c5.13 3.64-.04 9.96-3.81 12.37-2.85 1.82-.26 3.51-.29 5.3-.03 1.8-3.46 4.85-4.98 5.72q-6.72 3.84-13.47 7.69-2.07.44-2.64 2.15-.25 2.64 1.42 4.5.11 3.28 1.61 6.31a.44.44 0 01-.37.63q-1.71.09-2.64-1.23a2.01 1.94 83.8 00-.79-.66l-7.25-3.33q-.88 3.93.08 7.65a.31.31 0 01-.26.39l-.34.03-6.25-3.08q-1.49-1.11-3.25-1.17-.11-.16-.26-.2a.36.36 0 00-.44.25c-.91 3.14.26 6.08.99 8.93a.28.28 0 01-.42.31c-2.12-1.35-11.25-7.36-12.76-6.43a.43.42-38.2 00-.08.65c2.02 2.21-1.07 4.63-3.64 3.52q-4.15-1.81-8.39-.7c-4.45 1.16-7.43.71-11.42-1.03a.85.84 10.5 01-.5-.72l-.11-1.96q-.04-.79.58-.3c4.21 3.37 9.64 6.8 13.49.39q2.2-.72 2.46-2.96l1-.33q3.15.07 6-1.25c4.99.56 7.12 2.09 12.29-.66q3.76-2 5.25-5.05 1.76-.94 1.67-3 .55-3.7 2.55-3.18c3.76 2.57 6.87 2.32 10.85-.15 4.92-3.04 9.77-5.47 14.24-9.2a.59.58-34.4 00.14-.73l-.16-.3a.29.29 0 00-.44-.09q-1.75 1.42-4.06 1.41-.71-.01-.14-.43 6.7-4.98 10.33-12.56.24-.49.66-.82l1.17-.92a.41.41 0 00-.08-.69c-3.01-1.41-2.12-3.44-2.35-6.08a.56.55-2.2 00-.56-.51l-.69.01a.41.41 0 01-.37-.59c1.44-2.83 3.66-4.61 4.63-7.52q1.59-4.78 2.53-9.8z"/><path fill="#929699" d="M281.62 214.62q1.2-.3 2.57.41a.56.56 0 01.27.71q-2.71 6.65-8.15 11.43a.76.76 0 00.16 1.25l5.3 2.61a1.45 1.41 1.6 01.68.7c1.95 4.22-2.42 8.76-5.5 11.59-2.1 1.93-3.32 4.16-5.23 6.26a.78.77-35.8 00-.14.82c1.64 3.88-3.03 7.64-5.76 9.46-3.74 2.5-10.13 3.07-14.89 4.49q6.75-3.85 13.47-7.69c1.52-.87 4.95-3.92 4.98-5.72.03-1.79-2.56-3.48.29-5.3 3.77-2.41 8.94-8.73 3.81-12.37a.82.81 27.7 01-.3-.94q.88-2.48.12-5.03a1.11 1.08-38.5 01.11-.88c1.89-3.24 4.08-7.49 6.76-10.06q.82-.79 1.45-1.74zM371.27 220.97q.84 2.68 3.12 3.42 3.63 1.18 5.38 2.38c11.44 7.88 21.08 17.67 20.67 32.62-.21 7.49-4.01 17.19-9.36 22.44-4.29 4.2-7.3 7.55-11.48 10.7a.82.81-24.3 00-.31.81q.16.85 1.21.95-5.08 4.02-10.95 6.74-34.35 15.89-71.05 6.01.47.04.51-.34a1.59 1.59 0 00-1.47-1.75c-3.11-.22-6.02-2.51-9.69-4.17-6.91-3.11-13.16-8.65-18.2-14.23-2.17-2.39-3.34-5.62-4.92-8.5a.67.66-22.9 00-.78-.31q-.74.24-1.34 1.55l-1.36-5.25 1.97-.91q.44-.21.93-.18c6.52.35 11.16-2.97 16.65-5.76q3.95-2 6.54-4.52 4.48-4.37 8.18-9.47a1.09 1.07 15.3 01.79-.44c11.43-.82 16.03-11.62 19.12-21.3a.94.94 0 00-.75-1.22q-.64-.09-1.24.12-4.59-5.86-10.76-10.12-.41-.28.07-.42c5.15-1.54 10.27-3.19 15.42-3.99 17.84-2.76 36.7-1.87 53.1 5.14z"/><path fill="#fbfedf" d="M145.75 215.54q-.68 1.86-2.87 2.33a.67.66 88.8 00-.53.56l-1.18 8.14c-.88-3.73-1.85-11.3 4.58-11.03z"/><path fill="#929699" d="M216.87 258.34l-8.14-2.32q5.42-2.82 9.33-7.52a1.23 1.23 0 00-.08-1.66l-1.56-1.54a.74.73 38.3 01-.11-.9c2.09-3.38 6.84-4.48 10.22-6.21a2.23 2.22 80.8 001.18-1.65c.96-6.51-6.39-3.49-9.22-5.03-2.07-1.13-2.72-3.39-1.08-5.37 3.59-4.33 5.85-7.89 10.91-8.03q.66-.02.29.53l-4.03 5.95a.42.42 0 00.32.65q5.78.36 7.71 5.61c1.69 4.63-3.66 9.75-7.84 11.08q-.46.14-.1.46c6.74 5.93-2.44 11.98-7.8 15.95z"/><ellipse fill="#21201f" transform="rotate(-38.5 411.488 -151.235)" rx="3.39" ry="2.39"/><path fill="#acadae" d="M371.27 220.97q13.88 5.39 22.74 16.02c11.99 14.37 9.81 34.39-2.62 47.67q-4.98 5.32-10.89 9.63-1.05-.1-1.21-.95a.82.81-24.3 01.31-.81c4.18-3.15 7.19-6.5 11.48-10.7 5.35-5.25 9.15-14.95 9.36-22.44.41-14.95-9.23-24.74-20.67-32.62q-1.75-1.2-5.38-2.38-2.28-.74-3.12-3.42z"/><path fill="#929699" d="M287.62 222.82a.73.72-7.4 01.77-1c7.89 1.14 3.52 10.18-1.72 11.36q-1.07.24-.4-.62 3.54-4.53 1.35-9.74z"/><path fill="#fbfedf" d="M101.79 238l-.5.75-3.01-11.48a.99.97-28 01.31-.98l4.3-3.65q1.57-1.33.22.23l-3.77 4.36a.75.74-47 00.03 1.02l1.46 1.46a1.51 1.48-19.5 00.92.43l2.87.29q.98.09.17.64-3.74 2.54-3 6.93z"/><ellipse fill="#21201f" transform="rotate(69 -68.393 252.387)" rx="3.24" ry="2.23"/><circle fill="#929699" cx="252.76" cy="228.58" r="3.2"/><path fill="#fff" d="M142 232.29l7.44 3.46q7.48 1.94 15.04 1.24a.26.26 0 01.2.46q-8.7 7.61-12.35 18.62a1.15 1.12-89.8 01-.7.71l-3.63 1.26c-4.53.47 1.16-7.08 2.3-8.22a.67.66 51.4 00.09-.84l-.37-.59a.71.71 0 00-1.08-.13l-6.7 6.2a.63.63 0 00.23 1.06l.89.29a.67.67 0 01.45.57q.06.73-.56 1.16-2.85-.28-2.25-3.04 1.07-4.88.45-9.17l7.67-1.63a.63.63 0 00.21-1.15q-2.75-1.76-6.05-1.53a1.66 1.6 58.1 01-.99-.25q-.91-.57-1.76-.04a.99.98 75.7 00-.46.78q-.05.64-.78.74c-4.34-5.55-13.54-4.65-9.18-15.56a.5.49-67.8 01.65-.28q5.92 2.43 11.24 5.88zm9.04 7.27c-.58-1.24-12.74-7.4-14.8-8.54q-2.65-1.46-5.21-1.27a.76.76 0 00-.7.77l.03 2.84a.91.91 0 00.59.84q9.58 3.68 19.59 5.98a.44.44 0 00.5-.62z"/><path fill="#acadae" d="M303.97 236.18a.8.8 0 01-1.49-.21c-.75-3.62-4.24-4.83-6.07-7.72a.93.93 0 011.06-1.39q4.56 1.38 8.71 3.8a.61.61 0 01.23.81l-2.44 4.71zM519.52 249.16q-.24-3.05-1.6-3.83-9.31-5.33-18.3-11.17c-5.22-3.39-4.5 6.42-4.51 9.2-.01 6.68-2.14 13.09-2.31 19.91a.69.68 83.3 01-.51.65l-1.25.33q-1.05-1.55-.58-4.31 2.57-14.88 3.81-30.02a.39.39 0 01.59-.3q11.48 6.99 23.34 13.62c2.67 1.49 4.1 3.39 1.32 5.92z"/><path fill="#929699" d="M136.24 231.02c2.06 1.14 14.22 7.3 14.8 8.54a.44.44 0 01-.5.62q-10.01-2.3-19.59-5.98a.91.91 0 01-.59-.84l-.03-2.84a.76.76 0 01.7-.77q2.56-.19 5.21 1.27z"/><path fill="#acadae" d="M261.25 274.04l-.44-3a.36.36 0 01.46-.39c11.11 3.42 25.21-10.36 32.38-17.32.45-.44.46-.66.78-1.18a1.06 1.04-77.8 01.74-.49c10.9-1.71 15.49-11.14 18.27-21.3q.6-.21 1.24-.12a.94.94 0 01.75 1.22c-3.09 9.68-7.69 20.48-19.12 21.3a1.09 1.07 15.3 00-.79.44q-3.7 5.1-8.18 9.47-2.59 2.52-6.54 4.52c-5.49 2.79-10.13 6.11-16.65 5.76q-.49-.03-.93.18l-1.97.91z"/><path fill="#929699" d="M420.8 232.43c-.45 7.86-8.79 12.73-15.39 14.88a.52.52 0 01-.66-.35q-2.39-8.14-8.28-14.19-.44-.46.17-.61c3.62-.9 7.46 2.2 10.27 2.91q7.49 1.89 13.14-3.01a.45.45 0 01.75.37zM519.52 249.16q-11.86 10.23-25.28 19.53a.57.56-31.7 01-.82-.19l-2.38-4.25 1.25-.33a.69.68 83.3 00.51-.65c.17-6.82 2.3-13.23 2.31-19.91.01-2.78-.71-12.59 4.51-9.2q8.99 5.84 18.3 11.17 1.36.78 1.6 3.83z"/><path fill="#acadae" d="M300.64 236.61c3.03 2.03.67 6.54-2.43 6.34a.92.91 80.3 01-.77-.55q-1.58-3.67-4.5-6.38a.79.78 63.8 01.46-1.36q3.79-.35 7.24 1.95zM101.79 238c1.07 3.79 10.05 1.39 12.77 1.38q.55-.01.18.39l-5.75 6.26a1.85 1.85 0 001.07 3.08l12.49 2.02a.41.41 0 01.17.74l-1.48 1.03a.94.93 39.2 00.17 1.63q7.27 3.15 11.85 9.55.32.45.81.7l4.32 2.19q.71.36-.02.65c-4.97 1.97-7.22-.16-10.04-4.29-4.5-6.6-11.36-8.94-19.22-9.62a1.92 1.9 77.5 01-1.51-.97q-3.79-6.74-6.31-13.99l.5-.75z"/><path fill="#929699" d="M290.07 242.52l-.32-.1a.07.07 0 01-.03-.11l1.66-1.73a.82.81-53.7 01.97-.15l4.05 2.23a1.34 1.34 0 01.01 2.35l-4.42 2.49a.48.47 69.1 01-.7-.32l-.97-4.38a.4.39-87.4 00-.25-.28zM141.45 245.33l-2.16-3.08q.73-.1.78-.74a.99.98 75.7 01.46-.78q.85-.53 1.76.04a1.66 1.6 58.1 00.99.25q3.3-.23 6.05 1.53a.63.63 0 01-.21 1.15l-7.67 1.63z"/><path fill="#fff" d="M185.62 244.53a.47.46 35.5 01.14.81c-4.35 3.28-9.12 1.4-10.63-3.66q-.22-.75.53-.5l9.96 3.35zM174.29 250.25l-2.58 1.5-2.21 1.29c-4.67-1.93-4.94-6.77-.73-9.53a.49.49 0 01.68.16c1.11 1.78 4.66 4.93 4.84 6.58z"/><path fill="#acadae" d="M283.8 252.44c-2.63-2.54.4-5.42 3.55-4.83a.75.75 0 01.46 1.2l-2.77 3.54a.84.84 0 01-1.24.09z"/><path fill="#929699" d="M148 258.04q-2.54 1.2-4.75-.5.62-.43.56-1.16a.67.67 0 00-.45-.57l-.89-.29a.63.63 0 01-.23-1.06l6.7-6.2a.71.71 0 011.08.13l.37.59a.67.66 51.4 01-.09.84c-1.14 1.14-6.83 8.69-2.3 8.22z"/><path fill="#fff" d="M208.73 256.02l8.14 2.32 11.82 1.86a.88.88 0 01.73 1.02l-.71 4.28c-6.7-3.28-12.31-5.96-19.8-6.78a.68.68 0 00-.35 1.3q6.33 2.77 11.92 6.79a.57.57 0 01.14.78q-.24.36-.87.37l-.75.08-5.8.1a1.27 1.24 64.9 01-.86-.32c-1.92-1.76-3.98-6.84-6.75-6.12a.54.53-13.5 00-.39.63l1.84 8.17q-1.44 3.53-3.83 6.5-1.72-.79-.67-2.75 1.53-1.1.67-3c1.44-3.32-1.08-6.94-2.7-9.59a.72.72 0 00-1.33.47q.87 7.18-1.77 13.74-2.16-1.45-2.96-3.52a1.7 1.66-50.5 01-.08-.95l2.17-10.15q1.63-2.61.92-5.75l-.95-6.19a.61.61 0 011.06-.51q4.81 5.34 11.16 7.22z"/><path fill="#929699" d="M174.29 250.25l.96 1.96q-1.99.86-3.54-.46l2.58-1.5zM410.28 251.96c4.73 5.16 11.63 7.14 18.31 4.6a.84.84 0 01.88 1.38q-9.25 9.13-22.48 9.29a.53.52 8.5 01-.51-.68q2.46-7.85.16-15.7a.5.49 86.2 01.55-.63q1.74.26 3.09 1.74z"/><path fill="#fff" d="M184 257.21l-.96-1.21-1.79-3.21q1.19-1.16 2.88-.79a1.53 1.49-50 00.88-.09q2.32-1.01 4.84-.93a.59.58 0 01.57.56l.1 2.65a1.29 1.25-25.3 01-.34.91q-2.43 2.58-6.18 2.11z"/><path fill="#fbfedf" d="M171.71 251.75q1.55 1.32 3.54.46 1.51 2.55 4.5 1.75.92 2.22 3.29 2.04l.96 1.21q-7.52-1.12-14.5-4.17l2.21-1.29z"/><path fill="#929699" d="M181.25 252.79l1.79 3.21q-2.37.18-3.29-2.04l1.5-1.17z"/><path fill="#fff" d="M170.71 260.5q-2.49 3.69-5.96 6.54-9.28-3.66-4.91-12.05a1.77 1.76-57.3 012.65-.58q3.28 2.55 7.33 3.57a.95.94-5.3 01.63.52q.46.93.26 2z"/><path fill="#929699" d="M279.75 255.21l-3.5.33q1.27-2.09 3.5-.33z"/><path fill="#acadae" d="M279.75 255.21l.67.23a.46.46 0 01.22.7q-1.61 2.25-4.22 2.97a.58.58 0 01-.72-.43q-.42-1.76.55-3.14l3.5-.33z"/><path fill="#929699" d="M197.46 255.5q.71 3.14-.92 5.75l.92-5.75zM228.71 265.5c-1.8 4.21-5.59 2.58-8.96 2.46q.63-.01.87-.37a.57.57 0 00-.14-.78q-5.59-4.02-11.92-6.79a.68.68 0 01.35-1.3c7.49.82 13.1 3.5 19.8 6.78zM170.71 260.5c2.03 2.18 5.04 2.41 7.75 3.25l-.47 6.29a1.13 1.13 0 00.93 1.2l5.58 1.02q-10.67.46-19.75-5.22 3.47-2.85 5.96-6.54zM203.21 271.25q-.96 1.35-.67 3-1.05 1.96.67 2.75l-1.09.93a1 .99-59.1 01-.87.22q-2.44-.58-3.84-2.28 2.64-6.56 1.77-13.74a.72.72 0 011.33-.47c1.62 2.65 4.14 6.27 2.7 9.59zM219 268.04c-1.92.47-6.21 1.46-8.14.82a1.18 1.18 0 00-.94.09l-2.88 1.55-1.84-8.17a.54.53-13.5 01.39-.63c2.77-.72 4.83 4.36 6.75 6.12a1.27 1.24 64.9 00.86.32l5.8-.1z"/><path fill="#fff" d="M184.5 272.26l-5.58-1.02a1.13 1.13 0 01-.93-1.2l.47-6.29q.98-2.47 2.98-1.73 3.78 1.4 7.46 1.44a.62.61-80.1 01.57.82q-1.53 4.38-4.97 7.98z"/><path fill="#929699" d="M100 276.79c.44 1.26 1.51 1.49 2.62.79q5.17-3.25 10.04-6.95a.77.76-27.2 00.27-.81q-.1-.34-.43-.61l6.25-4.46a1.32 1.32 0 011.86.32q3.65 5.32 8.83 9.16a.39.38 44.2 01.01.61q-2.04 1.65-4.33 3.07-16.37 10.21-32.76 20.56a.82.82 0 01-.97-.07q-3.74-3.24-8.19-5.35a1.52 1.51 52.6 00-.94-.13q-6.57 1.17-7.45 7.13-.99 6.69-.49 21.39c.17 4.93 12.12 15.79 16.1 19.44a1.43 1.42-45.4 01.01 2.08l-2.86 2.67a.46.45-42 01-.66-.03c-2.91-3.4-17.32-17.87-17.48-21.06q-.62-12.14-.71-24.29c-.02-3.39.64-4.8 3.65-6.6q13.89-8.31 27.63-16.86z"/><path fill="#acadae" d="M511.75 267.21c-1.41.87-2.85 1.05-4.11 2.06q-3.48 2.77-6.87 5.68a.8.79 37 01-.86.12q-.75-.34-.7-1.32l12.12-8.48a.35.35 0 01.55.22q.16.83-.13 1.72z"/><path fill="#929699" d="M235.96 266q.09 2.06-1.67 3 .37-1.77 1.67-3zM248.29 266.5l.45.03a.54.54 0 01.5.48l.47 3.99q-1.67-1.86-1.42-4.5zM511.75 267.21c.71 4.28 1.04 9.47 3.72 12.98a1.04 1.04 0 01-.16 1.43q-11.22 9.48-22.29 18.39-97.47 78.48-197.99 153.02c-15.37 11.4-31.81 21.63-47.4 32.94a.74.73 44.2 01-.83.01q-1.12-.76-1.66-1.94-.17-2.42-1.35-4.56a.56.56 0 01.17-.73q17.11-12.02 34.13-24.17c10.1-7.2 19.79-14.98 29.58-22.67q4.22-3.31 8.17-7.01.38-.35-.07-.09-4.62 2.62-7.72 4.75-22.73 15.68-63.71 44.36a.5.49-34.7 01-.69-.12c-1.42-2.02-2.58-3.67-4.49-5.36-8.18-7.21-14.79-13.16-24.18-21.96-1.52-1.43-14.12-12.46-14.16-13.06a.54.54 0 01.84-.49q9.31 6.33 17.72 13.5c8.08 6.88 14.96 12.13 22.44 18.24a.55.55 0 00.75-.05c2.15-2.36-7.01-9.84-8.71-11.45q-5.01-4.73-8.34-8.23-21.4-22.47-45.99-44.97-6.35-5.81-12.29-13.54-.33-.42.14-.17 2.09 1.09 4.78 3.58c16.61 15.44 37.8 32.47 55.41 50.18q8.02 8.07 16.62 15.46a.31.3-65.6 00.5-.19q.59-3.93 2.6-7.29 3.14 2.6 6.96 3.96-1.08.07-1.34 1a.47.46 12.5 00.38.59c10.22 1.63 14.34-4.88 21.74-9.82 6.29-4.2 12.55-8.08 19.33-13.52 2.62-2.1 3.66-4.88 5.85-7.45q1.58-1.84 5.53-4.4c4.06-2.62 7.87-6.45 11.21-8.91q19.1-14.01 38.7-27.3 1.1-.75 2.15-1.84c2.15-2.22 4.96-3.5 7.3-5.52q4.22-3.66 4.77-4.08 18-13.67 35.9-27.45 12.84-9.89 20.57-14.82c2.55-1.63 4.6-4.16 7.1-6.04 5.21-3.91 10.04-8.49 15.09-12.11q18.56-13.32 36.24-27.77c1.89-1.54 4.65-2.21 6.47-4.42q.37-.44-.21-.48l-2.28-.16q1.67-1.38 3.82-.84.48.13.96-.01 3.11-.84 5.68-2.86-.05.98.7 1.32a.8.79 37 00.86-.12q3.39-2.91 6.87-5.68c1.26-1.01 2.7-1.19 4.11-2.06z"/><path fill="#fff" d="M164.79 274.75q-2.69 2.98-4.54 6.54-3.24-1.75-5.22-4.92a1.29 1.26-53.5 01-.14-1.01l1.7-6.09a.56.56 0 01.88-.29q2.47 1.9 5.52 2.78a1.23 1.22-3.6 01.78.68l1.02 2.31z"/><path fill="#acadae" d="M112.5 269.21q.33.27.43.61a.77.76-27.2 01-.27.81q-4.87 3.7-10.04 6.95c-1.11.7-2.18.47-2.62-.79l12.5-7.58z"/><path fill="#929699" d="M395.8 287.4a.44.44 0 01-.2-.74q7.07-6.63 9.8-15.98a.51.51 0 01.72-.31c4.61 2.31 2.14 5.05 3.9 8.26 2.41 4.4 8.86 4.4 13.22 4.13a.57.57 0 01.31 1.06q-13.09 7.24-27.75 3.58z"/><path fill="#acadae" d="M203.21 271.25q.86 1.9-.67 3-.29-1.65.67-3z"/><path fill="#929699" d="M240.27 272.72l1.42 7.81a.54.54 0 01-.43.63q-.76.14-1.51-.37l.34-.03a.31.31 0 00.26-.39q-.96-3.72-.08-7.65zM216.75 274.71q-2.85 1.32-6 1.25 2.54-2.3 6-1.25z"/><path fill="#acadae" d="M522.57 280.69c-.87-1.99-3.78-3.4-5.14-5.47a.5.49 83.2 01.58-.74q5.07 1.82 9.3 5.27a1.68 1.67-44.9 01-.01 2.6l-29.86 24.06a.55.55 0 01-.86-.61q1.09-3.13 3.44-5.04 11.47-9.29 22.37-19.24a.74.74 0 00.18-.83z"/><path fill="#929699" d="M164.79 274.75c2.14 3.76 5.79 3.01 9.21 4.29l-.5 6.42q-7.55.66-13.25-4.17 1.85-3.56 4.54-6.54zM253.87 281.3c-1.41 2.45-5.46 5.82-8.18 7.72a.53.52 1.3 01-.72-.75q2.87-3.68 1.65-8.18-.57-2.12.44-.42 1.22 2.06 3.53 2.65a1.84 1.84 0 002.29-1.59l.47-4.51q.11-1.08.53-.08 1.25 2.95-.01 5.16zM209.75 276.29q-.26 2.24-2.46 2.96.7-1.92 2.46-2.96z"/><path fill="#fff" d="M173.5 285.46l.5-6.42 1.6-2.1a.7.68 24.3 01.69-.25l6.27 1.42a.42.42 0 01.31.53c-1.3 4.15-4.59 7.88-9.37 6.82z"/><path fill="#acadae" d="M230.25 276.54q1.76.06 3.25 1.17-2.26.66-3.25-1.17zM488.75 277.46l2.28.16q.58.04.21.48c-1.82 2.21-4.58 2.88-6.47 4.42q-17.68 14.45-36.24 27.77c-5.05 3.62-9.88 8.2-15.09 12.11-2.5 1.88-4.55 4.41-7.1 6.04q-7.73 4.93-20.57 14.82-17.9 13.78-35.9 27.45-.55.42-4.77 4.08c-2.34 2.02-5.15 3.3-7.3 5.52q-1.05 1.09-2.15 1.84-19.6 13.29-38.7 27.3c-3.34 2.46-7.15 6.29-11.21 8.91q-3.95 2.56-5.53 4.4c-2.19 2.57-3.23 5.35-5.85 7.45-6.78 5.44-13.04 9.32-19.33 13.52-7.4 4.94-11.52 11.45-21.74 9.82a.47.46 12.5 01-.38-.59q.26-.93 1.34-1c6.78.19 9.93-2.32 14.98-6.1q8.95-6.71 18.44-12.7 4.08-2.59 7.18-6.21c1.38-1.62 2.41-5.44 3.71-6.38 60.75-43.98 116.21-86.33 173.39-130.62q8.28-6.41 16.8-12.49zM298.5 307.04q-23.62-6.72-35.89-27.75.6-1.31 1.34-1.55a.67.66-22.9 01.78.31c1.58 2.88 2.75 6.11 4.92 8.5 5.04 5.58 11.29 11.12 18.2 14.23 3.67 1.66 6.58 3.95 9.69 4.17a1.59 1.59 0 011.47 1.75q-.04.38-.51.34z"/><path fill="#929699" d="M234.01 290.47q2.35.01 1.68-3.02-.24-1.07-1.65-.7l-.4-4.96q-.03-.38.3-.21l1.6.81q.5.25.82.71 2.79 4.04 7.15 6.24a.29.29 0 01.04.5q-5.46 3.94-12.06 5.69-.48.13-1.12.66a.69.69 0 01-.8.05c-6.97-4.3-16.53-7.11-24.16-3.43-2.71 1.31-6.35-2.64-7.72-4.59a.39.39 0 01.47-.58q4.04 1.8 8.11.71c2.42-.65 3.68.56 5.84.31q3.3-.37 6.61.4a.86.85 9.9 001.05-.73l.39-3.53q.08-.67.58-.22c2.24 1.99 11.76 9.49 13.27 5.89z"/><path fill="#fff" d="M159.51 287.02q-.32 3.4-3.76 4.52-3.62-2.76-2.22-7.13a.57.56-75.8 01.65-.39q3.18.62 5.33 3z"/><path fill="#929699" d="M257.06 287.72l2.3-2.85a.6.6 0 01.95.02l2.16 2.96a.6.6 0 01-.5.95l-4.45-.11a.6.6 0 01-.46-.97z"/><path fill="#fbfedf" d="M234.04 286.75q1.41-.37 1.65.7.67 3.03-1.68 3.02l.03-3.72z"/><path fill="#929699" d="M159.51 287.02q2.97 5.25 9.14 4.89-.24 3.66 3.64 4.14-9.41 1.63-16.54-4.51 3.44-1.12 3.76-4.52zM374.02 303.83a.42.42 0 01-.01-.74c7.1-3.91 12.35-6.55 18.67-13.55a.5.49 43 01.71-.02c2.5 2.46.4 7.02-1.03 9.56a1.13 1.1-40.1 00-.09.91c1.68 4.97 5.05 6.03 9.79 6.81a.28.28 0 01.07.53c-8.67 4.03-20.06.84-28.11-3.5z"/><path fill="#fff" d="M172.29 296.05q-3.88-.48-3.64-4.14 2.84-2.2 6.34-1.01a.59.58-75.4 01.39.67q-.52 2.76-3.09 4.48z"/><path fill="#acadae" d="M267.29 294q-.22.94-.92 1.31a1.03 1.02-46.7 01-.87.03l-1.32-.57a.87.85-54.6 00-.94.17c-3.44 3.29-9.63 10.02-6.2 15.06l-1.36 1.46a.53.52-28.7 01-.9-.26c-1.67-8.65 3.64-14.89 9.64-19.66a.57.56 49.9 01.78.07l2.09 2.39z"/><path fill="#929699" d="M267.29 294q6.07 6.58 13.83 10.6a.63.63 0 01-.32 1.19c-8.13-.36-16.64-4.26-23.76 4.21-3.43-5.04 2.76-11.77 6.2-15.06a.87.85-54.6 01.94-.17l1.32.57a1.03 1.02-46.7 00.87-.03q.7-.37.92-1.31zM157.71 297l-5.17-.75.01-.47a.42.42 0 01.48-.41q2.5.32 4.68 1.63z"/><path fill="#fff" d="M152.54 296.25l5.17.75v1.75q-1.83 1.73-4.21 1.54-.95-1.91-.96-4.04z"/><path fill="#acadae" d="M157.71 298.75q1.37 3.91 5.5 3 .18 2.68 2.79 2.54l-6.59 1.12a1.37 1.36-34.1 01-.95-.18q-3.03-1.87-4.96-4.94 2.38.19 4.21-1.54z"/><path fill="#fff" d="M166 304.29q-2.61.14-2.79-2.54l1.08-1.6a.67.66-67.4 01.69-.29l3.77.79a.46.46 0 01.33.63q-.9 2.14-3.08 3.01zM247.29 448q-2.01 3.36-2.6 7.29a.31.3-65.6 01-.5.19q-8.6-7.39-16.62-15.46c-17.61-17.71-38.8-34.74-55.41-50.18q-2.69-2.49-4.78-3.58-.47-.25-.14.17 5.94 7.73 12.29 13.54 24.59 22.5 45.99 44.97 3.33 3.5 8.34 8.23c1.7 1.61 10.86 9.09 8.71 11.45a.55.55 0 01-.75.05c-7.48-6.11-14.36-11.36-22.44-18.24q-8.41-7.17-17.72-13.5a.54.54 0 00-.84.49c.04.6 12.64 11.63 14.16 13.06 9.39 8.8 16 14.75 24.18 21.96 1.91 1.69 3.07 3.34 4.49 5.36a.5.49-34.7 00.69.12q40.98-28.68 63.71-44.36 3.1-2.13 7.72-4.75.45-.26.07.09-3.95 3.7-8.17 7.01c-9.79 7.69-19.48 15.47-29.58 22.67q-17.02 12.15-34.13 24.17a.56.56 0 00-.17.73q1.18 2.14 1.35 4.56c-2.79-2.4-5.18-5.47-7.56-7.67-48.34-44.6-95.41-90.78-142.46-136.73q-5.45-5.32-10.51-11c-1.23-1.38-1.68-2.57-1.21-4.5q2.93-11.83-.25-23.67-.21-.77.46-.33 4.61 3.02 8.42 7 .32.34.76.49 1.84.63 3.64.15a1.42 1.39-39.1 01.96.09q.92.44 1.64 1.1c40.3 37.07 81.29 73.4 121.89 110.14 2.82 2.55 3.16 4.67 4.24 8.09a1.64 1.61-79.8 00.54.79q11.48 9.3 21.59 20.01z"/><path fill="#929699" d="M368.3 325.35c-10.04.31-18.38-4.36-24.22-12.4q-.3-.41.21-.45c9.6-.79 16.51-3.28 25.26-6.96a.41.4 74.3 01.55.32c.48 3.34-4.68 5.3-6.06 8.1q-3.49 7.04 4.4 10.68a.37.37 0 01-.14.71zM286.54 326.94q-7.18-6.75-3.52-17.05.84-2.37 1.83-3.5a.69.68-54.7 01.86-.15q9.77 5.48 21.06 6.7a1.13 1.13 0 01.35 2.15q-3.95 1.82-8.22 1.4c-5.74-.57-11.09 3.56-11.01 9.85a.8.8 0 01-1.35.6z"/><path fill="#fff" d="M160.94 310.38c-4.33 5.51-8.14 5.34-7.77-2.75a.34.34 0 01.49-.28q3.38 1.75 7.09 2.5a.33.33 0 01.19.53z"/><path fill="#929699" d="M327.2 332.36c-8.4-2.84-14.6-8.88-14.19-18.32a.46.46 0 01.52-.44q12.85 1.76 25.7.01a.33.33 0 01.36.42c-2.08 6.83-14.43 3.48-13.55 13.37.13 1.49 1.12 3.01 1.53 4.63q.12.5-.37.33zM278.54 430.75q.27-1.01-.29-1.52a.84.82-34.7 00-.86-.15c-5.97 2.4-11.11 7.47-15.95 11.61q-1.87 1.61-5.17 1.83a1.23 1.2 63.7 01-.88-.31q-3.84-3.47-7.83-6.76c-5.27-4.35-10.51-9.77-16.25-14.17a.5.49 50.7 01.08-.84l4.33-2.15q.47-.24 1-.23 17.78.29 35.56.28c.74 0 1.04-.28 1-1.03a.56.56 0 00-.54-.54l-1.99-.06c3.36-.26 18.03-.84 20.08 1.82 2.95 3.81-9.77 10.78-12.29 12.22z"/><path fill="#acadae" d="M270.75 416.71l1.99.06a.56.56 0 01.54.54c.04.75-.26 1.03-1 1.03q-17.78.01-35.56-.28-.53-.01-1 .23l-4.33 2.15a.5.49 50.7 00-.08.84c5.74 4.4 10.98 9.82 16.25 14.17q3.99 3.29 7.83 6.76a1.23 1.2 63.7 00.88.31q3.3-.22 5.17-1.83c4.84-4.14 9.98-9.21 15.95-11.61a.84.82-34.7 01.86.15q.56.51.29 1.52-6.81 4.36-14.9 10.95c-7.59 6.18-11.17 1.03-17.34-4.89q-7.75-7.43-16.21-14.55a1.67 1.66-46.6 01-.07-2.48c1.87-1.76 4.52-2.74 7.29-2.74q16.71-.02 33.44-.33zM227.73 479.56c-2.95-2.79-5.19-4.59-4.97-9.09a.47.46-63.6 01.82-.28c6.54 7.81 15.19 14.3 21.96 22.38a1.52 1.52 0 002.03.27l33.26-23.09a.55.55 0 01.86.39q.58 4.77-3.05 7.22c-9.68 6.51-17.67 14.88-27.77 20.89a1.81 1.74-58.7 01-.94.25q-3.71-.06-4.87-1.32-8.35-9.11-17.33-17.62z"/><path fill="#21201f" d="M0 589.94l1.25.27-.52.15q-.48.14.02.16l11.44.48H0v-1.06z"/><path fill="#929699" d="M24.44 591H13.69q5.37-.63 10.75 0z"/><path fill="#21201f" d="M588.19 591h-7.25q3.62-.63 7.25 0z"/></svg>